<svg xmlns="http://www.w3.org/2000/svg" xmlns:xlink="http://www.w3.org/1999/xlink" id="body_40" preserveAspectRatio="xMinYMin meet" viewBox="0 0 793 1121"><defs><clipPath id="1"><path id="" clip-rule="evenodd" transform="matrix(1 0 0 1 0 0)" d="M0 841L0 -0.8900146L0 -0.8900146L595.276 -0.8900146L595.276 -0.8900146L595.276 841L595.276 841L0 841z" /></clipPath></defs><g transform="matrix(1.333333 0 0 1.333333 0 0)"><g clip-path="url(#1)"><path id="27" transform="matrix(1 0 0 -1 0 841)" d="M85.039 766.564L510.236 766.564" stroke="#000000" stroke-width="0.498" fill="none" /><path id="28" transform="matrix(1 0 0 -1 0 841)" d="M85.039 756.651L492.552 756.651" stroke="#000000" stroke-width="0.398" fill="none" /><path id="29" transform="matrix(1 0 0 -1 0 841)" d="M85.239 742.903L85.239 756.452" stroke="#000000" stroke-width="0.398" fill="none" /><path id="61" transform="matrix(1 0 0 -1 0 841)" d="M492.353 742.903L492.353 756.452" stroke="#000000" stroke-width="0.398" fill="none" /><path id="62" transform="matrix(1 0 0 -1 0 841)" d="M85.039 742.703L492.552 742.703" stroke="#000000" stroke-width="0.398" fill="none" /><path id="63" transform="matrix(1 0 0 -1 0 841)" d="M85.239 728.955L85.239 742.504" stroke="#000000" stroke-width="0.398" fill="none" /><path id="118" transform="matrix(1 0 0 -1 0 841)" d="M492.353 728.955L492.353 742.504" stroke="#000000" stroke-width="0.398" fill="none" /><path id="119" transform="matrix(1 0 0 -1 0 841)" d="M85.039 728.756L492.552 728.756" stroke="#000000" stroke-width="0.398" fill="none" /><path id="120" transform="matrix(1 0 0 -1 0 841)" d="M97.194 715.007L97.194 728.556" stroke="#000000" stroke-width="0.398" fill="none" /><path id="126" transform="matrix(1 0 0 -1 0 841)" d="M139.842 715.007L139.842 728.556" stroke="#000000" stroke-width="0.398" fill="none" /><path id="161" transform="matrix(1 0 0 -1 0 841)" d="M492.353 715.007L492.353 728.556" stroke="#000000" stroke-width="0.398" fill="none" /><path id="162" transform="matrix(1 0 0 -1 0 841)" d="M97.393 714.808L492.552 714.808" stroke="#000000" stroke-width="0.398" fill="none" /><path id="163" transform="matrix(1 0 0 -1 0 841)" d="M97.194 701.458L97.194 715.007" stroke="#000000" stroke-width="0.398" fill="none" /><path id="169" transform="matrix(1 0 0 -1 0 841)" d="M139.842 701.458L139.842 715.007" stroke="#000000" stroke-width="0.398" fill="none" /><path id="201" transform="matrix(1 0 0 -1 0 841)" d="M492.353 701.458L492.353 715.007" stroke="#000000" stroke-width="0.398" fill="none" /><path id="202" transform="matrix(1 0 0 -1 0 841)" d="M97.393 701.259L492.552 701.259" stroke="#000000" stroke-width="0.398" fill="none" /><path id="203" transform="matrix(1 0 0 -1 0 841)" d="M97.194 687.909L97.194 701.458" stroke="#000000" stroke-width="0.398" fill="none" /><path id="209" transform="matrix(1 0 0 -1 0 841)" d="M139.842 687.909L139.842 701.458" stroke="#000000" stroke-width="0.398" fill="none" /><path id="247" transform="matrix(1 0 0 -1 0 841)" d="M492.353 687.909L492.353 701.458" stroke="#000000" stroke-width="0.398" fill="none" /><path id="248" transform="matrix(1 0 0 -1 0 841)" d="M97.393 687.71L492.552 687.71" stroke="#000000" stroke-width="0.398" fill="none" /><path id="249" transform="matrix(1 0 0 -1 0 841)" d="M97.194 674.36L97.194 687.909" stroke="#000000" stroke-width="0.398" fill="none" /><path id="255" transform="matrix(1 0 0 -1 0 841)" d="M139.842 674.36L139.842 687.909" stroke="#000000" stroke-width="0.398" fill="none" /><path id="298" transform="matrix(1 0 0 -1 0 841)" d="M492.353 674.36L492.353 687.909" stroke="#000000" stroke-width="0.398" fill="none" /><path id="299" transform="matrix(1 0 0 -1 0 841)" d="M97.393 674.161L492.552 674.161" stroke="#000000" stroke-width="0.398" fill="none" /><path id="300" transform="matrix(1 0 0 -1 0 841)" d="M97.194 660.811L97.194 674.36" stroke="#000000" stroke-width="0.398" fill="none" /><path id="306" transform="matrix(1 0 0 -1 0 841)" d="M139.842 660.811L139.842 674.36" stroke="#000000" stroke-width="0.398" fill="none" /><path id="339" transform="matrix(1 0 0 -1 0 841)" d="M492.353 660.811L492.353 674.36" stroke="#000000" stroke-width="0.398" fill="none" /><path id="340" transform="matrix(1 0 0 -1 0 841)" d="M97.393 660.611L492.552 660.611" stroke="#000000" stroke-width="0.398" fill="none" /><path id="341" transform="matrix(1 0 0 -1 0 841)" d="M97.194 647.261L97.194 660.81" stroke="#000000" stroke-width="0.398" fill="none" /><path id="347" transform="matrix(1 0 0 -1 0 841)" d="M139.842 647.261L139.842 660.81" stroke="#000000" stroke-width="0.398" fill="none" /><path id="387" transform="matrix(1 0 0 -1 0 841)" d="M492.353 647.261L492.353 660.81" stroke="#000000" stroke-width="0.398" fill="none" /><path id="388" transform="matrix(1 0 0 -1 0 841)" d="M97.393 647.062L492.552 647.062" stroke="#000000" stroke-width="0.398" fill="none" /><path id="389" transform="matrix(1 0 0 -1 0 841)" d="M97.194 633.712L97.194 647.261" stroke="#000000" stroke-width="0.398" fill="none" /><path id="395" transform="matrix(1 0 0 -1 0 841)" d="M139.842 633.712L139.842 647.261" stroke="#000000" stroke-width="0.398" fill="none" /><path id="434" transform="matrix(1 0 0 -1 0 841)" d="M492.353 633.712L492.353 647.261" stroke="#000000" stroke-width="0.398" fill="none" /><path id="435" transform="matrix(1 0 0 -1 0 841)" d="M97.393 633.513L492.552 633.513" stroke="#000000" stroke-width="0.398" fill="none" /><path id="436" transform="matrix(1 0 0 -1 0 841)" d="M97.194 620.163L97.194 633.712" stroke="#000000" stroke-width="0.398" fill="none" /><path id="442" transform="matrix(1 0 0 -1 0 841)" d="M139.842 620.163L139.842 633.712" stroke="#000000" stroke-width="0.398" fill="none" /><path id="481" transform="matrix(1 0 0 -1 0 841)" d="M492.353 620.163L492.353 633.712" stroke="#000000" stroke-width="0.398" fill="none" /><path id="482" transform="matrix(1 0 0 -1 0 841)" d="M85.039 619.964L492.552 619.964" stroke="#000000" stroke-width="0.398" fill="none" /><path id="483" transform="matrix(1 0 0 -1 0 841)" d="M85.239 606.215L85.239 619.764" stroke="#000000" stroke-width="0.398" fill="none" /><path id="518" transform="matrix(1 0 0 -1 0 841)" d="M492.353 606.215L492.353 619.764" stroke="#000000" stroke-width="0.398" fill="none" /><path id="519" transform="matrix(1 0 0 -1 0 841)" d="M85.039 606.016L492.552 606.016" stroke="#000000" stroke-width="0.398" fill="none" /><path id="520" transform="matrix(1 0 0 -1 0 841)" d="M97.194 592.268L97.194 605.817" stroke="#000000" stroke-width="0.398" fill="none" /><path id="526" transform="matrix(1 0 0 -1 0 841)" d="M139.842 592.268L139.842 605.817" stroke="#000000" stroke-width="0.398" fill="none" /><path id="569" transform="matrix(1 0 0 -1 0 841)" d="M492.353 592.268L492.353 605.817" stroke="#000000" stroke-width="0.398" fill="none" /><path id="570" transform="matrix(1 0 0 -1 0 841)" d="M97.393 592.068L492.552 592.068" stroke="#000000" stroke-width="0.398" fill="none" /><path id="571" transform="matrix(1 0 0 -1 0 841)" d="M97.194 578.719L97.194 592.268" stroke="#000000" stroke-width="0.398" fill="none" /><path id="577" transform="matrix(1 0 0 -1 0 841)" d="M139.842 578.719L139.842 592.268" stroke="#000000" stroke-width="0.398" fill="none" /><path id="630" transform="matrix(1 0 0 -1 0 841)" d="M492.353 578.719L492.353 592.268" stroke="#000000" stroke-width="0.398" fill="none" /><path id="631" transform="matrix(1 0 0 -1 0 841)" d="M97.393 578.519L492.552 578.519" stroke="#000000" stroke-width="0.398" fill="none" /><path id="632" transform="matrix(1 0 0 -1 0 841)" d="M97.194 565.169L97.194 578.718" stroke="#000000" stroke-width="0.398" fill="none" /><path id="638" transform="matrix(1 0 0 -1 0 841)" d="M139.842 565.169L139.842 578.718" stroke="#000000" stroke-width="0.398" fill="none" /><path id="673" transform="matrix(1 0 0 -1 0 841)" d="M492.353 565.169L492.353 578.718" stroke="#000000" stroke-width="0.398" fill="none" /><path id="674" transform="matrix(1 0 0 -1 0 841)" d="M97.393 564.97L492.552 564.97" stroke="#000000" stroke-width="0.398" fill="none" /><path id="675" transform="matrix(1 0 0 -1 0 841)" d="M97.194 551.62L97.194 565.169" stroke="#000000" stroke-width="0.398" fill="none" /><path id="681" transform="matrix(1 0 0 -1 0 841)" d="M139.842 551.62L139.842 565.169" stroke="#000000" stroke-width="0.398" fill="none" /><path id="741" transform="matrix(1 0 0 -1 0 841)" d="M492.353 551.62L492.353 565.169" stroke="#000000" stroke-width="0.398" fill="none" /><path id="742" transform="matrix(1 0 0 -1 0 841)" d="M97.393 551.421L492.552 551.421" stroke="#000000" stroke-width="0.398" fill="none" /><path id="743" transform="matrix(1 0 0 -1 0 841)" d="M97.194 538.071L97.194 551.62" stroke="#000000" stroke-width="0.398" fill="none" /><path id="749" transform="matrix(1 0 0 -1 0 841)" d="M139.842 538.071L139.842 551.62" stroke="#000000" stroke-width="0.398" fill="none" /><path id="794" transform="matrix(1 0 0 -1 0 841)" d="M492.353 538.071L492.353 551.62" stroke="#000000" stroke-width="0.398" fill="none" /><path id="795" transform="matrix(1 0 0 -1 0 841)" d="M97.393 537.872L492.552 537.872" stroke="#000000" stroke-width="0.398" fill="none" /><path id="796" transform="matrix(1 0 0 -1 0 841)" d="M97.194 524.522L97.194 538.071" stroke="#000000" stroke-width="0.398" fill="none" /><path id="802" transform="matrix(1 0 0 -1 0 841)" d="M139.842 524.522L139.842 538.071" stroke="#000000" stroke-width="0.398" fill="none" /><path id="854" transform="matrix(1 0 0 -1 0 841)" d="M492.353 524.522L492.353 538.071" stroke="#000000" stroke-width="0.398" fill="none" /><path id="855" transform="matrix(1 0 0 -1 0 841)" d="M97.393 524.323L492.552 524.323" stroke="#000000" stroke-width="0.398" fill="none" /><path id="856" transform="matrix(1 0 0 -1 0 841)" d="M97.194 510.973L97.194 524.522" stroke="#000000" stroke-width="0.398" fill="none" /><path id="862" transform="matrix(1 0 0 -1 0 841)" d="M139.842 510.973L139.842 524.522" stroke="#000000" stroke-width="0.398" fill="none" /><path id="922" transform="matrix(1 0 0 -1 0 841)" d="M492.353 510.973L492.353 524.522" stroke="#000000" stroke-width="0.398" fill="none" /><path id="923" transform="matrix(1 0 0 -1 0 841)" d="M97.393 510.773L492.552 510.773" stroke="#000000" stroke-width="0.398" fill="none" /><path id="924" transform="matrix(1 0 0 -1 0 841)" d="M97.194 497.423L97.194 510.972" stroke="#000000" stroke-width="0.398" fill="none" /><path id="930" transform="matrix(1 0 0 -1 0 841)" d="M139.842 497.423L139.842 510.972" stroke="#000000" stroke-width="0.398" fill="none" /><path id="964" transform="matrix(1 0 0 -1 0 841)" d="M492.353 497.423L492.353 510.972" stroke="#000000" stroke-width="0.398" fill="none" /><path id="965" transform="matrix(1 0 0 -1 0 841)" d="M97.393 497.224L492.552 497.224" stroke="#000000" stroke-width="0.398" fill="none" /><path id="966" transform="matrix(1 0 0 -1 0 841)" d="M97.194 483.874L97.194 497.423" stroke="#000000" stroke-width="0.398" fill="none" /><path id="972" transform="matrix(1 0 0 -1 0 841)" d="M139.842 483.874L139.842 497.423" stroke="#000000" stroke-width="0.398" fill="none" /><path id="1021" transform="matrix(1 0 0 -1 0 841)" d="M492.353 483.874L492.353 497.423" stroke="#000000" stroke-width="0.398" fill="none" /><path id="1022" transform="matrix(1 0 0 -1 0 841)" d="M97.393 483.675L492.552 483.675" stroke="#000000" stroke-width="0.398" fill="none" /><path id="1023" transform="matrix(1 0 0 -1 0 841)" d="M97.194 470.325L97.194 483.874" stroke="#000000" stroke-width="0.398" fill="none" /><path id="1029" transform="matrix(1 0 0 -1 0 841)" d="M139.842 470.325L139.842 483.874" stroke="#000000" stroke-width="0.398" fill="none" /><path id="1081" transform="matrix(1 0 0 -1 0 841)" d="M492.353 470.325L492.353 483.874" stroke="#000000" stroke-width="0.398" fill="none" /><path id="1082" transform="matrix(1 0 0 -1 0 841)" d="M97.393 470.126L492.552 470.126" stroke="#000000" stroke-width="0.398" fill="none" /><path id="1083" transform="matrix(1 0 0 -1 0 841)" d="M97.194 456.776L97.194 470.325" stroke="#000000" stroke-width="0.398" fill="none" /><path id="1089" transform="matrix(1 0 0 -1 0 841)" d="M139.842 456.776L139.842 470.325" stroke="#000000" stroke-width="0.398" fill="none" /><path id="1153" transform="matrix(1 0 0 -1 0 841)" d="M492.353 456.776L492.353 470.325" stroke="#000000" stroke-width="0.398" fill="none" /><path id="1154" transform="matrix(1 0 0 -1 0 841)" d="M97.393 456.577L492.552 456.577" stroke="#000000" stroke-width="0.398" fill="none" /><path id="1155" transform="matrix(1 0 0 -1 0 841)" d="M97.194 443.227L97.194 456.776" stroke="#000000" stroke-width="0.398" fill="none" /><path id="1161" transform="matrix(1 0 0 -1 0 841)" d="M139.842 443.227L139.842 456.776" stroke="#000000" stroke-width="0.398" fill="none" /><path id="1220" transform="matrix(1 0 0 -1 0 841)" d="M492.353 443.227L492.353 456.776" stroke="#000000" stroke-width="0.398" fill="none" /><path id="1221" transform="matrix(1 0 0 -1 0 841)" d="M97.393 443.027L492.552 443.027" stroke="#000000" stroke-width="0.398" fill="none" /><path id="1222" transform="matrix(1 0 0 -1 0 841)" d="M97.194 429.678L97.194 443.227" stroke="#000000" stroke-width="0.398" fill="none" /><path id="1228" transform="matrix(1 0 0 -1 0 841)" d="M139.842 429.678L139.842 443.227" stroke="#000000" stroke-width="0.398" fill="none" /><path id="1265" transform="matrix(1 0 0 -1 0 841)" d="M492.353 429.678L492.353 443.227" stroke="#000000" stroke-width="0.398" fill="none" /><path id="1266" transform="matrix(1 0 0 -1 0 841)" d="M97.393 429.478L492.552 429.478" stroke="#000000" stroke-width="0.398" fill="none" /><path id="1267" transform="matrix(1 0 0 -1 0 841)" d="M97.194 416.128L97.194 429.677" stroke="#000000" stroke-width="0.398" fill="none" /><path id="1273" transform="matrix(1 0 0 -1 0 841)" d="M139.842 416.128L139.842 429.677" stroke="#000000" stroke-width="0.398" fill="none" /><path id="1307" transform="matrix(1 0 0 -1 0 841)" d="M492.353 416.128L492.353 429.677" stroke="#000000" stroke-width="0.398" fill="none" /><path id="1308" transform="matrix(1 0 0 -1 0 841)" d="M97.393 415.929L492.552 415.929" stroke="#000000" stroke-width="0.398" fill="none" /><path id="1309" transform="matrix(1 0 0 -1 0 841)" d="M97.194 402.579L97.194 416.128" stroke="#000000" stroke-width="0.398" fill="none" /><path id="1315" transform="matrix(1 0 0 -1 0 841)" d="M139.842 402.579L139.842 416.128" stroke="#000000" stroke-width="0.398" fill="none" /><path id="1355" transform="matrix(1 0 0 -1 0 841)" d="M492.353 402.579L492.353 416.128" stroke="#000000" stroke-width="0.398" fill="none" /><path id="1356" transform="matrix(1 0 0 -1 0 841)" d="M97.393 402.38L492.552 402.38" stroke="#000000" stroke-width="0.398" fill="none" /><path id="1357" transform="matrix(1 0 0 -1 0 841)" d="M97.194 389.03L97.194 402.579" stroke="#000000" stroke-width="0.398" fill="none" /><path id="1363" transform="matrix(1 0 0 -1 0 841)" d="M139.842 389.03L139.842 402.579" stroke="#000000" stroke-width="0.398" fill="none" /><path id="1389" transform="matrix(1 0 0 -1 0 841)" d="M492.353 389.03L492.353 402.579" stroke="#000000" stroke-width="0.398" fill="none" /><path id="1390" transform="matrix(1 0 0 -1 0 841)" d="M97.393 388.831L492.552 388.831" stroke="#000000" stroke-width="0.398" fill="none" /><path id="1391" transform="matrix(1 0 0 -1 0 841)" d="M97.194 375.481L97.194 389.03" stroke="#000000" stroke-width="0.398" fill="none" /><path id="1397" transform="matrix(1 0 0 -1 0 841)" d="M139.842 375.481L139.842 389.03" stroke="#000000" stroke-width="0.398" fill="none" /><path id="1442" transform="matrix(1 0 0 -1 0 841)" d="M492.353 375.481L492.353 389.03" stroke="#000000" stroke-width="0.398" fill="none" /><path id="1443" transform="matrix(1 0 0 -1 0 841)" d="M97.393 375.282L492.552 375.282" stroke="#000000" stroke-width="0.398" fill="none" /><path id="1444" transform="matrix(1 0 0 -1 0 841)" d="M97.194 361.932L97.194 375.481" stroke="#000000" stroke-width="0.398" fill="none" /><path id="1450" transform="matrix(1 0 0 -1 0 841)" d="M139.842 361.932L139.842 375.481" stroke="#000000" stroke-width="0.398" fill="none" /><path id="1485" transform="matrix(1 0 0 -1 0 841)" d="M492.353 361.932L492.353 375.481" stroke="#000000" stroke-width="0.398" fill="none" /><path id="1486" transform="matrix(1 0 0 -1 0 841)" d="M97.393 361.732L492.552 361.732" stroke="#000000" stroke-width="0.398" fill="none" /><path id="1487" transform="matrix(1 0 0 -1 0 841)" d="M97.194 348.382L97.194 361.931" stroke="#000000" stroke-width="0.398" fill="none" /><path id="1493" transform="matrix(1 0 0 -1 0 841)" d="M139.842 348.382L139.842 361.931" stroke="#000000" stroke-width="0.398" fill="none" /><path id="1526" transform="matrix(1 0 0 -1 0 841)" d="M492.353 348.382L492.353 361.931" stroke="#000000" stroke-width="0.398" fill="none" /><path id="1527" transform="matrix(1 0 0 -1 0 841)" d="M97.393 348.183L492.552 348.183" stroke="#000000" stroke-width="0.398" fill="none" /><path id="1528" transform="matrix(1 0 0 -1 0 841)" d="M97.194 334.833L97.194 348.382" stroke="#000000" stroke-width="0.398" fill="none" /><path id="1534" transform="matrix(1 0 0 -1 0 841)" d="M139.842 334.833L139.842 348.382" stroke="#000000" stroke-width="0.398" fill="none" /><path id="1569" transform="matrix(1 0 0 -1 0 841)" d="M492.353 334.833L492.353 348.382" stroke="#000000" stroke-width="0.398" fill="none" /><path id="1570" transform="matrix(1 0 0 -1 0 841)" d="M97.393 334.634L492.552 334.634" stroke="#000000" stroke-width="0.398" fill="none" /><path id="1571" transform="matrix(1 0 0 -1 0 841)" d="M97.194 321.284L97.194 334.833" stroke="#000000" stroke-width="0.398" fill="none" /><path id="1577" transform="matrix(1 0 0 -1 0 841)" d="M139.842 321.284L139.842 334.833" stroke="#000000" stroke-width="0.398" fill="none" /><path id="1638" transform="matrix(1 0 0 -1 0 841)" d="M492.353 321.284L492.353 334.833" stroke="#000000" stroke-width="0.398" fill="none" /><path id="1639" transform="matrix(1 0 0 -1 0 841)" d="M97.393 321.085L492.552 321.085" stroke="#000000" stroke-width="0.398" fill="none" /><path id="1640" transform="matrix(1 0 0 -1 0 841)" d="M97.194 307.735L97.194 321.284" stroke="#000000" stroke-width="0.398" fill="none" /><path id="1646" transform="matrix(1 0 0 -1 0 841)" d="M139.842 307.735L139.842 321.284" stroke="#000000" stroke-width="0.398" fill="none" /><path id="1698" transform="matrix(1 0 0 -1 0 841)" d="M492.353 307.735L492.353 321.284" stroke="#000000" stroke-width="0.398" fill="none" /><path id="1699" transform="matrix(1 0 0 -1 0 841)" d="M97.393 307.536L492.552 307.536" stroke="#000000" stroke-width="0.398" fill="none" /></g></g></svg>