<svg xmlns="http://www.w3.org/2000/svg" xmlns:xlink="http://www.w3.org/1999/xlink" id="body_83" preserveAspectRatio="xMinYMin meet" viewBox="0 0 793 1121"><defs><clipPath id="1"><path id="" clip-rule="evenodd" transform="matrix(1 0 0 1 0 0)" d="M0 841L0 -0.8900146L0 -0.8900146L595.276 -0.8900146L595.276 -0.8900146L595.276 841L595.276 841L0 841z" /></clipPath></defs><g transform="matrix(1.333333 0 0 1.333333 0 0)"><g clip-path="url(#1)"><path id="33" transform="matrix(1 0 0 -1 0 841)" d="M85.039 766.564L510.236 766.564" stroke="#000000" stroke-width="0.498" fill="none" /><path id="131" transform="matrix(1 0 0 -1 0 841)" d="M325.397 725.636L341.761 725.636" stroke="#000000" stroke-width="0.436" fill="none" /><path id="144" transform="matrix(1 0 0 -1 0 841)" d="M404.136 733.395L416.365 733.395" stroke="#000000" stroke-width="0.398" fill="none" /><path id="145" transform="matrix(1 0 0 -1 0 841)" d="M404.335 719.721L404.335 733.395" stroke="#000000" stroke-width="0.398" fill="none" /><path id="146" transform="matrix(1 0 0 -1 0 841)" d="M416.166 719.721L416.166 733.395" stroke="#000000" stroke-width="0.398" fill="none" /><path id="147" transform="matrix(1 0 0 -1 0 841)" d="M404.136 719.721L416.365 719.721" stroke="#000000" stroke-width="0.398" fill="none" /><path id="213" transform="matrix(1 0 0 -1 0 841)" d="M360.361 693.647L416.725 693.647" stroke="#000000" stroke-width="0.436" fill="none" /><path id="231" transform="matrix(1 0 0 -1 0 841)" d="M458.003 693.647L496.782 693.647" stroke="#000000" stroke-width="0.436" fill="none" /><path id="413" transform="matrix(1 0 0 -1 0 841)" d="M319.942 616.292L336.306 616.292" stroke="#000000" stroke-width="0.436" fill="none" /><path id="426" transform="matrix(1 0 0 -1 0 841)" d="M404.136 624.051L416.365 624.051" stroke="#000000" stroke-width="0.398" fill="none" /><path id="427" transform="matrix(1 0 0 -1 0 841)" d="M404.335 610.377L404.335 624.051" stroke="#000000" stroke-width="0.398" fill="none" /><path id="428" transform="matrix(1 0 0 -1 0 841)" d="M416.166 610.377L416.166 624.051" stroke="#000000" stroke-width="0.398" fill="none" /><path id="429" transform="matrix(1 0 0 -1 0 841)" d="M404.136 610.377L416.365 610.377" stroke="#000000" stroke-width="0.398" fill="none" /><path id="496" transform="matrix(1 0 0 -1 0 841)" d="M360.724 584.472L417.088 584.472" stroke="#000000" stroke-width="0.436" fill="none" /><path id="513" transform="matrix(1 0 0 -1 0 841)" d="M458.973 584.472L492.298 584.472" stroke="#000000" stroke-width="0.436" fill="none" /><path id="716" transform="matrix(1 0 0 -1 0 841)" d="M330.851 492.944L352.669 492.944" stroke="#000000" stroke-width="0.436" fill="none" /><path id="730" transform="matrix(1 0 0 -1 0 841)" d="M425.954 500.703L438.183 500.703" stroke="#000000" stroke-width="0.398" fill="none" /><path id="731" transform="matrix(1 0 0 -1 0 841)" d="M426.154 486.86L426.154 500.703" stroke="#000000" stroke-width="0.398" fill="none" /><path id="732" transform="matrix(1 0 0 -1 0 841)" d="M437.984 486.86L437.984 500.703" stroke="#000000" stroke-width="0.398" fill="none" /><path id="733" transform="matrix(1 0 0 -1 0 841)" d="M425.954 486.86L438.183 486.86" stroke="#000000" stroke-width="0.398" fill="none" /><path id="800" transform="matrix(1 0 0 -1 0 841)" d="M360.361 461.124L416.725 461.124" stroke="#000000" stroke-width="0.436" fill="none" /><path id="818" transform="matrix(1 0 0 -1 0 841)" d="M458.003 461.124L496.782 461.124" stroke="#000000" stroke-width="0.436" fill="none" /></g></g></svg>