<svg xmlns="http://www.w3.org/2000/svg" xmlns:xlink="http://www.w3.org/1999/xlink" id="body_267" preserveAspectRatio="xMinYMin meet" viewBox="0 0 793 1121"><defs><clipPath id="1"><path id="" clip-rule="evenodd" transform="matrix(1 0 0 1 0 0)" d="M0 841L0 -0.8900146L0 -0.8900146L595.276 -0.8900146L595.276 -0.8900146L595.276 841L595.276 841L0 841z" /></clipPath></defs><g transform="matrix(1.333333 0 0 1.333333 0 0)"><g clip-path="url(#1)"><path id="37" transform="matrix(1 0 0 -1 0 841)" d="M85.039 766.564L510.236 766.564" stroke="#000000" stroke-width="0.498" fill="none" /><path id="439" transform="matrix(1 0 0 -1 0 841)" d="M112.312 602.595L188.576 602.595L188.576 618.331L112.312 618.331z" stroke="none" fill="#00FF00" fill-rule="nonzero" /><path id="728" transform="matrix(1 0 0 -1 0 841)" d="M245.489 520.165L361.44 520.165L361.44 533.6479L245.489 533.6479z" stroke="none" fill="#00FF00" fill-rule="nonzero" /><path id="755" transform="matrix(1 0 0 -1 0 841)" d="M112.312 500.976L180.689 500.976L180.689 516.712L112.312 516.712z" stroke="none" fill="#00FF00" fill-rule="nonzero" /><path id="939" transform="matrix(1 0 0 -1 0 841)" d="M303.673 452.419L411.137 452.419L411.137 465.902L303.673 465.902z" stroke="none" fill="#00FF00" fill-rule="nonzero" /></g></g></svg>