<svg xmlns="http://www.w3.org/2000/svg" xmlns:xlink="http://www.w3.org/1999/xlink" id="body_14" preserveAspectRatio="xMinYMin meet" viewBox="0 0 793 1121"><defs><clipPath id="1"><path id="" clip-rule="evenodd" transform="matrix(1 0 0 1 0 0)" d="M0 841L0 -0.8900146L0 -0.8900146L595.276 -0.8900146L595.276 -0.8900146L595.276 841L595.276 841L0 841z" /></clipPath></defs><g transform="matrix(1.333333 0 0 1.333333 0 0)"><g clip-path="url(#1)"><path id="45" transform="matrix(1 0 0 -1 0 841)" d="M85.039 766.564L510.236 766.564" stroke="#000000" stroke-width="0.498" fill="none" /><path id="262" transform="matrix(1 0 0 -1 0 841)" d="M85.039 691.802L556.221 691.802" stroke="#000000" stroke-width="0.398" fill="none" /><path id="263" transform="matrix(1 0 0 -1 0 841)" d="M85.239 663.707L85.239 691.602" stroke="#000000" stroke-width="0.398" fill="none" /><path id="268" transform="matrix(1 0 0 -1 0 841)" d="M135.442 663.707L135.442 691.602" stroke="#000000" stroke-width="0.398" fill="none" /><path id="269" transform="matrix(1 0 0 -1 0 841)" d="M135.841 663.707L135.841 691.602" stroke="#000000" stroke-width="0.398" fill="none" /><path id="302" transform="matrix(1 0 0 -1 0 841)" d="M335.555 663.707L335.555 691.602" stroke="#000000" stroke-width="0.398" fill="none" /><path id="303" transform="matrix(1 0 0 -1 0 841)" d="M359.417 663.707L359.417 691.602" stroke="#000000" stroke-width="0.398" fill="none" /><path id="304" transform="matrix(1 0 0 -1 0 841)" d="M359.815 663.707L359.815 691.602" stroke="#000000" stroke-width="0.398" fill="none" /><path id="350" transform="matrix(1 0 0 -1 0 841)" d="M556.023 663.707L556.023 691.602" stroke="#000000" stroke-width="0.398" fill="none" /><path id="351" transform="matrix(1 0 0 -1 0 841)" d="M85.039 663.508L556.221 663.508" stroke="#000000" stroke-width="0.398" fill="none" /><path id="352" transform="matrix(1 0 0 -1 0 841)" d="M85.239 653.844L85.239 663.308" stroke="#000000" stroke-width="0.398" fill="none" /><path id="359" transform="matrix(1 0 0 -1 0 841)" d="M135.442 653.844L135.442 663.308" stroke="#000000" stroke-width="0.398" fill="none" /><path id="360" transform="matrix(1 0 0 -1 0 841)" d="M335.555 653.844L335.555 663.308" stroke="#000000" stroke-width="0.398" fill="none" /><path id="361" transform="matrix(1 0 0 -1 0 841)" d="M359.417 653.844L359.417 663.308" stroke="#000000" stroke-width="0.398" fill="none" /><path id="362" transform="matrix(1 0 0 -1 0 841)" d="M556.023 653.844L556.023 663.308" stroke="#000000" stroke-width="0.398" fill="none" /><path id="363" transform="matrix(1 0 0 -1 0 841)" d="M85.039 653.645L556.221 653.645" stroke="#000000" stroke-width="0.398" fill="none" /><path id="364" transform="matrix(1 0 0 -1 0 841)" d="M85.239 643.981L85.239 653.445" stroke="#000000" stroke-width="0.398" fill="none" /><path id="366" transform="matrix(1 0 0 -1 0 841)" d="M135.442 643.981L135.442 653.445" stroke="#000000" stroke-width="0.398" fill="none" /><path id="414" transform="matrix(1 0 0 -1 0 841)" d="M335.555 643.981L335.555 653.445" stroke="#000000" stroke-width="0.398" fill="none" /><path id="418" transform="matrix(1 0 0 -1 0 841)" d="M359.417 643.981L359.417 653.445" stroke="#000000" stroke-width="0.398" fill="none" /><path id="455" transform="matrix(1 0 0 -1 0 841)" d="M556.023 643.981L556.023 653.445" stroke="#000000" stroke-width="0.398" fill="none" /><path id="456" transform="matrix(1 0 0 -1 0 841)" d="M85.039 643.782L556.221 643.782" stroke="#000000" stroke-width="0.398" fill="none" /><path id="457" transform="matrix(1 0 0 -1 0 841)" d="M85.239 634.118L85.239 643.582" stroke="#000000" stroke-width="0.398" fill="none" /><path id="465" transform="matrix(1 0 0 -1 0 841)" d="M135.442 634.118L135.442 643.582" stroke="#000000" stroke-width="0.398" fill="none" /><path id="466" transform="matrix(1 0 0 -1 0 841)" d="M335.555 634.118L335.555 643.582" stroke="#000000" stroke-width="0.398" fill="none" /><path id="467" transform="matrix(1 0 0 -1 0 841)" d="M359.417 634.118L359.417 643.582" stroke="#000000" stroke-width="0.398" fill="none" /><path id="468" transform="matrix(1 0 0 -1 0 841)" d="M556.023 634.118L556.023 643.582" stroke="#000000" stroke-width="0.398" fill="none" /><path id="469" transform="matrix(1 0 0 -1 0 841)" d="M85.039 633.919L556.221 633.919" stroke="#000000" stroke-width="0.398" fill="none" /><path id="470" transform="matrix(1 0 0 -1 0 841)" d="M85.239 614.791L85.239 633.72" stroke="#000000" stroke-width="0.398" fill="none" /><path id="472" transform="matrix(1 0 0 -1 0 841)" d="M135.442 614.791L135.442 633.72" stroke="#000000" stroke-width="0.398" fill="none" /><path id="520" transform="matrix(1 0 0 -1 0 841)" d="M335.555 614.791L335.555 633.72" stroke="#000000" stroke-width="0.398" fill="none" /><path id="524" transform="matrix(1 0 0 -1 0 841)" d="M359.417 614.791L359.417 633.72" stroke="#000000" stroke-width="0.398" fill="none" /><path id="581" transform="matrix(1 0 0 -1 0 841)" d="M556.023 614.791L556.023 633.72" stroke="#000000" stroke-width="0.398" fill="none" /><path id="582" transform="matrix(1 0 0 -1 0 841)" d="M85.039 614.592L556.221 614.592" stroke="#000000" stroke-width="0.398" fill="none" /><path id="583" transform="matrix(1 0 0 -1 0 841)" d="M85.239 604.928L85.239 614.392" stroke="#000000" stroke-width="0.398" fill="none" /><path id="585" transform="matrix(1 0 0 -1 0 841)" d="M135.442 604.928L135.442 614.392" stroke="#000000" stroke-width="0.398" fill="none" /><path id="634" transform="matrix(1 0 0 -1 0 841)" d="M335.555 604.928L335.555 614.392" stroke="#000000" stroke-width="0.398" fill="none" /><path id="638" transform="matrix(1 0 0 -1 0 841)" d="M359.417 604.928L359.417 614.392" stroke="#000000" stroke-width="0.398" fill="none" /><path id="676" transform="matrix(1 0 0 -1 0 841)" d="M556.023 604.928L556.023 614.392" stroke="#000000" stroke-width="0.398" fill="none" /><path id="677" transform="matrix(1 0 0 -1 0 841)" d="M85.039 604.729L556.221 604.729" stroke="#000000" stroke-width="0.398" fill="none" /><path id="678" transform="matrix(1 0 0 -1 0 841)" d="M85.239 576.136L85.239 604.529" stroke="#000000" stroke-width="0.398" fill="none" /><path id="680" transform="matrix(1 0 0 -1 0 841)" d="M135.442 576.136L135.442 604.529" stroke="#000000" stroke-width="0.398" fill="none" /><path id="798" transform="matrix(1 0 0 -1 0 841)" d="M335.555 576.136L335.555 604.529" stroke="#000000" stroke-width="0.398" fill="none" /><path id="802" transform="matrix(1 0 0 -1 0 841)" d="M359.417 576.136L359.417 604.529" stroke="#000000" stroke-width="0.398" fill="none" /><path id="839" transform="matrix(1 0 0 -1 0 841)" d="M556.023 576.136L556.023 604.529" stroke="#000000" stroke-width="0.398" fill="none" /><path id="840" transform="matrix(1 0 0 -1 0 841)" d="M85.039 575.937L556.221 575.937" stroke="#000000" stroke-width="0.398" fill="none" /><path id="841" transform="matrix(1 0 0 -1 0 841)" d="M85.239 566.273L85.239 575.737" stroke="#000000" stroke-width="0.398" fill="none" /><path id="850" transform="matrix(1 0 0 -1 0 841)" d="M135.442 566.273L135.442 575.737" stroke="#000000" stroke-width="0.398" fill="none" /><path id="851" transform="matrix(1 0 0 -1 0 841)" d="M335.555 566.273L335.555 575.737" stroke="#000000" stroke-width="0.398" fill="none" /><path id="852" transform="matrix(1 0 0 -1 0 841)" d="M359.417 566.273L359.417 575.737" stroke="#000000" stroke-width="0.398" fill="none" /><path id="853" transform="matrix(1 0 0 -1 0 841)" d="M556.023 566.273L556.023 575.737" stroke="#000000" stroke-width="0.398" fill="none" /><path id="854" transform="matrix(1 0 0 -1 0 841)" d="M85.039 566.074L556.221 566.074" stroke="#000000" stroke-width="0.398" fill="none" /><path id="855" transform="matrix(1 0 0 -1 0 841)" d="M85.239 546.945L85.239 565.874" stroke="#000000" stroke-width="0.398" fill="none" /><path id="857" transform="matrix(1 0 0 -1 0 841)" d="M135.442 546.945L135.442 565.874" stroke="#000000" stroke-width="0.398" fill="none" /><path id="906" transform="matrix(1 0 0 -1 0 841)" d="M335.555 546.945L335.555 565.874" stroke="#000000" stroke-width="0.398" fill="none" /><path id="910" transform="matrix(1 0 0 -1 0 841)" d="M359.417 546.945L359.417 565.874" stroke="#000000" stroke-width="0.398" fill="none" /><path id="966" transform="matrix(1 0 0 -1 0 841)" d="M556.023 546.945L556.023 565.874" stroke="#000000" stroke-width="0.398" fill="none" /><path id="967" transform="matrix(1 0 0 -1 0 841)" d="M85.039 546.746L556.221 546.746" stroke="#000000" stroke-width="0.398" fill="none" /><path id="968" transform="matrix(1 0 0 -1 0 841)" d="M85.239 537.082L85.239 546.546" stroke="#000000" stroke-width="0.398" fill="none" /><path id="970" transform="matrix(1 0 0 -1 0 841)" d="M135.442 537.082L135.442 546.546" stroke="#000000" stroke-width="0.398" fill="none" /><path id="1019" transform="matrix(1 0 0 -1 0 841)" d="M335.555 537.082L335.555 546.546" stroke="#000000" stroke-width="0.398" fill="none" /><path id="1023" transform="matrix(1 0 0 -1 0 841)" d="M359.417 537.082L359.417 546.546" stroke="#000000" stroke-width="0.398" fill="none" /><path id="1061" transform="matrix(1 0 0 -1 0 841)" d="M556.023 537.082L556.023 546.546" stroke="#000000" stroke-width="0.398" fill="none" /><path id="1062" transform="matrix(1 0 0 -1 0 841)" d="M85.039 536.883L556.221 536.883" stroke="#000000" stroke-width="0.398" fill="none" /><path id="1063" transform="matrix(1 0 0 -1 0 841)" d="M85.239 508.29L85.239 536.683" stroke="#000000" stroke-width="0.398" fill="none" /><path id="1065" transform="matrix(1 0 0 -1 0 841)" d="M135.442 508.29L135.442 536.683" stroke="#000000" stroke-width="0.398" fill="none" /><path id="1168" transform="matrix(1 0 0 -1 0 841)" d="M335.555 508.29L335.555 536.683" stroke="#000000" stroke-width="0.398" fill="none" /><path id="1172" transform="matrix(1 0 0 -1 0 841)" d="M359.417 508.29L359.417 536.683" stroke="#000000" stroke-width="0.398" fill="none" /><path id="1210" transform="matrix(1 0 0 -1 0 841)" d="M556.023 508.29L556.023 536.683" stroke="#000000" stroke-width="0.398" fill="none" /><path id="1211" transform="matrix(1 0 0 -1 0 841)" d="M85.039 508.091L556.221 508.091" stroke="#000000" stroke-width="0.398" fill="none" /><path id="1212" transform="matrix(1 0 0 -1 0 841)" d="M85.239 488.963L85.239 507.892" stroke="#000000" stroke-width="0.398" fill="none" /><path id="1214" transform="matrix(1 0 0 -1 0 841)" d="M135.442 488.963L135.442 507.892" stroke="#000000" stroke-width="0.398" fill="none" /><path id="1297" transform="matrix(1 0 0 -1 0 841)" d="M335.555 488.963L335.555 507.892" stroke="#000000" stroke-width="0.398" fill="none" /><path id="1301" transform="matrix(1 0 0 -1 0 841)" d="M359.417 488.963L359.417 507.892" stroke="#000000" stroke-width="0.398" fill="none" /><path id="1338" transform="matrix(1 0 0 -1 0 841)" d="M556.023 488.963L556.023 507.892" stroke="#000000" stroke-width="0.398" fill="none" /><path id="1339" transform="matrix(1 0 0 -1 0 841)" d="M85.039 488.764L556.221 488.764" stroke="#000000" stroke-width="0.398" fill="none" /><path id="1340" transform="matrix(1 0 0 -1 0 841)" d="M85.239 479.1L85.239 488.564" stroke="#000000" stroke-width="0.398" fill="none" /><path id="1348" transform="matrix(1 0 0 -1 0 841)" d="M135.442 479.1L135.442 488.564" stroke="#000000" stroke-width="0.398" fill="none" /><path id="1349" transform="matrix(1 0 0 -1 0 841)" d="M335.555 479.1L335.555 488.564" stroke="#000000" stroke-width="0.398" fill="none" /><path id="1350" transform="matrix(1 0 0 -1 0 841)" d="M359.417 479.1L359.417 488.564" stroke="#000000" stroke-width="0.398" fill="none" /><path id="1351" transform="matrix(1 0 0 -1 0 841)" d="M556.023 479.1L556.023 488.564" stroke="#000000" stroke-width="0.398" fill="none" /><path id="1352" transform="matrix(1 0 0 -1 0 841)" d="M85.039 478.901L556.221 478.901" stroke="#000000" stroke-width="0.398" fill="none" /><path id="1353" transform="matrix(1 0 0 -1 0 841)" d="M85.239 459.772L85.239 478.701" stroke="#000000" stroke-width="0.398" fill="none" /><path id="1355" transform="matrix(1 0 0 -1 0 841)" d="M135.442 459.772L135.442 478.701" stroke="#000000" stroke-width="0.398" fill="none" /><path id="1407" transform="matrix(1 0 0 -1 0 841)" d="M335.555 459.772L335.555 478.701" stroke="#000000" stroke-width="0.398" fill="none" /><path id="1411" transform="matrix(1 0 0 -1 0 841)" d="M359.417 459.772L359.417 478.701" stroke="#000000" stroke-width="0.398" fill="none" /><path id="1449" transform="matrix(1 0 0 -1 0 841)" d="M556.023 459.772L556.023 478.701" stroke="#000000" stroke-width="0.398" fill="none" /><path id="1450" transform="matrix(1 0 0 -1 0 841)" d="M85.039 459.573L556.221 459.573" stroke="#000000" stroke-width="0.398" fill="none" /><path id="1451" transform="matrix(1 0 0 -1 0 841)" d="M85.239 427.145L85.239 459.374" stroke="#000000" stroke-width="0.398" fill="none" /><path id="1453" transform="matrix(1 0 0 -1 0 841)" d="M135.442 427.145L135.442 459.374" stroke="#000000" stroke-width="0.398" fill="none" /><path id="1556" transform="matrix(1 0 0 -1 0 841)" d="M335.555 427.145L335.555 459.374" stroke="#000000" stroke-width="0.398" fill="none" /><path id="1560" transform="matrix(1 0 0 -1 0 841)" d="M359.417 427.145L359.417 459.374" stroke="#000000" stroke-width="0.398" fill="none" /><path id="1598" transform="matrix(1 0 0 -1 0 841)" d="M556.023 427.145L556.023 459.374" stroke="#000000" stroke-width="0.398" fill="none" /><path id="1599" transform="matrix(1 0 0 -1 0 841)" d="M85.039 426.946L556.221 426.946" stroke="#000000" stroke-width="0.398" fill="none" /><path id="1600" transform="matrix(1 0 0 -1 0 841)" d="M85.239 402.985L85.239 426.746" stroke="#000000" stroke-width="0.398" fill="none" /><path id="1602" transform="matrix(1 0 0 -1 0 841)" d="M135.442 402.985L135.442 426.746" stroke="#000000" stroke-width="0.398" fill="none" /><path id="1685" transform="matrix(1 0 0 -1 0 841)" d="M335.555 402.985L335.555 426.746" stroke="#000000" stroke-width="0.398" fill="none" /><path id="1689" transform="matrix(1 0 0 -1 0 841)" d="M359.417 402.985L359.417 426.746" stroke="#000000" stroke-width="0.398" fill="none" /><path id="1727" transform="matrix(1 0 0 -1 0 841)" d="M556.023 402.985L556.023 426.746" stroke="#000000" stroke-width="0.398" fill="none" /><path id="1728" transform="matrix(1 0 0 -1 0 841)" d="M85.039 402.786L556.221 402.786" stroke="#000000" stroke-width="0.398" fill="none" /><path id="1729" transform="matrix(1 0 0 -1 0 841)" d="M85.239 364.729L85.239 402.587" stroke="#000000" stroke-width="0.398" fill="none" /><path id="1731" transform="matrix(1 0 0 -1 0 841)" d="M135.442 364.729L135.442 402.587" stroke="#000000" stroke-width="0.398" fill="none" /><path id="1893" transform="matrix(1 0 0 -1 0 841)" d="M335.555 364.729L335.555 402.587" stroke="#000000" stroke-width="0.398" fill="none" /><path id="1897" transform="matrix(1 0 0 -1 0 841)" d="M359.417 364.729L359.417 402.587" stroke="#000000" stroke-width="0.398" fill="none" /><path id="1935" transform="matrix(1 0 0 -1 0 841)" d="M556.023 364.729L556.023 402.587" stroke="#000000" stroke-width="0.398" fill="none" /><path id="1936" transform="matrix(1 0 0 -1 0 841)" d="M85.039 364.53L556.221 364.53" stroke="#000000" stroke-width="0.398" fill="none" /><path id="1937" transform="matrix(1 0 0 -1 0 841)" d="M85.239 354.866L85.239 364.33" stroke="#000000" stroke-width="0.398" fill="none" /><path id="1944" transform="matrix(1 0 0 -1 0 841)" d="M135.442 354.866L135.442 364.33" stroke="#000000" stroke-width="0.398" fill="none" /><path id="1945" transform="matrix(1 0 0 -1 0 841)" d="M335.555 354.866L335.555 364.33" stroke="#000000" stroke-width="0.398" fill="none" /><path id="1946" transform="matrix(1 0 0 -1 0 841)" d="M359.417 354.866L359.417 364.33" stroke="#000000" stroke-width="0.398" fill="none" /><path id="1947" transform="matrix(1 0 0 -1 0 841)" d="M556.023 354.866L556.023 364.33" stroke="#000000" stroke-width="0.398" fill="none" /><path id="1948" transform="matrix(1 0 0 -1 0 841)" d="M85.039 354.667L556.221 354.667" stroke="#000000" stroke-width="0.398" fill="none" /><path id="1949" transform="matrix(1 0 0 -1 0 841)" d="M85.239 335.538L85.239 354.467" stroke="#000000" stroke-width="0.398" fill="none" /><path id="1951" transform="matrix(1 0 0 -1 0 841)" d="M135.442 335.538L135.442 354.467" stroke="#000000" stroke-width="0.398" fill="none" /><path id="2003" transform="matrix(1 0 0 -1 0 841)" d="M335.555 335.538L335.555 354.467" stroke="#000000" stroke-width="0.398" fill="none" /><path id="2007" transform="matrix(1 0 0 -1 0 841)" d="M359.417 335.538L359.417 354.467" stroke="#000000" stroke-width="0.398" fill="none" /><path id="2044" transform="matrix(1 0 0 -1 0 841)" d="M556.023 335.538L556.023 354.467" stroke="#000000" stroke-width="0.398" fill="none" /><path id="2045" transform="matrix(1 0 0 -1 0 841)" d="M85.039 335.339L556.221 335.339" stroke="#000000" stroke-width="0.398" fill="none" /><path id="2046" transform="matrix(1 0 0 -1 0 841)" d="M85.239 302.911L85.239 335.14" stroke="#000000" stroke-width="0.398" fill="none" /><path id="2048" transform="matrix(1 0 0 -1 0 841)" d="M135.442 302.911L135.442 335.14" stroke="#000000" stroke-width="0.398" fill="none" /><path id="2151" transform="matrix(1 0 0 -1 0 841)" d="M335.555 302.911L335.555 335.14" stroke="#000000" stroke-width="0.398" fill="none" /><path id="2155" transform="matrix(1 0 0 -1 0 841)" d="M359.417 302.911L359.417 335.14" stroke="#000000" stroke-width="0.398" fill="none" /><path id="2193" transform="matrix(1 0 0 -1 0 841)" d="M556.023 302.911L556.023 335.14" stroke="#000000" stroke-width="0.398" fill="none" /><path id="2194" transform="matrix(1 0 0 -1 0 841)" d="M85.039 302.712L556.221 302.712" stroke="#000000" stroke-width="0.398" fill="none" /><path id="2195" transform="matrix(1 0 0 -1 0 841)" d="M85.239 283.583L85.239 302.512" stroke="#000000" stroke-width="0.398" fill="none" /><path id="2197" transform="matrix(1 0 0 -1 0 841)" d="M135.442 283.583L135.442 302.512" stroke="#000000" stroke-width="0.398" fill="none" /><path id="2281" transform="matrix(1 0 0 -1 0 841)" d="M335.555 283.583L335.555 302.512" stroke="#000000" stroke-width="0.398" fill="none" /><path id="2285" transform="matrix(1 0 0 -1 0 841)" d="M359.417 283.583L359.417 302.512" stroke="#000000" stroke-width="0.398" fill="none" /><path id="2323" transform="matrix(1 0 0 -1 0 841)" d="M556.023 283.583L556.023 302.512" stroke="#000000" stroke-width="0.398" fill="none" /><path id="2324" transform="matrix(1 0 0 -1 0 841)" d="M85.039 283.384L556.221 283.384" stroke="#000000" stroke-width="0.398" fill="none" /><path id="2325" transform="matrix(1 0 0 -1 0 841)" d="M85.239 245.327L85.239 283.185" stroke="#000000" stroke-width="0.398" fill="none" /><path id="2327" transform="matrix(1 0 0 -1 0 841)" d="M135.442 245.327L135.442 283.185" stroke="#000000" stroke-width="0.398" fill="none" /><path id="2492" transform="matrix(1 0 0 -1 0 841)" d="M335.555 245.327L335.555 283.185" stroke="#000000" stroke-width="0.398" fill="none" /><path id="2496" transform="matrix(1 0 0 -1 0 841)" d="M359.417 245.327L359.417 283.185" stroke="#000000" stroke-width="0.398" fill="none" /><path id="2534" transform="matrix(1 0 0 -1 0 841)" d="M556.023 245.327L556.023 283.185" stroke="#000000" stroke-width="0.398" fill="none" /><path id="2535" transform="matrix(1 0 0 -1 0 841)" d="M85.039 245.128L556.221 245.128" stroke="#000000" stroke-width="0.398" fill="none" /></g></g></svg>