<svg xmlns="http://www.w3.org/2000/svg" xmlns:xlink="http://www.w3.org/1999/xlink" id="body_203" preserveAspectRatio="xMinYMin meet" viewBox="0 0 793 1121"><defs><clipPath id="1"><path id="" clip-rule="evenodd" transform="matrix(1 0 0 1 0 0)" d="M0 841L0 -0.8900146L0 -0.8900146L595.276 -0.8900146L595.276 -0.8900146L595.276 841L595.276 841L0 841z" /></clipPath></defs><g transform="matrix(1.333333 0 0 1.333333 0 0)"><g clip-path="url(#1)"><path id="21" transform="matrix(1 0 0 -1 0 841)" d="M85.039 766.564L510.236 766.564" stroke="#000000" stroke-width="0.498" fill="none" /><path id="339" transform="matrix(1 0 0 -1 0 841)" d="M134.354 632.868L249.738 632.868" stroke="#000000" stroke-width="0.436" fill="none" /><path id="398" transform="matrix(1 0 0 -1 0 841)" d="M316.056 632.868L431.44 632.868" stroke="#000000" stroke-width="0.436" fill="none" /><path id="478" transform="matrix(1 0 0 -1 0 841)" d="M265.834 596.569L381.218 596.569" stroke="#000000" stroke-width="0.436" fill="none" /><path id="547" transform="matrix(1 0 0 -1 0 841)" d="M392.094 596.569L500.671 596.569" stroke="#000000" stroke-width="0.436" fill="none" /><path id="611" transform="matrix(1 0 0 -1 0 841)" d="M95.94 576.237L415.747 576.237" stroke="#000000" stroke-width="0.398" fill="none" /><path id="612" transform="matrix(1 0 0 -1 0 841)" d="M96.139 560.049L96.139 576.238" stroke="#000000" stroke-width="0.398" fill="none" /><path id="613" transform="matrix(1 0 0 -1 0 841)" d="M415.548 560.049L415.548 576.238" stroke="#000000" stroke-width="0.398" fill="none" /><path id="614" transform="matrix(1 0 0 -1 0 841)" d="M95.94 560.049L415.747 560.049" stroke="#000000" stroke-width="0.398" fill="none" /><path id="615" transform="matrix(1 0 0 -1 0 841)" d="M85.039 493.847L85.039 546.4725C 85.039 548.8209 86.94264 550.7245 89.29099 550.7245L89.29099 550.7245L505.9893 550.7245C 508.3377 550.7245 510.2413 548.8209 510.2413 546.4725L510.2413 546.4725L510.2413 493.847C 510.2413 491.4986 508.3377 489.595 505.9893 489.595L505.9893 489.595L89.29099 489.595C 86.94264 489.595 85.039 491.4986 85.039 493.847z" stroke="none" fill="#BFBFFF" fill-rule="nonzero" /><path id="616" transform="matrix(1 0 0 -1 0 841)" d="M86.45631 493.847L86.45631 534.7151L86.45631 534.7151L508.824 534.7151L508.824 534.7151L508.824 493.847C 508.824 492.2814 507.5549 491.0123 505.9893 491.0123L505.9893 491.0123L89.29099 491.0123C 87.72543 491.0123 86.45631 492.2814 86.45631 493.847z" stroke="none" fill="#E6E6FF" fill-rule="nonzero" /><path id="793" transform="matrix(1 0 0 -1 0 841)" d="M180.884 399.025L197.204 399.025" stroke="#000000" stroke-width="0.436" fill="none" /><path id="814" transform="matrix(1 0 0 -1 0 841)" d="M283.184 399.025L296.515 399.025" stroke="#000000" stroke-width="0.436" fill="none" /><path id="998" transform="matrix(1 0 0 -1 0 841)" d="M112.063 324.203L124.681 324.203L124.681 336.476L112.063 336.476z" stroke="none" fill="#FFF100" fill-rule="nonzero" /><path id="1001" transform="matrix(1 0 0 -1 0 841)" d="M124.183 324.203L139.223 324.203L139.223 336.476L124.183 336.476z" stroke="none" fill="#FFF100" fill-rule="nonzero" /><path id="1005" transform="matrix(1 0 0 -1 0 841)" d="M138.725 324.203L155.586 324.203L155.586 336.476L138.725 336.476z" stroke="none" fill="#FFF100" fill-rule="nonzero" /><path id="1010" transform="matrix(1 0 0 -1 0 841)" d="M155.337 324.203L158.064 324.203L158.064 336.476L155.337 336.476z" stroke="none" fill="#FFF100" fill-rule="nonzero" /><path id="1011" transform="matrix(1 0 0 -1 0 841)" d="M157.815 324.203L184.375 324.203L184.375 336.476L157.815 336.476z" stroke="none" fill="#FFF100" fill-rule="nonzero" /><path id="1020" transform="matrix(1 0 0 -1 0 841)" d="M136.063 307.234L153.525 307.234L153.525 319.507L136.063 319.507z" stroke="none" fill="#FFF100" fill-rule="nonzero" /><path id="1024" transform="matrix(1 0 0 -1 0 841)" d="M153.615 307.234L156.479 307.234L156.479 319.507L153.615 319.507z" stroke="none" fill="#FFF100" fill-rule="nonzero" /><path id="1025" transform="matrix(1 0 0 -1 0 841)" d="M156.23 307.234L173.702 307.234L173.702 319.507L156.23 319.507z" stroke="none" fill="#FFF100" fill-rule="nonzero" /><path id="1030" transform="matrix(1 0 0 -1 0 841)" d="M173.793 307.234L176.657 307.234L176.657 319.507L173.793 319.507z" stroke="none" fill="#FFF100" fill-rule="nonzero" /><path id="1031" transform="matrix(1 0 0 -1 0 841)" d="M176.408 307.234L185.993 307.234L185.993 319.507L176.408 319.507z" stroke="none" fill="#FFF100" fill-rule="nonzero" /><path id="1034" transform="matrix(1 0 0 -1 0 841)" d="M185.926 307.234L188.79 307.234L188.79 319.507L185.926 319.507z" stroke="none" fill="#FFF100" fill-rule="nonzero" /><path id="1035" transform="matrix(1 0 0 -1 0 841)" d="M188.541 307.234L202.37 307.234L202.37 319.507L188.541 319.507z" stroke="none" fill="#FFF100" fill-rule="nonzero" /><path id="1039" transform="matrix(1 0 0 -1 0 841)" d="M202.387 307.234L205.251 307.234L205.251 319.507L202.387 319.507z" stroke="none" fill="#FFF100" fill-rule="nonzero" /><path id="1040" transform="matrix(1 0 0 -1 0 841)" d="M205.003 307.234L221.254 307.234L221.254 319.507L205.003 319.507z" stroke="none" fill="#FFF100" fill-rule="nonzero" /><path id="1044" transform="matrix(1 0 0 -1 0 841)" d="M221.07 307.234L253.695 307.234L253.695 319.507L221.07 319.507z" stroke="none" fill="#FFF100" fill-rule="nonzero" /><path id="1053" transform="matrix(1 0 0 -1 0 841)" d="M254.088 307.234L256.952 307.234L256.952 319.507L254.088 319.507z" stroke="none" fill="#FFF100" fill-rule="nonzero" /><path id="1054" transform="matrix(1 0 0 -1 0 841)" d="M256.704 307.234L275.987 307.234L275.987 319.507L256.704 319.507z" stroke="none" fill="#FFF100" fill-rule="nonzero" /><path id="1059" transform="matrix(1 0 0 -1 0 841)" d="M275.864 307.234L290.304 307.234L290.304 319.507L275.864 319.507z" stroke="none" fill="#FFF100" fill-rule="nonzero" /><path id="1063" transform="matrix(1 0 0 -1 0 841)" d="M290.334 307.234L293.198 307.234L293.198 319.507L290.334 319.507z" stroke="none" fill="#FFF100" fill-rule="nonzero" /><path id="1064" transform="matrix(1 0 0 -1 0 841)" d="M292.949 307.234L309.8 307.234L309.8 319.507L292.949 319.507z" stroke="none" fill="#FFF100" fill-rule="nonzero" /><path id="1069" transform="matrix(1 0 0 -1 0 841)" d="M309.878 307.234L312.742 307.234L312.742 319.507L309.878 319.507z" stroke="none" fill="#FFF100" fill-rule="nonzero" /><path id="1070" transform="matrix(1 0 0 -1 0 841)" d="M312.493 307.234L329.965 307.234L329.965 319.507L312.493 319.507z" stroke="none" fill="#FFF100" fill-rule="nonzero" /><path id="1075" transform="matrix(1 0 0 -1 0 841)" d="M330.055 307.234L332.919 307.234L332.919 319.507L330.055 319.507z" stroke="none" fill="#FFF100" fill-rule="nonzero" /><path id="1076" transform="matrix(1 0 0 -1 0 841)" d="M332.671 307.234L343.467 307.234L343.467 319.507L332.671 319.507z" stroke="none" fill="#FFF100" fill-rule="nonzero" /><path id="1079" transform="matrix(1 0 0 -1 0 841)" d="M343.424 307.234L346.288 307.234L346.288 319.507L343.424 319.507z" stroke="none" fill="#FFF100" fill-rule="nonzero" /><path id="1080" transform="matrix(1 0 0 -1 0 841)" d="M346.039 307.234L355.024 307.234L355.024 319.507L346.039 319.507z" stroke="none" fill="#FFF100" fill-rule="nonzero" /><path id="1083" transform="matrix(1 0 0 -1 0 841)" d="M354.945 307.234L357.809 307.234L357.809 319.507L354.945 319.507z" stroke="none" fill="#FFF100" fill-rule="nonzero" /><path id="1084" transform="matrix(1 0 0 -1 0 841)" d="M357.56 307.234L370.789 307.234L370.789 319.507L357.56 319.507z" stroke="none" fill="#FFF100" fill-rule="nonzero" /><path id="1088" transform="matrix(1 0 0 -1 0 841)" d="M370.794 307.234L373.658 307.234L373.658 319.507L370.794 319.507z" stroke="none" fill="#FFF100" fill-rule="nonzero" /><path id="1089" transform="matrix(1 0 0 -1 0 841)" d="M373.409 307.234L387.838 307.234L387.838 319.507L373.409 319.507z" stroke="none" fill="#FFF100" fill-rule="nonzero" /><path id="1093" transform="matrix(1 0 0 -1 0 841)" d="M387.868 307.234L390.732 307.234L390.732 319.507L387.868 319.507z" stroke="none" fill="#FFF100" fill-rule="nonzero" /><path id="1094" transform="matrix(1 0 0 -1 0 841)" d="M390.483 307.234L404.312 307.234L404.312 319.507L390.483 319.507z" stroke="none" fill="#FFF100" fill-rule="nonzero" /><path id="1098" transform="matrix(1 0 0 -1 0 841)" d="M404.329 307.234L407.193 307.234L407.193 319.507L404.329 319.507z" stroke="none" fill="#FFF100" fill-rule="nonzero" /><path id="1099" transform="matrix(1 0 0 -1 0 841)" d="M406.944 307.234L424.416 307.234L424.416 319.507L406.944 319.507z" stroke="none" fill="#FFF100" fill-rule="nonzero" /><path id="1104" transform="matrix(1 0 0 -1 0 841)" d="M424.507 307.234L427.371 307.234L427.371 319.507L424.507 319.507z" stroke="none" fill="#FFF100" fill-rule="nonzero" /><path id="1105" transform="matrix(1 0 0 -1 0 841)" d="M427.122 307.234L436.707 307.234L436.707 319.507L427.122 319.507z" stroke="none" fill="#FFF100" fill-rule="nonzero" /><path id="1108" transform="matrix(1 0 0 -1 0 841)" d="M436.64 307.234L439.504 307.234L439.504 319.507L436.64 319.507z" stroke="none" fill="#FFF100" fill-rule="nonzero" /><path id="1109" transform="matrix(1 0 0 -1 0 841)" d="M439.255 307.234L459.149 307.234L459.149 319.507L439.255 319.507z" stroke="none" fill="#FFF100" fill-rule="nonzero" /><path id="1114" transform="matrix(1 0 0 -1 0 841)" d="M459.288 307.234L462.152 307.234L462.152 319.507L459.288 319.507z" stroke="none" fill="#FFF100" fill-rule="nonzero" /><path id="1115" transform="matrix(1 0 0 -1 0 841)" d="M461.903 307.234L475.732 307.234L475.732 319.507L461.903 319.507z" stroke="none" fill="#FFF100" fill-rule="nonzero" /><path id="1119" transform="matrix(1 0 0 -1 0 841)" d="M475.75 307.234L478.614 307.234L478.614 319.507L475.75 319.507z" stroke="none" fill="#FFF100" fill-rule="nonzero" /><path id="1120" transform="matrix(1 0 0 -1 0 841)" d="M478.365 307.234L497.987 307.234L497.987 319.507L478.365 319.507z" stroke="none" fill="#FFF100" fill-rule="nonzero" /><path id="1124" transform="matrix(1 0 0 -1 0 841)" d="M498.125 307.234L500.989 307.234L500.989 319.507L498.125 319.507z" stroke="none" fill="#FFF100" fill-rule="nonzero" /><path id="1125" transform="matrix(1 0 0 -1 0 841)" d="M500.74 307.234L508.514 307.234L508.514 319.507L500.74 319.507z" stroke="none" fill="#FFF100" fill-rule="nonzero" /><path id="1128" transform="matrix(1 0 0 -1 0 841)" d="M136.063 290.297L146.696 290.297L146.696 302.57L136.063 302.57z" stroke="none" fill="#FFF100" fill-rule="nonzero" /><path id="1131" transform="matrix(1 0 0 -1 0 841)" d="M146.404 290.297L179.618 290.297L179.618 302.57L146.404 302.57z" stroke="none" fill="#FFF100" fill-rule="nonzero" /><path id="1139" transform="matrix(1 0 0 -1 0 841)" d="M180.023 290.297L183.12 290.297L183.12 302.57L180.023 302.57z" stroke="none" fill="#FFF100" fill-rule="nonzero" /><path id="1140" transform="matrix(1 0 0 -1 0 841)" d="M182.871 290.297L194.584 290.297L194.584 302.57L182.871 302.57z" stroke="none" fill="#FFF100" fill-rule="nonzero" /><path id="1144" transform="matrix(1 0 0 -1 0 841)" d="M194.559 290.297L197.656 290.297L197.656 302.57L194.559 302.57z" stroke="none" fill="#FFF100" fill-rule="nonzero" /><path id="1145" transform="matrix(1 0 0 -1 0 841)" d="M197.407 290.297L209.425 290.297L209.425 302.57L197.407 302.57z" stroke="none" fill="#FFF100" fill-rule="nonzero" /><path id="1148" transform="matrix(1 0 0 -1 0 841)" d="M209.407 290.297L212.504 290.297L212.504 302.57L209.407 302.57z" stroke="none" fill="#FFF100" fill-rule="nonzero" /><path id="1149" transform="matrix(1 0 0 -1 0 841)" d="M212.255 290.297L219.418 290.297L219.418 302.57L212.255 302.57z" stroke="none" fill="#FFF100" fill-rule="nonzero" /><path id="1152" transform="matrix(1 0 0 -1 0 841)" d="M219.303 290.297L222.4 290.297L222.4 302.57L219.303 302.57z" stroke="none" fill="#FFF100" fill-rule="nonzero" /><path id="1153" transform="matrix(1 0 0 -1 0 841)" d="M222.151 290.297L235.98 290.297L235.98 302.57L222.151 302.57z" stroke="none" fill="#FFF100" fill-rule="nonzero" /><path id="1157" transform="matrix(1 0 0 -1 0 841)" d="M235.998 290.297L239.095 290.297L239.095 302.57L235.998 302.57z" stroke="none" fill="#FFF100" fill-rule="nonzero" /><path id="1158" transform="matrix(1 0 0 -1 0 841)" d="M238.846 290.297L258.468 290.297L258.468 302.57L238.846 302.57z" stroke="none" fill="#FFF100" fill-rule="nonzero" /><path id="1162" transform="matrix(1 0 0 -1 0 841)" d="M258.607 290.297L261.704 290.297L261.704 302.57L258.607 302.57z" stroke="none" fill="#FFF100" fill-rule="nonzero" /><path id="1163" transform="matrix(1 0 0 -1 0 841)" d="M261.455 290.297L269.229 290.297L269.229 302.57L261.455 302.57z" stroke="none" fill="#FFF100" fill-rule="nonzero" /><path id="1166" transform="matrix(1 0 0 -1 0 841)" d="M269.126 290.297L272.223 290.297L272.223 302.57L269.126 302.57z" stroke="none" fill="#FFF100" fill-rule="nonzero" /><path id="1167" transform="matrix(1 0 0 -1 0 841)" d="M271.974 290.297L280.959 290.297L280.959 302.57L271.974 302.57z" stroke="none" fill="#FFF100" fill-rule="nonzero" /><path id="1170" transform="matrix(1 0 0 -1 0 841)" d="M280.88 290.297L283.977 290.297L283.977 302.57L280.88 302.57z" stroke="none" fill="#FFF100" fill-rule="nonzero" /><path id="1171" transform="matrix(1 0 0 -1 0 841)" d="M283.729 290.297L301.802 290.297L301.802 302.57L283.729 302.57z" stroke="none" fill="#FFF100" fill-rule="nonzero" /><path id="1174" transform="matrix(1 0 0 -1 0 841)" d="M301.904 290.297L305.001 290.297L305.001 302.57L301.904 302.57z" stroke="none" fill="#FFF100" fill-rule="nonzero" /><path id="1175" transform="matrix(1 0 0 -1 0 841)" d="M304.752 290.297L319.181 290.297L319.181 302.57L304.752 302.57z" stroke="none" fill="#FFF100" fill-rule="nonzero" /><path id="1179" transform="matrix(1 0 0 -1 0 841)" d="M319.21 290.297L322.307 290.297L322.307 302.57L319.21 302.57z" stroke="none" fill="#FFF100" fill-rule="nonzero" /><path id="1180" transform="matrix(1 0 0 -1 0 841)" d="M322.059 290.297L338.31 290.297L338.31 302.57L322.059 302.57z" stroke="none" fill="#FFF100" fill-rule="nonzero" /><path id="1184" transform="matrix(1 0 0 -1 0 841)" d="M338.376 290.297L341.473 290.297L341.473 302.57L338.376 302.57z" stroke="none" fill="#FFF100" fill-rule="nonzero" /><path id="1185" transform="matrix(1 0 0 -1 0 841)" d="M341.224 290.297L355.053 290.297L355.053 302.57L341.224 302.57z" stroke="none" fill="#FFF100" fill-rule="nonzero" /><path id="1189" transform="matrix(1 0 0 -1 0 841)" d="M355.07 290.297L358.167 290.297L358.167 302.57L355.07 302.57z" stroke="none" fill="#FFF100" fill-rule="nonzero" /><path id="1190" transform="matrix(1 0 0 -1 0 841)" d="M357.919 290.297L371.137 290.297L371.137 302.57L357.919 302.57z" stroke="none" fill="#FFF100" fill-rule="nonzero" /><path id="1194" transform="matrix(1 0 0 -1 0 841)" d="M370.893 290.297L381.689 290.297L381.689 302.57L370.893 302.57z" stroke="none" fill="#FFF100" fill-rule="nonzero" /><path id="1197" transform="matrix(1 0 0 -1 0 841)" d="M381.397 290.297L403.102 290.297L403.102 302.57L381.397 302.57z" stroke="none" fill="#FFF100" fill-rule="nonzero" /><path id="1203" transform="matrix(1 0 0 -1 0 841)" d="M403.277 290.297L406.374 290.297L406.374 302.57L403.277 302.57z" stroke="none" fill="#FFF100" fill-rule="nonzero" /><path id="1204" transform="matrix(1 0 0 -1 0 841)" d="M406.125 290.297L425.408 290.297L425.408 302.57L406.125 302.57z" stroke="none" fill="#FFF100" fill-rule="nonzero" /><path id="1209" transform="matrix(1 0 0 -1 0 841)" d="M425.286 290.297L439.726 290.297L439.726 302.57L425.286 302.57z" stroke="none" fill="#FFF100" fill-rule="nonzero" /><path id="1213" transform="matrix(1 0 0 -1 0 841)" d="M439.756 290.297L442.853 290.297L442.853 302.57L439.756 302.57z" stroke="none" fill="#FFF100" fill-rule="nonzero" /><path id="1214" transform="matrix(1 0 0 -1 0 841)" d="M442.604 290.297L459.455 290.297L459.455 302.57L442.604 302.57z" stroke="none" fill="#FFF100" fill-rule="nonzero" /><path id="1219" transform="matrix(1 0 0 -1 0 841)" d="M459.533 290.297L462.63 290.297L462.63 302.57L459.533 302.57z" stroke="none" fill="#FFF100" fill-rule="nonzero" /><path id="1220" transform="matrix(1 0 0 -1 0 841)" d="M462.381 290.297L479.853 290.297L479.853 302.57L462.381 302.57z" stroke="none" fill="#FFF100" fill-rule="nonzero" /><path id="1225" transform="matrix(1 0 0 -1 0 841)" d="M479.944 290.297L483.041 290.297L483.041 302.57L479.944 302.57z" stroke="none" fill="#FFF100" fill-rule="nonzero" /><path id="1226" transform="matrix(1 0 0 -1 0 841)" d="M482.792 290.297L493.588 290.297L493.588 302.57L482.792 302.57z" stroke="none" fill="#FFF100" fill-rule="nonzero" /><path id="1229" transform="matrix(1 0 0 -1 0 841)" d="M493.546 290.297L496.643 290.297L496.643 302.57L493.546 302.57z" stroke="none" fill="#FFF100" fill-rule="nonzero" /><path id="1230" transform="matrix(1 0 0 -1 0 841)" d="M496.394 290.297L505.379 290.297L505.379 302.57L496.394 302.57z" stroke="none" fill="#FFF100" fill-rule="nonzero" /><path id="1233" transform="matrix(1 0 0 -1 0 841)" d="M136.063 273.361L145.048 273.361L145.048 285.634L136.063 285.634z" stroke="none" fill="#FFF100" fill-rule="nonzero" /><path id="1236" transform="matrix(1 0 0 -1 0 841)" d="M144.72 273.361L152.494 273.361L152.494 285.634L144.72 285.634z" stroke="none" fill="#FFF100" fill-rule="nonzero" /><path id="1239" transform="matrix(1 0 0 -1 0 841)" d="M152.142 273.361L170.411 273.361L170.411 285.634L152.142 285.634z" stroke="none" fill="#FFF100" fill-rule="nonzero" /><path id="1244" transform="matrix(1 0 0 -1 0 841)" d="M170.531 273.361L173.368 273.361L173.368 285.634L170.531 285.634z" stroke="none" fill="#FFF100" fill-rule="nonzero" /><path id="1245" transform="matrix(1 0 0 -1 0 841)" d="M173.119 273.361L193.231 273.361L193.231 285.634L173.119 285.634z" stroke="none" fill="#FFF100" fill-rule="nonzero" /><path id="1250" transform="matrix(1 0 0 -1 0 841)" d="M193.133 273.361L213.627 273.361L213.627 285.634L193.133 285.634z" stroke="none" fill="#FFF100" fill-rule="nonzero" /><path id="1255" transform="matrix(1 0 0 -1 0 841)" d="M213.778 273.361L216.615 273.361L216.615 285.634L213.778 285.634z" stroke="none" fill="#FFF100" fill-rule="nonzero" /><path id="1256" transform="matrix(1 0 0 -1 0 841)" d="M216.365 273.361L223.528 273.361L223.528 285.634L216.365 285.634z" stroke="none" fill="#FFF100" fill-rule="nonzero" /><path id="1259" transform="matrix(1 0 0 -1 0 841)" d="M223.413 273.361L226.25 273.361L226.25 285.634L223.413 285.634z" stroke="none" fill="#FFF100" fill-rule="nonzero" /><path id="1260" transform="matrix(1 0 0 -1 0 841)" d="M226 273.361L239.829 273.361L239.829 285.634L226 285.634z" stroke="none" fill="#FFF100" fill-rule="nonzero" /><path id="1264" transform="matrix(1 0 0 -1 0 841)" d="M239.847 273.361L242.684 273.361L242.684 285.634L239.847 285.634z" stroke="none" fill="#FFF100" fill-rule="nonzero" /><path id="1265" transform="matrix(1 0 0 -1 0 841)" d="M242.434 273.361L262.056 273.361L262.056 285.634L242.434 285.634z" stroke="none" fill="#FFF100" fill-rule="nonzero" /><path id="1269" transform="matrix(1 0 0 -1 0 841)" d="M262.195 273.361L265.032 273.361L265.032 285.634L262.195 285.634z" stroke="none" fill="#FFF100" fill-rule="nonzero" /><path id="1270" transform="matrix(1 0 0 -1 0 841)" d="M264.782 273.361L288.636 273.361L288.636 285.634L264.782 285.634z" stroke="none" fill="#FFF100" fill-rule="nonzero" /><path id="1276" transform="matrix(1 0 0 -1 0 841)" d="M288.86 273.361L291.697 273.361L291.697 285.634L288.86 285.634z" stroke="none" fill="#FFF100" fill-rule="nonzero" /><path id="1277" transform="matrix(1 0 0 -1 0 841)" d="M291.447 273.361L311.941 273.361L311.941 285.634L291.447 285.634z" stroke="none" fill="#FFF100" fill-rule="nonzero" /><path id="1282" transform="matrix(1 0 0 -1 0 841)" d="M312.093 273.361L314.93 273.361L314.93 285.634L312.093 285.634z" stroke="none" fill="#FFF100" fill-rule="nonzero" /><path id="1283" transform="matrix(1 0 0 -1 0 841)" d="M314.68 273.361L322.454 273.361L322.454 285.634L314.68 285.634z" stroke="none" fill="#FFF100" fill-rule="nonzero" /><path id="1286" transform="matrix(1 0 0 -1 0 841)" d="M322.351 273.361L325.188 273.361L325.188 285.634L322.351 285.634z" stroke="none" fill="#FFF100" fill-rule="nonzero" /><path id="1287" transform="matrix(1 0 0 -1 0 841)" d="M324.938 273.361L333.923 273.361L333.923 285.634L324.938 285.634z" stroke="none" fill="#FFF100" fill-rule="nonzero" /><path id="1290" transform="matrix(1 0 0 -1 0 841)" d="M333.844 273.361L336.681 273.361L336.681 285.634L333.844 285.634z" stroke="none" fill="#FFF100" fill-rule="nonzero" /><path id="1291" transform="matrix(1 0 0 -1 0 841)" d="M336.432 273.361L354.505 273.361L354.505 285.634L336.432 285.634z" stroke="none" fill="#FFF100" fill-rule="nonzero" /><path id="1294" transform="matrix(1 0 0 -1 0 841)" d="M354.607 273.361L357.444 273.361L357.444 285.634L354.607 285.634z" stroke="none" fill="#FFF100" fill-rule="nonzero" /><path id="1295" transform="matrix(1 0 0 -1 0 841)" d="M357.194 273.361L371.623 273.361L371.623 285.634L357.194 285.634z" stroke="none" fill="#FFF100" fill-rule="nonzero" /><path id="1299" transform="matrix(1 0 0 -1 0 841)" d="M371.652 273.361L374.489 273.361L374.489 285.634L371.652 285.634z" stroke="none" fill="#FFF100" fill-rule="nonzero" /><path id="1300" transform="matrix(1 0 0 -1 0 841)" d="M374.24 273.361L407.77 273.361L407.77 285.634L374.24 285.634z" stroke="none" fill="#FFF100" fill-rule="nonzero" /><path id="1308" transform="matrix(1 0 0 -1 0 841)" d="M408.182 273.361L411.019 273.361L411.019 285.634L408.182 285.634z" stroke="none" fill="#FFF100" fill-rule="nonzero" /><path id="1309" transform="matrix(1 0 0 -1 0 841)" d="M410.769 273.361L424.598 273.361L424.598 285.634L410.769 285.634z" stroke="none" fill="#FFF100" fill-rule="nonzero" /><path id="1313" transform="matrix(1 0 0 -1 0 841)" d="M424.616 273.361L427.453 273.361L427.453 285.634L424.616 285.634z" stroke="none" fill="#FFF100" fill-rule="nonzero" /><path id="1314" transform="matrix(1 0 0 -1 0 841)" d="M427.203 273.361L440.421 273.361L440.421 285.634L427.203 285.634z" stroke="none" fill="#FFF100" fill-rule="nonzero" /><path id="1318" transform="matrix(1 0 0 -1 0 841)" d="M440.177 273.361L450.973 273.361L450.973 285.634L440.177 285.634z" stroke="none" fill="#FFF100" fill-rule="nonzero" /><path id="1321" transform="matrix(1 0 0 -1 0 841)" d="M450.681 273.361L472.386 273.361L472.386 285.634L450.681 285.634z" stroke="none" fill="#FFF100" fill-rule="nonzero" /><path id="1327" transform="matrix(1 0 0 -1 0 841)" d="M472.561 273.361L475.398 273.361L475.398 285.634L472.561 285.634z" stroke="none" fill="#FFF100" fill-rule="nonzero" /><path id="1328" transform="matrix(1 0 0 -1 0 841)" d="M475.149 273.361L494.432 273.361L494.432 285.634L475.149 285.634z" stroke="none" fill="#FFF100" fill-rule="nonzero" /><path id="1333" transform="matrix(1 0 0 -1 0 841)" d="M494.31 273.361L508.75 273.361L508.75 285.634L494.31 285.634z" stroke="none" fill="#FFF100" fill-rule="nonzero" /><path id="1337" transform="matrix(1 0 0 -1 0 841)" d="M136.063 256.424L152.914 256.424L152.914 268.697L136.063 268.697z" stroke="none" fill="#FFF100" fill-rule="nonzero" /><path id="1342" transform="matrix(1 0 0 -1 0 841)" d="M152.665 256.424L155.392 256.424L155.392 268.697L152.665 268.697z" stroke="none" fill="#FFF100" fill-rule="nonzero" /><path id="1343" transform="matrix(1 0 0 -1 0 841)" d="M155.143 256.424L172.615 256.424L172.615 268.697L155.143 268.697z" stroke="none" fill="#FFF100" fill-rule="nonzero" /><path id="1348" transform="matrix(1 0 0 -1 0 841)" d="M172.366 256.424L175.093 256.424L175.093 268.697L172.366 268.697z" stroke="none" fill="#FFF100" fill-rule="nonzero" /><path id="1349" transform="matrix(1 0 0 -1 0 841)" d="M174.844 256.424L185.64 256.424L185.64 268.697L174.844 268.697z" stroke="none" fill="#FFF100" fill-rule="nonzero" /><path id="1352" transform="matrix(1 0 0 -1 0 841)" d="M185.391 256.424L188.118 256.424L188.118 268.697L185.391 268.697z" stroke="none" fill="#FFF100" fill-rule="nonzero" /><path id="1353" transform="matrix(1 0 0 -1 0 841)" d="M187.87 256.424L196.855 256.424L196.855 268.697L187.87 268.697z" stroke="none" fill="#FFF100" fill-rule="nonzero" /><path id="1356" transform="matrix(1 0 0 -1 0 841)" d="M196.606 256.424L199.333 256.424L199.333 268.697L196.606 268.697z" stroke="none" fill="#FFF100" fill-rule="nonzero" /><path id="1357" transform="matrix(1 0 0 -1 0 841)" d="M199.084 256.424L208.069 256.424L208.069 268.697L199.084 268.697z" stroke="none" fill="#FFF100" fill-rule="nonzero" /><path id="1360" transform="matrix(1 0 0 -1 0 841)" d="M207.571 256.424L235.047 256.424L235.047 268.697L207.571 268.697z" stroke="none" fill="#FFF100" fill-rule="nonzero" /><path id="1369" transform="matrix(1 0 0 -1 0 841)" d="M136.063 239.488L143.826 239.488L143.826 251.761L136.063 251.761z" stroke="none" fill="#FFF100" fill-rule="nonzero" /><path id="1372" transform="matrix(1 0 0 -1 0 841)" d="M143.432 239.488L145.884 239.488L145.884 251.761L143.432 251.761z" stroke="none" fill="#FFF100" fill-rule="nonzero" /><path id="1373" transform="matrix(1 0 0 -1 0 841)" d="M145.635 239.488L159.857 239.488L159.857 251.761L145.635 251.761z" stroke="none" fill="#FFF100" fill-rule="nonzero" /><path id="1377" transform="matrix(1 0 0 -1 0 841)" d="M159.08 239.488L178.363 239.488L178.363 251.761L159.08 251.761z" stroke="none" fill="#FFF100" fill-rule="nonzero" /><path id="1381" transform="matrix(1 0 0 -1 0 841)" d="M177.738 239.488L180.19 239.488L180.19 251.761L177.738 251.761z" stroke="none" fill="#FFF100" fill-rule="nonzero" /><path id="1382" transform="matrix(1 0 0 -1 0 841)" d="M179.941 239.488L187.715 239.488L187.715 251.761L179.941 251.761z" stroke="none" fill="#FFF100" fill-rule="nonzero" /><path id="1385" transform="matrix(1 0 0 -1 0 841)" d="M187.321 239.488L189.773 239.488L189.773 251.761L187.321 251.761z" stroke="none" fill="#FFF100" fill-rule="nonzero" /><path id="1386" transform="matrix(1 0 0 -1 0 841)" d="M189.523 239.488L212.745 239.488L212.745 251.761L189.523 251.761z" stroke="none" fill="#FFF100" fill-rule="nonzero" /><path id="1392" transform="matrix(1 0 0 -1 0 841)" d="M212.041 239.488L214.493 239.488L214.493 251.761L212.041 251.761z" stroke="none" fill="#FFF100" fill-rule="nonzero" /><path id="1393" transform="matrix(1 0 0 -1 0 841)" d="M214.244 239.488L228.073 239.488L228.073 251.761L214.244 251.761z" stroke="none" fill="#FFF100" fill-rule="nonzero" /><path id="1397" transform="matrix(1 0 0 -1 0 841)" d="M227.557 239.488L230.009 239.488L230.009 251.761L227.557 251.761z" stroke="none" fill="#FFF100" fill-rule="nonzero" /><path id="1398" transform="matrix(1 0 0 -1 0 841)" d="M229.76 239.488L242.978 239.488L242.978 251.761L229.76 251.761z" stroke="none" fill="#FFF100" fill-rule="nonzero" /><path id="1402" transform="matrix(1 0 0 -1 0 841)" d="M242.225 239.488L253.021 239.488L253.021 251.761L242.225 251.761z" stroke="none" fill="#FFF100" fill-rule="nonzero" /><path id="1405" transform="matrix(1 0 0 -1 0 841)" d="M252.317 239.488L274.022 239.488L274.022 251.761L252.317 251.761z" stroke="none" fill="#FFF100" fill-rule="nonzero" /><path id="1411" transform="matrix(1 0 0 -1 0 841)" d="M273.349 239.488L275.801 239.488L275.801 251.761L273.349 251.761z" stroke="none" fill="#FFF100" fill-rule="nonzero" /><path id="1412" transform="matrix(1 0 0 -1 0 841)" d="M275.552 239.488L299.406 239.488L299.406 251.761L275.552 251.761z" stroke="none" fill="#FFF100" fill-rule="nonzero" /><path id="1418" transform="matrix(1 0 0 -1 0 841)" d="M298.684 239.488L301.136 239.488L301.136 251.761L298.684 251.761z" stroke="none" fill="#FFF100" fill-rule="nonzero" /><path id="1419" transform="matrix(1 0 0 -1 0 841)" d="M300.887 239.488L318.359 239.488L318.359 251.761L300.887 251.761z" stroke="none" fill="#FFF100" fill-rule="nonzero" /><path id="1424" transform="matrix(1 0 0 -1 0 841)" d="M317.771 239.488L320.223 239.488L320.223 251.761L317.771 251.761z" stroke="none" fill="#FFF100" fill-rule="nonzero" /><path id="1425" transform="matrix(1 0 0 -1 0 841)" d="M319.973 239.488L330.769 239.488L330.769 251.761L319.973 251.761z" stroke="none" fill="#FFF100" fill-rule="nonzero" /><path id="1428" transform="matrix(1 0 0 -1 0 841)" d="M330.314 239.488L332.766 239.488L332.766 251.761L330.314 251.761z" stroke="none" fill="#FFF100" fill-rule="nonzero" /><path id="1429" transform="matrix(1 0 0 -1 0 841)" d="M332.517 239.488L346.346 239.488L346.346 251.761L332.517 251.761z" stroke="none" fill="#FFF100" fill-rule="nonzero" /><path id="1433" transform="matrix(1 0 0 -1 0 841)" d="M345.83 239.488L348.282 239.488L348.282 251.761L345.83 251.761z" stroke="none" fill="#FFF100" fill-rule="nonzero" /><path id="1434" transform="matrix(1 0 0 -1 0 841)" d="M348.033 239.488L370.349 239.488L370.349 251.761L348.033 251.761z" stroke="none" fill="#FFF100" fill-rule="nonzero" /><path id="1439" transform="matrix(1 0 0 -1 0 841)" d="M369.663 239.488L372.115 239.488L372.115 251.761L369.663 251.761z" stroke="none" fill="#FFF100" fill-rule="nonzero" /><path id="1440" transform="matrix(1 0 0 -1 0 841)" d="M371.866 239.488L381.451 239.488L381.451 251.761L371.866 251.761z" stroke="none" fill="#FFF100" fill-rule="nonzero" /><path id="1443" transform="matrix(1 0 0 -1 0 841)" d="M381.021 239.488L383.473 239.488L383.473 251.761L381.021 251.761z" stroke="none" fill="#FFF100" fill-rule="nonzero" /><path id="1444" transform="matrix(1 0 0 -1 0 841)" d="M383.223 239.488L397.052 239.488L397.052 251.761L383.223 251.761z" stroke="none" fill="#FFF100" fill-rule="nonzero" /><path id="1448" transform="matrix(1 0 0 -1 0 841)" d="M396.536 239.488L398.988 239.488L398.988 251.761L396.536 251.761z" stroke="none" fill="#FFF100" fill-rule="nonzero" /><path id="1449" transform="matrix(1 0 0 -1 0 841)" d="M398.739 239.488L414.99 239.488L414.99 251.761L398.739 251.761z" stroke="none" fill="#FFF100" fill-rule="nonzero" /><path id="1453" transform="matrix(1 0 0 -1 0 841)" d="M414.177 239.488L446.802 239.488L446.802 251.761L414.177 251.761z" stroke="none" fill="#FFF100" fill-rule="nonzero" /><path id="1462" transform="matrix(1 0 0 -1 0 841)" d="M445.91 239.488L448.362 239.488L448.362 251.761L445.91 251.761z" stroke="none" fill="#FFF100" fill-rule="nonzero" /><path id="1463" transform="matrix(1 0 0 -1 0 841)" d="M448.112 239.488L457.097 239.488L457.097 251.761L448.112 251.761z" stroke="none" fill="#FFF100" fill-rule="nonzero" /><path id="1466" transform="matrix(1 0 0 -1 0 841)" d="M456.679 239.488L459.131 239.488L459.131 251.761L456.679 251.761z" stroke="none" fill="#FFF100" fill-rule="nonzero" /><path id="1467" transform="matrix(1 0 0 -1 0 841)" d="M458.881 239.488L475.742 239.488L475.742 251.761L458.881 251.761z" stroke="none" fill="#FFF100" fill-rule="nonzero" /><path id="1472" transform="matrix(1 0 0 -1 0 841)" d="M475.167 239.488L477.619 239.488L477.619 251.761L475.167 251.761z" stroke="none" fill="#FFF100" fill-rule="nonzero" /><path id="1473" transform="matrix(1 0 0 -1 0 841)" d="M477.369 239.488L491.591 239.488L491.591 251.761L477.369 251.761z" stroke="none" fill="#FFF100" fill-rule="nonzero" /><path id="1477" transform="matrix(1 0 0 -1 0 841)" d="M490.814 239.488L512.825 239.488L512.825 251.761L490.814 251.761z" stroke="none" fill="#FFF100" fill-rule="nonzero" /><path id="1482" transform="matrix(1 0 0 -1 0 841)" d="M136.063 222.552L143.826 222.552L143.826 234.825L136.063 234.825z" stroke="none" fill="#FFF100" fill-rule="nonzero" /><path id="1485" transform="matrix(1 0 0 -1 0 841)" d="M143.578 222.552L146.305 222.552L146.305 234.825L143.578 234.825z" stroke="none" fill="#FFF100" fill-rule="nonzero" /><path id="1486" transform="matrix(1 0 0 -1 0 841)" d="M146.056 222.552L165.678 222.552L165.678 234.825L146.056 234.825z" stroke="none" fill="#FFF100" fill-rule="nonzero" /><path id="1490" transform="matrix(1 0 0 -1 0 841)" d="M165.428 222.552L168.155 222.552L168.155 234.825L165.428 234.825z" stroke="none" fill="#FFF100" fill-rule="nonzero" /><path id="1491" transform="matrix(1 0 0 -1 0 841)" d="M167.906 222.552L175.68 222.552L175.68 234.825L167.906 234.825z" stroke="none" fill="#FFF100" fill-rule="nonzero" /><path id="1494" transform="matrix(1 0 0 -1 0 841)" d="M175.432 222.552L178.159 222.552L178.159 234.825L175.432 234.825z" stroke="none" fill="#FFF100" fill-rule="nonzero" /><path id="1495" transform="matrix(1 0 0 -1 0 841)" d="M177.91 222.552L201.132 222.552L201.132 234.825L177.91 234.825z" stroke="none" fill="#FFF100" fill-rule="nonzero" /><path id="1501" transform="matrix(1 0 0 -1 0 841)" d="M200.882 222.552L203.609 222.552L203.609 234.825L200.882 234.825z" stroke="none" fill="#FFF100" fill-rule="nonzero" /><path id="1502" transform="matrix(1 0 0 -1 0 841)" d="M203.361 222.552L217.19 222.552L217.19 234.825L203.361 234.825z" stroke="none" fill="#FFF100" fill-rule="nonzero" /><path id="1506" transform="matrix(1 0 0 -1 0 841)" d="M216.94 222.552L219.667 222.552L219.667 234.825L216.94 234.825z" stroke="none" fill="#FFF100" fill-rule="nonzero" /><path id="1507" transform="matrix(1 0 0 -1 0 841)" d="M219.419 222.552L232.637 222.552L232.637 234.825L219.419 234.825z" stroke="none" fill="#FFF100" fill-rule="nonzero" /><path id="1511" transform="matrix(1 0 0 -1 0 841)" d="M232.138 222.552L242.934 222.552L242.934 234.825L232.138 234.825z" stroke="none" fill="#FFF100" fill-rule="nonzero" /><path id="1514" transform="matrix(1 0 0 -1 0 841)" d="M242.436 222.552L264.141 222.552L264.141 234.825L242.436 234.825z" stroke="none" fill="#FFF100" fill-rule="nonzero" /><path id="1520" transform="matrix(1 0 0 -1 0 841)" d="M263.892 222.552L266.619 222.552L266.619 234.825L263.892 234.825z" stroke="none" fill="#FFF100" fill-rule="nonzero" /><path id="1521" transform="matrix(1 0 0 -1 0 841)" d="M266.371 222.552L290.225 222.552L290.225 234.825L266.371 234.825z" stroke="none" fill="#FFF100" fill-rule="nonzero" /><path id="1527" transform="matrix(1 0 0 -1 0 841)" d="M289.976 222.552L292.703 222.552L292.703 234.825L289.976 234.825z" stroke="none" fill="#FFF100" fill-rule="nonzero" /><path id="1528" transform="matrix(1 0 0 -1 0 841)" d="M292.454 222.552L309.926 222.552L309.926 234.825L292.454 234.825z" stroke="none" fill="#FFF100" fill-rule="nonzero" /><path id="1533" transform="matrix(1 0 0 -1 0 841)" d="M309.677 222.552L312.404 222.552L312.404 234.825L309.677 234.825z" stroke="none" fill="#FFF100" fill-rule="nonzero" /><path id="1534" transform="matrix(1 0 0 -1 0 841)" d="M312.155 222.552L322.951 222.552L322.951 234.825L312.155 234.825z" stroke="none" fill="#FFF100" fill-rule="nonzero" /><path id="1537" transform="matrix(1 0 0 -1 0 841)" d="M322.702 222.552L325.429 222.552L325.429 234.825L322.702 234.825z" stroke="none" fill="#FFF100" fill-rule="nonzero" /><path id="1538" transform="matrix(1 0 0 -1 0 841)" d="M325.181 222.552L339.01 222.552L339.01 234.825L325.181 234.825z" stroke="none" fill="#FFF100" fill-rule="nonzero" /><path id="1542" transform="matrix(1 0 0 -1 0 841)" d="M338.76 222.552L341.487 222.552L341.487 234.825L338.76 234.825z" stroke="none" fill="#FFF100" fill-rule="nonzero" /><path id="1543" transform="matrix(1 0 0 -1 0 841)" d="M341.239 222.552L363.555 222.552L363.555 234.825L341.239 234.825z" stroke="none" fill="#FFF100" fill-rule="nonzero" /><path id="1548" transform="matrix(1 0 0 -1 0 841)" d="M363.305 222.552L366.032 222.552L366.032 234.825L363.305 234.825z" stroke="none" fill="#FFF100" fill-rule="nonzero" /><path id="1549" transform="matrix(1 0 0 -1 0 841)" d="M365.784 222.552L375.369 222.552L375.369 234.825L365.784 234.825z" stroke="none" fill="#FFF100" fill-rule="nonzero" /><path id="1552" transform="matrix(1 0 0 -1 0 841)" d="M375.12 222.552L377.847 222.552L377.847 234.825L375.12 234.825z" stroke="none" fill="#FFF100" fill-rule="nonzero" /><path id="1553" transform="matrix(1 0 0 -1 0 841)" d="M377.598 222.552L391.427 222.552L391.427 234.825L377.598 234.825z" stroke="none" fill="#FFF100" fill-rule="nonzero" /><path id="1557" transform="matrix(1 0 0 -1 0 841)" d="M391.178 222.552L393.905 222.552L393.905 234.825L391.178 234.825z" stroke="none" fill="#FFF100" fill-rule="nonzero" /><path id="1558" transform="matrix(1 0 0 -1 0 841)" d="M393.656 222.552L409.907 222.552L409.907 234.825L393.656 234.825z" stroke="none" fill="#FFF100" fill-rule="nonzero" /><path id="1562" transform="matrix(1 0 0 -1 0 841)" d="M409.409 222.552L442.034 222.552L442.034 234.825L409.409 234.825z" stroke="none" fill="#FFF100" fill-rule="nonzero" /><path id="1571" transform="matrix(1 0 0 -1 0 841)" d="M441.784 222.552L444.511 222.552L444.511 234.825L441.784 234.825z" stroke="none" fill="#FFF100" fill-rule="nonzero" /><path id="1572" transform="matrix(1 0 0 -1 0 841)" d="M444.263 222.552L453.248 222.552L453.248 234.825L444.263 234.825z" stroke="none" fill="#FFF100" fill-rule="nonzero" /><path id="1575" transform="matrix(1 0 0 -1 0 841)" d="M452.999 222.552L455.726 222.552L455.726 234.825L452.999 234.825z" stroke="none" fill="#FFF100" fill-rule="nonzero" /><path id="1576" transform="matrix(1 0 0 -1 0 841)" d="M455.477 222.552L472.338 222.552L472.338 234.825L455.477 234.825z" stroke="none" fill="#FFF100" fill-rule="nonzero" /><path id="1581" transform="matrix(1 0 0 -1 0 841)" d="M472.089 222.552L474.816 222.552L474.816 234.825L472.089 234.825z" stroke="none" fill="#FFF100" fill-rule="nonzero" /><path id="1582" transform="matrix(1 0 0 -1 0 841)" d="M474.568 222.552L496.208 222.552L496.208 234.825L474.568 234.825z" stroke="none" fill="#FFF100" fill-rule="nonzero" /><path id="1589" transform="matrix(1 0 0 -1 0 841)" d="M136.063 205.615L151.55 205.615L151.55 217.888L136.063 217.888z" stroke="none" fill="#FFF100" fill-rule="nonzero" /><path id="1593" transform="matrix(1 0 0 -1 0 841)" d="M151.604 205.615L154.781 205.615L154.781 217.888L151.604 217.888z" stroke="none" fill="#FFF100" fill-rule="nonzero" /><path id="1594" transform="matrix(1 0 0 -1 0 841)" d="M154.532 205.615L168.361 205.615L168.361 217.888L154.532 217.888z" stroke="none" fill="#FFF100" fill-rule="nonzero" /><path id="1598" transform="matrix(1 0 0 -1 0 841)" d="M168.378 205.615L171.555 205.615L171.555 217.888L168.378 217.888z" stroke="none" fill="#FFF100" fill-rule="nonzero" /><path id="1599" transform="matrix(1 0 0 -1 0 841)" d="M171.306 205.615L199.688 205.615L199.688 217.888L171.306 217.888z" stroke="none" fill="#FFF100" fill-rule="nonzero" /><path id="1605" transform="matrix(1 0 0 -1 0 841)" d="M199.996 205.615L203.173 205.615L203.173 217.888L199.996 217.888z" stroke="none" fill="#FFF100" fill-rule="nonzero" /><path id="1606" transform="matrix(1 0 0 -1 0 841)" d="M202.924 205.615L218.411 205.615L218.411 217.888L202.924 217.888z" stroke="none" fill="#FFF100" fill-rule="nonzero" /><path id="1610" transform="matrix(1 0 0 -1 0 841)" d="M218.216 205.615L240.532 205.615L240.532 217.888L218.216 217.888z" stroke="none" fill="#FFF100" fill-rule="nonzero" /><path id="1615" transform="matrix(1 0 0 -1 0 841)" d="M240.72 205.615L243.897 205.615L243.897 217.888L240.72 217.888z" stroke="none" fill="#FFF100" fill-rule="nonzero" /><path id="1616" transform="matrix(1 0 0 -1 0 841)" d="M243.647 205.615L252.632 205.615L252.632 217.888L243.647 217.888z" stroke="none" fill="#FFF100" fill-rule="nonzero" /><path id="1619" transform="matrix(1 0 0 -1 0 841)" d="M252.553 205.615L255.73 205.615L255.73 217.888L252.553 217.888z" stroke="none" fill="#FFF100" fill-rule="nonzero" /><path id="1620" transform="matrix(1 0 0 -1 0 841)" d="M255.481 205.615L281.015 205.615L281.015 217.888L255.481 217.888z" stroke="none" fill="#FFF100" fill-rule="nonzero" /><path id="1626" transform="matrix(1 0 0 -1 0 841)" d="M281.269 205.615L284.446 205.615L284.446 217.888L281.269 217.888z" stroke="none" fill="#FFF100" fill-rule="nonzero" /><path id="1627" transform="matrix(1 0 0 -1 0 841)" d="M284.197 205.615L298.026 205.615L298.026 217.888L284.197 217.888z" stroke="none" fill="#FFF100" fill-rule="nonzero" /><path id="1631" transform="matrix(1 0 0 -1 0 841)" d="M298.043 205.615L301.22 205.615L301.22 217.888L298.043 217.888z" stroke="none" fill="#FFF100" fill-rule="nonzero" /><path id="1632" transform="matrix(1 0 0 -1 0 841)" d="M300.971 205.615L315.193 205.615L315.193 217.888L300.971 217.888z" stroke="none" fill="#FFF100" fill-rule="nonzero" /><path id="1636" transform="matrix(1 0 0 -1 0 841)" d="M314.974 205.615L334.257 205.615L334.257 217.888L314.974 217.888z" stroke="none" fill="#FFF100" fill-rule="nonzero" /><path id="1640" transform="matrix(1 0 0 -1 0 841)" d="M334.384 205.615L337.561 205.615L337.561 217.888L334.384 217.888z" stroke="none" fill="#FFF100" fill-rule="nonzero" /><path id="1641" transform="matrix(1 0 0 -1 0 841)" d="M337.311 205.615L346.896 205.615L346.896 217.888L337.311 217.888z" stroke="none" fill="#FFF100" fill-rule="nonzero" /><path id="1644" transform="matrix(1 0 0 -1 0 841)" d="M346.829 205.615L350.006 205.615L350.006 217.888L346.829 217.888z" stroke="none" fill="#FFF100" fill-rule="nonzero" /><path id="1645" transform="matrix(1 0 0 -1 0 841)" d="M349.757 205.615L369.379 205.615L369.379 217.888L349.757 217.888z" stroke="none" fill="#FFF100" fill-rule="nonzero" /><path id="1649" transform="matrix(1 0 0 -1 0 841)" d="M369.518 205.615L372.695 205.615L372.695 217.888L369.518 217.888z" stroke="none" fill="#FFF100" fill-rule="nonzero" /><path id="1650" transform="matrix(1 0 0 -1 0 841)" d="M372.445 205.615L397.783 205.615L397.783 217.888L372.445 217.888z" stroke="none" fill="#FFF100" fill-rule="nonzero" /><path id="1656" transform="matrix(1 0 0 -1 0 841)" d="M398.031 205.615L401.208 205.615L401.208 217.888L398.031 217.888z" stroke="none" fill="#FFF100" fill-rule="nonzero" /><path id="1657" transform="matrix(1 0 0 -1 0 841)" d="M400.959 205.615L409.944 205.615L409.944 217.888L400.959 217.888z" stroke="none" fill="#FFF100" fill-rule="nonzero" /><path id="1660" transform="matrix(1 0 0 -1 0 841)" d="M409.865 205.615L413.042 205.615L413.042 217.888L409.865 217.888z" stroke="none" fill="#FFF100" fill-rule="nonzero" /><path id="1661" transform="matrix(1 0 0 -1 0 841)" d="M412.792 205.615L423.588 205.615L423.588 217.888L412.792 217.888z" stroke="none" fill="#FFF100" fill-rule="nonzero" /><path id="1664" transform="matrix(1 0 0 -1 0 841)" d="M423.545 205.615L426.722 205.615L426.722 217.888L423.545 217.888z" stroke="none" fill="#FFF100" fill-rule="nonzero" /><path id="1665" transform="matrix(1 0 0 -1 0 841)" d="M426.473 205.615L437.106 205.615L437.106 217.888L426.473 217.888z" stroke="none" fill="#FFF100" fill-rule="nonzero" /><path id="1668" transform="matrix(1 0 0 -1 0 841)" d="M436.814 205.615L470.028 205.615L470.028 217.888L436.814 217.888z" stroke="none" fill="#FFF100" fill-rule="nonzero" /><path id="1676" transform="matrix(1 0 0 -1 0 841)" d="M470.433 205.615L473.61 205.615L473.61 217.888L470.433 217.888z" stroke="none" fill="#FFF100" fill-rule="nonzero" /><path id="1677" transform="matrix(1 0 0 -1 0 841)" d="M473.361 205.615L482.346 205.615L482.346 217.888L473.361 217.888z" stroke="none" fill="#FFF100" fill-rule="nonzero" /><path id="1680" transform="matrix(1 0 0 -1 0 841)" d="M482.267 205.615L485.444 205.615L485.444 217.888L482.267 217.888z" stroke="none" fill="#FFF100" fill-rule="nonzero" /><path id="1681" transform="matrix(1 0 0 -1 0 841)" d="M485.194 205.615L505.994 205.615L505.994 217.888L485.194 217.888z" stroke="none" fill="#FFF100" fill-rule="nonzero" /><path id="1685" transform="matrix(1 0 0 -1 0 841)" d="M136.063 188.679L151.517 188.679L151.517 200.952L136.063 200.952z" stroke="none" fill="#FFF100" fill-rule="nonzero" /><path id="1689" transform="matrix(1 0 0 -1 0 841)" d="M151.019 188.679L170.302 188.679L170.302 200.952L151.019 200.952z" stroke="none" fill="#FFF100" fill-rule="nonzero" /><path id="1693" transform="matrix(1 0 0 -1 0 841)" d="M170.054 188.679L172.781 188.679L172.781 200.952L170.054 200.952z" stroke="none" fill="#FFF100" fill-rule="nonzero" /><path id="1694" transform="matrix(1 0 0 -1 0 841)" d="M172.532 188.679L182.117 188.679L182.117 200.952L172.532 200.952z" stroke="none" fill="#FFF100" fill-rule="nonzero" /><path id="1697" transform="matrix(1 0 0 -1 0 841)" d="M181.868 188.679L184.595 188.679L184.595 200.952L181.868 200.952z" stroke="none" fill="#FFF100" fill-rule="nonzero" /><path id="1698" transform="matrix(1 0 0 -1 0 841)" d="M184.346 188.679L208.211 188.679L208.211 200.952L184.346 200.952z" stroke="none" fill="#FFF100" fill-rule="nonzero" /><path id="1703" transform="matrix(1 0 0 -1 0 841)" d="M207.962 188.679L210.689 188.679L210.689 200.952L207.962 200.952z" stroke="none" fill="#FFF100" fill-rule="nonzero" /><path id="1704" transform="matrix(1 0 0 -1 0 841)" d="M210.441 188.679L219.426 188.679L219.426 200.952L210.441 200.952z" stroke="none" fill="#FFF100" fill-rule="nonzero" /><path id="1707" transform="matrix(1 0 0 -1 0 841)" d="M219.177 188.679L221.904 188.679L221.904 200.952L219.177 200.952z" stroke="none" fill="#FFF100" fill-rule="nonzero" /><path id="1708" transform="matrix(1 0 0 -1 0 841)" d="M221.655 188.679L244.571 188.679L244.571 200.952L221.655 200.952z" stroke="none" fill="#FFF100" fill-rule="nonzero" /><path id="1714" transform="matrix(1 0 0 -1 0 841)" d="M244.322 188.679L247.049 188.679L247.049 200.952L244.322 200.952z" stroke="none" fill="#FFF100" fill-rule="nonzero" /><path id="1715" transform="matrix(1 0 0 -1 0 841)" d="M246.8 188.679L268.516 188.679L268.516 200.952L246.8 200.952z" stroke="none" fill="#FFF100" fill-rule="nonzero" /><path id="1721" transform="matrix(1 0 0 -1 0 841)" d="M268.267 188.679L270.994 188.679L270.994 200.952L268.267 200.952z" stroke="none" fill="#FFF100" fill-rule="nonzero" /><path id="1722" transform="matrix(1 0 0 -1 0 841)" d="M270.745 188.679L274.876 188.679L274.876 200.952L270.745 200.952z" stroke="none" fill="#FFF100" fill-rule="nonzero" /><path id="1724" transform="matrix(1 0 0 -1 0 841)" d="M274.627 188.679L277.354 188.679L277.354 200.952L274.627 200.952z" stroke="none" fill="#FFF100" fill-rule="nonzero" /><path id="1725" transform="matrix(1 0 0 -1 0 841)" d="M277.105 188.679L290.879 188.679L290.879 200.952L277.105 200.952z" stroke="none" fill="#FFF100" fill-rule="nonzero" /><path id="1729" transform="matrix(1 0 0 -1 0 841)" d="M290.382 188.679L311.793 188.679L311.793 200.952L290.382 200.952z" stroke="none" fill="#FFF100" fill-rule="nonzero" /><path id="1735" transform="matrix(1 0 0 -1 0 841)" d="M311.543 188.679L314.27 188.679L314.27 200.952L311.543 200.952z" stroke="none" fill="#FFF100" fill-rule="nonzero" /><path id="1736" transform="matrix(1 0 0 -1 0 841)" d="M314.021 188.679L328.766 188.679L328.766 200.952L314.021 200.952z" stroke="none" fill="#FFF100" fill-rule="nonzero" /><path id="1740" transform="matrix(1 0 0 -1 0 841)" d="M328.517 188.679L331.244 188.679L331.244 200.952L328.517 200.952z" stroke="none" fill="#FFF100" fill-rule="nonzero" /><path id="1741" transform="matrix(1 0 0 -1 0 841)" d="M330.995 188.679L346.94 188.679L346.94 200.952L330.995 200.952z" stroke="none" fill="#FFF100" fill-rule="nonzero" /><path id="1746" transform="matrix(1 0 0 -1 0 841)" d="M346.691 188.679L349.418 188.679L349.418 200.952L346.691 200.952z" stroke="none" fill="#FFF100" fill-rule="nonzero" /><path id="1747" transform="matrix(1 0 0 -1 0 841)" d="M349.169 188.679L374.507 188.679L374.507 200.952L349.169 200.952z" stroke="none" fill="#FFF100" fill-rule="nonzero" /><path id="1753" transform="matrix(1 0 0 -1 0 841)" d="M374.258 188.679L376.985 188.679L376.985 200.952L374.258 200.952z" stroke="none" fill="#FFF100" fill-rule="nonzero" /><path id="1754" transform="matrix(1 0 0 -1 0 841)" d="M376.736 188.679L385.721 188.679L385.721 200.952L376.736 200.952z" stroke="none" fill="#FFF100" fill-rule="nonzero" /><path id="1757" transform="matrix(1 0 0 -1 0 841)" d="M385.472 188.679L388.199 188.679L388.199 200.952L385.472 200.952z" stroke="none" fill="#FFF100" fill-rule="nonzero" /><path id="1758" transform="matrix(1 0 0 -1 0 841)" d="M387.951 188.679L398.747 188.679L398.747 200.952L387.951 200.952z" stroke="none" fill="#FFF100" fill-rule="nonzero" /><path id="1761" transform="matrix(1 0 0 -1 0 841)" d="M398.498 188.679L401.225 188.679L401.225 200.952L398.498 200.952z" stroke="none" fill="#FFF100" fill-rule="nonzero" /><path id="1762" transform="matrix(1 0 0 -1 0 841)" d="M400.976 188.679L416.791 188.679L416.791 200.952L400.976 200.952z" stroke="none" fill="#FFF100" fill-rule="nonzero" /><path id="1766" transform="matrix(1 0 0 -1 0 841)" d="M416.292 188.679L443.888 188.679L443.888 200.952L416.292 200.952z" stroke="none" fill="#FFF100" fill-rule="nonzero" /><path id="1773" transform="matrix(1 0 0 -1 0 841)" d="M443.639 188.679L446.366 188.679L446.366 200.952L443.639 200.952z" stroke="none" fill="#FFF100" fill-rule="nonzero" /><path id="1774" transform="matrix(1 0 0 -1 0 841)" d="M446.118 188.679L455.103 188.679L455.103 200.952L446.118 200.952z" stroke="none" fill="#FFF100" fill-rule="nonzero" /><path id="1777" transform="matrix(1 0 0 -1 0 841)" d="M454.854 188.679L457.581 188.679L457.581 200.952L454.854 200.952z" stroke="none" fill="#FFF100" fill-rule="nonzero" /><path id="1778" transform="matrix(1 0 0 -1 0 841)" d="M457.332 188.679L478.132 188.679L478.132 200.952L457.332 200.952z" stroke="none" fill="#FFF100" fill-rule="nonzero" /></g></g></svg>