<svg xmlns="http://www.w3.org/2000/svg" xmlns:xlink="http://www.w3.org/1999/xlink" id="body_82" preserveAspectRatio="xMinYMin meet" viewBox="0 0 793 1121"><defs><clipPath id="1"><path id="" clip-rule="evenodd" transform="matrix(1 0 0 1 0 0)" d="M0 841L0 -0.8900146L0 -0.8900146L595.276 -0.8900146L595.276 -0.8900146L595.276 841L595.276 841L0 841z" /></clipPath></defs><g transform="matrix(1.333333 0 0 1.333333 0 0)"><g clip-path="url(#1)"><path id="27" transform="matrix(1 0 0 -1 0 841)" d="M85.039 766.564L510.236 766.564" stroke="#000000" stroke-width="0.498" fill="none" /><path id="28" transform="matrix(1 0 0 -1 0 841)" d="M85.039 532.8619L85.039 752.6018C 85.039 754.9501 86.94264 756.8538 89.29099 756.8538L89.29099 756.8538L505.9893 756.8538C 508.3377 756.8538 510.2413 754.9501 510.2413 752.6018L510.2413 752.6018L510.2413 532.8619C 510.2413 530.5136 508.3377 528.61 505.9893 528.61L505.9893 528.61L89.29099 528.61C 86.94264 528.61 85.039 530.5136 85.039 532.8619z" stroke="none" fill="#BFBFFF" fill-rule="nonzero" /><path id="29" transform="matrix(1 0 0 -1 0 841)" d="M86.45631 532.8619L86.45631 740.8445L86.45631 740.8445L508.824 740.8445L508.824 740.8445L508.824 532.8619C 508.824 531.2964 507.5549 530.0273 505.9893 530.0273L505.9893 530.0273L89.29099 530.0273C 87.72543 530.0273 86.45631 531.2964 86.45631 532.8619z" stroke="none" fill="#E6E6FF" fill-rule="nonzero" /><path id="870" transform="matrix(1 0 0 -1 0 841)" d="M227.282 422.845L403.677 422.845" stroke="#000000" stroke-width="0.436" fill="none" /><path id="1371" transform="matrix(1 0 0 -1 0 841)" d="M157.145 165.642L162.6 165.642" stroke="#000000" stroke-width="0.436" fill="none" /><path id="1407" transform="matrix(1 0 0 -1 0 841)" d="M157.145 130.178L162.6 130.178" stroke="#000000" stroke-width="0.436" fill="none" /></g></g></svg>