<svg xmlns="http://www.w3.org/2000/svg" xmlns:xlink="http://www.w3.org/1999/xlink" id="body_136" preserveAspectRatio="xMinYMin meet" viewBox="0 0 793 1121"><defs><clipPath id="1"><path id="" clip-rule="evenodd" transform="matrix(1 0 0 1 0 0)" d="M0 841L0 -0.8900146L0 -0.8900146L595.276 -0.8900146L595.276 -0.8900146L595.276 841L595.276 841L0 841z" /></clipPath></defs><g transform="matrix(1.333333 0 0 1.333333 0 0)"><g clip-path="url(#1)"><path id="33" transform="matrix(1 0 0 -1 0 841)" d="M85.039 766.564L510.236 766.564" stroke="#000000" stroke-width="0.498" fill="none" /><path id="378" transform="matrix(1 0 0 -1 0 841)" d="M166.53 649.239L220.017 649.239" stroke="#000000" stroke-width="0.436" fill="none" /><path id="394" transform="matrix(1 0 0 -1 0 841)" d="M235.732 649.239L271.492 649.239" stroke="#000000" stroke-width="0.436" fill="none" /><path id="519" transform="matrix(1 0 0 -1 0 841)" d="M163.802 581.422L217.289 581.422" stroke="#000000" stroke-width="0.436" fill="none" /><path id="545" transform="matrix(1 0 0 -1 0 841)" d="M302.694 581.422L356.181 581.422" stroke="#000000" stroke-width="0.436" fill="none" /><path id="568" transform="matrix(1 0 0 -1 0 841)" d="M449.921 581.422L466.285 581.422" stroke="#000000" stroke-width="0.436" fill="none" /><path id="576" transform="matrix(1 0 0 -1 0 841)" d="M480.804 589.333L505.153 589.333" stroke="#000000" stroke-width="0.398" fill="none" /><path id="577" transform="matrix(1 0 0 -1 0 841)" d="M481.004 575.338L481.004 589.334" stroke="#000000" stroke-width="0.398" fill="none" /><path id="578" transform="matrix(1 0 0 -1 0 841)" d="M504.954 575.338L504.954 589.334" stroke="#000000" stroke-width="0.398" fill="none" /><path id="579" transform="matrix(1 0 0 -1 0 841)" d="M480.804 575.338L505.153 575.338" stroke="#000000" stroke-width="0.398" fill="none" /><path id="814" transform="matrix(1 0 0 -1 0 841)" d="M163.802 495.482L217.289 495.482" stroke="#000000" stroke-width="0.436" fill="none" /><path id="830" transform="matrix(1 0 0 -1 0 841)" d="M233.005 495.482L268.765 495.482" stroke="#000000" stroke-width="0.436" fill="none" /><path id="841" transform="matrix(1 0 0 -1 0 841)" d="M85.039 117.213L85.039 472.4465C 85.039 474.7948 86.94264 476.6985 89.29099 476.6985L89.29099 476.6985L505.9893 476.6985C 508.3377 476.6985 510.2413 474.7948 510.2413 472.4465L510.2413 472.4465L510.2413 117.213C 510.2413 114.8646 508.3377 112.961 505.9893 112.961L505.9893 112.961L89.29099 112.961C 86.94264 112.961 85.039 114.8646 85.039 117.213z" stroke="none" fill="#BFBFFF" fill-rule="nonzero" /><path id="842" transform="matrix(1 0 0 -1 0 841)" d="M86.45631 117.213L86.45631 460.6891L86.45631 460.6891L508.824 460.6891L508.824 460.6891L508.824 117.213C 508.824 115.6474 507.5549 114.3783 505.9893 114.3783L505.9893 114.3783L89.29099 114.3783C 87.72543 114.3783 86.45631 115.6474 86.45631 117.213z" stroke="none" fill="#E6E6FF" fill-rule="nonzero" /></g></g></svg>