<svg xmlns="http://www.w3.org/2000/svg" xmlns:xlink="http://www.w3.org/1999/xlink" id="body_209" preserveAspectRatio="xMinYMin meet" viewBox="0 0 793 1121"><defs><clipPath id="1"><path id="" clip-rule="evenodd" transform="matrix(1 0 0 1 0 0)" d="M0 841L0 -0.8900146L0 -0.8900146L595.276 -0.8900146L595.276 -0.8900146L595.276 841L595.276 841L0 841z" /></clipPath></defs><g transform="matrix(1.333333 0 0 1.333333 0 0)"><g clip-path="url(#1)"><path id="36" transform="matrix(1 0 0 -1 0 841)" d="M85.039 766.564L510.236 766.564" stroke="#000000" stroke-width="0.498" fill="none" /><path id="46" transform="matrix(1 0 0 -1 0 841)" d="M113.794 744.894L139.846 744.894" stroke="#000000" stroke-width="0.436" fill="none" /><path id="58" transform="matrix(1 0 0 -1 0 841)" d="M154.366 752.806L211.039 752.806" stroke="#000000" stroke-width="0.398" fill="none" /><path id="59" transform="matrix(1 0 0 -1 0 841)" d="M154.565 736.754L154.565 752.806" stroke="#000000" stroke-width="0.398" fill="none" /><path id="60" transform="matrix(1 0 0 -1 0 841)" d="M210.839 736.754L210.839 752.806" stroke="#000000" stroke-width="0.398" fill="none" /><path id="61" transform="matrix(1 0 0 -1 0 841)" d="M154.366 736.754L211.039 736.754" stroke="#000000" stroke-width="0.398" fill="none" /><path id="188" transform="matrix(1 0 0 -1 0 841)" d="M117.587 651.636L183.532 651.636" stroke="#000000" stroke-width="0.436" fill="none" /><path id="249" transform="matrix(1 0 0 -1 0 841)" d="M113.602 598.854L166.909 598.854" stroke="#000000" stroke-width="0.436" fill="none" /><path id="263" transform="matrix(1 0 0 -1 0 841)" d="M181.43 606.765L238.103 606.765" stroke="#000000" stroke-width="0.398" fill="none" /><path id="264" transform="matrix(1 0 0 -1 0 841)" d="M181.629 590.713L181.629 606.765" stroke="#000000" stroke-width="0.398" fill="none" /><path id="265" transform="matrix(1 0 0 -1 0 841)" d="M237.903 590.713L237.903 606.765" stroke="#000000" stroke-width="0.398" fill="none" /><path id="266" transform="matrix(1 0 0 -1 0 841)" d="M181.43 590.713L238.103 590.713" stroke="#000000" stroke-width="0.398" fill="none" /><path id="280" transform="matrix(1 0 0 -1 0 841)" d="M109.617 565.485L168.379 565.485" stroke="#000000" stroke-width="0.436" fill="none" /><path id="294" transform="matrix(1 0 0 -1 0 841)" d="M182.899 573.244L239.572 573.244" stroke="#000000" stroke-width="0.398" fill="none" /><path id="295" transform="matrix(1 0 0 -1 0 841)" d="M183.098 557.344L183.098 573.244" stroke="#000000" stroke-width="0.398" fill="none" /><path id="296" transform="matrix(1 0 0 -1 0 841)" d="M239.373 557.344L239.373 573.244" stroke="#000000" stroke-width="0.398" fill="none" /><path id="297" transform="matrix(1 0 0 -1 0 841)" d="M182.899 557.344L239.572 557.344" stroke="#000000" stroke-width="0.398" fill="none" /><path id="582" transform="matrix(1 0 0 -1 0 841)" d="M141.096 362.032L201.693 362.032" stroke="#000000" stroke-width="0.436" fill="none" /><path id="591" transform="matrix(1 0 0 -1 0 841)" d="M216.214 369.889L258.083 369.889" stroke="#000000" stroke-width="0.398" fill="none" /><path id="592" transform="matrix(1 0 0 -1 0 841)" d="M216.413 353.755L216.413 369.889" stroke="#000000" stroke-width="0.398" fill="none" /><path id="593" transform="matrix(1 0 0 -1 0 841)" d="M257.883 353.755L257.883 369.889" stroke="#000000" stroke-width="0.398" fill="none" /><path id="594" transform="matrix(1 0 0 -1 0 841)" d="M216.214 353.755L258.083 353.755" stroke="#000000" stroke-width="0.398" fill="none" /><path id="675" transform="matrix(1 0 0 -1 0 841)" d="M85.039 130.199L85.039 299.1287C 85.039 301.4771 86.94264 303.3807 89.29099 303.3807L89.29099 303.3807L505.9893 303.3807C 508.3377 303.3807 510.2413 301.4771 510.2413 299.1287L510.2413 299.1287L510.2413 130.199C 510.2413 127.8506 508.3377 125.947 505.9893 125.947L505.9893 125.947L89.29099 125.947C 86.94264 125.947 85.039 127.8506 85.039 130.199z" stroke="none" fill="#BFBFFF" fill-rule="nonzero" /><path id="676" transform="matrix(1 0 0 -1 0 841)" d="M86.45631 130.199L86.45631 287.3714L86.45631 287.3714L508.824 287.3714L508.824 287.3714L508.824 130.199C 508.824 128.6334 507.5549 127.3643 505.9893 127.3643L505.9893 127.3643L89.29099 127.3643C 87.72543 127.3643 86.45631 128.6334 86.45631 130.199z" stroke="none" fill="#E6E6FF" fill-rule="nonzero" /></g></g></svg>