<svg xmlns="http://www.w3.org/2000/svg" xmlns:xlink="http://www.w3.org/1999/xlink" id="body_206" preserveAspectRatio="xMinYMin meet" viewBox="0 0 793 1121"><defs><clipPath id="1"><path id="" clip-rule="evenodd" transform="matrix(1 0 0 1 0 0)" d="M0 841L0 -0.8900146L0 -0.8900146L595.276 -0.8900146L595.276 -0.8900146L595.276 841L595.276 841L0 841z" /></clipPath></defs><g transform="matrix(1.333333 0 0 1.333333 0 0)"><g clip-path="url(#1)"><path id="29" transform="matrix(1 0 0 -1 0 841)" d="M85.039 766.564L510.236 766.564" stroke="#000000" stroke-width="0.498" fill="none" /><path id="1349" transform="matrix(1 0 0 -1 0 841)" d="M180.694 273.023L194.025 273.023" stroke="#000000" stroke-width="0.436" fill="none" /><path id="1569" transform="matrix(1 0 0 -1 0 841)" d="M138.348 161.44L186.565 161.44" stroke="#000000" stroke-width="0.436" fill="none" /><path id="1578" transform="matrix(1 0 0 -1 0 841)" d="M218.066 161.44L234.386 161.44" stroke="#000000" stroke-width="0.436" fill="none" /><path id="1600" transform="matrix(1 0 0 -1 0 841)" d="M297.971 161.44L346.188 161.44" stroke="#000000" stroke-width="0.436" fill="none" /><path id="1622" transform="matrix(1 0 0 -1 0 841)" d="M398.268 161.44L454.012 161.44" stroke="#000000" stroke-width="0.436" fill="none" /><path id="1637" transform="matrix(1 0 0 -1 0 841)" d="M143.224 118.278L159.544 118.278" stroke="#000000" stroke-width="0.436" fill="none" /><path id="1647" transform="matrix(1 0 0 -1 0 841)" d="M186.168 118.278L261.293 118.278" stroke="#000000" stroke-width="0.436" fill="none" /><path id="1669" transform="matrix(1 0 0 -1 0 841)" d="M302.215 118.278L318.535 118.278" stroke="#000000" stroke-width="0.436" fill="none" /><path id="1673" transform="matrix(1 0 0 -1 0 841)" d="M281.268 133.635L323.117 133.635" stroke="#000000" stroke-width="0.398" fill="none" /><path id="1674" transform="matrix(1 0 0 -1 0 841)" d="M281.468 102.653L281.468 133.634" stroke="#000000" stroke-width="0.398" fill="none" /><path id="1675" transform="matrix(1 0 0 -1 0 841)" d="M322.918 102.653L322.918 133.634" stroke="#000000" stroke-width="0.398" fill="none" /><path id="1676" transform="matrix(1 0 0 -1 0 841)" d="M281.268 102.653L323.117 102.653" stroke="#000000" stroke-width="0.398" fill="none" /></g></g></svg>