<svg xmlns="http://www.w3.org/2000/svg" xmlns:xlink="http://www.w3.org/1999/xlink" id="body_238" preserveAspectRatio="xMinYMin meet" viewBox="0 0 793 1121"><defs><clipPath id="1"><path id="" clip-rule="evenodd" transform="matrix(1 0 0 1 0 0)" d="M0 841L0 -0.8900146L0 -0.8900146L595.276 -0.8900146L595.276 -0.8900146L595.276 841L595.276 841L0 841z" /></clipPath></defs><g transform="matrix(1.333333 0 0 1.333333 0 0)"><g clip-path="url(#1)"><path id="29" transform="matrix(1 0 0 -1 0 841)" d="M85.039 766.564L510.236 766.564" stroke="#000000" stroke-width="0.498" fill="none" /><path id="601" transform="matrix(1 0 0 -1 0 841)" d="M113.169 567.225L200.549 567.225" stroke="#000000" stroke-width="0.436" fill="none" /><path id="645" transform="matrix(1 0 0 -1 0 841)" d="M266.867 567.225L365.156 567.225" stroke="#000000" stroke-width="0.436" fill="none" /><path id="653" transform="matrix(1 0 0 -1 0 841)" d="M84.79 541.017L109.528 541.017L109.528 553.29L84.79 553.29z" stroke="none" fill="#FFF100" fill-rule="nonzero" /><path id="659" transform="matrix(1 0 0 -1 0 841)" d="M109.764 541.017L112.545 541.017L112.545 553.29L109.764 553.29z" stroke="none" fill="#FFF100" fill-rule="nonzero" /><path id="660" transform="matrix(1 0 0 -1 0 841)" d="M112.295 541.017L132.189 541.017L132.189 553.29L112.295 553.29z" stroke="none" fill="#FFF100" fill-rule="nonzero" /><path id="665" transform="matrix(1 0 0 -1 0 841)" d="M132.328 541.017L135.109 541.017L135.109 553.29L132.328 553.29z" stroke="none" fill="#FFF100" fill-rule="nonzero" /><path id="666" transform="matrix(1 0 0 -1 0 841)" d="M134.86 541.017L153.532 541.017L153.532 553.29L134.86 553.29z" stroke="none" fill="#FFF100" fill-rule="nonzero" /><path id="671" transform="matrix(1 0 0 -1 0 841)" d="M153.398 541.017L175.103 541.017L175.103 553.29L153.398 553.29z" stroke="none" fill="#FFF100" fill-rule="nonzero" /><path id="677" transform="matrix(1 0 0 -1 0 841)" d="M175.029 541.017L196.123 541.017L196.123 553.29L175.029 553.29z" stroke="none" fill="#FFF100" fill-rule="nonzero" /><path id="682" transform="matrix(1 0 0 -1 0 841)" d="M196.286 541.017L199.067 541.017L199.067 553.29L196.286 553.29z" stroke="none" fill="#FFF100" fill-rule="nonzero" /><path id="683" transform="matrix(1 0 0 -1 0 841)" d="M198.818 541.017L216.29 541.017L216.29 553.29L198.818 553.29z" stroke="none" fill="#FFF100" fill-rule="nonzero" /><path id="688" transform="matrix(1 0 0 -1 0 841)" d="M216.38 541.017L219.161 541.017L219.161 553.29L216.38 553.29z" stroke="none" fill="#FFF100" fill-rule="nonzero" /><path id="689" transform="matrix(1 0 0 -1 0 841)" d="M218.912 541.017L227.897 541.017L227.897 553.29L218.912 553.29z" stroke="none" fill="#FFF100" fill-rule="nonzero" /><path id="692" transform="matrix(1 0 0 -1 0 841)" d="M227.569 541.017L251.696 541.017L251.696 553.29L227.569 553.29z" stroke="none" fill="#FFF100" fill-rule="nonzero" /><path id="698" transform="matrix(1 0 0 -1 0 841)" d="M251.919 541.017L254.7 541.017L254.7 553.29L251.919 553.29z" stroke="none" fill="#FFF100" fill-rule="nonzero" /><path id="699" transform="matrix(1 0 0 -1 0 841)" d="M254.451 541.017L268.28 541.017L268.28 553.29L254.451 553.29z" stroke="none" fill="#FFF100" fill-rule="nonzero" /><path id="703" transform="matrix(1 0 0 -1 0 841)" d="M268.297 541.017L271.078 541.017L271.078 553.29L268.297 553.29z" stroke="none" fill="#FFF100" fill-rule="nonzero" /><path id="704" transform="matrix(1 0 0 -1 0 841)" d="M270.829 541.017L298.6 541.017L298.6 553.29L270.829 553.29z" stroke="none" fill="#FFF100" fill-rule="nonzero" /><path id="711" transform="matrix(1 0 0 -1 0 841)" d="M298.896 541.017L301.677 541.017L301.677 553.29L298.896 553.29z" stroke="none" fill="#FFF100" fill-rule="nonzero" /><path id="712" transform="matrix(1 0 0 -1 0 841)" d="M301.427 541.017L315.256 541.017L315.256 553.29L301.427 553.29z" stroke="none" fill="#FFF100" fill-rule="nonzero" /><path id="716" transform="matrix(1 0 0 -1 0 841)" d="M315.273 541.017L318.054 541.017L318.054 553.29L315.273 553.29z" stroke="none" fill="#FFF100" fill-rule="nonzero" /><path id="717" transform="matrix(1 0 0 -1 0 841)" d="M317.805 541.017L330.914 541.017L330.914 553.29L317.805 553.29z" stroke="none" fill="#FFF100" fill-rule="nonzero" /><path id="720" transform="matrix(1 0 0 -1 0 841)" d="M330.67 541.017L342.677 541.017L342.677 553.29L330.67 553.29z" stroke="none" fill="#FFF100" fill-rule="nonzero" /><path id="724" transform="matrix(1 0 0 -1 0 841)" d="M342.658 541.017L345.439 541.017L345.439 553.29L342.658 553.29z" stroke="none" fill="#FFF100" fill-rule="nonzero" /><path id="725" transform="matrix(1 0 0 -1 0 841)" d="M345.19 541.017L380.837 541.017L380.837 553.29L345.19 553.29z" stroke="none" fill="#FFF100" fill-rule="nonzero" /><path id="732" transform="matrix(1 0 0 -1 0 841)" d="M381.291 541.017L384.072 541.017L384.072 553.29L381.291 553.29z" stroke="none" fill="#FFF100" fill-rule="nonzero" /><path id="733" transform="matrix(1 0 0 -1 0 841)" d="M383.822 541.017L400.073 541.017L400.073 553.29L383.822 553.29z" stroke="none" fill="#FFF100" fill-rule="nonzero" /><path id="737" transform="matrix(1 0 0 -1 0 841)" d="M400.139 541.017L402.92 541.017L402.92 553.29L400.139 553.29z" stroke="none" fill="#FFF100" fill-rule="nonzero" /><path id="738" transform="matrix(1 0 0 -1 0 841)" d="M402.671 541.017L420.743 541.017L420.743 553.29L402.671 553.29z" stroke="none" fill="#FFF100" fill-rule="nonzero" /><path id="743" transform="matrix(1 0 0 -1 0 841)" d="M420.845 541.017L423.626 541.017L423.626 553.29L420.845 553.29z" stroke="none" fill="#FFF100" fill-rule="nonzero" /><path id="744" transform="matrix(1 0 0 -1 0 841)" d="M423.377 541.017L437.206 541.017L437.206 553.29L423.377 553.29z" stroke="none" fill="#FFF100" fill-rule="nonzero" /><path id="748" transform="matrix(1 0 0 -1 0 841)" d="M437.223 541.017L440.004 541.017L440.004 553.29L437.223 553.29z" stroke="none" fill="#FFF100" fill-rule="nonzero" /><path id="749" transform="matrix(1 0 0 -1 0 841)" d="M439.755 541.017L460.849 541.017L460.849 553.29L439.755 553.29z" stroke="none" fill="#FFF100" fill-rule="nonzero" /><path id="754" transform="matrix(1 0 0 -1 0 841)" d="M461.012 541.017L463.793 541.017L463.793 553.29L461.012 553.29z" stroke="none" fill="#FFF100" fill-rule="nonzero" /><path id="755" transform="matrix(1 0 0 -1 0 841)" d="M463.544 541.017L473.129 541.017L473.129 553.29L463.544 553.29z" stroke="none" fill="#FFF100" fill-rule="nonzero" /><path id="758" transform="matrix(1 0 0 -1 0 841)" d="M472.812 541.017L483.008 541.017L483.008 553.29L472.812 553.29z" stroke="none" fill="#FFF100" fill-rule="nonzero" /><path id="761" transform="matrix(1 0 0 -1 0 841)" d="M482.704 541.017L491.078 541.017L491.078 553.29L482.704 553.29z" stroke="none" fill="#FFF100" fill-rule="nonzero" /><path id="764" transform="matrix(1 0 0 -1 0 841)" d="M490.738 541.017L509.41 541.017L509.41 553.29L490.738 553.29z" stroke="none" fill="#FFF100" fill-rule="nonzero" /><path id="769" transform="matrix(1 0 0 -1 0 841)" d="M84.79 524.081L104.684 524.081L104.684 536.354L84.79 536.354z" stroke="none" fill="#FFF100" fill-rule="nonzero" /><path id="774" transform="matrix(1 0 0 -1 0 841)" d="M104.435 524.081L107.162 524.081L107.162 536.354L104.435 536.354z" stroke="none" fill="#FFF100" fill-rule="nonzero" /><path id="775" transform="matrix(1 0 0 -1 0 841)" d="M106.914 524.081L122.554 524.081L122.554 536.354L106.914 536.354z" stroke="none" fill="#FFF100" fill-rule="nonzero" /><path id="780" transform="matrix(1 0 0 -1 0 841)" d="M122.055 524.081L139.527 524.081L139.527 536.354L122.055 536.354z" stroke="none" fill="#FFF100" fill-rule="nonzero" /><path id="785" transform="matrix(1 0 0 -1 0 841)" d="M139.279 524.081L142.006 524.081L142.006 536.354L139.279 536.354z" stroke="none" fill="#FFF100" fill-rule="nonzero" /><path id="786" transform="matrix(1 0 0 -1 0 841)" d="M141.757 524.081L168.316 524.081L168.316 536.354L141.757 536.354z" stroke="none" fill="#FFF100" fill-rule="nonzero" /><path id="793" transform="matrix(1 0 0 -1 0 841)" d="M168.067 524.081L170.794 524.081L170.794 536.354L168.067 536.354z" stroke="none" fill="#FFF100" fill-rule="nonzero" /><path id="794" transform="matrix(1 0 0 -1 0 841)" d="M170.545 524.081L174.676 524.081L174.676 536.354L170.545 536.354z" stroke="none" fill="#FFF100" fill-rule="nonzero" /><path id="796" transform="matrix(1 0 0 -1 0 841)" d="M174.427 524.081L177.154 524.081L177.154 536.354L174.427 536.354z" stroke="none" fill="#FFF100" fill-rule="nonzero" /><path id="797" transform="matrix(1 0 0 -1 0 841)" d="M176.905 524.081L187.701 524.081L187.701 536.354L176.905 536.354z" stroke="none" fill="#FFF100" fill-rule="nonzero" /><path id="800" transform="matrix(1 0 0 -1 0 841)" d="M187.203 524.081L206.89 524.081L206.89 536.354L187.203 536.354z" stroke="none" fill="#FFF100" fill-rule="nonzero" /><path id="805" transform="matrix(1 0 0 -1 0 841)" d="M206.641 524.081L209.368 524.081L209.368 536.354L206.641 536.354z" stroke="none" fill="#FFF100" fill-rule="nonzero" /><path id="806" transform="matrix(1 0 0 -1 0 841)" d="M209.12 524.081L226.592 524.081L226.592 536.354L209.12 536.354z" stroke="none" fill="#FFF100" fill-rule="nonzero" /><path id="811" transform="matrix(1 0 0 -1 0 841)" d="M226.343 524.081L229.07 524.081L229.07 536.354L226.343 536.354z" stroke="none" fill="#FFF100" fill-rule="nonzero" /><path id="812" transform="matrix(1 0 0 -1 0 841)" d="M228.821 524.081L239.617 524.081L239.617 536.354L228.821 536.354z" stroke="none" fill="#FFF100" fill-rule="nonzero" /><path id="815" transform="matrix(1 0 0 -1 0 841)" d="M239.119 524.081L263.846 524.081L263.846 536.354L239.119 536.354z" stroke="none" fill="#FFF100" fill-rule="nonzero" /><path id="821" transform="matrix(1 0 0 -1 0 841)" d="M263.597 524.081L266.324 524.081L266.324 536.354L263.597 536.354z" stroke="none" fill="#FFF100" fill-rule="nonzero" /><path id="822" transform="matrix(1 0 0 -1 0 841)" d="M266.075 524.081L275.66 524.081L275.66 536.354L266.075 536.354z" stroke="none" fill="#FFF100" fill-rule="nonzero" /><path id="825" transform="matrix(1 0 0 -1 0 841)" d="M275.411 524.081L278.138 524.081L278.138 536.354L275.411 536.354z" stroke="none" fill="#FFF100" fill-rule="nonzero" /><path id="826" transform="matrix(1 0 0 -1 0 841)" d="M277.89 524.081L291.719 524.081L291.719 536.354L277.89 536.354z" stroke="none" fill="#FFF100" fill-rule="nonzero" /><path id="830" transform="matrix(1 0 0 -1 0 841)" d="M291.469 524.081L294.196 524.081L294.196 536.354L291.469 536.354z" stroke="none" fill="#FFF100" fill-rule="nonzero" /><path id="831" transform="matrix(1 0 0 -1 0 841)" d="M293.948 524.081L307.057 524.081L307.057 536.354L293.948 536.354z" stroke="none" fill="#FFF100" fill-rule="nonzero" /><path id="834" transform="matrix(1 0 0 -1 0 841)" d="M306.558 524.081L318.565 524.081L318.565 536.354L306.558 536.354z" stroke="none" fill="#FFF100" fill-rule="nonzero" /><path id="838" transform="matrix(1 0 0 -1 0 841)" d="M318.316 524.081L321.043 524.081L321.043 536.354L318.316 536.354z" stroke="none" fill="#FFF100" fill-rule="nonzero" /><path id="839" transform="matrix(1 0 0 -1 0 841)" d="M320.795 524.081L340.526 524.081L340.526 536.354L320.795 536.354z" stroke="none" fill="#FFF100" fill-rule="nonzero" /><path id="843" transform="matrix(1 0 0 -1 0 841)" d="M340.027 524.081L354.467 524.081L354.467 536.354L340.027 536.354z" stroke="none" fill="#FFF100" fill-rule="nonzero" /><path id="847" transform="matrix(1 0 0 -1 0 841)" d="M354.218 524.081L356.945 524.081L356.945 536.354L354.218 536.354z" stroke="none" fill="#FFF100" fill-rule="nonzero" /><path id="848" transform="matrix(1 0 0 -1 0 841)" d="M356.696 524.081L391.132 524.081L391.132 536.354L356.696 536.354z" stroke="none" fill="#FFF100" fill-rule="nonzero" /><path id="856" transform="matrix(1 0 0 -1 0 841)" d="M390.883 524.081L393.61 524.081L393.61 536.354L390.883 536.354z" stroke="none" fill="#FFF100" fill-rule="nonzero" /><path id="857" transform="matrix(1 0 0 -1 0 841)" d="M393.361 524.081L407.19 524.081L407.19 536.354L393.361 536.354z" stroke="none" fill="#FFF100" fill-rule="nonzero" /><path id="861" transform="matrix(1 0 0 -1 0 841)" d="M406.941 524.081L409.668 524.081L409.668 536.354L406.941 536.354z" stroke="none" fill="#FFF100" fill-rule="nonzero" /><path id="862" transform="matrix(1 0 0 -1 0 841)" d="M409.419 524.081L428.702 524.081L428.702 536.354L409.419 536.354z" stroke="none" fill="#FFF100" fill-rule="nonzero" /><path id="867" transform="matrix(1 0 0 -1 0 841)" d="M428.454 524.081L431.181 524.081L431.181 536.354L428.454 536.354z" stroke="none" fill="#FFF100" fill-rule="nonzero" /><path id="868" transform="matrix(1 0 0 -1 0 841)" d="M430.932 524.081L447.183 524.081L447.183 536.354L430.932 536.354z" stroke="none" fill="#FFF100" fill-rule="nonzero" /><path id="872" transform="matrix(1 0 0 -1 0 841)" d="M446.934 524.081L449.661 524.081L449.661 536.354L446.934 536.354z" stroke="none" fill="#FFF100" fill-rule="nonzero" /><path id="873" transform="matrix(1 0 0 -1 0 841)" d="M449.412 524.081L459.008 524.081L459.008 536.354L449.412 536.354z" stroke="none" fill="#FFF100" fill-rule="nonzero" /><path id="876" transform="matrix(1 0 0 -1 0 841)" d="M458.51 524.081L482.953 524.081L482.953 536.354L458.51 536.354z" stroke="none" fill="#FFF100" fill-rule="nonzero" /><path id="883" transform="matrix(1 0 0 -1 0 841)" d="M434.9808 450.766L349.9404 450.766L349.9404 450.766L349.9404 365.7255L349.9404 365.7255L434.9808 365.7255z" stroke="#000000" stroke-width="0.3985" fill="none" /><path id="884" transform="matrix(1 0 0 -1 0 841)" d="M434.9808 450.766L467.7209 483.506L467.7209 483.506L467.7209 398.4656L467.7209 398.4656L434.9808 365.7255z" stroke="#000000" stroke-width="0.3985" fill="none" /><path id="885" transform="matrix(1 0 0 -1 0 841)" d="M434.9808 450.766L349.9404 450.766L349.9404 450.766L382.6805 483.506L382.6805 483.506L467.7209 483.506z" stroke="#000000" stroke-width="0.3985" fill="none" /><path id="913" transform="matrix(1 0 0 -1 0 841)" d="M159.053 477.193L182.495 477.193" stroke="#000000" stroke-width="0.398" fill="none" /><path id="962" transform="matrix(1 0 0 -1 0 841)" d="M215.545 423.137L265.388 423.137" stroke="#000000" stroke-width="0.398" fill="none" /><g transform="matrix(0.2 0 0 0.2 164.54 575.821)"><g transform="matrix(1 0 0 1 0 0)"><image x="0" y="0" xlink:href="img_322.png" width="1331" height="580" /></g></g></g></g></svg>