<svg xmlns="http://www.w3.org/2000/svg" xmlns:xlink="http://www.w3.org/1999/xlink" id="body_177" preserveAspectRatio="xMinYMin meet" viewBox="0 0 793 1121"><defs><clipPath id="1"><path id="" clip-rule="evenodd" transform="matrix(1 0 0 1 0 0)" d="M0 841L0 -0.8900146L0 -0.8900146L595.276 -0.8900146L595.276 -0.8900146L595.276 841L595.276 841L0 841z" /></clipPath></defs><g transform="matrix(1.333333 0 0 1.333333 0 0)"><g clip-path="url(#1)"><g transform="matrix(0.49608 0 0 0.49608 0.199 -0.6921387)"><g transform="matrix(1 0 0 1 0 0)"><image x="0" y="0" xlink:href="img_247.png" width="1200" height="628" /></g></g><path id="3" transform="matrix(1 0 0 -1 0 841)" d="M724.611 610.1811L100.9809 610.1811C 92.72734 610.1811 86.03673 603.4905 86.03673 595.2369L86.03673 595.2369L86.03673 578.3002C 86.03673 570.0466 92.72734 563.3561 100.9809 563.3561L100.9809 563.3561L724.611 563.3561C 732.8644 563.3561 739.5551 570.0466 739.5551 578.3002L739.5551 578.3002L739.5551 595.2369C 739.5551 603.4905 732.8644 610.1811 724.611 610.1811z" stroke="#F36619" stroke-width="1.99255" fill="#FFFFFF" fill-rule="nonzero" fill-opacity="0.4980392" /><path id="19" transform="matrix(1 0 0 -1 0 841)" d="M85.039 474.708L492.552 474.708" stroke="#000000" stroke-width="0.398" fill="none" /><path id="20" transform="matrix(1 0 0 -1 0 841)" d="M85.239 460.96L85.239 474.509" stroke="#000000" stroke-width="0.398" fill="none" /><path id="60" transform="matrix(1 0 0 -1 0 841)" d="M492.353 460.96L492.353 474.509" stroke="#000000" stroke-width="0.398" fill="none" /><path id="61" transform="matrix(1 0 0 -1 0 841)" d="M85.039 460.761L492.552 460.761" stroke="#000000" stroke-width="0.398" fill="none" /><path id="62" transform="matrix(1 0 0 -1 0 841)" d="M85.239 447.012L85.239 460.561" stroke="#000000" stroke-width="0.398" fill="none" /><path id="106" transform="matrix(1 0 0 -1 0 841)" d="M492.353 447.012L492.353 460.561" stroke="#000000" stroke-width="0.398" fill="none" /><path id="107" transform="matrix(1 0 0 -1 0 841)" d="M85.039 446.813L492.552 446.813" stroke="#000000" stroke-width="0.398" fill="none" /><path id="108" transform="matrix(1 0 0 -1 0 841)" d="M97.194 433.065L97.194 446.614" stroke="#000000" stroke-width="0.398" fill="none" /><path id="114" transform="matrix(1 0 0 -1 0 841)" d="M139.842 433.065L139.842 446.614" stroke="#000000" stroke-width="0.398" fill="none" /><path id="144" transform="matrix(1 0 0 -1 0 841)" d="M492.353 433.065L492.353 446.614" stroke="#000000" stroke-width="0.398" fill="none" /><path id="145" transform="matrix(1 0 0 -1 0 841)" d="M97.393 432.865L492.552 432.865" stroke="#000000" stroke-width="0.398" fill="none" /><path id="146" transform="matrix(1 0 0 -1 0 841)" d="M97.194 419.515L97.194 433.064" stroke="#000000" stroke-width="0.398" fill="none" /><path id="152" transform="matrix(1 0 0 -1 0 841)" d="M139.842 419.515L139.842 433.064" stroke="#000000" stroke-width="0.398" fill="none" /><path id="197" transform="matrix(1 0 0 -1 0 841)" d="M492.353 419.515L492.353 433.064" stroke="#000000" stroke-width="0.398" fill="none" /><path id="198" transform="matrix(1 0 0 -1 0 841)" d="M97.393 419.316L492.552 419.316" stroke="#000000" stroke-width="0.398" fill="none" /><path id="199" transform="matrix(1 0 0 -1 0 841)" d="M97.194 405.966L97.194 419.515" stroke="#000000" stroke-width="0.398" fill="none" /><path id="205" transform="matrix(1 0 0 -1 0 841)" d="M139.842 405.966L139.842 419.515" stroke="#000000" stroke-width="0.398" fill="none" /><path id="243" transform="matrix(1 0 0 -1 0 841)" d="M492.353 405.966L492.353 419.515" stroke="#000000" stroke-width="0.398" fill="none" /><path id="244" transform="matrix(1 0 0 -1 0 841)" d="M97.393 405.767L492.552 405.767" stroke="#000000" stroke-width="0.398" fill="none" /><path id="245" transform="matrix(1 0 0 -1 0 841)" d="M97.194 392.417L97.194 405.966" stroke="#000000" stroke-width="0.398" fill="none" /><path id="251" transform="matrix(1 0 0 -1 0 841)" d="M139.842 392.417L139.842 405.966" stroke="#000000" stroke-width="0.398" fill="none" /><path id="286" transform="matrix(1 0 0 -1 0 841)" d="M492.353 392.417L492.353 405.966" stroke="#000000" stroke-width="0.398" fill="none" /><path id="287" transform="matrix(1 0 0 -1 0 841)" d="M97.393 392.218L492.552 392.218" stroke="#000000" stroke-width="0.398" fill="none" /><path id="288" transform="matrix(1 0 0 -1 0 841)" d="M97.194 378.868L97.194 392.417" stroke="#000000" stroke-width="0.398" fill="none" /><path id="294" transform="matrix(1 0 0 -1 0 841)" d="M139.842 378.868L139.842 392.417" stroke="#000000" stroke-width="0.398" fill="none" /><path id="327" transform="matrix(1 0 0 -1 0 841)" d="M492.353 378.868L492.353 392.417" stroke="#000000" stroke-width="0.398" fill="none" /><path id="328" transform="matrix(1 0 0 -1 0 841)" d="M97.393 378.669L492.552 378.669" stroke="#000000" stroke-width="0.398" fill="none" /><path id="329" transform="matrix(1 0 0 -1 0 841)" d="M97.194 365.319L97.194 378.868" stroke="#000000" stroke-width="0.398" fill="none" /><path id="335" transform="matrix(1 0 0 -1 0 841)" d="M139.842 365.319L139.842 378.868" stroke="#000000" stroke-width="0.398" fill="none" /><path id="380" transform="matrix(1 0 0 -1 0 841)" d="M492.353 365.319L492.353 378.868" stroke="#000000" stroke-width="0.398" fill="none" /><path id="381" transform="matrix(1 0 0 -1 0 841)" d="M97.393 365.119L492.552 365.119" stroke="#000000" stroke-width="0.398" fill="none" /><path id="382" transform="matrix(1 0 0 -1 0 841)" d="M97.194 351.77L97.194 365.319" stroke="#000000" stroke-width="0.398" fill="none" /><path id="388" transform="matrix(1 0 0 -1 0 841)" d="M139.842 351.77L139.842 365.319" stroke="#000000" stroke-width="0.398" fill="none" /><path id="422" transform="matrix(1 0 0 -1 0 841)" d="M492.353 351.77L492.353 365.319" stroke="#000000" stroke-width="0.398" fill="none" /><path id="423" transform="matrix(1 0 0 -1 0 841)" d="M97.393 351.57L492.552 351.57" stroke="#000000" stroke-width="0.398" fill="none" /><path id="424" transform="matrix(1 0 0 -1 0 841)" d="M97.194 338.22L97.194 351.769" stroke="#000000" stroke-width="0.398" fill="none" /><path id="430" transform="matrix(1 0 0 -1 0 841)" d="M139.842 338.22L139.842 351.769" stroke="#000000" stroke-width="0.398" fill="none" /><path id="453" transform="matrix(1 0 0 -1 0 841)" d="M492.353 338.22L492.353 351.769" stroke="#000000" stroke-width="0.398" fill="none" /><path id="454" transform="matrix(1 0 0 -1 0 841)" d="M97.393 338.021L492.552 338.021" stroke="#000000" stroke-width="0.398" fill="none" /><path id="455" transform="matrix(1 0 0 -1 0 841)" d="M97.194 324.671L97.194 338.22" stroke="#000000" stroke-width="0.398" fill="none" /><path id="461" transform="matrix(1 0 0 -1 0 841)" d="M139.842 324.671L139.842 338.22" stroke="#000000" stroke-width="0.398" fill="none" /><path id="500" transform="matrix(1 0 0 -1 0 841)" d="M492.353 324.671L492.353 338.22" stroke="#000000" stroke-width="0.398" fill="none" /><path id="501" transform="matrix(1 0 0 -1 0 841)" d="M97.393 324.472L492.552 324.472" stroke="#000000" stroke-width="0.398" fill="none" /><path id="502" transform="matrix(1 0 0 -1 0 841)" d="M97.194 311.122L97.194 324.671" stroke="#000000" stroke-width="0.398" fill="none" /><path id="508" transform="matrix(1 0 0 -1 0 841)" d="M139.842 311.122L139.842 324.671" stroke="#000000" stroke-width="0.398" fill="none" /><path id="544" transform="matrix(1 0 0 -1 0 841)" d="M492.353 311.122L492.353 324.671" stroke="#000000" stroke-width="0.398" fill="none" /><path id="545" transform="matrix(1 0 0 -1 0 841)" d="M97.393 310.923L492.552 310.923" stroke="#000000" stroke-width="0.398" fill="none" /><path id="546" transform="matrix(1 0 0 -1 0 841)" d="M97.194 297.573L97.194 311.122" stroke="#000000" stroke-width="0.398" fill="none" /><path id="552" transform="matrix(1 0 0 -1 0 841)" d="M139.842 297.573L139.842 311.122" stroke="#000000" stroke-width="0.398" fill="none" /><path id="588" transform="matrix(1 0 0 -1 0 841)" d="M492.353 297.573L492.353 311.122" stroke="#000000" stroke-width="0.398" fill="none" /><path id="589" transform="matrix(1 0 0 -1 0 841)" d="M97.393 297.374L492.552 297.374" stroke="#000000" stroke-width="0.398" fill="none" /><path id="590" transform="matrix(1 0 0 -1 0 841)" d="M97.194 284.024L97.194 297.573" stroke="#000000" stroke-width="0.398" fill="none" /><path id="596" transform="matrix(1 0 0 -1 0 841)" d="M139.842 284.024L139.842 297.573" stroke="#000000" stroke-width="0.398" fill="none" /><path id="639" transform="matrix(1 0 0 -1 0 841)" d="M492.353 284.024L492.353 297.573" stroke="#000000" stroke-width="0.398" fill="none" /><path id="640" transform="matrix(1 0 0 -1 0 841)" d="M97.393 283.824L492.552 283.824" stroke="#000000" stroke-width="0.398" fill="none" /><path id="641" transform="matrix(1 0 0 -1 0 841)" d="M97.194 270.474L97.194 284.023" stroke="#000000" stroke-width="0.398" fill="none" /><path id="647" transform="matrix(1 0 0 -1 0 841)" d="M139.842 270.474L139.842 284.023" stroke="#000000" stroke-width="0.398" fill="none" /><path id="685" transform="matrix(1 0 0 -1 0 841)" d="M492.353 270.474L492.353 284.023" stroke="#000000" stroke-width="0.398" fill="none" /><path id="686" transform="matrix(1 0 0 -1 0 841)" d="M97.393 270.275L492.552 270.275" stroke="#000000" stroke-width="0.398" fill="none" /><path id="687" transform="matrix(1 0 0 -1 0 841)" d="M97.194 256.925L97.194 270.474" stroke="#000000" stroke-width="0.398" fill="none" /><path id="693" transform="matrix(1 0 0 -1 0 841)" d="M139.842 256.925L139.842 270.474" stroke="#000000" stroke-width="0.398" fill="none" /><path id="720" transform="matrix(1 0 0 -1 0 841)" d="M492.353 256.925L492.353 270.474" stroke="#000000" stroke-width="0.398" fill="none" /><path id="721" transform="matrix(1 0 0 -1 0 841)" d="M97.393 256.726L492.552 256.726" stroke="#000000" stroke-width="0.398" fill="none" /><path id="722" transform="matrix(1 0 0 -1 0 841)" d="M97.194 243.376L97.194 256.925" stroke="#000000" stroke-width="0.398" fill="none" /><path id="728" transform="matrix(1 0 0 -1 0 841)" d="M139.842 243.376L139.842 256.925" stroke="#000000" stroke-width="0.398" fill="none" /><path id="785" transform="matrix(1 0 0 -1 0 841)" d="M492.353 243.376L492.353 256.925" stroke="#000000" stroke-width="0.398" fill="none" /><path id="786" transform="matrix(1 0 0 -1 0 841)" d="M97.393 243.177L492.552 243.177" stroke="#000000" stroke-width="0.398" fill="none" /><path id="787" transform="matrix(1 0 0 -1 0 841)" d="M97.194 229.827L97.194 243.376" stroke="#000000" stroke-width="0.398" fill="none" /><path id="793" transform="matrix(1 0 0 -1 0 841)" d="M139.842 229.827L139.842 243.376" stroke="#000000" stroke-width="0.398" fill="none" /><path id="843" transform="matrix(1 0 0 -1 0 841)" d="M492.353 229.827L492.353 243.376" stroke="#000000" stroke-width="0.398" fill="none" /><path id="844" transform="matrix(1 0 0 -1 0 841)" d="M97.393 229.628L492.552 229.628" stroke="#000000" stroke-width="0.398" fill="none" /><path id="845" transform="matrix(1 0 0 -1 0 841)" d="M97.194 216.278L97.194 229.827" stroke="#000000" stroke-width="0.398" fill="none" /><path id="851" transform="matrix(1 0 0 -1 0 841)" d="M139.842 216.278L139.842 229.827" stroke="#000000" stroke-width="0.398" fill="none" /><path id="896" transform="matrix(1 0 0 -1 0 841)" d="M492.353 216.278L492.353 229.827" stroke="#000000" stroke-width="0.398" fill="none" /><path id="897" transform="matrix(1 0 0 -1 0 841)" d="M97.393 216.078L492.552 216.078" stroke="#000000" stroke-width="0.398" fill="none" /><path id="898" transform="matrix(1 0 0 -1 0 841)" d="M97.194 202.729L97.194 216.278" stroke="#000000" stroke-width="0.398" fill="none" /><path id="904" transform="matrix(1 0 0 -1 0 841)" d="M139.842 202.729L139.842 216.278" stroke="#000000" stroke-width="0.398" fill="none" /><path id="954" transform="matrix(1 0 0 -1 0 841)" d="M492.353 202.729L492.353 216.278" stroke="#000000" stroke-width="0.398" fill="none" /><path id="955" transform="matrix(1 0 0 -1 0 841)" d="M97.393 202.529L492.552 202.529" stroke="#000000" stroke-width="0.398" fill="none" /><path id="956" transform="matrix(1 0 0 -1 0 841)" d="M97.194 189.179L97.194 202.728" stroke="#000000" stroke-width="0.398" fill="none" /><path id="962" transform="matrix(1 0 0 -1 0 841)" d="M139.842 189.179L139.842 202.728" stroke="#000000" stroke-width="0.398" fill="none" /><path id="1006" transform="matrix(1 0 0 -1 0 841)" d="M492.353 189.179L492.353 202.728" stroke="#000000" stroke-width="0.398" fill="none" /><path id="1007" transform="matrix(1 0 0 -1 0 841)" d="M97.393 188.98L492.552 188.98" stroke="#000000" stroke-width="0.398" fill="none" /><path id="1008" transform="matrix(1 0 0 -1 0 841)" d="M97.194 175.63L97.194 189.179" stroke="#000000" stroke-width="0.398" fill="none" /><path id="1014" transform="matrix(1 0 0 -1 0 841)" d="M139.842 175.63L139.842 189.179" stroke="#000000" stroke-width="0.398" fill="none" /><path id="1052" transform="matrix(1 0 0 -1 0 841)" d="M492.353 175.63L492.353 189.179" stroke="#000000" stroke-width="0.398" fill="none" /><path id="1053" transform="matrix(1 0 0 -1 0 841)" d="M97.393 175.431L492.552 175.431" stroke="#000000" stroke-width="0.398" fill="none" /><path id="1054" transform="matrix(1 0 0 -1 0 841)" d="M97.194 162.081L97.194 175.63" stroke="#000000" stroke-width="0.398" fill="none" /><path id="1060" transform="matrix(1 0 0 -1 0 841)" d="M139.842 162.081L139.842 175.63" stroke="#000000" stroke-width="0.398" fill="none" /><path id="1086" transform="matrix(1 0 0 -1 0 841)" d="M492.353 162.081L492.353 175.63" stroke="#000000" stroke-width="0.398" fill="none" /><path id="1087" transform="matrix(1 0 0 -1 0 841)" d="M97.393 161.882L492.552 161.882" stroke="#000000" stroke-width="0.398" fill="none" /><path id="1088" transform="matrix(1 0 0 -1 0 841)" d="M97.194 148.532L97.194 162.081" stroke="#000000" stroke-width="0.398" fill="none" /><path id="1094" transform="matrix(1 0 0 -1 0 841)" d="M139.842 148.532L139.842 162.081" stroke="#000000" stroke-width="0.398" fill="none" /><path id="1141" transform="matrix(1 0 0 -1 0 841)" d="M492.353 148.532L492.353 162.081" stroke="#000000" stroke-width="0.398" fill="none" /><path id="1142" transform="matrix(1 0 0 -1 0 841)" d="M97.393 148.333L492.552 148.333" stroke="#000000" stroke-width="0.398" fill="none" /><path id="1143" transform="matrix(1 0 0 -1 0 841)" d="M97.194 134.983L97.194 148.532" stroke="#000000" stroke-width="0.398" fill="none" /><path id="1149" transform="matrix(1 0 0 -1 0 841)" d="M139.842 134.983L139.842 148.532" stroke="#000000" stroke-width="0.398" fill="none" /><path id="1184" transform="matrix(1 0 0 -1 0 841)" d="M492.353 134.983L492.353 148.532" stroke="#000000" stroke-width="0.398" fill="none" /><path id="1185" transform="matrix(1 0 0 -1 0 841)" d="M97.393 134.783L492.552 134.783" stroke="#000000" stroke-width="0.398" fill="none" /><path id="1186" transform="matrix(1 0 0 -1 0 841)" d="M97.194 121.433L97.194 134.982" stroke="#000000" stroke-width="0.398" fill="none" /><path id="1192" transform="matrix(1 0 0 -1 0 841)" d="M139.842 121.433L139.842 134.982" stroke="#000000" stroke-width="0.398" fill="none" /><path id="1229" transform="matrix(1 0 0 -1 0 841)" d="M492.353 121.433L492.353 134.982" stroke="#000000" stroke-width="0.398" fill="none" /><path id="1230" transform="matrix(1 0 0 -1 0 841)" d="M97.393 121.234L492.552 121.234" stroke="#000000" stroke-width="0.398" fill="none" /><path id="1231" transform="matrix(1 0 0 -1 0 841)" d="M97.194 107.884L97.194 121.433" stroke="#000000" stroke-width="0.398" fill="none" /><path id="1237" transform="matrix(1 0 0 -1 0 841)" d="M139.842 107.884L139.842 121.433" stroke="#000000" stroke-width="0.398" fill="none" /><path id="1280" transform="matrix(1 0 0 -1 0 841)" d="M492.353 107.884L492.353 121.433" stroke="#000000" stroke-width="0.398" fill="none" /><path id="1281" transform="matrix(1 0 0 -1 0 841)" d="M97.393 107.685L492.552 107.685" stroke="#000000" stroke-width="0.398" fill="none" /></g></g></svg>