<svg xmlns="http://www.w3.org/2000/svg" xmlns:xlink="http://www.w3.org/1999/xlink" id="body_176" preserveAspectRatio="xMinYMin meet" viewBox="0 0 793 1121"><defs><clipPath id="1"><path id="" clip-rule="evenodd" transform="matrix(1 0 0 1 0 0)" d="M0 841L0 -0.8900146L0 -0.8900146L595.276 -0.8900146L595.276 -0.8900146L595.276 841L595.276 841L0 841z" /></clipPath></defs><g transform="matrix(1.333333 0 0 1.333333 0 0)"><g clip-path="url(#1)"><path id="26" transform="matrix(1 0 0 -1 0 841)" d="M85.039 766.564L510.236 766.564" stroke="#000000" stroke-width="0.498" fill="none" /><path id="27" transform="matrix(1 0 0 -1 0 841)" d="M85.039 342.372L85.039 756.856L85.039 756.856L510.2413 756.856L510.2413 756.856L510.2413 342.372C 510.2413 340.0236 508.3377 338.12 505.9893 338.12L505.9893 338.12L89.29099 338.12C 86.94264 338.12 85.039 340.0236 85.039 342.372z" stroke="none" fill="#BFBFFF" fill-rule="nonzero" /><path id="28" transform="matrix(1 0 0 -1 0 841)" d="M86.45631 342.372L86.45631 756.856L86.45631 756.856L508.824 756.856L508.824 756.856L508.824 342.372C 508.824 340.8064 507.5549 339.5373 505.9893 339.5373L505.9893 339.5373L89.29099 339.5373C 87.72543 339.5373 86.45631 340.8064 86.45631 342.372z" stroke="none" fill="#E6E6FF" fill-rule="nonzero" /><path id="168" transform="matrix(1 0 0 -1 0 841)" d="M380.914 671.936L437.607 671.936" stroke="#000000" stroke-width="0.299" fill="none" /><path id="270" transform="matrix(1 0 0 -1 0 841)" d="M322.115 587.254L378.808 587.254" stroke="#000000" stroke-width="0.299" fill="none" /><path id="478" transform="matrix(1 0 0 -1 0 841)" d="M281.031 417.989L309.377 417.989" stroke="#000000" stroke-width="0.498" fill="none" /></g></g></svg>