<svg xmlns="http://www.w3.org/2000/svg" xmlns:xlink="http://www.w3.org/1999/xlink" id="body_336" preserveAspectRatio="xMinYMin meet" viewBox="0 0 793 1121"><defs><clipPath id="1"><path id="" clip-rule="evenodd" transform="matrix(1 0 0 1 0 0)" d="M0 841L0 -0.8900146L0 -0.8900146L595.276 -0.8900146L595.276 -0.8900146L595.276 841L595.276 841L0 841z" /></clipPath></defs><g transform="matrix(1.333333 0 0 1.333333 0 0)"><g clip-path="url(#1)"><path id="23" transform="matrix(1 0 0 -1 0 841)" d="M85.039 766.564L510.236 766.564" stroke="#000000" stroke-width="0.498" fill="none" /><path id="67" transform="matrix(1 0 0 -1 0 841)" d="M154.711 706.242L167.681 706.242" stroke="#000000" stroke-width="0.436" fill="none" /><path id="90" transform="matrix(1 0 0 -1 0 841)" d="M252.711 706.242L287.26 706.242" stroke="#000000" stroke-width="0.436" fill="none" /><path id="107" transform="matrix(1 0 0 -1 0 841)" d="M301.78 714.001L351.58 714.001" stroke="#000000" stroke-width="0.398" fill="none" /><path id="108" transform="matrix(1 0 0 -1 0 841)" d="M301.979 700.086L301.979 714" stroke="#000000" stroke-width="0.398" fill="none" /><path id="109" transform="matrix(1 0 0 -1 0 841)" d="M351.381 700.086L351.381 714" stroke="#000000" stroke-width="0.398" fill="none" /><path id="110" transform="matrix(1 0 0 -1 0 841)" d="M301.78 700.087L351.58 700.087" stroke="#000000" stroke-width="0.398" fill="none" /><path id="246" transform="matrix(1 0 0 -1 0 841)" d="M169.861 601.645L212.886 601.645" stroke="#000000" stroke-width="0.436" fill="none" /><path id="269" transform="matrix(1 0 0 -1 0 841)" d="M296.106 609.557L337.429 609.557" stroke="#000000" stroke-width="0.398" fill="none" /><path id="270" transform="matrix(1 0 0 -1 0 841)" d="M296.305 595.561L296.305 609.5569" stroke="#000000" stroke-width="0.398" fill="none" /><path id="271" transform="matrix(1 0 0 -1 0 841)" d="M337.23 595.561L337.23 609.5569" stroke="#000000" stroke-width="0.398" fill="none" /><path id="272" transform="matrix(1 0 0 -1 0 841)" d="M296.106 595.561L337.429 595.561" stroke="#000000" stroke-width="0.398" fill="none" /><path id="440" transform="matrix(1 0 0 -1 0 841)" d="M389.714 530.32L416.485 530.32" stroke="#000000" stroke-width="0.398" fill="none" /><path id="441" transform="matrix(1 0 0 -1 0 841)" d="M389.913 516.52L389.913 530.32" stroke="#000000" stroke-width="0.398" fill="none" /><path id="442" transform="matrix(1 0 0 -1 0 841)" d="M416.285 516.52L416.285 530.32" stroke="#000000" stroke-width="0.398" fill="none" /><path id="443" transform="matrix(1 0 0 -1 0 841)" d="M389.714 516.52L416.485 516.52" stroke="#000000" stroke-width="0.398" fill="none" /><path id="609" transform="matrix(1 0 0 -1 0 841)" d="M243.507 343.462C 299.6335 442.6758 300.7677 442.6758 356.8942 343.462" stroke="#000000" stroke-width="0.3985" fill="none" /><path id="610" transform="matrix(1 0 0 -1 0 841)" d="M279.9009 421.1467C 279.9009 420.0255 288.9893 419.1166 300.2006 419.1166C 311.4119 419.1166 320.5003 420.0255 320.5003 421.1467L320.5003 421.1467L320.5003 439.2468C 320.5003 438.1256 311.4119 437.2167 300.2006 437.2167C 288.9893 437.2167 279.9009 438.1256 279.9009 439.2468z" stroke="none" fill="#E6E6FF" fill-rule="nonzero" /><path id="611" transform="matrix(1 0 0 -1 0 841)" d="M279.9009 439.2468C 279.9009 440.368 288.9893 441.2769 300.2006 441.2769C 311.4119 441.2769 320.5003 440.368 320.5003 439.2468C 320.5003 438.1256 311.4119 437.2167 300.2006 437.2167C 288.9893 437.2167 279.9009 438.1256 279.9009 439.2468z" stroke="none" fill="#F6ADCE" fill-rule="nonzero" /><path id="612" transform="matrix(1 0 0 -1 0 841)" d="M279.9009 439.2468C 279.9009 438.1256 288.9893 437.2167 300.2006 437.2167C 311.4119 437.2167 320.5003 438.1256 320.5003 439.2468M279.9009 421.1467C 279.9009 420.0255 288.9893 419.1166 300.2006 419.1166C 311.4119 419.1166 320.5003 420.0255 320.5003 421.1467L320.5003 421.1467L320.5003 439.2468C 320.5003 440.368 311.4119 441.2769 300.2006 441.2769C 288.9893 441.2769 279.9009 440.368 279.9009 439.2468z" stroke="#800080" stroke-width="0.3985" fill="none" /><path id="620" transform="matrix(1 0 0 -1 0 841)" d="M280.1322 436.5865C 280.1322 435.4781 289.117 434.5795 300.2006 434.5795C 311.2842 434.5795 320.2691 435.4781 320.2691 436.5865L320.2691 436.5865L320.2691 452.1234C 320.2691 451.015 311.2842 450.1165 300.2006 450.1165C 289.117 450.1165 280.1322 451.015 280.1322 452.1234z" stroke="none" fill="#FFFFFF" fill-rule="nonzero" /><path id="621" transform="matrix(1 0 0 -1 0 841)" d="M280.1322 452.1234C 280.1322 453.2319 289.117 454.1304 300.2006 454.1304C 311.2842 454.1304 320.2691 453.2319 320.2691 452.1234C 320.2691 451.015 311.2842 450.1165 300.2006 450.1165C 289.117 450.1165 280.1322 451.015 280.1322 452.1234z" stroke="none" fill="#FFFFFF" fill-rule="nonzero" /><path id="622" transform="matrix(1 0 0 -1 0 841)" d="M280.1322 452.1234C 280.1322 451.015 289.117 450.1165 300.2006 450.1165C 311.2842 450.1165 320.2691 451.015 320.2691 452.1234M280.1322 436.5865C 280.1322 435.4781 289.117 434.5795 300.2006 434.5795C 311.2842 434.5795 320.2691 435.4781 320.2691 436.5865L320.2691 436.5865L320.2691 452.1234C 320.2691 453.2319 311.2842 454.1304 300.2006 454.1304C 289.117 454.1304 280.1322 453.2319 280.1322 452.1234z" stroke="#800080" stroke-width="0.3985" fill="none" /><g transform="matrix(0.1466 0 0 0.1466 115.948 466.3378)"><g transform="matrix(1 0 0 1 0 0)"><image x="0" y="0" xlink:href="img_476.png" width="580" height="387" /></g></g><g transform="matrix(0.18834 0 0 0.18834 130.121 504.4892)"><g transform="matrix(1 0 0 1 0 0)"><image x="0" y="0" xlink:href="img_477.png" width="301" height="167" /></g></g><path id="630" transform="matrix(1 0 0 -1 0 841)" d="M158.4666 317.9501L158.4666 343.462" stroke="#000000" stroke-width="1.59404" fill="none" /><path id="631" transform="matrix(1 0 0 -1 0 841)" d="M150.5295 361.3206L150.5295 431.3373" stroke="#000000" stroke-width="1.59404" fill="none" /><path id="632" transform="matrix(1 0 0 -1 0 841)" d="M150.5295 431.3373L275.929 431.3373" stroke="#000000" stroke-width="1.59404" fill="none" /><path id="633" transform="matrix(1 0 0 -1 0 841)" d="M273.2191 435.888C 273.8598 433.1575 275.2876 431.8682 276.726 431.3372C 275.2876 430.8063 273.8598 429.517 273.2191 426.7865" stroke="#000000" stroke-width="1.59404" stroke-linecap="round" fill="none" /><path id="634" transform="matrix(1 0 0 -1 0 841)" d="M150.5295 431.3373L275.929 431.3373" stroke="#000000" stroke-width="1.59404" fill="none" /><path id="635" transform="matrix(1 0 0 -1 0 841)" d="M273.2191 435.888C 273.8598 433.1575 275.2876 431.8682 276.726 431.3372C 275.2876 430.8063 273.8598 429.517 273.2191 426.7865" stroke="#000000" stroke-width="1.59404" stroke-linecap="round" fill="none" /><path id="636" transform="matrix(1 0 0 -1 0 841)" d="M192.4827 315.1152L314.374 315.1152" stroke="#000000" stroke-width="0.3985" stroke-dasharray="7.500201,7.500201" fill="none" /><path id="637" transform="matrix(1 0 0 -1 0 841)" d="M300.2006 315.5137L300.2006 435.1906" stroke="#000000" stroke-width="0.3985" fill="none" /><path id="638" transform="matrix(1 0 0 -1 0 841)" d="M302.5917 317.3867C 301.157 317.0081 300.4796 316.1644 300.2006 315.3145C 299.9217 316.1644 299.2442 317.0081 297.8096 317.3867" stroke="#000000" stroke-width="0.3985" stroke-linecap="round" fill="none" /><path id="639" transform="matrix(1 0 0 -1 0 841)" d="M297.8096 433.3176C 299.2442 433.6962 299.9217 434.5399 300.2006 435.3899C 300.4796 434.5399 301.157 433.6962 302.5917 433.3176" stroke="#000000" stroke-width="0.3985" stroke-linecap="round" fill="none" /><path id="720" transform="matrix(1 0 0 -1 0 841)" d="M206.449 242.002L277.836 242.002" stroke="#000000" stroke-width="0.436" fill="none" /><path id="747" transform="matrix(1 0 0 -1 0 841)" d="M292.356 249.913L394.294 249.913" stroke="#000000" stroke-width="0.398" fill="none" /><path id="748" transform="matrix(1 0 0 -1 0 841)" d="M292.555 233.861L292.555 249.913" stroke="#000000" stroke-width="0.398" fill="none" /><path id="749" transform="matrix(1 0 0 -1 0 841)" d="M394.095 233.861L394.095 249.913" stroke="#000000" stroke-width="0.398" fill="none" /><path id="750" transform="matrix(1 0 0 -1 0 841)" d="M292.356 233.861L394.294 233.861" stroke="#000000" stroke-width="0.398" fill="none" /><path id="913" transform="matrix(1 0 0 -1 0 841)" d="M201.267 144.761L272.654 144.761" stroke="#000000" stroke-width="0.436" fill="none" /><path id="940" transform="matrix(1 0 0 -1 0 841)" d="M287.174 152.52L389.112 152.52" stroke="#000000" stroke-width="0.398" fill="none" /><path id="941" transform="matrix(1 0 0 -1 0 841)" d="M287.373 136.621L287.373 152.521" stroke="#000000" stroke-width="0.398" fill="none" /><path id="942" transform="matrix(1 0 0 -1 0 841)" d="M388.913 136.621L388.913 152.521" stroke="#000000" stroke-width="0.398" fill="none" /><path id="943" transform="matrix(1 0 0 -1 0 841)" d="M287.174 136.621L389.112 136.621" stroke="#000000" stroke-width="0.398" fill="none" /><path id="984" transform="matrix(1 0 0 -1 0 841)" d="M172.203 97.225L191.588 97.225" stroke="#000000" stroke-width="0.436" fill="none" /><path id="1002" transform="matrix(1 0 0 -1 0 841)" d="M206.108 105.197L298.61 105.197" stroke="#000000" stroke-width="0.398" fill="none" /><path id="1003" transform="matrix(1 0 0 -1 0 841)" d="M206.307 89.085L206.307 105.197" stroke="#000000" stroke-width="0.398" fill="none" /><path id="1004" transform="matrix(1 0 0 -1 0 841)" d="M298.411 89.085L298.411 105.197" stroke="#000000" stroke-width="0.398" fill="none" /><path id="1005" transform="matrix(1 0 0 -1 0 841)" d="M206.108 89.085L298.61 89.085" stroke="#000000" stroke-width="0.398" fill="none" /></g></g></svg>