<svg xmlns="http://www.w3.org/2000/svg" xmlns:xlink="http://www.w3.org/1999/xlink" id="body_186" preserveAspectRatio="xMinYMin meet" viewBox="0 0 793 1121"><defs><clipPath id="1"><path id="" clip-rule="evenodd" transform="matrix(1 0 0 1 0 0)" d="M0 841L0 -0.8900146L0 -0.8900146L595.276 -0.8900146L595.276 -0.8900146L595.276 841L595.276 841L0 841z" /></clipPath></defs><g transform="matrix(1.333333 0 0 1.333333 0 0)"><g clip-path="url(#1)"><path id="29" transform="matrix(1 0 0 -1 0 841)" d="M85.039 766.564L510.236 766.564" stroke="#000000" stroke-width="0.498" fill="none" /><path id="262" transform="matrix(1 0 0 -1 0 841)" d="M399.948 667.31L424.991 667.31L424.991 679.583L399.948 679.583z" stroke="none" fill="#FFF100" fill-rule="nonzero" /><path id="268" transform="matrix(1 0 0 -1 0 841)" d="M425.233 667.31L428.205 667.31L428.205 679.583L425.233 679.583z" stroke="none" fill="#FFF100" fill-rule="nonzero" /><path id="269" transform="matrix(1 0 0 -1 0 841)" d="M427.956 667.31L448.461 667.31L448.461 679.583L427.956 679.583z" stroke="none" fill="#FFF100" fill-rule="nonzero" /><path id="274" transform="matrix(1 0 0 -1 0 841)" d="M448.612 667.31L451.584 667.31L451.584 679.583L448.612 679.583z" stroke="none" fill="#FFF100" fill-rule="nonzero" /><path id="275" transform="matrix(1 0 0 -1 0 841)" d="M451.336 667.31L467.587 667.31L467.587 679.583L451.336 679.583z" stroke="none" fill="#FFF100" fill-rule="nonzero" /><path id="279" transform="matrix(1 0 0 -1 0 841)" d="M467.652 667.31L470.624 667.31L470.624 679.583L467.652 679.583z" stroke="none" fill="#FFF100" fill-rule="nonzero" /><path id="280" transform="matrix(1 0 0 -1 0 841)" d="M470.376 667.31L490.27 667.31L490.27 679.583L470.376 679.583z" stroke="none" fill="#FFF100" fill-rule="nonzero" /><path id="284" transform="matrix(1 0 0 -1 0 841)" d="M490.409 667.31L493.381 667.31L493.381 679.583L490.409 679.583z" stroke="none" fill="#FFF100" fill-rule="nonzero" /><path id="285" transform="matrix(1 0 0 -1 0 841)" d="M493.132 667.31L506.95 667.31L506.95 679.583L493.132 679.583z" stroke="none" fill="#FFF100" fill-rule="nonzero" /><path id="289" transform="matrix(1 0 0 -1 0 841)" d="M112.063 650.373L127.714 650.373L127.714 662.646L112.063 662.646z" stroke="none" fill="#FFF100" fill-rule="nonzero" /><path id="293" transform="matrix(1 0 0 -1 0 841)" d="M127.216 650.373L143.914 650.373L143.914 662.646L127.216 662.646z" stroke="none" fill="#FFF100" fill-rule="nonzero" /><path id="297" transform="matrix(1 0 0 -1 0 841)" d="M143.416 650.373L170.281 650.373L170.281 662.646L143.416 662.646z" stroke="none" fill="#FFF100" fill-rule="nonzero" /><path id="474" transform="matrix(1 0 0 -1 0 841)" d="M196.108 570.615L242.757 570.615" stroke="#000000" stroke-width="0.436" fill="none" /><path id="587" transform="matrix(1 0 0 -1 0 841)" d="M286.421 525.096L299.752 525.096" stroke="#000000" stroke-width="0.436" fill="none" /><path id="619" transform="matrix(1 0 0 -1 0 841)" d="M289.716 504.37L303.047 504.37" stroke="#000000" stroke-width="0.436" fill="none" /><path id="650" transform="matrix(1 0 0 -1 0 841)" d="M285.482 483.645L298.813 483.645" stroke="#000000" stroke-width="0.436" fill="none" /><path id="683" transform="matrix(1 0 0 -1 0 841)" d="M297.33 462.92L310.661 462.92" stroke="#000000" stroke-width="0.436" fill="none" /><path id="714" transform="matrix(1 0 0 -1 0 841)" d="M286.694 442.195L300.025 442.195" stroke="#000000" stroke-width="0.436" fill="none" /><path id="749" transform="matrix(1 0 0 -1 0 841)" d="M305.807 421.47L319.138 421.47" stroke="#000000" stroke-width="0.436" fill="none" /><path id="1486" transform="matrix(1 0 0 -1 0 841)" d="M134.354 92.133L249.738 92.133" stroke="#000000" stroke-width="0.436" fill="none" /><path id="1545" transform="matrix(1 0 0 -1 0 841)" d="M316.056 92.133L431.44 92.133" stroke="#000000" stroke-width="0.436" fill="none" /></g></g></svg>