<svg xmlns="http://www.w3.org/2000/svg" xmlns:xlink="http://www.w3.org/1999/xlink" id="body_50" preserveAspectRatio="xMinYMin meet" viewBox="0 0 793 1121"><defs><clipPath id="1"><path id="" clip-rule="evenodd" transform="matrix(1 0 0 1 0 0)" d="M0 841L0 -0.8900146L0 -0.8900146L595.276 -0.8900146L595.276 -0.8900146L595.276 841L595.276 841L0 841z" /></clipPath></defs><g transform="matrix(1.333333 0 0 1.333333 0 0)"><g clip-path="url(#1)"><path id="27" transform="matrix(1 0 0 -1 0 841)" d="M85.039 766.564L510.236 766.564" stroke="#000000" stroke-width="0.498" fill="none" /><path id="61" transform="matrix(1 0 0 -1 0 841)" d="M161.693 718.308L167.148 718.308" stroke="#000000" stroke-width="0.436" fill="none" /><path id="139" transform="matrix(1 0 0 -1 0 841)" d="M134.628 666.394L140.083 666.394" stroke="#000000" stroke-width="0.436" fill="none" /><path id="143" transform="matrix(1 0 0 -1 0 841)" d="M153.98 666.394L159.435 666.394" stroke="#000000" stroke-width="0.436" fill="none" /><path id="157" transform="matrix(1 0 0 -1 0 841)" d="M154.427 643.149L159.882 643.149" stroke="#000000" stroke-width="0.436" fill="none" /><path id="161" transform="matrix(1 0 0 -1 0 841)" d="M170.757 643.149L181.666 643.149" stroke="#000000" stroke-width="0.436" fill="none" /><path id="293" transform="matrix(1 0 0 -1 0 841)" d="M190.198 568.476L220.492 568.476" stroke="#000000" stroke-width="0.436" fill="none" /><path id="513" transform="matrix(1 0 0 -1 0 841)" d="M112.312 316.62L228.344 316.62" stroke="#000000" stroke-width="0.398" fill="none" /><path id="514" transform="matrix(1 0 0 -1 0 841)" d="M112.511 299.484L112.511 316.42" stroke="#000000" stroke-width="0.398" fill="none" /><path id="521" transform="matrix(1 0 0 -1 0 841)" d="M174.883 299.484L174.883 316.42" stroke="#000000" stroke-width="0.398" fill="none" /><path id="530" transform="matrix(1 0 0 -1 0 841)" d="M228.145 299.484L228.145 316.42" stroke="#000000" stroke-width="0.398" fill="none" /><path id="531" transform="matrix(1 0 0 -1 0 841)" d="M112.312 299.285L228.344 299.285" stroke="#000000" stroke-width="0.398" fill="none" /><path id="532" transform="matrix(1 0 0 -1 0 841)" d="M112.511 282.149L112.511 299.085" stroke="#000000" stroke-width="0.398" fill="none" /><path id="540" transform="matrix(1 0 0 -1 0 841)" d="M174.883 282.149L174.883 299.085" stroke="#000000" stroke-width="0.398" fill="none" /><path id="549" transform="matrix(1 0 0 -1 0 841)" d="M228.145 282.149L228.145 299.085" stroke="#000000" stroke-width="0.398" fill="none" /><path id="550" transform="matrix(1 0 0 -1 0 841)" d="M112.312 281.95L228.344 281.95" stroke="#000000" stroke-width="0.398" fill="none" /><path id="551" transform="matrix(1 0 0 -1 0 841)" d="M112.511 264.814L112.511 281.75" stroke="#000000" stroke-width="0.398" fill="none" /><path id="561" transform="matrix(1 0 0 -1 0 841)" d="M174.883 264.814L174.883 281.75" stroke="#000000" stroke-width="0.398" fill="none" /><path id="570" transform="matrix(1 0 0 -1 0 841)" d="M228.145 264.814L228.145 281.75" stroke="#000000" stroke-width="0.398" fill="none" /><path id="571" transform="matrix(1 0 0 -1 0 841)" d="M112.312 264.615L228.344 264.615" stroke="#000000" stroke-width="0.398" fill="none" /><path id="572" transform="matrix(1 0 0 -1 0 841)" d="M112.511 247.479L112.511 264.415" stroke="#000000" stroke-width="0.398" fill="none" /><path id="581" transform="matrix(1 0 0 -1 0 841)" d="M174.883 247.479L174.883 264.415" stroke="#000000" stroke-width="0.398" fill="none" /><path id="590" transform="matrix(1 0 0 -1 0 841)" d="M228.145 247.479L228.145 264.415" stroke="#000000" stroke-width="0.398" fill="none" /><path id="591" transform="matrix(1 0 0 -1 0 841)" d="M112.312 247.28L228.344 247.28" stroke="#000000" stroke-width="0.398" fill="none" /><path id="592" transform="matrix(1 0 0 -1 0 841)" d="M112.511 230.144L112.511 247.08" stroke="#000000" stroke-width="0.398" fill="none" /><path id="599" transform="matrix(1 0 0 -1 0 841)" d="M174.883 230.144L174.883 247.08" stroke="#000000" stroke-width="0.398" fill="none" /><path id="608" transform="matrix(1 0 0 -1 0 841)" d="M228.145 230.144L228.145 247.08" stroke="#000000" stroke-width="0.398" fill="none" /><path id="609" transform="matrix(1 0 0 -1 0 841)" d="M112.312 229.945L228.344 229.945" stroke="#000000" stroke-width="0.398" fill="none" /><path id="610" transform="matrix(1 0 0 -1 0 841)" d="M112.511 212.809L112.511 229.745" stroke="#000000" stroke-width="0.398" fill="none" /><path id="619" transform="matrix(1 0 0 -1 0 841)" d="M174.883 212.809L174.883 229.745" stroke="#000000" stroke-width="0.398" fill="none" /><path id="628" transform="matrix(1 0 0 -1 0 841)" d="M228.145 212.809L228.145 229.745" stroke="#000000" stroke-width="0.398" fill="none" /><path id="629" transform="matrix(1 0 0 -1 0 841)" d="M112.312 212.61L228.344 212.61" stroke="#000000" stroke-width="0.398" fill="none" /><path id="630" transform="matrix(1 0 0 -1 0 841)" d="M112.511 195.474L112.511 212.41" stroke="#000000" stroke-width="0.398" fill="none" /><path id="637" transform="matrix(1 0 0 -1 0 841)" d="M174.883 195.474L174.883 212.41" stroke="#000000" stroke-width="0.398" fill="none" /><path id="646" transform="matrix(1 0 0 -1 0 841)" d="M228.145 195.474L228.145 212.41" stroke="#000000" stroke-width="0.398" fill="none" /><path id="647" transform="matrix(1 0 0 -1 0 841)" d="M112.312 195.275L228.344 195.275" stroke="#000000" stroke-width="0.398" fill="none" /></g></g></svg>