<svg xmlns="http://www.w3.org/2000/svg" xmlns:xlink="http://www.w3.org/1999/xlink" id="body_221" preserveAspectRatio="xMinYMin meet" viewBox="0 0 793 1121"><defs><clipPath id="1"><path id="" clip-rule="evenodd" transform="matrix(1 0 0 1 0 0)" d="M0 841L0 -0.8900146L0 -0.8900146L595.276 -0.8900146L595.276 -0.8900146L595.276 841L595.276 841L0 841z" /></clipPath></defs><g transform="matrix(1.333333 0 0 1.333333 0 0)"><g clip-path="url(#1)"><path id="29" transform="matrix(1 0 0 -1 0 841)" d="M85.039 766.564L510.236 766.564" stroke="#000000" stroke-width="0.498" fill="none" /><path id="601" transform="matrix(1 0 0 -1 0 841)" d="M113.169 567.648L200.549 567.648" stroke="#000000" stroke-width="0.436" fill="none" /><path id="645" transform="matrix(1 0 0 -1 0 841)" d="M266.867 567.648L365.156 567.648" stroke="#000000" stroke-width="0.436" fill="none" /><path id="653" transform="matrix(1 0 0 -1 0 841)" d="M84.79 541.441L109.528 541.441L109.528 553.714L84.79 553.714z" stroke="none" fill="#FFF100" fill-rule="nonzero" /><path id="659" transform="matrix(1 0 0 -1 0 841)" d="M109.764 541.441L112.545 541.441L112.545 553.714L109.764 553.714z" stroke="none" fill="#FFF100" fill-rule="nonzero" /><path id="660" transform="matrix(1 0 0 -1 0 841)" d="M112.295 541.441L132.189 541.441L132.189 553.714L112.295 553.714z" stroke="none" fill="#FFF100" fill-rule="nonzero" /><path id="665" transform="matrix(1 0 0 -1 0 841)" d="M132.328 541.441L135.109 541.441L135.109 553.714L132.328 553.714z" stroke="none" fill="#FFF100" fill-rule="nonzero" /><path id="666" transform="matrix(1 0 0 -1 0 841)" d="M134.86 541.441L153.532 541.441L153.532 553.714L134.86 553.714z" stroke="none" fill="#FFF100" fill-rule="nonzero" /><path id="671" transform="matrix(1 0 0 -1 0 841)" d="M153.398 541.441L175.103 541.441L175.103 553.714L153.398 553.714z" stroke="none" fill="#FFF100" fill-rule="nonzero" /><path id="677" transform="matrix(1 0 0 -1 0 841)" d="M175.029 541.441L196.123 541.441L196.123 553.714L175.029 553.714z" stroke="none" fill="#FFF100" fill-rule="nonzero" /><path id="682" transform="matrix(1 0 0 -1 0 841)" d="M196.286 541.441L199.067 541.441L199.067 553.714L196.286 553.714z" stroke="none" fill="#FFF100" fill-rule="nonzero" /><path id="683" transform="matrix(1 0 0 -1 0 841)" d="M198.818 541.441L216.29 541.441L216.29 553.714L198.818 553.714z" stroke="none" fill="#FFF100" fill-rule="nonzero" /><path id="688" transform="matrix(1 0 0 -1 0 841)" d="M216.38 541.441L219.161 541.441L219.161 553.714L216.38 553.714z" stroke="none" fill="#FFF100" fill-rule="nonzero" /><path id="689" transform="matrix(1 0 0 -1 0 841)" d="M218.912 541.441L227.897 541.441L227.897 553.714L218.912 553.714z" stroke="none" fill="#FFF100" fill-rule="nonzero" /><path id="692" transform="matrix(1 0 0 -1 0 841)" d="M227.569 541.441L251.696 541.441L251.696 553.714L227.569 553.714z" stroke="none" fill="#FFF100" fill-rule="nonzero" /><path id="698" transform="matrix(1 0 0 -1 0 841)" d="M251.919 541.441L254.7 541.441L254.7 553.714L251.919 553.714z" stroke="none" fill="#FFF100" fill-rule="nonzero" /><path id="699" transform="matrix(1 0 0 -1 0 841)" d="M254.451 541.441L268.28 541.441L268.28 553.714L254.451 553.714z" stroke="none" fill="#FFF100" fill-rule="nonzero" /><path id="703" transform="matrix(1 0 0 -1 0 841)" d="M268.297 541.441L271.078 541.441L271.078 553.714L268.297 553.714z" stroke="none" fill="#FFF100" fill-rule="nonzero" /><path id="704" transform="matrix(1 0 0 -1 0 841)" d="M270.829 541.441L298.6 541.441L298.6 553.714L270.829 553.714z" stroke="none" fill="#FFF100" fill-rule="nonzero" /><path id="711" transform="matrix(1 0 0 -1 0 841)" d="M298.896 541.441L301.677 541.441L301.677 553.714L298.896 553.714z" stroke="none" fill="#FFF100" fill-rule="nonzero" /><path id="712" transform="matrix(1 0 0 -1 0 841)" d="M301.427 541.441L315.256 541.441L315.256 553.714L301.427 553.714z" stroke="none" fill="#FFF100" fill-rule="nonzero" /><path id="716" transform="matrix(1 0 0 -1 0 841)" d="M315.273 541.441L318.054 541.441L318.054 553.714L315.273 553.714z" stroke="none" fill="#FFF100" fill-rule="nonzero" /><path id="717" transform="matrix(1 0 0 -1 0 841)" d="M317.805 541.441L330.914 541.441L330.914 553.714L317.805 553.714z" stroke="none" fill="#FFF100" fill-rule="nonzero" /><path id="720" transform="matrix(1 0 0 -1 0 841)" d="M330.67 541.441L342.677 541.441L342.677 553.714L330.67 553.714z" stroke="none" fill="#FFF100" fill-rule="nonzero" /><path id="724" transform="matrix(1 0 0 -1 0 841)" d="M342.658 541.441L345.439 541.441L345.439 553.714L342.658 553.714z" stroke="none" fill="#FFF100" fill-rule="nonzero" /><path id="725" transform="matrix(1 0 0 -1 0 841)" d="M345.19 541.441L380.837 541.441L380.837 553.714L345.19 553.714z" stroke="none" fill="#FFF100" fill-rule="nonzero" /><path id="732" transform="matrix(1 0 0 -1 0 841)" d="M381.291 541.441L384.072 541.441L384.072 553.714L381.291 553.714z" stroke="none" fill="#FFF100" fill-rule="nonzero" /><path id="733" transform="matrix(1 0 0 -1 0 841)" d="M383.822 541.441L400.073 541.441L400.073 553.714L383.822 553.714z" stroke="none" fill="#FFF100" fill-rule="nonzero" /><path id="737" transform="matrix(1 0 0 -1 0 841)" d="M400.139 541.441L402.92 541.441L402.92 553.714L400.139 553.714z" stroke="none" fill="#FFF100" fill-rule="nonzero" /><path id="738" transform="matrix(1 0 0 -1 0 841)" d="M402.671 541.441L420.743 541.441L420.743 553.714L402.671 553.714z" stroke="none" fill="#FFF100" fill-rule="nonzero" /><path id="743" transform="matrix(1 0 0 -1 0 841)" d="M420.845 541.441L423.626 541.441L423.626 553.714L420.845 553.714z" stroke="none" fill="#FFF100" fill-rule="nonzero" /><path id="744" transform="matrix(1 0 0 -1 0 841)" d="M423.377 541.441L437.206 541.441L437.206 553.714L423.377 553.714z" stroke="none" fill="#FFF100" fill-rule="nonzero" /><path id="748" transform="matrix(1 0 0 -1 0 841)" d="M437.223 541.441L440.004 541.441L440.004 553.714L437.223 553.714z" stroke="none" fill="#FFF100" fill-rule="nonzero" /><path id="749" transform="matrix(1 0 0 -1 0 841)" d="M439.755 541.441L460.849 541.441L460.849 553.714L439.755 553.714z" stroke="none" fill="#FFF100" fill-rule="nonzero" /><path id="754" transform="matrix(1 0 0 -1 0 841)" d="M461.012 541.441L463.793 541.441L463.793 553.714L461.012 553.714z" stroke="none" fill="#FFF100" fill-rule="nonzero" /><path id="755" transform="matrix(1 0 0 -1 0 841)" d="M463.544 541.441L473.129 541.441L473.129 553.714L463.544 553.714z" stroke="none" fill="#FFF100" fill-rule="nonzero" /><path id="758" transform="matrix(1 0 0 -1 0 841)" d="M472.812 541.441L483.008 541.441L483.008 553.714L472.812 553.714z" stroke="none" fill="#FFF100" fill-rule="nonzero" /><path id="761" transform="matrix(1 0 0 -1 0 841)" d="M482.704 541.441L491.078 541.441L491.078 553.714L482.704 553.714z" stroke="none" fill="#FFF100" fill-rule="nonzero" /><path id="764" transform="matrix(1 0 0 -1 0 841)" d="M490.738 541.441L509.41 541.441L509.41 553.714L490.738 553.714z" stroke="none" fill="#FFF100" fill-rule="nonzero" /><path id="769" transform="matrix(1 0 0 -1 0 841)" d="M84.79 524.504L104.684 524.504L104.684 536.777L84.79 536.777z" stroke="none" fill="#FFF100" fill-rule="nonzero" /><path id="774" transform="matrix(1 0 0 -1 0 841)" d="M104.435 524.504L107.162 524.504L107.162 536.777L104.435 536.777z" stroke="none" fill="#FFF100" fill-rule="nonzero" /><path id="775" transform="matrix(1 0 0 -1 0 841)" d="M106.914 524.504L122.554 524.504L122.554 536.777L106.914 536.777z" stroke="none" fill="#FFF100" fill-rule="nonzero" /><path id="780" transform="matrix(1 0 0 -1 0 841)" d="M122.055 524.504L139.527 524.504L139.527 536.777L122.055 536.777z" stroke="none" fill="#FFF100" fill-rule="nonzero" /><path id="785" transform="matrix(1 0 0 -1 0 841)" d="M139.279 524.504L142.006 524.504L142.006 536.777L139.279 536.777z" stroke="none" fill="#FFF100" fill-rule="nonzero" /><path id="786" transform="matrix(1 0 0 -1 0 841)" d="M141.757 524.504L168.316 524.504L168.316 536.777L141.757 536.777z" stroke="none" fill="#FFF100" fill-rule="nonzero" /><path id="793" transform="matrix(1 0 0 -1 0 841)" d="M168.067 524.504L170.794 524.504L170.794 536.777L168.067 536.777z" stroke="none" fill="#FFF100" fill-rule="nonzero" /><path id="794" transform="matrix(1 0 0 -1 0 841)" d="M170.545 524.504L174.676 524.504L174.676 536.777L170.545 536.777z" stroke="none" fill="#FFF100" fill-rule="nonzero" /><path id="796" transform="matrix(1 0 0 -1 0 841)" d="M174.427 524.504L177.154 524.504L177.154 536.777L174.427 536.777z" stroke="none" fill="#FFF100" fill-rule="nonzero" /><path id="797" transform="matrix(1 0 0 -1 0 841)" d="M176.905 524.504L187.701 524.504L187.701 536.777L176.905 536.777z" stroke="none" fill="#FFF100" fill-rule="nonzero" /><path id="800" transform="matrix(1 0 0 -1 0 841)" d="M187.203 524.504L206.89 524.504L206.89 536.777L187.203 536.777z" stroke="none" fill="#FFF100" fill-rule="nonzero" /><path id="805" transform="matrix(1 0 0 -1 0 841)" d="M206.641 524.504L209.368 524.504L209.368 536.777L206.641 536.777z" stroke="none" fill="#FFF100" fill-rule="nonzero" /><path id="806" transform="matrix(1 0 0 -1 0 841)" d="M209.12 524.504L226.592 524.504L226.592 536.777L209.12 536.777z" stroke="none" fill="#FFF100" fill-rule="nonzero" /><path id="811" transform="matrix(1 0 0 -1 0 841)" d="M226.343 524.504L229.07 524.504L229.07 536.777L226.343 536.777z" stroke="none" fill="#FFF100" fill-rule="nonzero" /><path id="812" transform="matrix(1 0 0 -1 0 841)" d="M228.821 524.504L239.617 524.504L239.617 536.777L228.821 536.777z" stroke="none" fill="#FFF100" fill-rule="nonzero" /><path id="815" transform="matrix(1 0 0 -1 0 841)" d="M239.119 524.504L263.846 524.504L263.846 536.777L239.119 536.777z" stroke="none" fill="#FFF100" fill-rule="nonzero" /><path id="821" transform="matrix(1 0 0 -1 0 841)" d="M263.597 524.504L266.324 524.504L266.324 536.777L263.597 536.777z" stroke="none" fill="#FFF100" fill-rule="nonzero" /><path id="822" transform="matrix(1 0 0 -1 0 841)" d="M266.075 524.504L275.66 524.504L275.66 536.777L266.075 536.777z" stroke="none" fill="#FFF100" fill-rule="nonzero" /><path id="825" transform="matrix(1 0 0 -1 0 841)" d="M275.411 524.504L278.138 524.504L278.138 536.777L275.411 536.777z" stroke="none" fill="#FFF100" fill-rule="nonzero" /><path id="826" transform="matrix(1 0 0 -1 0 841)" d="M277.89 524.504L291.719 524.504L291.719 536.777L277.89 536.777z" stroke="none" fill="#FFF100" fill-rule="nonzero" /><path id="830" transform="matrix(1 0 0 -1 0 841)" d="M291.469 524.504L294.196 524.504L294.196 536.777L291.469 536.777z" stroke="none" fill="#FFF100" fill-rule="nonzero" /><path id="831" transform="matrix(1 0 0 -1 0 841)" d="M293.948 524.504L307.057 524.504L307.057 536.777L293.948 536.777z" stroke="none" fill="#FFF100" fill-rule="nonzero" /><path id="834" transform="matrix(1 0 0 -1 0 841)" d="M306.558 524.504L318.565 524.504L318.565 536.777L306.558 536.777z" stroke="none" fill="#FFF100" fill-rule="nonzero" /><path id="838" transform="matrix(1 0 0 -1 0 841)" d="M318.316 524.504L321.043 524.504L321.043 536.777L318.316 536.777z" stroke="none" fill="#FFF100" fill-rule="nonzero" /><path id="839" transform="matrix(1 0 0 -1 0 841)" d="M320.795 524.504L340.526 524.504L340.526 536.777L320.795 536.777z" stroke="none" fill="#FFF100" fill-rule="nonzero" /><path id="843" transform="matrix(1 0 0 -1 0 841)" d="M340.027 524.504L354.467 524.504L354.467 536.777L340.027 536.777z" stroke="none" fill="#FFF100" fill-rule="nonzero" /><path id="847" transform="matrix(1 0 0 -1 0 841)" d="M354.218 524.504L356.945 524.504L356.945 536.777L354.218 536.777z" stroke="none" fill="#FFF100" fill-rule="nonzero" /><path id="848" transform="matrix(1 0 0 -1 0 841)" d="M356.696 524.504L391.132 524.504L391.132 536.777L356.696 536.777z" stroke="none" fill="#FFF100" fill-rule="nonzero" /><path id="856" transform="matrix(1 0 0 -1 0 841)" d="M390.883 524.504L393.61 524.504L393.61 536.777L390.883 536.777z" stroke="none" fill="#FFF100" fill-rule="nonzero" /><path id="857" transform="matrix(1 0 0 -1 0 841)" d="M393.361 524.504L407.19 524.504L407.19 536.777L393.361 536.777z" stroke="none" fill="#FFF100" fill-rule="nonzero" /><path id="861" transform="matrix(1 0 0 -1 0 841)" d="M406.941 524.504L409.668 524.504L409.668 536.777L406.941 536.777z" stroke="none" fill="#FFF100" fill-rule="nonzero" /><path id="862" transform="matrix(1 0 0 -1 0 841)" d="M409.419 524.504L428.702 524.504L428.702 536.777L409.419 536.777z" stroke="none" fill="#FFF100" fill-rule="nonzero" /><path id="867" transform="matrix(1 0 0 -1 0 841)" d="M428.454 524.504L431.181 524.504L431.181 536.777L428.454 536.777z" stroke="none" fill="#FFF100" fill-rule="nonzero" /><path id="868" transform="matrix(1 0 0 -1 0 841)" d="M430.932 524.504L447.183 524.504L447.183 536.777L430.932 536.777z" stroke="none" fill="#FFF100" fill-rule="nonzero" /><path id="872" transform="matrix(1 0 0 -1 0 841)" d="M446.934 524.504L449.661 524.504L449.661 536.777L446.934 536.777z" stroke="none" fill="#FFF100" fill-rule="nonzero" /><path id="873" transform="matrix(1 0 0 -1 0 841)" d="M449.412 524.504L459.008 524.504L459.008 536.777L449.412 536.777z" stroke="none" fill="#FFF100" fill-rule="nonzero" /><path id="876" transform="matrix(1 0 0 -1 0 841)" d="M458.51 524.504L482.953 524.504L482.953 536.777L458.51 536.777z" stroke="none" fill="#FFF100" fill-rule="nonzero" /><path id="883" transform="matrix(1 0 0 -1 0 841)" d="M434.9808 451.159L349.9404 451.159L349.9404 451.159L349.9404 366.1185L349.9404 366.1185L434.9808 366.1185z" stroke="#000000" stroke-width="0.3985" fill="none" /><path id="884" transform="matrix(1 0 0 -1 0 841)" d="M434.9808 451.159L467.7209 483.899L467.7209 483.899L467.7209 398.8586L467.7209 398.8586L434.9808 366.1185z" stroke="#000000" stroke-width="0.3985" fill="none" /><path id="885" transform="matrix(1 0 0 -1 0 841)" d="M434.9808 451.159L349.9404 451.159L349.9404 451.159L382.6805 483.899L382.6805 483.899L467.7209 483.899z" stroke="#000000" stroke-width="0.3985" fill="none" /><path id="913" transform="matrix(1 0 0 -1 0 841)" d="M159.053 477.586L182.495 477.586" stroke="#000000" stroke-width="0.398" fill="none" /><path id="962" transform="matrix(1 0 0 -1 0 841)" d="M215.545 423.53L265.388 423.53" stroke="#000000" stroke-width="0.398" fill="none" /><g transform="matrix(0.2 0 0 0.2 164.54 575.67)"><g transform="matrix(1 0 0 1 0 0)"><image x="0" y="0" xlink:href="img_306.png" width="1331" height="580" /></g></g></g></g></svg>