<svg xmlns="http://www.w3.org/2000/svg" xmlns:xlink="http://www.w3.org/1999/xlink" id="body_209" preserveAspectRatio="xMinYMin meet" viewBox="0 0 793 1121"><defs><clipPath id="1"><path id="" clip-rule="evenodd" transform="matrix(1 0 0 1 0 0)" d="M0 841L0 -0.8900146L0 -0.8900146L595.276 -0.8900146L595.276 -0.8900146L595.276 841L595.276 841L0 841z" /></clipPath></defs><g transform="matrix(1.333333 0 0 1.333333 0 0)"><g clip-path="url(#1)"><path id="36" transform="matrix(1 0 0 -1 0 841)" d="M85.039 766.564L510.236 766.564" stroke="#000000" stroke-width="0.498" fill="none" /><path id="102" transform="matrix(1 0 0 -1 0 841)" d="M154.959 734.107L236.059 734.107" stroke="#000000" stroke-width="0.436" fill="none" /><path id="178" transform="matrix(1 0 0 -1 0 841)" d="M85.039 471.825L85.039 693.8176C 85.039 696.1659 86.94264 698.0696 89.29099 698.0696L89.29099 698.0696L505.9893 698.0696C 508.3377 698.0696 510.2413 696.1659 510.2413 693.8176L510.2413 693.8176L510.2413 471.825C 510.2413 469.4766 508.3377 467.573 505.9893 467.573L505.9893 467.573L89.29099 467.573C 86.94264 467.573 85.039 469.4766 85.039 471.825z" stroke="none" fill="#BFBFFF" fill-rule="nonzero" /><path id="179" transform="matrix(1 0 0 -1 0 841)" d="M86.45631 471.825L86.45631 682.0602L86.45631 682.0602L508.824 682.0602L508.824 682.0602L508.824 471.825C 508.824 470.2594 507.5549 468.9903 505.9893 468.9903L505.9893 468.9903L89.29099 468.9903C 87.72543 468.9903 86.45631 470.2594 86.45631 471.825z" stroke="none" fill="#E6E6FF" fill-rule="nonzero" /><path id="1151" transform="matrix(1 0 0 -1 0 841)" d="M86.235 257.795L102.555 257.795" stroke="#000000" stroke-width="0.436" fill="none" /><path id="1166" transform="matrix(1 0 0 -1 0 841)" d="M173.849 257.795L187.18 257.795" stroke="#000000" stroke-width="0.436" fill="none" /><path id="1182" transform="matrix(1 0 0 -1 0 841)" d="M260.205 257.795L276.525 257.795" stroke="#000000" stroke-width="0.436" fill="none" /><path id="1186" transform="matrix(1 0 0 -1 0 841)" d="M229.57 273.152L281.107 273.152" stroke="#000000" stroke-width="0.398" fill="none" /><path id="1187" transform="matrix(1 0 0 -1 0 841)" d="M229.77 242.171L229.77 273.152" stroke="#000000" stroke-width="0.398" fill="none" /><path id="1188" transform="matrix(1 0 0 -1 0 841)" d="M280.909 242.171L280.909 273.152" stroke="#000000" stroke-width="0.398" fill="none" /><path id="1189" transform="matrix(1 0 0 -1 0 841)" d="M229.57 242.171L281.107 242.171" stroke="#000000" stroke-width="0.398" fill="none" /><path id="1317" transform="matrix(1 0 0 -1 0 841)" d="M152.62 161.205L199.269 161.205" stroke="#000000" stroke-width="0.436" fill="none" /><path id="1362" transform="matrix(1 0 0 -1 0 841)" d="M321.467 169.177L418.264 169.177" stroke="#000000" stroke-width="0.398" fill="none" /><path id="1363" transform="matrix(1 0 0 -1 0 841)" d="M321.666 153.174L321.666 169.177" stroke="#000000" stroke-width="0.398" fill="none" /><path id="1364" transform="matrix(1 0 0 -1 0 841)" d="M418.064 153.174L418.064 169.177" stroke="#000000" stroke-width="0.398" fill="none" /><path id="1365" transform="matrix(1 0 0 -1 0 841)" d="M321.467 153.174L418.264 153.174" stroke="#000000" stroke-width="0.398" fill="none" /></g></g></svg>