<svg xmlns="http://www.w3.org/2000/svg" xmlns:xlink="http://www.w3.org/1999/xlink" id="body_137" preserveAspectRatio="xMinYMin meet" viewBox="0 0 793 1121"><defs><clipPath id="1"><path id="" clip-rule="evenodd" transform="matrix(1 0 0 1 0 0)" d="M0 841L0 -0.8900146L0 -0.8900146L595.276 -0.8900146L595.276 -0.8900146L595.276 841L595.276 841L0 841z" /></clipPath></defs><g transform="matrix(1.333333 0 0 1.333333 0 0)"><g clip-path="url(#1)"><path id="28" transform="matrix(1 0 0 -1 0 841)" d="M85.039 766.564L510.236 766.564" stroke="#000000" stroke-width="0.498" fill="none" /><path id="349" transform="matrix(1 0 0 -1 0 841)" d="M490.51 681.402L563.109 681.402" stroke="#000000" stroke-width="0.436" fill="none" /><path id="480" transform="matrix(1 0 0 -1 0 841)" d="M113.508 628.11L151.635 628.11" stroke="#000000" stroke-width="0.436" fill="none" /><path id="496" transform="matrix(1 0 0 -1 0 841)" d="M168.567 628.11L206.694 628.11" stroke="#000000" stroke-width="0.436" fill="none" /><path id="535" transform="matrix(1 0 0 -1 0 841)" d="M276.871 605.143L310.383 605.143" stroke="#000000" stroke-width="0.436" fill="none" /><path id="607" transform="matrix(1 0 0 -1 0 841)" d="M157.784 553.016L195.758 553.016" stroke="#000000" stroke-width="0.436" fill="none" /><path id="785" transform="matrix(1 0 0 -1 0 841)" d="M113.508 476.12L157.656 476.12" stroke="#000000" stroke-width="0.436" fill="none" /><path id="795" transform="matrix(1 0 0 -1 0 841)" d="M168.532 476.12L221.157 476.12" stroke="#000000" stroke-width="0.436" fill="none" /><path id="819" transform="matrix(1 0 0 -1 0 841)" d="M232.032 476.12L259.305 476.12" stroke="#000000" stroke-width="0.436" fill="none" /><path id="830" transform="matrix(1 0 0 -1 0 841)" d="M275.021 476.12L308.653 476.12" stroke="#000000" stroke-width="0.436" fill="none" /><path id="882" transform="matrix(1 0 0 -1 0 841)" d="M172.927 438.13L239.95 438.13" stroke="#000000" stroke-width="0.436" fill="none" /><path id="1099" transform="matrix(1 0 0 -1 0 841)" d="M290.682 365.952L304.928 365.952" stroke="#000000" stroke-width="0.436" fill="none" /><path id="1503" transform="matrix(1 0 0 -1 0 841)" d="M306.423 193.192L340.903 193.192" stroke="#000000" stroke-width="0.436" fill="none" /></g></g></svg>