<svg xmlns="http://www.w3.org/2000/svg" xmlns:xlink="http://www.w3.org/1999/xlink" id="body_225" preserveAspectRatio="xMinYMin meet" viewBox="0 0 793 1121"><defs><clipPath id="1"><path id="" clip-rule="evenodd" transform="matrix(1 0 0 1 0 0)" d="M0 841L0 -0.8900146L0 -0.8900146L595.276 -0.8900146L595.276 -0.8900146L595.276 841L595.276 841L0 841z" /></clipPath></defs><g transform="matrix(1.333333 0 0 1.333333 0 0)"><g clip-path="url(#1)"><path id="27" transform="matrix(1 0 0 -1 0 841)" d="M85.039 766.564L510.236 766.564" stroke="#000000" stroke-width="0.498" fill="none" /><g transform="matrix(0.1309091 0 0 0.1309091 110.109 84.15198)"><g transform="matrix(1 0 0 1 0 0)"><image x="0" y="0" xlink:href="img_313.png" width="2865" height="2090" /></g></g><g transform="matrix(0.1309091 0 0 0.1309091 189.048 358.7485)"><g transform="matrix(1 0 0 1 0 0)"><image x="0" y="0" xlink:href="img_314.png" width="1659" height="808" /></g></g><path id="60" transform="matrix(1 0 0 -1 0 841)" d="M112.063 305.004L127.55 305.004L127.55 317.277L112.063 317.277z" stroke="none" fill="#FFF100" fill-rule="nonzero" /><path id="64" transform="matrix(1 0 0 -1 0 841)" d="M127.574 305.004L130.297 305.004L130.297 317.277L127.574 317.277z" stroke="none" fill="#FFF100" fill-rule="nonzero" /><path id="65" transform="matrix(1 0 0 -1 0 841)" d="M130.048 305.004L143.266 305.004L143.266 317.277L130.048 317.277z" stroke="none" fill="#FFF100" fill-rule="nonzero" /><path id="69" transform="matrix(1 0 0 -1 0 841)" d="M142.996 305.004L153.792 305.004L153.792 317.277L142.996 317.277z" stroke="none" fill="#FFF100" fill-rule="nonzero" /><path id="72" transform="matrix(1 0 0 -1 0 841)" d="M153.48 305.004L164.887 305.004L164.887 317.277L153.48 317.277z" stroke="none" fill="#FFF100" fill-rule="nonzero" /><path id="76" transform="matrix(1 0 0 -1 0 841)" d="M164.585 305.004L179.025 305.004L179.025 317.277L164.585 317.277z" stroke="none" fill="#FFF100" fill-rule="nonzero" /><path id="80" transform="matrix(1 0 0 -1 0 841)" d="M179.027 305.004L181.75 305.004L181.75 317.277L179.027 317.277z" stroke="none" fill="#FFF100" fill-rule="nonzero" /><path id="81" transform="matrix(1 0 0 -1 0 841)" d="M181.501 305.004L195.723 305.004L195.723 317.277L181.501 317.277z" stroke="none" fill="#FFF100" fill-rule="nonzero" /><path id="85" transform="matrix(1 0 0 -1 0 841)" d="M195.475 305.004L214.758 305.004L214.758 317.277L195.475 317.277z" stroke="none" fill="#FFF100" fill-rule="nonzero" /><path id="89" transform="matrix(1 0 0 -1 0 841)" d="M214.848 305.004L217.571 305.004L217.571 317.277L214.848 317.277z" stroke="none" fill="#FFF100" fill-rule="nonzero" /><path id="90" transform="matrix(1 0 0 -1 0 841)" d="M217.321 305.004L252.968 305.004L252.968 317.277L217.321 317.277z" stroke="none" fill="#FFF100" fill-rule="nonzero" /><path id="97" transform="matrix(1 0 0 -1 0 841)" d="M253.352 305.004L256.075 305.004L256.075 317.277L253.352 317.277z" stroke="none" fill="#FFF100" fill-rule="nonzero" /><path id="98" transform="matrix(1 0 0 -1 0 841)" d="M255.826 305.004L280.128 305.004L280.128 317.277L255.826 317.277z" stroke="none" fill="#FFF100" fill-rule="nonzero" /><path id="104" transform="matrix(1 0 0 -1 0 841)" d="M280.315 305.004L283.038 305.004L283.038 317.277L280.315 317.277z" stroke="none" fill="#FFF100" fill-rule="nonzero" /><path id="105" transform="matrix(1 0 0 -1 0 841)" d="M282.788 305.004L296.617 305.004L296.617 317.277L282.788 317.277z" stroke="none" fill="#FFF100" fill-rule="nonzero" /><path id="109" transform="matrix(1 0 0 -1 0 841)" d="M296.608 305.004L299.331 305.004L299.331 317.277L296.608 317.277z" stroke="none" fill="#FFF100" fill-rule="nonzero" /><path id="110" transform="matrix(1 0 0 -1 0 841)" d="M299.082 305.004L324.431 305.004L324.431 317.277L299.082 317.277z" stroke="none" fill="#FFF100" fill-rule="nonzero" /><path id="115" transform="matrix(1 0 0 -1 0 841)" d="M324.629 305.004L327.352 305.004L327.352 317.277L324.629 317.277z" stroke="none" fill="#FFF100" fill-rule="nonzero" /><path id="116" transform="matrix(1 0 0 -1 0 841)" d="M327.103 305.004L346.725 305.004L346.725 317.277L327.103 317.277z" stroke="none" fill="#FFF100" fill-rule="nonzero" /><path id="120" transform="matrix(1 0 0 -1 0 841)" d="M346.824 305.004L349.547 305.004L349.547 317.277L346.824 317.277z" stroke="none" fill="#FFF100" fill-rule="nonzero" /><path id="121" transform="matrix(1 0 0 -1 0 841)" d="M349.298 305.004L369.181 305.004L369.181 317.277L349.298 317.277z" stroke="none" fill="#FFF100" fill-rule="nonzero" /><path id="236" transform="matrix(1 0 0 -1 0 841)" d="M112.063 236.85L127.55 236.85L127.55 249.123L112.063 249.123z" stroke="none" fill="#FFF100" fill-rule="nonzero" /><path id="240" transform="matrix(1 0 0 -1 0 841)" d="M127.301 236.85L130.028 236.85L130.028 249.123L127.301 249.123z" stroke="none" fill="#FFF100" fill-rule="nonzero" /><path id="241" transform="matrix(1 0 0 -1 0 841)" d="M129.779 236.85L142.997 236.85L142.997 249.123L129.779 249.123z" stroke="none" fill="#FFF100" fill-rule="nonzero" /><path id="245" transform="matrix(1 0 0 -1 0 841)" d="M142.499 236.85L153.295 236.85L153.295 249.123L142.499 249.123z" stroke="none" fill="#FFF100" fill-rule="nonzero" /><path id="248" transform="matrix(1 0 0 -1 0 841)" d="M152.797 236.85L164.204 236.85L164.204 249.123L152.797 249.123z" stroke="none" fill="#FFF100" fill-rule="nonzero" /><path id="252" transform="matrix(1 0 0 -1 0 841)" d="M163.706 236.85L178.146 236.85L178.146 249.123L163.706 249.123z" stroke="none" fill="#FFF100" fill-rule="nonzero" /><path id="256" transform="matrix(1 0 0 -1 0 841)" d="M177.897 236.85L180.624 236.85L180.624 249.123L177.897 249.123z" stroke="none" fill="#FFF100" fill-rule="nonzero" /><path id="257" transform="matrix(1 0 0 -1 0 841)" d="M180.375 236.85L200.269 236.85L200.269 249.123L180.375 249.123z" stroke="none" fill="#FFF100" fill-rule="nonzero" /><path id="262" transform="matrix(1 0 0 -1 0 841)" d="M200.02 236.85L202.747 236.85L202.747 249.123L200.02 249.123z" stroke="none" fill="#FFF100" fill-rule="nonzero" /><path id="263" transform="matrix(1 0 0 -1 0 841)" d="M202.498 236.85L211.483 236.85L211.483 249.123L202.498 249.123z" stroke="none" fill="#FFF100" fill-rule="nonzero" /><path id="266" transform="matrix(1 0 0 -1 0 841)" d="M211.234 236.85L213.961 236.85L213.961 249.123L211.234 249.123z" stroke="none" fill="#FFF100" fill-rule="nonzero" /><path id="267" transform="matrix(1 0 0 -1 0 841)" d="M213.713 236.85L239.062 236.85L239.062 249.123L213.713 249.123z" stroke="none" fill="#FFF100" fill-rule="nonzero" /><path id="272" transform="matrix(1 0 0 -1 0 841)" d="M238.812 236.85L241.539 236.85L241.539 249.123L238.812 249.123z" stroke="none" fill="#FFF100" fill-rule="nonzero" /><path id="273" transform="matrix(1 0 0 -1 0 841)" d="M241.291 236.85L246.633 236.85L246.633 249.123L241.291 249.123z" stroke="none" fill="#FFF100" fill-rule="nonzero" /><path id="275" transform="matrix(1 0 0 -1 0 841)" d="M246.383 236.85L249.11 236.85L249.11 249.123L246.383 249.123z" stroke="none" fill="#FFF100" fill-rule="nonzero" /><path id="276" transform="matrix(1 0 0 -1 0 841)" d="M248.861 236.85L262.679 236.85L262.679 249.123L248.861 249.123z" stroke="none" fill="#FFF100" fill-rule="nonzero" /><path id="280" transform="matrix(1 0 0 -1 0 841)" d="M262.181 236.85L279.042 236.85L279.042 249.123L262.181 249.123z" stroke="none" fill="#FFF100" fill-rule="nonzero" /><path id="285" transform="matrix(1 0 0 -1 0 841)" d="M278.794 236.85L281.521 236.85L281.521 249.123L278.794 249.123z" stroke="none" fill="#FFF100" fill-rule="nonzero" /><path id="286" transform="matrix(1 0 0 -1 0 841)" d="M281.272 236.85L295.494 236.85L295.494 249.123L281.272 249.123z" stroke="none" fill="#FFF100" fill-rule="nonzero" /><path id="290" transform="matrix(1 0 0 -1 0 841)" d="M294.995 236.85L317.311 236.85L317.311 249.123L294.995 249.123z" stroke="none" fill="#FFF100" fill-rule="nonzero" /></g></g></svg>