<svg xmlns="http://www.w3.org/2000/svg" xmlns:xlink="http://www.w3.org/1999/xlink" id="body_318" preserveAspectRatio="xMinYMin meet" viewBox="0 0 793 1121"><defs><clipPath id="1"><path id="" clip-rule="evenodd" transform="matrix(1 0 0 1 0 0)" d="M0 841L0 -0.8900146L0 -0.8900146L595.276 -0.8900146L595.276 -0.8900146L595.276 841L595.276 841L0 841z" /></clipPath></defs><g transform="matrix(1.333333 0 0 1.333333 0 0)"><g clip-path="url(#1)"><path id="23" transform="matrix(1 0 0 -1 0 841)" d="M85.039 766.564L510.236 766.564" stroke="#000000" stroke-width="0.498" fill="none" /><path id="37" transform="matrix(1 0 0 -1 0 841)" d="M188.511 746.353L195.384 746.353" stroke="#000000" stroke-width="0.436" fill="none" /><path id="80" transform="matrix(1 0 0 -1 0 841)" d="M402.604 756.651L445.443 756.651" stroke="#000000" stroke-width="0.398" fill="none" /><path id="81" transform="matrix(1 0 0 -1 0 841)" d="M402.803 738.158L402.803 756.651" stroke="#000000" stroke-width="0.398" fill="none" /><path id="82" transform="matrix(1 0 0 -1 0 841)" d="M445.244 738.158L445.244 756.651" stroke="#000000" stroke-width="0.398" fill="none" /><path id="83" transform="matrix(1 0 0 -1 0 841)" d="M402.604 738.158L445.443 738.158" stroke="#000000" stroke-width="0.398" fill="none" /><path id="233" transform="matrix(1 0 0 -1 0 841)" d="M372.459 705.842L420.753 705.842" stroke="#000000" stroke-width="0.398" fill="none" /><path id="234" transform="matrix(1 0 0 -1 0 841)" d="M372.658 687.348L372.658 705.841" stroke="#000000" stroke-width="0.398" fill="none" /><path id="235" transform="matrix(1 0 0 -1 0 841)" d="M420.553 687.348L420.553 705.841" stroke="#000000" stroke-width="0.398" fill="none" /><path id="236" transform="matrix(1 0 0 -1 0 841)" d="M372.459 687.348L420.753 687.348" stroke="#000000" stroke-width="0.398" fill="none" /><path id="250" transform="matrix(1 0 0 -1 0 841)" d="M188.511 669.986L195.384 669.986" stroke="#000000" stroke-width="0.436" fill="none" /><path id="293" transform="matrix(1 0 0 -1 0 841)" d="M408.058 680.284L450.897 680.284" stroke="#000000" stroke-width="0.398" fill="none" /><path id="294" transform="matrix(1 0 0 -1 0 841)" d="M408.257 661.791L408.257 680.284" stroke="#000000" stroke-width="0.398" fill="none" /><path id="295" transform="matrix(1 0 0 -1 0 841)" d="M450.698 661.791L450.698 680.284" stroke="#000000" stroke-width="0.398" fill="none" /><path id="296" transform="matrix(1 0 0 -1 0 841)" d="M408.058 661.791L450.897 661.791" stroke="#000000" stroke-width="0.398" fill="none" /><path id="414" transform="matrix(1 0 0 -1 0 841)" d="M188.511 596.571L195.384 596.571" stroke="#000000" stroke-width="0.436" fill="none" /><path id="457" transform="matrix(1 0 0 -1 0 841)" d="M402.604 606.869L445.443 606.869" stroke="#000000" stroke-width="0.398" fill="none" /><path id="458" transform="matrix(1 0 0 -1 0 841)" d="M402.803 588.376L402.803 606.869" stroke="#000000" stroke-width="0.398" fill="none" /><path id="459" transform="matrix(1 0 0 -1 0 841)" d="M445.244 588.376L445.244 606.869" stroke="#000000" stroke-width="0.398" fill="none" /><path id="460" transform="matrix(1 0 0 -1 0 841)" d="M402.604 588.376L445.443 588.376" stroke="#000000" stroke-width="0.398" fill="none" /><path id="533" transform="matrix(1 0 0 -1 0 841)" d="M176.053 562.698L182.926 562.698" stroke="#000000" stroke-width="0.436" fill="none" /><path id="565" transform="matrix(1 0 0 -1 0 841)" d="M338.197 572.996L386.491 572.996" stroke="#000000" stroke-width="0.398" fill="none" /><path id="566" transform="matrix(1 0 0 -1 0 841)" d="M338.396 554.503L338.396 572.996" stroke="#000000" stroke-width="0.398" fill="none" /><path id="567" transform="matrix(1 0 0 -1 0 841)" d="M386.291 554.503L386.291 572.996" stroke="#000000" stroke-width="0.398" fill="none" /><path id="568" transform="matrix(1 0 0 -1 0 841)" d="M338.197 554.503L386.491 554.503" stroke="#000000" stroke-width="0.398" fill="none" /><path id="648" transform="matrix(1 0 0 -1 0 841)" d="M204.714 505.179L251.787 505.179" stroke="#000000" stroke-width="0.398" fill="none" /><path id="649" transform="matrix(1 0 0 -1 0 841)" d="M204.913 486.686L204.913 505.179" stroke="#000000" stroke-width="0.398" fill="none" /><path id="650" transform="matrix(1 0 0 -1 0 841)" d="M251.588 486.686L251.588 505.179" stroke="#000000" stroke-width="0.398" fill="none" /><path id="651" transform="matrix(1 0 0 -1 0 841)" d="M204.714 486.686L251.787 486.686" stroke="#000000" stroke-width="0.398" fill="none" /><path id="892" transform="matrix(1 0 0 -1 0 841)" d="M405.819 393.191L443.876 393.191" stroke="#000000" stroke-width="0.436" fill="none" /><path id="908" transform="matrix(1 0 0 -1 0 841)" d="M458.397 401.163L502.033 401.163" stroke="#000000" stroke-width="0.398" fill="none" /><path id="909" transform="matrix(1 0 0 -1 0 841)" d="M458.596 385.05L458.596 401.162" stroke="#000000" stroke-width="0.398" fill="none" /><path id="910" transform="matrix(1 0 0 -1 0 841)" d="M501.834 385.05L501.834 401.162" stroke="#000000" stroke-width="0.398" fill="none" /><path id="911" transform="matrix(1 0 0 -1 0 841)" d="M458.397 385.05L502.033 385.05" stroke="#000000" stroke-width="0.398" fill="none" /></g></g></svg>