<svg xmlns="http://www.w3.org/2000/svg" xmlns:xlink="http://www.w3.org/1999/xlink" id="body_128" preserveAspectRatio="xMinYMin meet" viewBox="0 0 793 1121"><defs><clipPath id="1"><path id="" clip-rule="evenodd" transform="matrix(1 0 0 1 0 0)" d="M0 841L0 -0.8900146L0 -0.8900146L595.276 -0.8900146L595.276 -0.8900146L595.276 841L595.276 841L0 841z" /></clipPath></defs><g transform="matrix(1.333333 0 0 1.333333 0 0)"><g clip-path="url(#1)"><path id="22" transform="matrix(1 0 0 -1 0 841)" d="M85.039 766.564L510.236 766.564" stroke="#000000" stroke-width="0.498" fill="none" /><path id="146" transform="matrix(1 0 0 -1 0 841)" d="M115.006 689.467L480.269 689.467" stroke="#000000" stroke-width="0.398" fill="none" /><path id="147" transform="matrix(1 0 0 -1 0 841)" d="M115.205 675.718L115.205 689.267" stroke="#000000" stroke-width="0.398" fill="none" /><path id="155" transform="matrix(1 0 0 -1 0 841)" d="M240.945 675.718L240.945 689.267" stroke="#000000" stroke-width="0.398" fill="none" /><path id="161" transform="matrix(1 0 0 -1 0 841)" d="M480.07 675.718L480.07 689.267" stroke="#000000" stroke-width="0.398" fill="none" /><path id="162" transform="matrix(1 0 0 -1 0 841)" d="M115.006 675.519L480.269 675.519" stroke="#000000" stroke-width="0.398" fill="none" /><path id="163" transform="matrix(1 0 0 -1 0 841)" d="M115.205 661.771L115.205 675.32" stroke="#000000" stroke-width="0.398" fill="none" /><path id="170" transform="matrix(1 0 0 -1 0 841)" d="M240.945 661.771L240.945 675.32" stroke="#000000" stroke-width="0.398" fill="none" /><path id="186" transform="matrix(1 0 0 -1 0 841)" d="M480.07 661.771L480.07 675.32" stroke="#000000" stroke-width="0.398" fill="none" /><path id="187" transform="matrix(1 0 0 -1 0 841)" d="M115.006 661.571L480.269 661.571" stroke="#000000" stroke-width="0.398" fill="none" /><path id="188" transform="matrix(1 0 0 -1 0 841)" d="M115.205 647.823L115.205 661.372" stroke="#000000" stroke-width="0.398" fill="none" /><path id="193" transform="matrix(1 0 0 -1 0 841)" d="M240.945 647.823L240.945 661.372" stroke="#000000" stroke-width="0.398" fill="none" /><path id="203" transform="matrix(1 0 0 -1 0 841)" d="M480.07 647.823L480.07 661.372" stroke="#000000" stroke-width="0.398" fill="none" /><path id="204" transform="matrix(1 0 0 -1 0 841)" d="M115.006 647.624L480.269 647.624" stroke="#000000" stroke-width="0.398" fill="none" /><path id="205" transform="matrix(1 0 0 -1 0 841)" d="M115.205 633.875L115.205 647.424" stroke="#000000" stroke-width="0.398" fill="none" /><path id="212" transform="matrix(1 0 0 -1 0 841)" d="M240.945 633.875L240.945 647.424" stroke="#000000" stroke-width="0.398" fill="none" /><path id="234" transform="matrix(1 0 0 -1 0 841)" d="M480.07 633.875L480.07 647.424" stroke="#000000" stroke-width="0.398" fill="none" /><path id="235" transform="matrix(1 0 0 -1 0 841)" d="M115.006 633.676L480.269 633.676" stroke="#000000" stroke-width="0.398" fill="none" /><path id="236" transform="matrix(1 0 0 -1 0 841)" d="M115.205 619.927L115.205 633.476" stroke="#000000" stroke-width="0.398" fill="none" /><path id="244" transform="matrix(1 0 0 -1 0 841)" d="M240.945 619.927L240.945 633.476" stroke="#000000" stroke-width="0.398" fill="none" /><path id="279" transform="matrix(1 0 0 -1 0 841)" d="M480.07 619.927L480.07 633.476" stroke="#000000" stroke-width="0.398" fill="none" /><path id="280" transform="matrix(1 0 0 -1 0 841)" d="M115.006 619.728L480.269 619.728" stroke="#000000" stroke-width="0.398" fill="none" /><path id="281" transform="matrix(1 0 0 -1 0 841)" d="M115.205 605.98L115.205 619.529" stroke="#000000" stroke-width="0.398" fill="none" /><path id="286" transform="matrix(1 0 0 -1 0 841)" d="M240.945 605.98L240.945 619.529" stroke="#000000" stroke-width="0.398" fill="none" /><path id="311" transform="matrix(1 0 0 -1 0 841)" d="M480.07 605.98L480.07 619.529" stroke="#000000" stroke-width="0.398" fill="none" /><path id="312" transform="matrix(1 0 0 -1 0 841)" d="M115.006 605.781L480.269 605.781" stroke="#000000" stroke-width="0.398" fill="none" /><path id="484" transform="matrix(1 0 0 -1 0 841)" d="M112.312 525.871L444.595 525.871" stroke="#000000" stroke-width="0.398" fill="none" /><path id="485" transform="matrix(1 0 0 -1 0 841)" d="M112.511 508.735L112.511 525.671" stroke="#000000" stroke-width="0.398" fill="none" /><path id="507" transform="matrix(1 0 0 -1 0 841)" d="M329.641 508.735L329.641 525.671" stroke="#000000" stroke-width="0.398" fill="none" /><path id="514" transform="matrix(1 0 0 -1 0 841)" d="M444.396 508.735L444.396 525.671" stroke="#000000" stroke-width="0.398" fill="none" /><path id="515" transform="matrix(1 0 0 -1 0 841)" d="M112.312 508.536L444.595 508.536" stroke="#000000" stroke-width="0.398" fill="none" /><path id="516" transform="matrix(1 0 0 -1 0 841)" d="M112.511 491.4L112.511 508.336" stroke="#000000" stroke-width="0.398" fill="none" /><path id="535" transform="matrix(1 0 0 -1 0 841)" d="M329.641 491.4L329.641 508.336" stroke="#000000" stroke-width="0.398" fill="none" /><path id="555" transform="matrix(1 0 0 -1 0 841)" d="M444.396 491.4L444.396 508.336" stroke="#000000" stroke-width="0.398" fill="none" /><path id="556" transform="matrix(1 0 0 -1 0 841)" d="M112.312 491.201L444.595 491.201" stroke="#000000" stroke-width="0.398" fill="none" /><path id="557" transform="matrix(1 0 0 -1 0 841)" d="M112.511 474.065L112.511 491.001" stroke="#000000" stroke-width="0.398" fill="none" /><path id="570" transform="matrix(1 0 0 -1 0 841)" d="M329.641 474.065L329.641 491.001" stroke="#000000" stroke-width="0.398" fill="none" /><path id="583" transform="matrix(1 0 0 -1 0 841)" d="M444.396 474.065L444.396 491.001" stroke="#000000" stroke-width="0.398" fill="none" /><path id="584" transform="matrix(1 0 0 -1 0 841)" d="M112.511 457.129L112.511 474.065" stroke="#000000" stroke-width="0.398" fill="none" /><path id="597" transform="matrix(1 0 0 -1 0 841)" d="M329.641 457.129L329.641 474.065" stroke="#000000" stroke-width="0.398" fill="none" /><path id="612" transform="matrix(1 0 0 -1 0 841)" d="M444.396 457.129L444.396 474.065" stroke="#000000" stroke-width="0.398" fill="none" /><path id="613" transform="matrix(1 0 0 -1 0 841)" d="M112.511 440.193L112.511 457.129" stroke="#000000" stroke-width="0.398" fill="none" /><path id="648" transform="matrix(1 0 0 -1 0 841)" d="M329.641 440.193L329.641 457.129" stroke="#000000" stroke-width="0.398" fill="none" /><path id="665" transform="matrix(1 0 0 -1 0 841)" d="M444.396 440.193L444.396 457.129" stroke="#000000" stroke-width="0.398" fill="none" /><path id="666" transform="matrix(1 0 0 -1 0 841)" d="M112.511 423.256L112.511 440.192" stroke="#000000" stroke-width="0.398" fill="none" /><path id="681" transform="matrix(1 0 0 -1 0 841)" d="M329.641 423.256L329.641 440.192" stroke="#000000" stroke-width="0.398" fill="none" /><path id="695" transform="matrix(1 0 0 -1 0 841)" d="M444.396 423.256L444.396 440.192" stroke="#000000" stroke-width="0.398" fill="none" /><path id="696" transform="matrix(1 0 0 -1 0 841)" d="M112.511 406.32L112.511 423.256" stroke="#000000" stroke-width="0.398" fill="none" /><path id="708" transform="matrix(1 0 0 -1 0 841)" d="M329.641 406.32L329.641 423.256" stroke="#000000" stroke-width="0.398" fill="none" /><path id="725" transform="matrix(1 0 0 -1 0 841)" d="M444.396 406.32L444.396 423.256" stroke="#000000" stroke-width="0.398" fill="none" /><path id="726" transform="matrix(1 0 0 -1 0 841)" d="M112.511 389.383L112.511 406.319" stroke="#000000" stroke-width="0.398" fill="none" /><path id="727" transform="matrix(1 0 0 -1 0 841)" d="M329.641 389.383L329.641 406.319" stroke="#000000" stroke-width="0.398" fill="none" /><path id="740" transform="matrix(1 0 0 -1 0 841)" d="M444.396 389.383L444.396 406.319" stroke="#000000" stroke-width="0.398" fill="none" /><path id="741" transform="matrix(1 0 0 -1 0 841)" d="M112.312 389.184L444.595 389.184" stroke="#000000" stroke-width="0.398" fill="none" /><path id="742" transform="matrix(1 0 0 -1 0 841)" d="M112.511 372.048L112.511 388.984" stroke="#000000" stroke-width="0.398" fill="none" /><path id="749" transform="matrix(1 0 0 -1 0 841)" d="M329.641 372.048L329.641 388.984" stroke="#000000" stroke-width="0.398" fill="none" /><path id="758" transform="matrix(1 0 0 -1 0 841)" d="M444.396 372.048L444.396 388.984" stroke="#000000" stroke-width="0.398" fill="none" /><path id="759" transform="matrix(1 0 0 -1 0 841)" d="M112.312 371.849L444.595 371.849" stroke="#000000" stroke-width="0.398" fill="none" /><path id="760" transform="matrix(1 0 0 -1 0 841)" d="M112.511 354.713L112.511 371.649" stroke="#000000" stroke-width="0.398" fill="none" /><path id="776" transform="matrix(1 0 0 -1 0 841)" d="M329.641 354.713L329.641 371.649" stroke="#000000" stroke-width="0.398" fill="none" /><path id="795" transform="matrix(1 0 0 -1 0 841)" d="M444.396 354.713L444.396 371.649" stroke="#000000" stroke-width="0.398" fill="none" /><path id="796" transform="matrix(1 0 0 -1 0 841)" d="M112.511 337.777L112.511 354.713" stroke="#000000" stroke-width="0.398" fill="none" /><path id="808" transform="matrix(1 0 0 -1 0 841)" d="M329.641 337.777L329.641 354.713" stroke="#000000" stroke-width="0.398" fill="none" /><path id="826" transform="matrix(1 0 0 -1 0 841)" d="M444.396 337.777L444.396 354.713" stroke="#000000" stroke-width="0.398" fill="none" /><path id="827" transform="matrix(1 0 0 -1 0 841)" d="M112.511 320.84L112.511 337.776" stroke="#000000" stroke-width="0.398" fill="none" /><path id="837" transform="matrix(1 0 0 -1 0 841)" d="M329.641 320.84L329.641 337.776" stroke="#000000" stroke-width="0.398" fill="none" /><path id="838" transform="matrix(1 0 0 -1 0 841)" d="M444.396 320.84L444.396 337.776" stroke="#000000" stroke-width="0.398" fill="none" /><path id="839" transform="matrix(1 0 0 -1 0 841)" d="M112.511 303.904L112.511 320.84" stroke="#000000" stroke-width="0.398" fill="none" /><path id="851" transform="matrix(1 0 0 -1 0 841)" d="M329.641 303.904L329.641 320.84" stroke="#000000" stroke-width="0.398" fill="none" /><path id="852" transform="matrix(1 0 0 -1 0 841)" d="M444.396 303.904L444.396 320.84" stroke="#000000" stroke-width="0.398" fill="none" /><path id="853" transform="matrix(1 0 0 -1 0 841)" d="M112.312 303.704L444.595 303.704" stroke="#000000" stroke-width="0.398" fill="none" /><path id="854" transform="matrix(1 0 0 -1 0 841)" d="M112.511 286.569L112.511 303.505" stroke="#000000" stroke-width="0.398" fill="none" /><path id="859" transform="matrix(1 0 0 -1 0 841)" d="M329.641 286.569L329.641 303.505" stroke="#000000" stroke-width="0.398" fill="none" /><path id="860" transform="matrix(1 0 0 -1 0 841)" d="M444.396 286.569L444.396 303.505" stroke="#000000" stroke-width="0.398" fill="none" /><path id="861" transform="matrix(1 0 0 -1 0 841)" d="M112.312 286.369L444.595 286.369" stroke="#000000" stroke-width="0.398" fill="none" /><path id="862" transform="matrix(1 0 0 -1 0 841)" d="M112.511 269.234L112.511 286.17" stroke="#000000" stroke-width="0.398" fill="none" /><path id="874" transform="matrix(1 0 0 -1 0 841)" d="M329.641 269.234L329.641 286.17" stroke="#000000" stroke-width="0.398" fill="none" /><path id="875" transform="matrix(1 0 0 -1 0 841)" d="M444.396 269.234L444.396 286.17" stroke="#000000" stroke-width="0.398" fill="none" /><path id="876" transform="matrix(1 0 0 -1 0 841)" d="M112.511 252.297L112.511 269.233" stroke="#000000" stroke-width="0.398" fill="none" /><path id="889" transform="matrix(1 0 0 -1 0 841)" d="M329.641 252.297L329.641 269.233" stroke="#000000" stroke-width="0.398" fill="none" /><path id="890" transform="matrix(1 0 0 -1 0 841)" d="M444.396 252.297L444.396 269.233" stroke="#000000" stroke-width="0.398" fill="none" /><path id="891" transform="matrix(1 0 0 -1 0 841)" d="M112.312 252.098L444.595 252.098" stroke="#000000" stroke-width="0.398" fill="none" /><path id="1091" transform="matrix(1 0 0 -1 0 841)" d="M136.063 98.294L161.292 98.294L161.292 110.567L136.063 110.567z" stroke="none" fill="#FFF100" fill-rule="nonzero" /><path id="1096" transform="matrix(1 0 0 -1 0 841)" d="M160.571 98.294L163.287 98.294L163.287 110.567L160.571 110.567z" stroke="none" fill="#FFF100" fill-rule="nonzero" /><path id="1097" transform="matrix(1 0 0 -1 0 841)" d="M163.038 98.294L181.71 98.294L181.71 110.567L163.038 110.567z" stroke="none" fill="#FFF100" fill-rule="nonzero" /><path id="1102" transform="matrix(1 0 0 -1 0 841)" d="M181.116 98.294L183.832 98.294L183.832 110.567L181.116 110.567z" stroke="none" fill="#FFF100" fill-rule="nonzero" /><path id="1103" transform="matrix(1 0 0 -1 0 841)" d="M183.583 98.294L197.412 98.294L197.412 110.567L183.583 110.567z" stroke="none" fill="#FFF100" fill-rule="nonzero" /><path id="1107" transform="matrix(1 0 0 -1 0 841)" d="M196.91 98.294L199.626 98.294L199.626 110.567L196.91 110.567z" stroke="none" fill="#FFF100" fill-rule="nonzero" /><path id="1108" transform="matrix(1 0 0 -1 0 841)" d="M199.377 98.294L217.45 98.294L217.45 110.567L199.377 110.567z" stroke="none" fill="#FFF100" fill-rule="nonzero" /><path id="1113" transform="matrix(1 0 0 -1 0 841)" d="M216.617 98.294L220.148 98.294L220.148 110.567L216.617 110.567z" stroke="none" fill="#FFF100" fill-rule="nonzero" /><path id="1115" transform="matrix(1 0 0 -1 0 841)" d="M219.592 98.294L233.421 98.294L233.421 110.567L219.592 110.567z" stroke="none" fill="#FFF100" fill-rule="nonzero" /><path id="1119" transform="matrix(1 0 0 -1 0 841)" d="M232.919 98.294L235.635 98.294L235.635 110.567L232.919 110.567z" stroke="none" fill="#FFF100" fill-rule="nonzero" /><path id="1120" transform="matrix(1 0 0 -1 0 841)" d="M235.386 98.294L252.858 98.294L252.858 110.567L235.386 110.567z" stroke="none" fill="#FFF100" fill-rule="nonzero" /><path id="1125" transform="matrix(1 0 0 -1 0 841)" d="M252.287 98.294L255.003 98.294L255.003 110.567L252.287 110.567z" stroke="none" fill="#FFF100" fill-rule="nonzero" /><path id="1126" transform="matrix(1 0 0 -1 0 841)" d="M254.754 98.294L262.528 98.294L262.528 110.567L254.754 110.567z" stroke="none" fill="#FFF100" fill-rule="nonzero" /><path id="1129" transform="matrix(1 0 0 -1 0 841)" d="M262.141 98.294L264.857 98.294L264.857 110.567L262.141 110.567z" stroke="none" fill="#FFF100" fill-rule="nonzero" /><path id="1130" transform="matrix(1 0 0 -1 0 841)" d="M264.608 98.294L277.826 98.294L277.826 110.567L264.608 110.567z" stroke="none" fill="#FFF100" fill-rule="nonzero" /><path id="1134" transform="matrix(1 0 0 -1 0 841)" d="M277.335 98.294L280.051 98.294L280.051 110.567L277.335 110.567z" stroke="none" fill="#FFF100" fill-rule="nonzero" /><path id="1135" transform="matrix(1 0 0 -1 0 841)" d="M279.802 98.294L293.631 98.294L293.631 110.567L279.802 110.567z" stroke="none" fill="#FFF100" fill-rule="nonzero" /><path id="1139" transform="matrix(1 0 0 -1 0 841)" d="M293.129 98.294L295.845 98.294L295.845 110.567L293.129 110.567z" stroke="none" fill="#FFF100" fill-rule="nonzero" /><path id="1140" transform="matrix(1 0 0 -1 0 841)" d="M295.596 98.294L318.512 98.294L318.512 110.567L295.596 110.567z" stroke="none" fill="#FFF100" fill-rule="nonzero" /><path id="1145" transform="matrix(1 0 0 -1 0 841)" d="M317.837 98.294L320.553 98.294L320.553 110.567L317.837 110.567z" stroke="none" fill="#FFF100" fill-rule="nonzero" /><path id="1146" transform="matrix(1 0 0 -1 0 841)" d="M320.304 98.294L338.976 98.294L338.976 110.567L320.304 110.567z" stroke="none" fill="#FFF100" fill-rule="nonzero" /><path id="1150" transform="matrix(1 0 0 -1 0 841)" d="M338.133 98.294L356.805 98.294L356.805 110.567L338.133 110.567z" stroke="none" fill="#FFF100" fill-rule="nonzero" /><path id="1155" transform="matrix(1 0 0 -1 0 841)" d="M355.962 98.294L378.278 98.294L378.278 110.567L355.962 110.567z" stroke="none" fill="#FFF100" fill-rule="nonzero" /><path id="1160" transform="matrix(1 0 0 -1 0 841)" d="M377.614 98.294L380.33 98.294L380.33 110.567L377.614 110.567z" stroke="none" fill="#FFF100" fill-rule="nonzero" /><path id="1161" transform="matrix(1 0 0 -1 0 841)" d="M380.082 98.294L389.667 98.294L389.667 110.567L380.082 110.567z" stroke="none" fill="#FFF100" fill-rule="nonzero" /><path id="1164" transform="matrix(1 0 0 -1 0 841)" d="M389.245 98.294L391.961 98.294L391.961 110.567L389.245 110.567z" stroke="none" fill="#FFF100" fill-rule="nonzero" /><path id="1165" transform="matrix(1 0 0 -1 0 841)" d="M391.712 98.294L405.541 98.294L405.541 110.567L391.712 110.567z" stroke="none" fill="#FFF100" fill-rule="nonzero" /><path id="1169" transform="matrix(1 0 0 -1 0 841)" d="M405.039 98.294L407.755 98.294L407.755 110.567L405.039 110.567z" stroke="none" fill="#FFF100" fill-rule="nonzero" /><path id="1170" transform="matrix(1 0 0 -1 0 841)" d="M407.506 98.294L423.321 98.294L423.321 110.567L407.506 110.567z" stroke="none" fill="#FFF100" fill-rule="nonzero" /><path id="1174" transform="matrix(1 0 0 -1 0 841)" d="M422.523 98.294L450.119 98.294L450.119 110.567L422.523 110.567z" stroke="none" fill="#FFF100" fill-rule="nonzero" /><path id="1181" transform="matrix(1 0 0 -1 0 841)" d="M449.352 98.294L452.068 98.294L452.068 110.567L449.352 110.567z" stroke="none" fill="#FFF100" fill-rule="nonzero" /><path id="1182" transform="matrix(1 0 0 -1 0 841)" d="M451.819 98.294L466.248 98.294L466.248 110.567L451.819 110.567z" stroke="none" fill="#FFF100" fill-rule="nonzero" /><path id="1186" transform="matrix(1 0 0 -1 0 841)" d="M465.485 98.294L490.823 98.294L490.823 110.567L465.485 110.567z" stroke="none" fill="#FFF100" fill-rule="nonzero" /><path id="1193" transform="matrix(1 0 0 -1 0 841)" d="M490.102 98.294L492.818 98.294L492.818 110.567L490.102 110.567z" stroke="none" fill="#FFF100" fill-rule="nonzero" /><path id="1194" transform="matrix(1 0 0 -1 0 841)" d="M492.569 98.294L512.769 98.294L512.769 110.567L492.569 110.567z" stroke="none" fill="#FFF100" fill-rule="nonzero" /></g></g></svg>