<svg xmlns="http://www.w3.org/2000/svg" xmlns:xlink="http://www.w3.org/1999/xlink" id="body_323" preserveAspectRatio="xMinYMin meet" viewBox="0 0 793 1121"><defs><clipPath id="1"><path id="" clip-rule="evenodd" transform="matrix(1 0 0 1 0 0)" d="M0 841L0 -0.8900146L0 -0.8900146L595.276 -0.8900146L595.276 -0.8900146L595.276 841L595.276 841L0 841z" /></clipPath></defs><g transform="matrix(1.333333 0 0 1.333333 0 0)"><g clip-path="url(#1)"><path id="34" transform="matrix(1 0 0 -1 0 841)" d="M85.039 766.564L510.236 766.564" stroke="#000000" stroke-width="0.498" fill="none" /><path id="141" transform="matrix(1 0 0 -1 0 841)" d="M113.508 688.965L168.366 688.965" stroke="#000000" stroke-width="0.436" fill="none" /><path id="162" transform="matrix(1 0 0 -1 0 841)" d="M210.134 688.965L226.373 688.965" stroke="#000000" stroke-width="0.436" fill="none" /><path id="175" transform="matrix(1 0 0 -1 0 841)" d="M237.248 688.965L271.131 688.965" stroke="#000000" stroke-width="0.436" fill="none" /><path id="187" transform="matrix(1 0 0 -1 0 841)" d="M282.008 688.965L336.866 688.965" stroke="#000000" stroke-width="0.436" fill="none" /><path id="206" transform="matrix(1 0 0 -1 0 841)" d="M380.809 688.965L397.129 688.965" stroke="#000000" stroke-width="0.436" fill="none" /><path id="210" transform="matrix(1 0 0 -1 0 841)" d="M351.386 704.322L401.711 704.322" stroke="#000000" stroke-width="0.398" fill="none" /><path id="211" transform="matrix(1 0 0 -1 0 841)" d="M351.585 673.341L351.585 704.322" stroke="#000000" stroke-width="0.398" fill="none" /><path id="212" transform="matrix(1 0 0 -1 0 841)" d="M401.512 673.341L401.512 704.322" stroke="#000000" stroke-width="0.398" fill="none" /><path id="213" transform="matrix(1 0 0 -1 0 841)" d="M351.386 673.341L401.711 673.341" stroke="#000000" stroke-width="0.398" fill="none" /><path id="248" transform="matrix(1 0 0 -1 0 841)" d="M138.286 622.265L172.766 622.265" stroke="#000000" stroke-width="0.436" fill="none" /><path id="258" transform="matrix(1 0 0 -1 0 841)" d="M188.482 622.265L221.807 622.265" stroke="#000000" stroke-width="0.436" fill="none" /><path id="269" transform="matrix(1 0 0 -1 0 841)" d="M236.327 630.714L273.941 630.714" stroke="#000000" stroke-width="0.398" fill="none" /><path id="270" transform="matrix(1 0 0 -1 0 841)" d="M236.526 616.165L236.526 630.715" stroke="#000000" stroke-width="0.398" fill="none" /><path id="271" transform="matrix(1 0 0 -1 0 841)" d="M273.742 616.165L273.742 630.715" stroke="#000000" stroke-width="0.398" fill="none" /><path id="272" transform="matrix(1 0 0 -1 0 841)" d="M236.327 616.165L273.941 616.165" stroke="#000000" stroke-width="0.398" fill="none" /><path id="330" transform="matrix(1 0 0 -1 0 841)" d="M290.874 568.566L329.099 568.566" stroke="#000000" stroke-width="0.398" fill="none" /><path id="331" transform="matrix(1 0 0 -1 0 841)" d="M291.073 553.962L291.073 568.566" stroke="#000000" stroke-width="0.398" fill="none" /><path id="332" transform="matrix(1 0 0 -1 0 841)" d="M328.899 553.962L328.899 568.566" stroke="#000000" stroke-width="0.398" fill="none" /><path id="333" transform="matrix(1 0 0 -1 0 841)" d="M290.874 553.962L329.099 553.962" stroke="#000000" stroke-width="0.398" fill="none" /><path id="420" transform="matrix(1 0 0 -1 0 841)" d="M113.508 495.517L154.058 495.517" stroke="#000000" stroke-width="0.436" fill="none" /><path id="433" transform="matrix(1 0 0 -1 0 841)" d="M189.524 495.517L205.887 495.517" stroke="#000000" stroke-width="0.436" fill="none" /><path id="437" transform="matrix(1 0 0 -1 0 841)" d="M168.578 510.874L210.471 510.874" stroke="#000000" stroke-width="0.398" fill="none" /><path id="438" transform="matrix(1 0 0 -1 0 841)" d="M168.777 481.999L168.777 510.875" stroke="#000000" stroke-width="0.398" fill="none" /><path id="439" transform="matrix(1 0 0 -1 0 841)" d="M210.271 481.999L210.271 510.875" stroke="#000000" stroke-width="0.398" fill="none" /><path id="440" transform="matrix(1 0 0 -1 0 841)" d="M168.578 481.999L210.471 481.999" stroke="#000000" stroke-width="0.398" fill="none" /><path id="562" transform="matrix(1 0 0 -1 0 841)" d="M158.689 421.778L186.136 421.778" stroke="#000000" stroke-width="0.398" fill="none" /><path id="563" transform="matrix(1 0 0 -1 0 841)" d="M158.888 405.791L158.888 421.778" stroke="#000000" stroke-width="0.398" fill="none" /><path id="564" transform="matrix(1 0 0 -1 0 841)" d="M185.936 405.791L185.936 421.778" stroke="#000000" stroke-width="0.398" fill="none" /><path id="565" transform="matrix(1 0 0 -1 0 841)" d="M158.689 405.791L186.136 405.791" stroke="#000000" stroke-width="0.398" fill="none" /><path id="1014" transform="matrix(1 0 0 -1 0 841)" d="M233.649 212.92L261.096 212.92" stroke="#000000" stroke-width="0.398" fill="none" /><path id="1015" transform="matrix(1 0 0 -1 0 841)" d="M233.848 196.813L233.848 212.92" stroke="#000000" stroke-width="0.398" fill="none" /><path id="1016" transform="matrix(1 0 0 -1 0 841)" d="M260.897 196.813L260.897 212.92" stroke="#000000" stroke-width="0.398" fill="none" /><path id="1017" transform="matrix(1 0 0 -1 0 841)" d="M233.649 196.813L261.096 196.813" stroke="#000000" stroke-width="0.398" fill="none" /><path id="1138" transform="matrix(1 0 0 -1 0 841)" d="M243.067 125.924L315.895 125.924" stroke="#000000" stroke-width="0.436" fill="none" /><path id="1215" transform="matrix(1 0 0 -1 0 841)" d="M462.681 106.121L519.354 106.121" stroke="#000000" stroke-width="0.398" fill="none" /><path id="1216" transform="matrix(1 0 0 -1 0 841)" d="M462.881 90.221L462.881 106.121" stroke="#000000" stroke-width="0.398" fill="none" /><path id="1217" transform="matrix(1 0 0 -1 0 841)" d="M519.155 90.221L519.155 106.121" stroke="#000000" stroke-width="0.398" fill="none" /><path id="1218" transform="matrix(1 0 0 -1 0 841)" d="M462.681 90.221L519.354 90.221" stroke="#000000" stroke-width="0.398" fill="none" /></g></g></svg>