<svg xmlns="http://www.w3.org/2000/svg" xmlns:xlink="http://www.w3.org/1999/xlink" id="body_336" preserveAspectRatio="xMinYMin meet" viewBox="0 0 793 1121"><defs><clipPath id="1"><path id="" clip-rule="evenodd" transform="matrix(1 0 0 1 0 0)" d="M0 841L0 -0.8900146L0 -0.8900146L595.276 -0.8900146L595.276 -0.8900146L595.276 841L595.276 841L0 841z" /></clipPath></defs><g transform="matrix(1.333333 0 0 1.333333 0 0)"><g clip-path="url(#1)"><path id="23" transform="matrix(1 0 0 -1 0 841)" d="M85.039 766.564L510.236 766.564" stroke="#000000" stroke-width="0.498" fill="none" /><path id="31" transform="matrix(1 0 0 -1 0 841)" d="M154.711 744.742L167.681 744.742" stroke="#000000" stroke-width="0.436" fill="none" /><path id="54" transform="matrix(1 0 0 -1 0 841)" d="M252.711 744.742L287.26 744.742" stroke="#000000" stroke-width="0.436" fill="none" /><path id="71" transform="matrix(1 0 0 -1 0 841)" d="M301.78 752.5L351.58 752.5" stroke="#000000" stroke-width="0.398" fill="none" /><path id="72" transform="matrix(1 0 0 -1 0 841)" d="M301.979 738.586L301.979 752.5" stroke="#000000" stroke-width="0.398" fill="none" /><path id="73" transform="matrix(1 0 0 -1 0 841)" d="M351.381 738.586L351.381 752.5" stroke="#000000" stroke-width="0.398" fill="none" /><path id="74" transform="matrix(1 0 0 -1 0 841)" d="M301.78 738.586L351.58 738.586" stroke="#000000" stroke-width="0.398" fill="none" /><path id="210" transform="matrix(1 0 0 -1 0 841)" d="M169.861 640.145L212.886 640.145" stroke="#000000" stroke-width="0.436" fill="none" /><path id="233" transform="matrix(1 0 0 -1 0 841)" d="M296.106 648.057L337.429 648.057" stroke="#000000" stroke-width="0.398" fill="none" /><path id="234" transform="matrix(1 0 0 -1 0 841)" d="M296.305 634.061L296.305 648.0569" stroke="#000000" stroke-width="0.398" fill="none" /><path id="235" transform="matrix(1 0 0 -1 0 841)" d="M337.23 634.061L337.23 648.0569" stroke="#000000" stroke-width="0.398" fill="none" /><path id="236" transform="matrix(1 0 0 -1 0 841)" d="M296.106 634.061L337.429 634.061" stroke="#000000" stroke-width="0.398" fill="none" /><path id="404" transform="matrix(1 0 0 -1 0 841)" d="M389.714 568.82L416.485 568.82" stroke="#000000" stroke-width="0.398" fill="none" /><path id="405" transform="matrix(1 0 0 -1 0 841)" d="M389.913 555.02L389.913 568.82" stroke="#000000" stroke-width="0.398" fill="none" /><path id="406" transform="matrix(1 0 0 -1 0 841)" d="M416.285 555.02L416.285 568.82" stroke="#000000" stroke-width="0.398" fill="none" /><path id="407" transform="matrix(1 0 0 -1 0 841)" d="M389.714 555.02L416.485 555.02" stroke="#000000" stroke-width="0.398" fill="none" /><path id="573" transform="matrix(1 0 0 -1 0 841)" d="M243.507 381.961C 299.6335 481.1748 300.7677 481.1748 356.8942 381.961" stroke="#000000" stroke-width="0.3985" fill="none" /><path id="574" transform="matrix(1 0 0 -1 0 841)" d="M279.9009 459.6457C 279.9009 458.5245 288.9893 457.6156 300.2006 457.6156C 311.4119 457.6156 320.5003 458.5245 320.5003 459.6457L320.5003 459.6457L320.5003 477.7458C 320.5003 476.6246 311.4119 475.7157 300.2006 475.7157C 288.9893 475.7157 279.9009 476.6246 279.9009 477.7458z" stroke="none" fill="#E6E6FF" fill-rule="nonzero" /><path id="575" transform="matrix(1 0 0 -1 0 841)" d="M279.9009 477.7458C 279.9009 478.867 288.9893 479.7759 300.2006 479.7759C 311.4119 479.7759 320.5003 478.867 320.5003 477.7458C 320.5003 476.6246 311.4119 475.7157 300.2006 475.7157C 288.9893 475.7157 279.9009 476.6246 279.9009 477.7458z" stroke="none" fill="#F6ADCE" fill-rule="nonzero" /><path id="576" transform="matrix(1 0 0 -1 0 841)" d="M279.9009 477.7458C 279.9009 476.6246 288.9893 475.7157 300.2006 475.7157C 311.4119 475.7157 320.5003 476.6246 320.5003 477.7458M279.9009 459.6457C 279.9009 458.5245 288.9893 457.6156 300.2006 457.6156C 311.4119 457.6156 320.5003 458.5245 320.5003 459.6457L320.5003 459.6457L320.5003 477.7458C 320.5003 478.867 311.4119 479.7759 300.2006 479.7759C 288.9893 479.7759 279.9009 478.867 279.9009 477.7458z" stroke="#800080" stroke-width="0.3985" fill="none" /><path id="584" transform="matrix(1 0 0 -1 0 841)" d="M280.1322 475.0855C 280.1322 473.9771 289.117 473.0786 300.2006 473.0786C 311.2842 473.0786 320.2691 473.9771 320.2691 475.0855L320.2691 475.0855L320.2691 490.6224C 320.2691 489.514 311.2842 488.6154 300.2006 488.6154C 289.117 488.6154 280.1322 489.514 280.1322 490.6224z" stroke="none" fill="#FFFFFF" fill-rule="nonzero" /><path id="585" transform="matrix(1 0 0 -1 0 841)" d="M280.1322 490.6224C 280.1322 491.7308 289.117 492.6294 300.2006 492.6294C 311.2842 492.6294 320.2691 491.7308 320.2691 490.6224C 320.2691 489.514 311.2842 488.6154 300.2006 488.6154C 289.117 488.6154 280.1322 489.514 280.1322 490.6224z" stroke="none" fill="#FFFFFF" fill-rule="nonzero" /><path id="586" transform="matrix(1 0 0 -1 0 841)" d="M280.1322 490.6224C 280.1322 489.514 289.117 488.6154 300.2006 488.6154C 311.2842 488.6154 320.2691 489.514 320.2691 490.6224M280.1322 475.0855C 280.1322 473.9771 289.117 473.0786 300.2006 473.0786C 311.2842 473.0786 320.2691 473.9771 320.2691 475.0855L320.2691 475.0855L320.2691 490.6224C 320.2691 491.7308 311.2842 492.6294 300.2006 492.6294C 289.117 492.6294 280.1322 491.7308 280.1322 490.6224z" stroke="#800080" stroke-width="0.3985" fill="none" /><g transform="matrix(0.1466 0 0 0.1466 115.948 427.8378)"><g transform="matrix(1 0 0 1 0 0)"><image x="0" y="0" xlink:href="img_476.png" width="580" height="387" /></g></g><g transform="matrix(0.18834 0 0 0.18834 130.121 465.9892)"><g transform="matrix(1 0 0 1 0 0)"><image x="0" y="0" xlink:href="img_477.png" width="301" height="167" /></g></g><path id="594" transform="matrix(1 0 0 -1 0 841)" d="M158.4666 356.4491L158.4666 381.961" stroke="#000000" stroke-width="1.59404" fill="none" /><path id="595" transform="matrix(1 0 0 -1 0 841)" d="M150.5295 399.8196L150.5295 469.8363" stroke="#000000" stroke-width="1.59404" fill="none" /><path id="596" transform="matrix(1 0 0 -1 0 841)" d="M150.5295 469.8363L275.929 469.8363" stroke="#000000" stroke-width="1.59404" fill="none" /><path id="597" transform="matrix(1 0 0 -1 0 841)" d="M273.2191 474.387C 273.8598 471.6565 275.2876 470.3672 276.726 469.8362C 275.2876 469.3053 273.8598 468.016 273.2191 465.2855" stroke="#000000" stroke-width="1.59404" stroke-linecap="round" fill="none" /><path id="598" transform="matrix(1 0 0 -1 0 841)" d="M150.5295 469.8363L275.929 469.8363" stroke="#000000" stroke-width="1.59404" fill="none" /><path id="599" transform="matrix(1 0 0 -1 0 841)" d="M273.2191 474.387C 273.8598 471.6565 275.2876 470.3672 276.726 469.8362C 275.2876 469.3053 273.8598 468.016 273.2191 465.2855" stroke="#000000" stroke-width="1.59404" stroke-linecap="round" fill="none" /><path id="600" transform="matrix(1 0 0 -1 0 841)" d="M192.4827 353.6142L314.374 353.6142" stroke="#000000" stroke-width="0.3985" stroke-dasharray="7.500201,7.500201" fill="none" /><path id="601" transform="matrix(1 0 0 -1 0 841)" d="M300.2006 354.0127L300.2006 473.6896" stroke="#000000" stroke-width="0.3985" fill="none" /><path id="602" transform="matrix(1 0 0 -1 0 841)" d="M302.5917 355.8857C 301.157 355.5071 300.4796 354.6634 300.2006 353.8134C 299.9217 354.6634 299.2442 355.5071 297.8096 355.8857" stroke="#000000" stroke-width="0.3985" stroke-linecap="round" fill="none" /><path id="603" transform="matrix(1 0 0 -1 0 841)" d="M297.8096 471.8166C 299.2442 472.1952 299.9217 473.0389 300.2006 473.8889C 300.4796 473.0389 301.157 472.1952 302.5917 471.8166" stroke="#000000" stroke-width="0.3985" stroke-linecap="round" fill="none" /><path id="684" transform="matrix(1 0 0 -1 0 841)" d="M206.449 280.501L277.836 280.501" stroke="#000000" stroke-width="0.436" fill="none" /><path id="711" transform="matrix(1 0 0 -1 0 841)" d="M292.356 288.413L394.294 288.413" stroke="#000000" stroke-width="0.398" fill="none" /><path id="712" transform="matrix(1 0 0 -1 0 841)" d="M292.555 272.361L292.555 288.413" stroke="#000000" stroke-width="0.398" fill="none" /><path id="713" transform="matrix(1 0 0 -1 0 841)" d="M394.095 272.361L394.095 288.413" stroke="#000000" stroke-width="0.398" fill="none" /><path id="714" transform="matrix(1 0 0 -1 0 841)" d="M292.356 272.361L394.294 272.361" stroke="#000000" stroke-width="0.398" fill="none" /><path id="877" transform="matrix(1 0 0 -1 0 841)" d="M201.267 183.261L272.654 183.261" stroke="#000000" stroke-width="0.436" fill="none" /><path id="904" transform="matrix(1 0 0 -1 0 841)" d="M287.174 191.02L389.112 191.02" stroke="#000000" stroke-width="0.398" fill="none" /><path id="905" transform="matrix(1 0 0 -1 0 841)" d="M287.373 175.12L287.373 191.02" stroke="#000000" stroke-width="0.398" fill="none" /><path id="906" transform="matrix(1 0 0 -1 0 841)" d="M388.913 175.12L388.913 191.02" stroke="#000000" stroke-width="0.398" fill="none" /><path id="907" transform="matrix(1 0 0 -1 0 841)" d="M287.174 175.12L389.112 175.12" stroke="#000000" stroke-width="0.398" fill="none" /><path id="948" transform="matrix(1 0 0 -1 0 841)" d="M172.203 135.725L191.588 135.725" stroke="#000000" stroke-width="0.436" fill="none" /><path id="966" transform="matrix(1 0 0 -1 0 841)" d="M206.108 143.697L298.61 143.697" stroke="#000000" stroke-width="0.398" fill="none" /><path id="967" transform="matrix(1 0 0 -1 0 841)" d="M206.307 127.584L206.307 143.696" stroke="#000000" stroke-width="0.398" fill="none" /><path id="968" transform="matrix(1 0 0 -1 0 841)" d="M298.411 127.584L298.411 143.696" stroke="#000000" stroke-width="0.398" fill="none" /><path id="969" transform="matrix(1 0 0 -1 0 841)" d="M206.108 127.584L298.61 127.584" stroke="#000000" stroke-width="0.398" fill="none" /></g></g></svg>