<svg xmlns="http://www.w3.org/2000/svg" xmlns:xlink="http://www.w3.org/1999/xlink" id="body_330" preserveAspectRatio="xMinYMin meet" viewBox="0 0 793 1121"><defs><clipPath id="1"><path id="" clip-rule="evenodd" transform="matrix(1 0 0 1 0 0)" d="M0 841L0 -0.8900146L0 -0.8900146L595.276 -0.8900146L595.276 -0.8900146L595.276 841L595.276 841L0 841z" /></clipPath></defs><g transform="matrix(1.333333 0 0 1.333333 0 0)"><g clip-path="url(#1)"><path id="23" transform="matrix(1 0 0 -1 0 841)" d="M85.039 766.564L510.236 766.564" stroke="#000000" stroke-width="0.498" fill="none" /><path id="39" transform="matrix(1 0 0 -1 0 841)" d="M175.318 730.642L189.26 730.642" stroke="#000000" stroke-width="0.436" fill="none" /><path id="47" transform="matrix(1 0 0 -1 0 841)" d="M233.437 744.742L249.19 744.742" stroke="#000000" stroke-width="0.436" fill="none" /><path id="51" transform="matrix(1 0 0 -1 0 841)" d="M204.975 730.642L266.741 730.642" stroke="#000000" stroke-width="0.436" fill="none" /><path id="57" transform="matrix(1 0 0 -1 0 841)" d="M220.101 717.159L237.675 717.159" stroke="#000000" stroke-width="0.436" fill="none" /><path id="70" transform="matrix(1 0 0 -1 0 841)" d="M291.299 730.642L305.241 730.642" stroke="#000000" stroke-width="0.436" fill="none" /><path id="72" transform="matrix(1 0 0 -1 0 841)" d="M281.262 743.452L309.824 743.452" stroke="#000000" stroke-width="0.398" fill="none" /><path id="73" transform="matrix(1 0 0 -1 0 841)" d="M281.461 717.243L281.461 743.452" stroke="#000000" stroke-width="0.398" fill="none" /><path id="74" transform="matrix(1 0 0 -1 0 841)" d="M309.624 717.243L309.624 743.452" stroke="#000000" stroke-width="0.398" fill="none" /><path id="75" transform="matrix(1 0 0 -1 0 841)" d="M281.262 717.243L309.824 717.243" stroke="#000000" stroke-width="0.398" fill="none" /><path id="242" transform="matrix(1 0 0 -1 0 841)" d="M354.3337 574.5864C 354.3337 598.0699 335.297 617.1066 311.8135 617.1066C 288.3299 617.1066 269.2933 598.0699 269.2933 574.5864C 269.2933 551.1028 288.3299 532.0662 311.8135 532.0662C 335.297 532.0662 354.3337 551.1028 354.3337 574.5864z" stroke="#000000" stroke-width="0.3985" fill="#F2F2F2" fill-rule="nonzero" /><path id="243" transform="matrix(1 0 0 -1 0 841)" d="M269.2932 574.5864L354.3337 574.5864" stroke="#000000" stroke-width="1.19553" fill="none" /><path id="272" transform="matrix(1 0 0 -1 0 841)" d="M289.1359 537.7355L311.8135 574.5864" stroke="#000000" stroke-width="1.19553" fill="none" /><path id="273" transform="matrix(1 0 0 -1 0 841)" d="M334.491 537.7355L311.8135 574.5864" stroke="#000000" stroke-width="1.19553" fill="none" /><path id="277" transform="matrix(1 0 0 -1 0 841)" d="M113.508 451.378L129.261 451.378" stroke="#000000" stroke-width="0.436" fill="none" /><path id="288" transform="matrix(1 0 0 -1 0 841)" d="M167.885 451.378L185.459 451.378" stroke="#000000" stroke-width="0.436" fill="none" /><path id="308" transform="matrix(1 0 0 -1 0 841)" d="M258.648 451.378L272.59 451.378" stroke="#000000" stroke-width="0.436" fill="none" /><path id="332" transform="matrix(1 0 0 -1 0 841)" d="M399.602 451.378L413.544 451.378" stroke="#000000" stroke-width="0.436" fill="none" /><path id="338" transform="matrix(1 0 0 -1 0 841)" d="M457.132 465.478L472.885 465.478" stroke="#000000" stroke-width="0.436" fill="none" /><path id="342" transform="matrix(1 0 0 -1 0 841)" d="M430.012 451.378L500.004 451.378" stroke="#000000" stroke-width="0.436" fill="none" /><path id="349" transform="matrix(1 0 0 -1 0 841)" d="M453.364 437.895L470.938 437.895" stroke="#000000" stroke-width="0.436" fill="none" /><path id="373" transform="matrix(1 0 0 -1 0 841)" d="M175.318 398.118L189.26 398.118" stroke="#000000" stroke-width="0.436" fill="none" /><path id="380" transform="matrix(1 0 0 -1 0 841)" d="M309.486 412.217L325.239 412.217" stroke="#000000" stroke-width="0.436" fill="none" /><path id="384" transform="matrix(1 0 0 -1 0 841)" d="M204.975 398.118L424.295 398.118" stroke="#000000" stroke-width="0.436" fill="none" /><path id="404" transform="matrix(1 0 0 -1 0 841)" d="M251.761 380.228L287.691 380.228" stroke="#000000" stroke-width="0.436" fill="none" /><path id="411" transform="matrix(1 0 0 -1 0 841)" d="M298.567 380.228L386.601 380.228" stroke="#000000" stroke-width="0.436" fill="none" /><path id="443" transform="matrix(1 0 0 -1 0 841)" d="M448.853 398.118L462.795 398.118" stroke="#000000" stroke-width="0.436" fill="none" /><path id="445" transform="matrix(1 0 0 -1 0 841)" d="M438.816 410.928L467.378 410.928" stroke="#000000" stroke-width="0.398" fill="none" /><path id="446" transform="matrix(1 0 0 -1 0 841)" d="M439.015 384.719L439.015 410.928" stroke="#000000" stroke-width="0.398" fill="none" /><path id="447" transform="matrix(1 0 0 -1 0 841)" d="M467.178 384.719L467.178 410.928" stroke="#000000" stroke-width="0.398" fill="none" /><path id="448" transform="matrix(1 0 0 -1 0 841)" d="M438.816 384.719L467.378 384.719" stroke="#000000" stroke-width="0.398" fill="none" /><path id="557" transform="matrix(1 0 0 -1 0 841)" d="M354.3337 256.4694C 354.3337 279.953 335.297 298.9896 311.8135 298.9896C 288.3299 298.9896 269.2933 279.953 269.2933 256.4694C 269.2933 232.9859 288.3299 213.9492 311.8135 213.9492C 335.297 213.9492 354.3337 232.9859 354.3337 256.4694z" stroke="#000000" stroke-width="0.3985" fill="#F2F2F2" fill-rule="nonzero" /><path id="558" transform="matrix(1 0 0 -1 0 841)" d="M269.2932 256.4694L354.3337 256.4694" stroke="#000000" stroke-width="1.19553" fill="none" /><path id="585" transform="matrix(1 0 0 -1 0 841)" d="M289.1359 219.6185L311.8135 256.4694" stroke="#000000" stroke-width="1.19553" fill="none" /><path id="586" transform="matrix(1 0 0 -1 0 841)" d="M334.491 219.6185L311.8135 256.4694" stroke="#000000" stroke-width="1.19553" fill="none" /><path id="590" transform="matrix(1 0 0 -1 0 841)" d="M113.508 146.366L129.261 146.366" stroke="#000000" stroke-width="0.436" fill="none" /><path id="601" transform="matrix(1 0 0 -1 0 841)" d="M167.132 146.366L184.706 146.366" stroke="#000000" stroke-width="0.436" fill="none" /><path id="621" transform="matrix(1 0 0 -1 0 841)" d="M257.392 146.366L271.334 146.366" stroke="#000000" stroke-width="0.436" fill="none" /><path id="636" transform="matrix(1 0 0 -1 0 841)" d="M160.504 100.919L178.078 100.919" stroke="#000000" stroke-width="0.436" fill="none" /><path id="644" transform="matrix(1 0 0 -1 0 841)" d="M238.924 115.019L254.677 115.019" stroke="#000000" stroke-width="0.436" fill="none" /><path id="648" transform="matrix(1 0 0 -1 0 841)" d="M193.794 100.919L299.807 100.919" stroke="#000000" stroke-width="0.436" fill="none" /><path id="664" transform="matrix(1 0 0 -1 0 841)" d="M256.799 89.771L270.741 89.771" stroke="#000000" stroke-width="0.436" fill="none" /><path id="676" transform="matrix(1 0 0 -1 0 841)" d="M337.929 115.019L353.682 115.019" stroke="#000000" stroke-width="0.436" fill="none" /><path id="680" transform="matrix(1 0 0 -1 0 841)" d="M315.522 100.919L370.634 100.919" stroke="#000000" stroke-width="0.436" fill="none" /><path id="685" transform="matrix(1 0 0 -1 0 841)" d="M327.627 89.771L341.569 89.771" stroke="#000000" stroke-width="0.436" fill="none" /><path id="703" transform="matrix(1 0 0 -1 0 841)" d="M427.553 100.919L445.127 100.919" stroke="#000000" stroke-width="0.436" fill="none" /></g></g></svg>