<svg xmlns="http://www.w3.org/2000/svg" xmlns:xlink="http://www.w3.org/1999/xlink" id="body_317" preserveAspectRatio="xMinYMin meet" viewBox="0 0 793 1121"><defs><clipPath id="1"><path id="" clip-rule="evenodd" transform="matrix(1 0 0 1 0 0)" d="M0 841L0 -0.8900146L0 -0.8900146L595.276 -0.8900146L595.276 -0.8900146L595.276 841L595.276 841L0 841z" /></clipPath></defs><g transform="matrix(1.333333 0 0 1.333333 0 0)"><g clip-path="url(#1)"><path id="34" transform="matrix(1 0 0 -1 0 841)" d="M85.039 766.564L510.236 766.564" stroke="#000000" stroke-width="0.498" fill="none" /><path id="71" transform="matrix(1 0 0 -1 0 841)" d="M167.588 724.755L174.461 724.755" stroke="#000000" stroke-width="0.436" fill="none" /><path id="86" transform="matrix(1 0 0 -1 0 841)" d="M250.857 724.755L261.766 724.755" stroke="#000000" stroke-width="0.436" fill="none" /><path id="105" transform="matrix(1 0 0 -1 0 841)" d="M341.504 724.755L363.322 724.755" stroke="#000000" stroke-width="0.436" fill="none" /><path id="123" transform="matrix(1 0 0 -1 0 841)" d="M145.853 693.929L159.784 693.929" stroke="#000000" stroke-width="0.436" fill="none" /><path id="137" transform="matrix(1 0 0 -1 0 841)" d="M175.499 693.929L220.04 693.929" stroke="#000000" stroke-width="0.436" fill="none" /><path id="156" transform="matrix(1 0 0 -1 0 841)" d="M234.56 702.512L284.414 702.512" stroke="#000000" stroke-width="0.398" fill="none" /><path id="157" transform="matrix(1 0 0 -1 0 841)" d="M234.759 685.287L234.759 702.512" stroke="#000000" stroke-width="0.398" fill="none" /><path id="158" transform="matrix(1 0 0 -1 0 841)" d="M284.215 685.287L284.215 702.512" stroke="#000000" stroke-width="0.398" fill="none" /><path id="159" transform="matrix(1 0 0 -1 0 841)" d="M234.56 685.287L284.414 685.287" stroke="#000000" stroke-width="0.398" fill="none" /><path id="420" transform="matrix(1 0 0 -1 0 841)" d="M447.643 575.414L480.959 575.414" stroke="#000000" stroke-width="0.436" fill="none" /><path id="439" transform="matrix(1 0 0 -1 0 841)" d="M168.445 546.75L201.761 546.75" stroke="#000000" stroke-width="0.436" fill="none" /><path id="467" transform="matrix(1 0 0 -1 0 841)" d="M307.792 546.75L322.038 546.75" stroke="#000000" stroke-width="0.436" fill="none" /><path id="471" transform="matrix(1 0 0 -1 0 841)" d="M283.824 563.888L326.621 563.888" stroke="#000000" stroke-width="0.398" fill="none" /><path id="472" transform="matrix(1 0 0 -1 0 841)" d="M284.023 533.231L284.023 563.888" stroke="#000000" stroke-width="0.398" fill="none" /><path id="473" transform="matrix(1 0 0 -1 0 841)" d="M326.422 533.231L326.422 563.888" stroke="#000000" stroke-width="0.398" fill="none" /><path id="474" transform="matrix(1 0 0 -1 0 841)" d="M283.824 533.231L326.621 533.231" stroke="#000000" stroke-width="0.398" fill="none" /><path id="666" transform="matrix(1 0 0 -1 0 841)" d="M345.079 461.869L409.933 461.869" stroke="#000000" stroke-width="0.398" fill="none" /><path id="667" transform="matrix(1 0 0 -1 0 841)" d="M345.278 445.756L345.278 461.868" stroke="#000000" stroke-width="0.398" fill="none" /><path id="668" transform="matrix(1 0 0 -1 0 841)" d="M409.734 445.756L409.734 461.868" stroke="#000000" stroke-width="0.398" fill="none" /><path id="669" transform="matrix(1 0 0 -1 0 841)" d="M345.079 445.756L409.933 445.756" stroke="#000000" stroke-width="0.398" fill="none" /><path id="867" transform="matrix(1 0 0 -1 0 841)" d="M286.344 371.975L349.465 371.975" stroke="#000000" stroke-width="0.398" fill="none" /><path id="868" transform="matrix(1 0 0 -1 0 841)" d="M286.543 355.514L286.543 371.975" stroke="#000000" stroke-width="0.398" fill="none" /><path id="869" transform="matrix(1 0 0 -1 0 841)" d="M349.265 355.514L349.265 371.975" stroke="#000000" stroke-width="0.398" fill="none" /><path id="870" transform="matrix(1 0 0 -1 0 841)" d="M286.344 355.514L349.465 355.514" stroke="#000000" stroke-width="0.398" fill="none" /><path id="917" transform="matrix(1 0 0 -1 0 841)" d="M319.671 349.369L377.337 349.369" stroke="#000000" stroke-width="0.398" fill="none" /><path id="918" transform="matrix(1 0 0 -1 0 841)" d="M319.87 332.908L319.87 349.369" stroke="#000000" stroke-width="0.398" fill="none" /><path id="919" transform="matrix(1 0 0 -1 0 841)" d="M377.138 332.908L377.138 349.369" stroke="#000000" stroke-width="0.398" fill="none" /><path id="920" transform="matrix(1 0 0 -1 0 841)" d="M319.671 332.908L377.337 332.908" stroke="#000000" stroke-width="0.398" fill="none" /><path id="1141" transform="matrix(1 0 0 -1 0 841)" d="M320.054 248.599L498.259 248.599" stroke="#000000" stroke-width="0.436" fill="none" /><path id="1188" transform="matrix(1 0 0 -1 0 841)" d="M112.312 234.466L211.932 234.466" stroke="#000000" stroke-width="0.398" fill="none" /><path id="1189" transform="matrix(1 0 0 -1 0 841)" d="M112.511 217.181L112.511 234.466" stroke="#000000" stroke-width="0.398" fill="none" /><path id="1190" transform="matrix(1 0 0 -1 0 841)" d="M211.733 217.181L211.733 234.466" stroke="#000000" stroke-width="0.398" fill="none" /><path id="1191" transform="matrix(1 0 0 -1 0 841)" d="M112.312 217.181L211.932 217.181" stroke="#000000" stroke-width="0.398" fill="none" /><path id="1225" transform="matrix(1 0 0 -1 0 841)" d="M113.508 178.989L118.963 178.989" stroke="#000000" stroke-width="0.436" fill="none" /><path id="1241" transform="matrix(1 0 0 -1 0 841)" d="M203.601 178.989L219.965 178.989" stroke="#000000" stroke-width="0.436" fill="none" /><path id="1249" transform="matrix(1 0 0 -1 0 841)" d="M234.485 186.9L261.256 186.9" stroke="#000000" stroke-width="0.398" fill="none" /><path id="1250" transform="matrix(1 0 0 -1 0 841)" d="M234.684 172.904L234.684 186.9" stroke="#000000" stroke-width="0.398" fill="none" /><path id="1251" transform="matrix(1 0 0 -1 0 841)" d="M261.056 172.904L261.056 186.9" stroke="#000000" stroke-width="0.398" fill="none" /><path id="1252" transform="matrix(1 0 0 -1 0 841)" d="M234.485 172.904L261.256 172.904" stroke="#000000" stroke-width="0.398" fill="none" /><path id="1394" transform="matrix(1 0 0 -1 0 841)" d="M310.31 108.654L379.996 108.654" stroke="#000000" stroke-width="0.436" fill="none" /></g></g></svg>