<svg xmlns="http://www.w3.org/2000/svg" xmlns:xlink="http://www.w3.org/1999/xlink" id="body_329" preserveAspectRatio="xMinYMin meet" viewBox="0 0 793 1121"><defs><clipPath id="1"><path id="" clip-rule="evenodd" transform="matrix(1 0 0 1 0 0)" d="M0 841L0 -0.8900146L0 -0.8900146L595.276 -0.8900146L595.276 -0.8900146L595.276 841L595.276 841L0 841z" /></clipPath></defs><g transform="matrix(1.333333 0 0 1.333333 0 0)"><g clip-path="url(#1)"><path id="34" transform="matrix(1 0 0 -1 0 841)" d="M85.039 766.564L510.236 766.564" stroke="#000000" stroke-width="0.498" fill="none" /><path id="50" transform="matrix(1 0 0 -1 0 841)" d="M132.893 723.561L147.391 723.561" stroke="#000000" stroke-width="0.436" fill="none" /><path id="67" transform="matrix(1 0 0 -1 0 841)" d="M219.204 723.561L233.702 723.561" stroke="#000000" stroke-width="0.436" fill="none" /><path id="71" transform="matrix(1 0 0 -1 0 841)" d="M189.781 738.918L238.284 738.918" stroke="#000000" stroke-width="0.398" fill="none" /><path id="72" transform="matrix(1 0 0 -1 0 841)" d="M189.98 707.937L189.98 738.918" stroke="#000000" stroke-width="0.398" fill="none" /><path id="73" transform="matrix(1 0 0 -1 0 841)" d="M238.085 707.937L238.085 738.918" stroke="#000000" stroke-width="0.398" fill="none" /><path id="74" transform="matrix(1 0 0 -1 0 841)" d="M189.781 707.937L238.284 707.937" stroke="#000000" stroke-width="0.398" fill="none" /><path id="172" transform="matrix(1 0 0 -1 0 841)" d="M132.893 631.803L149.383 631.803" stroke="#000000" stroke-width="0.436" fill="none" /><path id="199" transform="matrix(1 0 0 -1 0 841)" d="M257.081 631.803L271.579 631.803" stroke="#000000" stroke-width="0.436" fill="none" /><path id="203" transform="matrix(1 0 0 -1 0 841)" d="M227.658 647.16L276.161 647.16" stroke="#000000" stroke-width="0.398" fill="none" /><path id="204" transform="matrix(1 0 0 -1 0 841)" d="M227.857 616.178L227.857 647.159" stroke="#000000" stroke-width="0.398" fill="none" /><path id="205" transform="matrix(1 0 0 -1 0 841)" d="M275.962 616.178L275.962 647.159" stroke="#000000" stroke-width="0.398" fill="none" /><path id="206" transform="matrix(1 0 0 -1 0 841)" d="M227.658 616.178L276.161 616.178" stroke="#000000" stroke-width="0.398" fill="none" /><path id="341" transform="matrix(1 0 0 -1 0 841)" d="M354.3337 515.0204C 354.3337 538.504 335.297 557.5406 311.8135 557.5406C 288.3299 557.5406 269.2933 538.504 269.2933 515.0204C 269.2933 491.5369 288.3299 472.5002 311.8135 472.5002C 335.297 472.5002 354.3337 491.5369 354.3337 515.0204z" stroke="#000000" stroke-width="0.3985" fill="#F2F2F2" fill-rule="nonzero" /><path id="342" transform="matrix(1 0 0 -1 0 841)" d="M269.2932 515.0204L354.3337 515.0204" stroke="#000000" stroke-width="1.19553" fill="none" /><path id="369" transform="matrix(1 0 0 -1 0 841)" d="M289.1359 478.1695L311.8135 515.0204" stroke="#000000" stroke-width="1.19553" fill="none" /><path id="370" transform="matrix(1 0 0 -1 0 841)" d="M334.491 478.1695L311.8135 515.0204" stroke="#000000" stroke-width="1.19553" fill="none" /><path id="374" transform="matrix(1 0 0 -1 0 841)" d="M113.508 397.663L129.261 397.663" stroke="#000000" stroke-width="0.436" fill="none" /><path id="385" transform="matrix(1 0 0 -1 0 841)" d="M167.132 397.663L184.706 397.663" stroke="#000000" stroke-width="0.436" fill="none" /><path id="405" transform="matrix(1 0 0 -1 0 841)" d="M257.392 397.663L271.334 397.663" stroke="#000000" stroke-width="0.436" fill="none" /><path id="415" transform="matrix(1 0 0 -1 0 841)" d="M113.508 362.869L129.261 362.869" stroke="#000000" stroke-width="0.436" fill="none" /><path id="433" transform="matrix(1 0 0 -1 0 841)" d="M155.885 362.869L189.339 362.869" stroke="#000000" stroke-width="0.436" fill="none" /><path id="449" transform="matrix(1 0 0 -1 0 841)" d="M222.033 362.869L241 362.869" stroke="#000000" stroke-width="0.436" fill="none" /><path id="456" transform="matrix(1 0 0 -1 0 841)" d="M251.876 362.869L337.434 362.869" stroke="#000000" stroke-width="0.436" fill="none" /><path id="482" transform="matrix(1 0 0 -1 0 841)" d="M359.218 362.869L373.16 362.869" stroke="#000000" stroke-width="0.436" fill="none" /><path id="497" transform="matrix(1 0 0 -1 0 841)" d="M439.518 362.869L455.838 362.869" stroke="#000000" stroke-width="0.436" fill="none" /><path id="501" transform="matrix(1 0 0 -1 0 841)" d="M415.55 378.226L460.421 378.226" stroke="#000000" stroke-width="0.398" fill="none" /><path id="502" transform="matrix(1 0 0 -1 0 841)" d="M415.749 347.245L415.749 378.226" stroke="#000000" stroke-width="0.398" fill="none" /><path id="503" transform="matrix(1 0 0 -1 0 841)" d="M460.222 347.245L460.222 378.226" stroke="#000000" stroke-width="0.398" fill="none" /><path id="504" transform="matrix(1 0 0 -1 0 841)" d="M415.55 347.245L460.421 347.245" stroke="#000000" stroke-width="0.398" fill="none" /><path id="660" transform="matrix(1 0 0 -1 0 841)" d="M354.3337 237.0724C 354.3337 260.556 335.297 279.5926 311.8135 279.5926C 288.3299 279.5926 269.2933 260.556 269.2933 237.0724C 269.2933 213.5889 288.3299 194.5522 311.8135 194.5522C 335.297 194.5522 354.3337 213.5889 354.3337 237.0724z" stroke="#000000" stroke-width="0.3985" fill="#F2F2F2" fill-rule="nonzero" /><path id="661" transform="matrix(1 0 0 -1 0 841)" d="M269.2932 237.0724L354.3337 237.0724" stroke="#000000" stroke-width="1.19553" fill="none" /><path id="690" transform="matrix(1 0 0 -1 0 841)" d="M289.1359 200.2215L311.8135 237.0724" stroke="#000000" stroke-width="1.19553" fill="none" /><path id="691" transform="matrix(1 0 0 -1 0 841)" d="M334.491 200.2215L311.8135 237.0724" stroke="#000000" stroke-width="1.19553" fill="none" /><path id="695" transform="matrix(1 0 0 -1 0 841)" d="M113.508 105.616L129.261 105.616" stroke="#000000" stroke-width="0.436" fill="none" /><path id="706" transform="matrix(1 0 0 -1 0 841)" d="M167.885 105.616L185.459 105.616" stroke="#000000" stroke-width="0.436" fill="none" /><path id="726" transform="matrix(1 0 0 -1 0 841)" d="M258.648 105.616L272.59 105.616" stroke="#000000" stroke-width="0.436" fill="none" /><path id="750" transform="matrix(1 0 0 -1 0 841)" d="M399.602 105.616L413.544 105.616" stroke="#000000" stroke-width="0.436" fill="none" /><path id="756" transform="matrix(1 0 0 -1 0 841)" d="M457.132 119.715L472.885 119.715" stroke="#000000" stroke-width="0.436" fill="none" /><path id="760" transform="matrix(1 0 0 -1 0 841)" d="M430.012 105.616L500.004 105.616" stroke="#000000" stroke-width="0.436" fill="none" /><path id="767" transform="matrix(1 0 0 -1 0 841)" d="M453.364 92.133L470.938 92.133" stroke="#000000" stroke-width="0.436" fill="none" /></g></g></svg>