<svg xmlns="http://www.w3.org/2000/svg" xmlns:xlink="http://www.w3.org/1999/xlink" id="body_83" preserveAspectRatio="xMinYMin meet" viewBox="0 0 793 1121"><defs><clipPath id="1"><path id="" clip-rule="evenodd" transform="matrix(1 0 0 1 0 0)" d="M0 841L0 -0.8900146L0 -0.8900146L595.276 -0.8900146L595.276 -0.8900146L595.276 841L595.276 841L0 841z" /></clipPath></defs><g transform="matrix(1.333333 0 0 1.333333 0 0)"><g clip-path="url(#1)"><path id="18" transform="matrix(1 0 0 -1 0 841)" d="M85.039 766.564L510.236 766.564" stroke="#000000" stroke-width="0.498" fill="none" /><path id="75" transform="matrix(1 0 0 -1 0 841)" d="M153.498 743.647L190.883 743.647" stroke="#000000" stroke-width="0.398" fill="none" /><path id="76" transform="matrix(1 0 0 -1 0 841)" d="M153.697 725.154L153.697 743.647" stroke="#000000" stroke-width="0.398" fill="none" /><path id="77" transform="matrix(1 0 0 -1 0 841)" d="M190.684 725.154L190.684 743.647" stroke="#000000" stroke-width="0.398" fill="none" /><path id="78" transform="matrix(1 0 0 -1 0 841)" d="M153.498 725.154L190.883 725.154" stroke="#000000" stroke-width="0.398" fill="none" /><path id="166" transform="matrix(1 0 0 -1 0 841)" d="M181.368 709.774L228.441 709.774" stroke="#000000" stroke-width="0.398" fill="none" /><path id="167" transform="matrix(1 0 0 -1 0 841)" d="M181.567 691.281L181.567 709.774" stroke="#000000" stroke-width="0.398" fill="none" /><path id="168" transform="matrix(1 0 0 -1 0 841)" d="M228.242 691.281L228.242 709.774" stroke="#000000" stroke-width="0.398" fill="none" /><path id="169" transform="matrix(1 0 0 -1 0 841)" d="M181.368 691.281L228.441 691.281" stroke="#000000" stroke-width="0.398" fill="none" /><path id="372" transform="matrix(1 0 0 -1 0 841)" d="M138.653 545.1124L98.96808 564.9549L167.0057 585.218L206.686 574.8769z" stroke="none" fill="#CCCCCC" fill-rule="nonzero" /><path id="373" transform="matrix(1 0 0 -1 0 841)" d="M98.96808 564.9549L98.96808 610.3099L167.0066 618.9952L167.0057 585.218z" stroke="none" fill="#BFBFBF" fill-rule="nonzero" /><path id="382" transform="matrix(1 0 0 -1 0 841)" d="M167.0066 618.9952L167.0057 585.218L206.686 574.8769L206.686 614.5622z" stroke="none" fill="#F2F2F2" fill-rule="nonzero" fill-opacity="0.2" /><path id="391" transform="matrix(1 0 0 -1 0 841)" d="M138.653 601.806L138.653 545.1124L98.96808 564.9549L98.96808 610.3099z" stroke="none" fill="#F2F2F2" fill-rule="nonzero" fill-opacity="0.4980392" /><path id="400" transform="matrix(1 0 0 -1 0 841)" d="M138.653 601.806L98.96808 610.3099L167.0066 618.9952L206.686 614.5622z" stroke="none" fill="#CCCCCC" fill-rule="nonzero" fill-opacity="0.2" /><path id="401" transform="matrix(1 0 0 -1 0 841)" d="M167.0066 618.9952L167.0057 585.218" stroke="#000000" stroke-width="0.79701" stroke-dasharray="3.750053,3.750053" fill="none" /><path id="402" transform="matrix(1 0 0 -1 0 841)" d="M98.96808 564.9549L167.0057 585.218" stroke="#000000" stroke-width="0.79701" stroke-dasharray="3.750053,3.750053" fill="none" /><path id="403" transform="matrix(1 0 0 -1 0 841)" d="M206.686 574.8769L167.0057 585.218" stroke="#000000" stroke-width="0.79701" stroke-dasharray="3.750053,3.750053" fill="none" /><path id="412" transform="matrix(1 0 0 -1 0 841)" d="M138.653 601.806L138.653 545.1124" stroke="#000000" stroke-width="0.79701" fill="none" /><path id="413" transform="matrix(1 0 0 -1 0 841)" d="M87.62868 612.1794L87.62868 565.3536" stroke="#000000" stroke-width="0.3985" fill="none" /><path id="414" transform="matrix(1 0 0 -1 0 841)" d="M85.23764 610.3064C 86.67229 610.685 87.34972 611.5287 87.62868 612.3787C 87.90763 611.5287 88.58507 610.685 90.01971 610.3064" stroke="#000000" stroke-width="0.3985" stroke-linecap="round" fill="none" /><path id="415" transform="matrix(1 0 0 -1 0 841)" d="M90.01971 567.2266C 88.58507 566.848 87.90763 566.0043 87.62868 565.1544C 87.34972 566.0043 86.67229 566.848 85.23764 567.2266" stroke="#000000" stroke-width="0.3985" stroke-linecap="round" fill="none" /><path id="426" transform="matrix(1 0 0 -1 0 841)" d="M93.6488 561.9318L129.798 542.4665" stroke="#000000" stroke-width="0.3985" fill="none" /><path id="427" transform="matrix(1 0 0 -1 0 841)" d="M94.16428 558.9387C 94.51111 560.3812 94.08949 561.3776 93.47339 562.0262C 94.35398 561.8688 95.41792 562.0653 96.43137 563.1489" stroke="#000000" stroke-width="0.3984783" stroke-linecap="round" fill="none" /><path id="428" transform="matrix(1 0 0 -1 0 841)" d="M129.2825 545.4595C 128.9357 544.017 129.3573 543.0206 129.9734 542.372C 129.0928 542.5294 128.0289 542.3329 127.0155 541.2493" stroke="#000000" stroke-width="0.3984783" stroke-linecap="round" fill="none" /><path id="439" transform="matrix(1 0 0 -1 0 841)" d="M211.9909 569.6118L144.6862 539.6054" stroke="#000000" stroke-width="0.3985" fill="none" /><path id="440" transform="matrix(1 0 0 -1 0 841)" d="M209.3067 571.0328C 210.2366 569.8767 211.283 569.6016 212.1729 569.6929C 211.5102 569.092 211.0155 568.1298 211.2539 566.6653" stroke="#000000" stroke-width="0.3984862" stroke-linecap="round" fill="none" /><path id="441" transform="matrix(1 0 0 -1 0 841)" d="M147.3704 538.1843C 146.4405 539.3404 145.3941 539.6155 144.5042 539.5242C 145.1669 540.1251 145.6616 541.0873 145.4232 542.5518" stroke="#000000" stroke-width="0.3984862" stroke-linecap="round" fill="none" /><path id="451" transform="matrix(1 0 0 -1 0 841)" d="M98.96808 564.9549L98.96808 610.3099" stroke="#000000" stroke-width="0.79701" fill="none" /><path id="452" transform="matrix(1 0 0 -1 0 841)" d="M206.686 574.8769L206.686 614.5622" stroke="#000000" stroke-width="0.79701" fill="none" /><path id="453" transform="matrix(1 0 0 -1 0 841)" d="M138.653 601.806L98.96808 610.3099" stroke="#000000" stroke-width="0.79701" fill="none" /><path id="454" transform="matrix(1 0 0 -1 0 841)" d="M138.653 601.806L206.686 614.5622" stroke="#000000" stroke-width="0.79701" fill="none" /><path id="455" transform="matrix(1 0 0 -1 0 841)" d="M138.653 545.1124L98.96808 564.9549" stroke="#000000" stroke-width="0.79701" fill="none" /><path id="456" transform="matrix(1 0 0 -1 0 841)" d="M138.653 545.1124L206.686 574.8769" stroke="#000000" stroke-width="0.79701" fill="none" /><path id="457" transform="matrix(1 0 0 -1 0 841)" d="M98.96808 610.3099L167.0066 618.9952" stroke="#000000" stroke-width="0.79701" fill="none" /><path id="458" transform="matrix(1 0 0 -1 0 841)" d="M206.686 614.5622L167.0066 618.9952" stroke="#000000" stroke-width="0.79701" fill="none" /><path id="530" transform="matrix(1 0 0 -1 0 841)" d="M137.469 492.927L151.967 492.927" stroke="#000000" stroke-width="0.436" fill="none" /><path id="558" transform="matrix(1 0 0 -1 0 841)" d="M255.38 492.927L295.678 492.927" stroke="#000000" stroke-width="0.436" fill="none" /><path id="567" transform="matrix(1 0 0 -1 0 841)" d="M276.462 475.122L290.96 475.122" stroke="#000000" stroke-width="0.436" fill="none" /><path id="581" transform="matrix(1 0 0 -1 0 841)" d="M310.188 500.899L366.566 500.899" stroke="#000000" stroke-width="0.398" fill="none" /><path id="582" transform="matrix(1 0 0 -1 0 841)" d="M310.387 484.786L310.387 500.898" stroke="#000000" stroke-width="0.398" fill="none" /><path id="583" transform="matrix(1 0 0 -1 0 841)" d="M366.366 484.786L366.366 500.898" stroke="#000000" stroke-width="0.398" fill="none" /><path id="584" transform="matrix(1 0 0 -1 0 841)" d="M310.188 484.786L366.566 484.786" stroke="#000000" stroke-width="0.398" fill="none" /><path id="702" transform="matrix(1 0 0 -1 0 841)" d="M269.694 405.427L302.595 405.427" stroke="#000000" stroke-width="0.398" fill="none" /><path id="703" transform="matrix(1 0 0 -1 0 841)" d="M269.893 389.44L269.893 405.427" stroke="#000000" stroke-width="0.398" fill="none" /><path id="704" transform="matrix(1 0 0 -1 0 841)" d="M302.396 389.44L302.396 405.427" stroke="#000000" stroke-width="0.398" fill="none" /><path id="705" transform="matrix(1 0 0 -1 0 841)" d="M269.694 389.44L302.595 389.44" stroke="#000000" stroke-width="0.398" fill="none" /><path id="793" transform="matrix(1 0 0 -1 0 841)" d="M161.751 293.846L168.624 293.846" stroke="#000000" stroke-width="0.436" fill="none" /><path id="832" transform="matrix(1 0 0 -1 0 841)" d="M136.759 270.53L161.599 270.53" stroke="#000000" stroke-width="0.436" fill="none" /><path id="843" transform="matrix(1 0 0 -1 0 841)" d="M220.346 277.165L250.64 277.165" stroke="#000000" stroke-width="0.425" fill="none" /><path id="855" transform="matrix(1 0 0 -1 0 841)" d="M263.965 278.322L291.412 278.322" stroke="#000000" stroke-width="0.398" fill="none" /><path id="856" transform="matrix(1 0 0 -1 0 841)" d="M264.165 262.335L264.165 278.322" stroke="#000000" stroke-width="0.398" fill="none" /><path id="857" transform="matrix(1 0 0 -1 0 841)" d="M291.213 262.335L291.213 278.322" stroke="#000000" stroke-width="0.398" fill="none" /><path id="858" transform="matrix(1 0 0 -1 0 841)" d="M263.965 262.335L291.412 262.335" stroke="#000000" stroke-width="0.398" fill="none" /><path id="950" transform="matrix(1 0 0 -1 0 841)" d="M90.90784 154.205C 90.90784 158.9017 89.63864 162.7091 88.073 162.7091C 86.50735 162.7091 85.23816 158.9017 85.23816 154.205C 85.23816 149.5083 86.50735 145.7009 88.073 145.7009C 89.63864 145.7009 90.90784 149.5083 90.90784 154.205z" stroke="#000000" stroke-width="0.3985" fill="none" /><path id="951" transform="matrix(1 0 0 -1 0 841)" d="M374.3759 154.205C 374.3759 158.9017 373.1068 162.7091 371.5411 162.7091C 369.9754 162.7091 368.7062 158.9017 368.7062 154.205C 368.7062 149.5083 369.9754 145.7009 371.5411 145.7009C 373.1068 145.7009 374.3759 149.5083 374.3759 154.205z" stroke="#000000" stroke-width="0.3985" fill="none" /><path id="952" transform="matrix(1 0 0 -1 0 841)" d="M88.073 145.9846L371.5411 145.9846" stroke="#000000" stroke-width="0.3985" fill="none" /><path id="953" transform="matrix(1 0 0 -1 0 841)" d="M88.073 162.4254L371.5411 162.4254" stroke="#000000" stroke-width="0.3985" fill="none" /><path id="954" transform="matrix(1 0 0 -1 0 841)" d="M371.5411 146.6665L371.5411 161.7435" stroke="#000000" stroke-width="0.3985" fill="none" /><path id="955" transform="matrix(1 0 0 -1 0 841)" d="M373.9322 148.5394C 372.4975 148.1608 371.8201 147.3172 371.5411 146.4672C 371.2621 147.3172 370.5847 148.1608 369.1501 148.5394" stroke="#000000" stroke-width="0.3985" stroke-linecap="round" fill="none" /><path id="956" transform="matrix(1 0 0 -1 0 841)" d="M369.1501 159.8706C 370.5847 160.2491 371.2621 161.0928 371.5411 161.9428C 371.8201 161.0928 372.4975 160.2491 373.9322 159.8706" stroke="#000000" stroke-width="0.3985" stroke-linecap="round" fill="none" /><path id="968" transform="matrix(1 0 0 -1 0 841)" d="M88.4715 134.9294L371.1426 134.9294" stroke="#000000" stroke-width="0.3985" fill="none" /><path id="969" transform="matrix(1 0 0 -1 0 841)" d="M90.34449 132.5383C 89.9659 133.973 89.12224 134.6504 88.27225 134.9294C 89.12224 135.2083 89.9659 135.8858 90.34449 137.3204" stroke="#000000" stroke-width="0.3985" stroke-linecap="round" fill="none" /><path id="970" transform="matrix(1 0 0 -1 0 841)" d="M369.2696 137.3204C 369.6482 135.8858 370.4919 135.2083 371.3418 134.9294C 370.4919 134.6504 369.6482 133.973 369.2696 132.5383" stroke="#000000" stroke-width="0.3985" stroke-linecap="round" fill="none" /><path id="990" transform="matrix(1 0 0 -1 0 841)" d="M86.235 94.987L93.108 94.987" stroke="#000000" stroke-width="0.436" fill="none" /><path id="1005" transform="matrix(1 0 0 -1 0 841)" d="M175.603 94.987L186.512 94.987" stroke="#000000" stroke-width="0.436" fill="none" /><path id="1031" transform="matrix(1 0 0 -1 0 841)" d="M266.864 94.987L300.103 94.987" stroke="#000000" stroke-width="0.436" fill="none" /><path id="1048" transform="matrix(1 0 0 -1 0 841)" d="M314.623 102.959L376.455 102.959" stroke="#000000" stroke-width="0.398" fill="none" /><path id="1049" transform="matrix(1 0 0 -1 0 841)" d="M314.822 86.847L314.822 102.959" stroke="#000000" stroke-width="0.398" fill="none" /><path id="1050" transform="matrix(1 0 0 -1 0 841)" d="M376.256 86.847L376.256 102.959" stroke="#000000" stroke-width="0.398" fill="none" /><path id="1051" transform="matrix(1 0 0 -1 0 841)" d="M314.623 86.847L376.455 86.847" stroke="#000000" stroke-width="0.398" fill="none" /></g></g></svg>