<svg xmlns="http://www.w3.org/2000/svg" xmlns:xlink="http://www.w3.org/1999/xlink" id="body_337" preserveAspectRatio="xMinYMin meet" viewBox="0 0 793 1121"><defs><clipPath id="1"><path id="" clip-rule="evenodd" transform="matrix(1 0 0 1 0 0)" d="M0 841L0 -0.8900146L0 -0.8900146L595.276 -0.8900146L595.276 -0.8900146L595.276 841L595.276 841L0 841z" /></clipPath></defs><g transform="matrix(1.333333 0 0 1.333333 0 0)"><g clip-path="url(#1)"><path id="34" transform="matrix(1 0 0 -1 0 841)" d="M85.039 766.564L510.236 766.564" stroke="#000000" stroke-width="0.498" fill="none" /><g transform="matrix(0.06 0 0 0.06 112.312 113.222)"><g transform="matrix(1 0 0 1 0 0)"><image x="0" y="0" xlink:href="img_323.png" width="3009" height="713" /></g></g><g transform="matrix(0.06981818 0 0 0.06981815 112.312 162.6688)"><g transform="matrix(1 0 0 1 0 0)"><image x="0" y="0" xlink:href="img_479.png" width="1585" height="521" /></g></g><path id="54" transform="matrix(1 0 0 -1 0 841)" d="M251.883 644.684L291.265 644.684" stroke="#000000" stroke-width="0.436" fill="none" /><path id="70" transform="matrix(1 0 0 -1 0 841)" d="M333.654 652.5949L360.425 652.5949" stroke="#000000" stroke-width="0.398" fill="none" /><path id="71" transform="matrix(1 0 0 -1 0 841)" d="M333.854 638.5989L333.854 652.5949" stroke="#000000" stroke-width="0.398" fill="none" /><path id="72" transform="matrix(1 0 0 -1 0 841)" d="M360.226 638.5989L360.226 652.5949" stroke="#000000" stroke-width="0.398" fill="none" /><path id="73" transform="matrix(1 0 0 -1 0 841)" d="M333.654 638.5989L360.425 638.5989" stroke="#000000" stroke-width="0.398" fill="none" /><g transform="matrix(0.06 0 0 0.06 112.312 272.7251)"><g transform="matrix(1 0 0 1 0 0)"><image x="0" y="0" xlink:href="img_323.png" width="3009" height="713" /></g></g><g transform="matrix(0.08727273 0 0 0.0872727 112.312 322.169)"><g transform="matrix(1 0 0 1 0 0)"><image x="0" y="0" xlink:href="img_479.png" width="1585" height="521" /></g></g><path id="203" transform="matrix(1 0 0 -1 0 841)" d="M279.543 476.0889L340.47 476.0889" stroke="#000000" stroke-width="0.436" fill="none" /><path id="221" transform="matrix(1 0 0 -1 0 841)" d="M382.86 483.9999L409.631 483.9999" stroke="#000000" stroke-width="0.398" fill="none" /><path id="222" transform="matrix(1 0 0 -1 0 841)" d="M383.06 470.0049L383.06 484.0009" stroke="#000000" stroke-width="0.398" fill="none" /><path id="223" transform="matrix(1 0 0 -1 0 841)" d="M409.432 470.0049L409.432 484.0009" stroke="#000000" stroke-width="0.398" fill="none" /><path id="224" transform="matrix(1 0 0 -1 0 841)" d="M382.86 470.0049L409.631 470.0049" stroke="#000000" stroke-width="0.398" fill="none" /></g></g></svg>