<svg xmlns="http://www.w3.org/2000/svg" xmlns:xlink="http://www.w3.org/1999/xlink" id="body_226" preserveAspectRatio="xMinYMin meet" viewBox="0 0 793 1121"><defs><clipPath id="1"><path id="" clip-rule="evenodd" transform="matrix(1 0 0 1 0 0)" d="M0 841L0 -0.8900146L0 -0.8900146L595.276 -0.8900146L595.276 -0.8900146L595.276 841L595.276 841L0 841z" /></clipPath></defs><g transform="matrix(1.333333 0 0 1.333333 0 0)"><g clip-path="url(#1)"><path id="29" transform="matrix(1 0 0 -1 0 841)" d="M85.039 766.564L510.236 766.564" stroke="#000000" stroke-width="0.498" fill="none" /><path id="50" transform="matrix(1 0 0 -1 0 841)" d="M86.235 732.793L152.049 732.793" stroke="#000000" stroke-width="0.436" fill="none" /><path id="63" transform="matrix(1 0 0 -1 0 841)" d="M162.924 732.793L192.189 732.793" stroke="#000000" stroke-width="0.436" fill="none" /><path id="75" transform="matrix(1 0 0 -1 0 841)" d="M203.065 732.793L231.37 732.793" stroke="#000000" stroke-width="0.436" fill="none" /><path id="92" transform="matrix(1 0 0 -1 0 841)" d="M250.473 732.793L315.219 732.793" stroke="#000000" stroke-width="0.436" fill="none" /><path id="96" transform="matrix(1 0 0 -1 0 841)" d="M245.89 748.15L319.801 748.15" stroke="#000000" stroke-width="0.398" fill="none" /><path id="97" transform="matrix(1 0 0 -1 0 841)" d="M246.09 717.168L246.09 748.149" stroke="#000000" stroke-width="0.398" fill="none" /><path id="98" transform="matrix(1 0 0 -1 0 841)" d="M319.603 717.168L319.603 748.149" stroke="#000000" stroke-width="0.398" fill="none" /><path id="99" transform="matrix(1 0 0 -1 0 841)" d="M245.89 717.168L319.801 717.168" stroke="#000000" stroke-width="0.398" fill="none" /><path id="216" transform="matrix(1 0 0 -1 0 841)" d="M86.235 658.047L152.049 658.047" stroke="#000000" stroke-width="0.436" fill="none" /><path id="233" transform="matrix(1 0 0 -1 0 841)" d="M162.924 658.047L197.644 658.047" stroke="#000000" stroke-width="0.436" fill="none" /><path id="251" transform="matrix(1 0 0 -1 0 841)" d="M230.338 658.047L248.694 658.047" stroke="#000000" stroke-width="0.436" fill="none" /><path id="271" transform="matrix(1 0 0 -1 0 841)" d="M267.797 658.047L354.208 658.047" stroke="#000000" stroke-width="0.436" fill="none" /><path id="275" transform="matrix(1 0 0 -1 0 841)" d="M263.214 673.404L358.791 673.404" stroke="#000000" stroke-width="0.398" fill="none" /><path id="276" transform="matrix(1 0 0 -1 0 841)" d="M263.413 642.422L263.413 673.403" stroke="#000000" stroke-width="0.398" fill="none" /><path id="277" transform="matrix(1 0 0 -1 0 841)" d="M358.592 642.422L358.592 673.403" stroke="#000000" stroke-width="0.398" fill="none" /><path id="278" transform="matrix(1 0 0 -1 0 841)" d="M263.214 642.422L358.791 642.422" stroke="#000000" stroke-width="0.398" fill="none" /><path id="498" transform="matrix(1 0 0 -1 0 841)" d="M198.624 516.3996L85.23676 516.3996L85.23676 516.3996L85.23676 473.8794L85.23676 473.8794L198.624 473.8794z" stroke="#000000" stroke-width="0.3985" fill="#E3F5FD" fill-rule="nonzero" /><path id="499" transform="matrix(1 0 0 -1 0 841)" d="M198.624 516.3996L220.4507 538.2263L220.4507 538.2263L220.4507 495.7061L220.4507 495.7061L198.624 473.8794z" stroke="#000000" stroke-width="0.3985" fill="#FFFFFF" fill-rule="nonzero" /><path id="500" transform="matrix(1 0 0 -1 0 841)" d="M198.624 516.3996L220.4507 538.2263L220.4507 538.2263L220.4507 495.7061L220.4507 495.7061L198.624 473.8794z" stroke="#000000" stroke-width="0.3985" fill="#E3F5FD" fill-rule="nonzero" /><path id="501" transform="matrix(1 0 0 -1 0 841)" d="M85.23676 530.573L107.0635 552.3997L107.0635 552.3997L107.0635 538.2263L107.0635 538.2263L85.23676 516.3996z" stroke="#000000" stroke-width="0.3985" fill="none" /><path id="502" transform="matrix(1 0 0 -1 0 841)" d="M198.624 516.3996L85.23676 516.3996L85.23676 516.3996L107.0635 538.2263L107.0635 538.2263L220.4507 538.2263z" stroke="#000000" stroke-width="0.3985" fill="none" /><path id="503" transform="matrix(1 0 0 -1 0 841)" d="M198.624 530.573L85.23676 530.573L85.23676 530.573L85.23676 516.3996L85.23676 516.3996L198.624 516.3996z" stroke="#000000" stroke-width="0.3985" fill="#FFFFFF" fill-rule="nonzero" /><path id="504" transform="matrix(1 0 0 -1 0 841)" d="M198.624 530.573L220.4507 552.3997L220.4507 552.3997L220.4507 538.2263L220.4507 538.2263L198.624 516.3996z" stroke="#000000" stroke-width="0.3985" fill="#FFFFFF" fill-rule="nonzero" /><path id="505" transform="matrix(1 0 0 -1 0 841)" d="M198.624 530.573L220.4507 552.3997L220.4507 552.3997L220.4507 538.2263L220.4507 538.2263L198.624 516.3996z" stroke="#000000" stroke-width="0.3985" fill="#FFFFFF" fill-rule="nonzero" /><path id="506" transform="matrix(1 0 0 -1 0 841)" d="M198.624 530.573L85.23676 530.573L85.23676 530.573L107.0635 552.3997L107.0635 552.3997L220.4507 552.3997z" stroke="#000000" stroke-width="0.3985" fill="#FFFFFF" fill-rule="nonzero" /><path id="507" transform="matrix(1 0 0 -1 0 841)" d="M85.63527 465.3752L198.2255 465.3752" stroke="#000000" stroke-width="0.3985" fill="none" /><path id="508" transform="matrix(1 0 0 -1 0 841)" d="M87.50826 462.9842C 87.12967 464.4189 86.28601 465.0963 85.43602 465.3752C 86.28601 465.6542 87.12967 466.3316 87.50826 467.7663" stroke="#000000" stroke-width="0.3985" stroke-linecap="round" fill="none" /><path id="509" transform="matrix(1 0 0 -1 0 841)" d="M196.3525 467.7663C 196.7311 466.3316 197.5747 465.6542 198.4247 465.3752C 197.5747 465.0963 196.7311 464.4189 196.3525 462.9842" stroke="#000000" stroke-width="0.3985" stroke-linecap="round" fill="none" /><path id="517" transform="matrix(1 0 0 -1 0 841)" d="M226.9708 494.1206L226.9708 535.8438" stroke="#000000" stroke-width="0.3985" fill="none" /><path id="518" transform="matrix(1 0 0 -1 0 841)" d="M229.3618 495.9936C 227.9272 495.615 227.2497 494.7713 226.9708 493.9213C 226.6918 494.7713 226.0144 495.615 224.5797 495.9936" stroke="#000000" stroke-width="0.3985" stroke-linecap="round" fill="none" /><path id="519" transform="matrix(1 0 0 -1 0 841)" d="M224.5797 533.9707C 226.0144 534.3493 226.6918 535.193 226.9708 536.043C 227.2497 535.193 227.9272 534.3493 229.3618 533.9707" stroke="#000000" stroke-width="0.3985" stroke-linecap="round" fill="none" /><path id="542" transform="matrix(1 0 0 -1 0 841)" d="M209.9625 485.0498L209.9625 498.9929" stroke="#000000" stroke-width="0.3985" fill="none" /><path id="543" transform="matrix(1 0 0 -1 0 841)" d="M212.3536 486.9228C 210.9189 486.5442 210.2415 485.7005 209.9625 484.8506C 209.6836 485.7005 209.0061 486.5442 207.5715 486.9228" stroke="#000000" stroke-width="0.3985" stroke-linecap="round" fill="none" /><path id="544" transform="matrix(1 0 0 -1 0 841)" d="M207.5715 497.1198C 209.0061 497.4984 209.6836 498.3421 209.9625 499.1921C 210.2415 498.3421 210.9189 497.4984 212.3536 497.1198" stroke="#000000" stroke-width="0.3985" stroke-linecap="round" fill="none" /><path id="564" transform="matrix(1 0 0 -1 0 841)" d="M226.9708 552.852L226.9708 536.6407" stroke="#000000" stroke-width="0.3985" fill="none" /><path id="565" transform="matrix(1 0 0 -1 0 841)" d="M224.5797 550.9789C 226.0144 551.3575 226.6918 552.2012 226.9708 553.0512C 227.2497 552.2012 227.9272 551.3575 229.3618 550.9789" stroke="#000000" stroke-width="0.3985" stroke-linecap="round" fill="none" /><path id="566" transform="matrix(1 0 0 -1 0 841)" d="M229.3618 538.5137C 227.9272 538.1351 227.2497 537.2914 226.9708 536.4415C 226.6918 537.2914 226.0144 538.1351 224.5797 538.5137" stroke="#000000" stroke-width="0.3985" stroke-linecap="round" fill="none" /><path id="578" transform="matrix(1 0 0 -1 0 841)" d="M226.689 493.4403L198.9058 465.657" stroke="#000000" stroke-width="0.3985" fill="none" /><path id="579" transform="matrix(1 0 0 -1 0 841)" d="M223.6739 493.8066C 224.9561 493.0599 226.0316 493.1774 226.8299 493.5812C 226.4261 492.7829 226.3086 491.7073 227.0553 490.4252" stroke="#000000" stroke-width="0.3984962" stroke-linecap="round" fill="none" /><path id="580" transform="matrix(1 0 0 -1 0 841)" d="M201.9209 465.2907C 200.6387 466.0375 199.5631 465.9199 198.7649 465.5161C 199.1686 466.3144 199.2862 467.39 198.5394 468.6721" stroke="#000000" stroke-width="0.3984962" stroke-linecap="round" fill="none" /><path id="654" transform="matrix(1 0 0 -1 0 841)" d="M182.431 405.499L198.921 405.499" stroke="#000000" stroke-width="0.436" fill="none" /><path id="660" transform="matrix(1 0 0 -1 0 841)" d="M111.075 388.545L200.117 388.545" stroke="#000000" stroke-width="0.436" fill="none" /><path id="669" transform="matrix(1 0 0 -1 0 841)" d="M155.532 373.534L172.022 373.534" stroke="#000000" stroke-width="0.436" fill="none" /><path id="679" transform="matrix(1 0 0 -1 0 841)" d="M214.637 396.304L248.684 396.304" stroke="#000000" stroke-width="0.398" fill="none" /><path id="680" transform="matrix(1 0 0 -1 0 841)" d="M214.836 382.51L214.836 396.304" stroke="#000000" stroke-width="0.398" fill="none" /><path id="681" transform="matrix(1 0 0 -1 0 841)" d="M248.485 382.51L248.485 396.304" stroke="#000000" stroke-width="0.398" fill="none" /><path id="682" transform="matrix(1 0 0 -1 0 841)" d="M214.637 382.51L248.684 382.51" stroke="#000000" stroke-width="0.398" fill="none" /><g transform="matrix(0.08999999 0 0 0.09 162.239 509.154)"><g transform="matrix(1 0 0 1 0 0)"><image x="0" y="0" xlink:href="img_323.png" width="3009" height="713" /></g></g><path id="1054" transform="matrix(1 0 0 -1 0 841)" d="M176.205 119.384L446.343 119.384" stroke="#000000" stroke-width="0.436" fill="none" /></g></g></svg>