<svg xmlns="http://www.w3.org/2000/svg" xmlns:xlink="http://www.w3.org/1999/xlink" id="body_43" preserveAspectRatio="xMinYMin meet" viewBox="0 0 793 1121"><defs><clipPath id="1"><path id="" clip-rule="evenodd" transform="matrix(1 0 0 1 0 0)" d="M0 841L0 -0.8900146L0 -0.8900146L595.276 -0.8900146L595.276 -0.8900146L595.276 841L595.276 841L0 841z" /></clipPath></defs><g transform="matrix(1.333333 0 0 1.333333 0 0)"><g clip-path="url(#1)"><path id="27" transform="matrix(1 0 0 -1 0 841)" d="M85.039 766.564L510.236 766.564" stroke="#000000" stroke-width="0.498" fill="none" /><path id="36" transform="matrix(1 0 0 -1 0 841)" d="M137.508 744.894L148.417 744.894" stroke="#000000" stroke-width="0.436" fill="none" /><path id="41" transform="matrix(1 0 0 -1 0 841)" d="M169.587 744.894L175.042 744.894" stroke="#000000" stroke-width="0.436" fill="none" /><path id="242" transform="matrix(1 0 0 -1 0 841)" d="M155.708 653.416L161.163 653.416" stroke="#000000" stroke-width="0.436" fill="none" /><path id="246" transform="matrix(1 0 0 -1 0 841)" d="M118.689 624.584L124.144 624.584" stroke="#000000" stroke-width="0.436" fill="none" /><path id="254" transform="matrix(1 0 0 -1 0 841)" d="M139.86 624.584L176.215 624.584" stroke="#000000" stroke-width="0.436" fill="none" /><path id="260" transform="matrix(1 0 0 -1 0 841)" d="M191.93 624.584L214.346 624.584" stroke="#000000" stroke-width="0.436" fill="none" /><path id="264" transform="matrix(1 0 0 -1 0 841)" d="M230.061 624.584L235.516 624.584" stroke="#000000" stroke-width="0.436" fill="none" /><path id="1205" transform="matrix(1 0 0 -1 0 841)" d="M85.039 252.611L373.655 252.611" stroke="#000000" stroke-width="0.398" fill="none" /><path id="1206" transform="matrix(1 0 0 -1 0 841)" d="M85.239 238.862L85.239 252.411" stroke="#000000" stroke-width="0.398" fill="none" /><path id="1211" transform="matrix(1 0 0 -1 0 841)" d="M145.472 238.862L145.472 252.411" stroke="#000000" stroke-width="0.398" fill="none" /><path id="1217" transform="matrix(1 0 0 -1 0 841)" d="M187.182 238.862L187.182 252.411" stroke="#000000" stroke-width="0.398" fill="none" /><path id="1224" transform="matrix(1 0 0 -1 0 841)" d="M262.263 238.862L262.263 252.411" stroke="#000000" stroke-width="0.398" fill="none" /><path id="1233" transform="matrix(1 0 0 -1 0 841)" d="M320.99 238.862L320.99 252.411" stroke="#000000" stroke-width="0.398" fill="none" /><path id="1241" transform="matrix(1 0 0 -1 0 841)" d="M373.456 238.862L373.456 252.411" stroke="#000000" stroke-width="0.398" fill="none" /><path id="1242" transform="matrix(1 0 0 -1 0 841)" d="M85.039 238.663L373.655 238.663" stroke="#000000" stroke-width="0.398" fill="none" /><path id="1243" transform="matrix(1 0 0 -1 0 841)" d="M85.239 224.915L85.239 238.464" stroke="#000000" stroke-width="0.398" fill="none" /><path id="1247" transform="matrix(1 0 0 -1 0 841)" d="M145.472 224.915L145.472 238.464" stroke="#000000" stroke-width="0.398" fill="none" /><path id="1251" transform="matrix(1 0 0 -1 0 841)" d="M187.182 224.915L187.182 238.464" stroke="#000000" stroke-width="0.398" fill="none" /><path id="1253" transform="matrix(1 0 0 -1 0 841)" d="M262.263 224.915L262.263 238.464" stroke="#000000" stroke-width="0.398" fill="none" /><path id="1254" transform="matrix(1 0 0 -1 0 841)" d="M320.99 224.915L320.99 238.464" stroke="#000000" stroke-width="0.398" fill="none" /><path id="1255" transform="matrix(1 0 0 -1 0 841)" d="M373.456 224.915L373.456 238.464" stroke="#000000" stroke-width="0.398" fill="none" /><path id="1256" transform="matrix(1 0 0 -1 0 841)" d="M85.039 224.715L373.655 224.715" stroke="#000000" stroke-width="0.398" fill="none" /><path id="1257" transform="matrix(1 0 0 -1 0 841)" d="M85.239 210.967L85.239 224.516" stroke="#000000" stroke-width="0.398" fill="none" /><path id="1261" transform="matrix(1 0 0 -1 0 841)" d="M145.472 210.967L145.472 224.516" stroke="#000000" stroke-width="0.398" fill="none" /><path id="1265" transform="matrix(1 0 0 -1 0 841)" d="M187.182 210.967L187.182 224.516" stroke="#000000" stroke-width="0.398" fill="none" /><path id="1268" transform="matrix(1 0 0 -1 0 841)" d="M262.263 210.967L262.263 224.516" stroke="#000000" stroke-width="0.398" fill="none" /><path id="1274" transform="matrix(1 0 0 -1 0 841)" d="M320.99 210.967L320.99 224.516" stroke="#000000" stroke-width="0.398" fill="none" /><path id="1279" transform="matrix(1 0 0 -1 0 841)" d="M373.456 210.967L373.456 224.516" stroke="#000000" stroke-width="0.398" fill="none" /><path id="1280" transform="matrix(1 0 0 -1 0 841)" d="M85.039 210.768L373.655 210.768" stroke="#000000" stroke-width="0.398" fill="none" /><path id="1281" transform="matrix(1 0 0 -1 0 841)" d="M85.239 197.019L85.239 210.568" stroke="#000000" stroke-width="0.398" fill="none" /><path id="1289" transform="matrix(1 0 0 -1 0 841)" d="M145.472 197.019L145.472 210.568" stroke="#000000" stroke-width="0.398" fill="none" /><path id="1293" transform="matrix(1 0 0 -1 0 841)" d="M187.182 197.019L187.182 210.568" stroke="#000000" stroke-width="0.398" fill="none" /><path id="1297" transform="matrix(1 0 0 -1 0 841)" d="M262.263 197.019L262.263 210.568" stroke="#000000" stroke-width="0.398" fill="none" /><path id="1302" transform="matrix(1 0 0 -1 0 841)" d="M320.99 197.019L320.99 210.568" stroke="#000000" stroke-width="0.398" fill="none" /><path id="1308" transform="matrix(1 0 0 -1 0 841)" d="M373.456 197.019L373.456 210.568" stroke="#000000" stroke-width="0.398" fill="none" /><path id="1309" transform="matrix(1 0 0 -1 0 841)" d="M85.039 196.82L373.655 196.82" stroke="#000000" stroke-width="0.398" fill="none" /><path id="1310" transform="matrix(1 0 0 -1 0 841)" d="M85.239 183.072L85.239 196.621" stroke="#000000" stroke-width="0.398" fill="none" /><path id="1319" transform="matrix(1 0 0 -1 0 841)" d="M145.472 183.072L145.472 196.621" stroke="#000000" stroke-width="0.398" fill="none" /><path id="1323" transform="matrix(1 0 0 -1 0 841)" d="M187.182 183.072L187.182 196.621" stroke="#000000" stroke-width="0.398" fill="none" /><path id="1329" transform="matrix(1 0 0 -1 0 841)" d="M262.263 183.072L262.263 196.621" stroke="#000000" stroke-width="0.398" fill="none" /><path id="1334" transform="matrix(1 0 0 -1 0 841)" d="M320.99 183.072L320.99 196.621" stroke="#000000" stroke-width="0.398" fill="none" /><path id="1339" transform="matrix(1 0 0 -1 0 841)" d="M373.456 183.072L373.456 196.621" stroke="#000000" stroke-width="0.398" fill="none" /><path id="1340" transform="matrix(1 0 0 -1 0 841)" d="M85.039 182.872L373.655 182.872" stroke="#000000" stroke-width="0.398" fill="none" /><path id="1341" transform="matrix(1 0 0 -1 0 841)" d="M85.239 169.124L85.239 182.673" stroke="#000000" stroke-width="0.398" fill="none" /><path id="1349" transform="matrix(1 0 0 -1 0 841)" d="M145.472 169.124L145.472 182.673" stroke="#000000" stroke-width="0.398" fill="none" /><path id="1353" transform="matrix(1 0 0 -1 0 841)" d="M187.182 169.124L187.182 182.673" stroke="#000000" stroke-width="0.398" fill="none" /><path id="1363" transform="matrix(1 0 0 -1 0 841)" d="M262.263 169.124L262.263 182.673" stroke="#000000" stroke-width="0.398" fill="none" /><path id="1365" transform="matrix(1 0 0 -1 0 841)" d="M320.99 169.124L320.99 182.673" stroke="#000000" stroke-width="0.398" fill="none" /><path id="1370" transform="matrix(1 0 0 -1 0 841)" d="M373.456 169.124L373.456 182.673" stroke="#000000" stroke-width="0.398" fill="none" /><path id="1371" transform="matrix(1 0 0 -1 0 841)" d="M85.039 168.925L373.655 168.925" stroke="#000000" stroke-width="0.398" fill="none" /><path id="1372" transform="matrix(1 0 0 -1 0 841)" d="M85.239 155.176L85.239 168.725" stroke="#000000" stroke-width="0.398" fill="none" /><path id="1380" transform="matrix(1 0 0 -1 0 841)" d="M145.472 155.176L145.472 168.725" stroke="#000000" stroke-width="0.398" fill="none" /><path id="1384" transform="matrix(1 0 0 -1 0 841)" d="M187.182 155.176L187.182 168.725" stroke="#000000" stroke-width="0.398" fill="none" /><path id="1398" transform="matrix(1 0 0 -1 0 841)" d="M262.263 155.176L262.263 168.725" stroke="#000000" stroke-width="0.398" fill="none" /><path id="1400" transform="matrix(1 0 0 -1 0 841)" d="M320.99 155.176L320.99 168.725" stroke="#000000" stroke-width="0.398" fill="none" /><path id="1405" transform="matrix(1 0 0 -1 0 841)" d="M373.456 155.176L373.456 168.725" stroke="#000000" stroke-width="0.398" fill="none" /><path id="1406" transform="matrix(1 0 0 -1 0 841)" d="M85.039 154.977L373.655 154.977" stroke="#000000" stroke-width="0.398" fill="none" /><path id="1407" transform="matrix(1 0 0 -1 0 841)" d="M85.239 141.229L85.239 154.778" stroke="#000000" stroke-width="0.398" fill="none" /><path id="1413" transform="matrix(1 0 0 -1 0 841)" d="M145.472 141.229L145.472 154.778" stroke="#000000" stroke-width="0.398" fill="none" /><path id="1418" transform="matrix(1 0 0 -1 0 841)" d="M187.182 141.229L187.182 154.778" stroke="#000000" stroke-width="0.398" fill="none" /><path id="1422" transform="matrix(1 0 0 -1 0 841)" d="M262.263 141.229L262.263 154.778" stroke="#000000" stroke-width="0.398" fill="none" /><path id="1424" transform="matrix(1 0 0 -1 0 841)" d="M320.99 141.229L320.99 154.778" stroke="#000000" stroke-width="0.398" fill="none" /><path id="1429" transform="matrix(1 0 0 -1 0 841)" d="M373.456 141.229L373.456 154.778" stroke="#000000" stroke-width="0.398" fill="none" /><path id="1430" transform="matrix(1 0 0 -1 0 841)" d="M85.039 141.029L373.655 141.029" stroke="#000000" stroke-width="0.398" fill="none" /><path id="1431" transform="matrix(1 0 0 -1 0 841)" d="M85.239 127.281L85.239 140.83" stroke="#000000" stroke-width="0.398" fill="none" /><path id="1441" transform="matrix(1 0 0 -1 0 841)" d="M145.472 127.281L145.472 140.83" stroke="#000000" stroke-width="0.398" fill="none" /><path id="1446" transform="matrix(1 0 0 -1 0 841)" d="M187.182 127.281L187.182 140.83" stroke="#000000" stroke-width="0.398" fill="none" /><path id="1451" transform="matrix(1 0 0 -1 0 841)" d="M262.263 127.281L262.263 140.83" stroke="#000000" stroke-width="0.398" fill="none" /><path id="1453" transform="matrix(1 0 0 -1 0 841)" d="M320.99 127.281L320.99 140.83" stroke="#000000" stroke-width="0.398" fill="none" /><path id="1459" transform="matrix(1 0 0 -1 0 841)" d="M373.456 127.281L373.456 140.83" stroke="#000000" stroke-width="0.398" fill="none" /><path id="1460" transform="matrix(1 0 0 -1 0 841)" d="M85.039 127.082L373.655 127.082" stroke="#000000" stroke-width="0.398" fill="none" /><path id="1461" transform="matrix(1 0 0 -1 0 841)" d="M85.239 113.333L85.239 126.882" stroke="#000000" stroke-width="0.398" fill="none" /><path id="1472" transform="matrix(1 0 0 -1 0 841)" d="M145.472 113.333L145.472 126.882" stroke="#000000" stroke-width="0.398" fill="none" /><path id="1477" transform="matrix(1 0 0 -1 0 841)" d="M187.182 113.333L187.182 126.882" stroke="#000000" stroke-width="0.398" fill="none" /><path id="1483" transform="matrix(1 0 0 -1 0 841)" d="M262.263 113.333L262.263 126.882" stroke="#000000" stroke-width="0.398" fill="none" /><path id="1485" transform="matrix(1 0 0 -1 0 841)" d="M320.99 113.333L320.99 126.882" stroke="#000000" stroke-width="0.398" fill="none" /><path id="1491" transform="matrix(1 0 0 -1 0 841)" d="M373.456 113.333L373.456 126.882" stroke="#000000" stroke-width="0.398" fill="none" /><path id="1492" transform="matrix(1 0 0 -1 0 841)" d="M85.039 113.134L373.655 113.134" stroke="#000000" stroke-width="0.398" fill="none" /><path id="1493" transform="matrix(1 0 0 -1 0 841)" d="M85.239 99.386L85.239 112.935" stroke="#000000" stroke-width="0.398" fill="none" /><path id="1503" transform="matrix(1 0 0 -1 0 841)" d="M145.472 99.386L145.472 112.935" stroke="#000000" stroke-width="0.398" fill="none" /><path id="1508" transform="matrix(1 0 0 -1 0 841)" d="M187.182 99.386L187.182 112.935" stroke="#000000" stroke-width="0.398" fill="none" /><path id="1517" transform="matrix(1 0 0 -1 0 841)" d="M262.263 99.386L262.263 112.935" stroke="#000000" stroke-width="0.398" fill="none" /><path id="1519" transform="matrix(1 0 0 -1 0 841)" d="M320.99 99.386L320.99 112.935" stroke="#000000" stroke-width="0.398" fill="none" /><path id="1525" transform="matrix(1 0 0 -1 0 841)" d="M373.456 99.386L373.456 112.935" stroke="#000000" stroke-width="0.398" fill="none" /><path id="1526" transform="matrix(1 0 0 -1 0 841)" d="M85.039 99.186L373.655 99.186" stroke="#000000" stroke-width="0.398" fill="none" /><path id="1527" transform="matrix(1 0 0 -1 0 841)" d="M85.239 85.438L85.239 98.987" stroke="#000000" stroke-width="0.398" fill="none" /><path id="1537" transform="matrix(1 0 0 -1 0 841)" d="M145.472 85.438L145.472 98.987" stroke="#000000" stroke-width="0.398" fill="none" /><path id="1542" transform="matrix(1 0 0 -1 0 841)" d="M187.182 85.438L187.182 98.987" stroke="#000000" stroke-width="0.398" fill="none" /><path id="1554" transform="matrix(1 0 0 -1 0 841)" d="M262.263 85.438L262.263 98.987" stroke="#000000" stroke-width="0.398" fill="none" /><path id="1556" transform="matrix(1 0 0 -1 0 841)" d="M320.99 85.438L320.99 98.987" stroke="#000000" stroke-width="0.398" fill="none" /><path id="1561" transform="matrix(1 0 0 -1 0 841)" d="M373.456 85.438L373.456 98.987" stroke="#000000" stroke-width="0.398" fill="none" /><path id="1562" transform="matrix(1 0 0 -1 0 841)" d="M85.039 85.239L373.655 85.239" stroke="#000000" stroke-width="0.398" fill="none" /></g></g></svg>