<svg xmlns="http://www.w3.org/2000/svg" xmlns:xlink="http://www.w3.org/1999/xlink" id="body_134" preserveAspectRatio="xMinYMin meet" viewBox="0 0 793 1121"><defs><clipPath id="1"><path id="" clip-rule="evenodd" transform="matrix(1 0 0 1 0 0)" d="M0 841L0 -0.8900146L0 -0.8900146L595.276 -0.8900146L595.276 -0.8900146L595.276 841L595.276 841L0 841z" /></clipPath></defs><g transform="matrix(1.333333 0 0 1.333333 0 0)"><g clip-path="url(#1)"><path id="25" transform="matrix(1 0 0 -1 0 841)" d="M85.039 766.564L510.236 766.564" stroke="#000000" stroke-width="0.498" fill="none" /><path id="161" transform="matrix(1 0 0 -1 0 841)" d="M410.219 691.666L421.128 691.666" stroke="#000000" stroke-width="0.436" fill="none" /><path id="608" transform="matrix(1 0 0 -1 0 841)" d="M425.066 537.787L429.942 537.787" stroke="#000000" stroke-width="0.436" fill="none" /><path id="702" transform="matrix(1 0 0 -1 0 841)" d="M193.863 502.749L198.739 502.749" stroke="#000000" stroke-width="0.436" fill="none" /><path id="707" transform="matrix(1 0 0 -1 0 841)" d="M214.455 502.749L223.782 502.749" stroke="#000000" stroke-width="0.436" fill="none" /><path id="959" transform="matrix(1 0 0 -1 0 841)" d="M180.323 404.246L269.973 404.246" stroke="#000000" stroke-width="0.436" fill="none" /><path id="1129" transform="matrix(1 0 0 -1 0 841)" d="M137.508 346.449L221.704 346.449" stroke="#000000" stroke-width="0.436" fill="none" /><path id="1134" transform="matrix(1 0 0 -1 0 841)" d="M237.337 346.449L274.122 346.449" stroke="#000000" stroke-width="0.436" fill="none" /><path id="1265" transform="matrix(1 0 0 -1 0 841)" d="M421.458 306.907L454.783 306.907" stroke="#000000" stroke-width="0.436" fill="none" /><path id="1847" transform="matrix(1 0 0 -1 0 841)" d="M203.084 91.996L219.404 91.996" stroke="#000000" stroke-width="0.436" fill="none" /><path id="1868" transform="matrix(1 0 0 -1 0 841)" d="M305.384 91.996L318.715 91.996" stroke="#000000" stroke-width="0.436" fill="none" /></g></g></svg>