<svg xmlns="http://www.w3.org/2000/svg" xmlns:xlink="http://www.w3.org/1999/xlink" id="body_227" preserveAspectRatio="xMinYMin meet" viewBox="0 0 793 1121"><defs><clipPath id="1"><path id="" clip-rule="evenodd" transform="matrix(1 0 0 1 0 0)" d="M0 841L0 -0.8900146L0 -0.8900146L595.276 -0.8900146L595.276 -0.8900146L595.276 841L595.276 841L0 841z" /></clipPath></defs><g transform="matrix(1.333333 0 0 1.333333 0 0)"><g clip-path="url(#1)"><path id="27" transform="matrix(1 0 0 -1 0 841)" d="M85.039 766.564L510.236 766.564" stroke="#000000" stroke-width="0.498" fill="none" /><path id="182" transform="matrix(1 0 0 -1 0 841)" d="M113.508 657.005L180.11 657.005" stroke="#000000" stroke-width="0.436" fill="none" /><path id="190" transform="matrix(1 0 0 -1 0 841)" d="M190.985 657.005L234.621 657.005" stroke="#000000" stroke-width="0.436" fill="none" /><path id="206" transform="matrix(1 0 0 -1 0 841)" d="M280.109 657.005L356.95 657.005" stroke="#000000" stroke-width="0.436" fill="none" /><path id="233" transform="matrix(1 0 0 -1 0 841)" d="M371.47 664.916L478.863 664.916" stroke="#000000" stroke-width="0.398" fill="none" /><path id="234" transform="matrix(1 0 0 -1 0 841)" d="M371.67 648.864L371.67 664.916" stroke="#000000" stroke-width="0.398" fill="none" /><path id="235" transform="matrix(1 0 0 -1 0 841)" d="M478.664 648.864L478.664 664.916" stroke="#000000" stroke-width="0.398" fill="none" /><path id="236" transform="matrix(1 0 0 -1 0 841)" d="M371.47 648.864L478.863 648.864" stroke="#000000" stroke-width="0.398" fill="none" /><path id="277" transform="matrix(1 0 0 -1 0 841)" d="M173.414 597.978L192.799 597.978" stroke="#000000" stroke-width="0.436" fill="none" /><path id="297" transform="matrix(1 0 0 -1 0 841)" d="M207.319 605.949L308.298 605.949" stroke="#000000" stroke-width="0.398" fill="none" /><path id="298" transform="matrix(1 0 0 -1 0 841)" d="M207.518 589.837L207.518 605.949" stroke="#000000" stroke-width="0.398" fill="none" /><path id="299" transform="matrix(1 0 0 -1 0 841)" d="M308.098 589.837L308.098 605.949" stroke="#000000" stroke-width="0.398" fill="none" /><path id="300" transform="matrix(1 0 0 -1 0 841)" d="M207.319 589.837L308.298 589.837" stroke="#000000" stroke-width="0.398" fill="none" /><path id="445" transform="matrix(1 0 0 -1 0 841)" d="M186.124 501.886L257.511 501.886" stroke="#000000" stroke-width="0.436" fill="none" /><g transform="matrix(0.06 0 0 0.06 112.312 363.941)"><g transform="matrix(1 0 0 1 0 0)"><image x="0" y="0" xlink:href="img_323.png" width="3009" height="713" /></g></g><path id="596" transform="matrix(1 0 0 -1 0 841)" d="M158.147 356.817L325.891 356.817" stroke="#000000" stroke-width="0.436" fill="none" /><path id="631" transform="matrix(1 0 0 -1 0 841)" d="M341.607 356.817L383.408 356.817" stroke="#000000" stroke-width="0.436" fill="none" /><path id="647" transform="matrix(1 0 0 -1 0 841)" d="M397.928 364.576L439.001 364.576" stroke="#000000" stroke-width="0.398" fill="none" /><path id="648" transform="matrix(1 0 0 -1 0 841)" d="M398.128 348.677L398.128 364.577" stroke="#000000" stroke-width="0.398" fill="none" /><path id="649" transform="matrix(1 0 0 -1 0 841)" d="M438.802 348.677L438.802 364.577" stroke="#000000" stroke-width="0.398" fill="none" /><path id="650" transform="matrix(1 0 0 -1 0 841)" d="M397.928 348.677L439.001 348.677" stroke="#000000" stroke-width="0.398" fill="none" /></g></g></svg>