<svg xmlns="http://www.w3.org/2000/svg" xmlns:xlink="http://www.w3.org/1999/xlink" id="body_190" preserveAspectRatio="xMinYMin meet" viewBox="0 0 793 1121"><defs><clipPath id="1"><path id="" clip-rule="evenodd" transform="matrix(1 0 0 1 0 0)" d="M0 841L0 -0.8900146L0 -0.8900146L595.276 -0.8900146L595.276 -0.8900146L595.276 841L595.276 841L0 841z" /></clipPath></defs><g transform="matrix(1.333333 0 0 1.333333 0 0)"><g clip-path="url(#1)"><path id="29" transform="matrix(1 0 0 -1 0 841)" d="M85.039 766.564L510.236 766.564" stroke="#000000" stroke-width="0.498" fill="none" /><path id="40" transform="matrix(1 0 0 -1 0 841)" d="M180.694 747.452L194.025 747.452" stroke="#000000" stroke-width="0.436" fill="none" /><path id="260" transform="matrix(1 0 0 -1 0 841)" d="M138.348 635.869L186.565 635.869" stroke="#000000" stroke-width="0.436" fill="none" /><path id="269" transform="matrix(1 0 0 -1 0 841)" d="M218.066 635.869L234.386 635.869" stroke="#000000" stroke-width="0.436" fill="none" /><path id="291" transform="matrix(1 0 0 -1 0 841)" d="M297.971 635.869L346.188 635.869" stroke="#000000" stroke-width="0.436" fill="none" /><path id="313" transform="matrix(1 0 0 -1 0 841)" d="M398.268 635.869L454.012 635.869" stroke="#000000" stroke-width="0.436" fill="none" /><path id="328" transform="matrix(1 0 0 -1 0 841)" d="M143.224 592.707L159.544 592.707" stroke="#000000" stroke-width="0.436" fill="none" /><path id="338" transform="matrix(1 0 0 -1 0 841)" d="M186.168 592.707L261.293 592.707" stroke="#000000" stroke-width="0.436" fill="none" /><path id="360" transform="matrix(1 0 0 -1 0 841)" d="M302.215 592.707L318.535 592.707" stroke="#000000" stroke-width="0.436" fill="none" /><path id="364" transform="matrix(1 0 0 -1 0 841)" d="M281.268 608.064L323.117 608.064" stroke="#000000" stroke-width="0.398" fill="none" /><path id="365" transform="matrix(1 0 0 -1 0 841)" d="M281.468 577.083L281.468 608.064" stroke="#000000" stroke-width="0.398" fill="none" /><path id="366" transform="matrix(1 0 0 -1 0 841)" d="M322.918 577.083L322.918 608.064" stroke="#000000" stroke-width="0.398" fill="none" /><path id="367" transform="matrix(1 0 0 -1 0 841)" d="M281.268 577.083L323.117 577.083" stroke="#000000" stroke-width="0.398" fill="none" /><path id="501" transform="matrix(1 0 0 -1 0 841)" d="M121.378 517.447L286.153 517.447" stroke="#000000" stroke-width="0.436" fill="none" /><path id="543" transform="matrix(1 0 0 -1 0 841)" d="M326.414 517.447L410.005 517.447" stroke="#000000" stroke-width="0.436" fill="none" /><path id="567" transform="matrix(1 0 0 -1 0 841)" d="M445.471 517.447L461.224 517.447" stroke="#000000" stroke-width="0.436" fill="none" /><path id="571" transform="matrix(1 0 0 -1 0 841)" d="M424.524 532.689L465.806 532.689" stroke="#000000" stroke-width="0.398" fill="none" /><path id="572" transform="matrix(1 0 0 -1 0 841)" d="M424.724 501.686L424.724 532.689" stroke="#000000" stroke-width="0.398" fill="none" /><path id="573" transform="matrix(1 0 0 -1 0 841)" d="M465.607 501.686L465.607 532.689" stroke="#000000" stroke-width="0.398" fill="none" /><path id="574" transform="matrix(1 0 0 -1 0 841)" d="M424.524 501.686L465.806 501.686" stroke="#000000" stroke-width="0.398" fill="none" /><path id="1458" transform="matrix(1 0 0 -1 0 841)" d="M228.969 196.759L286.056 196.759" stroke="#000000" stroke-width="0.436" fill="none" /></g></g></svg>