<svg xmlns="http://www.w3.org/2000/svg" xmlns:xlink="http://www.w3.org/1999/xlink" id="body_247" preserveAspectRatio="xMinYMin meet" viewBox="0 0 793 1121"><defs><clipPath id="1"><path id="" clip-rule="evenodd" transform="matrix(1 0 0 1 0 0)" d="M0 841L0 -0.8900146L0 -0.8900146L595.276 -0.8900146L595.276 -0.8900146L595.276 841L595.276 841L0 841z" /></clipPath></defs><g transform="matrix(1.333333 0 0 1.333333 0 0)"><g clip-path="url(#1)"><path id="29" transform="matrix(1 0 0 -1 0 841)" d="M85.039 766.564L510.236 766.564" stroke="#000000" stroke-width="0.498" fill="none" /><path id="50" transform="matrix(1 0 0 -1 0 841)" d="M86.235 732.793L152.049 732.793" stroke="#000000" stroke-width="0.436" fill="none" /><path id="63" transform="matrix(1 0 0 -1 0 841)" d="M162.924 732.793L190.197 732.793" stroke="#000000" stroke-width="0.436" fill="none" /><path id="75" transform="matrix(1 0 0 -1 0 841)" d="M201.073 732.793L227.386 732.793" stroke="#000000" stroke-width="0.436" fill="none" /><path id="92" transform="matrix(1 0 0 -1 0 841)" d="M246.488 732.793L311.234 732.793" stroke="#000000" stroke-width="0.436" fill="none" /><path id="96" transform="matrix(1 0 0 -1 0 841)" d="M241.905 748.15L315.816 748.15" stroke="#000000" stroke-width="0.398" fill="none" /><path id="97" transform="matrix(1 0 0 -1 0 841)" d="M242.105 717.168L242.105 748.149" stroke="#000000" stroke-width="0.398" fill="none" /><path id="98" transform="matrix(1 0 0 -1 0 841)" d="M315.618 717.168L315.618 748.149" stroke="#000000" stroke-width="0.398" fill="none" /><path id="99" transform="matrix(1 0 0 -1 0 841)" d="M241.905 717.168L315.816 717.168" stroke="#000000" stroke-width="0.398" fill="none" /><path id="216" transform="matrix(1 0 0 -1 0 841)" d="M86.235 657.047L152.049 657.047" stroke="#000000" stroke-width="0.436" fill="none" /><path id="233" transform="matrix(1 0 0 -1 0 841)" d="M162.924 657.047L195.651 657.047" stroke="#000000" stroke-width="0.436" fill="none" /><path id="251" transform="matrix(1 0 0 -1 0 841)" d="M228.345 657.047L244.708 657.047" stroke="#000000" stroke-width="0.436" fill="none" /><path id="271" transform="matrix(1 0 0 -1 0 841)" d="M263.812 657.047L350.223 657.047" stroke="#000000" stroke-width="0.436" fill="none" /><path id="275" transform="matrix(1 0 0 -1 0 841)" d="M259.229 672.404L354.806 672.404" stroke="#000000" stroke-width="0.398" fill="none" /><path id="276" transform="matrix(1 0 0 -1 0 841)" d="M259.428 641.423L259.428 672.404" stroke="#000000" stroke-width="0.398" fill="none" /><path id="277" transform="matrix(1 0 0 -1 0 841)" d="M354.606 641.423L354.606 672.404" stroke="#000000" stroke-width="0.398" fill="none" /><path id="278" transform="matrix(1 0 0 -1 0 841)" d="M259.229 641.423L354.806 641.423" stroke="#000000" stroke-width="0.398" fill="none" /><path id="498" transform="matrix(1 0 0 -1 0 841)" d="M198.624 515.4006L85.23676 515.4006L85.23676 515.4006L85.23676 472.8804L85.23676 472.8804L198.624 472.8804z" stroke="#000000" stroke-width="0.3985" fill="#E3F5FD" fill-rule="nonzero" /><path id="499" transform="matrix(1 0 0 -1 0 841)" d="M198.624 515.4006L220.4507 537.2273L220.4507 537.2273L220.4507 494.7071L220.4507 494.7071L198.624 472.8804z" stroke="#000000" stroke-width="0.3985" fill="#FFFFFF" fill-rule="nonzero" /><path id="500" transform="matrix(1 0 0 -1 0 841)" d="M198.624 515.4006L220.4507 537.2273L220.4507 537.2273L220.4507 494.7071L220.4507 494.7071L198.624 472.8804z" stroke="#000000" stroke-width="0.3985" fill="#E3F5FD" fill-rule="nonzero" /><path id="501" transform="matrix(1 0 0 -1 0 841)" d="M85.23676 529.574L107.0635 551.4007L107.0635 551.4007L107.0635 537.2273L107.0635 537.2273L85.23676 515.4006z" stroke="#000000" stroke-width="0.3985" fill="none" /><path id="502" transform="matrix(1 0 0 -1 0 841)" d="M198.624 515.4006L85.23676 515.4006L85.23676 515.4006L107.0635 537.2273L107.0635 537.2273L220.4507 537.2273z" stroke="#000000" stroke-width="0.3985" fill="none" /><path id="503" transform="matrix(1 0 0 -1 0 841)" d="M198.624 529.574L85.23676 529.574L85.23676 529.574L85.23676 515.4006L85.23676 515.4006L198.624 515.4006z" stroke="#000000" stroke-width="0.3985" fill="#FFFFFF" fill-rule="nonzero" /><path id="504" transform="matrix(1 0 0 -1 0 841)" d="M198.624 529.574L220.4507 551.4007L220.4507 551.4007L220.4507 537.2273L220.4507 537.2273L198.624 515.4006z" stroke="#000000" stroke-width="0.3985" fill="#FFFFFF" fill-rule="nonzero" /><path id="505" transform="matrix(1 0 0 -1 0 841)" d="M198.624 529.574L220.4507 551.4007L220.4507 551.4007L220.4507 537.2273L220.4507 537.2273L198.624 515.4006z" stroke="#000000" stroke-width="0.3985" fill="#FFFFFF" fill-rule="nonzero" /><path id="506" transform="matrix(1 0 0 -1 0 841)" d="M198.624 529.574L85.23676 529.574L85.23676 529.574L107.0635 551.4007L107.0635 551.4007L220.4507 551.4007z" stroke="#000000" stroke-width="0.3985" fill="#FFFFFF" fill-rule="nonzero" /><path id="507" transform="matrix(1 0 0 -1 0 841)" d="M85.63527 464.3762L198.2255 464.3762" stroke="#000000" stroke-width="0.3985" fill="none" /><path id="508" transform="matrix(1 0 0 -1 0 841)" d="M87.50826 461.9852C 87.12967 463.4198 86.28601 464.0973 85.43602 464.3762C 86.28601 464.6552 87.12967 465.3326 87.50826 466.7673" stroke="#000000" stroke-width="0.3985" stroke-linecap="round" fill="none" /><path id="509" transform="matrix(1 0 0 -1 0 841)" d="M196.3525 466.7673C 196.7311 465.3326 197.5747 464.6552 198.4247 464.3762C 197.5747 464.0973 196.7311 463.4198 196.3525 461.9852" stroke="#000000" stroke-width="0.3985" stroke-linecap="round" fill="none" /><path id="517" transform="matrix(1 0 0 -1 0 841)" d="M226.9708 493.1216L226.9708 534.8447" stroke="#000000" stroke-width="0.3985" fill="none" /><path id="518" transform="matrix(1 0 0 -1 0 841)" d="M229.3618 494.9945C 227.9272 494.616 227.2497 493.7723 226.9708 492.9223C 226.6918 493.7723 226.0144 494.616 224.5797 494.9945" stroke="#000000" stroke-width="0.3985" stroke-linecap="round" fill="none" /><path id="519" transform="matrix(1 0 0 -1 0 841)" d="M224.5797 532.9717C 226.0144 533.3503 226.6918 534.194 226.9708 535.0439C 227.2497 534.194 227.9272 533.3503 229.3618 532.9717" stroke="#000000" stroke-width="0.3985" stroke-linecap="round" fill="none" /><path id="542" transform="matrix(1 0 0 -1 0 841)" d="M209.9625 484.0508L209.9625 497.9938" stroke="#000000" stroke-width="0.3985" fill="none" /><path id="543" transform="matrix(1 0 0 -1 0 841)" d="M212.3536 485.9238C 210.9189 485.5452 210.2415 484.7015 209.9625 483.8515C 209.6836 484.7015 209.0061 485.5452 207.5715 485.9238" stroke="#000000" stroke-width="0.3985" stroke-linecap="round" fill="none" /><path id="544" transform="matrix(1 0 0 -1 0 841)" d="M207.5715 496.1208C 209.0061 496.4994 209.6836 497.3431 209.9625 498.1931C 210.2415 497.3431 210.9189 496.4994 212.3536 496.1208" stroke="#000000" stroke-width="0.3985" stroke-linecap="round" fill="none" /><path id="564" transform="matrix(1 0 0 -1 0 841)" d="M226.9708 551.853L226.9708 535.6417" stroke="#000000" stroke-width="0.3985" fill="none" /><path id="565" transform="matrix(1 0 0 -1 0 841)" d="M224.5797 549.9799C 226.0144 550.3585 226.6918 551.2022 226.9708 552.0522C 227.2497 551.2022 227.9272 550.3585 229.3618 549.9799" stroke="#000000" stroke-width="0.3985" stroke-linecap="round" fill="none" /><path id="566" transform="matrix(1 0 0 -1 0 841)" d="M229.3618 537.5147C 227.9272 537.1361 227.2497 536.2924 226.9708 535.4424C 226.6918 536.2924 226.0144 537.1361 224.5797 537.5147" stroke="#000000" stroke-width="0.3985" stroke-linecap="round" fill="none" /><path id="578" transform="matrix(1 0 0 -1 0 841)" d="M226.689 492.4413L198.9058 464.658" stroke="#000000" stroke-width="0.3985" fill="none" /><path id="579" transform="matrix(1 0 0 -1 0 841)" d="M223.6739 492.8076C 224.9561 492.0609 226.0316 492.1784 226.8299 492.5822C 226.4261 491.7839 226.3086 490.7083 227.0553 489.4262" stroke="#000000" stroke-width="0.3984962" stroke-linecap="round" fill="none" /><path id="580" transform="matrix(1 0 0 -1 0 841)" d="M201.9209 464.2917C 200.6387 465.0385 199.5631 464.9209 198.7649 464.5171C 199.1686 465.3154 199.2862 466.391 198.5394 467.6731" stroke="#000000" stroke-width="0.3984962" stroke-linecap="round" fill="none" /><path id="654" transform="matrix(1 0 0 -1 0 841)" d="M180.439 404.5L194.937 404.5" stroke="#000000" stroke-width="0.436" fill="none" /><path id="660" transform="matrix(1 0 0 -1 0 841)" d="M111.075 387.546L196.132 387.546" stroke="#000000" stroke-width="0.436" fill="none" /><path id="669" transform="matrix(1 0 0 -1 0 841)" d="M153.603 372.535L169.966 372.535" stroke="#000000" stroke-width="0.436" fill="none" /><path id="679" transform="matrix(1 0 0 -1 0 841)" d="M210.652 395.304L244.699 395.304" stroke="#000000" stroke-width="0.398" fill="none" /><path id="680" transform="matrix(1 0 0 -1 0 841)" d="M210.851 381.51L210.851 395.304" stroke="#000000" stroke-width="0.398" fill="none" /><path id="681" transform="matrix(1 0 0 -1 0 841)" d="M244.5 381.51L244.5 395.304" stroke="#000000" stroke-width="0.398" fill="none" /><path id="682" transform="matrix(1 0 0 -1 0 841)" d="M210.652 381.51L244.699 381.51" stroke="#000000" stroke-width="0.398" fill="none" /><path id="683" transform="matrix(1 0 0 -1 0 841)" d="M85.039 228.595L85.039 346.7146C 85.039 349.0629 86.94264 350.9666 89.29099 350.9666L89.29099 350.9666L505.9893 350.9666C 508.3377 350.9666 510.2413 349.0629 510.2413 346.7146L510.2413 346.7146L510.2413 228.595C 510.2413 226.2466 508.3377 224.343 505.9893 224.343L505.9893 224.343L89.29099 224.343C 86.94264 224.343 85.039 226.2466 85.039 228.595z" stroke="none" fill="#BFBFFF" fill-rule="nonzero" /><path id="684" transform="matrix(1 0 0 -1 0 841)" d="M86.45631 228.595L86.45631 334.9572L86.45631 334.9572L508.824 334.9572L508.824 334.9572L508.824 228.595C 508.824 227.0294 507.5549 225.7603 505.9893 225.7603L505.9893 225.7603L89.29099 225.7603C 87.72543 225.7603 86.45631 227.0294 86.45631 228.595z" stroke="none" fill="#E6E6FF" fill-rule="nonzero" /><g transform="matrix(0.08999999 0 0 0.09 162.239 657.358)"><g transform="matrix(1 0 0 1 0 0)"><image x="0" y="0" xlink:href="img_350.png" width="3009" height="713" /></g></g></g></g></svg>