<svg xmlns="http://www.w3.org/2000/svg" xmlns:xlink="http://www.w3.org/1999/xlink" id="body_239" preserveAspectRatio="xMinYMin meet" viewBox="0 0 793 1121"><defs><clipPath id="1"><path id="" clip-rule="evenodd" transform="matrix(1 0 0 1 0 0)" d="M0 841L0 -0.8900146L0 -0.8900146L595.276 -0.8900146L595.276 -0.8900146L595.276 841L595.276 841L0 841z" /></clipPath></defs><g transform="matrix(1.333333 0 0 1.333333 0 0)"><g clip-path="url(#1)"><path id="24" transform="matrix(1 0 0 -1 0 841)" d="M85.039 766.564L510.236 766.564" stroke="#000000" stroke-width="0.498" fill="none" /><path id="25" transform="matrix(1 0 0 -1 0 841)" d="M85.039 191.727L85.039 756.8577L85.039 756.8577L510.2413 756.8577L510.2413 756.8577L510.2413 191.727C 510.2413 189.3786 508.3377 187.475 505.9893 187.475L505.9893 187.475L89.29099 187.475C 86.94264 187.475 85.039 189.3786 85.039 191.727z" stroke="none" fill="#BFBFFF" fill-rule="nonzero" /><path id="26" transform="matrix(1 0 0 -1 0 841)" d="M86.45631 191.727L86.45631 756.8577L86.45631 756.8577L508.824 756.8577L508.824 756.8577L508.824 191.727C 508.824 190.1614 507.5549 188.8923 505.9893 188.8923L505.9893 188.8923L89.29099 188.8923C 87.72543 188.8923 86.45631 190.1614 86.45631 191.727z" stroke="none" fill="#E6E6FF" fill-rule="nonzero" /></g></g></svg>