<svg xmlns="http://www.w3.org/2000/svg" xmlns:xlink="http://www.w3.org/1999/xlink" id="body_48" preserveAspectRatio="xMinYMin meet" viewBox="0 0 793 1121"><defs><clipPath id="1"><path id="" clip-rule="evenodd" transform="matrix(1 0 0 1 0 0)" d="M0 841L0 -0.8900146L0 -0.8900146L595.276 -0.8900146L595.276 -0.8900146L595.276 841L595.276 841L0 841z" /></clipPath></defs><g transform="matrix(1.333333 0 0 1.333333 0 0)"><g clip-path="url(#1)"><path id="27" transform="matrix(1 0 0 -1 0 841)" d="M85.039 766.564L510.236 766.564" stroke="#000000" stroke-width="0.498" fill="none" /><path id="464" transform="matrix(1 0 0 -1 0 841)" d="M85.039 633.043L551.334 633.043" stroke="#000000" stroke-width="0.398" fill="none" /><path id="465" transform="matrix(1 0 0 -1 0 841)" d="M85.239 609.83L85.239 632.844" stroke="#000000" stroke-width="0.398" fill="none" /><path id="682" transform="matrix(1 0 0 -1 0 841)" d="M551.136 609.83L551.136 632.844" stroke="#000000" stroke-width="0.398" fill="none" /><path id="683" transform="matrix(1 0 0 -1 0 841)" d="M85.039 609.631L551.334 609.631" stroke="#000000" stroke-width="0.398" fill="none" /><path id="684" transform="matrix(1 0 0 -1 0 841)" d="M85.239 586.418L85.239 609.432" stroke="#000000" stroke-width="0.398" fill="none" /><path id="883" transform="matrix(1 0 0 -1 0 841)" d="M551.136 586.418L551.136 609.432" stroke="#000000" stroke-width="0.398" fill="none" /><path id="884" transform="matrix(1 0 0 -1 0 841)" d="M85.039 586.218L551.334 586.218" stroke="#000000" stroke-width="0.398" fill="none" /><path id="885" transform="matrix(1 0 0 -1 0 841)" d="M85.239 563.005L85.239 586.019" stroke="#000000" stroke-width="0.398" fill="none" /><path id="1016" transform="matrix(1 0 0 -1 0 841)" d="M551.136 563.005L551.136 586.019" stroke="#000000" stroke-width="0.398" fill="none" /><path id="1017" transform="matrix(1 0 0 -1 0 841)" d="M85.039 562.806L551.334 562.806" stroke="#000000" stroke-width="0.398" fill="none" /><path id="1018" transform="matrix(1 0 0 -1 0 841)" d="M85.239 539.593L85.239 562.607" stroke="#000000" stroke-width="0.398" fill="none" /><path id="1155" transform="matrix(1 0 0 -1 0 841)" d="M551.136 539.593L551.136 562.607" stroke="#000000" stroke-width="0.398" fill="none" /><path id="1156" transform="matrix(1 0 0 -1 0 841)" d="M85.039 539.394L551.334 539.394" stroke="#000000" stroke-width="0.398" fill="none" /><path id="1157" transform="matrix(1 0 0 -1 0 841)" d="M85.239 516.181L85.239 539.195" stroke="#000000" stroke-width="0.398" fill="none" /><path id="1281" transform="matrix(1 0 0 -1 0 841)" d="M551.136 516.181L551.136 539.195" stroke="#000000" stroke-width="0.398" fill="none" /><path id="1282" transform="matrix(1 0 0 -1 0 841)" d="M85.039 515.982L551.334 515.982" stroke="#000000" stroke-width="0.398" fill="none" /><path id="1283" transform="matrix(1 0 0 -1 0 841)" d="M85.239 502.233L85.239 515.782" stroke="#000000" stroke-width="0.398" fill="none" /><path id="1340" transform="matrix(1 0 0 -1 0 841)" d="M551.136 502.233L551.136 515.782" stroke="#000000" stroke-width="0.398" fill="none" /><path id="1341" transform="matrix(1 0 0 -1 0 841)" d="M85.039 502.034L551.334 502.034" stroke="#000000" stroke-width="0.398" fill="none" /><path id="1342" transform="matrix(1 0 0 -1 0 841)" d="M85.239 478.821L85.239 501.835" stroke="#000000" stroke-width="0.398" fill="none" /><path id="1509" transform="matrix(1 0 0 -1 0 841)" d="M551.136 478.821L551.136 501.835" stroke="#000000" stroke-width="0.398" fill="none" /><path id="1510" transform="matrix(1 0 0 -1 0 841)" d="M85.039 478.622L551.334 478.622" stroke="#000000" stroke-width="0.398" fill="none" /><path id="1511" transform="matrix(1 0 0 -1 0 841)" d="M85.239 445.944L85.239 478.422" stroke="#000000" stroke-width="0.398" fill="none" /><path id="1757" transform="matrix(1 0 0 -1 0 841)" d="M551.136 445.944L551.136 478.422" stroke="#000000" stroke-width="0.398" fill="none" /><path id="1758" transform="matrix(1 0 0 -1 0 841)" d="M85.039 445.745L551.334 445.745" stroke="#000000" stroke-width="0.398" fill="none" /></g></g></svg>