<svg xmlns="http://www.w3.org/2000/svg" xmlns:xlink="http://www.w3.org/1999/xlink" id="body_316" preserveAspectRatio="xMinYMin meet" viewBox="0 0 793 1121"><defs><clipPath id="1"><path id="" clip-rule="evenodd" transform="matrix(1 0 0 1 0 0)" d="M0 841L0 -0.8900146L0 -0.8900146L595.276 -0.8900146L595.276 -0.8900146L595.276 841L595.276 841L0 841z" /></clipPath></defs><g transform="matrix(1.333333 0 0 1.333333 0 0)"><g clip-path="url(#1)"><path id="23" transform="matrix(1 0 0 -1 0 841)" d="M85.039 766.564L510.236 766.564" stroke="#000000" stroke-width="0.498" fill="none" /><path id="89" transform="matrix(1 0 0 -1 0 841)" d="M120.173 698.507L134.104 698.507" stroke="#000000" stroke-width="0.436" fill="none" /><path id="104" transform="matrix(1 0 0 -1 0 841)" d="M164.346 710.621L192.5 710.621" stroke="#000000" stroke-width="0.436" fill="none" /><path id="110" transform="matrix(1 0 0 -1 0 841)" d="M149.819 698.507L193.695 698.507" stroke="#000000" stroke-width="0.436" fill="none" /><path id="117" transform="matrix(1 0 0 -1 0 841)" d="M170.276 681.931L186.199 681.931" stroke="#000000" stroke-width="0.436" fill="none" /><path id="173" transform="matrix(1 0 0 -1 0 841)" d="M113.508 632.41L176.013 632.41" stroke="#000000" stroke-width="0.436" fill="none" /><path id="183" transform="matrix(1 0 0 -1 0 841)" d="M186.888 632.41L242.716 632.41" stroke="#000000" stroke-width="0.436" fill="none" /><path id="204" transform="matrix(1 0 0 -1 0 841)" d="M253.592 632.41L283.886 632.41" stroke="#000000" stroke-width="0.436" fill="none" /><path id="218" transform="matrix(1 0 0 -1 0 841)" d="M318.987 632.41L333.233 632.41" stroke="#000000" stroke-width="0.436" fill="none" /><path id="267" transform="matrix(1 0 0 -1 0 841)" d="M178.039 581.039L231.056 581.039" stroke="#000000" stroke-width="0.436" fill="none" /><path id="271" transform="matrix(1 0 0 -1 0 841)" d="M200.309 567.523L214.24 567.523" stroke="#000000" stroke-width="0.436" fill="none" /><path id="292" transform="matrix(1 0 0 -1 0 841)" d="M168.472 526.267L175.345 526.267" stroke="#000000" stroke-width="0.436" fill="none" /><path id="312" transform="matrix(1 0 0 -1 0 841)" d="M310.537 526.267L335.377 526.267" stroke="#000000" stroke-width="0.436" fill="none" /><path id="324" transform="matrix(1 0 0 -1 0 841)" d="M392.745 526.267L417.585 526.267" stroke="#000000" stroke-width="0.436" fill="none" /><path id="332" transform="matrix(1 0 0 -1 0 841)" d="M426.489 535.736L431.944 535.736" stroke="#000000" stroke-width="0.436" fill="none" /><path id="343" transform="matrix(1 0 0 -1 0 841)" d="M166.061 493.466L190.901 493.466" stroke="#000000" stroke-width="0.436" fill="none" /><path id="351" transform="matrix(1 0 0 -1 0 841)" d="M199.805 502.935L205.26 502.935" stroke="#000000" stroke-width="0.436" fill="none" /><path id="357" transform="matrix(1 0 0 -1 0 841)" d="M220.277 501.257L247.724 501.257" stroke="#000000" stroke-width="0.398" fill="none" /><path id="358" transform="matrix(1 0 0 -1 0 841)" d="M220.477 485.271L220.477 501.258" stroke="#000000" stroke-width="0.398" fill="none" /><path id="359" transform="matrix(1 0 0 -1 0 841)" d="M247.525 485.271L247.525 501.258" stroke="#000000" stroke-width="0.398" fill="none" /><path id="360" transform="matrix(1 0 0 -1 0 841)" d="M220.277 485.271L247.724 485.271" stroke="#000000" stroke-width="0.398" fill="none" /><path id="580" transform="matrix(1 0 0 -1 0 841)" d="M176.053 345.342L182.926 345.342" stroke="#000000" stroke-width="0.436" fill="none" /><path id="594" transform="matrix(1 0 0 -1 0 841)" d="M259.323 345.342L270.232 345.342" stroke="#000000" stroke-width="0.436" fill="none" /><path id="612" transform="matrix(1 0 0 -1 0 841)" d="M349.969 345.342L366.333 345.342" stroke="#000000" stroke-width="0.436" fill="none" /><path id="667" transform="matrix(1 0 0 -1 0 841)" d="M190.158 302.701L204.089 302.701" stroke="#000000" stroke-width="0.436" fill="none" /><path id="688" transform="matrix(1 0 0 -1 0 841)" d="M292.216 302.701L306.462 302.701" stroke="#000000" stroke-width="0.436" fill="none" /><path id="757" transform="matrix(1 0 0 -1 0 841)" d="M154.094 252.062L170.333 252.062" stroke="#000000" stroke-width="0.436" fill="none" /><path id="769" transform="matrix(1 0 0 -1 0 841)" d="M200.594 252.062L216.833 252.062" stroke="#000000" stroke-width="0.436" fill="none" /><path id="781" transform="matrix(1 0 0 -1 0 841)" d="M238.618 252.062L256.974 252.062" stroke="#000000" stroke-width="0.436" fill="none" /><path id="793" transform="matrix(1 0 0 -1 0 841)" d="M286.986 252.062L303.349 252.062" stroke="#000000" stroke-width="0.436" fill="none" /><path id="797" transform="matrix(1 0 0 -1 0 841)" d="M271.494 267.419L307.932 267.419" stroke="#000000" stroke-width="0.398" fill="none" /><path id="798" transform="matrix(1 0 0 -1 0 841)" d="M271.693 238.544L271.693 267.42" stroke="#000000" stroke-width="0.398" fill="none" /><path id="799" transform="matrix(1 0 0 -1 0 841)" d="M307.733 238.544L307.733 267.42" stroke="#000000" stroke-width="0.398" fill="none" /><path id="800" transform="matrix(1 0 0 -1 0 841)" d="M271.494 238.544L307.932 238.544" stroke="#000000" stroke-width="0.398" fill="none" /><path id="933" transform="matrix(1 0 0 -1 0 841)" d="M404.3 174.491L412.176 174.491" stroke="#000000" stroke-width="0.436" fill="none" /><path id="1040" transform="matrix(1 0 0 -1 0 841)" d="M121.013 92.299L134.944 92.299" stroke="#000000" stroke-width="0.436" fill="none" /><path id="1054" transform="matrix(1 0 0 -1 0 841)" d="M165.186 104.157L189.853 104.157" stroke="#000000" stroke-width="0.436" fill="none" /><path id="1058" transform="matrix(1 0 0 -1 0 841)" d="M150.659 92.299L191.048 92.299" stroke="#000000" stroke-width="0.436" fill="none" /></g></g></svg>