<svg xmlns="http://www.w3.org/2000/svg" xmlns:xlink="http://www.w3.org/1999/xlink" id="body_215" preserveAspectRatio="xMinYMin meet" viewBox="0 0 793 1121"><defs><clipPath id="1"><path id="" clip-rule="evenodd" transform="matrix(1 0 0 1 0 0)" d="M0 841L0 -0.8900146L0 -0.8900146L595.276 -0.8900146L595.276 -0.8900146L595.276 841L595.276 841L0 841z" /></clipPath></defs><g transform="matrix(1.333333 0 0 1.333333 0 0)"><g clip-path="url(#1)"><path id="28" transform="matrix(1 0 0 -1 0 841)" d="M85.039 766.564L510.236 766.564" stroke="#000000" stroke-width="0.498" fill="none" /><path id="252" transform="matrix(1 0 0 -1 0 841)" d="M113.169 668.934L200.549 668.934" stroke="#000000" stroke-width="0.436" fill="none" /><path id="296" transform="matrix(1 0 0 -1 0 841)" d="M266.867 668.934L365.156 668.934" stroke="#000000" stroke-width="0.436" fill="none" /><path id="462" transform="matrix(1 0 0 -1 0 841)" d="M434.9808 534.3679L349.9404 534.3679L349.9404 534.3679L349.9404 449.3275L349.9404 449.3275L434.9808 449.3275z" stroke="#000000" stroke-width="0.3985" fill="none" /><path id="463" transform="matrix(1 0 0 -1 0 841)" d="M434.9808 534.3679L467.7209 567.108L467.7209 567.108L467.7209 482.0676L467.7209 482.0676L434.9808 449.3275z" stroke="#000000" stroke-width="0.3985" fill="none" /><path id="464" transform="matrix(1 0 0 -1 0 841)" d="M434.9808 534.3679L349.9404 534.3679L349.9404 534.3679L382.6805 567.108L382.6805 567.108L467.7209 567.108z" stroke="#000000" stroke-width="0.3985" fill="none" /><path id="492" transform="matrix(1 0 0 -1 0 841)" d="M159.053 560.7949L182.495 560.7949" stroke="#000000" stroke-width="0.398" fill="none" /><path id="541" transform="matrix(1 0 0 -1 0 841)" d="M215.545 506.739L265.388 506.739" stroke="#000000" stroke-width="0.398" fill="none" /><g transform="matrix(0.2 0 0 0.2 164.54 523.386)"><g transform="matrix(1 0 0 1 0 0)"><image x="0" y="0" xlink:href="img_306.png" width="1331" height="580" /></g></g></g></g></svg>