<svg xmlns="http://www.w3.org/2000/svg" xmlns:xlink="http://www.w3.org/1999/xlink" id="body_322" preserveAspectRatio="xMinYMin meet" viewBox="0 0 793 1121"><defs><clipPath id="1"><path id="" clip-rule="evenodd" transform="matrix(1 0 0 1 0 0)" d="M0 841L0 -0.8900146L0 -0.8900146L595.276 -0.8900146L595.276 -0.8900146L595.276 841L595.276 841L0 841z" /></clipPath></defs><g transform="matrix(1.333333 0 0 1.333333 0 0)"><g clip-path="url(#1)"><path id="23" transform="matrix(1 0 0 -1 0 841)" d="M85.039 766.564L510.236 766.564" stroke="#000000" stroke-width="0.498" fill="none" /><path id="36" transform="matrix(1 0 0 -1 0 841)" d="M164.817 744.742L210.263 744.742" stroke="#000000" stroke-width="0.436" fill="none" /><path id="56" transform="matrix(1 0 0 -1 0 841)" d="M224.783 752.713L299.16 752.713" stroke="#000000" stroke-width="0.398" fill="none" /><path id="57" transform="matrix(1 0 0 -1 0 841)" d="M224.983 738.657L224.983 752.713" stroke="#000000" stroke-width="0.398" fill="none" /><path id="58" transform="matrix(1 0 0 -1 0 841)" d="M298.962 738.657L298.962 752.713" stroke="#000000" stroke-width="0.398" fill="none" /><path id="59" transform="matrix(1 0 0 -1 0 841)" d="M224.783 738.657L299.16 738.657" stroke="#000000" stroke-width="0.398" fill="none" /><path id="249" transform="matrix(1 0 0 -1 0 841)" d="M140.442 635.221L195.641 635.221" stroke="#000000" stroke-width="0.436" fill="none" /><path id="263" transform="matrix(1 0 0 -1 0 841)" d="M211.357 635.221L265.346 635.221" stroke="#000000" stroke-width="0.436" fill="none" /><path id="297" transform="matrix(1 0 0 -1 0 841)" d="M164.817 598.342L210.263 598.342" stroke="#000000" stroke-width="0.436" fill="none" /><path id="317" transform="matrix(1 0 0 -1 0 841)" d="M224.783 606.313L299.16 606.313" stroke="#000000" stroke-width="0.398" fill="none" /><path id="318" transform="matrix(1 0 0 -1 0 841)" d="M224.983 592.257L224.983 606.313" stroke="#000000" stroke-width="0.398" fill="none" /><path id="319" transform="matrix(1 0 0 -1 0 841)" d="M298.962 592.257L298.962 606.313" stroke="#000000" stroke-width="0.398" fill="none" /><path id="320" transform="matrix(1 0 0 -1 0 841)" d="M224.783 592.257L299.16 592.257" stroke="#000000" stroke-width="0.398" fill="none" /><path id="627" transform="matrix(1 0 0 -1 0 841)" d="M164.817 459.974L192.687 459.974" stroke="#000000" stroke-width="0.436" fill="none" /><path id="635" transform="matrix(1 0 0 -1 0 841)" d="M207.208 467.946L245.455 467.946" stroke="#000000" stroke-width="0.398" fill="none" /><path id="636" transform="matrix(1 0 0 -1 0 841)" d="M207.407 451.833L207.407 467.945" stroke="#000000" stroke-width="0.398" fill="none" /><path id="637" transform="matrix(1 0 0 -1 0 841)" d="M245.255 451.833L245.255 467.945" stroke="#000000" stroke-width="0.398" fill="none" /><path id="638" transform="matrix(1 0 0 -1 0 841)" d="M207.208 451.833L245.455 451.833" stroke="#000000" stroke-width="0.398" fill="none" /><path id="718" transform="matrix(1 0 0 -1 0 841)" d="M113.508 347.377L127.754 347.377" stroke="#000000" stroke-width="0.436" fill="none" /><path id="729" transform="matrix(1 0 0 -1 0 841)" d="M154.379 347.377L172.735 347.377" stroke="#000000" stroke-width="0.436" fill="none" /><path id="739" transform="matrix(1 0 0 -1 0 841)" d="M183.611 347.377L219.487 347.377" stroke="#000000" stroke-width="0.436" fill="none" /><path id="757" transform="matrix(1 0 0 -1 0 841)" d="M230.362 347.377L259.627 347.377" stroke="#000000" stroke-width="0.436" fill="none" /><path id="768" transform="matrix(1 0 0 -1 0 841)" d="M298.116 347.377L312.362 347.377" stroke="#000000" stroke-width="0.436" fill="none" /><path id="771" transform="matrix(1 0 0 -1 0 841)" d="M274.147 364.515L316.944 364.515" stroke="#000000" stroke-width="0.398" fill="none" /><path id="772" transform="matrix(1 0 0 -1 0 841)" d="M274.347 333.858L274.347 364.515" stroke="#000000" stroke-width="0.398" fill="none" /><path id="773" transform="matrix(1 0 0 -1 0 841)" d="M316.746 333.858L316.746 364.515" stroke="#000000" stroke-width="0.398" fill="none" /><path id="774" transform="matrix(1 0 0 -1 0 841)" d="M274.147 333.858L316.944 333.858" stroke="#000000" stroke-width="0.398" fill="none" /><path id="825" transform="matrix(1 0 0 -1 0 841)" d="M113.508 279.553L129.871 279.553" stroke="#000000" stroke-width="0.436" fill="none" /><path id="839" transform="matrix(1 0 0 -1 0 841)" d="M164.972 279.553L181.211 279.553" stroke="#000000" stroke-width="0.436" fill="none" /><path id="853" transform="matrix(1 0 0 -1 0 841)" d="M192.087 279.553L225.97 279.553" stroke="#000000" stroke-width="0.436" fill="none" /><path id="867" transform="matrix(1 0 0 -1 0 841)" d="M236.846 279.553L263.678 279.553" stroke="#000000" stroke-width="0.436" fill="none" /><path id="880" transform="matrix(1 0 0 -1 0 841)" d="M307.621 279.553L323.984 279.553" stroke="#000000" stroke-width="0.436" fill="none" /><path id="884" transform="matrix(1 0 0 -1 0 841)" d="M278.198 294.91L328.567 294.91" stroke="#000000" stroke-width="0.398" fill="none" /><path id="885" transform="matrix(1 0 0 -1 0 841)" d="M278.398 266.035L278.398 294.911" stroke="#000000" stroke-width="0.398" fill="none" /><path id="886" transform="matrix(1 0 0 -1 0 841)" d="M328.368 266.035L328.368 294.911" stroke="#000000" stroke-width="0.398" fill="none" /><path id="887" transform="matrix(1 0 0 -1 0 841)" d="M278.198 266.035L328.567 266.035" stroke="#000000" stroke-width="0.398" fill="none" /><path id="968" transform="matrix(1 0 0 -1 0 841)" d="M113.508 210.797L129.871 210.797" stroke="#000000" stroke-width="0.436" fill="none" /><path id="981" transform="matrix(1 0 0 -1 0 841)" d="M164.972 210.797L184.364 210.797" stroke="#000000" stroke-width="0.436" fill="none" /><path id="1000" transform="matrix(1 0 0 -1 0 841)" d="M195.24 210.797L256.387 210.797" stroke="#000000" stroke-width="0.436" fill="none" /><path id="1011" transform="matrix(1 0 0 -1 0 841)" d="M267.263 210.797L309.678 210.797" stroke="#000000" stroke-width="0.436" fill="none" /><path id="1029" transform="matrix(1 0 0 -1 0 841)" d="M354.834 210.797L371.197 210.797" stroke="#000000" stroke-width="0.436" fill="none" /><path id="1033" transform="matrix(1 0 0 -1 0 841)" d="M324.199 226.154L375.78 226.154" stroke="#000000" stroke-width="0.398" fill="none" /><path id="1034" transform="matrix(1 0 0 -1 0 841)" d="M324.398 197.278L324.398 226.154" stroke="#000000" stroke-width="0.398" fill="none" /><path id="1035" transform="matrix(1 0 0 -1 0 841)" d="M375.581 197.278L375.581 226.154" stroke="#000000" stroke-width="0.398" fill="none" /><path id="1036" transform="matrix(1 0 0 -1 0 841)" d="M324.199 197.278L375.78 197.278" stroke="#000000" stroke-width="0.398" fill="none" /><path id="1200" transform="matrix(1 0 0 -1 0 841)" d="M113.508 109.877L129.828 109.877" stroke="#000000" stroke-width="0.436" fill="none" /><path id="1212" transform="matrix(1 0 0 -1 0 841)" d="M161.907 109.877L180.263 109.877" stroke="#000000" stroke-width="0.436" fill="none" /><path id="1220" transform="matrix(1 0 0 -1 0 841)" d="M191.139 109.877L228.924 109.877" stroke="#000000" stroke-width="0.436" fill="none" /><path id="1240" transform="matrix(1 0 0 -1 0 841)" d="M239.799 109.877L284.207 109.877" stroke="#000000" stroke-width="0.436" fill="none" /><path id="1255" transform="matrix(1 0 0 -1 0 841)" d="M340.271 109.877L356.591 109.877" stroke="#000000" stroke-width="0.436" fill="none" /><path id="1259" transform="matrix(1 0 0 -1 0 841)" d="M298.727 125.234L361.173 125.234" stroke="#000000" stroke-width="0.398" fill="none" /><path id="1260" transform="matrix(1 0 0 -1 0 841)" d="M298.927 94.253L298.927 125.234" stroke="#000000" stroke-width="0.398" fill="none" /><path id="1261" transform="matrix(1 0 0 -1 0 841)" d="M360.975 94.253L360.975 125.234" stroke="#000000" stroke-width="0.398" fill="none" /><path id="1262" transform="matrix(1 0 0 -1 0 841)" d="M298.727 94.253L361.173 94.253" stroke="#000000" stroke-width="0.398" fill="none" /></g></g></svg>