<svg xmlns="http://www.w3.org/2000/svg" xmlns:xlink="http://www.w3.org/1999/xlink" id="body_283" preserveAspectRatio="xMinYMin meet" viewBox="0 0 793 1121"><defs><clipPath id="1"><path id="" clip-rule="evenodd" transform="matrix(1 0 0 1 0 0)" d="M0 841L0 -0.8900146L0 -0.8900146L595.276 -0.8900146L595.276 -0.8900146L595.276 841L595.276 841L0 841z" /></clipPath></defs><g transform="matrix(1.333333 0 0 1.333333 0 0)"><g clip-path="url(#1)"><path id="57" transform="matrix(1 0 0 -1 0 841)" d="M85.039 766.564L510.236 766.564" stroke="#000000" stroke-width="0.498" fill="none" /><g transform="matrix(0.08 0 0 0.08 240.037 111.767)"><g transform="matrix(1 0 0 1 0 0)"><image x="0" y="0" xlink:href="img_425.png" width="1440" height="1523" /></g></g><g transform="matrix(0.6 0 0 0.6 219.937 406.253)"><g transform="matrix(1 0 0 1 0 0)"><image x="0" y="0" xlink:href="img_426.png" width="259" height="194" /></g></g></g></g></svg>