<svg xmlns="http://www.w3.org/2000/svg" xmlns:xlink="http://www.w3.org/1999/xlink" id="body_11" preserveAspectRatio="xMinYMin meet" viewBox="0 0 793 1121"><defs><clipPath id="1"><path id="" clip-rule="evenodd" transform="matrix(1 0 0 1 0 0)" d="M0 841L0 -0.8900146L0 -0.8900146L595.276 -0.8900146L595.276 -0.8900146L595.276 841L595.276 841L0 841z" /></clipPath></defs><g transform="matrix(1.333333 0 0 1.333333 0 0)"><g clip-path="url(#1)"><path id="34" transform="matrix(1 0 0 -1 0 841)" d="M85.039 766.564L510.236 766.564" stroke="#000000" stroke-width="0.498" fill="none" /><path id="35" transform="matrix(1 0 0 -1 0 841)" d="M85.039 756.651L544.088 756.651" stroke="#000000" stroke-width="0.398" fill="none" /><path id="36" transform="matrix(1 0 0 -1 0 841)" d="M85.239 728.557L85.239 756.452" stroke="#000000" stroke-width="0.398" fill="none" /><path id="42" transform="matrix(1 0 0 -1 0 841)" d="M119.497 728.557L119.497 756.452" stroke="#000000" stroke-width="0.398" fill="none" /><path id="77" transform="matrix(1 0 0 -1 0 841)" d="M333.111 728.557L333.111 756.452" stroke="#000000" stroke-width="0.398" fill="none" /><path id="112" transform="matrix(1 0 0 -1 0 841)" d="M543.889 728.557L543.889 756.452" stroke="#000000" stroke-width="0.398" fill="none" /><path id="113" transform="matrix(1 0 0 -1 0 841)" d="M85.039 728.357L544.088 728.357" stroke="#000000" stroke-width="0.398" fill="none" /><path id="114" transform="matrix(1 0 0 -1 0 841)" d="M85.239 699.765L85.239 728.158" stroke="#000000" stroke-width="0.398" fill="none" /><path id="117" transform="matrix(1 0 0 -1 0 841)" d="M119.497 699.765L119.497 728.158" stroke="#000000" stroke-width="0.398" fill="none" /><path id="151" transform="matrix(1 0 0 -1 0 841)" d="M333.111 699.765L333.111 728.158" stroke="#000000" stroke-width="0.398" fill="none" /><path id="255" transform="matrix(1 0 0 -1 0 841)" d="M543.889 699.765L543.889 728.158" stroke="#000000" stroke-width="0.398" fill="none" /><path id="256" transform="matrix(1 0 0 -1 0 841)" d="M85.039 699.565L544.088 699.565" stroke="#000000" stroke-width="0.398" fill="none" /><path id="257" transform="matrix(1 0 0 -1 0 841)" d="M85.239 661.508L85.239 699.366" stroke="#000000" stroke-width="0.398" fill="none" /><path id="260" transform="matrix(1 0 0 -1 0 841)" d="M119.497 661.508L119.497 699.366" stroke="#000000" stroke-width="0.398" fill="none" /><path id="391" transform="matrix(1 0 0 -1 0 841)" d="M333.111 661.508L333.111 699.366" stroke="#000000" stroke-width="0.398" fill="none" /><path id="495" transform="matrix(1 0 0 -1 0 841)" d="M543.889 661.508L543.889 699.366" stroke="#000000" stroke-width="0.398" fill="none" /><path id="496" transform="matrix(1 0 0 -1 0 841)" d="M85.039 661.309L544.088 661.309" stroke="#000000" stroke-width="0.398" fill="none" /><path id="497" transform="matrix(1 0 0 -1 0 841)" d="M85.239 575.929L85.239 661.109" stroke="#000000" stroke-width="0.398" fill="none" /><path id="500" transform="matrix(1 0 0 -1 0 841)" d="M119.497 575.929L119.497 661.109" stroke="#000000" stroke-width="0.398" fill="none" /><path id="723" transform="matrix(1 0 0 -1 0 841)" d="M333.111 575.929L333.111 661.109" stroke="#000000" stroke-width="0.398" fill="none" /><path id="1027" transform="matrix(1 0 0 -1 0 841)" d="M543.889 575.929L543.889 661.109" stroke="#000000" stroke-width="0.398" fill="none" /><path id="1028" transform="matrix(1 0 0 -1 0 841)" d="M85.039 575.73L544.088 575.73" stroke="#000000" stroke-width="0.398" fill="none" /><path id="1029" transform="matrix(1 0 0 -1 0 841)" d="M85.239 486.515L85.239 575.531" stroke="#000000" stroke-width="0.398" fill="none" /><path id="1032" transform="matrix(1 0 0 -1 0 841)" d="M119.497 486.515L119.497 575.531" stroke="#000000" stroke-width="0.398" fill="none" /><path id="1257" transform="matrix(1 0 0 -1 0 841)" d="M333.111 486.515L333.111 575.531" stroke="#000000" stroke-width="0.398" fill="none" /><path id="1570" transform="matrix(1 0 0 -1 0 841)" d="M543.889 486.515L543.889 575.531" stroke="#000000" stroke-width="0.398" fill="none" /><path id="1571" transform="matrix(1 0 0 -1 0 841)" d="M85.039 486.315L544.088 486.315" stroke="#000000" stroke-width="0.398" fill="none" /><path id="1572" transform="matrix(1 0 0 -1 0 841)" d="M85.239 391.471L85.239 486.116" stroke="#000000" stroke-width="0.398" fill="none" /><path id="1575" transform="matrix(1 0 0 -1 0 841)" d="M119.497 391.471L119.497 486.116" stroke="#000000" stroke-width="0.398" fill="none" /><path id="1807" transform="matrix(1 0 0 -1 0 841)" d="M333.111 391.471L333.111 486.116" stroke="#000000" stroke-width="0.398" fill="none" /><path id="2117" transform="matrix(1 0 0 -1 0 841)" d="M543.889 391.471L543.889 486.116" stroke="#000000" stroke-width="0.398" fill="none" /><path id="2118" transform="matrix(1 0 0 -1 0 841)" d="M85.039 391.272L544.088 391.272" stroke="#000000" stroke-width="0.398" fill="none" /></g></g></svg>