<svg xmlns="http://www.w3.org/2000/svg" xmlns:xlink="http://www.w3.org/1999/xlink" id="body_331" preserveAspectRatio="xMinYMin meet" viewBox="0 0 793 1121"><defs><clipPath id="1"><path id="" clip-rule="evenodd" transform="matrix(1 0 0 1 0 0)" d="M0 841L0 -0.8900146L0 -0.8900146L595.276 -0.8900146L595.276 -0.8900146L595.276 841L595.276 841L0 841z" /></clipPath></defs><g transform="matrix(1.333333 0 0 1.333333 0 0)"><g clip-path="url(#1)"><path id="34" transform="matrix(1 0 0 -1 0 841)" d="M85.039 766.564L510.236 766.564" stroke="#000000" stroke-width="0.498" fill="none" /><path id="45" transform="matrix(1 0 0 -1 0 841)" d="M154.711 744.742L172.285 744.742" stroke="#000000" stroke-width="0.436" fill="none" /><path id="66" transform="matrix(1 0 0 -1 0 841)" d="M183.161 744.742L269.203 744.742" stroke="#000000" stroke-width="0.436" fill="none" /><path id="83" transform="matrix(1 0 0 -1 0 841)" d="M283.723 752.653L361.396 752.653" stroke="#000000" stroke-width="0.398" fill="none" /><path id="84" transform="matrix(1 0 0 -1 0 841)" d="M283.922 736.71L283.922 752.653" stroke="#000000" stroke-width="0.398" fill="none" /><path id="85" transform="matrix(1 0 0 -1 0 841)" d="M361.197 736.71L361.197 752.653" stroke="#000000" stroke-width="0.398" fill="none" /><path id="86" transform="matrix(1 0 0 -1 0 841)" d="M283.723 736.71L361.396 736.71" stroke="#000000" stroke-width="0.398" fill="none" /><path id="393" transform="matrix(1 0 0 -1 0 841)" d="M140.8563 603.9115L220.2274 603.9115" stroke="#000000" stroke-width="0.3985" fill="none" /><path id="394" transform="matrix(1 0 0 -1 0 841)" d="M225.8967 598.2422L225.8967 539.1122" stroke="#000000" stroke-width="0.3985" fill="none" /><path id="395" transform="matrix(1 0 0 -1 0 841)" d="M228.2878 540.9852C 226.8531 540.6066 226.1757 539.7629 225.8967 538.913C 225.6178 539.7629 224.9403 540.6066 223.5057 540.9852" stroke="#000000" stroke-width="0.3985" stroke-linecap="round" fill="none" /><path id="396" transform="matrix(1 0 0 -1 0 841)" d="M140.8563 538.7137L344.5547 538.7137" stroke="#000000" stroke-width="0.3985" fill="none" /><path id="397" transform="matrix(1 0 0 -1 0 841)" d="M342.6817 541.1048C 343.0603 539.6701 343.904 538.9927 344.754 538.7137C 343.904 538.4348 343.0603 537.7574 342.6817 536.3227" stroke="#000000" stroke-width="0.3985" stroke-linecap="round" fill="none" /><path id="398" transform="matrix(1 0 0 -1 0 841)" d="M225.8967 598.2422L225.8842 598.6125L225.8842 598.6125L225.8478 598.9814L225.8478 598.9814L225.7873 599.3474L225.7873 599.3474L225.7034 599.7086L225.7034 599.7086L225.5957 600.0632L225.5957 600.0632L225.4651 600.4101L225.4651 600.4101L225.3124 600.7479L225.3124 600.7479L225.1376 601.0754L225.1376 601.0754L224.9417 601.3898L224.9417 601.3898L224.7258 601.6913L224.7258 601.6913L224.491 601.9781L224.491 601.9781L224.2375 602.2488L224.2375 602.2488L223.9672 602.5027L223.9672 602.5027L223.6804 602.738L223.6804 602.738L223.3794 602.9539L223.3794 602.9539L223.0645 603.1503L223.0645 603.1503L222.7375 603.325L222.7375 603.325L222.4001 603.4781L222.4001 603.4781L222.0532 603.6091L222.0532 603.6091L221.6985 603.7169L221.6985 603.7169L221.3373 603.8012L221.3373 603.8012L220.9714 603.8618L220.9714 603.8618L220.6025 603.8986L220.6025 603.8986L220.2318 603.9111" stroke="#000000" stroke-width="0.3985" fill="none" /><path id="556" transform="matrix(1 0 0 -1 0 841)" d="M153.882 414.069L206.581 414.069" stroke="#000000" stroke-width="0.436" fill="none" /><path id="576" transform="matrix(1 0 0 -1 0 841)" d="M221.101 421.981L327.247 421.981" stroke="#000000" stroke-width="0.398" fill="none" /><path id="577" transform="matrix(1 0 0 -1 0 841)" d="M221.3 405.792L221.3 421.981" stroke="#000000" stroke-width="0.398" fill="none" /><path id="578" transform="matrix(1 0 0 -1 0 841)" d="M327.048 405.792L327.048 421.981" stroke="#000000" stroke-width="0.398" fill="none" /><path id="579" transform="matrix(1 0 0 -1 0 841)" d="M221.101 405.792L327.247 405.792" stroke="#000000" stroke-width="0.398" fill="none" /><path id="941" transform="matrix(1 0 0 -1 0 841)" d="M178.043 244.562L331.417 244.562" stroke="#000000" stroke-width="0.436" fill="none" /><path id="972" transform="matrix(1 0 0 -1 0 841)" d="M347.132 244.562L441.651 244.562" stroke="#000000" stroke-width="0.436" fill="none" /><path id="988" transform="matrix(1 0 0 -1 0 841)" d="M456.172 252.419L502.339 252.419" stroke="#000000" stroke-width="0.398" fill="none" /><path id="989" transform="matrix(1 0 0 -1 0 841)" d="M456.371 236.285L456.371 252.419" stroke="#000000" stroke-width="0.398" fill="none" /><path id="990" transform="matrix(1 0 0 -1 0 841)" d="M502.139 236.285L502.139 252.419" stroke="#000000" stroke-width="0.398" fill="none" /><path id="991" transform="matrix(1 0 0 -1 0 841)" d="M456.172 236.285L502.339 236.285" stroke="#000000" stroke-width="0.398" fill="none" /></g></g></svg>