<svg xmlns="http://www.w3.org/2000/svg" xmlns:xlink="http://www.w3.org/1999/xlink" id="body_279" preserveAspectRatio="xMinYMin meet" viewBox="0 0 793 1121"><defs><clipPath id="1"><path id="" clip-rule="evenodd" transform="matrix(1 0 0 1 0 0)" d="M0 841L0 -0.8900146L0 -0.8900146L595.276 -0.8900146L595.276 -0.8900146L595.276 841L595.276 841L0 841z" /></clipPath></defs><g transform="matrix(1.333333 0 0 1.333333 0 0)"><g clip-path="url(#1)"><path id="57" transform="matrix(1 0 0 -1 0 841)" d="M85.039 766.564L510.236 766.564" stroke="#000000" stroke-width="0.498" fill="none" /><path id="58" transform="matrix(1 0 0 -1 0 841)" d="M112.312 756.651L502.283 756.651" stroke="#000000" stroke-width="0.398" fill="none" /><path id="59" transform="matrix(1 0 0 -1 0 841)" d="M112.511 705.642L112.511 756.451" stroke="#000000" stroke-width="0.398" fill="none" /><path id="78" transform="matrix(1 0 0 -1 0 841)" d="M209.904 705.642L209.904 756.451" stroke="#000000" stroke-width="0.398" fill="none" /><path id="105" transform="matrix(1 0 0 -1 0 841)" d="M307.297 705.642L307.297 756.451" stroke="#000000" stroke-width="0.398" fill="none" /><path id="128" transform="matrix(1 0 0 -1 0 841)" d="M404.69 705.642L404.69 756.451" stroke="#000000" stroke-width="0.398" fill="none" /><path id="157" transform="matrix(1 0 0 -1 0 841)" d="M502.084 705.642L502.084 756.451" stroke="#000000" stroke-width="0.398" fill="none" /><path id="158" transform="matrix(1 0 0 -1 0 841)" d="M112.312 705.443L502.283 705.443" stroke="#000000" stroke-width="0.398" fill="none" /><path id="159" transform="matrix(1 0 0 -1 0 841)" d="M112.511 688.307L112.511 705.243" stroke="#000000" stroke-width="0.398" fill="none" /><path id="170" transform="matrix(1 0 0 -1 0 841)" d="M209.904 688.307L209.904 705.243" stroke="#000000" stroke-width="0.398" fill="none" /><path id="173" transform="matrix(1 0 0 -1 0 841)" d="M307.297 688.307L307.297 705.243" stroke="#000000" stroke-width="0.398" fill="none" /><path id="176" transform="matrix(1 0 0 -1 0 841)" d="M404.69 688.307L404.69 705.243" stroke="#000000" stroke-width="0.398" fill="none" /><path id="179" transform="matrix(1 0 0 -1 0 841)" d="M502.084 688.307L502.084 705.243" stroke="#000000" stroke-width="0.398" fill="none" /><path id="180" transform="matrix(1 0 0 -1 0 841)" d="M112.312 688.108L502.283 688.108" stroke="#000000" stroke-width="0.398" fill="none" /><path id="181" transform="matrix(1 0 0 -1 0 841)" d="M112.511 670.972L112.511 687.908" stroke="#000000" stroke-width="0.398" fill="none" /><path id="192" transform="matrix(1 0 0 -1 0 841)" d="M209.904 670.972L209.904 687.908" stroke="#000000" stroke-width="0.398" fill="none" /><path id="196" transform="matrix(1 0 0 -1 0 841)" d="M307.297 670.972L307.297 687.908" stroke="#000000" stroke-width="0.398" fill="none" /><path id="198" transform="matrix(1 0 0 -1 0 841)" d="M404.69 670.972L404.69 687.908" stroke="#000000" stroke-width="0.398" fill="none" /><path id="202" transform="matrix(1 0 0 -1 0 841)" d="M502.084 670.972L502.084 687.908" stroke="#000000" stroke-width="0.398" fill="none" /><path id="203" transform="matrix(1 0 0 -1 0 841)" d="M112.312 670.773L502.283 670.773" stroke="#000000" stroke-width="0.398" fill="none" /><path id="204" transform="matrix(1 0 0 -1 0 841)" d="M112.511 653.637L112.511 670.573" stroke="#000000" stroke-width="0.398" fill="none" /><path id="211" transform="matrix(1 0 0 -1 0 841)" d="M209.904 653.637L209.904 670.573" stroke="#000000" stroke-width="0.398" fill="none" /><path id="214" transform="matrix(1 0 0 -1 0 841)" d="M307.297 653.637L307.297 670.573" stroke="#000000" stroke-width="0.398" fill="none" /><path id="217" transform="matrix(1 0 0 -1 0 841)" d="M404.69 653.637L404.69 670.573" stroke="#000000" stroke-width="0.398" fill="none" /><path id="220" transform="matrix(1 0 0 -1 0 841)" d="M502.084 653.637L502.084 670.573" stroke="#000000" stroke-width="0.398" fill="none" /><path id="221" transform="matrix(1 0 0 -1 0 841)" d="M112.312 653.438L502.283 653.438" stroke="#000000" stroke-width="0.398" fill="none" /></g></g></svg>