<svg xmlns="http://www.w3.org/2000/svg" xmlns:xlink="http://www.w3.org/1999/xlink" id="body_50" preserveAspectRatio="xMinYMin meet" viewBox="0 0 793 1121"><defs><clipPath id="1"><path id="" clip-rule="evenodd" transform="matrix(1 0 0 1 0 0)" d="M0 841L0 -0.8900146L0 -0.8900146L595.276 -0.8900146L595.276 -0.8900146L595.276 841L595.276 841L0 841z" /></clipPath></defs><g transform="matrix(1.333333 0 0 1.333333 0 0)"><g clip-path="url(#1)"><path id="27" transform="matrix(1 0 0 -1 0 841)" d="M85.039 766.564L510.236 766.564" stroke="#000000" stroke-width="0.498" fill="none" /><path id="53" transform="matrix(1 0 0 -1 0 841)" d="M85.039 344.239L85.039 735.3885C 85.039 737.7368 86.94264 739.6405 89.29099 739.6405L89.29099 739.6405L505.9893 739.6405C 508.3377 739.6405 510.2413 737.7368 510.2413 735.3885L510.2413 735.3885L510.2413 344.239C 510.2413 341.8906 508.3377 339.987 505.9893 339.987L505.9893 339.987L89.29099 339.987C 86.94264 339.987 85.039 341.8906 85.039 344.239z" stroke="none" fill="#BFBFFF" fill-rule="nonzero" /><path id="54" transform="matrix(1 0 0 -1 0 841)" d="M86.45631 344.239L86.45631 723.6312L86.45631 723.6312L508.824 723.6312L508.824 723.6312L508.824 344.239C 508.824 342.6734 507.5549 341.4043 505.9893 341.4043L505.9893 341.4043L89.29099 341.4043C 87.72543 341.4043 86.45631 342.6734 86.45631 344.239z" stroke="none" fill="#E6E6FF" fill-rule="nonzero" /><path id="258" transform="matrix(1 0 0 -1 0 841)" d="M127.903 499.143L243.935 499.143" stroke="#000000" stroke-width="0.398" fill="none" /><path id="259" transform="matrix(1 0 0 -1 0 841)" d="M128.102 482.008L128.102 498.944" stroke="#000000" stroke-width="0.398" fill="none" /><path id="266" transform="matrix(1 0 0 -1 0 841)" d="M190.473 482.008L190.473 498.944" stroke="#000000" stroke-width="0.398" fill="none" /><path id="275" transform="matrix(1 0 0 -1 0 841)" d="M243.736 482.008L243.736 498.944" stroke="#000000" stroke-width="0.398" fill="none" /><path id="276" transform="matrix(1 0 0 -1 0 841)" d="M127.903 481.808L243.935 481.808" stroke="#000000" stroke-width="0.398" fill="none" /><path id="277" transform="matrix(1 0 0 -1 0 841)" d="M128.102 464.673L128.102 481.609" stroke="#000000" stroke-width="0.398" fill="none" /><path id="285" transform="matrix(1 0 0 -1 0 841)" d="M190.473 464.673L190.473 481.609" stroke="#000000" stroke-width="0.398" fill="none" /><path id="294" transform="matrix(1 0 0 -1 0 841)" d="M243.736 464.673L243.736 481.609" stroke="#000000" stroke-width="0.398" fill="none" /><path id="295" transform="matrix(1 0 0 -1 0 841)" d="M127.903 464.473L243.935 464.473" stroke="#000000" stroke-width="0.398" fill="none" /><path id="296" transform="matrix(1 0 0 -1 0 841)" d="M128.102 447.338L128.102 464.274" stroke="#000000" stroke-width="0.398" fill="none" /><path id="306" transform="matrix(1 0 0 -1 0 841)" d="M190.473 447.338L190.473 464.274" stroke="#000000" stroke-width="0.398" fill="none" /><path id="315" transform="matrix(1 0 0 -1 0 841)" d="M243.736 447.338L243.736 464.274" stroke="#000000" stroke-width="0.398" fill="none" /><path id="316" transform="matrix(1 0 0 -1 0 841)" d="M127.903 447.138L243.935 447.138" stroke="#000000" stroke-width="0.398" fill="none" /><path id="317" transform="matrix(1 0 0 -1 0 841)" d="M128.102 430.003L128.102 446.939" stroke="#000000" stroke-width="0.398" fill="none" /><path id="326" transform="matrix(1 0 0 -1 0 841)" d="M190.473 430.003L190.473 446.939" stroke="#000000" stroke-width="0.398" fill="none" /><path id="335" transform="matrix(1 0 0 -1 0 841)" d="M243.736 430.003L243.736 446.939" stroke="#000000" stroke-width="0.398" fill="none" /><path id="336" transform="matrix(1 0 0 -1 0 841)" d="M127.903 429.803L243.935 429.803" stroke="#000000" stroke-width="0.398" fill="none" /><path id="337" transform="matrix(1 0 0 -1 0 841)" d="M128.102 412.668L128.102 429.604" stroke="#000000" stroke-width="0.398" fill="none" /><path id="344" transform="matrix(1 0 0 -1 0 841)" d="M190.473 412.668L190.473 429.604" stroke="#000000" stroke-width="0.398" fill="none" /><path id="353" transform="matrix(1 0 0 -1 0 841)" d="M243.736 412.668L243.736 429.604" stroke="#000000" stroke-width="0.398" fill="none" /><path id="354" transform="matrix(1 0 0 -1 0 841)" d="M127.903 412.468L243.935 412.468" stroke="#000000" stroke-width="0.398" fill="none" /><path id="355" transform="matrix(1 0 0 -1 0 841)" d="M128.102 395.333L128.102 412.269" stroke="#000000" stroke-width="0.398" fill="none" /><path id="364" transform="matrix(1 0 0 -1 0 841)" d="M190.473 395.333L190.473 412.269" stroke="#000000" stroke-width="0.398" fill="none" /><path id="373" transform="matrix(1 0 0 -1 0 841)" d="M243.736 395.333L243.736 412.269" stroke="#000000" stroke-width="0.398" fill="none" /><path id="374" transform="matrix(1 0 0 -1 0 841)" d="M127.903 395.133L243.935 395.133" stroke="#000000" stroke-width="0.398" fill="none" /><path id="375" transform="matrix(1 0 0 -1 0 841)" d="M128.102 377.998L128.102 394.934" stroke="#000000" stroke-width="0.398" fill="none" /><path id="382" transform="matrix(1 0 0 -1 0 841)" d="M190.473 377.998L190.473 394.934" stroke="#000000" stroke-width="0.398" fill="none" /><path id="391" transform="matrix(1 0 0 -1 0 841)" d="M243.736 377.998L243.736 394.934" stroke="#000000" stroke-width="0.398" fill="none" /><path id="392" transform="matrix(1 0 0 -1 0 841)" d="M127.903 377.798L243.935 377.798" stroke="#000000" stroke-width="0.398" fill="none" /></g></g></svg>