<svg xmlns="http://www.w3.org/2000/svg" xmlns:xlink="http://www.w3.org/1999/xlink" id="body_277" preserveAspectRatio="xMinYMin meet" viewBox="0 0 793 1121"><defs><clipPath id="1"><path id="" clip-rule="evenodd" transform="matrix(1 0 0 1 0 0)" d="M0 841L0 -0.8900146L0 -0.8900146L595.276 -0.8900146L595.276 -0.8900146L595.276 841L595.276 841L0 841z" /></clipPath></defs><g transform="matrix(1.333333 0 0 1.333333 0 0)"><g clip-path="url(#1)"><path id="57" transform="matrix(1 0 0 -1 0 841)" d="M85.039 766.564L510.236 766.564" stroke="#000000" stroke-width="0.498" fill="none" /><path id="58" transform="matrix(1 0 0 -1 0 841)" d="M85.039 756.651L527.857 756.651" stroke="#000000" stroke-width="0.398" fill="none" /><path id="88" transform="matrix(1 0 0 -1 0 841)" d="M85.039 742.703L527.857 742.703" stroke="#000000" stroke-width="0.398" fill="none" /><path id="89" transform="matrix(1 0 0 -1 0 841)" d="M85.239 627.695L85.239 742.504" stroke="#000000" stroke-width="0.398" fill="none" /><g transform="matrix(0.08 0 0 0.07999999 91.415 118.462)"><g transform="matrix(1 0 0 1 0 0)"><image x="0" y="0" xlink:href="img_404.png" width="1280" height="948" /></g></g><path id="399" transform="matrix(1 0 0 -1 0 841)" d="M527.658 627.695L527.658 742.504" stroke="#000000" stroke-width="0.398" fill="none" /><path id="400" transform="matrix(1 0 0 -1 0 841)" d="M85.039 627.496L527.857 627.496" stroke="#000000" stroke-width="0.398" fill="none" /><path id="414" transform="matrix(1 0 0 -1 0 841)" d="M85.039 613.548L527.857 613.548" stroke="#000000" stroke-width="0.398" fill="none" /><path id="415" transform="matrix(1 0 0 -1 0 841)" d="M85.239 539.187L85.239 613.349" stroke="#000000" stroke-width="0.398" fill="none" /><g transform="matrix(0.15 0 0 0.15 91.415 239.289)"><g transform="matrix(1 0 0 1 0 0)"><image x="0" y="0" xlink:href="img_405.png" width="591" height="339" /></g></g><path id="599" transform="matrix(1 0 0 -1 0 841)" d="M527.658 539.187L527.658 613.349" stroke="#000000" stroke-width="0.398" fill="none" /><path id="600" transform="matrix(1 0 0 -1 0 841)" d="M85.039 538.988L527.857 538.988" stroke="#000000" stroke-width="0.398" fill="none" /><path id="614" transform="matrix(1 0 0 -1 0 841)" d="M85.039 525.04L527.857 525.04" stroke="#000000" stroke-width="0.398" fill="none" /><path id="615" transform="matrix(1 0 0 -1 0 841)" d="M85.239 434.295L85.239 524.84" stroke="#000000" stroke-width="0.398" fill="none" /><g transform="matrix(0.16 0 0 0.16 91.415 332.615)"><g transform="matrix(1 0 0 1 0 0)"><image x="0" y="0" xlink:href="img_406.png" width="480" height="360" /></g></g><path id="832" transform="matrix(1 0 0 -1 0 841)" d="M527.658 434.295L527.658 524.84" stroke="#000000" stroke-width="0.398" fill="none" /><path id="833" transform="matrix(1 0 0 -1 0 841)" d="M85.039 434.096L527.857 434.096" stroke="#000000" stroke-width="0.398" fill="none" /><path id="849" transform="matrix(1 0 0 -1 0 841)" d="M85.039 420.148L527.857 420.148" stroke="#000000" stroke-width="0.398" fill="none" /><path id="850" transform="matrix(1 0 0 -1 0 841)" d="M85.239 356.507L85.239 419.949" stroke="#000000" stroke-width="0.398" fill="none" /><g transform="matrix(0.13 0 0 0.13 122.489 421.053)"><g transform="matrix(1 0 0 1 0 0)"><image x="0" y="0" xlink:href="img_407.png" width="390" height="488" /></g></g><path id="931" transform="matrix(1 0 0 -1 0 841)" d="M527.658 356.507L527.658 419.949" stroke="#000000" stroke-width="0.398" fill="none" /><path id="932" transform="matrix(1 0 0 -1 0 841)" d="M85.039 356.307L527.857 356.307" stroke="#000000" stroke-width="0.398" fill="none" /><path id="950" transform="matrix(1 0 0 -1 0 841)" d="M85.039 342.36L527.857 342.36" stroke="#000000" stroke-width="0.398" fill="none" /><path id="951" transform="matrix(1 0 0 -1 0 841)" d="M85.239 253.825L85.239 342.16" stroke="#000000" stroke-width="0.398" fill="none" /><g transform="matrix(0.35 0 0 0.35 91.415 504.665)"><g transform="matrix(1 0 0 1 0 0)"><image x="0" y="0" xlink:href="img_408.png" width="230" height="219" /></g></g><path id="1145" transform="matrix(1 0 0 -1 0 841)" d="M527.658 253.825L527.658 342.16" stroke="#000000" stroke-width="0.398" fill="none" /><path id="1146" transform="matrix(1 0 0 -1 0 841)" d="M85.039 253.626L527.857 253.626" stroke="#000000" stroke-width="0.398" fill="none" /></g></g></svg>