<svg xmlns="http://www.w3.org/2000/svg" xmlns:xlink="http://www.w3.org/1999/xlink" id="body_110" preserveAspectRatio="xMinYMin meet" viewBox="0 0 793 1121"><defs><clipPath id="1"><path id="" clip-rule="evenodd" transform="matrix(1 0 0 1 0 0)" d="M0 841L0 -0.8900146L0 -0.8900146L595.276 -0.8900146L595.276 -0.8900146L595.276 841L595.276 841L0 841z" /></clipPath><clipPath id="2"><path id="" clip-rule="evenodd" transform="matrix(1 0 0 1 0 0)" d="M-0.139 805.413L595.4166 805.413L595.4166 805.413L595.4166 34.69409L595.4166 34.69409L-0.139 34.69409z" /></clipPath><clipPath id="3"><path id="" clip-rule="evenodd" transform="matrix(1 0 0 1 0 0)" d="M210.7577 131.501L349.4871 131.501L349.4871 131.501L349.4871 120.2905L349.4871 120.2905L210.7577 120.2905z" /></clipPath><clipPath id="4"><path id="" clip-rule="evenodd" transform="matrix(1 0 0 1 0 0)" d="M210.7577 131.501L349.4871 131.501L349.4871 131.501L349.4871 120.2905L349.4871 120.2905L210.7577 120.2905z" /></clipPath><clipPath id="5"><path id="" clip-rule="evenodd" transform="matrix(1 0 0 1 0 0)" d="M350.8884 131.501L515.5421 131.501L515.5421 131.501L515.5421 120.2905L515.5421 120.2905L350.8884 120.2905z" /></clipPath><clipPath id="6"><path id="" clip-rule="evenodd" transform="matrix(1 0 0 1 0 0)" d="M350.8884 131.501L515.5421 131.501L515.5421 131.501L515.5421 120.2905L515.5421 120.2905L350.8884 120.2905z" /></clipPath><clipPath id="7"><path id="" clip-rule="evenodd" transform="matrix(1 0 0 1 0 0)" d="M79.61874 163.0305L515.5421 163.0305L515.5421 163.0305L515.5421 149.6013L515.5421 149.6013L79.61874 149.6013z" /></clipPath><clipPath id="8"><path id="" clip-rule="evenodd" transform="matrix(1 0 0 1 0 0)" d="M79.61874 163.0305L515.5421 163.0305L515.5421 163.0305L515.5421 149.6013L515.5421 149.6013L79.61874 149.6013z" /></clipPath><clipPath id="9"><path id="" clip-rule="evenodd" transform="matrix(1 0 0 1 0 0)" d="M211.6919 197.1289L280.7063 197.1289L280.7063 197.1289L280.7063 163.4976L280.7063 163.4976L211.6919 163.4976z" /></clipPath><clipPath id="10"><path id="" clip-rule="evenodd" transform="matrix(1 0 0 1 0 0)" d="M211.6919 197.1289L280.7063 197.1289L280.7063 197.1289L280.7063 163.4976L280.7063 163.4976L211.6919 163.4976z" /></clipPath><clipPath id="11"><path id="" clip-rule="evenodd" transform="matrix(1 0 0 1 0 0)" d="M281.2902 197.1289L350.3046 197.1289L350.3046 197.1289L350.3046 163.4976L350.3046 163.4976L281.2902 163.4976z" /></clipPath><clipPath id="12"><path id="" clip-rule="evenodd" transform="matrix(1 0 0 1 0 0)" d="M281.2902 197.1289L350.3046 197.1289L350.3046 197.1289L350.3046 163.4976L350.3046 163.4976L281.2902 163.4976z" /></clipPath><clipPath id="13"><path id="" clip-rule="evenodd" transform="matrix(1 0 0 1 0 0)" d="M425.7416 197.1289L515.5421 197.1289L515.5421 197.1289L515.5421 163.4976L515.5421 163.4976L425.7416 163.4976z" /></clipPath><clipPath id="14"><path id="" clip-rule="evenodd" transform="matrix(1 0 0 1 0 0)" d="M425.7416 197.1289L515.5421 197.1289L515.5421 197.1289L515.5421 163.4976L515.5421 163.4976L425.7416 163.4976z" /></clipPath><clipPath id="15"><path id="" clip-rule="evenodd" transform="matrix(1 0 0 1 0 0)" d="M425.7416 197.1289L515.5421 197.1289L515.5421 197.1289L515.5421 163.4976L515.5421 163.4976L425.7416 163.4976z" /></clipPath><clipPath id="16"><path id="" clip-rule="evenodd" transform="matrix(1 0 0 1 0 0)" d="M211.6919 208.8065L280.7063 208.8065L280.7063 208.8065L280.7063 197.596L280.7063 197.596L211.6919 197.596z" /></clipPath><clipPath id="17"><path id="" clip-rule="evenodd" transform="matrix(1 0 0 1 0 0)" d="M211.6919 208.8065L280.7063 208.8065L280.7063 208.8065L280.7063 197.596L280.7063 197.596L211.6919 197.596z" /></clipPath><clipPath id="18"><path id="" clip-rule="evenodd" transform="matrix(1 0 0 1 0 0)" d="M211.6919 220.484L280.7063 220.484L280.7063 220.484L280.7063 209.2736L280.7063 209.2736L211.6919 209.2736z" /></clipPath><clipPath id="19"><path id="" clip-rule="evenodd" transform="matrix(1 0 0 1 0 0)" d="M211.6919 220.484L280.7063 220.484L280.7063 220.484L280.7063 209.2736L280.7063 209.2736L211.6919 209.2736z" /></clipPath><clipPath id="20"><path id="" clip-rule="evenodd" transform="matrix(1 0 0 1 0 0)" d="M351.8226 220.484L425.2735 220.484L425.2735 220.484L425.2735 209.2736L425.2735 209.2736L351.8226 209.2736z" /></clipPath><clipPath id="21"><path id="" clip-rule="evenodd" transform="matrix(1 0 0 1 0 0)" d="M351.8226 220.484L425.2735 220.484L425.2735 220.484L425.2735 209.2736L425.2735 209.2736L351.8226 209.2736z" /></clipPath><clipPath id="22"><path id="" clip-rule="evenodd" transform="matrix(1 0 0 1 0 0)" d="M281.2902 232.1616L350.3046 232.1616L350.3046 232.1616L350.3046 220.9511L350.3046 220.9511L281.2902 220.9511z" /></clipPath><clipPath id="23"><path id="" clip-rule="evenodd" transform="matrix(1 0 0 1 0 0)" d="M281.2902 232.1616L350.3046 232.1616L350.3046 232.1616L350.3046 220.9511L350.3046 220.9511L281.2902 220.9511z" /></clipPath><clipPath id="24"><path id="" clip-rule="evenodd" transform="matrix(1 0 0 1 0 0)" d="M281.2902 232.1616L350.3046 232.1616L350.3046 232.1616L350.3046 220.9511L350.3046 220.9511L281.2902 220.9511z" /></clipPath><clipPath id="25"><path id="" clip-rule="evenodd" transform="matrix(1 0 0 1 0 0)" d="M281.2902 232.1616L350.3046 232.1616L350.3046 232.1616L350.3046 220.9511L350.3046 220.9511L281.2902 220.9511z" /></clipPath><clipPath id="26"><path id="" clip-rule="evenodd" transform="matrix(1 0 0 1 0 0)" d="M425.7416 232.1616L515.5421 232.1616L515.5421 232.1616L515.5421 220.9511L515.5421 220.9511L425.7416 220.9511z" /></clipPath><clipPath id="27"><path id="" clip-rule="evenodd" transform="matrix(1 0 0 1 0 0)" d="M425.7416 232.1616L515.5421 232.1616L515.5421 232.1616L515.5421 220.9511L515.5421 220.9511L425.7416 220.9511z" /></clipPath><clipPath id="28"><path id="" clip-rule="evenodd" transform="matrix(1 0 0 1 0 0)" d="M281.2902 257.7355L350.3046 257.7355L350.3046 257.7355L350.3046 246.525L350.3046 246.525L281.2902 246.525z" /></clipPath><clipPath id="29"><path id="" clip-rule="evenodd" transform="matrix(1 0 0 1 0 0)" d="M281.2902 257.7355L350.3046 257.7355L350.3046 257.7355L350.3046 246.525L350.3046 246.525L281.2902 246.525z" /></clipPath><clipPath id="30"><path id="" clip-rule="evenodd" transform="matrix(1 0 0 1 0 0)" d="M425.7416 257.7355L515.5421 257.7355L515.5421 257.7355L515.5421 246.525L515.5421 246.525L425.7416 246.525z" /></clipPath><clipPath id="31"><path id="" clip-rule="evenodd" transform="matrix(1 0 0 1 0 0)" d="M425.7416 257.7355L515.5421 257.7355L515.5421 257.7355L515.5421 246.525L515.5421 246.525L425.7416 246.525z" /></clipPath><clipPath id="32"><path id="" clip-rule="evenodd" transform="matrix(1 0 0 1 0 0)" d="M425.7416 257.7355L515.5421 257.7355L515.5421 257.7355L515.5421 246.525L515.5421 246.525L425.7416 246.525z" /></clipPath><clipPath id="33"><path id="" clip-rule="evenodd" transform="matrix(1 0 0 1 0 0)" d="M281.2902 269.413L350.3046 269.413L350.3046 269.413L350.3046 258.2026L350.3046 258.2026L281.2902 258.2026z" /></clipPath><clipPath id="34"><path id="" clip-rule="evenodd" transform="matrix(1 0 0 1 0 0)" d="M281.2902 269.413L350.3046 269.413L350.3046 269.413L350.3046 258.2026L350.3046 258.2026L281.2902 258.2026z" /></clipPath><clipPath id="35"><path id="" clip-rule="evenodd" transform="matrix(1 0 0 1 0 0)" d="M425.7416 269.413L515.5421 269.413L515.5421 269.413L515.5421 258.2026L515.5421 258.2026L425.7416 258.2026z" /></clipPath><clipPath id="36"><path id="" clip-rule="evenodd" transform="matrix(1 0 0 1 0 0)" d="M425.7416 269.413L515.5421 269.413L515.5421 269.413L515.5421 258.2026L515.5421 258.2026L425.7416 258.2026z" /></clipPath><clipPath id="37"><path id="" clip-rule="evenodd" transform="matrix(1 0 0 1 0 0)" d="M425.7416 269.413L515.5421 269.413L515.5421 269.413L515.5421 258.2026L515.5421 258.2026L425.7416 258.2026z" /></clipPath></defs><g transform="matrix(1.333333 0 0 1.333333 0 0)"><g clip-path="url(#1)"><g clip-path="url(#2)"><path id="44" transform="matrix(1 0 0 -1 0 841)" d="M75.29803 720.5926L75.99869 720.5926L75.99869 725.0301L75.29803 725.0301z" stroke="none" fill="#000000" fill-rule="nonzero" /><path id="45" transform="matrix(1 0 0 -1 0 841)" d="M75.29803 724.3295L79.61971 724.3295L79.61971 725.0301L75.29803 725.0301z" stroke="none" fill="#000000" fill-rule="nonzero" /><path id="46" transform="matrix(1 0 0 -1 0 841)" d="M76.69934 720.5926L79.61874 720.5926L79.61874 720.5926L79.61874 723.6288L79.61874 723.6288L76.69934 723.6288z" stroke="none" fill="#000000" fill-rule="evenodd" /><path id="47" transform="matrix(1 0 0 -1 0 841)" d="M76.69934 720.7094L79.61874 720.7094L79.61874 720.7094L79.61874 723.6288L79.61874 723.6288L76.69934 723.6288z" stroke="none" fill="#000000" fill-rule="evenodd" /><path id="48" transform="matrix(1 0 0 -1 0 841)" d="M79.61874 724.3295L209.3564 724.3295L209.3564 725.0301L79.61874 725.0301z" stroke="none" fill="#000000" fill-rule="nonzero" /><path id="49" transform="matrix(1 0 0 -1 0 841)" d="M79.61874 720.7094L209.3564 720.7094L209.3564 720.7094L209.3564 723.6288L209.3564 723.6288L79.61874 723.6288z" stroke="none" fill="#000000" fill-rule="evenodd" /><path id="50" transform="matrix(1 0 0 -1 0 841)" d="M210.2906 720.5926L210.7577 720.5926L210.7577 720.7103L210.2906 720.7103z" stroke="none" fill="#000000" fill-rule="nonzero" /><path id="51" transform="matrix(1 0 0 -1 0 841)" d="M209.3564 720.5926L209.8235 720.5926L209.8235 720.7103L209.3564 720.7103z" stroke="none" fill="#000000" fill-rule="nonzero" /><path id="52" transform="matrix(1 0 0 -1 0 841)" d="M209.3564 724.3295L213.6771 724.3295L213.6771 725.0301L209.3564 725.0301z" stroke="none" fill="#000000" fill-rule="nonzero" /><path id="53" transform="matrix(1 0 0 -1 0 841)" d="M209.3564 720.7094L213.6771 720.7094L213.6771 720.7094L213.6771 723.6288L213.6771 723.6288L209.3564 723.6288z" stroke="none" fill="#000000" fill-rule="evenodd" /><path id="54" transform="matrix(1 0 0 -1 0 841)" d="M213.6771 724.3295L349.4871 724.3295L349.4871 725.0301L213.6771 725.0301z" stroke="none" fill="#000000" fill-rule="nonzero" /><path id="55" transform="matrix(1 0 0 -1 0 841)" d="M213.6771 720.7094L349.4871 720.7094L349.4871 720.7094L349.4871 723.6288L349.4871 723.6288L213.6771 723.6288z" stroke="none" fill="#000000" fill-rule="evenodd" /><path id="56" transform="matrix(1 0 0 -1 0 841)" d="M350.4213 720.5926L350.8884 720.5926L350.8884 720.7103L350.4213 720.7103z" stroke="none" fill="#000000" fill-rule="nonzero" /><path id="57" transform="matrix(1 0 0 -1 0 841)" d="M349.4871 720.5926L349.9543 720.5926L349.9543 720.7103L349.4871 720.7103z" stroke="none" fill="#000000" fill-rule="nonzero" /><path id="58" transform="matrix(1 0 0 -1 0 841)" d="M349.4871 724.3295L353.8078 724.3295L353.8078 725.0301L349.4871 725.0301z" stroke="none" fill="#000000" fill-rule="nonzero" /><path id="59" transform="matrix(1 0 0 -1 0 841)" d="M349.4871 720.7094L353.8078 720.7094L353.8078 720.7094L353.8078 723.6288L353.8078 723.6288L349.4871 723.6288z" stroke="none" fill="#000000" fill-rule="evenodd" /><path id="60" transform="matrix(1 0 0 -1 0 841)" d="M353.8078 724.3295L515.5421 724.3295L515.5421 725.0301L353.8078 725.0301z" stroke="none" fill="#000000" fill-rule="nonzero" /><path id="61" transform="matrix(1 0 0 -1 0 841)" d="M353.8078 720.7094L515.5421 720.7094L515.5421 720.7094L515.5421 723.6288L515.5421 723.6288L353.8078 723.6288z" stroke="none" fill="#000000" fill-rule="evenodd" /><path id="62" transform="matrix(1 0 0 -1 0 841)" d="M519.1621 720.5926L519.8627 720.5926L519.8627 725.0301L519.1621 725.0301z" stroke="none" fill="#000000" fill-rule="nonzero" /><path id="63" transform="matrix(1 0 0 -1 0 841)" d="M515.5421 724.3295L519.8627 724.3295L519.8627 725.0301L515.5421 725.0301z" stroke="none" fill="#000000" fill-rule="nonzero" /><path id="64" transform="matrix(1 0 0 -1 0 841)" d="M515.5421 720.5926L518.4614 720.5926L518.4614 720.5926L518.4614 723.6288L518.4614 723.6288L515.5421 723.6288z" stroke="none" fill="#000000" fill-rule="evenodd" /><path id="65" transform="matrix(1 0 0 -1 0 841)" d="M515.5421 720.7094L518.4614 720.7094L518.4614 720.7094L518.4614 723.6288L518.4614 723.6288L515.5421 723.6288z" stroke="none" fill="#000000" fill-rule="evenodd" /><path id="66" transform="matrix(1 0 0 -1 0 841)" d="M76.69934 709.499L79.61874 709.499L79.61874 709.499L79.61874 720.5927L79.61874 720.5927L76.69934 720.5927z" stroke="none" fill="#000000" fill-rule="evenodd" /><path id="67" transform="matrix(1 0 0 -1 0 841)" d="M75.29803 709.499L75.99869 709.499L75.99869 720.5917L75.29803 720.5917z" stroke="none" fill="#000000" fill-rule="nonzero" /><path id="68" transform="matrix(1 0 0 -1 0 841)" d="M210.2906 709.499L210.7577 709.499L210.7577 720.5917L210.2906 720.5917z" stroke="none" fill="#000000" fill-rule="nonzero" /><path id="69" transform="matrix(1 0 0 -1 0 841)" d="M209.3564 709.499L209.8235 709.499L209.8235 720.5917L209.3564 720.5917z" stroke="none" fill="#000000" fill-rule="nonzero" /><path id="70" transform="matrix(1 0 0 -1 0 841)" d="M350.4213 709.499L350.8884 709.499L350.8884 720.5917L350.4213 720.5917z" stroke="none" fill="#000000" fill-rule="nonzero" /><path id="71" transform="matrix(1 0 0 -1 0 841)" d="M349.4871 709.499L349.9543 709.499L349.9543 720.5917L349.4871 720.5917z" stroke="none" fill="#000000" fill-rule="nonzero" /><path id="72" transform="matrix(1 0 0 -1 0 841)" d="M519.1621 709.499L519.8627 709.499L519.8627 720.5917L519.1621 720.5917z" stroke="none" fill="#000000" fill-rule="nonzero" /><path id="73" transform="matrix(1 0 0 -1 0 841)" d="M515.5421 709.499L518.4614 709.499L518.4614 709.499L518.4614 720.5927L518.4614 720.5927L515.5421 720.5927z" stroke="none" fill="#000000" fill-rule="evenodd" /><path id="74" transform="matrix(1 0 0 -1 0 841)" d="M75.29803 708.5648L75.99869 708.5648L75.99869 709.499L75.29803 709.499z" stroke="none" fill="#000000" fill-rule="nonzero" /><path id="75" transform="matrix(1 0 0 -1 0 841)" d="M76.69934 708.5648L79.61971 708.5648L79.61971 709.499L76.69934 709.499z" stroke="none" fill="#000000" fill-rule="nonzero" /><path id="76" transform="matrix(1 0 0 -1 0 841)" d="M210.2906 708.5648L210.7577 708.5648L210.7577 709.499L210.2906 709.499z" stroke="none" fill="#000000" fill-rule="nonzero" /><path id="77" transform="matrix(1 0 0 -1 0 841)" d="M209.3564 708.5648L209.8235 708.5648L209.8235 709.499L209.3564 709.499z" stroke="none" fill="#000000" fill-rule="nonzero" /><path id="78" transform="matrix(1 0 0 -1 0 841)" d="M210.7577 708.5648L279.6553 708.5648L279.6553 709.499L210.7577 709.499z" stroke="none" fill="#000000" fill-rule="nonzero" /><path id="79" transform="matrix(1 0 0 -1 0 841)" d="M279.6553 708.5648L280.5886 708.5648L280.5886 709.499L279.6553 709.499z" stroke="none" fill="#000000" fill-rule="nonzero" /><path id="80" transform="matrix(1 0 0 -1 0 841)" d="M280.5895 708.5648L349.4872 708.5648L349.4872 709.499L280.5895 709.499z" stroke="none" fill="#000000" fill-rule="nonzero" /><path id="81" transform="matrix(1 0 0 -1 0 841)" d="M350.4213 708.5648L350.8884 708.5648L350.8884 709.499L350.4213 709.499z" stroke="none" fill="#000000" fill-rule="nonzero" /><path id="82" transform="matrix(1 0 0 -1 0 841)" d="M349.4871 708.5648L349.9543 708.5648L349.9543 709.499L349.4871 709.499z" stroke="none" fill="#000000" fill-rule="nonzero" /><path id="83" transform="matrix(1 0 0 -1 0 841)" d="M350.8884 708.5648L424.2235 708.5648L424.2235 709.499L350.8884 709.499z" stroke="none" fill="#000000" fill-rule="nonzero" /><path id="84" transform="matrix(1 0 0 -1 0 841)" d="M424.2235 708.5648L425.1577 708.5648L425.1577 709.499L424.2235 709.499z" stroke="none" fill="#000000" fill-rule="nonzero" /><path id="85" transform="matrix(1 0 0 -1 0 841)" d="M425.1577 708.5648L515.5421 708.5648L515.5421 709.499L425.1577 709.499z" stroke="none" fill="#000000" fill-rule="nonzero" /><path id="86" transform="matrix(1 0 0 -1 0 841)" d="M519.1621 708.5648L519.8627 708.5648L519.8627 709.499L519.1621 709.499z" stroke="none" fill="#000000" fill-rule="nonzero" /><path id="87" transform="matrix(1 0 0 -1 0 841)" d="M515.5421 708.5648L518.4614 708.5648L518.4614 709.499L515.5421 709.499z" stroke="none" fill="#000000" fill-rule="nonzero" /><path id="88" transform="matrix(1 0 0 -1 0 841)" d="M76.69934 692.8L79.61874 692.8L79.61874 692.8L79.61874 708.5648L79.61874 708.5648L76.69934 708.5648z" stroke="none" fill="#000000" fill-rule="evenodd" /><path id="89" transform="matrix(1 0 0 -1 0 841)" d="M75.29803 692.8L75.99869 692.8L75.99869 708.5648L75.29803 708.5648z" stroke="none" fill="#000000" fill-rule="nonzero" /><path id="90" transform="matrix(1 0 0 -1 0 841)" d="M210.2906 692.8L210.7577 692.8L210.7577 708.5648L210.2906 708.5648z" stroke="none" fill="#000000" fill-rule="nonzero" /><path id="91" transform="matrix(1 0 0 -1 0 841)" d="M209.3564 692.8L209.8235 692.8L209.8235 708.5648L209.3564 708.5648z" stroke="none" fill="#000000" fill-rule="nonzero" /><path id="92" transform="matrix(1 0 0 -1 0 841)" d="M279.6553 692.8L280.5886 692.8L280.5886 708.5648L279.6553 708.5648z" stroke="none" fill="#000000" fill-rule="nonzero" /><path id="93" transform="matrix(1 0 0 -1 0 841)" d="M350.4213 692.8L350.8884 692.8L350.8884 708.5648L350.4213 708.5648z" stroke="none" fill="#000000" fill-rule="nonzero" /><path id="94" transform="matrix(1 0 0 -1 0 841)" d="M349.4871 692.8L349.9543 692.8L349.9543 708.5648L349.4871 708.5648z" stroke="none" fill="#000000" fill-rule="nonzero" /><path id="95" transform="matrix(1 0 0 -1 0 841)" d="M424.2235 692.8L425.1577 692.8L425.1577 708.5648L424.2235 708.5648z" stroke="none" fill="#000000" fill-rule="nonzero" /><path id="96" transform="matrix(1 0 0 -1 0 841)" d="M519.1621 692.8L519.8627 692.8L519.8627 708.5648L519.1621 708.5648z" stroke="none" fill="#000000" fill-rule="nonzero" /><path id="97" transform="matrix(1 0 0 -1 0 841)" d="M515.5421 692.8L518.4614 692.8L518.4614 692.8L518.4614 708.5648L518.4614 708.5648L515.5421 708.5648z" stroke="none" fill="#000000" fill-rule="evenodd" /><path id="98" transform="matrix(1 0 0 -1 0 841)" d="M79.61874 677.9695L515.5421 677.9695L515.5421 677.9695L515.5421 691.3987L515.5421 691.3987L79.61874 691.3987z" stroke="none" fill="#F3F3F3" fill-rule="evenodd" /><path id="99" transform="matrix(1 0 0 -1 0 841)" d="M82.77168 677.9695L512.5049 677.9695L512.5049 691.3987L82.77168 691.3987z" stroke="none" fill="#F3F3F3" fill-rule="nonzero" /><path id="100" transform="matrix(1 0 0 -1 0 841)" d="M76.69934 691.2819L79.61874 691.2819L79.61874 691.2819L79.61874 692.8L79.61874 692.8L76.69934 692.8z" stroke="none" fill="#000000" fill-rule="evenodd" /><path id="101" transform="matrix(1 0 0 -1 0 841)" d="M75.29803 691.2819L75.99869 691.2819L75.99869 692.8L75.29803 692.8z" stroke="none" fill="#000000" fill-rule="nonzero" /><path id="102" transform="matrix(1 0 0 -1 0 841)" d="M79.61874 691.3987L209.3564 691.3987L209.3564 691.3987L209.3564 692.8L209.3564 692.8L79.61874 692.8z" stroke="none" fill="#000000" fill-rule="evenodd" /><path id="103" transform="matrix(1 0 0 -1 0 841)" d="M79.61874 691.2819L209.3564 691.2819L209.3564 691.3987L79.61874 691.3987z" stroke="none" fill="#F3F3F3" fill-rule="nonzero" /><path id="104" transform="matrix(1 0 0 -1 0 841)" d="M209.3564 691.2819L210.7577 691.2819L210.7577 691.3987L209.3564 691.3987z" stroke="none" fill="#F3F3F3" fill-rule="nonzero" /><path id="105" transform="matrix(1 0 0 -1 0 841)" d="M209.3564 691.3987L210.7577 691.3987L210.7577 691.3987L210.7577 692.8L210.7577 692.8L209.3564 692.8z" stroke="none" fill="#000000" fill-rule="evenodd" /><path id="106" transform="matrix(1 0 0 -1 0 841)" d="M210.7577 691.3987L279.6553 691.3987L279.6553 691.3987L279.6553 692.8L279.6553 692.8L210.7577 692.8z" stroke="none" fill="#000000" fill-rule="evenodd" /><path id="107" transform="matrix(1 0 0 -1 0 841)" d="M210.7577 691.2819L279.6553 691.2819L279.6553 691.3987L210.7577 691.3987z" stroke="none" fill="#F3F3F3" fill-rule="nonzero" /><path id="108" transform="matrix(1 0 0 -1 0 841)" d="M279.6553 691.2819L281.0566 691.2819L281.0566 691.3987L279.6553 691.3987z" stroke="none" fill="#F3F3F3" fill-rule="nonzero" /><path id="109" transform="matrix(1 0 0 -1 0 841)" d="M279.6553 691.3987L281.0566 691.3987L281.0566 691.3987L281.0566 692.8L281.0566 692.8L279.6553 692.8z" stroke="none" fill="#000000" fill-rule="evenodd" /><path id="110" transform="matrix(1 0 0 -1 0 841)" d="M281.0566 691.3987L349.4871 691.3987L349.4871 691.3987L349.4871 692.8L349.4871 692.8L281.0566 692.8z" stroke="none" fill="#000000" fill-rule="evenodd" /><path id="111" transform="matrix(1 0 0 -1 0 841)" d="M281.0566 691.2819L349.4871 691.2819L349.4871 691.3987L281.0566 691.3987z" stroke="none" fill="#F3F3F3" fill-rule="nonzero" /><path id="112" transform="matrix(1 0 0 -1 0 841)" d="M349.4871 691.2819L350.8884 691.2819L350.8884 691.3987L349.4871 691.3987z" stroke="none" fill="#F3F3F3" fill-rule="nonzero" /><path id="113" transform="matrix(1 0 0 -1 0 841)" d="M349.4871 691.3987L350.8884 691.3987L350.8884 691.3987L350.8884 692.8L350.8884 692.8L349.4871 692.8z" stroke="none" fill="#000000" fill-rule="evenodd" /><path id="114" transform="matrix(1 0 0 -1 0 841)" d="M350.8884 691.3987L424.2235 691.3987L424.2235 691.3987L424.2235 692.8L424.2235 692.8L350.8884 692.8z" stroke="none" fill="#000000" fill-rule="evenodd" /><path id="115" transform="matrix(1 0 0 -1 0 841)" d="M350.8884 691.2819L424.2235 691.2819L424.2235 691.3987L350.8884 691.3987z" stroke="none" fill="#F3F3F3" fill-rule="nonzero" /><path id="116" transform="matrix(1 0 0 -1 0 841)" d="M424.2235 691.2819L425.6248 691.2819L425.6248 691.3987L424.2235 691.3987z" stroke="none" fill="#F3F3F3" fill-rule="nonzero" /><path id="117" transform="matrix(1 0 0 -1 0 841)" d="M424.2235 691.3987L425.6248 691.3987L425.6248 691.3987L425.6248 692.8L425.6248 692.8L424.2235 692.8z" stroke="none" fill="#000000" fill-rule="evenodd" /><path id="118" transform="matrix(1 0 0 -1 0 841)" d="M425.6248 691.3987L515.5421 691.3987L515.5421 691.3987L515.5421 692.8L515.5421 692.8L425.6248 692.8z" stroke="none" fill="#000000" fill-rule="evenodd" /><path id="119" transform="matrix(1 0 0 -1 0 841)" d="M425.6248 691.2819L515.5421 691.2819L515.5421 691.3987L425.6248 691.3987z" stroke="none" fill="#F3F3F3" fill-rule="nonzero" /><path id="120" transform="matrix(1 0 0 -1 0 841)" d="M519.1621 691.2819L519.8627 691.2819L519.8627 692.8L519.1621 692.8z" stroke="none" fill="#000000" fill-rule="nonzero" /><path id="121" transform="matrix(1 0 0 -1 0 841)" d="M515.5421 691.2819L518.4614 691.2819L518.4614 691.2819L518.4614 692.8L518.4614 692.8L515.5421 692.8z" stroke="none" fill="#000000" fill-rule="evenodd" /><path id="122" transform="matrix(1 0 0 -1 0 841)" d="M76.69934 677.9695L79.61874 677.9695L79.61874 677.9695L79.61874 691.2819L79.61874 691.2819L76.69934 691.2819z" stroke="none" fill="#000000" fill-rule="evenodd" /><path id="123" transform="matrix(1 0 0 -1 0 841)" d="M75.29803 677.9695L75.99869 677.9695L75.99869 691.2819L75.29803 691.2819z" stroke="none" fill="#000000" fill-rule="nonzero" /><path id="124" transform="matrix(1 0 0 -1 0 841)" d="M519.1621 677.9695L519.8627 677.9695L519.8627 691.2819L519.1621 691.2819z" stroke="none" fill="#000000" fill-rule="nonzero" /><path id="125" transform="matrix(1 0 0 -1 0 841)" d="M515.5421 677.9695L518.4614 677.9695L518.4614 677.9695L518.4614 691.2819L518.4614 691.2819L515.5421 691.2819z" stroke="none" fill="#000000" fill-rule="evenodd" /><path id="126" transform="matrix(1 0 0 -1 0 841)" d="M76.69934 677.5024L79.61971 677.5024L79.61971 677.9705L76.69934 677.9705z" stroke="none" fill="#000000" fill-rule="nonzero" /><path id="127" transform="matrix(1 0 0 -1 0 841)" d="M75.29803 677.5024L75.99869 677.5024L75.99869 677.9705L75.29803 677.9705z" stroke="none" fill="#000000" fill-rule="nonzero" /><path id="128" transform="matrix(1 0 0 -1 0 841)" d="M79.61874 677.5024L210.2906 677.5024L210.2906 677.9705L79.61874 677.9705z" stroke="none" fill="#000000" fill-rule="nonzero" /><path id="129" transform="matrix(1 0 0 -1 0 841)" d="M210.2906 677.5024L210.7577 677.5024L210.7577 677.9705L210.2906 677.9705z" stroke="none" fill="#000000" fill-rule="nonzero" /><path id="130" transform="matrix(1 0 0 -1 0 841)" d="M210.7577 677.5024L280.8231 677.5024L280.8231 677.9705L210.7577 677.9705z" stroke="none" fill="#000000" fill-rule="nonzero" /><path id="131" transform="matrix(1 0 0 -1 0 841)" d="M280.8231 677.5024L281.2902 677.5024L281.2902 677.9705L280.8231 677.9705z" stroke="none" fill="#000000" fill-rule="nonzero" /><path id="132" transform="matrix(1 0 0 -1 0 841)" d="M281.2902 677.5024L350.4223 677.5024L350.4223 677.9705L281.2902 677.9705z" stroke="none" fill="#000000" fill-rule="nonzero" /><path id="133" transform="matrix(1 0 0 -1 0 841)" d="M350.4213 677.5024L350.8884 677.5024L350.8884 677.9705L350.4213 677.9705z" stroke="none" fill="#000000" fill-rule="nonzero" /><path id="134" transform="matrix(1 0 0 -1 0 841)" d="M350.8884 677.5024L425.2745 677.5024L425.2745 677.9705L350.8884 677.9705z" stroke="none" fill="#000000" fill-rule="nonzero" /><path id="135" transform="matrix(1 0 0 -1 0 841)" d="M425.2745 677.5024L425.7426 677.5024L425.7426 677.9705L425.2745 677.9705z" stroke="none" fill="#000000" fill-rule="nonzero" /><path id="136" transform="matrix(1 0 0 -1 0 841)" d="M425.7416 677.5024L515.5421 677.5024L515.5421 677.9705L425.7416 677.9705z" stroke="none" fill="#000000" fill-rule="nonzero" /><path id="137" transform="matrix(1 0 0 -1 0 841)" d="M519.1621 677.5024L519.8627 677.5024L519.8627 677.9705L519.1621 677.9705z" stroke="none" fill="#000000" fill-rule="nonzero" /><path id="138" transform="matrix(1 0 0 -1 0 841)" d="M515.5421 677.5024L518.4614 677.5024L518.4614 677.9705L515.5421 677.9705z" stroke="none" fill="#000000" fill-rule="nonzero" /><path id="139" transform="matrix(1 0 0 -1 0 841)" d="M76.69934 643.8711L79.61874 643.8711L79.61874 643.8711L79.61874 677.5024L79.61874 677.5024L76.69934 677.5024z" stroke="none" fill="#000000" fill-rule="evenodd" /><path id="140" transform="matrix(1 0 0 -1 0 841)" d="M75.29803 643.8711L75.99869 643.8711L75.99869 677.5024L75.29803 677.5024z" stroke="none" fill="#000000" fill-rule="nonzero" /><path id="141" transform="matrix(1 0 0 -1 0 841)" d="M211.2248 643.8711L211.6929 643.8711L211.6929 677.5024L211.2248 677.5024z" stroke="none" fill="#000000" fill-rule="nonzero" /><path id="142" transform="matrix(1 0 0 -1 0 841)" d="M210.2906 643.8711L210.7577 643.8711L210.7577 677.5024L210.2906 677.5024z" stroke="none" fill="#000000" fill-rule="nonzero" /><path id="143" transform="matrix(1 0 0 -1 0 841)" d="M280.8231 643.8711L281.2902 643.8711L281.2902 677.5024L280.8231 677.5024z" stroke="none" fill="#000000" fill-rule="nonzero" /><path id="144" transform="matrix(1 0 0 -1 0 841)" d="M351.3556 643.8711L351.8236 643.8711L351.8236 677.5024L351.3556 677.5024z" stroke="none" fill="#000000" fill-rule="nonzero" /><path id="145" transform="matrix(1 0 0 -1 0 841)" d="M350.4213 643.8711L350.8884 643.8711L350.8884 677.5024L350.4213 677.5024z" stroke="none" fill="#000000" fill-rule="nonzero" /><path id="146" transform="matrix(1 0 0 -1 0 841)" d="M425.2745 643.8711L425.7426 643.8711L425.7426 677.5024L425.2745 677.5024z" stroke="none" fill="#000000" fill-rule="nonzero" /><path id="147" transform="matrix(1 0 0 -1 0 841)" d="M519.1621 643.8711L519.8627 643.8711L519.8627 677.5024L519.1621 677.5024z" stroke="none" fill="#000000" fill-rule="nonzero" /><path id="148" transform="matrix(1 0 0 -1 0 841)" d="M515.5421 643.8711L518.4614 643.8711L518.4614 643.8711L518.4614 677.5024L518.4614 677.5024L515.5421 677.5024z" stroke="none" fill="#000000" fill-rule="evenodd" /><path id="149" transform="matrix(1 0 0 -1 0 841)" d="M76.69934 643.4039L79.61971 643.4039L79.61971 643.871L76.69934 643.871z" stroke="none" fill="#000000" fill-rule="nonzero" /><path id="150" transform="matrix(1 0 0 -1 0 841)" d="M75.29803 643.4039L75.99869 643.4039L75.99869 643.871L75.29803 643.871z" stroke="none" fill="#000000" fill-rule="nonzero" /><path id="151" transform="matrix(1 0 0 -1 0 841)" d="M79.61874 643.4039L210.2906 643.4039L210.2906 643.871L79.61874 643.871z" stroke="none" fill="#000000" fill-rule="nonzero" /><path id="152" transform="matrix(1 0 0 -1 0 841)" d="M211.2248 643.4039L211.6929 643.4039L211.6929 643.871L211.2248 643.871z" stroke="none" fill="#000000" fill-rule="nonzero" /><path id="153" transform="matrix(1 0 0 -1 0 841)" d="M210.2906 643.4039L210.7577 643.4039L210.7577 643.871L210.2906 643.871z" stroke="none" fill="#000000" fill-rule="nonzero" /><path id="154" transform="matrix(1 0 0 -1 0 841)" d="M211.6919 643.4039L280.8231 643.4039L280.8231 643.871L211.6919 643.871z" stroke="none" fill="#000000" fill-rule="nonzero" /><path id="155" transform="matrix(1 0 0 -1 0 841)" d="M280.8231 643.4039L281.2902 643.4039L281.2902 643.871L280.8231 643.871z" stroke="none" fill="#000000" fill-rule="nonzero" /><path id="156" transform="matrix(1 0 0 -1 0 841)" d="M281.2902 643.4039L350.4223 643.4039L350.4223 643.871L281.2902 643.871z" stroke="none" fill="#000000" fill-rule="nonzero" /><path id="157" transform="matrix(1 0 0 -1 0 841)" d="M351.3556 643.4039L351.8236 643.4039L351.8236 643.871L351.3556 643.871z" stroke="none" fill="#000000" fill-rule="nonzero" /><path id="158" transform="matrix(1 0 0 -1 0 841)" d="M350.4213 643.4039L350.8884 643.4039L350.8884 643.871L350.4213 643.871z" stroke="none" fill="#000000" fill-rule="nonzero" /><path id="159" transform="matrix(1 0 0 -1 0 841)" d="M351.8226 643.4039L425.2735 643.4039L425.2735 643.871L351.8226 643.871z" stroke="none" fill="#000000" fill-rule="nonzero" /><path id="160" transform="matrix(1 0 0 -1 0 841)" d="M425.2745 643.4039L425.7426 643.4039L425.7426 643.871L425.2745 643.871z" stroke="none" fill="#000000" fill-rule="nonzero" /><path id="161" transform="matrix(1 0 0 -1 0 841)" d="M425.7416 643.4039L515.5421 643.4039L515.5421 643.871L425.7416 643.871z" stroke="none" fill="#000000" fill-rule="nonzero" /><path id="162" transform="matrix(1 0 0 -1 0 841)" d="M519.1621 643.4039L519.8627 643.4039L519.8627 643.871L519.1621 643.871z" stroke="none" fill="#000000" fill-rule="nonzero" /><path id="163" transform="matrix(1 0 0 -1 0 841)" d="M515.5421 643.4039L518.4614 643.4039L518.4614 643.871L515.5421 643.871z" stroke="none" fill="#000000" fill-rule="nonzero" /><path id="164" transform="matrix(1 0 0 -1 0 841)" d="M76.69934 632.1935L79.61874 632.1935L79.61874 632.1935L79.61874 643.404L79.61874 643.404L76.69934 643.404z" stroke="none" fill="#000000" fill-rule="evenodd" /><path id="165" transform="matrix(1 0 0 -1 0 841)" d="M75.29803 632.1935L75.99869 632.1935L75.99869 643.404L75.29803 643.404z" stroke="none" fill="#000000" fill-rule="nonzero" /><path id="166" transform="matrix(1 0 0 -1 0 841)" d="M211.2248 632.1935L211.6929 632.1935L211.6929 643.404L211.2248 643.404z" stroke="none" fill="#000000" fill-rule="nonzero" /><path id="167" transform="matrix(1 0 0 -1 0 841)" d="M210.2906 632.1935L210.7577 632.1935L210.7577 643.404L210.2906 643.404z" stroke="none" fill="#000000" fill-rule="nonzero" /><path id="168" transform="matrix(1 0 0 -1 0 841)" d="M280.8231 632.1935L281.2902 632.1935L281.2902 643.404L280.8231 643.404z" stroke="none" fill="#000000" fill-rule="nonzero" /><path id="169" transform="matrix(1 0 0 -1 0 841)" d="M351.3556 632.1935L351.8236 632.1935L351.8236 643.404L351.3556 643.404z" stroke="none" fill="#000000" fill-rule="nonzero" /><path id="170" transform="matrix(1 0 0 -1 0 841)" d="M350.4213 632.1935L350.8884 632.1935L350.8884 643.404L350.4213 643.404z" stroke="none" fill="#000000" fill-rule="nonzero" /><path id="171" transform="matrix(1 0 0 -1 0 841)" d="M425.2745 632.1935L425.7426 632.1935L425.7426 643.404L425.2745 643.404z" stroke="none" fill="#000000" fill-rule="nonzero" /><path id="172" transform="matrix(1 0 0 -1 0 841)" d="M519.1621 632.1935L519.8627 632.1935L519.8627 643.404L519.1621 643.404z" stroke="none" fill="#000000" fill-rule="nonzero" /><path id="173" transform="matrix(1 0 0 -1 0 841)" d="M515.5421 632.1935L518.4614 632.1935L518.4614 632.1935L518.4614 643.404L518.4614 643.404L515.5421 643.404z" stroke="none" fill="#000000" fill-rule="evenodd" /><path id="174" transform="matrix(1 0 0 -1 0 841)" d="M76.69934 631.7264L79.61971 631.7264L79.61971 632.1935L76.69934 632.1935z" stroke="none" fill="#000000" fill-rule="nonzero" /><path id="175" transform="matrix(1 0 0 -1 0 841)" d="M75.29803 631.7264L75.99869 631.7264L75.99869 632.1935L75.29803 632.1935z" stroke="none" fill="#000000" fill-rule="nonzero" /><path id="176" transform="matrix(1 0 0 -1 0 841)" d="M79.61874 631.7264L210.2906 631.7264L210.2906 632.1935L79.61874 632.1935z" stroke="none" fill="#000000" fill-rule="nonzero" /><path id="177" transform="matrix(1 0 0 -1 0 841)" d="M211.2248 631.7264L211.6929 631.7264L211.6929 632.1935L211.2248 632.1935z" stroke="none" fill="#000000" fill-rule="nonzero" /><path id="178" transform="matrix(1 0 0 -1 0 841)" d="M210.2906 631.7264L210.7577 631.7264L210.7577 632.1935L210.2906 632.1935z" stroke="none" fill="#000000" fill-rule="nonzero" /><path id="179" transform="matrix(1 0 0 -1 0 841)" d="M211.6919 631.7264L280.8231 631.7264L280.8231 632.1935L211.6919 632.1935z" stroke="none" fill="#000000" fill-rule="nonzero" /><path id="180" transform="matrix(1 0 0 -1 0 841)" d="M280.8231 631.7264L281.2902 631.7264L281.2902 632.1935L280.8231 632.1935z" stroke="none" fill="#000000" fill-rule="nonzero" /><path id="181" transform="matrix(1 0 0 -1 0 841)" d="M281.2902 631.7264L350.4223 631.7264L350.4223 632.1935L281.2902 632.1935z" stroke="none" fill="#000000" fill-rule="nonzero" /><path id="182" transform="matrix(1 0 0 -1 0 841)" d="M351.3556 631.7264L351.8236 631.7264L351.8236 632.1935L351.3556 632.1935z" stroke="none" fill="#000000" fill-rule="nonzero" /><path id="183" transform="matrix(1 0 0 -1 0 841)" d="M350.4213 631.7264L350.8884 631.7264L350.8884 632.1935L350.4213 632.1935z" stroke="none" fill="#000000" fill-rule="nonzero" /><path id="184" transform="matrix(1 0 0 -1 0 841)" d="M351.8226 631.7264L425.2735 631.7264L425.2735 632.1935L351.8226 632.1935z" stroke="none" fill="#000000" fill-rule="nonzero" /><path id="185" transform="matrix(1 0 0 -1 0 841)" d="M425.2745 631.7264L425.7426 631.7264L425.7426 632.1935L425.2745 632.1935z" stroke="none" fill="#000000" fill-rule="nonzero" /><path id="186" transform="matrix(1 0 0 -1 0 841)" d="M425.7416 631.7264L515.5421 631.7264L515.5421 632.1935L425.7416 632.1935z" stroke="none" fill="#000000" fill-rule="nonzero" /><path id="187" transform="matrix(1 0 0 -1 0 841)" d="M519.1621 631.7264L519.8627 631.7264L519.8627 632.1935L519.1621 632.1935z" stroke="none" fill="#000000" fill-rule="nonzero" /><path id="188" transform="matrix(1 0 0 -1 0 841)" d="M515.5421 631.7264L518.4614 631.7264L518.4614 632.1935L515.5421 632.1935z" stroke="none" fill="#000000" fill-rule="nonzero" /><path id="189" transform="matrix(1 0 0 -1 0 841)" d="M76.69934 620.516L79.61874 620.516L79.61874 620.516L79.61874 631.7264L79.61874 631.7264L76.69934 631.7264z" stroke="none" fill="#000000" fill-rule="evenodd" /><path id="190" transform="matrix(1 0 0 -1 0 841)" d="M75.29803 620.516L75.99869 620.516L75.99869 631.7264L75.29803 631.7264z" stroke="none" fill="#000000" fill-rule="nonzero" /><path id="191" transform="matrix(1 0 0 -1 0 841)" d="M211.2248 620.516L211.6929 620.516L211.6929 631.7264L211.2248 631.7264z" stroke="none" fill="#000000" fill-rule="nonzero" /><path id="192" transform="matrix(1 0 0 -1 0 841)" d="M210.2906 620.516L210.7577 620.516L210.7577 631.7264L210.2906 631.7264z" stroke="none" fill="#000000" fill-rule="nonzero" /><path id="193" transform="matrix(1 0 0 -1 0 841)" d="M280.8231 620.516L281.2902 620.516L281.2902 631.7264L280.8231 631.7264z" stroke="none" fill="#000000" fill-rule="nonzero" /><path id="194" transform="matrix(1 0 0 -1 0 841)" d="M351.3556 620.516L351.8236 620.516L351.8236 631.7264L351.3556 631.7264z" stroke="none" fill="#000000" fill-rule="nonzero" /><path id="195" transform="matrix(1 0 0 -1 0 841)" d="M350.4213 620.516L350.8884 620.516L350.8884 631.7264L350.4213 631.7264z" stroke="none" fill="#000000" fill-rule="nonzero" /><path id="196" transform="matrix(1 0 0 -1 0 841)" d="M425.2745 620.516L425.7426 620.516L425.7426 631.7264L425.2745 631.7264z" stroke="none" fill="#000000" fill-rule="nonzero" /><path id="197" transform="matrix(1 0 0 -1 0 841)" d="M519.1621 620.516L519.8627 620.516L519.8627 631.7264L519.1621 631.7264z" stroke="none" fill="#000000" fill-rule="nonzero" /><path id="198" transform="matrix(1 0 0 -1 0 841)" d="M515.5421 620.516L518.4614 620.516L518.4614 620.516L518.4614 631.7264L518.4614 631.7264L515.5421 631.7264z" stroke="none" fill="#000000" fill-rule="evenodd" /><path id="199" transform="matrix(1 0 0 -1 0 841)" d="M76.69934 620.0488L79.61971 620.0488L79.61971 620.5169L76.69934 620.5169z" stroke="none" fill="#000000" fill-rule="nonzero" /><path id="200" transform="matrix(1 0 0 -1 0 841)" d="M75.29803 620.0488L75.99869 620.0488L75.99869 620.5169L75.29803 620.5169z" stroke="none" fill="#000000" fill-rule="nonzero" /><path id="201" transform="matrix(1 0 0 -1 0 841)" d="M79.61874 620.0488L210.2906 620.0488L210.2906 620.5169L79.61874 620.5169z" stroke="none" fill="#000000" fill-rule="nonzero" /><path id="202" transform="matrix(1 0 0 -1 0 841)" d="M211.2248 620.0488L211.6929 620.0488L211.6929 620.5169L211.2248 620.5169z" stroke="none" fill="#000000" fill-rule="nonzero" /><path id="203" transform="matrix(1 0 0 -1 0 841)" d="M210.2906 620.0488L210.7577 620.0488L210.7577 620.5169L210.2906 620.5169z" stroke="none" fill="#000000" fill-rule="nonzero" /><path id="204" transform="matrix(1 0 0 -1 0 841)" d="M211.6919 620.0488L280.8231 620.0488L280.8231 620.5169L211.6919 620.5169z" stroke="none" fill="#000000" fill-rule="nonzero" /><path id="205" transform="matrix(1 0 0 -1 0 841)" d="M280.8231 620.0488L281.2902 620.0488L281.2902 620.5169L280.8231 620.5169z" stroke="none" fill="#000000" fill-rule="nonzero" /><path id="206" transform="matrix(1 0 0 -1 0 841)" d="M281.2902 620.0488L350.4223 620.0488L350.4223 620.5169L281.2902 620.5169z" stroke="none" fill="#000000" fill-rule="nonzero" /><path id="207" transform="matrix(1 0 0 -1 0 841)" d="M351.3556 620.0488L351.8236 620.0488L351.8236 620.5169L351.3556 620.5169z" stroke="none" fill="#000000" fill-rule="nonzero" /><path id="208" transform="matrix(1 0 0 -1 0 841)" d="M350.4213 620.0488L350.8884 620.0488L350.8884 620.5169L350.4213 620.5169z" stroke="none" fill="#000000" fill-rule="nonzero" /><path id="209" transform="matrix(1 0 0 -1 0 841)" d="M351.8226 620.0488L425.2735 620.0488L425.2735 620.5169L351.8226 620.5169z" stroke="none" fill="#000000" fill-rule="nonzero" /><path id="210" transform="matrix(1 0 0 -1 0 841)" d="M425.2745 620.0488L425.7426 620.0488L425.7426 620.5169L425.2745 620.5169z" stroke="none" fill="#000000" fill-rule="nonzero" /><path id="211" transform="matrix(1 0 0 -1 0 841)" d="M425.7416 620.0488L515.5421 620.0488L515.5421 620.5169L425.7416 620.5169z" stroke="none" fill="#000000" fill-rule="nonzero" /><path id="212" transform="matrix(1 0 0 -1 0 841)" d="M519.1621 620.0488L519.8627 620.0488L519.8627 620.5169L519.1621 620.5169z" stroke="none" fill="#000000" fill-rule="nonzero" /><path id="213" transform="matrix(1 0 0 -1 0 841)" d="M515.5421 620.0488L518.4614 620.0488L518.4614 620.5169L515.5421 620.5169z" stroke="none" fill="#000000" fill-rule="nonzero" /><path id="214" transform="matrix(1 0 0 -1 0 841)" d="M76.69934 608.8384L79.61874 608.8384L79.61874 608.8384L79.61874 620.0489L79.61874 620.0489L76.69934 620.0489z" stroke="none" fill="#000000" fill-rule="evenodd" /><path id="215" transform="matrix(1 0 0 -1 0 841)" d="M75.29803 608.8384L75.99869 608.8384L75.99869 620.0489L75.29803 620.0489z" stroke="none" fill="#000000" fill-rule="nonzero" /><path id="216" transform="matrix(1 0 0 -1 0 841)" d="M211.2248 608.8384L211.6929 608.8384L211.6929 620.0489L211.2248 620.0489z" stroke="none" fill="#000000" fill-rule="nonzero" /><path id="217" transform="matrix(1 0 0 -1 0 841)" d="M210.2906 608.8384L210.7577 608.8384L210.7577 620.0489L210.2906 620.0489z" stroke="none" fill="#000000" fill-rule="nonzero" /><path id="218" transform="matrix(1 0 0 -1 0 841)" d="M280.8231 608.8384L281.2902 608.8384L281.2902 620.0489L280.8231 620.0489z" stroke="none" fill="#000000" fill-rule="nonzero" /><path id="219" transform="matrix(1 0 0 -1 0 841)" d="M351.3556 608.8384L351.8236 608.8384L351.8236 620.0489L351.3556 620.0489z" stroke="none" fill="#000000" fill-rule="nonzero" /><path id="220" transform="matrix(1 0 0 -1 0 841)" d="M350.4213 608.8384L350.8884 608.8384L350.8884 620.0489L350.4213 620.0489z" stroke="none" fill="#000000" fill-rule="nonzero" /><path id="221" transform="matrix(1 0 0 -1 0 841)" d="M425.2745 608.8384L425.7426 608.8384L425.7426 620.0489L425.2745 620.0489z" stroke="none" fill="#000000" fill-rule="nonzero" /><path id="222" transform="matrix(1 0 0 -1 0 841)" d="M519.1621 608.8384L519.8627 608.8384L519.8627 620.0489L519.1621 620.0489z" stroke="none" fill="#000000" fill-rule="nonzero" /><path id="223" transform="matrix(1 0 0 -1 0 841)" d="M515.5421 608.8384L518.4614 608.8384L518.4614 608.8384L518.4614 620.0489L518.4614 620.0489L515.5421 620.0489z" stroke="none" fill="#000000" fill-rule="evenodd" /><path id="224" transform="matrix(1 0 0 -1 0 841)" d="M79.61874 594.9421L515.5421 594.9421L515.5421 594.9421L515.5421 608.3713L515.5421 608.3713L79.61874 608.3713z" stroke="none" fill="#F3F3F3" fill-rule="evenodd" /><path id="225" transform="matrix(1 0 0 -1 0 841)" d="M82.77168 594.9421L512.5049 594.9421L512.5049 608.3713L82.77168 608.3713z" stroke="none" fill="#F3F3F3" fill-rule="nonzero" /><path id="226" transform="matrix(1 0 0 -1 0 841)" d="M76.69934 608.3713L79.61971 608.3713L79.61971 608.8383L76.69934 608.8383z" stroke="none" fill="#000000" fill-rule="nonzero" /><path id="227" transform="matrix(1 0 0 -1 0 841)" d="M75.29803 608.3713L75.99869 608.3713L75.99869 608.8383L75.29803 608.8383z" stroke="none" fill="#000000" fill-rule="nonzero" /><path id="228" transform="matrix(1 0 0 -1 0 841)" d="M79.61874 608.3713L210.2906 608.3713L210.2906 608.8383L79.61874 608.8383z" stroke="none" fill="#000000" fill-rule="nonzero" /><path id="229" transform="matrix(1 0 0 -1 0 841)" d="M210.2906 608.3713L210.7577 608.3713L210.7577 608.8383L210.2906 608.8383z" stroke="none" fill="#000000" fill-rule="nonzero" /><path id="230" transform="matrix(1 0 0 -1 0 841)" d="M76.69934 594.9421L79.61874 594.9421L79.61874 594.9421L79.61874 608.3713L79.61874 608.3713L76.69934 608.3713z" stroke="none" fill="#000000" fill-rule="evenodd" /><path id="231" transform="matrix(1 0 0 -1 0 841)" d="M75.29803 594.9421L75.99869 594.9421L75.99869 608.3713L75.29803 608.3713z" stroke="none" fill="#000000" fill-rule="nonzero" /><path id="232" transform="matrix(1 0 0 -1 0 841)" d="M76.69934 594.475L79.61971 594.475L79.61971 594.9431L76.69934 594.9431z" stroke="none" fill="#000000" fill-rule="nonzero" /><path id="233" transform="matrix(1 0 0 -1 0 841)" d="M75.29803 594.475L75.99869 594.475L75.99869 594.9431L75.29803 594.9431z" stroke="none" fill="#000000" fill-rule="nonzero" /><path id="234" transform="matrix(1 0 0 -1 0 841)" d="M79.61874 594.475L210.2906 594.475L210.2906 594.9431L79.61874 594.9431z" stroke="none" fill="#000000" fill-rule="nonzero" /><path id="235" transform="matrix(1 0 0 -1 0 841)" d="M210.2906 594.475L210.7577 594.475L210.7577 594.9431L210.2906 594.9431z" stroke="none" fill="#000000" fill-rule="nonzero" /><path id="236" transform="matrix(1 0 0 -1 0 841)" d="M210.7577 608.3713L280.8231 608.3713L280.8231 608.8383L210.7577 608.8383z" stroke="none" fill="#000000" fill-rule="nonzero" /><path id="237" transform="matrix(1 0 0 -1 0 841)" d="M280.8231 608.3713L281.2902 608.3713L281.2902 608.8383L280.8231 608.8383z" stroke="none" fill="#000000" fill-rule="nonzero" /><path id="238" transform="matrix(1 0 0 -1 0 841)" d="M281.2902 608.3713L350.4223 608.3713L350.4223 608.8383L281.2902 608.8383z" stroke="none" fill="#000000" fill-rule="nonzero" /><path id="239" transform="matrix(1 0 0 -1 0 841)" d="M350.4213 608.3713L350.8884 608.3713L350.8884 608.8383L350.4213 608.8383z" stroke="none" fill="#000000" fill-rule="nonzero" /><path id="240" transform="matrix(1 0 0 -1 0 841)" d="M350.8884 608.3713L425.2745 608.3713L425.2745 608.8383L350.8884 608.8383z" stroke="none" fill="#000000" fill-rule="nonzero" /><path id="241" transform="matrix(1 0 0 -1 0 841)" d="M425.2745 608.3713L425.7426 608.3713L425.7426 608.8383L425.2745 608.8383z" stroke="none" fill="#000000" fill-rule="nonzero" /><path id="242" transform="matrix(1 0 0 -1 0 841)" d="M425.7416 608.3713L515.5421 608.3713L515.5421 608.8383L425.7416 608.8383z" stroke="none" fill="#000000" fill-rule="nonzero" /><path id="243" transform="matrix(1 0 0 -1 0 841)" d="M519.1621 608.3713L519.8627 608.3713L519.8627 608.8383L519.1621 608.8383z" stroke="none" fill="#000000" fill-rule="nonzero" /><path id="244" transform="matrix(1 0 0 -1 0 841)" d="M515.5421 608.3713L518.4614 608.3713L518.4614 608.8383L515.5421 608.8383z" stroke="none" fill="#000000" fill-rule="nonzero" /><path id="245" transform="matrix(1 0 0 -1 0 841)" d="M519.1621 594.9421L519.8627 594.9421L519.8627 608.3713L519.1621 608.3713z" stroke="none" fill="#000000" fill-rule="nonzero" /><path id="246" transform="matrix(1 0 0 -1 0 841)" d="M515.5421 594.9421L518.4614 594.9421L518.4614 594.9421L518.4614 608.3713L518.4614 608.3713L515.5421 608.3713z" stroke="none" fill="#000000" fill-rule="evenodd" /><path id="247" transform="matrix(1 0 0 -1 0 841)" d="M210.7577 594.475L280.8231 594.475L280.8231 594.9431L210.7577 594.9431z" stroke="none" fill="#000000" fill-rule="nonzero" /><path id="248" transform="matrix(1 0 0 -1 0 841)" d="M280.8231 594.475L281.2902 594.475L281.2902 594.9431L280.8231 594.9431z" stroke="none" fill="#000000" fill-rule="nonzero" /><path id="249" transform="matrix(1 0 0 -1 0 841)" d="M281.2902 594.475L350.4223 594.475L350.4223 594.9431L281.2902 594.9431z" stroke="none" fill="#000000" fill-rule="nonzero" /><path id="250" transform="matrix(1 0 0 -1 0 841)" d="M350.4213 594.475L350.8884 594.475L350.8884 594.9431L350.4213 594.9431z" stroke="none" fill="#000000" fill-rule="nonzero" /><path id="251" transform="matrix(1 0 0 -1 0 841)" d="M350.8884 594.475L425.2745 594.475L425.2745 594.9431L350.8884 594.9431z" stroke="none" fill="#000000" fill-rule="nonzero" /><path id="252" transform="matrix(1 0 0 -1 0 841)" d="M425.2745 594.475L425.7426 594.475L425.7426 594.9431L425.2745 594.9431z" stroke="none" fill="#000000" fill-rule="nonzero" /><path id="253" transform="matrix(1 0 0 -1 0 841)" d="M425.7416 594.475L515.5421 594.475L515.5421 594.9431L425.7416 594.9431z" stroke="none" fill="#000000" fill-rule="nonzero" /><path id="254" transform="matrix(1 0 0 -1 0 841)" d="M519.1621 594.475L519.8627 594.475L519.8627 594.9431L519.1621 594.9431z" stroke="none" fill="#000000" fill-rule="nonzero" /><path id="255" transform="matrix(1 0 0 -1 0 841)" d="M515.5421 594.475L518.4614 594.475L518.4614 594.9431L515.5421 594.9431z" stroke="none" fill="#000000" fill-rule="nonzero" /><path id="256" transform="matrix(1 0 0 -1 0 841)" d="M76.69934 583.2645L79.61874 583.2645L79.61874 583.2645L79.61874 594.475L79.61874 594.475L76.69934 594.475z" stroke="none" fill="#000000" fill-rule="evenodd" /><path id="257" transform="matrix(1 0 0 -1 0 841)" d="M75.29803 583.2645L75.99869 583.2645L75.99869 594.475L75.29803 594.475z" stroke="none" fill="#000000" fill-rule="nonzero" /><path id="258" transform="matrix(1 0 0 -1 0 841)" d="M211.2248 583.2645L211.6929 583.2645L211.6929 594.475L211.2248 594.475z" stroke="none" fill="#000000" fill-rule="nonzero" /><path id="259" transform="matrix(1 0 0 -1 0 841)" d="M210.2906 583.2645L210.7577 583.2645L210.7577 594.475L210.2906 594.475z" stroke="none" fill="#000000" fill-rule="nonzero" /><path id="260" transform="matrix(1 0 0 -1 0 841)" d="M280.8231 583.2645L281.2902 583.2645L281.2902 594.475L280.8231 594.475z" stroke="none" fill="#000000" fill-rule="nonzero" /><path id="261" transform="matrix(1 0 0 -1 0 841)" d="M351.3556 583.2645L351.8236 583.2645L351.8236 594.475L351.3556 594.475z" stroke="none" fill="#000000" fill-rule="nonzero" /><path id="262" transform="matrix(1 0 0 -1 0 841)" d="M350.4213 583.2645L350.8884 583.2645L350.8884 594.475L350.4213 594.475z" stroke="none" fill="#000000" fill-rule="nonzero" /><path id="263" transform="matrix(1 0 0 -1 0 841)" d="M425.2745 583.2645L425.7426 583.2645L425.7426 594.475L425.2745 594.475z" stroke="none" fill="#000000" fill-rule="nonzero" /><path id="264" transform="matrix(1 0 0 -1 0 841)" d="M519.1621 583.2645L519.8627 583.2645L519.8627 594.475L519.1621 594.475z" stroke="none" fill="#000000" fill-rule="nonzero" /><path id="265" transform="matrix(1 0 0 -1 0 841)" d="M515.5421 583.2645L518.4614 583.2645L518.4614 583.2645L518.4614 594.475L518.4614 594.475L515.5421 594.475z" stroke="none" fill="#000000" fill-rule="evenodd" /><path id="266" transform="matrix(1 0 0 -1 0 841)" d="M76.69934 582.7974L79.61971 582.7974L79.61971 583.2645L76.69934 583.2645z" stroke="none" fill="#000000" fill-rule="nonzero" /><path id="267" transform="matrix(1 0 0 -1 0 841)" d="M75.29803 582.7974L75.99869 582.7974L75.99869 583.2645L75.29803 583.2645z" stroke="none" fill="#000000" fill-rule="nonzero" /><path id="268" transform="matrix(1 0 0 -1 0 841)" d="M79.61874 582.7974L210.2906 582.7974L210.2906 583.2645L79.61874 583.2645z" stroke="none" fill="#000000" fill-rule="nonzero" /><path id="269" transform="matrix(1 0 0 -1 0 841)" d="M211.2248 582.7974L211.6929 582.7974L211.6929 583.2645L211.2248 583.2645z" stroke="none" fill="#000000" fill-rule="nonzero" /><path id="270" transform="matrix(1 0 0 -1 0 841)" d="M210.2906 582.7974L210.7577 582.7974L210.7577 583.2645L210.2906 583.2645z" stroke="none" fill="#000000" fill-rule="nonzero" /><path id="271" transform="matrix(1 0 0 -1 0 841)" d="M211.6919 582.7974L280.8231 582.7974L280.8231 583.2645L211.6919 583.2645z" stroke="none" fill="#000000" fill-rule="nonzero" /><path id="272" transform="matrix(1 0 0 -1 0 841)" d="M280.8231 582.7974L281.2902 582.7974L281.2902 583.2645L280.8231 583.2645z" stroke="none" fill="#000000" fill-rule="nonzero" /><path id="273" transform="matrix(1 0 0 -1 0 841)" d="M281.2902 582.7974L350.4223 582.7974L350.4223 583.2645L281.2902 583.2645z" stroke="none" fill="#000000" fill-rule="nonzero" /><path id="274" transform="matrix(1 0 0 -1 0 841)" d="M351.3556 582.7974L351.8236 582.7974L351.8236 583.2645L351.3556 583.2645z" stroke="none" fill="#000000" fill-rule="nonzero" /><path id="275" transform="matrix(1 0 0 -1 0 841)" d="M350.4213 582.7974L350.8884 582.7974L350.8884 583.2645L350.4213 583.2645z" stroke="none" fill="#000000" fill-rule="nonzero" /><path id="276" transform="matrix(1 0 0 -1 0 841)" d="M351.8226 582.7974L425.2735 582.7974L425.2735 583.2645L351.8226 583.2645z" stroke="none" fill="#000000" fill-rule="nonzero" /><path id="277" transform="matrix(1 0 0 -1 0 841)" d="M425.2745 582.7974L425.7426 582.7974L425.7426 583.2645L425.2745 583.2645z" stroke="none" fill="#000000" fill-rule="nonzero" /><path id="278" transform="matrix(1 0 0 -1 0 841)" d="M425.7416 582.7974L515.5421 582.7974L515.5421 583.2645L425.7416 583.2645z" stroke="none" fill="#000000" fill-rule="nonzero" /><path id="279" transform="matrix(1 0 0 -1 0 841)" d="M519.1621 582.7974L519.8627 582.7974L519.8627 583.2645L519.1621 583.2645z" stroke="none" fill="#000000" fill-rule="nonzero" /><path id="280" transform="matrix(1 0 0 -1 0 841)" d="M515.5421 582.7974L518.4614 582.7974L518.4614 583.2645L515.5421 583.2645z" stroke="none" fill="#000000" fill-rule="nonzero" /><path id="281" transform="matrix(1 0 0 -1 0 841)" d="M76.69934 571.587L79.61874 571.587L79.61874 571.587L79.61874 582.7974L79.61874 582.7974L76.69934 582.7974z" stroke="none" fill="#000000" fill-rule="evenodd" /><path id="282" transform="matrix(1 0 0 -1 0 841)" d="M75.29803 571.587L75.99869 571.587L75.99869 582.7974L75.29803 582.7974z" stroke="none" fill="#000000" fill-rule="nonzero" /><path id="283" transform="matrix(1 0 0 -1 0 841)" d="M211.2248 571.587L211.6929 571.587L211.6929 582.7974L211.2248 582.7974z" stroke="none" fill="#000000" fill-rule="nonzero" /><path id="284" transform="matrix(1 0 0 -1 0 841)" d="M210.2906 571.587L210.7577 571.587L210.7577 582.7974L210.2906 582.7974z" stroke="none" fill="#000000" fill-rule="nonzero" /><path id="285" transform="matrix(1 0 0 -1 0 841)" d="M280.8231 571.587L281.2902 571.587L281.2902 582.7974L280.8231 582.7974z" stroke="none" fill="#000000" fill-rule="nonzero" /><path id="286" transform="matrix(1 0 0 -1 0 841)" d="M351.3556 571.587L351.8236 571.587L351.8236 582.7974L351.3556 582.7974z" stroke="none" fill="#000000" fill-rule="nonzero" /><path id="287" transform="matrix(1 0 0 -1 0 841)" d="M350.4213 571.587L350.8884 571.587L350.8884 582.7974L350.4213 582.7974z" stroke="none" fill="#000000" fill-rule="nonzero" /><path id="288" transform="matrix(1 0 0 -1 0 841)" d="M425.2745 571.587L425.7426 571.587L425.7426 582.7974L425.2745 582.7974z" stroke="none" fill="#000000" fill-rule="nonzero" /><path id="289" transform="matrix(1 0 0 -1 0 841)" d="M519.1621 571.587L519.8627 571.587L519.8627 582.7974L519.1621 582.7974z" stroke="none" fill="#000000" fill-rule="nonzero" /><path id="290" transform="matrix(1 0 0 -1 0 841)" d="M515.5421 571.587L518.4614 571.587L518.4614 571.587L518.4614 582.7974L518.4614 582.7974L515.5421 582.7974z" stroke="none" fill="#000000" fill-rule="evenodd" /><path id="291" transform="matrix(1 0 0 -1 0 841)" d="M76.69934 570.0689L79.61874 570.0689L79.61874 570.0689L79.61874 571.587L79.61874 571.587L76.69934 571.587z" stroke="none" fill="#000000" fill-rule="evenodd" /><path id="292" transform="matrix(1 0 0 -1 0 841)" d="M75.29803 570.0689L75.99869 570.0689L75.99869 571.587L75.29803 571.587z" stroke="none" fill="#000000" fill-rule="nonzero" /><path id="293" transform="matrix(1 0 0 -1 0 841)" d="M79.61874 571.1199L210.2906 571.1199L210.2906 571.587L79.61874 571.587z" stroke="none" fill="#000000" fill-rule="nonzero" /><path id="294" transform="matrix(1 0 0 -1 0 841)" d="M79.61874 570.1857L210.2906 570.1857L210.2906 570.6527L79.61874 570.6527z" stroke="none" fill="#000000" fill-rule="nonzero" /><path id="295" transform="matrix(1 0 0 -1 0 841)" d="M210.2906 571.1199L210.7577 571.1199L210.7577 571.587L210.2906 571.587z" stroke="none" fill="#000000" fill-rule="nonzero" /><path id="296" transform="matrix(1 0 0 -1 0 841)" d="M211.2248 571.1199L211.6929 571.1199L211.6929 571.587L211.2248 571.587z" stroke="none" fill="#000000" fill-rule="nonzero" /><path id="297" transform="matrix(1 0 0 -1 0 841)" d="M210.2906 570.1857L211.6919 570.1857L211.6919 570.6527L210.2906 570.6527z" stroke="none" fill="#000000" fill-rule="nonzero" /><path id="298" transform="matrix(1 0 0 -1 0 841)" d="M211.6919 571.1199L280.8231 571.1199L280.8231 571.587L211.6919 571.587z" stroke="none" fill="#000000" fill-rule="nonzero" /><path id="299" transform="matrix(1 0 0 -1 0 841)" d="M211.6919 570.1857L280.8231 570.1857L280.8231 570.6527L211.6919 570.6527z" stroke="none" fill="#000000" fill-rule="nonzero" /><path id="300" transform="matrix(1 0 0 -1 0 841)" d="M280.8231 571.1199L282.2244 571.1199L282.2244 571.587L280.8231 571.587z" stroke="none" fill="#000000" fill-rule="nonzero" /><path id="301" transform="matrix(1 0 0 -1 0 841)" d="M280.8231 570.1857L282.2244 570.1857L282.2244 570.6527L280.8231 570.6527z" stroke="none" fill="#000000" fill-rule="nonzero" /><path id="302" transform="matrix(1 0 0 -1 0 841)" d="M282.2244 571.1199L350.4213 571.1199L350.4213 571.587L282.2244 571.587z" stroke="none" fill="#000000" fill-rule="nonzero" /><path id="303" transform="matrix(1 0 0 -1 0 841)" d="M282.2244 570.1857L350.4213 570.1857L350.4213 570.6527L282.2244 570.6527z" stroke="none" fill="#000000" fill-rule="nonzero" /><path id="304" transform="matrix(1 0 0 -1 0 841)" d="M350.4213 571.1199L350.8884 571.1199L350.8884 571.587L350.4213 571.587z" stroke="none" fill="#000000" fill-rule="nonzero" /><path id="305" transform="matrix(1 0 0 -1 0 841)" d="M351.3556 571.1199L351.8236 571.1199L351.8236 571.587L351.3556 571.587z" stroke="none" fill="#000000" fill-rule="nonzero" /><path id="306" transform="matrix(1 0 0 -1 0 841)" d="M350.4213 570.1857L351.8226 570.1857L351.8226 570.6527L350.4213 570.6527z" stroke="none" fill="#000000" fill-rule="nonzero" /><path id="307" transform="matrix(1 0 0 -1 0 841)" d="M351.8226 571.1199L425.2735 571.1199L425.2735 571.587L351.8226 571.587z" stroke="none" fill="#000000" fill-rule="nonzero" /><path id="308" transform="matrix(1 0 0 -1 0 841)" d="M351.8226 570.1857L425.2735 570.1857L425.2735 570.6527L351.8226 570.6527z" stroke="none" fill="#000000" fill-rule="nonzero" /><path id="309" transform="matrix(1 0 0 -1 0 841)" d="M425.2745 571.1199L426.6758 571.1199L426.6758 571.587L425.2745 571.587z" stroke="none" fill="#000000" fill-rule="nonzero" /><path id="310" transform="matrix(1 0 0 -1 0 841)" d="M425.2745 570.1857L426.6758 570.1857L426.6758 570.6527L425.2745 570.6527z" stroke="none" fill="#000000" fill-rule="nonzero" /><path id="311" transform="matrix(1 0 0 -1 0 841)" d="M426.6758 571.1199L515.5421 571.1199L515.5421 571.587L426.6758 571.587z" stroke="none" fill="#000000" fill-rule="nonzero" /><path id="312" transform="matrix(1 0 0 -1 0 841)" d="M426.6758 570.1857L515.5421 570.1857L515.5421 570.6527L426.6758 570.6527z" stroke="none" fill="#000000" fill-rule="nonzero" /><path id="313" transform="matrix(1 0 0 -1 0 841)" d="M519.1621 570.0689L519.8627 570.0689L519.8627 571.587L519.1621 571.587z" stroke="none" fill="#000000" fill-rule="nonzero" /><path id="314" transform="matrix(1 0 0 -1 0 841)" d="M515.5421 570.0689L518.4614 570.0689L518.4614 570.0689L518.4614 571.587L518.4614 571.587L515.5421 571.587z" stroke="none" fill="#000000" fill-rule="evenodd" /><path id="315" transform="matrix(1 0 0 -1 0 841)" d="M75.29803 409.1522L75.99869 409.1522L75.99869 413.4738L75.29803 413.4738z" stroke="none" fill="#000000" fill-rule="nonzero" /><path id="316" transform="matrix(1 0 0 -1 0 841)" d="M75.29803 409.1522L79.61971 409.1522L79.61971 409.8528L75.29803 409.8528z" stroke="none" fill="#000000" fill-rule="nonzero" /><path id="317" transform="matrix(1 0 0 -1 0 841)" d="M76.69934 410.5535L79.61874 410.5535L79.61874 410.5535L79.61874 413.4728L79.61874 413.4728L76.69934 413.4728z" stroke="none" fill="#000000" fill-rule="evenodd" /><path id="318" transform="matrix(1 0 0 -1 0 841)" d="M76.69934 410.5535L79.61874 410.5535L79.61874 410.5535L79.61874 413.4728L79.61874 413.4728L76.69934 413.4728z" stroke="none" fill="#000000" fill-rule="evenodd" /><path id="319" transform="matrix(1 0 0 -1 0 841)" d="M79.61874 409.1522L515.5421 409.1522L515.5421 409.8528L79.61874 409.8528z" stroke="none" fill="#000000" fill-rule="nonzero" /><path id="320" transform="matrix(1 0 0 -1 0 841)" d="M79.61874 410.5535L515.5421 410.5535L515.5421 410.5535L515.5421 413.4728L515.5421 413.4728L79.61874 413.4728z" stroke="none" fill="#000000" fill-rule="evenodd" /><path id="321" transform="matrix(1 0 0 -1 0 841)" d="M519.1621 409.1522L519.8627 409.1522L519.8627 413.4738L519.1621 413.4738z" stroke="none" fill="#000000" fill-rule="nonzero" /><path id="322" transform="matrix(1 0 0 -1 0 841)" d="M515.5421 409.1522L519.8627 409.1522L519.8627 409.8528L515.5421 409.8528z" stroke="none" fill="#000000" fill-rule="nonzero" /><path id="323" transform="matrix(1 0 0 -1 0 841)" d="M515.5421 410.5535L518.4614 410.5535L518.4614 410.5535L518.4614 413.4728L518.4614 413.4728L515.5421 413.4728z" stroke="none" fill="#000000" fill-rule="evenodd" /><path id="324" transform="matrix(1 0 0 -1 0 841)" d="M515.5421 410.5535L518.4614 410.5535L518.4614 410.5535L518.4614 413.4728L518.4614 413.4728L515.5421 413.4728z" stroke="none" fill="#000000" fill-rule="evenodd" /><path id="325" transform="matrix(1 0 0 -1 0 841)" d="M76.69934 413.4728L79.61874 413.4728L79.61874 413.4728L79.61874 570.0689L79.61874 570.0689L76.69934 570.0689z" stroke="none" fill="#000000" fill-rule="evenodd" /><path id="326" transform="matrix(1 0 0 -1 0 841)" d="M75.29803 413.4728L75.99869 413.4728L75.99869 570.0689L75.29803 570.0689z" stroke="none" fill="#000000" fill-rule="nonzero" /><path id="327" transform="matrix(1 0 0 -1 0 841)" d="M519.1621 413.4728L519.8627 413.4728L519.8627 570.0689L519.1621 570.0689z" stroke="none" fill="#000000" fill-rule="nonzero" /><path id="328" transform="matrix(1 0 0 -1 0 841)" d="M515.5421 413.4728L518.4614 413.4728L518.4614 413.4728L518.4614 570.0689L518.4614 570.0689L515.5421 570.0689z" stroke="none" fill="#000000" fill-rule="evenodd" /><g clip-path="url(#3)"></g><g clip-path="url(#4)"></g><g clip-path="url(#5)"></g><g clip-path="url(#6)"></g><g clip-path="url(#7)"></g><g clip-path="url(#8)"></g><g clip-path="url(#9)"></g><g clip-path="url(#10)"></g><g clip-path="url(#11)"></g><g clip-path="url(#12)"></g><g clip-path="url(#13)"></g><g clip-path="url(#14)"></g><g clip-path="url(#15)"></g><g clip-path="url(#16)"></g><g clip-path="url(#17)"></g><g clip-path="url(#18)"></g><g clip-path="url(#19)"></g><g clip-path="url(#20)"></g><g clip-path="url(#21)"></g><g clip-path="url(#22)"></g><g clip-path="url(#23)"></g><g clip-path="url(#24)"></g><g clip-path="url(#25)"></g><g clip-path="url(#26)"></g><g clip-path="url(#27)"></g><g clip-path="url(#28)"></g><g clip-path="url(#29)"></g><g clip-path="url(#30)"></g><g clip-path="url(#31)"></g><g clip-path="url(#32)"></g><g clip-path="url(#33)"></g><g clip-path="url(#34)"></g><g clip-path="url(#35)"></g><g clip-path="url(#36)"></g><g clip-path="url(#37)"></g></g></g></g></svg>