<svg xmlns="http://www.w3.org/2000/svg" xmlns:xlink="http://www.w3.org/1999/xlink" id="body_189" preserveAspectRatio="xMinYMin meet" viewBox="0 0 793 1121"><defs><clipPath id="1"><path id="" clip-rule="evenodd" transform="matrix(1 0 0 1 0 0)" d="M0 841L0 -0.8900146L0 -0.8900146L595.276 -0.8900146L595.276 -0.8900146L595.276 841L595.276 841L0 841z" /></clipPath></defs><g transform="matrix(1.333333 0 0 1.333333 0 0)"><g clip-path="url(#1)"><path id="36" transform="matrix(1 0 0 -1 0 841)" d="M85.039 766.564L510.236 766.564" stroke="#000000" stroke-width="0.498" fill="none" /><path id="40" transform="matrix(1 0 0 -1 0 841)" d="M86.235 741.294L102.555 741.294" stroke="#000000" stroke-width="0.436" fill="none" /><path id="55" transform="matrix(1 0 0 -1 0 841)" d="M173.849 741.294L187.18 741.294" stroke="#000000" stroke-width="0.436" fill="none" /><path id="71" transform="matrix(1 0 0 -1 0 841)" d="M260.205 741.294L276.525 741.294" stroke="#000000" stroke-width="0.436" fill="none" /><path id="75" transform="matrix(1 0 0 -1 0 841)" d="M229.57 756.651L281.107 756.651" stroke="#000000" stroke-width="0.398" fill="none" /><path id="76" transform="matrix(1 0 0 -1 0 841)" d="M229.77 725.67L229.77 756.651" stroke="#000000" stroke-width="0.398" fill="none" /><path id="77" transform="matrix(1 0 0 -1 0 841)" d="M280.909 725.67L280.909 756.651" stroke="#000000" stroke-width="0.398" fill="none" /><path id="78" transform="matrix(1 0 0 -1 0 841)" d="M229.57 725.67L281.107 725.67" stroke="#000000" stroke-width="0.398" fill="none" /><path id="206" transform="matrix(1 0 0 -1 0 841)" d="M152.62 644.704L199.269 644.704" stroke="#000000" stroke-width="0.436" fill="none" /><path id="251" transform="matrix(1 0 0 -1 0 841)" d="M321.467 652.676L418.264 652.676" stroke="#000000" stroke-width="0.398" fill="none" /><path id="252" transform="matrix(1 0 0 -1 0 841)" d="M321.666 636.673L321.666 652.676" stroke="#000000" stroke-width="0.398" fill="none" /><path id="253" transform="matrix(1 0 0 -1 0 841)" d="M418.064 636.673L418.064 652.676" stroke="#000000" stroke-width="0.398" fill="none" /><path id="254" transform="matrix(1 0 0 -1 0 841)" d="M321.467 636.673L418.264 636.673" stroke="#000000" stroke-width="0.398" fill="none" /></g></g></svg>