<svg xmlns="http://www.w3.org/2000/svg" xmlns:xlink="http://www.w3.org/1999/xlink" id="body_131" preserveAspectRatio="xMinYMin meet" viewBox="0 0 793 1121"><defs><clipPath id="1"><path id="" clip-rule="evenodd" transform="matrix(1 0 0 1 0 0)" d="M0 841L0 -0.8900146L0 -0.8900146L595.276 -0.8900146L595.276 -0.8900146L595.276 841L595.276 841L0 841z" /></clipPath></defs><g transform="matrix(1.333333 0 0 1.333333 0 0)"><g clip-path="url(#1)"><path id="28" transform="matrix(1 0 0 -1 0 841)" d="M85.039 766.564L510.236 766.564" stroke="#000000" stroke-width="0.498" fill="none" /><path id="797" transform="matrix(1 0 0 -1 0 841)" d="M166.53 513.605L220.017 513.605" stroke="#000000" stroke-width="0.436" fill="none" /><path id="813" transform="matrix(1 0 0 -1 0 841)" d="M235.732 513.605L271.492 513.605" stroke="#000000" stroke-width="0.436" fill="none" /><path id="938" transform="matrix(1 0 0 -1 0 841)" d="M163.802 445.787L217.289 445.787" stroke="#000000" stroke-width="0.436" fill="none" /><path id="964" transform="matrix(1 0 0 -1 0 841)" d="M302.694 445.787L356.181 445.787" stroke="#000000" stroke-width="0.436" fill="none" /><path id="987" transform="matrix(1 0 0 -1 0 841)" d="M449.921 445.787L466.285 445.787" stroke="#000000" stroke-width="0.436" fill="none" /><path id="995" transform="matrix(1 0 0 -1 0 841)" d="M480.804 453.699L505.153 453.699" stroke="#000000" stroke-width="0.398" fill="none" /><path id="996" transform="matrix(1 0 0 -1 0 841)" d="M481.004 439.703L481.004 453.699" stroke="#000000" stroke-width="0.398" fill="none" /><path id="997" transform="matrix(1 0 0 -1 0 841)" d="M504.954 439.703L504.954 453.699" stroke="#000000" stroke-width="0.398" fill="none" /><path id="998" transform="matrix(1 0 0 -1 0 841)" d="M480.804 439.703L505.153 439.703" stroke="#000000" stroke-width="0.398" fill="none" /><path id="1233" transform="matrix(1 0 0 -1 0 841)" d="M163.802 345.674L217.289 345.674" stroke="#000000" stroke-width="0.436" fill="none" /><path id="1249" transform="matrix(1 0 0 -1 0 841)" d="M233.005 345.674L268.765 345.674" stroke="#000000" stroke-width="0.436" fill="none" /></g></g></svg>