<svg xmlns="http://www.w3.org/2000/svg" xmlns:xlink="http://www.w3.org/1999/xlink" id="body_81" preserveAspectRatio="xMinYMin meet" viewBox="0 0 793 1121"><defs><clipPath id="1"><path id="" clip-rule="evenodd" transform="matrix(1 0 0 1 0 0)" d="M0 841L0 -0.8900146L0 -0.8900146L595.276 -0.8900146L595.276 -0.8900146L595.276 841L595.276 841L0 841z" /></clipPath></defs><g transform="matrix(1.333333 0 0 1.333333 0 0)"><g clip-path="url(#1)"><path id="34" transform="matrix(1 0 0 -1 0 841)" d="M85.039 766.564L510.236 766.564" stroke="#000000" stroke-width="0.498" fill="none" /><g transform="matrix(0.375 0 0 0.375 85.039 111.96)"><g transform="matrix(1 0 0 1 0 0)"><image x="0" y="0" xlink:href="img_113.png" width="474" height="243" /></g></g><path id="154" transform="matrix(1 0 0 -1 0 841)" d="M192.487 619.581L206.418 619.581" stroke="#000000" stroke-width="0.436" fill="none" /><path id="172" transform="matrix(1 0 0 -1 0 841)" d="M281.565 619.581L295.811 619.581" stroke="#000000" stroke-width="0.436" fill="none" /><path id="176" transform="matrix(1 0 0 -1 0 841)" d="M271.528 636.719L300.395 636.719" stroke="#000000" stroke-width="0.398" fill="none" /><path id="177" transform="matrix(1 0 0 -1 0 841)" d="M271.727 606.063L271.727 636.72" stroke="#000000" stroke-width="0.398" fill="none" /><path id="178" transform="matrix(1 0 0 -1 0 841)" d="M300.195 606.063L300.195 636.72" stroke="#000000" stroke-width="0.398" fill="none" /><path id="179" transform="matrix(1 0 0 -1 0 841)" d="M271.528 606.063L300.395 606.063" stroke="#000000" stroke-width="0.398" fill="none" /><path id="446" transform="matrix(1 0 0 -1 0 841)" d="M227.282 477.251L403.677 477.251" stroke="#000000" stroke-width="0.436" fill="none" /><path id="947" transform="matrix(1 0 0 -1 0 841)" d="M157.145 225.246L162.6 225.246" stroke="#000000" stroke-width="0.436" fill="none" /><path id="983" transform="matrix(1 0 0 -1 0 841)" d="M157.145 189.782L162.6 189.782" stroke="#000000" stroke-width="0.436" fill="none" /><path id="1224" transform="matrix(1 0 0 -1 0 841)" d="M325.397 103.923L341.761 103.923" stroke="#000000" stroke-width="0.436" fill="none" /><path id="1237" transform="matrix(1 0 0 -1 0 841)" d="M404.136 111.682L416.365 111.682" stroke="#000000" stroke-width="0.398" fill="none" /><path id="1238" transform="matrix(1 0 0 -1 0 841)" d="M404.335 98.008L404.335 111.682" stroke="#000000" stroke-width="0.398" fill="none" /><path id="1239" transform="matrix(1 0 0 -1 0 841)" d="M416.166 98.008L416.166 111.682" stroke="#000000" stroke-width="0.398" fill="none" /><path id="1240" transform="matrix(1 0 0 -1 0 841)" d="M404.136 98.008L416.365 98.008" stroke="#000000" stroke-width="0.398" fill="none" /></g></g></svg>