<svg xmlns="http://www.w3.org/2000/svg" xmlns:xlink="http://www.w3.org/1999/xlink" id="body_138" preserveAspectRatio="xMinYMin meet" viewBox="0 0 793 1121"><defs><clipPath id="1"><path id="" clip-rule="evenodd" transform="matrix(1 0 0 1 0 0)" d="M0 841L0 -0.8900146L0 -0.8900146L595.276 -0.8900146L595.276 -0.8900146L595.276 841L595.276 841L0 841z" /></clipPath></defs><g transform="matrix(1.333333 0 0 1.333333 0 0)"><g clip-path="url(#1)"><path id="33" transform="matrix(1 0 0 -1 0 841)" d="M85.039 766.564L510.236 766.564" stroke="#000000" stroke-width="0.498" fill="none" /><path id="34" transform="matrix(1 0 0 -1 0 841)" d="M85.039 427.094L85.039 752.6024C 85.039 754.9508 86.94264 756.8544 89.29099 756.8544L89.29099 756.8544L505.9893 756.8544C 508.3377 756.8544 510.2413 754.9508 510.2413 752.6024L510.2413 752.6024L510.2413 427.094C 510.2413 424.7456 508.3377 422.842 505.9893 422.842L505.9893 422.842L89.29099 422.842C 86.94264 422.842 85.039 424.7456 85.039 427.094z" stroke="none" fill="#BFBFFF" fill-rule="nonzero" /><path id="35" transform="matrix(1 0 0 -1 0 841)" d="M86.45631 427.094L86.45631 740.8451L86.45631 740.8451L508.824 740.8451L508.824 740.8451L508.824 427.094C 508.824 425.5284 507.5549 424.2593 505.9893 424.2593L505.9893 424.2593L89.29099 424.2593C 87.72543 424.2593 86.45631 425.5284 86.45631 427.094z" stroke="none" fill="#E6E6FF" fill-rule="nonzero" /><g transform="matrix(0.5 0 0 0.5 161.512 456.537)"><g transform="matrix(1 0 0 1 0 0)"><image x="0" y="0" xlink:href="img_47.png" width="278" height="281" /></g></g><g transform="matrix(0.45 0 0 0.45 334.313 464.287)"><g transform="matrix(1 0 0 1 0 0)"><image x="0" y="0" xlink:href="img_48.png" width="221" height="295" /></g></g></g></g></svg>