<svg xmlns="http://www.w3.org/2000/svg" xmlns:xlink="http://www.w3.org/1999/xlink" id="body_79" preserveAspectRatio="xMinYMin meet" viewBox="0 0 793 1121"><defs><clipPath id="1"><path id="" clip-rule="evenodd" transform="matrix(1 0 0 1 0 0)" d="M0 841L0 -0.8900146L0 -0.8900146L595.276 -0.8900146L595.276 -0.8900146L595.276 841L595.276 841L0 841z" /></clipPath></defs><g transform="matrix(1.333333 0 0 1.333333 0 0)"><g clip-path="url(#1)"><path id="22" transform="matrix(1 0 0 -1 0 841)" d="M85.039 766.564L510.236 766.564" stroke="#000000" stroke-width="0.498" fill="none" /><path id="23" transform="matrix(1 0 0 -1 0 841)" d="M138.653 682.5694L98.96808 702.4119L167.0057 722.675L206.686 712.3339z" stroke="none" fill="#CCCCCC" fill-rule="nonzero" /><path id="24" transform="matrix(1 0 0 -1 0 841)" d="M98.96808 702.4119L98.96808 747.7669L167.0066 756.4522L167.0057 722.675z" stroke="none" fill="#BFBFBF" fill-rule="nonzero" /><path id="33" transform="matrix(1 0 0 -1 0 841)" d="M167.0066 756.4522L167.0057 722.675L206.686 712.3339L206.686 752.0192z" stroke="none" fill="#F2F2F2" fill-rule="nonzero" fill-opacity="0.2" /><path id="42" transform="matrix(1 0 0 -1 0 841)" d="M138.653 739.263L138.653 682.5694L98.96808 702.4119L98.96808 747.7669z" stroke="none" fill="#F2F2F2" fill-rule="nonzero" fill-opacity="0.4980392" /><path id="51" transform="matrix(1 0 0 -1 0 841)" d="M138.653 739.263L98.96808 747.7669L167.0066 756.4522L206.686 752.0192z" stroke="none" fill="#CCCCCC" fill-rule="nonzero" fill-opacity="0.2" /><path id="52" transform="matrix(1 0 0 -1 0 841)" d="M167.0066 756.4522L167.0057 722.675" stroke="#000000" stroke-width="0.79701" stroke-dasharray="3.750053,3.750053" fill="none" /><path id="53" transform="matrix(1 0 0 -1 0 841)" d="M98.96808 702.4119L167.0057 722.675" stroke="#000000" stroke-width="0.79701" stroke-dasharray="3.750053,3.750053" fill="none" /><path id="54" transform="matrix(1 0 0 -1 0 841)" d="M206.686 712.3339L167.0057 722.675" stroke="#000000" stroke-width="0.79701" stroke-dasharray="3.750053,3.750053" fill="none" /><path id="63" transform="matrix(1 0 0 -1 0 841)" d="M138.653 739.263L138.653 682.5694" stroke="#000000" stroke-width="0.79701" fill="none" /><path id="64" transform="matrix(1 0 0 -1 0 841)" d="M87.62868 749.6364L87.62868 702.8106" stroke="#000000" stroke-width="0.3985" fill="none" /><path id="65" transform="matrix(1 0 0 -1 0 841)" d="M85.23764 747.7634C 86.67229 748.142 87.34972 748.9857 87.62868 749.8356C 87.90763 748.9857 88.58507 748.142 90.01971 747.7634" stroke="#000000" stroke-width="0.3985" stroke-linecap="round" fill="none" /><path id="66" transform="matrix(1 0 0 -1 0 841)" d="M90.01971 704.6836C 88.58507 704.305 87.90763 703.4613 87.62868 702.6113C 87.34972 703.4613 86.67229 704.305 85.23764 704.6836" stroke="#000000" stroke-width="0.3985" stroke-linecap="round" fill="none" /><path id="77" transform="matrix(1 0 0 -1 0 841)" d="M93.6488 699.3887L129.798 679.9235" stroke="#000000" stroke-width="0.3985" fill="none" /><path id="78" transform="matrix(1 0 0 -1 0 841)" d="M94.16428 696.3956C 94.51111 697.8382 94.08949 698.8346 93.47339 699.4832C 94.35398 699.3258 95.41792 699.5223 96.43137 700.6059" stroke="#000000" stroke-width="0.3984783" stroke-linecap="round" fill="none" /><path id="79" transform="matrix(1 0 0 -1 0 841)" d="M129.2825 682.9165C 128.9357 681.4739 129.3573 680.4775 129.9734 679.829C 129.0928 679.9863 128.0289 679.7899 127.0155 678.7062" stroke="#000000" stroke-width="0.3984783" stroke-linecap="round" fill="none" /><path id="90" transform="matrix(1 0 0 -1 0 841)" d="M211.9909 707.0687L144.6862 677.0624" stroke="#000000" stroke-width="0.3985" fill="none" /><path id="91" transform="matrix(1 0 0 -1 0 841)" d="M209.3067 708.4898C 210.2366 707.3337 211.283 707.0585 212.1729 707.1498C 211.5102 706.549 211.0155 705.5867 211.2539 704.1223" stroke="#000000" stroke-width="0.3984862" stroke-linecap="round" fill="none" /><path id="92" transform="matrix(1 0 0 -1 0 841)" d="M147.3704 675.6412C 146.4405 676.7974 145.3941 677.0725 144.5042 676.9812C 145.1669 677.5821 145.6616 678.5443 145.4232 680.0087" stroke="#000000" stroke-width="0.3984862" stroke-linecap="round" fill="none" /><path id="102" transform="matrix(1 0 0 -1 0 841)" d="M98.96808 702.4119L98.96808 747.7669" stroke="#000000" stroke-width="0.79701" fill="none" /><path id="103" transform="matrix(1 0 0 -1 0 841)" d="M206.686 712.3339L206.686 752.0192" stroke="#000000" stroke-width="0.79701" fill="none" /><path id="104" transform="matrix(1 0 0 -1 0 841)" d="M138.653 739.263L98.96808 747.7669" stroke="#000000" stroke-width="0.79701" fill="none" /><path id="105" transform="matrix(1 0 0 -1 0 841)" d="M138.653 739.263L206.686 752.0192" stroke="#000000" stroke-width="0.79701" fill="none" /><path id="106" transform="matrix(1 0 0 -1 0 841)" d="M138.653 682.5694L98.96808 702.4119" stroke="#000000" stroke-width="0.79701" fill="none" /><path id="107" transform="matrix(1 0 0 -1 0 841)" d="M138.653 682.5694L206.686 712.3339" stroke="#000000" stroke-width="0.79701" fill="none" /><path id="108" transform="matrix(1 0 0 -1 0 841)" d="M98.96808 747.7669L167.0066 756.4522" stroke="#000000" stroke-width="0.79701" fill="none" /><path id="109" transform="matrix(1 0 0 -1 0 841)" d="M206.686 752.0192L167.0066 756.4522" stroke="#000000" stroke-width="0.79701" fill="none" /><path id="181" transform="matrix(1 0 0 -1 0 841)" d="M137.488 630.384L151.986 630.384" stroke="#000000" stroke-width="0.436" fill="none" /><path id="209" transform="matrix(1 0 0 -1 0 841)" d="M255.411 630.384L297.702 630.384" stroke="#000000" stroke-width="0.436" fill="none" /><path id="218" transform="matrix(1 0 0 -1 0 841)" d="M276.619 612.578L292.858 612.578" stroke="#000000" stroke-width="0.436" fill="none" /><path id="232" transform="matrix(1 0 0 -1 0 841)" d="M312.224 638.355L368.602 638.355" stroke="#000000" stroke-width="0.398" fill="none" /><path id="233" transform="matrix(1 0 0 -1 0 841)" d="M312.423 622.243L312.423 638.355" stroke="#000000" stroke-width="0.398" fill="none" /><path id="234" transform="matrix(1 0 0 -1 0 841)" d="M368.402 622.243L368.402 638.355" stroke="#000000" stroke-width="0.398" fill="none" /><path id="235" transform="matrix(1 0 0 -1 0 841)" d="M312.224 622.243L368.602 622.243" stroke="#000000" stroke-width="0.398" fill="none" /><path id="353" transform="matrix(1 0 0 -1 0 841)" d="M269.694 542.883L302.595 542.883" stroke="#000000" stroke-width="0.398" fill="none" /><path id="354" transform="matrix(1 0 0 -1 0 841)" d="M269.893 526.896L269.893 542.883" stroke="#000000" stroke-width="0.398" fill="none" /><path id="355" transform="matrix(1 0 0 -1 0 841)" d="M302.396 526.896L302.396 542.883" stroke="#000000" stroke-width="0.398" fill="none" /><path id="356" transform="matrix(1 0 0 -1 0 841)" d="M269.694 526.896L302.595 526.896" stroke="#000000" stroke-width="0.398" fill="none" /><path id="444" transform="matrix(1 0 0 -1 0 841)" d="M161.751 458.77L168.624 458.77" stroke="#000000" stroke-width="0.436" fill="none" /><path id="483" transform="matrix(1 0 0 -1 0 841)" d="M136.759 435.454L161.599 435.454" stroke="#000000" stroke-width="0.436" fill="none" /><path id="494" transform="matrix(1 0 0 -1 0 841)" d="M220.346 442.089L250.64 442.089" stroke="#000000" stroke-width="0.425" fill="none" /><path id="506" transform="matrix(1 0 0 -1 0 841)" d="M263.965 443.246L291.412 443.246" stroke="#000000" stroke-width="0.398" fill="none" /><path id="507" transform="matrix(1 0 0 -1 0 841)" d="M264.165 427.259L264.165 443.246" stroke="#000000" stroke-width="0.398" fill="none" /><path id="508" transform="matrix(1 0 0 -1 0 841)" d="M291.213 427.259L291.213 443.246" stroke="#000000" stroke-width="0.398" fill="none" /><path id="509" transform="matrix(1 0 0 -1 0 841)" d="M263.965 427.259L291.412 427.259" stroke="#000000" stroke-width="0.398" fill="none" /><path id="601" transform="matrix(1 0 0 -1 0 841)" d="M90.90784 346.597C 90.90784 351.2937 89.63864 355.1011 88.073 355.1011C 86.50735 355.1011 85.23816 351.2937 85.23816 346.597C 85.23816 341.9002 86.50735 338.0929 88.073 338.0929C 89.63864 338.0929 90.90784 341.9002 90.90784 346.597z" stroke="#000000" stroke-width="0.3985" fill="none" /><path id="602" transform="matrix(1 0 0 -1 0 841)" d="M374.3759 346.597C 374.3759 351.2937 373.1068 355.1011 371.5411 355.1011C 369.9754 355.1011 368.7062 351.2937 368.7062 346.597C 368.7062 341.9002 369.9754 338.0929 371.5411 338.0929C 373.1068 338.0929 374.3759 341.9002 374.3759 346.597z" stroke="#000000" stroke-width="0.3985" fill="none" /><path id="603" transform="matrix(1 0 0 -1 0 841)" d="M88.073 338.3766L371.5411 338.3766" stroke="#000000" stroke-width="0.3985" fill="none" /><path id="604" transform="matrix(1 0 0 -1 0 841)" d="M88.073 354.8174L371.5411 354.8174" stroke="#000000" stroke-width="0.3985" fill="none" /><path id="605" transform="matrix(1 0 0 -1 0 841)" d="M371.5411 339.0584L371.5411 354.1355" stroke="#000000" stroke-width="0.3985" fill="none" /><path id="606" transform="matrix(1 0 0 -1 0 841)" d="M373.9322 340.9314C 372.4975 340.5528 371.8201 339.7091 371.5411 338.8592C 371.2621 339.7091 370.5847 340.5528 369.1501 340.9314" stroke="#000000" stroke-width="0.3985" stroke-linecap="round" fill="none" /><path id="607" transform="matrix(1 0 0 -1 0 841)" d="M369.1501 352.2625C 370.5847 352.6411 371.2621 353.4848 371.5411 354.3348C 371.8201 353.4848 372.4975 352.6411 373.9322 352.2625" stroke="#000000" stroke-width="0.3985" stroke-linecap="round" fill="none" /><path id="619" transform="matrix(1 0 0 -1 0 841)" d="M88.4715 327.3214L371.1426 327.3214" stroke="#000000" stroke-width="0.3985" fill="none" /><path id="620" transform="matrix(1 0 0 -1 0 841)" d="M90.34449 324.9303C 89.9659 326.365 89.12224 327.0424 88.27225 327.3214C 89.12224 327.6003 89.9659 328.2777 90.34449 329.7124" stroke="#000000" stroke-width="0.3985" stroke-linecap="round" fill="none" /><path id="621" transform="matrix(1 0 0 -1 0 841)" d="M369.2696 329.7124C 369.6482 328.2777 370.4919 327.6003 371.3418 327.3214C 370.4919 327.0424 369.6482 326.365 369.2696 324.9303" stroke="#000000" stroke-width="0.3985" stroke-linecap="round" fill="none" /><path id="641" transform="matrix(1 0 0 -1 0 841)" d="M86.235 287.379L93.108 287.379" stroke="#000000" stroke-width="0.436" fill="none" /><path id="656" transform="matrix(1 0 0 -1 0 841)" d="M175.603 287.379L186.512 287.379" stroke="#000000" stroke-width="0.436" fill="none" /><path id="682" transform="matrix(1 0 0 -1 0 841)" d="M268.856 287.379L302.095 287.379" stroke="#000000" stroke-width="0.436" fill="none" /><path id="699" transform="matrix(1 0 0 -1 0 841)" d="M316.616 295.351L378.448 295.351" stroke="#000000" stroke-width="0.398" fill="none" /><path id="700" transform="matrix(1 0 0 -1 0 841)" d="M316.815 279.238L316.815 295.35" stroke="#000000" stroke-width="0.398" fill="none" /><path id="701" transform="matrix(1 0 0 -1 0 841)" d="M378.248 279.238L378.248 295.35" stroke="#000000" stroke-width="0.398" fill="none" /><path id="702" transform="matrix(1 0 0 -1 0 841)" d="M316.616 279.238L378.448 279.238" stroke="#000000" stroke-width="0.398" fill="none" /><path id="980" transform="matrix(1 0 0 -1 0 841)" d="M180.283 114.137L208.581 114.137" stroke="#000000" stroke-width="0.436" fill="none" /><path id="1014" transform="matrix(1 0 0 -1 0 841)" d="M322.142 125.995L432.442 125.995" stroke="#000000" stroke-width="0.436" fill="none" /><path id="1020" transform="matrix(1 0 0 -1 0 841)" d="M224.296 114.137L484.122 114.137" stroke="#000000" stroke-width="0.436" fill="none" /></g></g></svg>