<svg xmlns="http://www.w3.org/2000/svg" xmlns:xlink="http://www.w3.org/1999/xlink" id="body_89" preserveAspectRatio="xMinYMin meet" viewBox="0 0 793 1121"><defs><clipPath id="1"><path id="" clip-rule="evenodd" transform="matrix(1 0 0 1 0 0)" d="M0 841L0 -0.8900146L0 -0.8900146L595.276 -0.8900146L595.276 -0.8900146L595.276 841L595.276 841L0 841z" /></clipPath></defs><g transform="matrix(1.333333 0 0 1.333333 0 0)"><g clip-path="url(#1)"><path id="4" transform="matrix(1 0 0 -1 0 841)" d="M85.039 766.564L510.236 766.564" stroke="#000000" stroke-width="0.498" fill="none" /><path id="5" transform="matrix(1 0 0 -1 0 841)" d="M85.039 756.651L492.552 756.651" stroke="#000000" stroke-width="0.398" fill="none" /><path id="6" transform="matrix(1 0 0 -1 0 841)" d="M85.239 742.903L85.239 756.452" stroke="#000000" stroke-width="0.398" fill="none" /><path id="50" transform="matrix(1 0 0 -1 0 841)" d="M492.353 742.903L492.353 756.452" stroke="#000000" stroke-width="0.398" fill="none" /><path id="51" transform="matrix(1 0 0 -1 0 841)" d="M85.039 742.703L492.552 742.703" stroke="#000000" stroke-width="0.398" fill="none" /><path id="52" transform="matrix(1 0 0 -1 0 841)" d="M85.239 728.955L85.239 742.504" stroke="#000000" stroke-width="0.398" fill="none" /><path id="107" transform="matrix(1 0 0 -1 0 841)" d="M492.353 728.955L492.353 742.504" stroke="#000000" stroke-width="0.398" fill="none" /><path id="108" transform="matrix(1 0 0 -1 0 841)" d="M85.039 728.756L492.552 728.756" stroke="#000000" stroke-width="0.398" fill="none" /><path id="109" transform="matrix(1 0 0 -1 0 841)" d="M97.194 715.007L97.194 728.556" stroke="#000000" stroke-width="0.398" fill="none" /><path id="115" transform="matrix(1 0 0 -1 0 841)" d="M139.842 715.007L139.842 728.556" stroke="#000000" stroke-width="0.398" fill="none" /><path id="160" transform="matrix(1 0 0 -1 0 841)" d="M492.353 715.007L492.353 728.556" stroke="#000000" stroke-width="0.398" fill="none" /><path id="161" transform="matrix(1 0 0 -1 0 841)" d="M97.393 714.808L492.552 714.808" stroke="#000000" stroke-width="0.398" fill="none" /><path id="162" transform="matrix(1 0 0 -1 0 841)" d="M97.194 701.458L97.194 715.007" stroke="#000000" stroke-width="0.398" fill="none" /><path id="168" transform="matrix(1 0 0 -1 0 841)" d="M139.842 701.458L139.842 715.007" stroke="#000000" stroke-width="0.398" fill="none" /><path id="209" transform="matrix(1 0 0 -1 0 841)" d="M492.353 701.458L492.353 715.007" stroke="#000000" stroke-width="0.398" fill="none" /><path id="210" transform="matrix(1 0 0 -1 0 841)" d="M97.393 701.259L492.552 701.259" stroke="#000000" stroke-width="0.398" fill="none" /><path id="211" transform="matrix(1 0 0 -1 0 841)" d="M97.194 687.909L97.194 701.458" stroke="#000000" stroke-width="0.398" fill="none" /><path id="217" transform="matrix(1 0 0 -1 0 841)" d="M139.842 687.909L139.842 701.458" stroke="#000000" stroke-width="0.398" fill="none" /><path id="269" transform="matrix(1 0 0 -1 0 841)" d="M492.353 687.909L492.353 701.458" stroke="#000000" stroke-width="0.398" fill="none" /><path id="270" transform="matrix(1 0 0 -1 0 841)" d="M97.393 687.71L492.552 687.71" stroke="#000000" stroke-width="0.398" fill="none" /><path id="271" transform="matrix(1 0 0 -1 0 841)" d="M97.194 674.36L97.194 687.909" stroke="#000000" stroke-width="0.398" fill="none" /><path id="277" transform="matrix(1 0 0 -1 0 841)" d="M139.842 674.36L139.842 687.909" stroke="#000000" stroke-width="0.398" fill="none" /><path id="330" transform="matrix(1 0 0 -1 0 841)" d="M492.353 674.36L492.353 687.909" stroke="#000000" stroke-width="0.398" fill="none" /><path id="331" transform="matrix(1 0 0 -1 0 841)" d="M97.393 674.161L492.552 674.161" stroke="#000000" stroke-width="0.398" fill="none" /><path id="332" transform="matrix(1 0 0 -1 0 841)" d="M97.194 660.811L97.194 674.36" stroke="#000000" stroke-width="0.398" fill="none" /><path id="338" transform="matrix(1 0 0 -1 0 841)" d="M139.842 660.811L139.842 674.36" stroke="#000000" stroke-width="0.398" fill="none" /><path id="373" transform="matrix(1 0 0 -1 0 841)" d="M492.353 660.811L492.353 674.36" stroke="#000000" stroke-width="0.398" fill="none" /><path id="374" transform="matrix(1 0 0 -1 0 841)" d="M97.393 660.611L492.552 660.611" stroke="#000000" stroke-width="0.398" fill="none" /><path id="375" transform="matrix(1 0 0 -1 0 841)" d="M97.194 647.261L97.194 660.81" stroke="#000000" stroke-width="0.398" fill="none" /><path id="381" transform="matrix(1 0 0 -1 0 841)" d="M139.842 647.261L139.842 660.81" stroke="#000000" stroke-width="0.398" fill="none" /><path id="427" transform="matrix(1 0 0 -1 0 841)" d="M492.353 647.261L492.353 660.81" stroke="#000000" stroke-width="0.398" fill="none" /><path id="428" transform="matrix(1 0 0 -1 0 841)" d="M97.393 647.062L492.552 647.062" stroke="#000000" stroke-width="0.398" fill="none" /><path id="429" transform="matrix(1 0 0 -1 0 841)" d="M97.194 633.712L97.194 647.261" stroke="#000000" stroke-width="0.398" fill="none" /><path id="435" transform="matrix(1 0 0 -1 0 841)" d="M139.842 633.712L139.842 647.261" stroke="#000000" stroke-width="0.398" fill="none" /><path id="489" transform="matrix(1 0 0 -1 0 841)" d="M492.353 633.712L492.353 647.261" stroke="#000000" stroke-width="0.398" fill="none" /><path id="490" transform="matrix(1 0 0 -1 0 841)" d="M97.393 633.513L492.552 633.513" stroke="#000000" stroke-width="0.398" fill="none" /><path id="491" transform="matrix(1 0 0 -1 0 841)" d="M97.194 620.163L97.194 633.712" stroke="#000000" stroke-width="0.398" fill="none" /><path id="497" transform="matrix(1 0 0 -1 0 841)" d="M139.842 620.163L139.842 633.712" stroke="#000000" stroke-width="0.398" fill="none" /><path id="530" transform="matrix(1 0 0 -1 0 841)" d="M492.353 620.163L492.353 633.712" stroke="#000000" stroke-width="0.398" fill="none" /><path id="531" transform="matrix(1 0 0 -1 0 841)" d="M97.393 619.964L492.552 619.964" stroke="#000000" stroke-width="0.398" fill="none" /><path id="532" transform="matrix(1 0 0 -1 0 841)" d="M97.194 606.614L97.194 620.163" stroke="#000000" stroke-width="0.398" fill="none" /><path id="535" transform="matrix(1 0 0 -1 0 841)" d="M139.842 606.614L139.842 620.163" stroke="#000000" stroke-width="0.398" fill="none" /><path id="578" transform="matrix(1 0 0 -1 0 841)" d="M492.353 606.614L492.353 620.163" stroke="#000000" stroke-width="0.398" fill="none" /><path id="579" transform="matrix(1 0 0 -1 0 841)" d="M97.393 606.415L492.552 606.415" stroke="#000000" stroke-width="0.398" fill="none" /><path id="580" transform="matrix(1 0 0 -1 0 841)" d="M97.194 579.516L97.194 606.614" stroke="#000000" stroke-width="0.398" fill="none" /><path id="583" transform="matrix(1 0 0 -1 0 841)" d="M139.842 579.516L139.842 606.614" stroke="#000000" stroke-width="0.398" fill="none" /><path id="687" transform="matrix(1 0 0 -1 0 841)" d="M492.353 579.516L492.353 606.614" stroke="#000000" stroke-width="0.398" fill="none" /><path id="688" transform="matrix(1 0 0 -1 0 841)" d="M97.393 579.316L492.552 579.316" stroke="#000000" stroke-width="0.398" fill="none" /><path id="689" transform="matrix(1 0 0 -1 0 841)" d="M97.194 565.966L97.194 579.515" stroke="#000000" stroke-width="0.398" fill="none" /><path id="692" transform="matrix(1 0 0 -1 0 841)" d="M139.842 565.966L139.842 579.515" stroke="#000000" stroke-width="0.398" fill="none" /><path id="730" transform="matrix(1 0 0 -1 0 841)" d="M492.353 565.966L492.353 579.515" stroke="#000000" stroke-width="0.398" fill="none" /><path id="731" transform="matrix(1 0 0 -1 0 841)" d="M97.393 565.767L492.552 565.767" stroke="#000000" stroke-width="0.398" fill="none" /><path id="732" transform="matrix(1 0 0 -1 0 841)" d="M97.194 538.868L97.194 565.966" stroke="#000000" stroke-width="0.398" fill="none" /><path id="735" transform="matrix(1 0 0 -1 0 841)" d="M139.842 538.868L139.842 565.966" stroke="#000000" stroke-width="0.398" fill="none" /><path id="839" transform="matrix(1 0 0 -1 0 841)" d="M492.353 538.868L492.353 565.966" stroke="#000000" stroke-width="0.398" fill="none" /><path id="840" transform="matrix(1 0 0 -1 0 841)" d="M85.039 538.669L492.552 538.669" stroke="#000000" stroke-width="0.398" fill="none" /><path id="841" transform="matrix(1 0 0 -1 0 841)" d="M85.239 524.92L85.239 538.469" stroke="#000000" stroke-width="0.398" fill="none" /><path id="876" transform="matrix(1 0 0 -1 0 841)" d="M492.353 524.92L492.353 538.469" stroke="#000000" stroke-width="0.398" fill="none" /><path id="877" transform="matrix(1 0 0 -1 0 841)" d="M85.039 524.721L492.552 524.721" stroke="#000000" stroke-width="0.398" fill="none" /><path id="878" transform="matrix(1 0 0 -1 0 841)" d="M97.194 510.973L97.194 524.522" stroke="#000000" stroke-width="0.398" fill="none" /><path id="884" transform="matrix(1 0 0 -1 0 841)" d="M139.842 510.973L139.842 524.522" stroke="#000000" stroke-width="0.398" fill="none" /><path id="928" transform="matrix(1 0 0 -1 0 841)" d="M492.353 510.973L492.353 524.522" stroke="#000000" stroke-width="0.398" fill="none" /><path id="929" transform="matrix(1 0 0 -1 0 841)" d="M97.393 510.773L492.552 510.773" stroke="#000000" stroke-width="0.398" fill="none" /><path id="930" transform="matrix(1 0 0 -1 0 841)" d="M97.194 497.423L97.194 510.972" stroke="#000000" stroke-width="0.398" fill="none" /><path id="936" transform="matrix(1 0 0 -1 0 841)" d="M139.842 497.423L139.842 510.972" stroke="#000000" stroke-width="0.398" fill="none" /><path id="975" transform="matrix(1 0 0 -1 0 841)" d="M492.353 497.423L492.353 510.972" stroke="#000000" stroke-width="0.398" fill="none" /><path id="976" transform="matrix(1 0 0 -1 0 841)" d="M97.393 497.224L492.552 497.224" stroke="#000000" stroke-width="0.398" fill="none" /><path id="977" transform="matrix(1 0 0 -1 0 841)" d="M97.194 483.874L97.194 497.423" stroke="#000000" stroke-width="0.398" fill="none" /><path id="983" transform="matrix(1 0 0 -1 0 841)" d="M139.842 483.874L139.842 497.423" stroke="#000000" stroke-width="0.398" fill="none" /><path id="1042" transform="matrix(1 0 0 -1 0 841)" d="M492.353 483.874L492.353 497.423" stroke="#000000" stroke-width="0.398" fill="none" /><path id="1043" transform="matrix(1 0 0 -1 0 841)" d="M97.393 483.675L492.552 483.675" stroke="#000000" stroke-width="0.398" fill="none" /><path id="1044" transform="matrix(1 0 0 -1 0 841)" d="M97.194 470.325L97.194 483.874" stroke="#000000" stroke-width="0.398" fill="none" /><path id="1050" transform="matrix(1 0 0 -1 0 841)" d="M139.842 470.325L139.842 483.874" stroke="#000000" stroke-width="0.398" fill="none" /><path id="1086" transform="matrix(1 0 0 -1 0 841)" d="M492.353 470.325L492.353 483.874" stroke="#000000" stroke-width="0.398" fill="none" /><path id="1087" transform="matrix(1 0 0 -1 0 841)" d="M97.393 470.126L492.552 470.126" stroke="#000000" stroke-width="0.398" fill="none" /><path id="1088" transform="matrix(1 0 0 -1 0 841)" d="M97.194 456.776L97.194 470.325" stroke="#000000" stroke-width="0.398" fill="none" /><path id="1094" transform="matrix(1 0 0 -1 0 841)" d="M139.842 456.776L139.842 470.325" stroke="#000000" stroke-width="0.398" fill="none" /><path id="1138" transform="matrix(1 0 0 -1 0 841)" d="M492.353 456.776L492.353 470.325" stroke="#000000" stroke-width="0.398" fill="none" /><path id="1139" transform="matrix(1 0 0 -1 0 841)" d="M97.393 456.577L492.552 456.577" stroke="#000000" stroke-width="0.398" fill="none" /><path id="1140" transform="matrix(1 0 0 -1 0 841)" d="M97.194 443.227L97.194 456.776" stroke="#000000" stroke-width="0.398" fill="none" /><path id="1146" transform="matrix(1 0 0 -1 0 841)" d="M139.842 443.227L139.842 456.776" stroke="#000000" stroke-width="0.398" fill="none" /><path id="1170" transform="matrix(1 0 0 -1 0 841)" d="M492.353 443.227L492.353 456.776" stroke="#000000" stroke-width="0.398" fill="none" /><path id="1171" transform="matrix(1 0 0 -1 0 841)" d="M97.393 443.027L492.552 443.027" stroke="#000000" stroke-width="0.398" fill="none" /><path id="1172" transform="matrix(1 0 0 -1 0 841)" d="M97.194 429.678L97.194 443.227" stroke="#000000" stroke-width="0.398" fill="none" /><path id="1178" transform="matrix(1 0 0 -1 0 841)" d="M139.842 429.678L139.842 443.227" stroke="#000000" stroke-width="0.398" fill="none" /><path id="1222" transform="matrix(1 0 0 -1 0 841)" d="M492.353 429.678L492.353 443.227" stroke="#000000" stroke-width="0.398" fill="none" /><path id="1223" transform="matrix(1 0 0 -1 0 841)" d="M97.393 429.478L492.552 429.478" stroke="#000000" stroke-width="0.398" fill="none" /><path id="1224" transform="matrix(1 0 0 -1 0 841)" d="M97.194 416.128L97.194 429.677" stroke="#000000" stroke-width="0.398" fill="none" /><path id="1230" transform="matrix(1 0 0 -1 0 841)" d="M139.842 416.128L139.842 429.677" stroke="#000000" stroke-width="0.398" fill="none" /><path id="1283" transform="matrix(1 0 0 -1 0 841)" d="M492.353 416.128L492.353 429.677" stroke="#000000" stroke-width="0.398" fill="none" /><path id="1284" transform="matrix(1 0 0 -1 0 841)" d="M97.393 415.929L492.552 415.929" stroke="#000000" stroke-width="0.398" fill="none" /><path id="1285" transform="matrix(1 0 0 -1 0 841)" d="M97.194 402.579L97.194 416.128" stroke="#000000" stroke-width="0.398" fill="none" /><path id="1291" transform="matrix(1 0 0 -1 0 841)" d="M139.842 402.579L139.842 416.128" stroke="#000000" stroke-width="0.398" fill="none" /><path id="1330" transform="matrix(1 0 0 -1 0 841)" d="M492.353 402.579L492.353 416.128" stroke="#000000" stroke-width="0.398" fill="none" /><path id="1331" transform="matrix(1 0 0 -1 0 841)" d="M97.393 402.38L492.552 402.38" stroke="#000000" stroke-width="0.398" fill="none" /><path id="1332" transform="matrix(1 0 0 -1 0 841)" d="M97.194 389.03L97.194 402.579" stroke="#000000" stroke-width="0.398" fill="none" /><path id="1338" transform="matrix(1 0 0 -1 0 841)" d="M139.842 389.03L139.842 402.579" stroke="#000000" stroke-width="0.398" fill="none" /><path id="1375" transform="matrix(1 0 0 -1 0 841)" d="M492.353 389.03L492.353 402.579" stroke="#000000" stroke-width="0.398" fill="none" /><path id="1376" transform="matrix(1 0 0 -1 0 841)" d="M97.393 388.831L492.552 388.831" stroke="#000000" stroke-width="0.398" fill="none" /><path id="1377" transform="matrix(1 0 0 -1 0 841)" d="M97.194 375.481L97.194 389.03" stroke="#000000" stroke-width="0.398" fill="none" /><path id="1383" transform="matrix(1 0 0 -1 0 841)" d="M139.842 375.481L139.842 389.03" stroke="#000000" stroke-width="0.398" fill="none" /><path id="1424" transform="matrix(1 0 0 -1 0 841)" d="M492.353 375.481L492.353 389.03" stroke="#000000" stroke-width="0.398" fill="none" /><path id="1425" transform="matrix(1 0 0 -1 0 841)" d="M97.393 375.282L492.552 375.282" stroke="#000000" stroke-width="0.398" fill="none" /><path id="1426" transform="matrix(1 0 0 -1 0 841)" d="M97.194 361.932L97.194 375.481" stroke="#000000" stroke-width="0.398" fill="none" /><path id="1432" transform="matrix(1 0 0 -1 0 841)" d="M139.842 361.932L139.842 375.481" stroke="#000000" stroke-width="0.398" fill="none" /><path id="1475" transform="matrix(1 0 0 -1 0 841)" d="M492.353 361.932L492.353 375.481" stroke="#000000" stroke-width="0.398" fill="none" /><path id="1476" transform="matrix(1 0 0 -1 0 841)" d="M97.393 361.732L492.552 361.732" stroke="#000000" stroke-width="0.398" fill="none" /><path id="1477" transform="matrix(1 0 0 -1 0 841)" d="M97.194 334.833L97.194 361.931" stroke="#000000" stroke-width="0.398" fill="none" /><path id="1483" transform="matrix(1 0 0 -1 0 841)" d="M139.842 334.833L139.842 361.931" stroke="#000000" stroke-width="0.398" fill="none" /><path id="1553" transform="matrix(1 0 0 -1 0 841)" d="M492.353 334.833L492.353 361.931" stroke="#000000" stroke-width="0.398" fill="none" /><path id="1554" transform="matrix(1 0 0 -1 0 841)" d="M97.393 334.634L492.552 334.634" stroke="#000000" stroke-width="0.398" fill="none" /><path id="1555" transform="matrix(1 0 0 -1 0 841)" d="M97.194 321.284L97.194 334.833" stroke="#000000" stroke-width="0.398" fill="none" /><path id="1561" transform="matrix(1 0 0 -1 0 841)" d="M139.842 321.284L139.842 334.833" stroke="#000000" stroke-width="0.398" fill="none" /><path id="1591" transform="matrix(1 0 0 -1 0 841)" d="M492.353 321.284L492.353 334.833" stroke="#000000" stroke-width="0.398" fill="none" /><path id="1592" transform="matrix(1 0 0 -1 0 841)" d="M97.393 321.085L492.552 321.085" stroke="#000000" stroke-width="0.398" fill="none" /><path id="1593" transform="matrix(1 0 0 -1 0 841)" d="M97.194 307.735L97.194 321.284" stroke="#000000" stroke-width="0.398" fill="none" /><path id="1599" transform="matrix(1 0 0 -1 0 841)" d="M139.842 307.735L139.842 321.284" stroke="#000000" stroke-width="0.398" fill="none" /><path id="1631" transform="matrix(1 0 0 -1 0 841)" d="M492.353 307.735L492.353 321.284" stroke="#000000" stroke-width="0.398" fill="none" /><path id="1632" transform="matrix(1 0 0 -1 0 841)" d="M97.393 307.536L492.552 307.536" stroke="#000000" stroke-width="0.398" fill="none" /><path id="1633" transform="matrix(1 0 0 -1 0 841)" d="M97.194 294.186L97.194 307.735" stroke="#000000" stroke-width="0.398" fill="none" /><path id="1639" transform="matrix(1 0 0 -1 0 841)" d="M139.842 294.186L139.842 307.735" stroke="#000000" stroke-width="0.398" fill="none" /><path id="1692" transform="matrix(1 0 0 -1 0 841)" d="M492.353 294.186L492.353 307.735" stroke="#000000" stroke-width="0.398" fill="none" /><path id="1693" transform="matrix(1 0 0 -1 0 841)" d="M97.393 293.986L492.552 293.986" stroke="#000000" stroke-width="0.398" fill="none" /><path id="1694" transform="matrix(1 0 0 -1 0 841)" d="M97.194 280.637L97.194 294.186" stroke="#000000" stroke-width="0.398" fill="none" /><path id="1700" transform="matrix(1 0 0 -1 0 841)" d="M139.842 280.637L139.842 294.186" stroke="#000000" stroke-width="0.398" fill="none" /><path id="1745" transform="matrix(1 0 0 -1 0 841)" d="M492.353 280.637L492.353 294.186" stroke="#000000" stroke-width="0.398" fill="none" /><path id="1746" transform="matrix(1 0 0 -1 0 841)" d="M97.393 280.437L492.552 280.437" stroke="#000000" stroke-width="0.398" fill="none" /><path id="1747" transform="matrix(1 0 0 -1 0 841)" d="M97.194 267.087L97.194 280.636" stroke="#000000" stroke-width="0.398" fill="none" /><path id="1753" transform="matrix(1 0 0 -1 0 841)" d="M139.842 267.087L139.842 280.636" stroke="#000000" stroke-width="0.398" fill="none" /><path id="1813" transform="matrix(1 0 0 -1 0 841)" d="M492.353 267.087L492.353 280.636" stroke="#000000" stroke-width="0.398" fill="none" /><path id="1814" transform="matrix(1 0 0 -1 0 841)" d="M97.393 266.888L492.552 266.888" stroke="#000000" stroke-width="0.398" fill="none" /></g></g></svg>