<svg xmlns="http://www.w3.org/2000/svg" xmlns:xlink="http://www.w3.org/1999/xlink" id="body_130" preserveAspectRatio="xMinYMin meet" viewBox="0 0 1121 793"><defs><clipPath id="1"><path id="" clip-rule="evenodd" transform="matrix(1 0 0 1 0 0)" d="M0 -0.276001L841.89 -0.276001L841.89 -0.276001L841.89 595L841.89 595L3.644894E-14 595L3.644894E-14 595L0 -0.276001z" /></clipPath></defs><g transform="matrix(1.333333 0 0 1.333333 0 0)"><g clip-path="url(#1)"><path id="1" transform="matrix(1 0 0 -1 0 595)" d="M223.593 498.083L618.296 498.083" stroke="#000000" stroke-width="0.398" fill="none" /><path id="2" transform="matrix(1 0 0 -1 0 595)" d="M223.793 490.91L223.793 497.884" stroke="#000000" stroke-width="0.398" fill="none" /><path id="3" transform="matrix(1 0 0 -1 0 595)" d="M223.992 490.91L380.1 490.91L380.1 497.884L223.992 497.884z" stroke="none" fill="#CBCEFB" fill-rule="nonzero" /><path id="23" transform="matrix(1 0 0 -1 0 595)" d="M380.299 490.91L380.299 497.884" stroke="#000000" stroke-width="0.398" fill="none" /><path id="24" transform="matrix(1 0 0 -1 0 595)" d="M380.498 490.91L459.366 490.91L459.366 497.884L380.498 497.884z" stroke="none" fill="#CBCEFB" fill-rule="nonzero" /><path id="28" transform="matrix(1 0 0 -1 0 595)" d="M459.565 490.91L459.565 497.884" stroke="#000000" stroke-width="0.398" fill="none" /><path id="29" transform="matrix(1 0 0 -1 0 595)" d="M459.764 490.91L538.632 490.91L538.632 497.884L459.764 497.884z" stroke="none" fill="#CBCEFB" fill-rule="nonzero" /><path id="36" transform="matrix(1 0 0 -1 0 595)" d="M538.831 490.91L538.831 497.884" stroke="#000000" stroke-width="0.398" fill="none" /><path id="37" transform="matrix(1 0 0 -1 0 595)" d="M539.03 490.91L617.8979 490.91L617.8979 497.884L539.03 497.884z" stroke="none" fill="#CBCEFB" fill-rule="nonzero" /><path id="43" transform="matrix(1 0 0 -1 0 595)" d="M618.0969 490.91L618.0969 497.884" stroke="#000000" stroke-width="0.398" fill="none" /><path id="44" transform="matrix(1 0 0 -1 0 595)" d="M223.593 490.71L618.296 490.71" stroke="#000000" stroke-width="0.398" fill="none" /><path id="45" transform="matrix(1 0 0 -1 0 595)" d="M223.793 483.537L223.793 490.511" stroke="#000000" stroke-width="0.398" fill="none" /><path id="60" transform="matrix(1 0 0 -1 0 595)" d="M380.299 483.537L380.299 490.511" stroke="#000000" stroke-width="0.398" fill="none" /><path id="72" transform="matrix(1 0 0 -1 0 595)" d="M459.565 483.537L459.565 490.511" stroke="#000000" stroke-width="0.398" fill="none" /><path id="84" transform="matrix(1 0 0 -1 0 595)" d="M538.831 483.537L538.831 490.511" stroke="#000000" stroke-width="0.398" fill="none" /><path id="96" transform="matrix(1 0 0 -1 0 595)" d="M618.0969 483.537L618.0969 490.511" stroke="#000000" stroke-width="0.398" fill="none" /><path id="97" transform="matrix(1 0 0 -1 0 595)" d="M223.593 483.338L618.296 483.338" stroke="#000000" stroke-width="0.398" fill="none" /><path id="98" transform="matrix(1 0 0 -1 0 595)" d="M223.793 476.165L223.793 483.139" stroke="#000000" stroke-width="0.398" fill="none" /><path id="121" transform="matrix(1 0 0 -1 0 595)" d="M380.299 476.165L380.299 483.139" stroke="#000000" stroke-width="0.398" fill="none" /><path id="129" transform="matrix(1 0 0 -1 0 595)" d="M459.565 476.165L459.565 483.139" stroke="#000000" stroke-width="0.398" fill="none" /><path id="137" transform="matrix(1 0 0 -1 0 595)" d="M538.831 476.165L538.831 483.139" stroke="#000000" stroke-width="0.398" fill="none" /><path id="145" transform="matrix(1 0 0 -1 0 595)" d="M618.0969 476.165L618.0969 483.139" stroke="#000000" stroke-width="0.398" fill="none" /><path id="146" transform="matrix(1 0 0 -1 0 595)" d="M223.593 475.966L618.296 475.966" stroke="#000000" stroke-width="0.398" fill="none" /><path id="147" transform="matrix(1 0 0 -1 0 595)" d="M223.793 468.793L223.793 475.767" stroke="#000000" stroke-width="0.398" fill="none" /><path id="160" transform="matrix(1 0 0 -1 0 595)" d="M380.299 468.793L380.299 475.767" stroke="#000000" stroke-width="0.398" fill="none" /><path id="171" transform="matrix(1 0 0 -1 0 595)" d="M459.565 468.793L459.565 475.767" stroke="#000000" stroke-width="0.398" fill="none" /><path id="182" transform="matrix(1 0 0 -1 0 595)" d="M538.831 468.793L538.831 475.767" stroke="#000000" stroke-width="0.398" fill="none" /><path id="191" transform="matrix(1 0 0 -1 0 595)" d="M618.0969 468.793L618.0969 475.767" stroke="#000000" stroke-width="0.398" fill="none" /><path id="192" transform="matrix(1 0 0 -1 0 595)" d="M223.593 468.593L618.296 468.593" stroke="#000000" stroke-width="0.398" fill="none" /><path id="193" transform="matrix(1 0 0 -1 0 595)" d="M223.793 461.42L223.793 468.394" stroke="#000000" stroke-width="0.398" fill="none" /><path id="206" transform="matrix(1 0 0 -1 0 595)" d="M380.299 461.42L380.299 468.394" stroke="#000000" stroke-width="0.398" fill="none" /><path id="220" transform="matrix(1 0 0 -1 0 595)" d="M459.565 461.42L459.565 468.394" stroke="#000000" stroke-width="0.398" fill="none" /><path id="234" transform="matrix(1 0 0 -1 0 595)" d="M538.831 461.42L538.831 468.394" stroke="#000000" stroke-width="0.398" fill="none" /><path id="248" transform="matrix(1 0 0 -1 0 595)" d="M618.0969 461.42L618.0969 468.394" stroke="#000000" stroke-width="0.398" fill="none" /><path id="249" transform="matrix(1 0 0 -1 0 595)" d="M223.593 461.221L618.296 461.221" stroke="#000000" stroke-width="0.398" fill="none" /><path id="250" transform="matrix(1 0 0 -1 0 595)" d="M223.793 454.048L223.793 461.022" stroke="#000000" stroke-width="0.398" fill="none" /><path id="251" transform="matrix(1 0 0 -1 0 595)" d="M223.992 454.048L380.1 454.048L380.1 461.022L223.992 461.022z" stroke="none" fill="#CBCEFB" fill-rule="nonzero" /><path id="261" transform="matrix(1 0 0 -1 0 595)" d="M380.299 454.048L380.299 461.022" stroke="#000000" stroke-width="0.398" fill="none" /><path id="262" transform="matrix(1 0 0 -1 0 595)" d="M380.498 454.048L459.366 454.048L459.366 461.022L380.498 461.022z" stroke="none" fill="#CBCEFB" fill-rule="nonzero" /><path id="266" transform="matrix(1 0 0 -1 0 595)" d="M459.565 454.048L459.565 461.022" stroke="#000000" stroke-width="0.398" fill="none" /><path id="267" transform="matrix(1 0 0 -1 0 595)" d="M459.764 454.048L538.632 454.048L538.632 461.022L459.764 461.022z" stroke="none" fill="#CBCEFB" fill-rule="nonzero" /><path id="274" transform="matrix(1 0 0 -1 0 595)" d="M538.831 454.048L538.831 461.022" stroke="#000000" stroke-width="0.398" fill="none" /><path id="275" transform="matrix(1 0 0 -1 0 595)" d="M539.03 454.048L617.8979 454.048L617.8979 461.022L539.03 461.022z" stroke="none" fill="#CBCEFB" fill-rule="nonzero" /><path id="281" transform="matrix(1 0 0 -1 0 595)" d="M618.0969 454.048L618.0969 461.022" stroke="#000000" stroke-width="0.398" fill="none" /><path id="282" transform="matrix(1 0 0 -1 0 595)" d="M223.593 453.849L618.296 453.849" stroke="#000000" stroke-width="0.398" fill="none" /><path id="283" transform="matrix(1 0 0 -1 0 595)" d="M223.793 446.676L223.793 453.65" stroke="#000000" stroke-width="0.398" fill="none" /><path id="284" transform="matrix(1 0 0 -1 0 595)" d="M380.299 446.676L380.299 453.65" stroke="#000000" stroke-width="0.398" fill="none" /><path id="308" transform="matrix(1 0 0 -1 0 595)" d="M459.565 446.676L459.565 453.65" stroke="#000000" stroke-width="0.398" fill="none" /><path id="332" transform="matrix(1 0 0 -1 0 595)" d="M538.831 446.676L538.831 453.65" stroke="#000000" stroke-width="0.398" fill="none" /><path id="356" transform="matrix(1 0 0 -1 0 595)" d="M618.0969 446.676L618.0969 453.65" stroke="#000000" stroke-width="0.398" fill="none" /><path id="357" transform="matrix(1 0 0 -1 0 595)" d="M223.593 446.476L618.296 446.476" stroke="#000000" stroke-width="0.398" fill="none" /><path id="358" transform="matrix(1 0 0 -1 0 595)" d="M223.793 439.303L223.793 446.277" stroke="#000000" stroke-width="0.398" fill="none" /><path id="368" transform="matrix(1 0 0 -1 0 595)" d="M380.299 439.303L380.299 446.277" stroke="#000000" stroke-width="0.398" fill="none" /><path id="419" transform="matrix(1 0 0 -1 0 595)" d="M618.0969 439.303L618.0969 446.277" stroke="#000000" stroke-width="0.398" fill="none" /><path id="420" transform="matrix(1 0 0 -1 0 595)" d="M223.593 439.104L618.296 439.104" stroke="#000000" stroke-width="0.398" fill="none" /><path id="421" transform="matrix(1 0 0 -1 0 595)" d="M223.793 431.931L223.793 438.905" stroke="#000000" stroke-width="0.398" fill="none" /><path id="438" transform="matrix(1 0 0 -1 0 595)" d="M380.299 431.931L380.299 438.905" stroke="#000000" stroke-width="0.398" fill="none" /><path id="444" transform="matrix(1 0 0 -1 0 595)" d="M459.565 431.931L459.565 438.905" stroke="#000000" stroke-width="0.398" fill="none" /><path id="450" transform="matrix(1 0 0 -1 0 595)" d="M538.831 431.931L538.831 438.905" stroke="#000000" stroke-width="0.398" fill="none" /><path id="451" transform="matrix(1 0 0 -1 0 595)" d="M618.0969 431.931L618.0969 438.905" stroke="#000000" stroke-width="0.398" fill="none" /><path id="452" transform="matrix(1 0 0 -1 0 595)" d="M223.593 431.732L618.296 431.732" stroke="#000000" stroke-width="0.398" fill="none" /><path id="453" transform="matrix(1 0 0 -1 0 595)" d="M223.793 424.559L223.793 431.533" stroke="#000000" stroke-width="0.398" fill="none" /><path id="454" transform="matrix(1 0 0 -1 0 595)" d="M380.299 424.559L380.299 431.533" stroke="#000000" stroke-width="0.398" fill="none" /><path id="478" transform="matrix(1 0 0 -1 0 595)" d="M459.565 424.559L459.565 431.533" stroke="#000000" stroke-width="0.398" fill="none" /><path id="502" transform="matrix(1 0 0 -1 0 595)" d="M538.831 424.559L538.831 431.533" stroke="#000000" stroke-width="0.398" fill="none" /><path id="526" transform="matrix(1 0 0 -1 0 595)" d="M618.0969 424.559L618.0969 431.533" stroke="#000000" stroke-width="0.398" fill="none" /><path id="527" transform="matrix(1 0 0 -1 0 595)" d="M380.498 424.359L618.296 424.359" stroke="#000000" stroke-width="0.398" fill="none" /><path id="528" transform="matrix(1 0 0 -1 0 595)" d="M223.793 417.585L223.793 424.559" stroke="#000000" stroke-width="0.398" fill="none" /><path id="565" transform="matrix(1 0 0 -1 0 595)" d="M380.299 417.585L380.299 424.559" stroke="#000000" stroke-width="0.398" fill="none" /><path id="616" transform="matrix(1 0 0 -1 0 595)" d="M618.0969 417.585L618.0969 424.559" stroke="#000000" stroke-width="0.398" fill="none" /><path id="617" transform="matrix(1 0 0 -1 0 595)" d="M223.593 417.385L618.296 417.385" stroke="#000000" stroke-width="0.398" fill="none" /><path id="618" transform="matrix(1 0 0 -1 0 595)" d="M223.793 410.212L223.793 417.186" stroke="#000000" stroke-width="0.398" fill="none" /><path id="646" transform="matrix(1 0 0 -1 0 595)" d="M380.299 410.212L380.299 417.186" stroke="#000000" stroke-width="0.398" fill="none" /><path id="654" transform="matrix(1 0 0 -1 0 595)" d="M459.565 410.212L459.565 417.186" stroke="#000000" stroke-width="0.398" fill="none" /><path id="662" transform="matrix(1 0 0 -1 0 595)" d="M538.831 410.212L538.831 417.186" stroke="#000000" stroke-width="0.398" fill="none" /><path id="670" transform="matrix(1 0 0 -1 0 595)" d="M618.0969 410.212L618.0969 417.186" stroke="#000000" stroke-width="0.398" fill="none" /><path id="671" transform="matrix(1 0 0 -1 0 595)" d="M223.593 410.013L618.296 410.013" stroke="#000000" stroke-width="0.398" fill="none" /><path id="672" transform="matrix(1 0 0 -1 0 595)" d="M223.793 402.84L223.793 409.814" stroke="#000000" stroke-width="0.398" fill="none" /><path id="696" transform="matrix(1 0 0 -1 0 595)" d="M380.299 402.84L380.299 409.814" stroke="#000000" stroke-width="0.398" fill="none" /><path id="705" transform="matrix(1 0 0 -1 0 595)" d="M459.565 402.84L459.565 409.814" stroke="#000000" stroke-width="0.398" fill="none" /><path id="714" transform="matrix(1 0 0 -1 0 595)" d="M538.831 402.84L538.831 409.814" stroke="#000000" stroke-width="0.398" fill="none" /><path id="715" transform="matrix(1 0 0 -1 0 595)" d="M618.0969 402.84L618.0969 409.814" stroke="#000000" stroke-width="0.398" fill="none" /><path id="716" transform="matrix(1 0 0 -1 0 595)" d="M223.593 402.641L618.296 402.641" stroke="#000000" stroke-width="0.398" fill="none" /><path id="717" transform="matrix(1 0 0 -1 0 595)" d="M223.793 395.468L223.793 402.442" stroke="#000000" stroke-width="0.398" fill="none" /><path id="718" transform="matrix(1 0 0 -1 0 595)" d="M223.992 395.468L380.1 395.468L380.1 402.442L223.992 402.442z" stroke="none" fill="#CBCEFB" fill-rule="nonzero" /><path id="754" transform="matrix(1 0 0 -1 0 595)" d="M380.299 395.468L380.299 402.442" stroke="#000000" stroke-width="0.398" fill="none" /><path id="755" transform="matrix(1 0 0 -1 0 595)" d="M380.498 395.468L459.366 395.468L459.366 402.442L380.498 402.442z" stroke="none" fill="#CBCEFB" fill-rule="nonzero" /><path id="759" transform="matrix(1 0 0 -1 0 595)" d="M459.565 395.468L459.565 402.442" stroke="#000000" stroke-width="0.398" fill="none" /><path id="760" transform="matrix(1 0 0 -1 0 595)" d="M459.764 395.468L538.632 395.468L538.632 402.442L459.764 402.442z" stroke="none" fill="#CBCEFB" fill-rule="nonzero" /><path id="767" transform="matrix(1 0 0 -1 0 595)" d="M538.831 395.468L538.831 402.442" stroke="#000000" stroke-width="0.398" fill="none" /><path id="768" transform="matrix(1 0 0 -1 0 595)" d="M539.03 395.468L617.8979 395.468L617.8979 402.442L539.03 402.442z" stroke="none" fill="#CBCEFB" fill-rule="nonzero" /><path id="774" transform="matrix(1 0 0 -1 0 595)" d="M618.0969 395.468L618.0969 402.442" stroke="#000000" stroke-width="0.398" fill="none" /><path id="775" transform="matrix(1 0 0 -1 0 595)" d="M223.593 395.268L618.296 395.268" stroke="#000000" stroke-width="0.398" fill="none" /><path id="776" transform="matrix(1 0 0 -1 0 595)" d="M223.793 388.095L223.793 395.069" stroke="#000000" stroke-width="0.398" fill="none" /><path id="777" transform="matrix(1 0 0 -1 0 595)" d="M329.754 388.095L329.754 395.069" stroke="#000000" stroke-width="0.398" fill="none" /><path id="785" transform="matrix(1 0 0 -1 0 595)" d="M380.299 388.095L380.299 395.069" stroke="#000000" stroke-width="0.398" fill="none" /><path id="794" transform="matrix(1 0 0 -1 0 595)" d="M459.565 388.095L459.565 395.069" stroke="#000000" stroke-width="0.398" fill="none" /><path id="803" transform="matrix(1 0 0 -1 0 595)" d="M538.831 388.095L538.831 395.069" stroke="#000000" stroke-width="0.398" fill="none" /><path id="812" transform="matrix(1 0 0 -1 0 595)" d="M618.0969 388.095L618.0969 395.069" stroke="#000000" stroke-width="0.398" fill="none" /><path id="813" transform="matrix(1 0 0 -1 0 595)" d="M329.954 387.896L618.297 387.896" stroke="#000000" stroke-width="0.398" fill="none" /><path id="814" transform="matrix(1 0 0 -1 0 595)" d="M223.793 381.121L223.793 388.095" stroke="#000000" stroke-width="0.398" fill="none" /><path id="815" transform="matrix(1 0 0 -1 0 595)" d="M329.754 381.121L329.754 388.095" stroke="#000000" stroke-width="0.398" fill="none" /><path id="828" transform="matrix(1 0 0 -1 0 595)" d="M380.299 381.121L380.299 388.095" stroke="#000000" stroke-width="0.398" fill="none" /><path id="838" transform="matrix(1 0 0 -1 0 595)" d="M459.565 381.121L459.565 388.095" stroke="#000000" stroke-width="0.398" fill="none" /><path id="848" transform="matrix(1 0 0 -1 0 595)" d="M538.831 381.121L538.831 388.095" stroke="#000000" stroke-width="0.398" fill="none" /><path id="858" transform="matrix(1 0 0 -1 0 595)" d="M618.0969 381.121L618.0969 388.095" stroke="#000000" stroke-width="0.398" fill="none" /><path id="859" transform="matrix(1 0 0 -1 0 595)" d="M329.954 380.922L618.297 380.922" stroke="#000000" stroke-width="0.398" fill="none" /><path id="860" transform="matrix(1 0 0 -1 0 595)" d="M223.793 374.148L223.793 381.122" stroke="#000000" stroke-width="0.398" fill="none" /><path id="892" transform="matrix(1 0 0 -1 0 595)" d="M329.754 374.148L329.754 381.122" stroke="#000000" stroke-width="0.398" fill="none" /><path id="902" transform="matrix(1 0 0 -1 0 595)" d="M380.299 374.148L380.299 381.122" stroke="#000000" stroke-width="0.398" fill="none" /><path id="912" transform="matrix(1 0 0 -1 0 595)" d="M459.565 374.148L459.565 381.122" stroke="#000000" stroke-width="0.398" fill="none" /><path id="922" transform="matrix(1 0 0 -1 0 595)" d="M538.831 374.148L538.831 381.122" stroke="#000000" stroke-width="0.398" fill="none" /><path id="932" transform="matrix(1 0 0 -1 0 595)" d="M618.0969 374.148L618.0969 381.122" stroke="#000000" stroke-width="0.398" fill="none" /><path id="933" transform="matrix(1 0 0 -1 0 595)" d="M223.593 373.948L618.296 373.948" stroke="#000000" stroke-width="0.398" fill="none" /><path id="934" transform="matrix(1 0 0 -1 0 595)" d="M223.793 366.775L223.793 373.749" stroke="#000000" stroke-width="0.398" fill="none" /><path id="951" transform="matrix(1 0 0 -1 0 595)" d="M380.299 366.775L380.299 373.749" stroke="#000000" stroke-width="0.398" fill="none" /><path id="960" transform="matrix(1 0 0 -1 0 595)" d="M459.565 366.775L459.565 373.749" stroke="#000000" stroke-width="0.398" fill="none" /><path id="969" transform="matrix(1 0 0 -1 0 595)" d="M538.831 366.775L538.831 373.749" stroke="#000000" stroke-width="0.398" fill="none" /><path id="970" transform="matrix(1 0 0 -1 0 595)" d="M618.0969 366.775L618.0969 373.749" stroke="#000000" stroke-width="0.398" fill="none" /><path id="971" transform="matrix(1 0 0 -1 0 595)" d="M223.593 366.576L618.296 366.576" stroke="#000000" stroke-width="0.398" fill="none" /><path id="972" transform="matrix(1 0 0 -1 0 595)" d="M223.793 359.403L223.793 366.377" stroke="#000000" stroke-width="0.398" fill="none" /><path id="997" transform="matrix(1 0 0 -1 0 595)" d="M380.299 359.403L380.299 366.377" stroke="#000000" stroke-width="0.398" fill="none" /><path id="1005" transform="matrix(1 0 0 -1 0 595)" d="M459.565 359.403L459.565 366.377" stroke="#000000" stroke-width="0.398" fill="none" /><path id="1013" transform="matrix(1 0 0 -1 0 595)" d="M538.831 359.403L538.831 366.377" stroke="#000000" stroke-width="0.398" fill="none" /><path id="1014" transform="matrix(1 0 0 -1 0 595)" d="M618.0969 359.403L618.0969 366.377" stroke="#000000" stroke-width="0.398" fill="none" /><path id="1015" transform="matrix(1 0 0 -1 0 595)" d="M223.593 359.204L618.296 359.204" stroke="#000000" stroke-width="0.398" fill="none" /><path id="1016" transform="matrix(1 0 0 -1 0 595)" d="M223.793 352.031L223.793 359.005" stroke="#000000" stroke-width="0.398" fill="none" /><path id="1017" transform="matrix(1 0 0 -1 0 595)" d="M223.992 352.031L380.1 352.031L380.1 359.005L223.992 359.005z" stroke="none" fill="#CBCEFB" fill-rule="nonzero" /><path id="1036" transform="matrix(1 0 0 -1 0 595)" d="M380.299 352.031L380.299 359.005" stroke="#000000" stroke-width="0.398" fill="none" /><path id="1037" transform="matrix(1 0 0 -1 0 595)" d="M380.498 352.031L459.366 352.031L459.366 359.005L380.498 359.005z" stroke="none" fill="#CBCEFB" fill-rule="nonzero" /><path id="1041" transform="matrix(1 0 0 -1 0 595)" d="M459.565 352.031L459.565 359.005" stroke="#000000" stroke-width="0.398" fill="none" /><path id="1042" transform="matrix(1 0 0 -1 0 595)" d="M459.764 352.031L538.632 352.031L538.632 359.005L459.764 359.005z" stroke="none" fill="#CBCEFB" fill-rule="nonzero" /><path id="1049" transform="matrix(1 0 0 -1 0 595)" d="M538.831 352.031L538.831 359.005" stroke="#000000" stroke-width="0.398" fill="none" /><path id="1050" transform="matrix(1 0 0 -1 0 595)" d="M539.03 352.031L617.8979 352.031L617.8979 359.005L539.03 359.005z" stroke="none" fill="#CBCEFB" fill-rule="nonzero" /><path id="1056" transform="matrix(1 0 0 -1 0 595)" d="M618.0969 352.031L618.0969 359.005" stroke="#000000" stroke-width="0.398" fill="none" /><path id="1057" transform="matrix(1 0 0 -1 0 595)" d="M223.593 351.831L618.296 351.831" stroke="#000000" stroke-width="0.398" fill="none" /><path id="1058" transform="matrix(1 0 0 -1 0 595)" d="M223.793 344.658L223.793 351.632" stroke="#000000" stroke-width="0.398" fill="none" /><path id="1069" transform="matrix(1 0 0 -1 0 595)" d="M380.299 344.658L380.299 351.632" stroke="#000000" stroke-width="0.398" fill="none" /><path id="1078" transform="matrix(1 0 0 -1 0 595)" d="M459.565 344.658L459.565 351.632" stroke="#000000" stroke-width="0.398" fill="none" /><path id="1087" transform="matrix(1 0 0 -1 0 595)" d="M538.831 344.658L538.831 351.632" stroke="#000000" stroke-width="0.398" fill="none" /><path id="1088" transform="matrix(1 0 0 -1 0 595)" d="M618.0969 344.658L618.0969 351.632" stroke="#000000" stroke-width="0.398" fill="none" /><path id="1089" transform="matrix(1 0 0 -1 0 595)" d="M223.593 344.459L618.296 344.459" stroke="#000000" stroke-width="0.398" fill="none" /><path id="1090" transform="matrix(1 0 0 -1 0 595)" d="M223.793 337.286L223.793 344.26" stroke="#000000" stroke-width="0.398" fill="none" /><path id="1098" transform="matrix(1 0 0 -1 0 595)" d="M380.299 337.286L380.299 344.26" stroke="#000000" stroke-width="0.398" fill="none" /><path id="1107" transform="matrix(1 0 0 -1 0 595)" d="M459.565 337.286L459.565 344.26" stroke="#000000" stroke-width="0.398" fill="none" /><path id="1116" transform="matrix(1 0 0 -1 0 595)" d="M538.831 337.286L538.831 344.26" stroke="#000000" stroke-width="0.398" fill="none" /><path id="1117" transform="matrix(1 0 0 -1 0 595)" d="M618.0969 337.286L618.0969 344.26" stroke="#000000" stroke-width="0.398" fill="none" /><path id="1118" transform="matrix(1 0 0 -1 0 595)" d="M223.593 337.087L618.296 337.087" stroke="#000000" stroke-width="0.398" fill="none" /><path id="1119" transform="matrix(1 0 0 -1 0 595)" d="M223.793 329.914L223.793 336.888" stroke="#000000" stroke-width="0.398" fill="none" /><path id="1128" transform="matrix(1 0 0 -1 0 595)" d="M380.299 329.914L380.299 336.888" stroke="#000000" stroke-width="0.398" fill="none" /><path id="1142" transform="matrix(1 0 0 -1 0 595)" d="M459.565 329.914L459.565 336.888" stroke="#000000" stroke-width="0.398" fill="none" /><path id="1156" transform="matrix(1 0 0 -1 0 595)" d="M538.831 329.914L538.831 336.888" stroke="#000000" stroke-width="0.398" fill="none" /><path id="1157" transform="matrix(1 0 0 -1 0 595)" d="M618.0969 329.914L618.0969 336.888" stroke="#000000" stroke-width="0.398" fill="none" /><path id="1158" transform="matrix(1 0 0 -1 0 595)" d="M223.593 329.714L618.296 329.714" stroke="#000000" stroke-width="0.398" fill="none" /><path id="1159" transform="matrix(1 0 0 -1 0 595)" d="M223.793 322.541L223.793 329.515" stroke="#000000" stroke-width="0.398" fill="none" /><path id="1174" transform="matrix(1 0 0 -1 0 595)" d="M380.299 322.541L380.299 329.515" stroke="#000000" stroke-width="0.398" fill="none" /><path id="1188" transform="matrix(1 0 0 -1 0 595)" d="M459.565 322.541L459.565 329.515" stroke="#000000" stroke-width="0.398" fill="none" /><path id="1202" transform="matrix(1 0 0 -1 0 595)" d="M538.831 322.541L538.831 329.515" stroke="#000000" stroke-width="0.398" fill="none" /><path id="1203" transform="matrix(1 0 0 -1 0 595)" d="M618.0969 322.541L618.0969 329.515" stroke="#000000" stroke-width="0.398" fill="none" /><path id="1204" transform="matrix(1 0 0 -1 0 595)" d="M223.593 322.342L618.296 322.342" stroke="#000000" stroke-width="0.398" fill="none" /><path id="1205" transform="matrix(1 0 0 -1 0 595)" d="M223.793 315.169L223.793 322.143" stroke="#000000" stroke-width="0.398" fill="none" /><path id="1206" transform="matrix(1 0 0 -1 0 595)" d="M223.992 315.169L380.1 315.169L380.1 322.143L223.992 322.143z" stroke="none" fill="#CBCEFB" fill-rule="nonzero" /><path id="1223" transform="matrix(1 0 0 -1 0 595)" d="M380.299 315.169L380.299 322.143" stroke="#000000" stroke-width="0.398" fill="none" /><path id="1224" transform="matrix(1 0 0 -1 0 595)" d="M380.498 315.169L459.366 315.169L459.366 322.143L380.498 322.143z" stroke="none" fill="#CBCEFB" fill-rule="nonzero" /><path id="1228" transform="matrix(1 0 0 -1 0 595)" d="M459.565 315.169L459.565 322.143" stroke="#000000" stroke-width="0.398" fill="none" /><path id="1229" transform="matrix(1 0 0 -1 0 595)" d="M459.764 315.169L538.632 315.169L538.632 322.143L459.764 322.143z" stroke="none" fill="#CBCEFB" fill-rule="nonzero" /><path id="1236" transform="matrix(1 0 0 -1 0 595)" d="M538.831 315.169L538.831 322.143" stroke="#000000" stroke-width="0.398" fill="none" /><path id="1237" transform="matrix(1 0 0 -1 0 595)" d="M539.03 315.169L617.8979 315.169L617.8979 322.143L539.03 322.143z" stroke="none" fill="#CBCEFB" fill-rule="nonzero" /><path id="1243" transform="matrix(1 0 0 -1 0 595)" d="M618.0969 315.169L618.0969 322.143" stroke="#000000" stroke-width="0.398" fill="none" /><path id="1244" transform="matrix(1 0 0 -1 0 595)" d="M223.593 314.97L618.296 314.97" stroke="#000000" stroke-width="0.398" fill="none" /><path id="1245" transform="matrix(1 0 0 -1 0 595)" d="M223.793 307.797L223.793 314.771" stroke="#000000" stroke-width="0.398" fill="none" /><path id="1278" transform="matrix(1 0 0 -1 0 595)" d="M380.299 307.797L380.299 314.771" stroke="#000000" stroke-width="0.398" fill="none" /><path id="1289" transform="matrix(1 0 0 -1 0 595)" d="M459.565 307.797L459.565 314.771" stroke="#000000" stroke-width="0.398" fill="none" /><path id="1300" transform="matrix(1 0 0 -1 0 595)" d="M538.831 307.797L538.831 314.771" stroke="#000000" stroke-width="0.398" fill="none" /><path id="1301" transform="matrix(1 0 0 -1 0 595)" d="M618.0969 307.797L618.0969 314.771" stroke="#000000" stroke-width="0.398" fill="none" /><path id="1302" transform="matrix(1 0 0 -1 0 595)" d="M223.593 307.597L618.296 307.597" stroke="#000000" stroke-width="0.398" fill="none" /><path id="1303" transform="matrix(1 0 0 -1 0 595)" d="M223.793 300.424L223.793 307.398" stroke="#000000" stroke-width="0.398" fill="none" /><path id="1304" transform="matrix(1 0 0 -1 0 595)" d="M380.299 300.424L380.299 307.398" stroke="#000000" stroke-width="0.398" fill="none" /><path id="1314" transform="matrix(1 0 0 -1 0 595)" d="M459.565 300.424L459.565 307.398" stroke="#000000" stroke-width="0.398" fill="none" /><path id="1324" transform="matrix(1 0 0 -1 0 595)" d="M538.831 300.424L538.831 307.398" stroke="#000000" stroke-width="0.398" fill="none" /><path id="1325" transform="matrix(1 0 0 -1 0 595)" d="M618.0969 300.424L618.0969 307.398" stroke="#000000" stroke-width="0.398" fill="none" /><path id="1326" transform="matrix(1 0 0 -1 0 595)" d="M380.498 300.225L618.296 300.225" stroke="#000000" stroke-width="0.398" fill="none" /><path id="1327" transform="matrix(1 0 0 -1 0 595)" d="M223.793 293.45L223.793 300.424" stroke="#000000" stroke-width="0.398" fill="none" /><path id="1358" transform="matrix(1 0 0 -1 0 595)" d="M380.299 293.45L380.299 300.424" stroke="#000000" stroke-width="0.398" fill="none" /><path id="1367" transform="matrix(1 0 0 -1 0 595)" d="M459.565 293.45L459.565 300.424" stroke="#000000" stroke-width="0.398" fill="none" /><path id="1376" transform="matrix(1 0 0 -1 0 595)" d="M538.831 293.45L538.831 300.424" stroke="#000000" stroke-width="0.398" fill="none" /><path id="1377" transform="matrix(1 0 0 -1 0 595)" d="M618.0969 293.45L618.0969 300.424" stroke="#000000" stroke-width="0.398" fill="none" /><path id="1378" transform="matrix(1 0 0 -1 0 595)" d="M223.593 293.251L618.296 293.251" stroke="#000000" stroke-width="0.398" fill="none" /><path id="1379" transform="matrix(1 0 0 -1 0 595)" d="M223.793 286.078L223.793 293.052" stroke="#000000" stroke-width="0.398" fill="none" /><path id="1380" transform="matrix(1 0 0 -1 0 595)" d="M223.992 286.078L380.1 286.078L380.1 293.052L223.992 293.052z" stroke="none" fill="#CBCEFB" fill-rule="nonzero" /><path id="1394" transform="matrix(1 0 0 -1 0 595)" d="M380.299 286.078L380.299 293.052" stroke="#000000" stroke-width="0.398" fill="none" /><path id="1395" transform="matrix(1 0 0 -1 0 595)" d="M380.498 286.078L459.366 286.078L459.366 293.052L380.498 293.052z" stroke="none" fill="#CBCEFB" fill-rule="nonzero" /><path id="1399" transform="matrix(1 0 0 -1 0 595)" d="M459.565 286.078L459.565 293.052" stroke="#000000" stroke-width="0.398" fill="none" /><path id="1400" transform="matrix(1 0 0 -1 0 595)" d="M459.764 286.078L538.632 286.078L538.632 293.052L459.764 293.052z" stroke="none" fill="#CBCEFB" fill-rule="nonzero" /><path id="1407" transform="matrix(1 0 0 -1 0 595)" d="M538.831 286.078L538.831 293.052" stroke="#000000" stroke-width="0.398" fill="none" /><path id="1408" transform="matrix(1 0 0 -1 0 595)" d="M539.03 286.078L617.8979 286.078L617.8979 293.052L539.03 293.052z" stroke="none" fill="#CBCEFB" fill-rule="nonzero" /><path id="1414" transform="matrix(1 0 0 -1 0 595)" d="M618.0969 286.078L618.0969 293.052" stroke="#000000" stroke-width="0.398" fill="none" /><path id="1415" transform="matrix(1 0 0 -1 0 595)" d="M223.593 285.879L618.296 285.879" stroke="#000000" stroke-width="0.398" fill="none" /><path id="1416" transform="matrix(1 0 0 -1 0 595)" d="M223.793 278.706L223.793 285.68" stroke="#000000" stroke-width="0.398" fill="none" /><path id="1440" transform="matrix(1 0 0 -1 0 595)" d="M380.299 278.706L380.299 285.68" stroke="#000000" stroke-width="0.398" fill="none" /><path id="1450" transform="matrix(1 0 0 -1 0 595)" d="M459.565 278.706L459.565 285.68" stroke="#000000" stroke-width="0.398" fill="none" /><path id="1451" transform="matrix(1 0 0 -1 0 595)" d="M538.831 278.706L538.831 285.68" stroke="#000000" stroke-width="0.398" fill="none" /><path id="1452" transform="matrix(1 0 0 -1 0 595)" d="M618.0969 278.706L618.0969 285.68" stroke="#000000" stroke-width="0.398" fill="none" /><path id="1453" transform="matrix(1 0 0 -1 0 595)" d="M223.593 278.506L618.296 278.506" stroke="#000000" stroke-width="0.398" fill="none" /><path id="1454" transform="matrix(1 0 0 -1 0 595)" d="M223.793 271.333L223.793 278.307" stroke="#000000" stroke-width="0.398" fill="none" /><path id="1482" transform="matrix(1 0 0 -1 0 595)" d="M380.299 271.333L380.299 278.307" stroke="#000000" stroke-width="0.398" fill="none" /><path id="1492" transform="matrix(1 0 0 -1 0 595)" d="M459.565 271.333L459.565 278.307" stroke="#000000" stroke-width="0.398" fill="none" /><path id="1493" transform="matrix(1 0 0 -1 0 595)" d="M538.831 271.333L538.831 278.307" stroke="#000000" stroke-width="0.398" fill="none" /><path id="1494" transform="matrix(1 0 0 -1 0 595)" d="M618.0969 271.333L618.0969 278.307" stroke="#000000" stroke-width="0.398" fill="none" /><path id="1495" transform="matrix(1 0 0 -1 0 595)" d="M223.593 271.134L618.296 271.134" stroke="#000000" stroke-width="0.398" fill="none" /><path id="1496" transform="matrix(1 0 0 -1 0 595)" d="M223.793 263.961L223.793 270.935" stroke="#000000" stroke-width="0.398" fill="none" /><path id="1570" transform="matrix(1 0 0 -1 0 595)" d="M618.0969 263.961L618.0969 270.935" stroke="#000000" stroke-width="0.398" fill="none" /><path id="1571" transform="matrix(1 0 0 -1 0 595)" d="M223.593 263.762L618.296 263.762" stroke="#000000" stroke-width="0.398" fill="none" /><path id="1572" transform="matrix(1 0 0 -1 0 595)" d="M223.793 256.589L223.793 263.563" stroke="#000000" stroke-width="0.398" fill="none" /><path id="1672" transform="matrix(1 0 0 -1 0 595)" d="M618.0969 256.589L618.0969 263.563" stroke="#000000" stroke-width="0.398" fill="none" /><path id="1673" transform="matrix(1 0 0 -1 0 595)" d="M223.593 256.389L618.296 256.389" stroke="#000000" stroke-width="0.398" fill="none" /><path id="1674" transform="matrix(1 0 0 -1 0 595)" d="M223.793 249.216L223.793 256.19" stroke="#000000" stroke-width="0.398" fill="none" /><path id="1701" transform="matrix(1 0 0 -1 0 595)" d="M618.0969 249.216L618.0969 256.19" stroke="#000000" stroke-width="0.398" fill="none" /><path id="1702" transform="matrix(1 0 0 -1 0 595)" d="M223.593 249.017L618.296 249.017" stroke="#000000" stroke-width="0.398" fill="none" /></g></g></svg>