<svg id="Layer_1" data-name="Layer 1" xmlns="http://www.w3.org/2000/svg" viewBox="0 0 756.26 210.9"><rect width="756.26" height="210.9" fill="none"/><path d="M341.18,290.44a122,122,0,0,1,27.44,25.79c-14.72-1.3-53.37-6.86-63.71-51-3.49,7.4-5.76,15.12-5.76,23.3a43.18,43.18,0,0,0,73.93,30.32l7.17,3.71S363.51,300,341.18,290.44" transform="translate(0 -183.49)" fill="#8bc53f"/><path d="M377.76,313.25a43,43,0,0,0,7.76-24.7c0-30.34-37.69-59.13-43.18-87.21-4,20.5-25.18,39.75-36.32,61.64,9.28,0,56.25,2.56,71.74,50.27" transform="translate(0 -183.49)" fill="#00adee"/><path d="M380.25,322.58" transform="translate(0 -183.49)" fill="#00adee"/><path d="M144.72,222.93c10.93,12.26,16.29,27,16.29,45.6a65.37,65.37,0,0,1-65.33,65.71C58.32,334.24,29,305.31,29,268.53c0-37.94,29.12-67.06,67.06-67.06a65.27,65.27,0,0,1,48.66,21.46m-88.9,45.21c0,23.76,17.06,42,39.28,42,22,0,39.28-18.2,39.28-41.38,0-24.72-16.48-42.92-39.09-42.92s-39.47,18-39.47,42.34" transform="translate(0 -183.49)" fill="#faaf40"/><path d="M279.22,314.89c-14.75,13.8-28.55,19.35-47.51,19.35s-34.49-6.51-45.8-19.16C175,303,168.67,285.77,168.67,268.14c0-38.89,26.44-66.67,63.42-66.67,19.73,0,33.14,5.56,48.28,20.3L263.32,239c-10.35-9.39-19.16-13.22-29.89-13.22C211,225.8,195.3,243,195.3,267.57s16.48,42.34,39.47,42.34c11.69,0,20.69-4,28.55-13Z" transform="translate(0 -183.49)" fill="#faaf40"/><path d="M430.25,294.39v1.73c0,8.62,7.49,14.94,17.48,14.94,9.6,0,16.91-5.94,16.91-13.6a12.71,12.71,0,0,0-5.19-10.16c-3.27-2.49-5.57-3.45-15.56-7.08-28-10-38-20.51-38-40.05,0-23.18,17.09-38.7,42.26-38.7,25,0,41.1,14.56,43.21,39.08H464.82c-.95-10.72-6.33-15.9-16.7-15.9-9.42,0-15.76,5.37-15.76,13.41,0,5.18,2.69,9.2,7.88,12.07,3.46,1.92,5.57,2.88,15,6.33,14,5.17,21.13,8.81,26.7,14.17,6.72,6.33,10.18,14.95,10.18,24.72,0,23.38-17.67,38.89-44.17,38.89-26.9,0-43.41-15.32-43.22-39.85Z" transform="translate(0 -183.49)" fill="#1b75bb"/><path d="M528,309.72l-7.68,22H492.48L536.66,204H569.5l43.8,127.79H584.49l-7.3-22Zm24.59-74.34-17.86,52.88h35.53Z" transform="translate(0 -183.49)" fill="#1b75bb"/><polygon points="647.48 148.26 621.16 148.26 621.16 20.46 647.09 20.46 700.69 100.17 700.69 20.46 727 20.46 727 148.26 701.26 148.26 647.48 67.4 647.48 148.26" fill="#1b75bb"/><path d="M29.72,363.24q0-6.12,3.3-9.71a11.54,11.54,0,0,1,8.91-3.59,11.55,11.55,0,0,1,8.93,3.6q3.33,3.6,3.33,9.7T50.86,373a11.55,11.55,0,0,1-8.93,3.6A11.51,11.51,0,0,1,33,373q-3.3-3.6-3.3-9.71m5.25,0a10.15,10.15,0,0,0,1.83,6.47A6.19,6.19,0,0,0,41.93,372a6.26,6.26,0,0,0,5.18-2.31,12.18,12.18,0,0,0,0-12.94,6.29,6.29,0,0,0-5.18-2.31,6.21,6.21,0,0,0-5.13,2.3A10.18,10.18,0,0,0,35,363.24" transform="translate(0 -183.49)" fill="#231f20"/><path d="M57.92,375.85V350.59H70.05q4.1,0,6.06,1.77c1.32,1.18,2,3,2,5.4a7.2,7.2,0,0,1-1,3.86,4.83,4.83,0,0,1-2.77,2.1,4.18,4.18,0,0,1,2.33,1.79,8.61,8.61,0,0,1,.79,3.73l.1,3v.1c0,1.51.35,2.42,1,2.74v.78H72.9a4.78,4.78,0,0,1-.41-1.32,11.58,11.58,0,0,1-.18-1.85L72.24,370a5,5,0,0,0-.87-3.18,3.94,3.94,0,0,0-2.85-.82H63.06v9.83Zm5.14-14.22h6a4.39,4.39,0,0,0,2.9-.8,3.2,3.2,0,0,0,.93-2.54,3.29,3.29,0,0,0-.91-2.5,3.8,3.8,0,0,0-2.68-.85H63.06Z" transform="translate(0 -183.49)" fill="#231f20"/><path d="M89.08,350.59h6l9,25.26h-5.4l-1.7-5.2h-9.7l-1.65,5.2H80.18Zm3,5.06L88.61,366.4h7Z" transform="translate(0 -183.49)" fill="#231f20"/><polygon points="106.64 192.35 106.64 167.09 112.02 167.09 122.18 184.45 122.18 167.09 127.27 167.09 127.27 192.35 121.95 192.35 111.72 175 111.72 192.35 106.64 192.35" fill="#231f20"/><path d="M150.1,372.86a9,9,0,0,1-3.17,2.8,9.29,9.29,0,0,1-4.18.89,10.82,10.82,0,0,1-8.5-3.68,14,14,0,0,1-3.25-9.66q0-6,3.24-9.65a11.06,11.06,0,0,1,8.65-3.62,12.32,12.32,0,0,1,7.68,2.27,9.19,9.19,0,0,1,3.54,6.25h-5.26a4.89,4.89,0,0,0-1.94-3,6.52,6.52,0,0,0-3.83-1,5.92,5.92,0,0,0-4.94,2.32,10.26,10.26,0,0,0-1.79,6.43,10,10,0,0,0,1.87,6.44,6.21,6.21,0,0,0,5.13,2.33,6,6,0,0,0,4.1-1.45,6.51,6.51,0,0,0,2-4h-5.67v-4.32h10.36v13.66h-3.45Z" transform="translate(0 -183.49)" fill="#231f20"/><polygon points="159.12 192.35 159.12 167.09 177.3 167.09 177.3 171.49 164.2 171.49 164.2 176.87 176.18 176.87 176.18 181.19 164.2 181.19 164.2 187.69 177.91 187.69 177.91 192.35 159.12 192.35" fill="#231f20"/><path d="M213.51,367.17a9.35,9.35,0,0,1-3.28,6.84,11.72,11.72,0,0,1-7.83,2.54c-3.7,0-6.59-1.17-8.64-3.5s-3.08-5.6-3.08-9.81,1-7.59,3.14-9.87,5.11-3.43,9-3.43a11.34,11.34,0,0,1,7.57,2.36,9.05,9.05,0,0,1,3,6.66H208.4a5,5,0,0,0-1.73-3.27,5.94,5.94,0,0,0-3.81-1.12,6.2,6.2,0,0,0-5.16,2.21q-1.77,2.22-1.77,6.46a10,10,0,0,0,1.76,6.36,6,6,0,0,0,5,2.25,5.9,5.9,0,0,0,3.84-1.21,5.67,5.67,0,0,0,1.94-3.47Z" transform="translate(0 -183.49)" fill="#231f20"/><path d="M216.54,363.24q0-6.12,3.31-9.71a12.86,12.86,0,0,1,17.84,0q3.31,3.6,3.32,9.7T237.69,373a12.85,12.85,0,0,1-17.84,0q-3.32-3.6-3.31-9.71m5.25,0a10.09,10.09,0,0,0,1.84,6.47,6.17,6.17,0,0,0,5.13,2.31,6.26,6.26,0,0,0,5.18-2.31,12.18,12.18,0,0,0,0-12.94,6.29,6.29,0,0,0-5.18-2.31,6.19,6.19,0,0,0-5.13,2.3,10.12,10.12,0,0,0-1.84,6.48" transform="translate(0 -183.49)" fill="#231f20"/><path d="M244.93,350.52h5.2v15.84a6.48,6.48,0,0,0,1.16,4.28A4.59,4.59,0,0,0,255,372a4.67,4.67,0,0,0,3.71-1.34,6.43,6.43,0,0,0,1.17-4.29V350.52H265v16.41c0,3.09-.86,5.48-2.58,7.13s-4.19,2.49-7.41,2.49-5.75-.83-7.47-2.48-2.6-4-2.6-7.14Z" transform="translate(0 -183.49)" fill="#231f20"/><polygon points="270.04 192.35 270.04 167.09 275.42 167.09 285.58 184.45 285.58 167.09 290.66 167.09 290.66 192.35 285.35 192.35 275.12 175 275.12 192.35 270.04 192.35" fill="#231f20"/><polygon points="301.01 192.35 301.01 171.6 293.58 171.6 293.58 167.09 313.54 167.09 313.54 171.6 306.16 171.6 306.16 192.35 301.01 192.35" fill="#231f20"/><polygon points="329.45 192.35 324.3 192.35 324.3 182.94 315.21 167.09 321.51 167.09 326.87 177.99 331.81 167.09 337.69 167.09 329.45 182.94 329.45 192.35" fill="#231f20"/><path d="M348.63,368h5.09a4.3,4.3,0,0,0,1.68,3.08,6.82,6.82,0,0,0,4,1,5.85,5.85,0,0,0,3.39-.8,2.72,2.72,0,0,0,1.13-2.38c0-1.54-2.17-2.8-6.54-3.81l-.15,0-.53-.12a16.16,16.16,0,0,1-5-1.73,5.65,5.65,0,0,1-2-2.3,7.91,7.91,0,0,1-.69-3.42,6.76,6.76,0,0,1,2.48-5.65q2.47-2,7.17-2a10.28,10.28,0,0,1,6.86,2.1,7.63,7.63,0,0,1,2.6,5.9h-4.94a3.69,3.69,0,0,0-1.39-2.8,5.83,5.83,0,0,0-3.59-1,5.18,5.18,0,0,0-3.12.8,2.62,2.62,0,0,0-1.09,2.27q0,2,4.26,3l1.8.43c1.83.47,3.12.83,3.89,1.09a12.45,12.45,0,0,1,2,.88,5.71,5.71,0,0,1,2.3,2.27,7,7,0,0,1,.76,3.39,7.5,7.5,0,0,1-2.63,6.11q-2.64,2.17-7.43,2.17a11.35,11.35,0,0,1-7.41-2.21,8.3,8.3,0,0,1-2.89-6.3" transform="translate(0 -183.49)" fill="#231f20"/><path d="M378.45,350.59h5.95l9,25.26H388l-1.7-5.2h-9.7l-1.65,5.2h-5.42Zm3,5.06L378,366.4h6.95Z" transform="translate(0 -183.49)" fill="#231f20"/><polygon points="396.01 192.35 396.01 167.09 401.39 167.09 411.56 184.45 411.56 167.09 416.64 167.09 416.64 192.35 411.32 192.35 401.09 175 401.09 192.35 396.01 192.35" fill="#231f20"/><rect x="421.98" y="167.1" width="5.15" height="25.26" fill="#231f20"/><polygon points="437.68 192.35 437.68 171.6 430.25 171.6 430.25 167.09 450.2 167.09 450.2 171.6 442.82 171.6 442.82 192.35 437.68 192.35" fill="#231f20"/><path d="M457.75,350.59h5.95l9,25.26h-5.41l-1.7-5.2h-9.7l-1.65,5.2h-5.42Zm3,5.06-3.47,10.75h7Z" transform="translate(0 -183.49)" fill="#231f20"/><polygon points="478.75 192.35 478.75 171.6 471.32 171.6 471.32 167.09 491.28 167.09 491.28 171.6 483.9 171.6 483.9 192.35 478.75 192.35" fill="#231f20"/><rect x="494.42" y="167.1" width="5.15" height="25.26" fill="#231f20"/><path d="M503.85,363.24q0-6.12,3.31-9.71a12.86,12.86,0,0,1,17.84,0q3.32,3.6,3.32,9.7T525,373a12.85,12.85,0,0,1-17.84,0q-3.3-3.6-3.31-9.71m5.25,0a10.09,10.09,0,0,0,1.84,6.47,6.17,6.17,0,0,0,5.13,2.31,6.26,6.26,0,0,0,5.18-2.31,12.18,12.18,0,0,0,0-12.94,6.29,6.29,0,0,0-5.18-2.31,6.19,6.19,0,0,0-5.13,2.3,10.12,10.12,0,0,0-1.84,6.48" transform="translate(0 -183.49)" fill="#231f20"/><polygon points="532.4 192.35 532.4 167.09 537.78 167.09 547.95 184.45 547.95 167.09 553.03 167.09 553.03 192.35 547.71 192.35 537.48 175 537.48 192.35 532.4 192.35" fill="#231f20"/><path d="M568.08,375.85V350.59h9.81q5.76,0,8.59,3.14t2.83,9.51a16.68,16.68,0,0,1-1,6.11,10.19,10.19,0,0,1-3,4.25,9.26,9.26,0,0,1-3.4,1.72,20.92,20.92,0,0,1-5.33.53Zm5-4.57h4.13q3.59,0,5.19-1.89c1.08-1.26,1.61-3.31,1.61-6.15s-.5-4.89-1.5-6.22a5.47,5.47,0,0,0-4.67-2h-4.76Z" transform="translate(0 -183.49)" fill="#231f20"/><rect x="593.56" y="167.1" width="5.15" height="25.26" fill="#231f20"/><path d="M602.92,368H608a4.27,4.27,0,0,0,1.69,3.08,6.82,6.82,0,0,0,4,1,5.8,5.8,0,0,0,3.38-.8,2.73,2.73,0,0,0,1.14-2.38c0-1.54-2.18-2.8-6.54-3.81l-.15,0L611,365a16.35,16.35,0,0,1-5-1.73,5.63,5.63,0,0,1-2-2.3,7.91,7.91,0,0,1-.69-3.42,6.76,6.76,0,0,1,2.48-5.65q2.47-2,7.17-2a10.28,10.28,0,0,1,6.86,2.1,7.7,7.7,0,0,1,2.6,5.9h-4.94a3.66,3.66,0,0,0-1.4-2.8,5.8,5.8,0,0,0-3.58-1,5.18,5.18,0,0,0-3.12.8,2.62,2.62,0,0,0-1.09,2.27q0,2,4.26,3l1.8.43c1.83.47,3.12.83,3.88,1.09a12.19,12.19,0,0,1,2,.88,5.71,5.71,0,0,1,2.3,2.27,7,7,0,0,1,.76,3.39,7.5,7.5,0,0,1-2.63,6.11q-2.64,2.17-7.43,2.17a11.35,11.35,0,0,1-7.41-2.21,8.3,8.3,0,0,1-2.89-6.3" transform="translate(0 -183.49)" fill="#231f20"/><polygon points="632.13 192.35 632.13 171.6 624.7 171.6 624.7 167.09 644.65 167.09 644.65 171.6 637.27 171.6 637.27 192.35 632.13 192.35" fill="#231f20"/><path d="M647.62,375.85V350.59h12.14q4.1,0,6.06,1.77c1.32,1.18,2,3,2,5.4a7.29,7.29,0,0,1-.95,3.86,4.9,4.9,0,0,1-2.77,2.1,4.12,4.12,0,0,1,2.32,1.79,8.47,8.47,0,0,1,.79,3.73l.1,3v.1c0,1.51.36,2.42,1,2.74v.78h-5.64a4.78,4.78,0,0,1-.41-1.32,12.74,12.74,0,0,1-.19-1.85L662,370a5,5,0,0,0-.88-3.18,3.9,3.9,0,0,0-2.84-.82h-5.46v9.83Zm5.15-14.22h6.05a4.39,4.39,0,0,0,2.9-.8,3.2,3.2,0,0,0,.92-2.54,3.28,3.28,0,0,0-.9-2.5,3.8,3.8,0,0,0-2.68-.85h-6.29Z" transform="translate(0 -183.49)" fill="#231f20"/><rect x="672.64" y="167.1" width="5.15" height="25.26" fill="#231f20"/><path d="M704.94,367.17a9.36,9.36,0,0,1-3.29,6.84,11.71,11.71,0,0,1-7.82,2.54q-5.57,0-8.64-3.5t-3.09-9.81c0-4.29,1-7.59,3.14-9.87s5.11-3.43,9-3.43a11.36,11.36,0,0,1,7.57,2.36,9.05,9.05,0,0,1,3,6.66h-5.08a5,5,0,0,0-1.74-3.27,5.93,5.93,0,0,0-3.8-1.12,6.24,6.24,0,0,0-5.17,2.21q-1.77,2.22-1.77,6.46a10.09,10.09,0,0,0,1.76,6.36,6,6,0,0,0,5,2.25,5.9,5.9,0,0,0,3.84-1.21,5.66,5.66,0,0,0,1.93-3.47Z" transform="translate(0 -183.49)" fill="#231f20"/><polygon points="714.24 192.35 714.24 171.6 706.81 171.6 706.81 167.09 726.76 167.09 726.76 171.6 719.39 171.6 719.39 192.35 714.24 192.35" fill="#231f20"/></svg>