<svg xmlns="http://www.w3.org/2000/svg" xmlns:xlink="http://www.w3.org/1999/xlink" id="body_344" preserveAspectRatio="xMinYMin meet" viewBox="0 0 793 1121"><defs><clipPath id="1"><path id="" clip-rule="evenodd" transform="matrix(1 0 0 1 0 0)" d="M0 841L0 -0.8900146L0 -0.8900146L595.276 -0.8900146L595.276 -0.8900146L595.276 841L595.276 841L0 841z" /></clipPath></defs><g transform="matrix(1.333333 0 0 1.333333 0 0)"><g clip-path="url(#1)"><path id="36" transform="matrix(1 0 0 -1 0 841)" d="M85.039 766.564L510.236 766.564" stroke="#000000" stroke-width="0.498" fill="none" /><path id="88" transform="matrix(1 0 0 -1 0 841)" d="M116.032 745.124L379.461 745.124" stroke="#000000" stroke-width="0.398" fill="none" /><path id="752" transform="matrix(1 0 0 -1 0 841)" d="M112.063 504.324L123.63 504.324L123.63 515.532L112.063 515.532z" stroke="none" fill="#FFF100" fill-rule="nonzero" /><path id="755" transform="matrix(1 0 0 -1 0 841)" d="M123.132 504.324L135.804 504.324L135.804 515.532L123.132 515.532z" stroke="none" fill="#FFF100" fill-rule="nonzero" /><path id="758" transform="matrix(1 0 0 -1 0 841)" d="M135.306 504.324L147.978 504.324L147.978 515.532L135.306 515.532z" stroke="none" fill="#FFF100" fill-rule="nonzero" /><path id="762" transform="matrix(1 0 0 -1 0 841)" d="M147.729 504.324L150.22 504.324L150.22 515.532L147.729 515.532z" stroke="none" fill="#FFF100" fill-rule="nonzero" /><path id="763" transform="matrix(1 0 0 -1 0 841)" d="M149.971 504.324L169.288 504.324L169.288 515.532L149.971 515.532z" stroke="none" fill="#FFF100" fill-rule="nonzero" /><path id="768" transform="matrix(1 0 0 -1 0 841)" d="M168.79 504.324L187.001 504.324L187.001 515.532L168.79 515.532z" stroke="none" fill="#FFF100" fill-rule="nonzero" /><path id="1113" transform="matrix(1 0 0 -1 0 841)" d="M160.292 388.553L185.199 388.553" stroke="#000000" stroke-width="0.398" fill="none" /><path id="1124" transform="matrix(1 0 0 -1 0 841)" d="M198.563 395.915L223.041 395.915" stroke="#000000" stroke-width="0.398" fill="none" /><path id="1125" transform="matrix(1 0 0 -1 0 841)" d="M198.762 382.719L198.762 395.914" stroke="#000000" stroke-width="0.398" fill="none" /><path id="1126" transform="matrix(1 0 0 -1 0 841)" d="M222.841 382.719L222.841 395.914" stroke="#000000" stroke-width="0.398" fill="none" /><path id="1127" transform="matrix(1 0 0 -1 0 841)" d="M198.563 382.719L223.041 382.719" stroke="#000000" stroke-width="0.398" fill="none" /><path id="1869" transform="matrix(1 0 0 -1 0 841)" d="M137.791 173.004L331.771 173.004" stroke="#000000" stroke-width="0.398" fill="none" /><path id="1885" transform="matrix(1 0 0 -1 0 841)" d="M361.835 173.004L374.009 173.004" stroke="#000000" stroke-width="0.398" fill="none" /><g transform="matrix(0.2 0 0 0.2 249.239 774.845)"><g transform="matrix(1 0 0 1 0 0)"><image x="0" y="0" xlink:href="img_04.png" width="484" height="104" /></g></g></g></g></svg>