<svg xmlns="http://www.w3.org/2000/svg" xmlns:xlink="http://www.w3.org/1999/xlink" id="body_18" preserveAspectRatio="xMinYMin meet" viewBox="0 0 793 1121"><defs><clipPath id="1"><path id="" clip-rule="evenodd" transform="matrix(1 0 0 1 0 0)" d="M0 841L0 -0.8900146L0 -0.8900146L595.276 -0.8900146L595.276 -0.8900146L595.276 841L595.276 841L0 841z" /></clipPath></defs><g transform="matrix(1.333333 0 0 1.333333 0 0)"><g clip-path="url(#1)"><path id="45" transform="matrix(1 0 0 -1 0 841)" d="M85.039 766.564L510.236 766.564" stroke="#000000" stroke-width="0.498" fill="none" /><path id="1851" transform="matrix(1 0 0 -1 0 841)" d="M84.79 143.622L109.528 143.622L109.528 155.895L84.79 155.895z" stroke="none" fill="#FFF100" fill-rule="nonzero" /><path id="1857" transform="matrix(1 0 0 -1 0 841)" d="M109.618 143.622L112.332 143.622L112.332 155.895L109.618 155.895z" stroke="none" fill="#FFF100" fill-rule="nonzero" /><path id="1858" transform="matrix(1 0 0 -1 0 841)" d="M112.083 143.622L135.61 143.622L135.61 155.895L112.083 155.895z" stroke="none" fill="#FFF100" fill-rule="nonzero" /><path id="1862" transform="matrix(1 0 0 -1 0 841)" d="M135.684 143.622L138.398 143.622L138.398 155.895L135.684 155.895z" stroke="none" fill="#FFF100" fill-rule="nonzero" /><path id="1863" transform="matrix(1 0 0 -1 0 841)" d="M138.148 143.622L156.82 143.622L156.82 155.895L138.148 155.895z" stroke="none" fill="#FFF100" fill-rule="nonzero" /><path id="1867" transform="matrix(1 0 0 -1 0 841)" d="M156.577 143.622L179.493 143.622L179.493 155.895L156.577 155.895z" stroke="none" fill="#FFF100" fill-rule="nonzero" /><path id="1873" transform="matrix(1 0 0 -1 0 841)" d="M179.558 143.622L182.272 143.622L182.272 155.895L179.558 155.895z" stroke="none" fill="#FFF100" fill-rule="nonzero" /><path id="1874" transform="matrix(1 0 0 -1 0 841)" d="M182.022 143.622L195.851 143.622L195.851 155.895L182.022 155.895z" stroke="none" fill="#FFF100" fill-rule="nonzero" /><path id="1878" transform="matrix(1 0 0 -1 0 841)" d="M195.789 143.622L198.503 143.622L198.503 155.895L195.789 155.895z" stroke="none" fill="#FFF100" fill-rule="nonzero" /><path id="1879" transform="matrix(1 0 0 -1 0 841)" d="M198.254 143.622L231.479 143.622L231.479 155.895L198.254 155.895z" stroke="none" fill="#FFF100" fill-rule="nonzero" /><path id="1886" transform="matrix(1 0 0 -1 0 841)" d="M231.688 143.622L234.402 143.622L234.402 155.895L231.688 155.895z" stroke="none" fill="#FFF100" fill-rule="nonzero" /><path id="1887" transform="matrix(1 0 0 -1 0 841)" d="M234.153 143.622L243.738 143.622L243.738 155.895L234.153 155.895z" stroke="none" fill="#FFF100" fill-rule="nonzero" /><path id="1890" transform="matrix(1 0 0 -1 0 841)" d="M243.616 143.622L246.33 143.622L246.33 155.895L243.616 155.895z" stroke="none" fill="#FFF100" fill-rule="nonzero" /><path id="1891" transform="matrix(1 0 0 -1 0 841)" d="M246.081 143.622L262.943 143.622L262.943 155.895L246.081 155.895z" stroke="none" fill="#FFF100" fill-rule="nonzero" /><path id="1895" transform="matrix(1 0 0 -1 0 841)" d="M262.674 143.622L278.925 143.622L278.925 155.895L262.674 155.895z" stroke="none" fill="#FFF100" fill-rule="nonzero" /><path id="1899" transform="matrix(1 0 0 -1 0 841)" d="M278.896 143.622L281.61 143.622L281.61 155.895L278.896 155.895z" stroke="none" fill="#FFF100" fill-rule="nonzero" /><path id="1900" transform="matrix(1 0 0 -1 0 841)" d="M281.361 143.622L290.335 143.622L290.335 155.895L281.361 155.895z" stroke="none" fill="#FFF100" fill-rule="nonzero" /><path id="1903" transform="matrix(1 0 0 -1 0 841)" d="M289.955 143.622L318.326 143.622L318.326 155.895L289.955 155.895z" stroke="none" fill="#FFF100" fill-rule="nonzero" /><path id="1910" transform="matrix(1 0 0 -1 0 841)" d="M318.467 143.622L321.181 143.622L321.181 155.895L318.467 155.895z" stroke="none" fill="#FFF100" fill-rule="nonzero" /><path id="1911" transform="matrix(1 0 0 -1 0 841)" d="M320.932 143.622L332.339 143.622L332.339 155.895L320.932 155.895z" stroke="none" fill="#FFF100" fill-rule="nonzero" /><path id="1914" transform="matrix(1 0 0 -1 0 841)" d="M332.243 143.622L334.957 143.622L334.957 155.895L332.243 155.895z" stroke="none" fill="#FFF100" fill-rule="nonzero" /><path id="1915" transform="matrix(1 0 0 -1 0 841)" d="M334.708 143.622L348.537 143.622L348.537 155.895L334.708 155.895z" stroke="none" fill="#FFF100" fill-rule="nonzero" /><path id="1919" transform="matrix(1 0 0 -1 0 841)" d="M348.474 143.622L351.188 143.622L351.188 155.895L348.474 155.895z" stroke="none" fill="#FFF100" fill-rule="nonzero" /><path id="1920" transform="matrix(1 0 0 -1 0 841)" d="M350.939 143.622L362.957 143.622L362.957 155.895L350.939 155.895z" stroke="none" fill="#FFF100" fill-rule="nonzero" /><path id="1923" transform="matrix(1 0 0 -1 0 841)" d="M362.62 143.622L385.94 143.622L385.94 155.895L362.62 155.895z" stroke="none" fill="#FFF100" fill-rule="nonzero" /><path id="1929" transform="matrix(1 0 0 -1 0 841)" d="M385.764 143.622L401.96 143.622L401.96 155.895L385.764 155.895z" stroke="none" fill="#FFF100" fill-rule="nonzero" /><path id="1933" transform="matrix(1 0 0 -1 0 841)" d="M401.682 143.622L422.187 143.622L422.187 155.895L401.682 155.895z" stroke="none" fill="#FFF100" fill-rule="nonzero" /><path id="1938" transform="matrix(1 0 0 -1 0 841)" d="M422.218 143.622L424.932 143.622L424.932 155.895L422.218 155.895z" stroke="none" fill="#FFF100" fill-rule="nonzero" /><path id="1939" transform="matrix(1 0 0 -1 0 841)" d="M424.683 143.622L456.686 143.622L456.686 155.895L424.683 155.895z" stroke="none" fill="#FFF100" fill-rule="nonzero" /><path id="1947" transform="matrix(1 0 0 -1 0 841)" d="M456.878 143.622L459.592 143.622L459.592 155.895L456.878 155.895z" stroke="none" fill="#FFF100" fill-rule="nonzero" /><path id="1948" transform="matrix(1 0 0 -1 0 841)" d="M459.343 143.622L468.328 143.622L468.328 155.895L459.343 155.895z" stroke="none" fill="#FFF100" fill-rule="nonzero" /><path id="1951" transform="matrix(1 0 0 -1 0 841)" d="M468.198 143.622L470.912 143.622L470.912 155.895L468.198 155.895z" stroke="none" fill="#FFF100" fill-rule="nonzero" /><path id="1952" transform="matrix(1 0 0 -1 0 841)" d="M470.663 143.622L486.914 143.622L486.914 155.895L470.663 155.895z" stroke="none" fill="#FFF100" fill-rule="nonzero" /><path id="1956" transform="matrix(1 0 0 -1 0 841)" d="M486.636 143.622L510.163 143.622L510.163 155.895L486.636 155.895z" stroke="none" fill="#FFF100" fill-rule="nonzero" /><path id="1961" transform="matrix(1 0 0 -1 0 841)" d="M84.79 126.685L98.619 126.685L98.619 138.958L84.79 138.958z" stroke="none" fill="#FFF100" fill-rule="nonzero" /><path id="1965" transform="matrix(1 0 0 -1 0 841)" d="M98.197 126.685L100.927 126.685L100.927 138.958L98.197 138.958z" stroke="none" fill="#FFF100" fill-rule="nonzero" /><path id="1966" transform="matrix(1 0 0 -1 0 841)" d="M100.677 126.685L110.066 126.685L110.066 138.958L100.677 138.958z" stroke="none" fill="#FFF100" fill-rule="nonzero" /><path id="1969" transform="matrix(1 0 0 -1 0 841)" d="M109.45 126.685L133.522 126.685L133.522 138.958L109.45 138.958z" stroke="none" fill="#FFF100" fill-rule="nonzero" /><path id="1975" transform="matrix(1 0 0 -1 0 841)" d="M132.966 126.685L135.696 126.685L135.696 138.958L132.966 138.958z" stroke="none" fill="#FFF100" fill-rule="nonzero" /><path id="1976" transform="matrix(1 0 0 -1 0 841)" d="M135.447 126.685L149.276 126.685L149.276 138.958L135.447 138.958z" stroke="none" fill="#FFF100" fill-rule="nonzero" /><path id="1979" transform="matrix(1 0 0 -1 0 841)" d="M148.604 126.685L156.978 126.685L156.978 138.958L148.604 138.958z" stroke="none" fill="#FFF100" fill-rule="nonzero" /><path id="1982" transform="matrix(1 0 0 -1 0 841)" d="M156.378 126.685L171.418 126.685L171.418 138.958L156.378 138.958z" stroke="none" fill="#FFF100" fill-rule="nonzero" /><path id="1987" transform="matrix(1 0 0 -1 0 841)" d="M170.98 126.685L173.71 126.685L173.71 138.958L170.98 138.958z" stroke="none" fill="#FFF100" fill-rule="nonzero" /><path id="1988" transform="matrix(1 0 0 -1 0 841)" d="M173.46 126.685L198.198 126.685L198.198 138.958L173.46 138.958z" stroke="none" fill="#FFF100" fill-rule="nonzero" /><path id="1994" transform="matrix(1 0 0 -1 0 841)" d="M197.634 126.685L200.364 126.685L200.364 138.958L197.634 138.958z" stroke="none" fill="#FFF100" fill-rule="nonzero" /><path id="1995" transform="matrix(1 0 0 -1 0 841)" d="M200.114 126.685L223.641 126.685L223.641 138.958L200.114 138.958z" stroke="none" fill="#FFF100" fill-rule="nonzero" /><path id="1999" transform="matrix(1 0 0 -1 0 841)" d="M223.093 126.685L225.823 126.685L225.823 138.958L223.093 138.958z" stroke="none" fill="#FFF100" fill-rule="nonzero" /><path id="2000" transform="matrix(1 0 0 -1 0 841)" d="M225.573 126.685L244.245 126.685L244.245 138.958L225.573 138.958z" stroke="none" fill="#FFF100" fill-rule="nonzero" /><path id="2004" transform="matrix(1 0 0 -1 0 841)" d="M243.511 126.685L266.427 126.685L266.427 138.958L243.511 138.958z" stroke="none" fill="#FFF100" fill-rule="nonzero" /><path id="2010" transform="matrix(1 0 0 -1 0 841)" d="M265.887 126.685L268.617 126.685L268.617 138.958L265.887 138.958z" stroke="none" fill="#FFF100" fill-rule="nonzero" /><path id="2011" transform="matrix(1 0 0 -1 0 841)" d="M268.367 126.685L282.196 126.685L282.196 138.958L268.367 138.958z" stroke="none" fill="#FFF100" fill-rule="nonzero" /><path id="2015" transform="matrix(1 0 0 -1 0 841)" d="M281.774 126.685L284.504 126.685L284.504 138.958L281.774 138.958z" stroke="none" fill="#FFF100" fill-rule="nonzero" /><path id="2016" transform="matrix(1 0 0 -1 0 841)" d="M284.254 126.685L308.381 126.685L308.381 138.958L284.254 138.958z" stroke="none" fill="#FFF100" fill-rule="nonzero" /><path id="2021" transform="matrix(1 0 0 -1 0 841)" d="M307.576 126.685L311.107 126.685L311.107 138.958L307.576 138.958z" stroke="none" fill="#FFF100" fill-rule="nonzero" /><path id="2023" transform="matrix(1 0 0 -1 0 841)" d="M310.569 126.685L323.787 126.685L323.787 138.958L310.569 138.958z" stroke="none" fill="#FFF100" fill-rule="nonzero" /><path id="2027" transform="matrix(1 0 0 -1 0 841)" d="M323.373 126.685L326.103 126.685L326.103 138.958L323.373 138.958z" stroke="none" fill="#FFF100" fill-rule="nonzero" /><path id="2028" transform="matrix(1 0 0 -1 0 841)" d="M325.853 126.685L337.26 126.685L337.26 138.958L325.853 138.958z" stroke="none" fill="#FFF100" fill-rule="nonzero" /><path id="2031" transform="matrix(1 0 0 -1 0 841)" d="M336.621 126.685L340.152 126.685L340.152 138.958L336.621 138.958z" stroke="none" fill="#FFF100" fill-rule="nonzero" /><path id="2033" transform="matrix(1 0 0 -1 0 841)" d="M339.614 126.685L350.41 126.685L350.41 138.958L339.614 138.958z" stroke="none" fill="#FFF100" fill-rule="nonzero" /><path id="2036" transform="matrix(1 0 0 -1 0 841)" d="M349.778 126.685L367.25 126.685L367.25 138.958L349.778 138.958z" stroke="none" fill="#FFF100" fill-rule="nonzero" /><path id="2041" transform="matrix(1 0 0 -1 0 841)" d="M366.781 126.685L369.511 126.685L369.511 138.958L366.781 138.958z" stroke="none" fill="#FFF100" fill-rule="nonzero" /><path id="2042" transform="matrix(1 0 0 -1 0 841)" d="M369.261 126.685L378.235 126.685L378.235 138.958L369.261 138.958z" stroke="none" fill="#FFF100" fill-rule="nonzero" /><path id="2045" transform="matrix(1 0 0 -1 0 841)" d="M377.627 126.685L405.998 126.685L405.998 138.958L377.627 138.958z" stroke="none" fill="#FFF100" fill-rule="nonzero" /><path id="2052" transform="matrix(1 0 0 -1 0 841)" d="M405.386 126.685L408.116 126.685L408.116 138.958L405.386 138.958z" stroke="none" fill="#FFF100" fill-rule="nonzero" /><path id="2053" transform="matrix(1 0 0 -1 0 841)" d="M407.867 126.685L416.852 126.685L416.852 138.958L407.867 138.958z" stroke="none" fill="#FFF100" fill-rule="nonzero" /><path id="2056" transform="matrix(1 0 0 -1 0 841)" d="M416.493 126.685L419.223 126.685L419.223 138.958L416.493 138.958z" stroke="none" fill="#FFF100" fill-rule="nonzero" /><path id="2057" transform="matrix(1 0 0 -1 0 841)" d="M418.973 126.685L430.38 126.685L430.38 138.958L418.973 138.958z" stroke="none" fill="#FFF100" fill-rule="nonzero" /><path id="2060" transform="matrix(1 0 0 -1 0 841)" d="M429.741 126.685L433.272 126.685L433.272 138.958L429.741 138.958z" stroke="none" fill="#FFF100" fill-rule="nonzero" /><path id="2062" transform="matrix(1 0 0 -1 0 841)" d="M432.734 126.685L451.406 126.685L451.406 138.958L432.734 138.958z" stroke="none" fill="#FFF100" fill-rule="nonzero" /><path id="2067" transform="matrix(1 0 0 -1 0 841)" d="M450.921 126.685L453.651 126.685L453.651 138.958L450.921 138.958z" stroke="none" fill="#FFF100" fill-rule="nonzero" /><path id="2068" transform="matrix(1 0 0 -1 0 841)" d="M453.402 126.685L464.809 126.685L464.809 138.958L453.402 138.958z" stroke="none" fill="#FFF100" fill-rule="nonzero" /><path id="2072" transform="matrix(1 0 0 -1 0 841)" d="M464.418 126.685L467.148 126.685L467.148 138.958L464.418 138.958z" stroke="none" fill="#FFF100" fill-rule="nonzero" /><path id="2073" transform="matrix(1 0 0 -1 0 841)" d="M466.898 126.685L491.025 126.685L491.025 138.958L466.898 138.958z" stroke="none" fill="#FFF100" fill-rule="nonzero" /><path id="2078" transform="matrix(1 0 0 -1 0 841)" d="M490.22 126.685L493.751 126.685L493.751 138.958L490.22 138.958z" stroke="none" fill="#FFF100" fill-rule="nonzero" /><path id="2080" transform="matrix(1 0 0 -1 0 841)" d="M493.213 126.685L510.674 126.685L510.674 138.958L493.213 138.958z" stroke="none" fill="#FFF100" fill-rule="nonzero" /><path id="2085" transform="matrix(1 0 0 -1 0 841)" d="M84.79 109.749L93.775 109.749L93.775 122.022L84.79 122.022z" stroke="none" fill="#FFF100" fill-rule="nonzero" /><path id="2088" transform="matrix(1 0 0 -1 0 841)" d="M93.447 109.749L112.73 109.749L112.73 122.022L93.447 122.022z" stroke="none" fill="#FFF100" fill-rule="nonzero" /><path id="2093" transform="matrix(1 0 0 -1 0 841)" d="M112.608 109.749L127.048 109.749L127.048 122.022L112.608 122.022z" stroke="none" fill="#FFF100" fill-rule="nonzero" /><path id="2097" transform="matrix(1 0 0 -1 0 841)" d="M127.078 109.749L129.982 109.749L129.982 122.022L127.078 122.022z" stroke="none" fill="#FFF100" fill-rule="nonzero" /><path id="2098" transform="matrix(1 0 0 -1 0 841)" d="M129.733 109.749L139.122 109.749L139.122 122.022L129.733 122.022z" stroke="none" fill="#FFF100" fill-rule="nonzero" /><path id="2101" transform="matrix(1 0 0 -1 0 841)" d="M138.806 109.749L155.002 109.749L155.002 122.022L138.806 122.022z" stroke="none" fill="#FFF100" fill-rule="nonzero" /><path id="2105" transform="matrix(1 0 0 -1 0 841)" d="M154.819 109.749L167.437 109.749L167.437 122.022L154.819 122.022z" stroke="none" fill="#FFF100" fill-rule="nonzero" /><path id="2109" transform="matrix(1 0 0 -1 0 841)" d="M167.43 109.749L170.334 109.749L170.334 122.022L167.43 122.022z" stroke="none" fill="#FFF100" fill-rule="nonzero" /><path id="2110" transform="matrix(1 0 0 -1 0 841)" d="M170.086 109.749L202.089 109.749L202.089 122.022L170.086 122.022z" stroke="none" fill="#FFF100" fill-rule="nonzero" /><path id="2118" transform="matrix(1 0 0 -1 0 841)" d="M202.47 109.749L205.374 109.749L205.374 122.022L202.47 122.022z" stroke="none" fill="#FFF100" fill-rule="nonzero" /><path id="2119" transform="matrix(1 0 0 -1 0 841)" d="M205.125 109.749L214.11 109.749L214.11 122.022L205.125 122.022z" stroke="none" fill="#FFF100" fill-rule="nonzero" /><path id="2122" transform="matrix(1 0 0 -1 0 841)" d="M214.031 109.749L216.935 109.749L216.935 122.022L214.031 122.022z" stroke="none" fill="#FFF100" fill-rule="nonzero" /><path id="2123" transform="matrix(1 0 0 -1 0 841)" d="M216.687 109.749L249.41 109.749L249.41 122.022L216.687 122.022z" stroke="none" fill="#FFF100" fill-rule="nonzero" /><path id="2130" transform="matrix(1 0 0 -1 0 841)" d="M249.566 109.749L254.908 109.749L254.908 122.022L249.566 122.022z" stroke="none" fill="#FFF100" fill-rule="nonzero" /><path id="2132" transform="matrix(1 0 0 -1 0 841)" d="M254.506 109.749L268.64 109.749L268.64 122.022L254.506 122.022z" stroke="none" fill="#FFF100" fill-rule="nonzero" /><path id="2137" transform="matrix(1 0 0 -1 0 841)" d="M268.676 109.749L271.58 109.749L271.58 122.022L268.676 122.022z" stroke="none" fill="#FFF100" fill-rule="nonzero" /><path id="2138" transform="matrix(1 0 0 -1 0 841)" d="M271.332 109.749L294.859 109.749L294.859 122.022L271.332 122.022z" stroke="none" fill="#FFF100" fill-rule="nonzero" /><path id="2142" transform="matrix(1 0 0 -1 0 841)" d="M295.07 109.749L297.974 109.749L297.974 122.022L295.07 122.022z" stroke="none" fill="#FFF100" fill-rule="nonzero" /><path id="2143" transform="matrix(1 0 0 -1 0 841)" d="M297.726 109.749L321.58 109.749L321.58 122.022L297.726 122.022z" stroke="none" fill="#FFF100" fill-rule="nonzero" /><path id="2149" transform="matrix(1 0 0 -1 0 841)" d="M321.803 109.749L324.707 109.749L324.707 122.022L321.803 122.022z" stroke="none" fill="#FFF100" fill-rule="nonzero" /><path id="2150" transform="matrix(1 0 0 -1 0 841)" d="M324.459 109.749L334.044 109.749L334.044 122.022L324.459 122.022z" stroke="none" fill="#FFF100" fill-rule="nonzero" /><path id="2153" transform="matrix(1 0 0 -1 0 841)" d="M333.977 109.749L336.881 109.749L336.881 122.022L333.977 122.022z" stroke="none" fill="#FFF100" fill-rule="nonzero" /><path id="2154" transform="matrix(1 0 0 -1 0 841)" d="M336.632 109.749L351.072 109.749L351.072 122.022L336.632 122.022z" stroke="none" fill="#FFF100" fill-rule="nonzero" /><path id="2158" transform="matrix(1 0 0 -1 0 841)" d="M350.853 109.749L354.384 109.749L354.384 122.022L350.853 122.022z" stroke="none" fill="#FFF100" fill-rule="nonzero" /><path id="2160" transform="matrix(1 0 0 -1 0 841)" d="M353.946 109.749L367.164 109.749L367.164 122.022L353.946 122.022z" stroke="none" fill="#FFF100" fill-rule="nonzero" /><path id="2164" transform="matrix(1 0 0 -1 0 841)" d="M367.169 109.749L370.073 109.749L370.073 122.022L367.169 122.022z" stroke="none" fill="#FFF100" fill-rule="nonzero" /><path id="2165" transform="matrix(1 0 0 -1 0 841)" d="M369.825 109.749L381.232 109.749L381.232 122.022L369.825 122.022z" stroke="none" fill="#FFF100" fill-rule="nonzero" /><path id="2168" transform="matrix(1 0 0 -1 0 841)" d="M380.952 109.749L399.024 109.749L399.024 122.022L380.952 122.022z" stroke="none" fill="#FFF100" fill-rule="nonzero" /><path id="2172" transform="matrix(1 0 0 -1 0 841)" d="M398.878 109.749L410.285 109.749L410.285 122.022L398.878 122.022z" stroke="none" fill="#FFF100" fill-rule="nonzero" /><path id="2176" transform="matrix(1 0 0 -1 0 841)" d="M410.254 109.749L413.158 109.749L413.158 122.022L410.254 122.022z" stroke="none" fill="#FFF100" fill-rule="nonzero" /><path id="2177" transform="matrix(1 0 0 -1 0 841)" d="M412.909 109.749L445.13 109.749L445.13 122.022L412.909 122.022z" stroke="none" fill="#FFF100" fill-rule="nonzero" /><path id="2184" transform="matrix(1 0 0 -1 0 841)" d="M445.524 109.749L448.428 109.749L448.428 122.022L445.524 122.022z" stroke="none" fill="#FFF100" fill-rule="nonzero" /><path id="2185" transform="matrix(1 0 0 -1 0 841)" d="M448.179 109.749L455.953 109.749L455.953 122.022L448.179 122.022z" stroke="none" fill="#FFF100" fill-rule="nonzero" /><path id="2188" transform="matrix(1 0 0 -1 0 841)" d="M455.85 109.749L458.754 109.749L458.754 122.022L455.85 122.022z" stroke="none" fill="#FFF100" fill-rule="nonzero" /><path id="2189" transform="matrix(1 0 0 -1 0 841)" d="M458.505 109.749L483.243 109.749L483.243 122.022L458.505 122.022z" stroke="none" fill="#FFF100" fill-rule="nonzero" /><path id="2195" transform="matrix(1 0 0 -1 0 841)" d="M483.479 109.749L486.383 109.749L486.383 122.022L483.479 122.022z" stroke="none" fill="#FFF100" fill-rule="nonzero" /><path id="2196" transform="matrix(1 0 0 -1 0 841)" d="M486.134 109.749L502.996 109.749L502.996 122.022L486.134 122.022z" stroke="none" fill="#FFF100" fill-rule="nonzero" /><path id="2200" transform="matrix(1 0 0 -1 0 841)" d="M503.074 109.749L505.978 109.749L505.978 122.022L503.074 122.022z" stroke="none" fill="#FFF100" fill-rule="nonzero" /><path id="2201" transform="matrix(1 0 0 -1 0 841)" d="M505.73 109.749L509.861 109.749L509.861 122.022L505.73 122.022z" stroke="none" fill="#FFF100" fill-rule="nonzero" /><path id="2203" transform="matrix(1 0 0 -1 0 841)" d="M84.79 92.812L101.652 92.812L101.652 105.085L84.79 105.085z" stroke="none" fill="#FFF100" fill-rule="nonzero" /><path id="2207" transform="matrix(1 0 0 -1 0 841)" d="M101.452 92.812L104.183 92.812L104.183 105.085L101.452 105.085z" stroke="none" fill="#FFF100" fill-rule="nonzero" /><path id="2208" transform="matrix(1 0 0 -1 0 841)" d="M103.934 92.812L124.439 92.812L124.439 105.085L103.934 105.085z" stroke="none" fill="#FFF100" fill-rule="nonzero" /><path id="2213" transform="matrix(1 0 0 -1 0 841)" d="M124.25 92.812L126.981 92.812L126.981 105.085L124.25 105.085z" stroke="none" fill="#FFF100" fill-rule="nonzero" /><path id="2214" transform="matrix(1 0 0 -1 0 841)" d="M126.731 92.812L151.469 92.812L151.469 105.085L126.731 105.085z" stroke="none" fill="#FFF100" fill-rule="nonzero" /><path id="2220" transform="matrix(1 0 0 -1 0 841)" d="M151.292 92.812L154.023 92.812L154.023 105.085L151.292 105.085z" stroke="none" fill="#FFF100" fill-rule="nonzero" /><path id="2221" transform="matrix(1 0 0 -1 0 841)" d="M153.774 92.812L167.603 92.812L167.603 105.085L153.774 105.085z" stroke="none" fill="#FFF100" fill-rule="nonzero" /><path id="2225" transform="matrix(1 0 0 -1 0 841)" d="M167.394 92.812L170.125 92.812L170.125 105.085L167.394 105.085z" stroke="none" fill="#FFF100" fill-rule="nonzero" /><path id="2226" transform="matrix(1 0 0 -1 0 841)" d="M169.875 92.812L193.402 92.812L193.402 105.085L169.875 105.085z" stroke="none" fill="#FFF100" fill-rule="nonzero" /><path id="2230" transform="matrix(1 0 0 -1 0 841)" d="M193.222 92.812L195.953 92.812L195.953 105.085L193.222 105.085z" stroke="none" fill="#FFF100" fill-rule="nonzero" /><path id="2231" transform="matrix(1 0 0 -1 0 841)" d="M195.704 92.812L219.558 92.812L219.558 105.085L195.704 105.085z" stroke="none" fill="#FFF100" fill-rule="nonzero" /><path id="2237" transform="matrix(1 0 0 -1 0 841)" d="M219.38 92.812L222.111 92.812L222.111 105.085L219.38 105.085z" stroke="none" fill="#FFF100" fill-rule="nonzero" /><path id="2238" transform="matrix(1 0 0 -1 0 841)" d="M221.861 92.812L250.832 92.812L250.832 105.085L221.861 105.085z" stroke="none" fill="#FFF100" fill-rule="nonzero" /><path id="2245" transform="matrix(1 0 0 -1 0 841)" d="M250.668 92.812L253.399 92.812L253.399 105.085L250.668 105.085z" stroke="none" fill="#FFF100" fill-rule="nonzero" /><path id="2246" transform="matrix(1 0 0 -1 0 841)" d="M253.15 92.812L274.855 92.812L274.855 105.085L253.15 105.085z" stroke="none" fill="#FFF100" fill-rule="nonzero" /><path id="2251" transform="matrix(1 0 0 -1 0 841)" d="M274.669 92.812L277.4 92.812L277.4 105.085L274.669 105.085z" stroke="none" fill="#FFF100" fill-rule="nonzero" /><path id="2252" transform="matrix(1 0 0 -1 0 841)" d="M277.151 92.812L294.013 92.812L294.013 105.085L277.151 105.085z" stroke="none" fill="#FFF100" fill-rule="nonzero" /><path id="2256" transform="matrix(1 0 0 -1 0 841)" d="M293.813 92.812L296.544 92.812L296.544 105.085L293.813 105.085z" stroke="none" fill="#FFF100" fill-rule="nonzero" /><path id="2257" transform="matrix(1 0 0 -1 0 841)" d="M296.294 92.812L300.425 92.812L300.425 105.085L296.294 105.085z" stroke="none" fill="#FFF100" fill-rule="nonzero" /><path id="2259" transform="matrix(1 0 0 -1 0 841)" d="M300.187 92.812L302.918 92.812L302.918 105.085L300.187 105.085z" stroke="none" fill="#FFF100" fill-rule="nonzero" /><path id="2260" transform="matrix(1 0 0 -1 0 841)" d="M302.668 92.812L319.53 92.812L319.53 105.085L302.668 105.085z" stroke="none" fill="#FFF100" fill-rule="nonzero" /><path id="2264" transform="matrix(1 0 0 -1 0 841)" d="M319.33 92.812L322.061 92.812L322.061 105.085L319.33 105.085z" stroke="none" fill="#FFF100" fill-rule="nonzero" /><path id="2265" transform="matrix(1 0 0 -1 0 841)" d="M321.812 92.812L345.044 92.812L345.044 105.085L321.812 105.085z" stroke="none" fill="#FFF100" fill-rule="nonzero" /><path id="2271" transform="matrix(1 0 0 -1 0 841)" d="M344.863 92.812L347.594 92.812L347.594 105.085L344.863 105.085z" stroke="none" fill="#FFF100" fill-rule="nonzero" /><path id="2272" transform="matrix(1 0 0 -1 0 841)" d="M347.344 92.812L364.544 92.812L364.544 105.085L347.344 105.085z" stroke="none" fill="#FFF100" fill-rule="nonzero" /><path id="2276" transform="matrix(1 0 0 -1 0 841)" d="M364.099 92.812L367.63 92.812L367.63 105.085L364.099 105.085z" stroke="none" fill="#FFF100" fill-rule="nonzero" /><path id="2278" transform="matrix(1 0 0 -1 0 841)" d="M367.141 92.812L380.359 92.812L380.359 105.085L367.141 105.085z" stroke="none" fill="#FFF100" fill-rule="nonzero" /><path id="2282" transform="matrix(1 0 0 -1 0 841)" d="M380.148 92.812L382.879 92.812L382.879 105.085L380.148 105.085z" stroke="none" fill="#FFF100" fill-rule="nonzero" /><path id="2283" transform="matrix(1 0 0 -1 0 841)" d="M382.629 92.812L432.218 92.812L432.218 105.085L382.629 105.085z" stroke="none" fill="#FFF100" fill-rule="nonzero" /><path id="2291" transform="matrix(1 0 0 -1 0 841)" d="M432.116 92.812L434.847 92.812L434.847 105.085L432.116 105.085z" stroke="none" fill="#FFF100" fill-rule="nonzero" /><path id="2292" transform="matrix(1 0 0 -1 0 841)" d="M434.597 92.812L443.571 92.812L443.571 105.085L434.597 105.085z" stroke="none" fill="#FFF100" fill-rule="nonzero" /><path id="2295" transform="matrix(1 0 0 -1 0 841)" d="M443.099 92.812L455.117 92.812L455.117 105.085L443.099 105.085z" stroke="none" fill="#FFF100" fill-rule="nonzero" /><path id="2299" transform="matrix(1 0 0 -1 0 841)" d="M454.903 92.812L457.634 92.812L457.634 105.085L454.903 105.085z" stroke="none" fill="#FFF100" fill-rule="nonzero" /><path id="2300" transform="matrix(1 0 0 -1 0 841)" d="M457.384 92.812L486.355 92.812L486.355 105.085L457.384 105.085z" stroke="none" fill="#FFF100" fill-rule="nonzero" /><path id="2307" transform="matrix(1 0 0 -1 0 841)" d="M486.191 92.812L488.922 92.812L488.922 105.085L486.191 105.085z" stroke="none" fill="#FFF100" fill-rule="nonzero" /><path id="2308" transform="matrix(1 0 0 -1 0 841)" d="M488.672 92.812L510.377 92.812L510.377 105.085L488.672 105.085z" stroke="none" fill="#FFF100" fill-rule="nonzero" /><path id="2313" transform="matrix(1 0 0 -1 0 841)" d="M84.79 75.876L98.924 75.876L98.924 88.149L84.79 88.149z" stroke="none" fill="#FFF100" fill-rule="nonzero" /><path id="2317" transform="matrix(1 0 0 -1 0 841)" d="M98.427 75.876L102.558 75.876L102.558 88.149L98.427 88.149z" stroke="none" fill="#FFF100" fill-rule="nonzero" /><path id="2319" transform="matrix(1 0 0 -1 0 841)" d="M102.059 75.876L118.921 75.876L118.921 88.149L102.059 88.149z" stroke="none" fill="#FFF100" fill-rule="nonzero" /><g transform="matrix(0.2 0 0 0.2 249.239 774.845)"><g transform="matrix(1 0 0 1 0 0)"><image x="0" y="0" xlink:href="img_04.png" width="484" height="104" /></g></g></g></g></svg>