<svg xmlns="http://www.w3.org/2000/svg" xmlns:xlink="http://www.w3.org/1999/xlink" id="body_359" preserveAspectRatio="xMinYMin meet" viewBox="0 0 793 1121"><defs><clipPath id="1"><path id="" clip-rule="evenodd" transform="matrix(1 0 0 1 0 0)" d="M0 841L0 -0.8900146L0 -0.8900146L595.276 -0.8900146L595.276 -0.8900146L595.276 841L595.276 841L0 841z" /></clipPath></defs><g transform="matrix(1.333333 0 0 1.333333 0 0)"><g clip-path="url(#1)"><path id="23" transform="matrix(1 0 0 -1 0 841)" d="M85.039 766.564L510.236 766.564" stroke="#000000" stroke-width="0.498" fill="none" /><path id="633" transform="matrix(1 0 0 -1 0 841)" d="M154.033 514.293L188.712 514.293" stroke="#000000" stroke-width="0.398" fill="none" /><path id="676" transform="matrix(1 0 0 -1 0 841)" d="M113.508 466.711L157.184 466.711" stroke="#000000" stroke-width="0.398" fill="none" /><path id="686" transform="matrix(1 0 0 -1 0 841)" d="M167.323 466.711L213.758 466.711" stroke="#000000" stroke-width="0.398" fill="none" /><path id="710" transform="matrix(1 0 0 -1 0 841)" d="M223.898 466.711L249.362 466.711" stroke="#000000" stroke-width="0.398" fill="none" /><path id="721" transform="matrix(1 0 0 -1 0 841)" d="M263.922 466.711L296.878 466.711" stroke="#000000" stroke-width="0.398" fill="none" /><path id="755" transform="matrix(1 0 0 -1 0 841)" d="M167.862 412.349L229.16 412.349" stroke="#000000" stroke-width="0.398" fill="none" /><path id="881" transform="matrix(1 0 0 -1 0 841)" d="M113.508 320.71L174.659 320.71" stroke="#000000" stroke-width="0.398" fill="none" /><path id="917" transform="matrix(1 0 0 -1 0 841)" d="M125.981 277.351L137.597 277.351" stroke="#000000" stroke-width="0.398" fill="none" /><path id="926" transform="matrix(1 0 0 -1 0 841)" d="M144.969 277.351L177.626 277.351" stroke="#000000" stroke-width="0.398" fill="none" /><path id="956" transform="matrix(1 0 0 -1 0 841)" d="M131.211 224.787L142.827 224.787" stroke="#000000" stroke-width="0.398" fill="none" /><path id="965" transform="matrix(1 0 0 -1 0 841)" d="M155.727 224.787L188.384 224.787" stroke="#000000" stroke-width="0.398" fill="none" /><path id="1013" transform="matrix(1 0 0 -1 0 841)" d="M185.731 177.891L254.055 177.891" stroke="#000000" stroke-width="0.398" fill="none" /><path id="1114" transform="matrix(1 0 0 -1 0 841)" d="M209.612 129.013L225.502 129.013" stroke="#000000" stroke-width="0.398" fill="none" /><path id="1133" transform="matrix(1 0 0 -1 0 841)" d="M283.225 129.013L299.115 129.013" stroke="#000000" stroke-width="0.398" fill="none" /><path id="1138" transform="matrix(1 0 0 -1 0 841)" d="M185.731 116.262L300.311 116.262" stroke="#000000" stroke-width="0.398" fill="none" /><path id="1146" transform="matrix(1 0 0 -1 0 841)" d="M245.512 104.148L260.456 104.148" stroke="#000000" stroke-width="0.398" fill="none" /><path id="1161" transform="matrix(1 0 0 -1 0 841)" d="M313.675 123.763L367.125 123.763" stroke="#000000" stroke-width="0.398" fill="none" /><path id="1162" transform="matrix(1 0 0 -1 0 841)" d="M313.874 108.551L313.874 123.764" stroke="#000000" stroke-width="0.398" fill="none" /><path id="1163" transform="matrix(1 0 0 -1 0 841)" d="M366.926 108.551L366.926 123.764" stroke="#000000" stroke-width="0.398" fill="none" /><path id="1164" transform="matrix(1 0 0 -1 0 841)" d="M313.675 108.551L367.125 108.551" stroke="#000000" stroke-width="0.398" fill="none" /><g transform="matrix(0.2 0 0 0.2 249.239 774.845)"><g transform="matrix(1 0 0 1 0 0)"><image x="0" y="0" xlink:href="img_04.png" width="484" height="104" /></g></g></g></g></svg>