<svg xmlns="http://www.w3.org/2000/svg" xmlns:xlink="http://www.w3.org/1999/xlink" id="body_342" preserveAspectRatio="xMinYMin meet" viewBox="0 0 793 1121"><defs><clipPath id="1"><path id="" clip-rule="evenodd" transform="matrix(1 0 0 1 0 0)" d="M0 841L0 -0.8900146L0 -0.8900146L595.276 -0.8900146L595.276 -0.8900146L595.276 841L595.276 841L0 841z" /></clipPath></defs><g transform="matrix(1.333333 0 0 1.333333 0 0)"><g clip-path="url(#1)"><path id="36" transform="matrix(1 0 0 -1 0 841)" d="M85.039 766.564L510.236 766.564" stroke="#000000" stroke-width="0.498" fill="none" /><path id="198" transform="matrix(1 0 0 -1 0 841)" d="M247.314 670.015L262.218 670.015" stroke="#000000" stroke-width="0.398" fill="none" /><path id="208" transform="matrix(1 0 0 -1 0 841)" d="M282.586 670.015L304.414 670.015" stroke="#000000" stroke-width="0.398" fill="none" /><path id="227" transform="matrix(1 0 0 -1 0 841)" d="M179.99 641.273L194.894 641.273" stroke="#000000" stroke-width="0.398" fill="none" /><path id="235" transform="matrix(1 0 0 -1 0 841)" d="M205.034 641.273L235.978 641.273" stroke="#000000" stroke-width="0.398" fill="none" /><path id="243" transform="matrix(1 0 0 -1 0 841)" d="M136.192 628.521L237.172 628.521" stroke="#000000" stroke-width="0.398" fill="none" /><path id="256" transform="matrix(1 0 0 -1 0 841)" d="M158.831 614.324L214.534 614.324" stroke="#000000" stroke-width="0.398" fill="none" /><path id="266" transform="matrix(1 0 0 -1 0 841)" d="M257.275 628.521L266.191 628.521" stroke="#000000" stroke-width="0.398" fill="none" /><path id="276" transform="matrix(1 0 0 -1 0 841)" d="M301.842 628.521L316.746 628.521" stroke="#000000" stroke-width="0.398" fill="none" /><path id="280" transform="matrix(1 0 0 -1 0 841)" d="M279.556 642.429L321.329 642.429" stroke="#000000" stroke-width="0.398" fill="none" /><path id="281" transform="matrix(1 0 0 -1 0 841)" d="M279.755 613.976L279.755 642.429" stroke="#000000" stroke-width="0.398" fill="none" /><path id="282" transform="matrix(1 0 0 -1 0 841)" d="M321.129 613.976L321.129 642.429" stroke="#000000" stroke-width="0.398" fill="none" /><path id="283" transform="matrix(1 0 0 -1 0 841)" d="M279.556 613.976L321.329 613.976" stroke="#000000" stroke-width="0.398" fill="none" /><path id="284" transform="matrix(1 0 0 -1 0 841)" d="M112.063 581.506L134.698 581.506L134.698 592.714L112.063 592.714z" stroke="none" fill="#FFF100" fill-rule="nonzero" /><path id="290" transform="matrix(1 0 0 -1 0 841)" d="M134.006 581.506L136.425 581.506L136.425 592.714L134.006 592.714z" stroke="none" fill="#FFF100" fill-rule="nonzero" /><path id="291" transform="matrix(1 0 0 -1 0 841)" d="M136.176 581.506L152.166 581.506L152.166 592.714L136.176 592.714z" stroke="none" fill="#FFF100" fill-rule="nonzero" /><path id="295" transform="matrix(1 0 0 -1 0 841)" d="M151.607 581.506L154.026 581.506L154.026 592.714L151.607 592.714z" stroke="none" fill="#FFF100" fill-rule="nonzero" /><path id="296" transform="matrix(1 0 0 -1 0 841)" d="M153.777 581.506L170.863 581.506L170.863 592.714L153.777 592.714z" stroke="none" fill="#FFF100" fill-rule="nonzero" /><path id="301" transform="matrix(1 0 0 -1 0 841)" d="M170.282 581.506L172.701 581.506L172.701 592.714L170.282 592.714z" stroke="none" fill="#FFF100" fill-rule="nonzero" /><path id="302" transform="matrix(1 0 0 -1 0 841)" d="M172.451 581.506L181.248 581.506L181.248 592.714L172.451 592.714z" stroke="none" fill="#FFF100" fill-rule="nonzero" /><path id="305" transform="matrix(1 0 0 -1 0 841)" d="M180.833 581.506L183.252 581.506L183.252 592.714L180.833 592.714z" stroke="none" fill="#FFF100" fill-rule="nonzero" /><path id="306" transform="matrix(1 0 0 -1 0 841)" d="M183.003 581.506L195.675 581.506L195.675 592.714L183.003 592.714z" stroke="none" fill="#FFF100" fill-rule="nonzero" /><path id="310" transform="matrix(1 0 0 -1 0 841)" d="M195.183 581.506L197.602 581.506L197.602 592.714L195.183 592.714z" stroke="none" fill="#FFF100" fill-rule="nonzero" /><path id="311" transform="matrix(1 0 0 -1 0 841)" d="M197.353 581.506L217.776 581.506L217.776 592.714L197.353 592.714z" stroke="none" fill="#FFF100" fill-rule="nonzero" /><path id="316" transform="matrix(1 0 0 -1 0 841)" d="M217.129 581.506L219.548 581.506L219.548 592.714L217.129 592.714z" stroke="none" fill="#FFF100" fill-rule="nonzero" /><path id="317" transform="matrix(1 0 0 -1 0 841)" d="M219.298 581.506L235.188 581.506L235.188 592.714L219.298 592.714z" stroke="none" fill="#FFF100" fill-rule="nonzero" /><path id="321" transform="matrix(1 0 0 -1 0 841)" d="M234.63 581.506L237.049 581.506L237.049 592.714L234.63 592.714z" stroke="none" fill="#FFF100" fill-rule="nonzero" /><path id="322" transform="matrix(1 0 0 -1 0 841)" d="M236.799 581.506L260.54 581.506L260.54 592.714L236.799 592.714z" stroke="none" fill="#FFF100" fill-rule="nonzero" /><path id="328" transform="matrix(1 0 0 -1 0 841)" d="M259.826 581.506L262.245 581.506L262.245 592.714L259.826 592.714z" stroke="none" fill="#FFF100" fill-rule="nonzero" /><path id="329" transform="matrix(1 0 0 -1 0 841)" d="M261.996 581.506L272.457 581.506L272.457 592.714L261.996 592.714z" stroke="none" fill="#FFF100" fill-rule="nonzero" /><path id="332" transform="matrix(1 0 0 -1 0 841)" d="M272.009 581.506L274.428 581.506L274.428 592.714L272.009 592.714z" stroke="none" fill="#FFF100" fill-rule="nonzero" /><path id="333" transform="matrix(1 0 0 -1 0 841)" d="M274.178 581.506L282.178 581.506L282.178 592.714L274.178 592.714z" stroke="none" fill="#FFF100" fill-rule="nonzero" /><path id="336" transform="matrix(1 0 0 -1 0 841)" d="M281.525 581.506L294.755 581.506L294.755 592.714L281.525 592.714z" stroke="none" fill="#FFF100" fill-rule="nonzero" /><path id="340" transform="matrix(1 0 0 -1 0 841)" d="M294.003 581.506L307.233 581.506L307.233 592.714L294.003 592.714z" stroke="none" fill="#FFF100" fill-rule="nonzero" /><path id="344" transform="matrix(1 0 0 -1 0 841)" d="M306.729 581.506L309.148 581.506L309.148 592.714L306.729 592.714z" stroke="none" fill="#FFF100" fill-rule="nonzero" /><path id="345" transform="matrix(1 0 0 -1 0 841)" d="M308.899 581.506L321.571 581.506L321.571 592.714L308.899 592.714z" stroke="none" fill="#FFF100" fill-rule="nonzero" /><path id="349" transform="matrix(1 0 0 -1 0 841)" d="M321.079 581.506L323.498 581.506L323.498 592.714L321.079 592.714z" stroke="none" fill="#FFF100" fill-rule="nonzero" /><path id="350" transform="matrix(1 0 0 -1 0 841)" d="M323.249 581.506L336.28 581.506L336.28 592.714L323.249 592.714z" stroke="none" fill="#FFF100" fill-rule="nonzero" /><path id="354" transform="matrix(1 0 0 -1 0 841)" d="M335.527 581.506L353.181 581.506L353.181 592.714L335.527 592.714z" stroke="none" fill="#FFF100" fill-rule="nonzero" /><path id="358" transform="matrix(1 0 0 -1 0 841)" d="M352.588 581.506L355.007 581.506L355.007 592.714L352.588 592.714z" stroke="none" fill="#FFF100" fill-rule="nonzero" /><path id="359" transform="matrix(1 0 0 -1 0 841)" d="M354.758 581.506L414.842 581.506L414.842 592.714L354.758 592.714z" stroke="none" fill="#FFF100" fill-rule="nonzero" /><path id="374" transform="matrix(1 0 0 -1 0 841)" d="M413.664 581.506L416.083 581.506L416.083 592.714L413.664 592.714z" stroke="none" fill="#FFF100" fill-rule="nonzero" /><path id="375" transform="matrix(1 0 0 -1 0 841)" d="M415.833 581.506L426.294 581.506L426.294 592.714L415.833 592.714z" stroke="none" fill="#FFF100" fill-rule="nonzero" /><path id="378" transform="matrix(1 0 0 -1 0 841)" d="M425.846 581.506L428.265 581.506L428.265 592.714L425.846 592.714z" stroke="none" fill="#FFF100" fill-rule="nonzero" /><path id="379" transform="matrix(1 0 0 -1 0 841)" d="M428.016 581.506L440.688 581.506L440.688 592.714L428.016 592.714z" stroke="none" fill="#FFF100" fill-rule="nonzero" /><path id="383" transform="matrix(1 0 0 -1 0 841)" d="M440.195 581.506L442.614 581.506L442.614 592.714L440.195 592.714z" stroke="none" fill="#FFF100" fill-rule="nonzero" /><path id="384" transform="matrix(1 0 0 -1 0 841)" d="M442.365 581.506L462.788 581.506L462.788 592.714L442.365 592.714z" stroke="none" fill="#FFF100" fill-rule="nonzero" /><path id="389" transform="matrix(1 0 0 -1 0 841)" d="M462.141 581.506L464.56 581.506L464.56 592.714L462.141 592.714z" stroke="none" fill="#FFF100" fill-rule="nonzero" /><path id="390" transform="matrix(1 0 0 -1 0 841)" d="M464.311 581.506L486.946 581.506L486.946 592.714L464.311 592.714z" stroke="none" fill="#FFF100" fill-rule="nonzero" /><path id="396" transform="matrix(1 0 0 -1 0 841)" d="M486.254 581.506L488.673 581.506L488.673 592.714L486.254 592.714z" stroke="none" fill="#FFF100" fill-rule="nonzero" /><path id="397" transform="matrix(1 0 0 -1 0 841)" d="M488.424 581.506L511.607 581.506L511.607 592.714L488.424 592.714z" stroke="none" fill="#FFF100" fill-rule="nonzero" /><path id="544" transform="matrix(1 0 0 -1 0 841)" d="M248.694 504.136L373.425 504.136" stroke="#000000" stroke-width="0.398" fill="none" /><path id="568" transform="matrix(1 0 0 -1 0 841)" d="M341.624 491.628L372.229 491.628" stroke="#000000" stroke-width="0.398" fill="none" /><path id="585" transform="matrix(1 0 0 -1 0 841)" d="M136.192 466.831L189.171 466.831" stroke="#000000" stroke-width="0.398" fill="none" /><path id="598" transform="matrix(1 0 0 -1 0 841)" d="M207.118 466.831L227.591 466.831" stroke="#000000" stroke-width="0.398" fill="none" /><path id="602" transform="matrix(1 0 0 -1 0 841)" d="M202.535 480.938L232.174 480.938" stroke="#000000" stroke-width="0.398" fill="none" /><path id="603" transform="matrix(1 0 0 -1 0 841)" d="M202.735 452.286L202.735 480.938" stroke="#000000" stroke-width="0.398" fill="none" /><path id="604" transform="matrix(1 0 0 -1 0 841)" d="M231.975 452.286L231.975 480.938" stroke="#000000" stroke-width="0.398" fill="none" /><path id="605" transform="matrix(1 0 0 -1 0 841)" d="M202.535 452.286L232.174 452.286" stroke="#000000" stroke-width="0.398" fill="none" /><path id="754" transform="matrix(1 0 0 -1 0 841)" d="M86.235 345.706L497.266 345.706" stroke="#000000" stroke-width="0.398" fill="none" /><path id="885" transform="matrix(1 0 0 -1 0 841)" d="M152.868 309.829L408.962 309.829" stroke="#000000" stroke-width="0.398" fill="none" /><g transform="matrix(0.2 0 0 0.2 249.239 774.845)"><g transform="matrix(1 0 0 1 0 0)"><image x="0" y="0" xlink:href="img_04.png" width="484" height="104" /></g></g></g></g></svg>