<svg xmlns="http://www.w3.org/2000/svg" xmlns:xlink="http://www.w3.org/1999/xlink" id="body_51" preserveAspectRatio="xMinYMin meet" viewBox="0 0 793 1121"><defs><clipPath id="1"><path id="" clip-rule="evenodd" transform="matrix(1 0 0 1 0 0)" d="M0 841L0 -0.8900146L0 -0.8900146L595.276 -0.8900146L595.276 -0.8900146L595.276 841L595.276 841L0 841z" /></clipPath></defs><g transform="matrix(1.333333 0 0 1.333333 0 0)"><g clip-path="url(#1)"><path id="45" transform="matrix(1 0 0 -1 0 841)" d="M85.039 766.564L510.236 766.564" stroke="#000000" stroke-width="0.498" fill="none" /><path id="359" transform="matrix(1 0 0 -1 0 841)" d="M112.312 637.59L510.236 637.59L510.236 639.291L112.312 639.291z" stroke="none" fill="#000000" fill-rule="nonzero" /><path id="461" transform="matrix(1 0 0 -1 0 841)" d="M112.312 533.274L510.236 533.274L510.236 534.975L112.312 534.975z" stroke="none" fill="#000000" fill-rule="nonzero" /><path id="655" transform="matrix(1 0 0 -1 0 841)" d="M142.568 302.639L174.49 302.639" stroke="#000000" stroke-width="0.398" fill="none" /><path id="664" transform="matrix(1 0 0 -1 0 841)" d="M206.753 302.639L215.762 302.639" stroke="#000000" stroke-width="0.398" fill="none" /><path id="678" transform="matrix(1 0 0 -1 0 841)" d="M144.222 287.695L170.416 287.695" stroke="#000000" stroke-width="0.398" fill="none" /><path id="687" transform="matrix(1 0 0 -1 0 841)" d="M202.679 287.695L211.688 287.695" stroke="#000000" stroke-width="0.398" fill="none" /><path id="732" transform="matrix(1 0 0 -1 0 841)" d="M412.218 268.72L424.392 268.72" stroke="#000000" stroke-width="0.398" fill="none" /><path id="734" transform="matrix(1 0 0 -1 0 841)" d="M389.932 280.491L428.975 280.491" stroke="#000000" stroke-width="0.398" fill="none" /><path id="735" transform="matrix(1 0 0 -1 0 841)" d="M390.131 256.098L390.131 280.491" stroke="#000000" stroke-width="0.398" fill="none" /><path id="736" transform="matrix(1 0 0 -1 0 841)" d="M428.776 256.098L428.776 280.491" stroke="#000000" stroke-width="0.398" fill="none" /><path id="737" transform="matrix(1 0 0 -1 0 841)" d="M389.932 256.098L428.975 256.098" stroke="#000000" stroke-width="0.398" fill="none" /><g transform="matrix(0.2 0 0 0.2 249.239 774.845)"><g transform="matrix(1 0 0 1 0 0)"><image x="0" y="0" xlink:href="img_04.png" width="484" height="104" /></g></g></g></g></svg>