<svg xmlns="http://www.w3.org/2000/svg" xmlns:xlink="http://www.w3.org/1999/xlink" id="body_355" preserveAspectRatio="xMinYMin meet" viewBox="0 0 793 1121"><defs><clipPath id="1"><path id="" clip-rule="evenodd" transform="matrix(1 0 0 1 0 0)" d="M0 841L0 -0.8900146L0 -0.8900146L595.276 -0.8900146L595.276 -0.8900146L595.276 841L595.276 841L0 841z" /></clipPath></defs><g transform="matrix(1.333333 0 0 1.333333 0 0)"><g clip-path="url(#1)"><path id="23" transform="matrix(1 0 0 -1 0 841)" d="M85.039 766.564L510.236 766.564" stroke="#000000" stroke-width="0.498" fill="none" /><path id="980" transform="matrix(1 0 0 -1 0 841)" d="M119.046 513.346L241.715 513.346" stroke="#000000" stroke-width="0.398" fill="none" /><path id="1025" transform="matrix(1 0 0 -1 0 841)" d="M205.968 479.554L236.912 479.554" stroke="#000000" stroke-width="0.398" fill="none" /><path id="1031" transform="matrix(1 0 0 -1 0 841)" d="M108.92 463.908L238.108 463.908" stroke="#000000" stroke-width="0.398" fill="none" /><path id="1041" transform="matrix(1 0 0 -1 0 841)" d="M156.931 450.138L190.096 450.138" stroke="#000000" stroke-width="0.398" fill="none" /><path id="1054" transform="matrix(1 0 0 -1 0 841)" d="M251.471 471.41L301.962 471.41" stroke="#000000" stroke-width="0.398" fill="none" /><path id="1055" transform="matrix(1 0 0 -1 0 841)" d="M251.671 456.297L251.671 471.41" stroke="#000000" stroke-width="0.398" fill="none" /><path id="1056" transform="matrix(1 0 0 -1 0 841)" d="M301.764 456.297L301.764 471.41" stroke="#000000" stroke-width="0.398" fill="none" /><path id="1057" transform="matrix(1 0 0 -1 0 841)" d="M251.471 456.297L301.962 456.297" stroke="#000000" stroke-width="0.398" fill="none" /><path id="1780" transform="matrix(1 0 0 -1 0 841)" d="M113.508 110.47L142.281 110.47" stroke="#000000" stroke-width="0.398" fill="none" /><path id="1789" transform="matrix(1 0 0 -1 0 841)" d="M156.84 110.47L185.613 110.47" stroke="#000000" stroke-width="0.398" fill="none" /><path id="1808" transform="matrix(1 0 0 -1 0 841)" d="M232.095 110.47L273.598 110.47" stroke="#000000" stroke-width="0.398" fill="none" /><g transform="matrix(0.2 0 0 0.2 249.239 774.845)"><g transform="matrix(1 0 0 1 0 0)"><image x="0" y="0" xlink:href="img_04.png" width="484" height="104" /></g></g></g></g></svg>