<svg xmlns="http://www.w3.org/2000/svg" xmlns:xlink="http://www.w3.org/1999/xlink" id="body_406" preserveAspectRatio="xMinYMin meet" viewBox="0 0 793 1121"><defs><clipPath id="1"><path id="" clip-rule="evenodd" transform="matrix(1 0 0 1 0 0)" d="M0 841L0 -0.8900146L0 -0.8900146L595.276 -0.8900146L595.276 -0.8900146L595.276 841L595.276 841L0 841z" /></clipPath></defs><g transform="matrix(1.333333 0 0 1.333333 0 0)"><g clip-path="url(#1)"><path id="31" transform="matrix(1 0 0 -1 0 841)" d="M85.039 766.564L510.236 766.564" stroke="#000000" stroke-width="0.498" fill="none" /><path id="312" transform="matrix(1 0 0 -1 0 841)" d="M457.607 571.863L478.12 571.863" stroke="#000000" stroke-width="0.398" fill="none" /><path id="334" transform="matrix(1 0 0 -1 0 841)" d="M112.312 549.46L456.854 549.46" stroke="#000000" stroke-width="0.283" fill="none" /><path id="335" transform="matrix(1 0 0 -1 0 841)" d="M112.454 539.873L112.454 549.318" stroke="#000000" stroke-width="0.283" fill="none" /><path id="360" transform="matrix(1 0 0 -1 0 841)" d="M327.103 539.873L327.103 549.318" stroke="#000000" stroke-width="0.283" fill="none" /><path id="369" transform="matrix(1 0 0 -1 0 841)" d="M456.712 539.873L456.712 549.318" stroke="#000000" stroke-width="0.283" fill="none" /><path id="370" transform="matrix(1 0 0 -1 0 841)" d="M112.312 539.732L456.854 539.732" stroke="#000000" stroke-width="0.283" fill="none" /><path id="371" transform="matrix(1 0 0 -1 0 841)" d="M112.454 530.145L112.454 539.59" stroke="#000000" stroke-width="0.283" fill="none" /><path id="389" transform="matrix(1 0 0 -1 0 841)" d="M327.103 530.145L327.103 539.59" stroke="#000000" stroke-width="0.283" fill="none" /><path id="395" transform="matrix(1 0 0 -1 0 841)" d="M456.712 530.145L456.712 539.59" stroke="#000000" stroke-width="0.283" fill="none" /><path id="396" transform="matrix(1 0 0 -1 0 841)" d="M112.312 530.004L456.854 530.004" stroke="#000000" stroke-width="0.283" fill="none" /><path id="397" transform="matrix(1 0 0 -1 0 841)" d="M112.454 520.417L112.454 529.862" stroke="#000000" stroke-width="0.283" fill="none" /><path id="410" transform="matrix(1 0 0 -1 0 841)" d="M327.103 520.417L327.103 529.862" stroke="#000000" stroke-width="0.283" fill="none" /><path id="415" transform="matrix(1 0 0 -1 0 841)" d="M456.712 520.417L456.712 529.862" stroke="#000000" stroke-width="0.283" fill="none" /><path id="416" transform="matrix(1 0 0 -1 0 841)" d="M112.312 520.276L456.854 520.276" stroke="#000000" stroke-width="0.283" fill="none" /><path id="417" transform="matrix(1 0 0 -1 0 841)" d="M112.454 510.689L112.454 520.134" stroke="#000000" stroke-width="0.283" fill="none" /><path id="430" transform="matrix(1 0 0 -1 0 841)" d="M327.103 510.689L327.103 520.134" stroke="#000000" stroke-width="0.283" fill="none" /><path id="436" transform="matrix(1 0 0 -1 0 841)" d="M456.712 510.689L456.712 520.134" stroke="#000000" stroke-width="0.283" fill="none" /><path id="437" transform="matrix(1 0 0 -1 0 841)" d="M112.312 510.548L456.854 510.548" stroke="#000000" stroke-width="0.283" fill="none" /><path id="438" transform="matrix(1 0 0 -1 0 841)" d="M112.454 486.246L112.454 510.406" stroke="#000000" stroke-width="0.283" fill="none" /><path id="452" transform="matrix(1 0 0 -1 0 841)" d="M327.103 486.246L327.103 510.406" stroke="#000000" stroke-width="0.283" fill="none" /><path id="458" transform="matrix(1 0 0 -1 0 841)" d="M336.41 497.603L441.901 497.603" stroke="#000000" stroke-width="0.398" fill="none" /><path id="476" transform="matrix(1 0 0 -1 0 841)" d="M456.712 486.246L456.712 510.406" stroke="#000000" stroke-width="0.283" fill="none" /><path id="477" transform="matrix(1 0 0 -1 0 841)" d="M112.312 486.104L456.854 486.104" stroke="#000000" stroke-width="0.283" fill="none" /><path id="478" transform="matrix(1 0 0 -1 0 841)" d="M112.454 476.518L112.454 485.963" stroke="#000000" stroke-width="0.283" fill="none" /><path id="489" transform="matrix(1 0 0 -1 0 841)" d="M327.103 476.518L327.103 485.963" stroke="#000000" stroke-width="0.283" fill="none" /><path id="493" transform="matrix(1 0 0 -1 0 841)" d="M456.712 476.518L456.712 485.963" stroke="#000000" stroke-width="0.283" fill="none" /><path id="494" transform="matrix(1 0 0 -1 0 841)" d="M112.312 476.376L456.854 476.376" stroke="#000000" stroke-width="0.283" fill="none" /><path id="495" transform="matrix(1 0 0 -1 0 841)" d="M112.454 466.79L112.454 476.235" stroke="#000000" stroke-width="0.283" fill="none" /><path id="506" transform="matrix(1 0 0 -1 0 841)" d="M327.103 466.79L327.103 476.235" stroke="#000000" stroke-width="0.283" fill="none" /><path id="509" transform="matrix(1 0 0 -1 0 841)" d="M456.712 466.79L456.712 476.235" stroke="#000000" stroke-width="0.283" fill="none" /><path id="510" transform="matrix(1 0 0 -1 0 841)" d="M112.312 466.648L456.854 466.648" stroke="#000000" stroke-width="0.283" fill="none" /><path id="511" transform="matrix(1 0 0 -1 0 841)" d="M112.454 444.38L112.454 466.507" stroke="#000000" stroke-width="0.283" fill="none" /><path id="535" transform="matrix(1 0 0 -1 0 841)" d="M327.103 444.38L327.103 466.507" stroke="#000000" stroke-width="0.283" fill="none" /><path id="542" transform="matrix(1 0 0 -1 0 841)" d="M353.845 455.787L374.358 455.787" stroke="#000000" stroke-width="0.398" fill="none" /><path id="546" transform="matrix(1 0 0 -1 0 841)" d="M456.712 444.38L456.712 466.507" stroke="#000000" stroke-width="0.283" fill="none" /><path id="547" transform="matrix(1 0 0 -1 0 841)" d="M112.312 444.238L456.854 444.238" stroke="#000000" stroke-width="0.283" fill="none" /><path id="569" transform="matrix(1 0 0 -1 0 841)" d="M200.66 423.876L221.173 423.876" stroke="#000000" stroke-width="0.398" fill="none" /><path id="807" transform="matrix(1 0 0 -1 0 841)" d="M338.781 345.689L352.021 345.689" stroke="#000000" stroke-width="0.398" fill="none" /><path id="829" transform="matrix(1 0 0 -1 0 841)" d="M361.054 345.689L445.903 345.689" stroke="#000000" stroke-width="0.398" fill="none" /><path id="892" transform="matrix(1 0 0 -1 0 841)" d="M328.82 320.484L342.927 320.484" stroke="#000000" stroke-width="0.398" fill="none" /><path id="911" transform="matrix(1 0 0 -1 0 841)" d="M353.066 320.484L425.192 320.484" stroke="#000000" stroke-width="0.398" fill="none" /><path id="986" transform="matrix(1 0 0 -1 0 841)" d="M206.839 296.967L384.452 296.967" stroke="#000000" stroke-width="0.398" fill="none" /><path id="1040" transform="matrix(1 0 0 -1 0 841)" d="M418.295 304.524L511.803 304.524" stroke="#000000" stroke-width="0.398" fill="none" /><path id="1041" transform="matrix(1 0 0 -1 0 841)" d="M418.494 289.256L418.494 304.524" stroke="#000000" stroke-width="0.398" fill="none" /><path id="1042" transform="matrix(1 0 0 -1 0 841)" d="M511.604 289.256L511.604 304.524" stroke="#000000" stroke-width="0.398" fill="none" /><path id="1043" transform="matrix(1 0 0 -1 0 841)" d="M418.295 289.256L511.803 289.256" stroke="#000000" stroke-width="0.398" fill="none" /><path id="1424" transform="matrix(1 0 0 -1 0 841)" d="M113.508 152.762L215.492 152.762" stroke="#000000" stroke-width="0.398" fill="none" /><path id="1444" transform="matrix(1 0 0 -1 0 841)" d="M230.051 152.762L302.289 152.762" stroke="#000000" stroke-width="0.398" fill="none" /><path id="1466" transform="matrix(1 0 0 -1 0 841)" d="M312.429 152.762L399.232 152.762" stroke="#000000" stroke-width="0.398" fill="none" /><path id="1485" transform="matrix(1 0 0 -1 0 841)" d="M409.372 152.762L461.038 152.762" stroke="#000000" stroke-width="0.398" fill="none" /><path id="1509" transform="matrix(1 0 0 -1 0 841)" d="M123.462 120.791L175.128 120.791" stroke="#000000" stroke-width="0.398" fill="none" /><path id="1528" transform="matrix(1 0 0 -1 0 841)" d="M113.508 89.054L194.085 89.054" stroke="#000000" stroke-width="0.398" fill="none" /><path id="1543" transform="matrix(1 0 0 -1 0 841)" d="M208.644 89.054L260.31 89.054" stroke="#000000" stroke-width="0.398" fill="none" /><path id="1558" transform="matrix(1 0 0 -1 0 841)" d="M270.449 89.054L320.829 89.054" stroke="#000000" stroke-width="0.398" fill="none" /><path id="1574" transform="matrix(1 0 0 -1 0 841)" d="M330.97 89.054L376.369 89.054" stroke="#000000" stroke-width="0.398" fill="none" /><path id="1597" transform="matrix(1 0 0 -1 0 841)" d="M390.928 89.054L445.034 89.054" stroke="#000000" stroke-width="0.398" fill="none" /><g transform="matrix(0.2 0 0 0.2 249.239 774.845)"><g transform="matrix(1 0 0 1 0 0)"><image x="0" y="0" xlink:href="img_04.png" width="484" height="104" /></g></g></g></g></svg>