<svg xmlns="http://www.w3.org/2000/svg" xmlns:xlink="http://www.w3.org/1999/xlink" id="body_311" preserveAspectRatio="xMinYMin meet" viewBox="0 0 793 1121"><defs><clipPath id="1"><path id="" clip-rule="evenodd" transform="matrix(1 0 0 1 0 0)" d="M0 841L0 -0.8900146L0 -0.8900146L595.276 -0.8900146L595.276 -0.8900146L595.276 841L595.276 841L0 841z" /></clipPath></defs><g transform="matrix(1.333333 0 0 1.333333 0 0)"><g clip-path="url(#1)"><path id="24" transform="matrix(1 0 0 -1 0 841)" d="M85.039 766.564L510.236 766.564" stroke="#000000" stroke-width="0.498" fill="none" /><path id="584" transform="matrix(1 0 0 -1 0 841)" d="M207.594 617.492L220.695 617.492" stroke="#000000" stroke-width="0.398" fill="none" /><path id="620" transform="matrix(1 0 0 -1 0 841)" d="M207.594 602.548L220.695 602.548" stroke="#000000" stroke-width="0.398" fill="none" /><path id="677" transform="matrix(1 0 0 -1 0 841)" d="M208.058 567.042L234.923 567.042" stroke="#000000" stroke-width="0.398" fill="none" /><path id="697" transform="matrix(1 0 0 -1 0 841)" d="M245.062 567.042L299.204 567.042" stroke="#000000" stroke-width="0.398" fill="none" /><path id="707" transform="matrix(1 0 0 -1 0 841)" d="M309.344 567.042L329.817 567.042" stroke="#000000" stroke-width="0.398" fill="none" /><path id="721" transform="matrix(1 0 0 -1 0 841)" d="M347.764 567.042L389.259 567.042" stroke="#000000" stroke-width="0.398" fill="none" /><path id="724" transform="matrix(1 0 0 -1 0 841)" d="M343.181 581.761L393.842 581.761" stroke="#000000" stroke-width="0.398" fill="none" /><path id="725" transform="matrix(1 0 0 -1 0 841)" d="M343.38 552.496L343.38 581.761" stroke="#000000" stroke-width="0.398" fill="none" /><path id="726" transform="matrix(1 0 0 -1 0 841)" d="M393.643 552.496L393.643 581.761" stroke="#000000" stroke-width="0.398" fill="none" /><path id="727" transform="matrix(1 0 0 -1 0 841)" d="M343.181 552.496L393.842 552.496" stroke="#000000" stroke-width="0.398" fill="none" /><path id="755" transform="matrix(1 0 0 -1 0 841)" d="M155.011 520.754L184.898 520.754" stroke="#000000" stroke-width="0.398" fill="none" /><path id="771" transform="matrix(1 0 0 -1 0 841)" d="M198.262 528.117L226.287 528.117" stroke="#000000" stroke-width="0.398" fill="none" /><path id="772" transform="matrix(1 0 0 -1 0 841)" d="M198.461 513.043L198.461 528.116" stroke="#000000" stroke-width="0.398" fill="none" /><path id="773" transform="matrix(1 0 0 -1 0 841)" d="M226.088 513.043L226.088 528.116" stroke="#000000" stroke-width="0.398" fill="none" /><path id="774" transform="matrix(1 0 0 -1 0 841)" d="M198.262 513.043L226.287 513.043" stroke="#000000" stroke-width="0.398" fill="none" /><path id="1215" transform="matrix(1 0 0 -1 0 841)" d="M113.508 389.864L134.364 389.864" stroke="#000000" stroke-width="0.398" fill="none" /><path id="1226" transform="matrix(1 0 0 -1 0 841)" d="M147.263 389.864L168.119 389.864" stroke="#000000" stroke-width="0.398" fill="none" /><path id="1237" transform="matrix(1 0 0 -1 0 841)" d="M182.679 389.864L203.535 389.864" stroke="#000000" stroke-width="0.398" fill="none" /><path id="1305" transform="matrix(1 0 0 -1 0 841)" d="M222.628 348.638L245.526 348.638" stroke="#000000" stroke-width="0.398" fill="none" /><path id="1313" transform="matrix(1 0 0 -1 0 841)" d="M255.666 348.638L276.522 348.638" stroke="#000000" stroke-width="0.398" fill="none" /><path id="1328" transform="matrix(1 0 0 -1 0 841)" d="M289.887 356.14L329.309 356.14" stroke="#000000" stroke-width="0.398" fill="none" /><path id="1329" transform="matrix(1 0 0 -1 0 841)" d="M290.086 342.805L290.086 356.14" stroke="#000000" stroke-width="0.398" fill="none" /><path id="1330" transform="matrix(1 0 0 -1 0 841)" d="M329.109 342.805L329.109 356.14" stroke="#000000" stroke-width="0.398" fill="none" /><path id="1331" transform="matrix(1 0 0 -1 0 841)" d="M289.887 342.805L329.309 342.805" stroke="#000000" stroke-width="0.398" fill="none" /><path id="1411" transform="matrix(1 0 0 -1 0 841)" d="M228.147 307.412L251.045 307.412" stroke="#000000" stroke-width="0.398" fill="none" /><path id="1419" transform="matrix(1 0 0 -1 0 841)" d="M261.185 307.412L282.041 307.412" stroke="#000000" stroke-width="0.398" fill="none" /><path id="1455" transform="matrix(1 0 0 -1 0 841)" d="M113.508 266.185L162.217 266.185" stroke="#000000" stroke-width="0.398" fill="none" /><path id="1478" transform="matrix(1 0 0 -1 0 841)" d="M172.356 266.185L198.159 266.185" stroke="#000000" stroke-width="0.398" fill="none" /><path id="1493" transform="matrix(1 0 0 -1 0 841)" d="M212.719 266.185L244.206 266.185" stroke="#000000" stroke-width="0.398" fill="none" /><path id="1526" transform="matrix(1 0 0 -1 0 841)" d="M113.508 224.959L137.667 224.959" stroke="#000000" stroke-width="0.398" fill="none" /><path id="1543" transform="matrix(1 0 0 -1 0 841)" d="M147.806 224.959L179.293 224.959" stroke="#000000" stroke-width="0.398" fill="none" /><path id="1551" transform="matrix(1 0 0 -1 0 841)" d="M189.433 224.959L207.864 224.959" stroke="#000000" stroke-width="0.398" fill="none" /><path id="1567" transform="matrix(1 0 0 -1 0 841)" d="M222.423 224.959L252.413 224.959" stroke="#000000" stroke-width="0.398" fill="none" /><path id="1603" transform="matrix(1 0 0 -1 0 841)" d="M113.508 178.114L159.157 178.114" stroke="#000000" stroke-width="0.398" fill="none" /><path id="1616" transform="matrix(1 0 0 -1 0 841)" d="M169.297 178.114L211.658 178.114" stroke="#000000" stroke-width="0.398" fill="none" /><path id="1636" transform="matrix(1 0 0 -1 0 841)" d="M221.797 178.114L248.662 178.114" stroke="#000000" stroke-width="0.398" fill="none" /><path id="1647" transform="matrix(1 0 0 -1 0 841)" d="M258.802 178.114L281.42 178.114" stroke="#000000" stroke-width="0.398" fill="none" /><path id="1658" transform="matrix(1 0 0 -1 0 841)" d="M291.559 178.114L312.828 178.114" stroke="#000000" stroke-width="0.398" fill="none" /><path id="1670" transform="matrix(1 0 0 -1 0 841)" d="M322.968 178.114L339.755 178.114" stroke="#000000" stroke-width="0.398" fill="none" /><path id="1679" transform="matrix(1 0 0 -1 0 841)" d="M357.702 178.114L377.627 178.114" stroke="#000000" stroke-width="0.398" fill="none" /><path id="1683" transform="matrix(1 0 0 -1 0 841)" d="M353.119 192.834L382.21 192.834" stroke="#000000" stroke-width="0.398" fill="none" /><path id="1684" transform="matrix(1 0 0 -1 0 841)" d="M353.318 163.569L353.318 192.834" stroke="#000000" stroke-width="0.398" fill="none" /><path id="1685" transform="matrix(1 0 0 -1 0 841)" d="M382.011 163.569L382.011 192.834" stroke="#000000" stroke-width="0.398" fill="none" /><path id="1686" transform="matrix(1 0 0 -1 0 841)" d="M353.119 163.569L382.21 163.569" stroke="#000000" stroke-width="0.398" fill="none" /><g transform="matrix(0.2 0 0 0.2 249.239 774.845)"><g transform="matrix(1 0 0 1 0 0)"><image x="0" y="0" xlink:href="img_04.png" width="484" height="104" /></g></g></g></g></svg>