<svg xmlns="http://www.w3.org/2000/svg" xmlns:xlink="http://www.w3.org/1999/xlink" id="body_155" preserveAspectRatio="xMinYMin meet" viewBox="0 0 1121 793"><defs><clipPath id="1"><path id="" clip-rule="evenodd" transform="matrix(1 0 0 1 0 0)" d="M0 -0.276001L841.89 -0.276001L841.89 -0.276001L841.89 595L841.89 595L3.644894E-14 595L3.644894E-14 595L0 -0.276001z" /></clipPath></defs><g transform="matrix(1.333333 0 0 1.333333 0 0)"><g clip-path="url(#1)"><path id="1" transform="matrix(1 0 0 -1 0 595)" d="M85.03899 463.518L791.631 463.518L791.631 465.219L85.03899 465.219z" stroke="none" fill="#000000" fill-rule="nonzero" /><path id="2" transform="matrix(1 0 0 -1 0 595)" d="M85.03899 425.62L86.73999 425.62L86.73999 463.518L85.03899 463.518z" stroke="none" fill="#000000" fill-rule="nonzero" /><path id="15" transform="matrix(1 0 0 -1 0 595)" d="M301.105 425.62L302.806 425.62L302.806 463.518L301.105 463.518z" stroke="none" fill="#000000" fill-rule="nonzero" /><path id="21" transform="matrix(1 0 0 -1 0 595)" d="M432.132 425.62L433.8329 425.62L433.8329 463.518L432.132 463.518z" stroke="none" fill="#000000" fill-rule="nonzero" /><path id="28" transform="matrix(1 0 0 -1 0 595)" d="M789.931 425.62L791.632 425.62L791.632 463.518L789.931 463.518z" stroke="none" fill="#000000" fill-rule="nonzero" /><path id="29" transform="matrix(1 0 0 -1 0 595)" d="M85.03899 423.919L791.631 423.919L791.631 425.62L85.03899 425.62z" stroke="none" fill="#000000" fill-rule="nonzero" /><path id="30" transform="matrix(1 0 0 -1 0 595)" d="M85.03899 367.013L86.73999 367.013L86.73999 423.92L85.03899 423.92z" stroke="none" fill="#000000" fill-rule="nonzero" /><path id="62" transform="matrix(1 0 0 -1 0 595)" d="M301.105 367.013L302.806 367.013L302.806 423.92L301.105 423.92z" stroke="none" fill="#000000" fill-rule="nonzero" /><path id="100" transform="matrix(1 0 0 -1 0 595)" d="M432.132 367.013L433.8329 367.013L433.8329 423.92L432.132 423.92z" stroke="none" fill="#000000" fill-rule="nonzero" /><path id="317" transform="matrix(1 0 0 -1 0 595)" d="M789.931 367.013L791.632 367.013L791.632 423.92L789.931 423.92z" stroke="none" fill="#000000" fill-rule="nonzero" /><path id="318" transform="matrix(1 0 0 -1 0 595)" d="M85.03899 365.312L791.631 365.312L791.631 367.013L85.03899 367.013z" stroke="none" fill="#000000" fill-rule="nonzero" /><path id="319" transform="matrix(1 0 0 -1 0 595)" d="M85.03899 321.954L86.73999 321.954L86.73999 365.311L85.03899 365.311z" stroke="none" fill="#000000" fill-rule="nonzero" /><path id="386" transform="matrix(1 0 0 -1 0 595)" d="M301.105 321.954L302.806 321.954L302.806 365.311L301.105 365.311z" stroke="none" fill="#000000" fill-rule="nonzero" /><path id="416" transform="matrix(1 0 0 -1 0 595)" d="M432.132 321.954L433.8329 321.954L433.8329 365.311L432.132 365.311z" stroke="none" fill="#000000" fill-rule="nonzero" /><path id="597" transform="matrix(1 0 0 -1 0 595)" d="M789.931 321.954L791.632 321.954L791.632 365.311L789.931 365.311z" stroke="none" fill="#000000" fill-rule="nonzero" /><path id="598" transform="matrix(1 0 0 -1 0 595)" d="M85.03899 320.254L791.631 320.254L791.631 321.955L85.03899 321.955z" stroke="none" fill="#000000" fill-rule="nonzero" /><path id="599" transform="matrix(1 0 0 -1 0 595)" d="M85.03899 276.896L86.73999 276.896L86.73999 320.253L85.03899 320.253z" stroke="none" fill="#000000" fill-rule="nonzero" /><path id="701" transform="matrix(1 0 0 -1 0 595)" d="M301.105 276.896L302.806 276.896L302.806 320.253L301.105 320.253z" stroke="none" fill="#000000" fill-rule="nonzero" /><path id="740" transform="matrix(1 0 0 -1 0 595)" d="M432.132 276.896L433.8329 276.896L433.8329 320.253L432.132 320.253z" stroke="none" fill="#000000" fill-rule="nonzero" /><path id="834" transform="matrix(1 0 0 -1 0 595)" d="M789.931 276.896L791.632 276.896L791.632 320.253L789.931 320.253z" stroke="none" fill="#000000" fill-rule="nonzero" /><path id="835" transform="matrix(1 0 0 -1 0 595)" d="M85.03899 275.196L791.631 275.196L791.631 276.897L85.03899 276.897z" stroke="none" fill="#000000" fill-rule="nonzero" /><path id="836" transform="matrix(1 0 0 -1 0 595)" d="M85.03899 231.838L86.73999 231.838L86.73999 275.195L85.03899 275.195z" stroke="none" fill="#000000" fill-rule="nonzero" /><path id="903" transform="matrix(1 0 0 -1 0 595)" d="M301.105 231.838L302.806 231.838L302.806 275.195L301.105 275.195z" stroke="none" fill="#000000" fill-rule="nonzero" /><path id="953" transform="matrix(1 0 0 -1 0 595)" d="M432.132 231.838L433.8329 231.838L433.8329 275.195L432.132 275.195z" stroke="none" fill="#000000" fill-rule="nonzero" /><path id="954" transform="matrix(1 0 0 -1 0 595)" d="M789.931 231.838L791.632 231.838L791.632 275.195L789.931 275.195z" stroke="none" fill="#000000" fill-rule="nonzero" /><path id="955" transform="matrix(1 0 0 -1 0 595)" d="M85.03899 230.137L791.631 230.137L791.631 231.838L85.03899 231.838z" stroke="none" fill="#000000" fill-rule="nonzero" /><path id="956" transform="matrix(1 0 0 -1 0 595)" d="M85.03899 200.329L86.73999 200.329L86.73999 230.137L85.03899 230.137z" stroke="none" fill="#000000" fill-rule="nonzero" /><path id="996" transform="matrix(1 0 0 -1 0 595)" d="M301.105 200.329L302.806 200.329L302.806 230.137L301.105 230.137z" stroke="none" fill="#000000" fill-rule="nonzero" /><path id="1011" transform="matrix(1 0 0 -1 0 595)" d="M432.132 200.329L433.8329 200.329L433.8329 230.137L432.132 230.137z" stroke="none" fill="#000000" fill-rule="nonzero" /><path id="1012" transform="matrix(1 0 0 -1 0 595)" d="M789.931 200.329L791.632 200.329L791.632 230.137L789.931 230.137z" stroke="none" fill="#000000" fill-rule="nonzero" /><path id="1013" transform="matrix(1 0 0 -1 0 595)" d="M85.03899 198.628L791.631 198.628L791.631 200.329L85.03899 200.329z" stroke="none" fill="#000000" fill-rule="nonzero" /><path id="1014" transform="matrix(1 0 0 -1 0 595)" d="M85.03899 155.271L86.73999 155.271L86.73999 198.628L85.03899 198.628z" stroke="none" fill="#000000" fill-rule="nonzero" /><path id="1020" transform="matrix(1 0 0 -1 0 595)" d="M301.105 155.271L302.806 155.271L302.806 198.628L301.105 198.628z" stroke="none" fill="#000000" fill-rule="nonzero" /><path id="1042" transform="matrix(1 0 0 -1 0 595)" d="M432.132 155.271L433.8329 155.271L433.8329 198.628L432.132 198.628z" stroke="none" fill="#000000" fill-rule="nonzero" /><path id="1219" transform="matrix(1 0 0 -1 0 595)" d="M789.931 155.271L791.632 155.271L791.632 198.628L789.931 198.628z" stroke="none" fill="#000000" fill-rule="nonzero" /><path id="1220" transform="matrix(1 0 0 -1 0 595)" d="M85.03899 153.57L791.631 153.57L791.631 155.271L85.03899 155.271z" stroke="none" fill="#000000" fill-rule="nonzero" /></g></g></svg>