<svg xmlns="http://www.w3.org/2000/svg" xmlns:xlink="http://www.w3.org/1999/xlink" id="body_332" preserveAspectRatio="xMinYMin meet" viewBox="0 0 793 1121"><defs><clipPath id="1"><path id="" clip-rule="evenodd" transform="matrix(1 0 0 1 0 0)" d="M0 841L0 -0.8900146L0 -0.8900146L595.276 -0.8900146L595.276 -0.8900146L595.276 841L595.276 841L0 841z" /></clipPath></defs><g transform="matrix(1.333333 0 0 1.333333 0 0)"><g clip-path="url(#1)"><path id="22" transform="matrix(1 0 0 -1 0 841)" d="M85.039 766.564L510.236 766.564" stroke="#000000" stroke-width="0.498" fill="none" /><path id="122" transform="matrix(1 0 0 -1 0 841)" d="M328.1976 714.5288L263.4404 714.5288C 261.2395 714.5288 259.4553 712.7446 259.4553 710.5437L259.4553 710.5437L259.4553 685.7863C 259.4553 683.5853 261.2395 681.8011 263.4404 681.8011L263.4404 681.8011L328.1976 681.8011C 330.3985 681.8011 332.1827 683.5853 332.1827 685.7863L332.1827 685.7863L332.1827 710.5437C 332.1827 712.7446 330.3985 714.5288 328.1976 714.5288z" stroke="#000000" stroke-width="0.3985" fill="#FF9999" fill-rule="nonzero" /><path id="156" transform="matrix(1 0 0 -1 0 841)" d="M196.1965 698.165L256.8651 698.165" stroke="#000000" stroke-width="0.3985" fill="none" /><path id="157" transform="matrix(1 0 0 -1 0 841)" d="M259.256 698.165C 258.2598 698.3643 256.4665 698.7628 255.271 699.6594C 256.2673 698.5635 256.2673 697.7665 255.271 696.6706C 256.4665 697.5672 258.2598 697.9657 259.256 698.165z" stroke="none" fill="#000000" fill-rule="nonzero" /><path id="170" transform="matrix(1 0 0 -1 0 841)" d="M332.3819 698.165L389.4122 698.165" stroke="#000000" stroke-width="0.3985" fill="none" /><path id="171" transform="matrix(1 0 0 -1 0 841)" d="M391.8033 698.165C 390.807 698.3643 389.0137 698.7628 387.8182 699.6594C 388.8145 698.5635 388.8145 697.7665 387.8182 696.6706C 389.0137 697.5672 390.807 697.9657 391.8033 698.165z" stroke="none" fill="#000000" fill-rule="nonzero" /><path id="184" transform="matrix(1 0 0 -1 0 841)" d="M295.819 681.6019L295.819 666.7665" stroke="#000000" stroke-width="0.3985" fill="none" /><path id="185" transform="matrix(1 0 0 -1 0 841)" d="M295.819 664.3755C 296.0182 665.3717 296.4167 667.165 297.3134 668.3605C 296.2175 667.3643 295.4205 667.3643 294.3246 668.3605C 295.2213 667.165 295.6198 665.3717 295.819 664.3755z" stroke="none" fill="#000000" fill-rule="nonzero" /><path id="188" transform="matrix(1 0 0 -1 0 841)" d="M113.508 622.085L128.88 622.085" stroke="#000000" stroke-width="0.398" fill="none" /><path id="207" transform="matrix(1 0 0 -1 0 841)" d="M148.431 622.085L218.746 622.085" stroke="#000000" stroke-width="0.398" fill="none" /><path id="214" transform="matrix(1 0 0 -1 0 841)" d="M233.305 622.085L268.72 622.085" stroke="#000000" stroke-width="0.398" fill="none" /><path id="237" transform="matrix(1 0 0 -1 0 841)" d="M296.01 622.085L366.325 622.085" stroke="#000000" stroke-width="0.398" fill="none" /><path id="296" transform="matrix(1 0 0 -1 0 841)" d="M338.986 610.738L381.138 610.738" stroke="#000000" stroke-width="0.398" fill="none" /><path id="297" transform="matrix(1 0 0 -1 0 841)" d="M339.185 594.454L339.185 610.738" stroke="#000000" stroke-width="0.398" fill="none" /><path id="298" transform="matrix(1 0 0 -1 0 841)" d="M380.938 594.454L380.938 610.738" stroke="#000000" stroke-width="0.398" fill="none" /><path id="299" transform="matrix(1 0 0 -1 0 841)" d="M338.986 594.454L381.138 594.454" stroke="#000000" stroke-width="0.398" fill="none" /><path id="341" transform="matrix(1 0 0 -1 0 841)" d="M192.093 513.139L206.997 513.139" stroke="#000000" stroke-width="0.398" fill="none" /><path id="362" transform="matrix(1 0 0 -1 0 841)" d="M285.725 513.139L297.899 513.139" stroke="#000000" stroke-width="0.398" fill="none" /><path id="546" transform="matrix(1 0 0 -1 0 841)" d="M112.063 445.836L123.629 445.836L123.629 457.044L112.063 457.044z" stroke="none" fill="#FFF100" fill-rule="nonzero" /><path id="549" transform="matrix(1 0 0 -1 0 841)" d="M123.131 445.836L136.909 445.836L136.909 457.044L123.131 457.044z" stroke="none" fill="#FFF100" fill-rule="nonzero" /><path id="553" transform="matrix(1 0 0 -1 0 841)" d="M136.412 445.836L151.854 445.836L151.854 457.044L136.412 457.044z" stroke="none" fill="#FFF100" fill-rule="nonzero" /><path id="558" transform="matrix(1 0 0 -1 0 841)" d="M151.604 445.836L154.095 445.836L154.095 457.044L151.604 457.044z" stroke="none" fill="#FFF100" fill-rule="nonzero" /><path id="559" transform="matrix(1 0 0 -1 0 841)" d="M153.846 445.836L178.144 445.836L178.144 457.044L153.846 457.044z" stroke="none" fill="#FFF100" fill-rule="nonzero" /><path id="568" transform="matrix(1 0 0 -1 0 841)" d="M136.063 430.875L152.053 430.875L152.053 442.083L136.063 442.083z" stroke="none" fill="#FFF100" fill-rule="nonzero" /><path id="572" transform="matrix(1 0 0 -1 0 841)" d="M151.82 430.875L154.315 430.875L154.315 442.083L151.82 442.083z" stroke="none" fill="#FFF100" fill-rule="nonzero" /><path id="573" transform="matrix(1 0 0 -1 0 841)" d="M154.066 430.875L170.066 430.875L170.066 442.083L154.066 442.083z" stroke="none" fill="#FFF100" fill-rule="nonzero" /><path id="578" transform="matrix(1 0 0 -1 0 841)" d="M169.832 430.875L172.327 430.875L172.327 442.083L169.832 442.083z" stroke="none" fill="#FFF100" fill-rule="nonzero" /><path id="579" transform="matrix(1 0 0 -1 0 841)" d="M172.078 430.875L180.875 430.875L180.875 442.083L172.078 442.083z" stroke="none" fill="#FFF100" fill-rule="nonzero" /><path id="582" transform="matrix(1 0 0 -1 0 841)" d="M180.634 430.875L183.129 430.875L183.129 442.083L180.634 442.083z" stroke="none" fill="#FFF100" fill-rule="nonzero" /><path id="583" transform="matrix(1 0 0 -1 0 841)" d="M182.88 430.875L195.552 430.875L195.552 442.083L182.88 442.083z" stroke="none" fill="#FFF100" fill-rule="nonzero" /><path id="587" transform="matrix(1 0 0 -1 0 841)" d="M195.316 430.875L197.811 430.875L197.811 442.083L195.316 442.083z" stroke="none" fill="#FFF100" fill-rule="nonzero" /><path id="588" transform="matrix(1 0 0 -1 0 841)" d="M197.562 430.875L212.446 430.875L212.446 442.083L197.562 442.083z" stroke="none" fill="#FFF100" fill-rule="nonzero" /><path id="592" transform="matrix(1 0 0 -1 0 841)" d="M211.962 430.875L241.8 430.875L241.8 442.083L211.962 442.083z" stroke="none" fill="#FFF100" fill-rule="nonzero" /><path id="601" transform="matrix(1 0 0 -1 0 841)" d="M241.58 430.875L244.075 430.875L244.075 442.083L241.58 442.083z" stroke="none" fill="#FFF100" fill-rule="nonzero" /><path id="602" transform="matrix(1 0 0 -1 0 841)" d="M243.826 430.875L261.48 430.875L261.48 442.083L243.826 442.083z" stroke="none" fill="#FFF100" fill-rule="nonzero" /><path id="607" transform="matrix(1 0 0 -1 0 841)" d="M260.999 430.875L274.229 430.875L274.229 442.083L260.999 442.083z" stroke="none" fill="#FFF100" fill-rule="nonzero" /><path id="611" transform="matrix(1 0 0 -1 0 841)" d="M273.993 430.875L276.488 430.875L276.488 442.083L273.993 442.083z" stroke="none" fill="#FFF100" fill-rule="nonzero" /><path id="612" transform="matrix(1 0 0 -1 0 841)" d="M276.239 430.875L291.671 430.875L291.671 442.083L276.239 442.083z" stroke="none" fill="#FFF100" fill-rule="nonzero" /><path id="617" transform="matrix(1 0 0 -1 0 841)" d="M291.437 430.875L293.932 430.875L293.932 442.083L291.437 442.083z" stroke="none" fill="#FFF100" fill-rule="nonzero" /><path id="618" transform="matrix(1 0 0 -1 0 841)" d="M293.683 430.875L309.683 430.875L309.683 442.083L293.683 442.083z" stroke="none" fill="#FFF100" fill-rule="nonzero" /><path id="623" transform="matrix(1 0 0 -1 0 841)" d="M309.449 430.875L311.944 430.875L311.944 442.083L309.449 442.083z" stroke="none" fill="#FFF100" fill-rule="nonzero" /><path id="624" transform="matrix(1 0 0 -1 0 841)" d="M311.695 430.875L321.598 430.875L321.598 442.083L311.695 442.083z" stroke="none" fill="#FFF100" fill-rule="nonzero" /><path id="627" transform="matrix(1 0 0 -1 0 841)" d="M321.358 430.875L323.853 430.875L323.853 442.083L321.358 442.083z" stroke="none" fill="#FFF100" fill-rule="nonzero" /><path id="628" transform="matrix(1 0 0 -1 0 841)" d="M323.604 430.875L331.853 430.875L331.853 442.083L323.604 442.083z" stroke="none" fill="#FFF100" fill-rule="nonzero" /><path id="631" transform="matrix(1 0 0 -1 0 841)" d="M331.612 430.875L334.107 430.875L334.107 442.083L331.612 442.083z" stroke="none" fill="#FFF100" fill-rule="nonzero" /><path id="632" transform="matrix(1 0 0 -1 0 841)" d="M333.858 430.875L345.982 430.875L345.982 442.083L333.858 442.083z" stroke="none" fill="#FFF100" fill-rule="nonzero" /><path id="636" transform="matrix(1 0 0 -1 0 841)" d="M345.745 430.875L348.24 430.875L348.24 442.083L345.745 442.083z" stroke="none" fill="#FFF100" fill-rule="nonzero" /><path id="637" transform="matrix(1 0 0 -1 0 841)" d="M347.991 430.875L361.211 430.875L361.211 442.083L347.991 442.083z" stroke="none" fill="#FFF100" fill-rule="nonzero" /><path id="641" transform="matrix(1 0 0 -1 0 841)" d="M360.975 430.875L363.47 430.875L363.47 442.083L360.975 442.083z" stroke="none" fill="#FFF100" fill-rule="nonzero" /><path id="642" transform="matrix(1 0 0 -1 0 841)" d="M363.221 430.875L375.893 430.875L375.893 442.083L363.221 442.083z" stroke="none" fill="#FFF100" fill-rule="nonzero" /><path id="646" transform="matrix(1 0 0 -1 0 841)" d="M375.656 430.875L378.151 430.875L378.151 442.083L375.656 442.083z" stroke="none" fill="#FFF100" fill-rule="nonzero" /><path id="647" transform="matrix(1 0 0 -1 0 841)" d="M377.903 430.875L393.903 430.875L393.903 442.083L377.903 442.083z" stroke="none" fill="#FFF100" fill-rule="nonzero" /><path id="652" transform="matrix(1 0 0 -1 0 841)" d="M393.669 430.875L396.164 430.875L396.164 442.083L393.669 442.083z" stroke="none" fill="#FFF100" fill-rule="nonzero" /><path id="653" transform="matrix(1 0 0 -1 0 841)" d="M395.915 430.875L404.712 430.875L404.712 442.083L395.915 442.083z" stroke="none" fill="#FFF100" fill-rule="nonzero" /><path id="656" transform="matrix(1 0 0 -1 0 841)" d="M404.471 430.875L406.966 430.875L406.966 442.083L404.471 442.083z" stroke="none" fill="#FFF100" fill-rule="nonzero" /><path id="657" transform="matrix(1 0 0 -1 0 841)" d="M406.717 430.875L424.928 430.875L424.928 442.083L406.717 442.083z" stroke="none" fill="#FFF100" fill-rule="nonzero" /><path id="662" transform="matrix(1 0 0 -1 0 841)" d="M424.697 430.875L427.192 430.875L427.192 442.083L424.697 442.083z" stroke="none" fill="#FFF100" fill-rule="nonzero" /><path id="663" transform="matrix(1 0 0 -1 0 841)" d="M426.943 430.875L439.615 430.875L439.615 442.083L426.943 442.083z" stroke="none" fill="#FFF100" fill-rule="nonzero" /><path id="667" transform="matrix(1 0 0 -1 0 841)" d="M439.379 430.875L441.874 430.875L441.874 442.083L439.379 442.083z" stroke="none" fill="#FFF100" fill-rule="nonzero" /><path id="668" transform="matrix(1 0 0 -1 0 841)" d="M441.625 430.875L459.588 430.875L459.588 442.083L441.625 442.083z" stroke="none" fill="#FFF100" fill-rule="nonzero" /><path id="672" transform="matrix(1 0 0 -1 0 841)" d="M459.356 430.875L461.851 430.875L461.851 442.083L459.356 442.083z" stroke="none" fill="#FFF100" fill-rule="nonzero" /><path id="673" transform="matrix(1 0 0 -1 0 841)" d="M461.602 430.875L468.745 430.875L468.745 442.083L461.602 442.083z" stroke="none" fill="#FFF100" fill-rule="nonzero" /><path id="676" transform="matrix(1 0 0 -1 0 841)" d="M468.503 430.875L470.998 430.875L470.998 442.083L468.503 442.083z" stroke="none" fill="#FFF100" fill-rule="nonzero" /><path id="677" transform="matrix(1 0 0 -1 0 841)" d="M470.749 430.875L480.502 430.875L480.502 442.083L470.749 442.083z" stroke="none" fill="#FFF100" fill-rule="nonzero" /><path id="680" transform="matrix(1 0 0 -1 0 841)" d="M480.014 430.875L510.39 430.875L510.39 442.083L480.014 442.083z" stroke="none" fill="#FFF100" fill-rule="nonzero" /><path id="688" transform="matrix(1 0 0 -1 0 841)" d="M136.063 415.931L146.803 415.931L146.803 427.139L136.063 427.139z" stroke="none" fill="#FFF100" fill-rule="nonzero" /><path id="692" transform="matrix(1 0 0 -1 0 841)" d="M146.4 415.931L148.887 415.931L148.887 427.139L146.4 427.139z" stroke="none" fill="#FFF100" fill-rule="nonzero" /><path id="693" transform="matrix(1 0 0 -1 0 841)" d="M148.638 415.931L159.657 415.931L159.657 427.139L148.638 427.139z" stroke="none" fill="#FFF100" fill-rule="nonzero" /><path id="696" transform="matrix(1 0 0 -1 0 841)" d="M159.25 415.931L161.737 415.931L161.737 427.139L159.25 427.139z" stroke="none" fill="#FFF100" fill-rule="nonzero" /><path id="697" transform="matrix(1 0 0 -1 0 841)" d="M161.487 415.931L168.072 415.931L168.072 427.139L161.487 427.139z" stroke="none" fill="#FFF100" fill-rule="nonzero" /><path id="700" transform="matrix(1 0 0 -1 0 841)" d="M167.732 415.931L170.219 415.931L170.219 427.139L167.732 427.139z" stroke="none" fill="#FFF100" fill-rule="nonzero" /><path id="701" transform="matrix(1 0 0 -1 0 841)" d="M169.97 415.931L182.642 415.931L182.642 427.139L169.97 427.139z" stroke="none" fill="#FFF100" fill-rule="nonzero" /><path id="705" transform="matrix(1 0 0 -1 0 841)" d="M182.211 415.931L184.698 415.931L184.698 427.139L182.211 427.139z" stroke="none" fill="#FFF100" fill-rule="nonzero" /><path id="706" transform="matrix(1 0 0 -1 0 841)" d="M184.449 415.931L202.412 415.931L202.412 427.139L184.449 427.139z" stroke="none" fill="#FFF100" fill-rule="nonzero" /><path id="710" transform="matrix(1 0 0 -1 0 841)" d="M201.896 415.931L204.383 415.931L204.383 427.139L201.896 427.139z" stroke="none" fill="#FFF100" fill-rule="nonzero" /><path id="711" transform="matrix(1 0 0 -1 0 841)" d="M204.134 415.931L211.277 415.931L211.277 427.139L204.134 427.139z" stroke="none" fill="#FFF100" fill-rule="nonzero" /><path id="714" transform="matrix(1 0 0 -1 0 841)" d="M210.928 415.931L213.415 415.931L213.415 427.139L210.928 427.139z" stroke="none" fill="#FFF100" fill-rule="nonzero" /><path id="715" transform="matrix(1 0 0 -1 0 841)" d="M213.166 415.931L221.415 415.931L221.415 427.139L213.166 427.139z" stroke="none" fill="#FFF100" fill-rule="nonzero" /><path id="718" transform="matrix(1 0 0 -1 0 841)" d="M221.05 415.931L223.537 415.931L223.537 427.139L221.05 427.139z" stroke="none" fill="#FFF100" fill-rule="nonzero" /><path id="719" transform="matrix(1 0 0 -1 0 841)" d="M223.288 415.931L239.836 415.931L239.836 427.139L223.288 427.139z" stroke="none" fill="#FFF100" fill-rule="nonzero" /><path id="722" transform="matrix(1 0 0 -1 0 841)" d="M239.346 415.931L241.833 415.931L241.833 427.139L239.346 427.139z" stroke="none" fill="#FFF100" fill-rule="nonzero" /><path id="723" transform="matrix(1 0 0 -1 0 841)" d="M241.584 415.931L254.804 415.931L254.804 427.139L241.584 427.139z" stroke="none" fill="#FFF100" fill-rule="nonzero" /><path id="727" transform="matrix(1 0 0 -1 0 841)" d="M254.364 415.931L256.851 415.931L256.851 427.139L254.364 427.139z" stroke="none" fill="#FFF100" fill-rule="nonzero" /><path id="728" transform="matrix(1 0 0 -1 0 841)" d="M256.602 415.931L271.486 415.931L271.486 427.139L256.602 427.139z" stroke="none" fill="#FFF100" fill-rule="nonzero" /><path id="732" transform="matrix(1 0 0 -1 0 841)" d="M271.021 415.931L273.508 415.931L273.508 427.139L271.021 427.139z" stroke="none" fill="#FFF100" fill-rule="nonzero" /><path id="733" transform="matrix(1 0 0 -1 0 841)" d="M273.259 415.931L285.931 415.931L285.931 427.139L273.259 427.139z" stroke="none" fill="#FFF100" fill-rule="nonzero" /><path id="737" transform="matrix(1 0 0 -1 0 841)" d="M285.5 415.931L287.987 415.931L287.987 427.139L285.5 427.139z" stroke="none" fill="#FFF100" fill-rule="nonzero" /><path id="738" transform="matrix(1 0 0 -1 0 841)" d="M287.738 415.931L299.852 415.931L299.852 427.139L287.738 427.139z" stroke="none" fill="#FFF100" fill-rule="nonzero" /><path id="742" transform="matrix(1 0 0 -1 0 841)" d="M299.179 415.931L309.082 415.931L309.082 427.139L299.179 427.139z" stroke="none" fill="#FFF100" fill-rule="nonzero" /><path id="745" transform="matrix(1 0 0 -1 0 841)" d="M308.443 415.931L328.308 415.931L328.308 427.139L308.443 427.139z" stroke="none" fill="#FFF100" fill-rule="nonzero" /><path id="751" transform="matrix(1 0 0 -1 0 841)" d="M327.769 415.931L330.256 415.931L330.256 427.139L327.769 427.139z" stroke="none" fill="#FFF100" fill-rule="nonzero" /><path id="752" transform="matrix(1 0 0 -1 0 841)" d="M330.007 415.931L347.661 415.931L347.661 427.139L330.007 427.139z" stroke="none" fill="#FFF100" fill-rule="nonzero" /><path id="757" transform="matrix(1 0 0 -1 0 841)" d="M346.905 415.931L360.135 415.931L360.135 427.139L346.905 427.139z" stroke="none" fill="#FFF100" fill-rule="nonzero" /><path id="761" transform="matrix(1 0 0 -1 0 841)" d="M359.695 415.931L362.182 415.931L362.182 427.139L359.695 427.139z" stroke="none" fill="#FFF100" fill-rule="nonzero" /><path id="762" transform="matrix(1 0 0 -1 0 841)" d="M361.933 415.931L377.365 415.931L377.365 427.139L361.933 427.139z" stroke="none" fill="#FFF100" fill-rule="nonzero" /><path id="767" transform="matrix(1 0 0 -1 0 841)" d="M376.892 415.931L379.379 415.931L379.379 427.139L376.892 427.139z" stroke="none" fill="#FFF100" fill-rule="nonzero" /><path id="768" transform="matrix(1 0 0 -1 0 841)" d="M379.129 415.931L395.129 415.931L395.129 427.139L379.129 427.139z" stroke="none" fill="#FFF100" fill-rule="nonzero" /><path id="773" transform="matrix(1 0 0 -1 0 841)" d="M394.647 415.931L397.134 415.931L397.134 427.139L394.647 427.139z" stroke="none" fill="#FFF100" fill-rule="nonzero" /><path id="774" transform="matrix(1 0 0 -1 0 841)" d="M396.885 415.931L406.788 415.931L406.788 427.139L396.885 427.139z" stroke="none" fill="#FFF100" fill-rule="nonzero" /><path id="777" transform="matrix(1 0 0 -1 0 841)" d="M406.398 415.931L408.885 415.931L408.885 427.139L406.398 427.139z" stroke="none" fill="#FFF100" fill-rule="nonzero" /><path id="778" transform="matrix(1 0 0 -1 0 841)" d="M408.636 415.931L416.885 415.931L416.885 427.139L408.636 427.139z" stroke="none" fill="#FFF100" fill-rule="nonzero" /><path id="781" transform="matrix(1 0 0 -1 0 841)" d="M416.519 415.931L419.006 415.931L419.006 427.139L416.519 427.139z" stroke="none" fill="#FFF100" fill-rule="nonzero" /><path id="782" transform="matrix(1 0 0 -1 0 841)" d="M418.757 415.931L449.88 415.931L449.88 427.139L418.757 427.139z" stroke="none" fill="#FFF100" fill-rule="nonzero" /><path id="791" transform="matrix(1 0 0 -1 0 841)" d="M449.162 415.931L451.649 415.931L451.649 427.139L449.162 427.139z" stroke="none" fill="#FFF100" fill-rule="nonzero" /><path id="792" transform="matrix(1 0 0 -1 0 841)" d="M451.4 415.931L469.811 415.931L469.811 427.139L451.4 427.139z" stroke="none" fill="#FFF100" fill-rule="nonzero" /><path id="797" transform="matrix(1 0 0 -1 0 841)" d="M469.039 415.931L487.798 415.931L487.798 427.139L469.039 427.139z" stroke="none" fill="#FFF100" fill-rule="nonzero" /><path id="802" transform="matrix(1 0 0 -1 0 841)" d="M487.275 415.931L489.762 415.931L489.762 427.139L487.275 427.139z" stroke="none" fill="#FFF100" fill-rule="nonzero" /><path id="803" transform="matrix(1 0 0 -1 0 841)" d="M489.513 415.931L496.098 415.931L496.098 427.139L489.513 427.139z" stroke="none" fill="#FFF100" fill-rule="nonzero" /><path id="806" transform="matrix(1 0 0 -1 0 841)" d="M495.758 415.931L498.245 415.931L498.245 427.139L495.758 427.139z" stroke="none" fill="#FFF100" fill-rule="nonzero" /><path id="807" transform="matrix(1 0 0 -1 0 841)" d="M497.996 415.931L510.668 415.931L510.668 427.139L497.996 427.139z" stroke="none" fill="#FFF100" fill-rule="nonzero" /><path id="811" transform="matrix(1 0 0 -1 0 841)" d="M136.063 400.987L154.026 400.987L154.026 412.195L136.063 412.195z" stroke="none" fill="#FFF100" fill-rule="nonzero" /><path id="815" transform="matrix(1 0 0 -1 0 841)" d="M153.777 400.987L156.268 400.987L156.268 412.195L153.777 412.195z" stroke="none" fill="#FFF100" fill-rule="nonzero" /><path id="816" transform="matrix(1 0 0 -1 0 841)" d="M156.018 400.987L177.846 400.987L177.846 412.195L156.018 412.195z" stroke="none" fill="#FFF100" fill-rule="nonzero" /><path id="822" transform="matrix(1 0 0 -1 0 841)" d="M177.597 400.987L180.088 400.987L180.088 412.195L177.597 412.195z" stroke="none" fill="#FFF100" fill-rule="nonzero" /><path id="823" transform="matrix(1 0 0 -1 0 841)" d="M179.839 400.987L198.598 400.987L198.598 412.195L179.839 412.195z" stroke="none" fill="#FFF100" fill-rule="nonzero" /><path id="828" transform="matrix(1 0 0 -1 0 841)" d="M198.349 400.987L200.84 400.987L200.84 412.195L198.349 412.195z" stroke="none" fill="#FFF100" fill-rule="nonzero" /><path id="829" transform="matrix(1 0 0 -1 0 841)" d="M200.591 400.987L207.734 400.987L207.734 412.195L200.591 412.195z" stroke="none" fill="#FFF100" fill-rule="nonzero" /><path id="832" transform="matrix(1 0 0 -1 0 841)" d="M207.485 400.987L209.976 400.987L209.976 412.195L207.485 412.195z" stroke="none" fill="#FFF100" fill-rule="nonzero" /><path id="833" transform="matrix(1 0 0 -1 0 841)" d="M209.726 400.987L217.975 400.987L217.975 412.195L209.726 412.195z" stroke="none" fill="#FFF100" fill-rule="nonzero" /><path id="836" transform="matrix(1 0 0 -1 0 841)" d="M217.726 400.987L220.217 400.987L220.217 412.195L217.726 412.195z" stroke="none" fill="#FFF100" fill-rule="nonzero" /><path id="837" transform="matrix(1 0 0 -1 0 841)" d="M219.968 400.987L236.516 400.987L236.516 412.195L219.968 412.195z" stroke="none" fill="#FFF100" fill-rule="nonzero" /><path id="840" transform="matrix(1 0 0 -1 0 841)" d="M236.266 400.987L238.757 400.987L238.757 412.195L236.266 412.195z" stroke="none" fill="#FFF100" fill-rule="nonzero" /><path id="841" transform="matrix(1 0 0 -1 0 841)" d="M238.508 400.987L251.728 400.987L251.728 412.195L238.508 412.195z" stroke="none" fill="#FFF100" fill-rule="nonzero" /><path id="845" transform="matrix(1 0 0 -1 0 841)" d="M251.479 400.987L253.97 400.987L253.97 412.195L251.479 412.195z" stroke="none" fill="#FFF100" fill-rule="nonzero" /><path id="846" transform="matrix(1 0 0 -1 0 841)" d="M253.721 400.987L284.386 400.987L284.386 412.195L253.721 412.195z" stroke="none" fill="#FFF100" fill-rule="nonzero" /><path id="854" transform="matrix(1 0 0 -1 0 841)" d="M284.136 400.987L286.627 400.987L286.627 412.195L284.136 412.195z" stroke="none" fill="#FFF100" fill-rule="nonzero" /><path id="855" transform="matrix(1 0 0 -1 0 841)" d="M286.378 400.987L299.05 400.987L299.05 412.195L286.378 412.195z" stroke="none" fill="#FFF100" fill-rule="nonzero" /><path id="859" transform="matrix(1 0 0 -1 0 841)" d="M298.801 400.987L301.292 400.987L301.292 412.195L298.801 412.195z" stroke="none" fill="#FFF100" fill-rule="nonzero" /><path id="860" transform="matrix(1 0 0 -1 0 841)" d="M301.043 400.987L313.157 400.987L313.157 412.195L301.043 412.195z" stroke="none" fill="#FFF100" fill-rule="nonzero" /><path id="864" transform="matrix(1 0 0 -1 0 841)" d="M312.659 400.987L322.562 400.987L322.562 412.195L312.659 412.195z" stroke="none" fill="#FFF100" fill-rule="nonzero" /><path id="867" transform="matrix(1 0 0 -1 0 841)" d="M322.064 400.987L341.929 400.987L341.929 412.195L322.064 412.195z" stroke="none" fill="#FFF100" fill-rule="nonzero" /><path id="873" transform="matrix(1 0 0 -1 0 841)" d="M341.68 400.987L344.171 400.987L344.171 412.195L341.68 412.195z" stroke="none" fill="#FFF100" fill-rule="nonzero" /><path id="874" transform="matrix(1 0 0 -1 0 841)" d="M343.921 400.987L361.575 400.987L361.575 412.195L343.921 412.195z" stroke="none" fill="#FFF100" fill-rule="nonzero" /><path id="879" transform="matrix(1 0 0 -1 0 841)" d="M361.077 400.987L374.307 400.987L374.307 412.195L361.077 412.195z" stroke="none" fill="#FFF100" fill-rule="nonzero" /><path id="883" transform="matrix(1 0 0 -1 0 841)" d="M374.058 400.987L376.549 400.987L376.549 412.195L374.058 412.195z" stroke="none" fill="#FFF100" fill-rule="nonzero" /><path id="884" transform="matrix(1 0 0 -1 0 841)" d="M376.3 400.987L391.732 400.987L391.732 412.195L376.3 412.195z" stroke="none" fill="#FFF100" fill-rule="nonzero" /><path id="889" transform="matrix(1 0 0 -1 0 841)" d="M391.483 400.987L393.974 400.987L393.974 412.195L391.483 412.195z" stroke="none" fill="#FFF100" fill-rule="nonzero" /><path id="890" transform="matrix(1 0 0 -1 0 841)" d="M393.724 400.987L409.724 400.987L409.724 412.195L393.724 412.195z" stroke="none" fill="#FFF100" fill-rule="nonzero" /><path id="895" transform="matrix(1 0 0 -1 0 841)" d="M409.475 400.987L411.966 400.987L411.966 412.195L409.475 412.195z" stroke="none" fill="#FFF100" fill-rule="nonzero" /><path id="896" transform="matrix(1 0 0 -1 0 841)" d="M411.716 400.987L421.619 400.987L421.619 412.195L411.716 412.195z" stroke="none" fill="#FFF100" fill-rule="nonzero" /><path id="899" transform="matrix(1 0 0 -1 0 841)" d="M421.37 400.987L423.861 400.987L423.861 412.195L421.37 412.195z" stroke="none" fill="#FFF100" fill-rule="nonzero" /><path id="900" transform="matrix(1 0 0 -1 0 841)" d="M423.612 400.987L431.861 400.987L431.861 412.195L423.612 412.195z" stroke="none" fill="#FFF100" fill-rule="nonzero" /><path id="903" transform="matrix(1 0 0 -1 0 841)" d="M431.612 400.987L434.103 400.987L434.103 412.195L431.612 412.195z" stroke="none" fill="#FFF100" fill-rule="nonzero" /><path id="904" transform="matrix(1 0 0 -1 0 841)" d="M433.853 400.987L466.739 400.987L466.739 412.195L433.853 412.195z" stroke="none" fill="#FFF100" fill-rule="nonzero" /><path id="915" transform="matrix(1 0 0 -1 0 841)" d="M136.063 386.043L143.196 386.043L143.196 397.251L136.063 397.251z" stroke="none" fill="#FFF100" fill-rule="nonzero" /><path id="918" transform="matrix(1 0 0 -1 0 841)" d="M142.814 386.043L145.218 386.043L145.218 397.251L142.814 397.251z" stroke="none" fill="#FFF100" fill-rule="nonzero" /><path id="919" transform="matrix(1 0 0 -1 0 841)" d="M144.969 386.043L158 386.043L158 397.251L144.969 397.251z" stroke="none" fill="#FFF100" fill-rule="nonzero" /><path id="923" transform="matrix(1 0 0 -1 0 841)" d="M157.247 386.043L174.901 386.043L174.901 397.251L157.247 397.251z" stroke="none" fill="#FFF100" fill-rule="nonzero" /><path id="927" transform="matrix(1 0 0 -1 0 841)" d="M174.309 386.043L176.713 386.043L176.713 397.251L174.309 397.251z" stroke="none" fill="#FFF100" fill-rule="nonzero" /><path id="928" transform="matrix(1 0 0 -1 0 841)" d="M176.464 386.043L183.607 386.043L183.607 397.251L176.464 397.251z" stroke="none" fill="#FFF100" fill-rule="nonzero" /><path id="931" transform="matrix(1 0 0 -1 0 841)" d="M183.225 386.043L185.629 386.043L185.629 397.251L183.225 397.251z" stroke="none" fill="#FFF100" fill-rule="nonzero" /><path id="932" transform="matrix(1 0 0 -1 0 841)" d="M185.379 386.043L206.629 386.043L206.629 397.251L185.379 397.251z" stroke="none" fill="#FFF100" fill-rule="nonzero" /><path id="938" transform="matrix(1 0 0 -1 0 841)" d="M205.965 386.043L208.369 386.043L208.369 397.251L205.965 397.251z" stroke="none" fill="#FFF100" fill-rule="nonzero" /><path id="939" transform="matrix(1 0 0 -1 0 841)" d="M208.12 386.043L220.792 386.043L220.792 397.251L208.12 397.251z" stroke="none" fill="#FFF100" fill-rule="nonzero" /><path id="943" transform="matrix(1 0 0 -1 0 841)" d="M220.3 386.043L222.704 386.043L222.704 397.251L220.3 397.251z" stroke="none" fill="#FFF100" fill-rule="nonzero" /><path id="944" transform="matrix(1 0 0 -1 0 841)" d="M222.455 386.043L234.569 386.043L234.569 397.251L222.455 397.251z" stroke="none" fill="#FFF100" fill-rule="nonzero" /><path id="948" transform="matrix(1 0 0 -1 0 841)" d="M233.838 386.043L243.741 386.043L243.741 397.251L233.838 397.251z" stroke="none" fill="#FFF100" fill-rule="nonzero" /><path id="951" transform="matrix(1 0 0 -1 0 841)" d="M243.055 386.043L262.92 386.043L262.92 397.251L243.055 397.251z" stroke="none" fill="#FFF100" fill-rule="nonzero" /><path id="957" transform="matrix(1 0 0 -1 0 841)" d="M262.284 386.043L264.688 386.043L264.688 397.251L262.284 397.251z" stroke="none" fill="#FFF100" fill-rule="nonzero" /><path id="958" transform="matrix(1 0 0 -1 0 841)" d="M264.438 386.043L286.266 386.043L286.266 397.251L264.438 397.251z" stroke="none" fill="#FFF100" fill-rule="nonzero" /><path id="964" transform="matrix(1 0 0 -1 0 841)" d="M285.586 386.043L287.99 386.043L287.99 397.251L285.586 397.251z" stroke="none" fill="#FFF100" fill-rule="nonzero" /><path id="965" transform="matrix(1 0 0 -1 0 841)" d="M287.74 386.043L303.74 386.043L303.74 397.251L287.74 397.251z" stroke="none" fill="#FFF100" fill-rule="nonzero" /><path id="970" transform="matrix(1 0 0 -1 0 841)" d="M303.181 386.043L305.585 386.043L305.585 397.251L303.181 397.251z" stroke="none" fill="#FFF100" fill-rule="nonzero" /><path id="971" transform="matrix(1 0 0 -1 0 841)" d="M305.336 386.043L315.239 386.043L315.239 397.251L305.336 397.251z" stroke="none" fill="#FFF100" fill-rule="nonzero" /><path id="974" transform="matrix(1 0 0 -1 0 841)" d="M314.801 386.043L317.205 386.043L317.205 397.251L314.801 397.251z" stroke="none" fill="#FFF100" fill-rule="nonzero" /><path id="975" transform="matrix(1 0 0 -1 0 841)" d="M316.956 386.043L329.628 386.043L329.628 397.251L316.956 397.251z" stroke="none" fill="#FFF100" fill-rule="nonzero" /><path id="979" transform="matrix(1 0 0 -1 0 841)" d="M329.136 386.043L331.54 386.043L331.54 397.251L329.136 397.251z" stroke="none" fill="#FFF100" fill-rule="nonzero" /><path id="980" transform="matrix(1 0 0 -1 0 841)" d="M331.29 386.043L351.713 386.043L351.713 397.251L331.29 397.251z" stroke="none" fill="#FFF100" fill-rule="nonzero" /><path id="985" transform="matrix(1 0 0 -1 0 841)" d="M351.066 386.043L353.47 386.043L353.47 397.251L351.066 397.251z" stroke="none" fill="#FFF100" fill-rule="nonzero" /><path id="986" transform="matrix(1 0 0 -1 0 841)" d="M353.221 386.043L362.018 386.043L362.018 397.251L353.221 397.251z" stroke="none" fill="#FFF100" fill-rule="nonzero" /><path id="989" transform="matrix(1 0 0 -1 0 841)" d="M361.602 386.043L364.006 386.043L364.006 397.251L361.602 397.251z" stroke="none" fill="#FFF100" fill-rule="nonzero" /><path id="990" transform="matrix(1 0 0 -1 0 841)" d="M363.757 386.043L376.429 386.043L376.429 397.251L363.757 397.251z" stroke="none" fill="#FFF100" fill-rule="nonzero" /><path id="994" transform="matrix(1 0 0 -1 0 841)" d="M375.937 386.043L378.341 386.043L378.341 397.251L375.937 397.251z" stroke="none" fill="#FFF100" fill-rule="nonzero" /><path id="995" transform="matrix(1 0 0 -1 0 841)" d="M378.092 386.043L392.976 386.043L392.976 397.251L378.092 397.251z" stroke="none" fill="#FFF100" fill-rule="nonzero" /><path id="999" transform="matrix(1 0 0 -1 0 841)" d="M392.19 386.043L422.028 386.043L422.028 397.251L392.19 397.251z" stroke="none" fill="#FFF100" fill-rule="nonzero" /><path id="1008" transform="matrix(1 0 0 -1 0 841)" d="M421.191 386.043L423.595 386.043L423.595 397.251L421.191 397.251z" stroke="none" fill="#FFF100" fill-rule="nonzero" /><path id="1009" transform="matrix(1 0 0 -1 0 841)" d="M423.346 386.043L431.595 386.043L431.595 397.251L423.346 397.251z" stroke="none" fill="#FFF100" fill-rule="nonzero" /><path id="1012" transform="matrix(1 0 0 -1 0 841)" d="M431.191 386.043L433.595 386.043L433.595 397.251L431.191 397.251z" stroke="none" fill="#FFF100" fill-rule="nonzero" /><path id="1013" transform="matrix(1 0 0 -1 0 841)" d="M433.346 386.043L448.788 386.043L448.788 397.251L433.346 397.251z" stroke="none" fill="#FFF100" fill-rule="nonzero" /><path id="1018" transform="matrix(1 0 0 -1 0 841)" d="M448.24 386.043L450.644 386.043L450.644 397.251L448.24 397.251z" stroke="none" fill="#FFF100" fill-rule="nonzero" /><path id="1019" transform="matrix(1 0 0 -1 0 841)" d="M450.394 386.043L463.425 386.043L463.425 397.251L450.394 397.251z" stroke="none" fill="#FFF100" fill-rule="nonzero" /><path id="1023" transform="matrix(1 0 0 -1 0 841)" d="M462.673 386.043L482.817 386.043L482.817 397.251L462.673 397.251z" stroke="none" fill="#FFF100" fill-rule="nonzero" /><path id="1028" transform="matrix(1 0 0 -1 0 841)" d="M482.175 386.043L484.579 386.043L484.579 397.251L482.175 397.251z" stroke="none" fill="#FFF100" fill-rule="nonzero" /><path id="1029" transform="matrix(1 0 0 -1 0 841)" d="M484.33 386.043L491.463 386.043L491.463 397.251L484.33 397.251z" stroke="none" fill="#FFF100" fill-rule="nonzero" /><path id="1032" transform="matrix(1 0 0 -1 0 841)" d="M491.081 386.043L493.485 386.043L493.485 397.251L491.081 397.251z" stroke="none" fill="#FFF100" fill-rule="nonzero" /><path id="1033" transform="matrix(1 0 0 -1 0 841)" d="M493.236 386.043L511.199 386.043L511.199 397.251L493.236 397.251z" stroke="none" fill="#FFF100" fill-rule="nonzero" /><path id="1037" transform="matrix(1 0 0 -1 0 841)" d="M136.063 371.099L143.206 371.099L143.206 382.307L136.063 382.307z" stroke="none" fill="#FFF100" fill-rule="nonzero" /><path id="1040" transform="matrix(1 0 0 -1 0 841)" d="M142.957 371.099L145.448 371.099L145.448 382.307L142.957 382.307z" stroke="none" fill="#FFF100" fill-rule="nonzero" /><path id="1041" transform="matrix(1 0 0 -1 0 841)" d="M145.199 371.099L166.449 371.099L166.449 382.307L145.199 382.307z" stroke="none" fill="#FFF100" fill-rule="nonzero" /><path id="1047" transform="matrix(1 0 0 -1 0 841)" d="M166.2 371.099L168.691 371.099L168.691 382.307L166.2 382.307z" stroke="none" fill="#FFF100" fill-rule="nonzero" /><path id="1048" transform="matrix(1 0 0 -1 0 841)" d="M168.441 371.099L181.113 371.099L181.113 382.307L168.441 382.307z" stroke="none" fill="#FFF100" fill-rule="nonzero" /><path id="1052" transform="matrix(1 0 0 -1 0 841)" d="M180.865 371.099L183.356 371.099L183.356 382.307L180.865 382.307z" stroke="none" fill="#FFF100" fill-rule="nonzero" /><path id="1053" transform="matrix(1 0 0 -1 0 841)" d="M183.106 371.099L195.22 371.099L195.22 382.307L183.106 382.307z" stroke="none" fill="#FFF100" fill-rule="nonzero" /><path id="1057" transform="matrix(1 0 0 -1 0 841)" d="M194.722 371.099L204.625 371.099L204.625 382.307L194.722 382.307z" stroke="none" fill="#FFF100" fill-rule="nonzero" /><path id="1060" transform="matrix(1 0 0 -1 0 841)" d="M204.127 371.099L223.992 371.099L223.992 382.307L204.127 382.307z" stroke="none" fill="#FFF100" fill-rule="nonzero" /><path id="1066" transform="matrix(1 0 0 -1 0 841)" d="M223.743 371.099L226.234 371.099L226.234 382.307L223.743 382.307z" stroke="none" fill="#FFF100" fill-rule="nonzero" /><path id="1067" transform="matrix(1 0 0 -1 0 841)" d="M225.985 371.099L247.813 371.099L247.813 382.307L225.985 382.307z" stroke="none" fill="#FFF100" fill-rule="nonzero" /><path id="1073" transform="matrix(1 0 0 -1 0 841)" d="M247.564 371.099L250.055 371.099L250.055 382.307L247.564 382.307z" stroke="none" fill="#FFF100" fill-rule="nonzero" /><path id="1074" transform="matrix(1 0 0 -1 0 841)" d="M249.805 371.099L265.805 371.099L265.805 382.307L249.805 382.307z" stroke="none" fill="#FFF100" fill-rule="nonzero" /><path id="1079" transform="matrix(1 0 0 -1 0 841)" d="M265.556 371.099L268.047 371.099L268.047 382.307L265.556 382.307z" stroke="none" fill="#FFF100" fill-rule="nonzero" /><path id="1080" transform="matrix(1 0 0 -1 0 841)" d="M267.797 371.099L277.7 371.099L277.7 382.307L267.797 382.307z" stroke="none" fill="#FFF100" fill-rule="nonzero" /><path id="1083" transform="matrix(1 0 0 -1 0 841)" d="M277.451 371.099L279.942 371.099L279.942 382.307L277.451 382.307z" stroke="none" fill="#FFF100" fill-rule="nonzero" /><path id="1084" transform="matrix(1 0 0 -1 0 841)" d="M279.693 371.099L292.365 371.099L292.365 382.307L279.693 382.307z" stroke="none" fill="#FFF100" fill-rule="nonzero" /><path id="1088" transform="matrix(1 0 0 -1 0 841)" d="M292.116 371.099L294.607 371.099L294.607 382.307L292.116 382.307z" stroke="none" fill="#FFF100" fill-rule="nonzero" /><path id="1089" transform="matrix(1 0 0 -1 0 841)" d="M294.358 371.099L314.781 371.099L314.781 382.307L294.358 382.307z" stroke="none" fill="#FFF100" fill-rule="nonzero" /><path id="1094" transform="matrix(1 0 0 -1 0 841)" d="M314.532 371.099L317.023 371.099L317.023 382.307L314.532 382.307z" stroke="none" fill="#FFF100" fill-rule="nonzero" /><path id="1095" transform="matrix(1 0 0 -1 0 841)" d="M316.773 371.099L325.57 371.099L325.57 382.307L316.773 382.307z" stroke="none" fill="#FFF100" fill-rule="nonzero" /><path id="1098" transform="matrix(1 0 0 -1 0 841)" d="M325.321 371.099L327.812 371.099L327.812 382.307L325.321 382.307z" stroke="none" fill="#FFF100" fill-rule="nonzero" /><path id="1099" transform="matrix(1 0 0 -1 0 841)" d="M327.563 371.099L340.235 371.099L340.235 382.307L327.563 382.307z" stroke="none" fill="#FFF100" fill-rule="nonzero" /><path id="1103" transform="matrix(1 0 0 -1 0 841)" d="M339.986 371.099L342.477 371.099L342.477 382.307L339.986 382.307z" stroke="none" fill="#FFF100" fill-rule="nonzero" /><path id="1104" transform="matrix(1 0 0 -1 0 841)" d="M342.227 371.099L357.111 371.099L357.111 382.307L342.227 382.307z" stroke="none" fill="#FFF100" fill-rule="nonzero" /><path id="1108" transform="matrix(1 0 0 -1 0 841)" d="M356.613 371.099L386.451 371.099L386.451 382.307L356.613 382.307z" stroke="none" fill="#FFF100" fill-rule="nonzero" /><path id="1117" transform="matrix(1 0 0 -1 0 841)" d="M386.202 371.099L388.693 371.099L388.693 382.307L386.202 382.307z" stroke="none" fill="#FFF100" fill-rule="nonzero" /><path id="1118" transform="matrix(1 0 0 -1 0 841)" d="M388.443 371.099L396.692 371.099L396.692 382.307L388.443 382.307z" stroke="none" fill="#FFF100" fill-rule="nonzero" /><path id="1121" transform="matrix(1 0 0 -1 0 841)" d="M396.443 371.099L398.934 371.099L398.934 382.307L396.443 382.307z" stroke="none" fill="#FFF100" fill-rule="nonzero" /><path id="1122" transform="matrix(1 0 0 -1 0 841)" d="M398.685 371.099L414.127 371.099L414.127 382.307L398.685 382.307z" stroke="none" fill="#FFF100" fill-rule="nonzero" /><path id="1127" transform="matrix(1 0 0 -1 0 841)" d="M413.878 371.099L416.369 371.099L416.369 382.307L413.878 382.307z" stroke="none" fill="#FFF100" fill-rule="nonzero" /><path id="1128" transform="matrix(1 0 0 -1 0 841)" d="M416.119 371.099L435.925 371.099L435.925 382.307L416.119 382.307z" stroke="none" fill="#FFF100" fill-rule="nonzero" /><path id="1135" transform="matrix(1 0 0 -1 0 841)" d="M136.063 356.155L150.25 356.155L150.25 367.363L136.063 367.363z" stroke="none" fill="#FFF100" fill-rule="nonzero" /><path id="1139" transform="matrix(1 0 0 -1 0 841)" d="M150.181 356.155L152.666 356.155L152.666 367.363L150.181 367.363z" stroke="none" fill="#FFF100" fill-rule="nonzero" /><path id="1140" transform="matrix(1 0 0 -1 0 841)" d="M152.417 356.155L165.089 356.155L165.089 367.363L152.417 367.363z" stroke="none" fill="#FFF100" fill-rule="nonzero" /><path id="1144" transform="matrix(1 0 0 -1 0 841)" d="M164.998 356.155L167.483 356.155L167.483 367.363L164.998 367.363z" stroke="none" fill="#FFF100" fill-rule="nonzero" /><path id="1145" transform="matrix(1 0 0 -1 0 841)" d="M167.234 356.155L193.197 356.155L193.197 367.363L167.234 367.363z" stroke="none" fill="#FFF100" fill-rule="nonzero" /><path id="1151" transform="matrix(1 0 0 -1 0 841)" d="M193.279 356.155L195.764 356.155L195.764 367.363L193.279 367.363z" stroke="none" fill="#FFF100" fill-rule="nonzero" /><path id="1152" transform="matrix(1 0 0 -1 0 841)" d="M195.515 356.155L209.702 356.155L209.702 367.363L195.515 367.363z" stroke="none" fill="#FFF100" fill-rule="nonzero" /><path id="1156" transform="matrix(1 0 0 -1 0 841)" d="M209.383 356.155L229.806 356.155L229.806 367.363L209.383 367.363z" stroke="none" fill="#FFF100" fill-rule="nonzero" /><path id="1161" transform="matrix(1 0 0 -1 0 841)" d="M229.816 356.155L232.301 356.155L232.301 367.363L229.816 367.363z" stroke="none" fill="#FFF100" fill-rule="nonzero" /><path id="1162" transform="matrix(1 0 0 -1 0 841)" d="M232.052 356.155L240.301 356.155L240.301 367.363L232.052 367.363z" stroke="none" fill="#FFF100" fill-rule="nonzero" /><path id="1165" transform="matrix(1 0 0 -1 0 841)" d="M240.153 356.155L242.638 356.155L242.638 367.363L240.153 367.363z" stroke="none" fill="#FFF100" fill-rule="nonzero" /><path id="1166" transform="matrix(1 0 0 -1 0 841)" d="M242.389 356.155L265.751 356.155L265.751 367.363L242.389 367.363z" stroke="none" fill="#FFF100" fill-rule="nonzero" /><path id="1172" transform="matrix(1 0 0 -1 0 841)" d="M265.801 356.155L268.286 356.155L268.286 367.363L265.801 367.363z" stroke="none" fill="#FFF100" fill-rule="nonzero" /><path id="1173" transform="matrix(1 0 0 -1 0 841)" d="M268.037 356.155L280.709 356.155L280.709 367.363L268.037 367.363z" stroke="none" fill="#FFF100" fill-rule="nonzero" /><path id="1177" transform="matrix(1 0 0 -1 0 841)" d="M280.618 356.155L283.103 356.155L283.103 367.363L280.618 367.363z" stroke="none" fill="#FFF100" fill-rule="nonzero" /><path id="1178" transform="matrix(1 0 0 -1 0 841)" d="M282.854 356.155L295.885 356.155L295.885 367.363L282.854 367.363z" stroke="none" fill="#FFF100" fill-rule="nonzero" /><path id="1182" transform="matrix(1 0 0 -1 0 841)" d="M295.553 356.155L313.207 356.155L313.207 367.363L295.553 367.363z" stroke="none" fill="#FFF100" fill-rule="nonzero" /><path id="1186" transform="matrix(1 0 0 -1 0 841)" d="M313.181 356.155L315.666 356.155L315.666 367.363L313.181 367.363z" stroke="none" fill="#FFF100" fill-rule="nonzero" /><path id="1187" transform="matrix(1 0 0 -1 0 841)" d="M315.417 356.155L324.214 356.155L324.214 367.363L315.417 367.363z" stroke="none" fill="#FFF100" fill-rule="nonzero" /><path id="1190" transform="matrix(1 0 0 -1 0 841)" d="M324.072 356.155L326.557 356.155L326.557 367.363L324.072 367.363z" stroke="none" fill="#FFF100" fill-rule="nonzero" /><path id="1191" transform="matrix(1 0 0 -1 0 841)" d="M326.308 356.155L344.271 356.155L344.271 367.363L326.308 367.363z" stroke="none" fill="#FFF100" fill-rule="nonzero" /><path id="1195" transform="matrix(1 0 0 -1 0 841)" d="M344.252 356.155L346.737 356.155L346.737 367.363L344.252 367.363z" stroke="none" fill="#FFF100" fill-rule="nonzero" /><path id="1196" transform="matrix(1 0 0 -1 0 841)" d="M346.488 356.155L369.671 356.155L369.671 367.363L346.488 367.363z" stroke="none" fill="#FFF100" fill-rule="nonzero" /><path id="1202" transform="matrix(1 0 0 -1 0 841)" d="M369.717 356.155L372.202 356.155L372.202 367.363L369.717 367.363z" stroke="none" fill="#FFF100" fill-rule="nonzero" /><path id="1203" transform="matrix(1 0 0 -1 0 841)" d="M371.953 356.155L380.202 356.155L380.202 367.363L371.953 367.363z" stroke="none" fill="#FFF100" fill-rule="nonzero" /><path id="1206" transform="matrix(1 0 0 -1 0 841)" d="M380.053 356.155L382.538 356.155L382.538 367.363L380.053 367.363z" stroke="none" fill="#FFF100" fill-rule="nonzero" /><path id="1207" transform="matrix(1 0 0 -1 0 841)" d="M382.289 356.155L392.192 356.155L392.192 367.363L382.289 367.363z" stroke="none" fill="#FFF100" fill-rule="nonzero" /><path id="1210" transform="matrix(1 0 0 -1 0 841)" d="M392.065 356.155L394.55 356.155L394.55 367.363L392.065 367.363z" stroke="none" fill="#FFF100" fill-rule="nonzero" /><path id="1211" transform="matrix(1 0 0 -1 0 841)" d="M394.301 356.155L404.054 356.155L404.054 367.363L394.301 367.363z" stroke="none" fill="#FFF100" fill-rule="nonzero" /><path id="1214" transform="matrix(1 0 0 -1 0 841)" d="M403.679 356.155L434.055 356.155L434.055 367.363L403.679 367.363z" stroke="none" fill="#FFF100" fill-rule="nonzero" /><path id="1222" transform="matrix(1 0 0 -1 0 841)" d="M434.194 356.155L436.679 356.155L436.679 367.363L434.194 367.363z" stroke="none" fill="#FFF100" fill-rule="nonzero" /><path id="1223" transform="matrix(1 0 0 -1 0 841)" d="M436.43 356.155L444.679 356.155L444.679 367.363L436.43 367.363z" stroke="none" fill="#FFF100" fill-rule="nonzero" /><path id="1226" transform="matrix(1 0 0 -1 0 841)" d="M444.531 356.155L447.016 356.155L447.016 367.363L444.531 367.363z" stroke="none" fill="#FFF100" fill-rule="nonzero" /><path id="1227" transform="matrix(1 0 0 -1 0 841)" d="M446.767 356.155L465.805 356.155L465.805 367.363L446.767 367.363z" stroke="none" fill="#FFF100" fill-rule="nonzero" /><path id="1231" transform="matrix(1 0 0 -1 0 841)" d="M465.797 356.155L468.282 356.155L468.282 367.363L465.797 367.363z" stroke="none" fill="#FFF100" fill-rule="nonzero" /><path id="1232" transform="matrix(1 0 0 -1 0 841)" d="M468.033 356.155L482.19 356.155L482.19 367.363L468.033 367.363z" stroke="none" fill="#FFF100" fill-rule="nonzero" /><path id="1236" transform="matrix(1 0 0 -1 0 841)" d="M481.886 356.155L499.54 356.155L499.54 367.363L481.886 367.363z" stroke="none" fill="#FFF100" fill-rule="nonzero" /><path id="1240" transform="matrix(1 0 0 -1 0 841)" d="M499.514 356.155L501.999 356.155L501.999 367.363L499.514 367.363z" stroke="none" fill="#FFF100" fill-rule="nonzero" /><path id="1241" transform="matrix(1 0 0 -1 0 841)" d="M501.75 356.155L510.547 356.155L510.547 367.363L501.75 367.363z" stroke="none" fill="#FFF100" fill-rule="nonzero" /><path id="1244" transform="matrix(1 0 0 -1 0 841)" d="M136.063 341.211L157.901 341.211L157.901 352.419L136.063 352.419z" stroke="none" fill="#FFF100" fill-rule="nonzero" /><path id="1249" transform="matrix(1 0 0 -1 0 841)" d="M157.652 341.211L160.143 341.211L160.143 352.419L157.652 352.419z" stroke="none" fill="#FFF100" fill-rule="nonzero" /><path id="1250" transform="matrix(1 0 0 -1 0 841)" d="M159.894 341.211L168.143 341.211L168.143 352.419L159.894 352.419z" stroke="none" fill="#FFF100" fill-rule="nonzero" /><path id="1253" transform="matrix(1 0 0 -1 0 841)" d="M167.893 341.211L170.384 341.211L170.384 352.419L167.893 352.419z" stroke="none" fill="#FFF100" fill-rule="nonzero" /><path id="1254" transform="matrix(1 0 0 -1 0 841)" d="M170.135 341.211L191.106 341.211L191.106 352.419L170.135 352.419z" stroke="none" fill="#FFF100" fill-rule="nonzero" /><path id="1260" transform="matrix(1 0 0 -1 0 841)" d="M190.857 341.211L193.348 341.211L193.348 352.419L190.857 352.419z" stroke="none" fill="#FFF100" fill-rule="nonzero" /><path id="1261" transform="matrix(1 0 0 -1 0 841)" d="M193.099 341.211L212.974 341.211L212.974 352.419L193.099 352.419z" stroke="none" fill="#FFF100" fill-rule="nonzero" /><path id="1267" transform="matrix(1 0 0 -1 0 841)" d="M212.725 341.211L215.216 341.211L215.216 352.419L212.725 352.419z" stroke="none" fill="#FFF100" fill-rule="nonzero" /><path id="1268" transform="matrix(1 0 0 -1 0 841)" d="M214.966 341.211L218.782 341.211L218.782 352.419L214.966 352.419z" stroke="none" fill="#FFF100" fill-rule="nonzero" /><path id="1270" transform="matrix(1 0 0 -1 0 841)" d="M218.533 341.211L221.024 341.211L221.024 352.419L218.533 352.419z" stroke="none" fill="#FFF100" fill-rule="nonzero" /><path id="1271" transform="matrix(1 0 0 -1 0 841)" d="M220.775 341.211L233.398 341.211L233.398 352.419L220.775 352.419z" stroke="none" fill="#FFF100" fill-rule="nonzero" /><path id="1275" transform="matrix(1 0 0 -1 0 841)" d="M232.899 341.211L252.495 341.211L252.495 352.419L232.899 352.419z" stroke="none" fill="#FFF100" fill-rule="nonzero" /><path id="1281" transform="matrix(1 0 0 -1 0 841)" d="M252.246 341.211L254.737 341.211L254.737 352.419L252.246 352.419z" stroke="none" fill="#FFF100" fill-rule="nonzero" /><path id="1282" transform="matrix(1 0 0 -1 0 841)" d="M254.488 341.211L268.087 341.211L268.087 352.419L254.488 352.419z" stroke="none" fill="#FFF100" fill-rule="nonzero" /><path id="1286" transform="matrix(1 0 0 -1 0 841)" d="M267.837 341.211L270.328 341.211L270.328 352.419L267.837 352.419z" stroke="none" fill="#FFF100" fill-rule="nonzero" /><path id="1287" transform="matrix(1 0 0 -1 0 841)" d="M270.079 341.211L284.684 341.211L284.684 352.419L270.079 352.419z" stroke="none" fill="#FFF100" fill-rule="nonzero" /><path id="1292" transform="matrix(1 0 0 -1 0 841)" d="M284.435 341.211L286.926 341.211L286.926 352.419L284.435 352.419z" stroke="none" fill="#FFF100" fill-rule="nonzero" /><path id="1293" transform="matrix(1 0 0 -1 0 841)" d="M286.677 341.211L309.86 341.211L309.86 352.419L286.677 352.419z" stroke="none" fill="#FFF100" fill-rule="nonzero" /><path id="1299" transform="matrix(1 0 0 -1 0 841)" d="M309.61 341.211L312.101 341.211L312.101 352.419L309.61 352.419z" stroke="none" fill="#FFF100" fill-rule="nonzero" /><path id="1300" transform="matrix(1 0 0 -1 0 841)" d="M311.852 341.211L320.101 341.211L320.101 352.419L311.852 352.419z" stroke="none" fill="#FFF100" fill-rule="nonzero" /><path id="1303" transform="matrix(1 0 0 -1 0 841)" d="M319.852 341.211L322.343 341.211L322.343 352.419L319.852 352.419z" stroke="none" fill="#FFF100" fill-rule="nonzero" /><path id="1304" transform="matrix(1 0 0 -1 0 841)" d="M322.093 341.211L331.996 341.211L331.996 352.419L322.093 352.419z" stroke="none" fill="#FFF100" fill-rule="nonzero" /><path id="1307" transform="matrix(1 0 0 -1 0 841)" d="M331.747 341.211L334.238 341.211L334.238 352.419L331.747 352.419z" stroke="none" fill="#FFF100" fill-rule="nonzero" /><path id="1308" transform="matrix(1 0 0 -1 0 841)" d="M333.989 341.211L348.475 341.211L348.475 352.419L333.989 352.419z" stroke="none" fill="#FFF100" fill-rule="nonzero" /><path id="1312" transform="matrix(1 0 0 -1 0 841)" d="M347.976 341.211L373.221 341.211L373.221 352.419L347.976 352.419z" stroke="none" fill="#FFF100" fill-rule="nonzero" /><path id="1319" transform="matrix(1 0 0 -1 0 841)" d="M372.972 341.211L375.463 341.211L375.463 352.419L372.972 352.419z" stroke="none" fill="#FFF100" fill-rule="nonzero" /><path id="1320" transform="matrix(1 0 0 -1 0 841)" d="M375.214 341.211L383.463 341.211L383.463 352.419L375.214 352.419z" stroke="none" fill="#FFF100" fill-rule="nonzero" /><path id="1323" transform="matrix(1 0 0 -1 0 841)" d="M383.214 341.211L385.705 341.211L385.705 352.419L383.214 352.419z" stroke="none" fill="#FFF100" fill-rule="nonzero" /><path id="1324" transform="matrix(1 0 0 -1 0 841)" d="M385.455 341.211L404.493 341.211L404.493 352.419L385.455 352.419z" stroke="none" fill="#FFF100" fill-rule="nonzero" /><path id="1802" transform="matrix(1 0 0 -1 0 841)" d="M251.174 194.474L263.348 194.474" stroke="#000000" stroke-width="0.398" fill="none" /><path id="1814" transform="matrix(1 0 0 -1 0 841)" d="M367.998 207.225L382.902 207.225" stroke="#000000" stroke-width="0.398" fill="none" /><path id="1818" transform="matrix(1 0 0 -1 0 841)" d="M283.856 194.474L435.543 194.474" stroke="#000000" stroke-width="0.398" fill="none" /><path id="1942" transform="matrix(1 0 0 -1 0 841)" d="M388.615 133.218L403.519 133.218" stroke="#000000" stroke-width="0.398" fill="none" /><path id="1946" transform="matrix(1 0 0 -1 0 841)" d="M322.759 120.466L437.874 120.466" stroke="#000000" stroke-width="0.398" fill="none" /><path id="1963" transform="matrix(1 0 0 -1 0 841)" d="M388.123 110.106L400.297 110.106" stroke="#000000" stroke-width="0.398" fill="none" /><g transform="matrix(0.2 0 0 0.2 249.239 774.845)"><g transform="matrix(1 0 0 1 0 0)"><image x="0" y="0" xlink:href="img_04.png" width="484" height="104" /></g></g></g></g></svg>