<svg xmlns="http://www.w3.org/2000/svg" xmlns:xlink="http://www.w3.org/1999/xlink" id="body_435" preserveAspectRatio="xMinYMin meet" viewBox="0 0 793 1121"><defs><clipPath id="1"><path id="" clip-rule="evenodd" transform="matrix(1 0 0 1 0 0)" d="M0 841L0 -0.8900146L0 -0.8900146L595.276 -0.8900146L595.276 -0.8900146L595.276 841L595.276 841L0 841z" /></clipPath></defs><g transform="matrix(1.333333 0 0 1.333333 0 0)"><g clip-path="url(#1)"><path id="23" transform="matrix(1 0 0 -1 0 841)" d="M85.039 766.564L510.236 766.564" stroke="#000000" stroke-width="0.498" fill="none" /><path id="362" transform="matrix(1 0 0 -1 0 841)" d="M150.895 631.195L185.608 631.195" stroke="#000000" stroke-width="0.398" fill="none" /><path id="380" transform="matrix(1 0 0 -1 0 841)" d="M213.452 631.195L248.165 631.195" stroke="#000000" stroke-width="0.398" fill="none" /><path id="404" transform="matrix(1 0 0 -1 0 841)" d="M258.305 631.195L322.087 631.195" stroke="#000000" stroke-width="0.398" fill="none" /><path id="440" transform="matrix(1 0 0 -1 0 841)" d="M151.129 602.078L190.347 602.078" stroke="#000000" stroke-width="0.398" fill="none" /><path id="491" transform="matrix(1 0 0 -1 0 841)" d="M141.174 558.016L180.392 558.016" stroke="#000000" stroke-width="0.398" fill="none" /><path id="515" transform="matrix(1 0 0 -1 0 841)" d="M209.367 558.016L278.838 558.016" stroke="#000000" stroke-width="0.398" fill="none" /><path id="547" transform="matrix(1 0 0 -1 0 841)" d="M298.941 558.016L397.481 558.016" stroke="#000000" stroke-width="0.398" fill="none" /><path id="582" transform="matrix(1 0 0 -1 0 841)" d="M435.287 558.016L501.072 558.016" stroke="#000000" stroke-width="0.398" fill="none" /><path id="624" transform="matrix(1 0 0 -1 0 841)" d="M141.542 528.899L211.013 528.899" stroke="#000000" stroke-width="0.398" fill="none" /><path id="644" transform="matrix(1 0 0 -1 0 841)" d="M113.508 484.838L192.777 484.838" stroke="#000000" stroke-width="0.398" fill="none" /><path id="690" transform="matrix(1 0 0 -1 0 841)" d="M202.916 484.838L289.174 484.838" stroke="#000000" stroke-width="0.398" fill="none" /><path id="699" transform="matrix(1 0 0 -1 0 841)" d="M119.126 455.721L133.871 455.721" stroke="#000000" stroke-width="0.398" fill="none" /><path id="743" transform="matrix(1 0 0 -1 0 841)" d="M150.895 411.66L185.608 411.66" stroke="#000000" stroke-width="0.398" fill="none" /><path id="767" transform="matrix(1 0 0 -1 0 841)" d="M195.748 411.66L266.229 411.66" stroke="#000000" stroke-width="0.398" fill="none" /><path id="799" transform="matrix(1 0 0 -1 0 841)" d="M276.369 411.66L358.717 411.66" stroke="#000000" stroke-width="0.398" fill="none" /><path id="819" transform="matrix(1 0 0 -1 0 841)" d="M368.857 411.66L415.528 411.66" stroke="#000000" stroke-width="0.398" fill="none" /><path id="849" transform="matrix(1 0 0 -1 0 841)" d="M119.126 396.716L177.413 396.716" stroke="#000000" stroke-width="0.398" fill="none" /><path id="900" transform="matrix(1 0 0 -1 0 841)" d="M113.508 338.482L203.337 338.482" stroke="#000000" stroke-width="0.398" fill="none" /><path id="929" transform="matrix(1 0 0 -1 0 841)" d="M216.7 346.457L251.141 346.457" stroke="#000000" stroke-width="0.398" fill="none" /><path id="930" transform="matrix(1 0 0 -1 0 841)" d="M216.9 331.936L216.9 346.456" stroke="#000000" stroke-width="0.398" fill="none" /><path id="931" transform="matrix(1 0 0 -1 0 841)" d="M250.942 331.936L250.942 346.456" stroke="#000000" stroke-width="0.398" fill="none" /><path id="932" transform="matrix(1 0 0 -1 0 841)" d="M216.7 331.936L251.141 331.936" stroke="#000000" stroke-width="0.398" fill="none" /><path id="1054" transform="matrix(1 0 0 -1 0 841)" d="M113.508 265.136L132.639 265.136" stroke="#000000" stroke-width="0.398" fill="none" /><path id="1066" transform="matrix(1 0 0 -1 0 841)" d="M142.778 265.136L164.858 265.136" stroke="#000000" stroke-width="0.398" fill="none" /><path id="1092" transform="matrix(1 0 0 -1 0 841)" d="M174.998 265.136L245.634 265.136" stroke="#000000" stroke-width="0.398" fill="none" /><path id="1117" transform="matrix(1 0 0 -1 0 841)" d="M263.581 265.136L369.324 265.136" stroke="#000000" stroke-width="0.398" fill="none" /><path id="1121" transform="matrix(1 0 0 -1 0 841)" d="M258.998 279.437L373.906 279.437" stroke="#000000" stroke-width="0.398" fill="none" /><path id="1122" transform="matrix(1 0 0 -1 0 841)" d="M259.198 250.591L259.198 279.438" stroke="#000000" stroke-width="0.398" fill="none" /><path id="1123" transform="matrix(1 0 0 -1 0 841)" d="M373.707 250.591L373.707 279.438" stroke="#000000" stroke-width="0.398" fill="none" /><path id="1124" transform="matrix(1 0 0 -1 0 841)" d="M258.998 250.591L373.906 250.591" stroke="#000000" stroke-width="0.398" fill="none" /><path id="1318" transform="matrix(1 0 0 -1 0 841)" d="M113.508 186.126L162.347 186.126" stroke="#000000" stroke-width="0.398" fill="none" /><path id="1338" transform="matrix(1 0 0 -1 0 841)" d="M176.906 186.126L235.127 186.126" stroke="#000000" stroke-width="0.398" fill="none" /><path id="1367" transform="matrix(1 0 0 -1 0 841)" d="M245.266 186.126L323.532 186.126" stroke="#000000" stroke-width="0.398" fill="none" /><path id="1394" transform="matrix(1 0 0 -1 0 841)" d="M333.672 186.126L387.779 186.126" stroke="#000000" stroke-width="0.398" fill="none" /><path id="1417" transform="matrix(1 0 0 -1 0 841)" d="M397.919 186.126L423.722 186.126" stroke="#000000" stroke-width="0.398" fill="none" /><path id="1430" transform="matrix(1 0 0 -1 0 841)" d="M152.814 163.146L210.547 163.146" stroke="#000000" stroke-width="0.398" fill="none" /><path id="1456" transform="matrix(1 0 0 -1 0 841)" d="M228.494 163.146L259.438 163.146" stroke="#000000" stroke-width="0.398" fill="none" /><path id="1460" transform="matrix(1 0 0 -1 0 841)" d="M223.911 177.447L264.02 177.447" stroke="#000000" stroke-width="0.398" fill="none" /><path id="1461" transform="matrix(1 0 0 -1 0 841)" d="M224.11 150.523L224.11 177.447" stroke="#000000" stroke-width="0.398" fill="none" /><path id="1462" transform="matrix(1 0 0 -1 0 841)" d="M263.821 150.523L263.821 177.447" stroke="#000000" stroke-width="0.398" fill="none" /><path id="1463" transform="matrix(1 0 0 -1 0 841)" d="M223.911 150.523L264.02 150.523" stroke="#000000" stroke-width="0.398" fill="none" /><path id="1606" transform="matrix(1 0 0 -1 0 841)" d="M113.508 94.305L162.347 94.305" stroke="#000000" stroke-width="0.398" fill="none" /><path id="1614" transform="matrix(1 0 0 -1 0 841)" d="M172.486 94.305L196.21 94.305" stroke="#000000" stroke-width="0.398" fill="none" /><path id="1627" transform="matrix(1 0 0 -1 0 841)" d="M206.35 94.305L239.161 94.305" stroke="#000000" stroke-width="0.398" fill="none" /><path id="1643" transform="matrix(1 0 0 -1 0 841)" d="M257.108 94.305L285.881 94.305" stroke="#000000" stroke-width="0.398" fill="none" /><path id="1647" transform="matrix(1 0 0 -1 0 841)" d="M252.525 109.024L290.464 109.024" stroke="#000000" stroke-width="0.398" fill="none" /><path id="1648" transform="matrix(1 0 0 -1 0 841)" d="M252.724 79.759L252.724 109.024" stroke="#000000" stroke-width="0.398" fill="none" /><path id="1649" transform="matrix(1 0 0 -1 0 841)" d="M290.265 79.759L290.265 109.024" stroke="#000000" stroke-width="0.398" fill="none" /><path id="1650" transform="matrix(1 0 0 -1 0 841)" d="M252.525 79.759L290.464 79.759" stroke="#000000" stroke-width="0.398" fill="none" /><g transform="matrix(0.2 0 0 0.2 249.239 774.845)"><g transform="matrix(1 0 0 1 0 0)"><image x="0" y="0" xlink:href="img_04.png" width="484" height="104" /></g></g></g></g></svg>