<svg xmlns="http://www.w3.org/2000/svg" xmlns:xlink="http://www.w3.org/1999/xlink" id="body_312" preserveAspectRatio="xMinYMin meet" viewBox="0 0 793 1121"><defs><clipPath id="1"><path id="" clip-rule="evenodd" transform="matrix(1 0 0 1 0 0)" d="M0 841L0 -0.8900146L0 -0.8900146L595.276 -0.8900146L595.276 -0.8900146L595.276 841L595.276 841L0 841z" /></clipPath></defs><g transform="matrix(1.333333 0 0 1.333333 0 0)"><g clip-path="url(#1)"><path id="40" transform="matrix(1 0 0 -1 0 841)" d="M85.039 766.564L510.236 766.564" stroke="#000000" stroke-width="0.498" fill="none" /><path id="45" transform="matrix(1 0 0 -1 0 841)" d="M113.508 741.932L143.395 741.932" stroke="#000000" stroke-width="0.398" fill="none" /><path id="63" transform="matrix(1 0 0 -1 0 841)" d="M153.535 741.932L180.4 741.932" stroke="#000000" stroke-width="0.398" fill="none" /><path id="72" transform="matrix(1 0 0 -1 0 841)" d="M190.539 741.932L207.429 741.932" stroke="#000000" stroke-width="0.398" fill="none" /><path id="83" transform="matrix(1 0 0 -1 0 841)" d="M217.569 741.932L238.838 741.932" stroke="#000000" stroke-width="0.398" fill="none" /><path id="102" transform="matrix(1 0 0 -1 0 841)" d="M274.429 741.932L298.588 741.932" stroke="#000000" stroke-width="0.398" fill="none" /><path id="113" transform="matrix(1 0 0 -1 0 841)" d="M316.535 741.932L345.308 741.932" stroke="#000000" stroke-width="0.398" fill="none" /><path id="119" transform="matrix(1 0 0 -1 0 841)" d="M311.953 756.651L349.892 756.651" stroke="#000000" stroke-width="0.398" fill="none" /><path id="120" transform="matrix(1 0 0 -1 0 841)" d="M312.152 729.309L312.152 756.651" stroke="#000000" stroke-width="0.398" fill="none" /><path id="121" transform="matrix(1 0 0 -1 0 841)" d="M349.692 729.309L349.692 756.651" stroke="#000000" stroke-width="0.398" fill="none" /><path id="122" transform="matrix(1 0 0 -1 0 841)" d="M311.953 729.309L349.892 729.309" stroke="#000000" stroke-width="0.398" fill="none" /><path id="141" transform="matrix(1 0 0 -1 0 841)" d="M113.508 713.195L130.958 713.195" stroke="#000000" stroke-width="0.398" fill="none" /><path id="153" transform="matrix(1 0 0 -1 0 841)" d="M141.098 713.195L167.963 713.195" stroke="#000000" stroke-width="0.398" fill="none" /><path id="162" transform="matrix(1 0 0 -1 0 841)" d="M178.102 713.195L194.992 713.195" stroke="#000000" stroke-width="0.398" fill="none" /><path id="173" transform="matrix(1 0 0 -1 0 841)" d="M205.131 713.195L226.4 713.195" stroke="#000000" stroke-width="0.398" fill="none" /><path id="192" transform="matrix(1 0 0 -1 0 841)" d="M261.992 713.195L286.151 713.195" stroke="#000000" stroke-width="0.398" fill="none" /><path id="203" transform="matrix(1 0 0 -1 0 841)" d="M304.098 713.195L332.871 713.195" stroke="#000000" stroke-width="0.398" fill="none" /><path id="209" transform="matrix(1 0 0 -1 0 841)" d="M299.516 727.914L337.455 727.914" stroke="#000000" stroke-width="0.398" fill="none" /><path id="210" transform="matrix(1 0 0 -1 0 841)" d="M299.715 700.572L299.715 727.914" stroke="#000000" stroke-width="0.398" fill="none" /><path id="211" transform="matrix(1 0 0 -1 0 841)" d="M337.255 700.572L337.255 727.914" stroke="#000000" stroke-width="0.398" fill="none" /><path id="212" transform="matrix(1 0 0 -1 0 841)" d="M299.516 700.572L337.455 700.572" stroke="#000000" stroke-width="0.398" fill="none" /><path id="217" transform="matrix(1 0 0 -1 0 841)" d="M113.508 684.458L130.958 684.458" stroke="#000000" stroke-width="0.398" fill="none" /><path id="230" transform="matrix(1 0 0 -1 0 841)" d="M141.098 684.458L167.963 684.458" stroke="#000000" stroke-width="0.398" fill="none" /><path id="239" transform="matrix(1 0 0 -1 0 841)" d="M178.102 684.458L194.992 684.458" stroke="#000000" stroke-width="0.398" fill="none" /><path id="250" transform="matrix(1 0 0 -1 0 841)" d="M205.131 684.458L226.4 684.458" stroke="#000000" stroke-width="0.398" fill="none" /><path id="269" transform="matrix(1 0 0 -1 0 841)" d="M261.992 684.458L286.151 684.458" stroke="#000000" stroke-width="0.398" fill="none" /><path id="280" transform="matrix(1 0 0 -1 0 841)" d="M304.098 684.458L332.871 684.458" stroke="#000000" stroke-width="0.398" fill="none" /><path id="286" transform="matrix(1 0 0 -1 0 841)" d="M299.516 699.177L337.455 699.177" stroke="#000000" stroke-width="0.398" fill="none" /><path id="287" transform="matrix(1 0 0 -1 0 841)" d="M299.715 671.835L299.715 699.177" stroke="#000000" stroke-width="0.398" fill="none" /><path id="288" transform="matrix(1 0 0 -1 0 841)" d="M337.255 671.835L337.255 699.177" stroke="#000000" stroke-width="0.398" fill="none" /><path id="289" transform="matrix(1 0 0 -1 0 841)" d="M299.516 671.835L337.455 671.835" stroke="#000000" stroke-width="0.398" fill="none" /><path id="294" transform="matrix(1 0 0 -1 0 841)" d="M113.508 655.721L143.395 655.721" stroke="#000000" stroke-width="0.398" fill="none" /><path id="312" transform="matrix(1 0 0 -1 0 841)" d="M153.535 655.721L180.4 655.721" stroke="#000000" stroke-width="0.398" fill="none" /><path id="321" transform="matrix(1 0 0 -1 0 841)" d="M190.539 655.721L207.429 655.721" stroke="#000000" stroke-width="0.398" fill="none" /><path id="332" transform="matrix(1 0 0 -1 0 841)" d="M217.569 655.721L238.838 655.721" stroke="#000000" stroke-width="0.398" fill="none" /><path id="346" transform="matrix(1 0 0 -1 0 841)" d="M248.977 655.721L273.136 655.721" stroke="#000000" stroke-width="0.398" fill="none" /><path id="357" transform="matrix(1 0 0 -1 0 841)" d="M291.083 655.721L319.856 655.721" stroke="#000000" stroke-width="0.398" fill="none" /><path id="363" transform="matrix(1 0 0 -1 0 841)" d="M286.5 670.44L324.439 670.44" stroke="#000000" stroke-width="0.398" fill="none" /><path id="364" transform="matrix(1 0 0 -1 0 841)" d="M286.7 643.098L286.7 670.44" stroke="#000000" stroke-width="0.398" fill="none" /><path id="365" transform="matrix(1 0 0 -1 0 841)" d="M324.24 643.098L324.24 670.44" stroke="#000000" stroke-width="0.398" fill="none" /><path id="366" transform="matrix(1 0 0 -1 0 841)" d="M286.5 643.098L324.439 643.098" stroke="#000000" stroke-width="0.398" fill="none" /><path id="1342" transform="matrix(1 0 0 -1 0 841)" d="M113.508 366.469L124.566 366.469" stroke="#000000" stroke-width="0.398" fill="none" /><path id="1356" transform="matrix(1 0 0 -1 0 841)" d="M139.126 366.469L178.064 366.469" stroke="#000000" stroke-width="0.398" fill="none" /><path id="1364" transform="matrix(1 0 0 -1 0 841)" d="M188.203 366.469L210.074 366.469" stroke="#000000" stroke-width="0.398" fill="none" /><path id="1374" transform="matrix(1 0 0 -1 0 841)" d="M220.214 366.469L246.052 366.469" stroke="#000000" stroke-width="0.398" fill="none" /><path id="1387" transform="matrix(1 0 0 -1 0 841)" d="M263.999 366.469L293.887 366.469" stroke="#000000" stroke-width="0.398" fill="none" /><path id="1390" transform="matrix(1 0 0 -1 0 841)" d="M259.416 380.576L298.469 380.576" stroke="#000000" stroke-width="0.398" fill="none" /><path id="1391" transform="matrix(1 0 0 -1 0 841)" d="M259.615 353.847L259.615 380.576" stroke="#000000" stroke-width="0.398" fill="none" /><path id="1392" transform="matrix(1 0 0 -1 0 841)" d="M298.27 353.847L298.27 380.576" stroke="#000000" stroke-width="0.398" fill="none" /><path id="1393" transform="matrix(1 0 0 -1 0 841)" d="M259.416 353.847L298.469 353.847" stroke="#000000" stroke-width="0.398" fill="none" /><g transform="matrix(0.2 0 0 0.2 249.239 774.845)"><g transform="matrix(1 0 0 1 0 0)"><image x="0" y="0" xlink:href="img_04.png" width="484" height="104" /></g></g></g></g></svg>