<svg xmlns="http://www.w3.org/2000/svg" xmlns:xlink="http://www.w3.org/1999/xlink" id="body_367" preserveAspectRatio="xMinYMin meet" viewBox="0 0 793 1121"><defs><clipPath id="1"><path id="" clip-rule="evenodd" transform="matrix(1 0 0 1 0 0)" d="M0 841L0 -0.8900146L0 -0.8900146L595.276 -0.8900146L595.276 -0.8900146L595.276 841L595.276 841L0 841z" /></clipPath></defs><g transform="matrix(1.333333 0 0 1.333333 0 0)"><g clip-path="url(#1)"><path id="23" transform="matrix(1 0 0 -1 0 841)" d="M85.039 766.564L510.236 766.564" stroke="#000000" stroke-width="0.498" fill="none" /><path id="84" transform="matrix(1 0 0 -1 0 841)" d="M243.478 726.975L255.473 726.975" stroke="#000000" stroke-width="0.398" fill="none" /><path id="97" transform="matrix(1 0 0 -1 0 841)" d="M284.931 734.824L300.443 734.824" stroke="#000000" stroke-width="0.295" fill="none" /><path id="108" transform="matrix(1 0 0 -1 0 841)" d="M306.52 734.824L323.929 734.824" stroke="#000000" stroke-width="0.295" fill="none" /><path id="113" transform="matrix(1 0 0 -1 0 841)" d="M283.721 726.975L325.138 726.975" stroke="#000000" stroke-width="0.398" fill="none" /><path id="139" transform="matrix(1 0 0 -1 0 841)" d="M338.502 736.719L403.359 736.719" stroke="#000000" stroke-width="0.398" fill="none" /><path id="140" transform="matrix(1 0 0 -1 0 841)" d="M338.702 718.806L338.702 736.7191" stroke="#000000" stroke-width="0.398" fill="none" /><path id="141" transform="matrix(1 0 0 -1 0 841)" d="M403.16 718.806L403.16 736.7191" stroke="#000000" stroke-width="0.398" fill="none" /><path id="142" transform="matrix(1 0 0 -1 0 841)" d="M338.502 718.806L403.359 718.806" stroke="#000000" stroke-width="0.398" fill="none" /><path id="181" transform="matrix(1 0 0 -1 0 841)" d="M203.838 690.998L215.833 690.998" stroke="#000000" stroke-width="0.398" fill="none" /><path id="192" transform="matrix(1 0 0 -1 0 841)" d="M237.535 698.847L253.047 698.847" stroke="#000000" stroke-width="0.295" fill="none" /><path id="203" transform="matrix(1 0 0 -1 0 841)" d="M259.124 698.847L276.533 698.847" stroke="#000000" stroke-width="0.295" fill="none" /><path id="208" transform="matrix(1 0 0 -1 0 841)" d="M236.34 690.998L277.729 690.998" stroke="#000000" stroke-width="0.398" fill="none" /><path id="231" transform="matrix(1 0 0 -1 0 841)" d="M291.092 699.112L356.746 699.112" stroke="#000000" stroke-width="0.398" fill="none" /><path id="232" transform="matrix(1 0 0 -1 0 841)" d="M291.292 682.828L291.292 699.112" stroke="#000000" stroke-width="0.398" fill="none" /><path id="233" transform="matrix(1 0 0 -1 0 841)" d="M356.547 682.828L356.547 699.112" stroke="#000000" stroke-width="0.398" fill="none" /><path id="234" transform="matrix(1 0 0 -1 0 841)" d="M291.092 682.828L356.746 682.828" stroke="#000000" stroke-width="0.398" fill="none" /><path id="313" transform="matrix(1 0 0 -1 0 841)" d="M251.791 661.11L364.274 661.11" stroke="#000000" stroke-width="0.398" fill="none" /><path id="388" transform="matrix(1 0 0 -1 0 841)" d="M251.791 641.098L337.595 641.098" stroke="#000000" stroke-width="0.398" fill="none" /><path id="395" transform="matrix(1 0 0 -1 0 841)" d="M252.986 630.94L268.498 630.94" stroke="#000000" stroke-width="0.295" fill="none" /><path id="409" transform="matrix(1 0 0 -1 0 841)" d="M274.575 630.94L291.984 630.94" stroke="#000000" stroke-width="0.295" fill="none" /><path id="420" transform="matrix(1 0 0 -1 0 841)" d="M298.061 630.94L316.627 630.94" stroke="#000000" stroke-width="0.295" fill="none" /><path id="435" transform="matrix(1 0 0 -1 0 841)" d="M322.704 630.94L336.399 630.94" stroke="#000000" stroke-width="0.295" fill="none" /><path id="446" transform="matrix(1 0 0 -1 0 841)" d="M350.959 648.655L375.576 648.655" stroke="#000000" stroke-width="0.398" fill="none" /><path id="447" transform="matrix(1 0 0 -1 0 841)" d="M351.158 635.31L351.158 648.655" stroke="#000000" stroke-width="0.398" fill="none" /><path id="448" transform="matrix(1 0 0 -1 0 841)" d="M375.377 635.31L375.377 648.655" stroke="#000000" stroke-width="0.398" fill="none" /><path id="449" transform="matrix(1 0 0 -1 0 841)" d="M350.959 635.31L375.576 635.31" stroke="#000000" stroke-width="0.398" fill="none" /><path id="722" transform="matrix(1 0 0 -1 0 841)" d="M113.508 493.195L158.528 493.195" stroke="#000000" stroke-width="0.398" fill="none" /><path id="746" transform="matrix(1 0 0 -1 0 841)" d="M171.981 493.195L242.148 493.195" stroke="#000000" stroke-width="0.398" fill="none" /><path id="765" transform="matrix(1 0 0 -1 0 841)" d="M251.18 493.195L315.259 493.195" stroke="#000000" stroke-width="0.398" fill="none" /><path id="799" transform="matrix(1 0 0 -1 0 841)" d="M324.292 493.195L382.174 493.195" stroke="#000000" stroke-width="0.398" fill="none" /><path id="827" transform="matrix(1 0 0 -1 0 841)" d="M391.207 493.195L436.227 493.195" stroke="#000000" stroke-width="0.398" fill="none" /><path id="852" transform="matrix(1 0 0 -1 0 841)" d="M476.859 493.195L521.879 493.195" stroke="#000000" stroke-width="0.398" fill="none" /><path id="856" transform="matrix(1 0 0 -1 0 841)" d="M448.484 509.185L526.462 509.185" stroke="#000000" stroke-width="0.398" fill="none" /><path id="857" transform="matrix(1 0 0 -1 0 841)" d="M448.683 478.649L448.683 509.185" stroke="#000000" stroke-width="0.398" fill="none" /><path id="858" transform="matrix(1 0 0 -1 0 841)" d="M526.263 478.649L526.263 509.185" stroke="#000000" stroke-width="0.398" fill="none" /><path id="859" transform="matrix(1 0 0 -1 0 841)" d="M448.484 478.649L526.462 478.649" stroke="#000000" stroke-width="0.398" fill="none" /><path id="1000" transform="matrix(1 0 0 -1 0 841)" d="M251.791 413.414L331.089 413.414" stroke="#000000" stroke-width="0.398" fill="none" /><path id="1055" transform="matrix(1 0 0 -1 0 841)" d="M251.791 382.519L286.477 382.519" stroke="#000000" stroke-width="0.398" fill="none" /><path id="1061" transform="matrix(1 0 0 -1 0 841)" d="M252.986 374.583L265.509 374.583" stroke="#000000" stroke-width="0.295" fill="none" /><path id="1073" transform="matrix(1 0 0 -1 0 841)" d="M271.587 374.583L285.282 374.583" stroke="#000000" stroke-width="0.295" fill="none" /><path id="1084" transform="matrix(1 0 0 -1 0 841)" d="M299.841 390.075L324.458 390.075" stroke="#000000" stroke-width="0.398" fill="none" /><path id="1085" transform="matrix(1 0 0 -1 0 841)" d="M300.04 376.73L300.04 390.075" stroke="#000000" stroke-width="0.398" fill="none" /><path id="1086" transform="matrix(1 0 0 -1 0 841)" d="M324.259 376.73L324.259 390.075" stroke="#000000" stroke-width="0.398" fill="none" /><path id="1087" transform="matrix(1 0 0 -1 0 841)" d="M299.841 376.73L324.458 376.73" stroke="#000000" stroke-width="0.398" fill="none" /><path id="1228" transform="matrix(1 0 0 -1 0 841)" d="M251.791 317.283L331.089 317.283" stroke="#000000" stroke-width="0.398" fill="none" /><path id="1283" transform="matrix(1 0 0 -1 0 841)" d="M251.791 286.388L286.477 286.388" stroke="#000000" stroke-width="0.398" fill="none" /><path id="1289" transform="matrix(1 0 0 -1 0 841)" d="M252.986 278.452L265.509 278.452" stroke="#000000" stroke-width="0.295" fill="none" /><path id="1301" transform="matrix(1 0 0 -1 0 841)" d="M271.587 278.452L285.282 278.452" stroke="#000000" stroke-width="0.295" fill="none" /><path id="1312" transform="matrix(1 0 0 -1 0 841)" d="M299.841 293.944L324.458 293.944" stroke="#000000" stroke-width="0.398" fill="none" /><path id="1313" transform="matrix(1 0 0 -1 0 841)" d="M300.04 280.599L300.04 293.944" stroke="#000000" stroke-width="0.398" fill="none" /><path id="1314" transform="matrix(1 0 0 -1 0 841)" d="M324.259 280.599L324.259 293.944" stroke="#000000" stroke-width="0.398" fill="none" /><path id="1315" transform="matrix(1 0 0 -1 0 841)" d="M299.841 280.599L324.458 280.599" stroke="#000000" stroke-width="0.398" fill="none" /><path id="1486" transform="matrix(1 0 0 -1 0 841)" d="M251.791 215.483L329.128 215.483" stroke="#000000" stroke-width="0.398" fill="none" /><path id="1618" transform="matrix(1 0 0 -1 0 841)" d="M329.923 174.256L340.952 174.256" stroke="#000000" stroke-width="0.398" fill="none" /><path id="1626" transform="matrix(1 0 0 -1 0 841)" d="M351.092 174.256L372.963 174.256" stroke="#000000" stroke-width="0.398" fill="none" /><path id="1645" transform="matrix(1 0 0 -1 0 841)" d="M392.275 181.813L454.901 181.813" stroke="#000000" stroke-width="0.398" fill="none" /><path id="1646" transform="matrix(1 0 0 -1 0 841)" d="M392.474 166.545L392.474 181.813" stroke="#000000" stroke-width="0.398" fill="none" /><path id="1647" transform="matrix(1 0 0 -1 0 841)" d="M454.701 166.545L454.701 181.813" stroke="#000000" stroke-width="0.398" fill="none" /><path id="1648" transform="matrix(1 0 0 -1 0 841)" d="M392.275 166.545L454.901 166.545" stroke="#000000" stroke-width="0.398" fill="none" /><g transform="matrix(0.2 0 0 0.2 249.239 774.845)"><g transform="matrix(1 0 0 1 0 0)"><image x="0" y="0" xlink:href="img_04.png" width="484" height="104" /></g></g></g></g></svg>