<svg xmlns="http://www.w3.org/2000/svg" xmlns:xlink="http://www.w3.org/1999/xlink" id="body_398" preserveAspectRatio="xMinYMin meet" viewBox="0 0 793 1121"><defs><clipPath id="1"><path id="" clip-rule="evenodd" transform="matrix(1 0 0 1 0 0)" d="M0 841L0 -0.8900146L0 -0.8900146L595.276 -0.8900146L595.276 -0.8900146L595.276 841L595.276 841L0 841z" /></clipPath></defs><g transform="matrix(1.333333 0 0 1.333333 0 0)"><g clip-path="url(#1)"><path id="31" transform="matrix(1 0 0 -1 0 841)" d="M85.039 766.564L510.236 766.564" stroke="#000000" stroke-width="0.498" fill="none" /><path id="144" transform="matrix(1 0 0 -1 0 841)" d="M329.02 723.316L389.887 723.316" stroke="#000000" stroke-width="0.398" fill="none" /><path id="171" transform="matrix(1 0 0 -1 0 841)" d="M432.603 731.43L509.105 731.43" stroke="#000000" stroke-width="0.398" fill="none" /><path id="172" transform="matrix(1 0 0 -1 0 841)" d="M432.802 715.146L432.802 731.43" stroke="#000000" stroke-width="0.398" fill="none" /><path id="173" transform="matrix(1 0 0 -1 0 841)" d="M508.906 715.146L508.906 731.43" stroke="#000000" stroke-width="0.398" fill="none" /><path id="174" transform="matrix(1 0 0 -1 0 841)" d="M432.603 715.146L509.105 715.146" stroke="#000000" stroke-width="0.398" fill="none" /><path id="514" transform="matrix(1 0 0 -1 0 841)" d="M153.631 573.876L453.29 573.876" stroke="#000000" stroke-width="0.398" fill="none" /><path id="532" transform="matrix(1 0 0 -1 0 841)" d="M238.92 561.368L253.824 561.368" stroke="#000000" stroke-width="0.398" fill="none" /><path id="617" transform="matrix(1 0 0 -1 0 841)" d="M153.631 537.289L337.528 537.289" stroke="#000000" stroke-width="0.398" fill="none" /><path id="684" transform="matrix(1 0 0 -1 0 841)" d="M410.218 515.894L422.392 515.894" stroke="#000000" stroke-width="0.398" fill="none" /><path id="686" transform="matrix(1 0 0 -1 0 841)" d="M169.354 505.065L550.556 505.065" stroke="#000000" stroke-width="0.398" fill="none" /><path id="698" transform="matrix(1 0 0 -1 0 841)" d="M225.172 495.088L237.346 495.088" stroke="#000000" stroke-width="0.398" fill="none" /><path id="739" transform="matrix(1 0 0 -1 0 841)" d="M437.021 495.088L449.195 495.088" stroke="#000000" stroke-width="0.398" fill="none" /><path id="845" transform="matrix(1 0 0 -1 0 841)" d="M433.806 472.932L546.506 472.932" stroke="#000000" stroke-width="0.398" fill="none" /><path id="900" transform="matrix(1 0 0 -1 0 841)" d="M293.443 450.73L406.143 450.73" stroke="#000000" stroke-width="0.398" fill="none" /><path id="956" transform="matrix(1 0 0 -1 0 841)" d="M227.84 425.754L256.613 425.754" stroke="#000000" stroke-width="0.398" fill="none" /><path id="984" transform="matrix(1 0 0 -1 0 841)" d="M371.232 425.754L386.136 425.754" stroke="#000000" stroke-width="0.398" fill="none" /><path id="988" transform="matrix(1 0 0 -1 0 841)" d="M332.895 440.055L390.719 440.055" stroke="#000000" stroke-width="0.398" fill="none" /><path id="989" transform="matrix(1 0 0 -1 0 841)" d="M333.094 411.209L333.094 440.056" stroke="#000000" stroke-width="0.398" fill="none" /><path id="990" transform="matrix(1 0 0 -1 0 841)" d="M390.52 411.209L390.52 440.056" stroke="#000000" stroke-width="0.398" fill="none" /><path id="991" transform="matrix(1 0 0 -1 0 841)" d="M332.895 411.209L390.719 411.209" stroke="#000000" stroke-width="0.398" fill="none" /><path id="1203" transform="matrix(1 0 0 -1 0 841)" d="M134.373 305.927L212.33 305.927" stroke="#000000" stroke-width="0.398" fill="none" /><path id="1239" transform="matrix(1 0 0 -1 0 841)" d="M264.51 305.927L374.049 305.927" stroke="#000000" stroke-width="0.398" fill="none" /><path id="1268" transform="matrix(1 0 0 -1 0 841)" d="M460.122 313.483L507.804 313.483" stroke="#000000" stroke-width="0.398" fill="none" /><path id="1269" transform="matrix(1 0 0 -1 0 841)" d="M460.322 298.315L460.322 313.483" stroke="#000000" stroke-width="0.398" fill="none" /><path id="1270" transform="matrix(1 0 0 -1 0 841)" d="M507.605 298.315L507.605 313.483" stroke="#000000" stroke-width="0.398" fill="none" /><path id="1271" transform="matrix(1 0 0 -1 0 841)" d="M460.122 298.315L507.804 298.315" stroke="#000000" stroke-width="0.398" fill="none" /><path id="1434" transform="matrix(1 0 0 -1 0 841)" d="M112.312 255.309L541.893 255.309" stroke="#000000" stroke-width="0.283" fill="none" /><path id="1435" transform="matrix(1 0 0 -1 0 841)" d="M112.454 245.723L112.454 255.168" stroke="#000000" stroke-width="0.283" fill="none" /><path id="1463" transform="matrix(1 0 0 -1 0 841)" d="M327.103 245.723L327.103 255.168" stroke="#000000" stroke-width="0.283" fill="none" /><path id="1490" transform="matrix(1 0 0 -1 0 841)" d="M541.752 245.723L541.752 255.168" stroke="#000000" stroke-width="0.283" fill="none" /><path id="1491" transform="matrix(1 0 0 -1 0 841)" d="M112.312 245.581L541.893 245.581" stroke="#000000" stroke-width="0.283" fill="none" /><path id="1492" transform="matrix(1 0 0 -1 0 841)" d="M112.454 227.422L112.454 245.439" stroke="#000000" stroke-width="0.283" fill="none" /><path id="1510" transform="matrix(1 0 0 -1 0 841)" d="M197.329 236.857L209.503 236.857" stroke="#000000" stroke-width="0.398" fill="none" /><path id="1512" transform="matrix(1 0 0 -1 0 841)" d="M327.103 227.422L327.103 245.439" stroke="#000000" stroke-width="0.283" fill="none" /><path id="1524" transform="matrix(1 0 0 -1 0 841)" d="M541.752 227.422L541.752 245.439" stroke="#000000" stroke-width="0.283" fill="none" /><path id="1525" transform="matrix(1 0 0 -1 0 841)" d="M112.312 227.281L541.893 227.281" stroke="#000000" stroke-width="0.283" fill="none" /><path id="1526" transform="matrix(1 0 0 -1 0 841)" d="M112.454 209.231L112.454 227.139" stroke="#000000" stroke-width="0.283" fill="none" /><path id="1538" transform="matrix(1 0 0 -1 0 841)" d="M175.818 218.556L187.992 218.556" stroke="#000000" stroke-width="0.398" fill="none" /><path id="1540" transform="matrix(1 0 0 -1 0 841)" d="M327.103 209.231L327.103 227.139" stroke="#000000" stroke-width="0.283" fill="none" /><path id="1570" transform="matrix(1 0 0 -1 0 841)" d="M541.752 209.231L541.752 227.139" stroke="#000000" stroke-width="0.283" fill="none" /><path id="1571" transform="matrix(1 0 0 -1 0 841)" d="M112.312 209.089L541.893 209.089" stroke="#000000" stroke-width="0.283" fill="none" /><path id="1601" transform="matrix(1 0 0 -1 0 841)" d="M151.098 160.397L274.95 160.397" stroke="#000000" stroke-width="0.398" fill="none" /><path id="1605" transform="matrix(1 0 0 -1 0 841)" d="M152.294 147.89L167.198 147.89" stroke="#000000" stroke-width="0.398" fill="none" /><path id="1623" transform="matrix(1 0 0 -1 0 841)" d="M229.152 147.89L244.056 147.89" stroke="#000000" stroke-width="0.398" fill="none" /><path id="1671" transform="matrix(1 0 0 -1 0 841)" d="M318.092 98.607L330.266 98.607" stroke="#000000" stroke-width="0.398" fill="none" /><g transform="matrix(0.2 0 0 0.2 249.239 774.845)"><g transform="matrix(1 0 0 1 0 0)"><image x="0" y="0" xlink:href="img_04.png" width="484" height="104" /></g></g></g></g></svg>