<svg xmlns="http://www.w3.org/2000/svg" xmlns:xlink="http://www.w3.org/1999/xlink" id="body_326" preserveAspectRatio="xMinYMin meet" viewBox="0 0 793 1121"><defs><clipPath id="1"><path id="" clip-rule="evenodd" transform="matrix(1 0 0 1 0 0)" d="M0 841L0 -0.8900146L0 -0.8900146L595.276 -0.8900146L595.276 -0.8900146L595.276 841L595.276 841L0 841z" /></clipPath></defs><g transform="matrix(1.333333 0 0 1.333333 0 0)"><g clip-path="url(#1)"><path id="22" transform="matrix(1 0 0 -1 0 841)" d="M85.039 766.564L510.236 766.564" stroke="#000000" stroke-width="0.498" fill="none" /><path id="361" transform="matrix(1 0 0 -1 0 841)" d="M315.946 506.439L338.86 506.439L338.86 517.647L315.946 517.647z" stroke="none" fill="#FFF100" fill-rule="nonzero" /><path id="367" transform="matrix(1 0 0 -1 0 841)" d="M338.611 506.439L341.102 506.439L341.102 517.647L338.611 517.647z" stroke="none" fill="#FFF100" fill-rule="nonzero" /><path id="368" transform="matrix(1 0 0 -1 0 841)" d="M340.853 506.439L359.622 506.439L359.622 517.647L340.853 517.647z" stroke="none" fill="#FFF100" fill-rule="nonzero" /><path id="373" transform="matrix(1 0 0 -1 0 841)" d="M359.373 506.439L361.864 506.439L361.864 517.647L359.373 517.647z" stroke="none" fill="#FFF100" fill-rule="nonzero" /><path id="374" transform="matrix(1 0 0 -1 0 841)" d="M361.615 506.439L376.499 506.439L376.499 517.647L361.615 517.647z" stroke="none" fill="#FFF100" fill-rule="nonzero" /><path id="378" transform="matrix(1 0 0 -1 0 841)" d="M376.25 506.439L378.741 506.439L378.741 517.647L376.25 517.647z" stroke="none" fill="#FFF100" fill-rule="nonzero" /><path id="379" transform="matrix(1 0 0 -1 0 841)" d="M378.491 506.439L396.703 506.439L396.703 517.647L378.491 517.647z" stroke="none" fill="#FFF100" fill-rule="nonzero" /><path id="383" transform="matrix(1 0 0 -1 0 841)" d="M396.454 506.439L398.945 506.439L398.945 517.647L396.454 517.647z" stroke="none" fill="#FFF100" fill-rule="nonzero" /><path id="384" transform="matrix(1 0 0 -1 0 841)" d="M398.695 506.439L411.357 506.439L411.357 517.647L398.695 517.647z" stroke="none" fill="#FFF100" fill-rule="nonzero" /><path id="388" transform="matrix(1 0 0 -1 0 841)" d="M411.109 506.439L413.6 506.439L413.6 517.647L411.109 517.647z" stroke="none" fill="#FFF100" fill-rule="nonzero" /><path id="389" transform="matrix(1 0 0 -1 0 841)" d="M413.35 506.439L427.686 506.439L427.686 517.647L413.35 517.647z" stroke="none" fill="#FFF100" fill-rule="nonzero" /><path id="393" transform="matrix(1 0 0 -1 0 841)" d="M427.188 506.439L442.481 506.439L442.481 517.647L427.188 517.647z" stroke="none" fill="#FFF100" fill-rule="nonzero" /><path id="397" transform="matrix(1 0 0 -1 0 841)" d="M441.983 506.439L466.561 506.439L466.561 517.647L441.983 517.647z" stroke="none" fill="#FFF100" fill-rule="nonzero" /><path id="574" transform="matrix(1 0 0 -1 0 841)" d="M188.942 433.581L231.544 433.581" stroke="#000000" stroke-width="0.398" fill="none" /><path id="687" transform="matrix(1 0 0 -1 0 841)" d="M271.42 392.046L283.594 392.046" stroke="#000000" stroke-width="0.398" fill="none" /><path id="719" transform="matrix(1 0 0 -1 0 841)" d="M274.428 373.033L286.602 373.033" stroke="#000000" stroke-width="0.398" fill="none" /><path id="750" transform="matrix(1 0 0 -1 0 841)" d="M270.562 354.02L282.736 354.02" stroke="#000000" stroke-width="0.398" fill="none" /><path id="783" transform="matrix(1 0 0 -1 0 841)" d="M281.382 335.006L293.556 335.006" stroke="#000000" stroke-width="0.398" fill="none" /><path id="814" transform="matrix(1 0 0 -1 0 841)" d="M271.669 315.993L283.843 315.993" stroke="#000000" stroke-width="0.398" fill="none" /><path id="849" transform="matrix(1 0 0 -1 0 841)" d="M289.123 296.979L301.297 296.979" stroke="#000000" stroke-width="0.398" fill="none" /><g transform="matrix(0.2 0 0 0.2 249.239 774.845)"><g transform="matrix(1 0 0 1 0 0)"><image x="0" y="0" xlink:href="img_04.png" width="484" height="104" /></g></g></g></g></svg>