<svg xmlns="http://www.w3.org/2000/svg" xmlns:xlink="http://www.w3.org/1999/xlink" id="body_234" preserveAspectRatio="xMinYMin meet" viewBox="0 0 793 1121"><defs><clipPath id="1"><path id="" clip-rule="evenodd" transform="matrix(1 0 0 1 0 0)" d="M0 841L0 -0.8900146L0 -0.8900146L595.276 -0.8900146L595.276 -0.8900146L595.276 841L595.276 841L0 841z" /></clipPath></defs><g transform="matrix(1.333333 0 0 1.333333 0 0)"><g clip-path="url(#1)"><path id="30" transform="matrix(1 0 0 -1 0 841)" d="M85.039 766.564L510.236 766.564" stroke="#000000" stroke-width="0.498" fill="none" /><g transform="matrix(0.375 0 0 0.375 85.039 84.14899)"><g transform="matrix(1 0 0 1 0 0)"><image x="0" y="0" xlink:href="img_347.png" width="1187" height="458" /></g></g><g transform="matrix(0.3251613 0 0 0.3251613 110.346 285.2396)"><g transform="matrix(1 0 0 1 0 0)"><image x="0" y="0" xlink:href="img_348.png" width="1152" height="864" /></g></g><path id="242" transform="matrix(1 0 0 -1 0 841)" d="M366.645 111.565L384.647 111.565L384.647 122.773L366.645 122.773z" stroke="none" fill="#FFF100" fill-rule="nonzero" /><path id="247" transform="matrix(1 0 0 -1 0 841)" d="M384.256 111.565L395.274 111.565L395.274 122.773L384.256 122.773z" stroke="none" fill="#FFF100" fill-rule="nonzero" /><path id="251" transform="matrix(1 0 0 -1 0 841)" d="M395.089 111.565L397.582 111.565L397.582 122.773L395.089 122.773z" stroke="none" fill="#FFF100" fill-rule="nonzero" /><path id="252" transform="matrix(1 0 0 -1 0 841)" d="M397.332 111.565L416.639 111.565L416.639 122.773L397.332 122.773z" stroke="none" fill="#FFF100" fill-rule="nonzero" /><g transform="matrix(0.2 0 0 0.2 249.239 774.845)"><g transform="matrix(1 0 0 1 0 0)"><image x="0" y="0" xlink:href="img_04.png" width="484" height="104" /></g></g></g></g></svg>