<svg xmlns="http://www.w3.org/2000/svg" xmlns:xlink="http://www.w3.org/1999/xlink" id="body_436" preserveAspectRatio="xMinYMin meet" viewBox="0 0 793 1121"><defs><clipPath id="1"><path id="" clip-rule="evenodd" transform="matrix(1 0 0 1 0 0)" d="M0 841L0 -0.8900146L0 -0.8900146L595.276 -0.8900146L595.276 -0.8900146L595.276 841L595.276 841L0 841z" /></clipPath></defs><g transform="matrix(1.333333 0 0 1.333333 0 0)"><g clip-path="url(#1)"><path id="31" transform="matrix(1 0 0 -1 0 841)" d="M85.039 766.564L510.236 766.564" stroke="#000000" stroke-width="0.498" fill="none" /><path id="268" transform="matrix(1 0 0 -1 0 841)" d="M113.508 674.433L150.716 674.433" stroke="#000000" stroke-width="0.398" fill="none" /><path id="288" transform="matrix(1 0 0 -1 0 841)" d="M160.855 674.433L219.939 674.433" stroke="#000000" stroke-width="0.398" fill="none" /><path id="309" transform="matrix(1 0 0 -1 0 841)" d="M230.079 674.433L300.968 674.433" stroke="#000000" stroke-width="0.398" fill="none" /><path id="347" transform="matrix(1 0 0 -1 0 841)" d="M315.527 674.433L375.218 674.433" stroke="#000000" stroke-width="0.398" fill="none" /><path id="415" transform="matrix(1 0 0 -1 0 841)" d="M113.508 630.372L178.18 630.372" stroke="#000000" stroke-width="0.398" fill="none" /><path id="442" transform="matrix(1 0 0 -1 0 841)" d="M192.739 630.372L280.285 630.372" stroke="#000000" stroke-width="0.398" fill="none" /><path id="472" transform="matrix(1 0 0 -1 0 841)" d="M290.425 630.372L377.16 630.372" stroke="#000000" stroke-width="0.398" fill="none" /><path id="510" transform="matrix(1 0 0 -1 0 841)" d="M387.299 630.372L455.952 630.372" stroke="#000000" stroke-width="0.398" fill="none" /><path id="551" transform="matrix(1 0 0 -1 0 841)" d="M113.508 593.27L195.999 593.27" stroke="#000000" stroke-width="0.398" fill="none" /><path id="565" transform="matrix(1 0 0 -1 0 841)" d="M210.558 593.27L244.132 593.27" stroke="#000000" stroke-width="0.398" fill="none" /><path id="586" transform="matrix(1 0 0 -1 0 841)" d="M262.078 593.27L306.262 593.27" stroke="#000000" stroke-width="0.398" fill="none" /><path id="590" transform="matrix(1 0 0 -1 0 841)" d="M257.495 607.572L310.844 607.572" stroke="#000000" stroke-width="0.398" fill="none" /><path id="591" transform="matrix(1 0 0 -1 0 841)" d="M257.695 580.648L257.695 607.572" stroke="#000000" stroke-width="0.398" fill="none" /><path id="592" transform="matrix(1 0 0 -1 0 841)" d="M310.646 580.648L310.646 607.572" stroke="#000000" stroke-width="0.398" fill="none" /><path id="593" transform="matrix(1 0 0 -1 0 841)" d="M257.495 580.648L310.844 580.648" stroke="#000000" stroke-width="0.398" fill="none" /><path id="775" transform="matrix(1 0 0 -1 0 841)" d="M154.053 502.01L208.155 502.01" stroke="#000000" stroke-width="0.398" fill="none" /><path id="793" transform="matrix(1 0 0 -1 0 841)" d="M218.295 502.01L261.229 502.01" stroke="#000000" stroke-width="0.398" fill="none" /><path id="811" transform="matrix(1 0 0 -1 0 841)" d="M275.789 502.01L331.794 502.01" stroke="#000000" stroke-width="0.398" fill="none" /><path id="877" transform="matrix(1 0 0 -1 0 841)" d="M113.508 457.949L169.513 457.949" stroke="#000000" stroke-width="0.398" fill="none" /><path id="904" transform="matrix(1 0 0 -1 0 841)" d="M184.072 457.949L266.636 457.949" stroke="#000000" stroke-width="0.398" fill="none" /><path id="931" transform="matrix(1 0 0 -1 0 841)" d="M276.776 457.949L358.529 457.949" stroke="#000000" stroke-width="0.398" fill="none" /><path id="968" transform="matrix(1 0 0 -1 0 841)" d="M368.669 457.949L437.322 457.949" stroke="#000000" stroke-width="0.398" fill="none" /><path id="1009" transform="matrix(1 0 0 -1 0 841)" d="M113.508 420.847L196.072 420.847" stroke="#000000" stroke-width="0.398" fill="none" /><path id="1019" transform="matrix(1 0 0 -1 0 841)" d="M210.632 420.847L240.519 420.847" stroke="#000000" stroke-width="0.398" fill="none" /><path id="1040" transform="matrix(1 0 0 -1 0 841)" d="M258.466 420.847L304.872 420.847" stroke="#000000" stroke-width="0.398" fill="none" /><path id="1044" transform="matrix(1 0 0 -1 0 841)" d="M253.883 435.149L309.454 435.149" stroke="#000000" stroke-width="0.398" fill="none" /><path id="1045" transform="matrix(1 0 0 -1 0 841)" d="M254.082 406.302L254.082 435.149" stroke="#000000" stroke-width="0.398" fill="none" /><path id="1046" transform="matrix(1 0 0 -1 0 841)" d="M309.255 406.302L309.255 435.149" stroke="#000000" stroke-width="0.398" fill="none" /><path id="1047" transform="matrix(1 0 0 -1 0 841)" d="M253.883 406.302L309.454 406.302" stroke="#000000" stroke-width="0.398" fill="none" /><path id="1090" transform="matrix(1 0 0 -1 0 841)" d="M113.508 368.453L169.513 368.453" stroke="#000000" stroke-width="0.398" fill="none" /><path id="1113" transform="matrix(1 0 0 -1 0 841)" d="M179.652 368.453L248.305 368.453" stroke="#000000" stroke-width="0.398" fill="none" /><path id="1150" transform="matrix(1 0 0 -1 0 841)" d="M258.444 368.453L340.197 368.453" stroke="#000000" stroke-width="0.398" fill="none" /><path id="1184" transform="matrix(1 0 0 -1 0 841)" d="M358.145 368.453L404.551 368.453" stroke="#000000" stroke-width="0.398" fill="none" /><path id="1188" transform="matrix(1 0 0 -1 0 841)" d="M353.562 382.754L409.133 382.754" stroke="#000000" stroke-width="0.398" fill="none" /><path id="1189" transform="matrix(1 0 0 -1 0 841)" d="M353.761 353.908L353.761 382.755" stroke="#000000" stroke-width="0.398" fill="none" /><path id="1190" transform="matrix(1 0 0 -1 0 841)" d="M408.934 353.908L408.934 382.755" stroke="#000000" stroke-width="0.398" fill="none" /><path id="1191" transform="matrix(1 0 0 -1 0 841)" d="M353.562 353.908L409.133 353.908" stroke="#000000" stroke-width="0.398" fill="none" /><path id="1230" transform="matrix(1 0 0 -1 0 841)" d="M112.312 338.34L308.305 338.34" stroke="#000000" stroke-width="0.398" fill="none" /><path id="1231" transform="matrix(1 0 0 -1 0 841)" d="M112.511 323.077L112.511 338.34" stroke="#000000" stroke-width="0.398" fill="none" /><path id="1232" transform="matrix(1 0 0 -1 0 841)" d="M308.106 323.077L308.106 338.34" stroke="#000000" stroke-width="0.398" fill="none" /><path id="1233" transform="matrix(1 0 0 -1 0 841)" d="M112.312 323.077L308.305 323.077" stroke="#000000" stroke-width="0.398" fill="none" /><path id="1255" transform="matrix(1 0 0 -1 0 841)" d="M147.032 300.531L247.216 300.531" stroke="#000000" stroke-width="0.398" fill="none" /><path id="1298" transform="matrix(1 0 0 -1 0 841)" d="M261.776 300.531L327.561 300.531" stroke="#000000" stroke-width="0.398" fill="none" /><path id="1519" transform="matrix(1 0 0 -1 0 841)" d="M113.508 197.465L145.951 197.465" stroke="#000000" stroke-width="0.398" fill="none" /><path id="1533" transform="matrix(1 0 0 -1 0 841)" d="M156.09 197.465L191.401 197.465" stroke="#000000" stroke-width="0.398" fill="none" /><path id="1550" transform="matrix(1 0 0 -1 0 841)" d="M201.541 197.465L240.479 197.465" stroke="#000000" stroke-width="0.398" fill="none" /><path id="1572" transform="matrix(1 0 0 -1 0 841)" d="M255.038 197.465L314.404 197.465" stroke="#000000" stroke-width="0.398" fill="none" /><path id="1602" transform="matrix(1 0 0 -1 0 841)" d="M113.508 167.577L170.35 167.577" stroke="#000000" stroke-width="0.398" fill="none" /><path id="1625" transform="matrix(1 0 0 -1 0 841)" d="M214.305 167.577L223.314 167.577" stroke="#000000" stroke-width="0.398" fill="none" /><path id="1641" transform="matrix(1 0 0 -1 0 841)" d="M241.739 167.577L328.194 167.577" stroke="#000000" stroke-width="0.398" fill="none" /><path id="1652" transform="matrix(1 0 0 -1 0 841)" d="M242.934 161.378L270.156 161.378" stroke="#000000" stroke-width="0.295" fill="none" /><path id="1691" transform="matrix(1 0 0 -1 0 841)" d="M341.558 175.133L423.799 175.133" stroke="#000000" stroke-width="0.398" fill="none" /><path id="1692" transform="matrix(1 0 0 -1 0 841)" d="M341.757 159.866L341.757 175.134" stroke="#000000" stroke-width="0.398" fill="none" /><path id="1693" transform="matrix(1 0 0 -1 0 841)" d="M423.6 159.866L423.6 175.134" stroke="#000000" stroke-width="0.398" fill="none" /><path id="1694" transform="matrix(1 0 0 -1 0 841)" d="M341.558 159.866L423.799 159.866" stroke="#000000" stroke-width="0.398" fill="none" /><g transform="matrix(0.2 0 0 0.2 249.239 774.845)"><g transform="matrix(1 0 0 1 0 0)"><image x="0" y="0" xlink:href="img_04.png" width="484" height="104" /></g></g></g></g></svg>