<svg xmlns="http://www.w3.org/2000/svg" xmlns:xlink="http://www.w3.org/1999/xlink" id="body_304" preserveAspectRatio="xMinYMin meet" viewBox="0 0 793 1121"><defs><clipPath id="1"><path id="" clip-rule="evenodd" transform="matrix(1 0 0 1 0 0)" d="M0 841L0 -0.8900146L0 -0.8900146L595.276 -0.8900146L595.276 -0.8900146L595.276 841L595.276 841L0 841z" /></clipPath></defs><g transform="matrix(1.333333 0 0 1.333333 0 0)"><g clip-path="url(#1)"><path id="24" transform="matrix(1 0 0 -1 0 841)" d="M85.039 766.564L510.236 766.564" stroke="#000000" stroke-width="0.498" fill="none" /><path id="337" transform="matrix(1 0 0 -1 0 841)" d="M292.502 598.578L324.103 598.578" stroke="#000000" stroke-width="0.398" fill="none" /><path id="465" transform="matrix(1 0 0 -1 0 841)" d="M113.508 513.681L173.612 513.681" stroke="#000000" stroke-width="0.398" fill="none" /><path id="478" transform="matrix(1 0 0 -1 0 841)" d="M183.751 513.681L208.657 513.681" stroke="#000000" stroke-width="0.398" fill="none" /><path id="490" transform="matrix(1 0 0 -1 0 841)" d="M218.797 513.681L242.827 513.681" stroke="#000000" stroke-width="0.398" fill="none" /><path id="507" transform="matrix(1 0 0 -1 0 841)" d="M260.774 513.681L319.903 513.681" stroke="#000000" stroke-width="0.398" fill="none" /><path id="511" transform="matrix(1 0 0 -1 0 841)" d="M256.191 527.982L324.485 527.982" stroke="#000000" stroke-width="0.398" fill="none" /><path id="512" transform="matrix(1 0 0 -1 0 841)" d="M256.391 499.136L256.391 527.983" stroke="#000000" stroke-width="0.398" fill="none" /><path id="513" transform="matrix(1 0 0 -1 0 841)" d="M324.286 499.136L324.286 527.983" stroke="#000000" stroke-width="0.398" fill="none" /><path id="514" transform="matrix(1 0 0 -1 0 841)" d="M256.191 499.136L324.485 499.136" stroke="#000000" stroke-width="0.398" fill="none" /><path id="631" transform="matrix(1 0 0 -1 0 841)" d="M113.508 444.305L173.612 444.305" stroke="#000000" stroke-width="0.398" fill="none" /><path id="648" transform="matrix(1 0 0 -1 0 841)" d="M183.751 444.305L213.639 444.305" stroke="#000000" stroke-width="0.398" fill="none" /><path id="666" transform="matrix(1 0 0 -1 0 841)" d="M243.704 444.305L258.648 444.305" stroke="#000000" stroke-width="0.398" fill="none" /><path id="686" transform="matrix(1 0 0 -1 0 841)" d="M276.595 444.305L355.509 444.305" stroke="#000000" stroke-width="0.398" fill="none" /><path id="690" transform="matrix(1 0 0 -1 0 841)" d="M272.012 458.606L360.092 458.606" stroke="#000000" stroke-width="0.398" fill="none" /><path id="691" transform="matrix(1 0 0 -1 0 841)" d="M272.211 429.76L272.211 458.607" stroke="#000000" stroke-width="0.398" fill="none" /><path id="692" transform="matrix(1 0 0 -1 0 841)" d="M359.893 429.76L359.893 458.607" stroke="#000000" stroke-width="0.398" fill="none" /><path id="693" transform="matrix(1 0 0 -1 0 841)" d="M272.012 429.76L360.092 429.76" stroke="#000000" stroke-width="0.398" fill="none" /><path id="905" transform="matrix(1 0 0 -1 0 841)" d="M225.897 310.4856L112.5098 310.4856L112.5098 310.4856L112.5098 267.9654L112.5098 267.9654L225.897 267.9654z" stroke="#000000" stroke-width="0.3985" fill="#E3F5FD" fill-rule="nonzero" /><path id="906" transform="matrix(1 0 0 -1 0 841)" d="M225.897 310.4856L247.7237 332.3123L247.7237 332.3123L247.7237 289.7921L247.7237 289.7921L225.897 267.9654z" stroke="#000000" stroke-width="0.3985" fill="#FFFFFF" fill-rule="nonzero" /><path id="907" transform="matrix(1 0 0 -1 0 841)" d="M225.897 310.4856L247.7237 332.3123L247.7237 332.3123L247.7237 289.7921L247.7237 289.7921L225.897 267.9654z" stroke="#000000" stroke-width="0.3985" fill="#E3F5FD" fill-rule="nonzero" /><path id="908" transform="matrix(1 0 0 -1 0 841)" d="M112.5098 324.659L134.3365 346.4857L134.3365 346.4857L134.3365 332.3123L134.3365 332.3123L112.5098 310.4856z" stroke="#000000" stroke-width="0.3985" fill="none" /><path id="909" transform="matrix(1 0 0 -1 0 841)" d="M225.897 310.4856L112.5098 310.4856L112.5098 310.4856L134.3365 332.3123L134.3365 332.3123L247.7237 332.3123z" stroke="#000000" stroke-width="0.3985" fill="none" /><path id="910" transform="matrix(1 0 0 -1 0 841)" d="M225.897 324.659L112.5098 324.659L112.5098 324.659L112.5098 310.4856L112.5098 310.4856L225.897 310.4856z" stroke="#000000" stroke-width="0.3985" fill="#FFFFFF" fill-rule="nonzero" /><path id="911" transform="matrix(1 0 0 -1 0 841)" d="M225.897 324.659L247.7237 346.4857L247.7237 346.4857L247.7237 332.3123L247.7237 332.3123L225.897 310.4856z" stroke="#000000" stroke-width="0.3985" fill="#FFFFFF" fill-rule="nonzero" /><path id="912" transform="matrix(1 0 0 -1 0 841)" d="M225.897 324.659L247.7237 346.4857L247.7237 346.4857L247.7237 332.3123L247.7237 332.3123L225.897 310.4856z" stroke="#000000" stroke-width="0.3985" fill="#FFFFFF" fill-rule="nonzero" /><path id="913" transform="matrix(1 0 0 -1 0 841)" d="M225.897 324.659L112.5098 324.659L112.5098 324.659L134.3365 346.4857L134.3365 346.4857L247.7237 346.4857z" stroke="#000000" stroke-width="0.3985" fill="#FFFFFF" fill-rule="nonzero" /><path id="914" transform="matrix(1 0 0 -1 0 841)" d="M112.9083 259.4612L225.4985 259.4612" stroke="#000000" stroke-width="0.3985" fill="none" /><path id="915" transform="matrix(1 0 0 -1 0 841)" d="M114.7813 257.0702C 114.4027 258.5049 113.559 259.1823 112.709 259.4612C 113.559 259.7402 114.4027 260.4176 114.7813 261.8523" stroke="#000000" stroke-width="0.3985" stroke-linecap="round" fill="none" /><path id="916" transform="matrix(1 0 0 -1 0 841)" d="M223.6255 261.8523C 224.0041 260.4176 224.8477 259.7402 225.6977 259.4612C 224.8477 259.1823 224.0041 258.5049 223.6255 257.0702" stroke="#000000" stroke-width="0.3985" stroke-linecap="round" fill="none" /><path id="924" transform="matrix(1 0 0 -1 0 841)" d="M254.2438 288.2066L254.2438 329.9298" stroke="#000000" stroke-width="0.3985" fill="none" /><path id="925" transform="matrix(1 0 0 -1 0 841)" d="M256.6348 290.0796C 255.2002 289.701 254.5227 288.8573 254.2438 288.0073C 253.9648 288.8573 253.2874 289.701 251.8528 290.0796" stroke="#000000" stroke-width="0.3985" stroke-linecap="round" fill="none" /><path id="926" transform="matrix(1 0 0 -1 0 841)" d="M251.8528 328.0568C 253.2874 328.4353 253.9648 329.279 254.2438 330.129C 254.5227 329.279 255.2002 328.4353 256.6348 328.0568" stroke="#000000" stroke-width="0.3985" stroke-linecap="round" fill="none" /><path id="949" transform="matrix(1 0 0 -1 0 841)" d="M237.2355 279.1358L237.2355 293.0789" stroke="#000000" stroke-width="0.3985" fill="none" /><path id="950" transform="matrix(1 0 0 -1 0 841)" d="M239.6266 281.0088C 238.1919 280.6302 237.5145 279.7865 237.2355 278.9366C 236.9566 279.7865 236.2792 280.6302 234.8445 281.0088" stroke="#000000" stroke-width="0.3985" stroke-linecap="round" fill="none" /><path id="951" transform="matrix(1 0 0 -1 0 841)" d="M234.8445 291.2058C 236.2792 291.5844 236.9566 292.4281 237.2355 293.2781C 237.5145 292.4281 238.1919 291.5844 239.6266 291.2058" stroke="#000000" stroke-width="0.3985" stroke-linecap="round" fill="none" /><path id="971" transform="matrix(1 0 0 -1 0 841)" d="M254.2438 346.938L254.2438 330.7267" stroke="#000000" stroke-width="0.3985" fill="none" /><path id="972" transform="matrix(1 0 0 -1 0 841)" d="M251.8528 345.065C 253.2874 345.4436 253.9648 346.2873 254.2438 347.1372C 254.5227 346.2873 255.2002 345.4436 256.6348 345.065" stroke="#000000" stroke-width="0.3985" stroke-linecap="round" fill="none" /><path id="973" transform="matrix(1 0 0 -1 0 841)" d="M256.6348 332.5997C 255.2002 332.2212 254.5227 331.3775 254.2438 330.5275C 253.9648 331.3775 253.2874 332.2212 251.8528 332.5997" stroke="#000000" stroke-width="0.3985" stroke-linecap="round" fill="none" /><path id="985" transform="matrix(1 0 0 -1 0 841)" d="M253.962 287.5263L226.1788 259.743" stroke="#000000" stroke-width="0.3985" fill="none" /><path id="986" transform="matrix(1 0 0 -1 0 841)" d="M250.9469 287.8926C 252.2291 287.1459 253.3046 287.2634 254.1029 287.6672C 253.6991 286.8689 253.5816 285.7933 254.3283 284.5112" stroke="#000000" stroke-width="0.3984962" stroke-linecap="round" fill="none" /><path id="987" transform="matrix(1 0 0 -1 0 841)" d="M229.1939 259.3767C 227.9117 260.1235 226.8362 260.0059 226.0379 259.6021C 226.4417 260.4004 226.5592 261.476 225.8125 262.7581" stroke="#000000" stroke-width="0.3984962" stroke-linecap="round" fill="none" /><path id="1061" transform="matrix(1 0 0 -1 0 841)" d="M199.732 204.4L212.972 204.4" stroke="#000000" stroke-width="0.398" fill="none" /><path id="1067" transform="matrix(1 0 0 -1 0 841)" d="M136.192 188.754L214.168 188.754" stroke="#000000" stroke-width="0.398" fill="none" /><path id="1076" transform="matrix(1 0 0 -1 0 841)" d="M175.18 174.983L190.124 174.983" stroke="#000000" stroke-width="0.398" fill="none" /><path id="1086" transform="matrix(1 0 0 -1 0 841)" d="M227.532 196.116L259.213 196.116" stroke="#000000" stroke-width="0.398" fill="none" /><path id="1087" transform="matrix(1 0 0 -1 0 841)" d="M227.731 182.966L227.731 196.117" stroke="#000000" stroke-width="0.398" fill="none" /><path id="1088" transform="matrix(1 0 0 -1 0 841)" d="M259.014 182.966L259.014 196.117" stroke="#000000" stroke-width="0.398" fill="none" /><path id="1089" transform="matrix(1 0 0 -1 0 841)" d="M227.532 182.966L259.213 182.966" stroke="#000000" stroke-width="0.398" fill="none" /><path id="1222" transform="matrix(1 0 0 -1 0 841)" d="M113.508 90.967L174.332 90.967" stroke="#000000" stroke-width="0.398" fill="none" /><path id="1230" transform="matrix(1 0 0 -1 0 841)" d="M184.471 90.967L224.321 90.967" stroke="#000000" stroke-width="0.398" fill="none" /><path id="1246" transform="matrix(1 0 0 -1 0 841)" d="M266.07 90.967L336.245 90.967" stroke="#000000" stroke-width="0.398" fill="none" /><path id="1273" transform="matrix(1 0 0 -1 0 841)" d="M349.609 98.469L448.273 98.469" stroke="#000000" stroke-width="0.398" fill="none" /><path id="1274" transform="matrix(1 0 0 -1 0 841)" d="M349.808 83.256L349.808 98.46899" stroke="#000000" stroke-width="0.398" fill="none" /><path id="1275" transform="matrix(1 0 0 -1 0 841)" d="M448.073 83.256L448.073 98.46899" stroke="#000000" stroke-width="0.398" fill="none" /><path id="1276" transform="matrix(1 0 0 -1 0 841)" d="M349.609 83.256L448.273 83.256" stroke="#000000" stroke-width="0.398" fill="none" /><g transform="matrix(0.2 0 0 0.2 249.239 774.845)"><g transform="matrix(1 0 0 1 0 0)"><image x="0" y="0" xlink:href="img_04.png" width="484" height="104" /></g></g></g></g></svg>