<svg xmlns="http://www.w3.org/2000/svg" xmlns:xlink="http://www.w3.org/1999/xlink" id="body_204" preserveAspectRatio="xMinYMin meet" viewBox="0 0 793 1121"><defs><clipPath id="1"><path id="" clip-rule="evenodd" transform="matrix(1 0 0 1 0 0)" d="M0 841L0 -0.8900146L0 -0.8900146L595.276 -0.8900146L595.276 -0.8900146L595.276 841L595.276 841L0 841z" /></clipPath></defs><g transform="matrix(1.333333 0 0 1.333333 0 0)"><g clip-path="url(#1)"><g transform="matrix(0.99886 0 0 0.9988599 0.199 -0.6921387)"><g transform="matrix(1 0 0 1 0 0)"><image x="0" y="0" xlink:href="img_302.png" width="596" height="313" /></g></g><path id="3" transform="matrix(1 0 0 -1 0 841)" d="M724.611 609.1848L100.9809 609.1848C 92.72734 609.1848 86.03673 602.4941 86.03673 594.2407L86.03673 594.2407L86.03673 579.2965C 86.03673 571.043 92.72734 564.3524 100.9809 564.3524L100.9809 564.3524L724.611 564.3524C 732.8644 564.3524 739.5551 571.043 739.5551 579.2965L739.5551 579.2965L739.5551 594.2407C 739.5551 602.4941 732.8644 609.1848 724.611 609.1848z" stroke="#F36619" stroke-width="1.99255" fill="#FFFFFF" fill-rule="nonzero" fill-opacity="0.4980392" /><g transform="matrix(0.2 0 0 0.2 249.239 774.845)"><g transform="matrix(1 0 0 1 0 0)"><image x="0" y="0" xlink:href="img_04.png" width="484" height="104" /></g></g></g></g></svg>