<svg xmlns="http://www.w3.org/2000/svg" xmlns:xlink="http://www.w3.org/1999/xlink" id="body_273" preserveAspectRatio="xMinYMin meet" viewBox="0 0 793 1121"><defs><clipPath id="1"><path id="" clip-rule="evenodd" transform="matrix(1 0 0 1 0 0)" d="M0 841L0 -0.8900146L0 -0.8900146L595.276 -0.8900146L595.276 -0.8900146L595.276 841L595.276 841L0 841z" /></clipPath></defs><g transform="matrix(1.333333 0 0 1.333333 0 0)"><g clip-path="url(#1)"><path id="27" transform="matrix(1 0 0 -1 0 841)" d="M85.039 766.564L510.236 766.564" stroke="#000000" stroke-width="0.498" fill="none" /><g transform="matrix(0 -0.4125 0.4125001 0 114.2365 716.232)"><g transform="matrix(1 0 0 1 0 0)"><image x="0" y="0" xlink:href="img_397.png" width="1436" height="819" /></g></g><path id="29" transform="matrix(1 0 0 -1 0 841)" d="M469.001 283.9495L466.4701 283.9495L466.4701 283.9495L466.4701 283.6985C 467.3428 283.5676 467.5065 283.3713 467.5065 282.4985L467.5065 282.4985L467.5065 280.9167L467.5065 280.9167L465.0846 280.9167C 464.7792 280.9167 464.7137 280.9603 464.7137 281.2658L464.7137 281.2658L464.7137 282.7495C 464.7137 283.9713 464.8846 284.2185 465.8592 284.4077L465.8592 284.4077L465.8592 284.6804L465.8592 284.6804L464.2992 284.6476L464.2992 284.6476L464.2992 278.8549L464.2992 278.8549L464.5065 278.8549C 464.5792 279.6549 464.7319 279.804 465.4883 279.804L465.4883 279.804L470.2119 279.804C 471.1283 279.804 471.2701 279.684 471.3137 278.8549L471.3137 278.8549L471.521 278.8549L471.521 278.8549L471.521 281.9094L471.521 281.9094L471.3137 281.9094C 471.2701 281.0658 471.1174 280.9167 470.3319 280.9167L470.3319 280.9167L467.9537 280.9167L467.9537 280.9167L467.9537 282.4985C 467.9537 283.3713 468.1283 283.5676 469.001 283.6985z" stroke="none" fill="#000000" fill-rule="evenodd" /><path id="30" transform="matrix(1 0 0 -1 0 841)" d="M466.5028 286.6985L467.1028 285.0076L467.1028 285.0076L467.2664 285.0076L467.2664 285.0076L467.2556 285.0949C 467.241 285.2258 467.2228 285.364 467.2228 285.4658C 467.2228 285.7276 467.3974 285.8258 467.8774 285.8258L467.8774 285.8258L470.4083 285.8258C 471.1937 285.8258 471.3137 285.7058 471.3574 284.964L471.3574 284.964L471.521 284.964L471.521 284.964L471.521 287.5494L471.521 287.5494L471.3574 287.5494C 471.3137 286.8221 471.1937 286.7422 470.4083 286.7422L470.4083 286.7422L466.5356 286.7422zM464.0701 286.1858C 464.0701 285.8804 464.321 285.6404 464.6265 285.6404C 464.9319 285.6404 465.1828 285.8804 465.1828 286.1858C 465.1828 286.4913 464.9464 286.7531 464.6265 286.7531C 464.321 286.7531 464.0701 286.4913 464.0701 286.1858z" stroke="none" fill="#000000" fill-rule="evenodd" /><path id="31" transform="matrix(1 0 0 -1 0 841)" d="M467.2883 292.9495L466.8628 292.9495L466.8628 292.9495L466.8628 292.1094C 466.8628 291.8913 466.841 291.7277 466.7537 291.5095L466.7537 291.5095L466.6664 291.2695C 466.5646 290.964 466.5028 290.6731 466.5028 290.3967C 466.5028 289.3785 467.2919 288.5749 468.281 288.5749C 468.9792 288.5749 469.3937 288.8622 469.7428 289.5895C 469.9465 289.3713 470.1356 289.1785 470.1792 289.1204C 470.4992 288.7567 470.7137 288.6185 470.9319 288.6185C 471.1646 288.6185 471.2919 288.7458 471.5101 289.1967C 472.0774 288.4113 472.4337 288.1276 472.841 288.1276C 473.4083 288.1276 473.8992 288.9677 473.8992 290.0149C 473.8992 290.8295 473.6083 291.684 473.1574 292.2513C 472.8083 292.6586 472.4628 292.8513 472.0555 292.8513C 471.3719 292.8513 470.9319 292.3312 470.8883 291.5313L470.8883 291.5313L470.8228 290.124C 470.8083 289.5422 470.7028 289.2731 470.5283 289.2731C 470.3101 289.2731 469.9283 289.6222 469.841 289.9276C 469.8555 290.0149 469.8628 290.0912 469.8628 290.1349C 469.8919 290.3386 469.8955 290.4767 469.8955 290.5494C 469.8955 290.9422 469.7428 291.3785 469.4374 291.7277C 469.1319 292.0767 468.7574 292.2513 468.2047 292.2513C 467.8992 292.2513 467.6374 292.1895 467.2883 292.044zM471.5428 289.4258C 471.6155 289.7749 471.6846 290.6549 471.6846 291.1931C 471.6846 292.1822 471.8265 292.5458 472.2192 292.5458C 472.8446 292.5458 473.2774 291.7058 473.2774 290.484C 473.2774 289.524 472.961 288.8912 472.481 288.8912C 472.2192 288.8912 472.081 288.9603 471.5428 289.4258zM467.8337 289.4803C 467.1937 289.4803 466.8083 289.7786 466.8083 290.2877C 466.8083 290.6222 467.001 290.9094 467.321 291.084C 467.7137 291.2731 468.2083 291.4113 468.6301 291.4113C 469.241 291.4113 469.6228 291.0876 469.6228 290.5931C 469.6228 289.9385 468.9137 289.4803 467.8665 289.4803z" stroke="none" fill="#000000" fill-rule="evenodd" /><path id="32" transform="matrix(1 0 0 -1 0 841)" d="M470.9756 298.5022L470.9756 298.4476C 470.9756 297.9385 470.8628 297.8258 470.3537 297.8258L470.3537 297.8258L466.6119 297.8258L466.6119 297.8258L466.6119 296.1022L466.6119 296.1022L466.7974 296.1022C 466.841 296.7713 466.9465 296.9094 467.4846 296.9094L467.4846 296.9094L470.0483 296.9094C 470.3537 296.9094 470.5101 296.8477 470.6265 296.7022C 470.8737 296.3967 470.9974 296.0622 470.9974 295.7422C 470.9974 295.3058 470.6337 294.9677 470.1683 294.9677L470.1683 294.9677L466.6119 294.9677L466.6119 294.9677L466.6119 293.3749L466.6119 293.3749L466.7646 293.3749C 466.8083 293.8986 466.9683 294.0513 467.4628 294.0513L467.4628 294.0513L470.2119 294.0513C 471.0847 294.0513 471.6301 294.5713 471.6301 295.3713C 471.6301 295.764 471.4665 296.1895 471.161 296.4949L471.161 296.4949L470.6919 296.964L470.6919 296.964L471.5974 296.964L471.5974 296.964L471.6192 297.0076C 471.401 297.5458 471.2883 297.9349 471.1283 298.5022z" stroke="none" fill="#000000" fill-rule="evenodd" /><path id="33" transform="matrix(1 0 0 -1 0 841)" d="M467.2664 298.8076C 467.2374 298.9531 467.2228 299.0585 467.2228 299.1895C 467.2228 299.4513 467.3974 299.5604 467.8774 299.5604L467.8774 299.5604L470.6046 299.5604C 471.1573 299.5604 471.2264 299.484 471.3574 298.7858L471.3574 298.7858L471.521 298.7858L471.521 298.7858L471.521 301.404L471.521 301.404L471.3574 301.404C 471.3283 300.6622 471.1646 300.4767 470.5392 300.4767L470.5392 300.4767L468.0847 300.4767C 467.7355 300.4767 467.1901 300.9349 467.1901 301.2404C 467.1901 301.2986 467.2519 301.3931 467.3537 301.524C 467.5137 301.6985 467.5719 301.8149 467.5719 301.9604C 467.5719 302.2222 467.3864 302.3859 467.081 302.3859C 466.7319 302.3859 466.5028 302.1495 466.5028 301.7858C 466.5028 301.3204 466.7574 301.0004 467.5283 300.4767L467.5283 300.4767L466.5246 300.4767L466.5246 300.4767L466.5028 300.4222C 466.7501 299.8404 466.8883 299.4476 467.0919 298.8076z" stroke="none" fill="#000000" fill-rule="evenodd" /><path id="34" transform="matrix(1 0 0 -1 0 841)" d="M469.7319 306.8149C 470.561 306.2913 470.8774 305.8222 470.8774 305.124C 470.8774 304.4985 470.5646 304.0222 469.9392 303.7167C 469.5319 303.5131 469.1683 303.4368 468.4992 303.4222L468.4992 303.4222L468.4992 306.7822C 467.801 306.6949 467.4737 306.575 467.1246 306.3131C 466.7319 305.9786 466.5028 305.484 466.5028 304.9167C 466.5028 304.364 466.7065 303.8513 467.0701 303.444C 467.521 302.9204 468.2992 302.6367 469.1865 302.6367C 470.6992 302.6367 471.6301 303.4113 471.6301 304.6768C 471.6301 305.7095 470.9865 306.524 469.8083 306.9895zM468.1501 303.444C 467.3065 303.5604 466.8955 303.9313 466.8955 304.6004C 466.8955 305.2549 467.2047 305.524 468.1501 305.6695z" stroke="none" fill="#000000" fill-rule="evenodd" /><path id="35" transform="matrix(1 0 0 -1 0 841)" d="M464.1465 313.1095L465.1392 311.1459L465.1392 311.1459L465.2919 311.1459C 465.2483 311.2767 465.201 311.3967 465.1719 311.4404C 465.0992 311.6295 465.0519 311.8149 465.0519 311.9313C 465.0519 312.1495 465.2155 312.2585 465.5646 312.2585L465.5646 312.2585L470.5065 312.2585C 470.8701 312.2585 471.1283 312.1713 471.2155 311.9968C 471.3174 311.8222 471.3574 311.6731 471.3574 311.2222L471.3574 311.2222L471.521 311.2222L471.521 311.2222L471.521 314.2331L471.521 314.2331L471.3574 314.2331C 471.3574 313.3604 471.2374 313.1968 470.7137 313.1968L470.7137 313.1968L464.1683 313.1968z" stroke="none" fill="#000000" fill-rule="evenodd" /><path id="36" transform="matrix(1 0 0 -1 0 841)" d="M471.761 316.0331C 471.6155 317.2549 471.4156 317.8549 470.8774 318.5967C 470.0483 319.7313 468.7065 320.3968 467.2228 320.3968C 465.4337 320.3968 464.1465 319.3822 464.1465 317.9858C 464.1465 316.6768 465.2519 315.7167 466.721 315.7167C 468.0592 315.7167 468.9355 316.5022 468.9355 317.6804C 468.9355 318.2767 468.7646 318.7349 468.3137 319.3168C 470.1028 318.8658 471.2664 317.6586 471.5428 316.0004zM467.6483 319.3386C 467.8665 319.3386 467.9756 319.2913 468.0628 319.1749C 468.3246 318.8695 468.4665 318.4659 468.4665 318.0731C 468.4665 317.244 467.6592 316.7204 466.3501 316.7204C 465.7392 316.7204 465.081 316.8913 464.7901 317.124C 464.5719 317.2986 464.4519 317.5786 464.4519 317.8986C 464.4519 318.8441 465.3901 319.3386 467.2228 319.3386z" stroke="none" fill="#000000" fill-rule="evenodd" /><path id="37" transform="matrix(1 0 0 -1 0 841)" d="M470.4301 322.2077C 470.4301 321.8731 470.7174 321.6077 471.0519 321.6077C 471.3719 321.6077 471.641 321.8768 471.641 322.1968C 471.641 322.5313 471.3719 322.8186 471.0519 322.8186C 470.7174 322.8186 470.4301 322.5276 470.4301 322.2077z" stroke="none" fill="#000000" fill-rule="evenodd" /><path id="38" transform="matrix(1 0 0 -1 0 841)" d="M464.1465 326.7458L465.1392 324.7822L465.1392 324.7822L465.2919 324.7822C 465.2483 324.9131 465.201 325.0331 465.1719 325.0768C 465.0992 325.2659 465.0519 325.4513 465.0519 325.5677C 465.0519 325.7859 465.2155 325.895 465.5646 325.895L465.5646 325.895L470.5065 325.895C 470.8701 325.895 471.1283 325.8077 471.2155 325.6331C 471.3174 325.4586 471.3574 325.3095 471.3574 324.8586L471.3574 324.8586L471.521 324.8586L471.521 324.8586L471.521 327.8695L471.521 327.8695L471.3574 327.8695C 471.3574 326.9968 471.2374 326.8331 470.7137 326.8331L470.7137 326.8331L464.1683 326.8331z" stroke="none" fill="#000000" fill-rule="evenodd" /><path id="39" transform="matrix(1 0 0 -1 0 841)" d="M466.5137 330.5095C 466.5137 330.1749 466.801 329.9095 467.1356 329.9095C 467.4555 329.9095 467.7246 330.1786 467.7246 330.4986C 467.7246 330.8331 467.4555 331.1204 467.1356 331.1204C 466.801 331.1204 466.5137 330.8295 466.5137 330.5095zM470.4301 330.5095C 470.4301 330.1749 470.7174 329.9095 471.0519 329.9095C 471.3719 329.9095 471.641 330.1786 471.641 330.4986C 471.641 330.8331 471.3719 331.1204 471.0519 331.1204C 470.7174 331.1204 470.4301 330.8295 470.4301 330.5095z" stroke="none" fill="#000000" fill-rule="evenodd" /><path id="40" transform="matrix(1 0 0 -1 0 841)" d="M464.1465 339.3786C 464.1465 337.2841 465.7283 335.8113 467.9101 335.8113C 468.9428 335.8113 469.9355 336.1531 470.561 336.7495C 471.2592 337.375 471.6737 338.3531 471.6737 339.3132C 471.6737 341.4514 470.1501 342.9459 467.9537 342.9459C 466.8774 342.9459 465.9465 342.6259 465.2919 342.0295C 464.5501 341.3314 464.1465 340.4259 464.1465 339.3786zM464.5392 339.3786C 464.5392 339.8732 464.7355 340.3823 465.0846 340.775C 465.6228 341.3568 466.6483 341.7023 467.9428 341.7023C 468.5974 341.7023 469.3392 341.5604 469.9065 341.3422C 470.1828 341.2404 470.4556 341.055 470.7028 340.8077C 471.0956 340.415 471.281 339.9241 471.281 339.3568C 471.281 338.8477 471.0956 338.3604 470.7465 337.9822C 470.2519 337.415 469.1537 337.055 467.9319 337.055C 466.8264 337.055 465.7719 337.3531 465.2483 337.8186C 464.7828 338.2404 464.5392 338.7677 464.5392 339.3786z" stroke="none" fill="#000000" fill-rule="evenodd" /><path id="41" transform="matrix(1 0 0 -1 0 841)" d="M471.6301 347.0695L471.0628 348.6732L471.0628 348.6732L470.8883 348.6732C 470.9028 348.4695 470.8992 348.4514 470.8992 348.4222C 470.8992 348.0295 470.7865 347.9423 470.2774 347.9423L470.2774 347.9423L464.0919 347.9423L464.0919 347.9423L464.0701 347.8877C 464.2592 347.3641 464.3755 346.9822 464.5501 346.2841L464.5501 346.2841L464.7246 346.2841C 464.7246 346.3713 464.7137 346.4368 464.7137 346.524C 464.7137 346.9168 464.8337 347.0259 465.2701 347.0259L465.2701 347.0259L466.9719 347.0259C 466.6228 346.6041 466.5028 346.3168 466.5028 345.8804C 466.5028 344.615 467.7428 343.6113 469.2846 343.6113C 470.681 343.6113 471.6301 344.4222 471.6301 345.6295C 471.6301 346.2404 471.4228 346.6477 470.8992 347.0259L470.8992 347.0259L471.5974 347.0259zM470.4083 347.0259C 470.4955 347.0259 470.6192 346.9423 470.7355 346.8405C 470.9537 346.6368 471.0628 346.3604 471.0628 346.055C 471.0628 345.1386 470.201 344.5495 468.8483 344.5495C 467.6265 344.5495 466.8083 345.084 466.8083 345.9131C 466.8083 346.4805 467.3319 347.0259 467.8992 347.0259z" stroke="none" fill="#000000" fill-rule="evenodd" /><path id="42" transform="matrix(1 0 0 -1 0 841)" d="M466.5028 351.4986C 466.5028 350.0732 467.5574 349.0877 469.0555 349.0877C 470.5392 349.0877 471.6301 350.095 471.6301 351.4768C 471.6301 352.8441 470.481 353.8986 468.9683 353.8986C 467.5428 353.8986 466.5028 352.895 466.5028 351.4986zM466.8083 351.3568C 466.8083 352.2732 467.8665 352.9168 469.3501 352.9168C 470.5865 352.9168 471.3246 352.4222 471.3246 351.6077C 471.3246 351.1713 471.0628 350.7677 470.6265 350.5496C 470.0592 350.2441 469.3065 350.0695 468.521 350.0695C 467.4883 350.0695 466.8083 350.5714 466.8083 351.3568z" stroke="none" fill="#000000" fill-rule="evenodd" /><path id="43" transform="matrix(1 0 0 -1 0 841)" d="M467.2664 354.3022C 467.2374 354.4477 467.2228 354.5532 467.2228 354.6841C 467.2228 354.9459 467.3974 355.055 467.8774 355.055L467.8774 355.055L470.6046 355.055C 471.1573 355.055 471.2264 354.9786 471.3574 354.2805L471.3574 354.2805L471.521 354.2805L471.521 354.2805L471.521 356.8986L471.521 356.8986L471.3574 356.8986C 471.3283 356.1568 471.1646 355.9714 470.5392 355.9714L470.5392 355.9714L468.0847 355.9714C 467.7355 355.9714 467.1901 356.4296 467.1901 356.735C 467.1901 356.7932 467.2519 356.8877 467.3537 357.0186C 467.5137 357.1932 467.5719 357.3096 467.5719 357.455C 467.5719 357.7168 467.3864 357.8804 467.081 357.8804C 466.7319 357.8804 466.5028 357.6441 466.5028 357.2805C 466.5028 356.815 466.7574 356.495 467.5283 355.9714L467.5283 355.9714L466.5246 355.9714L466.5246 355.9714L466.5028 355.9168C 466.7501 355.335 466.8883 354.9423 467.0919 354.3022z" stroke="none" fill="#000000" fill-rule="evenodd" /><path id="44" transform="matrix(1 0 0 -1 0 841)" d="M466.6119 367.3495L464.1465 367.2513L464.1465 367.2513L464.1465 367.0222C 464.3792 366.9495 464.5065 366.7822 464.5065 366.5641C 464.5065 366.4622 464.481 366.2986 464.4083 366.1386C 464.2337 365.6004 464.1465 365.055 464.1465 364.5459C 464.1465 363.644 464.4883 362.7386 465.0846 362.0695C 465.7683 361.2986 466.7828 360.8914 467.9756 360.8914C 468.9937 360.8914 469.9392 361.2077 470.5501 361.775C 471.2628 362.4295 471.6737 363.4222 471.6737 364.5131C 471.6737 365.735 471.1755 366.8223 470.2883 367.4913L470.2883 367.4913L470.0919 367.295C 470.8774 366.4804 471.1937 365.764 471.1937 364.8622C 471.1937 364.1641 470.9828 363.5604 470.561 363.095C 470.0374 362.4841 469.0555 362.1568 467.8337 362.1568C 465.8701 362.1568 464.5828 363.1677 464.5828 364.7532C 464.5828 365.3641 464.8119 365.9423 465.2483 366.3786C 465.5974 366.7277 465.9137 366.8804 466.6119 367.0986z" stroke="none" fill="#000000" fill-rule="evenodd" /><path id="45" transform="matrix(1 0 0 -1 0 841)" d="M470.801 372.6841C 470.961 372.495 471.0083 372.3641 471.0083 372.204C 471.0083 371.9423 470.8555 371.8768 470.3755 371.8768L470.3755 371.8768L468.2483 371.8768C 467.681 371.8768 467.3646 371.8186 467.1028 371.6586C 466.7101 371.4113 466.5028 370.9459 466.5028 370.3059C 466.5028 369.2731 467.041 368.4731 467.7246 368.4731C 467.9865 368.4731 468.1937 368.6804 468.1937 368.9423C 468.1937 369.204 467.9828 369.4332 467.7355 369.4332C 467.6919 369.4332 467.6483 369.4113 467.561 369.4113C 467.4737 369.3823 467.3864 369.3786 467.2992 369.3786C 467.0083 369.3786 466.7646 369.7277 466.7646 370.1641C 466.7646 370.6877 467.0883 370.9932 467.6701 370.9932L467.6701 370.9932L468.3355 370.9932C 469.0192 369.3059 469.1064 369.1241 469.5137 368.6586C 469.7319 368.4113 470.1137 368.2659 470.4628 368.2659C 471.161 368.2659 471.6301 368.7422 471.6301 369.4113C 471.6301 369.8914 471.401 370.335 470.8337 371.0041C 471.401 371.0477 471.6301 371.2513 471.6301 371.7023C 471.6301 372.0659 471.5065 372.2913 471.0847 372.6841zM470.1792 370.9932C 470.5283 370.9932 470.6155 370.9277 470.7465 370.7095C 470.9065 370.4477 470.9974 370.1313 470.9974 369.9131C 470.9974 369.5204 470.6374 369.2259 470.1573 369.2259L470.1573 369.2259L470.1137 369.2259C 469.4737 369.2259 469.0774 369.6695 468.5974 370.9932z" stroke="none" fill="#000000" fill-rule="evenodd" /><path id="46" transform="matrix(1 0 0 -1 0 841)" d="M470.9756 377.9313L470.9756 377.8768C 470.9756 377.3677 470.8628 377.255 470.3537 377.255L470.3537 377.255L466.6119 377.255L466.6119 377.255L466.6119 375.5314L466.6119 375.5314L466.7974 375.5314C 466.841 376.2004 466.9465 376.3386 467.4846 376.3386L467.4846 376.3386L470.0483 376.3386C 470.3537 376.3386 470.5101 376.2768 470.6265 376.1313C 470.8737 375.8259 470.9974 375.4913 470.9974 375.1713C 470.9974 374.735 470.6337 374.3968 470.1683 374.3968L470.1683 374.3968L466.6119 374.3968L466.6119 374.3968L466.6119 372.8041L466.6119 372.8041L466.7646 372.8041C 466.8083 373.3277 466.9683 373.4804 467.4628 373.4804L467.4628 373.4804L470.2119 373.4804C 471.0847 373.4804 471.6301 374.0004 471.6301 374.8004C 471.6301 375.1932 471.4665 375.6186 471.161 375.9241L471.161 375.9241L470.6919 376.3932L470.6919 376.3932L471.5974 376.3932L471.5974 376.3932L471.6192 376.4368C 471.401 376.975 471.2883 377.3641 471.1283 377.9313z" stroke="none" fill="#000000" fill-rule="evenodd" /><path id="47" transform="matrix(1 0 0 -1 0 841)" d="M468.0956 381.5968L466.6119 381.5532L466.6119 381.5532L466.6119 381.4332L466.6119 381.4332L466.6337 381.4114C 466.721 381.3095 466.721 381.3022 466.721 381.2586C 466.721 381.1859 466.7028 381.0804 466.6447 380.9641C 466.5574 380.7168 466.5137 380.4768 466.5137 380.2004C 466.5137 379.3277 467.0701 378.7168 467.8555 378.7168C 468.4665 378.7168 468.9028 379.0623 469.4265 379.9932L469.4265 379.9932L469.7864 380.6259C 470.0046 381.0041 470.2701 381.1932 470.6046 381.1932C 471.0847 381.1932 471.3901 380.8405 471.3901 380.2877C 471.3901 379.9095 471.2556 379.575 471.0083 379.3713C 470.7465 379.1386 470.4883 379.0331 469.8628 378.9023L469.8628 378.9023L469.8628 378.7277L469.8628 378.7277L471.5646 378.7277L471.5646 378.7277L471.5646 378.8695C 471.4628 378.9423 471.4337 378.9895 471.4337 379.1204C 471.4337 379.2077 471.4628 379.3604 471.521 379.6223C 471.5792 379.9277 471.6301 380.215 471.6301 380.4186C 471.6301 381.2477 471.0046 381.9568 470.2337 381.9568C 469.6956 381.9568 469.3283 381.695 468.9355 381.0405L468.9355 381.0405L468.2374 379.8622C 468.0628 379.5568 467.801 379.3932 467.4955 379.3932C 467.0592 379.3932 466.7537 379.7241 466.7537 380.2332C 466.7537 380.8441 467.1356 381.1713 468.0956 381.4332z" stroke="none" fill="#000000" fill-rule="evenodd" /><path id="48" transform="matrix(1 0 0 -1 0 841)" d="M466.5028 384.3132L467.1028 382.6223L467.1028 382.6223L467.2664 382.6223L467.2664 382.6223L467.2556 382.7095C 467.241 382.8405 467.2228 382.9786 467.2228 383.0804C 467.2228 383.3423 467.3974 383.4404 467.8774 383.4404L467.8774 383.4404L470.4083 383.4404C 471.1937 383.4404 471.3137 383.3204 471.3574 382.5786L471.3574 382.5786L471.521 382.5786L471.521 382.5786L471.521 385.1641L471.521 385.1641L471.3574 385.1641C 471.3137 384.4368 471.1937 384.3568 470.4083 384.3568L470.4083 384.3568L466.5356 384.3568zM464.0701 383.8004C 464.0701 383.495 464.321 383.255 464.6265 383.255C 464.9319 383.255 465.1828 383.495 465.1828 383.8004C 465.1828 384.1059 464.9464 384.3677 464.6265 384.3677C 464.321 384.3677 464.0701 384.1059 464.0701 383.8004z" stroke="none" fill="#000000" fill-rule="evenodd" /><path id="49" transform="matrix(1 0 0 -1 0 841)" d="M467.1792 385.6113C 467.1501 385.6696 467.1356 385.775 467.1356 385.9059C 467.1356 386.2114 467.3101 386.3095 467.8337 386.3095L467.8337 386.3095L470.5392 386.3095C 471.1646 386.3095 471.3137 386.1859 471.3574 385.6332L471.3574 385.6332L471.521 385.6332L471.521 385.6332L471.521 387.9459L471.521 387.9459L471.3574 387.9459C 471.3137 387.3786 471.1828 387.2259 470.7901 387.2259L470.7901 387.2259L467.7246 387.2259C 467.2446 387.7495 467.1028 387.9859 467.1028 388.3495C 467.1028 388.8732 467.4483 389.1459 468.161 389.1459L468.161 389.1459L470.441 389.1459C 471.1392 389.1459 471.3137 388.9968 471.3574 388.4586L471.3574 388.4586L471.521 388.4586L471.521 388.4586L471.521 390.7277L471.521 390.7277L471.3574 390.7277C 471.3137 390.1895 471.1755 390.0623 470.6374 390.0623L470.6374 390.0623L468.1392 390.0623C 467.121 390.0623 466.5028 389.575 466.5028 388.775C 466.5028 388.2659 466.6883 387.935 467.3864 387.1932L467.3864 387.1932L466.5246 387.1932L466.5246 387.1932L466.5028 387.1168C 466.7065 386.5786 466.8192 386.2077 466.9937 385.6113z" stroke="none" fill="#000000" fill-rule="evenodd" /><path id="50" transform="matrix(1 0 0 -1 0 841)" d="M467.2883 396.0186L466.8628 396.0186L466.8628 396.0186L466.8628 395.1786C 466.8628 394.9604 466.841 394.7968 466.7537 394.5786L466.7537 394.5786L466.6664 394.3386C 466.5646 394.0332 466.5028 393.7422 466.5028 393.4659C 466.5028 392.4477 467.2919 391.6441 468.281 391.6441C 468.9792 391.6441 469.3937 391.9313 469.7428 392.6586C 469.9465 392.4404 470.1356 392.2477 470.1792 392.1895C 470.4992 391.8259 470.7137 391.6877 470.9319 391.6877C 471.1646 391.6877 471.2919 391.815 471.5101 392.2659C 472.0774 391.4805 472.4337 391.1968 472.841 391.1968C 473.4083 391.1968 473.8992 392.0368 473.8992 393.0841C 473.8992 393.8986 473.6083 394.7532 473.1574 395.3204C 472.8083 395.7277 472.4628 395.9205 472.0555 395.9205C 471.3719 395.9205 470.9319 395.4005 470.8883 394.6005L470.8883 394.6005L470.8228 393.1932C 470.8083 392.6113 470.7028 392.3423 470.5283 392.3423C 470.3101 392.3423 469.9283 392.6913 469.841 392.9968C 469.8555 393.0841 469.8628 393.1605 469.8628 393.2041C 469.8919 393.4077 469.8955 393.5459 469.8955 393.6187C 469.8955 394.0114 469.7428 394.4478 469.4374 394.7968C 469.1319 395.1459 468.7574 395.3204 468.2047 395.3204C 467.8992 395.3204 467.6374 395.2586 467.2883 395.1132zM471.5428 392.495C 471.6155 392.8441 471.6846 393.7241 471.6846 394.2623C 471.6846 395.2513 471.8265 395.615 472.2192 395.615C 472.8446 395.615 473.2774 394.775 473.2774 393.5532C 473.2774 392.5932 472.961 391.9604 472.481 391.9604C 472.2192 391.9604 472.081 392.0295 471.5428 392.495zM467.8337 392.5496C 467.1937 392.5496 466.8083 392.8477 466.8083 393.3568C 466.8083 393.6913 467.001 393.9786 467.321 394.1532C 467.7137 394.3423 468.2083 394.4805 468.6301 394.4805C 469.241 394.4805 469.6228 394.1568 469.6228 393.6623C 469.6228 393.0077 468.9137 392.5496 467.8665 392.5496z" stroke="none" fill="#000000" fill-rule="evenodd" /><path id="51" transform="matrix(1 0 0 -1 0 841)" d="M466.6119 405.8369L464.1465 405.7386L464.1465 405.7386L464.1465 405.5095C 464.3792 405.4368 464.5065 405.2695 464.5065 405.0514C 464.5065 404.9495 464.481 404.7859 464.4083 404.6259C 464.2337 404.0877 464.1465 403.5423 464.1465 403.0332C 464.1465 402.1313 464.4883 401.2259 465.0846 400.5568C 465.7683 399.7859 466.7828 399.3787 467.9756 399.3787C 468.9937 399.3787 469.9392 399.695 470.5501 400.2623C 471.2628 400.9168 471.6737 401.9095 471.6737 403.0004C 471.6737 404.2223 471.1755 405.3096 470.2883 405.9786L470.2883 405.9786L470.0919 405.7823C 470.8774 404.9677 471.1937 404.2513 471.1937 403.3495C 471.1937 402.6514 470.9828 402.0477 470.561 401.5823C 470.0374 400.9714 469.0555 400.6441 467.8337 400.6441C 465.8701 400.6441 464.5828 401.655 464.5828 403.2405C 464.5828 403.8514 464.8119 404.4296 465.2483 404.8659C 465.5974 405.215 465.9137 405.3677 466.6119 405.5859z" stroke="none" fill="#000000" fill-rule="evenodd" /><path id="52" transform="matrix(1 0 0 -1 0 841)" d="M466.5028 409.0768C 466.5028 407.6514 467.5574 406.6659 469.0555 406.6659C 470.5392 406.6659 471.6301 407.6732 471.6301 409.055C 471.6301 410.4223 470.481 411.4768 468.9683 411.4768C 467.5428 411.4768 466.5028 410.4732 466.5028 409.0768zM466.8083 408.935C 466.8083 409.8514 467.8665 410.495 469.3501 410.495C 470.5865 410.495 471.3246 410.0005 471.3246 409.1859C 471.3246 408.7496 471.0628 408.3459 470.6265 408.1277C 470.0592 407.8223 469.3065 407.6477 468.521 407.6477C 467.4883 407.6477 466.8083 408.1495 466.8083 408.935z" stroke="none" fill="#000000" fill-rule="evenodd" /><path id="53" transform="matrix(1 0 0 -1 0 841)" d="M467.1792 412.0114C 467.1501 412.1423 467.1356 412.2296 467.1356 412.3605C 467.1356 412.6368 467.3101 412.7423 467.8337 412.7423L467.8337 412.7423L470.5937 412.7423C 471.1901 412.7423 471.3574 412.5895 471.3574 411.9786L471.3574 411.9786L471.521 411.9786L471.521 411.9786L471.521 414.4005L471.521 414.4005L471.3574 414.4005C 471.3428 413.8187 471.2264 413.6586 470.7901 413.6586L470.7901 413.6586L467.7137 413.6586C 467.6992 413.6586 467.5937 413.735 467.5065 413.8223C 467.2592 414.0841 467.0701 414.5532 467.0701 414.9459C 467.0701 415.4259 467.4592 415.6659 468.2155 415.6659L468.2155 415.6659L470.5828 415.6659C 471.1937 415.6659 471.3137 415.535 471.3574 414.9241L471.3574 414.9241L471.521 414.9241L471.521 414.9241L471.521 417.3677L471.521 417.3677L471.3574 417.3677C 471.3574 416.7423 471.1683 416.5823 470.4846 416.5823L470.4846 416.5823L467.7355 416.5823C 467.2701 416.9023 467.0701 417.2623 467.0701 417.7714C 467.0701 418.3823 467.3683 418.5895 468.2701 418.5895L468.2701 418.5895L470.5719 418.5895C 471.1974 418.5895 471.2846 418.495 471.3574 417.8696L471.3574 417.8696L471.521 417.8696L471.521 417.8696L471.521 420.2587L471.521 420.2587L471.3574 420.2587L471.3574 420.2587L471.3355 419.975C 471.321 419.6404 471.1283 419.5059 470.6919 419.5059L470.6919 419.5059L468.4446 419.5059C 467.1646 419.5059 466.5028 419.0696 466.5028 418.2405C 466.5028 417.6005 466.7937 417.0441 467.4192 416.4623C 466.8083 416.2587 466.5028 415.8878 466.5028 415.3059C 466.5028 414.8259 466.6592 414.5168 467.3428 413.615L467.3428 413.615L466.5246 413.615L466.5246 413.615L466.5028 413.5386C 466.721 412.9714 466.8337 412.6077 466.9937 412.0114z" stroke="none" fill="#000000" fill-rule="evenodd" /><path id="54" transform="matrix(1 0 0 -1 0 841)" d="M467.2337 420.3896C 467.2337 420.4768 467.2228 420.5605 467.2228 420.6623C 467.2228 421.0259 467.3355 421.1096 467.8446 421.1096L467.8446 421.1096L472.9501 421.1096C 473.5174 421.1096 473.6301 420.9859 473.7028 420.3459L473.7028 420.3459L473.8883 420.3459L473.8883 420.3459L473.8883 422.9859L473.8883 422.9859L473.6919 422.9859C 473.6774 422.1569 473.5574 422.0259 472.8737 422.0259L472.8737 422.0259L471.161 422.0259C 471.5247 422.4041 471.6301 422.6623 471.6301 423.1277C 471.6301 424.4078 470.4119 425.4186 468.8264 425.4186C 467.4737 425.4186 466.5028 424.6441 466.5028 423.5969C 466.5028 422.9859 466.7828 422.5059 467.3646 422.0259L467.3646 422.0259L466.5246 422.0259L466.5246 422.0259L466.5028 421.9604C 466.7355 421.3641 466.8846 420.9859 467.0592 420.3896zM467.8774 422.0259C 467.5574 422.0259 467.1573 422.6296 467.1573 423.1387C 467.1573 423.9387 467.9865 424.4805 469.2519 424.4805C 470.4737 424.4805 471.281 423.9459 471.281 423.1605C 471.281 422.6368 470.8955 422.0259 470.561 422.0259z" stroke="none" fill="#000000" fill-rule="evenodd" /><path id="55" transform="matrix(1 0 0 -1 0 841)" d="M466.5028 428.4732C 466.5028 427.0477 467.5574 426.0623 469.0555 426.0623C 470.5392 426.0623 471.6301 427.0696 471.6301 428.4514C 471.6301 429.8187 470.481 430.8732 468.9683 430.8732C 467.5428 430.8732 466.5028 429.8696 466.5028 428.4732zM466.8083 428.3314C 466.8083 429.2477 467.8665 429.8914 469.3501 429.8914C 470.5865 429.8914 471.3246 429.3969 471.3246 428.5823C 471.3246 428.1459 471.0628 427.7423 470.6265 427.5241C 470.0592 427.2186 469.3065 427.0441 468.521 427.0441C 467.4883 427.0441 466.8083 427.546 466.8083 428.3314z" stroke="none" fill="#000000" fill-rule="evenodd" /><path id="56" transform="matrix(1 0 0 -1 0 841)" d="M470.9756 436.426L470.9756 436.3714C 470.9756 435.8623 470.8628 435.7496 470.3537 435.7496L470.3537 435.7496L466.6119 435.7496L466.6119 435.7496L466.6119 434.0259L466.6119 434.0259L466.7974 434.0259C 466.841 434.695 466.9465 434.8332 467.4846 434.8332L467.4846 434.8332L470.0483 434.8332C 470.3537 434.8332 470.5101 434.7714 470.6265 434.6259C 470.8737 434.3205 470.9974 433.986 470.9974 433.666C 470.9974 433.2296 470.6337 432.8914 470.1683 432.8914L470.1683 432.8914L466.6119 432.8914L466.6119 432.8914L466.6119 431.2986L466.6119 431.2986L466.7646 431.2986C 466.8083 431.8223 466.9683 431.975 467.4628 431.975L467.4628 431.975L470.2119 431.975C 471.0847 431.975 471.6301 432.4951 471.6301 433.295C 471.6301 433.6877 471.4665 434.1132 471.161 434.4186L471.161 434.4186L470.6919 434.8878L470.6919 434.8878L471.5974 434.8878L471.5974 434.8878L471.6192 434.9314C 471.401 435.4696 471.2883 435.8586 471.1283 436.426z" stroke="none" fill="#000000" fill-rule="evenodd" /><path id="57" transform="matrix(1 0 0 -1 0 841)" d="M467.1792 436.8296C 467.1501 436.8878 467.1356 436.9932 467.1356 437.1241C 467.1356 437.4296 467.3101 437.5278 467.8337 437.5278L467.8337 437.5278L470.5392 437.5278C 471.1646 437.5278 471.3137 437.4041 471.3574 436.8514L471.3574 436.8514L471.521 436.8514L471.521 436.8514L471.521 439.1641L471.521 439.1641L471.3574 439.1641C 471.3137 438.5969 471.1828 438.4441 470.7901 438.4441L470.7901 438.4441L467.7246 438.4441C 467.2446 438.9678 467.1028 439.2041 467.1028 439.5677C 467.1028 440.0914 467.4483 440.3641 468.161 440.3641L468.161 440.3641L470.441 440.3641C 471.1392 440.3641 471.3137 440.215 471.3574 439.6769L471.3574 439.6769L471.521 439.6769L471.521 439.6769L471.521 441.9459L471.521 441.9459L471.3574 441.9459C 471.3137 441.4078 471.1755 441.2805 470.6374 441.2805L470.6374 441.2805L468.1392 441.2805C 467.121 441.2805 466.5028 440.7932 466.5028 439.9932C 466.5028 439.4841 466.6883 439.1532 467.3864 438.4114L467.3864 438.4114L466.5246 438.4114L466.5246 438.4114L466.5028 438.335C 466.7065 437.7969 466.8192 437.426 466.9937 436.8296z" stroke="none" fill="#000000" fill-rule="evenodd" /><path id="58" transform="matrix(1 0 0 -1 0 841)" d="M471.6301 445.8623L471.0628 447.4659L471.0628 447.4659L470.8883 447.4659C 470.9028 447.2623 470.8992 447.2441 470.8992 447.215C 470.8992 446.8223 470.7865 446.735 470.2774 446.735L470.2774 446.735L464.0919 446.735L464.0919 446.735L464.0701 446.6805C 464.2592 446.1569 464.3755 445.775 464.5501 445.0768L464.5501 445.0768L464.7246 445.0768C 464.7246 445.1641 464.7137 445.2296 464.7137 445.3168C 464.7137 445.7096 464.8337 445.8187 465.2701 445.8187L465.2701 445.8187L466.9719 445.8187C 466.6228 445.3969 466.5028 445.1096 466.5028 444.6732C 466.5028 443.4078 467.7428 442.4041 469.2846 442.4041C 470.681 442.4041 471.6301 443.215 471.6301 444.4223C 471.6301 445.0332 471.4228 445.4405 470.8992 445.8187L470.8992 445.8187L471.5974 445.8187zM470.4083 445.8187C 470.4955 445.8187 470.6192 445.735 470.7355 445.6332C 470.9537 445.4296 471.0628 445.1532 471.0628 444.8478C 471.0628 443.9314 470.201 443.3423 468.8483 443.3423C 467.6265 443.3423 466.8083 443.8768 466.8083 444.7059C 466.8083 445.2732 467.3319 445.8187 467.8992 445.8187z" stroke="none" fill="#000000" fill-rule="evenodd" /><path id="59" transform="matrix(1 0 0 -1 0 841)" d="M468.0956 451.0005L466.6119 450.9568L466.6119 450.9568L466.6119 450.8369L466.6119 450.8369L466.6337 450.8151C 466.721 450.7132 466.721 450.7059 466.721 450.6623C 466.721 450.5896 466.7028 450.4841 466.6447 450.3678C 466.5574 450.1205 466.5137 449.8805 466.5137 449.6041C 466.5137 448.7314 467.0701 448.1205 467.8555 448.1205C 468.4665 448.1205 468.9028 448.4659 469.4265 449.3969L469.4265 449.3969L469.7864 450.0296C 470.0046 450.4078 470.2701 450.5969 470.6046 450.5969C 471.0847 450.5969 471.3901 450.2441 471.3901 449.6914C 471.3901 449.3132 471.2556 448.9787 471.0083 448.775C 470.7465 448.5423 470.4883 448.4368 469.8628 448.306L469.8628 448.306L469.8628 448.1314L469.8628 448.1314L471.5646 448.1314L471.5646 448.1314L471.5646 448.2732C 471.4628 448.3459 471.4337 448.3932 471.4337 448.5241C 471.4337 448.6114 471.4628 448.7642 471.521 449.0259C 471.5792 449.3314 471.6301 449.6187 471.6301 449.8223C 471.6301 450.6514 471.0046 451.3605 470.2337 451.3605C 469.6956 451.3605 469.3283 451.0987 468.9355 450.4442L468.9355 450.4442L468.2374 449.2659C 468.0628 448.9605 467.801 448.7969 467.4955 448.7969C 467.0592 448.7969 466.7537 449.1277 466.7537 449.6368C 466.7537 450.2477 467.1356 450.575 468.0956 450.8369z" stroke="none" fill="#000000" fill-rule="evenodd" /><path id="60" transform="matrix(1 0 0 -1 0 841)" d="M466.5028 456.4442L467.1028 454.7532L467.1028 454.7532L467.2664 454.7532L467.2664 454.7532L467.2556 454.8405C 467.241 454.9714 467.2228 455.1096 467.2228 455.2114C 467.2228 455.4732 467.3974 455.5714 467.8774 455.5714L467.8774 455.5714L470.4083 455.5714C 471.1937 455.5714 471.3137 455.4514 471.3574 454.7096L471.3574 454.7096L471.521 454.7096L471.521 454.7096L471.521 457.295L471.521 457.295L471.3574 457.295C 471.3137 456.5677 471.1937 456.4878 470.4083 456.4878L470.4083 456.4878L466.5356 456.4878zM464.0701 455.9314C 464.0701 455.6259 464.321 455.3859 464.6265 455.3859C 464.9319 455.3859 465.1828 455.6259 465.1828 455.9314C 465.1828 456.2369 464.9464 456.4987 464.6265 456.4987C 464.321 456.4987 464.0701 456.2369 464.0701 455.9314z" stroke="none" fill="#000000" fill-rule="evenodd" /><path id="61" transform="matrix(1 0 0 -1 0 841)" d="M467.1792 457.7423C 467.1501 457.8005 467.1356 457.9059 467.1356 458.0369C 467.1356 458.3423 467.3101 458.4405 467.8337 458.4405L467.8337 458.4405L470.5392 458.4405C 471.1646 458.4405 471.3137 458.3168 471.3574 457.7641L471.3574 457.7641L471.521 457.7641L471.521 457.7641L471.521 460.0768L471.521 460.0768L471.3574 460.0768C 471.3137 459.5096 471.1828 459.3569 470.7901 459.3569L470.7901 459.3569L467.7246 459.3569C 467.2446 459.8805 467.1028 460.1169 467.1028 460.4805C 467.1028 461.0042 467.4483 461.2769 468.161 461.2769L468.161 461.2769L470.441 461.2769C 471.1392 461.2769 471.3137 461.1277 471.3574 460.5896L471.3574 460.5896L471.521 460.5896L471.521 460.5896L471.521 462.8587L471.521 462.8587L471.3574 462.8587C 471.3137 462.3205 471.1755 462.1932 470.6374 462.1932L470.6374 462.1932L468.1392 462.1932C 467.121 462.1932 466.5028 461.7059 466.5028 460.9059C 466.5028 460.3969 466.6883 460.0659 467.3864 459.3242L467.3864 459.3242L466.5246 459.3242L466.5246 459.3242L466.5028 459.2477C 466.7065 458.7096 466.8192 458.3387 466.9937 457.7423z" stroke="none" fill="#000000" fill-rule="evenodd" /><path id="62" transform="matrix(1 0 0 -1 0 841)" d="M464.2992 475.9169L464.2992 473.7568L464.2992 473.7568L464.5065 473.7568C 464.5646 474.3096 464.6846 474.5096 464.9755 474.5096C 465.2083 474.5096 465.4883 474.4368 465.7937 474.335L465.7937 474.335L469.4919 472.9714L469.4919 472.9714L465.7719 471.5314C 465.7283 471.5023 465.4883 471.4005 465.4446 471.4005C 465.2264 471.2986 465.0192 471.2369 464.8883 471.2369C 464.6265 471.2369 464.521 471.4805 464.5065 472.0768L464.5065 472.0768L464.2992 472.0768L464.2992 472.0768L464.2992 469.1641L464.2992 469.1641L464.5065 469.1641C 464.521 469.775 464.6155 469.8878 465.4883 470.2659L465.4883 470.2659L466.3828 470.6259L466.3828 470.6259L469.4592 469.4587L469.4592 469.4587L465.3574 467.8878C 465.1683 467.8005 464.9865 467.7678 464.8555 467.7678C 464.6228 467.7678 464.5501 467.9095 464.5065 468.4769L464.5065 468.4769L464.2992 468.4769L464.2992 468.4769L464.2992 465.8041L464.2992 465.8041L464.5065 465.8041C 464.5646 466.3569 464.7646 466.5205 465.7828 466.9277L465.7828 466.9277L471.641 469.0332L471.641 469.0332L471.641 469.1968L471.641 469.1968L467.0265 470.8768L467.0265 470.8768L471.641 472.6223L471.641 472.6223L471.641 472.7859C 468.8046 473.7023 468.4955 473.8187 465.281 475.0114C 464.7137 475.215 464.6228 475.335 464.5065 475.9169z" stroke="none" fill="#000000" fill-rule="evenodd" /><path id="63" transform="matrix(1 0 0 -1 0 841)" d="M470.801 479.9969C 470.961 479.8078 471.0083 479.6769 471.0083 479.5168C 471.0083 479.2551 470.8555 479.1896 470.3755 479.1896L470.3755 479.1896L468.2483 479.1896C 467.681 479.1896 467.3646 479.1314 467.1028 478.9714C 466.7101 478.7241 466.5028 478.2587 466.5028 477.6187C 466.5028 476.5859 467.041 475.7859 467.7246 475.7859C 467.9865 475.7859 468.1937 475.9932 468.1937 476.2551C 468.1937 476.5168 467.9828 476.746 467.7355 476.746C 467.6919 476.746 467.6483 476.7241 467.561 476.7241C 467.4737 476.6951 467.3864 476.6914 467.2992 476.6914C 467.0083 476.6914 466.7646 477.0405 466.7646 477.4769C 466.7646 478.0005 467.0883 478.306 467.6701 478.306L467.6701 478.306L468.3355 478.306C 469.0192 476.6187 469.1064 476.4369 469.5137 475.9714C 469.7319 475.7241 470.1137 475.5787 470.4628 475.5787C 471.161 475.5787 471.6301 476.0551 471.6301 476.7241C 471.6301 477.2042 471.401 477.6478 470.8337 478.3169C 471.401 478.3605 471.6301 478.5641 471.6301 479.0151C 471.6301 479.3787 471.5065 479.6041 471.0847 479.9969zM470.1792 478.306C 470.5283 478.306 470.6155 478.2405 470.7465 478.0223C 470.9065 477.7605 470.9974 477.4442 470.9974 477.226C 470.9974 476.8333 470.6374 476.5387 470.1573 476.5387L470.1573 476.5387L470.1137 476.5387C 469.4737 476.5387 469.0774 476.9823 468.5974 478.306z" stroke="none" fill="#000000" fill-rule="evenodd" /><path id="64" transform="matrix(1 0 0 -1 0 841)" d="M468.0956 483.4551L466.6119 483.4114L466.6119 483.4114L466.6119 483.2914L466.6119 483.2914L466.6337 483.2696C 466.721 483.1678 466.721 483.1605 466.721 483.1169C 466.721 483.0441 466.7028 482.9387 466.6447 482.8223C 466.5574 482.5751 466.5137 482.3351 466.5137 482.0587C 466.5137 481.186 467.0701 480.5751 467.8555 480.5751C 468.4665 480.5751 468.9028 480.9205 469.4265 481.8514L469.4265 481.8514L469.7864 482.4841C 470.0046 482.8623 470.2701 483.0514 470.6046 483.0514C 471.0847 483.0514 471.3901 482.6987 471.3901 482.1459C 471.3901 481.7678 471.2556 481.4332 471.0083 481.2296C 470.7465 480.9969 470.4883 480.8914 469.8628 480.7605L469.8628 480.7605L469.8628 480.5859L469.8628 480.5859L471.5646 480.5859L471.5646 480.5859L471.5646 480.7278C 471.4628 480.8005 471.4337 480.8478 471.4337 480.9787C 471.4337 481.066 471.4628 481.2187 471.521 481.4805C 471.5792 481.7859 471.6301 482.0732 471.6301 482.2769C 471.6301 483.106 471.0046 483.8151 470.2337 483.8151C 469.6956 483.8151 469.3283 483.5532 468.9355 482.8987L468.9355 482.8987L468.2374 481.7205C 468.0628 481.415 467.801 481.2514 467.4955 481.2514C 467.0592 481.2514 466.7537 481.5823 466.7537 482.0914C 466.7537 482.7023 467.1356 483.0296 468.0956 483.2914z" stroke="none" fill="#000000" fill-rule="evenodd" /><path id="65" transform="matrix(1 0 0 -1 0 841)" d="M466.6119 487.0441L466.6119 485.9423L466.6119 485.9423L465.3464 485.9423C 465.2446 485.9423 465.2047 485.9241 465.2047 485.866C 465.3065 485.7787 465.4083 485.7205 465.5101 485.6478C 466.121 485.226 466.6337 484.7642 466.6774 484.5896C 466.7646 484.4587 466.841 484.4042 466.8846 484.4042C 466.9283 484.4042 466.9465 484.4042 466.961 484.4478L466.961 484.4478L466.961 485.0259L466.961 485.0259L470.2446 485.0259C 471.161 485.0259 471.6301 485.3423 471.6301 485.9969C 471.6301 486.5205 471.3683 486.9423 470.801 487.306L470.801 487.306L470.681 487.1641C 470.9574 486.9314 471.0628 486.7423 471.0628 486.5096C 471.0628 486.1024 470.7792 485.9423 470.081 485.9423L470.081 485.9423L466.961 485.9423L466.961 485.9423L466.961 487.0441z" stroke="none" fill="#000000" fill-rule="evenodd" /><path id="66" transform="matrix(1 0 0 -1 0 841)" d="M469.7319 491.746C 470.561 491.2224 470.8774 490.7532 470.8774 490.0551C 470.8774 489.4296 470.5646 488.9532 469.9392 488.6478C 469.5319 488.4442 469.1683 488.3678 468.4992 488.3533L468.4992 488.3533L468.4992 491.7133C 467.801 491.626 467.4737 491.506 467.1246 491.2441C 466.7319 490.9096 466.5028 490.415 466.5028 489.8478C 466.5028 489.295 466.7065 488.7823 467.0701 488.3751C 467.521 487.8514 468.2992 487.5678 469.1865 487.5678C 470.6992 487.5678 471.6301 488.3423 471.6301 489.6078C 471.6301 490.6405 470.9865 491.4551 469.8083 491.9205zM468.1501 488.3751C 467.3065 488.4914 466.8955 488.8623 466.8955 489.5314C 466.8955 490.186 467.2047 490.4551 468.1501 490.6005z" stroke="none" fill="#000000" fill-rule="evenodd" /><path id="67" transform="matrix(1 0 0 -1 0 841)" d="M466.6119 498.0951L466.7755 498.0951C 466.8628 498.4587 466.9392 498.5751 467.1137 498.5751C 467.2883 498.5751 467.5428 498.506 467.8337 498.3896L467.8337 498.3896L470.2556 497.4078L470.2556 497.4078L467.8119 496.4915C 467.3174 496.3023 467.3137 496.306 467.1683 496.306C 466.9355 496.306 466.8628 496.415 466.7755 496.9387L466.7755 496.9387L466.6119 496.9387L466.6119 496.9387L466.6119 494.7241L466.6119 494.7241L466.7755 494.7241C 466.8192 495.1169 466.9465 495.2587 467.5283 495.4769C 467.7465 495.5496 467.9501 495.6223 468.1392 495.6951L468.1392 495.6951L470.3101 494.7023L470.3101 494.7023L467.4628 493.6223C 467.361 493.5787 467.2519 493.5569 467.1356 493.5569C 466.9174 493.5569 466.8192 493.6805 466.7755 494.0587L466.7755 494.0587L466.6119 494.0587L466.6119 494.0587L466.6119 492.095L466.6119 492.095L466.7755 492.095C 466.8046 492.3423 466.9101 492.426 467.4628 492.6732L467.4628 492.6732L471.1937 494.146C 471.5283 494.2769 471.6737 494.3569 471.6737 494.4296C 471.6737 494.4733 471.5392 494.5714 471.2483 494.7023L471.2483 494.7023L468.6301 495.9241L468.6301 495.9241L471.2047 496.9169C 471.6119 497.0623 471.6737 497.106 471.6737 497.1787C 471.6737 497.2514 471.5756 497.3096 471.1392 497.4841L471.1392 497.4841L467.3646 498.9896C 466.9137 499.1787 466.8628 499.2187 466.7755 499.4369L466.7755 499.4369L466.6119 499.4369z" stroke="none" fill="#000000" fill-rule="evenodd" /><path id="68" transform="matrix(1 0 0 -1 0 841)" d="M470.801 504.4551C 470.961 504.266 471.0083 504.1351 471.0083 503.975C 471.0083 503.7133 470.8555 503.6478 470.3755 503.6478L470.3755 503.6478L468.2483 503.6478C 467.681 503.6478 467.3646 503.5896 467.1028 503.4296C 466.7101 503.1823 466.5028 502.7169 466.5028 502.0769C 466.5028 501.0441 467.041 500.2441 467.7246 500.2441C 467.9865 500.2441 468.1937 500.4514 468.1937 500.7133C 468.1937 500.975 467.9828 501.2042 467.7355 501.2042C 467.6919 501.2042 467.6483 501.1823 467.561 501.1823C 467.4737 501.1533 467.3864 501.1496 467.2992 501.1496C 467.0083 501.1496 466.7646 501.4987 466.7646 501.9351C 466.7646 502.4587 467.0883 502.7642 467.6701 502.7642L467.6701 502.7642L468.3355 502.7642C 469.0192 501.0769 469.1064 500.8951 469.5137 500.4296C 469.7319 500.1823 470.1137 500.0369 470.4628 500.0369C 471.161 500.0369 471.6301 500.5132 471.6301 501.1823C 471.6301 501.6624 471.401 502.106 470.8337 502.7751C 471.401 502.8187 471.6301 503.0223 471.6301 503.4733C 471.6301 503.8369 471.5065 504.0623 471.0847 504.4551zM470.1792 502.7642C 470.5283 502.7642 470.6155 502.6987 470.7465 502.4805C 470.9065 502.2187 470.9974 501.9023 470.9974 501.6841C 470.9974 501.2914 470.6374 500.9969 470.1573 500.9969L470.1573 500.9969L470.1137 500.9969C 469.4737 500.9969 469.0774 501.4405 468.5974 502.7642z" stroke="none" fill="#000000" fill-rule="evenodd" /><path id="69" transform="matrix(1 0 0 -1 0 841)" d="M466.6119 507.2587L466.6119 506.1569L466.6119 506.1569L465.3464 506.1569C 465.2446 506.1569 465.2047 506.1387 465.2047 506.0805C 465.3065 505.9932 465.4083 505.9351 465.5101 505.8624C 466.121 505.4405 466.6337 504.9787 466.6774 504.8041C 466.7646 504.6732 466.841 504.6187 466.8846 504.6187C 466.9283 504.6187 466.9465 504.6187 466.961 504.6624L466.961 504.6624L466.961 505.2405L466.961 505.2405L470.2446 505.2405C 471.161 505.2405 471.6301 505.5569 471.6301 506.2114C 471.6301 506.735 471.3683 507.1569 470.801 507.5205L470.801 507.5205L470.681 507.3787C 470.9574 507.146 471.0628 506.9569 471.0628 506.7242C 471.0628 506.3169 470.7792 506.1569 470.081 506.1569L470.081 506.1569L466.961 506.1569L466.961 506.1569L466.961 507.2587z" stroke="none" fill="#000000" fill-rule="evenodd" /><path id="70" transform="matrix(1 0 0 -1 0 841)" d="M469.7319 511.9605C 470.561 511.4369 470.8774 510.9678 470.8774 510.2696C 470.8774 509.6442 470.5646 509.1678 469.9392 508.8624C 469.5319 508.6587 469.1683 508.5823 468.4992 508.5678L468.4992 508.5678L468.4992 511.9278C 467.801 511.8405 467.4737 511.7205 467.1246 511.4587C 466.7319 511.1241 466.5028 510.6296 466.5028 510.0623C 466.5028 509.5096 466.7065 508.9969 467.0701 508.5896C 467.521 508.066 468.2992 507.7823 469.1865 507.7823C 470.6992 507.7823 471.6301 508.5569 471.6301 509.8223C 471.6301 510.855 470.9865 511.6696 469.8083 512.1351zM468.1501 508.5896C 467.3065 508.706 466.8955 509.0769 466.8955 509.746C 466.8955 510.4005 467.2047 510.6696 468.1501 510.8151z" stroke="none" fill="#000000" fill-rule="evenodd" /><path id="71" transform="matrix(1 0 0 -1 0 841)" d="M467.2664 512.4296C 467.2374 512.5751 467.2228 512.6805 467.2228 512.8115C 467.2228 513.0732 467.3974 513.1824 467.8774 513.1824L467.8774 513.1824L470.6046 513.1824C 471.1573 513.1824 471.2264 513.106 471.3574 512.4078L471.3574 512.4078L471.521 512.4078L471.521 512.4078L471.521 515.026L471.521 515.026L471.3574 515.026C 471.3283 514.2842 471.1646 514.0987 470.5392 514.0987L470.5392 514.0987L468.0847 514.0987C 467.7355 514.0987 467.1901 514.5569 467.1901 514.8624C 467.1901 514.9205 467.2519 515.0151 467.3537 515.146C 467.5137 515.3206 467.5719 515.4369 467.5719 515.5823C 467.5719 515.8442 467.3864 516.0078 467.081 516.0078C 466.7319 516.0078 466.5028 515.7714 466.5028 515.4078C 466.5028 514.9423 466.7574 514.6223 467.5283 514.0987L467.5283 514.0987L466.5246 514.0987L466.5246 514.0987L466.5028 514.0442C 466.7501 513.4623 466.8883 513.0696 467.0919 512.4296z" stroke="none" fill="#000000" fill-rule="evenodd" /><path id="72" transform="matrix(1 0 0 -1 0 841)" d="M464.7574 521.4842L470.2119 521.4842C 471.1428 521.4842 471.2701 521.3605 471.3137 520.4587L471.3137 520.4587L471.521 520.4587L471.521 520.4587L471.521 523.6442L471.521 523.6442L471.3137 523.6442C 471.2701 522.7424 471.1319 522.5969 470.3319 522.5969L470.3319 522.5969L464.7574 522.5969L464.7574 522.5969L464.7574 523.186C 464.7574 524.4224 464.961 524.6587 466.1537 524.9205L466.1537 524.9205L466.1537 525.1824L466.1537 525.1824L464.2992 525.1169L464.2992 525.1169L464.2992 518.9642L464.2992 518.9642L466.1537 518.8987L466.1537 518.8987L466.1537 519.1605C 464.9755 519.4224 464.7574 519.6733 464.7574 520.8951z" stroke="none" fill="#000000" fill-rule="evenodd" /><path id="73" transform="matrix(1 0 0 -1 0 841)" d="M467.2664 525.0732C 467.2374 525.2187 467.2228 525.3242 467.2228 525.4551C 467.2228 525.7169 467.3974 525.826 467.8774 525.826L467.8774 525.826L470.6046 525.826C 471.1573 525.826 471.2264 525.7496 471.3574 525.0515L471.3574 525.0515L471.521 525.0515L471.521 525.0515L471.521 527.6696L471.521 527.6696L471.3574 527.6696C 471.3283 526.9278 471.1646 526.7424 470.5392 526.7424L470.5392 526.7424L468.0847 526.7424C 467.7355 526.7424 467.1901 527.2005 467.1901 527.506C 467.1901 527.5641 467.2519 527.6587 467.3537 527.7896C 467.5137 527.9642 467.5719 528.0805 467.5719 528.226C 467.5719 528.4878 467.3864 528.6514 467.081 528.6514C 466.7319 528.6514 466.5028 528.4151 466.5028 528.0515C 466.5028 527.586 466.7574 527.266 467.5283 526.7424L467.5283 526.7424L466.5246 526.7424L466.5246 526.7424L466.5028 526.6878C 466.7501 526.106 466.8883 525.7133 467.0919 525.0732z" stroke="none" fill="#000000" fill-rule="evenodd" /><path id="74" transform="matrix(1 0 0 -1 0 841)" d="M469.7319 533.0805C 470.561 532.5569 470.8774 532.0878 470.8774 531.3896C 470.8774 530.7642 470.5646 530.2878 469.9392 529.9824C 469.5319 529.7787 469.1683 529.7023 468.4992 529.6878L468.4992 529.6878L468.4992 533.0478C 467.801 532.9605 467.4737 532.8405 467.1246 532.5787C 466.7319 532.2441 466.5028 531.7496 466.5028 531.1824C 466.5028 530.6296 466.7065 530.1169 467.0701 529.7096C 467.521 529.186 468.2992 528.9023 469.1865 528.9023C 470.6992 528.9023 471.6301 529.6769 471.6301 530.9423C 471.6301 531.9751 470.9865 532.7896 469.8083 533.2551zM468.1501 529.7096C 467.3065 529.826 466.8955 530.1969 466.8955 530.866C 466.8955 531.5205 467.2047 531.7896 468.1501 531.9351z" stroke="none" fill="#000000" fill-rule="evenodd" /><path id="75" transform="matrix(1 0 0 -1 0 841)" d="M470.801 538.2951C 470.961 538.106 471.0083 537.9751 471.0083 537.8151C 471.0083 537.5533 470.8555 537.4878 470.3755 537.4878L470.3755 537.4878L468.2483 537.4878C 467.681 537.4878 467.3646 537.4296 467.1028 537.2697C 466.7101 537.0223 466.5028 536.5569 466.5028 535.9169C 466.5028 534.8842 467.041 534.0842 467.7246 534.0842C 467.9865 534.0842 468.1937 534.2914 468.1937 534.5533C 468.1937 534.8151 467.9828 535.0442 467.7355 535.0442C 467.6919 535.0442 467.6483 535.0223 467.561 535.0223C 467.4737 534.9933 467.3864 534.9896 467.2992 534.9896C 467.0083 534.9896 466.7646 535.3387 466.7646 535.7751C 466.7646 536.2987 467.0883 536.6042 467.6701 536.6042L467.6701 536.6042L468.3355 536.6042C 469.0192 534.9169 469.1064 534.7351 469.5137 534.2696C 469.7319 534.0223 470.1137 533.8769 470.4628 533.8769C 471.161 533.8769 471.6301 534.3533 471.6301 535.0223C 471.6301 535.5024 471.401 535.946 470.8337 536.6151C 471.401 536.6587 471.6301 536.8624 471.6301 537.3132C 471.6301 537.6769 471.5065 537.9023 471.0847 538.2951zM470.1792 536.6042C 470.5283 536.6042 470.6155 536.5387 470.7465 536.3206C 470.9065 536.0587 470.9974 535.7424 470.9974 535.5242C 470.9974 535.1315 470.6374 534.8369 470.1573 534.8369L470.1573 534.8369L470.1137 534.8369C 469.4737 534.8369 469.0774 535.2805 468.5974 536.6042z" stroke="none" fill="#000000" fill-rule="evenodd" /><path id="76" transform="matrix(1 0 0 -1 0 841)" d="M466.6119 541.0987L466.6119 539.9969L466.6119 539.9969L465.3464 539.9969C 465.2446 539.9969 465.2047 539.9787 465.2047 539.9205C 465.3065 539.8333 465.4083 539.7751 465.5101 539.7023C 466.121 539.2805 466.6337 538.8187 466.6774 538.6442C 466.7646 538.5132 466.841 538.4587 466.8846 538.4587C 466.9283 538.4587 466.9465 538.4587 466.961 538.5024L466.961 538.5024L466.961 539.0805L466.961 539.0805L470.2446 539.0805C 471.161 539.0805 471.6301 539.3969 471.6301 540.0515C 471.6301 540.5751 471.3683 540.9969 470.801 541.3605L470.801 541.3605L470.681 541.2188C 470.9574 540.986 471.0628 540.7969 471.0628 540.5641C 471.0628 540.1569 470.7792 539.9969 470.081 539.9969L470.081 539.9969L466.961 539.9969L466.961 539.9969L466.961 541.0987z" stroke="none" fill="#000000" fill-rule="evenodd" /><path id="77" transform="matrix(1 0 0 -1 0 841)" d="M467.1792 541.5569C 467.1501 541.6878 467.1356 541.7751 467.1356 541.906C 467.1356 542.1824 467.3101 542.2878 467.8337 542.2878L467.8337 542.2878L470.5937 542.2878C 471.1901 542.2878 471.3574 542.1351 471.3574 541.5242L471.3574 541.5242L471.521 541.5242L471.521 541.5242L471.521 543.946L471.521 543.946L471.3574 543.946C 471.3428 543.3642 471.2264 543.2042 470.7901 543.2042L470.7901 543.2042L467.7137 543.2042C 467.6992 543.2042 467.5937 543.2805 467.5065 543.3678C 467.2592 543.6296 467.0701 544.0987 467.0701 544.4915C 467.0701 544.9714 467.4592 545.2114 468.2155 545.2114L468.2155 545.2114L470.5828 545.2114C 471.1937 545.2114 471.3137 545.0806 471.3574 544.4696L471.3574 544.4696L471.521 544.4696L471.521 544.4696L471.521 546.9133L471.521 546.9133L471.3574 546.9133C 471.3574 546.2878 471.1683 546.1278 470.4846 546.1278L470.4846 546.1278L467.7355 546.1278C 467.2701 546.4478 467.0701 546.8078 467.0701 547.3169C 467.0701 547.9278 467.3683 548.1351 468.2701 548.1351L468.2701 548.1351L470.5719 548.1351C 471.1974 548.1351 471.2846 548.0405 471.3574 547.4151L471.3574 547.4151L471.521 547.4151L471.521 547.4151L471.521 549.8042L471.521 549.8042L471.3574 549.8042L471.3574 549.8042L471.3355 549.5206C 471.321 549.186 471.1283 549.0515 470.6919 549.0515L470.6919 549.0515L468.4446 549.0515C 467.1646 549.0515 466.5028 548.6151 466.5028 547.786C 466.5028 547.146 466.7937 546.5897 467.4192 546.0078C 466.8083 545.8042 466.5028 545.4333 466.5028 544.8514C 466.5028 544.3715 466.6592 544.0624 467.3428 543.1605L467.3428 543.1605L466.5246 543.1605L466.5246 543.1605L466.5028 543.0842C 466.721 542.5169 466.8337 542.1533 466.9937 541.5569z" stroke="none" fill="#000000" fill-rule="evenodd" /><path id="78" transform="matrix(1 0 0 -1 0 841)" d="M469.7319 554.2878C 470.561 553.7642 470.8774 553.2951 470.8774 552.5969C 470.8774 551.9714 470.5646 551.4951 469.9392 551.1896C 469.5319 550.986 469.1683 550.9097 468.4992 550.8951L468.4992 550.8951L468.4992 554.2551C 467.801 554.1678 467.4737 554.0479 467.1246 553.786C 466.7319 553.4515 466.5028 552.9569 466.5028 552.3896C 466.5028 551.8369 466.7065 551.3242 467.0701 550.9169C 467.521 550.3932 468.2992 550.1096 469.1865 550.1096C 470.6992 550.1096 471.6301 550.8842 471.6301 552.1497C 471.6301 553.1824 470.9865 553.9969 469.8083 554.4623zM468.1501 550.9169C 467.3065 551.0333 466.8955 551.4042 466.8955 552.0733C 466.8955 552.7278 467.2047 552.9969 468.1501 553.1424z" stroke="none" fill="#000000" fill-rule="evenodd" /><path id="79" transform="matrix(1 0 0 -1 0 841)" d="M467.1792 554.8551C 467.1501 554.9133 467.1356 555.0187 467.1356 555.1497C 467.1356 555.4551 467.3101 555.5533 467.8337 555.5533L467.8337 555.5533L470.5392 555.5533C 471.1646 555.5533 471.3137 555.4296 471.3574 554.8769L471.3574 554.8769L471.521 554.8769L471.521 554.8769L471.521 557.1896L471.521 557.1896L471.3574 557.1896C 471.3137 556.6224 471.1828 556.4697 470.7901 556.4697L470.7901 556.4697L467.7246 556.4697C 467.2446 556.9933 467.1028 557.2296 467.1028 557.5933C 467.1028 558.1169 467.4483 558.3896 468.161 558.3896L468.161 558.3896L470.441 558.3896C 471.1392 558.3896 471.3137 558.2405 471.3574 557.7024L471.3574 557.7024L471.521 557.7024L471.521 557.7024L471.521 559.9714L471.521 559.9714L471.3574 559.9714C 471.3137 559.4333 471.1755 559.306 470.6374 559.306L470.6374 559.306L468.1392 559.306C 467.121 559.306 466.5028 558.8187 466.5028 558.0187C 466.5028 557.5096 466.6883 557.1787 467.3864 556.4369L467.3864 556.4369L466.5246 556.4369L466.5246 556.4369L466.5028 556.3605C 466.7065 555.8224 466.8192 555.4515 466.9937 554.8551z" stroke="none" fill="#000000" fill-rule="evenodd" /><path id="80" transform="matrix(1 0 0 -1 0 841)" d="M466.6119 562.9169L466.6119 561.8151L466.6119 561.8151L465.3464 561.8151C 465.2446 561.8151 465.2047 561.7969 465.2047 561.7387C 465.3065 561.6515 465.4083 561.5933 465.5101 561.5206C 466.121 561.0988 466.6337 560.6369 466.6774 560.4624C 466.7646 560.3315 466.841 560.2769 466.8846 560.2769C 466.9283 560.2769 466.9465 560.2769 466.961 560.3206L466.961 560.3206L466.961 560.8987L466.961 560.8987L470.2446 560.8987C 471.161 560.8987 471.6301 561.2151 471.6301 561.8696C 471.6301 562.3933 471.3683 562.8151 470.801 563.1787L470.801 563.1787L470.681 563.0369C 470.9574 562.8042 471.0628 562.6151 471.0628 562.3824C 471.0628 561.9751 470.7792 561.8151 470.081 561.8151L470.081 561.8151L466.961 561.8151L466.961 561.8151L466.961 562.9169z" stroke="none" fill="#000000" fill-rule="evenodd" /><g transform="matrix(0.2 0 0 0.2 249.239 774.846)"><g transform="matrix(1 0 0 1 0 0)"><image x="0" y="0" xlink:href="img_04.png" width="484" height="104" /></g></g></g></g></svg>