<svg xmlns="http://www.w3.org/2000/svg" xmlns:xlink="http://www.w3.org/1999/xlink" id="body_421" preserveAspectRatio="xMinYMin meet" viewBox="0 0 793 1121"><defs><clipPath id="1"><path id="" clip-rule="evenodd" transform="matrix(1 0 0 1 0 0)" d="M0 841L0 -0.8900146L0 -0.8900146L595.276 -0.8900146L595.276 -0.8900146L595.276 841L595.276 841L0 841z" /></clipPath></defs><g transform="matrix(1.333333 0 0 1.333333 0 0)"><g clip-path="url(#1)"><path id="23" transform="matrix(1 0 0 -1 0 841)" d="M85.039 766.564L510.236 766.564" stroke="#000000" stroke-width="0.498" fill="none" /><path id="203" transform="matrix(1 0 0 -1 0 841)" d="M113.508 688.986L186.513 688.986" stroke="#000000" stroke-width="0.398" fill="none" /><path id="225" transform="matrix(1 0 0 -1 0 841)" d="M268.626 701.737L281.866 701.737" stroke="#000000" stroke-width="0.398" fill="none" /><path id="245" transform="matrix(1 0 0 -1 0 841)" d="M337.911 701.737L361.96 701.737" stroke="#000000" stroke-width="0.398" fill="none" /><path id="266" transform="matrix(1 0 0 -1 0 841)" d="M372.1 701.737L457.827 701.737" stroke="#000000" stroke-width="0.398" fill="none" /><path id="271" transform="matrix(1 0 0 -1 0 841)" d="M199.965 688.986L459.023 688.986" stroke="#000000" stroke-width="0.398" fill="none" /><path id="295" transform="matrix(1 0 0 -1 0 841)" d="M496.267 688.986L569.272 688.986" stroke="#000000" stroke-width="0.398" fill="none" /><path id="313" transform="matrix(1 0 0 -1 0 841)" d="M113.508 655.326L184.62 655.326" stroke="#000000" stroke-width="0.398" fill="none" /><path id="335" transform="matrix(1 0 0 -1 0 841)" d="M221.865 655.326L288.863 655.326" stroke="#000000" stroke-width="0.398" fill="none" /><path id="356" transform="matrix(1 0 0 -1 0 841)" d="M297.895 655.326L383.951 655.326" stroke="#000000" stroke-width="0.398" fill="none" /><path id="397" transform="matrix(1 0 0 -1 0 841)" d="M426.177 655.326L540.427 655.326" stroke="#000000" stroke-width="0.398" fill="none" /><path id="589" transform="matrix(1 0 0 -1 0 841)" d="M137.508 567.407L238.763 567.407" stroke="#000000" stroke-width="0.398" fill="none" /><path id="602" transform="matrix(1 0 0 -1 0 841)" d="M252.127 574.909L284.904 574.909" stroke="#000000" stroke-width="0.398" fill="none" /><path id="603" transform="matrix(1 0 0 -1 0 841)" d="M252.326 561.574L252.326 574.909" stroke="#000000" stroke-width="0.398" fill="none" /><path id="604" transform="matrix(1 0 0 -1 0 841)" d="M284.705 561.574L284.705 574.909" stroke="#000000" stroke-width="0.398" fill="none" /><path id="605" transform="matrix(1 0 0 -1 0 841)" d="M252.127 561.574L284.904 561.574" stroke="#000000" stroke-width="0.398" fill="none" /><path id="697" transform="matrix(1 0 0 -1 0 841)" d="M251.361 486.809L299.043 486.809" stroke="#000000" stroke-width="0.398" fill="none" /><path id="698" transform="matrix(1 0 0 -1 0 841)" d="M251.56 471.641L251.56 486.809" stroke="#000000" stroke-width="0.398" fill="none" /><path id="699" transform="matrix(1 0 0 -1 0 841)" d="M298.844 471.641L298.844 486.809" stroke="#000000" stroke-width="0.398" fill="none" /><path id="700" transform="matrix(1 0 0 -1 0 841)" d="M251.361 471.641L299.043 471.641" stroke="#000000" stroke-width="0.398" fill="none" /><path id="837" transform="matrix(1 0 0 -1 0 841)" d="M186.163 375.914L288.783 375.914" stroke="#000000" stroke-width="0.398" fill="none" /><path id="871" transform="matrix(1 0 0 -1 0 841)" d="M349.23 375.914L446.868 375.914" stroke="#000000" stroke-width="0.398" fill="none" /><path id="887" transform="matrix(1 0 0 -1 0 841)" d="M459.125 383.471L523.703 383.471" stroke="#000000" stroke-width="0.398" fill="none" /><path id="888" transform="matrix(1 0 0 -1 0 841)" d="M459.325 368.303L459.325 383.471" stroke="#000000" stroke-width="0.398" fill="none" /><path id="889" transform="matrix(1 0 0 -1 0 841)" d="M523.504 368.303L523.504 383.471" stroke="#000000" stroke-width="0.398" fill="none" /><path id="890" transform="matrix(1 0 0 -1 0 841)" d="M459.125 368.303L523.703 368.303" stroke="#000000" stroke-width="0.398" fill="none" /><path id="939" transform="matrix(1 0 0 -1 0 841)" d="M137.508 272.577L195.312 272.577" stroke="#000000" stroke-width="0.398" fill="none" /><path id="957" transform="matrix(1 0 0 -1 0 841)" d="M208.676 279.939L241.453 279.939" stroke="#000000" stroke-width="0.398" fill="none" /><path id="958" transform="matrix(1 0 0 -1 0 841)" d="M208.875 266.744L208.875 279.939" stroke="#000000" stroke-width="0.398" fill="none" /><path id="959" transform="matrix(1 0 0 -1 0 841)" d="M241.253 266.744L241.253 279.939" stroke="#000000" stroke-width="0.398" fill="none" /><path id="960" transform="matrix(1 0 0 -1 0 841)" d="M208.676 266.744L241.453 266.744" stroke="#000000" stroke-width="0.398" fill="none" /><path id="1067" transform="matrix(1 0 0 -1 0 841)" d="M137.508 164.278L204.781 164.278" stroke="#000000" stroke-width="0.398" fill="none" /><path id="1091" transform="matrix(1 0 0 -1 0 841)" d="M222.728 164.278L269.462 164.278" stroke="#000000" stroke-width="0.398" fill="none" /><path id="1099" transform="matrix(1 0 0 -1 0 841)" d="M218.145 178.579L274.045 178.579" stroke="#000000" stroke-width="0.398" fill="none" /><path id="1100" transform="matrix(1 0 0 -1 0 841)" d="M218.344 149.682L218.344 178.578" stroke="#000000" stroke-width="0.398" fill="none" /><path id="1101" transform="matrix(1 0 0 -1 0 841)" d="M273.845 149.682L273.845 178.578" stroke="#000000" stroke-width="0.398" fill="none" /><path id="1102" transform="matrix(1 0 0 -1 0 841)" d="M218.145 149.682L274.045 149.682" stroke="#000000" stroke-width="0.398" fill="none" /><g transform="matrix(0.2 0 0 0.2 249.239 774.845)"><g transform="matrix(1 0 0 1 0 0)"><image x="0" y="0" xlink:href="img_04.png" width="484" height="104" /></g></g></g></g></svg>