<svg xmlns="http://www.w3.org/2000/svg" xmlns:xlink="http://www.w3.org/1999/xlink" id="body_336" preserveAspectRatio="xMinYMin meet" viewBox="0 0 793 1121"><defs><clipPath id="1"><path id="" clip-rule="evenodd" transform="matrix(1 0 0 1 0 0)" d="M0 841L0 -0.8900146L0 -0.8900146L595.276 -0.8900146L595.276 -0.8900146L595.276 841L595.276 841L0 841z" /></clipPath></defs><g transform="matrix(1.333333 0 0 1.333333 0 0)"><g clip-path="url(#1)"><path id="25" transform="matrix(1 0 0 -1 0 841)" d="M85.039 766.564L510.236 766.564" stroke="#000000" stroke-width="0.498" fill="none" /><g transform="matrix(0.375 0 0 0.375 112.312 96.20398)"><g transform="matrix(1 0 0 1 0 0)"><image x="0" y="0" xlink:href="img_472.png" width="474" height="243" /></g></g><path id="46" transform="matrix(1 0 0 -1 0 841)" d="M197.481 641.218L204.674 641.218" stroke="#000000" stroke-width="0.398" fill="none" /><path id="53" transform="matrix(1 0 0 -1 0 841)" d="M143.047 602.426L151.963 602.426" stroke="#000000" stroke-width="0.398" fill="none" /><path id="63" transform="matrix(1 0 0 -1 0 841)" d="M180.44 615.636L196.33 615.636" stroke="#000000" stroke-width="0.398" fill="none" /><path id="82" transform="matrix(1 0 0 -1 0 841)" d="M206.47 615.636L254.579 615.636" stroke="#000000" stroke-width="0.398" fill="none" /><path id="92" transform="matrix(1 0 0 -1 0 841)" d="M264.719 615.636L295.663 615.636" stroke="#000000" stroke-width="0.398" fill="none" /><path id="108" transform="matrix(1 0 0 -1 0 841)" d="M305.802 615.636L355.045 615.636" stroke="#000000" stroke-width="0.398" fill="none" /><path id="119" transform="matrix(1 0 0 -1 0 841)" d="M166.522 602.426L356.24 602.426" stroke="#000000" stroke-width="0.398" fill="none" /><path id="142" transform="matrix(1 0 0 -1 0 841)" d="M386.91 602.426L395.826 602.426" stroke="#000000" stroke-width="0.398" fill="none" /><path id="144" transform="matrix(1 0 0 -1 0 841)" d="M369.605 616.562L400.409 616.562" stroke="#000000" stroke-width="0.398" fill="none" /><path id="145" transform="matrix(1 0 0 -1 0 841)" d="M369.804 589.803L369.804 616.562" stroke="#000000" stroke-width="0.398" fill="none" /><path id="146" transform="matrix(1 0 0 -1 0 841)" d="M400.21 589.803L400.21 616.562" stroke="#000000" stroke-width="0.398" fill="none" /><path id="147" transform="matrix(1 0 0 -1 0 841)" d="M369.605 589.803L400.409 589.803" stroke="#000000" stroke-width="0.398" fill="none" /><path id="353" transform="matrix(1 0 0 -1 0 841)" d="M149.333 487.067L162.434 487.067" stroke="#000000" stroke-width="0.398" fill="none" /><path id="361" transform="matrix(1 0 0 -1 0 841)" d="M182.941 487.067L201.82 487.067" stroke="#000000" stroke-width="0.398" fill="none" /><path id="387" transform="matrix(1 0 0 -1 0 841)" d="M299.243 487.067L312.344 487.067" stroke="#000000" stroke-width="0.398" fill="none" /><path id="389" transform="matrix(1 0 0 -1 0 841)" d="M276.957 503.057L316.927 503.057" stroke="#000000" stroke-width="0.398" fill="none" /><path id="390" transform="matrix(1 0 0 -1 0 841)" d="M277.156 474.444L277.156 503.057" stroke="#000000" stroke-width="0.398" fill="none" /><path id="391" transform="matrix(1 0 0 -1 0 841)" d="M316.727 474.444L316.727 503.057" stroke="#000000" stroke-width="0.398" fill="none" /><path id="392" transform="matrix(1 0 0 -1 0 841)" d="M276.957 474.444L316.927 474.444" stroke="#000000" stroke-width="0.398" fill="none" /><path id="457" transform="matrix(1 0 0 -1 0 841)" d="M84.79 408.747L96.357 408.747L96.357 419.955L84.79 419.955z" stroke="none" fill="#FFF100" fill-rule="nonzero" /><path id="460" transform="matrix(1 0 0 -1 0 841)" d="M95.859 408.747L108.531 408.747L108.531 419.955L95.859 419.955z" stroke="none" fill="#FFF100" fill-rule="nonzero" /><path id="463" transform="matrix(1 0 0 -1 0 841)" d="M108.033 408.747L120.705 408.747L120.705 419.955L108.033 419.955z" stroke="none" fill="#FFF100" fill-rule="nonzero" /><path id="467" transform="matrix(1 0 0 -1 0 841)" d="M120.456 408.747L122.947 408.747L122.947 419.955L120.456 419.955z" stroke="none" fill="#FFF100" fill-rule="nonzero" /><path id="468" transform="matrix(1 0 0 -1 0 841)" d="M122.698 408.747L142.015 408.747L142.015 419.955L122.698 419.955z" stroke="none" fill="#FFF100" fill-rule="nonzero" /><path id="473" transform="matrix(1 0 0 -1 0 841)" d="M141.517 408.747L163.604 408.747L163.604 419.955L141.517 419.955z" stroke="none" fill="#FFF100" fill-rule="nonzero" /><path id="674" transform="matrix(1 0 0 -1 0 841)" d="M166.04 335.048L181.93 335.048" stroke="#000000" stroke-width="0.398" fill="none" /><path id="683" transform="matrix(1 0 0 -1 0 841)" d="M206.452 335.048L231.787 335.048" stroke="#000000" stroke-width="0.398" fill="none" /><path id="701" transform="matrix(1 0 0 -1 0 841)" d="M241.927 335.048L270.669 335.048" stroke="#000000" stroke-width="0.398" fill="none" /><path id="717" transform="matrix(1 0 0 -1 0 841)" d="M280.808 335.048L327.803 335.048" stroke="#000000" stroke-width="0.398" fill="none" /><path id="745" transform="matrix(1 0 0 -1 0 841)" d="M380.545 335.048L396.435 335.048" stroke="#000000" stroke-width="0.398" fill="none" /><path id="755" transform="matrix(1 0 0 -1 0 841)" d="M427.104 335.048L442.994 335.048" stroke="#000000" stroke-width="0.398" fill="none" /><path id="758" transform="matrix(1 0 0 -1 0 841)" d="M409.799 351.038L447.577 351.038" stroke="#000000" stroke-width="0.398" fill="none" /><path id="759" transform="matrix(1 0 0 -1 0 841)" d="M409.998 322.366L409.998 351.039" stroke="#000000" stroke-width="0.398" fill="none" /><path id="760" transform="matrix(1 0 0 -1 0 841)" d="M447.378 322.366L447.378 351.039" stroke="#000000" stroke-width="0.398" fill="none" /><path id="761" transform="matrix(1 0 0 -1 0 841)" d="M409.799 322.366L447.577 322.366" stroke="#000000" stroke-width="0.398" fill="none" /><path id="1037" transform="matrix(1 0 0 -1 0 841)" d="M280.68 197.411L296.889 197.411" stroke="#000000" stroke-width="0.398" fill="none" /><path id="1069" transform="matrix(1 0 0 -1 0 841)" d="M317.396 197.411L444.567 197.411" stroke="#000000" stroke-width="0.398" fill="none" /><g transform="matrix(0.2 0 0 0.2 249.239 774.845)"><g transform="matrix(1 0 0 1 0 0)"><image x="0" y="0" xlink:href="img_04.png" width="484" height="104" /></g></g></g></g></svg>