<svg xmlns="http://www.w3.org/2000/svg" xmlns:xlink="http://www.w3.org/1999/xlink" id="body_165" preserveAspectRatio="xMinYMin meet" viewBox="0 0 793 1121"><defs><clipPath id="1"><path id="" clip-rule="evenodd" transform="matrix(1 0 0 1 0 0)" d="M0 841L0 -0.8900146L0 -0.8900146L595.276 -0.8900146L595.276 -0.8900146L595.276 841L595.276 841L0 841z" /></clipPath></defs><g transform="matrix(1.333333 0 0 1.333333 0 0)"><g clip-path="url(#1)"><path id="29" transform="matrix(1 0 0 -1 0 841)" d="M85.039 766.564L510.236 766.564" stroke="#000000" stroke-width="0.498" fill="none" /><path id="65" transform="matrix(1 0 0 -1 0 841)" d="M204.565 716.429L247.085 716.429" stroke="#000000" stroke-width="0.85" fill="none" /><path id="112" transform="matrix(1 0 0 -1 0 841)" d="M246.229 701.485L288.749 701.485" stroke="#000000" stroke-width="0.85" fill="none" /><path id="113" transform="matrix(1 0 0 -1 0 841)" d="M291.239 701.485L333.759 701.485" stroke="#000000" stroke-width="0.85" fill="none" /><path id="146" transform="matrix(1 0 0 -1 0 841)" d="M247.255 686.541L289.775 686.541" stroke="#000000" stroke-width="0.85" fill="none" /><path id="181" transform="matrix(1 0 0 -1 0 841)" d="M454.545 686.541L497.065 686.541" stroke="#000000" stroke-width="0.85" fill="none" /><path id="215" transform="matrix(1 0 0 -1 0 841)" d="M235.738 656.653L278.258 656.653" stroke="#000000" stroke-width="0.85" fill="none" /><g transform="matrix(0.2 0 0 0.2 249.239 774.845)"><g transform="matrix(1 0 0 1 0 0)"><image x="0" y="0" xlink:href="img_04.png" width="484" height="104" /></g></g></g></g></svg>