<svg xmlns="http://www.w3.org/2000/svg" xmlns:xlink="http://www.w3.org/1999/xlink" id="body_439" preserveAspectRatio="xMinYMin meet" viewBox="0 0 793 1121"><defs><clipPath id="1"><path id="" clip-rule="evenodd" transform="matrix(1 0 0 1 0 0)" d="M0 841L0 -0.8900146L0 -0.8900146L595.276 -0.8900146L595.276 -0.8900146L595.276 841L595.276 841L0 841z" /></clipPath></defs><g transform="matrix(1.333333 0 0 1.333333 0 0)"><g clip-path="url(#1)"><path id="23" transform="matrix(1 0 0 -1 0 841)" d="M85.039 766.564L510.236 766.564" stroke="#000000" stroke-width="0.498" fill="none" /><path id="346" transform="matrix(1 0 0 -1 0 841)" d="M155.876 658.718L190.589 658.718" stroke="#000000" stroke-width="0.398" fill="none" /><path id="364" transform="matrix(1 0 0 -1 0 841)" d="M218.433 658.718L253.146 658.718" stroke="#000000" stroke-width="0.398" fill="none" /><path id="388" transform="matrix(1 0 0 -1 0 841)" d="M263.286 658.718L327.068 658.718" stroke="#000000" stroke-width="0.398" fill="none" /><path id="422" transform="matrix(1 0 0 -1 0 841)" d="M141.166 629.601L180.384 629.601" stroke="#000000" stroke-width="0.398" fill="none" /><path id="471" transform="matrix(1 0 0 -1 0 841)" d="M131.211 585.54L170.429 585.54" stroke="#000000" stroke-width="0.398" fill="none" /><path id="495" transform="matrix(1 0 0 -1 0 841)" d="M199.404 585.54L268.875 585.54" stroke="#000000" stroke-width="0.398" fill="none" /><path id="526" transform="matrix(1 0 0 -1 0 841)" d="M288.978 585.54L383.832 585.54" stroke="#000000" stroke-width="0.398" fill="none" /><path id="560" transform="matrix(1 0 0 -1 0 841)" d="M416.657 585.54L482.442 585.54" stroke="#000000" stroke-width="0.398" fill="none" /><path id="602" transform="matrix(1 0 0 -1 0 841)" d="M141.542 556.423L211.013 556.423" stroke="#000000" stroke-width="0.398" fill="none" /><path id="622" transform="matrix(1 0 0 -1 0 841)" d="M113.508 512.362L192.777 512.362" stroke="#000000" stroke-width="0.398" fill="none" /><path id="668" transform="matrix(1 0 0 -1 0 841)" d="M202.916 512.362L289.174 512.362" stroke="#000000" stroke-width="0.398" fill="none" /><path id="680" transform="matrix(1 0 0 -1 0 841)" d="M119.126 483.245L143.285 483.245" stroke="#000000" stroke-width="0.398" fill="none" /><path id="725" transform="matrix(1 0 0 -1 0 841)" d="M155.876 439.183L190.589 439.183" stroke="#000000" stroke-width="0.398" fill="none" /><path id="749" transform="matrix(1 0 0 -1 0 841)" d="M200.73 439.183L271.211 439.183" stroke="#000000" stroke-width="0.398" fill="none" /><path id="781" transform="matrix(1 0 0 -1 0 841)" d="M281.351 439.183L363.699 439.183" stroke="#000000" stroke-width="0.398" fill="none" /><path id="801" transform="matrix(1 0 0 -1 0 841)" d="M373.839 439.183L420.51 439.183" stroke="#000000" stroke-width="0.398" fill="none" /><path id="834" transform="matrix(1 0 0 -1 0 841)" d="M119.126 424.24L186.828 424.24" stroke="#000000" stroke-width="0.398" fill="none" /><path id="888" transform="matrix(1 0 0 -1 0 841)" d="M113.508 366.005L212.751 366.005" stroke="#000000" stroke-width="0.398" fill="none" /><path id="920" transform="matrix(1 0 0 -1 0 841)" d="M226.115 373.98L260.556 373.98" stroke="#000000" stroke-width="0.398" fill="none" /><path id="921" transform="matrix(1 0 0 -1 0 841)" d="M226.314 359.46L226.314 373.98" stroke="#000000" stroke-width="0.398" fill="none" /><path id="922" transform="matrix(1 0 0 -1 0 841)" d="M260.356 359.46L260.356 373.98" stroke="#000000" stroke-width="0.398" fill="none" /><path id="923" transform="matrix(1 0 0 -1 0 841)" d="M226.115 359.46L260.556 359.46" stroke="#000000" stroke-width="0.398" fill="none" /><path id="1136" transform="matrix(1 0 0 -1 0 841)" d="M187.495 247.995L231.321 247.995" stroke="#000000" stroke-width="0.398" fill="none" /><path id="1157" transform="matrix(1 0 0 -1 0 841)" d="M268.565 247.995L312.391 247.995" stroke="#000000" stroke-width="0.398" fill="none" /><path id="1208" transform="matrix(1 0 0 -1 0 841)" d="M135.943 189.761L179.769 189.761" stroke="#000000" stroke-width="0.398" fill="none" /><path id="1227" transform="matrix(1 0 0 -1 0 841)" d="M210.109 189.761L262.956 189.761" stroke="#000000" stroke-width="0.398" fill="none" /><path id="1254" transform="matrix(1 0 0 -1 0 841)" d="M328.034 189.761L396.412 189.761" stroke="#000000" stroke-width="0.398" fill="none" /><path id="1283" transform="matrix(1 0 0 -1 0 841)" d="M430.146 189.761L479.307 189.761" stroke="#000000" stroke-width="0.398" fill="none" /><path id="1312" transform="matrix(1 0 0 -1 0 841)" d="M131.211 174.817L175.037 174.817" stroke="#000000" stroke-width="0.398" fill="none" /><path id="1335" transform="matrix(1 0 0 -1 0 841)" d="M140.646 145.699L193.493 145.699" stroke="#000000" stroke-width="0.398" fill="none" /><path id="1345" transform="matrix(1 0 0 -1 0 841)" d="M218.015 145.699L281.476 145.699" stroke="#000000" stroke-width="0.398" fill="none" /><path id="1382" transform="matrix(1 0 0 -1 0 841)" d="M320.942 145.699L373.789 145.699" stroke="#000000" stroke-width="0.398" fill="none" /><path id="1413" transform="matrix(1 0 0 -1 0 841)" d="M184.431 114.924L237.278 114.924" stroke="#000000" stroke-width="0.398" fill="none" /><path id="1423" transform="matrix(1 0 0 -1 0 841)" d="M247.418 114.924L300.265 114.924" stroke="#000000" stroke-width="0.398" fill="none" /><path id="1445" transform="matrix(1 0 0 -1 0 841)" d="M313.629 122.899L353.051 122.899" stroke="#000000" stroke-width="0.398" fill="none" /><path id="1446" transform="matrix(1 0 0 -1 0 841)" d="M313.828 108.379L313.828 122.899" stroke="#000000" stroke-width="0.398" fill="none" /><path id="1447" transform="matrix(1 0 0 -1 0 841)" d="M352.851 108.379L352.851 122.899" stroke="#000000" stroke-width="0.398" fill="none" /><path id="1448" transform="matrix(1 0 0 -1 0 841)" d="M313.629 108.379L353.051 108.379" stroke="#000000" stroke-width="0.398" fill="none" /><g transform="matrix(0.2 0 0 0.2 249.239 774.845)"><g transform="matrix(1 0 0 1 0 0)"><image x="0" y="0" xlink:href="img_04.png" width="484" height="104" /></g></g></g></g></svg>