<svg xmlns="http://www.w3.org/2000/svg" xmlns:xlink="http://www.w3.org/1999/xlink" id="body_393" preserveAspectRatio="xMinYMin meet" viewBox="0 0 793 1121"><defs><clipPath id="1"><path id="" clip-rule="evenodd" transform="matrix(1 0 0 1 0 0)" d="M0 841L0 -0.8900146L0 -0.8900146L595.276 -0.8900146L595.276 -0.8900146L595.276 841L595.276 841L0 841z" /></clipPath></defs><g transform="matrix(1.333333 0 0 1.333333 0 0)"><g clip-path="url(#1)"><path id="23" transform="matrix(1 0 0 -1 0 841)" d="M85.039 766.564L510.236 766.564" stroke="#000000" stroke-width="0.498" fill="none" /><path id="44" transform="matrix(1 0 0 -1 0 841)" d="M220.579 742.35L269.823 742.35" stroke="#000000" stroke-width="0.398" fill="none" /><path id="77" transform="matrix(1 0 0 -1 0 841)" d="M389.424 742.35L404.328 742.35" stroke="#000000" stroke-width="0.398" fill="none" /><path id="81" transform="matrix(1 0 0 -1 0 841)" d="M356.068 756.651L408.911 756.651" stroke="#000000" stroke-width="0.398" fill="none" /><path id="82" transform="matrix(1 0 0 -1 0 841)" d="M356.267 727.805L356.267 756.652" stroke="#000000" stroke-width="0.398" fill="none" /><path id="83" transform="matrix(1 0 0 -1 0 841)" d="M408.711 727.805L408.711 756.652" stroke="#000000" stroke-width="0.398" fill="none" /><path id="84" transform="matrix(1 0 0 -1 0 841)" d="M356.068 727.805L408.911 727.805" stroke="#000000" stroke-width="0.398" fill="none" /><path id="617" transform="matrix(1 0 0 -1 0 841)" d="M204.141 392.163L441.923 392.163" stroke="#000000" stroke-width="0.398" fill="none" /><path id="815" transform="matrix(1 0 0 -1 0 841)" d="M229.088 293.43L271.69 293.43" stroke="#000000" stroke-width="0.398" fill="none" /><path id="880" transform="matrix(1 0 0 -1 0 841)" d="M204.141 261.614L272.195 261.614" stroke="#000000" stroke-width="0.398" fill="none" /><path id="897" transform="matrix(1 0 0 -1 0 841)" d="M285.56 269.17L326.058 269.17" stroke="#000000" stroke-width="0.398" fill="none" /><path id="898" transform="matrix(1 0 0 -1 0 841)" d="M285.759 253.903L285.759 269.171" stroke="#000000" stroke-width="0.398" fill="none" /><path id="899" transform="matrix(1 0 0 -1 0 841)" d="M325.858 253.903L325.858 269.171" stroke="#000000" stroke-width="0.398" fill="none" /><path id="900" transform="matrix(1 0 0 -1 0 841)" d="M285.56 253.903L326.058 253.903" stroke="#000000" stroke-width="0.398" fill="none" /><path id="958" transform="matrix(1 0 0 -1 0 841)" d="M172.495 231.965L435.924 231.965" stroke="#000000" stroke-width="0.398" fill="none" /><path id="1010" transform="matrix(1 0 0 -1 0 841)" d="M172.495 198.923L277.053 198.923" stroke="#000000" stroke-width="0.398" fill="none" /><path id="1030" transform="matrix(1 0 0 -1 0 841)" d="M290.417 206.285L314.895 206.285" stroke="#000000" stroke-width="0.398" fill="none" /><path id="1031" transform="matrix(1 0 0 -1 0 841)" d="M290.616 193.09L290.616 206.285" stroke="#000000" stroke-width="0.398" fill="none" /><path id="1032" transform="matrix(1 0 0 -1 0 841)" d="M314.696 193.09L314.696 206.285" stroke="#000000" stroke-width="0.398" fill="none" /><path id="1033" transform="matrix(1 0 0 -1 0 841)" d="M290.417 193.09L314.895 193.09" stroke="#000000" stroke-width="0.398" fill="none" /><path id="1082" transform="matrix(1 0 0 -1 0 841)" d="M189.064 160.824L383.044 160.824" stroke="#000000" stroke-width="0.398" fill="none" /><path id="1098" transform="matrix(1 0 0 -1 0 841)" d="M413.108 160.824L425.282 160.824" stroke="#000000" stroke-width="0.398" fill="none" /><path id="1111" transform="matrix(1 0 0 -1 0 841)" d="M159.176 122.168L203.401 122.168" stroke="#000000" stroke-width="0.398" fill="none" /><path id="1128" transform="matrix(1 0 0 -1 0 841)" d="M233.466 122.168L245.64 122.168" stroke="#000000" stroke-width="0.398" fill="none" /><path id="1137" transform="matrix(1 0 0 -1 0 841)" d="M259.004 130.283L296.174 130.283" stroke="#000000" stroke-width="0.398" fill="none" /><path id="1138" transform="matrix(1 0 0 -1 0 841)" d="M259.204 113.999L259.204 130.283" stroke="#000000" stroke-width="0.398" fill="none" /><path id="1139" transform="matrix(1 0 0 -1 0 841)" d="M295.976 113.999L295.976 130.283" stroke="#000000" stroke-width="0.398" fill="none" /><path id="1140" transform="matrix(1 0 0 -1 0 841)" d="M259.004 113.999L296.174 113.999" stroke="#000000" stroke-width="0.398" fill="none" /><g transform="matrix(0.2 0 0 0.2 249.239 774.845)"><g transform="matrix(1 0 0 1 0 0)"><image x="0" y="0" xlink:href="img_04.png" width="484" height="104" /></g></g></g></g></svg>