<svg xmlns="http://www.w3.org/2000/svg" xmlns:xlink="http://www.w3.org/1999/xlink" id="body_405" preserveAspectRatio="xMinYMin meet" viewBox="0 0 793 1121"><defs><clipPath id="1"><path id="" clip-rule="evenodd" transform="matrix(1 0 0 1 0 0)" d="M0 841L0 -0.8900146L0 -0.8900146L595.276 -0.8900146L595.276 -0.8900146L595.276 841L595.276 841L0 841z" /></clipPath></defs><g transform="matrix(1.333333 0 0 1.333333 0 0)"><g clip-path="url(#1)"><path id="23" transform="matrix(1 0 0 -1 0 841)" d="M85.039 766.564L510.236 766.564" stroke="#000000" stroke-width="0.498" fill="none" /><path id="116" transform="matrix(1 0 0 -1 0 841)" d="M137.508 728.432L251.849 728.432" stroke="#000000" stroke-width="0.398" fill="none" /><path id="131" transform="matrix(1 0 0 -1 0 841)" d="M261.988 728.432L357.518 728.432" stroke="#000000" stroke-width="0.398" fill="none" /><path id="156" transform="matrix(1 0 0 -1 0 841)" d="M367.658 728.432L403.584 728.432" stroke="#000000" stroke-width="0.398" fill="none" /><path id="174" transform="matrix(1 0 0 -1 0 841)" d="M421.531 728.432L456.27 728.432" stroke="#000000" stroke-width="0.398" fill="none" /><path id="178" transform="matrix(1 0 0 -1 0 841)" d="M416.948 742.539L460.853 742.539" stroke="#000000" stroke-width="0.398" fill="none" /><path id="179" transform="matrix(1 0 0 -1 0 841)" d="M417.147 713.887L417.147 742.539" stroke="#000000" stroke-width="0.398" fill="none" /><path id="180" transform="matrix(1 0 0 -1 0 841)" d="M460.654 713.887L460.654 742.539" stroke="#000000" stroke-width="0.398" fill="none" /><path id="181" transform="matrix(1 0 0 -1 0 841)" d="M416.948 713.887L460.853 713.887" stroke="#000000" stroke-width="0.398" fill="none" /><path id="294" transform="matrix(1 0 0 -1 0 841)" d="M209.995 634.365L298.54 634.365" stroke="#000000" stroke-width="0.398" fill="none" /><path id="302" transform="matrix(1 0 0 -1 0 841)" d="M308.68 634.365L343.549 634.365" stroke="#000000" stroke-width="0.398" fill="none" /><path id="317" transform="matrix(1 0 0 -1 0 841)" d="M358.109 634.365L393.546 634.365" stroke="#000000" stroke-width="0.398" fill="none" /><path id="334" transform="matrix(1 0 0 -1 0 841)" d="M137.508 609.209L172.945 609.209" stroke="#000000" stroke-width="0.398" fill="none" /><path id="349" transform="matrix(1 0 0 -1 0 841)" d="M198.028 609.209L243.427 609.209" stroke="#000000" stroke-width="0.398" fill="none" /><path id="368" transform="matrix(1 0 0 -1 0 841)" d="M257.987 609.209L293.772 609.209" stroke="#000000" stroke-width="0.398" fill="none" /><path id="383" transform="matrix(1 0 0 -1 0 841)" d="M169.326 585.931L192.389 585.931" stroke="#000000" stroke-width="0.398" fill="none" /><path id="391" transform="matrix(1 0 0 -1 0 841)" d="M202.529 585.931L238.314 585.931" stroke="#000000" stroke-width="0.398" fill="none" /><path id="404" transform="matrix(1 0 0 -1 0 841)" d="M248.454 585.931L273.36 585.931" stroke="#000000" stroke-width="0.398" fill="none" /><path id="418" transform="matrix(1 0 0 -1 0 841)" d="M286.724 593.488L324.064 593.488" stroke="#000000" stroke-width="0.398" fill="none" /><path id="419" transform="matrix(1 0 0 -1 0 841)" d="M286.924 580.098L286.924 593.488" stroke="#000000" stroke-width="0.398" fill="none" /><path id="420" transform="matrix(1 0 0 -1 0 841)" d="M323.865 580.098L323.865 593.488" stroke="#000000" stroke-width="0.398" fill="none" /><path id="421" transform="matrix(1 0 0 -1 0 841)" d="M286.724 580.098L324.064 580.098" stroke="#000000" stroke-width="0.398" fill="none" /><path id="501" transform="matrix(1 0 0 -1 0 841)" d="M154.594 491.565L171.63 491.565" stroke="#000000" stroke-width="0.398" fill="none" /><path id="509" transform="matrix(1 0 0 -1 0 841)" d="M181.769 491.565L196.713 491.565" stroke="#000000" stroke-width="0.398" fill="none" /><path id="520" transform="matrix(1 0 0 -1 0 841)" d="M214.66 491.565L243.433 491.565" stroke="#000000" stroke-width="0.398" fill="none" /><path id="524" transform="matrix(1 0 0 -1 0 841)" d="M210.077 506.284L248.016 506.284" stroke="#000000" stroke-width="0.398" fill="none" /><path id="525" transform="matrix(1 0 0 -1 0 841)" d="M210.276 477.019L210.276 506.284" stroke="#000000" stroke-width="0.398" fill="none" /><path id="526" transform="matrix(1 0 0 -1 0 841)" d="M247.817 477.019L247.817 506.284" stroke="#000000" stroke-width="0.398" fill="none" /><path id="527" transform="matrix(1 0 0 -1 0 841)" d="M210.077 477.019L248.016 477.019" stroke="#000000" stroke-width="0.398" fill="none" /><path id="1147" transform="matrix(1 0 0 -1 0 841)" d="M168.282 328.425L206.795 328.425" stroke="#000000" stroke-width="0.398" fill="none" /><path id="1397" transform="matrix(1 0 0 -1 0 841)" d="M143.38 183.103L180.898 183.103" stroke="#000000" stroke-width="0.398" fill="none" /><path id="1418" transform="matrix(1 0 0 -1 0 841)" d="M248.663 193.992L305.3 193.992" stroke="#000000" stroke-width="0.398" fill="none" /><path id="1428" transform="matrix(1 0 0 -1 0 841)" d="M195.458 183.103L402.736 183.103" stroke="#000000" stroke-width="0.398" fill="none" /><path id="1433" transform="matrix(1 0 0 -1 0 841)" d="M200.519 170.651L243.121 170.651" stroke="#000000" stroke-width="0.398" fill="none" /><path id="1497" transform="matrix(1 0 0 -1 0 841)" d="M184.844 133.165L278.366 133.165" stroke="#000000" stroke-width="0.398" fill="none" /><path id="1522" transform="matrix(1 0 0 -1 0 841)" d="M291.73 140.667L348.238 140.667" stroke="#000000" stroke-width="0.398" fill="none" /><path id="1523" transform="matrix(1 0 0 -1 0 841)" d="M291.929 127.317L291.929 140.667" stroke="#000000" stroke-width="0.398" fill="none" /><path id="1524" transform="matrix(1 0 0 -1 0 841)" d="M348.038 127.317L348.038 140.667" stroke="#000000" stroke-width="0.398" fill="none" /><path id="1525" transform="matrix(1 0 0 -1 0 841)" d="M291.73 127.317L348.238 127.317" stroke="#000000" stroke-width="0.398" fill="none" /><g transform="matrix(0.2 0 0 0.2 249.239 774.845)"><g transform="matrix(1 0 0 1 0 0)"><image x="0" y="0" xlink:href="img_04.png" width="484" height="104" /></g></g></g></g></svg>