<svg xmlns="http://www.w3.org/2000/svg" xmlns:xlink="http://www.w3.org/1999/xlink" id="body_43" preserveAspectRatio="xMinYMin meet" viewBox="0 0 793 1121"><defs><clipPath id="1"><path id="" clip-rule="evenodd" transform="matrix(1 0 0 1 0 0)" d="M0 841L0 -0.8900146L0 -0.8900146L595.276 -0.8900146L595.276 -0.8900146L595.276 841L595.276 841L0 841z" /></clipPath></defs><g transform="matrix(1.333333 0 0 1.333333 0 0)"><g clip-path="url(#1)"><path id="45" transform="matrix(1 0 0 -1 0 841)" d="M85.039 766.564L510.236 766.564" stroke="#000000" stroke-width="0.498" fill="none" /><path id="380" transform="matrix(1 0 0 -1 0 841)" d="M416.06 671.597L430.233 671.597" stroke="#000000" stroke-width="0.85" fill="none" /><path id="412" transform="matrix(1 0 0 -1 0 841)" d="M237.969 656.653L252.142 656.653" stroke="#000000" stroke-width="0.85" fill="none" /><path id="454" transform="matrix(1 0 0 -1 0 841)" d="M301.172 639.889L329.518 639.889" stroke="#000000" stroke-width="0.398" fill="none" /><path id="484" transform="matrix(1 0 0 -1 0 841)" d="M236.864 624.945L265.21 624.945" stroke="#000000" stroke-width="0.398" fill="none" /><path id="513" transform="matrix(1 0 0 -1 0 841)" d="M207.743 610.001L236.089 610.001" stroke="#000000" stroke-width="0.398" fill="none" /><path id="545" transform="matrix(1 0 0 -1 0 841)" d="M188.615 596.877L202.788 596.877" stroke="#000000" stroke-width="0.85" fill="none" /><g transform="matrix(0.2 0 0 0.2 249.239 774.845)"><g transform="matrix(1 0 0 1 0 0)"><image x="0" y="0" xlink:href="img_04.png" width="484" height="104" /></g></g></g></g></svg>