<svg xmlns="http://www.w3.org/2000/svg" xmlns:xlink="http://www.w3.org/1999/xlink" id="body_47" preserveAspectRatio="xMinYMin meet" viewBox="0 0 793 1121"><defs><clipPath id="1"><path id="" clip-rule="evenodd" transform="matrix(1 0 0 1 0 0)" d="M0 841L0 -0.8900146L0 -0.8900146L595.276 -0.8900146L595.276 -0.8900146L595.276 841L595.276 841L0 841z" /></clipPath></defs><g transform="matrix(1.333333 0 0 1.333333 0 0)"><g clip-path="url(#1)"><path id="45" transform="matrix(1 0 0 -1 0 841)" d="M85.039 766.564L510.236 766.564" stroke="#000000" stroke-width="0.498" fill="none" /><path id="350" transform="matrix(1 0 0 -1 0 841)" d="M112.312 667.478L510.236 667.478L510.236 669.179L112.312 669.179z" stroke="none" fill="#000000" fill-rule="nonzero" /><path id="483" transform="matrix(1 0 0 -1 0 841)" d="M175.864 523.518L207.786 523.518" stroke="#000000" stroke-width="0.398" fill="none" /><path id="492" transform="matrix(1 0 0 -1 0 841)" d="M240.049 523.518L249.058 523.518" stroke="#000000" stroke-width="0.398" fill="none" /><path id="554" transform="matrix(1 0 0 -1 0 841)" d="M252.084 500.993L277.12 500.993" stroke="#000000" stroke-width="0.398" fill="none" /><path id="555" transform="matrix(1 0 0 -1 0 841)" d="M252.283 487.797L252.283 500.992" stroke="#000000" stroke-width="0.398" fill="none" /><path id="556" transform="matrix(1 0 0 -1 0 841)" d="M276.921 487.797L276.921 500.992" stroke="#000000" stroke-width="0.398" fill="none" /><path id="557" transform="matrix(1 0 0 -1 0 841)" d="M252.084 487.797L277.12 487.797" stroke="#000000" stroke-width="0.398" fill="none" /><g transform="matrix(0.2 0 0 0.2 249.239 774.845)"><g transform="matrix(1 0 0 1 0 0)"><image x="0" y="0" xlink:href="img_04.png" width="484" height="104" /></g></g></g></g></svg>