<svg xmlns="http://www.w3.org/2000/svg" xmlns:xlink="http://www.w3.org/1999/xlink" id="body_165" preserveAspectRatio="xMinYMin meet" viewBox="0 0 793 1121"><defs><clipPath id="1"><path id="" clip-rule="evenodd" transform="matrix(1 0 0 1 0 0)" d="M0 841L0 -0.8900146L0 -0.8900146L595.276 -0.8900146L595.276 -0.8900146L595.276 841L595.276 841L0 841z" /></clipPath></defs><g transform="matrix(1.333333 0 0 1.333333 0 0)"><g clip-path="url(#1)"><path id="27" transform="matrix(1 0 0 -1 0 841)" d="M85.039 766.564L510.236 766.564" stroke="#000000" stroke-width="0.498" fill="none" /><path id="28" transform="matrix(1 0 0 -1 0 841)" d="M85.039 756.651L519.349 756.651" stroke="#000000" stroke-width="0.398" fill="none" /><path id="29" transform="matrix(1 0 0 -1 0 841)" d="M85.239 737.523L85.239 756.452" stroke="#000000" stroke-width="0.398" fill="none" /><path id="45" transform="matrix(1 0 0 -1 0 841)" d="M154.285 737.523L154.285 756.452" stroke="#000000" stroke-width="0.398" fill="none" /><path id="56" transform="matrix(1 0 0 -1 0 841)" d="M308.371 737.523L308.371 756.452" stroke="#000000" stroke-width="0.398" fill="none" /><path id="70" transform="matrix(1 0 0 -1 0 841)" d="M519.15 737.523L519.15 756.452" stroke="#000000" stroke-width="0.398" fill="none" /><path id="71" transform="matrix(1 0 0 -1 0 841)" d="M85.039 737.324L519.349 737.324" stroke="#000000" stroke-width="0.398" fill="none" /><path id="72" transform="matrix(1 0 0 -1 0 841)" d="M85.239 670.873L85.239 737.125" stroke="#000000" stroke-width="0.398" fill="none" /><path id="97" transform="matrix(1 0 0 -1 0 841)" d="M154.285 670.873L154.285 737.125" stroke="#000000" stroke-width="0.398" fill="none" /><path id="191" transform="matrix(1 0 0 -1 0 841)" d="M308.371 670.873L308.371 737.125" stroke="#000000" stroke-width="0.398" fill="none" /><path id="529" transform="matrix(1 0 0 -1 0 841)" d="M519.15 670.873L519.15 737.125" stroke="#000000" stroke-width="0.398" fill="none" /><path id="530" transform="matrix(1 0 0 -1 0 841)" d="M85.039 670.674L519.349 670.674" stroke="#000000" stroke-width="0.398" fill="none" /><path id="531" transform="matrix(1 0 0 -1 0 841)" d="M85.239 613.687L85.239 670.474" stroke="#000000" stroke-width="0.398" fill="none" /><path id="550" transform="matrix(1 0 0 -1 0 841)" d="M154.285 613.687L154.285 670.474" stroke="#000000" stroke-width="0.398" fill="none" /><path id="736" transform="matrix(1 0 0 -1 0 841)" d="M308.371 613.687L308.371 670.474" stroke="#000000" stroke-width="0.398" fill="none" /><path id="867" transform="matrix(1 0 0 -1 0 841)" d="M519.15 613.687L519.15 670.474" stroke="#000000" stroke-width="0.398" fill="none" /><path id="868" transform="matrix(1 0 0 -1 0 841)" d="M85.239 604.223L85.239 613.687" stroke="#000000" stroke-width="0.398" fill="none" /><path id="869" transform="matrix(1 0 0 -1 0 841)" d="M154.285 604.223L154.285 613.687" stroke="#000000" stroke-width="0.398" fill="none" /><path id="870" transform="matrix(1 0 0 -1 0 841)" d="M308.371 604.223L308.371 613.687" stroke="#000000" stroke-width="0.398" fill="none" /><path id="871" transform="matrix(1 0 0 -1 0 841)" d="M519.15 604.223L519.15 613.687" stroke="#000000" stroke-width="0.398" fill="none" /><path id="872" transform="matrix(1 0 0 -1 0 841)" d="M85.039 604.024L519.349 604.024" stroke="#000000" stroke-width="0.398" fill="none" /><path id="873" transform="matrix(1 0 0 -1 0 841)" d="M85.239 556.502L85.239 603.825" stroke="#000000" stroke-width="0.398" fill="none" /><path id="899" transform="matrix(1 0 0 -1 0 841)" d="M154.285 556.502L154.285 603.825" stroke="#000000" stroke-width="0.398" fill="none" /><path id="1063" transform="matrix(1 0 0 -1 0 841)" d="M308.371 556.502L308.371 603.825" stroke="#000000" stroke-width="0.398" fill="none" /><path id="1169" transform="matrix(1 0 0 -1 0 841)" d="M519.15 556.502L519.15 603.825" stroke="#000000" stroke-width="0.398" fill="none" /><path id="1170" transform="matrix(1 0 0 -1 0 841)" d="M85.039 556.303L519.349 556.303" stroke="#000000" stroke-width="0.398" fill="none" /><path id="1171" transform="matrix(1 0 0 -1 0 841)" d="M85.239 508.781L85.239 556.104" stroke="#000000" stroke-width="0.398" fill="none" /><path id="1190" transform="matrix(1 0 0 -1 0 841)" d="M154.285 508.781L154.285 556.104" stroke="#000000" stroke-width="0.398" fill="none" /><path id="1352" transform="matrix(1 0 0 -1 0 841)" d="M308.371 508.781L308.371 556.104" stroke="#000000" stroke-width="0.398" fill="none" /><path id="1490" transform="matrix(1 0 0 -1 0 841)" d="M519.15 508.781L519.15 556.104" stroke="#000000" stroke-width="0.398" fill="none" /><path id="1491" transform="matrix(1 0 0 -1 0 841)" d="M85.039 508.582L519.349 508.582" stroke="#000000" stroke-width="0.398" fill="none" /><path id="1492" transform="matrix(1 0 0 -1 0 841)" d="M85.239 461.06L85.239 508.383" stroke="#000000" stroke-width="0.398" fill="none" /><path id="1505" transform="matrix(1 0 0 -1 0 841)" d="M154.285 461.06L154.285 508.383" stroke="#000000" stroke-width="0.398" fill="none" /><path id="1651" transform="matrix(1 0 0 -1 0 841)" d="M308.371 461.06L308.371 508.383" stroke="#000000" stroke-width="0.398" fill="none" /><path id="1806" transform="matrix(1 0 0 -1 0 841)" d="M519.15 461.06L519.15 508.383" stroke="#000000" stroke-width="0.398" fill="none" /><path id="1807" transform="matrix(1 0 0 -1 0 841)" d="M85.039 460.861L519.349 460.861" stroke="#000000" stroke-width="0.398" fill="none" /><path id="1808" transform="matrix(1 0 0 -1 0 841)" d="M85.239 413.339L85.239 460.662" stroke="#000000" stroke-width="0.398" fill="none" /><path id="1817" transform="matrix(1 0 0 -1 0 841)" d="M154.285 413.339L154.285 460.662" stroke="#000000" stroke-width="0.398" fill="none" /><path id="1965" transform="matrix(1 0 0 -1 0 841)" d="M308.371 413.339L308.371 460.662" stroke="#000000" stroke-width="0.398" fill="none" /><path id="2085" transform="matrix(1 0 0 -1 0 841)" d="M519.15 413.339L519.15 460.662" stroke="#000000" stroke-width="0.398" fill="none" /><path id="2086" transform="matrix(1 0 0 -1 0 841)" d="M85.039 413.139L519.349 413.139" stroke="#000000" stroke-width="0.398" fill="none" /><path id="2087" transform="matrix(1 0 0 -1 0 841)" d="M85.239 384.547L85.239 412.941" stroke="#000000" stroke-width="0.398" fill="none" /><path id="2099" transform="matrix(1 0 0 -1 0 841)" d="M154.285 384.547L154.285 412.941" stroke="#000000" stroke-width="0.398" fill="none" /><path id="2161" transform="matrix(1 0 0 -1 0 841)" d="M308.371 384.547L308.371 412.941" stroke="#000000" stroke-width="0.398" fill="none" /><path id="2282" transform="matrix(1 0 0 -1 0 841)" d="M519.15 384.547L519.15 412.941" stroke="#000000" stroke-width="0.398" fill="none" /><path id="2283" transform="matrix(1 0 0 -1 0 841)" d="M85.039 384.347L519.349 384.347" stroke="#000000" stroke-width="0.398" fill="none" /><path id="2284" transform="matrix(1 0 0 -1 0 841)" d="M85.239 336.826L85.239 384.149" stroke="#000000" stroke-width="0.398" fill="none" /><path id="2307" transform="matrix(1 0 0 -1 0 841)" d="M154.285 336.826L154.285 384.149" stroke="#000000" stroke-width="0.398" fill="none" /><path id="2469" transform="matrix(1 0 0 -1 0 841)" d="M308.371 336.826L308.371 384.149" stroke="#000000" stroke-width="0.398" fill="none" /><path id="2732" transform="matrix(1 0 0 -1 0 841)" d="M519.15 336.826L519.15 384.149" stroke="#000000" stroke-width="0.398" fill="none" /><path id="2733" transform="matrix(1 0 0 -1 0 841)" d="M85.039 336.626L519.349 336.626" stroke="#000000" stroke-width="0.398" fill="none" /><path id="2734" transform="matrix(1 0 0 -1 0 841)" d="M85.239 298.569L85.239 336.427" stroke="#000000" stroke-width="0.398" fill="none" /><path id="2759" transform="matrix(1 0 0 -1 0 841)" d="M154.285 298.569L154.285 336.427" stroke="#000000" stroke-width="0.398" fill="none" /><path id="2873" transform="matrix(1 0 0 -1 0 841)" d="M308.371 298.569L308.371 336.427" stroke="#000000" stroke-width="0.398" fill="none" /><path id="2874" transform="matrix(1 0 0 -1 0 841)" d="M519.15 298.569L519.15 336.427" stroke="#000000" stroke-width="0.398" fill="none" /><path id="2875" transform="matrix(1 0 0 -1 0 841)" d="M85.039 298.37L519.349 298.37" stroke="#000000" stroke-width="0.398" fill="none" /><path id="2876" transform="matrix(1 0 0 -1 0 841)" d="M85.239 260.313L85.239 298.171" stroke="#000000" stroke-width="0.398" fill="none" /><path id="2886" transform="matrix(1 0 0 -1 0 841)" d="M154.285 260.313L154.285 298.171" stroke="#000000" stroke-width="0.398" fill="none" /><path id="2972" transform="matrix(1 0 0 -1 0 841)" d="M308.371 260.313L308.371 298.171" stroke="#000000" stroke-width="0.398" fill="none" /><path id="3177" transform="matrix(1 0 0 -1 0 841)" d="M519.15 260.313L519.15 298.171" stroke="#000000" stroke-width="0.398" fill="none" /><path id="3178" transform="matrix(1 0 0 -1 0 841)" d="M85.039 260.113L519.349 260.113" stroke="#000000" stroke-width="0.398" fill="none" /><path id="3179" transform="matrix(1 0 0 -1 0 841)" d="M85.239 203.127L85.239 259.914" stroke="#000000" stroke-width="0.398" fill="none" /><path id="3208" transform="matrix(1 0 0 -1 0 841)" d="M154.285 203.127L154.285 259.914" stroke="#000000" stroke-width="0.398" fill="none" /><path id="3409" transform="matrix(1 0 0 -1 0 841)" d="M308.371 203.127L308.371 259.914" stroke="#000000" stroke-width="0.398" fill="none" /><path id="3442" transform="matrix(1 0 0 -1 0 841)" d="M519.15 203.127L519.15 259.914" stroke="#000000" stroke-width="0.398" fill="none" /><path id="3443" transform="matrix(1 0 0 -1 0 841)" d="M85.039 202.928L519.349 202.928" stroke="#000000" stroke-width="0.398" fill="none" /></g></g></svg>