<svg xmlns="http://www.w3.org/2000/svg" xmlns:xlink="http://www.w3.org/1999/xlink" id="body_321" preserveAspectRatio="xMinYMin meet" viewBox="0 0 793 1121"><defs><clipPath id="1"><path id="" clip-rule="evenodd" transform="matrix(1 0 0 1 0 0)" d="M0 841L0 -0.8900146L0 -0.8900146L595.276 -0.8900146L595.276 -0.8900146L595.276 841L595.276 841L0 841z" /></clipPath></defs><g transform="matrix(1.333333 0 0 1.333333 0 0)"><g clip-path="url(#1)"><path id="20" transform="matrix(1 0 0 -1 0 841)" d="M85.039 766.564L510.236 766.564" stroke="#000000" stroke-width="0.498" fill="none" /><path id="21" transform="matrix(1 0 0 -1 0 841)" d="M85.039 646.8199L85.039 756.8523L85.039 756.8523L510.2413 756.8523L510.2413 756.8523L510.2413 646.8199C 510.2413 644.4716 508.3377 642.568 505.9893 642.568L505.9893 642.568L89.29099 642.568C 86.94264 642.568 85.039 644.4716 85.039 646.8199z" stroke="none" fill="#BFBFFF" fill-rule="nonzero" /><path id="22" transform="matrix(1 0 0 -1 0 841)" d="M86.45631 646.8199L86.45631 756.8523L86.45631 756.8523L508.824 756.8523L508.824 756.8523L508.824 646.8199C 508.824 645.2544 507.5549 643.9853 505.9893 643.9853L505.9893 643.9853L89.29099 643.9853C 87.72543 643.9853 86.45631 645.2544 86.45631 646.8199z" stroke="none" fill="#E6E6FF" fill-rule="nonzero" /></g></g></svg>