<svg xmlns="http://www.w3.org/2000/svg" xmlns:xlink="http://www.w3.org/1999/xlink" id="body_194" preserveAspectRatio="xMinYMin meet" viewBox="0 0 793 1121"><defs><clipPath id="1"><path id="" clip-rule="evenodd" transform="matrix(1 0 0 1 0 0)" d="M0 841L0 -0.8900146L0 -0.8900146L595.276 -0.8900146L595.276 -0.8900146L595.276 841L595.276 841L0 841z" /></clipPath></defs><g transform="matrix(1.333333 0 0 1.333333 0 0)"><g clip-path="url(#1)"><path id="25" transform="matrix(1 0 0 -1 0 841)" d="M85.039 766.564L510.236 766.564" stroke="#000000" stroke-width="0.498" fill="none" /><path id="26" transform="matrix(1 0 0 -1 0 841)" d="M85.039 100.692L85.039 752.607C 85.039 754.9554 86.94264 756.859 89.29099 756.859L89.29099 756.859L505.9893 756.859C 508.3377 756.859 510.2413 754.9554 510.2413 752.607L510.2413 752.607L510.2413 100.692z" stroke="none" fill="#BFBFFF" fill-rule="nonzero" /><path id="27" transform="matrix(1 0 0 -1 0 841)" d="M86.45631 100.692L86.45631 738.5969L508.824 738.5969L508.824 100.692z" stroke="none" fill="#E6E6FF" fill-rule="nonzero" /><path id="171" transform="matrix(1 0 0 -1 0 841)" d="M275.653 638.155L332.346 638.155" stroke="#000000" stroke-width="0.299" fill="none" /><path id="631" transform="matrix(1 0 0 -1 0 841)" d="M263.937 350.235L320.63 350.235" stroke="#000000" stroke-width="0.299" fill="none" /><path id="732" transform="matrix(1 0 0 -1 0 841)" d="M331.618 265.553L388.311 265.553" stroke="#000000" stroke-width="0.299" fill="none" /><path id="827" transform="matrix(1 0 0 -1 0 841)" d="M273.635 163.934L330.328 163.934" stroke="#000000" stroke-width="0.299" fill="none" /></g></g></svg>