<svg xmlns="http://www.w3.org/2000/svg" xmlns:xlink="http://www.w3.org/1999/xlink" id="body_201" preserveAspectRatio="xMinYMin meet" viewBox="0 0 793 1121"><defs><clipPath id="1"><path id="" clip-rule="evenodd" transform="matrix(1 0 0 1 0 0)" d="M0 841L0 -0.8900146L0 -0.8900146L595.276 -0.8900146L595.276 -0.8900146L595.276 841L595.276 841L0 841z" /></clipPath></defs><g transform="matrix(1.333333 0 0 1.333333 0 0)"><g clip-path="url(#1)"><path id="15" transform="matrix(1 0 0 -1 0 841)" d="M85.039 766.564L510.236 766.564" stroke="#000000" stroke-width="0.498" fill="none" /><path id="1366" transform="matrix(1 0 0 -1 0 841)" d="M355.373 144.095L400.274 144.095" stroke="#000000" stroke-width="0.398" fill="none" /><path id="1367" transform="matrix(1 0 0 -1 0 841)" d="M355.573 129.968L355.573 144.095" stroke="#000000" stroke-width="0.398" fill="none" /><path id="1368" transform="matrix(1 0 0 -1 0 841)" d="M400.075 129.968L400.075 144.095" stroke="#000000" stroke-width="0.398" fill="none" /><path id="1369" transform="matrix(1 0 0 -1 0 841)" d="M355.373 129.968L400.274 129.968" stroke="#000000" stroke-width="0.398" fill="none" /></g></g></svg>