<svg xmlns="http://www.w3.org/2000/svg" xmlns:xlink="http://www.w3.org/1999/xlink" id="body_226" preserveAspectRatio="xMinYMin meet" viewBox="0 0 793 1121"><defs><clipPath id="1"><path id="" clip-rule="evenodd" transform="matrix(1 0 0 1 0 0)" d="M0 841L0 -0.8900146L0 -0.8900146L595.276 -0.8900146L595.276 -0.8900146L595.276 841L595.276 841L0 841z" /></clipPath></defs><g transform="matrix(1.333333 0 0 1.333333 0 0)"><g clip-path="url(#1)"><path id="28" transform="matrix(1 0 0 -1 0 841)" d="M85.039 766.564L510.236 766.564" stroke="#000000" stroke-width="0.498" fill="none" /><path id="558" transform="matrix(1 0 0 -1 0 841)" d="M113.169 609.162L200.549 609.162" stroke="#000000" stroke-width="0.436" fill="none" /><path id="602" transform="matrix(1 0 0 -1 0 841)" d="M266.867 609.162L365.156 609.162" stroke="#000000" stroke-width="0.436" fill="none" /><path id="768" transform="matrix(1 0 0 -1 0 841)" d="M434.9808 479.373L349.9404 479.373L349.9404 479.373L349.9404 394.3325L349.9404 394.3325L434.9808 394.3325z" stroke="#000000" stroke-width="0.3985" fill="none" /><path id="769" transform="matrix(1 0 0 -1 0 841)" d="M434.9808 479.373L467.7209 512.113L467.7209 512.113L467.7209 427.0726L467.7209 427.0726L434.9808 394.3325z" stroke="#000000" stroke-width="0.3985" fill="none" /><path id="770" transform="matrix(1 0 0 -1 0 841)" d="M434.9808 479.373L349.9404 479.373L349.9404 479.373L382.6805 512.113L382.6805 512.113L467.7209 512.113z" stroke="#000000" stroke-width="0.3985" fill="none" /><path id="798" transform="matrix(1 0 0 -1 0 841)" d="M159.053 505.8L182.495 505.8" stroke="#000000" stroke-width="0.398" fill="none" /><path id="847" transform="matrix(1 0 0 -1 0 841)" d="M215.545 451.744L265.388 451.744" stroke="#000000" stroke-width="0.398" fill="none" /><g transform="matrix(0.2 0 0 0.2 164.54 543.327)"><g transform="matrix(1 0 0 1 0 0)"><image x="0" y="0" xlink:href="img_322.png" width="1331" height="580" /></g></g></g></g></svg>