<svg xmlns="http://www.w3.org/2000/svg" xmlns:xlink="http://www.w3.org/1999/xlink" id="body_131" preserveAspectRatio="xMinYMin meet" viewBox="0 0 793 1121"><defs><clipPath id="1"><path id="" clip-rule="evenodd" transform="matrix(1 0 0 1 0 0)" d="M0 841L0 -0.8900146L0 -0.8900146L595.276 -0.8900146L595.276 -0.8900146L595.276 841L595.276 841L0 841z" /></clipPath></defs><g transform="matrix(1.333333 0 0 1.333333 0 0)"><g clip-path="url(#1)"><path id="28" transform="matrix(1 0 0 -1 0 841)" d="M85.039 766.564L510.236 766.564" stroke="#000000" stroke-width="0.498" fill="none" /><path id="966" transform="matrix(1 0 0 -1 0 841)" d="M224.283 417.721L260.04 417.721" stroke="#000000" stroke-width="0.436" fill="none" /><path id="982" transform="matrix(1 0 0 -1 0 841)" d="M85.039 172.631L85.039 394.6236C 85.039 396.9719 86.94264 398.8755 89.29099 398.8755L89.29099 398.8755L505.9893 398.8755C 508.3377 398.8755 510.2413 396.9719 510.2413 394.6236L510.2413 394.6236L510.2413 172.631C 510.2413 170.2826 508.3377 168.379 505.9893 168.379L505.9893 168.379L89.29099 168.379C 86.94264 168.379 85.039 170.2826 85.039 172.631z" stroke="none" fill="#BFBFFF" fill-rule="nonzero" /><path id="983" transform="matrix(1 0 0 -1 0 841)" d="M86.45631 172.631L86.45631 382.8662L86.45631 382.8662L508.824 382.8662L508.824 382.8662L508.824 172.631C 508.824 171.0654 507.5549 169.7963 505.9893 169.7963L505.9893 169.7963L89.29099 169.7963C 87.72543 169.7963 86.45631 171.0654 86.45631 172.631z" stroke="none" fill="#E6E6FF" fill-rule="nonzero" /></g></g></svg>