<svg xmlns="http://www.w3.org/2000/svg" xmlns:xlink="http://www.w3.org/1999/xlink" id="body_204" preserveAspectRatio="xMinYMin meet" viewBox="0 0 793 1121"><defs><clipPath id="1"><path id="" clip-rule="evenodd" transform="matrix(1 0 0 1 0 0)" d="M0 841L0 -0.8900146L0 -0.8900146L595.276 -0.8900146L595.276 -0.8900146L595.276 841L595.276 841L0 841z" /></clipPath></defs><g transform="matrix(1.333333 0 0 1.333333 0 0)"><g clip-path="url(#1)"><path id="29" transform="matrix(1 0 0 -1 0 841)" d="M85.039 766.564L510.236 766.564" stroke="#000000" stroke-width="0.498" fill="none" /><path id="30" transform="matrix(1 0 0 -1 0 841)" d="M396.8539 671.6124C 396.8539 718.5796 358.7806 756.6529 311.8135 756.6529C 264.8463 756.6529 226.773 718.5796 226.773 671.6124C 226.773 624.6453 264.8463 586.572 311.8135 586.572C 358.7806 586.572 396.8539 624.6453 396.8539 671.6124z" stroke="#000000" stroke-width="0.3985" fill="#F2F2F2" fill-rule="nonzero" /><path id="31" transform="matrix(1 0 0 -1 0 841)" d="M226.773 671.6124L396.8539 671.6124" stroke="#000000" stroke-width="1.19553" fill="none" /><path id="88" transform="matrix(1 0 0 -1 0 841)" d="M266.4584 600.7454L311.8135 671.6124" stroke="#000000" stroke-width="1.19553" fill="none" /><path id="89" transform="matrix(1 0 0 -1 0 841)" d="M357.1685 600.7454L311.8135 671.6124" stroke="#000000" stroke-width="1.19553" fill="none" /><path id="90" transform="matrix(1 0 0 -1 0 841)" d="M215.119 671.6124C 215.119 680.8317 207.6455 688.3052 198.4262 688.3052C 189.207 688.3052 181.7335 680.8317 181.7335 671.6124C 181.7335 662.3932 189.207 654.9197 198.4262 654.9197C 207.6455 654.9197 215.119 662.3932 215.119 671.6124z" stroke="#000000" stroke-width="1.39478" fill="#FFCCCC" fill-rule="nonzero" /><path id="91" transform="matrix(1 0 0 -1 0 841)" d="M215.119 671.6124C 215.119 680.8317 207.6455 688.3052 198.4262 688.3052C 189.207 688.3052 181.7335 680.8317 181.7335 671.6124C 181.7335 662.3932 189.207 654.9197 198.4262 654.9197C 207.6455 654.9197 215.119 662.3932 215.119 671.6124z" stroke="#FFFFFF" stroke-width="0.59776" fill="none" /><path id="92" transform="matrix(1 0 0 -1 0 841)" d="M181.9327 671.6124L214.9197 671.6124" stroke="#000000" stroke-width="0.3985" fill="none" /><path id="95" transform="matrix(1 0 0 -1 0 841)" d="M268.8398 580.9028C 268.8398 591.6113 260.1591 600.2919 249.4506 600.2919C 238.7421 600.2919 230.0614 591.6113 230.0614 580.9028C 230.0614 570.1943 238.7421 561.5135 249.4506 561.5135C 260.1591 561.5135 268.8398 570.1943 268.8398 580.9028z" stroke="#000000" stroke-width="1.39478" fill="#FFCCCC" fill-rule="nonzero" /><path id="96" transform="matrix(1 0 0 -1 0 841)" d="M268.8398 580.9028C 268.8398 591.6113 260.1591 600.2919 249.4506 600.2919C 238.7421 600.2919 230.0614 591.6113 230.0614 580.9028C 230.0614 570.1943 238.7421 561.5135 249.4506 561.5135C 260.1591 561.5135 268.8398 570.1943 268.8398 580.9028z" stroke="#FFFFFF" stroke-width="0.59776" fill="none" /><path id="97" transform="matrix(1 0 0 -1 0 841)" d="M230.2606 580.9028L268.6405 580.9028" stroke="#000000" stroke-width="0.3985" fill="none" /><path id="107" transform="matrix(1 0 0 -1 0 841)" d="M387.8963 580.9028C 387.8963 591.6113 379.2156 600.2919 368.5071 600.2919C 357.7986 600.2919 349.1179 591.6113 349.1179 580.9028C 349.1179 570.1943 357.7986 561.5135 368.5071 561.5135C 379.2156 561.5135 387.8963 570.1943 387.8963 580.9028z" stroke="#000000" stroke-width="1.39478" fill="#FFCCCC" fill-rule="nonzero" /><path id="108" transform="matrix(1 0 0 -1 0 841)" d="M387.8963 580.9028C 387.8963 591.6113 379.2156 600.2919 368.5071 600.2919C 357.7986 600.2919 349.1179 591.6113 349.1179 580.9028C 349.1179 570.1943 357.7986 561.5135 368.5071 561.5135C 379.2156 561.5135 387.8963 570.1943 387.8963 580.9028z" stroke="#FFFFFF" stroke-width="0.59776" fill="none" /><path id="109" transform="matrix(1 0 0 -1 0 841)" d="M349.3171 580.9028L387.6971 580.9028" stroke="#000000" stroke-width="0.3985" fill="none" /><path id="217" transform="matrix(1 0 0 -1 0 841)" d="M245.578 462.771L258.909 462.771" stroke="#000000" stroke-width="0.436" fill="none" /><path id="229" transform="matrix(1 0 0 -1 0 841)" d="M373.273 476.734L389.593 476.734" stroke="#000000" stroke-width="0.436" fill="none" /><path id="233" transform="matrix(1 0 0 -1 0 841)" d="M281.137 462.771L447.234 462.771" stroke="#000000" stroke-width="0.436" fill="none" /><path id="357" transform="matrix(1 0 0 -1 0 841)" d="M395.963 410.939L412.283 410.939" stroke="#000000" stroke-width="0.436" fill="none" /><path id="361" transform="matrix(1 0 0 -1 0 841)" d="M323.964 396.976L449.788 396.976" stroke="#000000" stroke-width="0.436" fill="none" /><path id="378" transform="matrix(1 0 0 -1 0 841)" d="M395.424 385.631L408.755 385.631" stroke="#000000" stroke-width="0.436" fill="none" /><path id="689" transform="matrix(1 0 0 -1 0 841)" d="M86.235 202.469L102.555 202.469" stroke="#000000" stroke-width="0.436" fill="none" /><path id="704" transform="matrix(1 0 0 -1 0 841)" d="M173.849 202.469L187.18 202.469" stroke="#000000" stroke-width="0.436" fill="none" /><path id="720" transform="matrix(1 0 0 -1 0 841)" d="M260.205 202.469L276.525 202.469" stroke="#000000" stroke-width="0.436" fill="none" /><path id="724" transform="matrix(1 0 0 -1 0 841)" d="M229.57 217.826L281.107 217.826" stroke="#000000" stroke-width="0.398" fill="none" /><path id="725" transform="matrix(1 0 0 -1 0 841)" d="M229.77 186.845L229.77 217.826" stroke="#000000" stroke-width="0.398" fill="none" /><path id="726" transform="matrix(1 0 0 -1 0 841)" d="M280.909 186.845L280.909 217.826" stroke="#000000" stroke-width="0.398" fill="none" /><path id="727" transform="matrix(1 0 0 -1 0 841)" d="M229.57 186.845L281.107 186.845" stroke="#000000" stroke-width="0.398" fill="none" /><path id="855" transform="matrix(1 0 0 -1 0 841)" d="M152.62 105.879L199.269 105.879" stroke="#000000" stroke-width="0.436" fill="none" /><path id="900" transform="matrix(1 0 0 -1 0 841)" d="M321.467 113.851L418.264 113.851" stroke="#000000" stroke-width="0.398" fill="none" /><path id="901" transform="matrix(1 0 0 -1 0 841)" d="M321.666 97.848L321.666 113.851" stroke="#000000" stroke-width="0.398" fill="none" /><path id="902" transform="matrix(1 0 0 -1 0 841)" d="M418.064 97.848L418.064 113.851" stroke="#000000" stroke-width="0.398" fill="none" /><path id="903" transform="matrix(1 0 0 -1 0 841)" d="M321.467 97.848L418.264 97.848" stroke="#000000" stroke-width="0.398" fill="none" /></g></g></svg>