<svg xmlns="http://www.w3.org/2000/svg" xmlns:xlink="http://www.w3.org/1999/xlink" id="body_202" preserveAspectRatio="xMinYMin meet" viewBox="0 0 793 1121"><defs><clipPath id="1"><path id="" clip-rule="evenodd" transform="matrix(1 0 0 1 0 0)" d="M0 841L0 -0.8900146L0 -0.8900146L595.276 -0.8900146L595.276 -0.8900146L595.276 841L595.276 841L0 841z" /></clipPath></defs><g transform="matrix(1.333333 0 0 1.333333 0 0)"><g clip-path="url(#1)"><path id="29" transform="matrix(1 0 0 -1 0 841)" d="M85.039 766.564L510.236 766.564" stroke="#000000" stroke-width="0.498" fill="none" /><path id="30" transform="matrix(1 0 0 -1 0 841)" d="M85.039 630.332L85.039 752.6C 85.039 754.9483 86.94264 756.8519 89.29099 756.8519L89.29099 756.8519L505.9893 756.8519C 508.3377 756.8519 510.2413 754.9483 510.2413 752.6L510.2413 752.6L510.2413 630.332C 510.2413 627.9836 508.3377 626.08 505.9893 626.08L505.9893 626.08L89.29099 626.08C 86.94264 626.08 85.039 627.9836 85.039 630.332z" stroke="none" fill="#BFBFFF" fill-rule="nonzero" /><path id="31" transform="matrix(1 0 0 -1 0 841)" d="M86.45631 630.332L86.45631 740.8426L86.45631 740.8426L508.824 740.8426L508.824 740.8426L508.824 630.332C 508.824 628.7664 507.5549 627.4973 505.9893 627.4973L505.9893 627.4973L89.29099 627.4973C 87.72543 627.4973 86.45631 628.7664 86.45631 630.332z" stroke="none" fill="#E6E6FF" fill-rule="nonzero" /><path id="582" transform="matrix(1 0 0 -1 0 841)" d="M399.948 513.362L424.991 513.362L424.991 525.635L399.948 525.635z" stroke="none" fill="#FFF100" fill-rule="nonzero" /><path id="588" transform="matrix(1 0 0 -1 0 841)" d="M425.233 513.362L428.205 513.362L428.205 525.635L425.233 525.635z" stroke="none" fill="#FFF100" fill-rule="nonzero" /><path id="589" transform="matrix(1 0 0 -1 0 841)" d="M427.956 513.362L448.461 513.362L448.461 525.635L427.956 525.635z" stroke="none" fill="#FFF100" fill-rule="nonzero" /><path id="594" transform="matrix(1 0 0 -1 0 841)" d="M448.612 513.362L451.584 513.362L451.584 525.635L448.612 525.635z" stroke="none" fill="#FFF100" fill-rule="nonzero" /><path id="595" transform="matrix(1 0 0 -1 0 841)" d="M451.336 513.362L467.587 513.362L467.587 525.635L451.336 525.635z" stroke="none" fill="#FFF100" fill-rule="nonzero" /><path id="599" transform="matrix(1 0 0 -1 0 841)" d="M467.652 513.362L470.624 513.362L470.624 525.635L467.652 525.635z" stroke="none" fill="#FFF100" fill-rule="nonzero" /><path id="600" transform="matrix(1 0 0 -1 0 841)" d="M470.376 513.362L490.27 513.362L490.27 525.635L470.376 525.635z" stroke="none" fill="#FFF100" fill-rule="nonzero" /><path id="604" transform="matrix(1 0 0 -1 0 841)" d="M490.409 513.362L493.381 513.362L493.381 525.635L490.409 525.635z" stroke="none" fill="#FFF100" fill-rule="nonzero" /><path id="605" transform="matrix(1 0 0 -1 0 841)" d="M493.132 513.362L506.95 513.362L506.95 525.635L493.132 525.635z" stroke="none" fill="#FFF100" fill-rule="nonzero" /><path id="609" transform="matrix(1 0 0 -1 0 841)" d="M112.063 496.425L127.714 496.425L127.714 508.698L112.063 508.698z" stroke="none" fill="#FFF100" fill-rule="nonzero" /><path id="613" transform="matrix(1 0 0 -1 0 841)" d="M127.216 496.425L143.914 496.425L143.914 508.698L127.216 508.698z" stroke="none" fill="#FFF100" fill-rule="nonzero" /><path id="617" transform="matrix(1 0 0 -1 0 841)" d="M143.416 496.425L170.281 496.425L170.281 508.698L143.416 508.698z" stroke="none" fill="#FFF100" fill-rule="nonzero" /><path id="794" transform="matrix(1 0 0 -1 0 841)" d="M196.108 416.667L242.757 416.667" stroke="#000000" stroke-width="0.436" fill="none" /><path id="907" transform="matrix(1 0 0 -1 0 841)" d="M286.421 371.148L299.752 371.148" stroke="#000000" stroke-width="0.436" fill="none" /><path id="939" transform="matrix(1 0 0 -1 0 841)" d="M289.716 350.423L303.047 350.423" stroke="#000000" stroke-width="0.436" fill="none" /><path id="970" transform="matrix(1 0 0 -1 0 841)" d="M285.482 329.698L298.813 329.698" stroke="#000000" stroke-width="0.436" fill="none" /><path id="1003" transform="matrix(1 0 0 -1 0 841)" d="M297.33 308.973L310.661 308.973" stroke="#000000" stroke-width="0.436" fill="none" /><path id="1034" transform="matrix(1 0 0 -1 0 841)" d="M286.694 288.248L300.025 288.248" stroke="#000000" stroke-width="0.436" fill="none" /><path id="1069" transform="matrix(1 0 0 -1 0 841)" d="M305.807 267.523L319.138 267.523" stroke="#000000" stroke-width="0.436" fill="none" /></g></g></svg>