<svg xmlns="http://www.w3.org/2000/svg" xmlns:xlink="http://www.w3.org/1999/xlink" id="body_77" preserveAspectRatio="xMinYMin meet" viewBox="0 0 793 1121"><defs><clipPath id="1"><path id="" clip-rule="evenodd" transform="matrix(1 0 0 1 0 0)" d="M0 841L0 -0.8900146L0 -0.8900146L595.276 -0.8900146L595.276 -0.8900146L595.276 841L595.276 841L0 841z" /></clipPath></defs><g transform="matrix(1.333333 0 0 1.333333 0 0)"><g clip-path="url(#1)"><path id="24" transform="matrix(1 0 0 -1 0 841)" d="M85.039 766.564L510.236 766.564" stroke="#000000" stroke-width="0.498" fill="none" /><path id="83" transform="matrix(1 0 0 -1 0 841)" d="M112.063 663.575L129.525 663.575L129.525 675.848L112.063 675.848z" stroke="none" fill="#FFF100" fill-rule="nonzero" /><path id="87" transform="matrix(1 0 0 -1 0 841)" d="M129.14 663.575L131.862 663.575L131.862 675.848L129.14 675.848z" stroke="none" fill="#FFF100" fill-rule="nonzero" /><path id="88" transform="matrix(1 0 0 -1 0 841)" d="M131.613 663.575L158.773 663.575L158.773 675.848L131.613 675.848z" stroke="none" fill="#FFF100" fill-rule="nonzero" /><path id="94" transform="matrix(1 0 0 -1 0 841)" d="M158.31 663.575L161.032 663.575L161.032 675.848L158.31 675.848z" stroke="none" fill="#FFF100" fill-rule="nonzero" /><path id="95" transform="matrix(1 0 0 -1 0 841)" d="M160.782 663.575L168.556 663.575L168.556 675.848L160.782 675.848z" stroke="none" fill="#FFF100" fill-rule="nonzero" /><path id="98" transform="matrix(1 0 0 -1 0 841)" d="M168.249 663.575L170.971 663.575L170.971 675.848L168.249 675.848z" stroke="none" fill="#FFF100" fill-rule="nonzero" /><path id="99" transform="matrix(1 0 0 -1 0 841)" d="M170.722 663.575L186.973 663.575L186.973 675.848L170.722 675.848z" stroke="none" fill="#FFF100" fill-rule="nonzero" /><path id="103" transform="matrix(1 0 0 -1 0 841)" d="M186.349 663.575L199.578 663.575L199.578 675.848L186.349 675.848z" stroke="none" fill="#FFF100" fill-rule="nonzero" /><path id="107" transform="matrix(1 0 0 -1 0 841)" d="M198.977 663.575L218.249 663.575L218.249 675.848L198.977 675.848z" stroke="none" fill="#FFF100" fill-rule="nonzero" /><path id="112" transform="matrix(1 0 0 -1 0 841)" d="M217.851 663.575L220.573 663.575L220.573 675.848L217.851 675.848z" stroke="none" fill="#FFF100" fill-rule="nonzero" /><path id="113" transform="matrix(1 0 0 -1 0 841)" d="M220.323 663.575L229.908 663.575L229.908 675.848L220.323 675.848z" stroke="none" fill="#FFF100" fill-rule="nonzero" /><path id="116" transform="matrix(1 0 0 -1 0 841)" d="M229.587 663.575L232.309 663.575L232.309 675.848L229.587 675.848z" stroke="none" fill="#FFF100" fill-rule="nonzero" /><path id="117" transform="matrix(1 0 0 -1 0 841)" d="M232.059 663.575L238.012 663.575L238.012 675.848L232.059 675.848z" stroke="none" fill="#FFF100" fill-rule="nonzero" /><path id="119" transform="matrix(1 0 0 -1 0 841)" d="M237.719 663.575L240.441 663.575L240.441 675.848L237.719 675.848z" stroke="none" fill="#FFF100" fill-rule="nonzero" /><path id="120" transform="matrix(1 0 0 -1 0 841)" d="M240.192 663.575L249.777 663.575L249.777 675.848L240.192 675.848z" stroke="none" fill="#FFF100" fill-rule="nonzero" /><path id="123" transform="matrix(1 0 0 -1 0 841)" d="M249.455 663.575L252.177 663.575L252.177 675.848L249.455 675.848z" stroke="none" fill="#FFF100" fill-rule="nonzero" /><path id="124" transform="matrix(1 0 0 -1 0 841)" d="M251.928 663.575L277.877 663.575L277.877 675.848L251.928 675.848z" stroke="none" fill="#FFF100" fill-rule="nonzero" /><path id="129" transform="matrix(1 0 0 -1 0 841)" d="M277.424 663.575L280.146 663.575L280.146 675.848L277.424 675.848z" stroke="none" fill="#FFF100" fill-rule="nonzero" /><path id="130" transform="matrix(1 0 0 -1 0 841)" d="M279.897 663.575L296.148 663.575L296.148 675.848L279.897 675.848z" stroke="none" fill="#FFF100" fill-rule="nonzero" /><path id="134" transform="matrix(1 0 0 -1 0 841)" d="M295.773 663.575L298.495 663.575L298.495 675.848L295.773 675.848z" stroke="none" fill="#FFF100" fill-rule="nonzero" /><path id="135" transform="matrix(1 0 0 -1 0 841)" d="M298.245 663.575L303.587 663.575L303.587 675.848L298.245 675.848z" stroke="none" fill="#FFF100" fill-rule="nonzero" /><path id="137" transform="matrix(1 0 0 -1 0 841)" d="M303.299 663.575L306.021 663.575L306.021 675.848L303.299 675.848z" stroke="none" fill="#FFF100" fill-rule="nonzero" /><path id="138" transform="matrix(1 0 0 -1 0 841)" d="M305.772 663.575L323.234 663.575L323.234 675.848L305.772 675.848z" stroke="none" fill="#FFF100" fill-rule="nonzero" /><path id="143" transform="matrix(1 0 0 -1 0 841)" d="M322.848 663.575L325.57 663.575L325.57 675.848L322.848 675.848z" stroke="none" fill="#FFF100" fill-rule="nonzero" /><path id="144" transform="matrix(1 0 0 -1 0 841)" d="M325.321 663.575L334.906 663.575L334.906 675.848L325.321 675.848z" stroke="none" fill="#FFF100" fill-rule="nonzero" /><path id="147" transform="matrix(1 0 0 -1 0 841)" d="M334.584 663.575L337.306 663.575L337.306 675.848L334.584 675.848z" stroke="none" fill="#FFF100" fill-rule="nonzero" /><path id="148" transform="matrix(1 0 0 -1 0 841)" d="M337.057 663.575L350.886 663.575L350.886 675.848L337.057 675.848z" stroke="none" fill="#FFF100" fill-rule="nonzero" /><path id="152" transform="matrix(1 0 0 -1 0 841)" d="M350.53 663.575L353.252 663.575L353.252 675.848L350.53 675.848z" stroke="none" fill="#FFF100" fill-rule="nonzero" /><path id="153" transform="matrix(1 0 0 -1 0 841)" d="M353.003 663.575L380.163 663.575L380.163 675.848L353.003 675.848z" stroke="none" fill="#FFF100" fill-rule="nonzero" /><path id="159" transform="matrix(1 0 0 -1 0 841)" d="M379.7 663.575L382.422 663.575L382.422 675.848L379.7 675.848z" stroke="none" fill="#FFF100" fill-rule="nonzero" /><path id="160" transform="matrix(1 0 0 -1 0 841)" d="M382.173 663.575L397.813 663.575L397.813 675.848L382.173 675.848z" stroke="none" fill="#FFF100" fill-rule="nonzero" /><path id="164" transform="matrix(1 0 0 -1 0 841)" d="M397.442 663.575L400.164 663.575L400.164 675.848L397.442 675.848z" stroke="none" fill="#FFF100" fill-rule="nonzero" /><path id="165" transform="matrix(1 0 0 -1 0 841)" d="M399.915 663.575L410.711 663.575L410.711 675.848L399.915 675.848z" stroke="none" fill="#FFF100" fill-rule="nonzero" /><path id="168" transform="matrix(1 0 0 -1 0 841)" d="M410.38 663.575L413.102 663.575L413.102 675.848L410.38 675.848z" stroke="none" fill="#FFF100" fill-rule="nonzero" /><path id="169" transform="matrix(1 0 0 -1 0 841)" d="M412.852 663.575L423.485 663.575L423.485 675.848L412.852 675.848z" stroke="none" fill="#FFF100" fill-rule="nonzero" /><path id="172" transform="matrix(1 0 0 -1 0 841)" d="M422.904 663.575L456.118 663.575L456.118 675.848L422.904 675.848z" stroke="none" fill="#FFF100" fill-rule="nonzero" /><path id="180" transform="matrix(1 0 0 -1 0 841)" d="M455.608 663.575L458.33 663.575L458.33 675.848L455.608 675.848z" stroke="none" fill="#FFF100" fill-rule="nonzero" /><path id="181" transform="matrix(1 0 0 -1 0 841)" d="M458.08 663.575L467.665 663.575L467.665 675.848L458.08 675.848z" stroke="none" fill="#FFF100" fill-rule="nonzero" /><path id="184" transform="matrix(1 0 0 -1 0 841)" d="M467.344 663.575L470.066 663.575L470.066 675.848L467.344 675.848z" stroke="none" fill="#FFF100" fill-rule="nonzero" /><path id="185" transform="matrix(1 0 0 -1 0 841)" d="M469.816 663.575L475.158 663.575L475.158 675.848L469.816 675.848z" stroke="none" fill="#FFF100" fill-rule="nonzero" /><path id="187" transform="matrix(1 0 0 -1 0 841)" d="M474.87 663.575L477.592 663.575L477.592 675.848L474.87 675.848z" stroke="none" fill="#FFF100" fill-rule="nonzero" /><path id="188" transform="matrix(1 0 0 -1 0 841)" d="M477.343 663.575L491.772 663.575L491.772 675.848L477.343 675.848z" stroke="none" fill="#FFF100" fill-rule="nonzero" /><path id="192" transform="matrix(1 0 0 -1 0 841)" d="M491.162 663.575L512.562 663.575L512.562 675.848L491.162 675.848z" stroke="none" fill="#FFF100" fill-rule="nonzero" /><path id="365" transform="matrix(1 0 0 -1 0 841)" d="M112.063 595.829L129.525 595.829L129.525 608.102L112.063 608.102z" stroke="none" fill="#FFF100" fill-rule="nonzero" /><path id="369" transform="matrix(1 0 0 -1 0 841)" d="M129.276 595.829L132.003 595.829L132.003 608.102L129.276 608.102z" stroke="none" fill="#FFF100" fill-rule="nonzero" /><path id="370" transform="matrix(1 0 0 -1 0 841)" d="M131.754 595.829L147.394 595.829L147.394 608.102L131.754 608.102z" stroke="none" fill="#FFF100" fill-rule="nonzero" /><path id="374" transform="matrix(1 0 0 -1 0 841)" d="M146.896 595.829L150.427 595.829L150.427 608.102L146.896 608.102z" stroke="none" fill="#FFF100" fill-rule="nonzero" /><path id="376" transform="matrix(1 0 0 -1 0 841)" d="M149.928 595.829L166.789 595.829L166.789 608.102L149.928 608.102z" stroke="none" fill="#FFF100" fill-rule="nonzero" /><path id="380" transform="matrix(1 0 0 -1 0 841)" d="M166.541 595.829L169.268 595.829L169.268 608.102L166.541 608.102z" stroke="none" fill="#FFF100" fill-rule="nonzero" /><path id="381" transform="matrix(1 0 0 -1 0 841)" d="M169.019 595.829L190.724 595.829L190.724 608.102L169.019 608.102z" stroke="none" fill="#FFF100" fill-rule="nonzero" /><path id="386" transform="matrix(1 0 0 -1 0 841)" d="M190.475 595.829L193.202 595.829L193.202 608.102L190.475 608.102z" stroke="none" fill="#FFF100" fill-rule="nonzero" /><path id="387" transform="matrix(1 0 0 -1 0 841)" d="M192.953 595.829L202.538 595.829L202.538 608.102L192.953 608.102z" stroke="none" fill="#FFF100" fill-rule="nonzero" /><path id="390" transform="matrix(1 0 0 -1 0 841)" d="M202.289 595.829L205.016 595.829L205.016 608.102L202.289 608.102z" stroke="none" fill="#FFF100" fill-rule="nonzero" /><path id="391" transform="matrix(1 0 0 -1 0 841)" d="M204.768 595.829L210.11 595.829L210.11 608.102L204.768 608.102z" stroke="none" fill="#FFF100" fill-rule="nonzero" /><path id="393" transform="matrix(1 0 0 -1 0 841)" d="M209.86 595.829L212.587 595.829L212.587 608.102L209.86 608.102z" stroke="none" fill="#FFF100" fill-rule="nonzero" /><path id="394" transform="matrix(1 0 0 -1 0 841)" d="M212.338 595.829L226.767 595.829L226.767 608.102L212.338 608.102z" stroke="none" fill="#FFF100" fill-rule="nonzero" /><path id="398" transform="matrix(1 0 0 -1 0 841)" d="M226.269 595.829L244.941 595.829L244.941 608.102L226.269 608.102z" stroke="none" fill="#FFF100" fill-rule="nonzero" /><path id="403" transform="matrix(1 0 0 -1 0 841)" d="M244.692 595.829L247.419 595.829L247.419 608.102L244.692 608.102z" stroke="none" fill="#FFF100" fill-rule="nonzero" /><path id="404" transform="matrix(1 0 0 -1 0 841)" d="M247.171 595.829L271.025 595.829L271.025 608.102L247.171 608.102z" stroke="none" fill="#FFF100" fill-rule="nonzero" /><path id="410" transform="matrix(1 0 0 -1 0 841)" d="M270.776 595.829L273.503 595.829L273.503 608.102L270.776 608.102z" stroke="none" fill="#FFF100" fill-rule="nonzero" /><path id="411" transform="matrix(1 0 0 -1 0 841)" d="M273.254 595.829L281.028 595.829L281.028 608.102L273.254 608.102z" stroke="none" fill="#FFF100" fill-rule="nonzero" /><path id="414" transform="matrix(1 0 0 -1 0 841)" d="M280.779 595.829L283.506 595.829L283.506 608.102L280.779 608.102z" stroke="none" fill="#FFF100" fill-rule="nonzero" /><path id="415" transform="matrix(1 0 0 -1 0 841)" d="M283.257 595.829L294.664 595.829L294.664 608.102L283.257 608.102z" stroke="none" fill="#FFF100" fill-rule="nonzero" /><path id="418" transform="matrix(1 0 0 -1 0 841)" d="M294.166 595.829L321.326 595.829L321.326 608.102L294.166 608.102z" stroke="none" fill="#FFF100" fill-rule="nonzero" /><path id="425" transform="matrix(1 0 0 -1 0 841)" d="M321.077 595.829L323.804 595.829L323.804 608.102L321.077 608.102z" stroke="none" fill="#FFF100" fill-rule="nonzero" /><path id="426" transform="matrix(1 0 0 -1 0 841)" d="M323.555 595.829L334.962 595.829L334.962 608.102L323.555 608.102z" stroke="none" fill="#FFF100" fill-rule="nonzero" /><path id="429" transform="matrix(1 0 0 -1 0 841)" d="M334.713 595.829L337.44 595.829L337.44 608.102L334.713 608.102z" stroke="none" fill="#FFF100" fill-rule="nonzero" /><path id="430" transform="matrix(1 0 0 -1 0 841)" d="M337.192 595.829L345.905 595.829L345.905 608.102L337.192 608.102z" stroke="none" fill="#FFF100" fill-rule="nonzero" /><path id="433" transform="matrix(1 0 0 -1 0 841)" d="M345.406 595.829L359.846 595.829L359.846 608.102L345.406 608.102z" stroke="none" fill="#FFF100" fill-rule="nonzero" /><path id="437" transform="matrix(1 0 0 -1 0 841)" d="M359.348 595.829L373.788 595.829L373.788 608.102L359.348 608.102z" stroke="none" fill="#FFF100" fill-rule="nonzero" /><path id="441" transform="matrix(1 0 0 -1 0 841)" d="M373.538 595.829L376.265 595.829L376.265 608.102L373.538 608.102z" stroke="none" fill="#FFF100" fill-rule="nonzero" /><path id="442" transform="matrix(1 0 0 -1 0 841)" d="M376.017 595.829L389.846 595.829L389.846 608.102L376.017 608.102z" stroke="none" fill="#FFF100" fill-rule="nonzero" /><path id="446" transform="matrix(1 0 0 -1 0 841)" d="M389.596 595.829L392.323 595.829L392.323 608.102L389.596 608.102z" stroke="none" fill="#FFF100" fill-rule="nonzero" /><path id="447" transform="matrix(1 0 0 -1 0 841)" d="M392.075 595.829L406.504 595.829L406.504 608.102L392.075 608.102z" stroke="none" fill="#FFF100" fill-rule="nonzero" /><path id="451" transform="matrix(1 0 0 -1 0 841)" d="M406.005 595.829L424.677 595.829L424.677 608.102L406.005 608.102z" stroke="none" fill="#FFF100" fill-rule="nonzero" /><path id="456" transform="matrix(1 0 0 -1 0 841)" d="M424.429 595.829L427.156 595.829L427.156 608.102L424.429 608.102z" stroke="none" fill="#FFF100" fill-rule="nonzero" /><path id="457" transform="matrix(1 0 0 -1 0 841)" d="M426.907 595.829L438.314 595.829L438.314 608.102L426.907 608.102z" stroke="none" fill="#FFF100" fill-rule="nonzero" /><path id="460" transform="matrix(1 0 0 -1 0 841)" d="M438.065 595.829L440.792 595.829L440.792 608.102L438.065 608.102z" stroke="none" fill="#FFF100" fill-rule="nonzero" /><path id="461" transform="matrix(1 0 0 -1 0 841)" d="M440.543 595.829L460.132 595.829L460.132 608.102L440.543 608.102z" stroke="none" fill="#FFF100" fill-rule="nonzero" /><path id="570" transform="matrix(1 0 0 -1 0 841)" d="M112.063 545.02L123.808 545.02L123.808 557.293L112.063 557.293z" stroke="none" fill="#FFF100" fill-rule="nonzero" /><path id="573" transform="matrix(1 0 0 -1 0 841)" d="M123.559 545.02L126.286 545.02L126.286 557.293L123.559 557.293z" stroke="none" fill="#FFF100" fill-rule="nonzero" /><path id="574" transform="matrix(1 0 0 -1 0 841)" d="M126.038 545.02L136.834 545.02L136.834 557.293L126.038 557.293z" stroke="none" fill="#FFF100" fill-rule="nonzero" /><path id="577" transform="matrix(1 0 0 -1 0 841)" d="M136.336 545.02L148.343 545.02L148.343 557.293L136.336 557.293z" stroke="none" fill="#FFF100" fill-rule="nonzero" /><path id="581" transform="matrix(1 0 0 -1 0 841)" d="M147.845 545.02L170.161 545.02L170.161 557.293L147.845 557.293z" stroke="none" fill="#FFF100" fill-rule="nonzero" /><path id="586" transform="matrix(1 0 0 -1 0 841)" d="M169.912 545.02L172.639 545.02L172.639 557.293L169.912 557.293z" stroke="none" fill="#FFF100" fill-rule="nonzero" /><path id="587" transform="matrix(1 0 0 -1 0 841)" d="M172.39 545.02L194.095 545.02L194.095 557.293L172.39 557.293z" stroke="none" fill="#FFF100" fill-rule="nonzero" /><path id="592" transform="matrix(1 0 0 -1 0 841)" d="M193.846 545.02L196.573 545.02L196.573 557.293L193.846 557.293z" stroke="none" fill="#FFF100" fill-rule="nonzero" /><path id="593" transform="matrix(1 0 0 -1 0 841)" d="M196.324 545.02L210.753 545.02L210.753 557.293L196.324 557.293z" stroke="none" fill="#FFF100" fill-rule="nonzero" /><path id="597" transform="matrix(1 0 0 -1 0 841)" d="M210.255 545.02L228.927 545.02L228.927 557.293L210.255 557.293z" stroke="none" fill="#FFF100" fill-rule="nonzero" /><path id="602" transform="matrix(1 0 0 -1 0 841)" d="M228.429 545.02L244.069 545.02L244.069 557.293L228.429 557.293z" stroke="none" fill="#FFF100" fill-rule="nonzero" /><path id="606" transform="matrix(1 0 0 -1 0 841)" d="M243.82 545.02L246.547 545.02L246.547 557.293L243.82 557.293z" stroke="none" fill="#FFF100" fill-rule="nonzero" /><path id="607" transform="matrix(1 0 0 -1 0 841)" d="M246.298 545.02L251.64 545.02L251.64 557.293L246.298 557.293z" stroke="none" fill="#FFF100" fill-rule="nonzero" /><path id="609" transform="matrix(1 0 0 -1 0 841)" d="M251.391 545.02L254.118 545.02L254.118 557.293L251.391 557.293z" stroke="none" fill="#FFF100" fill-rule="nonzero" /><path id="610" transform="matrix(1 0 0 -1 0 841)" d="M253.869 545.02L271.331 545.02L271.331 557.293L253.869 557.293z" stroke="none" fill="#FFF100" fill-rule="nonzero" /><path id="615" transform="matrix(1 0 0 -1 0 841)" d="M271.081 545.02L273.808 545.02L273.808 557.293L271.081 557.293z" stroke="none" fill="#FFF100" fill-rule="nonzero" /><path id="616" transform="matrix(1 0 0 -1 0 841)" d="M273.559 545.02L281.333 545.02L281.333 557.293L273.559 557.293z" stroke="none" fill="#FFF100" fill-rule="nonzero" /><path id="619" transform="matrix(1 0 0 -1 0 841)" d="M281.085 545.02L283.812 545.02L283.812 557.293L281.085 557.293z" stroke="none" fill="#FFF100" fill-rule="nonzero" /><path id="620" transform="matrix(1 0 0 -1 0 841)" d="M283.563 545.02L293.148 545.02L293.148 557.293L283.563 557.293z" stroke="none" fill="#FFF100" fill-rule="nonzero" /><path id="623" transform="matrix(1 0 0 -1 0 841)" d="M292.899 545.02L295.626 545.02L295.626 557.293L292.899 557.293z" stroke="none" fill="#FFF100" fill-rule="nonzero" /><path id="624" transform="matrix(1 0 0 -1 0 841)" d="M295.377 545.02L309.206 545.02L309.206 557.293L295.377 557.293z" stroke="none" fill="#FFF100" fill-rule="nonzero" /><path id="628" transform="matrix(1 0 0 -1 0 841)" d="M308.957 545.02L311.684 545.02L311.684 557.293L308.957 557.293z" stroke="none" fill="#FFF100" fill-rule="nonzero" /><path id="629" transform="matrix(1 0 0 -1 0 841)" d="M311.435 545.02L341.322 545.02L341.322 557.293L311.435 557.293z" stroke="none" fill="#FFF100" fill-rule="nonzero" /><path id="636" transform="matrix(1 0 0 -1 0 841)" d="M341.073 545.02L343.8 545.02L343.8 557.293L341.073 557.293z" stroke="none" fill="#FFF100" fill-rule="nonzero" /><path id="637" transform="matrix(1 0 0 -1 0 841)" d="M343.551 545.02L352.264 545.02L352.264 557.293L343.551 557.293z" stroke="none" fill="#FFF100" fill-rule="nonzero" /><path id="640" transform="matrix(1 0 0 -1 0 841)" d="M351.766 545.02L371.049 545.02L371.049 557.293L351.766 557.293z" stroke="none" fill="#FFF100" fill-rule="nonzero" /><path id="645" transform="matrix(1 0 0 -1 0 841)" d="M370.8 545.02L373.527 545.02L373.527 557.293L370.8 557.293z" stroke="none" fill="#FFF100" fill-rule="nonzero" /><path id="646" transform="matrix(1 0 0 -1 0 841)" d="M373.278 545.02L387.107 545.02L387.107 557.293L373.278 557.293z" stroke="none" fill="#FFF100" fill-rule="nonzero" /><path id="650" transform="matrix(1 0 0 -1 0 841)" d="M386.858 545.02L389.585 545.02L389.585 557.293L386.858 557.293z" stroke="none" fill="#FFF100" fill-rule="nonzero" /><path id="651" transform="matrix(1 0 0 -1 0 841)" d="M389.336 545.02L406.798 545.02L406.798 557.293L389.336 557.293z" stroke="none" fill="#FFF100" fill-rule="nonzero" /><path id="656" transform="matrix(1 0 0 -1 0 841)" d="M406.549 545.02L409.276 545.02L409.276 557.293L406.549 557.293z" stroke="none" fill="#FFF100" fill-rule="nonzero" /><path id="657" transform="matrix(1 0 0 -1 0 841)" d="M409.027 545.02L420.434 545.02L420.434 557.293L409.027 557.293z" stroke="none" fill="#FFF100" fill-rule="nonzero" /><path id="660" transform="matrix(1 0 0 -1 0 841)" d="M420.185 545.02L422.912 545.02L422.912 557.293L420.185 557.293z" stroke="none" fill="#FFF100" fill-rule="nonzero" /><path id="661" transform="matrix(1 0 0 -1 0 841)" d="M422.663 545.02L436.492 545.02L436.492 557.293L422.663 557.293z" stroke="none" fill="#FFF100" fill-rule="nonzero" /><path id="665" transform="matrix(1 0 0 -1 0 841)" d="M436.243 545.02L438.97 545.02L438.97 557.293L436.243 557.293z" stroke="none" fill="#FFF100" fill-rule="nonzero" /><path id="666" transform="matrix(1 0 0 -1 0 841)" d="M438.721 545.02L468.608 545.02L468.608 557.293L438.721 557.293z" stroke="none" fill="#FFF100" fill-rule="nonzero" /><path id="881" transform="matrix(1 0 0 -1 0 841)" d="M112.063 410.275L123.808 410.275L123.808 422.548L112.063 422.548z" stroke="none" fill="#FFF100" fill-rule="nonzero" /><path id="884" transform="matrix(1 0 0 -1 0 841)" d="M123.802 410.275L126.597 410.275L126.597 422.548L123.802 422.548z" stroke="none" fill="#FFF100" fill-rule="nonzero" /><path id="885" transform="matrix(1 0 0 -1 0 841)" d="M126.348 410.275L143.821 410.275L143.821 422.548L126.348 422.548z" stroke="none" fill="#FFF100" fill-rule="nonzero" /><path id="889" transform="matrix(1 0 0 -1 0 841)" d="M143.911 410.275L146.706 410.275L146.706 422.548L143.911 422.548z" stroke="none" fill="#FFF100" fill-rule="nonzero" /><path id="890" transform="matrix(1 0 0 -1 0 841)" d="M146.458 410.275L160.287 410.275L160.287 422.548L146.458 422.548z" stroke="none" fill="#FFF100" fill-rule="nonzero" /><path id="894" transform="matrix(1 0 0 -1 0 841)" d="M160.304 410.275L163.099 410.275L163.099 422.548L160.304 422.548z" stroke="none" fill="#FFF100" fill-rule="nonzero" /><path id="895" transform="matrix(1 0 0 -1 0 841)" d="M162.851 410.275L177.28 410.275L177.28 422.548L162.851 422.548z" stroke="none" fill="#FFF100" fill-rule="nonzero" /><path id="899" transform="matrix(1 0 0 -1 0 841)" d="M177.06 410.275L195.732 410.275L195.732 422.548L177.06 422.548z" stroke="none" fill="#FFF100" fill-rule="nonzero" /><path id="904" transform="matrix(1 0 0 -1 0 841)" d="M195.598 410.275L211.238 410.275L211.238 422.548L195.598 422.548z" stroke="none" fill="#FFF100" fill-rule="nonzero" /><path id="908" transform="matrix(1 0 0 -1 0 841)" d="M211.291 410.275L214.086 410.275L214.086 422.548L211.291 422.548z" stroke="none" fill="#FFF100" fill-rule="nonzero" /><path id="909" transform="matrix(1 0 0 -1 0 841)" d="M213.838 410.275L223.423 410.275L223.423 422.548L213.838 422.548z" stroke="none" fill="#FFF100" fill-rule="nonzero" /><path id="912" transform="matrix(1 0 0 -1 0 841)" d="M223.356 410.275L226.151 410.275L226.151 422.548L223.356 422.548z" stroke="none" fill="#FFF100" fill-rule="nonzero" /><path id="913" transform="matrix(1 0 0 -1 0 841)" d="M225.902 410.275L231.244 410.275L231.244 422.548L225.902 422.548z" stroke="none" fill="#FFF100" fill-rule="nonzero" /><path id="915" transform="matrix(1 0 0 -1 0 841)" d="M231.092 410.275L233.887 410.275L233.887 422.548L231.092 422.548z" stroke="none" fill="#FFF100" fill-rule="nonzero" /><path id="916" transform="matrix(1 0 0 -1 0 841)" d="M233.638 410.275L253.532 410.275L253.532 422.548L233.638 422.548z" stroke="none" fill="#FFF100" fill-rule="nonzero" /><path id="920" transform="matrix(1 0 0 -1 0 841)" d="M253.422 410.275L270.142 410.275L270.142 422.548L253.422 422.548z" stroke="none" fill="#FFF100" fill-rule="nonzero" /><path id="925" transform="matrix(1 0 0 -1 0 841)" d="M270.226 410.275L273.021 410.275L273.021 422.548L270.226 422.548z" stroke="none" fill="#FFF100" fill-rule="nonzero" /><path id="926" transform="matrix(1 0 0 -1 0 841)" d="M272.773 410.275L290.245 410.275L290.245 422.548L272.773 422.548z" stroke="none" fill="#FFF100" fill-rule="nonzero" /><path id="930" transform="matrix(1 0 0 -1 0 841)" d="M290.086 410.275L296.649 410.275L296.649 422.548L290.086 422.548z" stroke="none" fill="#FFF100" fill-rule="nonzero" /><path id="933" transform="matrix(1 0 0 -1 0 841)" d="M296.273 410.275L310.713 410.275L310.713 422.548L296.273 422.548z" stroke="none" fill="#FFF100" fill-rule="nonzero" /><path id="937" transform="matrix(1 0 0 -1 0 841)" d="M310.742 410.275L313.537 410.275L313.537 422.548L310.742 422.548z" stroke="none" fill="#FFF100" fill-rule="nonzero" /><path id="938" transform="matrix(1 0 0 -1 0 841)" d="M313.289 410.275L327.118 410.275L327.118 422.548L313.289 422.548z" stroke="none" fill="#FFF100" fill-rule="nonzero" /><path id="942" transform="matrix(1 0 0 -1 0 841)" d="M327.135 410.275L329.93 410.275L329.93 422.548L327.135 422.548z" stroke="none" fill="#FFF100" fill-rule="nonzero" /><path id="943" transform="matrix(1 0 0 -1 0 841)" d="M329.682 410.275L349.576 410.275L349.576 422.548L329.682 422.548z" stroke="none" fill="#FFF100" fill-rule="nonzero" /><path id="947" transform="matrix(1 0 0 -1 0 841)" d="M349.466 410.275L363.895 410.275L363.895 422.548L349.466 422.548z" stroke="none" fill="#FFF100" fill-rule="nonzero" /><path id="951" transform="matrix(1 0 0 -1 0 841)" d="M363.924 410.275L366.719 410.275L366.719 422.548L363.924 422.548z" stroke="none" fill="#FFF100" fill-rule="nonzero" /><path id="952" transform="matrix(1 0 0 -1 0 841)" d="M366.471 410.275L377.878 410.275L377.878 422.548L366.471 422.548z" stroke="none" fill="#FFF100" fill-rule="nonzero" /><path id="955" transform="matrix(1 0 0 -1 0 841)" d="M377.847 410.275L380.643 410.275L380.643 422.548L377.847 422.548z" stroke="none" fill="#FFF100" fill-rule="nonzero" /><path id="956" transform="matrix(1 0 0 -1 0 841)" d="M380.393 410.275L394.222 410.275L394.222 422.548L380.393 422.548z" stroke="none" fill="#FFF100" fill-rule="nonzero" /><path id="960" transform="matrix(1 0 0 -1 0 841)" d="M394.24 410.275L397.035 410.275L397.035 422.548L394.24 422.548z" stroke="none" fill="#FFF100" fill-rule="nonzero" /><path id="961" transform="matrix(1 0 0 -1 0 841)" d="M396.786 410.275L412.426 410.275L412.426 422.548L396.786 422.548z" stroke="none" fill="#FFF100" fill-rule="nonzero" /><path id="965" transform="matrix(1 0 0 -1 0 841)" d="M412.231 410.275L415.762 410.275L415.762 422.548L412.231 422.548z" stroke="none" fill="#FFF100" fill-rule="nonzero" /><path id="967" transform="matrix(1 0 0 -1 0 841)" d="M415.324 410.275L432.185 410.275L432.185 422.548L415.324 422.548z" stroke="none" fill="#FFF100" fill-rule="nonzero" /><path id="971" transform="matrix(1 0 0 -1 0 841)" d="M432.264 410.275L435.059 410.275L435.059 422.548L432.264 422.548z" stroke="none" fill="#FFF100" fill-rule="nonzero" /><path id="972" transform="matrix(1 0 0 -1 0 841)" d="M434.81 410.275L459.002 410.275L459.002 422.548L434.81 422.548z" stroke="none" fill="#FFF100" fill-rule="nonzero" /><path id="978" transform="matrix(1 0 0 -1 0 841)" d="M458.989 410.275L464.331 410.275L464.331 422.548L458.989 422.548z" stroke="none" fill="#FFF100" fill-rule="nonzero" /><path id="980" transform="matrix(1 0 0 -1 0 841)" d="M463.93 410.275L480.791 410.275L480.791 422.548L463.93 422.548z" stroke="none" fill="#FFF100" fill-rule="nonzero" /><path id="985" transform="matrix(1 0 0 -1 0 841)" d="M480.869 410.275L483.664 410.275L483.664 422.548L480.869 422.548z" stroke="none" fill="#FFF100" fill-rule="nonzero" /><path id="986" transform="matrix(1 0 0 -1 0 841)" d="M483.416 410.275L493.001 410.275L493.001 422.548L483.416 422.548z" stroke="none" fill="#FFF100" fill-rule="nonzero" /><path id="989" transform="matrix(1 0 0 -1 0 841)" d="M492.934 410.275L495.729 410.275L495.729 422.548L492.934 422.548z" stroke="none" fill="#FFF100" fill-rule="nonzero" /><path id="990" transform="matrix(1 0 0 -1 0 841)" d="M495.48 410.275L509.309 410.275L509.309 422.548L495.48 422.548z" stroke="none" fill="#FFF100" fill-rule="nonzero" /><path id="994" transform="matrix(1 0 0 -1 0 841)" d="M112.063 393.339L126.492 393.339L126.492 405.612L112.063 405.612z" stroke="none" fill="#FFF100" fill-rule="nonzero" /><path id="998" transform="matrix(1 0 0 -1 0 841)" d="M125.994 393.339L144.666 393.339L144.666 405.612L125.994 405.612z" stroke="none" fill="#FFF100" fill-rule="nonzero" /><path id="1003" transform="matrix(1 0 0 -1 0 841)" d="M144.168 393.339L159.808 393.339L159.808 405.612L144.168 405.612z" stroke="none" fill="#FFF100" fill-rule="nonzero" /><path id="1007" transform="matrix(1 0 0 -1 0 841)" d="M159.559 393.339L162.286 393.339L162.286 405.612L159.559 405.612z" stroke="none" fill="#FFF100" fill-rule="nonzero" /><path id="1008" transform="matrix(1 0 0 -1 0 841)" d="M162.037 393.339L186.339 393.339L186.339 405.612L162.037 405.612z" stroke="none" fill="#FFF100" fill-rule="nonzero" /><path id="1014" transform="matrix(1 0 0 -1 0 841)" d="M186.09 393.339L188.817 393.339L188.817 405.612L186.09 405.612z" stroke="none" fill="#FFF100" fill-rule="nonzero" /><path id="1015" transform="matrix(1 0 0 -1 0 841)" d="M188.568 393.339L197.553 393.339L197.553 405.612L188.568 405.612z" stroke="none" fill="#FFF100" fill-rule="nonzero" /><path id="1018" transform="matrix(1 0 0 -1 0 841)" d="M197.304 393.339L200.031 393.339L200.031 405.612L197.304 405.612z" stroke="none" fill="#FFF100" fill-rule="nonzero" /><path id="1019" transform="matrix(1 0 0 -1 0 841)" d="M199.782 393.339L213.611 393.339L213.611 405.612L199.782 405.612z" stroke="none" fill="#FFF100" fill-rule="nonzero" /><path id="1023" transform="matrix(1 0 0 -1 0 841)" d="M213.362 393.339L216.089 393.339L216.089 405.612L213.362 405.612z" stroke="none" fill="#FFF100" fill-rule="nonzero" /><path id="1024" transform="matrix(1 0 0 -1 0 841)" d="M215.84 393.339L236.334 393.339L236.334 405.612L215.84 405.612z" stroke="none" fill="#FFF100" fill-rule="nonzero" /><path id="1029" transform="matrix(1 0 0 -1 0 841)" d="M235.837 393.339L255.426 393.339L255.426 405.612L235.837 405.612z" stroke="none" fill="#FFF100" fill-rule="nonzero" /><path id="1151" transform="matrix(1 0 0 -1 0 841)" d="M112.063 243.135L123.808 243.135L123.808 255.408L112.063 255.408z" stroke="none" fill="#FFF100" fill-rule="nonzero" /><path id="1154" transform="matrix(1 0 0 -1 0 841)" d="M123.802 243.135L127.003 243.135L127.003 255.408L123.802 255.408z" stroke="none" fill="#FFF100" fill-rule="nonzero" /><path id="1155" transform="matrix(1 0 0 -1 0 841)" d="M126.754 243.135L135.739 243.135L135.739 255.408L126.754 255.408z" stroke="none" fill="#FFF100" fill-rule="nonzero" /><path id="1158" transform="matrix(1 0 0 -1 0 841)" d="M135.411 243.135L163.16 243.135L163.16 255.408L135.411 255.408z" stroke="none" fill="#FFF100" fill-rule="nonzero" /><path id="1165" transform="matrix(1 0 0 -1 0 841)" d="M163.455 243.135L166.656 243.135L166.656 255.408L163.455 255.408z" stroke="none" fill="#FFF100" fill-rule="nonzero" /><path id="1166" transform="matrix(1 0 0 -1 0 841)" d="M166.407 243.135L171.749 243.135L171.749 255.408L166.407 255.408z" stroke="none" fill="#FFF100" fill-rule="nonzero" /><path id="1168" transform="matrix(1 0 0 -1 0 841)" d="M171.596 243.135L174.797 243.135L174.797 255.408L171.596 255.408z" stroke="none" fill="#FFF100" fill-rule="nonzero" /><path id="1169" transform="matrix(1 0 0 -1 0 841)" d="M174.548 243.135L198.402 243.135L198.402 255.408L174.548 255.408z" stroke="none" fill="#FFF100" fill-rule="nonzero" /><path id="1175" transform="matrix(1 0 0 -1 0 841)" d="M198.626 243.135L201.827 243.135L201.827 255.408L198.626 255.408z" stroke="none" fill="#FFF100" fill-rule="nonzero" /><path id="1176" transform="matrix(1 0 0 -1 0 841)" d="M201.578 243.135L212.985 243.135L212.985 255.408L201.578 255.408z" stroke="none" fill="#FFF100" fill-rule="nonzero" /><path id="1179" transform="matrix(1 0 0 -1 0 841)" d="M212.954 243.135L216.155 243.135L216.155 255.408L212.954 255.408z" stroke="none" fill="#FFF100" fill-rule="nonzero" /><path id="1180" transform="matrix(1 0 0 -1 0 841)" d="M215.906 243.135L221.248 243.135L221.248 255.408L215.906 255.408z" stroke="none" fill="#FFF100" fill-rule="nonzero" /><path id="1182" transform="matrix(1 0 0 -1 0 841)" d="M221.095 243.135L224.296 243.135L224.296 255.408L221.095 255.408z" stroke="none" fill="#FFF100" fill-rule="nonzero" /><path id="1183" transform="matrix(1 0 0 -1 0 841)" d="M224.047 243.135L238.476 243.135L238.476 255.408L224.047 255.408z" stroke="none" fill="#FFF100" fill-rule="nonzero" /><path id="1187" transform="matrix(1 0 0 -1 0 841)" d="M238.257 243.135L259.657 243.135L259.657 255.408L238.257 255.408z" stroke="none" fill="#FFF100" fill-rule="nonzero" /><path id="1193" transform="matrix(1 0 0 -1 0 841)" d="M259.825 243.135L263.026 243.135L263.026 255.408L259.825 255.408z" stroke="none" fill="#FFF100" fill-rule="nonzero" /><path id="1194" transform="matrix(1 0 0 -1 0 841)" d="M262.777 243.135L279.028 243.135L279.028 255.408L262.777 255.408z" stroke="none" fill="#FFF100" fill-rule="nonzero" /><path id="1198" transform="matrix(1 0 0 -1 0 841)" d="M279.094 243.135L282.295 243.135L282.295 255.408L279.094 255.408z" stroke="none" fill="#FFF100" fill-rule="nonzero" /><path id="1199" transform="matrix(1 0 0 -1 0 841)" d="M282.046 243.135L295.875 243.135L295.875 255.408L282.046 255.408z" stroke="none" fill="#FFF100" fill-rule="nonzero" /><path id="1203" transform="matrix(1 0 0 -1 0 841)" d="M295.892 243.135L299.093 243.135L299.093 255.408L295.892 255.408z" stroke="none" fill="#FFF100" fill-rule="nonzero" /><path id="1204" transform="matrix(1 0 0 -1 0 841)" d="M298.844 243.135L314.484 243.135L314.484 255.408L298.844 255.408z" stroke="none" fill="#FFF100" fill-rule="nonzero" /><path id="1208" transform="matrix(1 0 0 -1 0 841)" d="M314.288 243.135L317.819 243.135L317.819 255.408L314.288 255.408z" stroke="none" fill="#FFF100" fill-rule="nonzero" /><path id="1210" transform="matrix(1 0 0 -1 0 841)" d="M317.382 243.135L334.243 243.135L334.243 255.408L317.382 255.408z" stroke="none" fill="#FFF100" fill-rule="nonzero" /><path id="1214" transform="matrix(1 0 0 -1 0 841)" d="M334.321 243.135L337.522 243.135L337.522 255.408L334.321 255.408z" stroke="none" fill="#FFF100" fill-rule="nonzero" /><path id="1215" transform="matrix(1 0 0 -1 0 841)" d="M337.273 243.135L361.465 243.135L361.465 255.408L337.273 255.408z" stroke="none" fill="#FFF100" fill-rule="nonzero" /><path id="1221" transform="matrix(1 0 0 -1 0 841)" d="M361.452 243.135L366.794 243.135L366.794 255.408L361.452 255.408z" stroke="none" fill="#FFF100" fill-rule="nonzero" /><path id="1223" transform="matrix(1 0 0 -1 0 841)" d="M366.393 243.135L383.254 243.135L383.254 255.408L366.393 255.408z" stroke="none" fill="#FFF100" fill-rule="nonzero" /><path id="1228" transform="matrix(1 0 0 -1 0 841)" d="M383.332 243.135L386.533 243.135L386.533 255.408L383.332 255.408z" stroke="none" fill="#FFF100" fill-rule="nonzero" /><path id="1229" transform="matrix(1 0 0 -1 0 841)" d="M386.284 243.135L395.869 243.135L395.869 255.408L386.284 255.408z" stroke="none" fill="#FFF100" fill-rule="nonzero" /><path id="1232" transform="matrix(1 0 0 -1 0 841)" d="M395.802 243.135L399.003 243.135L399.003 255.408L395.802 255.408z" stroke="none" fill="#FFF100" fill-rule="nonzero" /><path id="1233" transform="matrix(1 0 0 -1 0 841)" d="M398.754 243.135L412.583 243.135L412.583 255.408L398.754 255.408z" stroke="none" fill="#FFF100" fill-rule="nonzero" /><path id="1237" transform="matrix(1 0 0 -1 0 841)" d="M412.6 243.135L415.801 243.135L415.801 255.408L412.6 255.408z" stroke="none" fill="#FFF100" fill-rule="nonzero" /><path id="1238" transform="matrix(1 0 0 -1 0 841)" d="M415.552 243.135L429.981 243.135L429.981 255.408L415.552 255.408z" stroke="none" fill="#FFF100" fill-rule="nonzero" /><path id="1242" transform="matrix(1 0 0 -1 0 841)" d="M429.762 243.135L448.434 243.135L448.434 255.408L429.762 255.408z" stroke="none" fill="#FFF100" fill-rule="nonzero" /><path id="1247" transform="matrix(1 0 0 -1 0 841)" d="M448.548 243.135L451.749 243.135L451.749 255.408L448.548 255.408z" stroke="none" fill="#FFF100" fill-rule="nonzero" /><path id="1248" transform="matrix(1 0 0 -1 0 841)" d="M451.5 243.135L460.485 243.135L460.485 255.408L451.5 255.408z" stroke="none" fill="#FFF100" fill-rule="nonzero" /><path id="1251" transform="matrix(1 0 0 -1 0 841)" d="M460.406 243.135L463.607 243.135L463.607 255.408L460.406 255.408z" stroke="none" fill="#FFF100" fill-rule="nonzero" /><path id="1252" transform="matrix(1 0 0 -1 0 841)" d="M463.358 243.135L468.307 243.135L468.307 255.408L463.358 255.408z" stroke="none" fill="#FFF100" fill-rule="nonzero" /><path id="1254" transform="matrix(1 0 0 -1 0 841)" d="M468.147 243.135L471.348 243.135L471.348 255.408L468.147 255.408z" stroke="none" fill="#FFF100" fill-rule="nonzero" /><path id="1255" transform="matrix(1 0 0 -1 0 841)" d="M471.099 243.135L477.052 243.135L477.052 255.408L471.099 255.408z" stroke="none" fill="#FFF100" fill-rule="nonzero" /><path id="1257" transform="matrix(1 0 0 -1 0 841)" d="M476.912 243.135L480.113 243.135L480.113 255.408L476.912 255.408z" stroke="none" fill="#FFF100" fill-rule="nonzero" /><path id="1258" transform="matrix(1 0 0 -1 0 841)" d="M479.863 243.135L484.812 243.135L484.812 255.408L479.863 255.408z" stroke="none" fill="#FFF100" fill-rule="nonzero" /><path id="1260" transform="matrix(1 0 0 -1 0 841)" d="M484.652 243.135L487.853 243.135L487.853 255.408L484.652 255.408z" stroke="none" fill="#FFF100" fill-rule="nonzero" /><path id="1261" transform="matrix(1 0 0 -1 0 841)" d="M487.604 243.135L503.855 243.135L503.855 255.408L487.604 255.408z" stroke="none" fill="#FFF100" fill-rule="nonzero" /><path id="1265" transform="matrix(1 0 0 -1 0 841)" d="M112.063 226.198L129.535 226.198L129.535 238.471L112.063 238.471z" stroke="none" fill="#FFF100" fill-rule="nonzero" /><path id="1269" transform="matrix(1 0 0 -1 0 841)" d="M129.037 226.198L135.6 226.198L135.6 238.471L129.037 238.471z" stroke="none" fill="#FFF100" fill-rule="nonzero" /><path id="1272" transform="matrix(1 0 0 -1 0 841)" d="M135.103 226.198L149.543 226.198L149.543 238.471L135.103 238.471z" stroke="none" fill="#FFF100" fill-rule="nonzero" /><path id="1276" transform="matrix(1 0 0 -1 0 841)" d="M149.293 226.198L152.02 226.198L152.02 238.471L149.293 238.471z" stroke="none" fill="#FFF100" fill-rule="nonzero" /><path id="1277" transform="matrix(1 0 0 -1 0 841)" d="M151.772 226.198L158.335 226.198L158.335 238.471L151.772 238.471z" stroke="none" fill="#FFF100" fill-rule="nonzero" /><path id="1280" transform="matrix(1 0 0 -1 0 841)" d="M158.086 226.198L160.813 226.198L160.813 238.471L158.086 238.471z" stroke="none" fill="#FFF100" fill-rule="nonzero" /><path id="1281" transform="matrix(1 0 0 -1 0 841)" d="M160.564 226.198L184.702 226.198L184.702 238.471L160.564 238.471z" stroke="none" fill="#FFF100" fill-rule="nonzero" /><path id="1287" transform="matrix(1 0 0 -1 0 841)" d="M184.453 226.198L187.18 226.198L187.18 238.471L184.453 238.471z" stroke="none" fill="#FFF100" fill-rule="nonzero" /><path id="1288" transform="matrix(1 0 0 -1 0 841)" d="M186.931 226.198L200.76 226.198L200.76 238.471L186.931 238.471z" stroke="none" fill="#FFF100" fill-rule="nonzero" /><path id="1292" transform="matrix(1 0 0 -1 0 841)" d="M200.511 226.198L203.238 226.198L203.238 238.471L200.511 238.471z" stroke="none" fill="#FFF100" fill-rule="nonzero" /><path id="1293" transform="matrix(1 0 0 -1 0 841)" d="M202.989 226.198L222.883 226.198L222.883 238.471L202.989 238.471z" stroke="none" fill="#FFF100" fill-rule="nonzero" /><path id="1297" transform="matrix(1 0 0 -1 0 841)" d="M222.385 226.198L238.941 226.198L238.941 238.471L222.385 238.471z" stroke="none" fill="#FFF100" fill-rule="nonzero" /></g></g></svg>