<svg xmlns="http://www.w3.org/2000/svg" xmlns:xlink="http://www.w3.org/1999/xlink" id="body_35" preserveAspectRatio="xMinYMin meet" viewBox="0 0 793 1121"><defs><clipPath id="1"><path id="" clip-rule="evenodd" transform="matrix(1 0 0 1 0 0)" d="M0 841L0 -0.8900146L0 -0.8900146L595.276 -0.8900146L595.276 -0.8900146L595.276 841L595.276 841L0 841z" /></clipPath></defs><g transform="matrix(1.333333 0 0 1.333333 0 0)"><g clip-path="url(#1)"><path id="1" transform="matrix(1 0 0 -1 0 841)" d="M56.693 786.949L538.583 786.949" stroke="#3C71B7" stroke-width="0.398" fill="none" /><path id="62" transform="matrix(1 0 0 -1 0 841)" d="M290.226 703.396L357.195 703.396" stroke="#000000" stroke-width="0.436" fill="none" /><path id="85" transform="matrix(1 0 0 -1 0 841)" d="M167.281 665.209L173.891 665.209" stroke="#000000" stroke-width="0.436" fill="none" /><path id="128" transform="matrix(1 0 0 -1 0 841)" d="M404.046 675.311L447.826 675.311" stroke="#000000" stroke-width="0.398" fill="none" /><path id="129" transform="matrix(1 0 0 -1 0 841)" d="M404.246 657.173L404.246 675.311" stroke="#000000" stroke-width="0.398" fill="none" /><path id="130" transform="matrix(1 0 0 -1 0 841)" d="M447.627 657.173L447.627 675.311" stroke="#000000" stroke-width="0.398" fill="none" /><path id="131" transform="matrix(1 0 0 -1 0 841)" d="M404.046 657.173L447.826 657.173" stroke="#000000" stroke-width="0.398" fill="none" /><path id="290" transform="matrix(1 0 0 -1 0 841)" d="M349.143 608.959L398.377 608.959" stroke="#000000" stroke-width="0.398" fill="none" /><path id="291" transform="matrix(1 0 0 -1 0 841)" d="M349.343 590.821L349.343 608.959" stroke="#000000" stroke-width="0.398" fill="none" /><path id="292" transform="matrix(1 0 0 -1 0 841)" d="M398.178 590.821L398.178 608.959" stroke="#000000" stroke-width="0.398" fill="none" /><path id="293" transform="matrix(1 0 0 -1 0 841)" d="M349.143 590.821L398.377 590.821" stroke="#000000" stroke-width="0.398" fill="none" /><path id="307" transform="matrix(1 0 0 -1 0 841)" d="M170.008 573.656L176.618 573.656" stroke="#000000" stroke-width="0.436" fill="none" /><path id="350" transform="matrix(1 0 0 -1 0 841)" d="M406.774 583.757L450.554 583.757" stroke="#000000" stroke-width="0.398" fill="none" /><path id="351" transform="matrix(1 0 0 -1 0 841)" d="M406.973 565.619L406.973 583.757" stroke="#000000" stroke-width="0.398" fill="none" /><path id="352" transform="matrix(1 0 0 -1 0 841)" d="M450.354 565.619L450.354 583.757" stroke="#000000" stroke-width="0.398" fill="none" /><path id="353" transform="matrix(1 0 0 -1 0 841)" d="M406.774 565.619L450.554 565.619" stroke="#000000" stroke-width="0.398" fill="none" /><path id="480" transform="matrix(1 0 0 -1 0 841)" d="M170.008 495.966L176.618 495.966" stroke="#000000" stroke-width="0.436" fill="none" /><path id="523" transform="matrix(1 0 0 -1 0 841)" d="M401.319 506.067L445.099 506.067" stroke="#000000" stroke-width="0.398" fill="none" /><path id="524" transform="matrix(1 0 0 -1 0 841)" d="M401.518 487.93L401.518 506.068" stroke="#000000" stroke-width="0.398" fill="none" /><path id="525" transform="matrix(1 0 0 -1 0 841)" d="M444.9 487.93L444.9 506.068" stroke="#000000" stroke-width="0.398" fill="none" /><path id="526" transform="matrix(1 0 0 -1 0 841)" d="M401.319 487.93L445.099 487.93" stroke="#000000" stroke-width="0.398" fill="none" /><path id="608" transform="matrix(1 0 0 -1 0 841)" d="M157.024 441.52L163.634 441.52" stroke="#000000" stroke-width="0.436" fill="none" /><path id="640" transform="matrix(1 0 0 -1 0 841)" d="M329.118 451.621L378.352 451.621" stroke="#000000" stroke-width="0.398" fill="none" /><path id="641" transform="matrix(1 0 0 -1 0 841)" d="M329.317 433.483L329.317 451.621" stroke="#000000" stroke-width="0.398" fill="none" /><path id="642" transform="matrix(1 0 0 -1 0 841)" d="M378.153 433.483L378.153 451.621" stroke="#000000" stroke-width="0.398" fill="none" /><path id="643" transform="matrix(1 0 0 -1 0 841)" d="M329.118 433.483L378.352 433.483" stroke="#000000" stroke-width="0.398" fill="none" /><path id="723" transform="matrix(1 0 0 -1 0 841)" d="M183.738 369.578L232.366 369.578" stroke="#000000" stroke-width="0.398" fill="none" /><path id="724" transform="matrix(1 0 0 -1 0 841)" d="M183.937 351.44L183.937 369.578" stroke="#000000" stroke-width="0.398" fill="none" /><path id="725" transform="matrix(1 0 0 -1 0 841)" d="M232.167 351.44L232.167 369.578" stroke="#000000" stroke-width="0.398" fill="none" /><path id="726" transform="matrix(1 0 0 -1 0 841)" d="M183.738 351.44L232.366 351.44" stroke="#000000" stroke-width="0.398" fill="none" /><path id="967" transform="matrix(1 0 0 -1 0 841)" d="M385.516 244.915L422.521 244.915" stroke="#000000" stroke-width="0.436" fill="none" /><path id="983" transform="matrix(1 0 0 -1 0 841)" d="M438.262 252.951L482.557 252.951" stroke="#000000" stroke-width="0.398" fill="none" /><path id="984" transform="matrix(1 0 0 -1 0 841)" d="M438.462 236.878L438.462 252.951" stroke="#000000" stroke-width="0.398" fill="none" /><path id="985" transform="matrix(1 0 0 -1 0 841)" d="M482.358 236.878L482.358 252.951" stroke="#000000" stroke-width="0.398" fill="none" /><path id="986" transform="matrix(1 0 0 -1 0 841)" d="M438.262 236.878L482.557 236.878" stroke="#000000" stroke-width="0.398" fill="none" /></g></g></svg>