<svg xmlns="http://www.w3.org/2000/svg" xmlns:xlink="http://www.w3.org/1999/xlink" id="body_159" preserveAspectRatio="xMinYMin meet" viewBox="0 0 793 1121"><defs><clipPath id="1"><path id="" clip-rule="evenodd" transform="matrix(1 0 0 1 0 0)" d="M0 841L0 -0.8900146L0 -0.8900146L595.276 -0.8900146L595.276 -0.8900146L595.276 841L595.276 841L0 841z" /></clipPath></defs><g transform="matrix(1.333333 0 0 1.333333 0 0)"><g clip-path="url(#1)"><path id="1" transform="matrix(1 0 0 -1 0 841)" d="M56.693 786.949L538.583 786.949" stroke="#3C71B7" stroke-width="0.398" fill="none" /><path id="328" transform="matrix(1 0 0 -1 0 841)" d="M95.208 625.77L134.401 625.77" stroke="#000000" stroke-width="0.436" fill="none" /><path id="336" transform="matrix(1 0 0 -1 0 841)" d="M147.096 625.77L179.545 625.77" stroke="#000000" stroke-width="0.436" fill="none" /><path id="353" transform="matrix(1 0 0 -1 0 841)" d="M196.481 625.77L227.206 625.77" stroke="#000000" stroke-width="0.436" fill="none" /><path id="443" transform="matrix(1 0 0 -1 0 841)" d="M85.161 565.654L109.299 565.654" stroke="#000000" stroke-width="0.436" fill="none" /><path id="456" transform="matrix(1 0 0 -1 0 841)" d="M125.024 565.654L155.749 565.654" stroke="#000000" stroke-width="0.436" fill="none" /><path id="469" transform="matrix(1 0 0 -1 0 841)" d="M172.685 565.654L203.41 565.654" stroke="#000000" stroke-width="0.436" fill="none" /><path id="526" transform="matrix(1 0 0 -1 0 841)" d="M153.075 521.798L179.566 521.798" stroke="#000000" stroke-width="0.436" fill="none" /><path id="534" transform="matrix(1 0 0 -1 0 841)" d="M192.26 521.798L222.985 521.798" stroke="#000000" stroke-width="0.436" fill="none" /><path id="551" transform="matrix(1 0 0 -1 0 841)" d="M238.726 529.453L284.779 529.453" stroke="#000000" stroke-width="0.398" fill="none" /><path id="552" transform="matrix(1 0 0 -1 0 841)" d="M238.925 515.882L238.925 529.453" stroke="#000000" stroke-width="0.398" fill="none" /><path id="553" transform="matrix(1 0 0 -1 0 841)" d="M284.58 515.882L284.58 529.453" stroke="#000000" stroke-width="0.398" fill="none" /><path id="554" transform="matrix(1 0 0 -1 0 841)" d="M238.726 515.882L284.779 515.882" stroke="#000000" stroke-width="0.398" fill="none" /><path id="622" transform="matrix(1 0 0 -1 0 841)" d="M153.075 477.941L179.566 477.941" stroke="#000000" stroke-width="0.436" fill="none" /><path id="630" transform="matrix(1 0 0 -1 0 841)" d="M192.26 477.941L222.985 477.941" stroke="#000000" stroke-width="0.436" fill="none" /><path id="668" transform="matrix(1 0 0 -1 0 841)" d="M85.161 434.085L143.956 434.085" stroke="#000000" stroke-width="0.436" fill="none" /><path id="691" transform="matrix(1 0 0 -1 0 841)" d="M156.65 434.085L189.099 434.085" stroke="#000000" stroke-width="0.436" fill="none" /><path id="706" transform="matrix(1 0 0 -1 0 841)" d="M206.035 434.085L243.364 434.085" stroke="#000000" stroke-width="0.436" fill="none" /><path id="739" transform="matrix(1 0 0 -1 0 841)" d="M85.161 390.229L115.728 390.229" stroke="#000000" stroke-width="0.436" fill="none" /><path id="756" transform="matrix(1 0 0 -1 0 841)" d="M128.422 390.229L165.751 390.229" stroke="#000000" stroke-width="0.436" fill="none" /><path id="764" transform="matrix(1 0 0 -1 0 841)" d="M178.444 390.229L202.424 390.229" stroke="#000000" stroke-width="0.436" fill="none" /><path id="781" transform="matrix(1 0 0 -1 0 841)" d="M219.361 390.229L260.498 390.229" stroke="#000000" stroke-width="0.436" fill="none" /><path id="819" transform="matrix(1 0 0 -1 0 841)" d="M130.301 340.308L163.377 340.308" stroke="#000000" stroke-width="0.436" fill="none" /><path id="831" transform="matrix(1 0 0 -1 0 841)" d="M176.072 340.308L208.213 340.308" stroke="#000000" stroke-width="0.436" fill="none" /><path id="843" transform="matrix(1 0 0 -1 0 841)" d="M220.907 340.308L248.664 340.308" stroke="#000000" stroke-width="0.436" fill="none" /><path id="854" transform="matrix(1 0 0 -1 0 841)" d="M268.988 340.308L299.291 340.308" stroke="#000000" stroke-width="0.436" fill="none" /><path id="858" transform="matrix(1 0 0 -1 0 841)" d="M264.405 356.33L303.874 356.33" stroke="#000000" stroke-width="0.398" fill="none" /><path id="859" transform="matrix(1 0 0 -1 0 841)" d="M264.605 324.788L264.605 356.33" stroke="#000000" stroke-width="0.398" fill="none" /><path id="860" transform="matrix(1 0 0 -1 0 841)" d="M303.675 324.788L303.675 356.33" stroke="#000000" stroke-width="0.398" fill="none" /><path id="861" transform="matrix(1 0 0 -1 0 841)" d="M264.405 324.788L303.874 324.788" stroke="#000000" stroke-width="0.398" fill="none" /></g></g></svg>