<svg xmlns="http://www.w3.org/2000/svg" xmlns:xlink="http://www.w3.org/1999/xlink" id="body_65" preserveAspectRatio="xMinYMin meet" viewBox="0 0 793 1121"><defs><clipPath id="1"><path id="" clip-rule="evenodd" transform="matrix(1 0 0 1 0 0)" d="M0 841L0 -0.8900146L0 -0.8900146L595.276 -0.8900146L595.276 -0.8900146L595.276 841L595.276 841L0 841z" /></clipPath></defs><g transform="matrix(1.333333 0 0 1.333333 0 0)"><g clip-path="url(#1)"><path id="1" transform="matrix(1 0 0 -1 0 841)" d="M56.693 786.949L538.583 786.949" stroke="#3C71B7" stroke-width="0.398" fill="none" /><path id="136" transform="matrix(1 0 0 -1 0 841)" d="M274.374 713.563L311.457 713.563" stroke="#000000" stroke-width="0.398" fill="none" /><path id="346" transform="matrix(1 0 0 -1 0 841)" d="M99.676 598.327L136.759 598.327" stroke="#000000" stroke-width="0.398" fill="none" /><path id="478" transform="matrix(1 0 0 -1 0 841)" d="M256.831 521.257L301.663 521.257" stroke="#000000" stroke-width="0.398" fill="none" /><path id="682" transform="matrix(1 0 0 -1 0 841)" d="M262.625 417.571L301.964 417.571" stroke="#000000" stroke-width="0.398" fill="none" /><path id="707" transform="matrix(1 0 0 -1 0 841)" d="M99.676 389.408L152.257 389.408" stroke="#000000" stroke-width="0.398" fill="none" /><path id="926" transform="matrix(1 0 0 -1 0 841)" d="M267.481 273.065L295.155 273.065" stroke="#000000" stroke-width="0.398" fill="none" /><path id="1041" transform="matrix(1 0 0 -1 0 841)" d="M99.676 195.995L140.08 195.995" stroke="#000000" stroke-width="0.398" fill="none" /></g></g></svg>