<svg xmlns="http://www.w3.org/2000/svg" xmlns:xlink="http://www.w3.org/1999/xlink" id="body_28" preserveAspectRatio="xMinYMin meet" viewBox="0 0 793 1121"><defs><clipPath id="1"><path id="" clip-rule="evenodd" transform="matrix(1 0 0 1 0 0)" d="M0 841L0 -0.8900146L0 -0.8900146L595.276 -0.8900146L595.276 -0.8900146L595.276 841L595.276 841L0 841z" /></clipPath></defs><g transform="matrix(1.333333 0 0 1.333333 0 0)"><g clip-path="url(#1)"><path id="1" transform="matrix(1 0 0 -1 0 841)" d="M56.693 786.949L538.583 786.949" stroke="#3C71B7" stroke-width="0.398" fill="none" /><path id="2" transform="matrix(1 0 0 -1 0 841)" d="M371.1656 766.708C 371.1656 771.4048 345.7834 775.2122 314.472 775.2122C 283.1606 775.2122 257.7784 771.4048 257.7784 766.708C 257.7784 762.0112 283.1606 758.2039 314.472 758.2039C 345.7834 758.2039 371.1656 762.0112 371.1656 766.708z" stroke="#000000" stroke-width="0.3985" fill="none" /><path id="3" transform="matrix(1 0 0 -1 0 841)" d="M371.1656 701.5103C 371.1656 706.207 345.7834 710.0144 314.472 710.0144C 283.1606 710.0144 257.7784 706.207 257.7784 701.5103C 257.7784 696.8135 283.1606 693.0062 314.472 693.0062C 345.7834 693.0062 371.1656 696.8135 371.1656 701.5103z" stroke="#000000" stroke-width="0.3985" fill="none" /><path id="4" transform="matrix(1 0 0 -1 0 841)" d="M371.1656 701.5103L371.1656 766.708" stroke="#000000" stroke-width="0.3985" fill="none" /><path id="5" transform="matrix(1 0 0 -1 0 841)" d="M385.339 701.9088L385.339 766.3095" stroke="#000000" stroke-width="0.3985" fill="none" /><path id="6" transform="matrix(1 0 0 -1 0 841)" d="M387.73 703.7818C 386.2954 703.4032 385.618 702.5595 385.339 701.7095C 385.06 702.5595 384.3826 703.4032 382.9479 703.7818" stroke="#000000" stroke-width="0.3985" stroke-linecap="round" fill="none" /><path id="7" transform="matrix(1 0 0 -1 0 841)" d="M382.9479 764.4365C 384.3826 764.8151 385.06 765.6588 385.339 766.5087C 385.618 765.6588 386.2954 764.8151 387.73 764.4365" stroke="#000000" stroke-width="0.3985" stroke-linecap="round" fill="none" /><path id="21" transform="matrix(1 0 0 -1 0 841)" d="M258.1769 755.3694L370.7671 755.3694" stroke="#000000" stroke-width="0.3985" fill="none" /><path id="22" transform="matrix(1 0 0 -1 0 841)" d="M260.0499 752.9784C 259.6713 754.4131 258.8276 755.0905 257.9776 755.3694C 258.8276 755.6484 259.6713 756.3258 260.0499 757.7605" stroke="#000000" stroke-width="0.3985" stroke-linecap="round" fill="none" /><path id="23" transform="matrix(1 0 0 -1 0 841)" d="M368.8941 757.7605C 369.2727 756.3258 370.1164 755.6484 370.9663 755.3694C 370.1164 755.0905 369.2727 754.4131 368.8941 752.9784" stroke="#000000" stroke-width="0.3985" stroke-linecap="round" fill="none" /><path id="39" transform="matrix(1 0 0 -1 0 841)" d="M257.7784 766.708L257.7784 701.5103" stroke="#000000" stroke-width="0.3985" fill="none" /><path id="65" transform="matrix(1 0 0 -1 0 841)" d="M260.6132 749.6998C 243.392 738.8531 253.6116 724.9839 283.4398 718.7216C 313.2679 712.4594 351.408 716.1756 368.6292 727.0222C 379.768 734.0378 379.768 742.6841 377.2293 744.2831" stroke="#000000" stroke-width="2.83466" stroke-dasharray="1.054387,1.054387" fill="none" /><path id="66" transform="matrix(1 0 0 -1 0 841)" d="M368.6292 749.6997C 370.8765 747.617 374.1145 743.5757 375.928 740.0979L375.928 740.0979L380.4418 747.2646C 376.5219 747.3979 371.4783 748.5726 368.6292 749.6997" stroke="none" fill="#000000" fill-rule="nonzero" /><path id="149" transform="matrix(1 0 0 -1 0 841)" d="M206.155 656.267L213.988 656.267" stroke="#000000" stroke-width="0.398" fill="none" /><path id="155" transform="matrix(1 0 0 -1 0 841)" d="M229.663 656.267L244.607 656.267" stroke="#000000" stroke-width="0.398" fill="none" /><path id="173" transform="matrix(1 0 0 -1 0 841)" d="M259.086 663.823L331.084 663.823" stroke="#000000" stroke-width="0.398" fill="none" /><path id="174" transform="matrix(1 0 0 -1 0 841)" d="M259.285 648.426L259.285 663.823" stroke="#000000" stroke-width="0.398" fill="none" /><path id="175" transform="matrix(1 0 0 -1 0 841)" d="M330.884 648.426L330.884 663.823" stroke="#000000" stroke-width="0.398" fill="none" /><path id="176" transform="matrix(1 0 0 -1 0 841)" d="M259.086 648.426L331.084 648.426" stroke="#000000" stroke-width="0.398" fill="none" /><path id="228" transform="matrix(1 0 0 -1 0 841)" d="M314.423 634.351L322.365 634.351" stroke="#000000" stroke-width="0.398" fill="none" /><path id="250" transform="matrix(1 0 0 -1 0 841)" d="M139.26 616.371L147.202 616.371" stroke="#000000" stroke-width="0.398" fill="none" /><path id="269" transform="matrix(1 0 0 -1 0 841)" d="M245.575 616.371L253.408 616.371" stroke="#000000" stroke-width="0.398" fill="none" /><path id="279" transform="matrix(1 0 0 -1 0 841)" d="M269.082 616.371L301.737 616.371" stroke="#000000" stroke-width="0.398" fill="none" /><path id="297" transform="matrix(1 0 0 -1 0 841)" d="M316.217 623.928L389.879 623.928" stroke="#000000" stroke-width="0.398" fill="none" /><path id="298" transform="matrix(1 0 0 -1 0 841)" d="M316.416 608.531L316.416 623.928" stroke="#000000" stroke-width="0.398" fill="none" /><path id="299" transform="matrix(1 0 0 -1 0 841)" d="M389.679 608.531L389.679 623.928" stroke="#000000" stroke-width="0.398" fill="none" /><path id="300" transform="matrix(1 0 0 -1 0 841)" d="M316.217 608.531L389.879 608.531" stroke="#000000" stroke-width="0.398" fill="none" /><path id="389" transform="matrix(1 0 0 -1 0 841)" d="M205.989 587.725L215.852 587.725" stroke="#000000" stroke-width="0.398" fill="none" /><path id="391" transform="matrix(1 0 0 -1 0 841)" d="M207.184 574.654L214.656 574.654" stroke="#000000" stroke-width="0.398" fill="none" /><path id="395" transform="matrix(1 0 0 -1 0 841)" d="M239.098 587.531L256.433 587.531" stroke="#000000" stroke-width="0.398" fill="none" /><path id="399" transform="matrix(1 0 0 -1 0 841)" d="M240.293 574.654L255.237 574.654" stroke="#000000" stroke-width="0.398" fill="none" /><path id="416" transform="matrix(1 0 0 -1 0 841)" d="M340.852 582.211L366.167 582.211" stroke="#000000" stroke-width="0.398" fill="none" /><path id="417" transform="matrix(1 0 0 -1 0 841)" d="M341.052 568.866L341.052 582.211" stroke="#000000" stroke-width="0.398" fill="none" /><path id="418" transform="matrix(1 0 0 -1 0 841)" d="M365.968 568.866L365.968 582.211" stroke="#000000" stroke-width="0.398" fill="none" /><path id="419" transform="matrix(1 0 0 -1 0 841)" d="M340.852 568.866L366.167 568.866" stroke="#000000" stroke-width="0.398" fill="none" /><path id="548" transform="matrix(1 0 0 -1 0 841)" d="M187.894 521.672L195.919 521.672" stroke="#000000" stroke-width="0.398" fill="none" /><path id="559" transform="matrix(1 0 0 -1 0 841)" d="M211.594 521.672L248.752 521.672" stroke="#000000" stroke-width="0.398" fill="none" /><path id="573" transform="matrix(1 0 0 -1 0 841)" d="M263.231 528.79L307.921 528.79" stroke="#000000" stroke-width="0.398" fill="none" /><path id="574" transform="matrix(1 0 0 -1 0 841)" d="M263.431 513.822L263.431 528.79" stroke="#000000" stroke-width="0.398" fill="none" /><path id="575" transform="matrix(1 0 0 -1 0 841)" d="M307.722 513.822L307.722 528.79" stroke="#000000" stroke-width="0.398" fill="none" /><path id="576" transform="matrix(1 0 0 -1 0 841)" d="M263.231 513.822L307.921 513.822" stroke="#000000" stroke-width="0.398" fill="none" /><path id="699" transform="matrix(1 0 0 -1 0 841)" d="M230.797 485.329L253.49 485.329" stroke="#000000" stroke-width="0.398" fill="none" /><path id="711" transform="matrix(1 0 0 -1 0 841)" d="M267.968 492.446L312.658 492.446" stroke="#000000" stroke-width="0.398" fill="none" /><path id="712" transform="matrix(1 0 0 -1 0 841)" d="M268.167 477.478L268.167 492.446" stroke="#000000" stroke-width="0.398" fill="none" /><path id="713" transform="matrix(1 0 0 -1 0 841)" d="M312.459 477.478L312.459 492.446" stroke="#000000" stroke-width="0.398" fill="none" /><path id="714" transform="matrix(1 0 0 -1 0 841)" d="M267.968 477.478L312.658 477.478" stroke="#000000" stroke-width="0.398" fill="none" /><path id="826" transform="matrix(1 0 0 -1 0 841)" d="M163.615 434.2L171.491 434.2" stroke="#000000" stroke-width="0.398" fill="none" /><path id="838" transform="matrix(1 0 0 -1 0 841)" d="M187.166 434.2L232.275 434.2" stroke="#000000" stroke-width="0.398" fill="none" /><path id="855" transform="matrix(1 0 0 -1 0 841)" d="M246.753 441.757L302.512 441.757" stroke="#000000" stroke-width="0.398" fill="none" /><path id="856" transform="matrix(1 0 0 -1 0 841)" d="M246.953 426.349L246.953 441.756" stroke="#000000" stroke-width="0.398" fill="none" /><path id="857" transform="matrix(1 0 0 -1 0 841)" d="M302.313 426.349L302.313 441.756" stroke="#000000" stroke-width="0.398" fill="none" /><path id="858" transform="matrix(1 0 0 -1 0 841)" d="M246.753 426.349L302.512 426.349" stroke="#000000" stroke-width="0.398" fill="none" /><path id="866" transform="matrix(1 0 0 -1 0 841)" d="M322.798 434.2L345.491 434.2" stroke="#000000" stroke-width="0.398" fill="none" /><path id="882" transform="matrix(1 0 0 -1 0 841)" d="M359.97 441.757L413.517 441.757" stroke="#000000" stroke-width="0.398" fill="none" /><path id="883" transform="matrix(1 0 0 -1 0 841)" d="M360.169 426.349L360.169 441.756" stroke="#000000" stroke-width="0.398" fill="none" /><path id="884" transform="matrix(1 0 0 -1 0 841)" d="M413.318 426.349L413.318 441.756" stroke="#000000" stroke-width="0.398" fill="none" /><path id="885" transform="matrix(1 0 0 -1 0 841)" d="M359.97 426.349L413.517 426.349" stroke="#000000" stroke-width="0.398" fill="none" /><path id="971" transform="matrix(1 0 0 -1 0 841)" d="M87.46884 361.963C 87.46884 366.6598 86.19965 370.4671 84.634 370.4671C 83.06836 370.4671 81.79916 366.6598 81.79916 361.963C 81.79916 357.2663 83.06836 353.4589 84.634 353.4589C 86.19965 353.4589 87.46884 357.2663 87.46884 361.963z" stroke="#000000" stroke-width="0.3985" fill="none" /><path id="972" transform="matrix(1 0 0 -1 0 841)" d="M370.937 361.963C 370.937 366.6598 369.6678 370.4671 368.1021 370.4671C 366.5364 370.4671 365.2672 366.6598 365.2672 361.963C 365.2672 357.2663 366.5364 353.4589 368.1021 353.4589C 369.6678 353.4589 370.937 357.2663 370.937 361.963z" stroke="#000000" stroke-width="0.3985" fill="none" /><path id="973" transform="matrix(1 0 0 -1 0 841)" d="M84.634 353.7426L368.1021 353.7426" stroke="#000000" stroke-width="0.3985" fill="none" /><path id="974" transform="matrix(1 0 0 -1 0 841)" d="M84.634 370.1834L368.1021 370.1834" stroke="#000000" stroke-width="0.3985" fill="none" /><path id="975" transform="matrix(1 0 0 -1 0 841)" d="M368.1021 354.4245L368.1021 369.5016" stroke="#000000" stroke-width="0.3985" fill="none" /><path id="976" transform="matrix(1 0 0 -1 0 841)" d="M370.4932 356.2975C 369.0585 355.9189 368.3811 355.0752 368.1021 354.2252C 367.8232 355.0752 367.1457 355.9189 365.7111 356.2975" stroke="#000000" stroke-width="0.3985" stroke-linecap="round" fill="none" /><path id="977" transform="matrix(1 0 0 -1 0 841)" d="M365.7111 367.6286C 367.1457 368.0071 367.8232 368.8508 368.1021 369.7008C 368.3811 368.8508 369.0585 368.0071 370.4932 367.6286" stroke="#000000" stroke-width="0.3985" stroke-linecap="round" fill="none" /><path id="989" transform="matrix(1 0 0 -1 0 841)" d="M85.0325 342.6874L367.7036 342.6874" stroke="#000000" stroke-width="0.3985" fill="none" /><path id="990" transform="matrix(1 0 0 -1 0 841)" d="M86.90549 340.2963C 86.5269 341.731 85.68324 342.4084 84.83325 342.6874C 85.68324 342.9663 86.5269 343.6438 86.90549 345.0784" stroke="#000000" stroke-width="0.3985" stroke-linecap="round" fill="none" /><path id="991" transform="matrix(1 0 0 -1 0 841)" d="M365.8306 345.0784C 366.2092 343.6438 367.0529 342.9663 367.9028 342.6874C 367.0529 342.4084 366.2092 341.731 365.8306 340.2963" stroke="#000000" stroke-width="0.3985" stroke-linecap="round" fill="none" /><path id="1011" transform="matrix(1 0 0 -1 0 841)" d="M489.559 329.307L495.595 329.307" stroke="#000000" stroke-width="0.398" fill="none" /><path id="1026" transform="matrix(1 0 0 -1 0 841)" d="M120.847 299.315L130.81 299.315" stroke="#000000" stroke-width="0.398" fill="none" /><path id="1052" transform="matrix(1 0 0 -1 0 841)" d="M209.11 299.315L241.302 299.315" stroke="#000000" stroke-width="0.398" fill="none" /><path id="1069" transform="matrix(1 0 0 -1 0 841)" d="M255.781 306.931L314.673 306.931" stroke="#000000" stroke-width="0.398" fill="none" /><path id="1070" transform="matrix(1 0 0 -1 0 841)" d="M255.98 291.699L255.98 306.931" stroke="#000000" stroke-width="0.398" fill="none" /><path id="1071" transform="matrix(1 0 0 -1 0 841)" d="M314.474 291.699L314.474 306.931" stroke="#000000" stroke-width="0.398" fill="none" /><path id="1072" transform="matrix(1 0 0 -1 0 841)" d="M255.781 291.699L314.673 291.699" stroke="#000000" stroke-width="0.398" fill="none" /><path id="1205" transform="matrix(1 0 0 -1 0 841)" d="M300.2266 193.22C 300.2266 197.9167 274.8444 201.7241 243.533 201.7241C 212.2216 201.7241 186.8394 197.9167 186.8394 193.22C 186.8394 188.5233 212.2216 184.7159 243.533 184.7159C 274.8444 184.7159 300.2266 188.5233 300.2266 193.22z" stroke="#000000" stroke-width="0.3985" fill="none" /><path id="1206" transform="matrix(1 0 0 -1 0 841)" d="M300.2266 128.0223C 300.2266 132.719 274.8444 136.5264 243.533 136.5264C 212.2216 136.5264 186.8394 132.719 186.8394 128.0223C 186.8394 123.3255 212.2216 119.5181 243.533 119.5181C 274.8444 119.5181 300.2266 123.3255 300.2266 128.0223z" stroke="#000000" stroke-width="0.3985" fill="none" /><path id="1207" transform="matrix(1 0 0 -1 0 841)" d="M300.2266 170.5425C 300.2266 175.2392 274.8444 179.0466 243.533 179.0466C 212.2216 179.0466 186.8394 175.2392 186.8394 170.5425C 186.8394 165.8457 212.2216 162.0384 243.533 162.0384C 274.8444 162.0384 300.2266 165.8457 300.2266 170.5425z" stroke="#000000" stroke-width="0.3985" fill="none" /><path id="1208" transform="matrix(1 0 0 -1 0 841)" d="M300.2266 128.0223L300.2266 193.22" stroke="#000000" stroke-width="0.3985" fill="none" /><path id="1209" transform="matrix(1 0 0 -1 0 841)" d="M187.2379 193.22L299.8281 193.22" stroke="#000000" stroke-width="0.3985" fill="none" /><path id="1210" transform="matrix(1 0 0 -1 0 841)" d="M189.1109 190.829C 188.7323 192.2636 187.8886 192.9411 187.0387 193.22C 187.8886 193.4989 188.7323 194.1764 189.1109 195.611" stroke="#000000" stroke-width="0.3985" stroke-linecap="round" fill="none" /><path id="1211" transform="matrix(1 0 0 -1 0 841)" d="M297.9551 195.611C 298.3337 194.1764 299.1774 193.4989 300.0273 193.22C 299.1774 192.9411 298.3337 192.2636 297.9551 190.829" stroke="#000000" stroke-width="0.3985" stroke-linecap="round" fill="none" /><path id="1228" transform="matrix(1 0 0 -1 0 841)" d="M169.8311 128.4208L169.8311 192.8215" stroke="#000000" stroke-width="0.3985" fill="none" /><path id="1229" transform="matrix(1 0 0 -1 0 841)" d="M172.2222 130.2937C 170.7875 129.9152 170.1101 129.0715 169.8311 128.2215C 169.5522 129.0715 168.8748 129.9152 167.4401 130.2937" stroke="#000000" stroke-width="0.3985" stroke-linecap="round" fill="none" /><path id="1230" transform="matrix(1 0 0 -1 0 841)" d="M167.4401 190.9485C 168.8748 191.3271 169.5522 192.1708 169.8311 193.0208C 170.1101 192.1708 170.7875 191.3271 172.2222 190.9485" stroke="#000000" stroke-width="0.3985" stroke-linecap="round" fill="none" /><path id="1245" transform="matrix(1 0 0 -1 0 841)" d="M314.4 128.4208L314.4 170.144" stroke="#000000" stroke-width="0.3985" fill="none" /><path id="1246" transform="matrix(1 0 0 -1 0 841)" d="M316.791 130.2937C 315.3564 129.9152 314.679 129.0715 314.4 128.2215C 314.121 129.0715 313.4436 129.9152 312.0089 130.2937" stroke="#000000" stroke-width="0.3985" stroke-linecap="round" fill="none" /><path id="1247" transform="matrix(1 0 0 -1 0 841)" d="M312.0089 168.271C 313.4436 168.6496 314.121 169.4932 314.4 170.3432C 314.679 169.4932 315.3564 168.6496 316.791 168.271" stroke="#000000" stroke-width="0.3985" stroke-linecap="round" fill="none" /><path id="1271" transform="matrix(1 0 0 -1 0 841)" d="M243.533 79.83276L300.2266 128.0223" stroke="#000000" stroke-width="0.3985" fill="none" /><path id="1272" transform="matrix(1 0 0 -1 0 841)" d="M243.533 79.83276L186.8394 128.0223" stroke="#000000" stroke-width="0.3985" fill="none" /><path id="1273" transform="matrix(1 0 0 -1 0 841)" d="M243.533 79.83276L300.2266 128.0223" stroke="#000000" stroke-width="0.3985" fill="none" /><path id="1274" transform="matrix(1 0 0 -1 0 841)" d="M186.8394 193.22L186.8394 128.0223" stroke="#000000" stroke-width="0.3985" fill="none" /><path id="1275" transform="matrix(1 0 0 -1 0 841)" d="M314.4 127.6238L314.4 80.23128" stroke="#000000" stroke-width="0.3985" fill="none" /><path id="1276" transform="matrix(1 0 0 -1 0 841)" d="M312.0089 125.7508C 313.4436 126.1294 314.121 126.973 314.4 127.823C 314.679 126.973 315.3564 126.1294 316.791 125.7508" stroke="#000000" stroke-width="0.3985" stroke-linecap="round" fill="none" /><path id="1277" transform="matrix(1 0 0 -1 0 841)" d="M316.791 82.10427C 315.3564 81.72568 314.679 80.88202 314.4 80.03203C 314.121 80.88202 313.4436 81.72568 312.0089 82.10427" stroke="#000000" stroke-width="0.3985" stroke-linecap="round" fill="none" /></g></g></svg>