<svg xmlns="http://www.w3.org/2000/svg" xmlns:xlink="http://www.w3.org/1999/xlink" id="body_102" preserveAspectRatio="xMinYMin meet" viewBox="0 0 793 1121"><defs><clipPath id="1"><path id="" clip-rule="evenodd" transform="matrix(1 0 0 1 0 0)" d="M0 841L0 -0.8900146L0 -0.8900146L595.276 -0.8900146L595.276 -0.8900146L595.276 841L595.276 841L0 841z" /></clipPath></defs><g transform="matrix(1.333333 0 0 1.333333 0 0)"><g clip-path="url(#1)"><path id="31" transform="matrix(1 0 0 -1 0 841)" d="M72 781.428L523.276 781.428" stroke="#3C71B7" stroke-width="0.398" fill="none" /><path id="79" transform="matrix(1 0 0 -1 0 841)" d="M121.348 738.916L149.022 738.916" stroke="#000000" stroke-width="0.398" fill="none" /><path id="448" transform="matrix(1 0 0 -1 0 841)" d="M196.705 557.607L211.649 557.607" stroke="#000000" stroke-width="0.398" fill="none" /><path id="473" transform="matrix(1 0 0 -1 0 841)" d="M121.348 529.444L144.041 529.444" stroke="#000000" stroke-width="0.398" fill="none" /><path id="662" transform="matrix(1 0 0 -1 0 841)" d="M121.348 427.039L168.947 427.039" stroke="#000000" stroke-width="0.398" fill="none" /><path id="934" transform="matrix(1 0 0 -1 0 841)" d="M187.65 301.941L218.091 301.941" stroke="#000000" stroke-width="0.398" fill="none" /><path id="1184" transform="matrix(1 0 0 -1 0 841)" d="M187.65 178.016L223.073 178.016" stroke="#000000" stroke-width="0.398" fill="none" /><path id="1380" transform="matrix(1 0 0 -1 0 841)" d="M148.466 95.526L161.196 95.526" stroke="#000000" stroke-width="0.398" fill="none" /></g></g></svg>