<svg xmlns="http://www.w3.org/2000/svg" xmlns:xlink="http://www.w3.org/1999/xlink" id="body_55" preserveAspectRatio="xMinYMin meet" viewBox="0 0 793 1121"><defs><clipPath id="1"><path id="" clip-rule="evenodd" transform="matrix(1 0 0 1 0 0)" d="M0 841L0 -0.8900146L0 -0.8900146L595.276 -0.8900146L595.276 -0.8900146L595.276 841L595.276 841L0 841z" /></clipPath></defs><g transform="matrix(1.333333 0 0 1.333333 0 0)"><g clip-path="url(#1)"><path id="1" transform="matrix(1 0 0 -1 0 841)" d="M56.693 786.949L538.583 786.949" stroke="#3C71B7" stroke-width="0.398" fill="none" /><path id="115" transform="matrix(1 0 0 -1 0 841)" d="M197.404 707.386L283.146 707.386" stroke="#000000" stroke-width="0.398" fill="none" /><path id="116" transform="matrix(1 0 0 -1 0 841)" d="M197.603 689.569L197.603 707.386" stroke="#000000" stroke-width="0.398" fill="none" /><path id="117" transform="matrix(1 0 0 -1 0 841)" d="M282.947 689.569L282.947 707.386" stroke="#000000" stroke-width="0.398" fill="none" /><path id="118" transform="matrix(1 0 0 -1 0 841)" d="M197.404 689.569L283.146 689.569" stroke="#000000" stroke-width="0.398" fill="none" /><path id="302" transform="matrix(1 0 0 -1 0 841)" d="M238.771 564.484L246.647 564.484" stroke="#000000" stroke-width="0.398" fill="none" /><path id="308" transform="matrix(1 0 0 -1 0 841)" d="M262.321 564.484L289.995 564.484" stroke="#000000" stroke-width="0.398" fill="none" /><path id="330" transform="matrix(1 0 0 -1 0 841)" d="M304.474 572.653L380.766 572.653" stroke="#000000" stroke-width="0.398" fill="none" /><path id="331" transform="matrix(1 0 0 -1 0 841)" d="M304.673 556.314L304.673 572.653" stroke="#000000" stroke-width="0.398" fill="none" /><path id="332" transform="matrix(1 0 0 -1 0 841)" d="M380.567 556.314L380.567 572.653" stroke="#000000" stroke-width="0.398" fill="none" /><path id="333" transform="matrix(1 0 0 -1 0 841)" d="M304.474 556.314L380.766 556.314" stroke="#000000" stroke-width="0.398" fill="none" /><path id="495" transform="matrix(1 0 0 -1 0 841)" d="M103.954 432.707L158.749 432.707" stroke="#000000" stroke-width="0.398" fill="none" /><path id="546" transform="matrix(1 0 0 -1 0 841)" d="M225.62 410.886L253.294 410.886" stroke="#000000" stroke-width="0.398" fill="none" /><path id="569" transform="matrix(1 0 0 -1 0 841)" d="M267.773 419.056L349.046 419.056" stroke="#000000" stroke-width="0.398" fill="none" /><path id="570" transform="matrix(1 0 0 -1 0 841)" d="M267.972 402.717L267.972 419.056" stroke="#000000" stroke-width="0.398" fill="none" /><path id="571" transform="matrix(1 0 0 -1 0 841)" d="M348.847 402.717L348.847 419.056" stroke="#000000" stroke-width="0.398" fill="none" /><path id="572" transform="matrix(1 0 0 -1 0 841)" d="M267.773 402.717L349.046 402.717" stroke="#000000" stroke-width="0.398" fill="none" /><path id="765" transform="matrix(1 0 0 -1 0 841)" d="M157.895 245.826L194.421 245.826" stroke="#000000" stroke-width="0.398" fill="none" /><path id="777" transform="matrix(1 0 0 -1 0 841)" d="M231.216 258.483L249.376 258.483" stroke="#000000" stroke-width="0.398" fill="none" /><path id="785" transform="matrix(1 0 0 -1 0 841)" d="M263.943 258.483L300.18 258.483" stroke="#000000" stroke-width="0.398" fill="none" /><path id="797" transform="matrix(1 0 0 -1 0 841)" d="M314.747 258.483L332.907 258.483" stroke="#000000" stroke-width="0.398" fill="none" /><path id="800" transform="matrix(1 0 0 -1 0 841)" d="M210.095 245.826L334.102 245.826" stroke="#000000" stroke-width="0.398" fill="none" /><path id="809" transform="matrix(1 0 0 -1 0 841)" d="M282.317 233.434L292.28 233.434" stroke="#000000" stroke-width="0.398" fill="none" /><path id="824" transform="matrix(1 0 0 -1 0 841)" d="M348.581 253.996L402.229 253.996" stroke="#000000" stroke-width="0.398" fill="none" /><path id="825" transform="matrix(1 0 0 -1 0 841)" d="M348.781 237.657L348.781 253.996" stroke="#000000" stroke-width="0.398" fill="none" /><path id="826" transform="matrix(1 0 0 -1 0 841)" d="M402.03 237.657L402.03 253.996" stroke="#000000" stroke-width="0.398" fill="none" /><path id="827" transform="matrix(1 0 0 -1 0 841)" d="M348.581 237.657L402.229 237.657" stroke="#000000" stroke-width="0.398" fill="none" /><path id="901" transform="matrix(1 0 0 -1 0 841)" d="M103.954 158.698L131.628 158.698" stroke="#000000" stroke-width="0.398" fill="none" /><path id="921" transform="matrix(1 0 0 -1 0 841)" d="M216.763 158.698L226.726 158.698" stroke="#000000" stroke-width="0.398" fill="none" /><path id="959" transform="matrix(1 0 0 -1 0 841)" d="M101.265 130.147L109.141 130.147" stroke="#000000" stroke-width="0.398" fill="none" /><path id="967" transform="matrix(1 0 0 -1 0 841)" d="M124.815 130.147L152.489 130.147" stroke="#000000" stroke-width="0.398" fill="none" /></g></g></svg>