<svg xmlns="http://www.w3.org/2000/svg" xmlns:xlink="http://www.w3.org/1999/xlink" id="body_159" preserveAspectRatio="xMinYMin meet" viewBox="0 0 793 1121"><defs><clipPath id="1"><path id="" clip-rule="evenodd" transform="matrix(1 0 0 1 0 0)" d="M0 841L0 -0.8900146L0 -0.8900146L595.276 -0.8900146L595.276 -0.8900146L595.276 841L595.276 841L0 841z" /></clipPath></defs><g transform="matrix(1.333333 0 0 1.333333 0 0)"><g clip-path="url(#1)"><path id="19" transform="matrix(1 0 0 -1 0 841)" d="M72 781.428L523.276 781.428" stroke="#3C71B7" stroke-width="0.398" fill="none" /><path id="97" transform="matrix(1 0 0 -1 0 841)" d="M232.928 743.431L260.602 743.431" stroke="#000000" stroke-width="0.398" fill="none" /><path id="121" transform="matrix(1 0 0 -1 0 841)" d="M267.974 743.431L355.707 743.431" stroke="#000000" stroke-width="0.398" fill="none" /><path id="171" transform="matrix(1 0 0 -1 0 841)" d="M367.507 743.431L462.336 743.431" stroke="#000000" stroke-width="0.398" fill="none" /><path id="195" transform="matrix(1 0 0 -1 0 841)" d="M476.815 751.601L509.603 751.601" stroke="#000000" stroke-width="0.398" fill="none" /><path id="196" transform="matrix(1 0 0 -1 0 841)" d="M477.014 737.199L477.014 751.601" stroke="#000000" stroke-width="0.398" fill="none" /><path id="197" transform="matrix(1 0 0 -1 0 841)" d="M509.404 737.199L509.404 751.601" stroke="#000000" stroke-width="0.398" fill="none" /><path id="198" transform="matrix(1 0 0 -1 0 841)" d="M476.815 737.199L509.603 737.199" stroke="#000000" stroke-width="0.398" fill="none" /><path id="543" transform="matrix(1 0 0 -1 0 841)" d="M176.141 539.828L281.32 539.828" stroke="#000000" stroke-width="0.398" fill="none" /><path id="567" transform="matrix(1 0 0 -1 0 841)" d="M343.226 539.828L360.937 539.828" stroke="#000000" stroke-width="0.398" fill="none" /><path id="579" transform="matrix(1 0 0 -1 0 841)" d="M375.416 547.444L411.818 547.444" stroke="#000000" stroke-width="0.398" fill="none" /><path id="580" transform="matrix(1 0 0 -1 0 841)" d="M375.615 534.149L375.615 547.444" stroke="#000000" stroke-width="0.398" fill="none" /><path id="581" transform="matrix(1 0 0 -1 0 841)" d="M411.619 534.149L411.619 547.444" stroke="#000000" stroke-width="0.398" fill="none" /><path id="582" transform="matrix(1 0 0 -1 0 841)" d="M375.416 534.149L411.818 534.149" stroke="#000000" stroke-width="0.398" fill="none" /></g></g></svg>