<svg xmlns="http://www.w3.org/2000/svg" xmlns:xlink="http://www.w3.org/1999/xlink" id="body_162" preserveAspectRatio="xMinYMin meet" viewBox="0 0 793 1121"><defs><clipPath id="1"><path id="" clip-rule="evenodd" transform="matrix(1 0 0 1 0 0)" d="M0 841L0 -0.8900146L0 -0.8900146L595.276 -0.8900146L595.276 -0.8900146L595.276 841L595.276 841L0 841z" /></clipPath></defs><g transform="matrix(1.333333 0 0 1.333333 0 0)"><g clip-path="url(#1)"><path id="19" transform="matrix(1 0 0 -1 0 841)" d="M85.039 766.564L510.236 766.564" stroke="#000000" stroke-width="0.498" fill="none" /><g transform="matrix(0.2290875 0 0 0.2290875 85.039 84.14929)"><g transform="matrix(1 0 0 1 0 0)"><image x="0" y="0" xlink:href="img_224.png" width="1856" height="625" /></g></g><path id="526" transform="matrix(1 0 0 -1 0 841)" d="M247.77 407.222L414.372 407.222" stroke="#000000" stroke-width="0.436" fill="none" /><path id="1279" transform="matrix(1 0 0 -1 0 841)" d="M177.796 177.263L285.282 177.263" stroke="#000000" stroke-width="0.436" fill="none" /></g></g></svg>