<svg xmlns="http://www.w3.org/2000/svg" xmlns:xlink="http://www.w3.org/1999/xlink" id="body_112" preserveAspectRatio="xMinYMin meet" viewBox="0 0 793 1121"><defs><clipPath id="1"><path id="" clip-rule="evenodd" transform="matrix(1 0 0 1 0 0)" d="M0 841L0 -0.8900146L0 -0.8900146L595.276 -0.8900146L595.276 -0.8900146L595.276 841L595.276 841L0 841z" /></clipPath></defs><g transform="matrix(1.333333 0 0 1.333333 0 0)"><g clip-path="url(#1)"><g transform="matrix(0.162291 0 0 0.162291 0.199 -0.6912842)"><g transform="matrix(1 0 0 1 0 0)"><image x="0" y="0" xlink:href="img_144.png" width="3668" height="1953" /></g></g><path id="3" transform="matrix(1 0 0 -1 0 841)" d="M724.611 610.1811L100.9809 610.1811C 92.72734 610.1811 86.03673 603.4905 86.03673 595.2369L86.03673 595.2369L86.03673 578.3002C 86.03673 570.0466 92.72734 563.3561 100.9809 563.3561L100.9809 563.3561L724.611 563.3561C 732.8644 563.3561 739.5551 570.0466 739.5551 578.3002L739.5551 578.3002L739.5551 595.2369C 739.5551 603.4905 732.8644 610.1811 724.611 610.1811z" stroke="#F36619" stroke-width="1.99255" fill="#FFFFFF" fill-rule="nonzero" fill-opacity="0.4980392" /><path id="21" transform="matrix(1 0 0 -1 0 841)" d="M85.039 463.75L563.688 463.75" stroke="#000000" stroke-width="0.398" fill="none" /><path id="22" transform="matrix(1 0 0 -1 0 841)" d="M85.239 450.001L85.239 463.55" stroke="#000000" stroke-width="0.398" fill="none" /><path id="75" transform="matrix(1 0 0 -1 0 841)" d="M563.489 450.001L563.489 463.55" stroke="#000000" stroke-width="0.398" fill="none" /><path id="76" transform="matrix(1 0 0 -1 0 841)" d="M85.039 449.802L563.688 449.802" stroke="#000000" stroke-width="0.398" fill="none" /><path id="77" transform="matrix(1 0 0 -1 0 841)" d="M85.239 436.053L85.239 449.602" stroke="#000000" stroke-width="0.398" fill="none" /><path id="121" transform="matrix(1 0 0 -1 0 841)" d="M563.489 436.053L563.489 449.602" stroke="#000000" stroke-width="0.398" fill="none" /><path id="122" transform="matrix(1 0 0 -1 0 841)" d="M85.039 435.854L563.688 435.854" stroke="#000000" stroke-width="0.398" fill="none" /><path id="123" transform="matrix(1 0 0 -1 0 841)" d="M85.239 422.106L85.239 435.655" stroke="#000000" stroke-width="0.398" fill="none" /><path id="126" transform="matrix(1 0 0 -1 0 841)" d="M125.939 422.106L125.939 435.655" stroke="#000000" stroke-width="0.398" fill="none" /><path id="176" transform="matrix(1 0 0 -1 0 841)" d="M563.489 422.106L563.489 435.655" stroke="#000000" stroke-width="0.398" fill="none" /><path id="177" transform="matrix(1 0 0 -1 0 841)" d="M85.039 421.906L563.688 421.906" stroke="#000000" stroke-width="0.398" fill="none" /><path id="178" transform="matrix(1 0 0 -1 0 841)" d="M85.239 408.158L85.239 421.707" stroke="#000000" stroke-width="0.398" fill="none" /><path id="181" transform="matrix(1 0 0 -1 0 841)" d="M125.939 408.158L125.939 421.707" stroke="#000000" stroke-width="0.398" fill="none" /><path id="218" transform="matrix(1 0 0 -1 0 841)" d="M563.489 408.158L563.489 421.707" stroke="#000000" stroke-width="0.398" fill="none" /><path id="219" transform="matrix(1 0 0 -1 0 841)" d="M85.039 407.959L563.688 407.959" stroke="#000000" stroke-width="0.398" fill="none" /><path id="220" transform="matrix(1 0 0 -1 0 841)" d="M85.239 394.21L85.239 407.759" stroke="#000000" stroke-width="0.398" fill="none" /><path id="223" transform="matrix(1 0 0 -1 0 841)" d="M125.939 394.21L125.939 407.759" stroke="#000000" stroke-width="0.398" fill="none" /><path id="250" transform="matrix(1 0 0 -1 0 841)" d="M563.489 394.21L563.489 407.759" stroke="#000000" stroke-width="0.398" fill="none" /><path id="251" transform="matrix(1 0 0 -1 0 841)" d="M85.039 394.011L563.688 394.011" stroke="#000000" stroke-width="0.398" fill="none" /><path id="252" transform="matrix(1 0 0 -1 0 841)" d="M85.239 380.263L85.239 393.812" stroke="#000000" stroke-width="0.398" fill="none" /><path id="255" transform="matrix(1 0 0 -1 0 841)" d="M125.939 380.263L125.939 393.812" stroke="#000000" stroke-width="0.398" fill="none" /><path id="291" transform="matrix(1 0 0 -1 0 841)" d="M563.489 380.263L563.489 393.812" stroke="#000000" stroke-width="0.398" fill="none" /><path id="292" transform="matrix(1 0 0 -1 0 841)" d="M85.039 380.063L563.688 380.063" stroke="#000000" stroke-width="0.398" fill="none" /><path id="293" transform="matrix(1 0 0 -1 0 841)" d="M85.239 366.315L85.239 379.864" stroke="#000000" stroke-width="0.398" fill="none" /><path id="296" transform="matrix(1 0 0 -1 0 841)" d="M125.939 366.315L125.939 379.864" stroke="#000000" stroke-width="0.398" fill="none" /><path id="327" transform="matrix(1 0 0 -1 0 841)" d="M563.489 366.315L563.489 379.864" stroke="#000000" stroke-width="0.398" fill="none" /><path id="328" transform="matrix(1 0 0 -1 0 841)" d="M85.039 366.116L563.688 366.116" stroke="#000000" stroke-width="0.398" fill="none" /><path id="329" transform="matrix(1 0 0 -1 0 841)" d="M85.239 352.367L85.239 365.916" stroke="#000000" stroke-width="0.398" fill="none" /><path id="332" transform="matrix(1 0 0 -1 0 841)" d="M125.939 352.367L125.939 365.916" stroke="#000000" stroke-width="0.398" fill="none" /><path id="372" transform="matrix(1 0 0 -1 0 841)" d="M563.489 352.367L563.489 365.916" stroke="#000000" stroke-width="0.398" fill="none" /><path id="373" transform="matrix(1 0 0 -1 0 841)" d="M85.039 352.168L563.688 352.168" stroke="#000000" stroke-width="0.398" fill="none" /><path id="374" transform="matrix(1 0 0 -1 0 841)" d="M85.239 338.42L85.239 351.969" stroke="#000000" stroke-width="0.398" fill="none" /><path id="377" transform="matrix(1 0 0 -1 0 841)" d="M125.939 338.42L125.939 351.969" stroke="#000000" stroke-width="0.398" fill="none" /><path id="415" transform="matrix(1 0 0 -1 0 841)" d="M563.489 338.42L563.489 351.969" stroke="#000000" stroke-width="0.398" fill="none" /><path id="416" transform="matrix(1 0 0 -1 0 841)" d="M85.039 338.22L563.688 338.22" stroke="#000000" stroke-width="0.398" fill="none" /><path id="417" transform="matrix(1 0 0 -1 0 841)" d="M85.239 324.472L85.239 338.021" stroke="#000000" stroke-width="0.398" fill="none" /><path id="420" transform="matrix(1 0 0 -1 0 841)" d="M125.939 324.472L125.939 338.021" stroke="#000000" stroke-width="0.398" fill="none" /><path id="480" transform="matrix(1 0 0 -1 0 841)" d="M563.489 324.472L563.489 338.021" stroke="#000000" stroke-width="0.398" fill="none" /><path id="481" transform="matrix(1 0 0 -1 0 841)" d="M85.039 324.273L563.688 324.273" stroke="#000000" stroke-width="0.398" fill="none" /><path id="482" transform="matrix(1 0 0 -1 0 841)" d="M85.239 310.524L85.239 324.073" stroke="#000000" stroke-width="0.398" fill="none" /><path id="517" transform="matrix(1 0 0 -1 0 841)" d="M563.489 310.524L563.489 324.073" stroke="#000000" stroke-width="0.398" fill="none" /><path id="518" transform="matrix(1 0 0 -1 0 841)" d="M85.039 310.325L563.688 310.325" stroke="#000000" stroke-width="0.398" fill="none" /><path id="519" transform="matrix(1 0 0 -1 0 841)" d="M85.239 296.577L85.239 310.126" stroke="#000000" stroke-width="0.398" fill="none" /><path id="522" transform="matrix(1 0 0 -1 0 841)" d="M125.939 296.577L125.939 310.126" stroke="#000000" stroke-width="0.398" fill="none" /><path id="566" transform="matrix(1 0 0 -1 0 841)" d="M563.489 296.577L563.489 310.126" stroke="#000000" stroke-width="0.398" fill="none" /><path id="567" transform="matrix(1 0 0 -1 0 841)" d="M85.039 296.377L563.688 296.377" stroke="#000000" stroke-width="0.398" fill="none" /><path id="568" transform="matrix(1 0 0 -1 0 841)" d="M85.239 282.629L85.239 296.178" stroke="#000000" stroke-width="0.398" fill="none" /><path id="571" transform="matrix(1 0 0 -1 0 841)" d="M125.939 282.629L125.939 296.178" stroke="#000000" stroke-width="0.398" fill="none" /><path id="618" transform="matrix(1 0 0 -1 0 841)" d="M563.489 282.629L563.489 296.178" stroke="#000000" stroke-width="0.398" fill="none" /><path id="619" transform="matrix(1 0 0 -1 0 841)" d="M85.039 282.43L563.688 282.43" stroke="#000000" stroke-width="0.398" fill="none" /><path id="620" transform="matrix(1 0 0 -1 0 841)" d="M85.239 268.681L85.239 282.23" stroke="#000000" stroke-width="0.398" fill="none" /><path id="623" transform="matrix(1 0 0 -1 0 841)" d="M125.939 268.681L125.939 282.23" stroke="#000000" stroke-width="0.398" fill="none" /><path id="661" transform="matrix(1 0 0 -1 0 841)" d="M563.489 268.681L563.489 282.23" stroke="#000000" stroke-width="0.398" fill="none" /><path id="662" transform="matrix(1 0 0 -1 0 841)" d="M85.039 268.482L563.688 268.482" stroke="#000000" stroke-width="0.398" fill="none" /><path id="663" transform="matrix(1 0 0 -1 0 841)" d="M85.239 254.734L85.239 268.283" stroke="#000000" stroke-width="0.398" fill="none" /><path id="666" transform="matrix(1 0 0 -1 0 841)" d="M125.939 254.734L125.939 268.283" stroke="#000000" stroke-width="0.398" fill="none" /><path id="716" transform="matrix(1 0 0 -1 0 841)" d="M563.489 254.734L563.489 268.283" stroke="#000000" stroke-width="0.398" fill="none" /><path id="717" transform="matrix(1 0 0 -1 0 841)" d="M85.039 254.534L563.688 254.534" stroke="#000000" stroke-width="0.398" fill="none" /><path id="718" transform="matrix(1 0 0 -1 0 841)" d="M85.239 240.786L85.239 254.335" stroke="#000000" stroke-width="0.398" fill="none" /><path id="721" transform="matrix(1 0 0 -1 0 841)" d="M125.939 240.786L125.939 254.335" stroke="#000000" stroke-width="0.398" fill="none" /><path id="756" transform="matrix(1 0 0 -1 0 841)" d="M563.489 240.786L563.489 254.335" stroke="#000000" stroke-width="0.398" fill="none" /><path id="757" transform="matrix(1 0 0 -1 0 841)" d="M85.039 240.587L563.688 240.587" stroke="#000000" stroke-width="0.398" fill="none" /><path id="758" transform="matrix(1 0 0 -1 0 841)" d="M85.239 226.838L85.239 240.387" stroke="#000000" stroke-width="0.398" fill="none" /><path id="761" transform="matrix(1 0 0 -1 0 841)" d="M125.939 226.838L125.939 240.387" stroke="#000000" stroke-width="0.398" fill="none" /><path id="811" transform="matrix(1 0 0 -1 0 841)" d="M563.489 226.838L563.489 240.387" stroke="#000000" stroke-width="0.398" fill="none" /><path id="812" transform="matrix(1 0 0 -1 0 841)" d="M85.039 226.639L563.688 226.639" stroke="#000000" stroke-width="0.398" fill="none" /><path id="813" transform="matrix(1 0 0 -1 0 841)" d="M85.239 212.891L85.239 226.44" stroke="#000000" stroke-width="0.398" fill="none" /><path id="816" transform="matrix(1 0 0 -1 0 841)" d="M125.939 212.891L125.939 226.44" stroke="#000000" stroke-width="0.398" fill="none" /><path id="864" transform="matrix(1 0 0 -1 0 841)" d="M563.489 212.891L563.489 226.44" stroke="#000000" stroke-width="0.398" fill="none" /><path id="865" transform="matrix(1 0 0 -1 0 841)" d="M85.039 212.691L563.688 212.691" stroke="#000000" stroke-width="0.398" fill="none" /><path id="866" transform="matrix(1 0 0 -1 0 841)" d="M85.239 198.943L85.239 212.492" stroke="#000000" stroke-width="0.398" fill="none" /><path id="869" transform="matrix(1 0 0 -1 0 841)" d="M125.939 198.943L125.939 212.492" stroke="#000000" stroke-width="0.398" fill="none" /><path id="916" transform="matrix(1 0 0 -1 0 841)" d="M563.489 198.943L563.489 212.492" stroke="#000000" stroke-width="0.398" fill="none" /><path id="917" transform="matrix(1 0 0 -1 0 841)" d="M85.039 198.744L563.688 198.744" stroke="#000000" stroke-width="0.398" fill="none" /><path id="918" transform="matrix(1 0 0 -1 0 841)" d="M85.239 184.995L85.239 198.544" stroke="#000000" stroke-width="0.398" fill="none" /><path id="921" transform="matrix(1 0 0 -1 0 841)" d="M125.939 184.995L125.939 198.544" stroke="#000000" stroke-width="0.398" fill="none" /><path id="978" transform="matrix(1 0 0 -1 0 841)" d="M563.489 184.995L563.489 198.544" stroke="#000000" stroke-width="0.398" fill="none" /><path id="979" transform="matrix(1 0 0 -1 0 841)" d="M85.039 184.796L563.688 184.796" stroke="#000000" stroke-width="0.398" fill="none" /><path id="980" transform="matrix(1 0 0 -1 0 841)" d="M85.239 171.047L85.239 184.596" stroke="#000000" stroke-width="0.398" fill="none" /><path id="983" transform="matrix(1 0 0 -1 0 841)" d="M125.939 171.047L125.939 184.596" stroke="#000000" stroke-width="0.398" fill="none" /><path id="1044" transform="matrix(1 0 0 -1 0 841)" d="M563.489 171.047L563.489 184.596" stroke="#000000" stroke-width="0.398" fill="none" /><path id="1045" transform="matrix(1 0 0 -1 0 841)" d="M85.039 170.848L563.688 170.848" stroke="#000000" stroke-width="0.398" fill="none" /><path id="1046" transform="matrix(1 0 0 -1 0 841)" d="M85.239 157.1L85.239 170.649" stroke="#000000" stroke-width="0.398" fill="none" /><path id="1049" transform="matrix(1 0 0 -1 0 841)" d="M125.939 157.1L125.939 170.649" stroke="#000000" stroke-width="0.398" fill="none" /><path id="1083" transform="matrix(1 0 0 -1 0 841)" d="M563.489 157.1L563.489 170.649" stroke="#000000" stroke-width="0.398" fill="none" /><path id="1084" transform="matrix(1 0 0 -1 0 841)" d="M85.039 156.901L563.688 156.901" stroke="#000000" stroke-width="0.398" fill="none" /><path id="1085" transform="matrix(1 0 0 -1 0 841)" d="M85.239 143.152L85.239 156.701" stroke="#000000" stroke-width="0.398" fill="none" /><path id="1088" transform="matrix(1 0 0 -1 0 841)" d="M125.939 143.152L125.939 156.701" stroke="#000000" stroke-width="0.398" fill="none" /><path id="1123" transform="matrix(1 0 0 -1 0 841)" d="M563.489 143.152L563.489 156.701" stroke="#000000" stroke-width="0.398" fill="none" /><path id="1124" transform="matrix(1 0 0 -1 0 841)" d="M85.039 142.953L563.688 142.953" stroke="#000000" stroke-width="0.398" fill="none" /><path id="1125" transform="matrix(1 0 0 -1 0 841)" d="M85.239 129.204L85.239 142.753" stroke="#000000" stroke-width="0.398" fill="none" /><path id="1128" transform="matrix(1 0 0 -1 0 841)" d="M125.939 129.204L125.939 142.753" stroke="#000000" stroke-width="0.398" fill="none" /><path id="1166" transform="matrix(1 0 0 -1 0 841)" d="M563.489 129.204L563.489 142.753" stroke="#000000" stroke-width="0.398" fill="none" /><path id="1167" transform="matrix(1 0 0 -1 0 841)" d="M85.039 129.005L563.688 129.005" stroke="#000000" stroke-width="0.398" fill="none" /><path id="1168" transform="matrix(1 0 0 -1 0 841)" d="M85.239 115.257L85.239 128.806" stroke="#000000" stroke-width="0.398" fill="none" /><path id="1171" transform="matrix(1 0 0 -1 0 841)" d="M125.939 115.257L125.939 128.806" stroke="#000000" stroke-width="0.398" fill="none" /><path id="1225" transform="matrix(1 0 0 -1 0 841)" d="M563.489 115.257L563.489 128.806" stroke="#000000" stroke-width="0.398" fill="none" /><path id="1226" transform="matrix(1 0 0 -1 0 841)" d="M85.039 115.058L563.688 115.058" stroke="#000000" stroke-width="0.398" fill="none" /><path id="1227" transform="matrix(1 0 0 -1 0 841)" d="M85.239 101.309L85.239 114.858" stroke="#000000" stroke-width="0.398" fill="none" /><path id="1230" transform="matrix(1 0 0 -1 0 841)" d="M125.939 101.309L125.939 114.858" stroke="#000000" stroke-width="0.398" fill="none" /><path id="1298" transform="matrix(1 0 0 -1 0 841)" d="M563.489 101.309L563.489 114.858" stroke="#000000" stroke-width="0.398" fill="none" /><path id="1299" transform="matrix(1 0 0 -1 0 841)" d="M85.039 101.11L563.688 101.11" stroke="#000000" stroke-width="0.398" fill="none" /></g></g></svg>