<svg xmlns="http://www.w3.org/2000/svg" xmlns:xlink="http://www.w3.org/1999/xlink" id="body_285" preserveAspectRatio="xMinYMin meet" viewBox="0 0 793 1121"><defs><clipPath id="1"><path id="" clip-rule="evenodd" transform="matrix(1 0 0 1 0 0)" d="M0 841L0 -0.8900146L0 -0.8900146L595.276 -0.8900146L595.276 -0.8900146L595.276 841L595.276 841L0 841z" /></clipPath></defs><g transform="matrix(1.333333 0 0 1.333333 0 0)"><g clip-path="url(#1)"><path id="22" transform="matrix(1 0 0 -1 0 841)" d="M85.039 766.564L510.236 766.564" stroke="#000000" stroke-width="0.498" fill="none" /><path id="1085" transform="matrix(1 0 0 -1 0 841)" d="M193.802 431.046L247.289 431.046" stroke="#000000" stroke-width="0.436" fill="none" /><path id="1101" transform="matrix(1 0 0 -1 0 841)" d="M263.005 431.046L298.765 431.046" stroke="#000000" stroke-width="0.436" fill="none" /><path id="1212" transform="matrix(1 0 0 -1 0 841)" d="M191.31 363.228L244.797 363.228" stroke="#000000" stroke-width="0.436" fill="none" /><path id="1238" transform="matrix(1 0 0 -1 0 841)" d="M330.907 363.228L384.394 363.228" stroke="#000000" stroke-width="0.436" fill="none" /><path id="1261" transform="matrix(1 0 0 -1 0 841)" d="M478.839 363.228L495.203 363.228" stroke="#000000" stroke-width="0.436" fill="none" /><path id="1269" transform="matrix(1 0 0 -1 0 841)" d="M112.312 351.653L136.661 351.653" stroke="#000000" stroke-width="0.398" fill="none" /><path id="1270" transform="matrix(1 0 0 -1 0 841)" d="M112.511 337.657L112.511 351.653" stroke="#000000" stroke-width="0.398" fill="none" /><path id="1271" transform="matrix(1 0 0 -1 0 841)" d="M136.462 337.657L136.462 351.653" stroke="#000000" stroke-width="0.398" fill="none" /><path id="1272" transform="matrix(1 0 0 -1 0 841)" d="M112.312 337.657L136.661 337.657" stroke="#000000" stroke-width="0.398" fill="none" /><path id="1492" transform="matrix(1 0 0 -1 0 841)" d="M191.075 257.801L244.562 257.801" stroke="#000000" stroke-width="0.436" fill="none" /><path id="1508" transform="matrix(1 0 0 -1 0 841)" d="M260.278 257.801L296.038 257.801" stroke="#000000" stroke-width="0.436" fill="none" /></g></g></svg>