<svg xmlns="http://www.w3.org/2000/svg" xmlns:xlink="http://www.w3.org/1999/xlink" id="body_352" preserveAspectRatio="xMinYMin meet" viewBox="0 0 793 1121"><defs><clipPath id="1"><path id="" clip-rule="evenodd" transform="matrix(1 0 0 1 0 0)" d="M0 841L0 -0.8900146L0 -0.8900146L595.276 -0.8900146L595.276 -0.8900146L595.276 841L595.276 841L0 841z" /></clipPath></defs><g transform="matrix(1.333333 0 0 1.333333 0 0)"><g clip-path="url(#1)"><path id="34" transform="matrix(1 0 0 -1 0 841)" d="M85.039 766.564L510.236 766.564" stroke="#000000" stroke-width="0.498" fill="none" /><path id="67" transform="matrix(1 0 0 -1 0 841)" d="M243.067 744.011L315.895 744.011" stroke="#000000" stroke-width="0.436" fill="none" /><path id="144" transform="matrix(1 0 0 -1 0 841)" d="M462.681 724.208L519.354 724.208" stroke="#000000" stroke-width="0.398" fill="none" /><path id="145" transform="matrix(1 0 0 -1 0 841)" d="M462.881 708.308L462.881 724.208" stroke="#000000" stroke-width="0.398" fill="none" /><path id="146" transform="matrix(1 0 0 -1 0 841)" d="M519.155 708.308L519.155 724.208" stroke="#000000" stroke-width="0.398" fill="none" /><path id="147" transform="matrix(1 0 0 -1 0 841)" d="M462.681 708.308L519.354 708.308" stroke="#000000" stroke-width="0.398" fill="none" /><path id="344" transform="matrix(1 0 0 -1 0 841)" d="M264.928 579.34L423.707 579.34" stroke="#000000" stroke-width="0.436" fill="none" /><path id="415" transform="matrix(1 0 0 -1 0 841)" d="M264.928 549.127L411.567 549.127" stroke="#000000" stroke-width="0.436" fill="none" /><path id="421" transform="matrix(1 0 0 -1 0 841)" d="M266.123 531.322L288.977 531.322" stroke="#000000" stroke-width="0.436" fill="none" /><path id="436" transform="matrix(1 0 0 -1 0 841)" d="M299.853 531.322L329.743 531.322" stroke="#000000" stroke-width="0.436" fill="none" /><path id="447" transform="matrix(1 0 0 -1 0 841)" d="M340.619 531.322L374.502 531.322" stroke="#000000" stroke-width="0.436" fill="none" /><path id="463" transform="matrix(1 0 0 -1 0 841)" d="M385.378 531.322L410.37 531.322" stroke="#000000" stroke-width="0.436" fill="none" /><path id="477" transform="matrix(1 0 0 -1 0 841)" d="M426.086 557.099L466.329 557.099" stroke="#000000" stroke-width="0.398" fill="none" /><path id="478" transform="matrix(1 0 0 -1 0 841)" d="M426.286 543.043L426.286 557.099" stroke="#000000" stroke-width="0.398" fill="none" /><path id="479" transform="matrix(1 0 0 -1 0 841)" d="M466.13 543.043L466.13 557.099" stroke="#000000" stroke-width="0.398" fill="none" /><path id="480" transform="matrix(1 0 0 -1 0 841)" d="M426.086 543.043L466.329 543.043" stroke="#000000" stroke-width="0.398" fill="none" /><path id="651" transform="matrix(1 0 0 -1 0 841)" d="M264.928 442.427L375.533 442.427" stroke="#000000" stroke-width="0.436" fill="none" /><path id="783" transform="matrix(1 0 0 -1 0 841)" d="M350.384 393.08L366.704 393.08" stroke="#000000" stroke-width="0.436" fill="none" /><path id="791" transform="matrix(1 0 0 -1 0 841)" d="M377.58 393.08L408.027 393.08" stroke="#000000" stroke-width="0.436" fill="none" /><path id="810" transform="matrix(1 0 0 -1 0 841)" d="M429.059 401.051L496.991 401.051" stroke="#000000" stroke-width="0.398" fill="none" /><path id="811" transform="matrix(1 0 0 -1 0 841)" d="M429.259 384.939L429.259 401.051" stroke="#000000" stroke-width="0.398" fill="none" /><path id="812" transform="matrix(1 0 0 -1 0 841)" d="M496.792 384.939L496.792 401.051" stroke="#000000" stroke-width="0.398" fill="none" /><path id="813" transform="matrix(1 0 0 -1 0 841)" d="M429.059 384.939L496.991 384.939" stroke="#000000" stroke-width="0.398" fill="none" /><path id="955" transform="matrix(1 0 0 -1 0 841)" d="M225.482 304.326L343.136 304.326" stroke="#000000" stroke-width="0.436" fill="none" /><path id="988" transform="matrix(1 0 0 -1 0 841)" d="M358.852 304.326L427.183 304.326" stroke="#000000" stroke-width="0.436" fill="none" /><path id="1015" transform="matrix(1 0 0 -1 0 841)" d="M441.702 315.164L509.316 315.164" stroke="#000000" stroke-width="0.398" fill="none" /><path id="1016" transform="matrix(1 0 0 -1 0 841)" d="M441.902 295.684L441.902 315.165" stroke="#000000" stroke-width="0.398" fill="none" /><path id="1017" transform="matrix(1 0 0 -1 0 841)" d="M509.117 295.684L509.117 315.165" stroke="#000000" stroke-width="0.398" fill="none" /><path id="1018" transform="matrix(1 0 0 -1 0 841)" d="M441.702 295.684L509.316 295.684" stroke="#000000" stroke-width="0.398" fill="none" /><path id="1145" transform="matrix(1 0 0 -1 0 841)" d="M225.482 222.553L343.136 222.553" stroke="#000000" stroke-width="0.436" fill="none" /><path id="1178" transform="matrix(1 0 0 -1 0 841)" d="M358.852 222.553L427.554 222.553" stroke="#000000" stroke-width="0.436" fill="none" /><path id="1204" transform="matrix(1 0 0 -1 0 841)" d="M442.074 233.391L504.233 233.391" stroke="#000000" stroke-width="0.398" fill="none" /><path id="1205" transform="matrix(1 0 0 -1 0 841)" d="M442.273 213.91L442.273 233.391" stroke="#000000" stroke-width="0.398" fill="none" /><path id="1206" transform="matrix(1 0 0 -1 0 841)" d="M504.033 213.91L504.033 233.391" stroke="#000000" stroke-width="0.398" fill="none" /><path id="1207" transform="matrix(1 0 0 -1 0 841)" d="M442.074 213.91L504.233 213.91" stroke="#000000" stroke-width="0.398" fill="none" /><path id="1343" transform="matrix(1 0 0 -1 0 841)" d="M212.697 140.779L281.576 140.779" stroke="#000000" stroke-width="0.436" fill="none" /><path id="1364" transform="matrix(1 0 0 -1 0 841)" d="M139.543 106.597L181.957 106.597" stroke="#000000" stroke-width="0.436" fill="none" /><path id="1381" transform="matrix(1 0 0 -1 0 841)" d="M192.833 106.597L258.213 106.597" stroke="#000000" stroke-width="0.436" fill="none" /><path id="1388" transform="matrix(1 0 0 -1 0 841)" d="M269.089 106.597L313.336 106.597" stroke="#000000" stroke-width="0.436" fill="none" /><path id="1396" transform="matrix(1 0 0 -1 0 841)" d="M138.347 92.498L314.531 92.498" stroke="#000000" stroke-width="0.436" fill="none" /><path id="1420" transform="matrix(1 0 0 -1 0 841)" d="M329.052 101.081L398.849 101.081" stroke="#000000" stroke-width="0.398" fill="none" /><path id="1421" transform="matrix(1 0 0 -1 0 841)" d="M329.251 83.855L329.251 101.08" stroke="#000000" stroke-width="0.398" fill="none" /><path id="1422" transform="matrix(1 0 0 -1 0 841)" d="M398.649 83.855L398.649 101.08" stroke="#000000" stroke-width="0.398" fill="none" /><path id="1423" transform="matrix(1 0 0 -1 0 841)" d="M329.052 83.855L398.849 83.855" stroke="#000000" stroke-width="0.398" fill="none" /></g></g></svg>