<svg xmlns="http://www.w3.org/2000/svg" xmlns:xlink="http://www.w3.org/1999/xlink" id="body_5" preserveAspectRatio="xMinYMin meet" viewBox="0 0 793 1121"><defs><clipPath id="1"><path id="" clip-rule="evenodd" transform="matrix(1 0 0 1 0 0)" d="M0 841L0 -0.8900146L0 -0.8900146L595.276 -0.8900146L595.276 -0.8900146L595.276 841L595.276 841L0 841z" /></clipPath></defs><g transform="matrix(1.333333 0 0 1.333333 0 0)"><g clip-path="url(#1)"><path id="146" transform="matrix(1 0 0 -1 0 841)" d="M85.039 674.568L115.07 674.568L115.07 694.41L85.039 694.41z" stroke="none" fill="#FDE0D1" fill-rule="nonzero" /><path id="148" transform="matrix(1 0 0 -1 0 841)" d="M119.055 674.568L510.236 674.568L510.236 694.41L119.055 694.41z" stroke="none" fill="#FAC2A3" fill-rule="nonzero" /><path id="1899" transform="matrix(1 0 0 -1 0 841)" d="M85.039 131.647L115.07 131.647L115.07 151.489L85.039 151.489z" stroke="none" fill="#FDE0D1" fill-rule="nonzero" /><path id="1902" transform="matrix(1 0 0 -1 0 841)" d="M119.055 131.647L510.236 131.647L510.236 151.489L119.055 151.489z" stroke="none" fill="#FAC2A3" fill-rule="nonzero" /></g></g></svg>