<svg xmlns="http://www.w3.org/2000/svg" xmlns:xlink="http://www.w3.org/1999/xlink" id="body_410" preserveAspectRatio="xMinYMin meet" viewBox="0 0 793 1121"><defs><clipPath id="1"><path id="" clip-rule="evenodd" transform="matrix(1 0 0 1 0 0)" d="M0 841L0 -0.8900146L0 -0.8900146L595.276 -0.8900146L595.276 -0.8900146L595.276 841L595.276 841L0 841z" /></clipPath></defs><g transform="matrix(1.333333 0 0 1.333333 0 0)"><g clip-path="url(#1)"><g transform="matrix(0.1 0 0 0.09999999 264.336 262.749)"><g transform="matrix(1 0 0 1 0 0)"><image x="0" y="0" xlink:href="img_564.png" width="666" height="933" /></g></g><path id="553" transform="matrix(1 0 0 -1 0 841)" d="M190.076 609.791L405.199 609.791" stroke="#000000" stroke-width="0.398" fill="none" /><path id="554" transform="matrix(1 0 0 -1 0 841)" d="M190.275 213.399L190.275 609.791" stroke="#000000" stroke-width="0.398" fill="none" /><path id="555" transform="matrix(1 0 0 -1 0 841)" d="M405 213.399L405 609.791" stroke="#000000" stroke-width="0.398" fill="none" /><path id="556" transform="matrix(1 0 0 -1 0 841)" d="M190.076 213.399L405.199 213.399" stroke="#000000" stroke-width="0.398" fill="none" /></g></g></svg>