<svg xmlns="http://www.w3.org/2000/svg" xmlns:xlink="http://www.w3.org/1999/xlink" id="body_41" preserveAspectRatio="xMinYMin meet" viewBox="0 0 793 1121"><defs><clipPath id="1"><path id="" clip-rule="evenodd" transform="matrix(1 0 0 1 0 0)" d="M0 841L0 -0.8900146L0 -0.8900146L595.276 -0.8900146L595.276 -0.8900146L595.276 841L595.276 841L0 841z" /></clipPath></defs><g transform="matrix(1.333333 0 0 1.333333 0 0)"><g clip-path="url(#1)"><path id="37" transform="matrix(1 0 0 -1 0 841)" d="M85.039 766.564L510.236 766.564" stroke="#000000" stroke-width="0.498" fill="none" /><path id="205" transform="matrix(1 0 0 -1 0 841)" d="M112.063 691.646L132.895 691.646" stroke="#000000" stroke-width="0.491" fill="none" /><path id="210" transform="matrix(1 0 0 -1 0 841)" d="M132.604 691.646L135.34 691.646" stroke="#000000" stroke-width="0.491" fill="none" /><path id="211" transform="matrix(1 0 0 -1 0 841)" d="M135.091 691.646L163.451 691.646" stroke="#000000" stroke-width="0.491" fill="none" /><path id="331" transform="matrix(1 0 0 -1 0 841)" d="M112.063 657.773L141.863 657.773" stroke="#000000" stroke-width="0.491" fill="none" /><path id="338" transform="matrix(1 0 0 -1 0 841)" d="M142.207 657.773L145.656 657.773" stroke="#000000" stroke-width="0.491" fill="none" /><path id="339" transform="matrix(1 0 0 -1 0 841)" d="M145.407 657.773L174.868 657.773" stroke="#000000" stroke-width="0.491" fill="none" /><path id="531" transform="matrix(1 0 0 -1 0 841)" d="M112.063 606.963L138.012 606.963" stroke="#000000" stroke-width="0.491" fill="none" /><path id="740" transform="matrix(1 0 0 -1 0 841)" d="M112.063 556.154L145.888 556.154" stroke="#000000" stroke-width="0.491" fill="none" /><path id="747" transform="matrix(1 0 0 -1 0 841)" d="M146.306 556.154L149.363 556.154" stroke="#000000" stroke-width="0.491" fill="none" /><path id="748" transform="matrix(1 0 0 -1 0 841)" d="M149.114 556.154L166.575 556.154" stroke="#000000" stroke-width="0.491" fill="none" /><path id="852" transform="matrix(1 0 0 -1 0 841)" d="M112.063 522.281L128.925 522.281" stroke="#000000" stroke-width="0.491" fill="none" /><path id="856" transform="matrix(1 0 0 -1 0 841)" d="M128.754 522.281L132.285 522.281" stroke="#000000" stroke-width="0.491" fill="none" /><path id="858" transform="matrix(1 0 0 -1 0 841)" d="M131.847 522.281L149.309 522.281" stroke="#000000" stroke-width="0.491" fill="none" /><path id="863" transform="matrix(1 0 0 -1 0 841)" d="M149.399 522.281L152.49 522.281" stroke="#000000" stroke-width="0.491" fill="none" /><path id="864" transform="matrix(1 0 0 -1 0 841)" d="M152.24 522.281L169.701 522.281" stroke="#000000" stroke-width="0.491" fill="none" /><g transform="matrix(0.45 0 0 0.45 201.787 413.033)"><g transform="matrix(1 0 0 1 0 0)"><image x="0" y="0" xlink:href="img_54.png" width="426" height="523" /></g></g></g></g></svg>