<svg xmlns="http://www.w3.org/2000/svg" xmlns:xlink="http://www.w3.org/1999/xlink" id="body_219" preserveAspectRatio="xMinYMin meet" viewBox="0 0 1121 793"><defs><clipPath id="1"><path id="" clip-rule="evenodd" transform="matrix(1 0 0 1 0 0)" d="M0 -0.276001L841.89 -0.276001L841.89 -0.276001L841.89 595L841.89 595L3.644894E-14 595L3.644894E-14 595L0 -0.276001z" /></clipPath></defs><g transform="matrix(1.333333 0 0 1.333333 0 0)"><g clip-path="url(#1)"><path id="1" transform="matrix(1 0 0 -1 0 595)" d="M85.03899 505.671L806.963 505.671" stroke="#000000" stroke-width="0.398" fill="none" /><path id="8" transform="matrix(1 0 0 -1 0 595)" d="M85.03899 491.724L806.963 491.724" stroke="#000000" stroke-width="0.398" fill="none" /><path id="9" transform="matrix(1 0 0 -1 0 595)" d="M85.238 418.614L85.238 491.524" stroke="#000000" stroke-width="0.398" fill="none" /><g transform="matrix(0.16 -9.796849E-18 9.796851E-18 0.16 123.853 106.954)"><g transform="matrix(1 0 0 1 0 0)"><image x="0" y="0" xlink:href="img_325.png" width="396" height="412" /></g></g><path id="408" transform="matrix(1 0 0 -1 0 595)" d="M806.764 418.614L806.764 491.524" stroke="#000000" stroke-width="0.398" fill="none" /><path id="409" transform="matrix(1 0 0 -1 0 595)" d="M85.03896 418.4149L806.963 418.4149" stroke="#000000" stroke-width="0.398" fill="none" /><path id="447" transform="matrix(1 0 0 -1 0 595)" d="M85.03896 404.4669L806.963 404.4669" stroke="#000000" stroke-width="0.398" fill="none" /><path id="448" transform="matrix(1 0 0 -1 0 595)" d="M85.23797 302.964L85.23797 404.2679" stroke="#000000" stroke-width="0.398" fill="none" /><g transform="matrix(0.06981818 -4.274989E-18 4.274989E-18 0.06981817 94.143 214.3478)"><g transform="matrix(1 0 0 1 0 0)"><image x="0" y="0" xlink:href="img_326.png" width="2263" height="774" /></g></g><path id="1099" transform="matrix(1 0 0 -1 0 595)" d="M806.764 302.9639L806.764 404.2679" stroke="#000000" stroke-width="0.398" fill="none" /><path id="1100" transform="matrix(1 0 0 -1 0 595)" d="M85.03893 302.7649L806.963 302.7649" stroke="#000000" stroke-width="0.398" fill="none" /><path id="1128" transform="matrix(1 0 0 -1 0 595)" d="M85.03893 288.8169L806.963 288.8169" stroke="#000000" stroke-width="0.398" fill="none" /><path id="1129" transform="matrix(1 0 0 -1 0 595)" d="M85.23794 203.4079L85.23794 288.6169" stroke="#000000" stroke-width="0.398" fill="none" /><g transform="matrix(0.08290908 -5.076549E-18 5.076549E-18 0.08290907 92.77895 310.2929)"><g transform="matrix(1 0 0 1 0 0)"><image x="0" y="0" xlink:href="img_327.png" width="1837" height="933" /></g></g><path id="1639" transform="matrix(1 0 0 -1 0 595)" d="M806.7639 203.4079L806.7639 288.6169" stroke="#000000" stroke-width="0.398" fill="none" /><path id="1640" transform="matrix(1 0 0 -1 0 595)" d="M85.0389 203.2089L806.9629 203.2089" stroke="#000000" stroke-width="0.398" fill="none" /><path id="1656" transform="matrix(1 0 0 -1 0 595)" d="M85.0389 189.2609L806.9629 189.2609" stroke="#000000" stroke-width="0.398" fill="none" /><path id="1657" transform="matrix(1 0 0 -1 0 595)" d="M85.23791 113.3169L85.23791 189.0619" stroke="#000000" stroke-width="0.398" fill="none" /><g transform="matrix(0.06545455 -4.007803E-18 4.007804E-18 0.06545455 92.77892 408.8406)"><g transform="matrix(1 0 0 1 0 0)"><image x="0" y="0" xlink:href="img_328.png" width="2196" height="1068" /></g></g><path id="1960" transform="matrix(1 0 0 -1 0 595)" d="M806.7639 113.3169L806.7639 189.0619" stroke="#000000" stroke-width="0.398" fill="none" /><path id="1961" transform="matrix(1 0 0 -1 0 595)" d="M85.03887 113.1179L806.9629 113.1179" stroke="#000000" stroke-width="0.398" fill="none" /></g></g></svg>