<svg xmlns="http://www.w3.org/2000/svg" xmlns:xlink="http://www.w3.org/1999/xlink" id="body_7" preserveAspectRatio="xMinYMin meet" viewBox="0 0 793 1121"><defs><clipPath id="1"><path id="" clip-rule="evenodd" transform="matrix(1 0 0 1 0 0)" d="M0 841L0 -0.8900146L0 -0.8900146L595.276 -0.8900146L595.276 -0.8900146L595.276 841L595.276 841L0 841z" /></clipPath></defs><g transform="matrix(1.333333 0 0 1.333333 0 0)"><g clip-path="url(#1)"><path id="935" transform="matrix(1 0 0 -1 0 841)" d="M85.039 473.426L115.07 473.426L115.07 493.268L85.039 493.268z" stroke="none" fill="#FDE0D1" fill-rule="nonzero" /><path id="938" transform="matrix(1 0 0 -1 0 841)" d="M119.055 473.426L510.236 473.426L510.236 493.268L119.055 493.268z" stroke="none" fill="#FAC2A3" fill-rule="nonzero" /><path id="1925" transform="matrix(1 0 0 -1 0 841)" d="M85.039 152.899L115.07 152.899L115.07 172.741L85.039 172.741z" stroke="none" fill="#FDE0D1" fill-rule="nonzero" /><path id="1927" transform="matrix(1 0 0 -1 0 841)" d="M119.055 152.899L510.236 152.899L510.236 172.741L119.055 172.741z" stroke="none" fill="#FAC2A3" fill-rule="nonzero" /></g></g></svg>