<svg xmlns="http://www.w3.org/2000/svg" xmlns:xlink="http://www.w3.org/1999/xlink" id="body_322" preserveAspectRatio="xMinYMin meet" viewBox="0 0 793 1121"><defs><clipPath id="1"><path id="" clip-rule="evenodd" transform="matrix(1 0 0 1 0 0)" d="M0 841L0 -0.8900146L0 -0.8900146L595.276 -0.8900146L595.276 -0.8900146L595.276 841L595.276 841L0 841z" /></clipPath></defs><g transform="matrix(1.333333 0 0 1.333333 0 0)"><g clip-path="url(#1)"><path id="34" transform="matrix(1 0 0 -1 0 841)" d="M85.039 766.564L510.236 766.564" stroke="#000000" stroke-width="0.498" fill="none" /><path id="91" transform="matrix(1 0 0 -1 0 841)" d="M161.693 702.528L167.148 702.528" stroke="#000000" stroke-width="0.436" fill="none" /><path id="122" transform="matrix(1 0 0 -1 0 841)" d="M124.408 666.416L166.217 666.416" stroke="#000000" stroke-width="0.436" fill="none" /><path id="127" transform="matrix(1 0 0 -1 0 841)" d="M185.32 666.416L196.229 666.416" stroke="#000000" stroke-width="0.436" fill="none" /><path id="129" transform="matrix(1 0 0 -1 0 841)" d="M180.738 681.56L200.813 681.56" stroke="#000000" stroke-width="0.398" fill="none" /><path id="130" transform="matrix(1 0 0 -1 0 841)" d="M180.937 653.017L180.937 681.5601" stroke="#000000" stroke-width="0.398" fill="none" /><path id="131" transform="matrix(1 0 0 -1 0 841)" d="M200.613 653.017L200.613 681.5601" stroke="#000000" stroke-width="0.398" fill="none" /><path id="132" transform="matrix(1 0 0 -1 0 841)" d="M180.738 653.017L200.813 653.017" stroke="#000000" stroke-width="0.398" fill="none" /><path id="178" transform="matrix(1 0 0 -1 0 841)" d="M159.557 611.04L184.408 611.04" stroke="#000000" stroke-width="0.436" fill="none" /><path id="185" transform="matrix(1 0 0 -1 0 841)" d="M200.123 611.04L211.032 611.04" stroke="#000000" stroke-width="0.436" fill="none" /><path id="190" transform="matrix(1 0 0 -1 0 841)" d="M226.748 611.04L232.203 611.04" stroke="#000000" stroke-width="0.436" fill="none" /><path id="214" transform="matrix(1 0 0 -1 0 841)" d="M375.021 611.04L380.476 611.04" stroke="#000000" stroke-width="0.436" fill="none" /><path id="225" transform="matrix(1 0 0 -1 0 841)" d="M405.954 611.04L447.763 611.04" stroke="#000000" stroke-width="0.436" fill="none" /><path id="230" transform="matrix(1 0 0 -1 0 841)" d="M466.866 611.04L477.775 611.04" stroke="#000000" stroke-width="0.436" fill="none" /><path id="232" transform="matrix(1 0 0 -1 0 841)" d="M462.284 626.184L482.359 626.184" stroke="#000000" stroke-width="0.398" fill="none" /><path id="233" transform="matrix(1 0 0 -1 0 841)" d="M462.483 597.641L462.483 626.184" stroke="#000000" stroke-width="0.398" fill="none" /><path id="234" transform="matrix(1 0 0 -1 0 841)" d="M482.159 597.641L482.159 626.184" stroke="#000000" stroke-width="0.398" fill="none" /><path id="235" transform="matrix(1 0 0 -1 0 841)" d="M462.284 597.641L482.359 597.641" stroke="#000000" stroke-width="0.398" fill="none" /><path id="285" transform="matrix(1 0 0 -1 0 841)" d="M403.885 581.102L420.249 581.102" stroke="#000000" stroke-width="0.436" fill="none" /><path id="294" transform="matrix(1 0 0 -1 0 841)" d="M435.964 581.102L460.812 581.102" stroke="#000000" stroke-width="0.436" fill="none" /><path id="302" transform="matrix(1 0 0 -1 0 841)" d="M479.915 581.102L490.824 581.102" stroke="#000000" stroke-width="0.436" fill="none" /><path id="304" transform="matrix(1 0 0 -1 0 841)" d="M475.332 596.246L495.407 596.246" stroke="#000000" stroke-width="0.398" fill="none" /><path id="305" transform="matrix(1 0 0 -1 0 841)" d="M475.532 567.703L475.532 596.246" stroke="#000000" stroke-width="0.398" fill="none" /><path id="306" transform="matrix(1 0 0 -1 0 841)" d="M495.208 567.703L495.208 596.246" stroke="#000000" stroke-width="0.398" fill="none" /><path id="307" transform="matrix(1 0 0 -1 0 841)" d="M475.332 567.703L495.407 567.703" stroke="#000000" stroke-width="0.398" fill="none" /><path id="364" transform="matrix(1 0 0 -1 0 841)" d="M216.321 535.877L252.244 535.877" stroke="#000000" stroke-width="0.398" fill="none" /><path id="365" transform="matrix(1 0 0 -1 0 841)" d="M216.52 519.77L216.52 535.877" stroke="#000000" stroke-width="0.398" fill="none" /><path id="366" transform="matrix(1 0 0 -1 0 841)" d="M252.044 519.77L252.044 535.877" stroke="#000000" stroke-width="0.398" fill="none" /><path id="367" transform="matrix(1 0 0 -1 0 841)" d="M216.321 519.77L252.244 519.77" stroke="#000000" stroke-width="0.398" fill="none" /><path id="374" transform="matrix(1 0 0 -1 0 841)" d="M134.628 506.619L140.083 506.619" stroke="#000000" stroke-width="0.436" fill="none" /><path id="378" transform="matrix(1 0 0 -1 0 841)" d="M153.98 506.619L159.435 506.619" stroke="#000000" stroke-width="0.436" fill="none" /><path id="398" transform="matrix(1 0 0 -1 0 841)" d="M202.918 483.374L208.373 483.374" stroke="#000000" stroke-width="0.436" fill="none" /><path id="401" transform="matrix(1 0 0 -1 0 841)" d="M216.218 483.374L221.673 483.374" stroke="#000000" stroke-width="0.436" fill="none" /><path id="534" transform="matrix(1 0 0 -1 0 841)" d="M113.508 420.121L118.963 420.121" stroke="#000000" stroke-width="0.436" fill="none" /><path id="538" transform="matrix(1 0 0 -1 0 841)" d="M129.838 420.121L135.293 420.121" stroke="#000000" stroke-width="0.436" fill="none" /><path id="542" transform="matrix(1 0 0 -1 0 841)" d="M149.19 420.121L154.645 420.121" stroke="#000000" stroke-width="0.436" fill="none" /><path id="546" transform="matrix(1 0 0 -1 0 841)" d="M165.52 420.121L170.975 420.121" stroke="#000000" stroke-width="0.436" fill="none" /><path id="551" transform="matrix(1 0 0 -1 0 841)" d="M186.691 420.121L197.6 420.121" stroke="#000000" stroke-width="0.436" fill="none" /><path id="556" transform="matrix(1 0 0 -1 0 841)" d="M211.497 420.121L222.406 420.121" stroke="#000000" stroke-width="0.436" fill="none" /><path id="625" transform="matrix(1 0 0 -1 0 841)" d="M113.508 371.05L124.417 371.05" stroke="#000000" stroke-width="0.436" fill="none" /><path id="630" transform="matrix(1 0 0 -1 0 841)" d="M138.314 371.05L149.223 371.05" stroke="#000000" stroke-width="0.436" fill="none" /><path id="638" transform="matrix(1 0 0 -1 0 841)" d="M164.939 371.05L192.809 371.05" stroke="#000000" stroke-width="0.436" fill="none" /><path id="644" transform="matrix(1 0 0 -1 0 841)" d="M211.912 371.05L222.821 371.05" stroke="#000000" stroke-width="0.436" fill="none" /><path id="647" transform="matrix(1 0 0 -1 0 841)" d="M207.329 386.347L227.404 386.347" stroke="#000000" stroke-width="0.398" fill="none" /><path id="648" transform="matrix(1 0 0 -1 0 841)" d="M207.528 357.482L207.528 386.347" stroke="#000000" stroke-width="0.398" fill="none" /><path id="649" transform="matrix(1 0 0 -1 0 841)" d="M227.205 357.482L227.205 386.347" stroke="#000000" stroke-width="0.398" fill="none" /><path id="650" transform="matrix(1 0 0 -1 0 841)" d="M207.329 357.482L227.404 357.482" stroke="#000000" stroke-width="0.398" fill="none" /><path id="662" transform="matrix(1 0 0 -1 0 841)" d="M154.427 344.33L159.882 344.33" stroke="#000000" stroke-width="0.436" fill="none" /><path id="666" transform="matrix(1 0 0 -1 0 841)" d="M170.757 344.33L181.666 344.33" stroke="#000000" stroke-width="0.436" fill="none" /><path id="679" transform="matrix(1 0 0 -1 0 841)" d="M113.508 301.183L118.963 301.183" stroke="#000000" stroke-width="0.436" fill="none" /><path id="683" transform="matrix(1 0 0 -1 0 841)" d="M129.838 301.183L140.747 301.183" stroke="#000000" stroke-width="0.436" fill="none" /><path id="693" transform="matrix(1 0 0 -1 0 841)" d="M170.402 301.183L175.857 301.183" stroke="#000000" stroke-width="0.436" fill="none" /><path id="705" transform="matrix(1 0 0 -1 0 841)" d="M186.732 301.183L197.641 301.183" stroke="#000000" stroke-width="0.436" fill="none" /><path id="714" transform="matrix(1 0 0 -1 0 841)" d="M216.744 301.183L227.653 301.183" stroke="#000000" stroke-width="0.436" fill="none" /><path id="717" transform="matrix(1 0 0 -1 0 841)" d="M212.162 316.327L232.237 316.327" stroke="#000000" stroke-width="0.398" fill="none" /><path id="718" transform="matrix(1 0 0 -1 0 841)" d="M212.361 287.784L212.361 316.327" stroke="#000000" stroke-width="0.398" fill="none" /><path id="719" transform="matrix(1 0 0 -1 0 841)" d="M232.037 287.784L232.037 316.327" stroke="#000000" stroke-width="0.398" fill="none" /><path id="720" transform="matrix(1 0 0 -1 0 841)" d="M212.162 287.784L232.237 287.784" stroke="#000000" stroke-width="0.398" fill="none" /><path id="817" transform="matrix(1 0 0 -1 0 841)" d="M112.312 205.353L134.479 205.353" stroke="#000000" stroke-width="0.398" fill="none" /><path id="818" transform="matrix(1 0 0 -1 0 841)" d="M112.511 188.97L112.511 205.352" stroke="#000000" stroke-width="0.398" fill="none" /><path id="819" transform="matrix(1 0 0 -1 0 841)" d="M134.28 188.97L134.28 205.352" stroke="#000000" stroke-width="0.398" fill="none" /><path id="820" transform="matrix(1 0 0 -1 0 841)" d="M112.312 188.97L134.479 188.97" stroke="#000000" stroke-width="0.398" fill="none" /><path id="864" transform="matrix(1 0 0 -1 0 841)" d="M112.312 152.157L149.381 152.157" stroke="#000000" stroke-width="0.398" fill="none" /><path id="865" transform="matrix(1 0 0 -1 0 841)" d="M112.511 138.161L112.511 152.157" stroke="#000000" stroke-width="0.398" fill="none" /><path id="866" transform="matrix(1 0 0 -1 0 841)" d="M149.182 138.161L149.182 152.157" stroke="#000000" stroke-width="0.398" fill="none" /><path id="867" transform="matrix(1 0 0 -1 0 841)" d="M112.312 138.161L149.381 138.161" stroke="#000000" stroke-width="0.398" fill="none" /><path id="914" transform="matrix(1 0 0 -1 0 841)" d="M112.312 95.678L154.836 95.678" stroke="#000000" stroke-width="0.398" fill="none" /><path id="915" transform="matrix(1 0 0 -1 0 841)" d="M112.511 81.682L112.511 95.678" stroke="#000000" stroke-width="0.398" fill="none" /><path id="916" transform="matrix(1 0 0 -1 0 841)" d="M154.636 81.682L154.636 95.678" stroke="#000000" stroke-width="0.398" fill="none" /><path id="917" transform="matrix(1 0 0 -1 0 841)" d="M112.312 81.682L154.836 81.682" stroke="#000000" stroke-width="0.398" fill="none" /></g></g></svg>