<svg xmlns="http://www.w3.org/2000/svg" xmlns:xlink="http://www.w3.org/1999/xlink" id="body_341" preserveAspectRatio="xMinYMin meet" viewBox="0 0 793 1121"><defs><clipPath id="1"><path id="" clip-rule="evenodd" transform="matrix(1 0 0 1 0 0)" d="M0 841L0 -0.8900146L0 -0.8900146L595.276 -0.8900146L595.276 -0.8900146L595.276 841L595.276 841L0 841z" /></clipPath></defs><g transform="matrix(1.333333 0 0 1.333333 0 0)"><g clip-path="url(#1)"><path id="22" transform="matrix(1 0 0 -1 0 841)" d="M85.039 766.564L510.236 766.564" stroke="#000000" stroke-width="0.498" fill="none" /><path id="364" transform="matrix(1 0 0 -1 0 841)" d="M140.8563 607.9255L220.2274 607.9255" stroke="#000000" stroke-width="0.3985" fill="none" /><path id="365" transform="matrix(1 0 0 -1 0 841)" d="M225.8967 602.2562L225.8967 543.1262" stroke="#000000" stroke-width="0.3985" fill="none" /><path id="366" transform="matrix(1 0 0 -1 0 841)" d="M228.2878 544.9992C 226.8531 544.6206 226.1757 543.7769 225.8967 542.9269C 225.6178 543.7769 224.9403 544.6206 223.5057 544.9992" stroke="#000000" stroke-width="0.3985" stroke-linecap="round" fill="none" /><path id="367" transform="matrix(1 0 0 -1 0 841)" d="M140.8563 542.7277L344.5547 542.7277" stroke="#000000" stroke-width="0.3985" fill="none" /><path id="368" transform="matrix(1 0 0 -1 0 841)" d="M342.6817 545.1188C 343.0603 543.6841 343.904 543.0067 344.754 542.7277C 343.904 542.4488 343.0603 541.7714 342.6817 540.3367" stroke="#000000" stroke-width="0.3985" stroke-linecap="round" fill="none" /><path id="369" transform="matrix(1 0 0 -1 0 841)" d="M225.8967 602.2562L225.8842 602.6265L225.8842 602.6265L225.8478 602.9954L225.8478 602.9954L225.7873 603.3613L225.7873 603.3613L225.7034 603.7225L225.7034 603.7225L225.5957 604.0772L225.5957 604.0772L225.4651 604.4241L225.4651 604.4241L225.3124 604.7619L225.3124 604.7619L225.1376 605.0894L225.1376 605.0894L224.9417 605.4038L224.9417 605.4038L224.7258 605.7053L224.7258 605.7053L224.491 605.9921L224.491 605.9921L224.2375 606.2628L224.2375 606.2628L223.9672 606.5167L223.9672 606.5167L223.6804 606.752L223.6804 606.752L223.3794 606.9678L223.3794 606.9678L223.0645 607.1642L223.0645 607.1642L222.7375 607.339L222.7375 607.339L222.4001 607.4921L222.4001 607.4921L222.0532 607.6232L222.0532 607.6232L221.6985 607.7308L221.6985 607.7308L221.3373 607.8152L221.3373 607.8152L220.9714 607.8757L220.9714 607.8757L220.6025 607.9125L220.6025 607.9125L220.2318 607.925" stroke="#000000" stroke-width="0.3985" fill="none" /><path id="527" transform="matrix(1 0 0 -1 0 841)" d="M153.882 410.876L206.581 410.876" stroke="#000000" stroke-width="0.436" fill="none" /><path id="547" transform="matrix(1 0 0 -1 0 841)" d="M221.101 426.938L351.12 426.938L351.12 430.923L221.101 430.923z" stroke="none" fill="#000000" fill-rule="nonzero" /><path id="548" transform="matrix(1 0 0 -1 0 841)" d="M221.101 392.456L225.086 392.456L225.086 428.931L221.101 428.931z" stroke="none" fill="#000000" fill-rule="nonzero" /><path id="549" transform="matrix(1 0 0 -1 0 841)" d="M347.135 392.456L351.12 392.456L351.12 428.931L347.135 428.931z" stroke="none" fill="#000000" fill-rule="nonzero" /><path id="550" transform="matrix(1 0 0 -1 0 841)" d="M221.101 390.463L351.12 390.463L351.12 394.448L221.101 394.448z" stroke="none" fill="#000000" fill-rule="nonzero" /><path id="911" transform="matrix(1 0 0 -1 0 841)" d="M175.013 223.495L328.387 223.495" stroke="#000000" stroke-width="0.436" fill="none" /><path id="942" transform="matrix(1 0 0 -1 0 841)" d="M342.89 223.495L437.409 223.495" stroke="#000000" stroke-width="0.436" fill="none" /><path id="958" transform="matrix(1 0 0 -1 0 841)" d="M450.717 239.502L520.756 239.502L520.756 243.487L450.717 243.487z" stroke="none" fill="#000000" fill-rule="nonzero" /><path id="959" transform="matrix(1 0 0 -1 0 841)" d="M450.717 205.075L454.702 205.075L454.702 241.495L450.717 241.495z" stroke="none" fill="#000000" fill-rule="nonzero" /><path id="960" transform="matrix(1 0 0 -1 0 841)" d="M516.772 205.075L520.757 205.075L520.757 241.495L516.772 241.495z" stroke="none" fill="#000000" fill-rule="nonzero" /><path id="961" transform="matrix(1 0 0 -1 0 841)" d="M450.717 203.082L520.756 203.082L520.756 207.067L450.717 207.067z" stroke="none" fill="#000000" fill-rule="nonzero" /><path id="1080" transform="matrix(1 0 0 -1 0 841)" d="M224.467 109.623L257.979 109.623" stroke="#000000" stroke-width="0.436" fill="none" /><path id="1115" transform="matrix(1 0 0 -1 0 841)" d="M327.063 123.641L402.718 123.641" stroke="#000000" stroke-width="0.436" fill="none" /><path id="1125" transform="matrix(1 0 0 -1 0 841)" d="M273.695 109.623L403.914 109.623" stroke="#000000" stroke-width="0.436" fill="none" /><path id="1140" transform="matrix(1 0 0 -1 0 841)" d="M308.565 95.37L341.804 95.37" stroke="#000000" stroke-width="0.436" fill="none" /><path id="1154" transform="matrix(1 0 0 -1 0 841)" d="M352.68 95.37L385.407 95.37" stroke="#000000" stroke-width="0.436" fill="none" /><path id="1165" transform="matrix(1 0 0 -1 0 841)" d="M418.433 125.745L490.436 125.745L490.436 129.73L418.433 129.73z" stroke="none" fill="#000000" fill-rule="nonzero" /><path id="1166" transform="matrix(1 0 0 -1 0 841)" d="M418.433 93.445L422.418 93.445L422.418 127.738L418.433 127.738z" stroke="none" fill="#000000" fill-rule="nonzero" /><path id="1167" transform="matrix(1 0 0 -1 0 841)" d="M486.452 93.445L490.437 93.445L490.437 127.738L486.452 127.738z" stroke="none" fill="#000000" fill-rule="nonzero" /><path id="1168" transform="matrix(1 0 0 -1 0 841)" d="M418.433 91.452L490.436 91.452L490.436 95.437L418.433 95.437z" stroke="none" fill="#000000" fill-rule="nonzero" /></g></g></svg>