<svg xmlns="http://www.w3.org/2000/svg" xmlns:xlink="http://www.w3.org/1999/xlink" id="body_95" preserveAspectRatio="xMinYMin meet" viewBox="0 0 1121 793"><defs><clipPath id="1"><path id="" clip-rule="evenodd" transform="matrix(1 0 0 1 0 0)" d="M0 -0.276001L841.89 -0.276001L841.89 -0.276001L841.89 595L841.89 595L3.644894E-14 595L3.644894E-14 595L0 -0.276001z" /></clipPath></defs><g transform="matrix(1.333333 0 0 1.333333 0 0)"><g clip-path="url(#1)"><path id="1" transform="matrix(1 0 0 -1 0 595)" d="M107.014 510.038L734.875 510.038" stroke="#000000" stroke-width="0.398" fill="none" /><path id="2" transform="matrix(1 0 0 -1 0 595)" d="M107.214 497.884L107.214 509.839" stroke="#000000" stroke-width="0.398" fill="none" /><path id="3" transform="matrix(1 0 0 -1 0 595)" d="M107.413 497.884L362.853 497.884L362.853 509.839L107.413 509.839z" stroke="none" fill="#CBCEFB" fill-rule="nonzero" /><path id="23" transform="matrix(1 0 0 -1 0 595)" d="M363.053 497.884L363.053 509.839" stroke="#000000" stroke-width="0.398" fill="none" /><path id="24" transform="matrix(1 0 0 -1 0 595)" d="M363.252 497.884L486.728 497.884L486.728 509.839L363.252 509.839z" stroke="none" fill="#CBCEFB" fill-rule="nonzero" /><path id="28" transform="matrix(1 0 0 -1 0 595)" d="M486.927 497.884L486.927 509.839" stroke="#000000" stroke-width="0.398" fill="none" /><path id="29" transform="matrix(1 0 0 -1 0 595)" d="M487.126 497.884L610.602 497.884L610.602 509.839L487.126 509.839z" stroke="none" fill="#CBCEFB" fill-rule="nonzero" /><path id="36" transform="matrix(1 0 0 -1 0 595)" d="M610.801 497.884L610.801 509.839" stroke="#000000" stroke-width="0.398" fill="none" /><path id="37" transform="matrix(1 0 0 -1 0 595)" d="M611.001 497.884L734.477 497.884L734.477 509.839L611.001 509.839z" stroke="none" fill="#CBCEFB" fill-rule="nonzero" /><path id="43" transform="matrix(1 0 0 -1 0 595)" d="M734.676 497.884L734.676 509.839" stroke="#000000" stroke-width="0.398" fill="none" /><path id="44" transform="matrix(1 0 0 -1 0 595)" d="M107.014 497.684L734.875 497.684" stroke="#000000" stroke-width="0.398" fill="none" /><path id="45" transform="matrix(1 0 0 -1 0 595)" d="M107.214 485.53L107.214 497.485" stroke="#000000" stroke-width="0.398" fill="none" /><path id="60" transform="matrix(1 0 0 -1 0 595)" d="M363.053 485.53L363.053 497.485" stroke="#000000" stroke-width="0.398" fill="none" /><path id="72" transform="matrix(1 0 0 -1 0 595)" d="M486.927 485.53L486.927 497.485" stroke="#000000" stroke-width="0.398" fill="none" /><path id="84" transform="matrix(1 0 0 -1 0 595)" d="M610.801 485.53L610.801 497.485" stroke="#000000" stroke-width="0.398" fill="none" /><path id="96" transform="matrix(1 0 0 -1 0 595)" d="M734.676 485.53L734.676 497.485" stroke="#000000" stroke-width="0.398" fill="none" /><path id="97" transform="matrix(1 0 0 -1 0 595)" d="M107.214 473.395L107.214 485.53" stroke="#000000" stroke-width="0.398" fill="none" /><path id="120" transform="matrix(1 0 0 -1 0 595)" d="M363.053 473.395L363.053 485.53" stroke="#000000" stroke-width="0.398" fill="none" /><path id="131" transform="matrix(1 0 0 -1 0 595)" d="M486.927 473.395L486.927 485.53" stroke="#000000" stroke-width="0.398" fill="none" /><path id="142" transform="matrix(1 0 0 -1 0 595)" d="M610.801 473.395L610.801 485.53" stroke="#000000" stroke-width="0.398" fill="none" /><path id="155" transform="matrix(1 0 0 -1 0 595)" d="M734.676 473.395L734.676 485.53" stroke="#000000" stroke-width="0.398" fill="none" /><path id="156" transform="matrix(1 0 0 -1 0 595)" d="M107.214 461.44L107.214 473.395" stroke="#000000" stroke-width="0.398" fill="none" /><path id="169" transform="matrix(1 0 0 -1 0 595)" d="M363.053 461.44L363.053 473.395" stroke="#000000" stroke-width="0.398" fill="none" /><path id="178" transform="matrix(1 0 0 -1 0 595)" d="M486.927 461.44L486.927 473.395" stroke="#000000" stroke-width="0.398" fill="none" /><path id="187" transform="matrix(1 0 0 -1 0 595)" d="M610.801 461.44L610.801 473.395" stroke="#000000" stroke-width="0.398" fill="none" /><path id="196" transform="matrix(1 0 0 -1 0 595)" d="M734.676 461.44L734.676 473.395" stroke="#000000" stroke-width="0.398" fill="none" /><path id="197" transform="matrix(1 0 0 -1 0 595)" d="M107.214 449.485L107.214 461.44" stroke="#000000" stroke-width="0.398" fill="none" /><path id="210" transform="matrix(1 0 0 -1 0 595)" d="M363.053 449.485L363.053 461.44" stroke="#000000" stroke-width="0.398" fill="none" /><path id="224" transform="matrix(1 0 0 -1 0 595)" d="M486.927 449.485L486.927 461.44" stroke="#000000" stroke-width="0.398" fill="none" /><path id="238" transform="matrix(1 0 0 -1 0 595)" d="M610.801 449.485L610.801 461.44" stroke="#000000" stroke-width="0.398" fill="none" /><path id="252" transform="matrix(1 0 0 -1 0 595)" d="M734.676 449.485L734.676 461.44" stroke="#000000" stroke-width="0.398" fill="none" /><path id="253" transform="matrix(1 0 0 -1 0 595)" d="M107.014 449.285L734.875 449.285" stroke="#000000" stroke-width="0.398" fill="none" /><path id="254" transform="matrix(1 0 0 -1 0 595)" d="M107.214 437.131L107.214 449.086" stroke="#000000" stroke-width="0.398" fill="none" /><path id="255" transform="matrix(1 0 0 -1 0 595)" d="M107.413 437.131L362.853 437.131L362.853 449.086L107.413 449.086z" stroke="none" fill="#CBCEFB" fill-rule="nonzero" /><path id="265" transform="matrix(1 0 0 -1 0 595)" d="M363.053 437.131L363.053 449.086" stroke="#000000" stroke-width="0.398" fill="none" /><path id="266" transform="matrix(1 0 0 -1 0 595)" d="M363.252 437.131L486.728 437.131L486.728 449.086L363.252 449.086z" stroke="none" fill="#CBCEFB" fill-rule="nonzero" /><path id="270" transform="matrix(1 0 0 -1 0 595)" d="M486.927 437.131L486.927 449.086" stroke="#000000" stroke-width="0.398" fill="none" /><path id="271" transform="matrix(1 0 0 -1 0 595)" d="M487.126 437.131L610.602 437.131L610.602 449.086L487.126 449.086z" stroke="none" fill="#CBCEFB" fill-rule="nonzero" /><path id="278" transform="matrix(1 0 0 -1 0 595)" d="M610.801 437.131L610.801 449.086" stroke="#000000" stroke-width="0.398" fill="none" /><path id="279" transform="matrix(1 0 0 -1 0 595)" d="M611.001 437.131L734.477 437.131L734.477 449.086L611.001 449.086z" stroke="none" fill="#CBCEFB" fill-rule="nonzero" /><path id="285" transform="matrix(1 0 0 -1 0 595)" d="M734.676 437.131L734.676 449.086" stroke="#000000" stroke-width="0.398" fill="none" /><path id="286" transform="matrix(1 0 0 -1 0 595)" d="M107.014 436.932L734.875 436.932" stroke="#000000" stroke-width="0.398" fill="none" /><path id="287" transform="matrix(1 0 0 -1 0 595)" d="M107.214 424.777L107.214 436.732" stroke="#000000" stroke-width="0.398" fill="none" /><path id="304" transform="matrix(1 0 0 -1 0 595)" d="M363.053 424.777L363.053 436.732" stroke="#000000" stroke-width="0.398" fill="none" /><path id="310" transform="matrix(1 0 0 -1 0 595)" d="M486.927 424.777L486.927 436.732" stroke="#000000" stroke-width="0.398" fill="none" /><path id="316" transform="matrix(1 0 0 -1 0 595)" d="M610.801 424.777L610.801 436.732" stroke="#000000" stroke-width="0.398" fill="none" /><path id="322" transform="matrix(1 0 0 -1 0 595)" d="M734.676 424.777L734.676 436.732" stroke="#000000" stroke-width="0.398" fill="none" /><path id="323" transform="matrix(1 0 0 -1 0 595)" d="M107.214 412.822L107.214 424.777" stroke="#000000" stroke-width="0.398" fill="none" /><path id="324" transform="matrix(1 0 0 -1 0 595)" d="M363.053 412.822L363.053 424.777" stroke="#000000" stroke-width="0.398" fill="none" /><path id="348" transform="matrix(1 0 0 -1 0 595)" d="M486.927 412.822L486.927 424.777" stroke="#000000" stroke-width="0.398" fill="none" /><path id="372" transform="matrix(1 0 0 -1 0 595)" d="M610.801 412.822L610.801 424.777" stroke="#000000" stroke-width="0.398" fill="none" /><path id="396" transform="matrix(1 0 0 -1 0 595)" d="M734.676 412.822L734.676 424.777" stroke="#000000" stroke-width="0.398" fill="none" /><path id="397" transform="matrix(1 0 0 -1 0 595)" d="M107.214 400.867L107.214 412.822" stroke="#000000" stroke-width="0.398" fill="none" /><path id="434" transform="matrix(1 0 0 -1 0 595)" d="M363.053 400.867L363.053 412.822" stroke="#000000" stroke-width="0.398" fill="none" /><path id="435" transform="matrix(1 0 0 -1 0 595)" d="M363.451 400.867L363.451 412.822" stroke="#000000" stroke-width="0.398" fill="none" /><path id="486" transform="matrix(1 0 0 -1 0 595)" d="M734.676 400.867L734.676 412.822" stroke="#000000" stroke-width="0.398" fill="none" /><path id="487" transform="matrix(1 0 0 -1 0 595)" d="M107.214 388.732L107.214 400.867" stroke="#000000" stroke-width="0.398" fill="none" /><path id="527" transform="matrix(1 0 0 -1 0 595)" d="M363.053 388.732L363.053 400.867" stroke="#000000" stroke-width="0.398" fill="none" /><path id="535" transform="matrix(1 0 0 -1 0 595)" d="M486.927 388.732L486.927 400.867" stroke="#000000" stroke-width="0.398" fill="none" /><path id="543" transform="matrix(1 0 0 -1 0 595)" d="M610.801 388.732L610.801 400.867" stroke="#000000" stroke-width="0.398" fill="none" /><path id="544" transform="matrix(1 0 0 -1 0 595)" d="M734.676 388.732L734.676 400.867" stroke="#000000" stroke-width="0.398" fill="none" /><path id="545" transform="matrix(1 0 0 -1 0 595)" d="M107.214 376.777L107.214 388.732" stroke="#000000" stroke-width="0.398" fill="none" /><path id="569" transform="matrix(1 0 0 -1 0 595)" d="M363.053 376.777L363.053 388.732" stroke="#000000" stroke-width="0.398" fill="none" /><path id="578" transform="matrix(1 0 0 -1 0 595)" d="M486.927 376.777L486.927 388.732" stroke="#000000" stroke-width="0.398" fill="none" /><path id="579" transform="matrix(1 0 0 -1 0 595)" d="M610.801 376.777L610.801 388.732" stroke="#000000" stroke-width="0.398" fill="none" /><path id="580" transform="matrix(1 0 0 -1 0 595)" d="M734.676 376.777L734.676 388.732" stroke="#000000" stroke-width="0.398" fill="none" /><path id="581" transform="matrix(1 0 0 -1 0 595)" d="M107.014 376.578L734.875 376.578" stroke="#000000" stroke-width="0.398" fill="none" /><path id="582" transform="matrix(1 0 0 -1 0 595)" d="M107.214 364.423L107.214 376.378" stroke="#000000" stroke-width="0.398" fill="none" /><path id="583" transform="matrix(1 0 0 -1 0 595)" d="M107.413 364.423L362.853 364.423L362.853 376.378L107.413 376.378z" stroke="none" fill="#CBCEFB" fill-rule="nonzero" /><path id="619" transform="matrix(1 0 0 -1 0 595)" d="M363.053 364.423L363.053 376.378" stroke="#000000" stroke-width="0.398" fill="none" /><path id="620" transform="matrix(1 0 0 -1 0 595)" d="M363.252 364.423L486.728 364.423L486.728 376.378L363.252 376.378z" stroke="none" fill="#CBCEFB" fill-rule="nonzero" /><path id="624" transform="matrix(1 0 0 -1 0 595)" d="M486.927 364.423L486.927 376.378" stroke="#000000" stroke-width="0.398" fill="none" /><path id="625" transform="matrix(1 0 0 -1 0 595)" d="M487.126 364.423L610.602 364.423L610.602 376.378L487.126 376.378z" stroke="none" fill="#CBCEFB" fill-rule="nonzero" /><path id="632" transform="matrix(1 0 0 -1 0 595)" d="M610.801 364.423L610.801 376.378" stroke="#000000" stroke-width="0.398" fill="none" /><path id="633" transform="matrix(1 0 0 -1 0 595)" d="M611.001 364.423L734.477 364.423L734.477 376.378L611.001 376.378z" stroke="none" fill="#CBCEFB" fill-rule="nonzero" /><path id="639" transform="matrix(1 0 0 -1 0 595)" d="M734.676 364.423L734.676 376.378" stroke="#000000" stroke-width="0.398" fill="none" /><path id="640" transform="matrix(1 0 0 -1 0 595)" d="M107.214 352.468L107.214 364.423" stroke="#000000" stroke-width="0.398" fill="none" /><path id="641" transform="matrix(1 0 0 -1 0 595)" d="M279.765 352.468L279.765 364.423" stroke="#000000" stroke-width="0.398" fill="none" /><path id="655" transform="matrix(1 0 0 -1 0 595)" d="M363.053 352.468L363.053 364.423" stroke="#000000" stroke-width="0.398" fill="none" /><path id="664" transform="matrix(1 0 0 -1 0 595)" d="M486.927 352.468L486.927 364.423" stroke="#000000" stroke-width="0.398" fill="none" /><path id="673" transform="matrix(1 0 0 -1 0 595)" d="M610.801 352.468L610.801 364.423" stroke="#000000" stroke-width="0.398" fill="none" /><path id="674" transform="matrix(1 0 0 -1 0 595)" d="M734.676 352.468L734.676 364.423" stroke="#000000" stroke-width="0.398" fill="none" /><path id="675" transform="matrix(1 0 0 -1 0 595)" d="M107.214 340.513L107.214 352.468" stroke="#000000" stroke-width="0.398" fill="none" /><path id="708" transform="matrix(1 0 0 -1 0 595)" d="M279.765 340.513L279.765 352.468" stroke="#000000" stroke-width="0.398" fill="none" /><path id="719" transform="matrix(1 0 0 -1 0 595)" d="M363.053 340.513L363.053 352.468" stroke="#000000" stroke-width="0.398" fill="none" /><path id="729" transform="matrix(1 0 0 -1 0 595)" d="M486.927 340.513L486.927 352.468" stroke="#000000" stroke-width="0.398" fill="none" /><path id="739" transform="matrix(1 0 0 -1 0 595)" d="M610.801 340.513L610.801 352.468" stroke="#000000" stroke-width="0.398" fill="none" /><path id="740" transform="matrix(1 0 0 -1 0 595)" d="M734.676 340.513L734.676 352.468" stroke="#000000" stroke-width="0.398" fill="none" /><path id="741" transform="matrix(1 0 0 -1 0 595)" d="M107.014 340.314L734.875 340.314" stroke="#000000" stroke-width="0.398" fill="none" /><path id="742" transform="matrix(1 0 0 -1 0 595)" d="M107.214 328.159L107.214 340.114" stroke="#000000" stroke-width="0.398" fill="none" /><path id="767" transform="matrix(1 0 0 -1 0 595)" d="M363.053 328.159L363.053 340.114" stroke="#000000" stroke-width="0.398" fill="none" /><path id="775" transform="matrix(1 0 0 -1 0 595)" d="M486.927 328.159L486.927 340.114" stroke="#000000" stroke-width="0.398" fill="none" /><path id="783" transform="matrix(1 0 0 -1 0 595)" d="M610.801 328.159L610.801 340.114" stroke="#000000" stroke-width="0.398" fill="none" /><path id="784" transform="matrix(1 0 0 -1 0 595)" d="M734.676 328.159L734.676 340.114" stroke="#000000" stroke-width="0.398" fill="none" /><path id="785" transform="matrix(1 0 0 -1 0 595)" d="M107.014 327.96L734.875 327.96" stroke="#000000" stroke-width="0.398" fill="none" /><path id="786" transform="matrix(1 0 0 -1 0 595)" d="M107.214 315.805L107.214 327.7599" stroke="#000000" stroke-width="0.398" fill="none" /><path id="787" transform="matrix(1 0 0 -1 0 595)" d="M107.413 315.805L362.853 315.805L362.853 327.7599L107.413 327.7599z" stroke="none" fill="#CBCEFB" fill-rule="nonzero" /><path id="806" transform="matrix(1 0 0 -1 0 595)" d="M363.053 315.805L363.053 327.7599" stroke="#000000" stroke-width="0.398" fill="none" /><path id="807" transform="matrix(1 0 0 -1 0 595)" d="M363.252 315.805L486.728 315.805L486.728 327.7599L363.252 327.7599z" stroke="none" fill="#CBCEFB" fill-rule="nonzero" /><path id="811" transform="matrix(1 0 0 -1 0 595)" d="M486.927 315.805L486.927 327.7599" stroke="#000000" stroke-width="0.398" fill="none" /><path id="812" transform="matrix(1 0 0 -1 0 595)" d="M487.126 315.805L610.602 315.805L610.602 327.7599L487.126 327.7599z" stroke="none" fill="#CBCEFB" fill-rule="nonzero" /><path id="819" transform="matrix(1 0 0 -1 0 595)" d="M610.801 315.805L610.801 327.7599" stroke="#000000" stroke-width="0.398" fill="none" /><path id="820" transform="matrix(1 0 0 -1 0 595)" d="M611.001 315.805L734.477 315.805L734.477 327.7599L611.001 327.7599z" stroke="none" fill="#CBCEFB" fill-rule="nonzero" /><path id="826" transform="matrix(1 0 0 -1 0 595)" d="M734.676 315.805L734.676 327.7599" stroke="#000000" stroke-width="0.398" fill="none" /><path id="827" transform="matrix(1 0 0 -1 0 595)" d="M107.014 315.606L734.875 315.606" stroke="#000000" stroke-width="0.398" fill="none" /><path id="828" transform="matrix(1 0 0 -1 0 595)" d="M107.214 303.452L107.214 315.407" stroke="#000000" stroke-width="0.398" fill="none" /><path id="839" transform="matrix(1 0 0 -1 0 595)" d="M363.053 303.452L363.053 315.407" stroke="#000000" stroke-width="0.398" fill="none" /><path id="853" transform="matrix(1 0 0 -1 0 595)" d="M486.927 303.452L486.927 315.407" stroke="#000000" stroke-width="0.398" fill="none" /><path id="867" transform="matrix(1 0 0 -1 0 595)" d="M610.801 303.452L610.801 315.407" stroke="#000000" stroke-width="0.398" fill="none" /><path id="868" transform="matrix(1 0 0 -1 0 595)" d="M734.676 303.452L734.676 315.407" stroke="#000000" stroke-width="0.398" fill="none" /><path id="869" transform="matrix(1 0 0 -1 0 595)" d="M107.214 291.497L107.214 303.452" stroke="#000000" stroke-width="0.398" fill="none" /><path id="877" transform="matrix(1 0 0 -1 0 595)" d="M363.053 291.497L363.053 303.452" stroke="#000000" stroke-width="0.398" fill="none" /><path id="891" transform="matrix(1 0 0 -1 0 595)" d="M486.927 291.497L486.927 303.452" stroke="#000000" stroke-width="0.398" fill="none" /><path id="905" transform="matrix(1 0 0 -1 0 595)" d="M610.801 291.497L610.801 303.452" stroke="#000000" stroke-width="0.398" fill="none" /><path id="906" transform="matrix(1 0 0 -1 0 595)" d="M734.676 291.497L734.676 303.452" stroke="#000000" stroke-width="0.398" fill="none" /><path id="907" transform="matrix(1 0 0 -1 0 595)" d="M107.214 279.541L107.214 291.496" stroke="#000000" stroke-width="0.398" fill="none" /><path id="916" transform="matrix(1 0 0 -1 0 595)" d="M363.053 279.541L363.053 291.496" stroke="#000000" stroke-width="0.398" fill="none" /><path id="929" transform="matrix(1 0 0 -1 0 595)" d="M486.927 279.541L486.927 291.496" stroke="#000000" stroke-width="0.398" fill="none" /><path id="942" transform="matrix(1 0 0 -1 0 595)" d="M610.801 279.541L610.801 291.496" stroke="#000000" stroke-width="0.398" fill="none" /><path id="943" transform="matrix(1 0 0 -1 0 595)" d="M734.676 279.541L734.676 291.496" stroke="#000000" stroke-width="0.398" fill="none" /><path id="944" transform="matrix(1 0 0 -1 0 595)" d="M107.214 267.406L107.214 279.541" stroke="#000000" stroke-width="0.398" fill="none" /><path id="959" transform="matrix(1 0 0 -1 0 595)" d="M363.053 267.406L363.053 279.541" stroke="#000000" stroke-width="0.398" fill="none" /><path id="973" transform="matrix(1 0 0 -1 0 595)" d="M486.927 267.406L486.927 279.541" stroke="#000000" stroke-width="0.398" fill="none" /><path id="987" transform="matrix(1 0 0 -1 0 595)" d="M610.801 267.406L610.801 279.541" stroke="#000000" stroke-width="0.398" fill="none" /><path id="988" transform="matrix(1 0 0 -1 0 595)" d="M734.676 267.406L734.676 279.541" stroke="#000000" stroke-width="0.398" fill="none" /><path id="989" transform="matrix(1 0 0 -1 0 595)" d="M107.014 267.207L734.875 267.207" stroke="#000000" stroke-width="0.398" fill="none" /><path id="990" transform="matrix(1 0 0 -1 0 595)" d="M107.214 255.053L107.214 267.008" stroke="#000000" stroke-width="0.398" fill="none" /><path id="991" transform="matrix(1 0 0 -1 0 595)" d="M107.413 255.053L362.853 255.053L362.853 267.008L107.413 267.008z" stroke="none" fill="#CBCEFB" fill-rule="nonzero" /><path id="1008" transform="matrix(1 0 0 -1 0 595)" d="M363.053 255.053L363.053 267.008" stroke="#000000" stroke-width="0.398" fill="none" /><path id="1009" transform="matrix(1 0 0 -1 0 595)" d="M363.252 255.053L486.728 255.053L486.728 267.008L363.252 267.008z" stroke="none" fill="#CBCEFB" fill-rule="nonzero" /><path id="1013" transform="matrix(1 0 0 -1 0 595)" d="M486.927 255.053L486.927 267.008" stroke="#000000" stroke-width="0.398" fill="none" /><path id="1014" transform="matrix(1 0 0 -1 0 595)" d="M487.126 255.053L610.602 255.053L610.602 267.008L487.126 267.008z" stroke="none" fill="#CBCEFB" fill-rule="nonzero" /><path id="1021" transform="matrix(1 0 0 -1 0 595)" d="M610.801 255.053L610.801 267.008" stroke="#000000" stroke-width="0.398" fill="none" /><path id="1022" transform="matrix(1 0 0 -1 0 595)" d="M611.001 255.053L734.477 255.053L734.477 267.008L611.001 267.008z" stroke="none" fill="#CBCEFB" fill-rule="nonzero" /><path id="1028" transform="matrix(1 0 0 -1 0 595)" d="M734.676 255.053L734.676 267.008" stroke="#000000" stroke-width="0.398" fill="none" /><path id="1029" transform="matrix(1 0 0 -1 0 595)" d="M107.014 254.854L734.875 254.854" stroke="#000000" stroke-width="0.398" fill="none" /><path id="1030" transform="matrix(1 0 0 -1 0 595)" d="M107.214 242.699L107.214 254.654" stroke="#000000" stroke-width="0.398" fill="none" /><path id="1063" transform="matrix(1 0 0 -1 0 595)" d="M363.053 242.699L363.053 254.654" stroke="#000000" stroke-width="0.398" fill="none" /><path id="1077" transform="matrix(1 0 0 -1 0 595)" d="M486.927 242.699L486.927 254.654" stroke="#000000" stroke-width="0.398" fill="none" /><path id="1091" transform="matrix(1 0 0 -1 0 595)" d="M610.801 242.699L610.801 254.654" stroke="#000000" stroke-width="0.398" fill="none" /><path id="1092" transform="matrix(1 0 0 -1 0 595)" d="M734.676 242.699L734.676 254.654" stroke="#000000" stroke-width="0.398" fill="none" /><path id="1093" transform="matrix(1 0 0 -1 0 595)" d="M107.214 230.744L107.214 242.699" stroke="#000000" stroke-width="0.398" fill="none" /><path id="1094" transform="matrix(1 0 0 -1 0 595)" d="M363.053 230.744L363.053 242.699" stroke="#000000" stroke-width="0.398" fill="none" /><path id="1107" transform="matrix(1 0 0 -1 0 595)" d="M486.927 230.744L486.927 242.699" stroke="#000000" stroke-width="0.398" fill="none" /><path id="1120" transform="matrix(1 0 0 -1 0 595)" d="M610.801 230.744L610.801 242.699" stroke="#000000" stroke-width="0.398" fill="none" /><path id="1121" transform="matrix(1 0 0 -1 0 595)" d="M734.676 230.744L734.676 242.699" stroke="#000000" stroke-width="0.398" fill="none" /><path id="1122" transform="matrix(1 0 0 -1 0 595)" d="M107.214 218.789L107.214 230.744" stroke="#000000" stroke-width="0.398" fill="none" /><path id="1153" transform="matrix(1 0 0 -1 0 595)" d="M363.053 218.789L363.053 230.744" stroke="#000000" stroke-width="0.398" fill="none" /><path id="1162" transform="matrix(1 0 0 -1 0 595)" d="M486.927 218.789L486.927 230.744" stroke="#000000" stroke-width="0.398" fill="none" /><path id="1171" transform="matrix(1 0 0 -1 0 595)" d="M610.801 218.789L610.801 230.744" stroke="#000000" stroke-width="0.398" fill="none" /><path id="1172" transform="matrix(1 0 0 -1 0 595)" d="M734.676 218.789L734.676 230.744" stroke="#000000" stroke-width="0.398" fill="none" /><path id="1173" transform="matrix(1 0 0 -1 0 595)" d="M107.014 218.59L734.875 218.59" stroke="#000000" stroke-width="0.398" fill="none" /><path id="1174" transform="matrix(1 0 0 -1 0 595)" d="M107.214 206.435L107.214 218.39" stroke="#000000" stroke-width="0.398" fill="none" /><path id="1175" transform="matrix(1 0 0 -1 0 595)" d="M107.413 206.435L362.853 206.435L362.853 218.39L107.413 218.39z" stroke="none" fill="#CBCEFB" fill-rule="nonzero" /><path id="1189" transform="matrix(1 0 0 -1 0 595)" d="M363.053 206.435L363.053 218.39" stroke="#000000" stroke-width="0.398" fill="none" /><path id="1190" transform="matrix(1 0 0 -1 0 595)" d="M363.252 206.435L487.1259 206.435L487.1259 218.39L363.252 218.39z" stroke="none" fill="#CBCEFB" fill-rule="nonzero" /><path id="1194" transform="matrix(1 0 0 -1 0 595)" d="M487.126 206.435L611 206.435L611 218.39L487.126 218.39z" stroke="none" fill="#CBCEFB" fill-rule="nonzero" /><path id="1201" transform="matrix(1 0 0 -1 0 595)" d="M611.001 206.435L734.875 206.435L734.875 218.39L611.001 218.39z" stroke="none" fill="#CBCEFB" fill-rule="nonzero" /><path id="1207" transform="matrix(1 0 0 -1 0 595)" d="M107.214 194.48L107.214 206.435" stroke="#000000" stroke-width="0.398" fill="none" /><path id="1231" transform="matrix(1 0 0 -1 0 595)" d="M363.053 194.48L363.053 206.435" stroke="#000000" stroke-width="0.398" fill="none" /><path id="1244" transform="matrix(1 0 0 -1 0 595)" d="M486.927 194.48L486.927 206.435" stroke="#000000" stroke-width="0.398" fill="none" /><path id="1245" transform="matrix(1 0 0 -1 0 595)" d="M610.801 194.48L610.801 206.435" stroke="#000000" stroke-width="0.398" fill="none" /><path id="1246" transform="matrix(1 0 0 -1 0 595)" d="M734.676 194.48L734.676 206.435" stroke="#000000" stroke-width="0.398" fill="none" /><path id="1247" transform="matrix(1 0 0 -1 0 595)" d="M107.214 182.525L107.214 194.48" stroke="#000000" stroke-width="0.398" fill="none" /><path id="1275" transform="matrix(1 0 0 -1 0 595)" d="M363.053 182.525L363.053 194.48" stroke="#000000" stroke-width="0.398" fill="none" /><path id="1288" transform="matrix(1 0 0 -1 0 595)" d="M486.927 182.525L486.927 194.48" stroke="#000000" stroke-width="0.398" fill="none" /><path id="1289" transform="matrix(1 0 0 -1 0 595)" d="M610.801 182.525L610.801 194.48" stroke="#000000" stroke-width="0.398" fill="none" /><path id="1290" transform="matrix(1 0 0 -1 0 595)" d="M734.676 182.525L734.676 194.48" stroke="#000000" stroke-width="0.398" fill="none" /><path id="1291" transform="matrix(1 0 0 -1 0 595)" d="M107.014 182.326L734.875 182.326" stroke="#000000" stroke-width="0.398" fill="none" /><path id="1292" transform="matrix(1 0 0 -1 0 595)" d="M107.214 121.811L107.214 182.126" stroke="#000000" stroke-width="0.398" fill="none" /><path id="1490" transform="matrix(1 0 0 -1 0 595)" d="M734.676 121.811L734.676 182.126" stroke="#000000" stroke-width="0.398" fill="none" /><path id="1491" transform="matrix(1 0 0 -1 0 595)" d="M107.014 121.612L734.875 121.612" stroke="#000000" stroke-width="0.398" fill="none" /></g></g></svg>