<svg xmlns="http://www.w3.org/2000/svg" xmlns:xlink="http://www.w3.org/1999/xlink" id="body_326" preserveAspectRatio="xMinYMin meet" viewBox="0 0 793 1121"><defs><clipPath id="1"><path id="" clip-rule="evenodd" transform="matrix(1 0 0 1 0 0)" d="M0 841L0 -0.8900146L0 -0.8900146L595.276 -0.8900146L595.276 -0.8900146L595.276 841L595.276 841L0 841z" /></clipPath></defs><g transform="matrix(1.333333 0 0 1.333333 0 0)"><g clip-path="url(#1)"><path id="23" transform="matrix(1 0 0 -1 0 841)" d="M85.039 766.564L510.236 766.564" stroke="#000000" stroke-width="0.498" fill="none" /><path id="1469" transform="matrix(1 0 0 -1 0 841)" d="M180.694 203.579L194.025 203.579" stroke="#000000" stroke-width="0.436" fill="none" /><path id="1689" transform="matrix(1 0 0 -1 0 841)" d="M138.348 91.996L186.565 91.996" stroke="#000000" stroke-width="0.436" fill="none" /><path id="1698" transform="matrix(1 0 0 -1 0 841)" d="M218.066 91.996L234.386 91.996" stroke="#000000" stroke-width="0.436" fill="none" /><path id="1720" transform="matrix(1 0 0 -1 0 841)" d="M297.971 91.996L346.188 91.996" stroke="#000000" stroke-width="0.436" fill="none" /><path id="1742" transform="matrix(1 0 0 -1 0 841)" d="M398.268 91.996L454.012 91.996" stroke="#000000" stroke-width="0.436" fill="none" /></g></g></svg>