<svg xmlns="http://www.w3.org/2000/svg" xmlns:xlink="http://www.w3.org/1999/xlink" id="body_337" preserveAspectRatio="xMinYMin meet" viewBox="0 0 793 1121"><defs><clipPath id="1"><path id="" clip-rule="evenodd" transform="matrix(1 0 0 1 0 0)" d="M0 841L0 -0.8900146L0 -0.8900146L595.276 -0.8900146L595.276 -0.8900146L595.276 841L595.276 841L0 841z" /></clipPath></defs><g transform="matrix(1.333333 0 0 1.333333 0 0)"><g clip-path="url(#1)"><path id="34" transform="matrix(1 0 0 -1 0 841)" d="M85.039 766.564L510.236 766.564" stroke="#000000" stroke-width="0.498" fill="none" /><path id="38" transform="matrix(1 0 0 -1 0 841)" d="M113.508 730.642L129.261 730.642" stroke="#000000" stroke-width="0.436" fill="none" /><path id="49" transform="matrix(1 0 0 -1 0 841)" d="M167.885 730.642L185.459 730.642" stroke="#000000" stroke-width="0.436" fill="none" /><path id="69" transform="matrix(1 0 0 -1 0 841)" d="M258.648 730.642L272.59 730.642" stroke="#000000" stroke-width="0.436" fill="none" /><path id="93" transform="matrix(1 0 0 -1 0 841)" d="M399.602 730.642L413.544 730.642" stroke="#000000" stroke-width="0.436" fill="none" /><path id="99" transform="matrix(1 0 0 -1 0 841)" d="M457.132 744.742L472.885 744.742" stroke="#000000" stroke-width="0.436" fill="none" /><path id="103" transform="matrix(1 0 0 -1 0 841)" d="M430.012 730.642L500.004 730.642" stroke="#000000" stroke-width="0.436" fill="none" /><path id="110" transform="matrix(1 0 0 -1 0 841)" d="M453.364 717.159L470.938 717.159" stroke="#000000" stroke-width="0.436" fill="none" /><path id="134" transform="matrix(1 0 0 -1 0 841)" d="M175.318 677.382L189.26 677.382" stroke="#000000" stroke-width="0.436" fill="none" /><path id="142" transform="matrix(1 0 0 -1 0 841)" d="M233.437 691.481L249.19 691.481" stroke="#000000" stroke-width="0.436" fill="none" /><path id="146" transform="matrix(1 0 0 -1 0 841)" d="M204.975 677.382L266.741 677.382" stroke="#000000" stroke-width="0.436" fill="none" /><path id="152" transform="matrix(1 0 0 -1 0 841)" d="M220.101 663.899L237.675 663.899" stroke="#000000" stroke-width="0.436" fill="none" /><path id="165" transform="matrix(1 0 0 -1 0 841)" d="M291.299 677.382L305.241 677.382" stroke="#000000" stroke-width="0.436" fill="none" /><path id="167" transform="matrix(1 0 0 -1 0 841)" d="M281.262 690.192L309.824 690.192" stroke="#000000" stroke-width="0.398" fill="none" /><path id="168" transform="matrix(1 0 0 -1 0 841)" d="M281.461 663.983L281.461 690.192" stroke="#000000" stroke-width="0.398" fill="none" /><path id="169" transform="matrix(1 0 0 -1 0 841)" d="M309.624 663.983L309.624 690.192" stroke="#000000" stroke-width="0.398" fill="none" /><path id="170" transform="matrix(1 0 0 -1 0 841)" d="M281.262 663.983L309.824 663.983" stroke="#000000" stroke-width="0.398" fill="none" /><path id="336" transform="matrix(1 0 0 -1 0 841)" d="M354.3337 521.0834C 354.3337 544.567 335.297 563.6036 311.8135 563.6036C 288.3299 563.6036 269.2933 544.567 269.2933 521.0834C 269.2933 497.5999 288.3299 478.5632 311.8135 478.5632C 335.297 478.5632 354.3337 497.5999 354.3337 521.0834z" stroke="#000000" stroke-width="0.3985" fill="#F2F2F2" fill-rule="nonzero" /><path id="337" transform="matrix(1 0 0 -1 0 841)" d="M269.2932 521.0834L354.3337 521.0834" stroke="#000000" stroke-width="1.19553" fill="none" /><path id="366" transform="matrix(1 0 0 -1 0 841)" d="M289.1359 484.2325L311.8135 521.0834" stroke="#000000" stroke-width="1.19553" fill="none" /><path id="367" transform="matrix(1 0 0 -1 0 841)" d="M334.491 484.2325L311.8135 521.0834" stroke="#000000" stroke-width="1.19553" fill="none" /><path id="371" transform="matrix(1 0 0 -1 0 841)" d="M113.508 397.631L129.261 397.631" stroke="#000000" stroke-width="0.436" fill="none" /><path id="382" transform="matrix(1 0 0 -1 0 841)" d="M167.885 397.631L185.459 397.631" stroke="#000000" stroke-width="0.436" fill="none" /><path id="402" transform="matrix(1 0 0 -1 0 841)" d="M258.648 397.631L272.59 397.631" stroke="#000000" stroke-width="0.436" fill="none" /><path id="426" transform="matrix(1 0 0 -1 0 841)" d="M399.602 397.631L413.544 397.631" stroke="#000000" stroke-width="0.436" fill="none" /><path id="432" transform="matrix(1 0 0 -1 0 841)" d="M457.132 411.731L472.885 411.731" stroke="#000000" stroke-width="0.436" fill="none" /><path id="436" transform="matrix(1 0 0 -1 0 841)" d="M430.012 397.631L500.004 397.631" stroke="#000000" stroke-width="0.436" fill="none" /><path id="443" transform="matrix(1 0 0 -1 0 841)" d="M453.364 384.148L470.938 384.148" stroke="#000000" stroke-width="0.436" fill="none" /><path id="467" transform="matrix(1 0 0 -1 0 841)" d="M175.318 344.371L189.26 344.371" stroke="#000000" stroke-width="0.436" fill="none" /><path id="474" transform="matrix(1 0 0 -1 0 841)" d="M307.494 358.471L323.247 358.471" stroke="#000000" stroke-width="0.436" fill="none" /><path id="478" transform="matrix(1 0 0 -1 0 841)" d="M204.975 344.371L420.31 344.371" stroke="#000000" stroke-width="0.436" fill="none" /><path id="498" transform="matrix(1 0 0 -1 0 841)" d="M251.761 326.481L285.699 326.481" stroke="#000000" stroke-width="0.436" fill="none" /><path id="505" transform="matrix(1 0 0 -1 0 841)" d="M296.574 326.481L382.616 326.481" stroke="#000000" stroke-width="0.436" fill="none" /><path id="537" transform="matrix(1 0 0 -1 0 841)" d="M444.868 344.371L458.81 344.371" stroke="#000000" stroke-width="0.436" fill="none" /><path id="539" transform="matrix(1 0 0 -1 0 841)" d="M434.831 357.181L463.393 357.181" stroke="#000000" stroke-width="0.398" fill="none" /><path id="540" transform="matrix(1 0 0 -1 0 841)" d="M435.03 330.972L435.03 357.181" stroke="#000000" stroke-width="0.398" fill="none" /><path id="541" transform="matrix(1 0 0 -1 0 841)" d="M463.193 330.972L463.193 357.181" stroke="#000000" stroke-width="0.398" fill="none" /><path id="542" transform="matrix(1 0 0 -1 0 841)" d="M434.831 330.972L463.393 330.972" stroke="#000000" stroke-width="0.398" fill="none" /><path id="650" transform="matrix(1 0 0 -1 0 841)" d="M354.3337 202.4794C 354.3337 225.963 335.297 244.9996 311.8135 244.9996C 288.3299 244.9996 269.2933 225.963 269.2933 202.4794C 269.2933 178.9958 288.3299 159.9592 311.8135 159.9592C 335.297 159.9592 354.3337 178.9958 354.3337 202.4794z" stroke="#000000" stroke-width="0.3985" fill="#F2F2F2" fill-rule="nonzero" /><path id="651" transform="matrix(1 0 0 -1 0 841)" d="M269.2932 202.4794L354.3337 202.4794" stroke="#000000" stroke-width="1.19553" fill="none" /><path id="678" transform="matrix(1 0 0 -1 0 841)" d="M289.1359 165.6285L311.8135 202.4794" stroke="#000000" stroke-width="1.19553" fill="none" /><path id="679" transform="matrix(1 0 0 -1 0 841)" d="M334.491 165.6285L311.8135 202.4794" stroke="#000000" stroke-width="1.19553" fill="none" /><path id="683" transform="matrix(1 0 0 -1 0 841)" d="M113.508 92.132L129.261 92.132" stroke="#000000" stroke-width="0.436" fill="none" /><path id="694" transform="matrix(1 0 0 -1 0 841)" d="M167.132 92.132L184.706 92.132" stroke="#000000" stroke-width="0.436" fill="none" /><path id="714" transform="matrix(1 0 0 -1 0 841)" d="M257.392 92.132L271.334 92.132" stroke="#000000" stroke-width="0.436" fill="none" /></g></g></svg>