<svg xmlns="http://www.w3.org/2000/svg" xmlns:xlink="http://www.w3.org/1999/xlink" id="body_329" preserveAspectRatio="xMinYMin meet" viewBox="0 0 793 1121"><defs><clipPath id="1"><path id="" clip-rule="evenodd" transform="matrix(1 0 0 1 0 0)" d="M0 841L0 -0.8900146L0 -0.8900146L595.276 -0.8900146L595.276 -0.8900146L595.276 841L595.276 841L0 841z" /></clipPath></defs><g transform="matrix(1.333333 0 0 1.333333 0 0)"><g clip-path="url(#1)"><path id="37" transform="matrix(1 0 0 -1 0 841)" d="M85.039 766.564L510.236 766.564" stroke="#000000" stroke-width="0.498" fill="none" /><path id="54" transform="matrix(1 0 0 -1 0 841)" d="M152.62 744.742L199.269 744.742" stroke="#000000" stroke-width="0.436" fill="none" /><path id="99" transform="matrix(1 0 0 -1 0 841)" d="M321.467 752.713L418.264 752.713" stroke="#000000" stroke-width="0.398" fill="none" /><path id="100" transform="matrix(1 0 0 -1 0 841)" d="M321.666 736.71L321.666 752.713" stroke="#000000" stroke-width="0.398" fill="none" /><path id="101" transform="matrix(1 0 0 -1 0 841)" d="M418.064 736.71L418.064 752.713" stroke="#000000" stroke-width="0.398" fill="none" /><path id="102" transform="matrix(1 0 0 -1 0 841)" d="M321.467 736.71L418.264 736.71" stroke="#000000" stroke-width="0.398" fill="none" /><path id="173" transform="matrix(1 0 0 -1 0 841)" d="M154.959 691.618L236.059 691.618" stroke="#000000" stroke-width="0.436" fill="none" /><path id="249" transform="matrix(1 0 0 -1 0 841)" d="M85.039 425.639L85.039 647.6316C 85.039 649.9799 86.94264 651.8835 89.29099 651.8835L89.29099 651.8835L505.9893 651.8835C 508.3377 651.8835 510.2413 649.9799 510.2413 647.6316L510.2413 647.6316L510.2413 425.639C 510.2413 423.2906 508.3377 421.387 505.9893 421.387L505.9893 421.387L89.29099 421.387C 86.94264 421.387 85.039 423.2906 85.039 425.639z" stroke="none" fill="#BFBFFF" fill-rule="nonzero" /><path id="250" transform="matrix(1 0 0 -1 0 841)" d="M86.45631 425.639L86.45631 635.8742L86.45631 635.8742L508.824 635.8742L508.824 635.8742L508.824 425.639C 508.824 424.0734 507.5549 422.8043 505.9893 422.8043L505.9893 422.8043L89.29099 422.8043C 87.72543 422.8043 86.45631 424.0734 86.45631 425.639z" stroke="none" fill="#E6E6FF" fill-rule="nonzero" /><path id="1224" transform="matrix(1 0 0 -1 0 841)" d="M86.235 191.277L102.555 191.277" stroke="#000000" stroke-width="0.436" fill="none" /><path id="1239" transform="matrix(1 0 0 -1 0 841)" d="M173.849 191.277L187.18 191.277" stroke="#000000" stroke-width="0.436" fill="none" /><path id="1255" transform="matrix(1 0 0 -1 0 841)" d="M260.205 191.277L276.525 191.277" stroke="#000000" stroke-width="0.436" fill="none" /><path id="1259" transform="matrix(1 0 0 -1 0 841)" d="M229.57 206.633L281.107 206.633" stroke="#000000" stroke-width="0.398" fill="none" /><path id="1260" transform="matrix(1 0 0 -1 0 841)" d="M229.77 175.652L229.77 206.633" stroke="#000000" stroke-width="0.398" fill="none" /><path id="1261" transform="matrix(1 0 0 -1 0 841)" d="M280.909 175.652L280.909 206.633" stroke="#000000" stroke-width="0.398" fill="none" /><path id="1262" transform="matrix(1 0 0 -1 0 841)" d="M229.57 175.652L281.107 175.652" stroke="#000000" stroke-width="0.398" fill="none" /><path id="1390" transform="matrix(1 0 0 -1 0 841)" d="M152.62 94.687L199.269 94.687" stroke="#000000" stroke-width="0.436" fill="none" /><path id="1435" transform="matrix(1 0 0 -1 0 841)" d="M321.467 102.658L418.264 102.658" stroke="#000000" stroke-width="0.398" fill="none" /><path id="1436" transform="matrix(1 0 0 -1 0 841)" d="M321.666 86.655L321.666 102.658" stroke="#000000" stroke-width="0.398" fill="none" /><path id="1437" transform="matrix(1 0 0 -1 0 841)" d="M418.064 86.655L418.064 102.658" stroke="#000000" stroke-width="0.398" fill="none" /><path id="1438" transform="matrix(1 0 0 -1 0 841)" d="M321.467 86.655L418.264 86.655" stroke="#000000" stroke-width="0.398" fill="none" /></g></g></svg>