<svg xmlns="http://www.w3.org/2000/svg" xmlns:xlink="http://www.w3.org/1999/xlink" id="body_289" preserveAspectRatio="xMinYMin meet" viewBox="0 0 793 1121"><defs><clipPath id="1"><path id="" clip-rule="evenodd" transform="matrix(1 0 0 1 0 0)" d="M0 841L0 -0.8900146L0 -0.8900146L595.276 -0.8900146L595.276 -0.8900146L595.276 841L595.276 841L0 841z" /></clipPath></defs><g transform="matrix(1.333333 0 0 1.333333 0 0)"><g clip-path="url(#1)"><path id="23" transform="matrix(1 0 0 -1 0 841)" d="M85.039 766.564L510.236 766.564" stroke="#000000" stroke-width="0.498" fill="none" /><path id="24" transform="matrix(1 0 0 -1 0 841)" d="M85.039 597.9349L85.039 752.6008C 85.039 754.9492 86.94264 756.8528 89.29099 756.8528L89.29099 756.8528L505.9893 756.8528C 508.3377 756.8528 510.2413 754.9492 510.2413 752.6008L510.2413 752.6008L510.2413 597.9349C 510.2413 595.5866 508.3377 593.683 505.9893 593.683L505.9893 593.683L89.29099 593.683C 86.94264 593.683 85.039 595.5866 85.039 597.9349z" stroke="none" fill="#BFBFFF" fill-rule="nonzero" /><path id="25" transform="matrix(1 0 0 -1 0 841)" d="M86.45631 597.9349L86.45631 740.8434L86.45631 740.8434L508.824 740.8434L508.824 740.8434L508.824 597.9349C 508.824 596.3694 507.5549 595.1003 505.9893 595.1003L505.9893 595.1003L89.29099 595.1003C 87.72543 595.1003 86.45631 596.3694 86.45631 597.9349z" stroke="none" fill="#E6E6FF" fill-rule="nonzero" /><g transform="matrix(0.375 0 0 0.375 156.451 288.441)"><g transform="matrix(1 0 0 1 0 0)"><image x="0" y="0" xlink:href="img_423.png" width="753" height="727" /></g></g><path id="571" transform="matrix(1 0 0 -1 0 841)" d="M138.653 143.0394L98.96808 162.8819L167.0057 183.145L206.686 172.8038z" stroke="none" fill="#CCCCCC" fill-rule="nonzero" /><path id="581" transform="matrix(1 0 0 -1 0 841)" d="M98.96808 162.8819L98.96808 208.2369L167.0066 216.9222L167.0057 183.145z" stroke="none" fill="#BFBFBF" fill-rule="nonzero" /><path id="590" transform="matrix(1 0 0 -1 0 841)" d="M167.0066 216.9222L167.0057 183.145L206.686 172.8038L206.686 212.4892z" stroke="none" fill="#F2F2F2" fill-rule="nonzero" fill-opacity="0.2" /><path id="599" transform="matrix(1 0 0 -1 0 841)" d="M138.653 199.733L138.653 143.0394L98.96808 162.8819L98.96808 208.2369z" stroke="none" fill="#F2F2F2" fill-rule="nonzero" fill-opacity="0.4980392" /><path id="608" transform="matrix(1 0 0 -1 0 841)" d="M138.653 199.733L98.96808 208.2369L167.0066 216.9222L206.686 212.4892z" stroke="none" fill="#CCCCCC" fill-rule="nonzero" fill-opacity="0.2" /><path id="620" transform="matrix(1 0 0 -1 0 841)" d="M167.0066 216.9222L167.0057 183.145" stroke="#000000" stroke-width="0.79701" stroke-dasharray="3.750053,3.750053" fill="none" /><path id="621" transform="matrix(1 0 0 -1 0 841)" d="M98.96808 162.8819L167.0057 183.145" stroke="#000000" stroke-width="0.79701" stroke-dasharray="3.750053,3.750053" fill="none" /><path id="622" transform="matrix(1 0 0 -1 0 841)" d="M206.686 172.8038L167.0057 183.145" stroke="#000000" stroke-width="0.79701" stroke-dasharray="3.750053,3.750053" fill="none" /><path id="631" transform="matrix(1 0 0 -1 0 841)" d="M138.653 199.733L138.653 143.0394" stroke="#000000" stroke-width="0.79701" fill="none" /><path id="632" transform="matrix(1 0 0 -1 0 841)" d="M87.62868 210.1064L87.62868 163.2806" stroke="#000000" stroke-width="0.3985" fill="none" /><path id="633" transform="matrix(1 0 0 -1 0 841)" d="M85.23764 208.2334C 86.67229 208.612 87.34972 209.4557 87.62868 210.3056C 87.90763 209.4557 88.58507 208.612 90.01971 208.2334" stroke="#000000" stroke-width="0.3985" stroke-linecap="round" fill="none" /><path id="634" transform="matrix(1 0 0 -1 0 841)" d="M90.01971 165.1536C 88.58507 164.775 87.90763 163.9313 87.62868 163.0813C 87.34972 163.9313 86.67229 164.775 85.23764 165.1536" stroke="#000000" stroke-width="0.3985" stroke-linecap="round" fill="none" /><path id="645" transform="matrix(1 0 0 -1 0 841)" d="M93.6488 159.8587L129.798 140.3934" stroke="#000000" stroke-width="0.3985" fill="none" /><path id="646" transform="matrix(1 0 0 -1 0 841)" d="M94.16428 156.8656C 94.51111 158.3082 94.08949 159.3046 93.47339 159.9532C 94.35398 159.7958 95.41792 159.9923 96.43137 161.0759" stroke="#000000" stroke-width="0.3984783" stroke-linecap="round" fill="none" /><path id="647" transform="matrix(1 0 0 -1 0 841)" d="M129.2825 143.3865C 128.9357 141.944 129.3573 140.9476 129.9734 140.299C 129.0928 140.4564 128.0289 140.2599 127.0155 139.1763" stroke="#000000" stroke-width="0.3984783" stroke-linecap="round" fill="none" /><path id="658" transform="matrix(1 0 0 -1 0 841)" d="M211.9909 167.5387L144.6862 137.5324" stroke="#000000" stroke-width="0.3985" fill="none" /><path id="659" transform="matrix(1 0 0 -1 0 841)" d="M209.3067 168.9598C 210.2366 167.8037 211.283 167.5285 212.1729 167.6198C 211.5102 167.019 211.0155 166.0567 211.2539 164.5923" stroke="#000000" stroke-width="0.3984862" stroke-linecap="round" fill="none" /><path id="660" transform="matrix(1 0 0 -1 0 841)" d="M147.3704 136.1113C 146.4405 137.2674 145.3941 137.5426 144.5042 137.4512C 145.1669 138.0521 145.6616 139.0143 145.4232 140.4788" stroke="#000000" stroke-width="0.3984862" stroke-linecap="round" fill="none" /><path id="670" transform="matrix(1 0 0 -1 0 841)" d="M98.96808 162.8819L98.96808 208.2369" stroke="#000000" stroke-width="0.79701" fill="none" /><path id="671" transform="matrix(1 0 0 -1 0 841)" d="M206.686 172.8038L206.686 212.4892" stroke="#000000" stroke-width="0.79701" fill="none" /><path id="672" transform="matrix(1 0 0 -1 0 841)" d="M138.653 199.733L98.96808 208.2369" stroke="#000000" stroke-width="0.79701" fill="none" /><path id="673" transform="matrix(1 0 0 -1 0 841)" d="M138.653 199.733L206.686 212.4892" stroke="#000000" stroke-width="0.79701" fill="none" /><path id="674" transform="matrix(1 0 0 -1 0 841)" d="M138.653 143.0394L98.96808 162.8819" stroke="#000000" stroke-width="0.79701" fill="none" /><path id="675" transform="matrix(1 0 0 -1 0 841)" d="M138.653 143.0394L206.686 172.8038" stroke="#000000" stroke-width="0.79701" fill="none" /><path id="676" transform="matrix(1 0 0 -1 0 841)" d="M98.96808 208.2369L167.0066 216.9222" stroke="#000000" stroke-width="0.79701" fill="none" /><path id="677" transform="matrix(1 0 0 -1 0 841)" d="M206.686 212.4892L167.0066 216.9222" stroke="#000000" stroke-width="0.79701" fill="none" /><path id="734" transform="matrix(1 0 0 -1 0 841)" d="M153.498 115.001L190.883 115.001" stroke="#000000" stroke-width="0.398" fill="none" /><path id="735" transform="matrix(1 0 0 -1 0 841)" d="M153.697 96.508L153.697 115.001" stroke="#000000" stroke-width="0.398" fill="none" /><path id="736" transform="matrix(1 0 0 -1 0 841)" d="M190.683 96.508L190.683 115.001" stroke="#000000" stroke-width="0.398" fill="none" /><path id="737" transform="matrix(1 0 0 -1 0 841)" d="M153.498 96.508L190.883 96.508" stroke="#000000" stroke-width="0.398" fill="none" /></g></g></svg>