<svg xmlns="http://www.w3.org/2000/svg" xmlns:xlink="http://www.w3.org/1999/xlink" id="body_324" preserveAspectRatio="xMinYMin meet" viewBox="0 0 793 1121"><defs><clipPath id="1"><path id="" clip-rule="evenodd" transform="matrix(1 0 0 1 0 0)" d="M0 841L0 -0.8900146L0 -0.8900146L595.276 -0.8900146L595.276 -0.8900146L595.276 841L595.276 841L0 841z" /></clipPath></defs><g transform="matrix(1.333333 0 0 1.333333 0 0)"><g clip-path="url(#1)"><path id="34" transform="matrix(1 0 0 -1 0 841)" d="M85.039 766.564L510.236 766.564" stroke="#000000" stroke-width="0.498" fill="none" /><path id="113" transform="matrix(1 0 0 -1 0 841)" d="M85.039 650.989L281.222 650.989" stroke="#000000" stroke-width="0.398" fill="none" /><path id="114" transform="matrix(1 0 0 -1 0 841)" d="M85.239 633.853L85.239 650.789" stroke="#000000" stroke-width="0.398" fill="none" /><path id="115" transform="matrix(1 0 0 -1 0 841)" d="M108.196 633.853L108.196 650.789" stroke="#000000" stroke-width="0.398" fill="none" /><path id="123" transform="matrix(1 0 0 -1 0 841)" d="M192.645 633.853L192.645 650.789" stroke="#000000" stroke-width="0.398" fill="none" /><path id="138" transform="matrix(1 0 0 -1 0 841)" d="M281.023 633.853L281.023 650.789" stroke="#000000" stroke-width="0.398" fill="none" /><path id="139" transform="matrix(1 0 0 -1 0 841)" d="M85.039 633.654L281.222 633.654" stroke="#000000" stroke-width="0.398" fill="none" /><path id="140" transform="matrix(1 0 0 -1 0 841)" d="M85.239 616.518L85.239 633.454" stroke="#000000" stroke-width="0.398" fill="none" /><path id="143" transform="matrix(1 0 0 -1 0 841)" d="M108.196 616.518L108.196 633.454" stroke="#000000" stroke-width="0.398" fill="none" /><path id="154" transform="matrix(1 0 0 -1 0 841)" d="M192.645 616.518L192.645 633.454" stroke="#000000" stroke-width="0.398" fill="none" /><path id="159" transform="matrix(1 0 0 -1 0 841)" d="M281.023 616.518L281.023 633.454" stroke="#000000" stroke-width="0.398" fill="none" /><path id="160" transform="matrix(1 0 0 -1 0 841)" d="M85.039 616.319L281.222 616.319" stroke="#000000" stroke-width="0.398" fill="none" /><path id="161" transform="matrix(1 0 0 -1 0 841)" d="M85.239 599.183L85.239 616.119" stroke="#000000" stroke-width="0.398" fill="none" /><path id="164" transform="matrix(1 0 0 -1 0 841)" d="M108.196 599.183L108.196 616.119" stroke="#000000" stroke-width="0.398" fill="none" /><path id="178" transform="matrix(1 0 0 -1 0 841)" d="M192.645 599.183L192.645 616.119" stroke="#000000" stroke-width="0.398" fill="none" /><path id="182" transform="matrix(1 0 0 -1 0 841)" d="M281.023 599.183L281.023 616.119" stroke="#000000" stroke-width="0.398" fill="none" /><path id="183" transform="matrix(1 0 0 -1 0 841)" d="M85.039 598.984L281.222 598.984" stroke="#000000" stroke-width="0.398" fill="none" /><path id="184" transform="matrix(1 0 0 -1 0 841)" d="M85.239 581.848L85.239 598.784" stroke="#000000" stroke-width="0.398" fill="none" /><path id="187" transform="matrix(1 0 0 -1 0 841)" d="M108.196 581.848L108.196 598.784" stroke="#000000" stroke-width="0.398" fill="none" /><path id="198" transform="matrix(1 0 0 -1 0 841)" d="M192.645 581.848L192.645 598.784" stroke="#000000" stroke-width="0.398" fill="none" /><path id="201" transform="matrix(1 0 0 -1 0 841)" d="M281.023 581.848L281.023 598.784" stroke="#000000" stroke-width="0.398" fill="none" /><path id="202" transform="matrix(1 0 0 -1 0 841)" d="M85.039 581.649L281.222 581.649" stroke="#000000" stroke-width="0.398" fill="none" /><path id="203" transform="matrix(1 0 0 -1 0 841)" d="M85.239 564.513L85.239 581.449" stroke="#000000" stroke-width="0.398" fill="none" /><path id="206" transform="matrix(1 0 0 -1 0 841)" d="M108.196 564.513L108.196 581.449" stroke="#000000" stroke-width="0.398" fill="none" /><path id="214" transform="matrix(1 0 0 -1 0 841)" d="M192.645 564.513L192.645 581.449" stroke="#000000" stroke-width="0.398" fill="none" /><path id="217" transform="matrix(1 0 0 -1 0 841)" d="M281.023 564.513L281.023 581.449" stroke="#000000" stroke-width="0.398" fill="none" /><path id="218" transform="matrix(1 0 0 -1 0 841)" d="M85.039 564.314L281.222 564.314" stroke="#000000" stroke-width="0.398" fill="none" /><path id="219" transform="matrix(1 0 0 -1 0 841)" d="M85.039 553.493L292.131 553.493" stroke="#000000" stroke-width="0.398" fill="none" /><path id="220" transform="matrix(1 0 0 -1 0 841)" d="M85.239 536.358L85.239 553.2939" stroke="#000000" stroke-width="0.398" fill="none" /><path id="221" transform="matrix(1 0 0 -1 0 841)" d="M108.196 536.358L108.196 553.2939" stroke="#000000" stroke-width="0.398" fill="none" /><path id="229" transform="matrix(1 0 0 -1 0 841)" d="M203.554 536.358L203.554 553.2939" stroke="#000000" stroke-width="0.398" fill="none" /><path id="244" transform="matrix(1 0 0 -1 0 841)" d="M291.932 536.358L291.932 553.2939" stroke="#000000" stroke-width="0.398" fill="none" /><path id="245" transform="matrix(1 0 0 -1 0 841)" d="M85.039 536.158L292.131 536.158" stroke="#000000" stroke-width="0.398" fill="none" /><path id="246" transform="matrix(1 0 0 -1 0 841)" d="M85.239 519.023L85.239 535.959" stroke="#000000" stroke-width="0.398" fill="none" /><path id="249" transform="matrix(1 0 0 -1 0 841)" d="M108.196 519.023L108.196 535.959" stroke="#000000" stroke-width="0.398" fill="none" /><path id="265" transform="matrix(1 0 0 -1 0 841)" d="M203.554 519.023L203.554 535.959" stroke="#000000" stroke-width="0.398" fill="none" /><path id="271" transform="matrix(1 0 0 -1 0 841)" d="M291.932 519.023L291.932 535.959" stroke="#000000" stroke-width="0.398" fill="none" /><path id="272" transform="matrix(1 0 0 -1 0 841)" d="M85.039 518.823L292.131 518.823" stroke="#000000" stroke-width="0.398" fill="none" /><path id="273" transform="matrix(1 0 0 -1 0 841)" d="M85.239 501.688L85.239 518.624" stroke="#000000" stroke-width="0.398" fill="none" /><path id="276" transform="matrix(1 0 0 -1 0 841)" d="M108.196 501.688L108.196 518.624" stroke="#000000" stroke-width="0.398" fill="none" /><path id="289" transform="matrix(1 0 0 -1 0 841)" d="M203.554 501.688L203.554 518.624" stroke="#000000" stroke-width="0.398" fill="none" /><path id="295" transform="matrix(1 0 0 -1 0 841)" d="M291.932 501.688L291.932 518.624" stroke="#000000" stroke-width="0.398" fill="none" /><path id="296" transform="matrix(1 0 0 -1 0 841)" d="M85.039 501.488L292.131 501.488" stroke="#000000" stroke-width="0.398" fill="none" /><path id="297" transform="matrix(1 0 0 -1 0 841)" d="M85.239 484.353L85.239 501.289" stroke="#000000" stroke-width="0.398" fill="none" /><path id="300" transform="matrix(1 0 0 -1 0 841)" d="M108.196 484.353L108.196 501.289" stroke="#000000" stroke-width="0.398" fill="none" /><path id="312" transform="matrix(1 0 0 -1 0 841)" d="M203.554 484.353L203.554 501.289" stroke="#000000" stroke-width="0.398" fill="none" /><path id="316" transform="matrix(1 0 0 -1 0 841)" d="M291.932 484.353L291.932 501.289" stroke="#000000" stroke-width="0.398" fill="none" /><path id="317" transform="matrix(1 0 0 -1 0 841)" d="M85.039 484.153L292.131 484.153" stroke="#000000" stroke-width="0.398" fill="none" /><path id="318" transform="matrix(1 0 0 -1 0 841)" d="M85.239 467.018L85.239 483.954" stroke="#000000" stroke-width="0.398" fill="none" /><path id="321" transform="matrix(1 0 0 -1 0 841)" d="M108.196 467.018L108.196 483.954" stroke="#000000" stroke-width="0.398" fill="none" /><path id="333" transform="matrix(1 0 0 -1 0 841)" d="M203.554 467.018L203.554 483.954" stroke="#000000" stroke-width="0.398" fill="none" /><path id="341" transform="matrix(1 0 0 -1 0 841)" d="M291.932 467.018L291.932 483.954" stroke="#000000" stroke-width="0.398" fill="none" /><path id="342" transform="matrix(1 0 0 -1 0 841)" d="M85.039 466.818L292.131 466.818" stroke="#000000" stroke-width="0.398" fill="none" /><path id="496" transform="matrix(1 0 0 -1 0 841)" d="M113.508 127.309L333.958 127.309" stroke="#000000" stroke-width="0.436" fill="none" /><path id="503" transform="matrix(1 0 0 -1 0 841)" d="M348.478 135.22L374.638 135.22" stroke="#000000" stroke-width="0.398" fill="none" /><path id="504" transform="matrix(1 0 0 -1 0 841)" d="M348.678 121.225L348.678 135.221" stroke="#000000" stroke-width="0.398" fill="none" /><path id="505" transform="matrix(1 0 0 -1 0 841)" d="M374.439 121.225L374.439 135.221" stroke="#000000" stroke-width="0.398" fill="none" /><path id="506" transform="matrix(1 0 0 -1 0 841)" d="M348.478 121.225L374.638 121.225" stroke="#000000" stroke-width="0.398" fill="none" /></g></g></svg>