<svg xmlns="http://www.w3.org/2000/svg" xmlns:xlink="http://www.w3.org/1999/xlink" id="body_225" preserveAspectRatio="xMinYMin meet" viewBox="0 0 793 1121"><defs><clipPath id="1"><path id="" clip-rule="evenodd" transform="matrix(1 0 0 1 0 0)" d="M0 841L0 -0.8900146L0 -0.8900146L595.276 -0.8900146L595.276 -0.8900146L595.276 841L595.276 841L0 841z" /></clipPath><clipPath id="2"><path id="" clip-rule="evenodd" transform="matrix(1 0 0 1 0 0)" d="M0.125 841.073L595.1547 841.073L595.1547 841.073L595.1547 -0.9690552L595.1547 -0.9690552L0.125 -0.9690552z" /></clipPath><clipPath id="3"><path id="" clip-rule="evenodd" transform="matrix(1 0 0 1 0 0)" d="M19.4363 27.69806L575.6259 27.69806L575.6259 27.69806L575.6259 803.7487L575.6259 803.7487L19.4363 803.7487z" /></clipPath><clipPath id="4"><path id="" clip-rule="evenodd" transform="matrix(1 0 0 1 0 0)" d="M19.4363 27.69806L575.6259 27.69806L575.6259 27.69806L575.6259 803.7487L575.6259 803.7487L19.4363 803.7487z" /></clipPath><clipPath id="5"><path id="" clip-rule="evenodd" transform="matrix(1 0 0 1 0 0)" d="M178.1248 120.6562L569.0288 120.6562L569.0288 120.6562L569.0288 132.7708L569.0288 132.7708L178.1248 132.7708z" /></clipPath><clipPath id="6"><path id="" clip-rule="evenodd" transform="matrix(1 0 0 1 0 0)" d="M19.4363 27.69806L575.6259 27.69806L575.6259 27.69806L575.6259 803.7487L575.6259 803.7487L19.4363 803.7487z" /></clipPath><clipPath id="7"><path id="" clip-rule="evenodd" transform="matrix(1 0 0 1 0 0)" d="M178.1248 150.6427L569.0288 150.6427L569.0288 150.6427L569.0288 174.7518L569.0288 174.7518L178.1248 174.7518z" /></clipPath><clipPath id="8"><path id="" clip-rule="evenodd" transform="matrix(1 0 0 1 0 0)" d="M19.4363 27.69806L575.6259 27.69806L575.6259 27.69806L575.6259 803.7487L575.6259 803.7487L19.4363 803.7487z" /></clipPath><clipPath id="9"><path id="" clip-rule="evenodd" transform="matrix(1 0 0 1 0 0)" d="M178.1248 177.5106L569.0288 177.5106L569.0288 177.5106L569.0288 189.7451L569.0288 189.7451L178.1248 189.7451z" /></clipPath><clipPath id="10"><path id="" clip-rule="evenodd" transform="matrix(1 0 0 1 0 0)" d="M19.4363 27.69806L575.6259 27.69806L575.6259 27.69806L575.6259 803.7487L575.6259 803.7487L19.4363 803.7487z" /></clipPath><clipPath id="11"><path id="" clip-rule="evenodd" transform="matrix(1 0 0 1 0 0)" d="M22.31501 30.57672L481.2284 30.57672L481.2284 30.57672L481.2284 61.64276L481.2284 61.64276L22.31501 61.64276z" /></clipPath><clipPath id="12"><path id="" clip-rule="evenodd" transform="matrix(1 0 0 1 0 0)" d="M19.4363 27.69806L575.6259 27.69806L575.6259 27.69806L575.6259 803.7487L575.6259 803.7487L19.4363 803.7487z" /></clipPath><clipPath id="13"><path id="" clip-rule="evenodd" transform="matrix(1 0 0 1 0 0)" d="M25.07376 120.6562L161.0925 120.6562L161.0925 120.6562L161.0925 132.7708L161.0925 132.7708L25.07376 132.7708z" /></clipPath><clipPath id="14"><path id="" clip-rule="evenodd" transform="matrix(1 0 0 1 0 0)" d="M19.4363 27.69806L575.6259 27.69806L575.6259 27.69806L575.6259 803.7487L575.6259 803.7487L19.4363 803.7487z" /></clipPath><clipPath id="15"><path id="" clip-rule="evenodd" transform="matrix(1 0 0 1 0 0)" d="M25.07376 150.6427L161.0925 150.6427L161.0925 150.6427L161.0925 174.7518L161.0925 174.7518L25.07376 174.7518z" /></clipPath><clipPath id="16"><path id="" clip-rule="evenodd" transform="matrix(1 0 0 1 0 0)" d="M19.4363 27.69806L575.6259 27.69806L575.6259 27.69806L575.6259 803.7487L575.6259 803.7487L19.4363 803.7487z" /></clipPath><clipPath id="17"><path id="" clip-rule="evenodd" transform="matrix(1 0 0 1 0 0)" d="M25.07376 177.5106L161.0925 177.5106L161.0925 177.5106L161.0925 189.7451L161.0925 189.7451L25.07376 189.7451z" /></clipPath><clipPath id="18"><path id="" clip-rule="evenodd" transform="matrix(1 0 0 1 0 0)" d="M19.4363 27.69806L575.6259 27.69806L575.6259 27.69806L575.6259 803.7487L575.6259 803.7487L19.4363 803.7487z" /></clipPath><clipPath id="19"><path id="" clip-rule="evenodd" transform="matrix(1 0 0 1 0 0)" d="M25.07376 95.94733L569.0288 95.94733L569.0288 95.94733L569.0288 114.8988L569.0288 114.8988L25.07376 114.8988z" /></clipPath><clipPath id="20"><path id="" clip-rule="evenodd" transform="matrix(1 0 0 1 0 0)" d="M19.4363 27.69806L575.6259 27.69806L575.6259 27.69806L575.6259 803.7487L575.6259 803.7487L19.4363 803.7487z" /></clipPath><clipPath id="21"><path id="" clip-rule="evenodd" transform="matrix(1 0 0 1 0 0)" d="M161.0925 120.6562L178.1248 120.6562L178.1248 120.6562L178.1248 132.7708L178.1248 132.7708L161.0925 132.7708z" /></clipPath><clipPath id="22"><path id="" clip-rule="evenodd" transform="matrix(1 0 0 1 0 0)" d="M19.4363 27.69806L575.6259 27.69806L575.6259 27.69806L575.6259 803.7487L575.6259 803.7487L19.4363 803.7487z" /></clipPath><clipPath id="23"><path id="" clip-rule="evenodd" transform="matrix(1 0 0 1 0 0)" d="M161.0925 150.6427L178.1248 150.6427L178.1248 150.6427L178.1248 174.7518L178.1248 174.7518L161.0925 174.7518z" /></clipPath><clipPath id="24"><path id="" clip-rule="evenodd" transform="matrix(1 0 0 1 0 0)" d="M19.4363 27.69806L575.6259 27.69806L575.6259 27.69806L575.6259 803.7487L575.6259 803.7487L19.4363 803.7487z" /></clipPath><clipPath id="25"><path id="" clip-rule="evenodd" transform="matrix(1 0 0 1 0 0)" d="M161.0925 177.5106L178.1248 177.5106L178.1248 177.5106L178.1248 189.7451L178.1248 189.7451L161.0925 189.7451z" /></clipPath><clipPath id="26"><path id="" clip-rule="evenodd" transform="matrix(1 0 0 1 0 0)" d="M19.4363 27.69806L575.6259 27.69806L575.6259 27.69806L575.6259 803.7487L575.6259 803.7487L19.4363 803.7487z" /></clipPath><clipPath id="27"><path id="" clip-rule="evenodd" transform="matrix(1 0 0 1 0 0)" d="M25.07376 135.6494L161.0925 135.6494L161.0925 135.6494L161.0925 147.764L161.0925 147.764L25.07376 147.764z" /></clipPath><clipPath id="28"><path id="" clip-rule="evenodd" transform="matrix(1 0 0 1 0 0)" d="M19.4363 27.69806L575.6259 27.69806L575.6259 27.69806L575.6259 803.7487L575.6259 803.7487L19.4363 803.7487z" /></clipPath><clipPath id="29"><path id="" clip-rule="evenodd" transform="matrix(1 0 0 1 0 0)" d="M161.0925 135.6494L178.1248 135.6494L178.1248 135.6494L178.1248 147.764L178.1248 147.764L161.0925 147.764z" /></clipPath><clipPath id="30"><path id="" clip-rule="evenodd" transform="matrix(1 0 0 1 0 0)" d="M19.4363 27.69806L575.6259 27.69806L575.6259 27.69806L575.6259 803.7487L575.6259 803.7487L19.4363 803.7487z" /></clipPath><clipPath id="31"><path id="" clip-rule="evenodd" transform="matrix(1 0 0 1 0 0)" d="M178.1248 135.6494L569.0288 135.6494L569.0288 135.6494L569.0288 147.764L569.0288 147.764L178.1248 147.764z" /></clipPath><clipPath id="32"><path id="" clip-rule="evenodd" transform="matrix(1 0 0 1 0 0)" d="M19.4363 27.69806L575.6259 27.69806L575.6259 27.69806L575.6259 803.7487L575.6259 803.7487L19.4363 803.7487z" /></clipPath><clipPath id="33"><path id="" clip-rule="evenodd" transform="matrix(1 0 0 1 0 0)" d="M25.07376 233.0456L161.0925 233.0456L161.0925 233.0456L161.0925 301.6547L161.0925 301.6547L25.07376 301.6547z" /></clipPath><clipPath id="34"><path id="" clip-rule="evenodd" transform="matrix(1 0 0 1 0 0)" d="M19.4363 27.69806L575.6259 27.69806L575.6259 27.69806L575.6259 803.7487L575.6259 803.7487L19.4363 803.7487z" /></clipPath><clipPath id="35"><path id="" clip-rule="evenodd" transform="matrix(1 0 0 1 0 0)" d="M161.0925 233.0456L178.1248 233.0456L178.1248 233.0456L178.1248 301.6547L178.1248 301.6547L161.0925 301.6547z" /></clipPath><clipPath id="36"><path id="" clip-rule="evenodd" transform="matrix(1 0 0 1 0 0)" d="M19.4363 27.69806L575.6259 27.69806L575.6259 27.69806L575.6259 803.7487L575.6259 803.7487L19.4363 803.7487z" /></clipPath><clipPath id="37"><path id="" clip-rule="evenodd" transform="matrix(1 0 0 1 0 0)" d="M22.31501 64.52148L481.2284 64.52148L481.2284 64.52148L481.2284 84.31256L481.2284 84.31256L22.31501 84.31256z" /></clipPath><clipPath id="38"><path id="" clip-rule="evenodd" transform="matrix(1 0 0 1 0 0)" d="M486.849 30.53119L570.9839 30.53119L570.9839 30.53119L570.9839 84.07745L570.9839 84.07745L486.849 84.07745z" /></clipPath><clipPath id="39"><path id="" clip-rule="evenodd" transform="matrix(1 0 0 1 0 0)" d="M486.8658 30.57672L570.9479 30.57672L570.9479 30.57672L570.9479 84.07263L570.9479 84.07263L486.8658 84.07263z" /></clipPath><clipPath id="40"><path id="" clip-rule="evenodd" transform="matrix(1 0 0 1 0 0)" d="M19.4363 27.69806L575.6259 27.69806L575.6259 27.69806L575.6259 803.7487L575.6259 803.7487L19.4363 803.7487z" /></clipPath><clipPath id="41"><path id="" clip-rule="evenodd" transform="matrix(1 0 0 1 0 0)" d="M25.07376 192.6238L158.2138 192.6238L158.2138 192.6238L158.2138 204.7383L158.2138 204.7383L25.07376 204.7383z" /></clipPath><clipPath id="42"><path id="" clip-rule="evenodd" transform="matrix(1 0 0 1 0 0)" d="M19.4363 27.69806L575.6259 27.69806L575.6259 27.69806L575.6259 803.7487L575.6259 803.7487L19.4363 803.7487z" /></clipPath><clipPath id="43"><path id="" clip-rule="evenodd" transform="matrix(1 0 0 1 0 0)" d="M163.8513 192.6238L175.2461 192.6238L175.2461 192.6238L175.2461 204.7383L175.2461 204.7383L163.8513 204.7383z" /></clipPath><clipPath id="44"><path id="" clip-rule="evenodd" transform="matrix(1 0 0 1 0 0)" d="M19.4363 27.69806L575.6259 27.69806L575.6259 27.69806L575.6259 803.7487L575.6259 803.7487L19.4363 803.7487z" /></clipPath><clipPath id="45"><path id="" clip-rule="evenodd" transform="matrix(1 0 0 1 0 0)" d="M178.1248 192.6238L560.7526 192.6238L560.7526 192.6238L560.7526 204.7383L560.7526 204.7383L178.1248 204.7383z" /></clipPath><clipPath id="46"><path id="" clip-rule="evenodd" transform="matrix(1 0 0 1 0 0)" d="M19.4363 27.69806L575.6259 27.69806L575.6259 27.69806L575.6259 803.7487L575.6259 803.7487L19.4363 803.7487z" /></clipPath><clipPath id="47"><path id="" clip-rule="evenodd" transform="matrix(1 0 0 1 0 0)" d="M25.07376 207.6171L158.2138 207.6171L158.2138 207.6171L158.2138 219.7316L158.2138 219.7316L25.07376 219.7316z" /></clipPath><clipPath id="48"><path id="" clip-rule="evenodd" transform="matrix(1 0 0 1 0 0)" d="M19.4363 27.69806L575.6259 27.69806L575.6259 27.69806L575.6259 803.7487L575.6259 803.7487L19.4363 803.7487z" /></clipPath><clipPath id="49"><path id="" clip-rule="evenodd" transform="matrix(1 0 0 1 0 0)" d="M163.8513 207.6171L175.2461 207.6171L175.2461 207.6171L175.2461 219.7316L175.2461 219.7316L163.8513 219.7316z" /></clipPath><clipPath id="50"><path id="" clip-rule="evenodd" transform="matrix(1 0 0 1 0 0)" d="M19.4363 27.69806L575.6259 27.69806L575.6259 27.69806L575.6259 803.7487L575.6259 803.7487L19.4363 803.7487z" /></clipPath><clipPath id="51"><path id="" clip-rule="evenodd" transform="matrix(1 0 0 1 0 0)" d="M178.1248 207.6171L560.7526 207.6171L560.7526 207.6171L560.7526 219.7316L560.7526 219.7316L178.1248 219.7316z" /></clipPath><clipPath id="52"><path id="" clip-rule="evenodd" transform="matrix(1 0 0 1 0 0)" d="M19.4363 27.69806L575.6259 27.69806L575.6259 27.69806L575.6259 803.7487L575.6259 803.7487L19.4363 803.7487z" /></clipPath><clipPath id="53"><path id="" clip-rule="evenodd" transform="matrix(1 0 0 1 0 0)" d="M25.07376 219.7316L158.2138 219.7316L158.2138 219.7316L158.2138 231.9661L158.2138 231.9661L25.07376 231.9661z" /></clipPath><clipPath id="54"><path id="" clip-rule="evenodd" transform="matrix(1 0 0 1 0 0)" d="M19.4363 27.69806L575.6259 27.69806L575.6259 27.69806L575.6259 803.7487L575.6259 803.7487L19.4363 803.7487z" /></clipPath><clipPath id="55"><path id="" clip-rule="evenodd" transform="matrix(1 0 0 1 0 0)" d="M163.8513 219.7316L175.2461 219.7316L175.2461 219.7316L175.2461 231.9661L175.2461 231.9661L163.8513 231.9661z" /></clipPath><clipPath id="56"><path id="" clip-rule="evenodd" transform="matrix(1 0 0 1 0 0)" d="M19.4363 27.69806L575.6259 27.69806L575.6259 27.69806L575.6259 803.7487L575.6259 803.7487L19.4363 803.7487z" /></clipPath><clipPath id="57"><path id="" clip-rule="evenodd" transform="matrix(1 0 0 1 0 0)" d="M178.1248 219.7316L560.7526 219.7316L560.7526 219.7316L560.7526 231.9661L560.7526 231.9661L178.1248 231.9661z" /></clipPath><clipPath id="58"><path id="" clip-rule="evenodd" transform="matrix(1 0 0 1 0 0)" d="M19.4363 27.69806L575.6259 27.69806L575.6259 27.69806L575.6259 803.7487L575.6259 803.7487L19.4363 803.7487z" /></clipPath><clipPath id="59"><path id="" clip-rule="evenodd" transform="matrix(1 0 0 1 0 0)" d="M178.1248 233.0456L569.0288 233.0456L569.0288 233.0456L569.0288 301.6547L569.0288 301.6547L178.1248 301.6547z" /></clipPath><clipPath id="60"><path id="" clip-rule="evenodd" transform="matrix(1 0 0 1 0 0)" d="M19.4363 27.69806L575.6259 27.69806L575.6259 27.69806L575.6259 803.7487L575.6259 803.7487L19.4363 803.7487z" /></clipPath><clipPath id="61"><path id="" clip-rule="evenodd" transform="matrix(1 0 0 1 0 0)" d="M178.3647 303.6938L560.7526 303.6938L560.7526 303.6938L560.7526 325.7638L560.7526 325.7638L178.3647 325.7638z" /></clipPath><clipPath id="62"><path id="" clip-rule="evenodd" transform="matrix(1 0 0 1 0 0)" d="M19.4363 27.69806L575.6259 27.69806L575.6259 27.69806L575.6259 803.7487L575.6259 803.7487L19.4363 803.7487z" /></clipPath><clipPath id="63"><path id="" clip-rule="evenodd" transform="matrix(1 0 0 1 0 0)" d="M161.0925 303.0941L178.1248 303.0941L178.1248 303.0941L178.1248 325.7638L178.1248 325.7638L161.0925 325.7638z" /></clipPath><clipPath id="64"><path id="" clip-rule="evenodd" transform="matrix(1 0 0 1 0 0)" d="M19.4363 27.69806L575.6259 27.69806L575.6259 27.69806L575.6259 803.7487L575.6259 803.7487L19.4363 803.7487z" /></clipPath><clipPath id="65"><path id="" clip-rule="evenodd" transform="matrix(1 0 0 1 0 0)" d="M25.07376 303.0941L161.0925 303.0941L161.0925 303.0941L161.0925 325.7638L161.0925 325.7638L25.07376 325.7638z" /></clipPath><clipPath id="66"><path id="" clip-rule="evenodd" transform="matrix(1 0 0 1 0 0)" d="M19.4363 27.69806L575.6259 27.69806L575.6259 27.69806L575.6259 803.7487L575.6259 803.7487L19.4363 803.7487z" /></clipPath><clipPath id="67"><path id="" clip-rule="evenodd" transform="matrix(1 0 0 1 0 0)" d="M19.4363 27.69806L575.6259 27.69806L575.6259 27.69806L575.6259 803.7487L575.6259 803.7487L19.4363 803.7487z" /></clipPath><clipPath id="68"><path id="" clip-rule="evenodd" transform="matrix(1 0 0 1 0 0)" d="M25.07376 331.6412L569.0288 331.6412L569.0288 331.6412L569.0288 350.5927L569.0288 350.5927L25.07376 350.5927z" /></clipPath><clipPath id="69"><path id="" clip-rule="evenodd" transform="matrix(1 0 0 1 0 0)" d="M19.4363 27.69806L575.6259 27.69806L575.6259 27.69806L575.6259 803.7487L575.6259 803.7487L19.4363 803.7487z" /></clipPath><clipPath id="70"><path id="" clip-rule="evenodd" transform="matrix(1 0 0 1 0 0)" d="M178.1248 382.3784L569.0288 382.3784L569.0288 382.3784L569.0288 451.2274L569.0288 451.2274L178.1248 451.2274z" /></clipPath><clipPath id="71"><path id="" clip-rule="evenodd" transform="matrix(1 0 0 1 0 0)" d="M19.4363 27.69806L575.6259 27.69806L575.6259 27.69806L575.6259 803.7487L575.6259 803.7487L19.4363 803.7487z" /></clipPath><clipPath id="72"><path id="" clip-rule="evenodd" transform="matrix(1 0 0 1 0 0)" d="M25.07376 382.3784L161.0925 382.3784L161.0925 382.3784L161.0925 451.2274L161.0925 451.2274L25.07376 451.2274z" /></clipPath><clipPath id="73"><path id="" clip-rule="evenodd" transform="matrix(1 0 0 1 0 0)" d="M19.4363 27.69806L575.6259 27.69806L575.6259 27.69806L575.6259 803.7487L575.6259 803.7487L19.4363 803.7487z" /></clipPath><clipPath id="74"><path id="" clip-rule="evenodd" transform="matrix(1 0 0 1 0 0)" d="M161.0925 382.3784L178.1248 382.3784L178.1248 382.3784L178.1248 451.2274L178.1248 451.2274L161.0925 451.2274z" /></clipPath><clipPath id="75"><path id="" clip-rule="evenodd" transform="matrix(1 0 0 1 0 0)" d="M19.4363 27.69806L575.6259 27.69806L575.6259 27.69806L575.6259 803.7487L575.6259 803.7487L19.4363 803.7487z" /></clipPath><clipPath id="76"><path id="" clip-rule="evenodd" transform="matrix(1 0 0 1 0 0)" d="M30.71123 542.986L161.0925 542.986L161.0925 542.986L161.0925 555.2205L161.0925 555.2205L30.71123 555.2205z" /></clipPath><clipPath id="77"><path id="" clip-rule="evenodd" transform="matrix(1 0 0 1 0 0)" d="M19.4363 27.69806L575.6259 27.69806L575.6259 27.69806L575.6259 803.7487L575.6259 803.7487L19.4363 803.7487z" /></clipPath><clipPath id="78"><path id="" clip-rule="evenodd" transform="matrix(1 0 0 1 0 0)" d="M161.0925 542.986L178.1248 542.986L178.1248 542.986L178.1248 555.2205L178.1248 555.2205L161.0925 555.2205z" /></clipPath><clipPath id="79"><path id="" clip-rule="evenodd" transform="matrix(1 0 0 1 0 0)" d="M19.4363 27.69806L575.6259 27.69806L575.6259 27.69806L575.6259 803.7487L575.6259 803.7487L19.4363 803.7487z" /></clipPath><clipPath id="80"><path id="" clip-rule="evenodd" transform="matrix(1 0 0 1 0 0)" d="M178.1248 542.986L569.0288 542.986L569.0288 542.986L569.0288 555.2205L569.0288 555.2205L178.1248 555.2205z" /></clipPath><clipPath id="81"><path id="" clip-rule="evenodd" transform="matrix(1 0 0 1 0 0)" d="M19.4363 27.69806L575.6259 27.69806L575.6259 27.69806L575.6259 803.7487L575.6259 803.7487L19.4363 803.7487z" /></clipPath><clipPath id="82"><path id="" clip-rule="evenodd" transform="matrix(1 0 0 1 0 0)" d="M30.71123 557.9793L161.0925 557.9793L161.0925 557.9793L161.0925 638.2231L161.0925 638.2231L30.71123 638.2231z" /></clipPath><clipPath id="83"><path id="" clip-rule="evenodd" transform="matrix(1 0 0 1 0 0)" d="M19.4363 27.69806L575.6259 27.69806L575.6259 27.69806L575.6259 803.7487L575.6259 803.7487L19.4363 803.7487z" /></clipPath><clipPath id="84"><path id="" clip-rule="evenodd" transform="matrix(1 0 0 1 0 0)" d="M161.0925 557.9793L178.1248 557.9793L178.1248 557.9793L178.1248 638.2231L178.1248 638.2231L161.0925 638.2231z" /></clipPath><clipPath id="85"><path id="" clip-rule="evenodd" transform="matrix(1 0 0 1 0 0)" d="M19.4363 27.69806L575.6259 27.69806L575.6259 27.69806L575.6259 803.7487L575.6259 803.7487L19.4363 803.7487z" /></clipPath><clipPath id="86"><path id="" clip-rule="evenodd" transform="matrix(1 0 0 1 0 0)" d="M178.1248 557.9793L569.0288 557.9793L569.0288 557.9793L569.0288 638.2231L569.0288 638.2231L178.1248 638.2231z" /></clipPath><clipPath id="87"><path id="" clip-rule="evenodd" transform="matrix(1 0 0 1 0 0)" d="M19.4363 27.69806L575.6259 27.69806L575.6259 27.69806L575.6259 803.7487L575.6259 803.7487L19.4363 803.7487z" /></clipPath><clipPath id="88"><path id="" clip-rule="evenodd" transform="matrix(1 0 0 1 0 0)" d="M30.71123 483.2529L161.0925 483.2529L161.0925 483.2529L161.0925 540.2273L161.0925 540.2273L30.71123 540.2273z" /></clipPath><clipPath id="89"><path id="" clip-rule="evenodd" transform="matrix(1 0 0 1 0 0)" d="M19.4363 27.69806L575.6259 27.69806L575.6259 27.69806L575.6259 803.7487L575.6259 803.7487L19.4363 803.7487z" /></clipPath><clipPath id="90"><path id="" clip-rule="evenodd" transform="matrix(1 0 0 1 0 0)" d="M161.0925 483.2529L178.1248 483.2529L178.1248 483.2529L178.1248 540.2273L178.1248 540.2273L161.0925 540.2273z" /></clipPath><clipPath id="91"><path id="" clip-rule="evenodd" transform="matrix(1 0 0 1 0 0)" d="M178.0733 483.2421L569 483.2421L569 483.2421L569 540.1877L569 540.1877L178.0733 540.1877z" /></clipPath><clipPath id="92"><path id="" clip-rule="evenodd" transform="matrix(1 0 0 1 0 0)" d="M181.7232 486.9713L230.1814 486.9713L230.1814 486.9713L230.1814 535.6693L230.1814 535.6693L181.7232 535.6693z" /></clipPath><clipPath id="93"><path id="" clip-rule="evenodd" transform="matrix(1 0 0 1 0 0)" d="M181.7232 486.9713L230.1814 486.9713L230.1814 486.9713L230.1814 535.6693L230.1814 535.6693L181.7232 535.6693z" /></clipPath><clipPath id="94"><path id="" clip-rule="evenodd" transform="matrix(1 0 0 1 0 0)" d="M178.1248 483.2529L569.0288 483.2529L569.0288 483.2529L569.0288 540.2273L569.0288 540.2273L178.1248 540.2273z" /></clipPath><clipPath id="95"><path id="" clip-rule="evenodd" transform="matrix(1 0 0 1 0 0)" d="M238.0978 486.9713L286.556 486.9713L286.556 486.9713L286.556 535.6693L286.556 535.6693L238.0978 535.6693z" /></clipPath><clipPath id="96"><path id="" clip-rule="evenodd" transform="matrix(1 0 0 1 0 0)" d="M238.0978 486.9713L286.556 486.9713L286.556 486.9713L286.556 535.6693L286.556 535.6693L238.0978 535.6693z" /></clipPath><clipPath id="97"><path id="" clip-rule="evenodd" transform="matrix(1 0 0 1 0 0)" d="M178.1248 483.2529L569.0288 483.2529L569.0288 483.2529L569.0288 540.2273L569.0288 540.2273L178.1248 540.2273z" /></clipPath><clipPath id="98"><path id="" clip-rule="evenodd" transform="matrix(1 0 0 1 0 0)" d="M294.4724 486.9713L342.9306 486.9713L342.9306 486.9713L342.9306 535.6693L342.9306 535.6693L294.4724 535.6693z" /></clipPath><clipPath id="99"><path id="" clip-rule="evenodd" transform="matrix(1 0 0 1 0 0)" d="M294.4724 486.9713L342.9306 486.9713L342.9306 486.9713L342.9306 535.6693L342.9306 535.6693L294.4724 535.6693z" /></clipPath><clipPath id="100"><path id="" clip-rule="evenodd" transform="matrix(1 0 0 1 0 0)" d="M178.1248 483.2529L569.0288 483.2529L569.0288 483.2529L569.0288 540.2273L569.0288 540.2273L178.1248 540.2273z" /></clipPath><clipPath id="101"><path id="" clip-rule="evenodd" transform="matrix(1 0 0 1 0 0)" d="M350.8471 486.9713L351.7467 486.9713L351.7467 486.9713L351.7467 488.7704L351.7467 488.7704L350.8471 488.7704z" /></clipPath><clipPath id="102"><path id="" clip-rule="evenodd" transform="matrix(1 0 0 1 0 0)" d="M178.1248 483.2529L569.0288 483.2529L569.0288 483.2529L569.0288 540.2273L569.0288 540.2273L178.1248 540.2273z" /></clipPath><clipPath id="103"><path id="" clip-rule="evenodd" transform="matrix(1 0 0 1 0 0)" d="M19.4363 27.69806L575.6259 27.69806L575.6259 27.69806L575.6259 803.7487L575.6259 803.7487L19.4363 803.7487z" /></clipPath><clipPath id="104"><path id="" clip-rule="evenodd" transform="matrix(1 0 0 1 0 0)" d="M30.71123 641.1019L569.0288 641.1019L569.0288 641.1019L569.0288 653.2164L569.0288 653.2164L30.71123 653.2164z" /></clipPath><clipPath id="105"><path id="" clip-rule="evenodd" transform="matrix(1 0 0 1 0 0)" d="M19.4363 27.69806L575.6259 27.69806L575.6259 27.69806L575.6259 803.7487L575.6259 803.7487L19.4363 803.7487z" /></clipPath><clipPath id="106"><path id="" clip-rule="evenodd" transform="matrix(1 0 0 1 0 0)" d="M36.46864 716.0681L161.0925 716.0681L161.0925 716.0681L161.0925 762.0074L161.0925 762.0074L36.46864 762.0074z" /></clipPath><clipPath id="107"><path id="" clip-rule="evenodd" transform="matrix(1 0 0 1 0 0)" d="M19.4363 27.69806L575.6259 27.69806L575.6259 27.69806L575.6259 803.7487L575.6259 803.7487L19.4363 803.7487z" /></clipPath><clipPath id="108"><path id="" clip-rule="evenodd" transform="matrix(1 0 0 1 0 0)" d="M161.0925 716.0681L178.1248 716.0681L178.1248 716.0681L178.1248 762.0074L178.1248 762.0074L161.0925 762.0074z" /></clipPath><clipPath id="109"><path id="" clip-rule="evenodd" transform="matrix(1 0 0 1 0 0)" d="M19.4363 27.69806L575.6259 27.69806L575.6259 27.69806L575.6259 803.7487L575.6259 803.7487L19.4363 803.7487z" /></clipPath><clipPath id="110"><path id="" clip-rule="evenodd" transform="matrix(1 0 0 1 0 0)" d="M178.1248 716.0681L569.0288 716.0681L569.0288 716.0681L569.0288 762.0074L569.0288 762.0074L178.1248 762.0074z" /></clipPath><clipPath id="111"><path id="" clip-rule="evenodd" transform="matrix(1 0 0 1 0 0)" d="M19.4363 27.69806L575.6259 27.69806L575.6259 27.69806L575.6259 803.7487L575.6259 803.7487L19.4363 803.7487z" /></clipPath><clipPath id="112"><path id="" clip-rule="evenodd" transform="matrix(1 0 0 1 0 0)" d="M25.07376 468.2597L569.0288 468.2597L569.0288 468.2597L569.0288 480.3742L569.0288 480.3742L25.07376 480.3742z" /></clipPath><clipPath id="113"><path id="" clip-rule="evenodd" transform="matrix(1 0 0 1 0 0)" d="M19.4363 27.69806L575.6259 27.69806L575.6259 27.69806L575.6259 803.7487L575.6259 803.7487L19.4363 803.7487z" /></clipPath><clipPath id="114"><path id="" clip-rule="evenodd" transform="matrix(1 0 0 1 0 0)" d="M36.46864 656.0951L161.0925 656.0951L161.0925 656.0951L161.0925 713.3093L161.0925 713.3093L36.46864 713.3093z" /></clipPath><clipPath id="115"><path id="" clip-rule="evenodd" transform="matrix(1 0 0 1 0 0)" d="M19.4363 27.69806L575.6259 27.69806L575.6259 27.69806L575.6259 803.7487L575.6259 803.7487L19.4363 803.7487z" /></clipPath><clipPath id="116"><path id="" clip-rule="evenodd" transform="matrix(1 0 0 1 0 0)" d="M161.0925 656.0951L178.1248 656.0951L178.1248 656.0951L178.1248 713.3093L178.1248 713.3093L161.0925 713.3093z" /></clipPath><clipPath id="117"><path id="" clip-rule="evenodd" transform="matrix(1 0 0 1 0 0)" d="M19.4363 27.69806L575.6259 27.69806L575.6259 27.69806L575.6259 803.7487L575.6259 803.7487L19.4363 803.7487z" /></clipPath><clipPath id="118"><path id="" clip-rule="evenodd" transform="matrix(1 0 0 1 0 0)" d="M178.1248 656.0951L569.0288 656.0951L569.0288 656.0951L569.0288 713.3093L569.0288 713.3093L178.1248 713.3093z" /></clipPath><clipPath id="119"><path id="" clip-rule="evenodd" transform="matrix(1 0 0 1 0 0)" d="M19.4363 27.69806L575.6259 27.69806L575.6259 27.69806L575.6259 803.7487L575.6259 803.7487L19.4363 803.7487z" /></clipPath><clipPath id="120"><path id="" clip-rule="evenodd" transform="matrix(1 0 0 1 0 0)" d="M25.07376 356.3501L161.0925 356.3501L161.0925 356.3501L161.0925 379.4996L161.0925 379.4996L25.07376 379.4996z" /></clipPath><clipPath id="121"><path id="" clip-rule="evenodd" transform="matrix(1 0 0 1 0 0)" d="M19.4363 27.69806L575.6259 27.69806L575.6259 27.69806L575.6259 803.7487L575.6259 803.7487L19.4363 803.7487z" /></clipPath><clipPath id="122"><path id="" clip-rule="evenodd" transform="matrix(1 0 0 1 0 0)" d="M161.0925 356.3501L178.1248 356.3501L178.1248 356.3501L178.1248 379.4996L178.1248 379.4996L161.0925 379.4996z" /></clipPath><clipPath id="123"><path id="" clip-rule="evenodd" transform="matrix(1 0 0 1 0 0)" d="M19.4363 27.69806L575.6259 27.69806L575.6259 27.69806L575.6259 803.7487L575.6259 803.7487L19.4363 803.7487z" /></clipPath><clipPath id="124"><path id="" clip-rule="evenodd" transform="matrix(1 0 0 1 0 0)" d="M178.1248 356.3501L569.0288 356.3501L569.0288 356.3501L569.0288 379.4996L569.0288 379.4996L178.1248 379.4996z" /></clipPath><clipPath id="125"><path id="" clip-rule="evenodd" transform="matrix(1 0 0 1 0 0)" d="M19.4363 27.69806L575.6259 27.69806L575.6259 27.69806L575.6259 825.5788L575.6259 825.5788L19.4363 825.5788z" /></clipPath><clipPath id="126"><path id="" clip-rule="evenodd" transform="matrix(1 0 0 1 0 0)" d="M25.07376 809.3861L161.0925 809.3861L161.0925 809.3861L161.0925 820.7809L161.0925 820.7809L25.07376 820.7809z" /></clipPath><clipPath id="127"><path id="" clip-rule="evenodd" transform="matrix(1 0 0 1 0 0)" d="M161.0925 809.3861L166.73 809.3861L166.73 809.3861L166.73 820.7809L166.73 820.7809L161.0925 820.7809z" /></clipPath><clipPath id="128"><path id="" clip-rule="evenodd" transform="matrix(1 0 0 1 0 0)" d="M166.73 809.3861L234.7393 809.3861L234.7393 809.3861L234.7393 820.7809L234.7393 820.7809L166.73 820.7809z" /></clipPath><clipPath id="129"><path id="" clip-rule="evenodd" transform="matrix(1 0 0 1 0 0)" d="M237.6181 809.3861L353.7258 809.3861L353.7258 809.3861L353.7258 820.7809L353.7258 820.7809L237.6181 820.7809z" /></clipPath><clipPath id="130"><path id="" clip-rule="evenodd" transform="matrix(1 0 0 1 0 0)" d="M353.7258 809.3861L359.3632 809.3861L359.3632 809.3861L359.3632 820.7809L359.3632 820.7809L353.7258 820.7809z" /></clipPath><clipPath id="131"><path id="" clip-rule="evenodd" transform="matrix(1 0 0 1 0 0)" d="M359.3632 809.3861L458.5586 809.3861L458.5586 809.3861L458.5586 820.7809L458.5586 820.7809L359.3632 820.7809z" /></clipPath><clipPath id="132"><path id="" clip-rule="evenodd" transform="matrix(1 0 0 1 0 0)" d="M458.5586 809.3861L495.382 809.3861L495.382 809.3861L495.382 820.7809L495.382 820.7809L458.5586 820.7809z" /></clipPath><clipPath id="133"><path id="" clip-rule="evenodd" transform="matrix(1 0 0 1 0 0)" d="M495.382 809.3861L501.0194 809.3861L501.0194 809.3861L501.0194 820.7809L501.0194 820.7809L495.382 820.7809z" /></clipPath><clipPath id="134"><path id="" clip-rule="evenodd" transform="matrix(1 0 0 1 0 0)" d="M501.0194 809.3861L520.8105 809.3861L520.8105 809.3861L520.8105 820.7809L520.8105 820.7809L501.0194 820.7809z" /></clipPath><clipPath id="135"><path id="" clip-rule="evenodd" transform="matrix(1 0 0 1 0 0)" d="M540.7216 809.3861L569.0288 809.3861L569.0288 809.3861L569.0288 820.7809L569.0288 820.7809L540.7216 820.7809z" /></clipPath></defs><g transform="matrix(1.333333 0 0 1.333333 0 0)"><g clip-path="url(#1)"><g clip-path="url(#2)"><g clip-path="url(#3)"><g clip-path="url(#4)"><g clip-path="url(#5)"></g></g><g clip-path="url(#6)"><g clip-path="url(#7)"></g></g><g clip-path="url(#8)"><g clip-path="url(#9)"></g></g><path id="38" transform="matrix(1 0 0 -1 0 841)" d="M22.31501 748.6511L571.7876 748.6511L571.7876 748.6511L571.7876 748.0513L571.7876 748.0513L22.31501 748.0513" stroke="none" fill="#000000" fill-rule="evenodd" /><path id="39" transform="matrix(1 0 0 -1 0 841)" d="M22.07512 748.6511L22.5549 748.6511L22.5549 748.6511L22.5549 748.0513L22.5549 748.0513L22.07512 748.0513" stroke="none" fill="#000000" fill-rule="evenodd" /><path id="40" transform="matrix(1 0 0 -1 0 841)" d="M571.5477 748.6511L572.0275 748.6511L572.0275 748.6511L572.0275 748.0513L572.0275 748.0513L571.5477 748.0513" stroke="none" fill="#000000" fill-rule="evenodd" /><path id="41" transform="matrix(1 0 0 -1 0 841)" d="M572.0275 748.4112L572.0275 723.2225L572.0275 723.2225L571.4277 723.2225L571.4277 723.2225L571.4277 748.4112" stroke="none" fill="#000000" fill-rule="evenodd" /><path id="42" transform="matrix(1 0 0 -1 0 841)" d="M572.0275 748.6511L572.0275 748.1713L572.0275 748.1713L571.4277 748.1713L571.4277 748.1713L571.4277 748.6511" stroke="none" fill="#000000" fill-rule="evenodd" /><path id="43" transform="matrix(1 0 0 -1 0 841)" d="M572.0275 723.4624L572.0275 722.9826L572.0275 722.9826L571.4277 722.9826L571.4277 722.9826L571.4277 723.4624" stroke="none" fill="#000000" fill-rule="evenodd" /><path id="44" transform="matrix(1 0 0 -1 0 841)" d="M571.7876 722.9826L22.31501 722.9826L22.31501 722.9826L22.31501 723.5823L22.31501 723.5823L571.7876 723.5823" stroke="none" fill="#000000" fill-rule="evenodd" /><path id="45" transform="matrix(1 0 0 -1 0 841)" d="M572.0275 722.9826L571.5477 722.9826L571.5477 722.9826L571.5477 723.5823L571.5477 723.5823L572.0275 723.5823" stroke="none" fill="#000000" fill-rule="evenodd" /><path id="46" transform="matrix(1 0 0 -1 0 841)" d="M22.5549 722.9826L22.07512 722.9826L22.07512 722.9826L22.07512 723.5823L22.07512 723.5823L22.5549 723.5823" stroke="none" fill="#000000" fill-rule="evenodd" /><path id="47" transform="matrix(1 0 0 -1 0 841)" d="M22.07512 723.2225L22.07512 748.4112L22.07512 748.4112L22.67485 748.4112L22.67485 748.4112L22.67485 723.2225" stroke="none" fill="#000000" fill-rule="evenodd" /><path id="48" transform="matrix(1 0 0 -1 0 841)" d="M22.07512 722.9826L22.07512 723.4624L22.07512 723.4624L22.67485 723.4624L22.67485 723.4624L22.67485 722.9826" stroke="none" fill="#000000" fill-rule="evenodd" /><path id="49" transform="matrix(1 0 0 -1 0 841)" d="M22.07512 748.1713L22.07512 748.6511L22.07512 748.6511L22.67485 748.6511L22.67485 748.6511L22.67485 748.1713" stroke="none" fill="#000000" fill-rule="evenodd" /><g clip-path="url(#10)"><g clip-path="url(#11)"></g></g><g clip-path="url(#12)"><g clip-path="url(#13)"></g></g><g clip-path="url(#14)"><g clip-path="url(#15)"></g></g><g clip-path="url(#16)"><g clip-path="url(#17)"></g></g><g clip-path="url(#18)"><g clip-path="url(#19)"></g></g><g clip-path="url(#20)"><g clip-path="url(#21)"></g></g><g clip-path="url(#22)"><g clip-path="url(#23)"></g></g><g clip-path="url(#24)"><g clip-path="url(#25)"></g></g><g clip-path="url(#26)"><g clip-path="url(#27)"></g></g><g clip-path="url(#28)"><g clip-path="url(#29)"></g></g><g clip-path="url(#30)"><g clip-path="url(#31)"></g></g><g clip-path="url(#32)"><g clip-path="url(#33)"></g></g><g clip-path="url(#34)"><g clip-path="url(#35)"></g></g><g clip-path="url(#36)"><g clip-path="url(#37)"></g></g><path id="203" transform="matrix(1 0 0 -1 0 841)" d="M22.31501 754.5284L571.7876 754.5284L571.7876 754.5284L571.7876 753.0891L571.7876 753.0891L22.31501 753.0891" stroke="none" fill="#000000" fill-rule="evenodd" /><path id="204" transform="matrix(1 0 0 -1 0 841)" d="M21.59533 754.5284L23.03468 754.5284L23.03468 754.5284L23.03468 753.0891L23.03468 753.0891L21.59533 753.0891" stroke="none" fill="#000000" fill-rule="evenodd" /><path id="205" transform="matrix(1 0 0 -1 0 841)" d="M571.0679 754.5284L572.5073 754.5284L572.5073 754.5284L572.5073 753.0891L572.5073 753.0891L571.0679 753.0891" stroke="none" fill="#000000" fill-rule="evenodd" /><g clip-path="url(#38)"><g transform="matrix(0.2503064 0 0 -0.2494241 487.1057 68.23981)"><g transform="matrix(1 0 0 1 0 0)"><image x="0" y="0" xlink:href="img_352.png" width="334" height="151" /></g></g><g clip-path="url(#39)"></g></g><g clip-path="url(#40)"><g clip-path="url(#41)"></g></g><g clip-path="url(#42)"><g clip-path="url(#43)"></g></g><g clip-path="url(#44)"><g clip-path="url(#45)"></g></g><g clip-path="url(#46)"><g clip-path="url(#47)"></g></g><g clip-path="url(#48)"><g clip-path="url(#49)"></g></g><g clip-path="url(#50)"><g clip-path="url(#51)"></g></g><g clip-path="url(#52)"><g clip-path="url(#53)"></g></g><g clip-path="url(#54)"><g clip-path="url(#55)"></g></g><g clip-path="url(#56)"><g clip-path="url(#57)"></g></g><g clip-path="url(#58)"><g clip-path="url(#59)"></g></g><g clip-path="url(#60)"><g clip-path="url(#61)"></g></g><g clip-path="url(#62)"><g clip-path="url(#63)"></g></g><g clip-path="url(#64)"><g clip-path="url(#65)"></g></g></g><g clip-path="url(#66)"><path id="435" transform="matrix(1 0 0 -1 0 841)" d="M22.31501 512.3574L571.7876 512.3574L571.7876 512.3574L571.7876 511.7577L571.7876 511.7577L22.31501 511.7577" stroke="none" fill="#000000" fill-rule="evenodd" /><path id="436" transform="matrix(1 0 0 -1 0 841)" d="M22.07512 512.3574L22.5549 512.3574L22.5549 512.3574L22.5549 511.7577L22.5549 511.7577L22.07512 511.7577" stroke="none" fill="#000000" fill-rule="evenodd" /><path id="437" transform="matrix(1 0 0 -1 0 841)" d="M571.5477 512.3574L572.0275 512.3574L572.0275 512.3574L572.0275 511.7577L572.0275 511.7577L571.5477 511.7577" stroke="none" fill="#000000" fill-rule="evenodd" /><path id="438" transform="matrix(1 0 0 -1 0 841)" d="M572.0275 512.1176L572.0275 487.5286L572.0275 487.5286L571.4277 487.5286L571.4277 487.5286L571.4277 512.1176" stroke="none" fill="#000000" fill-rule="evenodd" /><path id="439" transform="matrix(1 0 0 -1 0 841)" d="M572.0275 512.3574L572.0275 511.8777L572.0275 511.8777L571.4277 511.8777L571.4277 511.8777L571.4277 512.3574" stroke="none" fill="#000000" fill-rule="evenodd" /><path id="440" transform="matrix(1 0 0 -1 0 841)" d="M572.0275 487.7685L572.0275 487.2888L572.0275 487.2888L571.4277 487.2888L571.4277 487.2888L571.4277 487.7685" stroke="none" fill="#000000" fill-rule="evenodd" /><path id="441" transform="matrix(1 0 0 -1 0 841)" d="M571.7876 487.2888L22.31501 487.2888L22.31501 487.2888L22.31501 487.8885L22.31501 487.8885L571.7876 487.8885" stroke="none" fill="#000000" fill-rule="evenodd" /><path id="442" transform="matrix(1 0 0 -1 0 841)" d="M572.0275 487.2888L571.5477 487.2888L571.5477 487.2888L571.5477 487.8885L571.5477 487.8885L572.0275 487.8885" stroke="none" fill="#000000" fill-rule="evenodd" /><path id="443" transform="matrix(1 0 0 -1 0 841)" d="M22.5549 487.2888L22.07512 487.2888L22.07512 487.2888L22.07512 487.8885L22.07512 487.8885L22.5549 487.8885" stroke="none" fill="#000000" fill-rule="evenodd" /><path id="444" transform="matrix(1 0 0 -1 0 841)" d="M22.07512 487.5286L22.07512 512.1176L22.07512 512.1176L22.67485 512.1176L22.67485 512.1176L22.67485 487.5286" stroke="none" fill="#000000" fill-rule="evenodd" /><path id="445" transform="matrix(1 0 0 -1 0 841)" d="M22.07512 487.2888L22.07512 487.7685L22.07512 487.7685L22.67485 487.7685L22.67485 487.7685L22.67485 487.2888" stroke="none" fill="#000000" fill-rule="evenodd" /><path id="446" transform="matrix(1 0 0 -1 0 841)" d="M22.07512 511.8777L22.07512 512.3574L22.07512 512.3574L22.67485 512.3574L22.67485 512.3574L22.67485 511.8777" stroke="none" fill="#000000" fill-rule="evenodd" /><g clip-path="url(#67)"><g clip-path="url(#68)"></g></g><g clip-path="url(#69)"><g clip-path="url(#70)"></g></g><g clip-path="url(#71)"><g clip-path="url(#72)"></g></g><g clip-path="url(#73)"><g clip-path="url(#74)"></g></g><g clip-path="url(#75)"><g clip-path="url(#76)"></g></g><g clip-path="url(#77)"><g clip-path="url(#78)"></g></g><g clip-path="url(#79)"><g clip-path="url(#80)"></g></g><g clip-path="url(#81)"><g clip-path="url(#82)"></g></g><g clip-path="url(#83)"><g clip-path="url(#84)"></g></g><g clip-path="url(#85)"><g clip-path="url(#86)"></g></g><g clip-path="url(#87)"><g clip-path="url(#88)"></g></g><g clip-path="url(#89)"><g clip-path="url(#90)"></g></g><g clip-path="url(#91)"><g clip-path="url(#92)"><path id="1007" transform="matrix(1 0 0 -1 0 841)" d="M230.0591 329.6797L206.0507 305.6089L206.0507 305.6089L182.0075 329.6797L182.0075 329.6797L206.0507 353.7169L206.0507 353.7169L230.0591 329.6797" stroke="none" fill="#FFFFFF" fill-rule="evenodd" /><path id="1008" transform="matrix(1 0 0 -1 0 841)" d="M206.0507 329.6797L206.0579 329.6725" stroke="#FFFFFF" stroke-width="0.05420479" stroke-linecap="round" fill="none" /><path id="1009" transform="matrix(1 0 0 -1 0 841)" d="M206.0507 329.6797L206.0579 329.6725" stroke="#FFFFFF" stroke-width="0.05420479" stroke-linecap="round" fill="none" /><path id="1010" transform="matrix(1 0 0 -1 0 841)" d="M185.7354 329.6797L206.0507 350.0117L206.0507 350.0117L226.3251 329.6797L226.3251 329.6797L206.0507 309.3477L206.0507 309.3477L185.7354 329.6797M206.0507 353.9748L181.7772 329.6797L181.7772 329.6797L206.0507 305.3846L206.0507 305.3846L230.3169 329.6797L230.3169 329.6797L206.0507 353.9748" stroke="none" fill="#DC3027" fill-rule="evenodd" /><path id="1011" transform="matrix(1 0 0 -1 0 841)" d="M196.1024 325.6016L195.9068 325.6016L195.9068 325.6016L195.7101 325.6627L195.7101 325.6627L195.4594 325.7983L195.4594 325.7983L195.3167 325.9134L195.3167 325.9134L195.1812 326.0549L195.1812 326.0549L195.0384 326.1905L195.0384 326.1905L194.8969 326.3871L194.8969 326.3871L194.7542 326.6451L194.7542 326.6451L194.6114 326.8958L194.6114 326.8958L194.5035 327.234L194.5035 327.234L194.3883 327.5927L194.3883 327.5927L194.3068 327.9657L194.3068 327.9657L194.2456 328.3039L194.2456 328.3039L194.2192 328.6098L194.2192 328.6098L194.2192 328.8941L194.2192 328.8941L194.2456 329.1448L194.2456 329.1448L194.2732 329.3679L194.2732 329.3679L194.3344 329.5646L194.3344 329.5646L194.3883 329.7337L194.3883 329.7337L194.5311 329.9916L194.5311 329.9916L194.6726 330.1607L194.6726 330.1607L194.7817 330.2687L194.7817 330.2687L194.8429 330.3034L194.8429 330.3034L202.8997 332.4912L202.8997 332.4912L208.5443 333.9822L208.5443 333.9822L210.4287 334.4896L210.4287 334.4896L211.2479 334.6863L211.2479 334.6863L211.3571 334.6863L211.3571 334.6863L211.465 334.6599L211.465 334.6599L211.5802 334.6323L211.5802 334.6323L211.7229 334.5711L211.7229 334.5711L211.8309 334.4896L211.8309 334.4896L211.9736 334.3744L211.9736 334.3744L212.0888 334.2665L212.0888 334.2665L212.1967 334.1237L212.1967 334.1237L212.3119 333.9546L212.3119 333.9546L212.4546 333.8394L212.4546 333.8394L212.5901 333.7243L212.5901 333.7243L212.7053 333.6427L212.7053 333.6427L212.956 333.5552L212.956 333.5552L213.1527 333.5276L213.1527 333.5276L213.383 333.5552L213.383 333.5552L213.8232 333.6703L213.8232 333.6703L215.0358 334.0085L215.0358 334.0085L216.7235 334.4896L216.7235 334.4896L216.9406 334.4896L216.9406 334.4896L217.0821 334.4631L217.0821 334.4631L217.2248 334.402L217.2248 334.402L217.3676 334.2665L217.3676 334.2665L217.4827 334.0973L217.4827 334.0973L217.5907 333.8119L217.5907 333.8119L217.6519 333.5276L217.6519 333.5276L217.6183 333.3045L217.6183 333.3045L217.5643 333.115L217.5643 333.115L217.4827 332.9723L217.4827 332.9723L217.3676 332.8847L217.3676 332.8847L217.2788 332.8295L217.2788 332.8295L217.1973 332.7755L217.1973 332.7755L215.4832 332.3761L215.4832 332.3761L214.2766 332.0642L214.2766 332.0642L213.8232 331.9563L213.8232 331.9563L213.6061 331.8411L213.6061 331.8411L213.4645 331.732L213.4645 331.732L213.3482 331.624L213.3482 331.624L213.2678 331.5089L213.2678 331.5089L213.2139 331.3661L213.2139 331.3661L213.1251 331.0819L213.1251 331.0819L213.0975 330.7772L213.0975 330.7772L213.0435 330.6081L213.0435 330.6081L212.9823 330.4653L212.9823 330.4653L212.9284 330.3574L212.9284 330.3574L212.8408 330.2422L212.8408 330.2422L212.6717 330.0995L212.6717 330.0995L212.5086 329.9916L212.5086 329.9916L211.6881 329.7613L211.6881 329.7613L209.811 329.2263L209.811 329.2263L204.1663 327.7354L204.1663 327.7354L196.1024 325.6016" stroke="none" fill="#000000" fill-rule="evenodd" /><g clip-path="url(#93)"></g></g><g clip-path="url(#94)"></g><g clip-path="url(#95)"><path id="1012" transform="matrix(1 0 0 -1 0 841)" d="M286.4349 329.6761L262.4217 305.6149L262.4217 305.6149L238.3809 329.6761L238.3809 329.6761L262.4217 353.7181L262.4217 353.7181L286.4349 329.6761" stroke="none" fill="#FFFFFF" fill-rule="evenodd" /><path id="1013" transform="matrix(1 0 0 -1 0 841)" d="M242.116 329.6761L262.4217 350.0117L262.4217 350.0117L282.6998 329.6761L282.6998 329.6761L262.4217 309.3477L262.4217 309.3477L242.116 329.6761M262.4217 353.9748L238.1518 329.6761L238.1518 329.6761L262.4217 305.3918L262.4217 305.3918L286.6916 329.6761L286.6916 329.6761L262.4217 353.9748" stroke="none" fill="#DC3027" fill-rule="evenodd" /><path id="1014" transform="matrix(1 0 0 -1 0 841)" d="M254.8651 329.2299L254.7236 329.0608L254.7236 329.0608L254.5544 328.9252L254.5544 328.9252L254.3589 328.7837L254.3589 328.7837L254.1622 328.6685L254.1622 328.6685L253.9403 328.587L253.9403 328.587L253.71 328.527L253.71 328.527L253.4605 328.473L253.4605 328.473L252.9544 328.473L252.9544 328.473L252.7312 328.527L252.7312 328.527L252.5081 328.587L252.5081 328.587L252.285 328.6685L252.285 328.6685L252.0895 328.7837L252.0895 328.7837L251.8868 328.9252L251.8868 328.9252L251.7177 329.0608L251.7177 329.0608L251.5834 329.2299L251.5834 329.2299L246.4917 329.2299L246.4917 329.2299L246.4917 326.7278L246.4917 326.7278L259.9232 326.7278L259.9232 326.7278L259.9232 329.2299L259.9232 329.2299L254.8651 329.2299" stroke="none" fill="#000000" fill-rule="evenodd" /><path id="1015" transform="matrix(1 0 0 -1 0 841)" d="M251.7177 330.1295L251.6373 330.1571L251.6373 330.1571L251.6373 330.5829L251.6373 330.5829L251.7177 330.5217L251.7177 330.5217L251.7789 330.4677L251.7789 330.4677L251.8065 330.3526L251.8065 330.3526L251.8065 330.2711L251.8065 330.2711L251.7789 330.1835L251.7789 330.1835L251.7177 330.1295M252.4542 329.5405L252.3666 329.6761L252.3666 329.6761L252.3126 329.7913L252.3126 329.7913L252.285 329.9328L252.285 329.9328L252.285 330.5217L252.285 330.5217L252.2587 330.6633L252.2587 330.6633L252.2251 330.7784L252.2251 330.7784L252.1435 330.8324L252.1435 330.8324L252.002 330.9475L252.002 330.9475L251.8329 331.0291L251.8329 331.0291L251.7789 331.0902L251.7789 331.0902L251.7177 331.1707L251.7177 331.1707L251.7177 331.4273L251.7177 331.4273L251.7789 331.732L251.7789 331.732L251.8604 332.1578L251.8604 332.1578L251.3531 332.1314L251.3531 332.1314L251.2451 331.7656L251.2451 331.7656L251.1852 331.5964L251.1852 331.5964L251.1575 331.4273L251.1575 331.4273L251.1852 331.2858L251.1852 331.2858L251.1852 331.2246L251.1852 331.2246L251.1575 331.1982L251.1575 331.1982L251.0424 331.2594L251.0424 331.2594L250.9621 331.3134L250.9621 331.3134L250.9345 331.3398L250.9345 331.3398L250.9081 331.3673L250.9081 331.3673L250.9621 331.5964L250.9621 331.5964L250.9884 331.8471L250.9884 331.8471L250.9884 332.0163L250.9884 332.0163L250.9345 332.1854L250.9345 332.1854L250.8469 332.3473L250.8469 332.3473L250.7666 332.4901L250.7666 332.4901L250.5362 332.7467L250.5362 332.7467L250.3132 333.0238L250.3132 333.0238L249.9221 332.6316L249.9221 332.6316L250.1992 332.3473L250.1992 332.3473L250.3671 332.1314L250.3671 332.1314L250.4283 331.9887L250.4283 331.9887L250.4559 331.9011L250.4559 331.9011L250.4283 331.678L250.4283 331.678L250.4019 331.4549L250.4019 331.4549L250.3671 331.1982L250.3671 331.1982L250.4019 331.1167L250.4019 331.1167L250.4283 331.0555L250.4283 331.0555L250.5974 330.9475L250.5974 330.9475L250.8205 330.7784L250.8205 330.7784L251.016 330.6093L251.016 330.6093L251.1036 330.5217L251.1036 330.5217L251.1312 330.4677L251.1312 330.4677L251.1312 330.1571L251.1312 330.1571L251.1575 329.9879L251.1575 329.9879L251.1852 329.9328L251.1852 329.9328L251.2115 329.8728L251.2115 329.8728L251.4142 329.6761L251.4142 329.6761L251.4958 329.6017L251.4958 329.6017L251.6097 329.5142L251.6097 329.5142L251.8329 329.4326L251.8329 329.4326L252.0284 329.3174L252.0284 329.3174L252.2587 329.0344L252.2587 329.0344L252.3126 328.9792L252.3126 328.9792L252.6497 329.3715L252.6497 329.3715L252.5358 329.4602L252.5358 329.4602L252.4542 329.5405" stroke="none" fill="#000000" fill-rule="evenodd" /><path id="1016" transform="matrix(1 0 0 -1 0 841)" d="M253.7976 329.7373L254.1082 329.345L254.1082 329.345L254.4729 329.7037L254.4729 329.7037L254.5268 329.399L254.5268 329.399L254.7571 329.5405L254.7571 329.5405L255.0066 329.7037L255.0066 329.7037L255.2021 329.9064L255.2021 329.9064L255.2909 330.042L255.2909 330.042L255.3449 330.1571L255.3449 330.1571L255.3713 330.2711L255.3713 330.2711L255.3713 330.6633L255.3713 330.6633L255.4324 330.752L255.4324 330.752L255.4864 330.806L255.4864 330.806L255.568 330.86L255.568 330.86L255.7095 330.9212L255.7095 330.9212L255.8774 331.0291L255.8774 331.0291L256.013 331.1443L256.013 331.1443L256.0406 331.2246L256.0406 331.2246L256.0742 331.2858L256.0742 331.2858L256.0406 331.5089L256.0406 331.5089L256.013 331.8471L256.013 331.8471L256.013 331.9887L256.013 331.9887L256.0406 332.1038L256.0406 332.1038L256.1005 332.1578L256.1005 332.1578L256.4928 332.6855L256.4928 332.6855L256.1005 333.1389L256.1005 333.1389L255.6279 332.4361L255.6279 332.4361L255.568 332.3473L255.568 332.3473L255.5128 332.2393L255.5128 332.2393L255.4864 332.1314L255.4864 332.1314L255.4864 331.9887L255.4864 331.9887L255.5128 331.8747L255.5128 331.8747L255.568 331.732L255.568 331.732L255.6279 331.5964L255.6279 331.5964L255.6015 331.5089L255.6015 331.5089L255.6015 331.4549L255.6015 331.4549L255.5404 331.3937L255.5404 331.3937L255.4864 331.3937L255.4864 331.3937L255.3449 331.3398L255.3449 331.3398L255.1757 331.2594L255.1757 331.2594L255.0606 331.1167L255.0606 331.1167L255.0066 331.0015L255.0066 331.0015L254.9527 330.86L254.9527 330.86L254.8927 330.5829L254.8927 330.5829L254.8651 330.4402L254.8651 330.4402L254.8375 330.2986L254.8375 330.2986L254.7571 330.2111L254.7571 330.2111L254.7236 330.1295L254.7236 330.1295L254.6696 330.4402L254.6696 330.4402L254.6696 330.86L254.6696 330.86L254.7571 330.9475L254.7571 330.9475L254.8375 331.0555L254.8375 331.0555L255.0606 331.2246L255.0606 331.2246L255.1481 331.3398L255.1481 331.3398L255.2021 331.5089L255.2021 331.5089L255.2297 331.7056L255.2297 331.7056L255.2021 331.8747L255.2021 331.8747L255.0342 332.4625L255.0342 332.4625L254.588 332.5164L254.588 332.5164L254.696 331.7932L254.696 331.7932L254.696 331.5964L254.696 331.5964L254.642 331.5089L254.642 331.5089L254.5268 331.4273L254.5268 331.4273L254.4189 331.3673L254.4189 331.3673L254.3313 331.3134L254.3313 331.3134L254.2773 331.2594L254.2773 331.2594L254.251 331.1982L254.251 331.1982L254.2174 331.0015L254.2174 331.0015L254.1898 330.806L254.1898 330.806L254.1898 330.325L254.1898 330.325L254.1622 330.2111L254.1622 330.2111L254.0818 330.042L254.0818 330.042L253.9403 329.8728L253.9403 329.8728L253.7976 329.7373" stroke="none" fill="#000000" fill-rule="evenodd" /><path id="1017" transform="matrix(1 0 0 -1 0 841)" d="M261.4969 337.7785L261.4693 337.6633L261.4693 337.6633L261.4081 337.5482L261.4081 337.5482L261.3278 337.4666L261.3278 337.4666L261.2402 337.379L261.2402 337.379L261.0435 337.2771L261.0435 337.2771L260.8216 337.2171L260.8216 337.2171L253.7712 336.6018L253.7712 336.6018L253.6296 337.4402L253.6296 337.4402L253.656 337.4402L253.656 337.4402L254.251 337.5482L254.251 337.5482L255.568 337.7785L255.568 337.7785L257.222 338.0555L257.222 338.0555L258.9097 338.3398L258.9097 338.3398L260.5649 338.5965L260.5649 338.5965L260.6789 338.6229L260.6789 338.6229L260.8216 338.6229L260.8216 338.6229L260.9631 338.5965L260.9631 338.5965L261.1047 338.5353L261.1047 338.5353L261.2126 338.4813L261.2126 338.4813L261.3002 338.4274L261.3002 338.4274L261.3818 338.3398L261.3818 338.3398L261.4417 338.2247L261.4417 338.2247L261.4693 338.1167L261.4693 338.1167L261.4969 338.0016L261.4969 338.0016L261.5233 337.8864L261.5233 337.8864L261.4969 337.7785M262.0295 338.0555L261.9755 338.3123L261.9755 338.3123L261.8615 338.5089L261.8615 338.5089L261.7188 338.7045L261.7188 338.7045L261.5509 338.8736L261.5509 338.8736L261.4417 338.9611L261.4417 338.9611L261.3278 339.0151L261.3278 339.0151L261.2126 339.0703L261.2126 339.0703L261.1047 339.0703L261.1047 339.0703L260.848 339.1039L260.848 339.1039L260.5985 339.1039L260.5985 339.1039L260.2603 339.0703L260.2603 339.0703L259.9232 339.0151L259.9232 339.0151L259.2479 338.9012L259.2479 338.9012L257.8434 338.6505L257.8434 338.6505L255.2297 338.1971L255.2297 338.1971L254.6156 338.0891L254.6156 338.0891L253.9943 337.974L253.9943 337.974L253.8791 337.9476L253.8791 337.9476L253.7976 337.974L253.7976 337.974L253.6021 338.028L253.6021 338.028L253.4605 338.1167L253.4605 338.1167L253.2914 338.2582L253.2914 338.2582L253.0959 338.4274L253.0959 338.4274L252.9807 338.5089L252.9807 338.5089L252.9544 338.5965L252.9544 338.5965L253.4065 335.5259L253.4065 335.5259L253.2914 335.1876L253.2914 335.1876L253.1499 334.823L253.1499 334.823L253.0083 334.4368L253.0083 334.4368L252.9807 334.2341L252.9807 334.2341L252.9807 334.0385L252.9807 334.0385L253.0347 333.8419L253.0347 333.8419L253.1223 333.6463L253.1223 333.6463L253.2038 333.5036L253.2038 333.5036L253.319 333.4232L253.319 333.4232L253.2038 332.9698L253.2038 332.9698L253.0683 332.5164L253.0683 332.5164L252.9267 332.1314L252.9267 332.1314L252.8128 331.732L252.8128 331.732L252.7852 331.5365L252.7852 331.5365L252.7576 331.3398L252.7576 331.3398L252.8128 331.1443L252.8128 331.1443L252.9004 330.9475L252.9004 330.9475L253.0083 330.806L253.0083 330.806L253.1223 330.7172L253.1223 330.7172L253.265 330.6909L253.265 330.6909L253.4065 330.6909L253.4065 330.6909L253.5145 330.7172L253.5145 330.7172L253.656 330.806L253.656 330.806L253.7712 330.9212L253.7712 330.9212L253.8516 331.0291L253.8516 331.0291L253.9667 331.2594L253.9667 331.2594L253.9943 331.3673L253.9943 331.3673L254.0207 331.5089L254.0207 331.5089L254.0207 331.624L254.0207 331.624L253.9943 331.7656L253.9943 331.7656L253.9127 331.9887L253.9127 331.9887L253.7712 332.544L253.7712 332.544L253.656 333.1114L253.656 333.1114L253.6021 333.3621L253.6021 333.3621L253.7436 333.3884L253.7436 333.3884L253.8516 333.4772L253.8516 333.4772L253.9667 333.5923L253.9667 333.5923L254.0818 333.7267L254.0818 333.7267L254.1898 333.957L254.1898 333.957L254.2174 334.0649L254.2174 334.0649L254.251 334.1801L254.251 334.1801L254.2174 334.3228L254.2174 334.3228L254.1898 334.4368L254.1898 334.4368L254.1358 334.6874L254.1358 334.6874L253.9403 335.3843L253.9403 335.3843L254.0482 335.4995L254.0482 335.4995L254.1358 335.5259L254.1358 335.5259L254.1898 335.5259L254.1898 335.5259L257.6742 336.1208L257.6742 336.1208L261.0711 336.7097L261.0711 336.7097L261.2402 336.7973L261.2402 336.7973L261.4081 336.9053L261.4081 336.9053L261.6109 337.048L261.6109 337.048L261.78 337.2435L261.78 337.2435L261.8615 337.3586L261.8615 337.3586L261.9491 337.4666L261.9491 337.4666L261.9755 337.6093L261.9755 337.6093L262.0295 337.7509L262.0295 337.7509L262.0295 338.0555" stroke="none" fill="#000000" fill-rule="evenodd" /><path id="1018" transform="matrix(1 0 0 -1 0 841)" d="M264.0494 337.2171L263.8263 337.2771L263.8263 337.2771L263.6031 337.379L263.6031 337.379L263.5156 337.4666L263.5156 337.4666L263.434 337.5482L263.434 337.5482L263.3741 337.6633L263.3741 337.6633L263.3465 337.7785L263.3465 337.7785L263.3465 338.0016L263.3465 338.0016L263.3741 338.1167L263.3741 338.1167L263.434 338.2247L263.434 338.2247L263.488 338.3398L263.488 338.3398L263.5696 338.4274L263.5696 338.4274L263.6571 338.4813L263.6571 338.4813L263.7723 338.5353L263.7723 338.5353L263.8802 338.5965L263.8802 338.5965L264.0218 338.6229L264.0218 338.6229L264.1633 338.6229L264.1633 338.6229L264.306 338.5965L264.306 338.5965L265.9601 338.3398L265.9601 338.3398L267.6213 338.0555L267.6213 338.0555L269.2754 337.7785L269.2754 337.7785L270.5924 337.5482L270.5924 337.5482L271.2137 337.4402L271.2137 337.4402L271.0986 336.6018L271.0986 336.6018L264.0494 337.2171M271.7739 332.5164L271.6395 332.9698L271.6395 332.9698L271.5244 333.4232L271.5244 333.4232L271.6395 333.5036L271.6395 333.5036L271.7475 333.6463L271.7475 333.6463L271.8351 333.8419L271.8351 333.8419L271.8615 334.0385L271.8615 334.0385L271.8615 334.2341L271.8615 334.2341L271.8351 334.4368L271.8351 334.4368L271.7199 334.823L271.7199 334.823L271.5783 335.1876L271.5783 335.1876L271.4704 335.5259L271.4704 335.5259L271.9154 338.5965L271.9154 338.5965L271.8615 338.5089L271.8615 338.5089L271.7475 338.4274L271.7475 338.4274L271.5783 338.2582L271.5783 338.2582L271.4092 338.1167L271.4092 338.1167L271.2401 338.028L271.2401 338.028L271.0722 337.974L271.0722 337.974L270.9642 337.9476L270.9642 337.9476L270.8491 337.974L270.8491 337.974L270.2542 338.0891L270.2542 338.0891L269.64 338.1971L269.64 338.1971L267.0264 338.6505L267.0264 338.6505L265.5955 338.9012L265.5955 338.9012L264.9202 339.0151L264.9202 339.0151L264.5819 339.0703L264.5819 339.0703L264.2449 339.1039L264.2449 339.1039L263.9954 339.1039L263.9954 339.1039L263.7723 339.0703L263.7723 339.0703L263.6308 339.0703L263.6308 339.0703L263.5156 339.0151L263.5156 339.0151L263.4005 338.9611L263.4005 338.9611L263.3201 338.8736L263.3201 338.8736L263.1234 338.7045L263.1234 338.7045L262.9818 338.5089L262.9818 338.5089L262.8943 338.3123L262.8943 338.3123L262.8403 338.0555L262.8403 338.0555L262.8127 337.8864L262.8127 337.8864L262.8403 337.7509L262.8403 337.7509L262.8667 337.6093L262.8667 337.6093L262.9279 337.4666L262.9279 337.4666L262.9818 337.3586L262.9818 337.3586L263.0634 337.2435L263.0634 337.2435L263.2661 337.048L263.2661 337.048L263.4616 336.9053L263.4616 336.9053L263.6308 336.7973L263.6308 336.7973L263.7987 336.7097L263.7987 336.7097L267.1692 336.1208L267.1692 336.1208L270.68 335.5259L270.68 335.5259L270.7339 335.5259L270.7339 335.5259L270.7951 335.4995L270.7951 335.4995L270.9031 335.3843L270.9031 335.3843L270.7339 334.6874L270.7339 334.6874L270.6536 334.4368L270.6536 334.4368L270.626 334.3228L270.626 334.3228L270.626 334.0649L270.626 334.0649L270.68 333.957L270.68 333.957L270.7951 333.7267L270.7951 333.7267L270.8755 333.5923L270.8755 333.5923L270.9906 333.4772L270.9906 333.4772L271.1321 333.3884L271.1321 333.3884L271.2677 333.3621L271.2677 333.3621L271.2137 333.1114L271.2137 333.1114L271.0722 332.544L271.0722 332.544L270.9294 331.9887L270.9294 331.9887L270.8755 331.7656L270.8755 331.7656L270.8491 331.624L270.8491 331.624L270.8215 331.5089L270.8215 331.5089L270.8491 331.3673L270.8491 331.3673L270.8755 331.2594L270.8755 331.2594L270.9906 331.0291L270.9906 331.0291L271.0986 330.9212L271.0986 330.9212L271.2137 330.806L271.2137 330.806L271.3289 330.7172L271.3289 330.7172L271.4704 330.6909L271.4704 330.6909L271.6048 330.6909L271.6048 330.6909L271.7199 330.7172L271.7199 330.7172L271.8615 330.806L271.8615 330.806L271.943 330.9475L271.943 330.9475L272.0581 331.1443L272.0581 331.1443L272.0845 331.3398L272.0845 331.3398L272.0845 331.5365L272.0845 331.5365L272.0581 331.732L272.0581 331.732L271.9154 332.1314L271.9154 332.1314L271.7739 332.5164" stroke="none" fill="#000000" fill-rule="evenodd" /><path id="1019" transform="matrix(1 0 0 -1 0 841)" d="M270.2542 330.0755L269.7816 330.0755L269.7816 330.0755L269.303 330.1019L269.303 330.1019L269.0463 330.1019L269.0463 330.1019L268.8304 330.1571L268.8304 330.1571L268.6001 330.2447L268.6001 330.2447L268.4046 330.3526L268.4046 330.3526L268.4922 330.325L268.4922 330.325L268.6001 330.3526L268.6001 330.3526L268.8304 330.4138L268.8304 330.4138L268.9923 330.4402L268.9923 330.4402L269.1339 330.4941L269.1339 330.4941L269.4109 330.6633L269.4109 330.6633L269.6136 330.5217L269.6136 330.5217L269.8632 330.3526L269.8632 330.3526L270.0047 330.2986L270.0047 330.2986L270.1462 330.2447L270.1462 330.2447L270.4233 330.2111L270.4233 330.2111L270.4845 330.1019L270.4845 330.1019L270.2542 330.0755M273.6846 329.6293L274.5027 329.5681L274.5027 329.5681L275.2319 329.4866L275.2319 329.4866L275.2319 329.9879L275.2319 329.9879L274.529 330.0144L274.529 330.0144L273.9953 330.042L273.9953 330.042L273.7662 330.1019L273.7662 330.1019L273.6306 330.1295L273.6306 330.1295L273.32 330.2986L273.32 330.2986L272.9218 330.5493L272.9218 330.5493L272.5307 330.806L272.5307 330.806L272.3892 330.86L272.3892 330.86L272.3076 330.8864L272.3076 330.8864L272.1661 330.9212L272.1661 330.9212L272.0305 330.9751L272.0305 330.9751L271.8615 330.9751L271.8615 330.9751L271.7739 330.9475L271.7739 330.9475L271.7199 330.8864L271.7199 330.8864L271.5508 330.7784L271.5508 330.7784L271.3289 330.6633L271.3289 330.6633L271.1862 330.6369L271.1862 330.6369L271.0446 330.6093L271.0446 330.6093L270.8755 330.6093L270.8755 330.6093L270.7076 330.6369L270.7076 330.6369L270.3429 330.7172L270.3429 330.7172L270.0047 330.8324L270.0047 330.8324L269.6676 330.9751L269.6676 330.9751L269.6136 331.0555L269.6136 331.0555L269.5525 331.1167L269.5525 331.1167L269.4709 331.1443L269.4709 331.1443L269.357 331.1443L269.357 331.1443L269.1878 331.0902L269.1878 331.0902L268.9923 331.0015L268.9923 331.0015L267.9248 330.8324L267.9248 330.8324L267.8445 330.8324L267.8445 330.8324L267.7905 330.7784L267.7905 330.7784L267.7557 330.6633L267.7557 330.6633L267.7905 330.4941L267.7905 330.4941L267.8169 330.325L267.8169 330.325L267.8708 330.1835L267.8708 330.1835L267.8984 330.1571L267.8984 330.1571L267.9248 330.1295L267.9248 330.1295L267.5878 330.1295L267.5878 330.1295L267.1956 330.1019L267.1956 330.1019L266.8045 330.0755L266.8045 330.0755L266.6078 330.042L266.6078 330.042L266.5202 330.0144L266.5202 330.0144L266.4399 329.9604L266.4399 329.9604L266.3247 329.7913L266.3247 329.7913L266.2372 329.6017L266.2372 329.6017L266.1832 329.399L266.1832 329.399L266.1292 329.2023L266.1292 329.2023L265.7298 329.2023L265.7298 329.2023L265.6291 329.1759L265.6291 329.1759L265.5139 329.1219L265.5139 329.1219L265.4 329.0608L265.4 329.0608L265.292 328.9528L265.292 328.9528L265.1768 328.8101L265.1768 328.8101L265.0893 328.6422L265.0893 328.6422L265.0617 328.4178L265.0617 328.4178L265.0893 328.2151L265.0893 328.2151L265.1493 328.046L265.1493 328.046L265.2308 327.9117L265.2308 327.9117L265.3459 327.8229L265.3459 327.8229L265.4263 327.7689L265.4263 327.7689L265.5415 327.7426L265.5415 327.7426L265.6291 327.7078L265.6291 327.7078L266.0141 327.6538L266.0141 327.6538L266.0405 327.5734L266.0405 327.5734L266.068 327.3431L266.068 327.3431L266.1292 327.2016L266.1292 327.2016L266.1832 327.0997L266.1832 327.0997L266.2372 327.0121L266.2372 327.0121L266.3247 326.9581L266.3247 326.9581L267.0804 326.7278L267.0804 326.7278L267.054 326.6738L267.054 326.6738L267.054 326.5311L267.054 326.5311L267.0804 326.4232L267.0804 326.4232L267.1152 326.3356L267.1152 326.3356L267.1956 326.254L267.1956 326.254L267.3107 326.1665L267.3107 326.1665L267.6213 326.0249L267.6213 326.0249L267.8984 325.971L267.8984 325.971L268.2091 325.9158L268.2091 325.9158L270.0862 325.7742L270.0862 325.7742L272.0581 325.8558L272.0581 325.8558L272.334 325.8822L272.334 325.8822L272.6987 325.9434L272.6987 325.9434L273.0909 326.0249L273.0909 326.0249L273.4891 326.1665L273.4891 326.1665L273.6582 326.2205L273.6582 326.2205L274.0493 326.3632L274.0493 326.3632L274.6106 326.5047L274.6106 326.5047L274.9213 326.5587L274.9213 326.5587L275.2319 326.5587L275.2319 326.5587L275.2319 327.0385L275.2319 327.0385L274.3875 327.0385L274.3875 327.0385L274.192 326.9581L274.192 326.9581L273.6846 326.7614L273.6846 326.7614L273.0093 326.4771L273.0093 326.4771L272.0305 326.3896L272.0305 326.3896L270.9031 326.2816L270.9031 326.2816L268.2091 326.4232L268.2091 326.4232L267.9584 326.4771L267.9584 326.4771L267.6477 326.5311L267.6477 326.5311L267.6213 326.5311L267.6213 326.5311L267.6213 326.5587L267.6213 326.5587L267.6477 326.6462L267.6477 326.6462L267.7017 326.789L267.7017 326.789L270.2278 326.7278L270.2278 326.7278L269.694 327.2892L269.694 327.2892L266.8045 327.3156L266.8045 327.3156L266.7433 327.3431L266.7433 327.3431L266.6894 327.3707L266.6894 327.3707L266.6354 327.4583L266.6354 327.4583L266.6078 327.5734L266.6078 327.5734L266.6078 327.6274L266.6078 327.6274L269.2754 327.6274L269.2754 327.6274L269.2754 328.1888L269.2754 328.1888L265.6758 328.1888L265.6758 328.1888L265.6291 328.2763L265.6291 328.2763L265.5679 328.3579L265.5679 328.3579L265.5415 328.473L265.5415 328.473L265.5415 328.527L265.5415 328.527L265.5679 328.587L265.5679 328.587L265.6566 328.6422L265.6566 328.6422L265.7646 328.6961L265.7646 328.6961L269.2754 328.6961L269.2754 328.6961L269.2754 329.2023L269.2754 329.2023L266.9125 329.2023L266.9125 329.2023L266.7769 329.2635L266.7769 329.2635L266.6894 329.3174L266.6894 329.3174L266.6618 329.345L266.6618 329.345L266.6618 329.4602L266.6618 329.4602L266.6894 329.4866L266.6894 329.4866L266.7769 329.5405L266.7769 329.5405L266.8585 329.6017L266.8585 329.6017L270.2278 329.6017L270.2278 329.6017L270.4569 329.0344L270.4569 329.0344L270.5924 328.6146L270.5924 328.6146L270.68 328.4454L270.68 328.4454L270.7339 328.3579L270.7339 328.3579L270.8491 328.3039L270.8491 328.3039L271.0182 328.2499L271.0182 328.2499L271.5244 328.1072L271.5244 328.1072L272.1925 327.9381L272.1925 327.9381L272.2201 328.4995L272.2201 328.4995L271.1597 328.8101L271.1597 328.8101L271.0446 328.8653L271.0446 328.8653L270.9642 328.9792L270.9642 328.9792L270.8755 329.1219L270.8755 329.1219L270.8491 329.2635L270.8491 329.2635L270.7615 329.5142L270.7615 329.5142L270.7615 329.6293L270.7615 329.6293L272.1925 329.9604L272.1925 329.9604L271.4704 330.1571L271.4704 330.1571L271.7739 330.2711L271.7739 330.2711L272.0042 330.325L272.0042 330.325L272.1925 330.3802L272.1925 330.3802L272.3076 330.3526L272.3076 330.3526L272.5031 330.2711L272.5031 330.2711L272.9829 329.9879L272.9829 329.9879L273.4291 329.7373L273.4291 329.7373L273.597 329.6557L273.597 329.6557L273.6846 329.6293" stroke="none" fill="#000000" fill-rule="evenodd" /><path id="1020" transform="matrix(1 0 0 -1 0 841)" d="M269.9507 331.7932L270.2889 332.1314L270.2889 332.1314L269.9507 332.4625L269.9507 332.4625L269.9171 332.5164L269.9171 332.5164L269.8895 332.604L269.8895 332.604L269.8895 332.7467L269.8895 332.7467L269.9507 332.9159L269.9507 332.9159L269.9783 333.085L269.9783 333.085L269.9171 333.2205L269.9171 333.2205L269.8356 333.3884L269.8356 333.3884L269.694 333.5923L269.694 333.5923L269.5789 333.7267L269.5789 333.7267L269.4709 333.8419L269.4709 333.8419L269.357 333.8958L269.357 333.8958L269.303 333.9306L269.303 333.9306L269.2754 333.957L269.2754 333.957L269.2754 334.011L269.2754 334.011L269.303 334.0649L269.303 334.0649L269.3834 334.1537L269.3834 334.1537L269.4109 334.2676L269.4109 334.2676L269.4445 334.4644L269.4445 334.4644L269.4709 334.7415L269.4709 334.7415L268.9648 334.7415L268.9648 334.7415L268.8304 334.1261L268.8304 334.1261L268.8028 333.957L268.8028 333.957L268.8028 333.8419L268.8028 333.8419L268.8304 333.7614L268.8304 333.7614L269.2754 333.3081L269.2754 333.3081L269.3294 333.1929L269.3294 333.1929L269.3834 333.085L269.3834 333.085L269.3834 332.8547L269.3834 332.8547L269.357 332.6316L269.357 332.6316L269.3834 332.544L269.3834 332.544L269.4109 332.4361L269.4109 332.4361L269.5249 332.2669L269.5249 332.2669L269.64 332.1038L269.64 332.1038L269.8091 331.9347L269.8091 331.9347L269.9507 331.7932" stroke="none" fill="#000000" fill-rule="evenodd" /><path id="1021" transform="matrix(1 0 0 -1 0 841)" d="M267.8708 335.1337L267.5338 334.8026L267.5338 334.8026L267.7017 334.5459L267.7017 334.5459L267.7905 334.4368L267.7905 334.4368L267.8708 334.2952L267.8708 334.2952L267.9248 334.1537L267.9248 334.1537L267.9584 334.011L267.9584 334.011L267.9584 333.4496L267.9584 333.4496L268.0124 333.2205L268.0124 333.2205L268.0663 333.1389L268.0663 333.1389L268.1275 333.0238L268.1275 333.0238L268.2091 332.9698L268.2091 332.9698L268.323 332.8823L268.323 332.8823L268.431 332.8547L268.431 332.8547L268.4922 332.8283L268.4922 332.8283L268.5197 332.7731L268.5197 332.7731L268.5737 332.6855L268.5737 332.6855L268.6001 332.5776L268.6001 332.5776L268.6001 332.3473L268.6001 332.3473L268.6613 332.2118L268.6613 332.2118L268.7152 332.0703L268.7152 332.0703L268.8028 331.9347L268.8028 331.9347L268.9036 331.7932L268.9036 331.7932L269.0187 331.678L269.0187 331.678L269.1339 331.5629L269.1339 331.5629L269.2754 331.4825L269.2754 331.4825L269.4109 331.3937L269.4109 331.3937L269.4109 331.5629L269.4109 331.5629L269.4445 331.7056L269.4445 331.7056L269.4709 331.7932L269.4709 331.7932L269.5789 331.8471L269.5789 331.8471L269.303 332.0163L269.303 332.0163L269.2142 332.1314L269.2142 332.1314L269.1602 332.1854L269.1602 332.1854L269.1339 332.2669L269.1339 332.2669L269.1339 332.4625L269.1339 332.4625L269.1063 332.6316L269.1063 332.6316L269.0727 332.8283L269.0727 332.8283L269.0187 332.9962L269.0187 332.9962L268.9384 333.085L268.9384 333.085L268.8568 333.1653L268.8568 333.1653L268.6877 333.2805L268.6877 333.2805L268.5461 333.3621L268.5461 333.3621L268.4922 333.4232L268.4922 333.4232L268.4658 333.5036L268.4658 333.5036L268.431 333.5923L268.431 333.5923L268.4658 333.6727L268.4658 333.6727L268.4922 333.8694L268.4922 333.8694L268.4922 333.9846L268.4922 333.9846L268.4658 334.1261L268.4658 334.1261L268.4046 334.3228L268.4046 334.3228L268.2966 334.5183L268.2966 334.5183L268.1551 334.715L268.1551 334.715L267.8708 335.1337" stroke="none" fill="#000000" fill-rule="evenodd" /><path id="1022" transform="matrix(1 0 0 -1 0 841)" d="M272.2201 332.4085L272.5307 331.9887L272.5307 331.9887L272.8138 332.2118L272.8138 332.2118L272.9218 332.3209L272.9218 332.3209L273.0369 332.4625L273.0369 332.4625L273.0909 332.6316L273.0909 332.6316L273.1521 332.8283L273.1521 332.8283L273.1521 333.0514L273.1521 333.0514L273.1245 333.2205L273.1245 333.2205L273.0909 333.3621L273.0909 333.3621L273.1521 333.4772L273.1521 333.4772L273.206 333.5923L273.206 333.5923L273.32 333.7003L273.32 333.7003L273.4291 333.7879L273.4291 333.7879L273.5431 333.8694L273.5431 333.8694L273.6306 333.9846L273.6306 333.9846L273.6582 334.0385L273.6582 334.0385L273.6582 334.3492L273.6582 334.3492L273.597 334.6059L273.597 334.6059L273.5167 335.0797L273.5167 335.0797L273.0093 335.1613L273.0093 335.1613L272.9829 335.1073L272.9829 335.1073L272.9829 334.9645L272.9829 334.9645L273.0093 334.7415L273.0093 334.7415L273.0369 334.6059L273.0369 334.6059L273.0909 334.4368L273.0909 334.4368L273.1245 334.2952L273.1245 334.2952L273.0909 334.2341L273.0909 334.2341L273.0645 334.1801L273.0645 334.1801L272.8414 334.011L272.8414 334.011L272.7538 333.8958L272.7538 333.8958L272.6723 333.7879L272.6723 333.7879L272.6183 333.6727L272.6183 333.6727L272.5847 333.5312L272.5847 333.5312L272.5847 333.2205L272.5847 333.2205L272.6183 332.9698L272.6183 332.9698L272.6183 332.8283L272.6183 332.8283L272.5307 332.7131L272.5307 332.7131L272.2201 332.4085" stroke="none" fill="#000000" fill-rule="evenodd" /><path id="1023" transform="matrix(1 0 0 -1 0 841)" d="M273.1784 332.3473L273.1521 332.3209L273.1521 332.3209L273.1784 332.1038L273.1784 332.1038L273.206 331.8747L273.206 331.8747L273.4627 332.0163L273.4627 332.0163L273.6846 332.1854L273.6846 332.1854L273.9077 332.3473L273.9077 332.3473L273.9953 332.4361L273.9953 332.4361L274.0229 332.5776L274.0229 332.5776L274.0229 332.9962L274.0229 332.9962L274.0493 333.085L274.0493 333.085L274.0768 333.1389L274.0768 333.1389L274.1644 333.1929L274.1644 333.1929L274.3335 333.2205L274.3335 333.2205L274.4139 333.2541L274.4139 333.2541L274.5027 333.3081L274.5027 333.3081L274.583 333.4232L274.583 333.4232L274.6442 333.5312L274.6442 333.5312L274.6706 333.6727L274.6706 333.6727L274.6982 333.7879L274.6982 333.7879L274.7245 334.1537L274.7245 334.1537L274.7521 334.3228L274.7521 334.3228L274.7785 334.4919L274.7785 334.4919L274.8673 334.6874L274.8673 334.6874L274.9476 334.823L274.9476 334.823L275.1779 335.1337L275.1779 335.1337L275.0088 335.3843L275.0088 335.3843L274.8937 335.6686L274.8937 335.6686L274.529 335.2488L274.529 335.2488L274.3875 335.0185L274.3875 335.0185L274.3335 334.877L274.3335 334.877L274.2724 334.775L274.2724 334.775L274.2724 334.5723L274.2724 334.5723L274.3059 334.3768L274.3059 334.3768L274.3059 334.0997L274.3059 334.0997L274.2724 334.011L274.2724 334.011L274.246 333.9306L274.246 333.9306L274.192 333.8419L274.192 333.8419L274.0229 333.7614L274.0229 333.7614L273.8538 333.6727L273.8538 333.6727L273.7997 333.6187L273.7997 333.6187L273.7122 333.5576L273.7122 333.5576L273.6582 333.4496L273.6582 333.4496L273.6306 333.3345L273.6306 333.3345L273.6306 333.0514L273.6306 333.0514L273.5431 332.8283L273.5431 332.8283L273.5167 332.7131L273.5167 332.7131L273.4291 332.604L273.4291 332.604L273.2936 332.4901L273.2936 332.4901L273.206 332.4361L273.206 332.4361L273.1784 332.3473" stroke="none" fill="#000000" fill-rule="evenodd" /><g clip-path="url(#96)"></g></g><g clip-path="url(#97)"></g><g clip-path="url(#98)"><path id="1024" transform="matrix(1 0 0 -1 0 841)" d="M342.8359 329.6761L318.7963 305.6413L318.7963 305.6413L294.7831 329.6761L294.7831 329.6761L318.7963 353.7444L318.7963 353.7444L342.8359 329.6761" stroke="none" fill="#FFFFFF" fill-rule="evenodd" /><path id="1025" transform="matrix(1 0 0 -1 0 841)" d="M298.517 329.6761L318.7963 350.0117L318.7963 350.0117L339.102 329.6761L339.102 329.6761L318.7963 309.3812L318.7963 309.3812L298.517 329.6761M318.7963 353.9748L294.5264 329.6761L294.5264 329.6761L318.7963 305.3918L318.7963 305.3918L343.0662 329.6761L343.0662 329.6761L318.7963 353.9748" stroke="none" fill="#DC3027" fill-rule="evenodd" /><path id="1026" transform="matrix(1 0 0 -1 0 841)" d="M321.6666 322.1423L321.6666 321.8388L321.6666 321.8388L321.6054 321.5546L321.6054 321.5546L321.5515 321.2775L321.5515 321.2775L321.4363 321.0196L321.4363 321.0196L321.3283 320.7701L321.3283 320.7701L321.1868 320.5398L321.1868 320.5398L321.0177 320.3167L321.0177 320.3167L320.8486 320.1212L320.8486 320.1212L320.6195 319.9245L320.6195 319.9245L320.424 319.783L320.424 319.783L320.1733 319.6138L320.1733 319.6138L319.9166 319.4987L319.9166 319.4987L319.6671 319.4243L319.6671 319.4243L319.384 319.3368L319.384 319.3368L319.0998 319.3092L319.0998 319.3092L318.8227 319.2816L318.8227 319.2816L318.5468 319.3092L318.5468 319.3092L318.2625 319.3368L318.2625 319.3368L317.9855 319.4243L317.9855 319.4243L317.7024 319.4987L317.7024 319.4987L317.4793 319.6138L317.4793 319.6138L317.2226 319.783L317.2226 319.783L316.9995 319.9245L316.9995 319.9245L316.804 320.1212L316.804 320.1212L316.6349 320.3167L316.6349 320.3167L316.4658 320.5398L316.4658 320.5398L316.3242 320.7701L316.3242 320.7701L316.2103 321.0196L316.2103 321.0196L316.0951 321.2775L316.0951 321.2775L316.0411 321.5546L316.0411 321.5546L315.9872 321.8388L315.9872 321.8388L315.9872 322.4266L315.9872 322.4266L316.0411 322.7036L316.0411 322.7036L316.0951 322.9879L316.0951 322.9879L316.2103 323.2446L316.2103 323.2446L316.3242 323.4953L316.3242 323.4953L316.4658 323.7184L316.4658 323.7184L316.6349 323.9487L316.6349 323.9487L316.804 324.1442L316.804 324.1442L316.9995 324.3409L316.9995 324.3409L317.2226 324.51L317.2226 324.51L317.4793 324.6443L317.4793 324.6443L317.7024 324.7595L317.7024 324.7595L317.9855 324.8411L317.9855 324.8411L318.2625 324.9286L318.2625 324.9286L318.5468 324.9562L318.5468 324.9562L318.8227 324.9826L318.8227 324.9826L319.0998 324.9562L319.0998 324.9562L319.384 324.9286L319.384 324.9286L319.6671 324.8411L319.6671 324.8411L319.9166 324.7595L319.9166 324.7595L320.1733 324.6443L320.1733 324.6443L320.424 324.51L320.424 324.51L320.6195 324.3409L320.6195 324.3409L320.8486 324.1442L320.8486 324.1442L321.0177 323.9487L321.0177 323.9487L321.1868 323.7184L321.1868 323.7184L321.3283 323.4953L321.3283 323.4953L321.4363 323.2446L321.4363 323.2446L321.5515 322.9879L321.5515 322.9879L321.6054 322.7036L321.6054 322.7036L321.6666 322.4266L321.6666 322.4266L321.6666 322.1423" stroke="none" fill="#000000" fill-rule="evenodd" /><path id="1027" transform="matrix(1 0 0 -1 0 841)" d="M320.5655 327.5734L320.5115 327.4583L320.5115 327.4583L320.4504 327.3156L320.4504 327.3156L320.3424 327.174L320.3424 327.174L320.2009 327.0121L320.2009 327.0121L319.9778 326.843L319.9778 326.843L319.6947 326.7278L319.6947 326.7278L319.33 326.6462L319.33 326.6462L319.0998 326.6199L319.0998 326.6199L318.8766 326.6199L318.8766 326.6199L318.4317 326.6462L318.4317 326.6462L318.067 326.7278L318.067 326.7278L317.7828 326.843L317.7828 326.843L317.5609 326.9845L317.5609 326.9845L317.4181 327.1476L317.4181 327.1476L317.3102 327.3156L317.3102 327.3156L317.2502 327.4583L317.2502 327.4583L317.2226 327.5734L317.2226 327.5734L316.2978 333.6727L316.2978 333.6727L315.6765 337.8588L315.6765 337.8588L315.3719 340.1115L315.3719 340.1115L315.3719 340.2529L315.3719 340.2529L315.3994 340.4221L315.3994 340.4221L315.4534 340.5912L315.4534 340.5912L315.541 340.7603L315.541 340.7603L315.6225 340.9294L315.6225 340.9294L315.7569 341.0986L315.7569 341.0986L315.926 341.2941L315.926 341.2941L316.1287 341.4632L316.1287 341.4632L316.3518 341.606L316.3518 341.606L316.6013 341.7751L316.6013 341.7751L316.912 341.9106L316.912 341.9106L317.2226 342.0245L317.2226 342.0245L317.5872 342.1133L317.5872 342.1133L317.9855 342.1937L317.9855 342.1937L318.4041 342.2213L318.4041 342.2213L318.8766 342.2476L318.8766 342.2476L319.3564 342.2213L319.3564 342.2213L319.8087 342.1937L319.8087 342.1937L320.2273 342.1133L320.2273 342.1133L320.5919 341.9982L320.5919 341.9982L320.9026 341.8831L320.9026 341.8831L321.2132 341.7415L321.2132 341.7415L321.4639 341.5724L321.4639 341.5724L321.693 341.4033L321.693 341.4033L321.8621 341.2341L321.8621 341.2341L322.0313 341.065L322.0313 341.065L322.1392 340.8683L322.1392 340.8683L322.2472 340.6992L322.2472 340.6992L322.3071 340.53L322.3071 340.53L322.3611 340.3609L322.3611 340.3609L322.3611 340.1115L322.3611 340.1115L322.0504 337.8864L322.0504 337.8864L321.4639 333.7003L321.4639 333.7003L320.8762 329.5681L320.8762 329.5681L320.5655 327.5734" stroke="none" fill="#000000" fill-rule="evenodd" /><g clip-path="url(#99)"></g></g><g clip-path="url(#100)"></g></g></g><g clip-path="url(#101)"></g><path id="1028" transform="matrix(1 0 0 -1 0 841)" d="M399.1925 329.7361L375.1325 305.6677L375.1325 305.6677L351.0714 329.7361L351.0714 329.7361L375.1325 353.6917L375.1325 353.6917L399.1925 329.7361" stroke="none" fill="#FFFFFF" fill-rule="evenodd" /><path id="1029" transform="matrix(1 0 0 -1 0 841)" d="M354.7825 329.7361L375.1325 349.9794L375.1325 349.9794L395.3698 329.7361L395.3698 329.7361L375.1325 309.38L375.1325 309.38L354.7825 329.7361M375.1325 354.0287L350.8471 329.7361L350.8471 329.7361L375.1325 305.4434L375.1325 305.4434L399.418 329.7361L399.418 329.7361L375.1325 354.0287" stroke="none" fill="#DC3027" fill-rule="evenodd" /><path id="1030" transform="matrix(1 0 0 -1 0 841)" d="M365.2382 329.6233L381.654 329.6233" stroke="#100F0D" stroke-width="0.2248987" stroke-linecap="round" fill="none" /><path id="1031" transform="matrix(1 0 0 -1 0 841)" d="M367.937 324.5628L370.1859 325.9122L370.1859 325.9122L370.2975 331.8723L370.2975 331.8723L367.3744 333.4472L367.3744 333.4472L367.1501 333.4472L367.1501 333.4472L366.8119 333.56L366.8119 333.56L366.3621 333.4472L366.3621 333.4472L365.8007 333.4472L365.8007 333.4472L365.9135 333.4472L365.9135 333.4472L366.1378 333.56L366.1378 333.56L366.5876 334.0098L366.5876 334.0098L367.2617 334.4596L367.2617 334.4596L367.5999 334.5723L367.5999 334.5723L367.7115 334.5723L367.7115 334.5723L367.937 334.4596L367.937 334.4596L368.1613 334.3468L368.1613 334.3468L369.0609 334.0098L369.0609 334.0098L369.3979 333.7843L369.3979 333.7843L369.7362 333.56L369.7362 333.56L370.0732 333.4472L370.0732 333.4472L370.0732 333.6727L370.0732 333.6727L369.9605 334.2341L369.9605 334.2341L369.6234 334.9094L369.6234 334.9094L369.5107 335.2464L369.5107 335.2464L369.3979 335.4719L369.3979 335.4719L369.0609 335.6962L369.0609 335.6962L368.6111 336.0345L368.6111 336.0345L367.8242 336.7086L367.8242 336.7086L367.2617 337.0468L367.2617 337.0468L366.9246 337.3839L366.9246 337.3839L366.7003 337.6082L366.7003 337.6082L366.5876 337.6082L366.5876 337.6082L366.5876 338.058L366.5876 338.058L369.5107 336.2588L369.5107 336.2588L369.5107 337.1584L369.5107 337.1584L369.3979 338.058L369.3979 338.058L369.0609 338.9587L369.0609 338.9587L368.6111 339.7456L368.6111 339.7456L368.274 340.3081L368.274 340.3081L368.0497 340.6452L368.0497 340.6452L367.937 340.8706L367.937 340.8706L368.1613 340.9822L368.1613 340.9822L369.6234 338.7332L369.6234 338.7332L370.0732 340.3081L370.0732 340.3081L370.4103 340.4197L370.4103 340.4197L370.4103 339.9699L370.4103 339.9699L370.2975 339.6328L370.2975 339.6328L370.2975 339.183L370.2975 339.183L370.1859 338.2834L370.1859 338.2834L370.1859 337.8336L370.1859 337.8336L370.2975 337.6082L370.2975 337.6082L370.4103 337.1584L370.4103 337.1584L370.6346 336.597L370.6346 336.597L370.7473 335.9217L370.7473 335.9217L370.9728 335.1349L370.9728 335.1349L371.1971 334.4596L371.1971 334.4596L371.4226 333.7843L371.4226 333.7843L371.5341 333.4472L371.5341 333.4472L371.5341 333.2229L371.5341 333.2229L372.9963 335.3592L372.9963 335.3592L372.9963 337.0468L372.9963 337.0468L372.8835 337.6082L372.8835 337.6082L372.8835 338.6205L372.8835 338.6205L372.7708 339.183L372.7708 339.183L372.7708 340.0826L372.7708 340.0826L372.9963 340.0826L372.9963 340.0826L373.4461 337.0468L373.4461 337.0468L375.8066 339.8583L375.8066 339.8583L375.8066 339.5201L375.8066 339.5201L375.6951 339.4085L375.6951 339.4085L375.3568 339.0703L375.3568 339.0703L375.0198 338.5078L375.0198 338.5078L374.57 337.9464L374.57 337.9464L374.2329 337.3839L374.2329 337.3839L373.7831 336.8213L373.7831 336.8213L373.6704 336.2588L373.6704 336.2588L373.5589 336.0345L373.5589 336.0345L373.6704 335.5847L373.6704 335.5847L373.6704 334.6851L373.6704 334.6851L373.4461 334.1225L373.4461 334.1225L373.1091 333.4472L373.1091 333.4472L372.9963 332.9974L372.9963 332.9974L372.7708 332.7731L372.7708 332.7731L372.7708 332.6604L372.7708 332.6604L372.9963 332.7731L372.9963 332.7731L373.4461 333.3345L373.4461 333.3345L374.0086 333.897L374.0086 333.897L374.3457 334.1225L374.3457 334.1225L375.3568 334.1225L375.3568 334.1225L375.9194 334.2341L375.9194 334.2341L376.3692 334.5723L376.3692 334.5723L376.819 335.0221L376.819 335.0221L377.3815 335.5847L377.3815 335.5847L377.9429 336.2588L377.9429 336.2588L378.0556 336.2588L378.0556 336.2588L378.0556 336.3715L378.0556 336.3715L376.1437 333.4472L376.1437 333.4472L375.9194 333.4472L375.9194 333.4472L375.6951 333.3345L375.6951 333.3345L375.1325 333.2229L375.1325 333.2229L374.7955 332.8847L374.7955 332.8847L374.57 332.7731L374.57 332.7731L374.4572 332.4349L374.4572 332.4349L373.6704 331.648L373.6704 331.648L373.2206 331.0855L373.2206 331.0855L372.9963 330.8612L372.9963 330.8612L372.9963 326.8118L372.9963 326.8118L375.4696 325.5751L375.4696 325.5751L372.321 325.0126L372.321 325.0126L371.6469 324.0002L371.6469 324.0002L370.6346 324.8998L370.6346 324.8998L367.937 324.5628" stroke="none" fill="#100F0D" fill-rule="evenodd" /><path id="1032" transform="matrix(1 0 0 -1 0 841)" d="M365.3509 321.1887L365.4637 321.1887L365.4637 321.1887L365.8007 321.3015L365.8007 321.3015L366.4748 321.413L366.4748 321.413L367.1501 321.5258L367.1501 321.5258L367.8242 321.6385L367.8242 321.6385L368.4983 321.7513L368.4983 321.7513L368.9481 321.8629L368.9481 321.8629L369.2864 321.7513L369.2864 321.7513L369.3979 321.7513L369.3979 321.7513L369.7362 321.9756L369.7362 321.9756L370.523 322.201L370.523 322.201L371.5341 322.7625L371.5341 322.7625L372.6593 323.1006L372.6593 323.1006L373.6704 323.5505L373.6704 323.5505L374.57 323.8875L374.57 323.8875L374.907 324.113L374.907 324.113L375.1325 324.2245L375.1325 324.2245L375.9194 324.2245L375.9194 324.2245L376.4819 324.4501L376.4819 324.4501L377.3815 324.7871L377.3815 324.7871L378.5054 325.1253L378.5054 325.1253L379.6293 325.4624L379.6293 325.4624L380.6416 325.7994L380.6416 325.7994L381.0914 325.9122L381.0914 325.9122L381.4285 326.0249L381.4285 326.0249L381.654 326.1365L381.654 326.1365L383.9018 324.4501L383.9018 324.4501L381.7656 323.5505L381.7656 323.5505L384.5771 323.2134L384.5771 323.2134L383.7902 322.0883L383.7902 322.0883L385.4767 322.0883L385.4767 322.0883L385.4767 320.9633L385.4767 320.9633L365.3509 321.1887" stroke="none" fill="#100F0D" fill-rule="evenodd" /><path id="1033" transform="matrix(1 0 0 -1 0 841)" d="M372.8835 324.113L373.4461 324.113L373.4461 324.113L373.7831 324.2245L373.7831 324.2245L374.3457 324.2245L374.3457 324.2245L374.907 324.5628L374.907 324.5628L375.5823 324.8998L375.5823 324.8998L376.2564 325.3497L376.2564 325.3497L376.819 326.0249L376.819 326.0249L377.156 326.4747L377.156 326.4747L377.6058 327.1489L377.6058 327.1489L378.2799 328.0484L378.2799 328.0484L379.068 328.9493L379.068 328.9493L379.9664 329.7361L379.9664 329.7361L380.9787 330.4102L380.9787 330.4102L382.1026 330.7484L382.1026 330.7484L382.6651 330.8612L382.6651 330.8612L383.3404 330.8612L383.3404 330.8612L383.1149 330.5229L383.1149 330.5229L382.8906 329.9604L382.8906 329.9604L382.6651 329.6233L382.6651 329.6233L382.5524 329.399L382.5524 329.399L384.9141 330.1859L384.9141 330.1859L384.9141 329.6233L384.9141 329.6233L384.6886 329.0608L384.6886 329.0608L384.4643 328.3867L384.4643 328.3867L383.7902 327.4871L383.7902 327.4871L383.1149 326.5863L383.1149 326.5863L381.8783 325.6867L381.8783 325.6867L381.2042 325.3497L381.2042 325.3497L380.4162 325.0126L380.4162 325.0126L379.742 324.7871L379.742 324.7871L379.1795 324.5628L379.1795 324.5628L378.7297 324.3373L378.7297 324.3373L378.2799 324.2245L378.2799 324.2245L377.9429 324.113L377.9429 324.113L377.7186 323.8875L377.7186 323.8875L377.3815 323.5505L377.3815 323.5505L377.156 322.9879L377.156 322.9879L376.7062 322.6509L376.7062 322.6509L376.5935 322.4254L376.5935 322.4254L372.8835 324.113" stroke="none" fill="#FFFFFF" fill-rule="evenodd" /><path id="1034" transform="matrix(1 0 0 -1 0 841)" d="M372.8835 324.113L373.4461 324.113L373.4461 324.113L373.7831 324.2245L373.7831 324.2245L374.3457 324.2245L374.3457 324.2245L374.907 324.5628L374.907 324.5628L375.5823 324.8998L375.5823 324.8998L376.2564 325.3497L376.2564 325.3497L376.819 326.0249L376.819 326.0249L377.156 326.4747L377.156 326.4747L377.6058 327.1489L377.6058 327.1489L378.2799 328.0484L378.2799 328.0484L379.068 328.9493L379.068 328.9493L379.9664 329.7361L379.9664 329.7361L380.9787 330.4102L380.9787 330.4102L382.1026 330.7484L382.1026 330.7484L382.6651 330.8612L382.6651 330.8612L383.3404 330.8612L383.3404 330.8612L383.1149 330.5229L383.1149 330.5229L382.8906 329.9604L382.8906 329.9604L382.6651 329.6233L382.6651 329.6233L382.5524 329.399L382.5524 329.399L384.9141 330.1859L384.9141 330.1859L384.9141 329.6233L384.9141 329.6233L384.6886 329.0608L384.6886 329.0608L384.4643 328.3867L384.4643 328.3867L383.7902 327.4871L383.7902 327.4871L383.1149 326.5863L383.1149 326.5863L381.8783 325.6867L381.8783 325.6867L381.2042 325.3497L381.2042 325.3497L380.4162 325.0126L380.4162 325.0126L379.742 324.7871L379.742 324.7871L379.1795 324.5628L379.1795 324.5628L378.7297 324.3373L378.7297 324.3373L378.2799 324.2245L378.2799 324.2245L377.9429 324.113L377.9429 324.113L377.7186 323.8875L377.7186 323.8875L377.3815 323.5505L377.3815 323.5505L377.156 322.9879L377.156 322.9879L376.7062 322.6509L376.7062 322.6509L376.5935 322.4254L376.5935 322.4254L372.8835 324.113z" stroke="#000000" stroke-width="0.3373481" stroke-linecap="round" fill="none" /><path id="1035" transform="matrix(1 0 0 -1 0 841)" d="M383.2277 328.611L383.0022 328.611L383.0022 328.611L382.8906 328.4982L382.8906 328.4982L382.7779 328.3867L382.7779 328.3867L382.7779 328.0484L382.7779 328.0484L382.8906 327.9369L382.8906 327.9369L383.0022 327.8241L383.0022 327.8241L383.452 327.8241L383.452 327.8241L383.452 327.9369L383.452 327.9369L383.5647 327.9369L383.5647 327.9369L383.5647 328.0484L383.5647 328.0484L383.5647 328.4982L383.5647 328.4982L383.452 328.4982L383.452 328.4982L383.452 328.611L383.452 328.611L383.3404 328.611L383.3404 328.611L383.2277 328.611" stroke="none" fill="#100F0D" fill-rule="evenodd" /><g clip-path="url(#102)"></g><g clip-path="url(#103)"><g clip-path="url(#104)"><path id="1036" transform="matrix(1 0 0 -1 0 841)" d="M30.71123 189.8431L152.3365 189.8431" stroke="#0000FF" stroke-width="1.035374" fill="none" /></g></g><g clip-path="url(#105)"><g clip-path="url(#106)"></g></g><g clip-path="url(#107)"><g clip-path="url(#108)"></g></g><g clip-path="url(#109)"><g clip-path="url(#110)"></g></g><g clip-path="url(#111)"><g clip-path="url(#112)"><path id="1393" transform="matrix(1 0 0 -1 0 841)" d="M25.07376 362.6852L118.0319 362.6852" stroke="#0000FF" stroke-width="1.035374" fill="none" /></g></g><g clip-path="url(#113)"><g clip-path="url(#114)"></g></g><g clip-path="url(#115)"><g clip-path="url(#116)"></g></g><g clip-path="url(#117)"><g clip-path="url(#118)"></g></g><g clip-path="url(#119)"><g clip-path="url(#120)"></g></g><g clip-path="url(#121)"><g clip-path="url(#122)"></g></g><g clip-path="url(#123)"><g clip-path="url(#124)"></g></g><g clip-path="url(#125)"><g clip-path="url(#126)"></g><path id="1974" transform="matrix(1 0 0 -1 0 841)" d="M22.31501 34.61255L571.7876 34.61255L571.7876 34.61255L571.7876 34.01282L571.7876 34.01282L22.31501 34.01282" stroke="none" fill="#000000" fill-rule="evenodd" /><path id="1975" transform="matrix(1 0 0 -1 0 841)" d="M22.07512 34.61255L22.5549 34.61255L22.5549 34.61255L22.5549 34.01282L22.5549 34.01282L22.07512 34.01282" stroke="none" fill="#000000" fill-rule="evenodd" /><path id="1976" transform="matrix(1 0 0 -1 0 841)" d="M571.5477 34.61255L572.0275 34.61255L572.0275 34.61255L572.0275 34.01282L572.0275 34.01282L571.5477 34.01282" stroke="none" fill="#000000" fill-rule="evenodd" /><path id="1977" transform="matrix(1 0 0 -1 0 841)" d="M572.0275 34.37268L572.0275 16.02094L572.0275 16.02094L571.4277 16.02094L571.4277 16.02094L571.4277 34.37268" stroke="none" fill="#000000" fill-rule="evenodd" /><path id="1978" transform="matrix(1 0 0 -1 0 841)" d="M572.0275 34.61255L572.0275 34.13275L572.0275 34.13275L571.4277 34.13275L571.4277 34.13275L571.4277 34.61255" stroke="none" fill="#000000" fill-rule="evenodd" /><path id="1979" transform="matrix(1 0 0 -1 0 841)" d="M572.0275 16.2608L572.0275 15.78107L572.0275 15.78107L571.4277 15.78107L571.4277 15.78107L571.4277 16.2608" stroke="none" fill="#000000" fill-rule="evenodd" /><path id="1980" transform="matrix(1 0 0 -1 0 841)" d="M571.7876 15.78107L22.31501 15.78107L22.31501 15.78107L22.31501 16.3808L22.31501 16.3808L571.7876 16.3808" stroke="none" fill="#000000" fill-rule="evenodd" /><path id="1981" transform="matrix(1 0 0 -1 0 841)" d="M572.0275 15.78107L571.5477 15.78107L571.5477 15.78107L571.5477 16.3808L571.5477 16.3808L572.0275 16.3808" stroke="none" fill="#000000" fill-rule="evenodd" /><path id="1982" transform="matrix(1 0 0 -1 0 841)" d="M22.5549 15.78107L22.07512 15.78107L22.07512 15.78107L22.07512 16.3808L22.07512 16.3808L22.5549 16.3808" stroke="none" fill="#000000" fill-rule="evenodd" /><path id="1983" transform="matrix(1 0 0 -1 0 841)" d="M22.07512 16.02094L22.07512 34.37268L22.07512 34.37268L22.67485 34.37268L22.67485 34.37268L22.67485 16.02094" stroke="none" fill="#000000" fill-rule="evenodd" /><path id="1984" transform="matrix(1 0 0 -1 0 841)" d="M22.07512 15.78107L22.07512 16.2608L22.07512 16.2608L22.67485 16.2608L22.67485 16.2608L22.67485 15.78107" stroke="none" fill="#000000" fill-rule="evenodd" /><path id="1985" transform="matrix(1 0 0 -1 0 841)" d="M22.07512 34.13275L22.07512 34.61255L22.07512 34.61255L22.67485 34.61255L22.67485 34.61255L22.67485 34.13275" stroke="none" fill="#000000" fill-rule="evenodd" /><g clip-path="url(#127)"></g><g clip-path="url(#128)"></g><g clip-path="url(#129)"></g><g clip-path="url(#130)"></g><g clip-path="url(#131)"></g><g clip-path="url(#132)"></g><g clip-path="url(#133)"></g><g clip-path="url(#134)"></g><g clip-path="url(#135)"></g></g></g></g></g></svg>