<svg xmlns="http://www.w3.org/2000/svg" xmlns:xlink="http://www.w3.org/1999/xlink" id="body_274" preserveAspectRatio="xMinYMin meet" viewBox="0 0 793 1121"><defs><clipPath id="1"><path id="" clip-rule="evenodd" transform="matrix(1 0 0 1 0 0)" d="M0 841L0 -0.8900146L0 -0.8900146L595.276 -0.8900146L595.276 -0.8900146L595.276 841L595.276 841L0 841z" /></clipPath></defs><g transform="matrix(1.333333 0 0 1.333333 0 0)"><g clip-path="url(#1)"><path id="28" transform="matrix(1 0 0 -1 0 841)" d="M85.039 766.564L510.236 766.564" stroke="#000000" stroke-width="0.498" fill="none" /><g transform="matrix(0.25 0 0 0.25 137.388 129.275)"><g transform="matrix(1 0 0 1 0 0)"><image x="0" y="0" xlink:href="img_271.png" width="1282" height="516" /></g></g><path id="441" transform="matrix(1 0 0 -1 0 841)" d="M289.207 400.896L323.81 400.896" stroke="#000000" stroke-width="0.436" fill="none" /><path id="579" transform="matrix(1 0 0 -1 0 841)" d="M154.711 285.123L167.681 285.123" stroke="#000000" stroke-width="0.436" fill="none" /><path id="602" transform="matrix(1 0 0 -1 0 841)" d="M252.711 285.123L287.26 285.123" stroke="#000000" stroke-width="0.436" fill="none" /><path id="619" transform="matrix(1 0 0 -1 0 841)" d="M301.78 301.032L375.452 301.032L375.452 305.017L301.78 305.017z" stroke="none" fill="#000000" fill-rule="nonzero" /><path id="620" transform="matrix(1 0 0 -1 0 841)" d="M301.78 268.824L305.765 268.824L305.765 303.024L301.78 303.024z" stroke="none" fill="#000000" fill-rule="nonzero" /><path id="621" transform="matrix(1 0 0 -1 0 841)" d="M371.467 268.824L375.452 268.824L375.452 303.024L371.467 303.024z" stroke="none" fill="#000000" fill-rule="nonzero" /><path id="622" transform="matrix(1 0 0 -1 0 841)" d="M301.78 266.832L375.452 266.832L375.452 270.817L301.78 270.817z" stroke="none" fill="#000000" fill-rule="nonzero" /></g></g></svg>