<svg xmlns="http://www.w3.org/2000/svg" xmlns:xlink="http://www.w3.org/1999/xlink" id="body_283" preserveAspectRatio="xMinYMin meet" viewBox="0 0 793 1121"><defs><clipPath id="1"><path id="" clip-rule="evenodd" transform="matrix(1 0 0 1 0 0)" d="M0 841L0 -0.8900146L0 -0.8900146L595.276 -0.8900146L595.276 -0.8900146L595.276 841L595.276 841L0 841z" /></clipPath></defs><g transform="matrix(1.333333 0 0 1.333333 0 0)"><g clip-path="url(#1)"><path id="23" transform="matrix(1 0 0 -1 0 841)" d="M85.039 766.564L510.236 766.564" stroke="#000000" stroke-width="0.498" fill="none" /><path id="335" transform="matrix(1 0 0 -1 0 841)" d="M244.331 601.849L296.083 601.849" stroke="#000000" stroke-width="0.436" fill="none" /><path id="352" transform="matrix(1 0 0 -1 0 841)" d="M311.799 601.849L375.646 601.849" stroke="#000000" stroke-width="0.436" fill="none" /><path id="378" transform="matrix(1 0 0 -1 0 841)" d="M390.166 620.298L476.198 620.298L476.198 624.283L390.166 624.283z" stroke="none" fill="#000000" fill-rule="nonzero" /><path id="379" transform="matrix(1 0 0 -1 0 841)" d="M390.166 583.063L394.151 583.063L394.151 622.29L390.166 622.29z" stroke="none" fill="#000000" fill-rule="nonzero" /><path id="380" transform="matrix(1 0 0 -1 0 841)" d="M472.213 583.063L476.198 583.063L476.198 622.29L472.213 622.29z" stroke="none" fill="#000000" fill-rule="nonzero" /><path id="381" transform="matrix(1 0 0 -1 0 841)" d="M390.166 581.071L476.198 581.071L476.198 585.056L390.166 585.056z" stroke="none" fill="#000000" fill-rule="nonzero" /><path id="563" transform="matrix(1 0 0 -1 0 841)" d="M244.331 495.952L293.356 495.952" stroke="#000000" stroke-width="0.436" fill="none" /><path id="580" transform="matrix(1 0 0 -1 0 841)" d="M309.072 495.952L352.706 495.952" stroke="#000000" stroke-width="0.436" fill="none" /><path id="601" transform="matrix(1 0 0 -1 0 841)" d="M367.225 514.4L447.802 514.4L447.802 518.385L367.225 518.385z" stroke="none" fill="#000000" fill-rule="nonzero" /><path id="602" transform="matrix(1 0 0 -1 0 841)" d="M367.225 477.166L371.21 477.166L371.21 516.393L367.225 516.393z" stroke="none" fill="#000000" fill-rule="nonzero" /><path id="603" transform="matrix(1 0 0 -1 0 841)" d="M443.818 477.166L447.803 477.166L447.803 516.393L443.818 516.393z" stroke="none" fill="#000000" fill-rule="nonzero" /><path id="604" transform="matrix(1 0 0 -1 0 841)" d="M367.225 475.174L447.802 475.174L447.802 479.159L367.225 479.159z" stroke="none" fill="#000000" fill-rule="nonzero" /><path id="929" transform="matrix(1 0 0 -1 0 841)" d="M217.873 379.003L276.084 379.003" stroke="#000000" stroke-width="0.436" fill="none" /><path id="961" transform="matrix(1 0 0 -1 0 841)" d="M305.305 379.003L457.756 379.003" stroke="#000000" stroke-width="0.436" fill="none" /><path id="1176" transform="matrix(1 0 0 -1 0 841)" d="M241.873 290.632L300.084 290.632" stroke="#000000" stroke-width="0.436" fill="none" /><path id="1208" transform="matrix(1 0 0 -1 0 841)" d="M328.825 290.632L481.276 290.632" stroke="#000000" stroke-width="0.436" fill="none" /><path id="1243" transform="matrix(1 0 0 -1 0 841)" d="M138.703 258.859L175.488 258.859" stroke="#000000" stroke-width="0.436" fill="none" /><path id="1260" transform="matrix(1 0 0 -1 0 841)" d="M186.364 258.859L247.511 258.859" stroke="#000000" stroke-width="0.436" fill="none" /><path id="1267" transform="matrix(1 0 0 -1 0 841)" d="M258.387 258.859L296.569 258.859" stroke="#000000" stroke-width="0.436" fill="none" /><path id="1284" transform="matrix(1 0 0 -1 0 841)" d="M137.508 244.896L356.537 244.896" stroke="#000000" stroke-width="0.436" fill="none" /><path id="1304" transform="matrix(1 0 0 -1 0 841)" d="M371.057 261.629L450.456 261.629L450.456 265.614L371.057 265.614z" stroke="none" fill="#000000" fill-rule="nonzero" /><path id="1305" transform="matrix(1 0 0 -1 0 841)" d="M371.057 226.111L375.042 226.111L375.042 263.622L371.057 263.622z" stroke="none" fill="#000000" fill-rule="nonzero" /><path id="1306" transform="matrix(1 0 0 -1 0 841)" d="M446.472 226.111L450.457 226.111L450.457 263.622L446.472 263.622z" stroke="none" fill="#000000" fill-rule="nonzero" /><path id="1307" transform="matrix(1 0 0 -1 0 841)" d="M371.057 224.118L450.456 224.118L450.456 228.103L371.057 228.103z" stroke="none" fill="#000000" fill-rule="nonzero" /></g></g></svg>