<svg xmlns="http://www.w3.org/2000/svg" xmlns:xlink="http://www.w3.org/1999/xlink" id="body_187" preserveAspectRatio="xMinYMin meet" viewBox="0 0 793 1121"><defs><clipPath id="1"><path id="" clip-rule="evenodd" transform="matrix(1 0 0 1 0 0)" d="M0 841L0 -0.8900146L0 -0.8900146L595.276 -0.8900146L595.276 -0.8900146L595.276 841L595.276 841L0 841z" /></clipPath></defs><g transform="matrix(1.333333 0 0 1.333333 0 0)"><g clip-path="url(#1)"><path id="27" transform="matrix(1 0 0 -1 0 841)" d="M85.039 766.564L510.236 766.564" stroke="#000000" stroke-width="0.498" fill="none" /><g transform="matrix(0.25 0 0 0.25 196.763 84.14899)"><g transform="matrix(1 0 0 1 0 0)"><image x="0" y="0" xlink:href="img_264.png" width="807" height="624" /></g></g><g transform="matrix(0.1309091 0 0 0.1309091 133.149 309.4601)"><g transform="matrix(1 0 0 1 0 0)"><image x="0" y="0" xlink:href="img_265.png" width="2513" height="1123" /></g></g><g transform="matrix(0.8 0 0 0.8 185.238 574.413)"><g transform="matrix(1 0 0 1 0 0)"><image x="0" y="0" xlink:href="img_266.png" width="281" height="179" /></g></g></g></g></svg>