<svg xmlns="http://www.w3.org/2000/svg" xmlns:xlink="http://www.w3.org/1999/xlink" id="body_267" preserveAspectRatio="xMinYMin meet" viewBox="0 0 793 1121"><defs><clipPath id="1"><path id="" clip-rule="evenodd" transform="matrix(1 0 0 1 0 0)" d="M0 841L0 -0.8900146L0 -0.8900146L595.276 -0.8900146L595.276 -0.8900146L595.276 841L595.276 841L0 841z" /></clipPath></defs><g transform="matrix(1.333333 0 0 1.333333 0 0)"><g clip-path="url(#1)"><path id="21" transform="matrix(1 0 0 -1 0 841)" d="M85.039 766.564L510.236 766.564" stroke="#000000" stroke-width="0.498" fill="none" /><path id="411" transform="matrix(1 0 0 -1 0 841)" d="M306.423 609.327L340.903 609.327" stroke="#000000" stroke-width="0.436" fill="none" /><path id="818" transform="matrix(1 0 0 -1 0 841)" d="M196.108 358.247L242.757 358.247" stroke="#000000" stroke-width="0.436" fill="none" /><path id="877" transform="matrix(1 0 0 -1 0 841)" d="M286.421 331.804L299.752 331.804" stroke="#000000" stroke-width="0.436" fill="none" /><path id="909" transform="matrix(1 0 0 -1 0 841)" d="M289.716 311.079L303.047 311.079" stroke="#000000" stroke-width="0.436" fill="none" /><path id="940" transform="matrix(1 0 0 -1 0 841)" d="M285.482 290.354L298.813 290.354" stroke="#000000" stroke-width="0.436" fill="none" /><path id="973" transform="matrix(1 0 0 -1 0 841)" d="M297.33 269.629L310.661 269.629" stroke="#000000" stroke-width="0.436" fill="none" /><path id="1004" transform="matrix(1 0 0 -1 0 841)" d="M286.694 248.904L300.025 248.904" stroke="#000000" stroke-width="0.436" fill="none" /><path id="1039" transform="matrix(1 0 0 -1 0 841)" d="M305.807 228.179L319.138 228.179" stroke="#000000" stroke-width="0.436" fill="none" /></g></g></svg>