<svg xmlns="http://www.w3.org/2000/svg" xmlns:xlink="http://www.w3.org/1999/xlink" id="body_201" preserveAspectRatio="xMinYMin meet" viewBox="0 0 793 1121"><defs><clipPath id="1"><path id="" clip-rule="evenodd" transform="matrix(1 0 0 1 0 0)" d="M0 841L0 -0.8900146L0 -0.8900146L595.276 -0.8900146L595.276 -0.8900146L595.276 841L595.276 841L0 841z" /></clipPath></defs><g transform="matrix(1.333333 0 0 1.333333 0 0)"><g clip-path="url(#1)"><path id="27" transform="matrix(1 0 0 -1 0 841)" d="M85.039 766.564L510.236 766.564" stroke="#000000" stroke-width="0.498" fill="none" /><path id="28" transform="matrix(1 0 0 -1 0 841)" d="M85.039 102.945L85.039 752.6072C 85.039 754.9556 86.94264 756.8593 89.29099 756.8593L89.29099 756.8593L505.9893 756.8593C 508.3377 756.8593 510.2413 754.9556 510.2413 752.6072L510.2413 752.6072L510.2413 102.945z" stroke="none" fill="#BFBFFF" fill-rule="nonzero" /><path id="29" transform="matrix(1 0 0 -1 0 841)" d="M86.45631 102.945L86.45631 738.5971L508.824 738.5971L508.824 102.945z" stroke="none" fill="#E6E6FF" fill-rule="nonzero" /><path id="956" transform="matrix(1 0 0 -1 0 841)" d="M127.903 164.033L153.415 164.033" stroke="#000000" stroke-width="0.498" fill="none" /></g></g></svg>