<svg xmlns="http://www.w3.org/2000/svg" xmlns:xlink="http://www.w3.org/1999/xlink" id="body_296" preserveAspectRatio="xMinYMin meet" viewBox="0 0 793 1121"><defs><clipPath id="1"><path id="" clip-rule="evenodd" transform="matrix(1 0 0 1 0 0)" d="M0 841L0 -0.8900146L0 -0.8900146L595.276 -0.8900146L595.276 -0.8900146L595.276 841L595.276 841L0 841z" /></clipPath></defs><g transform="matrix(1.333333 0 0 1.333333 0 0)"><g clip-path="url(#1)"><path id="26" transform="matrix(1 0 0 -1 0 841)" d="M85.039 766.564L510.236 766.564" stroke="#000000" stroke-width="0.498" fill="none" /><path id="443" transform="matrix(1 0 0 -1 0 841)" d="M224.283 600.531L260.04 600.531" stroke="#000000" stroke-width="0.436" fill="none" /><path id="459" transform="matrix(1 0 0 -1 0 841)" d="M85.039 355.441L85.039 577.4336C 85.039 579.7819 86.94264 581.6855 89.29099 581.6855L89.29099 581.6855L505.9893 581.6855C 508.3377 581.6855 510.2413 579.7819 510.2413 577.4336L510.2413 577.4336L510.2413 355.441C 510.2413 353.0926 508.3377 351.189 505.9893 351.189L505.9893 351.189L89.29099 351.189C 86.94264 351.189 85.039 353.0926 85.039 355.441z" stroke="none" fill="#BFBFFF" fill-rule="nonzero" /><path id="460" transform="matrix(1 0 0 -1 0 841)" d="M86.45631 355.441L86.45631 565.6762L86.45631 565.6762L508.824 565.6762L508.824 565.6762L508.824 355.441C 508.824 353.8754 507.5549 352.6063 505.9893 352.6063L505.9893 352.6063L89.29099 352.6063C 87.72543 352.6063 86.45631 353.8754 86.45631 355.441z" stroke="none" fill="#E6E6FF" fill-rule="nonzero" /></g></g></svg>