<svg xmlns="http://www.w3.org/2000/svg" xmlns:xlink="http://www.w3.org/1999/xlink" id="body_5" preserveAspectRatio="xMinYMin meet" viewBox="0 0 793 1121"><defs><clipPath id="1"><path id="" clip-rule="evenodd" transform="matrix(1 0 0 1 0 0)" d="M0 841L0 -0.8900146L0 -0.8900146L595.276 -0.8900146L595.276 -0.8900146L595.276 841L595.276 841L0 841z" /></clipPath></defs><g transform="matrix(1.333333 0 0 1.333333 0 0)"><g clip-path="url(#1)"><path id="74" transform="matrix(1 0 0 -1 0 841)" d="M85.039 693.93L115.07 693.93L115.07 713.772L85.039 713.772z" stroke="none" fill="#FDE0D1" fill-rule="nonzero" /><path id="76" transform="matrix(1 0 0 -1 0 841)" d="M119.055 693.93L510.236 693.93L510.236 713.772L119.055 713.772z" stroke="none" fill="#FAC2A3" fill-rule="nonzero" /><path id="1541" transform="matrix(1 0 0 -1 0 841)" d="M85.039 217.382L115.07 217.382L115.07 237.224L85.039 237.224z" stroke="none" fill="#FDE0D1" fill-rule="nonzero" /><path id="1544" transform="matrix(1 0 0 -1 0 841)" d="M119.055 217.382L510.236 217.382L510.236 237.224L119.055 237.224z" stroke="none" fill="#FAC2A3" fill-rule="nonzero" /></g></g></svg>