<svg xmlns="http://www.w3.org/2000/svg" xmlns:xlink="http://www.w3.org/1999/xlink" id="body_263" preserveAspectRatio="xMinYMin meet" viewBox="0 0 793 1121"><defs><clipPath id="1"><path id="" clip-rule="evenodd" transform="matrix(1 0 0 1 0 0)" d="M0 841L0 -0.8900146L0 -0.8900146L595.276 -0.8900146L595.276 -0.8900146L595.276 841L595.276 841L0 841z" /></clipPath></defs><g transform="matrix(1.333333 0 0 1.333333 0 0)"><g clip-path="url(#1)"><path id="21" transform="matrix(1 0 0 -1 0 841)" d="M85.039 766.564L510.236 766.564" stroke="#000000" stroke-width="0.498" fill="none" /><g transform="matrix(0.5 0 0 0.5 173.388 103.154)"><g transform="matrix(1 0 0 1 0 0)"><image x="0" y="0" xlink:href="img_394.png" width="497" height="666" /></g></g><path id="204" transform="matrix(1 0 0 -1 0 841)" d="M165.926 244.6584L126.2411 264.5009L194.2765 284.7652L233.959 274.4229z" stroke="none" fill="#CCCCCC" fill-rule="nonzero" /><path id="214" transform="matrix(1 0 0 -1 0 841)" d="M126.2411 264.5009L126.2411 309.8559L194.2794 318.541L194.2765 284.7652z" stroke="none" fill="#BFBFBF" fill-rule="nonzero" /><path id="223" transform="matrix(1 0 0 -1 0 841)" d="M194.2794 318.541L194.2765 284.7652L233.959 274.4229L233.959 314.1082z" stroke="none" fill="#F2F2F2" fill-rule="nonzero" fill-opacity="0.2" /><path id="232" transform="matrix(1 0 0 -1 0 841)" d="M165.926 301.352L165.926 244.6584L126.2411 264.5009L126.2411 309.8559z" stroke="none" fill="#F2F2F2" fill-rule="nonzero" fill-opacity="0.4980392" /><path id="241" transform="matrix(1 0 0 -1 0 841)" d="M165.926 301.352L126.2411 309.8559L194.2794 318.541L233.959 314.1082z" stroke="none" fill="#CCCCCC" fill-rule="nonzero" fill-opacity="0.2" /><path id="253" transform="matrix(1 0 0 -1 0 841)" d="M194.2794 318.541L194.2765 284.7652" stroke="#000000" stroke-width="0.79701" stroke-dasharray="3.750053,3.750053" fill="none" /><path id="254" transform="matrix(1 0 0 -1 0 841)" d="M126.2411 264.5009L194.2765 284.7652" stroke="#000000" stroke-width="0.79701" stroke-dasharray="3.750053,3.750053" fill="none" /><path id="255" transform="matrix(1 0 0 -1 0 841)" d="M233.959 274.4229L194.2765 284.7652" stroke="#000000" stroke-width="0.79701" stroke-dasharray="3.750053,3.750053" fill="none" /><path id="264" transform="matrix(1 0 0 -1 0 841)" d="M165.926 301.352L165.926 244.6584" stroke="#000000" stroke-width="0.79701" fill="none" /><path id="265" transform="matrix(1 0 0 -1 0 841)" d="M114.9017 311.7254L114.9017 264.8996" stroke="#000000" stroke-width="0.3985" fill="none" /><path id="266" transform="matrix(1 0 0 -1 0 841)" d="M112.5106 309.8524C 113.9453 310.231 114.6227 311.0746 114.9017 311.9246C 115.1806 311.0746 115.8581 310.231 117.2927 309.8524" stroke="#000000" stroke-width="0.3985" stroke-linecap="round" fill="none" /><path id="267" transform="matrix(1 0 0 -1 0 841)" d="M117.2927 266.7726C 115.8581 266.394 115.1806 265.5503 114.9017 264.7003C 114.6227 265.5503 113.9453 266.394 112.5106 266.7726" stroke="#000000" stroke-width="0.3985" stroke-linecap="round" fill="none" /><path id="278" transform="matrix(1 0 0 -1 0 841)" d="M120.9218 261.4777L157.071 242.0124" stroke="#000000" stroke-width="0.3985" fill="none" /><path id="279" transform="matrix(1 0 0 -1 0 841)" d="M121.4373 258.4846C 121.7841 259.9272 121.3625 260.9236 120.7464 261.5721C 121.627 261.4148 122.6909 261.6112 123.7044 262.6949" stroke="#000000" stroke-width="0.3984783" stroke-linecap="round" fill="none" /><path id="280" transform="matrix(1 0 0 -1 0 841)" d="M156.5555 245.0055C 156.2087 243.5629 156.6303 242.5666 157.2464 241.918C 156.3658 242.0754 155.3019 241.8789 154.2885 240.7953" stroke="#000000" stroke-width="0.3984783" stroke-linecap="round" fill="none" /><path id="291" transform="matrix(1 0 0 -1 0 841)" d="M239.2639 269.1577L171.9592 239.1514" stroke="#000000" stroke-width="0.3985" fill="none" /><path id="292" transform="matrix(1 0 0 -1 0 841)" d="M236.5797 270.5788C 237.5096 269.4227 238.556 269.1475 239.4459 269.2388C 238.7832 268.638 238.2885 267.6757 238.5269 266.2113" stroke="#000000" stroke-width="0.3984862" stroke-linecap="round" fill="none" /><path id="293" transform="matrix(1 0 0 -1 0 841)" d="M174.6434 237.7303C 173.7135 238.8864 172.6671 239.1616 171.7772 239.0702C 172.4399 239.6711 172.9346 240.6333 172.6962 242.0978" stroke="#000000" stroke-width="0.3984862" stroke-linecap="round" fill="none" /><path id="303" transform="matrix(1 0 0 -1 0 841)" d="M126.2411 264.5009L126.2411 309.8559" stroke="#000000" stroke-width="0.79701" fill="none" /><path id="304" transform="matrix(1 0 0 -1 0 841)" d="M233.959 274.4229L233.959 314.1082" stroke="#000000" stroke-width="0.79701" fill="none" /><path id="305" transform="matrix(1 0 0 -1 0 841)" d="M165.926 301.352L126.2411 309.8559" stroke="#000000" stroke-width="0.79701" fill="none" /><path id="306" transform="matrix(1 0 0 -1 0 841)" d="M165.926 301.352L233.959 314.1082" stroke="#000000" stroke-width="0.79701" fill="none" /><path id="307" transform="matrix(1 0 0 -1 0 841)" d="M165.926 244.6584L126.2411 264.5009" stroke="#000000" stroke-width="0.79701" fill="none" /><path id="308" transform="matrix(1 0 0 -1 0 841)" d="M165.926 244.6584L233.959 274.4229" stroke="#000000" stroke-width="0.79701" fill="none" /><path id="309" transform="matrix(1 0 0 -1 0 841)" d="M126.2411 309.8559L194.2794 318.541" stroke="#000000" stroke-width="0.79701" fill="none" /><path id="310" transform="matrix(1 0 0 -1 0 841)" d="M233.959 314.1082L194.2794 318.541" stroke="#000000" stroke-width="0.79701" fill="none" /><path id="367" transform="matrix(1 0 0 -1 0 841)" d="M180.771 216.62L218.156 216.62" stroke="#000000" stroke-width="0.398" fill="none" /><path id="368" transform="matrix(1 0 0 -1 0 841)" d="M180.97 198.127L180.97 216.62" stroke="#000000" stroke-width="0.398" fill="none" /><path id="369" transform="matrix(1 0 0 -1 0 841)" d="M217.956 198.127L217.956 216.62" stroke="#000000" stroke-width="0.398" fill="none" /><path id="370" transform="matrix(1 0 0 -1 0 841)" d="M180.771 198.127L218.156 198.127" stroke="#000000" stroke-width="0.398" fill="none" /><path id="458" transform="matrix(1 0 0 -1 0 841)" d="M208.641 165.811L255.714 165.811" stroke="#000000" stroke-width="0.398" fill="none" /><path id="459" transform="matrix(1 0 0 -1 0 841)" d="M208.84 147.317L208.84 165.81" stroke="#000000" stroke-width="0.398" fill="none" /><path id="460" transform="matrix(1 0 0 -1 0 841)" d="M255.515 147.317L255.515 165.81" stroke="#000000" stroke-width="0.398" fill="none" /><path id="461" transform="matrix(1 0 0 -1 0 841)" d="M208.641 147.317L255.714 147.317" stroke="#000000" stroke-width="0.398" fill="none" /></g></g></svg>