<svg xmlns="http://www.w3.org/2000/svg" xmlns:xlink="http://www.w3.org/1999/xlink" id="body_346" preserveAspectRatio="xMinYMin meet" viewBox="0 0 793 1121"><defs><clipPath id="1"><path id="" clip-rule="evenodd" transform="matrix(1 0 0 1 0 0)" d="M0 841L0 -0.8900146L0 -0.8900146L595.276 -0.8900146L595.276 -0.8900146L595.276 841L595.276 841L0 841z" /></clipPath></defs><g transform="matrix(1.333333 0 0 1.333333 0 0)"><g clip-path="url(#1)"><path id="34" transform="matrix(1 0 0 -1 0 841)" d="M85.039 766.564L510.236 766.564" stroke="#000000" stroke-width="0.498" fill="none" /><path id="62" transform="matrix(1 0 0 -1 0 841)" d="M212.512 744.742L277.892 744.742" stroke="#000000" stroke-width="0.436" fill="none" /><path id="82" transform="matrix(1 0 0 -1 0 841)" d="M320.282 752.5L341.598 752.5" stroke="#000000" stroke-width="0.398" fill="none" /><path id="83" transform="matrix(1 0 0 -1 0 841)" d="M320.481 738.701L320.481 752.501" stroke="#000000" stroke-width="0.398" fill="none" /><path id="84" transform="matrix(1 0 0 -1 0 841)" d="M341.399 738.701L341.399 752.501" stroke="#000000" stroke-width="0.398" fill="none" /><path id="85" transform="matrix(1 0 0 -1 0 841)" d="M320.282 738.701L341.598 738.701" stroke="#000000" stroke-width="0.398" fill="none" /><path id="278" transform="matrix(1 0 0 -1 0 841)" d="M304.64 654.591L455.65 654.591" stroke="#000000" stroke-width="0.436" fill="none" /><path id="428" transform="matrix(1 0 0 -1 0 841)" d="M265.633 585.721L316.536 585.721" stroke="#000000" stroke-width="0.436" fill="none" /><path id="444" transform="matrix(1 0 0 -1 0 841)" d="M339.062 585.721L358.458 585.721" stroke="#000000" stroke-width="0.436" fill="none" /><path id="447" transform="matrix(1 0 0 -1 0 841)" d="M255.809 567.831L359.654 567.831" stroke="#000000" stroke-width="0.436" fill="none" /><path id="468" transform="matrix(1 0 0 -1 0 841)" d="M374.174 576.413L422.163 576.413" stroke="#000000" stroke-width="0.398" fill="none" /><path id="469" transform="matrix(1 0 0 -1 0 841)" d="M374.374 559.188L374.374 576.413" stroke="#000000" stroke-width="0.398" fill="none" /><path id="470" transform="matrix(1 0 0 -1 0 841)" d="M421.964 559.188L421.964 576.413" stroke="#000000" stroke-width="0.398" fill="none" /><path id="471" transform="matrix(1 0 0 -1 0 841)" d="M374.174 559.188L422.163 559.188" stroke="#000000" stroke-width="0.398" fill="none" /><path id="607" transform="matrix(1 0 0 -1 0 841)" d="M239.818 475.982L273.45 475.982" stroke="#000000" stroke-width="0.436" fill="none" /><path id="619" transform="matrix(1 0 0 -1 0 841)" d="M284.325 475.982L323.663 475.982" stroke="#000000" stroke-width="0.436" fill="none" /><path id="629" transform="matrix(1 0 0 -1 0 841)" d="M334.539 475.982L364.833 475.982" stroke="#000000" stroke-width="0.436" fill="none" /><path id="633" transform="matrix(1 0 0 -1 0 841)" d="M238.622 461.964L366.028 461.964" stroke="#000000" stroke-width="0.436" fill="none" /><path id="651" transform="matrix(1 0 0 -1 0 841)" d="M385.132 461.964L424.121 461.964" stroke="#000000" stroke-width="0.436" fill="none" /><path id="654" transform="matrix(1 0 0 -1 0 841)" d="M380.549 477.261L428.703 477.261" stroke="#000000" stroke-width="0.398" fill="none" /><path id="655" transform="matrix(1 0 0 -1 0 841)" d="M380.748 446.285L380.748 477.261" stroke="#000000" stroke-width="0.398" fill="none" /><path id="656" transform="matrix(1 0 0 -1 0 841)" d="M428.504 446.285L428.504 477.261" stroke="#000000" stroke-width="0.398" fill="none" /><path id="657" transform="matrix(1 0 0 -1 0 841)" d="M380.549 446.285L428.703 446.285" stroke="#000000" stroke-width="0.398" fill="none" /></g></g></svg>