<svg xmlns="http://www.w3.org/2000/svg" xmlns:xlink="http://www.w3.org/1999/xlink" id="body_9" preserveAspectRatio="xMinYMin meet" viewBox="0 0 793 1121"><defs><clipPath id="1"><path id="" clip-rule="evenodd" transform="matrix(1 0 0 1 0 0)" d="M0 841L0 -0.8900146L0 -0.8900146L595.276 -0.8900146L595.276 -0.8900146L595.276 841L595.276 841L0 841z" /></clipPath></defs><g transform="matrix(1.333333 0 0 1.333333 0 0)"><g clip-path="url(#1)"><path id="537" transform="matrix(1 0 0 -1 0 841)" d="M85.039 477.227L115.07 477.227L115.07 497.069L85.039 497.069z" stroke="none" fill="#FDE0D1" fill-rule="nonzero" /><path id="540" transform="matrix(1 0 0 -1 0 841)" d="M119.055 477.227L510.236 477.227L510.236 497.069L119.055 497.069z" stroke="none" fill="#FAC2A3" fill-rule="nonzero" /><path id="892" transform="matrix(1 0 0 -1 0 841)" d="M85.039 231.799L115.07 231.799L115.07 251.641L85.039 251.641z" stroke="none" fill="#FDE0D1" fill-rule="nonzero" /><path id="896" transform="matrix(1 0 0 -1 0 841)" d="M119.055 231.799L510.236 231.799L510.236 251.641L119.055 251.641z" stroke="none" fill="#FAC2A3" fill-rule="nonzero" /></g></g></svg>