<svg xmlns="http://www.w3.org/2000/svg" xmlns:xlink="http://www.w3.org/1999/xlink" id="body_264" preserveAspectRatio="xMinYMin meet" viewBox="0 0 793 1121"><defs><clipPath id="1"><path id="" clip-rule="evenodd" transform="matrix(1 0 0 1 0 0)" d="M0 841L0 -0.8900146L0 -0.8900146L595.276 -0.8900146L595.276 -0.8900146L595.276 841L595.276 841L0 841z" /></clipPath></defs><g transform="matrix(1.333333 0 0 1.333333 0 0)"><g clip-path="url(#1)"><path id="23" transform="matrix(1 0 0 -1 0 841)" d="M85.039 766.564L510.236 766.564" stroke="#000000" stroke-width="0.498" fill="none" /><path id="33" transform="matrix(1 0 0 -1 0 841)" d="M118.1808 727.579C 118.1808 732.2758 116.9116 736.0831 115.346 736.0831C 113.7804 736.0831 112.5112 732.2758 112.5112 727.579C 112.5112 722.8822 113.7804 719.0748 115.346 719.0748C 116.9116 719.0748 118.1808 722.8822 118.1808 727.579z" stroke="#000000" stroke-width="0.3985" fill="none" /><path id="34" transform="matrix(1 0 0 -1 0 841)" d="M401.649 727.579C 401.649 732.2758 400.3798 736.0831 398.8141 736.0831C 397.2484 736.0831 395.9792 732.2758 395.9792 727.579C 395.9792 722.8822 397.2484 719.0748 398.8141 719.0748C 400.3798 719.0748 401.649 722.8822 401.649 727.579z" stroke="#000000" stroke-width="0.3985" fill="none" /><path id="35" transform="matrix(1 0 0 -1 0 841)" d="M115.346 719.3586L398.8141 719.3586" stroke="#000000" stroke-width="0.3985" fill="none" /><path id="36" transform="matrix(1 0 0 -1 0 841)" d="M115.346 735.7994L398.8141 735.7994" stroke="#000000" stroke-width="0.3985" fill="none" /><path id="37" transform="matrix(1 0 0 -1 0 841)" d="M398.8141 720.0405L398.8141 735.1175" stroke="#000000" stroke-width="0.3985" fill="none" /><path id="38" transform="matrix(1 0 0 -1 0 841)" d="M401.2051 721.9134C 399.7705 721.5348 399.093 720.6911 398.8141 719.8411C 398.5351 720.6911 397.8577 721.5348 396.423 721.9134" stroke="#000000" stroke-width="0.3985" stroke-linecap="round" fill="none" /><path id="39" transform="matrix(1 0 0 -1 0 841)" d="M396.423 733.2445C 397.8577 733.6231 398.5351 734.4668 398.8141 735.3168C 399.093 734.4668 399.7705 733.6231 401.2051 733.2445" stroke="#000000" stroke-width="0.3985" stroke-linecap="round" fill="none" /><path id="51" transform="matrix(1 0 0 -1 0 841)" d="M115.7445 708.3033L398.4156 708.3033" stroke="#000000" stroke-width="0.3985" fill="none" /><path id="52" transform="matrix(1 0 0 -1 0 841)" d="M117.6175 705.9123C 117.2389 707.347 116.3952 708.0244 115.5452 708.3033C 116.3952 708.5823 117.2389 709.2597 117.6175 710.6944" stroke="#000000" stroke-width="0.3985" stroke-linecap="round" fill="none" /><path id="53" transform="matrix(1 0 0 -1 0 841)" d="M396.5426 710.6944C 396.9211 709.2597 397.7648 708.5823 398.6148 708.3033C 397.7648 708.0244 396.9211 707.347 396.5426 705.9123" stroke="#000000" stroke-width="0.3985" stroke-linecap="round" fill="none" /><path id="73" transform="matrix(1 0 0 -1 0 841)" d="M113.508 668.361L120.381 668.361" stroke="#000000" stroke-width="0.436" fill="none" /><path id="88" transform="matrix(1 0 0 -1 0 841)" d="M202.876 668.361L213.785 668.361" stroke="#000000" stroke-width="0.436" fill="none" /><path id="114" transform="matrix(1 0 0 -1 0 841)" d="M294.136 668.361L327.375 668.361" stroke="#000000" stroke-width="0.436" fill="none" /><path id="131" transform="matrix(1 0 0 -1 0 841)" d="M341.896 676.333L403.728 676.333" stroke="#000000" stroke-width="0.398" fill="none" /><path id="132" transform="matrix(1 0 0 -1 0 841)" d="M342.095 660.221L342.095 676.333" stroke="#000000" stroke-width="0.398" fill="none" /><path id="133" transform="matrix(1 0 0 -1 0 841)" d="M403.529 660.221L403.529 676.333" stroke="#000000" stroke-width="0.398" fill="none" /><path id="134" transform="matrix(1 0 0 -1 0 841)" d="M341.896 660.221L403.728 660.221" stroke="#000000" stroke-width="0.398" fill="none" /><path id="413" transform="matrix(1 0 0 -1 0 841)" d="M180.283 473.799L208.581 473.799" stroke="#000000" stroke-width="0.436" fill="none" /><path id="447" transform="matrix(1 0 0 -1 0 841)" d="M322.143 485.657L432.443 485.657" stroke="#000000" stroke-width="0.436" fill="none" /><path id="453" transform="matrix(1 0 0 -1 0 841)" d="M224.296 473.799L484.122 473.799" stroke="#000000" stroke-width="0.436" fill="none" /><g transform="matrix(0.375 0 0 0.375 112.312 425.772)"><g transform="matrix(1 0 0 1 0 0)"><image x="0" y="0" xlink:href="img_396.png" width="474" height="243" /></g></g><g transform="matrix(0.4875 0 0 0.4875 112.312 551.217)"><g transform="matrix(1 0 0 1 0 0)"><image x="0" y="0" xlink:href="img_397.png" width="364" height="100" /></g></g><path id="721" transform="matrix(1 0 0 -1 0 841)" d="M229.005 136.177L242.936 136.177" stroke="#000000" stroke-width="0.436" fill="none" /><path id="728" transform="matrix(1 0 0 -1 0 841)" d="M245.327 136.177L259.258 136.177" stroke="#000000" stroke-width="0.436" fill="none" /><path id="738" transform="matrix(1 0 0 -1 0 841)" d="M270.133 136.177L301.714 136.177" stroke="#000000" stroke-width="0.436" fill="none" /><path id="754" transform="matrix(1 0 0 -1 0 841)" d="M350.115 136.177L374.955 136.177" stroke="#000000" stroke-width="0.436" fill="none" /><path id="767" transform="matrix(1 0 0 -1 0 841)" d="M389.474 143.935L428.976 143.935" stroke="#000000" stroke-width="0.398" fill="none" /><path id="768" transform="matrix(1 0 0 -1 0 841)" d="M389.674 130.021L389.674 143.935" stroke="#000000" stroke-width="0.398" fill="none" /><path id="769" transform="matrix(1 0 0 -1 0 841)" d="M428.777 130.021L428.777 143.935" stroke="#000000" stroke-width="0.398" fill="none" /><path id="770" transform="matrix(1 0 0 -1 0 841)" d="M389.474 130.021L428.976 130.021" stroke="#000000" stroke-width="0.398" fill="none" /><path id="855" transform="matrix(1 0 0 -1 0 841)" d="M243.564 89.891L257.81 89.891" stroke="#000000" stroke-width="0.436" fill="none" /><path id="864" transform="matrix(1 0 0 -1 0 841)" d="M285.316 89.891L299.247 89.891" stroke="#000000" stroke-width="0.436" fill="none" /><path id="870" transform="matrix(1 0 0 -1 0 841)" d="M311.015 89.891L317.888 89.891" stroke="#000000" stroke-width="0.436" fill="none" /><path id="883" transform="matrix(1 0 0 -1 0 841)" d="M371.379 89.891L406.167 89.891" stroke="#000000" stroke-width="0.436" fill="none" /><path id="901" transform="matrix(1 0 0 -1 0 841)" d="M423.223 89.891L481.396 89.891" stroke="#000000" stroke-width="0.436" fill="none" /></g></g></svg>