<svg xmlns="http://www.w3.org/2000/svg" xmlns:xlink="http://www.w3.org/1999/xlink" id="body_286" preserveAspectRatio="xMinYMin meet" viewBox="0 0 793 1121"><defs><clipPath id="1"><path id="" clip-rule="evenodd" transform="matrix(1 0 0 1 0 0)" d="M0 841L0 -0.8900146L0 -0.8900146L595.276 -0.8900146L595.276 -0.8900146L595.276 841L595.276 841L0 841z" /></clipPath></defs><g transform="matrix(1.333333 0 0 1.333333 0 0)"><g clip-path="url(#1)"><path id="23" transform="matrix(1 0 0 -1 0 841)" d="M85.039 766.564L510.236 766.564" stroke="#000000" stroke-width="0.498" fill="none" /><path id="776" transform="matrix(1 0 0 -1 0 841)" d="M307.595 439.204L466.374 439.204" stroke="#000000" stroke-width="0.436" fill="none" /><path id="1196" transform="matrix(1 0 0 -1 0 841)" d="M233.247 281.802L324.501 281.802" stroke="#000000" stroke-width="0.436" fill="none" /><path id="1220" transform="matrix(1 0 0 -1 0 841)" d="M340.216 281.802L393.541 281.802" stroke="#000000" stroke-width="0.436" fill="none" /><path id="1237" transform="matrix(1 0 0 -1 0 841)" d="M408.061 289.714L437.854 289.714" stroke="#000000" stroke-width="0.398" fill="none" /><path id="1238" transform="matrix(1 0 0 -1 0 841)" d="M408.26 275.887L408.26 289.714" stroke="#000000" stroke-width="0.398" fill="none" /><path id="1239" transform="matrix(1 0 0 -1 0 841)" d="M437.655 275.887L437.655 289.714" stroke="#000000" stroke-width="0.398" fill="none" /><path id="1240" transform="matrix(1 0 0 -1 0 841)" d="M408.061 275.887L437.854 275.887" stroke="#000000" stroke-width="0.398" fill="none" /><path id="1415" transform="matrix(1 0 0 -1 0 841)" d="M232.037 200.156L323.291 200.156" stroke="#000000" stroke-width="0.436" fill="none" /><path id="1468" transform="matrix(1 0 0 -1 0 841)" d="M337.795 200.156L541.458 200.156" stroke="#000000" stroke-width="0.436" fill="none" /><path id="1515" transform="matrix(1 0 0 -1 0 841)" d="M306.181 168.384L340.064 168.384" stroke="#000000" stroke-width="0.436" fill="none" /><path id="1519" transform="matrix(1 0 0 -1 0 841)" d="M217.514 154.366L341.26 154.366" stroke="#000000" stroke-width="0.436" fill="none" /><path id="1532" transform="matrix(1 0 0 -1 0 841)" d="M225.424 140.67L286.571 140.67" stroke="#000000" stroke-width="0.436" fill="none" /><path id="1540" transform="matrix(1 0 0 -1 0 841)" d="M297.448 140.67L333.35 140.67" stroke="#000000" stroke-width="0.436" fill="none" /><path id="1555" transform="matrix(1 0 0 -1 0 841)" d="M355.78 162.338L396.023 162.338" stroke="#000000" stroke-width="0.398" fill="none" /><path id="1556" transform="matrix(1 0 0 -1 0 841)" d="M355.979 148.282L355.979 162.338" stroke="#000000" stroke-width="0.398" fill="none" /><path id="1557" transform="matrix(1 0 0 -1 0 841)" d="M395.824 148.282L395.824 162.338" stroke="#000000" stroke-width="0.398" fill="none" /><path id="1558" transform="matrix(1 0 0 -1 0 841)" d="M355.78 148.282L396.023 148.282" stroke="#000000" stroke-width="0.398" fill="none" /></g></g></svg>