<svg xmlns="http://www.w3.org/2000/svg" xmlns:xlink="http://www.w3.org/1999/xlink" id="body_271" preserveAspectRatio="xMinYMin meet" viewBox="0 0 793 1121"><defs><clipPath id="1"><path id="" clip-rule="evenodd" transform="matrix(1 0 0 1 0 0)" d="M0 841L0 -0.8900146L0 -0.8900146L595.276 -0.8900146L595.276 -0.8900146L595.276 841L595.276 841L0 841z" /></clipPath></defs><g transform="matrix(1.333333 0 0 1.333333 0 0)"><g clip-path="url(#1)"><path id="23" transform="matrix(1 0 0 -1 0 841)" d="M85.039 766.564L510.236 766.564" stroke="#000000" stroke-width="0.498" fill="none" /><path id="24" transform="matrix(1 0 0 -1 0 841)" d="M115.006 756.651L480.269 756.651" stroke="#000000" stroke-width="0.398" fill="none" /><path id="25" transform="matrix(1 0 0 -1 0 841)" d="M115.205 742.903L115.205 756.452" stroke="#000000" stroke-width="0.398" fill="none" /><path id="33" transform="matrix(1 0 0 -1 0 841)" d="M240.945 742.903L240.945 756.452" stroke="#000000" stroke-width="0.398" fill="none" /><path id="39" transform="matrix(1 0 0 -1 0 841)" d="M480.07 742.903L480.07 756.452" stroke="#000000" stroke-width="0.398" fill="none" /><path id="40" transform="matrix(1 0 0 -1 0 841)" d="M115.006 742.703L480.269 742.703" stroke="#000000" stroke-width="0.398" fill="none" /><path id="41" transform="matrix(1 0 0 -1 0 841)" d="M115.205 728.955L115.205 742.504" stroke="#000000" stroke-width="0.398" fill="none" /><path id="48" transform="matrix(1 0 0 -1 0 841)" d="M240.945 728.955L240.945 742.504" stroke="#000000" stroke-width="0.398" fill="none" /><path id="64" transform="matrix(1 0 0 -1 0 841)" d="M480.07 728.955L480.07 742.504" stroke="#000000" stroke-width="0.398" fill="none" /><path id="65" transform="matrix(1 0 0 -1 0 841)" d="M115.006 728.756L480.269 728.756" stroke="#000000" stroke-width="0.398" fill="none" /><path id="66" transform="matrix(1 0 0 -1 0 841)" d="M115.205 715.007L115.205 728.556" stroke="#000000" stroke-width="0.398" fill="none" /><path id="71" transform="matrix(1 0 0 -1 0 841)" d="M240.945 715.007L240.945 728.556" stroke="#000000" stroke-width="0.398" fill="none" /><path id="81" transform="matrix(1 0 0 -1 0 841)" d="M480.07 715.007L480.07 728.556" stroke="#000000" stroke-width="0.398" fill="none" /><path id="82" transform="matrix(1 0 0 -1 0 841)" d="M115.006 714.808L480.269 714.808" stroke="#000000" stroke-width="0.398" fill="none" /><path id="83" transform="matrix(1 0 0 -1 0 841)" d="M115.205 701.06L115.205 714.609" stroke="#000000" stroke-width="0.398" fill="none" /><path id="90" transform="matrix(1 0 0 -1 0 841)" d="M240.945 701.06L240.945 714.609" stroke="#000000" stroke-width="0.398" fill="none" /><path id="112" transform="matrix(1 0 0 -1 0 841)" d="M480.07 701.06L480.07 714.609" stroke="#000000" stroke-width="0.398" fill="none" /><path id="113" transform="matrix(1 0 0 -1 0 841)" d="M115.006 700.86L480.269 700.86" stroke="#000000" stroke-width="0.398" fill="none" /><path id="114" transform="matrix(1 0 0 -1 0 841)" d="M115.205 687.112L115.205 700.661" stroke="#000000" stroke-width="0.398" fill="none" /><path id="122" transform="matrix(1 0 0 -1 0 841)" d="M240.945 687.112L240.945 700.661" stroke="#000000" stroke-width="0.398" fill="none" /><path id="157" transform="matrix(1 0 0 -1 0 841)" d="M480.07 687.112L480.07 700.661" stroke="#000000" stroke-width="0.398" fill="none" /><path id="158" transform="matrix(1 0 0 -1 0 841)" d="M115.006 686.913L480.269 686.913" stroke="#000000" stroke-width="0.398" fill="none" /><path id="159" transform="matrix(1 0 0 -1 0 841)" d="M115.205 673.164L115.205 686.713" stroke="#000000" stroke-width="0.398" fill="none" /><path id="164" transform="matrix(1 0 0 -1 0 841)" d="M240.945 673.164L240.945 686.713" stroke="#000000" stroke-width="0.398" fill="none" /><path id="189" transform="matrix(1 0 0 -1 0 841)" d="M480.07 673.164L480.07 686.713" stroke="#000000" stroke-width="0.398" fill="none" /><path id="190" transform="matrix(1 0 0 -1 0 841)" d="M115.006 672.965L480.269 672.965" stroke="#000000" stroke-width="0.398" fill="none" /><path id="231" transform="matrix(1 0 0 -1 0 841)" d="M112.312 616.153L444.595 616.153" stroke="#000000" stroke-width="0.398" fill="none" /><path id="232" transform="matrix(1 0 0 -1 0 841)" d="M112.511 599.017L112.511 615.953" stroke="#000000" stroke-width="0.398" fill="none" /><path id="254" transform="matrix(1 0 0 -1 0 841)" d="M329.641 599.017L329.641 615.953" stroke="#000000" stroke-width="0.398" fill="none" /><path id="261" transform="matrix(1 0 0 -1 0 841)" d="M444.396 599.017L444.396 615.953" stroke="#000000" stroke-width="0.398" fill="none" /><path id="262" transform="matrix(1 0 0 -1 0 841)" d="M112.312 598.818L444.595 598.818" stroke="#000000" stroke-width="0.398" fill="none" /><path id="263" transform="matrix(1 0 0 -1 0 841)" d="M112.511 581.682L112.511 598.618" stroke="#000000" stroke-width="0.398" fill="none" /><path id="282" transform="matrix(1 0 0 -1 0 841)" d="M329.641 581.682L329.641 598.618" stroke="#000000" stroke-width="0.398" fill="none" /><path id="302" transform="matrix(1 0 0 -1 0 841)" d="M444.396 581.682L444.396 598.618" stroke="#000000" stroke-width="0.398" fill="none" /><path id="303" transform="matrix(1 0 0 -1 0 841)" d="M112.312 581.483L444.595 581.483" stroke="#000000" stroke-width="0.398" fill="none" /><path id="304" transform="matrix(1 0 0 -1 0 841)" d="M112.511 564.347L112.511 581.283" stroke="#000000" stroke-width="0.398" fill="none" /><path id="317" transform="matrix(1 0 0 -1 0 841)" d="M329.641 564.347L329.641 581.283" stroke="#000000" stroke-width="0.398" fill="none" /><path id="330" transform="matrix(1 0 0 -1 0 841)" d="M444.396 564.347L444.396 581.283" stroke="#000000" stroke-width="0.398" fill="none" /><path id="331" transform="matrix(1 0 0 -1 0 841)" d="M112.511 547.411L112.511 564.347" stroke="#000000" stroke-width="0.398" fill="none" /><path id="344" transform="matrix(1 0 0 -1 0 841)" d="M329.641 547.411L329.641 564.347" stroke="#000000" stroke-width="0.398" fill="none" /><path id="359" transform="matrix(1 0 0 -1 0 841)" d="M444.396 547.411L444.396 564.347" stroke="#000000" stroke-width="0.398" fill="none" /><path id="360" transform="matrix(1 0 0 -1 0 841)" d="M112.511 530.474L112.511 547.41" stroke="#000000" stroke-width="0.398" fill="none" /><path id="395" transform="matrix(1 0 0 -1 0 841)" d="M329.641 530.474L329.641 547.41" stroke="#000000" stroke-width="0.398" fill="none" /><path id="412" transform="matrix(1 0 0 -1 0 841)" d="M444.396 530.474L444.396 547.41" stroke="#000000" stroke-width="0.398" fill="none" /><path id="413" transform="matrix(1 0 0 -1 0 841)" d="M112.511 513.538L112.511 530.474" stroke="#000000" stroke-width="0.398" fill="none" /><path id="428" transform="matrix(1 0 0 -1 0 841)" d="M329.641 513.538L329.641 530.474" stroke="#000000" stroke-width="0.398" fill="none" /><path id="442" transform="matrix(1 0 0 -1 0 841)" d="M444.396 513.538L444.396 530.474" stroke="#000000" stroke-width="0.398" fill="none" /><path id="443" transform="matrix(1 0 0 -1 0 841)" d="M112.511 496.601L112.511 513.537" stroke="#000000" stroke-width="0.398" fill="none" /><path id="455" transform="matrix(1 0 0 -1 0 841)" d="M329.641 496.601L329.641 513.537" stroke="#000000" stroke-width="0.398" fill="none" /><path id="472" transform="matrix(1 0 0 -1 0 841)" d="M444.396 496.601L444.396 513.537" stroke="#000000" stroke-width="0.398" fill="none" /><path id="473" transform="matrix(1 0 0 -1 0 841)" d="M112.511 479.665L112.511 496.601" stroke="#000000" stroke-width="0.398" fill="none" /><path id="474" transform="matrix(1 0 0 -1 0 841)" d="M329.641 479.665L329.641 496.601" stroke="#000000" stroke-width="0.398" fill="none" /><path id="487" transform="matrix(1 0 0 -1 0 841)" d="M444.396 479.665L444.396 496.601" stroke="#000000" stroke-width="0.398" fill="none" /><path id="488" transform="matrix(1 0 0 -1 0 841)" d="M112.312 479.466L444.595 479.466" stroke="#000000" stroke-width="0.398" fill="none" /><path id="489" transform="matrix(1 0 0 -1 0 841)" d="M112.511 462.33L112.511 479.266" stroke="#000000" stroke-width="0.398" fill="none" /><path id="496" transform="matrix(1 0 0 -1 0 841)" d="M329.641 462.33L329.641 479.266" stroke="#000000" stroke-width="0.398" fill="none" /><path id="505" transform="matrix(1 0 0 -1 0 841)" d="M444.396 462.33L444.396 479.266" stroke="#000000" stroke-width="0.398" fill="none" /><path id="506" transform="matrix(1 0 0 -1 0 841)" d="M112.312 462.131L444.595 462.131" stroke="#000000" stroke-width="0.398" fill="none" /><path id="507" transform="matrix(1 0 0 -1 0 841)" d="M112.511 444.995L112.511 461.931" stroke="#000000" stroke-width="0.398" fill="none" /><path id="523" transform="matrix(1 0 0 -1 0 841)" d="M329.641 444.995L329.641 461.931" stroke="#000000" stroke-width="0.398" fill="none" /><path id="542" transform="matrix(1 0 0 -1 0 841)" d="M444.396 444.995L444.396 461.931" stroke="#000000" stroke-width="0.398" fill="none" /><path id="543" transform="matrix(1 0 0 -1 0 841)" d="M112.511 428.059L112.511 444.995" stroke="#000000" stroke-width="0.398" fill="none" /><path id="555" transform="matrix(1 0 0 -1 0 841)" d="M329.641 428.059L329.641 444.995" stroke="#000000" stroke-width="0.398" fill="none" /><path id="573" transform="matrix(1 0 0 -1 0 841)" d="M444.396 428.059L444.396 444.995" stroke="#000000" stroke-width="0.398" fill="none" /><path id="574" transform="matrix(1 0 0 -1 0 841)" d="M112.511 411.122L112.511 428.058" stroke="#000000" stroke-width="0.398" fill="none" /><path id="584" transform="matrix(1 0 0 -1 0 841)" d="M329.641 411.122L329.641 428.058" stroke="#000000" stroke-width="0.398" fill="none" /><path id="585" transform="matrix(1 0 0 -1 0 841)" d="M444.396 411.122L444.396 428.058" stroke="#000000" stroke-width="0.398" fill="none" /><path id="586" transform="matrix(1 0 0 -1 0 841)" d="M112.511 394.186L112.511 411.122" stroke="#000000" stroke-width="0.398" fill="none" /><path id="598" transform="matrix(1 0 0 -1 0 841)" d="M329.641 394.186L329.641 411.122" stroke="#000000" stroke-width="0.398" fill="none" /><path id="599" transform="matrix(1 0 0 -1 0 841)" d="M444.396 394.186L444.396 411.122" stroke="#000000" stroke-width="0.398" fill="none" /><path id="600" transform="matrix(1 0 0 -1 0 841)" d="M112.312 393.986L444.595 393.986" stroke="#000000" stroke-width="0.398" fill="none" /><path id="601" transform="matrix(1 0 0 -1 0 841)" d="M112.511 376.851L112.511 393.787" stroke="#000000" stroke-width="0.398" fill="none" /><path id="606" transform="matrix(1 0 0 -1 0 841)" d="M329.641 376.851L329.641 393.787" stroke="#000000" stroke-width="0.398" fill="none" /><path id="607" transform="matrix(1 0 0 -1 0 841)" d="M444.396 376.851L444.396 393.787" stroke="#000000" stroke-width="0.398" fill="none" /><path id="608" transform="matrix(1 0 0 -1 0 841)" d="M112.312 376.651L444.595 376.651" stroke="#000000" stroke-width="0.398" fill="none" /><path id="609" transform="matrix(1 0 0 -1 0 841)" d="M112.511 359.516L112.511 376.452" stroke="#000000" stroke-width="0.398" fill="none" /><path id="621" transform="matrix(1 0 0 -1 0 841)" d="M329.641 359.516L329.641 376.452" stroke="#000000" stroke-width="0.398" fill="none" /><path id="622" transform="matrix(1 0 0 -1 0 841)" d="M444.396 359.516L444.396 376.452" stroke="#000000" stroke-width="0.398" fill="none" /><path id="623" transform="matrix(1 0 0 -1 0 841)" d="M112.511 342.579L112.511 359.515" stroke="#000000" stroke-width="0.398" fill="none" /><path id="636" transform="matrix(1 0 0 -1 0 841)" d="M329.641 342.579L329.641 359.515" stroke="#000000" stroke-width="0.398" fill="none" /><path id="637" transform="matrix(1 0 0 -1 0 841)" d="M444.396 342.579L444.396 359.515" stroke="#000000" stroke-width="0.398" fill="none" /><path id="638" transform="matrix(1 0 0 -1 0 841)" d="M112.312 342.38L444.595 342.38" stroke="#000000" stroke-width="0.398" fill="none" /><path id="1304" transform="matrix(1 0 0 -1 0 841)" d="M490.51 91.996L563.109 91.996" stroke="#000000" stroke-width="0.436" fill="none" /></g></g></svg>