<svg xmlns="http://www.w3.org/2000/svg" xmlns:xlink="http://www.w3.org/1999/xlink" id="body_353" preserveAspectRatio="xMinYMin meet" viewBox="0 0 793 1121"><defs><clipPath id="1"><path id="" clip-rule="evenodd" transform="matrix(1 0 0 1 0 0)" d="M0 841L0 -0.8900146L0 -0.8900146L595.276 -0.8900146L595.276 -0.8900146L595.276 841L595.276 841L0 841z" /></clipPath></defs><g transform="matrix(1.333333 0 0 1.333333 0 0)"><g clip-path="url(#1)"><path id="22" transform="matrix(1 0 0 -1 0 841)" d="M85.039 766.564L510.236 766.564" stroke="#000000" stroke-width="0.498" fill="none" /><path id="307" transform="matrix(1 0 0 -1 0 841)" d="M207.842 602.311L310.244 602.311" stroke="#000000" stroke-width="0.436" fill="none" /><path id="361" transform="matrix(1 0 0 -1 0 841)" d="M254.074 567.033L335.084 567.033" stroke="#000000" stroke-width="0.436" fill="none" /><path id="414" transform="matrix(1 0 0 -1 0 841)" d="M287.779 531.11L354.381 531.11" stroke="#000000" stroke-width="0.436" fill="none" /><path id="423" transform="matrix(1 0 0 -1 0 841)" d="M364.649 531.11L410.653 531.11" stroke="#000000" stroke-width="0.436" fill="none" /><path id="439" transform="matrix(1 0 0 -1 0 841)" d="M437.285 531.11L453.648 531.11" stroke="#000000" stroke-width="0.436" fill="none" /><path id="452" transform="matrix(1 0 0 -1 0 841)" d="M467.56 539.082L510.236 539.082" stroke="#000000" stroke-width="0.398" fill="none" /><path id="453" transform="matrix(1 0 0 -1 0 841)" d="M467.759 525.026L467.759 539.082" stroke="#000000" stroke-width="0.398" fill="none" /><path id="454" transform="matrix(1 0 0 -1 0 841)" d="M510.037 525.026L510.037 539.082" stroke="#000000" stroke-width="0.398" fill="none" /><path id="455" transform="matrix(1 0 0 -1 0 841)" d="M467.56 525.026L510.236 525.026" stroke="#000000" stroke-width="0.398" fill="none" /><path id="689" transform="matrix(1 0 0 -1 0 841)" d="M313.407 416.231L338.258 416.231" stroke="#000000" stroke-width="0.436" fill="none" /><path id="710" transform="matrix(1 0 0 -1 0 841)" d="M392.452 416.231L406.95 416.231" stroke="#000000" stroke-width="0.436" fill="none" /><path id="716" transform="matrix(1 0 0 -1 0 841)" d="M227.98 399.277L408.146 399.277" stroke="#000000" stroke-width="0.436" fill="none" /><path id="739" transform="matrix(1 0 0 -1 0 841)" d="M422.666 409.575L488.13 409.575" stroke="#000000" stroke-width="0.398" fill="none" /><path id="740" transform="matrix(1 0 0 -1 0 841)" d="M422.865 390.635L422.865 409.576" stroke="#000000" stroke-width="0.398" fill="none" /><path id="741" transform="matrix(1 0 0 -1 0 841)" d="M487.931 390.635L487.931 409.576" stroke="#000000" stroke-width="0.398" fill="none" /><path id="742" transform="matrix(1 0 0 -1 0 841)" d="M422.666 390.635L488.13 390.635" stroke="#000000" stroke-width="0.398" fill="none" /><path id="896" transform="matrix(1 0 0 -1 0 841)" d="M212.512 310.469L277.892 310.469" stroke="#000000" stroke-width="0.436" fill="none" /><path id="916" transform="matrix(1 0 0 -1 0 841)" d="M320.282 318.228L341.598 318.228" stroke="#000000" stroke-width="0.398" fill="none" /><path id="917" transform="matrix(1 0 0 -1 0 841)" d="M320.481 304.429L320.481 318.229" stroke="#000000" stroke-width="0.398" fill="none" /><path id="918" transform="matrix(1 0 0 -1 0 841)" d="M341.399 304.429L341.399 318.229" stroke="#000000" stroke-width="0.398" fill="none" /><path id="919" transform="matrix(1 0 0 -1 0 841)" d="M320.282 304.429L341.598 304.429" stroke="#000000" stroke-width="0.398" fill="none" /><path id="1112" transform="matrix(1 0 0 -1 0 841)" d="M304.64 220.319L455.65 220.319" stroke="#000000" stroke-width="0.436" fill="none" /><path id="1262" transform="matrix(1 0 0 -1 0 841)" d="M265.633 151.449L316.536 151.449" stroke="#000000" stroke-width="0.436" fill="none" /><path id="1278" transform="matrix(1 0 0 -1 0 841)" d="M339.062 151.449L358.458 151.449" stroke="#000000" stroke-width="0.436" fill="none" /><path id="1281" transform="matrix(1 0 0 -1 0 841)" d="M255.809 133.558L359.654 133.558" stroke="#000000" stroke-width="0.436" fill="none" /><path id="1302" transform="matrix(1 0 0 -1 0 841)" d="M374.174 142.141L422.163 142.141" stroke="#000000" stroke-width="0.398" fill="none" /><path id="1303" transform="matrix(1 0 0 -1 0 841)" d="M374.374 124.916L374.374 142.141" stroke="#000000" stroke-width="0.398" fill="none" /><path id="1304" transform="matrix(1 0 0 -1 0 841)" d="M421.964 124.916L421.964 142.141" stroke="#000000" stroke-width="0.398" fill="none" /><path id="1305" transform="matrix(1 0 0 -1 0 841)" d="M374.174 124.916L422.163 124.916" stroke="#000000" stroke-width="0.398" fill="none" /></g></g></svg>