<svg xmlns="http://www.w3.org/2000/svg" xmlns:xlink="http://www.w3.org/1999/xlink" id="body_269" preserveAspectRatio="xMinYMin meet" viewBox="0 0 793 1121"><defs><clipPath id="1"><path id="" clip-rule="evenodd" transform="matrix(1 0 0 1 0 0)" d="M0 841L0 -0.8900146L0 -0.8900146L595.276 -0.8900146L595.276 -0.8900146L595.276 841L595.276 841L0 841z" /></clipPath></defs><g transform="matrix(1.333333 0 0 1.333333 0 0)"><g clip-path="url(#1)"><path id="23" transform="matrix(1 0 0 -1 0 841)" d="M85.039 766.564L510.236 766.564" stroke="#000000" stroke-width="0.498" fill="none" /><path id="54" transform="matrix(1 0 0 -1 0 841)" d="M113.508 698.104L129.828 698.104" stroke="#000000" stroke-width="0.436" fill="none" /><path id="69" transform="matrix(1 0 0 -1 0 841)" d="M201.122 698.104L214.453 698.104" stroke="#000000" stroke-width="0.436" fill="none" /><path id="85" transform="matrix(1 0 0 -1 0 841)" d="M299.414 698.104L315.734 698.104" stroke="#000000" stroke-width="0.436" fill="none" /><path id="89" transform="matrix(1 0 0 -1 0 841)" d="M256.843 721.612L332.253 721.612L332.253 725.597L256.843 725.597z" stroke="none" fill="#000000" fill-rule="nonzero" /><path id="90" transform="matrix(1 0 0 -1 0 841)" d="M256.843 672.337L260.828 672.337L260.828 723.604L256.843 723.604z" stroke="none" fill="#000000" fill-rule="nonzero" /><path id="91" transform="matrix(1 0 0 -1 0 841)" d="M328.268 672.337L332.253 672.337L332.253 723.604L328.268 723.604z" stroke="none" fill="#000000" fill-rule="nonzero" /><path id="92" transform="matrix(1 0 0 -1 0 841)" d="M256.843 670.345L332.253 670.345L332.253 674.33L256.843 674.33z" stroke="none" fill="#000000" fill-rule="nonzero" /><path id="212" transform="matrix(1 0 0 -1 0 841)" d="M184.399 598.945L231.048 598.945" stroke="#000000" stroke-width="0.436" fill="none" /><path id="249" transform="matrix(1 0 0 -1 0 841)" d="M353.245 615.067L428.686 615.067L428.686 619.052L353.245 619.052z" stroke="none" fill="#000000" fill-rule="nonzero" /><path id="250" transform="matrix(1 0 0 -1 0 841)" d="M353.245 580.77L357.23 580.77L357.23 617.059L353.245 617.059z" stroke="none" fill="#000000" fill-rule="nonzero" /><path id="251" transform="matrix(1 0 0 -1 0 841)" d="M424.7 580.77L428.685 580.77L428.685 617.059L424.7 617.059z" stroke="none" fill="#000000" fill-rule="nonzero" /><path id="252" transform="matrix(1 0 0 -1 0 841)" d="M353.245 578.778L428.686 578.778L428.686 582.763L353.245 582.763z" stroke="none" fill="#000000" fill-rule="nonzero" /><path id="457" transform="matrix(1 0 0 -1 0 841)" d="M365.64 523.134L443.469 523.134L443.469 527.119L365.64 527.119z" stroke="none" fill="#000000" fill-rule="nonzero" /><path id="458" transform="matrix(1 0 0 -1 0 841)" d="M365.64 487.616L369.625 487.616L369.625 525.127L365.64 525.127z" stroke="none" fill="#000000" fill-rule="nonzero" /><path id="459" transform="matrix(1 0 0 -1 0 841)" d="M439.484 487.616L443.469 487.616L443.469 525.127L439.484 525.127z" stroke="none" fill="#000000" fill-rule="nonzero" /><path id="460" transform="matrix(1 0 0 -1 0 841)" d="M365.64 485.623L443.469 485.623L443.469 489.608L365.64 489.608z" stroke="none" fill="#000000" fill-rule="nonzero" /><path id="680" transform="matrix(1 0 0 -1 0 841)" d="M336.134 393.892L368.796 393.892" stroke="#000000" stroke-width="0.436" fill="none" /><path id="687" transform="matrix(1 0 0 -1 0 841)" d="M379.672 393.892L439.598 393.892" stroke="#000000" stroke-width="0.436" fill="none" /><path id="728" transform="matrix(1 0 0 -1 0 841)" d="M228.254 362.545L260.916 362.545" stroke="#000000" stroke-width="0.436" fill="none" /><path id="735" transform="matrix(1 0 0 -1 0 841)" d="M271.791 362.545L331.717 362.545" stroke="#000000" stroke-width="0.436" fill="none" /><path id="918" transform="matrix(1 0 0 -1 0 841)" d="M314.041 300.293L407.098 300.293L407.098 304.278L314.041 304.278z" stroke="none" fill="#000000" fill-rule="nonzero" /><path id="919" transform="matrix(1 0 0 -1 0 841)" d="M314.041 268.004L318.026 268.004L318.026 302.286L314.041 302.286z" stroke="none" fill="#000000" fill-rule="nonzero" /><path id="920" transform="matrix(1 0 0 -1 0 841)" d="M403.114 268.004L407.099 268.004L407.099 302.286L403.114 302.286z" stroke="none" fill="#000000" fill-rule="nonzero" /><path id="921" transform="matrix(1 0 0 -1 0 841)" d="M314.041 266.011L407.098 266.011L407.098 269.996L314.041 269.996z" stroke="none" fill="#000000" fill-rule="nonzero" /><path id="1132" transform="matrix(1 0 0 -1 0 841)" d="M112.312 204.699L179.319 204.699L179.319 208.684L112.312 208.684z" stroke="none" fill="#000000" fill-rule="nonzero" /><path id="1133" transform="matrix(1 0 0 -1 0 841)" d="M112.312 169.18L116.297 169.18L116.297 206.691L112.312 206.691z" stroke="none" fill="#000000" fill-rule="nonzero" /><path id="1134" transform="matrix(1 0 0 -1 0 841)" d="M175.334 169.18L179.319 169.18L179.319 206.691L175.334 206.691z" stroke="none" fill="#000000" fill-rule="nonzero" /><path id="1135" transform="matrix(1 0 0 -1 0 841)" d="M112.312 167.187L179.319 167.187L179.319 171.172L112.312 171.172z" stroke="none" fill="#000000" fill-rule="nonzero" /></g></g></svg>