<svg xmlns="http://www.w3.org/2000/svg" xmlns:xlink="http://www.w3.org/1999/xlink" id="body_307" preserveAspectRatio="xMinYMin meet" viewBox="0 0 793 1121"><defs><clipPath id="1"><path id="" clip-rule="evenodd" transform="matrix(1 0 0 1 0 0)" d="M0 841L0 -0.8900146L0 -0.8900146L595.276 -0.8900146L595.276 -0.8900146L595.276 841L595.276 841L0 841z" /></clipPath></defs><g transform="matrix(1.333333 0 0 1.333333 0 0)"><g clip-path="url(#1)"><path id="22" transform="matrix(1 0 0 -1 0 841)" d="M85.039 766.564L510.236 766.564" stroke="#000000" stroke-width="0.498" fill="none" /><path id="171" transform="matrix(1 0 0 -1 0 841)" d="M113.508 654.477L180.11 654.477" stroke="#000000" stroke-width="0.436" fill="none" /><path id="179" transform="matrix(1 0 0 -1 0 841)" d="M190.985 654.477L234.621 654.477" stroke="#000000" stroke-width="0.436" fill="none" /><path id="195" transform="matrix(1 0 0 -1 0 841)" d="M280.109 654.477L356.95 654.477" stroke="#000000" stroke-width="0.436" fill="none" /><path id="222" transform="matrix(1 0 0 -1 0 841)" d="M371.47 662.388L478.863 662.388" stroke="#000000" stroke-width="0.398" fill="none" /><path id="223" transform="matrix(1 0 0 -1 0 841)" d="M371.67 646.336L371.67 662.388" stroke="#000000" stroke-width="0.398" fill="none" /><path id="224" transform="matrix(1 0 0 -1 0 841)" d="M478.664 646.336L478.664 662.388" stroke="#000000" stroke-width="0.398" fill="none" /><path id="225" transform="matrix(1 0 0 -1 0 841)" d="M371.47 646.336L478.863 646.336" stroke="#000000" stroke-width="0.398" fill="none" /><path id="266" transform="matrix(1 0 0 -1 0 841)" d="M173.414 595.45L192.799 595.45" stroke="#000000" stroke-width="0.436" fill="none" /><path id="286" transform="matrix(1 0 0 -1 0 841)" d="M207.319 603.421L308.298 603.421" stroke="#000000" stroke-width="0.398" fill="none" /><path id="287" transform="matrix(1 0 0 -1 0 841)" d="M207.518 587.309L207.518 603.421" stroke="#000000" stroke-width="0.398" fill="none" /><path id="288" transform="matrix(1 0 0 -1 0 841)" d="M308.098 587.309L308.098 603.421" stroke="#000000" stroke-width="0.398" fill="none" /><path id="289" transform="matrix(1 0 0 -1 0 841)" d="M207.319 587.309L308.298 587.309" stroke="#000000" stroke-width="0.398" fill="none" /><path id="434" transform="matrix(1 0 0 -1 0 841)" d="M186.124 499.358L257.511 499.358" stroke="#000000" stroke-width="0.436" fill="none" /><g transform="matrix(0.06 0 0 0.06 112.312 366.469)"><g transform="matrix(1 0 0 1 0 0)"><image x="0" y="0" xlink:href="img_449.png" width="3009" height="713" /></g></g><path id="585" transform="matrix(1 0 0 -1 0 841)" d="M158.147 354.289L325.891 354.289" stroke="#000000" stroke-width="0.436" fill="none" /><path id="620" transform="matrix(1 0 0 -1 0 841)" d="M341.607 354.289L383.408 354.289" stroke="#000000" stroke-width="0.436" fill="none" /><path id="636" transform="matrix(1 0 0 -1 0 841)" d="M397.928 362.048L439.001 362.048" stroke="#000000" stroke-width="0.398" fill="none" /><path id="637" transform="matrix(1 0 0 -1 0 841)" d="M398.128 346.149L398.128 362.049" stroke="#000000" stroke-width="0.398" fill="none" /><path id="638" transform="matrix(1 0 0 -1 0 841)" d="M438.802 346.149L438.802 362.049" stroke="#000000" stroke-width="0.398" fill="none" /><path id="639" transform="matrix(1 0 0 -1 0 841)" d="M397.928 346.149L439.001 346.149" stroke="#000000" stroke-width="0.398" fill="none" /></g></g></svg>