<svg xmlns="http://www.w3.org/2000/svg" xmlns:xlink="http://www.w3.org/1999/xlink" id="body_282" preserveAspectRatio="xMinYMin meet" viewBox="0 0 793 1121"><defs><clipPath id="1"><path id="" clip-rule="evenodd" transform="matrix(1 0 0 1 0 0)" d="M0 841L0 -0.8900146L0 -0.8900146L595.276 -0.8900146L595.276 -0.8900146L595.276 841L595.276 841L0 841z" /></clipPath></defs><g transform="matrix(1.333333 0 0 1.333333 0 0)"><g clip-path="url(#1)"><path id="23" transform="matrix(1 0 0 -1 0 841)" d="M85.039 766.564L510.236 766.564" stroke="#000000" stroke-width="0.498" fill="none" /><path id="75" transform="matrix(1 0 0 -1 0 841)" d="M113.508 712.294L179.322 712.294" stroke="#000000" stroke-width="0.436" fill="none" /><path id="88" transform="matrix(1 0 0 -1 0 841)" d="M190.197 712.294L217.47 712.294" stroke="#000000" stroke-width="0.436" fill="none" /><path id="100" transform="matrix(1 0 0 -1 0 841)" d="M228.346 712.294L254.659 712.294" stroke="#000000" stroke-width="0.436" fill="none" /><path id="117" transform="matrix(1 0 0 -1 0 841)" d="M273.761 712.294L338.507 712.294" stroke="#000000" stroke-width="0.436" fill="none" /><path id="121" transform="matrix(1 0 0 -1 0 841)" d="M269.178 727.651L343.089 727.651" stroke="#000000" stroke-width="0.398" fill="none" /><path id="122" transform="matrix(1 0 0 -1 0 841)" d="M269.377 696.669L269.377 727.65" stroke="#000000" stroke-width="0.398" fill="none" /><path id="123" transform="matrix(1 0 0 -1 0 841)" d="M342.89 696.669L342.89 727.65" stroke="#000000" stroke-width="0.398" fill="none" /><path id="124" transform="matrix(1 0 0 -1 0 841)" d="M269.178 696.669L343.089 696.669" stroke="#000000" stroke-width="0.398" fill="none" /><path id="234" transform="matrix(1 0 0 -1 0 841)" d="M113.508 638.054L179.322 638.054" stroke="#000000" stroke-width="0.436" fill="none" /><path id="251" transform="matrix(1 0 0 -1 0 841)" d="M190.197 638.054L222.924 638.054" stroke="#000000" stroke-width="0.436" fill="none" /><path id="269" transform="matrix(1 0 0 -1 0 841)" d="M255.618 638.054L271.981 638.054" stroke="#000000" stroke-width="0.436" fill="none" /><path id="289" transform="matrix(1 0 0 -1 0 841)" d="M291.085 638.054L377.496 638.054" stroke="#000000" stroke-width="0.436" fill="none" /><path id="293" transform="matrix(1 0 0 -1 0 841)" d="M286.502 653.411L382.079 653.411" stroke="#000000" stroke-width="0.398" fill="none" /><path id="294" transform="matrix(1 0 0 -1 0 841)" d="M286.701 622.429L286.701 653.41" stroke="#000000" stroke-width="0.398" fill="none" /><path id="295" transform="matrix(1 0 0 -1 0 841)" d="M381.879 622.429L381.879 653.41" stroke="#000000" stroke-width="0.398" fill="none" /><path id="296" transform="matrix(1 0 0 -1 0 841)" d="M286.502 622.429L382.079 622.429" stroke="#000000" stroke-width="0.398" fill="none" /><path id="508" transform="matrix(1 0 0 -1 0 841)" d="M225.897 496.5266L112.5098 496.5266L112.5098 496.5266L112.5098 454.0064L112.5098 454.0064L225.897 454.0064z" stroke="#000000" stroke-width="0.3985" fill="#E3F5FD" fill-rule="nonzero" /><path id="509" transform="matrix(1 0 0 -1 0 841)" d="M225.897 496.5266L247.7237 518.3533L247.7237 518.3533L247.7237 475.8331L247.7237 475.8331L225.897 454.0064z" stroke="#000000" stroke-width="0.3985" fill="#FFFFFF" fill-rule="nonzero" /><path id="510" transform="matrix(1 0 0 -1 0 841)" d="M225.897 496.5266L247.7237 518.3533L247.7237 518.3533L247.7237 475.8331L247.7237 475.8331L225.897 454.0064z" stroke="#000000" stroke-width="0.3985" fill="#E3F5FD" fill-rule="nonzero" /><path id="511" transform="matrix(1 0 0 -1 0 841)" d="M112.5098 510.7L134.3365 532.5267L134.3365 532.5267L134.3365 518.3533L134.3365 518.3533L112.5098 496.5266z" stroke="#000000" stroke-width="0.3985" fill="none" /><path id="512" transform="matrix(1 0 0 -1 0 841)" d="M225.897 496.5266L112.5098 496.5266L112.5098 496.5266L134.3365 518.3533L134.3365 518.3533L247.7237 518.3533z" stroke="#000000" stroke-width="0.3985" fill="none" /><path id="513" transform="matrix(1 0 0 -1 0 841)" d="M225.897 510.7L112.5098 510.7L112.5098 510.7L112.5098 496.5266L112.5098 496.5266L225.897 496.5266z" stroke="#000000" stroke-width="0.3985" fill="#FFFFFF" fill-rule="nonzero" /><path id="514" transform="matrix(1 0 0 -1 0 841)" d="M225.897 510.7L247.7237 532.5267L247.7237 532.5267L247.7237 518.3533L247.7237 518.3533L225.897 496.5266z" stroke="#000000" stroke-width="0.3985" fill="#FFFFFF" fill-rule="nonzero" /><path id="515" transform="matrix(1 0 0 -1 0 841)" d="M225.897 510.7L247.7237 532.5267L247.7237 532.5267L247.7237 518.3533L247.7237 518.3533L225.897 496.5266z" stroke="#000000" stroke-width="0.3985" fill="#FFFFFF" fill-rule="nonzero" /><path id="516" transform="matrix(1 0 0 -1 0 841)" d="M225.897 510.7L112.5098 510.7L112.5098 510.7L134.3365 532.5267L134.3365 532.5267L247.7237 532.5267z" stroke="#000000" stroke-width="0.3985" fill="#FFFFFF" fill-rule="nonzero" /><path id="517" transform="matrix(1 0 0 -1 0 841)" d="M112.9083 445.5023L225.4985 445.5023" stroke="#000000" stroke-width="0.3985" fill="none" /><path id="518" transform="matrix(1 0 0 -1 0 841)" d="M114.7813 443.1112C 114.4027 444.5459 113.559 445.2233 112.709 445.5023C 113.559 445.7812 114.4027 446.4586 114.7813 447.8933" stroke="#000000" stroke-width="0.3985" stroke-linecap="round" fill="none" /><path id="519" transform="matrix(1 0 0 -1 0 841)" d="M223.6255 447.8933C 224.0041 446.4586 224.8477 445.7812 225.6977 445.5023C 224.8477 445.2233 224.0041 444.5459 223.6255 443.1112" stroke="#000000" stroke-width="0.3985" stroke-linecap="round" fill="none" /><path id="527" transform="matrix(1 0 0 -1 0 841)" d="M254.2438 474.2476L254.2438 515.9708" stroke="#000000" stroke-width="0.3985" fill="none" /><path id="528" transform="matrix(1 0 0 -1 0 841)" d="M256.6348 476.1206C 255.2002 475.742 254.5227 474.8983 254.2438 474.0483C 253.9648 474.8983 253.2874 475.742 251.8528 476.1206" stroke="#000000" stroke-width="0.3985" stroke-linecap="round" fill="none" /><path id="529" transform="matrix(1 0 0 -1 0 841)" d="M251.8528 514.0977C 253.2874 514.4763 253.9648 515.32 254.2438 516.17C 254.5227 515.32 255.2002 514.4763 256.6348 514.0977" stroke="#000000" stroke-width="0.3985" stroke-linecap="round" fill="none" /><path id="552" transform="matrix(1 0 0 -1 0 841)" d="M237.2355 465.1768L237.2355 479.1199" stroke="#000000" stroke-width="0.3985" fill="none" /><path id="553" transform="matrix(1 0 0 -1 0 841)" d="M239.6266 467.0498C 238.1919 466.6712 237.5145 465.8275 237.2355 464.9776C 236.9566 465.8275 236.2792 466.6712 234.8445 467.0498" stroke="#000000" stroke-width="0.3985" stroke-linecap="round" fill="none" /><path id="554" transform="matrix(1 0 0 -1 0 841)" d="M234.8445 477.2469C 236.2792 477.6254 236.9566 478.4691 237.2355 479.3191C 237.5145 478.4691 238.1919 477.6254 239.6266 477.2469" stroke="#000000" stroke-width="0.3985" stroke-linecap="round" fill="none" /><path id="574" transform="matrix(1 0 0 -1 0 841)" d="M254.2438 532.979L254.2438 516.7678" stroke="#000000" stroke-width="0.3985" fill="none" /><path id="575" transform="matrix(1 0 0 -1 0 841)" d="M251.8528 531.106C 253.2874 531.4846 253.9648 532.3282 254.2438 533.1782C 254.5227 532.3282 255.2002 531.4846 256.6348 531.106" stroke="#000000" stroke-width="0.3985" stroke-linecap="round" fill="none" /><path id="576" transform="matrix(1 0 0 -1 0 841)" d="M256.6348 518.6407C 255.2002 518.2621 254.5227 517.4185 254.2438 516.5685C 253.9648 517.4185 253.2874 518.2621 251.8528 518.6407" stroke="#000000" stroke-width="0.3985" stroke-linecap="round" fill="none" /><path id="588" transform="matrix(1 0 0 -1 0 841)" d="M253.962 473.5673L226.1788 445.7841" stroke="#000000" stroke-width="0.3985" fill="none" /><path id="589" transform="matrix(1 0 0 -1 0 841)" d="M250.9469 473.9336C 252.2291 473.1869 253.3046 473.3044 254.1029 473.7082C 253.6991 472.9099 253.5816 471.8344 254.3283 470.5522" stroke="#000000" stroke-width="0.3984962" stroke-linecap="round" fill="none" /><path id="590" transform="matrix(1 0 0 -1 0 841)" d="M229.1939 445.4177C 227.9117 446.1645 226.8362 446.0469 226.0379 445.6432C 226.4417 446.4414 226.5592 447.517 225.8125 448.7991" stroke="#000000" stroke-width="0.3984962" stroke-linecap="round" fill="none" /><path id="664" transform="matrix(1 0 0 -1 0 841)" d="M207.711 385.626L222.209 385.626" stroke="#000000" stroke-width="0.436" fill="none" /><path id="670" transform="matrix(1 0 0 -1 0 841)" d="M138.347 368.672L223.404 368.672" stroke="#000000" stroke-width="0.436" fill="none" /><path id="679" transform="matrix(1 0 0 -1 0 841)" d="M180.876 353.661L197.239 353.661" stroke="#000000" stroke-width="0.436" fill="none" /><path id="689" transform="matrix(1 0 0 -1 0 841)" d="M237.925 376.431L271.972 376.431" stroke="#000000" stroke-width="0.398" fill="none" /><path id="690" transform="matrix(1 0 0 -1 0 841)" d="M238.124 362.637L238.124 376.431" stroke="#000000" stroke-width="0.398" fill="none" /><path id="691" transform="matrix(1 0 0 -1 0 841)" d="M271.773 362.637L271.773 376.431" stroke="#000000" stroke-width="0.398" fill="none" /><path id="692" transform="matrix(1 0 0 -1 0 841)" d="M237.925 362.637L271.972 362.637" stroke="#000000" stroke-width="0.398" fill="none" /><g transform="matrix(0.08999999 0 0 0.09 162.239 532.316)"><g transform="matrix(1 0 0 1 0 0)"><image x="0" y="0" xlink:href="img_421.png" width="3009" height="713" /></g></g><path id="1065" transform="matrix(1 0 0 -1 0 841)" d="M176.205 92.498L446.343 92.498" stroke="#000000" stroke-width="0.436" fill="none" /></g></g></svg>