<svg xmlns="http://www.w3.org/2000/svg" xmlns:xlink="http://www.w3.org/1999/xlink" id="body_103" preserveAspectRatio="xMinYMin meet" viewBox="0 0 793 1121"><defs><clipPath id="1"><path id="" clip-rule="evenodd" transform="matrix(1 0 0 1 0 0)" d="M0 841L0 -0.8900146L0 -0.8900146L595.276 -0.8900146L595.276 -0.8900146L595.276 841L595.276 841L0 841z" /></clipPath></defs><g transform="matrix(1.333333 0 0 1.333333 0 0)"><g clip-path="url(#1)"><path id="44" transform="matrix(1 0 0 -1 0 841)" d="M85.039 766.564L510.236 766.564" stroke="#000000" stroke-width="0.498" fill="none" /><path id="45" transform="matrix(1 0 0 -1 0 841)" d="M85.039 756.651L506.995 756.651" stroke="#000000" stroke-width="0.398" fill="none" /><path id="46" transform="matrix(1 0 0 -1 0 841)" d="M85.239 742.903L85.239 756.452" stroke="#000000" stroke-width="0.398" fill="none" /><path id="67" transform="matrix(1 0 0 -1 0 841)" d="M352.71 742.903L352.71 756.452" stroke="#000000" stroke-width="0.398" fill="none" /><path id="90" transform="matrix(1 0 0 -1 0 841)" d="M506.796 742.903L506.796 756.452" stroke="#000000" stroke-width="0.398" fill="none" /><path id="91" transform="matrix(1 0 0 -1 0 841)" d="M85.039 742.703L506.995 742.703" stroke="#000000" stroke-width="0.398" fill="none" /><path id="92" transform="matrix(1 0 0 -1 0 841)" d="M85.239 728.955L85.239 742.504" stroke="#000000" stroke-width="0.398" fill="none" /><path id="101" transform="matrix(1 0 0 -1 0 841)" d="M352.71 728.955L352.71 742.504" stroke="#000000" stroke-width="0.398" fill="none" /><path id="103" transform="matrix(1 0 0 -1 0 841)" d="M506.796 728.955L506.796 742.504" stroke="#000000" stroke-width="0.398" fill="none" /><path id="104" transform="matrix(1 0 0 -1 0 841)" d="M85.039 728.756L506.995 728.756" stroke="#000000" stroke-width="0.398" fill="none" /><path id="105" transform="matrix(1 0 0 -1 0 841)" d="M85.239 715.007L85.239 728.556" stroke="#000000" stroke-width="0.398" fill="none" /><path id="116" transform="matrix(1 0 0 -1 0 841)" d="M352.71 715.007L352.71 728.556" stroke="#000000" stroke-width="0.398" fill="none" /><path id="120" transform="matrix(1 0 0 -1 0 841)" d="M506.796 715.007L506.796 728.556" stroke="#000000" stroke-width="0.398" fill="none" /><path id="121" transform="matrix(1 0 0 -1 0 841)" d="M85.039 714.808L506.995 714.808" stroke="#000000" stroke-width="0.398" fill="none" /><path id="122" transform="matrix(1 0 0 -1 0 841)" d="M85.239 701.06L85.239 714.609" stroke="#000000" stroke-width="0.398" fill="none" /><path id="149" transform="matrix(1 0 0 -1 0 841)" d="M352.71 701.06L352.71 714.609" stroke="#000000" stroke-width="0.398" fill="none" /><path id="153" transform="matrix(1 0 0 -1 0 841)" d="M506.796 701.06L506.796 714.609" stroke="#000000" stroke-width="0.398" fill="none" /><path id="154" transform="matrix(1 0 0 -1 0 841)" d="M85.039 700.86L506.995 700.86" stroke="#000000" stroke-width="0.398" fill="none" /><path id="155" transform="matrix(1 0 0 -1 0 841)" d="M85.239 687.112L85.239 700.661" stroke="#000000" stroke-width="0.398" fill="none" /><path id="181" transform="matrix(1 0 0 -1 0 841)" d="M352.71 687.112L352.71 700.661" stroke="#000000" stroke-width="0.398" fill="none" /><path id="185" transform="matrix(1 0 0 -1 0 841)" d="M506.796 687.112L506.796 700.661" stroke="#000000" stroke-width="0.398" fill="none" /><path id="186" transform="matrix(1 0 0 -1 0 841)" d="M85.039 686.913L506.995 686.913" stroke="#000000" stroke-width="0.398" fill="none" /><path id="187" transform="matrix(1 0 0 -1 0 841)" d="M85.239 673.164L85.239 686.713" stroke="#000000" stroke-width="0.398" fill="none" /><path id="221" transform="matrix(1 0 0 -1 0 841)" d="M352.71 673.164L352.71 686.713" stroke="#000000" stroke-width="0.398" fill="none" /><path id="229" transform="matrix(1 0 0 -1 0 841)" d="M506.796 673.164L506.796 686.713" stroke="#000000" stroke-width="0.398" fill="none" /><path id="230" transform="matrix(1 0 0 -1 0 841)" d="M85.039 672.965L506.995 672.965" stroke="#000000" stroke-width="0.398" fill="none" /><path id="231" transform="matrix(1 0 0 -1 0 841)" d="M85.239 659.217L85.239 672.766" stroke="#000000" stroke-width="0.398" fill="none" /><path id="266" transform="matrix(1 0 0 -1 0 841)" d="M352.71 659.217L352.71 672.766" stroke="#000000" stroke-width="0.398" fill="none" /><path id="273" transform="matrix(1 0 0 -1 0 841)" d="M506.796 659.217L506.796 672.766" stroke="#000000" stroke-width="0.398" fill="none" /><path id="274" transform="matrix(1 0 0 -1 0 841)" d="M85.039 659.017L506.995 659.017" stroke="#000000" stroke-width="0.398" fill="none" /><path id="275" transform="matrix(1 0 0 -1 0 841)" d="M85.239 645.269L85.239 658.818" stroke="#000000" stroke-width="0.398" fill="none" /><path id="311" transform="matrix(1 0 0 -1 0 841)" d="M352.71 645.269L352.71 658.818" stroke="#000000" stroke-width="0.398" fill="none" /><path id="317" transform="matrix(1 0 0 -1 0 841)" d="M506.796 645.269L506.796 658.818" stroke="#000000" stroke-width="0.398" fill="none" /><path id="318" transform="matrix(1 0 0 -1 0 841)" d="M85.039 645.07L506.995 645.07" stroke="#000000" stroke-width="0.398" fill="none" /><path id="319" transform="matrix(1 0 0 -1 0 841)" d="M85.239 631.321L85.239 644.87" stroke="#000000" stroke-width="0.398" fill="none" /><path id="356" transform="matrix(1 0 0 -1 0 841)" d="M352.71 631.321L352.71 644.87" stroke="#000000" stroke-width="0.398" fill="none" /><path id="362" transform="matrix(1 0 0 -1 0 841)" d="M506.796 631.321L506.796 644.87" stroke="#000000" stroke-width="0.398" fill="none" /><path id="363" transform="matrix(1 0 0 -1 0 841)" d="M85.039 631.122L506.995 631.122" stroke="#000000" stroke-width="0.398" fill="none" /><path id="364" transform="matrix(1 0 0 -1 0 841)" d="M85.239 617.374L85.239 630.923" stroke="#000000" stroke-width="0.398" fill="none" /><path id="400" transform="matrix(1 0 0 -1 0 841)" d="M352.71 617.374L352.71 630.923" stroke="#000000" stroke-width="0.398" fill="none" /><path id="407" transform="matrix(1 0 0 -1 0 841)" d="M506.796 617.374L506.796 630.923" stroke="#000000" stroke-width="0.398" fill="none" /><path id="408" transform="matrix(1 0 0 -1 0 841)" d="M85.039 617.174L506.995 617.174" stroke="#000000" stroke-width="0.398" fill="none" /><path id="409" transform="matrix(1 0 0 -1 0 841)" d="M85.239 603.426L85.239 616.975" stroke="#000000" stroke-width="0.398" fill="none" /><path id="420" transform="matrix(1 0 0 -1 0 841)" d="M352.71 603.426L352.71 616.975" stroke="#000000" stroke-width="0.398" fill="none" /><path id="429" transform="matrix(1 0 0 -1 0 841)" d="M506.796 603.426L506.796 616.975" stroke="#000000" stroke-width="0.398" fill="none" /><path id="430" transform="matrix(1 0 0 -1 0 841)" d="M85.039 603.227L506.995 603.227" stroke="#000000" stroke-width="0.398" fill="none" /><path id="431" transform="matrix(1 0 0 -1 0 841)" d="M85.239 589.478L85.239 603.027" stroke="#000000" stroke-width="0.398" fill="none" /><path id="449" transform="matrix(1 0 0 -1 0 841)" d="M352.71 589.478L352.71 603.027" stroke="#000000" stroke-width="0.398" fill="none" /><path id="458" transform="matrix(1 0 0 -1 0 841)" d="M506.796 589.478L506.796 603.027" stroke="#000000" stroke-width="0.398" fill="none" /><path id="459" transform="matrix(1 0 0 -1 0 841)" d="M85.039 589.279L506.995 589.279" stroke="#000000" stroke-width="0.398" fill="none" /><path id="460" transform="matrix(1 0 0 -1 0 841)" d="M85.239 575.531L85.239 589.08" stroke="#000000" stroke-width="0.398" fill="none" /><path id="478" transform="matrix(1 0 0 -1 0 841)" d="M352.71 575.531L352.71 589.08" stroke="#000000" stroke-width="0.398" fill="none" /><path id="486" transform="matrix(1 0 0 -1 0 841)" d="M506.796 575.531L506.796 589.08" stroke="#000000" stroke-width="0.398" fill="none" /><path id="487" transform="matrix(1 0 0 -1 0 841)" d="M85.039 575.331L506.995 575.331" stroke="#000000" stroke-width="0.398" fill="none" /><path id="488" transform="matrix(1 0 0 -1 0 841)" d="M85.239 561.583L85.239 575.132" stroke="#000000" stroke-width="0.398" fill="none" /><path id="496" transform="matrix(1 0 0 -1 0 841)" d="M352.71 561.583L352.71 575.132" stroke="#000000" stroke-width="0.398" fill="none" /><path id="505" transform="matrix(1 0 0 -1 0 841)" d="M506.796 561.583L506.796 575.132" stroke="#000000" stroke-width="0.398" fill="none" /><path id="506" transform="matrix(1 0 0 -1 0 841)" d="M85.039 561.384L506.995 561.384" stroke="#000000" stroke-width="0.398" fill="none" /><path id="507" transform="matrix(1 0 0 -1 0 841)" d="M85.239 547.635L85.239 561.184" stroke="#000000" stroke-width="0.398" fill="none" /><path id="533" transform="matrix(1 0 0 -1 0 841)" d="M352.71 547.635L352.71 561.184" stroke="#000000" stroke-width="0.398" fill="none" /><path id="539" transform="matrix(1 0 0 -1 0 841)" d="M506.796 547.635L506.796 561.184" stroke="#000000" stroke-width="0.398" fill="none" /><path id="540" transform="matrix(1 0 0 -1 0 841)" d="M85.039 547.436L506.995 547.436" stroke="#000000" stroke-width="0.398" fill="none" /><path id="541" transform="matrix(1 0 0 -1 0 841)" d="M85.239 533.687L85.239 547.236" stroke="#000000" stroke-width="0.398" fill="none" /><path id="546" transform="matrix(1 0 0 -1 0 841)" d="M352.71 533.687L352.71 547.236" stroke="#000000" stroke-width="0.398" fill="none" /><path id="553" transform="matrix(1 0 0 -1 0 841)" d="M506.796 533.687L506.796 547.236" stroke="#000000" stroke-width="0.398" fill="none" /><path id="554" transform="matrix(1 0 0 -1 0 841)" d="M85.039 533.488L506.995 533.488" stroke="#000000" stroke-width="0.398" fill="none" /><path id="555" transform="matrix(1 0 0 -1 0 841)" d="M85.239 519.74L85.239 533.289" stroke="#000000" stroke-width="0.398" fill="none" /><path id="574" transform="matrix(1 0 0 -1 0 841)" d="M352.71 519.74L352.71 533.289" stroke="#000000" stroke-width="0.398" fill="none" /><path id="581" transform="matrix(1 0 0 -1 0 841)" d="M506.796 519.74L506.796 533.289" stroke="#000000" stroke-width="0.398" fill="none" /><path id="582" transform="matrix(1 0 0 -1 0 841)" d="M85.039 519.541L506.995 519.541" stroke="#000000" stroke-width="0.398" fill="none" /><path id="583" transform="matrix(1 0 0 -1 0 841)" d="M85.239 505.792L85.239 519.341" stroke="#000000" stroke-width="0.398" fill="none" /><path id="596" transform="matrix(1 0 0 -1 0 841)" d="M352.71 505.792L352.71 519.341" stroke="#000000" stroke-width="0.398" fill="none" /><path id="604" transform="matrix(1 0 0 -1 0 841)" d="M506.796 505.792L506.796 519.341" stroke="#000000" stroke-width="0.398" fill="none" /><path id="605" transform="matrix(1 0 0 -1 0 841)" d="M85.039 505.593L506.995 505.593" stroke="#000000" stroke-width="0.398" fill="none" /><path id="606" transform="matrix(1 0 0 -1 0 841)" d="M85.239 491.844L85.239 505.393" stroke="#000000" stroke-width="0.398" fill="none" /><path id="631" transform="matrix(1 0 0 -1 0 841)" d="M352.71 491.844L352.71 505.393" stroke="#000000" stroke-width="0.398" fill="none" /><path id="637" transform="matrix(1 0 0 -1 0 841)" d="M506.796 491.844L506.796 505.393" stroke="#000000" stroke-width="0.398" fill="none" /><path id="638" transform="matrix(1 0 0 -1 0 841)" d="M85.039 491.645L506.995 491.645" stroke="#000000" stroke-width="0.398" fill="none" /><path id="639" transform="matrix(1 0 0 -1 0 841)" d="M85.239 477.897L85.239 491.446" stroke="#000000" stroke-width="0.398" fill="none" /><path id="674" transform="matrix(1 0 0 -1 0 841)" d="M352.71 477.897L352.71 491.446" stroke="#000000" stroke-width="0.398" fill="none" /><path id="680" transform="matrix(1 0 0 -1 0 841)" d="M506.796 477.897L506.796 491.446" stroke="#000000" stroke-width="0.398" fill="none" /><path id="681" transform="matrix(1 0 0 -1 0 841)" d="M85.039 477.698L506.995 477.698" stroke="#000000" stroke-width="0.398" fill="none" /><path id="682" transform="matrix(1 0 0 -1 0 841)" d="M85.239 463.949L85.239 477.498" stroke="#000000" stroke-width="0.398" fill="none" /><path id="691" transform="matrix(1 0 0 -1 0 841)" d="M352.71 463.949L352.71 477.498" stroke="#000000" stroke-width="0.398" fill="none" /><path id="697" transform="matrix(1 0 0 -1 0 841)" d="M506.796 463.949L506.796 477.498" stroke="#000000" stroke-width="0.398" fill="none" /><path id="698" transform="matrix(1 0 0 -1 0 841)" d="M85.039 463.75L506.995 463.75" stroke="#000000" stroke-width="0.398" fill="none" /><path id="699" transform="matrix(1 0 0 -1 0 841)" d="M85.239 450.001L85.239 463.55" stroke="#000000" stroke-width="0.398" fill="none" /><path id="724" transform="matrix(1 0 0 -1 0 841)" d="M352.71 450.001L352.71 463.55" stroke="#000000" stroke-width="0.398" fill="none" /><path id="730" transform="matrix(1 0 0 -1 0 841)" d="M506.796 450.001L506.796 463.55" stroke="#000000" stroke-width="0.398" fill="none" /><path id="731" transform="matrix(1 0 0 -1 0 841)" d="M85.039 449.802L506.995 449.802" stroke="#000000" stroke-width="0.398" fill="none" /><path id="732" transform="matrix(1 0 0 -1 0 841)" d="M85.239 436.054L85.239 449.603" stroke="#000000" stroke-width="0.398" fill="none" /><path id="740" transform="matrix(1 0 0 -1 0 841)" d="M352.71 436.054L352.71 449.603" stroke="#000000" stroke-width="0.398" fill="none" /><path id="757" transform="matrix(1 0 0 -1 0 841)" d="M506.796 436.054L506.796 449.603" stroke="#000000" stroke-width="0.398" fill="none" /><path id="758" transform="matrix(1 0 0 -1 0 841)" d="M85.039 435.854L506.995 435.854" stroke="#000000" stroke-width="0.398" fill="none" /><path id="759" transform="matrix(1 0 0 -1 0 841)" d="M85.239 422.106L85.239 435.655" stroke="#000000" stroke-width="0.398" fill="none" /><path id="767" transform="matrix(1 0 0 -1 0 841)" d="M352.71 422.106L352.71 435.655" stroke="#000000" stroke-width="0.398" fill="none" /><path id="782" transform="matrix(1 0 0 -1 0 841)" d="M506.796 422.106L506.796 435.655" stroke="#000000" stroke-width="0.398" fill="none" /><path id="783" transform="matrix(1 0 0 -1 0 841)" d="M85.039 421.907L506.995 421.907" stroke="#000000" stroke-width="0.398" fill="none" /><path id="784" transform="matrix(1 0 0 -1 0 841)" d="M85.239 408.158L85.239 421.707" stroke="#000000" stroke-width="0.398" fill="none" /><path id="802" transform="matrix(1 0 0 -1 0 841)" d="M352.71 408.158L352.71 421.707" stroke="#000000" stroke-width="0.398" fill="none" /><path id="815" transform="matrix(1 0 0 -1 0 841)" d="M506.796 408.158L506.796 421.707" stroke="#000000" stroke-width="0.398" fill="none" /><path id="816" transform="matrix(1 0 0 -1 0 841)" d="M85.039 407.959L506.995 407.959" stroke="#000000" stroke-width="0.398" fill="none" /><path id="817" transform="matrix(1 0 0 -1 0 841)" d="M85.239 394.211L85.239 407.76" stroke="#000000" stroke-width="0.398" fill="none" /><path id="840" transform="matrix(1 0 0 -1 0 841)" d="M352.71 394.211L352.71 407.76" stroke="#000000" stroke-width="0.398" fill="none" /><path id="849" transform="matrix(1 0 0 -1 0 841)" d="M506.796 394.211L506.796 407.76" stroke="#000000" stroke-width="0.398" fill="none" /><path id="850" transform="matrix(1 0 0 -1 0 841)" d="M85.039 394.011L506.995 394.011" stroke="#000000" stroke-width="0.398" fill="none" /><path id="851" transform="matrix(1 0 0 -1 0 841)" d="M85.239 380.263L85.239 393.812" stroke="#000000" stroke-width="0.398" fill="none" /><path id="858" transform="matrix(1 0 0 -1 0 841)" d="M352.71 380.263L352.71 393.812" stroke="#000000" stroke-width="0.398" fill="none" /><path id="864" transform="matrix(1 0 0 -1 0 841)" d="M506.796 380.263L506.796 393.812" stroke="#000000" stroke-width="0.398" fill="none" /><path id="865" transform="matrix(1 0 0 -1 0 841)" d="M85.039 380.064L506.995 380.064" stroke="#000000" stroke-width="0.398" fill="none" /><path id="866" transform="matrix(1 0 0 -1 0 841)" d="M85.239 366.315L85.239 379.864" stroke="#000000" stroke-width="0.398" fill="none" /><path id="884" transform="matrix(1 0 0 -1 0 841)" d="M352.71 366.315L352.71 379.864" stroke="#000000" stroke-width="0.398" fill="none" /><path id="891" transform="matrix(1 0 0 -1 0 841)" d="M506.796 366.315L506.796 379.864" stroke="#000000" stroke-width="0.398" fill="none" /><path id="892" transform="matrix(1 0 0 -1 0 841)" d="M85.039 366.116L506.995 366.116" stroke="#000000" stroke-width="0.398" fill="none" /><path id="893" transform="matrix(1 0 0 -1 0 841)" d="M85.239 352.368L85.239 365.917" stroke="#000000" stroke-width="0.398" fill="none" /><path id="905" transform="matrix(1 0 0 -1 0 841)" d="M352.71 352.368L352.71 365.917" stroke="#000000" stroke-width="0.398" fill="none" /><path id="911" transform="matrix(1 0 0 -1 0 841)" d="M506.796 352.368L506.796 365.917" stroke="#000000" stroke-width="0.398" fill="none" /><path id="912" transform="matrix(1 0 0 -1 0 841)" d="M85.039 352.168L506.995 352.168" stroke="#000000" stroke-width="0.398" fill="none" /><path id="913" transform="matrix(1 0 0 -1 0 841)" d="M85.239 338.42L85.239 351.969" stroke="#000000" stroke-width="0.398" fill="none" /><path id="922" transform="matrix(1 0 0 -1 0 841)" d="M352.71 338.42L352.71 351.969" stroke="#000000" stroke-width="0.398" fill="none" /><path id="928" transform="matrix(1 0 0 -1 0 841)" d="M506.796 338.42L506.796 351.969" stroke="#000000" stroke-width="0.398" fill="none" /><path id="929" transform="matrix(1 0 0 -1 0 841)" d="M85.039 338.221L506.995 338.221" stroke="#000000" stroke-width="0.398" fill="none" /><path id="930" transform="matrix(1 0 0 -1 0 841)" d="M85.239 324.472L85.239 338.021" stroke="#000000" stroke-width="0.398" fill="none" /><path id="955" transform="matrix(1 0 0 -1 0 841)" d="M352.71 324.472L352.71 338.021" stroke="#000000" stroke-width="0.398" fill="none" /><path id="963" transform="matrix(1 0 0 -1 0 841)" d="M506.796 324.472L506.796 338.021" stroke="#000000" stroke-width="0.398" fill="none" /><path id="964" transform="matrix(1 0 0 -1 0 841)" d="M85.039 324.273L506.995 324.273" stroke="#000000" stroke-width="0.398" fill="none" /><path id="965" transform="matrix(1 0 0 -1 0 841)" d="M85.239 310.525L85.239 324.074" stroke="#000000" stroke-width="0.398" fill="none" /><path id="976" transform="matrix(1 0 0 -1 0 841)" d="M352.71 310.525L352.71 324.074" stroke="#000000" stroke-width="0.398" fill="none" /><path id="986" transform="matrix(1 0 0 -1 0 841)" d="M506.796 310.525L506.796 324.074" stroke="#000000" stroke-width="0.398" fill="none" /><path id="987" transform="matrix(1 0 0 -1 0 841)" d="M85.039 310.325L506.995 310.325" stroke="#000000" stroke-width="0.398" fill="none" /><path id="988" transform="matrix(1 0 0 -1 0 841)" d="M85.239 296.577L85.239 310.126" stroke="#000000" stroke-width="0.398" fill="none" /><path id="999" transform="matrix(1 0 0 -1 0 841)" d="M352.71 296.577L352.71 310.126" stroke="#000000" stroke-width="0.398" fill="none" /><path id="1010" transform="matrix(1 0 0 -1 0 841)" d="M506.796 296.577L506.796 310.126" stroke="#000000" stroke-width="0.398" fill="none" /><path id="1011" transform="matrix(1 0 0 -1 0 841)" d="M85.039 296.378L506.995 296.378" stroke="#000000" stroke-width="0.398" fill="none" /><path id="1012" transform="matrix(1 0 0 -1 0 841)" d="M85.239 282.629L85.239 296.178" stroke="#000000" stroke-width="0.398" fill="none" /><path id="1021" transform="matrix(1 0 0 -1 0 841)" d="M352.71 282.629L352.71 296.178" stroke="#000000" stroke-width="0.398" fill="none" /><path id="1026" transform="matrix(1 0 0 -1 0 841)" d="M506.796 282.629L506.796 296.178" stroke="#000000" stroke-width="0.398" fill="none" /><path id="1027" transform="matrix(1 0 0 -1 0 841)" d="M85.039 282.43L506.995 282.43" stroke="#000000" stroke-width="0.398" fill="none" /><path id="1028" transform="matrix(1 0 0 -1 0 841)" d="M85.239 268.682L85.239 282.231" stroke="#000000" stroke-width="0.398" fill="none" /><path id="1035" transform="matrix(1 0 0 -1 0 841)" d="M352.71 268.682L352.71 282.231" stroke="#000000" stroke-width="0.398" fill="none" /><path id="1041" transform="matrix(1 0 0 -1 0 841)" d="M506.796 268.682L506.796 282.231" stroke="#000000" stroke-width="0.398" fill="none" /><path id="1042" transform="matrix(1 0 0 -1 0 841)" d="M85.039 268.482L506.995 268.482" stroke="#000000" stroke-width="0.398" fill="none" /><path id="1043" transform="matrix(1 0 0 -1 0 841)" d="M85.239 254.734L85.239 268.283" stroke="#000000" stroke-width="0.398" fill="none" /><path id="1052" transform="matrix(1 0 0 -1 0 841)" d="M352.71 254.734L352.71 268.283" stroke="#000000" stroke-width="0.398" fill="none" /><path id="1058" transform="matrix(1 0 0 -1 0 841)" d="M506.796 254.734L506.796 268.283" stroke="#000000" stroke-width="0.398" fill="none" /><path id="1059" transform="matrix(1 0 0 -1 0 841)" d="M85.039 254.535L506.995 254.535" stroke="#000000" stroke-width="0.398" fill="none" /><path id="1060" transform="matrix(1 0 0 -1 0 841)" d="M85.239 240.786L85.239 254.335" stroke="#000000" stroke-width="0.398" fill="none" /><path id="1073" transform="matrix(1 0 0 -1 0 841)" d="M352.71 240.786L352.71 254.335" stroke="#000000" stroke-width="0.398" fill="none" /><path id="1083" transform="matrix(1 0 0 -1 0 841)" d="M506.796 240.786L506.796 254.335" stroke="#000000" stroke-width="0.398" fill="none" /><path id="1084" transform="matrix(1 0 0 -1 0 841)" d="M85.039 240.587L506.995 240.587" stroke="#000000" stroke-width="0.398" fill="none" /><path id="1085" transform="matrix(1 0 0 -1 0 841)" d="M85.239 226.839L85.239 240.388" stroke="#000000" stroke-width="0.398" fill="none" /><path id="1093" transform="matrix(1 0 0 -1 0 841)" d="M352.71 226.839L352.71 240.388" stroke="#000000" stroke-width="0.398" fill="none" /><path id="1100" transform="matrix(1 0 0 -1 0 841)" d="M506.796 226.839L506.796 240.388" stroke="#000000" stroke-width="0.398" fill="none" /><path id="1101" transform="matrix(1 0 0 -1 0 841)" d="M85.039 226.639L506.995 226.639" stroke="#000000" stroke-width="0.398" fill="none" /><path id="1102" transform="matrix(1 0 0 -1 0 841)" d="M85.239 212.891L85.239 226.44" stroke="#000000" stroke-width="0.398" fill="none" /><path id="1155" transform="matrix(1 0 0 -1 0 841)" d="M352.71 212.891L352.71 226.44" stroke="#000000" stroke-width="0.398" fill="none" /><path id="1177" transform="matrix(1 0 0 -1 0 841)" d="M506.796 212.891L506.796 226.44" stroke="#000000" stroke-width="0.398" fill="none" /><path id="1178" transform="matrix(1 0 0 -1 0 841)" d="M85.039 212.692L506.995 212.692" stroke="#000000" stroke-width="0.398" fill="none" /><path id="1179" transform="matrix(1 0 0 -1 0 841)" d="M85.239 198.943L85.239 212.492" stroke="#000000" stroke-width="0.398" fill="none" /><path id="1205" transform="matrix(1 0 0 -1 0 841)" d="M352.71 198.943L352.71 212.492" stroke="#000000" stroke-width="0.398" fill="none" /><path id="1212" transform="matrix(1 0 0 -1 0 841)" d="M506.796 198.943L506.796 212.492" stroke="#000000" stroke-width="0.398" fill="none" /><path id="1213" transform="matrix(1 0 0 -1 0 841)" d="M85.039 198.744L506.995 198.744" stroke="#000000" stroke-width="0.398" fill="none" /><path id="1214" transform="matrix(1 0 0 -1 0 841)" d="M85.239 184.995L85.239 198.544" stroke="#000000" stroke-width="0.398" fill="none" /><path id="1234" transform="matrix(1 0 0 -1 0 841)" d="M352.71 184.995L352.71 198.544" stroke="#000000" stroke-width="0.398" fill="none" /><path id="1242" transform="matrix(1 0 0 -1 0 841)" d="M506.796 184.995L506.796 198.544" stroke="#000000" stroke-width="0.398" fill="none" /><path id="1243" transform="matrix(1 0 0 -1 0 841)" d="M85.039 184.796L506.995 184.796" stroke="#000000" stroke-width="0.398" fill="none" /><path id="1244" transform="matrix(1 0 0 -1 0 841)" d="M85.239 171.048L85.239 184.597" stroke="#000000" stroke-width="0.398" fill="none" /><path id="1253" transform="matrix(1 0 0 -1 0 841)" d="M352.71 171.048L352.71 184.597" stroke="#000000" stroke-width="0.398" fill="none" /><path id="1260" transform="matrix(1 0 0 -1 0 841)" d="M506.796 171.048L506.796 184.597" stroke="#000000" stroke-width="0.398" fill="none" /><path id="1261" transform="matrix(1 0 0 -1 0 841)" d="M85.039 170.849L506.995 170.849" stroke="#000000" stroke-width="0.398" fill="none" /><path id="1262" transform="matrix(1 0 0 -1 0 841)" d="M85.239 157.1L85.239 170.649" stroke="#000000" stroke-width="0.398" fill="none" /><path id="1274" transform="matrix(1 0 0 -1 0 841)" d="M352.71 157.1L352.71 170.649" stroke="#000000" stroke-width="0.398" fill="none" /><path id="1280" transform="matrix(1 0 0 -1 0 841)" d="M506.796 157.1L506.796 170.649" stroke="#000000" stroke-width="0.398" fill="none" /><path id="1281" transform="matrix(1 0 0 -1 0 841)" d="M85.039 156.901L506.995 156.901" stroke="#000000" stroke-width="0.398" fill="none" /><path id="1282" transform="matrix(1 0 0 -1 0 841)" d="M85.239 143.152L85.239 156.701" stroke="#000000" stroke-width="0.398" fill="none" /><path id="1290" transform="matrix(1 0 0 -1 0 841)" d="M352.71 143.152L352.71 156.701" stroke="#000000" stroke-width="0.398" fill="none" /><path id="1295" transform="matrix(1 0 0 -1 0 841)" d="M506.796 143.152L506.796 156.701" stroke="#000000" stroke-width="0.398" fill="none" /><path id="1296" transform="matrix(1 0 0 -1 0 841)" d="M85.039 142.953L506.995 142.953" stroke="#000000" stroke-width="0.398" fill="none" /><path id="1297" transform="matrix(1 0 0 -1 0 841)" d="M85.239 129.205L85.239 142.754" stroke="#000000" stroke-width="0.398" fill="none" /><path id="1307" transform="matrix(1 0 0 -1 0 841)" d="M352.71 129.205L352.71 142.754" stroke="#000000" stroke-width="0.398" fill="none" /><path id="1315" transform="matrix(1 0 0 -1 0 841)" d="M506.796 129.205L506.796 142.754" stroke="#000000" stroke-width="0.398" fill="none" /><path id="1316" transform="matrix(1 0 0 -1 0 841)" d="M85.039 129.006L506.995 129.006" stroke="#000000" stroke-width="0.398" fill="none" /><path id="1317" transform="matrix(1 0 0 -1 0 841)" d="M85.239 115.257L85.239 128.806" stroke="#000000" stroke-width="0.398" fill="none" /><path id="1340" transform="matrix(1 0 0 -1 0 841)" d="M352.71 115.257L352.71 128.806" stroke="#000000" stroke-width="0.398" fill="none" /><path id="1346" transform="matrix(1 0 0 -1 0 841)" d="M506.796 115.257L506.796 128.806" stroke="#000000" stroke-width="0.398" fill="none" /><path id="1347" transform="matrix(1 0 0 -1 0 841)" d="M85.039 115.058L506.995 115.058" stroke="#000000" stroke-width="0.398" fill="none" /><path id="1348" transform="matrix(1 0 0 -1 0 841)" d="M85.239 101.309L85.239 114.858" stroke="#000000" stroke-width="0.398" fill="none" /><path id="1370" transform="matrix(1 0 0 -1 0 841)" d="M352.71 101.309L352.71 114.858" stroke="#000000" stroke-width="0.398" fill="none" /><path id="1372" transform="matrix(1 0 0 -1 0 841)" d="M506.796 101.309L506.796 114.858" stroke="#000000" stroke-width="0.398" fill="none" /><path id="1373" transform="matrix(1 0 0 -1 0 841)" d="M85.039 101.11L506.995 101.11" stroke="#000000" stroke-width="0.398" fill="none" /></g></g></svg>