<svg xmlns="http://www.w3.org/2000/svg" xmlns:xlink="http://www.w3.org/1999/xlink" id="body_333" preserveAspectRatio="xMinYMin meet" viewBox="0 0 793 1121"><defs><clipPath id="1"><path id="" clip-rule="evenodd" transform="matrix(1 0 0 1 0 0)" d="M0 841L0 -0.8900146L0 -0.8900146L595.276 -0.8900146L595.276 -0.8900146L595.276 841L595.276 841L0 841z" /></clipPath></defs><g transform="matrix(1.333333 0 0 1.333333 0 0)"><g clip-path="url(#1)"><path id="34" transform="matrix(1 0 0 -1 0 841)" d="M85.039 766.564L510.236 766.564" stroke="#000000" stroke-width="0.498" fill="none" /><path id="52" transform="matrix(1 0 0 -1 0 841)" d="M138.286 726.013L172.766 726.013" stroke="#000000" stroke-width="0.436" fill="none" /><path id="62" transform="matrix(1 0 0 -1 0 841)" d="M188.482 726.013L221.807 726.013" stroke="#000000" stroke-width="0.436" fill="none" /><path id="73" transform="matrix(1 0 0 -1 0 841)" d="M236.327 734.462L273.941 734.462" stroke="#000000" stroke-width="0.398" fill="none" /><path id="74" transform="matrix(1 0 0 -1 0 841)" d="M236.526 719.912L236.526 734.462" stroke="#000000" stroke-width="0.398" fill="none" /><path id="75" transform="matrix(1 0 0 -1 0 841)" d="M273.742 719.912L273.742 734.462" stroke="#000000" stroke-width="0.398" fill="none" /><path id="76" transform="matrix(1 0 0 -1 0 841)" d="M236.327 719.912L273.941 719.912" stroke="#000000" stroke-width="0.398" fill="none" /><path id="133" transform="matrix(1 0 0 -1 0 841)" d="M290.874 672.314L329.099 672.314" stroke="#000000" stroke-width="0.398" fill="none" /><path id="134" transform="matrix(1 0 0 -1 0 841)" d="M291.073 657.71L291.073 672.314" stroke="#000000" stroke-width="0.398" fill="none" /><path id="135" transform="matrix(1 0 0 -1 0 841)" d="M328.899 657.71L328.899 672.314" stroke="#000000" stroke-width="0.398" fill="none" /><path id="136" transform="matrix(1 0 0 -1 0 841)" d="M290.874 657.71L329.099 657.71" stroke="#000000" stroke-width="0.398" fill="none" /><path id="343" transform="matrix(1 0 0 -1 0 841)" d="M172.33 521.098L220.199 521.098" stroke="#000000" stroke-width="0.436" fill="none" /><path id="355" transform="matrix(1 0 0 -1 0 841)" d="M231.12 521.098L275.957 521.098" stroke="#000000" stroke-width="0.436" fill="none" /><path id="374" transform="matrix(1 0 0 -1 0 841)" d="M290.545 529.07L353.446 529.07" stroke="#000000" stroke-width="0.398" fill="none" /><path id="375" transform="matrix(1 0 0 -1 0 841)" d="M290.745 515.014L290.745 529.0699" stroke="#000000" stroke-width="0.398" fill="none" /><path id="376" transform="matrix(1 0 0 -1 0 841)" d="M353.247 515.014L353.247 529.0699" stroke="#000000" stroke-width="0.398" fill="none" /><path id="377" transform="matrix(1 0 0 -1 0 841)" d="M290.545 515.014L353.446 515.014" stroke="#000000" stroke-width="0.398" fill="none" /><path id="485" transform="matrix(1 0 0 -1 0 841)" d="M112.312 469.202L178.422 469.202" stroke="#000000" stroke-width="0.398" fill="none" /><path id="486" transform="matrix(1 0 0 -1 0 841)" d="M112.511 451.977L112.511 469.202" stroke="#000000" stroke-width="0.398" fill="none" /><path id="487" transform="matrix(1 0 0 -1 0 841)" d="M178.223 451.977L178.223 469.202" stroke="#000000" stroke-width="0.398" fill="none" /><path id="488" transform="matrix(1 0 0 -1 0 841)" d="M112.312 451.977L178.422 451.977" stroke="#000000" stroke-width="0.398" fill="none" /><path id="606" transform="matrix(1 0 0 -1 0 841)" d="M122.137 384.455L325.76 384.455" stroke="#000000" stroke-width="0.436" fill="none" /><path id="625" transform="matrix(1 0 0 -1 0 841)" d="M213.089 370.76L258.612 370.76" stroke="#000000" stroke-width="0.436" fill="none" /><path id="657" transform="matrix(1 0 0 -1 0 841)" d="M336.158 384.455L401.549 384.455" stroke="#000000" stroke-width="0.436" fill="none" /><path id="674" transform="matrix(1 0 0 -1 0 841)" d="M440.997 384.455L498.38 384.455" stroke="#000000" stroke-width="0.436" fill="none" /><path id="689" transform="matrix(1 0 0 -1 0 841)" d="M112.312 357.128L142.105 357.128" stroke="#000000" stroke-width="0.398" fill="none" /><path id="690" transform="matrix(1 0 0 -1 0 841)" d="M112.511 343.132L112.511 357.128" stroke="#000000" stroke-width="0.398" fill="none" /><path id="691" transform="matrix(1 0 0 -1 0 841)" d="M141.906 343.132L141.906 357.128" stroke="#000000" stroke-width="0.398" fill="none" /><path id="692" transform="matrix(1 0 0 -1 0 841)" d="M112.312 343.132L142.105 343.132" stroke="#000000" stroke-width="0.398" fill="none" /><path id="987" transform="matrix(1 0 0 -1 0 841)" d="M290.233 212.178L315.073 212.178" stroke="#000000" stroke-width="0.436" fill="none" /><path id="997" transform="matrix(1 0 0 -1 0 841)" d="M329.593 219.937L350.298 219.937" stroke="#000000" stroke-width="0.398" fill="none" /><path id="998" transform="matrix(1 0 0 -1 0 841)" d="M329.792 206.094L329.792 219.937" stroke="#000000" stroke-width="0.398" fill="none" /><path id="999" transform="matrix(1 0 0 -1 0 841)" d="M350.099 206.094L350.099 219.937" stroke="#000000" stroke-width="0.398" fill="none" /><path id="1000" transform="matrix(1 0 0 -1 0 841)" d="M329.593 206.094L350.298 206.094" stroke="#000000" stroke-width="0.398" fill="none" /><path id="1235" transform="matrix(1 0 0 -1 0 841)" d="M478.705 116.157L498.09 116.157" stroke="#000000" stroke-width="0.436" fill="none" /><path id="1244" transform="matrix(1 0 0 -1 0 841)" d="M112.312 104.582L133.017 104.582" stroke="#000000" stroke-width="0.398" fill="none" /><path id="1245" transform="matrix(1 0 0 -1 0 841)" d="M112.511 90.908L112.511 104.582" stroke="#000000" stroke-width="0.398" fill="none" /><path id="1246" transform="matrix(1 0 0 -1 0 841)" d="M132.818 90.908L132.818 104.582" stroke="#000000" stroke-width="0.398" fill="none" /><path id="1247" transform="matrix(1 0 0 -1 0 841)" d="M112.312 90.908L133.017 90.908" stroke="#000000" stroke-width="0.398" fill="none" /></g></g></svg>