<svg xmlns="http://www.w3.org/2000/svg" xmlns:xlink="http://www.w3.org/1999/xlink" id="body_5" preserveAspectRatio="xMinYMin meet" viewBox="0 0 793 1121"><defs><clipPath id="1"><path id="" clip-rule="evenodd" transform="matrix(1 0 0 1 0 0)" d="M0 841L0 -0.8900146L0 -0.8900146L595.276 -0.8900146L595.276 -0.8900146L595.276 841L595.276 841L0 841z" /></clipPath></defs><g transform="matrix(1.333333 0 0 1.333333 0 0)"><g clip-path="url(#1)"><path id="1" transform="matrix(1 0 0 -1 0 841)" d="M85.039 737.008L115.07 737.008L115.07 756.85L85.039 756.85z" stroke="none" fill="#FDE0D1" fill-rule="nonzero" /><path id="3" transform="matrix(1 0 0 -1 0 841)" d="M119.055 737.008L510.236 737.008L510.236 756.85L119.055 756.85z" stroke="none" fill="#FAC2A3" fill-rule="nonzero" /><path id="1751" transform="matrix(1 0 0 -1 0 841)" d="M85.039 186.829L115.07 186.829L115.07 206.671L85.039 206.671z" stroke="none" fill="#FDE0D1" fill-rule="nonzero" /><path id="1754" transform="matrix(1 0 0 -1 0 841)" d="M119.055 186.829L510.236 186.829L510.236 206.671L119.055 206.671z" stroke="none" fill="#FAC2A3" fill-rule="nonzero" /></g></g></svg>