<svg xmlns="http://www.w3.org/2000/svg" xmlns:xlink="http://www.w3.org/1999/xlink" id="body_338" preserveAspectRatio="xMinYMin meet" viewBox="0 0 793 1121"><defs><clipPath id="1"><path id="" clip-rule="evenodd" transform="matrix(1 0 0 1 0 0)" d="M0 841L0 -0.8900146L0 -0.8900146L595.276 -0.8900146L595.276 -0.8900146L595.276 841L595.276 841L0 841z" /></clipPath></defs><g transform="matrix(1.333333 0 0 1.333333 0 0)"><g clip-path="url(#1)"><path id="22" transform="matrix(1 0 0 -1 0 841)" d="M85.039 766.564L510.236 766.564" stroke="#000000" stroke-width="0.498" fill="none" /><path id="68" transform="matrix(1 0 0 -1 0 841)" d="M165.003 720.586L181.366 720.586" stroke="#000000" stroke-width="0.436" fill="none" /><path id="80" transform="matrix(1 0 0 -1 0 841)" d="M211.628 720.586L226.126 720.586" stroke="#000000" stroke-width="0.436" fill="none" /><path id="94" transform="matrix(1 0 0 -1 0 841)" d="M267.047 720.586L283.41 720.586" stroke="#000000" stroke-width="0.436" fill="none" /><path id="98" transform="matrix(1 0 0 -1 0 841)" d="M240.646 735.943L287.993 735.943" stroke="#000000" stroke-width="0.398" fill="none" /><path id="99" transform="matrix(1 0 0 -1 0 841)" d="M240.845 707.067L240.845 735.943" stroke="#000000" stroke-width="0.398" fill="none" /><path id="100" transform="matrix(1 0 0 -1 0 841)" d="M287.794 707.067L287.794 735.943" stroke="#000000" stroke-width="0.398" fill="none" /><path id="101" transform="matrix(1 0 0 -1 0 841)" d="M240.646 707.067L287.993 707.067" stroke="#000000" stroke-width="0.398" fill="none" /><g transform="matrix(0.3 0 0 0.3 112.312 187.716)"><g transform="matrix(1 0 0 1 0 0)"><image x="0" y="0" xlink:href="img_479.png" width="484" height="134" /></g></g><path id="241" transform="matrix(1 0 0 -1 0 841)" d="M403.46 590.371L411.336 590.371" stroke="#000000" stroke-width="0.436" fill="none" /><path id="400" transform="matrix(1 0 0 -1 0 841)" d="M120.173 488.429L134.104 488.429" stroke="#000000" stroke-width="0.436" fill="none" /><path id="415" transform="matrix(1 0 0 -1 0 841)" d="M164.346 500.544L178.592 500.544" stroke="#000000" stroke-width="0.436" fill="none" /><path id="421" transform="matrix(1 0 0 -1 0 841)" d="M149.819 488.429L179.787 488.429" stroke="#000000" stroke-width="0.436" fill="none" /><path id="428" transform="matrix(1 0 0 -1 0 841)" d="M164.318 471.854L178.249 471.854" stroke="#000000" stroke-width="0.436" fill="none" /><path id="484" transform="matrix(1 0 0 -1 0 841)" d="M113.508 422.332L174.02 422.332" stroke="#000000" stroke-width="0.436" fill="none" /><path id="494" transform="matrix(1 0 0 -1 0 841)" d="M184.896 422.332L238.732 422.332" stroke="#000000" stroke-width="0.436" fill="none" /><path id="515" transform="matrix(1 0 0 -1 0 841)" d="M249.607 422.332L279.901 422.332" stroke="#000000" stroke-width="0.436" fill="none" /><path id="529" transform="matrix(1 0 0 -1 0 841)" d="M315.002 422.332L329.248 422.332" stroke="#000000" stroke-width="0.436" fill="none" /><path id="578" transform="matrix(1 0 0 -1 0 841)" d="M178.039 370.961L231.056 370.961" stroke="#000000" stroke-width="0.436" fill="none" /><path id="582" transform="matrix(1 0 0 -1 0 841)" d="M200.309 357.446L214.24 357.446" stroke="#000000" stroke-width="0.436" fill="none" /><path id="603" transform="matrix(1 0 0 -1 0 841)" d="M168.472 316.189L175.345 316.189" stroke="#000000" stroke-width="0.436" fill="none" /><path id="623" transform="matrix(1 0 0 -1 0 841)" d="M310.537 316.189L335.377 316.189" stroke="#000000" stroke-width="0.436" fill="none" /><path id="635" transform="matrix(1 0 0 -1 0 841)" d="M392.745 316.189L417.585 316.189" stroke="#000000" stroke-width="0.436" fill="none" /><path id="643" transform="matrix(1 0 0 -1 0 841)" d="M426.489 325.658L431.944 325.658" stroke="#000000" stroke-width="0.436" fill="none" /><path id="654" transform="matrix(1 0 0 -1 0 841)" d="M166.061 283.388L190.901 283.388" stroke="#000000" stroke-width="0.436" fill="none" /><path id="662" transform="matrix(1 0 0 -1 0 841)" d="M199.805 292.857L205.26 292.857" stroke="#000000" stroke-width="0.436" fill="none" /><path id="668" transform="matrix(1 0 0 -1 0 841)" d="M220.277 291.18L247.724 291.18" stroke="#000000" stroke-width="0.398" fill="none" /><path id="669" transform="matrix(1 0 0 -1 0 841)" d="M220.477 275.193L220.477 291.18" stroke="#000000" stroke-width="0.398" fill="none" /><path id="670" transform="matrix(1 0 0 -1 0 841)" d="M247.525 275.193L247.525 291.18" stroke="#000000" stroke-width="0.398" fill="none" /><path id="671" transform="matrix(1 0 0 -1 0 841)" d="M220.277 275.193L247.724 275.193" stroke="#000000" stroke-width="0.398" fill="none" /><path id="891" transform="matrix(1 0 0 -1 0 841)" d="M176.053 135.264L182.926 135.264" stroke="#000000" stroke-width="0.436" fill="none" /><path id="905" transform="matrix(1 0 0 -1 0 841)" d="M259.323 135.264L270.232 135.264" stroke="#000000" stroke-width="0.436" fill="none" /><path id="923" transform="matrix(1 0 0 -1 0 841)" d="M349.969 135.264L366.333 135.264" stroke="#000000" stroke-width="0.436" fill="none" /><path id="978" transform="matrix(1 0 0 -1 0 841)" d="M190.158 92.623L204.089 92.623" stroke="#000000" stroke-width="0.436" fill="none" /><path id="999" transform="matrix(1 0 0 -1 0 841)" d="M292.216 92.623L306.462 92.623" stroke="#000000" stroke-width="0.436" fill="none" /></g></g></svg>