<svg xmlns="http://www.w3.org/2000/svg" xmlns:xlink="http://www.w3.org/1999/xlink" id="body_135" preserveAspectRatio="xMinYMin meet" viewBox="0 0 793 1121"><defs><clipPath id="1"><path id="" clip-rule="evenodd" transform="matrix(1 0 0 1 0 0)" d="M0 841L0 -0.8900146L0 -0.8900146L595.276 -0.8900146L595.276 -0.8900146L595.276 841L595.276 841L0 841z" /></clipPath></defs><g transform="matrix(1.333333 0 0 1.333333 0 0)"><g clip-path="url(#1)"><g transform="matrix(0.49608 0 0 0.49608 0.199 -0.6921387)"><g transform="matrix(1 0 0 1 0 0)"><image x="0" y="0" xlink:href="img_195.png" width="1200" height="628" /></g></g><path id="3" transform="matrix(1 0 0 -1 0 841)" d="M724.611 610.1811L100.9809 610.1811C 92.72734 610.1811 86.03673 603.4905 86.03673 595.2369L86.03673 595.2369L86.03673 578.3002C 86.03673 570.0466 92.72734 563.3561 100.9809 563.3561L100.9809 563.3561L724.611 563.3561C 732.8644 563.3561 739.5551 570.0466 739.5551 578.3002L739.5551 578.3002L739.5551 595.2369C 739.5551 603.4905 732.8644 610.1811 724.611 610.1811z" stroke="#F36619" stroke-width="1.99255" fill="#FFFFFF" fill-rule="nonzero" fill-opacity="0.4980392" /><path id="19" transform="matrix(1 0 0 -1 0 841)" d="M85.039 451.864L492.552 451.864" stroke="#000000" stroke-width="0.398" fill="none" /><path id="20" transform="matrix(1 0 0 -1 0 841)" d="M85.239 438.115L85.239 451.664" stroke="#000000" stroke-width="0.398" fill="none" /><path id="60" transform="matrix(1 0 0 -1 0 841)" d="M492.353 438.115L492.353 451.664" stroke="#000000" stroke-width="0.398" fill="none" /><path id="61" transform="matrix(1 0 0 -1 0 841)" d="M85.039 437.916L492.552 437.916" stroke="#000000" stroke-width="0.398" fill="none" /><path id="62" transform="matrix(1 0 0 -1 0 841)" d="M85.239 424.167L85.239 437.716" stroke="#000000" stroke-width="0.398" fill="none" /><path id="106" transform="matrix(1 0 0 -1 0 841)" d="M492.353 424.167L492.353 437.716" stroke="#000000" stroke-width="0.398" fill="none" /><path id="107" transform="matrix(1 0 0 -1 0 841)" d="M85.039 423.968L492.552 423.968" stroke="#000000" stroke-width="0.398" fill="none" /><path id="108" transform="matrix(1 0 0 -1 0 841)" d="M97.194 410.22L97.194 423.769" stroke="#000000" stroke-width="0.398" fill="none" /><path id="114" transform="matrix(1 0 0 -1 0 841)" d="M139.842 410.22L139.842 423.769" stroke="#000000" stroke-width="0.398" fill="none" /><path id="144" transform="matrix(1 0 0 -1 0 841)" d="M492.353 410.22L492.353 423.769" stroke="#000000" stroke-width="0.398" fill="none" /><path id="145" transform="matrix(1 0 0 -1 0 841)" d="M97.393 410.02L492.552 410.02" stroke="#000000" stroke-width="0.398" fill="none" /><path id="146" transform="matrix(1 0 0 -1 0 841)" d="M97.194 396.671L97.194 410.22" stroke="#000000" stroke-width="0.398" fill="none" /><path id="152" transform="matrix(1 0 0 -1 0 841)" d="M139.842 396.671L139.842 410.22" stroke="#000000" stroke-width="0.398" fill="none" /><path id="197" transform="matrix(1 0 0 -1 0 841)" d="M492.353 396.671L492.353 410.22" stroke="#000000" stroke-width="0.398" fill="none" /><path id="198" transform="matrix(1 0 0 -1 0 841)" d="M97.393 396.471L492.552 396.471" stroke="#000000" stroke-width="0.398" fill="none" /><path id="199" transform="matrix(1 0 0 -1 0 841)" d="M97.194 383.121L97.194 396.67" stroke="#000000" stroke-width="0.398" fill="none" /><path id="205" transform="matrix(1 0 0 -1 0 841)" d="M139.842 383.121L139.842 396.67" stroke="#000000" stroke-width="0.398" fill="none" /><path id="243" transform="matrix(1 0 0 -1 0 841)" d="M492.353 383.121L492.353 396.67" stroke="#000000" stroke-width="0.398" fill="none" /><path id="244" transform="matrix(1 0 0 -1 0 841)" d="M97.393 382.922L492.552 382.922" stroke="#000000" stroke-width="0.398" fill="none" /><path id="245" transform="matrix(1 0 0 -1 0 841)" d="M97.194 369.572L97.194 383.121" stroke="#000000" stroke-width="0.398" fill="none" /><path id="251" transform="matrix(1 0 0 -1 0 841)" d="M139.842 369.572L139.842 383.121" stroke="#000000" stroke-width="0.398" fill="none" /><path id="286" transform="matrix(1 0 0 -1 0 841)" d="M492.353 369.572L492.353 383.121" stroke="#000000" stroke-width="0.398" fill="none" /><path id="287" transform="matrix(1 0 0 -1 0 841)" d="M97.393 369.373L492.552 369.373" stroke="#000000" stroke-width="0.398" fill="none" /><path id="288" transform="matrix(1 0 0 -1 0 841)" d="M97.194 356.023L97.194 369.572" stroke="#000000" stroke-width="0.398" fill="none" /><path id="294" transform="matrix(1 0 0 -1 0 841)" d="M139.842 356.023L139.842 369.572" stroke="#000000" stroke-width="0.398" fill="none" /><path id="327" transform="matrix(1 0 0 -1 0 841)" d="M492.353 356.023L492.353 369.572" stroke="#000000" stroke-width="0.398" fill="none" /><path id="328" transform="matrix(1 0 0 -1 0 841)" d="M97.393 355.824L492.552 355.824" stroke="#000000" stroke-width="0.398" fill="none" /><path id="329" transform="matrix(1 0 0 -1 0 841)" d="M97.194 342.474L97.194 356.023" stroke="#000000" stroke-width="0.398" fill="none" /><path id="335" transform="matrix(1 0 0 -1 0 841)" d="M139.842 342.474L139.842 356.023" stroke="#000000" stroke-width="0.398" fill="none" /><path id="380" transform="matrix(1 0 0 -1 0 841)" d="M492.353 342.474L492.353 356.023" stroke="#000000" stroke-width="0.398" fill="none" /><path id="381" transform="matrix(1 0 0 -1 0 841)" d="M97.393 342.275L492.552 342.275" stroke="#000000" stroke-width="0.398" fill="none" /><path id="382" transform="matrix(1 0 0 -1 0 841)" d="M97.194 328.925L97.194 342.474" stroke="#000000" stroke-width="0.398" fill="none" /><path id="388" transform="matrix(1 0 0 -1 0 841)" d="M139.842 328.925L139.842 342.474" stroke="#000000" stroke-width="0.398" fill="none" /><path id="422" transform="matrix(1 0 0 -1 0 841)" d="M492.353 328.925L492.353 342.474" stroke="#000000" stroke-width="0.398" fill="none" /><path id="423" transform="matrix(1 0 0 -1 0 841)" d="M97.393 328.725L492.552 328.725" stroke="#000000" stroke-width="0.398" fill="none" /><path id="424" transform="matrix(1 0 0 -1 0 841)" d="M97.194 315.375L97.194 328.924" stroke="#000000" stroke-width="0.398" fill="none" /><path id="430" transform="matrix(1 0 0 -1 0 841)" d="M139.842 315.375L139.842 328.924" stroke="#000000" stroke-width="0.398" fill="none" /><path id="453" transform="matrix(1 0 0 -1 0 841)" d="M492.353 315.375L492.353 328.924" stroke="#000000" stroke-width="0.398" fill="none" /><path id="454" transform="matrix(1 0 0 -1 0 841)" d="M97.393 315.176L492.552 315.176" stroke="#000000" stroke-width="0.398" fill="none" /><path id="455" transform="matrix(1 0 0 -1 0 841)" d="M97.194 301.826L97.194 315.375" stroke="#000000" stroke-width="0.398" fill="none" /><path id="461" transform="matrix(1 0 0 -1 0 841)" d="M139.842 301.826L139.842 315.375" stroke="#000000" stroke-width="0.398" fill="none" /><path id="500" transform="matrix(1 0 0 -1 0 841)" d="M492.353 301.826L492.353 315.375" stroke="#000000" stroke-width="0.398" fill="none" /><path id="501" transform="matrix(1 0 0 -1 0 841)" d="M97.393 301.627L492.552 301.627" stroke="#000000" stroke-width="0.398" fill="none" /><path id="502" transform="matrix(1 0 0 -1 0 841)" d="M97.194 288.277L97.194 301.826" stroke="#000000" stroke-width="0.398" fill="none" /><path id="508" transform="matrix(1 0 0 -1 0 841)" d="M139.842 288.277L139.842 301.826" stroke="#000000" stroke-width="0.398" fill="none" /><path id="544" transform="matrix(1 0 0 -1 0 841)" d="M492.353 288.277L492.353 301.826" stroke="#000000" stroke-width="0.398" fill="none" /><path id="545" transform="matrix(1 0 0 -1 0 841)" d="M97.393 288.078L492.552 288.078" stroke="#000000" stroke-width="0.398" fill="none" /><path id="546" transform="matrix(1 0 0 -1 0 841)" d="M97.194 274.728L97.194 288.277" stroke="#000000" stroke-width="0.398" fill="none" /><path id="552" transform="matrix(1 0 0 -1 0 841)" d="M139.842 274.728L139.842 288.277" stroke="#000000" stroke-width="0.398" fill="none" /><path id="588" transform="matrix(1 0 0 -1 0 841)" d="M492.353 274.728L492.353 288.277" stroke="#000000" stroke-width="0.398" fill="none" /><path id="589" transform="matrix(1 0 0 -1 0 841)" d="M97.393 274.529L492.552 274.529" stroke="#000000" stroke-width="0.398" fill="none" /><path id="590" transform="matrix(1 0 0 -1 0 841)" d="M97.194 261.179L97.194 274.728" stroke="#000000" stroke-width="0.398" fill="none" /><path id="596" transform="matrix(1 0 0 -1 0 841)" d="M139.842 261.179L139.842 274.728" stroke="#000000" stroke-width="0.398" fill="none" /><path id="639" transform="matrix(1 0 0 -1 0 841)" d="M492.353 261.179L492.353 274.728" stroke="#000000" stroke-width="0.398" fill="none" /><path id="640" transform="matrix(1 0 0 -1 0 841)" d="M97.393 260.979L492.552 260.979" stroke="#000000" stroke-width="0.398" fill="none" /><path id="641" transform="matrix(1 0 0 -1 0 841)" d="M97.194 247.63L97.194 261.179" stroke="#000000" stroke-width="0.398" fill="none" /><path id="647" transform="matrix(1 0 0 -1 0 841)" d="M139.842 247.63L139.842 261.179" stroke="#000000" stroke-width="0.398" fill="none" /><path id="685" transform="matrix(1 0 0 -1 0 841)" d="M492.353 247.63L492.353 261.179" stroke="#000000" stroke-width="0.398" fill="none" /><path id="686" transform="matrix(1 0 0 -1 0 841)" d="M97.393 247.43L492.552 247.43" stroke="#000000" stroke-width="0.398" fill="none" /><path id="687" transform="matrix(1 0 0 -1 0 841)" d="M97.194 234.08L97.194 247.629" stroke="#000000" stroke-width="0.398" fill="none" /><path id="693" transform="matrix(1 0 0 -1 0 841)" d="M139.842 234.08L139.842 247.629" stroke="#000000" stroke-width="0.398" fill="none" /><path id="720" transform="matrix(1 0 0 -1 0 841)" d="M492.353 234.08L492.353 247.629" stroke="#000000" stroke-width="0.398" fill="none" /><path id="721" transform="matrix(1 0 0 -1 0 841)" d="M97.393 233.881L492.552 233.881" stroke="#000000" stroke-width="0.398" fill="none" /><path id="722" transform="matrix(1 0 0 -1 0 841)" d="M97.194 220.531L97.194 234.08" stroke="#000000" stroke-width="0.398" fill="none" /><path id="728" transform="matrix(1 0 0 -1 0 841)" d="M139.842 220.531L139.842 234.08" stroke="#000000" stroke-width="0.398" fill="none" /><path id="785" transform="matrix(1 0 0 -1 0 841)" d="M492.353 220.531L492.353 234.08" stroke="#000000" stroke-width="0.398" fill="none" /><path id="786" transform="matrix(1 0 0 -1 0 841)" d="M97.393 220.332L492.552 220.332" stroke="#000000" stroke-width="0.398" fill="none" /><path id="787" transform="matrix(1 0 0 -1 0 841)" d="M97.194 206.982L97.194 220.531" stroke="#000000" stroke-width="0.398" fill="none" /><path id="793" transform="matrix(1 0 0 -1 0 841)" d="M139.842 206.982L139.842 220.531" stroke="#000000" stroke-width="0.398" fill="none" /><path id="843" transform="matrix(1 0 0 -1 0 841)" d="M492.353 206.982L492.353 220.531" stroke="#000000" stroke-width="0.398" fill="none" /><path id="844" transform="matrix(1 0 0 -1 0 841)" d="M97.393 206.783L492.552 206.783" stroke="#000000" stroke-width="0.398" fill="none" /><path id="845" transform="matrix(1 0 0 -1 0 841)" d="M97.194 193.433L97.194 206.982" stroke="#000000" stroke-width="0.398" fill="none" /><path id="851" transform="matrix(1 0 0 -1 0 841)" d="M139.842 193.433L139.842 206.982" stroke="#000000" stroke-width="0.398" fill="none" /><path id="896" transform="matrix(1 0 0 -1 0 841)" d="M492.353 193.433L492.353 206.982" stroke="#000000" stroke-width="0.398" fill="none" /><path id="897" transform="matrix(1 0 0 -1 0 841)" d="M97.393 193.234L492.552 193.234" stroke="#000000" stroke-width="0.398" fill="none" /><path id="898" transform="matrix(1 0 0 -1 0 841)" d="M97.194 179.884L97.194 193.433" stroke="#000000" stroke-width="0.398" fill="none" /><path id="904" transform="matrix(1 0 0 -1 0 841)" d="M139.842 179.884L139.842 193.433" stroke="#000000" stroke-width="0.398" fill="none" /><path id="954" transform="matrix(1 0 0 -1 0 841)" d="M492.353 179.884L492.353 193.433" stroke="#000000" stroke-width="0.398" fill="none" /><path id="955" transform="matrix(1 0 0 -1 0 841)" d="M97.393 179.684L492.552 179.684" stroke="#000000" stroke-width="0.398" fill="none" /><path id="956" transform="matrix(1 0 0 -1 0 841)" d="M97.194 166.334L97.194 179.883" stroke="#000000" stroke-width="0.398" fill="none" /><path id="962" transform="matrix(1 0 0 -1 0 841)" d="M139.842 166.334L139.842 179.883" stroke="#000000" stroke-width="0.398" fill="none" /><path id="1006" transform="matrix(1 0 0 -1 0 841)" d="M492.353 166.334L492.353 179.883" stroke="#000000" stroke-width="0.398" fill="none" /><path id="1007" transform="matrix(1 0 0 -1 0 841)" d="M97.393 166.135L492.552 166.135" stroke="#000000" stroke-width="0.398" fill="none" /><path id="1008" transform="matrix(1 0 0 -1 0 841)" d="M97.194 152.785L97.194 166.334" stroke="#000000" stroke-width="0.398" fill="none" /><path id="1014" transform="matrix(1 0 0 -1 0 841)" d="M139.842 152.785L139.842 166.334" stroke="#000000" stroke-width="0.398" fill="none" /><path id="1052" transform="matrix(1 0 0 -1 0 841)" d="M492.353 152.785L492.353 166.334" stroke="#000000" stroke-width="0.398" fill="none" /><path id="1053" transform="matrix(1 0 0 -1 0 841)" d="M97.393 152.586L492.552 152.586" stroke="#000000" stroke-width="0.398" fill="none" /><path id="1054" transform="matrix(1 0 0 -1 0 841)" d="M97.194 139.236L97.194 152.785" stroke="#000000" stroke-width="0.398" fill="none" /><path id="1060" transform="matrix(1 0 0 -1 0 841)" d="M139.842 139.236L139.842 152.785" stroke="#000000" stroke-width="0.398" fill="none" /><path id="1086" transform="matrix(1 0 0 -1 0 841)" d="M492.353 139.236L492.353 152.785" stroke="#000000" stroke-width="0.398" fill="none" /><path id="1087" transform="matrix(1 0 0 -1 0 841)" d="M97.393 139.037L492.552 139.037" stroke="#000000" stroke-width="0.398" fill="none" /><path id="1088" transform="matrix(1 0 0 -1 0 841)" d="M97.194 125.687L97.194 139.236" stroke="#000000" stroke-width="0.398" fill="none" /><path id="1094" transform="matrix(1 0 0 -1 0 841)" d="M139.842 125.687L139.842 139.236" stroke="#000000" stroke-width="0.398" fill="none" /><path id="1141" transform="matrix(1 0 0 -1 0 841)" d="M492.353 125.687L492.353 139.236" stroke="#000000" stroke-width="0.398" fill="none" /><path id="1142" transform="matrix(1 0 0 -1 0 841)" d="M97.393 125.488L492.552 125.488" stroke="#000000" stroke-width="0.398" fill="none" /><path id="1143" transform="matrix(1 0 0 -1 0 841)" d="M97.194 112.138L97.194 125.687" stroke="#000000" stroke-width="0.398" fill="none" /><path id="1149" transform="matrix(1 0 0 -1 0 841)" d="M139.842 112.138L139.842 125.687" stroke="#000000" stroke-width="0.398" fill="none" /><path id="1184" transform="matrix(1 0 0 -1 0 841)" d="M492.353 112.138L492.353 125.687" stroke="#000000" stroke-width="0.398" fill="none" /><path id="1185" transform="matrix(1 0 0 -1 0 841)" d="M97.393 111.938L492.552 111.938" stroke="#000000" stroke-width="0.398" fill="none" /><path id="1186" transform="matrix(1 0 0 -1 0 841)" d="M97.194 98.589L97.194 112.138" stroke="#000000" stroke-width="0.398" fill="none" /><path id="1192" transform="matrix(1 0 0 -1 0 841)" d="M139.842 98.589L139.842 112.138" stroke="#000000" stroke-width="0.398" fill="none" /><path id="1229" transform="matrix(1 0 0 -1 0 841)" d="M492.353 98.589L492.353 112.138" stroke="#000000" stroke-width="0.398" fill="none" /><path id="1230" transform="matrix(1 0 0 -1 0 841)" d="M97.393 98.389L492.552 98.389" stroke="#000000" stroke-width="0.398" fill="none" /><path id="1231" transform="matrix(1 0 0 -1 0 841)" d="M97.194 85.039L97.194 98.588" stroke="#000000" stroke-width="0.398" fill="none" /><path id="1237" transform="matrix(1 0 0 -1 0 841)" d="M139.842 85.039L139.842 98.588" stroke="#000000" stroke-width="0.398" fill="none" /><path id="1280" transform="matrix(1 0 0 -1 0 841)" d="M492.353 85.039L492.353 98.588" stroke="#000000" stroke-width="0.398" fill="none" /><path id="1281" transform="matrix(1 0 0 -1 0 841)" d="M97.393 84.84L492.552 84.84" stroke="#000000" stroke-width="0.398" fill="none" /></g></g></svg>