<svg xmlns="http://www.w3.org/2000/svg" xmlns:xlink="http://www.w3.org/1999/xlink" id="body_252" preserveAspectRatio="xMinYMin meet" viewBox="0 0 793 1121"><defs><clipPath id="1"><path id="" clip-rule="evenodd" transform="matrix(1 0 0 1 0 0)" d="M0 841L0 -0.8900146L0 -0.8900146L595.276 -0.8900146L595.276 -0.8900146L595.276 841L595.276 841L0 841z" /></clipPath></defs><g transform="matrix(1.333333 0 0 1.333333 0 0)"><g clip-path="url(#1)"><path id="19" transform="matrix(1 0 0 -1 0 841)" d="M85.039 766.564L510.236 766.564" stroke="#000000" stroke-width="0.498" fill="none" /><g transform="matrix(0.375 0 0 0.375 156.451 104.083)"><g transform="matrix(1 0 0 1 0 0)"><image x="0" y="0" xlink:href="img_386.png" width="753" height="727" /></g></g><path id="191" transform="matrix(1 0 0 -1 0 841)" d="M138.653 318.8024L98.96808 338.6448L167.0057 358.908L206.686 348.5669z" stroke="none" fill="#CCCCCC" fill-rule="nonzero" /><path id="201" transform="matrix(1 0 0 -1 0 841)" d="M98.96808 338.6448L98.96808 383.9999L167.0066 392.6852L167.0057 358.908z" stroke="none" fill="#BFBFBF" fill-rule="nonzero" /><path id="210" transform="matrix(1 0 0 -1 0 841)" d="M167.0066 392.6852L167.0057 358.908L206.686 348.5669L206.686 388.2522z" stroke="none" fill="#F2F2F2" fill-rule="nonzero" fill-opacity="0.2" /><path id="219" transform="matrix(1 0 0 -1 0 841)" d="M138.653 375.496L138.653 318.8024L98.96808 338.6448L98.96808 383.9999z" stroke="none" fill="#F2F2F2" fill-rule="nonzero" fill-opacity="0.4980392" /><path id="228" transform="matrix(1 0 0 -1 0 841)" d="M138.653 375.496L98.96808 383.9999L167.0066 392.6852L206.686 388.2522z" stroke="none" fill="#CCCCCC" fill-rule="nonzero" fill-opacity="0.2" /><path id="240" transform="matrix(1 0 0 -1 0 841)" d="M167.0066 392.6852L167.0057 358.908" stroke="#000000" stroke-width="0.79701" stroke-dasharray="3.750053,3.750053" fill="none" /><path id="241" transform="matrix(1 0 0 -1 0 841)" d="M98.96808 338.6448L167.0057 358.908" stroke="#000000" stroke-width="0.79701" stroke-dasharray="3.750053,3.750053" fill="none" /><path id="242" transform="matrix(1 0 0 -1 0 841)" d="M206.686 348.5669L167.0057 358.908" stroke="#000000" stroke-width="0.79701" stroke-dasharray="3.750053,3.750053" fill="none" /><path id="251" transform="matrix(1 0 0 -1 0 841)" d="M138.653 375.496L138.653 318.8024" stroke="#000000" stroke-width="0.79701" fill="none" /><path id="252" transform="matrix(1 0 0 -1 0 841)" d="M87.62868 385.8694L87.62868 339.0436" stroke="#000000" stroke-width="0.3985" fill="none" /><path id="253" transform="matrix(1 0 0 -1 0 841)" d="M85.23764 383.9964C 86.67229 384.375 87.34972 385.2187 87.62868 386.0686C 87.90763 385.2187 88.58507 384.375 90.01971 383.9964" stroke="#000000" stroke-width="0.3985" stroke-linecap="round" fill="none" /><path id="254" transform="matrix(1 0 0 -1 0 841)" d="M90.01971 340.9166C 88.58507 340.538 87.90763 339.6943 87.62868 338.8443C 87.34972 339.6943 86.67229 340.538 85.23764 340.9166" stroke="#000000" stroke-width="0.3985" stroke-linecap="round" fill="none" /><path id="265" transform="matrix(1 0 0 -1 0 841)" d="M93.6488 335.6217L129.798 316.1565" stroke="#000000" stroke-width="0.3985" fill="none" /><path id="266" transform="matrix(1 0 0 -1 0 841)" d="M94.16428 332.6286C 94.51111 334.0712 94.08949 335.0676 93.47339 335.7162C 94.35398 335.5588 95.41792 335.7552 96.43137 336.8389" stroke="#000000" stroke-width="0.3984783" stroke-linecap="round" fill="none" /><path id="267" transform="matrix(1 0 0 -1 0 841)" d="M129.2825 319.1495C 128.9357 317.707 129.3573 316.7106 129.9734 316.062C 129.0928 316.2194 128.0289 316.0229 127.0155 314.9393" stroke="#000000" stroke-width="0.3984783" stroke-linecap="round" fill="none" /><path id="278" transform="matrix(1 0 0 -1 0 841)" d="M211.9909 343.3017L144.6862 313.2953" stroke="#000000" stroke-width="0.3985" fill="none" /><path id="279" transform="matrix(1 0 0 -1 0 841)" d="M209.3067 344.7228C 210.2366 343.5667 211.283 343.2915 212.1729 343.3828C 211.5102 342.782 211.0155 341.8197 211.2539 340.3553" stroke="#000000" stroke-width="0.3984862" stroke-linecap="round" fill="none" /><path id="280" transform="matrix(1 0 0 -1 0 841)" d="M147.3704 311.8742C 146.4405 313.0304 145.3941 313.3056 144.5042 313.2142C 145.1669 313.8151 145.6616 314.7773 145.4232 316.2418" stroke="#000000" stroke-width="0.3984862" stroke-linecap="round" fill="none" /><path id="290" transform="matrix(1 0 0 -1 0 841)" d="M98.96808 338.6448L98.96808 383.9999" stroke="#000000" stroke-width="0.79701" fill="none" /><path id="291" transform="matrix(1 0 0 -1 0 841)" d="M206.686 348.5669L206.686 388.2522" stroke="#000000" stroke-width="0.79701" fill="none" /><path id="292" transform="matrix(1 0 0 -1 0 841)" d="M138.653 375.496L98.96808 383.9999" stroke="#000000" stroke-width="0.79701" fill="none" /><path id="293" transform="matrix(1 0 0 -1 0 841)" d="M138.653 375.496L206.686 388.2522" stroke="#000000" stroke-width="0.79701" fill="none" /><path id="294" transform="matrix(1 0 0 -1 0 841)" d="M138.653 318.8024L98.96808 338.6448" stroke="#000000" stroke-width="0.79701" fill="none" /><path id="295" transform="matrix(1 0 0 -1 0 841)" d="M138.653 318.8024L206.686 348.5669" stroke="#000000" stroke-width="0.79701" fill="none" /><path id="296" transform="matrix(1 0 0 -1 0 841)" d="M98.96808 383.9999L167.0066 392.6852" stroke="#000000" stroke-width="0.79701" fill="none" /><path id="297" transform="matrix(1 0 0 -1 0 841)" d="M206.686 388.2522L167.0066 392.6852" stroke="#000000" stroke-width="0.79701" fill="none" /><path id="354" transform="matrix(1 0 0 -1 0 841)" d="M153.498 290.764L190.883 290.764" stroke="#000000" stroke-width="0.398" fill="none" /><path id="355" transform="matrix(1 0 0 -1 0 841)" d="M153.697 272.271L153.697 290.764" stroke="#000000" stroke-width="0.398" fill="none" /><path id="356" transform="matrix(1 0 0 -1 0 841)" d="M190.683 272.271L190.683 290.764" stroke="#000000" stroke-width="0.398" fill="none" /><path id="357" transform="matrix(1 0 0 -1 0 841)" d="M153.498 272.271L190.883 272.271" stroke="#000000" stroke-width="0.398" fill="none" /><path id="445" transform="matrix(1 0 0 -1 0 841)" d="M181.368 256.891L228.441 256.891" stroke="#000000" stroke-width="0.398" fill="none" /><path id="446" transform="matrix(1 0 0 -1 0 841)" d="M181.567 238.398L181.567 256.891" stroke="#000000" stroke-width="0.398" fill="none" /><path id="447" transform="matrix(1 0 0 -1 0 841)" d="M228.242 238.398L228.242 256.891" stroke="#000000" stroke-width="0.398" fill="none" /><path id="448" transform="matrix(1 0 0 -1 0 841)" d="M181.368 238.398L228.441 238.398" stroke="#000000" stroke-width="0.398" fill="none" /><path id="651" transform="matrix(1 0 0 -1 0 841)" d="M138.653 92.22937L98.96808 112.0719L167.0057 132.335L206.686 121.9939z" stroke="none" fill="#CCCCCC" fill-rule="nonzero" /><path id="652" transform="matrix(1 0 0 -1 0 841)" d="M98.96808 112.0719L98.96808 157.4269L167.0066 166.1122L167.0057 132.335z" stroke="none" fill="#BFBFBF" fill-rule="nonzero" /><path id="661" transform="matrix(1 0 0 -1 0 841)" d="M167.0066 166.1122L167.0057 132.335L206.686 121.9939L206.686 161.6792z" stroke="none" fill="#F2F2F2" fill-rule="nonzero" fill-opacity="0.2" /><path id="670" transform="matrix(1 0 0 -1 0 841)" d="M138.653 148.923L138.653 92.22937L98.96808 112.0719L98.96808 157.4269z" stroke="none" fill="#F2F2F2" fill-rule="nonzero" fill-opacity="0.4980392" /><path id="679" transform="matrix(1 0 0 -1 0 841)" d="M138.653 148.923L98.96808 157.4269L167.0066 166.1122L206.686 161.6792z" stroke="none" fill="#CCCCCC" fill-rule="nonzero" fill-opacity="0.2" /><path id="680" transform="matrix(1 0 0 -1 0 841)" d="M167.0066 166.1122L167.0057 132.335" stroke="#000000" stroke-width="0.79701" stroke-dasharray="3.750053,3.750053" fill="none" /><path id="681" transform="matrix(1 0 0 -1 0 841)" d="M98.96808 112.0719L167.0057 132.335" stroke="#000000" stroke-width="0.79701" stroke-dasharray="3.750053,3.750053" fill="none" /><path id="682" transform="matrix(1 0 0 -1 0 841)" d="M206.686 121.9939L167.0057 132.335" stroke="#000000" stroke-width="0.79701" stroke-dasharray="3.750053,3.750053" fill="none" /><path id="691" transform="matrix(1 0 0 -1 0 841)" d="M138.653 148.923L138.653 92.22937" stroke="#000000" stroke-width="0.79701" fill="none" /><path id="692" transform="matrix(1 0 0 -1 0 841)" d="M87.62868 159.2964L87.62868 112.4706" stroke="#000000" stroke-width="0.3985" fill="none" /><path id="693" transform="matrix(1 0 0 -1 0 841)" d="M85.23764 157.4234C 86.67229 157.802 87.34972 158.6457 87.62868 159.4957C 87.90763 158.6457 88.58507 157.802 90.01971 157.4234" stroke="#000000" stroke-width="0.3985" stroke-linecap="round" fill="none" /><path id="694" transform="matrix(1 0 0 -1 0 841)" d="M90.01971 114.3436C 88.58507 113.965 87.90763 113.1213 87.62868 112.2713C 87.34972 113.1213 86.67229 113.965 85.23764 114.3436" stroke="#000000" stroke-width="0.3985" stroke-linecap="round" fill="none" /><path id="705" transform="matrix(1 0 0 -1 0 841)" d="M93.6488 109.0487L129.798 89.58345" stroke="#000000" stroke-width="0.3985" fill="none" /><path id="706" transform="matrix(1 0 0 -1 0 841)" d="M94.16428 106.0557C 94.51111 107.4982 94.08949 108.4946 93.47339 109.1432C 94.35398 108.9858 95.41792 109.1823 96.43137 110.2659" stroke="#000000" stroke-width="0.3984783" stroke-linecap="round" fill="none" /><path id="707" transform="matrix(1 0 0 -1 0 841)" d="M129.2825 92.57654C 128.9357 91.13396 129.3573 90.13757 129.9734 89.48901C 129.0928 89.64639 128.0289 89.44991 127.0155 88.3663" stroke="#000000" stroke-width="0.3984783" stroke-linecap="round" fill="none" /><path id="718" transform="matrix(1 0 0 -1 0 841)" d="M211.9909 116.7287L144.6862 86.72237" stroke="#000000" stroke-width="0.3985" fill="none" /><path id="719" transform="matrix(1 0 0 -1 0 841)" d="M209.3067 118.1498C 210.2366 116.9937 211.283 116.7185 212.1729 116.8098C 211.5102 116.209 211.0155 115.2467 211.2539 113.7823" stroke="#000000" stroke-width="0.3984862" stroke-linecap="round" fill="none" /><path id="720" transform="matrix(1 0 0 -1 0 841)" d="M147.3704 85.30126C 146.4405 86.45739 145.3941 86.73258 144.5042 86.64125C 145.1669 87.24212 145.6616 88.20435 145.4232 89.66879" stroke="#000000" stroke-width="0.3984862" stroke-linecap="round" fill="none" /><path id="730" transform="matrix(1 0 0 -1 0 841)" d="M98.96808 112.0719L98.96808 157.4269" stroke="#000000" stroke-width="0.79701" fill="none" /><path id="731" transform="matrix(1 0 0 -1 0 841)" d="M206.686 121.9939L206.686 161.6792" stroke="#000000" stroke-width="0.79701" fill="none" /><path id="732" transform="matrix(1 0 0 -1 0 841)" d="M138.653 148.923L98.96808 157.4269" stroke="#000000" stroke-width="0.79701" fill="none" /><path id="733" transform="matrix(1 0 0 -1 0 841)" d="M138.653 148.923L206.686 161.6792" stroke="#000000" stroke-width="0.79701" fill="none" /><path id="734" transform="matrix(1 0 0 -1 0 841)" d="M138.653 92.22937L98.96808 112.0719" stroke="#000000" stroke-width="0.79701" fill="none" /><path id="735" transform="matrix(1 0 0 -1 0 841)" d="M138.653 92.22937L206.686 121.9939" stroke="#000000" stroke-width="0.79701" fill="none" /><path id="736" transform="matrix(1 0 0 -1 0 841)" d="M98.96808 157.4269L167.0066 166.1122" stroke="#000000" stroke-width="0.79701" fill="none" /><path id="737" transform="matrix(1 0 0 -1 0 841)" d="M206.686 161.6792L167.0066 166.1122" stroke="#000000" stroke-width="0.79701" fill="none" /></g></g></svg>