<svg xmlns="http://www.w3.org/2000/svg" xmlns:xlink="http://www.w3.org/1999/xlink" id="body_278" preserveAspectRatio="xMinYMin meet" viewBox="0 0 793 1121"><defs><clipPath id="1"><path id="" clip-rule="evenodd" transform="matrix(1 0 0 1 0 0)" d="M0 841L0 -0.8900146L0 -0.8900146L595.276 -0.8900146L595.276 -0.8900146L595.276 841L595.276 841L0 841z" /></clipPath></defs><g transform="matrix(1.333333 0 0 1.333333 0 0)"><g clip-path="url(#1)"><path id="23" transform="matrix(1 0 0 -1 0 841)" d="M85.039 766.564L510.236 766.564" stroke="#000000" stroke-width="0.498" fill="none" /><path id="619" transform="matrix(1 0 0 -1 0 841)" d="M113.508 448.523L179.322 448.523" stroke="#000000" stroke-width="0.436" fill="none" /><path id="632" transform="matrix(1 0 0 -1 0 841)" d="M190.197 448.523L217.47 448.523" stroke="#000000" stroke-width="0.436" fill="none" /><path id="644" transform="matrix(1 0 0 -1 0 841)" d="M228.346 448.523L254.659 448.523" stroke="#000000" stroke-width="0.436" fill="none" /><path id="661" transform="matrix(1 0 0 -1 0 841)" d="M273.761 448.523L338.507 448.523" stroke="#000000" stroke-width="0.436" fill="none" /><path id="665" transform="matrix(1 0 0 -1 0 841)" d="M269.178 463.88L343.089 463.88" stroke="#000000" stroke-width="0.398" fill="none" /><path id="666" transform="matrix(1 0 0 -1 0 841)" d="M269.377 432.899L269.377 463.88" stroke="#000000" stroke-width="0.398" fill="none" /><path id="667" transform="matrix(1 0 0 -1 0 841)" d="M342.89 432.899L342.89 463.88" stroke="#000000" stroke-width="0.398" fill="none" /><path id="668" transform="matrix(1 0 0 -1 0 841)" d="M269.178 432.899L343.089 432.899" stroke="#000000" stroke-width="0.398" fill="none" /><path id="778" transform="matrix(1 0 0 -1 0 841)" d="M113.508 374.283L179.322 374.283" stroke="#000000" stroke-width="0.436" fill="none" /><path id="795" transform="matrix(1 0 0 -1 0 841)" d="M190.197 374.283L222.924 374.283" stroke="#000000" stroke-width="0.436" fill="none" /><path id="813" transform="matrix(1 0 0 -1 0 841)" d="M255.618 374.283L271.981 374.283" stroke="#000000" stroke-width="0.436" fill="none" /><path id="833" transform="matrix(1 0 0 -1 0 841)" d="M291.085 374.283L377.496 374.283" stroke="#000000" stroke-width="0.436" fill="none" /><path id="837" transform="matrix(1 0 0 -1 0 841)" d="M286.502 389.64L382.079 389.64" stroke="#000000" stroke-width="0.398" fill="none" /><path id="838" transform="matrix(1 0 0 -1 0 841)" d="M286.701 358.659L286.701 389.64" stroke="#000000" stroke-width="0.398" fill="none" /><path id="839" transform="matrix(1 0 0 -1 0 841)" d="M381.879 358.659L381.879 389.64" stroke="#000000" stroke-width="0.398" fill="none" /><path id="840" transform="matrix(1 0 0 -1 0 841)" d="M286.502 358.659L382.079 358.659" stroke="#000000" stroke-width="0.398" fill="none" /><path id="1052" transform="matrix(1 0 0 -1 0 841)" d="M225.897 232.7566L112.5098 232.7566L112.5098 232.7566L112.5098 190.2364L112.5098 190.2364L225.897 190.2364z" stroke="#000000" stroke-width="0.3985" fill="#E3F5FD" fill-rule="nonzero" /><path id="1053" transform="matrix(1 0 0 -1 0 841)" d="M225.897 232.7566L247.7237 254.5833L247.7237 254.5833L247.7237 212.0631L247.7237 212.0631L225.897 190.2364z" stroke="#000000" stroke-width="0.3985" fill="#FFFFFF" fill-rule="nonzero" /><path id="1054" transform="matrix(1 0 0 -1 0 841)" d="M225.897 232.7566L247.7237 254.5833L247.7237 254.5833L247.7237 212.0631L247.7237 212.0631L225.897 190.2364z" stroke="#000000" stroke-width="0.3985" fill="#E3F5FD" fill-rule="nonzero" /><path id="1055" transform="matrix(1 0 0 -1 0 841)" d="M112.5098 246.93L134.3365 268.7567L134.3365 268.7567L134.3365 254.5833L134.3365 254.5833L112.5098 232.7566z" stroke="#000000" stroke-width="0.3985" fill="none" /><path id="1056" transform="matrix(1 0 0 -1 0 841)" d="M225.897 232.7566L112.5098 232.7566L112.5098 232.7566L134.3365 254.5833L134.3365 254.5833L247.7237 254.5833z" stroke="#000000" stroke-width="0.3985" fill="none" /><path id="1057" transform="matrix(1 0 0 -1 0 841)" d="M225.897 246.93L112.5098 246.93L112.5098 246.93L112.5098 232.7566L112.5098 232.7566L225.897 232.7566z" stroke="#000000" stroke-width="0.3985" fill="#FFFFFF" fill-rule="nonzero" /><path id="1058" transform="matrix(1 0 0 -1 0 841)" d="M225.897 246.93L247.7237 268.7567L247.7237 268.7567L247.7237 254.5833L247.7237 254.5833L225.897 232.7566z" stroke="#000000" stroke-width="0.3985" fill="#FFFFFF" fill-rule="nonzero" /><path id="1059" transform="matrix(1 0 0 -1 0 841)" d="M225.897 246.93L247.7237 268.7567L247.7237 268.7567L247.7237 254.5833L247.7237 254.5833L225.897 232.7566z" stroke="#000000" stroke-width="0.3985" fill="#FFFFFF" fill-rule="nonzero" /><path id="1060" transform="matrix(1 0 0 -1 0 841)" d="M225.897 246.93L112.5098 246.93L112.5098 246.93L134.3365 268.7567L134.3365 268.7567L247.7237 268.7567z" stroke="#000000" stroke-width="0.3985" fill="#FFFFFF" fill-rule="nonzero" /><path id="1061" transform="matrix(1 0 0 -1 0 841)" d="M112.9083 181.7323L225.4985 181.7323" stroke="#000000" stroke-width="0.3985" fill="none" /><path id="1062" transform="matrix(1 0 0 -1 0 841)" d="M114.7813 179.3412C 114.4027 180.7759 113.559 181.4533 112.709 181.7323C 113.559 182.0112 114.4027 182.6886 114.7813 184.1233" stroke="#000000" stroke-width="0.3985" stroke-linecap="round" fill="none" /><path id="1063" transform="matrix(1 0 0 -1 0 841)" d="M223.6255 184.1233C 224.0041 182.6886 224.8477 182.0112 225.6977 181.7323C 224.8477 181.4533 224.0041 180.7759 223.6255 179.3412" stroke="#000000" stroke-width="0.3985" stroke-linecap="round" fill="none" /><path id="1071" transform="matrix(1 0 0 -1 0 841)" d="M254.2438 210.4776L254.2438 252.2008" stroke="#000000" stroke-width="0.3985" fill="none" /><path id="1072" transform="matrix(1 0 0 -1 0 841)" d="M256.6348 212.3506C 255.2002 211.972 254.5227 211.1283 254.2438 210.2783C 253.9648 211.1283 253.2874 211.972 251.8528 212.3506" stroke="#000000" stroke-width="0.3985" stroke-linecap="round" fill="none" /><path id="1073" transform="matrix(1 0 0 -1 0 841)" d="M251.8528 250.3278C 253.2874 250.7064 253.9648 251.55 254.2438 252.4C 254.5227 251.55 255.2002 250.7064 256.6348 250.3278" stroke="#000000" stroke-width="0.3985" stroke-linecap="round" fill="none" /><path id="1096" transform="matrix(1 0 0 -1 0 841)" d="M237.2355 201.4068L237.2355 215.3498" stroke="#000000" stroke-width="0.3985" fill="none" /><path id="1097" transform="matrix(1 0 0 -1 0 841)" d="M239.6266 203.2798C 238.1919 202.9012 237.5145 202.0575 237.2355 201.2076C 236.9566 202.0575 236.2792 202.9012 234.8445 203.2798" stroke="#000000" stroke-width="0.3985" stroke-linecap="round" fill="none" /><path id="1098" transform="matrix(1 0 0 -1 0 841)" d="M234.8445 213.4769C 236.2792 213.8554 236.9566 214.6991 237.2355 215.5491C 237.5145 214.6991 238.1919 213.8554 239.6266 213.4769" stroke="#000000" stroke-width="0.3985" stroke-linecap="round" fill="none" /><path id="1118" transform="matrix(1 0 0 -1 0 841)" d="M254.2438 269.209L254.2438 252.9978" stroke="#000000" stroke-width="0.3985" fill="none" /><path id="1119" transform="matrix(1 0 0 -1 0 841)" d="M251.8528 267.336C 253.2874 267.7146 253.9648 268.5583 254.2438 269.4082C 254.5227 268.5583 255.2002 267.7146 256.6348 267.336" stroke="#000000" stroke-width="0.3985" stroke-linecap="round" fill="none" /><path id="1120" transform="matrix(1 0 0 -1 0 841)" d="M256.6348 254.8707C 255.2002 254.4922 254.5227 253.6485 254.2438 252.7985C 253.9648 253.6485 253.2874 254.4922 251.8528 254.8707" stroke="#000000" stroke-width="0.3985" stroke-linecap="round" fill="none" /><path id="1132" transform="matrix(1 0 0 -1 0 841)" d="M253.962 209.7973L226.1788 182.014" stroke="#000000" stroke-width="0.3985" fill="none" /><path id="1133" transform="matrix(1 0 0 -1 0 841)" d="M250.9469 210.1636C 252.2291 209.4169 253.3046 209.5344 254.1029 209.9382C 253.6991 209.1399 253.5816 208.0643 254.3283 206.7822" stroke="#000000" stroke-width="0.3984962" stroke-linecap="round" fill="none" /><path id="1134" transform="matrix(1 0 0 -1 0 841)" d="M229.1939 181.6477C 227.9117 182.3945 226.8362 182.2769 226.0379 181.8732C 226.4417 182.6714 226.5592 183.747 225.8125 185.0291" stroke="#000000" stroke-width="0.3984962" stroke-linecap="round" fill="none" /><path id="1208" transform="matrix(1 0 0 -1 0 841)" d="M207.711 121.856L222.209 121.856" stroke="#000000" stroke-width="0.436" fill="none" /><path id="1214" transform="matrix(1 0 0 -1 0 841)" d="M138.347 104.901L223.404 104.901" stroke="#000000" stroke-width="0.436" fill="none" /><path id="1223" transform="matrix(1 0 0 -1 0 841)" d="M180.876 89.891L197.239 89.891" stroke="#000000" stroke-width="0.436" fill="none" /><path id="1233" transform="matrix(1 0 0 -1 0 841)" d="M237.925 112.66L271.972 112.66" stroke="#000000" stroke-width="0.398" fill="none" /><path id="1234" transform="matrix(1 0 0 -1 0 841)" d="M238.124 98.866L238.124 112.66" stroke="#000000" stroke-width="0.398" fill="none" /><path id="1235" transform="matrix(1 0 0 -1 0 841)" d="M271.773 98.866L271.773 112.66" stroke="#000000" stroke-width="0.398" fill="none" /><path id="1236" transform="matrix(1 0 0 -1 0 841)" d="M237.925 98.866L271.972 98.866" stroke="#000000" stroke-width="0.398" fill="none" /></g></g></svg>