<svg xmlns="http://www.w3.org/2000/svg" xmlns:xlink="http://www.w3.org/1999/xlink" id="body_23" preserveAspectRatio="xMinYMin meet" viewBox="0 0 793 1121"><defs><clipPath id="1"><path id="" clip-rule="evenodd" transform="matrix(1 0 0 1 0 0)" d="M0 841L0 -0.8900146L0 -0.8900146L595.276 -0.8900146L595.276 -0.8900146L595.276 841L595.276 841L0 841z" /></clipPath></defs><g transform="matrix(1.333333 0 0 1.333333 0 0)"><g clip-path="url(#1)"><path id="25" transform="matrix(1 0 0 -1 0 841)" d="M85.039 766.564L510.236 766.564" stroke="#000000" stroke-width="0.498" fill="none" /><path id="215" transform="matrix(1 0 0 -1 0 841)" d="M101.923 677.115L493.353 677.115" stroke="#000000" stroke-width="0.398" fill="none" /><path id="216" transform="matrix(1 0 0 -1 0 841)" d="M102.122 649.817L102.122 676.915" stroke="#000000" stroke-width="0.398" fill="none" /><path id="254" transform="matrix(1 0 0 -1 0 841)" d="M223.848 649.817L223.848 676.915" stroke="#000000" stroke-width="0.398" fill="none" /><path id="292" transform="matrix(1 0 0 -1 0 841)" d="M346.272 649.817L346.272 676.915" stroke="#000000" stroke-width="0.398" fill="none" /><path id="335" transform="matrix(1 0 0 -1 0 841)" d="M493.153 649.817L493.153 676.915" stroke="#000000" stroke-width="0.398" fill="none" /><path id="336" transform="matrix(1 0 0 -1 0 841)" d="M101.923 649.618L493.353 649.618" stroke="#000000" stroke-width="0.398" fill="none" /><path id="337" transform="matrix(1 0 0 -1 0 841)" d="M102.122 635.87L102.122 649.419" stroke="#000000" stroke-width="0.398" fill="none" /><path id="339" transform="matrix(1 0 0 -1 0 841)" d="M223.848 635.87L223.848 649.419" stroke="#000000" stroke-width="0.398" fill="none" /><path id="342" transform="matrix(1 0 0 -1 0 841)" d="M346.272 635.87L346.272 649.419" stroke="#000000" stroke-width="0.398" fill="none" /><path id="349" transform="matrix(1 0 0 -1 0 841)" d="M493.153 635.87L493.153 649.419" stroke="#000000" stroke-width="0.398" fill="none" /><path id="350" transform="matrix(1 0 0 -1 0 841)" d="M101.923 635.671L493.353 635.671" stroke="#000000" stroke-width="0.398" fill="none" /><path id="351" transform="matrix(1 0 0 -1 0 841)" d="M102.122 621.922L102.122 635.471" stroke="#000000" stroke-width="0.398" fill="none" /><path id="354" transform="matrix(1 0 0 -1 0 841)" d="M223.848 621.922L223.848 635.471" stroke="#000000" stroke-width="0.398" fill="none" /><path id="357" transform="matrix(1 0 0 -1 0 841)" d="M346.272 621.922L346.272 635.471" stroke="#000000" stroke-width="0.398" fill="none" /><path id="365" transform="matrix(1 0 0 -1 0 841)" d="M493.153 621.922L493.153 635.471" stroke="#000000" stroke-width="0.398" fill="none" /><path id="366" transform="matrix(1 0 0 -1 0 841)" d="M101.923 621.723L493.353 621.723" stroke="#000000" stroke-width="0.398" fill="none" /><path id="367" transform="matrix(1 0 0 -1 0 841)" d="M102.122 607.974L102.122 621.523" stroke="#000000" stroke-width="0.398" fill="none" /><path id="371" transform="matrix(1 0 0 -1 0 841)" d="M223.848 607.974L223.848 621.523" stroke="#000000" stroke-width="0.398" fill="none" /><path id="374" transform="matrix(1 0 0 -1 0 841)" d="M346.272 607.974L346.272 621.523" stroke="#000000" stroke-width="0.398" fill="none" /><path id="383" transform="matrix(1 0 0 -1 0 841)" d="M493.153 607.974L493.153 621.523" stroke="#000000" stroke-width="0.398" fill="none" /><path id="384" transform="matrix(1 0 0 -1 0 841)" d="M101.923 607.775L493.353 607.775" stroke="#000000" stroke-width="0.398" fill="none" /><path id="385" transform="matrix(1 0 0 -1 0 841)" d="M102.122 594.027L102.122 607.576" stroke="#000000" stroke-width="0.398" fill="none" /><path id="388" transform="matrix(1 0 0 -1 0 841)" d="M223.848 594.027L223.848 607.576" stroke="#000000" stroke-width="0.398" fill="none" /><path id="391" transform="matrix(1 0 0 -1 0 841)" d="M346.272 594.027L346.272 607.576" stroke="#000000" stroke-width="0.398" fill="none" /><path id="399" transform="matrix(1 0 0 -1 0 841)" d="M493.153 594.027L493.153 607.576" stroke="#000000" stroke-width="0.398" fill="none" /><path id="400" transform="matrix(1 0 0 -1 0 841)" d="M101.923 593.827L493.353 593.827" stroke="#000000" stroke-width="0.398" fill="none" /><path id="401" transform="matrix(1 0 0 -1 0 841)" d="M102.122 580.079L102.122 593.628" stroke="#000000" stroke-width="0.398" fill="none" /><path id="403" transform="matrix(1 0 0 -1 0 841)" d="M223.848 580.079L223.848 593.628" stroke="#000000" stroke-width="0.398" fill="none" /><path id="406" transform="matrix(1 0 0 -1 0 841)" d="M346.272 580.079L346.272 593.628" stroke="#000000" stroke-width="0.398" fill="none" /><path id="413" transform="matrix(1 0 0 -1 0 841)" d="M493.153 580.079L493.153 593.628" stroke="#000000" stroke-width="0.398" fill="none" /><path id="414" transform="matrix(1 0 0 -1 0 841)" d="M101.923 579.88L493.353 579.88" stroke="#000000" stroke-width="0.398" fill="none" /><path id="1190" transform="matrix(1 0 0 -1 0 841)" d="M130.223 305.661L465.052 305.661" stroke="#000000" stroke-width="0.398" fill="none" /><path id="1191" transform="matrix(1 0 0 -1 0 841)" d="M130.423 258.892L130.423 305.462" stroke="#000000" stroke-width="0.398" fill="none" /><path id="1196" transform="matrix(1 0 0 -1 0 841)" d="M199.469 258.892L199.469 305.462" stroke="#000000" stroke-width="0.398" fill="none" /><path id="1236" transform="matrix(1 0 0 -1 0 841)" d="M464.853 258.892L464.853 305.462" stroke="#000000" stroke-width="0.398" fill="none" /><path id="1237" transform="matrix(1 0 0 -1 0 841)" d="M130.223 258.693L465.052 258.693" stroke="#000000" stroke-width="0.398" fill="none" /><path id="1238" transform="matrix(1 0 0 -1 0 841)" d="M130.423 244.945L130.423 258.494" stroke="#000000" stroke-width="0.398" fill="none" /><path id="1244" transform="matrix(1 0 0 -1 0 841)" d="M199.469 244.945L199.469 258.494" stroke="#000000" stroke-width="0.398" fill="none" /><path id="1252" transform="matrix(1 0 0 -1 0 841)" d="M464.853 244.945L464.853 258.494" stroke="#000000" stroke-width="0.398" fill="none" /><path id="1253" transform="matrix(1 0 0 -1 0 841)" d="M130.223 244.745L465.052 244.745" stroke="#000000" stroke-width="0.398" fill="none" /><path id="1254" transform="matrix(1 0 0 -1 0 841)" d="M130.423 230.997L130.423 244.546" stroke="#000000" stroke-width="0.398" fill="none" /><path id="1260" transform="matrix(1 0 0 -1 0 841)" d="M199.469 230.997L199.469 244.546" stroke="#000000" stroke-width="0.398" fill="none" /><path id="1268" transform="matrix(1 0 0 -1 0 841)" d="M464.853 230.997L464.853 244.546" stroke="#000000" stroke-width="0.398" fill="none" /><path id="1269" transform="matrix(1 0 0 -1 0 841)" d="M130.223 230.798L465.052 230.798" stroke="#000000" stroke-width="0.398" fill="none" /><path id="1270" transform="matrix(1 0 0 -1 0 841)" d="M130.423 217.049L130.423 230.598" stroke="#000000" stroke-width="0.398" fill="none" /><path id="1276" transform="matrix(1 0 0 -1 0 841)" d="M199.469 217.049L199.469 230.598" stroke="#000000" stroke-width="0.398" fill="none" /><path id="1284" transform="matrix(1 0 0 -1 0 841)" d="M464.853 217.049L464.853 230.598" stroke="#000000" stroke-width="0.398" fill="none" /><path id="1285" transform="matrix(1 0 0 -1 0 841)" d="M130.223 216.85L465.052 216.85" stroke="#000000" stroke-width="0.398" fill="none" /><path id="1286" transform="matrix(1 0 0 -1 0 841)" d="M130.423 203.101L130.423 216.65" stroke="#000000" stroke-width="0.398" fill="none" /><path id="1292" transform="matrix(1 0 0 -1 0 841)" d="M199.469 203.101L199.469 216.65" stroke="#000000" stroke-width="0.398" fill="none" /><path id="1300" transform="matrix(1 0 0 -1 0 841)" d="M464.853 203.101L464.853 216.65" stroke="#000000" stroke-width="0.398" fill="none" /><path id="1301" transform="matrix(1 0 0 -1 0 841)" d="M130.223 202.902L465.052 202.902" stroke="#000000" stroke-width="0.398" fill="none" /><path id="1302" transform="matrix(1 0 0 -1 0 841)" d="M130.423 189.154L130.423 202.703" stroke="#000000" stroke-width="0.398" fill="none" /><path id="1308" transform="matrix(1 0 0 -1 0 841)" d="M199.469 189.154L199.469 202.703" stroke="#000000" stroke-width="0.398" fill="none" /><path id="1316" transform="matrix(1 0 0 -1 0 841)" d="M464.853 189.154L464.853 202.703" stroke="#000000" stroke-width="0.398" fill="none" /><path id="1317" transform="matrix(1 0 0 -1 0 841)" d="M130.223 188.955L465.052 188.955" stroke="#000000" stroke-width="0.398" fill="none" /><path id="1318" transform="matrix(1 0 0 -1 0 841)" d="M130.423 175.206L130.423 188.755" stroke="#000000" stroke-width="0.398" fill="none" /><path id="1380" transform="matrix(1 0 0 -1 0 841)" d="M464.853 175.206L464.853 188.755" stroke="#000000" stroke-width="0.398" fill="none" /><path id="1381" transform="matrix(1 0 0 -1 0 841)" d="M130.223 175.007L465.052 175.007" stroke="#000000" stroke-width="0.398" fill="none" /></g></g></svg>