<svg xmlns="http://www.w3.org/2000/svg" xmlns:xlink="http://www.w3.org/1999/xlink" id="body_333" preserveAspectRatio="xMinYMin meet" viewBox="0 0 793 1121"><defs><clipPath id="1"><path id="" clip-rule="evenodd" transform="matrix(1 0 0 1 0 0)" d="M0 841L0 -0.8900146L0 -0.8900146L595.276 -0.8900146L595.276 -0.8900146L595.276 841L595.276 841L0 841z" /></clipPath></defs><g transform="matrix(1.333333 0 0 1.333333 0 0)"><g clip-path="url(#1)"><path id="34" transform="matrix(1 0 0 -1 0 841)" d="M85.039 766.564L510.236 766.564" stroke="#000000" stroke-width="0.498" fill="none" /><path id="197" transform="matrix(1 0 0 -1 0 841)" d="M164.817 656.573L189.665 656.573" stroke="#000000" stroke-width="0.436" fill="none" /><path id="205" transform="matrix(1 0 0 -1 0 841)" d="M204.186 664.484L243.688 664.484" stroke="#000000" stroke-width="0.398" fill="none" /><path id="206" transform="matrix(1 0 0 -1 0 841)" d="M204.385 650.489L204.385 664.485" stroke="#000000" stroke-width="0.398" fill="none" /><path id="207" transform="matrix(1 0 0 -1 0 841)" d="M243.488 650.489L243.488 664.485" stroke="#000000" stroke-width="0.398" fill="none" /><path id="208" transform="matrix(1 0 0 -1 0 841)" d="M204.186 650.489L243.688 650.489" stroke="#000000" stroke-width="0.398" fill="none" /><path id="549" transform="matrix(1 0 0 -1 0 841)" d="M341.739 526.524L349.615 526.524" stroke="#000000" stroke-width="0.436" fill="none" /><path id="662" transform="matrix(1 0 0 -1 0 841)" d="M165.991 458.778L172.864 458.778" stroke="#000000" stroke-width="0.436" fill="none" /><path id="671" transform="matrix(1 0 0 -1 0 841)" d="M151.962 437.529L158.835 437.529" stroke="#000000" stroke-width="0.436" fill="none" /><path id="759" transform="matrix(1 0 0 -1 0 841)" d="M164.817 366.458L197.17 366.458" stroke="#000000" stroke-width="0.436" fill="none" /><path id="770" transform="matrix(1 0 0 -1 0 841)" d="M211.691 375.04L257.312 375.04" stroke="#000000" stroke-width="0.398" fill="none" /><path id="771" transform="matrix(1 0 0 -1 0 841)" d="M211.89 357.815L211.89 375.04" stroke="#000000" stroke-width="0.398" fill="none" /><path id="772" transform="matrix(1 0 0 -1 0 841)" d="M257.113 357.815L257.113 375.04" stroke="#000000" stroke-width="0.398" fill="none" /><path id="773" transform="matrix(1 0 0 -1 0 841)" d="M211.691 357.815L257.312 357.815" stroke="#000000" stroke-width="0.398" fill="none" /><path id="953" transform="matrix(1 0 0 -1 0 841)" d="M310.31 221.333L369.575 221.333" stroke="#000000" stroke-width="0.436" fill="none" /><path id="976" transform="matrix(1 0 0 -1 0 841)" d="M188.511 188.743L195.384 188.743" stroke="#000000" stroke-width="0.436" fill="none" /><path id="1019" transform="matrix(1 0 0 -1 0 841)" d="M408.058 199.041L450.897 199.041" stroke="#000000" stroke-width="0.398" fill="none" /><path id="1020" transform="matrix(1 0 0 -1 0 841)" d="M408.257 180.548L408.257 199.041" stroke="#000000" stroke-width="0.398" fill="none" /><path id="1021" transform="matrix(1 0 0 -1 0 841)" d="M450.698 180.548L450.698 199.041" stroke="#000000" stroke-width="0.398" fill="none" /><path id="1022" transform="matrix(1 0 0 -1 0 841)" d="M408.058 180.548L450.897 180.548" stroke="#000000" stroke-width="0.398" fill="none" /><path id="1180" transform="matrix(1 0 0 -1 0 841)" d="M372.459 125.626L420.753 125.626" stroke="#000000" stroke-width="0.398" fill="none" /><path id="1181" transform="matrix(1 0 0 -1 0 841)" d="M372.658 107.133L372.658 125.626" stroke="#000000" stroke-width="0.398" fill="none" /><path id="1182" transform="matrix(1 0 0 -1 0 841)" d="M420.554 107.133L420.554 125.626" stroke="#000000" stroke-width="0.398" fill="none" /><path id="1183" transform="matrix(1 0 0 -1 0 841)" d="M372.459 107.133L420.753 107.133" stroke="#000000" stroke-width="0.398" fill="none" /><path id="1197" transform="matrix(1 0 0 -1 0 841)" d="M188.511 89.771L195.384 89.771" stroke="#000000" stroke-width="0.436" fill="none" /><path id="1240" transform="matrix(1 0 0 -1 0 841)" d="M408.058 100.069L450.897 100.069" stroke="#000000" stroke-width="0.398" fill="none" /><path id="1241" transform="matrix(1 0 0 -1 0 841)" d="M408.257 81.576L408.257 100.069" stroke="#000000" stroke-width="0.398" fill="none" /><path id="1242" transform="matrix(1 0 0 -1 0 841)" d="M450.698 81.576L450.698 100.069" stroke="#000000" stroke-width="0.398" fill="none" /><path id="1243" transform="matrix(1 0 0 -1 0 841)" d="M408.058 81.576L450.897 81.576" stroke="#000000" stroke-width="0.398" fill="none" /></g></g></svg>