<svg xmlns="http://www.w3.org/2000/svg" xmlns:xlink="http://www.w3.org/1999/xlink" id="body_253" preserveAspectRatio="xMinYMin meet" viewBox="0 0 793 1121"><defs><clipPath id="1"><path id="" clip-rule="evenodd" transform="matrix(1 0 0 1 0 0)" d="M0 841L0 -0.8900146L0 -0.8900146L595.276 -0.8900146L595.276 -0.8900146L595.276 841L595.276 841L0 841z" /></clipPath></defs><g transform="matrix(1.333333 0 0 1.333333 0 0)"><g clip-path="url(#1)"><path id="17" transform="matrix(1 0 0 -1 0 841)" d="M85.039 766.564L510.236 766.564" stroke="#000000" stroke-width="0.498" fill="none" /><path id="142" transform="matrix(1 0 0 -1 0 841)" d="M291.672 693.63L302.581 693.63" stroke="#000000" stroke-width="0.436" fill="none" /><path id="148" transform="matrix(1 0 0 -1 0 841)" d="M314.921 693.63L320.376 693.63" stroke="#000000" stroke-width="0.436" fill="none" /><path id="324" transform="matrix(1 0 0 -1 0 841)" d="M300.228 605.391L305.683 605.391" stroke="#000000" stroke-width="0.436" fill="none" /><path id="568" transform="matrix(1 0 0 -1 0 841)" d="M233.844 515.529L239.299 515.529" stroke="#000000" stroke-width="0.436" fill="none" /><path id="572" transform="matrix(1 0 0 -1 0 841)" d="M247.144 515.529L252.599 515.529" stroke="#000000" stroke-width="0.436" fill="none" /><path id="577" transform="matrix(1 0 0 -1 0 841)" d="M260.445 515.529L271.354 515.529" stroke="#000000" stroke-width="0.436" fill="none" /><path id="607" transform="matrix(1 0 0 -1 0 841)" d="M245.353 486.375L256.262 486.375" stroke="#000000" stroke-width="0.436" fill="none" /><path id="611" transform="matrix(1 0 0 -1 0 841)" d="M264.108 486.375L269.563 486.375" stroke="#000000" stroke-width="0.436" fill="none" /><path id="707" transform="matrix(1 0 0 -1 0 841)" d="M184.71 434.308L190.165 434.308" stroke="#000000" stroke-width="0.436" fill="none" /><path id="727" transform="matrix(1 0 0 -1 0 841)" d="M290.42 434.308L301.329 434.308" stroke="#000000" stroke-width="0.436" fill="none" /><path id="840" transform="matrix(1 0 0 -1 0 841)" d="M248.654 368.695L254.109 368.695" stroke="#000000" stroke-width="0.436" fill="none" /><path id="844" transform="matrix(1 0 0 -1 0 841)" d="M268.006 368.695L273.461 368.695" stroke="#000000" stroke-width="0.436" fill="none" /><path id="848" transform="matrix(1 0 0 -1 0 841)" d="M289.176 368.695L294.631 368.695" stroke="#000000" stroke-width="0.436" fill="none" /><path id="855" transform="matrix(1 0 0 -1 0 841)" d="M327.917 368.695L333.372 368.695" stroke="#000000" stroke-width="0.436" fill="none" /><path id="859" transform="matrix(1 0 0 -1 0 841)" d="M347.27 368.695L352.725 368.695" stroke="#000000" stroke-width="0.436" fill="none" /><path id="863" transform="matrix(1 0 0 -1 0 841)" d="M368.44 368.695L373.895 368.695" stroke="#000000" stroke-width="0.436" fill="none" /><path id="933" transform="matrix(1 0 0 -1 0 841)" d="M247.265 306.32L252.72 306.32" stroke="#000000" stroke-width="0.436" fill="none" /><path id="939" transform="matrix(1 0 0 -1 0 841)" d="M275.708 306.32L281.163 306.32" stroke="#000000" stroke-width="0.436" fill="none" /><path id="944" transform="matrix(1 0 0 -1 0 841)" d="M298.697 306.32L304.152 306.32" stroke="#000000" stroke-width="0.436" fill="none" /><path id="950" transform="matrix(1 0 0 -1 0 841)" d="M327.14 306.32L332.595 306.32" stroke="#000000" stroke-width="0.436" fill="none" /><path id="960" transform="matrix(1 0 0 -1 0 841)" d="M369.829 306.32L380.738 306.32" stroke="#000000" stroke-width="0.436" fill="none" /><path id="1252" transform="matrix(1 0 0 -1 0 841)" d="M238.602 176.199L244.057 176.199" stroke="#000000" stroke-width="0.436" fill="none" /><path id="1266" transform="matrix(1 0 0 -1 0 841)" d="M312.196 176.199L317.651 176.199" stroke="#000000" stroke-width="0.436" fill="none" /><path id="1270" transform="matrix(1 0 0 -1 0 841)" d="M328.526 176.199L333.981 176.199" stroke="#000000" stroke-width="0.436" fill="none" /><path id="1280" transform="matrix(1 0 0 -1 0 841)" d="M378.491 176.199L383.946 176.199" stroke="#000000" stroke-width="0.436" fill="none" /><path id="1299" transform="matrix(1 0 0 -1 0 841)" d="M185.932 139.337L196.841 139.337" stroke="#000000" stroke-width="0.436" fill="none" /></g></g></svg>