<svg xmlns="http://www.w3.org/2000/svg" xmlns:xlink="http://www.w3.org/1999/xlink" id="body_256" preserveAspectRatio="xMinYMin meet" viewBox="0 0 793 1121"><defs><clipPath id="1"><path id="" clip-rule="evenodd" transform="matrix(1 0 0 1 0 0)" d="M0 841L0 -0.8900146L0 -0.8900146L595.276 -0.8900146L595.276 -0.8900146L595.276 841L595.276 841L0 841z" /></clipPath></defs><g transform="matrix(1.333333 0 0 1.333333 0 0)"><g clip-path="url(#1)"><path id="26" transform="matrix(1 0 0 -1 0 841)" d="M85.039 766.564L510.236 766.564" stroke="#000000" stroke-width="0.498" fill="none" /><path id="84" transform="matrix(1 0 0 -1 0 841)" d="M360.361 744.742L416.725 744.742" stroke="#000000" stroke-width="0.436" fill="none" /><path id="102" transform="matrix(1 0 0 -1 0 841)" d="M458.003 744.742L496.782 744.742" stroke="#000000" stroke-width="0.436" fill="none" /><path id="284" transform="matrix(1 0 0 -1 0 841)" d="M319.942 667.387L336.306 667.387" stroke="#000000" stroke-width="0.436" fill="none" /><path id="297" transform="matrix(1 0 0 -1 0 841)" d="M404.136 675.146L416.365 675.146" stroke="#000000" stroke-width="0.398" fill="none" /><path id="298" transform="matrix(1 0 0 -1 0 841)" d="M404.335 661.471L404.335 675.145" stroke="#000000" stroke-width="0.398" fill="none" /><path id="299" transform="matrix(1 0 0 -1 0 841)" d="M416.166 661.471L416.166 675.145" stroke="#000000" stroke-width="0.398" fill="none" /><path id="300" transform="matrix(1 0 0 -1 0 841)" d="M404.136 661.471L416.365 661.471" stroke="#000000" stroke-width="0.398" fill="none" /><path id="367" transform="matrix(1 0 0 -1 0 841)" d="M360.724 635.567L417.088 635.567" stroke="#000000" stroke-width="0.436" fill="none" /><path id="384" transform="matrix(1 0 0 -1 0 841)" d="M458.973 635.567L492.298 635.567" stroke="#000000" stroke-width="0.436" fill="none" /><path id="587" transform="matrix(1 0 0 -1 0 841)" d="M330.851 544.038L352.669 544.038" stroke="#000000" stroke-width="0.436" fill="none" /><path id="601" transform="matrix(1 0 0 -1 0 841)" d="M425.954 551.797L438.183 551.797" stroke="#000000" stroke-width="0.398" fill="none" /><path id="602" transform="matrix(1 0 0 -1 0 841)" d="M426.154 537.954L426.154 551.797" stroke="#000000" stroke-width="0.398" fill="none" /><path id="603" transform="matrix(1 0 0 -1 0 841)" d="M437.984 537.954L437.984 551.797" stroke="#000000" stroke-width="0.398" fill="none" /><path id="604" transform="matrix(1 0 0 -1 0 841)" d="M425.954 537.954L438.183 537.954" stroke="#000000" stroke-width="0.398" fill="none" /><path id="671" transform="matrix(1 0 0 -1 0 841)" d="M360.361 512.218L416.725 512.218" stroke="#000000" stroke-width="0.436" fill="none" /><path id="689" transform="matrix(1 0 0 -1 0 841)" d="M458.003 512.218L496.782 512.218" stroke="#000000" stroke-width="0.436" fill="none" /><path id="974" transform="matrix(1 0 0 -1 0 841)" d="M410.219 294.885L421.128 294.885" stroke="#000000" stroke-width="0.436" fill="none" /><path id="1421" transform="matrix(1 0 0 -1 0 841)" d="M425.066 140.906L429.942 140.906" stroke="#000000" stroke-width="0.436" fill="none" /><path id="1515" transform="matrix(1 0 0 -1 0 841)" d="M193.863 105.868L198.739 105.868" stroke="#000000" stroke-width="0.436" fill="none" /><path id="1520" transform="matrix(1 0 0 -1 0 841)" d="M214.455 105.868L223.782 105.868" stroke="#000000" stroke-width="0.436" fill="none" /></g></g></svg>