<svg xmlns="http://www.w3.org/2000/svg" xmlns:xlink="http://www.w3.org/1999/xlink" id="body_339" preserveAspectRatio="xMinYMin meet" viewBox="0 0 793 1121"><defs><clipPath id="1"><path id="" clip-rule="evenodd" transform="matrix(1 0 0 1 0 0)" d="M0 841L0 -0.8900146L0 -0.8900146L595.276 -0.8900146L595.276 -0.8900146L595.276 841L595.276 841L0 841z" /></clipPath></defs><g transform="matrix(1.333333 0 0 1.333333 0 0)"><g clip-path="url(#1)"><path id="22" transform="matrix(1 0 0 -1 0 841)" d="M85.039 766.564L510.236 766.564" stroke="#000000" stroke-width="0.498" fill="none" /><path id="351" transform="matrix(1 0 0 -1 0 841)" d="M354.3337 597.7774C 354.3337 621.261 335.297 640.2976 311.8135 640.2976C 288.3299 640.2976 269.2933 621.261 269.2933 597.7774C 269.2933 574.2938 288.3299 555.2572 311.8135 555.2572C 335.297 555.2572 354.3337 574.2938 354.3337 597.7774z" stroke="#000000" stroke-width="0.3985" fill="#F2F2F2" fill-rule="nonzero" /><path id="352" transform="matrix(1 0 0 -1 0 841)" d="M269.2932 597.7774L354.3337 597.7774" stroke="#000000" stroke-width="1.19553" fill="none" /><path id="379" transform="matrix(1 0 0 -1 0 841)" d="M289.1359 560.9265L311.8135 597.7774" stroke="#000000" stroke-width="1.19553" fill="none" /><path id="380" transform="matrix(1 0 0 -1 0 841)" d="M334.491 560.9265L311.8135 597.7774" stroke="#000000" stroke-width="1.19553" fill="none" /><path id="384" transform="matrix(1 0 0 -1 0 841)" d="M113.508 486.949L129.261 486.949" stroke="#000000" stroke-width="0.436" fill="none" /><path id="395" transform="matrix(1 0 0 -1 0 841)" d="M167.132 486.949L184.706 486.949" stroke="#000000" stroke-width="0.436" fill="none" /><path id="415" transform="matrix(1 0 0 -1 0 841)" d="M257.392 486.949L271.334 486.949" stroke="#000000" stroke-width="0.436" fill="none" /><path id="425" transform="matrix(1 0 0 -1 0 841)" d="M113.508 440.218L129.261 440.218" stroke="#000000" stroke-width="0.436" fill="none" /><path id="443" transform="matrix(1 0 0 -1 0 841)" d="M155.885 440.218L187.346 440.218" stroke="#000000" stroke-width="0.436" fill="none" /><path id="459" transform="matrix(1 0 0 -1 0 841)" d="M220.04 440.218L237.014 440.218" stroke="#000000" stroke-width="0.436" fill="none" /><path id="466" transform="matrix(1 0 0 -1 0 841)" d="M247.891 440.218L331.456 440.218" stroke="#000000" stroke-width="0.436" fill="none" /><path id="492" transform="matrix(1 0 0 -1 0 841)" d="M353.241 440.218L367.183 440.218" stroke="#000000" stroke-width="0.436" fill="none" /><path id="507" transform="matrix(1 0 0 -1 0 841)" d="M445.477 440.218L461.797 440.218" stroke="#000000" stroke-width="0.436" fill="none" /><path id="511" transform="matrix(1 0 0 -1 0 841)" d="M409.573 463.726L478.316 463.726L478.316 467.711L409.573 467.711z" stroke="none" fill="#000000" fill-rule="nonzero" /><path id="512" transform="matrix(1 0 0 -1 0 841)" d="M409.573 414.451L413.558 414.451L413.558 465.718L409.573 465.718z" stroke="none" fill="#000000" fill-rule="nonzero" /><path id="513" transform="matrix(1 0 0 -1 0 841)" d="M474.331 414.451L478.316 414.451L478.316 465.718L474.331 465.718z" stroke="none" fill="#000000" fill-rule="nonzero" /><path id="514" transform="matrix(1 0 0 -1 0 841)" d="M409.573 412.458L478.316 412.458L478.316 416.443L409.573 416.443z" stroke="none" fill="#000000" fill-rule="nonzero" /><path id="669" transform="matrix(1 0 0 -1 0 841)" d="M354.3337 309.0144C 354.3337 332.498 335.297 351.5346 311.8135 351.5346C 288.3299 351.5346 269.2933 332.498 269.2933 309.0144C 269.2933 285.5309 288.3299 266.4942 311.8135 266.4942C 335.297 266.4942 354.3337 285.5309 354.3337 309.0144z" stroke="#000000" stroke-width="0.3985" fill="#F2F2F2" fill-rule="nonzero" /><path id="670" transform="matrix(1 0 0 -1 0 841)" d="M269.2932 309.0144L354.3337 309.0144" stroke="#000000" stroke-width="1.19553" fill="none" /><path id="699" transform="matrix(1 0 0 -1 0 841)" d="M289.1359 272.1635L311.8135 309.0144" stroke="#000000" stroke-width="1.19553" fill="none" /><path id="700" transform="matrix(1 0 0 -1 0 841)" d="M334.491 272.1635L311.8135 309.0144" stroke="#000000" stroke-width="1.19553" fill="none" /><path id="704" transform="matrix(1 0 0 -1 0 841)" d="M113.508 184.086L129.261 184.086" stroke="#000000" stroke-width="0.436" fill="none" /><path id="715" transform="matrix(1 0 0 -1 0 841)" d="M167.885 184.086L185.459 184.086" stroke="#000000" stroke-width="0.436" fill="none" /><path id="735" transform="matrix(1 0 0 -1 0 841)" d="M258.648 184.086L272.59 184.086" stroke="#000000" stroke-width="0.436" fill="none" /><path id="759" transform="matrix(1 0 0 -1 0 841)" d="M399.602 184.086L413.544 184.086" stroke="#000000" stroke-width="0.436" fill="none" /><path id="765" transform="matrix(1 0 0 -1 0 841)" d="M457.132 198.186L472.885 198.186" stroke="#000000" stroke-width="0.436" fill="none" /><path id="769" transform="matrix(1 0 0 -1 0 841)" d="M430.012 184.086L500.004 184.086" stroke="#000000" stroke-width="0.436" fill="none" /><path id="776" transform="matrix(1 0 0 -1 0 841)" d="M453.364 170.603L470.938 170.603" stroke="#000000" stroke-width="0.436" fill="none" /><path id="800" transform="matrix(1 0 0 -1 0 841)" d="M175.318 130.826L189.26 130.826" stroke="#000000" stroke-width="0.436" fill="none" /><path id="808" transform="matrix(1 0 0 -1 0 841)" d="M233.437 144.925L249.19 144.925" stroke="#000000" stroke-width="0.436" fill="none" /><path id="812" transform="matrix(1 0 0 -1 0 841)" d="M204.975 130.826L266.741 130.826" stroke="#000000" stroke-width="0.436" fill="none" /><path id="818" transform="matrix(1 0 0 -1 0 841)" d="M220.101 117.343L237.675 117.343" stroke="#000000" stroke-width="0.436" fill="none" /><path id="831" transform="matrix(1 0 0 -1 0 841)" d="M303.235 130.826L317.177 130.826" stroke="#000000" stroke-width="0.436" fill="none" /><path id="833" transform="matrix(1 0 0 -1 0 841)" d="M281.262 151.786L333.697 151.786L333.697 155.771L281.262 155.771z" stroke="none" fill="#000000" fill-rule="nonzero" /><path id="834" transform="matrix(1 0 0 -1 0 841)" d="M281.262 107.284L285.247 107.284L285.247 153.779L281.262 153.779z" stroke="none" fill="#000000" fill-rule="nonzero" /><path id="835" transform="matrix(1 0 0 -1 0 841)" d="M329.711 107.284L333.696 107.284L333.696 153.779L329.711 153.779z" stroke="none" fill="#000000" fill-rule="nonzero" /><path id="836" transform="matrix(1 0 0 -1 0 841)" d="M281.262 105.291L333.697 105.291L333.697 109.276L281.262 109.276z" stroke="none" fill="#000000" fill-rule="nonzero" /></g></g></svg>