<svg xmlns="http://www.w3.org/2000/svg" xmlns:xlink="http://www.w3.org/1999/xlink" id="body_306" preserveAspectRatio="xMinYMin meet" viewBox="0 0 793 1121"><defs><clipPath id="1"><path id="" clip-rule="evenodd" transform="matrix(1 0 0 1 0 0)" d="M0 841L0 -0.8900146L0 -0.8900146L595.276 -0.8900146L595.276 -0.8900146L595.276 841L595.276 841L0 841z" /></clipPath></defs><g transform="matrix(1.333333 0 0 1.333333 0 0)"><g clip-path="url(#1)"><path id="23" transform="matrix(1 0 0 -1 0 841)" d="M85.039 766.564L510.236 766.564" stroke="#000000" stroke-width="0.498" fill="none" /><path id="45" transform="matrix(1 0 0 -1 0 841)" d="M218.628 743.773L236.028 743.773" stroke="#000000" stroke-width="0.436" fill="none" /><path id="64" transform="matrix(1 0 0 -1 0 841)" d="M299.007 743.773L316.407 743.773" stroke="#000000" stroke-width="0.436" fill="none" /><path id="69" transform="matrix(1 0 0 -1 0 841)" d="M192.593 729.81L317.603 729.81" stroke="#000000" stroke-width="0.436" fill="none" /><path id="77" transform="matrix(1 0 0 -1 0 841)" d="M257.825 716.545L274.188 716.545" stroke="#000000" stroke-width="0.436" fill="none" /><path id="92" transform="matrix(1 0 0 -1 0 841)" d="M332.123 737.721L390.008 737.721" stroke="#000000" stroke-width="0.398" fill="none" /><path id="93" transform="matrix(1 0 0 -1 0 841)" d="M332.322 721.669L332.322 737.721" stroke="#000000" stroke-width="0.398" fill="none" /><path id="94" transform="matrix(1 0 0 -1 0 841)" d="M389.808 721.669L389.808 737.721" stroke="#000000" stroke-width="0.398" fill="none" /><path id="95" transform="matrix(1 0 0 -1 0 841)" d="M332.123 721.669L390.008 721.669" stroke="#000000" stroke-width="0.398" fill="none" /><path id="231" transform="matrix(1 0 0 -1 0 841)" d="M207.842 648.288L310.244 648.288" stroke="#000000" stroke-width="0.436" fill="none" /><path id="285" transform="matrix(1 0 0 -1 0 841)" d="M254.074 613.01L335.084 613.01" stroke="#000000" stroke-width="0.436" fill="none" /><path id="338" transform="matrix(1 0 0 -1 0 841)" d="M287.779 577.088L354.381 577.088" stroke="#000000" stroke-width="0.436" fill="none" /><path id="347" transform="matrix(1 0 0 -1 0 841)" d="M364.649 577.088L410.653 577.088" stroke="#000000" stroke-width="0.436" fill="none" /><path id="363" transform="matrix(1 0 0 -1 0 841)" d="M437.285 577.088L453.648 577.088" stroke="#000000" stroke-width="0.436" fill="none" /><path id="376" transform="matrix(1 0 0 -1 0 841)" d="M467.56 585.059L510.236 585.059" stroke="#000000" stroke-width="0.398" fill="none" /><path id="377" transform="matrix(1 0 0 -1 0 841)" d="M467.759 571.004L467.759 585.0601" stroke="#000000" stroke-width="0.398" fill="none" /><path id="378" transform="matrix(1 0 0 -1 0 841)" d="M510.037 571.004L510.037 585.0601" stroke="#000000" stroke-width="0.398" fill="none" /><path id="379" transform="matrix(1 0 0 -1 0 841)" d="M467.56 571.004L510.236 571.004" stroke="#000000" stroke-width="0.398" fill="none" /><path id="382" transform="matrix(1 0 0 -1 0 841)" d="M112.312 550.031L185.87 550.031L185.87 563.514L112.312 563.514z" stroke="none" fill="#BFFF00" fill-rule="nonzero" /><path id="588" transform="matrix(1 0 0 -1 0 841)" d="M320.887 503.843L418.86 503.843" stroke="#000000" stroke-width="0.436" fill="none" /><path id="799" transform="matrix(1 0 0 -1 0 841)" d="M229.175 401.643L265.96 401.643" stroke="#000000" stroke-width="0.436" fill="none" /><path id="818" transform="matrix(1 0 0 -1 0 841)" d="M276.836 401.643L343.438 401.643" stroke="#000000" stroke-width="0.436" fill="none" /><path id="829" transform="matrix(1 0 0 -1 0 841)" d="M354.314 401.643L393.106 401.643" stroke="#000000" stroke-width="0.436" fill="none" /><path id="837" transform="matrix(1 0 0 -1 0 841)" d="M227.98 387.68L394.302 387.68" stroke="#000000" stroke-width="0.436" fill="none" /><path id="860" transform="matrix(1 0 0 -1 0 841)" d="M408.822 397.978L474.286 397.978" stroke="#000000" stroke-width="0.398" fill="none" /><path id="861" transform="matrix(1 0 0 -1 0 841)" d="M409.021 379.037L409.021 397.978" stroke="#000000" stroke-width="0.398" fill="none" /><path id="862" transform="matrix(1 0 0 -1 0 841)" d="M474.087 379.037L474.087 397.978" stroke="#000000" stroke-width="0.398" fill="none" /><path id="863" transform="matrix(1 0 0 -1 0 841)" d="M408.822 379.037L474.286 379.037" stroke="#000000" stroke-width="0.398" fill="none" /><path id="1268" transform="matrix(1 0 0 -1 0 841)" d="M313.407 249.59L338.258 249.59" stroke="#000000" stroke-width="0.436" fill="none" /><path id="1289" transform="matrix(1 0 0 -1 0 841)" d="M392.452 249.59L406.95 249.59" stroke="#000000" stroke-width="0.436" fill="none" /><path id="1295" transform="matrix(1 0 0 -1 0 841)" d="M227.98 232.636L408.146 232.636" stroke="#000000" stroke-width="0.436" fill="none" /><path id="1318" transform="matrix(1 0 0 -1 0 841)" d="M422.666 242.934L488.13 242.934" stroke="#000000" stroke-width="0.398" fill="none" /><path id="1319" transform="matrix(1 0 0 -1 0 841)" d="M422.865 223.994L422.865 242.935" stroke="#000000" stroke-width="0.398" fill="none" /><path id="1320" transform="matrix(1 0 0 -1 0 841)" d="M487.931 223.994L487.931 242.935" stroke="#000000" stroke-width="0.398" fill="none" /><path id="1321" transform="matrix(1 0 0 -1 0 841)" d="M422.666 223.994L488.13 223.994" stroke="#000000" stroke-width="0.398" fill="none" /><path id="1324" transform="matrix(1 0 0 -1 0 841)" d="M112.312 203.414L203.925 203.414L203.925 219.15L112.312 219.15z" stroke="none" fill="#BFFF00" fill-rule="nonzero" /></g></g></svg>