<svg xmlns="http://www.w3.org/2000/svg" xmlns:xlink="http://www.w3.org/1999/xlink" id="body_270" preserveAspectRatio="xMinYMin meet" viewBox="0 0 793 1121"><defs><clipPath id="1"><path id="" clip-rule="evenodd" transform="matrix(1 0 0 1 0 0)" d="M0 841L0 -0.8900146L0 -0.8900146L595.276 -0.8900146L595.276 -0.8900146L595.276 841L595.276 841L0 841z" /></clipPath></defs><g transform="matrix(1.333333 0 0 1.333333 0 0)"><g clip-path="url(#1)"><path id="36" transform="matrix(1 0 0 -1 0 841)" d="M85.039 766.564L510.236 766.564" stroke="#000000" stroke-width="0.498" fill="none" /><path id="38" transform="matrix(1 0 0 -1 0 841)" d="M328.7036 756.6519L263.9464 756.6519C 261.7455 756.6519 259.9613 754.8677 259.9613 752.6667L259.9613 752.6667L259.9613 727.9093C 259.9613 725.7084 261.7455 723.9242 263.9464 723.9242L263.9464 723.9242L328.7036 723.9242C 330.9045 723.9242 332.6887 725.7084 332.6887 727.9093L332.6887 727.9093L332.6887 752.6667C 332.6887 754.8677 330.9045 756.6519 328.7036 756.6519z" stroke="#000000" stroke-width="0.3985" fill="#FF9999" fill-rule="nonzero" /><path id="74" transform="matrix(1 0 0 -1 0 841)" d="M235.5694 740.288L257.3711 740.288" stroke="#000000" stroke-width="0.3985" fill="none" /><path id="75" transform="matrix(1 0 0 -1 0 841)" d="M259.7621 740.288C 258.7658 740.4873 256.9725 740.8858 255.777 741.7824C 256.7733 740.6865 256.7733 739.8895 255.777 738.7936C 256.9725 739.6902 258.7658 740.0887 259.7621 740.288z" stroke="none" fill="#000000" fill-rule="nonzero" /><path id="76" transform="matrix(1 0 0 -1 0 841)" d="M332.8879 740.288L352.0634 740.288" stroke="#000000" stroke-width="0.3985" fill="none" /><path id="77" transform="matrix(1 0 0 -1 0 841)" d="M354.4544 740.288C 353.4582 740.4873 351.6649 740.8858 350.4694 741.7824C 351.4657 740.6865 351.4657 739.8895 350.4694 738.7936C 351.6649 739.6902 353.4582 740.0887 354.4544 740.288z" stroke="none" fill="#000000" fill-rule="nonzero" /><path id="78" transform="matrix(1 0 0 -1 0 841)" d="M296.325 723.725L296.325 708.8895" stroke="#000000" stroke-width="0.3985" fill="none" /><path id="79" transform="matrix(1 0 0 -1 0 841)" d="M296.325 706.4985C 296.5243 707.4948 296.9228 709.288 297.8194 710.4835C 296.7235 709.4873 295.9265 709.4873 294.8306 710.4835C 295.7273 709.288 296.1258 707.4948 296.325 706.4985z" stroke="none" fill="#000000" fill-rule="nonzero" /><path id="647" transform="matrix(1 0 0 -1 0 841)" d="M328.7036 523.4918L263.9464 523.4918C 261.7455 523.4918 259.9613 521.7076 259.9613 519.5067L259.9613 519.5067L259.9613 494.7493C 259.9613 492.5483 261.7455 490.7642 263.9464 490.7642L263.9464 490.7642L328.7036 490.7642C 330.9045 490.7642 332.6887 492.5483 332.6887 494.7493L332.6887 494.7493L332.6887 519.5067C 332.6887 521.7076 330.9045 523.4918 328.7036 523.4918z" stroke="#000000" stroke-width="0.3985" fill="#FF9999" fill-rule="nonzero" /><path id="702" transform="matrix(1 0 0 -1 0 841)" d="M246.7745 507.128L257.3711 507.128" stroke="#000000" stroke-width="0.3985" fill="none" /><path id="703" transform="matrix(1 0 0 -1 0 841)" d="M259.7621 507.128C 258.7658 507.3272 256.9725 507.7257 255.777 508.6224C 256.7733 507.5265 256.7733 506.7295 255.777 505.6336C 256.9725 506.5302 258.7658 506.9287 259.7621 507.128z" stroke="none" fill="#000000" fill-rule="nonzero" /><path id="704" transform="matrix(1 0 0 -1 0 841)" d="M332.8879 507.128L340.8583 507.128" stroke="#000000" stroke-width="0.3985" fill="none" /><path id="705" transform="matrix(1 0 0 -1 0 841)" d="M343.2494 507.128C 342.2531 507.3272 340.4598 507.7257 339.2643 508.6224C 340.2606 507.5265 340.2606 506.7295 339.2643 505.6336C 340.4598 506.5302 342.2531 506.9287 343.2494 507.128z" stroke="none" fill="#000000" fill-rule="nonzero" /><path id="706" transform="matrix(1 0 0 -1 0 841)" d="M296.325 490.5649L296.325 475.7295" stroke="#000000" stroke-width="0.3985" fill="none" /><path id="707" transform="matrix(1 0 0 -1 0 841)" d="M296.325 473.3385C 296.5243 474.3347 296.9228 476.128 297.8194 477.3235C 296.7235 476.3272 295.9265 476.3272 294.8306 477.3235C 295.7273 476.128 296.1258 474.3347 296.325 473.3385z" stroke="none" fill="#000000" fill-rule="nonzero" /><path id="987" transform="matrix(1 0 0 -1 0 841)" d="M330.0166 281.0558L265.2594 281.0558C 263.0585 281.0558 261.2743 279.2717 261.2743 277.0707L261.2743 277.0707L261.2743 252.3133C 261.2743 250.1123 263.0585 248.3282 265.2594 248.3282L265.2594 248.3282L330.0166 248.3282C 332.2175 248.3282 334.0017 250.1123 334.0017 252.3133L334.0017 252.3133L334.0017 277.0707C 334.0017 279.2717 332.2175 281.0558 330.0166 281.0558z" stroke="#000000" stroke-width="0.3985" fill="#FF9999" fill-rule="nonzero" /><path id="1065" transform="matrix(1 0 0 -1 0 841)" d="M211.9193 264.692L258.6841 264.692" stroke="#000000" stroke-width="0.3985" fill="none" /><path id="1066" transform="matrix(1 0 0 -1 0 841)" d="M261.075 264.692C 260.0788 264.8912 258.2855 265.2897 257.09 266.1864C 258.0863 265.0905 258.0863 264.2935 257.09 263.1976C 258.2855 264.0942 260.0788 264.4927 261.075 264.692z" stroke="none" fill="#000000" fill-rule="nonzero" /><path id="1067" transform="matrix(1 0 0 -1 0 841)" d="M334.2009 264.692L380.9657 264.692" stroke="#000000" stroke-width="0.3985" fill="none" /><path id="1068" transform="matrix(1 0 0 -1 0 841)" d="M383.3567 264.692C 382.3604 264.8912 380.5672 265.2897 379.3717 266.1864C 380.368 265.0905 380.368 264.2935 379.3717 263.1976C 380.5672 264.0942 382.3604 264.4927 383.3567 264.692z" stroke="none" fill="#000000" fill-rule="nonzero" /><path id="1069" transform="matrix(1 0 0 -1 0 841)" d="M297.638 248.1289L297.638 233.8527" stroke="#000000" stroke-width="0.3985" fill="none" /><path id="1070" transform="matrix(1 0 0 -1 0 841)" d="M297.638 231.4616C 297.8372 232.4579 298.2357 234.2512 299.1324 235.4467C 298.0365 234.4504 297.2395 234.4504 296.1436 235.4467C 297.0403 234.2512 297.4388 232.4579 297.638 231.4616z" stroke="none" fill="#000000" fill-rule="nonzero" /><path id="1132" transform="matrix(1 0 0 -1 0 841)" d="M244.376 158.017L289.138 158.017" stroke="#000000" stroke-width="0.436" fill="none" /><path id="1158" transform="matrix(1 0 0 -1 0 841)" d="M329.702 158.017L427.733 158.017" stroke="#000000" stroke-width="0.436" fill="none" /></g></g></svg>