<svg xmlns="http://www.w3.org/2000/svg" xmlns:xlink="http://www.w3.org/1999/xlink" id="body_268" preserveAspectRatio="xMinYMin meet" viewBox="0 0 793 1121"><defs><clipPath id="1"><path id="" clip-rule="evenodd" transform="matrix(1 0 0 1 0 0)" d="M0 841L0 -0.8900146L0 -0.8900146L595.276 -0.8900146L595.276 -0.8900146L595.276 841L595.276 841L0 841z" /></clipPath></defs><g transform="matrix(1.333333 0 0 1.333333 0 0)"><g clip-path="url(#1)"><path id="23" transform="matrix(1 0 0 -1 0 841)" d="M85.039 766.564L510.236 766.564" stroke="#000000" stroke-width="0.498" fill="none" /><path id="138" transform="matrix(1 0 0 -1 0 841)" d="M330.0166 687.2598L265.2594 687.2598C 263.0585 687.2598 261.2743 685.4756 261.2743 683.2747L261.2743 683.2747L261.2743 658.5173C 261.2743 656.3163 263.0585 654.5322 265.2594 654.5322L265.2594 654.5322L330.0166 654.5322C 332.2175 654.5322 334.0017 656.3163 334.0017 658.5173L334.0017 658.5173L334.0017 683.2747C 334.0017 685.4756 332.2175 687.2598 330.0166 687.2598z" stroke="#000000" stroke-width="0.3985" fill="#FF9999" fill-rule="nonzero" /><path id="216" transform="matrix(1 0 0 -1 0 841)" d="M211.9193 670.896L258.6841 670.896" stroke="#000000" stroke-width="0.3985" fill="none" /><path id="217" transform="matrix(1 0 0 -1 0 841)" d="M261.075 670.896C 260.0788 671.0953 258.2855 671.4938 257.09 672.3904C 258.0863 671.2945 258.0863 670.4975 257.09 669.4016C 258.2855 670.2982 260.0788 670.6967 261.075 670.896z" stroke="none" fill="#000000" fill-rule="nonzero" /><path id="218" transform="matrix(1 0 0 -1 0 841)" d="M334.2009 670.896L380.9657 670.896" stroke="#000000" stroke-width="0.3985" fill="none" /><path id="219" transform="matrix(1 0 0 -1 0 841)" d="M383.3567 670.896C 382.3604 671.0953 380.5672 671.4938 379.3717 672.3904C 380.368 671.2945 380.368 670.4975 379.3717 669.4016C 380.5672 670.2982 382.3604 670.6967 383.3567 670.896z" stroke="none" fill="#000000" fill-rule="nonzero" /><path id="220" transform="matrix(1 0 0 -1 0 841)" d="M297.638 654.3329L297.638 640.0567" stroke="#000000" stroke-width="0.3985" fill="none" /><path id="221" transform="matrix(1 0 0 -1 0 841)" d="M297.638 637.6656C 297.8372 638.6619 298.2357 640.4551 299.1324 641.6506C 298.0365 640.6544 297.2395 640.6544 296.1436 641.6506C 297.0403 640.4551 297.4388 638.6619 297.638 637.6656z" stroke="none" fill="#000000" fill-rule="nonzero" /><path id="283" transform="matrix(1 0 0 -1 0 841)" d="M244.376 564.025L289.138 564.025" stroke="#000000" stroke-width="0.436" fill="none" /><path id="309" transform="matrix(1 0 0 -1 0 841)" d="M329.702 564.025L427.733 564.025" stroke="#000000" stroke-width="0.436" fill="none" /><path id="538" transform="matrix(1 0 0 -1 0 841)" d="M208.922 438.4L246.904 438.4" stroke="#000000" stroke-width="0.436" fill="none" /><path id="553" transform="matrix(1 0 0 -1 0 841)" d="M301.408 438.4L337.754 438.4" stroke="#000000" stroke-width="0.436" fill="none" /><path id="564" transform="matrix(1 0 0 -1 0 841)" d="M377.123 446.311L403.894 446.311" stroke="#000000" stroke-width="0.398" fill="none" /><path id="565" transform="matrix(1 0 0 -1 0 841)" d="M377.322 432.315L377.322 446.311" stroke="#000000" stroke-width="0.398" fill="none" /><path id="566" transform="matrix(1 0 0 -1 0 841)" d="M403.694 432.315L403.694 446.311" stroke="#000000" stroke-width="0.398" fill="none" /><path id="567" transform="matrix(1 0 0 -1 0 841)" d="M377.123 432.315L403.894 432.315" stroke="#000000" stroke-width="0.398" fill="none" /><path id="609" transform="matrix(1 0 0 -1 0 841)" d="M180.884 339.963L197.204 339.963" stroke="#000000" stroke-width="0.436" fill="none" /><path id="630" transform="matrix(1 0 0 -1 0 841)" d="M283.184 339.963L296.515 339.963" stroke="#000000" stroke-width="0.436" fill="none" /></g></g></svg>