<svg xmlns="http://www.w3.org/2000/svg" xmlns:xlink="http://www.w3.org/1999/xlink" id="body_355" preserveAspectRatio="xMinYMin meet" viewBox="0 0 793 1121"><defs><clipPath id="1"><path id="" clip-rule="evenodd" transform="matrix(1 0 0 1 0 0)" d="M0 841L0 -0.8900146L0 -0.8900146L595.276 -0.8900146L595.276 -0.8900146L595.276 841L595.276 841L0 841z" /></clipPath></defs><g transform="matrix(1.333333 0 0 1.333333 0 0)"><g clip-path="url(#1)"><path id="22" transform="matrix(1 0 0 -1 0 841)" d="M85.039 766.564L510.236 766.564" stroke="#000000" stroke-width="0.498" fill="none" /><path id="45" transform="matrix(1 0 0 -1 0 841)" d="M207.711 743.367L222.209 743.367" stroke="#000000" stroke-width="0.436" fill="none" /><path id="51" transform="matrix(1 0 0 -1 0 841)" d="M138.347 726.412L223.404 726.412" stroke="#000000" stroke-width="0.436" fill="none" /><path id="60" transform="matrix(1 0 0 -1 0 841)" d="M180.876 711.402L197.239 711.402" stroke="#000000" stroke-width="0.436" fill="none" /><path id="70" transform="matrix(1 0 0 -1 0 841)" d="M237.925 734.171L271.972 734.171" stroke="#000000" stroke-width="0.398" fill="none" /><path id="71" transform="matrix(1 0 0 -1 0 841)" d="M238.124 720.377L238.124 734.171" stroke="#000000" stroke-width="0.398" fill="none" /><path id="72" transform="matrix(1 0 0 -1 0 841)" d="M271.773 720.377L271.773 734.171" stroke="#000000" stroke-width="0.398" fill="none" /><path id="73" transform="matrix(1 0 0 -1 0 841)" d="M237.925 720.377L271.972 720.377" stroke="#000000" stroke-width="0.398" fill="none" /><path id="265" transform="matrix(1 0 0 -1 0 841)" d="M154.711 565.504L167.681 565.504" stroke="#000000" stroke-width="0.436" fill="none" /><path id="288" transform="matrix(1 0 0 -1 0 841)" d="M252.711 565.504L287.26 565.504" stroke="#000000" stroke-width="0.436" fill="none" /><path id="305" transform="matrix(1 0 0 -1 0 841)" d="M301.78 573.263L351.58 573.263" stroke="#000000" stroke-width="0.398" fill="none" /><path id="306" transform="matrix(1 0 0 -1 0 841)" d="M301.979 559.349L301.979 573.263" stroke="#000000" stroke-width="0.398" fill="none" /><path id="307" transform="matrix(1 0 0 -1 0 841)" d="M351.381 559.349L351.381 573.263" stroke="#000000" stroke-width="0.398" fill="none" /><path id="308" transform="matrix(1 0 0 -1 0 841)" d="M301.78 559.349L351.58 559.349" stroke="#000000" stroke-width="0.398" fill="none" /><path id="443" transform="matrix(1 0 0 -1 0 841)" d="M169.861 460.908L212.886 460.908" stroke="#000000" stroke-width="0.436" fill="none" /><path id="466" transform="matrix(1 0 0 -1 0 841)" d="M296.106 468.819L337.429 468.819" stroke="#000000" stroke-width="0.398" fill="none" /><path id="467" transform="matrix(1 0 0 -1 0 841)" d="M296.305 454.823L296.305 468.819" stroke="#000000" stroke-width="0.398" fill="none" /><path id="468" transform="matrix(1 0 0 -1 0 841)" d="M337.23 454.823L337.23 468.819" stroke="#000000" stroke-width="0.398" fill="none" /><path id="469" transform="matrix(1 0 0 -1 0 841)" d="M296.106 454.823L337.429 454.823" stroke="#000000" stroke-width="0.398" fill="none" /><path id="586" transform="matrix(1 0 0 -1 0 841)" d="M113.508 355.67L154.058 355.67" stroke="#000000" stroke-width="0.436" fill="none" /><path id="599" transform="matrix(1 0 0 -1 0 841)" d="M189.524 355.67L205.887 355.67" stroke="#000000" stroke-width="0.436" fill="none" /><path id="603" transform="matrix(1 0 0 -1 0 841)" d="M168.578 371.027L210.471 371.027" stroke="#000000" stroke-width="0.398" fill="none" /><path id="604" transform="matrix(1 0 0 -1 0 841)" d="M168.777 342.151L168.777 371.027" stroke="#000000" stroke-width="0.398" fill="none" /><path id="605" transform="matrix(1 0 0 -1 0 841)" d="M210.271 342.151L210.271 371.027" stroke="#000000" stroke-width="0.398" fill="none" /><path id="606" transform="matrix(1 0 0 -1 0 841)" d="M168.578 342.152L210.471 342.152" stroke="#000000" stroke-width="0.398" fill="none" /><path id="727" transform="matrix(1 0 0 -1 0 841)" d="M158.689 281.931L186.136 281.931" stroke="#000000" stroke-width="0.398" fill="none" /><path id="728" transform="matrix(1 0 0 -1 0 841)" d="M158.888 265.944L158.888 281.931" stroke="#000000" stroke-width="0.398" fill="none" /><path id="729" transform="matrix(1 0 0 -1 0 841)" d="M185.936 265.944L185.936 281.931" stroke="#000000" stroke-width="0.398" fill="none" /><path id="730" transform="matrix(1 0 0 -1 0 841)" d="M158.689 265.944L186.136 265.944" stroke="#000000" stroke-width="0.398" fill="none" /><path id="944" transform="matrix(1 0 0 -1 0 841)" d="M112.312 186.03L139.759 186.03" stroke="#000000" stroke-width="0.398" fill="none" /><path id="945" transform="matrix(1 0 0 -1 0 841)" d="M112.511 169.923L112.511 186.03" stroke="#000000" stroke-width="0.398" fill="none" /><path id="946" transform="matrix(1 0 0 -1 0 841)" d="M139.56 169.923L139.56 186.03" stroke="#000000" stroke-width="0.398" fill="none" /><path id="947" transform="matrix(1 0 0 -1 0 841)" d="M112.312 169.923L139.759 169.923" stroke="#000000" stroke-width="0.398" fill="none" /></g></g></svg>