<svg xmlns="http://www.w3.org/2000/svg" xmlns:xlink="http://www.w3.org/1999/xlink" id="body_350" preserveAspectRatio="xMinYMin meet" viewBox="0 0 793 1121"><defs><clipPath id="1"><path id="" clip-rule="evenodd" transform="matrix(1 0 0 1 0 0)" d="M0 841L0 -0.8900146L0 -0.8900146L595.276 -0.8900146L595.276 -0.8900146L595.276 841L595.276 841L0 841z" /></clipPath></defs><g transform="matrix(1.333333 0 0 1.333333 0 0)"><g clip-path="url(#1)"><path id="34" transform="matrix(1 0 0 -1 0 841)" d="M85.039 766.564L510.236 766.564" stroke="#000000" stroke-width="0.498" fill="none" /><path id="151" transform="matrix(1 0 0 -1 0 841)" d="M113.508 682.853L154.058 682.853" stroke="#000000" stroke-width="0.436" fill="none" /><path id="164" transform="matrix(1 0 0 -1 0 841)" d="M189.524 682.853L205.887 682.853" stroke="#000000" stroke-width="0.436" fill="none" /><path id="168" transform="matrix(1 0 0 -1 0 841)" d="M168.578 698.21L210.471 698.21" stroke="#000000" stroke-width="0.398" fill="none" /><path id="169" transform="matrix(1 0 0 -1 0 841)" d="M168.777 669.335L168.777 698.211" stroke="#000000" stroke-width="0.398" fill="none" /><path id="170" transform="matrix(1 0 0 -1 0 841)" d="M210.271 669.335L210.271 698.211" stroke="#000000" stroke-width="0.398" fill="none" /><path id="171" transform="matrix(1 0 0 -1 0 841)" d="M168.578 669.335L210.471 669.335" stroke="#000000" stroke-width="0.398" fill="none" /><path id="292" transform="matrix(1 0 0 -1 0 841)" d="M158.689 609.114L186.136 609.114" stroke="#000000" stroke-width="0.398" fill="none" /><path id="293" transform="matrix(1 0 0 -1 0 841)" d="M158.888 593.127L158.888 609.114" stroke="#000000" stroke-width="0.398" fill="none" /><path id="294" transform="matrix(1 0 0 -1 0 841)" d="M185.936 593.127L185.936 609.114" stroke="#000000" stroke-width="0.398" fill="none" /><path id="295" transform="matrix(1 0 0 -1 0 841)" d="M158.689 593.127L186.136 593.127" stroke="#000000" stroke-width="0.398" fill="none" /><path id="509" transform="matrix(1 0 0 -1 0 841)" d="M112.312 513.213L139.759 513.213" stroke="#000000" stroke-width="0.398" fill="none" /><path id="510" transform="matrix(1 0 0 -1 0 841)" d="M112.511 497.106L112.511 513.213" stroke="#000000" stroke-width="0.398" fill="none" /><path id="511" transform="matrix(1 0 0 -1 0 841)" d="M139.56 497.106L139.56 513.213" stroke="#000000" stroke-width="0.398" fill="none" /><path id="512" transform="matrix(1 0 0 -1 0 841)" d="M112.312 497.106L139.759 497.106" stroke="#000000" stroke-width="0.398" fill="none" /><path id="741" transform="matrix(1 0 0 -1 0 841)" d="M233.649 400.256L261.096 400.256" stroke="#000000" stroke-width="0.398" fill="none" /><path id="742" transform="matrix(1 0 0 -1 0 841)" d="M233.848 384.149L233.848 400.256" stroke="#000000" stroke-width="0.398" fill="none" /><path id="743" transform="matrix(1 0 0 -1 0 841)" d="M260.897 384.149L260.897 400.256" stroke="#000000" stroke-width="0.398" fill="none" /><path id="744" transform="matrix(1 0 0 -1 0 841)" d="M233.649 384.149L261.096 384.149" stroke="#000000" stroke-width="0.398" fill="none" /><path id="864" transform="matrix(1 0 0 -1 0 841)" d="M243.067 313.26L315.895 313.26" stroke="#000000" stroke-width="0.436" fill="none" /><path id="941" transform="matrix(1 0 0 -1 0 841)" d="M462.681 293.457L519.354 293.457" stroke="#000000" stroke-width="0.398" fill="none" /><path id="942" transform="matrix(1 0 0 -1 0 841)" d="M462.881 277.557L462.881 293.457" stroke="#000000" stroke-width="0.398" fill="none" /><path id="943" transform="matrix(1 0 0 -1 0 841)" d="M519.155 277.557L519.155 293.457" stroke="#000000" stroke-width="0.398" fill="none" /><path id="944" transform="matrix(1 0 0 -1 0 841)" d="M462.681 277.557L519.354 277.557" stroke="#000000" stroke-width="0.398" fill="none" /><path id="1141" transform="matrix(1 0 0 -1 0 841)" d="M264.928 154.028L423.707 154.028" stroke="#000000" stroke-width="0.436" fill="none" /><path id="1212" transform="matrix(1 0 0 -1 0 841)" d="M264.928 123.815L411.567 123.815" stroke="#000000" stroke-width="0.436" fill="none" /><path id="1218" transform="matrix(1 0 0 -1 0 841)" d="M266.123 106.01L288.977 106.01" stroke="#000000" stroke-width="0.436" fill="none" /><path id="1233" transform="matrix(1 0 0 -1 0 841)" d="M299.853 106.01L329.743 106.01" stroke="#000000" stroke-width="0.436" fill="none" /><path id="1244" transform="matrix(1 0 0 -1 0 841)" d="M340.619 106.01L374.502 106.01" stroke="#000000" stroke-width="0.436" fill="none" /><path id="1260" transform="matrix(1 0 0 -1 0 841)" d="M385.378 106.01L410.37 106.01" stroke="#000000" stroke-width="0.436" fill="none" /><path id="1274" transform="matrix(1 0 0 -1 0 841)" d="M426.086 131.787L466.329 131.787" stroke="#000000" stroke-width="0.398" fill="none" /><path id="1275" transform="matrix(1 0 0 -1 0 841)" d="M426.286 117.731L426.286 131.787" stroke="#000000" stroke-width="0.398" fill="none" /><path id="1276" transform="matrix(1 0 0 -1 0 841)" d="M466.13 117.731L466.13 131.787" stroke="#000000" stroke-width="0.398" fill="none" /><path id="1277" transform="matrix(1 0 0 -1 0 841)" d="M426.086 117.731L466.329 117.731" stroke="#000000" stroke-width="0.398" fill="none" /></g></g></svg>