<svg xmlns="http://www.w3.org/2000/svg" xmlns:xlink="http://www.w3.org/1999/xlink" id="body_67" preserveAspectRatio="xMinYMin meet" viewBox="0 0 793 1121"><defs><clipPath id="1"><path id="" clip-rule="evenodd" transform="matrix(1 0 0 1 0 0)" d="M0 841L0 -0.8900146L0 -0.8900146L595.276 -0.8900146L595.276 -0.8900146L595.276 841L595.276 841L0 841z" /></clipPath><clipPath id="2"><path id="" clip-rule="evenodd" transform="matrix(1 0 0 1 0 0)" d="M85.039 673.022L603.439 673.022L603.439 673.022L603.439 111.422L603.439 111.422L85.039 111.422z" /></clipPath><clipPath id="3"><path id="" clip-rule="evenodd" transform="matrix(1 0 0 1 0 0)" d="M85.039 673.0219L603.439 673.0219L603.439 673.0219L603.439 111.4219L603.439 111.4219L85.039 111.4219z" /></clipPath><clipPath id="4"><path id="" clip-rule="evenodd" transform="matrix(1 0 0 1 0 0)" d="M101.077 673.0217L574.441 673.0217L574.441 673.0217L574.441 130.1417L574.441 130.1417L101.077 130.1417z" /></clipPath></defs><g transform="matrix(1.333333 0 0 1.333333 0 0)"><g clip-path="url(#1)"><g><g clip-path="url(#2)"><g clip-path="url(#3)"><path id="61" transform="matrix(1 0 0 -1 0 841)" d="M85.039 167.978L603.439 167.978L603.439 167.978L603.439 729.578L603.439 729.578L85.039 729.578z" stroke="none" fill="#FFFFFF" fill-rule="evenodd" /></g><g clip-path="url(#4)"><g transform="matrix(0.2482245 0 0 0.248344 101.077 130.1419)"><g transform="matrix(1 0 0 1 0 0)"><image x="0" y="0" xlink:href="img_86.png" width="1907" height="2186" /></g></g></g></g></g></g></g></svg>