<svg xmlns="http://www.w3.org/2000/svg" xmlns:xlink="http://www.w3.org/1999/xlink" id="body_291" preserveAspectRatio="xMinYMin meet" viewBox="0 0 793 1121"><defs><clipPath id="1"><path id="" clip-rule="evenodd" transform="matrix(1 0 0 1 0 0)" d="M0 841L0 -0.8900146L0 -0.8900146L595.276 -0.8900146L595.276 -0.8900146L595.276 841L595.276 841L0 841z" /></clipPath></defs><g transform="matrix(1.333333 0 0 1.333333 0 0)"><g clip-path="url(#1)"><path id="36" transform="matrix(1 0 0 -1 0 841)" d="M85.039 766.564L510.236 766.564" stroke="#000000" stroke-width="0.498" fill="none" /><path id="244" transform="matrix(1 0 0 -1 0 841)" d="M355.373 688.844L400.274 688.844" stroke="#000000" stroke-width="0.398" fill="none" /><path id="245" transform="matrix(1 0 0 -1 0 841)" d="M355.573 674.718L355.573 688.845" stroke="#000000" stroke-width="0.398" fill="none" /><path id="246" transform="matrix(1 0 0 -1 0 841)" d="M400.075 674.718L400.075 688.845" stroke="#000000" stroke-width="0.398" fill="none" /><path id="247" transform="matrix(1 0 0 -1 0 841)" d="M355.373 674.718L400.274 674.718" stroke="#000000" stroke-width="0.398" fill="none" /><path id="602" transform="matrix(1 0 0 -1 0 841)" d="M328.7036 528.8728L263.9464 528.8728C 261.7455 528.8728 259.9613 527.0886 259.9613 524.8877L259.9613 524.8877L259.9613 500.1302C 259.9613 497.9293 261.7455 496.1451 263.9464 496.1451L263.9464 496.1451L328.7036 496.1451C 330.9045 496.1451 332.6887 497.9293 332.6887 500.1302L332.6887 500.1302L332.6887 524.8877C 332.6887 527.0886 330.9045 528.8728 328.7036 528.8728z" stroke="#000000" stroke-width="0.3985" fill="#FF9999" fill-rule="nonzero" /><path id="638" transform="matrix(1 0 0 -1 0 841)" d="M235.5694 512.509L257.3711 512.509" stroke="#000000" stroke-width="0.3985" fill="none" /><path id="639" transform="matrix(1 0 0 -1 0 841)" d="M259.7621 512.509C 258.7658 512.7083 256.9725 513.1068 255.777 514.0034C 256.7733 512.9075 256.7733 512.1105 255.777 511.0146C 256.9725 511.9112 258.7658 512.3097 259.7621 512.509z" stroke="none" fill="#000000" fill-rule="nonzero" /><path id="640" transform="matrix(1 0 0 -1 0 841)" d="M332.8879 512.509L352.0634 512.509" stroke="#000000" stroke-width="0.3985" fill="none" /><path id="641" transform="matrix(1 0 0 -1 0 841)" d="M354.4544 512.509C 353.4582 512.7083 351.6649 513.1068 350.4694 514.0034C 351.4657 512.9075 351.4657 512.1105 350.4694 511.0146C 351.6649 511.9112 353.4582 512.3097 354.4544 512.509z" stroke="none" fill="#000000" fill-rule="nonzero" /><path id="642" transform="matrix(1 0 0 -1 0 841)" d="M296.325 495.9459L296.325 481.1105" stroke="#000000" stroke-width="0.3985" fill="none" /><path id="643" transform="matrix(1 0 0 -1 0 841)" d="M296.325 478.7195C 296.5243 479.7157 296.9228 481.509 297.8194 482.7045C 296.7235 481.7082 295.9265 481.7082 294.8306 482.7045C 295.7273 481.509 296.1258 479.7157 296.325 478.7195z" stroke="none" fill="#000000" fill-rule="nonzero" /><path id="674" transform="matrix(1 0 0 -1 0 841)" d="M244.376 436.517L289.138 436.517" stroke="#000000" stroke-width="0.436" fill="none" /><path id="1249" transform="matrix(1 0 0 -1 0 841)" d="M328.7036 286.0348L263.9464 286.0348C 261.7455 286.0348 259.9613 284.2507 259.9613 282.0497L259.9613 282.0497L259.9613 257.2923C 259.9613 255.0913 261.7455 253.3072 263.9464 253.3072L263.9464 253.3072L328.7036 253.3072C 330.9045 253.3072 332.6887 255.0913 332.6887 257.2923L332.6887 257.2923L332.6887 282.0497C 332.6887 284.2507 330.9045 286.0348 328.7036 286.0348z" stroke="#000000" stroke-width="0.3985" fill="#FF9999" fill-rule="nonzero" /><path id="1304" transform="matrix(1 0 0 -1 0 841)" d="M246.7745 269.671L257.3711 269.671" stroke="#000000" stroke-width="0.3985" fill="none" /><path id="1305" transform="matrix(1 0 0 -1 0 841)" d="M259.7621 269.671C 258.7658 269.8702 256.9725 270.2687 255.777 271.1654C 256.7733 270.0695 256.7733 269.2725 255.777 268.1766C 256.9725 269.0732 258.7658 269.4717 259.7621 269.671z" stroke="none" fill="#000000" fill-rule="nonzero" /><path id="1306" transform="matrix(1 0 0 -1 0 841)" d="M332.8879 269.671L340.8583 269.671" stroke="#000000" stroke-width="0.3985" fill="none" /><path id="1307" transform="matrix(1 0 0 -1 0 841)" d="M343.2494 269.671C 342.2531 269.8702 340.4598 270.2687 339.2643 271.1654C 340.2606 270.0695 340.2606 269.2725 339.2643 268.1766C 340.4598 269.0732 342.2531 269.4717 343.2494 269.671z" stroke="none" fill="#000000" fill-rule="nonzero" /><path id="1308" transform="matrix(1 0 0 -1 0 841)" d="M296.325 253.1079L296.325 238.2725" stroke="#000000" stroke-width="0.3985" fill="none" /><path id="1309" transform="matrix(1 0 0 -1 0 841)" d="M296.325 235.8815C 296.5243 236.8777 296.9228 238.671 297.8194 239.8665C 296.7235 238.8703 295.9265 238.8703 294.8306 239.8665C 295.7273 238.671 296.1258 236.8777 296.325 235.8815z" stroke="none" fill="#000000" fill-rule="nonzero" /></g></g></svg>