<svg xmlns="http://www.w3.org/2000/svg" xmlns:xlink="http://www.w3.org/1999/xlink" id="body_44" preserveAspectRatio="xMinYMin meet" viewBox="0 0 793 1121"><defs><clipPath id="1"><path id="" clip-rule="evenodd" transform="matrix(1 0 0 1 0 0)" d="M0 841L0 -0.8900146L0 -0.8900146L595.276 -0.8900146L595.276 -0.8900146L595.276 841L595.276 841L0 841z" /></clipPath></defs><g transform="matrix(1.333333 0 0 1.333333 0 0)"><g clip-path="url(#1)"><path id="45" transform="matrix(1 0 0 -1 0 841)" d="M85.039 766.564L510.236 766.564" stroke="#000000" stroke-width="0.498" fill="none" /><path id="46" transform="matrix(1 0 0 -1 0 841)" d="M85.039 756.651L490.13 756.651" stroke="#000000" stroke-width="0.398" fill="none" /><path id="47" transform="matrix(1 0 0 -1 0 841)" d="M85.239 742.903L85.239 756.452" stroke="#000000" stroke-width="0.398" fill="none" /><path id="110" transform="matrix(1 0 0 -1 0 841)" d="M489.931 742.903L489.931 756.452" stroke="#000000" stroke-width="0.398" fill="none" /><path id="111" transform="matrix(1 0 0 -1 0 841)" d="M85.039 742.703L490.13 742.703" stroke="#000000" stroke-width="0.398" fill="none" /><path id="112" transform="matrix(1 0 0 -1 0 841)" d="M85.239 728.955L85.239 742.504" stroke="#000000" stroke-width="0.398" fill="none" /><path id="158" transform="matrix(1 0 0 -1 0 841)" d="M489.931 728.955L489.931 742.504" stroke="#000000" stroke-width="0.398" fill="none" /><path id="159" transform="matrix(1 0 0 -1 0 841)" d="M85.039 728.756L490.13 728.756" stroke="#000000" stroke-width="0.398" fill="none" /><path id="160" transform="matrix(1 0 0 -1 0 841)" d="M97.194 715.007L97.194 728.556" stroke="#000000" stroke-width="0.398" fill="none" /><path id="166" transform="matrix(1 0 0 -1 0 841)" d="M137.42 715.007L137.42 728.556" stroke="#000000" stroke-width="0.398" fill="none" /><path id="203" transform="matrix(1 0 0 -1 0 841)" d="M489.931 715.007L489.931 728.556" stroke="#000000" stroke-width="0.398" fill="none" /><path id="204" transform="matrix(1 0 0 -1 0 841)" d="M97.393 714.808L490.13 714.808" stroke="#000000" stroke-width="0.398" fill="none" /><path id="205" transform="matrix(1 0 0 -1 0 841)" d="M97.194 701.458L97.194 715.007" stroke="#000000" stroke-width="0.398" fill="none" /><path id="211" transform="matrix(1 0 0 -1 0 841)" d="M137.42 701.458L137.42 715.007" stroke="#000000" stroke-width="0.398" fill="none" /><path id="272" transform="matrix(1 0 0 -1 0 841)" d="M489.931 701.458L489.931 715.007" stroke="#000000" stroke-width="0.398" fill="none" /><path id="273" transform="matrix(1 0 0 -1 0 841)" d="M97.393 701.259L490.13 701.259" stroke="#000000" stroke-width="0.398" fill="none" /><path id="274" transform="matrix(1 0 0 -1 0 841)" d="M97.194 687.909L97.194 701.458" stroke="#000000" stroke-width="0.398" fill="none" /><path id="280" transform="matrix(1 0 0 -1 0 841)" d="M137.42 687.909L137.42 701.458" stroke="#000000" stroke-width="0.398" fill="none" /><path id="319" transform="matrix(1 0 0 -1 0 841)" d="M489.931 687.909L489.931 701.458" stroke="#000000" stroke-width="0.398" fill="none" /><path id="320" transform="matrix(1 0 0 -1 0 841)" d="M97.393 687.71L490.13 687.71" stroke="#000000" stroke-width="0.398" fill="none" /><path id="321" transform="matrix(1 0 0 -1 0 841)" d="M97.194 674.36L97.194 687.909" stroke="#000000" stroke-width="0.398" fill="none" /><path id="327" transform="matrix(1 0 0 -1 0 841)" d="M137.42 674.36L137.42 687.909" stroke="#000000" stroke-width="0.398" fill="none" /><path id="361" transform="matrix(1 0 0 -1 0 841)" d="M489.931 674.36L489.931 687.909" stroke="#000000" stroke-width="0.398" fill="none" /><path id="362" transform="matrix(1 0 0 -1 0 841)" d="M97.393 674.161L490.13 674.161" stroke="#000000" stroke-width="0.398" fill="none" /><path id="363" transform="matrix(1 0 0 -1 0 841)" d="M97.194 660.811L97.194 674.36" stroke="#000000" stroke-width="0.398" fill="none" /><path id="369" transform="matrix(1 0 0 -1 0 841)" d="M137.42 660.811L137.42 674.36" stroke="#000000" stroke-width="0.398" fill="none" /><path id="419" transform="matrix(1 0 0 -1 0 841)" d="M489.931 660.811L489.931 674.36" stroke="#000000" stroke-width="0.398" fill="none" /><path id="420" transform="matrix(1 0 0 -1 0 841)" d="M97.393 660.611L490.13 660.611" stroke="#000000" stroke-width="0.398" fill="none" /><path id="421" transform="matrix(1 0 0 -1 0 841)" d="M97.194 647.261L97.194 660.81" stroke="#000000" stroke-width="0.398" fill="none" /><path id="427" transform="matrix(1 0 0 -1 0 841)" d="M137.42 647.261L137.42 660.81" stroke="#000000" stroke-width="0.398" fill="none" /><path id="463" transform="matrix(1 0 0 -1 0 841)" d="M489.931 647.261L489.931 660.81" stroke="#000000" stroke-width="0.398" fill="none" /><path id="464" transform="matrix(1 0 0 -1 0 841)" d="M97.393 647.062L490.13 647.062" stroke="#000000" stroke-width="0.398" fill="none" /><path id="465" transform="matrix(1 0 0 -1 0 841)" d="M97.194 633.712L97.194 647.261" stroke="#000000" stroke-width="0.398" fill="none" /><path id="471" transform="matrix(1 0 0 -1 0 841)" d="M137.42 633.712L137.42 647.261" stroke="#000000" stroke-width="0.398" fill="none" /><path id="505" transform="matrix(1 0 0 -1 0 841)" d="M489.931 633.712L489.931 647.261" stroke="#000000" stroke-width="0.398" fill="none" /><path id="506" transform="matrix(1 0 0 -1 0 841)" d="M97.393 633.513L490.13 633.513" stroke="#000000" stroke-width="0.398" fill="none" /><path id="507" transform="matrix(1 0 0 -1 0 841)" d="M97.194 620.163L97.194 633.712" stroke="#000000" stroke-width="0.398" fill="none" /><path id="513" transform="matrix(1 0 0 -1 0 841)" d="M137.42 620.163L137.42 633.712" stroke="#000000" stroke-width="0.398" fill="none" /><path id="540" transform="matrix(1 0 0 -1 0 841)" d="M489.931 620.163L489.931 633.712" stroke="#000000" stroke-width="0.398" fill="none" /><path id="541" transform="matrix(1 0 0 -1 0 841)" d="M97.393 619.964L490.13 619.964" stroke="#000000" stroke-width="0.398" fill="none" /><path id="542" transform="matrix(1 0 0 -1 0 841)" d="M97.194 606.614L97.194 620.163" stroke="#000000" stroke-width="0.398" fill="none" /><path id="548" transform="matrix(1 0 0 -1 0 841)" d="M137.42 606.614L137.42 620.163" stroke="#000000" stroke-width="0.398" fill="none" /><path id="581" transform="matrix(1 0 0 -1 0 841)" d="M489.931 606.614L489.931 620.163" stroke="#000000" stroke-width="0.398" fill="none" /><path id="582" transform="matrix(1 0 0 -1 0 841)" d="M97.393 606.415L490.13 606.415" stroke="#000000" stroke-width="0.398" fill="none" /><path id="583" transform="matrix(1 0 0 -1 0 841)" d="M97.194 593.065L97.194 606.614" stroke="#000000" stroke-width="0.398" fill="none" /><path id="589" transform="matrix(1 0 0 -1 0 841)" d="M137.42 593.065L137.42 606.614" stroke="#000000" stroke-width="0.398" fill="none" /><path id="636" transform="matrix(1 0 0 -1 0 841)" d="M489.931 593.065L489.931 606.614" stroke="#000000" stroke-width="0.398" fill="none" /><path id="637" transform="matrix(1 0 0 -1 0 841)" d="M97.393 592.865L490.13 592.865" stroke="#000000" stroke-width="0.398" fill="none" /><path id="638" transform="matrix(1 0 0 -1 0 841)" d="M97.194 579.516L97.194 593.065" stroke="#000000" stroke-width="0.398" fill="none" /><path id="644" transform="matrix(1 0 0 -1 0 841)" d="M137.42 579.516L137.42 593.065" stroke="#000000" stroke-width="0.398" fill="none" /><path id="686" transform="matrix(1 0 0 -1 0 841)" d="M489.931 579.516L489.931 593.065" stroke="#000000" stroke-width="0.398" fill="none" /><path id="687" transform="matrix(1 0 0 -1 0 841)" d="M97.393 579.316L490.13 579.316" stroke="#000000" stroke-width="0.398" fill="none" /><path id="688" transform="matrix(1 0 0 -1 0 841)" d="M97.194 565.966L97.194 579.515" stroke="#000000" stroke-width="0.398" fill="none" /><path id="694" transform="matrix(1 0 0 -1 0 841)" d="M137.42 565.966L137.42 579.515" stroke="#000000" stroke-width="0.398" fill="none" /><path id="738" transform="matrix(1 0 0 -1 0 841)" d="M489.931 565.966L489.931 579.515" stroke="#000000" stroke-width="0.398" fill="none" /><path id="739" transform="matrix(1 0 0 -1 0 841)" d="M97.393 565.767L490.13 565.767" stroke="#000000" stroke-width="0.398" fill="none" /><path id="740" transform="matrix(1 0 0 -1 0 841)" d="M97.194 552.417L97.194 565.966" stroke="#000000" stroke-width="0.398" fill="none" /><path id="746" transform="matrix(1 0 0 -1 0 841)" d="M137.42 552.417L137.42 565.966" stroke="#000000" stroke-width="0.398" fill="none" /><path id="786" transform="matrix(1 0 0 -1 0 841)" d="M489.931 552.417L489.931 565.966" stroke="#000000" stroke-width="0.398" fill="none" /><path id="787" transform="matrix(1 0 0 -1 0 841)" d="M97.393 552.218L490.13 552.218" stroke="#000000" stroke-width="0.398" fill="none" /><path id="788" transform="matrix(1 0 0 -1 0 841)" d="M97.194 538.868L97.194 552.417" stroke="#000000" stroke-width="0.398" fill="none" /><path id="794" transform="matrix(1 0 0 -1 0 841)" d="M137.42 538.868L137.42 552.417" stroke="#000000" stroke-width="0.398" fill="none" /><path id="852" transform="matrix(1 0 0 -1 0 841)" d="M489.931 538.868L489.931 552.417" stroke="#000000" stroke-width="0.398" fill="none" /><path id="853" transform="matrix(1 0 0 -1 0 841)" d="M97.393 538.669L490.13 538.669" stroke="#000000" stroke-width="0.398" fill="none" /><path id="854" transform="matrix(1 0 0 -1 0 841)" d="M97.194 525.319L97.194 538.868" stroke="#000000" stroke-width="0.398" fill="none" /><path id="860" transform="matrix(1 0 0 -1 0 841)" d="M137.42 525.319L137.42 538.868" stroke="#000000" stroke-width="0.398" fill="none" /><path id="889" transform="matrix(1 0 0 -1 0 841)" d="M489.931 525.319L489.931 538.868" stroke="#000000" stroke-width="0.398" fill="none" /><path id="890" transform="matrix(1 0 0 -1 0 841)" d="M97.393 525.12L490.13 525.12" stroke="#000000" stroke-width="0.398" fill="none" /><path id="891" transform="matrix(1 0 0 -1 0 841)" d="M97.194 511.77L97.194 525.319" stroke="#000000" stroke-width="0.398" fill="none" /><path id="897" transform="matrix(1 0 0 -1 0 841)" d="M137.42 511.77L137.42 525.319" stroke="#000000" stroke-width="0.398" fill="none" /><path id="935" transform="matrix(1 0 0 -1 0 841)" d="M489.931 511.77L489.931 525.319" stroke="#000000" stroke-width="0.398" fill="none" /><path id="936" transform="matrix(1 0 0 -1 0 841)" d="M97.393 511.57L490.13 511.57" stroke="#000000" stroke-width="0.398" fill="none" /><path id="937" transform="matrix(1 0 0 -1 0 841)" d="M97.194 498.22L97.194 511.769" stroke="#000000" stroke-width="0.398" fill="none" /><path id="943" transform="matrix(1 0 0 -1 0 841)" d="M137.42 498.22L137.42 511.769" stroke="#000000" stroke-width="0.398" fill="none" /><path id="973" transform="matrix(1 0 0 -1 0 841)" d="M489.931 498.22L489.931 511.769" stroke="#000000" stroke-width="0.398" fill="none" /><path id="974" transform="matrix(1 0 0 -1 0 841)" d="M97.393 498.021L490.13 498.021" stroke="#000000" stroke-width="0.398" fill="none" /><path id="975" transform="matrix(1 0 0 -1 0 841)" d="M97.194 484.671L97.194 498.22" stroke="#000000" stroke-width="0.398" fill="none" /><path id="981" transform="matrix(1 0 0 -1 0 841)" d="M137.42 484.671L137.42 498.22" stroke="#000000" stroke-width="0.398" fill="none" /><path id="1034" transform="matrix(1 0 0 -1 0 841)" d="M489.931 484.671L489.931 498.22" stroke="#000000" stroke-width="0.398" fill="none" /><path id="1035" transform="matrix(1 0 0 -1 0 841)" d="M97.393 484.472L490.13 484.472" stroke="#000000" stroke-width="0.398" fill="none" /><path id="1036" transform="matrix(1 0 0 -1 0 841)" d="M97.194 471.122L97.194 484.671" stroke="#000000" stroke-width="0.398" fill="none" /><path id="1042" transform="matrix(1 0 0 -1 0 841)" d="M137.42 471.122L137.42 484.671" stroke="#000000" stroke-width="0.398" fill="none" /><path id="1073" transform="matrix(1 0 0 -1 0 841)" d="M489.931 471.122L489.931 484.671" stroke="#000000" stroke-width="0.398" fill="none" /><path id="1074" transform="matrix(1 0 0 -1 0 841)" d="M97.393 470.923L490.13 470.923" stroke="#000000" stroke-width="0.398" fill="none" /><path id="1075" transform="matrix(1 0 0 -1 0 841)" d="M97.194 457.573L97.194 471.122" stroke="#000000" stroke-width="0.398" fill="none" /><path id="1081" transform="matrix(1 0 0 -1 0 841)" d="M137.42 457.573L137.42 471.122" stroke="#000000" stroke-width="0.398" fill="none" /><path id="1132" transform="matrix(1 0 0 -1 0 841)" d="M489.931 457.573L489.931 471.122" stroke="#000000" stroke-width="0.398" fill="none" /><path id="1133" transform="matrix(1 0 0 -1 0 841)" d="M97.393 457.374L490.13 457.374" stroke="#000000" stroke-width="0.398" fill="none" /><path id="1134" transform="matrix(1 0 0 -1 0 841)" d="M97.194 444.024L97.194 457.573" stroke="#000000" stroke-width="0.398" fill="none" /><path id="1140" transform="matrix(1 0 0 -1 0 841)" d="M137.42 444.024L137.42 457.573" stroke="#000000" stroke-width="0.398" fill="none" /><path id="1174" transform="matrix(1 0 0 -1 0 841)" d="M489.931 444.024L489.931 457.573" stroke="#000000" stroke-width="0.398" fill="none" /><path id="1175" transform="matrix(1 0 0 -1 0 841)" d="M97.393 443.824L490.13 443.824" stroke="#000000" stroke-width="0.398" fill="none" /><path id="1176" transform="matrix(1 0 0 -1 0 841)" d="M97.194 430.475L97.194 444.024" stroke="#000000" stroke-width="0.398" fill="none" /><path id="1182" transform="matrix(1 0 0 -1 0 841)" d="M137.42 430.475L137.42 444.024" stroke="#000000" stroke-width="0.398" fill="none" /><path id="1209" transform="matrix(1 0 0 -1 0 841)" d="M489.931 430.475L489.931 444.024" stroke="#000000" stroke-width="0.398" fill="none" /><path id="1210" transform="matrix(1 0 0 -1 0 841)" d="M97.393 430.275L490.13 430.275" stroke="#000000" stroke-width="0.398" fill="none" /><path id="1211" transform="matrix(1 0 0 -1 0 841)" d="M97.194 416.925L97.194 430.474" stroke="#000000" stroke-width="0.398" fill="none" /><path id="1217" transform="matrix(1 0 0 -1 0 841)" d="M137.42 416.925L137.42 430.474" stroke="#000000" stroke-width="0.398" fill="none" /><path id="1269" transform="matrix(1 0 0 -1 0 841)" d="M489.931 416.925L489.931 430.474" stroke="#000000" stroke-width="0.398" fill="none" /><path id="1270" transform="matrix(1 0 0 -1 0 841)" d="M97.393 416.726L490.13 416.726" stroke="#000000" stroke-width="0.398" fill="none" /><path id="1271" transform="matrix(1 0 0 -1 0 841)" d="M97.194 403.376L97.194 416.925" stroke="#000000" stroke-width="0.398" fill="none" /><path id="1277" transform="matrix(1 0 0 -1 0 841)" d="M137.42 403.376L137.42 416.925" stroke="#000000" stroke-width="0.398" fill="none" /><path id="1315" transform="matrix(1 0 0 -1 0 841)" d="M489.931 403.376L489.931 416.925" stroke="#000000" stroke-width="0.398" fill="none" /><path id="1316" transform="matrix(1 0 0 -1 0 841)" d="M97.393 403.177L490.13 403.177" stroke="#000000" stroke-width="0.398" fill="none" /><path id="1317" transform="matrix(1 0 0 -1 0 841)" d="M97.194 389.827L97.194 403.376" stroke="#000000" stroke-width="0.398" fill="none" /><path id="1323" transform="matrix(1 0 0 -1 0 841)" d="M137.42 389.827L137.42 403.376" stroke="#000000" stroke-width="0.398" fill="none" /><path id="1382" transform="matrix(1 0 0 -1 0 841)" d="M489.931 389.827L489.931 403.376" stroke="#000000" stroke-width="0.398" fill="none" /><path id="1383" transform="matrix(1 0 0 -1 0 841)" d="M97.393 389.628L490.13 389.628" stroke="#000000" stroke-width="0.398" fill="none" /><path id="1384" transform="matrix(1 0 0 -1 0 841)" d="M97.194 376.278L97.194 389.827" stroke="#000000" stroke-width="0.398" fill="none" /><path id="1390" transform="matrix(1 0 0 -1 0 841)" d="M137.42 376.278L137.42 389.827" stroke="#000000" stroke-width="0.398" fill="none" /><path id="1424" transform="matrix(1 0 0 -1 0 841)" d="M489.931 376.278L489.931 389.827" stroke="#000000" stroke-width="0.398" fill="none" /><path id="1425" transform="matrix(1 0 0 -1 0 841)" d="M97.393 376.079L490.13 376.079" stroke="#000000" stroke-width="0.398" fill="none" /><path id="1426" transform="matrix(1 0 0 -1 0 841)" d="M97.194 362.729L97.194 376.278" stroke="#000000" stroke-width="0.398" fill="none" /><path id="1432" transform="matrix(1 0 0 -1 0 841)" d="M137.42 362.729L137.42 376.278" stroke="#000000" stroke-width="0.398" fill="none" /><path id="1457" transform="matrix(1 0 0 -1 0 841)" d="M489.931 362.729L489.931 376.278" stroke="#000000" stroke-width="0.398" fill="none" /><path id="1458" transform="matrix(1 0 0 -1 0 841)" d="M97.393 362.529L490.13 362.529" stroke="#000000" stroke-width="0.398" fill="none" /><path id="1459" transform="matrix(1 0 0 -1 0 841)" d="M97.194 349.179L97.194 362.728" stroke="#000000" stroke-width="0.398" fill="none" /><path id="1465" transform="matrix(1 0 0 -1 0 841)" d="M137.42 349.179L137.42 362.728" stroke="#000000" stroke-width="0.398" fill="none" /><path id="1499" transform="matrix(1 0 0 -1 0 841)" d="M489.931 349.179L489.931 362.728" stroke="#000000" stroke-width="0.398" fill="none" /><path id="1500" transform="matrix(1 0 0 -1 0 841)" d="M97.393 348.98L490.13 348.98" stroke="#000000" stroke-width="0.398" fill="none" /><path id="1501" transform="matrix(1 0 0 -1 0 841)" d="M97.194 335.63L97.194 349.179" stroke="#000000" stroke-width="0.398" fill="none" /><path id="1507" transform="matrix(1 0 0 -1 0 841)" d="M137.42 335.63L137.42 349.179" stroke="#000000" stroke-width="0.398" fill="none" /><path id="1550" transform="matrix(1 0 0 -1 0 841)" d="M489.931 335.63L489.931 349.179" stroke="#000000" stroke-width="0.398" fill="none" /><path id="1551" transform="matrix(1 0 0 -1 0 841)" d="M97.393 335.431L490.13 335.431" stroke="#000000" stroke-width="0.398" fill="none" /><path id="1552" transform="matrix(1 0 0 -1 0 841)" d="M97.194 322.081L97.194 335.63" stroke="#000000" stroke-width="0.398" fill="none" /><path id="1558" transform="matrix(1 0 0 -1 0 841)" d="M137.42 322.081L137.42 335.63" stroke="#000000" stroke-width="0.398" fill="none" /><path id="1598" transform="matrix(1 0 0 -1 0 841)" d="M489.931 322.081L489.931 335.63" stroke="#000000" stroke-width="0.398" fill="none" /><path id="1599" transform="matrix(1 0 0 -1 0 841)" d="M97.393 321.882L490.13 321.882" stroke="#000000" stroke-width="0.398" fill="none" /><path id="1600" transform="matrix(1 0 0 -1 0 841)" d="M97.194 308.532L97.194 322.081" stroke="#000000" stroke-width="0.398" fill="none" /><path id="1606" transform="matrix(1 0 0 -1 0 841)" d="M137.42 308.532L137.42 322.081" stroke="#000000" stroke-width="0.398" fill="none" /><path id="1628" transform="matrix(1 0 0 -1 0 841)" d="M489.931 308.532L489.931 322.081" stroke="#000000" stroke-width="0.398" fill="none" /><path id="1629" transform="matrix(1 0 0 -1 0 841)" d="M97.393 308.333L490.13 308.333" stroke="#000000" stroke-width="0.398" fill="none" /><path id="1630" transform="matrix(1 0 0 -1 0 841)" d="M97.194 294.983L97.194 308.532" stroke="#000000" stroke-width="0.398" fill="none" /><path id="1636" transform="matrix(1 0 0 -1 0 841)" d="M137.42 294.983L137.42 308.532" stroke="#000000" stroke-width="0.398" fill="none" /><path id="1670" transform="matrix(1 0 0 -1 0 841)" d="M489.931 294.983L489.931 308.532" stroke="#000000" stroke-width="0.398" fill="none" /><path id="1671" transform="matrix(1 0 0 -1 0 841)" d="M97.393 294.783L490.13 294.783" stroke="#000000" stroke-width="0.398" fill="none" /><path id="1672" transform="matrix(1 0 0 -1 0 841)" d="M97.194 281.434L97.194 294.983" stroke="#000000" stroke-width="0.398" fill="none" /><path id="1678" transform="matrix(1 0 0 -1 0 841)" d="M137.42 281.434L137.42 294.983" stroke="#000000" stroke-width="0.398" fill="none" /><path id="1719" transform="matrix(1 0 0 -1 0 841)" d="M489.931 281.434L489.931 294.983" stroke="#000000" stroke-width="0.398" fill="none" /><path id="1720" transform="matrix(1 0 0 -1 0 841)" d="M97.393 281.234L490.13 281.234" stroke="#000000" stroke-width="0.398" fill="none" /><path id="1721" transform="matrix(1 0 0 -1 0 841)" d="M97.194 267.884L97.194 281.433" stroke="#000000" stroke-width="0.398" fill="none" /><path id="1727" transform="matrix(1 0 0 -1 0 841)" d="M137.42 267.884L137.42 281.433" stroke="#000000" stroke-width="0.398" fill="none" /><path id="1766" transform="matrix(1 0 0 -1 0 841)" d="M489.931 267.884L489.931 281.433" stroke="#000000" stroke-width="0.398" fill="none" /><path id="1767" transform="matrix(1 0 0 -1 0 841)" d="M97.393 267.685L490.13 267.685" stroke="#000000" stroke-width="0.398" fill="none" /><path id="1768" transform="matrix(1 0 0 -1 0 841)" d="M97.194 254.335L97.194 267.884" stroke="#000000" stroke-width="0.398" fill="none" /><path id="1774" transform="matrix(1 0 0 -1 0 841)" d="M137.42 254.335L137.42 267.884" stroke="#000000" stroke-width="0.398" fill="none" /><path id="1825" transform="matrix(1 0 0 -1 0 841)" d="M489.931 254.335L489.931 267.884" stroke="#000000" stroke-width="0.398" fill="none" /><path id="1826" transform="matrix(1 0 0 -1 0 841)" d="M97.393 254.136L490.13 254.136" stroke="#000000" stroke-width="0.398" fill="none" /><path id="1827" transform="matrix(1 0 0 -1 0 841)" d="M97.194 240.786L97.194 254.335" stroke="#000000" stroke-width="0.398" fill="none" /><path id="1833" transform="matrix(1 0 0 -1 0 841)" d="M137.42 240.786L137.42 254.335" stroke="#000000" stroke-width="0.398" fill="none" /><path id="1872" transform="matrix(1 0 0 -1 0 841)" d="M489.931 240.786L489.931 254.335" stroke="#000000" stroke-width="0.398" fill="none" /><path id="1873" transform="matrix(1 0 0 -1 0 841)" d="M97.393 240.587L490.13 240.587" stroke="#000000" stroke-width="0.398" fill="none" /><path id="1874" transform="matrix(1 0 0 -1 0 841)" d="M97.194 227.237L97.194 240.786" stroke="#000000" stroke-width="0.398" fill="none" /><path id="1880" transform="matrix(1 0 0 -1 0 841)" d="M137.42 227.237L137.42 240.786" stroke="#000000" stroke-width="0.398" fill="none" /><path id="1918" transform="matrix(1 0 0 -1 0 841)" d="M489.931 227.237L489.931 240.786" stroke="#000000" stroke-width="0.398" fill="none" /><path id="1919" transform="matrix(1 0 0 -1 0 841)" d="M97.393 227.038L490.13 227.038" stroke="#000000" stroke-width="0.398" fill="none" /></g></g></svg>