<svg xmlns="http://www.w3.org/2000/svg" xmlns:xlink="http://www.w3.org/1999/xlink" id="body_203" preserveAspectRatio="xMinYMin meet" viewBox="0 0 1121 793"><defs><clipPath id="1"><path id="" clip-rule="evenodd" transform="matrix(1 0 0 1 0 0)" d="M0 -0.276001L841.89 -0.276001L841.89 -0.276001L841.89 595L841.89 595L3.644894E-14 595L3.644894E-14 595L0 -0.276001z" /></clipPath></defs><g transform="matrix(1.333333 0 0 1.333333 0 0)"><g clip-path="url(#1)"><path id="1" transform="matrix(1 0 0 -1 0 595)" d="M770.878 509.877L770.878 504.7606L770.878 504.7606L771.6089 504.7606L771.6089 504.7606L771.6089 508.7861L771.6089 508.7861L774.0853 506.2006C 775.1616 505.0661 775.7543 504.717 776.6271 504.717C 778.038 504.717 779.0816 505.7897 779.0816 507.2588C 779.0816 508.3934 778.4853 509.2879 777.5107 509.637C 777.118 509.7825 776.8998 509.8116 776.3325 509.8116L776.3325 509.8116L776.3325 509.0152C 776.8271 509.0152 777.1398 508.9534 777.4453 508.8079C 778.0125 508.5316 778.3507 507.9679 778.3507 507.2697C 778.3507 506.2661 777.6307 505.5243 776.6707 505.5243C 776.1907 505.5243 775.7689 505.6988 775.318 506.0916C 775.0125 506.3388 775.0198 506.3388 774.3362 507.0515L774.3362 507.0515L771.6089 509.877z" stroke="none" fill="#000000" fill-rule="evenodd" /><path id="2" transform="matrix(1 0 0 -1 0 595)" d="M774.9689 503.4625L774.7289 502.8406C 775.3398 502.3606 775.6343 501.8115 775.6343 501.1715C 775.6343 500.0806 774.7398 499.2406 773.5616 499.2406C 772.3834 499.2406 771.4671 500.0952 771.4671 501.1715C 771.4671 502.1897 772.2598 502.9933 773.4089 503.1243L773.4089 503.1243L773.4089 503.9097C 772.8707 503.837 772.6453 503.7824 772.3398 503.637C 771.3362 503.1715 770.7361 502.2297 770.7361 501.1388C 770.7361 499.6261 771.9762 498.4333 773.5616 498.4333C 775.1326 498.4333 776.3653 499.6079 776.3653 501.1061C 776.3653 501.5861 776.2452 502.0115 775.9835 502.4915L775.9835 502.4915L778.2089 502.0988L778.2089 502.0988L778.2089 499.1097L778.2089 499.1097L778.9398 499.1097L778.9398 499.1097L778.9398 502.7424z" stroke="none" fill="#000000" fill-rule="evenodd" /><path id="3" transform="matrix(1 0 0 -1 0 595)" d="M778.9398 494.9206L775.9725 496.917C 774.8234 497.6879 774.3253 497.877 773.5398 497.877C 771.9253 497.877 770.7361 496.6952 770.7361 495.0952C 770.7361 493.5243 771.9362 492.3788 773.5944 492.3788C 775.1362 492.3788 776.3653 493.517 776.3653 494.9424C 776.3653 495.2915 776.2962 495.5424 776.1362 495.8915L776.1362 495.8915L778.9398 493.9933zM775.6343 495.117C 775.6343 493.997 774.7543 493.1861 773.5616 493.1861C 772.3398 493.1861 771.4671 494.0043 771.4671 495.0952C 771.4671 496.2297 772.3616 497.0697 773.5834 497.0697C 774.7325 497.0697 775.6343 496.2224 775.6343 495.117z" stroke="none" fill="#000000" fill-rule="evenodd" /><path id="4" transform="matrix(1 0 0 -1 0 595)" d="M773.1252 228.3394C 772.4271 228.994 772.1761 229.5649 772.1761 230.3358C 772.1761 231.8195 773.4125 233.0413 774.9253 233.0413C 775.5798 233.0413 776.278 232.7976 776.758 232.3758C 777.3253 231.8958 777.6417 231.1976 777.6417 230.3685C 777.6417 229.4376 777.3253 228.8049 776.6271 228.2522L776.6271 228.2522L776.6271 226.5831C 777.3253 226.9031 777.7034 227.1903 778.1544 227.7285C 778.7507 228.4703 779.0816 229.4267 779.0816 230.4013C 779.0816 232.6849 777.2053 234.5467 774.9362 234.5467C 772.6089 234.5467 770.7361 232.6595 770.7361 230.3031C 770.7361 228.6595 771.6416 227.2231 773.1252 226.5831z" stroke="none" fill="#000000" fill-rule="evenodd" /><path id="5" transform="matrix(1 0 0 -1 0 595)" d="M770.878 225.7758L770.878 224.3249L770.878 224.3249L773.9434 224.3249C 774.5398 224.3249 774.878 224.2776 775.1544 224.1176C 775.518 223.914 775.7325 223.5285 775.7325 223.0485C 775.7325 222.2049 775.2307 221.8704 773.9653 221.8704L773.9653 221.8704L770.878 221.8704L770.878 221.8704L770.878 220.4194L770.878 220.4194L774.2925 220.4194C 775.1653 220.4194 775.6635 220.5322 776.1144 220.8231C 776.7253 221.2303 777.0743 221.9285 777.0743 222.7867C 777.0743 223.4122 776.8998 223.8885 776.5071 224.3249L776.5071 224.3249L778.9398 224.3249L778.9398 224.3249L778.9398 225.7758z" stroke="none" fill="#000000" fill-rule="evenodd" /><path id="6" transform="matrix(1 0 0 -1 0 595)" d="M776.9216 213.1104L776.9216 214.4413L776.9216 214.4413L776.1144 214.4413C 776.7689 214.9503 777.0635 215.5431 777.0635 216.4158C 777.0635 218.2049 775.7107 219.4922 773.878 219.4922C 772.0453 219.4922 770.7361 218.2231 770.7361 216.4485C 770.7361 215.6049 771.0089 215.0231 771.6635 214.4413L771.6635 214.4413L770.878 214.4413L770.878 214.4413L770.878 213.1104zM775.7325 216.2631C 775.7325 215.2303 774.9471 214.4849 773.8562 214.4849C 773.4198 214.4849 772.918 214.6594 772.6125 214.9213C 772.2634 215.2267 772.0671 215.6885 772.0671 216.2412C 772.0671 217.3031 772.7834 218.0303 773.8453 218.0303C 774.9362 218.0303 775.7325 217.3103 775.7325 216.2631z" stroke="none" fill="#000000" fill-rule="evenodd" /><path id="7" transform="matrix(1 0 0 -1 0 595)" d="M768.8598 211.8122L768.8598 210.3612L768.8598 210.3612L771.4453 210.3612C 770.9507 209.8231 770.7361 209.2485 770.7361 208.5067C 770.7361 206.7612 772.0889 205.4849 773.9216 205.4849C 775.7398 205.4849 777.0635 206.7503 777.0635 208.4958C 777.0635 209.3249 776.7507 210.0158 776.2125 210.4812L776.2125 210.4812L776.9216 210.4812L776.9216 210.4812L776.9216 211.8122zM775.7325 208.6812C 775.7325 207.7067 774.9362 206.9467 773.8889 206.9467C 772.8562 206.9467 772.0671 207.6994 772.0671 208.6594C 772.0671 209.6921 772.8489 210.4485 773.9107 210.4485C 774.9434 210.4485 775.7325 209.6849 775.7325 208.6812z" stroke="none" fill="#000000" fill-rule="evenodd" /><path id="8" transform="matrix(1 0 0 -1 0 595)" d="M770.878 204.394L770.878 202.9431L770.878 202.9431L775.6016 202.9431L775.6016 202.9431L775.6016 202.0703L775.6016 202.0703L776.9216 202.0703L776.9216 202.0703L776.9216 202.9431L776.9216 202.9431L778.9398 202.9431L778.9398 202.9431L778.9398 204.394L778.9398 204.394L776.9216 204.394L776.9216 204.394L776.9216 205.1031L776.9216 205.1031L775.6016 205.1031L775.6016 205.1031L775.6016 204.394z" stroke="none" fill="#000000" fill-rule="evenodd" /><path id="9" transform="matrix(1 0 0 -1 0 595)" d="M773.2562 195.3503C 773.4598 195.3067 773.5944 195.2958 773.8126 195.2958C 775.6889 195.2958 777.0635 196.6267 777.0635 198.4158C 777.0635 200.2049 775.6525 201.6012 773.878 201.6012C 772.1035 201.6012 770.7361 200.1758 770.7361 198.3285C 770.7361 197.3394 771.0853 196.5685 771.8271 195.9285C 772.1035 195.7103 772.3616 195.5503 772.6671 195.4485L772.6671 195.4485L772.6671 197.0303C 772.2307 197.4085 772.0671 197.7649 772.0671 198.3612C 772.0671 199.2339 772.5143 199.8558 773.2562 200.0303zM774.5325 200.074C 775.3035 199.8558 775.7325 199.2667 775.7325 198.394C 775.7325 197.5067 775.3035 196.914 774.5325 196.7249z" stroke="none" fill="#000000" fill-rule="evenodd" /><path id="10" transform="matrix(1 0 0 -1 0 595)" d="M770.878 194.3576L770.878 192.9067L770.878 192.9067L774.238 192.9067C 775.1689 192.9067 775.638 192.4812 775.6671 191.6085L775.6671 191.6085L777.0635 191.6085L777.0635 191.6085L777.0635 191.7176C 777.0635 192.343 776.8853 192.6485 776.3325 193.0267L776.3325 193.0267L776.9216 193.0267L776.9216 193.0267L776.9216 194.3576z" stroke="none" fill="#000000" fill-rule="evenodd" /><path id="11" transform="matrix(1 0 0 -1 0 595)" d="M775.3616 186.9067C 775.1434 187.2849 775.0234 187.4449 774.8052 187.6049C 774.4417 187.9103 773.9216 188.063 773.398 188.063C 771.8853 188.063 770.7361 186.8958 770.7361 185.3685C 770.7361 183.8412 771.8817 182.6958 773.4089 182.6958C 773.9762 182.6958 774.5071 182.8812 774.8707 183.1867C 775.0453 183.3612 775.158 183.5103 775.3616 183.8303C 775.7253 183.3794 776.2053 183.1539 776.8889 183.1539C 778.1398 183.1539 779.0816 184.0921 779.0816 185.3576C 779.0816 186.5939 778.0889 187.5721 776.8671 187.5721C 776.2708 187.5721 775.8853 187.4158 775.3616 186.9067zM777.7507 185.3467C 777.7507 184.9103 777.358 184.5394 776.878 184.5394C 776.3834 184.5394 775.9944 184.9212 775.9944 185.3576C 775.9944 185.823 776.3871 186.1867 776.8671 186.1867C 777.3616 186.1867 777.7507 185.8267 777.7507 185.3467zM774.598 185.3576C 774.598 184.703 774.0307 184.1467 773.3325 184.1467C 772.6053 184.1467 772.0671 184.674 772.0671 185.3576C 772.0671 186.0703 772.6161 186.6121 773.3434 186.6121C 774.0416 186.6121 774.598 186.0558 774.598 185.3576z" stroke="none" fill="#000000" fill-rule="evenodd" /><path id="12" transform="matrix(1 0 0 -1 0 595)" d="M770.878 181.5067L770.878 180.0558L770.878 180.0558L772.2744 180.0558L772.2744 180.0558L772.2744 181.5067z" stroke="none" fill="#000000" fill-rule="evenodd" /><path id="13" transform="matrix(1 0 0 -1 0 595)" d="M770.878 173.7394L770.878 172.5612L770.878 172.5612L776.2125 171.2303L776.2125 171.2303L770.878 169.9321L770.878 169.9321L770.878 168.743L770.878 168.743L778.9398 166.3867L778.9398 166.3867L778.9398 167.9139L778.9398 167.9139L773.3107 169.343L773.3107 169.343L778.9398 170.6957L778.9398 170.6957L778.9398 171.7867L778.9398 171.7867L773.3107 173.1612L773.3107 173.1612L778.9398 174.5794L778.9398 174.5794L778.9398 176.1067z" stroke="none" fill="#000000" fill-rule="evenodd" /><path id="14" transform="matrix(1 0 0 -1 0 595)" d="M776.9216 160.2012L776.9216 161.5321L776.9216 161.5321L776.1144 161.5321C 776.7689 162.0412 777.0635 162.6339 777.0635 163.5067C 777.0635 165.2957 775.7107 166.583 773.878 166.583C 772.0453 166.583 770.7361 165.3139 770.7361 163.5394C 770.7361 162.6957 771.0089 162.1139 771.6635 161.5321L771.6635 161.5321L770.878 161.5321L770.878 161.5321L770.878 160.2012zM775.7325 163.3539C 775.7325 162.3212 774.9471 161.5757 773.8562 161.5757C 773.4198 161.5757 772.918 161.7503 772.6125 162.0121C 772.2634 162.3175 772.0671 162.7794 772.0671 163.3321C 772.0671 164.3939 772.7834 165.1212 773.8453 165.1212C 774.9362 165.1212 775.7325 164.4012 775.7325 163.3539z" stroke="none" fill="#000000" fill-rule="evenodd" /><path id="15" transform="matrix(1 0 0 -1 0 595)" d="M770.878 158.8484L770.878 157.3976L770.878 157.3976L775.6016 157.3976L775.6016 157.3976L775.6016 156.5248L775.6016 156.5248L776.9216 156.5248L776.9216 156.5248L776.9216 157.3976L776.9216 157.3976L778.9398 157.3976L778.9398 157.3976L778.9398 158.8484L778.9398 158.8484L776.9216 158.8484L776.9216 158.8484L776.9216 159.5576L776.9216 159.5576L775.6016 159.5576L775.6016 159.5576L775.6016 158.8484z" stroke="none" fill="#000000" fill-rule="evenodd" /><path id="16" transform="matrix(1 0 0 -1 0 595)" d="M773.2562 149.8048C 773.4598 149.7612 773.5944 149.7503 773.8126 149.7503C 775.6889 149.7503 777.0635 151.0812 777.0635 152.8703C 777.0635 154.6594 775.6525 156.0557 773.878 156.0557C 772.1035 156.0557 770.7361 154.6303 770.7361 152.783C 770.7361 151.7939 771.0853 151.023 771.8271 150.383C 772.1035 150.1648 772.3616 150.0048 772.6671 149.903L772.6671 149.903L772.6671 151.4848C 772.2307 151.863 772.0671 152.2194 772.0671 152.8157C 772.0671 153.6884 772.5143 154.3103 773.2562 154.4848zM774.5325 154.5284C 775.3035 154.3103 775.7325 153.7212 775.7325 152.8484C 775.7325 151.9612 775.3035 151.3684 774.5325 151.1794z" stroke="none" fill="#000000" fill-rule="evenodd" /><path id="17" transform="matrix(1 0 0 -1 0 595)" d="M770.878 148.8121L770.878 147.3612L770.878 147.3612L774.238 147.3612C 775.1689 147.3612 775.638 146.9357 775.6671 146.063L775.6671 146.063L777.0635 146.063L777.0635 146.063L777.0635 146.1721C 777.0635 146.7975 776.8853 147.103 776.3325 147.4812L776.3325 147.4812L776.9216 147.4812L776.9216 147.4812L776.9216 148.8121z" stroke="none" fill="#000000" fill-rule="evenodd" /><path id="18" transform="matrix(1 0 0 -1 0 595)" d="M770.878 142.1139L770.878 140.2375C 770.878 139.0157 770.9907 138.2848 771.3253 137.6302C 771.9362 136.3939 773.2634 135.6557 774.8925 135.6557C 776.4198 135.6557 777.678 136.2921 778.3616 137.4121C 778.7398 138.0521 778.9398 139.0048 778.9398 140.2703L778.9398 140.2703L778.9398 142.1139zM772.3071 140.6194L777.5107 140.6194L777.5107 140.6194L777.5107 140.3248C 777.5107 139.3793 777.4162 138.8739 777.1835 138.3939C 776.7907 137.6375 775.9253 137.1612 774.8925 137.1612C 773.918 137.1612 773.0598 137.6157 772.6671 138.3284C 772.4053 138.7794 772.3071 139.4048 772.3071 140.2921z" stroke="none" fill="#000000" fill-rule="evenodd" /><path id="19" transform="matrix(1 0 0 -1 0 595)" d="M770.878 134.6302L770.878 133.1794L770.878 133.1794L776.9216 133.1794L776.9216 133.1794L776.9216 134.6302zM777.5762 134.6302L777.5762 133.1794L777.5762 133.1794L778.9398 133.1794L778.9398 133.1794L778.9398 134.6302z" stroke="none" fill="#000000" fill-rule="evenodd" /><path id="20" transform="matrix(1 0 0 -1 0 595)" d="M772.798 132.3939C 772.2016 132.3357 771.8962 132.2375 771.5762 131.9902C 771.0526 131.5975 770.7361 130.9211 770.7361 130.1794C 770.7361 128.9721 771.6343 128.0193 772.798 128.0193C 773.3217 128.0193 773.7471 128.223 774.0526 128.5866C 774.2416 128.8193 774.3907 129.1757 774.5652 129.6993C 774.7398 130.2957 774.7435 130.2993 774.8162 130.4302C 774.9034 130.6339 775.0453 130.7248 775.2198 130.7248C 775.5107 130.7248 775.7325 130.4884 775.7325 130.1684C 775.7325 129.863 775.558 129.6739 775.2526 129.6012L775.2526 129.6012L775.2526 128.183C 775.7617 128.2121 776.0635 128.3284 776.398 128.6193C 776.8198 129.0121 777.0635 129.5721 777.0635 130.1684C 777.0635 131.303 776.2526 132.1757 775.2198 132.1757C 774.3325 132.1757 773.8234 131.703 773.4307 130.4957C 773.2416 129.943 773.2125 129.903 773.1252 129.743C 773.0089 129.5684 772.8453 129.4702 772.6562 129.4702C 772.3071 129.4702 772.0671 129.7612 772.0671 130.1248C 772.0671 130.5612 772.2744 130.8011 772.798 130.9321z" stroke="none" fill="#000000" fill-rule="evenodd" /><path id="21" transform="matrix(1 0 0 -1 0 595)" d="M770.878 126.9939L770.878 125.543L770.878 125.543L775.6016 125.543L775.6016 125.543L775.6016 124.6703L775.6016 124.6703L776.9216 124.6703L776.9216 124.6703L776.9216 125.543L776.9216 125.543L778.9398 125.543L778.9398 125.543L778.9398 126.9939L778.9398 126.9939L776.9216 126.9939L776.9216 126.9939L776.9216 127.703L776.9216 127.703L775.6016 127.703L775.6016 127.703L775.6016 126.9939z" stroke="none" fill="#000000" fill-rule="evenodd" /><path id="22" transform="matrix(1 0 0 -1 0 595)" d="M770.878 123.9393L770.878 122.4884L770.878 122.4884L774.238 122.4884C 775.1689 122.4884 775.638 122.063 775.6671 121.1902L775.6671 121.1902L777.0635 121.1902L777.0635 121.1902L777.0635 121.2993C 777.0635 121.9248 776.8853 122.2303 776.3325 122.6084L776.3325 122.6084L776.9216 122.6084L776.9216 122.6084L776.9216 123.9393z" stroke="none" fill="#000000" fill-rule="evenodd" /><path id="23" transform="matrix(1 0 0 -1 0 595)" d="M770.878 120.2303L770.878 118.7793L770.878 118.7793L776.9216 118.7793L776.9216 118.7793L776.9216 120.2303zM777.5762 120.2303L777.5762 118.7793L777.5762 118.7793L778.9398 118.7793L778.9398 118.7793L778.9398 120.2303z" stroke="none" fill="#000000" fill-rule="evenodd" /><path id="24" transform="matrix(1 0 0 -1 0 595)" d="M770.878 117.6121L770.878 116.2812L770.878 116.2812L771.6525 116.2812C 770.9835 115.6702 770.7361 115.0884 770.7361 114.1866C 770.7361 113.2557 771.0816 112.5175 771.7944 111.9502C 772.3762 111.4993 773.1289 111.2411 773.9434 111.2411C 775.7617 111.2411 777.1398 112.5539 777.1398 114.2848C 777.1398 115.0703 776.918 115.6084 776.3653 116.1612L776.3653 116.1612L778.9398 116.1612L778.9398 116.1612L778.9398 117.6121zM775.8089 114.4921C 775.8089 113.4593 775.0089 112.703 773.9326 112.703C 772.8271 112.703 772.0671 113.4266 772.0671 114.4593C 772.0671 115.5066 772.838 116.2484 773.9434 116.2484C 775.0344 116.2484 775.8089 115.5103 775.8089 114.4921z" stroke="none" fill="#000000" fill-rule="evenodd" /><path id="25" transform="matrix(1 0 0 -1 0 595)" d="M776.9216 105.0339L776.9216 106.4848L776.9216 106.4848L774.0743 106.4848C 773.2744 106.4848 772.8853 106.5393 772.6235 106.7139C 772.2744 106.932 772.0671 107.3357 772.0671 107.8157C 772.0671 108.1939 772.1871 108.4775 772.4489 108.6666C 772.7107 108.8848 773.1507 108.9612 773.9653 108.9612L773.9653 108.9612L776.9216 108.9612L776.9216 108.9612L776.9216 110.412L776.9216 110.412L773.6816 110.412C 772.6489 110.412 772.1252 110.303 771.6307 109.9539C 771.0489 109.5612 770.7361 108.8957 770.7361 108.1102C 770.7361 107.383 770.918 106.9284 771.4562 106.3757L771.4562 106.3757L770.878 106.3757L770.878 106.3757L770.878 105.0339z" stroke="none" fill="#000000" fill-rule="evenodd" /><path id="26" transform="matrix(1 0 0 -1 0 595)" d="M770.878 103.6484L770.878 102.1975L770.878 102.1975L775.6016 102.1975L775.6016 102.1975L775.6016 101.3248L775.6016 101.3248L776.9216 101.3248L776.9216 101.3248L776.9216 102.1975L776.9216 102.1975L778.9398 102.1975L778.9398 102.1975L778.9398 103.6484L778.9398 103.6484L776.9216 103.6484L776.9216 103.6484L776.9216 104.3575L776.9216 104.3575L775.6016 104.3575L775.6016 104.3575L775.6016 103.6484z" stroke="none" fill="#000000" fill-rule="evenodd" /><path id="27" transform="matrix(1 0 0 -1 0 595)" d="M770.878 100.5939L770.878 99.14294L770.878 99.14294L776.9216 99.14294L776.9216 99.14294L776.9216 100.5939zM777.5762 100.5939L777.5762 99.14294L777.5762 99.14294L778.9398 99.14294L778.9398 99.14294L778.9398 100.5939z" stroke="none" fill="#000000" fill-rule="evenodd" /><path id="28" transform="matrix(1 0 0 -1 0 595)" d="M777.0635 95.04114C 777.0635 96.80115 775.6307 98.23749 773.8998 98.23749C 772.1544 98.23749 770.7361 96.80478 770.7361 95.03021C 770.7361 93.28476 772.1544 91.81204 773.8562 91.81204C 775.6453 91.81204 777.0635 93.22296 777.0635 95.04114zM775.7325 95.03021C 775.7325 94.07022 774.9034 93.27386 773.8998 93.27386C 772.8817 93.27386 772.0671 94.05933 772.0671 95.01932C 772.0671 96.00839 772.8743 96.77567 773.9216 96.77567C 774.9107 96.77567 775.7325 95.99023 775.7325 95.03021z" stroke="none" fill="#000000" fill-rule="evenodd" /><path id="29" transform="matrix(1 0 0 -1 0 595)" d="M770.878 90.99387L770.878 89.54294L770.878 89.54294L773.7253 89.54294C 774.5253 89.54294 774.8707 89.49203 775.1761 89.30295C 775.5253 89.08478 775.7325 88.69931 775.7325 88.23386C 775.7325 87.87021 775.598 87.56476 775.3507 87.36111C 775.0889 87.17203 774.6343 87.07748 773.8344 87.07748L773.8344 87.07748L770.878 87.07748L770.878 87.07748L770.878 85.62659L770.878 85.62659L774.118 85.62659C 775.1943 85.62659 775.7107 85.74295 776.1907 86.06293C 776.758 86.45569 777.0635 87.12112 777.0635 87.95023C 777.0635 88.64841 776.8525 89.12839 776.3434 89.65204L776.3434 89.65204L776.9216 89.65204L776.9216 89.65204L776.9216 90.99387z" stroke="none" fill="#000000" fill-rule="evenodd" /><path id="30" transform="matrix(1 0 0 -1 0 595)" d="M766.564 510.237L766.564 85.04001" stroke="#000000" stroke-width="0.498" fill="none" /><path id="31" transform="matrix(1 0 0 -1 0 595)" d="M112.574 510.038L729.316 510.038" stroke="#000000" stroke-width="0.398" fill="none" /><path id="32" transform="matrix(1 0 0 -1 0 595)" d="M112.773 496.29L112.773 509.839" stroke="#000000" stroke-width="0.398" fill="none" /><path id="45" transform="matrix(1 0 0 -1 0 595)" d="M266.859 496.29L266.859 509.839" stroke="#000000" stroke-width="0.398" fill="none" /><path id="56" transform="matrix(1 0 0 -1 0 595)" d="M420.945 496.29L420.945 509.839" stroke="#000000" stroke-width="0.398" fill="none" /><path id="70" transform="matrix(1 0 0 -1 0 595)" d="M575.031 496.29L575.031 509.839" stroke="#000000" stroke-width="0.398" fill="none" /><path id="77" transform="matrix(1 0 0 -1 0 595)" d="M729.1169 496.29L729.1169 509.839" stroke="#000000" stroke-width="0.398" fill="none" /><path id="78" transform="matrix(1 0 0 -1 0 595)" d="M112.773 393.918L112.773 496.29" stroke="#000000" stroke-width="0.398" fill="none" /><path id="327" transform="matrix(1 0 0 -1 0 595)" d="M266.859 393.918L266.859 496.29" stroke="#000000" stroke-width="0.398" fill="none" /><path id="573" transform="matrix(1 0 0 -1 0 595)" d="M420.945 393.918L420.945 496.29" stroke="#000000" stroke-width="0.398" fill="none" /><path id="741" transform="matrix(1 0 0 -1 0 595)" d="M575.031 393.918L575.031 496.29" stroke="#000000" stroke-width="0.398" fill="none" /><path id="890" transform="matrix(1 0 0 -1 0 595)" d="M729.1169 393.918L729.1169 496.29" stroke="#000000" stroke-width="0.398" fill="none" /><path id="891" transform="matrix(1 0 0 -1 0 595)" d="M112.574 393.718L729.316 393.718" stroke="#000000" stroke-width="0.398" fill="none" /><path id="892" transform="matrix(1 0 0 -1 0 595)" d="M112.773 311.722L112.773 393.519" stroke="#000000" stroke-width="0.398" fill="none" /><path id="937" transform="matrix(1 0 0 -1 0 595)" d="M266.859 311.722L266.859 393.519" stroke="#000000" stroke-width="0.398" fill="none" /><path id="1117" transform="matrix(1 0 0 -1 0 595)" d="M420.945 311.722L420.945 393.519" stroke="#000000" stroke-width="0.398" fill="none" /><path id="1288" transform="matrix(1 0 0 -1 0 595)" d="M575.031 311.722L575.031 393.519" stroke="#000000" stroke-width="0.398" fill="none" /><path id="1498" transform="matrix(1 0 0 -1 0 595)" d="M729.1169 311.722L729.1169 393.519" stroke="#000000" stroke-width="0.398" fill="none" /><path id="1499" transform="matrix(1 0 0 -1 0 595)" d="M112.574 311.523L729.316 311.523" stroke="#000000" stroke-width="0.398" fill="none" /><path id="1500" transform="matrix(1 0 0 -1 0 595)" d="M112.773 199.487L112.773 311.323" stroke="#000000" stroke-width="0.398" fill="none" /><path id="1694" transform="matrix(1 0 0 -1 0 595)" d="M266.859 199.487L266.859 311.323" stroke="#000000" stroke-width="0.398" fill="none" /><path id="1930" transform="matrix(1 0 0 -1 0 595)" d="M420.945 199.487L420.945 311.323" stroke="#000000" stroke-width="0.398" fill="none" /><path id="2064" transform="matrix(1 0 0 -1 0 595)" d="M575.031 199.487L575.031 311.323" stroke="#000000" stroke-width="0.398" fill="none" /><path id="2316" transform="matrix(1 0 0 -1 0 595)" d="M729.1169 199.487L729.1169 311.323" stroke="#000000" stroke-width="0.398" fill="none" /><path id="2317" transform="matrix(1 0 0 -1 0 595)" d="M112.574 199.288L729.316 199.288" stroke="#000000" stroke-width="0.398" fill="none" /><path id="2318" transform="matrix(1 0 0 -1 0 595)" d="M112.773 96.717L112.773 199.089" stroke="#000000" stroke-width="0.398" fill="none" /><path id="2519" transform="matrix(1 0 0 -1 0 595)" d="M266.859 96.717L266.859 199.089" stroke="#000000" stroke-width="0.398" fill="none" /><path id="2734" transform="matrix(1 0 0 -1 0 595)" d="M420.945 96.717L420.945 199.089" stroke="#000000" stroke-width="0.398" fill="none" /><path id="2857" transform="matrix(1 0 0 -1 0 595)" d="M575.031 96.717L575.031 199.089" stroke="#000000" stroke-width="0.398" fill="none" /><path id="3021" transform="matrix(1 0 0 -1 0 595)" d="M729.1169 96.717L729.1169 199.089" stroke="#000000" stroke-width="0.398" fill="none" /><path id="3022" transform="matrix(1 0 0 -1 0 595)" d="M112.574 96.517L729.316 96.517" stroke="#000000" stroke-width="0.398" fill="none" /></g></g></svg>