<svg xmlns="http://www.w3.org/2000/svg" xmlns:xlink="http://www.w3.org/1999/xlink" id="body_382" preserveAspectRatio="xMinYMin meet" viewBox="0 0 793 1121"><defs><clipPath id="1"><path id="" clip-rule="evenodd" transform="matrix(1 0 0 1 0 0)" d="M0 841L0 -0.8900146L0 -0.8900146L595.276 -0.8900146L595.276 -0.8900146L595.276 841L595.276 841L0 841z" /></clipPath><clipPath id="2"><path id="" clip-rule="evenodd" transform="matrix(1 0 0 1 0 0)" d="M0.125 841.073L595.1547 841.073L595.1547 841.073L595.1547 -0.9690552L595.1547 -0.9690552L0.125 -0.9690552z" /></clipPath><clipPath id="3"><path id="" clip-rule="evenodd" transform="matrix(1 0 0 1 0 0)" d="M19.4363 27.69806L575.6259 27.69806L575.6259 27.69806L575.6259 825.5788L575.6259 825.5788L19.4363 825.5788z" /></clipPath><clipPath id="4"><path id="" clip-rule="evenodd" transform="matrix(1 0 0 1 0 0)" d="M25.07376 33.33551L569.0288 33.33551L569.0288 33.33551L569.0288 44.73035L569.0288 44.73035L25.07376 44.73035z" /></clipPath><clipPath id="5"><path id="" clip-rule="evenodd" transform="matrix(1 0 0 1 0 0)" d="M19.4363 49.5282L575.6259 49.5282L575.6259 49.5282L575.6259 803.7487L575.6259 803.7487L19.4363 803.7487z" /></clipPath><clipPath id="6"><path id="" clip-rule="evenodd" transform="matrix(1 0 0 1 0 0)" d="M19.4363 49.5282L575.6259 49.5282L575.6259 49.5282L575.6259 803.7487L575.6259 803.7487L19.4363 803.7487z" /></clipPath><clipPath id="7"><path id="" clip-rule="evenodd" transform="matrix(1 0 0 1 0 0)" d="M33.58993 129.1724L353.126 129.1724L353.126 129.1724L353.126 140.8071L353.126 140.8071L33.58993 140.8071z" /></clipPath><clipPath id="8"><path id="" clip-rule="evenodd" transform="matrix(1 0 0 1 0 0)" d="M19.4363 49.5282L575.6259 49.5282L575.6259 49.5282L575.6259 803.7487L575.6259 803.7487L19.4363 803.7487z" /></clipPath><clipPath id="9"><path id="" clip-rule="evenodd" transform="matrix(1 0 0 1 0 0)" d="M358.2837 129.1724L565.9102 129.1724L565.9102 129.1724L565.9102 366.7854L565.9102 366.7854L358.2837 366.7854z" /></clipPath><clipPath id="10"><path id="" clip-rule="evenodd" transform="matrix(1 0 0 1 0 0)" d="M19.4363 49.5282L575.6259 49.5282L575.6259 49.5282L575.6259 803.7487L575.6259 803.7487L19.4363 803.7487z" /></clipPath><clipPath id="11"><path id="" clip-rule="evenodd" transform="matrix(1 0 0 1 0 0)" d="M25.07376 55.16565L569.0288 55.16565L569.0288 55.16565L569.0288 74.11713L569.0288 74.11713L25.07376 74.11713z" /></clipPath><clipPath id="12"><path id="" clip-rule="evenodd" transform="matrix(1 0 0 1 0 0)" d="M19.4363 49.5282L575.6259 49.5282L575.6259 49.5282L575.6259 803.7487L575.6259 803.7487L19.4363 803.7487z" /></clipPath><clipPath id="13"><path id="" clip-rule="evenodd" transform="matrix(1 0 0 1 0 0)" d="M33.58993 112.7397L353.7258 112.7397L353.7258 112.7397L353.7258 124.8543L353.7258 124.8543L33.58993 124.8543z" /></clipPath><clipPath id="14"><path id="" clip-rule="evenodd" transform="matrix(1 0 0 1 0 0)" d="M19.4363 49.5282L575.6259 49.5282L575.6259 49.5282L575.6259 803.7487L575.6259 803.7487L19.4363 803.7487z" /></clipPath><clipPath id="15"><path id="" clip-rule="evenodd" transform="matrix(1 0 0 1 0 0)" d="M359.3632 112.7397L566.1501 112.7397L566.1501 112.7397L566.1501 124.8543L566.1501 124.8543L359.3632 124.8543z" /></clipPath><clipPath id="16"><path id="" clip-rule="evenodd" transform="matrix(1 0 0 1 0 0)" d="M19.4363 49.5282L575.6259 49.5282L575.6259 49.5282L575.6259 803.7487L575.6259 803.7487L19.4363 803.7487z" /></clipPath><clipPath id="17"><path id="" clip-rule="evenodd" transform="matrix(1 0 0 1 0 0)" d="M36.46864 660.0533L161.0925 660.0533L161.0925 660.0533L161.0925 740.2972L161.0925 740.2972L36.46864 740.2972z" /></clipPath><clipPath id="18"><path id="" clip-rule="evenodd" transform="matrix(1 0 0 1 0 0)" d="M19.4363 49.5282L575.6259 49.5282L575.6259 49.5282L575.6259 803.7487L575.6259 803.7487L19.4363 803.7487z" /></clipPath><clipPath id="19"><path id="" clip-rule="evenodd" transform="matrix(1 0 0 1 0 0)" d="M178.1248 660.0533L569.0288 660.0533L569.0288 660.0533L569.0288 740.2972L569.0288 740.2972L178.1248 740.2972z" /></clipPath><clipPath id="20"><path id="" clip-rule="evenodd" transform="matrix(1 0 0 1 0 0)" d="M19.4363 49.5282L575.6259 49.5282L575.6259 49.5282L575.6259 803.7487L575.6259 803.7487L19.4363 803.7487z" /></clipPath><clipPath id="21"><path id="" clip-rule="evenodd" transform="matrix(1 0 0 1 0 0)" d="M178.1248 584.9672L569.0288 584.9672L569.0288 584.9672L569.0288 642.1814L569.0288 642.1814L178.1248 642.1814z" /></clipPath><clipPath id="22"><path id="" clip-rule="evenodd" transform="matrix(1 0 0 1 0 0)" d="M19.4363 49.5282L575.6259 49.5282L575.6259 49.5282L575.6259 803.7487L575.6259 803.7487L19.4363 803.7487z" /></clipPath><clipPath id="23"><path id="" clip-rule="evenodd" transform="matrix(1 0 0 1 0 0)" d="M30.71123 584.9672L161.0925 584.9672L161.0925 584.9672L161.0925 642.1814L161.0925 642.1814L30.71123 642.1814z" /></clipPath><clipPath id="24"><path id="" clip-rule="evenodd" transform="matrix(1 0 0 1 0 0)" d="M19.4363 49.5282L575.6259 49.5282L575.6259 49.5282L575.6259 803.7487L575.6259 803.7487L19.4363 803.7487z" /></clipPath><clipPath id="25"><path id="" clip-rule="evenodd" transform="matrix(1 0 0 1 0 0)" d="M161.0925 660.0533L178.1248 660.0533L178.1248 660.0533L178.1248 740.2972L178.1248 740.2972L161.0925 740.2972z" /></clipPath><clipPath id="26"><path id="" clip-rule="evenodd" transform="matrix(1 0 0 1 0 0)" d="M19.4363 49.5282L575.6259 49.5282L575.6259 49.5282L575.6259 803.7487L575.6259 803.7487L19.4363 803.7487z" /></clipPath><clipPath id="27"><path id="" clip-rule="evenodd" transform="matrix(1 0 0 1 0 0)" d="M161.0925 584.9672L178.1248 584.9672L178.1248 584.9672L178.1248 642.1814L178.1248 642.1814L161.0925 642.1814z" /></clipPath><clipPath id="28"><path id="" clip-rule="evenodd" transform="matrix(1 0 0 1 0 0)" d="M19.4363 49.5282L575.6259 49.5282L575.6259 49.5282L575.6259 803.7487L575.6259 803.7487L19.4363 803.7487z" /></clipPath><clipPath id="29"><path id="" clip-rule="evenodd" transform="matrix(1 0 0 1 0 0)" d="M36.46864 743.056L161.0925 743.056L161.0925 743.056L161.0925 800.2702L161.0925 800.2702L36.46864 800.2702z" /></clipPath><clipPath id="30"><path id="" clip-rule="evenodd" transform="matrix(1 0 0 1 0 0)" d="M19.4363 49.5282L575.6259 49.5282L575.6259 49.5282L575.6259 803.7487L575.6259 803.7487L19.4363 803.7487z" /></clipPath><clipPath id="31"><path id="" clip-rule="evenodd" transform="matrix(1 0 0 1 0 0)" d="M178.1248 743.056L569.0288 743.056L569.0288 743.056L569.0288 800.2702L569.0288 800.2702L178.1248 800.2702z" /></clipPath><clipPath id="32"><path id="" clip-rule="evenodd" transform="matrix(1 0 0 1 0 0)" d="M19.4363 49.5282L575.6259 49.5282L575.6259 49.5282L575.6259 803.7487L575.6259 803.7487L19.4363 803.7487z" /></clipPath><clipPath id="33"><path id="" clip-rule="evenodd" transform="matrix(1 0 0 1 0 0)" d="M161.0925 743.056L178.1248 743.056L178.1248 743.056L178.1248 800.2702L178.1248 800.2702L161.0925 800.2702z" /></clipPath><clipPath id="34"><path id="" clip-rule="evenodd" transform="matrix(1 0 0 1 0 0)" d="M19.4363 49.5282L575.6259 49.5282L575.6259 49.5282L575.6259 803.7487L575.6259 803.7487L19.4363 803.7487z" /></clipPath><clipPath id="35"><path id="" clip-rule="evenodd" transform="matrix(1 0 0 1 0 0)" d="M25.07376 447.0292L161.0925 447.0292L161.0925 447.0292L161.0925 492.9686L161.0925 492.9686L25.07376 492.9686z" /></clipPath><clipPath id="36"><path id="" clip-rule="evenodd" transform="matrix(1 0 0 1 0 0)" d="M19.4363 49.5282L575.6259 49.5282L575.6259 49.5282L575.6259 803.7487L575.6259 803.7487L19.4363 803.7487z" /></clipPath><clipPath id="37"><path id="" clip-rule="evenodd" transform="matrix(1 0 0 1 0 0)" d="M161.0925 447.0292L178.1248 447.0292L178.1248 447.0292L178.1248 492.9686L178.1248 492.9686L161.0925 492.9686z" /></clipPath><clipPath id="38"><path id="" clip-rule="evenodd" transform="matrix(1 0 0 1 0 0)" d="M19.4363 49.5282L575.6259 49.5282L575.6259 49.5282L575.6259 803.7487L575.6259 803.7487L19.4363 803.7487z" /></clipPath><clipPath id="39"><path id="" clip-rule="evenodd" transform="matrix(1 0 0 1 0 0)" d="M178.1248 447.0292L569.0288 447.0292L569.0288 447.0292L569.0288 492.9686L569.0288 492.9686L178.1248 492.9686z" /></clipPath><clipPath id="40"><path id="" clip-rule="evenodd" transform="matrix(1 0 0 1 0 0)" d="M19.4363 49.5282L575.6259 49.5282L575.6259 49.5282L575.6259 803.7487L575.6259 803.7487L19.4363 803.7487z" /></clipPath><clipPath id="41"><path id="" clip-rule="evenodd" transform="matrix(1 0 0 1 0 0)" d="M25.07376 386.9363L161.0925 386.9363L161.0925 386.9363L161.0925 444.1505L161.0925 444.1505L25.07376 444.1505z" /></clipPath><clipPath id="42"><path id="" clip-rule="evenodd" transform="matrix(1 0 0 1 0 0)" d="M19.4363 49.5282L575.6259 49.5282L575.6259 49.5282L575.6259 803.7487L575.6259 803.7487L19.4363 803.7487z" /></clipPath><clipPath id="43"><path id="" clip-rule="evenodd" transform="matrix(1 0 0 1 0 0)" d="M161.0925 386.9363L178.1248 386.9363L178.1248 386.9363L178.1248 444.1505L178.1248 444.1505L161.0925 444.1505z" /></clipPath><clipPath id="44"><path id="" clip-rule="evenodd" transform="matrix(1 0 0 1 0 0)" d="M19.4363 49.5282L575.6259 49.5282L575.6259 49.5282L575.6259 803.7487L575.6259 803.7487L19.4363 803.7487z" /></clipPath><clipPath id="45"><path id="" clip-rule="evenodd" transform="matrix(1 0 0 1 0 0)" d="M178.1248 386.9363L569.0288 386.9363L569.0288 386.9363L569.0288 444.1505L569.0288 444.1505L178.1248 444.1505z" /></clipPath><clipPath id="46"><path id="" clip-rule="evenodd" transform="matrix(1 0 0 1 0 0)" d="M19.4363 49.5282L575.6259 49.5282L575.6259 49.5282L575.6259 803.7487L575.6259 803.7487L19.4363 803.7487z" /></clipPath><clipPath id="47"><path id="" clip-rule="evenodd" transform="matrix(1 0 0 1 0 0)" d="M178.1248 524.8742L569.0288 524.8742L569.0288 524.8742L569.0288 582.2084L569.0288 582.2084L178.1248 582.2084z" /></clipPath><clipPath id="48"><path id="" clip-rule="evenodd" transform="matrix(1 0 0 1 0 0)" d="M19.4363 49.5282L575.6259 49.5282L575.6259 49.5282L575.6259 803.7487L575.6259 803.7487L19.4363 803.7487z" /></clipPath><clipPath id="49"><path id="" clip-rule="evenodd" transform="matrix(1 0 0 1 0 0)" d="M30.71123 524.8742L161.0925 524.8742L161.0925 524.8742L161.0925 582.2084L161.0925 582.2084L30.71123 582.2084z" /></clipPath><clipPath id="50"><path id="" clip-rule="evenodd" transform="matrix(1 0 0 1 0 0)" d="M19.4363 49.5282L575.6259 49.5282L575.6259 49.5282L575.6259 803.7487L575.6259 803.7487L19.4363 803.7487z" /></clipPath><clipPath id="51"><path id="" clip-rule="evenodd" transform="matrix(1 0 0 1 0 0)" d="M161.0925 524.8742L178.1248 524.8742L178.1248 524.8742L178.1248 582.2084L178.1248 582.2084L161.0925 582.2084z" /></clipPath><clipPath id="52"><path id="" clip-rule="evenodd" transform="matrix(1 0 0 1 0 0)" d="M19.4363 49.5282L575.6259 49.5282L575.6259 49.5282L575.6259 803.7487L575.6259 803.7487L19.4363 803.7487z" /></clipPath><clipPath id="53"><path id="" clip-rule="evenodd" transform="matrix(1 0 0 1 0 0)" d="M25.07376 79.87451L569.0288 79.87451L569.0288 79.87451L569.0288 91.98907L569.0288 91.98907L25.07376 91.98907z" /></clipPath><clipPath id="54"><path id="" clip-rule="evenodd" transform="matrix(1 0 0 1 0 0)" d="M19.4363 49.5282L575.6259 49.5282L575.6259 49.5282L575.6259 803.7487L575.6259 803.7487L19.4363 803.7487z" /></clipPath><clipPath id="55"><path id="" clip-rule="evenodd" transform="matrix(1 0 0 1 0 0)" d="M25.07376 509.881L569.0288 509.881L569.0288 509.881L569.0288 522.1154L569.0288 522.1154L25.07376 522.1154z" /></clipPath><clipPath id="56"><path id="" clip-rule="evenodd" transform="matrix(1 0 0 1 0 0)" d="M19.4363 49.5282L575.6259 49.5282L575.6259 49.5282L575.6259 803.7487L575.6259 803.7487L19.4363 803.7487z" /></clipPath><clipPath id="57"><path id="" clip-rule="evenodd" transform="matrix(1 0 0 1 0 0)" d="M30.71123 94.8678L569.0288 94.8678L569.0288 94.8678L569.0288 106.9824L569.0288 106.9824L30.71123 106.9824z" /></clipPath><clipPath id="58"><path id="" clip-rule="evenodd" transform="matrix(1 0 0 1 0 0)" d="M19.4363 49.5282L575.6259 49.5282L575.6259 49.5282L575.6259 803.7487L575.6259 803.7487L19.4363 803.7487z" /></clipPath><clipPath id="59"><path id="" clip-rule="evenodd" transform="matrix(1 0 0 1 0 0)" d="M30.71123 645.0601L569.0288 645.0601L569.0288 645.0601L569.0288 657.1746L569.0288 657.1746L30.71123 657.1746z" /></clipPath><clipPath id="60"><path id="" clip-rule="evenodd" transform="matrix(1 0 0 1 0 0)" d="M19.4363 27.69806L575.6259 27.69806L575.6259 27.69806L575.6259 825.5788L575.6259 825.5788L19.4363 825.5788z" /></clipPath><clipPath id="61"><path id="" clip-rule="evenodd" transform="matrix(1 0 0 1 0 0)" d="M25.07376 809.3861L161.0925 809.3861L161.0925 809.3861L161.0925 820.7809L161.0925 820.7809L25.07376 820.7809z" /></clipPath><clipPath id="62"><path id="" clip-rule="evenodd" transform="matrix(1 0 0 1 0 0)" d="M161.0925 809.3861L166.73 809.3861L166.73 809.3861L166.73 820.7809L166.73 820.7809L161.0925 820.7809z" /></clipPath><clipPath id="63"><path id="" clip-rule="evenodd" transform="matrix(1 0 0 1 0 0)" d="M166.73 809.3861L234.7393 809.3861L234.7393 809.3861L234.7393 820.7809L234.7393 820.7809L166.73 820.7809z" /></clipPath><clipPath id="64"><path id="" clip-rule="evenodd" transform="matrix(1 0 0 1 0 0)" d="M237.6181 809.3861L353.7258 809.3861L353.7258 809.3861L353.7258 820.7809L353.7258 820.7809L237.6181 820.7809z" /></clipPath><clipPath id="65"><path id="" clip-rule="evenodd" transform="matrix(1 0 0 1 0 0)" d="M353.7258 809.3861L359.3632 809.3861L359.3632 809.3861L359.3632 820.7809L359.3632 820.7809L353.7258 820.7809z" /></clipPath><clipPath id="66"><path id="" clip-rule="evenodd" transform="matrix(1 0 0 1 0 0)" d="M359.3632 809.3861L458.5586 809.3861L458.5586 809.3861L458.5586 820.7809L458.5586 820.7809L359.3632 820.7809z" /></clipPath><clipPath id="67"><path id="" clip-rule="evenodd" transform="matrix(1 0 0 1 0 0)" d="M458.5586 809.3861L495.382 809.3861L495.382 809.3861L495.382 820.7809L495.382 820.7809L458.5586 820.7809z" /></clipPath><clipPath id="68"><path id="" clip-rule="evenodd" transform="matrix(1 0 0 1 0 0)" d="M495.382 809.3861L501.0194 809.3861L501.0194 809.3861L501.0194 820.7809L501.0194 820.7809L495.382 820.7809z" /></clipPath><clipPath id="69"><path id="" clip-rule="evenodd" transform="matrix(1 0 0 1 0 0)" d="M501.0194 809.3861L520.8105 809.3861L520.8105 809.3861L520.8105 820.7809L520.8105 820.7809L501.0194 820.7809z" /></clipPath><clipPath id="70"><path id="" clip-rule="evenodd" transform="matrix(1 0 0 1 0 0)" d="M540.7216 809.3861L569.0288 809.3861L569.0288 809.3861L569.0288 820.7809L569.0288 820.7809L540.7216 820.7809z" /></clipPath></defs><g transform="matrix(1.333333 0 0 1.333333 0 0)"><g clip-path="url(#1)"><g clip-path="url(#2)"><g clip-path="url(#3)"><g clip-path="url(#4)"></g><path id="8" transform="matrix(1 0 0 -1 0 841)" d="M22.31501 810.6631L571.7876 810.6631L571.7876 810.6631L571.7876 810.0634L571.7876 810.0634L22.31501 810.0634" stroke="none" fill="#000000" fill-rule="evenodd" /><path id="9" transform="matrix(1 0 0 -1 0 841)" d="M22.07512 810.6631L22.5549 810.6631L22.5549 810.6631L22.5549 810.0634L22.5549 810.0634L22.07512 810.0634" stroke="none" fill="#000000" fill-rule="evenodd" /><path id="10" transform="matrix(1 0 0 -1 0 841)" d="M571.5477 810.6631L572.0275 810.6631L572.0275 810.6631L572.0275 810.0634L572.0275 810.0634L571.5477 810.0634" stroke="none" fill="#000000" fill-rule="evenodd" /><path id="11" transform="matrix(1 0 0 -1 0 841)" d="M572.0275 810.4233L572.0275 792.0715L572.0275 792.0715L571.4277 792.0715L571.4277 792.0715L571.4277 810.4233" stroke="none" fill="#000000" fill-rule="evenodd" /><path id="12" transform="matrix(1 0 0 -1 0 841)" d="M572.0275 810.6631L572.0275 810.1833L572.0275 810.1833L571.4277 810.1833L571.4277 810.1833L571.4277 810.6631" stroke="none" fill="#000000" fill-rule="evenodd" /><path id="13" transform="matrix(1 0 0 -1 0 841)" d="M572.0275 792.3114L572.0275 791.8316L572.0275 791.8316L571.4277 791.8316L571.4277 791.8316L571.4277 792.3114" stroke="none" fill="#000000" fill-rule="evenodd" /><path id="14" transform="matrix(1 0 0 -1 0 841)" d="M571.7876 791.8316L22.31501 791.8316L22.31501 791.8316L22.31501 792.4313L22.31501 792.4313L571.7876 792.4313" stroke="none" fill="#000000" fill-rule="evenodd" /><path id="15" transform="matrix(1 0 0 -1 0 841)" d="M572.0275 791.8316L571.5477 791.8316L571.5477 791.8316L571.5477 792.4313L571.5477 792.4313L572.0275 792.4313" stroke="none" fill="#000000" fill-rule="evenodd" /><path id="16" transform="matrix(1 0 0 -1 0 841)" d="M22.5549 791.8316L22.07512 791.8316L22.07512 791.8316L22.07512 792.4313L22.07512 792.4313L22.5549 792.4313" stroke="none" fill="#000000" fill-rule="evenodd" /><path id="17" transform="matrix(1 0 0 -1 0 841)" d="M22.07512 792.0715L22.07512 810.4233L22.07512 810.4233L22.67485 810.4233L22.67485 810.4233L22.67485 792.0715" stroke="none" fill="#000000" fill-rule="evenodd" /><path id="18" transform="matrix(1 0 0 -1 0 841)" d="M22.07512 791.8316L22.07512 792.3114L22.07512 792.3114L22.67485 792.3114L22.67485 792.3114L22.67485 791.8316" stroke="none" fill="#000000" fill-rule="evenodd" /><path id="19" transform="matrix(1 0 0 -1 0 841)" d="M22.07512 810.1833L22.07512 810.6631L22.07512 810.6631L22.67485 810.6631L22.67485 810.6631L22.67485 810.1833" stroke="none" fill="#000000" fill-rule="evenodd" /></g><g clip-path="url(#5)"><path id="20" transform="matrix(1 0 0 -1 0 841)" d="M30.71123 731.3788L569.0288 731.3788L569.0288 731.3788L569.0288 730.7791L569.0288 730.7791L30.71123 730.7791" stroke="none" fill="#000000" fill-rule="evenodd" /><path id="21" transform="matrix(1 0 0 -1 0 841)" d="M30.47133 731.3788L30.95112 731.3788L30.95112 731.3788L30.95112 730.7791L30.95112 730.7791L30.47133 730.7791" stroke="none" fill="#000000" fill-rule="evenodd" /><path id="22" transform="matrix(1 0 0 -1 0 841)" d="M568.7889 731.3788L569.2687 731.3788L569.2687 731.3788L569.2687 730.7791L569.2687 730.7791L568.7889 730.7791" stroke="none" fill="#000000" fill-rule="evenodd" /><path id="23" transform="matrix(1 0 0 -1 0 841)" d="M569.2687 731.139L569.2687 471.096L569.2687 471.096L568.669 471.096L568.669 471.096L568.669 731.139" stroke="none" fill="#000000" fill-rule="evenodd" /><path id="24" transform="matrix(1 0 0 -1 0 841)" d="M569.2687 731.3788L569.2687 730.899L569.2687 730.899L568.669 730.899L568.669 730.899L568.669 731.3788" stroke="none" fill="#000000" fill-rule="evenodd" /><path id="25" transform="matrix(1 0 0 -1 0 841)" d="M569.2687 471.3359L569.2687 470.8561L569.2687 470.8561L568.669 470.8561L568.669 470.8561L568.669 471.3359" stroke="none" fill="#000000" fill-rule="evenodd" /><path id="26" transform="matrix(1 0 0 -1 0 841)" d="M569.0288 470.8561L30.71123 470.8561L30.71123 470.8561L30.71123 471.4559L30.71123 471.4559L569.0288 471.4559" stroke="none" fill="#000000" fill-rule="evenodd" /><path id="27" transform="matrix(1 0 0 -1 0 841)" d="M569.2687 470.8561L568.7889 470.8561L568.7889 470.8561L568.7889 471.4559L568.7889 471.4559L569.2687 471.4559" stroke="none" fill="#000000" fill-rule="evenodd" /><path id="28" transform="matrix(1 0 0 -1 0 841)" d="M30.95112 470.8561L30.47133 470.8561L30.47133 470.8561L30.47133 471.4559L30.47133 471.4559L30.95112 471.4559" stroke="none" fill="#000000" fill-rule="evenodd" /><path id="29" transform="matrix(1 0 0 -1 0 841)" d="M30.47133 471.096L30.47133 731.139L30.47133 731.139L31.07106 731.139L31.07106 731.139L31.07106 471.096" stroke="none" fill="#000000" fill-rule="evenodd" /><path id="30" transform="matrix(1 0 0 -1 0 841)" d="M30.47133 470.8561L30.47133 471.3359L30.47133 471.3359L31.07106 471.3359L31.07106 471.3359L31.07106 470.8561" stroke="none" fill="#000000" fill-rule="evenodd" /><path id="31" transform="matrix(1 0 0 -1 0 841)" d="M30.47133 730.899L30.47133 731.3788L30.47133 731.3788L31.07106 731.3788L31.07106 731.3788L31.07106 730.899" stroke="none" fill="#000000" fill-rule="evenodd" /><path id="32" transform="matrix(1 0 0 -1 0 841)" d="M22.31501 788.833L571.7876 788.833L571.7876 788.833L571.7876 788.2333L571.7876 788.2333L22.31501 788.2333" stroke="none" fill="#000000" fill-rule="evenodd" /><path id="33" transform="matrix(1 0 0 -1 0 841)" d="M22.07512 788.833L22.5549 788.833L22.5549 788.833L22.5549 788.2333L22.5549 788.2333L22.07512 788.2333" stroke="none" fill="#000000" fill-rule="evenodd" /><path id="34" transform="matrix(1 0 0 -1 0 841)" d="M571.5477 788.833L572.0275 788.833L572.0275 788.833L572.0275 788.2333L572.0275 788.2333L571.5477 788.2333" stroke="none" fill="#000000" fill-rule="evenodd" /><path id="35" transform="matrix(1 0 0 -1 0 841)" d="M572.0275 788.5931L572.0275 764.0042L572.0275 764.0042L571.4277 764.0042L571.4277 764.0042L571.4277 788.5931" stroke="none" fill="#000000" fill-rule="evenodd" /><path id="36" transform="matrix(1 0 0 -1 0 841)" d="M572.0275 788.833L572.0275 788.3532L572.0275 788.3532L571.4277 788.3532L571.4277 788.3532L571.4277 788.833" stroke="none" fill="#000000" fill-rule="evenodd" /><path id="37" transform="matrix(1 0 0 -1 0 841)" d="M572.0275 764.244L572.0275 763.7643L572.0275 763.7643L571.4277 763.7643L571.4277 763.7643L571.4277 764.244" stroke="none" fill="#000000" fill-rule="evenodd" /><path id="38" transform="matrix(1 0 0 -1 0 841)" d="M571.7876 763.7643L22.31501 763.7643L22.31501 763.7643L22.31501 764.364L22.31501 764.364L571.7876 764.364" stroke="none" fill="#000000" fill-rule="evenodd" /><path id="39" transform="matrix(1 0 0 -1 0 841)" d="M572.0275 763.7643L571.5477 763.7643L571.5477 763.7643L571.5477 764.364L571.5477 764.364L572.0275 764.364" stroke="none" fill="#000000" fill-rule="evenodd" /><path id="40" transform="matrix(1 0 0 -1 0 841)" d="M22.5549 763.7643L22.07512 763.7643L22.07512 763.7643L22.07512 764.364L22.07512 764.364L22.5549 764.364" stroke="none" fill="#000000" fill-rule="evenodd" /><path id="41" transform="matrix(1 0 0 -1 0 841)" d="M22.07512 764.0042L22.07512 788.5931L22.07512 788.5931L22.67485 788.5931L22.67485 788.5931L22.67485 764.0042" stroke="none" fill="#000000" fill-rule="evenodd" /><path id="42" transform="matrix(1 0 0 -1 0 841)" d="M22.07512 763.7643L22.07512 764.244L22.07512 764.244L22.67485 764.244L22.67485 764.244L22.67485 763.7643" stroke="none" fill="#000000" fill-rule="evenodd" /><path id="43" transform="matrix(1 0 0 -1 0 841)" d="M22.07512 788.3532L22.07512 788.833L22.07512 788.833L22.67485 788.833L22.67485 788.833L22.67485 788.3532" stroke="none" fill="#000000" fill-rule="evenodd" /><g clip-path="url(#6)"><g clip-path="url(#7)"></g></g><g clip-path="url(#8)"><g clip-path="url(#9)"></g></g><g clip-path="url(#10)"><g clip-path="url(#11)"></g></g><g clip-path="url(#12)"><g clip-path="url(#13)"></g></g><g clip-path="url(#14)"><g clip-path="url(#15)"></g></g><path id="685" transform="matrix(1 0 0 -1 0 841)" d="M356.7244 731.139L356.7244 471.096L356.7244 471.096L356.1247 471.096L356.1247 471.096L356.1247 731.139" stroke="none" fill="#000000" fill-rule="evenodd" /><path id="686" transform="matrix(1 0 0 -1 0 841)" d="M356.7244 731.3788L356.7244 730.899L356.7244 730.899L356.1247 730.899L356.1247 730.899L356.1247 731.3788" stroke="none" fill="#000000" fill-rule="evenodd" /><path id="687" transform="matrix(1 0 0 -1 0 841)" d="M356.7244 471.3359L356.7244 470.8561L356.7244 470.8561L356.1247 470.8561L356.1247 470.8561L356.1247 471.3359" stroke="none" fill="#000000" fill-rule="evenodd" /><path id="688" transform="matrix(1 0 0 -1 0 841)" d="M30.71123 713.5069L569.0288 713.5069L569.0288 713.5069L569.0288 712.9072L569.0288 712.9072L30.71123 712.9072" stroke="none" fill="#000000" fill-rule="evenodd" /><path id="689" transform="matrix(1 0 0 -1 0 841)" d="M30.47133 713.5069L30.95112 713.5069L30.95112 713.5069L30.95112 712.9072L30.95112 712.9072L30.47133 712.9072" stroke="none" fill="#000000" fill-rule="evenodd" /><path id="690" transform="matrix(1 0 0 -1 0 841)" d="M568.7889 713.5069L569.2687 713.5069L569.2687 713.5069L569.2687 712.9072L569.2687 712.9072L568.7889 712.9072" stroke="none" fill="#000000" fill-rule="evenodd" /><g clip-path="url(#16)"><g clip-path="url(#17)"></g></g><g clip-path="url(#18)"><g clip-path="url(#19)"></g></g><g clip-path="url(#20)"><g clip-path="url(#21)"></g></g><g clip-path="url(#22)"><g clip-path="url(#23)"></g></g><g clip-path="url(#24)"><g clip-path="url(#25)"></g></g><g clip-path="url(#26)"><g clip-path="url(#27)"></g></g><g clip-path="url(#28)"><g clip-path="url(#29)"></g></g><g clip-path="url(#30)"><g clip-path="url(#31)"></g></g><g clip-path="url(#32)"><g clip-path="url(#33)"></g></g><g clip-path="url(#34)"><g clip-path="url(#35)"></g></g><g clip-path="url(#36)"><g clip-path="url(#37)"></g></g><g clip-path="url(#38)"><g clip-path="url(#39)"></g></g><g clip-path="url(#40)"><g clip-path="url(#41)"></g></g><g clip-path="url(#42)"><g clip-path="url(#43)"></g></g><g clip-path="url(#44)"><g clip-path="url(#45)"></g></g><g clip-path="url(#46)"><g clip-path="url(#47)"></g></g><g clip-path="url(#48)"><g clip-path="url(#49)"></g></g><g clip-path="url(#50)"><g clip-path="url(#51)"></g></g><g clip-path="url(#52)"><g clip-path="url(#53)"><path id="3277" transform="matrix(1 0 0 -1 0 841)" d="M25.07376 751.0704L116.9524 751.0704" stroke="#0000FF" stroke-width="1.035374" fill="none" /></g></g><g clip-path="url(#54)"><g clip-path="url(#55)"><path id="3296" transform="matrix(1 0 0 -1 0 841)" d="M25.07376 321.064L172.4874 321.064" stroke="#0000FF" stroke-width="1.035374" fill="none" /></g></g><g clip-path="url(#56)"><g clip-path="url(#57)"><path id="3327" transform="matrix(1 0 0 -1 0 841)" d="M30.71123 736.0771L169.7286 736.0771" stroke="#0000FF" stroke-width="1.035374" fill="none" /></g></g><g clip-path="url(#58)"><g clip-path="url(#59)"><path id="3356" transform="matrix(1 0 0 -1 0 841)" d="M30.71123 185.8848L103.2785 185.8848" stroke="#0000FF" stroke-width="1.035374" fill="none" /></g></g></g><g clip-path="url(#60)"><g clip-path="url(#61)"></g><path id="3398" transform="matrix(1 0 0 -1 0 841)" d="M22.31501 34.61255L571.7876 34.61255L571.7876 34.61255L571.7876 34.01282L571.7876 34.01282L22.31501 34.01282" stroke="none" fill="#000000" fill-rule="evenodd" /><path id="3399" transform="matrix(1 0 0 -1 0 841)" d="M22.07512 34.61255L22.5549 34.61255L22.5549 34.61255L22.5549 34.01282L22.5549 34.01282L22.07512 34.01282" stroke="none" fill="#000000" fill-rule="evenodd" /><path id="3400" transform="matrix(1 0 0 -1 0 841)" d="M571.5477 34.61255L572.0275 34.61255L572.0275 34.61255L572.0275 34.01282L572.0275 34.01282L571.5477 34.01282" stroke="none" fill="#000000" fill-rule="evenodd" /><path id="3401" transform="matrix(1 0 0 -1 0 841)" d="M572.0275 34.37268L572.0275 16.02094L572.0275 16.02094L571.4277 16.02094L571.4277 16.02094L571.4277 34.37268" stroke="none" fill="#000000" fill-rule="evenodd" /><path id="3402" transform="matrix(1 0 0 -1 0 841)" d="M572.0275 34.61255L572.0275 34.13275L572.0275 34.13275L571.4277 34.13275L571.4277 34.13275L571.4277 34.61255" stroke="none" fill="#000000" fill-rule="evenodd" /><path id="3403" transform="matrix(1 0 0 -1 0 841)" d="M572.0275 16.2608L572.0275 15.78107L572.0275 15.78107L571.4277 15.78107L571.4277 15.78107L571.4277 16.2608" stroke="none" fill="#000000" fill-rule="evenodd" /><path id="3404" transform="matrix(1 0 0 -1 0 841)" d="M571.7876 15.78107L22.31501 15.78107L22.31501 15.78107L22.31501 16.3808L22.31501 16.3808L571.7876 16.3808" stroke="none" fill="#000000" fill-rule="evenodd" /><path id="3405" transform="matrix(1 0 0 -1 0 841)" d="M572.0275 15.78107L571.5477 15.78107L571.5477 15.78107L571.5477 16.3808L571.5477 16.3808L572.0275 16.3808" stroke="none" fill="#000000" fill-rule="evenodd" /><path id="3406" transform="matrix(1 0 0 -1 0 841)" d="M22.5549 15.78107L22.07512 15.78107L22.07512 15.78107L22.07512 16.3808L22.07512 16.3808L22.5549 16.3808" stroke="none" fill="#000000" fill-rule="evenodd" /><path id="3407" transform="matrix(1 0 0 -1 0 841)" d="M22.07512 16.02094L22.07512 34.37268L22.07512 34.37268L22.67485 34.37268L22.67485 34.37268L22.67485 16.02094" stroke="none" fill="#000000" fill-rule="evenodd" /><path id="3408" transform="matrix(1 0 0 -1 0 841)" d="M22.07512 15.78107L22.07512 16.2608L22.07512 16.2608L22.67485 16.2608L22.67485 16.2608L22.67485 15.78107" stroke="none" fill="#000000" fill-rule="evenodd" /><path id="3409" transform="matrix(1 0 0 -1 0 841)" d="M22.07512 34.13275L22.07512 34.61255L22.07512 34.61255L22.67485 34.61255L22.67485 34.61255L22.67485 34.13275" stroke="none" fill="#000000" fill-rule="evenodd" /><g clip-path="url(#62)"></g><g clip-path="url(#63)"></g><g clip-path="url(#64)"></g><g clip-path="url(#65)"></g><g clip-path="url(#66)"></g><g clip-path="url(#67)"></g><g clip-path="url(#68)"></g><g clip-path="url(#69)"></g><g clip-path="url(#70)"></g></g></g></g></g></svg>