<svg xmlns="http://www.w3.org/2000/svg" xmlns:xlink="http://www.w3.org/1999/xlink" id="body_254" preserveAspectRatio="xMinYMin meet" viewBox="0 0 793 1121"><defs><clipPath id="1"><path id="" clip-rule="evenodd" transform="matrix(1 0 0 1 0 0)" d="M0 841L0 -0.8900146L0 -0.8900146L595.276 -0.8900146L595.276 -0.8900146L595.276 841L595.276 841L0 841z" /></clipPath></defs><g transform="matrix(1.333333 0 0 1.333333 0 0)"><g clip-path="url(#1)"><path id="23" transform="matrix(1 0 0 -1 0 841)" d="M85.039 766.564L510.236 766.564" stroke="#000000" stroke-width="0.498" fill="none" /><g transform="matrix(0.375 0 0 0.375 112.312 84.14899)"><g transform="matrix(1 0 0 1 0 0)"><image x="0" y="0" xlink:href="img_389.png" width="474" height="243" /></g></g><g transform="matrix(0.4875 0 0 0.4875 112.312 209.594)"><g transform="matrix(1 0 0 1 0 0)"><image x="0" y="0" xlink:href="img_390.png" width="364" height="100" /></g></g><path id="234" transform="matrix(1 0 0 -1 0 841)" d="M215.369 456.894L229.3 456.894" stroke="#000000" stroke-width="0.436" fill="none" /><path id="241" transform="matrix(1 0 0 -1 0 841)" d="M231.69 456.894L245.621 456.894" stroke="#000000" stroke-width="0.436" fill="none" /><path id="251" transform="matrix(1 0 0 -1 0 841)" d="M256.497 456.894L288.078 456.894" stroke="#000000" stroke-width="0.436" fill="none" /><path id="267" transform="matrix(1 0 0 -1 0 841)" d="M336.478 456.894L361.318 456.894" stroke="#000000" stroke-width="0.436" fill="none" /><path id="280" transform="matrix(1 0 0 -1 0 841)" d="M375.838 464.653L415.34 464.653" stroke="#000000" stroke-width="0.398" fill="none" /><path id="281" transform="matrix(1 0 0 -1 0 841)" d="M376.037 450.739L376.037 464.653" stroke="#000000" stroke-width="0.398" fill="none" /><path id="282" transform="matrix(1 0 0 -1 0 841)" d="M415.14 450.739L415.14 464.653" stroke="#000000" stroke-width="0.398" fill="none" /><path id="283" transform="matrix(1 0 0 -1 0 841)" d="M375.838 450.739L415.34 450.739" stroke="#000000" stroke-width="0.398" fill="none" /></g></g></svg>