<svg xmlns="http://www.w3.org/2000/svg" xmlns:xlink="http://www.w3.org/1999/xlink" id="body_332" preserveAspectRatio="xMinYMin meet" viewBox="0 0 793 1121"><defs><clipPath id="1"><path id="" clip-rule="evenodd" transform="matrix(1 0 0 1 0 0)" d="M0 841L0 -0.8900146L0 -0.8900146L595.276 -0.8900146L595.276 -0.8900146L595.276 841L595.276 841L0 841z" /></clipPath></defs><g transform="matrix(1.333333 0 0 1.333333 0 0)"><g clip-path="url(#1)"><path id="34" transform="matrix(1 0 0 -1 0 841)" d="M85.039 766.564L510.236 766.564" stroke="#000000" stroke-width="0.498" fill="none" /><path id="46" transform="matrix(1 0 0 -1 0 841)" d="M176.053 744.777L182.926 744.777" stroke="#000000" stroke-width="0.436" fill="none" /><path id="61" transform="matrix(1 0 0 -1 0 841)" d="M259.323 744.777L270.232 744.777" stroke="#000000" stroke-width="0.436" fill="none" /><path id="79" transform="matrix(1 0 0 -1 0 841)" d="M349.969 744.777L366.333 744.777" stroke="#000000" stroke-width="0.436" fill="none" /><path id="134" transform="matrix(1 0 0 -1 0 841)" d="M192.591 702.136L208.954 702.136" stroke="#000000" stroke-width="0.436" fill="none" /><path id="156" transform="matrix(1 0 0 -1 0 841)" d="M302.536 702.136L318.899 702.136" stroke="#000000" stroke-width="0.436" fill="none" /><path id="205" transform="matrix(1 0 0 -1 0 841)" d="M165.003 640.283L181.366 640.283" stroke="#000000" stroke-width="0.436" fill="none" /><path id="217" transform="matrix(1 0 0 -1 0 841)" d="M211.628 640.283L226.126 640.283" stroke="#000000" stroke-width="0.436" fill="none" /><path id="231" transform="matrix(1 0 0 -1 0 841)" d="M278.983 640.283L295.346 640.283" stroke="#000000" stroke-width="0.436" fill="none" /><path id="235" transform="matrix(1 0 0 -1 0 841)" d="M240.646 663.791L311.866 663.791L311.866 667.776L240.646 667.776z" stroke="none" fill="#000000" fill-rule="nonzero" /><path id="236" transform="matrix(1 0 0 -1 0 841)" d="M240.646 616.621L244.631 616.621L244.631 665.783L240.646 665.783z" stroke="none" fill="#000000" fill-rule="nonzero" /><path id="237" transform="matrix(1 0 0 -1 0 841)" d="M307.88 616.621L311.865 616.621L311.865 665.783L307.88 665.783z" stroke="none" fill="#000000" fill-rule="nonzero" /><path id="238" transform="matrix(1 0 0 -1 0 841)" d="M240.646 614.629L311.866 614.629L311.866 618.614L240.646 618.614z" stroke="none" fill="#000000" fill-rule="nonzero" /><g transform="matrix(0.3 0 0 0.3 112.312 278.245)"><g transform="matrix(1 0 0 1 0 0)"><image x="0" y="0" xlink:href="img_467.png" width="484" height="134" /></g></g><path id="378" transform="matrix(1 0 0 -1 0 841)" d="M403.46 499.842L411.336 499.842" stroke="#000000" stroke-width="0.436" fill="none" /><path id="537" transform="matrix(1 0 0 -1 0 841)" d="M120.173 397.9L134.104 397.9" stroke="#000000" stroke-width="0.436" fill="none" /><path id="552" transform="matrix(1 0 0 -1 0 841)" d="M164.346 410.014L178.592 410.014" stroke="#000000" stroke-width="0.436" fill="none" /><path id="558" transform="matrix(1 0 0 -1 0 841)" d="M149.819 397.9L179.787 397.9" stroke="#000000" stroke-width="0.436" fill="none" /><path id="565" transform="matrix(1 0 0 -1 0 841)" d="M164.318 381.324L178.249 381.324" stroke="#000000" stroke-width="0.436" fill="none" /><path id="621" transform="matrix(1 0 0 -1 0 841)" d="M113.508 331.802L174.02 331.802" stroke="#000000" stroke-width="0.436" fill="none" /><path id="631" transform="matrix(1 0 0 -1 0 841)" d="M184.896 331.802L238.732 331.802" stroke="#000000" stroke-width="0.436" fill="none" /><path id="652" transform="matrix(1 0 0 -1 0 841)" d="M249.607 331.802L279.901 331.802" stroke="#000000" stroke-width="0.436" fill="none" /><path id="666" transform="matrix(1 0 0 -1 0 841)" d="M315.002 331.802L329.248 331.802" stroke="#000000" stroke-width="0.436" fill="none" /><path id="715" transform="matrix(1 0 0 -1 0 841)" d="M178.039 280.432L231.056 280.432" stroke="#000000" stroke-width="0.436" fill="none" /><path id="719" transform="matrix(1 0 0 -1 0 841)" d="M200.309 266.916L214.24 266.916" stroke="#000000" stroke-width="0.436" fill="none" /><path id="740" transform="matrix(1 0 0 -1 0 841)" d="M168.472 225.66L175.345 225.66" stroke="#000000" stroke-width="0.436" fill="none" /><path id="760" transform="matrix(1 0 0 -1 0 841)" d="M310.537 225.66L335.377 225.66" stroke="#000000" stroke-width="0.436" fill="none" /><path id="772" transform="matrix(1 0 0 -1 0 841)" d="M392.745 225.66L417.585 225.66" stroke="#000000" stroke-width="0.436" fill="none" /><path id="780" transform="matrix(1 0 0 -1 0 841)" d="M426.489 235.129L431.944 235.129" stroke="#000000" stroke-width="0.436" fill="none" /><path id="791" transform="matrix(1 0 0 -1 0 841)" d="M166.061 192.859L190.901 192.859" stroke="#000000" stroke-width="0.436" fill="none" /><path id="799" transform="matrix(1 0 0 -1 0 841)" d="M199.805 202.327L205.26 202.327" stroke="#000000" stroke-width="0.436" fill="none" /><path id="805" transform="matrix(1 0 0 -1 0 841)" d="M220.277 208.801L271.597 208.801L271.597 212.786L220.277 212.786z" stroke="none" fill="#000000" fill-rule="nonzero" /><path id="806" transform="matrix(1 0 0 -1 0 841)" d="M220.277 174.52L224.262 174.52L224.262 210.793L220.277 210.793z" stroke="none" fill="#000000" fill-rule="nonzero" /><path id="807" transform="matrix(1 0 0 -1 0 841)" d="M267.612 174.52L271.597 174.52L271.597 210.793L267.612 210.793z" stroke="none" fill="#000000" fill-rule="nonzero" /><path id="808" transform="matrix(1 0 0 -1 0 841)" d="M220.277 172.528L271.597 172.528L271.597 176.513L220.277 176.513z" stroke="none" fill="#000000" fill-rule="nonzero" /></g></g></svg>