<svg xmlns="http://www.w3.org/2000/svg" xmlns:xlink="http://www.w3.org/1999/xlink" id="body_70" preserveAspectRatio="xMinYMin meet" viewBox="0 0 793 1121"><defs><clipPath id="1"><path id="" clip-rule="evenodd" transform="matrix(1 0 0 1 0 0)" d="M0 841L0 -0.8900146L0 -0.8900146L595.276 -0.8900146L595.276 -0.8900146L595.276 841L595.276 841L0 841z" /></clipPath></defs><g transform="matrix(1.333333 0 0 1.333333 0 0)"><g clip-path="url(#1)"><path id="23" transform="matrix(1 0 0 -1 0 841)" d="M85.039 766.564L510.236 766.564" stroke="#000000" stroke-width="0.498" fill="none" /><path id="24" transform="matrix(1 0 0 -1 0 841)" d="M84.79 742.455L114.982 742.455" stroke="#000000" stroke-width="0.491" fill="none" /><path id="31" transform="matrix(1 0 0 -1 0 841)" d="M114.484 742.455L118.615 742.455" stroke="#000000" stroke-width="0.491" fill="none" /><path id="33" transform="matrix(1 0 0 -1 0 841)" d="M118.117 742.455L139.822 742.455" stroke="#000000" stroke-width="0.491" fill="none" /><path id="39" transform="matrix(1 0 0 -1 0 841)" d="M139.573 742.455L142.3 742.455" stroke="#000000" stroke-width="0.491" fill="none" /><path id="40" transform="matrix(1 0 0 -1 0 841)" d="M142.051 742.455L161.945 742.455" stroke="#000000" stroke-width="0.491" fill="none" /><g transform="matrix(0.9 0 0 0.8999999 85.24 193.906)"><g transform="matrix(1 0 0 1 0 0)"><image x="0" y="0" xlink:href="img_92.png" width="472" height="189" /></g></g><path id="562" transform="matrix(1 0 0 -1 0 841)" d="M84.79 386.848L104.073 386.848" stroke="#000000" stroke-width="0.491" fill="none" /><path id="567" transform="matrix(1 0 0 -1 0 841)" d="M103.575 386.848L124.058 386.848" stroke="#000000" stroke-width="0.491" fill="none" /><path id="572" transform="matrix(1 0 0 -1 0 841)" d="M123.81 386.848L126.537 386.848" stroke="#000000" stroke-width="0.491" fill="none" /><path id="573" transform="matrix(1 0 0 -1 0 841)" d="M126.288 386.848L130.419 386.848" stroke="#000000" stroke-width="0.491" fill="none" /><path id="575" transform="matrix(1 0 0 -1 0 841)" d="M130.17 386.848L132.897 386.848" stroke="#000000" stroke-width="0.491" fill="none" /><path id="576" transform="matrix(1 0 0 -1 0 841)" d="M132.648 386.848L146.477 386.848" stroke="#000000" stroke-width="0.491" fill="none" /><path id="579" transform="matrix(1 0 0 -1 0 841)" d="M145.979 386.848L170.706 386.848" stroke="#000000" stroke-width="0.491" fill="none" /><path id="585" transform="matrix(1 0 0 -1 0 841)" d="M170.457 386.848L173.184 386.848" stroke="#000000" stroke-width="0.491" fill="none" /><path id="586" transform="matrix(1 0 0 -1 0 841)" d="M172.935 386.848L183.131 386.848" stroke="#000000" stroke-width="0.491" fill="none" /><path id="589" transform="matrix(1 0 0 -1 0 841)" d="M182.633 386.848L186.764 386.848" stroke="#000000" stroke-width="0.491" fill="none" /><path id="591" transform="matrix(1 0 0 -1 0 841)" d="M186.265 386.848L198.272 386.848" stroke="#000000" stroke-width="0.491" fill="none" /><path id="594" transform="matrix(1 0 0 -1 0 841)" d="M198.023 386.848L200.75 386.848" stroke="#000000" stroke-width="0.491" fill="none" /><path id="595" transform="matrix(1 0 0 -1 0 841)" d="M200.502 386.848L234.938 386.848" stroke="#000000" stroke-width="0.491" fill="none" /></g></g></svg>