<svg xmlns="http://www.w3.org/2000/svg" xmlns:xlink="http://www.w3.org/1999/xlink" id="body_405" preserveAspectRatio="xMinYMin meet" viewBox="0 0 1121 793"><defs><clipPath id="1"><path id="" clip-rule="evenodd" transform="matrix(1 0 0 1 0 0)" d="M0 -0.276001L841.89 -0.276001L841.89 -0.276001L841.89 595L841.89 595L3.644894E-14 595L3.644894E-14 595L0 -0.276001z" /></clipPath><clipPath id="2"><path id="" clip-rule="evenodd" transform="matrix(1 0 0 1 0 0)" d="M35.587 595.1386L806.3059 595.1386L806.3059 595.1386L806.3059 -0.4169312L806.3059 -0.4169312L35.587 -0.4169312z" /></clipPath><clipPath id="3"><path id="" clip-rule="evenodd" transform="matrix(1 0 0 1 0 0)" d="M69.304 325.7179L488.0321 325.7179L488.0321 325.7179L488.0321 34.82013L488.0321 34.82013L69.304 34.82013z" /></clipPath><clipPath id="4"><path id="" clip-rule="evenodd" transform="matrix(1 0 0 1 0 0)" d="M69.29135 557.9437L488.0195 557.9437L488.0195 557.9437L488.0195 324.3925L488.0195 324.3925L69.29135 324.3925z" /></clipPath><clipPath id="5"><path id="" clip-rule="evenodd" transform="matrix(1 0 0 1 0 0)" d="M487.1388 325.3967L772.1296 325.3967L772.1296 325.3967L772.1296 34.78113L772.1296 34.78113L487.1388 34.78113z" /></clipPath><clipPath id="6"><path id="" clip-rule="evenodd" transform="matrix(1 0 0 1 0 0)" d="M487.1388 558.0643L772.1393 558.0643L772.1393 558.0643L772.1393 325.0872L772.1393 325.0872L487.1388 325.0872z" /></clipPath></defs><g transform="matrix(1.333333 0 0 1.333333 0 0)"><g clip-path="url(#1)"><g><g clip-path="url(#2)"><g clip-path="url(#3)"><path id="1" transform="matrix(1 0 0 -1 0 595)" d="M69.304 269.2821L488.0321 269.2821L488.0321 269.2821L488.0321 560.1799L488.0321 560.1799L69.304 560.1799z" stroke="#000000" stroke-width="1.94626" stroke-linecap="round" fill="none" /></g><path id="14" transform="matrix(1 0 0 -1 0 595)" d="M77.27589 544.2692L140.8252 544.2692L140.8252 544.2692L140.8252 545.437L140.8252 545.437L77.27589 545.437z" stroke="none" fill="#000000" fill-rule="evenodd" /><path id="119" transform="matrix(1 0 0 -1 0 595)" d="M224.5494 521.0114L373.3409 521.0114L373.3409 521.0114L373.3409 521.712L373.3409 521.712L224.5494 521.712z" stroke="none" fill="#000000" fill-rule="evenodd" /><path id="271" transform="matrix(1 0 0 -1 0 595)" d="M234.2418 487.4968L312.1544 487.4968L312.1544 487.4968L312.1544 488.1975L312.1544 488.1975L234.2418 488.1975z" stroke="none" fill="#000000" fill-rule="evenodd" /><path id="448" transform="matrix(1 0 0 -1 0 595)" d="M330.2605 453.8654L352.3311 453.8654L352.3311 453.8654L352.3311 454.5661L352.3311 454.5661L330.2605 454.5661z" stroke="none" fill="#000000" fill-rule="evenodd" /><path id="541" transform="matrix(1 0 0 -1 0 595)" d="M416.2073 431.5613L441.0805 431.5613L441.0805 431.5613L441.0805 432.262L441.0805 432.262L416.2073 432.262z" stroke="none" fill="#000000" fill-rule="evenodd" /><path id="665" transform="matrix(1 0 0 -1 0 595)" d="M295.6949 397.9008L317.9991 397.9008L317.9991 397.9008L317.9991 398.6014L317.9991 398.6014L295.6949 398.6014z" stroke="none" fill="#000000" fill-rule="evenodd" /><path id="740" transform="matrix(1 0 0 -1 0 595)" d="M259.115 376.6476L381.9824 376.6476L381.9824 376.6476L381.9824 377.3482L381.9824 377.3482L259.115 377.3482z" stroke="none" fill="#000000" fill-rule="evenodd" /><path id="929" transform="matrix(1 0 0 -1 0 595)" d="M249.4226 343.133L431.9623 343.133L431.9623 343.133L431.9623 343.8336L431.9623 343.8336L249.4226 343.8336z" stroke="none" fill="#000000" fill-rule="evenodd" /><path id="1113" transform="matrix(1 0 0 -1 0 595)" d="M253.1594 309.5016L390.0399 309.5016L390.0399 309.5016L390.0399 310.2023L390.0399 310.2023L253.1594 310.2023z" stroke="none" fill="#000000" fill-rule="evenodd" /><g clip-path="url(#4)"><path id="1215" transform="matrix(1 0 0 -1 0 595)" d="M69.29135 37.05636L488.0195 37.05636L488.0195 37.05636L488.0195 270.6075L488.0195 270.6075L69.29135 270.6075z" stroke="#000000" stroke-width="1.94626" stroke-linecap="round" fill="none" /></g><path id="1245" transform="matrix(1 0 0 -1 0 595)" d="M77.15911 254.1305L270.4422 254.1305L270.4422 254.1305L270.4422 255.2983L270.4422 255.2983L77.15911 255.2983z" stroke="none" fill="#000000" fill-rule="evenodd" /><path id="1430" transform="matrix(1 0 0 -1 0 595)" d="M141.1716 188.7362L295.3348 188.7362L295.3348 188.7362L295.3348 189.4368L295.3348 189.4368L141.1716 189.4368z" stroke="none" fill="#000000" fill-rule="evenodd" /><path id="1539" transform="matrix(1 0 0 -1 0 595)" d="M128.2134 155.2216L282.3572 155.2216L282.3572 155.2216L282.3572 155.9222L282.3572 155.9222L128.2134 155.9222z" stroke="none" fill="#000000" fill-rule="evenodd" /><path id="1653" transform="matrix(1 0 0 -1 0 595)" d="M149.813 121.561L303.9763 121.561L303.9763 121.561L303.9763 122.2617L303.9763 122.2617L149.813 122.2617z" stroke="none" fill="#000000" fill-rule="evenodd" /><path id="1832" transform="matrix(1 0 0 -1 0 595)" d="M176.321 88.05032L207.033 88.05032L207.033 88.05032L207.033 88.75095L207.033 88.75095L176.321 88.75095z" stroke="none" fill="#000000" fill-rule="evenodd" /><path id="1833" transform="matrix(1 0 0 -1 0 595)" d="M329.3263 88.05032L444.1167 88.05032L444.1167 88.05032L444.1167 88.75095L444.1167 88.75095L329.3263 88.75095z" stroke="none" fill="#000000" fill-rule="evenodd" /><g clip-path="url(#5)"><path id="1941" transform="matrix(1 0 0 -1 0 595)" d="M487.1388 269.6033L772.1296 269.6033L772.1296 269.6033L772.1296 560.2189L772.1296 560.2189L487.1388 560.2189z" stroke="#000000" stroke-width="1.94626" stroke-linecap="round" fill="none" /></g><path id="1960" transform="matrix(1 0 0 -1 0 595)" d="M490.9632 544.386L599.3309 544.386L599.3309 544.386L599.3309 545.5538L599.3309 545.5538L490.9632 545.5538z" stroke="none" fill="#000000" fill-rule="evenodd" /><path id="2073" transform="matrix(1 0 0 -1 0 595)" d="M626.89 498.7073L652.02 498.7073L652.02 498.7073L652.02 499.5247L652.02 499.5247L626.89 499.5247z" stroke="none" fill="#000000" fill-rule="evenodd" /><path id="2186" transform="matrix(1 0 0 -1 0 595)" d="M652.2595 465.0759L674.5636 465.0759L674.5636 465.0759L674.5636 465.8933L674.5636 465.8933L652.2595 465.8933z" stroke="none" fill="#000000" fill-rule="evenodd" /><path id="2314" transform="matrix(1 0 0 -1 0 595)" d="M620.9344 431.6781L708.4227 431.6781L708.4227 431.6781L708.4227 432.3787L708.4227 432.3787L620.9344 432.3787z" stroke="none" fill="#000000" fill-rule="evenodd" /><path id="2541" transform="matrix(1 0 0 -1 0 595)" d="M612.4098 364.5029L662.0627 364.5029L662.0627 364.5029L662.0627 365.2036L662.0627 365.2036L612.4098 365.2036z" stroke="none" fill="#000000" fill-rule="evenodd" /><g clip-path="url(#6)"><path id="2599" transform="matrix(1 0 0 -1 0 595)" d="M487.1388 36.93569L772.1393 36.93569L772.1393 36.93569L772.1393 269.9128L772.1393 269.9128L487.1388 269.9128z" stroke="#000000" stroke-width="1.94626" stroke-linecap="round" fill="none" /></g><path id="2615" transform="matrix(1 0 0 -1 0 595)" d="M495.2839 254.0138L583.7998 254.0138L583.7998 254.0138L583.7998 255.1815L583.7998 255.1815L495.2839 255.1815z" stroke="none" fill="#000000" fill-rule="evenodd" /><path id="2679" transform="matrix(1 0 0 -1 0 595)" d="M681.5701 231.9432L759.4594 231.9432L759.4594 231.9432L759.4594 232.6438L759.4594 232.6438L681.5701 232.6438z" stroke="none" fill="#000000" fill-rule="evenodd" /><path id="2805" transform="matrix(1 0 0 -1 0 595)" d="M598.2799 198.3118L631.4675 198.3118L631.4675 198.3118L631.4675 199.0124L631.4675 199.0124L598.2799 199.0124z" stroke="none" fill="#000000" fill-rule="evenodd" /><path id="2950" transform="matrix(1 0 0 -1 0 595)" d="M560.0943 153.5867L735.861 153.5867L735.861 153.5867L735.861 154.2874L735.861 154.2874L560.0943 154.2874z" stroke="none" fill="#000000" fill-rule="evenodd" /><path id="3037" transform="matrix(1 0 0 -1 0 595)" d="M573.8738 120.0429L607.0381 120.0429L607.0381 120.0429L607.0381 120.7436L607.0381 120.7436L573.8738 120.7436z" stroke="none" fill="#000000" fill-rule="evenodd" /><path id="3128" transform="matrix(1 0 0 -1 0 595)" d="M660.9009 86.41547L714.5009 86.41547L714.5009 86.41547L714.5009 87.11615L714.5009 87.11615L660.9009 87.11615z" stroke="none" fill="#000000" fill-rule="evenodd" /></g></g></g></g></svg>