<svg xmlns="http://www.w3.org/2000/svg" xmlns:xlink="http://www.w3.org/1999/xlink" id="body_255" preserveAspectRatio="xMinYMin meet" viewBox="0 0 793 1121"><defs><clipPath id="1"><path id="" clip-rule="evenodd" transform="matrix(1 0 0 1 0 0)" d="M0 841L0 -0.8900146L0 -0.8900146L595.276 -0.8900146L595.276 -0.8900146L595.276 841L595.276 841L0 841z" /></clipPath></defs><g transform="matrix(1.333333 0 0 1.333333 0 0)"><g clip-path="url(#1)"><path id="56" transform="matrix(1 0 0 -1 0 841)" d="M85.039 766.564L510.236 766.564" stroke="#000000" stroke-width="0.498" fill="none" /><path id="57" transform="matrix(1 0 0 -1 0 841)" d="M128.116 756.651L467.16 756.651" stroke="#000000" stroke-width="0.398" fill="none" /><path id="58" transform="matrix(1 0 0 -1 0 841)" d="M128.315 742.903L128.315 756.452" stroke="#000000" stroke-width="0.398" fill="none" /><path id="65" transform="matrix(1 0 0 -1 0 841)" d="M289.696 742.903L289.696 756.452" stroke="#000000" stroke-width="0.398" fill="none" /><path id="94" transform="matrix(1 0 0 -1 0 841)" d="M466.961 742.903L466.961 756.452" stroke="#000000" stroke-width="0.398" fill="none" /><path id="95" transform="matrix(1 0 0 -1 0 841)" d="M128.116 742.703L467.16 742.703" stroke="#000000" stroke-width="0.398" fill="none" /><path id="96" transform="matrix(1 0 0 -1 0 841)" d="M128.315 728.955L128.315 742.504" stroke="#000000" stroke-width="0.398" fill="none" /><path id="120" transform="matrix(1 0 0 -1 0 841)" d="M289.696 728.955L289.696 742.504" stroke="#000000" stroke-width="0.398" fill="none" /><path id="127" transform="matrix(1 0 0 -1 0 841)" d="M466.961 728.955L466.961 742.504" stroke="#000000" stroke-width="0.398" fill="none" /><path id="128" transform="matrix(1 0 0 -1 0 841)" d="M128.116 728.756L467.16 728.756" stroke="#000000" stroke-width="0.398" fill="none" /><path id="129" transform="matrix(1 0 0 -1 0 841)" d="M128.315 715.007L128.315 728.556" stroke="#000000" stroke-width="0.398" fill="none" /><path id="147" transform="matrix(1 0 0 -1 0 841)" d="M289.696 715.007L289.696 728.556" stroke="#000000" stroke-width="0.398" fill="none" /><path id="154" transform="matrix(1 0 0 -1 0 841)" d="M466.961 715.007L466.961 728.556" stroke="#000000" stroke-width="0.398" fill="none" /><path id="155" transform="matrix(1 0 0 -1 0 841)" d="M128.116 714.808L467.16 714.808" stroke="#000000" stroke-width="0.398" fill="none" /><path id="156" transform="matrix(1 0 0 -1 0 841)" d="M128.315 701.06L128.315 714.609" stroke="#000000" stroke-width="0.398" fill="none" /><path id="173" transform="matrix(1 0 0 -1 0 841)" d="M289.696 701.06L289.696 714.609" stroke="#000000" stroke-width="0.398" fill="none" /><path id="181" transform="matrix(1 0 0 -1 0 841)" d="M466.961 701.06L466.961 714.609" stroke="#000000" stroke-width="0.398" fill="none" /><path id="182" transform="matrix(1 0 0 -1 0 841)" d="M128.116 700.86L467.16 700.86" stroke="#000000" stroke-width="0.398" fill="none" /><path id="183" transform="matrix(1 0 0 -1 0 841)" d="M128.315 687.112L128.315 700.661" stroke="#000000" stroke-width="0.398" fill="none" /><path id="207" transform="matrix(1 0 0 -1 0 841)" d="M289.696 687.112L289.696 700.661" stroke="#000000" stroke-width="0.398" fill="none" /><path id="215" transform="matrix(1 0 0 -1 0 841)" d="M466.961 687.112L466.961 700.661" stroke="#000000" stroke-width="0.398" fill="none" /><path id="216" transform="matrix(1 0 0 -1 0 841)" d="M128.116 686.913L467.16 686.913" stroke="#000000" stroke-width="0.398" fill="none" /><path id="217" transform="matrix(1 0 0 -1 0 841)" d="M128.315 673.164L128.315 686.713" stroke="#000000" stroke-width="0.398" fill="none" /><path id="247" transform="matrix(1 0 0 -1 0 841)" d="M289.696 673.164L289.696 686.713" stroke="#000000" stroke-width="0.398" fill="none" /><path id="254" transform="matrix(1 0 0 -1 0 841)" d="M466.961 673.164L466.961 686.713" stroke="#000000" stroke-width="0.398" fill="none" /><path id="255" transform="matrix(1 0 0 -1 0 841)" d="M128.116 672.965L467.16 672.965" stroke="#000000" stroke-width="0.398" fill="none" /><path id="256" transform="matrix(1 0 0 -1 0 841)" d="M128.315 659.217L128.315 672.766" stroke="#000000" stroke-width="0.398" fill="none" /><path id="283" transform="matrix(1 0 0 -1 0 841)" d="M289.696 659.217L289.696 672.766" stroke="#000000" stroke-width="0.398" fill="none" /><path id="290" transform="matrix(1 0 0 -1 0 841)" d="M466.961 659.217L466.961 672.766" stroke="#000000" stroke-width="0.398" fill="none" /><path id="291" transform="matrix(1 0 0 -1 0 841)" d="M128.116 659.017L467.16 659.017" stroke="#000000" stroke-width="0.398" fill="none" /><path id="292" transform="matrix(1 0 0 -1 0 841)" d="M128.315 645.269L128.315 658.818" stroke="#000000" stroke-width="0.398" fill="none" /><path id="319" transform="matrix(1 0 0 -1 0 841)" d="M289.696 645.269L289.696 658.818" stroke="#000000" stroke-width="0.398" fill="none" /><path id="326" transform="matrix(1 0 0 -1 0 841)" d="M466.961 645.269L466.961 658.818" stroke="#000000" stroke-width="0.398" fill="none" /><path id="327" transform="matrix(1 0 0 -1 0 841)" d="M128.116 645.07L467.16 645.07" stroke="#000000" stroke-width="0.398" fill="none" /></g></g></svg>