<svg xmlns="http://www.w3.org/2000/svg" xmlns:xlink="http://www.w3.org/1999/xlink" id="body_267" preserveAspectRatio="xMinYMin meet" viewBox="0 0 793 1121"><defs><clipPath id="1"><path id="" clip-rule="evenodd" transform="matrix(1 0 0 1 0 0)" d="M0 841L0 -0.8900146L0 -0.8900146L595.276 -0.8900146L595.276 -0.8900146L595.276 841L595.276 841L0 841z" /></clipPath></defs><g transform="matrix(1.333333 0 0 1.333333 0 0)"><g clip-path="url(#1)"><path id="23" transform="matrix(1 0 0 -1 0 841)" d="M85.039 766.564L510.236 766.564" stroke="#000000" stroke-width="0.498" fill="none" /><path id="616" transform="matrix(1 0 0 -1 0 841)" d="M490.51 543.911L563.109 543.911" stroke="#000000" stroke-width="0.436" fill="none" /><path id="747" transform="matrix(1 0 0 -1 0 841)" d="M113.508 486.201L151.635 486.201" stroke="#000000" stroke-width="0.436" fill="none" /><path id="763" transform="matrix(1 0 0 -1 0 841)" d="M168.567 486.201L206.694 486.201" stroke="#000000" stroke-width="0.436" fill="none" /><path id="802" transform="matrix(1 0 0 -1 0 841)" d="M276.871 463.234L310.383 463.234" stroke="#000000" stroke-width="0.436" fill="none" /><path id="874" transform="matrix(1 0 0 -1 0 841)" d="M157.784 404.86L195.758 404.86" stroke="#000000" stroke-width="0.436" fill="none" /><path id="1052" transform="matrix(1 0 0 -1 0 841)" d="M113.508 315.208L157.656 315.208" stroke="#000000" stroke-width="0.436" fill="none" /><path id="1062" transform="matrix(1 0 0 -1 0 841)" d="M168.532 315.208L221.157 315.208" stroke="#000000" stroke-width="0.436" fill="none" /><path id="1086" transform="matrix(1 0 0 -1 0 841)" d="M232.032 315.208L259.305 315.208" stroke="#000000" stroke-width="0.436" fill="none" /><path id="1097" transform="matrix(1 0 0 -1 0 841)" d="M275.021 315.208L308.653 315.208" stroke="#000000" stroke-width="0.436" fill="none" /><path id="1149" transform="matrix(1 0 0 -1 0 841)" d="M172.927 268.715L239.95 268.715" stroke="#000000" stroke-width="0.436" fill="none" /><path id="1366" transform="matrix(1 0 0 -1 0 841)" d="M290.682 183.781L304.928 183.781" stroke="#000000" stroke-width="0.436" fill="none" /></g></g></svg>