<svg xmlns="http://www.w3.org/2000/svg" xmlns:xlink="http://www.w3.org/1999/xlink" id="body_343" preserveAspectRatio="xMinYMin meet" viewBox="0 0 793 1121"><defs><clipPath id="1"><path id="" clip-rule="evenodd" transform="matrix(1 0 0 1 0 0)" d="M0 841L0 -0.8900146L0 -0.8900146L595.276 -0.8900146L595.276 -0.8900146L595.276 841L595.276 841L0 841z" /></clipPath></defs><g transform="matrix(1.333333 0 0 1.333333 0 0)"><g clip-path="url(#1)"><path id="22" transform="matrix(1 0 0 -1 0 841)" d="M85.039 766.564L510.236 766.564" stroke="#000000" stroke-width="0.498" fill="none" /><path id="26" transform="matrix(1 0 0 -1 0 841)" d="M113.508 730.642L129.261 730.642" stroke="#000000" stroke-width="0.436" fill="none" /><path id="37" transform="matrix(1 0 0 -1 0 841)" d="M167.885 730.642L185.459 730.642" stroke="#000000" stroke-width="0.436" fill="none" /><path id="57" transform="matrix(1 0 0 -1 0 841)" d="M258.648 730.642L272.59 730.642" stroke="#000000" stroke-width="0.436" fill="none" /><path id="81" transform="matrix(1 0 0 -1 0 841)" d="M399.602 730.642L413.544 730.642" stroke="#000000" stroke-width="0.436" fill="none" /><path id="87" transform="matrix(1 0 0 -1 0 841)" d="M457.132 744.742L472.885 744.742" stroke="#000000" stroke-width="0.436" fill="none" /><path id="91" transform="matrix(1 0 0 -1 0 841)" d="M430.012 730.642L500.004 730.642" stroke="#000000" stroke-width="0.436" fill="none" /><path id="98" transform="matrix(1 0 0 -1 0 841)" d="M453.364 717.159L470.938 717.159" stroke="#000000" stroke-width="0.436" fill="none" /><path id="122" transform="matrix(1 0 0 -1 0 841)" d="M175.318 677.382L189.26 677.382" stroke="#000000" stroke-width="0.436" fill="none" /><path id="130" transform="matrix(1 0 0 -1 0 841)" d="M233.437 691.481L249.19 691.481" stroke="#000000" stroke-width="0.436" fill="none" /><path id="134" transform="matrix(1 0 0 -1 0 841)" d="M204.975 677.382L266.741 677.382" stroke="#000000" stroke-width="0.436" fill="none" /><path id="140" transform="matrix(1 0 0 -1 0 841)" d="M220.101 663.899L237.675 663.899" stroke="#000000" stroke-width="0.436" fill="none" /><path id="153" transform="matrix(1 0 0 -1 0 841)" d="M291.299 677.382L305.241 677.382" stroke="#000000" stroke-width="0.436" fill="none" /><path id="155" transform="matrix(1 0 0 -1 0 841)" d="M281.262 690.192L309.824 690.192" stroke="#000000" stroke-width="0.398" fill="none" /><path id="156" transform="matrix(1 0 0 -1 0 841)" d="M281.461 663.983L281.461 690.192" stroke="#000000" stroke-width="0.398" fill="none" /><path id="157" transform="matrix(1 0 0 -1 0 841)" d="M309.624 663.983L309.624 690.192" stroke="#000000" stroke-width="0.398" fill="none" /><path id="158" transform="matrix(1 0 0 -1 0 841)" d="M281.262 663.983L309.824 663.983" stroke="#000000" stroke-width="0.398" fill="none" /><path id="324" transform="matrix(1 0 0 -1 0 841)" d="M354.3337 513.9154C 354.3337 537.399 335.297 556.4356 311.8135 556.4356C 288.3299 556.4356 269.2933 537.399 269.2933 513.9154C 269.2933 490.4319 288.3299 471.3952 311.8135 471.3952C 335.297 471.3952 354.3337 490.4319 354.3337 513.9154z" stroke="#000000" stroke-width="0.3985" fill="#F2F2F2" fill-rule="nonzero" /><path id="325" transform="matrix(1 0 0 -1 0 841)" d="M269.2932 513.9154L354.3337 513.9154" stroke="#000000" stroke-width="1.19553" fill="none" /><path id="354" transform="matrix(1 0 0 -1 0 841)" d="M289.1359 477.0645L311.8135 513.9154" stroke="#000000" stroke-width="1.19553" fill="none" /><path id="355" transform="matrix(1 0 0 -1 0 841)" d="M334.491 477.0645L311.8135 513.9154" stroke="#000000" stroke-width="1.19553" fill="none" /><path id="359" transform="matrix(1 0 0 -1 0 841)" d="M113.508 383.297L129.261 383.297" stroke="#000000" stroke-width="0.436" fill="none" /><path id="370" transform="matrix(1 0 0 -1 0 841)" d="M167.885 383.297L185.459 383.297" stroke="#000000" stroke-width="0.436" fill="none" /><path id="390" transform="matrix(1 0 0 -1 0 841)" d="M258.648 383.297L272.59 383.297" stroke="#000000" stroke-width="0.436" fill="none" /><path id="414" transform="matrix(1 0 0 -1 0 841)" d="M399.602 383.297L413.544 383.297" stroke="#000000" stroke-width="0.436" fill="none" /><path id="420" transform="matrix(1 0 0 -1 0 841)" d="M457.132 397.396L472.885 397.396" stroke="#000000" stroke-width="0.436" fill="none" /><path id="424" transform="matrix(1 0 0 -1 0 841)" d="M430.012 383.297L500.004 383.297" stroke="#000000" stroke-width="0.436" fill="none" /><path id="431" transform="matrix(1 0 0 -1 0 841)" d="M453.364 369.814L470.938 369.814" stroke="#000000" stroke-width="0.436" fill="none" /><path id="455" transform="matrix(1 0 0 -1 0 841)" d="M175.318 330.037L189.26 330.037" stroke="#000000" stroke-width="0.436" fill="none" /><path id="462" transform="matrix(1 0 0 -1 0 841)" d="M307.494 344.136L323.247 344.136" stroke="#000000" stroke-width="0.436" fill="none" /><path id="466" transform="matrix(1 0 0 -1 0 841)" d="M204.975 330.037L420.31 330.037" stroke="#000000" stroke-width="0.436" fill="none" /><path id="486" transform="matrix(1 0 0 -1 0 841)" d="M251.761 312.146L285.699 312.146" stroke="#000000" stroke-width="0.436" fill="none" /><path id="493" transform="matrix(1 0 0 -1 0 841)" d="M296.574 312.146L382.616 312.146" stroke="#000000" stroke-width="0.436" fill="none" /><path id="525" transform="matrix(1 0 0 -1 0 841)" d="M444.868 330.037L458.81 330.037" stroke="#000000" stroke-width="0.436" fill="none" /><path id="527" transform="matrix(1 0 0 -1 0 841)" d="M434.831 342.846L463.393 342.846" stroke="#000000" stroke-width="0.398" fill="none" /><path id="528" transform="matrix(1 0 0 -1 0 841)" d="M435.03 316.638L435.03 342.847" stroke="#000000" stroke-width="0.398" fill="none" /><path id="529" transform="matrix(1 0 0 -1 0 841)" d="M463.193 316.638L463.193 342.847" stroke="#000000" stroke-width="0.398" fill="none" /><path id="530" transform="matrix(1 0 0 -1 0 841)" d="M434.831 316.638L463.393 316.638" stroke="#000000" stroke-width="0.398" fill="none" /><path id="739" transform="matrix(1 0 0 -1 0 841)" d="M154.446 195.221L167.777 195.221" stroke="#000000" stroke-width="0.436" fill="none" /><path id="768" transform="matrix(1 0 0 -1 0 841)" d="M297.719 195.221L337.057 195.221" stroke="#000000" stroke-width="0.436" fill="none" /><path id="775" transform="matrix(1 0 0 -1 0 841)" d="M346.721 195.221L413.323 195.221" stroke="#000000" stroke-width="0.436" fill="none" /><path id="909" transform="matrix(1 0 0 -1 0 841)" d="M368.474 130.465L433.153 130.465" stroke="#000000" stroke-width="0.436" fill="none" /><path id="929" transform="matrix(1 0 0 -1 0 841)" d="M447.674 138.436L492.575 138.436" stroke="#000000" stroke-width="0.398" fill="none" /><path id="930" transform="matrix(1 0 0 -1 0 841)" d="M447.873 124.38L447.873 138.436" stroke="#000000" stroke-width="0.398" fill="none" /><path id="931" transform="matrix(1 0 0 -1 0 841)" d="M492.376 124.38L492.376 138.436" stroke="#000000" stroke-width="0.398" fill="none" /><path id="932" transform="matrix(1 0 0 -1 0 841)" d="M447.674 124.38L492.575 124.38" stroke="#000000" stroke-width="0.398" fill="none" /></g></g></svg>