<svg xmlns="http://www.w3.org/2000/svg" xmlns:xlink="http://www.w3.org/1999/xlink" id="body_249" preserveAspectRatio="xMinYMin meet" viewBox="0 0 793 1121"><defs><clipPath id="1"><path id="" clip-rule="evenodd" transform="matrix(1 0 0 1 0 0)" d="M0 841L0 -0.8900146L0 -0.8900146L595.276 -0.8900146L595.276 -0.8900146L595.276 841L595.276 841L0 841z" /></clipPath></defs><g transform="matrix(1.333333 0 0 1.333333 0 0)"><g clip-path="url(#1)"><path id="16" transform="matrix(1 0 0 -1 0 841)" d="M85.039 766.564L510.236 766.564" stroke="#000000" stroke-width="0.498" fill="none" /><path id="538" transform="matrix(1 0 0 -1 0 841)" d="M86.235 528.711L97.144 528.711" stroke="#000000" stroke-width="0.436" fill="none" /><path id="690" transform="matrix(1 0 0 -1 0 841)" d="M228.562 444.029L242.493 444.029" stroke="#000000" stroke-width="0.436" fill="none" /><path id="772" transform="matrix(1 0 0 -1 0 841)" d="M112.063 354.832L129.525 354.832L129.525 367.105L112.063 367.105z" stroke="none" fill="#FFF100" fill-rule="nonzero" /><path id="776" transform="matrix(1 0 0 -1 0 841)" d="M129.14 354.832L131.862 354.832L131.862 367.105L129.14 367.105z" stroke="none" fill="#FFF100" fill-rule="nonzero" /><path id="777" transform="matrix(1 0 0 -1 0 841)" d="M131.613 354.832L158.773 354.832L158.773 367.105L131.613 367.105z" stroke="none" fill="#FFF100" fill-rule="nonzero" /><path id="783" transform="matrix(1 0 0 -1 0 841)" d="M158.31 354.832L161.032 354.832L161.032 367.105L158.31 367.105z" stroke="none" fill="#FFF100" fill-rule="nonzero" /><path id="784" transform="matrix(1 0 0 -1 0 841)" d="M160.782 354.832L168.556 354.832L168.556 367.105L160.782 367.105z" stroke="none" fill="#FFF100" fill-rule="nonzero" /><path id="787" transform="matrix(1 0 0 -1 0 841)" d="M168.249 354.832L170.971 354.832L170.971 367.105L168.249 367.105z" stroke="none" fill="#FFF100" fill-rule="nonzero" /><path id="788" transform="matrix(1 0 0 -1 0 841)" d="M170.722 354.832L186.973 354.832L186.973 367.105L170.722 367.105z" stroke="none" fill="#FFF100" fill-rule="nonzero" /><path id="792" transform="matrix(1 0 0 -1 0 841)" d="M186.349 354.832L199.578 354.832L199.578 367.105L186.349 367.105z" stroke="none" fill="#FFF100" fill-rule="nonzero" /><path id="796" transform="matrix(1 0 0 -1 0 841)" d="M198.977 354.832L218.249 354.832L218.249 367.105L198.977 367.105z" stroke="none" fill="#FFF100" fill-rule="nonzero" /><path id="801" transform="matrix(1 0 0 -1 0 841)" d="M217.851 354.832L220.573 354.832L220.573 367.105L217.851 367.105z" stroke="none" fill="#FFF100" fill-rule="nonzero" /><path id="802" transform="matrix(1 0 0 -1 0 841)" d="M220.323 354.832L229.908 354.832L229.908 367.105L220.323 367.105z" stroke="none" fill="#FFF100" fill-rule="nonzero" /><path id="805" transform="matrix(1 0 0 -1 0 841)" d="M229.587 354.832L232.309 354.832L232.309 367.105L229.587 367.105z" stroke="none" fill="#FFF100" fill-rule="nonzero" /><path id="806" transform="matrix(1 0 0 -1 0 841)" d="M232.059 354.832L238.012 354.832L238.012 367.105L232.059 367.105z" stroke="none" fill="#FFF100" fill-rule="nonzero" /><path id="808" transform="matrix(1 0 0 -1 0 841)" d="M237.719 354.832L240.441 354.832L240.441 367.105L237.719 367.105z" stroke="none" fill="#FFF100" fill-rule="nonzero" /><path id="809" transform="matrix(1 0 0 -1 0 841)" d="M240.192 354.832L249.777 354.832L249.777 367.105L240.192 367.105z" stroke="none" fill="#FFF100" fill-rule="nonzero" /><path id="812" transform="matrix(1 0 0 -1 0 841)" d="M249.455 354.832L252.177 354.832L252.177 367.105L249.455 367.105z" stroke="none" fill="#FFF100" fill-rule="nonzero" /><path id="813" transform="matrix(1 0 0 -1 0 841)" d="M251.928 354.832L277.877 354.832L277.877 367.105L251.928 367.105z" stroke="none" fill="#FFF100" fill-rule="nonzero" /><path id="818" transform="matrix(1 0 0 -1 0 841)" d="M277.424 354.832L280.146 354.832L280.146 367.105L277.424 367.105z" stroke="none" fill="#FFF100" fill-rule="nonzero" /><path id="819" transform="matrix(1 0 0 -1 0 841)" d="M279.897 354.832L296.148 354.832L296.148 367.105L279.897 367.105z" stroke="none" fill="#FFF100" fill-rule="nonzero" /><path id="823" transform="matrix(1 0 0 -1 0 841)" d="M295.773 354.832L298.495 354.832L298.495 367.105L295.773 367.105z" stroke="none" fill="#FFF100" fill-rule="nonzero" /><path id="824" transform="matrix(1 0 0 -1 0 841)" d="M298.245 354.832L303.587 354.832L303.587 367.105L298.245 367.105z" stroke="none" fill="#FFF100" fill-rule="nonzero" /><path id="826" transform="matrix(1 0 0 -1 0 841)" d="M303.299 354.832L306.021 354.832L306.021 367.105L303.299 367.105z" stroke="none" fill="#FFF100" fill-rule="nonzero" /><path id="827" transform="matrix(1 0 0 -1 0 841)" d="M305.772 354.832L323.234 354.832L323.234 367.105L305.772 367.105z" stroke="none" fill="#FFF100" fill-rule="nonzero" /><path id="832" transform="matrix(1 0 0 -1 0 841)" d="M322.848 354.832L325.57 354.832L325.57 367.105L322.848 367.105z" stroke="none" fill="#FFF100" fill-rule="nonzero" /><path id="833" transform="matrix(1 0 0 -1 0 841)" d="M325.321 354.832L334.906 354.832L334.906 367.105L325.321 367.105z" stroke="none" fill="#FFF100" fill-rule="nonzero" /><path id="836" transform="matrix(1 0 0 -1 0 841)" d="M334.584 354.832L337.306 354.832L337.306 367.105L334.584 367.105z" stroke="none" fill="#FFF100" fill-rule="nonzero" /><path id="837" transform="matrix(1 0 0 -1 0 841)" d="M337.057 354.832L350.886 354.832L350.886 367.105L337.057 367.105z" stroke="none" fill="#FFF100" fill-rule="nonzero" /><path id="841" transform="matrix(1 0 0 -1 0 841)" d="M350.53 354.832L353.252 354.832L353.252 367.105L350.53 367.105z" stroke="none" fill="#FFF100" fill-rule="nonzero" /><path id="842" transform="matrix(1 0 0 -1 0 841)" d="M353.003 354.832L380.163 354.832L380.163 367.105L353.003 367.105z" stroke="none" fill="#FFF100" fill-rule="nonzero" /><path id="848" transform="matrix(1 0 0 -1 0 841)" d="M379.7 354.832L382.422 354.832L382.422 367.105L379.7 367.105z" stroke="none" fill="#FFF100" fill-rule="nonzero" /><path id="849" transform="matrix(1 0 0 -1 0 841)" d="M382.173 354.832L397.813 354.832L397.813 367.105L382.173 367.105z" stroke="none" fill="#FFF100" fill-rule="nonzero" /><path id="853" transform="matrix(1 0 0 -1 0 841)" d="M397.442 354.832L400.164 354.832L400.164 367.105L397.442 367.105z" stroke="none" fill="#FFF100" fill-rule="nonzero" /><path id="854" transform="matrix(1 0 0 -1 0 841)" d="M399.915 354.832L410.711 354.832L410.711 367.105L399.915 367.105z" stroke="none" fill="#FFF100" fill-rule="nonzero" /><path id="857" transform="matrix(1 0 0 -1 0 841)" d="M410.38 354.832L413.102 354.832L413.102 367.105L410.38 367.105z" stroke="none" fill="#FFF100" fill-rule="nonzero" /><path id="858" transform="matrix(1 0 0 -1 0 841)" d="M412.852 354.832L423.485 354.832L423.485 367.105L412.852 367.105z" stroke="none" fill="#FFF100" fill-rule="nonzero" /><path id="861" transform="matrix(1 0 0 -1 0 841)" d="M422.904 354.832L456.118 354.832L456.118 367.105L422.904 367.105z" stroke="none" fill="#FFF100" fill-rule="nonzero" /><path id="869" transform="matrix(1 0 0 -1 0 841)" d="M455.608 354.832L458.33 354.832L458.33 367.105L455.608 367.105z" stroke="none" fill="#FFF100" fill-rule="nonzero" /><path id="870" transform="matrix(1 0 0 -1 0 841)" d="M458.08 354.832L467.665 354.832L467.665 367.105L458.08 367.105z" stroke="none" fill="#FFF100" fill-rule="nonzero" /><path id="873" transform="matrix(1 0 0 -1 0 841)" d="M467.344 354.832L470.066 354.832L470.066 367.105L467.344 367.105z" stroke="none" fill="#FFF100" fill-rule="nonzero" /><path id="874" transform="matrix(1 0 0 -1 0 841)" d="M469.816 354.832L475.158 354.832L475.158 367.105L469.816 367.105z" stroke="none" fill="#FFF100" fill-rule="nonzero" /><path id="876" transform="matrix(1 0 0 -1 0 841)" d="M474.87 354.832L477.592 354.832L477.592 367.105L474.87 367.105z" stroke="none" fill="#FFF100" fill-rule="nonzero" /><path id="877" transform="matrix(1 0 0 -1 0 841)" d="M477.343 354.832L491.772 354.832L491.772 367.105L477.343 367.105z" stroke="none" fill="#FFF100" fill-rule="nonzero" /><path id="881" transform="matrix(1 0 0 -1 0 841)" d="M491.162 354.832L512.562 354.832L512.562 367.105L491.162 367.105z" stroke="none" fill="#FFF100" fill-rule="nonzero" /><path id="1054" transform="matrix(1 0 0 -1 0 841)" d="M112.063 287.086L129.525 287.086L129.525 299.359L112.063 299.359z" stroke="none" fill="#FFF100" fill-rule="nonzero" /><path id="1058" transform="matrix(1 0 0 -1 0 841)" d="M129.276 287.086L132.003 287.086L132.003 299.359L129.276 299.359z" stroke="none" fill="#FFF100" fill-rule="nonzero" /><path id="1059" transform="matrix(1 0 0 -1 0 841)" d="M131.754 287.086L147.394 287.086L147.394 299.359L131.754 299.359z" stroke="none" fill="#FFF100" fill-rule="nonzero" /><path id="1063" transform="matrix(1 0 0 -1 0 841)" d="M146.896 287.086L150.427 287.086L150.427 299.359L146.896 299.359z" stroke="none" fill="#FFF100" fill-rule="nonzero" /><path id="1065" transform="matrix(1 0 0 -1 0 841)" d="M149.928 287.086L166.789 287.086L166.789 299.359L149.928 299.359z" stroke="none" fill="#FFF100" fill-rule="nonzero" /><path id="1069" transform="matrix(1 0 0 -1 0 841)" d="M166.541 287.086L169.268 287.086L169.268 299.359L166.541 299.359z" stroke="none" fill="#FFF100" fill-rule="nonzero" /><path id="1070" transform="matrix(1 0 0 -1 0 841)" d="M169.019 287.086L190.724 287.086L190.724 299.359L169.019 299.359z" stroke="none" fill="#FFF100" fill-rule="nonzero" /><path id="1075" transform="matrix(1 0 0 -1 0 841)" d="M190.475 287.086L193.202 287.086L193.202 299.359L190.475 299.359z" stroke="none" fill="#FFF100" fill-rule="nonzero" /><path id="1076" transform="matrix(1 0 0 -1 0 841)" d="M192.953 287.086L202.538 287.086L202.538 299.359L192.953 299.359z" stroke="none" fill="#FFF100" fill-rule="nonzero" /><path id="1079" transform="matrix(1 0 0 -1 0 841)" d="M202.289 287.086L205.016 287.086L205.016 299.359L202.289 299.359z" stroke="none" fill="#FFF100" fill-rule="nonzero" /><path id="1080" transform="matrix(1 0 0 -1 0 841)" d="M204.768 287.086L210.11 287.086L210.11 299.359L204.768 299.359z" stroke="none" fill="#FFF100" fill-rule="nonzero" /><path id="1082" transform="matrix(1 0 0 -1 0 841)" d="M209.86 287.086L212.587 287.086L212.587 299.359L209.86 299.359z" stroke="none" fill="#FFF100" fill-rule="nonzero" /><path id="1083" transform="matrix(1 0 0 -1 0 841)" d="M212.338 287.086L226.767 287.086L226.767 299.359L212.338 299.359z" stroke="none" fill="#FFF100" fill-rule="nonzero" /><path id="1087" transform="matrix(1 0 0 -1 0 841)" d="M226.269 287.086L244.941 287.086L244.941 299.359L226.269 299.359z" stroke="none" fill="#FFF100" fill-rule="nonzero" /><path id="1092" transform="matrix(1 0 0 -1 0 841)" d="M244.692 287.086L247.419 287.086L247.419 299.359L244.692 299.359z" stroke="none" fill="#FFF100" fill-rule="nonzero" /><path id="1093" transform="matrix(1 0 0 -1 0 841)" d="M247.171 287.086L271.025 287.086L271.025 299.359L247.171 299.359z" stroke="none" fill="#FFF100" fill-rule="nonzero" /><path id="1099" transform="matrix(1 0 0 -1 0 841)" d="M270.776 287.086L273.503 287.086L273.503 299.359L270.776 299.359z" stroke="none" fill="#FFF100" fill-rule="nonzero" /><path id="1100" transform="matrix(1 0 0 -1 0 841)" d="M273.254 287.086L281.028 287.086L281.028 299.359L273.254 299.359z" stroke="none" fill="#FFF100" fill-rule="nonzero" /><path id="1103" transform="matrix(1 0 0 -1 0 841)" d="M280.779 287.086L283.506 287.086L283.506 299.359L280.779 299.359z" stroke="none" fill="#FFF100" fill-rule="nonzero" /><path id="1104" transform="matrix(1 0 0 -1 0 841)" d="M283.257 287.086L294.664 287.086L294.664 299.359L283.257 299.359z" stroke="none" fill="#FFF100" fill-rule="nonzero" /><path id="1107" transform="matrix(1 0 0 -1 0 841)" d="M294.166 287.086L321.326 287.086L321.326 299.359L294.166 299.359z" stroke="none" fill="#FFF100" fill-rule="nonzero" /><path id="1114" transform="matrix(1 0 0 -1 0 841)" d="M321.077 287.086L323.804 287.086L323.804 299.359L321.077 299.359z" stroke="none" fill="#FFF100" fill-rule="nonzero" /><path id="1115" transform="matrix(1 0 0 -1 0 841)" d="M323.555 287.086L334.962 287.086L334.962 299.359L323.555 299.359z" stroke="none" fill="#FFF100" fill-rule="nonzero" /><path id="1118" transform="matrix(1 0 0 -1 0 841)" d="M334.713 287.086L337.44 287.086L337.44 299.359L334.713 299.359z" stroke="none" fill="#FFF100" fill-rule="nonzero" /><path id="1119" transform="matrix(1 0 0 -1 0 841)" d="M337.192 287.086L345.905 287.086L345.905 299.359L337.192 299.359z" stroke="none" fill="#FFF100" fill-rule="nonzero" /><path id="1122" transform="matrix(1 0 0 -1 0 841)" d="M345.406 287.086L359.846 287.086L359.846 299.359L345.406 299.359z" stroke="none" fill="#FFF100" fill-rule="nonzero" /><path id="1126" transform="matrix(1 0 0 -1 0 841)" d="M359.348 287.086L373.788 287.086L373.788 299.359L359.348 299.359z" stroke="none" fill="#FFF100" fill-rule="nonzero" /><path id="1130" transform="matrix(1 0 0 -1 0 841)" d="M373.538 287.086L376.265 287.086L376.265 299.359L373.538 299.359z" stroke="none" fill="#FFF100" fill-rule="nonzero" /><path id="1131" transform="matrix(1 0 0 -1 0 841)" d="M376.017 287.086L389.846 287.086L389.846 299.359L376.017 299.359z" stroke="none" fill="#FFF100" fill-rule="nonzero" /><path id="1135" transform="matrix(1 0 0 -1 0 841)" d="M389.596 287.086L392.323 287.086L392.323 299.359L389.596 299.359z" stroke="none" fill="#FFF100" fill-rule="nonzero" /><path id="1136" transform="matrix(1 0 0 -1 0 841)" d="M392.075 287.086L406.504 287.086L406.504 299.359L392.075 299.359z" stroke="none" fill="#FFF100" fill-rule="nonzero" /><path id="1140" transform="matrix(1 0 0 -1 0 841)" d="M406.005 287.086L424.677 287.086L424.677 299.359L406.005 299.359z" stroke="none" fill="#FFF100" fill-rule="nonzero" /><path id="1145" transform="matrix(1 0 0 -1 0 841)" d="M424.429 287.086L427.156 287.086L427.156 299.359L424.429 299.359z" stroke="none" fill="#FFF100" fill-rule="nonzero" /><path id="1146" transform="matrix(1 0 0 -1 0 841)" d="M426.907 287.086L438.314 287.086L438.314 299.359L426.907 299.359z" stroke="none" fill="#FFF100" fill-rule="nonzero" /><path id="1149" transform="matrix(1 0 0 -1 0 841)" d="M438.065 287.086L440.792 287.086L440.792 299.359L438.065 299.359z" stroke="none" fill="#FFF100" fill-rule="nonzero" /><path id="1150" transform="matrix(1 0 0 -1 0 841)" d="M440.543 287.086L460.132 287.086L460.132 299.359L440.543 299.359z" stroke="none" fill="#FFF100" fill-rule="nonzero" /><path id="1259" transform="matrix(1 0 0 -1 0 841)" d="M112.063 236.277L123.808 236.277L123.808 248.55L112.063 248.55z" stroke="none" fill="#FFF100" fill-rule="nonzero" /><path id="1262" transform="matrix(1 0 0 -1 0 841)" d="M123.559 236.277L126.286 236.277L126.286 248.55L123.559 248.55z" stroke="none" fill="#FFF100" fill-rule="nonzero" /><path id="1263" transform="matrix(1 0 0 -1 0 841)" d="M126.038 236.277L136.834 236.277L136.834 248.55L126.038 248.55z" stroke="none" fill="#FFF100" fill-rule="nonzero" /><path id="1266" transform="matrix(1 0 0 -1 0 841)" d="M136.336 236.277L148.343 236.277L148.343 248.55L136.336 248.55z" stroke="none" fill="#FFF100" fill-rule="nonzero" /><path id="1270" transform="matrix(1 0 0 -1 0 841)" d="M147.845 236.277L170.161 236.277L170.161 248.55L147.845 248.55z" stroke="none" fill="#FFF100" fill-rule="nonzero" /><path id="1275" transform="matrix(1 0 0 -1 0 841)" d="M169.912 236.277L172.639 236.277L172.639 248.55L169.912 248.55z" stroke="none" fill="#FFF100" fill-rule="nonzero" /><path id="1276" transform="matrix(1 0 0 -1 0 841)" d="M172.39 236.277L194.095 236.277L194.095 248.55L172.39 248.55z" stroke="none" fill="#FFF100" fill-rule="nonzero" /><path id="1281" transform="matrix(1 0 0 -1 0 841)" d="M193.846 236.277L196.573 236.277L196.573 248.55L193.846 248.55z" stroke="none" fill="#FFF100" fill-rule="nonzero" /><path id="1282" transform="matrix(1 0 0 -1 0 841)" d="M196.324 236.277L210.753 236.277L210.753 248.55L196.324 248.55z" stroke="none" fill="#FFF100" fill-rule="nonzero" /><path id="1286" transform="matrix(1 0 0 -1 0 841)" d="M210.255 236.277L228.927 236.277L228.927 248.55L210.255 248.55z" stroke="none" fill="#FFF100" fill-rule="nonzero" /><path id="1291" transform="matrix(1 0 0 -1 0 841)" d="M228.429 236.277L244.069 236.277L244.069 248.55L228.429 248.55z" stroke="none" fill="#FFF100" fill-rule="nonzero" /><path id="1295" transform="matrix(1 0 0 -1 0 841)" d="M243.82 236.277L246.547 236.277L246.547 248.55L243.82 248.55z" stroke="none" fill="#FFF100" fill-rule="nonzero" /><path id="1296" transform="matrix(1 0 0 -1 0 841)" d="M246.298 236.277L251.64 236.277L251.64 248.55L246.298 248.55z" stroke="none" fill="#FFF100" fill-rule="nonzero" /><path id="1298" transform="matrix(1 0 0 -1 0 841)" d="M251.391 236.277L254.118 236.277L254.118 248.55L251.391 248.55z" stroke="none" fill="#FFF100" fill-rule="nonzero" /><path id="1299" transform="matrix(1 0 0 -1 0 841)" d="M253.869 236.277L271.331 236.277L271.331 248.55L253.869 248.55z" stroke="none" fill="#FFF100" fill-rule="nonzero" /><path id="1304" transform="matrix(1 0 0 -1 0 841)" d="M271.081 236.277L273.808 236.277L273.808 248.55L271.081 248.55z" stroke="none" fill="#FFF100" fill-rule="nonzero" /><path id="1305" transform="matrix(1 0 0 -1 0 841)" d="M273.559 236.277L281.333 236.277L281.333 248.55L273.559 248.55z" stroke="none" fill="#FFF100" fill-rule="nonzero" /><path id="1308" transform="matrix(1 0 0 -1 0 841)" d="M281.085 236.277L283.812 236.277L283.812 248.55L281.085 248.55z" stroke="none" fill="#FFF100" fill-rule="nonzero" /><path id="1309" transform="matrix(1 0 0 -1 0 841)" d="M283.563 236.277L293.148 236.277L293.148 248.55L283.563 248.55z" stroke="none" fill="#FFF100" fill-rule="nonzero" /><path id="1312" transform="matrix(1 0 0 -1 0 841)" d="M292.899 236.277L295.626 236.277L295.626 248.55L292.899 248.55z" stroke="none" fill="#FFF100" fill-rule="nonzero" /><path id="1313" transform="matrix(1 0 0 -1 0 841)" d="M295.377 236.277L309.206 236.277L309.206 248.55L295.377 248.55z" stroke="none" fill="#FFF100" fill-rule="nonzero" /><path id="1317" transform="matrix(1 0 0 -1 0 841)" d="M308.957 236.277L311.684 236.277L311.684 248.55L308.957 248.55z" stroke="none" fill="#FFF100" fill-rule="nonzero" /><path id="1318" transform="matrix(1 0 0 -1 0 841)" d="M311.435 236.277L341.322 236.277L341.322 248.55L311.435 248.55z" stroke="none" fill="#FFF100" fill-rule="nonzero" /><path id="1325" transform="matrix(1 0 0 -1 0 841)" d="M341.073 236.277L343.8 236.277L343.8 248.55L341.073 248.55z" stroke="none" fill="#FFF100" fill-rule="nonzero" /><path id="1326" transform="matrix(1 0 0 -1 0 841)" d="M343.551 236.277L352.264 236.277L352.264 248.55L343.551 248.55z" stroke="none" fill="#FFF100" fill-rule="nonzero" /><path id="1329" transform="matrix(1 0 0 -1 0 841)" d="M351.766 236.277L371.049 236.277L371.049 248.55L351.766 248.55z" stroke="none" fill="#FFF100" fill-rule="nonzero" /><path id="1334" transform="matrix(1 0 0 -1 0 841)" d="M370.8 236.277L373.527 236.277L373.527 248.55L370.8 248.55z" stroke="none" fill="#FFF100" fill-rule="nonzero" /><path id="1335" transform="matrix(1 0 0 -1 0 841)" d="M373.278 236.277L387.107 236.277L387.107 248.55L373.278 248.55z" stroke="none" fill="#FFF100" fill-rule="nonzero" /><path id="1339" transform="matrix(1 0 0 -1 0 841)" d="M386.858 236.277L389.585 236.277L389.585 248.55L386.858 248.55z" stroke="none" fill="#FFF100" fill-rule="nonzero" /><path id="1340" transform="matrix(1 0 0 -1 0 841)" d="M389.336 236.277L406.798 236.277L406.798 248.55L389.336 248.55z" stroke="none" fill="#FFF100" fill-rule="nonzero" /><path id="1345" transform="matrix(1 0 0 -1 0 841)" d="M406.549 236.277L409.276 236.277L409.276 248.55L406.549 248.55z" stroke="none" fill="#FFF100" fill-rule="nonzero" /><path id="1346" transform="matrix(1 0 0 -1 0 841)" d="M409.027 236.277L420.434 236.277L420.434 248.55L409.027 248.55z" stroke="none" fill="#FFF100" fill-rule="nonzero" /><path id="1349" transform="matrix(1 0 0 -1 0 841)" d="M420.185 236.277L422.912 236.277L422.912 248.55L420.185 248.55z" stroke="none" fill="#FFF100" fill-rule="nonzero" /><path id="1350" transform="matrix(1 0 0 -1 0 841)" d="M422.663 236.277L436.492 236.277L436.492 248.55L422.663 248.55z" stroke="none" fill="#FFF100" fill-rule="nonzero" /><path id="1354" transform="matrix(1 0 0 -1 0 841)" d="M436.243 236.277L438.97 236.277L438.97 248.55L436.243 248.55z" stroke="none" fill="#FFF100" fill-rule="nonzero" /><path id="1355" transform="matrix(1 0 0 -1 0 841)" d="M438.721 236.277L468.608 236.277L468.608 248.55L438.721 248.55z" stroke="none" fill="#FFF100" fill-rule="nonzero" /><path id="1570" transform="matrix(1 0 0 -1 0 841)" d="M112.063 98.294L123.808 98.294L123.808 110.567L112.063 110.567z" stroke="none" fill="#FFF100" fill-rule="nonzero" /><path id="1573" transform="matrix(1 0 0 -1 0 841)" d="M123.802 98.294L126.597 98.294L126.597 110.567L123.802 110.567z" stroke="none" fill="#FFF100" fill-rule="nonzero" /><path id="1574" transform="matrix(1 0 0 -1 0 841)" d="M126.348 98.294L143.821 98.294L143.821 110.567L126.348 110.567z" stroke="none" fill="#FFF100" fill-rule="nonzero" /><path id="1578" transform="matrix(1 0 0 -1 0 841)" d="M143.911 98.294L146.706 98.294L146.706 110.567L143.911 110.567z" stroke="none" fill="#FFF100" fill-rule="nonzero" /><path id="1579" transform="matrix(1 0 0 -1 0 841)" d="M146.458 98.294L160.287 98.294L160.287 110.567L146.458 110.567z" stroke="none" fill="#FFF100" fill-rule="nonzero" /><path id="1583" transform="matrix(1 0 0 -1 0 841)" d="M160.304 98.294L163.099 98.294L163.099 110.567L160.304 110.567z" stroke="none" fill="#FFF100" fill-rule="nonzero" /><path id="1584" transform="matrix(1 0 0 -1 0 841)" d="M162.851 98.294L177.28 98.294L177.28 110.567L162.851 110.567z" stroke="none" fill="#FFF100" fill-rule="nonzero" /><path id="1588" transform="matrix(1 0 0 -1 0 841)" d="M177.06 98.294L195.732 98.294L195.732 110.567L177.06 110.567z" stroke="none" fill="#FFF100" fill-rule="nonzero" /><path id="1593" transform="matrix(1 0 0 -1 0 841)" d="M195.598 98.294L211.238 98.294L211.238 110.567L195.598 110.567z" stroke="none" fill="#FFF100" fill-rule="nonzero" /><path id="1597" transform="matrix(1 0 0 -1 0 841)" d="M211.291 98.294L214.086 98.294L214.086 110.567L211.291 110.567z" stroke="none" fill="#FFF100" fill-rule="nonzero" /><path id="1598" transform="matrix(1 0 0 -1 0 841)" d="M213.838 98.294L223.423 98.294L223.423 110.567L213.838 110.567z" stroke="none" fill="#FFF100" fill-rule="nonzero" /><path id="1601" transform="matrix(1 0 0 -1 0 841)" d="M223.356 98.294L226.151 98.294L226.151 110.567L223.356 110.567z" stroke="none" fill="#FFF100" fill-rule="nonzero" /><path id="1602" transform="matrix(1 0 0 -1 0 841)" d="M225.902 98.294L231.244 98.294L231.244 110.567L225.902 110.567z" stroke="none" fill="#FFF100" fill-rule="nonzero" /><path id="1604" transform="matrix(1 0 0 -1 0 841)" d="M231.092 98.294L233.887 98.294L233.887 110.567L231.092 110.567z" stroke="none" fill="#FFF100" fill-rule="nonzero" /><path id="1605" transform="matrix(1 0 0 -1 0 841)" d="M233.638 98.294L253.532 98.294L253.532 110.567L233.638 110.567z" stroke="none" fill="#FFF100" fill-rule="nonzero" /><path id="1609" transform="matrix(1 0 0 -1 0 841)" d="M253.422 98.294L270.142 98.294L270.142 110.567L253.422 110.567z" stroke="none" fill="#FFF100" fill-rule="nonzero" /><path id="1614" transform="matrix(1 0 0 -1 0 841)" d="M270.226 98.294L273.021 98.294L273.021 110.567L270.226 110.567z" stroke="none" fill="#FFF100" fill-rule="nonzero" /><path id="1615" transform="matrix(1 0 0 -1 0 841)" d="M272.773 98.294L290.245 98.294L290.245 110.567L272.773 110.567z" stroke="none" fill="#FFF100" fill-rule="nonzero" /><path id="1619" transform="matrix(1 0 0 -1 0 841)" d="M290.086 98.294L296.649 98.294L296.649 110.567L290.086 110.567z" stroke="none" fill="#FFF100" fill-rule="nonzero" /><path id="1622" transform="matrix(1 0 0 -1 0 841)" d="M296.273 98.294L310.713 98.294L310.713 110.567L296.273 110.567z" stroke="none" fill="#FFF100" fill-rule="nonzero" /><path id="1626" transform="matrix(1 0 0 -1 0 841)" d="M310.742 98.294L313.537 98.294L313.537 110.567L310.742 110.567z" stroke="none" fill="#FFF100" fill-rule="nonzero" /><path id="1627" transform="matrix(1 0 0 -1 0 841)" d="M313.289 98.294L327.118 98.294L327.118 110.567L313.289 110.567z" stroke="none" fill="#FFF100" fill-rule="nonzero" /><path id="1631" transform="matrix(1 0 0 -1 0 841)" d="M327.135 98.294L329.93 98.294L329.93 110.567L327.135 110.567z" stroke="none" fill="#FFF100" fill-rule="nonzero" /><path id="1632" transform="matrix(1 0 0 -1 0 841)" d="M329.682 98.294L349.576 98.294L349.576 110.567L329.682 110.567z" stroke="none" fill="#FFF100" fill-rule="nonzero" /><path id="1636" transform="matrix(1 0 0 -1 0 841)" d="M349.466 98.294L363.895 98.294L363.895 110.567L349.466 110.567z" stroke="none" fill="#FFF100" fill-rule="nonzero" /><path id="1640" transform="matrix(1 0 0 -1 0 841)" d="M363.924 98.294L366.719 98.294L366.719 110.567L363.924 110.567z" stroke="none" fill="#FFF100" fill-rule="nonzero" /><path id="1641" transform="matrix(1 0 0 -1 0 841)" d="M366.471 98.294L377.878 98.294L377.878 110.567L366.471 110.567z" stroke="none" fill="#FFF100" fill-rule="nonzero" /><path id="1644" transform="matrix(1 0 0 -1 0 841)" d="M377.847 98.294L380.643 98.294L380.643 110.567L377.847 110.567z" stroke="none" fill="#FFF100" fill-rule="nonzero" /><path id="1645" transform="matrix(1 0 0 -1 0 841)" d="M380.393 98.294L394.222 98.294L394.222 110.567L380.393 110.567z" stroke="none" fill="#FFF100" fill-rule="nonzero" /><path id="1649" transform="matrix(1 0 0 -1 0 841)" d="M394.24 98.294L397.035 98.294L397.035 110.567L394.24 110.567z" stroke="none" fill="#FFF100" fill-rule="nonzero" /><path id="1650" transform="matrix(1 0 0 -1 0 841)" d="M396.786 98.294L412.426 98.294L412.426 110.567L396.786 110.567z" stroke="none" fill="#FFF100" fill-rule="nonzero" /><path id="1654" transform="matrix(1 0 0 -1 0 841)" d="M412.231 98.294L415.762 98.294L415.762 110.567L412.231 110.567z" stroke="none" fill="#FFF100" fill-rule="nonzero" /><path id="1656" transform="matrix(1 0 0 -1 0 841)" d="M415.324 98.294L432.185 98.294L432.185 110.567L415.324 110.567z" stroke="none" fill="#FFF100" fill-rule="nonzero" /><path id="1660" transform="matrix(1 0 0 -1 0 841)" d="M432.264 98.294L435.059 98.294L435.059 110.567L432.264 110.567z" stroke="none" fill="#FFF100" fill-rule="nonzero" /><path id="1661" transform="matrix(1 0 0 -1 0 841)" d="M434.81 98.294L459.002 98.294L459.002 110.567L434.81 110.567z" stroke="none" fill="#FFF100" fill-rule="nonzero" /><path id="1667" transform="matrix(1 0 0 -1 0 841)" d="M458.989 98.294L464.331 98.294L464.331 110.567L458.989 110.567z" stroke="none" fill="#FFF100" fill-rule="nonzero" /><path id="1669" transform="matrix(1 0 0 -1 0 841)" d="M463.93 98.294L480.791 98.294L480.791 110.567L463.93 110.567z" stroke="none" fill="#FFF100" fill-rule="nonzero" /><path id="1674" transform="matrix(1 0 0 -1 0 841)" d="M480.869 98.294L483.664 98.294L483.664 110.567L480.869 110.567z" stroke="none" fill="#FFF100" fill-rule="nonzero" /><path id="1675" transform="matrix(1 0 0 -1 0 841)" d="M483.416 98.294L493.001 98.294L493.001 110.567L483.416 110.567z" stroke="none" fill="#FFF100" fill-rule="nonzero" /><path id="1678" transform="matrix(1 0 0 -1 0 841)" d="M492.934 98.294L495.729 98.294L495.729 110.567L492.934 110.567z" stroke="none" fill="#FFF100" fill-rule="nonzero" /><path id="1679" transform="matrix(1 0 0 -1 0 841)" d="M495.48 98.294L509.309 98.294L509.309 110.567L495.48 110.567z" stroke="none" fill="#FFF100" fill-rule="nonzero" /><path id="1683" transform="matrix(1 0 0 -1 0 841)" d="M112.063 81.358L126.492 81.358L126.492 93.631L112.063 93.631z" stroke="none" fill="#FFF100" fill-rule="nonzero" /><path id="1687" transform="matrix(1 0 0 -1 0 841)" d="M125.994 81.358L144.666 81.358L144.666 93.631L125.994 93.631z" stroke="none" fill="#FFF100" fill-rule="nonzero" /><path id="1692" transform="matrix(1 0 0 -1 0 841)" d="M144.168 81.358L159.808 81.358L159.808 93.631L144.168 93.631z" stroke="none" fill="#FFF100" fill-rule="nonzero" /><path id="1696" transform="matrix(1 0 0 -1 0 841)" d="M159.559 81.358L162.286 81.358L162.286 93.631L159.559 93.631z" stroke="none" fill="#FFF100" fill-rule="nonzero" /><path id="1697" transform="matrix(1 0 0 -1 0 841)" d="M162.037 81.358L186.339 81.358L186.339 93.631L162.037 93.631z" stroke="none" fill="#FFF100" fill-rule="nonzero" /><path id="1703" transform="matrix(1 0 0 -1 0 841)" d="M186.09 81.358L188.817 81.358L188.817 93.631L186.09 93.631z" stroke="none" fill="#FFF100" fill-rule="nonzero" /><path id="1704" transform="matrix(1 0 0 -1 0 841)" d="M188.568 81.358L197.553 81.358L197.553 93.631L188.568 93.631z" stroke="none" fill="#FFF100" fill-rule="nonzero" /><path id="1707" transform="matrix(1 0 0 -1 0 841)" d="M197.304 81.358L200.031 81.358L200.031 93.631L197.304 93.631z" stroke="none" fill="#FFF100" fill-rule="nonzero" /><path id="1708" transform="matrix(1 0 0 -1 0 841)" d="M199.782 81.358L213.611 81.358L213.611 93.631L199.782 93.631z" stroke="none" fill="#FFF100" fill-rule="nonzero" /><path id="1712" transform="matrix(1 0 0 -1 0 841)" d="M213.362 81.358L216.089 81.358L216.089 93.631L213.362 93.631z" stroke="none" fill="#FFF100" fill-rule="nonzero" /><path id="1713" transform="matrix(1 0 0 -1 0 841)" d="M215.84 81.358L236.334 81.358L236.334 93.631L215.84 93.631z" stroke="none" fill="#FFF100" fill-rule="nonzero" /><path id="1718" transform="matrix(1 0 0 -1 0 841)" d="M235.837 81.358L255.426 81.358L255.426 93.631L235.837 93.631z" stroke="none" fill="#FFF100" fill-rule="nonzero" /></g></g></svg>