<svg xmlns="http://www.w3.org/2000/svg" xmlns:xlink="http://www.w3.org/1999/xlink" id="body_285" preserveAspectRatio="xMinYMin meet" viewBox="0 0 793 1121"><defs><clipPath id="1"><path id="" clip-rule="evenodd" transform="matrix(1 0 0 1 0 0)" d="M0 841L0 -0.8900146L0 -0.8900146L595.276 -0.8900146L595.276 -0.8900146L595.276 841L595.276 841L0 841z" /></clipPath></defs><g transform="matrix(1.333333 0 0 1.333333 0 0)"><g clip-path="url(#1)"><path id="19" transform="matrix(1 0 0 -1 0 841)" d="M85.039 766.564L510.236 766.564" stroke="#000000" stroke-width="0.498" fill="none" /><path id="175" transform="matrix(1 0 0 -1 0 841)" d="M138.653 636.6324L98.96808 656.4749L167.0057 676.738L206.686 666.3969z" stroke="none" fill="#CCCCCC" fill-rule="nonzero" /><path id="185" transform="matrix(1 0 0 -1 0 841)" d="M98.96808 656.4749L98.96808 701.8299L167.0066 710.5152L167.0057 676.738z" stroke="none" fill="#BFBFBF" fill-rule="nonzero" /><path id="194" transform="matrix(1 0 0 -1 0 841)" d="M167.0066 710.5152L167.0057 676.738L206.686 666.3969L206.686 706.0822z" stroke="none" fill="#F2F2F2" fill-rule="nonzero" fill-opacity="0.2" /><path id="203" transform="matrix(1 0 0 -1 0 841)" d="M138.653 693.326L138.653 636.6324L98.96808 656.4749L98.96808 701.8299z" stroke="none" fill="#F2F2F2" fill-rule="nonzero" fill-opacity="0.4980392" /><path id="212" transform="matrix(1 0 0 -1 0 841)" d="M138.653 693.326L98.96808 701.8299L167.0066 710.5152L206.686 706.0822z" stroke="none" fill="#CCCCCC" fill-rule="nonzero" fill-opacity="0.2" /><path id="224" transform="matrix(1 0 0 -1 0 841)" d="M167.0066 710.5152L167.0057 676.738" stroke="#000000" stroke-width="0.79701" stroke-dasharray="3.750053,3.750053" fill="none" /><path id="225" transform="matrix(1 0 0 -1 0 841)" d="M98.96808 656.4749L167.0057 676.738" stroke="#000000" stroke-width="0.79701" stroke-dasharray="3.750053,3.750053" fill="none" /><path id="226" transform="matrix(1 0 0 -1 0 841)" d="M206.686 666.3969L167.0057 676.738" stroke="#000000" stroke-width="0.79701" stroke-dasharray="3.750053,3.750053" fill="none" /><path id="235" transform="matrix(1 0 0 -1 0 841)" d="M138.653 693.326L138.653 636.6324" stroke="#000000" stroke-width="0.79701" fill="none" /><path id="236" transform="matrix(1 0 0 -1 0 841)" d="M87.62868 703.6994L87.62868 656.8736" stroke="#000000" stroke-width="0.3985" fill="none" /><path id="237" transform="matrix(1 0 0 -1 0 841)" d="M85.23764 701.8264C 86.67229 702.205 87.34972 703.0486 87.62868 703.8986C 87.90763 703.0486 88.58507 702.205 90.01971 701.8264" stroke="#000000" stroke-width="0.3985" stroke-linecap="round" fill="none" /><path id="238" transform="matrix(1 0 0 -1 0 841)" d="M90.01971 658.7466C 88.58507 658.368 87.90763 657.5243 87.62868 656.6743C 87.34972 657.5243 86.67229 658.368 85.23764 658.7466" stroke="#000000" stroke-width="0.3985" stroke-linecap="round" fill="none" /><path id="249" transform="matrix(1 0 0 -1 0 841)" d="M93.6488 653.4517L129.798 633.9865" stroke="#000000" stroke-width="0.3985" fill="none" /><path id="250" transform="matrix(1 0 0 -1 0 841)" d="M94.16428 650.4586C 94.51111 651.9012 94.08949 652.8976 93.47339 653.5461C 94.35398 653.3888 95.41792 653.5853 96.43137 654.6689" stroke="#000000" stroke-width="0.3984783" stroke-linecap="round" fill="none" /><path id="251" transform="matrix(1 0 0 -1 0 841)" d="M129.2825 636.9795C 128.9357 635.5369 129.3573 634.5405 129.9734 633.892C 129.0928 634.0493 128.0289 633.8528 127.0155 632.7692" stroke="#000000" stroke-width="0.3984783" stroke-linecap="round" fill="none" /><path id="262" transform="matrix(1 0 0 -1 0 841)" d="M211.9909 661.1317L144.6862 631.1254" stroke="#000000" stroke-width="0.3985" fill="none" /><path id="263" transform="matrix(1 0 0 -1 0 841)" d="M209.3067 662.5528C 210.2366 661.3967 211.283 661.1215 212.1729 661.2128C 211.5102 660.6119 211.0155 659.6497 211.2539 658.1853" stroke="#000000" stroke-width="0.3984862" stroke-linecap="round" fill="none" /><path id="264" transform="matrix(1 0 0 -1 0 841)" d="M147.3704 629.7042C 146.4405 630.8604 145.3941 631.1355 144.5042 631.0442C 145.1669 631.6451 145.6616 632.6073 145.4232 634.0717" stroke="#000000" stroke-width="0.3984862" stroke-linecap="round" fill="none" /><path id="274" transform="matrix(1 0 0 -1 0 841)" d="M98.96808 656.4749L98.96808 701.8299" stroke="#000000" stroke-width="0.79701" fill="none" /><path id="275" transform="matrix(1 0 0 -1 0 841)" d="M206.686 666.3969L206.686 706.0822" stroke="#000000" stroke-width="0.79701" fill="none" /><path id="276" transform="matrix(1 0 0 -1 0 841)" d="M138.653 693.326L98.96808 701.8299" stroke="#000000" stroke-width="0.79701" fill="none" /><path id="277" transform="matrix(1 0 0 -1 0 841)" d="M138.653 693.326L206.686 706.0822" stroke="#000000" stroke-width="0.79701" fill="none" /><path id="278" transform="matrix(1 0 0 -1 0 841)" d="M138.653 636.6324L98.96808 656.4749" stroke="#000000" stroke-width="0.79701" fill="none" /><path id="279" transform="matrix(1 0 0 -1 0 841)" d="M138.653 636.6324L206.686 666.3969" stroke="#000000" stroke-width="0.79701" fill="none" /><path id="280" transform="matrix(1 0 0 -1 0 841)" d="M98.96808 701.8299L167.0066 710.5152" stroke="#000000" stroke-width="0.79701" fill="none" /><path id="281" transform="matrix(1 0 0 -1 0 841)" d="M206.686 706.0822L167.0066 710.5152" stroke="#000000" stroke-width="0.79701" fill="none" /><path id="338" transform="matrix(1 0 0 -1 0 841)" d="M153.498 608.594L190.883 608.594" stroke="#000000" stroke-width="0.398" fill="none" /><path id="339" transform="matrix(1 0 0 -1 0 841)" d="M153.697 590.101L153.697 608.594" stroke="#000000" stroke-width="0.398" fill="none" /><path id="340" transform="matrix(1 0 0 -1 0 841)" d="M190.683 590.101L190.683 608.594" stroke="#000000" stroke-width="0.398" fill="none" /><path id="341" transform="matrix(1 0 0 -1 0 841)" d="M153.498 590.101L190.883 590.101" stroke="#000000" stroke-width="0.398" fill="none" /><path id="429" transform="matrix(1 0 0 -1 0 841)" d="M181.368 574.721L228.441 574.721" stroke="#000000" stroke-width="0.398" fill="none" /><path id="430" transform="matrix(1 0 0 -1 0 841)" d="M181.567 556.228L181.567 574.721" stroke="#000000" stroke-width="0.398" fill="none" /><path id="431" transform="matrix(1 0 0 -1 0 841)" d="M228.242 556.228L228.242 574.721" stroke="#000000" stroke-width="0.398" fill="none" /><path id="432" transform="matrix(1 0 0 -1 0 841)" d="M181.368 556.228L228.441 556.228" stroke="#000000" stroke-width="0.398" fill="none" /><path id="635" transform="matrix(1 0 0 -1 0 841)" d="M138.653 410.0594L98.96808 429.9019L167.0057 450.165L206.686 439.8239z" stroke="none" fill="#CCCCCC" fill-rule="nonzero" /><path id="636" transform="matrix(1 0 0 -1 0 841)" d="M98.96808 429.9019L98.96808 475.2569L167.0066 483.9422L167.0057 450.165z" stroke="none" fill="#BFBFBF" fill-rule="nonzero" /><path id="645" transform="matrix(1 0 0 -1 0 841)" d="M167.0066 483.9422L167.0057 450.165L206.686 439.8239L206.686 479.5092z" stroke="none" fill="#F2F2F2" fill-rule="nonzero" fill-opacity="0.2" /><path id="654" transform="matrix(1 0 0 -1 0 841)" d="M138.653 466.753L138.653 410.0594L98.96808 429.9019L98.96808 475.2569z" stroke="none" fill="#F2F2F2" fill-rule="nonzero" fill-opacity="0.4980392" /><path id="663" transform="matrix(1 0 0 -1 0 841)" d="M138.653 466.753L98.96808 475.2569L167.0066 483.9422L206.686 479.5092z" stroke="none" fill="#CCCCCC" fill-rule="nonzero" fill-opacity="0.2" /><path id="664" transform="matrix(1 0 0 -1 0 841)" d="M167.0066 483.9422L167.0057 450.165" stroke="#000000" stroke-width="0.79701" stroke-dasharray="3.750053,3.750053" fill="none" /><path id="665" transform="matrix(1 0 0 -1 0 841)" d="M98.96808 429.9019L167.0057 450.165" stroke="#000000" stroke-width="0.79701" stroke-dasharray="3.750053,3.750053" fill="none" /><path id="666" transform="matrix(1 0 0 -1 0 841)" d="M206.686 439.8239L167.0057 450.165" stroke="#000000" stroke-width="0.79701" stroke-dasharray="3.750053,3.750053" fill="none" /><path id="675" transform="matrix(1 0 0 -1 0 841)" d="M138.653 466.753L138.653 410.0594" stroke="#000000" stroke-width="0.79701" fill="none" /><path id="676" transform="matrix(1 0 0 -1 0 841)" d="M87.62868 477.1264L87.62868 430.3006" stroke="#000000" stroke-width="0.3985" fill="none" /><path id="677" transform="matrix(1 0 0 -1 0 841)" d="M85.23764 475.2534C 86.67229 475.632 87.34972 476.4756 87.62868 477.3256C 87.90763 476.4756 88.58507 475.632 90.01971 475.2534" stroke="#000000" stroke-width="0.3985" stroke-linecap="round" fill="none" /><path id="678" transform="matrix(1 0 0 -1 0 841)" d="M90.01971 432.1736C 88.58507 431.795 87.90763 430.9513 87.62868 430.1013C 87.34972 430.9513 86.67229 431.795 85.23764 432.1736" stroke="#000000" stroke-width="0.3985" stroke-linecap="round" fill="none" /><path id="689" transform="matrix(1 0 0 -1 0 841)" d="M93.6488 426.8787L129.798 407.4135" stroke="#000000" stroke-width="0.3985" fill="none" /><path id="690" transform="matrix(1 0 0 -1 0 841)" d="M94.16428 423.8856C 94.51111 425.3282 94.08949 426.3246 93.47339 426.9731C 94.35398 426.8158 95.41792 427.0122 96.43137 428.0959" stroke="#000000" stroke-width="0.3984783" stroke-linecap="round" fill="none" /><path id="691" transform="matrix(1 0 0 -1 0 841)" d="M129.2825 410.4065C 128.9357 408.964 129.3573 407.9676 129.9734 407.319C 129.0928 407.4764 128.0289 407.2799 127.0155 406.1963" stroke="#000000" stroke-width="0.3984783" stroke-linecap="round" fill="none" /><path id="702" transform="matrix(1 0 0 -1 0 841)" d="M211.9909 434.5587L144.6862 404.5523" stroke="#000000" stroke-width="0.3985" fill="none" /><path id="703" transform="matrix(1 0 0 -1 0 841)" d="M209.3067 435.9798C 210.2366 434.8237 211.283 434.5485 212.1729 434.6398C 211.5102 434.039 211.0155 433.0767 211.2539 431.6123" stroke="#000000" stroke-width="0.3984862" stroke-linecap="round" fill="none" /><path id="704" transform="matrix(1 0 0 -1 0 841)" d="M147.3704 403.1312C 146.4405 404.2874 145.3941 404.5626 144.5042 404.4712C 145.1669 405.0721 145.6616 406.0343 145.4232 407.4987" stroke="#000000" stroke-width="0.3984862" stroke-linecap="round" fill="none" /><path id="714" transform="matrix(1 0 0 -1 0 841)" d="M98.96808 429.9019L98.96808 475.2569" stroke="#000000" stroke-width="0.79701" fill="none" /><path id="715" transform="matrix(1 0 0 -1 0 841)" d="M206.686 439.8239L206.686 479.5092" stroke="#000000" stroke-width="0.79701" fill="none" /><path id="716" transform="matrix(1 0 0 -1 0 841)" d="M138.653 466.753L98.96808 475.2569" stroke="#000000" stroke-width="0.79701" fill="none" /><path id="717" transform="matrix(1 0 0 -1 0 841)" d="M138.653 466.753L206.686 479.5092" stroke="#000000" stroke-width="0.79701" fill="none" /><path id="718" transform="matrix(1 0 0 -1 0 841)" d="M138.653 410.0594L98.96808 429.9019" stroke="#000000" stroke-width="0.79701" fill="none" /><path id="719" transform="matrix(1 0 0 -1 0 841)" d="M138.653 410.0594L206.686 439.8239" stroke="#000000" stroke-width="0.79701" fill="none" /><path id="720" transform="matrix(1 0 0 -1 0 841)" d="M98.96808 475.2569L167.0066 483.9422" stroke="#000000" stroke-width="0.79701" fill="none" /><path id="721" transform="matrix(1 0 0 -1 0 841)" d="M206.686 479.5092L167.0066 483.9422" stroke="#000000" stroke-width="0.79701" fill="none" /><path id="793" transform="matrix(1 0 0 -1 0 841)" d="M137.469 357.874L151.967 357.874" stroke="#000000" stroke-width="0.436" fill="none" /><path id="821" transform="matrix(1 0 0 -1 0 841)" d="M255.38 357.874L295.678 357.874" stroke="#000000" stroke-width="0.436" fill="none" /><path id="830" transform="matrix(1 0 0 -1 0 841)" d="M276.462 340.068L290.96 340.068" stroke="#000000" stroke-width="0.436" fill="none" /><path id="844" transform="matrix(1 0 0 -1 0 841)" d="M310.188 365.845L366.566 365.845" stroke="#000000" stroke-width="0.398" fill="none" /><path id="845" transform="matrix(1 0 0 -1 0 841)" d="M310.387 349.733L310.387 365.845" stroke="#000000" stroke-width="0.398" fill="none" /><path id="846" transform="matrix(1 0 0 -1 0 841)" d="M366.366 349.733L366.366 365.845" stroke="#000000" stroke-width="0.398" fill="none" /><path id="847" transform="matrix(1 0 0 -1 0 841)" d="M310.188 349.733L366.566 349.733" stroke="#000000" stroke-width="0.398" fill="none" /><path id="965" transform="matrix(1 0 0 -1 0 841)" d="M269.694 270.373L302.595 270.373" stroke="#000000" stroke-width="0.398" fill="none" /><path id="966" transform="matrix(1 0 0 -1 0 841)" d="M269.893 254.386L269.893 270.373" stroke="#000000" stroke-width="0.398" fill="none" /><path id="967" transform="matrix(1 0 0 -1 0 841)" d="M302.396 254.386L302.396 270.373" stroke="#000000" stroke-width="0.398" fill="none" /><path id="968" transform="matrix(1 0 0 -1 0 841)" d="M269.694 254.386L302.595 254.386" stroke="#000000" stroke-width="0.398" fill="none" /><path id="1056" transform="matrix(1 0 0 -1 0 841)" d="M161.751 182.58L168.624 182.58" stroke="#000000" stroke-width="0.436" fill="none" /><path id="1095" transform="matrix(1 0 0 -1 0 841)" d="M136.759 159.264L161.599 159.264" stroke="#000000" stroke-width="0.436" fill="none" /><path id="1106" transform="matrix(1 0 0 -1 0 841)" d="M220.346 165.899L250.64 165.899" stroke="#000000" stroke-width="0.425" fill="none" /><path id="1118" transform="matrix(1 0 0 -1 0 841)" d="M263.965 167.056L291.412 167.056" stroke="#000000" stroke-width="0.398" fill="none" /><path id="1119" transform="matrix(1 0 0 -1 0 841)" d="M264.165 151.069L264.165 167.056" stroke="#000000" stroke-width="0.398" fill="none" /><path id="1120" transform="matrix(1 0 0 -1 0 841)" d="M291.213 151.069L291.213 167.056" stroke="#000000" stroke-width="0.398" fill="none" /><path id="1121" transform="matrix(1 0 0 -1 0 841)" d="M263.965 151.069L291.412 151.069" stroke="#000000" stroke-width="0.398" fill="none" /></g></g></svg>