<svg xmlns="http://www.w3.org/2000/svg" xmlns:xlink="http://www.w3.org/1999/xlink" id="body_104" preserveAspectRatio="xMinYMin meet" viewBox="0 0 793 1121"><defs><clipPath id="1"><path id="" clip-rule="evenodd" transform="matrix(1 0 0 1 0 0)" d="M0 841L0 -0.8900146L0 -0.8900146L595.276 -0.8900146L595.276 -0.8900146L595.276 841L595.276 841L0 841z" /></clipPath></defs><g transform="matrix(1.333333 0 0 1.333333 0 0)"><g clip-path="url(#1)"><path id="37" transform="matrix(1 0 0 -1 0 841)" d="M85.039 766.564L510.236 766.564" stroke="#000000" stroke-width="0.498" fill="none" /><path id="38" transform="matrix(1 0 0 -1 0 841)" d="M85.039 725.602L506.995 725.602" stroke="#000000" stroke-width="0.398" fill="none" /><path id="39" transform="matrix(1 0 0 -1 0 841)" d="M85.239 711.854L85.239 725.403" stroke="#000000" stroke-width="0.398" fill="none" /><path id="52" transform="matrix(1 0 0 -1 0 841)" d="M352.71 711.854L352.71 725.403" stroke="#000000" stroke-width="0.398" fill="none" /><path id="75" transform="matrix(1 0 0 -1 0 841)" d="M506.796 711.854L506.796 725.403" stroke="#000000" stroke-width="0.398" fill="none" /><path id="76" transform="matrix(1 0 0 -1 0 841)" d="M85.039 711.654L506.995 711.654" stroke="#000000" stroke-width="0.398" fill="none" /><path id="77" transform="matrix(1 0 0 -1 0 841)" d="M85.239 697.906L85.239 711.455" stroke="#000000" stroke-width="0.398" fill="none" /><path id="86" transform="matrix(1 0 0 -1 0 841)" d="M352.71 697.906L352.71 711.455" stroke="#000000" stroke-width="0.398" fill="none" /><path id="92" transform="matrix(1 0 0 -1 0 841)" d="M506.796 697.906L506.796 711.455" stroke="#000000" stroke-width="0.398" fill="none" /><path id="93" transform="matrix(1 0 0 -1 0 841)" d="M85.039 697.707L506.995 697.707" stroke="#000000" stroke-width="0.398" fill="none" /><path id="94" transform="matrix(1 0 0 -1 0 841)" d="M85.239 683.958L85.239 697.507" stroke="#000000" stroke-width="0.398" fill="none" /><path id="103" transform="matrix(1 0 0 -1 0 841)" d="M352.71 683.958L352.71 697.507" stroke="#000000" stroke-width="0.398" fill="none" /><path id="107" transform="matrix(1 0 0 -1 0 841)" d="M506.796 683.958L506.796 697.507" stroke="#000000" stroke-width="0.398" fill="none" /><path id="108" transform="matrix(1 0 0 -1 0 841)" d="M85.039 683.759L506.995 683.759" stroke="#000000" stroke-width="0.398" fill="none" /><path id="109" transform="matrix(1 0 0 -1 0 841)" d="M85.239 670.011L85.239 683.56" stroke="#000000" stroke-width="0.398" fill="none" /><path id="118" transform="matrix(1 0 0 -1 0 841)" d="M352.71 670.011L352.71 683.56" stroke="#000000" stroke-width="0.398" fill="none" /><path id="130" transform="matrix(1 0 0 -1 0 841)" d="M506.796 670.011L506.796 683.56" stroke="#000000" stroke-width="0.398" fill="none" /><path id="131" transform="matrix(1 0 0 -1 0 841)" d="M85.039 669.811L506.995 669.811" stroke="#000000" stroke-width="0.398" fill="none" /><path id="132" transform="matrix(1 0 0 -1 0 841)" d="M85.239 656.063L85.239 669.612" stroke="#000000" stroke-width="0.398" fill="none" /><path id="140" transform="matrix(1 0 0 -1 0 841)" d="M352.71 656.063L352.71 669.612" stroke="#000000" stroke-width="0.398" fill="none" /><path id="149" transform="matrix(1 0 0 -1 0 841)" d="M506.796 656.063L506.796 669.612" stroke="#000000" stroke-width="0.398" fill="none" /><path id="150" transform="matrix(1 0 0 -1 0 841)" d="M85.039 655.864L506.995 655.864" stroke="#000000" stroke-width="0.398" fill="none" /><path id="151" transform="matrix(1 0 0 -1 0 841)" d="M85.239 642.115L85.239 655.664" stroke="#000000" stroke-width="0.398" fill="none" /><path id="160" transform="matrix(1 0 0 -1 0 841)" d="M352.71 642.115L352.71 655.664" stroke="#000000" stroke-width="0.398" fill="none" /><path id="176" transform="matrix(1 0 0 -1 0 841)" d="M506.796 642.115L506.796 655.664" stroke="#000000" stroke-width="0.398" fill="none" /><path id="177" transform="matrix(1 0 0 -1 0 841)" d="M85.039 641.916L506.995 641.916" stroke="#000000" stroke-width="0.398" fill="none" /><path id="178" transform="matrix(1 0 0 -1 0 841)" d="M85.239 628.168L85.239 641.717" stroke="#000000" stroke-width="0.398" fill="none" /><path id="187" transform="matrix(1 0 0 -1 0 841)" d="M352.71 628.168L352.71 641.717" stroke="#000000" stroke-width="0.398" fill="none" /><path id="195" transform="matrix(1 0 0 -1 0 841)" d="M506.796 628.168L506.796 641.717" stroke="#000000" stroke-width="0.398" fill="none" /><path id="196" transform="matrix(1 0 0 -1 0 841)" d="M85.039 627.968L506.995 627.968" stroke="#000000" stroke-width="0.398" fill="none" /><path id="197" transform="matrix(1 0 0 -1 0 841)" d="M85.239 614.22L85.239 627.769" stroke="#000000" stroke-width="0.398" fill="none" /><path id="204" transform="matrix(1 0 0 -1 0 841)" d="M352.71 614.22L352.71 627.769" stroke="#000000" stroke-width="0.398" fill="none" /><path id="206" transform="matrix(1 0 0 -1 0 841)" d="M506.796 614.22L506.796 627.769" stroke="#000000" stroke-width="0.398" fill="none" /><path id="207" transform="matrix(1 0 0 -1 0 841)" d="M85.039 614.021L506.995 614.021" stroke="#000000" stroke-width="0.398" fill="none" /><path id="208" transform="matrix(1 0 0 -1 0 841)" d="M85.239 600.272L85.239 613.821" stroke="#000000" stroke-width="0.398" fill="none" /><path id="217" transform="matrix(1 0 0 -1 0 841)" d="M352.71 600.272L352.71 613.821" stroke="#000000" stroke-width="0.398" fill="none" /><path id="221" transform="matrix(1 0 0 -1 0 841)" d="M506.796 600.272L506.796 613.821" stroke="#000000" stroke-width="0.398" fill="none" /><path id="222" transform="matrix(1 0 0 -1 0 841)" d="M85.039 600.073L506.995 600.073" stroke="#000000" stroke-width="0.398" fill="none" /><path id="223" transform="matrix(1 0 0 -1 0 841)" d="M85.239 586.325L85.239 599.874" stroke="#000000" stroke-width="0.398" fill="none" /><path id="231" transform="matrix(1 0 0 -1 0 841)" d="M352.71 586.325L352.71 599.874" stroke="#000000" stroke-width="0.398" fill="none" /><path id="239" transform="matrix(1 0 0 -1 0 841)" d="M506.796 586.325L506.796 599.874" stroke="#000000" stroke-width="0.398" fill="none" /><path id="240" transform="matrix(1 0 0 -1 0 841)" d="M85.039 586.125L506.995 586.125" stroke="#000000" stroke-width="0.398" fill="none" /><path id="241" transform="matrix(1 0 0 -1 0 841)" d="M85.239 572.377L85.239 585.926" stroke="#000000" stroke-width="0.398" fill="none" /><path id="256" transform="matrix(1 0 0 -1 0 841)" d="M352.71 572.377L352.71 585.926" stroke="#000000" stroke-width="0.398" fill="none" /><path id="265" transform="matrix(1 0 0 -1 0 841)" d="M506.796 572.377L506.796 585.926" stroke="#000000" stroke-width="0.398" fill="none" /><path id="266" transform="matrix(1 0 0 -1 0 841)" d="M85.039 572.178L506.995 572.178" stroke="#000000" stroke-width="0.398" fill="none" /><path id="267" transform="matrix(1 0 0 -1 0 841)" d="M85.239 558.429L85.239 571.978" stroke="#000000" stroke-width="0.398" fill="none" /><path id="298" transform="matrix(1 0 0 -1 0 841)" d="M352.71 558.429L352.71 571.978" stroke="#000000" stroke-width="0.398" fill="none" /><path id="304" transform="matrix(1 0 0 -1 0 841)" d="M506.796 558.429L506.796 571.978" stroke="#000000" stroke-width="0.398" fill="none" /><path id="305" transform="matrix(1 0 0 -1 0 841)" d="M85.039 558.23L506.995 558.23" stroke="#000000" stroke-width="0.398" fill="none" /><path id="306" transform="matrix(1 0 0 -1 0 841)" d="M85.239 544.481L85.239 558.03" stroke="#000000" stroke-width="0.398" fill="none" /><path id="314" transform="matrix(1 0 0 -1 0 841)" d="M352.71 544.481L352.71 558.03" stroke="#000000" stroke-width="0.398" fill="none" /><path id="321" transform="matrix(1 0 0 -1 0 841)" d="M506.796 544.481L506.796 558.03" stroke="#000000" stroke-width="0.398" fill="none" /><path id="322" transform="matrix(1 0 0 -1 0 841)" d="M85.039 544.282L506.995 544.282" stroke="#000000" stroke-width="0.398" fill="none" /><path id="323" transform="matrix(1 0 0 -1 0 841)" d="M85.239 530.534L85.239 544.083" stroke="#000000" stroke-width="0.398" fill="none" /><path id="331" transform="matrix(1 0 0 -1 0 841)" d="M352.71 530.534L352.71 544.083" stroke="#000000" stroke-width="0.398" fill="none" /><path id="339" transform="matrix(1 0 0 -1 0 841)" d="M506.796 530.534L506.796 544.083" stroke="#000000" stroke-width="0.398" fill="none" /><path id="340" transform="matrix(1 0 0 -1 0 841)" d="M85.039 530.335L506.995 530.335" stroke="#000000" stroke-width="0.398" fill="none" /><path id="341" transform="matrix(1 0 0 -1 0 841)" d="M85.239 516.586L85.239 530.135" stroke="#000000" stroke-width="0.398" fill="none" /><path id="352" transform="matrix(1 0 0 -1 0 841)" d="M352.71 516.586L352.71 530.135" stroke="#000000" stroke-width="0.398" fill="none" /><path id="359" transform="matrix(1 0 0 -1 0 841)" d="M506.796 516.586L506.796 530.135" stroke="#000000" stroke-width="0.398" fill="none" /><path id="360" transform="matrix(1 0 0 -1 0 841)" d="M85.039 516.387L506.995 516.387" stroke="#000000" stroke-width="0.398" fill="none" /><path id="361" transform="matrix(1 0 0 -1 0 841)" d="M85.239 502.638L85.239 516.187" stroke="#000000" stroke-width="0.398" fill="none" /><path id="381" transform="matrix(1 0 0 -1 0 841)" d="M352.71 502.638L352.71 516.187" stroke="#000000" stroke-width="0.398" fill="none" /><path id="388" transform="matrix(1 0 0 -1 0 841)" d="M506.796 502.638L506.796 516.187" stroke="#000000" stroke-width="0.398" fill="none" /><path id="389" transform="matrix(1 0 0 -1 0 841)" d="M85.039 502.439L506.995 502.439" stroke="#000000" stroke-width="0.398" fill="none" /><path id="390" transform="matrix(1 0 0 -1 0 841)" d="M85.239 488.691L85.239 502.24" stroke="#000000" stroke-width="0.398" fill="none" /><path id="400" transform="matrix(1 0 0 -1 0 841)" d="M352.71 488.691L352.71 502.24" stroke="#000000" stroke-width="0.398" fill="none" /><path id="408" transform="matrix(1 0 0 -1 0 841)" d="M506.796 488.691L506.796 502.24" stroke="#000000" stroke-width="0.398" fill="none" /><path id="409" transform="matrix(1 0 0 -1 0 841)" d="M85.039 488.492L506.995 488.492" stroke="#000000" stroke-width="0.398" fill="none" /><path id="410" transform="matrix(1 0 0 -1 0 841)" d="M85.239 474.743L85.239 488.292" stroke="#000000" stroke-width="0.398" fill="none" /><path id="419" transform="matrix(1 0 0 -1 0 841)" d="M352.71 474.743L352.71 488.292" stroke="#000000" stroke-width="0.398" fill="none" /><path id="424" transform="matrix(1 0 0 -1 0 841)" d="M506.796 474.743L506.796 488.292" stroke="#000000" stroke-width="0.398" fill="none" /><path id="425" transform="matrix(1 0 0 -1 0 841)" d="M85.039 474.544L506.995 474.544" stroke="#000000" stroke-width="0.398" fill="none" /><path id="426" transform="matrix(1 0 0 -1 0 841)" d="M85.239 460.795L85.239 474.344" stroke="#000000" stroke-width="0.398" fill="none" /><path id="440" transform="matrix(1 0 0 -1 0 841)" d="M352.71 460.795L352.71 474.344" stroke="#000000" stroke-width="0.398" fill="none" /><path id="445" transform="matrix(1 0 0 -1 0 841)" d="M506.796 460.795L506.796 474.344" stroke="#000000" stroke-width="0.398" fill="none" /><path id="446" transform="matrix(1 0 0 -1 0 841)" d="M85.039 460.596L506.995 460.596" stroke="#000000" stroke-width="0.398" fill="none" /><path id="447" transform="matrix(1 0 0 -1 0 841)" d="M85.239 446.848L85.239 460.397" stroke="#000000" stroke-width="0.398" fill="none" /><path id="467" transform="matrix(1 0 0 -1 0 841)" d="M352.71 446.848L352.71 460.397" stroke="#000000" stroke-width="0.398" fill="none" /><path id="475" transform="matrix(1 0 0 -1 0 841)" d="M506.796 446.848L506.796 460.397" stroke="#000000" stroke-width="0.398" fill="none" /><path id="476" transform="matrix(1 0 0 -1 0 841)" d="M85.039 446.648L506.995 446.648" stroke="#000000" stroke-width="0.398" fill="none" /><path id="477" transform="matrix(1 0 0 -1 0 841)" d="M85.239 432.9L85.239 446.449" stroke="#000000" stroke-width="0.398" fill="none" /><path id="484" transform="matrix(1 0 0 -1 0 841)" d="M352.71 432.9L352.71 446.449" stroke="#000000" stroke-width="0.398" fill="none" /><path id="488" transform="matrix(1 0 0 -1 0 841)" d="M506.796 432.9L506.796 446.449" stroke="#000000" stroke-width="0.398" fill="none" /><path id="489" transform="matrix(1 0 0 -1 0 841)" d="M85.039 432.701L506.995 432.701" stroke="#000000" stroke-width="0.398" fill="none" /><path id="490" transform="matrix(1 0 0 -1 0 841)" d="M85.239 418.952L85.239 432.501" stroke="#000000" stroke-width="0.398" fill="none" /><path id="498" transform="matrix(1 0 0 -1 0 841)" d="M352.71 418.952L352.71 432.501" stroke="#000000" stroke-width="0.398" fill="none" /><path id="503" transform="matrix(1 0 0 -1 0 841)" d="M506.796 418.952L506.796 432.501" stroke="#000000" stroke-width="0.398" fill="none" /><path id="504" transform="matrix(1 0 0 -1 0 841)" d="M85.039 418.753L506.995 418.753" stroke="#000000" stroke-width="0.398" fill="none" /><path id="505" transform="matrix(1 0 0 -1 0 841)" d="M85.239 405.005L85.239 418.554" stroke="#000000" stroke-width="0.398" fill="none" /><path id="513" transform="matrix(1 0 0 -1 0 841)" d="M352.71 405.005L352.71 418.554" stroke="#000000" stroke-width="0.398" fill="none" /><path id="518" transform="matrix(1 0 0 -1 0 841)" d="M506.796 405.005L506.796 418.554" stroke="#000000" stroke-width="0.398" fill="none" /><path id="519" transform="matrix(1 0 0 -1 0 841)" d="M85.039 404.805L506.995 404.805" stroke="#000000" stroke-width="0.398" fill="none" /><path id="520" transform="matrix(1 0 0 -1 0 841)" d="M85.239 391.057L85.239 404.606" stroke="#000000" stroke-width="0.398" fill="none" /><path id="544" transform="matrix(1 0 0 -1 0 841)" d="M352.71 391.057L352.71 404.606" stroke="#000000" stroke-width="0.398" fill="none" /><path id="548" transform="matrix(1 0 0 -1 0 841)" d="M506.796 391.057L506.796 404.606" stroke="#000000" stroke-width="0.398" fill="none" /><path id="549" transform="matrix(1 0 0 -1 0 841)" d="M85.039 390.858L506.995 390.858" stroke="#000000" stroke-width="0.398" fill="none" /><path id="550" transform="matrix(1 0 0 -1 0 841)" d="M85.239 377.109L85.239 390.658" stroke="#000000" stroke-width="0.398" fill="none" /><path id="576" transform="matrix(1 0 0 -1 0 841)" d="M352.71 377.109L352.71 390.658" stroke="#000000" stroke-width="0.398" fill="none" /><path id="582" transform="matrix(1 0 0 -1 0 841)" d="M506.796 377.109L506.796 390.658" stroke="#000000" stroke-width="0.398" fill="none" /><path id="583" transform="matrix(1 0 0 -1 0 841)" d="M85.039 376.91L506.995 376.91" stroke="#000000" stroke-width="0.398" fill="none" /><path id="584" transform="matrix(1 0 0 -1 0 841)" d="M85.239 363.162L85.239 376.711" stroke="#000000" stroke-width="0.398" fill="none" /><path id="612" transform="matrix(1 0 0 -1 0 841)" d="M352.71 363.162L352.71 376.711" stroke="#000000" stroke-width="0.398" fill="none" /><path id="621" transform="matrix(1 0 0 -1 0 841)" d="M506.796 363.162L506.796 376.711" stroke="#000000" stroke-width="0.398" fill="none" /><path id="622" transform="matrix(1 0 0 -1 0 841)" d="M85.039 362.962L506.995 362.962" stroke="#000000" stroke-width="0.398" fill="none" /><path id="623" transform="matrix(1 0 0 -1 0 841)" d="M85.239 349.214L85.239 362.763" stroke="#000000" stroke-width="0.398" fill="none" /><path id="641" transform="matrix(1 0 0 -1 0 841)" d="M352.71 349.214L352.71 362.763" stroke="#000000" stroke-width="0.398" fill="none" /><path id="649" transform="matrix(1 0 0 -1 0 841)" d="M506.796 349.214L506.796 362.763" stroke="#000000" stroke-width="0.398" fill="none" /><path id="650" transform="matrix(1 0 0 -1 0 841)" d="M85.039 349.015L506.995 349.015" stroke="#000000" stroke-width="0.398" fill="none" /><path id="651" transform="matrix(1 0 0 -1 0 841)" d="M85.239 335.266L85.239 348.815" stroke="#000000" stroke-width="0.398" fill="none" /><path id="671" transform="matrix(1 0 0 -1 0 841)" d="M352.71 335.266L352.71 348.815" stroke="#000000" stroke-width="0.398" fill="none" /><path id="675" transform="matrix(1 0 0 -1 0 841)" d="M506.796 335.266L506.796 348.815" stroke="#000000" stroke-width="0.398" fill="none" /><path id="676" transform="matrix(1 0 0 -1 0 841)" d="M85.039 335.067L506.995 335.067" stroke="#000000" stroke-width="0.398" fill="none" /><path id="677" transform="matrix(1 0 0 -1 0 841)" d="M85.239 321.319L85.239 334.868" stroke="#000000" stroke-width="0.398" fill="none" /><path id="697" transform="matrix(1 0 0 -1 0 841)" d="M352.71 321.319L352.71 334.868" stroke="#000000" stroke-width="0.398" fill="none" /><path id="703" transform="matrix(1 0 0 -1 0 841)" d="M506.796 321.319L506.796 334.868" stroke="#000000" stroke-width="0.398" fill="none" /><path id="704" transform="matrix(1 0 0 -1 0 841)" d="M85.039 321.119L506.995 321.119" stroke="#000000" stroke-width="0.398" fill="none" /><path id="705" transform="matrix(1 0 0 -1 0 841)" d="M85.239 307.371L85.239 320.92" stroke="#000000" stroke-width="0.398" fill="none" /><path id="724" transform="matrix(1 0 0 -1 0 841)" d="M352.71 307.371L352.71 320.92" stroke="#000000" stroke-width="0.398" fill="none" /><path id="730" transform="matrix(1 0 0 -1 0 841)" d="M506.796 307.371L506.796 320.92" stroke="#000000" stroke-width="0.398" fill="none" /><path id="731" transform="matrix(1 0 0 -1 0 841)" d="M85.039 307.172L506.995 307.172" stroke="#000000" stroke-width="0.398" fill="none" /><path id="732" transform="matrix(1 0 0 -1 0 841)" d="M85.239 293.423L85.239 306.972" stroke="#000000" stroke-width="0.398" fill="none" /><path id="751" transform="matrix(1 0 0 -1 0 841)" d="M352.71 293.423L352.71 306.972" stroke="#000000" stroke-width="0.398" fill="none" /><path id="758" transform="matrix(1 0 0 -1 0 841)" d="M506.796 293.423L506.796 306.972" stroke="#000000" stroke-width="0.398" fill="none" /><path id="759" transform="matrix(1 0 0 -1 0 841)" d="M85.039 293.224L506.995 293.224" stroke="#000000" stroke-width="0.398" fill="none" /><path id="760" transform="matrix(1 0 0 -1 0 841)" d="M85.239 279.476L85.239 293.025" stroke="#000000" stroke-width="0.398" fill="none" /><path id="781" transform="matrix(1 0 0 -1 0 841)" d="M352.71 279.476L352.71 293.025" stroke="#000000" stroke-width="0.398" fill="none" /><path id="786" transform="matrix(1 0 0 -1 0 841)" d="M506.796 279.476L506.796 293.025" stroke="#000000" stroke-width="0.398" fill="none" /><path id="787" transform="matrix(1 0 0 -1 0 841)" d="M85.039 279.276L506.995 279.276" stroke="#000000" stroke-width="0.398" fill="none" /><path id="788" transform="matrix(1 0 0 -1 0 841)" d="M85.239 265.528L85.239 279.077" stroke="#000000" stroke-width="0.398" fill="none" /><path id="813" transform="matrix(1 0 0 -1 0 841)" d="M352.71 265.528L352.71 279.077" stroke="#000000" stroke-width="0.398" fill="none" /><path id="819" transform="matrix(1 0 0 -1 0 841)" d="M506.796 265.528L506.796 279.077" stroke="#000000" stroke-width="0.398" fill="none" /><path id="820" transform="matrix(1 0 0 -1 0 841)" d="M85.039 265.329L506.995 265.329" stroke="#000000" stroke-width="0.398" fill="none" /><path id="821" transform="matrix(1 0 0 -1 0 841)" d="M85.239 251.58L85.239 265.129" stroke="#000000" stroke-width="0.398" fill="none" /><path id="848" transform="matrix(1 0 0 -1 0 841)" d="M352.71 251.58L352.71 265.129" stroke="#000000" stroke-width="0.398" fill="none" /><path id="853" transform="matrix(1 0 0 -1 0 841)" d="M506.796 251.58L506.796 265.129" stroke="#000000" stroke-width="0.398" fill="none" /><path id="854" transform="matrix(1 0 0 -1 0 841)" d="M85.039 251.381L506.995 251.381" stroke="#000000" stroke-width="0.398" fill="none" /><path id="855" transform="matrix(1 0 0 -1 0 841)" d="M85.239 237.632L85.239 251.181" stroke="#000000" stroke-width="0.398" fill="none" /><path id="885" transform="matrix(1 0 0 -1 0 841)" d="M352.71 237.632L352.71 251.181" stroke="#000000" stroke-width="0.398" fill="none" /><path id="890" transform="matrix(1 0 0 -1 0 841)" d="M506.796 237.632L506.796 251.181" stroke="#000000" stroke-width="0.398" fill="none" /><path id="891" transform="matrix(1 0 0 -1 0 841)" d="M85.039 237.433L506.995 237.433" stroke="#000000" stroke-width="0.398" fill="none" /><path id="892" transform="matrix(1 0 0 -1 0 841)" d="M85.239 223.685L85.239 237.234" stroke="#000000" stroke-width="0.398" fill="none" /><path id="912" transform="matrix(1 0 0 -1 0 841)" d="M352.71 223.685L352.71 237.234" stroke="#000000" stroke-width="0.398" fill="none" /><path id="919" transform="matrix(1 0 0 -1 0 841)" d="M506.796 223.685L506.796 237.234" stroke="#000000" stroke-width="0.398" fill="none" /><path id="920" transform="matrix(1 0 0 -1 0 841)" d="M85.039 223.486L506.995 223.486" stroke="#000000" stroke-width="0.398" fill="none" /><path id="921" transform="matrix(1 0 0 -1 0 841)" d="M85.239 209.737L85.239 223.286" stroke="#000000" stroke-width="0.398" fill="none" /><path id="941" transform="matrix(1 0 0 -1 0 841)" d="M352.71 209.737L352.71 223.286" stroke="#000000" stroke-width="0.398" fill="none" /><path id="948" transform="matrix(1 0 0 -1 0 841)" d="M506.796 209.737L506.796 223.286" stroke="#000000" stroke-width="0.398" fill="none" /><path id="949" transform="matrix(1 0 0 -1 0 841)" d="M85.039 209.538L506.995 209.538" stroke="#000000" stroke-width="0.398" fill="none" /><path id="950" transform="matrix(1 0 0 -1 0 841)" d="M85.239 195.789L85.239 209.338" stroke="#000000" stroke-width="0.398" fill="none" /><path id="958" transform="matrix(1 0 0 -1 0 841)" d="M352.71 195.789L352.71 209.338" stroke="#000000" stroke-width="0.398" fill="none" /><path id="964" transform="matrix(1 0 0 -1 0 841)" d="M506.796 195.789L506.796 209.338" stroke="#000000" stroke-width="0.398" fill="none" /><path id="965" transform="matrix(1 0 0 -1 0 841)" d="M85.039 195.59L506.995 195.59" stroke="#000000" stroke-width="0.398" fill="none" /><path id="966" transform="matrix(1 0 0 -1 0 841)" d="M85.239 181.842L85.239 195.391" stroke="#000000" stroke-width="0.398" fill="none" /><path id="973" transform="matrix(1 0 0 -1 0 841)" d="M352.71 181.842L352.71 195.391" stroke="#000000" stroke-width="0.398" fill="none" /><path id="979" transform="matrix(1 0 0 -1 0 841)" d="M506.796 181.842L506.796 195.391" stroke="#000000" stroke-width="0.398" fill="none" /><path id="980" transform="matrix(1 0 0 -1 0 841)" d="M85.039 181.643L506.995 181.643" stroke="#000000" stroke-width="0.398" fill="none" /><path id="981" transform="matrix(1 0 0 -1 0 841)" d="M85.239 167.894L85.239 181.443" stroke="#000000" stroke-width="0.398" fill="none" /><path id="991" transform="matrix(1 0 0 -1 0 841)" d="M352.71 167.894L352.71 181.443" stroke="#000000" stroke-width="0.398" fill="none" /><path id="997" transform="matrix(1 0 0 -1 0 841)" d="M506.796 167.894L506.796 181.443" stroke="#000000" stroke-width="0.398" fill="none" /><path id="998" transform="matrix(1 0 0 -1 0 841)" d="M85.039 167.695L506.995 167.695" stroke="#000000" stroke-width="0.398" fill="none" /><path id="999" transform="matrix(1 0 0 -1 0 841)" d="M85.239 153.946L85.239 167.495" stroke="#000000" stroke-width="0.398" fill="none" /><path id="1006" transform="matrix(1 0 0 -1 0 841)" d="M352.71 153.946L352.71 167.495" stroke="#000000" stroke-width="0.398" fill="none" /><path id="1013" transform="matrix(1 0 0 -1 0 841)" d="M506.796 153.946L506.796 167.495" stroke="#000000" stroke-width="0.398" fill="none" /><path id="1014" transform="matrix(1 0 0 -1 0 841)" d="M85.039 153.747L506.995 153.747" stroke="#000000" stroke-width="0.398" fill="none" /><path id="1015" transform="matrix(1 0 0 -1 0 841)" d="M85.239 139.999L85.239 153.548" stroke="#000000" stroke-width="0.398" fill="none" /><path id="1028" transform="matrix(1 0 0 -1 0 841)" d="M352.71 139.999L352.71 153.548" stroke="#000000" stroke-width="0.398" fill="none" /><path id="1032" transform="matrix(1 0 0 -1 0 841)" d="M506.796 139.999L506.796 153.548" stroke="#000000" stroke-width="0.398" fill="none" /><path id="1033" transform="matrix(1 0 0 -1 0 841)" d="M85.039 139.8L506.995 139.8" stroke="#000000" stroke-width="0.398" fill="none" /></g></g></svg>