<svg xmlns="http://www.w3.org/2000/svg" xmlns:xlink="http://www.w3.org/1999/xlink" id="body_172" preserveAspectRatio="xMinYMin meet" viewBox="0 0 793 1121"><defs><clipPath id="1"><path id="" clip-rule="evenodd" transform="matrix(1 0 0 1 0 0)" d="M0 841L0 -0.8900146L0 -0.8900146L595.276 -0.8900146L595.276 -0.8900146L595.276 841L595.276 841L0 841z" /></clipPath></defs><g transform="matrix(1.333333 0 0 1.333333 0 0)"><g clip-path="url(#1)"><g transform="matrix(0.7349401 0 0 0.7349399 0.199 -0.6912842)"><g transform="matrix(1 0 0 1 0 0)"><image x="0" y="0" xlink:href="img_236.png" width="810" height="427" /></g></g><path id="3" transform="matrix(1 0 0 -1 0 841)" d="M724.611 610.1811L100.9809 610.1811C 92.72734 610.1811 86.03673 603.4905 86.03673 595.2369L86.03673 595.2369L86.03673 578.3002C 86.03673 570.0466 92.72734 563.3561 100.9809 563.3561L100.9809 563.3561L724.611 563.3561C 732.8644 563.3561 739.5551 570.0466 739.5551 578.3002L739.5551 578.3002L739.5551 595.2369C 739.5551 603.4905 732.8644 610.1811 724.611 610.1811z" stroke="#F36619" stroke-width="1.99255" fill="#FFFFFF" fill-rule="nonzero" fill-opacity="0.4980392" /><path id="21" transform="matrix(1 0 0 -1 0 841)" d="M85.039 463.75L563.688 463.75" stroke="#000000" stroke-width="0.398" fill="none" /><path id="22" transform="matrix(1 0 0 -1 0 841)" d="M85.239 450.001L85.239 463.55" stroke="#000000" stroke-width="0.398" fill="none" /><path id="75" transform="matrix(1 0 0 -1 0 841)" d="M563.489 450.001L563.489 463.55" stroke="#000000" stroke-width="0.398" fill="none" /><path id="76" transform="matrix(1 0 0 -1 0 841)" d="M85.039 449.802L563.688 449.802" stroke="#000000" stroke-width="0.398" fill="none" /><path id="77" transform="matrix(1 0 0 -1 0 841)" d="M85.239 436.053L85.239 449.602" stroke="#000000" stroke-width="0.398" fill="none" /><path id="121" transform="matrix(1 0 0 -1 0 841)" d="M563.489 436.053L563.489 449.602" stroke="#000000" stroke-width="0.398" fill="none" /><path id="122" transform="matrix(1 0 0 -1 0 841)" d="M85.039 435.854L563.688 435.854" stroke="#000000" stroke-width="0.398" fill="none" /><path id="123" transform="matrix(1 0 0 -1 0 841)" d="M85.239 422.106L85.239 435.655" stroke="#000000" stroke-width="0.398" fill="none" /><path id="126" transform="matrix(1 0 0 -1 0 841)" d="M125.939 422.106L125.939 435.655" stroke="#000000" stroke-width="0.398" fill="none" /><path id="166" transform="matrix(1 0 0 -1 0 841)" d="M563.489 422.106L563.489 435.655" stroke="#000000" stroke-width="0.398" fill="none" /><path id="167" transform="matrix(1 0 0 -1 0 841)" d="M85.039 421.906L563.688 421.906" stroke="#000000" stroke-width="0.398" fill="none" /><path id="168" transform="matrix(1 0 0 -1 0 841)" d="M85.239 408.158L85.239 421.707" stroke="#000000" stroke-width="0.398" fill="none" /><path id="171" transform="matrix(1 0 0 -1 0 841)" d="M125.939 408.158L125.939 421.707" stroke="#000000" stroke-width="0.398" fill="none" /><path id="231" transform="matrix(1 0 0 -1 0 841)" d="M563.489 408.158L563.489 421.707" stroke="#000000" stroke-width="0.398" fill="none" /><path id="232" transform="matrix(1 0 0 -1 0 841)" d="M85.039 407.959L563.688 407.959" stroke="#000000" stroke-width="0.398" fill="none" /><path id="233" transform="matrix(1 0 0 -1 0 841)" d="M85.239 394.21L85.239 407.759" stroke="#000000" stroke-width="0.398" fill="none" /><path id="236" transform="matrix(1 0 0 -1 0 841)" d="M125.939 394.21L125.939 407.759" stroke="#000000" stroke-width="0.398" fill="none" /><path id="286" transform="matrix(1 0 0 -1 0 841)" d="M563.489 394.21L563.489 407.759" stroke="#000000" stroke-width="0.398" fill="none" /><path id="287" transform="matrix(1 0 0 -1 0 841)" d="M85.039 394.011L563.688 394.011" stroke="#000000" stroke-width="0.398" fill="none" /><path id="288" transform="matrix(1 0 0 -1 0 841)" d="M85.239 380.263L85.239 393.812" stroke="#000000" stroke-width="0.398" fill="none" /><path id="291" transform="matrix(1 0 0 -1 0 841)" d="M125.939 380.263L125.939 393.812" stroke="#000000" stroke-width="0.398" fill="none" /><path id="312" transform="matrix(1 0 0 -1 0 841)" d="M563.489 380.263L563.489 393.812" stroke="#000000" stroke-width="0.398" fill="none" /><path id="313" transform="matrix(1 0 0 -1 0 841)" d="M85.039 380.063L563.688 380.063" stroke="#000000" stroke-width="0.398" fill="none" /><path id="314" transform="matrix(1 0 0 -1 0 841)" d="M85.239 366.315L85.239 379.864" stroke="#000000" stroke-width="0.398" fill="none" /><path id="317" transform="matrix(1 0 0 -1 0 841)" d="M125.939 366.315L125.939 379.864" stroke="#000000" stroke-width="0.398" fill="none" /><path id="380" transform="matrix(1 0 0 -1 0 841)" d="M563.489 366.315L563.489 379.864" stroke="#000000" stroke-width="0.398" fill="none" /><path id="381" transform="matrix(1 0 0 -1 0 841)" d="M85.039 366.116L563.688 366.116" stroke="#000000" stroke-width="0.398" fill="none" /><path id="382" transform="matrix(1 0 0 -1 0 841)" d="M85.239 352.367L85.239 365.916" stroke="#000000" stroke-width="0.398" fill="none" /><path id="385" transform="matrix(1 0 0 -1 0 841)" d="M125.939 352.367L125.939 365.916" stroke="#000000" stroke-width="0.398" fill="none" /><path id="439" transform="matrix(1 0 0 -1 0 841)" d="M563.489 352.367L563.489 365.916" stroke="#000000" stroke-width="0.398" fill="none" /><path id="440" transform="matrix(1 0 0 -1 0 841)" d="M85.039 352.168L563.688 352.168" stroke="#000000" stroke-width="0.398" fill="none" /><path id="441" transform="matrix(1 0 0 -1 0 841)" d="M85.239 338.42L85.239 351.969" stroke="#000000" stroke-width="0.398" fill="none" /><path id="444" transform="matrix(1 0 0 -1 0 841)" d="M125.939 338.42L125.939 351.969" stroke="#000000" stroke-width="0.398" fill="none" /><path id="489" transform="matrix(1 0 0 -1 0 841)" d="M563.489 338.42L563.489 351.969" stroke="#000000" stroke-width="0.398" fill="none" /><path id="490" transform="matrix(1 0 0 -1 0 841)" d="M85.039 338.22L563.688 338.22" stroke="#000000" stroke-width="0.398" fill="none" /><path id="491" transform="matrix(1 0 0 -1 0 841)" d="M85.239 324.472L85.239 338.021" stroke="#000000" stroke-width="0.398" fill="none" /><path id="494" transform="matrix(1 0 0 -1 0 841)" d="M125.939 324.472L125.939 338.021" stroke="#000000" stroke-width="0.398" fill="none" /><path id="526" transform="matrix(1 0 0 -1 0 841)" d="M563.489 324.472L563.489 338.021" stroke="#000000" stroke-width="0.398" fill="none" /><path id="527" transform="matrix(1 0 0 -1 0 841)" d="M85.039 324.273L563.688 324.273" stroke="#000000" stroke-width="0.398" fill="none" /><path id="528" transform="matrix(1 0 0 -1 0 841)" d="M85.239 310.524L85.239 324.073" stroke="#000000" stroke-width="0.398" fill="none" /><path id="531" transform="matrix(1 0 0 -1 0 841)" d="M125.939 310.524L125.939 324.073" stroke="#000000" stroke-width="0.398" fill="none" /><path id="568" transform="matrix(1 0 0 -1 0 841)" d="M563.489 310.524L563.489 324.073" stroke="#000000" stroke-width="0.398" fill="none" /><path id="569" transform="matrix(1 0 0 -1 0 841)" d="M85.039 310.325L563.688 310.325" stroke="#000000" stroke-width="0.398" fill="none" /><path id="570" transform="matrix(1 0 0 -1 0 841)" d="M85.239 296.577L85.239 310.126" stroke="#000000" stroke-width="0.398" fill="none" /><path id="573" transform="matrix(1 0 0 -1 0 841)" d="M125.939 296.577L125.939 310.126" stroke="#000000" stroke-width="0.398" fill="none" /><path id="624" transform="matrix(1 0 0 -1 0 841)" d="M563.489 296.577L563.489 310.126" stroke="#000000" stroke-width="0.398" fill="none" /><path id="625" transform="matrix(1 0 0 -1 0 841)" d="M85.039 296.377L563.688 296.377" stroke="#000000" stroke-width="0.398" fill="none" /><path id="626" transform="matrix(1 0 0 -1 0 841)" d="M85.239 282.629L85.239 296.178" stroke="#000000" stroke-width="0.398" fill="none" /><path id="629" transform="matrix(1 0 0 -1 0 841)" d="M125.939 282.629L125.939 296.178" stroke="#000000" stroke-width="0.398" fill="none" /><path id="682" transform="matrix(1 0 0 -1 0 841)" d="M563.489 282.629L563.489 296.178" stroke="#000000" stroke-width="0.398" fill="none" /><path id="683" transform="matrix(1 0 0 -1 0 841)" d="M85.039 282.43L563.688 282.43" stroke="#000000" stroke-width="0.398" fill="none" /><path id="684" transform="matrix(1 0 0 -1 0 841)" d="M85.239 268.681L85.239 282.23" stroke="#000000" stroke-width="0.398" fill="none" /><path id="687" transform="matrix(1 0 0 -1 0 841)" d="M125.939 268.681L125.939 282.23" stroke="#000000" stroke-width="0.398" fill="none" /><path id="716" transform="matrix(1 0 0 -1 0 841)" d="M563.489 268.681L563.489 282.23" stroke="#000000" stroke-width="0.398" fill="none" /><path id="717" transform="matrix(1 0 0 -1 0 841)" d="M85.039 268.482L563.688 268.482" stroke="#000000" stroke-width="0.398" fill="none" /><path id="718" transform="matrix(1 0 0 -1 0 841)" d="M85.239 254.734L85.239 268.283" stroke="#000000" stroke-width="0.398" fill="none" /><path id="721" transform="matrix(1 0 0 -1 0 841)" d="M125.939 254.734L125.939 268.283" stroke="#000000" stroke-width="0.398" fill="none" /><path id="757" transform="matrix(1 0 0 -1 0 841)" d="M563.489 254.734L563.489 268.283" stroke="#000000" stroke-width="0.398" fill="none" /><path id="758" transform="matrix(1 0 0 -1 0 841)" d="M85.039 254.534L563.688 254.534" stroke="#000000" stroke-width="0.398" fill="none" /><path id="759" transform="matrix(1 0 0 -1 0 841)" d="M85.239 240.786L85.239 254.335" stroke="#000000" stroke-width="0.398" fill="none" /><path id="762" transform="matrix(1 0 0 -1 0 841)" d="M125.939 240.786L125.939 254.335" stroke="#000000" stroke-width="0.398" fill="none" /><path id="792" transform="matrix(1 0 0 -1 0 841)" d="M563.489 240.786L563.489 254.335" stroke="#000000" stroke-width="0.398" fill="none" /><path id="793" transform="matrix(1 0 0 -1 0 841)" d="M85.039 240.587L563.688 240.587" stroke="#000000" stroke-width="0.398" fill="none" /></g></g></svg>