<svg xmlns="http://www.w3.org/2000/svg" xmlns:xlink="http://www.w3.org/1999/xlink" id="body_343" preserveAspectRatio="xMinYMin meet" viewBox="0 0 793 1121"><defs><clipPath id="1"><path id="" clip-rule="evenodd" transform="matrix(1 0 0 1 0 0)" d="M0 841L0 -0.8900146L0 -0.8900146L595.276 -0.8900146L595.276 -0.8900146L595.276 841L595.276 841L0 841z" /></clipPath></defs><g transform="matrix(1.333333 0 0 1.333333 0 0)"><g clip-path="url(#1)"><path id="34" transform="matrix(1 0 0 -1 0 841)" d="M85.039 766.564L510.236 766.564" stroke="#000000" stroke-width="0.498" fill="none" /><path id="95" transform="matrix(1 0 0 -1 0 841)" d="M112.312 716.988L139.759 716.988" stroke="#000000" stroke-width="0.398" fill="none" /><path id="96" transform="matrix(1 0 0 -1 0 841)" d="M112.511 700.881L112.511 716.988" stroke="#000000" stroke-width="0.398" fill="none" /><path id="97" transform="matrix(1 0 0 -1 0 841)" d="M139.56 700.881L139.56 716.988" stroke="#000000" stroke-width="0.398" fill="none" /><path id="98" transform="matrix(1 0 0 -1 0 841)" d="M112.312 700.881L139.759 700.881" stroke="#000000" stroke-width="0.398" fill="none" /><path id="327" transform="matrix(1 0 0 -1 0 841)" d="M233.649 604.031L261.096 604.031" stroke="#000000" stroke-width="0.398" fill="none" /><path id="328" transform="matrix(1 0 0 -1 0 841)" d="M233.848 587.924L233.848 604.031" stroke="#000000" stroke-width="0.398" fill="none" /><path id="329" transform="matrix(1 0 0 -1 0 841)" d="M260.897 587.924L260.897 604.031" stroke="#000000" stroke-width="0.398" fill="none" /><path id="330" transform="matrix(1 0 0 -1 0 841)" d="M233.649 587.924L261.096 587.924" stroke="#000000" stroke-width="0.398" fill="none" /><path id="450" transform="matrix(1 0 0 -1 0 841)" d="M243.067 517.035L315.895 517.035" stroke="#000000" stroke-width="0.436" fill="none" /><path id="527" transform="matrix(1 0 0 -1 0 841)" d="M462.681 497.232L519.354 497.232" stroke="#000000" stroke-width="0.398" fill="none" /><path id="528" transform="matrix(1 0 0 -1 0 841)" d="M462.881 481.332L462.881 497.232" stroke="#000000" stroke-width="0.398" fill="none" /><path id="529" transform="matrix(1 0 0 -1 0 841)" d="M519.155 481.332L519.155 497.232" stroke="#000000" stroke-width="0.398" fill="none" /><path id="530" transform="matrix(1 0 0 -1 0 841)" d="M462.681 481.332L519.354 481.332" stroke="#000000" stroke-width="0.398" fill="none" /><path id="727" transform="matrix(1 0 0 -1 0 841)" d="M264.928 345.844L423.707 345.844" stroke="#000000" stroke-width="0.436" fill="none" /><path id="798" transform="matrix(1 0 0 -1 0 841)" d="M264.928 315.631L411.567 315.631" stroke="#000000" stroke-width="0.436" fill="none" /><path id="804" transform="matrix(1 0 0 -1 0 841)" d="M266.123 297.826L288.977 297.826" stroke="#000000" stroke-width="0.436" fill="none" /><path id="819" transform="matrix(1 0 0 -1 0 841)" d="M299.853 297.826L329.743 297.826" stroke="#000000" stroke-width="0.436" fill="none" /><path id="830" transform="matrix(1 0 0 -1 0 841)" d="M340.619 297.826L374.502 297.826" stroke="#000000" stroke-width="0.436" fill="none" /><path id="846" transform="matrix(1 0 0 -1 0 841)" d="M385.378 297.826L410.37 297.826" stroke="#000000" stroke-width="0.436" fill="none" /><path id="860" transform="matrix(1 0 0 -1 0 841)" d="M426.086 323.603L466.329 323.603" stroke="#000000" stroke-width="0.398" fill="none" /><path id="861" transform="matrix(1 0 0 -1 0 841)" d="M426.286 309.547L426.286 323.603" stroke="#000000" stroke-width="0.398" fill="none" /><path id="862" transform="matrix(1 0 0 -1 0 841)" d="M466.13 309.547L466.13 323.603" stroke="#000000" stroke-width="0.398" fill="none" /><path id="863" transform="matrix(1 0 0 -1 0 841)" d="M426.086 309.547L466.329 309.547" stroke="#000000" stroke-width="0.398" fill="none" /><path id="1034" transform="matrix(1 0 0 -1 0 841)" d="M264.928 208.931L375.533 208.931" stroke="#000000" stroke-width="0.436" fill="none" /><path id="1166" transform="matrix(1 0 0 -1 0 841)" d="M350.384 159.583L366.704 159.583" stroke="#000000" stroke-width="0.436" fill="none" /><path id="1174" transform="matrix(1 0 0 -1 0 841)" d="M377.58 159.583L408.027 159.583" stroke="#000000" stroke-width="0.436" fill="none" /><path id="1193" transform="matrix(1 0 0 -1 0 841)" d="M429.059 167.555L496.991 167.555" stroke="#000000" stroke-width="0.398" fill="none" /><path id="1194" transform="matrix(1 0 0 -1 0 841)" d="M429.259 151.443L429.259 167.555" stroke="#000000" stroke-width="0.398" fill="none" /><path id="1195" transform="matrix(1 0 0 -1 0 841)" d="M496.792 151.443L496.792 167.555" stroke="#000000" stroke-width="0.398" fill="none" /><path id="1196" transform="matrix(1 0 0 -1 0 841)" d="M429.059 151.443L496.991 151.443" stroke="#000000" stroke-width="0.398" fill="none" /></g></g></svg>