<svg xmlns="http://www.w3.org/2000/svg" xmlns:xlink="http://www.w3.org/1999/xlink" id="body_296" preserveAspectRatio="xMinYMin meet" viewBox="0 0 793 1121"><defs><clipPath id="1"><path id="" clip-rule="evenodd" transform="matrix(1 0 0 1 0 0)" d="M0 841L0 -0.8900146L0 -0.8900146L595.276 -0.8900146L595.276 -0.8900146L595.276 841L595.276 841L0 841z" /></clipPath></defs><g transform="matrix(1.333333 0 0 1.333333 0 0)"><g clip-path="url(#1)"><path id="23" transform="matrix(1 0 0 -1 0 841)" d="M85.039 766.564L510.236 766.564" stroke="#000000" stroke-width="0.498" fill="none" /><path id="1481" transform="matrix(1 0 0 -1 0 841)" d="M166.53 349.301L220.017 349.301" stroke="#000000" stroke-width="0.436" fill="none" /><path id="1497" transform="matrix(1 0 0 -1 0 841)" d="M235.732 349.301L271.492 349.301" stroke="#000000" stroke-width="0.436" fill="none" /><path id="1622" transform="matrix(1 0 0 -1 0 841)" d="M163.802 281.483L217.289 281.483" stroke="#000000" stroke-width="0.436" fill="none" /><path id="1648" transform="matrix(1 0 0 -1 0 841)" d="M302.694 281.483L356.181 281.483" stroke="#000000" stroke-width="0.436" fill="none" /><path id="1671" transform="matrix(1 0 0 -1 0 841)" d="M449.921 281.483L466.285 281.483" stroke="#000000" stroke-width="0.436" fill="none" /><path id="1679" transform="matrix(1 0 0 -1 0 841)" d="M480.804 289.395L505.153 289.395" stroke="#000000" stroke-width="0.398" fill="none" /><path id="1680" transform="matrix(1 0 0 -1 0 841)" d="M481.004 275.399L481.004 289.395" stroke="#000000" stroke-width="0.398" fill="none" /><path id="1681" transform="matrix(1 0 0 -1 0 841)" d="M504.954 275.399L504.954 289.395" stroke="#000000" stroke-width="0.398" fill="none" /><path id="1682" transform="matrix(1 0 0 -1 0 841)" d="M480.804 275.399L505.153 275.399" stroke="#000000" stroke-width="0.398" fill="none" /><path id="1917" transform="matrix(1 0 0 -1 0 841)" d="M163.802 195.543L217.289 195.543" stroke="#000000" stroke-width="0.436" fill="none" /><path id="1933" transform="matrix(1 0 0 -1 0 841)" d="M233.005 195.543L268.765 195.543" stroke="#000000" stroke-width="0.436" fill="none" /></g></g></svg>