<svg xmlns="http://www.w3.org/2000/svg" xmlns:xlink="http://www.w3.org/1999/xlink" id="body_205" preserveAspectRatio="xMinYMin meet" viewBox="0 0 793 1121"><defs><clipPath id="1"><path id="" clip-rule="evenodd" transform="matrix(1 0 0 1 0 0)" d="M0 841L0 -0.8900146L0 -0.8900146L595.276 -0.8900146L595.276 -0.8900146L595.276 841L595.276 841L0 841z" /></clipPath></defs><g transform="matrix(1.333333 0 0 1.333333 0 0)"><g clip-path="url(#1)"><path id="16" transform="matrix(1 0 0 -1 0 841)" d="M85.039 766.564L510.236 766.564" stroke="#000000" stroke-width="0.498" fill="none" /><path id="311" transform="matrix(1 0 0 -1 0 841)" d="M85.039 650.405L551.148 650.405" stroke="#000000" stroke-width="0.398" fill="none" /><path id="328" transform="matrix(1 0 0 -1 0 841)" d="M450.721 636.657L450.721 650.206" stroke="#000000" stroke-width="0.398" fill="none" /><path id="342" transform="matrix(1 0 0 -1 0 841)" d="M550.949 636.657L550.949 650.206" stroke="#000000" stroke-width="0.398" fill="none" /><path id="343" transform="matrix(1 0 0 -1 0 841)" d="M85.039 636.457L551.148 636.457" stroke="#000000" stroke-width="0.398" fill="none" /><path id="344" transform="matrix(1 0 0 -1 0 841)" d="M85.239 484.533L85.239 636.258" stroke="#000000" stroke-width="0.398" fill="none" /><g transform="matrix(0.1875 0 0 0.1875 91.415 255.423)"><g transform="matrix(1 0 0 1 0 0)"><image x="0" y="0" xlink:href="img_304.png" width="574" height="354" /></g></g><path id="594" transform="matrix(1 0 0 -1 0 841)" d="M350.494 484.533L350.494 636.258" stroke="#000000" stroke-width="0.398" fill="none" /><path id="703" transform="matrix(1 0 0 -1 0 841)" d="M450.721 484.533L450.721 636.258" stroke="#000000" stroke-width="0.398" fill="none" /><path id="950" transform="matrix(1 0 0 -1 0 841)" d="M550.949 484.533L550.949 636.258" stroke="#000000" stroke-width="0.398" fill="none" /><path id="951" transform="matrix(1 0 0 -1 0 841)" d="M85.039 484.333L551.148 484.333" stroke="#000000" stroke-width="0.398" fill="none" /><path id="952" transform="matrix(1 0 0 -1 0 841)" d="M85.239 392.991L85.239 484.134" stroke="#000000" stroke-width="0.398" fill="none" /><g transform="matrix(0.18 0 0 0.18 91.415 372.183)"><g transform="matrix(1 0 0 1 0 0)"><image x="0" y="0" xlink:href="img_305.png" width="597" height="381" /></g></g><path id="1079" transform="matrix(1 0 0 -1 0 841)" d="M350.494 392.991L350.494 484.134" stroke="#000000" stroke-width="0.398" fill="none" /><path id="1185" transform="matrix(1 0 0 -1 0 841)" d="M450.721 392.991L450.721 484.134" stroke="#000000" stroke-width="0.398" fill="none" /><path id="1307" transform="matrix(1 0 0 -1 0 841)" d="M550.949 392.991L550.949 484.134" stroke="#000000" stroke-width="0.398" fill="none" /><path id="1308" transform="matrix(1 0 0 -1 0 841)" d="M85.039 392.792L551.148 392.792" stroke="#000000" stroke-width="0.398" fill="none" /><path id="1309" transform="matrix(1 0 0 -1 0 841)" d="M85.239 288.19L85.239 392.593" stroke="#000000" stroke-width="0.398" fill="none" /><g transform="matrix(0.1125 0 0 0.1125 91.415 480.2865)"><g transform="matrix(1 0 0 1 0 0)"><image x="0" y="0" xlink:href="img_306.png" width="1066" height="433" /></g></g><path id="1557" transform="matrix(1 0 0 -1 0 841)" d="M350.494 288.19L350.494 392.593" stroke="#000000" stroke-width="0.398" fill="none" /><path id="1704" transform="matrix(1 0 0 -1 0 841)" d="M450.721 288.19L450.721 392.593" stroke="#000000" stroke-width="0.398" fill="none" /><path id="1779" transform="matrix(1 0 0 -1 0 841)" d="M550.949 288.19L550.949 392.593" stroke="#000000" stroke-width="0.398" fill="none" /><path id="1780" transform="matrix(1 0 0 -1 0 841)" d="M85.039 287.99L551.148 287.99" stroke="#000000" stroke-width="0.398" fill="none" /><path id="1781" transform="matrix(1 0 0 -1 0 841)" d="M85.239 173.924L85.239 287.791" stroke="#000000" stroke-width="0.398" fill="none" /><g transform="matrix(0.2025 0 0 0.2025 91.415 565.781)"><g transform="matrix(1 0 0 1 0 0)"><image x="0" y="0" xlink:href="img_307.png" width="656" height="478" /></g></g><path id="2069" transform="matrix(1 0 0 -1 0 841)" d="M350.494 173.924L350.494 287.791" stroke="#000000" stroke-width="0.398" fill="none" /><path id="2243" transform="matrix(1 0 0 -1 0 841)" d="M450.721 173.924L450.721 287.791" stroke="#000000" stroke-width="0.398" fill="none" /><path id="2423" transform="matrix(1 0 0 -1 0 841)" d="M550.949 173.924L550.949 287.791" stroke="#000000" stroke-width="0.398" fill="none" /><path id="2424" transform="matrix(1 0 0 -1 0 841)" d="M85.039 173.724L551.148 173.724" stroke="#000000" stroke-width="0.398" fill="none" /></g></g></svg>