<svg xmlns="http://www.w3.org/2000/svg" xmlns:xlink="http://www.w3.org/1999/xlink" id="body_308" preserveAspectRatio="xMinYMin meet" viewBox="0 0 793 1121"><defs><clipPath id="1"><path id="" clip-rule="evenodd" transform="matrix(1 0 0 1 0 0)" d="M0 841L0 -0.8900146L0 -0.8900146L595.276 -0.8900146L595.276 -0.8900146L595.276 841L595.276 841L0 841z" /></clipPath></defs><g transform="matrix(1.333333 0 0 1.333333 0 0)"><g clip-path="url(#1)"><path id="23" transform="matrix(1 0 0 -1 0 841)" d="M85.039 766.564L510.236 766.564" stroke="#000000" stroke-width="0.498" fill="none" /><path id="566" transform="matrix(1 0 0 -1 0 841)" d="M307.595 577.265L466.374 577.265" stroke="#000000" stroke-width="0.436" fill="none" /><path id="977" transform="matrix(1 0 0 -1 0 841)" d="M209.247 442.021L300.501 442.021" stroke="#000000" stroke-width="0.436" fill="none" /><path id="1001" transform="matrix(1 0 0 -1 0 841)" d="M316.216 442.021L369.541 442.021" stroke="#000000" stroke-width="0.436" fill="none" /><path id="1018" transform="matrix(1 0 0 -1 0 841)" d="M384.061 449.933L413.854 449.933" stroke="#000000" stroke-width="0.398" fill="none" /><path id="1019" transform="matrix(1 0 0 -1 0 841)" d="M384.26 436.106L384.26 449.933" stroke="#000000" stroke-width="0.398" fill="none" /><path id="1020" transform="matrix(1 0 0 -1 0 841)" d="M413.654 436.106L413.654 449.933" stroke="#000000" stroke-width="0.398" fill="none" /><path id="1021" transform="matrix(1 0 0 -1 0 841)" d="M384.061 436.106L413.854 436.106" stroke="#000000" stroke-width="0.398" fill="none" /><path id="1203" transform="matrix(1 0 0 -1 0 841)" d="M208.037 360.375L299.291 360.375" stroke="#000000" stroke-width="0.436" fill="none" /><path id="1256" transform="matrix(1 0 0 -1 0 841)" d="M313.795 360.375L517.458 360.375" stroke="#000000" stroke-width="0.436" fill="none" /><path id="1303" transform="matrix(1 0 0 -1 0 841)" d="M282.181 328.603L316.064 328.603" stroke="#000000" stroke-width="0.436" fill="none" /><path id="1307" transform="matrix(1 0 0 -1 0 841)" d="M193.514 314.585L317.26 314.585" stroke="#000000" stroke-width="0.436" fill="none" /><path id="1320" transform="matrix(1 0 0 -1 0 841)" d="M201.424 300.889L262.571 300.889" stroke="#000000" stroke-width="0.436" fill="none" /><path id="1328" transform="matrix(1 0 0 -1 0 841)" d="M273.448 300.889L309.35 300.889" stroke="#000000" stroke-width="0.436" fill="none" /><path id="1343" transform="matrix(1 0 0 -1 0 841)" d="M331.78 322.557L372.023 322.557" stroke="#000000" stroke-width="0.398" fill="none" /><path id="1344" transform="matrix(1 0 0 -1 0 841)" d="M331.979 308.501L331.979 322.557" stroke="#000000" stroke-width="0.398" fill="none" /><path id="1345" transform="matrix(1 0 0 -1 0 841)" d="M371.824 308.501L371.824 322.557" stroke="#000000" stroke-width="0.398" fill="none" /><path id="1346" transform="matrix(1 0 0 -1 0 841)" d="M331.78 308.501L372.023 308.501" stroke="#000000" stroke-width="0.398" fill="none" /><path id="1573" transform="matrix(1 0 0 -1 0 841)" d="M292.819 201.223L310.568 201.223" stroke="#000000" stroke-width="0.436" fill="none" /><path id="1605" transform="matrix(1 0 0 -1 0 841)" d="M332.796 201.223L472.048 201.223" stroke="#000000" stroke-width="0.436" fill="none" /></g></g></svg>