<svg xmlns="http://www.w3.org/2000/svg" xmlns:xlink="http://www.w3.org/1999/xlink" id="body_247" preserveAspectRatio="xMinYMin meet" viewBox="0 0 793 1121"><defs><clipPath id="1"><path id="" clip-rule="evenodd" transform="matrix(1 0 0 1 0 0)" d="M0 841L0 -0.8900146L0 -0.8900146L595.276 -0.8900146L595.276 -0.8900146L595.276 841L595.276 841L0 841z" /></clipPath></defs><g transform="matrix(1.333333 0 0 1.333333 0 0)"><g clip-path="url(#1)"><path id="23" transform="matrix(1 0 0 -1 0 841)" d="M85.039 766.564L510.236 766.564" stroke="#000000" stroke-width="0.498" fill="none" /><path id="130" transform="matrix(1 0 0 -1 0 841)" d="M137.508 713.641L148.417 713.641" stroke="#000000" stroke-width="0.436" fill="none" /><path id="135" transform="matrix(1 0 0 -1 0 841)" d="M169.587 713.641L175.042 713.641" stroke="#000000" stroke-width="0.436" fill="none" /><path id="336" transform="matrix(1 0 0 -1 0 841)" d="M155.708 622.066L161.163 622.066" stroke="#000000" stroke-width="0.436" fill="none" /><path id="340" transform="matrix(1 0 0 -1 0 841)" d="M118.689 593.233L124.144 593.233" stroke="#000000" stroke-width="0.436" fill="none" /><path id="348" transform="matrix(1 0 0 -1 0 841)" d="M139.86 593.233L176.215 593.233" stroke="#000000" stroke-width="0.436" fill="none" /><path id="354" transform="matrix(1 0 0 -1 0 841)" d="M191.93 593.233L214.346 593.233" stroke="#000000" stroke-width="0.436" fill="none" /><path id="358" transform="matrix(1 0 0 -1 0 841)" d="M230.061 593.233L235.516 593.233" stroke="#000000" stroke-width="0.436" fill="none" /></g></g></svg>