<svg xmlns="http://www.w3.org/2000/svg" xmlns:xlink="http://www.w3.org/1999/xlink" id="body_283" preserveAspectRatio="xMinYMin meet" viewBox="0 0 793 1121"><defs><clipPath id="1"><path id="" clip-rule="evenodd" transform="matrix(1 0 0 1 0 0)" d="M0 841L0 -0.8900146L0 -0.8900146L595.276 -0.8900146L595.276 -0.8900146L595.276 841L595.276 841L0 841z" /></clipPath></defs><g transform="matrix(1.333333 0 0 1.333333 0 0)"><g clip-path="url(#1)"><path id="16" transform="matrix(1 0 0 -1 0 841)" d="M85.039 766.564L510.236 766.564" stroke="#000000" stroke-width="0.498" fill="none" /><path id="217" transform="matrix(1 0 0 -1 0 841)" d="M113.508 631.134L180.11 631.134" stroke="#000000" stroke-width="0.436" fill="none" /><path id="225" transform="matrix(1 0 0 -1 0 841)" d="M190.985 631.134L234.621 631.134" stroke="#000000" stroke-width="0.436" fill="none" /><path id="241" transform="matrix(1 0 0 -1 0 841)" d="M280.109 631.134L356.95 631.134" stroke="#000000" stroke-width="0.436" fill="none" /><path id="268" transform="matrix(1 0 0 -1 0 841)" d="M371.47 639.046L478.863 639.046" stroke="#000000" stroke-width="0.398" fill="none" /><path id="269" transform="matrix(1 0 0 -1 0 841)" d="M371.67 622.994L371.67 639.046" stroke="#000000" stroke-width="0.398" fill="none" /><path id="270" transform="matrix(1 0 0 -1 0 841)" d="M478.664 622.994L478.664 639.046" stroke="#000000" stroke-width="0.398" fill="none" /><path id="271" transform="matrix(1 0 0 -1 0 841)" d="M371.47 622.994L478.863 622.994" stroke="#000000" stroke-width="0.398" fill="none" /><path id="312" transform="matrix(1 0 0 -1 0 841)" d="M173.414 572.107L192.799 572.107" stroke="#000000" stroke-width="0.436" fill="none" /><path id="332" transform="matrix(1 0 0 -1 0 841)" d="M207.319 580.079L308.298 580.079" stroke="#000000" stroke-width="0.398" fill="none" /><path id="333" transform="matrix(1 0 0 -1 0 841)" d="M207.518 563.967L207.518 580.079" stroke="#000000" stroke-width="0.398" fill="none" /><path id="334" transform="matrix(1 0 0 -1 0 841)" d="M308.098 563.967L308.098 580.079" stroke="#000000" stroke-width="0.398" fill="none" /><path id="335" transform="matrix(1 0 0 -1 0 841)" d="M207.319 563.967L308.298 563.967" stroke="#000000" stroke-width="0.398" fill="none" /><path id="480" transform="matrix(1 0 0 -1 0 841)" d="M186.124 476.015L257.511 476.015" stroke="#000000" stroke-width="0.436" fill="none" /><g transform="matrix(0.06 0 0 0.06 112.312 389.811)"><g transform="matrix(1 0 0 1 0 0)"><image x="0" y="0" xlink:href="img_421.png" width="3009" height="713" /></g></g><path id="631" transform="matrix(1 0 0 -1 0 841)" d="M158.147 330.947L325.891 330.947" stroke="#000000" stroke-width="0.436" fill="none" /><path id="666" transform="matrix(1 0 0 -1 0 841)" d="M341.607 330.947L383.408 330.947" stroke="#000000" stroke-width="0.436" fill="none" /><path id="682" transform="matrix(1 0 0 -1 0 841)" d="M397.928 338.706L439.001 338.706" stroke="#000000" stroke-width="0.398" fill="none" /><path id="683" transform="matrix(1 0 0 -1 0 841)" d="M398.128 322.806L398.128 338.706" stroke="#000000" stroke-width="0.398" fill="none" /><path id="684" transform="matrix(1 0 0 -1 0 841)" d="M438.802 322.806L438.802 338.706" stroke="#000000" stroke-width="0.398" fill="none" /><path id="685" transform="matrix(1 0 0 -1 0 841)" d="M397.928 322.806L439.001 322.806" stroke="#000000" stroke-width="0.398" fill="none" /></g></g></svg>