<svg xmlns="http://www.w3.org/2000/svg" xmlns:xlink="http://www.w3.org/1999/xlink" id="body_80" preserveAspectRatio="xMinYMin meet" viewBox="0 0 793 1121"><defs><clipPath id="1"><path id="" clip-rule="evenodd" transform="matrix(1 0 0 1 0 0)" d="M0 841L0 -0.8900146L0 -0.8900146L595.276 -0.8900146L595.276 -0.8900146L595.276 841L595.276 841L0 841z" /></clipPath></defs><g transform="matrix(1.333333 0 0 1.333333 0 0)"><g clip-path="url(#1)"><path id="36" transform="matrix(1 0 0 -1 0 841)" d="M85.039 766.564L510.236 766.564" stroke="#000000" stroke-width="0.498" fill="none" /><path id="37" transform="matrix(1 0 0 -1 0 841)" d="M85.039 756.651L563.688 756.651" stroke="#000000" stroke-width="0.398" fill="none" /><path id="38" transform="matrix(1 0 0 -1 0 841)" d="M85.239 742.903L85.239 756.452" stroke="#000000" stroke-width="0.398" fill="none" /><path id="91" transform="matrix(1 0 0 -1 0 841)" d="M563.489 742.903L563.489 756.452" stroke="#000000" stroke-width="0.398" fill="none" /><path id="92" transform="matrix(1 0 0 -1 0 841)" d="M85.039 742.703L563.688 742.703" stroke="#000000" stroke-width="0.398" fill="none" /><path id="93" transform="matrix(1 0 0 -1 0 841)" d="M85.239 728.955L85.239 742.504" stroke="#000000" stroke-width="0.398" fill="none" /><path id="148" transform="matrix(1 0 0 -1 0 841)" d="M563.489 728.955L563.489 742.504" stroke="#000000" stroke-width="0.398" fill="none" /><path id="149" transform="matrix(1 0 0 -1 0 841)" d="M85.039 728.756L563.688 728.756" stroke="#000000" stroke-width="0.398" fill="none" /><path id="150" transform="matrix(1 0 0 -1 0 841)" d="M85.239 715.007L85.239 728.556" stroke="#000000" stroke-width="0.398" fill="none" /><path id="153" transform="matrix(1 0 0 -1 0 841)" d="M125.939 715.007L125.939 728.556" stroke="#000000" stroke-width="0.398" fill="none" /><path id="199" transform="matrix(1 0 0 -1 0 841)" d="M563.489 715.007L563.489 728.556" stroke="#000000" stroke-width="0.398" fill="none" /><path id="200" transform="matrix(1 0 0 -1 0 841)" d="M85.039 714.808L563.688 714.808" stroke="#000000" stroke-width="0.398" fill="none" /><path id="201" transform="matrix(1 0 0 -1 0 841)" d="M85.239 701.06L85.239 714.609" stroke="#000000" stroke-width="0.398" fill="none" /><path id="204" transform="matrix(1 0 0 -1 0 841)" d="M125.939 701.06L125.939 714.609" stroke="#000000" stroke-width="0.398" fill="none" /><path id="258" transform="matrix(1 0 0 -1 0 841)" d="M563.489 701.06L563.489 714.609" stroke="#000000" stroke-width="0.398" fill="none" /><path id="259" transform="matrix(1 0 0 -1 0 841)" d="M85.039 700.86L563.688 700.86" stroke="#000000" stroke-width="0.398" fill="none" /><path id="260" transform="matrix(1 0 0 -1 0 841)" d="M85.239 687.112L85.239 700.661" stroke="#000000" stroke-width="0.398" fill="none" /><path id="263" transform="matrix(1 0 0 -1 0 841)" d="M125.939 687.112L125.939 700.661" stroke="#000000" stroke-width="0.398" fill="none" /><path id="296" transform="matrix(1 0 0 -1 0 841)" d="M563.489 687.112L563.489 700.661" stroke="#000000" stroke-width="0.398" fill="none" /><path id="297" transform="matrix(1 0 0 -1 0 841)" d="M85.039 686.913L563.688 686.913" stroke="#000000" stroke-width="0.398" fill="none" /><path id="298" transform="matrix(1 0 0 -1 0 841)" d="M85.239 673.164L85.239 686.713" stroke="#000000" stroke-width="0.398" fill="none" /><path id="301" transform="matrix(1 0 0 -1 0 841)" d="M125.939 673.164L125.939 686.713" stroke="#000000" stroke-width="0.398" fill="none" /><path id="344" transform="matrix(1 0 0 -1 0 841)" d="M563.489 673.164L563.489 686.713" stroke="#000000" stroke-width="0.398" fill="none" /><path id="345" transform="matrix(1 0 0 -1 0 841)" d="M85.039 672.965L563.688 672.965" stroke="#000000" stroke-width="0.398" fill="none" /><path id="346" transform="matrix(1 0 0 -1 0 841)" d="M85.239 645.667L85.239 672.765" stroke="#000000" stroke-width="0.398" fill="none" /><path id="349" transform="matrix(1 0 0 -1 0 841)" d="M125.939 645.667L125.939 672.765" stroke="#000000" stroke-width="0.398" fill="none" /><path id="453" transform="matrix(1 0 0 -1 0 841)" d="M563.489 645.667L563.489 672.765" stroke="#000000" stroke-width="0.398" fill="none" /><path id="454" transform="matrix(1 0 0 -1 0 841)" d="M85.039 645.468L563.688 645.468" stroke="#000000" stroke-width="0.398" fill="none" /><path id="455" transform="matrix(1 0 0 -1 0 841)" d="M85.239 631.72L85.239 645.269" stroke="#000000" stroke-width="0.398" fill="none" /><path id="458" transform="matrix(1 0 0 -1 0 841)" d="M125.939 631.72L125.939 645.269" stroke="#000000" stroke-width="0.398" fill="none" /><path id="496" transform="matrix(1 0 0 -1 0 841)" d="M563.489 631.72L563.489 645.269" stroke="#000000" stroke-width="0.398" fill="none" /><path id="497" transform="matrix(1 0 0 -1 0 841)" d="M85.039 631.521L563.688 631.521" stroke="#000000" stroke-width="0.398" fill="none" /><path id="498" transform="matrix(1 0 0 -1 0 841)" d="M85.239 604.223L85.239 631.321" stroke="#000000" stroke-width="0.398" fill="none" /><path id="501" transform="matrix(1 0 0 -1 0 841)" d="M125.939 604.223L125.939 631.321" stroke="#000000" stroke-width="0.398" fill="none" /><path id="606" transform="matrix(1 0 0 -1 0 841)" d="M563.489 604.223L563.489 631.321" stroke="#000000" stroke-width="0.398" fill="none" /><path id="607" transform="matrix(1 0 0 -1 0 841)" d="M85.039 604.024L563.688 604.024" stroke="#000000" stroke-width="0.398" fill="none" /><path id="608" transform="matrix(1 0 0 -1 0 841)" d="M85.239 590.275L85.239 603.824" stroke="#000000" stroke-width="0.398" fill="none" /><path id="649" transform="matrix(1 0 0 -1 0 841)" d="M563.489 590.275L563.489 603.824" stroke="#000000" stroke-width="0.398" fill="none" /><path id="650" transform="matrix(1 0 0 -1 0 841)" d="M85.039 590.076L563.688 590.076" stroke="#000000" stroke-width="0.398" fill="none" /><path id="651" transform="matrix(1 0 0 -1 0 841)" d="M85.239 576.328L85.239 589.877" stroke="#000000" stroke-width="0.398" fill="none" /><path id="654" transform="matrix(1 0 0 -1 0 841)" d="M125.939 576.328L125.939 589.877" stroke="#000000" stroke-width="0.398" fill="none" /><path id="698" transform="matrix(1 0 0 -1 0 841)" d="M563.489 576.328L563.489 589.877" stroke="#000000" stroke-width="0.398" fill="none" /><path id="699" transform="matrix(1 0 0 -1 0 841)" d="M85.039 576.128L563.688 576.128" stroke="#000000" stroke-width="0.398" fill="none" /><path id="700" transform="matrix(1 0 0 -1 0 841)" d="M85.239 562.38L85.239 575.929" stroke="#000000" stroke-width="0.398" fill="none" /><path id="703" transform="matrix(1 0 0 -1 0 841)" d="M125.939 562.38L125.939 575.929" stroke="#000000" stroke-width="0.398" fill="none" /><path id="742" transform="matrix(1 0 0 -1 0 841)" d="M563.489 562.38L563.489 575.929" stroke="#000000" stroke-width="0.398" fill="none" /><path id="743" transform="matrix(1 0 0 -1 0 841)" d="M85.039 562.181L563.688 562.181" stroke="#000000" stroke-width="0.398" fill="none" /><path id="744" transform="matrix(1 0 0 -1 0 841)" d="M85.239 548.432L85.239 561.981" stroke="#000000" stroke-width="0.398" fill="none" /><path id="747" transform="matrix(1 0 0 -1 0 841)" d="M125.939 548.432L125.939 561.981" stroke="#000000" stroke-width="0.398" fill="none" /><path id="806" transform="matrix(1 0 0 -1 0 841)" d="M563.489 548.432L563.489 561.981" stroke="#000000" stroke-width="0.398" fill="none" /><path id="807" transform="matrix(1 0 0 -1 0 841)" d="M85.039 548.233L563.688 548.233" stroke="#000000" stroke-width="0.398" fill="none" /><path id="808" transform="matrix(1 0 0 -1 0 841)" d="M85.239 534.484L85.239 548.033" stroke="#000000" stroke-width="0.398" fill="none" /><path id="811" transform="matrix(1 0 0 -1 0 841)" d="M125.939 534.484L125.939 548.033" stroke="#000000" stroke-width="0.398" fill="none" /><path id="847" transform="matrix(1 0 0 -1 0 841)" d="M563.489 534.484L563.489 548.033" stroke="#000000" stroke-width="0.398" fill="none" /><path id="848" transform="matrix(1 0 0 -1 0 841)" d="M85.039 534.285L563.688 534.285" stroke="#000000" stroke-width="0.398" fill="none" /><path id="849" transform="matrix(1 0 0 -1 0 841)" d="M85.239 520.537L85.239 534.086" stroke="#000000" stroke-width="0.398" fill="none" /><path id="852" transform="matrix(1 0 0 -1 0 841)" d="M125.939 520.537L125.939 534.086" stroke="#000000" stroke-width="0.398" fill="none" /><path id="896" transform="matrix(1 0 0 -1 0 841)" d="M563.489 520.537L563.489 534.086" stroke="#000000" stroke-width="0.398" fill="none" /><path id="897" transform="matrix(1 0 0 -1 0 841)" d="M85.039 520.338L563.688 520.338" stroke="#000000" stroke-width="0.398" fill="none" /><path id="898" transform="matrix(1 0 0 -1 0 841)" d="M85.239 506.589L85.239 520.138" stroke="#000000" stroke-width="0.398" fill="none" /><path id="901" transform="matrix(1 0 0 -1 0 841)" d="M125.939 506.589L125.939 520.138" stroke="#000000" stroke-width="0.398" fill="none" /><path id="925" transform="matrix(1 0 0 -1 0 841)" d="M563.489 506.589L563.489 520.138" stroke="#000000" stroke-width="0.398" fill="none" /><path id="926" transform="matrix(1 0 0 -1 0 841)" d="M85.039 506.39L563.688 506.39" stroke="#000000" stroke-width="0.398" fill="none" /><path id="927" transform="matrix(1 0 0 -1 0 841)" d="M85.239 492.641L85.239 506.19" stroke="#000000" stroke-width="0.398" fill="none" /><path id="930" transform="matrix(1 0 0 -1 0 841)" d="M125.939 492.641L125.939 506.19" stroke="#000000" stroke-width="0.398" fill="none" /><path id="974" transform="matrix(1 0 0 -1 0 841)" d="M563.489 492.641L563.489 506.19" stroke="#000000" stroke-width="0.398" fill="none" /><path id="975" transform="matrix(1 0 0 -1 0 841)" d="M85.039 492.442L563.688 492.442" stroke="#000000" stroke-width="0.398" fill="none" /><path id="976" transform="matrix(1 0 0 -1 0 841)" d="M85.239 478.694L85.239 492.243" stroke="#000000" stroke-width="0.398" fill="none" /><path id="979" transform="matrix(1 0 0 -1 0 841)" d="M125.939 478.694L125.939 492.243" stroke="#000000" stroke-width="0.398" fill="none" /><path id="1032" transform="matrix(1 0 0 -1 0 841)" d="M563.489 478.694L563.489 492.243" stroke="#000000" stroke-width="0.398" fill="none" /><path id="1033" transform="matrix(1 0 0 -1 0 841)" d="M85.039 478.494L563.688 478.494" stroke="#000000" stroke-width="0.398" fill="none" /><path id="1034" transform="matrix(1 0 0 -1 0 841)" d="M85.239 464.746L85.239 478.295" stroke="#000000" stroke-width="0.398" fill="none" /><path id="1037" transform="matrix(1 0 0 -1 0 841)" d="M125.939 464.746L125.939 478.295" stroke="#000000" stroke-width="0.398" fill="none" /><path id="1076" transform="matrix(1 0 0 -1 0 841)" d="M563.489 464.746L563.489 478.295" stroke="#000000" stroke-width="0.398" fill="none" /><path id="1077" transform="matrix(1 0 0 -1 0 841)" d="M85.039 464.547L563.688 464.547" stroke="#000000" stroke-width="0.398" fill="none" /><path id="1078" transform="matrix(1 0 0 -1 0 841)" d="M85.239 450.798L85.239 464.347" stroke="#000000" stroke-width="0.398" fill="none" /><path id="1081" transform="matrix(1 0 0 -1 0 841)" d="M125.939 450.798L125.939 464.347" stroke="#000000" stroke-width="0.398" fill="none" /><path id="1118" transform="matrix(1 0 0 -1 0 841)" d="M563.489 450.798L563.489 464.347" stroke="#000000" stroke-width="0.398" fill="none" /><path id="1119" transform="matrix(1 0 0 -1 0 841)" d="M85.039 450.599L563.688 450.599" stroke="#000000" stroke-width="0.398" fill="none" /><path id="1120" transform="matrix(1 0 0 -1 0 841)" d="M85.239 436.851L85.239 450.4" stroke="#000000" stroke-width="0.398" fill="none" /><path id="1123" transform="matrix(1 0 0 -1 0 841)" d="M125.939 436.851L125.939 450.4" stroke="#000000" stroke-width="0.398" fill="none" /><path id="1164" transform="matrix(1 0 0 -1 0 841)" d="M563.489 436.851L563.489 450.4" stroke="#000000" stroke-width="0.398" fill="none" /><path id="1165" transform="matrix(1 0 0 -1 0 841)" d="M85.039 436.651L563.688 436.651" stroke="#000000" stroke-width="0.398" fill="none" /><path id="1166" transform="matrix(1 0 0 -1 0 841)" d="M85.239 422.903L85.239 436.452" stroke="#000000" stroke-width="0.398" fill="none" /><path id="1169" transform="matrix(1 0 0 -1 0 841)" d="M125.939 422.903L125.939 436.452" stroke="#000000" stroke-width="0.398" fill="none" /><path id="1212" transform="matrix(1 0 0 -1 0 841)" d="M563.489 422.903L563.489 436.452" stroke="#000000" stroke-width="0.398" fill="none" /><path id="1213" transform="matrix(1 0 0 -1 0 841)" d="M85.039 422.704L563.688 422.704" stroke="#000000" stroke-width="0.398" fill="none" /><path id="1214" transform="matrix(1 0 0 -1 0 841)" d="M85.239 408.955L85.239 422.504" stroke="#000000" stroke-width="0.398" fill="none" /><path id="1217" transform="matrix(1 0 0 -1 0 841)" d="M125.939 408.955L125.939 422.504" stroke="#000000" stroke-width="0.398" fill="none" /><path id="1286" transform="matrix(1 0 0 -1 0 841)" d="M563.489 408.955L563.489 422.504" stroke="#000000" stroke-width="0.398" fill="none" /><path id="1287" transform="matrix(1 0 0 -1 0 841)" d="M85.039 408.756L563.688 408.756" stroke="#000000" stroke-width="0.398" fill="none" /><path id="1288" transform="matrix(1 0 0 -1 0 841)" d="M85.239 395.008L85.239 408.557" stroke="#000000" stroke-width="0.398" fill="none" /><path id="1291" transform="matrix(1 0 0 -1 0 841)" d="M125.939 395.008L125.939 408.557" stroke="#000000" stroke-width="0.398" fill="none" /><path id="1321" transform="matrix(1 0 0 -1 0 841)" d="M563.489 395.008L563.489 408.557" stroke="#000000" stroke-width="0.398" fill="none" /><path id="1322" transform="matrix(1 0 0 -1 0 841)" d="M85.039 394.808L563.688 394.808" stroke="#000000" stroke-width="0.398" fill="none" /><path id="1323" transform="matrix(1 0 0 -1 0 841)" d="M85.239 381.06L85.239 394.609" stroke="#000000" stroke-width="0.398" fill="none" /><path id="1326" transform="matrix(1 0 0 -1 0 841)" d="M125.939 381.06L125.939 394.609" stroke="#000000" stroke-width="0.398" fill="none" /><path id="1358" transform="matrix(1 0 0 -1 0 841)" d="M563.489 381.06L563.489 394.609" stroke="#000000" stroke-width="0.398" fill="none" /><path id="1359" transform="matrix(1 0 0 -1 0 841)" d="M85.039 380.861L563.688 380.861" stroke="#000000" stroke-width="0.398" fill="none" /><path id="1360" transform="matrix(1 0 0 -1 0 841)" d="M85.239 367.112L85.239 380.661" stroke="#000000" stroke-width="0.398" fill="none" /><path id="1363" transform="matrix(1 0 0 -1 0 841)" d="M125.939 367.112L125.939 380.661" stroke="#000000" stroke-width="0.398" fill="none" /><path id="1416" transform="matrix(1 0 0 -1 0 841)" d="M563.489 367.112L563.489 380.661" stroke="#000000" stroke-width="0.398" fill="none" /><path id="1417" transform="matrix(1 0 0 -1 0 841)" d="M85.039 366.913L563.688 366.913" stroke="#000000" stroke-width="0.398" fill="none" /><path id="1418" transform="matrix(1 0 0 -1 0 841)" d="M85.239 353.165L85.239 366.714" stroke="#000000" stroke-width="0.398" fill="none" /><path id="1421" transform="matrix(1 0 0 -1 0 841)" d="M125.939 353.165L125.939 366.714" stroke="#000000" stroke-width="0.398" fill="none" /><path id="1466" transform="matrix(1 0 0 -1 0 841)" d="M563.489 353.165L563.489 366.714" stroke="#000000" stroke-width="0.398" fill="none" /><path id="1467" transform="matrix(1 0 0 -1 0 841)" d="M85.039 352.965L563.688 352.965" stroke="#000000" stroke-width="0.398" fill="none" /><path id="1468" transform="matrix(1 0 0 -1 0 841)" d="M85.239 339.217L85.239 352.766" stroke="#000000" stroke-width="0.398" fill="none" /><path id="1471" transform="matrix(1 0 0 -1 0 841)" d="M125.939 339.217L125.939 352.766" stroke="#000000" stroke-width="0.398" fill="none" /><path id="1531" transform="matrix(1 0 0 -1 0 841)" d="M563.489 339.217L563.489 352.766" stroke="#000000" stroke-width="0.398" fill="none" /><path id="1532" transform="matrix(1 0 0 -1 0 841)" d="M85.039 339.018L563.688 339.018" stroke="#000000" stroke-width="0.398" fill="none" /><path id="1533" transform="matrix(1 0 0 -1 0 841)" d="M85.239 325.269L85.239 338.818" stroke="#000000" stroke-width="0.398" fill="none" /><path id="1536" transform="matrix(1 0 0 -1 0 841)" d="M125.939 325.269L125.939 338.818" stroke="#000000" stroke-width="0.398" fill="none" /><path id="1573" transform="matrix(1 0 0 -1 0 841)" d="M563.489 325.269L563.489 338.818" stroke="#000000" stroke-width="0.398" fill="none" /><path id="1574" transform="matrix(1 0 0 -1 0 841)" d="M85.039 325.07L563.688 325.07" stroke="#000000" stroke-width="0.398" fill="none" /><path id="1575" transform="matrix(1 0 0 -1 0 841)" d="M85.239 311.322L85.239 324.871" stroke="#000000" stroke-width="0.398" fill="none" /><path id="1578" transform="matrix(1 0 0 -1 0 841)" d="M125.939 311.322L125.939 324.871" stroke="#000000" stroke-width="0.398" fill="none" /><path id="1608" transform="matrix(1 0 0 -1 0 841)" d="M563.489 311.322L563.489 324.871" stroke="#000000" stroke-width="0.398" fill="none" /><path id="1609" transform="matrix(1 0 0 -1 0 841)" d="M85.039 311.122L563.688 311.122" stroke="#000000" stroke-width="0.398" fill="none" /><path id="1610" transform="matrix(1 0 0 -1 0 841)" d="M85.239 297.374L85.239 310.923" stroke="#000000" stroke-width="0.398" fill="none" /><path id="1613" transform="matrix(1 0 0 -1 0 841)" d="M125.939 297.374L125.939 310.923" stroke="#000000" stroke-width="0.398" fill="none" /><path id="1691" transform="matrix(1 0 0 -1 0 841)" d="M563.489 297.374L563.489 310.923" stroke="#000000" stroke-width="0.398" fill="none" /><path id="1692" transform="matrix(1 0 0 -1 0 841)" d="M85.039 297.175L563.688 297.175" stroke="#000000" stroke-width="0.398" fill="none" /><path id="1693" transform="matrix(1 0 0 -1 0 841)" d="M85.239 283.426L85.239 296.975" stroke="#000000" stroke-width="0.398" fill="none" /><path id="1696" transform="matrix(1 0 0 -1 0 841)" d="M125.939 283.426L125.939 296.975" stroke="#000000" stroke-width="0.398" fill="none" /><path id="1729" transform="matrix(1 0 0 -1 0 841)" d="M563.489 283.426L563.489 296.975" stroke="#000000" stroke-width="0.398" fill="none" /><path id="1730" transform="matrix(1 0 0 -1 0 841)" d="M85.039 283.227L563.688 283.227" stroke="#000000" stroke-width="0.398" fill="none" /><path id="1731" transform="matrix(1 0 0 -1 0 841)" d="M85.239 269.479L85.239 283.028" stroke="#000000" stroke-width="0.398" fill="none" /><path id="1734" transform="matrix(1 0 0 -1 0 841)" d="M125.939 269.479L125.939 283.028" stroke="#000000" stroke-width="0.398" fill="none" /><path id="1773" transform="matrix(1 0 0 -1 0 841)" d="M563.489 269.479L563.489 283.028" stroke="#000000" stroke-width="0.398" fill="none" /><path id="1774" transform="matrix(1 0 0 -1 0 841)" d="M85.039 269.279L563.688 269.279" stroke="#000000" stroke-width="0.398" fill="none" /><path id="1775" transform="matrix(1 0 0 -1 0 841)" d="M85.239 255.531L85.239 269.08" stroke="#000000" stroke-width="0.398" fill="none" /><path id="1778" transform="matrix(1 0 0 -1 0 841)" d="M125.939 255.531L125.939 269.08" stroke="#000000" stroke-width="0.398" fill="none" /><path id="1826" transform="matrix(1 0 0 -1 0 841)" d="M563.489 255.531L563.489 269.08" stroke="#000000" stroke-width="0.398" fill="none" /><path id="1827" transform="matrix(1 0 0 -1 0 841)" d="M85.039 255.332L563.688 255.332" stroke="#000000" stroke-width="0.398" fill="none" /><path id="1828" transform="matrix(1 0 0 -1 0 841)" d="M85.239 241.583L85.239 255.132" stroke="#000000" stroke-width="0.398" fill="none" /><path id="1831" transform="matrix(1 0 0 -1 0 841)" d="M125.939 241.583L125.939 255.132" stroke="#000000" stroke-width="0.398" fill="none" /><path id="1879" transform="matrix(1 0 0 -1 0 841)" d="M563.489 241.583L563.489 255.132" stroke="#000000" stroke-width="0.398" fill="none" /><path id="1880" transform="matrix(1 0 0 -1 0 841)" d="M85.039 241.384L563.688 241.384" stroke="#000000" stroke-width="0.398" fill="none" /><path id="1881" transform="matrix(1 0 0 -1 0 841)" d="M85.239 227.635L85.239 241.184" stroke="#000000" stroke-width="0.398" fill="none" /><path id="1884" transform="matrix(1 0 0 -1 0 841)" d="M125.939 227.635L125.939 241.184" stroke="#000000" stroke-width="0.398" fill="none" /><path id="1940" transform="matrix(1 0 0 -1 0 841)" d="M563.489 227.635L563.489 241.184" stroke="#000000" stroke-width="0.398" fill="none" /><path id="1941" transform="matrix(1 0 0 -1 0 841)" d="M85.039 227.436L563.688 227.436" stroke="#000000" stroke-width="0.398" fill="none" /><path id="1942" transform="matrix(1 0 0 -1 0 841)" d="M85.239 213.688L85.239 227.237" stroke="#000000" stroke-width="0.398" fill="none" /><path id="1945" transform="matrix(1 0 0 -1 0 841)" d="M125.939 213.688L125.939 227.237" stroke="#000000" stroke-width="0.398" fill="none" /><path id="1980" transform="matrix(1 0 0 -1 0 841)" d="M563.489 213.688L563.489 227.237" stroke="#000000" stroke-width="0.398" fill="none" /><path id="1981" transform="matrix(1 0 0 -1 0 841)" d="M85.039 213.489L563.688 213.489" stroke="#000000" stroke-width="0.398" fill="none" /><path id="1982" transform="matrix(1 0 0 -1 0 841)" d="M85.239 199.74L85.239 213.289" stroke="#000000" stroke-width="0.398" fill="none" /><path id="1985" transform="matrix(1 0 0 -1 0 841)" d="M125.939 199.74L125.939 213.289" stroke="#000000" stroke-width="0.398" fill="none" /><path id="2030" transform="matrix(1 0 0 -1 0 841)" d="M563.489 199.74L563.489 213.289" stroke="#000000" stroke-width="0.398" fill="none" /><path id="2031" transform="matrix(1 0 0 -1 0 841)" d="M85.039 199.541L563.688 199.541" stroke="#000000" stroke-width="0.398" fill="none" /><path id="2032" transform="matrix(1 0 0 -1 0 841)" d="M85.239 185.792L85.239 199.341" stroke="#000000" stroke-width="0.398" fill="none" /><path id="2035" transform="matrix(1 0 0 -1 0 841)" d="M125.939 185.792L125.939 199.341" stroke="#000000" stroke-width="0.398" fill="none" /><path id="2071" transform="matrix(1 0 0 -1 0 841)" d="M563.489 185.792L563.489 199.341" stroke="#000000" stroke-width="0.398" fill="none" /><path id="2072" transform="matrix(1 0 0 -1 0 841)" d="M85.039 185.593L563.688 185.593" stroke="#000000" stroke-width="0.398" fill="none" /><path id="2073" transform="matrix(1 0 0 -1 0 841)" d="M85.239 171.845L85.239 185.394" stroke="#000000" stroke-width="0.398" fill="none" /><path id="2076" transform="matrix(1 0 0 -1 0 841)" d="M125.939 171.845L125.939 185.394" stroke="#000000" stroke-width="0.398" fill="none" /><path id="2141" transform="matrix(1 0 0 -1 0 841)" d="M563.489 171.845L563.489 185.394" stroke="#000000" stroke-width="0.398" fill="none" /><path id="2142" transform="matrix(1 0 0 -1 0 841)" d="M85.039 171.646L563.688 171.646" stroke="#000000" stroke-width="0.398" fill="none" /><path id="2143" transform="matrix(1 0 0 -1 0 841)" d="M85.239 157.897L85.239 171.446" stroke="#000000" stroke-width="0.398" fill="none" /><path id="2146" transform="matrix(1 0 0 -1 0 841)" d="M125.939 157.897L125.939 171.446" stroke="#000000" stroke-width="0.398" fill="none" /><path id="2189" transform="matrix(1 0 0 -1 0 841)" d="M563.489 157.897L563.489 171.446" stroke="#000000" stroke-width="0.398" fill="none" /><path id="2190" transform="matrix(1 0 0 -1 0 841)" d="M85.039 157.698L563.688 157.698" stroke="#000000" stroke-width="0.398" fill="none" /><path id="2191" transform="matrix(1 0 0 -1 0 841)" d="M85.239 143.949L85.239 157.498" stroke="#000000" stroke-width="0.398" fill="none" /><path id="2194" transform="matrix(1 0 0 -1 0 841)" d="M125.939 143.949L125.939 157.498" stroke="#000000" stroke-width="0.398" fill="none" /><path id="2231" transform="matrix(1 0 0 -1 0 841)" d="M563.489 143.949L563.489 157.498" stroke="#000000" stroke-width="0.398" fill="none" /><path id="2232" transform="matrix(1 0 0 -1 0 841)" d="M85.039 143.75L563.688 143.75" stroke="#000000" stroke-width="0.398" fill="none" /><path id="2233" transform="matrix(1 0 0 -1 0 841)" d="M85.239 130.002L85.239 143.551" stroke="#000000" stroke-width="0.398" fill="none" /><path id="2236" transform="matrix(1 0 0 -1 0 841)" d="M125.939 130.002L125.939 143.551" stroke="#000000" stroke-width="0.398" fill="none" /><path id="2281" transform="matrix(1 0 0 -1 0 841)" d="M563.489 130.002L563.489 143.551" stroke="#000000" stroke-width="0.398" fill="none" /><path id="2282" transform="matrix(1 0 0 -1 0 841)" d="M85.039 129.802L563.688 129.802" stroke="#000000" stroke-width="0.398" fill="none" /></g></g></svg>