<svg xmlns="http://www.w3.org/2000/svg" xmlns:xlink="http://www.w3.org/1999/xlink" id="body_340" preserveAspectRatio="xMinYMin meet" viewBox="0 0 793 1121"><defs><clipPath id="1"><path id="" clip-rule="evenodd" transform="matrix(1 0 0 1 0 0)" d="M0 841L0 -0.8900146L0 -0.8900146L595.276 -0.8900146L595.276 -0.8900146L595.276 841L595.276 841L0 841z" /></clipPath></defs><g transform="matrix(1.333333 0 0 1.333333 0 0)"><g clip-path="url(#1)"><path id="34" transform="matrix(1 0 0 -1 0 841)" d="M85.039 766.564L510.236 766.564" stroke="#000000" stroke-width="0.498" fill="none" /><path id="190" transform="matrix(1 0 0 -1 0 841)" d="M328.1976 686.0638L263.4404 686.0638C 261.2395 686.0638 259.4553 684.2797 259.4553 682.0787L259.4553 682.0787L259.4553 657.3213C 259.4553 655.1204 261.2395 653.3362 263.4404 653.3362L263.4404 653.3362L328.1976 653.3362C 330.3985 653.3362 332.1827 655.1204 332.1827 657.3213L332.1827 657.3213L332.1827 682.0787C 332.1827 684.2797 330.3985 686.0638 328.1976 686.0638z" stroke="#000000" stroke-width="0.3985" fill="#FF9999" fill-rule="nonzero" /><path id="240" transform="matrix(1 0 0 -1 0 841)" d="M167.3966 669.7L256.8651 669.7" stroke="#000000" stroke-width="0.3985" fill="none" /><path id="241" transform="matrix(1 0 0 -1 0 841)" d="M259.256 669.7C 258.2598 669.8993 256.4665 670.2978 255.271 671.1944C 256.2673 670.0985 256.2673 669.3015 255.271 668.2056C 256.4665 669.1022 258.2598 669.5007 259.256 669.7z" stroke="none" fill="#000000" fill-rule="nonzero" /><path id="265" transform="matrix(1 0 0 -1 0 841)" d="M332.3819 669.7L418.2122 669.7" stroke="#000000" stroke-width="0.3985" fill="none" /><path id="266" transform="matrix(1 0 0 -1 0 841)" d="M420.6032 669.7C 419.6069 669.8993 417.8137 670.2978 416.6181 671.1944C 417.6144 670.0985 417.6144 669.3015 416.6181 668.2056C 417.8137 669.1022 419.6069 669.5007 420.6032 669.7z" stroke="none" fill="#000000" fill-rule="nonzero" /><path id="267" transform="matrix(1 0 0 -1 0 841)" d="M295.819 653.137L295.819 638.8307" stroke="#000000" stroke-width="0.3985" fill="none" /><path id="268" transform="matrix(1 0 0 -1 0 841)" d="M295.819 636.4396C 296.0182 637.4359 296.4167 639.2291 297.3134 640.4246C 296.2175 639.4284 295.4205 639.4284 294.3246 640.4246C 295.2213 639.2291 295.6198 637.4359 295.819 636.4396z" stroke="none" fill="#000000" fill-rule="nonzero" /><path id="338" transform="matrix(1 0 0 -1 0 841)" d="M218.408 559.102L297.466 559.102" stroke="#000000" stroke-width="0.436" fill="none" /><path id="350" transform="matrix(1 0 0 -1 0 841)" d="M334.473 559.102L353.247 559.102" stroke="#000000" stroke-width="0.436" fill="none" /><path id="378" transform="matrix(1 0 0 -1 0 841)" d="M468.366 559.102L482.308 559.102" stroke="#000000" stroke-width="0.436" fill="none" /><path id="399" transform="matrix(1 0 0 -1 0 841)" d="M113.508 527.755L192.566 527.755" stroke="#000000" stroke-width="0.436" fill="none" /><path id="415" transform="matrix(1 0 0 -1 0 841)" d="M252.515 527.755L271.289 527.755" stroke="#000000" stroke-width="0.436" fill="none" /><path id="428" transform="matrix(1 0 0 -1 0 841)" d="M307.005 527.755L320.947 527.755" stroke="#000000" stroke-width="0.436" fill="none" /><path id="447" transform="matrix(1 0 0 -1 0 841)" d="M363.337 536.337L429.697 536.337" stroke="#000000" stroke-width="0.398" fill="none" /><path id="448" transform="matrix(1 0 0 -1 0 841)" d="M363.536 519.112L363.536 536.337" stroke="#000000" stroke-width="0.398" fill="none" /><path id="449" transform="matrix(1 0 0 -1 0 841)" d="M429.498 519.112L429.498 536.337" stroke="#000000" stroke-width="0.398" fill="none" /><path id="450" transform="matrix(1 0 0 -1 0 841)" d="M363.337 519.112L429.697 519.112" stroke="#000000" stroke-width="0.398" fill="none" /><path id="605" transform="matrix(1 0 0 -1 0 841)" d="M354.3337 381.4744C 354.3337 404.958 335.297 423.9946 311.8135 423.9946C 288.3299 423.9946 269.2933 404.958 269.2933 381.4744C 269.2933 357.9908 288.3299 338.9542 311.8135 338.9542C 335.297 338.9542 354.3337 357.9908 354.3337 381.4744z" stroke="#000000" stroke-width="0.3985" fill="#F2F2F2" fill-rule="nonzero" /><path id="606" transform="matrix(1 0 0 -1 0 841)" d="M269.2932 381.4744L354.3337 381.4744" stroke="#000000" stroke-width="1.19553" fill="none" /><path id="633" transform="matrix(1 0 0 -1 0 841)" d="M289.1359 344.6235L311.8135 381.4744" stroke="#000000" stroke-width="1.19553" fill="none" /><path id="634" transform="matrix(1 0 0 -1 0 841)" d="M334.491 344.6235L311.8135 381.4744" stroke="#000000" stroke-width="1.19553" fill="none" /><path id="638" transform="matrix(1 0 0 -1 0 841)" d="M113.508 270.778L129.261 270.778" stroke="#000000" stroke-width="0.436" fill="none" /><path id="649" transform="matrix(1 0 0 -1 0 841)" d="M167.132 270.778L184.706 270.778" stroke="#000000" stroke-width="0.436" fill="none" /><path id="669" transform="matrix(1 0 0 -1 0 841)" d="M257.392 270.778L271.334 270.778" stroke="#000000" stroke-width="0.436" fill="none" /><path id="679" transform="matrix(1 0 0 -1 0 841)" d="M113.508 235.984L129.261 235.984" stroke="#000000" stroke-width="0.436" fill="none" /><path id="697" transform="matrix(1 0 0 -1 0 841)" d="M155.885 235.984L187.346 235.984" stroke="#000000" stroke-width="0.436" fill="none" /><path id="713" transform="matrix(1 0 0 -1 0 841)" d="M220.04 235.984L237.014 235.984" stroke="#000000" stroke-width="0.436" fill="none" /><path id="720" transform="matrix(1 0 0 -1 0 841)" d="M247.891 235.984L331.456 235.984" stroke="#000000" stroke-width="0.436" fill="none" /><path id="747" transform="matrix(1 0 0 -1 0 841)" d="M358.695 235.984L372.637 235.984" stroke="#000000" stroke-width="0.436" fill="none" /><path id="761" transform="matrix(1 0 0 -1 0 841)" d="M435.974 235.984L452.294 235.984" stroke="#000000" stroke-width="0.436" fill="none" /><path id="765" transform="matrix(1 0 0 -1 0 841)" d="M415.027 251.341L456.876 251.341" stroke="#000000" stroke-width="0.398" fill="none" /><path id="766" transform="matrix(1 0 0 -1 0 841)" d="M415.226 220.36L415.226 251.341" stroke="#000000" stroke-width="0.398" fill="none" /><path id="767" transform="matrix(1 0 0 -1 0 841)" d="M456.677 220.36L456.677 251.341" stroke="#000000" stroke-width="0.398" fill="none" /><path id="768" transform="matrix(1 0 0 -1 0 841)" d="M415.027 220.36L456.876 220.36" stroke="#000000" stroke-width="0.398" fill="none" /><path id="902" transform="matrix(1 0 0 -1 0 841)" d="M127.166 141.009L140.497 141.009" stroke="#000000" stroke-width="0.436" fill="none" /><path id="926" transform="matrix(1 0 0 -1 0 841)" d="M230.578 149.591L288.777 149.591" stroke="#000000" stroke-width="0.398" fill="none" /><path id="927" transform="matrix(1 0 0 -1 0 841)" d="M230.778 132.366L230.778 149.591" stroke="#000000" stroke-width="0.398" fill="none" /><path id="928" transform="matrix(1 0 0 -1 0 841)" d="M288.579 132.366L288.579 149.591" stroke="#000000" stroke-width="0.398" fill="none" /><path id="929" transform="matrix(1 0 0 -1 0 841)" d="M230.578 132.366L288.777 132.366" stroke="#000000" stroke-width="0.398" fill="none" /></g></g></svg>