<svg xmlns="http://www.w3.org/2000/svg" xmlns:xlink="http://www.w3.org/1999/xlink" id="body_342" preserveAspectRatio="xMinYMin meet" viewBox="0 0 793 1121"><defs><clipPath id="1"><path id="" clip-rule="evenodd" transform="matrix(1 0 0 1 0 0)" d="M0 841L0 -0.8900146L0 -0.8900146L595.276 -0.8900146L595.276 -0.8900146L595.276 841L595.276 841L0 841z" /></clipPath></defs><g transform="matrix(1.333333 0 0 1.333333 0 0)"><g clip-path="url(#1)"><path id="34" transform="matrix(1 0 0 -1 0 841)" d="M85.039 766.564L510.236 766.564" stroke="#000000" stroke-width="0.498" fill="none" /><path id="35" transform="matrix(1 0 0 -1 0 841)" d="M354.3337 714.1324C 354.3337 737.616 335.297 756.6526 311.8135 756.6526C 288.3299 756.6526 269.2933 737.616 269.2933 714.1324C 269.2933 690.6488 288.3299 671.6122 311.8135 671.6122C 335.297 671.6122 354.3337 690.6488 354.3337 714.1324z" stroke="#000000" stroke-width="0.3985" fill="#F2F2F2" fill-rule="nonzero" /><path id="36" transform="matrix(1 0 0 -1 0 841)" d="M269.2932 714.1324L354.3337 714.1324" stroke="#000000" stroke-width="1.19553" fill="none" /><path id="66" transform="matrix(1 0 0 -1 0 841)" d="M289.1359 677.2814L311.8135 714.1324" stroke="#000000" stroke-width="1.19553" fill="none" /><path id="67" transform="matrix(1 0 0 -1 0 841)" d="M334.491 677.2814L311.8135 714.1324" stroke="#000000" stroke-width="1.19553" fill="none" /><path id="73" transform="matrix(1 0 0 -1 0 841)" d="M127.166 598.205L140.497 598.205" stroke="#000000" stroke-width="0.436" fill="none" /><path id="97" transform="matrix(1 0 0 -1 0 841)" d="M230.578 606.788L288.777 606.788" stroke="#000000" stroke-width="0.398" fill="none" /><path id="98" transform="matrix(1 0 0 -1 0 841)" d="M230.778 589.563L230.778 606.788" stroke="#000000" stroke-width="0.398" fill="none" /><path id="99" transform="matrix(1 0 0 -1 0 841)" d="M288.579 589.563L288.579 606.788" stroke="#000000" stroke-width="0.398" fill="none" /><path id="100" transform="matrix(1 0 0 -1 0 841)" d="M230.578 589.563L288.777 589.563" stroke="#000000" stroke-width="0.398" fill="none" /><path id="208" transform="matrix(1 0 0 -1 0 841)" d="M354.3337 473.8254C 354.3337 497.309 335.297 516.3456 311.8135 516.3456C 288.3299 516.3456 269.2933 497.309 269.2933 473.8254C 269.2933 450.3419 288.3299 431.3052 311.8135 431.3052C 335.297 431.3052 354.3337 450.3419 354.3337 473.8254z" stroke="#000000" stroke-width="0.3985" fill="#F2F2F2" fill-rule="nonzero" /><path id="209" transform="matrix(1 0 0 -1 0 841)" d="M269.2932 473.8254L354.3337 473.8254" stroke="#000000" stroke-width="1.19553" fill="none" /><path id="236" transform="matrix(1 0 0 -1 0 841)" d="M289.1359 436.9745L311.8135 473.8254" stroke="#000000" stroke-width="1.19553" fill="none" /><path id="237" transform="matrix(1 0 0 -1 0 841)" d="M334.491 436.9745L311.8135 473.8254" stroke="#000000" stroke-width="1.19553" fill="none" /><path id="241" transform="matrix(1 0 0 -1 0 841)" d="M113.508 363.676L129.261 363.676" stroke="#000000" stroke-width="0.436" fill="none" /><path id="252" transform="matrix(1 0 0 -1 0 841)" d="M167.132 363.676L184.706 363.676" stroke="#000000" stroke-width="0.436" fill="none" /><path id="272" transform="matrix(1 0 0 -1 0 841)" d="M257.392 363.676L271.334 363.676" stroke="#000000" stroke-width="0.436" fill="none" /><path id="287" transform="matrix(1 0 0 -1 0 841)" d="M160.504 318.23L178.078 318.23" stroke="#000000" stroke-width="0.436" fill="none" /><path id="295" transform="matrix(1 0 0 -1 0 841)" d="M238.924 332.329L254.677 332.329" stroke="#000000" stroke-width="0.436" fill="none" /><path id="299" transform="matrix(1 0 0 -1 0 841)" d="M193.794 318.23L299.807 318.23" stroke="#000000" stroke-width="0.436" fill="none" /><path id="315" transform="matrix(1 0 0 -1 0 841)" d="M256.799 307.081L270.741 307.081" stroke="#000000" stroke-width="0.436" fill="none" /><path id="327" transform="matrix(1 0 0 -1 0 841)" d="M337.929 332.329L353.682 332.329" stroke="#000000" stroke-width="0.436" fill="none" /><path id="331" transform="matrix(1 0 0 -1 0 841)" d="M315.522 318.23L370.634 318.23" stroke="#000000" stroke-width="0.436" fill="none" /><path id="336" transform="matrix(1 0 0 -1 0 841)" d="M327.627 307.081L341.569 307.081" stroke="#000000" stroke-width="0.436" fill="none" /><path id="354" transform="matrix(1 0 0 -1 0 841)" d="M427.553 318.23L445.127 318.23" stroke="#000000" stroke-width="0.436" fill="none" /><path id="368" transform="matrix(1 0 0 -1 0 841)" d="M154.711 278.096L172.285 278.096" stroke="#000000" stroke-width="0.436" fill="none" /><path id="389" transform="matrix(1 0 0 -1 0 841)" d="M183.161 278.096L269.203 278.096" stroke="#000000" stroke-width="0.436" fill="none" /><path id="406" transform="matrix(1 0 0 -1 0 841)" d="M283.723 286.008L361.396 286.008" stroke="#000000" stroke-width="0.398" fill="none" /><path id="407" transform="matrix(1 0 0 -1 0 841)" d="M283.922 270.065L283.922 286.008" stroke="#000000" stroke-width="0.398" fill="none" /><path id="408" transform="matrix(1 0 0 -1 0 841)" d="M361.197 270.065L361.197 286.008" stroke="#000000" stroke-width="0.398" fill="none" /><path id="409" transform="matrix(1 0 0 -1 0 841)" d="M283.723 270.065L361.396 270.065" stroke="#000000" stroke-width="0.398" fill="none" /></g></g></svg>