<svg xmlns="http://www.w3.org/2000/svg" xmlns:xlink="http://www.w3.org/1999/xlink" id="body_279" preserveAspectRatio="xMinYMin meet" viewBox="0 0 793 1121"><defs><clipPath id="1"><path id="" clip-rule="evenodd" transform="matrix(1 0 0 1 0 0)" d="M0 841L0 -0.8900146L0 -0.8900146L595.276 -0.8900146L595.276 -0.8900146L595.276 841L595.276 841L0 841z" /></clipPath></defs><g transform="matrix(1.333333 0 0 1.333333 0 0)"><g clip-path="url(#1)"><path id="23" transform="matrix(1 0 0 -1 0 841)" d="M85.039 766.564L510.236 766.564" stroke="#000000" stroke-width="0.498" fill="none" /><path id="66" transform="matrix(1 0 0 -1 0 841)" d="M176.205 714.746L446.343 714.746" stroke="#000000" stroke-width="0.436" fill="none" /><path id="313" transform="matrix(1 0 0 -1 0 841)" d="M113.508 448.335L180.11 448.335" stroke="#000000" stroke-width="0.436" fill="none" /><path id="321" transform="matrix(1 0 0 -1 0 841)" d="M190.985 448.335L234.621 448.335" stroke="#000000" stroke-width="0.436" fill="none" /><path id="337" transform="matrix(1 0 0 -1 0 841)" d="M280.109 448.335L356.95 448.335" stroke="#000000" stroke-width="0.436" fill="none" /><path id="364" transform="matrix(1 0 0 -1 0 841)" d="M371.47 464.397L502.736 464.397L502.736 468.382L371.47 468.382z" stroke="none" fill="#000000" fill-rule="nonzero" /><path id="365" transform="matrix(1 0 0 -1 0 841)" d="M371.47 430.051L375.455 430.051L375.455 466.389L371.47 466.389z" stroke="none" fill="#000000" fill-rule="nonzero" /><path id="366" transform="matrix(1 0 0 -1 0 841)" d="M498.751 430.051L502.736 430.051L502.736 466.389L498.751 466.389z" stroke="none" fill="#000000" fill-rule="nonzero" /><path id="367" transform="matrix(1 0 0 -1 0 841)" d="M371.47 428.058L502.736 428.058L502.736 432.043L371.47 432.043z" stroke="none" fill="#000000" fill-rule="nonzero" /><path id="408" transform="matrix(1 0 0 -1 0 841)" d="M173.414 373.524L192.799 373.524" stroke="#000000" stroke-width="0.436" fill="none" /><path id="428" transform="matrix(1 0 0 -1 0 841)" d="M207.319 389.646L332.17 389.646L332.17 393.631L207.319 393.631z" stroke="none" fill="#000000" fill-rule="nonzero" /><path id="429" transform="matrix(1 0 0 -1 0 841)" d="M207.319 355.24L211.304 355.24L211.304 391.638L207.319 391.638z" stroke="none" fill="#000000" fill-rule="nonzero" /><path id="430" transform="matrix(1 0 0 -1 0 841)" d="M328.185 355.24L332.17 355.24L332.17 391.638L328.185 391.638z" stroke="none" fill="#000000" fill-rule="nonzero" /><path id="431" transform="matrix(1 0 0 -1 0 841)" d="M207.319 353.248L332.17 353.248L332.17 357.233L207.319 357.233z" stroke="none" fill="#000000" fill-rule="nonzero" /><path id="576" transform="matrix(1 0 0 -1 0 841)" d="M186.124 268.427L257.511 268.427" stroke="#000000" stroke-width="0.436" fill="none" /><g transform="matrix(0.06 0 0 0.06 112.312 597.399)"><g transform="matrix(1 0 0 1 0 0)"><image x="0" y="0" xlink:href="img_411.png" width="3009" height="713" /></g></g><path id="727" transform="matrix(1 0 0 -1 0 841)" d="M158.147 115.42L325.891 115.42" stroke="#000000" stroke-width="0.436" fill="none" /><path id="762" transform="matrix(1 0 0 -1 0 841)" d="M341.607 115.42L383.408 115.42" stroke="#000000" stroke-width="0.436" fill="none" /><path id="778" transform="matrix(1 0 0 -1 0 841)" d="M397.928 131.33L462.873 131.33L462.873 135.315L397.928 135.315z" stroke="none" fill="#000000" fill-rule="nonzero" /><path id="779" transform="matrix(1 0 0 -1 0 841)" d="M397.928 97.137L401.913 97.137L401.913 133.323L397.928 133.323z" stroke="none" fill="#000000" fill-rule="nonzero" /><path id="780" transform="matrix(1 0 0 -1 0 841)" d="M458.888 97.137L462.873 97.137L462.873 133.323L458.888 133.323z" stroke="none" fill="#000000" fill-rule="nonzero" /><path id="781" transform="matrix(1 0 0 -1 0 841)" d="M397.928 95.144L462.873 95.144L462.873 99.129L397.928 99.129z" stroke="none" fill="#000000" fill-rule="nonzero" /></g></g></svg>