<svg xmlns="http://www.w3.org/2000/svg" xmlns:xlink="http://www.w3.org/1999/xlink" id="body_324" preserveAspectRatio="xMinYMin meet" viewBox="0 0 793 1121"><defs><clipPath id="1"><path id="" clip-rule="evenodd" transform="matrix(1 0 0 1 0 0)" d="M0 841L0 -0.8900146L0 -0.8900146L595.276 -0.8900146L595.276 -0.8900146L595.276 841L595.276 841L0 841z" /></clipPath></defs><g transform="matrix(1.333333 0 0 1.333333 0 0)"><g clip-path="url(#1)"><path id="34" transform="matrix(1 0 0 -1 0 841)" d="M85.039 766.564L510.236 766.564" stroke="#000000" stroke-width="0.498" fill="none" /><path id="51" transform="matrix(1 0 0 -1 0 841)" d="M112.312 756.651L211.932 756.651" stroke="#000000" stroke-width="0.398" fill="none" /><path id="52" transform="matrix(1 0 0 -1 0 841)" d="M112.511 739.366L112.511 756.651" stroke="#000000" stroke-width="0.398" fill="none" /><path id="53" transform="matrix(1 0 0 -1 0 841)" d="M211.733 739.366L211.733 756.651" stroke="#000000" stroke-width="0.398" fill="none" /><path id="54" transform="matrix(1 0 0 -1 0 841)" d="M112.312 739.366L211.932 739.366" stroke="#000000" stroke-width="0.398" fill="none" /><path id="96" transform="matrix(1 0 0 -1 0 841)" d="M113.508 685.861L118.963 685.861" stroke="#000000" stroke-width="0.436" fill="none" /><path id="106" transform="matrix(1 0 0 -1 0 841)" d="M158.331 693.772L185.102 693.772" stroke="#000000" stroke-width="0.398" fill="none" /><path id="107" transform="matrix(1 0 0 -1 0 841)" d="M158.53 679.776L158.53 693.772" stroke="#000000" stroke-width="0.398" fill="none" /><path id="108" transform="matrix(1 0 0 -1 0 841)" d="M184.902 679.776L184.902 693.772" stroke="#000000" stroke-width="0.398" fill="none" /><path id="109" transform="matrix(1 0 0 -1 0 841)" d="M158.331 679.776L185.102 679.776" stroke="#000000" stroke-width="0.398" fill="none" /><path id="240" transform="matrix(1 0 0 -1 0 841)" d="M113.508 606.776L140.781 606.776" stroke="#000000" stroke-width="0.436" fill="none" /><path id="253" transform="matrix(1 0 0 -1 0 841)" d="M180.149 614.535L201.465 614.535" stroke="#000000" stroke-width="0.398" fill="none" /><path id="254" transform="matrix(1 0 0 -1 0 841)" d="M180.348 600.621L180.348 614.535" stroke="#000000" stroke-width="0.398" fill="none" /><path id="255" transform="matrix(1 0 0 -1 0 841)" d="M201.266 600.621L201.266 614.535" stroke="#000000" stroke-width="0.398" fill="none" /><path id="256" transform="matrix(1 0 0 -1 0 841)" d="M180.149 600.621L201.465 600.621" stroke="#000000" stroke-width="0.398" fill="none" /><path id="571" transform="matrix(1 0 0 -1 0 841)" d="M210.014 501.791L281.534 501.791" stroke="#000000" stroke-width="0.398" fill="none" /><path id="572" transform="matrix(1 0 0 -1 0 841)" d="M210.213 485.678L210.213 501.79" stroke="#000000" stroke-width="0.398" fill="none" /><path id="573" transform="matrix(1 0 0 -1 0 841)" d="M281.335 485.678L281.335 501.79" stroke="#000000" stroke-width="0.398" fill="none" /><path id="574" transform="matrix(1 0 0 -1 0 841)" d="M210.014 485.678L281.534 485.678" stroke="#000000" stroke-width="0.398" fill="none" /><path id="941" transform="matrix(1 0 0 -1 0 841)" d="M139.098 360.666L293.617 360.666" stroke="#000000" stroke-width="0.436" fill="none" /><path id="956" transform="matrix(1 0 0 -1 0 841)" d="M341.614 368.577L362.93 368.577" stroke="#000000" stroke-width="0.398" fill="none" /><path id="957" transform="matrix(1 0 0 -1 0 841)" d="M341.814 354.581L341.814 368.577" stroke="#000000" stroke-width="0.398" fill="none" /><path id="958" transform="matrix(1 0 0 -1 0 841)" d="M362.731 354.581L362.731 368.577" stroke="#000000" stroke-width="0.398" fill="none" /><path id="959" transform="matrix(1 0 0 -1 0 841)" d="M341.614 354.581L362.93 354.581" stroke="#000000" stroke-width="0.398" fill="none" /><path id="1099" transform="matrix(1 0 0 -1 0 841)" d="M113.508 292.168L124.417 292.168" stroke="#000000" stroke-width="0.436" fill="none" /><path id="1109" transform="matrix(1 0 0 -1 0 841)" d="M163.785 299.927L185.101 299.927" stroke="#000000" stroke-width="0.398" fill="none" /><path id="1110" transform="matrix(1 0 0 -1 0 841)" d="M163.985 286.083L163.985 299.926" stroke="#000000" stroke-width="0.398" fill="none" /><path id="1111" transform="matrix(1 0 0 -1 0 841)" d="M184.902 286.083L184.902 299.926" stroke="#000000" stroke-width="0.398" fill="none" /><path id="1112" transform="matrix(1 0 0 -1 0 841)" d="M163.785 286.084L185.101 286.084" stroke="#000000" stroke-width="0.398" fill="none" /><path id="1364" transform="matrix(1 0 0 -1 0 841)" d="M140.442 139.915L195.152 139.915" stroke="#000000" stroke-width="0.436" fill="none" /><path id="1383" transform="matrix(1 0 0 -1 0 841)" d="M210.868 139.915L265.578 139.915" stroke="#000000" stroke-width="0.436" fill="none" /><path id="1417" transform="matrix(1 0 0 -1 0 841)" d="M164.817 103.036L210.263 103.036" stroke="#000000" stroke-width="0.436" fill="none" /><path id="1437" transform="matrix(1 0 0 -1 0 841)" d="M224.783 111.007L299.16 111.007" stroke="#000000" stroke-width="0.398" fill="none" /><path id="1438" transform="matrix(1 0 0 -1 0 841)" d="M224.983 96.951L224.983 111.007" stroke="#000000" stroke-width="0.398" fill="none" /><path id="1439" transform="matrix(1 0 0 -1 0 841)" d="M298.962 96.951L298.962 111.007" stroke="#000000" stroke-width="0.398" fill="none" /><path id="1440" transform="matrix(1 0 0 -1 0 841)" d="M224.783 96.951L299.16 96.951" stroke="#000000" stroke-width="0.398" fill="none" /></g></g></svg>