<svg xmlns="http://www.w3.org/2000/svg" xmlns:xlink="http://www.w3.org/1999/xlink" id="body_340" preserveAspectRatio="xMinYMin meet" viewBox="0 0 793 1121"><defs><clipPath id="1"><path id="" clip-rule="evenodd" transform="matrix(1 0 0 1 0 0)" d="M0 841L0 -0.8900146L0 -0.8900146L595.276 -0.8900146L595.276 -0.8900146L595.276 841L595.276 841L0 841z" /></clipPath></defs><g transform="matrix(1.333333 0 0 1.333333 0 0)"><g clip-path="url(#1)"><path id="34" transform="matrix(1 0 0 -1 0 841)" d="M85.039 766.564L510.236 766.564" stroke="#000000" stroke-width="0.498" fill="none" /><path id="125" transform="matrix(1 0 0 -1 0 841)" d="M354.3337 647.6224C 354.3337 671.106 335.297 690.1426 311.8135 690.1426C 288.3299 690.1426 269.2933 671.106 269.2933 647.6224C 269.2933 624.1388 288.3299 605.1022 311.8135 605.1022C 335.297 605.1022 354.3337 624.1388 354.3337 647.6224z" stroke="#000000" stroke-width="0.3985" fill="#F2F2F2" fill-rule="nonzero" /><path id="126" transform="matrix(1 0 0 -1 0 841)" d="M269.2932 647.6224L354.3337 647.6224" stroke="#000000" stroke-width="1.19553" fill="none" /><path id="155" transform="matrix(1 0 0 -1 0 841)" d="M289.1359 610.7714L311.8135 647.6224" stroke="#000000" stroke-width="1.19553" fill="none" /><path id="156" transform="matrix(1 0 0 -1 0 841)" d="M334.491 610.7714L311.8135 647.6224" stroke="#000000" stroke-width="1.19553" fill="none" /><path id="160" transform="matrix(1 0 0 -1 0 841)" d="M113.508 519.477L129.261 519.477" stroke="#000000" stroke-width="0.436" fill="none" /><path id="171" transform="matrix(1 0 0 -1 0 841)" d="M167.885 519.477L185.459 519.477" stroke="#000000" stroke-width="0.436" fill="none" /><path id="191" transform="matrix(1 0 0 -1 0 841)" d="M258.648 519.477L272.59 519.477" stroke="#000000" stroke-width="0.436" fill="none" /><path id="215" transform="matrix(1 0 0 -1 0 841)" d="M399.602 519.477L413.544 519.477" stroke="#000000" stroke-width="0.436" fill="none" /><path id="221" transform="matrix(1 0 0 -1 0 841)" d="M457.132 533.577L472.885 533.577" stroke="#000000" stroke-width="0.436" fill="none" /><path id="225" transform="matrix(1 0 0 -1 0 841)" d="M430.012 519.477L500.004 519.477" stroke="#000000" stroke-width="0.436" fill="none" /><path id="232" transform="matrix(1 0 0 -1 0 841)" d="M453.364 505.994L470.938 505.994" stroke="#000000" stroke-width="0.436" fill="none" /><path id="256" transform="matrix(1 0 0 -1 0 841)" d="M175.318 466.217L189.26 466.217" stroke="#000000" stroke-width="0.436" fill="none" /><path id="263" transform="matrix(1 0 0 -1 0 841)" d="M307.494 480.316L323.247 480.316" stroke="#000000" stroke-width="0.436" fill="none" /><path id="267" transform="matrix(1 0 0 -1 0 841)" d="M204.975 466.217L420.31 466.217" stroke="#000000" stroke-width="0.436" fill="none" /><path id="287" transform="matrix(1 0 0 -1 0 841)" d="M251.761 448.327L285.699 448.327" stroke="#000000" stroke-width="0.436" fill="none" /><path id="294" transform="matrix(1 0 0 -1 0 841)" d="M296.574 448.327L382.616 448.327" stroke="#000000" stroke-width="0.436" fill="none" /><path id="326" transform="matrix(1 0 0 -1 0 841)" d="M456.804 466.217L470.746 466.217" stroke="#000000" stroke-width="0.436" fill="none" /><path id="328" transform="matrix(1 0 0 -1 0 841)" d="M434.831 487.177L487.266 487.177L487.266 491.162L434.831 491.162z" stroke="none" fill="#000000" fill-rule="nonzero" /><path id="329" transform="matrix(1 0 0 -1 0 841)" d="M434.831 442.675L438.816 442.675L438.816 489.17L434.831 489.17z" stroke="none" fill="#000000" fill-rule="nonzero" /><path id="330" transform="matrix(1 0 0 -1 0 841)" d="M483.28 442.675L487.265 442.675L487.265 489.17L483.28 489.17z" stroke="none" fill="#000000" fill-rule="nonzero" /><path id="331" transform="matrix(1 0 0 -1 0 841)" d="M434.831 440.683L487.266 440.683L487.266 444.668L434.831 444.668z" stroke="none" fill="#000000" fill-rule="nonzero" /><path id="439" transform="matrix(1 0 0 -1 0 841)" d="M354.3337 319.6324C 354.3337 343.116 335.297 362.1526 311.8135 362.1526C 288.3299 362.1526 269.2933 343.116 269.2933 319.6324C 269.2933 296.1488 288.3299 277.1122 311.8135 277.1122C 335.297 277.1122 354.3337 296.1488 354.3337 319.6324z" stroke="#000000" stroke-width="0.3985" fill="#F2F2F2" fill-rule="nonzero" /><path id="440" transform="matrix(1 0 0 -1 0 841)" d="M269.2932 319.6324L354.3337 319.6324" stroke="#000000" stroke-width="1.19553" fill="none" /><path id="467" transform="matrix(1 0 0 -1 0 841)" d="M289.1359 282.7815L311.8135 319.6324" stroke="#000000" stroke-width="1.19553" fill="none" /><path id="468" transform="matrix(1 0 0 -1 0 841)" d="M334.491 282.7815L311.8135 319.6324" stroke="#000000" stroke-width="1.19553" fill="none" /><path id="472" transform="matrix(1 0 0 -1 0 841)" d="M113.508 204.591L129.261 204.591" stroke="#000000" stroke-width="0.436" fill="none" /><path id="483" transform="matrix(1 0 0 -1 0 841)" d="M167.132 204.591L184.706 204.591" stroke="#000000" stroke-width="0.436" fill="none" /><path id="503" transform="matrix(1 0 0 -1 0 841)" d="M257.392 204.591L271.334 204.591" stroke="#000000" stroke-width="0.436" fill="none" /><path id="518" transform="matrix(1 0 0 -1 0 841)" d="M160.504 159.145L178.078 159.145" stroke="#000000" stroke-width="0.436" fill="none" /><path id="526" transform="matrix(1 0 0 -1 0 841)" d="M238.924 173.245L254.677 173.245" stroke="#000000" stroke-width="0.436" fill="none" /><path id="530" transform="matrix(1 0 0 -1 0 841)" d="M193.794 159.145L299.807 159.145" stroke="#000000" stroke-width="0.436" fill="none" /><path id="546" transform="matrix(1 0 0 -1 0 841)" d="M256.799 147.996L270.741 147.996" stroke="#000000" stroke-width="0.436" fill="none" /><path id="558" transform="matrix(1 0 0 -1 0 841)" d="M337.929 173.245L353.682 173.245" stroke="#000000" stroke-width="0.436" fill="none" /><path id="562" transform="matrix(1 0 0 -1 0 841)" d="M315.522 159.145L370.634 159.145" stroke="#000000" stroke-width="0.436" fill="none" /><path id="567" transform="matrix(1 0 0 -1 0 841)" d="M327.627 147.996L341.569 147.996" stroke="#000000" stroke-width="0.436" fill="none" /><path id="585" transform="matrix(1 0 0 -1 0 841)" d="M427.553 159.145L445.127 159.145" stroke="#000000" stroke-width="0.436" fill="none" /><path id="599" transform="matrix(1 0 0 -1 0 841)" d="M154.711 111.073L172.285 111.073" stroke="#000000" stroke-width="0.436" fill="none" /><path id="620" transform="matrix(1 0 0 -1 0 841)" d="M183.161 111.073L269.203 111.073" stroke="#000000" stroke-width="0.436" fill="none" /><path id="637" transform="matrix(1 0 0 -1 0 841)" d="M283.723 127.135L385.269 127.135L385.269 131.12L283.723 131.12z" stroke="none" fill="#000000" fill-rule="nonzero" /><path id="638" transform="matrix(1 0 0 -1 0 841)" d="M283.723 92.898L287.708 92.898L287.708 129.127L283.723 129.127z" stroke="none" fill="#000000" fill-rule="nonzero" /><path id="639" transform="matrix(1 0 0 -1 0 841)" d="M381.284 92.898L385.269 92.898L385.269 129.127L381.284 129.127z" stroke="none" fill="#000000" fill-rule="nonzero" /><path id="640" transform="matrix(1 0 0 -1 0 841)" d="M283.723 90.906L385.269 90.906L385.269 94.891L283.723 94.891z" stroke="none" fill="#000000" fill-rule="nonzero" /></g></g></svg>