<svg xmlns="http://www.w3.org/2000/svg" xmlns:xlink="http://www.w3.org/1999/xlink" id="body_66" preserveAspectRatio="xMinYMin meet" viewBox="0 0 793 1121"><defs><clipPath id="1"><path id="" clip-rule="evenodd" transform="matrix(1 0 0 1 0 0)" d="M0 841L0 -0.8900146L0 -0.8900146L595.276 -0.8900146L595.276 -0.8900146L595.276 841L595.276 841L0 841z" /></clipPath></defs><g transform="matrix(1.333333 0 0 1.333333 0 0)"><g clip-path="url(#1)"><path id="45" transform="matrix(1 0 0 -1 0 841)" d="M85.039 766.564L510.236 766.564" stroke="#000000" stroke-width="0.498" fill="none" /><path id="552" transform="matrix(1 0 0 -1 0 841)" d="M173.271 599.211L346.256 599.211" stroke="#000000" stroke-width="0.436" fill="none" /><path id="578" transform="matrix(1 0 0 -1 0 841)" d="M361.972 599.211L381.357 599.211" stroke="#000000" stroke-width="0.436" fill="none" /><path id="587" transform="matrix(1 0 0 -1 0 841)" d="M395.877 615.12L440.455 615.12L440.455 619.105L395.877 619.105z" stroke="none" fill="#000000" fill-rule="nonzero" /><path id="588" transform="matrix(1 0 0 -1 0 841)" d="M395.877 583.152L399.862 583.152L399.862 617.112L395.877 617.112z" stroke="none" fill="#000000" fill-rule="nonzero" /><path id="589" transform="matrix(1 0 0 -1 0 841)" d="M436.47 583.152L440.455 583.152L440.455 617.112L436.47 617.112z" stroke="none" fill="#000000" fill-rule="nonzero" /><path id="590" transform="matrix(1 0 0 -1 0 841)" d="M395.877 581.16L440.455 581.16L440.455 585.145L395.877 585.145z" stroke="none" fill="#000000" fill-rule="nonzero" /><path id="1512" transform="matrix(1 0 0 -1 0 841)" d="M84.79 235.249L102.252 235.249" stroke="#000000" stroke-width="0.491" fill="none" /><path id="1516" transform="matrix(1 0 0 -1 0 841)" d="M102.003 235.249L104.73 235.249" stroke="#000000" stroke-width="0.491" fill="none" /><path id="1517" transform="matrix(1 0 0 -1 0 841)" d="M104.481 235.249L123.164 235.249" stroke="#000000" stroke-width="0.491" fill="none" /><path id="1521" transform="matrix(1 0 0 -1 0 841)" d="M122.666 235.249L129.229 235.249" stroke="#000000" stroke-width="0.491" fill="none" /><path id="1524" transform="matrix(1 0 0 -1 0 841)" d="M128.732 235.249L142.561 235.249" stroke="#000000" stroke-width="0.491" fill="none" /><path id="1528" transform="matrix(1 0 0 -1 0 841)" d="M142.062 235.249L146.193 235.249" stroke="#000000" stroke-width="0.491" fill="none" /><path id="1530" transform="matrix(1 0 0 -1 0 841)" d="M145.695 235.249L168.12 235.249" stroke="#000000" stroke-width="0.491" fill="none" /><path id="1535" transform="matrix(1 0 0 -1 0 841)" d="M167.871 235.249L170.598 235.249" stroke="#000000" stroke-width="0.491" fill="none" /><path id="1536" transform="matrix(1 0 0 -1 0 841)" d="M170.349 235.249L185.389 235.249" stroke="#000000" stroke-width="0.491" fill="none" /><path id="1540" transform="matrix(1 0 0 -1 0 841)" d="M184.891 235.249L204.174 235.249" stroke="#000000" stroke-width="0.491" fill="none" /><path id="1544" transform="matrix(1 0 0 -1 0 841)" d="M203.676 235.249L212.05 235.249" stroke="#000000" stroke-width="0.491" fill="none" /><path id="1547" transform="matrix(1 0 0 -1 0 841)" d="M211.552 235.249L229.024 235.249" stroke="#000000" stroke-width="0.491" fill="none" /><path id="1552" transform="matrix(1 0 0 -1 0 841)" d="M228.776 235.249L231.503 235.249" stroke="#000000" stroke-width="0.491" fill="none" /><path id="1553" transform="matrix(1 0 0 -1 0 841)" d="M231.254 235.249L249.926 235.249" stroke="#000000" stroke-width="0.491" fill="none" /><path id="1558" transform="matrix(1 0 0 -1 0 841)" d="M249.428 235.249L274.166 235.249" stroke="#000000" stroke-width="0.491" fill="none" /></g></g></svg>