<svg xmlns="http://www.w3.org/2000/svg" xmlns:xlink="http://www.w3.org/1999/xlink" id="body_268" preserveAspectRatio="xMinYMin meet" viewBox="0 0 793 1121"><defs><clipPath id="1"><path id="" clip-rule="evenodd" transform="matrix(1 0 0 1 0 0)" d="M0 841L0 -0.8900146L0 -0.8900146L595.276 -0.8900146L595.276 -0.8900146L595.276 841L595.276 841L0 841z" /></clipPath></defs><g transform="matrix(1.333333 0 0 1.333333 0 0)"><g clip-path="url(#1)"><path id="23" transform="matrix(1 0 0 -1 0 841)" d="M85.039 766.564L510.236 766.564" stroke="#000000" stroke-width="0.498" fill="none" /><path id="215" transform="matrix(1 0 0 -1 0 841)" d="M306.423 682.861L340.903 682.861" stroke="#000000" stroke-width="0.436" fill="none" /><path id="622" transform="matrix(1 0 0 -1 0 841)" d="M196.108 428.878L242.757 428.878" stroke="#000000" stroke-width="0.436" fill="none" /><path id="681" transform="matrix(1 0 0 -1 0 841)" d="M286.421 402.435L299.752 402.435" stroke="#000000" stroke-width="0.436" fill="none" /><path id="713" transform="matrix(1 0 0 -1 0 841)" d="M289.716 381.71L303.047 381.71" stroke="#000000" stroke-width="0.436" fill="none" /><path id="744" transform="matrix(1 0 0 -1 0 841)" d="M285.482 360.985L298.813 360.985" stroke="#000000" stroke-width="0.436" fill="none" /><path id="777" transform="matrix(1 0 0 -1 0 841)" d="M297.33 340.26L310.661 340.26" stroke="#000000" stroke-width="0.436" fill="none" /><path id="808" transform="matrix(1 0 0 -1 0 841)" d="M286.694 319.535L300.025 319.535" stroke="#000000" stroke-width="0.436" fill="none" /><path id="843" transform="matrix(1 0 0 -1 0 841)" d="M305.807 298.81L319.138 298.81" stroke="#000000" stroke-width="0.436" fill="none" /><path id="1253" transform="matrix(1 0 0 -1 0 841)" d="M326.233 111.428L455.506 111.428" stroke="#000000" stroke-width="0.436" fill="none" /></g></g></svg>