<svg xmlns="http://www.w3.org/2000/svg" xmlns:xlink="http://www.w3.org/1999/xlink" id="body_345" preserveAspectRatio="xMinYMin meet" viewBox="0 0 793 1121"><defs><clipPath id="1"><path id="" clip-rule="evenodd" transform="matrix(1 0 0 1 0 0)" d="M0 841L0 -0.8900146L0 -0.8900146L595.276 -0.8900146L595.276 -0.8900146L595.276 841L595.276 841L0 841z" /></clipPath></defs><g transform="matrix(1.333333 0 0 1.333333 0 0)"><g clip-path="url(#1)"><path id="22" transform="matrix(1 0 0 -1 0 841)" d="M85.039 766.564L510.236 766.564" stroke="#000000" stroke-width="0.498" fill="none" /><g transform="matrix(0.06 0 0 0.06 112.312 84.15002)"><g transform="matrix(1 0 0 1 0 0)"><image x="0" y="0" xlink:href="img_411.png" width="3009" height="713" /></g></g><g transform="matrix(0.06981818 0 0 0.06981815 112.312 133.5968)"><g transform="matrix(1 0 0 1 0 0)"><image x="0" y="0" xlink:href="img_482.png" width="1585" height="521" /></g></g><path id="30" transform="matrix(1 0 0 -1 0 841)" d="M113.508 644.468L145.024 644.468" stroke="#000000" stroke-width="0.436" fill="none" /><path id="52" transform="matrix(1 0 0 -1 0 841)" d="M159.544 660.3779L291.383 660.3779L291.383 664.3629L159.544 664.3629z" stroke="none" fill="#000000" fill-rule="nonzero" /><path id="53" transform="matrix(1 0 0 -1 0 841)" d="M159.544 626.0479L163.529 626.0479L163.529 662.3699L159.544 662.3699z" stroke="none" fill="#000000" fill-rule="nonzero" /><path id="54" transform="matrix(1 0 0 -1 0 841)" d="M287.398 626.0479L291.383 626.0479L291.383 662.3699L287.398 662.3699z" stroke="none" fill="#000000" fill-rule="nonzero" /><path id="55" transform="matrix(1 0 0 -1 0 841)" d="M159.544 624.0549L291.383 624.0549L291.383 628.0399L159.544 628.0399z" stroke="none" fill="#000000" fill-rule="nonzero" /><g transform="matrix(0.06 0 0 0.06 112.312 294.2601)"><g transform="matrix(1 0 0 1 0 0)"><image x="0" y="0" xlink:href="img_411.png" width="3009" height="713" /></g></g><g transform="matrix(0.06981818 0 0 0.06981815 112.312 343.7068)"><g transform="matrix(1 0 0 1 0 0)"><image x="0" y="0" xlink:href="img_482.png" width="1585" height="521" /></g></g><path id="223" transform="matrix(1 0 0 -1 0 841)" d="M138.491 434.2059L183.938 434.2059" stroke="#000000" stroke-width="0.436" fill="none" /><path id="241" transform="matrix(1 0 0 -1 0 841)" d="M226.329 450.2679L285.449 450.2679L285.449 454.2529L226.329 454.2529z" stroke="none" fill="#000000" fill-rule="nonzero" /><path id="242" transform="matrix(1 0 0 -1 0 841)" d="M226.329 417.9069L230.314 417.9069L230.314 452.2599L226.329 452.2599z" stroke="none" fill="#000000" fill-rule="nonzero" /><path id="243" transform="matrix(1 0 0 -1 0 841)" d="M281.463 417.9069L285.448 417.9069L285.448 452.2599L281.463 452.2599z" stroke="none" fill="#000000" fill-rule="nonzero" /><path id="244" transform="matrix(1 0 0 -1 0 841)" d="M226.329 415.9149L285.449 415.9149L285.449 419.8999L226.329 419.8999z" stroke="none" fill="#000000" fill-rule="nonzero" /><path id="409" transform="matrix(1 0 0 -1 0 841)" d="M243.507 242.4179C 299.6335 341.6317 300.7677 341.6317 356.8942 242.4179" stroke="#000000" stroke-width="0.3985" fill="none" /><path id="410" transform="matrix(1 0 0 -1 0 841)" d="M279.9009 320.1026C 279.9009 318.9814 288.9893 318.0725 300.2006 318.0725C 311.4119 318.0725 320.5003 318.9814 320.5003 320.1026L320.5003 320.1026L320.5003 338.2027C 320.5003 337.0815 311.4119 336.1726 300.2006 336.1726C 288.9893 336.1726 279.9009 337.0815 279.9009 338.2027z" stroke="none" fill="#E6E6FF" fill-rule="nonzero" /><path id="411" transform="matrix(1 0 0 -1 0 841)" d="M279.9009 338.2027C 279.9009 339.3239 288.9893 340.2328 300.2006 340.2328C 311.4119 340.2328 320.5003 339.3239 320.5003 338.2027C 320.5003 337.0815 311.4119 336.1726 300.2006 336.1726C 288.9893 336.1726 279.9009 337.0815 279.9009 338.2027z" stroke="none" fill="#F6ADCE" fill-rule="nonzero" /><path id="412" transform="matrix(1 0 0 -1 0 841)" d="M279.9009 338.2027C 279.9009 337.0815 288.9893 336.1726 300.2006 336.1726C 311.4119 336.1726 320.5003 337.0815 320.5003 338.2027M279.9009 320.1026C 279.9009 318.9814 288.9893 318.0725 300.2006 318.0725C 311.4119 318.0725 320.5003 318.9814 320.5003 320.1026L320.5003 320.1026L320.5003 338.2027C 320.5003 339.3239 311.4119 340.2328 300.2006 340.2328C 288.9893 340.2328 279.9009 339.3239 279.9009 338.2027z" stroke="#800080" stroke-width="0.3985" fill="none" /><path id="420" transform="matrix(1 0 0 -1 0 841)" d="M280.1322 335.5424C 280.1322 334.434 289.117 333.5355 300.2006 333.5355C 311.2842 333.5355 320.2691 334.434 320.2691 335.5424L320.2691 335.5424L320.2691 351.0793C 320.2691 349.9709 311.2842 349.0724 300.2006 349.0724C 289.117 349.0724 280.1322 349.9709 280.1322 351.0793z" stroke="none" fill="#FFFFFF" fill-rule="nonzero" /><path id="421" transform="matrix(1 0 0 -1 0 841)" d="M280.1322 351.0793C 280.1322 352.1877 289.117 353.0863 300.2006 353.0863C 311.2842 353.0863 320.2691 352.1877 320.2691 351.0793C 320.2691 349.9709 311.2842 349.0724 300.2006 349.0724C 289.117 349.0724 280.1322 349.9709 280.1322 351.0793z" stroke="none" fill="#FFFFFF" fill-rule="nonzero" /><path id="422" transform="matrix(1 0 0 -1 0 841)" d="M280.1322 351.0793C 280.1322 349.9709 289.117 349.0724 300.2006 349.0724C 311.2842 349.0724 320.2691 349.9709 320.2691 351.0793M280.1322 335.5424C 280.1322 334.434 289.117 333.5355 300.2006 333.5355C 311.2842 333.5355 320.2691 334.434 320.2691 335.5424L320.2691 335.5424L320.2691 351.0793C 320.2691 352.1877 311.2842 353.0863 300.2006 353.0863C 289.117 353.0863 280.1322 352.1877 280.1322 351.0793z" stroke="#800080" stroke-width="0.3985" fill="none" /><g transform="matrix(0.1466 0 0 0.1466 115.948 567.3819)"><g transform="matrix(1 0 0 1 0 0)"><image x="0" y="0" xlink:href="img_484.png" width="580" height="387" /></g></g><g transform="matrix(0.18834 0 0 0.18834 130.121 605.5333)"><g transform="matrix(1 0 0 1 0 0)"><image x="0" y="0" xlink:href="img_485.png" width="301" height="167" /></g></g><path id="430" transform="matrix(1 0 0 -1 0 841)" d="M158.4666 216.906L158.4666 242.4179" stroke="#000000" stroke-width="1.59404" fill="none" /><path id="431" transform="matrix(1 0 0 -1 0 841)" d="M150.5295 260.2765L150.5295 330.2932" stroke="#000000" stroke-width="1.59404" fill="none" /><path id="432" transform="matrix(1 0 0 -1 0 841)" d="M150.5295 330.2932L275.929 330.2932" stroke="#000000" stroke-width="1.59404" fill="none" /><path id="433" transform="matrix(1 0 0 -1 0 841)" d="M273.2191 334.8439C 273.8598 332.1134 275.2876 330.8241 276.726 330.2932C 275.2876 329.7622 273.8598 328.4729 273.2191 325.7424" stroke="#000000" stroke-width="1.59404" stroke-linecap="round" fill="none" /><path id="434" transform="matrix(1 0 0 -1 0 841)" d="M150.5295 330.2932L275.929 330.2932" stroke="#000000" stroke-width="1.59404" fill="none" /><path id="435" transform="matrix(1 0 0 -1 0 841)" d="M273.2191 334.8439C 273.8598 332.1134 275.2876 330.8241 276.726 330.2932C 275.2876 329.7622 273.8598 328.4729 273.2191 325.7424" stroke="#000000" stroke-width="1.59404" stroke-linecap="round" fill="none" /><path id="436" transform="matrix(1 0 0 -1 0 841)" d="M192.4827 214.0711L314.374 214.0711" stroke="#000000" stroke-width="0.3985" stroke-dasharray="7.500201,7.500201" fill="none" /><path id="437" transform="matrix(1 0 0 -1 0 841)" d="M300.2006 214.4696L300.2006 334.1465" stroke="#000000" stroke-width="0.3985" fill="none" /><path id="438" transform="matrix(1 0 0 -1 0 841)" d="M302.5917 216.3426C 301.157 215.964 300.4796 215.1203 300.2006 214.2704C 299.9217 215.1203 299.2442 215.964 297.8096 216.3426" stroke="#000000" stroke-width="0.3985" stroke-linecap="round" fill="none" /><path id="439" transform="matrix(1 0 0 -1 0 841)" d="M297.8096 332.2735C 299.2442 332.6521 299.9217 333.4958 300.2006 334.3458C 300.4796 333.4958 301.157 332.6521 302.5917 332.2735" stroke="#000000" stroke-width="0.3985" stroke-linecap="round" fill="none" /><path id="520" transform="matrix(1 0 0 -1 0 841)" d="M206.449 131.7619L277.836 131.7619" stroke="#000000" stroke-width="0.436" fill="none" /><path id="547" transform="matrix(1 0 0 -1 0 841)" d="M292.356 147.8239L418.167 147.8239L418.167 151.8089L292.356 151.8089z" stroke="none" fill="#000000" fill-rule="nonzero" /><path id="548" transform="matrix(1 0 0 -1 0 841)" d="M292.356 113.4779L296.341 113.4779L296.341 149.8159L292.356 149.8159z" stroke="none" fill="#000000" fill-rule="nonzero" /><path id="549" transform="matrix(1 0 0 -1 0 841)" d="M414.182 113.4779L418.167 113.4779L418.167 149.8159L414.182 149.8159z" stroke="none" fill="#000000" fill-rule="nonzero" /><path id="550" transform="matrix(1 0 0 -1 0 841)" d="M292.356 111.4849L418.167 111.4849L418.167 115.4699L292.356 115.4699z" stroke="none" fill="#000000" fill-rule="nonzero" /></g></g></svg>