<svg xmlns="http://www.w3.org/2000/svg" xmlns:xlink="http://www.w3.org/1999/xlink" id="body_98" preserveAspectRatio="xMinYMin meet" viewBox="0 0 793 1121"><defs><clipPath id="1"><path id="" clip-rule="evenodd" transform="matrix(1 0 0 1 0 0)" d="M0 841L0 -0.8900146L0 -0.8900146L595.276 -0.8900146L595.276 -0.8900146L595.276 841L595.276 841L0 841z" /></clipPath></defs><g transform="matrix(1.333333 0 0 1.333333 0 0)"><g clip-path="url(#1)"><path id="44" transform="matrix(1 0 0 -1 0 841)" d="M85.039 766.564L510.236 766.564" stroke="#000000" stroke-width="0.498" fill="none" /><path id="45" transform="matrix(1 0 0 -1 0 841)" d="M85.039 100.6L85.039 756.8589L510.2413 756.8589L510.2413 100.6z" stroke="none" fill="#BFBFFF" fill-rule="nonzero" /><path id="46" transform="matrix(1 0 0 -1 0 841)" d="M86.45631 100.6L86.45631 756.8589L508.824 756.8589L508.824 100.6z" stroke="none" fill="#E6E6FF" fill-rule="nonzero" /></g></g></svg>