<svg xmlns="http://www.w3.org/2000/svg" xmlns:xlink="http://www.w3.org/1999/xlink" id="body_285" preserveAspectRatio="xMinYMin meet" viewBox="0 0 793 1121"><defs><clipPath id="1"><path id="" clip-rule="evenodd" transform="matrix(1 0 0 1 0 0)" d="M0 841L0 -0.8900146L0 -0.8900146L595.276 -0.8900146L595.276 -0.8900146L595.276 841L595.276 841L0 841z" /></clipPath></defs><g transform="matrix(1.333333 0 0 1.333333 0 0)"><g clip-path="url(#1)"><path id="22" transform="matrix(1 0 0 -1 0 841)" d="M85.039 766.564L510.236 766.564" stroke="#000000" stroke-width="0.498" fill="none" /><path id="1085" transform="matrix(1 0 0 -1 0 841)" d="M193.802 431.149L247.289 431.149" stroke="#000000" stroke-width="0.436" fill="none" /><path id="1101" transform="matrix(1 0 0 -1 0 841)" d="M263.005 431.149L298.765 431.149" stroke="#000000" stroke-width="0.436" fill="none" /><path id="1212" transform="matrix(1 0 0 -1 0 841)" d="M191.075 363.331L244.562 363.331" stroke="#000000" stroke-width="0.436" fill="none" /><path id="1238" transform="matrix(1 0 0 -1 0 841)" d="M194.097 339.906L247.584 339.906" stroke="#000000" stroke-width="0.436" fill="none" /><path id="1261" transform="matrix(1 0 0 -1 0 841)" d="M341.324 339.906L357.688 339.906" stroke="#000000" stroke-width="0.436" fill="none" /><path id="1269" transform="matrix(1 0 0 -1 0 841)" d="M372.207 347.818L396.556 347.818" stroke="#000000" stroke-width="0.398" fill="none" /><path id="1270" transform="matrix(1 0 0 -1 0 841)" d="M372.407 333.822L372.407 347.818" stroke="#000000" stroke-width="0.398" fill="none" /><path id="1271" transform="matrix(1 0 0 -1 0 841)" d="M396.357 333.822L396.357 347.818" stroke="#000000" stroke-width="0.398" fill="none" /><path id="1272" transform="matrix(1 0 0 -1 0 841)" d="M372.207 333.822L396.556 333.822" stroke="#000000" stroke-width="0.398" fill="none" /><path id="1492" transform="matrix(1 0 0 -1 0 841)" d="M191.075 248.297L244.562 248.297" stroke="#000000" stroke-width="0.436" fill="none" /><path id="1508" transform="matrix(1 0 0 -1 0 841)" d="M260.278 248.297L296.038 248.297" stroke="#000000" stroke-width="0.436" fill="none" /></g></g></svg>