<svg xmlns="http://www.w3.org/2000/svg" xmlns:xlink="http://www.w3.org/1999/xlink" id="body_351" preserveAspectRatio="xMinYMin meet" viewBox="0 0 793 1121"><defs><clipPath id="1"><path id="" clip-rule="evenodd" transform="matrix(1 0 0 1 0 0)" d="M0 841L0 -0.8900146L0 -0.8900146L595.276 -0.8900146L595.276 -0.8900146L595.276 841L595.276 841L0 841z" /></clipPath></defs><g transform="matrix(1.333333 0 0 1.333333 0 0)"><g clip-path="url(#1)"><path id="34" transform="matrix(1 0 0 -1 0 841)" d="M85.039 766.564L510.236 766.564" stroke="#000000" stroke-width="0.498" fill="none" /><g transform="matrix(0.06 0 0 0.06 112.312 110.955)"><g transform="matrix(1 0 0 1 0 0)"><image x="0" y="0" xlink:href="img_427.png" width="3009" height="713" /></g></g><g transform="matrix(0.08727273 0 0 0.0872727 112.312 160.4)"><g transform="matrix(1 0 0 1 0 0)"><image x="0" y="0" xlink:href="img_494.png" width="1585" height="521" /></g></g><path id="58" transform="matrix(1 0 0 -1 0 841)" d="M279.543 637.859L340.47 637.859" stroke="#000000" stroke-width="0.436" fill="none" /><path id="76" transform="matrix(1 0 0 -1 0 841)" d="M382.86 645.77L409.631 645.77" stroke="#000000" stroke-width="0.398" fill="none" /><path id="77" transform="matrix(1 0 0 -1 0 841)" d="M383.06 631.774L383.06 645.77" stroke="#000000" stroke-width="0.398" fill="none" /><path id="78" transform="matrix(1 0 0 -1 0 841)" d="M409.432 631.774L409.432 645.77" stroke="#000000" stroke-width="0.398" fill="none" /><path id="79" transform="matrix(1 0 0 -1 0 841)" d="M382.86 631.774L409.631 631.774" stroke="#000000" stroke-width="0.398" fill="none" /><path id="246" transform="matrix(1 0 0 -1 0 841)" d="M389.714 548.17L416.485 548.17" stroke="#000000" stroke-width="0.398" fill="none" /><path id="247" transform="matrix(1 0 0 -1 0 841)" d="M389.913 534.37L389.913 548.17" stroke="#000000" stroke-width="0.398" fill="none" /><path id="248" transform="matrix(1 0 0 -1 0 841)" d="M416.285 534.37L416.285 548.17" stroke="#000000" stroke-width="0.398" fill="none" /><path id="249" transform="matrix(1 0 0 -1 0 841)" d="M389.714 534.37L416.485 534.37" stroke="#000000" stroke-width="0.398" fill="none" /><g transform="matrix(0.06 0 0 0.06 112.312 357.556)"><g transform="matrix(1 0 0 1 0 0)"><image x="0" y="0" xlink:href="img_427.png" width="3009" height="713" /></g></g><g transform="matrix(0.06981818 0 0 0.06981815 112.312 407.0018)"><g transform="matrix(1 0 0 1 0 0)"><image x="0" y="0" xlink:href="img_494.png" width="1585" height="521" /></g></g><path id="384" transform="matrix(1 0 0 -1 0 841)" d="M113.508 377.744L145.024 377.744" stroke="#000000" stroke-width="0.436" fill="none" /><path id="406" transform="matrix(1 0 0 -1 0 841)" d="M159.544 385.503L267.511 385.503" stroke="#000000" stroke-width="0.398" fill="none" /><path id="407" transform="matrix(1 0 0 -1 0 841)" d="M159.743 369.467L159.743 385.503" stroke="#000000" stroke-width="0.398" fill="none" /><path id="408" transform="matrix(1 0 0 -1 0 841)" d="M267.312 369.467L267.312 385.503" stroke="#000000" stroke-width="0.398" fill="none" /><path id="409" transform="matrix(1 0 0 -1 0 841)" d="M159.544 369.467L267.511 369.467" stroke="#000000" stroke-width="0.398" fill="none" /><g transform="matrix(0.06 0 0 0.06 112.312 551.843)"><g transform="matrix(1 0 0 1 0 0)"><image x="0" y="0" xlink:href="img_427.png" width="3009" height="713" /></g></g><g transform="matrix(0.06981818 0 0 0.06981815 112.312 601.2888)"><g transform="matrix(1 0 0 1 0 0)"><image x="0" y="0" xlink:href="img_494.png" width="1585" height="521" /></g></g><path id="577" transform="matrix(1 0 0 -1 0 841)" d="M138.491 183.457L183.938 183.457" stroke="#000000" stroke-width="0.436" fill="none" /><path id="595" transform="matrix(1 0 0 -1 0 841)" d="M226.329 191.369L261.576 191.369" stroke="#000000" stroke-width="0.398" fill="none" /><path id="596" transform="matrix(1 0 0 -1 0 841)" d="M226.528 177.302L226.528 191.369" stroke="#000000" stroke-width="0.398" fill="none" /><path id="597" transform="matrix(1 0 0 -1 0 841)" d="M261.377 177.302L261.377 191.369" stroke="#000000" stroke-width="0.398" fill="none" /><path id="598" transform="matrix(1 0 0 -1 0 841)" d="M226.329 177.302L261.576 177.302" stroke="#000000" stroke-width="0.398" fill="none" /></g></g></svg>