<svg xmlns="http://www.w3.org/2000/svg" xmlns:xlink="http://www.w3.org/1999/xlink" id="body_291" preserveAspectRatio="xMinYMin meet" viewBox="0 0 793 1121"><defs><clipPath id="1"><path id="" clip-rule="evenodd" transform="matrix(1 0 0 1 0 0)" d="M0 841L0 -0.8900146L0 -0.8900146L595.276 -0.8900146L595.276 -0.8900146L595.276 841L595.276 841L0 841z" /></clipPath></defs><g transform="matrix(1.333333 0 0 1.333333 0 0)"><g clip-path="url(#1)"><path id="23" transform="matrix(1 0 0 -1 0 841)" d="M85.039 766.564L510.236 766.564" stroke="#000000" stroke-width="0.498" fill="none" /><path id="141" transform="matrix(1 0 0 -1 0 841)" d="M122.137 697.895L325.76 697.895" stroke="#000000" stroke-width="0.436" fill="none" /><path id="160" transform="matrix(1 0 0 -1 0 841)" d="M213.089 684.199L258.612 684.199" stroke="#000000" stroke-width="0.436" fill="none" /><path id="192" transform="matrix(1 0 0 -1 0 841)" d="M337.562 697.895L402.953 697.895" stroke="#000000" stroke-width="0.436" fill="none" /><path id="206" transform="matrix(1 0 0 -1 0 841)" d="M423.384 697.895L480.767 697.895" stroke="#000000" stroke-width="0.436" fill="none" /><path id="221" transform="matrix(1 0 0 -1 0 841)" d="M112.312 670.568L142.105 670.568" stroke="#000000" stroke-width="0.398" fill="none" /><path id="222" transform="matrix(1 0 0 -1 0 841)" d="M112.511 656.572L112.511 670.568" stroke="#000000" stroke-width="0.398" fill="none" /><path id="223" transform="matrix(1 0 0 -1 0 841)" d="M141.906 656.572L141.906 670.568" stroke="#000000" stroke-width="0.398" fill="none" /><path id="224" transform="matrix(1 0 0 -1 0 841)" d="M112.312 656.572L142.105 656.572" stroke="#000000" stroke-width="0.398" fill="none" /></g></g></svg>