<svg xmlns="http://www.w3.org/2000/svg" xmlns:xlink="http://www.w3.org/1999/xlink" id="body_367" preserveAspectRatio="xMinYMin meet" viewBox="0 0 793 1121"><defs><clipPath id="1"><path id="" clip-rule="evenodd" transform="matrix(1 0 0 1 0 0)" d="M0 841L0 -0.8900146L0 -0.8900146L595.276 -0.8900146L595.276 -0.8900146L595.276 841L595.276 841L0 841z" /></clipPath></defs><g transform="matrix(1.333333 0 0 1.333333 0 0)"><g clip-path="url(#1)"><path id="22" transform="matrix(1 0 0 -1 0 841)" d="M85.039 766.564L510.236 766.564" stroke="#000000" stroke-width="0.498" fill="none" /><path id="74" transform="matrix(1 0 0 -1 0 841)" d="M313.407 732.595L338.258 732.595" stroke="#000000" stroke-width="0.436" fill="none" /><path id="95" transform="matrix(1 0 0 -1 0 841)" d="M392.452 732.595L406.95 732.595" stroke="#000000" stroke-width="0.436" fill="none" /><path id="101" transform="matrix(1 0 0 -1 0 841)" d="M227.98 715.641L408.146 715.641" stroke="#000000" stroke-width="0.436" fill="none" /><path id="124" transform="matrix(1 0 0 -1 0 841)" d="M422.666 725.939L488.13 725.939" stroke="#000000" stroke-width="0.398" fill="none" /><path id="125" transform="matrix(1 0 0 -1 0 841)" d="M422.865 706.999L422.865 725.94" stroke="#000000" stroke-width="0.398" fill="none" /><path id="126" transform="matrix(1 0 0 -1 0 841)" d="M487.931 706.999L487.931 725.94" stroke="#000000" stroke-width="0.398" fill="none" /><path id="127" transform="matrix(1 0 0 -1 0 841)" d="M422.666 706.999L488.13 706.999" stroke="#000000" stroke-width="0.398" fill="none" /><path id="281" transform="matrix(1 0 0 -1 0 841)" d="M212.512 626.833L277.892 626.833" stroke="#000000" stroke-width="0.436" fill="none" /><path id="301" transform="matrix(1 0 0 -1 0 841)" d="M320.282 634.592L341.598 634.592" stroke="#000000" stroke-width="0.398" fill="none" /><path id="302" transform="matrix(1 0 0 -1 0 841)" d="M320.481 620.793L320.481 634.593" stroke="#000000" stroke-width="0.398" fill="none" /><path id="303" transform="matrix(1 0 0 -1 0 841)" d="M341.399 620.793L341.399 634.593" stroke="#000000" stroke-width="0.398" fill="none" /><path id="304" transform="matrix(1 0 0 -1 0 841)" d="M320.282 620.793L341.598 620.793" stroke="#000000" stroke-width="0.398" fill="none" /><path id="497" transform="matrix(1 0 0 -1 0 841)" d="M304.64 536.683L455.65 536.683" stroke="#000000" stroke-width="0.436" fill="none" /><path id="647" transform="matrix(1 0 0 -1 0 841)" d="M265.633 467.813L316.536 467.813" stroke="#000000" stroke-width="0.436" fill="none" /><path id="663" transform="matrix(1 0 0 -1 0 841)" d="M339.062 467.813L358.458 467.813" stroke="#000000" stroke-width="0.436" fill="none" /><path id="666" transform="matrix(1 0 0 -1 0 841)" d="M255.809 449.922L359.654 449.922" stroke="#000000" stroke-width="0.436" fill="none" /><path id="687" transform="matrix(1 0 0 -1 0 841)" d="M374.174 458.505L422.163 458.505" stroke="#000000" stroke-width="0.398" fill="none" /><path id="688" transform="matrix(1 0 0 -1 0 841)" d="M374.374 441.28L374.374 458.505" stroke="#000000" stroke-width="0.398" fill="none" /><path id="689" transform="matrix(1 0 0 -1 0 841)" d="M421.964 441.28L421.964 458.505" stroke="#000000" stroke-width="0.398" fill="none" /><path id="690" transform="matrix(1 0 0 -1 0 841)" d="M374.174 441.28L422.163 441.28" stroke="#000000" stroke-width="0.398" fill="none" /><path id="826" transform="matrix(1 0 0 -1 0 841)" d="M239.818 358.073L273.45 358.073" stroke="#000000" stroke-width="0.436" fill="none" /><path id="838" transform="matrix(1 0 0 -1 0 841)" d="M284.325 358.073L323.663 358.073" stroke="#000000" stroke-width="0.436" fill="none" /><path id="848" transform="matrix(1 0 0 -1 0 841)" d="M334.539 358.073L364.833 358.073" stroke="#000000" stroke-width="0.436" fill="none" /><path id="852" transform="matrix(1 0 0 -1 0 841)" d="M238.622 344.056L366.028 344.056" stroke="#000000" stroke-width="0.436" fill="none" /><path id="870" transform="matrix(1 0 0 -1 0 841)" d="M385.132 344.056L424.121 344.056" stroke="#000000" stroke-width="0.436" fill="none" /><path id="873" transform="matrix(1 0 0 -1 0 841)" d="M380.549 359.353L428.703 359.353" stroke="#000000" stroke-width="0.398" fill="none" /><path id="874" transform="matrix(1 0 0 -1 0 841)" d="M380.748 328.377L380.748 359.353" stroke="#000000" stroke-width="0.398" fill="none" /><path id="875" transform="matrix(1 0 0 -1 0 841)" d="M428.504 328.377L428.504 359.353" stroke="#000000" stroke-width="0.398" fill="none" /><path id="876" transform="matrix(1 0 0 -1 0 841)" d="M380.549 328.377L428.703 328.377" stroke="#000000" stroke-width="0.398" fill="none" /></g></g></svg>