<svg xmlns="http://www.w3.org/2000/svg" xmlns:xlink="http://www.w3.org/1999/xlink" id="body_174" preserveAspectRatio="xMinYMin meet" viewBox="0 0 793 1121"><defs><clipPath id="1"><path id="" clip-rule="evenodd" transform="matrix(1 0 0 1 0 0)" d="M0 841L0 -0.8900146L0 -0.8900146L595.276 -0.8900146L595.276 -0.8900146L595.276 841L595.276 841L0 841z" /></clipPath></defs><g transform="matrix(1.333333 0 0 1.333333 0 0)"><g clip-path="url(#1)"><path id="4" transform="matrix(1 0 0 -1 0 841)" d="M85.039 766.564L510.236 766.564" stroke="#000000" stroke-width="0.498" fill="none" /><path id="5" transform="matrix(1 0 0 -1 0 841)" d="M85.039 756.651L492.552 756.651" stroke="#000000" stroke-width="0.398" fill="none" /><path id="6" transform="matrix(1 0 0 -1 0 841)" d="M85.239 742.903L85.239 756.452" stroke="#000000" stroke-width="0.398" fill="none" /><path id="51" transform="matrix(1 0 0 -1 0 841)" d="M492.353 742.903L492.353 756.452" stroke="#000000" stroke-width="0.398" fill="none" /><path id="52" transform="matrix(1 0 0 -1 0 841)" d="M85.039 742.703L492.552 742.703" stroke="#000000" stroke-width="0.398" fill="none" /><path id="53" transform="matrix(1 0 0 -1 0 841)" d="M85.239 728.955L85.239 742.504" stroke="#000000" stroke-width="0.398" fill="none" /><path id="108" transform="matrix(1 0 0 -1 0 841)" d="M492.353 728.955L492.353 742.504" stroke="#000000" stroke-width="0.398" fill="none" /><path id="109" transform="matrix(1 0 0 -1 0 841)" d="M85.039 728.756L492.552 728.756" stroke="#000000" stroke-width="0.398" fill="none" /><path id="110" transform="matrix(1 0 0 -1 0 841)" d="M97.194 715.007L97.194 728.556" stroke="#000000" stroke-width="0.398" fill="none" /><path id="116" transform="matrix(1 0 0 -1 0 841)" d="M139.842 715.007L139.842 728.556" stroke="#000000" stroke-width="0.398" fill="none" /><path id="166" transform="matrix(1 0 0 -1 0 841)" d="M492.353 715.007L492.353 728.556" stroke="#000000" stroke-width="0.398" fill="none" /><path id="167" transform="matrix(1 0 0 -1 0 841)" d="M97.393 714.808L492.552 714.808" stroke="#000000" stroke-width="0.398" fill="none" /><path id="168" transform="matrix(1 0 0 -1 0 841)" d="M97.194 701.458L97.194 715.007" stroke="#000000" stroke-width="0.398" fill="none" /><path id="174" transform="matrix(1 0 0 -1 0 841)" d="M139.842 701.458L139.842 715.007" stroke="#000000" stroke-width="0.398" fill="none" /><path id="203" transform="matrix(1 0 0 -1 0 841)" d="M492.353 701.458L492.353 715.007" stroke="#000000" stroke-width="0.398" fill="none" /><path id="204" transform="matrix(1 0 0 -1 0 841)" d="M97.393 701.259L492.552 701.259" stroke="#000000" stroke-width="0.398" fill="none" /><path id="205" transform="matrix(1 0 0 -1 0 841)" d="M97.194 687.909L97.194 701.458" stroke="#000000" stroke-width="0.398" fill="none" /><path id="211" transform="matrix(1 0 0 -1 0 841)" d="M139.842 687.909L139.842 701.458" stroke="#000000" stroke-width="0.398" fill="none" /><path id="251" transform="matrix(1 0 0 -1 0 841)" d="M492.353 687.909L492.353 701.458" stroke="#000000" stroke-width="0.398" fill="none" /><path id="252" transform="matrix(1 0 0 -1 0 841)" d="M97.393 687.71L492.552 687.71" stroke="#000000" stroke-width="0.398" fill="none" /><path id="253" transform="matrix(1 0 0 -1 0 841)" d="M97.194 674.36L97.194 687.909" stroke="#000000" stroke-width="0.398" fill="none" /><path id="259" transform="matrix(1 0 0 -1 0 841)" d="M139.842 674.36L139.842 687.909" stroke="#000000" stroke-width="0.398" fill="none" /><path id="288" transform="matrix(1 0 0 -1 0 841)" d="M492.353 674.36L492.353 687.909" stroke="#000000" stroke-width="0.398" fill="none" /><path id="289" transform="matrix(1 0 0 -1 0 841)" d="M97.393 674.161L492.552 674.161" stroke="#000000" stroke-width="0.398" fill="none" /><path id="290" transform="matrix(1 0 0 -1 0 841)" d="M97.194 660.811L97.194 674.36" stroke="#000000" stroke-width="0.398" fill="none" /><path id="296" transform="matrix(1 0 0 -1 0 841)" d="M139.842 660.811L139.842 674.36" stroke="#000000" stroke-width="0.398" fill="none" /><path id="316" transform="matrix(1 0 0 -1 0 841)" d="M492.353 660.811L492.353 674.36" stroke="#000000" stroke-width="0.398" fill="none" /><path id="317" transform="matrix(1 0 0 -1 0 841)" d="M97.393 660.611L492.552 660.611" stroke="#000000" stroke-width="0.398" fill="none" /><path id="318" transform="matrix(1 0 0 -1 0 841)" d="M97.194 647.261L97.194 660.81" stroke="#000000" stroke-width="0.398" fill="none" /><path id="324" transform="matrix(1 0 0 -1 0 841)" d="M139.842 647.261L139.842 660.81" stroke="#000000" stroke-width="0.398" fill="none" /><path id="361" transform="matrix(1 0 0 -1 0 841)" d="M492.353 647.261L492.353 660.81" stroke="#000000" stroke-width="0.398" fill="none" /><path id="362" transform="matrix(1 0 0 -1 0 841)" d="M97.393 647.062L492.552 647.062" stroke="#000000" stroke-width="0.398" fill="none" /><path id="363" transform="matrix(1 0 0 -1 0 841)" d="M97.194 633.712L97.194 647.261" stroke="#000000" stroke-width="0.398" fill="none" /><path id="369" transform="matrix(1 0 0 -1 0 841)" d="M139.842 633.712L139.842 647.261" stroke="#000000" stroke-width="0.398" fill="none" /><path id="419" transform="matrix(1 0 0 -1 0 841)" d="M492.353 633.712L492.353 647.261" stroke="#000000" stroke-width="0.398" fill="none" /><path id="420" transform="matrix(1 0 0 -1 0 841)" d="M97.393 633.513L492.552 633.513" stroke="#000000" stroke-width="0.398" fill="none" /><path id="421" transform="matrix(1 0 0 -1 0 841)" d="M97.194 606.614L97.194 633.712" stroke="#000000" stroke-width="0.398" fill="none" /><path id="427" transform="matrix(1 0 0 -1 0 841)" d="M139.842 606.614L139.842 633.712" stroke="#000000" stroke-width="0.398" fill="none" /><path id="520" transform="matrix(1 0 0 -1 0 841)" d="M492.353 606.614L492.353 633.712" stroke="#000000" stroke-width="0.398" fill="none" /><path id="521" transform="matrix(1 0 0 -1 0 841)" d="M97.393 606.415L492.552 606.415" stroke="#000000" stroke-width="0.398" fill="none" /><path id="522" transform="matrix(1 0 0 -1 0 841)" d="M97.194 593.065L97.194 606.614" stroke="#000000" stroke-width="0.398" fill="none" /><path id="528" transform="matrix(1 0 0 -1 0 841)" d="M139.842 593.065L139.842 606.614" stroke="#000000" stroke-width="0.398" fill="none" /><path id="587" transform="matrix(1 0 0 -1 0 841)" d="M492.353 593.065L492.353 606.614" stroke="#000000" stroke-width="0.398" fill="none" /><path id="588" transform="matrix(1 0 0 -1 0 841)" d="M97.393 592.865L492.552 592.865" stroke="#000000" stroke-width="0.398" fill="none" /><path id="589" transform="matrix(1 0 0 -1 0 841)" d="M97.194 579.516L97.194 593.065" stroke="#000000" stroke-width="0.398" fill="none" /><path id="595" transform="matrix(1 0 0 -1 0 841)" d="M139.842 579.516L139.842 593.065" stroke="#000000" stroke-width="0.398" fill="none" /><path id="631" transform="matrix(1 0 0 -1 0 841)" d="M492.353 579.516L492.353 593.065" stroke="#000000" stroke-width="0.398" fill="none" /><path id="632" transform="matrix(1 0 0 -1 0 841)" d="M97.393 579.316L492.552 579.316" stroke="#000000" stroke-width="0.398" fill="none" /><path id="633" transform="matrix(1 0 0 -1 0 841)" d="M97.194 565.966L97.194 579.515" stroke="#000000" stroke-width="0.398" fill="none" /><path id="639" transform="matrix(1 0 0 -1 0 841)" d="M139.842 565.966L139.842 579.515" stroke="#000000" stroke-width="0.398" fill="none" /><path id="671" transform="matrix(1 0 0 -1 0 841)" d="M492.353 565.966L492.353 579.515" stroke="#000000" stroke-width="0.398" fill="none" /><path id="672" transform="matrix(1 0 0 -1 0 841)" d="M97.393 565.767L492.552 565.767" stroke="#000000" stroke-width="0.398" fill="none" /><path id="673" transform="matrix(1 0 0 -1 0 841)" d="M97.194 552.417L97.194 565.966" stroke="#000000" stroke-width="0.398" fill="none" /><path id="679" transform="matrix(1 0 0 -1 0 841)" d="M139.842 552.417L139.842 565.966" stroke="#000000" stroke-width="0.398" fill="none" /><path id="713" transform="matrix(1 0 0 -1 0 841)" d="M492.353 552.417L492.353 565.966" stroke="#000000" stroke-width="0.398" fill="none" /><path id="714" transform="matrix(1 0 0 -1 0 841)" d="M97.393 552.218L492.552 552.218" stroke="#000000" stroke-width="0.398" fill="none" /><path id="715" transform="matrix(1 0 0 -1 0 841)" d="M97.194 538.868L97.194 552.417" stroke="#000000" stroke-width="0.398" fill="none" /><path id="721" transform="matrix(1 0 0 -1 0 841)" d="M139.842 538.868L139.842 552.417" stroke="#000000" stroke-width="0.398" fill="none" /><path id="767" transform="matrix(1 0 0 -1 0 841)" d="M492.353 538.868L492.353 552.417" stroke="#000000" stroke-width="0.398" fill="none" /><path id="768" transform="matrix(1 0 0 -1 0 841)" d="M97.393 538.669L492.552 538.669" stroke="#000000" stroke-width="0.398" fill="none" /><path id="769" transform="matrix(1 0 0 -1 0 841)" d="M97.194 525.319L97.194 538.868" stroke="#000000" stroke-width="0.398" fill="none" /><path id="775" transform="matrix(1 0 0 -1 0 841)" d="M139.842 525.319L139.842 538.868" stroke="#000000" stroke-width="0.398" fill="none" /><path id="814" transform="matrix(1 0 0 -1 0 841)" d="M492.353 525.319L492.353 538.868" stroke="#000000" stroke-width="0.398" fill="none" /><path id="815" transform="matrix(1 0 0 -1 0 841)" d="M97.393 525.12L492.552 525.12" stroke="#000000" stroke-width="0.398" fill="none" /><path id="816" transform="matrix(1 0 0 -1 0 841)" d="M97.194 511.77L97.194 525.319" stroke="#000000" stroke-width="0.398" fill="none" /><path id="822" transform="matrix(1 0 0 -1 0 841)" d="M139.842 511.77L139.842 525.319" stroke="#000000" stroke-width="0.398" fill="none" /><path id="859" transform="matrix(1 0 0 -1 0 841)" d="M492.353 511.77L492.353 525.319" stroke="#000000" stroke-width="0.398" fill="none" /><path id="860" transform="matrix(1 0 0 -1 0 841)" d="M97.393 511.57L492.552 511.57" stroke="#000000" stroke-width="0.398" fill="none" /><path id="861" transform="matrix(1 0 0 -1 0 841)" d="M97.194 498.22L97.194 511.769" stroke="#000000" stroke-width="0.398" fill="none" /><path id="867" transform="matrix(1 0 0 -1 0 841)" d="M139.842 498.22L139.842 511.769" stroke="#000000" stroke-width="0.398" fill="none" /><path id="918" transform="matrix(1 0 0 -1 0 841)" d="M492.353 498.22L492.353 511.769" stroke="#000000" stroke-width="0.398" fill="none" /><path id="919" transform="matrix(1 0 0 -1 0 841)" d="M97.393 498.021L492.552 498.021" stroke="#000000" stroke-width="0.398" fill="none" /><path id="920" transform="matrix(1 0 0 -1 0 841)" d="M97.194 484.671L97.194 498.22" stroke="#000000" stroke-width="0.398" fill="none" /><path id="926" transform="matrix(1 0 0 -1 0 841)" d="M139.842 484.671L139.842 498.22" stroke="#000000" stroke-width="0.398" fill="none" /><path id="955" transform="matrix(1 0 0 -1 0 841)" d="M492.353 484.671L492.353 498.22" stroke="#000000" stroke-width="0.398" fill="none" /><path id="956" transform="matrix(1 0 0 -1 0 841)" d="M97.393 484.472L492.552 484.472" stroke="#000000" stroke-width="0.398" fill="none" /><path id="957" transform="matrix(1 0 0 -1 0 841)" d="M97.194 471.122L97.194 484.671" stroke="#000000" stroke-width="0.398" fill="none" /><path id="963" transform="matrix(1 0 0 -1 0 841)" d="M139.842 471.122L139.842 484.671" stroke="#000000" stroke-width="0.398" fill="none" /><path id="983" transform="matrix(1 0 0 -1 0 841)" d="M492.353 471.122L492.353 484.671" stroke="#000000" stroke-width="0.398" fill="none" /><path id="984" transform="matrix(1 0 0 -1 0 841)" d="M97.393 470.923L492.552 470.923" stroke="#000000" stroke-width="0.398" fill="none" /><path id="985" transform="matrix(1 0 0 -1 0 841)" d="M97.194 457.573L97.194 471.122" stroke="#000000" stroke-width="0.398" fill="none" /><path id="991" transform="matrix(1 0 0 -1 0 841)" d="M139.842 457.573L139.842 471.122" stroke="#000000" stroke-width="0.398" fill="none" /><path id="1032" transform="matrix(1 0 0 -1 0 841)" d="M492.353 457.573L492.353 471.122" stroke="#000000" stroke-width="0.398" fill="none" /><path id="1033" transform="matrix(1 0 0 -1 0 841)" d="M97.393 457.374L492.552 457.374" stroke="#000000" stroke-width="0.398" fill="none" /><path id="1034" transform="matrix(1 0 0 -1 0 841)" d="M97.194 444.024L97.194 457.573" stroke="#000000" stroke-width="0.398" fill="none" /><path id="1040" transform="matrix(1 0 0 -1 0 841)" d="M139.842 444.024L139.842 457.573" stroke="#000000" stroke-width="0.398" fill="none" /><path id="1072" transform="matrix(1 0 0 -1 0 841)" d="M492.353 444.024L492.353 457.573" stroke="#000000" stroke-width="0.398" fill="none" /><path id="1073" transform="matrix(1 0 0 -1 0 841)" d="M97.393 443.824L492.552 443.824" stroke="#000000" stroke-width="0.398" fill="none" /><path id="1074" transform="matrix(1 0 0 -1 0 841)" d="M97.194 430.475L97.194 444.024" stroke="#000000" stroke-width="0.398" fill="none" /><path id="1080" transform="matrix(1 0 0 -1 0 841)" d="M139.842 430.475L139.842 444.024" stroke="#000000" stroke-width="0.398" fill="none" /><path id="1120" transform="matrix(1 0 0 -1 0 841)" d="M492.353 430.475L492.353 444.024" stroke="#000000" stroke-width="0.398" fill="none" /><path id="1121" transform="matrix(1 0 0 -1 0 841)" d="M97.393 430.275L492.552 430.275" stroke="#000000" stroke-width="0.398" fill="none" /><path id="1122" transform="matrix(1 0 0 -1 0 841)" d="M97.194 416.925L97.194 430.474" stroke="#000000" stroke-width="0.398" fill="none" /><path id="1128" transform="matrix(1 0 0 -1 0 841)" d="M139.842 416.925L139.842 430.474" stroke="#000000" stroke-width="0.398" fill="none" /><path id="1161" transform="matrix(1 0 0 -1 0 841)" d="M492.353 416.925L492.353 430.474" stroke="#000000" stroke-width="0.398" fill="none" /><path id="1162" transform="matrix(1 0 0 -1 0 841)" d="M97.393 416.726L492.552 416.726" stroke="#000000" stroke-width="0.398" fill="none" /><path id="1163" transform="matrix(1 0 0 -1 0 841)" d="M97.194 403.376L97.194 416.925" stroke="#000000" stroke-width="0.398" fill="none" /><path id="1169" transform="matrix(1 0 0 -1 0 841)" d="M139.842 403.376L139.842 416.925" stroke="#000000" stroke-width="0.398" fill="none" /><path id="1202" transform="matrix(1 0 0 -1 0 841)" d="M492.353 403.376L492.353 416.925" stroke="#000000" stroke-width="0.398" fill="none" /><path id="1203" transform="matrix(1 0 0 -1 0 841)" d="M97.393 403.177L492.552 403.177" stroke="#000000" stroke-width="0.398" fill="none" /><path id="1204" transform="matrix(1 0 0 -1 0 841)" d="M97.194 389.827L97.194 403.376" stroke="#000000" stroke-width="0.398" fill="none" /><path id="1210" transform="matrix(1 0 0 -1 0 841)" d="M139.842 389.827L139.842 403.376" stroke="#000000" stroke-width="0.398" fill="none" /><path id="1236" transform="matrix(1 0 0 -1 0 841)" d="M492.353 389.827L492.353 403.376" stroke="#000000" stroke-width="0.398" fill="none" /><path id="1237" transform="matrix(1 0 0 -1 0 841)" d="M97.393 389.628L492.552 389.628" stroke="#000000" stroke-width="0.398" fill="none" /><path id="1238" transform="matrix(1 0 0 -1 0 841)" d="M97.194 376.278L97.194 389.827" stroke="#000000" stroke-width="0.398" fill="none" /><path id="1244" transform="matrix(1 0 0 -1 0 841)" d="M139.842 376.278L139.842 389.827" stroke="#000000" stroke-width="0.398" fill="none" /><path id="1278" transform="matrix(1 0 0 -1 0 841)" d="M492.353 376.278L492.353 389.827" stroke="#000000" stroke-width="0.398" fill="none" /><path id="1279" transform="matrix(1 0 0 -1 0 841)" d="M97.393 376.079L492.552 376.079" stroke="#000000" stroke-width="0.398" fill="none" /><path id="1280" transform="matrix(1 0 0 -1 0 841)" d="M97.194 362.729L97.194 376.278" stroke="#000000" stroke-width="0.398" fill="none" /><path id="1286" transform="matrix(1 0 0 -1 0 841)" d="M139.842 362.729L139.842 376.278" stroke="#000000" stroke-width="0.398" fill="none" /><path id="1325" transform="matrix(1 0 0 -1 0 841)" d="M492.353 362.729L492.353 376.278" stroke="#000000" stroke-width="0.398" fill="none" /><path id="1326" transform="matrix(1 0 0 -1 0 841)" d="M97.393 362.529L492.552 362.529" stroke="#000000" stroke-width="0.398" fill="none" /><path id="1327" transform="matrix(1 0 0 -1 0 841)" d="M97.194 349.179L97.194 362.728" stroke="#000000" stroke-width="0.398" fill="none" /><path id="1333" transform="matrix(1 0 0 -1 0 841)" d="M139.842 349.179L139.842 362.728" stroke="#000000" stroke-width="0.398" fill="none" /><path id="1368" transform="matrix(1 0 0 -1 0 841)" d="M492.353 349.179L492.353 362.728" stroke="#000000" stroke-width="0.398" fill="none" /><path id="1369" transform="matrix(1 0 0 -1 0 841)" d="M97.393 348.98L492.552 348.98" stroke="#000000" stroke-width="0.398" fill="none" /><path id="1370" transform="matrix(1 0 0 -1 0 841)" d="M97.194 335.63L97.194 349.179" stroke="#000000" stroke-width="0.398" fill="none" /><path id="1376" transform="matrix(1 0 0 -1 0 841)" d="M139.842 335.63L139.842 349.179" stroke="#000000" stroke-width="0.398" fill="none" /><path id="1411" transform="matrix(1 0 0 -1 0 841)" d="M492.353 335.63L492.353 349.179" stroke="#000000" stroke-width="0.398" fill="none" /><path id="1412" transform="matrix(1 0 0 -1 0 841)" d="M97.393 335.431L492.552 335.431" stroke="#000000" stroke-width="0.398" fill="none" /><path id="1413" transform="matrix(1 0 0 -1 0 841)" d="M97.194 322.081L97.194 335.63" stroke="#000000" stroke-width="0.398" fill="none" /><path id="1419" transform="matrix(1 0 0 -1 0 841)" d="M139.842 322.081L139.842 335.63" stroke="#000000" stroke-width="0.398" fill="none" /><path id="1458" transform="matrix(1 0 0 -1 0 841)" d="M492.353 322.081L492.353 335.63" stroke="#000000" stroke-width="0.398" fill="none" /><path id="1459" transform="matrix(1 0 0 -1 0 841)" d="M97.393 321.882L492.552 321.882" stroke="#000000" stroke-width="0.398" fill="none" /><path id="1460" transform="matrix(1 0 0 -1 0 841)" d="M97.194 308.532L97.194 322.081" stroke="#000000" stroke-width="0.398" fill="none" /><path id="1466" transform="matrix(1 0 0 -1 0 841)" d="M139.842 308.532L139.842 322.081" stroke="#000000" stroke-width="0.398" fill="none" /><path id="1493" transform="matrix(1 0 0 -1 0 841)" d="M492.353 308.532L492.353 322.081" stroke="#000000" stroke-width="0.398" fill="none" /><path id="1494" transform="matrix(1 0 0 -1 0 841)" d="M97.393 308.333L492.552 308.333" stroke="#000000" stroke-width="0.398" fill="none" /><path id="1495" transform="matrix(1 0 0 -1 0 841)" d="M97.194 294.983L97.194 308.532" stroke="#000000" stroke-width="0.398" fill="none" /><path id="1501" transform="matrix(1 0 0 -1 0 841)" d="M139.842 294.983L139.842 308.532" stroke="#000000" stroke-width="0.398" fill="none" /><path id="1533" transform="matrix(1 0 0 -1 0 841)" d="M492.353 294.983L492.353 308.532" stroke="#000000" stroke-width="0.398" fill="none" /><path id="1534" transform="matrix(1 0 0 -1 0 841)" d="M97.393 294.783L492.552 294.783" stroke="#000000" stroke-width="0.398" fill="none" /><path id="1535" transform="matrix(1 0 0 -1 0 841)" d="M97.194 281.434L97.194 294.983" stroke="#000000" stroke-width="0.398" fill="none" /><path id="1541" transform="matrix(1 0 0 -1 0 841)" d="M139.842 281.434L139.842 294.983" stroke="#000000" stroke-width="0.398" fill="none" /><path id="1581" transform="matrix(1 0 0 -1 0 841)" d="M492.353 281.434L492.353 294.983" stroke="#000000" stroke-width="0.398" fill="none" /><path id="1582" transform="matrix(1 0 0 -1 0 841)" d="M97.393 281.234L492.552 281.234" stroke="#000000" stroke-width="0.398" fill="none" /><path id="1583" transform="matrix(1 0 0 -1 0 841)" d="M97.194 267.884L97.194 281.433" stroke="#000000" stroke-width="0.398" fill="none" /><path id="1589" transform="matrix(1 0 0 -1 0 841)" d="M139.842 267.884L139.842 281.433" stroke="#000000" stroke-width="0.398" fill="none" /><path id="1622" transform="matrix(1 0 0 -1 0 841)" d="M492.353 267.884L492.353 281.433" stroke="#000000" stroke-width="0.398" fill="none" /><path id="1623" transform="matrix(1 0 0 -1 0 841)" d="M97.393 267.685L492.552 267.685" stroke="#000000" stroke-width="0.398" fill="none" /><path id="1624" transform="matrix(1 0 0 -1 0 841)" d="M97.194 254.335L97.194 267.884" stroke="#000000" stroke-width="0.398" fill="none" /><path id="1630" transform="matrix(1 0 0 -1 0 841)" d="M139.842 254.335L139.842 267.884" stroke="#000000" stroke-width="0.398" fill="none" /><path id="1663" transform="matrix(1 0 0 -1 0 841)" d="M492.353 254.335L492.353 267.884" stroke="#000000" stroke-width="0.398" fill="none" /><path id="1664" transform="matrix(1 0 0 -1 0 841)" d="M97.393 254.136L492.552 254.136" stroke="#000000" stroke-width="0.398" fill="none" /><path id="1665" transform="matrix(1 0 0 -1 0 841)" d="M97.194 240.786L97.194 254.335" stroke="#000000" stroke-width="0.398" fill="none" /><path id="1671" transform="matrix(1 0 0 -1 0 841)" d="M139.842 240.786L139.842 254.335" stroke="#000000" stroke-width="0.398" fill="none" /><path id="1711" transform="matrix(1 0 0 -1 0 841)" d="M492.353 240.786L492.353 254.335" stroke="#000000" stroke-width="0.398" fill="none" /><path id="1712" transform="matrix(1 0 0 -1 0 841)" d="M97.393 240.587L492.552 240.587" stroke="#000000" stroke-width="0.398" fill="none" /><path id="1713" transform="matrix(1 0 0 -1 0 841)" d="M97.194 227.237L97.194 240.786" stroke="#000000" stroke-width="0.398" fill="none" /><path id="1719" transform="matrix(1 0 0 -1 0 841)" d="M139.842 227.237L139.842 240.786" stroke="#000000" stroke-width="0.398" fill="none" /><path id="1761" transform="matrix(1 0 0 -1 0 841)" d="M492.353 227.237L492.353 240.786" stroke="#000000" stroke-width="0.398" fill="none" /><path id="1762" transform="matrix(1 0 0 -1 0 841)" d="M97.393 227.038L492.552 227.038" stroke="#000000" stroke-width="0.398" fill="none" /><path id="1763" transform="matrix(1 0 0 -1 0 841)" d="M97.194 213.688L97.194 227.237" stroke="#000000" stroke-width="0.398" fill="none" /><path id="1769" transform="matrix(1 0 0 -1 0 841)" d="M139.842 213.688L139.842 227.237" stroke="#000000" stroke-width="0.398" fill="none" /><path id="1801" transform="matrix(1 0 0 -1 0 841)" d="M492.353 213.688L492.353 227.237" stroke="#000000" stroke-width="0.398" fill="none" /><path id="1802" transform="matrix(1 0 0 -1 0 841)" d="M97.393 213.488L492.552 213.488" stroke="#000000" stroke-width="0.398" fill="none" /><path id="1803" transform="matrix(1 0 0 -1 0 841)" d="M97.194 200.138L97.194 213.687" stroke="#000000" stroke-width="0.398" fill="none" /><path id="1809" transform="matrix(1 0 0 -1 0 841)" d="M139.842 200.138L139.842 213.687" stroke="#000000" stroke-width="0.398" fill="none" /><path id="1856" transform="matrix(1 0 0 -1 0 841)" d="M492.353 200.138L492.353 213.687" stroke="#000000" stroke-width="0.398" fill="none" /><path id="1857" transform="matrix(1 0 0 -1 0 841)" d="M97.393 199.939L492.552 199.939" stroke="#000000" stroke-width="0.398" fill="none" /><path id="1858" transform="matrix(1 0 0 -1 0 841)" d="M97.194 186.589L97.194 200.138" stroke="#000000" stroke-width="0.398" fill="none" /><path id="1864" transform="matrix(1 0 0 -1 0 841)" d="M139.842 186.589L139.842 200.138" stroke="#000000" stroke-width="0.398" fill="none" /><path id="1901" transform="matrix(1 0 0 -1 0 841)" d="M492.353 186.589L492.353 200.138" stroke="#000000" stroke-width="0.398" fill="none" /><path id="1902" transform="matrix(1 0 0 -1 0 841)" d="M97.393 186.39L492.552 186.39" stroke="#000000" stroke-width="0.398" fill="none" /><path id="1903" transform="matrix(1 0 0 -1 0 841)" d="M97.194 173.04L97.194 186.589" stroke="#000000" stroke-width="0.398" fill="none" /><path id="1909" transform="matrix(1 0 0 -1 0 841)" d="M139.842 173.04L139.842 186.589" stroke="#000000" stroke-width="0.398" fill="none" /><path id="1953" transform="matrix(1 0 0 -1 0 841)" d="M492.353 173.04L492.353 186.589" stroke="#000000" stroke-width="0.398" fill="none" /><path id="1954" transform="matrix(1 0 0 -1 0 841)" d="M97.393 172.841L492.552 172.841" stroke="#000000" stroke-width="0.398" fill="none" /><path id="1955" transform="matrix(1 0 0 -1 0 841)" d="M97.194 159.491L97.194 173.04" stroke="#000000" stroke-width="0.398" fill="none" /><path id="1958" transform="matrix(1 0 0 -1 0 841)" d="M139.842 159.491L139.842 173.04" stroke="#000000" stroke-width="0.398" fill="none" /><path id="1995" transform="matrix(1 0 0 -1 0 841)" d="M492.353 159.491L492.353 173.04" stroke="#000000" stroke-width="0.398" fill="none" /><path id="1996" transform="matrix(1 0 0 -1 0 841)" d="M97.393 159.292L492.552 159.292" stroke="#000000" stroke-width="0.398" fill="none" /><path id="1997" transform="matrix(1 0 0 -1 0 841)" d="M97.194 145.942L97.194 159.491" stroke="#000000" stroke-width="0.398" fill="none" /><path id="2000" transform="matrix(1 0 0 -1 0 841)" d="M139.842 145.942L139.842 159.491" stroke="#000000" stroke-width="0.398" fill="none" /><path id="2035" transform="matrix(1 0 0 -1 0 841)" d="M492.353 145.942L492.353 159.491" stroke="#000000" stroke-width="0.398" fill="none" /><path id="2036" transform="matrix(1 0 0 -1 0 841)" d="M97.393 145.742L492.552 145.742" stroke="#000000" stroke-width="0.398" fill="none" /><path id="2037" transform="matrix(1 0 0 -1 0 841)" d="M97.194 132.393L97.194 145.942" stroke="#000000" stroke-width="0.398" fill="none" /><path id="2040" transform="matrix(1 0 0 -1 0 841)" d="M139.842 132.393L139.842 145.942" stroke="#000000" stroke-width="0.398" fill="none" /><path id="2095" transform="matrix(1 0 0 -1 0 841)" d="M492.353 132.393L492.353 145.942" stroke="#000000" stroke-width="0.398" fill="none" /><path id="2096" transform="matrix(1 0 0 -1 0 841)" d="M97.393 132.193L492.552 132.193" stroke="#000000" stroke-width="0.398" fill="none" /></g></g></svg>