<svg xmlns="http://www.w3.org/2000/svg" xmlns:xlink="http://www.w3.org/1999/xlink" id="body_21" preserveAspectRatio="xMinYMin meet" viewBox="0 0 793 1121"><defs><clipPath id="1"><path id="" clip-rule="evenodd" transform="matrix(1 0 0 1 0 0)" d="M0 841L0 -0.8900146L0 -0.8900146L595.276 -0.8900146L595.276 -0.8900146L595.276 841L595.276 841L0 841z" /></clipPath></defs><g transform="matrix(1.333333 0 0 1.333333 0 0)"><g clip-path="url(#1)"><path id="30" transform="matrix(1 0 0 -1 0 841)" d="M85.039 766.564L510.236 766.564" stroke="#000000" stroke-width="0.498" fill="none" /><path id="154" transform="matrix(1 0 0 -1 0 841)" d="M229.995 694.052L365.281 694.052" stroke="#000000" stroke-width="0.398" fill="none" /><path id="155" transform="matrix(1 0 0 -1 0 841)" d="M230.194 680.303L230.194 693.852" stroke="#000000" stroke-width="0.398" fill="none" /><path id="161" transform="matrix(1 0 0 -1 0 841)" d="M267.398 680.303L267.398 693.852" stroke="#000000" stroke-width="0.398" fill="none" /><path id="178" transform="matrix(1 0 0 -1 0 841)" d="M365.082 680.303L365.082 693.852" stroke="#000000" stroke-width="0.398" fill="none" /><path id="179" transform="matrix(1 0 0 -1 0 841)" d="M229.995 680.104L365.281 680.104" stroke="#000000" stroke-width="0.398" fill="none" /><path id="180" transform="matrix(1 0 0 -1 0 841)" d="M230.194 666.355L230.194 679.904" stroke="#000000" stroke-width="0.398" fill="none" /><path id="183" transform="matrix(1 0 0 -1 0 841)" d="M267.398 666.355L267.398 679.904" stroke="#000000" stroke-width="0.398" fill="none" /><path id="190" transform="matrix(1 0 0 -1 0 841)" d="M365.082 666.355L365.082 679.904" stroke="#000000" stroke-width="0.398" fill="none" /><path id="191" transform="matrix(1 0 0 -1 0 841)" d="M229.995 666.156L365.281 666.156" stroke="#000000" stroke-width="0.398" fill="none" /><path id="192" transform="matrix(1 0 0 -1 0 841)" d="M230.194 652.408L230.194 665.957" stroke="#000000" stroke-width="0.398" fill="none" /><path id="195" transform="matrix(1 0 0 -1 0 841)" d="M267.398 652.408L267.398 665.957" stroke="#000000" stroke-width="0.398" fill="none" /><path id="208" transform="matrix(1 0 0 -1 0 841)" d="M365.082 652.408L365.082 665.957" stroke="#000000" stroke-width="0.398" fill="none" /><path id="209" transform="matrix(1 0 0 -1 0 841)" d="M229.995 652.209L365.281 652.209" stroke="#000000" stroke-width="0.398" fill="none" /><path id="210" transform="matrix(1 0 0 -1 0 841)" d="M230.194 638.46L230.194 652.009" stroke="#000000" stroke-width="0.398" fill="none" /><path id="213" transform="matrix(1 0 0 -1 0 841)" d="M267.398 638.46L267.398 652.009" stroke="#000000" stroke-width="0.398" fill="none" /><path id="227" transform="matrix(1 0 0 -1 0 841)" d="M365.082 638.46L365.082 652.009" stroke="#000000" stroke-width="0.398" fill="none" /><path id="228" transform="matrix(1 0 0 -1 0 841)" d="M229.995 638.261L365.281 638.261" stroke="#000000" stroke-width="0.398" fill="none" /><path id="229" transform="matrix(1 0 0 -1 0 841)" d="M230.194 624.512L230.194 638.061" stroke="#000000" stroke-width="0.398" fill="none" /><path id="232" transform="matrix(1 0 0 -1 0 841)" d="M267.398 624.512L267.398 638.061" stroke="#000000" stroke-width="0.398" fill="none" /><path id="248" transform="matrix(1 0 0 -1 0 841)" d="M365.082 624.512L365.082 638.061" stroke="#000000" stroke-width="0.398" fill="none" /><path id="249" transform="matrix(1 0 0 -1 0 841)" d="M229.995 624.313L365.281 624.313" stroke="#000000" stroke-width="0.398" fill="none" /><path id="250" transform="matrix(1 0 0 -1 0 841)" d="M230.194 610.565L230.194 624.114" stroke="#000000" stroke-width="0.398" fill="none" /><path id="253" transform="matrix(1 0 0 -1 0 841)" d="M267.398 610.565L267.398 624.114" stroke="#000000" stroke-width="0.398" fill="none" /><path id="263" transform="matrix(1 0 0 -1 0 841)" d="M365.082 610.565L365.082 624.114" stroke="#000000" stroke-width="0.398" fill="none" /><path id="264" transform="matrix(1 0 0 -1 0 841)" d="M229.995 610.365L365.281 610.365" stroke="#000000" stroke-width="0.398" fill="none" /><path id="913" transform="matrix(1 0 0 -1 0 841)" d="M100.488 397.792L494.787 397.792" stroke="#000000" stroke-width="0.398" fill="none" /><path id="914" transform="matrix(1 0 0 -1 0 841)" d="M100.687 370.494L100.687 397.592" stroke="#000000" stroke-width="0.398" fill="none" /><path id="946" transform="matrix(1 0 0 -1 0 841)" d="M217.81 370.494L217.81 397.592" stroke="#000000" stroke-width="0.398" fill="none" /><path id="981" transform="matrix(1 0 0 -1 0 841)" d="M362.106 370.494L362.106 397.592" stroke="#000000" stroke-width="0.398" fill="none" /><path id="1016" transform="matrix(1 0 0 -1 0 841)" d="M494.588 370.494L494.588 397.592" stroke="#000000" stroke-width="0.398" fill="none" /><path id="1017" transform="matrix(1 0 0 -1 0 841)" d="M100.488 370.295L494.787 370.295" stroke="#000000" stroke-width="0.398" fill="none" /><path id="1018" transform="matrix(1 0 0 -1 0 841)" d="M100.687 356.547L100.687 370.096" stroke="#000000" stroke-width="0.398" fill="none" /><path id="1021" transform="matrix(1 0 0 -1 0 841)" d="M217.81 356.547L217.81 370.096" stroke="#000000" stroke-width="0.398" fill="none" /><path id="1024" transform="matrix(1 0 0 -1 0 841)" d="M362.106 356.547L362.106 370.096" stroke="#000000" stroke-width="0.398" fill="none" /><path id="1027" transform="matrix(1 0 0 -1 0 841)" d="M494.588 356.547L494.588 370.096" stroke="#000000" stroke-width="0.398" fill="none" /><path id="1028" transform="matrix(1 0 0 -1 0 841)" d="M100.488 356.348L494.787 356.348" stroke="#000000" stroke-width="0.398" fill="none" /><path id="1029" transform="matrix(1 0 0 -1 0 841)" d="M100.687 342.599L100.687 356.148" stroke="#000000" stroke-width="0.398" fill="none" /><path id="1032" transform="matrix(1 0 0 -1 0 841)" d="M217.81 342.599L217.81 356.148" stroke="#000000" stroke-width="0.398" fill="none" /><path id="1035" transform="matrix(1 0 0 -1 0 841)" d="M362.106 342.599L362.106 356.148" stroke="#000000" stroke-width="0.398" fill="none" /><path id="1038" transform="matrix(1 0 0 -1 0 841)" d="M494.588 342.599L494.588 356.148" stroke="#000000" stroke-width="0.398" fill="none" /><path id="1039" transform="matrix(1 0 0 -1 0 841)" d="M100.488 342.4L494.787 342.4" stroke="#000000" stroke-width="0.398" fill="none" /><path id="1040" transform="matrix(1 0 0 -1 0 841)" d="M100.687 328.651L100.687 342.2" stroke="#000000" stroke-width="0.398" fill="none" /><path id="1043" transform="matrix(1 0 0 -1 0 841)" d="M217.81 328.651L217.81 342.2" stroke="#000000" stroke-width="0.398" fill="none" /><path id="1046" transform="matrix(1 0 0 -1 0 841)" d="M362.106 328.651L362.106 342.2" stroke="#000000" stroke-width="0.398" fill="none" /><path id="1049" transform="matrix(1 0 0 -1 0 841)" d="M494.588 328.651L494.588 342.2" stroke="#000000" stroke-width="0.398" fill="none" /><path id="1050" transform="matrix(1 0 0 -1 0 841)" d="M100.488 328.452L494.787 328.452" stroke="#000000" stroke-width="0.398" fill="none" /><path id="1051" transform="matrix(1 0 0 -1 0 841)" d="M100.687 314.704L100.687 328.253" stroke="#000000" stroke-width="0.398" fill="none" /><path id="1054" transform="matrix(1 0 0 -1 0 841)" d="M217.81 314.704L217.81 328.253" stroke="#000000" stroke-width="0.398" fill="none" /><path id="1057" transform="matrix(1 0 0 -1 0 841)" d="M362.106 314.704L362.106 328.253" stroke="#000000" stroke-width="0.398" fill="none" /><path id="1060" transform="matrix(1 0 0 -1 0 841)" d="M494.588 314.704L494.588 328.253" stroke="#000000" stroke-width="0.398" fill="none" /><path id="1061" transform="matrix(1 0 0 -1 0 841)" d="M100.488 314.504L494.787 314.504" stroke="#000000" stroke-width="0.398" fill="none" /><path id="1062" transform="matrix(1 0 0 -1 0 841)" d="M100.687 300.756L100.687 314.305" stroke="#000000" stroke-width="0.398" fill="none" /><path id="1065" transform="matrix(1 0 0 -1 0 841)" d="M217.81 300.756L217.81 314.305" stroke="#000000" stroke-width="0.398" fill="none" /><path id="1068" transform="matrix(1 0 0 -1 0 841)" d="M362.106 300.756L362.106 314.305" stroke="#000000" stroke-width="0.398" fill="none" /><path id="1071" transform="matrix(1 0 0 -1 0 841)" d="M494.588 300.756L494.588 314.305" stroke="#000000" stroke-width="0.398" fill="none" /><path id="1072" transform="matrix(1 0 0 -1 0 841)" d="M100.488 300.557L494.787 300.557" stroke="#000000" stroke-width="0.398" fill="none" /></g></g></svg>