<svg xmlns="http://www.w3.org/2000/svg" xmlns:xlink="http://www.w3.org/1999/xlink" id="body_273" preserveAspectRatio="xMinYMin meet" viewBox="0 0 793 1121"><defs><clipPath id="1"><path id="" clip-rule="evenodd" transform="matrix(1 0 0 1 0 0)" d="M0 841L0 -0.8900146L0 -0.8900146L595.276 -0.8900146L595.276 -0.8900146L595.276 841L595.276 841L0 841z" /></clipPath></defs><g transform="matrix(1.333333 0 0 1.333333 0 0)"><g clip-path="url(#1)"><path id="28" transform="matrix(1 0 0 -1 0 841)" d="M85.039 766.564L510.236 766.564" stroke="#000000" stroke-width="0.498" fill="none" /><g transform="matrix(0.1309091 0 0 0.1309091 110.109 84.15198)"><g transform="matrix(1 0 0 1 0 0)"><image x="0" y="0" xlink:href="img_260.png" width="2865" height="2090" /></g></g><g transform="matrix(0.1309091 0 0 0.1309091 189.048 358.7485)"><g transform="matrix(1 0 0 1 0 0)"><image x="0" y="0" xlink:href="img_261.png" width="1659" height="808" /></g></g><path id="62" transform="matrix(1 0 0 -1 0 841)" d="M112.063 304.233L127.55 304.233L127.55 316.506L112.063 316.506z" stroke="none" fill="#FFF100" fill-rule="nonzero" /><path id="66" transform="matrix(1 0 0 -1 0 841)" d="M127.574 304.233L130.297 304.233L130.297 316.506L127.574 316.506z" stroke="none" fill="#FFF100" fill-rule="nonzero" /><path id="67" transform="matrix(1 0 0 -1 0 841)" d="M130.048 304.233L143.266 304.233L143.266 316.506L130.048 316.506z" stroke="none" fill="#FFF100" fill-rule="nonzero" /><path id="71" transform="matrix(1 0 0 -1 0 841)" d="M142.996 304.233L153.792 304.233L153.792 316.506L142.996 316.506z" stroke="none" fill="#FFF100" fill-rule="nonzero" /><path id="74" transform="matrix(1 0 0 -1 0 841)" d="M153.48 304.233L164.887 304.233L164.887 316.506L153.48 316.506z" stroke="none" fill="#FFF100" fill-rule="nonzero" /><path id="78" transform="matrix(1 0 0 -1 0 841)" d="M164.585 304.233L179.025 304.233L179.025 316.506L164.585 316.506z" stroke="none" fill="#FFF100" fill-rule="nonzero" /><path id="82" transform="matrix(1 0 0 -1 0 841)" d="M179.027 304.233L181.75 304.233L181.75 316.506L179.027 316.506z" stroke="none" fill="#FFF100" fill-rule="nonzero" /><path id="83" transform="matrix(1 0 0 -1 0 841)" d="M181.501 304.233L195.723 304.233L195.723 316.506L181.501 316.506z" stroke="none" fill="#FFF100" fill-rule="nonzero" /><path id="87" transform="matrix(1 0 0 -1 0 841)" d="M195.475 304.233L214.758 304.233L214.758 316.506L195.475 316.506z" stroke="none" fill="#FFF100" fill-rule="nonzero" /><path id="91" transform="matrix(1 0 0 -1 0 841)" d="M214.848 304.233L217.571 304.233L217.571 316.506L214.848 316.506z" stroke="none" fill="#FFF100" fill-rule="nonzero" /><path id="92" transform="matrix(1 0 0 -1 0 841)" d="M217.321 304.233L252.968 304.233L252.968 316.506L217.321 316.506z" stroke="none" fill="#FFF100" fill-rule="nonzero" /><path id="99" transform="matrix(1 0 0 -1 0 841)" d="M253.352 304.233L256.075 304.233L256.075 316.506L253.352 316.506z" stroke="none" fill="#FFF100" fill-rule="nonzero" /><path id="100" transform="matrix(1 0 0 -1 0 841)" d="M255.826 304.233L280.128 304.233L280.128 316.506L255.826 316.506z" stroke="none" fill="#FFF100" fill-rule="nonzero" /><path id="106" transform="matrix(1 0 0 -1 0 841)" d="M280.315 304.233L283.038 304.233L283.038 316.506L280.315 316.506z" stroke="none" fill="#FFF100" fill-rule="nonzero" /><path id="107" transform="matrix(1 0 0 -1 0 841)" d="M282.788 304.233L296.617 304.233L296.617 316.506L282.788 316.506z" stroke="none" fill="#FFF100" fill-rule="nonzero" /><path id="111" transform="matrix(1 0 0 -1 0 841)" d="M296.608 304.233L299.331 304.233L299.331 316.506L296.608 316.506z" stroke="none" fill="#FFF100" fill-rule="nonzero" /><path id="112" transform="matrix(1 0 0 -1 0 841)" d="M299.082 304.233L324.431 304.233L324.431 316.506L299.082 316.506z" stroke="none" fill="#FFF100" fill-rule="nonzero" /><path id="117" transform="matrix(1 0 0 -1 0 841)" d="M324.629 304.233L327.352 304.233L327.352 316.506L324.629 316.506z" stroke="none" fill="#FFF100" fill-rule="nonzero" /><path id="118" transform="matrix(1 0 0 -1 0 841)" d="M327.103 304.233L346.725 304.233L346.725 316.506L327.103 316.506z" stroke="none" fill="#FFF100" fill-rule="nonzero" /><path id="122" transform="matrix(1 0 0 -1 0 841)" d="M346.824 304.233L349.547 304.233L349.547 316.506L346.824 316.506z" stroke="none" fill="#FFF100" fill-rule="nonzero" /><path id="123" transform="matrix(1 0 0 -1 0 841)" d="M349.298 304.233L369.181 304.233L369.181 316.506L349.298 316.506z" stroke="none" fill="#FFF100" fill-rule="nonzero" /><path id="238" transform="matrix(1 0 0 -1 0 841)" d="M112.063 236.169L127.55 236.169L127.55 248.442L112.063 248.442z" stroke="none" fill="#FFF100" fill-rule="nonzero" /><path id="242" transform="matrix(1 0 0 -1 0 841)" d="M127.301 236.169L130.028 236.169L130.028 248.442L127.301 248.442z" stroke="none" fill="#FFF100" fill-rule="nonzero" /><path id="243" transform="matrix(1 0 0 -1 0 841)" d="M129.779 236.169L142.997 236.169L142.997 248.442L129.779 248.442z" stroke="none" fill="#FFF100" fill-rule="nonzero" /><path id="247" transform="matrix(1 0 0 -1 0 841)" d="M142.499 236.169L153.295 236.169L153.295 248.442L142.499 248.442z" stroke="none" fill="#FFF100" fill-rule="nonzero" /><path id="250" transform="matrix(1 0 0 -1 0 841)" d="M152.797 236.169L164.204 236.169L164.204 248.442L152.797 248.442z" stroke="none" fill="#FFF100" fill-rule="nonzero" /><path id="254" transform="matrix(1 0 0 -1 0 841)" d="M163.706 236.169L178.146 236.169L178.146 248.442L163.706 248.442z" stroke="none" fill="#FFF100" fill-rule="nonzero" /><path id="258" transform="matrix(1 0 0 -1 0 841)" d="M177.897 236.169L180.624 236.169L180.624 248.442L177.897 248.442z" stroke="none" fill="#FFF100" fill-rule="nonzero" /><path id="259" transform="matrix(1 0 0 -1 0 841)" d="M180.375 236.169L200.269 236.169L200.269 248.442L180.375 248.442z" stroke="none" fill="#FFF100" fill-rule="nonzero" /><path id="264" transform="matrix(1 0 0 -1 0 841)" d="M200.02 236.169L202.747 236.169L202.747 248.442L200.02 248.442z" stroke="none" fill="#FFF100" fill-rule="nonzero" /><path id="265" transform="matrix(1 0 0 -1 0 841)" d="M202.498 236.169L211.483 236.169L211.483 248.442L202.498 248.442z" stroke="none" fill="#FFF100" fill-rule="nonzero" /><path id="268" transform="matrix(1 0 0 -1 0 841)" d="M211.234 236.169L213.961 236.169L213.961 248.442L211.234 248.442z" stroke="none" fill="#FFF100" fill-rule="nonzero" /><path id="269" transform="matrix(1 0 0 -1 0 841)" d="M213.713 236.169L239.062 236.169L239.062 248.442L213.713 248.442z" stroke="none" fill="#FFF100" fill-rule="nonzero" /><path id="274" transform="matrix(1 0 0 -1 0 841)" d="M238.812 236.169L241.539 236.169L241.539 248.442L238.812 248.442z" stroke="none" fill="#FFF100" fill-rule="nonzero" /><path id="275" transform="matrix(1 0 0 -1 0 841)" d="M241.291 236.169L246.633 236.169L246.633 248.442L241.291 248.442z" stroke="none" fill="#FFF100" fill-rule="nonzero" /><path id="277" transform="matrix(1 0 0 -1 0 841)" d="M246.383 236.169L249.11 236.169L249.11 248.442L246.383 248.442z" stroke="none" fill="#FFF100" fill-rule="nonzero" /><path id="278" transform="matrix(1 0 0 -1 0 841)" d="M248.861 236.169L262.679 236.169L262.679 248.442L248.861 248.442z" stroke="none" fill="#FFF100" fill-rule="nonzero" /><path id="282" transform="matrix(1 0 0 -1 0 841)" d="M262.181 236.169L279.042 236.169L279.042 248.442L262.181 248.442z" stroke="none" fill="#FFF100" fill-rule="nonzero" /><path id="287" transform="matrix(1 0 0 -1 0 841)" d="M278.794 236.169L281.521 236.169L281.521 248.442L278.794 248.442z" stroke="none" fill="#FFF100" fill-rule="nonzero" /><path id="288" transform="matrix(1 0 0 -1 0 841)" d="M281.272 236.169L295.494 236.169L295.494 248.442L281.272 248.442z" stroke="none" fill="#FFF100" fill-rule="nonzero" /><path id="292" transform="matrix(1 0 0 -1 0 841)" d="M294.995 236.169L317.311 236.169L317.311 248.442L294.995 248.442z" stroke="none" fill="#FFF100" fill-rule="nonzero" /></g></g></svg>