<svg xmlns="http://www.w3.org/2000/svg" xmlns:xlink="http://www.w3.org/1999/xlink" id="body_327" preserveAspectRatio="xMinYMin meet" viewBox="0 0 793 1121"><defs><clipPath id="1"><path id="" clip-rule="evenodd" transform="matrix(1 0 0 1 0 0)" d="M0 841L0 -0.8900146L0 -0.8900146L595.276 -0.8900146L595.276 -0.8900146L595.276 841L595.276 841L0 841z" /></clipPath></defs><g transform="matrix(1.333333 0 0 1.333333 0 0)"><g clip-path="url(#1)"><path id="37" transform="matrix(1 0 0 -1 0 841)" d="M85.039 766.564L510.236 766.564" stroke="#000000" stroke-width="0.498" fill="none" /><path id="44" transform="matrix(1 0 0 -1 0 841)" d="M143.224 741.294L159.544 741.294" stroke="#000000" stroke-width="0.436" fill="none" /><path id="54" transform="matrix(1 0 0 -1 0 841)" d="M186.168 741.294L261.293 741.294" stroke="#000000" stroke-width="0.436" fill="none" /><path id="76" transform="matrix(1 0 0 -1 0 841)" d="M302.215 741.294L318.535 741.294" stroke="#000000" stroke-width="0.436" fill="none" /><path id="80" transform="matrix(1 0 0 -1 0 841)" d="M281.268 756.651L323.117 756.651" stroke="#000000" stroke-width="0.398" fill="none" /><path id="81" transform="matrix(1 0 0 -1 0 841)" d="M281.468 725.67L281.468 756.651" stroke="#000000" stroke-width="0.398" fill="none" /><path id="82" transform="matrix(1 0 0 -1 0 841)" d="M322.918 725.67L322.918 756.651" stroke="#000000" stroke-width="0.398" fill="none" /><path id="83" transform="matrix(1 0 0 -1 0 841)" d="M281.268 725.67L323.117 725.67" stroke="#000000" stroke-width="0.398" fill="none" /><path id="217" transform="matrix(1 0 0 -1 0 841)" d="M121.378 664.411L286.153 664.411" stroke="#000000" stroke-width="0.436" fill="none" /><path id="259" transform="matrix(1 0 0 -1 0 841)" d="M326.414 664.411L410.005 664.411" stroke="#000000" stroke-width="0.436" fill="none" /><path id="283" transform="matrix(1 0 0 -1 0 841)" d="M445.471 664.411L461.224 664.411" stroke="#000000" stroke-width="0.436" fill="none" /><path id="287" transform="matrix(1 0 0 -1 0 841)" d="M424.524 679.653L465.806 679.653" stroke="#000000" stroke-width="0.398" fill="none" /><path id="288" transform="matrix(1 0 0 -1 0 841)" d="M424.724 648.65L424.724 679.653" stroke="#000000" stroke-width="0.398" fill="none" /><path id="289" transform="matrix(1 0 0 -1 0 841)" d="M465.607 648.65L465.607 679.653" stroke="#000000" stroke-width="0.398" fill="none" /><path id="290" transform="matrix(1 0 0 -1 0 841)" d="M424.524 648.65L465.806 648.65" stroke="#000000" stroke-width="0.398" fill="none" /><path id="291" transform="matrix(1 0 0 -1 0 841)" d="M85.039 418.475L85.039 623.5309C 85.039 625.8792 86.94264 627.7828 89.29099 627.7828L89.29099 627.7828L505.9893 627.7828C 508.3377 627.7828 510.2413 625.8792 510.2413 623.5309L510.2413 623.5309L510.2413 418.475C 510.2413 416.1266 508.3377 414.223 505.9893 414.223L505.9893 414.223L89.29099 414.223C 86.94264 414.223 85.039 416.1266 85.039 418.475z" stroke="none" fill="#BFBFFF" fill-rule="nonzero" /><path id="292" transform="matrix(1 0 0 -1 0 841)" d="M86.45631 418.475L86.45631 611.7735L86.45631 611.7735L508.824 611.7735L508.824 611.7735L508.824 418.475C 508.824 416.9094 507.5549 415.6403 505.9893 415.6403L505.9893 415.6403L89.29099 415.6403C 87.72543 415.6403 86.45631 416.9094 86.45631 418.475z" stroke="none" fill="#E6E6FF" fill-rule="nonzero" /><path id="1779" transform="matrix(1 0 0 -1 0 841)" d="M228.969 106.555L286.056 106.555" stroke="#000000" stroke-width="0.436" fill="none" /></g></g></svg>