<svg xmlns="http://www.w3.org/2000/svg" xmlns:xlink="http://www.w3.org/1999/xlink" id="body_370" preserveAspectRatio="xMinYMin meet" viewBox="0 0 793 1121"><defs><clipPath id="1"><path id="" clip-rule="evenodd" transform="matrix(1 0 0 1 0 0)" d="M0 841L0 -0.8900146L0 -0.8900146L595.276 -0.8900146L595.276 -0.8900146L595.276 841L595.276 841L0 841z" /></clipPath><clipPath id="2"><path id="" clip-rule="evenodd" transform="matrix(1 0 0 1 0 0)" d="M-0.139 805.413L595.4166 805.413L595.4166 805.413L595.4166 34.69409L595.4166 34.69409L-0.139 34.69409z" /></clipPath><clipPath id="3"><path id="" clip-rule="evenodd" transform="matrix(1 0 0 1 0 0)" d="M-0.1389911 805.413L595.4166 805.413L595.4166 805.413L595.4166 34.69409L595.4166 34.69409L-0.1389911 34.69409z" /></clipPath><clipPath id="4"><path id="" clip-rule="evenodd" transform="matrix(1 0 0 1 0 0)" d="M-0.1389911 805.413L595.4166 805.413L595.4166 805.413L595.4166 34.69409L595.4166 34.69409L-0.1389911 34.69409z" /></clipPath><clipPath id="5"><path id="" clip-rule="evenodd" transform="matrix(1 0 0 1 0 0)" d="M-0.1389911 805.413L595.4166 805.413L595.4166 805.413L595.4166 34.69409L595.4166 34.69409L-0.1389911 34.69409z" /></clipPath><clipPath id="6"><path id="" clip-rule="evenodd" transform="matrix(1 0 0 1 0 0)" d="M-0.1389911 805.413L595.4166 805.413L595.4166 805.413L595.4166 34.69409L595.4166 34.69409L-0.1389911 34.69409z" /></clipPath><clipPath id="7"><path id="" clip-rule="evenodd" transform="matrix(1 0 0 1 0 0)" d="M-0.1389911 805.413L595.4166 805.413L595.4166 805.413L595.4166 34.69409L595.4166 34.69409L-0.1389911 34.69409z" /></clipPath><clipPath id="8"><path id="" clip-rule="evenodd" transform="matrix(1 0 0 1 0 0)" d="M-0.1389911 805.413L595.4166 805.413L595.4166 805.413L595.4166 34.69409L595.4166 34.69409L-0.1389911 34.69409z" /></clipPath><clipPath id="9"><path id="" clip-rule="evenodd" transform="matrix(1 0 0 1 0 0)" d="M-0.1389911 805.413L595.4166 805.413L595.4166 805.413L595.4166 34.69409L595.4166 34.69409L-0.1389911 34.69409z" /></clipPath><clipPath id="10"><path id="" clip-rule="evenodd" transform="matrix(1 0 0 1 0 0)" d="M-0.1389911 805.413L595.4166 805.413L595.4166 805.413L595.4166 34.69409L595.4166 34.69409L-0.1389911 34.69409z" /></clipPath><clipPath id="11"><path id="" clip-rule="evenodd" transform="matrix(1 0 0 1 0 0)" d="M-0.1389911 805.413L595.4166 805.413L595.4166 805.413L595.4166 34.69409L595.4166 34.69409L-0.1389911 34.69409z" /></clipPath><clipPath id="12"><path id="" clip-rule="evenodd" transform="matrix(1 0 0 1 0 0)" d="M-0.1389911 805.413L595.4166 805.413L595.4166 805.413L595.4166 34.69409L595.4166 34.69409L-0.1389911 34.69409z" /></clipPath><clipPath id="13"><path id="" clip-rule="evenodd" transform="matrix(1 0 0 1 0 0)" d="M-0.1389911 805.413L595.4166 805.413L595.4166 805.413L595.4166 34.69409L595.4166 34.69409L-0.1389911 34.69409z" /></clipPath><clipPath id="14"><path id="" clip-rule="evenodd" transform="matrix(1 0 0 1 0 0)" d="M-0.1389911 805.413L595.4166 805.413L595.4166 805.413L595.4166 34.69409L595.4166 34.69409L-0.1389911 34.69409z" /></clipPath><clipPath id="15"><path id="" clip-rule="evenodd" transform="matrix(1 0 0 1 0 0)" d="M-0.1389911 805.413L595.4166 805.413L595.4166 805.413L595.4166 34.69409L595.4166 34.69409L-0.1389911 34.69409z" /></clipPath><clipPath id="16"><path id="" clip-rule="evenodd" transform="matrix(1 0 0 1 0 0)" d="M-0.1389911 805.413L595.4166 805.413L595.4166 805.413L595.4166 34.69409L595.4166 34.69409L-0.1389911 34.69409z" /></clipPath><clipPath id="17"><path id="" clip-rule="evenodd" transform="matrix(1 0 0 1 0 0)" d="M-0.1389911 805.413L595.4166 805.413L595.4166 805.413L595.4166 34.69409L595.4166 34.69409L-0.1389911 34.69409z" /></clipPath><clipPath id="18"><path id="" clip-rule="evenodd" transform="matrix(1 0 0 1 0 0)" d="M-0.1389911 805.413L595.4166 805.413L595.4166 805.413L595.4166 34.69409L595.4166 34.69409L-0.1389911 34.69409z" /></clipPath><clipPath id="19"><path id="" clip-rule="evenodd" transform="matrix(1 0 0 1 0 0)" d="M-0.1389911 805.413L595.4166 805.413L595.4166 805.413L595.4166 34.69409L595.4166 34.69409L-0.1389911 34.69409z" /></clipPath><clipPath id="20"><path id="" clip-rule="evenodd" transform="matrix(1 0 0 1 0 0)" d="M-0.1389911 805.413L595.4166 805.413L595.4166 805.413L595.4166 34.69409L595.4166 34.69409L-0.1389911 34.69409z" /></clipPath><clipPath id="21"><path id="" clip-rule="evenodd" transform="matrix(1 0 0 1 0 0)" d="M-0.1389911 805.413L595.4166 805.413L595.4166 805.413L595.4166 34.69409L595.4166 34.69409L-0.1389911 34.69409z" /></clipPath><clipPath id="22"><path id="" clip-rule="evenodd" transform="matrix(1 0 0 1 0 0)" d="M-0.1389911 805.413L595.4166 805.413L595.4166 805.413L595.4166 34.69409L595.4166 34.69409L-0.1389911 34.69409z" /></clipPath><clipPath id="23"><path id="" clip-rule="evenodd" transform="matrix(1 0 0 1 0 0)" d="M-0.1389911 805.413L595.4166 805.413L595.4166 805.413L595.4166 34.69409L595.4166 34.69409L-0.1389911 34.69409z" /></clipPath><clipPath id="24"><path id="" clip-rule="evenodd" transform="matrix(1 0 0 1 0 0)" d="M-0.1389911 805.413L595.4166 805.413L595.4166 805.413L595.4166 34.69409L595.4166 34.69409L-0.1389911 34.69409z" /></clipPath><clipPath id="25"><path id="" clip-rule="evenodd" transform="matrix(1 0 0 1 0 0)" d="M-0.1389911 805.413L595.4166 805.413L595.4166 805.413L595.4166 34.69409L595.4166 34.69409L-0.1389911 34.69409z" /></clipPath><clipPath id="26"><path id="" clip-rule="evenodd" transform="matrix(1 0 0 1 0 0)" d="M-0.1389911 805.413L595.4166 805.413L595.4166 805.413L595.4166 34.69409L595.4166 34.69409L-0.1389911 34.69409z" /></clipPath><clipPath id="27"><path id="" clip-rule="evenodd" transform="matrix(1 0 0 1 0 0)" d="M-0.1389911 805.413L595.4166 805.413L595.4166 805.413L595.4166 34.69409L595.4166 34.69409L-0.1389911 34.69409z" /></clipPath><clipPath id="28"><path id="" clip-rule="evenodd" transform="matrix(1 0 0 1 0 0)" d="M-0.1389911 805.413L595.4166 805.413L595.4166 805.413L595.4166 34.69409L595.4166 34.69409L-0.1389911 34.69409z" /></clipPath><clipPath id="29"><path id="" clip-rule="evenodd" transform="matrix(1 0 0 1 0 0)" d="M-0.1389911 805.413L595.4166 805.413L595.4166 805.413L595.4166 34.69409L595.4166 34.69409L-0.1389911 34.69409z" /></clipPath><clipPath id="30"><path id="" clip-rule="evenodd" transform="matrix(1 0 0 1 0 0)" d="M-0.1389911 805.413L595.4166 805.413L595.4166 805.413L595.4166 34.69409L595.4166 34.69409L-0.1389911 34.69409z" /></clipPath><clipPath id="31"><path id="" clip-rule="evenodd" transform="matrix(1 0 0 1 0 0)" d="M-0.1389911 805.413L595.4166 805.413L595.4166 805.413L595.4166 34.69409L595.4166 34.69409L-0.1389911 34.69409z" /></clipPath><clipPath id="32"><path id="" clip-rule="evenodd" transform="matrix(1 0 0 1 0 0)" d="M-0.1389911 805.413L595.4166 805.413L595.4166 805.413L595.4166 34.69409L595.4166 34.69409L-0.1389911 34.69409z" /></clipPath><clipPath id="33"><path id="" clip-rule="evenodd" transform="matrix(1 0 0 1 0 0)" d="M-0.1389911 805.413L595.4166 805.413L595.4166 805.413L595.4166 34.69409L595.4166 34.69409L-0.1389911 34.69409z" /></clipPath><clipPath id="34"><path id="" clip-rule="evenodd" transform="matrix(1 0 0 1 0 0)" d="M-0.1389911 805.413L595.4166 805.413L595.4166 805.413L595.4166 34.69409L595.4166 34.69409L-0.1389911 34.69409z" /></clipPath><clipPath id="35"><path id="" clip-rule="evenodd" transform="matrix(1 0 0 1 0 0)" d="M-0.1389911 805.413L595.4166 805.413L595.4166 805.413L595.4166 34.69409L595.4166 34.69409L-0.1389911 34.69409z" /></clipPath><clipPath id="36"><path id="" clip-rule="evenodd" transform="matrix(1 0 0 1 0 0)" d="M-0.1389911 805.413L595.4166 805.413L595.4166 805.413L595.4166 34.69409L595.4166 34.69409L-0.1389911 34.69409z" /></clipPath><clipPath id="37"><path id="" clip-rule="evenodd" transform="matrix(1 0 0 1 0 0)" d="M-0.1389911 805.413L595.4166 805.413L595.4166 805.413L595.4166 34.69409L595.4166 34.69409L-0.1389911 34.69409z" /></clipPath><clipPath id="38"><path id="" clip-rule="evenodd" transform="matrix(1 0 0 1 0 0)" d="M-0.1389911 805.413L595.4166 805.413L595.4166 805.413L595.4166 34.69409L595.4166 34.69409L-0.1389911 34.69409z" /></clipPath><clipPath id="39"><path id="" clip-rule="evenodd" transform="matrix(1 0 0 1 0 0)" d="M-0.1389911 805.413L595.4166 805.413L595.4166 805.413L595.4166 34.69409L595.4166 34.69409L-0.1389911 34.69409z" /></clipPath><clipPath id="40"><path id="" clip-rule="evenodd" transform="matrix(1 0 0 1 0 0)" d="M-0.1389911 805.413L595.4166 805.413L595.4166 805.413L595.4166 34.69409L595.4166 34.69409L-0.1389911 34.69409z" /></clipPath><clipPath id="41"><path id="" clip-rule="evenodd" transform="matrix(1 0 0 1 0 0)" d="M-0.1389911 805.413L595.4166 805.413L595.4166 805.413L595.4166 34.69409L595.4166 34.69409L-0.1389911 34.69409z" /></clipPath><clipPath id="42"><path id="" clip-rule="evenodd" transform="matrix(1 0 0 1 0 0)" d="M-0.1389911 805.413L595.4166 805.413L595.4166 805.413L595.4166 34.69409L595.4166 34.69409L-0.1389911 34.69409z" /></clipPath><clipPath id="43"><path id="" clip-rule="evenodd" transform="matrix(1 0 0 1 0 0)" d="M-0.1389911 805.413L595.4166 805.413L595.4166 805.413L595.4166 34.69409L595.4166 34.69409L-0.1389911 34.69409z" /></clipPath><clipPath id="44"><path id="" clip-rule="evenodd" transform="matrix(1 0 0 1 0 0)" d="M-0.1389911 805.413L595.4166 805.413L595.4166 805.413L595.4166 34.69409L595.4166 34.69409L-0.1389911 34.69409z" /></clipPath><clipPath id="45"><path id="" clip-rule="evenodd" transform="matrix(1 0 0 1 0 0)" d="M-0.1389911 805.413L595.4166 805.413L595.4166 805.413L595.4166 34.69409L595.4166 34.69409L-0.1389911 34.69409z" /></clipPath><clipPath id="46"><path id="" clip-rule="evenodd" transform="matrix(1 0 0 1 0 0)" d="M-0.1389911 805.413L595.4166 805.413L595.4166 805.413L595.4166 34.69409L595.4166 34.69409L-0.1389911 34.69409z" /></clipPath><clipPath id="47"><path id="" clip-rule="evenodd" transform="matrix(1 0 0 1 0 0)" d="M-0.1389911 805.413L595.4166 805.413L595.4166 805.413L595.4166 34.69409L595.4166 34.69409L-0.1389911 34.69409z" /></clipPath><clipPath id="48"><path id="" clip-rule="evenodd" transform="matrix(1 0 0 1 0 0)" d="M-0.1389911 805.413L595.4166 805.413L595.4166 805.413L595.4166 34.69409L595.4166 34.69409L-0.1389911 34.69409z" /></clipPath><clipPath id="49"><path id="" clip-rule="evenodd" transform="matrix(1 0 0 1 0 0)" d="M-0.1389911 805.413L595.4166 805.413L595.4166 805.413L595.4166 34.69409L595.4166 34.69409L-0.1389911 34.69409z" /></clipPath><clipPath id="50"><path id="" clip-rule="evenodd" transform="matrix(1 0 0 1 0 0)" d="M-0.1389911 805.413L595.4166 805.413L595.4166 805.413L595.4166 34.69409L595.4166 34.69409L-0.1389911 34.69409z" /></clipPath><clipPath id="51"><path id="" clip-rule="evenodd" transform="matrix(1 0 0 1 0 0)" d="M-0.1389911 805.413L595.4166 805.413L595.4166 805.413L595.4166 34.69409L595.4166 34.69409L-0.1389911 34.69409z" /></clipPath><clipPath id="52"><path id="" clip-rule="evenodd" transform="matrix(1 0 0 1 0 0)" d="M-0.1389911 805.413L595.4166 805.413L595.4166 805.413L595.4166 34.69409L595.4166 34.69409L-0.1389911 34.69409z" /></clipPath><clipPath id="53"><path id="" clip-rule="evenodd" transform="matrix(1 0 0 1 0 0)" d="M-0.1389911 805.413L595.4166 805.413L595.4166 805.413L595.4166 34.69409L595.4166 34.69409L-0.1389911 34.69409z" /></clipPath><clipPath id="54"><path id="" clip-rule="evenodd" transform="matrix(1 0 0 1 0 0)" d="M-0.1389911 805.413L595.4166 805.413L595.4166 805.413L595.4166 34.69409L595.4166 34.69409L-0.1389911 34.69409z" /></clipPath><clipPath id="55"><path id="" clip-rule="evenodd" transform="matrix(1 0 0 1 0 0)" d="M-0.1389911 805.413L595.4166 805.413L595.4166 805.413L595.4166 34.69409L595.4166 34.69409L-0.1389911 34.69409z" /></clipPath><clipPath id="56"><path id="" clip-rule="evenodd" transform="matrix(1 0 0 1 0 0)" d="M-0.1389911 805.413L595.4166 805.413L595.4166 805.413L595.4166 34.69409L595.4166 34.69409L-0.1389911 34.69409z" /></clipPath><clipPath id="57"><path id="" clip-rule="evenodd" transform="matrix(1 0 0 1 0 0)" d="M-0.1389911 805.413L595.4166 805.413L595.4166 805.413L595.4166 34.69409L595.4166 34.69409L-0.1389911 34.69409z" /></clipPath><clipPath id="58"><path id="" clip-rule="evenodd" transform="matrix(1 0 0 1 0 0)" d="M-0.1389911 805.413L595.4166 805.413L595.4166 805.413L595.4166 34.69409L595.4166 34.69409L-0.1389911 34.69409z" /></clipPath><clipPath id="59"><path id="" clip-rule="evenodd" transform="matrix(1 0 0 1 0 0)" d="M-0.1389911 805.413L595.4166 805.413L595.4166 805.413L595.4166 34.69409L595.4166 34.69409L-0.1389911 34.69409z" /></clipPath><clipPath id="60"><path id="" clip-rule="evenodd" transform="matrix(1 0 0 1 0 0)" d="M-0.1389911 805.413L595.4166 805.413L595.4166 805.413L595.4166 34.69409L595.4166 34.69409L-0.1389911 34.69409z" /></clipPath><clipPath id="61"><path id="" clip-rule="evenodd" transform="matrix(1 0 0 1 0 0)" d="M-0.1389911 805.413L595.4166 805.413L595.4166 805.413L595.4166 34.69409L595.4166 34.69409L-0.1389911 34.69409z" /></clipPath><clipPath id="62"><path id="" clip-rule="evenodd" transform="matrix(1 0 0 1 0 0)" d="M-0.1389911 805.413L595.4166 805.413L595.4166 805.413L595.4166 34.69409L595.4166 34.69409L-0.1389911 34.69409z" /></clipPath><clipPath id="63"><path id="" clip-rule="evenodd" transform="matrix(1 0 0 1 0 0)" d="M-0.1389911 805.413L595.4166 805.413L595.4166 805.413L595.4166 34.69409L595.4166 34.69409L-0.1389911 34.69409z" /></clipPath><clipPath id="64"><path id="" clip-rule="evenodd" transform="matrix(1 0 0 1 0 0)" d="M-0.1389911 805.413L595.4166 805.413L595.4166 805.413L595.4166 34.69409L595.4166 34.69409L-0.1389911 34.69409z" /></clipPath><clipPath id="65"><path id="" clip-rule="evenodd" transform="matrix(1 0 0 1 0 0)" d="M-0.1389911 805.413L595.4166 805.413L595.4166 805.413L595.4166 34.69409L595.4166 34.69409L-0.1389911 34.69409z" /></clipPath><clipPath id="66"><path id="" clip-rule="evenodd" transform="matrix(1 0 0 1 0 0)" d="M-0.1389911 805.413L595.4166 805.413L595.4166 805.413L595.4166 34.69409L595.4166 34.69409L-0.1389911 34.69409z" /></clipPath><clipPath id="67"><path id="" clip-rule="evenodd" transform="matrix(1 0 0 1 0 0)" d="M-0.1389911 805.413L595.4166 805.413L595.4166 805.413L595.4166 34.69409L595.4166 34.69409L-0.1389911 34.69409z" /></clipPath><clipPath id="68"><path id="" clip-rule="evenodd" transform="matrix(1 0 0 1 0 0)" d="M-0.1389911 805.413L595.4166 805.413L595.4166 805.413L595.4166 34.69409L595.4166 34.69409L-0.1389911 34.69409z" /></clipPath><clipPath id="69"><path id="" clip-rule="evenodd" transform="matrix(1 0 0 1 0 0)" d="M-0.1389911 805.413L595.4166 805.413L595.4166 805.413L595.4166 34.69409L595.4166 34.69409L-0.1389911 34.69409z" /></clipPath><clipPath id="70"><path id="" clip-rule="evenodd" transform="matrix(1 0 0 1 0 0)" d="M-0.1389911 805.413L595.4166 805.413L595.4166 805.413L595.4166 34.69409L595.4166 34.69409L-0.1389911 34.69409z" /></clipPath><clipPath id="71"><path id="" clip-rule="evenodd" transform="matrix(1 0 0 1 0 0)" d="M-0.1389911 805.413L595.4166 805.413L595.4166 805.413L595.4166 34.69409L595.4166 34.69409L-0.1389911 34.69409z" /></clipPath><clipPath id="72"><path id="" clip-rule="evenodd" transform="matrix(1 0 0 1 0 0)" d="M-0.1389911 805.413L595.4166 805.413L595.4166 805.413L595.4166 34.69409L595.4166 34.69409L-0.1389911 34.69409z" /></clipPath><clipPath id="73"><path id="" clip-rule="evenodd" transform="matrix(1 0 0 1 0 0)" d="M-0.1389911 805.413L595.4166 805.413L595.4166 805.413L595.4166 34.69409L595.4166 34.69409L-0.1389911 34.69409z" /></clipPath><clipPath id="74"><path id="" clip-rule="evenodd" transform="matrix(1 0 0 1 0 0)" d="M-0.1389911 805.413L595.4166 805.413L595.4166 805.413L595.4166 34.69409L595.4166 34.69409L-0.1389911 34.69409z" /></clipPath><clipPath id="75"><path id="" clip-rule="evenodd" transform="matrix(1 0 0 1 0 0)" d="M-0.1389911 805.413L595.4166 805.413L595.4166 805.413L595.4166 34.69409L595.4166 34.69409L-0.1389911 34.69409z" /></clipPath><clipPath id="76"><path id="" clip-rule="evenodd" transform="matrix(1 0 0 1 0 0)" d="M-0.1389911 805.413L595.4166 805.413L595.4166 805.413L595.4166 34.69409L595.4166 34.69409L-0.1389911 34.69409z" /></clipPath><clipPath id="77"><path id="" clip-rule="evenodd" transform="matrix(1 0 0 1 0 0)" d="M-0.1389911 805.413L595.4166 805.413L595.4166 805.413L595.4166 34.69409L595.4166 34.69409L-0.1389911 34.69409z" /></clipPath><clipPath id="78"><path id="" clip-rule="evenodd" transform="matrix(1 0 0 1 0 0)" d="M-0.1389911 805.413L595.4166 805.413L595.4166 805.413L595.4166 34.69409L595.4166 34.69409L-0.1389911 34.69409z" /></clipPath><clipPath id="79"><path id="" clip-rule="evenodd" transform="matrix(1 0 0 1 0 0)" d="M-0.1389911 805.413L595.4166 805.413L595.4166 805.413L595.4166 34.69409L595.4166 34.69409L-0.1389911 34.69409z" /></clipPath><clipPath id="80"><path id="" clip-rule="evenodd" transform="matrix(1 0 0 1 0 0)" d="M-0.1389911 805.413L595.4166 805.413L595.4166 805.413L595.4166 34.69409L595.4166 34.69409L-0.1389911 34.69409z" /></clipPath><clipPath id="81"><path id="" clip-rule="evenodd" transform="matrix(1 0 0 1 0 0)" d="M-0.1389911 805.413L595.4166 805.413L595.4166 805.413L595.4166 34.69409L595.4166 34.69409L-0.1389911 34.69409z" /></clipPath><clipPath id="82"><path id="" clip-rule="evenodd" transform="matrix(1 0 0 1 0 0)" d="M-0.1389911 805.413L595.4166 805.413L595.4166 805.413L595.4166 34.69409L595.4166 34.69409L-0.1389911 34.69409z" /></clipPath><clipPath id="83"><path id="" clip-rule="evenodd" transform="matrix(1 0 0 1 0 0)" d="M-0.1389911 805.413L595.4166 805.413L595.4166 805.413L595.4166 34.69409L595.4166 34.69409L-0.1389911 34.69409z" /></clipPath><clipPath id="84"><path id="" clip-rule="evenodd" transform="matrix(1 0 0 1 0 0)" d="M-0.1389911 805.413L595.4166 805.413L595.4166 805.413L595.4166 34.69409L595.4166 34.69409L-0.1389911 34.69409z" /></clipPath><clipPath id="85"><path id="" clip-rule="evenodd" transform="matrix(1 0 0 1 0 0)" d="M-0.1389911 805.413L595.4166 805.413L595.4166 805.413L595.4166 34.69409L595.4166 34.69409L-0.1389911 34.69409z" /></clipPath><clipPath id="86"><path id="" clip-rule="evenodd" transform="matrix(1 0 0 1 0 0)" d="M-0.1389911 805.413L595.4166 805.413L595.4166 805.413L595.4166 34.69409L595.4166 34.69409L-0.1389911 34.69409z" /></clipPath><clipPath id="87"><path id="" clip-rule="evenodd" transform="matrix(1 0 0 1 0 0)" d="M-0.1389911 805.413L595.4166 805.413L595.4166 805.413L595.4166 34.69409L595.4166 34.69409L-0.1389911 34.69409z" /></clipPath><clipPath id="88"><path id="" clip-rule="evenodd" transform="matrix(1 0 0 1 0 0)" d="M-0.1389911 805.413L595.4166 805.413L595.4166 805.413L595.4166 34.69409L595.4166 34.69409L-0.1389911 34.69409z" /></clipPath><clipPath id="89"><path id="" clip-rule="evenodd" transform="matrix(1 0 0 1 0 0)" d="M-0.1389911 805.413L595.4166 805.413L595.4166 805.413L595.4166 34.69409L595.4166 34.69409L-0.1389911 34.69409z" /></clipPath><clipPath id="90"><path id="" clip-rule="evenodd" transform="matrix(1 0 0 1 0 0)" d="M-0.1389911 805.413L595.4166 805.413L595.4166 805.413L595.4166 34.69409L595.4166 34.69409L-0.1389911 34.69409z" /></clipPath><clipPath id="91"><path id="" clip-rule="evenodd" transform="matrix(1 0 0 1 0 0)" d="M-0.1389911 805.413L595.4166 805.413L595.4166 805.413L595.4166 34.69409L595.4166 34.69409L-0.1389911 34.69409z" /></clipPath><clipPath id="92"><path id="" clip-rule="evenodd" transform="matrix(1 0 0 1 0 0)" d="M-0.1389911 805.413L595.4166 805.413L595.4166 805.413L595.4166 34.69409L595.4166 34.69409L-0.1389911 34.69409z" /></clipPath><clipPath id="93"><path id="" clip-rule="evenodd" transform="matrix(1 0 0 1 0 0)" d="M-0.1389911 805.413L595.4166 805.413L595.4166 805.413L595.4166 34.69409L595.4166 34.69409L-0.1389911 34.69409z" /></clipPath><clipPath id="94"><path id="" clip-rule="evenodd" transform="matrix(1 0 0 1 0 0)" d="M-0.1389911 805.413L595.4166 805.413L595.4166 805.413L595.4166 34.69409L595.4166 34.69409L-0.1389911 34.69409z" /></clipPath><clipPath id="95"><path id="" clip-rule="evenodd" transform="matrix(1 0 0 1 0 0)" d="M-0.1389911 119.9402L595.4166 119.9402L595.4166 119.9402L595.4166 83.73981L595.4166 83.73981L-0.1389911 83.73981z" /></clipPath></defs><g transform="matrix(1.333333 0 0 1.333333 0 0)"><g clip-path="url(#1)"><g><g clip-path="url(#2)"><path id="1" transform="matrix(1 0 0 -1 0 841)" d="M54.86231 721.0403L526.8498 721.0403L526.8498 721.0403L526.8498 757.2641L526.8498 757.2641L54.86231 757.2641z" stroke="none" fill="#FFFFFF" fill-rule="evenodd" /><g clip-path="url(#3)"></g><g clip-path="url(#4)"></g><g clip-path="url(#5)"></g><path id="43" transform="matrix(1 0 0 -1 0 841)" d="M178.3136 721.157L460.8619 721.157L460.8619 721.157L460.8619 722.4416L460.8619 722.4416L178.3136 722.4416z" stroke="none" fill="#000000" fill-rule="evenodd" /><g clip-path="url(#6)"></g><path id="44" transform="matrix(1 0 0 -1 0 841)" d="M48.90675 710.0634L525.3512 710.0634L525.3512 710.0634L525.3512 711.6203L525.3512 711.6203L48.90675 711.6203z" stroke="none" fill="#000000" fill-rule="evenodd" /><g clip-path="url(#7)"></g><path id="45" transform="matrix(1 0 0 -1 0 841)" d="M47.50544 666.5061L526.8498 666.5061L526.8498 666.5061L526.8498 693.0142L526.8498 693.0142L47.50544 693.0142z" stroke="none" fill="#FFFFFF" fill-rule="evenodd" /><g clip-path="url(#8)"></g><g clip-path="url(#9)"></g><path id="84" transform="matrix(1 0 0 -1 0 841)" d="M47.50544 632.7579L526.8498 632.7579L526.8498 632.7579L526.8498 666.506L526.8498 666.506L47.50544 666.506z" stroke="none" fill="#FFFFFF" fill-rule="evenodd" /><g clip-path="url(#10)"></g><g clip-path="url(#11)"></g><path id="91" transform="matrix(1 0 0 -1 0 841)" d="M47.50544 621.0803L526.8498 621.0803L526.8498 621.0803L526.8498 632.7579L526.8498 632.7579L47.50544 632.7579z" stroke="none" fill="#FFFFFF" fill-rule="evenodd" /><g clip-path="url(#12)"></g><g clip-path="url(#13)"></g><g clip-path="url(#14)"></g><path id="190" transform="matrix(1 0 0 -1 0 841)" d="M47.50544 609.286L526.8498 609.286L526.8498 609.286L526.8498 621.0803L526.8498 621.0803L47.50544 621.0803z" stroke="none" fill="#FFFFFF" fill-rule="evenodd" /><g clip-path="url(#15)"></g><path id="292" transform="matrix(1 0 0 -1 0 841)" d="M47.50544 597.6085L526.8498 597.6085L526.8498 597.6085L526.8498 609.286L526.8498 609.286L47.50544 609.286z" stroke="none" fill="#FFFFFF" fill-rule="evenodd" /><g clip-path="url(#16)"></g><path id="397" transform="matrix(1 0 0 -1 0 841)" d="M47.50544 585.8141L526.8498 585.8141L526.8498 585.8141L526.8498 597.6085L526.8498 597.6085L47.50544 597.6085z" stroke="none" fill="#FFFFFF" fill-rule="evenodd" /><g clip-path="url(#17)"></g><g clip-path="url(#18)"></g><path id="501" transform="matrix(1 0 0 -1 0 841)" d="M47.50544 574.0198L526.8498 574.0198L526.8498 574.0198L526.8498 585.8141L526.8498 585.8141L47.50544 585.8141z" stroke="none" fill="#FFFFFF" fill-rule="evenodd" /><g clip-path="url(#19)"></g><g clip-path="url(#20)"></g><g clip-path="url(#21)"></g><g clip-path="url(#22)"></g><g clip-path="url(#23)"></g><path id="606" transform="matrix(1 0 0 -1 0 841)" d="M47.50544 562.3422L526.8498 562.3422L526.8498 562.3422L526.8498 574.0198L526.8498 574.0198L47.50544 574.0198z" stroke="none" fill="#FFFFFF" fill-rule="evenodd" /><g clip-path="url(#24)"></g><g clip-path="url(#25)"></g><g clip-path="url(#26)"></g><path id="713" transform="matrix(1 0 0 -1 0 841)" d="M47.50544 543.2787L526.8498 543.2787L526.8498 543.2787L526.8498 562.3364L526.8498 562.3364L47.50544 562.3364z" stroke="none" fill="#FFFFFF" fill-rule="evenodd" /><g clip-path="url(#27)"></g><g clip-path="url(#28)"></g><path id="740" transform="matrix(1 0 0 -1 0 841)" d="M47.50544 531.4843L526.8498 531.4843L526.8498 531.4843L526.8498 543.2787L526.8498 543.2787L47.50544 543.2787z" stroke="none" fill="#FFFFFF" fill-rule="evenodd" /><g clip-path="url(#29)"></g><g clip-path="url(#30)"></g><path id="851" transform="matrix(1 0 0 -1 0 841)" d="M47.50544 519.8068L526.8498 519.8068L526.8498 519.8068L526.8498 531.4843L526.8498 531.4843L47.50544 531.4843z" stroke="none" fill="#FFFFFF" fill-rule="evenodd" /><g clip-path="url(#31)"></g><g clip-path="url(#32)"></g><path id="956" transform="matrix(1 0 0 -1 0 841)" d="M47.50544 508.0124L526.8498 508.0124L526.8498 508.0124L526.8498 519.8068L526.8498 519.8068L47.50544 519.8068z" stroke="none" fill="#FFFFFF" fill-rule="evenodd" /><g clip-path="url(#33)"></g><path id="1065" transform="matrix(1 0 0 -1 0 841)" d="M47.50544 496.2181L526.8498 496.2181L526.8498 496.2181L526.8498 508.0124L526.8498 508.0124L47.50544 508.0124z" stroke="none" fill="#FFFFFF" fill-rule="evenodd" /><g clip-path="url(#34)"></g><path id="1171" transform="matrix(1 0 0 -1 0 841)" d="M47.50544 484.5405L526.8498 484.5405L526.8498 484.5405L526.8498 496.2181L526.8498 496.2181L47.50544 496.2181z" stroke="none" fill="#FFFFFF" fill-rule="evenodd" /><g clip-path="url(#35)"></g><g clip-path="url(#36)"></g><path id="1273" transform="matrix(1 0 0 -1 0 841)" d="M47.50544 465.5061L526.8498 465.5061L526.8498 465.5061L526.8498 484.5405L526.8498 484.5405L47.50544 484.5405z" stroke="none" fill="#FFFFFF" fill-rule="evenodd" /><g clip-path="url(#37)"></g><g clip-path="url(#38)"></g><path id="1286" transform="matrix(1 0 0 -1 0 841)" d="M47.50544 453.7118L526.8498 453.7118L526.8498 453.7118L526.8498 465.5061L526.8498 465.5061L47.50544 465.5061z" stroke="none" fill="#FFFFFF" fill-rule="evenodd" /><g clip-path="url(#39)"></g><g clip-path="url(#40)"></g><path id="1399" transform="matrix(1 0 0 -1 0 841)" d="M47.50544 442.0342L526.8498 442.0342L526.8498 442.0342L526.8498 453.7118L526.8498 453.7118L47.50544 453.7118z" stroke="none" fill="#FFFFFF" fill-rule="evenodd" /><g clip-path="url(#41)"></g><g clip-path="url(#42)"></g><path id="1512" transform="matrix(1 0 0 -1 0 841)" d="M47.50544 430.2399L526.8498 430.2399L526.8498 430.2399L526.8498 442.0342L526.8498 442.0342L47.50544 442.0342z" stroke="none" fill="#FFFFFF" fill-rule="evenodd" /><g clip-path="url(#43)"></g><path id="1618" transform="matrix(1 0 0 -1 0 841)" d="M47.50544 418.4455L526.8498 418.4455L526.8498 418.4455L526.8498 430.2399L526.8498 430.2399L47.50544 430.2399z" stroke="none" fill="#FFFFFF" fill-rule="evenodd" /><g clip-path="url(#44)"></g><g clip-path="url(#45)"></g><path id="1723" transform="matrix(1 0 0 -1 0 841)" d="M47.50544 406.768L526.8498 406.768L526.8498 406.768L526.8498 418.4455L526.8498 418.4455L47.50544 418.4455z" stroke="none" fill="#FFFFFF" fill-rule="evenodd" /><g clip-path="url(#46)"></g><path id="1825" transform="matrix(1 0 0 -1 0 841)" d="M47.50544 394.9736L526.8498 394.9736L526.8498 394.9736L526.8498 406.768L526.8498 406.768L47.50544 406.768z" stroke="none" fill="#FFFFFF" fill-rule="evenodd" /><g clip-path="url(#47)"></g><path id="1930" transform="matrix(1 0 0 -1 0 841)" d="M47.50544 375.9198L526.8498 375.9198L526.8498 375.9198L526.8498 394.9776L526.8498 394.9776L47.50544 394.9776z" stroke="none" fill="#FFFFFF" fill-rule="evenodd" /><g clip-path="url(#48)"></g><g clip-path="url(#49)"></g><g clip-path="url(#50)"></g><path id="2001" transform="matrix(1 0 0 -1 0 841)" d="M47.50544 364.2422L526.8498 364.2422L526.8498 364.2422L526.8498 375.9198L526.8498 375.9198L47.50544 375.9198z" stroke="none" fill="#FFFFFF" fill-rule="evenodd" /><g clip-path="url(#51)"></g><g clip-path="url(#52)"></g><path id="2108" transform="matrix(1 0 0 -1 0 841)" d="M47.50544 352.4478L526.8498 352.4478L526.8498 352.4478L526.8498 364.2422L526.8498 364.2422L47.50544 364.2422z" stroke="none" fill="#FFFFFF" fill-rule="evenodd" /><g clip-path="url(#53)"></g><path id="2216" transform="matrix(1 0 0 -1 0 841)" d="M47.50544 333.4134L526.8498 333.4134L526.8498 333.4134L526.8498 352.4478L526.8498 352.4478L47.50544 352.4478z" stroke="none" fill="#FFFFFF" fill-rule="evenodd" /><g clip-path="url(#54)"></g><g clip-path="url(#55)"></g><g clip-path="url(#56)"></g><path id="2273" transform="matrix(1 0 0 -1 0 841)" d="M47.50544 314.379L526.8498 314.379L526.8498 314.379L526.8498 333.4134L526.8498 333.4134L47.50544 333.4134z" stroke="none" fill="#FFFFFF" fill-rule="evenodd" /><g clip-path="url(#57)"></g><g clip-path="url(#58)"></g><g clip-path="url(#59)"></g><path id="2366" transform="matrix(1 0 0 -1 0 841)" d="M47.50544 287.7542L526.8498 287.7542L526.8498 287.7542L526.8498 314.379L526.8498 314.379L47.50544 314.379z" stroke="none" fill="#3C6396" fill-rule="evenodd" /><g clip-path="url(#60)"></g><g clip-path="url(#61)"></g><g clip-path="url(#62)"></g><path id="2393" transform="matrix(1 0 0 -1 0 841)" d="M47.50544 275.9598L526.8498 275.9598L526.8498 275.9598L526.8498 287.7542L526.8498 287.7542L47.50544 287.7542z" stroke="none" fill="#FFFFFF" fill-rule="evenodd" /><g clip-path="url(#63)"></g><g clip-path="url(#64)"></g><g clip-path="url(#65)"></g><path id="2496" transform="matrix(1 0 0 -1 0 841)" d="M47.50544 264.2823L526.8498 264.2823L526.8498 264.2823L526.8498 275.9598L526.8498 275.9598L47.50544 275.9598z" stroke="none" fill="#FFFFFF" fill-rule="evenodd" /><g clip-path="url(#66)"></g><g clip-path="url(#67)"></g><g clip-path="url(#68)"></g><path id="2582" transform="matrix(1 0 0 -1 0 841)" d="M48.2061 236.0226L526.8498 236.0226L526.8498 236.0226L526.8498 247.7001L526.8498 247.7001L48.2061 247.7001z" stroke="none" fill="#FFFFFF" fill-rule="evenodd" /><g clip-path="url(#69)"></g><g clip-path="url(#70)"></g><g clip-path="url(#71)"></g><g clip-path="url(#72)"></g><path id="2687" transform="matrix(1 0 0 -1 0 841)" d="M48.2061 221.3965L526.8498 221.3965L526.8498 221.3965L526.8498 233.2141L526.8498 233.2141L48.2061 233.2141z" stroke="none" fill="#FFFFFF" fill-rule="evenodd" /><g clip-path="url(#73)"></g><g clip-path="url(#74)"></g><g clip-path="url(#75)"></g><path id="2695" transform="matrix(1 0 0 -1 0 841)" d="M48.2061 206.7995L526.8498 206.7995L526.8498 206.7995L526.8498 221.3965L526.8498 221.3965L48.2061 221.3965z" stroke="none" fill="#FFFFFF" fill-rule="evenodd" /><g clip-path="url(#76)"></g><g clip-path="url(#77)"></g><g clip-path="url(#78)"></g><g clip-path="url(#79)"></g><g clip-path="url(#80)"></g><path id="2799" transform="matrix(1 0 0 -1 0 841)" d="M48.2061 192.2025L526.8498 192.2025L526.8498 192.2025L526.8498 206.7995L526.8498 206.7995L48.2061 206.7995z" stroke="none" fill="#FFFFFF" fill-rule="evenodd" /><g clip-path="url(#81)"></g><g clip-path="url(#82)"></g><g clip-path="url(#83)"></g><path id="2814" transform="matrix(1 0 0 -1 0 841)" d="M48.2061 177.6056L526.8498 177.6056L526.8498 177.6056L526.8498 192.2025L526.8498 192.2025L48.2061 192.2025z" stroke="none" fill="#FFFFFF" fill-rule="evenodd" /><g clip-path="url(#84)"></g><g clip-path="url(#85)"></g><g clip-path="url(#86)"></g><g clip-path="url(#87)"></g><path id="2916" transform="matrix(1 0 0 -1 0 841)" d="M48.2061 163.0087L526.8498 163.0087L526.8498 163.0087L526.8498 177.6056L526.8498 177.6056L48.2061 177.6056z" stroke="none" fill="#FFFFFF" fill-rule="evenodd" /><g clip-path="url(#88)"></g><g clip-path="url(#89)"></g><g clip-path="url(#90)"></g><g clip-path="url(#91)"></g><path id="3009" transform="matrix(1 0 0 -1 0 841)" d="M456.4341 166.7455L459.2367 166.7455L459.2367 166.7455L459.2367 167.0958L459.2367 167.0958L456.4341 167.0958z" stroke="none" fill="#800080" fill-rule="evenodd" /><g clip-path="url(#92)"></g><path id="3010" transform="matrix(1 0 0 -1 0 841)" d="M47.50544 121.2069L526.8498 121.2069L526.8498 121.2069L526.8498 146.5472L526.8498 146.5472L47.50544 146.5472z" stroke="none" fill="#FFFFFF" fill-rule="evenodd" /><g clip-path="url(#93)"></g><g clip-path="url(#94)"></g><g clip-path="url(#95)"><g transform="matrix(0.7298475 0 0 0.7298475 56.20523 83.73987)"><g transform="matrix(1 0 0 1 0 0)"><image x="0" y="0" xlink:href="img_515.png" width="150" height="45" /></g></g></g></g></g></g></g></svg>