<svg xmlns="http://www.w3.org/2000/svg" xmlns:xlink="http://www.w3.org/1999/xlink" id="body_261" preserveAspectRatio="xMinYMin meet" viewBox="0 0 793 1121"><defs><clipPath id="1"><path id="" clip-rule="evenodd" transform="matrix(1 0 0 1 0 0)" d="M0 841L0 -0.8900146L0 -0.8900146L595.276 -0.8900146L595.276 -0.8900146L595.276 841L595.276 841L0 841z" /></clipPath></defs><g transform="matrix(1.333333 0 0 1.333333 0 0)"><g clip-path="url(#1)"><path id="23" transform="matrix(1 0 0 -1 0 841)" d="M85.039 766.564L510.236 766.564" stroke="#000000" stroke-width="0.498" fill="none" /><path id="131" transform="matrix(1 0 0 -1 0 841)" d="M180.283 672.713L208.581 672.713" stroke="#000000" stroke-width="0.436" fill="none" /><path id="165" transform="matrix(1 0 0 -1 0 841)" d="M322.143 684.571L432.443 684.571" stroke="#000000" stroke-width="0.436" fill="none" /><path id="171" transform="matrix(1 0 0 -1 0 841)" d="M224.296 672.713L484.122 672.713" stroke="#000000" stroke-width="0.436" fill="none" /><g transform="matrix(0.375 0 0 0.375 112.312 226.858)"><g transform="matrix(1 0 0 1 0 0)"><image x="0" y="0" xlink:href="img_392.png" width="474" height="243" /></g></g><g transform="matrix(0.4875 0 0 0.4875 112.312 352.303)"><g transform="matrix(1 0 0 1 0 0)"><image x="0" y="0" xlink:href="img_393.png" width="364" height="100" /></g></g><path id="439" transform="matrix(1 0 0 -1 0 841)" d="M217.069 326.609L231 326.609" stroke="#000000" stroke-width="0.436" fill="none" /><path id="446" transform="matrix(1 0 0 -1 0 841)" d="M233.39 326.609L247.321 326.609" stroke="#000000" stroke-width="0.436" fill="none" /><path id="456" transform="matrix(1 0 0 -1 0 841)" d="M258.197 326.609L289.778 326.609" stroke="#000000" stroke-width="0.436" fill="none" /><path id="472" transform="matrix(1 0 0 -1 0 841)" d="M338.178 326.609L363.018 326.609" stroke="#000000" stroke-width="0.436" fill="none" /><path id="485" transform="matrix(1 0 0 -1 0 841)" d="M377.538 342.518L440.912 342.518L440.912 346.503L377.538 346.503z" stroke="none" fill="#000000" fill-rule="nonzero" /><path id="486" transform="matrix(1 0 0 -1 0 841)" d="M377.538 310.31L381.523 310.31L381.523 344.51L377.538 344.51z" stroke="none" fill="#000000" fill-rule="nonzero" /><path id="487" transform="matrix(1 0 0 -1 0 841)" d="M436.927 310.31L440.912 310.31L440.912 344.51L436.927 344.51z" stroke="none" fill="#000000" fill-rule="nonzero" /><path id="488" transform="matrix(1 0 0 -1 0 841)" d="M377.538 308.318L440.912 308.318L440.912 312.303L377.538 312.303z" stroke="none" fill="#000000" fill-rule="nonzero" /><path id="573" transform="matrix(1 0 0 -1 0 841)" d="M243.564 274.523L257.81 274.523" stroke="#000000" stroke-width="0.436" fill="none" /><path id="582" transform="matrix(1 0 0 -1 0 841)" d="M285.316 274.523L299.247 274.523" stroke="#000000" stroke-width="0.436" fill="none" /><path id="588" transform="matrix(1 0 0 -1 0 841)" d="M311.015 274.523L317.888 274.523" stroke="#000000" stroke-width="0.436" fill="none" /><path id="601" transform="matrix(1 0 0 -1 0 841)" d="M371.379 274.523L406.167 274.523" stroke="#000000" stroke-width="0.436" fill="none" /><path id="619" transform="matrix(1 0 0 -1 0 841)" d="M423.223 274.523L481.396 274.523" stroke="#000000" stroke-width="0.436" fill="none" /><path id="630" transform="matrix(1 0 0 -1 0 841)" d="M142.762 233.922L157.008 233.922" stroke="#000000" stroke-width="0.436" fill="none" /><path id="634" transform="matrix(1 0 0 -1 0 841)" d="M112.312 259.211L173.528 259.211L173.528 263.196L112.312 263.196z" stroke="none" fill="#000000" fill-rule="nonzero" /><path id="635" transform="matrix(1 0 0 -1 0 841)" d="M112.312 210.26L116.297 210.26L116.297 261.203L112.312 261.203z" stroke="none" fill="#000000" fill-rule="nonzero" /><path id="636" transform="matrix(1 0 0 -1 0 841)" d="M169.543 210.26L173.528 210.26L173.528 261.203L169.543 261.203z" stroke="none" fill="#000000" fill-rule="nonzero" /><path id="637" transform="matrix(1 0 0 -1 0 841)" d="M112.312 208.268L173.528 208.268L173.528 212.253L112.312 212.253z" stroke="none" fill="#000000" fill-rule="nonzero" /><g transform="matrix(0.375 0 0 0.375 112.312 664.836)"><g transform="matrix(1 0 0 1 0 0)"><image x="0" y="0" xlink:href="img_392.png" width="474" height="243" /></g></g></g></g></svg>