<svg xmlns="http://www.w3.org/2000/svg" xmlns:xlink="http://www.w3.org/1999/xlink" id="body_286" preserveAspectRatio="xMinYMin meet" viewBox="0 0 793 1121"><defs><clipPath id="1"><path id="" clip-rule="evenodd" transform="matrix(1 0 0 1 0 0)" d="M0 841L0 -0.8900146L0 -0.8900146L595.276 -0.8900146L595.276 -0.8900146L595.276 841L595.276 841L0 841z" /></clipPath></defs><g transform="matrix(1.333333 0 0 1.333333 0 0)"><g clip-path="url(#1)"><path id="23" transform="matrix(1 0 0 -1 0 841)" d="M85.039 766.564L510.236 766.564" stroke="#000000" stroke-width="0.498" fill="none" /><path id="24" transform="matrix(1 0 0 -1 0 841)" d="M90.90784 748.147C 90.90784 752.8438 89.63864 756.6511 88.073 756.6511C 86.50735 756.6511 85.23816 752.8438 85.23816 748.147C 85.23816 743.4502 86.50735 739.6428 88.073 739.6428C 89.63864 739.6428 90.90784 743.4502 90.90784 748.147z" stroke="#000000" stroke-width="0.3985" fill="none" /><path id="25" transform="matrix(1 0 0 -1 0 841)" d="M374.3759 748.147C 374.3759 752.8438 373.1068 756.6511 371.5411 756.6511C 369.9754 756.6511 368.7062 752.8438 368.7062 748.147C 368.7062 743.4502 369.9754 739.6428 371.5411 739.6428C 373.1068 739.6428 374.3759 743.4502 374.3759 748.147z" stroke="#000000" stroke-width="0.3985" fill="none" /><path id="26" transform="matrix(1 0 0 -1 0 841)" d="M88.073 739.9266L371.5411 739.9266" stroke="#000000" stroke-width="0.3985" fill="none" /><path id="27" transform="matrix(1 0 0 -1 0 841)" d="M88.073 756.3674L371.5411 756.3674" stroke="#000000" stroke-width="0.3985" fill="none" /><path id="28" transform="matrix(1 0 0 -1 0 841)" d="M371.5411 740.6085L371.5411 755.6855" stroke="#000000" stroke-width="0.3985" fill="none" /><path id="29" transform="matrix(1 0 0 -1 0 841)" d="M373.9322 742.4814C 372.4975 742.1028 371.8201 741.2591 371.5411 740.4091C 371.2621 741.2591 370.5847 742.1028 369.1501 742.4814" stroke="#000000" stroke-width="0.3985" stroke-linecap="round" fill="none" /><path id="30" transform="matrix(1 0 0 -1 0 841)" d="M369.1501 753.8125C 370.5847 754.1911 371.2621 755.0348 371.5411 755.8848C 371.8201 755.0348 372.4975 754.1911 373.9322 753.8125" stroke="#000000" stroke-width="0.3985" stroke-linecap="round" fill="none" /><path id="42" transform="matrix(1 0 0 -1 0 841)" d="M88.4715 728.8713L371.1426 728.8713" stroke="#000000" stroke-width="0.3985" fill="none" /><path id="43" transform="matrix(1 0 0 -1 0 841)" d="M90.34449 726.4803C 89.9659 727.915 89.12224 728.5924 88.27225 728.8713C 89.12224 729.1503 89.9659 729.8277 90.34449 731.2624" stroke="#000000" stroke-width="0.3985" stroke-linecap="round" fill="none" /><path id="44" transform="matrix(1 0 0 -1 0 841)" d="M369.2696 731.2624C 369.6482 729.8277 370.4919 729.1503 371.3418 728.8713C 370.4919 728.5924 369.6482 727.915 369.2696 726.4803" stroke="#000000" stroke-width="0.3985" stroke-linecap="round" fill="none" /><path id="64" transform="matrix(1 0 0 -1 0 841)" d="M86.235 688.929L93.108 688.929" stroke="#000000" stroke-width="0.436" fill="none" /><path id="79" transform="matrix(1 0 0 -1 0 841)" d="M175.603 688.929L186.512 688.929" stroke="#000000" stroke-width="0.436" fill="none" /><path id="105" transform="matrix(1 0 0 -1 0 841)" d="M266.864 688.929L300.103 688.929" stroke="#000000" stroke-width="0.436" fill="none" /><path id="122" transform="matrix(1 0 0 -1 0 841)" d="M314.623 696.901L376.455 696.901" stroke="#000000" stroke-width="0.398" fill="none" /><path id="123" transform="matrix(1 0 0 -1 0 841)" d="M314.822 680.789L314.822 696.901" stroke="#000000" stroke-width="0.398" fill="none" /><path id="124" transform="matrix(1 0 0 -1 0 841)" d="M376.256 680.789L376.256 696.901" stroke="#000000" stroke-width="0.398" fill="none" /><path id="125" transform="matrix(1 0 0 -1 0 841)" d="M314.623 680.789L376.455 680.789" stroke="#000000" stroke-width="0.398" fill="none" /><path id="404" transform="matrix(1 0 0 -1 0 841)" d="M180.283 511.142L208.581 511.142" stroke="#000000" stroke-width="0.436" fill="none" /><path id="438" transform="matrix(1 0 0 -1 0 841)" d="M322.143 522.999L432.443 522.999" stroke="#000000" stroke-width="0.436" fill="none" /><path id="444" transform="matrix(1 0 0 -1 0 841)" d="M224.296 511.142L484.122 511.142" stroke="#000000" stroke-width="0.436" fill="none" /><g transform="matrix(0.375 0 0 0.375 112.312 388.43)"><g transform="matrix(1 0 0 1 0 0)"><image x="0" y="0" xlink:href="img_427.png" width="474" height="243" /></g></g><g transform="matrix(0.4875 0 0 0.4875 112.312 513.875)"><g transform="matrix(1 0 0 1 0 0)"><image x="0" y="0" xlink:href="img_428.png" width="364" height="100" /></g></g><path id="717" transform="matrix(1 0 0 -1 0 841)" d="M215.369 163.415L229.3 163.415" stroke="#000000" stroke-width="0.436" fill="none" /><path id="724" transform="matrix(1 0 0 -1 0 841)" d="M231.69 163.415L245.621 163.415" stroke="#000000" stroke-width="0.436" fill="none" /><path id="734" transform="matrix(1 0 0 -1 0 841)" d="M256.497 163.415L288.078 163.415" stroke="#000000" stroke-width="0.436" fill="none" /><path id="750" transform="matrix(1 0 0 -1 0 841)" d="M336.478 163.415L361.318 163.415" stroke="#000000" stroke-width="0.436" fill="none" /><path id="763" transform="matrix(1 0 0 -1 0 841)" d="M375.838 171.174L415.34 171.174" stroke="#000000" stroke-width="0.398" fill="none" /><path id="764" transform="matrix(1 0 0 -1 0 841)" d="M376.037 157.26L376.037 171.174" stroke="#000000" stroke-width="0.398" fill="none" /><path id="765" transform="matrix(1 0 0 -1 0 841)" d="M415.14 157.26L415.14 171.174" stroke="#000000" stroke-width="0.398" fill="none" /><path id="766" transform="matrix(1 0 0 -1 0 841)" d="M375.838 157.26L415.34 157.26" stroke="#000000" stroke-width="0.398" fill="none" /><path id="858" transform="matrix(1 0 0 -1 0 841)" d="M212.593 112.819L226.839 112.819" stroke="#000000" stroke-width="0.436" fill="none" /><path id="867" transform="matrix(1 0 0 -1 0 841)" d="M253.006 112.819L266.937 112.819" stroke="#000000" stroke-width="0.436" fill="none" /><path id="873" transform="matrix(1 0 0 -1 0 841)" d="M277.813 112.819L284.686 112.819" stroke="#000000" stroke-width="0.436" fill="none" /><path id="886" transform="matrix(1 0 0 -1 0 841)" d="M336.391 112.819L371.179 112.819" stroke="#000000" stroke-width="0.436" fill="none" /><path id="904" transform="matrix(1 0 0 -1 0 841)" d="M386.895 112.819L445.068 112.819" stroke="#000000" stroke-width="0.436" fill="none" /><path id="915" transform="matrix(1 0 0 -1 0 841)" d="M478.101 112.819L492.347 112.819" stroke="#000000" stroke-width="0.436" fill="none" /><path id="919" transform="matrix(1 0 0 -1 0 841)" d="M459.588 129.957L496.931 129.957" stroke="#000000" stroke-width="0.398" fill="none" /><path id="920" transform="matrix(1 0 0 -1 0 841)" d="M459.787 99.3L459.787 129.957" stroke="#000000" stroke-width="0.398" fill="none" /><path id="921" transform="matrix(1 0 0 -1 0 841)" d="M496.731 99.3L496.731 129.957" stroke="#000000" stroke-width="0.398" fill="none" /><path id="922" transform="matrix(1 0 0 -1 0 841)" d="M459.588 99.3L496.931 99.3" stroke="#000000" stroke-width="0.398" fill="none" /></g></g></svg>