<svg xmlns="http://www.w3.org/2000/svg" xmlns:xlink="http://www.w3.org/1999/xlink" id="body_6" preserveAspectRatio="xMinYMin meet" viewBox="0 0 793 1121"><defs><clipPath id="1"><path id="" clip-rule="evenodd" transform="matrix(1 0 0 1 0 0)" d="M0 841L0 -0.8900146L0 -0.8900146L595.276 -0.8900146L595.276 -0.8900146L595.276 841L595.276 841L0 841z" /></clipPath></defs><g transform="matrix(1.333333 0 0 1.333333 0 0)"><g clip-path="url(#1)"><path id="1171" transform="matrix(1 0 0 -1 0 841)" d="M85.039 394.263L115.07 394.263L115.07 414.105L85.039 414.105z" stroke="none" fill="#FDE0D1" fill-rule="nonzero" /><path id="1175" transform="matrix(1 0 0 -1 0 841)" d="M119.055 394.263L510.236 394.263L510.236 414.105L119.055 414.105z" stroke="none" fill="#FAC2A3" fill-rule="nonzero" /><path id="1820" transform="matrix(1 0 0 -1 0 841)" d="M85.039 132.643L115.07 132.643L115.07 152.485L85.039 152.485z" stroke="none" fill="#FDE0D1" fill-rule="nonzero" /><path id="1825" transform="matrix(1 0 0 -1 0 841)" d="M119.055 132.643L510.236 132.643L510.236 152.485L119.055 152.485z" stroke="none" fill="#FAC2A3" fill-rule="nonzero" /></g></g></svg>