<svg xmlns="http://www.w3.org/2000/svg" xmlns:xlink="http://www.w3.org/1999/xlink" id="body_263" preserveAspectRatio="xMinYMin meet" viewBox="0 0 793 1121"><defs><clipPath id="1"><path id="" clip-rule="evenodd" transform="matrix(1 0 0 1 0 0)" d="M0 841L0 -0.8900146L0 -0.8900146L595.276 -0.8900146L595.276 -0.8900146L595.276 841L595.276 841L0 841z" /></clipPath></defs><g transform="matrix(1.333333 0 0 1.333333 0 0)"><g clip-path="url(#1)"><path id="23" transform="matrix(1 0 0 -1 0 841)" d="M85.039 766.564L510.236 766.564" stroke="#000000" stroke-width="0.498" fill="none" /><path id="536" transform="matrix(1 0 0 -1 0 841)" d="M490.51 610.656L563.109 610.656" stroke="#000000" stroke-width="0.436" fill="none" /><path id="667" transform="matrix(1 0 0 -1 0 841)" d="M113.508 556.698L151.635 556.698" stroke="#000000" stroke-width="0.436" fill="none" /><path id="683" transform="matrix(1 0 0 -1 0 841)" d="M168.567 556.698L206.694 556.698" stroke="#000000" stroke-width="0.436" fill="none" /><path id="722" transform="matrix(1 0 0 -1 0 841)" d="M276.871 533.731L310.383 533.731" stroke="#000000" stroke-width="0.436" fill="none" /><path id="794" transform="matrix(1 0 0 -1 0 841)" d="M157.784 473.608L195.758 473.608" stroke="#000000" stroke-width="0.436" fill="none" /><path id="972" transform="matrix(1 0 0 -1 0 841)" d="M113.508 396.711L157.656 396.711" stroke="#000000" stroke-width="0.436" fill="none" /><path id="982" transform="matrix(1 0 0 -1 0 841)" d="M168.532 396.711L221.157 396.711" stroke="#000000" stroke-width="0.436" fill="none" /><path id="1006" transform="matrix(1 0 0 -1 0 841)" d="M232.032 396.711L259.305 396.711" stroke="#000000" stroke-width="0.436" fill="none" /><path id="1017" transform="matrix(1 0 0 -1 0 841)" d="M275.021 396.711L308.653 396.711" stroke="#000000" stroke-width="0.436" fill="none" /><path id="1069" transform="matrix(1 0 0 -1 0 841)" d="M172.927 358.722L239.95 358.722" stroke="#000000" stroke-width="0.436" fill="none" /><path id="1286" transform="matrix(1 0 0 -1 0 841)" d="M290.682 286.543L304.928 286.543" stroke="#000000" stroke-width="0.436" fill="none" /><path id="1691" transform="matrix(1 0 0 -1 0 841)" d="M306.423 89.94L340.903 89.94" stroke="#000000" stroke-width="0.436" fill="none" /></g></g></svg>