<svg xmlns="http://www.w3.org/2000/svg" xmlns:xlink="http://www.w3.org/1999/xlink" id="body_159" preserveAspectRatio="xMinYMin meet" viewBox="0 0 793 1121"><defs><clipPath id="1"><path id="" clip-rule="evenodd" transform="matrix(1 0 0 1 0 0)" d="M0 841L0 -0.8900146L0 -0.8900146L595.276 -0.8900146L595.276 -0.8900146L595.276 841L595.276 841L0 841z" /></clipPath></defs><g transform="matrix(1.333333 0 0 1.333333 0 0)"><g clip-path="url(#1)"><path id="23" transform="matrix(1 0 0 -1 0 841)" d="M85.039 766.564L510.236 766.564" stroke="#000000" stroke-width="0.498" fill="none" /><g transform="matrix(0.8 0 0 0.8 185.238 84.14996)"><g transform="matrix(1 0 0 1 0 0)"><image x="0" y="0" xlink:href="img_231.png" width="281" height="179" /></g></g><g transform="matrix(0.1309091 0 0 0.1309091 112.662 265.8354)"><g transform="matrix(1 0 0 1 0 0)"><image x="0" y="0" xlink:href="img_232.png" width="2826" height="984" /></g></g><g transform="matrix(0.08 0 0 0.08 220.836 434.631)"><g transform="matrix(1 0 0 1 0 0)"><image x="0" y="0" xlink:href="img_233.png" width="1920" height="1280" /></g></g></g></g></svg>