<svg xmlns="http://www.w3.org/2000/svg" xmlns:xlink="http://www.w3.org/1999/xlink" id="body_304" preserveAspectRatio="xMinYMin meet" viewBox="0 0 793 1121"><defs><clipPath id="1"><path id="" clip-rule="evenodd" transform="matrix(1 0 0 1 0 0)" d="M0 841L0 -0.8900146L0 -0.8900146L595.276 -0.8900146L595.276 -0.8900146L595.276 841L595.276 841L0 841z" /></clipPath></defs><g transform="matrix(1.333333 0 0 1.333333 0 0)"><g clip-path="url(#1)"><path id="22" transform="matrix(1 0 0 -1 0 841)" d="M85.039 766.564L510.236 766.564" stroke="#000000" stroke-width="0.498" fill="none" /><path id="340" transform="matrix(1 0 0 -1 0 841)" d="M134.354 628.975L249.738 628.975" stroke="#000000" stroke-width="0.436" fill="none" /><path id="399" transform="matrix(1 0 0 -1 0 841)" d="M316.056 628.975L431.44 628.975" stroke="#000000" stroke-width="0.436" fill="none" /><path id="479" transform="matrix(1 0 0 -1 0 841)" d="M265.834 592.676L381.218 592.676" stroke="#000000" stroke-width="0.436" fill="none" /><path id="548" transform="matrix(1 0 0 -1 0 841)" d="M392.094 592.676L500.671 592.676" stroke="#000000" stroke-width="0.436" fill="none" /><path id="612" transform="matrix(1 0 0 -1 0 841)" d="M95.94 572.344L415.747 572.344" stroke="#000000" stroke-width="0.398" fill="none" /><path id="613" transform="matrix(1 0 0 -1 0 841)" d="M96.139 556.156L96.139 572.345" stroke="#000000" stroke-width="0.398" fill="none" /><path id="614" transform="matrix(1 0 0 -1 0 841)" d="M415.548 556.156L415.548 572.345" stroke="#000000" stroke-width="0.398" fill="none" /><path id="615" transform="matrix(1 0 0 -1 0 841)" d="M95.94 556.156L415.747 556.156" stroke="#000000" stroke-width="0.398" fill="none" /><path id="616" transform="matrix(1 0 0 -1 0 841)" d="M85.039 487.842L85.039 540.4675C 85.039 542.8159 86.94264 544.7195 89.29099 544.7195L89.29099 544.7195L505.9893 544.7195C 508.3377 544.7195 510.2413 542.8159 510.2413 540.4675L510.2413 540.4675L510.2413 487.842C 510.2413 485.4936 508.3377 483.59 505.9893 483.59L505.9893 483.59L89.29099 483.59C 86.94264 483.59 85.039 485.4936 85.039 487.842z" stroke="none" fill="#BFBFFF" fill-rule="nonzero" /><path id="617" transform="matrix(1 0 0 -1 0 841)" d="M86.45631 487.842L86.45631 528.7101L86.45631 528.7101L508.824 528.7101L508.824 528.7101L508.824 487.842C 508.824 486.2764 507.5549 485.0073 505.9893 485.0073L505.9893 485.0073L89.29099 485.0073C 87.72543 485.0073 86.45631 486.2764 86.45631 487.842z" stroke="none" fill="#E6E6FF" fill-rule="nonzero" /><path id="795" transform="matrix(1 0 0 -1 0 841)" d="M180.884 384.662L197.204 384.662" stroke="#000000" stroke-width="0.436" fill="none" /><path id="816" transform="matrix(1 0 0 -1 0 841)" d="M283.184 384.662L296.515 384.662" stroke="#000000" stroke-width="0.436" fill="none" /><path id="1000" transform="matrix(1 0 0 -1 0 841)" d="M112.063 309.84L124.681 309.84L124.681 322.113L112.063 322.113z" stroke="none" fill="#FFF100" fill-rule="nonzero" /><path id="1003" transform="matrix(1 0 0 -1 0 841)" d="M124.183 309.84L139.223 309.84L139.223 322.113L124.183 322.113z" stroke="none" fill="#FFF100" fill-rule="nonzero" /><path id="1007" transform="matrix(1 0 0 -1 0 841)" d="M138.725 309.84L155.586 309.84L155.586 322.113L138.725 322.113z" stroke="none" fill="#FFF100" fill-rule="nonzero" /><path id="1012" transform="matrix(1 0 0 -1 0 841)" d="M155.337 309.84L158.064 309.84L158.064 322.113L155.337 322.113z" stroke="none" fill="#FFF100" fill-rule="nonzero" /><path id="1013" transform="matrix(1 0 0 -1 0 841)" d="M157.815 309.84L184.375 309.84L184.375 322.113L157.815 322.113z" stroke="none" fill="#FFF100" fill-rule="nonzero" /><path id="1022" transform="matrix(1 0 0 -1 0 841)" d="M136.063 292.765L153.525 292.765L153.525 305.038L136.063 305.038z" stroke="none" fill="#FFF100" fill-rule="nonzero" /><path id="1026" transform="matrix(1 0 0 -1 0 841)" d="M153.615 292.765L156.479 292.765L156.479 305.038L153.615 305.038z" stroke="none" fill="#FFF100" fill-rule="nonzero" /><path id="1027" transform="matrix(1 0 0 -1 0 841)" d="M156.23 292.765L173.702 292.765L173.702 305.038L156.23 305.038z" stroke="none" fill="#FFF100" fill-rule="nonzero" /><path id="1032" transform="matrix(1 0 0 -1 0 841)" d="M173.793 292.765L176.657 292.765L176.657 305.038L173.793 305.038z" stroke="none" fill="#FFF100" fill-rule="nonzero" /><path id="1033" transform="matrix(1 0 0 -1 0 841)" d="M176.408 292.765L185.993 292.765L185.993 305.038L176.408 305.038z" stroke="none" fill="#FFF100" fill-rule="nonzero" /><path id="1036" transform="matrix(1 0 0 -1 0 841)" d="M185.926 292.765L188.79 292.765L188.79 305.038L185.926 305.038z" stroke="none" fill="#FFF100" fill-rule="nonzero" /><path id="1037" transform="matrix(1 0 0 -1 0 841)" d="M188.541 292.765L202.37 292.765L202.37 305.038L188.541 305.038z" stroke="none" fill="#FFF100" fill-rule="nonzero" /><path id="1041" transform="matrix(1 0 0 -1 0 841)" d="M202.387 292.765L205.251 292.765L205.251 305.038L202.387 305.038z" stroke="none" fill="#FFF100" fill-rule="nonzero" /><path id="1042" transform="matrix(1 0 0 -1 0 841)" d="M205.003 292.765L221.254 292.765L221.254 305.038L205.003 305.038z" stroke="none" fill="#FFF100" fill-rule="nonzero" /><path id="1046" transform="matrix(1 0 0 -1 0 841)" d="M221.07 292.765L253.695 292.765L253.695 305.038L221.07 305.038z" stroke="none" fill="#FFF100" fill-rule="nonzero" /><path id="1055" transform="matrix(1 0 0 -1 0 841)" d="M254.088 292.765L256.952 292.765L256.952 305.038L254.088 305.038z" stroke="none" fill="#FFF100" fill-rule="nonzero" /><path id="1056" transform="matrix(1 0 0 -1 0 841)" d="M256.704 292.765L275.987 292.765L275.987 305.038L256.704 305.038z" stroke="none" fill="#FFF100" fill-rule="nonzero" /><path id="1061" transform="matrix(1 0 0 -1 0 841)" d="M275.864 292.765L290.304 292.765L290.304 305.038L275.864 305.038z" stroke="none" fill="#FFF100" fill-rule="nonzero" /><path id="1065" transform="matrix(1 0 0 -1 0 841)" d="M290.334 292.765L293.198 292.765L293.198 305.038L290.334 305.038z" stroke="none" fill="#FFF100" fill-rule="nonzero" /><path id="1066" transform="matrix(1 0 0 -1 0 841)" d="M292.949 292.765L309.8 292.765L309.8 305.038L292.949 305.038z" stroke="none" fill="#FFF100" fill-rule="nonzero" /><path id="1071" transform="matrix(1 0 0 -1 0 841)" d="M309.878 292.765L312.742 292.765L312.742 305.038L309.878 305.038z" stroke="none" fill="#FFF100" fill-rule="nonzero" /><path id="1072" transform="matrix(1 0 0 -1 0 841)" d="M312.493 292.765L329.965 292.765L329.965 305.038L312.493 305.038z" stroke="none" fill="#FFF100" fill-rule="nonzero" /><path id="1077" transform="matrix(1 0 0 -1 0 841)" d="M330.055 292.765L332.919 292.765L332.919 305.038L330.055 305.038z" stroke="none" fill="#FFF100" fill-rule="nonzero" /><path id="1078" transform="matrix(1 0 0 -1 0 841)" d="M332.671 292.765L343.467 292.765L343.467 305.038L332.671 305.038z" stroke="none" fill="#FFF100" fill-rule="nonzero" /><path id="1081" transform="matrix(1 0 0 -1 0 841)" d="M343.424 292.765L346.288 292.765L346.288 305.038L343.424 305.038z" stroke="none" fill="#FFF100" fill-rule="nonzero" /><path id="1082" transform="matrix(1 0 0 -1 0 841)" d="M346.039 292.765L355.024 292.765L355.024 305.038L346.039 305.038z" stroke="none" fill="#FFF100" fill-rule="nonzero" /><path id="1085" transform="matrix(1 0 0 -1 0 841)" d="M354.945 292.765L357.809 292.765L357.809 305.038L354.945 305.038z" stroke="none" fill="#FFF100" fill-rule="nonzero" /><path id="1086" transform="matrix(1 0 0 -1 0 841)" d="M357.56 292.765L370.789 292.765L370.789 305.038L357.56 305.038z" stroke="none" fill="#FFF100" fill-rule="nonzero" /><path id="1090" transform="matrix(1 0 0 -1 0 841)" d="M370.794 292.765L373.658 292.765L373.658 305.038L370.794 305.038z" stroke="none" fill="#FFF100" fill-rule="nonzero" /><path id="1091" transform="matrix(1 0 0 -1 0 841)" d="M373.409 292.765L387.838 292.765L387.838 305.038L373.409 305.038z" stroke="none" fill="#FFF100" fill-rule="nonzero" /><path id="1095" transform="matrix(1 0 0 -1 0 841)" d="M387.868 292.765L390.732 292.765L390.732 305.038L387.868 305.038z" stroke="none" fill="#FFF100" fill-rule="nonzero" /><path id="1096" transform="matrix(1 0 0 -1 0 841)" d="M390.483 292.765L404.312 292.765L404.312 305.038L390.483 305.038z" stroke="none" fill="#FFF100" fill-rule="nonzero" /><path id="1100" transform="matrix(1 0 0 -1 0 841)" d="M404.329 292.765L407.193 292.765L407.193 305.038L404.329 305.038z" stroke="none" fill="#FFF100" fill-rule="nonzero" /><path id="1101" transform="matrix(1 0 0 -1 0 841)" d="M406.944 292.765L424.416 292.765L424.416 305.038L406.944 305.038z" stroke="none" fill="#FFF100" fill-rule="nonzero" /><path id="1106" transform="matrix(1 0 0 -1 0 841)" d="M424.507 292.765L427.371 292.765L427.371 305.038L424.507 305.038z" stroke="none" fill="#FFF100" fill-rule="nonzero" /><path id="1107" transform="matrix(1 0 0 -1 0 841)" d="M427.122 292.765L436.707 292.765L436.707 305.038L427.122 305.038z" stroke="none" fill="#FFF100" fill-rule="nonzero" /><path id="1110" transform="matrix(1 0 0 -1 0 841)" d="M436.64 292.765L439.504 292.765L439.504 305.038L436.64 305.038z" stroke="none" fill="#FFF100" fill-rule="nonzero" /><path id="1111" transform="matrix(1 0 0 -1 0 841)" d="M439.255 292.765L459.149 292.765L459.149 305.038L439.255 305.038z" stroke="none" fill="#FFF100" fill-rule="nonzero" /><path id="1116" transform="matrix(1 0 0 -1 0 841)" d="M459.288 292.765L462.152 292.765L462.152 305.038L459.288 305.038z" stroke="none" fill="#FFF100" fill-rule="nonzero" /><path id="1117" transform="matrix(1 0 0 -1 0 841)" d="M461.903 292.765L475.732 292.765L475.732 305.038L461.903 305.038z" stroke="none" fill="#FFF100" fill-rule="nonzero" /><path id="1121" transform="matrix(1 0 0 -1 0 841)" d="M475.75 292.765L478.614 292.765L478.614 305.038L475.75 305.038z" stroke="none" fill="#FFF100" fill-rule="nonzero" /><path id="1122" transform="matrix(1 0 0 -1 0 841)" d="M478.365 292.765L497.987 292.765L497.987 305.038L478.365 305.038z" stroke="none" fill="#FFF100" fill-rule="nonzero" /><path id="1126" transform="matrix(1 0 0 -1 0 841)" d="M498.125 292.765L500.989 292.765L500.989 305.038L498.125 305.038z" stroke="none" fill="#FFF100" fill-rule="nonzero" /><path id="1127" transform="matrix(1 0 0 -1 0 841)" d="M500.74 292.765L508.514 292.765L508.514 305.038L500.74 305.038z" stroke="none" fill="#FFF100" fill-rule="nonzero" /><path id="1130" transform="matrix(1 0 0 -1 0 841)" d="M136.063 275.828L146.696 275.828L146.696 288.101L136.063 288.101z" stroke="none" fill="#FFF100" fill-rule="nonzero" /><path id="1133" transform="matrix(1 0 0 -1 0 841)" d="M146.404 275.828L179.618 275.828L179.618 288.101L146.404 288.101z" stroke="none" fill="#FFF100" fill-rule="nonzero" /><path id="1141" transform="matrix(1 0 0 -1 0 841)" d="M180.023 275.828L183.12 275.828L183.12 288.101L180.023 288.101z" stroke="none" fill="#FFF100" fill-rule="nonzero" /><path id="1142" transform="matrix(1 0 0 -1 0 841)" d="M182.871 275.828L194.584 275.828L194.584 288.101L182.871 288.101z" stroke="none" fill="#FFF100" fill-rule="nonzero" /><path id="1146" transform="matrix(1 0 0 -1 0 841)" d="M194.559 275.828L197.656 275.828L197.656 288.101L194.559 288.101z" stroke="none" fill="#FFF100" fill-rule="nonzero" /><path id="1147" transform="matrix(1 0 0 -1 0 841)" d="M197.407 275.828L209.425 275.828L209.425 288.101L197.407 288.101z" stroke="none" fill="#FFF100" fill-rule="nonzero" /><path id="1150" transform="matrix(1 0 0 -1 0 841)" d="M209.407 275.828L212.504 275.828L212.504 288.101L209.407 288.101z" stroke="none" fill="#FFF100" fill-rule="nonzero" /><path id="1151" transform="matrix(1 0 0 -1 0 841)" d="M212.255 275.828L219.418 275.828L219.418 288.101L212.255 288.101z" stroke="none" fill="#FFF100" fill-rule="nonzero" /><path id="1154" transform="matrix(1 0 0 -1 0 841)" d="M219.303 275.828L222.4 275.828L222.4 288.101L219.303 288.101z" stroke="none" fill="#FFF100" fill-rule="nonzero" /><path id="1155" transform="matrix(1 0 0 -1 0 841)" d="M222.151 275.828L235.98 275.828L235.98 288.101L222.151 288.101z" stroke="none" fill="#FFF100" fill-rule="nonzero" /><path id="1159" transform="matrix(1 0 0 -1 0 841)" d="M235.998 275.828L239.095 275.828L239.095 288.101L235.998 288.101z" stroke="none" fill="#FFF100" fill-rule="nonzero" /><path id="1160" transform="matrix(1 0 0 -1 0 841)" d="M238.846 275.828L258.468 275.828L258.468 288.101L238.846 288.101z" stroke="none" fill="#FFF100" fill-rule="nonzero" /><path id="1164" transform="matrix(1 0 0 -1 0 841)" d="M258.607 275.828L261.704 275.828L261.704 288.101L258.607 288.101z" stroke="none" fill="#FFF100" fill-rule="nonzero" /><path id="1165" transform="matrix(1 0 0 -1 0 841)" d="M261.455 275.828L269.229 275.828L269.229 288.101L261.455 288.101z" stroke="none" fill="#FFF100" fill-rule="nonzero" /><path id="1168" transform="matrix(1 0 0 -1 0 841)" d="M269.126 275.828L272.223 275.828L272.223 288.101L269.126 288.101z" stroke="none" fill="#FFF100" fill-rule="nonzero" /><path id="1169" transform="matrix(1 0 0 -1 0 841)" d="M271.974 275.828L280.959 275.828L280.959 288.101L271.974 288.101z" stroke="none" fill="#FFF100" fill-rule="nonzero" /><path id="1172" transform="matrix(1 0 0 -1 0 841)" d="M280.88 275.828L283.977 275.828L283.977 288.101L280.88 288.101z" stroke="none" fill="#FFF100" fill-rule="nonzero" /><path id="1173" transform="matrix(1 0 0 -1 0 841)" d="M283.729 275.828L301.802 275.828L301.802 288.101L283.729 288.101z" stroke="none" fill="#FFF100" fill-rule="nonzero" /><path id="1176" transform="matrix(1 0 0 -1 0 841)" d="M301.904 275.828L305.001 275.828L305.001 288.101L301.904 288.101z" stroke="none" fill="#FFF100" fill-rule="nonzero" /><path id="1177" transform="matrix(1 0 0 -1 0 841)" d="M304.752 275.828L319.181 275.828L319.181 288.101L304.752 288.101z" stroke="none" fill="#FFF100" fill-rule="nonzero" /><path id="1181" transform="matrix(1 0 0 -1 0 841)" d="M319.21 275.828L322.307 275.828L322.307 288.101L319.21 288.101z" stroke="none" fill="#FFF100" fill-rule="nonzero" /><path id="1182" transform="matrix(1 0 0 -1 0 841)" d="M322.059 275.828L338.31 275.828L338.31 288.101L322.059 288.101z" stroke="none" fill="#FFF100" fill-rule="nonzero" /><path id="1186" transform="matrix(1 0 0 -1 0 841)" d="M338.376 275.828L341.473 275.828L341.473 288.101L338.376 288.101z" stroke="none" fill="#FFF100" fill-rule="nonzero" /><path id="1187" transform="matrix(1 0 0 -1 0 841)" d="M341.224 275.828L355.053 275.828L355.053 288.101L341.224 288.101z" stroke="none" fill="#FFF100" fill-rule="nonzero" /><path id="1191" transform="matrix(1 0 0 -1 0 841)" d="M355.07 275.828L358.167 275.828L358.167 288.101L355.07 288.101z" stroke="none" fill="#FFF100" fill-rule="nonzero" /><path id="1192" transform="matrix(1 0 0 -1 0 841)" d="M357.919 275.828L371.137 275.828L371.137 288.101L357.919 288.101z" stroke="none" fill="#FFF100" fill-rule="nonzero" /><path id="1196" transform="matrix(1 0 0 -1 0 841)" d="M370.893 275.828L381.689 275.828L381.689 288.101L370.893 288.101z" stroke="none" fill="#FFF100" fill-rule="nonzero" /><path id="1199" transform="matrix(1 0 0 -1 0 841)" d="M381.397 275.828L403.102 275.828L403.102 288.101L381.397 288.101z" stroke="none" fill="#FFF100" fill-rule="nonzero" /><path id="1205" transform="matrix(1 0 0 -1 0 841)" d="M403.277 275.828L406.374 275.828L406.374 288.101L403.277 288.101z" stroke="none" fill="#FFF100" fill-rule="nonzero" /><path id="1206" transform="matrix(1 0 0 -1 0 841)" d="M406.125 275.828L425.408 275.828L425.408 288.101L406.125 288.101z" stroke="none" fill="#FFF100" fill-rule="nonzero" /><path id="1211" transform="matrix(1 0 0 -1 0 841)" d="M425.286 275.828L439.726 275.828L439.726 288.101L425.286 288.101z" stroke="none" fill="#FFF100" fill-rule="nonzero" /><path id="1215" transform="matrix(1 0 0 -1 0 841)" d="M439.756 275.828L442.853 275.828L442.853 288.101L439.756 288.101z" stroke="none" fill="#FFF100" fill-rule="nonzero" /><path id="1216" transform="matrix(1 0 0 -1 0 841)" d="M442.604 275.828L459.455 275.828L459.455 288.101L442.604 288.101z" stroke="none" fill="#FFF100" fill-rule="nonzero" /><path id="1221" transform="matrix(1 0 0 -1 0 841)" d="M459.533 275.828L462.63 275.828L462.63 288.101L459.533 288.101z" stroke="none" fill="#FFF100" fill-rule="nonzero" /><path id="1222" transform="matrix(1 0 0 -1 0 841)" d="M462.381 275.828L479.853 275.828L479.853 288.101L462.381 288.101z" stroke="none" fill="#FFF100" fill-rule="nonzero" /><path id="1227" transform="matrix(1 0 0 -1 0 841)" d="M479.944 275.828L483.041 275.828L483.041 288.101L479.944 288.101z" stroke="none" fill="#FFF100" fill-rule="nonzero" /><path id="1228" transform="matrix(1 0 0 -1 0 841)" d="M482.792 275.828L493.588 275.828L493.588 288.101L482.792 288.101z" stroke="none" fill="#FFF100" fill-rule="nonzero" /><path id="1231" transform="matrix(1 0 0 -1 0 841)" d="M493.546 275.828L496.643 275.828L496.643 288.101L493.546 288.101z" stroke="none" fill="#FFF100" fill-rule="nonzero" /><path id="1232" transform="matrix(1 0 0 -1 0 841)" d="M496.394 275.828L505.379 275.828L505.379 288.101L496.394 288.101z" stroke="none" fill="#FFF100" fill-rule="nonzero" /><path id="1235" transform="matrix(1 0 0 -1 0 841)" d="M136.063 258.892L145.048 258.892L145.048 271.165L136.063 271.165z" stroke="none" fill="#FFF100" fill-rule="nonzero" /><path id="1238" transform="matrix(1 0 0 -1 0 841)" d="M144.72 258.892L152.494 258.892L152.494 271.165L144.72 271.165z" stroke="none" fill="#FFF100" fill-rule="nonzero" /><path id="1241" transform="matrix(1 0 0 -1 0 841)" d="M152.142 258.892L170.411 258.892L170.411 271.165L152.142 271.165z" stroke="none" fill="#FFF100" fill-rule="nonzero" /><path id="1246" transform="matrix(1 0 0 -1 0 841)" d="M170.531 258.892L173.368 258.892L173.368 271.165L170.531 271.165z" stroke="none" fill="#FFF100" fill-rule="nonzero" /><path id="1247" transform="matrix(1 0 0 -1 0 841)" d="M173.119 258.892L193.231 258.892L193.231 271.165L173.119 271.165z" stroke="none" fill="#FFF100" fill-rule="nonzero" /><path id="1252" transform="matrix(1 0 0 -1 0 841)" d="M193.133 258.892L213.627 258.892L213.627 271.165L193.133 271.165z" stroke="none" fill="#FFF100" fill-rule="nonzero" /><path id="1257" transform="matrix(1 0 0 -1 0 841)" d="M213.778 258.892L216.615 258.892L216.615 271.165L213.778 271.165z" stroke="none" fill="#FFF100" fill-rule="nonzero" /><path id="1258" transform="matrix(1 0 0 -1 0 841)" d="M216.365 258.892L223.528 258.892L223.528 271.165L216.365 271.165z" stroke="none" fill="#FFF100" fill-rule="nonzero" /><path id="1261" transform="matrix(1 0 0 -1 0 841)" d="M223.413 258.892L226.25 258.892L226.25 271.165L223.413 271.165z" stroke="none" fill="#FFF100" fill-rule="nonzero" /><path id="1262" transform="matrix(1 0 0 -1 0 841)" d="M226 258.892L239.829 258.892L239.829 271.165L226 271.165z" stroke="none" fill="#FFF100" fill-rule="nonzero" /><path id="1266" transform="matrix(1 0 0 -1 0 841)" d="M239.847 258.892L242.684 258.892L242.684 271.165L239.847 271.165z" stroke="none" fill="#FFF100" fill-rule="nonzero" /><path id="1267" transform="matrix(1 0 0 -1 0 841)" d="M242.434 258.892L262.056 258.892L262.056 271.165L242.434 271.165z" stroke="none" fill="#FFF100" fill-rule="nonzero" /><path id="1271" transform="matrix(1 0 0 -1 0 841)" d="M262.195 258.892L265.032 258.892L265.032 271.165L262.195 271.165z" stroke="none" fill="#FFF100" fill-rule="nonzero" /><path id="1272" transform="matrix(1 0 0 -1 0 841)" d="M264.782 258.892L288.636 258.892L288.636 271.165L264.782 271.165z" stroke="none" fill="#FFF100" fill-rule="nonzero" /><path id="1278" transform="matrix(1 0 0 -1 0 841)" d="M288.86 258.892L291.697 258.892L291.697 271.165L288.86 271.165z" stroke="none" fill="#FFF100" fill-rule="nonzero" /><path id="1279" transform="matrix(1 0 0 -1 0 841)" d="M291.447 258.892L311.941 258.892L311.941 271.165L291.447 271.165z" stroke="none" fill="#FFF100" fill-rule="nonzero" /><path id="1284" transform="matrix(1 0 0 -1 0 841)" d="M312.093 258.892L314.93 258.892L314.93 271.165L312.093 271.165z" stroke="none" fill="#FFF100" fill-rule="nonzero" /><path id="1285" transform="matrix(1 0 0 -1 0 841)" d="M314.68 258.892L322.454 258.892L322.454 271.165L314.68 271.165z" stroke="none" fill="#FFF100" fill-rule="nonzero" /><path id="1288" transform="matrix(1 0 0 -1 0 841)" d="M322.351 258.892L325.188 258.892L325.188 271.165L322.351 271.165z" stroke="none" fill="#FFF100" fill-rule="nonzero" /><path id="1289" transform="matrix(1 0 0 -1 0 841)" d="M324.938 258.892L333.923 258.892L333.923 271.165L324.938 271.165z" stroke="none" fill="#FFF100" fill-rule="nonzero" /><path id="1292" transform="matrix(1 0 0 -1 0 841)" d="M333.844 258.892L336.681 258.892L336.681 271.165L333.844 271.165z" stroke="none" fill="#FFF100" fill-rule="nonzero" /><path id="1293" transform="matrix(1 0 0 -1 0 841)" d="M336.432 258.892L354.505 258.892L354.505 271.165L336.432 271.165z" stroke="none" fill="#FFF100" fill-rule="nonzero" /><path id="1296" transform="matrix(1 0 0 -1 0 841)" d="M354.607 258.892L357.444 258.892L357.444 271.165L354.607 271.165z" stroke="none" fill="#FFF100" fill-rule="nonzero" /><path id="1297" transform="matrix(1 0 0 -1 0 841)" d="M357.194 258.892L371.623 258.892L371.623 271.165L357.194 271.165z" stroke="none" fill="#FFF100" fill-rule="nonzero" /><path id="1301" transform="matrix(1 0 0 -1 0 841)" d="M371.652 258.892L374.489 258.892L374.489 271.165L371.652 271.165z" stroke="none" fill="#FFF100" fill-rule="nonzero" /><path id="1302" transform="matrix(1 0 0 -1 0 841)" d="M374.24 258.892L407.77 258.892L407.77 271.165L374.24 271.165z" stroke="none" fill="#FFF100" fill-rule="nonzero" /><path id="1310" transform="matrix(1 0 0 -1 0 841)" d="M408.182 258.892L411.019 258.892L411.019 271.165L408.182 271.165z" stroke="none" fill="#FFF100" fill-rule="nonzero" /><path id="1311" transform="matrix(1 0 0 -1 0 841)" d="M410.769 258.892L424.598 258.892L424.598 271.165L410.769 271.165z" stroke="none" fill="#FFF100" fill-rule="nonzero" /><path id="1315" transform="matrix(1 0 0 -1 0 841)" d="M424.616 258.892L427.453 258.892L427.453 271.165L424.616 271.165z" stroke="none" fill="#FFF100" fill-rule="nonzero" /><path id="1316" transform="matrix(1 0 0 -1 0 841)" d="M427.203 258.892L440.421 258.892L440.421 271.165L427.203 271.165z" stroke="none" fill="#FFF100" fill-rule="nonzero" /><path id="1320" transform="matrix(1 0 0 -1 0 841)" d="M440.177 258.892L450.973 258.892L450.973 271.165L440.177 271.165z" stroke="none" fill="#FFF100" fill-rule="nonzero" /><path id="1323" transform="matrix(1 0 0 -1 0 841)" d="M450.681 258.892L472.386 258.892L472.386 271.165L450.681 271.165z" stroke="none" fill="#FFF100" fill-rule="nonzero" /><path id="1329" transform="matrix(1 0 0 -1 0 841)" d="M472.561 258.892L475.398 258.892L475.398 271.165L472.561 271.165z" stroke="none" fill="#FFF100" fill-rule="nonzero" /><path id="1330" transform="matrix(1 0 0 -1 0 841)" d="M475.149 258.892L494.432 258.892L494.432 271.165L475.149 271.165z" stroke="none" fill="#FFF100" fill-rule="nonzero" /><path id="1335" transform="matrix(1 0 0 -1 0 841)" d="M494.31 258.892L508.75 258.892L508.75 271.165L494.31 271.165z" stroke="none" fill="#FFF100" fill-rule="nonzero" /><path id="1339" transform="matrix(1 0 0 -1 0 841)" d="M136.063 241.955L152.914 241.955L152.914 254.228L136.063 254.228z" stroke="none" fill="#FFF100" fill-rule="nonzero" /><path id="1344" transform="matrix(1 0 0 -1 0 841)" d="M152.665 241.955L155.392 241.955L155.392 254.228L152.665 254.228z" stroke="none" fill="#FFF100" fill-rule="nonzero" /><path id="1345" transform="matrix(1 0 0 -1 0 841)" d="M155.143 241.955L172.615 241.955L172.615 254.228L155.143 254.228z" stroke="none" fill="#FFF100" fill-rule="nonzero" /><path id="1350" transform="matrix(1 0 0 -1 0 841)" d="M172.366 241.955L175.093 241.955L175.093 254.228L172.366 254.228z" stroke="none" fill="#FFF100" fill-rule="nonzero" /><path id="1351" transform="matrix(1 0 0 -1 0 841)" d="M174.844 241.955L185.64 241.955L185.64 254.228L174.844 254.228z" stroke="none" fill="#FFF100" fill-rule="nonzero" /><path id="1354" transform="matrix(1 0 0 -1 0 841)" d="M185.391 241.955L188.118 241.955L188.118 254.228L185.391 254.228z" stroke="none" fill="#FFF100" fill-rule="nonzero" /><path id="1355" transform="matrix(1 0 0 -1 0 841)" d="M187.87 241.955L196.855 241.955L196.855 254.228L187.87 254.228z" stroke="none" fill="#FFF100" fill-rule="nonzero" /><path id="1358" transform="matrix(1 0 0 -1 0 841)" d="M196.606 241.955L199.333 241.955L199.333 254.228L196.606 254.228z" stroke="none" fill="#FFF100" fill-rule="nonzero" /><path id="1359" transform="matrix(1 0 0 -1 0 841)" d="M199.084 241.955L208.069 241.955L208.069 254.228L199.084 254.228z" stroke="none" fill="#FFF100" fill-rule="nonzero" /><path id="1362" transform="matrix(1 0 0 -1 0 841)" d="M207.571 241.955L235.047 241.955L235.047 254.228L207.571 254.228z" stroke="none" fill="#FFF100" fill-rule="nonzero" /><path id="1371" transform="matrix(1 0 0 -1 0 841)" d="M136.063 225.019L143.826 225.019L143.826 237.292L136.063 237.292z" stroke="none" fill="#FFF100" fill-rule="nonzero" /><path id="1374" transform="matrix(1 0 0 -1 0 841)" d="M143.432 225.019L145.884 225.019L145.884 237.292L143.432 237.292z" stroke="none" fill="#FFF100" fill-rule="nonzero" /><path id="1375" transform="matrix(1 0 0 -1 0 841)" d="M145.635 225.019L159.857 225.019L159.857 237.292L145.635 237.292z" stroke="none" fill="#FFF100" fill-rule="nonzero" /><path id="1379" transform="matrix(1 0 0 -1 0 841)" d="M159.08 225.019L178.363 225.019L178.363 237.292L159.08 237.292z" stroke="none" fill="#FFF100" fill-rule="nonzero" /><path id="1383" transform="matrix(1 0 0 -1 0 841)" d="M177.738 225.019L180.19 225.019L180.19 237.292L177.738 237.292z" stroke="none" fill="#FFF100" fill-rule="nonzero" /><path id="1384" transform="matrix(1 0 0 -1 0 841)" d="M179.941 225.019L187.715 225.019L187.715 237.292L179.941 237.292z" stroke="none" fill="#FFF100" fill-rule="nonzero" /><path id="1387" transform="matrix(1 0 0 -1 0 841)" d="M187.321 225.019L189.773 225.019L189.773 237.292L187.321 237.292z" stroke="none" fill="#FFF100" fill-rule="nonzero" /><path id="1388" transform="matrix(1 0 0 -1 0 841)" d="M189.523 225.019L212.745 225.019L212.745 237.292L189.523 237.292z" stroke="none" fill="#FFF100" fill-rule="nonzero" /><path id="1394" transform="matrix(1 0 0 -1 0 841)" d="M212.041 225.019L214.493 225.019L214.493 237.292L212.041 237.292z" stroke="none" fill="#FFF100" fill-rule="nonzero" /><path id="1395" transform="matrix(1 0 0 -1 0 841)" d="M214.244 225.019L228.073 225.019L228.073 237.292L214.244 237.292z" stroke="none" fill="#FFF100" fill-rule="nonzero" /><path id="1399" transform="matrix(1 0 0 -1 0 841)" d="M227.557 225.019L230.009 225.019L230.009 237.292L227.557 237.292z" stroke="none" fill="#FFF100" fill-rule="nonzero" /><path id="1400" transform="matrix(1 0 0 -1 0 841)" d="M229.76 225.019L242.978 225.019L242.978 237.292L229.76 237.292z" stroke="none" fill="#FFF100" fill-rule="nonzero" /><path id="1404" transform="matrix(1 0 0 -1 0 841)" d="M242.225 225.019L253.021 225.019L253.021 237.292L242.225 237.292z" stroke="none" fill="#FFF100" fill-rule="nonzero" /><path id="1407" transform="matrix(1 0 0 -1 0 841)" d="M252.317 225.019L274.022 225.019L274.022 237.292L252.317 237.292z" stroke="none" fill="#FFF100" fill-rule="nonzero" /><path id="1413" transform="matrix(1 0 0 -1 0 841)" d="M273.349 225.019L275.801 225.019L275.801 237.292L273.349 237.292z" stroke="none" fill="#FFF100" fill-rule="nonzero" /><path id="1414" transform="matrix(1 0 0 -1 0 841)" d="M275.552 225.019L299.406 225.019L299.406 237.292L275.552 237.292z" stroke="none" fill="#FFF100" fill-rule="nonzero" /><path id="1420" transform="matrix(1 0 0 -1 0 841)" d="M298.684 225.019L301.136 225.019L301.136 237.292L298.684 237.292z" stroke="none" fill="#FFF100" fill-rule="nonzero" /><path id="1421" transform="matrix(1 0 0 -1 0 841)" d="M300.887 225.019L318.359 225.019L318.359 237.292L300.887 237.292z" stroke="none" fill="#FFF100" fill-rule="nonzero" /><path id="1426" transform="matrix(1 0 0 -1 0 841)" d="M317.771 225.019L320.223 225.019L320.223 237.292L317.771 237.292z" stroke="none" fill="#FFF100" fill-rule="nonzero" /><path id="1427" transform="matrix(1 0 0 -1 0 841)" d="M319.973 225.019L330.769 225.019L330.769 237.292L319.973 237.292z" stroke="none" fill="#FFF100" fill-rule="nonzero" /><path id="1430" transform="matrix(1 0 0 -1 0 841)" d="M330.314 225.019L332.766 225.019L332.766 237.292L330.314 237.292z" stroke="none" fill="#FFF100" fill-rule="nonzero" /><path id="1431" transform="matrix(1 0 0 -1 0 841)" d="M332.517 225.019L346.346 225.019L346.346 237.292L332.517 237.292z" stroke="none" fill="#FFF100" fill-rule="nonzero" /><path id="1435" transform="matrix(1 0 0 -1 0 841)" d="M345.83 225.019L348.282 225.019L348.282 237.292L345.83 237.292z" stroke="none" fill="#FFF100" fill-rule="nonzero" /><path id="1436" transform="matrix(1 0 0 -1 0 841)" d="M348.033 225.019L370.349 225.019L370.349 237.292L348.033 237.292z" stroke="none" fill="#FFF100" fill-rule="nonzero" /><path id="1441" transform="matrix(1 0 0 -1 0 841)" d="M369.663 225.019L372.115 225.019L372.115 237.292L369.663 237.292z" stroke="none" fill="#FFF100" fill-rule="nonzero" /><path id="1442" transform="matrix(1 0 0 -1 0 841)" d="M371.866 225.019L381.451 225.019L381.451 237.292L371.866 237.292z" stroke="none" fill="#FFF100" fill-rule="nonzero" /><path id="1445" transform="matrix(1 0 0 -1 0 841)" d="M381.021 225.019L383.473 225.019L383.473 237.292L381.021 237.292z" stroke="none" fill="#FFF100" fill-rule="nonzero" /><path id="1446" transform="matrix(1 0 0 -1 0 841)" d="M383.223 225.019L397.052 225.019L397.052 237.292L383.223 237.292z" stroke="none" fill="#FFF100" fill-rule="nonzero" /><path id="1450" transform="matrix(1 0 0 -1 0 841)" d="M396.536 225.019L398.988 225.019L398.988 237.292L396.536 237.292z" stroke="none" fill="#FFF100" fill-rule="nonzero" /><path id="1451" transform="matrix(1 0 0 -1 0 841)" d="M398.739 225.019L414.99 225.019L414.99 237.292L398.739 237.292z" stroke="none" fill="#FFF100" fill-rule="nonzero" /><path id="1455" transform="matrix(1 0 0 -1 0 841)" d="M414.177 225.019L446.802 225.019L446.802 237.292L414.177 237.292z" stroke="none" fill="#FFF100" fill-rule="nonzero" /><path id="1464" transform="matrix(1 0 0 -1 0 841)" d="M445.91 225.019L448.362 225.019L448.362 237.292L445.91 237.292z" stroke="none" fill="#FFF100" fill-rule="nonzero" /><path id="1465" transform="matrix(1 0 0 -1 0 841)" d="M448.112 225.019L457.097 225.019L457.097 237.292L448.112 237.292z" stroke="none" fill="#FFF100" fill-rule="nonzero" /><path id="1468" transform="matrix(1 0 0 -1 0 841)" d="M456.679 225.019L459.131 225.019L459.131 237.292L456.679 237.292z" stroke="none" fill="#FFF100" fill-rule="nonzero" /><path id="1469" transform="matrix(1 0 0 -1 0 841)" d="M458.881 225.019L475.742 225.019L475.742 237.292L458.881 237.292z" stroke="none" fill="#FFF100" fill-rule="nonzero" /><path id="1474" transform="matrix(1 0 0 -1 0 841)" d="M475.167 225.019L477.619 225.019L477.619 237.292L475.167 237.292z" stroke="none" fill="#FFF100" fill-rule="nonzero" /><path id="1475" transform="matrix(1 0 0 -1 0 841)" d="M477.369 225.019L491.591 225.019L491.591 237.292L477.369 237.292z" stroke="none" fill="#FFF100" fill-rule="nonzero" /><path id="1479" transform="matrix(1 0 0 -1 0 841)" d="M490.814 225.019L512.825 225.019L512.825 237.292L490.814 237.292z" stroke="none" fill="#FFF100" fill-rule="nonzero" /><path id="1484" transform="matrix(1 0 0 -1 0 841)" d="M136.063 208.082L143.826 208.082L143.826 220.355L136.063 220.355z" stroke="none" fill="#FFF100" fill-rule="nonzero" /><path id="1487" transform="matrix(1 0 0 -1 0 841)" d="M143.578 208.082L146.305 208.082L146.305 220.355L143.578 220.355z" stroke="none" fill="#FFF100" fill-rule="nonzero" /><path id="1488" transform="matrix(1 0 0 -1 0 841)" d="M146.056 208.082L165.678 208.082L165.678 220.355L146.056 220.355z" stroke="none" fill="#FFF100" fill-rule="nonzero" /><path id="1492" transform="matrix(1 0 0 -1 0 841)" d="M165.428 208.082L168.155 208.082L168.155 220.355L165.428 220.355z" stroke="none" fill="#FFF100" fill-rule="nonzero" /><path id="1493" transform="matrix(1 0 0 -1 0 841)" d="M167.906 208.082L175.68 208.082L175.68 220.355L167.906 220.355z" stroke="none" fill="#FFF100" fill-rule="nonzero" /><path id="1496" transform="matrix(1 0 0 -1 0 841)" d="M175.432 208.082L178.159 208.082L178.159 220.355L175.432 220.355z" stroke="none" fill="#FFF100" fill-rule="nonzero" /><path id="1497" transform="matrix(1 0 0 -1 0 841)" d="M177.91 208.082L201.132 208.082L201.132 220.355L177.91 220.355z" stroke="none" fill="#FFF100" fill-rule="nonzero" /><path id="1503" transform="matrix(1 0 0 -1 0 841)" d="M200.882 208.082L203.609 208.082L203.609 220.355L200.882 220.355z" stroke="none" fill="#FFF100" fill-rule="nonzero" /><path id="1504" transform="matrix(1 0 0 -1 0 841)" d="M203.361 208.082L217.19 208.082L217.19 220.355L203.361 220.355z" stroke="none" fill="#FFF100" fill-rule="nonzero" /><path id="1508" transform="matrix(1 0 0 -1 0 841)" d="M216.94 208.082L219.667 208.082L219.667 220.355L216.94 220.355z" stroke="none" fill="#FFF100" fill-rule="nonzero" /><path id="1509" transform="matrix(1 0 0 -1 0 841)" d="M219.419 208.082L232.637 208.082L232.637 220.355L219.419 220.355z" stroke="none" fill="#FFF100" fill-rule="nonzero" /><path id="1513" transform="matrix(1 0 0 -1 0 841)" d="M232.138 208.082L242.934 208.082L242.934 220.355L232.138 220.355z" stroke="none" fill="#FFF100" fill-rule="nonzero" /><path id="1516" transform="matrix(1 0 0 -1 0 841)" d="M242.436 208.082L264.141 208.082L264.141 220.355L242.436 220.355z" stroke="none" fill="#FFF100" fill-rule="nonzero" /><path id="1522" transform="matrix(1 0 0 -1 0 841)" d="M263.892 208.082L266.619 208.082L266.619 220.355L263.892 220.355z" stroke="none" fill="#FFF100" fill-rule="nonzero" /><path id="1523" transform="matrix(1 0 0 -1 0 841)" d="M266.371 208.082L290.225 208.082L290.225 220.355L266.371 220.355z" stroke="none" fill="#FFF100" fill-rule="nonzero" /><path id="1529" transform="matrix(1 0 0 -1 0 841)" d="M289.976 208.082L292.703 208.082L292.703 220.355L289.976 220.355z" stroke="none" fill="#FFF100" fill-rule="nonzero" /><path id="1530" transform="matrix(1 0 0 -1 0 841)" d="M292.454 208.082L309.926 208.082L309.926 220.355L292.454 220.355z" stroke="none" fill="#FFF100" fill-rule="nonzero" /><path id="1535" transform="matrix(1 0 0 -1 0 841)" d="M309.677 208.082L312.404 208.082L312.404 220.355L309.677 220.355z" stroke="none" fill="#FFF100" fill-rule="nonzero" /><path id="1536" transform="matrix(1 0 0 -1 0 841)" d="M312.155 208.082L322.951 208.082L322.951 220.355L312.155 220.355z" stroke="none" fill="#FFF100" fill-rule="nonzero" /><path id="1539" transform="matrix(1 0 0 -1 0 841)" d="M322.702 208.082L325.429 208.082L325.429 220.355L322.702 220.355z" stroke="none" fill="#FFF100" fill-rule="nonzero" /><path id="1540" transform="matrix(1 0 0 -1 0 841)" d="M325.181 208.082L339.01 208.082L339.01 220.355L325.181 220.355z" stroke="none" fill="#FFF100" fill-rule="nonzero" /><path id="1544" transform="matrix(1 0 0 -1 0 841)" d="M338.76 208.082L341.487 208.082L341.487 220.355L338.76 220.355z" stroke="none" fill="#FFF100" fill-rule="nonzero" /><path id="1545" transform="matrix(1 0 0 -1 0 841)" d="M341.239 208.082L363.555 208.082L363.555 220.355L341.239 220.355z" stroke="none" fill="#FFF100" fill-rule="nonzero" /><path id="1550" transform="matrix(1 0 0 -1 0 841)" d="M363.305 208.082L366.032 208.082L366.032 220.355L363.305 220.355z" stroke="none" fill="#FFF100" fill-rule="nonzero" /><path id="1551" transform="matrix(1 0 0 -1 0 841)" d="M365.784 208.082L375.369 208.082L375.369 220.355L365.784 220.355z" stroke="none" fill="#FFF100" fill-rule="nonzero" /><path id="1554" transform="matrix(1 0 0 -1 0 841)" d="M375.12 208.082L377.847 208.082L377.847 220.355L375.12 220.355z" stroke="none" fill="#FFF100" fill-rule="nonzero" /><path id="1555" transform="matrix(1 0 0 -1 0 841)" d="M377.598 208.082L391.427 208.082L391.427 220.355L377.598 220.355z" stroke="none" fill="#FFF100" fill-rule="nonzero" /><path id="1559" transform="matrix(1 0 0 -1 0 841)" d="M391.178 208.082L393.905 208.082L393.905 220.355L391.178 220.355z" stroke="none" fill="#FFF100" fill-rule="nonzero" /><path id="1560" transform="matrix(1 0 0 -1 0 841)" d="M393.656 208.082L409.907 208.082L409.907 220.355L393.656 220.355z" stroke="none" fill="#FFF100" fill-rule="nonzero" /><path id="1564" transform="matrix(1 0 0 -1 0 841)" d="M409.409 208.082L442.034 208.082L442.034 220.355L409.409 220.355z" stroke="none" fill="#FFF100" fill-rule="nonzero" /><path id="1573" transform="matrix(1 0 0 -1 0 841)" d="M441.784 208.082L444.511 208.082L444.511 220.355L441.784 220.355z" stroke="none" fill="#FFF100" fill-rule="nonzero" /><path id="1574" transform="matrix(1 0 0 -1 0 841)" d="M444.263 208.082L453.248 208.082L453.248 220.355L444.263 220.355z" stroke="none" fill="#FFF100" fill-rule="nonzero" /><path id="1577" transform="matrix(1 0 0 -1 0 841)" d="M452.999 208.082L455.726 208.082L455.726 220.355L452.999 220.355z" stroke="none" fill="#FFF100" fill-rule="nonzero" /><path id="1578" transform="matrix(1 0 0 -1 0 841)" d="M455.477 208.082L472.338 208.082L472.338 220.355L455.477 220.355z" stroke="none" fill="#FFF100" fill-rule="nonzero" /><path id="1583" transform="matrix(1 0 0 -1 0 841)" d="M472.089 208.082L474.816 208.082L474.816 220.355L472.089 220.355z" stroke="none" fill="#FFF100" fill-rule="nonzero" /><path id="1584" transform="matrix(1 0 0 -1 0 841)" d="M474.568 208.082L496.208 208.082L496.208 220.355L474.568 220.355z" stroke="none" fill="#FFF100" fill-rule="nonzero" /><path id="1591" transform="matrix(1 0 0 -1 0 841)" d="M136.063 191.146L151.55 191.146L151.55 203.419L136.063 203.419z" stroke="none" fill="#FFF100" fill-rule="nonzero" /><path id="1595" transform="matrix(1 0 0 -1 0 841)" d="M151.604 191.146L154.781 191.146L154.781 203.419L151.604 203.419z" stroke="none" fill="#FFF100" fill-rule="nonzero" /><path id="1596" transform="matrix(1 0 0 -1 0 841)" d="M154.532 191.146L168.361 191.146L168.361 203.419L154.532 203.419z" stroke="none" fill="#FFF100" fill-rule="nonzero" /><path id="1600" transform="matrix(1 0 0 -1 0 841)" d="M168.378 191.146L171.555 191.146L171.555 203.419L168.378 203.419z" stroke="none" fill="#FFF100" fill-rule="nonzero" /><path id="1601" transform="matrix(1 0 0 -1 0 841)" d="M171.306 191.146L199.688 191.146L199.688 203.419L171.306 203.419z" stroke="none" fill="#FFF100" fill-rule="nonzero" /><path id="1607" transform="matrix(1 0 0 -1 0 841)" d="M199.996 191.146L203.173 191.146L203.173 203.419L199.996 203.419z" stroke="none" fill="#FFF100" fill-rule="nonzero" /><path id="1608" transform="matrix(1 0 0 -1 0 841)" d="M202.924 191.146L218.411 191.146L218.411 203.419L202.924 203.419z" stroke="none" fill="#FFF100" fill-rule="nonzero" /><path id="1612" transform="matrix(1 0 0 -1 0 841)" d="M218.216 191.146L240.532 191.146L240.532 203.419L218.216 203.419z" stroke="none" fill="#FFF100" fill-rule="nonzero" /><path id="1617" transform="matrix(1 0 0 -1 0 841)" d="M240.72 191.146L243.897 191.146L243.897 203.419L240.72 203.419z" stroke="none" fill="#FFF100" fill-rule="nonzero" /><path id="1618" transform="matrix(1 0 0 -1 0 841)" d="M243.647 191.146L252.632 191.146L252.632 203.419L243.647 203.419z" stroke="none" fill="#FFF100" fill-rule="nonzero" /><path id="1621" transform="matrix(1 0 0 -1 0 841)" d="M252.553 191.146L255.73 191.146L255.73 203.419L252.553 203.419z" stroke="none" fill="#FFF100" fill-rule="nonzero" /><path id="1622" transform="matrix(1 0 0 -1 0 841)" d="M255.481 191.146L281.015 191.146L281.015 203.419L255.481 203.419z" stroke="none" fill="#FFF100" fill-rule="nonzero" /><path id="1628" transform="matrix(1 0 0 -1 0 841)" d="M281.269 191.146L284.446 191.146L284.446 203.419L281.269 203.419z" stroke="none" fill="#FFF100" fill-rule="nonzero" /><path id="1629" transform="matrix(1 0 0 -1 0 841)" d="M284.197 191.146L298.026 191.146L298.026 203.419L284.197 203.419z" stroke="none" fill="#FFF100" fill-rule="nonzero" /><path id="1633" transform="matrix(1 0 0 -1 0 841)" d="M298.043 191.146L301.22 191.146L301.22 203.419L298.043 203.419z" stroke="none" fill="#FFF100" fill-rule="nonzero" /><path id="1634" transform="matrix(1 0 0 -1 0 841)" d="M300.971 191.146L315.193 191.146L315.193 203.419L300.971 203.419z" stroke="none" fill="#FFF100" fill-rule="nonzero" /><path id="1638" transform="matrix(1 0 0 -1 0 841)" d="M314.974 191.146L334.257 191.146L334.257 203.419L314.974 203.419z" stroke="none" fill="#FFF100" fill-rule="nonzero" /><path id="1642" transform="matrix(1 0 0 -1 0 841)" d="M334.384 191.146L337.561 191.146L337.561 203.419L334.384 203.419z" stroke="none" fill="#FFF100" fill-rule="nonzero" /><path id="1643" transform="matrix(1 0 0 -1 0 841)" d="M337.311 191.146L346.896 191.146L346.896 203.419L337.311 203.419z" stroke="none" fill="#FFF100" fill-rule="nonzero" /><path id="1646" transform="matrix(1 0 0 -1 0 841)" d="M346.829 191.146L350.006 191.146L350.006 203.419L346.829 203.419z" stroke="none" fill="#FFF100" fill-rule="nonzero" /><path id="1647" transform="matrix(1 0 0 -1 0 841)" d="M349.757 191.146L369.379 191.146L369.379 203.419L349.757 203.419z" stroke="none" fill="#FFF100" fill-rule="nonzero" /><path id="1651" transform="matrix(1 0 0 -1 0 841)" d="M369.518 191.146L372.695 191.146L372.695 203.419L369.518 203.419z" stroke="none" fill="#FFF100" fill-rule="nonzero" /><path id="1652" transform="matrix(1 0 0 -1 0 841)" d="M372.445 191.146L397.783 191.146L397.783 203.419L372.445 203.419z" stroke="none" fill="#FFF100" fill-rule="nonzero" /><path id="1658" transform="matrix(1 0 0 -1 0 841)" d="M398.031 191.146L401.208 191.146L401.208 203.419L398.031 203.419z" stroke="none" fill="#FFF100" fill-rule="nonzero" /><path id="1659" transform="matrix(1 0 0 -1 0 841)" d="M400.959 191.146L409.944 191.146L409.944 203.419L400.959 203.419z" stroke="none" fill="#FFF100" fill-rule="nonzero" /><path id="1662" transform="matrix(1 0 0 -1 0 841)" d="M409.865 191.146L413.042 191.146L413.042 203.419L409.865 203.419z" stroke="none" fill="#FFF100" fill-rule="nonzero" /><path id="1663" transform="matrix(1 0 0 -1 0 841)" d="M412.792 191.146L423.588 191.146L423.588 203.419L412.792 203.419z" stroke="none" fill="#FFF100" fill-rule="nonzero" /><path id="1666" transform="matrix(1 0 0 -1 0 841)" d="M423.545 191.146L426.722 191.146L426.722 203.419L423.545 203.419z" stroke="none" fill="#FFF100" fill-rule="nonzero" /><path id="1667" transform="matrix(1 0 0 -1 0 841)" d="M426.473 191.146L437.106 191.146L437.106 203.419L426.473 203.419z" stroke="none" fill="#FFF100" fill-rule="nonzero" /><path id="1670" transform="matrix(1 0 0 -1 0 841)" d="M436.814 191.146L470.028 191.146L470.028 203.419L436.814 203.419z" stroke="none" fill="#FFF100" fill-rule="nonzero" /><path id="1678" transform="matrix(1 0 0 -1 0 841)" d="M470.433 191.146L473.61 191.146L473.61 203.419L470.433 203.419z" stroke="none" fill="#FFF100" fill-rule="nonzero" /><path id="1679" transform="matrix(1 0 0 -1 0 841)" d="M473.361 191.146L482.346 191.146L482.346 203.419L473.361 203.419z" stroke="none" fill="#FFF100" fill-rule="nonzero" /><path id="1682" transform="matrix(1 0 0 -1 0 841)" d="M482.267 191.146L485.444 191.146L485.444 203.419L482.267 203.419z" stroke="none" fill="#FFF100" fill-rule="nonzero" /><path id="1683" transform="matrix(1 0 0 -1 0 841)" d="M485.194 191.146L505.994 191.146L505.994 203.419L485.194 203.419z" stroke="none" fill="#FFF100" fill-rule="nonzero" /><path id="1687" transform="matrix(1 0 0 -1 0 841)" d="M136.063 174.209L151.517 174.209L151.517 186.482L136.063 186.482z" stroke="none" fill="#FFF100" fill-rule="nonzero" /><path id="1691" transform="matrix(1 0 0 -1 0 841)" d="M151.019 174.209L170.302 174.209L170.302 186.482L151.019 186.482z" stroke="none" fill="#FFF100" fill-rule="nonzero" /><path id="1695" transform="matrix(1 0 0 -1 0 841)" d="M170.054 174.209L172.781 174.209L172.781 186.482L170.054 186.482z" stroke="none" fill="#FFF100" fill-rule="nonzero" /><path id="1696" transform="matrix(1 0 0 -1 0 841)" d="M172.532 174.209L182.117 174.209L182.117 186.482L172.532 186.482z" stroke="none" fill="#FFF100" fill-rule="nonzero" /><path id="1699" transform="matrix(1 0 0 -1 0 841)" d="M181.868 174.209L184.595 174.209L184.595 186.482L181.868 186.482z" stroke="none" fill="#FFF100" fill-rule="nonzero" /><path id="1700" transform="matrix(1 0 0 -1 0 841)" d="M184.346 174.209L208.211 174.209L208.211 186.482L184.346 186.482z" stroke="none" fill="#FFF100" fill-rule="nonzero" /><path id="1705" transform="matrix(1 0 0 -1 0 841)" d="M207.962 174.209L210.689 174.209L210.689 186.482L207.962 186.482z" stroke="none" fill="#FFF100" fill-rule="nonzero" /><path id="1706" transform="matrix(1 0 0 -1 0 841)" d="M210.441 174.209L219.426 174.209L219.426 186.482L210.441 186.482z" stroke="none" fill="#FFF100" fill-rule="nonzero" /><path id="1709" transform="matrix(1 0 0 -1 0 841)" d="M219.177 174.209L221.904 174.209L221.904 186.482L219.177 186.482z" stroke="none" fill="#FFF100" fill-rule="nonzero" /><path id="1710" transform="matrix(1 0 0 -1 0 841)" d="M221.655 174.209L244.571 174.209L244.571 186.482L221.655 186.482z" stroke="none" fill="#FFF100" fill-rule="nonzero" /><path id="1716" transform="matrix(1 0 0 -1 0 841)" d="M244.322 174.209L247.049 174.209L247.049 186.482L244.322 186.482z" stroke="none" fill="#FFF100" fill-rule="nonzero" /><path id="1717" transform="matrix(1 0 0 -1 0 841)" d="M246.8 174.209L268.516 174.209L268.516 186.482L246.8 186.482z" stroke="none" fill="#FFF100" fill-rule="nonzero" /><path id="1723" transform="matrix(1 0 0 -1 0 841)" d="M268.267 174.209L270.994 174.209L270.994 186.482L268.267 186.482z" stroke="none" fill="#FFF100" fill-rule="nonzero" /><path id="1724" transform="matrix(1 0 0 -1 0 841)" d="M270.745 174.209L274.876 174.209L274.876 186.482L270.745 186.482z" stroke="none" fill="#FFF100" fill-rule="nonzero" /><path id="1726" transform="matrix(1 0 0 -1 0 841)" d="M274.627 174.209L277.354 174.209L277.354 186.482L274.627 186.482z" stroke="none" fill="#FFF100" fill-rule="nonzero" /><path id="1727" transform="matrix(1 0 0 -1 0 841)" d="M277.105 174.209L290.879 174.209L290.879 186.482L277.105 186.482z" stroke="none" fill="#FFF100" fill-rule="nonzero" /><path id="1731" transform="matrix(1 0 0 -1 0 841)" d="M290.382 174.209L311.793 174.209L311.793 186.482L290.382 186.482z" stroke="none" fill="#FFF100" fill-rule="nonzero" /><path id="1737" transform="matrix(1 0 0 -1 0 841)" d="M311.543 174.209L314.27 174.209L314.27 186.482L311.543 186.482z" stroke="none" fill="#FFF100" fill-rule="nonzero" /><path id="1738" transform="matrix(1 0 0 -1 0 841)" d="M314.021 174.209L328.766 174.209L328.766 186.482L314.021 186.482z" stroke="none" fill="#FFF100" fill-rule="nonzero" /><path id="1742" transform="matrix(1 0 0 -1 0 841)" d="M328.517 174.209L331.244 174.209L331.244 186.482L328.517 186.482z" stroke="none" fill="#FFF100" fill-rule="nonzero" /><path id="1743" transform="matrix(1 0 0 -1 0 841)" d="M330.995 174.209L346.94 174.209L346.94 186.482L330.995 186.482z" stroke="none" fill="#FFF100" fill-rule="nonzero" /><path id="1748" transform="matrix(1 0 0 -1 0 841)" d="M346.691 174.209L349.418 174.209L349.418 186.482L346.691 186.482z" stroke="none" fill="#FFF100" fill-rule="nonzero" /><path id="1749" transform="matrix(1 0 0 -1 0 841)" d="M349.169 174.209L374.507 174.209L374.507 186.482L349.169 186.482z" stroke="none" fill="#FFF100" fill-rule="nonzero" /><path id="1755" transform="matrix(1 0 0 -1 0 841)" d="M374.258 174.209L376.985 174.209L376.985 186.482L374.258 186.482z" stroke="none" fill="#FFF100" fill-rule="nonzero" /><path id="1756" transform="matrix(1 0 0 -1 0 841)" d="M376.736 174.209L385.721 174.209L385.721 186.482L376.736 186.482z" stroke="none" fill="#FFF100" fill-rule="nonzero" /><path id="1759" transform="matrix(1 0 0 -1 0 841)" d="M385.472 174.209L388.199 174.209L388.199 186.482L385.472 186.482z" stroke="none" fill="#FFF100" fill-rule="nonzero" /><path id="1760" transform="matrix(1 0 0 -1 0 841)" d="M387.951 174.209L398.747 174.209L398.747 186.482L387.951 186.482z" stroke="none" fill="#FFF100" fill-rule="nonzero" /><path id="1763" transform="matrix(1 0 0 -1 0 841)" d="M398.498 174.209L401.225 174.209L401.225 186.482L398.498 186.482z" stroke="none" fill="#FFF100" fill-rule="nonzero" /><path id="1764" transform="matrix(1 0 0 -1 0 841)" d="M400.976 174.209L416.791 174.209L416.791 186.482L400.976 186.482z" stroke="none" fill="#FFF100" fill-rule="nonzero" /><path id="1768" transform="matrix(1 0 0 -1 0 841)" d="M416.292 174.209L443.888 174.209L443.888 186.482L416.292 186.482z" stroke="none" fill="#FFF100" fill-rule="nonzero" /><path id="1775" transform="matrix(1 0 0 -1 0 841)" d="M443.639 174.209L446.366 174.209L446.366 186.482L443.639 186.482z" stroke="none" fill="#FFF100" fill-rule="nonzero" /><path id="1776" transform="matrix(1 0 0 -1 0 841)" d="M446.118 174.209L455.103 174.209L455.103 186.482L446.118 186.482z" stroke="none" fill="#FFF100" fill-rule="nonzero" /><path id="1779" transform="matrix(1 0 0 -1 0 841)" d="M454.854 174.209L457.581 174.209L457.581 186.482L454.854 186.482z" stroke="none" fill="#FFF100" fill-rule="nonzero" /><path id="1780" transform="matrix(1 0 0 -1 0 841)" d="M457.332 174.209L478.132 174.209L478.132 186.482L457.332 186.482z" stroke="none" fill="#FFF100" fill-rule="nonzero" /></g></g></svg>