<svg xmlns="http://www.w3.org/2000/svg" xmlns:xlink="http://www.w3.org/1999/xlink" id="body_301" preserveAspectRatio="xMinYMin meet" viewBox="0 0 793 1121"><defs><clipPath id="1"><path id="" clip-rule="evenodd" transform="matrix(1 0 0 1 0 0)" d="M0 841L0 -0.8900146L0 -0.8900146L595.276 -0.8900146L595.276 -0.8900146L595.276 841L595.276 841L0 841z" /></clipPath></defs><g transform="matrix(1.333333 0 0 1.333333 0 0)"><g clip-path="url(#1)"><path id="30" transform="matrix(1 0 0 -1 0 841)" d="M85.039 766.564L510.236 766.564" stroke="#000000" stroke-width="0.498" fill="none" /><path id="338" transform="matrix(1 0 0 -1 0 841)" d="M113.169 649.014L200.549 649.014" stroke="#000000" stroke-width="0.436" fill="none" /><path id="382" transform="matrix(1 0 0 -1 0 841)" d="M266.867 649.014L365.156 649.014" stroke="#000000" stroke-width="0.436" fill="none" /><path id="390" transform="matrix(1 0 0 -1 0 841)" d="M84.79 622.807L109.528 622.807L109.528 635.08L84.79 635.08z" stroke="none" fill="#FFF100" fill-rule="nonzero" /><path id="396" transform="matrix(1 0 0 -1 0 841)" d="M109.764 622.807L112.545 622.807L112.545 635.08L109.764 635.08z" stroke="none" fill="#FFF100" fill-rule="nonzero" /><path id="397" transform="matrix(1 0 0 -1 0 841)" d="M112.295 622.807L132.189 622.807L132.189 635.08L112.295 635.08z" stroke="none" fill="#FFF100" fill-rule="nonzero" /><path id="402" transform="matrix(1 0 0 -1 0 841)" d="M132.328 622.807L135.109 622.807L135.109 635.08L132.328 635.08z" stroke="none" fill="#FFF100" fill-rule="nonzero" /><path id="403" transform="matrix(1 0 0 -1 0 841)" d="M134.86 622.807L153.532 622.807L153.532 635.08L134.86 635.08z" stroke="none" fill="#FFF100" fill-rule="nonzero" /><path id="408" transform="matrix(1 0 0 -1 0 841)" d="M153.398 622.807L175.103 622.807L175.103 635.08L153.398 635.08z" stroke="none" fill="#FFF100" fill-rule="nonzero" /><path id="414" transform="matrix(1 0 0 -1 0 841)" d="M175.029 622.807L196.123 622.807L196.123 635.08L175.029 635.08z" stroke="none" fill="#FFF100" fill-rule="nonzero" /><path id="419" transform="matrix(1 0 0 -1 0 841)" d="M196.286 622.807L199.067 622.807L199.067 635.08L196.286 635.08z" stroke="none" fill="#FFF100" fill-rule="nonzero" /><path id="420" transform="matrix(1 0 0 -1 0 841)" d="M198.818 622.807L216.29 622.807L216.29 635.08L198.818 635.08z" stroke="none" fill="#FFF100" fill-rule="nonzero" /><path id="425" transform="matrix(1 0 0 -1 0 841)" d="M216.38 622.807L219.161 622.807L219.161 635.08L216.38 635.08z" stroke="none" fill="#FFF100" fill-rule="nonzero" /><path id="426" transform="matrix(1 0 0 -1 0 841)" d="M218.912 622.807L227.897 622.807L227.897 635.08L218.912 635.08z" stroke="none" fill="#FFF100" fill-rule="nonzero" /><path id="429" transform="matrix(1 0 0 -1 0 841)" d="M227.569 622.807L251.696 622.807L251.696 635.08L227.569 635.08z" stroke="none" fill="#FFF100" fill-rule="nonzero" /><path id="435" transform="matrix(1 0 0 -1 0 841)" d="M251.919 622.807L254.7 622.807L254.7 635.08L251.919 635.08z" stroke="none" fill="#FFF100" fill-rule="nonzero" /><path id="436" transform="matrix(1 0 0 -1 0 841)" d="M254.451 622.807L268.28 622.807L268.28 635.08L254.451 635.08z" stroke="none" fill="#FFF100" fill-rule="nonzero" /><path id="440" transform="matrix(1 0 0 -1 0 841)" d="M268.297 622.807L271.078 622.807L271.078 635.08L268.297 635.08z" stroke="none" fill="#FFF100" fill-rule="nonzero" /><path id="441" transform="matrix(1 0 0 -1 0 841)" d="M270.829 622.807L298.6 622.807L298.6 635.08L270.829 635.08z" stroke="none" fill="#FFF100" fill-rule="nonzero" /><path id="448" transform="matrix(1 0 0 -1 0 841)" d="M298.896 622.807L301.677 622.807L301.677 635.08L298.896 635.08z" stroke="none" fill="#FFF100" fill-rule="nonzero" /><path id="449" transform="matrix(1 0 0 -1 0 841)" d="M301.427 622.807L315.256 622.807L315.256 635.08L301.427 635.08z" stroke="none" fill="#FFF100" fill-rule="nonzero" /><path id="453" transform="matrix(1 0 0 -1 0 841)" d="M315.273 622.807L318.054 622.807L318.054 635.08L315.273 635.08z" stroke="none" fill="#FFF100" fill-rule="nonzero" /><path id="454" transform="matrix(1 0 0 -1 0 841)" d="M317.805 622.807L330.914 622.807L330.914 635.08L317.805 635.08z" stroke="none" fill="#FFF100" fill-rule="nonzero" /><path id="457" transform="matrix(1 0 0 -1 0 841)" d="M330.67 622.807L342.677 622.807L342.677 635.08L330.67 635.08z" stroke="none" fill="#FFF100" fill-rule="nonzero" /><path id="461" transform="matrix(1 0 0 -1 0 841)" d="M342.658 622.807L345.439 622.807L345.439 635.08L342.658 635.08z" stroke="none" fill="#FFF100" fill-rule="nonzero" /><path id="462" transform="matrix(1 0 0 -1 0 841)" d="M345.19 622.807L380.837 622.807L380.837 635.08L345.19 635.08z" stroke="none" fill="#FFF100" fill-rule="nonzero" /><path id="469" transform="matrix(1 0 0 -1 0 841)" d="M381.291 622.807L384.072 622.807L384.072 635.08L381.291 635.08z" stroke="none" fill="#FFF100" fill-rule="nonzero" /><path id="470" transform="matrix(1 0 0 -1 0 841)" d="M383.822 622.807L400.073 622.807L400.073 635.08L383.822 635.08z" stroke="none" fill="#FFF100" fill-rule="nonzero" /><path id="474" transform="matrix(1 0 0 -1 0 841)" d="M400.139 622.807L402.92 622.807L402.92 635.08L400.139 635.08z" stroke="none" fill="#FFF100" fill-rule="nonzero" /><path id="475" transform="matrix(1 0 0 -1 0 841)" d="M402.671 622.807L420.743 622.807L420.743 635.08L402.671 635.08z" stroke="none" fill="#FFF100" fill-rule="nonzero" /><path id="480" transform="matrix(1 0 0 -1 0 841)" d="M420.845 622.807L423.626 622.807L423.626 635.08L420.845 635.08z" stroke="none" fill="#FFF100" fill-rule="nonzero" /><path id="481" transform="matrix(1 0 0 -1 0 841)" d="M423.377 622.807L437.206 622.807L437.206 635.08L423.377 635.08z" stroke="none" fill="#FFF100" fill-rule="nonzero" /><path id="485" transform="matrix(1 0 0 -1 0 841)" d="M437.223 622.807L440.004 622.807L440.004 635.08L437.223 635.08z" stroke="none" fill="#FFF100" fill-rule="nonzero" /><path id="486" transform="matrix(1 0 0 -1 0 841)" d="M439.755 622.807L460.849 622.807L460.849 635.08L439.755 635.08z" stroke="none" fill="#FFF100" fill-rule="nonzero" /><path id="491" transform="matrix(1 0 0 -1 0 841)" d="M461.012 622.807L463.793 622.807L463.793 635.08L461.012 635.08z" stroke="none" fill="#FFF100" fill-rule="nonzero" /><path id="492" transform="matrix(1 0 0 -1 0 841)" d="M463.544 622.807L473.129 622.807L473.129 635.08L463.544 635.08z" stroke="none" fill="#FFF100" fill-rule="nonzero" /><path id="495" transform="matrix(1 0 0 -1 0 841)" d="M472.812 622.807L483.008 622.807L483.008 635.08L472.812 635.08z" stroke="none" fill="#FFF100" fill-rule="nonzero" /><path id="498" transform="matrix(1 0 0 -1 0 841)" d="M482.704 622.807L491.078 622.807L491.078 635.08L482.704 635.08z" stroke="none" fill="#FFF100" fill-rule="nonzero" /><path id="501" transform="matrix(1 0 0 -1 0 841)" d="M490.738 622.807L509.41 622.807L509.41 635.08L490.738 635.08z" stroke="none" fill="#FFF100" fill-rule="nonzero" /><path id="506" transform="matrix(1 0 0 -1 0 841)" d="M84.79 605.871L104.684 605.871L104.684 618.144L84.79 618.144z" stroke="none" fill="#FFF100" fill-rule="nonzero" /><path id="511" transform="matrix(1 0 0 -1 0 841)" d="M104.435 605.871L107.162 605.871L107.162 618.144L104.435 618.144z" stroke="none" fill="#FFF100" fill-rule="nonzero" /><path id="512" transform="matrix(1 0 0 -1 0 841)" d="M106.914 605.871L122.554 605.871L122.554 618.144L106.914 618.144z" stroke="none" fill="#FFF100" fill-rule="nonzero" /><path id="517" transform="matrix(1 0 0 -1 0 841)" d="M122.055 605.871L139.527 605.871L139.527 618.144L122.055 618.144z" stroke="none" fill="#FFF100" fill-rule="nonzero" /><path id="522" transform="matrix(1 0 0 -1 0 841)" d="M139.279 605.871L142.006 605.871L142.006 618.144L139.279 618.144z" stroke="none" fill="#FFF100" fill-rule="nonzero" /><path id="523" transform="matrix(1 0 0 -1 0 841)" d="M141.757 605.871L168.316 605.871L168.316 618.144L141.757 618.144z" stroke="none" fill="#FFF100" fill-rule="nonzero" /><path id="530" transform="matrix(1 0 0 -1 0 841)" d="M168.067 605.871L170.794 605.871L170.794 618.144L168.067 618.144z" stroke="none" fill="#FFF100" fill-rule="nonzero" /><path id="531" transform="matrix(1 0 0 -1 0 841)" d="M170.545 605.871L174.676 605.871L174.676 618.144L170.545 618.144z" stroke="none" fill="#FFF100" fill-rule="nonzero" /><path id="533" transform="matrix(1 0 0 -1 0 841)" d="M174.427 605.871L177.154 605.871L177.154 618.144L174.427 618.144z" stroke="none" fill="#FFF100" fill-rule="nonzero" /><path id="534" transform="matrix(1 0 0 -1 0 841)" d="M176.905 605.871L187.701 605.871L187.701 618.144L176.905 618.144z" stroke="none" fill="#FFF100" fill-rule="nonzero" /><path id="537" transform="matrix(1 0 0 -1 0 841)" d="M187.203 605.871L206.89 605.871L206.89 618.144L187.203 618.144z" stroke="none" fill="#FFF100" fill-rule="nonzero" /><path id="542" transform="matrix(1 0 0 -1 0 841)" d="M206.641 605.871L209.368 605.871L209.368 618.144L206.641 618.144z" stroke="none" fill="#FFF100" fill-rule="nonzero" /><path id="543" transform="matrix(1 0 0 -1 0 841)" d="M209.12 605.871L226.592 605.871L226.592 618.144L209.12 618.144z" stroke="none" fill="#FFF100" fill-rule="nonzero" /><path id="548" transform="matrix(1 0 0 -1 0 841)" d="M226.343 605.871L229.07 605.871L229.07 618.144L226.343 618.144z" stroke="none" fill="#FFF100" fill-rule="nonzero" /><path id="549" transform="matrix(1 0 0 -1 0 841)" d="M228.821 605.871L239.617 605.871L239.617 618.144L228.821 618.144z" stroke="none" fill="#FFF100" fill-rule="nonzero" /><path id="552" transform="matrix(1 0 0 -1 0 841)" d="M239.119 605.871L263.846 605.871L263.846 618.144L239.119 618.144z" stroke="none" fill="#FFF100" fill-rule="nonzero" /><path id="558" transform="matrix(1 0 0 -1 0 841)" d="M263.597 605.871L266.324 605.871L266.324 618.144L263.597 618.144z" stroke="none" fill="#FFF100" fill-rule="nonzero" /><path id="559" transform="matrix(1 0 0 -1 0 841)" d="M266.075 605.871L275.66 605.871L275.66 618.144L266.075 618.144z" stroke="none" fill="#FFF100" fill-rule="nonzero" /><path id="562" transform="matrix(1 0 0 -1 0 841)" d="M275.411 605.871L278.138 605.871L278.138 618.144L275.411 618.144z" stroke="none" fill="#FFF100" fill-rule="nonzero" /><path id="563" transform="matrix(1 0 0 -1 0 841)" d="M277.89 605.871L291.719 605.871L291.719 618.144L277.89 618.144z" stroke="none" fill="#FFF100" fill-rule="nonzero" /><path id="567" transform="matrix(1 0 0 -1 0 841)" d="M291.469 605.871L294.196 605.871L294.196 618.144L291.469 618.144z" stroke="none" fill="#FFF100" fill-rule="nonzero" /><path id="568" transform="matrix(1 0 0 -1 0 841)" d="M293.948 605.871L307.057 605.871L307.057 618.144L293.948 618.144z" stroke="none" fill="#FFF100" fill-rule="nonzero" /><path id="571" transform="matrix(1 0 0 -1 0 841)" d="M306.558 605.871L318.565 605.871L318.565 618.144L306.558 618.144z" stroke="none" fill="#FFF100" fill-rule="nonzero" /><path id="575" transform="matrix(1 0 0 -1 0 841)" d="M318.316 605.871L321.043 605.871L321.043 618.144L318.316 618.144z" stroke="none" fill="#FFF100" fill-rule="nonzero" /><path id="576" transform="matrix(1 0 0 -1 0 841)" d="M320.795 605.871L340.526 605.871L340.526 618.144L320.795 618.144z" stroke="none" fill="#FFF100" fill-rule="nonzero" /><path id="580" transform="matrix(1 0 0 -1 0 841)" d="M340.027 605.871L354.467 605.871L354.467 618.144L340.027 618.144z" stroke="none" fill="#FFF100" fill-rule="nonzero" /><path id="584" transform="matrix(1 0 0 -1 0 841)" d="M354.218 605.871L356.945 605.871L356.945 618.144L354.218 618.144z" stroke="none" fill="#FFF100" fill-rule="nonzero" /><path id="585" transform="matrix(1 0 0 -1 0 841)" d="M356.696 605.871L391.132 605.871L391.132 618.144L356.696 618.144z" stroke="none" fill="#FFF100" fill-rule="nonzero" /><path id="593" transform="matrix(1 0 0 -1 0 841)" d="M390.883 605.871L393.61 605.871L393.61 618.144L390.883 618.144z" stroke="none" fill="#FFF100" fill-rule="nonzero" /><path id="594" transform="matrix(1 0 0 -1 0 841)" d="M393.361 605.871L407.19 605.871L407.19 618.144L393.361 618.144z" stroke="none" fill="#FFF100" fill-rule="nonzero" /><path id="598" transform="matrix(1 0 0 -1 0 841)" d="M406.941 605.871L409.668 605.871L409.668 618.144L406.941 618.144z" stroke="none" fill="#FFF100" fill-rule="nonzero" /><path id="599" transform="matrix(1 0 0 -1 0 841)" d="M409.419 605.871L428.702 605.871L428.702 618.144L409.419 618.144z" stroke="none" fill="#FFF100" fill-rule="nonzero" /><path id="604" transform="matrix(1 0 0 -1 0 841)" d="M428.454 605.871L431.181 605.871L431.181 618.144L428.454 618.144z" stroke="none" fill="#FFF100" fill-rule="nonzero" /><path id="605" transform="matrix(1 0 0 -1 0 841)" d="M430.932 605.871L447.183 605.871L447.183 618.144L430.932 618.144z" stroke="none" fill="#FFF100" fill-rule="nonzero" /><path id="609" transform="matrix(1 0 0 -1 0 841)" d="M446.934 605.871L449.661 605.871L449.661 618.144L446.934 618.144z" stroke="none" fill="#FFF100" fill-rule="nonzero" /><path id="610" transform="matrix(1 0 0 -1 0 841)" d="M449.412 605.871L459.008 605.871L459.008 618.144L449.412 618.144z" stroke="none" fill="#FFF100" fill-rule="nonzero" /><path id="613" transform="matrix(1 0 0 -1 0 841)" d="M458.51 605.871L482.953 605.871L482.953 618.144L458.51 618.144z" stroke="none" fill="#FFF100" fill-rule="nonzero" /><path id="620" transform="matrix(1 0 0 -1 0 841)" d="M434.9808 529.1329L349.9404 529.1329L349.9404 529.1329L349.9404 444.0925L349.9404 444.0925L434.9808 444.0925z" stroke="#000000" stroke-width="0.3985" fill="none" /><path id="621" transform="matrix(1 0 0 -1 0 841)" d="M434.9808 529.1329L467.7209 561.873L467.7209 561.873L467.7209 476.8326L467.7209 476.8326L434.9808 444.0925z" stroke="#000000" stroke-width="0.3985" fill="none" /><path id="622" transform="matrix(1 0 0 -1 0 841)" d="M434.9808 529.1329L349.9404 529.1329L349.9404 529.1329L382.6805 561.873L382.6805 561.873L467.7209 561.873z" stroke="#000000" stroke-width="0.3985" fill="none" /><path id="650" transform="matrix(1 0 0 -1 0 841)" d="M159.053 555.56L182.495 555.56" stroke="#000000" stroke-width="0.398" fill="none" /><path id="699" transform="matrix(1 0 0 -1 0 841)" d="M215.545 501.504L265.388 501.504" stroke="#000000" stroke-width="0.398" fill="none" /><g transform="matrix(0.2 0 0 0.2 164.54 524.835)"><g transform="matrix(1 0 0 1 0 0)"><image x="0" y="0" xlink:href="img_282.png" width="1331" height="580" /></g></g></g></g></svg>