<svg xmlns="http://www.w3.org/2000/svg" xmlns:xlink="http://www.w3.org/1999/xlink" id="body_269" preserveAspectRatio="xMinYMin meet" viewBox="0 0 793 1121"><defs><clipPath id="1"><path id="" clip-rule="evenodd" transform="matrix(1 0 0 1 0 0)" d="M0 841L0 -0.8900146L0 -0.8900146L595.276 -0.8900146L595.276 -0.8900146L595.276 841L595.276 841L0 841z" /></clipPath></defs><g transform="matrix(1.333333 0 0 1.333333 0 0)"><g clip-path="url(#1)"><path id="36" transform="matrix(1 0 0 -1 0 841)" d="M85.039 766.564L510.236 766.564" stroke="#000000" stroke-width="0.498" fill="none" /><path id="490" transform="matrix(1 0 0 -1 0 841)" d="M369.01 603.923L413.911 603.923" stroke="#000000" stroke-width="0.398" fill="none" /><path id="491" transform="matrix(1 0 0 -1 0 841)" d="M369.209 589.796L369.209 603.923" stroke="#000000" stroke-width="0.398" fill="none" /><path id="492" transform="matrix(1 0 0 -1 0 841)" d="M413.712 589.796L413.712 603.923" stroke="#000000" stroke-width="0.398" fill="none" /><path id="493" transform="matrix(1 0 0 -1 0 841)" d="M369.01 589.796L413.911 589.796" stroke="#000000" stroke-width="0.398" fill="none" /><path id="852" transform="matrix(1 0 0 -1 0 841)" d="M328.7036 425.1758L263.9464 425.1758C 261.7455 425.1758 259.9613 423.3917 259.9613 421.1907L259.9613 421.1907L259.9613 396.4333C 259.9613 394.2323 261.7455 392.4482 263.9464 392.4482L263.9464 392.4482L328.7036 392.4482C 330.9045 392.4482 332.6887 394.2323 332.6887 396.4333L332.6887 396.4333L332.6887 421.1907C 332.6887 423.3917 330.9045 425.1758 328.7036 425.1758z" stroke="#000000" stroke-width="0.3985" fill="#FF9999" fill-rule="nonzero" /><path id="888" transform="matrix(1 0 0 -1 0 841)" d="M235.5694 408.812L257.3711 408.812" stroke="#000000" stroke-width="0.3985" fill="none" /><path id="889" transform="matrix(1 0 0 -1 0 841)" d="M259.7621 408.812C 258.7658 409.0113 256.9725 409.4098 255.777 410.3064C 256.7733 409.2105 256.7733 408.4135 255.777 407.3176C 256.9725 408.2143 258.7658 408.6128 259.7621 408.812z" stroke="none" fill="#000000" fill-rule="nonzero" /><path id="890" transform="matrix(1 0 0 -1 0 841)" d="M332.8879 408.812L352.0634 408.812" stroke="#000000" stroke-width="0.3985" fill="none" /><path id="891" transform="matrix(1 0 0 -1 0 841)" d="M354.4544 408.812C 353.4582 409.0113 351.6649 409.4098 350.4694 410.3064C 351.4657 409.2105 351.4657 408.4135 350.4694 407.3176C 351.6649 408.2143 353.4582 408.6128 354.4544 408.812z" stroke="none" fill="#000000" fill-rule="nonzero" /><path id="892" transform="matrix(1 0 0 -1 0 841)" d="M296.325 392.2489L296.325 377.4135" stroke="#000000" stroke-width="0.3985" fill="none" /><path id="893" transform="matrix(1 0 0 -1 0 841)" d="M296.325 375.0225C 296.5243 376.0188 296.9228 377.812 297.8194 379.0075C 296.7235 378.0113 295.9265 378.0113 294.8306 379.0075C 295.7273 377.812 296.1258 376.0188 296.325 375.0225z" stroke="none" fill="#000000" fill-rule="nonzero" /><path id="924" transform="matrix(1 0 0 -1 0 841)" d="M244.376 332.454L289.138 332.454" stroke="#000000" stroke-width="0.436" fill="none" /><path id="1499" transform="matrix(1 0 0 -1 0 841)" d="M328.7036 181.6038L263.9464 181.6038C 261.7455 181.6038 259.9613 179.8197 259.9613 177.6187L259.9613 177.6187L259.9613 152.8613C 259.9613 150.6603 261.7455 148.8762 263.9464 148.8762L263.9464 148.8762L328.7036 148.8762C 330.9045 148.8762 332.6887 150.6603 332.6887 152.8613L332.6887 152.8613L332.6887 177.6187C 332.6887 179.8197 330.9045 181.6038 328.7036 181.6038z" stroke="#000000" stroke-width="0.3985" fill="#FF9999" fill-rule="nonzero" /><path id="1554" transform="matrix(1 0 0 -1 0 841)" d="M246.7745 165.24L257.3711 165.24" stroke="#000000" stroke-width="0.3985" fill="none" /><path id="1555" transform="matrix(1 0 0 -1 0 841)" d="M259.7621 165.24C 258.7658 165.4393 256.9725 165.8378 255.777 166.7344C 256.7733 165.6385 256.7733 164.8415 255.777 163.7456C 256.9725 164.6423 258.7658 165.0408 259.7621 165.24z" stroke="none" fill="#000000" fill-rule="nonzero" /><path id="1556" transform="matrix(1 0 0 -1 0 841)" d="M332.8879 165.24L340.8583 165.24" stroke="#000000" stroke-width="0.3985" fill="none" /><path id="1557" transform="matrix(1 0 0 -1 0 841)" d="M343.2494 165.24C 342.2531 165.4393 340.4598 165.8378 339.2643 166.7344C 340.2606 165.6385 340.2606 164.8415 339.2643 163.7456C 340.4598 164.6423 342.2531 165.0408 343.2494 165.24z" stroke="none" fill="#000000" fill-rule="nonzero" /><path id="1558" transform="matrix(1 0 0 -1 0 841)" d="M296.325 148.6769L296.325 133.8415" stroke="#000000" stroke-width="0.3985" fill="none" /><path id="1559" transform="matrix(1 0 0 -1 0 841)" d="M296.325 131.4505C 296.5243 132.4468 296.9228 134.24 297.8194 135.4355C 296.7235 134.4393 295.9265 134.4393 294.8306 135.4355C 295.7273 134.24 296.1258 132.4468 296.325 131.4505z" stroke="none" fill="#000000" fill-rule="nonzero" /></g></g></svg>