<svg xmlns="http://www.w3.org/2000/svg" xmlns:xlink="http://www.w3.org/1999/xlink" id="body_287" preserveAspectRatio="xMinYMin meet" viewBox="0 0 793 1121"><defs><clipPath id="1"><path id="" clip-rule="evenodd" transform="matrix(1 0 0 1 0 0)" d="M0 841L0 -0.8900146L0 -0.8900146L595.276 -0.8900146L595.276 -0.8900146L595.276 841L595.276 841L0 841z" /></clipPath></defs><g transform="matrix(1.333333 0 0 1.333333 0 0)"><g clip-path="url(#1)"><path id="19" transform="matrix(1 0 0 -1 0 841)" d="M85.039 766.564L510.236 766.564" stroke="#000000" stroke-width="0.498" fill="none" /><path id="109" transform="matrix(1 0 0 -1 0 841)" d="M244.331 724.81L293.356 724.81" stroke="#000000" stroke-width="0.436" fill="none" /><path id="126" transform="matrix(1 0 0 -1 0 841)" d="M309.072 724.81L352.706 724.81" stroke="#000000" stroke-width="0.436" fill="none" /><path id="147" transform="matrix(1 0 0 -1 0 841)" d="M367.225 735.108L423.93 735.108" stroke="#000000" stroke-width="0.398" fill="none" /><path id="148" transform="matrix(1 0 0 -1 0 841)" d="M367.425 716.167L367.425 735.108" stroke="#000000" stroke-width="0.398" fill="none" /><path id="149" transform="matrix(1 0 0 -1 0 841)" d="M423.731 716.167L423.731 735.108" stroke="#000000" stroke-width="0.398" fill="none" /><path id="150" transform="matrix(1 0 0 -1 0 841)" d="M367.225 716.167L423.93 716.167" stroke="#000000" stroke-width="0.398" fill="none" /><path id="475" transform="matrix(1 0 0 -1 0 841)" d="M217.873 615.283L276.084 615.283" stroke="#000000" stroke-width="0.436" fill="none" /><path id="507" transform="matrix(1 0 0 -1 0 841)" d="M305.305 615.283L457.756 615.283" stroke="#000000" stroke-width="0.436" fill="none" /><path id="722" transform="matrix(1 0 0 -1 0 841)" d="M241.873 526.365L300.084 526.365" stroke="#000000" stroke-width="0.436" fill="none" /><path id="754" transform="matrix(1 0 0 -1 0 841)" d="M328.825 526.365L481.276 526.365" stroke="#000000" stroke-width="0.436" fill="none" /><path id="789" transform="matrix(1 0 0 -1 0 841)" d="M138.703 494.592L175.488 494.592" stroke="#000000" stroke-width="0.436" fill="none" /><path id="806" transform="matrix(1 0 0 -1 0 841)" d="M186.364 494.592L247.511 494.592" stroke="#000000" stroke-width="0.436" fill="none" /><path id="813" transform="matrix(1 0 0 -1 0 841)" d="M258.387 494.592L296.569 494.592" stroke="#000000" stroke-width="0.436" fill="none" /><path id="830" transform="matrix(1 0 0 -1 0 841)" d="M137.508 480.629L356.537 480.629" stroke="#000000" stroke-width="0.436" fill="none" /><path id="850" transform="matrix(1 0 0 -1 0 841)" d="M371.057 489.212L426.584 489.212" stroke="#000000" stroke-width="0.398" fill="none" /><path id="851" transform="matrix(1 0 0 -1 0 841)" d="M371.257 471.987L371.257 489.212" stroke="#000000" stroke-width="0.398" fill="none" /><path id="852" transform="matrix(1 0 0 -1 0 841)" d="M426.385 471.987L426.385 489.212" stroke="#000000" stroke-width="0.398" fill="none" /><path id="853" transform="matrix(1 0 0 -1 0 841)" d="M371.057 471.987L426.584 471.987" stroke="#000000" stroke-width="0.398" fill="none" /><path id="1277" transform="matrix(1 0 0 -1 0 841)" d="M451.548 241.654L467.911 241.654" stroke="#000000" stroke-width="0.436" fill="none" /><path id="1284" transform="matrix(1 0 0 -1 0 841)" d="M478.758 241.654L498.154 241.654" stroke="#000000" stroke-width="0.436" fill="none" /><path id="1296" transform="matrix(1 0 0 -1 0 841)" d="M137.508 216.378L168.118 216.378" stroke="#000000" stroke-width="0.436" fill="none" /><path id="1332" transform="matrix(1 0 0 -1 0 841)" d="M292.992 183.103L323.602 183.103" stroke="#000000" stroke-width="0.436" fill="none" /><path id="1348" transform="matrix(1 0 0 -1 0 841)" d="M334.878 183.103L368.761 183.103" stroke="#000000" stroke-width="0.436" fill="none" /><path id="1357" transform="matrix(1 0 0 -1 0 841)" d="M380.037 183.103L441.184 183.103" stroke="#000000" stroke-width="0.436" fill="none" /><path id="1382" transform="matrix(1 0 0 -1 0 841)" d="M452.46 183.103L490.642 183.103" stroke="#000000" stroke-width="0.436" fill="none" /><path id="1394" transform="matrix(1 0 0 -1 0 841)" d="M136.312 166.48L187.748 166.48" stroke="#000000" stroke-width="0.398" fill="none" /><path id="1395" transform="matrix(1 0 0 -1 0 841)" d="M136.511 152.468L136.511 166.48" stroke="#000000" stroke-width="0.398" fill="none" /><path id="1396" transform="matrix(1 0 0 -1 0 841)" d="M187.549 152.468L187.549 166.48" stroke="#000000" stroke-width="0.398" fill="none" /><path id="1397" transform="matrix(1 0 0 -1 0 841)" d="M136.312 152.468L187.748 152.468" stroke="#000000" stroke-width="0.398" fill="none" /><path id="1490" transform="matrix(1 0 0 -1 0 841)" d="M216.593 112.039L291.408 112.039" stroke="#000000" stroke-width="0.436" fill="none" /></g></g></svg>