<svg xmlns="http://www.w3.org/2000/svg" xmlns:xlink="http://www.w3.org/1999/xlink" id="body_204" preserveAspectRatio="xMinYMin meet" viewBox="0 0 1121 793"><defs><clipPath id="1"><path id="" clip-rule="evenodd" transform="matrix(1 0 0 1 0 0)" d="M0 -0.276001L841.89 -0.276001L841.89 -0.276001L841.89 595L841.89 595L3.644894E-14 595L3.644894E-14 595L0 -0.276001z" /></clipPath></defs><g transform="matrix(1.333333 0 0 1.333333 0 0)"><g clip-path="url(#1)"><path id="1" transform="matrix(1 0 0 -1 0 595)" d="M775.3834 508.4152C 774.9471 509.3025 774.1835 509.7788 773.2234 509.7788C 771.798 509.7788 770.7361 508.6661 770.7361 507.1824C 770.7361 505.7133 771.7871 504.6516 773.2562 504.6516C 774.2452 504.6516 774.9907 505.1497 775.3834 506.037C 775.6889 505.3824 776.198 505.077 776.998 505.077C 778.2053 505.077 779.0816 505.9825 779.0816 507.2043C 779.0816 508.4261 778.1762 509.3534 776.998 509.3534C 776.5325 509.3534 776.1035 509.2006 775.798 508.9388C 775.6235 508.8079 775.5435 508.6915 775.3834 508.4152zM774.9689 507.2043C 774.9689 506.2006 774.238 505.4588 773.2344 505.4588C 772.2016 505.4588 771.4671 506.1897 771.4671 507.1934C 771.4671 508.2406 772.1871 508.9716 773.2344 508.9716C 774.238 508.9716 774.9689 508.2515 774.9689 507.2043zM778.3507 507.2152C 778.3507 506.4443 777.798 505.8843 777.0416 505.8843C 776.2853 505.8843 775.7216 506.4443 775.7216 507.1715C 775.7216 507.9716 776.278 508.5461 777.0635 508.5461C 777.8053 508.5461 778.3507 508.0006 778.3507 507.2152z" stroke="none" fill="#000000" fill-rule="evenodd" /><path id="2" transform="matrix(1 0 0 -1 0 595)" d="M770.878 503.0916L770.878 502.2843L770.878 502.2843L772.2526 502.2843L772.2526 502.2843L772.2526 503.0916z" stroke="none" fill="#000000" fill-rule="evenodd" /><path id="3" transform="matrix(1 0 0 -1 0 595)" d="M770.878 500.8115L770.878 495.6952L770.878 495.6952L771.6089 495.6952L771.6089 495.6952L771.6089 499.7206L771.6089 499.7206L774.0853 497.1352C 775.1616 496.0006 775.7543 495.6516 776.6271 495.6516C 778.038 495.6516 779.0816 496.7242 779.0816 498.1934C 779.0816 499.3279 778.4853 500.2224 777.5107 500.5715C 777.118 500.717 776.8998 500.7461 776.3325 500.7461L776.3325 500.7461L776.3325 499.9497C 776.8271 499.9497 777.1398 499.8879 777.4453 499.7424C 778.0125 499.4661 778.3507 498.9024 778.3507 498.2043C 778.3507 497.2006 777.6307 496.4588 776.6707 496.4588C 776.1907 496.4588 775.7689 496.6334 775.318 497.0261C 775.0125 497.2733 775.0198 497.2733 774.3362 497.9861L774.3362 497.9861L771.6089 500.8115z" stroke="none" fill="#000000" fill-rule="evenodd" /><path id="4" transform="matrix(1 0 0 -1 0 595)" d="M770.878 489.3134L770.878 488.5061L770.878 488.5061L774.1398 488.5061L774.1398 488.5061L774.1398 486.957C 774.1398 485.8661 774.278 485.2806 774.6416 484.7861C 775.0198 484.2625 775.6816 483.9788 776.4962 483.9788C 777.4125 483.9788 778.1507 484.3279 778.5143 484.9388C 778.8198 485.4479 778.9398 486.0552 778.9398 487.0879L778.9398 487.0879L778.9398 489.3134zM774.8707 488.5061L778.2089 488.5061L778.2089 488.5061L778.2089 487.3606C 778.2089 486.4443 778.1289 485.8624 777.9689 485.5279C 777.7216 485.0624 777.2089 484.797 776.4962 484.797C 775.8707 484.797 775.3616 485.0552 775.1434 485.4624C 774.9398 485.8115 774.8707 486.2697 774.8707 487.0115z" stroke="none" fill="#000000" fill-rule="evenodd" /><path id="5" transform="matrix(1 0 0 -1 0 595)" d="M770.878 482.997L770.878 482.1897L770.878 482.1897L776.8453 482.1897L776.8453 482.1897L776.8453 482.997zM777.5652 482.997L777.5652 482.1897L777.5652 482.1897L778.9398 482.1897L778.9398 482.1897L778.9398 482.997z" stroke="none" fill="#000000" fill-rule="evenodd" /><path id="6" transform="matrix(1 0 0 -1 0 595)" d="M776.8453 480.8152L768.7834 480.8152L768.7834 480.8152L768.7834 480.0079L768.7834 480.0079L771.9034 480.0079C 771.1325 479.4843 770.7361 478.6879 770.7361 477.6843C 770.7361 475.9097 772.0998 474.5206 773.8453 474.5206C 775.6198 474.5206 776.9871 475.8879 776.9871 477.6624C 776.9871 478.6806 776.5616 479.5133 775.8198 480.0079L775.8198 480.0079L776.8453 480.0079zM776.2452 477.6952C 776.2452 476.357 775.2125 475.3388 773.8453 475.3388C 772.4926 475.3388 771.478 476.3606 771.478 477.6843C 771.478 479.0515 772.5071 480.0624 773.8889 480.0624C 775.198 480.0624 776.2452 479.0188 776.2452 477.6952z" stroke="none" fill="#000000" fill-rule="evenodd" /><path id="7" transform="matrix(1 0 0 -1 0 595)" d="M773.5944 467.397C 774.4089 467.397 774.9144 467.5097 775.438 467.8006C 776.3834 468.3388 776.9871 469.3715 776.9871 470.506C 776.9871 472.2515 775.6198 473.6042 773.8889 473.6042C 772.1144 473.6042 770.7361 472.2261 770.7361 470.4515C 770.7361 469.6952 771.0089 468.9752 771.5325 468.4224C 771.9253 468.0006 772.3471 467.7242 772.8416 467.5497L772.8416 467.5497L772.8416 468.3897C 772.0125 468.7388 771.478 469.5715 771.478 470.4733C 771.478 471.6952 772.4162 472.7388 773.5944 472.797zM774.3253 472.7751C 775.4598 472.557 776.2452 471.6515 776.2452 470.517C 776.2452 469.3679 775.5035 468.4806 774.3253 468.2042z" stroke="none" fill="#000000" fill-rule="evenodd" /><path id="8" transform="matrix(1 0 0 -1 0 595)" d="M770.878 466.2842L770.878 465.477L770.878 465.477L778.9398 465.477L778.9398 465.477L778.9398 466.2842z" stroke="none" fill="#000000" fill-rule="evenodd" /><path id="9" transform="matrix(1 0 0 -1 0 595)" d="M770.878 464.1024L770.878 463.2952L770.878 463.2952L776.8453 463.2952L776.8453 463.2952L776.8453 464.1024zM777.5652 464.1024L777.5652 463.2952L777.5652 463.2952L778.9398 463.2952L778.9398 463.2952L778.9398 464.1024z" stroke="none" fill="#000000" fill-rule="evenodd" /><path id="10" transform="matrix(1 0 0 -1 0 595)" d="M770.878 461.9206L770.878 461.1133L770.878 461.1133L774.1616 461.1133C 774.8162 461.1133 775.1653 461.0297 775.5143 460.797C 775.9653 460.4915 776.2452 459.9315 776.2452 459.2915C 776.2452 458.7097 775.9944 458.1751 775.6016 457.8406C 775.2234 457.5642 774.7944 457.4479 774.0089 457.4479L774.0089 457.4479L770.878 457.4479L770.878 457.4479L770.878 456.6406L770.878 456.6406L774.0089 456.6406C 775.0125 456.6406 775.5362 456.786 776.0598 457.1642C 776.6416 457.6442 776.9871 458.3642 776.9871 459.1933C 776.9871 459.9788 776.6816 460.6188 776.0707 461.1133L776.0707 461.1133L776.8453 461.1133L776.8453 461.1133L776.8453 461.9206z" stroke="none" fill="#000000" fill-rule="evenodd" /><path id="11" transform="matrix(1 0 0 -1 0 595)" d="M773.5944 449.2878C 774.4089 449.2878 774.9144 449.4006 775.438 449.6915C 776.3834 450.2297 776.9871 451.2624 776.9871 452.397C 776.9871 454.1424 775.6198 455.4951 773.8889 455.4951C 772.1144 455.4951 770.7361 454.1169 770.7361 452.3424C 770.7361 451.5861 771.0089 450.866 771.5325 450.3133C 771.9253 449.8915 772.3471 449.6151 772.8416 449.4406L772.8416 449.4406L772.8416 450.2806C 772.0125 450.6297 771.478 451.4624 771.478 452.3642C 771.478 453.5861 772.4162 454.6297 773.5944 454.6879zM774.3253 454.666C 775.4598 454.4479 776.2452 453.5424 776.2452 452.4079C 776.2452 451.2588 775.5035 450.3715 774.3253 450.0952z" stroke="none" fill="#000000" fill-rule="evenodd" /><path id="12" transform="matrix(1 0 0 -1 0 595)" d="M772.6343 448.666C 771.4707 448.666 770.7361 447.8951 770.7361 446.746C 770.7361 445.6842 771.4998 444.9242 772.5907 444.9242C 773.318 444.9242 773.8126 445.2624 774.118 445.9606C 774.4816 446.877 774.5107 446.9097 774.598 447.0842C 774.7725 447.4624 775.0344 447.6297 775.3834 447.6297C 775.8635 447.6297 776.2452 447.2479 776.2452 446.7679C 776.2452 446.2442 775.9398 445.9388 775.3726 445.8951L775.3726 445.8951L775.3726 445.077C 776.3325 445.1206 776.9871 445.7969 776.9871 446.757C 776.9871 447.7315 776.2671 448.4479 775.3071 448.4479C 774.8707 448.4479 774.4998 448.306 774.238 448.0006C 774.0052 447.7533 774.0089 447.7424 773.6598 446.8988C 773.5143 446.5497 773.3762 446.2842 773.2889 446.1242C 773.1144 445.8915 772.8344 445.7424 772.5143 445.7424C 771.9034 445.7424 771.478 446.1788 771.478 446.746C 771.478 447.4151 771.8925 447.826 772.6343 447.8697z" stroke="none" fill="#000000" fill-rule="evenodd" /><path id="13" transform="matrix(1 0 0 -1 0 595)" d="M770.878 102.8149L770.878 97.69849L770.878 97.69849L771.6089 97.69849L771.6089 97.69849L771.6089 101.724L771.6089 101.724L774.0853 99.13849C 775.1616 98.00397 775.7543 97.65485 776.6271 97.65485C 778.038 97.65485 779.0816 98.7276 779.0816 100.1967C 779.0816 101.3312 778.4853 102.2258 777.5107 102.5749C 777.118 102.7203 776.8998 102.7494 776.3325 102.7494L776.3325 102.7494L776.3325 101.953C 776.8271 101.953 777.1398 101.8912 777.4453 101.7458C 778.0125 101.4694 778.3507 100.9058 778.3507 100.2076C 778.3507 99.20395 777.6307 98.46213 776.6707 98.46213C 776.1907 98.46213 775.7689 98.63669 775.318 99.02942C 775.0125 99.27667 775.0198 99.27667 774.3362 99.98941L774.3362 99.98941L771.6089 102.8149z" stroke="none" fill="#000000" fill-rule="evenodd" /><path id="14" transform="matrix(1 0 0 -1 0 595)" d="M770.878 96.77121L770.878 91.65485L770.878 91.65485L771.6089 91.65485L771.6089 91.65485L771.6089 95.68033L771.6089 95.68033L774.0853 93.09485C 775.1616 91.9603 775.7543 91.61121 776.6271 91.61121C 778.038 91.61121 779.0816 92.68396 779.0816 94.15305C 779.0816 95.2876 778.4853 96.18213 777.5107 96.53122C 777.118 96.67667 776.8998 96.70578 776.3325 96.70578L776.3325 96.70578L776.3325 95.90939C 776.8271 95.90939 777.1398 95.8476 777.4453 95.70212C 778.0125 95.42578 778.3507 94.86212 778.3507 94.16394C 778.3507 93.16031 777.6307 92.41849 776.6707 92.41849C 776.1907 92.41849 775.7689 92.59305 775.318 92.98578C 775.0125 93.23303 775.0198 93.23303 774.3362 93.94577L774.3362 93.94577L771.6089 96.77121z" stroke="none" fill="#000000" fill-rule="evenodd" /><path id="15" transform="matrix(1 0 0 -1 0 595)" d="M770.878 88.27304L773.8453 86.27667C 774.9798 85.52029 775.478 85.31668 776.278 85.31668C 777.878 85.31668 779.0816 86.51303 779.0816 88.09848C 779.0816 89.6694 777.8671 90.81485 776.2234 90.81485C 774.6671 90.81485 773.4525 89.69122 773.4525 88.25122C 773.4525 87.91666 773.5071 87.66577 773.6816 87.30212L773.6816 87.30212L770.878 89.20032zM778.3507 88.09848C 778.3507 86.96393 777.4562 86.12393 776.2344 86.12393C 775.0707 86.12393 774.1835 86.98575 774.1835 88.07666C 774.1835 89.21121 775.0489 90.00757 776.2562 90.00757C 777.478 90.00757 778.3507 89.20395 778.3507 88.09848z" stroke="none" fill="#000000" fill-rule="evenodd" /><path id="16" transform="matrix(1 0 0 -1 0 595)" d="M766.564 510.237L766.564 85.04001" stroke="#000000" stroke-width="0.498" fill="none" /><path id="17" transform="matrix(1 0 0 -1 0 595)" d="M112.574 510.038L729.316 510.038" stroke="#000000" stroke-width="0.398" fill="none" /><path id="18" transform="matrix(1 0 0 -1 0 595)" d="M112.773 496.29L112.773 509.839" stroke="#000000" stroke-width="0.398" fill="none" /><path id="31" transform="matrix(1 0 0 -1 0 595)" d="M266.859 496.29L266.859 509.839" stroke="#000000" stroke-width="0.398" fill="none" /><path id="42" transform="matrix(1 0 0 -1 0 595)" d="M420.945 496.29L420.945 509.839" stroke="#000000" stroke-width="0.398" fill="none" /><path id="56" transform="matrix(1 0 0 -1 0 595)" d="M575.031 496.29L575.031 509.839" stroke="#000000" stroke-width="0.398" fill="none" /><path id="63" transform="matrix(1 0 0 -1 0 595)" d="M729.1169 496.29L729.1169 509.839" stroke="#000000" stroke-width="0.398" fill="none" /><path id="64" transform="matrix(1 0 0 -1 0 595)" d="M112.773 393.918L112.773 496.29" stroke="#000000" stroke-width="0.398" fill="none" /><path id="313" transform="matrix(1 0 0 -1 0 595)" d="M266.859 393.918L266.859 496.29" stroke="#000000" stroke-width="0.398" fill="none" /><path id="559" transform="matrix(1 0 0 -1 0 595)" d="M420.945 393.918L420.945 496.29" stroke="#000000" stroke-width="0.398" fill="none" /><path id="727" transform="matrix(1 0 0 -1 0 595)" d="M575.031 393.918L575.031 496.29" stroke="#000000" stroke-width="0.398" fill="none" /><path id="876" transform="matrix(1 0 0 -1 0 595)" d="M729.1169 393.918L729.1169 496.29" stroke="#000000" stroke-width="0.398" fill="none" /><path id="877" transform="matrix(1 0 0 -1 0 595)" d="M112.574 393.718L729.316 393.718" stroke="#000000" stroke-width="0.398" fill="none" /><path id="878" transform="matrix(1 0 0 -1 0 595)" d="M112.773 311.722L112.773 393.519" stroke="#000000" stroke-width="0.398" fill="none" /><path id="923" transform="matrix(1 0 0 -1 0 595)" d="M266.859 311.722L266.859 393.519" stroke="#000000" stroke-width="0.398" fill="none" /><path id="1103" transform="matrix(1 0 0 -1 0 595)" d="M420.945 311.722L420.945 393.519" stroke="#000000" stroke-width="0.398" fill="none" /><path id="1274" transform="matrix(1 0 0 -1 0 595)" d="M575.031 311.722L575.031 393.519" stroke="#000000" stroke-width="0.398" fill="none" /><path id="1484" transform="matrix(1 0 0 -1 0 595)" d="M729.1169 311.722L729.1169 393.519" stroke="#000000" stroke-width="0.398" fill="none" /><path id="1485" transform="matrix(1 0 0 -1 0 595)" d="M112.574 311.523L729.316 311.523" stroke="#000000" stroke-width="0.398" fill="none" /><path id="1486" transform="matrix(1 0 0 -1 0 595)" d="M112.773 199.487L112.773 311.323" stroke="#000000" stroke-width="0.398" fill="none" /><path id="1680" transform="matrix(1 0 0 -1 0 595)" d="M266.859 199.487L266.859 311.323" stroke="#000000" stroke-width="0.398" fill="none" /><path id="1916" transform="matrix(1 0 0 -1 0 595)" d="M420.945 199.487L420.945 311.323" stroke="#000000" stroke-width="0.398" fill="none" /><path id="2050" transform="matrix(1 0 0 -1 0 595)" d="M575.031 199.487L575.031 311.323" stroke="#000000" stroke-width="0.398" fill="none" /><path id="2302" transform="matrix(1 0 0 -1 0 595)" d="M729.1169 199.487L729.1169 311.323" stroke="#000000" stroke-width="0.398" fill="none" /><path id="2303" transform="matrix(1 0 0 -1 0 595)" d="M112.574 199.288L729.316 199.288" stroke="#000000" stroke-width="0.398" fill="none" /><path id="2304" transform="matrix(1 0 0 -1 0 595)" d="M112.773 96.717L112.773 199.089" stroke="#000000" stroke-width="0.398" fill="none" /><path id="2505" transform="matrix(1 0 0 -1 0 595)" d="M266.859 96.717L266.859 199.089" stroke="#000000" stroke-width="0.398" fill="none" /><path id="2720" transform="matrix(1 0 0 -1 0 595)" d="M420.945 96.717L420.945 199.089" stroke="#000000" stroke-width="0.398" fill="none" /><path id="2843" transform="matrix(1 0 0 -1 0 595)" d="M575.031 96.717L575.031 199.089" stroke="#000000" stroke-width="0.398" fill="none" /><path id="3007" transform="matrix(1 0 0 -1 0 595)" d="M729.1169 96.717L729.1169 199.089" stroke="#000000" stroke-width="0.398" fill="none" /><path id="3008" transform="matrix(1 0 0 -1 0 595)" d="M112.574 96.517L729.316 96.517" stroke="#000000" stroke-width="0.398" fill="none" /></g></g></svg>