<svg xmlns="http://www.w3.org/2000/svg" xmlns:xlink="http://www.w3.org/1999/xlink" id="body_346" preserveAspectRatio="xMinYMin meet" viewBox="0 0 793 1121"><defs><clipPath id="1"><path id="" clip-rule="evenodd" transform="matrix(1 0 0 1 0 0)" d="M0 841L0 -0.8900146L0 -0.8900146L595.276 -0.8900146L595.276 -0.8900146L595.276 841L595.276 841L0 841z" /></clipPath></defs><g transform="matrix(1.333333 0 0 1.333333 0 0)"><g clip-path="url(#1)"><path id="34" transform="matrix(1 0 0 -1 0 841)" d="M85.039 766.564L510.236 766.564" stroke="#000000" stroke-width="0.498" fill="none" /><path id="113" transform="matrix(1 0 0 -1 0 841)" d="M85.039 649.932L281.222 649.932" stroke="#000000" stroke-width="0.398" fill="none" /><path id="114" transform="matrix(1 0 0 -1 0 841)" d="M85.239 632.796L85.239 649.732" stroke="#000000" stroke-width="0.398" fill="none" /><path id="115" transform="matrix(1 0 0 -1 0 841)" d="M108.196 632.796L108.196 649.732" stroke="#000000" stroke-width="0.398" fill="none" /><path id="123" transform="matrix(1 0 0 -1 0 841)" d="M192.645 632.796L192.645 649.732" stroke="#000000" stroke-width="0.398" fill="none" /><path id="138" transform="matrix(1 0 0 -1 0 841)" d="M281.023 632.796L281.023 649.732" stroke="#000000" stroke-width="0.398" fill="none" /><path id="139" transform="matrix(1 0 0 -1 0 841)" d="M85.039 632.597L281.222 632.597" stroke="#000000" stroke-width="0.398" fill="none" /><path id="140" transform="matrix(1 0 0 -1 0 841)" d="M85.239 615.461L85.239 632.397" stroke="#000000" stroke-width="0.398" fill="none" /><path id="143" transform="matrix(1 0 0 -1 0 841)" d="M108.196 615.461L108.196 632.397" stroke="#000000" stroke-width="0.398" fill="none" /><path id="154" transform="matrix(1 0 0 -1 0 841)" d="M192.645 615.461L192.645 632.397" stroke="#000000" stroke-width="0.398" fill="none" /><path id="159" transform="matrix(1 0 0 -1 0 841)" d="M281.023 615.461L281.023 632.397" stroke="#000000" stroke-width="0.398" fill="none" /><path id="160" transform="matrix(1 0 0 -1 0 841)" d="M85.039 615.262L281.222 615.262" stroke="#000000" stroke-width="0.398" fill="none" /><path id="161" transform="matrix(1 0 0 -1 0 841)" d="M85.239 598.126L85.239 615.062" stroke="#000000" stroke-width="0.398" fill="none" /><path id="164" transform="matrix(1 0 0 -1 0 841)" d="M108.196 598.126L108.196 615.062" stroke="#000000" stroke-width="0.398" fill="none" /><path id="178" transform="matrix(1 0 0 -1 0 841)" d="M192.645 598.126L192.645 615.062" stroke="#000000" stroke-width="0.398" fill="none" /><path id="182" transform="matrix(1 0 0 -1 0 841)" d="M281.023 598.126L281.023 615.062" stroke="#000000" stroke-width="0.398" fill="none" /><path id="183" transform="matrix(1 0 0 -1 0 841)" d="M85.039 597.927L281.222 597.927" stroke="#000000" stroke-width="0.398" fill="none" /><path id="184" transform="matrix(1 0 0 -1 0 841)" d="M85.239 580.791L85.239 597.727" stroke="#000000" stroke-width="0.398" fill="none" /><path id="187" transform="matrix(1 0 0 -1 0 841)" d="M108.196 580.791L108.196 597.727" stroke="#000000" stroke-width="0.398" fill="none" /><path id="198" transform="matrix(1 0 0 -1 0 841)" d="M192.645 580.791L192.645 597.727" stroke="#000000" stroke-width="0.398" fill="none" /><path id="201" transform="matrix(1 0 0 -1 0 841)" d="M281.023 580.791L281.023 597.727" stroke="#000000" stroke-width="0.398" fill="none" /><path id="202" transform="matrix(1 0 0 -1 0 841)" d="M85.039 580.592L281.222 580.592" stroke="#000000" stroke-width="0.398" fill="none" /><path id="203" transform="matrix(1 0 0 -1 0 841)" d="M85.239 563.456L85.239 580.392" stroke="#000000" stroke-width="0.398" fill="none" /><path id="206" transform="matrix(1 0 0 -1 0 841)" d="M108.196 563.456L108.196 580.392" stroke="#000000" stroke-width="0.398" fill="none" /><path id="214" transform="matrix(1 0 0 -1 0 841)" d="M192.645 563.456L192.645 580.392" stroke="#000000" stroke-width="0.398" fill="none" /><path id="217" transform="matrix(1 0 0 -1 0 841)" d="M281.023 563.456L281.023 580.392" stroke="#000000" stroke-width="0.398" fill="none" /><path id="218" transform="matrix(1 0 0 -1 0 841)" d="M85.039 563.257L281.222 563.257" stroke="#000000" stroke-width="0.398" fill="none" /><path id="219" transform="matrix(1 0 0 -1 0 841)" d="M85.039 551.378L292.131 551.378" stroke="#000000" stroke-width="0.398" fill="none" /><path id="220" transform="matrix(1 0 0 -1 0 841)" d="M85.239 534.243L85.239 551.179" stroke="#000000" stroke-width="0.398" fill="none" /><path id="221" transform="matrix(1 0 0 -1 0 841)" d="M108.196 534.243L108.196 551.179" stroke="#000000" stroke-width="0.398" fill="none" /><path id="229" transform="matrix(1 0 0 -1 0 841)" d="M203.554 534.243L203.554 551.179" stroke="#000000" stroke-width="0.398" fill="none" /><path id="244" transform="matrix(1 0 0 -1 0 841)" d="M291.932 534.243L291.932 551.179" stroke="#000000" stroke-width="0.398" fill="none" /><path id="245" transform="matrix(1 0 0 -1 0 841)" d="M85.039 534.043L292.131 534.043" stroke="#000000" stroke-width="0.398" fill="none" /><path id="246" transform="matrix(1 0 0 -1 0 841)" d="M85.239 516.908L85.239 533.844" stroke="#000000" stroke-width="0.398" fill="none" /><path id="249" transform="matrix(1 0 0 -1 0 841)" d="M108.196 516.908L108.196 533.844" stroke="#000000" stroke-width="0.398" fill="none" /><path id="265" transform="matrix(1 0 0 -1 0 841)" d="M203.554 516.908L203.554 533.844" stroke="#000000" stroke-width="0.398" fill="none" /><path id="271" transform="matrix(1 0 0 -1 0 841)" d="M291.932 516.908L291.932 533.844" stroke="#000000" stroke-width="0.398" fill="none" /><path id="272" transform="matrix(1 0 0 -1 0 841)" d="M85.039 516.708L292.131 516.708" stroke="#000000" stroke-width="0.398" fill="none" /><path id="273" transform="matrix(1 0 0 -1 0 841)" d="M85.239 499.573L85.239 516.509" stroke="#000000" stroke-width="0.398" fill="none" /><path id="276" transform="matrix(1 0 0 -1 0 841)" d="M108.196 499.573L108.196 516.509" stroke="#000000" stroke-width="0.398" fill="none" /><path id="289" transform="matrix(1 0 0 -1 0 841)" d="M203.554 499.573L203.554 516.509" stroke="#000000" stroke-width="0.398" fill="none" /><path id="295" transform="matrix(1 0 0 -1 0 841)" d="M291.932 499.573L291.932 516.509" stroke="#000000" stroke-width="0.398" fill="none" /><path id="296" transform="matrix(1 0 0 -1 0 841)" d="M85.039 499.373L292.131 499.373" stroke="#000000" stroke-width="0.398" fill="none" /><path id="297" transform="matrix(1 0 0 -1 0 841)" d="M85.239 482.238L85.239 499.174" stroke="#000000" stroke-width="0.398" fill="none" /><path id="300" transform="matrix(1 0 0 -1 0 841)" d="M108.196 482.238L108.196 499.174" stroke="#000000" stroke-width="0.398" fill="none" /><path id="312" transform="matrix(1 0 0 -1 0 841)" d="M203.554 482.238L203.554 499.174" stroke="#000000" stroke-width="0.398" fill="none" /><path id="316" transform="matrix(1 0 0 -1 0 841)" d="M291.932 482.238L291.932 499.174" stroke="#000000" stroke-width="0.398" fill="none" /><path id="317" transform="matrix(1 0 0 -1 0 841)" d="M85.039 482.038L292.131 482.038" stroke="#000000" stroke-width="0.398" fill="none" /><path id="318" transform="matrix(1 0 0 -1 0 841)" d="M85.239 464.903L85.239 481.839" stroke="#000000" stroke-width="0.398" fill="none" /><path id="321" transform="matrix(1 0 0 -1 0 841)" d="M108.196 464.903L108.196 481.839" stroke="#000000" stroke-width="0.398" fill="none" /><path id="333" transform="matrix(1 0 0 -1 0 841)" d="M203.554 464.903L203.554 481.839" stroke="#000000" stroke-width="0.398" fill="none" /><path id="341" transform="matrix(1 0 0 -1 0 841)" d="M291.932 464.903L291.932 481.839" stroke="#000000" stroke-width="0.398" fill="none" /><path id="342" transform="matrix(1 0 0 -1 0 841)" d="M85.039 464.703L292.131 464.703" stroke="#000000" stroke-width="0.398" fill="none" /><path id="496" transform="matrix(1 0 0 -1 0 841)" d="M113.508 127.309L333.958 127.309" stroke="#000000" stroke-width="0.436" fill="none" /><path id="503" transform="matrix(1 0 0 -1 0 841)" d="M348.478 135.22L374.638 135.22" stroke="#000000" stroke-width="0.398" fill="none" /><path id="504" transform="matrix(1 0 0 -1 0 841)" d="M348.678 121.225L348.678 135.221" stroke="#000000" stroke-width="0.398" fill="none" /><path id="505" transform="matrix(1 0 0 -1 0 841)" d="M374.439 121.225L374.439 135.221" stroke="#000000" stroke-width="0.398" fill="none" /><path id="506" transform="matrix(1 0 0 -1 0 841)" d="M348.478 121.225L374.638 121.225" stroke="#000000" stroke-width="0.398" fill="none" /></g></g></svg>