<svg xmlns="http://www.w3.org/2000/svg" xmlns:xlink="http://www.w3.org/1999/xlink" id="body_361" preserveAspectRatio="xMinYMin meet" viewBox="0 0 793 1121"><defs><clipPath id="1"><path id="" clip-rule="evenodd" transform="matrix(1 0 0 1 0 0)" d="M0 841L0 -0.8900146L0 -0.8900146L595.276 -0.8900146L595.276 -0.8900146L595.276 841L595.276 841L0 841z" /></clipPath><clipPath id="2"><path id="" clip-rule="evenodd" transform="matrix(1 0 0 1 0 0)" d="M-0.139 805.413L595.4166 805.413L595.4166 805.413L595.4166 34.69409L595.4166 34.69409L-0.139 34.69409z" /></clipPath><clipPath id="3"><path id="" clip-rule="evenodd" transform="matrix(1 0 0 1 0 0)" d="M-0.139 49.29102L92.30834 49.29102L92.30834 49.29102L92.30834 58.04919L92.30834 58.04919L-0.139 58.04919z" /></clipPath><clipPath id="4"><path id="" clip-rule="evenodd" transform="matrix(1 0 0 1 0 0)" d="M92.30834 49.29102L595.4166 49.29102L595.4166 49.29102L595.4166 58.04919L595.4166 58.04919L92.30834 58.04919z" /></clipPath><clipPath id="5"><path id="" clip-rule="evenodd" transform="matrix(1 0 0 1 0 0)" d="M-0.139 782.0579L555.5182 782.0579L555.5182 782.0579L555.5182 790.816L555.5182 790.816L-0.139 790.816z" /></clipPath><clipPath id="6"><path id="" clip-rule="evenodd" transform="matrix(1 0 0 1 0 0)" d="M555.5182 782.0579L595.4166 782.0579L595.4166 782.0579L595.4166 790.816L595.4166 790.816L555.5182 790.816z" /></clipPath><clipPath id="7"><path id="" clip-rule="evenodd" transform="matrix(1 0 0 1 0 0)" d="M28.08177 62.91486L568.1688 62.91486L568.1688 62.91486L568.1688 777.975L568.1688 777.975L28.08177 777.975z" /></clipPath></defs><g transform="matrix(1.333333 0 0 1.333333 0 0)"><g clip-path="url(#1)"><g clip-path="url(#2)"><g clip-path="url(#3)"></g><g clip-path="url(#4)"></g><g clip-path="url(#5)"></g><g clip-path="url(#6)"></g><g clip-path="url(#7)"><path id="202" transform="matrix(1 0 0 -1 0 841)" d="M28.08177 778.085L568.1689 778.085L568.1689 63.02478L28.08177 63.02478z" stroke="none" fill="#FFFFFF" fill-rule="nonzero" /><path id="203" transform="matrix(1 0 0 -1 0 841)" d="M28.08177 778.085L568.1689 778.085L568.1689 63.02478L28.08177 63.02478z" stroke="none" fill="#FFFFFF" fill-rule="nonzero" /><path id="204" transform="matrix(1 0 0 -1 0 841)" d="M43.24971 759.1251L43.79142 759.1251L43.79142 745.5823L43.24971 745.5823z" stroke="none" fill="#DEDEDE" fill-rule="nonzero" /><path id="205" transform="matrix(1 0 0 -1 0 841)" d="M43.24971 759.1251L435.9911 759.1251L435.9911 758.5834L43.24971 758.5834z" stroke="none" fill="#DEDEDE" fill-rule="nonzero" /><path id="206" transform="matrix(1 0 0 -1 0 841)" d="M435.4493 759.1251L435.9911 759.1251L435.9911 745.5823L435.4493 745.5823z" stroke="none" fill="#DEDEDE" fill-rule="nonzero" /><path id="207" transform="matrix(1 0 0 -1 0 841)" d="M435.9911 759.1251L553.0009 759.1251L553.0009 758.5834L435.9911 758.5834z" stroke="none" fill="#DEDEDE" fill-rule="nonzero" /><path id="208" transform="matrix(1 0 0 -1 0 841)" d="M552.4592 759.1251L553.0009 759.1251L553.0009 745.5823L552.4592 745.5823z" stroke="none" fill="#DEDEDE" fill-rule="nonzero" /><path id="209" transform="matrix(1 0 0 -1 0 841)" d="M43.24971 745.5823L43.79142 745.5823L43.79142 733.1229L43.24971 733.1229z" stroke="none" fill="#DEDEDE" fill-rule="nonzero" /><path id="210" transform="matrix(1 0 0 -1 0 841)" d="M43.24971 746.124L435.9911 746.124L435.9911 745.5823L43.24971 745.5823z" stroke="none" fill="#DEDEDE" fill-rule="nonzero" /><path id="211" transform="matrix(1 0 0 -1 0 841)" d="M435.4493 745.5823L435.9911 745.5823L435.9911 733.1229L435.4493 733.1229z" stroke="none" fill="#DEDEDE" fill-rule="nonzero" /><path id="212" transform="matrix(1 0 0 -1 0 841)" d="M435.9911 746.124L553.0009 746.124L553.0009 745.5823L435.9911 745.5823z" stroke="none" fill="#DEDEDE" fill-rule="nonzero" /><path id="213" transform="matrix(1 0 0 -1 0 841)" d="M552.4592 745.5823L553.0009 745.5823L553.0009 733.1229L552.4592 733.1229z" stroke="none" fill="#DEDEDE" fill-rule="nonzero" /><path id="214" transform="matrix(1 0 0 -1 0 841)" d="M43.24971 733.1229L43.79142 733.1229L43.79142 720.6636L43.24971 720.6636z" stroke="none" fill="#DEDEDE" fill-rule="nonzero" /><path id="215" transform="matrix(1 0 0 -1 0 841)" d="M43.24971 733.6646L435.9911 733.6646L435.9911 733.1229L43.24971 733.1229z" stroke="none" fill="#DEDEDE" fill-rule="nonzero" /><path id="216" transform="matrix(1 0 0 -1 0 841)" d="M435.4493 733.1229L435.9911 733.1229L435.9911 720.6636L435.4493 720.6636z" stroke="none" fill="#DEDEDE" fill-rule="nonzero" /><path id="217" transform="matrix(1 0 0 -1 0 841)" d="M435.9911 733.6646L553.0009 733.6646L553.0009 733.1229L435.9911 733.1229z" stroke="none" fill="#DEDEDE" fill-rule="nonzero" /><path id="218" transform="matrix(1 0 0 -1 0 841)" d="M552.4592 733.1229L553.0009 733.1229L553.0009 720.6636L552.4592 720.6636z" stroke="none" fill="#DEDEDE" fill-rule="nonzero" /><path id="219" transform="matrix(1 0 0 -1 0 841)" d="M43.24971 720.6636L43.79142 720.6636L43.79142 707.6625L43.24971 707.6625z" stroke="none" fill="#DEDEDE" fill-rule="nonzero" /><path id="220" transform="matrix(1 0 0 -1 0 841)" d="M43.24971 721.2053L435.9911 721.2053L435.9911 720.6636L43.24971 720.6636z" stroke="none" fill="#DEDEDE" fill-rule="nonzero" /><path id="221" transform="matrix(1 0 0 -1 0 841)" d="M435.4493 720.6636L435.9911 720.6636L435.9911 707.6625L435.4493 707.6625z" stroke="none" fill="#DEDEDE" fill-rule="nonzero" /><path id="222" transform="matrix(1 0 0 -1 0 841)" d="M435.9911 721.2053L553.0009 721.2053L553.0009 720.6636L435.9911 720.6636z" stroke="none" fill="#DEDEDE" fill-rule="nonzero" /><path id="223" transform="matrix(1 0 0 -1 0 841)" d="M552.4592 720.6636L553.0009 720.6636L553.0009 707.6625L552.4592 707.6625z" stroke="none" fill="#DEDEDE" fill-rule="nonzero" /><path id="224" transform="matrix(1 0 0 -1 0 841)" d="M43.24971 708.2042L435.9911 708.2042L435.9911 707.6625L43.24971 707.6625z" stroke="none" fill="#DEDEDE" fill-rule="nonzero" /><path id="225" transform="matrix(1 0 0 -1 0 841)" d="M435.9911 708.2042L553.0009 708.2042L553.0009 707.6625L435.9911 707.6625z" stroke="none" fill="#DEDEDE" fill-rule="nonzero" /><path id="226" transform="matrix(1 0 0 -1 0 841)" d="M43.24971 659.4501L43.79142 659.4501L43.79142 645.9072L43.24971 645.9072z" stroke="none" fill="#DEDEDE" fill-rule="nonzero" /><path id="227" transform="matrix(1 0 0 -1 0 841)" d="M43.24971 659.4501L435.9911 659.4501L435.9911 658.9083L43.24971 658.9083z" stroke="none" fill="#DEDEDE" fill-rule="nonzero" /><path id="228" transform="matrix(1 0 0 -1 0 841)" d="M435.4493 659.4501L435.9911 659.4501L435.9911 645.9072L435.4493 645.9072z" stroke="none" fill="#DEDEDE" fill-rule="nonzero" /><path id="229" transform="matrix(1 0 0 -1 0 841)" d="M435.9911 659.4501L553.0009 659.4501L553.0009 658.9083L435.9911 658.9083z" stroke="none" fill="#DEDEDE" fill-rule="nonzero" /><path id="230" transform="matrix(1 0 0 -1 0 841)" d="M552.4592 659.4501L553.0009 659.4501L553.0009 645.9072L552.4592 645.9072z" stroke="none" fill="#DEDEDE" fill-rule="nonzero" /><path id="231" transform="matrix(1 0 0 -1 0 841)" d="M43.24971 645.9072L43.79142 645.9072L43.79142 633.4479L43.24971 633.4479z" stroke="none" fill="#DEDEDE" fill-rule="nonzero" /><path id="232" transform="matrix(1 0 0 -1 0 841)" d="M43.24971 646.449L435.9911 646.449L435.9911 645.9072L43.24971 645.9072z" stroke="none" fill="#DEDEDE" fill-rule="nonzero" /><path id="233" transform="matrix(1 0 0 -1 0 841)" d="M435.4493 645.9072L435.9911 645.9072L435.9911 633.4479L435.4493 633.4479z" stroke="none" fill="#DEDEDE" fill-rule="nonzero" /><path id="234" transform="matrix(1 0 0 -1 0 841)" d="M435.9911 646.449L553.0009 646.449L553.0009 645.9072L435.9911 645.9072z" stroke="none" fill="#DEDEDE" fill-rule="nonzero" /><path id="235" transform="matrix(1 0 0 -1 0 841)" d="M552.4592 645.9072L553.0009 645.9072L553.0009 633.4479L552.4592 633.4479z" stroke="none" fill="#DEDEDE" fill-rule="nonzero" /><path id="236" transform="matrix(1 0 0 -1 0 841)" d="M43.24971 633.4479L43.79142 633.4479L43.79142 620.9885L43.24971 620.9885z" stroke="none" fill="#DEDEDE" fill-rule="nonzero" /><path id="237" transform="matrix(1 0 0 -1 0 841)" d="M43.24971 633.9896L435.9911 633.9896L435.9911 633.4479L43.24971 633.4479z" stroke="none" fill="#DEDEDE" fill-rule="nonzero" /><path id="238" transform="matrix(1 0 0 -1 0 841)" d="M435.4493 633.4479L435.9911 633.4479L435.9911 620.9885L435.4493 620.9885z" stroke="none" fill="#DEDEDE" fill-rule="nonzero" /><path id="239" transform="matrix(1 0 0 -1 0 841)" d="M435.9911 633.9896L553.0009 633.9896L553.0009 633.4479L435.9911 633.4479z" stroke="none" fill="#DEDEDE" fill-rule="nonzero" /><path id="240" transform="matrix(1 0 0 -1 0 841)" d="M552.4592 633.4479L553.0009 633.4479L553.0009 620.9885L552.4592 620.9885z" stroke="none" fill="#DEDEDE" fill-rule="nonzero" /><path id="241" transform="matrix(1 0 0 -1 0 841)" d="M43.24971 621.5302L435.9911 621.5302L435.9911 620.9885L43.24971 620.9885z" stroke="none" fill="#DEDEDE" fill-rule="nonzero" /><path id="242" transform="matrix(1 0 0 -1 0 841)" d="M435.9911 621.5302L553.0009 621.5302L553.0009 620.9885L435.9911 620.9885z" stroke="none" fill="#DEDEDE" fill-rule="nonzero" /><path id="243" transform="matrix(1 0 0 -1 0 841)" d="M43.24971 540.8151L43.79142 540.8151L43.79142 527.814L43.24971 527.814z" stroke="none" fill="#DEDEDE" fill-rule="nonzero" /><path id="244" transform="matrix(1 0 0 -1 0 841)" d="M43.24971 540.8151L359.0679 540.8151L359.0679 540.2734L43.24971 540.2734z" stroke="none" fill="#DEDEDE" fill-rule="nonzero" /><path id="245" transform="matrix(1 0 0 -1 0 841)" d="M358.5262 540.8151L359.0679 540.8151L359.0679 527.814L358.5262 527.814z" stroke="none" fill="#DEDEDE" fill-rule="nonzero" /><path id="246" transform="matrix(1 0 0 -1 0 841)" d="M359.0679 540.8151L435.9911 540.8151L435.9911 540.2734L359.0679 540.2734z" stroke="none" fill="#DEDEDE" fill-rule="nonzero" /><path id="247" transform="matrix(1 0 0 -1 0 841)" d="M435.4493 540.8151L435.9911 540.8151L435.9911 527.814L435.4493 527.814z" stroke="none" fill="#DEDEDE" fill-rule="nonzero" /><path id="248" transform="matrix(1 0 0 -1 0 841)" d="M435.9911 540.8151L553.0009 540.8151L553.0009 540.2734L435.9911 540.2734z" stroke="none" fill="#DEDEDE" fill-rule="nonzero" /><path id="249" transform="matrix(1 0 0 -1 0 841)" d="M552.4592 540.8151L553.0009 540.8151L553.0009 527.814L552.4592 527.814z" stroke="none" fill="#DEDEDE" fill-rule="nonzero" /><path id="250" transform="matrix(1 0 0 -1 0 841)" d="M43.24971 527.814L43.79142 527.814L43.79142 515.3546L43.24971 515.3546z" stroke="none" fill="#DEDEDE" fill-rule="nonzero" /><path id="251" transform="matrix(1 0 0 -1 0 841)" d="M43.24971 528.3557L359.0679 528.3557L359.0679 527.814L43.24971 527.814z" stroke="none" fill="#DEDEDE" fill-rule="nonzero" /><path id="252" transform="matrix(1 0 0 -1 0 841)" d="M358.5262 527.814L359.0679 527.814L359.0679 515.3546L358.5262 515.3546z" stroke="none" fill="#DEDEDE" fill-rule="nonzero" /><path id="253" transform="matrix(1 0 0 -1 0 841)" d="M359.0679 528.3557L435.9911 528.3557L435.9911 527.814L359.0679 527.814z" stroke="none" fill="#DEDEDE" fill-rule="nonzero" /><path id="254" transform="matrix(1 0 0 -1 0 841)" d="M435.4493 527.814L435.9911 527.814L435.9911 515.3546L435.4493 515.3546z" stroke="none" fill="#DEDEDE" fill-rule="nonzero" /><path id="255" transform="matrix(1 0 0 -1 0 841)" d="M435.9911 528.3557L553.0009 528.3557L553.0009 527.814L435.9911 527.814z" stroke="none" fill="#DEDEDE" fill-rule="nonzero" /><path id="256" transform="matrix(1 0 0 -1 0 841)" d="M552.4592 527.814L553.0009 527.814L553.0009 515.3546L552.4592 515.3546z" stroke="none" fill="#DEDEDE" fill-rule="nonzero" /><path id="257" transform="matrix(1 0 0 -1 0 841)" d="M43.24971 515.3546L43.79142 515.3546L43.79142 502.3535L43.24971 502.3535z" stroke="none" fill="#DEDEDE" fill-rule="nonzero" /><path id="258" transform="matrix(1 0 0 -1 0 841)" d="M43.24971 515.8963L359.0679 515.8963L359.0679 515.3546L43.24971 515.3546z" stroke="none" fill="#DEDEDE" fill-rule="nonzero" /><path id="259" transform="matrix(1 0 0 -1 0 841)" d="M358.5262 515.3546L359.0679 515.3546L359.0679 502.3535L358.5262 502.3535z" stroke="none" fill="#DEDEDE" fill-rule="nonzero" /><path id="260" transform="matrix(1 0 0 -1 0 841)" d="M359.0679 515.8963L435.9911 515.8963L435.9911 515.3546L359.0679 515.3546z" stroke="none" fill="#DEDEDE" fill-rule="nonzero" /><path id="261" transform="matrix(1 0 0 -1 0 841)" d="M435.4493 515.3546L435.9911 515.3546L435.9911 502.3535L435.4493 502.3535z" stroke="none" fill="#DEDEDE" fill-rule="nonzero" /><path id="262" transform="matrix(1 0 0 -1 0 841)" d="M435.9911 515.8963L553.0009 515.8963L553.0009 515.3546L435.9911 515.3546z" stroke="none" fill="#DEDEDE" fill-rule="nonzero" /><path id="263" transform="matrix(1 0 0 -1 0 841)" d="M552.4592 515.3546L553.0009 515.3546L553.0009 502.3535L552.4592 502.3535z" stroke="none" fill="#DEDEDE" fill-rule="nonzero" /><path id="264" transform="matrix(1 0 0 -1 0 841)" d="M43.24971 502.3535L43.79142 502.3535L43.79142 489.8941L43.24971 489.8941z" stroke="none" fill="#DEDEDE" fill-rule="nonzero" /><path id="265" transform="matrix(1 0 0 -1 0 841)" d="M43.24971 502.8952L359.0679 502.8952L359.0679 502.3535L43.24971 502.3535z" stroke="none" fill="#DEDEDE" fill-rule="nonzero" /><path id="266" transform="matrix(1 0 0 -1 0 841)" d="M358.5262 502.3535L359.0679 502.3535L359.0679 489.8941L358.5262 489.8941z" stroke="none" fill="#DEDEDE" fill-rule="nonzero" /><path id="267" transform="matrix(1 0 0 -1 0 841)" d="M359.0679 502.8952L435.9911 502.8952L435.9911 502.3535L359.0679 502.3535z" stroke="none" fill="#DEDEDE" fill-rule="nonzero" /><path id="268" transform="matrix(1 0 0 -1 0 841)" d="M435.4493 502.3535L435.9911 502.3535L435.9911 489.8941L435.4493 489.8941z" stroke="none" fill="#DEDEDE" fill-rule="nonzero" /><path id="269" transform="matrix(1 0 0 -1 0 841)" d="M435.9911 502.8952L553.0009 502.8952L553.0009 502.3535L435.9911 502.3535z" stroke="none" fill="#DEDEDE" fill-rule="nonzero" /><path id="270" transform="matrix(1 0 0 -1 0 841)" d="M552.4592 502.3535L553.0009 502.3535L553.0009 489.8941L552.4592 489.8941z" stroke="none" fill="#DEDEDE" fill-rule="nonzero" /><path id="271" transform="matrix(1 0 0 -1 0 841)" d="M43.24971 490.4359L359.0679 490.4359L359.0679 489.8941L43.24971 489.8941z" stroke="none" fill="#DEDEDE" fill-rule="nonzero" /><path id="272" transform="matrix(1 0 0 -1 0 841)" d="M359.0679 490.4359L435.9911 490.4359L435.9911 489.8941L359.0679 489.8941z" stroke="none" fill="#DEDEDE" fill-rule="nonzero" /><path id="273" transform="matrix(1 0 0 -1 0 841)" d="M435.9911 490.4359L553.0009 490.4359L553.0009 489.8941L435.9911 489.8941z" stroke="none" fill="#DEDEDE" fill-rule="nonzero" /><path id="274" transform="matrix(1 0 0 -1 0 841)" d="M43.24971 441.14L43.79142 441.14L43.79142 428.1389L43.24971 428.1389z" stroke="none" fill="#DEDEDE" fill-rule="nonzero" /><path id="275" transform="matrix(1 0 0 -1 0 841)" d="M43.24971 441.14L359.0679 441.14L359.0679 440.5983L43.24971 440.5983z" stroke="none" fill="#DEDEDE" fill-rule="nonzero" /><path id="276" transform="matrix(1 0 0 -1 0 841)" d="M358.5262 441.14L359.0679 441.14L359.0679 428.1389L358.5262 428.1389z" stroke="none" fill="#DEDEDE" fill-rule="nonzero" /><path id="277" transform="matrix(1 0 0 -1 0 841)" d="M359.0679 441.14L435.9911 441.14L435.9911 440.5983L359.0679 440.5983z" stroke="none" fill="#DEDEDE" fill-rule="nonzero" /><path id="278" transform="matrix(1 0 0 -1 0 841)" d="M435.4493 441.14L435.9911 441.14L435.9911 428.1389L435.4493 428.1389z" stroke="none" fill="#DEDEDE" fill-rule="nonzero" /><path id="279" transform="matrix(1 0 0 -1 0 841)" d="M435.9911 441.14L553.0009 441.14L553.0009 440.5983L435.9911 440.5983z" stroke="none" fill="#DEDEDE" fill-rule="nonzero" /><path id="280" transform="matrix(1 0 0 -1 0 841)" d="M552.4592 441.14L553.0009 441.14L553.0009 428.1389L552.4592 428.1389z" stroke="none" fill="#DEDEDE" fill-rule="nonzero" /><path id="281" transform="matrix(1 0 0 -1 0 841)" d="M43.24971 428.1389L43.79142 428.1389L43.79142 415.6796L43.24971 415.6796z" stroke="none" fill="#DEDEDE" fill-rule="nonzero" /><path id="282" transform="matrix(1 0 0 -1 0 841)" d="M43.24971 428.6807L359.0679 428.6807L359.0679 428.1389L43.24971 428.1389z" stroke="none" fill="#DEDEDE" fill-rule="nonzero" /><path id="283" transform="matrix(1 0 0 -1 0 841)" d="M358.5262 428.1389L359.0679 428.1389L359.0679 415.6796L358.5262 415.6796z" stroke="none" fill="#DEDEDE" fill-rule="nonzero" /><path id="284" transform="matrix(1 0 0 -1 0 841)" d="M359.0679 428.6807L435.9911 428.6807L435.9911 428.1389L359.0679 428.1389z" stroke="none" fill="#DEDEDE" fill-rule="nonzero" /><path id="285" transform="matrix(1 0 0 -1 0 841)" d="M435.4493 428.1389L435.9911 428.1389L435.9911 415.6796L435.4493 415.6796z" stroke="none" fill="#DEDEDE" fill-rule="nonzero" /><path id="286" transform="matrix(1 0 0 -1 0 841)" d="M435.9911 428.6807L553.0009 428.6807L553.0009 428.1389L435.9911 428.1389z" stroke="none" fill="#DEDEDE" fill-rule="nonzero" /><path id="287" transform="matrix(1 0 0 -1 0 841)" d="M552.4592 428.1389L553.0009 428.1389L553.0009 415.6796L552.4592 415.6796z" stroke="none" fill="#DEDEDE" fill-rule="nonzero" /><path id="288" transform="matrix(1 0 0 -1 0 841)" d="M43.24971 415.6796L43.79142 415.6796L43.79142 402.6785L43.24971 402.6785z" stroke="none" fill="#DEDEDE" fill-rule="nonzero" /><path id="289" transform="matrix(1 0 0 -1 0 841)" d="M43.24971 416.2212L359.0679 416.2212L359.0679 415.6796L43.24971 415.6796z" stroke="none" fill="#DEDEDE" fill-rule="nonzero" /><path id="290" transform="matrix(1 0 0 -1 0 841)" d="M358.5262 415.6796L359.0679 415.6796L359.0679 402.6785L358.5262 402.6785z" stroke="none" fill="#DEDEDE" fill-rule="nonzero" /><path id="291" transform="matrix(1 0 0 -1 0 841)" d="M359.0679 416.2212L435.9911 416.2212L435.9911 415.6796L359.0679 415.6796z" stroke="none" fill="#DEDEDE" fill-rule="nonzero" /><path id="292" transform="matrix(1 0 0 -1 0 841)" d="M435.4493 415.6796L435.9911 415.6796L435.9911 402.6785L435.4493 402.6785z" stroke="none" fill="#DEDEDE" fill-rule="nonzero" /><path id="293" transform="matrix(1 0 0 -1 0 841)" d="M435.9911 416.2212L553.0009 416.2212L553.0009 415.6796L435.9911 415.6796z" stroke="none" fill="#DEDEDE" fill-rule="nonzero" /><path id="294" transform="matrix(1 0 0 -1 0 841)" d="M552.4592 415.6796L553.0009 415.6796L553.0009 402.6785L552.4592 402.6785z" stroke="none" fill="#DEDEDE" fill-rule="nonzero" /><path id="295" transform="matrix(1 0 0 -1 0 841)" d="M43.24971 402.6785L43.79142 402.6785L43.79142 390.219L43.24971 390.219z" stroke="none" fill="#DEDEDE" fill-rule="nonzero" /><path id="296" transform="matrix(1 0 0 -1 0 841)" d="M43.24971 403.2201L359.0679 403.2201L359.0679 402.6785L43.24971 402.6785z" stroke="none" fill="#DEDEDE" fill-rule="nonzero" /><path id="297" transform="matrix(1 0 0 -1 0 841)" d="M358.5262 402.6785L359.0679 402.6785L359.0679 390.219L358.5262 390.219z" stroke="none" fill="#DEDEDE" fill-rule="nonzero" /><path id="298" transform="matrix(1 0 0 -1 0 841)" d="M359.0679 403.2201L435.9911 403.2201L435.9911 402.6785L359.0679 402.6785z" stroke="none" fill="#DEDEDE" fill-rule="nonzero" /><path id="299" transform="matrix(1 0 0 -1 0 841)" d="M435.4493 402.6785L435.9911 402.6785L435.9911 390.219L435.4493 390.219z" stroke="none" fill="#DEDEDE" fill-rule="nonzero" /><path id="300" transform="matrix(1 0 0 -1 0 841)" d="M435.9911 403.2201L553.0009 403.2201L553.0009 402.6785L435.9911 402.6785z" stroke="none" fill="#DEDEDE" fill-rule="nonzero" /><path id="301" transform="matrix(1 0 0 -1 0 841)" d="M552.4592 402.6785L553.0009 402.6785L553.0009 390.219L552.4592 390.219z" stroke="none" fill="#DEDEDE" fill-rule="nonzero" /><path id="302" transform="matrix(1 0 0 -1 0 841)" d="M43.24971 390.219L43.79142 390.219L43.79142 377.7596L43.24971 377.7596z" stroke="none" fill="#DEDEDE" fill-rule="nonzero" /><path id="303" transform="matrix(1 0 0 -1 0 841)" d="M43.24971 390.7607L359.0679 390.7607L359.0679 390.219L43.24971 390.219z" stroke="none" fill="#DEDEDE" fill-rule="nonzero" /><path id="304" transform="matrix(1 0 0 -1 0 841)" d="M358.5262 390.219L359.0679 390.219L359.0679 377.7596L358.5262 377.7596z" stroke="none" fill="#DEDEDE" fill-rule="nonzero" /><path id="305" transform="matrix(1 0 0 -1 0 841)" d="M359.0679 390.7607L435.9911 390.7607L435.9911 390.219L359.0679 390.219z" stroke="none" fill="#DEDEDE" fill-rule="nonzero" /><path id="306" transform="matrix(1 0 0 -1 0 841)" d="M435.4493 390.219L435.9911 390.219L435.9911 377.7596L435.4493 377.7596z" stroke="none" fill="#DEDEDE" fill-rule="nonzero" /><path id="307" transform="matrix(1 0 0 -1 0 841)" d="M435.9911 390.7607L553.0009 390.7607L553.0009 390.219L435.9911 390.219z" stroke="none" fill="#DEDEDE" fill-rule="nonzero" /><path id="308" transform="matrix(1 0 0 -1 0 841)" d="M552.4592 390.219L553.0009 390.219L553.0009 377.7596L552.4592 377.7596z" stroke="none" fill="#DEDEDE" fill-rule="nonzero" /><path id="309" transform="matrix(1 0 0 -1 0 841)" d="M43.24971 378.3014L359.0679 378.3014L359.0679 377.7596L43.24971 377.7596z" stroke="none" fill="#DEDEDE" fill-rule="nonzero" /><path id="310" transform="matrix(1 0 0 -1 0 841)" d="M359.0679 378.3014L435.9911 378.3014L435.9911 377.7596L359.0679 377.7596z" stroke="none" fill="#DEDEDE" fill-rule="nonzero" /><path id="311" transform="matrix(1 0 0 -1 0 841)" d="M435.9911 378.3014L553.0009 378.3014L553.0009 377.7596L435.9911 377.7596z" stroke="none" fill="#DEDEDE" fill-rule="nonzero" /><path id="312" transform="matrix(1 0 0 -1 0 841)" d="M43.24971 209.2871L43.79142 209.2871L43.79142 196.286L43.24971 196.286z" stroke="none" fill="#DEDEDE" fill-rule="nonzero" /><path id="313" transform="matrix(1 0 0 -1 0 841)" d="M43.24971 209.2871L359.0679 209.2871L359.0679 208.7455L43.24971 208.7455z" stroke="none" fill="#DEDEDE" fill-rule="nonzero" /><path id="314" transform="matrix(1 0 0 -1 0 841)" d="M358.5262 209.2871L359.0679 209.2871L359.0679 196.286L358.5262 196.286z" stroke="none" fill="#DEDEDE" fill-rule="nonzero" /><path id="315" transform="matrix(1 0 0 -1 0 841)" d="M359.0679 209.2871L435.9911 209.2871L435.9911 208.7455L359.0679 208.7455z" stroke="none" fill="#DEDEDE" fill-rule="nonzero" /><path id="316" transform="matrix(1 0 0 -1 0 841)" d="M435.4493 209.2871L435.9911 209.2871L435.9911 196.286L435.4493 196.286z" stroke="none" fill="#DEDEDE" fill-rule="nonzero" /><path id="317" transform="matrix(1 0 0 -1 0 841)" d="M435.9911 209.2871L553.0009 209.2871L553.0009 208.7455L435.9911 208.7455z" stroke="none" fill="#DEDEDE" fill-rule="nonzero" /><path id="318" transform="matrix(1 0 0 -1 0 841)" d="M552.4592 209.2871L553.0009 209.2871L553.0009 196.286L552.4592 196.286z" stroke="none" fill="#DEDEDE" fill-rule="nonzero" /><path id="319" transform="matrix(1 0 0 -1 0 841)" d="M43.24971 196.286L43.79142 196.286L43.79142 183.8267L43.24971 183.8267z" stroke="none" fill="#DEDEDE" fill-rule="nonzero" /><path id="320" transform="matrix(1 0 0 -1 0 841)" d="M43.24971 196.8278L359.0679 196.8278L359.0679 196.286L43.24971 196.286z" stroke="none" fill="#DEDEDE" fill-rule="nonzero" /><path id="321" transform="matrix(1 0 0 -1 0 841)" d="M358.5262 196.286L359.0679 196.286L359.0679 183.8267L358.5262 183.8267z" stroke="none" fill="#DEDEDE" fill-rule="nonzero" /><path id="322" transform="matrix(1 0 0 -1 0 841)" d="M359.0679 196.8278L435.9911 196.8278L435.9911 196.286L359.0679 196.286z" stroke="none" fill="#DEDEDE" fill-rule="nonzero" /><path id="323" transform="matrix(1 0 0 -1 0 841)" d="M435.4493 196.286L435.9911 196.286L435.9911 183.8267L435.4493 183.8267z" stroke="none" fill="#DEDEDE" fill-rule="nonzero" /><path id="324" transform="matrix(1 0 0 -1 0 841)" d="M435.9911 196.8278L553.0009 196.8278L553.0009 196.286L435.9911 196.286z" stroke="none" fill="#DEDEDE" fill-rule="nonzero" /><path id="325" transform="matrix(1 0 0 -1 0 841)" d="M552.4592 196.286L553.0009 196.286L553.0009 183.8267L552.4592 183.8267z" stroke="none" fill="#DEDEDE" fill-rule="nonzero" /><path id="326" transform="matrix(1 0 0 -1 0 841)" d="M43.24971 183.8267L43.79142 183.8267L43.79142 170.8256L43.24971 170.8256z" stroke="none" fill="#DEDEDE" fill-rule="nonzero" /><path id="327" transform="matrix(1 0 0 -1 0 841)" d="M43.24971 184.3684L359.0679 184.3684L359.0679 183.8267L43.24971 183.8267z" stroke="none" fill="#DEDEDE" fill-rule="nonzero" /><path id="328" transform="matrix(1 0 0 -1 0 841)" d="M358.5262 183.8267L359.0679 183.8267L359.0679 170.8256L358.5262 170.8256z" stroke="none" fill="#DEDEDE" fill-rule="nonzero" /><path id="329" transform="matrix(1 0 0 -1 0 841)" d="M359.0679 184.3684L435.9911 184.3684L435.9911 183.8267L359.0679 183.8267z" stroke="none" fill="#DEDEDE" fill-rule="nonzero" /><path id="330" transform="matrix(1 0 0 -1 0 841)" d="M435.4493 183.8267L435.9911 183.8267L435.9911 170.8256L435.4493 170.8256z" stroke="none" fill="#DEDEDE" fill-rule="nonzero" /><path id="331" transform="matrix(1 0 0 -1 0 841)" d="M435.9911 184.3684L553.0009 184.3684L553.0009 183.8267L435.9911 183.8267z" stroke="none" fill="#DEDEDE" fill-rule="nonzero" /><path id="332" transform="matrix(1 0 0 -1 0 841)" d="M552.4592 183.8267L553.0009 183.8267L553.0009 170.8256L552.4592 170.8256z" stroke="none" fill="#DEDEDE" fill-rule="nonzero" /><path id="333" transform="matrix(1 0 0 -1 0 841)" d="M43.24971 170.8256L43.79142 170.8256L43.79142 158.3662L43.24971 158.3662z" stroke="none" fill="#DEDEDE" fill-rule="nonzero" /><path id="334" transform="matrix(1 0 0 -1 0 841)" d="M43.24971 171.3673L359.0679 171.3673L359.0679 170.8256L43.24971 170.8256z" stroke="none" fill="#DEDEDE" fill-rule="nonzero" /><path id="335" transform="matrix(1 0 0 -1 0 841)" d="M358.5262 170.8256L359.0679 170.8256L359.0679 158.3662L358.5262 158.3662z" stroke="none" fill="#DEDEDE" fill-rule="nonzero" /><path id="336" transform="matrix(1 0 0 -1 0 841)" d="M359.0679 171.3673L435.9911 171.3673L435.9911 170.8256L359.0679 170.8256z" stroke="none" fill="#DEDEDE" fill-rule="nonzero" /><path id="337" transform="matrix(1 0 0 -1 0 841)" d="M435.4493 170.8256L435.9911 170.8256L435.9911 158.3662L435.4493 158.3662z" stroke="none" fill="#DEDEDE" fill-rule="nonzero" /><path id="338" transform="matrix(1 0 0 -1 0 841)" d="M435.9911 171.3673L553.0009 171.3673L553.0009 170.8256L435.9911 170.8256z" stroke="none" fill="#DEDEDE" fill-rule="nonzero" /><path id="339" transform="matrix(1 0 0 -1 0 841)" d="M552.4592 170.8256L553.0009 170.8256L553.0009 158.3662L552.4592 158.3662z" stroke="none" fill="#DEDEDE" fill-rule="nonzero" /><path id="340" transform="matrix(1 0 0 -1 0 841)" d="M43.24971 158.3662L43.79142 158.3662L43.79142 145.3651L43.24971 145.3651z" stroke="none" fill="#DEDEDE" fill-rule="nonzero" /><path id="341" transform="matrix(1 0 0 -1 0 841)" d="M43.24971 158.908L359.0679 158.908L359.0679 158.3662L43.24971 158.3662z" stroke="none" fill="#DEDEDE" fill-rule="nonzero" /><path id="342" transform="matrix(1 0 0 -1 0 841)" d="M358.5262 158.3662L359.0679 158.3662L359.0679 145.3651L358.5262 145.3651z" stroke="none" fill="#DEDEDE" fill-rule="nonzero" /><path id="343" transform="matrix(1 0 0 -1 0 841)" d="M359.0679 158.908L435.9911 158.908L435.9911 158.3662L359.0679 158.3662z" stroke="none" fill="#DEDEDE" fill-rule="nonzero" /><path id="344" transform="matrix(1 0 0 -1 0 841)" d="M435.4493 158.3662L435.9911 158.3662L435.9911 145.3651L435.4493 145.3651z" stroke="none" fill="#DEDEDE" fill-rule="nonzero" /><path id="345" transform="matrix(1 0 0 -1 0 841)" d="M435.9911 158.908L553.0009 158.908L553.0009 158.3662L435.9911 158.3662z" stroke="none" fill="#DEDEDE" fill-rule="nonzero" /><path id="346" transform="matrix(1 0 0 -1 0 841)" d="M552.4592 158.3662L553.0009 158.3662L553.0009 145.3651L552.4592 145.3651z" stroke="none" fill="#DEDEDE" fill-rule="nonzero" /><path id="347" transform="matrix(1 0 0 -1 0 841)" d="M43.24971 145.9069L359.0679 145.9069L359.0679 145.3651L43.24971 145.3651z" stroke="none" fill="#DEDEDE" fill-rule="nonzero" /><path id="348" transform="matrix(1 0 0 -1 0 841)" d="M359.0679 145.9069L435.9911 145.9069L435.9911 145.3651L359.0679 145.3651z" stroke="none" fill="#DEDEDE" fill-rule="nonzero" /><path id="349" transform="matrix(1 0 0 -1 0 841)" d="M435.9911 145.9069L553.0009 145.9069L553.0009 145.3651L435.9911 145.3651z" stroke="none" fill="#DEDEDE" fill-rule="nonzero" /><path id="350" transform="matrix(1 0 0 -1 0 841)" d="M43.24971 97.15271L43.79142 97.15271L43.79142 83.60986L43.24971 83.60986z" stroke="none" fill="#DEDEDE" fill-rule="nonzero" /><path id="351" transform="matrix(1 0 0 -1 0 841)" d="M43.24971 97.15271L359.0679 97.15271L359.0679 96.61096L43.24971 96.61096z" stroke="none" fill="#DEDEDE" fill-rule="nonzero" /><path id="352" transform="matrix(1 0 0 -1 0 841)" d="M358.5262 97.15271L359.0679 97.15271L359.0679 83.60986L358.5262 83.60986z" stroke="none" fill="#DEDEDE" fill-rule="nonzero" /><path id="353" transform="matrix(1 0 0 -1 0 841)" d="M359.0679 97.15271L435.9911 97.15271L435.9911 96.61096L359.0679 96.61096z" stroke="none" fill="#DEDEDE" fill-rule="nonzero" /><path id="354" transform="matrix(1 0 0 -1 0 841)" d="M435.4493 97.15271L435.9911 97.15271L435.9911 83.60986L435.4493 83.60986z" stroke="none" fill="#DEDEDE" fill-rule="nonzero" /><path id="355" transform="matrix(1 0 0 -1 0 841)" d="M435.9911 97.15271L553.0009 97.15271L553.0009 96.61096L435.9911 96.61096z" stroke="none" fill="#DEDEDE" fill-rule="nonzero" /><path id="356" transform="matrix(1 0 0 -1 0 841)" d="M552.4592 97.15271L553.0009 97.15271L553.0009 83.60986L552.4592 83.60986z" stroke="none" fill="#DEDEDE" fill-rule="nonzero" /><path id="357" transform="matrix(1 0 0 -1 0 841)" d="M43.24971 83.60986L43.79142 83.60986L43.79142 71.69226L43.24971 71.69226z" stroke="none" fill="#DEDEDE" fill-rule="nonzero" /><path id="358" transform="matrix(1 0 0 -1 0 841)" d="M43.24971 84.15161L359.0679 84.15161L359.0679 83.60986L43.24971 83.60986z" stroke="none" fill="#DEDEDE" fill-rule="nonzero" /><path id="359" transform="matrix(1 0 0 -1 0 841)" d="M358.5262 83.60986L359.0679 83.60986L359.0679 71.69226L358.5262 71.69226z" stroke="none" fill="#DEDEDE" fill-rule="nonzero" /><path id="360" transform="matrix(1 0 0 -1 0 841)" d="M359.0679 84.15161L435.9911 84.15161L435.9911 83.60986L359.0679 83.60986z" stroke="none" fill="#DEDEDE" fill-rule="nonzero" /><path id="361" transform="matrix(1 0 0 -1 0 841)" d="M435.4493 83.60986L435.9911 83.60986L435.9911 71.69226L435.4493 71.69226z" stroke="none" fill="#DEDEDE" fill-rule="nonzero" /><path id="362" transform="matrix(1 0 0 -1 0 841)" d="M435.9911 84.15161L553.0009 84.15161L553.0009 83.60986L435.9911 83.60986z" stroke="none" fill="#DEDEDE" fill-rule="nonzero" /><path id="363" transform="matrix(1 0 0 -1 0 841)" d="M552.4592 83.60986L553.0009 83.60986L553.0009 71.69226L552.4592 71.69226z" stroke="none" fill="#DEDEDE" fill-rule="nonzero" /><path id="364" transform="matrix(1 0 0 -1 0 841)" d="M43.24971 71.69226L359.0679 71.69226L359.0679 71.15051L43.24971 71.15051z" stroke="none" fill="#DEDEDE" fill-rule="nonzero" /><path id="365" transform="matrix(1 0 0 -1 0 841)" d="M359.0679 71.69226L435.9911 71.69226L435.9911 71.15051L359.0679 71.15051z" stroke="none" fill="#DEDEDE" fill-rule="nonzero" /><path id="366" transform="matrix(1 0 0 -1 0 841)" d="M435.9911 71.69226L553.0009 71.69226L553.0009 71.15051L435.9911 71.15051z" stroke="none" fill="#DEDEDE" fill-rule="nonzero" /></g></g></g></g></svg>