<svg xmlns="http://www.w3.org/2000/svg" xmlns:xlink="http://www.w3.org/1999/xlink" id="body_268" preserveAspectRatio="xMinYMin meet" viewBox="0 0 793 1121"><defs><clipPath id="1"><path id="" clip-rule="evenodd" transform="matrix(1 0 0 1 0 0)" d="M0 841L0 -0.8900146L0 -0.8900146L595.276 -0.8900146L595.276 -0.8900146L595.276 841L595.276 841L0 841z" /></clipPath><clipPath id="2"><path id="" clip-rule="evenodd" transform="matrix(1 0 0 1 0 0)" d="M0.125 841.073L595.1547 841.073L595.1547 841.073L595.1547 -0.9690552L595.1547 -0.9690552L0.125 -0.9690552z" /></clipPath><clipPath id="3"><path id="" clip-rule="evenodd" transform="matrix(1 0 0 1 0 0)" d="M19.4363 27.69806L575.6259 27.69806L575.6259 27.69806L575.6259 825.5788L575.6259 825.5788L19.4363 825.5788z" /></clipPath><clipPath id="4"><path id="" clip-rule="evenodd" transform="matrix(1 0 0 1 0 0)" d="M25.07376 33.33551L569.0288 33.33551L569.0288 33.33551L569.0288 44.73035L569.0288 44.73035L25.07376 44.73035z" /></clipPath><clipPath id="5"><path id="" clip-rule="evenodd" transform="matrix(1 0 0 1 0 0)" d="M19.4363 49.5282L575.6259 49.5282L575.6259 49.5282L575.6259 75.43652L575.6259 75.43652L19.4363 75.43652z" /></clipPath><clipPath id="6"><path id="" clip-rule="evenodd" transform="matrix(1 0 0 1 0 0)" d="M25.07376 52.88672L569.0288 52.88672L569.0288 52.88672L569.0288 71.83813L569.0288 71.83813L25.07376 71.83813z" /></clipPath><clipPath id="7"><path id="" clip-rule="evenodd" transform="matrix(1 0 0 1 0 0)" d="M19.4363 75.43652L575.6259 75.43652L575.6259 75.43652L575.6259 803.7487L575.6259 803.7487L19.4363 803.7487z" /></clipPath><clipPath id="8"><path id="" clip-rule="evenodd" transform="matrix(1 0 0 1 0 0)" d="M19.4363 75.43652L575.6259 75.43652L575.6259 75.43652L575.6259 803.7487L575.6259 803.7487L19.4363 803.7487z" /></clipPath><clipPath id="9"><path id="" clip-rule="evenodd" transform="matrix(1 0 0 1 0 0)" d="M33.58993 246.4796L565.9102 246.4796L565.9102 246.4796L565.9102 260.6332L565.9102 260.6332L33.58993 260.6332z" /></clipPath><clipPath id="10"><path id="" clip-rule="evenodd" transform="matrix(1 0 0 1 0 0)" d="M19.4363 75.43652L575.6259 75.43652L575.6259 75.43652L575.6259 803.7487L575.6259 803.7487L19.4363 803.7487z" /></clipPath><clipPath id="11"><path id="" clip-rule="evenodd" transform="matrix(1 0 0 1 0 0)" d="M178.1248 266.2706L569.0288 266.2706L569.0288 266.2706L569.0288 278.9849L569.0288 278.9849L178.1248 278.9849z" /></clipPath><clipPath id="12"><path id="" clip-rule="evenodd" transform="matrix(1 0 0 1 0 0)" d="M19.4363 75.43652L575.6259 75.43652L575.6259 75.43652L575.6259 803.7487L575.6259 803.7487L19.4363 803.7487z" /></clipPath><clipPath id="13"><path id="" clip-rule="evenodd" transform="matrix(1 0 0 1 0 0)" d="M36.46864 266.2706L161.0925 266.2706L161.0925 266.2706L161.0925 278.5051L161.0925 278.5051L36.46864 278.5051z" /></clipPath><clipPath id="14"><path id="" clip-rule="evenodd" transform="matrix(1 0 0 1 0 0)" d="M19.4363 75.43652L575.6259 75.43652L575.6259 75.43652L575.6259 803.7487L575.6259 803.7487L19.4363 803.7487z" /></clipPath><clipPath id="15"><path id="" clip-rule="evenodd" transform="matrix(1 0 0 1 0 0)" d="M161.0925 266.2706L178.1248 266.2706L178.1248 266.2706L178.1248 278.5051L178.1248 278.5051L161.0925 278.5051z" /></clipPath><clipPath id="16"><path id="" clip-rule="evenodd" transform="matrix(1 0 0 1 0 0)" d="M19.4363 75.43652L575.6259 75.43652L575.6259 75.43652L575.6259 803.7487L575.6259 803.7487L19.4363 803.7487z" /></clipPath><clipPath id="17"><path id="" clip-rule="evenodd" transform="matrix(1 0 0 1 0 0)" d="M178.1248 281.2639L569.0288 281.2639L569.0288 281.2639L569.0288 294.0981L569.0288 294.0981L178.1248 294.0981z" /></clipPath><clipPath id="18"><path id="" clip-rule="evenodd" transform="matrix(1 0 0 1 0 0)" d="M19.4363 75.43652L575.6259 75.43652L575.6259 75.43652L575.6259 803.7487L575.6259 803.7487L19.4363 803.7487z" /></clipPath><clipPath id="19"><path id="" clip-rule="evenodd" transform="matrix(1 0 0 1 0 0)" d="M36.46864 281.2639L161.0925 281.2639L161.0925 281.2639L161.0925 293.4984L161.0925 293.4984L36.46864 293.4984z" /></clipPath><clipPath id="20"><path id="" clip-rule="evenodd" transform="matrix(1 0 0 1 0 0)" d="M19.4363 75.43652L575.6259 75.43652L575.6259 75.43652L575.6259 803.7487L575.6259 803.7487L19.4363 803.7487z" /></clipPath><clipPath id="21"><path id="" clip-rule="evenodd" transform="matrix(1 0 0 1 0 0)" d="M161.0925 281.2639L178.1248 281.2639L178.1248 281.2639L178.1248 293.4984L178.1248 293.4984L161.0925 293.4984z" /></clipPath><clipPath id="22"><path id="" clip-rule="evenodd" transform="matrix(1 0 0 1 0 0)" d="M19.4363 75.43652L575.6259 75.43652L575.6259 75.43652L575.6259 803.7487L575.6259 803.7487L19.4363 803.7487z" /></clipPath><clipPath id="23"><path id="" clip-rule="evenodd" transform="matrix(1 0 0 1 0 0)" d="M178.1248 296.3771L569.0288 296.3771L569.0288 296.3771L569.0288 309.0913L569.0288 309.0913L178.1248 309.0913z" /></clipPath><clipPath id="24"><path id="" clip-rule="evenodd" transform="matrix(1 0 0 1 0 0)" d="M19.4363 75.43652L575.6259 75.43652L575.6259 75.43652L575.6259 803.7487L575.6259 803.7487L19.4363 803.7487z" /></clipPath><clipPath id="25"><path id="" clip-rule="evenodd" transform="matrix(1 0 0 1 0 0)" d="M36.46864 296.3771L161.0925 296.3771L161.0925 296.3771L161.0925 308.4916L161.0925 308.4916L36.46864 308.4916z" /></clipPath><clipPath id="26"><path id="" clip-rule="evenodd" transform="matrix(1 0 0 1 0 0)" d="M19.4363 75.43652L575.6259 75.43652L575.6259 75.43652L575.6259 803.7487L575.6259 803.7487L19.4363 803.7487z" /></clipPath><clipPath id="27"><path id="" clip-rule="evenodd" transform="matrix(1 0 0 1 0 0)" d="M161.0925 296.3771L178.1248 296.3771L178.1248 296.3771L178.1248 308.4916L178.1248 308.4916L161.0925 308.4916z" /></clipPath><clipPath id="28"><path id="" clip-rule="evenodd" transform="matrix(1 0 0 1 0 0)" d="M19.4363 75.43652L575.6259 75.43652L575.6259 75.43652L575.6259 803.7487L575.6259 803.7487L19.4363 803.7487z" /></clipPath><clipPath id="29"><path id="" clip-rule="evenodd" transform="matrix(1 0 0 1 0 0)" d="M178.1248 311.3704L569.0288 311.3704L569.0288 311.3704L569.0288 324.0846L569.0288 324.0846L178.1248 324.0846z" /></clipPath><clipPath id="30"><path id="" clip-rule="evenodd" transform="matrix(1 0 0 1 0 0)" d="M19.4363 75.43652L575.6259 75.43652L575.6259 75.43652L575.6259 803.7487L575.6259 803.7487L19.4363 803.7487z" /></clipPath><clipPath id="31"><path id="" clip-rule="evenodd" transform="matrix(1 0 0 1 0 0)" d="M36.46864 311.3704L161.0925 311.3704L161.0925 311.3704L161.0925 323.4849L161.0925 323.4849L36.46864 323.4849z" /></clipPath><clipPath id="32"><path id="" clip-rule="evenodd" transform="matrix(1 0 0 1 0 0)" d="M19.4363 75.43652L575.6259 75.43652L575.6259 75.43652L575.6259 803.7487L575.6259 803.7487L19.4363 803.7487z" /></clipPath><clipPath id="33"><path id="" clip-rule="evenodd" transform="matrix(1 0 0 1 0 0)" d="M161.0925 311.3704L178.1248 311.3704L178.1248 311.3704L178.1248 323.4849L178.1248 323.4849L161.0925 323.4849z" /></clipPath><clipPath id="34"><path id="" clip-rule="evenodd" transform="matrix(1 0 0 1 0 0)" d="M19.4363 75.43652L575.6259 75.43652L575.6259 75.43652L575.6259 803.7487L575.6259 803.7487L19.4363 803.7487z" /></clipPath><clipPath id="35"><path id="" clip-rule="evenodd" transform="matrix(1 0 0 1 0 0)" d="M36.46864 326.3635L161.0925 326.3635L161.0925 326.3635L161.0925 338.4781L161.0925 338.4781L36.46864 338.4781z" /></clipPath><clipPath id="36"><path id="" clip-rule="evenodd" transform="matrix(1 0 0 1 0 0)" d="M19.4363 75.43652L575.6259 75.43652L575.6259 75.43652L575.6259 803.7487L575.6259 803.7487L19.4363 803.7487z" /></clipPath><clipPath id="37"><path id="" clip-rule="evenodd" transform="matrix(1 0 0 1 0 0)" d="M161.0925 326.3635L178.1248 326.3635L178.1248 326.3635L178.1248 338.4781L178.1248 338.4781L161.0925 338.4781z" /></clipPath><clipPath id="38"><path id="" clip-rule="evenodd" transform="matrix(1 0 0 1 0 0)" d="M19.4363 75.43652L575.6259 75.43652L575.6259 75.43652L575.6259 803.7487L575.6259 803.7487L19.4363 803.7487z" /></clipPath><clipPath id="39"><path id="" clip-rule="evenodd" transform="matrix(1 0 0 1 0 0)" d="M178.1248 326.3635L569.0288 326.3635L569.0288 326.3635L569.0288 339.0779L569.0288 339.0779L178.1248 339.0779z" /></clipPath><clipPath id="40"><path id="" clip-rule="evenodd" transform="matrix(1 0 0 1 0 0)" d="M19.4363 75.43652L575.6259 75.43652L575.6259 75.43652L575.6259 803.7487L575.6259 803.7487L19.4363 803.7487z" /></clipPath><clipPath id="41"><path id="" clip-rule="evenodd" transform="matrix(1 0 0 1 0 0)" d="M36.46864 341.3568L161.0925 341.3568L161.0925 341.3568L161.0925 353.5913L161.0925 353.5913L36.46864 353.5913z" /></clipPath><clipPath id="42"><path id="" clip-rule="evenodd" transform="matrix(1 0 0 1 0 0)" d="M19.4363 75.43652L575.6259 75.43652L575.6259 75.43652L575.6259 803.7487L575.6259 803.7487L19.4363 803.7487z" /></clipPath><clipPath id="43"><path id="" clip-rule="evenodd" transform="matrix(1 0 0 1 0 0)" d="M161.0925 341.3568L178.1248 341.3568L178.1248 341.3568L178.1248 353.5913L178.1248 353.5913L161.0925 353.5913z" /></clipPath><clipPath id="44"><path id="" clip-rule="evenodd" transform="matrix(1 0 0 1 0 0)" d="M19.4363 75.43652L575.6259 75.43652L575.6259 75.43652L575.6259 803.7487L575.6259 803.7487L19.4363 803.7487z" /></clipPath><clipPath id="45"><path id="" clip-rule="evenodd" transform="matrix(1 0 0 1 0 0)" d="M178.1248 341.3568L569.0288 341.3568L569.0288 341.3568L569.0288 354.0711L569.0288 354.0711L178.1248 354.0711z" /></clipPath><clipPath id="46"><path id="" clip-rule="evenodd" transform="matrix(1 0 0 1 0 0)" d="M19.4363 75.43652L575.6259 75.43652L575.6259 75.43652L575.6259 803.7487L575.6259 803.7487L19.4363 803.7487z" /></clipPath><clipPath id="47"><path id="" clip-rule="evenodd" transform="matrix(1 0 0 1 0 0)" d="M30.71123 75.67645L161.0925 75.67645L161.0925 75.67645L161.0925 87.79102L161.0925 87.79102L30.71123 87.79102z" /></clipPath><clipPath id="48"><path id="" clip-rule="evenodd" transform="matrix(1 0 0 1 0 0)" d="M19.4363 75.43652L575.6259 75.43652L575.6259 75.43652L575.6259 803.7487L575.6259 803.7487L19.4363 803.7487z" /></clipPath><clipPath id="49"><path id="" clip-rule="evenodd" transform="matrix(1 0 0 1 0 0)" d="M178.1248 75.67645L569.0288 75.67645L569.0288 75.67645L569.0288 87.79102L569.0288 87.79102L178.1248 87.79102z" /></clipPath><clipPath id="50"><path id="" clip-rule="evenodd" transform="matrix(1 0 0 1 0 0)" d="M19.4363 75.43652L575.6259 75.43652L575.6259 75.43652L575.6259 803.7487L575.6259 803.7487L19.4363 803.7487z" /></clipPath><clipPath id="51"><path id="" clip-rule="evenodd" transform="matrix(1 0 0 1 0 0)" d="M161.0925 75.67645L178.6046 75.67645L178.6046 75.67645L178.6046 87.79102L178.6046 87.79102L161.0925 87.79102z" /></clipPath><clipPath id="52"><path id="" clip-rule="evenodd" transform="matrix(1 0 0 1 0 0)" d="M19.4363 75.43652L575.6259 75.43652L575.6259 75.43652L575.6259 803.7487L575.6259 803.7487L19.4363 803.7487z" /></clipPath><clipPath id="53"><path id="" clip-rule="evenodd" transform="matrix(1 0 0 1 0 0)" d="M30.71123 231.9661L569.0288 231.9661L569.0288 231.9661L569.0288 244.2006L569.0288 244.2006L30.71123 244.2006z" /></clipPath><clipPath id="54"><path id="" clip-rule="evenodd" transform="matrix(1 0 0 1 0 0)" d="M19.4363 75.43652L575.6259 75.43652L575.6259 75.43652L575.6259 803.7487L575.6259 803.7487L19.4363 803.7487z" /></clipPath><clipPath id="55"><path id="" clip-rule="evenodd" transform="matrix(1 0 0 1 0 0)" d="M25.07376 447.629L161.0925 447.629L161.0925 447.629L161.0925 459.7435L161.0925 459.7435L25.07376 459.7435z" /></clipPath><clipPath id="56"><path id="" clip-rule="evenodd" transform="matrix(1 0 0 1 0 0)" d="M19.4363 75.43652L575.6259 75.43652L575.6259 75.43652L575.6259 803.7487L575.6259 803.7487L19.4363 803.7487z" /></clipPath><clipPath id="57"><path id="" clip-rule="evenodd" transform="matrix(1 0 0 1 0 0)" d="M161.0925 447.629L178.1248 447.629L178.1248 447.629L178.1248 459.7435L178.1248 459.7435L161.0925 459.7435z" /></clipPath><clipPath id="58"><path id="" clip-rule="evenodd" transform="matrix(1 0 0 1 0 0)" d="M19.4363 75.43652L575.6259 75.43652L575.6259 75.43652L575.6259 803.7487L575.6259 803.7487L19.4363 803.7487z" /></clipPath><clipPath id="59"><path id="" clip-rule="evenodd" transform="matrix(1 0 0 1 0 0)" d="M178.1248 447.629L569.0288 447.629L569.0288 447.629L569.0288 460.3432L569.0288 460.3432L178.1248 460.3432z" /></clipPath><clipPath id="60"><path id="" clip-rule="evenodd" transform="matrix(1 0 0 1 0 0)" d="M19.4363 75.43652L575.6259 75.43652L575.6259 75.43652L575.6259 803.7487L575.6259 803.7487L19.4363 803.7487z" /></clipPath><clipPath id="61"><path id="" clip-rule="evenodd" transform="matrix(1 0 0 1 0 0)" d="M25.07376 104.8233L569.0288 104.8233L569.0288 104.8233L569.0288 116.9379L569.0288 116.9379L25.07376 116.9379z" /></clipPath><clipPath id="62"><path id="" clip-rule="evenodd" transform="matrix(1 0 0 1 0 0)" d="M19.4363 75.43652L575.6259 75.43652L575.6259 75.43652L575.6259 803.7487L575.6259 803.7487L19.4363 803.7487z" /></clipPath><clipPath id="63"><path id="" clip-rule="evenodd" transform="matrix(1 0 0 1 0 0)" d="M25.07376 370.5037L569.0288 370.5037L569.0288 370.5037L569.0288 382.7382L569.0288 382.7382L25.07376 382.7382z" /></clipPath><clipPath id="64"><path id="" clip-rule="evenodd" transform="matrix(1 0 0 1 0 0)" d="M19.4363 75.43652L575.6259 75.43652L575.6259 75.43652L575.6259 803.7487L575.6259 803.7487L19.4363 803.7487z" /></clipPath><clipPath id="65"><path id="" clip-rule="evenodd" transform="matrix(1 0 0 1 0 0)" d="M33.58993 399.4107L566.1501 399.4107L566.1501 399.4107L566.1501 413.5643L566.1501 413.5643L33.58993 413.5643z" /></clipPath><clipPath id="66"><path id="" clip-rule="evenodd" transform="matrix(1 0 0 1 0 0)" d="M19.4363 75.43652L575.6259 75.43652L575.6259 75.43652L575.6259 803.7487L575.6259 803.7487L19.4363 803.7487z" /></clipPath><clipPath id="67"><path id="" clip-rule="evenodd" transform="matrix(1 0 0 1 0 0)" d="M30.71123 385.0172L569.0288 385.0172L569.0288 385.0172L569.0288 397.1317L569.0288 397.1317L30.71123 397.1317z" /></clipPath><clipPath id="68"><path id="" clip-rule="evenodd" transform="matrix(1 0 0 1 0 0)" d="M19.4363 75.43652L575.6259 75.43652L575.6259 75.43652L575.6259 803.7487L575.6259 803.7487L19.4363 803.7487z" /></clipPath><clipPath id="69"><path id="" clip-rule="evenodd" transform="matrix(1 0 0 1 0 0)" d="M36.46864 133.7303L161.0925 133.7303L161.0925 133.7303L161.0925 157.8395L161.0925 157.8395L36.46864 157.8395z" /></clipPath><clipPath id="70"><path id="" clip-rule="evenodd" transform="matrix(1 0 0 1 0 0)" d="M19.4363 75.43652L575.6259 75.43652L575.6259 75.43652L575.6259 803.7487L575.6259 803.7487L19.4363 803.7487z" /></clipPath><clipPath id="71"><path id="" clip-rule="evenodd" transform="matrix(1 0 0 1 0 0)" d="M161.0925 133.7303L178.1248 133.7303L178.1248 133.7303L178.1248 157.8395L178.1248 157.8395L161.0925 157.8395z" /></clipPath><clipPath id="72"><path id="" clip-rule="evenodd" transform="matrix(1 0 0 1 0 0)" d="M19.4363 75.43652L575.6259 75.43652L575.6259 75.43652L575.6259 803.7487L575.6259 803.7487L19.4363 803.7487z" /></clipPath><clipPath id="73"><path id="" clip-rule="evenodd" transform="matrix(1 0 0 1 0 0)" d="M178.1248 133.7303L569.0288 133.7303L569.0288 133.7303L569.0288 158.3192L569.0288 158.3192L178.1248 158.3192z" /></clipPath><clipPath id="74"><path id="" clip-rule="evenodd" transform="matrix(1 0 0 1 0 0)" d="M19.4363 75.43652L575.6259 75.43652L575.6259 75.43652L575.6259 803.7487L575.6259 803.7487L19.4363 803.7487z" /></clipPath><clipPath id="75"><path id="" clip-rule="evenodd" transform="matrix(1 0 0 1 0 0)" d="M30.71123 119.2169L569.0288 119.2169L569.0288 119.2169L569.0288 131.4513L569.0288 131.4513L30.71123 131.4513z" /></clipPath><clipPath id="76"><path id="" clip-rule="evenodd" transform="matrix(1 0 0 1 0 0)" d="M19.4363 75.43652L575.6259 75.43652L575.6259 75.43652L575.6259 803.7487L575.6259 803.7487L19.4363 803.7487z" /></clipPath><clipPath id="77"><path id="" clip-rule="evenodd" transform="matrix(1 0 0 1 0 0)" d="M36.46864 160.5982L161.0925 160.5982L161.0925 160.5982L161.0925 172.8327L161.0925 172.8327L36.46864 172.8327z" /></clipPath><clipPath id="78"><path id="" clip-rule="evenodd" transform="matrix(1 0 0 1 0 0)" d="M19.4363 75.43652L575.6259 75.43652L575.6259 75.43652L575.6259 803.7487L575.6259 803.7487L19.4363 803.7487z" /></clipPath><clipPath id="79"><path id="" clip-rule="evenodd" transform="matrix(1 0 0 1 0 0)" d="M161.0925 160.5982L178.1248 160.5982L178.1248 160.5982L178.1248 172.8327L178.1248 172.8327L161.0925 172.8327z" /></clipPath><clipPath id="80"><path id="" clip-rule="evenodd" transform="matrix(1 0 0 1 0 0)" d="M19.4363 75.43652L575.6259 75.43652L575.6259 75.43652L575.6259 803.7487L575.6259 803.7487L19.4363 803.7487z" /></clipPath><clipPath id="81"><path id="" clip-rule="evenodd" transform="matrix(1 0 0 1 0 0)" d="M178.1248 160.5982L569.0288 160.5982L569.0288 160.5982L569.0288 173.3125L569.0288 173.3125L178.1248 173.3125z" /></clipPath><clipPath id="82"><path id="" clip-rule="evenodd" transform="matrix(1 0 0 1 0 0)" d="M19.4363 75.43652L575.6259 75.43652L575.6259 75.43652L575.6259 803.7487L575.6259 803.7487L19.4363 803.7487z" /></clipPath><clipPath id="83"><path id="" clip-rule="evenodd" transform="matrix(1 0 0 1 0 0)" d="M36.46864 190.1049L161.0925 190.1049L161.0925 190.1049L161.0925 214.2141L161.0925 214.2141L36.46864 214.2141z" /></clipPath><clipPath id="84"><path id="" clip-rule="evenodd" transform="matrix(1 0 0 1 0 0)" d="M19.4363 75.43652L575.6259 75.43652L575.6259 75.43652L575.6259 803.7487L575.6259 803.7487L19.4363 803.7487z" /></clipPath><clipPath id="85"><path id="" clip-rule="evenodd" transform="matrix(1 0 0 1 0 0)" d="M161.0925 190.1049L178.1248 190.1049L178.1248 190.1049L178.1248 214.2141L178.1248 214.2141L161.0925 214.2141z" /></clipPath><clipPath id="86"><path id="" clip-rule="evenodd" transform="matrix(1 0 0 1 0 0)" d="M19.4363 75.43652L575.6259 75.43652L575.6259 75.43652L575.6259 803.7487L575.6259 803.7487L19.4363 803.7487z" /></clipPath><clipPath id="87"><path id="" clip-rule="evenodd" transform="matrix(1 0 0 1 0 0)" d="M178.1248 190.1049L569.0288 190.1049L569.0288 190.1049L569.0288 214.6938L569.0288 214.6938L178.1248 214.6938z" /></clipPath><clipPath id="88"><path id="" clip-rule="evenodd" transform="matrix(1 0 0 1 0 0)" d="M19.4363 75.43652L575.6259 75.43652L575.6259 75.43652L575.6259 803.7487L575.6259 803.7487L19.4363 803.7487z" /></clipPath><clipPath id="89"><path id="" clip-rule="evenodd" transform="matrix(1 0 0 1 0 0)" d="M30.71123 175.5914L569.0288 175.5914L569.0288 175.5914L569.0288 187.8259L569.0288 187.8259L30.71123 187.8259z" /></clipPath><clipPath id="90"><path id="" clip-rule="evenodd" transform="matrix(1 0 0 1 0 0)" d="M19.4363 75.43652L575.6259 75.43652L575.6259 75.43652L575.6259 803.7487L575.6259 803.7487L19.4363 803.7487z" /></clipPath><clipPath id="91"><path id="" clip-rule="evenodd" transform="matrix(1 0 0 1 0 0)" d="M36.46864 216.9728L161.0925 216.9728L161.0925 216.9728L161.0925 229.2073L161.0925 229.2073L36.46864 229.2073z" /></clipPath><clipPath id="92"><path id="" clip-rule="evenodd" transform="matrix(1 0 0 1 0 0)" d="M19.4363 75.43652L575.6259 75.43652L575.6259 75.43652L575.6259 803.7487L575.6259 803.7487L19.4363 803.7487z" /></clipPath><clipPath id="93"><path id="" clip-rule="evenodd" transform="matrix(1 0 0 1 0 0)" d="M161.0925 216.9728L178.1248 216.9728L178.1248 216.9728L178.1248 229.2073L178.1248 229.2073L161.0925 229.2073z" /></clipPath><clipPath id="94"><path id="" clip-rule="evenodd" transform="matrix(1 0 0 1 0 0)" d="M19.4363 75.43652L575.6259 75.43652L575.6259 75.43652L575.6259 803.7487L575.6259 803.7487L19.4363 803.7487z" /></clipPath><clipPath id="95"><path id="" clip-rule="evenodd" transform="matrix(1 0 0 1 0 0)" d="M178.1248 216.9728L569.0288 216.9728L569.0288 216.9728L569.0288 229.6871L569.0288 229.6871L178.1248 229.6871z" /></clipPath><clipPath id="96"><path id="" clip-rule="evenodd" transform="matrix(1 0 0 1 0 0)" d="M19.4363 75.43652L575.6259 75.43652L575.6259 75.43652L575.6259 803.7487L575.6259 803.7487L19.4363 803.7487z" /></clipPath><clipPath id="97"><path id="" clip-rule="evenodd" transform="matrix(1 0 0 1 0 0)" d="M19.4363 75.43652L575.6259 75.43652L575.6259 75.43652L575.6259 803.7487L575.6259 803.7487L19.4363 803.7487z" /></clipPath><clipPath id="98"><path id="" clip-rule="evenodd" transform="matrix(1 0 0 1 0 0)" d="M25.07376 466.3405L569.0288 466.3405L569.0288 466.3405L569.0288 485.292L569.0288 485.292L25.07376 485.292z" /></clipPath><clipPath id="99"><path id="" clip-rule="evenodd" transform="matrix(1 0 0 1 0 0)" d="M19.4363 75.43652L575.6259 75.43652L575.6259 75.43652L575.6259 803.7487L575.6259 803.7487L19.4363 803.7487z" /></clipPath><clipPath id="100"><path id="" clip-rule="evenodd" transform="matrix(1 0 0 1 0 0)" d="M25.07376 646.0197L569.0288 646.0197L569.0288 646.0197L569.0288 658.1342L569.0288 658.1342L25.07376 658.1342z" /></clipPath><clipPath id="101"><path id="" clip-rule="evenodd" transform="matrix(1 0 0 1 0 0)" d="M19.4363 75.43652L575.6259 75.43652L575.6259 75.43652L575.6259 803.7487L575.6259 803.7487L19.4363 803.7487z" /></clipPath><clipPath id="102"><path id="" clip-rule="evenodd" transform="matrix(1 0 0 1 0 0)" d="M25.07376 750.8524L161.0925 750.8524L161.0925 750.8524L161.0925 762.7271L161.0925 762.7271L25.07376 762.7271z" /></clipPath><clipPath id="103"><path id="" clip-rule="evenodd" transform="matrix(1 0 0 1 0 0)" d="M19.4363 75.43652L575.6259 75.43652L575.6259 75.43652L575.6259 803.7487L575.6259 803.7487L19.4363 803.7487z" /></clipPath><clipPath id="104"><path id="" clip-rule="evenodd" transform="matrix(1 0 0 1 0 0)" d="M161.0925 750.8524L178.1248 750.8524L178.1248 750.8524L178.1248 762.7271L178.1248 762.7271L161.0925 762.7271z" /></clipPath><clipPath id="105"><path id="" clip-rule="evenodd" transform="matrix(1 0 0 1 0 0)" d="M19.4363 75.43652L575.6259 75.43652L575.6259 75.43652L575.6259 803.7487L575.6259 803.7487L19.4363 803.7487z" /></clipPath><clipPath id="106"><path id="" clip-rule="evenodd" transform="matrix(1 0 0 1 0 0)" d="M178.1248 750.8524L569.0288 750.8524L569.0288 750.8524L569.0288 762.7271L569.0288 762.7271L178.1248 762.7271z" /></clipPath><clipPath id="107"><path id="" clip-rule="evenodd" transform="matrix(1 0 0 1 0 0)" d="M19.4363 75.43652L575.6259 75.43652L575.6259 75.43652L575.6259 803.7487L575.6259 803.7487L19.4363 803.7487z" /></clipPath><clipPath id="108"><path id="" clip-rule="evenodd" transform="matrix(1 0 0 1 0 0)" d="M27.95247 661.0129L566.1501 661.0129L566.1501 661.0129L566.1501 675.1665L566.1501 675.1665L27.95247 675.1665z" /></clipPath><clipPath id="109"><path id="" clip-rule="evenodd" transform="matrix(1 0 0 1 0 0)" d="M19.4363 75.43652L575.6259 75.43652L575.6259 75.43652L575.6259 803.7487L575.6259 803.7487L19.4363 803.7487z" /></clipPath><clipPath id="110"><path id="" clip-rule="evenodd" transform="matrix(1 0 0 1 0 0)" d="M25.07376 491.0494L569.0288 491.0494L569.0288 491.0494L569.0288 503.164L569.0288 503.164L25.07376 503.164z" /></clipPath><clipPath id="111"><path id="" clip-rule="evenodd" transform="matrix(1 0 0 1 0 0)" d="M19.4363 75.43652L575.6259 75.43652L575.6259 75.43652L575.6259 803.7487L575.6259 803.7487L19.4363 803.7487z" /></clipPath><clipPath id="112"><path id="" clip-rule="evenodd" transform="matrix(1 0 0 1 0 0)" d="M27.95247 525.3539L162.5319 525.3539L162.5319 525.3539L162.5319 536.6289L162.5319 536.6289L27.95247 536.6289z" /></clipPath><clipPath id="113"><path id="" clip-rule="evenodd" transform="matrix(1 0 0 1 0 0)" d="M19.4363 75.43652L575.6259 75.43652L575.6259 75.43652L575.6259 803.7487L575.6259 803.7487L19.4363 803.7487z" /></clipPath><clipPath id="114"><path id="" clip-rule="evenodd" transform="matrix(1 0 0 1 0 0)" d="M167.9294 525.3539L350.8471 525.3539L350.8471 525.3539L350.8471 536.6289L350.8471 536.6289L167.9294 536.6289z" /></clipPath><clipPath id="115"><path id="" clip-rule="evenodd" transform="matrix(1 0 0 1 0 0)" d="M19.4363 75.43652L575.6259 75.43652L575.6259 75.43652L575.6259 803.7487L575.6259 803.7487L19.4363 803.7487z" /></clipPath><clipPath id="116"><path id="" clip-rule="evenodd" transform="matrix(1 0 0 1 0 0)" d="M356.2446 525.3539L507.0168 525.3539L507.0168 525.3539L507.0168 536.6289L507.0168 536.6289L356.2446 536.6289z" /></clipPath><clipPath id="117"><path id="" clip-rule="evenodd" transform="matrix(1 0 0 1 0 0)" d="M19.4363 75.43652L575.6259 75.43652L575.6259 75.43652L575.6259 803.7487L575.6259 803.7487L19.4363 803.7487z" /></clipPath><clipPath id="118"><path id="" clip-rule="evenodd" transform="matrix(1 0 0 1 0 0)" d="M512.2944 525.3539L566.1501 525.3539L566.1501 525.3539L566.1501 536.6289L566.1501 536.6289L512.2944 536.6289z" /></clipPath><clipPath id="119"><path id="" clip-rule="evenodd" transform="matrix(1 0 0 1 0 0)" d="M19.4363 75.43652L575.6259 75.43652L575.6259 75.43652L575.6259 803.7487L575.6259 803.7487L19.4363 803.7487z" /></clipPath><clipPath id="120"><path id="" clip-rule="evenodd" transform="matrix(1 0 0 1 0 0)" d="M19.4363 75.43652L575.6259 75.43652L575.6259 75.43652L575.6259 803.7487L575.6259 803.7487L19.4363 803.7487z" /></clipPath><clipPath id="121"><path id="" clip-rule="evenodd" transform="matrix(1 0 0 1 0 0)" d="M19.4363 75.43652L575.6259 75.43652L575.6259 75.43652L575.6259 803.7487L575.6259 803.7487L19.4363 803.7487z" /></clipPath><clipPath id="122"><path id="" clip-rule="evenodd" transform="matrix(1 0 0 1 0 0)" d="M167.9294 536.6289L350.8471 536.6289L350.8471 536.6289L350.8471 547.9038L350.8471 547.9038L167.9294 547.9038z" /></clipPath><clipPath id="123"><path id="" clip-rule="evenodd" transform="matrix(1 0 0 1 0 0)" d="M19.4363 75.43652L575.6259 75.43652L575.6259 75.43652L575.6259 803.7487L575.6259 803.7487L19.4363 803.7487z" /></clipPath><clipPath id="124"><path id="" clip-rule="evenodd" transform="matrix(1 0 0 1 0 0)" d="M356.2446 536.6289L507.0168 536.6289L507.0168 536.6289L507.0168 547.9038L507.0168 547.9038L356.2446 547.9038z" /></clipPath><clipPath id="125"><path id="" clip-rule="evenodd" transform="matrix(1 0 0 1 0 0)" d="M19.4363 75.43652L575.6259 75.43652L575.6259 75.43652L575.6259 803.7487L575.6259 803.7487L19.4363 803.7487z" /></clipPath><clipPath id="126"><path id="" clip-rule="evenodd" transform="matrix(1 0 0 1 0 0)" d="M512.2944 536.6289L566.1501 536.6289L566.1501 536.6289L566.1501 547.9038L566.1501 547.9038L512.2944 547.9038z" /></clipPath><clipPath id="127"><path id="" clip-rule="evenodd" transform="matrix(1 0 0 1 0 0)" d="M19.4363 75.43652L575.6259 75.43652L575.6259 75.43652L575.6259 803.7487L575.6259 803.7487L19.4363 803.7487z" /></clipPath><clipPath id="128"><path id="" clip-rule="evenodd" transform="matrix(1 0 0 1 0 0)" d="M19.4363 75.43652L575.6259 75.43652L575.6259 75.43652L575.6259 803.7487L575.6259 803.7487L19.4363 803.7487z" /></clipPath><clipPath id="129"><path id="" clip-rule="evenodd" transform="matrix(1 0 0 1 0 0)" d="M19.4363 75.43652L575.6259 75.43652L575.6259 75.43652L575.6259 803.7487L575.6259 803.7487L19.4363 803.7487z" /></clipPath><clipPath id="130"><path id="" clip-rule="evenodd" transform="matrix(1 0 0 1 0 0)" d="M167.9294 547.9038L350.8471 547.9038L350.8471 547.9038L350.8471 559.5386L350.8471 559.5386L167.9294 559.5386z" /></clipPath><clipPath id="131"><path id="" clip-rule="evenodd" transform="matrix(1 0 0 1 0 0)" d="M19.4363 75.43652L575.6259 75.43652L575.6259 75.43652L575.6259 803.7487L575.6259 803.7487L19.4363 803.7487z" /></clipPath><clipPath id="132"><path id="" clip-rule="evenodd" transform="matrix(1 0 0 1 0 0)" d="M356.2446 547.9038L507.0168 547.9038L507.0168 547.9038L507.0168 559.5386L507.0168 559.5386L356.2446 559.5386z" /></clipPath><clipPath id="133"><path id="" clip-rule="evenodd" transform="matrix(1 0 0 1 0 0)" d="M19.4363 75.43652L575.6259 75.43652L575.6259 75.43652L575.6259 803.7487L575.6259 803.7487L19.4363 803.7487z" /></clipPath><clipPath id="134"><path id="" clip-rule="evenodd" transform="matrix(1 0 0 1 0 0)" d="M512.2944 547.9038L566.1501 547.9038L566.1501 547.9038L566.1501 559.5386L566.1501 559.5386L512.2944 559.5386z" /></clipPath><clipPath id="135"><path id="" clip-rule="evenodd" transform="matrix(1 0 0 1 0 0)" d="M19.4363 75.43652L575.6259 75.43652L575.6259 75.43652L575.6259 803.7487L575.6259 803.7487L19.4363 803.7487z" /></clipPath><clipPath id="136"><path id="" clip-rule="evenodd" transform="matrix(1 0 0 1 0 0)" d="M19.4363 75.43652L575.6259 75.43652L575.6259 75.43652L575.6259 803.7487L575.6259 803.7487L19.4363 803.7487z" /></clipPath><clipPath id="137"><path id="" clip-rule="evenodd" transform="matrix(1 0 0 1 0 0)" d="M19.4363 75.43652L575.6259 75.43652L575.6259 75.43652L575.6259 803.7487L575.6259 803.7487L19.4363 803.7487z" /></clipPath><clipPath id="138"><path id="" clip-rule="evenodd" transform="matrix(1 0 0 1 0 0)" d="M167.9294 559.5386L350.8471 559.5386L350.8471 559.5386L350.8471 571.1733L350.8471 571.1733L167.9294 571.1733z" /></clipPath><clipPath id="139"><path id="" clip-rule="evenodd" transform="matrix(1 0 0 1 0 0)" d="M19.4363 75.43652L575.6259 75.43652L575.6259 75.43652L575.6259 803.7487L575.6259 803.7487L19.4363 803.7487z" /></clipPath><clipPath id="140"><path id="" clip-rule="evenodd" transform="matrix(1 0 0 1 0 0)" d="M356.2446 559.5386L507.0168 559.5386L507.0168 559.5386L507.0168 571.1733L507.0168 571.1733L356.2446 571.1733z" /></clipPath><clipPath id="141"><path id="" clip-rule="evenodd" transform="matrix(1 0 0 1 0 0)" d="M19.4363 75.43652L575.6259 75.43652L575.6259 75.43652L575.6259 803.7487L575.6259 803.7487L19.4363 803.7487z" /></clipPath><clipPath id="142"><path id="" clip-rule="evenodd" transform="matrix(1 0 0 1 0 0)" d="M512.2944 559.5386L566.1501 559.5386L566.1501 559.5386L566.1501 571.1733L566.1501 571.1733L512.2944 571.1733z" /></clipPath><clipPath id="143"><path id="" clip-rule="evenodd" transform="matrix(1 0 0 1 0 0)" d="M19.4363 75.43652L575.6259 75.43652L575.6259 75.43652L575.6259 803.7487L575.6259 803.7487L19.4363 803.7487z" /></clipPath><clipPath id="144"><path id="" clip-rule="evenodd" transform="matrix(1 0 0 1 0 0)" d="M19.4363 75.43652L575.6259 75.43652L575.6259 75.43652L575.6259 803.7487L575.6259 803.7487L19.4363 803.7487z" /></clipPath><clipPath id="145"><path id="" clip-rule="evenodd" transform="matrix(1 0 0 1 0 0)" d="M19.4363 75.43652L575.6259 75.43652L575.6259 75.43652L575.6259 803.7487L575.6259 803.7487L19.4363 803.7487z" /></clipPath><clipPath id="146"><path id="" clip-rule="evenodd" transform="matrix(1 0 0 1 0 0)" d="M167.9294 571.1733L350.8471 571.1733L350.8471 571.1733L350.8471 582.8081L350.8471 582.8081L167.9294 582.8081z" /></clipPath><clipPath id="147"><path id="" clip-rule="evenodd" transform="matrix(1 0 0 1 0 0)" d="M19.4363 75.43652L575.6259 75.43652L575.6259 75.43652L575.6259 803.7487L575.6259 803.7487L19.4363 803.7487z" /></clipPath><clipPath id="148"><path id="" clip-rule="evenodd" transform="matrix(1 0 0 1 0 0)" d="M356.2446 571.1733L507.0168 571.1733L507.0168 571.1733L507.0168 582.8081L507.0168 582.8081L356.2446 582.8081z" /></clipPath><clipPath id="149"><path id="" clip-rule="evenodd" transform="matrix(1 0 0 1 0 0)" d="M19.4363 75.43652L575.6259 75.43652L575.6259 75.43652L575.6259 803.7487L575.6259 803.7487L19.4363 803.7487z" /></clipPath><clipPath id="150"><path id="" clip-rule="evenodd" transform="matrix(1 0 0 1 0 0)" d="M512.2944 571.1733L566.1501 571.1733L566.1501 571.1733L566.1501 582.8081L566.1501 582.8081L512.2944 582.8081z" /></clipPath><clipPath id="151"><path id="" clip-rule="evenodd" transform="matrix(1 0 0 1 0 0)" d="M19.4363 75.43652L575.6259 75.43652L575.6259 75.43652L575.6259 803.7487L575.6259 803.7487L19.4363 803.7487z" /></clipPath><clipPath id="152"><path id="" clip-rule="evenodd" transform="matrix(1 0 0 1 0 0)" d="M27.95247 508.9214L163.8513 508.9214L163.8513 508.9214L163.8513 521.0359L163.8513 521.0359L27.95247 521.0359z" /></clipPath><clipPath id="153"><path id="" clip-rule="evenodd" transform="matrix(1 0 0 1 0 0)" d="M19.4363 75.43652L575.6259 75.43652L575.6259 75.43652L575.6259 803.7487L575.6259 803.7487L19.4363 803.7487z" /></clipPath><clipPath id="154"><path id="" clip-rule="evenodd" transform="matrix(1 0 0 1 0 0)" d="M356.4845 508.9214L506.6569 508.9214L506.6569 508.9214L506.6569 521.0359L506.6569 521.0359L356.4845 521.0359z" /></clipPath><clipPath id="155"><path id="" clip-rule="evenodd" transform="matrix(1 0 0 1 0 0)" d="M19.4363 75.43652L575.6259 75.43652L575.6259 75.43652L575.6259 803.7487L575.6259 803.7487L19.4363 803.7487z" /></clipPath><clipPath id="156"><path id="" clip-rule="evenodd" transform="matrix(1 0 0 1 0 0)" d="M169.6087 508.9214L350.8471 508.9214L350.8471 508.9214L350.8471 521.0359L350.8471 521.0359L169.6087 521.0359z" /></clipPath><clipPath id="157"><path id="" clip-rule="evenodd" transform="matrix(1 0 0 1 0 0)" d="M19.4363 75.43652L575.6259 75.43652L575.6259 75.43652L575.6259 803.7487L575.6259 803.7487L19.4363 803.7487z" /></clipPath><clipPath id="158"><path id="" clip-rule="evenodd" transform="matrix(1 0 0 1 0 0)" d="M512.2944 508.9214L566.1501 508.9214L566.1501 508.9214L566.1501 521.0359L566.1501 521.0359L512.2944 521.0359z" /></clipPath><clipPath id="159"><path id="" clip-rule="evenodd" transform="matrix(1 0 0 1 0 0)" d="M19.4363 75.43652L575.6259 75.43652L575.6259 75.43652L575.6259 803.7487L575.6259 803.7487L19.4363 803.7487z" /></clipPath><clipPath id="160"><path id="" clip-rule="evenodd" transform="matrix(1 0 0 1 0 0)" d="M25.07376 602.5992L569.0288 602.5992L569.0288 602.5992L569.0288 614.5938L569.0288 614.5938L25.07376 614.5938z" /></clipPath><clipPath id="161"><path id="" clip-rule="evenodd" transform="matrix(1 0 0 1 0 0)" d="M19.4363 75.43652L575.6259 75.43652L575.6259 75.43652L575.6259 803.7487L575.6259 803.7487L19.4363 803.7487z" /></clipPath><clipPath id="162"><path id="" clip-rule="evenodd" transform="matrix(1 0 0 1 0 0)" d="M30.71123 710.0708L161.0925 710.0708L161.0925 710.0708L161.0925 733.8201L161.0925 733.8201L30.71123 733.8201z" /></clipPath><clipPath id="163"><path id="" clip-rule="evenodd" transform="matrix(1 0 0 1 0 0)" d="M19.4363 75.43652L575.6259 75.43652L575.6259 75.43652L575.6259 803.7487L575.6259 803.7487L19.4363 803.7487z" /></clipPath><clipPath id="164"><path id="" clip-rule="evenodd" transform="matrix(1 0 0 1 0 0)" d="M161.0925 710.0708L178.1248 710.0708L178.1248 710.0708L178.1248 733.8201L178.1248 733.8201L161.0925 733.8201z" /></clipPath><clipPath id="165"><path id="" clip-rule="evenodd" transform="matrix(1 0 0 1 0 0)" d="M19.4363 75.43652L575.6259 75.43652L575.6259 75.43652L575.6259 803.7487L575.6259 803.7487L19.4363 803.7487z" /></clipPath><clipPath id="166"><path id="" clip-rule="evenodd" transform="matrix(1 0 0 1 0 0)" d="M178.1248 710.0708L569.0288 710.0708L569.0288 710.0708L569.0288 733.8201L569.0288 733.8201L178.1248 733.8201z" /></clipPath><clipPath id="167"><path id="" clip-rule="evenodd" transform="matrix(1 0 0 1 0 0)" d="M19.4363 75.43652L575.6259 75.43652L575.6259 75.43652L575.6259 803.7487L575.6259 803.7487L19.4363 803.7487z" /></clipPath><clipPath id="168"><path id="" clip-rule="evenodd" transform="matrix(1 0 0 1 0 0)" d="M25.07376 694.9576L569.0288 694.9576L569.0288 694.9576L569.0288 707.1921L569.0288 707.1921L25.07376 707.1921z" /></clipPath><clipPath id="169"><path id="" clip-rule="evenodd" transform="matrix(1 0 0 1 0 0)" d="M19.4363 75.43652L575.6259 75.43652L575.6259 75.43652L575.6259 803.7487L575.6259 803.7487L19.4363 803.7487z" /></clipPath><clipPath id="170"><path id="" clip-rule="evenodd" transform="matrix(1 0 0 1 0 0)" d="M27.95247 617.3525L569.0288 617.3525L569.0288 617.3525L569.0288 628.9873L569.0288 628.9873L27.95247 628.9873z" /></clipPath><clipPath id="171"><path id="" clip-rule="evenodd" transform="matrix(1 0 0 1 0 0)" d="M19.4363 27.69806L575.6259 27.69806L575.6259 27.69806L575.6259 825.5788L575.6259 825.5788L19.4363 825.5788z" /></clipPath><clipPath id="172"><path id="" clip-rule="evenodd" transform="matrix(1 0 0 1 0 0)" d="M25.07376 809.3861L161.0925 809.3861L161.0925 809.3861L161.0925 820.7809L161.0925 820.7809L25.07376 820.7809z" /></clipPath><clipPath id="173"><path id="" clip-rule="evenodd" transform="matrix(1 0 0 1 0 0)" d="M161.0925 809.3861L166.73 809.3861L166.73 809.3861L166.73 820.7809L166.73 820.7809L161.0925 820.7809z" /></clipPath><clipPath id="174"><path id="" clip-rule="evenodd" transform="matrix(1 0 0 1 0 0)" d="M166.73 809.3861L234.7393 809.3861L234.7393 809.3861L234.7393 820.7809L234.7393 820.7809L166.73 820.7809z" /></clipPath><clipPath id="175"><path id="" clip-rule="evenodd" transform="matrix(1 0 0 1 0 0)" d="M237.6181 809.3861L353.7258 809.3861L353.7258 809.3861L353.7258 820.7809L353.7258 820.7809L237.6181 820.7809z" /></clipPath><clipPath id="176"><path id="" clip-rule="evenodd" transform="matrix(1 0 0 1 0 0)" d="M353.7258 809.3861L359.3632 809.3861L359.3632 809.3861L359.3632 820.7809L359.3632 820.7809L353.7258 820.7809z" /></clipPath><clipPath id="177"><path id="" clip-rule="evenodd" transform="matrix(1 0 0 1 0 0)" d="M359.3632 809.3861L458.5586 809.3861L458.5586 809.3861L458.5586 820.7809L458.5586 820.7809L359.3632 820.7809z" /></clipPath><clipPath id="178"><path id="" clip-rule="evenodd" transform="matrix(1 0 0 1 0 0)" d="M458.5586 809.3861L495.382 809.3861L495.382 809.3861L495.382 820.7809L495.382 820.7809L458.5586 820.7809z" /></clipPath><clipPath id="179"><path id="" clip-rule="evenodd" transform="matrix(1 0 0 1 0 0)" d="M495.382 809.3861L501.0194 809.3861L501.0194 809.3861L501.0194 820.7809L501.0194 820.7809L495.382 820.7809z" /></clipPath><clipPath id="180"><path id="" clip-rule="evenodd" transform="matrix(1 0 0 1 0 0)" d="M501.0194 809.3861L520.8105 809.3861L520.8105 809.3861L520.8105 820.7809L520.8105 820.7809L501.0194 820.7809z" /></clipPath><clipPath id="181"><path id="" clip-rule="evenodd" transform="matrix(1 0 0 1 0 0)" d="M540.7216 809.3861L569.0288 809.3861L569.0288 809.3861L569.0288 820.7809L569.0288 820.7809L540.7216 820.7809z" /></clipPath></defs><g transform="matrix(1.333333 0 0 1.333333 0 0)"><g clip-path="url(#1)"><g clip-path="url(#2)"><g clip-path="url(#3)"><g clip-path="url(#4)"></g><path id="8" transform="matrix(1 0 0 -1 0 841)" d="M22.31501 810.6631L571.7876 810.6631L571.7876 810.6631L571.7876 810.0634L571.7876 810.0634L22.31501 810.0634" stroke="none" fill="#000000" fill-rule="evenodd" /><path id="9" transform="matrix(1 0 0 -1 0 841)" d="M22.07512 810.6631L22.5549 810.6631L22.5549 810.6631L22.5549 810.0634L22.5549 810.0634L22.07512 810.0634" stroke="none" fill="#000000" fill-rule="evenodd" /><path id="10" transform="matrix(1 0 0 -1 0 841)" d="M571.5477 810.6631L572.0275 810.6631L572.0275 810.6631L572.0275 810.0634L572.0275 810.0634L571.5477 810.0634" stroke="none" fill="#000000" fill-rule="evenodd" /><path id="11" transform="matrix(1 0 0 -1 0 841)" d="M572.0275 810.4233L572.0275 792.0715L572.0275 792.0715L571.4277 792.0715L571.4277 792.0715L571.4277 810.4233" stroke="none" fill="#000000" fill-rule="evenodd" /><path id="12" transform="matrix(1 0 0 -1 0 841)" d="M572.0275 810.6631L572.0275 810.1833L572.0275 810.1833L571.4277 810.1833L571.4277 810.1833L571.4277 810.6631" stroke="none" fill="#000000" fill-rule="evenodd" /><path id="13" transform="matrix(1 0 0 -1 0 841)" d="M572.0275 792.3114L572.0275 791.8316L572.0275 791.8316L571.4277 791.8316L571.4277 791.8316L571.4277 792.3114" stroke="none" fill="#000000" fill-rule="evenodd" /><path id="14" transform="matrix(1 0 0 -1 0 841)" d="M571.7876 791.8316L22.31501 791.8316L22.31501 791.8316L22.31501 792.4313L22.31501 792.4313L571.7876 792.4313" stroke="none" fill="#000000" fill-rule="evenodd" /><path id="15" transform="matrix(1 0 0 -1 0 841)" d="M572.0275 791.8316L571.5477 791.8316L571.5477 791.8316L571.5477 792.4313L571.5477 792.4313L572.0275 792.4313" stroke="none" fill="#000000" fill-rule="evenodd" /><path id="16" transform="matrix(1 0 0 -1 0 841)" d="M22.5549 791.8316L22.07512 791.8316L22.07512 791.8316L22.07512 792.4313L22.07512 792.4313L22.5549 792.4313" stroke="none" fill="#000000" fill-rule="evenodd" /><path id="17" transform="matrix(1 0 0 -1 0 841)" d="M22.07512 792.0715L22.07512 810.4233L22.07512 810.4233L22.67485 810.4233L22.67485 810.4233L22.67485 792.0715" stroke="none" fill="#000000" fill-rule="evenodd" /><path id="18" transform="matrix(1 0 0 -1 0 841)" d="M22.07512 791.8316L22.07512 792.3114L22.07512 792.3114L22.67485 792.3114L22.67485 792.3114L22.67485 791.8316" stroke="none" fill="#000000" fill-rule="evenodd" /><path id="19" transform="matrix(1 0 0 -1 0 841)" d="M22.07512 810.1833L22.07512 810.6631L22.07512 810.6631L22.67485 810.6631L22.67485 810.6631L22.67485 810.1833" stroke="none" fill="#000000" fill-rule="evenodd" /></g><g clip-path="url(#5)"><path id="20" transform="matrix(1 0 0 -1 0 841)" d="M22.31501 791.1119L571.7876 791.1119L571.7876 791.1119L571.7876 790.5122L571.7876 790.5122L22.31501 790.5122" stroke="none" fill="#000000" fill-rule="evenodd" /><path id="21" transform="matrix(1 0 0 -1 0 841)" d="M22.07512 791.1119L22.5549 791.1119L22.5549 791.1119L22.5549 790.5122L22.5549 790.5122L22.07512 790.5122" stroke="none" fill="#000000" fill-rule="evenodd" /><path id="22" transform="matrix(1 0 0 -1 0 841)" d="M571.5477 791.1119L572.0275 791.1119L572.0275 791.1119L572.0275 790.5122L572.0275 790.5122L571.5477 790.5122" stroke="none" fill="#000000" fill-rule="evenodd" /><path id="23" transform="matrix(1 0 0 -1 0 841)" d="M572.0275 790.8721L572.0275 766.2831L572.0275 766.2831L571.4277 766.2831L571.4277 766.2831L571.4277 790.8721" stroke="none" fill="#000000" fill-rule="evenodd" /><path id="24" transform="matrix(1 0 0 -1 0 841)" d="M572.0275 791.1119L572.0275 790.6321L572.0275 790.6321L571.4277 790.6321L571.4277 790.6321L571.4277 791.1119" stroke="none" fill="#000000" fill-rule="evenodd" /><path id="25" transform="matrix(1 0 0 -1 0 841)" d="M572.0275 766.523L572.0275 766.0432L572.0275 766.0432L571.4277 766.0432L571.4277 766.0432L571.4277 766.523" stroke="none" fill="#000000" fill-rule="evenodd" /><path id="26" transform="matrix(1 0 0 -1 0 841)" d="M571.7876 766.0432L22.31501 766.0432L22.31501 766.0432L22.31501 766.6429L22.31501 766.6429L571.7876 766.6429" stroke="none" fill="#000000" fill-rule="evenodd" /><path id="27" transform="matrix(1 0 0 -1 0 841)" d="M572.0275 766.0432L571.5477 766.0432L571.5477 766.0432L571.5477 766.6429L571.5477 766.6429L572.0275 766.6429" stroke="none" fill="#000000" fill-rule="evenodd" /><path id="28" transform="matrix(1 0 0 -1 0 841)" d="M22.5549 766.0432L22.07512 766.0432L22.07512 766.0432L22.07512 766.6429L22.07512 766.6429L22.5549 766.6429" stroke="none" fill="#000000" fill-rule="evenodd" /><path id="29" transform="matrix(1 0 0 -1 0 841)" d="M22.07512 766.2831L22.07512 790.8721L22.07512 790.8721L22.67485 790.8721L22.67485 790.8721L22.67485 766.2831" stroke="none" fill="#000000" fill-rule="evenodd" /><path id="30" transform="matrix(1 0 0 -1 0 841)" d="M22.07512 766.0432L22.07512 766.523L22.07512 766.523L22.67485 766.523L22.67485 766.523L22.67485 766.0432" stroke="none" fill="#000000" fill-rule="evenodd" /><path id="31" transform="matrix(1 0 0 -1 0 841)" d="M22.07512 790.6321L22.07512 791.1119L22.07512 791.1119L22.67485 791.1119L22.67485 791.1119L22.67485 790.6321" stroke="none" fill="#000000" fill-rule="evenodd" /><g clip-path="url(#6)"></g></g><g clip-path="url(#7)"><g clip-path="url(#8)"><g clip-path="url(#9)"></g></g><g clip-path="url(#10)"><g clip-path="url(#11)"></g></g><g clip-path="url(#12)"><g clip-path="url(#13)"></g></g><g clip-path="url(#14)"><g clip-path="url(#15)"></g></g><g clip-path="url(#16)"><g clip-path="url(#17)"></g></g><g clip-path="url(#18)"><g clip-path="url(#19)"></g></g><g clip-path="url(#20)"><g clip-path="url(#21)"></g></g><g clip-path="url(#22)"><g clip-path="url(#23)"></g></g><g clip-path="url(#24)"><g clip-path="url(#25)"></g></g><g clip-path="url(#26)"><g clip-path="url(#27)"></g></g><g clip-path="url(#28)"><g clip-path="url(#29)"></g></g><g clip-path="url(#30)"><g clip-path="url(#31)"></g></g><g clip-path="url(#32)"><g clip-path="url(#33)"></g></g><g clip-path="url(#34)"><g clip-path="url(#35)"></g></g><g clip-path="url(#36)"><g clip-path="url(#37)"></g></g><g clip-path="url(#38)"><g clip-path="url(#39)"></g></g><g clip-path="url(#40)"><g clip-path="url(#41)"></g></g><g clip-path="url(#42)"><g clip-path="url(#43)"></g></g><g clip-path="url(#44)"><g clip-path="url(#45)"></g></g><g clip-path="url(#46)"><g clip-path="url(#47)"></g></g><g clip-path="url(#48)"><g clip-path="url(#49)"></g></g><g clip-path="url(#50)"><g clip-path="url(#51)"></g></g><g clip-path="url(#52)"><g clip-path="url(#53)"><path id="534" transform="matrix(1 0 0 -1 0 841)" d="M30.71123 598.9789L178.6046 598.9789" stroke="#0000FF" stroke-width="1.035374" fill="none" /></g></g><g clip-path="url(#54)"><g clip-path="url(#55)"></g></g><g clip-path="url(#56)"><g clip-path="url(#57)"></g></g><g clip-path="url(#58)"><g clip-path="url(#59)"></g></g><g clip-path="url(#60)"><g clip-path="url(#61)"><path id="599" transform="matrix(1 0 0 -1 0 841)" d="M25.07376 726.1216L455.7998 726.1216" stroke="#0000FF" stroke-width="1.035374" fill="none" /></g></g><g clip-path="url(#62)"><g clip-path="url(#63)"><path id="688" transform="matrix(1 0 0 -1 0 841)" d="M25.07376 460.4412L172.1275 460.4412" stroke="#0000FF" stroke-width="1.035374" fill="none" /></g></g><g clip-path="url(#64)"><g clip-path="url(#65)"></g></g><g clip-path="url(#66)"><g clip-path="url(#67)"><path id="733" transform="matrix(1 0 0 -1 0 841)" d="M30.71123 445.9278L144.3001 445.9278" stroke="#0000FF" stroke-width="1.035374" fill="none" /></g></g><g clip-path="url(#68)"><g clip-path="url(#69)"></g></g><g clip-path="url(#70)"><g clip-path="url(#71)"></g></g><g clip-path="url(#72)"><g clip-path="url(#73)"></g></g><g clip-path="url(#74)"><g clip-path="url(#75)"><path id="800" transform="matrix(1 0 0 -1 0 841)" d="M30.71123 711.7281L128.1074 711.7281" stroke="#0000FF" stroke-width="1.035374" fill="none" /></g></g><g clip-path="url(#76)"><g clip-path="url(#77)"></g></g><g clip-path="url(#78)"><g clip-path="url(#79)"></g></g><g clip-path="url(#80)"><g clip-path="url(#81)"></g></g><g clip-path="url(#82)"><g clip-path="url(#83)"></g></g><g clip-path="url(#84)"><g clip-path="url(#85)"></g></g><g clip-path="url(#86)"><g clip-path="url(#87)"></g></g><g clip-path="url(#88)"><g clip-path="url(#89)"><path id="902" transform="matrix(1 0 0 -1 0 841)" d="M30.71123 655.3535L126.5481 655.3535" stroke="#0000FF" stroke-width="1.035374" fill="none" /></g></g><g clip-path="url(#90)"><g clip-path="url(#91)"></g></g><g clip-path="url(#92)"><g clip-path="url(#93)"></g></g><g clip-path="url(#94)"><g clip-path="url(#95)"></g></g></g><g clip-path="url(#96)"><path id="961" transform="matrix(1 0 0 -1 0 841)" d="M22.31501 377.6581L571.7876 377.6581L571.7876 377.6581L571.7876 377.0584L571.7876 377.0584L22.31501 377.0584" stroke="none" fill="#000000" fill-rule="evenodd" /><path id="962" transform="matrix(1 0 0 -1 0 841)" d="M22.07512 377.6581L22.5549 377.6581L22.5549 377.6581L22.5549 377.0584L22.5549 377.0584L22.07512 377.0584" stroke="none" fill="#000000" fill-rule="evenodd" /><path id="963" transform="matrix(1 0 0 -1 0 841)" d="M571.5477 377.6581L572.0275 377.6581L572.0275 377.6581L572.0275 377.0584L572.0275 377.0584L571.5477 377.0584" stroke="none" fill="#000000" fill-rule="evenodd" /><path id="964" transform="matrix(1 0 0 -1 0 841)" d="M572.0275 377.4182L572.0275 352.8293L572.0275 352.8293L571.4277 352.8293L571.4277 352.8293L571.4277 377.4182" stroke="none" fill="#000000" fill-rule="evenodd" /><path id="965" transform="matrix(1 0 0 -1 0 841)" d="M572.0275 377.6581L572.0275 377.1783L572.0275 377.1783L571.4277 377.1783L571.4277 377.1783L571.4277 377.6581" stroke="none" fill="#000000" fill-rule="evenodd" /><path id="966" transform="matrix(1 0 0 -1 0 841)" d="M572.0275 353.0692L572.0275 352.5894L572.0275 352.5894L571.4277 352.5894L571.4277 352.5894L571.4277 353.0692" stroke="none" fill="#000000" fill-rule="evenodd" /><path id="967" transform="matrix(1 0 0 -1 0 841)" d="M571.7876 352.5894L22.31501 352.5894L22.31501 352.5894L22.31501 353.1891L22.31501 353.1891L571.7876 353.1891" stroke="none" fill="#000000" fill-rule="evenodd" /><path id="968" transform="matrix(1 0 0 -1 0 841)" d="M572.0275 352.5894L571.5477 352.5894L571.5477 352.5894L571.5477 353.1891L571.5477 353.1891L572.0275 353.1891" stroke="none" fill="#000000" fill-rule="evenodd" /><path id="969" transform="matrix(1 0 0 -1 0 841)" d="M22.5549 352.5894L22.07512 352.5894L22.07512 352.5894L22.07512 353.1891L22.07512 353.1891L22.5549 353.1891" stroke="none" fill="#000000" fill-rule="evenodd" /><path id="970" transform="matrix(1 0 0 -1 0 841)" d="M22.07512 352.8293L22.07512 377.4182L22.07512 377.4182L22.67485 377.4182L22.67485 377.4182L22.67485 352.8293" stroke="none" fill="#000000" fill-rule="evenodd" /><path id="971" transform="matrix(1 0 0 -1 0 841)" d="M22.07512 352.5894L22.07512 353.0692L22.07512 353.0692L22.67485 353.0692L22.67485 353.0692L22.67485 352.5894" stroke="none" fill="#000000" fill-rule="evenodd" /><path id="972" transform="matrix(1 0 0 -1 0 841)" d="M22.07512 377.1783L22.07512 377.6581L22.07512 377.6581L22.67485 377.6581L22.67485 377.6581L22.67485 377.1783" stroke="none" fill="#000000" fill-rule="evenodd" /><g clip-path="url(#97)"><g clip-path="url(#98)"></g></g><g clip-path="url(#99)"><g clip-path="url(#100)"><path id="1004" transform="matrix(1 0 0 -1 0 841)" d="M25.07376 184.9253L148.7381 184.9253" stroke="#0000FF" stroke-width="1.035374" fill="none" /></g></g><g clip-path="url(#101)"><g clip-path="url(#102)"></g></g><g clip-path="url(#103)"><g clip-path="url(#104)"></g></g><g clip-path="url(#105)"><g clip-path="url(#106)"></g></g><g clip-path="url(#107)"><g clip-path="url(#108)"></g></g><g clip-path="url(#109)"><g clip-path="url(#110)"><path id="1115" transform="matrix(1 0 0 -1 0 841)" d="M25.07376 339.8955L62.7368 339.8955" stroke="#0000FF" stroke-width="1.035374" fill="none" /></g></g><g clip-path="url(#111)"><g clip-path="url(#112)"></g></g><g clip-path="url(#113)"><g clip-path="url(#114)"></g></g><g clip-path="url(#115)"><g clip-path="url(#116)"></g></g><g clip-path="url(#117)"><g clip-path="url(#118)"></g></g><g clip-path="url(#119)"><g clip-path="url(#120)"></g></g><g clip-path="url(#121)"><g clip-path="url(#122)"></g></g><g clip-path="url(#123)"><g clip-path="url(#124)"></g></g><g clip-path="url(#125)"><g clip-path="url(#126)"></g></g><g clip-path="url(#127)"><g clip-path="url(#128)"></g></g><g clip-path="url(#129)"><g clip-path="url(#130)"></g></g><g clip-path="url(#131)"><g clip-path="url(#132)"></g></g><g clip-path="url(#133)"><g clip-path="url(#134)"></g></g><g clip-path="url(#135)"><g clip-path="url(#136)"></g></g><g clip-path="url(#137)"><g clip-path="url(#138)"></g></g><g clip-path="url(#139)"><g clip-path="url(#140)"></g></g><g clip-path="url(#141)"><g clip-path="url(#142)"></g></g><g clip-path="url(#143)"><g clip-path="url(#144)"></g></g><g clip-path="url(#145)"><g clip-path="url(#146)"></g></g><g clip-path="url(#147)"><g clip-path="url(#148)"></g></g><g clip-path="url(#149)"><g clip-path="url(#150)"></g></g><g clip-path="url(#151)"><g clip-path="url(#152)"></g></g><g clip-path="url(#153)"><g clip-path="url(#154)"></g></g><g clip-path="url(#155)"><g clip-path="url(#156)"></g></g><g clip-path="url(#157)"><g clip-path="url(#158)"></g></g><g clip-path="url(#159)"><g clip-path="url(#160)"><path id="1516" transform="matrix(1 0 0 -1 0 841)" d="M25.07376 228.3457L166.0103 228.3457" stroke="#0000FF" stroke-width="1.035374" fill="none" /></g></g><g clip-path="url(#161)"><g clip-path="url(#162)"></g></g><g clip-path="url(#163)"><g clip-path="url(#164)"></g></g><g clip-path="url(#165)"><g clip-path="url(#166)"></g></g><g clip-path="url(#167)"><g clip-path="url(#168)"><path id="1599" transform="matrix(1 0 0 -1 0 841)" d="M25.07376 135.9873L94.40255 135.9873" stroke="#0000FF" stroke-width="1.035374" fill="none" /></g></g><path id="1616" transform="matrix(1 0 0 -1 0 841)" d="M25.07376 335.1972L569.0288 335.1972L569.0288 335.1972L569.0288 334.5975L569.0288 334.5975L25.07376 334.5975" stroke="none" fill="#000000" fill-rule="evenodd" /><path id="1617" transform="matrix(1 0 0 -1 0 841)" d="M24.83387 335.1972L25.31366 335.1972L25.31366 335.1972L25.31366 334.5975L25.31366 334.5975L24.83387 334.5975" stroke="none" fill="#000000" fill-rule="evenodd" /><path id="1618" transform="matrix(1 0 0 -1 0 841)" d="M568.7889 335.1972L569.2687 335.1972L569.2687 335.1972L569.2687 334.5975L569.2687 334.5975L568.7889 334.5975" stroke="none" fill="#000000" fill-rule="evenodd" /><path id="1619" transform="matrix(1 0 0 -1 0 841)" d="M569.2687 334.9573L569.2687 255.3132L569.2687 255.3132L568.669 255.3132L568.669 255.3132L568.669 334.9573" stroke="none" fill="#000000" fill-rule="evenodd" /><path id="1620" transform="matrix(1 0 0 -1 0 841)" d="M569.2687 335.1972L569.2687 334.7174L569.2687 334.7174L568.669 334.7174L568.669 334.7174L568.669 335.1972" stroke="none" fill="#000000" fill-rule="evenodd" /><path id="1621" transform="matrix(1 0 0 -1 0 841)" d="M569.2687 255.5531L569.2687 255.0733L569.2687 255.0733L568.669 255.0733L568.669 255.0733L568.669 255.5531" stroke="none" fill="#000000" fill-rule="evenodd" /><path id="1622" transform="matrix(1 0 0 -1 0 841)" d="M569.0288 255.0733L25.07376 255.0733L25.07376 255.0733L25.07376 255.673L25.07376 255.673L569.0288 255.673" stroke="none" fill="#000000" fill-rule="evenodd" /><path id="1623" transform="matrix(1 0 0 -1 0 841)" d="M569.2687 255.0733L568.7889 255.0733L568.7889 255.0733L568.7889 255.673L568.7889 255.673L569.2687 255.673" stroke="none" fill="#000000" fill-rule="evenodd" /><path id="1624" transform="matrix(1 0 0 -1 0 841)" d="M25.31366 255.0733L24.83387 255.0733L24.83387 255.0733L24.83387 255.673L24.83387 255.673L25.31366 255.673" stroke="none" fill="#000000" fill-rule="evenodd" /><path id="1625" transform="matrix(1 0 0 -1 0 841)" d="M24.83387 255.3132L24.83387 334.9573L24.83387 334.9573L25.4336 334.9573L25.4336 334.9573L25.4336 255.3132" stroke="none" fill="#000000" fill-rule="evenodd" /><path id="1626" transform="matrix(1 0 0 -1 0 841)" d="M24.83387 255.0733L24.83387 255.5531L24.83387 255.5531L25.4336 255.5531L25.4336 255.5531L25.4336 255.0733" stroke="none" fill="#000000" fill-rule="evenodd" /><path id="1627" transform="matrix(1 0 0 -1 0 841)" d="M24.83387 334.7174L24.83387 335.1972L24.83387 335.1972L25.4336 335.1972L25.4336 335.1972L25.4336 334.7174" stroke="none" fill="#000000" fill-rule="evenodd" /><path id="1628" transform="matrix(1 0 0 -1 0 841)" d="M25.07376 317.3253L569.0288 317.3253L569.0288 317.3253L569.0288 316.7255L569.0288 316.7255L25.07376 316.7255" stroke="none" fill="#000000" fill-rule="evenodd" /><path id="1629" transform="matrix(1 0 0 -1 0 841)" d="M24.83387 317.3253L25.31366 317.3253L25.31366 317.3253L25.31366 316.7255L25.31366 316.7255L24.83387 316.7255" stroke="none" fill="#000000" fill-rule="evenodd" /><path id="1630" transform="matrix(1 0 0 -1 0 841)" d="M568.7889 317.3253L569.2687 317.3253L569.2687 317.3253L569.2687 316.7255L569.2687 316.7255L568.7889 316.7255" stroke="none" fill="#000000" fill-rule="evenodd" /><path id="1631" transform="matrix(1 0 0 -1 0 841)" d="M166.9699 334.9573L166.9699 255.3132L166.9699 255.3132L166.3701 255.3132L166.3701 255.3132L166.3701 334.9573" stroke="none" fill="#000000" fill-rule="evenodd" /><path id="1632" transform="matrix(1 0 0 -1 0 841)" d="M166.9699 335.1972L166.9699 334.7174L166.9699 334.7174L166.3701 334.7174L166.3701 334.7174L166.3701 335.1972" stroke="none" fill="#000000" fill-rule="evenodd" /><path id="1633" transform="matrix(1 0 0 -1 0 841)" d="M166.9699 255.5531L166.9699 255.0733L166.9699 255.0733L166.3701 255.0733L166.3701 255.0733L166.3701 255.5531" stroke="none" fill="#000000" fill-rule="evenodd" /><path id="1634" transform="matrix(1 0 0 -1 0 841)" d="M353.9657 334.9573L353.9657 255.3132L353.9657 255.3132L353.3659 255.3132L353.3659 255.3132L353.3659 334.9573" stroke="none" fill="#000000" fill-rule="evenodd" /><path id="1635" transform="matrix(1 0 0 -1 0 841)" d="M353.9657 335.1972L353.9657 334.7174L353.9657 334.7174L353.3659 334.7174L353.3659 334.7174L353.3659 335.1972" stroke="none" fill="#000000" fill-rule="evenodd" /><path id="1636" transform="matrix(1 0 0 -1 0 841)" d="M353.9657 255.5531L353.9657 255.0733L353.9657 255.0733L353.3659 255.0733L353.3659 255.0733L353.3659 255.5531" stroke="none" fill="#000000" fill-rule="evenodd" /><path id="1637" transform="matrix(1 0 0 -1 0 841)" d="M509.7755 334.9573L509.7755 255.3132L509.7755 255.3132L509.1758 255.3132L509.1758 255.3132L509.1758 334.9573" stroke="none" fill="#000000" fill-rule="evenodd" /><path id="1638" transform="matrix(1 0 0 -1 0 841)" d="M509.7755 335.1972L509.7755 334.7174L509.7755 334.7174L509.1758 334.7174L509.1758 334.7174L509.1758 335.1972" stroke="none" fill="#000000" fill-rule="evenodd" /><path id="1639" transform="matrix(1 0 0 -1 0 841)" d="M509.7755 255.5531L509.7755 255.0733L509.7755 255.0733L509.1758 255.0733L509.1758 255.0733L509.1758 255.5531" stroke="none" fill="#000000" fill-rule="evenodd" /><g clip-path="url(#169)"><g clip-path="url(#170)"></g></g></g><g clip-path="url(#171)"><g clip-path="url(#172)"></g><path id="1680" transform="matrix(1 0 0 -1 0 841)" d="M22.31501 34.61255L571.7876 34.61255L571.7876 34.61255L571.7876 34.01282L571.7876 34.01282L22.31501 34.01282" stroke="none" fill="#000000" fill-rule="evenodd" /><path id="1681" transform="matrix(1 0 0 -1 0 841)" d="M22.07512 34.61255L22.5549 34.61255L22.5549 34.61255L22.5549 34.01282L22.5549 34.01282L22.07512 34.01282" stroke="none" fill="#000000" fill-rule="evenodd" /><path id="1682" transform="matrix(1 0 0 -1 0 841)" d="M571.5477 34.61255L572.0275 34.61255L572.0275 34.61255L572.0275 34.01282L572.0275 34.01282L571.5477 34.01282" stroke="none" fill="#000000" fill-rule="evenodd" /><path id="1683" transform="matrix(1 0 0 -1 0 841)" d="M572.0275 34.37268L572.0275 16.02094L572.0275 16.02094L571.4277 16.02094L571.4277 16.02094L571.4277 34.37268" stroke="none" fill="#000000" fill-rule="evenodd" /><path id="1684" transform="matrix(1 0 0 -1 0 841)" d="M572.0275 34.61255L572.0275 34.13275L572.0275 34.13275L571.4277 34.13275L571.4277 34.13275L571.4277 34.61255" stroke="none" fill="#000000" fill-rule="evenodd" /><path id="1685" transform="matrix(1 0 0 -1 0 841)" d="M572.0275 16.2608L572.0275 15.78107L572.0275 15.78107L571.4277 15.78107L571.4277 15.78107L571.4277 16.2608" stroke="none" fill="#000000" fill-rule="evenodd" /><path id="1686" transform="matrix(1 0 0 -1 0 841)" d="M571.7876 15.78107L22.31501 15.78107L22.31501 15.78107L22.31501 16.3808L22.31501 16.3808L571.7876 16.3808" stroke="none" fill="#000000" fill-rule="evenodd" /><path id="1687" transform="matrix(1 0 0 -1 0 841)" d="M572.0275 15.78107L571.5477 15.78107L571.5477 15.78107L571.5477 16.3808L571.5477 16.3808L572.0275 16.3808" stroke="none" fill="#000000" fill-rule="evenodd" /><path id="1688" transform="matrix(1 0 0 -1 0 841)" d="M22.5549 15.78107L22.07512 15.78107L22.07512 15.78107L22.07512 16.3808L22.07512 16.3808L22.5549 16.3808" stroke="none" fill="#000000" fill-rule="evenodd" /><path id="1689" transform="matrix(1 0 0 -1 0 841)" d="M22.07512 16.02094L22.07512 34.37268L22.07512 34.37268L22.67485 34.37268L22.67485 34.37268L22.67485 16.02094" stroke="none" fill="#000000" fill-rule="evenodd" /><path id="1690" transform="matrix(1 0 0 -1 0 841)" d="M22.07512 15.78107L22.07512 16.2608L22.07512 16.2608L22.67485 16.2608L22.67485 16.2608L22.67485 15.78107" stroke="none" fill="#000000" fill-rule="evenodd" /><path id="1691" transform="matrix(1 0 0 -1 0 841)" d="M22.07512 34.13275L22.07512 34.61255L22.07512 34.61255L22.67485 34.61255L22.67485 34.61255L22.67485 34.13275" stroke="none" fill="#000000" fill-rule="evenodd" /><g clip-path="url(#173)"></g><g clip-path="url(#174)"></g><g clip-path="url(#175)"></g><g clip-path="url(#176)"></g><g clip-path="url(#177)"></g><g clip-path="url(#178)"></g><g clip-path="url(#179)"></g><g clip-path="url(#180)"></g><g clip-path="url(#181)"></g></g></g></g></g></svg>