<svg xmlns="http://www.w3.org/2000/svg" xmlns:xlink="http://www.w3.org/1999/xlink" id="body_335" preserveAspectRatio="xMinYMin meet" viewBox="0 0 793 1121"><defs><clipPath id="1"><path id="" clip-rule="evenodd" transform="matrix(1 0 0 1 0 0)" d="M0 841L0 -0.8900146L0 -0.8900146L595.276 -0.8900146L595.276 -0.8900146L595.276 841L595.276 841L0 841z" /></clipPath></defs><g transform="matrix(1.333333 0 0 1.333333 0 0)"><g clip-path="url(#1)"><path id="22" transform="matrix(1 0 0 -1 0 841)" d="M85.039 766.564L510.236 766.564" stroke="#000000" stroke-width="0.498" fill="none" /><g transform="matrix(0.3 0 0 0.3 112.312 84.14899)"><g transform="matrix(1 0 0 1 0 0)"><image x="0" y="0" xlink:href="img_477.png" width="484" height="134" /></g></g><path id="202" transform="matrix(1 0 0 -1 0 841)" d="M176.053 602.293L182.926 602.293" stroke="#000000" stroke-width="0.436" fill="none" /><path id="217" transform="matrix(1 0 0 -1 0 841)" d="M259.323 602.293L270.232 602.293" stroke="#000000" stroke-width="0.436" fill="none" /><path id="235" transform="matrix(1 0 0 -1 0 841)" d="M349.969 602.293L366.333 602.293" stroke="#000000" stroke-width="0.436" fill="none" /><path id="290" transform="matrix(1 0 0 -1 0 841)" d="M192.591 559.652L208.954 559.652" stroke="#000000" stroke-width="0.436" fill="none" /><path id="312" transform="matrix(1 0 0 -1 0 841)" d="M302.536 559.652L318.899 559.652" stroke="#000000" stroke-width="0.436" fill="none" /><path id="361" transform="matrix(1 0 0 -1 0 841)" d="M165.003 509.013L181.366 509.013" stroke="#000000" stroke-width="0.436" fill="none" /><path id="373" transform="matrix(1 0 0 -1 0 841)" d="M211.628 509.013L226.126 509.013" stroke="#000000" stroke-width="0.436" fill="none" /><path id="387" transform="matrix(1 0 0 -1 0 841)" d="M267.047 509.013L283.41 509.013" stroke="#000000" stroke-width="0.436" fill="none" /><path id="391" transform="matrix(1 0 0 -1 0 841)" d="M240.646 524.37L287.993 524.37" stroke="#000000" stroke-width="0.398" fill="none" /><path id="392" transform="matrix(1 0 0 -1 0 841)" d="M240.845 495.494L240.845 524.37" stroke="#000000" stroke-width="0.398" fill="none" /><path id="393" transform="matrix(1 0 0 -1 0 841)" d="M287.794 495.494L287.794 524.37" stroke="#000000" stroke-width="0.398" fill="none" /><path id="394" transform="matrix(1 0 0 -1 0 841)" d="M240.646 495.494L287.993 495.494" stroke="#000000" stroke-width="0.398" fill="none" /><g transform="matrix(0.3 0 0 0.3 112.312 399.288)"><g transform="matrix(1 0 0 1 0 0)"><image x="0" y="0" xlink:href="img_477.png" width="484" height="134" /></g></g><path id="534" transform="matrix(1 0 0 -1 0 841)" d="M403.46 378.799L411.336 378.799" stroke="#000000" stroke-width="0.436" fill="none" /><path id="693" transform="matrix(1 0 0 -1 0 841)" d="M120.173 276.857L134.104 276.857" stroke="#000000" stroke-width="0.436" fill="none" /><path id="708" transform="matrix(1 0 0 -1 0 841)" d="M164.346 288.971L178.592 288.971" stroke="#000000" stroke-width="0.436" fill="none" /><path id="714" transform="matrix(1 0 0 -1 0 841)" d="M149.819 276.857L179.787 276.857" stroke="#000000" stroke-width="0.436" fill="none" /><path id="721" transform="matrix(1 0 0 -1 0 841)" d="M164.318 260.281L178.249 260.281" stroke="#000000" stroke-width="0.436" fill="none" /><path id="777" transform="matrix(1 0 0 -1 0 841)" d="M113.508 210.759L174.02 210.759" stroke="#000000" stroke-width="0.436" fill="none" /><path id="787" transform="matrix(1 0 0 -1 0 841)" d="M184.896 210.759L238.732 210.759" stroke="#000000" stroke-width="0.436" fill="none" /><path id="808" transform="matrix(1 0 0 -1 0 841)" d="M249.607 210.759L279.901 210.759" stroke="#000000" stroke-width="0.436" fill="none" /><path id="822" transform="matrix(1 0 0 -1 0 841)" d="M315.002 210.759L329.248 210.759" stroke="#000000" stroke-width="0.436" fill="none" /><path id="871" transform="matrix(1 0 0 -1 0 841)" d="M178.039 159.389L231.056 159.389" stroke="#000000" stroke-width="0.436" fill="none" /><path id="875" transform="matrix(1 0 0 -1 0 841)" d="M200.309 145.873L214.24 145.873" stroke="#000000" stroke-width="0.436" fill="none" /><path id="896" transform="matrix(1 0 0 -1 0 841)" d="M168.472 104.617L175.345 104.617" stroke="#000000" stroke-width="0.436" fill="none" /><path id="916" transform="matrix(1 0 0 -1 0 841)" d="M310.537 104.617L335.377 104.617" stroke="#000000" stroke-width="0.436" fill="none" /><path id="928" transform="matrix(1 0 0 -1 0 841)" d="M392.745 104.617L417.585 104.617" stroke="#000000" stroke-width="0.436" fill="none" /><path id="936" transform="matrix(1 0 0 -1 0 841)" d="M426.489 114.086L431.944 114.086" stroke="#000000" stroke-width="0.436" fill="none" /></g></g></svg>