<svg xmlns="http://www.w3.org/2000/svg" xmlns:xlink="http://www.w3.org/1999/xlink" id="body_6" preserveAspectRatio="xMinYMin meet" viewBox="0 0 793 1121"><defs><clipPath id="1"><path id="" clip-rule="evenodd" transform="matrix(1 0 0 1 0 0)" d="M0 841L0 -0.8900146L0 -0.8900146L595.276 -0.8900146L595.276 -0.8900146L595.276 841L595.276 841L0 841z" /></clipPath></defs><g transform="matrix(1.333333 0 0 1.333333 0 0)"><g clip-path="url(#1)"><path id="364" transform="matrix(1 0 0 -1 0 841)" d="M85.039 600.321L115.07 600.321L115.07 620.163L85.039 620.163z" stroke="none" fill="#FDE0D1" fill-rule="nonzero" /><path id="368" transform="matrix(1 0 0 -1 0 841)" d="M119.055 600.321L510.236 600.321L510.236 620.163L119.055 620.163z" stroke="none" fill="#FAC2A3" fill-rule="nonzero" /><path id="1013" transform="matrix(1 0 0 -1 0 841)" d="M85.039 334.702L115.07 334.702L115.07 354.544L85.039 354.544z" stroke="none" fill="#FDE0D1" fill-rule="nonzero" /><path id="1018" transform="matrix(1 0 0 -1 0 841)" d="M119.055 334.702L510.236 334.702L510.236 354.544L119.055 354.544z" stroke="none" fill="#FAC2A3" fill-rule="nonzero" /></g></g></svg>