<svg xmlns="http://www.w3.org/2000/svg" xmlns:xlink="http://www.w3.org/1999/xlink" id="body_343" preserveAspectRatio="xMinYMin meet" viewBox="0 0 793 1121"><defs><clipPath id="1"><path id="" clip-rule="evenodd" transform="matrix(1 0 0 1 0 0)" d="M0 841L0 -0.8900146L0 -0.8900146L595.276 -0.8900146L595.276 -0.8900146L595.276 841L595.276 841L0 841z" /></clipPath></defs><g transform="matrix(1.333333 0 0 1.333333 0 0)"><g clip-path="url(#1)"><path id="22" transform="matrix(1 0 0 -1 0 841)" d="M85.039 766.564L510.236 766.564" stroke="#000000" stroke-width="0.498" fill="none" /><path id="167" transform="matrix(1 0 0 -1 0 841)" d="M385.125 690.637L451.727 690.637" stroke="#000000" stroke-width="0.436" fill="none" /><path id="991" transform="matrix(1 0 0 -1 0 841)" d="M354.3337 299.2554C 354.3337 322.739 335.297 341.7756 311.8135 341.7756C 288.3299 341.7756 269.2933 322.739 269.2933 299.2554C 269.2933 275.7719 288.3299 256.7352 311.8135 256.7352C 335.297 256.7352 354.3337 275.7719 354.3337 299.2554z" stroke="#000000" stroke-width="0.3985" fill="#F2F2F2" fill-rule="nonzero" /><path id="992" transform="matrix(1 0 0 -1 0 841)" d="M269.2932 299.2554L354.3337 299.2554" stroke="#000000" stroke-width="1.19553" fill="none" /><path id="1019" transform="matrix(1 0 0 -1 0 841)" d="M289.1359 262.4045L311.8135 299.2554" stroke="#000000" stroke-width="1.19553" fill="none" /><path id="1020" transform="matrix(1 0 0 -1 0 841)" d="M334.491 262.4045L311.8135 299.2554" stroke="#000000" stroke-width="1.19553" fill="none" /><path id="1024" transform="matrix(1 0 0 -1 0 841)" d="M113.508 189.37L129.261 189.37" stroke="#000000" stroke-width="0.436" fill="none" /><path id="1035" transform="matrix(1 0 0 -1 0 841)" d="M167.132 189.37L184.706 189.37" stroke="#000000" stroke-width="0.436" fill="none" /><path id="1055" transform="matrix(1 0 0 -1 0 841)" d="M257.392 189.37L271.334 189.37" stroke="#000000" stroke-width="0.436" fill="none" /><path id="1065" transform="matrix(1 0 0 -1 0 841)" d="M113.508 154.576L129.261 154.576" stroke="#000000" stroke-width="0.436" fill="none" /><path id="1083" transform="matrix(1 0 0 -1 0 841)" d="M155.885 154.576L187.346 154.576" stroke="#000000" stroke-width="0.436" fill="none" /><path id="1099" transform="matrix(1 0 0 -1 0 841)" d="M220.04 154.576L237.014 154.576" stroke="#000000" stroke-width="0.436" fill="none" /><path id="1106" transform="matrix(1 0 0 -1 0 841)" d="M247.891 154.576L331.456 154.576" stroke="#000000" stroke-width="0.436" fill="none" /><path id="1132" transform="matrix(1 0 0 -1 0 841)" d="M353.241 154.576L367.183 154.576" stroke="#000000" stroke-width="0.436" fill="none" /><path id="1147" transform="matrix(1 0 0 -1 0 841)" d="M433.541 154.576L449.861 154.576" stroke="#000000" stroke-width="0.436" fill="none" /><path id="1151" transform="matrix(1 0 0 -1 0 841)" d="M409.573 169.933L454.444 169.933" stroke="#000000" stroke-width="0.398" fill="none" /><path id="1152" transform="matrix(1 0 0 -1 0 841)" d="M409.772 138.952L409.772 169.933" stroke="#000000" stroke-width="0.398" fill="none" /><path id="1153" transform="matrix(1 0 0 -1 0 841)" d="M454.244 138.952L454.244 169.933" stroke="#000000" stroke-width="0.398" fill="none" /><path id="1154" transform="matrix(1 0 0 -1 0 841)" d="M409.573 138.951L454.444 138.951" stroke="#000000" stroke-width="0.398" fill="none" /></g></g></svg>