<svg xmlns="http://www.w3.org/2000/svg" xmlns:xlink="http://www.w3.org/1999/xlink" id="body_342" preserveAspectRatio="xMinYMin meet" viewBox="0 0 793 1121"><defs><clipPath id="1"><path id="" clip-rule="evenodd" transform="matrix(1 0 0 1 0 0)" d="M0 841L0 -0.8900146L0 -0.8900146L595.276 -0.8900146L595.276 -0.8900146L595.276 841L595.276 841L0 841z" /></clipPath></defs><g transform="matrix(1.333333 0 0 1.333333 0 0)"><g clip-path="url(#1)"><path id="34" transform="matrix(1 0 0 -1 0 841)" d="M85.039 766.564L510.236 766.564" stroke="#000000" stroke-width="0.498" fill="none" /><path id="978" transform="matrix(1 0 0 -1 0 841)" d="M354.3337 359.9564C 354.3337 383.44 335.297 402.4766 311.8135 402.4766C 288.3299 402.4766 269.2933 383.44 269.2933 359.9564C 269.2933 336.4728 288.3299 317.4362 311.8135 317.4362C 335.297 317.4362 354.3337 336.4728 354.3337 359.9564z" stroke="#000000" stroke-width="0.3985" fill="#F2F2F2" fill-rule="nonzero" /><path id="979" transform="matrix(1 0 0 -1 0 841)" d="M269.2932 359.9564L354.3337 359.9564" stroke="#000000" stroke-width="1.19553" fill="none" /><path id="1006" transform="matrix(1 0 0 -1 0 841)" d="M289.1359 323.1055L311.8135 359.9564" stroke="#000000" stroke-width="1.19553" fill="none" /><path id="1007" transform="matrix(1 0 0 -1 0 841)" d="M334.491 323.1055L311.8135 359.9564" stroke="#000000" stroke-width="1.19553" fill="none" /><path id="1011" transform="matrix(1 0 0 -1 0 841)" d="M113.508 231.482L129.261 231.482" stroke="#000000" stroke-width="0.436" fill="none" /><path id="1022" transform="matrix(1 0 0 -1 0 841)" d="M167.132 231.482L184.706 231.482" stroke="#000000" stroke-width="0.436" fill="none" /><path id="1042" transform="matrix(1 0 0 -1 0 841)" d="M257.392 231.482L271.334 231.482" stroke="#000000" stroke-width="0.436" fill="none" /><path id="1052" transform="matrix(1 0 0 -1 0 841)" d="M113.508 196.687L129.261 196.687" stroke="#000000" stroke-width="0.436" fill="none" /><path id="1070" transform="matrix(1 0 0 -1 0 841)" d="M155.885 196.687L187.346 196.687" stroke="#000000" stroke-width="0.436" fill="none" /><path id="1086" transform="matrix(1 0 0 -1 0 841)" d="M220.04 196.687L237.014 196.687" stroke="#000000" stroke-width="0.436" fill="none" /><path id="1093" transform="matrix(1 0 0 -1 0 841)" d="M247.891 196.687L331.456 196.687" stroke="#000000" stroke-width="0.436" fill="none" /><path id="1119" transform="matrix(1 0 0 -1 0 841)" d="M353.241 196.687L367.183 196.687" stroke="#000000" stroke-width="0.436" fill="none" /><path id="1134" transform="matrix(1 0 0 -1 0 841)" d="M433.541 196.687L449.861 196.687" stroke="#000000" stroke-width="0.436" fill="none" /><path id="1138" transform="matrix(1 0 0 -1 0 841)" d="M409.573 212.044L454.444 212.044" stroke="#000000" stroke-width="0.398" fill="none" /><path id="1139" transform="matrix(1 0 0 -1 0 841)" d="M409.772 181.063L409.772 212.044" stroke="#000000" stroke-width="0.398" fill="none" /><path id="1140" transform="matrix(1 0 0 -1 0 841)" d="M454.244 181.063L454.244 212.044" stroke="#000000" stroke-width="0.398" fill="none" /><path id="1141" transform="matrix(1 0 0 -1 0 841)" d="M409.573 181.063L454.444 181.063" stroke="#000000" stroke-width="0.398" fill="none" /><path id="1299" transform="matrix(1 0 0 -1 0 841)" d="M113.508 105.616L129.261 105.616" stroke="#000000" stroke-width="0.436" fill="none" /><path id="1310" transform="matrix(1 0 0 -1 0 841)" d="M167.885 105.616L185.459 105.616" stroke="#000000" stroke-width="0.436" fill="none" /><path id="1330" transform="matrix(1 0 0 -1 0 841)" d="M258.648 105.616L272.59 105.616" stroke="#000000" stroke-width="0.436" fill="none" /><path id="1354" transform="matrix(1 0 0 -1 0 841)" d="M399.602 105.616L413.544 105.616" stroke="#000000" stroke-width="0.436" fill="none" /><path id="1360" transform="matrix(1 0 0 -1 0 841)" d="M457.132 119.715L472.885 119.715" stroke="#000000" stroke-width="0.436" fill="none" /><path id="1364" transform="matrix(1 0 0 -1 0 841)" d="M430.012 105.616L500.004 105.616" stroke="#000000" stroke-width="0.436" fill="none" /><path id="1371" transform="matrix(1 0 0 -1 0 841)" d="M453.364 92.132L470.938 92.132" stroke="#000000" stroke-width="0.436" fill="none" /></g></g></svg>