<svg xmlns="http://www.w3.org/2000/svg" xmlns:xlink="http://www.w3.org/1999/xlink" id="body_338" preserveAspectRatio="xMinYMin meet" viewBox="0 0 793 1121"><defs><clipPath id="1"><path id="" clip-rule="evenodd" transform="matrix(1 0 0 1 0 0)" d="M0 841L0 -0.8900146L0 -0.8900146L595.276 -0.8900146L595.276 -0.8900146L595.276 841L595.276 841L0 841z" /></clipPath></defs><g transform="matrix(1.333333 0 0 1.333333 0 0)"><g clip-path="url(#1)"><path id="34" transform="matrix(1 0 0 -1 0 841)" d="M85.039 766.564L510.236 766.564" stroke="#000000" stroke-width="0.498" fill="none" /><path id="38" transform="matrix(1 0 0 -1 0 841)" d="M113.508 741.294L129.871 741.294" stroke="#000000" stroke-width="0.436" fill="none" /><path id="51" transform="matrix(1 0 0 -1 0 841)" d="M164.972 741.294L182.372 741.294" stroke="#000000" stroke-width="0.436" fill="none" /><path id="70" transform="matrix(1 0 0 -1 0 841)" d="M193.248 741.294L254.395 741.294" stroke="#000000" stroke-width="0.436" fill="none" /><path id="81" transform="matrix(1 0 0 -1 0 841)" d="M265.271 741.294L307.686 741.294" stroke="#000000" stroke-width="0.436" fill="none" /><path id="99" transform="matrix(1 0 0 -1 0 841)" d="M352.841 741.294L369.204 741.294" stroke="#000000" stroke-width="0.436" fill="none" /><path id="103" transform="matrix(1 0 0 -1 0 841)" d="M322.206 756.651L373.787 756.651" stroke="#000000" stroke-width="0.398" fill="none" /><path id="104" transform="matrix(1 0 0 -1 0 841)" d="M322.406 727.775L322.406 756.651" stroke="#000000" stroke-width="0.398" fill="none" /><path id="105" transform="matrix(1 0 0 -1 0 841)" d="M373.588 727.775L373.588 756.651" stroke="#000000" stroke-width="0.398" fill="none" /><path id="106" transform="matrix(1 0 0 -1 0 841)" d="M322.206 727.775L373.787 727.775" stroke="#000000" stroke-width="0.398" fill="none" /><path id="269" transform="matrix(1 0 0 -1 0 841)" d="M113.508 640.374L129.828 640.374" stroke="#000000" stroke-width="0.436" fill="none" /><path id="281" transform="matrix(1 0 0 -1 0 841)" d="M161.907 640.374L178.27 640.374" stroke="#000000" stroke-width="0.436" fill="none" /><path id="289" transform="matrix(1 0 0 -1 0 841)" d="M189.146 640.374L224.938 640.374" stroke="#000000" stroke-width="0.436" fill="none" /><path id="309" transform="matrix(1 0 0 -1 0 841)" d="M235.814 640.374L278.229 640.374" stroke="#000000" stroke-width="0.436" fill="none" /><path id="324" transform="matrix(1 0 0 -1 0 841)" d="M334.294 640.374L350.614 640.374" stroke="#000000" stroke-width="0.436" fill="none" /><path id="328" transform="matrix(1 0 0 -1 0 841)" d="M292.75 655.731L355.196 655.731" stroke="#000000" stroke-width="0.398" fill="none" /><path id="329" transform="matrix(1 0 0 -1 0 841)" d="M292.949 624.75L292.949 655.731" stroke="#000000" stroke-width="0.398" fill="none" /><path id="330" transform="matrix(1 0 0 -1 0 841)" d="M354.997 624.75L354.997 655.731" stroke="#000000" stroke-width="0.398" fill="none" /><path id="331" transform="matrix(1 0 0 -1 0 841)" d="M292.75 624.75L355.196 624.75" stroke="#000000" stroke-width="0.398" fill="none" /><path id="437" transform="matrix(1 0 0 -1 0 841)" d="M113.508 553.563L168.366 553.563" stroke="#000000" stroke-width="0.436" fill="none" /><path id="458" transform="matrix(1 0 0 -1 0 841)" d="M210.134 553.563L224.38 553.563" stroke="#000000" stroke-width="0.436" fill="none" /><path id="471" transform="matrix(1 0 0 -1 0 841)" d="M235.256 553.563L269.139 553.563" stroke="#000000" stroke-width="0.436" fill="none" /><path id="483" transform="matrix(1 0 0 -1 0 841)" d="M280.015 553.563L334.873 553.563" stroke="#000000" stroke-width="0.436" fill="none" /><path id="502" transform="matrix(1 0 0 -1 0 841)" d="M378.816 553.563L395.136 553.563" stroke="#000000" stroke-width="0.436" fill="none" /><path id="506" transform="matrix(1 0 0 -1 0 841)" d="M349.394 568.92L399.719 568.92" stroke="#000000" stroke-width="0.398" fill="none" /><path id="507" transform="matrix(1 0 0 -1 0 841)" d="M349.593 537.939L349.593 568.92" stroke="#000000" stroke-width="0.398" fill="none" /><path id="508" transform="matrix(1 0 0 -1 0 841)" d="M399.52 537.939L399.52 568.92" stroke="#000000" stroke-width="0.398" fill="none" /><path id="509" transform="matrix(1 0 0 -1 0 841)" d="M349.394 537.939L399.719 537.939" stroke="#000000" stroke-width="0.398" fill="none" /><path id="543" transform="matrix(1 0 0 -1 0 841)" d="M138.286 486.863L172.766 486.863" stroke="#000000" stroke-width="0.436" fill="none" /><path id="553" transform="matrix(1 0 0 -1 0 841)" d="M188.482 486.863L221.807 486.863" stroke="#000000" stroke-width="0.436" fill="none" /><path id="564" transform="matrix(1 0 0 -1 0 841)" d="M236.327 495.312L273.941 495.312" stroke="#000000" stroke-width="0.398" fill="none" /><path id="565" transform="matrix(1 0 0 -1 0 841)" d="M236.526 480.762L236.526 495.312" stroke="#000000" stroke-width="0.398" fill="none" /><path id="566" transform="matrix(1 0 0 -1 0 841)" d="M273.742 480.762L273.742 495.312" stroke="#000000" stroke-width="0.398" fill="none" /><path id="567" transform="matrix(1 0 0 -1 0 841)" d="M236.327 480.762L273.941 480.762" stroke="#000000" stroke-width="0.398" fill="none" /><path id="624" transform="matrix(1 0 0 -1 0 841)" d="M290.874 433.164L329.099 433.164" stroke="#000000" stroke-width="0.398" fill="none" /><path id="625" transform="matrix(1 0 0 -1 0 841)" d="M291.073 418.56L291.073 433.164" stroke="#000000" stroke-width="0.398" fill="none" /><path id="626" transform="matrix(1 0 0 -1 0 841)" d="M328.899 418.56L328.899 433.164" stroke="#000000" stroke-width="0.398" fill="none" /><path id="627" transform="matrix(1 0 0 -1 0 841)" d="M290.874 418.56L329.099 418.56" stroke="#000000" stroke-width="0.398" fill="none" /><path id="728" transform="matrix(1 0 0 -1 0 841)" d="M112.312 344.36L178.422 344.36" stroke="#000000" stroke-width="0.398" fill="none" /><path id="729" transform="matrix(1 0 0 -1 0 841)" d="M112.511 327.135L112.511 344.36" stroke="#000000" stroke-width="0.398" fill="none" /><path id="730" transform="matrix(1 0 0 -1 0 841)" d="M178.223 327.135L178.223 344.36" stroke="#000000" stroke-width="0.398" fill="none" /><path id="731" transform="matrix(1 0 0 -1 0 841)" d="M112.312 327.135L178.422 327.135" stroke="#000000" stroke-width="0.398" fill="none" /><path id="908" transform="matrix(1 0 0 -1 0 841)" d="M172.33 241.273L220.199 241.273" stroke="#000000" stroke-width="0.436" fill="none" /><path id="920" transform="matrix(1 0 0 -1 0 841)" d="M231.12 241.273L275.957 241.273" stroke="#000000" stroke-width="0.436" fill="none" /><path id="939" transform="matrix(1 0 0 -1 0 841)" d="M290.545 249.245L353.446 249.245" stroke="#000000" stroke-width="0.398" fill="none" /><path id="940" transform="matrix(1 0 0 -1 0 841)" d="M290.745 235.189L290.745 249.245" stroke="#000000" stroke-width="0.398" fill="none" /><path id="941" transform="matrix(1 0 0 -1 0 841)" d="M353.247 235.189L353.247 249.245" stroke="#000000" stroke-width="0.398" fill="none" /><path id="942" transform="matrix(1 0 0 -1 0 841)" d="M290.545 235.189L353.446 235.189" stroke="#000000" stroke-width="0.398" fill="none" /><path id="1096" transform="matrix(1 0 0 -1 0 841)" d="M122.137 132.324L325.76 132.324" stroke="#000000" stroke-width="0.436" fill="none" /><path id="1115" transform="matrix(1 0 0 -1 0 841)" d="M213.089 118.628L258.612 118.628" stroke="#000000" stroke-width="0.436" fill="none" /><path id="1143" transform="matrix(1 0 0 -1 0 841)" d="M123.213 99.327L153.006 99.327" stroke="#000000" stroke-width="0.398" fill="none" /><path id="1144" transform="matrix(1 0 0 -1 0 841)" d="M123.412 85.331L123.412 99.327" stroke="#000000" stroke-width="0.398" fill="none" /><path id="1145" transform="matrix(1 0 0 -1 0 841)" d="M152.806 85.331L152.806 99.327" stroke="#000000" stroke-width="0.398" fill="none" /><path id="1146" transform="matrix(1 0 0 -1 0 841)" d="M123.213 85.331L153.006 85.331" stroke="#000000" stroke-width="0.398" fill="none" /></g></g></svg>