<svg xmlns="http://www.w3.org/2000/svg" xmlns:xlink="http://www.w3.org/1999/xlink" id="body_283" preserveAspectRatio="xMinYMin meet" viewBox="0 0 793 1121"><defs><clipPath id="1"><path id="" clip-rule="evenodd" transform="matrix(1 0 0 1 0 0)" d="M0 841L0 -0.8900146L0 -0.8900146L595.276 -0.8900146L595.276 -0.8900146L595.276 841L595.276 841L0 841z" /></clipPath></defs><g transform="matrix(1.333333 0 0 1.333333 0 0)"><g clip-path="url(#1)"><path id="23" transform="matrix(1 0 0 -1 0 841)" d="M85.039 766.564L510.236 766.564" stroke="#000000" stroke-width="0.498" fill="none" /><g transform="matrix(0.2 0 0 0.2 164.54 84.14801)"><g transform="matrix(1 0 0 1 0 0)"><image x="0" y="0" xlink:href="img_274.png" width="1331" height="580" /></g></g><g transform="matrix(0.25 0 0 0.25 137.388 317.308)"><g transform="matrix(1 0 0 1 0 0)"><image x="0" y="0" xlink:href="img_275.png" width="1282" height="516" /></g></g><path id="668" transform="matrix(1 0 0 -1 0 841)" d="M289.207 212.162L323.81 212.162" stroke="#000000" stroke-width="0.436" fill="none" /><path id="806" transform="matrix(1 0 0 -1 0 841)" d="M154.711 103.975L167.681 103.975" stroke="#000000" stroke-width="0.436" fill="none" /><path id="829" transform="matrix(1 0 0 -1 0 841)" d="M252.711 103.975L287.26 103.975" stroke="#000000" stroke-width="0.436" fill="none" /><path id="846" transform="matrix(1 0 0 -1 0 841)" d="M301.78 111.734L351.58 111.734" stroke="#000000" stroke-width="0.398" fill="none" /><path id="847" transform="matrix(1 0 0 -1 0 841)" d="M301.979 97.82L301.979 111.734" stroke="#000000" stroke-width="0.398" fill="none" /><path id="848" transform="matrix(1 0 0 -1 0 841)" d="M351.381 97.82L351.381 111.734" stroke="#000000" stroke-width="0.398" fill="none" /><path id="849" transform="matrix(1 0 0 -1 0 841)" d="M301.78 97.82L351.58 97.82" stroke="#000000" stroke-width="0.398" fill="none" /></g></g></svg>