<svg xmlns="http://www.w3.org/2000/svg" xmlns:xlink="http://www.w3.org/1999/xlink" id="body_361" preserveAspectRatio="xMinYMin meet" viewBox="0 0 793 1121"><defs><clipPath id="1"><path id="" clip-rule="evenodd" transform="matrix(1 0 0 1 0 0)" d="M0 841L0 -0.8900146L0 -0.8900146L595.276 -0.8900146L595.276 -0.8900146L595.276 841L595.276 841L0 841z" /></clipPath><clipPath id="2"><path id="" clip-rule="evenodd" transform="matrix(1 0 0 1 0 0)" d="M-0.139 805.413L595.4166 805.413L595.4166 805.413L595.4166 34.69409L595.4166 34.69409L-0.139 34.69409z" /></clipPath></defs><g transform="matrix(1.333333 0 0 1.333333 0 0)"><g clip-path="url(#1)"><g clip-path="url(#2)"><path id="50" transform="matrix(1 0 0 -1 0 841)" d="M262.9564 658.468L332.3211 658.468L332.3211 658.468L332.3211 671.8972L332.3211 671.8972L262.9564 671.8972z" stroke="none" fill="#FFFF00" fill-rule="evenodd" /><path id="63" transform="matrix(1 0 0 -1 0 841)" d="M427.1429 636.2807L449.9141 636.2807L449.9141 636.2807L449.9141 646.3234L449.9141 646.3234L427.1429 646.3234z" stroke="none" fill="#FFFF00" fill-rule="evenodd" /><path id="545" transform="matrix(1 0 0 -1 0 841)" d="M158.0919 596.4601L457.8539 596.4601L457.8539 596.9272L158.0919 596.9272z" stroke="none" fill="#0000FF" fill-rule="nonzero" /><path id="546" transform="matrix(1 0 0 -1 0 841)" d="M87.4427 564.4636L310.4841 564.4636L310.4841 564.4636L310.4841 580.1116L310.4841 580.1116L87.4427 580.1116z" stroke="none" fill="#C1C1C1" fill-rule="evenodd" /><path id="1259" transform="matrix(1 0 0 -1 0 841)" d="M87.4427 255.4755L310.4841 255.4755L310.4841 255.4755L310.4841 271.1234L310.4841 271.1234L87.4427 271.1234z" stroke="none" fill="#C1C1C1" fill-rule="evenodd" /></g></g></g></svg>