<svg xmlns="http://www.w3.org/2000/svg" xmlns:xlink="http://www.w3.org/1999/xlink" id="body_275" preserveAspectRatio="xMinYMin meet" viewBox="0 0 793 1121"><defs><clipPath id="1"><path id="" clip-rule="evenodd" transform="matrix(1 0 0 1 0 0)" d="M0 841L0 -0.8900146L0 -0.8900146L595.276 -0.8900146L595.276 -0.8900146L595.276 841L595.276 841L0 841z" /></clipPath></defs><g transform="matrix(1.333333 0 0 1.333333 0 0)"><g clip-path="url(#1)"><path id="22" transform="matrix(1 0 0 -1 0 841)" d="M85.039 766.564L510.236 766.564" stroke="#000000" stroke-width="0.498" fill="none" /><path id="70" transform="matrix(1 0 0 -1 0 841)" d="M336.134 744.742L368.796 744.742" stroke="#000000" stroke-width="0.436" fill="none" /><path id="77" transform="matrix(1 0 0 -1 0 841)" d="M379.672 744.742L439.598 744.742" stroke="#000000" stroke-width="0.436" fill="none" /><path id="118" transform="matrix(1 0 0 -1 0 841)" d="M228.254 713.395L260.916 713.395" stroke="#000000" stroke-width="0.436" fill="none" /><path id="125" transform="matrix(1 0 0 -1 0 841)" d="M271.791 713.395L331.717 713.395" stroke="#000000" stroke-width="0.436" fill="none" /><path id="308" transform="matrix(1 0 0 -1 0 841)" d="M314.041 652.188L394.135 652.188" stroke="#000000" stroke-width="0.398" fill="none" /><path id="309" transform="matrix(1 0 0 -1 0 841)" d="M314.241 638.192L314.241 652.188" stroke="#000000" stroke-width="0.398" fill="none" /><path id="310" transform="matrix(1 0 0 -1 0 841)" d="M393.936 638.192L393.936 652.188" stroke="#000000" stroke-width="0.398" fill="none" /><path id="311" transform="matrix(1 0 0 -1 0 841)" d="M314.041 638.192L394.135 638.192" stroke="#000000" stroke-width="0.398" fill="none" /><path id="522" transform="matrix(1 0 0 -1 0 841)" d="M112.312 573.774L160.901 573.774" stroke="#000000" stroke-width="0.398" fill="none" /><path id="523" transform="matrix(1 0 0 -1 0 841)" d="M112.511 556.549L112.511 573.774" stroke="#000000" stroke-width="0.398" fill="none" /><path id="524" transform="matrix(1 0 0 -1 0 841)" d="M160.702 556.549L160.702 573.774" stroke="#000000" stroke-width="0.398" fill="none" /><path id="525" transform="matrix(1 0 0 -1 0 841)" d="M112.312 556.549L160.901 556.549" stroke="#000000" stroke-width="0.398" fill="none" /><path id="743" transform="matrix(1 0 0 -1 0 841)" d="M301.358 500.359L349.947 500.359" stroke="#000000" stroke-width="0.398" fill="none" /><path id="744" transform="matrix(1 0 0 -1 0 841)" d="M301.558 483.134L301.558 500.359" stroke="#000000" stroke-width="0.398" fill="none" /><path id="745" transform="matrix(1 0 0 -1 0 841)" d="M349.748 483.134L349.748 500.359" stroke="#000000" stroke-width="0.398" fill="none" /><path id="746" transform="matrix(1 0 0 -1 0 841)" d="M301.358 483.134L349.947 483.134" stroke="#000000" stroke-width="0.398" fill="none" /><path id="964" transform="matrix(1 0 0 -1 0 841)" d="M204.694 371.2L218.025 371.2" stroke="#000000" stroke-width="0.436" fill="none" /><path id="1185" transform="matrix(1 0 0 -1 0 841)" d="M162.348 259.617L210.565 259.617" stroke="#000000" stroke-width="0.436" fill="none" /><path id="1194" transform="matrix(1 0 0 -1 0 841)" d="M242.066 259.617L258.386 259.617" stroke="#000000" stroke-width="0.436" fill="none" /><path id="1216" transform="matrix(1 0 0 -1 0 841)" d="M321.971 259.617L370.188 259.617" stroke="#000000" stroke-width="0.436" fill="none" /><path id="1237" transform="matrix(1 0 0 -1 0 841)" d="M416.814 259.617L472.558 259.617" stroke="#000000" stroke-width="0.436" fill="none" /><path id="1252" transform="matrix(1 0 0 -1 0 841)" d="M167.224 216.455L183.544 216.455" stroke="#000000" stroke-width="0.436" fill="none" /><path id="1262" transform="matrix(1 0 0 -1 0 841)" d="M210.168 216.455L285.293 216.455" stroke="#000000" stroke-width="0.436" fill="none" /><path id="1284" transform="matrix(1 0 0 -1 0 841)" d="M326.215 216.455L342.535 216.455" stroke="#000000" stroke-width="0.436" fill="none" /><path id="1288" transform="matrix(1 0 0 -1 0 841)" d="M305.268 231.812L347.117 231.812" stroke="#000000" stroke-width="0.398" fill="none" /><path id="1289" transform="matrix(1 0 0 -1 0 841)" d="M305.468 200.831L305.468 231.812" stroke="#000000" stroke-width="0.398" fill="none" /><path id="1290" transform="matrix(1 0 0 -1 0 841)" d="M346.918 200.831L346.918 231.812" stroke="#000000" stroke-width="0.398" fill="none" /><path id="1291" transform="matrix(1 0 0 -1 0 841)" d="M305.268 200.831L347.117 200.831" stroke="#000000" stroke-width="0.398" fill="none" /><path id="1425" transform="matrix(1 0 0 -1 0 841)" d="M148.65 125.555L313.425 125.555" stroke="#000000" stroke-width="0.436" fill="none" /><path id="1467" transform="matrix(1 0 0 -1 0 841)" d="M353.686 125.555L437.277 125.555" stroke="#000000" stroke-width="0.436" fill="none" /><path id="1491" transform="matrix(1 0 0 -1 0 841)" d="M472.744 125.555L488.497 125.555" stroke="#000000" stroke-width="0.436" fill="none" /><path id="1495" transform="matrix(1 0 0 -1 0 841)" d="M451.797 140.797L493.079 140.797" stroke="#000000" stroke-width="0.398" fill="none" /><path id="1496" transform="matrix(1 0 0 -1 0 841)" d="M451.997 109.794L451.997 140.797" stroke="#000000" stroke-width="0.398" fill="none" /><path id="1497" transform="matrix(1 0 0 -1 0 841)" d="M492.88 109.794L492.88 140.797" stroke="#000000" stroke-width="0.398" fill="none" /><path id="1498" transform="matrix(1 0 0 -1 0 841)" d="M451.797 109.794L493.079 109.794" stroke="#000000" stroke-width="0.398" fill="none" /></g></g></svg>