<svg xmlns="http://www.w3.org/2000/svg" xmlns:xlink="http://www.w3.org/1999/xlink" id="body_323" preserveAspectRatio="xMinYMin meet" viewBox="0 0 793 1121"><defs><clipPath id="1"><path id="" clip-rule="evenodd" transform="matrix(1 0 0 1 0 0)" d="M0 841L0 -0.8900146L0 -0.8900146L595.276 -0.8900146L595.276 -0.8900146L595.276 841L595.276 841L0 841z" /></clipPath></defs><g transform="matrix(1.333333 0 0 1.333333 0 0)"><g clip-path="url(#1)"><path id="22" transform="matrix(1 0 0 -1 0 841)" d="M85.039 766.564L510.236 766.564" stroke="#000000" stroke-width="0.498" fill="none" /><path id="26" transform="matrix(1 0 0 -1 0 841)" d="M112.312 752.865L158.352 752.865L158.352 756.85L112.312 756.85z" stroke="none" fill="#000000" fill-rule="nonzero" /><path id="27" transform="matrix(1 0 0 -1 0 841)" d="M112.312 718.189L116.297 718.189L116.297 754.8571L112.312 754.8571z" stroke="none" fill="#000000" fill-rule="nonzero" /><path id="28" transform="matrix(1 0 0 -1 0 841)" d="M154.367 718.189L158.352 718.189L158.352 754.8571L154.367 754.8571z" stroke="none" fill="#000000" fill-rule="nonzero" /><path id="29" transform="matrix(1 0 0 -1 0 841)" d="M112.312 716.197L158.352 716.197L158.352 720.182L112.312 720.182z" stroke="none" fill="#000000" fill-rule="nonzero" /><path id="73" transform="matrix(1 0 0 -1 0 841)" d="M112.312 683.882L173.254 683.882L173.254 687.867L112.312 687.867z" stroke="none" fill="#000000" fill-rule="nonzero" /><path id="74" transform="matrix(1 0 0 -1 0 841)" d="M112.312 651.593L116.297 651.593L116.297 685.875L112.312 685.875z" stroke="none" fill="#000000" fill-rule="nonzero" /><path id="75" transform="matrix(1 0 0 -1 0 841)" d="M169.269 651.593L173.254 651.593L173.254 685.875L169.269 685.875z" stroke="none" fill="#000000" fill-rule="nonzero" /><path id="76" transform="matrix(1 0 0 -1 0 841)" d="M112.312 649.6L173.254 649.6L173.254 653.585L112.312 653.585z" stroke="none" fill="#000000" fill-rule="nonzero" /><path id="123" transform="matrix(1 0 0 -1 0 841)" d="M112.312 611.616L178.708 611.616L178.708 615.601L112.312 615.601z" stroke="none" fill="#000000" fill-rule="nonzero" /><path id="124" transform="matrix(1 0 0 -1 0 841)" d="M112.312 579.327L116.297 579.327L116.297 613.609L112.312 613.609z" stroke="none" fill="#000000" fill-rule="nonzero" /><path id="125" transform="matrix(1 0 0 -1 0 841)" d="M174.723 579.327L178.708 579.327L178.708 613.609L174.723 613.609z" stroke="none" fill="#000000" fill-rule="nonzero" /><path id="126" transform="matrix(1 0 0 -1 0 841)" d="M112.312 577.334L178.708 577.334L178.708 581.319L112.312 581.319z" stroke="none" fill="#000000" fill-rule="nonzero" /><path id="149" transform="matrix(1 0 0 -1 0 841)" d="M190.198 558.56L220.492 558.56" stroke="#000000" stroke-width="0.436" fill="none" /><path id="169" transform="matrix(1 0 0 -1 0 841)" d="M112.312 533.806L173.254 533.806L173.254 537.791L112.312 537.791z" stroke="none" fill="#000000" fill-rule="nonzero" /><path id="170" transform="matrix(1 0 0 -1 0 841)" d="M112.312 501.445L116.297 501.445L116.297 535.798L112.312 535.798z" stroke="none" fill="#000000" fill-rule="nonzero" /><path id="171" transform="matrix(1 0 0 -1 0 841)" d="M169.269 501.445L173.254 501.445L173.254 535.798L169.269 535.798z" stroke="none" fill="#000000" fill-rule="nonzero" /><path id="172" transform="matrix(1 0 0 -1 0 841)" d="M112.312 499.453L173.254 499.453L173.254 503.438L112.312 503.438z" stroke="none" fill="#000000" fill-rule="nonzero" /><path id="210" transform="matrix(1 0 0 -1 0 841)" d="M112.312 461.469L159.323 461.469L159.323 465.454L112.312 465.454z" stroke="none" fill="#000000" fill-rule="nonzero" /><path id="211" transform="matrix(1 0 0 -1 0 841)" d="M112.312 429.332L116.297 429.332L116.297 463.461L112.312 463.461z" stroke="none" fill="#000000" fill-rule="nonzero" /><path id="212" transform="matrix(1 0 0 -1 0 841)" d="M155.338 429.332L159.323 429.332L159.323 463.461L155.338 463.461z" stroke="none" fill="#000000" fill-rule="nonzero" /><path id="213" transform="matrix(1 0 0 -1 0 841)" d="M112.312 427.339L159.323 427.339L159.323 431.324L112.312 431.324z" stroke="none" fill="#000000" fill-rule="nonzero" /></g></g></svg>