<svg xmlns="http://www.w3.org/2000/svg" xmlns:xlink="http://www.w3.org/1999/xlink" id="body_349" preserveAspectRatio="xMinYMin meet" viewBox="0 0 793 1121"><defs><clipPath id="1"><path id="" clip-rule="evenodd" transform="matrix(1 0 0 1 0 0)" d="M0 841L0 -0.8900146L0 -0.8900146L595.276 -0.8900146L595.276 -0.8900146L595.276 841L595.276 841L0 841z" /></clipPath></defs><g transform="matrix(1.333333 0 0 1.333333 0 0)"><g clip-path="url(#1)"><path id="22" transform="matrix(1 0 0 -1 0 841)" d="M85.039 766.564L510.236 766.564" stroke="#000000" stroke-width="0.498" fill="none" /><path id="46" transform="matrix(1 0 0 -1 0 841)" d="M151.905 726.013L190.294 726.013" stroke="#000000" stroke-width="0.436" fill="none" /><path id="67" transform="matrix(1 0 0 -1 0 841)" d="M204.814 733.925L258.235 733.925" stroke="#000000" stroke-width="0.398" fill="none" /><path id="68" transform="matrix(1 0 0 -1 0 841)" d="M205.013 719.858L205.013 733.925" stroke="#000000" stroke-width="0.398" fill="none" /><path id="69" transform="matrix(1 0 0 -1 0 841)" d="M258.036 719.858L258.036 733.925" stroke="#000000" stroke-width="0.398" fill="none" /><path id="70" transform="matrix(1 0 0 -1 0 841)" d="M204.814 719.858L258.235 719.858" stroke="#000000" stroke-width="0.398" fill="none" /><path id="232" transform="matrix(1 0 0 -1 0 841)" d="M283.701 639.6591L295.0396 639.6591" stroke="#000000" stroke-width="1.59404" fill="none" /><path id="233" transform="matrix(1 0 0 -1 0 841)" d="M181.6524 594.304L227.0074 594.304" stroke="#000000" stroke-width="1.59404" fill="none" /><path id="234" transform="matrix(1 0 0 -1 0 841)" d="M227.0074 594.304L283.701 639.6591" stroke="#000000" stroke-width="1.59404" fill="none" /><path id="235" transform="matrix(1 0 0 -1 0 841)" d="M295.0396 594.7025L295.0396 638.1265" stroke="#000000" stroke-width="0.3985" fill="none" /><path id="236" transform="matrix(1 0 0 -1 0 841)" d="M297.4307 596.5755C 295.996 596.1969 295.3186 595.3532 295.0396 594.5032C 294.7607 595.3532 294.0832 596.1969 292.6486 596.5755" stroke="#000000" stroke-width="0.3985" stroke-linecap="round" fill="none" /><path id="237" transform="matrix(1 0 0 -1 0 841)" d="M292.6486 636.2534C 294.0832 636.632 294.7607 637.4757 295.0396 638.3257C 295.3186 637.4757 295.996 636.632 297.4307 636.2534" stroke="#000000" stroke-width="0.3985" stroke-linecap="round" fill="none" /><g transform="matrix(0.027675 0 0 0.027675 202.913 233.3734)"><g transform="matrix(1 0 0 1 0 0)"><image x="0" y="0" xlink:href="img_492.png" width="512" height="512" /></g></g><g transform="matrix(0.027675 0 0 0.027675 287.952 188.0194)"><g transform="matrix(1 0 0 1 0 0)"><image x="0" y="0" xlink:href="img_492.png" width="512" height="512" /></g></g><path id="243" transform="matrix(1 0 0 -1 0 841)" d="M238.346 594.304C 293.9055 653.8325 296.1737 653.8325 351.7332 594.304" stroke="#000000" stroke-width="0.3985" fill="none" /><path id="447" transform="matrix(1 0 0 -1 0 841)" d="M261.963 519.828L300.352 519.828" stroke="#000000" stroke-width="0.436" fill="none" /><path id="534" transform="matrix(1 0 0 -1 0 841)" d="M308.717 492.527L350.095 492.527" stroke="#000000" stroke-width="0.398" fill="none" /><path id="535" transform="matrix(1 0 0 -1 0 841)" d="M308.916 476.54L308.916 492.527" stroke="#000000" stroke-width="0.398" fill="none" /><path id="536" transform="matrix(1 0 0 -1 0 841)" d="M349.896 476.54L349.896 492.527" stroke="#000000" stroke-width="0.398" fill="none" /><path id="537" transform="matrix(1 0 0 -1 0 841)" d="M308.717 476.54L350.095 476.54" stroke="#000000" stroke-width="0.398" fill="none" /><path id="740" transform="matrix(1 0 0 -1 0 841)" d="M201.267 342.284L272.654 342.284" stroke="#000000" stroke-width="0.436" fill="none" /><path id="767" transform="matrix(1 0 0 -1 0 841)" d="M287.174 350.043L389.112 350.043" stroke="#000000" stroke-width="0.398" fill="none" /><path id="768" transform="matrix(1 0 0 -1 0 841)" d="M287.373 334.143L287.373 350.043" stroke="#000000" stroke-width="0.398" fill="none" /><path id="769" transform="matrix(1 0 0 -1 0 841)" d="M388.913 334.143L388.913 350.043" stroke="#000000" stroke-width="0.398" fill="none" /><path id="770" transform="matrix(1 0 0 -1 0 841)" d="M287.174 334.143L389.112 334.143" stroke="#000000" stroke-width="0.398" fill="none" /><path id="811" transform="matrix(1 0 0 -1 0 841)" d="M172.203 294.748L191.588 294.748" stroke="#000000" stroke-width="0.436" fill="none" /><path id="829" transform="matrix(1 0 0 -1 0 841)" d="M206.108 302.719L298.61 302.719" stroke="#000000" stroke-width="0.398" fill="none" /><path id="830" transform="matrix(1 0 0 -1 0 841)" d="M206.307 286.607L206.307 302.719" stroke="#000000" stroke-width="0.398" fill="none" /><path id="831" transform="matrix(1 0 0 -1 0 841)" d="M298.411 286.607L298.411 302.719" stroke="#000000" stroke-width="0.398" fill="none" /><path id="832" transform="matrix(1 0 0 -1 0 841)" d="M206.108 286.607L298.61 286.607" stroke="#000000" stroke-width="0.398" fill="none" /><g transform="matrix(0.06 0 0 0.06 112.312 629.241)"><g transform="matrix(1 0 0 1 0 0)"><image x="0" y="0" xlink:href="img_426.png" width="3009" height="713" /></g></g><g transform="matrix(0.06981818 0 0 0.06981815 112.312 678.6877)"><g transform="matrix(1 0 0 1 0 0)"><image x="0" y="0" xlink:href="img_493.png" width="1585" height="521" /></g></g><path id="959" transform="matrix(1 0 0 -1 0 841)" d="M251.883 128.665L291.265 128.665" stroke="#000000" stroke-width="0.436" fill="none" /><path id="975" transform="matrix(1 0 0 -1 0 841)" d="M333.654 136.576L360.425 136.576" stroke="#000000" stroke-width="0.398" fill="none" /><path id="976" transform="matrix(1 0 0 -1 0 841)" d="M333.854 122.58L333.854 136.576" stroke="#000000" stroke-width="0.398" fill="none" /><path id="977" transform="matrix(1 0 0 -1 0 841)" d="M360.226 122.58L360.226 136.576" stroke="#000000" stroke-width="0.398" fill="none" /><path id="978" transform="matrix(1 0 0 -1 0 841)" d="M333.654 122.58L360.425 122.58" stroke="#000000" stroke-width="0.398" fill="none" /></g></g></svg>