<svg xmlns="http://www.w3.org/2000/svg" xmlns:xlink="http://www.w3.org/1999/xlink" id="body_62" preserveAspectRatio="xMinYMin meet" viewBox="0 0 793 1121"><defs><clipPath id="1"><path id="" clip-rule="evenodd" transform="matrix(1 0 0 1 0 0)" d="M0 841L0 -0.8900146L0 -0.8900146L595.276 -0.8900146L595.276 -0.8900146L595.276 841L595.276 841L0 841z" /></clipPath></defs><g transform="matrix(1.333333 0 0 1.333333 0 0)"><g clip-path="url(#1)"><path id="45" transform="matrix(1 0 0 -1 0 841)" d="M85.039 766.564L510.236 766.564" stroke="#000000" stroke-width="0.498" fill="none" /><path id="1441" transform="matrix(1 0 0 -1 0 841)" d="M136.063 269.049L152.314 269.049" stroke="#000000" stroke-width="0.491" fill="none" /><path id="1445" transform="matrix(1 0 0 -1 0 841)" d="M151.863 269.049L168.725 269.049" stroke="#000000" stroke-width="0.491" fill="none" /><path id="1449" transform="matrix(1 0 0 -1 0 841)" d="M168.276 269.049L181.494 269.049" stroke="#000000" stroke-width="0.491" fill="none" /><path id="1453" transform="matrix(1 0 0 -1 0 841)" d="M181.283 269.049L184.008 269.049" stroke="#000000" stroke-width="0.491" fill="none" /><path id="1454" transform="matrix(1 0 0 -1 0 841)" d="M183.758 269.049L203.641 269.049" stroke="#000000" stroke-width="0.491" fill="none" /><path id="1459" transform="matrix(1 0 0 -1 0 841)" d="M203.202 269.049L222.485 269.049" stroke="#000000" stroke-width="0.491" fill="none" /><path id="1464" transform="matrix(1 0 0 -1 0 841)" d="M222.292 269.049L225.017 269.049" stroke="#000000" stroke-width="0.491" fill="none" /><path id="1465" transform="matrix(1 0 0 -1 0 841)" d="M224.768 269.049L234.353 269.049" stroke="#000000" stroke-width="0.491" fill="none" /><path id="1468" transform="matrix(1 0 0 -1 0 841)" d="M234.132 269.049L236.857 269.049" stroke="#000000" stroke-width="0.491" fill="none" /><path id="1469" transform="matrix(1 0 0 -1 0 841)" d="M236.607 269.049L253.468 269.049" stroke="#000000" stroke-width="0.491" fill="none" /><path id="1473" transform="matrix(1 0 0 -1 0 841)" d="M253.02 269.049L264.427 269.049" stroke="#000000" stroke-width="0.491" fill="none" /><path id="1476" transform="matrix(1 0 0 -1 0 841)" d="M263.962 269.049L282.024 269.049" stroke="#000000" stroke-width="0.491" fill="none" /><path id="1481" transform="matrix(1 0 0 -1 0 841)" d="M281.827 269.049L284.552 269.049" stroke="#000000" stroke-width="0.491" fill="none" /><path id="1482" transform="matrix(1 0 0 -1 0 841)" d="M284.303 269.049L304.186 269.049" stroke="#000000" stroke-width="0.491" fill="none" /><path id="1487" transform="matrix(1 0 0 -1 0 841)" d="M303.746 269.049L323.029 269.049" stroke="#000000" stroke-width="0.491" fill="none" /><path id="1657" transform="matrix(1 0 0 -1 0 841)" d="M136.063 200.845L155.347 200.845" stroke="#000000" stroke-width="0.491" fill="none" /><path id="1661" transform="matrix(1 0 0 -1 0 841)" d="M154.849 200.845L158.98 200.845" stroke="#000000" stroke-width="0.491" fill="none" /><path id="1663" transform="matrix(1 0 0 -1 0 841)" d="M158.481 200.845L172.299 200.845" stroke="#000000" stroke-width="0.491" fill="none" /><path id="1667" transform="matrix(1 0 0 -1 0 841)" d="M171.801 200.845L188.663 200.845" stroke="#000000" stroke-width="0.491" fill="none" /><path id="1671" transform="matrix(1 0 0 -1 0 841)" d="M188.165 200.845L201.383 200.845" stroke="#000000" stroke-width="0.491" fill="none" /><path id="1675" transform="matrix(1 0 0 -1 0 841)" d="M201.133 200.845L203.86 200.845" stroke="#000000" stroke-width="0.491" fill="none" /><path id="1676" transform="matrix(1 0 0 -1 0 841)" d="M203.612 200.845L223.495 200.845" stroke="#000000" stroke-width="0.491" fill="none" /><path id="1681" transform="matrix(1 0 0 -1 0 841)" d="M222.997 200.845L242.28 200.845" stroke="#000000" stroke-width="0.491" fill="none" /></g></g></svg>