<svg xmlns="http://www.w3.org/2000/svg" xmlns:xlink="http://www.w3.org/1999/xlink" id="body_284" preserveAspectRatio="xMinYMin meet" viewBox="0 0 793 1121"><defs><clipPath id="1"><path id="" clip-rule="evenodd" transform="matrix(1 0 0 1 0 0)" d="M0 841L0 -0.8900146L0 -0.8900146L595.276 -0.8900146L595.276 -0.8900146L595.276 841L595.276 841L0 841z" /></clipPath></defs><g transform="matrix(1.333333 0 0 1.333333 0 0)"><g clip-path="url(#1)"><path id="23" transform="matrix(1 0 0 -1 0 841)" d="M85.039 766.564L510.236 766.564" stroke="#000000" stroke-width="0.498" fill="none" /><path id="173" transform="matrix(1 0 0 -1 0 841)" d="M113.508 655.897L180.11 655.897" stroke="#000000" stroke-width="0.436" fill="none" /><path id="181" transform="matrix(1 0 0 -1 0 841)" d="M190.985 655.897L234.621 655.897" stroke="#000000" stroke-width="0.436" fill="none" /><path id="197" transform="matrix(1 0 0 -1 0 841)" d="M280.109 655.897L356.95 655.897" stroke="#000000" stroke-width="0.436" fill="none" /><path id="224" transform="matrix(1 0 0 -1 0 841)" d="M371.47 663.808L478.863 663.808" stroke="#000000" stroke-width="0.398" fill="none" /><path id="225" transform="matrix(1 0 0 -1 0 841)" d="M371.67 647.756L371.67 663.808" stroke="#000000" stroke-width="0.398" fill="none" /><path id="226" transform="matrix(1 0 0 -1 0 841)" d="M478.664 647.756L478.664 663.808" stroke="#000000" stroke-width="0.398" fill="none" /><path id="227" transform="matrix(1 0 0 -1 0 841)" d="M371.47 647.756L478.863 647.756" stroke="#000000" stroke-width="0.398" fill="none" /><path id="268" transform="matrix(1 0 0 -1 0 841)" d="M173.414 596.87L192.799 596.87" stroke="#000000" stroke-width="0.436" fill="none" /><path id="288" transform="matrix(1 0 0 -1 0 841)" d="M207.319 604.841L308.298 604.841" stroke="#000000" stroke-width="0.398" fill="none" /><path id="289" transform="matrix(1 0 0 -1 0 841)" d="M207.518 588.729L207.518 604.841" stroke="#000000" stroke-width="0.398" fill="none" /><path id="290" transform="matrix(1 0 0 -1 0 841)" d="M308.098 588.729L308.098 604.841" stroke="#000000" stroke-width="0.398" fill="none" /><path id="291" transform="matrix(1 0 0 -1 0 841)" d="M207.319 588.729L308.298 588.729" stroke="#000000" stroke-width="0.398" fill="none" /><path id="436" transform="matrix(1 0 0 -1 0 841)" d="M186.124 500.778L257.511 500.778" stroke="#000000" stroke-width="0.436" fill="none" /><g transform="matrix(0.06 0 0 0.06 112.312 365.049)"><g transform="matrix(1 0 0 1 0 0)"><image x="0" y="0" xlink:href="img_422.png" width="3009" height="713" /></g></g><path id="587" transform="matrix(1 0 0 -1 0 841)" d="M158.147 355.709L325.891 355.709" stroke="#000000" stroke-width="0.436" fill="none" /><path id="622" transform="matrix(1 0 0 -1 0 841)" d="M341.607 355.709L383.408 355.709" stroke="#000000" stroke-width="0.436" fill="none" /><path id="638" transform="matrix(1 0 0 -1 0 841)" d="M397.928 363.468L439.001 363.468" stroke="#000000" stroke-width="0.398" fill="none" /><path id="639" transform="matrix(1 0 0 -1 0 841)" d="M398.128 347.568L398.128 363.468" stroke="#000000" stroke-width="0.398" fill="none" /><path id="640" transform="matrix(1 0 0 -1 0 841)" d="M438.802 347.568L438.802 363.468" stroke="#000000" stroke-width="0.398" fill="none" /><path id="641" transform="matrix(1 0 0 -1 0 841)" d="M397.928 347.569L439.001 347.569" stroke="#000000" stroke-width="0.398" fill="none" /></g></g></svg>