<svg xmlns="http://www.w3.org/2000/svg" xmlns:xlink="http://www.w3.org/1999/xlink" id="body_285" preserveAspectRatio="xMinYMin meet" viewBox="0 0 793 1121"><defs><clipPath id="1"><path id="" clip-rule="evenodd" transform="matrix(1 0 0 1 0 0)" d="M0 841L0 -0.8900146L0 -0.8900146L595.276 -0.8900146L595.276 -0.8900146L595.276 841L595.276 841L0 841z" /></clipPath></defs><g transform="matrix(1.333333 0 0 1.333333 0 0)"><g clip-path="url(#1)"><path id="22" transform="matrix(1 0 0 -1 0 841)" d="M85.039 766.564L510.236 766.564" stroke="#000000" stroke-width="0.498" fill="none" /><path id="155" transform="matrix(1 0 0 -1 0 841)" d="M193.802 713.543L247.289 713.543" stroke="#000000" stroke-width="0.436" fill="none" /><path id="171" transform="matrix(1 0 0 -1 0 841)" d="M263.005 713.543L298.765 713.543" stroke="#000000" stroke-width="0.436" fill="none" /><path id="282" transform="matrix(1 0 0 -1 0 841)" d="M191.31 645.725L244.797 645.725" stroke="#000000" stroke-width="0.436" fill="none" /><path id="308" transform="matrix(1 0 0 -1 0 841)" d="M330.907 645.725L384.394 645.725" stroke="#000000" stroke-width="0.436" fill="none" /><path id="331" transform="matrix(1 0 0 -1 0 841)" d="M478.839 645.725L495.203 645.725" stroke="#000000" stroke-width="0.436" fill="none" /><path id="339" transform="matrix(1 0 0 -1 0 841)" d="M112.312 634.15L136.661 634.15" stroke="#000000" stroke-width="0.398" fill="none" /><path id="340" transform="matrix(1 0 0 -1 0 841)" d="M112.511 620.154L112.511 634.15" stroke="#000000" stroke-width="0.398" fill="none" /><path id="341" transform="matrix(1 0 0 -1 0 841)" d="M136.462 620.154L136.462 634.15" stroke="#000000" stroke-width="0.398" fill="none" /><path id="342" transform="matrix(1 0 0 -1 0 841)" d="M112.312 620.154L136.661 620.154" stroke="#000000" stroke-width="0.398" fill="none" /><path id="562" transform="matrix(1 0 0 -1 0 841)" d="M191.075 540.298L244.562 540.298" stroke="#000000" stroke-width="0.436" fill="none" /><path id="578" transform="matrix(1 0 0 -1 0 841)" d="M260.278 540.298L296.038 540.298" stroke="#000000" stroke-width="0.436" fill="none" /></g></g></svg>