<svg xmlns="http://www.w3.org/2000/svg" xmlns:xlink="http://www.w3.org/1999/xlink" id="body_333" preserveAspectRatio="xMinYMin meet" viewBox="0 0 793 1121"><defs><clipPath id="1"><path id="" clip-rule="evenodd" transform="matrix(1 0 0 1 0 0)" d="M0 841L0 -0.8900146L0 -0.8900146L595.276 -0.8900146L595.276 -0.8900146L595.276 841L595.276 841L0 841z" /></clipPath></defs><g transform="matrix(1.333333 0 0 1.333333 0 0)"><g clip-path="url(#1)"><path id="22" transform="matrix(1 0 0 -1 0 841)" d="M85.039 766.564L510.236 766.564" stroke="#000000" stroke-width="0.498" fill="none" /><path id="69" transform="matrix(1 0 0 -1 0 841)" d="M176.053 696.516L182.926 696.516" stroke="#000000" stroke-width="0.436" fill="none" /><path id="83" transform="matrix(1 0 0 -1 0 841)" d="M259.323 696.516L270.232 696.516" stroke="#000000" stroke-width="0.436" fill="none" /><path id="101" transform="matrix(1 0 0 -1 0 841)" d="M349.969 696.516L366.333 696.516" stroke="#000000" stroke-width="0.436" fill="none" /><path id="156" transform="matrix(1 0 0 -1 0 841)" d="M190.158 653.875L204.089 653.875" stroke="#000000" stroke-width="0.436" fill="none" /><path id="177" transform="matrix(1 0 0 -1 0 841)" d="M292.216 653.875L306.462 653.875" stroke="#000000" stroke-width="0.436" fill="none" /><path id="246" transform="matrix(1 0 0 -1 0 841)" d="M154.094 592.022L168.34 592.022" stroke="#000000" stroke-width="0.436" fill="none" /><path id="258" transform="matrix(1 0 0 -1 0 841)" d="M198.601 592.022L213.099 592.022" stroke="#000000" stroke-width="0.436" fill="none" /><path id="270" transform="matrix(1 0 0 -1 0 841)" d="M234.884 592.022L251.247 592.022" stroke="#000000" stroke-width="0.436" fill="none" /><path id="282" transform="matrix(1 0 0 -1 0 841)" d="M293.196 592.022L309.559 592.022" stroke="#000000" stroke-width="0.436" fill="none" /><path id="286" transform="matrix(1 0 0 -1 0 841)" d="M265.768 615.53L326.079 615.53L326.079 619.515L265.768 619.515z" stroke="none" fill="#000000" fill-rule="nonzero" /><path id="287" transform="matrix(1 0 0 -1 0 841)" d="M265.768 568.36L269.753 568.36L269.753 617.522L265.768 617.522z" stroke="none" fill="#000000" fill-rule="nonzero" /><path id="288" transform="matrix(1 0 0 -1 0 841)" d="M322.094 568.36L326.079 568.36L326.079 617.522L322.094 617.522z" stroke="none" fill="#000000" fill-rule="nonzero" /><path id="289" transform="matrix(1 0 0 -1 0 841)" d="M265.768 566.368L326.079 566.368L326.079 570.353L265.768 570.353z" stroke="none" fill="#000000" fill-rule="nonzero" /><g transform="matrix(0.3 0 0 0.3 112.312 326.506)"><g transform="matrix(1 0 0 1 0 0)"><image x="0" y="0" xlink:href="img_467.png" width="484" height="134" /></g></g><path id="422" transform="matrix(1 0 0 -1 0 841)" d="M404.3 451.581L412.176 451.581" stroke="#000000" stroke-width="0.436" fill="none" /><path id="529" transform="matrix(1 0 0 -1 0 841)" d="M121.013 369.389L134.944 369.389" stroke="#000000" stroke-width="0.436" fill="none" /><path id="543" transform="matrix(1 0 0 -1 0 841)" d="M165.186 381.246L179.432 381.246" stroke="#000000" stroke-width="0.436" fill="none" /><path id="547" transform="matrix(1 0 0 -1 0 841)" d="M150.659 369.389L180.627 369.389" stroke="#000000" stroke-width="0.436" fill="none" /><path id="590" transform="matrix(1 0 0 -1 0 841)" d="M167.588 316.868L174.461 316.868" stroke="#000000" stroke-width="0.436" fill="none" /><path id="605" transform="matrix(1 0 0 -1 0 841)" d="M250.857 316.868L261.766 316.868" stroke="#000000" stroke-width="0.436" fill="none" /><path id="624" transform="matrix(1 0 0 -1 0 841)" d="M341.504 316.868L363.322 316.868" stroke="#000000" stroke-width="0.436" fill="none" /><path id="642" transform="matrix(1 0 0 -1 0 841)" d="M145.853 279.273L159.784 279.273" stroke="#000000" stroke-width="0.436" fill="none" /><path id="656" transform="matrix(1 0 0 -1 0 841)" d="M175.499 279.273L220.04 279.273" stroke="#000000" stroke-width="0.436" fill="none" /><path id="675" transform="matrix(1 0 0 -1 0 841)" d="M234.56 296.007L308.286 296.007L308.286 299.992L234.56 299.992z" stroke="none" fill="#000000" fill-rule="nonzero" /><path id="676" transform="matrix(1 0 0 -1 0 841)" d="M234.56 260.488L238.545 260.488L238.545 297.999L234.56 297.999z" stroke="none" fill="#000000" fill-rule="nonzero" /><path id="677" transform="matrix(1 0 0 -1 0 841)" d="M304.301 260.488L308.286 260.488L308.286 297.999L304.301 297.999z" stroke="none" fill="#000000" fill-rule="nonzero" /><path id="678" transform="matrix(1 0 0 -1 0 841)" d="M234.56 258.495L308.286 258.495L308.286 262.48L234.56 262.48z" stroke="none" fill="#000000" fill-rule="nonzero" /><g transform="matrix(0.3 0 0 0.3 112.312 662.653)"><g transform="matrix(1 0 0 1 0 0)"><image x="0" y="0" xlink:href="img_392.png" width="474" height="243" /></g></g><path id="857" transform="matrix(1 0 0 -1 0 841)" d="M205.458 91.238L213.334 91.238" stroke="#000000" stroke-width="0.436" fill="none" /></g></g></svg>