<svg xmlns="http://www.w3.org/2000/svg" xmlns:xlink="http://www.w3.org/1999/xlink" id="body_186" preserveAspectRatio="xMinYMin meet" viewBox="0 0 793 1121"><defs><clipPath id="1"><path id="" clip-rule="evenodd" transform="matrix(1 0 0 1 0 0)" d="M0 841L0 -0.8900146L0 -0.8900146L595.276 -0.8900146L595.276 -0.8900146L595.276 841L595.276 841L0 841z" /></clipPath></defs><g transform="matrix(1.333333 0 0 1.333333 0 0)"><g clip-path="url(#1)"><path id="23" transform="matrix(1 0 0 -1 0 841)" d="M85.039 766.564L510.236 766.564" stroke="#000000" stroke-width="0.498" fill="none" /><path id="140" transform="matrix(1 0 0 -1 0 841)" d="M113.169 703.974L200.549 703.974" stroke="#000000" stroke-width="0.436" fill="none" /><path id="184" transform="matrix(1 0 0 -1 0 841)" d="M266.867 703.974L365.156 703.974" stroke="#000000" stroke-width="0.436" fill="none" /><path id="350" transform="matrix(1 0 0 -1 0 841)" d="M434.9808 566.588L349.9404 566.588L349.9404 566.588L349.9404 481.5475L349.9404 481.5475L434.9808 481.5475z" stroke="#000000" stroke-width="0.3985" fill="none" /><path id="351" transform="matrix(1 0 0 -1 0 841)" d="M434.9808 566.588L467.7209 599.328L467.7209 599.328L467.7209 514.2876L467.7209 514.2876L434.9808 481.5475z" stroke="#000000" stroke-width="0.3985" fill="none" /><path id="352" transform="matrix(1 0 0 -1 0 841)" d="M434.9808 566.588L349.9404 566.588L349.9404 566.588L382.6805 599.328L382.6805 599.328L467.7209 599.328z" stroke="#000000" stroke-width="0.3985" fill="none" /><path id="380" transform="matrix(1 0 0 -1 0 841)" d="M159.053 593.014L182.495 593.014" stroke="#000000" stroke-width="0.398" fill="none" /><path id="429" transform="matrix(1 0 0 -1 0 841)" d="M215.545 538.9589L265.388 538.9589" stroke="#000000" stroke-width="0.398" fill="none" /><g transform="matrix(0.2 0 0 0.2 164.54 513.73)"><g transform="matrix(1 0 0 1 0 0)"><image x="0" y="0" xlink:href="img_278.png" width="1331" height="580" /></g></g></g></g></svg>