<svg xmlns="http://www.w3.org/2000/svg" xmlns:xlink="http://www.w3.org/1999/xlink" id="body_338" preserveAspectRatio="xMinYMin meet" viewBox="0 0 793 1121"><defs><clipPath id="1"><path id="" clip-rule="evenodd" transform="matrix(1 0 0 1 0 0)" d="M0 841L0 -0.8900146L0 -0.8900146L595.276 -0.8900146L595.276 -0.8900146L595.276 841L595.276 841L0 841z" /></clipPath></defs><g transform="matrix(1.333333 0 0 1.333333 0 0)"><g clip-path="url(#1)"><path id="22" transform="matrix(1 0 0 -1 0 841)" d="M85.039 766.564L510.236 766.564" stroke="#000000" stroke-width="0.498" fill="none" /><path id="715" transform="matrix(1 0 0 -1 0 841)" d="M354.3337 453.1804C 354.3337 476.664 335.297 495.7006 311.8135 495.7006C 288.3299 495.7006 269.2933 476.664 269.2933 453.1804C 269.2933 429.6969 288.3299 410.6602 311.8135 410.6602C 335.297 410.6602 354.3337 429.6969 354.3337 453.1804z" stroke="#000000" stroke-width="0.3985" fill="#F2F2F2" fill-rule="nonzero" /><path id="716" transform="matrix(1 0 0 -1 0 841)" d="M269.2932 453.1804L354.3337 453.1804" stroke="#000000" stroke-width="1.19553" fill="none" /><path id="743" transform="matrix(1 0 0 -1 0 841)" d="M289.1359 416.3295L311.8135 453.1804" stroke="#000000" stroke-width="1.19553" fill="none" /><path id="744" transform="matrix(1 0 0 -1 0 841)" d="M334.491 416.3295L311.8135 453.1804" stroke="#000000" stroke-width="1.19553" fill="none" /><path id="748" transform="matrix(1 0 0 -1 0 841)" d="M113.508 333.247L129.261 333.247" stroke="#000000" stroke-width="0.436" fill="none" /><path id="759" transform="matrix(1 0 0 -1 0 841)" d="M167.132 333.247L184.706 333.247" stroke="#000000" stroke-width="0.436" fill="none" /><path id="779" transform="matrix(1 0 0 -1 0 841)" d="M257.392 333.247L271.334 333.247" stroke="#000000" stroke-width="0.436" fill="none" /><path id="789" transform="matrix(1 0 0 -1 0 841)" d="M113.508 298.453L129.261 298.453" stroke="#000000" stroke-width="0.436" fill="none" /><path id="807" transform="matrix(1 0 0 -1 0 841)" d="M155.885 298.453L187.346 298.453" stroke="#000000" stroke-width="0.436" fill="none" /><path id="823" transform="matrix(1 0 0 -1 0 841)" d="M220.04 298.453L237.014 298.453" stroke="#000000" stroke-width="0.436" fill="none" /><path id="830" transform="matrix(1 0 0 -1 0 841)" d="M247.891 298.453L331.456 298.453" stroke="#000000" stroke-width="0.436" fill="none" /><path id="856" transform="matrix(1 0 0 -1 0 841)" d="M353.241 298.453L367.183 298.453" stroke="#000000" stroke-width="0.436" fill="none" /><path id="871" transform="matrix(1 0 0 -1 0 841)" d="M433.541 298.453L449.861 298.453" stroke="#000000" stroke-width="0.436" fill="none" /><path id="875" transform="matrix(1 0 0 -1 0 841)" d="M409.573 313.81L454.444 313.81" stroke="#000000" stroke-width="0.398" fill="none" /><path id="876" transform="matrix(1 0 0 -1 0 841)" d="M409.772 282.828L409.772 313.809" stroke="#000000" stroke-width="0.398" fill="none" /><path id="877" transform="matrix(1 0 0 -1 0 841)" d="M454.244 282.828L454.244 313.809" stroke="#000000" stroke-width="0.398" fill="none" /><path id="878" transform="matrix(1 0 0 -1 0 841)" d="M409.573 282.828L454.444 282.828" stroke="#000000" stroke-width="0.398" fill="none" /><path id="1033" transform="matrix(1 0 0 -1 0 841)" d="M354.3337 170.0794C 354.3337 193.563 335.297 212.5996 311.8135 212.5996C 288.3299 212.5996 269.2933 193.563 269.2933 170.0794C 269.2933 146.5959 288.3299 127.5592 311.8135 127.5592C 335.297 127.5592 354.3337 146.5959 354.3337 170.0794z" stroke="#000000" stroke-width="0.3985" fill="#F2F2F2" fill-rule="nonzero" /><path id="1034" transform="matrix(1 0 0 -1 0 841)" d="M269.2932 170.0794L354.3337 170.0794" stroke="#000000" stroke-width="1.19553" fill="none" /><path id="1063" transform="matrix(1 0 0 -1 0 841)" d="M289.1359 133.2285L311.8135 170.0794" stroke="#000000" stroke-width="1.19553" fill="none" /><path id="1064" transform="matrix(1 0 0 -1 0 841)" d="M334.491 133.2285L311.8135 170.0794" stroke="#000000" stroke-width="1.19553" fill="none" /></g></g></svg>