<svg xmlns="http://www.w3.org/2000/svg" xmlns:xlink="http://www.w3.org/1999/xlink" id="body_260" preserveAspectRatio="xMinYMin meet" viewBox="0 0 793 1121"><defs><clipPath id="1"><path id="" clip-rule="evenodd" transform="matrix(1 0 0 1 0 0)" d="M0 841L0 -0.8900146L0 -0.8900146L595.276 -0.8900146L595.276 -0.8900146L595.276 841L595.276 841L0 841z" /></clipPath></defs><g transform="matrix(1.333333 0 0 1.333333 0 0)"><g clip-path="url(#1)"><path id="23" transform="matrix(1 0 0 -1 0 841)" d="M85.039 766.564L510.236 766.564" stroke="#000000" stroke-width="0.498" fill="none" /><path id="24" transform="matrix(1 0 0 -1 0 841)" d="M85.039 756.651L563.688 756.651" stroke="#000000" stroke-width="0.398" fill="none" /><path id="25" transform="matrix(1 0 0 -1 0 841)" d="M85.239 742.903L85.239 756.452" stroke="#000000" stroke-width="0.398" fill="none" /><path id="62" transform="matrix(1 0 0 -1 0 841)" d="M563.489 742.903L563.489 756.452" stroke="#000000" stroke-width="0.398" fill="none" /><path id="63" transform="matrix(1 0 0 -1 0 841)" d="M85.039 742.703L563.688 742.703" stroke="#000000" stroke-width="0.398" fill="none" /><path id="64" transform="matrix(1 0 0 -1 0 841)" d="M85.239 728.955L85.239 742.504" stroke="#000000" stroke-width="0.398" fill="none" /><path id="119" transform="matrix(1 0 0 -1 0 841)" d="M563.489 728.955L563.489 742.504" stroke="#000000" stroke-width="0.398" fill="none" /><path id="120" transform="matrix(1 0 0 -1 0 841)" d="M85.039 728.756L563.688 728.756" stroke="#000000" stroke-width="0.398" fill="none" /><path id="121" transform="matrix(1 0 0 -1 0 841)" d="M85.239 715.007L85.239 728.556" stroke="#000000" stroke-width="0.398" fill="none" /><path id="124" transform="matrix(1 0 0 -1 0 841)" d="M125.939 715.007L125.939 728.556" stroke="#000000" stroke-width="0.398" fill="none" /><path id="155" transform="matrix(1 0 0 -1 0 841)" d="M563.489 715.007L563.489 728.556" stroke="#000000" stroke-width="0.398" fill="none" /><path id="156" transform="matrix(1 0 0 -1 0 841)" d="M85.039 714.808L563.688 714.808" stroke="#000000" stroke-width="0.398" fill="none" /><path id="157" transform="matrix(1 0 0 -1 0 841)" d="M85.239 701.06L85.239 714.609" stroke="#000000" stroke-width="0.398" fill="none" /><path id="160" transform="matrix(1 0 0 -1 0 841)" d="M125.939 701.06L125.939 714.609" stroke="#000000" stroke-width="0.398" fill="none" /><path id="197" transform="matrix(1 0 0 -1 0 841)" d="M563.489 701.06L563.489 714.609" stroke="#000000" stroke-width="0.398" fill="none" /><path id="198" transform="matrix(1 0 0 -1 0 841)" d="M85.039 700.86L563.688 700.86" stroke="#000000" stroke-width="0.398" fill="none" /><path id="199" transform="matrix(1 0 0 -1 0 841)" d="M85.239 687.112L85.239 700.661" stroke="#000000" stroke-width="0.398" fill="none" /><path id="202" transform="matrix(1 0 0 -1 0 841)" d="M125.939 687.112L125.939 700.661" stroke="#000000" stroke-width="0.398" fill="none" /><path id="236" transform="matrix(1 0 0 -1 0 841)" d="M563.489 687.112L563.489 700.661" stroke="#000000" stroke-width="0.398" fill="none" /><path id="237" transform="matrix(1 0 0 -1 0 841)" d="M85.039 686.913L563.688 686.913" stroke="#000000" stroke-width="0.398" fill="none" /><path id="238" transform="matrix(1 0 0 -1 0 841)" d="M85.239 673.164L85.239 686.713" stroke="#000000" stroke-width="0.398" fill="none" /><path id="241" transform="matrix(1 0 0 -1 0 841)" d="M125.939 673.164L125.939 686.713" stroke="#000000" stroke-width="0.398" fill="none" /><path id="273" transform="matrix(1 0 0 -1 0 841)" d="M563.489 673.164L563.489 686.713" stroke="#000000" stroke-width="0.398" fill="none" /><path id="274" transform="matrix(1 0 0 -1 0 841)" d="M85.039 672.965L563.688 672.965" stroke="#000000" stroke-width="0.398" fill="none" /><path id="275" transform="matrix(1 0 0 -1 0 841)" d="M85.239 659.217L85.239 672.766" stroke="#000000" stroke-width="0.398" fill="none" /><path id="278" transform="matrix(1 0 0 -1 0 841)" d="M125.939 659.217L125.939 672.766" stroke="#000000" stroke-width="0.398" fill="none" /><path id="325" transform="matrix(1 0 0 -1 0 841)" d="M563.489 659.217L563.489 672.766" stroke="#000000" stroke-width="0.398" fill="none" /><path id="326" transform="matrix(1 0 0 -1 0 841)" d="M85.039 659.017L563.688 659.017" stroke="#000000" stroke-width="0.398" fill="none" /><path id="327" transform="matrix(1 0 0 -1 0 841)" d="M85.239 645.269L85.239 658.818" stroke="#000000" stroke-width="0.398" fill="none" /><path id="330" transform="matrix(1 0 0 -1 0 841)" d="M125.939 645.269L125.939 658.818" stroke="#000000" stroke-width="0.398" fill="none" /><path id="369" transform="matrix(1 0 0 -1 0 841)" d="M563.489 645.269L563.489 658.818" stroke="#000000" stroke-width="0.398" fill="none" /><path id="370" transform="matrix(1 0 0 -1 0 841)" d="M85.039 645.07L563.688 645.07" stroke="#000000" stroke-width="0.398" fill="none" /><path id="371" transform="matrix(1 0 0 -1 0 841)" d="M85.239 631.321L85.239 644.87" stroke="#000000" stroke-width="0.398" fill="none" /><path id="374" transform="matrix(1 0 0 -1 0 841)" d="M125.939 631.321L125.939 644.87" stroke="#000000" stroke-width="0.398" fill="none" /><path id="407" transform="matrix(1 0 0 -1 0 841)" d="M563.489 631.321L563.489 644.87" stroke="#000000" stroke-width="0.398" fill="none" /><path id="408" transform="matrix(1 0 0 -1 0 841)" d="M85.039 631.122L563.688 631.122" stroke="#000000" stroke-width="0.398" fill="none" /><path id="409" transform="matrix(1 0 0 -1 0 841)" d="M85.239 617.374L85.239 630.923" stroke="#000000" stroke-width="0.398" fill="none" /><path id="412" transform="matrix(1 0 0 -1 0 841)" d="M125.939 617.374L125.939 630.923" stroke="#000000" stroke-width="0.398" fill="none" /><path id="469" transform="matrix(1 0 0 -1 0 841)" d="M563.489 617.374L563.489 630.923" stroke="#000000" stroke-width="0.398" fill="none" /><path id="470" transform="matrix(1 0 0 -1 0 841)" d="M85.039 617.174L563.688 617.174" stroke="#000000" stroke-width="0.398" fill="none" /><path id="471" transform="matrix(1 0 0 -1 0 841)" d="M85.239 603.426L85.239 616.975" stroke="#000000" stroke-width="0.398" fill="none" /><path id="474" transform="matrix(1 0 0 -1 0 841)" d="M125.939 603.426L125.939 616.975" stroke="#000000" stroke-width="0.398" fill="none" /><path id="544" transform="matrix(1 0 0 -1 0 841)" d="M563.489 603.426L563.489 616.975" stroke="#000000" stroke-width="0.398" fill="none" /><path id="545" transform="matrix(1 0 0 -1 0 841)" d="M85.039 603.227L563.688 603.227" stroke="#000000" stroke-width="0.398" fill="none" /><path id="546" transform="matrix(1 0 0 -1 0 841)" d="M85.239 589.478L85.239 603.027" stroke="#000000" stroke-width="0.398" fill="none" /><path id="549" transform="matrix(1 0 0 -1 0 841)" d="M125.939 589.478L125.939 603.027" stroke="#000000" stroke-width="0.398" fill="none" /><path id="584" transform="matrix(1 0 0 -1 0 841)" d="M563.489 589.478L563.489 603.027" stroke="#000000" stroke-width="0.398" fill="none" /><path id="585" transform="matrix(1 0 0 -1 0 841)" d="M85.039 589.279L563.688 589.279" stroke="#000000" stroke-width="0.398" fill="none" /><path id="586" transform="matrix(1 0 0 -1 0 841)" d="M85.239 575.531L85.239 589.08" stroke="#000000" stroke-width="0.398" fill="none" /><path id="589" transform="matrix(1 0 0 -1 0 841)" d="M125.939 575.531L125.939 589.08" stroke="#000000" stroke-width="0.398" fill="none" /><path id="621" transform="matrix(1 0 0 -1 0 841)" d="M563.489 575.531L563.489 589.08" stroke="#000000" stroke-width="0.398" fill="none" /><path id="622" transform="matrix(1 0 0 -1 0 841)" d="M85.039 575.331L563.688 575.331" stroke="#000000" stroke-width="0.398" fill="none" /><path id="623" transform="matrix(1 0 0 -1 0 841)" d="M85.239 561.583L85.239 575.132" stroke="#000000" stroke-width="0.398" fill="none" /><path id="626" transform="matrix(1 0 0 -1 0 841)" d="M125.939 561.583L125.939 575.132" stroke="#000000" stroke-width="0.398" fill="none" /><path id="664" transform="matrix(1 0 0 -1 0 841)" d="M563.489 561.583L563.489 575.132" stroke="#000000" stroke-width="0.398" fill="none" /><path id="665" transform="matrix(1 0 0 -1 0 841)" d="M85.039 561.384L563.688 561.384" stroke="#000000" stroke-width="0.398" fill="none" /><path id="666" transform="matrix(1 0 0 -1 0 841)" d="M85.239 547.635L85.239 561.184" stroke="#000000" stroke-width="0.398" fill="none" /><path id="669" transform="matrix(1 0 0 -1 0 841)" d="M125.939 547.635L125.939 561.184" stroke="#000000" stroke-width="0.398" fill="none" /><path id="712" transform="matrix(1 0 0 -1 0 841)" d="M563.489 547.635L563.489 561.184" stroke="#000000" stroke-width="0.398" fill="none" /><path id="713" transform="matrix(1 0 0 -1 0 841)" d="M85.039 547.436L563.688 547.436" stroke="#000000" stroke-width="0.398" fill="none" /><path id="714" transform="matrix(1 0 0 -1 0 841)" d="M85.239 533.687L85.239 547.236" stroke="#000000" stroke-width="0.398" fill="none" /><path id="717" transform="matrix(1 0 0 -1 0 841)" d="M125.939 533.687L125.939 547.236" stroke="#000000" stroke-width="0.398" fill="none" /><path id="750" transform="matrix(1 0 0 -1 0 841)" d="M563.489 533.687L563.489 547.236" stroke="#000000" stroke-width="0.398" fill="none" /><path id="751" transform="matrix(1 0 0 -1 0 841)" d="M85.039 533.488L563.688 533.488" stroke="#000000" stroke-width="0.398" fill="none" /><path id="752" transform="matrix(1 0 0 -1 0 841)" d="M85.239 519.74L85.239 533.289" stroke="#000000" stroke-width="0.398" fill="none" /><path id="755" transform="matrix(1 0 0 -1 0 841)" d="M125.939 519.74L125.939 533.289" stroke="#000000" stroke-width="0.398" fill="none" /><path id="795" transform="matrix(1 0 0 -1 0 841)" d="M563.489 519.74L563.489 533.289" stroke="#000000" stroke-width="0.398" fill="none" /><path id="796" transform="matrix(1 0 0 -1 0 841)" d="M85.039 519.541L563.688 519.541" stroke="#000000" stroke-width="0.398" fill="none" /><path id="797" transform="matrix(1 0 0 -1 0 841)" d="M85.239 505.792L85.239 519.341" stroke="#000000" stroke-width="0.398" fill="none" /><path id="800" transform="matrix(1 0 0 -1 0 841)" d="M125.939 505.792L125.939 519.341" stroke="#000000" stroke-width="0.398" fill="none" /><path id="839" transform="matrix(1 0 0 -1 0 841)" d="M563.489 505.792L563.489 519.341" stroke="#000000" stroke-width="0.398" fill="none" /><path id="840" transform="matrix(1 0 0 -1 0 841)" d="M85.039 505.593L563.688 505.593" stroke="#000000" stroke-width="0.398" fill="none" /><path id="841" transform="matrix(1 0 0 -1 0 841)" d="M85.239 491.844L85.239 505.393" stroke="#000000" stroke-width="0.398" fill="none" /><path id="844" transform="matrix(1 0 0 -1 0 841)" d="M125.939 491.844L125.939 505.393" stroke="#000000" stroke-width="0.398" fill="none" /><path id="883" transform="matrix(1 0 0 -1 0 841)" d="M563.489 491.844L563.489 505.393" stroke="#000000" stroke-width="0.398" fill="none" /><path id="884" transform="matrix(1 0 0 -1 0 841)" d="M85.039 491.645L563.688 491.645" stroke="#000000" stroke-width="0.398" fill="none" /><path id="885" transform="matrix(1 0 0 -1 0 841)" d="M85.239 477.897L85.239 491.446" stroke="#000000" stroke-width="0.398" fill="none" /><path id="920" transform="matrix(1 0 0 -1 0 841)" d="M563.489 477.897L563.489 491.446" stroke="#000000" stroke-width="0.398" fill="none" /><path id="921" transform="matrix(1 0 0 -1 0 841)" d="M85.039 477.698L563.688 477.698" stroke="#000000" stroke-width="0.398" fill="none" /><path id="922" transform="matrix(1 0 0 -1 0 841)" d="M85.239 463.949L85.239 477.498" stroke="#000000" stroke-width="0.398" fill="none" /><path id="925" transform="matrix(1 0 0 -1 0 841)" d="M125.939 463.949L125.939 477.498" stroke="#000000" stroke-width="0.398" fill="none" /><path id="968" transform="matrix(1 0 0 -1 0 841)" d="M563.489 463.949L563.489 477.498" stroke="#000000" stroke-width="0.398" fill="none" /><path id="969" transform="matrix(1 0 0 -1 0 841)" d="M85.039 463.75L563.688 463.75" stroke="#000000" stroke-width="0.398" fill="none" /><path id="970" transform="matrix(1 0 0 -1 0 841)" d="M85.239 450.001L85.239 463.55" stroke="#000000" stroke-width="0.398" fill="none" /><path id="973" transform="matrix(1 0 0 -1 0 841)" d="M125.939 450.001L125.939 463.55" stroke="#000000" stroke-width="0.398" fill="none" /><path id="1026" transform="matrix(1 0 0 -1 0 841)" d="M563.489 450.001L563.489 463.55" stroke="#000000" stroke-width="0.398" fill="none" /><path id="1027" transform="matrix(1 0 0 -1 0 841)" d="M85.039 449.802L563.688 449.802" stroke="#000000" stroke-width="0.398" fill="none" /><path id="1028" transform="matrix(1 0 0 -1 0 841)" d="M85.239 436.054L85.239 449.603" stroke="#000000" stroke-width="0.398" fill="none" /><path id="1031" transform="matrix(1 0 0 -1 0 841)" d="M125.939 436.054L125.939 449.603" stroke="#000000" stroke-width="0.398" fill="none" /><path id="1066" transform="matrix(1 0 0 -1 0 841)" d="M563.489 436.054L563.489 449.603" stroke="#000000" stroke-width="0.398" fill="none" /><path id="1067" transform="matrix(1 0 0 -1 0 841)" d="M85.039 435.854L563.688 435.854" stroke="#000000" stroke-width="0.398" fill="none" /><path id="1068" transform="matrix(1 0 0 -1 0 841)" d="M85.239 422.106L85.239 435.655" stroke="#000000" stroke-width="0.398" fill="none" /><path id="1071" transform="matrix(1 0 0 -1 0 841)" d="M125.939 422.106L125.939 435.655" stroke="#000000" stroke-width="0.398" fill="none" /><path id="1131" transform="matrix(1 0 0 -1 0 841)" d="M563.489 422.106L563.489 435.655" stroke="#000000" stroke-width="0.398" fill="none" /><path id="1132" transform="matrix(1 0 0 -1 0 841)" d="M85.039 421.907L563.688 421.907" stroke="#000000" stroke-width="0.398" fill="none" /><path id="1133" transform="matrix(1 0 0 -1 0 841)" d="M85.239 408.158L85.239 421.707" stroke="#000000" stroke-width="0.398" fill="none" /><path id="1136" transform="matrix(1 0 0 -1 0 841)" d="M125.939 408.158L125.939 421.707" stroke="#000000" stroke-width="0.398" fill="none" /><path id="1181" transform="matrix(1 0 0 -1 0 841)" d="M563.489 408.158L563.489 421.707" stroke="#000000" stroke-width="0.398" fill="none" /><path id="1182" transform="matrix(1 0 0 -1 0 841)" d="M85.039 407.959L563.688 407.959" stroke="#000000" stroke-width="0.398" fill="none" /><path id="1183" transform="matrix(1 0 0 -1 0 841)" d="M85.239 394.211L85.239 407.76" stroke="#000000" stroke-width="0.398" fill="none" /><path id="1186" transform="matrix(1 0 0 -1 0 841)" d="M125.939 394.211L125.939 407.76" stroke="#000000" stroke-width="0.398" fill="none" /><path id="1238" transform="matrix(1 0 0 -1 0 841)" d="M563.489 394.211L563.489 407.76" stroke="#000000" stroke-width="0.398" fill="none" /><path id="1239" transform="matrix(1 0 0 -1 0 841)" d="M85.039 394.011L563.688 394.011" stroke="#000000" stroke-width="0.398" fill="none" /><path id="1240" transform="matrix(1 0 0 -1 0 841)" d="M85.239 380.263L85.239 393.812" stroke="#000000" stroke-width="0.398" fill="none" /><path id="1243" transform="matrix(1 0 0 -1 0 841)" d="M125.939 380.263L125.939 393.812" stroke="#000000" stroke-width="0.398" fill="none" /><path id="1303" transform="matrix(1 0 0 -1 0 841)" d="M563.489 380.263L563.489 393.812" stroke="#000000" stroke-width="0.398" fill="none" /><path id="1304" transform="matrix(1 0 0 -1 0 841)" d="M85.039 380.064L563.688 380.064" stroke="#000000" stroke-width="0.398" fill="none" /><path id="1305" transform="matrix(1 0 0 -1 0 841)" d="M85.239 366.315L85.239 379.864" stroke="#000000" stroke-width="0.398" fill="none" /><path id="1308" transform="matrix(1 0 0 -1 0 841)" d="M125.939 366.315L125.939 379.864" stroke="#000000" stroke-width="0.398" fill="none" /><path id="1342" transform="matrix(1 0 0 -1 0 841)" d="M563.489 366.315L563.489 379.864" stroke="#000000" stroke-width="0.398" fill="none" /><path id="1343" transform="matrix(1 0 0 -1 0 841)" d="M85.039 366.116L563.688 366.116" stroke="#000000" stroke-width="0.398" fill="none" /><path id="1344" transform="matrix(1 0 0 -1 0 841)" d="M85.239 352.368L85.239 365.917" stroke="#000000" stroke-width="0.398" fill="none" /><path id="1347" transform="matrix(1 0 0 -1 0 841)" d="M125.939 352.368L125.939 365.917" stroke="#000000" stroke-width="0.398" fill="none" /><path id="1396" transform="matrix(1 0 0 -1 0 841)" d="M563.489 352.368L563.489 365.917" stroke="#000000" stroke-width="0.398" fill="none" /><path id="1397" transform="matrix(1 0 0 -1 0 841)" d="M85.039 352.168L563.688 352.168" stroke="#000000" stroke-width="0.398" fill="none" /><path id="1398" transform="matrix(1 0 0 -1 0 841)" d="M85.239 338.42L85.239 351.969" stroke="#000000" stroke-width="0.398" fill="none" /><path id="1401" transform="matrix(1 0 0 -1 0 841)" d="M125.939 338.42L125.939 351.969" stroke="#000000" stroke-width="0.398" fill="none" /><path id="1453" transform="matrix(1 0 0 -1 0 841)" d="M563.489 338.42L563.489 351.969" stroke="#000000" stroke-width="0.398" fill="none" /><path id="1454" transform="matrix(1 0 0 -1 0 841)" d="M85.039 338.221L563.688 338.221" stroke="#000000" stroke-width="0.398" fill="none" /><path id="1455" transform="matrix(1 0 0 -1 0 841)" d="M85.239 324.472L85.239 338.021" stroke="#000000" stroke-width="0.398" fill="none" /><path id="1458" transform="matrix(1 0 0 -1 0 841)" d="M125.939 324.472L125.939 338.021" stroke="#000000" stroke-width="0.398" fill="none" /><path id="1522" transform="matrix(1 0 0 -1 0 841)" d="M563.489 324.472L563.489 338.021" stroke="#000000" stroke-width="0.398" fill="none" /><path id="1523" transform="matrix(1 0 0 -1 0 841)" d="M85.039 324.273L563.688 324.273" stroke="#000000" stroke-width="0.398" fill="none" /><path id="1524" transform="matrix(1 0 0 -1 0 841)" d="M85.239 310.525L85.239 324.074" stroke="#000000" stroke-width="0.398" fill="none" /><path id="1527" transform="matrix(1 0 0 -1 0 841)" d="M125.939 310.525L125.939 324.074" stroke="#000000" stroke-width="0.398" fill="none" /><path id="1586" transform="matrix(1 0 0 -1 0 841)" d="M563.489 310.525L563.489 324.074" stroke="#000000" stroke-width="0.398" fill="none" /><path id="1587" transform="matrix(1 0 0 -1 0 841)" d="M85.039 310.325L563.688 310.325" stroke="#000000" stroke-width="0.398" fill="none" /><path id="1588" transform="matrix(1 0 0 -1 0 841)" d="M85.239 296.577L85.239 310.126" stroke="#000000" stroke-width="0.398" fill="none" /><path id="1591" transform="matrix(1 0 0 -1 0 841)" d="M125.939 296.577L125.939 310.126" stroke="#000000" stroke-width="0.398" fill="none" /><path id="1622" transform="matrix(1 0 0 -1 0 841)" d="M563.489 296.577L563.489 310.126" stroke="#000000" stroke-width="0.398" fill="none" /><path id="1623" transform="matrix(1 0 0 -1 0 841)" d="M85.039 296.378L563.688 296.378" stroke="#000000" stroke-width="0.398" fill="none" /><path id="1624" transform="matrix(1 0 0 -1 0 841)" d="M85.239 282.629L85.239 296.178" stroke="#000000" stroke-width="0.398" fill="none" /><path id="1627" transform="matrix(1 0 0 -1 0 841)" d="M125.939 282.629L125.939 296.178" stroke="#000000" stroke-width="0.398" fill="none" /><path id="1659" transform="matrix(1 0 0 -1 0 841)" d="M563.489 282.629L563.489 296.178" stroke="#000000" stroke-width="0.398" fill="none" /><path id="1660" transform="matrix(1 0 0 -1 0 841)" d="M85.039 282.43L563.688 282.43" stroke="#000000" stroke-width="0.398" fill="none" /><path id="1661" transform="matrix(1 0 0 -1 0 841)" d="M85.239 268.682L85.239 282.231" stroke="#000000" stroke-width="0.398" fill="none" /><path id="1664" transform="matrix(1 0 0 -1 0 841)" d="M125.939 268.682L125.939 282.231" stroke="#000000" stroke-width="0.398" fill="none" /><path id="1702" transform="matrix(1 0 0 -1 0 841)" d="M563.489 268.682L563.489 282.231" stroke="#000000" stroke-width="0.398" fill="none" /><path id="1703" transform="matrix(1 0 0 -1 0 841)" d="M85.039 268.482L563.688 268.482" stroke="#000000" stroke-width="0.398" fill="none" /><path id="1704" transform="matrix(1 0 0 -1 0 841)" d="M85.239 254.734L85.239 268.283" stroke="#000000" stroke-width="0.398" fill="none" /><path id="1707" transform="matrix(1 0 0 -1 0 841)" d="M125.939 254.734L125.939 268.283" stroke="#000000" stroke-width="0.398" fill="none" /><path id="1746" transform="matrix(1 0 0 -1 0 841)" d="M563.489 254.734L563.489 268.283" stroke="#000000" stroke-width="0.398" fill="none" /><path id="1747" transform="matrix(1 0 0 -1 0 841)" d="M85.039 254.535L563.688 254.535" stroke="#000000" stroke-width="0.398" fill="none" /><path id="1748" transform="matrix(1 0 0 -1 0 841)" d="M85.239 240.786L85.239 254.335" stroke="#000000" stroke-width="0.398" fill="none" /><path id="1751" transform="matrix(1 0 0 -1 0 841)" d="M125.939 240.786L125.939 254.335" stroke="#000000" stroke-width="0.398" fill="none" /><path id="1787" transform="matrix(1 0 0 -1 0 841)" d="M563.489 240.786L563.489 254.335" stroke="#000000" stroke-width="0.398" fill="none" /><path id="1788" transform="matrix(1 0 0 -1 0 841)" d="M85.039 240.587L563.688 240.587" stroke="#000000" stroke-width="0.398" fill="none" /><path id="1789" transform="matrix(1 0 0 -1 0 841)" d="M85.239 226.839L85.239 240.388" stroke="#000000" stroke-width="0.398" fill="none" /><path id="1792" transform="matrix(1 0 0 -1 0 841)" d="M125.939 226.839L125.939 240.388" stroke="#000000" stroke-width="0.398" fill="none" /><path id="1819" transform="matrix(1 0 0 -1 0 841)" d="M563.489 226.839L563.489 240.388" stroke="#000000" stroke-width="0.398" fill="none" /><path id="1820" transform="matrix(1 0 0 -1 0 841)" d="M85.039 226.639L563.688 226.639" stroke="#000000" stroke-width="0.398" fill="none" /><path id="1821" transform="matrix(1 0 0 -1 0 841)" d="M85.239 212.891L85.239 226.44" stroke="#000000" stroke-width="0.398" fill="none" /><path id="1824" transform="matrix(1 0 0 -1 0 841)" d="M125.939 212.891L125.939 226.44" stroke="#000000" stroke-width="0.398" fill="none" /><path id="1861" transform="matrix(1 0 0 -1 0 841)" d="M563.489 212.891L563.489 226.44" stroke="#000000" stroke-width="0.398" fill="none" /><path id="1862" transform="matrix(1 0 0 -1 0 841)" d="M85.039 212.692L563.688 212.692" stroke="#000000" stroke-width="0.398" fill="none" /><path id="1863" transform="matrix(1 0 0 -1 0 841)" d="M85.239 198.943L85.239 212.492" stroke="#000000" stroke-width="0.398" fill="none" /><path id="1866" transform="matrix(1 0 0 -1 0 841)" d="M125.939 198.943L125.939 212.492" stroke="#000000" stroke-width="0.398" fill="none" /><path id="1900" transform="matrix(1 0 0 -1 0 841)" d="M563.489 198.943L563.489 212.492" stroke="#000000" stroke-width="0.398" fill="none" /><path id="1901" transform="matrix(1 0 0 -1 0 841)" d="M85.039 198.744L563.688 198.744" stroke="#000000" stroke-width="0.398" fill="none" /><path id="1902" transform="matrix(1 0 0 -1 0 841)" d="M85.239 184.995L85.239 198.544" stroke="#000000" stroke-width="0.398" fill="none" /><path id="1905" transform="matrix(1 0 0 -1 0 841)" d="M125.939 184.995L125.939 198.544" stroke="#000000" stroke-width="0.398" fill="none" /><path id="1945" transform="matrix(1 0 0 -1 0 841)" d="M563.489 184.995L563.489 198.544" stroke="#000000" stroke-width="0.398" fill="none" /><path id="1946" transform="matrix(1 0 0 -1 0 841)" d="M85.039 184.796L563.688 184.796" stroke="#000000" stroke-width="0.398" fill="none" /><path id="1947" transform="matrix(1 0 0 -1 0 841)" d="M85.239 171.048L85.239 184.597" stroke="#000000" stroke-width="0.398" fill="none" /><path id="1950" transform="matrix(1 0 0 -1 0 841)" d="M125.939 171.048L125.939 184.597" stroke="#000000" stroke-width="0.398" fill="none" /><path id="1976" transform="matrix(1 0 0 -1 0 841)" d="M563.489 171.048L563.489 184.597" stroke="#000000" stroke-width="0.398" fill="none" /><path id="1977" transform="matrix(1 0 0 -1 0 841)" d="M85.039 170.849L563.688 170.849" stroke="#000000" stroke-width="0.398" fill="none" /><path id="1978" transform="matrix(1 0 0 -1 0 841)" d="M85.239 157.1L85.239 170.649" stroke="#000000" stroke-width="0.398" fill="none" /><path id="1981" transform="matrix(1 0 0 -1 0 841)" d="M125.939 157.1L125.939 170.649" stroke="#000000" stroke-width="0.398" fill="none" /><path id="2026" transform="matrix(1 0 0 -1 0 841)" d="M563.489 157.1L563.489 170.649" stroke="#000000" stroke-width="0.398" fill="none" /><path id="2027" transform="matrix(1 0 0 -1 0 841)" d="M85.039 156.901L563.688 156.901" stroke="#000000" stroke-width="0.398" fill="none" /><path id="2028" transform="matrix(1 0 0 -1 0 841)" d="M85.239 143.152L85.239 156.701" stroke="#000000" stroke-width="0.398" fill="none" /><path id="2031" transform="matrix(1 0 0 -1 0 841)" d="M125.939 143.152L125.939 156.701" stroke="#000000" stroke-width="0.398" fill="none" /><path id="2066" transform="matrix(1 0 0 -1 0 841)" d="M563.489 143.152L563.489 156.701" stroke="#000000" stroke-width="0.398" fill="none" /><path id="2067" transform="matrix(1 0 0 -1 0 841)" d="M85.039 142.953L563.688 142.953" stroke="#000000" stroke-width="0.398" fill="none" /><path id="2068" transform="matrix(1 0 0 -1 0 841)" d="M85.239 129.205L85.239 142.754" stroke="#000000" stroke-width="0.398" fill="none" /><path id="2071" transform="matrix(1 0 0 -1 0 841)" d="M125.939 129.205L125.939 142.754" stroke="#000000" stroke-width="0.398" fill="none" /><path id="2104" transform="matrix(1 0 0 -1 0 841)" d="M563.489 129.205L563.489 142.754" stroke="#000000" stroke-width="0.398" fill="none" /><path id="2105" transform="matrix(1 0 0 -1 0 841)" d="M85.039 129.006L563.688 129.006" stroke="#000000" stroke-width="0.398" fill="none" /><path id="2106" transform="matrix(1 0 0 -1 0 841)" d="M85.239 115.257L85.239 128.806" stroke="#000000" stroke-width="0.398" fill="none" /><path id="2109" transform="matrix(1 0 0 -1 0 841)" d="M125.939 115.257L125.939 128.806" stroke="#000000" stroke-width="0.398" fill="none" /><path id="2144" transform="matrix(1 0 0 -1 0 841)" d="M563.489 115.257L563.489 128.806" stroke="#000000" stroke-width="0.398" fill="none" /><path id="2145" transform="matrix(1 0 0 -1 0 841)" d="M85.039 115.058L563.688 115.058" stroke="#000000" stroke-width="0.398" fill="none" /><path id="2146" transform="matrix(1 0 0 -1 0 841)" d="M85.239 101.309L85.239 114.858" stroke="#000000" stroke-width="0.398" fill="none" /><path id="2149" transform="matrix(1 0 0 -1 0 841)" d="M125.939 101.309L125.939 114.858" stroke="#000000" stroke-width="0.398" fill="none" /><path id="2210" transform="matrix(1 0 0 -1 0 841)" d="M563.489 101.309L563.489 114.858" stroke="#000000" stroke-width="0.398" fill="none" /><path id="2211" transform="matrix(1 0 0 -1 0 841)" d="M85.039 101.11L563.688 101.11" stroke="#000000" stroke-width="0.398" fill="none" /><path id="2212" transform="matrix(1 0 0 -1 0 841)" d="M85.239 87.362L85.239 100.911" stroke="#000000" stroke-width="0.398" fill="none" /><path id="2215" transform="matrix(1 0 0 -1 0 841)" d="M125.939 87.362L125.939 100.911" stroke="#000000" stroke-width="0.398" fill="none" /><path id="2267" transform="matrix(1 0 0 -1 0 841)" d="M563.489 87.362L563.489 100.911" stroke="#000000" stroke-width="0.398" fill="none" /><path id="2268" transform="matrix(1 0 0 -1 0 841)" d="M85.039 87.162L563.688 87.162" stroke="#000000" stroke-width="0.398" fill="none" /></g></g></svg>