<svg xmlns="http://www.w3.org/2000/svg" xmlns:xlink="http://www.w3.org/1999/xlink" id="body_251" preserveAspectRatio="xMinYMin meet" viewBox="0 0 793 1121"><defs><clipPath id="1"><path id="" clip-rule="evenodd" transform="matrix(1 0 0 1 0 0)" d="M0 841L0 -0.8900146L0 -0.8900146L595.276 -0.8900146L595.276 -0.8900146L595.276 841L595.276 841L0 841z" /></clipPath></defs><g transform="matrix(1.333333 0 0 1.333333 0 0)"><g clip-path="url(#1)"><path id="23" transform="matrix(1 0 0 -1 0 841)" d="M85.039 766.564L510.236 766.564" stroke="#000000" stroke-width="0.498" fill="none" /><path id="141" transform="matrix(1 0 0 -1 0 841)" d="M112.063 413.223L123.808 413.223L123.808 425.496L112.063 425.496z" stroke="none" fill="#FFF100" fill-rule="nonzero" /><path id="144" transform="matrix(1 0 0 -1 0 841)" d="M123.802 413.223L127.003 413.223L127.003 425.496L123.802 425.496z" stroke="none" fill="#FFF100" fill-rule="nonzero" /><path id="145" transform="matrix(1 0 0 -1 0 841)" d="M126.754 413.223L135.739 413.223L135.739 425.496L126.754 425.496z" stroke="none" fill="#FFF100" fill-rule="nonzero" /><path id="148" transform="matrix(1 0 0 -1 0 841)" d="M135.411 413.223L163.16 413.223L163.16 425.496L135.411 425.496z" stroke="none" fill="#FFF100" fill-rule="nonzero" /><path id="155" transform="matrix(1 0 0 -1 0 841)" d="M163.455 413.223L166.656 413.223L166.656 425.496L163.455 425.496z" stroke="none" fill="#FFF100" fill-rule="nonzero" /><path id="156" transform="matrix(1 0 0 -1 0 841)" d="M166.407 413.223L171.749 413.223L171.749 425.496L166.407 425.496z" stroke="none" fill="#FFF100" fill-rule="nonzero" /><path id="158" transform="matrix(1 0 0 -1 0 841)" d="M171.596 413.223L174.797 413.223L174.797 425.496L171.596 425.496z" stroke="none" fill="#FFF100" fill-rule="nonzero" /><path id="159" transform="matrix(1 0 0 -1 0 841)" d="M174.548 413.223L198.402 413.223L198.402 425.496L174.548 425.496z" stroke="none" fill="#FFF100" fill-rule="nonzero" /><path id="165" transform="matrix(1 0 0 -1 0 841)" d="M198.626 413.223L201.827 413.223L201.827 425.496L198.626 425.496z" stroke="none" fill="#FFF100" fill-rule="nonzero" /><path id="166" transform="matrix(1 0 0 -1 0 841)" d="M201.578 413.223L212.985 413.223L212.985 425.496L201.578 425.496z" stroke="none" fill="#FFF100" fill-rule="nonzero" /><path id="169" transform="matrix(1 0 0 -1 0 841)" d="M212.954 413.223L216.155 413.223L216.155 425.496L212.954 425.496z" stroke="none" fill="#FFF100" fill-rule="nonzero" /><path id="170" transform="matrix(1 0 0 -1 0 841)" d="M215.906 413.223L221.248 413.223L221.248 425.496L215.906 425.496z" stroke="none" fill="#FFF100" fill-rule="nonzero" /><path id="172" transform="matrix(1 0 0 -1 0 841)" d="M221.095 413.223L224.296 413.223L224.296 425.496L221.095 425.496z" stroke="none" fill="#FFF100" fill-rule="nonzero" /><path id="173" transform="matrix(1 0 0 -1 0 841)" d="M224.047 413.223L238.476 413.223L238.476 425.496L224.047 425.496z" stroke="none" fill="#FFF100" fill-rule="nonzero" /><path id="177" transform="matrix(1 0 0 -1 0 841)" d="M238.257 413.223L259.657 413.223L259.657 425.496L238.257 425.496z" stroke="none" fill="#FFF100" fill-rule="nonzero" /><path id="183" transform="matrix(1 0 0 -1 0 841)" d="M259.825 413.223L263.026 413.223L263.026 425.496L259.825 425.496z" stroke="none" fill="#FFF100" fill-rule="nonzero" /><path id="184" transform="matrix(1 0 0 -1 0 841)" d="M262.777 413.223L279.028 413.223L279.028 425.496L262.777 425.496z" stroke="none" fill="#FFF100" fill-rule="nonzero" /><path id="188" transform="matrix(1 0 0 -1 0 841)" d="M279.094 413.223L282.295 413.223L282.295 425.496L279.094 425.496z" stroke="none" fill="#FFF100" fill-rule="nonzero" /><path id="189" transform="matrix(1 0 0 -1 0 841)" d="M282.046 413.223L295.875 413.223L295.875 425.496L282.046 425.496z" stroke="none" fill="#FFF100" fill-rule="nonzero" /><path id="193" transform="matrix(1 0 0 -1 0 841)" d="M295.892 413.223L299.093 413.223L299.093 425.496L295.892 425.496z" stroke="none" fill="#FFF100" fill-rule="nonzero" /><path id="194" transform="matrix(1 0 0 -1 0 841)" d="M298.844 413.223L314.484 413.223L314.484 425.496L298.844 425.496z" stroke="none" fill="#FFF100" fill-rule="nonzero" /><path id="198" transform="matrix(1 0 0 -1 0 841)" d="M314.288 413.223L317.819 413.223L317.819 425.496L314.288 425.496z" stroke="none" fill="#FFF100" fill-rule="nonzero" /><path id="200" transform="matrix(1 0 0 -1 0 841)" d="M317.382 413.223L334.243 413.223L334.243 425.496L317.382 425.496z" stroke="none" fill="#FFF100" fill-rule="nonzero" /><path id="204" transform="matrix(1 0 0 -1 0 841)" d="M334.321 413.223L337.522 413.223L337.522 425.496L334.321 425.496z" stroke="none" fill="#FFF100" fill-rule="nonzero" /><path id="205" transform="matrix(1 0 0 -1 0 841)" d="M337.273 413.223L361.465 413.223L361.465 425.496L337.273 425.496z" stroke="none" fill="#FFF100" fill-rule="nonzero" /><path id="211" transform="matrix(1 0 0 -1 0 841)" d="M361.452 413.223L366.794 413.223L366.794 425.496L361.452 425.496z" stroke="none" fill="#FFF100" fill-rule="nonzero" /><path id="213" transform="matrix(1 0 0 -1 0 841)" d="M366.393 413.223L383.254 413.223L383.254 425.496L366.393 425.496z" stroke="none" fill="#FFF100" fill-rule="nonzero" /><path id="218" transform="matrix(1 0 0 -1 0 841)" d="M383.332 413.223L386.533 413.223L386.533 425.496L383.332 425.496z" stroke="none" fill="#FFF100" fill-rule="nonzero" /><path id="219" transform="matrix(1 0 0 -1 0 841)" d="M386.284 413.223L395.869 413.223L395.869 425.496L386.284 425.496z" stroke="none" fill="#FFF100" fill-rule="nonzero" /><path id="222" transform="matrix(1 0 0 -1 0 841)" d="M395.802 413.223L399.003 413.223L399.003 425.496L395.802 425.496z" stroke="none" fill="#FFF100" fill-rule="nonzero" /><path id="223" transform="matrix(1 0 0 -1 0 841)" d="M398.754 413.223L412.583 413.223L412.583 425.496L398.754 425.496z" stroke="none" fill="#FFF100" fill-rule="nonzero" /><path id="227" transform="matrix(1 0 0 -1 0 841)" d="M412.6 413.223L415.801 413.223L415.801 425.496L412.6 425.496z" stroke="none" fill="#FFF100" fill-rule="nonzero" /><path id="228" transform="matrix(1 0 0 -1 0 841)" d="M415.552 413.223L429.981 413.223L429.981 425.496L415.552 425.496z" stroke="none" fill="#FFF100" fill-rule="nonzero" /><path id="232" transform="matrix(1 0 0 -1 0 841)" d="M429.762 413.223L448.434 413.223L448.434 425.496L429.762 425.496z" stroke="none" fill="#FFF100" fill-rule="nonzero" /><path id="237" transform="matrix(1 0 0 -1 0 841)" d="M448.548 413.223L451.749 413.223L451.749 425.496L448.548 425.496z" stroke="none" fill="#FFF100" fill-rule="nonzero" /><path id="238" transform="matrix(1 0 0 -1 0 841)" d="M451.5 413.223L460.485 413.223L460.485 425.496L451.5 425.496z" stroke="none" fill="#FFF100" fill-rule="nonzero" /><path id="241" transform="matrix(1 0 0 -1 0 841)" d="M460.406 413.223L463.607 413.223L463.607 425.496L460.406 425.496z" stroke="none" fill="#FFF100" fill-rule="nonzero" /><path id="242" transform="matrix(1 0 0 -1 0 841)" d="M463.358 413.223L468.307 413.223L468.307 425.496L463.358 425.496z" stroke="none" fill="#FFF100" fill-rule="nonzero" /><path id="244" transform="matrix(1 0 0 -1 0 841)" d="M468.147 413.223L471.348 413.223L471.348 425.496L468.147 425.496z" stroke="none" fill="#FFF100" fill-rule="nonzero" /><path id="245" transform="matrix(1 0 0 -1 0 841)" d="M471.099 413.223L477.052 413.223L477.052 425.496L471.099 425.496z" stroke="none" fill="#FFF100" fill-rule="nonzero" /><path id="247" transform="matrix(1 0 0 -1 0 841)" d="M476.912 413.223L480.113 413.223L480.113 425.496L476.912 425.496z" stroke="none" fill="#FFF100" fill-rule="nonzero" /><path id="248" transform="matrix(1 0 0 -1 0 841)" d="M479.863 413.223L484.812 413.223L484.812 425.496L479.863 425.496z" stroke="none" fill="#FFF100" fill-rule="nonzero" /><path id="250" transform="matrix(1 0 0 -1 0 841)" d="M484.652 413.223L487.853 413.223L487.853 425.496L484.652 425.496z" stroke="none" fill="#FFF100" fill-rule="nonzero" /><path id="251" transform="matrix(1 0 0 -1 0 841)" d="M487.604 413.223L503.855 413.223L503.855 425.496L487.604 425.496z" stroke="none" fill="#FFF100" fill-rule="nonzero" /><path id="255" transform="matrix(1 0 0 -1 0 841)" d="M112.063 396.287L129.535 396.287L129.535 408.56L112.063 408.56z" stroke="none" fill="#FFF100" fill-rule="nonzero" /><path id="259" transform="matrix(1 0 0 -1 0 841)" d="M129.037 396.287L135.6 396.287L135.6 408.56L129.037 408.56z" stroke="none" fill="#FFF100" fill-rule="nonzero" /><path id="262" transform="matrix(1 0 0 -1 0 841)" d="M135.103 396.287L149.543 396.287L149.543 408.56L135.103 408.56z" stroke="none" fill="#FFF100" fill-rule="nonzero" /><path id="266" transform="matrix(1 0 0 -1 0 841)" d="M149.293 396.287L152.02 396.287L152.02 408.56L149.293 408.56z" stroke="none" fill="#FFF100" fill-rule="nonzero" /><path id="267" transform="matrix(1 0 0 -1 0 841)" d="M151.772 396.287L158.335 396.287L158.335 408.56L151.772 408.56z" stroke="none" fill="#FFF100" fill-rule="nonzero" /><path id="270" transform="matrix(1 0 0 -1 0 841)" d="M158.086 396.287L160.813 396.287L160.813 408.56L158.086 408.56z" stroke="none" fill="#FFF100" fill-rule="nonzero" /><path id="271" transform="matrix(1 0 0 -1 0 841)" d="M160.564 396.287L184.702 396.287L184.702 408.56L160.564 408.56z" stroke="none" fill="#FFF100" fill-rule="nonzero" /><path id="277" transform="matrix(1 0 0 -1 0 841)" d="M184.453 396.287L187.18 396.287L187.18 408.56L184.453 408.56z" stroke="none" fill="#FFF100" fill-rule="nonzero" /><path id="278" transform="matrix(1 0 0 -1 0 841)" d="M186.931 396.287L200.76 396.287L200.76 408.56L186.931 408.56z" stroke="none" fill="#FFF100" fill-rule="nonzero" /><path id="282" transform="matrix(1 0 0 -1 0 841)" d="M200.511 396.287L203.238 396.287L203.238 408.56L200.511 408.56z" stroke="none" fill="#FFF100" fill-rule="nonzero" /><path id="283" transform="matrix(1 0 0 -1 0 841)" d="M202.989 396.287L222.883 396.287L222.883 408.56L202.989 408.56z" stroke="none" fill="#FFF100" fill-rule="nonzero" /><path id="287" transform="matrix(1 0 0 -1 0 841)" d="M222.385 396.287L238.941 396.287L238.941 408.56L222.385 408.56z" stroke="none" fill="#FFF100" fill-rule="nonzero" /></g></g></svg>