<svg xmlns="http://www.w3.org/2000/svg" xmlns:xlink="http://www.w3.org/1999/xlink" id="body_200" preserveAspectRatio="xMinYMin meet" viewBox="0 0 793 1121"><defs><clipPath id="1"><path id="" clip-rule="evenodd" transform="matrix(1 0 0 1 0 0)" d="M0 841L0 -0.8900146L0 -0.8900146L595.276 -0.8900146L595.276 -0.8900146L595.276 841L595.276 841L0 841z" /></clipPath></defs><g transform="matrix(1.333333 0 0 1.333333 0 0)"><g clip-path="url(#1)"><path id="23" transform="matrix(1 0 0 -1 0 841)" d="M85.039 766.564L510.236 766.564" stroke="#000000" stroke-width="0.498" fill="none" /><g transform="matrix(0.25 0 0 0.25 171.888 84.14899)"><g transform="matrix(1 0 0 1 0 0)"><image x="0" y="0" xlink:href="img_296.png" width="1006" height="315" /></g></g><g transform="matrix(0.1309091 0 0 0.1309091 110.109 339.979)"><g transform="matrix(1 0 0 1 0 0)"><image x="0" y="0" xlink:href="img_297.png" width="2865" height="2090" /></g></g><g transform="matrix(0.1309091 0 0 0.1309091 189.048 614.5765)"><g transform="matrix(1 0 0 1 0 0)"><image x="0" y="0" xlink:href="img_298.png" width="1659" height="808" /></g></g></g></g></svg>