<svg xmlns="http://www.w3.org/2000/svg" xmlns:xlink="http://www.w3.org/1999/xlink" id="body_288" preserveAspectRatio="xMinYMin meet" viewBox="0 0 793 1121"><defs><clipPath id="1"><path id="" clip-rule="evenodd" transform="matrix(1 0 0 1 0 0)" d="M0 841L0 -0.8900146L0 -0.8900146L595.276 -0.8900146L595.276 -0.8900146L595.276 841L595.276 841L0 841z" /></clipPath></defs><g transform="matrix(1.333333 0 0 1.333333 0 0)"><g clip-path="url(#1)"><path id="23" transform="matrix(1 0 0 -1 0 841)" d="M85.039 766.564L510.236 766.564" stroke="#000000" stroke-width="0.498" fill="none" /><path id="45" transform="matrix(1 0 0 -1 0 841)" d="M242.628 743.773L260.028 743.773" stroke="#000000" stroke-width="0.436" fill="none" /><path id="64" transform="matrix(1 0 0 -1 0 841)" d="M323.007 743.773L340.407 743.773" stroke="#000000" stroke-width="0.436" fill="none" /><path id="69" transform="matrix(1 0 0 -1 0 841)" d="M216.593 729.81L341.603 729.81" stroke="#000000" stroke-width="0.436" fill="none" /><path id="77" transform="matrix(1 0 0 -1 0 841)" d="M281.825 716.545L298.188 716.545" stroke="#000000" stroke-width="0.436" fill="none" /><path id="92" transform="matrix(1 0 0 -1 0 841)" d="M356.123 737.721L414.008 737.721" stroke="#000000" stroke-width="0.398" fill="none" /><path id="93" transform="matrix(1 0 0 -1 0 841)" d="M356.322 721.669L356.322 737.721" stroke="#000000" stroke-width="0.398" fill="none" /><path id="94" transform="matrix(1 0 0 -1 0 841)" d="M413.808 721.669L413.808 737.721" stroke="#000000" stroke-width="0.398" fill="none" /><path id="95" transform="matrix(1 0 0 -1 0 841)" d="M356.123 721.669L414.008 721.669" stroke="#000000" stroke-width="0.398" fill="none" /><path id="224" transform="matrix(1 0 0 -1 0 841)" d="M231.842 648.408L334.244 648.408" stroke="#000000" stroke-width="0.436" fill="none" /><path id="278" transform="matrix(1 0 0 -1 0 841)" d="M278.074 613.13L359.084 613.13" stroke="#000000" stroke-width="0.436" fill="none" /><path id="331" transform="matrix(1 0 0 -1 0 841)" d="M317.102 577.208L383.704 577.208" stroke="#000000" stroke-width="0.436" fill="none" /><path id="340" transform="matrix(1 0 0 -1 0 841)" d="M395.252 577.208L441.256 577.208" stroke="#000000" stroke-width="0.436" fill="none" /><path id="356" transform="matrix(1 0 0 -1 0 841)" d="M469.168 577.208L485.531 577.208" stroke="#000000" stroke-width="0.436" fill="none" /><path id="369" transform="matrix(1 0 0 -1 0 841)" d="M136.312 563.434L178.988 563.434" stroke="#000000" stroke-width="0.398" fill="none" /><path id="370" transform="matrix(1 0 0 -1 0 841)" d="M136.511 549.378L136.511 563.434" stroke="#000000" stroke-width="0.398" fill="none" /><path id="371" transform="matrix(1 0 0 -1 0 841)" d="M178.789 549.378L178.789 563.434" stroke="#000000" stroke-width="0.398" fill="none" /><path id="372" transform="matrix(1 0 0 -1 0 841)" d="M136.312 549.378L178.988 549.378" stroke="#000000" stroke-width="0.398" fill="none" /><path id="580" transform="matrix(1 0 0 -1 0 841)" d="M320.887 484.586L418.86 484.586" stroke="#000000" stroke-width="0.436" fill="none" /><path id="800" transform="matrix(1 0 0 -1 0 841)" d="M253.175 363.522L289.96 363.522" stroke="#000000" stroke-width="0.436" fill="none" /><path id="819" transform="matrix(1 0 0 -1 0 841)" d="M300.836 363.522L367.438 363.522" stroke="#000000" stroke-width="0.436" fill="none" /><path id="830" transform="matrix(1 0 0 -1 0 841)" d="M378.314 363.522L417.106 363.522" stroke="#000000" stroke-width="0.436" fill="none" /><path id="838" transform="matrix(1 0 0 -1 0 841)" d="M251.98 349.559L418.302 349.559" stroke="#000000" stroke-width="0.436" fill="none" /><path id="861" transform="matrix(1 0 0 -1 0 841)" d="M432.822 359.857L498.286 359.857" stroke="#000000" stroke-width="0.398" fill="none" /><path id="862" transform="matrix(1 0 0 -1 0 841)" d="M433.021 340.916L433.021 359.857" stroke="#000000" stroke-width="0.398" fill="none" /><path id="863" transform="matrix(1 0 0 -1 0 841)" d="M498.087 340.916L498.087 359.857" stroke="#000000" stroke-width="0.398" fill="none" /><path id="864" transform="matrix(1 0 0 -1 0 841)" d="M432.822 340.916L498.286 340.916" stroke="#000000" stroke-width="0.398" fill="none" /><path id="1262" transform="matrix(1 0 0 -1 0 841)" d="M336.46 211.535L361.311 211.535" stroke="#000000" stroke-width="0.436" fill="none" /><path id="1283" transform="matrix(1 0 0 -1 0 841)" d="M415.505 211.535L430.003 211.535" stroke="#000000" stroke-width="0.436" fill="none" /><path id="1289" transform="matrix(1 0 0 -1 0 841)" d="M251.032 194.58L431.198 194.58" stroke="#000000" stroke-width="0.436" fill="none" /><path id="1312" transform="matrix(1 0 0 -1 0 841)" d="M444.772 204.879L510.236 204.879" stroke="#000000" stroke-width="0.398" fill="none" /><path id="1313" transform="matrix(1 0 0 -1 0 841)" d="M444.971 185.938L444.971 204.879" stroke="#000000" stroke-width="0.398" fill="none" /><path id="1314" transform="matrix(1 0 0 -1 0 841)" d="M510.037 185.938L510.037 204.879" stroke="#000000" stroke-width="0.398" fill="none" /><path id="1315" transform="matrix(1 0 0 -1 0 841)" d="M444.772 185.938L510.236 185.938" stroke="#000000" stroke-width="0.398" fill="none" /></g></g></svg>