<svg xmlns="http://www.w3.org/2000/svg" xmlns:xlink="http://www.w3.org/1999/xlink" id="body_309" preserveAspectRatio="xMinYMin meet" viewBox="0 0 793 1121"><defs><clipPath id="1"><path id="" clip-rule="evenodd" transform="matrix(1 0 0 1 0 0)" d="M0 841L0 -0.8900146L0 -0.8900146L595.276 -0.8900146L595.276 -0.8900146L595.276 841L595.276 841L0 841z" /></clipPath></defs><g transform="matrix(1.333333 0 0 1.333333 0 0)"><g clip-path="url(#1)"><path id="19" transform="matrix(1 0 0 -1 0 841)" d="M85.039 766.564L510.236 766.564" stroke="#000000" stroke-width="0.498" fill="none" /><path id="41" transform="matrix(1 0 0 -1 0 841)" d="M181.368 756.651L228.441 756.651" stroke="#000000" stroke-width="0.398" fill="none" /><path id="42" transform="matrix(1 0 0 -1 0 841)" d="M181.567 738.158L181.567 756.651" stroke="#000000" stroke-width="0.398" fill="none" /><path id="43" transform="matrix(1 0 0 -1 0 841)" d="M228.242 738.158L228.242 756.651" stroke="#000000" stroke-width="0.398" fill="none" /><path id="44" transform="matrix(1 0 0 -1 0 841)" d="M181.368 738.158L228.441 738.158" stroke="#000000" stroke-width="0.398" fill="none" /><path id="247" transform="matrix(1 0 0 -1 0 841)" d="M138.653 591.9894L98.96808 611.8318L167.0057 632.095L206.686 621.7538z" stroke="none" fill="#CCCCCC" fill-rule="nonzero" /><path id="248" transform="matrix(1 0 0 -1 0 841)" d="M98.96808 611.8318L98.96808 657.1869L167.0066 665.8722L167.0057 632.095z" stroke="none" fill="#BFBFBF" fill-rule="nonzero" /><path id="257" transform="matrix(1 0 0 -1 0 841)" d="M167.0066 665.8722L167.0057 632.095L206.686 621.7538L206.686 661.4391z" stroke="none" fill="#F2F2F2" fill-rule="nonzero" fill-opacity="0.2" /><path id="266" transform="matrix(1 0 0 -1 0 841)" d="M138.653 648.683L138.653 591.9894L98.96808 611.8318L98.96808 657.1869z" stroke="none" fill="#F2F2F2" fill-rule="nonzero" fill-opacity="0.4980392" /><path id="275" transform="matrix(1 0 0 -1 0 841)" d="M138.653 648.683L98.96808 657.1869L167.0066 665.8722L206.686 661.4391z" stroke="none" fill="#CCCCCC" fill-rule="nonzero" fill-opacity="0.2" /><path id="276" transform="matrix(1 0 0 -1 0 841)" d="M167.0066 665.8722L167.0057 632.095" stroke="#000000" stroke-width="0.79701" stroke-dasharray="3.750053,3.750053" fill="none" /><path id="277" transform="matrix(1 0 0 -1 0 841)" d="M98.96808 611.8318L167.0057 632.095" stroke="#000000" stroke-width="0.79701" stroke-dasharray="3.750053,3.750053" fill="none" /><path id="278" transform="matrix(1 0 0 -1 0 841)" d="M206.686 621.7538L167.0057 632.095" stroke="#000000" stroke-width="0.79701" stroke-dasharray="3.750053,3.750053" fill="none" /><path id="287" transform="matrix(1 0 0 -1 0 841)" d="M138.653 648.683L138.653 591.9894" stroke="#000000" stroke-width="0.79701" fill="none" /><path id="288" transform="matrix(1 0 0 -1 0 841)" d="M87.62868 659.0564L87.62868 612.2306" stroke="#000000" stroke-width="0.3985" fill="none" /><path id="289" transform="matrix(1 0 0 -1 0 841)" d="M85.23764 657.1833C 86.67229 657.562 87.34972 658.4056 87.62868 659.2556C 87.90763 658.4056 88.58507 657.562 90.01971 657.1833" stroke="#000000" stroke-width="0.3985" stroke-linecap="round" fill="none" /><path id="290" transform="matrix(1 0 0 -1 0 841)" d="M90.01971 614.1036C 88.58507 613.725 87.90763 612.8813 87.62868 612.0313C 87.34972 612.8813 86.67229 613.725 85.23764 614.1036" stroke="#000000" stroke-width="0.3985" stroke-linecap="round" fill="none" /><path id="301" transform="matrix(1 0 0 -1 0 841)" d="M93.6488 608.8087L129.798 589.3434" stroke="#000000" stroke-width="0.3985" fill="none" /><path id="302" transform="matrix(1 0 0 -1 0 841)" d="M94.16428 605.8156C 94.51111 607.2582 94.08949 608.2546 93.47339 608.9031C 94.35398 608.7458 95.41792 608.9423 96.43137 610.0259" stroke="#000000" stroke-width="0.3984783" stroke-linecap="round" fill="none" /><path id="303" transform="matrix(1 0 0 -1 0 841)" d="M129.2825 592.3365C 128.9357 590.8939 129.3573 589.8975 129.9734 589.249C 129.0928 589.4063 128.0289 589.2098 127.0155 588.1262" stroke="#000000" stroke-width="0.3984783" stroke-linecap="round" fill="none" /><path id="314" transform="matrix(1 0 0 -1 0 841)" d="M211.9909 616.4887L144.6862 586.4824" stroke="#000000" stroke-width="0.3985" fill="none" /><path id="315" transform="matrix(1 0 0 -1 0 841)" d="M209.3067 617.9098C 210.2366 616.7537 211.283 616.4785 212.1729 616.5698C 211.5102 615.9689 211.0155 615.0067 211.2539 613.5423" stroke="#000000" stroke-width="0.3984862" stroke-linecap="round" fill="none" /><path id="316" transform="matrix(1 0 0 -1 0 841)" d="M147.3704 585.0612C 146.4405 586.2173 145.3941 586.4925 144.5042 586.4012C 145.1669 587.0021 145.6616 587.9643 145.4232 589.4287" stroke="#000000" stroke-width="0.3984862" stroke-linecap="round" fill="none" /><path id="326" transform="matrix(1 0 0 -1 0 841)" d="M98.96808 611.8318L98.96808 657.1869" stroke="#000000" stroke-width="0.79701" fill="none" /><path id="327" transform="matrix(1 0 0 -1 0 841)" d="M206.686 621.7538L206.686 661.4391" stroke="#000000" stroke-width="0.79701" fill="none" /><path id="328" transform="matrix(1 0 0 -1 0 841)" d="M138.653 648.683L98.96808 657.1869" stroke="#000000" stroke-width="0.79701" fill="none" /><path id="329" transform="matrix(1 0 0 -1 0 841)" d="M138.653 648.683L206.686 661.4391" stroke="#000000" stroke-width="0.79701" fill="none" /><path id="330" transform="matrix(1 0 0 -1 0 841)" d="M138.653 591.9894L98.96808 611.8318" stroke="#000000" stroke-width="0.79701" fill="none" /><path id="331" transform="matrix(1 0 0 -1 0 841)" d="M138.653 591.9894L206.686 621.7538" stroke="#000000" stroke-width="0.79701" fill="none" /><path id="332" transform="matrix(1 0 0 -1 0 841)" d="M98.96808 657.1869L167.0066 665.8722" stroke="#000000" stroke-width="0.79701" fill="none" /><path id="333" transform="matrix(1 0 0 -1 0 841)" d="M206.686 661.4391L167.0066 665.8722" stroke="#000000" stroke-width="0.79701" fill="none" /><path id="405" transform="matrix(1 0 0 -1 0 841)" d="M137.469 539.804L151.967 539.804" stroke="#000000" stroke-width="0.436" fill="none" /><path id="433" transform="matrix(1 0 0 -1 0 841)" d="M255.38 539.804L295.678 539.804" stroke="#000000" stroke-width="0.436" fill="none" /><path id="442" transform="matrix(1 0 0 -1 0 841)" d="M276.462 521.998L290.96 521.998" stroke="#000000" stroke-width="0.436" fill="none" /><path id="456" transform="matrix(1 0 0 -1 0 841)" d="M310.188 547.775L366.566 547.775" stroke="#000000" stroke-width="0.398" fill="none" /><path id="457" transform="matrix(1 0 0 -1 0 841)" d="M310.387 531.663L310.387 547.775" stroke="#000000" stroke-width="0.398" fill="none" /><path id="458" transform="matrix(1 0 0 -1 0 841)" d="M366.366 531.663L366.366 547.775" stroke="#000000" stroke-width="0.398" fill="none" /><path id="459" transform="matrix(1 0 0 -1 0 841)" d="M310.188 531.663L366.566 531.663" stroke="#000000" stroke-width="0.398" fill="none" /><path id="577" transform="matrix(1 0 0 -1 0 841)" d="M269.694 452.303L302.595 452.303" stroke="#000000" stroke-width="0.398" fill="none" /><path id="578" transform="matrix(1 0 0 -1 0 841)" d="M269.893 436.316L269.893 452.303" stroke="#000000" stroke-width="0.398" fill="none" /><path id="579" transform="matrix(1 0 0 -1 0 841)" d="M302.396 436.316L302.396 452.303" stroke="#000000" stroke-width="0.398" fill="none" /><path id="580" transform="matrix(1 0 0 -1 0 841)" d="M269.694 436.316L302.595 436.316" stroke="#000000" stroke-width="0.398" fill="none" /><path id="668" transform="matrix(1 0 0 -1 0 841)" d="M161.751 317.284L168.624 317.284" stroke="#000000" stroke-width="0.436" fill="none" /><path id="707" transform="matrix(1 0 0 -1 0 841)" d="M136.759 293.968L161.599 293.968" stroke="#000000" stroke-width="0.436" fill="none" /><path id="718" transform="matrix(1 0 0 -1 0 841)" d="M220.346 300.604L250.64 300.604" stroke="#000000" stroke-width="0.425" fill="none" /><path id="730" transform="matrix(1 0 0 -1 0 841)" d="M263.965 301.76L291.412 301.76" stroke="#000000" stroke-width="0.398" fill="none" /><path id="731" transform="matrix(1 0 0 -1 0 841)" d="M264.165 285.773L264.165 301.76" stroke="#000000" stroke-width="0.398" fill="none" /><path id="732" transform="matrix(1 0 0 -1 0 841)" d="M291.213 285.773L291.213 301.76" stroke="#000000" stroke-width="0.398" fill="none" /><path id="733" transform="matrix(1 0 0 -1 0 841)" d="M263.965 285.773L291.412 285.773" stroke="#000000" stroke-width="0.398" fill="none" /><path id="825" transform="matrix(1 0 0 -1 0 841)" d="M90.90784 154.205C 90.90784 158.9017 89.63864 162.7091 88.073 162.7091C 86.50735 162.7091 85.23816 158.9017 85.23816 154.205C 85.23816 149.5083 86.50735 145.7009 88.073 145.7009C 89.63864 145.7009 90.90784 149.5083 90.90784 154.205z" stroke="#000000" stroke-width="0.3985" fill="none" /><path id="826" transform="matrix(1 0 0 -1 0 841)" d="M374.3759 154.205C 374.3759 158.9017 373.1068 162.7091 371.5411 162.7091C 369.9754 162.7091 368.7062 158.9017 368.7062 154.205C 368.7062 149.5083 369.9754 145.7009 371.5411 145.7009C 373.1068 145.7009 374.3759 149.5083 374.3759 154.205z" stroke="#000000" stroke-width="0.3985" fill="none" /><path id="827" transform="matrix(1 0 0 -1 0 841)" d="M88.073 145.9846L371.5411 145.9846" stroke="#000000" stroke-width="0.3985" fill="none" /><path id="828" transform="matrix(1 0 0 -1 0 841)" d="M88.073 162.4254L371.5411 162.4254" stroke="#000000" stroke-width="0.3985" fill="none" /><path id="829" transform="matrix(1 0 0 -1 0 841)" d="M371.5411 146.6665L371.5411 161.7435" stroke="#000000" stroke-width="0.3985" fill="none" /><path id="830" transform="matrix(1 0 0 -1 0 841)" d="M373.9322 148.5394C 372.4975 148.1608 371.8201 147.3172 371.5411 146.4672C 371.2621 147.3172 370.5847 148.1608 369.1501 148.5394" stroke="#000000" stroke-width="0.3985" stroke-linecap="round" fill="none" /><path id="831" transform="matrix(1 0 0 -1 0 841)" d="M369.1501 159.8706C 370.5847 160.2491 371.2621 161.0928 371.5411 161.9428C 371.8201 161.0928 372.4975 160.2491 373.9322 159.8706" stroke="#000000" stroke-width="0.3985" stroke-linecap="round" fill="none" /><path id="843" transform="matrix(1 0 0 -1 0 841)" d="M88.4715 134.9294L371.1426 134.9294" stroke="#000000" stroke-width="0.3985" fill="none" /><path id="844" transform="matrix(1 0 0 -1 0 841)" d="M90.34449 132.5383C 89.9659 133.973 89.12224 134.6504 88.27225 134.9294C 89.12224 135.2083 89.9659 135.8858 90.34449 137.3204" stroke="#000000" stroke-width="0.3985" stroke-linecap="round" fill="none" /><path id="845" transform="matrix(1 0 0 -1 0 841)" d="M369.2696 137.3204C 369.6482 135.8858 370.4919 135.2083 371.3418 134.9294C 370.4919 134.6504 369.6482 133.973 369.2696 132.5383" stroke="#000000" stroke-width="0.3985" stroke-linecap="round" fill="none" /><path id="865" transform="matrix(1 0 0 -1 0 841)" d="M86.235 94.987L93.108 94.987" stroke="#000000" stroke-width="0.436" fill="none" /><path id="880" transform="matrix(1 0 0 -1 0 841)" d="M175.603 94.987L186.512 94.987" stroke="#000000" stroke-width="0.436" fill="none" /><path id="906" transform="matrix(1 0 0 -1 0 841)" d="M266.864 94.987L300.103 94.987" stroke="#000000" stroke-width="0.436" fill="none" /><path id="923" transform="matrix(1 0 0 -1 0 841)" d="M314.623 102.959L376.455 102.959" stroke="#000000" stroke-width="0.398" fill="none" /><path id="924" transform="matrix(1 0 0 -1 0 841)" d="M314.822 86.847L314.822 102.959" stroke="#000000" stroke-width="0.398" fill="none" /><path id="925" transform="matrix(1 0 0 -1 0 841)" d="M376.256 86.847L376.256 102.959" stroke="#000000" stroke-width="0.398" fill="none" /><path id="926" transform="matrix(1 0 0 -1 0 841)" d="M314.623 86.847L376.455 86.847" stroke="#000000" stroke-width="0.398" fill="none" /></g></g></svg>