<svg xmlns="http://www.w3.org/2000/svg" xmlns:xlink="http://www.w3.org/1999/xlink" id="body_270" preserveAspectRatio="xMinYMin meet" viewBox="0 0 793 1121"><defs><clipPath id="1"><path id="" clip-rule="evenodd" transform="matrix(1 0 0 1 0 0)" d="M0 841L0 -0.8900146L0 -0.8900146L595.276 -0.8900146L595.276 -0.8900146L595.276 841L595.276 841L0 841z" /></clipPath></defs><g transform="matrix(1.333333 0 0 1.333333 0 0)"><g clip-path="url(#1)"><path id="23" transform="matrix(1 0 0 -1 0 841)" d="M85.039 766.564L510.236 766.564" stroke="#000000" stroke-width="0.498" fill="none" /><path id="266" transform="matrix(1 0 0 -1 0 841)" d="M330.0166 621.4728L265.2594 621.4728C 263.0585 621.4728 261.2743 619.6887 261.2743 617.4877L261.2743 617.4877L261.2743 592.7303C 261.2743 590.5294 263.0585 588.7452 265.2594 588.7452L265.2594 588.7452L330.0166 588.7452C 332.2175 588.7452 334.0017 590.5294 334.0017 592.7303L334.0017 592.7303L334.0017 617.4877C 334.0017 619.6887 332.2175 621.4728 330.0166 621.4728z" stroke="#000000" stroke-width="0.3985" fill="#FF9999" fill-rule="nonzero" /><path id="344" transform="matrix(1 0 0 -1 0 841)" d="M211.9193 605.109L258.6841 605.109" stroke="#000000" stroke-width="0.3985" fill="none" /><path id="345" transform="matrix(1 0 0 -1 0 841)" d="M261.075 605.109C 260.0788 605.3083 258.2855 605.7068 257.09 606.6034C 258.0863 605.5075 258.0863 604.7105 257.09 603.6146C 258.2855 604.5112 260.0788 604.9097 261.075 605.109z" stroke="none" fill="#000000" fill-rule="nonzero" /><path id="346" transform="matrix(1 0 0 -1 0 841)" d="M334.2009 605.109L380.9657 605.109" stroke="#000000" stroke-width="0.3985" fill="none" /><path id="347" transform="matrix(1 0 0 -1 0 841)" d="M383.3567 605.109C 382.3604 605.3083 380.5672 605.7068 379.3717 606.6034C 380.368 605.5075 380.368 604.7105 379.3717 603.6146C 380.5672 604.5112 382.3604 604.9097 383.3567 605.109z" stroke="none" fill="#000000" fill-rule="nonzero" /><path id="348" transform="matrix(1 0 0 -1 0 841)" d="M297.638 588.5459L297.638 574.2697" stroke="#000000" stroke-width="0.3985" fill="none" /><path id="349" transform="matrix(1 0 0 -1 0 841)" d="M297.638 571.8787C 297.8372 572.8749 298.2357 574.6682 299.1324 575.8636C 298.0365 574.8674 297.2395 574.8674 296.1436 575.8636C 297.0403 574.6682 297.4388 572.8749 297.638 571.8787z" stroke="none" fill="#000000" fill-rule="nonzero" /><path id="411" transform="matrix(1 0 0 -1 0 841)" d="M244.376 500.224L289.138 500.224" stroke="#000000" stroke-width="0.436" fill="none" /><path id="437" transform="matrix(1 0 0 -1 0 841)" d="M329.702 500.224L427.733 500.224" stroke="#000000" stroke-width="0.436" fill="none" /><path id="666" transform="matrix(1 0 0 -1 0 841)" d="M208.922 374.599L246.904 374.599" stroke="#000000" stroke-width="0.436" fill="none" /><path id="681" transform="matrix(1 0 0 -1 0 841)" d="M301.408 374.599L337.754 374.599" stroke="#000000" stroke-width="0.436" fill="none" /><path id="692" transform="matrix(1 0 0 -1 0 841)" d="M377.123 382.51L403.894 382.51" stroke="#000000" stroke-width="0.398" fill="none" /><path id="693" transform="matrix(1 0 0 -1 0 841)" d="M377.322 368.514L377.322 382.51" stroke="#000000" stroke-width="0.398" fill="none" /><path id="694" transform="matrix(1 0 0 -1 0 841)" d="M403.694 368.514L403.694 382.51" stroke="#000000" stroke-width="0.398" fill="none" /><path id="695" transform="matrix(1 0 0 -1 0 841)" d="M377.123 368.514L403.894 368.514" stroke="#000000" stroke-width="0.398" fill="none" /><path id="833" transform="matrix(1 0 0 -1 0 841)" d="M410.219 279.613L421.128 279.613" stroke="#000000" stroke-width="0.436" fill="none" /><path id="1280" transform="matrix(1 0 0 -1 0 841)" d="M425.066 127.034L429.942 127.034" stroke="#000000" stroke-width="0.436" fill="none" /><path id="1374" transform="matrix(1 0 0 -1 0 841)" d="M193.863 91.996L198.739 91.996" stroke="#000000" stroke-width="0.436" fill="none" /><path id="1379" transform="matrix(1 0 0 -1 0 841)" d="M214.455 91.996L223.782 91.996" stroke="#000000" stroke-width="0.436" fill="none" /></g></g></svg>