<svg xmlns="http://www.w3.org/2000/svg" xmlns:xlink="http://www.w3.org/1999/xlink" id="body_314" preserveAspectRatio="xMinYMin meet" viewBox="0 0 793 1121"><defs><clipPath id="1"><path id="" clip-rule="evenodd" transform="matrix(1 0 0 1 0 0)" d="M0 841L0 -0.8900146L0 -0.8900146L595.276 -0.8900146L595.276 -0.8900146L595.276 841L595.276 841L0 841z" /></clipPath></defs><g transform="matrix(1.333333 0 0 1.333333 0 0)"><g clip-path="url(#1)"><path id="19" transform="matrix(1 0 0 -1 0 841)" d="M85.039 766.564L510.236 766.564" stroke="#000000" stroke-width="0.498" fill="none" /><path id="1688" transform="matrix(1 0 0 -1 0 841)" d="M169.861 89.896L212.886 89.896" stroke="#000000" stroke-width="0.436" fill="none" /><path id="1711" transform="matrix(1 0 0 -1 0 841)" d="M296.106 97.808L337.429 97.808" stroke="#000000" stroke-width="0.398" fill="none" /><path id="1712" transform="matrix(1 0 0 -1 0 841)" d="M296.305 83.812L296.305 97.808" stroke="#000000" stroke-width="0.398" fill="none" /><path id="1713" transform="matrix(1 0 0 -1 0 841)" d="M337.23 83.812L337.23 97.808" stroke="#000000" stroke-width="0.398" fill="none" /><path id="1714" transform="matrix(1 0 0 -1 0 841)" d="M296.106 83.812L337.429 83.812" stroke="#000000" stroke-width="0.398" fill="none" /></g></g></svg>