<svg xmlns="http://www.w3.org/2000/svg" xmlns:xlink="http://www.w3.org/1999/xlink" id="body_334" preserveAspectRatio="xMinYMin meet" viewBox="0 0 793 1121"><defs><clipPath id="1"><path id="" clip-rule="evenodd" transform="matrix(1 0 0 1 0 0)" d="M0 841L0 -0.8900146L0 -0.8900146L595.276 -0.8900146L595.276 -0.8900146L595.276 841L595.276 841L0 841z" /></clipPath></defs><g transform="matrix(1.333333 0 0 1.333333 0 0)"><g clip-path="url(#1)"><path id="34" transform="matrix(1 0 0 -1 0 841)" d="M85.039 766.564L510.236 766.564" stroke="#000000" stroke-width="0.498" fill="none" /><path id="127" transform="matrix(1 0 0 -1 0 841)" d="M447.643 730.179L480.959 730.179" stroke="#000000" stroke-width="0.436" fill="none" /><path id="146" transform="matrix(1 0 0 -1 0 841)" d="M168.445 689.579L201.761 689.579" stroke="#000000" stroke-width="0.436" fill="none" /><path id="174" transform="matrix(1 0 0 -1 0 841)" d="M319.729 689.579L333.975 689.579" stroke="#000000" stroke-width="0.436" fill="none" /><path id="178" transform="matrix(1 0 0 -1 0 841)" d="M283.824 714.867L350.494 714.867L350.494 718.852L283.824 718.852z" stroke="none" fill="#000000" fill-rule="nonzero" /><path id="179" transform="matrix(1 0 0 -1 0 841)" d="M283.824 665.917L287.809 665.917L287.809 716.86L283.824 716.86z" stroke="none" fill="#000000" fill-rule="nonzero" /><path id="180" transform="matrix(1 0 0 -1 0 841)" d="M346.509 665.917L350.494 665.917L350.494 716.86L346.509 716.86z" stroke="none" fill="#000000" fill-rule="nonzero" /><path id="181" transform="matrix(1 0 0 -1 0 841)" d="M283.824 663.924L350.494 663.924L350.494 667.909L283.824 667.909z" stroke="none" fill="#000000" fill-rule="nonzero" /><g transform="matrix(0.3 0 0 0.3 112.312 231.7841)"><g transform="matrix(1 0 0 1 0 0)"><image x="0" y="0" xlink:href="img_392.png" width="474" height="243" /></g></g><path id="312" transform="matrix(1 0 0 -1 0 841)" d="M205.458 522.107L213.334 522.107" stroke="#000000" stroke-width="0.436" fill="none" /><path id="319" transform="matrix(1 0 0 -1 0 841)" d="M145.853 471.727L155.616 471.727" stroke="#000000" stroke-width="0.436" fill="none" /><path id="329" transform="matrix(1 0 0 -1 0 841)" d="M186.458 486.192L203.858 486.192" stroke="#000000" stroke-width="0.436" fill="none" /><path id="348" transform="matrix(1 0 0 -1 0 841)" d="M214.734 486.192L267.414 486.192" stroke="#000000" stroke-width="0.436" fill="none" /><path id="358" transform="matrix(1 0 0 -1 0 841)" d="M278.289 486.192L312.172 486.192" stroke="#000000" stroke-width="0.436" fill="none" /><path id="374" transform="matrix(1 0 0 -1 0 841)" d="M323.048 486.192L376.969 486.192" stroke="#000000" stroke-width="0.436" fill="none" /><path id="385" transform="matrix(1 0 0 -1 0 841)" d="M171.332 471.727L378.165 471.727" stroke="#000000" stroke-width="0.436" fill="none" /><path id="408" transform="matrix(1 0 0 -1 0 841)" d="M423.134 471.727L432.897 471.727" stroke="#000000" stroke-width="0.436" fill="none" /><path id="410" transform="matrix(1 0 0 -1 0 841)" d="M392.684 495.055L449.416 495.055L449.416 499.04L392.684 499.04z" stroke="none" fill="#000000" fill-rule="nonzero" /><path id="411" transform="matrix(1 0 0 -1 0 841)" d="M392.684 448.065L396.669 448.065L396.669 497.047L392.684 497.047z" stroke="none" fill="#000000" fill-rule="nonzero" /><path id="412" transform="matrix(1 0 0 -1 0 841)" d="M445.432 448.065L449.417 448.065L449.417 497.047L445.432 497.047z" stroke="none" fill="#000000" fill-rule="nonzero" /><path id="413" transform="matrix(1 0 0 -1 0 841)" d="M392.684 446.073L449.416 446.073L449.416 450.058L392.684 450.058z" stroke="none" fill="#000000" fill-rule="nonzero" /><path id="497" transform="matrix(1 0 0 -1 0 841)" d="M190.974 316.215L221.584 316.215" stroke="#000000" stroke-width="0.436" fill="none" /><path id="510" transform="matrix(1 0 0 -1 0 841)" d="M236.104 334.664L302.707 334.664L302.707 338.649L236.104 338.649z" stroke="none" fill="#000000" fill-rule="nonzero" /><path id="511" transform="matrix(1 0 0 -1 0 841)" d="M236.104 297.931L240.089 297.931L240.089 336.656L236.104 336.656z" stroke="none" fill="#000000" fill-rule="nonzero" /><path id="512" transform="matrix(1 0 0 -1 0 841)" d="M298.722 297.931L302.707 297.931L302.707 336.656L298.722 336.656z" stroke="none" fill="#000000" fill-rule="nonzero" /><path id="513" transform="matrix(1 0 0 -1 0 841)" d="M236.104 295.939L302.707 295.939L302.707 299.924L236.104 299.924z" stroke="none" fill="#000000" fill-rule="nonzero" /><path id="556" transform="matrix(1 0 0 -1 0 841)" d="M113.508 226.997L127.754 226.997" stroke="#000000" stroke-width="0.436" fill="none" /><path id="567" transform="matrix(1 0 0 -1 0 841)" d="M154.379 226.997L170.742 226.997" stroke="#000000" stroke-width="0.436" fill="none" /><path id="577" transform="matrix(1 0 0 -1 0 841)" d="M181.618 226.997L215.501 226.997" stroke="#000000" stroke-width="0.436" fill="none" /><path id="595" transform="matrix(1 0 0 -1 0 841)" d="M226.377 226.997L253.65 226.997" stroke="#000000" stroke-width="0.436" fill="none" /><path id="606" transform="matrix(1 0 0 -1 0 841)" d="M304.074 226.997L318.32 226.997" stroke="#000000" stroke-width="0.436" fill="none" /><path id="609" transform="matrix(1 0 0 -1 0 841)" d="M268.17 252.285L334.84 252.285L334.84 256.27L268.17 256.27z" stroke="none" fill="#000000" fill-rule="nonzero" /><path id="610" transform="matrix(1 0 0 -1 0 841)" d="M268.17 203.335L272.155 203.335L272.155 254.278L268.17 254.278z" stroke="none" fill="#000000" fill-rule="nonzero" /><path id="611" transform="matrix(1 0 0 -1 0 841)" d="M330.855 203.335L334.84 203.335L334.84 254.278L330.855 254.278z" stroke="none" fill="#000000" fill-rule="nonzero" /><path id="612" transform="matrix(1 0 0 -1 0 841)" d="M268.17 201.343L334.84 201.343L334.84 205.328L268.17 205.328z" stroke="none" fill="#000000" fill-rule="nonzero" /><path id="662" transform="matrix(1 0 0 -1 0 841)" d="M113.508 136.023L129.871 136.023" stroke="#000000" stroke-width="0.436" fill="none" /><path id="676" transform="matrix(1 0 0 -1 0 841)" d="M164.972 136.023L179.218 136.023" stroke="#000000" stroke-width="0.436" fill="none" /><path id="690" transform="matrix(1 0 0 -1 0 841)" d="M190.094 136.023L223.977 136.023" stroke="#000000" stroke-width="0.436" fill="none" /><path id="704" transform="matrix(1 0 0 -1 0 841)" d="M234.853 136.023L259.693 136.023" stroke="#000000" stroke-width="0.436" fill="none" /><path id="717" transform="matrix(1 0 0 -1 0 841)" d="M315.572 136.023L331.935 136.023" stroke="#000000" stroke-width="0.436" fill="none" /><path id="721" transform="matrix(1 0 0 -1 0 841)" d="M274.213 159.53L348.455 159.53L348.455 163.515L274.213 163.515z" stroke="none" fill="#000000" fill-rule="nonzero" /><path id="722" transform="matrix(1 0 0 -1 0 841)" d="M274.213 112.361L278.198 112.361L278.198 161.523L274.213 161.523z" stroke="none" fill="#000000" fill-rule="nonzero" /><path id="723" transform="matrix(1 0 0 -1 0 841)" d="M344.47 112.361L348.455 112.361L348.455 161.523L344.47 161.523z" stroke="none" fill="#000000" fill-rule="nonzero" /><path id="724" transform="matrix(1 0 0 -1 0 841)" d="M274.213 110.368L348.455 110.368L348.455 114.353L274.213 114.353z" stroke="none" fill="#000000" fill-rule="nonzero" /></g></g></svg>