<svg xmlns="http://www.w3.org/2000/svg" xmlns:xlink="http://www.w3.org/1999/xlink" id="body_99" preserveAspectRatio="xMinYMin meet" viewBox="0 0 793 1121"><defs><clipPath id="1"><path id="" clip-rule="evenodd" transform="matrix(1 0 0 1 0 0)" d="M0 841L0 -0.8900146L0 -0.8900146L595.276 -0.8900146L595.276 -0.8900146L595.276 841L595.276 841L0 841z" /></clipPath></defs><g transform="matrix(1.333333 0 0 1.333333 0 0)"><g clip-path="url(#1)"><path id="30" transform="matrix(1 0 0 -1 0 841)" d="M85.039 766.564L510.236 766.564" stroke="#000000" stroke-width="0.498" fill="none" /><path id="553" transform="matrix(1 0 0 -1 0 841)" d="M128.116 612.82L467.16 612.82" stroke="#000000" stroke-width="0.398" fill="none" /><path id="554" transform="matrix(1 0 0 -1 0 841)" d="M128.315 599.072L128.315 612.621" stroke="#000000" stroke-width="0.398" fill="none" /><path id="561" transform="matrix(1 0 0 -1 0 841)" d="M289.696 599.072L289.696 612.621" stroke="#000000" stroke-width="0.398" fill="none" /><path id="590" transform="matrix(1 0 0 -1 0 841)" d="M466.961 599.072L466.961 612.621" stroke="#000000" stroke-width="0.398" fill="none" /><path id="591" transform="matrix(1 0 0 -1 0 841)" d="M128.116 598.872L467.16 598.872" stroke="#000000" stroke-width="0.398" fill="none" /><path id="592" transform="matrix(1 0 0 -1 0 841)" d="M128.315 585.124L128.315 598.673" stroke="#000000" stroke-width="0.398" fill="none" /><path id="616" transform="matrix(1 0 0 -1 0 841)" d="M289.696 585.124L289.696 598.673" stroke="#000000" stroke-width="0.398" fill="none" /><path id="623" transform="matrix(1 0 0 -1 0 841)" d="M466.961 585.124L466.961 598.673" stroke="#000000" stroke-width="0.398" fill="none" /><path id="624" transform="matrix(1 0 0 -1 0 841)" d="M128.116 584.925L467.16 584.925" stroke="#000000" stroke-width="0.398" fill="none" /><path id="625" transform="matrix(1 0 0 -1 0 841)" d="M128.315 571.176L128.315 584.725" stroke="#000000" stroke-width="0.398" fill="none" /><path id="643" transform="matrix(1 0 0 -1 0 841)" d="M289.696 571.176L289.696 584.725" stroke="#000000" stroke-width="0.398" fill="none" /><path id="650" transform="matrix(1 0 0 -1 0 841)" d="M466.961 571.176L466.961 584.725" stroke="#000000" stroke-width="0.398" fill="none" /><path id="651" transform="matrix(1 0 0 -1 0 841)" d="M128.116 570.977L467.16 570.977" stroke="#000000" stroke-width="0.398" fill="none" /><path id="652" transform="matrix(1 0 0 -1 0 841)" d="M128.315 557.228L128.315 570.777" stroke="#000000" stroke-width="0.398" fill="none" /><path id="669" transform="matrix(1 0 0 -1 0 841)" d="M289.696 557.228L289.696 570.777" stroke="#000000" stroke-width="0.398" fill="none" /><path id="677" transform="matrix(1 0 0 -1 0 841)" d="M466.961 557.228L466.961 570.777" stroke="#000000" stroke-width="0.398" fill="none" /><path id="678" transform="matrix(1 0 0 -1 0 841)" d="M128.116 557.029L467.16 557.029" stroke="#000000" stroke-width="0.398" fill="none" /><path id="679" transform="matrix(1 0 0 -1 0 841)" d="M128.315 543.281L128.315 556.83" stroke="#000000" stroke-width="0.398" fill="none" /><path id="703" transform="matrix(1 0 0 -1 0 841)" d="M289.696 543.281L289.696 556.83" stroke="#000000" stroke-width="0.398" fill="none" /><path id="711" transform="matrix(1 0 0 -1 0 841)" d="M466.961 543.281L466.961 556.83" stroke="#000000" stroke-width="0.398" fill="none" /><path id="712" transform="matrix(1 0 0 -1 0 841)" d="M128.116 543.082L467.16 543.082" stroke="#000000" stroke-width="0.398" fill="none" /><path id="713" transform="matrix(1 0 0 -1 0 841)" d="M128.315 529.333L128.315 542.882" stroke="#000000" stroke-width="0.398" fill="none" /><path id="743" transform="matrix(1 0 0 -1 0 841)" d="M289.696 529.333L289.696 542.882" stroke="#000000" stroke-width="0.398" fill="none" /><path id="750" transform="matrix(1 0 0 -1 0 841)" d="M466.961 529.333L466.961 542.882" stroke="#000000" stroke-width="0.398" fill="none" /><path id="751" transform="matrix(1 0 0 -1 0 841)" d="M128.116 529.134L467.16 529.134" stroke="#000000" stroke-width="0.398" fill="none" /><path id="752" transform="matrix(1 0 0 -1 0 841)" d="M128.315 515.385L128.315 528.934" stroke="#000000" stroke-width="0.398" fill="none" /><path id="779" transform="matrix(1 0 0 -1 0 841)" d="M289.696 515.385L289.696 528.934" stroke="#000000" stroke-width="0.398" fill="none" /><path id="786" transform="matrix(1 0 0 -1 0 841)" d="M466.961 515.385L466.961 528.934" stroke="#000000" stroke-width="0.398" fill="none" /><path id="787" transform="matrix(1 0 0 -1 0 841)" d="M128.116 515.186L467.16 515.186" stroke="#000000" stroke-width="0.398" fill="none" /><path id="788" transform="matrix(1 0 0 -1 0 841)" d="M128.315 501.438L128.315 514.987" stroke="#000000" stroke-width="0.398" fill="none" /><path id="815" transform="matrix(1 0 0 -1 0 841)" d="M289.696 501.438L289.696 514.987" stroke="#000000" stroke-width="0.398" fill="none" /><path id="822" transform="matrix(1 0 0 -1 0 841)" d="M466.961 501.438L466.961 514.987" stroke="#000000" stroke-width="0.398" fill="none" /><path id="823" transform="matrix(1 0 0 -1 0 841)" d="M128.116 501.238L467.16 501.238" stroke="#000000" stroke-width="0.398" fill="none" /></g></g></svg>