<svg xmlns="http://www.w3.org/2000/svg" xmlns:xlink="http://www.w3.org/1999/xlink" id="body_264" preserveAspectRatio="xMinYMin meet" viewBox="0 0 793 1121"><defs><clipPath id="1"><path id="" clip-rule="evenodd" transform="matrix(1 0 0 1 0 0)" d="M0 841L0 -0.8900146L0 -0.8900146L595.276 -0.8900146L595.276 -0.8900146L595.276 841L595.276 841L0 841z" /></clipPath></defs><g transform="matrix(1.333333 0 0 1.333333 0 0)"><g clip-path="url(#1)"><path id="35" transform="matrix(1 0 0 -1 0 841)" d="M85.039 766.564L510.236 766.564" stroke="#000000" stroke-width="0.498" fill="none" /><path id="36" transform="matrix(1 0 0 -1 0 841)" d="M85.039 756.651L373.655 756.651" stroke="#000000" stroke-width="0.398" fill="none" /><path id="37" transform="matrix(1 0 0 -1 0 841)" d="M85.239 742.903L85.239 756.452" stroke="#000000" stroke-width="0.398" fill="none" /><path id="42" transform="matrix(1 0 0 -1 0 841)" d="M145.472 742.903L145.472 756.452" stroke="#000000" stroke-width="0.398" fill="none" /><path id="48" transform="matrix(1 0 0 -1 0 841)" d="M187.182 742.903L187.182 756.452" stroke="#000000" stroke-width="0.398" fill="none" /><path id="55" transform="matrix(1 0 0 -1 0 841)" d="M262.263 742.903L262.263 756.452" stroke="#000000" stroke-width="0.398" fill="none" /><path id="64" transform="matrix(1 0 0 -1 0 841)" d="M320.99 742.903L320.99 756.452" stroke="#000000" stroke-width="0.398" fill="none" /><path id="72" transform="matrix(1 0 0 -1 0 841)" d="M373.456 742.903L373.456 756.452" stroke="#000000" stroke-width="0.398" fill="none" /><path id="73" transform="matrix(1 0 0 -1 0 841)" d="M85.039 742.703L373.655 742.703" stroke="#000000" stroke-width="0.398" fill="none" /><path id="74" transform="matrix(1 0 0 -1 0 841)" d="M85.239 728.955L85.239 742.504" stroke="#000000" stroke-width="0.398" fill="none" /><path id="78" transform="matrix(1 0 0 -1 0 841)" d="M145.472 728.955L145.472 742.504" stroke="#000000" stroke-width="0.398" fill="none" /><path id="82" transform="matrix(1 0 0 -1 0 841)" d="M187.182 728.955L187.182 742.504" stroke="#000000" stroke-width="0.398" fill="none" /><path id="84" transform="matrix(1 0 0 -1 0 841)" d="M262.263 728.955L262.263 742.504" stroke="#000000" stroke-width="0.398" fill="none" /><path id="85" transform="matrix(1 0 0 -1 0 841)" d="M320.99 728.955L320.99 742.504" stroke="#000000" stroke-width="0.398" fill="none" /><path id="86" transform="matrix(1 0 0 -1 0 841)" d="M373.456 728.955L373.456 742.504" stroke="#000000" stroke-width="0.398" fill="none" /><path id="87" transform="matrix(1 0 0 -1 0 841)" d="M85.039 728.756L373.655 728.756" stroke="#000000" stroke-width="0.398" fill="none" /><path id="88" transform="matrix(1 0 0 -1 0 841)" d="M85.239 715.007L85.239 728.556" stroke="#000000" stroke-width="0.398" fill="none" /><path id="92" transform="matrix(1 0 0 -1 0 841)" d="M145.472 715.007L145.472 728.556" stroke="#000000" stroke-width="0.398" fill="none" /><path id="96" transform="matrix(1 0 0 -1 0 841)" d="M187.182 715.007L187.182 728.556" stroke="#000000" stroke-width="0.398" fill="none" /><path id="99" transform="matrix(1 0 0 -1 0 841)" d="M262.263 715.007L262.263 728.556" stroke="#000000" stroke-width="0.398" fill="none" /><path id="105" transform="matrix(1 0 0 -1 0 841)" d="M320.99 715.007L320.99 728.556" stroke="#000000" stroke-width="0.398" fill="none" /><path id="110" transform="matrix(1 0 0 -1 0 841)" d="M373.456 715.007L373.456 728.556" stroke="#000000" stroke-width="0.398" fill="none" /><path id="111" transform="matrix(1 0 0 -1 0 841)" d="M85.039 714.808L373.655 714.808" stroke="#000000" stroke-width="0.398" fill="none" /><path id="112" transform="matrix(1 0 0 -1 0 841)" d="M85.239 701.06L85.239 714.609" stroke="#000000" stroke-width="0.398" fill="none" /><path id="120" transform="matrix(1 0 0 -1 0 841)" d="M145.472 701.06L145.472 714.609" stroke="#000000" stroke-width="0.398" fill="none" /><path id="124" transform="matrix(1 0 0 -1 0 841)" d="M187.182 701.06L187.182 714.609" stroke="#000000" stroke-width="0.398" fill="none" /><path id="128" transform="matrix(1 0 0 -1 0 841)" d="M262.263 701.06L262.263 714.609" stroke="#000000" stroke-width="0.398" fill="none" /><path id="133" transform="matrix(1 0 0 -1 0 841)" d="M320.99 701.06L320.99 714.609" stroke="#000000" stroke-width="0.398" fill="none" /><path id="139" transform="matrix(1 0 0 -1 0 841)" d="M373.456 701.06L373.456 714.609" stroke="#000000" stroke-width="0.398" fill="none" /><path id="140" transform="matrix(1 0 0 -1 0 841)" d="M85.039 700.86L373.655 700.86" stroke="#000000" stroke-width="0.398" fill="none" /><path id="141" transform="matrix(1 0 0 -1 0 841)" d="M85.239 687.112L85.239 700.661" stroke="#000000" stroke-width="0.398" fill="none" /><path id="150" transform="matrix(1 0 0 -1 0 841)" d="M145.472 687.112L145.472 700.661" stroke="#000000" stroke-width="0.398" fill="none" /><path id="154" transform="matrix(1 0 0 -1 0 841)" d="M187.182 687.112L187.182 700.661" stroke="#000000" stroke-width="0.398" fill="none" /><path id="160" transform="matrix(1 0 0 -1 0 841)" d="M262.263 687.112L262.263 700.661" stroke="#000000" stroke-width="0.398" fill="none" /><path id="165" transform="matrix(1 0 0 -1 0 841)" d="M320.99 687.112L320.99 700.661" stroke="#000000" stroke-width="0.398" fill="none" /><path id="170" transform="matrix(1 0 0 -1 0 841)" d="M373.456 687.112L373.456 700.661" stroke="#000000" stroke-width="0.398" fill="none" /><path id="171" transform="matrix(1 0 0 -1 0 841)" d="M85.039 686.913L373.655 686.913" stroke="#000000" stroke-width="0.398" fill="none" /><path id="172" transform="matrix(1 0 0 -1 0 841)" d="M85.239 673.164L85.239 686.713" stroke="#000000" stroke-width="0.398" fill="none" /><path id="180" transform="matrix(1 0 0 -1 0 841)" d="M145.472 673.164L145.472 686.713" stroke="#000000" stroke-width="0.398" fill="none" /><path id="184" transform="matrix(1 0 0 -1 0 841)" d="M187.182 673.164L187.182 686.713" stroke="#000000" stroke-width="0.398" fill="none" /><path id="194" transform="matrix(1 0 0 -1 0 841)" d="M262.263 673.164L262.263 686.713" stroke="#000000" stroke-width="0.398" fill="none" /><path id="196" transform="matrix(1 0 0 -1 0 841)" d="M320.99 673.164L320.99 686.713" stroke="#000000" stroke-width="0.398" fill="none" /><path id="201" transform="matrix(1 0 0 -1 0 841)" d="M373.456 673.164L373.456 686.713" stroke="#000000" stroke-width="0.398" fill="none" /><path id="202" transform="matrix(1 0 0 -1 0 841)" d="M85.039 672.965L373.655 672.965" stroke="#000000" stroke-width="0.398" fill="none" /><path id="203" transform="matrix(1 0 0 -1 0 841)" d="M85.239 659.217L85.239 672.766" stroke="#000000" stroke-width="0.398" fill="none" /><path id="211" transform="matrix(1 0 0 -1 0 841)" d="M145.472 659.217L145.472 672.766" stroke="#000000" stroke-width="0.398" fill="none" /><path id="215" transform="matrix(1 0 0 -1 0 841)" d="M187.182 659.217L187.182 672.766" stroke="#000000" stroke-width="0.398" fill="none" /><path id="229" transform="matrix(1 0 0 -1 0 841)" d="M262.263 659.217L262.263 672.766" stroke="#000000" stroke-width="0.398" fill="none" /><path id="231" transform="matrix(1 0 0 -1 0 841)" d="M320.99 659.217L320.99 672.766" stroke="#000000" stroke-width="0.398" fill="none" /><path id="236" transform="matrix(1 0 0 -1 0 841)" d="M373.456 659.217L373.456 672.766" stroke="#000000" stroke-width="0.398" fill="none" /><path id="237" transform="matrix(1 0 0 -1 0 841)" d="M85.039 659.017L373.655 659.017" stroke="#000000" stroke-width="0.398" fill="none" /><path id="238" transform="matrix(1 0 0 -1 0 841)" d="M85.239 645.269L85.239 658.818" stroke="#000000" stroke-width="0.398" fill="none" /><path id="244" transform="matrix(1 0 0 -1 0 841)" d="M145.472 645.269L145.472 658.818" stroke="#000000" stroke-width="0.398" fill="none" /><path id="249" transform="matrix(1 0 0 -1 0 841)" d="M187.182 645.269L187.182 658.818" stroke="#000000" stroke-width="0.398" fill="none" /><path id="253" transform="matrix(1 0 0 -1 0 841)" d="M262.263 645.269L262.263 658.818" stroke="#000000" stroke-width="0.398" fill="none" /><path id="255" transform="matrix(1 0 0 -1 0 841)" d="M320.99 645.269L320.99 658.818" stroke="#000000" stroke-width="0.398" fill="none" /><path id="260" transform="matrix(1 0 0 -1 0 841)" d="M373.456 645.269L373.456 658.818" stroke="#000000" stroke-width="0.398" fill="none" /><path id="261" transform="matrix(1 0 0 -1 0 841)" d="M85.039 645.07L373.655 645.07" stroke="#000000" stroke-width="0.398" fill="none" /><path id="262" transform="matrix(1 0 0 -1 0 841)" d="M85.239 631.321L85.239 644.87" stroke="#000000" stroke-width="0.398" fill="none" /><path id="272" transform="matrix(1 0 0 -1 0 841)" d="M145.472 631.321L145.472 644.87" stroke="#000000" stroke-width="0.398" fill="none" /><path id="277" transform="matrix(1 0 0 -1 0 841)" d="M187.182 631.321L187.182 644.87" stroke="#000000" stroke-width="0.398" fill="none" /><path id="282" transform="matrix(1 0 0 -1 0 841)" d="M262.263 631.321L262.263 644.87" stroke="#000000" stroke-width="0.398" fill="none" /><path id="284" transform="matrix(1 0 0 -1 0 841)" d="M320.99 631.321L320.99 644.87" stroke="#000000" stroke-width="0.398" fill="none" /><path id="290" transform="matrix(1 0 0 -1 0 841)" d="M373.456 631.321L373.456 644.87" stroke="#000000" stroke-width="0.398" fill="none" /><path id="291" transform="matrix(1 0 0 -1 0 841)" d="M85.039 631.122L373.655 631.122" stroke="#000000" stroke-width="0.398" fill="none" /><path id="292" transform="matrix(1 0 0 -1 0 841)" d="M85.239 617.374L85.239 630.923" stroke="#000000" stroke-width="0.398" fill="none" /><path id="303" transform="matrix(1 0 0 -1 0 841)" d="M145.472 617.374L145.472 630.923" stroke="#000000" stroke-width="0.398" fill="none" /><path id="308" transform="matrix(1 0 0 -1 0 841)" d="M187.182 617.374L187.182 630.923" stroke="#000000" stroke-width="0.398" fill="none" /><path id="314" transform="matrix(1 0 0 -1 0 841)" d="M262.263 617.374L262.263 630.923" stroke="#000000" stroke-width="0.398" fill="none" /><path id="316" transform="matrix(1 0 0 -1 0 841)" d="M320.99 617.374L320.99 630.923" stroke="#000000" stroke-width="0.398" fill="none" /><path id="322" transform="matrix(1 0 0 -1 0 841)" d="M373.456 617.374L373.456 630.923" stroke="#000000" stroke-width="0.398" fill="none" /><path id="323" transform="matrix(1 0 0 -1 0 841)" d="M85.039 617.174L373.655 617.174" stroke="#000000" stroke-width="0.398" fill="none" /><path id="324" transform="matrix(1 0 0 -1 0 841)" d="M85.239 603.426L85.239 616.975" stroke="#000000" stroke-width="0.398" fill="none" /><path id="334" transform="matrix(1 0 0 -1 0 841)" d="M145.472 603.426L145.472 616.975" stroke="#000000" stroke-width="0.398" fill="none" /><path id="339" transform="matrix(1 0 0 -1 0 841)" d="M187.182 603.426L187.182 616.975" stroke="#000000" stroke-width="0.398" fill="none" /><path id="348" transform="matrix(1 0 0 -1 0 841)" d="M262.263 603.426L262.263 616.975" stroke="#000000" stroke-width="0.398" fill="none" /><path id="350" transform="matrix(1 0 0 -1 0 841)" d="M320.99 603.426L320.99 616.975" stroke="#000000" stroke-width="0.398" fill="none" /><path id="356" transform="matrix(1 0 0 -1 0 841)" d="M373.456 603.426L373.456 616.975" stroke="#000000" stroke-width="0.398" fill="none" /><path id="357" transform="matrix(1 0 0 -1 0 841)" d="M85.039 603.227L373.655 603.227" stroke="#000000" stroke-width="0.398" fill="none" /><path id="358" transform="matrix(1 0 0 -1 0 841)" d="M85.239 589.478L85.239 603.027" stroke="#000000" stroke-width="0.398" fill="none" /><path id="368" transform="matrix(1 0 0 -1 0 841)" d="M145.472 589.478L145.472 603.027" stroke="#000000" stroke-width="0.398" fill="none" /><path id="373" transform="matrix(1 0 0 -1 0 841)" d="M187.182 589.478L187.182 603.027" stroke="#000000" stroke-width="0.398" fill="none" /><path id="385" transform="matrix(1 0 0 -1 0 841)" d="M262.263 589.478L262.263 603.027" stroke="#000000" stroke-width="0.398" fill="none" /><path id="387" transform="matrix(1 0 0 -1 0 841)" d="M320.99 589.478L320.99 603.027" stroke="#000000" stroke-width="0.398" fill="none" /><path id="392" transform="matrix(1 0 0 -1 0 841)" d="M373.456 589.478L373.456 603.027" stroke="#000000" stroke-width="0.398" fill="none" /><path id="393" transform="matrix(1 0 0 -1 0 841)" d="M85.039 589.279L373.655 589.279" stroke="#000000" stroke-width="0.398" fill="none" /></g></g></svg>