<svg xmlns="http://www.w3.org/2000/svg" xmlns:xlink="http://www.w3.org/1999/xlink" id="body_344" preserveAspectRatio="xMinYMin meet" viewBox="0 0 793 1121"><defs><clipPath id="1"><path id="" clip-rule="evenodd" transform="matrix(1 0 0 1 0 0)" d="M0 841L0 -0.8900146L0 -0.8900146L595.276 -0.8900146L595.276 -0.8900146L595.276 841L595.276 841L0 841z" /></clipPath></defs><g transform="matrix(1.333333 0 0 1.333333 0 0)"><g clip-path="url(#1)"><path id="22" transform="matrix(1 0 0 -1 0 841)" d="M85.039 766.564L510.236 766.564" stroke="#000000" stroke-width="0.498" fill="none" /><path id="50" transform="matrix(1 0 0 -1 0 841)" d="M225.482 744.742L343.136 744.742" stroke="#000000" stroke-width="0.436" fill="none" /><path id="83" transform="matrix(1 0 0 -1 0 841)" d="M358.852 744.742L427.183 744.742" stroke="#000000" stroke-width="0.436" fill="none" /><path id="110" transform="matrix(1 0 0 -1 0 841)" d="M441.702 755.58L509.316 755.58" stroke="#000000" stroke-width="0.398" fill="none" /><path id="111" transform="matrix(1 0 0 -1 0 841)" d="M441.902 736.099L441.902 755.58" stroke="#000000" stroke-width="0.398" fill="none" /><path id="112" transform="matrix(1 0 0 -1 0 841)" d="M509.117 736.099L509.117 755.58" stroke="#000000" stroke-width="0.398" fill="none" /><path id="113" transform="matrix(1 0 0 -1 0 841)" d="M441.702 736.099L509.316 736.099" stroke="#000000" stroke-width="0.398" fill="none" /><path id="240" transform="matrix(1 0 0 -1 0 841)" d="M225.482 662.968L343.136 662.968" stroke="#000000" stroke-width="0.436" fill="none" /><path id="273" transform="matrix(1 0 0 -1 0 841)" d="M358.852 662.968L427.554 662.968" stroke="#000000" stroke-width="0.436" fill="none" /><path id="299" transform="matrix(1 0 0 -1 0 841)" d="M442.074 673.806L504.233 673.806" stroke="#000000" stroke-width="0.398" fill="none" /><path id="300" transform="matrix(1 0 0 -1 0 841)" d="M442.273 654.325L442.273 673.806" stroke="#000000" stroke-width="0.398" fill="none" /><path id="301" transform="matrix(1 0 0 -1 0 841)" d="M504.033 654.325L504.033 673.806" stroke="#000000" stroke-width="0.398" fill="none" /><path id="302" transform="matrix(1 0 0 -1 0 841)" d="M442.074 654.325L504.233 654.325" stroke="#000000" stroke-width="0.398" fill="none" /><path id="438" transform="matrix(1 0 0 -1 0 841)" d="M212.697 581.194L281.576 581.194" stroke="#000000" stroke-width="0.436" fill="none" /><path id="459" transform="matrix(1 0 0 -1 0 841)" d="M139.543 547.013L181.957 547.013" stroke="#000000" stroke-width="0.436" fill="none" /><path id="476" transform="matrix(1 0 0 -1 0 841)" d="M192.833 547.013L258.213 547.013" stroke="#000000" stroke-width="0.436" fill="none" /><path id="483" transform="matrix(1 0 0 -1 0 841)" d="M269.089 547.013L313.336 547.013" stroke="#000000" stroke-width="0.436" fill="none" /><path id="491" transform="matrix(1 0 0 -1 0 841)" d="M138.347 532.913L314.531 532.913" stroke="#000000" stroke-width="0.436" fill="none" /><path id="515" transform="matrix(1 0 0 -1 0 841)" d="M329.052 541.496L398.849 541.496" stroke="#000000" stroke-width="0.398" fill="none" /><path id="516" transform="matrix(1 0 0 -1 0 841)" d="M329.251 524.271L329.251 541.496" stroke="#000000" stroke-width="0.398" fill="none" /><path id="517" transform="matrix(1 0 0 -1 0 841)" d="M398.649 524.271L398.649 541.496" stroke="#000000" stroke-width="0.398" fill="none" /><path id="518" transform="matrix(1 0 0 -1 0 841)" d="M329.052 524.271L398.849 524.271" stroke="#000000" stroke-width="0.398" fill="none" /><path id="803" transform="matrix(1 0 0 -1 0 841)" d="M207.842 357.003L310.244 357.003" stroke="#000000" stroke-width="0.436" fill="none" /><path id="857" transform="matrix(1 0 0 -1 0 841)" d="M254.074 321.724L335.084 321.724" stroke="#000000" stroke-width="0.436" fill="none" /><path id="910" transform="matrix(1 0 0 -1 0 841)" d="M287.779 285.802L354.381 285.802" stroke="#000000" stroke-width="0.436" fill="none" /><path id="919" transform="matrix(1 0 0 -1 0 841)" d="M364.649 285.802L410.653 285.802" stroke="#000000" stroke-width="0.436" fill="none" /><path id="935" transform="matrix(1 0 0 -1 0 841)" d="M437.285 285.802L453.648 285.802" stroke="#000000" stroke-width="0.436" fill="none" /><path id="948" transform="matrix(1 0 0 -1 0 841)" d="M467.56 293.774L510.236 293.774" stroke="#000000" stroke-width="0.398" fill="none" /><path id="949" transform="matrix(1 0 0 -1 0 841)" d="M467.759 279.718L467.759 293.774" stroke="#000000" stroke-width="0.398" fill="none" /><path id="950" transform="matrix(1 0 0 -1 0 841)" d="M510.037 279.718L510.037 293.774" stroke="#000000" stroke-width="0.398" fill="none" /><path id="951" transform="matrix(1 0 0 -1 0 841)" d="M467.56 279.718L510.236 279.718" stroke="#000000" stroke-width="0.398" fill="none" /><path id="1185" transform="matrix(1 0 0 -1 0 841)" d="M313.407 170.923L338.258 170.923" stroke="#000000" stroke-width="0.436" fill="none" /><path id="1206" transform="matrix(1 0 0 -1 0 841)" d="M392.452 170.923L406.95 170.923" stroke="#000000" stroke-width="0.436" fill="none" /><path id="1212" transform="matrix(1 0 0 -1 0 841)" d="M227.98 153.969L408.146 153.969" stroke="#000000" stroke-width="0.436" fill="none" /><path id="1235" transform="matrix(1 0 0 -1 0 841)" d="M422.666 164.267L488.13 164.267" stroke="#000000" stroke-width="0.398" fill="none" /><path id="1236" transform="matrix(1 0 0 -1 0 841)" d="M422.865 145.326L422.865 164.267" stroke="#000000" stroke-width="0.398" fill="none" /><path id="1237" transform="matrix(1 0 0 -1 0 841)" d="M487.931 145.326L487.931 164.267" stroke="#000000" stroke-width="0.398" fill="none" /><path id="1238" transform="matrix(1 0 0 -1 0 841)" d="M422.666 145.326L488.13 145.326" stroke="#000000" stroke-width="0.398" fill="none" /></g></g></svg>