<svg xmlns="http://www.w3.org/2000/svg" xmlns:xlink="http://www.w3.org/1999/xlink" id="body_348" preserveAspectRatio="xMinYMin meet" viewBox="0 0 793 1121"><defs><clipPath id="1"><path id="" clip-rule="evenodd" transform="matrix(1 0 0 1 0 0)" d="M0 841L0 -0.8900146L0 -0.8900146L595.276 -0.8900146L595.276 -0.8900146L595.276 841L595.276 841L0 841z" /></clipPath></defs><g transform="matrix(1.333333 0 0 1.333333 0 0)"><g clip-path="url(#1)"><path id="22" transform="matrix(1 0 0 -1 0 841)" d="M85.039 766.564L510.236 766.564" stroke="#000000" stroke-width="0.498" fill="none" /><path id="311" transform="matrix(1 0 0 -1 0 841)" d="M267.172 620.177L280.142 620.177" stroke="#000000" stroke-width="0.436" fill="none" /><path id="334" transform="matrix(1 0 0 -1 0 841)" d="M365.172 620.177L399.721 620.177" stroke="#000000" stroke-width="0.436" fill="none" /><path id="351" transform="matrix(1 0 0 -1 0 841)" d="M414.241 628.089L464.041 628.089" stroke="#000000" stroke-width="0.398" fill="none" /><path id="352" transform="matrix(1 0 0 -1 0 841)" d="M414.44 614.093L414.44 628.089" stroke="#000000" stroke-width="0.398" fill="none" /><path id="353" transform="matrix(1 0 0 -1 0 841)" d="M463.841 614.093L463.841 628.089" stroke="#000000" stroke-width="0.398" fill="none" /><path id="354" transform="matrix(1 0 0 -1 0 841)" d="M414.241 614.093L464.041 614.093" stroke="#000000" stroke-width="0.398" fill="none" /><path id="383" transform="matrix(1 0 0 -1 0 841)" d="M267.172 579.684L280.142 579.684" stroke="#000000" stroke-width="0.436" fill="none" /><path id="406" transform="matrix(1 0 0 -1 0 841)" d="M365.172 579.684L399.721 579.684" stroke="#000000" stroke-width="0.436" fill="none" /><path id="423" transform="matrix(1 0 0 -1 0 841)" d="M414.241 587.443L464.041 587.443" stroke="#000000" stroke-width="0.398" fill="none" /><path id="424" transform="matrix(1 0 0 -1 0 841)" d="M414.44 573.6L414.44 587.443" stroke="#000000" stroke-width="0.398" fill="none" /><path id="425" transform="matrix(1 0 0 -1 0 841)" d="M463.841 573.6L463.841 587.443" stroke="#000000" stroke-width="0.398" fill="none" /><path id="426" transform="matrix(1 0 0 -1 0 841)" d="M414.241 573.6L464.041 573.6" stroke="#000000" stroke-width="0.398" fill="none" /><path id="570" transform="matrix(1 0 0 -1 0 841)" d="M169.861 460.986L212.886 460.986" stroke="#000000" stroke-width="0.436" fill="none" /><path id="593" transform="matrix(1 0 0 -1 0 841)" d="M296.106 468.898L337.429 468.898" stroke="#000000" stroke-width="0.398" fill="none" /><path id="594" transform="matrix(1 0 0 -1 0 841)" d="M296.305 454.902L296.305 468.898" stroke="#000000" stroke-width="0.398" fill="none" /><path id="595" transform="matrix(1 0 0 -1 0 841)" d="M337.23 454.902L337.23 468.898" stroke="#000000" stroke-width="0.398" fill="none" /><path id="596" transform="matrix(1 0 0 -1 0 841)" d="M296.106 454.902L337.429 454.902" stroke="#000000" stroke-width="0.398" fill="none" /><path id="689" transform="matrix(1 0 0 -1 0 841)" d="M148.119 398.838L186.508 398.838" stroke="#000000" stroke-width="0.436" fill="none" /><path id="707" transform="matrix(1 0 0 -1 0 841)" d="M201.028 406.75L239.919 406.75" stroke="#000000" stroke-width="0.398" fill="none" /><path id="708" transform="matrix(1 0 0 -1 0 841)" d="M201.227 390.561L201.227 406.75" stroke="#000000" stroke-width="0.398" fill="none" /><path id="709" transform="matrix(1 0 0 -1 0 841)" d="M239.719 390.561L239.719 406.75" stroke="#000000" stroke-width="0.398" fill="none" /><path id="710" transform="matrix(1 0 0 -1 0 841)" d="M201.028 390.561L239.919 390.561" stroke="#000000" stroke-width="0.398" fill="none" /><path id="829" transform="matrix(1 0 0 -1 0 841)" d="M151.905 312.865L190.294 312.865" stroke="#000000" stroke-width="0.436" fill="none" /><path id="850" transform="matrix(1 0 0 -1 0 841)" d="M204.814 320.777L258.235 320.777" stroke="#000000" stroke-width="0.398" fill="none" /><path id="851" transform="matrix(1 0 0 -1 0 841)" d="M205.013 306.71L205.013 320.777" stroke="#000000" stroke-width="0.398" fill="none" /><path id="852" transform="matrix(1 0 0 -1 0 841)" d="M258.036 306.71L258.036 320.777" stroke="#000000" stroke-width="0.398" fill="none" /><path id="853" transform="matrix(1 0 0 -1 0 841)" d="M204.814 306.71L258.235 306.71" stroke="#000000" stroke-width="0.398" fill="none" /><path id="1024" transform="matrix(1 0 0 -1 0 841)" d="M283.701 211.828L295.0396 211.828" stroke="#000000" stroke-width="1.59404" fill="none" /><path id="1025" transform="matrix(1 0 0 -1 0 841)" d="M181.6524 166.473L227.0074 166.473" stroke="#000000" stroke-width="1.59404" fill="none" /><path id="1026" transform="matrix(1 0 0 -1 0 841)" d="M227.0074 166.473L283.701 211.828" stroke="#000000" stroke-width="1.59404" fill="none" /><path id="1027" transform="matrix(1 0 0 -1 0 841)" d="M295.0396 166.8715L295.0396 210.2954" stroke="#000000" stroke-width="0.3985" fill="none" /><path id="1028" transform="matrix(1 0 0 -1 0 841)" d="M297.4307 168.7445C 295.996 168.3659 295.3186 167.5222 295.0396 166.6723C 294.7607 167.5222 294.0832 168.3659 292.6486 168.7445" stroke="#000000" stroke-width="0.3985" stroke-linecap="round" fill="none" /><path id="1029" transform="matrix(1 0 0 -1 0 841)" d="M292.6486 208.4224C 294.0832 208.801 294.7607 209.6447 295.0396 210.4947C 295.3186 209.6447 295.996 208.801 297.4307 208.4224" stroke="#000000" stroke-width="0.3985" stroke-linecap="round" fill="none" /><g transform="matrix(0.027675 0 0 0.027675 202.913 661.2054)"><g transform="matrix(1 0 0 1 0 0)"><image x="0" y="0" xlink:href="img_491.png" width="512" height="512" /></g></g><g transform="matrix(0.027675 0 0 0.027675 287.952 615.8514)"><g transform="matrix(1 0 0 1 0 0)"><image x="0" y="0" xlink:href="img_491.png" width="512" height="512" /></g></g><path id="1035" transform="matrix(1 0 0 -1 0 841)" d="M238.346 166.473C 293.9055 226.0014 296.1737 226.0014 351.7332 166.473" stroke="#000000" stroke-width="0.3985" fill="none" /><path id="1239" transform="matrix(1 0 0 -1 0 841)" d="M261.963 91.996L300.352 91.996" stroke="#000000" stroke-width="0.436" fill="none" /></g></g></svg>