<svg xmlns="http://www.w3.org/2000/svg" xmlns:xlink="http://www.w3.org/1999/xlink" id="body_286" preserveAspectRatio="xMinYMin meet" viewBox="0 0 793 1121"><defs><clipPath id="1"><path id="" clip-rule="evenodd" transform="matrix(1 0 0 1 0 0)" d="M0 841L0 -0.8900146L0 -0.8900146L595.276 -0.8900146L595.276 -0.8900146L595.276 841L595.276 841L0 841z" /></clipPath></defs><g transform="matrix(1.333333 0 0 1.333333 0 0)"><g clip-path="url(#1)"><path id="23" transform="matrix(1 0 0 -1 0 841)" d="M85.039 766.564L510.236 766.564" stroke="#000000" stroke-width="0.498" fill="none" /><path id="242" transform="matrix(1 0 0 -1 0 841)" d="M134.354 673.763L249.738 673.763" stroke="#000000" stroke-width="0.436" fill="none" /><path id="301" transform="matrix(1 0 0 -1 0 841)" d="M316.056 673.763L431.44 673.763" stroke="#000000" stroke-width="0.436" fill="none" /><path id="381" transform="matrix(1 0 0 -1 0 841)" d="M265.834 637.465L381.218 637.465" stroke="#000000" stroke-width="0.436" fill="none" /><path id="450" transform="matrix(1 0 0 -1 0 841)" d="M392.094 637.465L500.671 637.465" stroke="#000000" stroke-width="0.436" fill="none" /><path id="514" transform="matrix(1 0 0 -1 0 841)" d="M95.94 617.133L415.747 617.133" stroke="#000000" stroke-width="0.398" fill="none" /><path id="515" transform="matrix(1 0 0 -1 0 841)" d="M96.139 600.944L96.139 617.133" stroke="#000000" stroke-width="0.398" fill="none" /><path id="516" transform="matrix(1 0 0 -1 0 841)" d="M415.548 600.944L415.548 617.133" stroke="#000000" stroke-width="0.398" fill="none" /><path id="517" transform="matrix(1 0 0 -1 0 841)" d="M95.94 600.944L415.747 600.944" stroke="#000000" stroke-width="0.398" fill="none" /></g></g></svg>