<svg xmlns="http://www.w3.org/2000/svg" xmlns:xlink="http://www.w3.org/1999/xlink" id="body_344" preserveAspectRatio="xMinYMin meet" viewBox="0 0 793 1121"><defs><clipPath id="1"><path id="" clip-rule="evenodd" transform="matrix(1 0 0 1 0 0)" d="M0 841L0 -0.8900146L0 -0.8900146L595.276 -0.8900146L595.276 -0.8900146L595.276 841L595.276 841L0 841z" /></clipPath></defs><g transform="matrix(1.333333 0 0 1.333333 0 0)"><g clip-path="url(#1)"><path id="34" transform="matrix(1 0 0 -1 0 841)" d="M85.039 766.564L510.236 766.564" stroke="#000000" stroke-width="0.498" fill="none" /><path id="72" transform="matrix(1 0 0 -1 0 841)" d="M207.863 744.011L371.81 744.011" stroke="#000000" stroke-width="0.436" fill="none" /><path id="115" transform="matrix(1 0 0 -1 0 841)" d="M258.764 709.403L298.102 709.403" stroke="#000000" stroke-width="0.436" fill="none" /><path id="122" transform="matrix(1 0 0 -1 0 841)" d="M308.978 709.403L375.58 709.403" stroke="#000000" stroke-width="0.436" fill="none" /><path id="144" transform="matrix(1 0 0 -1 0 841)" d="M170.163 695.385L430.552 695.385" stroke="#000000" stroke-width="0.436" fill="none" /><path id="490" transform="matrix(1 0 0 -1 0 841)" d="M140.8563 513.4825L220.2274 513.4825" stroke="#000000" stroke-width="0.3985" fill="none" /><path id="491" transform="matrix(1 0 0 -1 0 841)" d="M225.8967 507.8132L225.8967 448.6833" stroke="#000000" stroke-width="0.3985" fill="none" /><path id="492" transform="matrix(1 0 0 -1 0 841)" d="M228.2878 450.5562C 226.8531 450.1776 226.1757 449.334 225.8967 448.484C 225.6178 449.334 224.9403 450.1776 223.5057 450.5562" stroke="#000000" stroke-width="0.3985" stroke-linecap="round" fill="none" /><path id="493" transform="matrix(1 0 0 -1 0 841)" d="M140.8563 448.2847L344.5547 448.2847" stroke="#000000" stroke-width="0.3985" fill="none" /><path id="494" transform="matrix(1 0 0 -1 0 841)" d="M342.6817 450.6758C 343.0603 449.2411 343.904 448.5637 344.754 448.2847C 343.904 448.0058 343.0603 447.3283 342.6817 445.8937" stroke="#000000" stroke-width="0.3985" stroke-linecap="round" fill="none" /><path id="495" transform="matrix(1 0 0 -1 0 841)" d="M225.8967 507.8132L225.8842 508.1835L225.8842 508.1835L225.8478 508.5524L225.8478 508.5524L225.7873 508.9184L225.7873 508.9184L225.7034 509.2795L225.7034 509.2795L225.5957 509.6342L225.5957 509.6342L225.4651 509.9811L225.4651 509.9811L225.3124 510.3189L225.3124 510.3189L225.1376 510.6464L225.1376 510.6464L224.9417 510.9608L224.9417 510.9608L224.7258 511.2623L224.7258 511.2623L224.491 511.5491L224.491 511.5491L224.2375 511.8198L224.2375 511.8198L223.9672 512.0737L223.9672 512.0737L223.6804 512.309L223.6804 512.309L223.3794 512.5248L223.3794 512.5248L223.0645 512.7213L223.0645 512.7213L222.7375 512.896L222.7375 512.896L222.4001 513.0491L222.4001 513.0491L222.0532 513.1802L222.0532 513.1802L221.6985 513.2878L221.6985 513.2878L221.3373 513.3722L221.3373 513.3722L220.9714 513.4327L220.9714 513.4327L220.6025 513.4695L220.6025 513.4695L220.2318 513.4821" stroke="#000000" stroke-width="0.3985" fill="none" /><path id="653" transform="matrix(1 0 0 -1 0 841)" d="M153.882 323.641L206.581 323.641" stroke="#000000" stroke-width="0.436" fill="none" /><path id="673" transform="matrix(1 0 0 -1 0 841)" d="M221.101 331.552L327.247 331.552" stroke="#000000" stroke-width="0.398" fill="none" /><path id="674" transform="matrix(1 0 0 -1 0 841)" d="M221.3 315.364L221.3 331.553" stroke="#000000" stroke-width="0.398" fill="none" /><path id="675" transform="matrix(1 0 0 -1 0 841)" d="M327.048 315.364L327.048 331.553" stroke="#000000" stroke-width="0.398" fill="none" /><path id="676" transform="matrix(1 0 0 -1 0 841)" d="M221.101 315.364L327.247 315.364" stroke="#000000" stroke-width="0.398" fill="none" /><path id="1037" transform="matrix(1 0 0 -1 0 841)" d="M178.043 154.133L331.417 154.133" stroke="#000000" stroke-width="0.436" fill="none" /><path id="1068" transform="matrix(1 0 0 -1 0 841)" d="M347.132 154.133L441.651 154.133" stroke="#000000" stroke-width="0.436" fill="none" /><path id="1084" transform="matrix(1 0 0 -1 0 841)" d="M456.172 161.99L502.339 161.99" stroke="#000000" stroke-width="0.398" fill="none" /><path id="1085" transform="matrix(1 0 0 -1 0 841)" d="M456.371 145.856L456.371 161.99" stroke="#000000" stroke-width="0.398" fill="none" /><path id="1086" transform="matrix(1 0 0 -1 0 841)" d="M502.139 145.856L502.139 161.99" stroke="#000000" stroke-width="0.398" fill="none" /><path id="1087" transform="matrix(1 0 0 -1 0 841)" d="M456.172 145.856L502.339 145.856" stroke="#000000" stroke-width="0.398" fill="none" /></g></g></svg>