<svg xmlns="http://www.w3.org/2000/svg" xmlns:xlink="http://www.w3.org/1999/xlink" id="body_7" preserveAspectRatio="xMinYMin meet" viewBox="0 0 793 1121"><defs><clipPath id="1"><path id="" clip-rule="evenodd" transform="matrix(1 0 0 1 0 0)" d="M0 841L0 -0.8900146L0 -0.8900146L595.276 -0.8900146L595.276 -0.8900146L595.276 841L595.276 841L0 841z" /></clipPath></defs><g transform="matrix(1.333333 0 0 1.333333 0 0)"><g clip-path="url(#1)"><path id="419" transform="matrix(1 0 0 -1 0 841)" d="M85.039 633.62L115.07 633.62L115.07 653.462L85.039 653.462z" stroke="none" fill="#FDE0D1" fill-rule="nonzero" /><path id="422" transform="matrix(1 0 0 -1 0 841)" d="M119.055 633.62L510.236 633.62L510.236 653.462L119.055 653.462z" stroke="none" fill="#FAC2A3" fill-rule="nonzero" /><path id="1339" transform="matrix(1 0 0 -1 0 841)" d="M85.039 332.662L115.07 332.662L115.07 352.504L85.039 352.504z" stroke="none" fill="#FDE0D1" fill-rule="nonzero" /><path id="1341" transform="matrix(1 0 0 -1 0 841)" d="M119.055 332.662L510.236 332.662L510.236 352.504L119.055 352.504z" stroke="none" fill="#FAC2A3" fill-rule="nonzero" /></g></g></svg>