<svg xmlns="http://www.w3.org/2000/svg" xmlns:xlink="http://www.w3.org/1999/xlink" id="body_341" preserveAspectRatio="xMinYMin meet" viewBox="0 0 793 1121"><defs><clipPath id="1"><path id="" clip-rule="evenodd" transform="matrix(1 0 0 1 0 0)" d="M0 841L0 -0.8900146L0 -0.8900146L595.276 -0.8900146L595.276 -0.8900146L595.276 841L595.276 841L0 841z" /></clipPath></defs><g transform="matrix(1.333333 0 0 1.333333 0 0)"><g clip-path="url(#1)"><path id="34" transform="matrix(1 0 0 -1 0 841)" d="M85.039 766.564L510.236 766.564" stroke="#000000" stroke-width="0.498" fill="none" /><path id="52" transform="matrix(1 0 0 -1 0 841)" d="M138.286 726.013L172.766 726.013" stroke="#000000" stroke-width="0.436" fill="none" /><path id="62" transform="matrix(1 0 0 -1 0 841)" d="M188.482 726.013L221.807 726.013" stroke="#000000" stroke-width="0.436" fill="none" /><path id="73" transform="matrix(1 0 0 -1 0 841)" d="M236.327 734.462L273.941 734.462" stroke="#000000" stroke-width="0.398" fill="none" /><path id="74" transform="matrix(1 0 0 -1 0 841)" d="M236.526 719.912L236.526 734.462" stroke="#000000" stroke-width="0.398" fill="none" /><path id="75" transform="matrix(1 0 0 -1 0 841)" d="M273.742 719.912L273.742 734.462" stroke="#000000" stroke-width="0.398" fill="none" /><path id="76" transform="matrix(1 0 0 -1 0 841)" d="M236.327 719.912L273.941 719.912" stroke="#000000" stroke-width="0.398" fill="none" /><path id="133" transform="matrix(1 0 0 -1 0 841)" d="M290.874 672.314L329.099 672.314" stroke="#000000" stroke-width="0.398" fill="none" /><path id="134" transform="matrix(1 0 0 -1 0 841)" d="M291.073 657.71L291.073 672.314" stroke="#000000" stroke-width="0.398" fill="none" /><path id="135" transform="matrix(1 0 0 -1 0 841)" d="M328.899 657.71L328.899 672.314" stroke="#000000" stroke-width="0.398" fill="none" /><path id="136" transform="matrix(1 0 0 -1 0 841)" d="M290.874 657.71L329.099 657.71" stroke="#000000" stroke-width="0.398" fill="none" /><path id="238" transform="matrix(1 0 0 -1 0 841)" d="M112.312 591.984L178.422 591.984" stroke="#000000" stroke-width="0.398" fill="none" /><path id="239" transform="matrix(1 0 0 -1 0 841)" d="M112.511 574.759L112.511 591.9839" stroke="#000000" stroke-width="0.398" fill="none" /><path id="240" transform="matrix(1 0 0 -1 0 841)" d="M178.223 574.759L178.223 591.9839" stroke="#000000" stroke-width="0.398" fill="none" /><path id="241" transform="matrix(1 0 0 -1 0 841)" d="M112.312 574.759L178.422 574.759" stroke="#000000" stroke-width="0.398" fill="none" /><path id="418" transform="matrix(1 0 0 -1 0 841)" d="M172.33 488.897L220.199 488.897" stroke="#000000" stroke-width="0.436" fill="none" /><path id="430" transform="matrix(1 0 0 -1 0 841)" d="M231.12 488.897L275.957 488.897" stroke="#000000" stroke-width="0.436" fill="none" /><path id="449" transform="matrix(1 0 0 -1 0 841)" d="M290.545 496.869L353.446 496.869" stroke="#000000" stroke-width="0.398" fill="none" /><path id="450" transform="matrix(1 0 0 -1 0 841)" d="M290.745 482.813L290.745 496.869" stroke="#000000" stroke-width="0.398" fill="none" /><path id="451" transform="matrix(1 0 0 -1 0 841)" d="M353.247 482.813L353.247 496.869" stroke="#000000" stroke-width="0.398" fill="none" /><path id="452" transform="matrix(1 0 0 -1 0 841)" d="M290.545 482.813L353.446 482.813" stroke="#000000" stroke-width="0.398" fill="none" /><path id="606" transform="matrix(1 0 0 -1 0 841)" d="M122.137 379.948L325.76 379.948" stroke="#000000" stroke-width="0.436" fill="none" /><path id="625" transform="matrix(1 0 0 -1 0 841)" d="M213.089 366.252L258.612 366.252" stroke="#000000" stroke-width="0.436" fill="none" /><path id="657" transform="matrix(1 0 0 -1 0 841)" d="M336.636 379.948L402.027 379.948" stroke="#000000" stroke-width="0.436" fill="none" /><path id="674" transform="matrix(1 0 0 -1 0 841)" d="M441.953 379.948L499.336 379.948" stroke="#000000" stroke-width="0.436" fill="none" /><path id="689" transform="matrix(1 0 0 -1 0 841)" d="M123.213 346.951L153.006 346.951" stroke="#000000" stroke-width="0.398" fill="none" /><path id="690" transform="matrix(1 0 0 -1 0 841)" d="M123.412 332.955L123.412 346.951" stroke="#000000" stroke-width="0.398" fill="none" /><path id="691" transform="matrix(1 0 0 -1 0 841)" d="M152.806 332.955L152.806 346.951" stroke="#000000" stroke-width="0.398" fill="none" /><path id="692" transform="matrix(1 0 0 -1 0 841)" d="M123.213 332.955L153.006 332.955" stroke="#000000" stroke-width="0.398" fill="none" /><path id="987" transform="matrix(1 0 0 -1 0 841)" d="M290.233 212.178L315.073 212.178" stroke="#000000" stroke-width="0.436" fill="none" /><path id="997" transform="matrix(1 0 0 -1 0 841)" d="M329.593 219.937L350.298 219.937" stroke="#000000" stroke-width="0.398" fill="none" /><path id="998" transform="matrix(1 0 0 -1 0 841)" d="M329.792 206.094L329.792 219.937" stroke="#000000" stroke-width="0.398" fill="none" /><path id="999" transform="matrix(1 0 0 -1 0 841)" d="M350.099 206.094L350.099 219.937" stroke="#000000" stroke-width="0.398" fill="none" /><path id="1000" transform="matrix(1 0 0 -1 0 841)" d="M329.593 206.094L350.298 206.094" stroke="#000000" stroke-width="0.398" fill="none" /><path id="1235" transform="matrix(1 0 0 -1 0 841)" d="M478.705 116.157L498.09 116.157" stroke="#000000" stroke-width="0.436" fill="none" /><path id="1244" transform="matrix(1 0 0 -1 0 841)" d="M112.312 104.582L133.017 104.582" stroke="#000000" stroke-width="0.398" fill="none" /><path id="1245" transform="matrix(1 0 0 -1 0 841)" d="M112.511 90.908L112.511 104.582" stroke="#000000" stroke-width="0.398" fill="none" /><path id="1246" transform="matrix(1 0 0 -1 0 841)" d="M132.818 90.908L132.818 104.582" stroke="#000000" stroke-width="0.398" fill="none" /><path id="1247" transform="matrix(1 0 0 -1 0 841)" d="M112.312 90.908L133.017 90.908" stroke="#000000" stroke-width="0.398" fill="none" /></g></g></svg>