<svg xmlns="http://www.w3.org/2000/svg" xmlns:xlink="http://www.w3.org/1999/xlink" id="body_291" preserveAspectRatio="xMinYMin meet" viewBox="0 0 793 1121"><defs><clipPath id="1"><path id="" clip-rule="evenodd" transform="matrix(1 0 0 1 0 0)" d="M0 841L0 -0.8900146L0 -0.8900146L595.276 -0.8900146L595.276 -0.8900146L595.276 841L595.276 841L0 841z" /></clipPath></defs><g transform="matrix(1.333333 0 0 1.333333 0 0)"><g clip-path="url(#1)"><path id="23" transform="matrix(1 0 0 -1 0 841)" d="M85.039 766.564L510.236 766.564" stroke="#000000" stroke-width="0.498" fill="none" /><path id="24" transform="matrix(1 0 0 -1 0 841)" d="M85.039 547.545L85.039 752.6009C 85.039 754.9492 86.94264 756.8529 89.29099 756.8529L89.29099 756.8529L505.9893 756.8529C 508.3377 756.8529 510.2413 754.9492 510.2413 752.6009L510.2413 752.6009L510.2413 547.545C 510.2413 545.1967 508.3377 543.293 505.9893 543.293L505.9893 543.293L89.29099 543.293C 86.94264 543.293 85.039 545.1967 85.039 547.545z" stroke="none" fill="#BFBFFF" fill-rule="nonzero" /><path id="25" transform="matrix(1 0 0 -1 0 841)" d="M86.45631 547.545L86.45631 740.8436L86.45631 740.8436L508.824 740.8436L508.824 740.8436L508.824 547.545C 508.824 545.9794 507.5549 544.7103 505.9893 544.7103L505.9893 544.7103L89.29099 544.7103C 87.72543 544.7103 86.45631 545.9794 86.45631 547.545z" stroke="none" fill="#E6E6FF" fill-rule="nonzero" /><path id="886" transform="matrix(1 0 0 -1 0 841)" d="M180.283 334.163L208.581 334.163" stroke="#000000" stroke-width="0.436" fill="none" /><path id="920" transform="matrix(1 0 0 -1 0 841)" d="M322.143 346.021L432.443 346.021" stroke="#000000" stroke-width="0.436" fill="none" /><path id="926" transform="matrix(1 0 0 -1 0 841)" d="M224.296 334.163L484.122 334.163" stroke="#000000" stroke-width="0.436" fill="none" /><g transform="matrix(0.375 0 0 0.375 112.312 567.027)"><g transform="matrix(1 0 0 1 0 0)"><image x="0" y="0" xlink:href="img_426.png" width="474" height="243" /></g></g><g transform="matrix(0.4875 0 0 0.4875 112.312 692.472)"><g transform="matrix(1 0 0 1 0 0)"><image x="0" y="0" xlink:href="img_427.png" width="364" height="100" /></g></g></g></g></svg>