<svg xmlns="http://www.w3.org/2000/svg" xmlns:xlink="http://www.w3.org/1999/xlink" id="body_362" preserveAspectRatio="xMinYMin meet" viewBox="0 0 793 1121"><defs><clipPath id="1"><path id="" clip-rule="evenodd" transform="matrix(1 0 0 1 0 0)" d="M0 841L0 -0.8900146L0 -0.8900146L595.276 -0.8900146L595.276 -0.8900146L595.276 841L595.276 841L0 841z" /></clipPath><clipPath id="2"><path id="" clip-rule="evenodd" transform="matrix(1 0 0 1 0 0)" d="M-0.139 805.413L595.4166 805.413L595.4166 805.413L595.4166 34.69409L595.4166 34.69409L-0.139 34.69409z" /></clipPath><clipPath id="3"><path id="" clip-rule="evenodd" transform="matrix(1 0 0 1 0 0)" d="M122.4754 567.4243L328.3507 567.4243L328.3507 567.4243L328.3507 553.9951L328.3507 553.9951L122.4754 553.9951z" /></clipPath><clipPath id="4"><path id="" clip-rule="evenodd" transform="matrix(1 0 0 1 0 0)" d="M122.4754 567.4243L328.3507 567.4243L328.3507 567.4243L328.3507 553.9951L328.3507 553.9951L122.4754 553.9951z" /></clipPath><clipPath id="5"><path id="" clip-rule="evenodd" transform="matrix(1 0 0 1 0 0)" d="M328.3507 567.4243L345.8671 567.4243L345.8671 567.4243L345.8671 553.9951L345.8671 553.9951L328.3507 553.9951z" /></clipPath><clipPath id="6"><path id="" clip-rule="evenodd" transform="matrix(1 0 0 1 0 0)" d="M328.3507 567.4243L345.8671 567.4243L345.8671 567.4243L345.8671 553.9951L345.8671 553.9951L328.3507 553.9951z" /></clipPath><clipPath id="7"><path id="" clip-rule="evenodd" transform="matrix(1 0 0 1 0 0)" d="M345.8671 567.4243L472.8022 567.4243L472.8022 567.4243L472.8022 553.9951L472.8022 553.9951L345.8671 553.9951z" /></clipPath><clipPath id="8"><path id="" clip-rule="evenodd" transform="matrix(1 0 0 1 0 0)" d="M345.8671 567.4243L472.8022 567.4243L472.8022 567.4243L472.8022 553.9951L472.8022 553.9951L345.8671 553.9951z" /></clipPath><clipPath id="9"><path id="" clip-rule="evenodd" transform="matrix(1 0 0 1 0 0)" d="M122.4754 580.8535L328.3507 580.8535L328.3507 580.8535L328.3507 567.4243L328.3507 567.4243L122.4754 567.4243z" /></clipPath><clipPath id="10"><path id="" clip-rule="evenodd" transform="matrix(1 0 0 1 0 0)" d="M122.4754 580.8535L328.3507 580.8535L328.3507 580.8535L328.3507 567.4243L328.3507 567.4243L122.4754 567.4243z" /></clipPath><clipPath id="11"><path id="" clip-rule="evenodd" transform="matrix(1 0 0 1 0 0)" d="M122.4754 580.8535L328.3507 580.8535L328.3507 580.8535L328.3507 567.4243L328.3507 567.4243L122.4754 567.4243z" /></clipPath><clipPath id="12"><path id="" clip-rule="evenodd" transform="matrix(1 0 0 1 0 0)" d="M122.4754 580.8535L328.3507 580.8535L328.3507 580.8535L328.3507 567.4243L328.3507 567.4243L122.4754 567.4243z" /></clipPath><clipPath id="13"><path id="" clip-rule="evenodd" transform="matrix(1 0 0 1 0 0)" d="M122.4754 580.8535L328.3507 580.8535L328.3507 580.8535L328.3507 567.4243L328.3507 567.4243L122.4754 567.4243z" /></clipPath><clipPath id="14"><path id="" clip-rule="evenodd" transform="matrix(1 0 0 1 0 0)" d="M122.4754 580.8535L328.3507 580.8535L328.3507 580.8535L328.3507 567.4243L328.3507 567.4243L122.4754 567.4243z" /></clipPath><clipPath id="15"><path id="" clip-rule="evenodd" transform="matrix(1 0 0 1 0 0)" d="M122.4754 580.8535L328.3507 580.8535L328.3507 580.8535L328.3507 567.4243L328.3507 567.4243L122.4754 567.4243z" /></clipPath><clipPath id="16"><path id="" clip-rule="evenodd" transform="matrix(1 0 0 1 0 0)" d="M122.4754 580.8535L328.3507 580.8535L328.3507 580.8535L328.3507 567.4243L328.3507 567.4243L122.4754 567.4243z" /></clipPath><clipPath id="17"><path id="" clip-rule="evenodd" transform="matrix(1 0 0 1 0 0)" d="M328.3507 580.8535L345.8671 580.8535L345.8671 580.8535L345.8671 567.4243L345.8671 567.4243L328.3507 567.4243z" /></clipPath><clipPath id="18"><path id="" clip-rule="evenodd" transform="matrix(1 0 0 1 0 0)" d="M328.3507 580.8535L345.8671 580.8535L345.8671 580.8535L345.8671 567.4243L345.8671 567.4243L328.3507 567.4243z" /></clipPath><clipPath id="19"><path id="" clip-rule="evenodd" transform="matrix(1 0 0 1 0 0)" d="M345.8671 580.8535L472.8022 580.8535L472.8022 580.8535L472.8022 567.4243L472.8022 567.4243L345.8671 567.4243z" /></clipPath><clipPath id="20"><path id="" clip-rule="evenodd" transform="matrix(1 0 0 1 0 0)" d="M345.8671 580.8535L472.8022 580.8535L472.8022 580.8535L472.8022 567.4243L472.8022 567.4243L345.8671 567.4243z" /></clipPath><clipPath id="21"><path id="" clip-rule="evenodd" transform="matrix(1 0 0 1 0 0)" d="M122.4754 594.2827L328.3507 594.2827L328.3507 594.2827L328.3507 580.8535L328.3507 580.8535L122.4754 580.8535z" /></clipPath><clipPath id="22"><path id="" clip-rule="evenodd" transform="matrix(1 0 0 1 0 0)" d="M122.4754 594.2827L328.3507 594.2827L328.3507 594.2827L328.3507 580.8535L328.3507 580.8535L122.4754 580.8535z" /></clipPath><clipPath id="23"><path id="" clip-rule="evenodd" transform="matrix(1 0 0 1 0 0)" d="M122.4754 594.2827L328.3507 594.2827L328.3507 594.2827L328.3507 580.8535L328.3507 580.8535L122.4754 580.8535z" /></clipPath><clipPath id="24"><path id="" clip-rule="evenodd" transform="matrix(1 0 0 1 0 0)" d="M122.4754 594.2827L328.3507 594.2827L328.3507 594.2827L328.3507 580.8535L328.3507 580.8535L122.4754 580.8535z" /></clipPath><clipPath id="25"><path id="" clip-rule="evenodd" transform="matrix(1 0 0 1 0 0)" d="M328.3507 594.2827L345.8671 594.2827L345.8671 594.2827L345.8671 580.8535L345.8671 580.8535L328.3507 580.8535z" /></clipPath><clipPath id="26"><path id="" clip-rule="evenodd" transform="matrix(1 0 0 1 0 0)" d="M328.3507 594.2827L345.8671 594.2827L345.8671 594.2827L345.8671 580.8535L345.8671 580.8535L328.3507 580.8535z" /></clipPath><clipPath id="27"><path id="" clip-rule="evenodd" transform="matrix(1 0 0 1 0 0)" d="M345.8671 594.2827L472.8022 594.2827L472.8022 594.2827L472.8022 580.8535L472.8022 580.8535L345.8671 580.8535z" /></clipPath><clipPath id="28"><path id="" clip-rule="evenodd" transform="matrix(1 0 0 1 0 0)" d="M345.8671 594.2827L472.8022 594.2827L472.8022 594.2827L472.8022 580.8535L472.8022 580.8535L345.8671 580.8535z" /></clipPath><clipPath id="29"><path id="" clip-rule="evenodd" transform="matrix(1 0 0 1 0 0)" d="M122.4754 607.7119L328.3507 607.7119L328.3507 607.7119L328.3507 594.2827L328.3507 594.2827L122.4754 594.2827z" /></clipPath><clipPath id="30"><path id="" clip-rule="evenodd" transform="matrix(1 0 0 1 0 0)" d="M122.4754 607.7119L328.3507 607.7119L328.3507 607.7119L328.3507 594.2827L328.3507 594.2827L122.4754 594.2827z" /></clipPath><clipPath id="31"><path id="" clip-rule="evenodd" transform="matrix(1 0 0 1 0 0)" d="M122.4754 607.7119L328.3507 607.7119L328.3507 607.7119L328.3507 594.2827L328.3507 594.2827L122.4754 594.2827z" /></clipPath><clipPath id="32"><path id="" clip-rule="evenodd" transform="matrix(1 0 0 1 0 0)" d="M122.4754 607.7119L328.3507 607.7119L328.3507 607.7119L328.3507 594.2827L328.3507 594.2827L122.4754 594.2827z" /></clipPath><clipPath id="33"><path id="" clip-rule="evenodd" transform="matrix(1 0 0 1 0 0)" d="M122.4754 607.7119L328.3507 607.7119L328.3507 607.7119L328.3507 594.2827L328.3507 594.2827L122.4754 594.2827z" /></clipPath><clipPath id="34"><path id="" clip-rule="evenodd" transform="matrix(1 0 0 1 0 0)" d="M122.4754 607.7119L328.3507 607.7119L328.3507 607.7119L328.3507 594.2827L328.3507 594.2827L122.4754 594.2827z" /></clipPath><clipPath id="35"><path id="" clip-rule="evenodd" transform="matrix(1 0 0 1 0 0)" d="M122.4754 607.7119L328.3507 607.7119L328.3507 607.7119L328.3507 594.2827L328.3507 594.2827L122.4754 594.2827z" /></clipPath><clipPath id="36"><path id="" clip-rule="evenodd" transform="matrix(1 0 0 1 0 0)" d="M122.4754 607.7119L328.3507 607.7119L328.3507 607.7119L328.3507 594.2827L328.3507 594.2827L122.4754 594.2827z" /></clipPath><clipPath id="37"><path id="" clip-rule="evenodd" transform="matrix(1 0 0 1 0 0)" d="M122.4754 607.7119L328.3507 607.7119L328.3507 607.7119L328.3507 594.2827L328.3507 594.2827L122.4754 594.2827z" /></clipPath><clipPath id="38"><path id="" clip-rule="evenodd" transform="matrix(1 0 0 1 0 0)" d="M122.4754 607.7119L328.3507 607.7119L328.3507 607.7119L328.3507 594.2827L328.3507 594.2827L122.4754 594.2827z" /></clipPath><clipPath id="39"><path id="" clip-rule="evenodd" transform="matrix(1 0 0 1 0 0)" d="M328.3507 607.7119L345.8671 607.7119L345.8671 607.7119L345.8671 594.2827L345.8671 594.2827L328.3507 594.2827z" /></clipPath><clipPath id="40"><path id="" clip-rule="evenodd" transform="matrix(1 0 0 1 0 0)" d="M328.3507 607.7119L345.8671 607.7119L345.8671 607.7119L345.8671 594.2827L345.8671 594.2827L328.3507 594.2827z" /></clipPath><clipPath id="41"><path id="" clip-rule="evenodd" transform="matrix(1 0 0 1 0 0)" d="M345.8671 607.7119L472.8022 607.7119L472.8022 607.7119L472.8022 594.2827L472.8022 594.2827L345.8671 594.2827z" /></clipPath><clipPath id="42"><path id="" clip-rule="evenodd" transform="matrix(1 0 0 1 0 0)" d="M345.8671 607.7119L472.8022 607.7119L472.8022 607.7119L472.8022 594.2827L472.8022 594.2827L345.8671 594.2827z" /></clipPath><clipPath id="43"><path id="" clip-rule="evenodd" transform="matrix(1 0 0 1 0 0)" d="M345.8671 607.7119L472.8022 607.7119L472.8022 607.7119L472.8022 594.2827L472.8022 594.2827L345.8671 594.2827z" /></clipPath><clipPath id="44"><path id="" clip-rule="evenodd" transform="matrix(1 0 0 1 0 0)" d="M345.8671 607.7119L472.8022 607.7119L472.8022 607.7119L472.8022 594.2827L472.8022 594.2827L345.8671 594.2827z" /></clipPath><clipPath id="45"><path id="" clip-rule="evenodd" transform="matrix(1 0 0 1 0 0)" d="M345.8671 607.7119L472.8022 607.7119L472.8022 607.7119L472.8022 594.2827L472.8022 594.2827L345.8671 594.2827z" /></clipPath><clipPath id="46"><path id="" clip-rule="evenodd" transform="matrix(1 0 0 1 0 0)" d="M345.8671 607.7119L472.8022 607.7119L472.8022 607.7119L472.8022 594.2827L472.8022 594.2827L345.8671 594.2827z" /></clipPath><clipPath id="47"><path id="" clip-rule="evenodd" transform="matrix(1 0 0 1 0 0)" d="M345.8671 622.5424L472.8022 622.5424L472.8022 622.5424L472.8022 609.1132L472.8022 609.1132L345.8671 609.1132z" /></clipPath><clipPath id="48"><path id="" clip-rule="evenodd" transform="matrix(1 0 0 1 0 0)" d="M345.8671 622.5424L472.8022 622.5424L472.8022 622.5424L472.8022 609.1132L472.8022 609.1132L345.8671 609.1132z" /></clipPath><clipPath id="49"><path id="" clip-rule="evenodd" transform="matrix(1 0 0 1 0 0)" d="M345.8671 622.5424L472.8022 622.5424L472.8022 622.5424L472.8022 609.1132L472.8022 609.1132L345.8671 609.1132z" /></clipPath><clipPath id="50"><path id="" clip-rule="evenodd" transform="matrix(1 0 0 1 0 0)" d="M345.8671 622.5424L472.8022 622.5424L472.8022 622.5424L472.8022 609.1132L472.8022 609.1132L345.8671 609.1132z" /></clipPath><clipPath id="51"><path id="" clip-rule="evenodd" transform="matrix(1 0 0 1 0 0)" d="M345.8671 622.5424L472.8022 622.5424L472.8022 622.5424L472.8022 609.1132L472.8022 609.1132L345.8671 609.1132z" /></clipPath><clipPath id="52"><path id="" clip-rule="evenodd" transform="matrix(1 0 0 1 0 0)" d="M345.8671 622.5424L472.8022 622.5424L472.8022 622.5424L472.8022 609.1132L472.8022 609.1132L345.8671 609.1132z" /></clipPath><clipPath id="53"><path id="" clip-rule="evenodd" transform="matrix(1 0 0 1 0 0)" d="M345.8671 622.5424L472.8022 622.5424L472.8022 622.5424L472.8022 609.1132L472.8022 609.1132L345.8671 609.1132z" /></clipPath></defs><g transform="matrix(1.333333 0 0 1.333333 0 0)"><g clip-path="url(#1)"><g><g clip-path="url(#2)"><g clip-path="url(#3)"><g clip-path="url(#4)"></g></g><g clip-path="url(#5)"><g clip-path="url(#6)"></g></g><g clip-path="url(#7)"><g clip-path="url(#8)"></g></g><g clip-path="url(#9)"><g clip-path="url(#10)"></g></g><g clip-path="url(#11)"><g clip-path="url(#12)"></g></g><g clip-path="url(#13)"><g clip-path="url(#14)"></g></g><g clip-path="url(#15)"><g clip-path="url(#16)"></g></g><g clip-path="url(#17)"><g clip-path="url(#18)"></g></g><g clip-path="url(#19)"><g clip-path="url(#20)"></g></g><g clip-path="url(#21)"><g clip-path="url(#22)"></g></g><g clip-path="url(#23)"><g clip-path="url(#24)"></g></g><g clip-path="url(#25)"><g clip-path="url(#26)"></g></g><g clip-path="url(#27)"><g clip-path="url(#28)"></g></g><g clip-path="url(#29)"><g clip-path="url(#30)"></g></g><g clip-path="url(#31)"><g clip-path="url(#32)"></g></g><g clip-path="url(#33)"><g clip-path="url(#34)"></g></g><g clip-path="url(#35)"><g clip-path="url(#36)"></g></g><g clip-path="url(#37)"><g clip-path="url(#38)"></g></g><g clip-path="url(#39)"><g clip-path="url(#40)"></g></g><g clip-path="url(#41)"><g clip-path="url(#42)"></g></g><g clip-path="url(#43)"><g clip-path="url(#44)"></g></g><g clip-path="url(#45)"><g clip-path="url(#46)"></g></g><g clip-path="url(#47)"><g clip-path="url(#48)"></g></g><g clip-path="url(#49)"><g clip-path="url(#50)"></g></g><g clip-path="url(#51)"><g clip-path="url(#52)"></g></g><g clip-path="url(#53)"></g><path id="1572" transform="matrix(1 0 0 -1 0 841)" d="M122.4754 231.8868L328.3507 231.8868L328.3507 231.8868L328.3507 233.2881L328.3507 233.2881L122.4754 233.2881z" stroke="none" fill="#000000" fill-rule="evenodd" /><path id="1573" transform="matrix(1 0 0 -1 0 841)" d="M328.3507 231.8868L329.752 231.8868L329.752 231.8868L329.752 233.2881L329.752 233.2881L328.3507 233.2881z" stroke="none" fill="#000000" fill-rule="evenodd" /><path id="1574" transform="matrix(1 0 0 -1 0 841)" d="M329.752 231.8868L345.8671 231.8868L345.8671 231.8868L345.8671 233.2881L345.8671 233.2881L329.752 233.2881z" stroke="none" fill="#000000" fill-rule="evenodd" /><path id="1575" transform="matrix(1 0 0 -1 0 841)" d="M345.8671 231.8868L347.2684 231.8868L347.2684 231.8868L347.2684 233.2881L347.2684 233.2881L345.8671 233.2881z" stroke="none" fill="#000000" fill-rule="evenodd" /><path id="1576" transform="matrix(1 0 0 -1 0 841)" d="M347.2684 231.8868L472.8022 231.8868L472.8022 231.8868L472.8022 233.2881L472.8022 233.2881L347.2684 233.2881z" stroke="none" fill="#000000" fill-rule="evenodd" /></g></g></g></g></svg>