<svg xmlns="http://www.w3.org/2000/svg" xmlns:xlink="http://www.w3.org/1999/xlink" id="body_41" preserveAspectRatio="xMinYMin meet" viewBox="0 0 793 1121"><defs><clipPath id="1"><path id="" clip-rule="evenodd" transform="matrix(1 0 0 1 0 0)" d="M0 841L0 -0.8900146L0 -0.8900146L595.276 -0.8900146L595.276 -0.8900146L595.276 841L595.276 841L0 841z" /></clipPath></defs><g transform="matrix(1.333333 0 0 1.333333 0 0)"><g clip-path="url(#1)"><path id="37" transform="matrix(1 0 0 -1 0 841)" d="M85.039 766.564L510.236 766.564" stroke="#000000" stroke-width="0.498" fill="none" /><path id="84" transform="matrix(1 0 0 -1 0 841)" d="M112.063 725.519L141.863 725.519" stroke="#000000" stroke-width="0.491" fill="none" /><path id="91" transform="matrix(1 0 0 -1 0 841)" d="M142.207 725.519L145.656 725.519" stroke="#000000" stroke-width="0.491" fill="none" /><path id="92" transform="matrix(1 0 0 -1 0 841)" d="M145.407 725.519L174.868 725.519" stroke="#000000" stroke-width="0.491" fill="none" /><path id="284" transform="matrix(1 0 0 -1 0 841)" d="M112.063 674.709L138.012 674.709" stroke="#000000" stroke-width="0.491" fill="none" /><path id="493" transform="matrix(1 0 0 -1 0 841)" d="M112.063 623.9L145.888 623.9" stroke="#000000" stroke-width="0.491" fill="none" /><path id="500" transform="matrix(1 0 0 -1 0 841)" d="M146.306 623.9L149.363 623.9" stroke="#000000" stroke-width="0.491" fill="none" /><path id="501" transform="matrix(1 0 0 -1 0 841)" d="M149.114 623.9L166.575 623.9" stroke="#000000" stroke-width="0.491" fill="none" /><path id="605" transform="matrix(1 0 0 -1 0 841)" d="M112.063 590.027L128.925 590.027" stroke="#000000" stroke-width="0.491" fill="none" /><path id="609" transform="matrix(1 0 0 -1 0 841)" d="M128.754 590.027L132.285 590.027" stroke="#000000" stroke-width="0.491" fill="none" /><path id="611" transform="matrix(1 0 0 -1 0 841)" d="M131.847 590.027L149.309 590.027" stroke="#000000" stroke-width="0.491" fill="none" /><path id="616" transform="matrix(1 0 0 -1 0 841)" d="M149.399 590.027L152.49 590.027" stroke="#000000" stroke-width="0.491" fill="none" /><path id="617" transform="matrix(1 0 0 -1 0 841)" d="M152.24 590.027L169.701 590.027" stroke="#000000" stroke-width="0.491" fill="none" /><g transform="matrix(0.45 0 0 0.45 201.787 345.287)"><g transform="matrix(1 0 0 1 0 0)"><image x="0" y="0" xlink:href="img_53.png" width="426" height="523" /></g></g></g></g></svg>