<svg xmlns="http://www.w3.org/2000/svg" xmlns:xlink="http://www.w3.org/1999/xlink" id="body_100" preserveAspectRatio="xMinYMin meet" viewBox="0 0 793 1121"><defs><clipPath id="1"><path id="" clip-rule="evenodd" transform="matrix(1 0 0 1 0 0)" d="M0 841L0 -0.8900146L0 -0.8900146L595.276 -0.8900146L595.276 -0.8900146L595.276 841L595.276 841L0 841z" /></clipPath></defs><g transform="matrix(1.333333 0 0 1.333333 0 0)"><g clip-path="url(#1)"><path id="44" transform="matrix(1 0 0 -1 0 841)" d="M85.039 766.564L510.236 766.564" stroke="#000000" stroke-width="0.498" fill="none" /><path id="45" transform="matrix(1 0 0 -1 0 841)" d="M85.039 666.009L85.039 756.8519L85.039 756.8519L510.2413 756.8519L510.2413 756.8519L510.2413 666.009C 510.2413 663.6606 508.3377 661.757 505.9893 661.757L505.9893 661.757L89.29099 661.757C 86.94264 661.757 85.039 663.6606 85.039 666.009z" stroke="none" fill="#BFBFFF" fill-rule="nonzero" /><path id="46" transform="matrix(1 0 0 -1 0 841)" d="M86.45631 666.009L86.45631 756.8519L86.45631 756.8519L508.824 756.8519L508.824 756.8519L508.824 666.009C 508.824 664.4434 507.5549 663.1743 505.9893 663.1743L505.9893 663.1743L89.29099 663.1743C 87.72543 663.1743 86.45631 664.4434 86.45631 666.009z" stroke="none" fill="#E6E6FF" fill-rule="nonzero" /></g></g></svg>