<svg xmlns="http://www.w3.org/2000/svg" xmlns:xlink="http://www.w3.org/1999/xlink" id="body_333" preserveAspectRatio="xMinYMin meet" viewBox="0 0 793 1121"><defs><clipPath id="1"><path id="" clip-rule="evenodd" transform="matrix(1 0 0 1 0 0)" d="M0 841L0 -0.8900146L0 -0.8900146L595.276 -0.8900146L595.276 -0.8900146L595.276 841L595.276 841L0 841z" /></clipPath></defs><g transform="matrix(1.333333 0 0 1.333333 0 0)"><g clip-path="url(#1)"><path id="22" transform="matrix(1 0 0 -1 0 841)" d="M85.039 766.564L510.236 766.564" stroke="#000000" stroke-width="0.498" fill="none" /><path id="148" transform="matrix(1 0 0 -1 0 841)" d="M188.511 686.471L195.384 686.471" stroke="#000000" stroke-width="0.436" fill="none" /><path id="191" transform="matrix(1 0 0 -1 0 841)" d="M402.604 696.769L445.443 696.769" stroke="#000000" stroke-width="0.398" fill="none" /><path id="192" transform="matrix(1 0 0 -1 0 841)" d="M402.803 678.276L402.803 696.769" stroke="#000000" stroke-width="0.398" fill="none" /><path id="193" transform="matrix(1 0 0 -1 0 841)" d="M445.244 678.276L445.244 696.769" stroke="#000000" stroke-width="0.398" fill="none" /><path id="194" transform="matrix(1 0 0 -1 0 841)" d="M402.604 678.276L445.443 678.276" stroke="#000000" stroke-width="0.398" fill="none" /><path id="275" transform="matrix(1 0 0 -1 0 841)" d="M176.053 629.992L182.926 629.992" stroke="#000000" stroke-width="0.436" fill="none" /><path id="307" transform="matrix(1 0 0 -1 0 841)" d="M338.197 640.29L386.491 640.29" stroke="#000000" stroke-width="0.398" fill="none" /><path id="308" transform="matrix(1 0 0 -1 0 841)" d="M338.396 621.797L338.396 640.29" stroke="#000000" stroke-width="0.398" fill="none" /><path id="309" transform="matrix(1 0 0 -1 0 841)" d="M386.291 621.797L386.291 640.29" stroke="#000000" stroke-width="0.398" fill="none" /><path id="310" transform="matrix(1 0 0 -1 0 841)" d="M338.197 621.797L386.491 621.797" stroke="#000000" stroke-width="0.398" fill="none" /><path id="389" transform="matrix(1 0 0 -1 0 841)" d="M204.714 572.473L251.787 572.473" stroke="#000000" stroke-width="0.398" fill="none" /><path id="390" transform="matrix(1 0 0 -1 0 841)" d="M204.913 553.98L204.913 572.473" stroke="#000000" stroke-width="0.398" fill="none" /><path id="391" transform="matrix(1 0 0 -1 0 841)" d="M251.588 553.98L251.588 572.473" stroke="#000000" stroke-width="0.398" fill="none" /><path id="392" transform="matrix(1 0 0 -1 0 841)" d="M204.714 553.98L251.787 553.98" stroke="#000000" stroke-width="0.398" fill="none" /><path id="632" transform="matrix(1 0 0 -1 0 841)" d="M403.827 460.485L439.892 460.485" stroke="#000000" stroke-width="0.436" fill="none" /><path id="648" transform="matrix(1 0 0 -1 0 841)" d="M454.412 468.457L498.048 468.457" stroke="#000000" stroke-width="0.398" fill="none" /><path id="649" transform="matrix(1 0 0 -1 0 841)" d="M454.611 452.344L454.611 468.456" stroke="#000000" stroke-width="0.398" fill="none" /><path id="650" transform="matrix(1 0 0 -1 0 841)" d="M497.849 452.344L497.849 468.456" stroke="#000000" stroke-width="0.398" fill="none" /><path id="651" transform="matrix(1 0 0 -1 0 841)" d="M454.412 452.344L498.048 452.344" stroke="#000000" stroke-width="0.398" fill="none" /><path id="841" transform="matrix(1 0 0 -1 0 841)" d="M301.131 272.7854L261.4461 292.6279L329.4815 312.8922L369.1641 302.5499z" stroke="none" fill="#CCCCCC" fill-rule="nonzero" /><path id="847" transform="matrix(1 0 0 -1 0 841)" d="M261.4461 292.6279L261.4461 337.9829L329.4844 346.668L329.4815 312.8922z" stroke="none" fill="#BFBFBF" fill-rule="nonzero" /><path id="856" transform="matrix(1 0 0 -1 0 841)" d="M329.4844 346.668L329.4815 312.8922L369.1641 302.5499L369.1641 342.2352z" stroke="none" fill="#F2F2F2" fill-rule="nonzero" fill-opacity="0.2" /><path id="865" transform="matrix(1 0 0 -1 0 841)" d="M301.131 329.479L301.131 272.7854L261.4461 292.6279L261.4461 337.9829z" stroke="none" fill="#F2F2F2" fill-rule="nonzero" fill-opacity="0.4980392" /><path id="874" transform="matrix(1 0 0 -1 0 841)" d="M301.131 329.479L261.4461 337.9829L329.4844 346.668L369.1641 342.2352z" stroke="none" fill="#CCCCCC" fill-rule="nonzero" fill-opacity="0.2" /><path id="882" transform="matrix(1 0 0 -1 0 841)" d="M329.4844 346.668L329.4815 312.8922" stroke="#000000" stroke-width="0.79701" stroke-dasharray="3.750053,3.750053" fill="none" /><path id="883" transform="matrix(1 0 0 -1 0 841)" d="M261.4461 292.6279L329.4815 312.8922" stroke="#000000" stroke-width="0.79701" stroke-dasharray="3.750053,3.750053" fill="none" /><path id="884" transform="matrix(1 0 0 -1 0 841)" d="M369.1641 302.5499L329.4815 312.8922" stroke="#000000" stroke-width="0.79701" stroke-dasharray="3.750053,3.750053" fill="none" /><path id="893" transform="matrix(1 0 0 -1 0 841)" d="M301.131 329.479L301.131 272.7854" stroke="#000000" stroke-width="0.79701" fill="none" /><path id="894" transform="matrix(1 0 0 -1 0 841)" d="M250.1067 339.8524L250.1067 293.0266" stroke="#000000" stroke-width="0.3985" fill="none" /><path id="895" transform="matrix(1 0 0 -1 0 841)" d="M247.7157 337.9794C 249.1503 338.358 249.8277 339.2017 250.1067 340.0516C 250.3856 339.2017 251.0631 338.358 252.4977 337.9794" stroke="#000000" stroke-width="0.3985" stroke-linecap="round" fill="none" /><path id="896" transform="matrix(1 0 0 -1 0 841)" d="M252.4977 294.8996C 251.0631 294.521 250.3856 293.6773 250.1067 292.8273C 249.8277 293.6773 249.1503 294.521 247.7157 294.8996" stroke="#000000" stroke-width="0.3985" stroke-linecap="round" fill="none" /><path id="907" transform="matrix(1 0 0 -1 0 841)" d="M256.1268 289.6047L292.276 270.1395" stroke="#000000" stroke-width="0.3985" fill="none" /><path id="908" transform="matrix(1 0 0 -1 0 841)" d="M256.6423 286.6116C 256.9891 288.0542 256.5675 289.0506 255.9514 289.6992C 256.832 289.5418 257.8959 289.7383 258.9094 290.8219" stroke="#000000" stroke-width="0.3984783" stroke-linecap="round" fill="none" /><path id="909" transform="matrix(1 0 0 -1 0 841)" d="M291.7606 273.1325C 291.4137 271.69 291.8354 270.6936 292.4514 270.045C 291.5709 270.2024 290.5069 270.0059 289.4935 268.9223" stroke="#000000" stroke-width="0.3984783" stroke-linecap="round" fill="none" /><path id="920" transform="matrix(1 0 0 -1 0 841)" d="M374.4689 297.2847L307.1642 267.2784" stroke="#000000" stroke-width="0.3985" fill="none" /><path id="921" transform="matrix(1 0 0 -1 0 841)" d="M371.7847 298.7058C 372.7146 297.5497 373.761 297.2745 374.6509 297.3658C 373.9882 296.765 373.4935 295.8027 373.7319 294.3383" stroke="#000000" stroke-width="0.3984862" stroke-linecap="round" fill="none" /><path id="922" transform="matrix(1 0 0 -1 0 841)" d="M309.8484 265.8572C 308.9185 267.0134 307.8721 267.2886 306.9822 267.1972C 307.645 267.7981 308.1396 268.7603 307.9012 270.2248" stroke="#000000" stroke-width="0.3984862" stroke-linecap="round" fill="none" /><path id="932" transform="matrix(1 0 0 -1 0 841)" d="M261.4461 292.6279L261.4461 337.9829" stroke="#000000" stroke-width="0.79701" fill="none" /><path id="933" transform="matrix(1 0 0 -1 0 841)" d="M369.1641 302.5499L369.1641 342.2352" stroke="#000000" stroke-width="0.79701" fill="none" /><path id="934" transform="matrix(1 0 0 -1 0 841)" d="M301.131 329.479L261.4461 337.9829" stroke="#000000" stroke-width="0.79701" fill="none" /><path id="935" transform="matrix(1 0 0 -1 0 841)" d="M301.131 329.479L369.1641 342.2352" stroke="#000000" stroke-width="0.79701" fill="none" /><path id="936" transform="matrix(1 0 0 -1 0 841)" d="M301.131 272.7854L261.4461 292.6279" stroke="#000000" stroke-width="0.79701" fill="none" /><path id="937" transform="matrix(1 0 0 -1 0 841)" d="M301.131 272.7854L369.1641 302.5499" stroke="#000000" stroke-width="0.79701" fill="none" /><path id="938" transform="matrix(1 0 0 -1 0 841)" d="M261.4461 337.9829L329.4844 346.668" stroke="#000000" stroke-width="0.79701" fill="none" /><path id="939" transform="matrix(1 0 0 -1 0 841)" d="M369.1641 342.2352L329.4844 346.668" stroke="#000000" stroke-width="0.79701" fill="none" /><path id="1013" transform="matrix(1 0 0 -1 0 841)" d="M162.334 197.089L176.832 197.089" stroke="#000000" stroke-width="0.436" fill="none" /><path id="1042" transform="matrix(1 0 0 -1 0 841)" d="M291.763 197.089L332.061 197.089" stroke="#000000" stroke-width="0.436" fill="none" /><path id="1051" transform="matrix(1 0 0 -1 0 841)" d="M312.845 179.283L327.343 179.283" stroke="#000000" stroke-width="0.436" fill="none" /><path id="1065" transform="matrix(1 0 0 -1 0 841)" d="M346.581 205.06L402.959 205.06" stroke="#000000" stroke-width="0.398" fill="none" /><path id="1066" transform="matrix(1 0 0 -1 0 841)" d="M346.78 188.948L346.78 205.06" stroke="#000000" stroke-width="0.398" fill="none" /><path id="1067" transform="matrix(1 0 0 -1 0 841)" d="M402.76 188.948L402.76 205.06" stroke="#000000" stroke-width="0.398" fill="none" /><path id="1068" transform="matrix(1 0 0 -1 0 841)" d="M346.581 188.948L402.959 188.948" stroke="#000000" stroke-width="0.398" fill="none" /></g></g></svg>