<svg xmlns="http://www.w3.org/2000/svg" xmlns:xlink="http://www.w3.org/1999/xlink" id="body_264" preserveAspectRatio="xMinYMin meet" viewBox="0 0 793 1121"><defs><clipPath id="1"><path id="" clip-rule="evenodd" transform="matrix(1 0 0 1 0 0)" d="M0 841L0 -0.8900146L0 -0.8900146L595.276 -0.8900146L595.276 -0.8900146L595.276 841L595.276 841L0 841z" /></clipPath></defs><g transform="matrix(1.333333 0 0 1.333333 0 0)"><g clip-path="url(#1)"><path id="23" transform="matrix(1 0 0 -1 0 841)" d="M85.039 766.564L510.236 766.564" stroke="#000000" stroke-width="0.498" fill="none" /><path id="24" transform="matrix(1 0 0 -1 0 841)" d="M136.063 742.21L143.826 742.21L143.826 754.483L136.063 754.483z" stroke="none" fill="#FFF100" fill-rule="nonzero" /><path id="27" transform="matrix(1 0 0 -1 0 841)" d="M143.578 742.21L146.305 742.21L146.305 754.483L143.578 754.483z" stroke="none" fill="#FFF100" fill-rule="nonzero" /><path id="28" transform="matrix(1 0 0 -1 0 841)" d="M146.056 742.21L165.678 742.21L165.678 754.483L146.056 754.483z" stroke="none" fill="#FFF100" fill-rule="nonzero" /><path id="32" transform="matrix(1 0 0 -1 0 841)" d="M165.428 742.21L168.155 742.21L168.155 754.483L165.428 754.483z" stroke="none" fill="#FFF100" fill-rule="nonzero" /><path id="33" transform="matrix(1 0 0 -1 0 841)" d="M167.906 742.21L175.68 742.21L175.68 754.483L167.906 754.483z" stroke="none" fill="#FFF100" fill-rule="nonzero" /><path id="36" transform="matrix(1 0 0 -1 0 841)" d="M175.432 742.21L178.159 742.21L178.159 754.483L175.432 754.483z" stroke="none" fill="#FFF100" fill-rule="nonzero" /><path id="37" transform="matrix(1 0 0 -1 0 841)" d="M177.91 742.21L201.132 742.21L201.132 754.483L177.91 754.483z" stroke="none" fill="#FFF100" fill-rule="nonzero" /><path id="43" transform="matrix(1 0 0 -1 0 841)" d="M200.882 742.21L203.609 742.21L203.609 754.483L200.882 754.483z" stroke="none" fill="#FFF100" fill-rule="nonzero" /><path id="44" transform="matrix(1 0 0 -1 0 841)" d="M203.361 742.21L217.19 742.21L217.19 754.483L203.361 754.483z" stroke="none" fill="#FFF100" fill-rule="nonzero" /><path id="48" transform="matrix(1 0 0 -1 0 841)" d="M216.94 742.21L219.667 742.21L219.667 754.483L216.94 754.483z" stroke="none" fill="#FFF100" fill-rule="nonzero" /><path id="49" transform="matrix(1 0 0 -1 0 841)" d="M219.419 742.21L232.637 742.21L232.637 754.483L219.419 754.483z" stroke="none" fill="#FFF100" fill-rule="nonzero" /><path id="53" transform="matrix(1 0 0 -1 0 841)" d="M232.138 742.21L242.934 742.21L242.934 754.483L232.138 754.483z" stroke="none" fill="#FFF100" fill-rule="nonzero" /><path id="56" transform="matrix(1 0 0 -1 0 841)" d="M242.436 742.21L264.141 742.21L264.141 754.483L242.436 754.483z" stroke="none" fill="#FFF100" fill-rule="nonzero" /><path id="62" transform="matrix(1 0 0 -1 0 841)" d="M263.892 742.21L266.619 742.21L266.619 754.483L263.892 754.483z" stroke="none" fill="#FFF100" fill-rule="nonzero" /><path id="63" transform="matrix(1 0 0 -1 0 841)" d="M266.371 742.21L290.225 742.21L290.225 754.483L266.371 754.483z" stroke="none" fill="#FFF100" fill-rule="nonzero" /><path id="69" transform="matrix(1 0 0 -1 0 841)" d="M289.976 742.21L292.703 742.21L292.703 754.483L289.976 754.483z" stroke="none" fill="#FFF100" fill-rule="nonzero" /><path id="70" transform="matrix(1 0 0 -1 0 841)" d="M292.454 742.21L309.926 742.21L309.926 754.483L292.454 754.483z" stroke="none" fill="#FFF100" fill-rule="nonzero" /><path id="75" transform="matrix(1 0 0 -1 0 841)" d="M309.677 742.21L312.404 742.21L312.404 754.483L309.677 754.483z" stroke="none" fill="#FFF100" fill-rule="nonzero" /><path id="76" transform="matrix(1 0 0 -1 0 841)" d="M312.155 742.21L322.951 742.21L322.951 754.483L312.155 754.483z" stroke="none" fill="#FFF100" fill-rule="nonzero" /><path id="79" transform="matrix(1 0 0 -1 0 841)" d="M322.702 742.21L325.429 742.21L325.429 754.483L322.702 754.483z" stroke="none" fill="#FFF100" fill-rule="nonzero" /><path id="80" transform="matrix(1 0 0 -1 0 841)" d="M325.181 742.21L339.01 742.21L339.01 754.483L325.181 754.483z" stroke="none" fill="#FFF100" fill-rule="nonzero" /><path id="84" transform="matrix(1 0 0 -1 0 841)" d="M338.76 742.21L341.487 742.21L341.487 754.483L338.76 754.483z" stroke="none" fill="#FFF100" fill-rule="nonzero" /><path id="85" transform="matrix(1 0 0 -1 0 841)" d="M341.239 742.21L363.555 742.21L363.555 754.483L341.239 754.483z" stroke="none" fill="#FFF100" fill-rule="nonzero" /><path id="90" transform="matrix(1 0 0 -1 0 841)" d="M363.305 742.21L366.032 742.21L366.032 754.483L363.305 754.483z" stroke="none" fill="#FFF100" fill-rule="nonzero" /><path id="91" transform="matrix(1 0 0 -1 0 841)" d="M365.784 742.21L375.369 742.21L375.369 754.483L365.784 754.483z" stroke="none" fill="#FFF100" fill-rule="nonzero" /><path id="94" transform="matrix(1 0 0 -1 0 841)" d="M375.12 742.21L377.847 742.21L377.847 754.483L375.12 754.483z" stroke="none" fill="#FFF100" fill-rule="nonzero" /><path id="95" transform="matrix(1 0 0 -1 0 841)" d="M377.598 742.21L391.427 742.21L391.427 754.483L377.598 754.483z" stroke="none" fill="#FFF100" fill-rule="nonzero" /><path id="99" transform="matrix(1 0 0 -1 0 841)" d="M391.178 742.21L393.905 742.21L393.905 754.483L391.178 754.483z" stroke="none" fill="#FFF100" fill-rule="nonzero" /><path id="100" transform="matrix(1 0 0 -1 0 841)" d="M393.656 742.21L409.907 742.21L409.907 754.483L393.656 754.483z" stroke="none" fill="#FFF100" fill-rule="nonzero" /><path id="104" transform="matrix(1 0 0 -1 0 841)" d="M409.409 742.21L442.034 742.21L442.034 754.483L409.409 754.483z" stroke="none" fill="#FFF100" fill-rule="nonzero" /><path id="113" transform="matrix(1 0 0 -1 0 841)" d="M441.784 742.21L444.511 742.21L444.511 754.483L441.784 754.483z" stroke="none" fill="#FFF100" fill-rule="nonzero" /><path id="114" transform="matrix(1 0 0 -1 0 841)" d="M444.263 742.21L453.248 742.21L453.248 754.483L444.263 754.483z" stroke="none" fill="#FFF100" fill-rule="nonzero" /><path id="117" transform="matrix(1 0 0 -1 0 841)" d="M452.999 742.21L455.726 742.21L455.726 754.483L452.999 754.483z" stroke="none" fill="#FFF100" fill-rule="nonzero" /><path id="118" transform="matrix(1 0 0 -1 0 841)" d="M455.477 742.21L472.338 742.21L472.338 754.483L455.477 754.483z" stroke="none" fill="#FFF100" fill-rule="nonzero" /><path id="123" transform="matrix(1 0 0 -1 0 841)" d="M472.089 742.21L474.816 742.21L474.816 754.483L472.089 754.483z" stroke="none" fill="#FFF100" fill-rule="nonzero" /><path id="124" transform="matrix(1 0 0 -1 0 841)" d="M474.568 742.21L496.208 742.21L496.208 754.483L474.568 754.483z" stroke="none" fill="#FFF100" fill-rule="nonzero" /><path id="131" transform="matrix(1 0 0 -1 0 841)" d="M136.063 725.273L151.55 725.273L151.55 737.546L136.063 737.546z" stroke="none" fill="#FFF100" fill-rule="nonzero" /><path id="135" transform="matrix(1 0 0 -1 0 841)" d="M151.604 725.273L154.781 725.273L154.781 737.546L151.604 737.546z" stroke="none" fill="#FFF100" fill-rule="nonzero" /><path id="136" transform="matrix(1 0 0 -1 0 841)" d="M154.532 725.273L168.361 725.273L168.361 737.546L154.532 737.546z" stroke="none" fill="#FFF100" fill-rule="nonzero" /><path id="140" transform="matrix(1 0 0 -1 0 841)" d="M168.378 725.273L171.555 725.273L171.555 737.546L168.378 737.546z" stroke="none" fill="#FFF100" fill-rule="nonzero" /><path id="141" transform="matrix(1 0 0 -1 0 841)" d="M171.306 725.273L199.688 725.273L199.688 737.546L171.306 737.546z" stroke="none" fill="#FFF100" fill-rule="nonzero" /><path id="147" transform="matrix(1 0 0 -1 0 841)" d="M199.996 725.273L203.173 725.273L203.173 737.546L199.996 737.546z" stroke="none" fill="#FFF100" fill-rule="nonzero" /><path id="148" transform="matrix(1 0 0 -1 0 841)" d="M202.924 725.273L218.411 725.273L218.411 737.546L202.924 737.546z" stroke="none" fill="#FFF100" fill-rule="nonzero" /><path id="152" transform="matrix(1 0 0 -1 0 841)" d="M218.216 725.273L240.532 725.273L240.532 737.546L218.216 737.546z" stroke="none" fill="#FFF100" fill-rule="nonzero" /><path id="157" transform="matrix(1 0 0 -1 0 841)" d="M240.72 725.273L243.897 725.273L243.897 737.546L240.72 737.546z" stroke="none" fill="#FFF100" fill-rule="nonzero" /><path id="158" transform="matrix(1 0 0 -1 0 841)" d="M243.647 725.273L252.632 725.273L252.632 737.546L243.647 737.546z" stroke="none" fill="#FFF100" fill-rule="nonzero" /><path id="161" transform="matrix(1 0 0 -1 0 841)" d="M252.553 725.273L255.73 725.273L255.73 737.546L252.553 737.546z" stroke="none" fill="#FFF100" fill-rule="nonzero" /><path id="162" transform="matrix(1 0 0 -1 0 841)" d="M255.481 725.273L281.015 725.273L281.015 737.546L255.481 737.546z" stroke="none" fill="#FFF100" fill-rule="nonzero" /><path id="168" transform="matrix(1 0 0 -1 0 841)" d="M281.269 725.273L284.446 725.273L284.446 737.546L281.269 737.546z" stroke="none" fill="#FFF100" fill-rule="nonzero" /><path id="169" transform="matrix(1 0 0 -1 0 841)" d="M284.197 725.273L298.026 725.273L298.026 737.546L284.197 737.546z" stroke="none" fill="#FFF100" fill-rule="nonzero" /><path id="173" transform="matrix(1 0 0 -1 0 841)" d="M298.043 725.273L301.22 725.273L301.22 737.546L298.043 737.546z" stroke="none" fill="#FFF100" fill-rule="nonzero" /><path id="174" transform="matrix(1 0 0 -1 0 841)" d="M300.971 725.273L315.193 725.273L315.193 737.546L300.971 737.546z" stroke="none" fill="#FFF100" fill-rule="nonzero" /><path id="178" transform="matrix(1 0 0 -1 0 841)" d="M314.974 725.273L334.257 725.273L334.257 737.546L314.974 737.546z" stroke="none" fill="#FFF100" fill-rule="nonzero" /><path id="182" transform="matrix(1 0 0 -1 0 841)" d="M334.384 725.273L337.561 725.273L337.561 737.546L334.384 737.546z" stroke="none" fill="#FFF100" fill-rule="nonzero" /><path id="183" transform="matrix(1 0 0 -1 0 841)" d="M337.311 725.273L346.896 725.273L346.896 737.546L337.311 737.546z" stroke="none" fill="#FFF100" fill-rule="nonzero" /><path id="186" transform="matrix(1 0 0 -1 0 841)" d="M346.829 725.273L350.006 725.273L350.006 737.546L346.829 737.546z" stroke="none" fill="#FFF100" fill-rule="nonzero" /><path id="187" transform="matrix(1 0 0 -1 0 841)" d="M349.757 725.273L369.379 725.273L369.379 737.546L349.757 737.546z" stroke="none" fill="#FFF100" fill-rule="nonzero" /><path id="191" transform="matrix(1 0 0 -1 0 841)" d="M369.518 725.273L372.695 725.273L372.695 737.546L369.518 737.546z" stroke="none" fill="#FFF100" fill-rule="nonzero" /><path id="192" transform="matrix(1 0 0 -1 0 841)" d="M372.445 725.273L397.783 725.273L397.783 737.546L372.445 737.546z" stroke="none" fill="#FFF100" fill-rule="nonzero" /><path id="198" transform="matrix(1 0 0 -1 0 841)" d="M398.031 725.273L401.208 725.273L401.208 737.546L398.031 737.546z" stroke="none" fill="#FFF100" fill-rule="nonzero" /><path id="199" transform="matrix(1 0 0 -1 0 841)" d="M400.959 725.273L409.944 725.273L409.944 737.546L400.959 737.546z" stroke="none" fill="#FFF100" fill-rule="nonzero" /><path id="202" transform="matrix(1 0 0 -1 0 841)" d="M409.865 725.273L413.042 725.273L413.042 737.546L409.865 737.546z" stroke="none" fill="#FFF100" fill-rule="nonzero" /><path id="203" transform="matrix(1 0 0 -1 0 841)" d="M412.792 725.273L423.588 725.273L423.588 737.546L412.792 737.546z" stroke="none" fill="#FFF100" fill-rule="nonzero" /><path id="206" transform="matrix(1 0 0 -1 0 841)" d="M423.545 725.273L426.722 725.273L426.722 737.546L423.545 737.546z" stroke="none" fill="#FFF100" fill-rule="nonzero" /><path id="207" transform="matrix(1 0 0 -1 0 841)" d="M426.473 725.273L437.106 725.273L437.106 737.546L426.473 737.546z" stroke="none" fill="#FFF100" fill-rule="nonzero" /><path id="210" transform="matrix(1 0 0 -1 0 841)" d="M436.814 725.273L470.028 725.273L470.028 737.546L436.814 737.546z" stroke="none" fill="#FFF100" fill-rule="nonzero" /><path id="218" transform="matrix(1 0 0 -1 0 841)" d="M470.433 725.273L473.61 725.273L473.61 737.546L470.433 737.546z" stroke="none" fill="#FFF100" fill-rule="nonzero" /><path id="219" transform="matrix(1 0 0 -1 0 841)" d="M473.361 725.273L482.346 725.273L482.346 737.546L473.361 737.546z" stroke="none" fill="#FFF100" fill-rule="nonzero" /><path id="222" transform="matrix(1 0 0 -1 0 841)" d="M482.267 725.273L485.444 725.273L485.444 737.546L482.267 737.546z" stroke="none" fill="#FFF100" fill-rule="nonzero" /><path id="223" transform="matrix(1 0 0 -1 0 841)" d="M485.194 725.273L505.994 725.273L505.994 737.546L485.194 737.546z" stroke="none" fill="#FFF100" fill-rule="nonzero" /><path id="227" transform="matrix(1 0 0 -1 0 841)" d="M136.063 708.337L151.517 708.337L151.517 720.61L136.063 720.61z" stroke="none" fill="#FFF100" fill-rule="nonzero" /><path id="231" transform="matrix(1 0 0 -1 0 841)" d="M151.019 708.337L170.302 708.337L170.302 720.61L151.019 720.61z" stroke="none" fill="#FFF100" fill-rule="nonzero" /><path id="235" transform="matrix(1 0 0 -1 0 841)" d="M170.054 708.337L172.781 708.337L172.781 720.61L170.054 720.61z" stroke="none" fill="#FFF100" fill-rule="nonzero" /><path id="236" transform="matrix(1 0 0 -1 0 841)" d="M172.532 708.337L182.117 708.337L182.117 720.61L172.532 720.61z" stroke="none" fill="#FFF100" fill-rule="nonzero" /><path id="239" transform="matrix(1 0 0 -1 0 841)" d="M181.868 708.337L184.595 708.337L184.595 720.61L181.868 720.61z" stroke="none" fill="#FFF100" fill-rule="nonzero" /><path id="240" transform="matrix(1 0 0 -1 0 841)" d="M184.346 708.337L208.211 708.337L208.211 720.61L184.346 720.61z" stroke="none" fill="#FFF100" fill-rule="nonzero" /><path id="245" transform="matrix(1 0 0 -1 0 841)" d="M207.962 708.337L210.689 708.337L210.689 720.61L207.962 720.61z" stroke="none" fill="#FFF100" fill-rule="nonzero" /><path id="246" transform="matrix(1 0 0 -1 0 841)" d="M210.441 708.337L219.426 708.337L219.426 720.61L210.441 720.61z" stroke="none" fill="#FFF100" fill-rule="nonzero" /><path id="249" transform="matrix(1 0 0 -1 0 841)" d="M219.177 708.337L221.904 708.337L221.904 720.61L219.177 720.61z" stroke="none" fill="#FFF100" fill-rule="nonzero" /><path id="250" transform="matrix(1 0 0 -1 0 841)" d="M221.655 708.337L244.571 708.337L244.571 720.61L221.655 720.61z" stroke="none" fill="#FFF100" fill-rule="nonzero" /><path id="256" transform="matrix(1 0 0 -1 0 841)" d="M244.322 708.337L247.049 708.337L247.049 720.61L244.322 720.61z" stroke="none" fill="#FFF100" fill-rule="nonzero" /><path id="257" transform="matrix(1 0 0 -1 0 841)" d="M246.8 708.337L268.516 708.337L268.516 720.61L246.8 720.61z" stroke="none" fill="#FFF100" fill-rule="nonzero" /><path id="263" transform="matrix(1 0 0 -1 0 841)" d="M268.267 708.337L270.994 708.337L270.994 720.61L268.267 720.61z" stroke="none" fill="#FFF100" fill-rule="nonzero" /><path id="264" transform="matrix(1 0 0 -1 0 841)" d="M270.745 708.337L274.876 708.337L274.876 720.61L270.745 720.61z" stroke="none" fill="#FFF100" fill-rule="nonzero" /><path id="266" transform="matrix(1 0 0 -1 0 841)" d="M274.627 708.337L277.354 708.337L277.354 720.61L274.627 720.61z" stroke="none" fill="#FFF100" fill-rule="nonzero" /><path id="267" transform="matrix(1 0 0 -1 0 841)" d="M277.105 708.337L290.879 708.337L290.879 720.61L277.105 720.61z" stroke="none" fill="#FFF100" fill-rule="nonzero" /><path id="271" transform="matrix(1 0 0 -1 0 841)" d="M290.382 708.337L311.793 708.337L311.793 720.61L290.382 720.61z" stroke="none" fill="#FFF100" fill-rule="nonzero" /><path id="277" transform="matrix(1 0 0 -1 0 841)" d="M311.543 708.337L314.27 708.337L314.27 720.61L311.543 720.61z" stroke="none" fill="#FFF100" fill-rule="nonzero" /><path id="278" transform="matrix(1 0 0 -1 0 841)" d="M314.021 708.337L328.766 708.337L328.766 720.61L314.021 720.61z" stroke="none" fill="#FFF100" fill-rule="nonzero" /><path id="282" transform="matrix(1 0 0 -1 0 841)" d="M328.517 708.337L331.244 708.337L331.244 720.61L328.517 720.61z" stroke="none" fill="#FFF100" fill-rule="nonzero" /><path id="283" transform="matrix(1 0 0 -1 0 841)" d="M330.995 708.337L346.94 708.337L346.94 720.61L330.995 720.61z" stroke="none" fill="#FFF100" fill-rule="nonzero" /><path id="288" transform="matrix(1 0 0 -1 0 841)" d="M346.691 708.337L349.418 708.337L349.418 720.61L346.691 720.61z" stroke="none" fill="#FFF100" fill-rule="nonzero" /><path id="289" transform="matrix(1 0 0 -1 0 841)" d="M349.169 708.337L374.507 708.337L374.507 720.61L349.169 720.61z" stroke="none" fill="#FFF100" fill-rule="nonzero" /><path id="295" transform="matrix(1 0 0 -1 0 841)" d="M374.258 708.337L376.985 708.337L376.985 720.61L374.258 720.61z" stroke="none" fill="#FFF100" fill-rule="nonzero" /><path id="296" transform="matrix(1 0 0 -1 0 841)" d="M376.736 708.337L385.721 708.337L385.721 720.61L376.736 720.61z" stroke="none" fill="#FFF100" fill-rule="nonzero" /><path id="299" transform="matrix(1 0 0 -1 0 841)" d="M385.472 708.337L388.199 708.337L388.199 720.61L385.472 720.61z" stroke="none" fill="#FFF100" fill-rule="nonzero" /><path id="300" transform="matrix(1 0 0 -1 0 841)" d="M387.951 708.337L398.747 708.337L398.747 720.61L387.951 720.61z" stroke="none" fill="#FFF100" fill-rule="nonzero" /><path id="303" transform="matrix(1 0 0 -1 0 841)" d="M398.498 708.337L401.225 708.337L401.225 720.61L398.498 720.61z" stroke="none" fill="#FFF100" fill-rule="nonzero" /><path id="304" transform="matrix(1 0 0 -1 0 841)" d="M400.976 708.337L416.791 708.337L416.791 720.61L400.976 720.61z" stroke="none" fill="#FFF100" fill-rule="nonzero" /><path id="308" transform="matrix(1 0 0 -1 0 841)" d="M416.292 708.337L443.888 708.337L443.888 720.61L416.292 720.61z" stroke="none" fill="#FFF100" fill-rule="nonzero" /><path id="315" transform="matrix(1 0 0 -1 0 841)" d="M443.639 708.337L446.366 708.337L446.366 720.61L443.639 720.61z" stroke="none" fill="#FFF100" fill-rule="nonzero" /><path id="316" transform="matrix(1 0 0 -1 0 841)" d="M446.118 708.337L455.103 708.337L455.103 720.61L446.118 720.61z" stroke="none" fill="#FFF100" fill-rule="nonzero" /><path id="319" transform="matrix(1 0 0 -1 0 841)" d="M454.854 708.337L457.581 708.337L457.581 720.61L454.854 720.61z" stroke="none" fill="#FFF100" fill-rule="nonzero" /><path id="320" transform="matrix(1 0 0 -1 0 841)" d="M457.332 708.337L478.132 708.337L478.132 720.61L457.332 720.61z" stroke="none" fill="#FFF100" fill-rule="nonzero" /><path id="645" transform="matrix(1 0 0 -1 0 841)" d="M396.8539 524.9024C 396.8539 571.8696 358.7806 609.9429 311.8135 609.9429C 264.8463 609.9429 226.773 571.8696 226.773 524.9024C 226.773 477.9353 264.8463 439.862 311.8135 439.862C 358.7806 439.862 396.8539 477.9353 396.8539 524.9024z" stroke="#000000" stroke-width="0.3985" fill="#F2F2F2" fill-rule="nonzero" /><path id="646" transform="matrix(1 0 0 -1 0 841)" d="M226.773 524.9024L396.8539 524.9024" stroke="#000000" stroke-width="1.19553" fill="none" /><path id="703" transform="matrix(1 0 0 -1 0 841)" d="M266.4584 454.0354L311.8135 524.9024" stroke="#000000" stroke-width="1.19553" fill="none" /><path id="704" transform="matrix(1 0 0 -1 0 841)" d="M357.1685 454.0354L311.8135 524.9024" stroke="#000000" stroke-width="1.19553" fill="none" /><path id="705" transform="matrix(1 0 0 -1 0 841)" d="M215.119 524.9024C 215.119 534.1216 207.6455 541.5952 198.4262 541.5952C 189.207 541.5952 181.7335 534.1216 181.7335 524.9024C 181.7335 515.6832 189.207 508.2097 198.4262 508.2097C 207.6455 508.2097 215.119 515.6832 215.119 524.9024z" stroke="#000000" stroke-width="1.39478" fill="#FFCCCC" fill-rule="nonzero" /><path id="706" transform="matrix(1 0 0 -1 0 841)" d="M215.119 524.9024C 215.119 534.1216 207.6455 541.5952 198.4262 541.5952C 189.207 541.5952 181.7335 534.1216 181.7335 524.9024C 181.7335 515.6832 189.207 508.2097 198.4262 508.2097C 207.6455 508.2097 215.119 515.6832 215.119 524.9024z" stroke="#FFFFFF" stroke-width="0.59776" fill="none" /><path id="707" transform="matrix(1 0 0 -1 0 841)" d="M181.9327 524.9024L214.9197 524.9024" stroke="#000000" stroke-width="0.3985" fill="none" /><path id="710" transform="matrix(1 0 0 -1 0 841)" d="M268.8398 434.1927C 268.8398 444.9012 260.1591 453.5819 249.4506 453.5819C 238.7421 453.5819 230.0614 444.9012 230.0614 434.1927C 230.0614 423.4843 238.7421 414.8035 249.4506 414.8035C 260.1591 414.8035 268.8398 423.4843 268.8398 434.1927z" stroke="#000000" stroke-width="1.39478" fill="#FFCCCC" fill-rule="nonzero" /><path id="711" transform="matrix(1 0 0 -1 0 841)" d="M268.8398 434.1927C 268.8398 444.9012 260.1591 453.5819 249.4506 453.5819C 238.7421 453.5819 230.0614 444.9012 230.0614 434.1927C 230.0614 423.4843 238.7421 414.8035 249.4506 414.8035C 260.1591 414.8035 268.8398 423.4843 268.8398 434.1927z" stroke="#FFFFFF" stroke-width="0.59776" fill="none" /><path id="712" transform="matrix(1 0 0 -1 0 841)" d="M230.2606 434.1927L268.6405 434.1927" stroke="#000000" stroke-width="0.3985" fill="none" /><path id="722" transform="matrix(1 0 0 -1 0 841)" d="M387.8963 434.1927C 387.8963 444.9012 379.2156 453.5819 368.5071 453.5819C 357.7986 453.5819 349.1179 444.9012 349.1179 434.1927C 349.1179 423.4843 357.7986 414.8035 368.5071 414.8035C 379.2156 414.8035 387.8963 423.4843 387.8963 434.1927z" stroke="#000000" stroke-width="1.39478" fill="#FFCCCC" fill-rule="nonzero" /><path id="723" transform="matrix(1 0 0 -1 0 841)" d="M387.8963 434.1927C 387.8963 444.9012 379.2156 453.5819 368.5071 453.5819C 357.7986 453.5819 349.1179 444.9012 349.1179 434.1927C 349.1179 423.4843 357.7986 414.8035 368.5071 414.8035C 379.2156 414.8035 387.8963 423.4843 387.8963 434.1927z" stroke="#FFFFFF" stroke-width="0.59776" fill="none" /><path id="724" transform="matrix(1 0 0 -1 0 841)" d="M349.3171 434.1927L387.6971 434.1927" stroke="#000000" stroke-width="0.3985" fill="none" /><path id="909" transform="matrix(1 0 0 -1 0 841)" d="M245.578 309.227L258.909 309.227" stroke="#000000" stroke-width="0.436" fill="none" /><path id="921" transform="matrix(1 0 0 -1 0 841)" d="M373.273 323.19L389.593 323.19" stroke="#000000" stroke-width="0.436" fill="none" /><path id="925" transform="matrix(1 0 0 -1 0 841)" d="M281.137 309.227L447.234 309.227" stroke="#000000" stroke-width="0.436" fill="none" /><path id="1049" transform="matrix(1 0 0 -1 0 841)" d="M395.963 257.395L412.283 257.395" stroke="#000000" stroke-width="0.436" fill="none" /><path id="1053" transform="matrix(1 0 0 -1 0 841)" d="M323.964 243.432L449.788 243.432" stroke="#000000" stroke-width="0.436" fill="none" /><path id="1070" transform="matrix(1 0 0 -1 0 841)" d="M395.424 232.087L408.755 232.087" stroke="#000000" stroke-width="0.436" fill="none" /></g></g></svg>