<svg xmlns="http://www.w3.org/2000/svg" xmlns:xlink="http://www.w3.org/1999/xlink" id="body_268" preserveAspectRatio="xMinYMin meet" viewBox="0 0 793 1121"><defs><clipPath id="1"><path id="" clip-rule="evenodd" transform="matrix(1 0 0 1 0 0)" d="M0 841L0 -0.8900146L0 -0.8900146L595.276 -0.8900146L595.276 -0.8900146L595.276 841L595.276 841L0 841z" /></clipPath></defs><g transform="matrix(1.333333 0 0 1.333333 0 0)"><g clip-path="url(#1)"><path id="23" transform="matrix(1 0 0 -1 0 841)" d="M85.039 766.564L510.236 766.564" stroke="#000000" stroke-width="0.498" fill="none" /><path id="732" transform="matrix(1 0 0 -1 0 841)" d="M113.794 351.93L139.846 351.93" stroke="#000000" stroke-width="0.436" fill="none" /><path id="744" transform="matrix(1 0 0 -1 0 841)" d="M154.366 359.842L211.039 359.842" stroke="#000000" stroke-width="0.398" fill="none" /><path id="745" transform="matrix(1 0 0 -1 0 841)" d="M154.565 343.789L154.565 359.841" stroke="#000000" stroke-width="0.398" fill="none" /><path id="746" transform="matrix(1 0 0 -1 0 841)" d="M210.839 343.789L210.839 359.841" stroke="#000000" stroke-width="0.398" fill="none" /><path id="747" transform="matrix(1 0 0 -1 0 841)" d="M154.366 343.789L211.039 343.789" stroke="#000000" stroke-width="0.398" fill="none" /><path id="874" transform="matrix(1 0 0 -1 0 841)" d="M117.587 258.672L183.532 258.672" stroke="#000000" stroke-width="0.436" fill="none" /><path id="935" transform="matrix(1 0 0 -1 0 841)" d="M113.602 205.89L166.909 205.89" stroke="#000000" stroke-width="0.436" fill="none" /><path id="949" transform="matrix(1 0 0 -1 0 841)" d="M181.43 213.801L238.103 213.801" stroke="#000000" stroke-width="0.398" fill="none" /><path id="950" transform="matrix(1 0 0 -1 0 841)" d="M181.629 197.749L181.629 213.801" stroke="#000000" stroke-width="0.398" fill="none" /><path id="951" transform="matrix(1 0 0 -1 0 841)" d="M237.903 197.749L237.903 213.801" stroke="#000000" stroke-width="0.398" fill="none" /><path id="952" transform="matrix(1 0 0 -1 0 841)" d="M181.43 197.749L238.103 197.749" stroke="#000000" stroke-width="0.398" fill="none" /><path id="966" transform="matrix(1 0 0 -1 0 841)" d="M109.617 172.521L168.379 172.521" stroke="#000000" stroke-width="0.436" fill="none" /><path id="980" transform="matrix(1 0 0 -1 0 841)" d="M182.899 180.28L239.572 180.28" stroke="#000000" stroke-width="0.398" fill="none" /><path id="981" transform="matrix(1 0 0 -1 0 841)" d="M183.098 164.38L183.098 180.28" stroke="#000000" stroke-width="0.398" fill="none" /><path id="982" transform="matrix(1 0 0 -1 0 841)" d="M239.373 164.38L239.373 180.28" stroke="#000000" stroke-width="0.398" fill="none" /><path id="983" transform="matrix(1 0 0 -1 0 841)" d="M182.899 164.38L239.572 164.38" stroke="#000000" stroke-width="0.398" fill="none" /></g></g></svg>