<svg xmlns="http://www.w3.org/2000/svg" xmlns:xlink="http://www.w3.org/1999/xlink" id="body_111" preserveAspectRatio="xMinYMin meet" viewBox="0 0 793 1121"><defs><clipPath id="1"><path id="" clip-rule="evenodd" transform="matrix(1 0 0 1 0 0)" d="M0 841L0 -0.8900146L0 -0.8900146L595.276 -0.8900146L595.276 -0.8900146L595.276 841L595.276 841L0 841z" /></clipPath></defs><g transform="matrix(1.333333 0 0 1.333333 0 0)"><g clip-path="url(#1)"><path id="44" transform="matrix(1 0 0 -1 0 841)" d="M85.039 766.564L510.236 766.564" stroke="#000000" stroke-width="0.498" fill="none" /><path id="45" transform="matrix(1 0 0 -1 0 841)" d="M136.308 756.651L458.967 756.651" stroke="#000000" stroke-width="0.398" fill="none" /><path id="46" transform="matrix(1 0 0 -1 0 841)" d="M136.508 742.903L136.508 756.452" stroke="#000000" stroke-width="0.398" fill="none" /><path id="55" transform="matrix(1 0 0 -1 0 841)" d="M223.642 742.903L223.642 756.452" stroke="#000000" stroke-width="0.398" fill="none" /><path id="98" transform="matrix(1 0 0 -1 0 841)" d="M458.768 742.903L458.768 756.452" stroke="#000000" stroke-width="0.398" fill="none" /><path id="99" transform="matrix(1 0 0 -1 0 841)" d="M136.308 742.703L458.967 742.703" stroke="#000000" stroke-width="0.398" fill="none" /><path id="100" transform="matrix(1 0 0 -1 0 841)" d="M136.508 728.955L136.508 742.504" stroke="#000000" stroke-width="0.398" fill="none" /><path id="104" transform="matrix(1 0 0 -1 0 841)" d="M223.642 728.955L223.642 742.504" stroke="#000000" stroke-width="0.398" fill="none" /><path id="118" transform="matrix(1 0 0 -1 0 841)" d="M458.768 728.955L458.768 742.504" stroke="#000000" stroke-width="0.398" fill="none" /><path id="119" transform="matrix(1 0 0 -1 0 841)" d="M136.308 728.756L458.967 728.756" stroke="#000000" stroke-width="0.398" fill="none" /><path id="120" transform="matrix(1 0 0 -1 0 841)" d="M136.508 715.007L136.508 728.556" stroke="#000000" stroke-width="0.398" fill="none" /><path id="124" transform="matrix(1 0 0 -1 0 841)" d="M223.642 715.007L223.642 728.556" stroke="#000000" stroke-width="0.398" fill="none" /><path id="138" transform="matrix(1 0 0 -1 0 841)" d="M458.768 715.007L458.768 728.556" stroke="#000000" stroke-width="0.398" fill="none" /><path id="139" transform="matrix(1 0 0 -1 0 841)" d="M136.308 714.808L458.967 714.808" stroke="#000000" stroke-width="0.398" fill="none" /><path id="140" transform="matrix(1 0 0 -1 0 841)" d="M136.508 701.06L136.508 714.609" stroke="#000000" stroke-width="0.398" fill="none" /><path id="144" transform="matrix(1 0 0 -1 0 841)" d="M223.642 701.06L223.642 714.609" stroke="#000000" stroke-width="0.398" fill="none" /><path id="158" transform="matrix(1 0 0 -1 0 841)" d="M458.768 701.06L458.768 714.609" stroke="#000000" stroke-width="0.398" fill="none" /><path id="159" transform="matrix(1 0 0 -1 0 841)" d="M136.308 700.86L458.967 700.86" stroke="#000000" stroke-width="0.398" fill="none" /><path id="160" transform="matrix(1 0 0 -1 0 841)" d="M136.508 687.112L136.508 700.661" stroke="#000000" stroke-width="0.398" fill="none" /><path id="165" transform="matrix(1 0 0 -1 0 841)" d="M223.642 687.112L223.642 700.661" stroke="#000000" stroke-width="0.398" fill="none" /><path id="178" transform="matrix(1 0 0 -1 0 841)" d="M458.768 687.112L458.768 700.661" stroke="#000000" stroke-width="0.398" fill="none" /><path id="179" transform="matrix(1 0 0 -1 0 841)" d="M136.308 686.913L458.967 686.913" stroke="#000000" stroke-width="0.398" fill="none" /><path id="180" transform="matrix(1 0 0 -1 0 841)" d="M136.508 673.164L136.508 686.713" stroke="#000000" stroke-width="0.398" fill="none" /><path id="192" transform="matrix(1 0 0 -1 0 841)" d="M223.642 673.164L223.642 686.713" stroke="#000000" stroke-width="0.398" fill="none" /><path id="205" transform="matrix(1 0 0 -1 0 841)" d="M458.768 673.164L458.768 686.713" stroke="#000000" stroke-width="0.398" fill="none" /><path id="206" transform="matrix(1 0 0 -1 0 841)" d="M136.308 672.965L458.967 672.965" stroke="#000000" stroke-width="0.398" fill="none" /><path id="207" transform="matrix(1 0 0 -1 0 841)" d="M136.508 659.217L136.508 672.766" stroke="#000000" stroke-width="0.398" fill="none" /><path id="212" transform="matrix(1 0 0 -1 0 841)" d="M223.642 659.217L223.642 672.766" stroke="#000000" stroke-width="0.398" fill="none" /><path id="225" transform="matrix(1 0 0 -1 0 841)" d="M458.768 659.217L458.768 672.766" stroke="#000000" stroke-width="0.398" fill="none" /><path id="226" transform="matrix(1 0 0 -1 0 841)" d="M136.308 659.017L458.967 659.017" stroke="#000000" stroke-width="0.398" fill="none" /><path id="227" transform="matrix(1 0 0 -1 0 841)" d="M136.508 645.269L136.508 658.818" stroke="#000000" stroke-width="0.398" fill="none" /><path id="232" transform="matrix(1 0 0 -1 0 841)" d="M223.642 645.269L223.642 658.818" stroke="#000000" stroke-width="0.398" fill="none" /><path id="245" transform="matrix(1 0 0 -1 0 841)" d="M458.768 645.269L458.768 658.818" stroke="#000000" stroke-width="0.398" fill="none" /><path id="246" transform="matrix(1 0 0 -1 0 841)" d="M136.308 645.07L458.967 645.07" stroke="#000000" stroke-width="0.398" fill="none" /><path id="247" transform="matrix(1 0 0 -1 0 841)" d="M136.508 631.321L136.508 644.87" stroke="#000000" stroke-width="0.398" fill="none" /><path id="259" transform="matrix(1 0 0 -1 0 841)" d="M223.642 631.321L223.642 644.87" stroke="#000000" stroke-width="0.398" fill="none" /><path id="279" transform="matrix(1 0 0 -1 0 841)" d="M458.768 631.321L458.768 644.87" stroke="#000000" stroke-width="0.398" fill="none" /><path id="280" transform="matrix(1 0 0 -1 0 841)" d="M136.308 631.122L458.967 631.122" stroke="#000000" stroke-width="0.398" fill="none" /><path id="281" transform="matrix(1 0 0 -1 0 841)" d="M136.508 617.374L136.508 630.923" stroke="#000000" stroke-width="0.398" fill="none" /><path id="287" transform="matrix(1 0 0 -1 0 841)" d="M223.642 617.374L223.642 630.923" stroke="#000000" stroke-width="0.398" fill="none" /><path id="318" transform="matrix(1 0 0 -1 0 841)" d="M458.768 617.374L458.768 630.923" stroke="#000000" stroke-width="0.398" fill="none" /><path id="319" transform="matrix(1 0 0 -1 0 841)" d="M136.308 617.174L458.967 617.174" stroke="#000000" stroke-width="0.398" fill="none" /><path id="320" transform="matrix(1 0 0 -1 0 841)" d="M136.508 603.426L136.508 616.975" stroke="#000000" stroke-width="0.398" fill="none" /><path id="330" transform="matrix(1 0 0 -1 0 841)" d="M223.642 603.426L223.642 616.975" stroke="#000000" stroke-width="0.398" fill="none" /><path id="343" transform="matrix(1 0 0 -1 0 841)" d="M458.768 603.426L458.768 616.975" stroke="#000000" stroke-width="0.398" fill="none" /><path id="344" transform="matrix(1 0 0 -1 0 841)" d="M136.308 603.227L458.967 603.227" stroke="#000000" stroke-width="0.398" fill="none" /></g></g></svg>