<svg xmlns="http://www.w3.org/2000/svg" xmlns:xlink="http://www.w3.org/1999/xlink" id="body_276" preserveAspectRatio="xMinYMin meet" viewBox="0 0 793 1121"><defs><clipPath id="1"><path id="" clip-rule="evenodd" transform="matrix(1 0 0 1 0 0)" d="M0 841L0 -0.8900146L0 -0.8900146L595.276 -0.8900146L595.276 -0.8900146L595.276 841L595.276 841L0 841z" /></clipPath></defs><g transform="matrix(1.333333 0 0 1.333333 0 0)"><g clip-path="url(#1)"><path id="28" transform="matrix(1 0 0 -1 0 841)" d="M85.039 766.564L510.236 766.564" stroke="#000000" stroke-width="0.498" fill="none" /><path id="184" transform="matrix(1 0 0 -1 0 841)" d="M113.508 654.424L180.11 654.424" stroke="#000000" stroke-width="0.436" fill="none" /><path id="192" transform="matrix(1 0 0 -1 0 841)" d="M190.985 654.424L234.621 654.424" stroke="#000000" stroke-width="0.436" fill="none" /><path id="208" transform="matrix(1 0 0 -1 0 841)" d="M280.109 654.424L356.95 654.424" stroke="#000000" stroke-width="0.436" fill="none" /><path id="235" transform="matrix(1 0 0 -1 0 841)" d="M371.47 662.335L478.863 662.335" stroke="#000000" stroke-width="0.398" fill="none" /><path id="236" transform="matrix(1 0 0 -1 0 841)" d="M371.67 646.283L371.67 662.335" stroke="#000000" stroke-width="0.398" fill="none" /><path id="237" transform="matrix(1 0 0 -1 0 841)" d="M478.664 646.283L478.664 662.335" stroke="#000000" stroke-width="0.398" fill="none" /><path id="238" transform="matrix(1 0 0 -1 0 841)" d="M371.47 646.283L478.863 646.283" stroke="#000000" stroke-width="0.398" fill="none" /><path id="279" transform="matrix(1 0 0 -1 0 841)" d="M173.414 595.397L192.799 595.397" stroke="#000000" stroke-width="0.436" fill="none" /><path id="299" transform="matrix(1 0 0 -1 0 841)" d="M207.319 603.368L308.298 603.368" stroke="#000000" stroke-width="0.398" fill="none" /><path id="300" transform="matrix(1 0 0 -1 0 841)" d="M207.518 587.256L207.518 603.368" stroke="#000000" stroke-width="0.398" fill="none" /><path id="301" transform="matrix(1 0 0 -1 0 841)" d="M308.098 587.256L308.098 603.368" stroke="#000000" stroke-width="0.398" fill="none" /><path id="302" transform="matrix(1 0 0 -1 0 841)" d="M207.319 587.256L308.298 587.256" stroke="#000000" stroke-width="0.398" fill="none" /><path id="447" transform="matrix(1 0 0 -1 0 841)" d="M186.124 499.305L257.511 499.305" stroke="#000000" stroke-width="0.436" fill="none" /><g transform="matrix(0.06 0 0 0.06 112.312 366.522)"><g transform="matrix(1 0 0 1 0 0)"><image x="0" y="0" xlink:href="img_412.png" width="3009" height="713" /></g></g><path id="598" transform="matrix(1 0 0 -1 0 841)" d="M158.147 354.236L325.891 354.236" stroke="#000000" stroke-width="0.436" fill="none" /><path id="633" transform="matrix(1 0 0 -1 0 841)" d="M341.607 354.236L383.408 354.236" stroke="#000000" stroke-width="0.436" fill="none" /><path id="649" transform="matrix(1 0 0 -1 0 841)" d="M397.928 361.995L439.001 361.995" stroke="#000000" stroke-width="0.398" fill="none" /><path id="650" transform="matrix(1 0 0 -1 0 841)" d="M398.128 346.096L398.128 361.996" stroke="#000000" stroke-width="0.398" fill="none" /><path id="651" transform="matrix(1 0 0 -1 0 841)" d="M438.802 346.096L438.802 361.996" stroke="#000000" stroke-width="0.398" fill="none" /><path id="652" transform="matrix(1 0 0 -1 0 841)" d="M397.928 346.096L439.001 346.096" stroke="#000000" stroke-width="0.398" fill="none" /></g></g></svg>