<svg xmlns="http://www.w3.org/2000/svg" xmlns:xlink="http://www.w3.org/1999/xlink" id="body_5" preserveAspectRatio="xMinYMin meet" viewBox="0 0 793 1121"><defs><clipPath id="1"><path id="" clip-rule="evenodd" transform="matrix(1 0 0 1 0 0)" d="M0 841L0 -0.8900146L0 -0.8900146L595.276 -0.8900146L595.276 -0.8900146L595.276 841L595.276 841L0 841z" /></clipPath></defs><g transform="matrix(1.333333 0 0 1.333333 0 0)"><g clip-path="url(#1)"><path id="74" transform="matrix(1 0 0 -1 0 841)" d="M85.039 692.657L115.07 692.657L115.07 712.499L85.039 712.499z" stroke="none" fill="#FDE0D1" fill-rule="nonzero" /><path id="76" transform="matrix(1 0 0 -1 0 841)" d="M119.055 692.657L510.236 692.657L510.236 712.499L119.055 712.499z" stroke="none" fill="#FAC2A3" fill-rule="nonzero" /><path id="1824" transform="matrix(1 0 0 -1 0 841)" d="M85.039 132.778L115.07 132.778L115.07 152.62L85.039 152.62z" stroke="none" fill="#FDE0D1" fill-rule="nonzero" /><path id="1827" transform="matrix(1 0 0 -1 0 841)" d="M119.055 132.778L510.236 132.778L510.236 152.62L119.055 152.62z" stroke="none" fill="#FAC2A3" fill-rule="nonzero" /></g></g></svg>