<svg xmlns="http://www.w3.org/2000/svg" xmlns:xlink="http://www.w3.org/1999/xlink" id="body_137" preserveAspectRatio="xMinYMin meet" viewBox="0 0 793 1121"><defs><clipPath id="1"><path id="" clip-rule="evenodd" transform="matrix(1 0 0 1 0 0)" d="M0 841L0 -0.8900146L0 -0.8900146L595.276 -0.8900146L595.276 -0.8900146L595.276 841L595.276 841L0 841z" /></clipPath></defs><g transform="matrix(1.333333 0 0 1.333333 0 0)"><g clip-path="url(#1)"><path id="27" transform="matrix(1 0 0 -1 0 841)" d="M85.039 766.564L510.236 766.564" stroke="#000000" stroke-width="0.498" fill="none" /><path id="1015" transform="matrix(1 0 0 -1 0 841)" d="M85.039 382.329L323.229 382.329" stroke="#000000" stroke-width="0.398" fill="none" /><path id="1016" transform="matrix(1 0 0 -1 0 841)" d="M85.239 368.581L85.239 382.13" stroke="#000000" stroke-width="0.398" fill="none" /><path id="1025" transform="matrix(1 0 0 -1 0 841)" d="M147.272 368.581L147.272 382.13" stroke="#000000" stroke-width="0.398" fill="none" /><path id="1057" transform="matrix(1 0 0 -1 0 841)" d="M323.031 368.581L323.031 382.13" stroke="#000000" stroke-width="0.398" fill="none" /><path id="1058" transform="matrix(1 0 0 -1 0 841)" d="M85.039 368.382L323.229 368.382" stroke="#000000" stroke-width="0.398" fill="none" /><path id="1059" transform="matrix(1 0 0 -1 0 841)" d="M85.239 354.633L85.239 368.182" stroke="#000000" stroke-width="0.398" fill="none" /><path id="1068" transform="matrix(1 0 0 -1 0 841)" d="M147.272 354.633L147.272 368.182" stroke="#000000" stroke-width="0.398" fill="none" /><path id="1071" transform="matrix(1 0 0 -1 0 841)" d="M323.031 354.633L323.031 368.182" stroke="#000000" stroke-width="0.398" fill="none" /><path id="1072" transform="matrix(1 0 0 -1 0 841)" d="M85.039 354.434L323.229 354.434" stroke="#000000" stroke-width="0.398" fill="none" /><path id="1073" transform="matrix(1 0 0 -1 0 841)" d="M85.239 340.685L85.239 354.234" stroke="#000000" stroke-width="0.398" fill="none" /><path id="1082" transform="matrix(1 0 0 -1 0 841)" d="M147.272 340.685L147.272 354.234" stroke="#000000" stroke-width="0.398" fill="none" /><path id="1086" transform="matrix(1 0 0 -1 0 841)" d="M323.031 340.685L323.031 354.234" stroke="#000000" stroke-width="0.398" fill="none" /><path id="1087" transform="matrix(1 0 0 -1 0 841)" d="M85.039 340.486L323.229 340.486" stroke="#000000" stroke-width="0.398" fill="none" /><path id="1088" transform="matrix(1 0 0 -1 0 841)" d="M85.239 326.738L85.239 340.287" stroke="#000000" stroke-width="0.398" fill="none" /><path id="1096" transform="matrix(1 0 0 -1 0 841)" d="M147.272 326.738L147.272 340.287" stroke="#000000" stroke-width="0.398" fill="none" /><path id="1111" transform="matrix(1 0 0 -1 0 841)" d="M323.031 326.738L323.031 340.287" stroke="#000000" stroke-width="0.398" fill="none" /><path id="1112" transform="matrix(1 0 0 -1 0 841)" d="M85.039 326.539L323.229 326.539" stroke="#000000" stroke-width="0.398" fill="none" /><path id="1113" transform="matrix(1 0 0 -1 0 841)" d="M85.239 312.79L85.239 326.339" stroke="#000000" stroke-width="0.398" fill="none" /><path id="1122" transform="matrix(1 0 0 -1 0 841)" d="M147.272 312.79L147.272 326.339" stroke="#000000" stroke-width="0.398" fill="none" /><path id="1128" transform="matrix(1 0 0 -1 0 841)" d="M323.031 312.79L323.031 326.339" stroke="#000000" stroke-width="0.398" fill="none" /><path id="1129" transform="matrix(1 0 0 -1 0 841)" d="M85.039 312.591L323.229 312.591" stroke="#000000" stroke-width="0.398" fill="none" /><path id="1130" transform="matrix(1 0 0 -1 0 841)" d="M85.239 298.842L85.239 312.391" stroke="#000000" stroke-width="0.398" fill="none" /><path id="1137" transform="matrix(1 0 0 -1 0 841)" d="M147.272 298.842L147.272 312.391" stroke="#000000" stroke-width="0.398" fill="none" /><path id="1145" transform="matrix(1 0 0 -1 0 841)" d="M323.031 298.842L323.031 312.391" stroke="#000000" stroke-width="0.398" fill="none" /><path id="1146" transform="matrix(1 0 0 -1 0 841)" d="M85.039 298.643L323.229 298.643" stroke="#000000" stroke-width="0.398" fill="none" /><path id="1147" transform="matrix(1 0 0 -1 0 841)" d="M85.239 284.895L85.239 298.444" stroke="#000000" stroke-width="0.398" fill="none" /><path id="1157" transform="matrix(1 0 0 -1 0 841)" d="M147.272 284.895L147.272 298.444" stroke="#000000" stroke-width="0.398" fill="none" /><path id="1167" transform="matrix(1 0 0 -1 0 841)" d="M323.031 284.895L323.031 298.444" stroke="#000000" stroke-width="0.398" fill="none" /><path id="1168" transform="matrix(1 0 0 -1 0 841)" d="M85.039 284.695L323.229 284.695" stroke="#000000" stroke-width="0.398" fill="none" /><path id="1169" transform="matrix(1 0 0 -1 0 841)" d="M85.239 270.947L85.239 284.496" stroke="#000000" stroke-width="0.398" fill="none" /><path id="1177" transform="matrix(1 0 0 -1 0 841)" d="M147.272 270.947L147.272 284.496" stroke="#000000" stroke-width="0.398" fill="none" /><path id="1185" transform="matrix(1 0 0 -1 0 841)" d="M323.031 270.947L323.031 284.496" stroke="#000000" stroke-width="0.398" fill="none" /><path id="1186" transform="matrix(1 0 0 -1 0 841)" d="M85.039 270.748L323.229 270.748" stroke="#000000" stroke-width="0.398" fill="none" /><path id="1187" transform="matrix(1 0 0 -1 0 841)" d="M85.239 256.999L85.239 270.548" stroke="#000000" stroke-width="0.398" fill="none" /><path id="1196" transform="matrix(1 0 0 -1 0 841)" d="M147.272 256.999L147.272 270.548" stroke="#000000" stroke-width="0.398" fill="none" /><path id="1205" transform="matrix(1 0 0 -1 0 841)" d="M323.031 256.999L323.031 270.548" stroke="#000000" stroke-width="0.398" fill="none" /><path id="1206" transform="matrix(1 0 0 -1 0 841)" d="M85.039 256.8L323.229 256.8" stroke="#000000" stroke-width="0.398" fill="none" /><path id="1207" transform="matrix(1 0 0 -1 0 841)" d="M85.239 243.052L85.239 256.601" stroke="#000000" stroke-width="0.398" fill="none" /><path id="1215" transform="matrix(1 0 0 -1 0 841)" d="M147.272 243.052L147.272 256.601" stroke="#000000" stroke-width="0.398" fill="none" /><path id="1222" transform="matrix(1 0 0 -1 0 841)" d="M323.031 243.052L323.031 256.601" stroke="#000000" stroke-width="0.398" fill="none" /><path id="1223" transform="matrix(1 0 0 -1 0 841)" d="M85.039 242.852L323.229 242.852" stroke="#000000" stroke-width="0.398" fill="none" /><path id="1224" transform="matrix(1 0 0 -1 0 841)" d="M85.239 229.104L85.239 242.653" stroke="#000000" stroke-width="0.398" fill="none" /><path id="1233" transform="matrix(1 0 0 -1 0 841)" d="M147.272 229.104L147.272 242.653" stroke="#000000" stroke-width="0.398" fill="none" /><path id="1235" transform="matrix(1 0 0 -1 0 841)" d="M323.031 229.104L323.031 242.653" stroke="#000000" stroke-width="0.398" fill="none" /><path id="1236" transform="matrix(1 0 0 -1 0 841)" d="M85.039 228.905L323.229 228.905" stroke="#000000" stroke-width="0.398" fill="none" /><path id="1237" transform="matrix(1 0 0 -1 0 841)" d="M85.239 215.156L85.239 228.705" stroke="#000000" stroke-width="0.398" fill="none" /><path id="1245" transform="matrix(1 0 0 -1 0 841)" d="M147.272 215.156L147.272 228.705" stroke="#000000" stroke-width="0.398" fill="none" /><path id="1256" transform="matrix(1 0 0 -1 0 841)" d="M323.031 215.156L323.031 228.705" stroke="#000000" stroke-width="0.398" fill="none" /><path id="1257" transform="matrix(1 0 0 -1 0 841)" d="M85.039 214.957L323.229 214.957" stroke="#000000" stroke-width="0.398" fill="none" /><path id="1258" transform="matrix(1 0 0 -1 0 841)" d="M85.239 201.209L85.239 214.758" stroke="#000000" stroke-width="0.398" fill="none" /><path id="1265" transform="matrix(1 0 0 -1 0 841)" d="M147.272 201.209L147.272 214.758" stroke="#000000" stroke-width="0.398" fill="none" /><path id="1271" transform="matrix(1 0 0 -1 0 841)" d="M323.031 201.209L323.031 214.758" stroke="#000000" stroke-width="0.398" fill="none" /><path id="1272" transform="matrix(1 0 0 -1 0 841)" d="M85.039 201.009L323.229 201.009" stroke="#000000" stroke-width="0.398" fill="none" /><path id="1273" transform="matrix(1 0 0 -1 0 841)" d="M85.239 187.261L85.239 200.81" stroke="#000000" stroke-width="0.398" fill="none" /><path id="1281" transform="matrix(1 0 0 -1 0 841)" d="M147.272 187.261L147.272 200.81" stroke="#000000" stroke-width="0.398" fill="none" /><path id="1287" transform="matrix(1 0 0 -1 0 841)" d="M323.031 187.261L323.031 200.81" stroke="#000000" stroke-width="0.398" fill="none" /><path id="1288" transform="matrix(1 0 0 -1 0 841)" d="M85.039 187.062L323.229 187.062" stroke="#000000" stroke-width="0.398" fill="none" /><path id="1289" transform="matrix(1 0 0 -1 0 841)" d="M85.239 173.313L85.239 186.862" stroke="#000000" stroke-width="0.398" fill="none" /><path id="1297" transform="matrix(1 0 0 -1 0 841)" d="M147.272 173.313L147.272 186.862" stroke="#000000" stroke-width="0.398" fill="none" /><path id="1301" transform="matrix(1 0 0 -1 0 841)" d="M323.031 173.313L323.031 186.862" stroke="#000000" stroke-width="0.398" fill="none" /><path id="1302" transform="matrix(1 0 0 -1 0 841)" d="M85.039 173.114L323.229 173.114" stroke="#000000" stroke-width="0.398" fill="none" /><path id="1303" transform="matrix(1 0 0 -1 0 841)" d="M85.239 159.366L85.239 172.915" stroke="#000000" stroke-width="0.398" fill="none" /><path id="1315" transform="matrix(1 0 0 -1 0 841)" d="M147.272 159.366L147.272 172.915" stroke="#000000" stroke-width="0.398" fill="none" /><path id="1320" transform="matrix(1 0 0 -1 0 841)" d="M323.031 159.366L323.031 172.915" stroke="#000000" stroke-width="0.398" fill="none" /><path id="1321" transform="matrix(1 0 0 -1 0 841)" d="M85.039 159.166L323.229 159.166" stroke="#000000" stroke-width="0.398" fill="none" /><path id="1322" transform="matrix(1 0 0 -1 0 841)" d="M85.239 145.418L85.239 158.967" stroke="#000000" stroke-width="0.398" fill="none" /><path id="1331" transform="matrix(1 0 0 -1 0 841)" d="M147.272 145.418L147.272 158.967" stroke="#000000" stroke-width="0.398" fill="none" /><path id="1342" transform="matrix(1 0 0 -1 0 841)" d="M323.031 145.418L323.031 158.967" stroke="#000000" stroke-width="0.398" fill="none" /><path id="1343" transform="matrix(1 0 0 -1 0 841)" d="M85.039 145.219L323.229 145.219" stroke="#000000" stroke-width="0.398" fill="none" /><path id="1344" transform="matrix(1 0 0 -1 0 841)" d="M85.239 131.47L85.239 145.019" stroke="#000000" stroke-width="0.398" fill="none" /><path id="1353" transform="matrix(1 0 0 -1 0 841)" d="M147.272 131.47L147.272 145.019" stroke="#000000" stroke-width="0.398" fill="none" /><path id="1357" transform="matrix(1 0 0 -1 0 841)" d="M323.031 131.47L323.031 145.019" stroke="#000000" stroke-width="0.398" fill="none" /><path id="1358" transform="matrix(1 0 0 -1 0 841)" d="M85.039 131.271L323.229 131.271" stroke="#000000" stroke-width="0.398" fill="none" /></g></g></svg>