<svg xmlns="http://www.w3.org/2000/svg" xmlns:xlink="http://www.w3.org/1999/xlink" id="body_186" preserveAspectRatio="xMinYMin meet" viewBox="0 0 793 1121"><defs><clipPath id="1"><path id="" clip-rule="evenodd" transform="matrix(1 0 0 1 0 0)" d="M0 841L0 -0.8900146L0 -0.8900146L595.276 -0.8900146L595.276 -0.8900146L595.276 841L595.276 841L0 841z" /></clipPath></defs><g transform="matrix(1.333333 0 0 1.333333 0 0)"><g clip-path="url(#1)"><path id="23" transform="matrix(1 0 0 -1 0 841)" d="M85.039 766.564L510.236 766.564" stroke="#000000" stroke-width="0.498" fill="none" /><path id="398" transform="matrix(1 0 0 -1 0 841)" d="M113.169 636.273L200.549 636.273" stroke="#000000" stroke-width="0.436" fill="none" /><path id="442" transform="matrix(1 0 0 -1 0 841)" d="M266.867 636.273L365.156 636.273" stroke="#000000" stroke-width="0.436" fill="none" /><path id="608" transform="matrix(1 0 0 -1 0 841)" d="M434.9808 504.095L349.9404 504.095L349.9404 504.095L349.9404 419.0545L349.9404 419.0545L434.9808 419.0545z" stroke="#000000" stroke-width="0.3985" fill="none" /><path id="609" transform="matrix(1 0 0 -1 0 841)" d="M434.9808 504.095L467.7209 536.8351L467.7209 536.8351L467.7209 451.7946L467.7209 451.7946L434.9808 419.0545z" stroke="#000000" stroke-width="0.3985" fill="none" /><path id="610" transform="matrix(1 0 0 -1 0 841)" d="M434.9808 504.095L349.9404 504.095L349.9404 504.095L382.6805 536.8351L382.6805 536.8351L467.7209 536.8351z" stroke="#000000" stroke-width="0.3985" fill="none" /><path id="638" transform="matrix(1 0 0 -1 0 841)" d="M159.053 530.5209L182.495 530.5209" stroke="#000000" stroke-width="0.398" fill="none" /><path id="687" transform="matrix(1 0 0 -1 0 841)" d="M215.545 476.466L265.388 476.466" stroke="#000000" stroke-width="0.398" fill="none" /><g transform="matrix(0.2 0 0 0.2 164.54 534.561)"><g transform="matrix(1 0 0 1 0 0)"><image x="0" y="0" xlink:href="img_270.png" width="1331" height="580" /></g></g></g></g></svg>