<svg xmlns="http://www.w3.org/2000/svg" xmlns:xlink="http://www.w3.org/1999/xlink" id="body_71" preserveAspectRatio="xMinYMin meet" viewBox="0 0 793 1121"><defs><clipPath id="1"><path id="" clip-rule="evenodd" transform="matrix(1 0 0 1 0 0)" d="M0 841L0 -0.8900146L0 -0.8900146L595.276 -0.8900146L595.276 -0.8900146L595.276 841L595.276 841L0 841z" /></clipPath></defs><g transform="matrix(1.333333 0 0 1.333333 0 0)"><g clip-path="url(#1)"><path id="31" transform="matrix(1 0 0 -1 0 841)" d="M85.039 766.564L510.236 766.564" stroke="#000000" stroke-width="0.498" fill="none" /><path id="1385" transform="matrix(1 0 0 -1 0 841)" d="M237.249 383.779L513.682 383.779" stroke="#000000" stroke-width="0.436" fill="none" /><path id="1407" transform="matrix(1 0 0 -1 0 841)" d="M112.312 366.842L232.278 366.842" stroke="#000000" stroke-width="0.436" fill="none" /><path id="1492" transform="matrix(1 0 0 -1 0 841)" d="M342.284 335.222L460.134 335.222" stroke="#000000" stroke-width="0.436" fill="none" /><path id="1568" transform="matrix(1 0 0 -1 0 841)" d="M112.312 316.033L504.566 316.033" stroke="#000000" stroke-width="0.436" fill="none" /><path id="1627" transform="matrix(1 0 0 -1 0 841)" d="M309.764 299.096L386.88 299.096" stroke="#000000" stroke-width="0.436" fill="none" /><path id="1803" transform="matrix(1 0 0 -1 0 841)" d="M228.688 248.287L520.383 248.287" stroke="#000000" stroke-width="0.436" fill="none" /><path id="1881" transform="matrix(1 0 0 -1 0 841)" d="M112.312 231.35L523.765 231.35" stroke="#000000" stroke-width="0.436" fill="none" /></g></g></svg>