<svg xmlns="http://www.w3.org/2000/svg" xmlns:xlink="http://www.w3.org/1999/xlink" id="body_276" preserveAspectRatio="xMinYMin meet" viewBox="0 0 793 1121"><defs><clipPath id="1"><path id="" clip-rule="evenodd" transform="matrix(1 0 0 1 0 0)" d="M0 841L0 -0.8900146L0 -0.8900146L595.276 -0.8900146L595.276 -0.8900146L595.276 841L595.276 841L0 841z" /></clipPath></defs><g transform="matrix(1.333333 0 0 1.333333 0 0)"><g clip-path="url(#1)"><path id="23" transform="matrix(1 0 0 -1 0 841)" d="M85.039 766.564L510.236 766.564" stroke="#000000" stroke-width="0.498" fill="none" /><path id="856" transform="matrix(1 0 0 -1 0 841)" d="M141.067 295.56L167.119 295.56" stroke="#000000" stroke-width="0.436" fill="none" /><path id="868" transform="matrix(1 0 0 -1 0 841)" d="M181.639 303.472L238.312 303.472" stroke="#000000" stroke-width="0.398" fill="none" /><path id="869" transform="matrix(1 0 0 -1 0 841)" d="M181.838 287.42L181.838 303.472" stroke="#000000" stroke-width="0.398" fill="none" /><path id="870" transform="matrix(1 0 0 -1 0 841)" d="M238.112 287.42L238.112 303.472" stroke="#000000" stroke-width="0.398" fill="none" /><path id="871" transform="matrix(1 0 0 -1 0 841)" d="M181.639 287.42L238.312 287.42" stroke="#000000" stroke-width="0.398" fill="none" /><path id="998" transform="matrix(1 0 0 -1 0 841)" d="M144.86 199.359L210.805 199.359" stroke="#000000" stroke-width="0.436" fill="none" /><path id="1056" transform="matrix(1 0 0 -1 0 841)" d="M140.875 146.576L194.182 146.576" stroke="#000000" stroke-width="0.436" fill="none" /><path id="1070" transform="matrix(1 0 0 -1 0 841)" d="M208.703 154.488L265.376 154.488" stroke="#000000" stroke-width="0.398" fill="none" /><path id="1071" transform="matrix(1 0 0 -1 0 841)" d="M208.902 138.436L208.902 154.488" stroke="#000000" stroke-width="0.398" fill="none" /><path id="1072" transform="matrix(1 0 0 -1 0 841)" d="M265.176 138.436L265.176 154.488" stroke="#000000" stroke-width="0.398" fill="none" /><path id="1073" transform="matrix(1 0 0 -1 0 841)" d="M208.703 138.436L265.376 138.436" stroke="#000000" stroke-width="0.398" fill="none" /><path id="1087" transform="matrix(1 0 0 -1 0 841)" d="M136.89 113.207L195.652 113.207" stroke="#000000" stroke-width="0.436" fill="none" /><path id="1101" transform="matrix(1 0 0 -1 0 841)" d="M210.172 120.966L266.845 120.966" stroke="#000000" stroke-width="0.398" fill="none" /><path id="1102" transform="matrix(1 0 0 -1 0 841)" d="M210.371 105.066L210.371 120.966" stroke="#000000" stroke-width="0.398" fill="none" /><path id="1103" transform="matrix(1 0 0 -1 0 841)" d="M266.645 105.066L266.645 120.966" stroke="#000000" stroke-width="0.398" fill="none" /><path id="1104" transform="matrix(1 0 0 -1 0 841)" d="M210.172 105.066L266.845 105.066" stroke="#000000" stroke-width="0.398" fill="none" /></g></g></svg>