<svg xmlns="http://www.w3.org/2000/svg" xmlns:xlink="http://www.w3.org/1999/xlink" id="body_284" preserveAspectRatio="xMinYMin meet" viewBox="0 0 793 1121"><defs><clipPath id="1"><path id="" clip-rule="evenodd" transform="matrix(1 0 0 1 0 0)" d="M0 841L0 -0.8900146L0 -0.8900146L595.276 -0.8900146L595.276 -0.8900146L595.276 841L595.276 841L0 841z" /></clipPath></defs><g transform="matrix(1.333333 0 0 1.333333 0 0)"><g clip-path="url(#1)"><path id="23" transform="matrix(1 0 0 -1 0 841)" d="M85.039 766.564L510.236 766.564" stroke="#000000" stroke-width="0.498" fill="none" /><path id="395" transform="matrix(1 0 0 -1 0 841)" d="M86.235 497.82L97.144 497.82" stroke="#000000" stroke-width="0.436" fill="none" /><path id="547" transform="matrix(1 0 0 -1 0 841)" d="M228.562 413.138L242.493 413.138" stroke="#000000" stroke-width="0.436" fill="none" /><g transform="matrix(0.375 0 0 0.375 156.451 483.336)"><g transform="matrix(1 0 0 1 0 0)"><image x="0" y="0" xlink:href="img_424.png" width="753" height="727" /></g></g></g></g></svg>