<svg xmlns="http://www.w3.org/2000/svg" xmlns:xlink="http://www.w3.org/1999/xlink" id="body_279" preserveAspectRatio="xMinYMin meet" viewBox="0 0 793 1121"><defs><clipPath id="1"><path id="" clip-rule="evenodd" transform="matrix(1 0 0 1 0 0)" d="M0 841L0 -0.8900146L0 -0.8900146L595.276 -0.8900146L595.276 -0.8900146L595.276 841L595.276 841L0 841z" /></clipPath></defs><g transform="matrix(1.333333 0 0 1.333333 0 0)"><g clip-path="url(#1)"><path id="23" transform="matrix(1 0 0 -1 0 841)" d="M85.039 766.564L510.236 766.564" stroke="#000000" stroke-width="0.498" fill="none" /><path id="39" transform="matrix(1 0 0 -1 0 841)" d="M158.147 744.894L325.891 744.894" stroke="#000000" stroke-width="0.436" fill="none" /><path id="74" transform="matrix(1 0 0 -1 0 841)" d="M341.607 744.894L383.408 744.894" stroke="#000000" stroke-width="0.436" fill="none" /><path id="90" transform="matrix(1 0 0 -1 0 841)" d="M397.928 752.653L439.001 752.653" stroke="#000000" stroke-width="0.398" fill="none" /><path id="91" transform="matrix(1 0 0 -1 0 841)" d="M398.128 736.754L398.128 752.6541" stroke="#000000" stroke-width="0.398" fill="none" /><path id="92" transform="matrix(1 0 0 -1 0 841)" d="M438.802 736.754L438.802 752.6541" stroke="#000000" stroke-width="0.398" fill="none" /><path id="93" transform="matrix(1 0 0 -1 0 841)" d="M397.928 736.754L439.001 736.754" stroke="#000000" stroke-width="0.398" fill="none" /><g transform="matrix(0.5 0 0 0.5 161.512 153.655)"><g transform="matrix(1 0 0 1 0 0)"><image x="0" y="0" xlink:href="img_413.png" width="278" height="281" /></g></g><g transform="matrix(0.45 0 0 0.45 334.313 161.405)"><g transform="matrix(1 0 0 1 0 0)"><image x="0" y="0" xlink:href="img_414.png" width="221" height="295" /></g></g></g></g></svg>