<svg xmlns="http://www.w3.org/2000/svg" xmlns:xlink="http://www.w3.org/1999/xlink" id="body_105" preserveAspectRatio="xMinYMin meet" viewBox="0 0 793 1121"><defs><clipPath id="1"><path id="" clip-rule="evenodd" transform="matrix(1 0 0 1 0 0)" d="M0 841L0 -0.8900146L0 -0.8900146L595.276 -0.8900146L595.276 -0.8900146L595.276 841L595.276 841L0 841z" /></clipPath></defs><g transform="matrix(1.333333 0 0 1.333333 0 0)"><g clip-path="url(#1)"><path id="44" transform="matrix(1 0 0 -1 0 841)" d="M85.039 766.564L510.236 766.564" stroke="#000000" stroke-width="0.498" fill="none" /><path id="45" transform="matrix(1 0 0 -1 0 841)" d="M85.039 703.286L501.537 703.286" stroke="#000000" stroke-width="0.398" fill="none" /><path id="46" transform="matrix(1 0 0 -1 0 841)" d="M85.239 689.538L85.239 703.087" stroke="#000000" stroke-width="0.398" fill="none" /><path id="57" transform="matrix(1 0 0 -1 0 841)" d="M501.338 689.538L501.338 703.087" stroke="#000000" stroke-width="0.398" fill="none" /><path id="58" transform="matrix(1 0 0 -1 0 841)" d="M85.039 689.338L501.537 689.338" stroke="#000000" stroke-width="0.398" fill="none" /><path id="59" transform="matrix(1 0 0 -1 0 841)" d="M85.239 634.942L85.239 689.139" stroke="#000000" stroke-width="0.398" fill="none" /><path id="60" transform="matrix(1 0 0 -1 0 841)" d="M168.458 634.942L168.458 689.139" stroke="#000000" stroke-width="0.398" fill="none" /><path id="71" transform="matrix(1 0 0 -1 0 841)" d="M251.678 634.942L251.678 689.139" stroke="#000000" stroke-width="0.398" fill="none" /><path id="87" transform="matrix(1 0 0 -1 0 841)" d="M334.898 634.942L334.898 689.139" stroke="#000000" stroke-width="0.398" fill="none" /><path id="115" transform="matrix(1 0 0 -1 0 841)" d="M418.118 634.942L418.118 689.139" stroke="#000000" stroke-width="0.398" fill="none" /><path id="152" transform="matrix(1 0 0 -1 0 841)" d="M501.338 634.942L501.338 689.139" stroke="#000000" stroke-width="0.398" fill="none" /><path id="153" transform="matrix(1 0 0 -1 0 841)" d="M85.039 634.743L501.537 634.743" stroke="#000000" stroke-width="0.398" fill="none" /><path id="154" transform="matrix(1 0 0 -1 0 841)" d="M85.239 607.445L85.239 634.543" stroke="#000000" stroke-width="0.398" fill="none" /><path id="167" transform="matrix(1 0 0 -1 0 841)" d="M168.458 607.445L168.458 634.543" stroke="#000000" stroke-width="0.398" fill="none" /><path id="184" transform="matrix(1 0 0 -1 0 841)" d="M251.678 607.445L251.678 634.543" stroke="#000000" stroke-width="0.398" fill="none" /><path id="191" transform="matrix(1 0 0 -1 0 841)" d="M334.898 607.445L334.898 634.543" stroke="#000000" stroke-width="0.398" fill="none" /><path id="198" transform="matrix(1 0 0 -1 0 841)" d="M418.118 607.445L418.118 634.543" stroke="#000000" stroke-width="0.398" fill="none" /><path id="219" transform="matrix(1 0 0 -1 0 841)" d="M501.338 607.445L501.338 634.543" stroke="#000000" stroke-width="0.398" fill="none" /><path id="220" transform="matrix(1 0 0 -1 0 841)" d="M85.039 607.246L501.537 607.246" stroke="#000000" stroke-width="0.398" fill="none" /><path id="221" transform="matrix(1 0 0 -1 0 841)" d="M85.239 579.949L85.239 607.047" stroke="#000000" stroke-width="0.398" fill="none" /><path id="233" transform="matrix(1 0 0 -1 0 841)" d="M168.458 579.949L168.458 607.047" stroke="#000000" stroke-width="0.398" fill="none" /><path id="250" transform="matrix(1 0 0 -1 0 841)" d="M251.678 579.949L251.678 607.047" stroke="#000000" stroke-width="0.398" fill="none" /><path id="260" transform="matrix(1 0 0 -1 0 841)" d="M334.898 579.949L334.898 607.047" stroke="#000000" stroke-width="0.398" fill="none" /><path id="270" transform="matrix(1 0 0 -1 0 841)" d="M418.118 579.949L418.118 607.047" stroke="#000000" stroke-width="0.398" fill="none" /><path id="291" transform="matrix(1 0 0 -1 0 841)" d="M501.338 579.949L501.338 607.047" stroke="#000000" stroke-width="0.398" fill="none" /><path id="292" transform="matrix(1 0 0 -1 0 841)" d="M85.039 579.749L501.537 579.749" stroke="#000000" stroke-width="0.398" fill="none" /><path id="293" transform="matrix(1 0 0 -1 0 841)" d="M85.039 578.355L499.718 578.355" stroke="#000000" stroke-width="0.398" fill="none" /><path id="294" transform="matrix(1 0 0 -1 0 841)" d="M85.239 564.606L85.239 578.155" stroke="#000000" stroke-width="0.398" fill="none" /><path id="325" transform="matrix(1 0 0 -1 0 841)" d="M499.519 564.606L499.519 578.155" stroke="#000000" stroke-width="0.398" fill="none" /><path id="326" transform="matrix(1 0 0 -1 0 841)" d="M85.039 564.407L499.718 564.407" stroke="#000000" stroke-width="0.398" fill="none" /><path id="327" transform="matrix(1 0 0 -1 0 841)" d="M85.239 510.011L85.239 564.208" stroke="#000000" stroke-width="0.398" fill="none" /><path id="328" transform="matrix(1 0 0 -1 0 841)" d="M140.112 510.011L140.112 564.208" stroke="#000000" stroke-width="0.398" fill="none" /><path id="360" transform="matrix(1 0 0 -1 0 841)" d="M211.993 510.011L211.993 564.208" stroke="#000000" stroke-width="0.398" fill="none" /><path id="379" transform="matrix(1 0 0 -1 0 841)" d="M283.875 510.011L283.875 564.208" stroke="#000000" stroke-width="0.398" fill="none" /><path id="418" transform="matrix(1 0 0 -1 0 841)" d="M355.756 510.011L355.756 564.208" stroke="#000000" stroke-width="0.398" fill="none" /><path id="446" transform="matrix(1 0 0 -1 0 841)" d="M427.638 510.011L427.638 564.208" stroke="#000000" stroke-width="0.398" fill="none" /><path id="484" transform="matrix(1 0 0 -1 0 841)" d="M499.519 510.011L499.519 564.208" stroke="#000000" stroke-width="0.398" fill="none" /><path id="485" transform="matrix(1 0 0 -1 0 841)" d="M85.039 509.812L499.718 509.812" stroke="#000000" stroke-width="0.398" fill="none" /><path id="486" transform="matrix(1 0 0 -1 0 841)" d="M85.239 482.514L85.239 509.612" stroke="#000000" stroke-width="0.398" fill="none" /><path id="499" transform="matrix(1 0 0 -1 0 841)" d="M140.112 482.514L140.112 509.612" stroke="#000000" stroke-width="0.398" fill="none" /><path id="516" transform="matrix(1 0 0 -1 0 841)" d="M211.993 482.514L211.993 509.612" stroke="#000000" stroke-width="0.398" fill="none" /><path id="523" transform="matrix(1 0 0 -1 0 841)" d="M283.875 482.514L283.875 509.612" stroke="#000000" stroke-width="0.398" fill="none" /><path id="533" transform="matrix(1 0 0 -1 0 841)" d="M355.756 482.514L355.756 509.612" stroke="#000000" stroke-width="0.398" fill="none" /><path id="540" transform="matrix(1 0 0 -1 0 841)" d="M427.638 482.514L427.638 509.612" stroke="#000000" stroke-width="0.398" fill="none" /><path id="550" transform="matrix(1 0 0 -1 0 841)" d="M499.519 482.514L499.519 509.612" stroke="#000000" stroke-width="0.398" fill="none" /><path id="551" transform="matrix(1 0 0 -1 0 841)" d="M85.039 482.315L499.718 482.315" stroke="#000000" stroke-width="0.398" fill="none" /><path id="552" transform="matrix(1 0 0 -1 0 841)" d="M85.239 455.017L85.239 482.115" stroke="#000000" stroke-width="0.398" fill="none" /><path id="564" transform="matrix(1 0 0 -1 0 841)" d="M140.112 455.017L140.112 482.115" stroke="#000000" stroke-width="0.398" fill="none" /><path id="581" transform="matrix(1 0 0 -1 0 841)" d="M211.993 455.017L211.993 482.115" stroke="#000000" stroke-width="0.398" fill="none" /><path id="588" transform="matrix(1 0 0 -1 0 841)" d="M283.875 455.017L283.875 482.115" stroke="#000000" stroke-width="0.398" fill="none" /><path id="595" transform="matrix(1 0 0 -1 0 841)" d="M355.756 455.017L355.756 482.115" stroke="#000000" stroke-width="0.398" fill="none" /><path id="602" transform="matrix(1 0 0 -1 0 841)" d="M427.638 455.017L427.638 482.115" stroke="#000000" stroke-width="0.398" fill="none" /><path id="612" transform="matrix(1 0 0 -1 0 841)" d="M499.519 455.017L499.519 482.115" stroke="#000000" stroke-width="0.398" fill="none" /><path id="613" transform="matrix(1 0 0 -1 0 841)" d="M85.039 454.818L499.718 454.818" stroke="#000000" stroke-width="0.398" fill="none" /><path id="614" transform="matrix(1 0 0 -1 0 841)" d="M85.039 453.423L500.522 453.423" stroke="#000000" stroke-width="0.398" fill="none" /><path id="615" transform="matrix(1 0 0 -1 0 841)" d="M85.239 439.675L85.239 453.224" stroke="#000000" stroke-width="0.398" fill="none" /><path id="647" transform="matrix(1 0 0 -1 0 841)" d="M500.323 439.675L500.323 453.224" stroke="#000000" stroke-width="0.398" fill="none" /><path id="648" transform="matrix(1 0 0 -1 0 841)" d="M85.039 439.475L500.522 439.475" stroke="#000000" stroke-width="0.398" fill="none" /><path id="649" transform="matrix(1 0 0 -1 0 841)" d="M85.239 385.079L85.239 439.276" stroke="#000000" stroke-width="0.398" fill="none" /><path id="678" transform="matrix(1 0 0 -1 0 841)" d="M189.01 385.079L189.01 439.276" stroke="#000000" stroke-width="0.398" fill="none" /><path id="720" transform="matrix(1 0 0 -1 0 841)" d="M292.781 385.079L292.781 439.276" stroke="#000000" stroke-width="0.398" fill="none" /><path id="771" transform="matrix(1 0 0 -1 0 841)" d="M396.552 385.079L396.552 439.276" stroke="#000000" stroke-width="0.398" fill="none" /><path id="790" transform="matrix(1 0 0 -1 0 841)" d="M500.323 385.079L500.323 439.276" stroke="#000000" stroke-width="0.398" fill="none" /><path id="791" transform="matrix(1 0 0 -1 0 841)" d="M85.039 384.88L500.522 384.88" stroke="#000000" stroke-width="0.398" fill="none" /><path id="792" transform="matrix(1 0 0 -1 0 841)" d="M85.239 344.033L85.239 384.681" stroke="#000000" stroke-width="0.398" fill="none" /><path id="799" transform="matrix(1 0 0 -1 0 841)" d="M189.01 344.033L189.01 384.681" stroke="#000000" stroke-width="0.398" fill="none" /><path id="808" transform="matrix(1 0 0 -1 0 841)" d="M292.781 344.033L292.781 384.681" stroke="#000000" stroke-width="0.398" fill="none" /><path id="818" transform="matrix(1 0 0 -1 0 841)" d="M396.552 344.033L396.552 384.681" stroke="#000000" stroke-width="0.398" fill="none" /><path id="856" transform="matrix(1 0 0 -1 0 841)" d="M500.323 344.033L500.323 384.681" stroke="#000000" stroke-width="0.398" fill="none" /><path id="857" transform="matrix(1 0 0 -1 0 841)" d="M85.039 343.834L500.522 343.834" stroke="#000000" stroke-width="0.398" fill="none" /><path id="858" transform="matrix(1 0 0 -1 0 841)" d="M85.039 342.439L499.718 342.439" stroke="#000000" stroke-width="0.398" fill="none" /><path id="859" transform="matrix(1 0 0 -1 0 841)" d="M85.239 328.691L85.239 342.24" stroke="#000000" stroke-width="0.398" fill="none" /><path id="868" transform="matrix(1 0 0 -1 0 841)" d="M499.519 328.691L499.519 342.24" stroke="#000000" stroke-width="0.398" fill="none" /><path id="869" transform="matrix(1 0 0 -1 0 841)" d="M85.039 328.492L499.718 328.492" stroke="#000000" stroke-width="0.398" fill="none" /><path id="870" transform="matrix(1 0 0 -1 0 841)" d="M85.239 260.546L85.239 328.292" stroke="#000000" stroke-width="0.398" fill="none" /><path id="871" transform="matrix(1 0 0 -1 0 841)" d="M140.112 260.546L140.112 328.292" stroke="#000000" stroke-width="0.398" fill="none" /><path id="879" transform="matrix(1 0 0 -1 0 841)" d="M211.993 260.546L211.993 328.292" stroke="#000000" stroke-width="0.398" fill="none" /><path id="907" transform="matrix(1 0 0 -1 0 841)" d="M283.875 260.546L283.875 328.292" stroke="#000000" stroke-width="0.398" fill="none" /><path id="948" transform="matrix(1 0 0 -1 0 841)" d="M355.756 260.546L355.756 328.292" stroke="#000000" stroke-width="0.398" fill="none" /><path id="984" transform="matrix(1 0 0 -1 0 841)" d="M427.638 260.546L427.638 328.292" stroke="#000000" stroke-width="0.398" fill="none" /><path id="1013" transform="matrix(1 0 0 -1 0 841)" d="M499.519 260.546L499.519 328.292" stroke="#000000" stroke-width="0.398" fill="none" /><path id="1014" transform="matrix(1 0 0 -1 0 841)" d="M85.039 260.347L499.718 260.347" stroke="#000000" stroke-width="0.398" fill="none" /><path id="1015" transform="matrix(1 0 0 -1 0 841)" d="M85.239 233.049L85.239 260.147" stroke="#000000" stroke-width="0.398" fill="none" /><path id="1028" transform="matrix(1 0 0 -1 0 841)" d="M140.112 233.049L140.112 260.147" stroke="#000000" stroke-width="0.398" fill="none" /><path id="1035" transform="matrix(1 0 0 -1 0 841)" d="M211.993 233.049L211.993 260.147" stroke="#000000" stroke-width="0.398" fill="none" /><path id="1042" transform="matrix(1 0 0 -1 0 841)" d="M283.875 233.049L283.875 260.147" stroke="#000000" stroke-width="0.398" fill="none" /><path id="1052" transform="matrix(1 0 0 -1 0 841)" d="M355.756 233.049L355.756 260.147" stroke="#000000" stroke-width="0.398" fill="none" /><path id="1053" transform="matrix(1 0 0 -1 0 841)" d="M427.638 233.049L427.638 260.147" stroke="#000000" stroke-width="0.398" fill="none" /><path id="1054" transform="matrix(1 0 0 -1 0 841)" d="M499.519 233.049L499.519 260.147" stroke="#000000" stroke-width="0.398" fill="none" /><path id="1055" transform="matrix(1 0 0 -1 0 841)" d="M85.039 232.85L499.718 232.85" stroke="#000000" stroke-width="0.398" fill="none" /><path id="1056" transform="matrix(1 0 0 -1 0 841)" d="M85.239 219.102L85.239 232.651" stroke="#000000" stroke-width="0.398" fill="none" /><path id="1068" transform="matrix(1 0 0 -1 0 841)" d="M140.112 219.102L140.112 232.651" stroke="#000000" stroke-width="0.398" fill="none" /><path id="1069" transform="matrix(1 0 0 -1 0 841)" d="M211.993 219.102L211.993 232.651" stroke="#000000" stroke-width="0.398" fill="none" /><path id="1070" transform="matrix(1 0 0 -1 0 841)" d="M283.875 219.102L283.875 232.651" stroke="#000000" stroke-width="0.398" fill="none" /><path id="1071" transform="matrix(1 0 0 -1 0 841)" d="M355.756 219.102L355.756 232.651" stroke="#000000" stroke-width="0.398" fill="none" /><path id="1078" transform="matrix(1 0 0 -1 0 841)" d="M427.638 219.102L427.638 232.651" stroke="#000000" stroke-width="0.398" fill="none" /><path id="1088" transform="matrix(1 0 0 -1 0 841)" d="M499.519 219.102L499.519 232.651" stroke="#000000" stroke-width="0.398" fill="none" /><path id="1089" transform="matrix(1 0 0 -1 0 841)" d="M85.039 218.903L499.718 218.903" stroke="#000000" stroke-width="0.398" fill="none" /><path id="1090" transform="matrix(1 0 0 -1 0 841)" d="M85.039 217.508L500.522 217.508" stroke="#000000" stroke-width="0.398" fill="none" /><path id="1091" transform="matrix(1 0 0 -1 0 841)" d="M85.239 203.759L85.239 217.308" stroke="#000000" stroke-width="0.398" fill="none" /><path id="1105" transform="matrix(1 0 0 -1 0 841)" d="M500.323 203.759L500.323 217.308" stroke="#000000" stroke-width="0.398" fill="none" /><path id="1106" transform="matrix(1 0 0 -1 0 841)" d="M85.039 203.56L500.522 203.56" stroke="#000000" stroke-width="0.398" fill="none" /><path id="1107" transform="matrix(1 0 0 -1 0 841)" d="M85.239 176.262L85.239 203.36" stroke="#000000" stroke-width="0.398" fill="none" /><path id="1115" transform="matrix(1 0 0 -1 0 841)" d="M189.01 176.262L189.01 203.36" stroke="#000000" stroke-width="0.398" fill="none" /><path id="1133" transform="matrix(1 0 0 -1 0 841)" d="M292.781 176.262L292.781 203.36" stroke="#000000" stroke-width="0.398" fill="none" /><path id="1148" transform="matrix(1 0 0 -1 0 841)" d="M396.552 176.262L396.552 203.36" stroke="#000000" stroke-width="0.398" fill="none" /><path id="1153" transform="matrix(1 0 0 -1 0 841)" d="M500.323 176.262L500.323 203.36" stroke="#000000" stroke-width="0.398" fill="none" /><path id="1154" transform="matrix(1 0 0 -1 0 841)" d="M85.039 176.063L500.522 176.063" stroke="#000000" stroke-width="0.398" fill="none" /><path id="1155" transform="matrix(1 0 0 -1 0 841)" d="M85.239 162.315L85.239 175.864" stroke="#000000" stroke-width="0.398" fill="none" /><path id="1168" transform="matrix(1 0 0 -1 0 841)" d="M189.01 162.315L189.01 175.864" stroke="#000000" stroke-width="0.398" fill="none" /><path id="1181" transform="matrix(1 0 0 -1 0 841)" d="M292.781 162.315L292.781 175.864" stroke="#000000" stroke-width="0.398" fill="none" /><path id="1191" transform="matrix(1 0 0 -1 0 841)" d="M396.552 162.315L396.552 175.864" stroke="#000000" stroke-width="0.398" fill="none" /><path id="1201" transform="matrix(1 0 0 -1 0 841)" d="M500.323 162.315L500.323 175.864" stroke="#000000" stroke-width="0.398" fill="none" /><path id="1202" transform="matrix(1 0 0 -1 0 841)" d="M85.039 162.116L500.522 162.116" stroke="#000000" stroke-width="0.398" fill="none" /></g></g></svg>