<svg xmlns="http://www.w3.org/2000/svg" xmlns:xlink="http://www.w3.org/1999/xlink" id="body_275" preserveAspectRatio="xMinYMin meet" viewBox="0 0 793 1121"><defs><clipPath id="1"><path id="" clip-rule="evenodd" transform="matrix(1 0 0 1 0 0)" d="M0 841L0 -0.8900146L0 -0.8900146L595.276 -0.8900146L595.276 -0.8900146L595.276 841L595.276 841L0 841z" /></clipPath></defs><g transform="matrix(1.333333 0 0 1.333333 0 0)"><g clip-path="url(#1)"><path id="23" transform="matrix(1 0 0 -1 0 841)" d="M85.039 766.564L510.236 766.564" stroke="#000000" stroke-width="0.498" fill="none" /><path id="44" transform="matrix(1 0 0 -1 0 841)" d="M86.235 729.23L152.049 729.23" stroke="#000000" stroke-width="0.436" fill="none" /><path id="57" transform="matrix(1 0 0 -1 0 841)" d="M162.924 729.23L190.197 729.23" stroke="#000000" stroke-width="0.436" fill="none" /><path id="69" transform="matrix(1 0 0 -1 0 841)" d="M201.073 729.23L227.386 729.23" stroke="#000000" stroke-width="0.436" fill="none" /><path id="86" transform="matrix(1 0 0 -1 0 841)" d="M246.488 729.23L311.234 729.23" stroke="#000000" stroke-width="0.436" fill="none" /><path id="90" transform="matrix(1 0 0 -1 0 841)" d="M241.905 744.587L315.816 744.587" stroke="#000000" stroke-width="0.398" fill="none" /><path id="91" transform="matrix(1 0 0 -1 0 841)" d="M242.105 713.606L242.105 744.587" stroke="#000000" stroke-width="0.398" fill="none" /><path id="92" transform="matrix(1 0 0 -1 0 841)" d="M315.618 713.606L315.618 744.587" stroke="#000000" stroke-width="0.398" fill="none" /><path id="93" transform="matrix(1 0 0 -1 0 841)" d="M241.905 713.606L315.816 713.606" stroke="#000000" stroke-width="0.398" fill="none" /><path id="210" transform="matrix(1 0 0 -1 0 841)" d="M86.235 654.87L152.049 654.87" stroke="#000000" stroke-width="0.436" fill="none" /><path id="227" transform="matrix(1 0 0 -1 0 841)" d="M162.924 654.87L195.651 654.87" stroke="#000000" stroke-width="0.436" fill="none" /><path id="245" transform="matrix(1 0 0 -1 0 841)" d="M228.345 654.87L244.708 654.87" stroke="#000000" stroke-width="0.436" fill="none" /><path id="265" transform="matrix(1 0 0 -1 0 841)" d="M263.812 654.87L350.223 654.87" stroke="#000000" stroke-width="0.436" fill="none" /><path id="269" transform="matrix(1 0 0 -1 0 841)" d="M259.229 670.227L354.806 670.227" stroke="#000000" stroke-width="0.398" fill="none" /><path id="270" transform="matrix(1 0 0 -1 0 841)" d="M259.428 639.246L259.428 670.227" stroke="#000000" stroke-width="0.398" fill="none" /><path id="271" transform="matrix(1 0 0 -1 0 841)" d="M354.606 639.246L354.606 670.227" stroke="#000000" stroke-width="0.398" fill="none" /><path id="272" transform="matrix(1 0 0 -1 0 841)" d="M259.229 639.246L354.806 639.246" stroke="#000000" stroke-width="0.398" fill="none" /><path id="492" transform="matrix(1 0 0 -1 0 841)" d="M198.624 513.2226L85.23676 513.2226L85.23676 513.2226L85.23676 470.7024L85.23676 470.7024L198.624 470.7024z" stroke="#000000" stroke-width="0.3985" fill="#E3F5FD" fill-rule="nonzero" /><path id="493" transform="matrix(1 0 0 -1 0 841)" d="M198.624 513.2226L220.4507 535.0493L220.4507 535.0493L220.4507 492.5291L220.4507 492.5291L198.624 470.7024z" stroke="#000000" stroke-width="0.3985" fill="#FFFFFF" fill-rule="nonzero" /><path id="494" transform="matrix(1 0 0 -1 0 841)" d="M198.624 513.2226L220.4507 535.0493L220.4507 535.0493L220.4507 492.5291L220.4507 492.5291L198.624 470.7024z" stroke="#000000" stroke-width="0.3985" fill="#E3F5FD" fill-rule="nonzero" /><path id="495" transform="matrix(1 0 0 -1 0 841)" d="M85.23676 527.396L107.0635 549.2227L107.0635 549.2227L107.0635 535.0493L107.0635 535.0493L85.23676 513.2226z" stroke="#000000" stroke-width="0.3985" fill="none" /><path id="496" transform="matrix(1 0 0 -1 0 841)" d="M198.624 513.2226L85.23676 513.2226L85.23676 513.2226L107.0635 535.0493L107.0635 535.0493L220.4507 535.0493z" stroke="#000000" stroke-width="0.3985" fill="none" /><path id="497" transform="matrix(1 0 0 -1 0 841)" d="M198.624 527.396L85.23676 527.396L85.23676 527.396L85.23676 513.2226L85.23676 513.2226L198.624 513.2226z" stroke="#000000" stroke-width="0.3985" fill="#FFFFFF" fill-rule="nonzero" /><path id="498" transform="matrix(1 0 0 -1 0 841)" d="M198.624 527.396L220.4507 549.2227L220.4507 549.2227L220.4507 535.0493L220.4507 535.0493L198.624 513.2226z" stroke="#000000" stroke-width="0.3985" fill="#FFFFFF" fill-rule="nonzero" /><path id="499" transform="matrix(1 0 0 -1 0 841)" d="M198.624 527.396L220.4507 549.2227L220.4507 549.2227L220.4507 535.0493L220.4507 535.0493L198.624 513.2226z" stroke="#000000" stroke-width="0.3985" fill="#FFFFFF" fill-rule="nonzero" /><path id="500" transform="matrix(1 0 0 -1 0 841)" d="M198.624 527.396L85.23676 527.396L85.23676 527.396L107.0635 549.2227L107.0635 549.2227L220.4507 549.2227z" stroke="#000000" stroke-width="0.3985" fill="#FFFFFF" fill-rule="nonzero" /><path id="501" transform="matrix(1 0 0 -1 0 841)" d="M85.63527 462.1982L198.2255 462.1982" stroke="#000000" stroke-width="0.3985" fill="none" /><path id="502" transform="matrix(1 0 0 -1 0 841)" d="M87.50826 459.8072C 87.12967 461.2419 86.28601 461.9193 85.43602 462.1982C 86.28601 462.4772 87.12967 463.1546 87.50826 464.5893" stroke="#000000" stroke-width="0.3985" stroke-linecap="round" fill="none" /><path id="503" transform="matrix(1 0 0 -1 0 841)" d="M196.3525 464.5893C 196.7311 463.1546 197.5747 462.4772 198.4247 462.1982C 197.5747 461.9193 196.7311 461.2419 196.3525 459.8072" stroke="#000000" stroke-width="0.3985" stroke-linecap="round" fill="none" /><path id="511" transform="matrix(1 0 0 -1 0 841)" d="M226.9708 490.9436L226.9708 532.6667" stroke="#000000" stroke-width="0.3985" fill="none" /><path id="512" transform="matrix(1 0 0 -1 0 841)" d="M229.3618 492.8166C 227.9272 492.438 227.2497 491.5943 226.9708 490.7443C 226.6918 491.5943 226.0144 492.438 224.5797 492.8166" stroke="#000000" stroke-width="0.3985" stroke-linecap="round" fill="none" /><path id="513" transform="matrix(1 0 0 -1 0 841)" d="M224.5797 530.7937C 226.0144 531.1723 226.6918 532.016 226.9708 532.866C 227.2497 532.016 227.9272 531.1723 229.3618 530.7937" stroke="#000000" stroke-width="0.3985" stroke-linecap="round" fill="none" /><path id="536" transform="matrix(1 0 0 -1 0 841)" d="M209.9625 481.8728L209.9625 495.8159" stroke="#000000" stroke-width="0.3985" fill="none" /><path id="537" transform="matrix(1 0 0 -1 0 841)" d="M212.3536 483.7458C 210.9189 483.3672 210.2415 482.5235 209.9625 481.6736C 209.6836 482.5235 209.0061 483.3672 207.5715 483.7458" stroke="#000000" stroke-width="0.3985" stroke-linecap="round" fill="none" /><path id="538" transform="matrix(1 0 0 -1 0 841)" d="M207.5715 493.9428C 209.0061 494.3214 209.6836 495.1651 209.9625 496.0151C 210.2415 495.1651 210.9189 494.3214 212.3536 493.9428" stroke="#000000" stroke-width="0.3985" stroke-linecap="round" fill="none" /><path id="558" transform="matrix(1 0 0 -1 0 841)" d="M226.9708 549.675L226.9708 533.4637" stroke="#000000" stroke-width="0.3985" fill="none" /><path id="559" transform="matrix(1 0 0 -1 0 841)" d="M224.5797 547.8019C 226.0144 548.1805 226.6918 549.0242 226.9708 549.8742C 227.2497 549.0242 227.9272 548.1805 229.3618 547.8019" stroke="#000000" stroke-width="0.3985" stroke-linecap="round" fill="none" /><path id="560" transform="matrix(1 0 0 -1 0 841)" d="M229.3618 535.3367C 227.9272 534.9581 227.2497 534.1144 226.9708 533.2645C 226.6918 534.1144 226.0144 534.9581 224.5797 535.3367" stroke="#000000" stroke-width="0.3985" stroke-linecap="round" fill="none" /><path id="572" transform="matrix(1 0 0 -1 0 841)" d="M226.689 490.2633L198.9058 462.48" stroke="#000000" stroke-width="0.3985" fill="none" /><path id="573" transform="matrix(1 0 0 -1 0 841)" d="M223.6739 490.6296C 224.9561 489.8829 226.0316 490.0004 226.8299 490.4042C 226.4261 489.6059 226.3086 488.5303 227.0553 487.2482" stroke="#000000" stroke-width="0.3984962" stroke-linecap="round" fill="none" /><path id="574" transform="matrix(1 0 0 -1 0 841)" d="M201.9209 462.1137C 200.6387 462.8605 199.5631 462.7429 198.7649 462.3391C 199.1686 463.1374 199.2862 464.213 198.5394 465.4951" stroke="#000000" stroke-width="0.3984962" stroke-linecap="round" fill="none" /><path id="648" transform="matrix(1 0 0 -1 0 841)" d="M180.439 402.322L194.937 402.322" stroke="#000000" stroke-width="0.436" fill="none" /><path id="654" transform="matrix(1 0 0 -1 0 841)" d="M111.075 385.368L196.132 385.368" stroke="#000000" stroke-width="0.436" fill="none" /><path id="663" transform="matrix(1 0 0 -1 0 841)" d="M153.603 370.357L169.966 370.357" stroke="#000000" stroke-width="0.436" fill="none" /><path id="673" transform="matrix(1 0 0 -1 0 841)" d="M210.652 393.127L244.699 393.127" stroke="#000000" stroke-width="0.398" fill="none" /><path id="674" transform="matrix(1 0 0 -1 0 841)" d="M210.851 379.333L210.851 393.127" stroke="#000000" stroke-width="0.398" fill="none" /><path id="675" transform="matrix(1 0 0 -1 0 841)" d="M244.5 379.333L244.5 393.127" stroke="#000000" stroke-width="0.398" fill="none" /><path id="676" transform="matrix(1 0 0 -1 0 841)" d="M210.652 379.333L244.699 379.333" stroke="#000000" stroke-width="0.398" fill="none" /><g transform="matrix(0.08999999 0 0 0.09 162.239 510.936)"><g transform="matrix(1 0 0 1 0 0)"><image x="0" y="0" xlink:href="img_412.png" width="3009" height="713" /></g></g><path id="1049" transform="matrix(1 0 0 -1 0 841)" d="M176.205 119.346L446.343 119.346" stroke="#000000" stroke-width="0.436" fill="none" /></g></g></svg>