<svg xmlns="http://www.w3.org/2000/svg" xmlns:xlink="http://www.w3.org/1999/xlink" id="body_172" preserveAspectRatio="xMinYMin meet" viewBox="0 0 793 1121"><defs><clipPath id="1"><path id="" clip-rule="evenodd" transform="matrix(1 0 0 1 0 0)" d="M0 841L0 -0.8900146L0 -0.8900146L595.276 -0.8900146L595.276 -0.8900146L595.276 841L595.276 841L0 841z" /></clipPath></defs><g transform="matrix(1.333333 0 0 1.333333 0 0)"><g clip-path="url(#1)"><g transform="matrix(0.7349401 0 0 0.7349399 0.199 -0.6912842)"><g transform="matrix(1 0 0 1 0 0)"><image x="0" y="0" xlink:href="img_244.png" width="810" height="427" /></g></g><path id="3" transform="matrix(1 0 0 -1 0 841)" d="M724.611 610.1811L100.9809 610.1811C 92.72734 610.1811 86.03673 603.4905 86.03673 595.2369L86.03673 595.2369L86.03673 578.3002C 86.03673 570.0466 92.72734 563.3561 100.9809 563.3561L100.9809 563.3561L724.611 563.3561C 732.8644 563.3561 739.5551 570.0466 739.5551 578.3002L739.5551 578.3002L739.5551 595.2369C 739.5551 603.4905 732.8644 610.1811 724.611 610.1811z" stroke="#F36619" stroke-width="1.99255" fill="#FFFFFF" fill-rule="nonzero" fill-opacity="0.4980392" /><path id="21" transform="matrix(1 0 0 -1 0 841)" d="M85.039 457.772L563.688 457.772" stroke="#000000" stroke-width="0.398" fill="none" /><path id="22" transform="matrix(1 0 0 -1 0 841)" d="M85.239 444.024L85.239 457.573" stroke="#000000" stroke-width="0.398" fill="none" /><path id="75" transform="matrix(1 0 0 -1 0 841)" d="M563.489 444.024L563.489 457.573" stroke="#000000" stroke-width="0.398" fill="none" /><path id="76" transform="matrix(1 0 0 -1 0 841)" d="M85.039 443.824L563.688 443.824" stroke="#000000" stroke-width="0.398" fill="none" /><path id="77" transform="matrix(1 0 0 -1 0 841)" d="M85.239 430.076L85.239 443.625" stroke="#000000" stroke-width="0.398" fill="none" /><path id="121" transform="matrix(1 0 0 -1 0 841)" d="M563.489 430.076L563.489 443.625" stroke="#000000" stroke-width="0.398" fill="none" /><path id="122" transform="matrix(1 0 0 -1 0 841)" d="M85.039 429.877L563.688 429.877" stroke="#000000" stroke-width="0.398" fill="none" /><path id="123" transform="matrix(1 0 0 -1 0 841)" d="M85.239 416.128L85.239 429.677" stroke="#000000" stroke-width="0.398" fill="none" /><path id="126" transform="matrix(1 0 0 -1 0 841)" d="M125.939 416.128L125.939 429.677" stroke="#000000" stroke-width="0.398" fill="none" /><path id="166" transform="matrix(1 0 0 -1 0 841)" d="M563.489 416.128L563.489 429.677" stroke="#000000" stroke-width="0.398" fill="none" /><path id="167" transform="matrix(1 0 0 -1 0 841)" d="M85.039 415.929L563.688 415.929" stroke="#000000" stroke-width="0.398" fill="none" /><path id="168" transform="matrix(1 0 0 -1 0 841)" d="M85.239 402.18L85.239 415.729" stroke="#000000" stroke-width="0.398" fill="none" /><path id="171" transform="matrix(1 0 0 -1 0 841)" d="M125.939 402.18L125.939 415.729" stroke="#000000" stroke-width="0.398" fill="none" /><path id="231" transform="matrix(1 0 0 -1 0 841)" d="M563.489 402.18L563.489 415.729" stroke="#000000" stroke-width="0.398" fill="none" /><path id="232" transform="matrix(1 0 0 -1 0 841)" d="M85.039 401.981L563.688 401.981" stroke="#000000" stroke-width="0.398" fill="none" /><path id="233" transform="matrix(1 0 0 -1 0 841)" d="M85.239 388.233L85.239 401.782" stroke="#000000" stroke-width="0.398" fill="none" /><path id="236" transform="matrix(1 0 0 -1 0 841)" d="M125.939 388.233L125.939 401.782" stroke="#000000" stroke-width="0.398" fill="none" /><path id="286" transform="matrix(1 0 0 -1 0 841)" d="M563.489 388.233L563.489 401.782" stroke="#000000" stroke-width="0.398" fill="none" /><path id="287" transform="matrix(1 0 0 -1 0 841)" d="M85.039 388.034L563.688 388.034" stroke="#000000" stroke-width="0.398" fill="none" /><path id="288" transform="matrix(1 0 0 -1 0 841)" d="M85.239 374.285L85.239 387.834" stroke="#000000" stroke-width="0.398" fill="none" /><path id="291" transform="matrix(1 0 0 -1 0 841)" d="M125.939 374.285L125.939 387.834" stroke="#000000" stroke-width="0.398" fill="none" /><path id="312" transform="matrix(1 0 0 -1 0 841)" d="M563.489 374.285L563.489 387.834" stroke="#000000" stroke-width="0.398" fill="none" /><path id="313" transform="matrix(1 0 0 -1 0 841)" d="M85.039 374.086L563.688 374.086" stroke="#000000" stroke-width="0.398" fill="none" /><path id="314" transform="matrix(1 0 0 -1 0 841)" d="M85.239 360.337L85.239 373.886" stroke="#000000" stroke-width="0.398" fill="none" /><path id="317" transform="matrix(1 0 0 -1 0 841)" d="M125.939 360.337L125.939 373.886" stroke="#000000" stroke-width="0.398" fill="none" /><path id="351" transform="matrix(1 0 0 -1 0 841)" d="M563.489 360.337L563.489 373.886" stroke="#000000" stroke-width="0.398" fill="none" /><path id="352" transform="matrix(1 0 0 -1 0 841)" d="M85.039 360.138L563.688 360.138" stroke="#000000" stroke-width="0.398" fill="none" /><path id="353" transform="matrix(1 0 0 -1 0 841)" d="M85.239 346.39L85.239 359.939" stroke="#000000" stroke-width="0.398" fill="none" /><path id="356" transform="matrix(1 0 0 -1 0 841)" d="M125.939 346.39L125.939 359.939" stroke="#000000" stroke-width="0.398" fill="none" /><path id="393" transform="matrix(1 0 0 -1 0 841)" d="M563.489 346.39L563.489 359.939" stroke="#000000" stroke-width="0.398" fill="none" /><path id="394" transform="matrix(1 0 0 -1 0 841)" d="M85.039 346.191L563.688 346.191" stroke="#000000" stroke-width="0.398" fill="none" /><path id="395" transform="matrix(1 0 0 -1 0 841)" d="M85.239 332.442L85.239 345.991" stroke="#000000" stroke-width="0.398" fill="none" /><path id="398" transform="matrix(1 0 0 -1 0 841)" d="M125.939 332.442L125.939 345.991" stroke="#000000" stroke-width="0.398" fill="none" /><path id="461" transform="matrix(1 0 0 -1 0 841)" d="M563.489 332.442L563.489 345.991" stroke="#000000" stroke-width="0.398" fill="none" /><path id="462" transform="matrix(1 0 0 -1 0 841)" d="M85.039 332.243L563.688 332.243" stroke="#000000" stroke-width="0.398" fill="none" /><path id="463" transform="matrix(1 0 0 -1 0 841)" d="M85.239 318.494L85.239 332.043" stroke="#000000" stroke-width="0.398" fill="none" /><path id="466" transform="matrix(1 0 0 -1 0 841)" d="M125.939 318.494L125.939 332.043" stroke="#000000" stroke-width="0.398" fill="none" /><path id="508" transform="matrix(1 0 0 -1 0 841)" d="M563.489 318.494L563.489 332.043" stroke="#000000" stroke-width="0.398" fill="none" /><path id="509" transform="matrix(1 0 0 -1 0 841)" d="M85.039 318.295L563.688 318.295" stroke="#000000" stroke-width="0.398" fill="none" /><path id="510" transform="matrix(1 0 0 -1 0 841)" d="M85.239 304.547L85.239 318.096" stroke="#000000" stroke-width="0.398" fill="none" /><path id="513" transform="matrix(1 0 0 -1 0 841)" d="M125.939 304.547L125.939 318.096" stroke="#000000" stroke-width="0.398" fill="none" /><path id="552" transform="matrix(1 0 0 -1 0 841)" d="M563.489 304.547L563.489 318.096" stroke="#000000" stroke-width="0.398" fill="none" /><path id="553" transform="matrix(1 0 0 -1 0 841)" d="M85.039 304.347L563.688 304.347" stroke="#000000" stroke-width="0.398" fill="none" /><path id="554" transform="matrix(1 0 0 -1 0 841)" d="M85.239 290.599L85.239 304.148" stroke="#000000" stroke-width="0.398" fill="none" /><path id="557" transform="matrix(1 0 0 -1 0 841)" d="M125.939 290.599L125.939 304.148" stroke="#000000" stroke-width="0.398" fill="none" /><path id="611" transform="matrix(1 0 0 -1 0 841)" d="M563.489 290.599L563.489 304.148" stroke="#000000" stroke-width="0.398" fill="none" /><path id="612" transform="matrix(1 0 0 -1 0 841)" d="M85.039 290.4L563.688 290.4" stroke="#000000" stroke-width="0.398" fill="none" /><path id="613" transform="matrix(1 0 0 -1 0 841)" d="M85.239 276.651L85.239 290.2" stroke="#000000" stroke-width="0.398" fill="none" /><path id="616" transform="matrix(1 0 0 -1 0 841)" d="M125.939 276.651L125.939 290.2" stroke="#000000" stroke-width="0.398" fill="none" /><path id="661" transform="matrix(1 0 0 -1 0 841)" d="M563.489 276.651L563.489 290.2" stroke="#000000" stroke-width="0.398" fill="none" /><path id="662" transform="matrix(1 0 0 -1 0 841)" d="M85.039 276.452L563.688 276.452" stroke="#000000" stroke-width="0.398" fill="none" /><path id="663" transform="matrix(1 0 0 -1 0 841)" d="M85.239 262.704L85.239 276.253" stroke="#000000" stroke-width="0.398" fill="none" /><path id="666" transform="matrix(1 0 0 -1 0 841)" d="M125.939 262.704L125.939 276.253" stroke="#000000" stroke-width="0.398" fill="none" /><path id="698" transform="matrix(1 0 0 -1 0 841)" d="M563.489 262.704L563.489 276.253" stroke="#000000" stroke-width="0.398" fill="none" /><path id="699" transform="matrix(1 0 0 -1 0 841)" d="M85.039 262.504L563.688 262.504" stroke="#000000" stroke-width="0.398" fill="none" /><path id="700" transform="matrix(1 0 0 -1 0 841)" d="M85.239 248.756L85.239 262.305" stroke="#000000" stroke-width="0.398" fill="none" /><path id="703" transform="matrix(1 0 0 -1 0 841)" d="M125.939 248.756L125.939 262.305" stroke="#000000" stroke-width="0.398" fill="none" /><path id="740" transform="matrix(1 0 0 -1 0 841)" d="M563.489 248.756L563.489 262.305" stroke="#000000" stroke-width="0.398" fill="none" /><path id="741" transform="matrix(1 0 0 -1 0 841)" d="M85.039 248.557L563.688 248.557" stroke="#000000" stroke-width="0.398" fill="none" /><path id="742" transform="matrix(1 0 0 -1 0 841)" d="M85.239 234.808L85.239 248.357" stroke="#000000" stroke-width="0.398" fill="none" /><path id="745" transform="matrix(1 0 0 -1 0 841)" d="M125.939 234.808L125.939 248.357" stroke="#000000" stroke-width="0.398" fill="none" /><path id="778" transform="matrix(1 0 0 -1 0 841)" d="M563.489 234.808L563.489 248.357" stroke="#000000" stroke-width="0.398" fill="none" /><path id="779" transform="matrix(1 0 0 -1 0 841)" d="M85.039 234.609L563.688 234.609" stroke="#000000" stroke-width="0.398" fill="none" /><path id="780" transform="matrix(1 0 0 -1 0 841)" d="M85.239 220.861L85.239 234.41" stroke="#000000" stroke-width="0.398" fill="none" /><path id="783" transform="matrix(1 0 0 -1 0 841)" d="M125.939 220.861L125.939 234.41" stroke="#000000" stroke-width="0.398" fill="none" /><path id="834" transform="matrix(1 0 0 -1 0 841)" d="M563.489 220.861L563.489 234.41" stroke="#000000" stroke-width="0.398" fill="none" /><path id="835" transform="matrix(1 0 0 -1 0 841)" d="M85.039 220.661L563.688 220.661" stroke="#000000" stroke-width="0.398" fill="none" /><path id="836" transform="matrix(1 0 0 -1 0 841)" d="M85.239 206.913L85.239 220.462" stroke="#000000" stroke-width="0.398" fill="none" /><path id="839" transform="matrix(1 0 0 -1 0 841)" d="M125.939 206.913L125.939 220.462" stroke="#000000" stroke-width="0.398" fill="none" /><path id="892" transform="matrix(1 0 0 -1 0 841)" d="M563.489 206.913L563.489 220.462" stroke="#000000" stroke-width="0.398" fill="none" /><path id="893" transform="matrix(1 0 0 -1 0 841)" d="M85.039 206.714L563.688 206.714" stroke="#000000" stroke-width="0.398" fill="none" /><path id="894" transform="matrix(1 0 0 -1 0 841)" d="M85.239 192.965L85.239 206.514" stroke="#000000" stroke-width="0.398" fill="none" /><path id="897" transform="matrix(1 0 0 -1 0 841)" d="M125.939 192.965L125.939 206.514" stroke="#000000" stroke-width="0.398" fill="none" /><path id="926" transform="matrix(1 0 0 -1 0 841)" d="M563.489 192.965L563.489 206.514" stroke="#000000" stroke-width="0.398" fill="none" /><path id="927" transform="matrix(1 0 0 -1 0 841)" d="M85.039 192.766L563.688 192.766" stroke="#000000" stroke-width="0.398" fill="none" /><path id="928" transform="matrix(1 0 0 -1 0 841)" d="M85.239 179.018L85.239 192.567" stroke="#000000" stroke-width="0.398" fill="none" /><path id="931" transform="matrix(1 0 0 -1 0 841)" d="M125.939 179.018L125.939 192.567" stroke="#000000" stroke-width="0.398" fill="none" /><path id="967" transform="matrix(1 0 0 -1 0 841)" d="M563.489 179.018L563.489 192.567" stroke="#000000" stroke-width="0.398" fill="none" /><path id="968" transform="matrix(1 0 0 -1 0 841)" d="M85.039 178.818L563.688 178.818" stroke="#000000" stroke-width="0.398" fill="none" /><path id="969" transform="matrix(1 0 0 -1 0 841)" d="M85.239 165.07L85.239 178.619" stroke="#000000" stroke-width="0.398" fill="none" /><path id="972" transform="matrix(1 0 0 -1 0 841)" d="M125.939 165.07L125.939 178.619" stroke="#000000" stroke-width="0.398" fill="none" /><path id="1002" transform="matrix(1 0 0 -1 0 841)" d="M563.489 165.07L563.489 178.619" stroke="#000000" stroke-width="0.398" fill="none" /><path id="1003" transform="matrix(1 0 0 -1 0 841)" d="M85.039 164.871L563.688 164.871" stroke="#000000" stroke-width="0.398" fill="none" /></g></g></svg>