<svg xmlns="http://www.w3.org/2000/svg" xmlns:xlink="http://www.w3.org/1999/xlink" id="body_91" preserveAspectRatio="xMinYMin meet" viewBox="0 0 1121 793"><defs><clipPath id="1"><path id="" clip-rule="evenodd" transform="matrix(1 0 0 1 0 0)" d="M0 -0.276001L841.89 -0.276001L841.89 -0.276001L841.89 595L841.89 595L3.644894E-14 595L3.644894E-14 595L0 -0.276001z" /></clipPath></defs><g transform="matrix(1.333333 0 0 1.333333 0 0)"><g clip-path="url(#1)"><path id="1" transform="matrix(1 0 0 -1 0 595)" d="M112.748 510.038L729.142 510.038" stroke="#000000" stroke-width="0.398" fill="none" /><path id="2" transform="matrix(1 0 0 -1 0 595)" d="M112.947 497.884L112.947 509.839" stroke="#000000" stroke-width="0.398" fill="none" /><path id="3" transform="matrix(1 0 0 -1 0 595)" d="M113.146 497.884L357.119 497.884L357.119 509.839L113.146 509.839z" stroke="none" fill="#CBCEFB" fill-rule="nonzero" /><path id="23" transform="matrix(1 0 0 -1 0 595)" d="M357.319 497.884L357.319 509.839" stroke="#000000" stroke-width="0.398" fill="none" /><path id="24" transform="matrix(1 0 0 -1 0 595)" d="M357.518 497.884L480.994 497.884L480.994 509.839L357.518 509.839z" stroke="none" fill="#CBCEFB" fill-rule="nonzero" /><path id="28" transform="matrix(1 0 0 -1 0 595)" d="M481.194 497.884L481.194 509.839" stroke="#000000" stroke-width="0.398" fill="none" /><path id="29" transform="matrix(1 0 0 -1 0 595)" d="M481.393 497.884L604.869 497.884L604.869 509.839L481.393 509.839z" stroke="none" fill="#CBCEFB" fill-rule="nonzero" /><path id="36" transform="matrix(1 0 0 -1 0 595)" d="M605.068 497.884L605.068 509.839" stroke="#000000" stroke-width="0.398" fill="none" /><path id="37" transform="matrix(1 0 0 -1 0 595)" d="M605.267 497.884L728.743 497.884L728.743 509.839L605.267 509.839z" stroke="none" fill="#CBCEFB" fill-rule="nonzero" /><path id="43" transform="matrix(1 0 0 -1 0 595)" d="M728.942 497.884L728.942 509.839" stroke="#000000" stroke-width="0.398" fill="none" /><path id="44" transform="matrix(1 0 0 -1 0 595)" d="M112.748 497.684L729.142 497.684" stroke="#000000" stroke-width="0.398" fill="none" /><path id="45" transform="matrix(1 0 0 -1 0 595)" d="M112.947 485.53L112.947 497.485" stroke="#000000" stroke-width="0.398" fill="none" /><path id="60" transform="matrix(1 0 0 -1 0 595)" d="M357.319 485.53L357.319 497.485" stroke="#000000" stroke-width="0.398" fill="none" /><path id="72" transform="matrix(1 0 0 -1 0 595)" d="M481.194 485.53L481.194 497.485" stroke="#000000" stroke-width="0.398" fill="none" /><path id="84" transform="matrix(1 0 0 -1 0 595)" d="M605.068 485.53L605.068 497.485" stroke="#000000" stroke-width="0.398" fill="none" /><path id="96" transform="matrix(1 0 0 -1 0 595)" d="M728.942 485.53L728.942 497.485" stroke="#000000" stroke-width="0.398" fill="none" /><path id="97" transform="matrix(1 0 0 -1 0 595)" d="M112.748 485.331L729.142 485.331" stroke="#000000" stroke-width="0.398" fill="none" /><path id="98" transform="matrix(1 0 0 -1 0 595)" d="M112.947 473.176L112.947 485.131" stroke="#000000" stroke-width="0.398" fill="none" /><path id="121" transform="matrix(1 0 0 -1 0 595)" d="M357.319 473.176L357.319 485.131" stroke="#000000" stroke-width="0.398" fill="none" /><path id="129" transform="matrix(1 0 0 -1 0 595)" d="M481.194 473.176L481.194 485.131" stroke="#000000" stroke-width="0.398" fill="none" /><path id="137" transform="matrix(1 0 0 -1 0 595)" d="M605.068 473.176L605.068 485.131" stroke="#000000" stroke-width="0.398" fill="none" /><path id="145" transform="matrix(1 0 0 -1 0 595)" d="M728.942 473.176L728.942 485.131" stroke="#000000" stroke-width="0.398" fill="none" /><path id="146" transform="matrix(1 0 0 -1 0 595)" d="M112.748 472.977L729.142 472.977" stroke="#000000" stroke-width="0.398" fill="none" /><path id="147" transform="matrix(1 0 0 -1 0 595)" d="M112.947 460.643L112.947 472.778" stroke="#000000" stroke-width="0.398" fill="none" /><path id="160" transform="matrix(1 0 0 -1 0 595)" d="M357.319 460.643L357.319 472.778" stroke="#000000" stroke-width="0.398" fill="none" /><path id="171" transform="matrix(1 0 0 -1 0 595)" d="M481.194 460.643L481.194 472.778" stroke="#000000" stroke-width="0.398" fill="none" /><path id="182" transform="matrix(1 0 0 -1 0 595)" d="M605.068 460.643L605.068 472.778" stroke="#000000" stroke-width="0.398" fill="none" /><path id="191" transform="matrix(1 0 0 -1 0 595)" d="M728.942 460.643L728.942 472.778" stroke="#000000" stroke-width="0.398" fill="none" /><path id="192" transform="matrix(1 0 0 -1 0 595)" d="M112.748 460.444L729.142 460.444" stroke="#000000" stroke-width="0.398" fill="none" /><path id="193" transform="matrix(1 0 0 -1 0 595)" d="M112.947 448.289L112.947 460.244" stroke="#000000" stroke-width="0.398" fill="none" /><path id="206" transform="matrix(1 0 0 -1 0 595)" d="M357.319 448.289L357.319 460.244" stroke="#000000" stroke-width="0.398" fill="none" /><path id="220" transform="matrix(1 0 0 -1 0 595)" d="M481.194 448.289L481.194 460.244" stroke="#000000" stroke-width="0.398" fill="none" /><path id="234" transform="matrix(1 0 0 -1 0 595)" d="M605.068 448.289L605.068 460.244" stroke="#000000" stroke-width="0.398" fill="none" /><path id="248" transform="matrix(1 0 0 -1 0 595)" d="M728.942 448.289L728.942 460.244" stroke="#000000" stroke-width="0.398" fill="none" /><path id="249" transform="matrix(1 0 0 -1 0 595)" d="M112.748 448.09L729.142 448.09" stroke="#000000" stroke-width="0.398" fill="none" /><path id="250" transform="matrix(1 0 0 -1 0 595)" d="M112.947 435.935L112.947 447.89" stroke="#000000" stroke-width="0.398" fill="none" /><path id="251" transform="matrix(1 0 0 -1 0 595)" d="M113.146 435.935L357.119 435.935L357.119 447.89L113.146 447.89z" stroke="none" fill="#CBCEFB" fill-rule="nonzero" /><path id="261" transform="matrix(1 0 0 -1 0 595)" d="M357.319 435.935L357.319 447.89" stroke="#000000" stroke-width="0.398" fill="none" /><path id="262" transform="matrix(1 0 0 -1 0 595)" d="M357.518 435.935L480.994 435.935L480.994 447.89L357.518 447.89z" stroke="none" fill="#CBCEFB" fill-rule="nonzero" /><path id="266" transform="matrix(1 0 0 -1 0 595)" d="M481.194 435.935L481.194 447.89" stroke="#000000" stroke-width="0.398" fill="none" /><path id="267" transform="matrix(1 0 0 -1 0 595)" d="M481.393 435.935L604.869 435.935L604.869 447.89L481.393 447.89z" stroke="none" fill="#CBCEFB" fill-rule="nonzero" /><path id="274" transform="matrix(1 0 0 -1 0 595)" d="M605.068 435.935L605.068 447.89" stroke="#000000" stroke-width="0.398" fill="none" /><path id="275" transform="matrix(1 0 0 -1 0 595)" d="M605.267 435.935L728.743 435.935L728.743 447.89L605.267 447.89z" stroke="none" fill="#CBCEFB" fill-rule="nonzero" /><path id="281" transform="matrix(1 0 0 -1 0 595)" d="M728.942 435.935L728.942 447.89" stroke="#000000" stroke-width="0.398" fill="none" /><path id="282" transform="matrix(1 0 0 -1 0 595)" d="M112.748 435.736L729.142 435.736" stroke="#000000" stroke-width="0.398" fill="none" /><path id="283" transform="matrix(1 0 0 -1 0 595)" d="M112.947 423.582L112.947 435.537" stroke="#000000" stroke-width="0.398" fill="none" /><path id="284" transform="matrix(1 0 0 -1 0 595)" d="M357.319 423.582L357.319 435.537" stroke="#000000" stroke-width="0.398" fill="none" /><path id="308" transform="matrix(1 0 0 -1 0 595)" d="M481.194 423.582L481.194 435.537" stroke="#000000" stroke-width="0.398" fill="none" /><path id="332" transform="matrix(1 0 0 -1 0 595)" d="M605.068 423.582L605.068 435.537" stroke="#000000" stroke-width="0.398" fill="none" /><path id="356" transform="matrix(1 0 0 -1 0 595)" d="M728.942 423.582L728.942 435.537" stroke="#000000" stroke-width="0.398" fill="none" /><path id="357" transform="matrix(1 0 0 -1 0 595)" d="M112.748 423.383L729.142 423.383" stroke="#000000" stroke-width="0.398" fill="none" /><path id="358" transform="matrix(1 0 0 -1 0 595)" d="M112.947 411.228L112.947 423.183" stroke="#000000" stroke-width="0.398" fill="none" /><path id="368" transform="matrix(1 0 0 -1 0 595)" d="M357.319 411.228L357.319 423.183" stroke="#000000" stroke-width="0.398" fill="none" /><path id="419" transform="matrix(1 0 0 -1 0 595)" d="M728.942 411.228L728.942 423.183" stroke="#000000" stroke-width="0.398" fill="none" /><path id="420" transform="matrix(1 0 0 -1 0 595)" d="M112.748 411.029L729.142 411.029" stroke="#000000" stroke-width="0.398" fill="none" /><path id="421" transform="matrix(1 0 0 -1 0 595)" d="M112.947 398.874L112.947 410.8289" stroke="#000000" stroke-width="0.398" fill="none" /><path id="438" transform="matrix(1 0 0 -1 0 595)" d="M357.319 398.874L357.319 410.8289" stroke="#000000" stroke-width="0.398" fill="none" /><path id="444" transform="matrix(1 0 0 -1 0 595)" d="M481.194 398.874L481.194 410.8289" stroke="#000000" stroke-width="0.398" fill="none" /><path id="450" transform="matrix(1 0 0 -1 0 595)" d="M605.068 398.874L605.068 410.8289" stroke="#000000" stroke-width="0.398" fill="none" /><path id="451" transform="matrix(1 0 0 -1 0 595)" d="M728.942 398.874L728.942 410.8289" stroke="#000000" stroke-width="0.398" fill="none" /><path id="452" transform="matrix(1 0 0 -1 0 595)" d="M112.748 398.675L729.142 398.675" stroke="#000000" stroke-width="0.398" fill="none" /><path id="453" transform="matrix(1 0 0 -1 0 595)" d="M112.947 386.521L112.947 398.476" stroke="#000000" stroke-width="0.398" fill="none" /><path id="454" transform="matrix(1 0 0 -1 0 595)" d="M357.319 386.521L357.319 398.476" stroke="#000000" stroke-width="0.398" fill="none" /><path id="478" transform="matrix(1 0 0 -1 0 595)" d="M481.194 386.521L481.194 398.476" stroke="#000000" stroke-width="0.398" fill="none" /><path id="502" transform="matrix(1 0 0 -1 0 595)" d="M605.068 386.521L605.068 398.476" stroke="#000000" stroke-width="0.398" fill="none" /><path id="526" transform="matrix(1 0 0 -1 0 595)" d="M728.942 386.521L728.942 398.476" stroke="#000000" stroke-width="0.398" fill="none" /><path id="527" transform="matrix(1 0 0 -1 0 595)" d="M357.518 386.322L729.141 386.322" stroke="#000000" stroke-width="0.398" fill="none" /><path id="528" transform="matrix(1 0 0 -1 0 595)" d="M112.947 374.566L112.947 386.521" stroke="#000000" stroke-width="0.398" fill="none" /><path id="565" transform="matrix(1 0 0 -1 0 595)" d="M357.319 374.566L357.319 386.521" stroke="#000000" stroke-width="0.398" fill="none" /><path id="616" transform="matrix(1 0 0 -1 0 595)" d="M728.942 374.566L728.942 386.521" stroke="#000000" stroke-width="0.398" fill="none" /><path id="617" transform="matrix(1 0 0 -1 0 595)" d="M112.748 374.366L729.142 374.366" stroke="#000000" stroke-width="0.398" fill="none" /><path id="618" transform="matrix(1 0 0 -1 0 595)" d="M112.947 362.212L112.947 374.167" stroke="#000000" stroke-width="0.398" fill="none" /><path id="646" transform="matrix(1 0 0 -1 0 595)" d="M357.319 362.212L357.319 374.167" stroke="#000000" stroke-width="0.398" fill="none" /><path id="654" transform="matrix(1 0 0 -1 0 595)" d="M481.194 362.212L481.194 374.167" stroke="#000000" stroke-width="0.398" fill="none" /><path id="662" transform="matrix(1 0 0 -1 0 595)" d="M605.068 362.212L605.068 374.167" stroke="#000000" stroke-width="0.398" fill="none" /><path id="670" transform="matrix(1 0 0 -1 0 595)" d="M728.942 362.212L728.942 374.167" stroke="#000000" stroke-width="0.398" fill="none" /><path id="671" transform="matrix(1 0 0 -1 0 595)" d="M112.748 362.013L729.142 362.013" stroke="#000000" stroke-width="0.398" fill="none" /><path id="672" transform="matrix(1 0 0 -1 0 595)" d="M112.947 349.858L112.947 361.813" stroke="#000000" stroke-width="0.398" fill="none" /><path id="696" transform="matrix(1 0 0 -1 0 595)" d="M357.319 349.858L357.319 361.813" stroke="#000000" stroke-width="0.398" fill="none" /><path id="705" transform="matrix(1 0 0 -1 0 595)" d="M481.194 349.858L481.194 361.813" stroke="#000000" stroke-width="0.398" fill="none" /><path id="714" transform="matrix(1 0 0 -1 0 595)" d="M605.068 349.858L605.068 361.813" stroke="#000000" stroke-width="0.398" fill="none" /><path id="715" transform="matrix(1 0 0 -1 0 595)" d="M728.942 349.858L728.942 361.813" stroke="#000000" stroke-width="0.398" fill="none" /><path id="716" transform="matrix(1 0 0 -1 0 595)" d="M112.748 349.659L729.142 349.659" stroke="#000000" stroke-width="0.398" fill="none" /><path id="717" transform="matrix(1 0 0 -1 0 595)" d="M112.947 337.505L112.947 349.46" stroke="#000000" stroke-width="0.398" fill="none" /><path id="718" transform="matrix(1 0 0 -1 0 595)" d="M113.146 337.505L357.119 337.505L357.119 349.46L113.146 349.46z" stroke="none" fill="#CBCEFB" fill-rule="nonzero" /><path id="754" transform="matrix(1 0 0 -1 0 595)" d="M357.319 337.505L357.319 349.46" stroke="#000000" stroke-width="0.398" fill="none" /><path id="755" transform="matrix(1 0 0 -1 0 595)" d="M357.718 337.505L357.718 349.46" stroke="#000000" stroke-width="0.398" fill="none" /><path id="756" transform="matrix(1 0 0 -1 0 595)" d="M357.917 337.505L480.994 337.505L480.994 349.46L357.917 349.46z" stroke="none" fill="#CBCEFB" fill-rule="nonzero" /><path id="760" transform="matrix(1 0 0 -1 0 595)" d="M481.194 337.505L481.194 349.46" stroke="#000000" stroke-width="0.398" fill="none" /><path id="761" transform="matrix(1 0 0 -1 0 595)" d="M481.592 337.505L481.592 349.46" stroke="#000000" stroke-width="0.398" fill="none" /><path id="762" transform="matrix(1 0 0 -1 0 595)" d="M481.791 337.505L604.868 337.505L604.868 349.46L481.791 349.46z" stroke="none" fill="#CBCEFB" fill-rule="nonzero" /><path id="769" transform="matrix(1 0 0 -1 0 595)" d="M605.068 337.505L605.068 349.46" stroke="#000000" stroke-width="0.398" fill="none" /><path id="770" transform="matrix(1 0 0 -1 0 595)" d="M605.267 337.505L728.743 337.505L728.743 349.46L605.267 349.46z" stroke="none" fill="#CBCEFB" fill-rule="nonzero" /><path id="776" transform="matrix(1 0 0 -1 0 595)" d="M728.942 337.505L728.942 349.46" stroke="#000000" stroke-width="0.398" fill="none" /><path id="777" transform="matrix(1 0 0 -1 0 595)" d="M112.748 337.305L729.142 337.305" stroke="#000000" stroke-width="0.398" fill="none" /><path id="778" transform="matrix(1 0 0 -1 0 595)" d="M112.947 325.151L112.947 337.106" stroke="#000000" stroke-width="0.398" fill="none" /><path id="779" transform="matrix(1 0 0 -1 0 595)" d="M281.314 325.151L281.314 337.106" stroke="#000000" stroke-width="0.398" fill="none" /><path id="787" transform="matrix(1 0 0 -1 0 595)" d="M357.319 325.151L357.319 337.106" stroke="#000000" stroke-width="0.398" fill="none" /><path id="796" transform="matrix(1 0 0 -1 0 595)" d="M481.194 325.151L481.194 337.106" stroke="#000000" stroke-width="0.398" fill="none" /><path id="805" transform="matrix(1 0 0 -1 0 595)" d="M605.068 325.151L605.068 337.106" stroke="#000000" stroke-width="0.398" fill="none" /><path id="814" transform="matrix(1 0 0 -1 0 595)" d="M728.942 325.151L728.942 337.106" stroke="#000000" stroke-width="0.398" fill="none" /><path id="815" transform="matrix(1 0 0 -1 0 595)" d="M281.514 324.952L729.142 324.952" stroke="#000000" stroke-width="0.398" fill="none" /><path id="816" transform="matrix(1 0 0 -1 0 595)" d="M112.947 313.196L112.947 325.151" stroke="#000000" stroke-width="0.398" fill="none" /><path id="817" transform="matrix(1 0 0 -1 0 595)" d="M281.314 313.196L281.314 325.151" stroke="#000000" stroke-width="0.398" fill="none" /><path id="830" transform="matrix(1 0 0 -1 0 595)" d="M357.319 313.196L357.319 325.151" stroke="#000000" stroke-width="0.398" fill="none" /><path id="840" transform="matrix(1 0 0 -1 0 595)" d="M481.194 313.196L481.194 325.151" stroke="#000000" stroke-width="0.398" fill="none" /><path id="850" transform="matrix(1 0 0 -1 0 595)" d="M605.068 313.196L605.068 325.151" stroke="#000000" stroke-width="0.398" fill="none" /><path id="860" transform="matrix(1 0 0 -1 0 595)" d="M728.942 313.196L728.942 325.151" stroke="#000000" stroke-width="0.398" fill="none" /><path id="861" transform="matrix(1 0 0 -1 0 595)" d="M281.514 312.996L729.142 312.996" stroke="#000000" stroke-width="0.398" fill="none" /><path id="862" transform="matrix(1 0 0 -1 0 595)" d="M112.947 301.241L112.947 313.196" stroke="#000000" stroke-width="0.398" fill="none" /><path id="894" transform="matrix(1 0 0 -1 0 595)" d="M281.314 301.241L281.314 313.196" stroke="#000000" stroke-width="0.398" fill="none" /><path id="904" transform="matrix(1 0 0 -1 0 595)" d="M357.319 301.241L357.319 313.196" stroke="#000000" stroke-width="0.398" fill="none" /><path id="914" transform="matrix(1 0 0 -1 0 595)" d="M481.194 301.241L481.194 313.196" stroke="#000000" stroke-width="0.398" fill="none" /><path id="924" transform="matrix(1 0 0 -1 0 595)" d="M605.068 301.241L605.068 313.196" stroke="#000000" stroke-width="0.398" fill="none" /><path id="934" transform="matrix(1 0 0 -1 0 595)" d="M728.942 301.241L728.942 313.196" stroke="#000000" stroke-width="0.398" fill="none" /><path id="935" transform="matrix(1 0 0 -1 0 595)" d="M112.748 301.041L729.142 301.041" stroke="#000000" stroke-width="0.398" fill="none" /><path id="936" transform="matrix(1 0 0 -1 0 595)" d="M112.947 288.887L112.947 300.8419" stroke="#000000" stroke-width="0.398" fill="none" /><path id="953" transform="matrix(1 0 0 -1 0 595)" d="M357.319 288.887L357.319 300.8419" stroke="#000000" stroke-width="0.398" fill="none" /><path id="962" transform="matrix(1 0 0 -1 0 595)" d="M481.194 288.887L481.194 300.8419" stroke="#000000" stroke-width="0.398" fill="none" /><path id="971" transform="matrix(1 0 0 -1 0 595)" d="M605.068 288.887L605.068 300.8419" stroke="#000000" stroke-width="0.398" fill="none" /><path id="972" transform="matrix(1 0 0 -1 0 595)" d="M728.942 288.887L728.942 300.8419" stroke="#000000" stroke-width="0.398" fill="none" /><path id="973" transform="matrix(1 0 0 -1 0 595)" d="M112.748 288.688L729.142 288.688" stroke="#000000" stroke-width="0.398" fill="none" /><path id="974" transform="matrix(1 0 0 -1 0 595)" d="M112.947 276.533L112.947 288.488" stroke="#000000" stroke-width="0.398" fill="none" /><path id="999" transform="matrix(1 0 0 -1 0 595)" d="M357.319 276.533L357.319 288.488" stroke="#000000" stroke-width="0.398" fill="none" /><path id="1007" transform="matrix(1 0 0 -1 0 595)" d="M481.194 276.533L481.194 288.488" stroke="#000000" stroke-width="0.398" fill="none" /><path id="1015" transform="matrix(1 0 0 -1 0 595)" d="M605.068 276.533L605.068 288.488" stroke="#000000" stroke-width="0.398" fill="none" /><path id="1016" transform="matrix(1 0 0 -1 0 595)" d="M728.942 276.533L728.942 288.488" stroke="#000000" stroke-width="0.398" fill="none" /><path id="1017" transform="matrix(1 0 0 -1 0 595)" d="M112.748 276.334L729.142 276.334" stroke="#000000" stroke-width="0.398" fill="none" /><path id="1018" transform="matrix(1 0 0 -1 0 595)" d="M112.947 264.18L112.947 276.1349" stroke="#000000" stroke-width="0.398" fill="none" /><path id="1019" transform="matrix(1 0 0 -1 0 595)" d="M113.146 264.18L357.119 264.18L357.119 276.1349L113.146 276.1349z" stroke="none" fill="#CBCEFB" fill-rule="nonzero" /><path id="1038" transform="matrix(1 0 0 -1 0 595)" d="M357.319 264.18L357.319 276.1349" stroke="#000000" stroke-width="0.398" fill="none" /><path id="1039" transform="matrix(1 0 0 -1 0 595)" d="M357.518 264.18L480.994 264.18L480.994 276.1349L357.518 276.1349z" stroke="none" fill="#CBCEFB" fill-rule="nonzero" /><path id="1043" transform="matrix(1 0 0 -1 0 595)" d="M481.194 264.18L481.194 276.1349" stroke="#000000" stroke-width="0.398" fill="none" /><path id="1044" transform="matrix(1 0 0 -1 0 595)" d="M481.393 264.18L604.869 264.18L604.869 276.1349L481.393 276.1349z" stroke="none" fill="#CBCEFB" fill-rule="nonzero" /><path id="1051" transform="matrix(1 0 0 -1 0 595)" d="M605.068 264.18L605.068 276.1349" stroke="#000000" stroke-width="0.398" fill="none" /><path id="1052" transform="matrix(1 0 0 -1 0 595)" d="M605.267 264.18L728.743 264.18L728.743 276.1349L605.267 276.1349z" stroke="none" fill="#CBCEFB" fill-rule="nonzero" /><path id="1058" transform="matrix(1 0 0 -1 0 595)" d="M728.942 264.18L728.942 276.1349" stroke="#000000" stroke-width="0.398" fill="none" /><path id="1059" transform="matrix(1 0 0 -1 0 595)" d="M112.748 263.98L729.142 263.98" stroke="#000000" stroke-width="0.398" fill="none" /><path id="1060" transform="matrix(1 0 0 -1 0 595)" d="M112.947 251.826L112.947 263.781" stroke="#000000" stroke-width="0.398" fill="none" /><path id="1071" transform="matrix(1 0 0 -1 0 595)" d="M357.319 251.826L357.319 263.781" stroke="#000000" stroke-width="0.398" fill="none" /><path id="1080" transform="matrix(1 0 0 -1 0 595)" d="M481.194 251.826L481.194 263.781" stroke="#000000" stroke-width="0.398" fill="none" /><path id="1089" transform="matrix(1 0 0 -1 0 595)" d="M605.068 251.826L605.068 263.781" stroke="#000000" stroke-width="0.398" fill="none" /><path id="1090" transform="matrix(1 0 0 -1 0 595)" d="M728.942 251.826L728.942 263.781" stroke="#000000" stroke-width="0.398" fill="none" /><path id="1091" transform="matrix(1 0 0 -1 0 595)" d="M112.748 251.627L729.142 251.627" stroke="#000000" stroke-width="0.398" fill="none" /><path id="1092" transform="matrix(1 0 0 -1 0 595)" d="M112.947 239.472L112.947 251.427" stroke="#000000" stroke-width="0.398" fill="none" /><path id="1100" transform="matrix(1 0 0 -1 0 595)" d="M357.319 239.472L357.319 251.427" stroke="#000000" stroke-width="0.398" fill="none" /><path id="1109" transform="matrix(1 0 0 -1 0 595)" d="M481.194 239.472L481.194 251.427" stroke="#000000" stroke-width="0.398" fill="none" /><path id="1118" transform="matrix(1 0 0 -1 0 595)" d="M605.068 239.472L605.068 251.427" stroke="#000000" stroke-width="0.398" fill="none" /><path id="1119" transform="matrix(1 0 0 -1 0 595)" d="M728.942 239.472L728.942 251.427" stroke="#000000" stroke-width="0.398" fill="none" /><path id="1120" transform="matrix(1 0 0 -1 0 595)" d="M112.748 239.273L729.142 239.273" stroke="#000000" stroke-width="0.398" fill="none" /><path id="1121" transform="matrix(1 0 0 -1 0 595)" d="M112.947 227.119L112.947 239.074" stroke="#000000" stroke-width="0.398" fill="none" /><path id="1130" transform="matrix(1 0 0 -1 0 595)" d="M357.319 227.119L357.319 239.074" stroke="#000000" stroke-width="0.398" fill="none" /><path id="1144" transform="matrix(1 0 0 -1 0 595)" d="M481.194 227.119L481.194 239.074" stroke="#000000" stroke-width="0.398" fill="none" /><path id="1158" transform="matrix(1 0 0 -1 0 595)" d="M605.068 227.119L605.068 239.074" stroke="#000000" stroke-width="0.398" fill="none" /><path id="1159" transform="matrix(1 0 0 -1 0 595)" d="M728.942 227.119L728.942 239.074" stroke="#000000" stroke-width="0.398" fill="none" /><path id="1160" transform="matrix(1 0 0 -1 0 595)" d="M112.748 226.919L729.142 226.919" stroke="#000000" stroke-width="0.398" fill="none" /><path id="1161" transform="matrix(1 0 0 -1 0 595)" d="M112.947 214.585L112.947 226.72" stroke="#000000" stroke-width="0.398" fill="none" /><path id="1176" transform="matrix(1 0 0 -1 0 595)" d="M357.319 214.585L357.319 226.72" stroke="#000000" stroke-width="0.398" fill="none" /><path id="1190" transform="matrix(1 0 0 -1 0 595)" d="M481.194 214.585L481.194 226.72" stroke="#000000" stroke-width="0.398" fill="none" /><path id="1204" transform="matrix(1 0 0 -1 0 595)" d="M605.068 214.585L605.068 226.72" stroke="#000000" stroke-width="0.398" fill="none" /><path id="1205" transform="matrix(1 0 0 -1 0 595)" d="M728.942 214.585L728.942 226.72" stroke="#000000" stroke-width="0.398" fill="none" /><path id="1206" transform="matrix(1 0 0 -1 0 595)" d="M112.748 214.386L729.142 214.386" stroke="#000000" stroke-width="0.398" fill="none" /><path id="1207" transform="matrix(1 0 0 -1 0 595)" d="M112.947 202.231L112.947 214.186" stroke="#000000" stroke-width="0.398" fill="none" /><path id="1208" transform="matrix(1 0 0 -1 0 595)" d="M113.146 202.231L357.119 202.231L357.119 214.186L113.146 214.186z" stroke="none" fill="#CBCEFB" fill-rule="nonzero" /><path id="1225" transform="matrix(1 0 0 -1 0 595)" d="M357.319 202.231L357.319 214.186" stroke="#000000" stroke-width="0.398" fill="none" /><path id="1226" transform="matrix(1 0 0 -1 0 595)" d="M357.518 202.231L480.994 202.231L480.994 214.186L357.518 214.186z" stroke="none" fill="#CBCEFB" fill-rule="nonzero" /><path id="1230" transform="matrix(1 0 0 -1 0 595)" d="M481.194 202.231L481.194 214.186" stroke="#000000" stroke-width="0.398" fill="none" /><path id="1231" transform="matrix(1 0 0 -1 0 595)" d="M481.393 202.231L604.869 202.231L604.869 214.186L481.393 214.186z" stroke="none" fill="#CBCEFB" fill-rule="nonzero" /><path id="1238" transform="matrix(1 0 0 -1 0 595)" d="M605.068 202.231L605.068 214.186" stroke="#000000" stroke-width="0.398" fill="none" /><path id="1239" transform="matrix(1 0 0 -1 0 595)" d="M605.267 202.231L728.743 202.231L728.743 214.186L605.267 214.186z" stroke="none" fill="#CBCEFB" fill-rule="nonzero" /><path id="1245" transform="matrix(1 0 0 -1 0 595)" d="M728.942 202.231L728.942 214.186" stroke="#000000" stroke-width="0.398" fill="none" /><path id="1246" transform="matrix(1 0 0 -1 0 595)" d="M112.748 202.032L729.142 202.032" stroke="#000000" stroke-width="0.398" fill="none" /><path id="1247" transform="matrix(1 0 0 -1 0 595)" d="M112.947 189.698L112.947 201.833" stroke="#000000" stroke-width="0.398" fill="none" /><path id="1280" transform="matrix(1 0 0 -1 0 595)" d="M357.319 189.698L357.319 201.833" stroke="#000000" stroke-width="0.398" fill="none" /><path id="1291" transform="matrix(1 0 0 -1 0 595)" d="M481.194 189.698L481.194 201.833" stroke="#000000" stroke-width="0.398" fill="none" /><path id="1302" transform="matrix(1 0 0 -1 0 595)" d="M605.068 189.698L605.068 201.833" stroke="#000000" stroke-width="0.398" fill="none" /><path id="1303" transform="matrix(1 0 0 -1 0 595)" d="M728.942 189.698L728.942 201.833" stroke="#000000" stroke-width="0.398" fill="none" /><path id="1304" transform="matrix(1 0 0 -1 0 595)" d="M112.748 189.499L729.142 189.499" stroke="#000000" stroke-width="0.398" fill="none" /><path id="1305" transform="matrix(1 0 0 -1 0 595)" d="M112.947 177.344L112.947 189.299" stroke="#000000" stroke-width="0.398" fill="none" /><path id="1306" transform="matrix(1 0 0 -1 0 595)" d="M357.319 177.344L357.319 189.299" stroke="#000000" stroke-width="0.398" fill="none" /><path id="1316" transform="matrix(1 0 0 -1 0 595)" d="M481.194 177.344L481.194 189.299" stroke="#000000" stroke-width="0.398" fill="none" /><path id="1326" transform="matrix(1 0 0 -1 0 595)" d="M605.068 177.344L605.068 189.299" stroke="#000000" stroke-width="0.398" fill="none" /><path id="1327" transform="matrix(1 0 0 -1 0 595)" d="M728.942 177.344L728.942 189.299" stroke="#000000" stroke-width="0.398" fill="none" /><path id="1328" transform="matrix(1 0 0 -1 0 595)" d="M357.518 177.145L729.141 177.145" stroke="#000000" stroke-width="0.398" fill="none" /><path id="1329" transform="matrix(1 0 0 -1 0 595)" d="M112.947 165.389L112.947 177.344" stroke="#000000" stroke-width="0.398" fill="none" /><path id="1360" transform="matrix(1 0 0 -1 0 595)" d="M357.319 165.389L357.319 177.344" stroke="#000000" stroke-width="0.398" fill="none" /><path id="1369" transform="matrix(1 0 0 -1 0 595)" d="M481.194 165.389L481.194 177.344" stroke="#000000" stroke-width="0.398" fill="none" /><path id="1378" transform="matrix(1 0 0 -1 0 595)" d="M605.068 165.389L605.068 177.344" stroke="#000000" stroke-width="0.398" fill="none" /><path id="1379" transform="matrix(1 0 0 -1 0 595)" d="M728.942 165.389L728.942 177.344" stroke="#000000" stroke-width="0.398" fill="none" /><path id="1380" transform="matrix(1 0 0 -1 0 595)" d="M112.748 165.19L729.142 165.19" stroke="#000000" stroke-width="0.398" fill="none" /><path id="1381" transform="matrix(1 0 0 -1 0 595)" d="M112.947 153.035L112.947 164.99" stroke="#000000" stroke-width="0.398" fill="none" /><path id="1382" transform="matrix(1 0 0 -1 0 595)" d="M113.146 153.035L357.119 153.035L357.119 164.99L113.146 164.99z" stroke="none" fill="#CBCEFB" fill-rule="nonzero" /><path id="1396" transform="matrix(1 0 0 -1 0 595)" d="M357.319 153.035L357.319 164.99" stroke="#000000" stroke-width="0.398" fill="none" /><path id="1397" transform="matrix(1 0 0 -1 0 595)" d="M357.518 153.035L480.994 153.035L480.994 164.99L357.518 164.99z" stroke="none" fill="#CBCEFB" fill-rule="nonzero" /><path id="1401" transform="matrix(1 0 0 -1 0 595)" d="M481.194 153.035L481.194 164.99" stroke="#000000" stroke-width="0.398" fill="none" /><path id="1402" transform="matrix(1 0 0 -1 0 595)" d="M481.393 153.035L604.869 153.035L604.869 164.99L481.393 164.99z" stroke="none" fill="#CBCEFB" fill-rule="nonzero" /><path id="1409" transform="matrix(1 0 0 -1 0 595)" d="M605.068 153.035L605.068 164.99" stroke="#000000" stroke-width="0.398" fill="none" /><path id="1410" transform="matrix(1 0 0 -1 0 595)" d="M605.267 153.035L728.743 153.035L728.743 164.99L605.267 164.99z" stroke="none" fill="#CBCEFB" fill-rule="nonzero" /><path id="1416" transform="matrix(1 0 0 -1 0 595)" d="M728.942 153.035L728.942 164.99" stroke="#000000" stroke-width="0.398" fill="none" /><path id="1417" transform="matrix(1 0 0 -1 0 595)" d="M112.748 152.836L729.142 152.836" stroke="#000000" stroke-width="0.398" fill="none" /><path id="1418" transform="matrix(1 0 0 -1 0 595)" d="M112.947 140.682L112.947 152.637" stroke="#000000" stroke-width="0.398" fill="none" /><path id="1442" transform="matrix(1 0 0 -1 0 595)" d="M357.319 140.682L357.319 152.637" stroke="#000000" stroke-width="0.398" fill="none" /><path id="1452" transform="matrix(1 0 0 -1 0 595)" d="M481.194 140.682L481.194 152.637" stroke="#000000" stroke-width="0.398" fill="none" /><path id="1453" transform="matrix(1 0 0 -1 0 595)" d="M605.068 140.682L605.068 152.637" stroke="#000000" stroke-width="0.398" fill="none" /><path id="1454" transform="matrix(1 0 0 -1 0 595)" d="M728.942 140.682L728.942 152.637" stroke="#000000" stroke-width="0.398" fill="none" /><path id="1455" transform="matrix(1 0 0 -1 0 595)" d="M112.748 140.483L729.142 140.483" stroke="#000000" stroke-width="0.398" fill="none" /><path id="1456" transform="matrix(1 0 0 -1 0 595)" d="M112.947 128.328L112.947 140.283" stroke="#000000" stroke-width="0.398" fill="none" /><path id="1484" transform="matrix(1 0 0 -1 0 595)" d="M357.319 128.328L357.319 140.283" stroke="#000000" stroke-width="0.398" fill="none" /><path id="1494" transform="matrix(1 0 0 -1 0 595)" d="M481.194 128.328L481.194 140.283" stroke="#000000" stroke-width="0.398" fill="none" /><path id="1495" transform="matrix(1 0 0 -1 0 595)" d="M605.068 128.328L605.068 140.283" stroke="#000000" stroke-width="0.398" fill="none" /><path id="1496" transform="matrix(1 0 0 -1 0 595)" d="M728.942 128.328L728.942 140.283" stroke="#000000" stroke-width="0.398" fill="none" /><path id="1497" transform="matrix(1 0 0 -1 0 595)" d="M112.748 128.129L729.142 128.129" stroke="#000000" stroke-width="0.398" fill="none" /><path id="1498" transform="matrix(1 0 0 -1 0 595)" d="M112.947 67.614L112.947 127.929" stroke="#000000" stroke-width="0.398" fill="none" /><path id="1695" transform="matrix(1 0 0 -1 0 595)" d="M728.942 67.614L728.942 127.929" stroke="#000000" stroke-width="0.398" fill="none" /><path id="1696" transform="matrix(1 0 0 -1 0 595)" d="M112.748 67.415L729.142 67.415" stroke="#000000" stroke-width="0.398" fill="none" /></g></g></svg>