<svg xmlns="http://www.w3.org/2000/svg" xmlns:xlink="http://www.w3.org/1999/xlink" id="body_4" preserveAspectRatio="xMinYMin meet" viewBox="0 0 793 1121"><defs><clipPath id="1"><path id="" clip-rule="evenodd" transform="matrix(1 0 0 1 0 0)" d="M0 841L0 -0.8900146L0 -0.8900146L595.276 -0.8900146L595.276 -0.8900146L595.276 841L595.276 841L0 841z" /></clipPath></defs><g transform="matrix(1.333333 0 0 1.333333 0 0)"><g clip-path="url(#1)"><path id="1" transform="matrix(1 0 0 -1 0 841)" d="M85.039 737.008L115.07 737.008L115.07 756.85L85.039 756.85z" stroke="none" fill="#FDE0D1" fill-rule="nonzero" /><path id="4" transform="matrix(1 0 0 -1 0 841)" d="M119.055 737.008L510.236 737.008L510.236 756.85L119.055 756.85z" stroke="none" fill="#FAC2A3" fill-rule="nonzero" /><path id="1509" transform="matrix(1 0 0 -1 0 841)" d="M85.039 227.51L115.07 227.51L115.07 247.352L85.039 247.352z" stroke="none" fill="#FDE0D1" fill-rule="nonzero" /><path id="1511" transform="matrix(1 0 0 -1 0 841)" d="M119.055 227.51L510.236 227.51L510.236 247.352L119.055 247.352z" stroke="none" fill="#FAC2A3" fill-rule="nonzero" /></g></g></svg>