<svg xmlns="http://www.w3.org/2000/svg" xmlns:xlink="http://www.w3.org/1999/xlink" id="body_140" preserveAspectRatio="xMinYMin meet" viewBox="0 0 793 1121"><defs><clipPath id="1"><path id="" clip-rule="evenodd" transform="matrix(1 0 0 1 0 0)" d="M0 841L0 -0.8900146L0 -0.8900146L595.276 -0.8900146L595.276 -0.8900146L595.276 841L595.276 841L0 841z" /></clipPath></defs><g transform="matrix(1.333333 0 0 1.333333 0 0)"><g clip-path="url(#1)"><path id="27" transform="matrix(1 0 0 -1 0 841)" d="M85.039 766.564L510.236 766.564" stroke="#000000" stroke-width="0.498" fill="none" /><path id="1473" transform="matrix(1 0 0 -1 0 841)" d="M85.039 168.526L508.111 168.526" stroke="#000000" stroke-width="0.398" fill="none" /><path id="1474" transform="matrix(1 0 0 -1 0 841)" d="M85.239 154.778L85.239 168.327" stroke="#000000" stroke-width="0.398" fill="none" /><path id="1487" transform="matrix(1 0 0 -1 0 841)" d="M268.787 154.778L268.787 168.327" stroke="#000000" stroke-width="0.398" fill="none" /><path id="1511" transform="matrix(1 0 0 -1 0 841)" d="M507.913 154.778L507.913 168.327" stroke="#000000" stroke-width="0.398" fill="none" /><path id="1512" transform="matrix(1 0 0 -1 0 841)" d="M85.039 154.579L508.111 154.579" stroke="#000000" stroke-width="0.398" fill="none" /><path id="1513" transform="matrix(1 0 0 -1 0 841)" d="M85.239 140.83L85.239 154.379" stroke="#000000" stroke-width="0.398" fill="none" /><path id="1545" transform="matrix(1 0 0 -1 0 841)" d="M268.787 140.83L268.787 154.379" stroke="#000000" stroke-width="0.398" fill="none" /><path id="1586" transform="matrix(1 0 0 -1 0 841)" d="M507.913 140.83L507.913 154.379" stroke="#000000" stroke-width="0.398" fill="none" /><path id="1587" transform="matrix(1 0 0 -1 0 841)" d="M85.039 140.631L508.111 140.631" stroke="#000000" stroke-width="0.398" fill="none" /><path id="1588" transform="matrix(1 0 0 -1 0 841)" d="M85.239 113.333L85.239 140.431" stroke="#000000" stroke-width="0.398" fill="none" /><path id="1596" transform="matrix(1 0 0 -1 0 841)" d="M268.787 113.333L268.787 140.431" stroke="#000000" stroke-width="0.398" fill="none" /><path id="1659" transform="matrix(1 0 0 -1 0 841)" d="M507.913 113.333L507.913 140.431" stroke="#000000" stroke-width="0.398" fill="none" /><path id="1660" transform="matrix(1 0 0 -1 0 841)" d="M85.039 113.134L508.111 113.134" stroke="#000000" stroke-width="0.398" fill="none" /><path id="1661" transform="matrix(1 0 0 -1 0 841)" d="M85.239 99.386L85.239 112.935" stroke="#000000" stroke-width="0.398" fill="none" /><path id="1688" transform="matrix(1 0 0 -1 0 841)" d="M268.787 99.386L268.787 112.935" stroke="#000000" stroke-width="0.398" fill="none" /><path id="1703" transform="matrix(1 0 0 -1 0 841)" d="M507.913 99.386L507.913 112.935" stroke="#000000" stroke-width="0.398" fill="none" /><path id="1704" transform="matrix(1 0 0 -1 0 841)" d="M85.039 99.186L508.111 99.186" stroke="#000000" stroke-width="0.398" fill="none" /><path id="1705" transform="matrix(1 0 0 -1 0 841)" d="M85.239 85.438L85.239 98.987" stroke="#000000" stroke-width="0.398" fill="none" /><path id="1740" transform="matrix(1 0 0 -1 0 841)" d="M268.787 85.438L268.787 98.987" stroke="#000000" stroke-width="0.398" fill="none" /><path id="1767" transform="matrix(1 0 0 -1 0 841)" d="M507.913 85.438L507.913 98.987" stroke="#000000" stroke-width="0.398" fill="none" /><path id="1768" transform="matrix(1 0 0 -1 0 841)" d="M85.039 85.239L508.111 85.239" stroke="#000000" stroke-width="0.398" fill="none" /></g></g></svg>