<svg xmlns="http://www.w3.org/2000/svg" xmlns:xlink="http://www.w3.org/1999/xlink" id="body_75" preserveAspectRatio="xMinYMin meet" viewBox="0 0 793 1121"><defs><clipPath id="1"><path id="" clip-rule="evenodd" transform="matrix(1 0 0 1 0 0)" d="M0 841L0 -0.8900146L0 -0.8900146L595.276 -0.8900146L595.276 -0.8900146L595.276 841L595.276 841L0 841z" /></clipPath></defs><g transform="matrix(1.333333 0 0 1.333333 0 0)"><g clip-path="url(#1)"><path id="14" transform="matrix(1 0 0 -1 0 841)" d="M85.039 766.564L510.236 766.564" stroke="#000000" stroke-width="0.498" fill="none" /><path id="612" transform="matrix(1 0 0 -1 0 841)" d="M85.039 544.725L531.703 544.725" stroke="#000000" stroke-width="0.398" fill="none" /><path id="613" transform="matrix(1 0 0 -1 0 841)" d="M85.239 530.977L85.239 544.526" stroke="#000000" stroke-width="0.398" fill="none" /><path id="623" transform="matrix(1 0 0 -1 0 841)" d="M210.978 530.977L210.978 544.526" stroke="#000000" stroke-width="0.398" fill="none" /><path id="633" transform="matrix(1 0 0 -1 0 841)" d="M308.371 530.977L308.371 544.526" stroke="#000000" stroke-width="0.398" fill="none" /><path id="646" transform="matrix(1 0 0 -1 0 841)" d="M434.111 530.977L434.111 544.526" stroke="#000000" stroke-width="0.398" fill="none" /><path id="658" transform="matrix(1 0 0 -1 0 841)" d="M531.504 530.977L531.504 544.526" stroke="#000000" stroke-width="0.398" fill="none" /><path id="659" transform="matrix(1 0 0 -1 0 841)" d="M85.039 530.777L531.703 530.777" stroke="#000000" stroke-width="0.398" fill="none" /><path id="660" transform="matrix(1 0 0 -1 0 841)" d="M85.239 469.589L85.239 530.578" stroke="#000000" stroke-width="0.398" fill="none" /><path id="699" transform="matrix(1 0 0 -1 0 841)" d="M210.978 469.589L210.978 530.578" stroke="#000000" stroke-width="0.398" fill="none" /><path id="729" transform="matrix(1 0 0 -1 0 841)" d="M308.371 469.589L308.371 530.578" stroke="#000000" stroke-width="0.398" fill="none" /><path id="753" transform="matrix(1 0 0 -1 0 841)" d="M434.111 469.589L434.111 530.578" stroke="#000000" stroke-width="0.398" fill="none" /><path id="808" transform="matrix(1 0 0 -1 0 841)" d="M531.504 469.589L531.504 530.578" stroke="#000000" stroke-width="0.398" fill="none" /><path id="809" transform="matrix(1 0 0 -1 0 841)" d="M85.039 469.39L531.703 469.39" stroke="#000000" stroke-width="0.398" fill="none" /><path id="810" transform="matrix(1 0 0 -1 0 841)" d="M85.239 442.092L85.239 469.19" stroke="#000000" stroke-width="0.398" fill="none" /><path id="837" transform="matrix(1 0 0 -1 0 841)" d="M210.978 442.092L210.978 469.19" stroke="#000000" stroke-width="0.398" fill="none" /><path id="858" transform="matrix(1 0 0 -1 0 841)" d="M308.371 442.092L308.371 469.19" stroke="#000000" stroke-width="0.398" fill="none" /><path id="882" transform="matrix(1 0 0 -1 0 841)" d="M434.111 442.092L434.111 469.19" stroke="#000000" stroke-width="0.398" fill="none" /><path id="890" transform="matrix(1 0 0 -1 0 841)" d="M531.504 442.092L531.504 469.19" stroke="#000000" stroke-width="0.398" fill="none" /><path id="891" transform="matrix(1 0 0 -1 0 841)" d="M85.039 441.893L531.703 441.893" stroke="#000000" stroke-width="0.398" fill="none" /><path id="892" transform="matrix(1 0 0 -1 0 841)" d="M85.239 414.596L85.239 441.694" stroke="#000000" stroke-width="0.398" fill="none" /><path id="929" transform="matrix(1 0 0 -1 0 841)" d="M210.978 414.596L210.978 441.694" stroke="#000000" stroke-width="0.398" fill="none" /><path id="944" transform="matrix(1 0 0 -1 0 841)" d="M308.371 414.596L308.371 441.694" stroke="#000000" stroke-width="0.398" fill="none" /><path id="955" transform="matrix(1 0 0 -1 0 841)" d="M434.111 414.596L434.111 441.694" stroke="#000000" stroke-width="0.398" fill="none" /><path id="971" transform="matrix(1 0 0 -1 0 841)" d="M531.504 414.596L531.504 441.694" stroke="#000000" stroke-width="0.398" fill="none" /><path id="972" transform="matrix(1 0 0 -1 0 841)" d="M85.039 414.396L531.703 414.396" stroke="#000000" stroke-width="0.398" fill="none" /><path id="973" transform="matrix(1 0 0 -1 0 841)" d="M85.239 373.549L85.239 414.197" stroke="#000000" stroke-width="0.398" fill="none" /><path id="988" transform="matrix(1 0 0 -1 0 841)" d="M210.978 373.549L210.978 414.197" stroke="#000000" stroke-width="0.398" fill="none" /><path id="1019" transform="matrix(1 0 0 -1 0 841)" d="M308.371 373.549L308.371 414.197" stroke="#000000" stroke-width="0.398" fill="none" /><path id="1036" transform="matrix(1 0 0 -1 0 841)" d="M434.111 373.549L434.111 414.197" stroke="#000000" stroke-width="0.398" fill="none" /><path id="1044" transform="matrix(1 0 0 -1 0 841)" d="M531.504 373.549L531.504 414.197" stroke="#000000" stroke-width="0.398" fill="none" /><path id="1045" transform="matrix(1 0 0 -1 0 841)" d="M85.039 373.35L531.703 373.35" stroke="#000000" stroke-width="0.398" fill="none" /><path id="1046" transform="matrix(1 0 0 -1 0 841)" d="M85.239 359.602L85.239 373.151" stroke="#000000" stroke-width="0.398" fill="none" /><path id="1061" transform="matrix(1 0 0 -1 0 841)" d="M210.978 359.602L210.978 373.151" stroke="#000000" stroke-width="0.398" fill="none" /><path id="1076" transform="matrix(1 0 0 -1 0 841)" d="M308.371 359.602L308.371 373.151" stroke="#000000" stroke-width="0.398" fill="none" /><path id="1093" transform="matrix(1 0 0 -1 0 841)" d="M434.111 359.602L434.111 373.151" stroke="#000000" stroke-width="0.398" fill="none" /><path id="1101" transform="matrix(1 0 0 -1 0 841)" d="M531.504 359.602L531.504 373.151" stroke="#000000" stroke-width="0.398" fill="none" /><path id="1102" transform="matrix(1 0 0 -1 0 841)" d="M85.039 359.403L531.703 359.403" stroke="#000000" stroke-width="0.398" fill="none" /><path id="1103" transform="matrix(1 0 0 -1 0 841)" d="M85.239 345.654L85.239 359.203" stroke="#000000" stroke-width="0.398" fill="none" /><path id="1106" transform="matrix(1 0 0 -1 0 841)" d="M210.978 345.654L210.978 359.203" stroke="#000000" stroke-width="0.398" fill="none" /><path id="1121" transform="matrix(1 0 0 -1 0 841)" d="M308.371 345.654L308.371 359.203" stroke="#000000" stroke-width="0.398" fill="none" /><path id="1126" transform="matrix(1 0 0 -1 0 841)" d="M434.111 345.654L434.111 359.203" stroke="#000000" stroke-width="0.398" fill="none" /><path id="1141" transform="matrix(1 0 0 -1 0 841)" d="M531.504 345.654L531.504 359.203" stroke="#000000" stroke-width="0.398" fill="none" /><path id="1142" transform="matrix(1 0 0 -1 0 841)" d="M85.039 345.455L531.703 345.455" stroke="#000000" stroke-width="0.398" fill="none" /><path id="1143" transform="matrix(1 0 0 -1 0 841)" d="M85.239 318.157L85.239 345.255" stroke="#000000" stroke-width="0.398" fill="none" /><path id="1176" transform="matrix(1 0 0 -1 0 841)" d="M210.978 318.157L210.978 345.255" stroke="#000000" stroke-width="0.398" fill="none" /><path id="1191" transform="matrix(1 0 0 -1 0 841)" d="M308.371 318.157L308.371 345.255" stroke="#000000" stroke-width="0.398" fill="none" /><path id="1210" transform="matrix(1 0 0 -1 0 841)" d="M434.111 318.157L434.111 345.255" stroke="#000000" stroke-width="0.398" fill="none" /><path id="1217" transform="matrix(1 0 0 -1 0 841)" d="M531.504 318.157L531.504 345.255" stroke="#000000" stroke-width="0.398" fill="none" /><path id="1218" transform="matrix(1 0 0 -1 0 841)" d="M85.039 317.958L531.703 317.958" stroke="#000000" stroke-width="0.398" fill="none" /><path id="1219" transform="matrix(1 0 0 -1 0 841)" d="M85.239 236.464L85.239 317.759" stroke="#000000" stroke-width="0.398" fill="none" /><path id="1230" transform="matrix(1 0 0 -1 0 841)" d="M210.978 236.464L210.978 317.759" stroke="#000000" stroke-width="0.398" fill="none" /><path id="1242" transform="matrix(1 0 0 -1 0 841)" d="M308.371 236.464L308.371 317.759" stroke="#000000" stroke-width="0.398" fill="none" /><path id="1352" transform="matrix(1 0 0 -1 0 841)" d="M434.111 236.464L434.111 317.759" stroke="#000000" stroke-width="0.398" fill="none" /><path id="1359" transform="matrix(1 0 0 -1 0 841)" d="M531.504 236.464L531.504 317.759" stroke="#000000" stroke-width="0.398" fill="none" /><path id="1360" transform="matrix(1 0 0 -1 0 841)" d="M85.039 236.264L531.703 236.264" stroke="#000000" stroke-width="0.398" fill="none" /></g></g></svg>