<svg xmlns="http://www.w3.org/2000/svg" xmlns:xlink="http://www.w3.org/1999/xlink" id="body_269" preserveAspectRatio="xMinYMin meet" viewBox="0 0 793 1121"><defs><clipPath id="1"><path id="" clip-rule="evenodd" transform="matrix(1 0 0 1 0 0)" d="M0 841L0 -0.8900146L0 -0.8900146L595.276 -0.8900146L595.276 -0.8900146L595.276 841L595.276 841L0 841z" /></clipPath></defs><g transform="matrix(1.333333 0 0 1.333333 0 0)"><g clip-path="url(#1)"><path id="22" transform="matrix(1 0 0 -1 0 841)" d="M85.039 766.564L510.236 766.564" stroke="#000000" stroke-width="0.498" fill="none" /><path id="218" transform="matrix(1 0 0 -1 0 841)" d="M396.8539 610.1484C 396.8539 657.1155 358.7806 695.1888 311.8135 695.1888C 264.8463 695.1888 226.773 657.1155 226.773 610.1484C 226.773 563.1813 264.8463 525.108 311.8135 525.108C 358.7806 525.108 396.8539 563.1813 396.8539 610.1484z" stroke="#000000" stroke-width="0.3985" fill="#F2F2F2" fill-rule="nonzero" /><path id="219" transform="matrix(1 0 0 -1 0 841)" d="M226.773 610.1484L396.8539 610.1484" stroke="#000000" stroke-width="1.19553" fill="none" /><path id="276" transform="matrix(1 0 0 -1 0 841)" d="M266.4584 539.2814L311.8135 610.1484" stroke="#000000" stroke-width="1.19553" fill="none" /><path id="277" transform="matrix(1 0 0 -1 0 841)" d="M357.1685 539.2814L311.8135 610.1484" stroke="#000000" stroke-width="1.19553" fill="none" /><path id="278" transform="matrix(1 0 0 -1 0 841)" d="M215.119 610.1484C 215.119 619.3676 207.6455 626.8411 198.4262 626.8411C 189.207 626.8411 181.7335 619.3676 181.7335 610.1484C 181.7335 600.9291 189.207 593.4556 198.4262 593.4556C 207.6455 593.4556 215.119 600.9291 215.119 610.1484z" stroke="#000000" stroke-width="1.39478" fill="#FFCCCC" fill-rule="nonzero" /><path id="279" transform="matrix(1 0 0 -1 0 841)" d="M215.119 610.1484C 215.119 619.3676 207.6455 626.8411 198.4262 626.8411C 189.207 626.8411 181.7335 619.3676 181.7335 610.1484C 181.7335 600.9291 189.207 593.4556 198.4262 593.4556C 207.6455 593.4556 215.119 600.9291 215.119 610.1484z" stroke="#FFFFFF" stroke-width="0.59776" fill="none" /><path id="280" transform="matrix(1 0 0 -1 0 841)" d="M181.9327 610.1484L214.9197 610.1484" stroke="#000000" stroke-width="0.3985" fill="none" /><path id="283" transform="matrix(1 0 0 -1 0 841)" d="M268.8398 519.4387C 268.8398 530.1472 260.1591 538.8279 249.4506 538.8279C 238.7421 538.8279 230.0614 530.1472 230.0614 519.4387C 230.0614 508.7302 238.7421 500.0495 249.4506 500.0495C 260.1591 500.0495 268.8398 508.7302 268.8398 519.4387z" stroke="#000000" stroke-width="1.39478" fill="#FFCCCC" fill-rule="nonzero" /><path id="284" transform="matrix(1 0 0 -1 0 841)" d="M268.8398 519.4387C 268.8398 530.1472 260.1591 538.8279 249.4506 538.8279C 238.7421 538.8279 230.0614 530.1472 230.0614 519.4387C 230.0614 508.7302 238.7421 500.0495 249.4506 500.0495C 260.1591 500.0495 268.8398 508.7302 268.8398 519.4387z" stroke="#FFFFFF" stroke-width="0.59776" fill="none" /><path id="285" transform="matrix(1 0 0 -1 0 841)" d="M230.2606 519.4387L268.6405 519.4387" stroke="#000000" stroke-width="0.3985" fill="none" /><path id="295" transform="matrix(1 0 0 -1 0 841)" d="M387.8963 519.4387C 387.8963 530.1472 379.2156 538.8279 368.5071 538.8279C 357.7986 538.8279 349.1179 530.1472 349.1179 519.4387C 349.1179 508.7302 357.7986 500.0495 368.5071 500.0495C 379.2156 500.0495 387.8963 508.7302 387.8963 519.4387z" stroke="#000000" stroke-width="1.39478" fill="#FFCCCC" fill-rule="nonzero" /><path id="296" transform="matrix(1 0 0 -1 0 841)" d="M387.8963 519.4387C 387.8963 530.1472 379.2156 538.8279 368.5071 538.8279C 357.7986 538.8279 349.1179 530.1472 349.1179 519.4387C 349.1179 508.7302 357.7986 500.0495 368.5071 500.0495C 379.2156 500.0495 387.8963 508.7302 387.8963 519.4387z" stroke="#FFFFFF" stroke-width="0.59776" fill="none" /><path id="297" transform="matrix(1 0 0 -1 0 841)" d="M349.3171 519.4387L387.6971 519.4387" stroke="#000000" stroke-width="0.3985" fill="none" /><path id="482" transform="matrix(1 0 0 -1 0 841)" d="M245.578 394.899L258.909 394.899" stroke="#000000" stroke-width="0.436" fill="none" /><path id="494" transform="matrix(1 0 0 -1 0 841)" d="M373.273 408.862L389.593 408.862" stroke="#000000" stroke-width="0.436" fill="none" /><path id="498" transform="matrix(1 0 0 -1 0 841)" d="M281.137 394.899L447.234 394.899" stroke="#000000" stroke-width="0.436" fill="none" /><path id="622" transform="matrix(1 0 0 -1 0 841)" d="M395.963 344.686L412.283 344.686" stroke="#000000" stroke-width="0.436" fill="none" /><path id="626" transform="matrix(1 0 0 -1 0 841)" d="M323.964 330.723L449.788 330.723" stroke="#000000" stroke-width="0.436" fill="none" /><path id="643" transform="matrix(1 0 0 -1 0 841)" d="M395.424 319.378L408.755 319.378" stroke="#000000" stroke-width="0.436" fill="none" /></g></g></svg>