<svg xmlns="http://www.w3.org/2000/svg" xmlns:xlink="http://www.w3.org/1999/xlink" id="body_243" preserveAspectRatio="xMinYMin meet" viewBox="0 0 793 1121"><defs><clipPath id="1"><path id="" clip-rule="evenodd" transform="matrix(1 0 0 1 0 0)" d="M0 841L0 -0.8900146L0 -0.8900146L595.276 -0.8900146L595.276 -0.8900146L595.276 841L595.276 841L0 841z" /></clipPath></defs><g transform="matrix(1.333333 0 0 1.333333 0 0)"><g clip-path="url(#1)"><path id="22" transform="matrix(1 0 0 -1 0 841)" d="M85.039 766.564L510.236 766.564" stroke="#000000" stroke-width="0.498" fill="none" /><path id="324" transform="matrix(1 0 0 -1 0 841)" d="M85.039 640.139L491.002 640.139" stroke="#000000" stroke-width="0.398" fill="none" /><path id="325" transform="matrix(1 0 0 -1 0 841)" d="M85.239 612.842L85.239 639.94" stroke="#000000" stroke-width="0.398" fill="none" /><path id="331" transform="matrix(1 0 0 -1 0 841)" d="M154.285 612.842L154.285 639.94" stroke="#000000" stroke-width="0.398" fill="none" /><path id="348" transform="matrix(1 0 0 -1 0 841)" d="M322.544 612.842L322.544 639.94" stroke="#000000" stroke-width="0.398" fill="none" /><path id="374" transform="matrix(1 0 0 -1 0 841)" d="M490.804 612.842L490.804 639.94" stroke="#000000" stroke-width="0.398" fill="none" /><path id="375" transform="matrix(1 0 0 -1 0 841)" d="M85.039 612.642L491.002 612.642" stroke="#000000" stroke-width="0.398" fill="none" /><path id="376" transform="matrix(1 0 0 -1 0 841)" d="M85.239 531.148L85.239 612.443" stroke="#000000" stroke-width="0.398" fill="none" /><path id="383" transform="matrix(1 0 0 -1 0 841)" d="M154.285 531.148L154.285 612.443" stroke="#000000" stroke-width="0.398" fill="none" /><path id="488" transform="matrix(1 0 0 -1 0 841)" d="M322.544 531.148L322.544 612.443" stroke="#000000" stroke-width="0.398" fill="none" /><path id="633" transform="matrix(1 0 0 -1 0 841)" d="M490.804 531.148L490.804 612.443" stroke="#000000" stroke-width="0.398" fill="none" /><path id="634" transform="matrix(1 0 0 -1 0 841)" d="M85.039 530.949L491.002 530.949" stroke="#000000" stroke-width="0.398" fill="none" /><path id="635" transform="matrix(1 0 0 -1 0 841)" d="M85.239 422.356L85.239 530.75" stroke="#000000" stroke-width="0.398" fill="none" /><path id="642" transform="matrix(1 0 0 -1 0 841)" d="M154.285 422.356L154.285 530.75" stroke="#000000" stroke-width="0.398" fill="none" /><path id="746" transform="matrix(1 0 0 -1 0 841)" d="M322.544 422.356L322.544 530.75" stroke="#000000" stroke-width="0.398" fill="none" /><path id="960" transform="matrix(1 0 0 -1 0 841)" d="M490.804 422.356L490.804 530.75" stroke="#000000" stroke-width="0.398" fill="none" /><path id="961" transform="matrix(1 0 0 -1 0 841)" d="M85.039 422.157L491.002 422.157" stroke="#000000" stroke-width="0.398" fill="none" /><path id="962" transform="matrix(1 0 0 -1 0 841)" d="M85.239 367.761L85.239 421.958" stroke="#000000" stroke-width="0.398" fill="none" /><path id="969" transform="matrix(1 0 0 -1 0 841)" d="M154.285 367.761L154.285 421.958" stroke="#000000" stroke-width="0.398" fill="none" /><path id="1072" transform="matrix(1 0 0 -1 0 841)" d="M322.544 367.761L322.544 421.958" stroke="#000000" stroke-width="0.398" fill="none" /><path id="1186" transform="matrix(1 0 0 -1 0 841)" d="M490.804 367.761L490.804 421.958" stroke="#000000" stroke-width="0.398" fill="none" /><path id="1187" transform="matrix(1 0 0 -1 0 841)" d="M85.039 367.561L491.002 367.561" stroke="#000000" stroke-width="0.398" fill="none" /><path id="1188" transform="matrix(1 0 0 -1 0 841)" d="M85.239 245.419L85.239 367.362" stroke="#000000" stroke-width="0.398" fill="none" /><path id="1195" transform="matrix(1 0 0 -1 0 841)" d="M154.285 245.419L154.285 367.362" stroke="#000000" stroke-width="0.398" fill="none" /><path id="1429" transform="matrix(1 0 0 -1 0 841)" d="M322.544 245.419L322.544 367.362" stroke="#000000" stroke-width="0.398" fill="none" /><path id="1509" transform="matrix(1 0 0 -1 0 841)" d="M490.804 245.419L490.804 367.362" stroke="#000000" stroke-width="0.398" fill="none" /><path id="1510" transform="matrix(1 0 0 -1 0 841)" d="M85.039 245.22L491.002 245.22" stroke="#000000" stroke-width="0.398" fill="none" /></g></g></svg>