<svg xmlns="http://www.w3.org/2000/svg" xmlns:xlink="http://www.w3.org/1999/xlink" id="body_56" preserveAspectRatio="xMinYMin meet" viewBox="0 0 793 1121"><defs><clipPath id="1"><path id="" clip-rule="evenodd" transform="matrix(1 0 0 1 0 0)" d="M0 841L0 -0.8900146L0 -0.8900146L595.276 -0.8900146L595.276 -0.8900146L595.276 841L595.276 841L0 841z" /></clipPath></defs><g transform="matrix(1.333333 0 0 1.333333 0 0)"><g clip-path="url(#1)"><path id="16" transform="matrix(1 0 0 -1 0 841)" d="M85.039 766.564L510.236 766.564" stroke="#000000" stroke-width="0.498" fill="none" /><path id="17" transform="matrix(1 0 0 -1 0 841)" d="M95.055 756.651L500.221 756.651" stroke="#000000" stroke-width="0.398" fill="none" /><path id="18" transform="matrix(1 0 0 -1 0 841)" d="M95.254 742.903L95.254 756.452" stroke="#000000" stroke-width="0.398" fill="none" /><path id="19" transform="matrix(1 0 0 -1 0 841)" d="M500.022 742.903L500.022 756.452" stroke="#000000" stroke-width="0.398" fill="none" /><path id="20" transform="matrix(1 0 0 -1 0 841)" d="M95.254 729.354L95.254 742.903" stroke="#000000" stroke-width="0.398" fill="none" /><path id="50" transform="matrix(1 0 0 -1 0 841)" d="M500.022 729.354L500.022 742.903" stroke="#000000" stroke-width="0.398" fill="none" /><path id="51" transform="matrix(1 0 0 -1 0 841)" d="M95.254 715.804L95.254 729.353" stroke="#000000" stroke-width="0.398" fill="none" /><path id="52" transform="matrix(1 0 0 -1 0 841)" d="M500.022 715.804L500.022 729.353" stroke="#000000" stroke-width="0.398" fill="none" /><path id="53" transform="matrix(1 0 0 -1 0 841)" d="M95.254 702.255L95.254 715.804" stroke="#000000" stroke-width="0.398" fill="none" /><path id="82" transform="matrix(1 0 0 -1 0 841)" d="M500.022 702.255L500.022 715.804" stroke="#000000" stroke-width="0.398" fill="none" /><path id="83" transform="matrix(1 0 0 -1 0 841)" d="M95.254 688.706L95.254 702.255" stroke="#000000" stroke-width="0.398" fill="none" /><path id="108" transform="matrix(1 0 0 -1 0 841)" d="M500.022 688.706L500.022 702.255" stroke="#000000" stroke-width="0.398" fill="none" /><path id="109" transform="matrix(1 0 0 -1 0 841)" d="M95.254 675.157L95.254 688.706" stroke="#000000" stroke-width="0.398" fill="none" /><path id="152" transform="matrix(1 0 0 -1 0 841)" d="M500.022 675.157L500.022 688.706" stroke="#000000" stroke-width="0.398" fill="none" /><path id="153" transform="matrix(1 0 0 -1 0 841)" d="M95.254 661.608L95.254 675.157" stroke="#000000" stroke-width="0.398" fill="none" /><path id="184" transform="matrix(1 0 0 -1 0 841)" d="M500.022 661.608L500.022 675.157" stroke="#000000" stroke-width="0.398" fill="none" /><path id="185" transform="matrix(1 0 0 -1 0 841)" d="M95.254 648.058L95.254 661.607" stroke="#000000" stroke-width="0.398" fill="none" /><path id="228" transform="matrix(1 0 0 -1 0 841)" d="M500.022 648.058L500.022 661.607" stroke="#000000" stroke-width="0.398" fill="none" /><path id="229" transform="matrix(1 0 0 -1 0 841)" d="M95.254 634.509L95.254 648.058" stroke="#000000" stroke-width="0.398" fill="none" /><path id="256" transform="matrix(1 0 0 -1 0 841)" d="M500.022 634.509L500.022 648.058" stroke="#000000" stroke-width="0.398" fill="none" /><path id="257" transform="matrix(1 0 0 -1 0 841)" d="M95.254 620.96L95.254 634.509" stroke="#000000" stroke-width="0.398" fill="none" /><path id="287" transform="matrix(1 0 0 -1 0 841)" d="M500.022 620.96L500.022 634.509" stroke="#000000" stroke-width="0.398" fill="none" /><path id="288" transform="matrix(1 0 0 -1 0 841)" d="M95.254 607.411L95.254 620.96" stroke="#000000" stroke-width="0.398" fill="none" /><path id="319" transform="matrix(1 0 0 -1 0 841)" d="M500.022 607.411L500.022 620.96" stroke="#000000" stroke-width="0.398" fill="none" /><path id="320" transform="matrix(1 0 0 -1 0 841)" d="M95.254 593.862L95.254 607.411" stroke="#000000" stroke-width="0.398" fill="none" /><path id="349" transform="matrix(1 0 0 -1 0 841)" d="M500.022 593.862L500.022 607.411" stroke="#000000" stroke-width="0.398" fill="none" /><path id="350" transform="matrix(1 0 0 -1 0 841)" d="M95.254 580.313L95.254 593.862" stroke="#000000" stroke-width="0.398" fill="none" /><path id="378" transform="matrix(1 0 0 -1 0 841)" d="M500.022 580.313L500.022 593.862" stroke="#000000" stroke-width="0.398" fill="none" /><path id="379" transform="matrix(1 0 0 -1 0 841)" d="M95.254 566.763L95.254 580.312" stroke="#000000" stroke-width="0.398" fill="none" /><path id="399" transform="matrix(1 0 0 -1 0 841)" d="M500.022 566.763L500.022 580.312" stroke="#000000" stroke-width="0.398" fill="none" /><path id="400" transform="matrix(1 0 0 -1 0 841)" d="M95.254 553.214L95.254 566.763" stroke="#000000" stroke-width="0.398" fill="none" /><path id="421" transform="matrix(1 0 0 -1 0 841)" d="M500.022 553.214L500.022 566.763" stroke="#000000" stroke-width="0.398" fill="none" /><path id="422" transform="matrix(1 0 0 -1 0 841)" d="M95.254 539.665L95.254 553.214" stroke="#000000" stroke-width="0.398" fill="none" /><path id="441" transform="matrix(1 0 0 -1 0 841)" d="M500.022 539.665L500.022 553.214" stroke="#000000" stroke-width="0.398" fill="none" /><path id="442" transform="matrix(1 0 0 -1 0 841)" d="M95.055 539.466L500.221 539.466" stroke="#000000" stroke-width="0.398" fill="none" /></g></g></svg>