<svg xmlns="http://www.w3.org/2000/svg" xmlns:xlink="http://www.w3.org/1999/xlink" id="body_62" preserveAspectRatio="xMinYMin meet" viewBox="0 0 793 1121"><defs><clipPath id="1"><path id="" clip-rule="evenodd" transform="matrix(1 0 0 1 0 0)" d="M0 841L0 -0.8900146L0 -0.8900146L595.276 -0.8900146L595.276 -0.8900146L595.276 841L595.276 841L0 841z" /></clipPath></defs><g transform="matrix(1.333333 0 0 1.333333 0 0)"><g clip-path="url(#1)"><path id="45" transform="matrix(1 0 0 -1 0 841)" d="M85.039 766.564L510.236 766.564" stroke="#000000" stroke-width="0.498" fill="none" /><path id="1636" transform="matrix(1 0 0 -1 0 841)" d="M136.063 217.095L152.314 217.095" stroke="#000000" stroke-width="0.491" fill="none" /><path id="1640" transform="matrix(1 0 0 -1 0 841)" d="M151.863 217.095L168.725 217.095" stroke="#000000" stroke-width="0.491" fill="none" /><path id="1644" transform="matrix(1 0 0 -1 0 841)" d="M168.276 217.095L181.494 217.095" stroke="#000000" stroke-width="0.491" fill="none" /><path id="1648" transform="matrix(1 0 0 -1 0 841)" d="M181.283 217.095L184.008 217.095" stroke="#000000" stroke-width="0.491" fill="none" /><path id="1649" transform="matrix(1 0 0 -1 0 841)" d="M183.758 217.095L203.641 217.095" stroke="#000000" stroke-width="0.491" fill="none" /><path id="1654" transform="matrix(1 0 0 -1 0 841)" d="M203.202 217.095L222.485 217.095" stroke="#000000" stroke-width="0.491" fill="none" /><path id="1659" transform="matrix(1 0 0 -1 0 841)" d="M222.292 217.095L225.017 217.095" stroke="#000000" stroke-width="0.491" fill="none" /><path id="1660" transform="matrix(1 0 0 -1 0 841)" d="M224.768 217.095L234.353 217.095" stroke="#000000" stroke-width="0.491" fill="none" /><path id="1663" transform="matrix(1 0 0 -1 0 841)" d="M234.132 217.095L236.857 217.095" stroke="#000000" stroke-width="0.491" fill="none" /><path id="1664" transform="matrix(1 0 0 -1 0 841)" d="M236.607 217.095L253.468 217.095" stroke="#000000" stroke-width="0.491" fill="none" /><path id="1668" transform="matrix(1 0 0 -1 0 841)" d="M253.02 217.095L264.427 217.095" stroke="#000000" stroke-width="0.491" fill="none" /><path id="1671" transform="matrix(1 0 0 -1 0 841)" d="M263.962 217.095L282.024 217.095" stroke="#000000" stroke-width="0.491" fill="none" /><path id="1676" transform="matrix(1 0 0 -1 0 841)" d="M281.827 217.095L284.552 217.095" stroke="#000000" stroke-width="0.491" fill="none" /><path id="1677" transform="matrix(1 0 0 -1 0 841)" d="M284.303 217.095L304.186 217.095" stroke="#000000" stroke-width="0.491" fill="none" /><path id="1682" transform="matrix(1 0 0 -1 0 841)" d="M303.746 217.095L323.029 217.095" stroke="#000000" stroke-width="0.491" fill="none" /><path id="1852" transform="matrix(1 0 0 -1 0 841)" d="M136.063 149.349L155.347 149.349" stroke="#000000" stroke-width="0.491" fill="none" /><path id="1856" transform="matrix(1 0 0 -1 0 841)" d="M154.849 149.349L158.98 149.349" stroke="#000000" stroke-width="0.491" fill="none" /><path id="1858" transform="matrix(1 0 0 -1 0 841)" d="M158.481 149.349L172.299 149.349" stroke="#000000" stroke-width="0.491" fill="none" /><path id="1862" transform="matrix(1 0 0 -1 0 841)" d="M171.801 149.349L188.663 149.349" stroke="#000000" stroke-width="0.491" fill="none" /><path id="1866" transform="matrix(1 0 0 -1 0 841)" d="M188.165 149.349L201.383 149.349" stroke="#000000" stroke-width="0.491" fill="none" /><path id="1870" transform="matrix(1 0 0 -1 0 841)" d="M201.133 149.349L203.86 149.349" stroke="#000000" stroke-width="0.491" fill="none" /><path id="1871" transform="matrix(1 0 0 -1 0 841)" d="M203.612 149.349L223.495 149.349" stroke="#000000" stroke-width="0.491" fill="none" /><path id="1876" transform="matrix(1 0 0 -1 0 841)" d="M222.997 149.349L242.28 149.349" stroke="#000000" stroke-width="0.491" fill="none" /></g></g></svg>