<svg xmlns="http://www.w3.org/2000/svg" xmlns:xlink="http://www.w3.org/1999/xlink" id="body_353" preserveAspectRatio="xMinYMin meet" viewBox="0 0 793 1121"><defs><clipPath id="1"><path id="" clip-rule="evenodd" transform="matrix(1 0 0 1 0 0)" d="M0 841L0 -0.8900146L0 -0.8900146L595.276 -0.8900146L595.276 -0.8900146L595.276 841L595.276 841L0 841z" /></clipPath></defs><g transform="matrix(1.333333 0 0 1.333333 0 0)"><g clip-path="url(#1)"><path id="34" transform="matrix(1 0 0 -1 0 841)" d="M85.039 766.564L510.236 766.564" stroke="#000000" stroke-width="0.498" fill="none" /><path id="268" transform="matrix(1 0 0 -1 0 841)" d="M313.407 676.117L338.258 676.117" stroke="#000000" stroke-width="0.436" fill="none" /><path id="289" transform="matrix(1 0 0 -1 0 841)" d="M392.452 676.117L406.95 676.117" stroke="#000000" stroke-width="0.436" fill="none" /><path id="295" transform="matrix(1 0 0 -1 0 841)" d="M227.98 659.163L408.146 659.163" stroke="#000000" stroke-width="0.436" fill="none" /><path id="318" transform="matrix(1 0 0 -1 0 841)" d="M422.666 669.461L488.13 669.461" stroke="#000000" stroke-width="0.398" fill="none" /><path id="319" transform="matrix(1 0 0 -1 0 841)" d="M422.865 650.52L422.865 669.461" stroke="#000000" stroke-width="0.398" fill="none" /><path id="320" transform="matrix(1 0 0 -1 0 841)" d="M487.931 650.52L487.931 669.461" stroke="#000000" stroke-width="0.398" fill="none" /><path id="321" transform="matrix(1 0 0 -1 0 841)" d="M422.666 650.52L488.13 650.52" stroke="#000000" stroke-width="0.398" fill="none" /><path id="475" transform="matrix(1 0 0 -1 0 841)" d="M212.512 570.355L277.892 570.355" stroke="#000000" stroke-width="0.436" fill="none" /><path id="495" transform="matrix(1 0 0 -1 0 841)" d="M320.282 578.114L341.598 578.114" stroke="#000000" stroke-width="0.398" fill="none" /><path id="496" transform="matrix(1 0 0 -1 0 841)" d="M320.481 564.314L320.481 578.114" stroke="#000000" stroke-width="0.398" fill="none" /><path id="497" transform="matrix(1 0 0 -1 0 841)" d="M341.399 564.314L341.399 578.114" stroke="#000000" stroke-width="0.398" fill="none" /><path id="498" transform="matrix(1 0 0 -1 0 841)" d="M320.282 564.314L341.598 564.314" stroke="#000000" stroke-width="0.398" fill="none" /><path id="691" transform="matrix(1 0 0 -1 0 841)" d="M304.64 480.205L455.65 480.205" stroke="#000000" stroke-width="0.436" fill="none" /><path id="841" transform="matrix(1 0 0 -1 0 841)" d="M265.633 411.334L316.536 411.334" stroke="#000000" stroke-width="0.436" fill="none" /><path id="857" transform="matrix(1 0 0 -1 0 841)" d="M339.062 411.334L358.458 411.334" stroke="#000000" stroke-width="0.436" fill="none" /><path id="860" transform="matrix(1 0 0 -1 0 841)" d="M255.809 393.444L359.654 393.444" stroke="#000000" stroke-width="0.436" fill="none" /><path id="881" transform="matrix(1 0 0 -1 0 841)" d="M374.174 402.026L422.163 402.026" stroke="#000000" stroke-width="0.398" fill="none" /><path id="882" transform="matrix(1 0 0 -1 0 841)" d="M374.374 384.801L374.374 402.026" stroke="#000000" stroke-width="0.398" fill="none" /><path id="883" transform="matrix(1 0 0 -1 0 841)" d="M421.964 384.801L421.964 402.026" stroke="#000000" stroke-width="0.398" fill="none" /><path id="884" transform="matrix(1 0 0 -1 0 841)" d="M374.174 384.801L422.163 384.801" stroke="#000000" stroke-width="0.398" fill="none" /><path id="1020" transform="matrix(1 0 0 -1 0 841)" d="M239.818 301.595L273.45 301.595" stroke="#000000" stroke-width="0.436" fill="none" /><path id="1032" transform="matrix(1 0 0 -1 0 841)" d="M284.325 301.595L323.663 301.595" stroke="#000000" stroke-width="0.436" fill="none" /><path id="1042" transform="matrix(1 0 0 -1 0 841)" d="M334.539 301.595L364.833 301.595" stroke="#000000" stroke-width="0.436" fill="none" /><path id="1046" transform="matrix(1 0 0 -1 0 841)" d="M238.622 287.577L366.028 287.577" stroke="#000000" stroke-width="0.436" fill="none" /><path id="1064" transform="matrix(1 0 0 -1 0 841)" d="M385.132 287.577L424.121 287.577" stroke="#000000" stroke-width="0.436" fill="none" /><path id="1067" transform="matrix(1 0 0 -1 0 841)" d="M380.549 302.874L428.703 302.874" stroke="#000000" stroke-width="0.398" fill="none" /><path id="1068" transform="matrix(1 0 0 -1 0 841)" d="M380.748 271.898L380.748 302.874" stroke="#000000" stroke-width="0.398" fill="none" /><path id="1069" transform="matrix(1 0 0 -1 0 841)" d="M428.504 271.898L428.504 302.874" stroke="#000000" stroke-width="0.398" fill="none" /><path id="1070" transform="matrix(1 0 0 -1 0 841)" d="M380.549 271.898L428.703 271.898" stroke="#000000" stroke-width="0.398" fill="none" /></g></g></svg>