<svg xmlns="http://www.w3.org/2000/svg" xmlns:xlink="http://www.w3.org/1999/xlink" id="body_154" preserveAspectRatio="xMinYMin meet" viewBox="0 0 793 1121"><defs><clipPath id="1"><path id="" clip-rule="evenodd" transform="matrix(1 0 0 1 0 0)" d="M0 841L0 -0.8900146L0 -0.8900146L595.276 -0.8900146L595.276 -0.8900146L595.276 841L595.276 841L0 841z" /></clipPath></defs><g transform="matrix(1.333333 0 0 1.333333 0 0)"><g clip-path="url(#1)"><path id="19" transform="matrix(1 0 0 -1 0 841)" d="M85.039 766.564L510.236 766.564" stroke="#000000" stroke-width="0.498" fill="none" /><path id="2060" transform="matrix(1 0 0 -1 0 841)" d="M234.261 149.688L265.7 149.688L265.7 162.876L234.261 162.876z" stroke="none" fill="#FFBFBF" fill-rule="nonzero" /><path id="2311" transform="matrix(1 0 0 -1 0 841)" d="M248.789 81.942L283.25 81.942L283.25 95.13L248.789 95.13z" stroke="none" fill="#FFBFBF" fill-rule="nonzero" /><path id="2336" transform="matrix(1 0 0 -1 0 841)" d="M385.612 81.942L419.462 81.942L419.462 95.425L385.612 95.425z" stroke="none" fill="#FFBFBF" fill-rule="nonzero" /></g></g></svg>