<svg xmlns="http://www.w3.org/2000/svg" xmlns:xlink="http://www.w3.org/1999/xlink" id="body_376" preserveAspectRatio="xMinYMin meet" viewBox="0 0 793 1121"><defs><clipPath id="1"><path id="" clip-rule="evenodd" transform="matrix(1 0 0 1 0 0)" d="M0 841L0 -0.8900146L0 -0.8900146L595.276 -0.8900146L595.276 -0.8900146L595.276 841L595.276 841L0 841z" /></clipPath><clipPath id="2"><path id="" clip-rule="evenodd" transform="matrix(1 0 0 1 0 0)" d="M0.125 841.073L595.1547 841.073L595.1547 841.073L595.1547 -0.9690552L595.1547 -0.9690552L0.125 -0.9690552z" /></clipPath><clipPath id="3"><path id="" clip-rule="evenodd" transform="matrix(1 0 0 1 0 0)" d="M19.4363 27.69806L575.6259 27.69806L575.6259 27.69806L575.6259 825.5788L575.6259 825.5788L19.4363 825.5788z" /></clipPath><clipPath id="4"><path id="" clip-rule="evenodd" transform="matrix(1 0 0 1 0 0)" d="M25.07376 33.33551L569.0288 33.33551L569.0288 33.33551L569.0288 44.73035L569.0288 44.73035L25.07376 44.73035z" /></clipPath><clipPath id="5"><path id="" clip-rule="evenodd" transform="matrix(1 0 0 1 0 0)" d="M19.4363 49.5282L575.6259 49.5282L575.6259 49.5282L575.6259 803.7487L575.6259 803.7487L19.4363 803.7487z" /></clipPath><clipPath id="6"><path id="" clip-rule="evenodd" transform="matrix(1 0 0 1 0 0)" d="M19.4363 49.5282L575.6259 49.5282L575.6259 49.5282L575.6259 803.7487L575.6259 803.7487L19.4363 803.7487z" /></clipPath><clipPath id="7"><path id="" clip-rule="evenodd" transform="matrix(1 0 0 1 0 0)" d="M25.07376 55.16565L569.0288 55.16565L569.0288 55.16565L569.0288 74.11713L569.0288 74.11713L25.07376 74.11713z" /></clipPath><clipPath id="8"><path id="" clip-rule="evenodd" transform="matrix(1 0 0 1 0 0)" d="M19.4363 49.5282L575.6259 49.5282L575.6259 49.5282L575.6259 803.7487L575.6259 803.7487L19.4363 803.7487z" /></clipPath><clipPath id="9"><path id="" clip-rule="evenodd" transform="matrix(1 0 0 1 0 0)" d="M25.07376 218.0524L169.6087 218.0524L169.6087 218.0524L169.6087 275.3865L169.6087 275.3865L25.07376 275.3865z" /></clipPath><clipPath id="10"><path id="" clip-rule="evenodd" transform="matrix(1 0 0 1 0 0)" d="M19.4363 49.5282L575.6259 49.5282L575.6259 49.5282L575.6259 803.7487L575.6259 803.7487L19.4363 803.7487z" /></clipPath><clipPath id="11"><path id="" clip-rule="evenodd" transform="matrix(1 0 0 1 0 0)" d="M25.07376 79.87451L569.0288 79.87451L569.0288 79.87451L569.0288 91.98907L569.0288 91.98907L25.07376 91.98907z" /></clipPath><clipPath id="12"><path id="" clip-rule="evenodd" transform="matrix(1 0 0 1 0 0)" d="M19.4363 49.5282L575.6259 49.5282L575.6259 49.5282L575.6259 803.7487L575.6259 803.7487L19.4363 803.7487z" /></clipPath><clipPath id="13"><path id="" clip-rule="evenodd" transform="matrix(1 0 0 1 0 0)" d="M178.1248 333.4404L569.0288 333.4404L569.0288 333.4404L569.0288 367.9848L569.0288 367.9848L178.1248 367.9848z" /></clipPath><clipPath id="14"><path id="" clip-rule="evenodd" transform="matrix(1 0 0 1 0 0)" d="M19.4363 49.5282L575.6259 49.5282L575.6259 49.5282L575.6259 803.7487L575.6259 803.7487L19.4363 803.7487z" /></clipPath><clipPath id="15"><path id="" clip-rule="evenodd" transform="matrix(1 0 0 1 0 0)" d="M161.0925 218.0524L178.1248 218.0524L178.1248 218.0524L178.1248 275.3865L178.1248 275.3865L161.0925 275.3865z" /></clipPath><clipPath id="16"><path id="" clip-rule="evenodd" transform="matrix(1 0 0 1 0 0)" d="M19.4363 49.5282L575.6259 49.5282L575.6259 49.5282L575.6259 803.7487L575.6259 803.7487L19.4363 803.7487z" /></clipPath><clipPath id="17"><path id="" clip-rule="evenodd" transform="matrix(1 0 0 1 0 0)" d="M161.0925 94.8678L178.1248 94.8678L178.1248 94.8678L178.1248 163.7168L178.1248 163.7168L161.0925 163.7168z" /></clipPath><clipPath id="18"><path id="" clip-rule="evenodd" transform="matrix(1 0 0 1 0 0)" d="M19.4363 49.5282L575.6259 49.5282L575.6259 49.5282L575.6259 803.7487L575.6259 803.7487L19.4363 803.7487z" /></clipPath><clipPath id="19"><path id="" clip-rule="evenodd" transform="matrix(1 0 0 1 0 0)" d="M178.1248 94.8678L569.0288 94.8678L569.0288 94.8678L569.0288 163.7168L569.0288 163.7168L178.1248 163.7168z" /></clipPath><clipPath id="20"><path id="" clip-rule="evenodd" transform="matrix(1 0 0 1 0 0)" d="M19.4363 49.5282L575.6259 49.5282L575.6259 49.5282L575.6259 803.7487L575.6259 803.7487L19.4363 803.7487z" /></clipPath><clipPath id="21"><path id="" clip-rule="evenodd" transform="matrix(1 0 0 1 0 0)" d="M178.1248 218.0524L569.0288 218.0524L569.0288 218.0524L569.0288 275.3865L569.0288 275.3865L178.1248 275.3865z" /></clipPath><clipPath id="22"><path id="" clip-rule="evenodd" transform="matrix(1 0 0 1 0 0)" d="M19.4363 49.5282L575.6259 49.5282L575.6259 49.5282L575.6259 803.7487L575.6259 803.7487L19.4363 803.7487z" /></clipPath><clipPath id="23"><path id="" clip-rule="evenodd" transform="matrix(1 0 0 1 0 0)" d="M30.71123 333.4404L161.0925 333.4404L161.0925 333.4404L161.0925 367.9848L161.0925 367.9848L30.71123 367.9848z" /></clipPath><clipPath id="24"><path id="" clip-rule="evenodd" transform="matrix(1 0 0 1 0 0)" d="M19.4363 49.5282L575.6259 49.5282L575.6259 49.5282L575.6259 803.7487L575.6259 803.7487L19.4363 803.7487z" /></clipPath><clipPath id="25"><path id="" clip-rule="evenodd" transform="matrix(1 0 0 1 0 0)" d="M161.0925 333.4404L178.1248 333.4404L178.1248 333.4404L178.1248 367.9848L178.1248 367.9848L161.0925 367.9848z" /></clipPath><clipPath id="26"><path id="" clip-rule="evenodd" transform="matrix(1 0 0 1 0 0)" d="M19.4363 49.5282L575.6259 49.5282L575.6259 49.5282L575.6259 803.7487L575.6259 803.7487L19.4363 803.7487z" /></clipPath><clipPath id="27"><path id="" clip-rule="evenodd" transform="matrix(1 0 0 1 0 0)" d="M178.1248 307.2921L569.0288 307.2921L569.0288 307.2921L569.0288 330.5617L569.0288 330.5617L178.1248 330.5617z" /></clipPath><clipPath id="28"><path id="" clip-rule="evenodd" transform="matrix(1 0 0 1 0 0)" d="M19.4363 49.5282L575.6259 49.5282L575.6259 49.5282L575.6259 803.7487L575.6259 803.7487L19.4363 803.7487z" /></clipPath><clipPath id="29"><path id="" clip-rule="evenodd" transform="matrix(1 0 0 1 0 0)" d="M30.71123 307.2921L161.0925 307.2921L161.0925 307.2921L161.0925 330.5617L161.0925 330.5617L30.71123 330.5617z" /></clipPath><clipPath id="30"><path id="" clip-rule="evenodd" transform="matrix(1 0 0 1 0 0)" d="M19.4363 49.5282L575.6259 49.5282L575.6259 49.5282L575.6259 803.7487L575.6259 803.7487L19.4363 803.7487z" /></clipPath><clipPath id="31"><path id="" clip-rule="evenodd" transform="matrix(1 0 0 1 0 0)" d="M161.0925 307.2921L178.1248 307.2921L178.1248 307.2921L178.1248 330.5617L178.1248 330.5617L161.0925 330.5617z" /></clipPath><clipPath id="32"><path id="" clip-rule="evenodd" transform="matrix(1 0 0 1 0 0)" d="M19.4363 49.5282L575.6259 49.5282L575.6259 49.5282L575.6259 803.7487L575.6259 803.7487L19.4363 803.7487z" /></clipPath><clipPath id="33"><path id="" clip-rule="evenodd" transform="matrix(1 0 0 1 0 0)" d="M25.07376 292.2989L569.0288 292.2989L569.0288 292.2989L569.0288 304.5334L569.0288 304.5334L25.07376 304.5334z" /></clipPath><clipPath id="34"><path id="" clip-rule="evenodd" transform="matrix(1 0 0 1 0 0)" d="M19.4363 49.5282L575.6259 49.5282L575.6259 49.5282L575.6259 803.7487L575.6259 803.7487L19.4363 803.7487z" /></clipPath><clipPath id="35"><path id="" clip-rule="evenodd" transform="matrix(1 0 0 1 0 0)" d="M30.71123 94.8678L161.0925 94.8678L161.0925 94.8678L161.0925 163.7168L161.0925 163.7168L30.71123 163.7168z" /></clipPath><clipPath id="36"><path id="" clip-rule="evenodd" transform="matrix(1 0 0 1 0 0)" d="M19.4363 49.5282L575.6259 49.5282L575.6259 49.5282L575.6259 803.7487L575.6259 803.7487L19.4363 803.7487z" /></clipPath><clipPath id="37"><path id="" clip-rule="evenodd" transform="matrix(1 0 0 1 0 0)" d="M30.71123 166.5955L161.0925 166.5955L161.0925 166.5955L161.0925 201.14L161.0925 201.14L30.71123 201.14z" /></clipPath><clipPath id="38"><path id="" clip-rule="evenodd" transform="matrix(1 0 0 1 0 0)" d="M19.4363 49.5282L575.6259 49.5282L575.6259 49.5282L575.6259 803.7487L575.6259 803.7487L19.4363 803.7487z" /></clipPath><clipPath id="39"><path id="" clip-rule="evenodd" transform="matrix(1 0 0 1 0 0)" d="M161.0925 166.5955L178.1248 166.5955L178.1248 166.5955L178.1248 201.14L178.1248 201.14L161.0925 201.14z" /></clipPath><clipPath id="40"><path id="" clip-rule="evenodd" transform="matrix(1 0 0 1 0 0)" d="M19.4363 49.5282L575.6259 49.5282L575.6259 49.5282L575.6259 803.7487L575.6259 803.7487L19.4363 803.7487z" /></clipPath><clipPath id="41"><path id="" clip-rule="evenodd" transform="matrix(1 0 0 1 0 0)" d="M178.1248 166.5955L569.0288 166.5955L569.0288 166.5955L569.0288 201.14L569.0288 201.14L178.1248 201.14z" /></clipPath><clipPath id="42"><path id="" clip-rule="evenodd" transform="matrix(1 0 0 1 0 0)" d="M19.4363 49.5282L575.6259 49.5282L575.6259 49.5282L575.6259 803.7487L575.6259 803.7487L19.4363 803.7487z" /></clipPath><clipPath id="43"><path id="" clip-rule="evenodd" transform="matrix(1 0 0 1 0 0)" d="M19.4363 49.5282L575.6259 49.5282L575.6259 49.5282L575.6259 803.7487L575.6259 803.7487L19.4363 803.7487z" /></clipPath><clipPath id="44"><path id="" clip-rule="evenodd" transform="matrix(1 0 0 1 0 0)" d="M25.07376 373.8622L569.0288 373.8622L569.0288 373.8622L569.0288 392.8137L569.0288 392.8137L25.07376 392.8137z" /></clipPath><clipPath id="45"><path id="" clip-rule="evenodd" transform="matrix(1 0 0 1 0 0)" d="M19.4363 49.5282L575.6259 49.5282L575.6259 49.5282L575.6259 803.7487L575.6259 803.7487L19.4363 803.7487z" /></clipPath><clipPath id="46"><path id="" clip-rule="evenodd" transform="matrix(1 0 0 1 0 0)" d="M30.71123 531.1114L161.0925 531.1114L161.0925 531.1114L161.0925 588.3256L161.0925 588.3256L30.71123 588.3256z" /></clipPath><clipPath id="47"><path id="" clip-rule="evenodd" transform="matrix(1 0 0 1 0 0)" d="M19.4363 49.5282L575.6259 49.5282L575.6259 49.5282L575.6259 803.7487L575.6259 803.7487L19.4363 803.7487z" /></clipPath><clipPath id="48"><path id="" clip-rule="evenodd" transform="matrix(1 0 0 1 0 0)" d="M25.07376 605.358L161.0925 605.358L161.0925 605.358L161.0925 719.5466L161.0925 719.5466L25.07376 719.5466z" /></clipPath><clipPath id="49"><path id="" clip-rule="evenodd" transform="matrix(1 0 0 1 0 0)" d="M19.4363 49.5282L575.6259 49.5282L575.6259 49.5282L575.6259 803.7487L575.6259 803.7487L19.4363 803.7487z" /></clipPath><clipPath id="50"><path id="" clip-rule="evenodd" transform="matrix(1 0 0 1 0 0)" d="M178.1248 531.1114L569.5086 531.1114L569.5086 531.1114L569.5086 588.3256L569.5086 588.3256L178.1248 588.3256z" /></clipPath><clipPath id="51"><path id="" clip-rule="evenodd" transform="matrix(1 0 0 1 0 0)" d="M19.4363 49.5282L575.6259 49.5282L575.6259 49.5282L575.6259 803.7487L575.6259 803.7487L19.4363 803.7487z" /></clipPath><clipPath id="52"><path id="" clip-rule="evenodd" transform="matrix(1 0 0 1 0 0)" d="M178.1248 605.358L569.0288 605.358L569.0288 605.358L569.0288 719.5466L569.0288 719.5466L178.1248 719.5466z" /></clipPath><clipPath id="53"><path id="" clip-rule="evenodd" transform="matrix(1 0 0 1 0 0)" d="M19.4363 49.5282L575.6259 49.5282L575.6259 49.5282L575.6259 803.7487L575.6259 803.7487L19.4363 803.7487z" /></clipPath><clipPath id="54"><path id="" clip-rule="evenodd" transform="matrix(1 0 0 1 0 0)" d="M161.0925 531.1114L178.1248 531.1114L178.1248 531.1114L178.1248 588.3256L178.1248 588.3256L161.0925 588.3256z" /></clipPath><clipPath id="55"><path id="" clip-rule="evenodd" transform="matrix(1 0 0 1 0 0)" d="M19.4363 49.5282L575.6259 49.5282L575.6259 49.5282L575.6259 803.7487L575.6259 803.7487L19.4363 803.7487z" /></clipPath><clipPath id="56"><path id="" clip-rule="evenodd" transform="matrix(1 0 0 1 0 0)" d="M161.0925 605.358L178.1248 605.358L178.1248 605.358L178.1248 719.5466L178.1248 719.5466L161.0925 719.5466z" /></clipPath><clipPath id="57"><path id="" clip-rule="evenodd" transform="matrix(1 0 0 1 0 0)" d="M19.4363 49.5282L575.6259 49.5282L575.6259 49.5282L575.6259 803.7487L575.6259 803.7487L19.4363 803.7487z" /></clipPath><clipPath id="58"><path id="" clip-rule="evenodd" transform="matrix(1 0 0 1 0 0)" d="M30.71123 413.5643L161.0925 413.5643L161.0925 413.5643L161.0925 528.3526L161.0925 528.3526L30.71123 528.3526z" /></clipPath><clipPath id="59"><path id="" clip-rule="evenodd" transform="matrix(1 0 0 1 0 0)" d="M19.4363 49.5282L575.6259 49.5282L575.6259 49.5282L575.6259 803.7487L575.6259 803.7487L19.4363 803.7487z" /></clipPath><clipPath id="60"><path id="" clip-rule="evenodd" transform="matrix(1 0 0 1 0 0)" d="M178.1248 413.5643L569.5086 413.5643L569.5086 413.5643L569.5086 527.7529L569.5086 527.7529L178.1248 527.7529z" /></clipPath><clipPath id="61"><path id="" clip-rule="evenodd" transform="matrix(1 0 0 1 0 0)" d="M19.4363 49.5282L575.6259 49.5282L575.6259 49.5282L575.6259 803.7487L575.6259 803.7487L19.4363 803.7487z" /></clipPath><clipPath id="62"><path id="" clip-rule="evenodd" transform="matrix(1 0 0 1 0 0)" d="M161.0925 413.5643L178.1248 413.5643L178.1248 413.5643L178.1248 528.3526L178.1248 528.3526L161.0925 528.3526z" /></clipPath><clipPath id="63"><path id="" clip-rule="evenodd" transform="matrix(1 0 0 1 0 0)" d="M19.4363 49.5282L575.6259 49.5282L575.6259 49.5282L575.6259 803.7487L575.6259 803.7487L19.4363 803.7487z" /></clipPath><clipPath id="64"><path id="" clip-rule="evenodd" transform="matrix(1 0 0 1 0 0)" d="M25.07376 398.571L569.0288 398.571L569.0288 398.571L569.0288 410.6856L569.0288 410.6856L25.07376 410.6856z" /></clipPath><clipPath id="65"><path id="" clip-rule="evenodd" transform="matrix(1 0 0 1 0 0)" d="M19.4363 27.69806L575.6259 27.69806L575.6259 27.69806L575.6259 825.5788L575.6259 825.5788L19.4363 825.5788z" /></clipPath><clipPath id="66"><path id="" clip-rule="evenodd" transform="matrix(1 0 0 1 0 0)" d="M25.07376 809.3861L161.0925 809.3861L161.0925 809.3861L161.0925 820.7809L161.0925 820.7809L25.07376 820.7809z" /></clipPath><clipPath id="67"><path id="" clip-rule="evenodd" transform="matrix(1 0 0 1 0 0)" d="M161.0925 809.3861L166.73 809.3861L166.73 809.3861L166.73 820.7809L166.73 820.7809L161.0925 820.7809z" /></clipPath><clipPath id="68"><path id="" clip-rule="evenodd" transform="matrix(1 0 0 1 0 0)" d="M166.73 809.3861L234.7393 809.3861L234.7393 809.3861L234.7393 820.7809L234.7393 820.7809L166.73 820.7809z" /></clipPath><clipPath id="69"><path id="" clip-rule="evenodd" transform="matrix(1 0 0 1 0 0)" d="M237.6181 809.3861L353.7258 809.3861L353.7258 809.3861L353.7258 820.7809L353.7258 820.7809L237.6181 820.7809z" /></clipPath><clipPath id="70"><path id="" clip-rule="evenodd" transform="matrix(1 0 0 1 0 0)" d="M353.7258 809.3861L359.3632 809.3861L359.3632 809.3861L359.3632 820.7809L359.3632 820.7809L353.7258 820.7809z" /></clipPath><clipPath id="71"><path id="" clip-rule="evenodd" transform="matrix(1 0 0 1 0 0)" d="M359.3632 809.3861L458.5586 809.3861L458.5586 809.3861L458.5586 820.7809L458.5586 820.7809L359.3632 820.7809z" /></clipPath><clipPath id="72"><path id="" clip-rule="evenodd" transform="matrix(1 0 0 1 0 0)" d="M458.5586 809.3861L495.382 809.3861L495.382 809.3861L495.382 820.7809L495.382 820.7809L458.5586 820.7809z" /></clipPath><clipPath id="73"><path id="" clip-rule="evenodd" transform="matrix(1 0 0 1 0 0)" d="M495.382 809.3861L501.0194 809.3861L501.0194 809.3861L501.0194 820.7809L501.0194 820.7809L495.382 820.7809z" /></clipPath><clipPath id="74"><path id="" clip-rule="evenodd" transform="matrix(1 0 0 1 0 0)" d="M501.0194 809.3861L520.8105 809.3861L520.8105 809.3861L520.8105 820.7809L520.8105 820.7809L501.0194 820.7809z" /></clipPath><clipPath id="75"><path id="" clip-rule="evenodd" transform="matrix(1 0 0 1 0 0)" d="M540.7216 809.3861L569.0288 809.3861L569.0288 809.3861L569.0288 820.7809L569.0288 820.7809L540.7216 820.7809z" /></clipPath></defs><g transform="matrix(1.333333 0 0 1.333333 0 0)"><g clip-path="url(#1)"><g clip-path="url(#2)"><g clip-path="url(#3)"><g clip-path="url(#4)"></g><path id="8" transform="matrix(1 0 0 -1 0 841)" d="M22.31501 810.6631L571.7876 810.6631L571.7876 810.6631L571.7876 810.0634L571.7876 810.0634L22.31501 810.0634" stroke="none" fill="#000000" fill-rule="evenodd" /><path id="9" transform="matrix(1 0 0 -1 0 841)" d="M22.07512 810.6631L22.5549 810.6631L22.5549 810.6631L22.5549 810.0634L22.5549 810.0634L22.07512 810.0634" stroke="none" fill="#000000" fill-rule="evenodd" /><path id="10" transform="matrix(1 0 0 -1 0 841)" d="M571.5477 810.6631L572.0275 810.6631L572.0275 810.6631L572.0275 810.0634L572.0275 810.0634L571.5477 810.0634" stroke="none" fill="#000000" fill-rule="evenodd" /><path id="11" transform="matrix(1 0 0 -1 0 841)" d="M572.0275 810.4233L572.0275 792.0715L572.0275 792.0715L571.4277 792.0715L571.4277 792.0715L571.4277 810.4233" stroke="none" fill="#000000" fill-rule="evenodd" /><path id="12" transform="matrix(1 0 0 -1 0 841)" d="M572.0275 810.6631L572.0275 810.1833L572.0275 810.1833L571.4277 810.1833L571.4277 810.1833L571.4277 810.6631" stroke="none" fill="#000000" fill-rule="evenodd" /><path id="13" transform="matrix(1 0 0 -1 0 841)" d="M572.0275 792.3114L572.0275 791.8316L572.0275 791.8316L571.4277 791.8316L571.4277 791.8316L571.4277 792.3114" stroke="none" fill="#000000" fill-rule="evenodd" /><path id="14" transform="matrix(1 0 0 -1 0 841)" d="M571.7876 791.8316L22.31501 791.8316L22.31501 791.8316L22.31501 792.4313L22.31501 792.4313L571.7876 792.4313" stroke="none" fill="#000000" fill-rule="evenodd" /><path id="15" transform="matrix(1 0 0 -1 0 841)" d="M572.0275 791.8316L571.5477 791.8316L571.5477 791.8316L571.5477 792.4313L571.5477 792.4313L572.0275 792.4313" stroke="none" fill="#000000" fill-rule="evenodd" /><path id="16" transform="matrix(1 0 0 -1 0 841)" d="M22.5549 791.8316L22.07512 791.8316L22.07512 791.8316L22.07512 792.4313L22.07512 792.4313L22.5549 792.4313" stroke="none" fill="#000000" fill-rule="evenodd" /><path id="17" transform="matrix(1 0 0 -1 0 841)" d="M22.07512 792.0715L22.07512 810.4233L22.07512 810.4233L22.67485 810.4233L22.67485 810.4233L22.67485 792.0715" stroke="none" fill="#000000" fill-rule="evenodd" /><path id="18" transform="matrix(1 0 0 -1 0 841)" d="M22.07512 791.8316L22.07512 792.3114L22.07512 792.3114L22.67485 792.3114L22.67485 792.3114L22.67485 791.8316" stroke="none" fill="#000000" fill-rule="evenodd" /><path id="19" transform="matrix(1 0 0 -1 0 841)" d="M22.07512 810.1833L22.07512 810.6631L22.07512 810.6631L22.67485 810.6631L22.67485 810.6631L22.67485 810.1833" stroke="none" fill="#000000" fill-rule="evenodd" /></g><g clip-path="url(#5)"><path id="20" transform="matrix(1 0 0 -1 0 841)" d="M22.31501 788.833L571.7876 788.833L571.7876 788.833L571.7876 788.2333L571.7876 788.2333L22.31501 788.2333" stroke="none" fill="#000000" fill-rule="evenodd" /><path id="21" transform="matrix(1 0 0 -1 0 841)" d="M22.07512 788.833L22.5549 788.833L22.5549 788.833L22.5549 788.2333L22.5549 788.2333L22.07512 788.2333" stroke="none" fill="#000000" fill-rule="evenodd" /><path id="22" transform="matrix(1 0 0 -1 0 841)" d="M571.5477 788.833L572.0275 788.833L572.0275 788.833L572.0275 788.2333L572.0275 788.2333L571.5477 788.2333" stroke="none" fill="#000000" fill-rule="evenodd" /><path id="23" transform="matrix(1 0 0 -1 0 841)" d="M572.0275 788.5931L572.0275 764.0042L572.0275 764.0042L571.4277 764.0042L571.4277 764.0042L571.4277 788.5931" stroke="none" fill="#000000" fill-rule="evenodd" /><path id="24" transform="matrix(1 0 0 -1 0 841)" d="M572.0275 788.833L572.0275 788.3532L572.0275 788.3532L571.4277 788.3532L571.4277 788.3532L571.4277 788.833" stroke="none" fill="#000000" fill-rule="evenodd" /><path id="25" transform="matrix(1 0 0 -1 0 841)" d="M572.0275 764.244L572.0275 763.7643L572.0275 763.7643L571.4277 763.7643L571.4277 763.7643L571.4277 764.244" stroke="none" fill="#000000" fill-rule="evenodd" /><path id="26" transform="matrix(1 0 0 -1 0 841)" d="M571.7876 763.7643L22.31501 763.7643L22.31501 763.7643L22.31501 764.364L22.31501 764.364L571.7876 764.364" stroke="none" fill="#000000" fill-rule="evenodd" /><path id="27" transform="matrix(1 0 0 -1 0 841)" d="M572.0275 763.7643L571.5477 763.7643L571.5477 763.7643L571.5477 764.364L571.5477 764.364L572.0275 764.364" stroke="none" fill="#000000" fill-rule="evenodd" /><path id="28" transform="matrix(1 0 0 -1 0 841)" d="M22.5549 763.7643L22.07512 763.7643L22.07512 763.7643L22.07512 764.364L22.07512 764.364L22.5549 764.364" stroke="none" fill="#000000" fill-rule="evenodd" /><path id="29" transform="matrix(1 0 0 -1 0 841)" d="M22.07512 764.0042L22.07512 788.5931L22.07512 788.5931L22.67485 788.5931L22.67485 788.5931L22.67485 764.0042" stroke="none" fill="#000000" fill-rule="evenodd" /><path id="30" transform="matrix(1 0 0 -1 0 841)" d="M22.07512 763.7643L22.07512 764.244L22.07512 764.244L22.67485 764.244L22.67485 764.244L22.67485 763.7643" stroke="none" fill="#000000" fill-rule="evenodd" /><path id="31" transform="matrix(1 0 0 -1 0 841)" d="M22.07512 788.3532L22.07512 788.833L22.07512 788.833L22.67485 788.833L22.67485 788.833L22.67485 788.3532" stroke="none" fill="#000000" fill-rule="evenodd" /><g clip-path="url(#6)"><g clip-path="url(#7)"></g></g><g clip-path="url(#8)"><g clip-path="url(#9)"></g></g><g clip-path="url(#10)"><g clip-path="url(#11)"><path id="91" transform="matrix(1 0 0 -1 0 841)" d="M25.07376 751.0704L365.4805 751.0704" stroke="#0000FF" stroke-width="1.035374" fill="none" /></g></g><g clip-path="url(#12)"><g clip-path="url(#13)"></g></g><g clip-path="url(#14)"><g clip-path="url(#15)"></g></g><g clip-path="url(#16)"><g clip-path="url(#17)"></g></g><g clip-path="url(#18)"><g clip-path="url(#19)"></g></g><g clip-path="url(#20)"><g clip-path="url(#21)"></g></g><g clip-path="url(#22)"><g clip-path="url(#23)"></g></g><g clip-path="url(#24)"><g clip-path="url(#25)"></g></g><g clip-path="url(#26)"><g clip-path="url(#27)"></g></g><g clip-path="url(#28)"><g clip-path="url(#29)"></g></g><g clip-path="url(#30)"><g clip-path="url(#31)"></g></g><g clip-path="url(#32)"><g clip-path="url(#33)"><path id="1342" transform="matrix(1 0 0 -1 0 841)" d="M25.07376 538.646L290.1544 538.646" stroke="#0000FF" stroke-width="1.035374" fill="none" /></g></g><g clip-path="url(#34)"><g clip-path="url(#35)"></g></g><g clip-path="url(#36)"><g clip-path="url(#37)"></g></g><g clip-path="url(#38)"><g clip-path="url(#39)"></g></g><g clip-path="url(#40)"><g clip-path="url(#41)"></g></g></g><g clip-path="url(#42)"><path id="1650" transform="matrix(1 0 0 -1 0 841)" d="M22.31501 470.1365L571.7876 470.1365L571.7876 470.1365L571.7876 469.5367L571.7876 469.5367L22.31501 469.5367" stroke="none" fill="#000000" fill-rule="evenodd" /><path id="1651" transform="matrix(1 0 0 -1 0 841)" d="M22.07512 470.1365L22.5549 470.1365L22.5549 470.1365L22.5549 469.5367L22.5549 469.5367L22.07512 469.5367" stroke="none" fill="#000000" fill-rule="evenodd" /><path id="1652" transform="matrix(1 0 0 -1 0 841)" d="M571.5477 470.1365L572.0275 470.1365L572.0275 470.1365L572.0275 469.5367L572.0275 469.5367L571.5477 469.5367" stroke="none" fill="#000000" fill-rule="evenodd" /><path id="1653" transform="matrix(1 0 0 -1 0 841)" d="M572.0275 469.8966L572.0275 445.3076L572.0275 445.3076L571.4277 445.3076L571.4277 445.3076L571.4277 469.8966" stroke="none" fill="#000000" fill-rule="evenodd" /><path id="1654" transform="matrix(1 0 0 -1 0 841)" d="M572.0275 470.1365L572.0275 469.6567L572.0275 469.6567L571.4277 469.6567L571.4277 469.6567L571.4277 470.1365" stroke="none" fill="#000000" fill-rule="evenodd" /><path id="1655" transform="matrix(1 0 0 -1 0 841)" d="M572.0275 445.5475L572.0275 445.0677L572.0275 445.0677L571.4277 445.0677L571.4277 445.0677L571.4277 445.5475" stroke="none" fill="#000000" fill-rule="evenodd" /><path id="1656" transform="matrix(1 0 0 -1 0 841)" d="M571.7876 445.0677L22.31501 445.0677L22.31501 445.0677L22.31501 445.6675L22.31501 445.6675L571.7876 445.6675" stroke="none" fill="#000000" fill-rule="evenodd" /><path id="1657" transform="matrix(1 0 0 -1 0 841)" d="M572.0275 445.0677L571.5477 445.0677L571.5477 445.0677L571.5477 445.6675L571.5477 445.6675L572.0275 445.6675" stroke="none" fill="#000000" fill-rule="evenodd" /><path id="1658" transform="matrix(1 0 0 -1 0 841)" d="M22.5549 445.0677L22.07512 445.0677L22.07512 445.0677L22.07512 445.6675L22.07512 445.6675L22.5549 445.6675" stroke="none" fill="#000000" fill-rule="evenodd" /><path id="1659" transform="matrix(1 0 0 -1 0 841)" d="M22.07512 445.3076L22.07512 469.8966L22.07512 469.8966L22.67485 469.8966L22.67485 469.8966L22.67485 445.3076" stroke="none" fill="#000000" fill-rule="evenodd" /><path id="1660" transform="matrix(1 0 0 -1 0 841)" d="M22.07512 445.0677L22.07512 445.5475L22.07512 445.5475L22.67485 445.5475L22.67485 445.5475L22.67485 445.0677" stroke="none" fill="#000000" fill-rule="evenodd" /><path id="1661" transform="matrix(1 0 0 -1 0 841)" d="M22.07512 469.6567L22.07512 470.1365L22.07512 470.1365L22.67485 470.1365L22.67485 470.1365L22.67485 469.6567" stroke="none" fill="#000000" fill-rule="evenodd" /><g clip-path="url(#43)"><g clip-path="url(#44)"></g></g><g clip-path="url(#45)"><g clip-path="url(#46)"></g></g><g clip-path="url(#47)"><g clip-path="url(#48)"></g></g><g clip-path="url(#49)"><g clip-path="url(#50)"></g></g><g clip-path="url(#51)"><g clip-path="url(#52)"></g></g><g clip-path="url(#53)"><g clip-path="url(#54)"></g></g><g clip-path="url(#55)"><g clip-path="url(#56)"></g></g><g clip-path="url(#57)"><g clip-path="url(#58)"></g></g><g clip-path="url(#59)"><g clip-path="url(#60)"></g></g><g clip-path="url(#61)"><g clip-path="url(#62)"></g></g><g clip-path="url(#63)"><g clip-path="url(#64)"><path id="3743" transform="matrix(1 0 0 -1 0 841)" d="M25.07376 432.3739L165.1707 432.3739" stroke="#0000FF" stroke-width="1.035374" fill="none" /></g></g></g><g clip-path="url(#65)"><g clip-path="url(#66)"></g><path id="3799" transform="matrix(1 0 0 -1 0 841)" d="M22.31501 34.61255L571.7876 34.61255L571.7876 34.61255L571.7876 34.01282L571.7876 34.01282L22.31501 34.01282" stroke="none" fill="#000000" fill-rule="evenodd" /><path id="3800" transform="matrix(1 0 0 -1 0 841)" d="M22.07512 34.61255L22.5549 34.61255L22.5549 34.61255L22.5549 34.01282L22.5549 34.01282L22.07512 34.01282" stroke="none" fill="#000000" fill-rule="evenodd" /><path id="3801" transform="matrix(1 0 0 -1 0 841)" d="M571.5477 34.61255L572.0275 34.61255L572.0275 34.61255L572.0275 34.01282L572.0275 34.01282L571.5477 34.01282" stroke="none" fill="#000000" fill-rule="evenodd" /><path id="3802" transform="matrix(1 0 0 -1 0 841)" d="M572.0275 34.37268L572.0275 16.02094L572.0275 16.02094L571.4277 16.02094L571.4277 16.02094L571.4277 34.37268" stroke="none" fill="#000000" fill-rule="evenodd" /><path id="3803" transform="matrix(1 0 0 -1 0 841)" d="M572.0275 34.61255L572.0275 34.13275L572.0275 34.13275L571.4277 34.13275L571.4277 34.13275L571.4277 34.61255" stroke="none" fill="#000000" fill-rule="evenodd" /><path id="3804" transform="matrix(1 0 0 -1 0 841)" d="M572.0275 16.2608L572.0275 15.78107L572.0275 15.78107L571.4277 15.78107L571.4277 15.78107L571.4277 16.2608" stroke="none" fill="#000000" fill-rule="evenodd" /><path id="3805" transform="matrix(1 0 0 -1 0 841)" d="M571.7876 15.78107L22.31501 15.78107L22.31501 15.78107L22.31501 16.3808L22.31501 16.3808L571.7876 16.3808" stroke="none" fill="#000000" fill-rule="evenodd" /><path id="3806" transform="matrix(1 0 0 -1 0 841)" d="M572.0275 15.78107L571.5477 15.78107L571.5477 15.78107L571.5477 16.3808L571.5477 16.3808L572.0275 16.3808" stroke="none" fill="#000000" fill-rule="evenodd" /><path id="3807" transform="matrix(1 0 0 -1 0 841)" d="M22.5549 15.78107L22.07512 15.78107L22.07512 15.78107L22.07512 16.3808L22.07512 16.3808L22.5549 16.3808" stroke="none" fill="#000000" fill-rule="evenodd" /><path id="3808" transform="matrix(1 0 0 -1 0 841)" d="M22.07512 16.02094L22.07512 34.37268L22.07512 34.37268L22.67485 34.37268L22.67485 34.37268L22.67485 16.02094" stroke="none" fill="#000000" fill-rule="evenodd" /><path id="3809" transform="matrix(1 0 0 -1 0 841)" d="M22.07512 15.78107L22.07512 16.2608L22.07512 16.2608L22.67485 16.2608L22.67485 16.2608L22.67485 15.78107" stroke="none" fill="#000000" fill-rule="evenodd" /><path id="3810" transform="matrix(1 0 0 -1 0 841)" d="M22.07512 34.13275L22.07512 34.61255L22.07512 34.61255L22.67485 34.61255L22.67485 34.61255L22.67485 34.13275" stroke="none" fill="#000000" fill-rule="evenodd" /><g clip-path="url(#67)"></g><g clip-path="url(#68)"></g><g clip-path="url(#69)"></g><g clip-path="url(#70)"></g><g clip-path="url(#71)"></g><g clip-path="url(#72)"></g><g clip-path="url(#73)"></g><g clip-path="url(#74)"></g><g clip-path="url(#75)"></g></g></g></g></g></svg>