<svg xmlns="http://www.w3.org/2000/svg" xmlns:xlink="http://www.w3.org/1999/xlink" id="body_281" preserveAspectRatio="xMinYMin meet" viewBox="0 0 793 1121"><defs><clipPath id="1"><path id="" clip-rule="evenodd" transform="matrix(1 0 0 1 0 0)" d="M0 841L0 -0.8900146L0 -0.8900146L595.276 -0.8900146L595.276 -0.8900146L595.276 841L595.276 841L0 841z" /></clipPath></defs><g transform="matrix(1.333333 0 0 1.333333 0 0)"><g clip-path="url(#1)"><path id="23" transform="matrix(1 0 0 -1 0 841)" d="M85.039 766.564L510.236 766.564" stroke="#000000" stroke-width="0.498" fill="none" /><path id="762" transform="matrix(1 0 0 -1 0 841)" d="M193.802 524.335L247.289 524.335" stroke="#000000" stroke-width="0.436" fill="none" /><path id="778" transform="matrix(1 0 0 -1 0 841)" d="M263.005 524.335L298.765 524.335" stroke="#000000" stroke-width="0.436" fill="none" /><path id="889" transform="matrix(1 0 0 -1 0 841)" d="M191.31 456.518L244.797 456.518" stroke="#000000" stroke-width="0.436" fill="none" /><path id="915" transform="matrix(1 0 0 -1 0 841)" d="M330.907 456.518L384.394 456.518" stroke="#000000" stroke-width="0.436" fill="none" /><path id="938" transform="matrix(1 0 0 -1 0 841)" d="M478.839 456.518L495.203 456.518" stroke="#000000" stroke-width="0.436" fill="none" /><path id="946" transform="matrix(1 0 0 -1 0 841)" d="M112.312 441.157L160.534 441.157L160.534 445.142L112.312 445.142z" stroke="none" fill="#000000" fill-rule="nonzero" /><path id="947" transform="matrix(1 0 0 -1 0 841)" d="M112.312 408.867L116.297 408.867L116.297 443.149L112.312 443.149z" stroke="none" fill="#000000" fill-rule="nonzero" /><path id="948" transform="matrix(1 0 0 -1 0 841)" d="M156.549 408.867L160.534 408.867L160.534 443.149L156.549 443.149z" stroke="none" fill="#000000" fill-rule="nonzero" /><path id="949" transform="matrix(1 0 0 -1 0 841)" d="M112.312 406.875L160.534 406.875L160.534 410.86L112.312 410.86z" stroke="none" fill="#000000" fill-rule="nonzero" /><path id="1169" transform="matrix(1 0 0 -1 0 841)" d="M191.075 332.206L244.562 332.206" stroke="#000000" stroke-width="0.436" fill="none" /><path id="1185" transform="matrix(1 0 0 -1 0 841)" d="M260.278 332.206L296.038 332.206" stroke="#000000" stroke-width="0.436" fill="none" /></g></g></svg>