<svg xmlns="http://www.w3.org/2000/svg" xmlns:xlink="http://www.w3.org/1999/xlink" id="body_312" preserveAspectRatio="xMinYMin meet" viewBox="0 0 793 1121"><defs><clipPath id="1"><path id="" clip-rule="evenodd" transform="matrix(1 0 0 1 0 0)" d="M0 841L0 -0.8900146L0 -0.8900146L595.276 -0.8900146L595.276 -0.8900146L595.276 841L595.276 841L0 841z" /></clipPath></defs><g transform="matrix(1.333333 0 0 1.333333 0 0)"><g clip-path="url(#1)"><path id="30" transform="matrix(1 0 0 -1 0 841)" d="M85.039 766.564L510.236 766.564" stroke="#000000" stroke-width="0.498" fill="none" /><g transform="matrix(0.2 0 0 0.2 164.54 84.14801)"><g transform="matrix(1 0 0 1 0 0)"><image x="0" y="0" xlink:href="img_269.png" width="1331" height="580" /></g></g><g transform="matrix(0.25 0 0 0.25 137.388 321.074)"><g transform="matrix(1 0 0 1 0 0)"><image x="0" y="0" xlink:href="img_271.png" width="1282" height="516" /></g></g><path id="656" transform="matrix(1 0 0 -1 0 841)" d="M290.718 235.738L325.321 235.738" stroke="#000000" stroke-width="0.436" fill="none" /><path id="667" transform="matrix(1 0 0 -1 0 841)" d="M85.039 84.20998L85.039 187.6456C 85.039 189.994 86.94264 191.8976 89.29099 191.8976L89.29099 191.8976L505.9893 191.8976C 508.3377 191.8976 510.2413 189.994 510.2413 187.6456L510.2413 187.6456L510.2413 84.20998C 510.2413 81.86164 508.3377 79.958 505.9893 79.958L505.9893 79.958L89.29099 79.958C 86.94264 79.958 85.039 81.86164 85.039 84.20998z" stroke="none" fill="#BFBFFF" fill-rule="nonzero" /><path id="668" transform="matrix(1 0 0 -1 0 841)" d="M86.45631 84.20998L86.45631 175.8883L86.45631 175.8883L508.824 175.8883L508.824 175.8883L508.824 84.20998C 508.824 82.64443 507.5549 81.37531 505.9893 81.37531L505.9893 81.37531L89.29099 81.37531C 87.72543 81.37531 86.45631 82.64443 86.45631 84.20998z" stroke="none" fill="#E6E6FF" fill-rule="nonzero" /></g></g></svg>