<svg xmlns="http://www.w3.org/2000/svg" xmlns:xlink="http://www.w3.org/1999/xlink" id="body_141" preserveAspectRatio="xMinYMin meet" viewBox="0 0 793 1121"><defs><clipPath id="1"><path id="" clip-rule="evenodd" transform="matrix(1 0 0 1 0 0)" d="M0 841L0 -0.8900146L0 -0.8900146L595.276 -0.8900146L595.276 -0.8900146L595.276 841L595.276 841L0 841z" /></clipPath></defs><g transform="matrix(1.333333 0 0 1.333333 0 0)"><g clip-path="url(#1)"><path id="26" transform="matrix(1 0 0 -1 0 841)" d="M85.039 766.564L510.236 766.564" stroke="#000000" stroke-width="0.498" fill="none" /><g transform="matrix(0.4 0 0 0.4 245.239 156.975)"><g transform="matrix(1 0 0 1 0 0)"><image x="0" y="0" xlink:href="img_196.png" width="262" height="192" /></g></g><g transform="matrix(0.226178 0 0 0.226178 87.428 463.1297)"><g transform="matrix(1 0 0 1 0 0)"><image x="0" y="0" xlink:href="img_197.png" width="850" height="631" /></g></g><g transform="matrix(0.226178 0 0 0.225 302.25 423.148)"><g transform="matrix(1 0 0 1 0 0)"><image x="0" y="0" xlink:href="img_198.png" width="909" height="812" /></g></g></g></g></svg>