<svg xmlns="http://www.w3.org/2000/svg" xmlns:xlink="http://www.w3.org/1999/xlink" id="body_54" preserveAspectRatio="xMinYMin meet" viewBox="0 0 793 1121"><defs><clipPath id="1"><path id="" clip-rule="evenodd" transform="matrix(1 0 0 1 0 0)" d="M0 841L0 -0.8900146L0 -0.8900146L595.276 -0.8900146L595.276 -0.8900146L595.276 841L595.276 841L0 841z" /></clipPath></defs><g transform="matrix(1.333333 0 0 1.333333 0 0)"><g clip-path="url(#1)"><path id="45" transform="matrix(1 0 0 -1 0 841)" d="M85.039 766.564L510.236 766.564" stroke="#000000" stroke-width="0.498" fill="none" /><path id="547" transform="matrix(1 0 0 -1 0 841)" d="M112.063 623.058L138.623 623.058" stroke="#000000" stroke-width="0.491" fill="none" /><path id="552" transform="matrix(1 0 0 -1 0 841)" d="M138.646 623.058L142.177 623.058" stroke="#000000" stroke-width="0.491" fill="none" /><path id="554" transform="matrix(1 0 0 -1 0 841)" d="M141.739 623.058L154.957 623.058" stroke="#000000" stroke-width="0.491" fill="none" /><path id="558" transform="matrix(1 0 0 -1 0 841)" d="M154.962 623.058L157.742 623.058" stroke="#000000" stroke-width="0.491" fill="none" /><path id="559" transform="matrix(1 0 0 -1 0 841)" d="M157.493 623.058L173.744 623.058" stroke="#000000" stroke-width="0.491" fill="none" /><path id="563" transform="matrix(1 0 0 -1 0 841)" d="M173.561 623.058L190.422 623.058" stroke="#000000" stroke-width="0.491" fill="none" /><path id="567" transform="matrix(1 0 0 -1 0 841)" d="M190.252 623.058L193.783 623.058" stroke="#000000" stroke-width="0.491" fill="none" /><path id="569" transform="matrix(1 0 0 -1 0 841)" d="M193.345 623.058L216.872 623.058" stroke="#000000" stroke-width="0.491" fill="none" /><path id="734" transform="matrix(1 0 0 -1 0 841)" d="M112.063 572.248L122.87 572.248" stroke="#000000" stroke-width="0.491" fill="none" /><path id="737" transform="matrix(1 0 0 -1 0 841)" d="M122.186 572.248L128.139 572.248" stroke="#000000" stroke-width="0.491" fill="none" /><path id="739" transform="matrix(1 0 0 -1 0 841)" d="M127.543 572.248L141.983 572.248" stroke="#000000" stroke-width="0.491" fill="none" /><path id="743" transform="matrix(1 0 0 -1 0 841)" d="M141.233 572.248L144.764 572.248" stroke="#000000" stroke-width="0.491" fill="none" /><path id="745" transform="matrix(1 0 0 -1 0 841)" d="M144.212 572.248L157.43 572.248" stroke="#000000" stroke-width="0.491" fill="none" /><path id="749" transform="matrix(1 0 0 -1 0 841)" d="M156.951 572.248L159.621 572.248" stroke="#000000" stroke-width="0.491" fill="none" /><path id="750" transform="matrix(1 0 0 -1 0 841)" d="M159.372 572.248L175.623 572.248" stroke="#000000" stroke-width="0.491" fill="none" /><path id="754" transform="matrix(1 0 0 -1 0 841)" d="M174.841 572.248L191.702 572.248" stroke="#000000" stroke-width="0.491" fill="none" /><path id="758" transform="matrix(1 0 0 -1 0 841)" d="M190.91 572.248L194.441 572.248" stroke="#000000" stroke-width="0.491" fill="none" /><path id="760" transform="matrix(1 0 0 -1 0 841)" d="M193.888 572.248L217.415 572.248" stroke="#000000" stroke-width="0.491" fill="none" /><path id="884" transform="matrix(1 0 0 -1 0 841)" d="M112.063 538.375L124.681 538.375" stroke="#000000" stroke-width="0.491" fill="none" /><path id="887" transform="matrix(1 0 0 -1 0 841)" d="M124.425 538.375L133.41 538.375" stroke="#000000" stroke-width="0.491" fill="none" /><path id="890" transform="matrix(1 0 0 -1 0 841)" d="M133.082 538.375L139.035 538.375" stroke="#000000" stroke-width="0.491" fill="none" /><path id="892" transform="matrix(1 0 0 -1 0 841)" d="M138.646 538.375L153.086 538.375" stroke="#000000" stroke-width="0.491" fill="none" /><path id="896" transform="matrix(1 0 0 -1 0 841)" d="M152.866 538.375L156.397 538.375" stroke="#000000" stroke-width="0.491" fill="none" /><path id="898" transform="matrix(1 0 0 -1 0 841)" d="M155.96 538.375L169.178 538.375" stroke="#000000" stroke-width="0.491" fill="none" /><path id="902" transform="matrix(1 0 0 -1 0 841)" d="M169.183 538.375L173.036 538.375" stroke="#000000" stroke-width="0.491" fill="none" /><path id="903" transform="matrix(1 0 0 -1 0 841)" d="M172.786 538.375L189.037 538.375" stroke="#000000" stroke-width="0.491" fill="none" /><path id="907" transform="matrix(1 0 0 -1 0 841)" d="M188.854 538.375L205.715 538.375" stroke="#000000" stroke-width="0.491" fill="none" /><path id="911" transform="matrix(1 0 0 -1 0 841)" d="M205.545 538.375L209.076 538.375" stroke="#000000" stroke-width="0.491" fill="none" /><path id="913" transform="matrix(1 0 0 -1 0 841)" d="M208.638 538.375L232.165 538.375" stroke="#000000" stroke-width="0.491" fill="none" /></g></g></svg>