<svg xmlns="http://www.w3.org/2000/svg" xmlns:xlink="http://www.w3.org/1999/xlink" id="body_357" preserveAspectRatio="xMinYMin meet" viewBox="0 0 793 1121"><defs><clipPath id="1"><path id="" clip-rule="evenodd" transform="matrix(1 0 0 1 0 0)" d="M0 841L0 -0.8900146L0 -0.8900146L595.276 -0.8900146L595.276 -0.8900146L595.276 841L595.276 841L0 841z" /></clipPath></defs><g transform="matrix(1.333333 0 0 1.333333 0 0)"><g clip-path="url(#1)"><path id="22" transform="matrix(1 0 0 -1 0 841)" d="M85.039 766.564L510.236 766.564" stroke="#000000" stroke-width="0.498" fill="none" /><path id="26" transform="matrix(1 0 0 -1 0 841)" d="M113.508 740.572L129.871 740.572" stroke="#000000" stroke-width="0.436" fill="none" /><path id="40" transform="matrix(1 0 0 -1 0 841)" d="M164.972 740.572L179.218 740.572" stroke="#000000" stroke-width="0.436" fill="none" /><path id="54" transform="matrix(1 0 0 -1 0 841)" d="M190.094 740.572L223.977 740.572" stroke="#000000" stroke-width="0.436" fill="none" /><path id="68" transform="matrix(1 0 0 -1 0 841)" d="M234.853 740.572L259.693 740.572" stroke="#000000" stroke-width="0.436" fill="none" /><path id="81" transform="matrix(1 0 0 -1 0 841)" d="M303.636 740.572L319.999 740.572" stroke="#000000" stroke-width="0.436" fill="none" /><path id="85" transform="matrix(1 0 0 -1 0 841)" d="M274.213 755.929L324.582 755.929" stroke="#000000" stroke-width="0.398" fill="none" /><path id="86" transform="matrix(1 0 0 -1 0 841)" d="M274.413 727.053L274.413 755.929" stroke="#000000" stroke-width="0.398" fill="none" /><path id="87" transform="matrix(1 0 0 -1 0 841)" d="M324.383 727.053L324.383 755.929" stroke="#000000" stroke-width="0.398" fill="none" /><path id="88" transform="matrix(1 0 0 -1 0 841)" d="M274.213 727.053L324.582 727.053" stroke="#000000" stroke-width="0.398" fill="none" /><path id="168" transform="matrix(1 0 0 -1 0 841)" d="M113.508 671.816L129.871 671.816" stroke="#000000" stroke-width="0.436" fill="none" /><path id="181" transform="matrix(1 0 0 -1 0 841)" d="M164.972 671.816L182.372 671.816" stroke="#000000" stroke-width="0.436" fill="none" /><path id="200" transform="matrix(1 0 0 -1 0 841)" d="M193.248 671.816L254.395 671.816" stroke="#000000" stroke-width="0.436" fill="none" /><path id="211" transform="matrix(1 0 0 -1 0 841)" d="M265.271 671.816L307.686 671.816" stroke="#000000" stroke-width="0.436" fill="none" /><path id="229" transform="matrix(1 0 0 -1 0 841)" d="M352.841 671.816L369.204 671.816" stroke="#000000" stroke-width="0.436" fill="none" /><path id="233" transform="matrix(1 0 0 -1 0 841)" d="M322.206 687.173L373.787 687.173" stroke="#000000" stroke-width="0.398" fill="none" /><path id="234" transform="matrix(1 0 0 -1 0 841)" d="M322.406 658.297L322.406 687.173" stroke="#000000" stroke-width="0.398" fill="none" /><path id="235" transform="matrix(1 0 0 -1 0 841)" d="M373.588 658.297L373.588 687.173" stroke="#000000" stroke-width="0.398" fill="none" /><path id="236" transform="matrix(1 0 0 -1 0 841)" d="M322.206 658.297L373.787 658.297" stroke="#000000" stroke-width="0.398" fill="none" /><path id="399" transform="matrix(1 0 0 -1 0 841)" d="M113.508 570.896L129.828 570.896" stroke="#000000" stroke-width="0.436" fill="none" /><path id="411" transform="matrix(1 0 0 -1 0 841)" d="M161.907 570.896L178.27 570.896" stroke="#000000" stroke-width="0.436" fill="none" /><path id="419" transform="matrix(1 0 0 -1 0 841)" d="M189.146 570.896L224.938 570.896" stroke="#000000" stroke-width="0.436" fill="none" /><path id="439" transform="matrix(1 0 0 -1 0 841)" d="M235.814 570.896L278.229 570.896" stroke="#000000" stroke-width="0.436" fill="none" /><path id="454" transform="matrix(1 0 0 -1 0 841)" d="M334.294 570.896L350.614 570.896" stroke="#000000" stroke-width="0.436" fill="none" /><path id="458" transform="matrix(1 0 0 -1 0 841)" d="M292.75 586.253L355.196 586.253" stroke="#000000" stroke-width="0.398" fill="none" /><path id="459" transform="matrix(1 0 0 -1 0 841)" d="M292.949 555.271L292.949 586.252" stroke="#000000" stroke-width="0.398" fill="none" /><path id="460" transform="matrix(1 0 0 -1 0 841)" d="M354.997 555.271L354.997 586.252" stroke="#000000" stroke-width="0.398" fill="none" /><path id="461" transform="matrix(1 0 0 -1 0 841)" d="M292.75 555.271L355.196 555.271" stroke="#000000" stroke-width="0.398" fill="none" /><path id="567" transform="matrix(1 0 0 -1 0 841)" d="M113.508 484.084L168.366 484.084" stroke="#000000" stroke-width="0.436" fill="none" /><path id="588" transform="matrix(1 0 0 -1 0 841)" d="M210.134 484.084L224.38 484.084" stroke="#000000" stroke-width="0.436" fill="none" /><path id="601" transform="matrix(1 0 0 -1 0 841)" d="M235.256 484.084L269.139 484.084" stroke="#000000" stroke-width="0.436" fill="none" /><path id="613" transform="matrix(1 0 0 -1 0 841)" d="M280.015 484.084L334.873 484.084" stroke="#000000" stroke-width="0.436" fill="none" /><path id="632" transform="matrix(1 0 0 -1 0 841)" d="M378.816 484.084L395.136 484.084" stroke="#000000" stroke-width="0.436" fill="none" /><path id="636" transform="matrix(1 0 0 -1 0 841)" d="M349.394 499.441L399.719 499.441" stroke="#000000" stroke-width="0.398" fill="none" /><path id="637" transform="matrix(1 0 0 -1 0 841)" d="M349.593 468.46L349.593 499.441" stroke="#000000" stroke-width="0.398" fill="none" /><path id="638" transform="matrix(1 0 0 -1 0 841)" d="M399.52 468.46L399.52 499.441" stroke="#000000" stroke-width="0.398" fill="none" /><path id="639" transform="matrix(1 0 0 -1 0 841)" d="M349.394 468.46L399.719 468.46" stroke="#000000" stroke-width="0.398" fill="none" /><path id="673" transform="matrix(1 0 0 -1 0 841)" d="M138.286 417.384L172.766 417.384" stroke="#000000" stroke-width="0.436" fill="none" /><path id="683" transform="matrix(1 0 0 -1 0 841)" d="M188.482 417.384L221.807 417.384" stroke="#000000" stroke-width="0.436" fill="none" /><path id="694" transform="matrix(1 0 0 -1 0 841)" d="M236.327 425.833L273.941 425.833" stroke="#000000" stroke-width="0.398" fill="none" /><path id="695" transform="matrix(1 0 0 -1 0 841)" d="M236.526 411.284L236.526 425.834" stroke="#000000" stroke-width="0.398" fill="none" /><path id="696" transform="matrix(1 0 0 -1 0 841)" d="M273.742 411.284L273.742 425.834" stroke="#000000" stroke-width="0.398" fill="none" /><path id="697" transform="matrix(1 0 0 -1 0 841)" d="M236.327 411.284L273.941 411.284" stroke="#000000" stroke-width="0.398" fill="none" /><path id="754" transform="matrix(1 0 0 -1 0 841)" d="M290.874 363.685L329.099 363.685" stroke="#000000" stroke-width="0.398" fill="none" /><path id="755" transform="matrix(1 0 0 -1 0 841)" d="M291.073 349.081L291.073 363.685" stroke="#000000" stroke-width="0.398" fill="none" /><path id="756" transform="matrix(1 0 0 -1 0 841)" d="M328.899 349.081L328.899 363.685" stroke="#000000" stroke-width="0.398" fill="none" /><path id="757" transform="matrix(1 0 0 -1 0 841)" d="M290.874 349.081L329.099 349.081" stroke="#000000" stroke-width="0.398" fill="none" /><path id="964" transform="matrix(1 0 0 -1 0 841)" d="M172.33 222.843L220.199 222.843" stroke="#000000" stroke-width="0.436" fill="none" /><path id="976" transform="matrix(1 0 0 -1 0 841)" d="M231.12 222.843L275.957 222.843" stroke="#000000" stroke-width="0.436" fill="none" /><path id="995" transform="matrix(1 0 0 -1 0 841)" d="M290.545 230.814L353.446 230.814" stroke="#000000" stroke-width="0.398" fill="none" /><path id="996" transform="matrix(1 0 0 -1 0 841)" d="M290.745 216.758L290.745 230.814" stroke="#000000" stroke-width="0.398" fill="none" /><path id="997" transform="matrix(1 0 0 -1 0 841)" d="M353.247 216.758L353.247 230.814" stroke="#000000" stroke-width="0.398" fill="none" /><path id="998" transform="matrix(1 0 0 -1 0 841)" d="M290.545 216.758L353.446 216.758" stroke="#000000" stroke-width="0.398" fill="none" /><path id="1106" transform="matrix(1 0 0 -1 0 841)" d="M112.312 170.947L178.422 170.947" stroke="#000000" stroke-width="0.398" fill="none" /><path id="1107" transform="matrix(1 0 0 -1 0 841)" d="M112.511 153.722L112.511 170.947" stroke="#000000" stroke-width="0.398" fill="none" /><path id="1108" transform="matrix(1 0 0 -1 0 841)" d="M178.223 153.722L178.223 170.947" stroke="#000000" stroke-width="0.398" fill="none" /><path id="1109" transform="matrix(1 0 0 -1 0 841)" d="M112.312 153.722L178.422 153.722" stroke="#000000" stroke-width="0.398" fill="none" /></g></g></svg>