<svg xmlns="http://www.w3.org/2000/svg" xmlns:xlink="http://www.w3.org/1999/xlink" id="body_150" preserveAspectRatio="xMinYMin meet" viewBox="0 0 793 1121"><defs><clipPath id="1"><path id="" clip-rule="evenodd" transform="matrix(1 0 0 1 0 0)" d="M0 841L0 -0.8900146L0 -0.8900146L595.276 -0.8900146L595.276 -0.8900146L595.276 841L595.276 841L0 841z" /></clipPath></defs><g transform="matrix(1.333333 0 0 1.333333 0 0)"><g clip-path="url(#1)"><path id="25" transform="matrix(1 0 0 -1 0 841)" d="M85.039 766.564L510.236 766.564" stroke="#000000" stroke-width="0.498" fill="none" /><g transform="matrix(0.49608 0 0 0.49608 0.199 -0.6921387)"><g transform="matrix(1 0 0 1 0 0)"><image x="0" y="0" xlink:href="img_216.png" width="1200" height="628" /></g></g><path id="28" transform="matrix(1 0 0 -1 0 841)" d="M724.611 610.1811L100.9809 610.1811C 92.72734 610.1811 86.03673 603.4905 86.03673 595.2369L86.03673 595.2369L86.03673 578.3002C 86.03673 570.0466 92.72734 563.3561 100.9809 563.3561L100.9809 563.3561L724.611 563.3561C 732.8644 563.3561 739.5551 570.0466 739.5551 578.3002L739.5551 578.3002L739.5551 595.2369C 739.5551 603.4905 732.8644 610.1811 724.611 610.1811z" stroke="#F36619" stroke-width="1.99255" fill="#FFFFFF" fill-rule="nonzero" fill-opacity="0.4980392" /><path id="44" transform="matrix(1 0 0 -1 0 841)" d="M85.039 476.701L563.688 476.701" stroke="#000000" stroke-width="0.398" fill="none" /><path id="45" transform="matrix(1 0 0 -1 0 841)" d="M85.239 462.953L85.239 476.502" stroke="#000000" stroke-width="0.398" fill="none" /><path id="98" transform="matrix(1 0 0 -1 0 841)" d="M563.489 462.953L563.489 476.502" stroke="#000000" stroke-width="0.398" fill="none" /><path id="99" transform="matrix(1 0 0 -1 0 841)" d="M85.039 462.753L563.688 462.753" stroke="#000000" stroke-width="0.398" fill="none" /><path id="100" transform="matrix(1 0 0 -1 0 841)" d="M85.239 449.005L85.239 462.554" stroke="#000000" stroke-width="0.398" fill="none" /><path id="144" transform="matrix(1 0 0 -1 0 841)" d="M563.489 449.005L563.489 462.554" stroke="#000000" stroke-width="0.398" fill="none" /><path id="145" transform="matrix(1 0 0 -1 0 841)" d="M85.039 448.806L563.688 448.806" stroke="#000000" stroke-width="0.398" fill="none" /><path id="146" transform="matrix(1 0 0 -1 0 841)" d="M85.239 435.057L85.239 448.606" stroke="#000000" stroke-width="0.398" fill="none" /><path id="149" transform="matrix(1 0 0 -1 0 841)" d="M125.939 435.057L125.939 448.606" stroke="#000000" stroke-width="0.398" fill="none" /><path id="179" transform="matrix(1 0 0 -1 0 841)" d="M563.489 435.057L563.489 448.606" stroke="#000000" stroke-width="0.398" fill="none" /><path id="180" transform="matrix(1 0 0 -1 0 841)" d="M85.039 434.858L563.688 434.858" stroke="#000000" stroke-width="0.398" fill="none" /><path id="181" transform="matrix(1 0 0 -1 0 841)" d="M85.239 421.109L85.239 434.658" stroke="#000000" stroke-width="0.398" fill="none" /><path id="184" transform="matrix(1 0 0 -1 0 841)" d="M125.939 421.109L125.939 434.658" stroke="#000000" stroke-width="0.398" fill="none" /><path id="229" transform="matrix(1 0 0 -1 0 841)" d="M563.489 421.109L563.489 434.658" stroke="#000000" stroke-width="0.398" fill="none" /><path id="230" transform="matrix(1 0 0 -1 0 841)" d="M85.039 420.91L563.688 420.91" stroke="#000000" stroke-width="0.398" fill="none" /><path id="231" transform="matrix(1 0 0 -1 0 841)" d="M85.239 407.162L85.239 420.711" stroke="#000000" stroke-width="0.398" fill="none" /><path id="234" transform="matrix(1 0 0 -1 0 841)" d="M125.939 407.162L125.939 420.711" stroke="#000000" stroke-width="0.398" fill="none" /><path id="268" transform="matrix(1 0 0 -1 0 841)" d="M563.489 407.162L563.489 420.711" stroke="#000000" stroke-width="0.398" fill="none" /><path id="269" transform="matrix(1 0 0 -1 0 841)" d="M85.039 406.963L563.688 406.963" stroke="#000000" stroke-width="0.398" fill="none" /><path id="270" transform="matrix(1 0 0 -1 0 841)" d="M85.239 393.214L85.239 406.763" stroke="#000000" stroke-width="0.398" fill="none" /><path id="273" transform="matrix(1 0 0 -1 0 841)" d="M125.939 393.214L125.939 406.763" stroke="#000000" stroke-width="0.398" fill="none" /><path id="296" transform="matrix(1 0 0 -1 0 841)" d="M563.489 393.214L563.489 406.763" stroke="#000000" stroke-width="0.398" fill="none" /><path id="297" transform="matrix(1 0 0 -1 0 841)" d="M85.039 393.015L563.688 393.015" stroke="#000000" stroke-width="0.398" fill="none" /><path id="298" transform="matrix(1 0 0 -1 0 841)" d="M85.239 379.266L85.239 392.815" stroke="#000000" stroke-width="0.398" fill="none" /><path id="301" transform="matrix(1 0 0 -1 0 841)" d="M125.939 379.266L125.939 392.815" stroke="#000000" stroke-width="0.398" fill="none" /><path id="337" transform="matrix(1 0 0 -1 0 841)" d="M563.489 379.266L563.489 392.815" stroke="#000000" stroke-width="0.398" fill="none" /><path id="338" transform="matrix(1 0 0 -1 0 841)" d="M85.039 379.067L563.688 379.067" stroke="#000000" stroke-width="0.398" fill="none" /><path id="339" transform="matrix(1 0 0 -1 0 841)" d="M85.239 365.319L85.239 378.868" stroke="#000000" stroke-width="0.398" fill="none" /><path id="342" transform="matrix(1 0 0 -1 0 841)" d="M125.939 365.319L125.939 378.868" stroke="#000000" stroke-width="0.398" fill="none" /><path id="378" transform="matrix(1 0 0 -1 0 841)" d="M563.489 365.319L563.489 378.868" stroke="#000000" stroke-width="0.398" fill="none" /><path id="379" transform="matrix(1 0 0 -1 0 841)" d="M85.039 365.12L563.688 365.12" stroke="#000000" stroke-width="0.398" fill="none" /><path id="380" transform="matrix(1 0 0 -1 0 841)" d="M85.239 351.371L85.239 364.92" stroke="#000000" stroke-width="0.398" fill="none" /><path id="383" transform="matrix(1 0 0 -1 0 841)" d="M125.939 351.371L125.939 364.92" stroke="#000000" stroke-width="0.398" fill="none" /><path id="410" transform="matrix(1 0 0 -1 0 841)" d="M563.489 351.371L563.489 364.92" stroke="#000000" stroke-width="0.398" fill="none" /><path id="411" transform="matrix(1 0 0 -1 0 841)" d="M85.039 351.172L563.688 351.172" stroke="#000000" stroke-width="0.398" fill="none" /><path id="412" transform="matrix(1 0 0 -1 0 841)" d="M85.239 337.423L85.239 350.972" stroke="#000000" stroke-width="0.398" fill="none" /><path id="415" transform="matrix(1 0 0 -1 0 841)" d="M125.939 337.423L125.939 350.972" stroke="#000000" stroke-width="0.398" fill="none" /><path id="458" transform="matrix(1 0 0 -1 0 841)" d="M563.489 337.423L563.489 350.972" stroke="#000000" stroke-width="0.398" fill="none" /><path id="459" transform="matrix(1 0 0 -1 0 841)" d="M85.039 337.224L563.688 337.224" stroke="#000000" stroke-width="0.398" fill="none" /><path id="460" transform="matrix(1 0 0 -1 0 841)" d="M85.239 323.476L85.239 337.025" stroke="#000000" stroke-width="0.398" fill="none" /><path id="463" transform="matrix(1 0 0 -1 0 841)" d="M125.939 323.476L125.939 337.025" stroke="#000000" stroke-width="0.398" fill="none" /><path id="501" transform="matrix(1 0 0 -1 0 841)" d="M563.489 323.476L563.489 337.025" stroke="#000000" stroke-width="0.398" fill="none" /><path id="502" transform="matrix(1 0 0 -1 0 841)" d="M85.039 323.277L563.688 323.277" stroke="#000000" stroke-width="0.398" fill="none" /><path id="503" transform="matrix(1 0 0 -1 0 841)" d="M85.239 309.528L85.239 323.077" stroke="#000000" stroke-width="0.398" fill="none" /><path id="506" transform="matrix(1 0 0 -1 0 841)" d="M125.939 309.528L125.939 323.077" stroke="#000000" stroke-width="0.398" fill="none" /><path id="552" transform="matrix(1 0 0 -1 0 841)" d="M563.489 309.528L563.489 323.077" stroke="#000000" stroke-width="0.398" fill="none" /><path id="553" transform="matrix(1 0 0 -1 0 841)" d="M85.039 309.329L563.688 309.329" stroke="#000000" stroke-width="0.398" fill="none" /><path id="554" transform="matrix(1 0 0 -1 0 841)" d="M85.239 295.58L85.239 309.129" stroke="#000000" stroke-width="0.398" fill="none" /><path id="557" transform="matrix(1 0 0 -1 0 841)" d="M125.939 295.58L125.939 309.129" stroke="#000000" stroke-width="0.398" fill="none" /><path id="600" transform="matrix(1 0 0 -1 0 841)" d="M563.489 295.58L563.489 309.129" stroke="#000000" stroke-width="0.398" fill="none" /><path id="601" transform="matrix(1 0 0 -1 0 841)" d="M85.039 295.381L563.688 295.381" stroke="#000000" stroke-width="0.398" fill="none" /><path id="602" transform="matrix(1 0 0 -1 0 841)" d="M85.239 281.633L85.239 295.182" stroke="#000000" stroke-width="0.398" fill="none" /><path id="605" transform="matrix(1 0 0 -1 0 841)" d="M125.939 281.633L125.939 295.182" stroke="#000000" stroke-width="0.398" fill="none" /><path id="657" transform="matrix(1 0 0 -1 0 841)" d="M563.489 281.633L563.489 295.182" stroke="#000000" stroke-width="0.398" fill="none" /><path id="658" transform="matrix(1 0 0 -1 0 841)" d="M85.039 281.433L563.688 281.433" stroke="#000000" stroke-width="0.398" fill="none" /><path id="659" transform="matrix(1 0 0 -1 0 841)" d="M85.239 267.685L85.239 281.234" stroke="#000000" stroke-width="0.398" fill="none" /><path id="662" transform="matrix(1 0 0 -1 0 841)" d="M125.939 267.685L125.939 281.234" stroke="#000000" stroke-width="0.398" fill="none" /><path id="693" transform="matrix(1 0 0 -1 0 841)" d="M563.489 267.685L563.489 281.234" stroke="#000000" stroke-width="0.398" fill="none" /><path id="694" transform="matrix(1 0 0 -1 0 841)" d="M85.039 267.486L563.688 267.486" stroke="#000000" stroke-width="0.398" fill="none" /><path id="695" transform="matrix(1 0 0 -1 0 841)" d="M85.239 253.737L85.239 267.286" stroke="#000000" stroke-width="0.398" fill="none" /><path id="698" transform="matrix(1 0 0 -1 0 841)" d="M125.939 253.737L125.939 267.286" stroke="#000000" stroke-width="0.398" fill="none" /><path id="736" transform="matrix(1 0 0 -1 0 841)" d="M563.489 253.737L563.489 267.286" stroke="#000000" stroke-width="0.398" fill="none" /><path id="737" transform="matrix(1 0 0 -1 0 841)" d="M85.039 253.538L563.688 253.538" stroke="#000000" stroke-width="0.398" fill="none" /><path id="738" transform="matrix(1 0 0 -1 0 841)" d="M85.239 239.79L85.239 253.339" stroke="#000000" stroke-width="0.398" fill="none" /><path id="741" transform="matrix(1 0 0 -1 0 841)" d="M125.939 239.79L125.939 253.339" stroke="#000000" stroke-width="0.398" fill="none" /><path id="788" transform="matrix(1 0 0 -1 0 841)" d="M563.489 239.79L563.489 253.339" stroke="#000000" stroke-width="0.398" fill="none" /><path id="789" transform="matrix(1 0 0 -1 0 841)" d="M85.039 239.59L563.688 239.59" stroke="#000000" stroke-width="0.398" fill="none" /><path id="790" transform="matrix(1 0 0 -1 0 841)" d="M85.239 225.842L85.239 239.391" stroke="#000000" stroke-width="0.398" fill="none" /><path id="793" transform="matrix(1 0 0 -1 0 841)" d="M125.939 225.842L125.939 239.391" stroke="#000000" stroke-width="0.398" fill="none" /><path id="841" transform="matrix(1 0 0 -1 0 841)" d="M563.489 225.842L563.489 239.391" stroke="#000000" stroke-width="0.398" fill="none" /><path id="842" transform="matrix(1 0 0 -1 0 841)" d="M85.039 225.643L563.688 225.643" stroke="#000000" stroke-width="0.398" fill="none" /><path id="843" transform="matrix(1 0 0 -1 0 841)" d="M85.239 211.894L85.239 225.443" stroke="#000000" stroke-width="0.398" fill="none" /><path id="846" transform="matrix(1 0 0 -1 0 841)" d="M125.939 211.894L125.939 225.443" stroke="#000000" stroke-width="0.398" fill="none" /><path id="873" transform="matrix(1 0 0 -1 0 841)" d="M563.489 211.894L563.489 225.443" stroke="#000000" stroke-width="0.398" fill="none" /><path id="874" transform="matrix(1 0 0 -1 0 841)" d="M85.039 211.695L563.688 211.695" stroke="#000000" stroke-width="0.398" fill="none" /><path id="875" transform="matrix(1 0 0 -1 0 841)" d="M85.239 197.947L85.239 211.496" stroke="#000000" stroke-width="0.398" fill="none" /><path id="878" transform="matrix(1 0 0 -1 0 841)" d="M125.939 197.947L125.939 211.496" stroke="#000000" stroke-width="0.398" fill="none" /><path id="906" transform="matrix(1 0 0 -1 0 841)" d="M563.489 197.947L563.489 211.496" stroke="#000000" stroke-width="0.398" fill="none" /><path id="907" transform="matrix(1 0 0 -1 0 841)" d="M85.039 197.747L563.688 197.747" stroke="#000000" stroke-width="0.398" fill="none" /><path id="908" transform="matrix(1 0 0 -1 0 841)" d="M85.239 183.999L85.239 197.548" stroke="#000000" stroke-width="0.398" fill="none" /><path id="911" transform="matrix(1 0 0 -1 0 841)" d="M125.939 183.999L125.939 197.548" stroke="#000000" stroke-width="0.398" fill="none" /><path id="959" transform="matrix(1 0 0 -1 0 841)" d="M563.489 183.999L563.489 197.548" stroke="#000000" stroke-width="0.398" fill="none" /><path id="960" transform="matrix(1 0 0 -1 0 841)" d="M85.039 183.8L563.688 183.8" stroke="#000000" stroke-width="0.398" fill="none" /><path id="961" transform="matrix(1 0 0 -1 0 841)" d="M85.239 170.051L85.239 183.6" stroke="#000000" stroke-width="0.398" fill="none" /><path id="964" transform="matrix(1 0 0 -1 0 841)" d="M125.939 170.051L125.939 183.6" stroke="#000000" stroke-width="0.398" fill="none" /><path id="1021" transform="matrix(1 0 0 -1 0 841)" d="M563.489 170.051L563.489 183.6" stroke="#000000" stroke-width="0.398" fill="none" /><path id="1022" transform="matrix(1 0 0 -1 0 841)" d="M85.039 169.852L563.688 169.852" stroke="#000000" stroke-width="0.398" fill="none" /><path id="1023" transform="matrix(1 0 0 -1 0 841)" d="M85.239 156.104L85.239 169.653" stroke="#000000" stroke-width="0.398" fill="none" /><path id="1026" transform="matrix(1 0 0 -1 0 841)" d="M125.939 156.104L125.939 169.653" stroke="#000000" stroke-width="0.398" fill="none" /><path id="1096" transform="matrix(1 0 0 -1 0 841)" d="M563.489 156.104L563.489 169.653" stroke="#000000" stroke-width="0.398" fill="none" /><path id="1097" transform="matrix(1 0 0 -1 0 841)" d="M85.039 155.904L563.688 155.904" stroke="#000000" stroke-width="0.398" fill="none" /><path id="1098" transform="matrix(1 0 0 -1 0 841)" d="M85.239 142.156L85.239 155.705" stroke="#000000" stroke-width="0.398" fill="none" /><path id="1101" transform="matrix(1 0 0 -1 0 841)" d="M125.939 142.156L125.939 155.705" stroke="#000000" stroke-width="0.398" fill="none" /><path id="1122" transform="matrix(1 0 0 -1 0 841)" d="M563.489 142.156L563.489 155.705" stroke="#000000" stroke-width="0.398" fill="none" /><path id="1123" transform="matrix(1 0 0 -1 0 841)" d="M85.039 141.957L563.688 141.957" stroke="#000000" stroke-width="0.398" fill="none" /><path id="1124" transform="matrix(1 0 0 -1 0 841)" d="M85.239 128.208L85.239 141.757" stroke="#000000" stroke-width="0.398" fill="none" /><path id="1127" transform="matrix(1 0 0 -1 0 841)" d="M125.939 128.208L125.939 141.757" stroke="#000000" stroke-width="0.398" fill="none" /><path id="1194" transform="matrix(1 0 0 -1 0 841)" d="M563.489 128.208L563.489 141.757" stroke="#000000" stroke-width="0.398" fill="none" /><path id="1195" transform="matrix(1 0 0 -1 0 841)" d="M85.039 128.009L563.688 128.009" stroke="#000000" stroke-width="0.398" fill="none" /><path id="1196" transform="matrix(1 0 0 -1 0 841)" d="M85.239 114.261L85.239 127.81" stroke="#000000" stroke-width="0.398" fill="none" /><path id="1199" transform="matrix(1 0 0 -1 0 841)" d="M125.939 114.261L125.939 127.81" stroke="#000000" stroke-width="0.398" fill="none" /><path id="1228" transform="matrix(1 0 0 -1 0 841)" d="M563.489 114.261L563.489 127.81" stroke="#000000" stroke-width="0.398" fill="none" /><path id="1229" transform="matrix(1 0 0 -1 0 841)" d="M85.039 114.061L563.688 114.061" stroke="#000000" stroke-width="0.398" fill="none" /><path id="1230" transform="matrix(1 0 0 -1 0 841)" d="M85.239 100.313L85.239 113.862" stroke="#000000" stroke-width="0.398" fill="none" /><path id="1233" transform="matrix(1 0 0 -1 0 841)" d="M125.939 100.313L125.939 113.862" stroke="#000000" stroke-width="0.398" fill="none" /><path id="1257" transform="matrix(1 0 0 -1 0 841)" d="M563.489 100.313L563.489 113.862" stroke="#000000" stroke-width="0.398" fill="none" /><path id="1258" transform="matrix(1 0 0 -1 0 841)" d="M85.039 100.114L563.688 100.114" stroke="#000000" stroke-width="0.398" fill="none" /><path id="1259" transform="matrix(1 0 0 -1 0 841)" d="M85.239 86.365L85.239 99.914" stroke="#000000" stroke-width="0.398" fill="none" /><path id="1262" transform="matrix(1 0 0 -1 0 841)" d="M125.939 86.365L125.939 99.914" stroke="#000000" stroke-width="0.398" fill="none" /><path id="1286" transform="matrix(1 0 0 -1 0 841)" d="M563.489 86.365L563.489 99.914" stroke="#000000" stroke-width="0.398" fill="none" /><path id="1287" transform="matrix(1 0 0 -1 0 841)" d="M85.039 86.166L563.688 86.166" stroke="#000000" stroke-width="0.398" fill="none" /><path id="1288" transform="matrix(1 0 0 -1 0 841)" d="M85.239 72.417L85.239 85.966" stroke="#000000" stroke-width="0.398" fill="none" /><path id="1291" transform="matrix(1 0 0 -1 0 841)" d="M125.939 72.417L125.939 85.966" stroke="#000000" stroke-width="0.398" fill="none" /><path id="1322" transform="matrix(1 0 0 -1 0 841)" d="M563.489 72.417L563.489 85.966" stroke="#000000" stroke-width="0.398" fill="none" /><path id="1323" transform="matrix(1 0 0 -1 0 841)" d="M85.039 72.218L563.688 72.218" stroke="#000000" stroke-width="0.398" fill="none" /></g></g></svg>