<svg xmlns="http://www.w3.org/2000/svg" xmlns:xlink="http://www.w3.org/1999/xlink" id="body_267" preserveAspectRatio="xMinYMin meet" viewBox="0 0 793 1121"><defs><clipPath id="1"><path id="" clip-rule="evenodd" transform="matrix(1 0 0 1 0 0)" d="M0 841L0 -0.8900146L0 -0.8900146L595.276 -0.8900146L595.276 -0.8900146L595.276 841L595.276 841L0 841z" /></clipPath></defs><g transform="matrix(1.333333 0 0 1.333333 0 0)"><g clip-path="url(#1)"><path id="23" transform="matrix(1 0 0 -1 0 841)" d="M85.039 766.564L510.236 766.564" stroke="#000000" stroke-width="0.498" fill="none" /><path id="138" transform="matrix(1 0 0 -1 0 841)" d="M330.0166 690.4328L265.2594 690.4328C 263.0585 690.4328 261.2743 688.6486 261.2743 686.4477L261.2743 686.4477L261.2743 661.6902C 261.2743 659.4893 263.0585 657.7051 265.2594 657.7051L265.2594 657.7051L330.0166 657.7051C 332.2175 657.7051 334.0017 659.4893 334.0017 661.6902L334.0017 661.6902L334.0017 686.4477C 334.0017 688.6486 332.2175 690.4328 330.0166 690.4328z" stroke="#000000" stroke-width="0.3985" fill="#FF9999" fill-rule="nonzero" /><path id="216" transform="matrix(1 0 0 -1 0 841)" d="M211.9193 674.069L258.6841 674.069" stroke="#000000" stroke-width="0.3985" fill="none" /><path id="217" transform="matrix(1 0 0 -1 0 841)" d="M261.075 674.069C 260.0788 674.2682 258.2855 674.6667 257.09 675.5634C 258.0863 674.4675 258.0863 673.6705 257.09 672.5746C 258.2855 673.4712 260.0788 673.8697 261.075 674.069z" stroke="none" fill="#000000" fill-rule="nonzero" /><path id="218" transform="matrix(1 0 0 -1 0 841)" d="M334.2009 674.069L380.9657 674.069" stroke="#000000" stroke-width="0.3985" fill="none" /><path id="219" transform="matrix(1 0 0 -1 0 841)" d="M383.3567 674.069C 382.3604 674.2682 380.5672 674.6667 379.3717 675.5634C 380.368 674.4675 380.368 673.6705 379.3717 672.5746C 380.5672 673.4712 382.3604 673.8697 383.3567 674.069z" stroke="none" fill="#000000" fill-rule="nonzero" /><path id="220" transform="matrix(1 0 0 -1 0 841)" d="M297.638 657.5059L297.638 643.2297" stroke="#000000" stroke-width="0.3985" fill="none" /><path id="221" transform="matrix(1 0 0 -1 0 841)" d="M297.638 640.8386C 297.8372 641.8348 298.2357 643.6281 299.1324 644.8236C 298.0365 643.8274 297.2395 643.8274 296.1436 644.8236C 297.0403 643.6281 297.4388 641.8348 297.638 640.8386z" stroke="none" fill="#000000" fill-rule="nonzero" /><path id="283" transform="matrix(1 0 0 -1 0 841)" d="M244.376 570.26L289.138 570.26" stroke="#000000" stroke-width="0.436" fill="none" /><path id="309" transform="matrix(1 0 0 -1 0 841)" d="M329.702 570.26L427.733 570.26" stroke="#000000" stroke-width="0.436" fill="none" /><path id="538" transform="matrix(1 0 0 -1 0 841)" d="M208.922 436.696L246.904 436.696" stroke="#000000" stroke-width="0.436" fill="none" /><path id="553" transform="matrix(1 0 0 -1 0 841)" d="M301.408 436.696L337.754 436.696" stroke="#000000" stroke-width="0.436" fill="none" /><path id="564" transform="matrix(1 0 0 -1 0 841)" d="M377.123 452.758L427.767 452.758L427.767 456.743L377.123 456.743z" stroke="none" fill="#000000" fill-rule="nonzero" /><path id="565" transform="matrix(1 0 0 -1 0 841)" d="M377.123 420.469L381.108 420.469L381.108 454.751L377.123 454.751z" stroke="none" fill="#000000" fill-rule="nonzero" /><path id="566" transform="matrix(1 0 0 -1 0 841)" d="M423.781 420.469L427.766 420.469L427.766 454.751L423.781 454.751z" stroke="none" fill="#000000" fill-rule="nonzero" /><path id="567" transform="matrix(1 0 0 -1 0 841)" d="M377.123 418.476L427.767 418.476L427.767 422.461L377.123 422.461z" stroke="none" fill="#000000" fill-rule="nonzero" /><path id="609" transform="matrix(1 0 0 -1 0 841)" d="M180.884 339.741L197.204 339.741" stroke="#000000" stroke-width="0.436" fill="none" /><path id="630" transform="matrix(1 0 0 -1 0 841)" d="M283.184 339.741L296.515 339.741" stroke="#000000" stroke-width="0.436" fill="none" /></g></g></svg>