<svg xmlns="http://www.w3.org/2000/svg" xmlns:xlink="http://www.w3.org/1999/xlink" id="body_272" preserveAspectRatio="xMinYMin meet" viewBox="0 0 793 1121"><defs><clipPath id="1"><path id="" clip-rule="evenodd" transform="matrix(1 0 0 1 0 0)" d="M0 841L0 -0.8900146L0 -0.8900146L595.276 -0.8900146L595.276 -0.8900146L595.276 841L595.276 841L0 841z" /></clipPath></defs><g transform="matrix(1.333333 0 0 1.333333 0 0)"><g clip-path="url(#1)"><path id="40" transform="matrix(1 0 0 -1 0 841)" d="M85.039 766.564L510.236 766.564" stroke="#000000" stroke-width="0.498" fill="none" /><path id="223" transform="matrix(1 0 0 -1 0 841)" d="M141.067 561.748L167.119 561.748" stroke="#000000" stroke-width="0.436" fill="none" /><path id="235" transform="matrix(1 0 0 -1 0 841)" d="M181.639 577.811L262.184 577.811L262.184 581.796L181.639 581.796z" stroke="none" fill="#000000" fill-rule="nonzero" /><path id="236" transform="matrix(1 0 0 -1 0 841)" d="M181.639 543.465L185.624 543.465L185.624 579.803L181.639 579.803z" stroke="none" fill="#000000" fill-rule="nonzero" /><path id="237" transform="matrix(1 0 0 -1 0 841)" d="M258.199 543.465L262.184 543.465L262.184 579.803L258.199 579.803z" stroke="none" fill="#000000" fill-rule="nonzero" /><path id="238" transform="matrix(1 0 0 -1 0 841)" d="M181.639 541.472L262.184 541.472L262.184 545.457L181.639 545.457z" stroke="none" fill="#000000" fill-rule="nonzero" /><path id="365" transform="matrix(1 0 0 -1 0 841)" d="M144.86 456.542L210.805 456.542" stroke="#000000" stroke-width="0.436" fill="none" /><path id="423" transform="matrix(1 0 0 -1 0 841)" d="M140.875 396.465L194.182 396.465" stroke="#000000" stroke-width="0.436" fill="none" /><path id="437" transform="matrix(1 0 0 -1 0 841)" d="M208.703 412.527L289.248 412.527L289.248 416.512L208.703 416.512z" stroke="none" fill="#000000" fill-rule="nonzero" /><path id="438" transform="matrix(1 0 0 -1 0 841)" d="M208.703 378.181L212.688 378.181L212.688 414.519L208.703 414.519z" stroke="none" fill="#000000" fill-rule="nonzero" /><path id="439" transform="matrix(1 0 0 -1 0 841)" d="M285.263 378.181L289.248 378.181L289.248 414.519L285.263 414.519z" stroke="none" fill="#000000" fill-rule="nonzero" /><path id="440" transform="matrix(1 0 0 -1 0 841)" d="M208.703 376.189L289.248 376.189L289.248 380.174L208.703 380.174z" stroke="none" fill="#000000" fill-rule="nonzero" /><path id="454" transform="matrix(1 0 0 -1 0 841)" d="M136.89 346.794L195.652 346.794" stroke="#000000" stroke-width="0.436" fill="none" /><path id="468" transform="matrix(1 0 0 -1 0 841)" d="M210.172 362.703L290.717 362.703L290.717 366.688L210.172 366.688z" stroke="none" fill="#000000" fill-rule="nonzero" /><path id="469" transform="matrix(1 0 0 -1 0 841)" d="M210.172 328.51L214.157 328.51L214.157 364.696L210.172 364.696z" stroke="none" fill="#000000" fill-rule="nonzero" /><path id="470" transform="matrix(1 0 0 -1 0 841)" d="M286.732 328.51L290.717 328.51L290.717 364.696L286.732 364.696z" stroke="none" fill="#000000" fill-rule="nonzero" /><path id="471" transform="matrix(1 0 0 -1 0 841)" d="M210.172 326.518L290.717 326.518L290.717 330.503L210.172 330.503z" stroke="none" fill="#000000" fill-rule="nonzero" /><path id="732" transform="matrix(1 0 0 -1 0 841)" d="M168.369 142.765L228.966 142.765" stroke="#000000" stroke-width="0.436" fill="none" /><path id="741" transform="matrix(1 0 0 -1 0 841)" d="M243.486 158.773L309.228 158.773L309.228 162.758L243.486 162.758z" stroke="none" fill="#000000" fill-rule="nonzero" /><path id="742" transform="matrix(1 0 0 -1 0 841)" d="M243.486 124.345L247.471 124.345L247.471 160.765L243.486 160.765z" stroke="none" fill="#000000" fill-rule="nonzero" /><path id="743" transform="matrix(1 0 0 -1 0 841)" d="M305.243 124.345L309.228 124.345L309.228 160.765L305.243 160.765z" stroke="none" fill="#000000" fill-rule="nonzero" /><path id="744" transform="matrix(1 0 0 -1 0 841)" d="M243.486 122.353L309.228 122.353L309.228 126.338L243.486 126.338z" stroke="none" fill="#000000" fill-rule="nonzero" /></g></g></svg>