<svg xmlns="http://www.w3.org/2000/svg" xmlns:xlink="http://www.w3.org/1999/xlink" id="body_346" preserveAspectRatio="xMinYMin meet" viewBox="0 0 793 1121"><defs><clipPath id="1"><path id="" clip-rule="evenodd" transform="matrix(1 0 0 1 0 0)" d="M0 841L0 -0.8900146L0 -0.8900146L595.276 -0.8900146L595.276 -0.8900146L595.276 841L595.276 841L0 841z" /></clipPath></defs><g transform="matrix(1.333333 0 0 1.333333 0 0)"><g clip-path="url(#1)"><path id="34" transform="matrix(1 0 0 -1 0 841)" d="M85.039 766.564L510.236 766.564" stroke="#000000" stroke-width="0.498" fill="none" /><path id="77" transform="matrix(1 0 0 -1 0 841)" d="M151.905 703.407L190.294 703.407" stroke="#000000" stroke-width="0.436" fill="none" /><path id="98" transform="matrix(1 0 0 -1 0 841)" d="M204.814 711.319L258.235 711.319" stroke="#000000" stroke-width="0.398" fill="none" /><path id="99" transform="matrix(1 0 0 -1 0 841)" d="M205.013 697.252L205.013 711.319" stroke="#000000" stroke-width="0.398" fill="none" /><path id="100" transform="matrix(1 0 0 -1 0 841)" d="M258.036 697.252L258.036 711.319" stroke="#000000" stroke-width="0.398" fill="none" /><path id="101" transform="matrix(1 0 0 -1 0 841)" d="M204.814 697.252L258.235 697.252" stroke="#000000" stroke-width="0.398" fill="none" /><path id="263" transform="matrix(1 0 0 -1 0 841)" d="M283.701 617.054L295.0396 617.054" stroke="#000000" stroke-width="1.59404" fill="none" /><path id="264" transform="matrix(1 0 0 -1 0 841)" d="M181.6524 571.699L227.0074 571.699" stroke="#000000" stroke-width="1.59404" fill="none" /><path id="265" transform="matrix(1 0 0 -1 0 841)" d="M227.0074 571.699L283.701 617.054" stroke="#000000" stroke-width="1.59404" fill="none" /><path id="266" transform="matrix(1 0 0 -1 0 841)" d="M295.0396 572.0975L295.0396 615.5214" stroke="#000000" stroke-width="0.3985" fill="none" /><path id="267" transform="matrix(1 0 0 -1 0 841)" d="M297.4307 573.9705C 295.996 573.5919 295.3186 572.7482 295.0396 571.8982C 294.7607 572.7482 294.0832 573.5919 292.6486 573.9705" stroke="#000000" stroke-width="0.3985" stroke-linecap="round" fill="none" /><path id="268" transform="matrix(1 0 0 -1 0 841)" d="M292.6486 613.6484C 294.0832 614.027 294.7607 614.8707 295.0396 615.7206C 295.3186 614.8707 295.996 614.027 297.4307 613.6484" stroke="#000000" stroke-width="0.3985" stroke-linecap="round" fill="none" /><g transform="matrix(0.027675 0 0 0.027675 202.913 255.9794)"><g transform="matrix(1 0 0 1 0 0)"><image x="0" y="0" xlink:href="img_489.png" width="512" height="512" /></g></g><g transform="matrix(0.027675 0 0 0.027675 287.952 210.6254)"><g transform="matrix(1 0 0 1 0 0)"><image x="0" y="0" xlink:href="img_489.png" width="512" height="512" /></g></g><path id="274" transform="matrix(1 0 0 -1 0 841)" d="M238.346 571.699C 293.9055 631.2274 296.1737 631.2274 351.7332 571.699" stroke="#000000" stroke-width="0.3985" fill="none" /><path id="478" transform="matrix(1 0 0 -1 0 841)" d="M261.963 497.222L300.352 497.222" stroke="#000000" stroke-width="0.436" fill="none" /><path id="565" transform="matrix(1 0 0 -1 0 841)" d="M308.717 469.921L350.095 469.921" stroke="#000000" stroke-width="0.398" fill="none" /><path id="566" transform="matrix(1 0 0 -1 0 841)" d="M308.916 453.934L308.916 469.921" stroke="#000000" stroke-width="0.398" fill="none" /><path id="567" transform="matrix(1 0 0 -1 0 841)" d="M349.896 453.934L349.896 469.921" stroke="#000000" stroke-width="0.398" fill="none" /><path id="568" transform="matrix(1 0 0 -1 0 841)" d="M308.717 453.934L350.095 453.934" stroke="#000000" stroke-width="0.398" fill="none" /><path id="771" transform="matrix(1 0 0 -1 0 841)" d="M201.267 316.9L272.654 316.9" stroke="#000000" stroke-width="0.436" fill="none" /><path id="798" transform="matrix(1 0 0 -1 0 841)" d="M287.174 324.659L389.112 324.659" stroke="#000000" stroke-width="0.398" fill="none" /><path id="799" transform="matrix(1 0 0 -1 0 841)" d="M287.373 308.76L287.373 324.66" stroke="#000000" stroke-width="0.398" fill="none" /><path id="800" transform="matrix(1 0 0 -1 0 841)" d="M388.913 308.76L388.913 324.66" stroke="#000000" stroke-width="0.398" fill="none" /><path id="801" transform="matrix(1 0 0 -1 0 841)" d="M287.174 308.76L389.112 308.76" stroke="#000000" stroke-width="0.398" fill="none" /><path id="842" transform="matrix(1 0 0 -1 0 841)" d="M172.203 269.364L191.588 269.364" stroke="#000000" stroke-width="0.436" fill="none" /><path id="860" transform="matrix(1 0 0 -1 0 841)" d="M206.108 277.336L298.61 277.336" stroke="#000000" stroke-width="0.398" fill="none" /><path id="861" transform="matrix(1 0 0 -1 0 841)" d="M206.307 261.224L206.307 277.336" stroke="#000000" stroke-width="0.398" fill="none" /><path id="862" transform="matrix(1 0 0 -1 0 841)" d="M298.411 261.224L298.411 277.336" stroke="#000000" stroke-width="0.398" fill="none" /><path id="863" transform="matrix(1 0 0 -1 0 841)" d="M206.108 261.224L298.61 261.224" stroke="#000000" stroke-width="0.398" fill="none" /><g transform="matrix(0.06 0 0 0.06 112.312 654.625)"><g transform="matrix(1 0 0 1 0 0)"><image x="0" y="0" xlink:href="img_421.png" width="3009" height="713" /></g></g><g transform="matrix(0.06981818 0 0 0.06981815 112.312 704.0707)"><g transform="matrix(1 0 0 1 0 0)"><image x="0" y="0" xlink:href="img_490.png" width="1585" height="521" /></g></g><path id="990" transform="matrix(1 0 0 -1 0 841)" d="M251.883 103.281L291.265 103.281" stroke="#000000" stroke-width="0.436" fill="none" /><path id="1006" transform="matrix(1 0 0 -1 0 841)" d="M333.654 111.193L360.425 111.193" stroke="#000000" stroke-width="0.398" fill="none" /><path id="1007" transform="matrix(1 0 0 -1 0 841)" d="M333.854 97.197L333.854 111.193" stroke="#000000" stroke-width="0.398" fill="none" /><path id="1008" transform="matrix(1 0 0 -1 0 841)" d="M360.226 97.197L360.226 111.193" stroke="#000000" stroke-width="0.398" fill="none" /><path id="1009" transform="matrix(1 0 0 -1 0 841)" d="M333.654 97.197L360.425 97.197" stroke="#000000" stroke-width="0.398" fill="none" /></g></g></svg>