<svg xmlns="http://www.w3.org/2000/svg" xmlns:xlink="http://www.w3.org/1999/xlink" id="body_360" preserveAspectRatio="xMinYMin meet" viewBox="0 0 793 1121"><defs><clipPath id="1"><path id="" clip-rule="evenodd" transform="matrix(1 0 0 1 0 0)" d="M0 841L0 -0.8900146L0 -0.8900146L595.276 -0.8900146L595.276 -0.8900146L595.276 841L595.276 841L0 841z" /></clipPath></defs><g transform="matrix(1.333333 0 0 1.333333 0 0)"><g clip-path="url(#1)"><path id="34" transform="matrix(1 0 0 -1 0 841)" d="M85.039 766.564L510.236 766.564" stroke="#000000" stroke-width="0.498" fill="none" /><path id="58" transform="matrix(1 0 0 -1 0 841)" d="M233.649 756.53L261.096 756.53" stroke="#000000" stroke-width="0.398" fill="none" /><path id="59" transform="matrix(1 0 0 -1 0 841)" d="M233.848 740.423L233.848 756.53" stroke="#000000" stroke-width="0.398" fill="none" /><path id="60" transform="matrix(1 0 0 -1 0 841)" d="M260.897 740.423L260.897 756.53" stroke="#000000" stroke-width="0.398" fill="none" /><path id="61" transform="matrix(1 0 0 -1 0 841)" d="M233.649 740.424L261.096 740.424" stroke="#000000" stroke-width="0.398" fill="none" /><path id="181" transform="matrix(1 0 0 -1 0 841)" d="M243.067 669.534L315.895 669.534" stroke="#000000" stroke-width="0.436" fill="none" /><path id="258" transform="matrix(1 0 0 -1 0 841)" d="M462.681 649.732L519.354 649.732" stroke="#000000" stroke-width="0.398" fill="none" /><path id="259" transform="matrix(1 0 0 -1 0 841)" d="M462.881 633.832L462.881 649.732" stroke="#000000" stroke-width="0.398" fill="none" /><path id="260" transform="matrix(1 0 0 -1 0 841)" d="M519.155 633.832L519.155 649.732" stroke="#000000" stroke-width="0.398" fill="none" /><path id="261" transform="matrix(1 0 0 -1 0 841)" d="M462.681 633.832L519.354 633.832" stroke="#000000" stroke-width="0.398" fill="none" /><path id="437" transform="matrix(1 0 0 -1 0 841)" d="M148.119 517.323L186.508 517.323" stroke="#000000" stroke-width="0.436" fill="none" /><path id="455" transform="matrix(1 0 0 -1 0 841)" d="M201.028 525.235L239.919 525.235" stroke="#000000" stroke-width="0.398" fill="none" /><path id="456" transform="matrix(1 0 0 -1 0 841)" d="M201.227 509.046L201.227 525.235" stroke="#000000" stroke-width="0.398" fill="none" /><path id="457" transform="matrix(1 0 0 -1 0 841)" d="M239.719 509.046L239.719 525.235" stroke="#000000" stroke-width="0.398" fill="none" /><path id="458" transform="matrix(1 0 0 -1 0 841)" d="M201.028 509.046L239.919 509.046" stroke="#000000" stroke-width="0.398" fill="none" /><path id="577" transform="matrix(1 0 0 -1 0 841)" d="M151.905 431.35L190.294 431.35" stroke="#000000" stroke-width="0.436" fill="none" /><path id="598" transform="matrix(1 0 0 -1 0 841)" d="M204.814 439.262L258.235 439.262" stroke="#000000" stroke-width="0.398" fill="none" /><path id="599" transform="matrix(1 0 0 -1 0 841)" d="M205.013 425.195L205.013 439.262" stroke="#000000" stroke-width="0.398" fill="none" /><path id="600" transform="matrix(1 0 0 -1 0 841)" d="M258.036 425.195L258.036 439.262" stroke="#000000" stroke-width="0.398" fill="none" /><path id="601" transform="matrix(1 0 0 -1 0 841)" d="M204.814 425.195L258.235 425.195" stroke="#000000" stroke-width="0.398" fill="none" /><path id="763" transform="matrix(1 0 0 -1 0 841)" d="M283.701 344.996L295.0396 344.996" stroke="#000000" stroke-width="1.59404" fill="none" /><path id="764" transform="matrix(1 0 0 -1 0 841)" d="M181.6524 299.641L227.0074 299.641" stroke="#000000" stroke-width="1.59404" fill="none" /><path id="765" transform="matrix(1 0 0 -1 0 841)" d="M227.0074 299.641L283.701 344.996" stroke="#000000" stroke-width="1.59404" fill="none" /><path id="766" transform="matrix(1 0 0 -1 0 841)" d="M295.0396 300.0395L295.0396 343.4634" stroke="#000000" stroke-width="0.3985" fill="none" /><path id="767" transform="matrix(1 0 0 -1 0 841)" d="M297.4307 301.9125C 295.996 301.5339 295.3186 300.6902 295.0396 299.8402C 294.7607 300.6902 294.0832 301.5339 292.6486 301.9125" stroke="#000000" stroke-width="0.3985" stroke-linecap="round" fill="none" /><path id="768" transform="matrix(1 0 0 -1 0 841)" d="M292.6486 341.5904C 294.0832 341.969 294.7607 342.8127 295.0396 343.6627C 295.3186 342.8127 295.996 341.969 297.4307 341.5904" stroke="#000000" stroke-width="0.3985" stroke-linecap="round" fill="none" /><g transform="matrix(0.027675 0 0 0.027675 202.913 528.0364)"><g transform="matrix(1 0 0 1 0 0)"><image x="0" y="0" xlink:href="img_505.png" width="512" height="512" /></g></g><g transform="matrix(0.027675 0 0 0.027675 287.952 482.6824)"><g transform="matrix(1 0 0 1 0 0)"><image x="0" y="0" xlink:href="img_505.png" width="512" height="512" /></g></g><path id="774" transform="matrix(1 0 0 -1 0 841)" d="M238.346 299.641C 293.9055 359.1694 296.1737 359.1694 351.7332 299.641" stroke="#000000" stroke-width="0.3985" fill="none" /><path id="978" transform="matrix(1 0 0 -1 0 841)" d="M261.963 225.165L300.352 225.165" stroke="#000000" stroke-width="0.436" fill="none" /><path id="1065" transform="matrix(1 0 0 -1 0 841)" d="M308.717 197.864L350.095 197.864" stroke="#000000" stroke-width="0.398" fill="none" /><path id="1066" transform="matrix(1 0 0 -1 0 841)" d="M308.916 181.877L308.916 197.864" stroke="#000000" stroke-width="0.398" fill="none" /><path id="1067" transform="matrix(1 0 0 -1 0 841)" d="M349.896 181.877L349.896 197.864" stroke="#000000" stroke-width="0.398" fill="none" /><path id="1068" transform="matrix(1 0 0 -1 0 841)" d="M308.717 181.877L350.095 181.877" stroke="#000000" stroke-width="0.398" fill="none" /></g></g></svg>