<svg xmlns="http://www.w3.org/2000/svg" xmlns:xlink="http://www.w3.org/1999/xlink" id="body_64" preserveAspectRatio="xMinYMin meet" viewBox="0 0 793 1121"><defs><clipPath id="1"><path id="" clip-rule="evenodd" transform="matrix(1 0 0 1 0 0)" d="M0 841L0 -0.8900146L0 -0.8900146L595.276 -0.8900146L595.276 -0.8900146L595.276 841L595.276 841L0 841z" /></clipPath></defs><g transform="matrix(1.333333 0 0 1.333333 0 0)"><g clip-path="url(#1)"><path id="26" transform="matrix(1 0 0 -1 0 841)" d="M85.039 766.564L510.236 766.564" stroke="#000000" stroke-width="0.498" fill="none" /><path id="1768" transform="matrix(1 0 0 -1 0 841)" d="M136.063 183.222L152.314 183.222" stroke="#000000" stroke-width="0.491" fill="none" /><path id="1772" transform="matrix(1 0 0 -1 0 841)" d="M151.863 183.222L168.725 183.222" stroke="#000000" stroke-width="0.491" fill="none" /><path id="1776" transform="matrix(1 0 0 -1 0 841)" d="M168.276 183.222L181.494 183.222" stroke="#000000" stroke-width="0.491" fill="none" /><path id="1780" transform="matrix(1 0 0 -1 0 841)" d="M181.283 183.222L184.008 183.222" stroke="#000000" stroke-width="0.491" fill="none" /><path id="1781" transform="matrix(1 0 0 -1 0 841)" d="M183.758 183.222L203.641 183.222" stroke="#000000" stroke-width="0.491" fill="none" /><path id="1786" transform="matrix(1 0 0 -1 0 841)" d="M203.202 183.222L222.485 183.222" stroke="#000000" stroke-width="0.491" fill="none" /><path id="1791" transform="matrix(1 0 0 -1 0 841)" d="M222.292 183.222L225.017 183.222" stroke="#000000" stroke-width="0.491" fill="none" /><path id="1792" transform="matrix(1 0 0 -1 0 841)" d="M224.768 183.222L234.353 183.222" stroke="#000000" stroke-width="0.491" fill="none" /><path id="1795" transform="matrix(1 0 0 -1 0 841)" d="M234.132 183.222L236.857 183.222" stroke="#000000" stroke-width="0.491" fill="none" /><path id="1796" transform="matrix(1 0 0 -1 0 841)" d="M236.607 183.222L253.468 183.222" stroke="#000000" stroke-width="0.491" fill="none" /><path id="1800" transform="matrix(1 0 0 -1 0 841)" d="M253.02 183.222L264.427 183.222" stroke="#000000" stroke-width="0.491" fill="none" /><path id="1803" transform="matrix(1 0 0 -1 0 841)" d="M263.962 183.222L282.024 183.222" stroke="#000000" stroke-width="0.491" fill="none" /><path id="1808" transform="matrix(1 0 0 -1 0 841)" d="M281.827 183.222L284.552 183.222" stroke="#000000" stroke-width="0.491" fill="none" /><path id="1809" transform="matrix(1 0 0 -1 0 841)" d="M284.303 183.222L304.186 183.222" stroke="#000000" stroke-width="0.491" fill="none" /><path id="1814" transform="matrix(1 0 0 -1 0 841)" d="M303.746 183.222L323.029 183.222" stroke="#000000" stroke-width="0.491" fill="none" /><path id="1984" transform="matrix(1 0 0 -1 0 841)" d="M136.063 115.476L155.347 115.476" stroke="#000000" stroke-width="0.491" fill="none" /><path id="1988" transform="matrix(1 0 0 -1 0 841)" d="M154.849 115.476L158.98 115.476" stroke="#000000" stroke-width="0.491" fill="none" /><path id="1990" transform="matrix(1 0 0 -1 0 841)" d="M158.481 115.476L172.299 115.476" stroke="#000000" stroke-width="0.491" fill="none" /><path id="1994" transform="matrix(1 0 0 -1 0 841)" d="M171.801 115.476L188.663 115.476" stroke="#000000" stroke-width="0.491" fill="none" /><path id="1998" transform="matrix(1 0 0 -1 0 841)" d="M188.165 115.476L201.383 115.476" stroke="#000000" stroke-width="0.491" fill="none" /><path id="2002" transform="matrix(1 0 0 -1 0 841)" d="M201.133 115.476L203.86 115.476" stroke="#000000" stroke-width="0.491" fill="none" /><path id="2003" transform="matrix(1 0 0 -1 0 841)" d="M203.612 115.476L223.495 115.476" stroke="#000000" stroke-width="0.491" fill="none" /><path id="2008" transform="matrix(1 0 0 -1 0 841)" d="M222.997 115.476L242.28 115.476" stroke="#000000" stroke-width="0.491" fill="none" /></g></g></svg>