<svg xmlns="http://www.w3.org/2000/svg" xmlns:xlink="http://www.w3.org/1999/xlink" id="body_288" preserveAspectRatio="xMinYMin meet" viewBox="0 0 793 1121"><defs><clipPath id="1"><path id="" clip-rule="evenodd" transform="matrix(1 0 0 1 0 0)" d="M0 841L0 -0.8900146L0 -0.8900146L595.276 -0.8900146L595.276 -0.8900146L595.276 841L595.276 841L0 841z" /></clipPath></defs><g transform="matrix(1.333333 0 0 1.333333 0 0)"><g clip-path="url(#1)"><path id="23" transform="matrix(1 0 0 -1 0 841)" d="M85.039 766.564L510.236 766.564" stroke="#000000" stroke-width="0.498" fill="none" /><path id="159" transform="matrix(1 0 0 -1 0 841)" d="M136.063 623.648L161.292 623.648L161.292 635.921L136.063 635.921z" stroke="none" fill="#FFF100" fill-rule="nonzero" /><path id="164" transform="matrix(1 0 0 -1 0 841)" d="M160.571 623.648L163.287 623.648L163.287 635.921L160.571 635.921z" stroke="none" fill="#FFF100" fill-rule="nonzero" /><path id="165" transform="matrix(1 0 0 -1 0 841)" d="M163.038 623.648L181.71 623.648L181.71 635.921L163.038 635.921z" stroke="none" fill="#FFF100" fill-rule="nonzero" /><path id="170" transform="matrix(1 0 0 -1 0 841)" d="M181.116 623.648L183.832 623.648L183.832 635.921L181.116 635.921z" stroke="none" fill="#FFF100" fill-rule="nonzero" /><path id="171" transform="matrix(1 0 0 -1 0 841)" d="M183.583 623.648L197.412 623.648L197.412 635.921L183.583 635.921z" stroke="none" fill="#FFF100" fill-rule="nonzero" /><path id="175" transform="matrix(1 0 0 -1 0 841)" d="M196.91 623.648L199.626 623.648L199.626 635.921L196.91 635.921z" stroke="none" fill="#FFF100" fill-rule="nonzero" /><path id="176" transform="matrix(1 0 0 -1 0 841)" d="M199.377 623.648L217.45 623.648L217.45 635.921L199.377 635.921z" stroke="none" fill="#FFF100" fill-rule="nonzero" /><path id="181" transform="matrix(1 0 0 -1 0 841)" d="M216.617 623.648L220.148 623.648L220.148 635.921L216.617 635.921z" stroke="none" fill="#FFF100" fill-rule="nonzero" /><path id="183" transform="matrix(1 0 0 -1 0 841)" d="M219.592 623.648L233.421 623.648L233.421 635.921L219.592 635.921z" stroke="none" fill="#FFF100" fill-rule="nonzero" /><path id="187" transform="matrix(1 0 0 -1 0 841)" d="M232.919 623.648L235.635 623.648L235.635 635.921L232.919 635.921z" stroke="none" fill="#FFF100" fill-rule="nonzero" /><path id="188" transform="matrix(1 0 0 -1 0 841)" d="M235.386 623.648L252.858 623.648L252.858 635.921L235.386 635.921z" stroke="none" fill="#FFF100" fill-rule="nonzero" /><path id="193" transform="matrix(1 0 0 -1 0 841)" d="M252.287 623.648L255.003 623.648L255.003 635.921L252.287 635.921z" stroke="none" fill="#FFF100" fill-rule="nonzero" /><path id="194" transform="matrix(1 0 0 -1 0 841)" d="M254.754 623.648L262.528 623.648L262.528 635.921L254.754 635.921z" stroke="none" fill="#FFF100" fill-rule="nonzero" /><path id="197" transform="matrix(1 0 0 -1 0 841)" d="M262.141 623.648L264.857 623.648L264.857 635.921L262.141 635.921z" stroke="none" fill="#FFF100" fill-rule="nonzero" /><path id="198" transform="matrix(1 0 0 -1 0 841)" d="M264.608 623.648L277.826 623.648L277.826 635.921L264.608 635.921z" stroke="none" fill="#FFF100" fill-rule="nonzero" /><path id="202" transform="matrix(1 0 0 -1 0 841)" d="M277.335 623.648L280.051 623.648L280.051 635.921L277.335 635.921z" stroke="none" fill="#FFF100" fill-rule="nonzero" /><path id="203" transform="matrix(1 0 0 -1 0 841)" d="M279.802 623.648L293.631 623.648L293.631 635.921L279.802 635.921z" stroke="none" fill="#FFF100" fill-rule="nonzero" /><path id="207" transform="matrix(1 0 0 -1 0 841)" d="M293.129 623.648L295.845 623.648L295.845 635.921L293.129 635.921z" stroke="none" fill="#FFF100" fill-rule="nonzero" /><path id="208" transform="matrix(1 0 0 -1 0 841)" d="M295.596 623.648L318.512 623.648L318.512 635.921L295.596 635.921z" stroke="none" fill="#FFF100" fill-rule="nonzero" /><path id="213" transform="matrix(1 0 0 -1 0 841)" d="M317.837 623.648L320.553 623.648L320.553 635.921L317.837 635.921z" stroke="none" fill="#FFF100" fill-rule="nonzero" /><path id="214" transform="matrix(1 0 0 -1 0 841)" d="M320.304 623.648L338.976 623.648L338.976 635.921L320.304 635.921z" stroke="none" fill="#FFF100" fill-rule="nonzero" /><path id="218" transform="matrix(1 0 0 -1 0 841)" d="M338.133 623.648L356.805 623.648L356.805 635.921L338.133 635.921z" stroke="none" fill="#FFF100" fill-rule="nonzero" /><path id="223" transform="matrix(1 0 0 -1 0 841)" d="M355.962 623.648L378.278 623.648L378.278 635.921L355.962 635.921z" stroke="none" fill="#FFF100" fill-rule="nonzero" /><path id="228" transform="matrix(1 0 0 -1 0 841)" d="M377.614 623.648L380.33 623.648L380.33 635.921L377.614 635.921z" stroke="none" fill="#FFF100" fill-rule="nonzero" /><path id="229" transform="matrix(1 0 0 -1 0 841)" d="M380.082 623.648L389.667 623.648L389.667 635.921L380.082 635.921z" stroke="none" fill="#FFF100" fill-rule="nonzero" /><path id="232" transform="matrix(1 0 0 -1 0 841)" d="M389.245 623.648L391.961 623.648L391.961 635.921L389.245 635.921z" stroke="none" fill="#FFF100" fill-rule="nonzero" /><path id="233" transform="matrix(1 0 0 -1 0 841)" d="M391.712 623.648L405.541 623.648L405.541 635.921L391.712 635.921z" stroke="none" fill="#FFF100" fill-rule="nonzero" /><path id="237" transform="matrix(1 0 0 -1 0 841)" d="M405.039 623.648L407.755 623.648L407.755 635.921L405.039 635.921z" stroke="none" fill="#FFF100" fill-rule="nonzero" /><path id="238" transform="matrix(1 0 0 -1 0 841)" d="M407.506 623.648L423.321 623.648L423.321 635.921L407.506 635.921z" stroke="none" fill="#FFF100" fill-rule="nonzero" /><path id="242" transform="matrix(1 0 0 -1 0 841)" d="M422.523 623.648L450.119 623.648L450.119 635.921L422.523 635.921z" stroke="none" fill="#FFF100" fill-rule="nonzero" /><path id="249" transform="matrix(1 0 0 -1 0 841)" d="M449.352 623.648L452.068 623.648L452.068 635.921L449.352 635.921z" stroke="none" fill="#FFF100" fill-rule="nonzero" /><path id="250" transform="matrix(1 0 0 -1 0 841)" d="M451.819 623.648L466.248 623.648L466.248 635.921L451.819 635.921z" stroke="none" fill="#FFF100" fill-rule="nonzero" /><path id="254" transform="matrix(1 0 0 -1 0 841)" d="M465.485 623.648L490.823 623.648L490.823 635.921L465.485 635.921z" stroke="none" fill="#FFF100" fill-rule="nonzero" /><path id="261" transform="matrix(1 0 0 -1 0 841)" d="M490.102 623.648L492.818 623.648L492.818 635.921L490.102 635.921z" stroke="none" fill="#FFF100" fill-rule="nonzero" /><path id="262" transform="matrix(1 0 0 -1 0 841)" d="M492.569 623.648L512.769 623.648L512.769 635.921L492.569 635.921z" stroke="none" fill="#FFF100" fill-rule="nonzero" /><path id="660" transform="matrix(1 0 0 -1 0 841)" d="M490.51 527.301L563.109 527.301" stroke="#000000" stroke-width="0.436" fill="none" /><path id="791" transform="matrix(1 0 0 -1 0 841)" d="M113.508 474.006L151.635 474.006" stroke="#000000" stroke-width="0.436" fill="none" /><path id="807" transform="matrix(1 0 0 -1 0 841)" d="M168.567 474.006L206.694 474.006" stroke="#000000" stroke-width="0.436" fill="none" /><path id="846" transform="matrix(1 0 0 -1 0 841)" d="M276.871 451.039L310.383 451.039" stroke="#000000" stroke-width="0.436" fill="none" /><path id="918" transform="matrix(1 0 0 -1 0 841)" d="M157.784 398.876L195.758 398.876" stroke="#000000" stroke-width="0.436" fill="none" /><path id="1096" transform="matrix(1 0 0 -1 0 841)" d="M113.508 321.98L157.656 321.98" stroke="#000000" stroke-width="0.436" fill="none" /><path id="1106" transform="matrix(1 0 0 -1 0 841)" d="M168.532 321.98L221.157 321.98" stroke="#000000" stroke-width="0.436" fill="none" /><path id="1130" transform="matrix(1 0 0 -1 0 841)" d="M232.032 321.98L259.305 321.98" stroke="#000000" stroke-width="0.436" fill="none" /><path id="1141" transform="matrix(1 0 0 -1 0 841)" d="M275.021 321.98L308.653 321.98" stroke="#000000" stroke-width="0.436" fill="none" /><path id="1193" transform="matrix(1 0 0 -1 0 841)" d="M172.927 283.99L239.95 283.99" stroke="#000000" stroke-width="0.436" fill="none" /><path id="1410" transform="matrix(1 0 0 -1 0 841)" d="M290.682 211.812L304.928 211.812" stroke="#000000" stroke-width="0.436" fill="none" /></g></g></svg>