<svg xmlns="http://www.w3.org/2000/svg" xmlns:xlink="http://www.w3.org/1999/xlink" id="body_383" preserveAspectRatio="xMinYMin meet" viewBox="0 0 793 1121"><defs><clipPath id="1"><path id="" clip-rule="evenodd" transform="matrix(1 0 0 1 0 0)" d="M0 841L0 -0.8900146L0 -0.8900146L595.276 -0.8900146L595.276 -0.8900146L595.276 841L595.276 841L0 841z" /></clipPath><clipPath id="2"><path id="" clip-rule="evenodd" transform="matrix(1 0 0 1 0 0)" d="M0.125 841.073L595.1547 841.073L595.1547 841.073L595.1547 -0.9690552L595.1547 -0.9690552L0.125 -0.9690552z" /></clipPath><clipPath id="3"><path id="" clip-rule="evenodd" transform="matrix(1 0 0 1 0 0)" d="M19.4363 27.69806L575.6259 27.69806L575.6259 27.69806L575.6259 825.5788L575.6259 825.5788L19.4363 825.5788z" /></clipPath><clipPath id="4"><path id="" clip-rule="evenodd" transform="matrix(1 0 0 1 0 0)" d="M25.07376 33.33551L569.0288 33.33551L569.0288 33.33551L569.0288 44.73035L569.0288 44.73035L25.07376 44.73035z" /></clipPath><clipPath id="5"><path id="" clip-rule="evenodd" transform="matrix(1 0 0 1 0 0)" d="M19.4363 49.5282L575.6259 49.5282L575.6259 49.5282L575.6259 75.07672L575.6259 75.07672L19.4363 75.07672z" /></clipPath><clipPath id="6"><path id="" clip-rule="evenodd" transform="matrix(1 0 0 1 0 0)" d="M25.07376 52.88672L569.0288 52.88672L569.0288 52.88672L569.0288 71.59827L569.0288 71.59827L25.07376 71.59827z" /></clipPath><clipPath id="7"><path id="" clip-rule="evenodd" transform="matrix(1 0 0 1 0 0)" d="M19.4363 75.07672L575.6259 75.07672L575.6259 75.07672L575.6259 803.7487L575.6259 803.7487L19.4363 803.7487z" /></clipPath><clipPath id="8"><path id="" clip-rule="evenodd" transform="matrix(1 0 0 1 0 0)" d="M19.4363 75.07672L575.6259 75.07672L575.6259 75.07672L575.6259 803.7487L575.6259 803.7487L19.4363 803.7487z" /></clipPath><clipPath id="9"><path id="" clip-rule="evenodd" transform="matrix(1 0 0 1 0 0)" d="M30.71123 75.19666L161.0925 75.19666L161.0925 75.19666L161.0925 87.31122L161.0925 87.31122L30.71123 87.31122z" /></clipPath><clipPath id="10"><path id="" clip-rule="evenodd" transform="matrix(1 0 0 1 0 0)" d="M19.4363 75.07672L575.6259 75.07672L575.6259 75.07672L575.6259 803.7487L575.6259 803.7487L19.4363 803.7487z" /></clipPath><clipPath id="11"><path id="" clip-rule="evenodd" transform="matrix(1 0 0 1 0 0)" d="M161.0925 75.19666L178.1248 75.19666L178.1248 75.19666L178.1248 87.31122L178.1248 87.31122L161.0925 87.31122z" /></clipPath><clipPath id="12"><path id="" clip-rule="evenodd" transform="matrix(1 0 0 1 0 0)" d="M19.4363 75.07672L575.6259 75.07672L575.6259 75.07672L575.6259 803.7487L575.6259 803.7487L19.4363 803.7487z" /></clipPath><clipPath id="13"><path id="" clip-rule="evenodd" transform="matrix(1 0 0 1 0 0)" d="M178.1248 75.19666L569.0288 75.19666L569.0288 75.19666L569.0288 87.31122L569.0288 87.31122L178.1248 87.31122z" /></clipPath><clipPath id="14"><path id="" clip-rule="evenodd" transform="matrix(1 0 0 1 0 0)" d="M19.4363 75.07672L575.6259 75.07672L575.6259 75.07672L575.6259 803.7487L575.6259 803.7487L19.4363 803.7487z" /></clipPath><clipPath id="15"><path id="" clip-rule="evenodd" transform="matrix(1 0 0 1 0 0)" d="M30.71123 90.18988L161.0925 90.18988L161.0925 90.18988L161.0925 102.3044L161.0925 102.3044L30.71123 102.3044z" /></clipPath><clipPath id="16"><path id="" clip-rule="evenodd" transform="matrix(1 0 0 1 0 0)" d="M19.4363 75.07672L575.6259 75.07672L575.6259 75.07672L575.6259 803.7487L575.6259 803.7487L19.4363 803.7487z" /></clipPath><clipPath id="17"><path id="" clip-rule="evenodd" transform="matrix(1 0 0 1 0 0)" d="M161.0925 90.18988L178.1248 90.18988L178.1248 90.18988L178.1248 102.3044L178.1248 102.3044L161.0925 102.3044z" /></clipPath><clipPath id="18"><path id="" clip-rule="evenodd" transform="matrix(1 0 0 1 0 0)" d="M19.4363 75.07672L575.6259 75.07672L575.6259 75.07672L575.6259 803.7487L575.6259 803.7487L19.4363 803.7487z" /></clipPath><clipPath id="19"><path id="" clip-rule="evenodd" transform="matrix(1 0 0 1 0 0)" d="M178.1248 90.18988L568.669 90.18988L568.669 90.18988L568.669 102.3044L568.669 102.3044L178.1248 102.3044z" /></clipPath><clipPath id="20"><path id="" clip-rule="evenodd" transform="matrix(1 0 0 1 0 0)" d="M19.4363 75.07672L575.6259 75.07672L575.6259 75.07672L575.6259 803.7487L575.6259 803.7487L19.4363 803.7487z" /></clipPath><clipPath id="21"><path id="" clip-rule="evenodd" transform="matrix(1 0 0 1 0 0)" d="M30.71123 105.1832L161.0925 105.1832L161.0925 105.1832L161.0925 117.4177L161.0925 117.4177L30.71123 117.4177z" /></clipPath><clipPath id="22"><path id="" clip-rule="evenodd" transform="matrix(1 0 0 1 0 0)" d="M19.4363 75.07672L575.6259 75.07672L575.6259 75.07672L575.6259 803.7487L575.6259 803.7487L19.4363 803.7487z" /></clipPath><clipPath id="23"><path id="" clip-rule="evenodd" transform="matrix(1 0 0 1 0 0)" d="M161.0925 105.1832L178.1248 105.1832L178.1248 105.1832L178.1248 117.4177L178.1248 117.4177L161.0925 117.4177z" /></clipPath><clipPath id="24"><path id="" clip-rule="evenodd" transform="matrix(1 0 0 1 0 0)" d="M19.4363 75.07672L575.6259 75.07672L575.6259 75.07672L575.6259 803.7487L575.6259 803.7487L19.4363 803.7487z" /></clipPath><clipPath id="25"><path id="" clip-rule="evenodd" transform="matrix(1 0 0 1 0 0)" d="M178.1248 105.1832L569.0288 105.1832L569.0288 105.1832L569.0288 117.4177L569.0288 117.4177L178.1248 117.4177z" /></clipPath><clipPath id="26"><path id="" clip-rule="evenodd" transform="matrix(1 0 0 1 0 0)" d="M19.4363 75.07672L575.6259 75.07672L575.6259 75.07672L575.6259 803.7487L575.6259 803.7487L19.4363 803.7487z" /></clipPath><clipPath id="27"><path id="" clip-rule="evenodd" transform="matrix(1 0 0 1 0 0)" d="M27.95247 120.1764L571.5477 120.1764L571.5477 120.1764L571.5477 132.051L571.5477 132.051L27.95247 132.051z" /></clipPath><clipPath id="28"><path id="" clip-rule="evenodd" transform="matrix(1 0 0 1 0 0)" d="M19.4363 75.07672L575.6259 75.07672L575.6259 75.07672L575.6259 803.7487L575.6259 803.7487L19.4363 803.7487z" /></clipPath><clipPath id="29"><path id="" clip-rule="evenodd" transform="matrix(1 0 0 1 0 0)" d="M33.58993 134.9297L571.7876 134.9297L571.7876 134.9297L571.7876 147.1642L571.7876 147.1642L33.58993 147.1642z" /></clipPath><clipPath id="30"><path id="" clip-rule="evenodd" transform="matrix(1 0 0 1 0 0)" d="M19.4363 75.07672L575.6259 75.07672L575.6259 75.07672L575.6259 803.7487L575.6259 803.7487L19.4363 803.7487z" /></clipPath><clipPath id="31"><path id="" clip-rule="evenodd" transform="matrix(1 0 0 1 0 0)" d="M33.58993 169.7141L554.8752 169.7141L554.8752 169.7141L554.8752 181.9486L554.8752 181.9486L33.58993 181.9486z" /></clipPath><clipPath id="32"><path id="" clip-rule="evenodd" transform="matrix(1 0 0 1 0 0)" d="M19.4363 75.07672L575.6259 75.07672L575.6259 75.07672L575.6259 803.7487L575.6259 803.7487L19.4363 803.7487z" /></clipPath><clipPath id="33"><path id="" clip-rule="evenodd" transform="matrix(1 0 0 1 0 0)" d="M36.46864 184.8273L569.0288 184.8273L569.0288 184.8273L569.0288 198.981L569.0288 198.981L36.46864 198.981z" /></clipPath><clipPath id="34"><path id="" clip-rule="evenodd" transform="matrix(1 0 0 1 0 0)" d="M19.4363 75.07672L575.6259 75.07672L575.6259 75.07672L575.6259 803.7487L575.6259 803.7487L19.4363 803.7487z" /></clipPath><clipPath id="35"><path id="" clip-rule="evenodd" transform="matrix(1 0 0 1 0 0)" d="M33.58993 204.6184L554.8752 204.6184L554.8752 204.6184L554.8752 216.8529L554.8752 216.8529L33.58993 216.8529z" /></clipPath><clipPath id="36"><path id="" clip-rule="evenodd" transform="matrix(1 0 0 1 0 0)" d="M19.4363 75.07672L575.6259 75.07672L575.6259 75.07672L575.6259 803.7487L575.6259 803.7487L19.4363 803.7487z" /></clipPath><clipPath id="37"><path id="" clip-rule="evenodd" transform="matrix(1 0 0 1 0 0)" d="M36.46864 219.6116L569.0288 219.6116L569.0288 219.6116L569.0288 233.7653L569.0288 233.7653L36.46864 233.7653z" /></clipPath><clipPath id="38"><path id="" clip-rule="evenodd" transform="matrix(1 0 0 1 0 0)" d="M19.4363 75.07672L575.6259 75.07672L575.6259 75.07672L575.6259 803.7487L575.6259 803.7487L19.4363 803.7487z" /></clipPath><clipPath id="39"><path id="" clip-rule="evenodd" transform="matrix(1 0 0 1 0 0)" d="M33.58993 239.5226L554.8752 239.5226L554.8752 239.5226L554.8752 251.6372L554.8752 251.6372L33.58993 251.6372z" /></clipPath><clipPath id="40"><path id="" clip-rule="evenodd" transform="matrix(1 0 0 1 0 0)" d="M19.4363 75.07672L575.6259 75.07672L575.6259 75.07672L575.6259 803.7487L575.6259 803.7487L19.4363 803.7487z" /></clipPath><clipPath id="41"><path id="" clip-rule="evenodd" transform="matrix(1 0 0 1 0 0)" d="M36.46864 254.5159L569.0288 254.5159L569.0288 254.5159L569.0288 268.6696L569.0288 268.6696L36.46864 268.6696z" /></clipPath><clipPath id="42"><path id="" clip-rule="evenodd" transform="matrix(1 0 0 1 0 0)" d="M19.4363 75.07672L575.6259 75.07672L575.6259 75.07672L575.6259 803.7487L575.6259 803.7487L19.4363 803.7487z" /></clipPath><clipPath id="43"><path id="" clip-rule="evenodd" transform="matrix(1 0 0 1 0 0)" d="M36.46864 149.923L569.0288 149.923L569.0288 149.923L569.0288 164.0767L569.0288 164.0767L36.46864 164.0767z" /></clipPath><clipPath id="44"><path id="" clip-rule="evenodd" transform="matrix(1 0 0 1 0 0)" d="M19.4363 75.07672L575.6259 75.07672L575.6259 75.07672L575.6259 803.7487L575.6259 803.7487L19.4363 803.7487z" /></clipPath><clipPath id="45"><path id="" clip-rule="evenodd" transform="matrix(1 0 0 1 0 0)" d="M33.58993 274.307L554.8752 274.307L554.8752 274.307L554.8752 286.5415L554.8752 286.5415L33.58993 286.5415z" /></clipPath><clipPath id="46"><path id="" clip-rule="evenodd" transform="matrix(1 0 0 1 0 0)" d="M19.4363 75.07672L575.6259 75.07672L575.6259 75.07672L575.6259 803.7487L575.6259 803.7487L19.4363 803.7487z" /></clipPath><clipPath id="47"><path id="" clip-rule="evenodd" transform="matrix(1 0 0 1 0 0)" d="M36.46864 289.3003L569.0288 289.3003L569.0288 289.3003L569.0288 303.4539L569.0288 303.4539L36.46864 303.4539z" /></clipPath><clipPath id="48"><path id="" clip-rule="evenodd" transform="matrix(1 0 0 1 0 0)" d="M19.4363 75.07672L575.6259 75.07672L575.6259 75.07672L575.6259 803.7487L575.6259 803.7487L19.4363 803.7487z" /></clipPath><clipPath id="49"><path id="" clip-rule="evenodd" transform="matrix(1 0 0 1 0 0)" d="M27.95247 309.2113L571.7876 309.2113L571.7876 309.2113L571.7876 321.0859L571.7876 321.0859L27.95247 321.0859z" /></clipPath><clipPath id="50"><path id="" clip-rule="evenodd" transform="matrix(1 0 0 1 0 0)" d="M19.4363 75.07672L575.6259 75.07672L575.6259 75.07672L575.6259 803.7487L575.6259 803.7487L19.4363 803.7487z" /></clipPath><clipPath id="51"><path id="" clip-rule="evenodd" transform="matrix(1 0 0 1 0 0)" d="M33.58993 323.8447L163.8513 323.8447L163.8513 323.8447L163.8513 335.8393L163.8513 335.8393L33.58993 335.8393z" /></clipPath><clipPath id="52"><path id="" clip-rule="evenodd" transform="matrix(1 0 0 1 0 0)" d="M19.4363 75.07672L575.6259 75.07672L575.6259 75.07672L575.6259 803.7487L575.6259 803.7487L19.4363 803.7487z" /></clipPath><clipPath id="53"><path id="" clip-rule="evenodd" transform="matrix(1 0 0 1 0 0)" d="M163.8513 323.8447L180.8836 323.8447L180.8836 323.8447L180.8836 335.8393L180.8836 335.8393L163.8513 335.8393z" /></clipPath><clipPath id="54"><path id="" clip-rule="evenodd" transform="matrix(1 0 0 1 0 0)" d="M19.4363 75.07672L575.6259 75.07672L575.6259 75.07672L575.6259 803.7487L575.6259 803.7487L19.4363 803.7487z" /></clipPath><clipPath id="55"><path id="" clip-rule="evenodd" transform="matrix(1 0 0 1 0 0)" d="M180.8836 323.8447L571.7876 323.8447L571.7876 323.8447L571.7876 335.8393L571.7876 335.8393L180.8836 335.8393z" /></clipPath><clipPath id="56"><path id="" clip-rule="evenodd" transform="matrix(1 0 0 1 0 0)" d="M19.4363 75.07672L575.6259 75.07672L575.6259 75.07672L575.6259 803.7487L575.6259 803.7487L19.4363 803.7487z" /></clipPath><clipPath id="57"><path id="" clip-rule="evenodd" transform="matrix(1 0 0 1 0 0)" d="M33.58993 338.5981L163.8513 338.5981L163.8513 338.5981L163.8513 350.8326L163.8513 350.8326L33.58993 350.8326z" /></clipPath><clipPath id="58"><path id="" clip-rule="evenodd" transform="matrix(1 0 0 1 0 0)" d="M19.4363 75.07672L575.6259 75.07672L575.6259 75.07672L575.6259 803.7487L575.6259 803.7487L19.4363 803.7487z" /></clipPath><clipPath id="59"><path id="" clip-rule="evenodd" transform="matrix(1 0 0 1 0 0)" d="M163.8513 338.5981L180.8836 338.5981L180.8836 338.5981L180.8836 350.8326L180.8836 350.8326L163.8513 350.8326z" /></clipPath><clipPath id="60"><path id="" clip-rule="evenodd" transform="matrix(1 0 0 1 0 0)" d="M19.4363 75.07672L575.6259 75.07672L575.6259 75.07672L575.6259 803.7487L575.6259 803.7487L19.4363 803.7487z" /></clipPath><clipPath id="61"><path id="" clip-rule="evenodd" transform="matrix(1 0 0 1 0 0)" d="M180.8836 338.5981L571.7876 338.5981L571.7876 338.5981L571.7876 350.8326L571.7876 350.8326L180.8836 350.8326z" /></clipPath><clipPath id="62"><path id="" clip-rule="evenodd" transform="matrix(1 0 0 1 0 0)" d="M19.4363 75.07672L575.6259 75.07672L575.6259 75.07672L575.6259 803.7487L575.6259 803.7487L19.4363 803.7487z" /></clipPath><clipPath id="63"><path id="" clip-rule="evenodd" transform="matrix(1 0 0 1 0 0)" d="M33.58993 353.5913L163.8513 353.5913L163.8513 353.5913L163.8513 365.8258L163.8513 365.8258L33.58993 365.8258z" /></clipPath><clipPath id="64"><path id="" clip-rule="evenodd" transform="matrix(1 0 0 1 0 0)" d="M19.4363 75.07672L575.6259 75.07672L575.6259 75.07672L575.6259 803.7487L575.6259 803.7487L19.4363 803.7487z" /></clipPath><clipPath id="65"><path id="" clip-rule="evenodd" transform="matrix(1 0 0 1 0 0)" d="M163.8513 353.5913L180.8836 353.5913L180.8836 353.5913L180.8836 365.8258L180.8836 365.8258L163.8513 365.8258z" /></clipPath><clipPath id="66"><path id="" clip-rule="evenodd" transform="matrix(1 0 0 1 0 0)" d="M19.4363 75.07672L575.6259 75.07672L575.6259 75.07672L575.6259 803.7487L575.6259 803.7487L19.4363 803.7487z" /></clipPath><clipPath id="67"><path id="" clip-rule="evenodd" transform="matrix(1 0 0 1 0 0)" d="M180.8836 353.5913L571.7876 353.5913L571.7876 353.5913L571.7876 365.8258L571.7876 365.8258L180.8836 365.8258z" /></clipPath><clipPath id="68"><path id="" clip-rule="evenodd" transform="matrix(1 0 0 1 0 0)" d="M19.4363 75.07672L575.6259 75.07672L575.6259 75.07672L575.6259 803.7487L575.6259 803.7487L19.4363 803.7487z" /></clipPath><clipPath id="69"><path id="" clip-rule="evenodd" transform="matrix(1 0 0 1 0 0)" d="M33.58993 368.7045L163.8513 368.7045L163.8513 368.7045L163.8513 380.8191L163.8513 380.8191L33.58993 380.8191z" /></clipPath><clipPath id="70"><path id="" clip-rule="evenodd" transform="matrix(1 0 0 1 0 0)" d="M19.4363 75.07672L575.6259 75.07672L575.6259 75.07672L575.6259 803.7487L575.6259 803.7487L19.4363 803.7487z" /></clipPath><clipPath id="71"><path id="" clip-rule="evenodd" transform="matrix(1 0 0 1 0 0)" d="M163.8513 368.7045L180.8836 368.7045L180.8836 368.7045L180.8836 380.8191L180.8836 380.8191L163.8513 380.8191z" /></clipPath><clipPath id="72"><path id="" clip-rule="evenodd" transform="matrix(1 0 0 1 0 0)" d="M19.4363 75.07672L575.6259 75.07672L575.6259 75.07672L575.6259 803.7487L575.6259 803.7487L19.4363 803.7487z" /></clipPath><clipPath id="73"><path id="" clip-rule="evenodd" transform="matrix(1 0 0 1 0 0)" d="M180.8836 368.7045L571.7876 368.7045L571.7876 368.7045L571.7876 380.8191L571.7876 380.8191L180.8836 380.8191z" /></clipPath><clipPath id="74"><path id="" clip-rule="evenodd" transform="matrix(1 0 0 1 0 0)" d="M19.4363 75.07672L575.6259 75.07672L575.6259 75.07672L575.6259 803.7487L575.6259 803.7487L19.4363 803.7487z" /></clipPath><clipPath id="75"><path id="" clip-rule="evenodd" transform="matrix(1 0 0 1 0 0)" d="M33.58993 383.6978L163.8513 383.6978L163.8513 383.6978L163.8513 407.8069L163.8513 407.8069L33.58993 407.8069z" /></clipPath><clipPath id="76"><path id="" clip-rule="evenodd" transform="matrix(1 0 0 1 0 0)" d="M19.4363 75.07672L575.6259 75.07672L575.6259 75.07672L575.6259 803.7487L575.6259 803.7487L19.4363 803.7487z" /></clipPath><clipPath id="77"><path id="" clip-rule="evenodd" transform="matrix(1 0 0 1 0 0)" d="M163.8513 383.6978L180.8836 383.6978L180.8836 383.6978L180.8836 407.8069L180.8836 407.8069L163.8513 407.8069z" /></clipPath><clipPath id="78"><path id="" clip-rule="evenodd" transform="matrix(1 0 0 1 0 0)" d="M19.4363 75.07672L575.6259 75.07672L575.6259 75.07672L575.6259 803.7487L575.6259 803.7487L19.4363 803.7487z" /></clipPath><clipPath id="79"><path id="" clip-rule="evenodd" transform="matrix(1 0 0 1 0 0)" d="M180.8836 383.6978L571.7876 383.6978L571.7876 383.6978L571.7876 407.8069L571.7876 407.8069L180.8836 407.8069z" /></clipPath><clipPath id="80"><path id="" clip-rule="evenodd" transform="matrix(1 0 0 1 0 0)" d="M19.4363 75.07672L575.6259 75.07672L575.6259 75.07672L575.6259 803.7487L575.6259 803.7487L19.4363 803.7487z" /></clipPath><clipPath id="81"><path id="" clip-rule="evenodd" transform="matrix(1 0 0 1 0 0)" d="M33.58993 455.6653L163.8513 455.6653L163.8513 455.6653L163.8513 467.7799L163.8513 467.7799L33.58993 467.7799z" /></clipPath><clipPath id="82"><path id="" clip-rule="evenodd" transform="matrix(1 0 0 1 0 0)" d="M19.4363 75.07672L575.6259 75.07672L575.6259 75.07672L575.6259 803.7487L575.6259 803.7487L19.4363 803.7487z" /></clipPath><clipPath id="83"><path id="" clip-rule="evenodd" transform="matrix(1 0 0 1 0 0)" d="M163.8513 455.6653L180.8836 455.6653L180.8836 455.6653L180.8836 467.7799L180.8836 467.7799L163.8513 467.7799z" /></clipPath><clipPath id="84"><path id="" clip-rule="evenodd" transform="matrix(1 0 0 1 0 0)" d="M19.4363 75.07672L575.6259 75.07672L575.6259 75.07672L575.6259 803.7487L575.6259 803.7487L19.4363 803.7487z" /></clipPath><clipPath id="85"><path id="" clip-rule="evenodd" transform="matrix(1 0 0 1 0 0)" d="M180.8836 455.6653L571.7876 455.6653L571.7876 455.6653L571.7876 467.7799L571.7876 467.7799L180.8836 467.7799z" /></clipPath><clipPath id="86"><path id="" clip-rule="evenodd" transform="matrix(1 0 0 1 0 0)" d="M19.4363 75.07672L575.6259 75.07672L575.6259 75.07672L575.6259 803.7487L575.6259 803.7487L19.4363 803.7487z" /></clipPath><clipPath id="87"><path id="" clip-rule="evenodd" transform="matrix(1 0 0 1 0 0)" d="M33.58993 410.5656L163.8513 410.5656L163.8513 410.5656L163.8513 422.8001L163.8513 422.8001L33.58993 422.8001z" /></clipPath><clipPath id="88"><path id="" clip-rule="evenodd" transform="matrix(1 0 0 1 0 0)" d="M19.4363 75.07672L575.6259 75.07672L575.6259 75.07672L575.6259 803.7487L575.6259 803.7487L19.4363 803.7487z" /></clipPath><clipPath id="89"><path id="" clip-rule="evenodd" transform="matrix(1 0 0 1 0 0)" d="M163.8513 410.5656L180.8836 410.5656L180.8836 410.5656L180.8836 422.8001L180.8836 422.8001L163.8513 422.8001z" /></clipPath><clipPath id="90"><path id="" clip-rule="evenodd" transform="matrix(1 0 0 1 0 0)" d="M19.4363 75.07672L575.6259 75.07672L575.6259 75.07672L575.6259 803.7487L575.6259 803.7487L19.4363 803.7487z" /></clipPath><clipPath id="91"><path id="" clip-rule="evenodd" transform="matrix(1 0 0 1 0 0)" d="M180.8836 410.5656L571.7876 410.5656L571.7876 410.5656L571.7876 422.8001L571.7876 422.8001L180.8836 422.8001z" /></clipPath><clipPath id="92"><path id="" clip-rule="evenodd" transform="matrix(1 0 0 1 0 0)" d="M19.4363 75.07672L575.6259 75.07672L575.6259 75.07672L575.6259 803.7487L575.6259 803.7487L19.4363 803.7487z" /></clipPath><clipPath id="93"><path id="" clip-rule="evenodd" transform="matrix(1 0 0 1 0 0)" d="M33.58993 425.5589L163.8513 425.5589L163.8513 425.5589L163.8513 437.7934L163.8513 437.7934L33.58993 437.7934z" /></clipPath><clipPath id="94"><path id="" clip-rule="evenodd" transform="matrix(1 0 0 1 0 0)" d="M19.4363 75.07672L575.6259 75.07672L575.6259 75.07672L575.6259 803.7487L575.6259 803.7487L19.4363 803.7487z" /></clipPath><clipPath id="95"><path id="" clip-rule="evenodd" transform="matrix(1 0 0 1 0 0)" d="M163.8513 425.5589L180.8836 425.5589L180.8836 425.5589L180.8836 437.7934L180.8836 437.7934L163.8513 437.7934z" /></clipPath><clipPath id="96"><path id="" clip-rule="evenodd" transform="matrix(1 0 0 1 0 0)" d="M19.4363 75.07672L575.6259 75.07672L575.6259 75.07672L575.6259 803.7487L575.6259 803.7487L19.4363 803.7487z" /></clipPath><clipPath id="97"><path id="" clip-rule="evenodd" transform="matrix(1 0 0 1 0 0)" d="M180.8836 425.5589L571.7876 425.5589L571.7876 425.5589L571.7876 437.7934L571.7876 437.7934L180.8836 437.7934z" /></clipPath><clipPath id="98"><path id="" clip-rule="evenodd" transform="matrix(1 0 0 1 0 0)" d="M19.4363 75.07672L575.6259 75.07672L575.6259 75.07672L575.6259 803.7487L575.6259 803.7487L19.4363 803.7487z" /></clipPath><clipPath id="99"><path id="" clip-rule="evenodd" transform="matrix(1 0 0 1 0 0)" d="M33.58993 440.6721L163.8513 440.6721L163.8513 440.6721L163.8513 452.7867L163.8513 452.7867L33.58993 452.7867z" /></clipPath><clipPath id="100"><path id="" clip-rule="evenodd" transform="matrix(1 0 0 1 0 0)" d="M19.4363 75.07672L575.6259 75.07672L575.6259 75.07672L575.6259 803.7487L575.6259 803.7487L19.4363 803.7487z" /></clipPath><clipPath id="101"><path id="" clip-rule="evenodd" transform="matrix(1 0 0 1 0 0)" d="M163.8513 440.6721L180.8836 440.6721L180.8836 440.6721L180.8836 452.7867L180.8836 452.7867L163.8513 452.7867z" /></clipPath><clipPath id="102"><path id="" clip-rule="evenodd" transform="matrix(1 0 0 1 0 0)" d="M19.4363 75.07672L575.6259 75.07672L575.6259 75.07672L575.6259 803.7487L575.6259 803.7487L19.4363 803.7487z" /></clipPath><clipPath id="103"><path id="" clip-rule="evenodd" transform="matrix(1 0 0 1 0 0)" d="M180.8836 440.6721L571.7876 440.6721L571.7876 440.6721L571.7876 452.7867L571.7876 452.7867L180.8836 452.7867z" /></clipPath><clipPath id="104"><path id="" clip-rule="evenodd" transform="matrix(1 0 0 1 0 0)" d="M19.4363 75.07672L575.6259 75.07672L575.6259 75.07672L575.6259 803.7487L575.6259 803.7487L19.4363 803.7487z" /></clipPath><clipPath id="105"><path id="" clip-rule="evenodd" transform="matrix(1 0 0 1 0 0)" d="M33.58993 470.6586L163.8513 470.6586L163.8513 470.6586L163.8513 482.5333L163.8513 482.5333L33.58993 482.5333z" /></clipPath><clipPath id="106"><path id="" clip-rule="evenodd" transform="matrix(1 0 0 1 0 0)" d="M19.4363 75.07672L575.6259 75.07672L575.6259 75.07672L575.6259 803.7487L575.6259 803.7487L19.4363 803.7487z" /></clipPath><clipPath id="107"><path id="" clip-rule="evenodd" transform="matrix(1 0 0 1 0 0)" d="M163.8513 470.6586L180.8836 470.6586L180.8836 470.6586L180.8836 482.5333L180.8836 482.5333L163.8513 482.5333z" /></clipPath><clipPath id="108"><path id="" clip-rule="evenodd" transform="matrix(1 0 0 1 0 0)" d="M19.4363 75.07672L575.6259 75.07672L575.6259 75.07672L575.6259 803.7487L575.6259 803.7487L19.4363 803.7487z" /></clipPath><clipPath id="109"><path id="" clip-rule="evenodd" transform="matrix(1 0 0 1 0 0)" d="M180.8836 470.6586L571.7876 470.6586L571.7876 470.6586L571.7876 482.5333L571.7876 482.5333L180.8836 482.5333z" /></clipPath><clipPath id="110"><path id="" clip-rule="evenodd" transform="matrix(1 0 0 1 0 0)" d="M19.4363 75.07672L575.6259 75.07672L575.6259 75.07672L575.6259 803.7487L575.6259 803.7487L19.4363 803.7487z" /></clipPath><clipPath id="111"><path id="" clip-rule="evenodd" transform="matrix(1 0 0 1 0 0)" d="M33.58993 500.1653L163.8513 500.1653L163.8513 500.1653L163.8513 512.2798L163.8513 512.2798L33.58993 512.2798z" /></clipPath><clipPath id="112"><path id="" clip-rule="evenodd" transform="matrix(1 0 0 1 0 0)" d="M19.4363 75.07672L575.6259 75.07672L575.6259 75.07672L575.6259 803.7487L575.6259 803.7487L19.4363 803.7487z" /></clipPath><clipPath id="113"><path id="" clip-rule="evenodd" transform="matrix(1 0 0 1 0 0)" d="M163.8513 500.1653L180.8836 500.1653L180.8836 500.1653L180.8836 512.2798L180.8836 512.2798L163.8513 512.2798z" /></clipPath><clipPath id="114"><path id="" clip-rule="evenodd" transform="matrix(1 0 0 1 0 0)" d="M19.4363 75.07672L575.6259 75.07672L575.6259 75.07672L575.6259 803.7487L575.6259 803.7487L19.4363 803.7487z" /></clipPath><clipPath id="115"><path id="" clip-rule="evenodd" transform="matrix(1 0 0 1 0 0)" d="M180.8836 500.1653L571.7876 500.1653L571.7876 500.1653L571.7876 512.2798L571.7876 512.2798L180.8836 512.2798z" /></clipPath><clipPath id="116"><path id="" clip-rule="evenodd" transform="matrix(1 0 0 1 0 0)" d="M19.4363 75.07672L575.6259 75.07672L575.6259 75.07672L575.6259 803.7487L575.6259 803.7487L19.4363 803.7487z" /></clipPath><clipPath id="117"><path id="" clip-rule="evenodd" transform="matrix(1 0 0 1 0 0)" d="M33.58993 515.1586L163.8513 515.1586L163.8513 515.1586L163.8513 527.2731L163.8513 527.2731L33.58993 527.2731z" /></clipPath><clipPath id="118"><path id="" clip-rule="evenodd" transform="matrix(1 0 0 1 0 0)" d="M19.4363 75.07672L575.6259 75.07672L575.6259 75.07672L575.6259 803.7487L575.6259 803.7487L19.4363 803.7487z" /></clipPath><clipPath id="119"><path id="" clip-rule="evenodd" transform="matrix(1 0 0 1 0 0)" d="M163.8513 515.1586L180.8836 515.1586L180.8836 515.1586L180.8836 527.2731L180.8836 527.2731L163.8513 527.2731z" /></clipPath><clipPath id="120"><path id="" clip-rule="evenodd" transform="matrix(1 0 0 1 0 0)" d="M19.4363 75.07672L575.6259 75.07672L575.6259 75.07672L575.6259 803.7487L575.6259 803.7487L19.4363 803.7487z" /></clipPath><clipPath id="121"><path id="" clip-rule="evenodd" transform="matrix(1 0 0 1 0 0)" d="M180.8836 515.1586L571.7876 515.1586L571.7876 515.1586L571.7876 527.2731L571.7876 527.2731L180.8836 527.2731z" /></clipPath><clipPath id="122"><path id="" clip-rule="evenodd" transform="matrix(1 0 0 1 0 0)" d="M19.4363 75.07672L575.6259 75.07672L575.6259 75.07672L575.6259 803.7487L575.6259 803.7487L19.4363 803.7487z" /></clipPath><clipPath id="123"><path id="" clip-rule="evenodd" transform="matrix(1 0 0 1 0 0)" d="M33.58993 485.412L163.8513 485.412L163.8513 485.412L163.8513 497.2866L163.8513 497.2866L33.58993 497.2866z" /></clipPath><clipPath id="124"><path id="" clip-rule="evenodd" transform="matrix(1 0 0 1 0 0)" d="M19.4363 75.07672L575.6259 75.07672L575.6259 75.07672L575.6259 803.7487L575.6259 803.7487L19.4363 803.7487z" /></clipPath><clipPath id="125"><path id="" clip-rule="evenodd" transform="matrix(1 0 0 1 0 0)" d="M163.8513 485.412L180.8836 485.412L180.8836 485.412L180.8836 497.2866L180.8836 497.2866L163.8513 497.2866z" /></clipPath><clipPath id="126"><path id="" clip-rule="evenodd" transform="matrix(1 0 0 1 0 0)" d="M19.4363 75.07672L575.6259 75.07672L575.6259 75.07672L575.6259 803.7487L575.6259 803.7487L19.4363 803.7487z" /></clipPath><clipPath id="127"><path id="" clip-rule="evenodd" transform="matrix(1 0 0 1 0 0)" d="M180.8836 485.412L571.7876 485.412L571.7876 485.412L571.7876 497.2866L571.7876 497.2866L180.8836 497.2866z" /></clipPath><clipPath id="128"><path id="" clip-rule="evenodd" transform="matrix(1 0 0 1 0 0)" d="M19.4363 75.07672L575.6259 75.07672L575.6259 75.07672L575.6259 803.7487L575.6259 803.7487L19.4363 803.7487z" /></clipPath><clipPath id="129"><path id="" clip-rule="evenodd" transform="matrix(1 0 0 1 0 0)" d="M33.58993 530.1518L163.8513 530.1518L163.8513 530.1518L163.8513 542.3863L163.8513 542.3863L33.58993 542.3863z" /></clipPath><clipPath id="130"><path id="" clip-rule="evenodd" transform="matrix(1 0 0 1 0 0)" d="M19.4363 75.07672L575.6259 75.07672L575.6259 75.07672L575.6259 803.7487L575.6259 803.7487L19.4363 803.7487z" /></clipPath><clipPath id="131"><path id="" clip-rule="evenodd" transform="matrix(1 0 0 1 0 0)" d="M163.8513 530.1518L180.8836 530.1518L180.8836 530.1518L180.8836 542.3863L180.8836 542.3863L163.8513 542.3863z" /></clipPath><clipPath id="132"><path id="" clip-rule="evenodd" transform="matrix(1 0 0 1 0 0)" d="M19.4363 75.07672L575.6259 75.07672L575.6259 75.07672L575.6259 803.7487L575.6259 803.7487L19.4363 803.7487z" /></clipPath><clipPath id="133"><path id="" clip-rule="evenodd" transform="matrix(1 0 0 1 0 0)" d="M180.8836 530.1518L571.7876 530.1518L571.7876 530.1518L571.7876 542.3863L571.7876 542.3863L180.8836 542.3863z" /></clipPath><clipPath id="134"><path id="" clip-rule="evenodd" transform="matrix(1 0 0 1 0 0)" d="M19.4363 75.07672L575.6259 75.07672L575.6259 75.07672L575.6259 803.7487L575.6259 803.7487L19.4363 803.7487z" /></clipPath><clipPath id="135"><path id="" clip-rule="evenodd" transform="matrix(1 0 0 1 0 0)" d="M19.4363 75.07672L575.6259 75.07672L575.6259 75.07672L575.6259 803.7487L575.6259 803.7487L19.4363 803.7487z" /></clipPath><clipPath id="136"><path id="" clip-rule="evenodd" transform="matrix(1 0 0 1 0 0)" d="M25.07376 548.2637L569.0288 548.2637L569.0288 548.2637L569.0288 566.9752L569.0288 566.9752L25.07376 566.9752z" /></clipPath><clipPath id="137"><path id="" clip-rule="evenodd" transform="matrix(1 0 0 1 0 0)" d="M19.4363 75.07672L575.6259 75.07672L575.6259 75.07672L575.6259 803.7487L575.6259 803.7487L19.4363 803.7487z" /></clipPath><clipPath id="138"><path id="" clip-rule="evenodd" transform="matrix(1 0 0 1 0 0)" d="M25.07376 572.6127L569.0288 572.6127L569.0288 572.6127L569.0288 584.8472L569.0288 584.8472L25.07376 584.8472z" /></clipPath><clipPath id="139"><path id="" clip-rule="evenodd" transform="matrix(1 0 0 1 0 0)" d="M19.4363 75.07672L575.6259 75.07672L575.6259 75.07672L575.6259 803.7487L575.6259 803.7487L19.4363 803.7487z" /></clipPath><clipPath id="140"><path id="" clip-rule="evenodd" transform="matrix(1 0 0 1 0 0)" d="M175.2461 587.7259L189.3998 587.7259L189.3998 587.7259L189.3998 605.238L189.3998 605.238L175.2461 605.238z" /></clipPath><clipPath id="141"><path id="" clip-rule="evenodd" transform="matrix(1 0 0 1 0 0)" d="M19.4363 75.07672L575.6259 75.07672L575.6259 75.07672L575.6259 803.7487L575.6259 803.7487L19.4363 803.7487z" /></clipPath><clipPath id="142"><path id="" clip-rule="evenodd" transform="matrix(1 0 0 1 0 0)" d="M175.2461 605.238L189.3998 605.238L189.3998 605.238L189.3998 622.5103L189.3998 622.5103L175.2461 622.5103z" /></clipPath><clipPath id="143"><path id="" clip-rule="evenodd" transform="matrix(1 0 0 1 0 0)" d="M19.4363 75.07672L575.6259 75.07672L575.6259 75.07672L575.6259 803.7487L575.6259 803.7487L19.4363 803.7487z" /></clipPath><clipPath id="144"><path id="" clip-rule="evenodd" transform="matrix(1 0 0 1 0 0)" d="M175.2461 622.5103L189.3998 622.5103L189.3998 622.5103L189.3998 639.7825L189.3998 639.7825L175.2461 639.7825z" /></clipPath><clipPath id="145"><path id="" clip-rule="evenodd" transform="matrix(1 0 0 1 0 0)" d="M19.4363 75.07672L575.6259 75.07672L575.6259 75.07672L575.6259 803.7487L575.6259 803.7487L19.4363 803.7487z" /></clipPath><clipPath id="146"><path id="" clip-rule="evenodd" transform="matrix(1 0 0 1 0 0)" d="M158.2138 587.7259L172.3674 587.7259L172.3674 587.7259L172.3674 605.238L172.3674 605.238L158.2138 605.238z" /></clipPath><clipPath id="147"><path id="" clip-rule="evenodd" transform="matrix(1 0 0 1 0 0)" d="M19.4363 75.07672L575.6259 75.07672L575.6259 75.07672L575.6259 803.7487L575.6259 803.7487L19.4363 803.7487z" /></clipPath><clipPath id="148"><path id="" clip-rule="evenodd" transform="matrix(1 0 0 1 0 0)" d="M25.07376 751.6921L569.0288 751.6921L569.0288 751.6921L569.0288 763.9266L569.0288 763.9266L25.07376 763.9266z" /></clipPath><clipPath id="149"><path id="" clip-rule="evenodd" transform="matrix(1 0 0 1 0 0)" d="M19.4363 75.07672L575.6259 75.07672L575.6259 75.07672L575.6259 803.7487L575.6259 803.7487L19.4363 803.7487z" /></clipPath><clipPath id="150"><path id="" clip-rule="evenodd" transform="matrix(1 0 0 1 0 0)" d="M36.46864 590.4846L155.455 590.4846L155.455 590.4846L155.455 602.3593L155.455 602.3593L36.46864 602.3593z" /></clipPath><clipPath id="151"><path id="" clip-rule="evenodd" transform="matrix(1 0 0 1 0 0)" d="M19.4363 75.07672L575.6259 75.07672L575.6259 75.07672L575.6259 803.7487L575.6259 803.7487L19.4363 803.7487z" /></clipPath><clipPath id="152"><path id="" clip-rule="evenodd" transform="matrix(1 0 0 1 0 0)" d="M35.8689 607.517L172.3674 607.517L172.3674 607.517L172.3674 619.6315L172.3674 619.6315L35.8689 619.6315z" /></clipPath><clipPath id="153"><path id="" clip-rule="evenodd" transform="matrix(1 0 0 1 0 0)" d="M19.4363 75.07672L575.6259 75.07672L575.6259 75.07672L575.6259 803.7487L575.6259 803.7487L19.4363 803.7487z" /></clipPath><clipPath id="154"><path id="" clip-rule="evenodd" transform="matrix(1 0 0 1 0 0)" d="M35.8689 624.7892L172.3674 624.7892L172.3674 624.7892L172.3674 637.0237L172.3674 637.0237L35.8689 637.0237z" /></clipPath><clipPath id="155"><path id="" clip-rule="evenodd" transform="matrix(1 0 0 1 0 0)" d="M19.4363 75.07672L575.6259 75.07672L575.6259 75.07672L575.6259 803.7487L575.6259 803.7487L19.4363 803.7487z" /></clipPath><clipPath id="156"><path id="" clip-rule="evenodd" transform="matrix(1 0 0 1 0 0)" d="M33.58993 658.2542L569.0288 658.2542L569.0288 658.2542L569.0288 720.5061L569.0288 720.5061L33.58993 720.5061z" /></clipPath><clipPath id="157"><path id="" clip-rule="evenodd" transform="matrix(1 0 0 1 0 0)" d="M19.4363 75.07672L575.6259 75.07672L575.6259 75.07672L575.6259 803.7487L575.6259 803.7487L19.4363 803.7487z" /></clipPath><clipPath id="158"><path id="" clip-rule="evenodd" transform="matrix(1 0 0 1 0 0)" d="M33.58993 723.3848L569.0288 723.3848L569.0288 723.3848L569.0288 748.9333L569.0288 748.9333L33.58993 748.9333z" /></clipPath><clipPath id="159"><path id="" clip-rule="evenodd" transform="matrix(1 0 0 1 0 0)" d="M19.4363 27.69806L575.6259 27.69806L575.6259 27.69806L575.6259 825.5788L575.6259 825.5788L19.4363 825.5788z" /></clipPath><clipPath id="160"><path id="" clip-rule="evenodd" transform="matrix(1 0 0 1 0 0)" d="M25.07376 809.3861L161.0925 809.3861L161.0925 809.3861L161.0925 820.7809L161.0925 820.7809L25.07376 820.7809z" /></clipPath><clipPath id="161"><path id="" clip-rule="evenodd" transform="matrix(1 0 0 1 0 0)" d="M161.0925 809.3861L166.73 809.3861L166.73 809.3861L166.73 820.7809L166.73 820.7809L161.0925 820.7809z" /></clipPath><clipPath id="162"><path id="" clip-rule="evenodd" transform="matrix(1 0 0 1 0 0)" d="M166.73 809.3861L234.7393 809.3861L234.7393 809.3861L234.7393 820.7809L234.7393 820.7809L166.73 820.7809z" /></clipPath><clipPath id="163"><path id="" clip-rule="evenodd" transform="matrix(1 0 0 1 0 0)" d="M237.6181 809.3861L353.7258 809.3861L353.7258 809.3861L353.7258 820.7809L353.7258 820.7809L237.6181 820.7809z" /></clipPath><clipPath id="164"><path id="" clip-rule="evenodd" transform="matrix(1 0 0 1 0 0)" d="M353.7258 809.3861L359.3632 809.3861L359.3632 809.3861L359.3632 820.7809L359.3632 820.7809L353.7258 820.7809z" /></clipPath><clipPath id="165"><path id="" clip-rule="evenodd" transform="matrix(1 0 0 1 0 0)" d="M359.3632 809.3861L458.5586 809.3861L458.5586 809.3861L458.5586 820.7809L458.5586 820.7809L359.3632 820.7809z" /></clipPath><clipPath id="166"><path id="" clip-rule="evenodd" transform="matrix(1 0 0 1 0 0)" d="M458.5586 809.3861L495.382 809.3861L495.382 809.3861L495.382 820.7809L495.382 820.7809L458.5586 820.7809z" /></clipPath><clipPath id="167"><path id="" clip-rule="evenodd" transform="matrix(1 0 0 1 0 0)" d="M495.382 809.3861L501.0194 809.3861L501.0194 809.3861L501.0194 820.7809L501.0194 820.7809L495.382 820.7809z" /></clipPath><clipPath id="168"><path id="" clip-rule="evenodd" transform="matrix(1 0 0 1 0 0)" d="M501.0194 809.3861L520.8105 809.3861L520.8105 809.3861L520.8105 820.7809L520.8105 820.7809L501.0194 820.7809z" /></clipPath><clipPath id="169"><path id="" clip-rule="evenodd" transform="matrix(1 0 0 1 0 0)" d="M540.7216 809.3861L569.0288 809.3861L569.0288 809.3861L569.0288 820.7809L569.0288 820.7809L540.7216 820.7809z" /></clipPath></defs><g transform="matrix(1.333333 0 0 1.333333 0 0)"><g clip-path="url(#1)"><g clip-path="url(#2)"><g clip-path="url(#3)"><g clip-path="url(#4)"></g><path id="8" transform="matrix(1 0 0 -1 0 841)" d="M22.31501 810.6631L571.7876 810.6631L571.7876 810.6631L571.7876 810.0634L571.7876 810.0634L22.31501 810.0634" stroke="none" fill="#000000" fill-rule="evenodd" /><path id="9" transform="matrix(1 0 0 -1 0 841)" d="M22.07512 810.6631L22.5549 810.6631L22.5549 810.6631L22.5549 810.0634L22.5549 810.0634L22.07512 810.0634" stroke="none" fill="#000000" fill-rule="evenodd" /><path id="10" transform="matrix(1 0 0 -1 0 841)" d="M571.5477 810.6631L572.0275 810.6631L572.0275 810.6631L572.0275 810.0634L572.0275 810.0634L571.5477 810.0634" stroke="none" fill="#000000" fill-rule="evenodd" /><path id="11" transform="matrix(1 0 0 -1 0 841)" d="M572.0275 810.4233L572.0275 792.0715L572.0275 792.0715L571.4277 792.0715L571.4277 792.0715L571.4277 810.4233" stroke="none" fill="#000000" fill-rule="evenodd" /><path id="12" transform="matrix(1 0 0 -1 0 841)" d="M572.0275 810.6631L572.0275 810.1833L572.0275 810.1833L571.4277 810.1833L571.4277 810.1833L571.4277 810.6631" stroke="none" fill="#000000" fill-rule="evenodd" /><path id="13" transform="matrix(1 0 0 -1 0 841)" d="M572.0275 792.3114L572.0275 791.8316L572.0275 791.8316L571.4277 791.8316L571.4277 791.8316L571.4277 792.3114" stroke="none" fill="#000000" fill-rule="evenodd" /><path id="14" transform="matrix(1 0 0 -1 0 841)" d="M571.7876 791.8316L22.31501 791.8316L22.31501 791.8316L22.31501 792.4313L22.31501 792.4313L571.7876 792.4313" stroke="none" fill="#000000" fill-rule="evenodd" /><path id="15" transform="matrix(1 0 0 -1 0 841)" d="M572.0275 791.8316L571.5477 791.8316L571.5477 791.8316L571.5477 792.4313L571.5477 792.4313L572.0275 792.4313" stroke="none" fill="#000000" fill-rule="evenodd" /><path id="16" transform="matrix(1 0 0 -1 0 841)" d="M22.5549 791.8316L22.07512 791.8316L22.07512 791.8316L22.07512 792.4313L22.07512 792.4313L22.5549 792.4313" stroke="none" fill="#000000" fill-rule="evenodd" /><path id="17" transform="matrix(1 0 0 -1 0 841)" d="M22.07512 792.0715L22.07512 810.4233L22.07512 810.4233L22.67485 810.4233L22.67485 810.4233L22.67485 792.0715" stroke="none" fill="#000000" fill-rule="evenodd" /><path id="18" transform="matrix(1 0 0 -1 0 841)" d="M22.07512 791.8316L22.07512 792.3114L22.07512 792.3114L22.67485 792.3114L22.67485 792.3114L22.67485 791.8316" stroke="none" fill="#000000" fill-rule="evenodd" /><path id="19" transform="matrix(1 0 0 -1 0 841)" d="M22.07512 810.1833L22.07512 810.6631L22.07512 810.6631L22.67485 810.6631L22.67485 810.6631L22.67485 810.1833" stroke="none" fill="#000000" fill-rule="evenodd" /></g><g clip-path="url(#5)"><path id="20" transform="matrix(1 0 0 -1 0 841)" d="M22.31501 791.1119L571.7876 791.1119L571.7876 791.1119L571.7876 790.5122L571.7876 790.5122L22.31501 790.5122" stroke="none" fill="#000000" fill-rule="evenodd" /><path id="21" transform="matrix(1 0 0 -1 0 841)" d="M22.07512 791.1119L22.5549 791.1119L22.5549 791.1119L22.5549 790.5122L22.5549 790.5122L22.07512 790.5122" stroke="none" fill="#000000" fill-rule="evenodd" /><path id="22" transform="matrix(1 0 0 -1 0 841)" d="M571.5477 791.1119L572.0275 791.1119L572.0275 791.1119L572.0275 790.5122L572.0275 790.5122L571.5477 790.5122" stroke="none" fill="#000000" fill-rule="evenodd" /><path id="23" transform="matrix(1 0 0 -1 0 841)" d="M572.0275 790.8721L572.0275 766.523L572.0275 766.523L571.4277 766.523L571.4277 766.523L571.4277 790.8721" stroke="none" fill="#000000" fill-rule="evenodd" /><path id="24" transform="matrix(1 0 0 -1 0 841)" d="M572.0275 791.1119L572.0275 790.6321L572.0275 790.6321L571.4277 790.6321L571.4277 790.6321L571.4277 791.1119" stroke="none" fill="#000000" fill-rule="evenodd" /><path id="25" transform="matrix(1 0 0 -1 0 841)" d="M572.0275 766.7629L572.0275 766.2831L572.0275 766.2831L571.4277 766.2831L571.4277 766.2831L571.4277 766.7629" stroke="none" fill="#000000" fill-rule="evenodd" /><path id="26" transform="matrix(1 0 0 -1 0 841)" d="M571.7876 766.2831L22.31501 766.2831L22.31501 766.2831L22.31501 766.8829L22.31501 766.8829L571.7876 766.8829" stroke="none" fill="#000000" fill-rule="evenodd" /><path id="27" transform="matrix(1 0 0 -1 0 841)" d="M572.0275 766.2831L571.5477 766.2831L571.5477 766.2831L571.5477 766.8829L571.5477 766.8829L572.0275 766.8829" stroke="none" fill="#000000" fill-rule="evenodd" /><path id="28" transform="matrix(1 0 0 -1 0 841)" d="M22.5549 766.2831L22.07512 766.2831L22.07512 766.2831L22.07512 766.8829L22.07512 766.8829L22.5549 766.8829" stroke="none" fill="#000000" fill-rule="evenodd" /><path id="29" transform="matrix(1 0 0 -1 0 841)" d="M22.07512 766.523L22.07512 790.8721L22.07512 790.8721L22.67485 790.8721L22.67485 790.8721L22.67485 766.523" stroke="none" fill="#000000" fill-rule="evenodd" /><path id="30" transform="matrix(1 0 0 -1 0 841)" d="M22.07512 766.2831L22.07512 766.7629L22.07512 766.7629L22.67485 766.7629L22.67485 766.7629L22.67485 766.2831" stroke="none" fill="#000000" fill-rule="evenodd" /><path id="31" transform="matrix(1 0 0 -1 0 841)" d="M22.07512 790.6321L22.07512 791.1119L22.07512 791.1119L22.67485 791.1119L22.67485 791.1119L22.67485 790.6321" stroke="none" fill="#000000" fill-rule="evenodd" /><g clip-path="url(#6)"></g></g><g clip-path="url(#7)"><g clip-path="url(#8)"><g clip-path="url(#9)"></g></g><g clip-path="url(#10)"><g clip-path="url(#11)"></g></g><g clip-path="url(#12)"><g clip-path="url(#13)"></g></g><g clip-path="url(#14)"><g clip-path="url(#15)"></g></g><g clip-path="url(#16)"><g clip-path="url(#17)"></g></g><g clip-path="url(#18)"><g clip-path="url(#19)"></g></g><g clip-path="url(#20)"><g clip-path="url(#21)"></g></g><g clip-path="url(#22)"><g clip-path="url(#23)"></g></g><g clip-path="url(#24)"><g clip-path="url(#25)"></g></g><g clip-path="url(#26)"><g clip-path="url(#27)"><path id="168" transform="matrix(1 0 0 -1 0 841)" d="M27.95247 710.7686L144.3001 710.7686" stroke="#0000FF" stroke-width="1.035374" fill="none" /></g></g><g clip-path="url(#28)"><g clip-path="url(#29)"><path id="194" transform="matrix(1 0 0 -1 0 841)" d="M33.58993 696.0151L340.4118 696.0151" stroke="#0000FF" stroke-width="1.035374" fill="none" /></g></g><g clip-path="url(#30)"><g clip-path="url(#31)"><path id="258" transform="matrix(1 0 0 -1 0 841)" d="M33.58993 661.2308L216.2677 661.2308" stroke="#0000FF" stroke-width="1.035374" fill="none" /></g></g><g clip-path="url(#32)"><g clip-path="url(#33)"></g></g><g clip-path="url(#34)"><g clip-path="url(#35)"><path id="308" transform="matrix(1 0 0 -1 0 841)" d="M33.58993 626.3265L299.6301 626.3265" stroke="#0000FF" stroke-width="1.035374" fill="none" /></g></g><g clip-path="url(#36)"><g clip-path="url(#37)"></g></g><g clip-path="url(#38)"><g clip-path="url(#39)"><path id="373" transform="matrix(1 0 0 -1 0 841)" d="M33.58993 591.4222L296.3916 591.4222" stroke="#0000FF" stroke-width="1.035374" fill="none" /></g></g><g clip-path="url(#40)"><g clip-path="url(#41)"></g></g><g clip-path="url(#42)"><g clip-path="url(#43)"></g></g><g clip-path="url(#44)"><g clip-path="url(#45)"><path id="448" transform="matrix(1 0 0 -1 0 841)" d="M33.58993 556.6379L278.9994 556.6379" stroke="#0000FF" stroke-width="1.035374" fill="none" /></g></g><g clip-path="url(#46)"><g clip-path="url(#47)"></g></g><g clip-path="url(#48)"><g clip-path="url(#49)"><path id="506" transform="matrix(1 0 0 -1 0 841)" d="M27.95247 521.7336L89.96455 521.7336" stroke="#0000FF" stroke-width="1.035374" fill="none" /></g></g><g clip-path="url(#50)"><g clip-path="url(#51)"></g></g><g clip-path="url(#52)"><g clip-path="url(#53)"></g></g><g clip-path="url(#54)"><g clip-path="url(#55)"></g></g><g clip-path="url(#56)"><g clip-path="url(#57)"></g></g><g clip-path="url(#58)"><g clip-path="url(#59)"></g></g><g clip-path="url(#60)"><g clip-path="url(#61)"></g></g><g clip-path="url(#62)"><g clip-path="url(#63)"></g></g><g clip-path="url(#64)"><g clip-path="url(#65)"></g></g><g clip-path="url(#66)"><g clip-path="url(#67)"></g></g><g clip-path="url(#68)"><g clip-path="url(#69)"></g></g><g clip-path="url(#70)"><g clip-path="url(#71)"></g></g><g clip-path="url(#72)"><g clip-path="url(#73)"></g></g><g clip-path="url(#74)"><g clip-path="url(#75)"></g></g><g clip-path="url(#76)"><g clip-path="url(#77)"></g></g><g clip-path="url(#78)"><g clip-path="url(#79)"></g></g><g clip-path="url(#80)"><g clip-path="url(#81)"></g></g><g clip-path="url(#82)"><g clip-path="url(#83)"></g></g><g clip-path="url(#84)"><g clip-path="url(#85)"></g></g><g clip-path="url(#86)"><g clip-path="url(#87)"></g></g><g clip-path="url(#88)"><g clip-path="url(#89)"></g></g><g clip-path="url(#90)"><g clip-path="url(#91)"></g></g><g clip-path="url(#92)"><g clip-path="url(#93)"></g></g><g clip-path="url(#94)"><g clip-path="url(#95)"></g></g><g clip-path="url(#96)"><g clip-path="url(#97)"></g></g><g clip-path="url(#98)"><g clip-path="url(#99)"></g></g><g clip-path="url(#100)"><g clip-path="url(#101)"></g></g><g clip-path="url(#102)"><g clip-path="url(#103)"></g></g><g clip-path="url(#104)"><g clip-path="url(#105)"></g></g><g clip-path="url(#106)"><g clip-path="url(#107)"></g></g><g clip-path="url(#108)"><g clip-path="url(#109)"></g></g><g clip-path="url(#110)"><g clip-path="url(#111)"></g></g><g clip-path="url(#112)"><g clip-path="url(#113)"></g></g><g clip-path="url(#114)"><g clip-path="url(#115)"></g></g><g clip-path="url(#116)"><g clip-path="url(#117)"></g></g><g clip-path="url(#118)"><g clip-path="url(#119)"></g></g><g clip-path="url(#120)"><g clip-path="url(#121)"></g></g><g clip-path="url(#122)"><g clip-path="url(#123)"></g></g><g clip-path="url(#124)"><g clip-path="url(#125)"></g></g><g clip-path="url(#126)"><g clip-path="url(#127)"></g></g><g clip-path="url(#128)"><g clip-path="url(#129)"></g></g><g clip-path="url(#130)"><g clip-path="url(#131)"></g></g><g clip-path="url(#132)"><g clip-path="url(#133)"></g></g></g><g clip-path="url(#134)"><path id="1200" transform="matrix(1 0 0 -1 0 841)" d="M22.31501 295.735L571.7876 295.735L571.7876 295.735L571.7876 295.1353L571.7876 295.1353L22.31501 295.1353" stroke="none" fill="#000000" fill-rule="evenodd" /><path id="1201" transform="matrix(1 0 0 -1 0 841)" d="M22.07512 295.735L22.5549 295.735L22.5549 295.735L22.5549 295.1353L22.5549 295.1353L22.07512 295.1353" stroke="none" fill="#000000" fill-rule="evenodd" /><path id="1202" transform="matrix(1 0 0 -1 0 841)" d="M571.5477 295.735L572.0275 295.735L572.0275 295.735L572.0275 295.1353L572.0275 295.1353L571.5477 295.1353" stroke="none" fill="#000000" fill-rule="evenodd" /><path id="1203" transform="matrix(1 0 0 -1 0 841)" d="M572.0275 295.4951L572.0275 271.1461L572.0275 271.1461L571.4277 271.1461L571.4277 271.1461L571.4277 295.4951" stroke="none" fill="#000000" fill-rule="evenodd" /><path id="1204" transform="matrix(1 0 0 -1 0 841)" d="M572.0275 295.735L572.0275 295.2552L572.0275 295.2552L571.4277 295.2552L571.4277 295.2552L571.4277 295.735" stroke="none" fill="#000000" fill-rule="evenodd" /><path id="1205" transform="matrix(1 0 0 -1 0 841)" d="M572.0275 271.3859L572.0275 270.9062L572.0275 270.9062L571.4277 270.9062L571.4277 270.9062L571.4277 271.3859" stroke="none" fill="#000000" fill-rule="evenodd" /><path id="1206" transform="matrix(1 0 0 -1 0 841)" d="M571.7876 270.9062L22.31501 270.9062L22.31501 270.9062L22.31501 271.5059L22.31501 271.5059L571.7876 271.5059" stroke="none" fill="#000000" fill-rule="evenodd" /><path id="1207" transform="matrix(1 0 0 -1 0 841)" d="M572.0275 270.9062L571.5477 270.9062L571.5477 270.9062L571.5477 271.5059L571.5477 271.5059L572.0275 271.5059" stroke="none" fill="#000000" fill-rule="evenodd" /><path id="1208" transform="matrix(1 0 0 -1 0 841)" d="M22.5549 270.9062L22.07512 270.9062L22.07512 270.9062L22.07512 271.5059L22.07512 271.5059L22.5549 271.5059" stroke="none" fill="#000000" fill-rule="evenodd" /><path id="1209" transform="matrix(1 0 0 -1 0 841)" d="M22.07512 271.1461L22.07512 295.4951L22.07512 295.4951L22.67485 295.4951L22.67485 295.4951L22.67485 271.1461" stroke="none" fill="#000000" fill-rule="evenodd" /><path id="1210" transform="matrix(1 0 0 -1 0 841)" d="M22.07512 270.9062L22.07512 271.3859L22.07512 271.3859L22.67485 271.3859L22.67485 271.3859L22.67485 270.9062" stroke="none" fill="#000000" fill-rule="evenodd" /><path id="1211" transform="matrix(1 0 0 -1 0 841)" d="M22.07512 295.2552L22.07512 295.735L22.07512 295.735L22.67485 295.735L22.67485 295.735L22.67485 295.2552" stroke="none" fill="#000000" fill-rule="evenodd" /><g clip-path="url(#135)"><g clip-path="url(#136)"></g></g><g clip-path="url(#137)"><g clip-path="url(#138)"><path id="1238" transform="matrix(1 0 0 -1 0 841)" d="M25.07376 258.3322L250.6922 258.3322" stroke="#0000FF" stroke-width="1.035374" fill="none" /></g></g><path id="1285" transform="matrix(1 0 0 -1 0 841)" d="M33.58993 253.2741L189.2798 253.2741L189.2798 253.2741L189.2798 235.882L189.2798 235.882L33.58993 235.882z" stroke="none" fill="#00CCFF" fill-rule="evenodd" /><path id="1286" transform="matrix(1 0 0 -1 0 841)" d="M33.58993 253.514L189.3998 253.514L189.3998 253.514L189.3998 252.9142L189.3998 252.9142L33.58993 252.9142" stroke="none" fill="#000000" fill-rule="evenodd" /><path id="1287" transform="matrix(1 0 0 -1 0 841)" d="M33.35004 253.514L33.82982 253.514L33.82982 253.514L33.82982 252.9142L33.82982 252.9142L33.35004 252.9142" stroke="none" fill="#000000" fill-rule="evenodd" /><path id="1288" transform="matrix(1 0 0 -1 0 841)" d="M189.1599 253.514L189.6397 253.514L189.6397 253.514L189.6397 252.9142L189.6397 252.9142L189.1599 252.9142" stroke="none" fill="#000000" fill-rule="evenodd" /><path id="1289" transform="matrix(1 0 0 -1 0 841)" d="M189.6397 253.2741L189.6397 235.762L189.6397 235.762L189.0399 235.762L189.0399 235.762L189.0399 253.2741" stroke="none" fill="#000000" fill-rule="evenodd" /><path id="1290" transform="matrix(1 0 0 -1 0 841)" d="M189.6397 253.514L189.6397 253.0342L189.6397 253.0342L189.0399 253.0342L189.0399 253.0342L189.0399 253.514" stroke="none" fill="#000000" fill-rule="evenodd" /><path id="1291" transform="matrix(1 0 0 -1 0 841)" d="M189.6397 236.0019L189.6397 235.5221L189.6397 235.5221L189.0399 235.5221L189.0399 235.5221L189.0399 236.0019" stroke="none" fill="#000000" fill-rule="evenodd" /><path id="1292" transform="matrix(1 0 0 -1 0 841)" d="M189.3998 235.5221L33.58993 235.5221L33.58993 235.5221L33.58993 236.1218L33.58993 236.1218L189.3998 236.1218" stroke="none" fill="#000000" fill-rule="evenodd" /><path id="1293" transform="matrix(1 0 0 -1 0 841)" d="M189.6397 235.5221L189.1599 235.5221L189.1599 235.5221L189.1599 236.1218L189.1599 236.1218L189.6397 236.1218" stroke="none" fill="#000000" fill-rule="evenodd" /><path id="1294" transform="matrix(1 0 0 -1 0 841)" d="M33.82982 235.5221L33.35004 235.5221L33.35004 235.5221L33.35004 236.1218L33.35004 236.1218L33.82982 236.1218" stroke="none" fill="#000000" fill-rule="evenodd" /><path id="1295" transform="matrix(1 0 0 -1 0 841)" d="M33.35004 235.762L33.35004 253.2741L33.35004 253.2741L33.94977 253.2741L33.94977 253.2741L33.94977 235.762" stroke="none" fill="#000000" fill-rule="evenodd" /><path id="1296" transform="matrix(1 0 0 -1 0 841)" d="M33.35004 235.5221L33.35004 236.0019L33.35004 236.0019L33.94977 236.0019L33.94977 236.0019L33.94977 235.5221" stroke="none" fill="#000000" fill-rule="evenodd" /><path id="1297" transform="matrix(1 0 0 -1 0 841)" d="M33.35004 253.0342L33.35004 253.514L33.35004 253.514L33.94977 253.514L33.94977 253.514L33.94977 253.0342" stroke="none" fill="#000000" fill-rule="evenodd" /><path id="1298" transform="matrix(1 0 0 -1 0 841)" d="M33.58993 235.762L189.2798 235.762L189.2798 235.762L189.2798 218.6097L189.2798 218.6097L33.58993 218.6097z" stroke="none" fill="#FF0000" fill-rule="evenodd" /><path id="1299" transform="matrix(1 0 0 -1 0 841)" d="M33.58993 236.0019L189.3998 236.0019L189.3998 236.0019L189.3998 235.4022L189.3998 235.4022L33.58993 235.4022" stroke="none" fill="#000000" fill-rule="evenodd" /><path id="1300" transform="matrix(1 0 0 -1 0 841)" d="M33.35004 236.0019L33.82982 236.0019L33.82982 236.0019L33.82982 235.4022L33.82982 235.4022L33.35004 235.4022" stroke="none" fill="#000000" fill-rule="evenodd" /><path id="1301" transform="matrix(1 0 0 -1 0 841)" d="M189.1599 236.0019L189.6397 236.0019L189.6397 236.0019L189.6397 235.4022L189.6397 235.4022L189.1599 235.4022" stroke="none" fill="#000000" fill-rule="evenodd" /><path id="1302" transform="matrix(1 0 0 -1 0 841)" d="M189.6397 235.762L189.6397 218.4897L189.6397 218.4897L189.0399 218.4897L189.0399 218.4897L189.0399 235.762" stroke="none" fill="#000000" fill-rule="evenodd" /><path id="1303" transform="matrix(1 0 0 -1 0 841)" d="M189.6397 236.0019L189.6397 235.5221L189.6397 235.5221L189.0399 235.5221L189.0399 235.5221L189.0399 236.0019" stroke="none" fill="#000000" fill-rule="evenodd" /><path id="1304" transform="matrix(1 0 0 -1 0 841)" d="M189.6397 218.7297L189.6397 218.2499L189.6397 218.2499L189.0399 218.2499L189.0399 218.2499L189.0399 218.7297" stroke="none" fill="#000000" fill-rule="evenodd" /><path id="1305" transform="matrix(1 0 0 -1 0 841)" d="M189.3998 218.2499L33.58993 218.2499L33.58993 218.2499L33.58993 218.8496L33.58993 218.8496L189.3998 218.8496" stroke="none" fill="#000000" fill-rule="evenodd" /><path id="1306" transform="matrix(1 0 0 -1 0 841)" d="M189.6397 218.2499L189.1599 218.2499L189.1599 218.2499L189.1599 218.8496L189.1599 218.8496L189.6397 218.8496" stroke="none" fill="#000000" fill-rule="evenodd" /><path id="1307" transform="matrix(1 0 0 -1 0 841)" d="M33.82982 218.2499L33.35004 218.2499L33.35004 218.2499L33.35004 218.8496L33.35004 218.8496L33.82982 218.8496" stroke="none" fill="#000000" fill-rule="evenodd" /><path id="1308" transform="matrix(1 0 0 -1 0 841)" d="M33.35004 218.4897L33.35004 235.762L33.35004 235.762L33.94977 235.762L33.94977 235.762L33.94977 218.4897" stroke="none" fill="#000000" fill-rule="evenodd" /><path id="1309" transform="matrix(1 0 0 -1 0 841)" d="M33.35004 218.2499L33.35004 218.7297L33.35004 218.7297L33.94977 218.7297L33.94977 218.7297L33.94977 218.2499" stroke="none" fill="#000000" fill-rule="evenodd" /><path id="1310" transform="matrix(1 0 0 -1 0 841)" d="M33.35004 235.5221L33.35004 236.0019L33.35004 236.0019L33.94977 236.0019L33.94977 236.0019L33.94977 235.5221" stroke="none" fill="#000000" fill-rule="evenodd" /><path id="1311" transform="matrix(1 0 0 -1 0 841)" d="M33.58993 218.4897L189.2798 218.4897L189.2798 218.4897L189.2798 201.3375L189.2798 201.3375L33.58993 201.3375z" stroke="none" fill="#FF8000" fill-rule="evenodd" /><path id="1312" transform="matrix(1 0 0 -1 0 841)" d="M33.58993 218.7297L189.3998 218.7297L189.3998 218.7297L189.3998 218.1299L189.3998 218.1299L33.58993 218.1299" stroke="none" fill="#000000" fill-rule="evenodd" /><path id="1313" transform="matrix(1 0 0 -1 0 841)" d="M33.35004 218.7297L33.82982 218.7297L33.82982 218.7297L33.82982 218.1299L33.82982 218.1299L33.35004 218.1299" stroke="none" fill="#000000" fill-rule="evenodd" /><path id="1314" transform="matrix(1 0 0 -1 0 841)" d="M189.1599 218.7297L189.6397 218.7297L189.6397 218.7297L189.6397 218.1299L189.6397 218.1299L189.1599 218.1299" stroke="none" fill="#000000" fill-rule="evenodd" /><path id="1315" transform="matrix(1 0 0 -1 0 841)" d="M189.6397 218.4897L189.6397 201.2175L189.6397 201.2175L189.0399 201.2175L189.0399 201.2175L189.0399 218.4897" stroke="none" fill="#000000" fill-rule="evenodd" /><path id="1316" transform="matrix(1 0 0 -1 0 841)" d="M189.6397 218.7297L189.6397 218.2499L189.6397 218.2499L189.0399 218.2499L189.0399 218.2499L189.0399 218.7297" stroke="none" fill="#000000" fill-rule="evenodd" /><path id="1317" transform="matrix(1 0 0 -1 0 841)" d="M189.6397 201.4575L189.6397 200.9777L189.6397 200.9777L189.0399 200.9777L189.0399 200.9777L189.0399 201.4575" stroke="none" fill="#000000" fill-rule="evenodd" /><path id="1318" transform="matrix(1 0 0 -1 0 841)" d="M189.3998 200.9777L33.58993 200.9777L33.58993 200.9777L33.58993 201.5774L33.58993 201.5774L189.3998 201.5774" stroke="none" fill="#000000" fill-rule="evenodd" /><path id="1319" transform="matrix(1 0 0 -1 0 841)" d="M189.6397 200.9777L189.1599 200.9777L189.1599 200.9777L189.1599 201.5774L189.1599 201.5774L189.6397 201.5774" stroke="none" fill="#000000" fill-rule="evenodd" /><path id="1320" transform="matrix(1 0 0 -1 0 841)" d="M33.82982 200.9777L33.35004 200.9777L33.35004 200.9777L33.35004 201.5774L33.35004 201.5774L33.82982 201.5774" stroke="none" fill="#000000" fill-rule="evenodd" /><path id="1321" transform="matrix(1 0 0 -1 0 841)" d="M33.35004 201.2175L33.35004 218.4897L33.35004 218.4897L33.94977 218.4897L33.94977 218.4897L33.94977 201.2175" stroke="none" fill="#000000" fill-rule="evenodd" /><path id="1322" transform="matrix(1 0 0 -1 0 841)" d="M33.35004 200.9777L33.35004 201.4575L33.35004 201.4575L33.94977 201.4575L33.94977 201.4575L33.94977 200.9777" stroke="none" fill="#000000" fill-rule="evenodd" /><path id="1323" transform="matrix(1 0 0 -1 0 841)" d="M33.35004 218.2499L33.35004 218.7297L33.35004 218.7297L33.94977 218.7297L33.94977 218.7297L33.94977 218.2499" stroke="none" fill="#000000" fill-rule="evenodd" /><path id="1324" transform="matrix(1 0 0 -1 0 841)" d="M33.58993 201.4575L189.3998 201.4575L189.3998 201.4575L189.3998 200.8577L189.3998 200.8577L33.58993 200.8577" stroke="none" fill="#000000" fill-rule="evenodd" /><path id="1325" transform="matrix(1 0 0 -1 0 841)" d="M33.35004 201.4575L33.82982 201.4575L33.82982 201.4575L33.82982 200.8577L33.82982 200.8577L33.35004 200.8577" stroke="none" fill="#000000" fill-rule="evenodd" /><path id="1326" transform="matrix(1 0 0 -1 0 841)" d="M189.1599 201.4575L189.6397 201.4575L189.6397 201.4575L189.6397 200.8577L189.6397 200.8577L189.1599 200.8577" stroke="none" fill="#000000" fill-rule="evenodd" /><path id="1327" transform="matrix(1 0 0 -1 0 841)" d="M189.6397 201.2175L189.6397 185.6246L189.6397 185.6246L189.0399 185.6246L189.0399 185.6246L189.0399 201.2175" stroke="none" fill="#000000" fill-rule="evenodd" /><path id="1328" transform="matrix(1 0 0 -1 0 841)" d="M189.6397 201.4575L189.6397 200.9777L189.6397 200.9777L189.0399 200.9777L189.0399 200.9777L189.0399 201.4575" stroke="none" fill="#000000" fill-rule="evenodd" /><path id="1329" transform="matrix(1 0 0 -1 0 841)" d="M189.6397 185.8644L189.6397 185.3847L189.6397 185.3847L189.0399 185.3847L189.0399 185.3847L189.0399 185.8644" stroke="none" fill="#000000" fill-rule="evenodd" /><path id="1330" transform="matrix(1 0 0 -1 0 841)" d="M189.3998 185.3847L33.58993 185.3847L33.58993 185.3847L33.58993 185.9844L33.58993 185.9844L189.3998 185.9844" stroke="none" fill="#000000" fill-rule="evenodd" /><path id="1331" transform="matrix(1 0 0 -1 0 841)" d="M189.6397 185.3847L189.1599 185.3847L189.1599 185.3847L189.1599 185.9844L189.1599 185.9844L189.6397 185.9844" stroke="none" fill="#000000" fill-rule="evenodd" /><path id="1332" transform="matrix(1 0 0 -1 0 841)" d="M33.82982 185.3847L33.35004 185.3847L33.35004 185.3847L33.35004 185.9844L33.35004 185.9844L33.82982 185.9844" stroke="none" fill="#000000" fill-rule="evenodd" /><path id="1333" transform="matrix(1 0 0 -1 0 841)" d="M33.35004 185.6246L33.35004 201.2175L33.35004 201.2175L33.94977 201.2175L33.94977 201.2175L33.94977 185.6246" stroke="none" fill="#000000" fill-rule="evenodd" /><path id="1334" transform="matrix(1 0 0 -1 0 841)" d="M33.35004 185.3847L33.35004 185.8644L33.35004 185.8644L33.94977 185.8644L33.94977 185.8644L33.94977 185.3847" stroke="none" fill="#000000" fill-rule="evenodd" /><path id="1335" transform="matrix(1 0 0 -1 0 841)" d="M33.35004 200.9777L33.35004 201.4575L33.35004 201.4575L33.94977 201.4575L33.94977 201.4575L33.94977 200.9777" stroke="none" fill="#000000" fill-rule="evenodd" /><path id="1336" transform="matrix(1 0 0 -1 0 841)" d="M175.2461 218.4897L189.2798 218.4897L189.2798 218.4897L189.2798 201.3375L189.2798 201.3375L175.2461 201.3375z" stroke="none" fill="#FFFFFF" fill-rule="evenodd" /><path id="1337" transform="matrix(1 0 0 -1 0 841)" d="M175.2461 218.7297L189.3998 218.7297L189.3998 218.7297L189.3998 218.1299L189.3998 218.1299L175.2461 218.1299" stroke="none" fill="#C0C0C0" fill-rule="evenodd" /><path id="1338" transform="matrix(1 0 0 -1 0 841)" d="M175.0063 218.7297L175.486 218.7297L175.486 218.7297L175.486 218.1299L175.486 218.1299L175.0063 218.1299" stroke="none" fill="#C0C0C0" fill-rule="evenodd" /><path id="1339" transform="matrix(1 0 0 -1 0 841)" d="M189.1599 218.7297L189.6397 218.7297L189.6397 218.7297L189.6397 218.1299L189.6397 218.1299L189.1599 218.1299" stroke="none" fill="#C0C0C0" fill-rule="evenodd" /><path id="1340" transform="matrix(1 0 0 -1 0 841)" d="M189.6397 218.4897L189.6397 201.2175L189.6397 201.2175L189.0399 201.2175L189.0399 201.2175L189.0399 218.4897" stroke="none" fill="#C0C0C0" fill-rule="evenodd" /><path id="1341" transform="matrix(1 0 0 -1 0 841)" d="M189.6397 218.7297L189.6397 218.2499L189.6397 218.2499L189.0399 218.2499L189.0399 218.2499L189.0399 218.7297" stroke="none" fill="#C0C0C0" fill-rule="evenodd" /><path id="1342" transform="matrix(1 0 0 -1 0 841)" d="M189.6397 201.4575L189.6397 200.9777L189.6397 200.9777L189.0399 200.9777L189.0399 200.9777L189.0399 201.4575" stroke="none" fill="#C0C0C0" fill-rule="evenodd" /><path id="1343" transform="matrix(1 0 0 -1 0 841)" d="M189.3998 200.9777L175.2461 200.9777L175.2461 200.9777L175.2461 201.5774L175.2461 201.5774L189.3998 201.5774" stroke="none" fill="#C0C0C0" fill-rule="evenodd" /><path id="1344" transform="matrix(1 0 0 -1 0 841)" d="M189.6397 200.9777L189.1599 200.9777L189.1599 200.9777L189.1599 201.5774L189.1599 201.5774L189.6397 201.5774" stroke="none" fill="#C0C0C0" fill-rule="evenodd" /><path id="1345" transform="matrix(1 0 0 -1 0 841)" d="M175.486 200.9777L175.0063 200.9777L175.0063 200.9777L175.0063 201.5774L175.0063 201.5774L175.486 201.5774" stroke="none" fill="#C0C0C0" fill-rule="evenodd" /><path id="1346" transform="matrix(1 0 0 -1 0 841)" d="M175.0063 201.2175L175.0063 218.4897L175.0063 218.4897L175.606 218.4897L175.606 218.4897L175.606 201.2175" stroke="none" fill="#C0C0C0" fill-rule="evenodd" /><path id="1347" transform="matrix(1 0 0 -1 0 841)" d="M175.0063 200.9777L175.0063 201.4575L175.0063 201.4575L175.606 201.4575L175.606 201.4575L175.606 200.9777" stroke="none" fill="#C0C0C0" fill-rule="evenodd" /><path id="1348" transform="matrix(1 0 0 -1 0 841)" d="M175.0063 218.2499L175.0063 218.7297L175.0063 218.7297L175.606 218.7297L175.606 218.7297L175.606 218.2499" stroke="none" fill="#C0C0C0" fill-rule="evenodd" /><path id="1349" transform="matrix(1 0 0 -1 0 841)" d="M175.2461 235.762L189.2798 235.762L189.2798 235.762L189.2798 218.6097L189.2798 218.6097L175.2461 218.6097z" stroke="none" fill="#FFFFFF" fill-rule="evenodd" /><path id="1350" transform="matrix(1 0 0 -1 0 841)" d="M175.2461 236.0019L189.3998 236.0019L189.3998 236.0019L189.3998 235.4022L189.3998 235.4022L175.2461 235.4022" stroke="none" fill="#C0C0C0" fill-rule="evenodd" /><path id="1351" transform="matrix(1 0 0 -1 0 841)" d="M175.0063 236.0019L175.486 236.0019L175.486 236.0019L175.486 235.4022L175.486 235.4022L175.0063 235.4022" stroke="none" fill="#C0C0C0" fill-rule="evenodd" /><path id="1352" transform="matrix(1 0 0 -1 0 841)" d="M189.1599 236.0019L189.6397 236.0019L189.6397 236.0019L189.6397 235.4022L189.6397 235.4022L189.1599 235.4022" stroke="none" fill="#C0C0C0" fill-rule="evenodd" /><path id="1353" transform="matrix(1 0 0 -1 0 841)" d="M189.6397 235.762L189.6397 218.4897L189.6397 218.4897L189.0399 218.4897L189.0399 218.4897L189.0399 235.762" stroke="none" fill="#C0C0C0" fill-rule="evenodd" /><path id="1354" transform="matrix(1 0 0 -1 0 841)" d="M189.6397 236.0019L189.6397 235.5221L189.6397 235.5221L189.0399 235.5221L189.0399 235.5221L189.0399 236.0019" stroke="none" fill="#C0C0C0" fill-rule="evenodd" /><path id="1355" transform="matrix(1 0 0 -1 0 841)" d="M189.6397 218.7297L189.6397 218.2499L189.6397 218.2499L189.0399 218.2499L189.0399 218.2499L189.0399 218.7297" stroke="none" fill="#C0C0C0" fill-rule="evenodd" /><path id="1356" transform="matrix(1 0 0 -1 0 841)" d="M189.3998 218.2499L175.2461 218.2499L175.2461 218.2499L175.2461 218.8496L175.2461 218.8496L189.3998 218.8496" stroke="none" fill="#C0C0C0" fill-rule="evenodd" /><path id="1357" transform="matrix(1 0 0 -1 0 841)" d="M189.6397 218.2499L189.1599 218.2499L189.1599 218.2499L189.1599 218.8496L189.1599 218.8496L189.6397 218.8496" stroke="none" fill="#C0C0C0" fill-rule="evenodd" /><path id="1358" transform="matrix(1 0 0 -1 0 841)" d="M175.486 218.2499L175.0063 218.2499L175.0063 218.2499L175.0063 218.8496L175.0063 218.8496L175.486 218.8496" stroke="none" fill="#C0C0C0" fill-rule="evenodd" /><path id="1359" transform="matrix(1 0 0 -1 0 841)" d="M175.0063 218.4897L175.0063 235.762L175.0063 235.762L175.606 235.762L175.606 235.762L175.606 218.4897" stroke="none" fill="#C0C0C0" fill-rule="evenodd" /><path id="1360" transform="matrix(1 0 0 -1 0 841)" d="M175.0063 218.2499L175.0063 218.7297L175.0063 218.7297L175.606 218.7297L175.606 218.7297L175.606 218.2499" stroke="none" fill="#C0C0C0" fill-rule="evenodd" /><path id="1361" transform="matrix(1 0 0 -1 0 841)" d="M175.0063 235.5221L175.0063 236.0019L175.0063 236.0019L175.606 236.0019L175.606 236.0019L175.606 235.5221" stroke="none" fill="#C0C0C0" fill-rule="evenodd" /><path id="1362" transform="matrix(1 0 0 -1 0 841)" d="M175.2461 253.2741L189.2798 253.2741L189.2798 253.2741L189.2798 235.882L189.2798 235.882L175.2461 235.882z" stroke="none" fill="#FFFFFF" fill-rule="evenodd" /><path id="1363" transform="matrix(1 0 0 -1 0 841)" d="M175.2461 253.514L189.3998 253.514L189.3998 253.514L189.3998 252.9142L189.3998 252.9142L175.2461 252.9142" stroke="none" fill="#C0C0C0" fill-rule="evenodd" /><path id="1364" transform="matrix(1 0 0 -1 0 841)" d="M175.0063 253.514L175.486 253.514L175.486 253.514L175.486 252.9142L175.486 252.9142L175.0063 252.9142" stroke="none" fill="#C0C0C0" fill-rule="evenodd" /><path id="1365" transform="matrix(1 0 0 -1 0 841)" d="M189.1599 253.514L189.6397 253.514L189.6397 253.514L189.6397 252.9142L189.6397 252.9142L189.1599 252.9142" stroke="none" fill="#C0C0C0" fill-rule="evenodd" /><path id="1366" transform="matrix(1 0 0 -1 0 841)" d="M189.6397 253.2741L189.6397 235.762L189.6397 235.762L189.0399 235.762L189.0399 235.762L189.0399 253.2741" stroke="none" fill="#C0C0C0" fill-rule="evenodd" /><path id="1367" transform="matrix(1 0 0 -1 0 841)" d="M189.6397 253.514L189.6397 253.0342L189.6397 253.0342L189.0399 253.0342L189.0399 253.0342L189.0399 253.514" stroke="none" fill="#C0C0C0" fill-rule="evenodd" /><path id="1368" transform="matrix(1 0 0 -1 0 841)" d="M189.6397 236.0019L189.6397 235.5221L189.6397 235.5221L189.0399 235.5221L189.0399 235.5221L189.0399 236.0019" stroke="none" fill="#C0C0C0" fill-rule="evenodd" /><path id="1369" transform="matrix(1 0 0 -1 0 841)" d="M189.3998 235.5221L175.2461 235.5221L175.2461 235.5221L175.2461 236.1218L175.2461 236.1218L189.3998 236.1218" stroke="none" fill="#C0C0C0" fill-rule="evenodd" /><path id="1370" transform="matrix(1 0 0 -1 0 841)" d="M189.6397 235.5221L189.1599 235.5221L189.1599 235.5221L189.1599 236.1218L189.1599 236.1218L189.6397 236.1218" stroke="none" fill="#C0C0C0" fill-rule="evenodd" /><path id="1371" transform="matrix(1 0 0 -1 0 841)" d="M175.486 235.5221L175.0063 235.5221L175.0063 235.5221L175.0063 236.1218L175.0063 236.1218L175.486 236.1218" stroke="none" fill="#C0C0C0" fill-rule="evenodd" /><path id="1372" transform="matrix(1 0 0 -1 0 841)" d="M175.0063 235.762L175.0063 253.2741L175.0063 253.2741L175.606 253.2741L175.606 253.2741L175.606 235.762" stroke="none" fill="#C0C0C0" fill-rule="evenodd" /><path id="1373" transform="matrix(1 0 0 -1 0 841)" d="M175.0063 235.5221L175.0063 236.0019L175.0063 236.0019L175.606 236.0019L175.606 236.0019L175.606 235.5221" stroke="none" fill="#C0C0C0" fill-rule="evenodd" /><path id="1374" transform="matrix(1 0 0 -1 0 841)" d="M175.0063 253.0342L175.0063 253.514L175.0063 253.514L175.606 253.514L175.606 253.514L175.606 253.0342" stroke="none" fill="#C0C0C0" fill-rule="evenodd" /><g clip-path="url(#139)"><g clip-path="url(#140)"></g></g><g clip-path="url(#141)"><g clip-path="url(#142)"></g></g><g clip-path="url(#143)"><g clip-path="url(#144)"></g></g><path id="1378" transform="matrix(1 0 0 -1 0 841)" d="M158.2138 253.2741L172.2475 253.2741L172.2475 253.2741L172.2475 235.882L172.2475 235.882L158.2138 235.882z" stroke="none" fill="#FFFFFF" fill-rule="evenodd" /><path id="1379" transform="matrix(1 0 0 -1 0 841)" d="M158.2138 253.514L172.3674 253.514L172.3674 253.514L172.3674 252.9142L172.3674 252.9142L158.2138 252.9142" stroke="none" fill="#C0C0C0" fill-rule="evenodd" /><path id="1380" transform="matrix(1 0 0 -1 0 841)" d="M157.9739 253.514L158.4537 253.514L158.4537 253.514L158.4537 252.9142L158.4537 252.9142L157.9739 252.9142" stroke="none" fill="#C0C0C0" fill-rule="evenodd" /><path id="1381" transform="matrix(1 0 0 -1 0 841)" d="M172.1275 253.514L172.6073 253.514L172.6073 253.514L172.6073 252.9142L172.6073 252.9142L172.1275 252.9142" stroke="none" fill="#C0C0C0" fill-rule="evenodd" /><path id="1382" transform="matrix(1 0 0 -1 0 841)" d="M172.6073 253.2741L172.6073 235.762L172.6073 235.762L172.0076 235.762L172.0076 235.762L172.0076 253.2741" stroke="none" fill="#C0C0C0" fill-rule="evenodd" /><path id="1383" transform="matrix(1 0 0 -1 0 841)" d="M172.6073 253.514L172.6073 253.0342L172.6073 253.0342L172.0076 253.0342L172.0076 253.0342L172.0076 253.514" stroke="none" fill="#C0C0C0" fill-rule="evenodd" /><path id="1384" transform="matrix(1 0 0 -1 0 841)" d="M172.6073 236.0019L172.6073 235.5221L172.6073 235.5221L172.0076 235.5221L172.0076 235.5221L172.0076 236.0019" stroke="none" fill="#C0C0C0" fill-rule="evenodd" /><path id="1385" transform="matrix(1 0 0 -1 0 841)" d="M172.3674 235.5221L158.2138 235.5221L158.2138 235.5221L158.2138 236.1218L158.2138 236.1218L172.3674 236.1218" stroke="none" fill="#C0C0C0" fill-rule="evenodd" /><path id="1386" transform="matrix(1 0 0 -1 0 841)" d="M172.6073 235.5221L172.1275 235.5221L172.1275 235.5221L172.1275 236.1218L172.1275 236.1218L172.6073 236.1218" stroke="none" fill="#C0C0C0" fill-rule="evenodd" /><path id="1387" transform="matrix(1 0 0 -1 0 841)" d="M158.4537 235.5221L157.9739 235.5221L157.9739 235.5221L157.9739 236.1218L157.9739 236.1218L158.4537 236.1218" stroke="none" fill="#C0C0C0" fill-rule="evenodd" /><path id="1388" transform="matrix(1 0 0 -1 0 841)" d="M157.9739 235.762L157.9739 253.2741L157.9739 253.2741L158.5737 253.2741L158.5737 253.2741L158.5737 235.762" stroke="none" fill="#C0C0C0" fill-rule="evenodd" /><path id="1389" transform="matrix(1 0 0 -1 0 841)" d="M157.9739 235.5221L157.9739 236.0019L157.9739 236.0019L158.5737 236.0019L158.5737 236.0019L158.5737 235.5221" stroke="none" fill="#C0C0C0" fill-rule="evenodd" /><path id="1390" transform="matrix(1 0 0 -1 0 841)" d="M157.9739 253.0342L157.9739 253.514L157.9739 253.514L158.5737 253.514L158.5737 253.514L158.5737 253.0342" stroke="none" fill="#C0C0C0" fill-rule="evenodd" /><g clip-path="url(#145)"><g clip-path="url(#146)"></g></g><g clip-path="url(#147)"><g clip-path="url(#148)"><path id="1392" transform="matrix(1 0 0 -1 0 841)" d="M25.07376 79.25287L234.7393 79.25287" stroke="#0000FF" stroke-width="1.035374" fill="none" /></g></g><g clip-path="url(#149)"><g clip-path="url(#150)"></g></g><g clip-path="url(#151)"><g clip-path="url(#152)"></g></g><g clip-path="url(#153)"><g clip-path="url(#154)"></g></g><g clip-path="url(#155)"><g clip-path="url(#156)"></g></g><g clip-path="url(#157)"><g clip-path="url(#158)"></g></g></g><g clip-path="url(#159)"><g clip-path="url(#160)"></g><path id="2167" transform="matrix(1 0 0 -1 0 841)" d="M22.31501 34.61255L571.7876 34.61255L571.7876 34.61255L571.7876 34.01282L571.7876 34.01282L22.31501 34.01282" stroke="none" fill="#000000" fill-rule="evenodd" /><path id="2168" transform="matrix(1 0 0 -1 0 841)" d="M22.07512 34.61255L22.5549 34.61255L22.5549 34.61255L22.5549 34.01282L22.5549 34.01282L22.07512 34.01282" stroke="none" fill="#000000" fill-rule="evenodd" /><path id="2169" transform="matrix(1 0 0 -1 0 841)" d="M571.5477 34.61255L572.0275 34.61255L572.0275 34.61255L572.0275 34.01282L572.0275 34.01282L571.5477 34.01282" stroke="none" fill="#000000" fill-rule="evenodd" /><path id="2170" transform="matrix(1 0 0 -1 0 841)" d="M572.0275 34.37268L572.0275 16.02094L572.0275 16.02094L571.4277 16.02094L571.4277 16.02094L571.4277 34.37268" stroke="none" fill="#000000" fill-rule="evenodd" /><path id="2171" transform="matrix(1 0 0 -1 0 841)" d="M572.0275 34.61255L572.0275 34.13275L572.0275 34.13275L571.4277 34.13275L571.4277 34.13275L571.4277 34.61255" stroke="none" fill="#000000" fill-rule="evenodd" /><path id="2172" transform="matrix(1 0 0 -1 0 841)" d="M572.0275 16.2608L572.0275 15.78107L572.0275 15.78107L571.4277 15.78107L571.4277 15.78107L571.4277 16.2608" stroke="none" fill="#000000" fill-rule="evenodd" /><path id="2173" transform="matrix(1 0 0 -1 0 841)" d="M571.7876 15.78107L22.31501 15.78107L22.31501 15.78107L22.31501 16.3808L22.31501 16.3808L571.7876 16.3808" stroke="none" fill="#000000" fill-rule="evenodd" /><path id="2174" transform="matrix(1 0 0 -1 0 841)" d="M572.0275 15.78107L571.5477 15.78107L571.5477 15.78107L571.5477 16.3808L571.5477 16.3808L572.0275 16.3808" stroke="none" fill="#000000" fill-rule="evenodd" /><path id="2175" transform="matrix(1 0 0 -1 0 841)" d="M22.5549 15.78107L22.07512 15.78107L22.07512 15.78107L22.07512 16.3808L22.07512 16.3808L22.5549 16.3808" stroke="none" fill="#000000" fill-rule="evenodd" /><path id="2176" transform="matrix(1 0 0 -1 0 841)" d="M22.07512 16.02094L22.07512 34.37268L22.07512 34.37268L22.67485 34.37268L22.67485 34.37268L22.67485 16.02094" stroke="none" fill="#000000" fill-rule="evenodd" /><path id="2177" transform="matrix(1 0 0 -1 0 841)" d="M22.07512 15.78107L22.07512 16.2608L22.07512 16.2608L22.67485 16.2608L22.67485 16.2608L22.67485 15.78107" stroke="none" fill="#000000" fill-rule="evenodd" /><path id="2178" transform="matrix(1 0 0 -1 0 841)" d="M22.07512 34.13275L22.07512 34.61255L22.07512 34.61255L22.67485 34.61255L22.67485 34.61255L22.67485 34.13275" stroke="none" fill="#000000" fill-rule="evenodd" /><g clip-path="url(#161)"></g><g clip-path="url(#162)"></g><g clip-path="url(#163)"></g><g clip-path="url(#164)"></g><g clip-path="url(#165)"></g><g clip-path="url(#166)"></g><g clip-path="url(#167)"></g><g clip-path="url(#168)"></g><g clip-path="url(#169)"></g></g></g></g></g></svg>