<svg xmlns="http://www.w3.org/2000/svg" xmlns:xlink="http://www.w3.org/1999/xlink" id="body_126" preserveAspectRatio="xMinYMin meet" viewBox="0 0 793 1121"><defs><clipPath id="1"><path id="" clip-rule="evenodd" transform="matrix(1 0 0 1 0 0)" d="M0 841L0 -0.8900146L0 -0.8900146L595.276 -0.8900146L595.276 -0.8900146L595.276 841L595.276 841L0 841z" /></clipPath></defs><g transform="matrix(1.333333 0 0 1.333333 0 0)"><g clip-path="url(#1)"><path id="37" transform="matrix(1 0 0 -1 0 841)" d="M85.039 766.564L510.236 766.564" stroke="#000000" stroke-width="0.498" fill="none" /><g transform="matrix(0.09749999 0 0 0.09749999 85.039 395.3715)"><g transform="matrix(1 0 0 1 0 0)"><image x="0" y="0" xlink:href="img_170.png" width="1226" height="1229" /></g></g><g transform="matrix(0.09749999 0 0 0.0975 227.148 396.9315)"><g transform="matrix(1 0 0 1 0 0)"><image x="0" y="0" xlink:href="img_171.png" width="1214" height="1213" /></g></g><g transform="matrix(0.0975 0 0 0.0975 368.087 397.3215)"><g transform="matrix(1 0 0 1 0 0)"><image x="0" y="0" xlink:href="img_172.png" width="1217" height="1209" /></g></g></g></g></svg>