<svg xmlns="http://www.w3.org/2000/svg" xmlns:xlink="http://www.w3.org/1999/xlink" id="body_117" preserveAspectRatio="xMinYMin meet" viewBox="0 0 793 1121"><defs><clipPath id="1"><path id="" clip-rule="evenodd" transform="matrix(1 0 0 1 0 0)" d="M0 841L0 -0.8900146L0 -0.8900146L595.276 -0.8900146L595.276 -0.8900146L595.276 841L595.276 841L0 841z" /></clipPath></defs><g transform="matrix(1.333333 0 0 1.333333 0 0)"><g clip-path="url(#1)"><path id="27" transform="matrix(1 0 0 -1 0 841)" d="M85.039 766.564L510.236 766.564" stroke="#000000" stroke-width="0.498" fill="none" /><path id="28" transform="matrix(1 0 0 -1 0 841)" d="M85.039 756.651L563.688 756.651" stroke="#000000" stroke-width="0.398" fill="none" /><path id="29" transform="matrix(1 0 0 -1 0 841)" d="M85.239 742.903L85.239 756.452" stroke="#000000" stroke-width="0.398" fill="none" /><path id="82" transform="matrix(1 0 0 -1 0 841)" d="M563.489 742.903L563.489 756.452" stroke="#000000" stroke-width="0.398" fill="none" /><path id="83" transform="matrix(1 0 0 -1 0 841)" d="M85.039 742.703L563.688 742.703" stroke="#000000" stroke-width="0.398" fill="none" /><path id="84" transform="matrix(1 0 0 -1 0 841)" d="M85.239 728.955L85.239 742.504" stroke="#000000" stroke-width="0.398" fill="none" /><path id="130" transform="matrix(1 0 0 -1 0 841)" d="M563.489 728.955L563.489 742.504" stroke="#000000" stroke-width="0.398" fill="none" /><path id="131" transform="matrix(1 0 0 -1 0 841)" d="M85.039 728.756L563.688 728.756" stroke="#000000" stroke-width="0.398" fill="none" /><path id="132" transform="matrix(1 0 0 -1 0 841)" d="M85.239 715.007L85.239 728.556" stroke="#000000" stroke-width="0.398" fill="none" /><path id="135" transform="matrix(1 0 0 -1 0 841)" d="M125.939 715.007L125.939 728.556" stroke="#000000" stroke-width="0.398" fill="none" /><path id="166" transform="matrix(1 0 0 -1 0 841)" d="M563.489 715.007L563.489 728.556" stroke="#000000" stroke-width="0.398" fill="none" /><path id="167" transform="matrix(1 0 0 -1 0 841)" d="M85.039 714.808L563.688 714.808" stroke="#000000" stroke-width="0.398" fill="none" /><path id="168" transform="matrix(1 0 0 -1 0 841)" d="M85.239 701.06L85.239 714.609" stroke="#000000" stroke-width="0.398" fill="none" /><path id="171" transform="matrix(1 0 0 -1 0 841)" d="M125.939 701.06L125.939 714.609" stroke="#000000" stroke-width="0.398" fill="none" /><path id="223" transform="matrix(1 0 0 -1 0 841)" d="M563.489 701.06L563.489 714.609" stroke="#000000" stroke-width="0.398" fill="none" /><path id="224" transform="matrix(1 0 0 -1 0 841)" d="M85.039 700.86L563.688 700.86" stroke="#000000" stroke-width="0.398" fill="none" /><path id="225" transform="matrix(1 0 0 -1 0 841)" d="M85.239 687.112L85.239 700.661" stroke="#000000" stroke-width="0.398" fill="none" /><path id="228" transform="matrix(1 0 0 -1 0 841)" d="M125.939 687.112L125.939 700.661" stroke="#000000" stroke-width="0.398" fill="none" /><path id="276" transform="matrix(1 0 0 -1 0 841)" d="M563.489 687.112L563.489 700.661" stroke="#000000" stroke-width="0.398" fill="none" /><path id="277" transform="matrix(1 0 0 -1 0 841)" d="M85.039 686.913L563.688 686.913" stroke="#000000" stroke-width="0.398" fill="none" /><path id="278" transform="matrix(1 0 0 -1 0 841)" d="M85.239 673.164L85.239 686.713" stroke="#000000" stroke-width="0.398" fill="none" /><path id="281" transform="matrix(1 0 0 -1 0 841)" d="M125.939 673.164L125.939 686.713" stroke="#000000" stroke-width="0.398" fill="none" /><path id="318" transform="matrix(1 0 0 -1 0 841)" d="M563.489 673.164L563.489 686.713" stroke="#000000" stroke-width="0.398" fill="none" /><path id="319" transform="matrix(1 0 0 -1 0 841)" d="M85.039 672.965L563.688 672.965" stroke="#000000" stroke-width="0.398" fill="none" /><path id="320" transform="matrix(1 0 0 -1 0 841)" d="M85.239 659.217L85.239 672.766" stroke="#000000" stroke-width="0.398" fill="none" /><path id="323" transform="matrix(1 0 0 -1 0 841)" d="M125.939 659.217L125.939 672.766" stroke="#000000" stroke-width="0.398" fill="none" /><path id="389" transform="matrix(1 0 0 -1 0 841)" d="M563.489 659.217L563.489 672.766" stroke="#000000" stroke-width="0.398" fill="none" /><path id="390" transform="matrix(1 0 0 -1 0 841)" d="M85.039 659.017L563.688 659.017" stroke="#000000" stroke-width="0.398" fill="none" /><path id="391" transform="matrix(1 0 0 -1 0 841)" d="M85.239 645.269L85.239 658.818" stroke="#000000" stroke-width="0.398" fill="none" /><path id="394" transform="matrix(1 0 0 -1 0 841)" d="M125.939 645.269L125.939 658.818" stroke="#000000" stroke-width="0.398" fill="none" /><path id="453" transform="matrix(1 0 0 -1 0 841)" d="M563.489 645.269L563.489 658.818" stroke="#000000" stroke-width="0.398" fill="none" /><path id="454" transform="matrix(1 0 0 -1 0 841)" d="M85.039 645.07L563.688 645.07" stroke="#000000" stroke-width="0.398" fill="none" /><path id="455" transform="matrix(1 0 0 -1 0 841)" d="M85.239 631.321L85.239 644.87" stroke="#000000" stroke-width="0.398" fill="none" /><path id="458" transform="matrix(1 0 0 -1 0 841)" d="M125.939 631.321L125.939 644.87" stroke="#000000" stroke-width="0.398" fill="none" /><path id="494" transform="matrix(1 0 0 -1 0 841)" d="M563.489 631.321L563.489 644.87" stroke="#000000" stroke-width="0.398" fill="none" /><path id="495" transform="matrix(1 0 0 -1 0 841)" d="M85.039 631.122L563.688 631.122" stroke="#000000" stroke-width="0.398" fill="none" /><path id="496" transform="matrix(1 0 0 -1 0 841)" d="M85.239 617.374L85.239 630.923" stroke="#000000" stroke-width="0.398" fill="none" /><path id="499" transform="matrix(1 0 0 -1 0 841)" d="M125.939 617.374L125.939 630.923" stroke="#000000" stroke-width="0.398" fill="none" /><path id="542" transform="matrix(1 0 0 -1 0 841)" d="M563.489 617.374L563.489 630.923" stroke="#000000" stroke-width="0.398" fill="none" /><path id="543" transform="matrix(1 0 0 -1 0 841)" d="M85.039 617.174L563.688 617.174" stroke="#000000" stroke-width="0.398" fill="none" /><path id="544" transform="matrix(1 0 0 -1 0 841)" d="M85.239 603.426L85.239 616.975" stroke="#000000" stroke-width="0.398" fill="none" /><path id="547" transform="matrix(1 0 0 -1 0 841)" d="M125.939 603.426L125.939 616.975" stroke="#000000" stroke-width="0.398" fill="none" /><path id="599" transform="matrix(1 0 0 -1 0 841)" d="M563.489 603.426L563.489 616.975" stroke="#000000" stroke-width="0.398" fill="none" /><path id="600" transform="matrix(1 0 0 -1 0 841)" d="M85.039 603.227L563.688 603.227" stroke="#000000" stroke-width="0.398" fill="none" /><path id="601" transform="matrix(1 0 0 -1 0 841)" d="M85.239 589.478L85.239 603.027" stroke="#000000" stroke-width="0.398" fill="none" /><path id="604" transform="matrix(1 0 0 -1 0 841)" d="M125.939 589.478L125.939 603.027" stroke="#000000" stroke-width="0.398" fill="none" /><path id="659" transform="matrix(1 0 0 -1 0 841)" d="M563.489 589.478L563.489 603.027" stroke="#000000" stroke-width="0.398" fill="none" /><path id="660" transform="matrix(1 0 0 -1 0 841)" d="M85.039 589.279L563.688 589.279" stroke="#000000" stroke-width="0.398" fill="none" /><path id="661" transform="matrix(1 0 0 -1 0 841)" d="M85.239 575.531L85.239 589.08" stroke="#000000" stroke-width="0.398" fill="none" /><path id="664" transform="matrix(1 0 0 -1 0 841)" d="M125.939 575.531L125.939 589.08" stroke="#000000" stroke-width="0.398" fill="none" /><path id="694" transform="matrix(1 0 0 -1 0 841)" d="M563.489 575.531L563.489 589.08" stroke="#000000" stroke-width="0.398" fill="none" /><path id="695" transform="matrix(1 0 0 -1 0 841)" d="M85.039 575.331L563.688 575.331" stroke="#000000" stroke-width="0.398" fill="none" /><path id="696" transform="matrix(1 0 0 -1 0 841)" d="M85.239 561.583L85.239 575.132" stroke="#000000" stroke-width="0.398" fill="none" /><path id="699" transform="matrix(1 0 0 -1 0 841)" d="M125.939 561.583L125.939 575.132" stroke="#000000" stroke-width="0.398" fill="none" /><path id="733" transform="matrix(1 0 0 -1 0 841)" d="M563.489 561.583L563.489 575.132" stroke="#000000" stroke-width="0.398" fill="none" /><path id="734" transform="matrix(1 0 0 -1 0 841)" d="M85.039 561.384L563.688 561.384" stroke="#000000" stroke-width="0.398" fill="none" /><path id="735" transform="matrix(1 0 0 -1 0 841)" d="M85.239 547.635L85.239 561.184" stroke="#000000" stroke-width="0.398" fill="none" /><path id="738" transform="matrix(1 0 0 -1 0 841)" d="M125.939 547.635L125.939 561.184" stroke="#000000" stroke-width="0.398" fill="none" /><path id="771" transform="matrix(1 0 0 -1 0 841)" d="M563.489 547.635L563.489 561.184" stroke="#000000" stroke-width="0.398" fill="none" /><path id="772" transform="matrix(1 0 0 -1 0 841)" d="M85.039 547.436L563.688 547.436" stroke="#000000" stroke-width="0.398" fill="none" /><path id="773" transform="matrix(1 0 0 -1 0 841)" d="M85.239 533.687L85.239 547.236" stroke="#000000" stroke-width="0.398" fill="none" /><path id="776" transform="matrix(1 0 0 -1 0 841)" d="M125.939 533.687L125.939 547.236" stroke="#000000" stroke-width="0.398" fill="none" /><path id="825" transform="matrix(1 0 0 -1 0 841)" d="M563.489 533.687L563.489 547.236" stroke="#000000" stroke-width="0.398" fill="none" /><path id="826" transform="matrix(1 0 0 -1 0 841)" d="M85.039 533.488L563.688 533.488" stroke="#000000" stroke-width="0.398" fill="none" /><path id="827" transform="matrix(1 0 0 -1 0 841)" d="M85.239 519.74L85.239 533.289" stroke="#000000" stroke-width="0.398" fill="none" /><path id="830" transform="matrix(1 0 0 -1 0 841)" d="M125.939 519.74L125.939 533.289" stroke="#000000" stroke-width="0.398" fill="none" /><path id="876" transform="matrix(1 0 0 -1 0 841)" d="M563.489 519.74L563.489 533.289" stroke="#000000" stroke-width="0.398" fill="none" /><path id="877" transform="matrix(1 0 0 -1 0 841)" d="M85.039 519.541L563.688 519.541" stroke="#000000" stroke-width="0.398" fill="none" /><path id="878" transform="matrix(1 0 0 -1 0 841)" d="M85.239 505.792L85.239 519.341" stroke="#000000" stroke-width="0.398" fill="none" /><path id="881" transform="matrix(1 0 0 -1 0 841)" d="M125.939 505.792L125.939 519.341" stroke="#000000" stroke-width="0.398" fill="none" /><path id="926" transform="matrix(1 0 0 -1 0 841)" d="M563.489 505.792L563.489 519.341" stroke="#000000" stroke-width="0.398" fill="none" /><path id="927" transform="matrix(1 0 0 -1 0 841)" d="M85.039 505.593L563.688 505.593" stroke="#000000" stroke-width="0.398" fill="none" /><path id="928" transform="matrix(1 0 0 -1 0 841)" d="M85.239 491.844L85.239 505.393" stroke="#000000" stroke-width="0.398" fill="none" /><path id="931" transform="matrix(1 0 0 -1 0 841)" d="M125.939 491.844L125.939 505.393" stroke="#000000" stroke-width="0.398" fill="none" /><path id="961" transform="matrix(1 0 0 -1 0 841)" d="M563.489 491.844L563.489 505.393" stroke="#000000" stroke-width="0.398" fill="none" /><path id="962" transform="matrix(1 0 0 -1 0 841)" d="M85.039 491.645L563.688 491.645" stroke="#000000" stroke-width="0.398" fill="none" /><path id="963" transform="matrix(1 0 0 -1 0 841)" d="M85.239 477.897L85.239 491.446" stroke="#000000" stroke-width="0.398" fill="none" /><path id="966" transform="matrix(1 0 0 -1 0 841)" d="M125.939 477.897L125.939 491.446" stroke="#000000" stroke-width="0.398" fill="none" /><path id="1013" transform="matrix(1 0 0 -1 0 841)" d="M563.489 477.897L563.489 491.446" stroke="#000000" stroke-width="0.398" fill="none" /><path id="1014" transform="matrix(1 0 0 -1 0 841)" d="M85.039 477.698L563.688 477.698" stroke="#000000" stroke-width="0.398" fill="none" /><path id="1015" transform="matrix(1 0 0 -1 0 841)" d="M85.239 463.949L85.239 477.498" stroke="#000000" stroke-width="0.398" fill="none" /><path id="1018" transform="matrix(1 0 0 -1 0 841)" d="M125.939 463.949L125.939 477.498" stroke="#000000" stroke-width="0.398" fill="none" /><path id="1096" transform="matrix(1 0 0 -1 0 841)" d="M563.489 463.949L563.489 477.498" stroke="#000000" stroke-width="0.398" fill="none" /><path id="1097" transform="matrix(1 0 0 -1 0 841)" d="M85.039 463.75L563.688 463.75" stroke="#000000" stroke-width="0.398" fill="none" /><path id="1098" transform="matrix(1 0 0 -1 0 841)" d="M85.239 450.001L85.239 463.55" stroke="#000000" stroke-width="0.398" fill="none" /><path id="1101" transform="matrix(1 0 0 -1 0 841)" d="M125.939 450.001L125.939 463.55" stroke="#000000" stroke-width="0.398" fill="none" /><path id="1142" transform="matrix(1 0 0 -1 0 841)" d="M563.489 450.001L563.489 463.55" stroke="#000000" stroke-width="0.398" fill="none" /><path id="1143" transform="matrix(1 0 0 -1 0 841)" d="M85.039 449.802L563.688 449.802" stroke="#000000" stroke-width="0.398" fill="none" /><path id="1144" transform="matrix(1 0 0 -1 0 841)" d="M85.239 436.054L85.239 449.603" stroke="#000000" stroke-width="0.398" fill="none" /><path id="1147" transform="matrix(1 0 0 -1 0 841)" d="M125.939 436.054L125.939 449.603" stroke="#000000" stroke-width="0.398" fill="none" /><path id="1207" transform="matrix(1 0 0 -1 0 841)" d="M563.489 436.054L563.489 449.603" stroke="#000000" stroke-width="0.398" fill="none" /><path id="1208" transform="matrix(1 0 0 -1 0 841)" d="M85.039 435.854L563.688 435.854" stroke="#000000" stroke-width="0.398" fill="none" /><path id="1209" transform="matrix(1 0 0 -1 0 841)" d="M85.239 422.106L85.239 435.655" stroke="#000000" stroke-width="0.398" fill="none" /><path id="1212" transform="matrix(1 0 0 -1 0 841)" d="M125.939 422.106L125.939 435.655" stroke="#000000" stroke-width="0.398" fill="none" /><path id="1269" transform="matrix(1 0 0 -1 0 841)" d="M563.489 422.106L563.489 435.655" stroke="#000000" stroke-width="0.398" fill="none" /><path id="1270" transform="matrix(1 0 0 -1 0 841)" d="M85.039 421.907L563.688 421.907" stroke="#000000" stroke-width="0.398" fill="none" /><path id="1271" transform="matrix(1 0 0 -1 0 841)" d="M85.239 408.158L85.239 421.707" stroke="#000000" stroke-width="0.398" fill="none" /><path id="1274" transform="matrix(1 0 0 -1 0 841)" d="M125.939 408.158L125.939 421.707" stroke="#000000" stroke-width="0.398" fill="none" /><path id="1316" transform="matrix(1 0 0 -1 0 841)" d="M563.489 408.158L563.489 421.707" stroke="#000000" stroke-width="0.398" fill="none" /><path id="1317" transform="matrix(1 0 0 -1 0 841)" d="M85.039 407.959L563.688 407.959" stroke="#000000" stroke-width="0.398" fill="none" /><path id="1318" transform="matrix(1 0 0 -1 0 841)" d="M85.239 394.211L85.239 407.76" stroke="#000000" stroke-width="0.398" fill="none" /><path id="1321" transform="matrix(1 0 0 -1 0 841)" d="M125.939 394.211L125.939 407.76" stroke="#000000" stroke-width="0.398" fill="none" /><path id="1368" transform="matrix(1 0 0 -1 0 841)" d="M563.489 394.211L563.489 407.76" stroke="#000000" stroke-width="0.398" fill="none" /><path id="1369" transform="matrix(1 0 0 -1 0 841)" d="M85.039 394.011L563.688 394.011" stroke="#000000" stroke-width="0.398" fill="none" /><path id="1370" transform="matrix(1 0 0 -1 0 841)" d="M85.239 380.263L85.239 393.812" stroke="#000000" stroke-width="0.398" fill="none" /><path id="1373" transform="matrix(1 0 0 -1 0 841)" d="M125.939 380.263L125.939 393.812" stroke="#000000" stroke-width="0.398" fill="none" /><path id="1421" transform="matrix(1 0 0 -1 0 841)" d="M563.489 380.263L563.489 393.812" stroke="#000000" stroke-width="0.398" fill="none" /><path id="1422" transform="matrix(1 0 0 -1 0 841)" d="M85.039 380.064L563.688 380.064" stroke="#000000" stroke-width="0.398" fill="none" /><path id="1423" transform="matrix(1 0 0 -1 0 841)" d="M85.239 366.315L85.239 379.864" stroke="#000000" stroke-width="0.398" fill="none" /><path id="1426" transform="matrix(1 0 0 -1 0 841)" d="M125.939 366.315L125.939 379.864" stroke="#000000" stroke-width="0.398" fill="none" /><path id="1486" transform="matrix(1 0 0 -1 0 841)" d="M563.489 366.315L563.489 379.864" stroke="#000000" stroke-width="0.398" fill="none" /><path id="1487" transform="matrix(1 0 0 -1 0 841)" d="M85.039 366.116L563.688 366.116" stroke="#000000" stroke-width="0.398" fill="none" /><path id="1488" transform="matrix(1 0 0 -1 0 841)" d="M85.239 352.368L85.239 365.917" stroke="#000000" stroke-width="0.398" fill="none" /><path id="1491" transform="matrix(1 0 0 -1 0 841)" d="M125.939 352.368L125.939 365.917" stroke="#000000" stroke-width="0.398" fill="none" /><path id="1524" transform="matrix(1 0 0 -1 0 841)" d="M563.489 352.368L563.489 365.917" stroke="#000000" stroke-width="0.398" fill="none" /><path id="1525" transform="matrix(1 0 0 -1 0 841)" d="M85.039 352.168L563.688 352.168" stroke="#000000" stroke-width="0.398" fill="none" /><path id="1526" transform="matrix(1 0 0 -1 0 841)" d="M85.239 338.42L85.239 351.969" stroke="#000000" stroke-width="0.398" fill="none" /><path id="1529" transform="matrix(1 0 0 -1 0 841)" d="M125.939 338.42L125.939 351.969" stroke="#000000" stroke-width="0.398" fill="none" /><path id="1581" transform="matrix(1 0 0 -1 0 841)" d="M563.489 338.42L563.489 351.969" stroke="#000000" stroke-width="0.398" fill="none" /><path id="1582" transform="matrix(1 0 0 -1 0 841)" d="M85.039 338.221L563.688 338.221" stroke="#000000" stroke-width="0.398" fill="none" /><path id="1583" transform="matrix(1 0 0 -1 0 841)" d="M85.239 324.472L85.239 338.021" stroke="#000000" stroke-width="0.398" fill="none" /><path id="1586" transform="matrix(1 0 0 -1 0 841)" d="M125.939 324.472L125.939 338.021" stroke="#000000" stroke-width="0.398" fill="none" /><path id="1623" transform="matrix(1 0 0 -1 0 841)" d="M563.489 324.472L563.489 338.021" stroke="#000000" stroke-width="0.398" fill="none" /><path id="1624" transform="matrix(1 0 0 -1 0 841)" d="M85.039 324.273L563.688 324.273" stroke="#000000" stroke-width="0.398" fill="none" /><path id="1625" transform="matrix(1 0 0 -1 0 841)" d="M85.239 310.525L85.239 324.074" stroke="#000000" stroke-width="0.398" fill="none" /><path id="1628" transform="matrix(1 0 0 -1 0 841)" d="M125.939 310.525L125.939 324.074" stroke="#000000" stroke-width="0.398" fill="none" /><path id="1696" transform="matrix(1 0 0 -1 0 841)" d="M563.489 310.525L563.489 324.074" stroke="#000000" stroke-width="0.398" fill="none" /><path id="1697" transform="matrix(1 0 0 -1 0 841)" d="M85.039 310.325L563.688 310.325" stroke="#000000" stroke-width="0.398" fill="none" /><path id="1698" transform="matrix(1 0 0 -1 0 841)" d="M85.239 296.577L85.239 310.126" stroke="#000000" stroke-width="0.398" fill="none" /><path id="1701" transform="matrix(1 0 0 -1 0 841)" d="M125.939 296.577L125.939 310.126" stroke="#000000" stroke-width="0.398" fill="none" /><path id="1731" transform="matrix(1 0 0 -1 0 841)" d="M563.489 296.577L563.489 310.126" stroke="#000000" stroke-width="0.398" fill="none" /><path id="1732" transform="matrix(1 0 0 -1 0 841)" d="M85.039 296.378L563.688 296.378" stroke="#000000" stroke-width="0.398" fill="none" /><path id="1733" transform="matrix(1 0 0 -1 0 841)" d="M85.239 282.629L85.239 296.178" stroke="#000000" stroke-width="0.398" fill="none" /><path id="1736" transform="matrix(1 0 0 -1 0 841)" d="M125.939 282.629L125.939 296.178" stroke="#000000" stroke-width="0.398" fill="none" /><path id="1794" transform="matrix(1 0 0 -1 0 841)" d="M563.489 282.629L563.489 296.178" stroke="#000000" stroke-width="0.398" fill="none" /><path id="1795" transform="matrix(1 0 0 -1 0 841)" d="M85.039 282.43L563.688 282.43" stroke="#000000" stroke-width="0.398" fill="none" /><path id="1796" transform="matrix(1 0 0 -1 0 841)" d="M85.239 268.682L85.239 282.231" stroke="#000000" stroke-width="0.398" fill="none" /><path id="1799" transform="matrix(1 0 0 -1 0 841)" d="M125.939 268.682L125.939 282.231" stroke="#000000" stroke-width="0.398" fill="none" /><path id="1824" transform="matrix(1 0 0 -1 0 841)" d="M563.489 268.682L563.489 282.231" stroke="#000000" stroke-width="0.398" fill="none" /><path id="1825" transform="matrix(1 0 0 -1 0 841)" d="M85.039 268.482L563.688 268.482" stroke="#000000" stroke-width="0.398" fill="none" /><path id="1826" transform="matrix(1 0 0 -1 0 841)" d="M85.239 254.734L85.239 268.283" stroke="#000000" stroke-width="0.398" fill="none" /><path id="1829" transform="matrix(1 0 0 -1 0 841)" d="M125.939 254.734L125.939 268.283" stroke="#000000" stroke-width="0.398" fill="none" /><path id="1896" transform="matrix(1 0 0 -1 0 841)" d="M563.489 254.734L563.489 268.283" stroke="#000000" stroke-width="0.398" fill="none" /><path id="1897" transform="matrix(1 0 0 -1 0 841)" d="M85.039 254.535L563.688 254.535" stroke="#000000" stroke-width="0.398" fill="none" /><path id="1898" transform="matrix(1 0 0 -1 0 841)" d="M85.239 240.786L85.239 254.335" stroke="#000000" stroke-width="0.398" fill="none" /><path id="1901" transform="matrix(1 0 0 -1 0 841)" d="M125.939 240.786L125.939 254.335" stroke="#000000" stroke-width="0.398" fill="none" /><path id="1931" transform="matrix(1 0 0 -1 0 841)" d="M563.489 240.786L563.489 254.335" stroke="#000000" stroke-width="0.398" fill="none" /><path id="1932" transform="matrix(1 0 0 -1 0 841)" d="M85.039 240.587L563.688 240.587" stroke="#000000" stroke-width="0.398" fill="none" /><path id="1933" transform="matrix(1 0 0 -1 0 841)" d="M85.239 226.839L85.239 240.388" stroke="#000000" stroke-width="0.398" fill="none" /><path id="1936" transform="matrix(1 0 0 -1 0 841)" d="M125.939 226.839L125.939 240.388" stroke="#000000" stroke-width="0.398" fill="none" /><path id="1964" transform="matrix(1 0 0 -1 0 841)" d="M563.489 226.839L563.489 240.388" stroke="#000000" stroke-width="0.398" fill="none" /><path id="1965" transform="matrix(1 0 0 -1 0 841)" d="M85.039 226.639L563.688 226.639" stroke="#000000" stroke-width="0.398" fill="none" /><path id="1966" transform="matrix(1 0 0 -1 0 841)" d="M85.239 212.891L85.239 226.44" stroke="#000000" stroke-width="0.398" fill="none" /><path id="1969" transform="matrix(1 0 0 -1 0 841)" d="M125.939 212.891L125.939 226.44" stroke="#000000" stroke-width="0.398" fill="none" /><path id="2015" transform="matrix(1 0 0 -1 0 841)" d="M563.489 212.891L563.489 226.44" stroke="#000000" stroke-width="0.398" fill="none" /><path id="2016" transform="matrix(1 0 0 -1 0 841)" d="M85.039 212.692L563.688 212.692" stroke="#000000" stroke-width="0.398" fill="none" /><path id="2017" transform="matrix(1 0 0 -1 0 841)" d="M85.239 198.943L85.239 212.492" stroke="#000000" stroke-width="0.398" fill="none" /><path id="2020" transform="matrix(1 0 0 -1 0 841)" d="M125.939 198.943L125.939 212.492" stroke="#000000" stroke-width="0.398" fill="none" /><path id="2060" transform="matrix(1 0 0 -1 0 841)" d="M563.489 198.943L563.489 212.492" stroke="#000000" stroke-width="0.398" fill="none" /><path id="2061" transform="matrix(1 0 0 -1 0 841)" d="M85.039 198.744L563.688 198.744" stroke="#000000" stroke-width="0.398" fill="none" /><path id="2062" transform="matrix(1 0 0 -1 0 841)" d="M85.239 184.995L85.239 198.544" stroke="#000000" stroke-width="0.398" fill="none" /><path id="2065" transform="matrix(1 0 0 -1 0 841)" d="M125.939 184.995L125.939 198.544" stroke="#000000" stroke-width="0.398" fill="none" /><path id="2100" transform="matrix(1 0 0 -1 0 841)" d="M563.489 184.995L563.489 198.544" stroke="#000000" stroke-width="0.398" fill="none" /><path id="2101" transform="matrix(1 0 0 -1 0 841)" d="M85.039 184.796L563.688 184.796" stroke="#000000" stroke-width="0.398" fill="none" /><path id="2102" transform="matrix(1 0 0 -1 0 841)" d="M85.239 171.048L85.239 184.597" stroke="#000000" stroke-width="0.398" fill="none" /><path id="2105" transform="matrix(1 0 0 -1 0 841)" d="M125.939 171.048L125.939 184.597" stroke="#000000" stroke-width="0.398" fill="none" /><path id="2155" transform="matrix(1 0 0 -1 0 841)" d="M563.489 171.048L563.489 184.597" stroke="#000000" stroke-width="0.398" fill="none" /><path id="2156" transform="matrix(1 0 0 -1 0 841)" d="M85.039 170.849L563.688 170.849" stroke="#000000" stroke-width="0.398" fill="none" /><path id="2157" transform="matrix(1 0 0 -1 0 841)" d="M85.239 157.1L85.239 170.649" stroke="#000000" stroke-width="0.398" fill="none" /><path id="2160" transform="matrix(1 0 0 -1 0 841)" d="M125.939 157.1L125.939 170.649" stroke="#000000" stroke-width="0.398" fill="none" /><path id="2208" transform="matrix(1 0 0 -1 0 841)" d="M563.489 157.1L563.489 170.649" stroke="#000000" stroke-width="0.398" fill="none" /><path id="2209" transform="matrix(1 0 0 -1 0 841)" d="M85.039 156.901L563.688 156.901" stroke="#000000" stroke-width="0.398" fill="none" /></g></g></svg>