<svg xmlns="http://www.w3.org/2000/svg" xmlns:xlink="http://www.w3.org/1999/xlink" id="body_327" preserveAspectRatio="xMinYMin meet" viewBox="0 0 793 1121"><defs><clipPath id="1"><path id="" clip-rule="evenodd" transform="matrix(1 0 0 1 0 0)" d="M0 841L0 -0.8900146L0 -0.8900146L595.276 -0.8900146L595.276 -0.8900146L595.276 841L595.276 841L0 841z" /></clipPath></defs><g transform="matrix(1.333333 0 0 1.333333 0 0)"><g clip-path="url(#1)"><path id="22" transform="matrix(1 0 0 -1 0 841)" d="M85.039 766.564L510.236 766.564" stroke="#000000" stroke-width="0.498" fill="none" /><path id="61" transform="matrix(1 0 0 -1 0 841)" d="M210.014 740.801L305.407 740.801L305.407 744.786L210.014 744.786z" stroke="none" fill="#000000" fill-rule="nonzero" /><path id="62" transform="matrix(1 0 0 -1 0 841)" d="M210.014 706.395L213.999 706.395L213.999 742.793L210.014 742.793z" stroke="none" fill="#000000" fill-rule="nonzero" /><path id="63" transform="matrix(1 0 0 -1 0 841)" d="M301.422 706.395L305.407 706.395L305.407 742.793L301.422 742.793z" stroke="none" fill="#000000" fill-rule="nonzero" /><path id="64" transform="matrix(1 0 0 -1 0 841)" d="M210.014 704.403L305.407 704.403L305.407 708.388L210.014 708.388z" stroke="none" fill="#000000" fill-rule="nonzero" /><path id="431" transform="matrix(1 0 0 -1 0 841)" d="M139.098 578.837L293.617 578.837" stroke="#000000" stroke-width="0.436" fill="none" /><path id="446" transform="matrix(1 0 0 -1 0 841)" d="M341.614 594.899L386.803 594.899L386.803 598.884L341.614 598.884z" stroke="none" fill="#000000" fill-rule="nonzero" /><path id="447" transform="matrix(1 0 0 -1 0 841)" d="M341.614 562.61L345.599 562.61L345.599 596.892L341.614 596.892z" stroke="none" fill="#000000" fill-rule="nonzero" /><path id="448" transform="matrix(1 0 0 -1 0 841)" d="M382.818 562.61L386.803 562.61L386.803 596.892L382.818 596.892z" stroke="none" fill="#000000" fill-rule="nonzero" /><path id="449" transform="matrix(1 0 0 -1 0 841)" d="M341.614 560.617L386.803 560.617L386.803 564.602L341.614 564.602z" stroke="none" fill="#000000" fill-rule="nonzero" /><path id="589" transform="matrix(1 0 0 -1 0 841)" d="M113.508 500.697L124.417 500.697" stroke="#000000" stroke-width="0.436" fill="none" /><path id="599" transform="matrix(1 0 0 -1 0 841)" d="M163.785 516.607L208.974 516.607L208.974 520.592L163.785 520.592z" stroke="none" fill="#000000" fill-rule="nonzero" /><path id="600" transform="matrix(1 0 0 -1 0 841)" d="M163.785 484.47L167.77 484.47L167.77 518.599L163.785 518.599z" stroke="none" fill="#000000" fill-rule="nonzero" /><path id="601" transform="matrix(1 0 0 -1 0 841)" d="M204.989 484.47L208.974 484.47L208.974 518.599L204.989 518.599z" stroke="none" fill="#000000" fill-rule="nonzero" /><path id="602" transform="matrix(1 0 0 -1 0 841)" d="M163.785 482.477L208.974 482.477L208.974 486.462L163.785 486.462z" stroke="none" fill="#000000" fill-rule="nonzero" /><path id="854" transform="matrix(1 0 0 -1 0 841)" d="M140.442 339.481L195.152 339.481" stroke="#000000" stroke-width="0.436" fill="none" /><path id="873" transform="matrix(1 0 0 -1 0 841)" d="M210.868 339.481L265.578 339.481" stroke="#000000" stroke-width="0.436" fill="none" /><path id="907" transform="matrix(1 0 0 -1 0 841)" d="M164.817 294.603L210.263 294.603" stroke="#000000" stroke-width="0.436" fill="none" /><path id="927" transform="matrix(1 0 0 -1 0 841)" d="M224.783 310.725L323.033 310.725L323.033 314.71L224.783 314.71z" stroke="none" fill="#000000" fill-rule="nonzero" /><path id="928" transform="matrix(1 0 0 -1 0 841)" d="M224.783 278.376L228.768 278.376L228.768 312.718L224.783 312.718z" stroke="none" fill="#000000" fill-rule="nonzero" /><path id="929" transform="matrix(1 0 0 -1 0 841)" d="M319.048 278.376L323.033 278.376L323.033 312.718L319.048 312.718z" stroke="none" fill="#000000" fill-rule="nonzero" /><path id="930" transform="matrix(1 0 0 -1 0 841)" d="M224.783 276.383L323.033 276.383L323.033 280.368L224.783 280.368z" stroke="none" fill="#000000" fill-rule="nonzero" /><path id="1119" transform="matrix(1 0 0 -1 0 841)" d="M140.442 179.19L195.641 179.19" stroke="#000000" stroke-width="0.436" fill="none" /><path id="1133" transform="matrix(1 0 0 -1 0 841)" d="M211.357 179.19L265.346 179.19" stroke="#000000" stroke-width="0.436" fill="none" /><path id="1167" transform="matrix(1 0 0 -1 0 841)" d="M164.817 134.312L210.263 134.312" stroke="#000000" stroke-width="0.436" fill="none" /><path id="1187" transform="matrix(1 0 0 -1 0 841)" d="M224.783 150.434L323.033 150.434L323.033 154.419L224.783 154.419z" stroke="none" fill="#000000" fill-rule="nonzero" /><path id="1188" transform="matrix(1 0 0 -1 0 841)" d="M224.783 118.085L228.768 118.085L228.768 152.427L224.783 152.427z" stroke="none" fill="#000000" fill-rule="nonzero" /><path id="1189" transform="matrix(1 0 0 -1 0 841)" d="M319.048 118.085L323.033 118.085L323.033 152.427L319.048 152.427z" stroke="none" fill="#000000" fill-rule="nonzero" /><path id="1190" transform="matrix(1 0 0 -1 0 841)" d="M224.783 116.092L323.033 116.092L323.033 120.077L224.783 120.077z" stroke="none" fill="#000000" fill-rule="nonzero" /></g></g></svg>