<svg xmlns="http://www.w3.org/2000/svg" xmlns:xlink="http://www.w3.org/1999/xlink" id="body_105" preserveAspectRatio="xMinYMin meet" viewBox="0 0 793 1121"><defs><clipPath id="1"><path id="" clip-rule="evenodd" transform="matrix(1 0 0 1 0 0)" d="M0 841L0 -0.8900146L0 -0.8900146L595.276 -0.8900146L595.276 -0.8900146L595.276 841L595.276 841L0 841z" /></clipPath></defs><g transform="matrix(1.333333 0 0 1.333333 0 0)"><g clip-path="url(#1)"><path id="37" transform="matrix(1 0 0 -1 0 841)" d="M85.039 766.564L510.236 766.564" stroke="#000000" stroke-width="0.498" fill="none" /><path id="38" transform="matrix(1 0 0 -1 0 841)" d="M85.039 756.651L506.995 756.651" stroke="#000000" stroke-width="0.398" fill="none" /><path id="39" transform="matrix(1 0 0 -1 0 841)" d="M85.239 742.903L85.239 756.452" stroke="#000000" stroke-width="0.398" fill="none" /><path id="60" transform="matrix(1 0 0 -1 0 841)" d="M352.71 742.903L352.71 756.452" stroke="#000000" stroke-width="0.398" fill="none" /><path id="83" transform="matrix(1 0 0 -1 0 841)" d="M506.796 742.903L506.796 756.452" stroke="#000000" stroke-width="0.398" fill="none" /><path id="84" transform="matrix(1 0 0 -1 0 841)" d="M85.039 742.703L506.995 742.703" stroke="#000000" stroke-width="0.398" fill="none" /><path id="85" transform="matrix(1 0 0 -1 0 841)" d="M85.239 728.955L85.239 742.504" stroke="#000000" stroke-width="0.398" fill="none" /><path id="94" transform="matrix(1 0 0 -1 0 841)" d="M352.71 728.955L352.71 742.504" stroke="#000000" stroke-width="0.398" fill="none" /><path id="96" transform="matrix(1 0 0 -1 0 841)" d="M506.796 728.955L506.796 742.504" stroke="#000000" stroke-width="0.398" fill="none" /><path id="97" transform="matrix(1 0 0 -1 0 841)" d="M85.039 728.756L506.995 728.756" stroke="#000000" stroke-width="0.398" fill="none" /><path id="98" transform="matrix(1 0 0 -1 0 841)" d="M85.239 715.007L85.239 728.556" stroke="#000000" stroke-width="0.398" fill="none" /><path id="109" transform="matrix(1 0 0 -1 0 841)" d="M352.71 715.007L352.71 728.556" stroke="#000000" stroke-width="0.398" fill="none" /><path id="113" transform="matrix(1 0 0 -1 0 841)" d="M506.796 715.007L506.796 728.556" stroke="#000000" stroke-width="0.398" fill="none" /><path id="114" transform="matrix(1 0 0 -1 0 841)" d="M85.039 714.808L506.995 714.808" stroke="#000000" stroke-width="0.398" fill="none" /><path id="115" transform="matrix(1 0 0 -1 0 841)" d="M85.239 701.06L85.239 714.609" stroke="#000000" stroke-width="0.398" fill="none" /><path id="142" transform="matrix(1 0 0 -1 0 841)" d="M352.71 701.06L352.71 714.609" stroke="#000000" stroke-width="0.398" fill="none" /><path id="146" transform="matrix(1 0 0 -1 0 841)" d="M506.796 701.06L506.796 714.609" stroke="#000000" stroke-width="0.398" fill="none" /><path id="147" transform="matrix(1 0 0 -1 0 841)" d="M85.039 700.86L506.995 700.86" stroke="#000000" stroke-width="0.398" fill="none" /><path id="148" transform="matrix(1 0 0 -1 0 841)" d="M85.239 687.112L85.239 700.661" stroke="#000000" stroke-width="0.398" fill="none" /><path id="174" transform="matrix(1 0 0 -1 0 841)" d="M352.71 687.112L352.71 700.661" stroke="#000000" stroke-width="0.398" fill="none" /><path id="178" transform="matrix(1 0 0 -1 0 841)" d="M506.796 687.112L506.796 700.661" stroke="#000000" stroke-width="0.398" fill="none" /><path id="179" transform="matrix(1 0 0 -1 0 841)" d="M85.039 686.913L506.995 686.913" stroke="#000000" stroke-width="0.398" fill="none" /><path id="180" transform="matrix(1 0 0 -1 0 841)" d="M85.239 673.164L85.239 686.713" stroke="#000000" stroke-width="0.398" fill="none" /><path id="214" transform="matrix(1 0 0 -1 0 841)" d="M352.71 673.164L352.71 686.713" stroke="#000000" stroke-width="0.398" fill="none" /><path id="222" transform="matrix(1 0 0 -1 0 841)" d="M506.796 673.164L506.796 686.713" stroke="#000000" stroke-width="0.398" fill="none" /><path id="223" transform="matrix(1 0 0 -1 0 841)" d="M85.039 672.965L506.995 672.965" stroke="#000000" stroke-width="0.398" fill="none" /><path id="224" transform="matrix(1 0 0 -1 0 841)" d="M85.239 659.217L85.239 672.766" stroke="#000000" stroke-width="0.398" fill="none" /><path id="259" transform="matrix(1 0 0 -1 0 841)" d="M352.71 659.217L352.71 672.766" stroke="#000000" stroke-width="0.398" fill="none" /><path id="266" transform="matrix(1 0 0 -1 0 841)" d="M506.796 659.217L506.796 672.766" stroke="#000000" stroke-width="0.398" fill="none" /><path id="267" transform="matrix(1 0 0 -1 0 841)" d="M85.039 659.017L506.995 659.017" stroke="#000000" stroke-width="0.398" fill="none" /><path id="268" transform="matrix(1 0 0 -1 0 841)" d="M85.239 645.269L85.239 658.818" stroke="#000000" stroke-width="0.398" fill="none" /><path id="304" transform="matrix(1 0 0 -1 0 841)" d="M352.71 645.269L352.71 658.818" stroke="#000000" stroke-width="0.398" fill="none" /><path id="310" transform="matrix(1 0 0 -1 0 841)" d="M506.796 645.269L506.796 658.818" stroke="#000000" stroke-width="0.398" fill="none" /><path id="311" transform="matrix(1 0 0 -1 0 841)" d="M85.039 645.07L506.995 645.07" stroke="#000000" stroke-width="0.398" fill="none" /><path id="312" transform="matrix(1 0 0 -1 0 841)" d="M85.239 631.321L85.239 644.87" stroke="#000000" stroke-width="0.398" fill="none" /><path id="349" transform="matrix(1 0 0 -1 0 841)" d="M352.71 631.321L352.71 644.87" stroke="#000000" stroke-width="0.398" fill="none" /><path id="355" transform="matrix(1 0 0 -1 0 841)" d="M506.796 631.321L506.796 644.87" stroke="#000000" stroke-width="0.398" fill="none" /><path id="356" transform="matrix(1 0 0 -1 0 841)" d="M85.039 631.122L506.995 631.122" stroke="#000000" stroke-width="0.398" fill="none" /><path id="357" transform="matrix(1 0 0 -1 0 841)" d="M85.239 617.374L85.239 630.923" stroke="#000000" stroke-width="0.398" fill="none" /><path id="393" transform="matrix(1 0 0 -1 0 841)" d="M352.71 617.374L352.71 630.923" stroke="#000000" stroke-width="0.398" fill="none" /><path id="400" transform="matrix(1 0 0 -1 0 841)" d="M506.796 617.374L506.796 630.923" stroke="#000000" stroke-width="0.398" fill="none" /><path id="401" transform="matrix(1 0 0 -1 0 841)" d="M85.039 617.174L506.995 617.174" stroke="#000000" stroke-width="0.398" fill="none" /><path id="402" transform="matrix(1 0 0 -1 0 841)" d="M85.239 603.426L85.239 616.975" stroke="#000000" stroke-width="0.398" fill="none" /><path id="413" transform="matrix(1 0 0 -1 0 841)" d="M352.71 603.426L352.71 616.975" stroke="#000000" stroke-width="0.398" fill="none" /><path id="422" transform="matrix(1 0 0 -1 0 841)" d="M506.796 603.426L506.796 616.975" stroke="#000000" stroke-width="0.398" fill="none" /><path id="423" transform="matrix(1 0 0 -1 0 841)" d="M85.039 603.227L506.995 603.227" stroke="#000000" stroke-width="0.398" fill="none" /><path id="424" transform="matrix(1 0 0 -1 0 841)" d="M85.239 589.478L85.239 603.027" stroke="#000000" stroke-width="0.398" fill="none" /><path id="442" transform="matrix(1 0 0 -1 0 841)" d="M352.71 589.478L352.71 603.027" stroke="#000000" stroke-width="0.398" fill="none" /><path id="451" transform="matrix(1 0 0 -1 0 841)" d="M506.796 589.478L506.796 603.027" stroke="#000000" stroke-width="0.398" fill="none" /><path id="452" transform="matrix(1 0 0 -1 0 841)" d="M85.039 589.279L506.995 589.279" stroke="#000000" stroke-width="0.398" fill="none" /><path id="453" transform="matrix(1 0 0 -1 0 841)" d="M85.239 575.531L85.239 589.08" stroke="#000000" stroke-width="0.398" fill="none" /><path id="471" transform="matrix(1 0 0 -1 0 841)" d="M352.71 575.531L352.71 589.08" stroke="#000000" stroke-width="0.398" fill="none" /><path id="479" transform="matrix(1 0 0 -1 0 841)" d="M506.796 575.531L506.796 589.08" stroke="#000000" stroke-width="0.398" fill="none" /><path id="480" transform="matrix(1 0 0 -1 0 841)" d="M85.039 575.331L506.995 575.331" stroke="#000000" stroke-width="0.398" fill="none" /><path id="481" transform="matrix(1 0 0 -1 0 841)" d="M85.239 561.583L85.239 575.132" stroke="#000000" stroke-width="0.398" fill="none" /><path id="489" transform="matrix(1 0 0 -1 0 841)" d="M352.71 561.583L352.71 575.132" stroke="#000000" stroke-width="0.398" fill="none" /><path id="498" transform="matrix(1 0 0 -1 0 841)" d="M506.796 561.583L506.796 575.132" stroke="#000000" stroke-width="0.398" fill="none" /><path id="499" transform="matrix(1 0 0 -1 0 841)" d="M85.039 561.384L506.995 561.384" stroke="#000000" stroke-width="0.398" fill="none" /><path id="500" transform="matrix(1 0 0 -1 0 841)" d="M85.239 547.635L85.239 561.184" stroke="#000000" stroke-width="0.398" fill="none" /><path id="526" transform="matrix(1 0 0 -1 0 841)" d="M352.71 547.635L352.71 561.184" stroke="#000000" stroke-width="0.398" fill="none" /><path id="532" transform="matrix(1 0 0 -1 0 841)" d="M506.796 547.635L506.796 561.184" stroke="#000000" stroke-width="0.398" fill="none" /><path id="533" transform="matrix(1 0 0 -1 0 841)" d="M85.039 547.436L506.995 547.436" stroke="#000000" stroke-width="0.398" fill="none" /><path id="534" transform="matrix(1 0 0 -1 0 841)" d="M85.239 533.687L85.239 547.236" stroke="#000000" stroke-width="0.398" fill="none" /><path id="539" transform="matrix(1 0 0 -1 0 841)" d="M352.71 533.687L352.71 547.236" stroke="#000000" stroke-width="0.398" fill="none" /><path id="546" transform="matrix(1 0 0 -1 0 841)" d="M506.796 533.687L506.796 547.236" stroke="#000000" stroke-width="0.398" fill="none" /><path id="547" transform="matrix(1 0 0 -1 0 841)" d="M85.039 533.488L506.995 533.488" stroke="#000000" stroke-width="0.398" fill="none" /><path id="548" transform="matrix(1 0 0 -1 0 841)" d="M85.239 519.74L85.239 533.289" stroke="#000000" stroke-width="0.398" fill="none" /><path id="567" transform="matrix(1 0 0 -1 0 841)" d="M352.71 519.74L352.71 533.289" stroke="#000000" stroke-width="0.398" fill="none" /><path id="574" transform="matrix(1 0 0 -1 0 841)" d="M506.796 519.74L506.796 533.289" stroke="#000000" stroke-width="0.398" fill="none" /><path id="575" transform="matrix(1 0 0 -1 0 841)" d="M85.039 519.541L506.995 519.541" stroke="#000000" stroke-width="0.398" fill="none" /><path id="576" transform="matrix(1 0 0 -1 0 841)" d="M85.239 505.792L85.239 519.341" stroke="#000000" stroke-width="0.398" fill="none" /><path id="589" transform="matrix(1 0 0 -1 0 841)" d="M352.71 505.792L352.71 519.341" stroke="#000000" stroke-width="0.398" fill="none" /><path id="597" transform="matrix(1 0 0 -1 0 841)" d="M506.796 505.792L506.796 519.341" stroke="#000000" stroke-width="0.398" fill="none" /><path id="598" transform="matrix(1 0 0 -1 0 841)" d="M85.039 505.593L506.995 505.593" stroke="#000000" stroke-width="0.398" fill="none" /><path id="599" transform="matrix(1 0 0 -1 0 841)" d="M85.239 491.844L85.239 505.393" stroke="#000000" stroke-width="0.398" fill="none" /><path id="624" transform="matrix(1 0 0 -1 0 841)" d="M352.71 491.844L352.71 505.393" stroke="#000000" stroke-width="0.398" fill="none" /><path id="630" transform="matrix(1 0 0 -1 0 841)" d="M506.796 491.844L506.796 505.393" stroke="#000000" stroke-width="0.398" fill="none" /><path id="631" transform="matrix(1 0 0 -1 0 841)" d="M85.039 491.645L506.995 491.645" stroke="#000000" stroke-width="0.398" fill="none" /><path id="632" transform="matrix(1 0 0 -1 0 841)" d="M85.239 477.897L85.239 491.446" stroke="#000000" stroke-width="0.398" fill="none" /><path id="667" transform="matrix(1 0 0 -1 0 841)" d="M352.71 477.897L352.71 491.446" stroke="#000000" stroke-width="0.398" fill="none" /><path id="673" transform="matrix(1 0 0 -1 0 841)" d="M506.796 477.897L506.796 491.446" stroke="#000000" stroke-width="0.398" fill="none" /><path id="674" transform="matrix(1 0 0 -1 0 841)" d="M85.039 477.698L506.995 477.698" stroke="#000000" stroke-width="0.398" fill="none" /><path id="675" transform="matrix(1 0 0 -1 0 841)" d="M85.239 463.949L85.239 477.498" stroke="#000000" stroke-width="0.398" fill="none" /><path id="684" transform="matrix(1 0 0 -1 0 841)" d="M352.71 463.949L352.71 477.498" stroke="#000000" stroke-width="0.398" fill="none" /><path id="690" transform="matrix(1 0 0 -1 0 841)" d="M506.796 463.949L506.796 477.498" stroke="#000000" stroke-width="0.398" fill="none" /><path id="691" transform="matrix(1 0 0 -1 0 841)" d="M85.039 463.75L506.995 463.75" stroke="#000000" stroke-width="0.398" fill="none" /><path id="692" transform="matrix(1 0 0 -1 0 841)" d="M85.239 450.001L85.239 463.55" stroke="#000000" stroke-width="0.398" fill="none" /><path id="717" transform="matrix(1 0 0 -1 0 841)" d="M352.71 450.001L352.71 463.55" stroke="#000000" stroke-width="0.398" fill="none" /><path id="723" transform="matrix(1 0 0 -1 0 841)" d="M506.796 450.001L506.796 463.55" stroke="#000000" stroke-width="0.398" fill="none" /><path id="724" transform="matrix(1 0 0 -1 0 841)" d="M85.039 449.802L506.995 449.802" stroke="#000000" stroke-width="0.398" fill="none" /><path id="725" transform="matrix(1 0 0 -1 0 841)" d="M85.239 436.054L85.239 449.603" stroke="#000000" stroke-width="0.398" fill="none" /><path id="733" transform="matrix(1 0 0 -1 0 841)" d="M352.71 436.054L352.71 449.603" stroke="#000000" stroke-width="0.398" fill="none" /><path id="750" transform="matrix(1 0 0 -1 0 841)" d="M506.796 436.054L506.796 449.603" stroke="#000000" stroke-width="0.398" fill="none" /><path id="751" transform="matrix(1 0 0 -1 0 841)" d="M85.039 435.854L506.995 435.854" stroke="#000000" stroke-width="0.398" fill="none" /><path id="752" transform="matrix(1 0 0 -1 0 841)" d="M85.239 422.106L85.239 435.655" stroke="#000000" stroke-width="0.398" fill="none" /><path id="760" transform="matrix(1 0 0 -1 0 841)" d="M352.71 422.106L352.71 435.655" stroke="#000000" stroke-width="0.398" fill="none" /><path id="775" transform="matrix(1 0 0 -1 0 841)" d="M506.796 422.106L506.796 435.655" stroke="#000000" stroke-width="0.398" fill="none" /><path id="776" transform="matrix(1 0 0 -1 0 841)" d="M85.039 421.907L506.995 421.907" stroke="#000000" stroke-width="0.398" fill="none" /><path id="777" transform="matrix(1 0 0 -1 0 841)" d="M85.239 408.158L85.239 421.707" stroke="#000000" stroke-width="0.398" fill="none" /><path id="795" transform="matrix(1 0 0 -1 0 841)" d="M352.71 408.158L352.71 421.707" stroke="#000000" stroke-width="0.398" fill="none" /><path id="808" transform="matrix(1 0 0 -1 0 841)" d="M506.796 408.158L506.796 421.707" stroke="#000000" stroke-width="0.398" fill="none" /><path id="809" transform="matrix(1 0 0 -1 0 841)" d="M85.039 407.959L506.995 407.959" stroke="#000000" stroke-width="0.398" fill="none" /><path id="810" transform="matrix(1 0 0 -1 0 841)" d="M85.239 394.211L85.239 407.76" stroke="#000000" stroke-width="0.398" fill="none" /><path id="833" transform="matrix(1 0 0 -1 0 841)" d="M352.71 394.211L352.71 407.76" stroke="#000000" stroke-width="0.398" fill="none" /><path id="842" transform="matrix(1 0 0 -1 0 841)" d="M506.796 394.211L506.796 407.76" stroke="#000000" stroke-width="0.398" fill="none" /><path id="843" transform="matrix(1 0 0 -1 0 841)" d="M85.039 394.011L506.995 394.011" stroke="#000000" stroke-width="0.398" fill="none" /><path id="844" transform="matrix(1 0 0 -1 0 841)" d="M85.239 380.263L85.239 393.812" stroke="#000000" stroke-width="0.398" fill="none" /><path id="851" transform="matrix(1 0 0 -1 0 841)" d="M352.71 380.263L352.71 393.812" stroke="#000000" stroke-width="0.398" fill="none" /><path id="857" transform="matrix(1 0 0 -1 0 841)" d="M506.796 380.263L506.796 393.812" stroke="#000000" stroke-width="0.398" fill="none" /><path id="858" transform="matrix(1 0 0 -1 0 841)" d="M85.039 380.064L506.995 380.064" stroke="#000000" stroke-width="0.398" fill="none" /><path id="859" transform="matrix(1 0 0 -1 0 841)" d="M85.239 366.315L85.239 379.864" stroke="#000000" stroke-width="0.398" fill="none" /><path id="877" transform="matrix(1 0 0 -1 0 841)" d="M352.71 366.315L352.71 379.864" stroke="#000000" stroke-width="0.398" fill="none" /><path id="884" transform="matrix(1 0 0 -1 0 841)" d="M506.796 366.315L506.796 379.864" stroke="#000000" stroke-width="0.398" fill="none" /><path id="885" transform="matrix(1 0 0 -1 0 841)" d="M85.039 366.116L506.995 366.116" stroke="#000000" stroke-width="0.398" fill="none" /><path id="886" transform="matrix(1 0 0 -1 0 841)" d="M85.239 352.368L85.239 365.917" stroke="#000000" stroke-width="0.398" fill="none" /><path id="898" transform="matrix(1 0 0 -1 0 841)" d="M352.71 352.368L352.71 365.917" stroke="#000000" stroke-width="0.398" fill="none" /><path id="904" transform="matrix(1 0 0 -1 0 841)" d="M506.796 352.368L506.796 365.917" stroke="#000000" stroke-width="0.398" fill="none" /><path id="905" transform="matrix(1 0 0 -1 0 841)" d="M85.039 352.168L506.995 352.168" stroke="#000000" stroke-width="0.398" fill="none" /><path id="906" transform="matrix(1 0 0 -1 0 841)" d="M85.239 338.42L85.239 351.969" stroke="#000000" stroke-width="0.398" fill="none" /><path id="915" transform="matrix(1 0 0 -1 0 841)" d="M352.71 338.42L352.71 351.969" stroke="#000000" stroke-width="0.398" fill="none" /><path id="921" transform="matrix(1 0 0 -1 0 841)" d="M506.796 338.42L506.796 351.969" stroke="#000000" stroke-width="0.398" fill="none" /><path id="922" transform="matrix(1 0 0 -1 0 841)" d="M85.039 338.221L506.995 338.221" stroke="#000000" stroke-width="0.398" fill="none" /><path id="923" transform="matrix(1 0 0 -1 0 841)" d="M85.239 324.472L85.239 338.021" stroke="#000000" stroke-width="0.398" fill="none" /><path id="948" transform="matrix(1 0 0 -1 0 841)" d="M352.71 324.472L352.71 338.021" stroke="#000000" stroke-width="0.398" fill="none" /><path id="956" transform="matrix(1 0 0 -1 0 841)" d="M506.796 324.472L506.796 338.021" stroke="#000000" stroke-width="0.398" fill="none" /><path id="957" transform="matrix(1 0 0 -1 0 841)" d="M85.039 324.273L506.995 324.273" stroke="#000000" stroke-width="0.398" fill="none" /><path id="958" transform="matrix(1 0 0 -1 0 841)" d="M85.239 310.525L85.239 324.074" stroke="#000000" stroke-width="0.398" fill="none" /><path id="969" transform="matrix(1 0 0 -1 0 841)" d="M352.71 310.525L352.71 324.074" stroke="#000000" stroke-width="0.398" fill="none" /><path id="979" transform="matrix(1 0 0 -1 0 841)" d="M506.796 310.525L506.796 324.074" stroke="#000000" stroke-width="0.398" fill="none" /><path id="980" transform="matrix(1 0 0 -1 0 841)" d="M85.039 310.325L506.995 310.325" stroke="#000000" stroke-width="0.398" fill="none" /><path id="981" transform="matrix(1 0 0 -1 0 841)" d="M85.239 296.577L85.239 310.126" stroke="#000000" stroke-width="0.398" fill="none" /><path id="992" transform="matrix(1 0 0 -1 0 841)" d="M352.71 296.577L352.71 310.126" stroke="#000000" stroke-width="0.398" fill="none" /><path id="1003" transform="matrix(1 0 0 -1 0 841)" d="M506.796 296.577L506.796 310.126" stroke="#000000" stroke-width="0.398" fill="none" /><path id="1004" transform="matrix(1 0 0 -1 0 841)" d="M85.039 296.378L506.995 296.378" stroke="#000000" stroke-width="0.398" fill="none" /><path id="1005" transform="matrix(1 0 0 -1 0 841)" d="M85.239 282.629L85.239 296.178" stroke="#000000" stroke-width="0.398" fill="none" /><path id="1014" transform="matrix(1 0 0 -1 0 841)" d="M352.71 282.629L352.71 296.178" stroke="#000000" stroke-width="0.398" fill="none" /><path id="1019" transform="matrix(1 0 0 -1 0 841)" d="M506.796 282.629L506.796 296.178" stroke="#000000" stroke-width="0.398" fill="none" /><path id="1020" transform="matrix(1 0 0 -1 0 841)" d="M85.039 282.43L506.995 282.43" stroke="#000000" stroke-width="0.398" fill="none" /><path id="1021" transform="matrix(1 0 0 -1 0 841)" d="M85.239 268.682L85.239 282.231" stroke="#000000" stroke-width="0.398" fill="none" /><path id="1028" transform="matrix(1 0 0 -1 0 841)" d="M352.71 268.682L352.71 282.231" stroke="#000000" stroke-width="0.398" fill="none" /><path id="1034" transform="matrix(1 0 0 -1 0 841)" d="M506.796 268.682L506.796 282.231" stroke="#000000" stroke-width="0.398" fill="none" /><path id="1035" transform="matrix(1 0 0 -1 0 841)" d="M85.039 268.482L506.995 268.482" stroke="#000000" stroke-width="0.398" fill="none" /><path id="1036" transform="matrix(1 0 0 -1 0 841)" d="M85.239 254.734L85.239 268.283" stroke="#000000" stroke-width="0.398" fill="none" /><path id="1045" transform="matrix(1 0 0 -1 0 841)" d="M352.71 254.734L352.71 268.283" stroke="#000000" stroke-width="0.398" fill="none" /><path id="1051" transform="matrix(1 0 0 -1 0 841)" d="M506.796 254.734L506.796 268.283" stroke="#000000" stroke-width="0.398" fill="none" /><path id="1052" transform="matrix(1 0 0 -1 0 841)" d="M85.039 254.535L506.995 254.535" stroke="#000000" stroke-width="0.398" fill="none" /><path id="1053" transform="matrix(1 0 0 -1 0 841)" d="M85.239 240.786L85.239 254.335" stroke="#000000" stroke-width="0.398" fill="none" /><path id="1066" transform="matrix(1 0 0 -1 0 841)" d="M352.71 240.786L352.71 254.335" stroke="#000000" stroke-width="0.398" fill="none" /><path id="1076" transform="matrix(1 0 0 -1 0 841)" d="M506.796 240.786L506.796 254.335" stroke="#000000" stroke-width="0.398" fill="none" /><path id="1077" transform="matrix(1 0 0 -1 0 841)" d="M85.039 240.587L506.995 240.587" stroke="#000000" stroke-width="0.398" fill="none" /><path id="1078" transform="matrix(1 0 0 -1 0 841)" d="M85.239 226.839L85.239 240.388" stroke="#000000" stroke-width="0.398" fill="none" /><path id="1086" transform="matrix(1 0 0 -1 0 841)" d="M352.71 226.839L352.71 240.388" stroke="#000000" stroke-width="0.398" fill="none" /><path id="1093" transform="matrix(1 0 0 -1 0 841)" d="M506.796 226.839L506.796 240.388" stroke="#000000" stroke-width="0.398" fill="none" /><path id="1094" transform="matrix(1 0 0 -1 0 841)" d="M85.039 226.639L506.995 226.639" stroke="#000000" stroke-width="0.398" fill="none" /><path id="1095" transform="matrix(1 0 0 -1 0 841)" d="M85.239 212.891L85.239 226.44" stroke="#000000" stroke-width="0.398" fill="none" /><path id="1148" transform="matrix(1 0 0 -1 0 841)" d="M352.71 212.891L352.71 226.44" stroke="#000000" stroke-width="0.398" fill="none" /><path id="1170" transform="matrix(1 0 0 -1 0 841)" d="M506.796 212.891L506.796 226.44" stroke="#000000" stroke-width="0.398" fill="none" /><path id="1171" transform="matrix(1 0 0 -1 0 841)" d="M85.039 212.692L506.995 212.692" stroke="#000000" stroke-width="0.398" fill="none" /><path id="1172" transform="matrix(1 0 0 -1 0 841)" d="M85.239 198.943L85.239 212.492" stroke="#000000" stroke-width="0.398" fill="none" /><path id="1198" transform="matrix(1 0 0 -1 0 841)" d="M352.71 198.943L352.71 212.492" stroke="#000000" stroke-width="0.398" fill="none" /><path id="1205" transform="matrix(1 0 0 -1 0 841)" d="M506.796 198.943L506.796 212.492" stroke="#000000" stroke-width="0.398" fill="none" /><path id="1206" transform="matrix(1 0 0 -1 0 841)" d="M85.039 198.744L506.995 198.744" stroke="#000000" stroke-width="0.398" fill="none" /><path id="1207" transform="matrix(1 0 0 -1 0 841)" d="M85.239 184.995L85.239 198.544" stroke="#000000" stroke-width="0.398" fill="none" /><path id="1227" transform="matrix(1 0 0 -1 0 841)" d="M352.71 184.995L352.71 198.544" stroke="#000000" stroke-width="0.398" fill="none" /><path id="1235" transform="matrix(1 0 0 -1 0 841)" d="M506.796 184.995L506.796 198.544" stroke="#000000" stroke-width="0.398" fill="none" /><path id="1236" transform="matrix(1 0 0 -1 0 841)" d="M85.039 184.796L506.995 184.796" stroke="#000000" stroke-width="0.398" fill="none" /><path id="1237" transform="matrix(1 0 0 -1 0 841)" d="M85.239 171.048L85.239 184.597" stroke="#000000" stroke-width="0.398" fill="none" /><path id="1246" transform="matrix(1 0 0 -1 0 841)" d="M352.71 171.048L352.71 184.597" stroke="#000000" stroke-width="0.398" fill="none" /><path id="1253" transform="matrix(1 0 0 -1 0 841)" d="M506.796 171.048L506.796 184.597" stroke="#000000" stroke-width="0.398" fill="none" /><path id="1254" transform="matrix(1 0 0 -1 0 841)" d="M85.039 170.849L506.995 170.849" stroke="#000000" stroke-width="0.398" fill="none" /><path id="1255" transform="matrix(1 0 0 -1 0 841)" d="M85.239 157.1L85.239 170.649" stroke="#000000" stroke-width="0.398" fill="none" /><path id="1267" transform="matrix(1 0 0 -1 0 841)" d="M352.71 157.1L352.71 170.649" stroke="#000000" stroke-width="0.398" fill="none" /><path id="1273" transform="matrix(1 0 0 -1 0 841)" d="M506.796 157.1L506.796 170.649" stroke="#000000" stroke-width="0.398" fill="none" /><path id="1274" transform="matrix(1 0 0 -1 0 841)" d="M85.039 156.901L506.995 156.901" stroke="#000000" stroke-width="0.398" fill="none" /><path id="1275" transform="matrix(1 0 0 -1 0 841)" d="M85.239 143.152L85.239 156.701" stroke="#000000" stroke-width="0.398" fill="none" /><path id="1283" transform="matrix(1 0 0 -1 0 841)" d="M352.71 143.152L352.71 156.701" stroke="#000000" stroke-width="0.398" fill="none" /><path id="1288" transform="matrix(1 0 0 -1 0 841)" d="M506.796 143.152L506.796 156.701" stroke="#000000" stroke-width="0.398" fill="none" /><path id="1289" transform="matrix(1 0 0 -1 0 841)" d="M85.039 142.953L506.995 142.953" stroke="#000000" stroke-width="0.398" fill="none" /><path id="1290" transform="matrix(1 0 0 -1 0 841)" d="M85.239 129.205L85.239 142.754" stroke="#000000" stroke-width="0.398" fill="none" /><path id="1300" transform="matrix(1 0 0 -1 0 841)" d="M352.71 129.205L352.71 142.754" stroke="#000000" stroke-width="0.398" fill="none" /><path id="1308" transform="matrix(1 0 0 -1 0 841)" d="M506.796 129.205L506.796 142.754" stroke="#000000" stroke-width="0.398" fill="none" /><path id="1309" transform="matrix(1 0 0 -1 0 841)" d="M85.039 129.006L506.995 129.006" stroke="#000000" stroke-width="0.398" fill="none" /><path id="1310" transform="matrix(1 0 0 -1 0 841)" d="M85.239 115.257L85.239 128.806" stroke="#000000" stroke-width="0.398" fill="none" /><path id="1333" transform="matrix(1 0 0 -1 0 841)" d="M352.71 115.257L352.71 128.806" stroke="#000000" stroke-width="0.398" fill="none" /><path id="1339" transform="matrix(1 0 0 -1 0 841)" d="M506.796 115.257L506.796 128.806" stroke="#000000" stroke-width="0.398" fill="none" /><path id="1340" transform="matrix(1 0 0 -1 0 841)" d="M85.039 115.058L506.995 115.058" stroke="#000000" stroke-width="0.398" fill="none" /><path id="1341" transform="matrix(1 0 0 -1 0 841)" d="M85.239 101.309L85.239 114.858" stroke="#000000" stroke-width="0.398" fill="none" /><path id="1363" transform="matrix(1 0 0 -1 0 841)" d="M352.71 101.309L352.71 114.858" stroke="#000000" stroke-width="0.398" fill="none" /><path id="1365" transform="matrix(1 0 0 -1 0 841)" d="M506.796 101.309L506.796 114.858" stroke="#000000" stroke-width="0.398" fill="none" /><path id="1366" transform="matrix(1 0 0 -1 0 841)" d="M85.039 101.11L506.995 101.11" stroke="#000000" stroke-width="0.398" fill="none" /></g></g></svg>