<svg xmlns="http://www.w3.org/2000/svg" xmlns:xlink="http://www.w3.org/1999/xlink" id="body_320" preserveAspectRatio="xMinYMin meet" viewBox="0 0 793 1121"><defs><clipPath id="1"><path id="" clip-rule="evenodd" transform="matrix(1 0 0 1 0 0)" d="M0 841L0 -0.8900146L0 -0.8900146L595.276 -0.8900146L595.276 -0.8900146L595.276 841L595.276 841L0 841z" /></clipPath></defs><g transform="matrix(1.333333 0 0 1.333333 0 0)"><g clip-path="url(#1)"><path id="23" transform="matrix(1 0 0 -1 0 841)" d="M85.039 766.564L510.236 766.564" stroke="#000000" stroke-width="0.498" fill="none" /><path id="149" transform="matrix(1 0 0 -1 0 841)" d="M115.006 688.816L480.269 688.816" stroke="#000000" stroke-width="0.398" fill="none" /><path id="150" transform="matrix(1 0 0 -1 0 841)" d="M115.205 675.068L115.205 688.617" stroke="#000000" stroke-width="0.398" fill="none" /><path id="158" transform="matrix(1 0 0 -1 0 841)" d="M240.945 675.068L240.945 688.617" stroke="#000000" stroke-width="0.398" fill="none" /><path id="164" transform="matrix(1 0 0 -1 0 841)" d="M480.07 675.068L480.07 688.617" stroke="#000000" stroke-width="0.398" fill="none" /><path id="165" transform="matrix(1 0 0 -1 0 841)" d="M115.006 674.869L480.269 674.869" stroke="#000000" stroke-width="0.398" fill="none" /><path id="166" transform="matrix(1 0 0 -1 0 841)" d="M115.205 661.12L115.205 674.669" stroke="#000000" stroke-width="0.398" fill="none" /><path id="173" transform="matrix(1 0 0 -1 0 841)" d="M240.945 661.12L240.945 674.669" stroke="#000000" stroke-width="0.398" fill="none" /><path id="189" transform="matrix(1 0 0 -1 0 841)" d="M480.07 661.12L480.07 674.669" stroke="#000000" stroke-width="0.398" fill="none" /><path id="190" transform="matrix(1 0 0 -1 0 841)" d="M115.006 660.921L480.269 660.921" stroke="#000000" stroke-width="0.398" fill="none" /><path id="191" transform="matrix(1 0 0 -1 0 841)" d="M115.205 647.172L115.205 660.721" stroke="#000000" stroke-width="0.398" fill="none" /><path id="196" transform="matrix(1 0 0 -1 0 841)" d="M240.945 647.172L240.945 660.721" stroke="#000000" stroke-width="0.398" fill="none" /><path id="206" transform="matrix(1 0 0 -1 0 841)" d="M480.07 647.172L480.07 660.721" stroke="#000000" stroke-width="0.398" fill="none" /><path id="207" transform="matrix(1 0 0 -1 0 841)" d="M115.006 646.973L480.269 646.973" stroke="#000000" stroke-width="0.398" fill="none" /><path id="208" transform="matrix(1 0 0 -1 0 841)" d="M115.205 633.225L115.205 646.774" stroke="#000000" stroke-width="0.398" fill="none" /><path id="215" transform="matrix(1 0 0 -1 0 841)" d="M240.945 633.225L240.945 646.774" stroke="#000000" stroke-width="0.398" fill="none" /><path id="237" transform="matrix(1 0 0 -1 0 841)" d="M480.07 633.225L480.07 646.774" stroke="#000000" stroke-width="0.398" fill="none" /><path id="238" transform="matrix(1 0 0 -1 0 841)" d="M115.006 633.026L480.269 633.026" stroke="#000000" stroke-width="0.398" fill="none" /><path id="239" transform="matrix(1 0 0 -1 0 841)" d="M115.205 619.277L115.205 632.826" stroke="#000000" stroke-width="0.398" fill="none" /><path id="247" transform="matrix(1 0 0 -1 0 841)" d="M240.945 619.277L240.945 632.826" stroke="#000000" stroke-width="0.398" fill="none" /><path id="282" transform="matrix(1 0 0 -1 0 841)" d="M480.07 619.277L480.07 632.826" stroke="#000000" stroke-width="0.398" fill="none" /><path id="283" transform="matrix(1 0 0 -1 0 841)" d="M115.006 619.078L480.269 619.078" stroke="#000000" stroke-width="0.398" fill="none" /><path id="284" transform="matrix(1 0 0 -1 0 841)" d="M115.205 605.329L115.205 618.878" stroke="#000000" stroke-width="0.398" fill="none" /><path id="289" transform="matrix(1 0 0 -1 0 841)" d="M240.945 605.329L240.945 618.878" stroke="#000000" stroke-width="0.398" fill="none" /><path id="314" transform="matrix(1 0 0 -1 0 841)" d="M480.07 605.329L480.07 618.878" stroke="#000000" stroke-width="0.398" fill="none" /><path id="315" transform="matrix(1 0 0 -1 0 841)" d="M115.006 605.13L480.269 605.13" stroke="#000000" stroke-width="0.398" fill="none" /><path id="488" transform="matrix(1 0 0 -1 0 841)" d="M112.312 525.786L444.595 525.786" stroke="#000000" stroke-width="0.398" fill="none" /><path id="489" transform="matrix(1 0 0 -1 0 841)" d="M112.511 508.651L112.511 525.587" stroke="#000000" stroke-width="0.398" fill="none" /><path id="511" transform="matrix(1 0 0 -1 0 841)" d="M329.641 508.651L329.641 525.587" stroke="#000000" stroke-width="0.398" fill="none" /><path id="518" transform="matrix(1 0 0 -1 0 841)" d="M444.396 508.651L444.396 525.587" stroke="#000000" stroke-width="0.398" fill="none" /><path id="519" transform="matrix(1 0 0 -1 0 841)" d="M112.312 508.451L444.595 508.451" stroke="#000000" stroke-width="0.398" fill="none" /><path id="520" transform="matrix(1 0 0 -1 0 841)" d="M112.511 491.316L112.511 508.252" stroke="#000000" stroke-width="0.398" fill="none" /><path id="539" transform="matrix(1 0 0 -1 0 841)" d="M329.641 491.316L329.641 508.252" stroke="#000000" stroke-width="0.398" fill="none" /><path id="559" transform="matrix(1 0 0 -1 0 841)" d="M444.396 491.316L444.396 508.252" stroke="#000000" stroke-width="0.398" fill="none" /><path id="560" transform="matrix(1 0 0 -1 0 841)" d="M112.312 491.116L444.595 491.116" stroke="#000000" stroke-width="0.398" fill="none" /><path id="561" transform="matrix(1 0 0 -1 0 841)" d="M112.511 473.981L112.511 490.917" stroke="#000000" stroke-width="0.398" fill="none" /><path id="574" transform="matrix(1 0 0 -1 0 841)" d="M329.641 473.981L329.641 490.917" stroke="#000000" stroke-width="0.398" fill="none" /><path id="587" transform="matrix(1 0 0 -1 0 841)" d="M444.396 473.981L444.396 490.917" stroke="#000000" stroke-width="0.398" fill="none" /><path id="588" transform="matrix(1 0 0 -1 0 841)" d="M112.511 457.044L112.511 473.98" stroke="#000000" stroke-width="0.398" fill="none" /><path id="601" transform="matrix(1 0 0 -1 0 841)" d="M329.641 457.044L329.641 473.98" stroke="#000000" stroke-width="0.398" fill="none" /><path id="616" transform="matrix(1 0 0 -1 0 841)" d="M444.396 457.044L444.396 473.98" stroke="#000000" stroke-width="0.398" fill="none" /><path id="617" transform="matrix(1 0 0 -1 0 841)" d="M112.511 440.108L112.511 457.044" stroke="#000000" stroke-width="0.398" fill="none" /><path id="652" transform="matrix(1 0 0 -1 0 841)" d="M329.641 440.108L329.641 457.044" stroke="#000000" stroke-width="0.398" fill="none" /><path id="669" transform="matrix(1 0 0 -1 0 841)" d="M444.396 440.108L444.396 457.044" stroke="#000000" stroke-width="0.398" fill="none" /><path id="670" transform="matrix(1 0 0 -1 0 841)" d="M112.511 423.171L112.511 440.107" stroke="#000000" stroke-width="0.398" fill="none" /><path id="685" transform="matrix(1 0 0 -1 0 841)" d="M329.641 423.171L329.641 440.107" stroke="#000000" stroke-width="0.398" fill="none" /><path id="699" transform="matrix(1 0 0 -1 0 841)" d="M444.396 423.171L444.396 440.107" stroke="#000000" stroke-width="0.398" fill="none" /><path id="700" transform="matrix(1 0 0 -1 0 841)" d="M112.511 406.235L112.511 423.171" stroke="#000000" stroke-width="0.398" fill="none" /><path id="712" transform="matrix(1 0 0 -1 0 841)" d="M329.641 406.235L329.641 423.171" stroke="#000000" stroke-width="0.398" fill="none" /><path id="729" transform="matrix(1 0 0 -1 0 841)" d="M444.396 406.235L444.396 423.171" stroke="#000000" stroke-width="0.398" fill="none" /><path id="730" transform="matrix(1 0 0 -1 0 841)" d="M112.511 389.298L112.511 406.234" stroke="#000000" stroke-width="0.398" fill="none" /><path id="731" transform="matrix(1 0 0 -1 0 841)" d="M329.641 389.298L329.641 406.234" stroke="#000000" stroke-width="0.398" fill="none" /><path id="744" transform="matrix(1 0 0 -1 0 841)" d="M444.396 389.298L444.396 406.234" stroke="#000000" stroke-width="0.398" fill="none" /><path id="745" transform="matrix(1 0 0 -1 0 841)" d="M112.312 389.099L444.595 389.099" stroke="#000000" stroke-width="0.398" fill="none" /><path id="746" transform="matrix(1 0 0 -1 0 841)" d="M112.511 371.963L112.511 388.899" stroke="#000000" stroke-width="0.398" fill="none" /><path id="753" transform="matrix(1 0 0 -1 0 841)" d="M329.641 371.963L329.641 388.899" stroke="#000000" stroke-width="0.398" fill="none" /><path id="762" transform="matrix(1 0 0 -1 0 841)" d="M444.396 371.963L444.396 388.899" stroke="#000000" stroke-width="0.398" fill="none" /><path id="763" transform="matrix(1 0 0 -1 0 841)" d="M112.312 371.764L444.595 371.764" stroke="#000000" stroke-width="0.398" fill="none" /><path id="764" transform="matrix(1 0 0 -1 0 841)" d="M112.511 354.628L112.511 371.564" stroke="#000000" stroke-width="0.398" fill="none" /><path id="780" transform="matrix(1 0 0 -1 0 841)" d="M329.641 354.628L329.641 371.564" stroke="#000000" stroke-width="0.398" fill="none" /><path id="799" transform="matrix(1 0 0 -1 0 841)" d="M444.396 354.628L444.396 371.564" stroke="#000000" stroke-width="0.398" fill="none" /><path id="800" transform="matrix(1 0 0 -1 0 841)" d="M112.511 337.692L112.511 354.628" stroke="#000000" stroke-width="0.398" fill="none" /><path id="812" transform="matrix(1 0 0 -1 0 841)" d="M329.641 337.692L329.641 354.628" stroke="#000000" stroke-width="0.398" fill="none" /><path id="830" transform="matrix(1 0 0 -1 0 841)" d="M444.396 337.692L444.396 354.628" stroke="#000000" stroke-width="0.398" fill="none" /><path id="831" transform="matrix(1 0 0 -1 0 841)" d="M112.511 320.755L112.511 337.691" stroke="#000000" stroke-width="0.398" fill="none" /><path id="841" transform="matrix(1 0 0 -1 0 841)" d="M329.641 320.755L329.641 337.691" stroke="#000000" stroke-width="0.398" fill="none" /><path id="842" transform="matrix(1 0 0 -1 0 841)" d="M444.396 320.755L444.396 337.691" stroke="#000000" stroke-width="0.398" fill="none" /><path id="843" transform="matrix(1 0 0 -1 0 841)" d="M112.511 303.819L112.511 320.755" stroke="#000000" stroke-width="0.398" fill="none" /><path id="855" transform="matrix(1 0 0 -1 0 841)" d="M329.641 303.819L329.641 320.755" stroke="#000000" stroke-width="0.398" fill="none" /><path id="856" transform="matrix(1 0 0 -1 0 841)" d="M444.396 303.819L444.396 320.755" stroke="#000000" stroke-width="0.398" fill="none" /><path id="857" transform="matrix(1 0 0 -1 0 841)" d="M112.312 303.62L444.595 303.62" stroke="#000000" stroke-width="0.398" fill="none" /><path id="858" transform="matrix(1 0 0 -1 0 841)" d="M112.511 286.484L112.511 303.42" stroke="#000000" stroke-width="0.398" fill="none" /><path id="863" transform="matrix(1 0 0 -1 0 841)" d="M329.641 286.484L329.641 303.42" stroke="#000000" stroke-width="0.398" fill="none" /><path id="864" transform="matrix(1 0 0 -1 0 841)" d="M444.396 286.484L444.396 303.42" stroke="#000000" stroke-width="0.398" fill="none" /><path id="865" transform="matrix(1 0 0 -1 0 841)" d="M112.312 286.285L444.595 286.285" stroke="#000000" stroke-width="0.398" fill="none" /><path id="866" transform="matrix(1 0 0 -1 0 841)" d="M112.511 269.149L112.511 286.085" stroke="#000000" stroke-width="0.398" fill="none" /><path id="878" transform="matrix(1 0 0 -1 0 841)" d="M329.641 269.149L329.641 286.085" stroke="#000000" stroke-width="0.398" fill="none" /><path id="879" transform="matrix(1 0 0 -1 0 841)" d="M444.396 269.149L444.396 286.085" stroke="#000000" stroke-width="0.398" fill="none" /><path id="880" transform="matrix(1 0 0 -1 0 841)" d="M112.511 252.212L112.511 269.148" stroke="#000000" stroke-width="0.398" fill="none" /><path id="893" transform="matrix(1 0 0 -1 0 841)" d="M329.641 252.212L329.641 269.148" stroke="#000000" stroke-width="0.398" fill="none" /><path id="894" transform="matrix(1 0 0 -1 0 841)" d="M444.396 252.212L444.396 269.148" stroke="#000000" stroke-width="0.398" fill="none" /><path id="895" transform="matrix(1 0 0 -1 0 841)" d="M112.312 252.013L444.595 252.013" stroke="#000000" stroke-width="0.398" fill="none" /><path id="1095" transform="matrix(1 0 0 -1 0 841)" d="M136.063 98.294L161.292 98.294L161.292 110.567L136.063 110.567z" stroke="none" fill="#FFF100" fill-rule="nonzero" /><path id="1100" transform="matrix(1 0 0 -1 0 841)" d="M160.571 98.294L163.287 98.294L163.287 110.567L160.571 110.567z" stroke="none" fill="#FFF100" fill-rule="nonzero" /><path id="1101" transform="matrix(1 0 0 -1 0 841)" d="M163.038 98.294L181.71 98.294L181.71 110.567L163.038 110.567z" stroke="none" fill="#FFF100" fill-rule="nonzero" /><path id="1106" transform="matrix(1 0 0 -1 0 841)" d="M181.116 98.294L183.832 98.294L183.832 110.567L181.116 110.567z" stroke="none" fill="#FFF100" fill-rule="nonzero" /><path id="1107" transform="matrix(1 0 0 -1 0 841)" d="M183.583 98.294L197.412 98.294L197.412 110.567L183.583 110.567z" stroke="none" fill="#FFF100" fill-rule="nonzero" /><path id="1111" transform="matrix(1 0 0 -1 0 841)" d="M196.91 98.294L199.626 98.294L199.626 110.567L196.91 110.567z" stroke="none" fill="#FFF100" fill-rule="nonzero" /><path id="1112" transform="matrix(1 0 0 -1 0 841)" d="M199.377 98.294L217.45 98.294L217.45 110.567L199.377 110.567z" stroke="none" fill="#FFF100" fill-rule="nonzero" /><path id="1117" transform="matrix(1 0 0 -1 0 841)" d="M216.617 98.294L220.148 98.294L220.148 110.567L216.617 110.567z" stroke="none" fill="#FFF100" fill-rule="nonzero" /><path id="1119" transform="matrix(1 0 0 -1 0 841)" d="M219.592 98.294L233.421 98.294L233.421 110.567L219.592 110.567z" stroke="none" fill="#FFF100" fill-rule="nonzero" /><path id="1123" transform="matrix(1 0 0 -1 0 841)" d="M232.919 98.294L235.635 98.294L235.635 110.567L232.919 110.567z" stroke="none" fill="#FFF100" fill-rule="nonzero" /><path id="1124" transform="matrix(1 0 0 -1 0 841)" d="M235.386 98.294L252.858 98.294L252.858 110.567L235.386 110.567z" stroke="none" fill="#FFF100" fill-rule="nonzero" /><path id="1129" transform="matrix(1 0 0 -1 0 841)" d="M252.287 98.294L255.003 98.294L255.003 110.567L252.287 110.567z" stroke="none" fill="#FFF100" fill-rule="nonzero" /><path id="1130" transform="matrix(1 0 0 -1 0 841)" d="M254.754 98.294L262.528 98.294L262.528 110.567L254.754 110.567z" stroke="none" fill="#FFF100" fill-rule="nonzero" /><path id="1133" transform="matrix(1 0 0 -1 0 841)" d="M262.141 98.294L264.857 98.294L264.857 110.567L262.141 110.567z" stroke="none" fill="#FFF100" fill-rule="nonzero" /><path id="1134" transform="matrix(1 0 0 -1 0 841)" d="M264.608 98.294L277.826 98.294L277.826 110.567L264.608 110.567z" stroke="none" fill="#FFF100" fill-rule="nonzero" /><path id="1138" transform="matrix(1 0 0 -1 0 841)" d="M277.335 98.294L280.051 98.294L280.051 110.567L277.335 110.567z" stroke="none" fill="#FFF100" fill-rule="nonzero" /><path id="1139" transform="matrix(1 0 0 -1 0 841)" d="M279.802 98.294L293.631 98.294L293.631 110.567L279.802 110.567z" stroke="none" fill="#FFF100" fill-rule="nonzero" /><path id="1143" transform="matrix(1 0 0 -1 0 841)" d="M293.129 98.294L295.845 98.294L295.845 110.567L293.129 110.567z" stroke="none" fill="#FFF100" fill-rule="nonzero" /><path id="1144" transform="matrix(1 0 0 -1 0 841)" d="M295.596 98.294L318.512 98.294L318.512 110.567L295.596 110.567z" stroke="none" fill="#FFF100" fill-rule="nonzero" /><path id="1149" transform="matrix(1 0 0 -1 0 841)" d="M317.837 98.294L320.553 98.294L320.553 110.567L317.837 110.567z" stroke="none" fill="#FFF100" fill-rule="nonzero" /><path id="1150" transform="matrix(1 0 0 -1 0 841)" d="M320.304 98.294L338.976 98.294L338.976 110.567L320.304 110.567z" stroke="none" fill="#FFF100" fill-rule="nonzero" /><path id="1154" transform="matrix(1 0 0 -1 0 841)" d="M338.133 98.294L356.805 98.294L356.805 110.567L338.133 110.567z" stroke="none" fill="#FFF100" fill-rule="nonzero" /><path id="1159" transform="matrix(1 0 0 -1 0 841)" d="M355.962 98.294L378.278 98.294L378.278 110.567L355.962 110.567z" stroke="none" fill="#FFF100" fill-rule="nonzero" /><path id="1164" transform="matrix(1 0 0 -1 0 841)" d="M377.614 98.294L380.33 98.294L380.33 110.567L377.614 110.567z" stroke="none" fill="#FFF100" fill-rule="nonzero" /><path id="1165" transform="matrix(1 0 0 -1 0 841)" d="M380.082 98.294L389.667 98.294L389.667 110.567L380.082 110.567z" stroke="none" fill="#FFF100" fill-rule="nonzero" /><path id="1168" transform="matrix(1 0 0 -1 0 841)" d="M389.245 98.294L391.961 98.294L391.961 110.567L389.245 110.567z" stroke="none" fill="#FFF100" fill-rule="nonzero" /><path id="1169" transform="matrix(1 0 0 -1 0 841)" d="M391.712 98.294L405.541 98.294L405.541 110.567L391.712 110.567z" stroke="none" fill="#FFF100" fill-rule="nonzero" /><path id="1173" transform="matrix(1 0 0 -1 0 841)" d="M405.039 98.294L407.755 98.294L407.755 110.567L405.039 110.567z" stroke="none" fill="#FFF100" fill-rule="nonzero" /><path id="1174" transform="matrix(1 0 0 -1 0 841)" d="M407.506 98.294L423.321 98.294L423.321 110.567L407.506 110.567z" stroke="none" fill="#FFF100" fill-rule="nonzero" /><path id="1178" transform="matrix(1 0 0 -1 0 841)" d="M422.523 98.294L450.119 98.294L450.119 110.567L422.523 110.567z" stroke="none" fill="#FFF100" fill-rule="nonzero" /><path id="1185" transform="matrix(1 0 0 -1 0 841)" d="M449.352 98.294L452.068 98.294L452.068 110.567L449.352 110.567z" stroke="none" fill="#FFF100" fill-rule="nonzero" /><path id="1186" transform="matrix(1 0 0 -1 0 841)" d="M451.819 98.294L466.248 98.294L466.248 110.567L451.819 110.567z" stroke="none" fill="#FFF100" fill-rule="nonzero" /><path id="1190" transform="matrix(1 0 0 -1 0 841)" d="M465.485 98.294L490.823 98.294L490.823 110.567L465.485 110.567z" stroke="none" fill="#FFF100" fill-rule="nonzero" /><path id="1197" transform="matrix(1 0 0 -1 0 841)" d="M490.102 98.294L492.818 98.294L492.818 110.567L490.102 110.567z" stroke="none" fill="#FFF100" fill-rule="nonzero" /><path id="1198" transform="matrix(1 0 0 -1 0 841)" d="M492.569 98.294L512.769 98.294L512.769 110.567L492.569 110.567z" stroke="none" fill="#FFF100" fill-rule="nonzero" /></g></g></svg>