<svg xmlns="http://www.w3.org/2000/svg" xmlns:xlink="http://www.w3.org/1999/xlink" id="body_265" preserveAspectRatio="xMinYMin meet" viewBox="0 0 793 1121"><defs><clipPath id="1"><path id="" clip-rule="evenodd" transform="matrix(1 0 0 1 0 0)" d="M0 841L0 -0.8900146L0 -0.8900146L595.276 -0.8900146L595.276 -0.8900146L595.276 841L595.276 841L0 841z" /></clipPath></defs><g transform="matrix(1.333333 0 0 1.333333 0 0)"><g clip-path="url(#1)"><path id="23" transform="matrix(1 0 0 -1 0 841)" d="M85.039 766.564L510.236 766.564" stroke="#000000" stroke-width="0.498" fill="none" /><g transform="matrix(0.375 0 0 0.375 112.312 84.14899)"><g transform="matrix(1 0 0 1 0 0)"><image x="0" y="0" xlink:href="img_396.png" width="474" height="243" /></g></g><g transform="matrix(0.4875 0 0 0.4875 112.312 209.594)"><g transform="matrix(1 0 0 1 0 0)"><image x="0" y="0" xlink:href="img_397.png" width="364" height="100" /></g></g><path id="41" transform="matrix(1 0 0 -1 0 841)" d="M396.8539 463.4454C 396.8539 510.4125 358.7806 548.4858 311.8135 548.4858C 264.8463 548.4858 226.773 510.4125 226.773 463.4454C 226.773 416.4783 264.8463 378.405 311.8135 378.405C 358.7806 378.405 396.8539 416.4783 396.8539 463.4454z" stroke="#000000" stroke-width="0.3985" fill="#F2F2F2" fill-rule="nonzero" /><path id="42" transform="matrix(1 0 0 -1 0 841)" d="M226.773 463.4454L396.8539 463.4454" stroke="#000000" stroke-width="1.19553" fill="none" /><path id="54" transform="matrix(1 0 0 -1 0 841)" d="M306.501 500.6769L317.121 500.6769" stroke="#000000" stroke-width="0.319" fill="none" /><path id="75" transform="matrix(1 0 0 -1 0 841)" d="M342.26 430.392L349.393 430.392" stroke="#000000" stroke-width="0.319" fill="none" /><path id="77" transform="matrix(1 0 0 -1 0 841)" d="M311.8135 378.972L311.8135 463.4454" stroke="#000000" stroke-width="1.19553" fill="none" /><path id="78" transform="matrix(1 0 0 -1 0 841)" d="M215.119 463.4454C 215.119 472.6647 207.6455 480.1382 198.4262 480.1382C 189.207 480.1382 181.7335 472.6647 181.7335 463.4454C 181.7335 454.2262 189.207 446.7527 198.4262 446.7527C 207.6455 446.7527 215.119 454.2262 215.119 463.4454z" stroke="#000000" stroke-width="1.39478" fill="#FFCCCC" fill-rule="nonzero" /><path id="79" transform="matrix(1 0 0 -1 0 841)" d="M215.119 463.4454C 215.119 472.6647 207.6455 480.1382 198.4262 480.1382C 189.207 480.1382 181.7335 472.6647 181.7335 463.4454C 181.7335 454.2262 189.207 446.7527 198.4262 446.7527C 207.6455 446.7527 215.119 454.2262 215.119 463.4454z" stroke="#FFFFFF" stroke-width="0.59776" fill="none" /><path id="80" transform="matrix(1 0 0 -1 0 841)" d="M181.9327 463.4454L214.9197 463.4454" stroke="#000000" stroke-width="0.3985" fill="none" /><path id="83" transform="matrix(1 0 0 -1 0 841)" d="M331.2027 355.7275C 331.2027 366.436 322.522 375.1167 311.8135 375.1167C 301.1049 375.1167 292.4243 366.436 292.4243 355.7275C 292.4243 345.019 301.1049 336.3383 311.8135 336.3383C 322.522 336.3383 331.2027 345.019 331.2027 355.7275z" stroke="#000000" stroke-width="1.39478" fill="#FFCCCC" fill-rule="nonzero" /><path id="84" transform="matrix(1 0 0 -1 0 841)" d="M331.2027 355.7275C 331.2027 366.436 322.522 375.1167 311.8135 375.1167C 301.1049 375.1167 292.4243 366.436 292.4243 355.7275C 292.4243 345.019 301.1049 336.3383 311.8135 336.3383C 322.522 336.3383 331.2027 345.019 331.2027 355.7275z" stroke="#FFFFFF" stroke-width="0.59776" fill="none" /><path id="85" transform="matrix(1 0 0 -1 0 841)" d="M292.6235 355.7275L331.0034 355.7275" stroke="#000000" stroke-width="0.3985" fill="none" /><path id="324" transform="matrix(1 0 0 -1 0 841)" d="M229.005 204.706L242.936 204.706" stroke="#000000" stroke-width="0.436" fill="none" /><path id="331" transform="matrix(1 0 0 -1 0 841)" d="M245.327 204.706L259.258 204.706" stroke="#000000" stroke-width="0.436" fill="none" /><path id="341" transform="matrix(1 0 0 -1 0 841)" d="M270.133 204.706L301.714 204.706" stroke="#000000" stroke-width="0.436" fill="none" /><path id="357" transform="matrix(1 0 0 -1 0 841)" d="M350.115 204.706L374.955 204.706" stroke="#000000" stroke-width="0.436" fill="none" /><path id="370" transform="matrix(1 0 0 -1 0 841)" d="M389.474 212.465L428.976 212.465" stroke="#000000" stroke-width="0.398" fill="none" /><path id="371" transform="matrix(1 0 0 -1 0 841)" d="M389.674 198.55L389.674 212.464" stroke="#000000" stroke-width="0.398" fill="none" /><path id="372" transform="matrix(1 0 0 -1 0 841)" d="M428.777 198.55L428.777 212.464" stroke="#000000" stroke-width="0.398" fill="none" /><path id="373" transform="matrix(1 0 0 -1 0 841)" d="M389.474 198.551L428.976 198.551" stroke="#000000" stroke-width="0.398" fill="none" /><path id="458" transform="matrix(1 0 0 -1 0 841)" d="M243.563 158.42L257.809 158.42" stroke="#000000" stroke-width="0.436" fill="none" /><path id="467" transform="matrix(1 0 0 -1 0 841)" d="M285.316 158.42L299.247 158.42" stroke="#000000" stroke-width="0.436" fill="none" /><path id="473" transform="matrix(1 0 0 -1 0 841)" d="M311.015 158.42L317.888 158.42" stroke="#000000" stroke-width="0.436" fill="none" /><path id="486" transform="matrix(1 0 0 -1 0 841)" d="M371.379 158.42L406.167 158.42" stroke="#000000" stroke-width="0.436" fill="none" /><path id="504" transform="matrix(1 0 0 -1 0 841)" d="M423.223 158.42L481.396 158.42" stroke="#000000" stroke-width="0.436" fill="none" /><path id="515" transform="matrix(1 0 0 -1 0 841)" d="M130.826 129.756L145.072 129.756" stroke="#000000" stroke-width="0.436" fill="none" /><path id="519" transform="matrix(1 0 0 -1 0 841)" d="M112.312 146.894L149.655 146.894" stroke="#000000" stroke-width="0.398" fill="none" /><path id="520" transform="matrix(1 0 0 -1 0 841)" d="M112.511 116.237L112.511 146.894" stroke="#000000" stroke-width="0.398" fill="none" /><path id="521" transform="matrix(1 0 0 -1 0 841)" d="M149.456 116.237L149.456 146.894" stroke="#000000" stroke-width="0.398" fill="none" /><path id="522" transform="matrix(1 0 0 -1 0 841)" d="M112.312 116.237L149.655 116.237" stroke="#000000" stroke-width="0.398" fill="none" /></g></g></svg>