<svg xmlns="http://www.w3.org/2000/svg" xmlns:xlink="http://www.w3.org/1999/xlink" id="body_245" preserveAspectRatio="xMinYMin meet" viewBox="0 0 1121 793"><defs><clipPath id="1"><path id="" clip-rule="evenodd" transform="matrix(1 0 0 1 0 0)" d="M0 -0.276001L841.89 -0.276001L841.89 -0.276001L841.89 595L841.89 595L3.644894E-14 595L3.644894E-14 595L0 -0.276001z" /></clipPath></defs><g transform="matrix(1.333333 0 0 1.333333 0 0)"><g clip-path="url(#1)"><path id="1" transform="matrix(1 0 0 -1 0 595)" d="M85.03899 510.038L804.236 510.038" stroke="#000000" stroke-width="0.398" fill="none" /><path id="8" transform="matrix(1 0 0 -1 0 595)" d="M85.03899 496.09L804.236 496.09" stroke="#000000" stroke-width="0.398" fill="none" /><path id="9" transform="matrix(1 0 0 -1 0 595)" d="M85.238 422.981L85.238 495.891" stroke="#000000" stroke-width="0.398" fill="none" /><g transform="matrix(0.16 -9.796849E-18 9.796851E-18 0.16 122.489 102.587)"><g transform="matrix(1 0 0 1 0 0)"><image x="0" y="0" xlink:href="img_361.png" width="396" height="412" /></g></g><path id="408" transform="matrix(1 0 0 -1 0 595)" d="M804.0369 422.981L804.0369 495.891" stroke="#000000" stroke-width="0.398" fill="none" /><path id="409" transform="matrix(1 0 0 -1 0 595)" d="M85.03896 422.7809L804.236 422.7809" stroke="#000000" stroke-width="0.398" fill="none" /><path id="447" transform="matrix(1 0 0 -1 0 595)" d="M85.03896 408.834L804.236 408.834" stroke="#000000" stroke-width="0.398" fill="none" /><path id="448" transform="matrix(1 0 0 -1 0 595)" d="M85.23797 307.3309L85.23797 408.6349" stroke="#000000" stroke-width="0.398" fill="none" /><g transform="matrix(0.06327273 -3.874209E-18 3.874209E-18 0.06327271 91.41497 212.513)"><g transform="matrix(1 0 0 1 0 0)"><image x="0" y="0" xlink:href="img_362.png" width="2263" height="774" /></g></g><path id="1099" transform="matrix(1 0 0 -1 0 595)" d="M804.0369 307.3309L804.0369 408.6349" stroke="#000000" stroke-width="0.398" fill="none" /><path id="1100" transform="matrix(1 0 0 -1 0 595)" d="M85.03893 307.1309L804.236 307.1309" stroke="#000000" stroke-width="0.398" fill="none" /><path id="1128" transform="matrix(1 0 0 -1 0 595)" d="M85.03893 293.1839L804.236 293.1839" stroke="#000000" stroke-width="0.398" fill="none" /><path id="1129" transform="matrix(1 0 0 -1 0 595)" d="M85.23794 207.7749L85.23794 292.9839" stroke="#000000" stroke-width="0.398" fill="none" /><g transform="matrix(0.08290908 -5.076549E-18 5.076549E-18 0.08290907 91.41494 305.9259)"><g transform="matrix(1 0 0 1 0 0)"><image x="0" y="0" xlink:href="img_363.png" width="1837" height="933" /></g></g><path id="1639" transform="matrix(1 0 0 -1 0 595)" d="M804.0369 207.7749L804.0369 292.9839" stroke="#000000" stroke-width="0.398" fill="none" /><path id="1640" transform="matrix(1 0 0 -1 0 595)" d="M85.0389 207.5759L804.2359 207.5759" stroke="#000000" stroke-width="0.398" fill="none" /><path id="1656" transform="matrix(1 0 0 -1 0 595)" d="M85.0389 193.6279L804.2359 193.6279" stroke="#000000" stroke-width="0.398" fill="none" /><path id="1657" transform="matrix(1 0 0 -1 0 595)" d="M85.23791 108.2199L85.23791 193.4289" stroke="#000000" stroke-width="0.398" fill="none" /><g transform="matrix(0.06545455 -4.007803E-18 4.007804E-18 0.06545455 91.41491 409.2056)"><g transform="matrix(1 0 0 1 0 0)"><image x="0" y="0" xlink:href="img_364.png" width="2196" height="1068" /></g></g><path id="2167" transform="matrix(1 0 0 -1 0 595)" d="M804.0369 108.2199L804.0369 193.4289" stroke="#000000" stroke-width="0.398" fill="none" /><path id="2168" transform="matrix(1 0 0 -1 0 595)" d="M85.03887 108.0199L804.2359 108.0199" stroke="#000000" stroke-width="0.398" fill="none" /></g></g></svg>