<svg xmlns="http://www.w3.org/2000/svg" xmlns:xlink="http://www.w3.org/1999/xlink" id="body_302" preserveAspectRatio="xMinYMin meet" viewBox="0 0 793 1121"><defs><clipPath id="1"><path id="" clip-rule="evenodd" transform="matrix(1 0 0 1 0 0)" d="M0 841L0 -0.8900146L0 -0.8900146L595.276 -0.8900146L595.276 -0.8900146L595.276 841L595.276 841L0 841z" /></clipPath></defs><g transform="matrix(1.333333 0 0 1.333333 0 0)"><g clip-path="url(#1)"><path id="23" transform="matrix(1 0 0 -1 0 841)" d="M85.039 766.564L510.236 766.564" stroke="#000000" stroke-width="0.498" fill="none" /><path id="44" transform="matrix(1 0 0 -1 0 841)" d="M86.235 729.23L152.049 729.23" stroke="#000000" stroke-width="0.436" fill="none" /><path id="57" transform="matrix(1 0 0 -1 0 841)" d="M162.924 729.23L190.197 729.23" stroke="#000000" stroke-width="0.436" fill="none" /><path id="69" transform="matrix(1 0 0 -1 0 841)" d="M201.073 729.23L227.386 729.23" stroke="#000000" stroke-width="0.436" fill="none" /><path id="86" transform="matrix(1 0 0 -1 0 841)" d="M246.488 729.23L311.234 729.23" stroke="#000000" stroke-width="0.436" fill="none" /><path id="90" transform="matrix(1 0 0 -1 0 841)" d="M241.905 744.587L315.816 744.587" stroke="#000000" stroke-width="0.398" fill="none" /><path id="91" transform="matrix(1 0 0 -1 0 841)" d="M242.105 713.606L242.105 744.587" stroke="#000000" stroke-width="0.398" fill="none" /><path id="92" transform="matrix(1 0 0 -1 0 841)" d="M315.618 713.606L315.618 744.587" stroke="#000000" stroke-width="0.398" fill="none" /><path id="93" transform="matrix(1 0 0 -1 0 841)" d="M241.905 713.606L315.816 713.606" stroke="#000000" stroke-width="0.398" fill="none" /><path id="210" transform="matrix(1 0 0 -1 0 841)" d="M86.235 654.708L152.049 654.708" stroke="#000000" stroke-width="0.436" fill="none" /><path id="227" transform="matrix(1 0 0 -1 0 841)" d="M162.924 654.708L195.651 654.708" stroke="#000000" stroke-width="0.436" fill="none" /><path id="245" transform="matrix(1 0 0 -1 0 841)" d="M228.345 654.708L244.708 654.708" stroke="#000000" stroke-width="0.436" fill="none" /><path id="265" transform="matrix(1 0 0 -1 0 841)" d="M263.812 654.708L350.223 654.708" stroke="#000000" stroke-width="0.436" fill="none" /><path id="269" transform="matrix(1 0 0 -1 0 841)" d="M259.229 670.065L354.806 670.065" stroke="#000000" stroke-width="0.398" fill="none" /><path id="270" transform="matrix(1 0 0 -1 0 841)" d="M259.428 639.084L259.428 670.065" stroke="#000000" stroke-width="0.398" fill="none" /><path id="271" transform="matrix(1 0 0 -1 0 841)" d="M354.607 639.084L354.607 670.065" stroke="#000000" stroke-width="0.398" fill="none" /><path id="272" transform="matrix(1 0 0 -1 0 841)" d="M259.229 639.084L354.806 639.084" stroke="#000000" stroke-width="0.398" fill="none" /><path id="492" transform="matrix(1 0 0 -1 0 841)" d="M198.624 513.0606L85.23676 513.0606L85.23676 513.0606L85.23676 470.5404L85.23676 470.5404L198.624 470.5404z" stroke="#000000" stroke-width="0.3985" fill="#E3F5FD" fill-rule="nonzero" /><path id="493" transform="matrix(1 0 0 -1 0 841)" d="M198.624 513.0606L220.4507 534.8873L220.4507 534.8873L220.4507 492.3671L220.4507 492.3671L198.624 470.5404z" stroke="#000000" stroke-width="0.3985" fill="#FFFFFF" fill-rule="nonzero" /><path id="494" transform="matrix(1 0 0 -1 0 841)" d="M198.624 513.0606L220.4507 534.8873L220.4507 534.8873L220.4507 492.3671L220.4507 492.3671L198.624 470.5404z" stroke="#000000" stroke-width="0.3985" fill="#E3F5FD" fill-rule="nonzero" /><path id="495" transform="matrix(1 0 0 -1 0 841)" d="M85.23676 527.234L107.0635 549.0607L107.0635 549.0607L107.0635 534.8873L107.0635 534.8873L85.23676 513.0606z" stroke="#000000" stroke-width="0.3985" fill="none" /><path id="496" transform="matrix(1 0 0 -1 0 841)" d="M198.624 513.0606L85.23676 513.0606L85.23676 513.0606L107.0635 534.8873L107.0635 534.8873L220.4507 534.8873z" stroke="#000000" stroke-width="0.3985" fill="none" /><path id="497" transform="matrix(1 0 0 -1 0 841)" d="M198.624 527.234L85.23676 527.234L85.23676 527.234L85.23676 513.0606L85.23676 513.0606L198.624 513.0606z" stroke="#000000" stroke-width="0.3985" fill="#FFFFFF" fill-rule="nonzero" /><path id="498" transform="matrix(1 0 0 -1 0 841)" d="M198.624 527.234L220.4507 549.0607L220.4507 549.0607L220.4507 534.8873L220.4507 534.8873L198.624 513.0606z" stroke="#000000" stroke-width="0.3985" fill="#FFFFFF" fill-rule="nonzero" /><path id="499" transform="matrix(1 0 0 -1 0 841)" d="M198.624 527.234L220.4507 549.0607L220.4507 549.0607L220.4507 534.8873L220.4507 534.8873L198.624 513.0606z" stroke="#000000" stroke-width="0.3985" fill="#FFFFFF" fill-rule="nonzero" /><path id="500" transform="matrix(1 0 0 -1 0 841)" d="M198.624 527.234L85.23676 527.234L85.23676 527.234L107.0635 549.0607L107.0635 549.0607L220.4507 549.0607z" stroke="#000000" stroke-width="0.3985" fill="#FFFFFF" fill-rule="nonzero" /><path id="501" transform="matrix(1 0 0 -1 0 841)" d="M85.63527 462.0363L198.2255 462.0363" stroke="#000000" stroke-width="0.3985" fill="none" /><path id="502" transform="matrix(1 0 0 -1 0 841)" d="M87.50826 459.6452C 87.12967 461.0799 86.28601 461.7573 85.43602 462.0363C 86.28601 462.3152 87.12967 462.9926 87.50826 464.4273" stroke="#000000" stroke-width="0.3985" stroke-linecap="round" fill="none" /><path id="503" transform="matrix(1 0 0 -1 0 841)" d="M196.3525 464.4273C 196.7311 462.9926 197.5747 462.3152 198.4247 462.0363C 197.5747 461.7573 196.7311 461.0799 196.3525 459.6452" stroke="#000000" stroke-width="0.3985" stroke-linecap="round" fill="none" /><path id="511" transform="matrix(1 0 0 -1 0 841)" d="M226.9708 490.7816L226.9708 532.5048" stroke="#000000" stroke-width="0.3985" fill="none" /><path id="512" transform="matrix(1 0 0 -1 0 841)" d="M229.3618 492.6546C 227.9272 492.276 227.2497 491.4323 226.9708 490.5823C 226.6918 491.4323 226.0144 492.276 224.5797 492.6546" stroke="#000000" stroke-width="0.3985" stroke-linecap="round" fill="none" /><path id="513" transform="matrix(1 0 0 -1 0 841)" d="M224.5797 530.6317C 226.0144 531.0103 226.6918 531.854 226.9708 532.704C 227.2497 531.854 227.9272 531.0103 229.3618 530.6317" stroke="#000000" stroke-width="0.3985" stroke-linecap="round" fill="none" /><path id="536" transform="matrix(1 0 0 -1 0 841)" d="M209.9625 481.7108L209.9625 495.6539" stroke="#000000" stroke-width="0.3985" fill="none" /><path id="537" transform="matrix(1 0 0 -1 0 841)" d="M212.3536 483.5838C 210.9189 483.2052 210.2415 482.3615 209.9625 481.5116C 209.6836 482.3615 209.0061 483.2052 207.5715 483.5838" stroke="#000000" stroke-width="0.3985" stroke-linecap="round" fill="none" /><path id="538" transform="matrix(1 0 0 -1 0 841)" d="M207.5715 493.7809C 209.0061 494.1594 209.6836 495.0031 209.9625 495.8531C 210.2415 495.0031 210.9189 494.1594 212.3536 493.7809" stroke="#000000" stroke-width="0.3985" stroke-linecap="round" fill="none" /><path id="558" transform="matrix(1 0 0 -1 0 841)" d="M226.9708 549.513L226.9708 533.3018" stroke="#000000" stroke-width="0.3985" fill="none" /><path id="559" transform="matrix(1 0 0 -1 0 841)" d="M224.5797 547.64C 226.0144 548.0186 226.6918 548.8622 226.9708 549.7122C 227.2497 548.8622 227.9272 548.0186 229.3618 547.64" stroke="#000000" stroke-width="0.3985" stroke-linecap="round" fill="none" /><path id="560" transform="matrix(1 0 0 -1 0 841)" d="M229.3618 535.1747C 227.9272 534.7961 227.2497 533.9525 226.9708 533.1025C 226.6918 533.9525 226.0144 534.7961 224.5797 535.1747" stroke="#000000" stroke-width="0.3985" stroke-linecap="round" fill="none" /><path id="572" transform="matrix(1 0 0 -1 0 841)" d="M226.689 490.1013L198.9058 462.3181" stroke="#000000" stroke-width="0.3985" fill="none" /><path id="573" transform="matrix(1 0 0 -1 0 841)" d="M223.6739 490.4676C 224.9561 489.7209 226.0316 489.8384 226.8299 490.2422C 226.4261 489.4439 226.3086 488.3683 227.0553 487.0862" stroke="#000000" stroke-width="0.3984962" stroke-linecap="round" fill="none" /><path id="574" transform="matrix(1 0 0 -1 0 841)" d="M201.9209 461.9517C 200.6387 462.6985 199.5631 462.5809 198.7649 462.1772C 199.1686 462.9754 199.2862 464.051 198.5394 465.3331" stroke="#000000" stroke-width="0.3984962" stroke-linecap="round" fill="none" /><path id="648" transform="matrix(1 0 0 -1 0 841)" d="M180.439 402.16L194.937 402.16" stroke="#000000" stroke-width="0.436" fill="none" /><path id="654" transform="matrix(1 0 0 -1 0 841)" d="M111.075 385.206L196.132 385.206" stroke="#000000" stroke-width="0.436" fill="none" /><path id="663" transform="matrix(1 0 0 -1 0 841)" d="M153.603 370.195L169.966 370.195" stroke="#000000" stroke-width="0.436" fill="none" /><path id="673" transform="matrix(1 0 0 -1 0 841)" d="M210.652 392.965L244.699 392.965" stroke="#000000" stroke-width="0.398" fill="none" /><path id="674" transform="matrix(1 0 0 -1 0 841)" d="M210.851 379.171L210.851 392.965" stroke="#000000" stroke-width="0.398" fill="none" /><path id="675" transform="matrix(1 0 0 -1 0 841)" d="M244.5 379.171L244.5 392.965" stroke="#000000" stroke-width="0.398" fill="none" /><path id="676" transform="matrix(1 0 0 -1 0 841)" d="M210.652 379.171L244.699 379.171" stroke="#000000" stroke-width="0.398" fill="none" /><g transform="matrix(0.08999999 0 0 0.09 162.239 511.714)"><g transform="matrix(1 0 0 1 0 0)"><image x="0" y="0" xlink:href="img_445.png" width="3009" height="713" /></g></g><path id="1049" transform="matrix(1 0 0 -1 0 841)" d="M176.205 117.743L446.343 117.743" stroke="#000000" stroke-width="0.436" fill="none" /></g></g></svg>