<svg xmlns="http://www.w3.org/2000/svg" xmlns:xlink="http://www.w3.org/1999/xlink" id="body_313" preserveAspectRatio="xMinYMin meet" viewBox="0 0 793 1121"><defs><clipPath id="1"><path id="" clip-rule="evenodd" transform="matrix(1 0 0 1 0 0)" d="M0 841L0 -0.8900146L0 -0.8900146L595.276 -0.8900146L595.276 -0.8900146L595.276 841L595.276 841L0 841z" /></clipPath><clipPath id="2"><path id="" clip-rule="evenodd" transform="matrix(1 0 0 1 0 0)" d="M0.996 3.106995L3.996 3.106995L3.996 3.106995L3.996 0.1069946L3.996 0.1069946L0.996 0.1069946z" /></clipPath></defs><g transform="matrix(1.333333 0 0 1.333333 0 0)"><g clip-path="url(#1)"><path id="1" transform="matrix(1 0 0 -1 0 841)" d="M0 0L595.276 0L595.276 841.89L0 841.89z" stroke="none" fill="#FFFFFF" fill-rule="nonzero" /><path id="62" transform="matrix(1 0 0 -1 0 841)" d="M95.67 561.045L499.606 561.045" stroke="#000000" stroke-width="0.873" fill="none" /><path id="63" transform="matrix(1 0 0 -1 0 841)" d="M95.67 537.232L141.641 537.232L141.641 557.556L95.67 557.556z" stroke="none" fill="#F9F9F9" fill-rule="nonzero" /><path id="69" transform="matrix(1 0 0 -1 0 841)" d="M141.641 537.232L499.606 537.232L499.606 557.556L141.641 557.556z" stroke="none" fill="#F9F9F9" fill-rule="nonzero" /><path id="101" transform="matrix(1 0 0 -1 0 841)" d="M95.67 535.08L499.606 535.08" stroke="#000000" stroke-width="0.545" fill="none" /><path id="102" transform="matrix(1 0 0 -1 0 841)" d="M95.67 460.621L141.641 460.621L141.641 531.754L95.67 531.754z" stroke="none" fill="#FFFFFF" fill-rule="nonzero" /><path id="105" transform="matrix(1 0 0 -1 0 841)" d="M141.641 460.621L499.606 460.621L499.606 531.754L141.641 531.754z" stroke="none" fill="#FFFFFF" fill-rule="nonzero" /><path id="336" transform="matrix(1 0 0 -1 0 841)" d="M95.67 389.488L141.641 389.488L141.641 460.621L95.67 460.621z" stroke="none" fill="#F9F9F9" fill-rule="nonzero" /><path id="339" transform="matrix(1 0 0 -1 0 841)" d="M141.641 389.488L499.606 389.488L499.606 460.621L141.641 460.621z" stroke="none" fill="#F9F9F9" fill-rule="nonzero" /><path id="550" transform="matrix(1 0 0 -1 0 841)" d="M95.67 318.355L141.641 318.355L141.641 389.488L95.67 389.488z" stroke="none" fill="#FFFFFF" fill-rule="nonzero" /><path id="553" transform="matrix(1 0 0 -1 0 841)" d="M141.641 318.355L499.606 318.355L499.606 389.488L141.641 389.488z" stroke="none" fill="#FFFFFF" fill-rule="nonzero" /><path id="768" transform="matrix(1 0 0 -1 0 841)" d="M95.67 264.158L141.641 264.158L141.641 318.355L95.67 318.355z" stroke="none" fill="#F9F9F9" fill-rule="nonzero" /><path id="771" transform="matrix(1 0 0 -1 0 841)" d="M141.641 264.158L499.606 264.158L499.606 318.355L141.641 318.355z" stroke="none" fill="#F9F9F9" fill-rule="nonzero" /><path id="964" transform="matrix(1 0 0 -1 0 841)" d="M95.67 209.961L141.641 209.961L141.641 264.158L95.67 264.158z" stroke="none" fill="#FFFFFF" fill-rule="nonzero" /><path id="967" transform="matrix(1 0 0 -1 0 841)" d="M141.641 209.961L499.606 209.961L499.606 264.158L141.641 264.158z" stroke="none" fill="#FFFFFF" fill-rule="nonzero" /><path id="1162" transform="matrix(1 0 0 -1 0 841)" d="M95.67 207.646L499.606 207.646" stroke="#000000" stroke-width="0.873" fill="none" /><g clip-path="url(#2)"></g></g></g></svg>