<svg xmlns="http://www.w3.org/2000/svg" xmlns:xlink="http://www.w3.org/1999/xlink" id="body_197" preserveAspectRatio="xMinYMin meet" viewBox="0 0 793 1121"><defs><clipPath id="1"><path id="" clip-rule="evenodd" transform="matrix(1 0 0 1 0 0)" d="M0 841L0 -0.8900146L0 -0.8900146L595.276 -0.8900146L595.276 -0.8900146L595.276 841L595.276 841L0 841z" /></clipPath></defs><g transform="matrix(1.333333 0 0 1.333333 0 0)"><g clip-path="url(#1)"><path id="4" transform="matrix(1 0 0 -1 0 841)" d="M85.039 766.564L510.236 766.564" stroke="#000000" stroke-width="0.498" fill="none" /><path id="5" transform="matrix(1 0 0 -1 0 841)" d="M85.039 756.651L563.688 756.651" stroke="#000000" stroke-width="0.398" fill="none" /><path id="6" transform="matrix(1 0 0 -1 0 841)" d="M85.239 742.903L85.239 756.452" stroke="#000000" stroke-width="0.398" fill="none" /><path id="59" transform="matrix(1 0 0 -1 0 841)" d="M563.489 742.903L563.489 756.452" stroke="#000000" stroke-width="0.398" fill="none" /><path id="60" transform="matrix(1 0 0 -1 0 841)" d="M85.039 742.703L563.688 742.703" stroke="#000000" stroke-width="0.398" fill="none" /><path id="61" transform="matrix(1 0 0 -1 0 841)" d="M85.239 728.955L85.239 742.504" stroke="#000000" stroke-width="0.398" fill="none" /><path id="116" transform="matrix(1 0 0 -1 0 841)" d="M563.489 728.955L563.489 742.504" stroke="#000000" stroke-width="0.398" fill="none" /><path id="117" transform="matrix(1 0 0 -1 0 841)" d="M85.039 728.756L563.688 728.756" stroke="#000000" stroke-width="0.398" fill="none" /><path id="118" transform="matrix(1 0 0 -1 0 841)" d="M85.239 715.007L85.239 728.556" stroke="#000000" stroke-width="0.398" fill="none" /><path id="121" transform="matrix(1 0 0 -1 0 841)" d="M125.939 715.007L125.939 728.556" stroke="#000000" stroke-width="0.398" fill="none" /><path id="150" transform="matrix(1 0 0 -1 0 841)" d="M563.489 715.007L563.489 728.556" stroke="#000000" stroke-width="0.398" fill="none" /><path id="151" transform="matrix(1 0 0 -1 0 841)" d="M85.039 714.808L563.688 714.808" stroke="#000000" stroke-width="0.398" fill="none" /><path id="152" transform="matrix(1 0 0 -1 0 841)" d="M85.239 701.06L85.239 714.609" stroke="#000000" stroke-width="0.398" fill="none" /><path id="155" transform="matrix(1 0 0 -1 0 841)" d="M125.939 701.06L125.939 714.609" stroke="#000000" stroke-width="0.398" fill="none" /><path id="175" transform="matrix(1 0 0 -1 0 841)" d="M563.489 701.06L563.489 714.609" stroke="#000000" stroke-width="0.398" fill="none" /><path id="176" transform="matrix(1 0 0 -1 0 841)" d="M85.039 700.86L563.688 700.86" stroke="#000000" stroke-width="0.398" fill="none" /><path id="177" transform="matrix(1 0 0 -1 0 841)" d="M85.239 687.112L85.239 700.661" stroke="#000000" stroke-width="0.398" fill="none" /><path id="180" transform="matrix(1 0 0 -1 0 841)" d="M125.939 687.112L125.939 700.661" stroke="#000000" stroke-width="0.398" fill="none" /><path id="217" transform="matrix(1 0 0 -1 0 841)" d="M563.489 687.112L563.489 700.661" stroke="#000000" stroke-width="0.398" fill="none" /><path id="218" transform="matrix(1 0 0 -1 0 841)" d="M85.039 686.913L563.688 686.913" stroke="#000000" stroke-width="0.398" fill="none" /><path id="219" transform="matrix(1 0 0 -1 0 841)" d="M85.239 673.164L85.239 686.713" stroke="#000000" stroke-width="0.398" fill="none" /><path id="222" transform="matrix(1 0 0 -1 0 841)" d="M125.939 673.164L125.939 686.713" stroke="#000000" stroke-width="0.398" fill="none" /><path id="272" transform="matrix(1 0 0 -1 0 841)" d="M563.489 673.164L563.489 686.713" stroke="#000000" stroke-width="0.398" fill="none" /><path id="273" transform="matrix(1 0 0 -1 0 841)" d="M85.039 672.965L563.688 672.965" stroke="#000000" stroke-width="0.398" fill="none" /><path id="274" transform="matrix(1 0 0 -1 0 841)" d="M85.239 645.667L85.239 672.765" stroke="#000000" stroke-width="0.398" fill="none" /><path id="277" transform="matrix(1 0 0 -1 0 841)" d="M125.939 645.667L125.939 672.765" stroke="#000000" stroke-width="0.398" fill="none" /><path id="370" transform="matrix(1 0 0 -1 0 841)" d="M563.489 645.667L563.489 672.765" stroke="#000000" stroke-width="0.398" fill="none" /><path id="371" transform="matrix(1 0 0 -1 0 841)" d="M85.039 645.468L563.688 645.468" stroke="#000000" stroke-width="0.398" fill="none" /><path id="372" transform="matrix(1 0 0 -1 0 841)" d="M85.239 631.72L85.239 645.269" stroke="#000000" stroke-width="0.398" fill="none" /><path id="375" transform="matrix(1 0 0 -1 0 841)" d="M125.939 631.72L125.939 645.269" stroke="#000000" stroke-width="0.398" fill="none" /><path id="434" transform="matrix(1 0 0 -1 0 841)" d="M563.489 631.72L563.489 645.269" stroke="#000000" stroke-width="0.398" fill="none" /><path id="435" transform="matrix(1 0 0 -1 0 841)" d="M85.039 631.521L563.688 631.521" stroke="#000000" stroke-width="0.398" fill="none" /><path id="436" transform="matrix(1 0 0 -1 0 841)" d="M85.239 617.772L85.239 631.321" stroke="#000000" stroke-width="0.398" fill="none" /><path id="439" transform="matrix(1 0 0 -1 0 841)" d="M125.939 617.772L125.939 631.321" stroke="#000000" stroke-width="0.398" fill="none" /><path id="475" transform="matrix(1 0 0 -1 0 841)" d="M563.489 617.772L563.489 631.321" stroke="#000000" stroke-width="0.398" fill="none" /><path id="476" transform="matrix(1 0 0 -1 0 841)" d="M85.039 617.573L563.688 617.573" stroke="#000000" stroke-width="0.398" fill="none" /><path id="477" transform="matrix(1 0 0 -1 0 841)" d="M85.239 603.824L85.239 617.373" stroke="#000000" stroke-width="0.398" fill="none" /><path id="480" transform="matrix(1 0 0 -1 0 841)" d="M125.939 603.824L125.939 617.373" stroke="#000000" stroke-width="0.398" fill="none" /><path id="512" transform="matrix(1 0 0 -1 0 841)" d="M563.489 603.824L563.489 617.373" stroke="#000000" stroke-width="0.398" fill="none" /><path id="513" transform="matrix(1 0 0 -1 0 841)" d="M85.039 603.625L563.688 603.625" stroke="#000000" stroke-width="0.398" fill="none" /><path id="514" transform="matrix(1 0 0 -1 0 841)" d="M85.239 589.877L85.239 603.426" stroke="#000000" stroke-width="0.398" fill="none" /><path id="517" transform="matrix(1 0 0 -1 0 841)" d="M125.939 589.877L125.939 603.426" stroke="#000000" stroke-width="0.398" fill="none" /><path id="551" transform="matrix(1 0 0 -1 0 841)" d="M563.489 589.877L563.489 603.426" stroke="#000000" stroke-width="0.398" fill="none" /><path id="552" transform="matrix(1 0 0 -1 0 841)" d="M85.039 589.677L563.688 589.677" stroke="#000000" stroke-width="0.398" fill="none" /><path id="553" transform="matrix(1 0 0 -1 0 841)" d="M85.239 575.929L85.239 589.478" stroke="#000000" stroke-width="0.398" fill="none" /><path id="556" transform="matrix(1 0 0 -1 0 841)" d="M125.939 575.929L125.939 589.478" stroke="#000000" stroke-width="0.398" fill="none" /><path id="602" transform="matrix(1 0 0 -1 0 841)" d="M563.489 575.929L563.489 589.478" stroke="#000000" stroke-width="0.398" fill="none" /><path id="603" transform="matrix(1 0 0 -1 0 841)" d="M85.039 575.73L563.688 575.73" stroke="#000000" stroke-width="0.398" fill="none" /><path id="604" transform="matrix(1 0 0 -1 0 841)" d="M85.239 561.981L85.239 575.53" stroke="#000000" stroke-width="0.398" fill="none" /><path id="607" transform="matrix(1 0 0 -1 0 841)" d="M125.939 561.981L125.939 575.53" stroke="#000000" stroke-width="0.398" fill="none" /><path id="646" transform="matrix(1 0 0 -1 0 841)" d="M563.489 561.981L563.489 575.53" stroke="#000000" stroke-width="0.398" fill="none" /><path id="647" transform="matrix(1 0 0 -1 0 841)" d="M85.039 561.782L563.688 561.782" stroke="#000000" stroke-width="0.398" fill="none" /><path id="648" transform="matrix(1 0 0 -1 0 841)" d="M85.239 548.034L85.239 561.583" stroke="#000000" stroke-width="0.398" fill="none" /><path id="651" transform="matrix(1 0 0 -1 0 841)" d="M125.939 548.034L125.939 561.583" stroke="#000000" stroke-width="0.398" fill="none" /><path id="688" transform="matrix(1 0 0 -1 0 841)" d="M563.489 548.034L563.489 561.583" stroke="#000000" stroke-width="0.398" fill="none" /><path id="689" transform="matrix(1 0 0 -1 0 841)" d="M85.039 547.834L563.688 547.834" stroke="#000000" stroke-width="0.398" fill="none" /><path id="690" transform="matrix(1 0 0 -1 0 841)" d="M85.239 534.086L85.239 547.635" stroke="#000000" stroke-width="0.398" fill="none" /><path id="693" transform="matrix(1 0 0 -1 0 841)" d="M125.939 534.086L125.939 547.635" stroke="#000000" stroke-width="0.398" fill="none" /><path id="744" transform="matrix(1 0 0 -1 0 841)" d="M563.489 534.086L563.489 547.635" stroke="#000000" stroke-width="0.398" fill="none" /><path id="745" transform="matrix(1 0 0 -1 0 841)" d="M85.039 533.887L563.688 533.887" stroke="#000000" stroke-width="0.398" fill="none" /><path id="746" transform="matrix(1 0 0 -1 0 841)" d="M85.239 520.138L85.239 533.687" stroke="#000000" stroke-width="0.398" fill="none" /><path id="749" transform="matrix(1 0 0 -1 0 841)" d="M125.939 520.138L125.939 533.687" stroke="#000000" stroke-width="0.398" fill="none" /><path id="778" transform="matrix(1 0 0 -1 0 841)" d="M563.489 520.138L563.489 533.687" stroke="#000000" stroke-width="0.398" fill="none" /><path id="779" transform="matrix(1 0 0 -1 0 841)" d="M85.039 519.939L563.688 519.939" stroke="#000000" stroke-width="0.398" fill="none" /><path id="780" transform="matrix(1 0 0 -1 0 841)" d="M85.239 506.191L85.239 519.74" stroke="#000000" stroke-width="0.398" fill="none" /><path id="783" transform="matrix(1 0 0 -1 0 841)" d="M125.939 506.191L125.939 519.74" stroke="#000000" stroke-width="0.398" fill="none" /><path id="803" transform="matrix(1 0 0 -1 0 841)" d="M563.489 506.191L563.489 519.74" stroke="#000000" stroke-width="0.398" fill="none" /><path id="804" transform="matrix(1 0 0 -1 0 841)" d="M85.039 505.991L563.688 505.991" stroke="#000000" stroke-width="0.398" fill="none" /><path id="805" transform="matrix(1 0 0 -1 0 841)" d="M85.239 492.243L85.239 505.792" stroke="#000000" stroke-width="0.398" fill="none" /><path id="808" transform="matrix(1 0 0 -1 0 841)" d="M125.939 492.243L125.939 505.792" stroke="#000000" stroke-width="0.398" fill="none" /><path id="849" transform="matrix(1 0 0 -1 0 841)" d="M563.489 492.243L563.489 505.792" stroke="#000000" stroke-width="0.398" fill="none" /><path id="850" transform="matrix(1 0 0 -1 0 841)" d="M85.039 492.044L563.688 492.044" stroke="#000000" stroke-width="0.398" fill="none" /><path id="851" transform="matrix(1 0 0 -1 0 841)" d="M85.239 478.295L85.239 491.844" stroke="#000000" stroke-width="0.398" fill="none" /><path id="854" transform="matrix(1 0 0 -1 0 841)" d="M125.939 478.295L125.939 491.844" stroke="#000000" stroke-width="0.398" fill="none" /><path id="886" transform="matrix(1 0 0 -1 0 841)" d="M563.489 478.295L563.489 491.844" stroke="#000000" stroke-width="0.398" fill="none" /><path id="887" transform="matrix(1 0 0 -1 0 841)" d="M85.039 478.096L563.688 478.096" stroke="#000000" stroke-width="0.398" fill="none" /><path id="888" transform="matrix(1 0 0 -1 0 841)" d="M85.239 464.348L85.239 477.897" stroke="#000000" stroke-width="0.398" fill="none" /><path id="891" transform="matrix(1 0 0 -1 0 841)" d="M125.939 464.348L125.939 477.897" stroke="#000000" stroke-width="0.398" fill="none" /><path id="931" transform="matrix(1 0 0 -1 0 841)" d="M563.489 464.348L563.489 477.897" stroke="#000000" stroke-width="0.398" fill="none" /><path id="932" transform="matrix(1 0 0 -1 0 841)" d="M85.039 464.148L563.688 464.148" stroke="#000000" stroke-width="0.398" fill="none" /><path id="933" transform="matrix(1 0 0 -1 0 841)" d="M85.239 450.4L85.239 463.949" stroke="#000000" stroke-width="0.398" fill="none" /><path id="936" transform="matrix(1 0 0 -1 0 841)" d="M125.939 450.4L125.939 463.949" stroke="#000000" stroke-width="0.398" fill="none" /><path id="969" transform="matrix(1 0 0 -1 0 841)" d="M563.489 450.4L563.489 463.949" stroke="#000000" stroke-width="0.398" fill="none" /><path id="970" transform="matrix(1 0 0 -1 0 841)" d="M85.039 450.201L563.688 450.201" stroke="#000000" stroke-width="0.398" fill="none" /><path id="971" transform="matrix(1 0 0 -1 0 841)" d="M85.239 436.452L85.239 450.001" stroke="#000000" stroke-width="0.398" fill="none" /><path id="974" transform="matrix(1 0 0 -1 0 841)" d="M125.939 436.452L125.939 450.001" stroke="#000000" stroke-width="0.398" fill="none" /><path id="1007" transform="matrix(1 0 0 -1 0 841)" d="M563.489 436.452L563.489 450.001" stroke="#000000" stroke-width="0.398" fill="none" /><path id="1008" transform="matrix(1 0 0 -1 0 841)" d="M85.039 436.253L563.688 436.253" stroke="#000000" stroke-width="0.398" fill="none" /><path id="1009" transform="matrix(1 0 0 -1 0 841)" d="M85.239 422.505L85.239 436.054" stroke="#000000" stroke-width="0.398" fill="none" /><path id="1012" transform="matrix(1 0 0 -1 0 841)" d="M125.939 422.505L125.939 436.054" stroke="#000000" stroke-width="0.398" fill="none" /><path id="1038" transform="matrix(1 0 0 -1 0 841)" d="M563.489 422.505L563.489 436.054" stroke="#000000" stroke-width="0.398" fill="none" /><path id="1039" transform="matrix(1 0 0 -1 0 841)" d="M85.039 422.305L563.688 422.305" stroke="#000000" stroke-width="0.398" fill="none" /><path id="1040" transform="matrix(1 0 0 -1 0 841)" d="M85.239 408.557L85.239 422.106" stroke="#000000" stroke-width="0.398" fill="none" /><path id="1043" transform="matrix(1 0 0 -1 0 841)" d="M125.939 408.557L125.939 422.106" stroke="#000000" stroke-width="0.398" fill="none" /><path id="1077" transform="matrix(1 0 0 -1 0 841)" d="M563.489 408.557L563.489 422.106" stroke="#000000" stroke-width="0.398" fill="none" /><path id="1078" transform="matrix(1 0 0 -1 0 841)" d="M85.039 408.358L563.688 408.358" stroke="#000000" stroke-width="0.398" fill="none" /><path id="1079" transform="matrix(1 0 0 -1 0 841)" d="M85.239 394.609L85.239 408.158" stroke="#000000" stroke-width="0.398" fill="none" /><path id="1082" transform="matrix(1 0 0 -1 0 841)" d="M125.939 394.609L125.939 408.158" stroke="#000000" stroke-width="0.398" fill="none" /><path id="1121" transform="matrix(1 0 0 -1 0 841)" d="M563.489 394.609L563.489 408.158" stroke="#000000" stroke-width="0.398" fill="none" /><path id="1122" transform="matrix(1 0 0 -1 0 841)" d="M85.039 394.41L563.688 394.41" stroke="#000000" stroke-width="0.398" fill="none" /><path id="1123" transform="matrix(1 0 0 -1 0 841)" d="M85.239 380.661L85.239 394.21" stroke="#000000" stroke-width="0.398" fill="none" /><path id="1126" transform="matrix(1 0 0 -1 0 841)" d="M125.939 380.661L125.939 394.21" stroke="#000000" stroke-width="0.398" fill="none" /><path id="1161" transform="matrix(1 0 0 -1 0 841)" d="M563.489 380.661L563.489 394.21" stroke="#000000" stroke-width="0.398" fill="none" /><path id="1162" transform="matrix(1 0 0 -1 0 841)" d="M85.039 380.462L563.688 380.462" stroke="#000000" stroke-width="0.398" fill="none" /><path id="1163" transform="matrix(1 0 0 -1 0 841)" d="M85.239 366.714L85.239 380.263" stroke="#000000" stroke-width="0.398" fill="none" /><path id="1166" transform="matrix(1 0 0 -1 0 841)" d="M125.939 366.714L125.939 380.263" stroke="#000000" stroke-width="0.398" fill="none" /><path id="1201" transform="matrix(1 0 0 -1 0 841)" d="M563.489 366.714L563.489 380.263" stroke="#000000" stroke-width="0.398" fill="none" /><path id="1202" transform="matrix(1 0 0 -1 0 841)" d="M85.039 366.515L563.688 366.515" stroke="#000000" stroke-width="0.398" fill="none" /><path id="1203" transform="matrix(1 0 0 -1 0 841)" d="M85.239 352.766L85.239 366.315" stroke="#000000" stroke-width="0.398" fill="none" /><path id="1206" transform="matrix(1 0 0 -1 0 841)" d="M125.939 352.766L125.939 366.315" stroke="#000000" stroke-width="0.398" fill="none" /><path id="1245" transform="matrix(1 0 0 -1 0 841)" d="M563.489 352.766L563.489 366.315" stroke="#000000" stroke-width="0.398" fill="none" /><path id="1246" transform="matrix(1 0 0 -1 0 841)" d="M85.039 352.567L563.688 352.567" stroke="#000000" stroke-width="0.398" fill="none" /><path id="1247" transform="matrix(1 0 0 -1 0 841)" d="M85.239 338.818L85.239 352.367" stroke="#000000" stroke-width="0.398" fill="none" /><path id="1250" transform="matrix(1 0 0 -1 0 841)" d="M125.939 338.818L125.939 352.367" stroke="#000000" stroke-width="0.398" fill="none" /><path id="1277" transform="matrix(1 0 0 -1 0 841)" d="M563.489 338.818L563.489 352.367" stroke="#000000" stroke-width="0.398" fill="none" /><path id="1278" transform="matrix(1 0 0 -1 0 841)" d="M85.039 338.619L563.688 338.619" stroke="#000000" stroke-width="0.398" fill="none" /><path id="1279" transform="matrix(1 0 0 -1 0 841)" d="M85.239 324.871L85.239 338.42" stroke="#000000" stroke-width="0.398" fill="none" /><path id="1282" transform="matrix(1 0 0 -1 0 841)" d="M125.939 324.871L125.939 338.42" stroke="#000000" stroke-width="0.398" fill="none" /><path id="1314" transform="matrix(1 0 0 -1 0 841)" d="M563.489 324.871L563.489 338.42" stroke="#000000" stroke-width="0.398" fill="none" /><path id="1315" transform="matrix(1 0 0 -1 0 841)" d="M85.039 324.672L563.688 324.672" stroke="#000000" stroke-width="0.398" fill="none" /><path id="1316" transform="matrix(1 0 0 -1 0 841)" d="M85.239 310.923L85.239 324.472" stroke="#000000" stroke-width="0.398" fill="none" /><path id="1319" transform="matrix(1 0 0 -1 0 841)" d="M125.939 310.923L125.939 324.472" stroke="#000000" stroke-width="0.398" fill="none" /><path id="1359" transform="matrix(1 0 0 -1 0 841)" d="M563.489 310.923L563.489 324.472" stroke="#000000" stroke-width="0.398" fill="none" /><path id="1360" transform="matrix(1 0 0 -1 0 841)" d="M85.039 310.724L563.688 310.724" stroke="#000000" stroke-width="0.398" fill="none" /><path id="1361" transform="matrix(1 0 0 -1 0 841)" d="M85.239 296.975L85.239 310.524" stroke="#000000" stroke-width="0.398" fill="none" /><path id="1364" transform="matrix(1 0 0 -1 0 841)" d="M125.939 296.975L125.939 310.524" stroke="#000000" stroke-width="0.398" fill="none" /><path id="1397" transform="matrix(1 0 0 -1 0 841)" d="M563.489 296.975L563.489 310.524" stroke="#000000" stroke-width="0.398" fill="none" /><path id="1398" transform="matrix(1 0 0 -1 0 841)" d="M85.039 296.776L563.688 296.776" stroke="#000000" stroke-width="0.398" fill="none" /><path id="1399" transform="matrix(1 0 0 -1 0 841)" d="M85.239 283.028L85.239 296.577" stroke="#000000" stroke-width="0.398" fill="none" /><path id="1402" transform="matrix(1 0 0 -1 0 841)" d="M125.939 283.028L125.939 296.577" stroke="#000000" stroke-width="0.398" fill="none" /><path id="1435" transform="matrix(1 0 0 -1 0 841)" d="M563.489 283.028L563.489 296.577" stroke="#000000" stroke-width="0.398" fill="none" /><path id="1436" transform="matrix(1 0 0 -1 0 841)" d="M85.039 282.828L563.688 282.828" stroke="#000000" stroke-width="0.398" fill="none" /><path id="1437" transform="matrix(1 0 0 -1 0 841)" d="M85.239 269.08L85.239 282.629" stroke="#000000" stroke-width="0.398" fill="none" /><path id="1440" transform="matrix(1 0 0 -1 0 841)" d="M125.939 269.08L125.939 282.629" stroke="#000000" stroke-width="0.398" fill="none" /><path id="1480" transform="matrix(1 0 0 -1 0 841)" d="M563.489 269.08L563.489 282.629" stroke="#000000" stroke-width="0.398" fill="none" /><path id="1481" transform="matrix(1 0 0 -1 0 841)" d="M85.039 268.881L563.688 268.881" stroke="#000000" stroke-width="0.398" fill="none" /><path id="1482" transform="matrix(1 0 0 -1 0 841)" d="M85.239 255.132L85.239 268.681" stroke="#000000" stroke-width="0.398" fill="none" /><path id="1485" transform="matrix(1 0 0 -1 0 841)" d="M125.939 255.132L125.939 268.681" stroke="#000000" stroke-width="0.398" fill="none" /><path id="1527" transform="matrix(1 0 0 -1 0 841)" d="M563.489 255.132L563.489 268.681" stroke="#000000" stroke-width="0.398" fill="none" /><path id="1528" transform="matrix(1 0 0 -1 0 841)" d="M85.039 254.933L563.688 254.933" stroke="#000000" stroke-width="0.398" fill="none" /><path id="1529" transform="matrix(1 0 0 -1 0 841)" d="M85.239 241.185L85.239 254.734" stroke="#000000" stroke-width="0.398" fill="none" /><path id="1532" transform="matrix(1 0 0 -1 0 841)" d="M125.939 241.185L125.939 254.734" stroke="#000000" stroke-width="0.398" fill="none" /><path id="1564" transform="matrix(1 0 0 -1 0 841)" d="M563.489 241.185L563.489 254.734" stroke="#000000" stroke-width="0.398" fill="none" /><path id="1565" transform="matrix(1 0 0 -1 0 841)" d="M85.039 240.985L563.688 240.985" stroke="#000000" stroke-width="0.398" fill="none" /><path id="1566" transform="matrix(1 0 0 -1 0 841)" d="M85.239 227.237L85.239 240.786" stroke="#000000" stroke-width="0.398" fill="none" /><path id="1569" transform="matrix(1 0 0 -1 0 841)" d="M125.939 227.237L125.939 240.786" stroke="#000000" stroke-width="0.398" fill="none" /><path id="1616" transform="matrix(1 0 0 -1 0 841)" d="M563.489 227.237L563.489 240.786" stroke="#000000" stroke-width="0.398" fill="none" /><path id="1617" transform="matrix(1 0 0 -1 0 841)" d="M85.039 227.038L563.688 227.038" stroke="#000000" stroke-width="0.398" fill="none" /><path id="1618" transform="matrix(1 0 0 -1 0 841)" d="M85.239 213.289L85.239 226.838" stroke="#000000" stroke-width="0.398" fill="none" /><path id="1621" transform="matrix(1 0 0 -1 0 841)" d="M125.939 213.289L125.939 226.838" stroke="#000000" stroke-width="0.398" fill="none" /><path id="1658" transform="matrix(1 0 0 -1 0 841)" d="M563.489 213.289L563.489 226.838" stroke="#000000" stroke-width="0.398" fill="none" /><path id="1659" transform="matrix(1 0 0 -1 0 841)" d="M85.039 213.09L563.688 213.09" stroke="#000000" stroke-width="0.398" fill="none" /><path id="1660" transform="matrix(1 0 0 -1 0 841)" d="M85.239 199.342L85.239 212.891" stroke="#000000" stroke-width="0.398" fill="none" /><path id="1663" transform="matrix(1 0 0 -1 0 841)" d="M125.939 199.342L125.939 212.891" stroke="#000000" stroke-width="0.398" fill="none" /><path id="1707" transform="matrix(1 0 0 -1 0 841)" d="M563.489 199.342L563.489 212.891" stroke="#000000" stroke-width="0.398" fill="none" /><path id="1708" transform="matrix(1 0 0 -1 0 841)" d="M85.039 199.142L563.688 199.142" stroke="#000000" stroke-width="0.398" fill="none" /><path id="1709" transform="matrix(1 0 0 -1 0 841)" d="M85.239 185.394L85.239 198.943" stroke="#000000" stroke-width="0.398" fill="none" /><path id="1712" transform="matrix(1 0 0 -1 0 841)" d="M125.939 185.394L125.939 198.943" stroke="#000000" stroke-width="0.398" fill="none" /><path id="1749" transform="matrix(1 0 0 -1 0 841)" d="M563.489 185.394L563.489 198.943" stroke="#000000" stroke-width="0.398" fill="none" /><path id="1750" transform="matrix(1 0 0 -1 0 841)" d="M85.039 185.195L563.688 185.195" stroke="#000000" stroke-width="0.398" fill="none" /><path id="1751" transform="matrix(1 0 0 -1 0 841)" d="M85.239 171.446L85.239 184.995" stroke="#000000" stroke-width="0.398" fill="none" /><path id="1754" transform="matrix(1 0 0 -1 0 841)" d="M125.939 171.446L125.939 184.995" stroke="#000000" stroke-width="0.398" fill="none" /><path id="1789" transform="matrix(1 0 0 -1 0 841)" d="M563.489 171.446L563.489 184.995" stroke="#000000" stroke-width="0.398" fill="none" /><path id="1790" transform="matrix(1 0 0 -1 0 841)" d="M85.039 171.247L563.688 171.247" stroke="#000000" stroke-width="0.398" fill="none" /><path id="1791" transform="matrix(1 0 0 -1 0 841)" d="M85.239 157.499L85.239 171.048" stroke="#000000" stroke-width="0.398" fill="none" /><path id="1794" transform="matrix(1 0 0 -1 0 841)" d="M125.939 157.499L125.939 171.048" stroke="#000000" stroke-width="0.398" fill="none" /><path id="1849" transform="matrix(1 0 0 -1 0 841)" d="M563.489 157.499L563.489 171.048" stroke="#000000" stroke-width="0.398" fill="none" /><path id="1850" transform="matrix(1 0 0 -1 0 841)" d="M85.039 157.299L563.688 157.299" stroke="#000000" stroke-width="0.398" fill="none" /></g></g></svg>