<svg xmlns="http://www.w3.org/2000/svg" xmlns:xlink="http://www.w3.org/1999/xlink" id="body_70" preserveAspectRatio="xMinYMin meet" viewBox="0 0 793 1121"><defs><clipPath id="1"><path id="" clip-rule="evenodd" transform="matrix(1 0 0 1 0 0)" d="M0 841L0 -0.8900146L0 -0.8900146L595.276 -0.8900146L595.276 -0.8900146L595.276 841L595.276 841L0 841z" /></clipPath></defs><g transform="matrix(1.333333 0 0 1.333333 0 0)"><g clip-path="url(#1)"><path id="45" transform="matrix(1 0 0 -1 0 841)" d="M85.039 766.564L510.236 766.564" stroke="#000000" stroke-width="0.498" fill="none" /><path id="1219" transform="matrix(1 0 0 -1 0 841)" d="M84.79 384.084L108.317 384.084" stroke="#000000" stroke-width="0.491" fill="none" /><path id="1223" transform="matrix(1 0 0 -1 0 841)" d="M108.28 384.084L133.007 384.084" stroke="#000000" stroke-width="0.491" fill="none" /><path id="1229" transform="matrix(1 0 0 -1 0 841)" d="M133.242 384.084L137.112 384.084" stroke="#000000" stroke-width="0.491" fill="none" /><path id="1230" transform="matrix(1 0 0 -1 0 841)" d="M136.863 384.084L149.492 384.084" stroke="#000000" stroke-width="0.491" fill="none" /><path id="1234" transform="matrix(1 0 0 -1 0 841)" d="M149.237 384.084L161.244 384.084" stroke="#000000" stroke-width="0.491" fill="none" /><path id="1238" transform="matrix(1 0 0 -1 0 841)" d="M160.976 384.084L178.448 384.084" stroke="#000000" stroke-width="0.491" fill="none" /><path id="1243" transform="matrix(1 0 0 -1 0 841)" d="M178.538 384.084L182.408 384.084" stroke="#000000" stroke-width="0.491" fill="none" /><path id="1244" transform="matrix(1 0 0 -1 0 841)" d="M182.16 384.084L216.596 384.084" stroke="#000000" stroke-width="0.491" fill="none" /><path id="1834" transform="matrix(1 0 0 -1 0 841)" d="M84.79 247.941L114.982 247.941" stroke="#000000" stroke-width="0.491" fill="none" /><path id="1841" transform="matrix(1 0 0 -1 0 841)" d="M114.484 247.941L118.615 247.941" stroke="#000000" stroke-width="0.491" fill="none" /><path id="1843" transform="matrix(1 0 0 -1 0 841)" d="M118.117 247.941L139.822 247.941" stroke="#000000" stroke-width="0.491" fill="none" /><path id="1849" transform="matrix(1 0 0 -1 0 841)" d="M139.573 247.941L142.3 247.941" stroke="#000000" stroke-width="0.491" fill="none" /><path id="1850" transform="matrix(1 0 0 -1 0 841)" d="M142.051 247.941L161.945 247.941" stroke="#000000" stroke-width="0.491" fill="none" /></g></g></svg>