<svg xmlns="http://www.w3.org/2000/svg" xmlns:xlink="http://www.w3.org/1999/xlink" id="body_265" preserveAspectRatio="xMinYMin meet" viewBox="0 0 793 1121"><defs><clipPath id="1"><path id="" clip-rule="evenodd" transform="matrix(1 0 0 1 0 0)" d="M0 841L0 -0.8900146L0 -0.8900146L595.276 -0.8900146L595.276 -0.8900146L595.276 841L595.276 841L0 841z" /></clipPath></defs><g transform="matrix(1.333333 0 0 1.333333 0 0)"><g clip-path="url(#1)"><path id="37" transform="matrix(1 0 0 -1 0 841)" d="M85.039 766.564L510.236 766.564" stroke="#000000" stroke-width="0.498" fill="none" /><path id="60" transform="matrix(1 0 0 -1 0 841)" d="M86.235 726.977L102.555 726.977" stroke="#000000" stroke-width="0.436" fill="none" /><path id="75" transform="matrix(1 0 0 -1 0 841)" d="M173.849 726.977L187.18 726.977" stroke="#000000" stroke-width="0.436" fill="none" /><path id="91" transform="matrix(1 0 0 -1 0 841)" d="M260.205 726.977L276.525 726.977" stroke="#000000" stroke-width="0.436" fill="none" /><path id="95" transform="matrix(1 0 0 -1 0 841)" d="M229.57 742.334L281.107 742.334" stroke="#000000" stroke-width="0.398" fill="none" /><path id="96" transform="matrix(1 0 0 -1 0 841)" d="M229.77 711.353L229.77 742.334" stroke="#000000" stroke-width="0.398" fill="none" /><path id="97" transform="matrix(1 0 0 -1 0 841)" d="M280.909 711.353L280.909 742.334" stroke="#000000" stroke-width="0.398" fill="none" /><path id="98" transform="matrix(1 0 0 -1 0 841)" d="M229.57 711.353L281.107 711.353" stroke="#000000" stroke-width="0.398" fill="none" /><path id="226" transform="matrix(1 0 0 -1 0 841)" d="M152.62 630.387L199.269 630.387" stroke="#000000" stroke-width="0.436" fill="none" /><path id="271" transform="matrix(1 0 0 -1 0 841)" d="M321.467 638.359L418.264 638.359" stroke="#000000" stroke-width="0.398" fill="none" /><path id="272" transform="matrix(1 0 0 -1 0 841)" d="M321.666 622.356L321.666 638.359" stroke="#000000" stroke-width="0.398" fill="none" /><path id="273" transform="matrix(1 0 0 -1 0 841)" d="M418.064 622.356L418.064 638.359" stroke="#000000" stroke-width="0.398" fill="none" /><path id="274" transform="matrix(1 0 0 -1 0 841)" d="M321.467 622.356L418.264 622.356" stroke="#000000" stroke-width="0.398" fill="none" /><path id="345" transform="matrix(1 0 0 -1 0 841)" d="M154.959 577.264L236.059 577.264" stroke="#000000" stroke-width="0.436" fill="none" /><path id="757" transform="matrix(1 0 0 -1 0 841)" d="M86.235 344.237L102.555 344.237" stroke="#000000" stroke-width="0.436" fill="none" /><path id="772" transform="matrix(1 0 0 -1 0 841)" d="M173.849 344.237L187.18 344.237" stroke="#000000" stroke-width="0.436" fill="none" /><path id="788" transform="matrix(1 0 0 -1 0 841)" d="M260.205 344.237L276.525 344.237" stroke="#000000" stroke-width="0.436" fill="none" /><path id="792" transform="matrix(1 0 0 -1 0 841)" d="M229.57 359.594L281.107 359.594" stroke="#000000" stroke-width="0.398" fill="none" /><path id="793" transform="matrix(1 0 0 -1 0 841)" d="M229.77 328.612L229.77 359.593" stroke="#000000" stroke-width="0.398" fill="none" /><path id="794" transform="matrix(1 0 0 -1 0 841)" d="M280.909 328.612L280.909 359.593" stroke="#000000" stroke-width="0.398" fill="none" /><path id="795" transform="matrix(1 0 0 -1 0 841)" d="M229.57 328.612L281.107 328.612" stroke="#000000" stroke-width="0.398" fill="none" /><path id="923" transform="matrix(1 0 0 -1 0 841)" d="M152.62 247.647L199.269 247.647" stroke="#000000" stroke-width="0.436" fill="none" /><path id="968" transform="matrix(1 0 0 -1 0 841)" d="M321.467 255.618L418.264 255.618" stroke="#000000" stroke-width="0.398" fill="none" /><path id="969" transform="matrix(1 0 0 -1 0 841)" d="M321.666 239.615L321.666 255.618" stroke="#000000" stroke-width="0.398" fill="none" /><path id="970" transform="matrix(1 0 0 -1 0 841)" d="M418.064 239.615L418.064 255.618" stroke="#000000" stroke-width="0.398" fill="none" /><path id="971" transform="matrix(1 0 0 -1 0 841)" d="M321.467 239.615L418.264 239.615" stroke="#000000" stroke-width="0.398" fill="none" /></g></g></svg>