<svg xmlns="http://www.w3.org/2000/svg" xmlns:xlink="http://www.w3.org/1999/xlink" id="body_267" preserveAspectRatio="xMinYMin meet" viewBox="0 0 793 1121"><defs><clipPath id="1"><path id="" clip-rule="evenodd" transform="matrix(1 0 0 1 0 0)" d="M0 841L0 -0.8900146L0 -0.8900146L595.276 -0.8900146L595.276 -0.8900146L595.276 841L595.276 841L0 841z" /></clipPath></defs><g transform="matrix(1.333333 0 0 1.333333 0 0)"><g clip-path="url(#1)"><path id="23" transform="matrix(1 0 0 -1 0 841)" d="M85.039 766.564L510.236 766.564" stroke="#000000" stroke-width="0.498" fill="none" /><path id="1163" transform="matrix(1 0 0 -1 0 841)" d="M369.01 279.181L413.911 279.181" stroke="#000000" stroke-width="0.398" fill="none" /><path id="1164" transform="matrix(1 0 0 -1 0 841)" d="M369.209 265.054L369.209 279.181" stroke="#000000" stroke-width="0.398" fill="none" /><path id="1165" transform="matrix(1 0 0 -1 0 841)" d="M413.712 265.054L413.712 279.181" stroke="#000000" stroke-width="0.398" fill="none" /><path id="1166" transform="matrix(1 0 0 -1 0 841)" d="M369.01 265.054L413.911 265.054" stroke="#000000" stroke-width="0.398" fill="none" /><path id="1554" transform="matrix(1 0 0 -1 0 841)" d="M244.376 96.974L289.138 96.974" stroke="#000000" stroke-width="0.436" fill="none" /></g></g></svg>