<svg xmlns="http://www.w3.org/2000/svg" xmlns:xlink="http://www.w3.org/1999/xlink" id="body_358" preserveAspectRatio="xMinYMin meet" viewBox="0 0 793 1121"><defs><clipPath id="1"><path id="" clip-rule="evenodd" transform="matrix(1 0 0 1 0 0)" d="M0 841L0 -0.8900146L0 -0.8900146L595.276 -0.8900146L595.276 -0.8900146L595.276 841L595.276 841L0 841z" /></clipPath></defs><g transform="matrix(1.333333 0 0 1.333333 0 0)"><g clip-path="url(#1)"><path id="34" transform="matrix(1 0 0 -1 0 841)" d="M85.039 766.564L510.236 766.564" stroke="#000000" stroke-width="0.498" fill="none" /><path id="50" transform="matrix(1 0 0 -1 0 841)" d="M132.893 723.561L147.391 723.561" stroke="#000000" stroke-width="0.436" fill="none" /><path id="67" transform="matrix(1 0 0 -1 0 841)" d="M219.204 723.561L233.702 723.561" stroke="#000000" stroke-width="0.436" fill="none" /><path id="71" transform="matrix(1 0 0 -1 0 841)" d="M189.781 738.918L238.284 738.918" stroke="#000000" stroke-width="0.398" fill="none" /><path id="72" transform="matrix(1 0 0 -1 0 841)" d="M189.98 707.937L189.98 738.918" stroke="#000000" stroke-width="0.398" fill="none" /><path id="73" transform="matrix(1 0 0 -1 0 841)" d="M238.085 707.937L238.085 738.918" stroke="#000000" stroke-width="0.398" fill="none" /><path id="74" transform="matrix(1 0 0 -1 0 841)" d="M189.781 707.937L238.284 707.937" stroke="#000000" stroke-width="0.398" fill="none" /><path id="171" transform="matrix(1 0 0 -1 0 841)" d="M132.893 631.803L147.391 631.803" stroke="#000000" stroke-width="0.436" fill="none" /><path id="198" transform="matrix(1 0 0 -1 0 841)" d="M253.096 631.803L267.594 631.803" stroke="#000000" stroke-width="0.436" fill="none" /><path id="202" transform="matrix(1 0 0 -1 0 841)" d="M223.673 647.16L272.176 647.16" stroke="#000000" stroke-width="0.398" fill="none" /><path id="203" transform="matrix(1 0 0 -1 0 841)" d="M223.872 616.178L223.872 647.159" stroke="#000000" stroke-width="0.398" fill="none" /><path id="204" transform="matrix(1 0 0 -1 0 841)" d="M271.977 616.178L271.977 647.159" stroke="#000000" stroke-width="0.398" fill="none" /><path id="205" transform="matrix(1 0 0 -1 0 841)" d="M223.673 616.178L272.176 616.178" stroke="#000000" stroke-width="0.398" fill="none" /><path id="323" transform="matrix(1 0 0 -1 0 841)" d="M224.467 469.506L257.979 469.506" stroke="#000000" stroke-width="0.436" fill="none" /><path id="358" transform="matrix(1 0 0 -1 0 841)" d="M327.063 483.524L402.718 483.524" stroke="#000000" stroke-width="0.436" fill="none" /><path id="368" transform="matrix(1 0 0 -1 0 841)" d="M273.695 469.506L403.914 469.506" stroke="#000000" stroke-width="0.436" fill="none" /><path id="383" transform="matrix(1 0 0 -1 0 841)" d="M308.565 455.253L341.804 455.253" stroke="#000000" stroke-width="0.436" fill="none" /><path id="397" transform="matrix(1 0 0 -1 0 841)" d="M352.68 455.253L385.407 455.253" stroke="#000000" stroke-width="0.436" fill="none" /><path id="408" transform="matrix(1 0 0 -1 0 841)" d="M418.433 477.478L466.564 477.478" stroke="#000000" stroke-width="0.398" fill="none" /><path id="409" transform="matrix(1 0 0 -1 0 841)" d="M418.633 463.471L418.633 477.478" stroke="#000000" stroke-width="0.398" fill="none" /><path id="410" transform="matrix(1 0 0 -1 0 841)" d="M466.365 463.471L466.365 477.478" stroke="#000000" stroke-width="0.398" fill="none" /><path id="411" transform="matrix(1 0 0 -1 0 841)" d="M418.433 463.471L466.564 463.471" stroke="#000000" stroke-width="0.398" fill="none" /><path id="529" transform="matrix(1 0 0 -1 0 841)" d="M113.508 385.996L179.322 385.996" stroke="#000000" stroke-width="0.436" fill="none" /><path id="542" transform="matrix(1 0 0 -1 0 841)" d="M190.197 385.996L217.47 385.996" stroke="#000000" stroke-width="0.436" fill="none" /><path id="554" transform="matrix(1 0 0 -1 0 841)" d="M228.346 385.996L254.659 385.996" stroke="#000000" stroke-width="0.436" fill="none" /><path id="571" transform="matrix(1 0 0 -1 0 841)" d="M273.761 385.996L338.507 385.996" stroke="#000000" stroke-width="0.436" fill="none" /><path id="575" transform="matrix(1 0 0 -1 0 841)" d="M269.178 401.353L343.089 401.353" stroke="#000000" stroke-width="0.398" fill="none" /><path id="576" transform="matrix(1 0 0 -1 0 841)" d="M269.377 370.371L269.377 401.352" stroke="#000000" stroke-width="0.398" fill="none" /><path id="577" transform="matrix(1 0 0 -1 0 841)" d="M342.89 370.371L342.89 401.352" stroke="#000000" stroke-width="0.398" fill="none" /><path id="578" transform="matrix(1 0 0 -1 0 841)" d="M269.178 370.371L343.089 370.371" stroke="#000000" stroke-width="0.398" fill="none" /><path id="688" transform="matrix(1 0 0 -1 0 841)" d="M113.508 311.756L179.322 311.756" stroke="#000000" stroke-width="0.436" fill="none" /><path id="705" transform="matrix(1 0 0 -1 0 841)" d="M190.197 311.756L222.924 311.756" stroke="#000000" stroke-width="0.436" fill="none" /><path id="723" transform="matrix(1 0 0 -1 0 841)" d="M255.618 311.756L271.981 311.756" stroke="#000000" stroke-width="0.436" fill="none" /><path id="743" transform="matrix(1 0 0 -1 0 841)" d="M291.085 311.756L377.496 311.756" stroke="#000000" stroke-width="0.436" fill="none" /><path id="747" transform="matrix(1 0 0 -1 0 841)" d="M286.502 327.113L382.079 327.113" stroke="#000000" stroke-width="0.398" fill="none" /><path id="748" transform="matrix(1 0 0 -1 0 841)" d="M286.701 296.131L286.701 327.112" stroke="#000000" stroke-width="0.398" fill="none" /><path id="749" transform="matrix(1 0 0 -1 0 841)" d="M381.879 296.131L381.879 327.112" stroke="#000000" stroke-width="0.398" fill="none" /><path id="750" transform="matrix(1 0 0 -1 0 841)" d="M286.502 296.131L382.079 296.131" stroke="#000000" stroke-width="0.398" fill="none" /><path id="962" transform="matrix(1 0 0 -1 0 841)" d="M225.897 170.2286L112.5098 170.2286L112.5098 170.2286L112.5098 127.7084L112.5098 127.7084L225.897 127.7084z" stroke="#000000" stroke-width="0.3985" fill="#E3F5FD" fill-rule="nonzero" /><path id="963" transform="matrix(1 0 0 -1 0 841)" d="M225.897 170.2286L247.7237 192.0553L247.7237 192.0553L247.7237 149.5351L247.7237 149.5351L225.897 127.7084z" stroke="#000000" stroke-width="0.3985" fill="#FFFFFF" fill-rule="nonzero" /><path id="964" transform="matrix(1 0 0 -1 0 841)" d="M225.897 170.2286L247.7237 192.0553L247.7237 192.0553L247.7237 149.5351L247.7237 149.5351L225.897 127.7084z" stroke="#000000" stroke-width="0.3985" fill="#E3F5FD" fill-rule="nonzero" /><path id="965" transform="matrix(1 0 0 -1 0 841)" d="M112.5098 184.402L134.3365 206.2287L134.3365 206.2287L134.3365 192.0553L134.3365 192.0553L112.5098 170.2286z" stroke="#000000" stroke-width="0.3985" fill="none" /><path id="966" transform="matrix(1 0 0 -1 0 841)" d="M225.897 170.2286L112.5098 170.2286L112.5098 170.2286L134.3365 192.0553L134.3365 192.0553L247.7237 192.0553z" stroke="#000000" stroke-width="0.3985" fill="none" /><path id="967" transform="matrix(1 0 0 -1 0 841)" d="M225.897 184.402L112.5098 184.402L112.5098 184.402L112.5098 170.2286L112.5098 170.2286L225.897 170.2286z" stroke="#000000" stroke-width="0.3985" fill="#FFFFFF" fill-rule="nonzero" /><path id="968" transform="matrix(1 0 0 -1 0 841)" d="M225.897 184.402L247.7237 206.2287L247.7237 206.2287L247.7237 192.0553L247.7237 192.0553L225.897 170.2286z" stroke="#000000" stroke-width="0.3985" fill="#FFFFFF" fill-rule="nonzero" /><path id="969" transform="matrix(1 0 0 -1 0 841)" d="M225.897 184.402L247.7237 206.2287L247.7237 206.2287L247.7237 192.0553L247.7237 192.0553L225.897 170.2286z" stroke="#000000" stroke-width="0.3985" fill="#FFFFFF" fill-rule="nonzero" /><path id="970" transform="matrix(1 0 0 -1 0 841)" d="M225.897 184.402L112.5098 184.402L112.5098 184.402L134.3365 206.2287L134.3365 206.2287L247.7237 206.2287z" stroke="#000000" stroke-width="0.3985" fill="#FFFFFF" fill-rule="nonzero" /><path id="971" transform="matrix(1 0 0 -1 0 841)" d="M112.9083 119.2043L225.4985 119.2043" stroke="#000000" stroke-width="0.3985" fill="none" /><path id="972" transform="matrix(1 0 0 -1 0 841)" d="M114.7813 116.8132C 114.4027 118.2479 113.559 118.9253 112.709 119.2043C 113.559 119.4832 114.4027 120.1606 114.7813 121.5953" stroke="#000000" stroke-width="0.3985" stroke-linecap="round" fill="none" /><path id="973" transform="matrix(1 0 0 -1 0 841)" d="M223.6255 121.5953C 224.0041 120.1606 224.8477 119.4832 225.6977 119.2043C 224.8477 118.9253 224.0041 118.2479 223.6255 116.8132" stroke="#000000" stroke-width="0.3985" stroke-linecap="round" fill="none" /><path id="981" transform="matrix(1 0 0 -1 0 841)" d="M254.2438 147.9496L254.2438 189.6728" stroke="#000000" stroke-width="0.3985" fill="none" /><path id="982" transform="matrix(1 0 0 -1 0 841)" d="M256.6348 149.8226C 255.2002 149.444 254.5227 148.6003 254.2438 147.7503C 253.9648 148.6003 253.2874 149.444 251.8528 149.8226" stroke="#000000" stroke-width="0.3985" stroke-linecap="round" fill="none" /><path id="983" transform="matrix(1 0 0 -1 0 841)" d="M251.8528 187.7998C 253.2874 188.1784 253.9648 189.022 254.2438 189.872C 254.5227 189.022 255.2002 188.1784 256.6348 187.7998" stroke="#000000" stroke-width="0.3985" stroke-linecap="round" fill="none" /><path id="1006" transform="matrix(1 0 0 -1 0 841)" d="M237.2355 138.8788L237.2355 152.8218" stroke="#000000" stroke-width="0.3985" fill="none" /><path id="1007" transform="matrix(1 0 0 -1 0 841)" d="M239.6266 140.7518C 238.1919 140.3732 237.5145 139.5295 237.2355 138.6796C 236.9566 139.5295 236.2792 140.3732 234.8445 140.7518" stroke="#000000" stroke-width="0.3985" stroke-linecap="round" fill="none" /><path id="1008" transform="matrix(1 0 0 -1 0 841)" d="M234.8445 150.9489C 236.2792 151.3274 236.9566 152.1711 237.2355 153.0211C 237.5145 152.1711 238.1919 151.3274 239.6266 150.9489" stroke="#000000" stroke-width="0.3985" stroke-linecap="round" fill="none" /><path id="1028" transform="matrix(1 0 0 -1 0 841)" d="M254.2438 206.681L254.2438 190.4698" stroke="#000000" stroke-width="0.3985" fill="none" /><path id="1029" transform="matrix(1 0 0 -1 0 841)" d="M251.8528 204.808C 253.2874 205.1866 253.9648 206.0303 254.2438 206.8802C 254.5227 206.0303 255.2002 205.1866 256.6348 204.808" stroke="#000000" stroke-width="0.3985" stroke-linecap="round" fill="none" /><path id="1030" transform="matrix(1 0 0 -1 0 841)" d="M256.6348 192.3427C 255.2002 191.9642 254.5227 191.1205 254.2438 190.2705C 253.9648 191.1205 253.2874 191.9642 251.8528 192.3427" stroke="#000000" stroke-width="0.3985" stroke-linecap="round" fill="none" /><path id="1042" transform="matrix(1 0 0 -1 0 841)" d="M253.962 147.2693L226.1788 119.486" stroke="#000000" stroke-width="0.3985" fill="none" /><path id="1043" transform="matrix(1 0 0 -1 0 841)" d="M250.9469 147.6356C 252.2291 146.8889 253.3046 147.0064 254.1029 147.4102C 253.6991 146.6119 253.5816 145.5363 254.3283 144.2542" stroke="#000000" stroke-width="0.3984962" stroke-linecap="round" fill="none" /><path id="1044" transform="matrix(1 0 0 -1 0 841)" d="M229.1939 119.1197C 227.9117 119.8665 226.8362 119.7489 226.0379 119.3452C 226.4417 120.1434 226.5592 121.219 225.8125 122.5011" stroke="#000000" stroke-width="0.3984962" stroke-linecap="round" fill="none" /></g></g></svg>