<svg xmlns="http://www.w3.org/2000/svg" xmlns:xlink="http://www.w3.org/1999/xlink" id="body_269" preserveAspectRatio="xMinYMin meet" viewBox="0 0 793 1121"><defs><clipPath id="1"><path id="" clip-rule="evenodd" transform="matrix(1 0 0 1 0 0)" d="M0 841L0 -0.8900146L0 -0.8900146L595.276 -0.8900146L595.276 -0.8900146L595.276 841L595.276 841L0 841z" /></clipPath></defs><g transform="matrix(1.333333 0 0 1.333333 0 0)"><g clip-path="url(#1)"><path id="33" transform="matrix(1 0 0 -1 0 841)" d="M85.039 766.564L510.236 766.564" stroke="#000000" stroke-width="0.498" fill="none" /><path id="47" transform="matrix(1 0 0 -1 0 841)" d="M113.508 741.901L242.781 741.901" stroke="#000000" stroke-width="0.436" fill="none" /><path id="108" transform="matrix(1 0 0 -1 0 841)" d="M253.657 741.901L350.212 741.901" stroke="#000000" stroke-width="0.436" fill="none" /><path id="321" transform="matrix(1 0 0 -1 0 841)" d="M161.627 675.777L277.011 675.777" stroke="#000000" stroke-width="0.436" fill="none" /><path id="380" transform="matrix(1 0 0 -1 0 841)" d="M343.329 675.777L458.713 675.777" stroke="#000000" stroke-width="0.436" fill="none" /><path id="460" transform="matrix(1 0 0 -1 0 841)" d="M290.076 639.479L405.46 639.479" stroke="#000000" stroke-width="0.436" fill="none" /><path id="529" transform="matrix(1 0 0 -1 0 841)" d="M415.124 639.479L523.701 639.479" stroke="#000000" stroke-width="0.436" fill="none" /><path id="593" transform="matrix(1 0 0 -1 0 841)" d="M123.213 619.147L443.02 619.147" stroke="#000000" stroke-width="0.398" fill="none" /><path id="594" transform="matrix(1 0 0 -1 0 841)" d="M123.412 602.958L123.412 619.147" stroke="#000000" stroke-width="0.398" fill="none" /><path id="595" transform="matrix(1 0 0 -1 0 841)" d="M442.821 602.958L442.821 619.147" stroke="#000000" stroke-width="0.398" fill="none" /><path id="596" transform="matrix(1 0 0 -1 0 841)" d="M123.213 602.958L443.02 602.958" stroke="#000000" stroke-width="0.398" fill="none" /></g></g></svg>