<svg xmlns="http://www.w3.org/2000/svg" xmlns:xlink="http://www.w3.org/1999/xlink" id="body_272" preserveAspectRatio="xMinYMin meet" viewBox="0 0 793 1121"><defs><clipPath id="1"><path id="" clip-rule="evenodd" transform="matrix(1 0 0 1 0 0)" d="M0 841L0 -0.8900146L0 -0.8900146L595.276 -0.8900146L595.276 -0.8900146L595.276 841L595.276 841L0 841z" /></clipPath></defs><g transform="matrix(1.333333 0 0 1.333333 0 0)"><g clip-path="url(#1)"><path id="23" transform="matrix(1 0 0 -1 0 841)" d="M85.039 766.564L510.236 766.564" stroke="#000000" stroke-width="0.498" fill="none" /><path id="263" transform="matrix(1 0 0 -1 0 841)" d="M224.283 651.34L260.04 651.34" stroke="#000000" stroke-width="0.436" fill="none" /><path id="320" transform="matrix(1 0 0 -1 0 841)" d="M180.884 560.232L197.204 560.232" stroke="#000000" stroke-width="0.436" fill="none" /><path id="341" transform="matrix(1 0 0 -1 0 841)" d="M283.184 560.232L296.515 560.232" stroke="#000000" stroke-width="0.436" fill="none" /><path id="1508" transform="matrix(1 0 0 -1 0 841)" d="M245.578 185.651L258.909 185.651" stroke="#000000" stroke-width="0.436" fill="none" /><path id="1520" transform="matrix(1 0 0 -1 0 841)" d="M373.273 199.614L389.593 199.614" stroke="#000000" stroke-width="0.436" fill="none" /><path id="1524" transform="matrix(1 0 0 -1 0 841)" d="M281.137 185.651L447.234 185.651" stroke="#000000" stroke-width="0.436" fill="none" /><path id="1648" transform="matrix(1 0 0 -1 0 841)" d="M395.963 135.438L412.283 135.438" stroke="#000000" stroke-width="0.436" fill="none" /><path id="1652" transform="matrix(1 0 0 -1 0 841)" d="M323.964 121.475L449.788 121.475" stroke="#000000" stroke-width="0.436" fill="none" /><path id="1669" transform="matrix(1 0 0 -1 0 841)" d="M395.424 110.13L408.755 110.13" stroke="#000000" stroke-width="0.436" fill="none" /></g></g></svg>