<svg xmlns="http://www.w3.org/2000/svg" xmlns:xlink="http://www.w3.org/1999/xlink" id="body_337" preserveAspectRatio="xMinYMin meet" viewBox="0 0 793 1121"><defs><clipPath id="1"><path id="" clip-rule="evenodd" transform="matrix(1 0 0 1 0 0)" d="M0 841L0 -0.8900146L0 -0.8900146L595.276 -0.8900146L595.276 -0.8900146L595.276 841L595.276 841L0 841z" /></clipPath></defs><g transform="matrix(1.333333 0 0 1.333333 0 0)"><g clip-path="url(#1)"><path id="22" transform="matrix(1 0 0 -1 0 841)" d="M85.039 766.564L510.236 766.564" stroke="#000000" stroke-width="0.498" fill="none" /><g transform="matrix(0.3 0 0 0.3 112.312 84.14795)"><g transform="matrix(1 0 0 1 0 0)"><image x="0" y="0" xlink:href="img_396.png" width="474" height="243" /></g></g><path id="34" transform="matrix(1 0 0 -1 0 841)" d="M205.458 669.742L213.334 669.742" stroke="#000000" stroke-width="0.436" fill="none" /><path id="41" transform="matrix(1 0 0 -1 0 841)" d="M145.853 619.363L155.616 619.363" stroke="#000000" stroke-width="0.436" fill="none" /><path id="51" transform="matrix(1 0 0 -1 0 841)" d="M186.458 633.828L203.858 633.828" stroke="#000000" stroke-width="0.436" fill="none" /><path id="70" transform="matrix(1 0 0 -1 0 841)" d="M214.734 633.828L267.414 633.828" stroke="#000000" stroke-width="0.436" fill="none" /><path id="80" transform="matrix(1 0 0 -1 0 841)" d="M278.289 633.828L312.172 633.828" stroke="#000000" stroke-width="0.436" fill="none" /><path id="96" transform="matrix(1 0 0 -1 0 841)" d="M323.048 633.828L376.969 633.828" stroke="#000000" stroke-width="0.436" fill="none" /><path id="107" transform="matrix(1 0 0 -1 0 841)" d="M171.332 619.363L378.165 619.363" stroke="#000000" stroke-width="0.436" fill="none" /><path id="130" transform="matrix(1 0 0 -1 0 841)" d="M411.198 619.363L420.961 619.363" stroke="#000000" stroke-width="0.436" fill="none" /><path id="132" transform="matrix(1 0 0 -1 0 841)" d="M392.684 634.54L425.544 634.54" stroke="#000000" stroke-width="0.398" fill="none" /><path id="133" transform="matrix(1 0 0 -1 0 841)" d="M392.884 605.844L392.884 634.54" stroke="#000000" stroke-width="0.398" fill="none" /><path id="134" transform="matrix(1 0 0 -1 0 841)" d="M425.345 605.844L425.345 634.54" stroke="#000000" stroke-width="0.398" fill="none" /><path id="135" transform="matrix(1 0 0 -1 0 841)" d="M392.684 605.844L425.544 605.844" stroke="#000000" stroke-width="0.398" fill="none" /><path id="219" transform="matrix(1 0 0 -1 0 841)" d="M190.974 503.063L221.584 503.063" stroke="#000000" stroke-width="0.436" fill="none" /><path id="232" transform="matrix(1 0 0 -1 0 841)" d="M236.104 513.361L278.834 513.361" stroke="#000000" stroke-width="0.398" fill="none" /><path id="233" transform="matrix(1 0 0 -1 0 841)" d="M236.303 494.922L236.303 513.361" stroke="#000000" stroke-width="0.398" fill="none" /><path id="234" transform="matrix(1 0 0 -1 0 841)" d="M278.635 494.922L278.635 513.361" stroke="#000000" stroke-width="0.398" fill="none" /><path id="235" transform="matrix(1 0 0 -1 0 841)" d="M236.104 494.922L278.834 494.922" stroke="#000000" stroke-width="0.398" fill="none" /><path id="278" transform="matrix(1 0 0 -1 0 841)" d="M113.508 433.567L127.754 433.567" stroke="#000000" stroke-width="0.436" fill="none" /><path id="289" transform="matrix(1 0 0 -1 0 841)" d="M154.379 433.567L170.742 433.567" stroke="#000000" stroke-width="0.436" fill="none" /><path id="299" transform="matrix(1 0 0 -1 0 841)" d="M181.618 433.567L215.501 433.567" stroke="#000000" stroke-width="0.436" fill="none" /><path id="317" transform="matrix(1 0 0 -1 0 841)" d="M226.377 433.567L253.65 433.567" stroke="#000000" stroke-width="0.436" fill="none" /><path id="328" transform="matrix(1 0 0 -1 0 841)" d="M292.138 433.567L306.384 433.567" stroke="#000000" stroke-width="0.436" fill="none" /><path id="331" transform="matrix(1 0 0 -1 0 841)" d="M268.17 450.705L310.967 450.705" stroke="#000000" stroke-width="0.398" fill="none" /><path id="332" transform="matrix(1 0 0 -1 0 841)" d="M268.369 420.048L268.369 450.705" stroke="#000000" stroke-width="0.398" fill="none" /><path id="333" transform="matrix(1 0 0 -1 0 841)" d="M310.768 420.048L310.768 450.705" stroke="#000000" stroke-width="0.398" fill="none" /><path id="334" transform="matrix(1 0 0 -1 0 841)" d="M268.17 420.048L310.967 420.048" stroke="#000000" stroke-width="0.398" fill="none" /><path id="384" transform="matrix(1 0 0 -1 0 841)" d="M113.508 365.743L129.871 365.743" stroke="#000000" stroke-width="0.436" fill="none" /><path id="398" transform="matrix(1 0 0 -1 0 841)" d="M164.972 365.743L179.218 365.743" stroke="#000000" stroke-width="0.436" fill="none" /><path id="412" transform="matrix(1 0 0 -1 0 841)" d="M190.094 365.743L223.977 365.743" stroke="#000000" stroke-width="0.436" fill="none" /><path id="426" transform="matrix(1 0 0 -1 0 841)" d="M234.853 365.743L259.693 365.743" stroke="#000000" stroke-width="0.436" fill="none" /><path id="439" transform="matrix(1 0 0 -1 0 841)" d="M303.636 365.743L319.999 365.743" stroke="#000000" stroke-width="0.436" fill="none" /><path id="443" transform="matrix(1 0 0 -1 0 841)" d="M274.213 381.1L324.582 381.1" stroke="#000000" stroke-width="0.398" fill="none" /><path id="444" transform="matrix(1 0 0 -1 0 841)" d="M274.413 352.224L274.413 381.1" stroke="#000000" stroke-width="0.398" fill="none" /><path id="445" transform="matrix(1 0 0 -1 0 841)" d="M324.383 352.224L324.383 381.1" stroke="#000000" stroke-width="0.398" fill="none" /><path id="446" transform="matrix(1 0 0 -1 0 841)" d="M274.213 352.224L324.582 352.224" stroke="#000000" stroke-width="0.398" fill="none" /><path id="537" transform="matrix(1 0 0 -1 0 841)" d="M113.508 302.656L129.871 302.656" stroke="#000000" stroke-width="0.436" fill="none" /><path id="550" transform="matrix(1 0 0 -1 0 841)" d="M164.972 302.656L182.372 302.656" stroke="#000000" stroke-width="0.436" fill="none" /><path id="569" transform="matrix(1 0 0 -1 0 841)" d="M193.248 302.656L254.395 302.656" stroke="#000000" stroke-width="0.436" fill="none" /><path id="580" transform="matrix(1 0 0 -1 0 841)" d="M265.271 302.656L307.686 302.656" stroke="#000000" stroke-width="0.436" fill="none" /><path id="598" transform="matrix(1 0 0 -1 0 841)" d="M352.841 302.656L369.204 302.656" stroke="#000000" stroke-width="0.436" fill="none" /><path id="602" transform="matrix(1 0 0 -1 0 841)" d="M322.206 318.013L373.787 318.013" stroke="#000000" stroke-width="0.398" fill="none" /><path id="603" transform="matrix(1 0 0 -1 0 841)" d="M322.406 289.137L322.406 318.013" stroke="#000000" stroke-width="0.398" fill="none" /><path id="604" transform="matrix(1 0 0 -1 0 841)" d="M373.588 289.137L373.588 318.013" stroke="#000000" stroke-width="0.398" fill="none" /><path id="605" transform="matrix(1 0 0 -1 0 841)" d="M322.206 289.137L373.787 289.137" stroke="#000000" stroke-width="0.398" fill="none" /><path id="768" transform="matrix(1 0 0 -1 0 841)" d="M113.508 201.736L129.828 201.736" stroke="#000000" stroke-width="0.436" fill="none" /><path id="780" transform="matrix(1 0 0 -1 0 841)" d="M161.907 201.736L178.27 201.736" stroke="#000000" stroke-width="0.436" fill="none" /><path id="788" transform="matrix(1 0 0 -1 0 841)" d="M189.146 201.736L224.938 201.736" stroke="#000000" stroke-width="0.436" fill="none" /><path id="808" transform="matrix(1 0 0 -1 0 841)" d="M235.814 201.736L278.229 201.736" stroke="#000000" stroke-width="0.436" fill="none" /><path id="823" transform="matrix(1 0 0 -1 0 841)" d="M334.294 201.736L350.614 201.736" stroke="#000000" stroke-width="0.436" fill="none" /><path id="827" transform="matrix(1 0 0 -1 0 841)" d="M292.75 217.093L355.196 217.093" stroke="#000000" stroke-width="0.398" fill="none" /><path id="828" transform="matrix(1 0 0 -1 0 841)" d="M292.949 186.112L292.949 217.093" stroke="#000000" stroke-width="0.398" fill="none" /><path id="829" transform="matrix(1 0 0 -1 0 841)" d="M354.997 186.112L354.997 217.093" stroke="#000000" stroke-width="0.398" fill="none" /><path id="830" transform="matrix(1 0 0 -1 0 841)" d="M292.75 186.112L355.196 186.112" stroke="#000000" stroke-width="0.398" fill="none" /><path id="936" transform="matrix(1 0 0 -1 0 841)" d="M113.508 114.925L168.366 114.925" stroke="#000000" stroke-width="0.436" fill="none" /><path id="957" transform="matrix(1 0 0 -1 0 841)" d="M210.134 114.925L224.38 114.925" stroke="#000000" stroke-width="0.436" fill="none" /><path id="970" transform="matrix(1 0 0 -1 0 841)" d="M235.256 114.925L269.139 114.925" stroke="#000000" stroke-width="0.436" fill="none" /><path id="982" transform="matrix(1 0 0 -1 0 841)" d="M280.015 114.925L334.873 114.925" stroke="#000000" stroke-width="0.436" fill="none" /><path id="1001" transform="matrix(1 0 0 -1 0 841)" d="M378.816 114.925L395.136 114.925" stroke="#000000" stroke-width="0.436" fill="none" /><path id="1005" transform="matrix(1 0 0 -1 0 841)" d="M349.394 130.282L399.719 130.282" stroke="#000000" stroke-width="0.398" fill="none" /><path id="1006" transform="matrix(1 0 0 -1 0 841)" d="M349.593 99.3L349.593 130.281" stroke="#000000" stroke-width="0.398" fill="none" /><path id="1007" transform="matrix(1 0 0 -1 0 841)" d="M399.52 99.3L399.52 130.281" stroke="#000000" stroke-width="0.398" fill="none" /><path id="1008" transform="matrix(1 0 0 -1 0 841)" d="M349.394 99.3L399.719 99.3" stroke="#000000" stroke-width="0.398" fill="none" /></g></g></svg>