<svg xmlns="http://www.w3.org/2000/svg" xmlns:xlink="http://www.w3.org/1999/xlink" id="body_39" preserveAspectRatio="xMinYMin meet" viewBox="0 0 793 1121"><defs><clipPath id="1"><path id="" clip-rule="evenodd" transform="matrix(1 0 0 1 0 0)" d="M0 841L0 -0.8900146L0 -0.8900146L595.276 -0.8900146L595.276 -0.8900146L595.276 841L595.276 841L0 841z" /></clipPath></defs><g transform="matrix(1.333333 0 0 1.333333 0 0)"><g clip-path="url(#1)"><path id="37" transform="matrix(1 0 0 -1 0 841)" d="M85.039 766.564L510.236 766.564" stroke="#000000" stroke-width="0.498" fill="none" /><path id="458" transform="matrix(1 0 0 -1 0 841)" d="M112.063 548.008L137.411 548.008" stroke="#000000" stroke-width="0.491" fill="none" /><path id="465" transform="matrix(1 0 0 -1 0 841)" d="M137.163 548.008L139.89 548.008" stroke="#000000" stroke-width="0.491" fill="none" /><path id="466" transform="matrix(1 0 0 -1 0 841)" d="M139.641 548.008L160.91 548.008" stroke="#000000" stroke-width="0.491" fill="none" /><path id="521" transform="matrix(1 0 0 -1 0 841)" d="M112.063 531.071L138.023 531.071" stroke="#000000" stroke-width="0.491" fill="none" /><path id="526" transform="matrix(1 0 0 -1 0 841)" d="M137.525 531.071L151.965 531.071" stroke="#000000" stroke-width="0.491" fill="none" /><path id="530" transform="matrix(1 0 0 -1 0 841)" d="M151.715 531.071L154.442 531.071" stroke="#000000" stroke-width="0.491" fill="none" /><path id="531" transform="matrix(1 0 0 -1 0 841)" d="M154.194 531.071L175.463 531.071" stroke="#000000" stroke-width="0.491" fill="none" /><path id="580" transform="matrix(1 0 0 -1 0 841)" d="M112.063 514.135L136.626 514.135" stroke="#000000" stroke-width="0.491" fill="none" /><path id="585" transform="matrix(1 0 0 -1 0 841)" d="M136.613 514.135L161.078 514.135" stroke="#000000" stroke-width="0.491" fill="none" /><path id="723" transform="matrix(1 0 0 -1 0 841)" d="M112.063 480.262L135.59 480.262" stroke="#000000" stroke-width="0.491" fill="none" /><path id="728" transform="matrix(1 0 0 -1 0 841)" d="M135.295 480.262L137.951 480.262" stroke="#000000" stroke-width="0.491" fill="none" /><path id="729" transform="matrix(1 0 0 -1 0 841)" d="M137.702 480.262L147.287 480.262" stroke="#000000" stroke-width="0.491" fill="none" /><path id="732" transform="matrix(1 0 0 -1 0 841)" d="M147.02 480.262L149.676 480.262" stroke="#000000" stroke-width="0.491" fill="none" /><path id="733" transform="matrix(1 0 0 -1 0 841)" d="M149.428 480.262L160.224 480.262" stroke="#000000" stroke-width="0.491" fill="none" /><path id="736" transform="matrix(1 0 0 -1 0 841)" d="M159.705 480.262L178.377 480.262" stroke="#000000" stroke-width="0.491" fill="none" /><path id="741" transform="matrix(1 0 0 -1 0 841)" d="M177.843 480.262L196.526 480.262" stroke="#000000" stroke-width="0.491" fill="none" /><path id="815" transform="matrix(1 0 0 -1 0 841)" d="M112.063 446.389L134.979 446.389" stroke="#000000" stroke-width="0.491" fill="none" /><path id="820" transform="matrix(1 0 0 -1 0 841)" d="M134.887 446.389L137.546 446.389" stroke="#000000" stroke-width="0.491" fill="none" /><path id="821" transform="matrix(1 0 0 -1 0 841)" d="M137.297 446.389L146.882 446.389" stroke="#000000" stroke-width="0.491" fill="none" /><path id="824" transform="matrix(1 0 0 -1 0 841)" d="M146.697 446.389L149.356 446.389" stroke="#000000" stroke-width="0.491" fill="none" /><path id="825" transform="matrix(1 0 0 -1 0 841)" d="M149.107 446.389L158.092 446.389" stroke="#000000" stroke-width="0.491" fill="none" /><path id="828" transform="matrix(1 0 0 -1 0 841)" d="M157.654 446.389L169.672 446.389" stroke="#000000" stroke-width="0.491" fill="none" /><path id="831" transform="matrix(1 0 0 -1 0 841)" d="M169.254 446.389L189.737 446.389" stroke="#000000" stroke-width="0.491" fill="none" /><path id="925" transform="matrix(1 0 0 -1 0 841)" d="M112.063 412.516L124.681 412.516" stroke="#000000" stroke-width="0.491" fill="none" /><path id="928" transform="matrix(1 0 0 -1 0 841)" d="M124.195 412.516L142.878 412.516" stroke="#000000" stroke-width="0.491" fill="none" /><path id="933" transform="matrix(1 0 0 -1 0 841)" d="M142.648 412.516L145.385 412.516" stroke="#000000" stroke-width="0.491" fill="none" /><path id="934" transform="matrix(1 0 0 -1 0 841)" d="M145.136 412.516L154.721 412.516" stroke="#000000" stroke-width="0.491" fill="none" /><path id="937" transform="matrix(1 0 0 -1 0 841)" d="M154.481 412.516L157.218 412.516" stroke="#000000" stroke-width="0.491" fill="none" /><path id="938" transform="matrix(1 0 0 -1 0 841)" d="M156.969 412.516L165.954 412.516" stroke="#000000" stroke-width="0.491" fill="none" /><path id="941" transform="matrix(1 0 0 -1 0 841)" d="M165.465 412.516L177.483 412.516" stroke="#000000" stroke-width="0.491" fill="none" /><path id="944" transform="matrix(1 0 0 -1 0 841)" d="M176.996 412.516L197.479 412.516" stroke="#000000" stroke-width="0.491" fill="none" /><path id="1026" transform="matrix(1 0 0 -1 0 841)" d="M112.063 378.643L128.925 378.643" stroke="#000000" stroke-width="0.491" fill="none" /><path id="1030" transform="matrix(1 0 0 -1 0 841)" d="M128.099 378.643L147.382 378.643" stroke="#000000" stroke-width="0.491" fill="none" /><path id="1035" transform="matrix(1 0 0 -1 0 841)" d="M146.758 378.643L149.458 378.643" stroke="#000000" stroke-width="0.491" fill="none" /><path id="1036" transform="matrix(1 0 0 -1 0 841)" d="M149.209 378.643L159.394 378.643" stroke="#000000" stroke-width="0.491" fill="none" /><path id="1039" transform="matrix(1 0 0 -1 0 841)" d="M158.702 378.643L174.342 378.643" stroke="#000000" stroke-width="0.491" fill="none" /><path id="1043" transform="matrix(1 0 0 -1 0 841)" d="M173.541 378.643L185.559 378.643" stroke="#000000" stroke-width="0.491" fill="none" /><path id="1290" transform="matrix(1 0 0 -1 0 841)" d="M112.063 310.897L124.681 310.897" stroke="#000000" stroke-width="0.491" fill="none" /><path id="1293" transform="matrix(1 0 0 -1 0 841)" d="M124.425 310.897L140.349 310.897" stroke="#000000" stroke-width="0.491" fill="none" /><path id="1297" transform="matrix(1 0 0 -1 0 841)" d="M140.166 310.897L154.595 310.897" stroke="#000000" stroke-width="0.491" fill="none" /><path id="1301" transform="matrix(1 0 0 -1 0 841)" d="M154.624 310.897L157.448 310.897" stroke="#000000" stroke-width="0.491" fill="none" /><path id="1302" transform="matrix(1 0 0 -1 0 841)" d="M157.199 310.897L177.093 310.897" stroke="#000000" stroke-width="0.491" fill="none" /><g transform="matrix(0.22678 0 0 0.25067 195.589 564.5001)"><g transform="matrix(1 0 0 1 0 0)"><image x="0" y="0" xlink:href="img_50.png" width="900" height="670" /></g></g></g></g></svg>