<svg xmlns="http://www.w3.org/2000/svg" xmlns:xlink="http://www.w3.org/1999/xlink" id="body_358" preserveAspectRatio="xMinYMin meet" viewBox="0 0 793 1121"><defs><clipPath id="1"><path id="" clip-rule="evenodd" transform="matrix(1 0 0 1 0 0)" d="M0 841L0 -0.8900146L0 -0.8900146L595.276 -0.8900146L595.276 -0.8900146L595.276 841L595.276 841L0 841z" /></clipPath></defs><g transform="matrix(1.333333 0 0 1.333333 0 0)"><g clip-path="url(#1)"><path id="34" transform="matrix(1 0 0 -1 0 841)" d="M85.039 766.564L510.236 766.564" stroke="#000000" stroke-width="0.498" fill="none" /><g transform="matrix(0.06 0 0 0.06 112.312 84.15002)"><g transform="matrix(1 0 0 1 0 0)"><image x="0" y="0" xlink:href="img_445.png" width="3009" height="713" /></g></g><g transform="matrix(0.08727273 0 0 0.0872727 112.312 133.595)"><g transform="matrix(1 0 0 1 0 0)"><image x="0" y="0" xlink:href="img_505.png" width="1585" height="521" /></g></g><path id="49" transform="matrix(1 0 0 -1 0 841)" d="M279.543 664.663L340.47 664.663" stroke="#000000" stroke-width="0.436" fill="none" /><path id="67" transform="matrix(1 0 0 -1 0 841)" d="M382.86 672.575L409.631 672.575" stroke="#000000" stroke-width="0.398" fill="none" /><path id="68" transform="matrix(1 0 0 -1 0 841)" d="M383.06 658.579L383.06 672.575" stroke="#000000" stroke-width="0.398" fill="none" /><path id="69" transform="matrix(1 0 0 -1 0 841)" d="M409.432 658.579L409.432 672.575" stroke="#000000" stroke-width="0.398" fill="none" /><path id="70" transform="matrix(1 0 0 -1 0 841)" d="M382.86 658.579L409.631 658.579" stroke="#000000" stroke-width="0.398" fill="none" /></g></g></svg>