<svg xmlns="http://www.w3.org/2000/svg" xmlns:xlink="http://www.w3.org/1999/xlink" id="body_38" preserveAspectRatio="xMinYMin meet" viewBox="0 0 793 1121"><defs><clipPath id="1"><path id="" clip-rule="evenodd" transform="matrix(1 0 0 1 0 0)" d="M0 841L0 -0.8900146L0 -0.8900146L595.276 -0.8900146L595.276 -0.8900146L595.276 841L595.276 841L0 841z" /></clipPath></defs><g transform="matrix(1.333333 0 0 1.333333 0 0)"><g clip-path="url(#1)"><path id="18" transform="matrix(1 0 0 -1 0 841)" d="M85.039 766.564L510.236 766.564" stroke="#000000" stroke-width="0.498" fill="none" /><g transform="matrix(0.07636362 0 0 0.07636364 88.427 87.53912)"><g transform="matrix(1 0 0 1 0 0)"><image x="0" y="0" xlink:href="img_53.png" width="1681" height="2032" /></g></g><g transform="matrix(0.5 0 0 0.5 227.92 102.21)"><g transform="matrix(1 0 0 1 0 0)"><image x="0" y="0" xlink:href="img_54.png" width="278" height="281" /></g></g><g transform="matrix(0.45 0 0 0.45 400.72 109.96)"><g transform="matrix(1 0 0 1 0 0)"><image x="0" y="0" xlink:href="img_55.png" width="221" height="295" /></g></g><g transform="matrix(0.1090909 0 0 0.1090909 113.289 252.6723)"><g transform="matrix(1 0 0 1 0 0)"><image x="0" y="0" xlink:href="img_56.png" width="1558" height="2010" /></g></g><g transform="matrix(0.1090909 0 0 0.1090909 317.053 289.3268)"><g transform="matrix(1 0 0 1 0 0)"><image x="0" y="0" xlink:href="img_57.png" width="1574" height="1674" /></g></g><g transform="matrix(0.09818183 0 0 0.09818183 114.089 484.8946)"><g transform="matrix(1 0 0 1 0 0)"><image x="0" y="0" xlink:href="img_58.png" width="3808" height="1922" /></g></g><path id="25" transform="matrix(1 0 0 -1 0 841)" d="M85.039 756.6509L517.01 756.6509" stroke="#000000" stroke-width="0.398" fill="none" /><path id="26" transform="matrix(1 0 0 -1 0 841)" d="M85.239 152.257L85.239 756.6509" stroke="#000000" stroke-width="0.398" fill="none" /><path id="27" transform="matrix(1 0 0 -1 0 841)" d="M516.812 152.257L516.812 756.6509" stroke="#000000" stroke-width="0.398" fill="none" /><path id="28" transform="matrix(1 0 0 -1 0 841)" d="M85.039 152.257L517.01 152.257" stroke="#000000" stroke-width="0.398" fill="none" /></g></g></svg>