<svg xmlns="http://www.w3.org/2000/svg" xmlns:xlink="http://www.w3.org/1999/xlink" id="body_347" preserveAspectRatio="xMinYMin meet" viewBox="0 0 793 1121"><defs><clipPath id="1"><path id="" clip-rule="evenodd" transform="matrix(1 0 0 1 0 0)" d="M0 841L0 -0.8900146L0 -0.8900146L595.276 -0.8900146L595.276 -0.8900146L595.276 841L595.276 841L0 841z" /></clipPath></defs><g transform="matrix(1.333333 0 0 1.333333 0 0)"><g clip-path="url(#1)"><path id="34" transform="matrix(1 0 0 -1 0 841)" d="M85.039 766.564L510.236 766.564" stroke="#000000" stroke-width="0.498" fill="none" /><path id="38" transform="matrix(1 0 0 -1 0 841)" d="M113.508 730.642L129.261 730.642" stroke="#000000" stroke-width="0.436" fill="none" /><path id="49" transform="matrix(1 0 0 -1 0 841)" d="M167.885 730.642L185.459 730.642" stroke="#000000" stroke-width="0.436" fill="none" /><path id="69" transform="matrix(1 0 0 -1 0 841)" d="M258.648 730.642L272.59 730.642" stroke="#000000" stroke-width="0.436" fill="none" /><path id="93" transform="matrix(1 0 0 -1 0 841)" d="M399.602 730.642L413.544 730.642" stroke="#000000" stroke-width="0.436" fill="none" /><path id="99" transform="matrix(1 0 0 -1 0 841)" d="M457.132 744.742L472.885 744.742" stroke="#000000" stroke-width="0.436" fill="none" /><path id="103" transform="matrix(1 0 0 -1 0 841)" d="M430.012 730.642L500.004 730.642" stroke="#000000" stroke-width="0.436" fill="none" /><path id="110" transform="matrix(1 0 0 -1 0 841)" d="M453.364 717.159L470.938 717.159" stroke="#000000" stroke-width="0.436" fill="none" /><path id="134" transform="matrix(1 0 0 -1 0 841)" d="M175.318 677.382L189.26 677.382" stroke="#000000" stroke-width="0.436" fill="none" /><path id="142" transform="matrix(1 0 0 -1 0 841)" d="M233.437 691.481L249.19 691.481" stroke="#000000" stroke-width="0.436" fill="none" /><path id="146" transform="matrix(1 0 0 -1 0 841)" d="M204.975 677.382L266.741 677.382" stroke="#000000" stroke-width="0.436" fill="none" /><path id="152" transform="matrix(1 0 0 -1 0 841)" d="M220.101 663.899L237.675 663.899" stroke="#000000" stroke-width="0.436" fill="none" /><path id="165" transform="matrix(1 0 0 -1 0 841)" d="M291.299 677.382L305.241 677.382" stroke="#000000" stroke-width="0.436" fill="none" /><path id="167" transform="matrix(1 0 0 -1 0 841)" d="M281.262 690.192L309.824 690.192" stroke="#000000" stroke-width="0.398" fill="none" /><path id="168" transform="matrix(1 0 0 -1 0 841)" d="M281.461 663.983L281.461 690.192" stroke="#000000" stroke-width="0.398" fill="none" /><path id="169" transform="matrix(1 0 0 -1 0 841)" d="M309.624 663.983L309.624 690.192" stroke="#000000" stroke-width="0.398" fill="none" /><path id="170" transform="matrix(1 0 0 -1 0 841)" d="M281.262 663.983L309.824 663.983" stroke="#000000" stroke-width="0.398" fill="none" /><path id="336" transform="matrix(1 0 0 -1 0 841)" d="M354.3337 508.5464C 354.3337 532.03 335.297 551.0667 311.8135 551.0667C 288.3299 551.0667 269.2933 532.03 269.2933 508.5464C 269.2933 485.0629 288.3299 466.0262 311.8135 466.0262C 335.297 466.0262 354.3337 485.0629 354.3337 508.5464z" stroke="#000000" stroke-width="0.3985" fill="#F2F2F2" fill-rule="nonzero" /><path id="337" transform="matrix(1 0 0 -1 0 841)" d="M269.2932 508.5464L354.3337 508.5464" stroke="#000000" stroke-width="1.19553" fill="none" /><path id="366" transform="matrix(1 0 0 -1 0 841)" d="M289.1359 471.6955L311.8135 508.5464" stroke="#000000" stroke-width="1.19553" fill="none" /><path id="367" transform="matrix(1 0 0 -1 0 841)" d="M334.491 471.6955L311.8135 508.5464" stroke="#000000" stroke-width="1.19553" fill="none" /><path id="371" transform="matrix(1 0 0 -1 0 841)" d="M113.508 372.558L129.261 372.558" stroke="#000000" stroke-width="0.436" fill="none" /><path id="382" transform="matrix(1 0 0 -1 0 841)" d="M167.885 372.558L185.459 372.558" stroke="#000000" stroke-width="0.436" fill="none" /><path id="402" transform="matrix(1 0 0 -1 0 841)" d="M258.648 372.558L272.59 372.558" stroke="#000000" stroke-width="0.436" fill="none" /><path id="426" transform="matrix(1 0 0 -1 0 841)" d="M399.602 372.558L413.544 372.558" stroke="#000000" stroke-width="0.436" fill="none" /><path id="432" transform="matrix(1 0 0 -1 0 841)" d="M457.132 386.658L472.885 386.658" stroke="#000000" stroke-width="0.436" fill="none" /><path id="436" transform="matrix(1 0 0 -1 0 841)" d="M430.012 372.558L500.004 372.558" stroke="#000000" stroke-width="0.436" fill="none" /><path id="443" transform="matrix(1 0 0 -1 0 841)" d="M453.364 359.075L470.938 359.075" stroke="#000000" stroke-width="0.436" fill="none" /><path id="467" transform="matrix(1 0 0 -1 0 841)" d="M175.318 319.298L189.26 319.298" stroke="#000000" stroke-width="0.436" fill="none" /><path id="474" transform="matrix(1 0 0 -1 0 841)" d="M307.494 333.397L323.247 333.397" stroke="#000000" stroke-width="0.436" fill="none" /><path id="478" transform="matrix(1 0 0 -1 0 841)" d="M204.975 319.298L420.31 319.298" stroke="#000000" stroke-width="0.436" fill="none" /><path id="498" transform="matrix(1 0 0 -1 0 841)" d="M251.761 301.408L285.699 301.408" stroke="#000000" stroke-width="0.436" fill="none" /><path id="505" transform="matrix(1 0 0 -1 0 841)" d="M296.574 301.408L382.616 301.408" stroke="#000000" stroke-width="0.436" fill="none" /><path id="537" transform="matrix(1 0 0 -1 0 841)" d="M444.868 319.298L458.81 319.298" stroke="#000000" stroke-width="0.436" fill="none" /><path id="539" transform="matrix(1 0 0 -1 0 841)" d="M434.831 332.108L463.393 332.108" stroke="#000000" stroke-width="0.398" fill="none" /><path id="540" transform="matrix(1 0 0 -1 0 841)" d="M435.03 305.899L435.03 332.108" stroke="#000000" stroke-width="0.398" fill="none" /><path id="541" transform="matrix(1 0 0 -1 0 841)" d="M463.193 305.899L463.193 332.108" stroke="#000000" stroke-width="0.398" fill="none" /><path id="542" transform="matrix(1 0 0 -1 0 841)" d="M434.831 305.899L463.393 305.899" stroke="#000000" stroke-width="0.398" fill="none" /></g></g></svg>