<svg xmlns="http://www.w3.org/2000/svg" xmlns:xlink="http://www.w3.org/1999/xlink" id="body_265" preserveAspectRatio="xMinYMin meet" viewBox="0 0 793 1121"><defs><clipPath id="1"><path id="" clip-rule="evenodd" transform="matrix(1 0 0 1 0 0)" d="M0 841L0 -0.8900146L0 -0.8900146L595.276 -0.8900146L595.276 -0.8900146L595.276 841L595.276 841L0 841z" /></clipPath></defs><g transform="matrix(1.333333 0 0 1.333333 0 0)"><g clip-path="url(#1)"><path id="19" transform="matrix(1 0 0 -1 0 841)" d="M85.039 766.564L510.236 766.564" stroke="#000000" stroke-width="0.498" fill="none" /><path id="20" transform="matrix(1 0 0 -1 0 841)" d="M85.039 756.651L490.13 756.651" stroke="#000000" stroke-width="0.398" fill="none" /><path id="21" transform="matrix(1 0 0 -1 0 841)" d="M85.239 742.903L85.239 756.452" stroke="#000000" stroke-width="0.398" fill="none" /><path id="60" transform="matrix(1 0 0 -1 0 841)" d="M489.931 742.903L489.931 756.452" stroke="#000000" stroke-width="0.398" fill="none" /><path id="61" transform="matrix(1 0 0 -1 0 841)" d="M85.039 742.703L490.13 742.703" stroke="#000000" stroke-width="0.398" fill="none" /><path id="62" transform="matrix(1 0 0 -1 0 841)" d="M85.239 728.955L85.239 742.504" stroke="#000000" stroke-width="0.398" fill="none" /><path id="108" transform="matrix(1 0 0 -1 0 841)" d="M489.931 728.955L489.931 742.504" stroke="#000000" stroke-width="0.398" fill="none" /><path id="109" transform="matrix(1 0 0 -1 0 841)" d="M85.039 728.756L490.13 728.756" stroke="#000000" stroke-width="0.398" fill="none" /><path id="110" transform="matrix(1 0 0 -1 0 841)" d="M97.194 715.007L97.194 728.556" stroke="#000000" stroke-width="0.398" fill="none" /><path id="116" transform="matrix(1 0 0 -1 0 841)" d="M137.42 715.007L137.42 728.556" stroke="#000000" stroke-width="0.398" fill="none" /><path id="154" transform="matrix(1 0 0 -1 0 841)" d="M489.931 715.007L489.931 728.556" stroke="#000000" stroke-width="0.398" fill="none" /><path id="155" transform="matrix(1 0 0 -1 0 841)" d="M97.393 714.808L490.13 714.808" stroke="#000000" stroke-width="0.398" fill="none" /><path id="156" transform="matrix(1 0 0 -1 0 841)" d="M97.194 701.458L97.194 715.007" stroke="#000000" stroke-width="0.398" fill="none" /><path id="162" transform="matrix(1 0 0 -1 0 841)" d="M137.42 701.458L137.42 715.007" stroke="#000000" stroke-width="0.398" fill="none" /><path id="203" transform="matrix(1 0 0 -1 0 841)" d="M489.931 701.458L489.931 715.007" stroke="#000000" stroke-width="0.398" fill="none" /><path id="204" transform="matrix(1 0 0 -1 0 841)" d="M97.393 701.259L490.13 701.259" stroke="#000000" stroke-width="0.398" fill="none" /><path id="205" transform="matrix(1 0 0 -1 0 841)" d="M97.194 687.909L97.194 701.458" stroke="#000000" stroke-width="0.398" fill="none" /><path id="211" transform="matrix(1 0 0 -1 0 841)" d="M137.42 687.909L137.42 701.458" stroke="#000000" stroke-width="0.398" fill="none" /><path id="255" transform="matrix(1 0 0 -1 0 841)" d="M489.931 687.909L489.931 701.458" stroke="#000000" stroke-width="0.398" fill="none" /><path id="256" transform="matrix(1 0 0 -1 0 841)" d="M97.393 687.71L490.13 687.71" stroke="#000000" stroke-width="0.398" fill="none" /><path id="257" transform="matrix(1 0 0 -1 0 841)" d="M97.194 674.36L97.194 687.909" stroke="#000000" stroke-width="0.398" fill="none" /><path id="263" transform="matrix(1 0 0 -1 0 841)" d="M137.42 674.36L137.42 687.909" stroke="#000000" stroke-width="0.398" fill="none" /><path id="307" transform="matrix(1 0 0 -1 0 841)" d="M489.931 674.36L489.931 687.909" stroke="#000000" stroke-width="0.398" fill="none" /><path id="308" transform="matrix(1 0 0 -1 0 841)" d="M97.393 674.161L490.13 674.161" stroke="#000000" stroke-width="0.398" fill="none" /><path id="309" transform="matrix(1 0 0 -1 0 841)" d="M97.194 660.811L97.194 674.36" stroke="#000000" stroke-width="0.398" fill="none" /><path id="315" transform="matrix(1 0 0 -1 0 841)" d="M137.42 660.811L137.42 674.36" stroke="#000000" stroke-width="0.398" fill="none" /><path id="347" transform="matrix(1 0 0 -1 0 841)" d="M489.931 660.811L489.931 674.36" stroke="#000000" stroke-width="0.398" fill="none" /><path id="348" transform="matrix(1 0 0 -1 0 841)" d="M97.393 660.611L490.13 660.611" stroke="#000000" stroke-width="0.398" fill="none" /><path id="349" transform="matrix(1 0 0 -1 0 841)" d="M97.194 647.261L97.194 660.81" stroke="#000000" stroke-width="0.398" fill="none" /><path id="355" transform="matrix(1 0 0 -1 0 841)" d="M137.42 647.261L137.42 660.81" stroke="#000000" stroke-width="0.398" fill="none" /><path id="390" transform="matrix(1 0 0 -1 0 841)" d="M489.931 647.261L489.931 660.81" stroke="#000000" stroke-width="0.398" fill="none" /><path id="391" transform="matrix(1 0 0 -1 0 841)" d="M97.393 647.062L490.13 647.062" stroke="#000000" stroke-width="0.398" fill="none" /><path id="392" transform="matrix(1 0 0 -1 0 841)" d="M97.194 633.712L97.194 647.261" stroke="#000000" stroke-width="0.398" fill="none" /><path id="398" transform="matrix(1 0 0 -1 0 841)" d="M137.42 633.712L137.42 647.261" stroke="#000000" stroke-width="0.398" fill="none" /><path id="428" transform="matrix(1 0 0 -1 0 841)" d="M489.931 633.712L489.931 647.261" stroke="#000000" stroke-width="0.398" fill="none" /><path id="429" transform="matrix(1 0 0 -1 0 841)" d="M97.393 633.513L490.13 633.513" stroke="#000000" stroke-width="0.398" fill="none" /><path id="430" transform="matrix(1 0 0 -1 0 841)" d="M97.194 620.163L97.194 633.712" stroke="#000000" stroke-width="0.398" fill="none" /><path id="436" transform="matrix(1 0 0 -1 0 841)" d="M137.42 620.163L137.42 633.712" stroke="#000000" stroke-width="0.398" fill="none" /><path id="472" transform="matrix(1 0 0 -1 0 841)" d="M489.931 620.163L489.931 633.712" stroke="#000000" stroke-width="0.398" fill="none" /><path id="473" transform="matrix(1 0 0 -1 0 841)" d="M97.393 619.964L490.13 619.964" stroke="#000000" stroke-width="0.398" fill="none" /></g></g></svg>