<svg xmlns="http://www.w3.org/2000/svg" xmlns:xlink="http://www.w3.org/1999/xlink" id="body_3" preserveAspectRatio="xMinYMin meet" viewBox="0 0 793 1121"><defs><clipPath id="1"><path id="" clip-rule="evenodd" transform="matrix(1 0 0 1 0 0)" d="M0 841L0 -0.8900146L0 -0.8900146L595.276 -0.8900146L595.276 -0.8900146L595.276 841L595.276 841L0 841z" /></clipPath></defs><g transform="matrix(1.333333 0 0 1.333333 0 0)"><g clip-path="url(#1)"><path id="25" transform="matrix(1 0 0 -1 0 841)" d="M85.039 714.014L115.07 714.014L115.07 733.856L85.039 733.856z" stroke="none" fill="#FDE0D1" fill-rule="nonzero" /><path id="28" transform="matrix(1 0 0 -1 0 841)" d="M119.055 714.014L510.236 714.014L510.236 733.856L119.055 733.856z" stroke="none" fill="#FAC2A3" fill-rule="nonzero" /><path id="541" transform="matrix(1 0 0 -1 0 841)" d="M85.039 474.935L115.07 474.935L115.07 494.777L85.039 494.777z" stroke="none" fill="#FDE0D1" fill-rule="nonzero" /><path id="545" transform="matrix(1 0 0 -1 0 841)" d="M119.055 474.935L510.236 474.935L510.236 494.777L119.055 494.777z" stroke="none" fill="#FAC2A3" fill-rule="nonzero" /></g></g></svg>