<svg xmlns="http://www.w3.org/2000/svg" xmlns:xlink="http://www.w3.org/1999/xlink" id="body_282" preserveAspectRatio="xMinYMin meet" viewBox="0 0 793 1121"><defs><clipPath id="1"><path id="" clip-rule="evenodd" transform="matrix(1 0 0 1 0 0)" d="M0 841L0 -0.8900146L0 -0.8900146L595.276 -0.8900146L595.276 -0.8900146L595.276 841L595.276 841L0 841z" /></clipPath></defs><g transform="matrix(1.333333 0 0 1.333333 0 0)"><g clip-path="url(#1)"><path id="23" transform="matrix(1 0 0 -1 0 841)" d="M85.039 766.564L510.236 766.564" stroke="#000000" stroke-width="0.498" fill="none" /><path id="154" transform="matrix(1 0 0 -1 0 841)" d="M451.548 703.407L467.911 703.407" stroke="#000000" stroke-width="0.436" fill="none" /><path id="161" transform="matrix(1 0 0 -1 0 841)" d="M478.758 703.407L498.154 703.407" stroke="#000000" stroke-width="0.436" fill="none" /><path id="173" transform="matrix(1 0 0 -1 0 841)" d="M137.508 678.13L168.118 678.13" stroke="#000000" stroke-width="0.436" fill="none" /><path id="209" transform="matrix(1 0 0 -1 0 841)" d="M292.992 644.856L323.602 644.856" stroke="#000000" stroke-width="0.436" fill="none" /><path id="225" transform="matrix(1 0 0 -1 0 841)" d="M334.878 644.856L368.761 644.856" stroke="#000000" stroke-width="0.436" fill="none" /><path id="234" transform="matrix(1 0 0 -1 0 841)" d="M380.037 644.856L441.184 644.856" stroke="#000000" stroke-width="0.436" fill="none" /><path id="259" transform="matrix(1 0 0 -1 0 841)" d="M452.46 644.856L490.642 644.856" stroke="#000000" stroke-width="0.436" fill="none" /><path id="271" transform="matrix(1 0 0 -1 0 841)" d="M136.312 628.233L187.748 628.233" stroke="#000000" stroke-width="0.398" fill="none" /><path id="272" transform="matrix(1 0 0 -1 0 841)" d="M136.511 614.221L136.511 628.233" stroke="#000000" stroke-width="0.398" fill="none" /><path id="273" transform="matrix(1 0 0 -1 0 841)" d="M187.549 614.221L187.549 628.233" stroke="#000000" stroke-width="0.398" fill="none" /><path id="274" transform="matrix(1 0 0 -1 0 841)" d="M136.312 614.221L187.748 614.221" stroke="#000000" stroke-width="0.398" fill="none" /><path id="367" transform="matrix(1 0 0 -1 0 841)" d="M216.593 573.792L291.408 573.792" stroke="#000000" stroke-width="0.436" fill="none" /><path id="468" transform="matrix(1 0 0 -1 0 841)" d="M242.628 521.853L260.028 521.853" stroke="#000000" stroke-width="0.436" fill="none" /><path id="487" transform="matrix(1 0 0 -1 0 841)" d="M323.007 521.853L340.407 521.853" stroke="#000000" stroke-width="0.436" fill="none" /><path id="492" transform="matrix(1 0 0 -1 0 841)" d="M216.593 507.89L341.603 507.89" stroke="#000000" stroke-width="0.436" fill="none" /><path id="500" transform="matrix(1 0 0 -1 0 841)" d="M281.825 494.625L298.188 494.625" stroke="#000000" stroke-width="0.436" fill="none" /><path id="515" transform="matrix(1 0 0 -1 0 841)" d="M356.123 515.801L414.008 515.801" stroke="#000000" stroke-width="0.398" fill="none" /><path id="516" transform="matrix(1 0 0 -1 0 841)" d="M356.322 499.749L356.322 515.801" stroke="#000000" stroke-width="0.398" fill="none" /><path id="517" transform="matrix(1 0 0 -1 0 841)" d="M413.808 499.749L413.808 515.801" stroke="#000000" stroke-width="0.398" fill="none" /><path id="518" transform="matrix(1 0 0 -1 0 841)" d="M356.123 499.749L414.008 499.749" stroke="#000000" stroke-width="0.398" fill="none" /><path id="647" transform="matrix(1 0 0 -1 0 841)" d="M231.842 426.488L334.244 426.488" stroke="#000000" stroke-width="0.436" fill="none" /><path id="701" transform="matrix(1 0 0 -1 0 841)" d="M278.074 391.21L359.084 391.21" stroke="#000000" stroke-width="0.436" fill="none" /><path id="754" transform="matrix(1 0 0 -1 0 841)" d="M317.102 355.288L383.704 355.288" stroke="#000000" stroke-width="0.436" fill="none" /><path id="763" transform="matrix(1 0 0 -1 0 841)" d="M395.252 355.288L441.256 355.288" stroke="#000000" stroke-width="0.436" fill="none" /><path id="779" transform="matrix(1 0 0 -1 0 841)" d="M469.168 355.288L485.531 355.288" stroke="#000000" stroke-width="0.436" fill="none" /><path id="792" transform="matrix(1 0 0 -1 0 841)" d="M136.312 341.514L178.988 341.514" stroke="#000000" stroke-width="0.398" fill="none" /><path id="793" transform="matrix(1 0 0 -1 0 841)" d="M136.511 327.458L136.511 341.514" stroke="#000000" stroke-width="0.398" fill="none" /><path id="794" transform="matrix(1 0 0 -1 0 841)" d="M178.789 327.458L178.789 341.514" stroke="#000000" stroke-width="0.398" fill="none" /><path id="795" transform="matrix(1 0 0 -1 0 841)" d="M136.312 327.458L178.988 327.458" stroke="#000000" stroke-width="0.398" fill="none" /><path id="1003" transform="matrix(1 0 0 -1 0 841)" d="M320.887 263.138L418.86 263.138" stroke="#000000" stroke-width="0.436" fill="none" /><path id="1223" transform="matrix(1 0 0 -1 0 841)" d="M253.175 142.546L289.96 142.546" stroke="#000000" stroke-width="0.436" fill="none" /><path id="1242" transform="matrix(1 0 0 -1 0 841)" d="M300.836 142.546L367.438 142.546" stroke="#000000" stroke-width="0.436" fill="none" /><path id="1253" transform="matrix(1 0 0 -1 0 841)" d="M378.314 142.546L417.106 142.546" stroke="#000000" stroke-width="0.436" fill="none" /><path id="1261" transform="matrix(1 0 0 -1 0 841)" d="M251.98 128.583L418.302 128.583" stroke="#000000" stroke-width="0.436" fill="none" /><path id="1284" transform="matrix(1 0 0 -1 0 841)" d="M432.822 138.881L498.286 138.881" stroke="#000000" stroke-width="0.398" fill="none" /><path id="1285" transform="matrix(1 0 0 -1 0 841)" d="M433.021 119.94L433.021 138.881" stroke="#000000" stroke-width="0.398" fill="none" /><path id="1286" transform="matrix(1 0 0 -1 0 841)" d="M498.087 119.94L498.087 138.881" stroke="#000000" stroke-width="0.398" fill="none" /><path id="1287" transform="matrix(1 0 0 -1 0 841)" d="M432.822 119.94L498.286 119.94" stroke="#000000" stroke-width="0.398" fill="none" /></g></g></svg>