<svg xmlns="http://www.w3.org/2000/svg" xmlns:xlink="http://www.w3.org/1999/xlink" id="body_270" preserveAspectRatio="xMinYMin meet" viewBox="0 0 793 1121"><defs><clipPath id="1"><path id="" clip-rule="evenodd" transform="matrix(1 0 0 1 0 0)" d="M0 841L0 -0.8900146L0 -0.8900146L595.276 -0.8900146L595.276 -0.8900146L595.276 841L595.276 841L0 841z" /></clipPath></defs><g transform="matrix(1.333333 0 0 1.333333 0 0)"><g clip-path="url(#1)"><path id="23" transform="matrix(1 0 0 -1 0 841)" d="M85.039 766.564L510.236 766.564" stroke="#000000" stroke-width="0.498" fill="none" /><path id="240" transform="matrix(1 0 0 -1 0 841)" d="M369.01 671.847L413.911 671.847" stroke="#000000" stroke-width="0.398" fill="none" /><path id="241" transform="matrix(1 0 0 -1 0 841)" d="M369.209 657.72L369.209 671.847" stroke="#000000" stroke-width="0.398" fill="none" /><path id="242" transform="matrix(1 0 0 -1 0 841)" d="M413.712 657.72L413.712 671.847" stroke="#000000" stroke-width="0.398" fill="none" /><path id="243" transform="matrix(1 0 0 -1 0 841)" d="M369.01 657.72L413.911 657.72" stroke="#000000" stroke-width="0.398" fill="none" /><path id="602" transform="matrix(1 0 0 -1 0 841)" d="M328.7036 494.4658L263.9464 494.4658C 261.7455 494.4658 259.9613 492.6817 259.9613 490.4807L259.9613 490.4807L259.9613 465.7233C 259.9613 463.5223 261.7455 461.7382 263.9464 461.7382L263.9464 461.7382L328.7036 461.7382C 330.9045 461.7382 332.6887 463.5223 332.6887 465.7233L332.6887 465.7233L332.6887 490.4807C 332.6887 492.6817 330.9045 494.4658 328.7036 494.4658z" stroke="#000000" stroke-width="0.3985" fill="#FF9999" fill-rule="nonzero" /><path id="638" transform="matrix(1 0 0 -1 0 841)" d="M235.5694 478.102L257.3711 478.102" stroke="#000000" stroke-width="0.3985" fill="none" /><path id="639" transform="matrix(1 0 0 -1 0 841)" d="M259.7621 478.102C 258.7658 478.3012 256.9725 478.6997 255.777 479.5964C 256.7733 478.5005 256.7733 477.7035 255.777 476.6076C 256.9725 477.5042 258.7658 477.9027 259.7621 478.102z" stroke="none" fill="#000000" fill-rule="nonzero" /><path id="640" transform="matrix(1 0 0 -1 0 841)" d="M332.8879 478.102L352.0634 478.102" stroke="#000000" stroke-width="0.3985" fill="none" /><path id="641" transform="matrix(1 0 0 -1 0 841)" d="M354.4544 478.102C 353.4582 478.3012 351.6649 478.6997 350.4694 479.5964C 351.4657 478.5005 351.4657 477.7035 350.4694 476.6076C 351.6649 477.5042 353.4582 477.9027 354.4544 478.102z" stroke="none" fill="#000000" fill-rule="nonzero" /><path id="642" transform="matrix(1 0 0 -1 0 841)" d="M296.325 461.5389L296.325 446.7035" stroke="#000000" stroke-width="0.3985" fill="none" /><path id="643" transform="matrix(1 0 0 -1 0 841)" d="M296.325 444.3125C 296.5243 445.3087 296.9228 447.102 297.8194 448.2975C 296.7235 447.3012 295.9265 447.3012 294.8306 448.2975C 295.7273 447.102 296.1258 445.3087 296.325 444.3125z" stroke="none" fill="#000000" fill-rule="nonzero" /><path id="674" transform="matrix(1 0 0 -1 0 841)" d="M244.376 402.016L289.138 402.016" stroke="#000000" stroke-width="0.436" fill="none" /><path id="1249" transform="matrix(1 0 0 -1 0 841)" d="M328.7036 251.4388L263.9464 251.4388C 261.7455 251.4388 259.9613 249.6547 259.9613 247.4537L259.9613 247.4537L259.9613 222.6963C 259.9613 220.4953 261.7455 218.7112 263.9464 218.7112L263.9464 218.7112L328.7036 218.7112C 330.9045 218.7112 332.6887 220.4953 332.6887 222.6963L332.6887 222.6963L332.6887 247.4537C 332.6887 249.6547 330.9045 251.4388 328.7036 251.4388z" stroke="#000000" stroke-width="0.3985" fill="#FF9999" fill-rule="nonzero" /><path id="1304" transform="matrix(1 0 0 -1 0 841)" d="M246.7745 235.075L257.3711 235.075" stroke="#000000" stroke-width="0.3985" fill="none" /><path id="1305" transform="matrix(1 0 0 -1 0 841)" d="M259.7621 235.075C 258.7658 235.2742 256.9725 235.6727 255.777 236.5694C 256.7733 235.4735 256.7733 234.6765 255.777 233.5806C 256.9725 234.4772 258.7658 234.8757 259.7621 235.075z" stroke="none" fill="#000000" fill-rule="nonzero" /><path id="1306" transform="matrix(1 0 0 -1 0 841)" d="M332.8879 235.075L340.8583 235.075" stroke="#000000" stroke-width="0.3985" fill="none" /><path id="1307" transform="matrix(1 0 0 -1 0 841)" d="M343.2494 235.075C 342.2531 235.2742 340.4598 235.6727 339.2643 236.5694C 340.2606 235.4735 340.2606 234.6765 339.2643 233.5806C 340.4598 234.4772 342.2531 234.8757 343.2494 235.075z" stroke="none" fill="#000000" fill-rule="nonzero" /><path id="1308" transform="matrix(1 0 0 -1 0 841)" d="M296.325 218.5119L296.325 203.6765" stroke="#000000" stroke-width="0.3985" fill="none" /><path id="1309" transform="matrix(1 0 0 -1 0 841)" d="M296.325 201.2855C 296.5243 202.2818 296.9228 204.075 297.8194 205.2705C 296.7235 204.2743 295.9265 204.2743 294.8306 205.2705C 295.7273 204.075 296.1258 202.2818 296.325 201.2855z" stroke="none" fill="#000000" fill-rule="nonzero" /></g></g></svg>