<svg xmlns="http://www.w3.org/2000/svg" xmlns:xlink="http://www.w3.org/1999/xlink" id="body_352" preserveAspectRatio="xMinYMin meet" viewBox="0 0 793 1121"><defs><clipPath id="1"><path id="" clip-rule="evenodd" transform="matrix(1 0 0 1 0 0)" d="M0 841L0 -0.8900146L0 -0.8900146L595.276 -0.8900146L595.276 -0.8900146L595.276 841L595.276 841L0 841z" /></clipPath><clipPath id="2"><path id="" clip-rule="evenodd" transform="matrix(1 0 0 1 0 0)" d="M165.286 244.9311L291.3886 244.9311L291.3886 244.9311L291.3886 104.3331L291.3886 104.3331L165.286 104.3331z" /></clipPath></defs><g transform="matrix(1.333333 0 0 1.333333 0 0)"><g clip-path="url(#1)"><path id="34" transform="matrix(1 0 0 -1 0 841)" d="M85.039 766.564L510.236 766.564" stroke="#000000" stroke-width="0.498" fill="none" /><path id="59" transform="matrix(1 0 0 -1 0 841)" d="M285.4348 596.0689L285.4348 736.6669M200.1756 596.0689L200.1756 736.6669" stroke="#BFBFBF" stroke-width="0.3985" fill="none" /><path id="60" transform="matrix(1 0 0 -1 0 841)" d="M165.286 714.5567L291.3886 714.5567M165.286 649.6436L291.3886 649.6436M165.286 623.8483L291.3886 623.8483" stroke="#BFBFBF" stroke-width="0.3985" fill="none" /><path id="61" transform="matrix(1 0 0 -1 0 841)" d="M285.4348 599.0453L285.4348 603.2971M200.1756 599.0453L200.1756 603.2971" stroke="#808080" stroke-width="0.19925" fill="none" /><path id="62" transform="matrix(1 0 0 -1 0 841)" d="M164.232 714.5567L168.4834 714.5567M164.232 649.6436L168.4834 649.6436M164.232 623.8483L168.4834 623.8483" stroke="#808080" stroke-width="0.19925" fill="none" /><path id="63" transform="matrix(1 0 0 -1 0 841)" d="M165.286 601.1713L289.3961 601.1713" stroke="#000000" stroke-width="0.3985" fill="none" /><path id="64" transform="matrix(1 0 0 -1 0 841)" d="M291.3886 601.1712L288.2006 602.7652L289.3961 601.1712L288.2006 599.5772" stroke="none" fill="#000000" fill-rule="nonzero" /><path id="65" transform="matrix(1 0 0 -1 0 841)" d="M166.3577 596.0689L166.3577 734.6744" stroke="#000000" stroke-width="0.3985" fill="none" /><path id="66" transform="matrix(1 0 0 -1 0 841)" d="M166.3576 736.6668L164.7636 733.4788L166.3576 734.6743L167.9516 733.4788" stroke="none" fill="#000000" fill-rule="nonzero" /><g clip-path="url(#2)"><path id="78" transform="matrix(1 0 0 -1 0 841)" d="M166.3577 623.8483C 166.3577 623.8483 166.4438 623.9139 166.4769 623.9391C 166.5099 623.9644 166.563 624.0048 166.596 624.0299C 166.6291 624.0551 166.6822 624.0955 166.7152 624.1207C 166.7483 624.1459 166.8014 624.1863 166.8344 624.2115C 166.8675 624.2368 166.9206 624.2772 166.9536 624.3024C 166.9867 624.3275 167.0398 624.3679 167.0728 624.3931C 167.1059 624.4183 167.159 624.4587 167.192 624.4839C 167.2251 624.5091 167.2782 624.5495 167.3112 624.5747C 167.3443 624.5999 167.3973 624.6403 167.4304 624.6655C 167.4635 624.6907 167.5166 624.7311 167.5496 624.7563C 167.5827 624.7815 167.6358 624.8219 167.6688 624.8471C 167.7019 624.8723 167.7549 624.9127 167.788 624.9379C 167.8211 624.9631 167.8741 625.0035 167.9072 625.0287C 167.9403 625.0539 167.9933 625.0943 168.0264 625.1195C 168.0595 625.1447 168.1125 625.1851 168.1456 625.2103C 168.1786 625.2355 168.2317 625.2759 168.2648 625.3011C 168.2979 625.3263 168.3509 625.3667 168.384 625.3919C 168.4171 625.4171 168.4701 625.4575 168.5032 625.4827C 168.5362 625.5079 168.5893 625.5483 168.6224 625.5735C 168.6554 625.5987 168.7085 625.6391 168.7416 625.6643C 168.7746 625.6895 168.8277 625.7299 168.8608 625.7551C 168.8938 625.7803 168.9469 625.8207 168.98 625.8459C 169.013 625.8711 169.0661 625.9115 169.0992 625.9367C 169.1322 625.9619 169.1853 626.0023 169.2184 626.0275C 169.2514 626.0527 169.3045 626.0931 169.3376 626.1183C 169.3706 626.1435 169.4237 626.1839 169.4568 626.2091C 169.4898 626.2343 169.5429 626.2747 169.5759 626.2999C 169.609 626.3251 169.6621 626.3655 169.6951 626.3907C 169.7282 626.4159 169.7813 626.4563 169.8143 626.4815C 169.8474 626.5067 169.9005 626.5471 169.9335 626.5723C 169.9666 626.5975 170.0197 626.6379 170.0527 626.6631C 170.0858 626.6882 170.1389 626.7287 170.1719 626.7539C 170.205 626.7791 170.2581 626.8195 170.2911 626.8447C 170.3242 626.8699 170.3773 626.9103 170.4103 626.9355C 170.4434 626.9607 170.4964 627.0011 170.5295 627.0263C 170.5626 627.0515 170.6156 627.0919 170.6487 627.1171C 170.6818 627.1423 170.7348 627.1827 170.7679 627.2079C 170.801 627.233 170.854 627.2735 170.8871 627.2987C 170.9202 627.3239 170.9733 627.3643 171.0063 627.3895C 171.0394 627.4147 171.0924 627.4551 171.1255 627.4803C 171.1586 627.5054 171.2116 627.5459 171.2447 627.571C 171.2778 627.5963 171.3308 627.6367 171.3639 627.6619C 171.3969 627.6871 171.45 627.7275 171.4831 627.7527C 171.5161 627.7778 171.5692 627.8183 171.6023 627.8435C 171.6353 627.8687 171.6884 627.9091 171.7215 627.9343C 171.7545 627.9595 171.8076 627.9999 171.8407 628.0251C 171.8737 628.0502 171.9268 628.0907 171.9599 628.1158C 171.9929 628.1411 172.046 628.1815 172.0791 628.2067C 172.1121 628.2318 172.1652 628.2723 172.1983 628.2975C 172.2313 628.3226 172.2844 628.363 172.3175 628.3882C 172.3505 628.4135 172.4036 628.4539 172.4367 628.4791C 172.4697 628.5043 172.5228 628.5447 172.5558 628.5699C 172.5889 628.595 172.642 628.6355 172.675 628.6606C 172.7081 628.6859 172.7612 628.7263 172.7943 628.7515C 172.8273 628.7766 172.8804 628.8171 172.9134 628.8423C 172.9465 628.8674 172.9996 628.9078 173.0326 628.933C 173.0657 628.9583 173.1188 628.9987 173.1518 629.0239C 173.1849 629.049 173.238 629.0895 173.271 629.1146C 173.3041 629.1398 173.3572 629.1802 173.3902 629.2054C 173.4233 629.2307 173.4764 629.2711 173.5094 629.2963C 173.5425 629.3214 173.5955 629.3618 173.6286 629.387C 173.6617 629.4122 173.7147 629.4526 173.7478 629.4778C 173.7809 629.5031 173.8339 629.5435 173.867 629.5687C 173.9001 629.5938 173.9532 629.6343 173.9862 629.6594C 174.0193 629.6846 174.0723 629.725 174.1054 629.7502C 174.1385 629.7754 174.1915 629.8159 174.2246 629.841C 174.2577 629.8662 174.3107 629.9066 174.3438 629.9318C 174.3768 629.957 174.4299 629.9974 174.463 630.0226C 174.496 630.0478 174.5491 630.0883 174.5822 630.1135C 174.6152 630.1386 174.6683 630.1791 174.7014 630.2042C 174.7345 630.2294 174.7875 630.2698 174.8206 630.295C 174.8536 630.3202 174.9067 630.3607 174.9398 630.3858C 174.9728 630.411 175.0259 630.4515 175.059 630.4766C 175.092 630.5018 175.1451 630.5422 175.1782 630.5674C 175.2112 630.5926 175.2643 630.6331 175.2974 630.6582C 175.3304 630.6834 175.3835 630.7238 175.4165 630.749C 175.4496 630.7742 175.5027 630.8146 175.5358 630.8398C 175.5688 630.865 175.6219 630.9055 175.655 630.9306C 175.688 630.9558 175.7411 630.9962 175.7742 631.0214C 175.8072 631.0466 175.8603 631.087 175.8933 631.1122C 175.9264 631.1374 175.9795 631.1779 176.0125 631.203C 176.0456 631.2282 176.0987 631.2686 176.1317 631.2938C 176.1648 631.319 176.2178 631.3594 176.2509 631.3846C 176.284 631.4098 176.3371 631.4502 176.3701 631.4754C 176.4032 631.5006 176.4563 631.541 176.4893 631.5662C 176.5224 631.5914 176.5755 631.6318 176.6085 631.657C 176.6416 631.6822 176.6946 631.7226 176.7277 631.7478C 176.7608 631.773 176.8138 631.8134 176.8469 631.8386C 176.88 631.8638 176.933 631.9042 176.9661 631.9294C 176.9992 631.9546 177.0522 631.995 177.0853 632.0202C 177.1184 632.0454 177.1714 632.0858 177.2045 632.111C 177.2376 632.1362 177.2906 632.1766 177.3237 632.2018C 177.3568 632.227 177.4098 632.2674 177.4429 632.2926C 177.476 632.3177 177.529 632.3582 177.5621 632.3834C 177.5952 632.4086 177.6482 632.449 177.6813 632.4742C 177.7143 632.4994 177.7674 632.5398 177.8005 632.5649C 177.8335 632.5901 177.8866 632.6306 177.9197 632.6558C 177.9527 632.681 178.0058 632.7214 178.0389 632.7466C 178.0719 632.7718 178.125 632.8122 178.1581 632.8373C 178.1911 632.8625 178.2442 632.903 178.2773 632.9282C 178.3103 632.9534 178.3634 632.9938 178.3965 633.019C 178.4295 633.0442 178.4826 633.0846 178.5156 633.1097C 178.5487 633.1349 178.6018 633.1754 178.6349 633.2006C 178.6679 633.2258 178.721 633.2662 178.754 633.2914C 178.7871 633.3165 178.8402 633.357 178.8732 633.3821C 178.9063 633.4073 178.9594 633.4478 178.9924 633.473C 179.0255 633.4982 179.0786 633.5386 179.1116 633.5638C 179.1447 633.5889 179.1978 633.6294 179.2308 633.6545C 179.2639 633.6797 179.317 633.7202 179.35 633.7454C 179.3831 633.7706 179.4362 633.811 179.4692 633.8362C 179.5023 633.8613 179.5554 633.9018 179.5884 633.9269C 179.6215 633.9521 179.6746 633.9926 179.7076 634.0178C 179.7407 634.043 179.7937 634.0834 179.8268 634.1085C 179.8599 634.1337 179.9129 634.1742 179.946 634.1993C 179.9791 634.2245 180.0321 634.265 180.0652 634.2902C 180.0983 634.3153 180.1514 634.3558 180.1844 634.3809C 180.2175 634.4061 180.2705 634.4465 180.3036 634.4717C 180.3366 634.4969 180.3897 634.5374 180.4228 634.5626C 180.4559 634.5878 180.5089 634.6281 180.542 634.6533C 180.575 634.6785 180.6281 634.7189 180.6612 634.7441C 180.6942 634.7693 180.7473 634.8098 180.7804 634.835C 180.8135 634.8602 180.8665 634.9005 180.8996 634.9257C 180.9326 634.9509 180.9857 634.9913 181.0188 635.0165C 181.0518 635.0417 181.1049 635.0822 181.138 635.1074C 181.171 635.1325 181.2241 635.1729 181.2572 635.1981C 181.2902 635.2233 181.3433 635.2637 181.3764 635.2889C 181.4094 635.3141 181.4625 635.3546 181.4956 635.3798C 181.5286 635.4049 181.5817 635.4453 181.6147 635.4705C 181.6478 635.4957 181.7009 635.5361 181.7339 635.5613C 181.767 635.5865 181.8201 635.627 181.8531 635.6522C 181.8862 635.6774 181.9393 635.7177 181.9724 635.7429C 182.0054 635.7681 182.0585 635.8085 182.0915 635.8337C 182.1246 635.8589 182.1777 635.8994 182.2107 635.9246C 182.2438 635.9497 182.2969 635.9901 182.3299 636.0153C 182.363 636.0405 182.4161 636.0809 182.4491 636.1061C 182.4822 636.1313 182.5353 636.1718 182.5683 636.1969C 182.6014 636.2221 182.6544 636.2625 182.6875 636.2877C 182.7206 636.3129 182.7737 636.3533 182.8067 636.3785C 182.8398 636.4037 182.8928 636.4441 182.9259 636.4693C 182.959 636.4945 183.012 636.5349 183.0451 636.5601C 183.0782 636.5853 183.1313 636.6257 183.1643 636.6509C 183.1974 636.6761 183.2504 636.7165 183.2835 636.7417C 183.3166 636.7669 183.3696 636.8073 183.4027 636.8325C 183.4358 636.8577 183.4888 636.8981 183.5219 636.9233C 183.5549 636.9485 183.608 636.9889 183.6411 637.0141C 183.6741 637.0393 183.7272 637.0797 183.7603 637.1049C 183.7934 637.1301 183.8464 637.1705 183.8795 637.1957C 183.9126 637.2209 183.9656 637.2613 183.9987 637.2865C 184.0317 637.3117 184.0848 637.3521 184.1179 637.3773C 184.1509 637.4025 184.204 637.4429 184.2371 637.4681C 184.2701 637.4933 184.3232 637.5337 184.3563 637.5589C 184.3893 637.5841 184.4424 637.6245 184.4754 637.6497C 184.5085 637.6749 184.5616 637.7153 184.5947 637.7405C 184.6277 637.7657 184.6808 637.8061 184.7139 637.8313C 184.7469 637.8565 184.8 637.8969 184.833 637.9221C 184.8661 637.9473 184.9192 637.9877 184.9523 638.0129C 184.9853 638.0381 185.0384 638.0785 185.0714 638.1037C 185.1045 638.1289 185.1576 638.1693 185.1906 638.1945C 185.2237 638.2197 185.2768 638.2601 185.3098 638.2853C 185.3429 638.3105 185.396 638.3509 185.429 638.3761C 185.4621 638.4013 185.5152 638.4417 185.5482 638.4669C 185.5813 638.4921 185.6344 638.5325 185.6674 638.5577C 185.7005 638.5829 185.7536 638.6233 185.7866 638.6485C 185.8197 638.6737 185.8727 638.7141 185.9058 638.7393C 185.9389 638.7645 185.9919 638.8049 186.025 638.8301C 186.0581 638.8553 186.1111 638.8957 186.1442 638.9209C 186.1773 638.946 186.2303 638.9865 186.2634 639.0117C 186.2965 639.0369 186.3495 639.0773 186.3826 639.1025C 186.4157 639.1277 186.4687 639.1681 186.5018 639.1932C 186.5349 639.2184 186.5879 639.2589 186.621 639.2841C 186.654 639.3093 186.7071 639.3497 186.7402 639.3749C 186.7733 639.4001 186.8263 639.4405 186.8594 639.4657C 186.8925 639.4908 186.9455 639.5313 186.9786 639.5565C 187.0116 639.5817 187.0647 639.6221 187.0978 639.6473C 187.1308 639.6724 187.1839 639.7129 187.217 639.738C 187.25 639.7632 187.3031 639.8037 187.3362 639.8289C 187.3692 639.8541 187.4223 639.8945 187.4554 639.9197C 187.4884 639.9448 187.5415 639.9853 187.5746 640.0105C 187.6076 640.0356 187.6607 640.076 187.6937 640.1013C 187.7268 640.1265 187.7799 640.1669 187.8129 640.192C 187.846 640.2172 187.8991 640.2577 187.9321 640.2828C 187.9652 640.308 188.0183 640.3484 188.0513 640.3737C 188.0844 640.3989 188.1375 640.4393 188.1705 640.4645C 188.2036 640.4896 188.2567 640.53 188.2897 640.5552C 188.3228 640.5804 188.3759 640.6208 188.4089 640.6461C 188.442 640.6713 188.4951 640.7117 188.5281 640.7368C 188.5612 640.762 188.6143 640.8025 188.6473 640.8276C 188.6804 640.8528 188.7335 640.8932 188.7665 640.9185C 188.7996 640.9437 188.8526 640.984 188.8857 641.0092C 188.9188 641.0344 188.9719 641.0748 189.0049 641.1C 189.038 641.1252 189.091 641.1656 189.1241 641.1909C 189.1572 641.216 189.2102 641.2565 189.2433 641.2816C 189.2764 641.3068 189.3294 641.3472 189.3625 641.3724C 189.3956 641.3976 189.4486 641.438 189.4817 641.4633C 189.5148 641.4884 189.5678 641.5288 189.6009 641.554C 189.6339 641.5792 189.687 641.6196 189.7201 641.6448C 189.7532 641.67 189.8062 641.7104 189.8393 641.7356C 189.8723 641.7608 189.9254 641.8013 189.9585 641.8264C 189.9915 641.8516 190.0446 641.892 190.0777 641.9172C 190.1107 641.9424 190.1638 641.9828 190.1969 642.008C 190.2299 642.0332 190.283 642.0736 190.3161 642.0988C 190.3491 642.124 190.4022 642.1644 190.4353 642.1896C 190.4683 642.2148 190.5214 642.2552 190.5545 642.2805C 190.5875 642.3056 190.6406 642.346 190.6736 642.3712C 190.7067 642.3964 190.7598 642.4368 190.7929 642.462C 190.8259 642.4872 190.879 642.5276 190.912 642.5528C 190.9451 642.578 190.9982 642.6184 191.0313 642.6436C 191.0643 642.6688 191.1174 642.7092 191.1504 642.7344C 191.1835 642.7596 191.2366 642.8 191.2696 642.8252C 191.3027 642.8504 191.3558 642.8908 191.3888 642.916C 191.4219 642.9412 191.475 642.9816 191.508 643.0068C 191.5411 643.032 191.5942 643.0724 191.6272 643.0976C 191.6603 643.1228 191.7134 643.1632 191.7464 643.1884C 191.7795 643.2136 191.8326 643.254 191.8656 643.2792C 191.8987 643.3044 191.9518 643.3448 191.9848 643.37C 192.0179 643.3952 192.071 643.4356 192.104 643.4608C 192.1371 643.486 192.1901 643.5264 192.2232 643.5516C 192.2563 643.5768 192.3093 643.6172 192.3424 643.6424C 192.3755 643.6676 192.4285 643.708 192.4616 643.7332C 192.4946 643.7584 192.5477 643.7988 192.5808 643.824C 192.6139 643.8492 192.6669 643.8896 192.7 643.9148C 192.733 643.9399 192.7861 643.9804 192.8192 644.0056C 192.8522 644.0308 192.9053 644.0712 192.9384 644.0964C 192.9715 644.1216 193.0245 644.162 193.0576 644.1872C 193.0906 644.2123 193.1437 644.2528 193.1768 644.278C 193.2099 644.3032 193.2629 644.3436 193.296 644.3688C 193.329 644.394 193.3821 644.4344 193.4152 644.4596C 193.4482 644.4847 193.5013 644.5251 193.5344 644.5504C 193.5674 644.5756 193.6205 644.616 193.6535 644.6412C 193.6866 644.6663 193.7397 644.7068 193.7728 644.732C 193.8058 644.7571 193.8589 644.7976 193.892 644.8228C 193.925 644.848 193.9781 644.8884 194.0112 644.9136C 194.0442 644.9388 194.0973 644.9792 194.1303 645.0044C 194.1634 645.0295 194.2165 645.07 194.2495 645.0952C 194.2826 645.1204 194.3357 645.1608 194.3687 645.186C 194.4018 645.2111 194.4549 645.2516 194.4879 645.2768C 194.521 645.3019 194.5741 645.3423 194.6071 645.3676C 194.6402 645.3928 194.6933 645.4332 194.7263 645.4584C 194.7594 645.4835 194.8124 645.524 194.8455 645.5491C 194.8786 645.5743 194.9317 645.6148 194.9647 645.64C 194.9978 645.6652 195.0509 645.7056 195.0839 645.7308C 195.117 645.7559 195.17 645.7964 195.2031 645.8215C 195.2362 645.8467 195.2892 645.8871 195.3223 645.9124C 195.3554 645.9376 195.4084 645.978 195.4415 646.0031C 195.4746 646.0283 195.5276 646.0688 195.5607 646.0939C 195.5938 646.1191 195.6468 646.1595 195.6799 646.1848C 195.713 646.21 195.766 646.2504 195.7991 646.2755C 195.8322 646.3007 195.8852 646.3412 195.9183 646.3663C 195.9513 646.3915 196.0044 646.4319 196.0375 646.4572C 196.0705 646.4823 196.1236 646.5228 196.1567 646.5479C 196.1897 646.5731 196.2428 646.6136 196.2759 646.6387C 196.3089 646.6639 196.362 646.7043 196.3951 646.7296C 196.4281 646.7548 196.4812 646.7952 196.5143 646.8203C 196.5473 646.8455 196.6004 646.886 196.6335 646.9111C 196.6665 646.9363 196.7196 646.9767 196.7527 647.0019C 196.7857 647.0271 196.8388 647.0676 196.8719 647.0927C 196.9049 647.1179 196.958 647.1583 196.991 647.1835C 197.0241 647.2087 197.0772 647.2491 197.1102 647.2744C 197.1433 647.2996 197.1964 647.34 197.2294 647.3651C 197.2625 647.3903 197.3156 647.4307 197.3486 647.4559C 197.3817 647.4811 197.4348 647.5215 197.4678 647.5467C 197.5009 647.5719 197.554 647.6124 197.587 647.6375C 197.6201 647.6627 197.6732 647.7031 197.7062 647.7283C 197.7393 647.7535 197.7923 647.7939 197.8254 647.8191C 197.8585 647.8443 197.9116 647.8847 197.9446 647.9099C 197.9777 647.9351 198.0308 647.9755 198.0638 648.0007C 198.0969 648.0259 198.1499 648.0663 198.183 648.0915C 198.2161 648.1167 198.2691 648.1571 198.3022 648.1823C 198.3353 648.2075 198.3883 648.2479 198.4214 648.2731C 198.4545 648.2983 198.5075 648.3387 198.5406 648.3639C 198.5737 648.3891 198.6267 648.4296 198.6598 648.4547C 198.6929 648.4799 198.7459 648.5203 198.779 648.5455C 198.812 648.5707 198.8651 648.6111 198.8982 648.6363C 198.9312 648.6615 198.9843 648.7019 199.0174 648.7271C 199.0504 648.7523 199.1035 648.7927 199.1366 648.8179C 199.1696 648.8431 199.2227 648.8835 199.2558 648.9087C 199.2888 648.9339 199.3419 648.9743 199.375 648.9995C 199.408 649.0247 199.4611 649.0651 199.4942 649.0903C 199.5272 649.1155 199.5803 649.1559 199.6133 649.1811C 199.6464 649.2063 199.6995 649.2467 199.7326 649.2719C 199.7656 649.2971 199.8187 649.3375 199.8518 649.3627C 199.8848 649.3879 199.9379 649.4283 199.9709 649.4535C 200.004 649.4787 200.0571 649.5191 200.0902 649.5443C 200.1232 649.5695 200.1763 649.6099 200.2093 649.6351C 200.2424 649.6603 200.2955 649.7007 200.3285 649.7259C 200.3616 649.7511 200.4147 649.7915 200.4477 649.8167C 200.4808 649.8419 200.5339 649.8823 200.5669 649.9075C 200.6 649.9327 200.6531 649.9731 200.6861 649.9983C 200.7192 650.0234 200.7722 650.0638 200.8053 650.0891C 200.8384 650.1143 200.8914 650.1547 200.9245 650.1799C 200.9576 650.2051 201.0107 650.2455 201.0437 650.2707C 201.0768 650.2959 201.1299 650.3363 201.1629 650.3615C 201.196 650.3867 201.2491 650.4271 201.2821 650.4523C 201.3152 650.4775 201.3683 650.5179 201.4013 650.5431C 201.4344 650.5682 201.4874 650.6087 201.5205 650.6339C 201.5536 650.6591 201.6066 650.6995 201.6397 650.7247C 201.6728 650.7499 201.7258 650.7903 201.7589 650.8154C 201.7919 650.8406 201.845 650.881 201.8781 650.9063C 201.9112 650.9315 201.9642 650.9719 201.9973 650.9971C 202.0303 651.0222 202.0834 651.0627 202.1165 651.0879C 202.1496 651.113 202.2026 651.1535 202.2357 651.1786C 202.2688 651.2039 202.3218 651.2443 202.3549 651.2695C 202.3879 651.2947 202.441 651.3351 202.4741 651.3602C 202.5072 651.3854 202.5602 651.4258 202.5933 651.451C 202.6263 651.4763 202.6794 651.5167 202.7125 651.5419C 202.7455 651.567 202.7986 651.6074 202.8317 651.6326C 202.8647 651.6578 202.9178 651.6982 202.9509 651.7234C 202.9839 651.7487 203.037 651.7891 203.0701 651.8143C 203.1031 651.8395 203.1562 651.8799 203.1893 651.905C 203.2223 651.9302 203.2754 651.9706 203.3085 651.9958C 203.3415 652.0211 203.3946 652.0615 203.4276 652.0867C 203.4607 652.1118 203.5138 652.1522 203.5468 652.1774C 203.5799 652.2026 203.633 652.243 203.666 652.2682C 203.6991 652.2935 203.7522 652.3339 203.7852 652.359C 203.8183 652.3842 203.8714 652.4246 203.9044 652.4498C 203.9375 652.475 203.9906 652.5154 204.0236 652.5406C 204.0567 652.5659 204.1097 652.6063 204.1428 652.6315C 204.1759 652.6566 204.229 652.697 204.262 652.7222C 204.2951 652.7474 204.3481 652.7878 204.3812 652.813C 204.4143 652.8382 204.4673 652.8786 204.5004 652.9038C 204.5335 652.929 204.5865 652.9694 204.6196 652.9946C 204.6527 653.0198 204.7057 653.0602 204.7388 653.0854C 204.7719 653.1106 204.8249 653.1511 204.858 653.1763C 204.8911 653.2014 204.9441 653.2418 204.9772 653.267C 205.0103 653.2922 205.0633 653.3326 205.0964 653.3578C 205.1295 653.3831 205.1825 653.4234 205.2156 653.4486C 205.2486 653.4738 205.3017 653.5142 205.3348 653.5394C 205.3678 653.5646 205.4209 653.605 205.454 653.6302C 205.487 653.6554 205.5401 653.6958 205.5732 653.721C 205.6062 653.7462 205.6593 653.7866 205.6924 653.8118C 205.7254 653.837 205.7785 653.8774 205.8116 653.9026C 205.8446 653.9278 205.8977 653.9682 205.9307 653.9934C 205.9638 654.0186 206.0169 654.059 206.05 654.0842C 206.083 654.1094 206.1361 654.1498 206.1692 654.175C 206.2022 654.2002 206.2553 654.2406 206.2883 654.2658C 206.3214 654.291 206.3745 654.3314 206.4075 654.3566C 206.4406 654.3818 206.4937 654.4222 206.5267 654.4474C 206.5598 654.4726 206.6129 654.513 206.6459 654.5382C 206.679 654.5634 206.7321 654.6038 206.7651 654.629C 206.7982 654.6542 206.8513 654.6946 206.8843 654.7198C 206.9174 654.745 206.9705 654.7854 207.0035 654.8106C 207.0366 654.8358 207.0896 654.8762 207.1227 654.9014C 207.1558 654.9266 207.2089 654.967 207.2419 654.9922C 207.275 655.0174 207.328 655.0578 207.3611 655.083C 207.3942 655.1082 207.4473 655.1486 207.4803 655.1738C 207.5134 655.199 207.5665 655.2394 207.5995 655.2646C 207.6326 655.2898 207.6856 655.3302 207.7187 655.3554C 207.7518 655.3806 207.8048 655.421 207.8379 655.4462C 207.871 655.4714 207.924 655.5118 207.9571 655.537C 207.9902 655.5622 208.0432 655.6026 208.0763 655.6278C 208.1094 655.653 208.1624 655.6934 208.1955 655.7186C 208.2285 655.7438 208.2816 655.7842 208.3147 655.8094C 208.3477 655.8346 208.4008 655.875 208.4339 655.9001C 208.4669 655.9254 208.52 655.9658 208.5531 655.991C 208.5861 656.0162 208.6392 656.0566 208.6723 656.0818C 208.7053 656.107 208.7584 656.1474 208.7915 656.1726C 208.8245 656.1978 208.8776 656.2382 208.9106 656.2634C 208.9437 656.2886 208.9968 656.329 209.0299 656.3542C 209.0629 656.3794 209.116 656.4198 209.149 656.4449C 209.1821 656.4702 209.2352 656.5106 209.2682 656.5358C 209.3013 656.561 209.3544 656.6014 209.3875 656.6266C 209.4205 656.6518 209.4736 656.6921 209.5066 656.7173C 209.5397 656.7426 209.5928 656.783 209.6258 656.8082C 209.6589 656.8334 209.712 656.8738 209.745 656.899C 209.7781 656.9241 209.8312 656.9646 209.8642 656.9897C 209.8973 657.015 209.9504 657.0554 209.9834 657.0806C 210.0165 657.1058 210.0695 657.1462 210.1026 657.1714C 210.1357 657.1965 210.1888 657.2369 210.2218 657.2621C 210.2549 657.2874 210.3079 657.3278 210.341 657.353C 210.3741 657.3781 210.4272 657.4186 210.4602 657.4438C 210.4933 657.4689 210.5464 657.5094 210.5794 657.5345C 210.6125 657.5598 210.6656 657.6002 210.6986 657.6254C 210.7317 657.6505 210.7847 657.691 210.8178 657.7161C 210.8509 657.7413 210.9039 657.7817 210.937 657.8069C 210.9701 657.8322 211.0231 657.8726 211.0562 657.8978C 211.0892 657.9229 211.1423 657.9634 211.1754 657.9886C 211.2085 658.0137 211.2615 658.0541 211.2946 658.0793C 211.3276 658.1045 211.3807 658.145 211.4138 658.1702C 211.4469 658.1953 211.4999 658.2357 211.533 658.2609C 211.566 658.2861 211.6191 658.3265 211.6522 658.3517C 211.6852 658.377 211.7383 658.4174 211.7714 658.4425C 211.8044 658.4677 211.8575 658.5081 211.8905 658.5333C 211.9236 658.5585 211.9767 658.5989 212.0098 658.6241C 212.0428 658.6494 212.0959 658.6897 212.129 658.7149C 212.162 658.7401 212.2151 658.7805 212.2482 658.8057C 212.2812 658.8309 212.3343 658.8713 212.3674 658.8965C 212.4004 658.9217 212.4535 658.9622 212.4866 658.9874C 212.5196 659.0125 212.5727 659.0529 212.6057 659.0781C 212.6388 659.1033 212.6919 659.1437 212.7249 659.1689C 212.758 659.1941 212.8111 659.2345 212.8441 659.2597C 212.8772 659.2849 212.9303 659.3253 212.9633 659.3505C 212.9964 659.3757 213.0495 659.4161 213.0825 659.4413C 213.1156 659.4665 213.1687 659.507 213.2017 659.5321C 213.2348 659.5573 213.2878 659.5977 213.3209 659.6229C 213.354 659.6481 213.407 659.6885 213.4401 659.7137C 213.4732 659.7389 213.5263 659.7793 213.5593 659.8045C 213.5924 659.8297 213.6454 659.8701 213.6785 659.8953C 213.7116 659.9205 213.7646 659.9609 213.7977 659.9861C 213.8308 660.0113 213.8838 660.0517 213.9169 660.0769C 213.95 660.1021 214.003 660.1425 214.0361 660.1677C 214.0692 660.1929 214.1222 660.2333 214.1553 660.2585C 214.1884 660.2837 214.2414 660.3241 214.2745 660.3493C 214.3076 660.3745 214.3606 660.4149 214.3937 660.4401C 214.4268 660.4653 214.4798 660.5057 214.5129 660.5309C 214.5459 660.5561 214.599 660.5965 214.6321 660.6217C 214.6651 660.6469 214.7182 660.6873 214.7513 660.7125C 214.7843 660.7377 214.8374 660.7781 214.8705 660.8033C 214.9035 660.8285 214.9566 660.8689 214.9897 660.8941C 215.0227 660.9193 215.0758 660.9597 215.1089 660.9849C 215.1419 661.0101 215.195 661.0505 215.228 661.0757C 215.2611 661.1009 215.3142 661.1413 215.3473 661.1665C 215.3803 661.1917 215.4334 661.2321 215.4665 661.2573C 215.4995 661.2825 215.5526 661.3229 215.5856 661.3481C 215.6187 661.3733 215.6718 661.4137 215.7048 661.4389C 215.7379 661.4641 215.791 661.5045 215.824 661.5297C 215.8571 661.5549 215.9102 661.5953 215.9432 661.6205C 215.9763 661.6457 216.0294 661.6861 216.0624 661.7112C 216.0955 661.7365 216.1486 661.7769 216.1816 661.8021C 216.2147 661.8273 216.2677 661.8677 216.3008 661.8929C 216.3339 661.9181 216.3869 661.9585 216.42 661.9836C 216.4531 662.0089 216.5061 662.0493 216.5392 662.0745C 216.5723 662.0997 216.6253 662.1401 216.6584 662.1653C 216.6915 662.1904 216.7446 662.2309 216.7776 662.256C 216.8107 662.2813 216.8637 662.3217 216.8968 662.3469C 216.9299 662.3721 216.9829 662.4125 217.016 662.4377C 217.0491 662.4629 217.1021 662.5033 217.1352 662.5284C 217.1683 662.5536 217.2213 662.5941 217.2544 662.6193C 217.2875 662.6444 217.3405 662.6849 217.3736 662.7101C 217.4066 662.7352 217.4597 662.7756 217.4928 662.8008C 217.5258 662.826 217.5789 662.8665 217.612 662.8917C 217.645 662.9169 217.6981 662.9573 217.7312 662.9825C 217.7643 663.0076 217.8173 663.0481 217.8504 663.0732C 217.8834 663.0984 217.9365 663.1389 217.9696 663.1641C 218.0026 663.1893 218.0557 663.2297 218.0888 663.2549C 218.1218 663.28 218.1749 663.3204 218.2079 663.3456C 218.241 663.3708 218.2941 663.4113 218.3272 663.4365C 218.3602 663.4617 218.4133 663.5021 218.4464 663.5272C 218.4794 663.5524 218.5325 663.5929 218.5656 663.618C 218.5986 663.6432 218.6517 663.6837 218.6847 663.7089C 218.7178 663.734 218.7709 663.7745 218.8039 663.7996C 218.837 663.8248 218.8901 663.8652 218.9231 663.8904C 218.9562 663.9156 219.0093 663.9561 219.0423 663.9813C 219.0754 664.0065 219.1285 664.0469 219.1615 664.072C 219.1946 664.0972 219.2477 664.1376 219.2807 664.1628C 219.3138 664.188 219.3669 664.2285 219.3999 664.2537C 219.433 664.2788 219.4861 664.3193 219.5191 664.3444C 219.5522 664.3696 219.6052 664.41 219.6383 664.4352C 219.6714 664.4604 219.7244 664.5009 219.7575 664.526C 219.7906 664.5512 219.8436 664.5916 219.8767 664.6168C 219.9098 664.642 219.9628 664.6824 219.9959 664.7076C 220.0289 664.7328 220.082 664.7733 220.1151 664.7985C 220.1482 664.8236 220.2012 664.864 220.2343 664.8892C 220.2673 664.9144 220.3204 664.9548 220.3535 664.98C 220.3866 665.0052 220.4396 665.0457 220.4727 665.0708C 220.5058 665.096 220.5588 665.1364 220.5919 665.1616C 220.6249 665.1868 220.678 665.2272 220.7111 665.2524C 220.7442 665.2776 220.7972 665.318 220.8303 665.3432C 220.8633 665.3684 220.9164 665.4088 220.9495 665.434C 220.9825 665.4592 221.0356 665.4996 221.0686 665.5248C 221.1017 665.55 221.1548 665.5904 221.1879 665.6156C 221.2209 665.6408 221.274 665.6812 221.3071 665.7064C 221.3401 665.7316 221.3932 665.772 221.4263 665.7972C 221.4593 665.8224 221.5124 665.8628 221.5455 665.888C 221.5785 665.9132 221.6316 665.9536 221.6646 665.9788C 221.6977 666.004 221.7508 666.0444 221.7839 666.0696C 221.8169 666.0948 221.87 666.1352 221.903 666.1604C 221.9361 666.1856 221.9892 666.226 222.0222 666.2512C 222.0553 666.2764 222.1084 666.3168 222.1414 666.342C 222.1745 666.3672 222.2276 666.4076 222.2606 666.4328C 222.2937 666.458 222.3468 666.4984 222.3798 666.5236C 222.4129 666.5488 222.466 666.5892 222.499 666.6144C 222.5321 666.6396 222.5851 666.68 222.6182 666.7052C 222.6513 666.7304 222.7043 666.7708 222.7374 666.796C 222.7705 666.8212 222.8235 666.8616 222.8566 666.8868C 222.8897 666.912 222.9427 666.9524 222.9758 666.9776C 223.0089 667.0028 223.0619 667.0432 223.095 667.0684C 223.1281 667.0936 223.1811 667.134 223.2142 667.1592C 223.2473 667.1843 223.3003 667.2248 223.3334 667.25C 223.3665 667.2751 223.4195 667.3156 223.4526 667.3408C 223.4856 667.366 223.5387 667.4064 223.5718 667.4316C 223.6049 667.4568 223.6579 667.4972 223.691 667.5224C 223.7241 667.5476 223.7771 667.588 223.8102 667.6132C 223.8432 667.6384 223.8963 667.6788 223.9294 667.704C 223.9624 667.7292 224.0155 667.7696 224.0486 667.7948C 224.0816 667.8199 224.1347 667.8604 224.1678 667.8856C 224.2008 667.9108 224.2539 667.9512 224.287 667.9764C 224.32 668.0016 224.3731 668.042 224.4062 668.0671C 224.4392 668.0923 224.4923 668.1328 224.5253 668.158C 224.5584 668.1832 224.6115 668.2236 224.6445 668.2488C 224.6776 668.2739 224.7307 668.3144 224.7637 668.3396C 224.7968 668.3647 224.8499 668.4052 224.8829 668.4304C 224.916 668.4556 224.9691 668.496 225.0021 668.5211C 225.0352 668.5463 225.0883 668.5868 225.1213 668.6119C 225.1544 668.6371 225.2075 668.6776 225.2405 668.7028C 225.2736 668.728 225.3267 668.7684 225.3597 668.7936C 225.3928 668.8187 225.4459 668.8592 225.4789 668.8844C 225.512 668.9095 225.565 668.95 225.5981 668.9752C 225.6312 669.0004 225.6842 669.0408 225.7173 669.066C 225.7504 669.0911 225.8034 669.1316 225.8365 669.1567C 225.8696 669.1819 225.9226 669.2224 225.9557 669.2476C 225.9888 669.2727 226.0419 669.3132 226.0749 669.3384C 226.108 669.3635 226.161 669.4039 226.1941 669.4291C 226.2272 669.4543 226.2802 669.4948 226.3133 669.52C 226.3464 669.5452 226.3994 669.5856 226.4325 669.6107C 226.4655 669.6359 226.5186 669.6763 226.5517 669.7015C 226.5848 669.7267 226.6378 669.7672 226.6709 669.7924C 226.7039 669.8175 226.757 669.858 226.7901 669.8832C 226.8231 669.9083 226.8762 669.9487 226.9093 669.9739C 226.9423 669.9991 226.9954 670.0396 227.0285 670.0647C 227.0615 670.0899 227.1146 670.1304 227.1477 670.1555C 227.1807 670.1807 227.2338 670.2211 227.2669 670.2463C 227.2999 670.2715 227.353 670.312 227.386 670.3371C 227.4191 670.3623 227.4722 670.4027 227.5052 670.4279C 227.5383 670.4531 227.5914 670.4935 227.6245 670.5187C 227.6575 670.5439 227.7106 670.5844 227.7437 670.6095C 227.7767 670.6347 227.8298 670.6752 227.8629 670.7003C 227.8959 670.7255 227.949 670.7659 227.982 670.7911C 228.0151 670.8163 228.0682 670.8568 228.1012 670.882C 228.1343 670.9071 228.1873 670.9475 228.2204 670.9727C 228.2535 670.9979 228.3065 671.0383 228.3396 671.0635C 228.3727 671.0887 228.4258 671.1292 228.4588 671.1543C 228.4919 671.1795 228.545 671.2199 228.578 671.2451C 228.6111 671.2703 228.6642 671.3107 228.6972 671.3359C 228.7303 671.3611 228.7833 671.4015 228.8164 671.4267C 228.8495 671.4519 228.9025 671.4923 228.9356 671.5175C 228.9687 671.5427 229.0217 671.5831 229.0548 671.6083C 229.0879 671.6335 229.1409 671.674 229.174 671.6991C 229.2071 671.7243 229.2601 671.7647 229.2932 671.7899C 229.3262 671.8151 229.3793 671.8555 229.4124 671.8807C 229.4454 671.9059 229.4985 671.9463 229.5316 671.9715C 229.5647 671.9967 229.6177 672.0371 229.6508 672.0623C 229.6839 672.0875 229.7369 672.1279 229.77 672.1531C 229.803 672.1783 229.8561 672.2188 229.8892 672.2439C 229.9222 672.2691 229.9753 672.3095 230.0084 672.3347C 230.0414 672.3599 230.0945 672.4003 230.1276 672.4255C 230.1606 672.4507 230.2137 672.4911 230.2468 672.5163C 230.2798 672.5415 230.3329 672.5819 230.366 672.6071C 230.399 672.6323 230.4521 672.6727 230.4852 672.6979C 230.5182 672.7231 230.5713 672.7635 230.6043 672.7887C 230.6374 672.8138 230.6905 672.8543 230.7236 672.8795C 230.7566 672.9047 230.8097 672.9451 230.8428 672.9703C 230.8758 672.9955 230.9289 673.0359 230.9619 673.0611C 230.995 673.0862 231.0481 673.1267 231.0811 673.1519C 231.1142 673.1771 231.1673 673.2175 231.2003 673.2427C 231.2334 673.2679 231.2865 673.3083 231.3195 673.3335C 231.3526 673.3586 231.4057 673.399 231.4388 673.4243C 231.4718 673.4495 231.5249 673.4899 231.5579 673.5151C 231.591 673.5403 231.6441 673.5807 231.6771 673.6059C 231.7102 673.631 231.7632 673.6715 231.7963 673.6967C 231.8294 673.7219 231.8824 673.7623 231.9155 673.7875C 231.9486 673.8127 232.0016 673.8531 232.0347 673.8783C 232.0678 673.9034 232.1208 673.9438 232.1539 673.9691C 232.187 673.9943 232.2401 674.0347 232.2731 674.0599C 232.3062 674.0851 232.3592 674.1255 232.3923 674.1506C 232.4254 674.1758 232.4784 674.2162 232.5115 674.2415C 232.5446 674.2667 232.5976 674.3071 232.6307 674.3323C 232.6638 674.3575 232.7168 674.3979 232.7499 674.4231C 232.7829 674.4482 232.836 674.4886 232.8691 674.5139C 232.9022 674.5391 232.9552 674.5795 232.9883 674.6047C 233.0213 674.6298 233.0744 674.6703 233.1075 674.6954C 233.1405 674.7206 233.1936 674.7611 233.2267 674.7863C 233.2598 674.8115 233.3128 674.8519 233.3459 674.8771C 233.3789 674.9022 233.432 674.9426 233.4651 674.9678C 233.4981 674.993 233.5512 675.0334 233.5842 675.0587C 233.6173 675.0839 233.6704 675.1243 233.7035 675.1495C 233.7365 675.1747 233.7896 675.2151 233.8226 675.2402C 233.8557 675.2654 233.9088 675.3058 233.9418 675.3311C 233.9749 675.3562 234.028 675.3967 234.061 675.4219C 234.0941 675.447 234.1472 675.4874 234.1802 675.5126C 234.2133 675.5378 234.2664 675.5782 234.2994 675.6035C 234.3325 675.6287 234.3856 675.6691 234.4186 675.6942C 234.4517 675.7194 234.5048 675.7598 234.5378 675.785C 234.5709 675.8102 234.624 675.8506 234.657 675.8759C 234.6901 675.901 234.7432 675.9415 234.7762 675.9667C 234.8093 675.9918 234.8623 676.0322 234.8954 676.0574C 234.9285 676.0826 234.9816 676.123 235.0146 676.1483C 235.0477 676.1735 235.1007 676.2139 235.1338 676.239C 235.1669 676.2642 235.2199 676.3046 235.253 676.3298C 235.2861 676.355 235.3391 676.3954 235.3722 676.4206C 235.4052 676.4458 235.4583 676.4862 235.4914 676.5114C 235.5245 676.5366 235.5775 676.577 235.6106 676.6022C 235.6436 676.6274 235.6967 676.6678 235.7298 676.693C 235.7628 676.7182 235.8159 676.7587 235.849 676.7838C 235.882 676.809 235.9351 676.8494 235.9682 676.8746C 236.0012 676.8998 236.0543 676.9402 236.0874 676.9654C 236.1204 676.9906 236.1735 677.031 236.2066 677.0562C 236.2396 677.0814 236.2927 677.1218 236.3258 677.147C 236.3588 677.1722 236.4119 677.2126 236.445 677.2378C 236.478 677.263 236.5311 677.3034 236.5642 677.3286C 236.5972 677.3538 236.6503 677.3942 236.6833 677.4194C 236.7164 677.4446 236.7695 677.485 236.8026 677.5102C 236.8356 677.5354 236.8887 677.5758 236.9218 677.601C 236.9548 677.6262 237.0079 677.6666 237.0409 677.6918C 237.074 677.717 237.1271 677.7574 237.1601 677.7826C 237.1932 677.8078 237.2463 677.8482 237.2793 677.8734C 237.3124 677.8986 237.3655 677.939 237.3985 677.9642C 237.4316 677.9894 237.4846 678.0298 237.5177 678.055C 237.5508 678.0802 237.6039 678.1206 237.6369 678.1458C 237.67 678.171 237.723 678.2114 237.7561 678.2366C 237.7892 678.2618 237.8423 678.3022 237.8753 678.3274C 237.9084 678.3526 237.9614 678.393 237.9945 678.4182C 238.0276 678.4434 238.0806 678.4838 238.1137 678.509C 238.1468 678.5342 238.1998 678.5746 238.2329 678.5998C 238.266 678.625 238.319 678.6654 238.3521 678.6906C 238.3852 678.7158 238.4382 678.7562 238.4713 678.7814C 238.5044 678.8066 238.5574 678.847 238.5905 678.8722C 238.6236 678.8974 238.6766 678.9378 238.7097 678.963C 238.7428 678.9882 238.7958 679.0286 238.8289 679.0538C 238.862 679.079 238.915 679.1194 238.9481 679.1446C 238.9811 679.1698 239.0342 679.2102 239.0673 679.2354C 239.1003 679.2606 239.1534 679.301 239.1865 679.3262C 239.2195 679.3514 239.2726 679.3918 239.3057 679.417C 239.3387 679.4421 239.3918 679.4826 239.4249 679.5078C 239.4579 679.533 239.511 679.5734 239.5441 679.5986C 239.5771 679.6238 239.6302 679.6642 239.6633 679.6894C 239.6963 679.7146 239.7494 679.755 239.7825 679.7802C 239.8155 679.8054 239.8686 679.8458 239.9016 679.871C 239.9347 679.8961 239.9878 679.9366 240.0209 679.9618C 240.0539 679.9869 240.107 680.0273 240.14 680.0526C 240.1731 680.0778 240.2262 680.1182 240.2592 680.1434C 240.2923 680.1686 240.3454 680.209 240.3784 680.2341C 240.4115 680.2593 240.4646 680.2997 240.4976 680.325C 240.5307 680.3502 240.5838 680.3906 240.6168 680.4158C 240.6499 680.441 240.7029 680.4814 240.736 680.5065C 240.7691 680.5317 240.8222 680.5722 240.8552 680.5974C 240.8883 680.6226 240.9414 680.663 240.9744 680.6882C 241.0075 680.7134 241.0605 680.7537 241.0936 680.7789C 241.1267 680.8041 241.1797 680.8445 241.2128 680.8698C 241.2458 680.895 241.2989 680.9354 241.332 680.9606C 241.3651 680.9857 241.4181 681.0261 241.4512 681.0513C 241.4843 681.0765 241.5373 681.1169 241.5704 681.1422C 241.6035 681.1674 241.6565 681.2078 241.6896 681.2329C 241.7226 681.2581 241.7757 681.2986 241.8088 681.3237C 241.8419 681.3489 241.8949 681.3893 241.928 681.4146C 241.961 681.4397 242.0141 681.4801 242.0472 681.5053C 242.0803 681.5305 242.1333 681.5709 242.1664 681.5961C 242.1994 681.6213 242.2525 681.6617 242.2856 681.687C 242.3186 681.7121 242.3717 681.7526 242.4048 681.7777C 242.4378 681.8029 242.4909 681.8433 242.524 681.8685C 242.557 681.8937 242.6101 681.9341 242.6432 681.9594C 242.6762 681.9845 242.7293 682.025 242.7624 682.0502C 242.7954 682.0753 242.8485 682.1157 242.8816 682.1409C 242.9146 682.1661 242.9677 682.2065 243.0008 682.2318C 243.0338 682.257 243.0869 682.2973 243.1199 682.3225C 243.153 682.3477 243.2061 682.3881 243.2392 682.4133C 243.2722 682.4385 243.3253 682.4789 243.3583 682.5042C 243.3914 682.5293 243.4445 682.5697 243.4775 682.5949C 243.5106 682.6201 243.5637 682.6605 243.5967 682.6857C 243.6298 682.7109 243.6829 682.7513 243.7159 682.7765C 243.749 682.8017 243.802 682.8421 243.8351 682.8673C 243.8682 682.8925 243.9213 682.9329 243.9543 682.9581C 243.9874 682.9833 244.0405 683.0237 244.0735 683.049C 244.1066 683.0741 244.1596 683.1145 244.1927 683.1397C 244.2258 683.1649 244.2788 683.2053 244.3119 683.2305C 244.345 683.2557 244.398 683.2961 244.4311 683.3213C 244.4642 683.3465 244.5172 683.3869 244.5503 683.4121C 244.5834 683.4373 244.6364 683.4777 244.6695 683.5029C 244.7025 683.5281 244.7556 683.5685 244.7887 683.5937C 244.8218 683.6189 244.8748 683.6593 244.9079 683.6845C 244.9409 683.7097 244.994 683.7501 245.0271 683.7753C 245.0602 683.8005 245.1132 683.8409 245.1463 683.8661C 245.1794 683.8913 245.2324 683.9317 245.2655 683.9569C 245.2985 683.9821 245.3516 684.0225 245.3847 684.0477C 245.4177 684.0729 245.4708 684.1133 245.5039 684.1385C 245.5369 684.1637 245.59 684.2041 245.6231 684.2293C 245.6561 684.2545 245.7092 684.2949 245.7423 684.3201C 245.7753 684.3453 245.8284 684.3857 245.8615 684.4109C 245.8945 684.436 245.9476 684.4765 245.9806 684.5017C 246.0137 684.5269 246.0668 684.5673 246.0998 684.5925C 246.1329 684.6177 246.186 684.6581 246.219 684.6833C 246.2521 684.7085 246.3052 684.7489 246.3382 684.7741C 246.3713 684.7993 246.4244 684.8397 246.4574 684.8649C 246.4905 684.8901 246.5436 684.9305 246.5766 684.9557C 246.6097 684.9808 246.6628 685.0213 246.6958 685.0465C 246.7289 685.0717 246.782 685.1121 246.815 685.1373C 246.8481 685.1625 246.9012 685.2029 246.9342 685.2281C 246.9673 685.2533 247.0203 685.2937 247.0534 685.3188C 247.0865 685.3441 247.1396 685.3845 247.1726 685.4097C 247.2057 685.4349 247.2587 685.4753 247.2918 685.5005C 247.3249 685.5256 247.3779 685.5661 247.411 685.5912C 247.4441 685.6165 247.4971 685.6569 247.5302 685.6821C 247.5633 685.7073 247.6163 685.7477 247.6494 685.7728C 247.6825 685.798 247.7355 685.8385 247.7686 685.8636C 247.8017 685.8889 247.8547 685.9293 247.8878 685.9545C 247.9208 685.9797 247.9739 686.0201 248.007 686.0453C 248.04 686.0704 248.0931 686.1108 248.1262 686.136C 248.1593 686.1613 248.2123 686.2017 248.2454 686.2269C 248.2784 686.2521 248.3315 686.2925 248.3646 686.3177C 248.3976 686.3428 248.4507 686.3832 248.4838 686.4084C 248.5168 686.4337 248.5699 686.4741 248.603 686.4993C 248.636 686.5244 248.6891 686.5649 248.7222 686.5901C 248.7552 686.6152 248.8083 686.6556 248.8413 686.6808C 248.8744 686.7061 248.9275 686.7465 248.9606 686.7717C 248.9936 686.7969 249.0467 686.8373 249.0797 686.8624C 249.1128 686.8876 249.1659 686.928 249.1989 686.9532C 249.232 686.9785 249.2851 687.0189 249.3182 687.0441C 249.3512 687.0692 249.4043 687.1096 249.4373 687.1348C 249.4704 687.16 249.5235 687.2004 249.5565 687.2256C 249.5896 687.2509 249.6426 687.2913 249.6757 687.3164C 249.7088 687.3416 249.7618 687.3821 249.7949 687.4072C 249.828 687.4324 249.8811 687.4728 249.9141 687.498C 249.9472 687.5233 250.0002 687.5637 250.0333 687.5889C 250.0664 687.614 250.1195 687.6544 250.1525 687.6796C 250.1856 687.7048 250.2386 687.7452 250.2717 687.7704C 250.3048 687.7957 250.3578 687.8361 250.3909 687.8612C 250.424 687.8864 250.4771 687.9268 250.5101 687.952C 250.5432 687.9772 250.5962 688.0176 250.6293 688.0428C 250.6624 688.068 250.7154 688.1084 250.7485 688.1336C 250.7816 688.1588 250.8346 688.1992 250.8677 688.2244C 250.9007 688.2496 250.9538 688.29 250.9869 688.3152C 251.02 688.3404 251.073 688.3809 251.1061 688.406C 251.1392 688.4312 251.1922 688.4716 251.2253 688.4968C 251.2583 688.522 251.3114 688.5624 251.3445 688.5876C 251.3775 688.6128 251.4306 688.6532 251.4637 688.6784C 251.4967 688.7036 251.5498 688.744 251.5829 688.7692C 251.6159 688.7944 251.669 688.8348 251.7021 688.86C 251.7351 688.8852 251.7882 688.9256 251.8213 688.9508C 251.8543 688.976 251.9074 689.0164 251.9405 689.0416C 251.9735 689.0668 252.0266 689.1072 252.0596 689.1324C 252.0927 689.1576 252.1458 689.198 252.1788 689.2232C 252.2119 689.2484 252.265 689.2888 252.2981 689.314C 252.3311 689.3392 252.3842 689.3796 252.4172 689.4048C 252.4503 689.43 252.5034 689.4704 252.5365 689.4956C 252.5695 689.5208 252.6226 689.5612 252.6556 689.5864C 252.6887 689.6116 252.7418 689.652 252.7748 689.6772C 252.8079 689.7024 252.861 689.7428 252.894 689.768C 252.9271 689.7932 252.9801 689.8336 253.0132 689.8588C 253.0463 689.884 253.0993 689.9244 253.1324 689.9496C 253.1655 689.9748 253.2186 690.0152 253.2516 690.0404C 253.2847 690.0656 253.3378 690.106 253.3708 690.1312C 253.4039 690.1564 253.4569 690.1968 253.49 690.222C 253.5231 690.2472 253.5761 690.2876 253.6092 690.3128C 253.6423 690.338 253.6953 690.3784 253.7284 690.4036C 253.7615 690.4288 253.8145 690.4692 253.8476 690.4944C 253.8807 690.5195 253.9337 690.56 253.9668 690.5852C 253.9998 690.6104 254.0529 690.6508 254.086 690.676C 254.119 690.7012 254.1721 690.7416 254.2052 690.7668C 254.2383 690.792 254.2913 690.8324 254.3244 690.8576C 254.3575 690.8828 254.4105 690.9232 254.4436 690.9484C 254.4766 690.9736 254.5297 691.014 254.5628 691.0392C 254.5958 691.0643 254.6489 691.1048 254.682 691.13C 254.715 691.1552 254.7681 691.1956 254.8012 691.2208C 254.8342 691.246 254.8873 691.2864 254.9203 691.3116C 254.9534 691.3368 255.0065 691.3772 255.0396 691.4023C 255.0726 691.4276 255.1257 691.468 255.1588 691.4932C 255.1918 691.5184 255.2449 691.5588 255.2779 691.584C 255.311 691.6091 255.3641 691.6496 255.3971 691.6747C 255.4302 691.7 255.4833 691.7404 255.5163 691.7656C 255.5494 691.7908 255.6025 691.8312 255.6355 691.8564C 255.6686 691.8815 255.7217 691.922 255.7548 691.9472C 255.7878 691.9724 255.8409 692.0128 255.8739 692.038C 255.907 692.0631 255.96 692.1035 255.9931 692.1287C 256.0262 692.1539 256.0793 692.1943 256.1123 692.2195C 256.1454 692.2448 256.1985 692.2852 256.2315 692.3104C 256.2646 692.3356 256.3176 692.376 256.3507 692.4011C 256.3838 692.4263 256.4369 692.4668 256.4699 692.4919C 256.503 692.5172 256.556 692.5576 256.5891 692.5828C 256.6222 692.6079 256.6752 692.6484 256.7083 692.6735C 256.7414 692.6987 256.7944 692.7391 256.8275 692.7643C 256.8605 692.7896 256.9136 692.83 256.9467 692.8551C 256.9798 692.8803 257.0328 692.9208 257.0659 692.9459C 257.099 692.9711 257.152 693.0115 257.1851 693.0367C 257.2181 693.062 257.2712 693.1024 257.3043 693.1276C 257.3373 693.1527 257.3904 693.1931 257.4235 693.2183C 257.4565 693.2435 257.5096 693.2839 257.5427 693.3091C 257.5757 693.3344 257.6288 693.3748 257.6619 693.3999C 257.6949 693.4251 257.748 693.4656 257.7811 693.4907C 257.8141 693.5159 257.8672 693.5563 257.9003 693.5815C 257.9333 693.6067 257.9864 693.6471 258.0194 693.6723C 258.0525 693.6975 258.1056 693.7379 258.1387 693.7631C 258.1718 693.7883 258.2248 693.8287 258.2579 693.8539C 258.2909 693.8792 258.344 693.9196 258.377 693.9447C 258.4101 693.9699 258.4632 694.0103 258.4962 694.0355C 258.5293 694.0607 258.5824 694.1011 258.6154 694.1263C 258.6485 694.1515 258.7016 694.1919 258.7346 694.2171C 258.7677 694.2423 258.8208 694.2827 258.8539 694.3079C 258.8869 694.3331 258.9399 694.3735 258.973 694.3987C 259.0061 694.4239 259.0591 694.4644 259.0922 694.4895C 259.1253 694.5147 259.1783 694.5551 259.2114 694.5803C 259.2445 694.6055 259.2975 694.6459 259.3306 694.6711C 259.3637 694.6963 259.4167 694.7368 259.4498 694.7619C 259.4829 694.7871 259.5359 694.8275 259.569 694.8527C 259.6021 694.8779 259.6552 694.9183 259.6882 694.9435C 259.7213 694.9687 259.7743 695.0091 259.8074 695.0343C 259.8405 695.0595 259.8936 695.0999 259.9266 695.1251C 259.9597 695.1503 260.0127 695.1907 260.0458 695.2159C 260.0789 695.2411 260.1319 695.2815 260.165 695.3067C 260.1981 695.3319 260.2511 695.3723 260.2842 695.3975C 260.3173 695.4227 260.3703 695.4631 260.4034 695.4883C 260.4364 695.5135 260.4895 695.5539 260.5226 695.5791C 260.5557 695.6043 260.6087 695.6447 260.6418 695.6699C 260.6749 695.6951 260.7279 695.7355 260.761 695.7607C 260.794 695.7859 260.8471 695.8263 260.8802 695.8515C 260.9132 695.8767 260.9663 695.9171 260.9994 695.9423C 261.0324 695.9675 261.0855 696.0079 261.1186 696.0331C 261.1516 696.0583 261.2047 696.0987 261.2378 696.1239C 261.2708 696.1491 261.3239 696.1895 261.3569 696.2147C 261.39 696.2399 261.4431 696.2803 261.4761 696.3055C 261.5092 696.3307 261.5623 696.3711 261.5953 696.3962C 261.6284 696.4214 261.6815 696.4619 261.7145 696.4871C 261.7476 696.5123 261.8007 696.5527 261.8337 696.5779C 261.8668 696.603 261.9199 696.6435 261.9529 696.6687C 261.986 696.6938 262.0391 696.7343 262.0721 696.7595C 262.1052 696.7847 262.1583 696.8251 262.1913 696.8503C 262.2244 696.8755 262.2775 696.9159 262.3105 696.9411C 262.3436 696.9663 262.3967 697.0067 262.4297 697.0319C 262.4628 697.0571 262.5159 697.0975 262.5489 697.1227C 262.582 697.1478 262.635 697.1883 262.6681 697.2135C 262.7012 697.2386 262.7542 697.2791 262.7873 697.3043C 262.8204 697.3295 262.8734 697.3699 262.9065 697.3951C 262.9396 697.4203 262.9926 697.4606 263.0257 697.4858C 263.0588 697.511 263.1118 697.5515 263.1449 697.5767C 263.178 697.6019 263.231 697.6423 263.2641 697.6675C 263.2971 697.6926 263.3502 697.7331 263.3833 697.7583C 263.4164 697.7834 263.4694 697.8239 263.5025 697.8491C 263.5355 697.8743 263.5886 697.9147 263.6217 697.9399C 263.6548 697.9651 263.7078 698.0054 263.7408 698.0306C 263.7739 698.0558 263.827 698.0963 263.8601 698.1215C 263.8931 698.1466 263.9462 698.1871 263.9792 698.2122C 264.0123 698.2374 264.0654 698.2778 264.0984 698.303C 264.1315 698.3282 264.1846 698.3687 264.2177 698.3939C 264.2507 698.4191 264.3038 698.4595 264.3369 698.4846C 264.3699 698.5098 264.423 698.5503 264.4561 698.5754C 264.4891 698.6006 264.5422 698.6411 264.5752 698.6663C 264.6083 698.6914 264.6614 698.7318 264.6945 698.757C 264.7275 698.7822 264.7806 698.8226 264.8136 698.8478C 264.8467 698.873 264.8997 698.9135 264.9328 698.9386C 264.9659 698.9638 265.019 699.0043 265.052 699.0294C 265.0851 699.0546 265.1382 699.095 265.1712 699.1202C 265.2043 699.1454 265.2573 699.1859 265.2904 699.2111C 265.3235 699.2362 265.3766 699.2767 265.4096 699.3019C 265.4427 699.327 265.4958 699.3674 265.5288 699.3926C 265.5619 699.4178 265.6149 699.4583 265.648 699.4834C 265.6811 699.5086 265.7342 699.5491 265.7672 699.5742C 265.8003 699.5994 265.8533 699.6398 265.8864 699.665C 265.9195 699.6902 265.9725 699.7307 266.0056 699.7559C 266.0387 699.781 266.0917 699.8214 266.1248 699.8466C 266.1578 699.8718 266.2109 699.9122 266.244 699.9374C 266.2771 699.9626 266.3301 700.0031 266.3632 700.0282C 266.3962 700.0534 266.4493 700.0939 266.4824 700.119C 266.5154 700.1442 266.5685 700.1846 266.6016 700.2098C 266.6346 700.235 266.6877 700.2754 266.7208 700.3006C 266.7538 700.3258 266.8069 700.3662 266.84 700.3914C 266.873 700.4166 266.9261 700.457 266.9592 700.4822C 266.9922 700.5074 267.0453 700.5479 267.0784 700.573C 267.1114 700.5982 267.1645 700.6386 267.1976 700.6638C 267.2306 700.689 267.2837 700.7294 267.3168 700.7546C 267.3498 700.7798 267.4029 700.8202 267.436 700.8454C 267.469 700.8706 267.5221 700.911 267.5551 700.9362C 267.5882 700.9614 267.6413 701.0018 267.6743 701.027C 267.7074 701.0522 267.7605 701.0927 267.7935 701.1178C 267.8266 701.143 267.8797 701.1834 267.9127 701.2086C 267.9458 701.2338 267.9989 701.2742 268.0319 701.2994C 268.065 701.3246 268.1181 701.365 268.1511 701.3902C 268.1842 701.4154 268.2372 701.4558 268.2703 701.481C 268.3034 701.5062 268.3564 701.5466 268.3895 701.5718C 268.4226 701.597 268.4756 701.6374 268.5087 701.6626C 268.5418 701.6878 268.5948 701.7282 268.6279 701.7534C 268.661 701.7786 268.714 701.819 268.7471 701.8442C 268.7802 701.8694 268.8333 701.9098 268.8663 701.935C 268.8994 701.9602 268.9524 702.0006 268.9855 702.0258C 269.0186 702.051 269.0716 702.0914 269.1047 702.1166C 269.1378 702.1418 269.1909 702.1822 269.2239 702.2074C 269.257 702.2326 269.31 702.2729 269.3431 702.2982C 269.3761 702.3234 269.4292 702.3638 269.4623 702.389C 269.4954 702.4142 269.5484 702.4546 269.5815 702.4797C 269.6146 702.5049 269.6676 702.5454 269.7007 702.5706C 269.7337 702.5958 269.7868 702.6362 269.8199 702.6614C 269.8529 702.6866 269.906 702.727 269.9391 702.7522C 269.9721 702.7773 270.0252 702.8177 270.0583 702.843C 270.0913 702.8682 270.1444 702.9086 270.1775 702.9338C 270.2105 702.959 270.2636 702.9994 270.2967 703.0245C 270.3297 703.0497 270.3828 703.0902 270.4159 703.1154C 270.4489 703.1406 270.502 703.181 270.535 703.2062C 270.5681 703.2314 270.6212 703.2717 270.6542 703.2969C 270.6873 703.3221 270.7404 703.3625 270.7734 703.3878C 270.8065 703.413 270.8596 703.4534 270.8926 703.4786C 270.9257 703.5037 270.9788 703.5442 271.0118 703.5693C 271.0449 703.5945 271.098 703.6349 271.131 703.6602C 271.1641 703.6853 271.2172 703.7258 271.2502 703.751C 271.2833 703.7761 271.3364 703.8166 271.3694 703.8418C 271.4025 703.8669 271.4556 703.9073 271.4886 703.9326C 271.5217 703.9577 271.5748 703.9982 271.6078 704.0234C 271.6409 704.0485 271.6939 704.0889 271.727 704.1141C 271.7601 704.1393 271.8132 704.1797 271.8462 704.205C 271.8793 704.2302 271.9323 704.2706 271.9654 704.2958C 271.9985 704.3209 272.0515 704.3613 272.0846 704.3865C 272.1177 704.4117 272.1707 704.4521 272.2038 704.4774C 272.2369 704.5025 272.2899 704.543 272.323 704.5681C 272.356 704.5933 272.4091 704.6337 272.4422 704.6589C 272.4753 704.6841 272.5284 704.7245 272.5614 704.7498C 272.5945 704.7749 272.6475 704.8153 272.6805 704.8405C 272.7136 704.8657 272.7667 704.9061 272.7998 704.9313C 272.8328 704.9565 272.8859 704.9969 272.919 705.0222C 272.952 705.0473 273.0051 705.0878 273.0381 705.1129C 273.0712 705.1381 273.1243 705.1785 273.1574 705.2037C 273.1904 705.2289 273.2435 705.2693 273.2766 705.2946C 273.3096 705.3197 273.3627 705.3601 273.3958 705.3853C 273.4288 705.4105 273.4819 705.4509 273.515 705.4761C 273.548 705.5013 273.6011 705.5417 273.6342 705.5669C 273.6672 705.5921 273.7203 705.6326 273.7534 705.6577C 273.7864 705.6829 273.8395 705.7233 273.8725 705.7485C 273.9056 705.7737 273.9587 705.8141 273.9917 705.8394C 274.0248 705.8645 274.0779 705.9049 274.1109 705.9301C 274.144 705.9553 274.1971 705.9957 274.2301 706.0209C 274.2632 706.0461 274.3163 706.0865 274.3493 706.1118C 274.3824 706.1369 274.4355 706.1773 274.4685 706.2025C 274.5016 706.2277 274.5546 706.2681 274.5877 706.2933C 274.6208 706.3185 274.6738 706.3589 274.7069 706.3841C 274.74 706.4093 274.793 706.4497 274.8261 706.4749C 274.8592 706.5001 274.9122 706.5405 274.9453 706.5657C 274.9784 706.5909 275.0314 706.6313 275.0645 706.6565C 275.0975 706.6817 275.1506 706.7221 275.1837 706.7473C 275.2168 706.7725 275.2698 706.8129 275.3029 706.8381C 275.3359 706.8633 275.389 706.9037 275.4221 706.9289C 275.4551 706.9541 275.5082 706.9945 275.5413 707.0197C 275.5744 707.0449 275.6274 707.0853 275.6605 707.1105C 275.6935 707.1357 275.7466 707.1761 275.7797 707.2013C 275.8127 707.2265 275.8658 707.2669 275.8989 707.2921C 275.9319 707.3173 275.985 707.3577 276.0181 707.3829C 276.0511 707.4081 276.1042 707.4485 276.1373 707.4737C 276.1703 707.4989 276.2234 707.5393 276.2565 707.5645C 276.2895 707.5897 276.3426 707.6301 276.3757 707.6553C 276.4088 707.6805 276.4618 707.7209 276.4948 707.7461C 276.5279 707.7712 276.581 707.8117 276.6141 707.8369C 276.6471 707.8621 276.7002 707.9025 276.7333 707.9277C 276.7663 707.9529 276.8194 707.9933 276.8524 708.0185C 276.8855 708.0437 276.9386 708.0841 276.9716 708.1093C 277.0047 708.1345 277.0577 708.1749 277.0908 708.2001C 277.1239 708.2253 277.177 708.2657 277.21 708.2909C 277.2431 708.3161 277.2962 708.3565 277.3292 708.3817C 277.3623 708.4069 277.4153 708.4473 277.4484 708.4725C 277.4814 708.4977 277.5345 708.5381 277.5676 708.5633C 277.6007 708.5885 277.6537 708.6289 277.6868 708.6541C 277.7199 708.6793 277.7729 708.7197 277.806 708.7449C 277.8391 708.77 277.8922 708.8105 277.9252 708.8357C 277.9583 708.8608 278.0114 708.9012 278.0444 708.9265C 278.0775 708.9517 278.1306 708.9921 278.1636 709.0173C 278.1967 709.0425 278.2497 709.0829 278.2828 709.108C 278.3159 709.1332 278.3689 709.1737 278.402 709.1989C 278.4351 709.2241 278.4882 709.2645 278.5212 709.2897C 278.5543 709.3148 278.6073 709.3552 278.6404 709.3804C 278.6735 709.4056 278.7265 709.446 278.7596 709.4713C 278.7927 709.4965 278.8457 709.5369 278.8788 709.562C 278.9118 709.5872 278.9649 709.6277 278.998 709.6528C 279.031 709.678 279.0841 709.7184 279.1172 709.7437C 279.1502 709.7689 279.2033 709.8093 279.2364 709.8345C 279.2694 709.8596 279.3225 709.9 279.3556 709.9252C 279.3886 709.9504 279.4417 709.9908 279.4747 710.0161C 279.5078 710.0413 279.5609 710.0817 279.594 710.1068C 279.627 710.132 279.6801 710.1725 279.7132 710.1976C 279.7462 710.2228 279.7993 710.2632 279.8323 710.2885C 279.8654 710.3136 279.9185 710.3541 279.9515 710.3793C 279.9846 710.4044 280.0377 710.4448 280.0707 710.47C 280.1038 710.4952 280.1569 710.5356 280.1899 710.5609C 280.223 710.5861 280.2761 710.6265 280.3091 710.6516C 280.3422 710.6768 280.3953 710.7172 280.4283 710.7424C 280.4614 710.7676 280.5145 710.808 280.5475 710.8333C 280.5806 710.8584 280.6336 710.8989 280.6667 710.924C 280.6998 710.9492 280.7529 710.9896 280.7859 711.0148C 280.819 711.04 280.872 711.0804 280.9051 711.1057C 280.9382 711.1309 280.9912 711.1713 281.0243 711.1964C 281.0574 711.2216 281.1105 711.262 281.1435 711.2872C 281.1766 711.3124 281.2296 711.3528 281.2627 711.3781C 281.2957 711.4032 281.3488 711.4437 281.3819 711.4688C 281.415 711.494 281.468 711.5344 281.5011 711.5596C 281.5341 711.5848 281.5872 711.6252 281.6203 711.6504C 281.6534 711.6756 281.7064 711.716 281.7395 711.7412C 281.7726 711.7664 281.8256 711.8068 281.8587 711.832C 281.8917 711.8572 281.9448 711.8976 281.9779 711.9229C 282.0109 711.948 282.064 711.9884 282.0971 712.0136C 282.1301 712.0388 282.1832 712.0792 282.2162 712.1044C 282.2493 712.1296 282.3024 712.17 282.3354 712.1952C 282.3685 712.2204 282.4216 712.2608 282.4547 712.286C 282.4877 712.3112 282.5408 712.3516 282.5739 712.3768C 282.6069 712.402 282.66 712.4424 282.6931 712.4677C 282.7261 712.4928 282.7792 712.5332 282.8123 712.5584C 282.8453 712.5836 282.8984 712.624 282.9315 712.6492C 282.9645 712.6744 283.0176 712.7148 283.0506 712.74C 283.0837 712.7652 283.1367 712.8056 283.1698 712.8308C 283.2029 712.856 283.256 712.8964 283.289 712.9216C 283.3221 712.9468 283.3752 712.9872 283.4082 713.0124C 283.4413 713.0376 283.4944 713.078 283.5274 713.1032C 283.5605 713.1284 283.6136 713.1688 283.6466 713.194C 283.6797 713.2192 283.7328 713.2596 283.7658 713.2848C 283.7989 713.31 283.8519 713.3504 283.885 713.3756C 283.9181 713.4008 283.9712 713.4412 284.0042 713.4664C 284.0373 713.4916 284.0903 713.532 284.1234 713.5572C 284.1565 713.5824 284.2095 713.6228 284.2426 713.6479C 284.2757 713.6732 284.3287 713.7136 284.3618 713.7388C 284.3949 713.764 284.4479 713.8044 284.481 713.8296C 284.5141 713.8547 284.5671 713.8952 284.6002 713.9204C 284.6332 713.9456 284.6863 713.986 284.7194 714.0112C 284.7524 714.0364 284.8055 714.0768 284.8386 714.102C 284.8716 714.1272 284.9247 714.1676 284.9578 714.1927C 284.9908 714.218 285.0439 714.2584 285.077 714.2836C 285.11 714.3088 285.1631 714.3492 285.1962 714.3744C 285.2292 714.3995 285.2823 714.44 285.3154 714.4652C 285.3484 714.4904 285.4345 714.556 285.4345 714.556" stroke="#0000FF" stroke-width="1.19553" fill="none" /><path id="79" transform="matrix(1 0 0 -1 0 841)" d="M166.3577 714.5567L285.4348 714.5567" stroke="#FF0000" stroke-width="0.3985" stroke-dasharray="7.500201,7.500201" fill="none" /><path id="80" transform="matrix(1 0 0 -1 0 841)" d="M285.4348 601.1713L285.4348 714.5567" stroke="#FF0000" stroke-width="0.3985" stroke-dasharray="7.500201,7.500201" fill="none" /><path id="81" transform="matrix(1 0 0 -1 0 841)" d="M166.3577 649.6436L200.2232 649.6436" stroke="#0000FF" stroke-width="0.3985" stroke-dasharray="7.500201,7.500201" fill="none" /><path id="82" transform="matrix(1 0 0 -1 0 841)" d="M200.2232 601.1713L200.2232 649.6436" stroke="#0000FF" stroke-width="0.3985" stroke-dasharray="7.500201,7.500201" fill="none" /></g><path id="88" transform="matrix(1 0 0 -1 0 841)" d="M145.6413 665.1351C 145.7609 665.0288 145.8605 664.9525 145.9003 664.9259C 146.259 664.647 146.4283 664.4344 146.4283 664.2883C 146.4283 664.2086 146.3752 664.1588 146.269 664.1588C 146.2291 664.1588 146.0598 664.192 145.8207 664.2584L145.8207 664.2584L143.32 664.9359C 143.2802 664.9359 143.1075 664.9658 143.0411 664.9658C 142.6824 664.9658 142.4135 664.71 142.4135 664.3779C 142.4135 664.1787 142.4865 663.9894 142.6326 663.7503C 142.9514 663.2588 143.4363 662.8437 144.5255 662.1663C 143.7684 662.4053 143.2104 662.5648 143.0112 662.5648C 142.6658 662.5648 142.4135 662.329 142.4135 661.9969C 142.4135 661.3859 143.0809 660.6918 144.5156 659.7752L144.5156 659.7752L142.4333 660.353L142.4333 660.353L142.4135 660.3232C 142.533 659.7653 142.5762 659.5527 142.7223 658.7291L142.7223 658.7291L142.8817 658.7291L142.8817 658.7291L142.8817 658.9782C 142.8817 659.2306 142.9547 659.3668 143.1008 659.3668C 143.2204 659.3668 144.1204 659.1376 145.3823 658.7789C 146.2059 658.5399 146.3022 658.51 146.8069 658.3904L146.8069 658.3904L146.8069 659.1376C 145.2262 659.6158 144.8542 659.7586 144.3362 660.104C 143.4994 660.6619 142.9315 661.253 142.9315 661.5984C 142.9315 661.7179 143.0212 661.7976 143.1805 661.7976C 143.2736 661.7976 144.4824 661.4755 146.8069 660.8512L146.8069 660.8512L146.8069 661.5984C 145.2528 661.9969 144.7646 662.1862 144.0473 662.7042C 143.3699 663.1824 142.9315 663.6872 142.9315 663.9794C 142.9315 664.0857 143.0344 664.1787 143.1407 664.1787C 143.1938 664.1787 143.3167 664.1488 143.4894 664.1089L143.4894 664.1089L145.7808 663.5311C 146.1527 663.4381 146.3453 663.4016 146.4384 663.4016C 146.7438 663.4016 146.8966 663.5344 146.8966 663.8001C 146.8966 664.265 146.5745 664.7034 145.8306 665.2347L145.8306 665.2347L145.7609 665.2845z" stroke="none" fill="#000000" fill-rule="evenodd" /><path id="89" transform="matrix(1 0 0 -1 0 841)" d="M146.6475 671.0828C 146.6077 670.5116 146.5214 670.4452 145.7908 670.3256L145.7908 670.3256L140.1519 669.3892L140.1519 669.3892L140.1519 669.1301L140.1519 669.1301L145.1332 666.241C 146.4615 665.444 146.5679 665.3542 146.6475 664.9558L146.6475 664.9558L146.8069 664.9558L146.8069 664.9558L146.8069 666.8188L146.8069 666.8188L146.6475 666.8188C 146.6077 666.3007 146.5513 666.231 146.2988 666.231C 146.1129 666.231 146.0266 666.2576 145.6812 666.4302L145.6812 666.4302L144.5554 666.9981L144.5554 666.9981L144.5554 669.1899L144.5554 669.1899L145.8605 669.3892C 145.9535 669.3892 146.0399 669.4091 146.1195 669.4091C 146.5048 669.4091 146.5944 669.2696 146.6475 668.632L146.6475 668.632L146.8069 668.632L146.8069 668.632L146.8069 671.0828zM144.1967 667.2073L141.6064 668.7017L141.6064 668.7017L144.1967 669.1401z" stroke="none" fill="#000000" fill-rule="evenodd" /><path id="90" transform="matrix(1 0 0 -1 0 841)" d="M142.1445 681.1948L140.1619 681.5933L140.1619 681.5933L140.1619 681.3642C 140.3745 681.2181 140.4209 681.1284 140.4209 680.9159C 140.4209 680.7963 140.3911 680.6834 140.3113 680.4576C 140.2316 680.2318 140.1719 679.9163 140.1719 679.6108C 140.1719 678.5746 140.8659 677.8374 141.8356 677.8374C 142.3802 677.8374 142.6625 677.9869 143.3001 678.5846C 143.3931 678.6643 143.5326 678.8005 143.7186 678.9731C 143.9178 679.1459 144.0573 679.282 144.137 679.3617C 144.6285 679.8266 144.8875 679.9595 145.3126 679.9595C 146.0697 679.9595 146.6376 679.3916 146.6376 678.6743C 146.6376 677.8374 145.9402 677.2197 144.9838 677.2197C 144.9041 677.2197 144.8344 677.2264 144.7546 677.2397L144.7546 677.2397L144.7347 677.0404L144.7347 677.0404L146.9564 676.7017L146.9564 676.7017L146.9564 676.881C 146.7306 676.9474 146.6276 677.0603 146.6276 677.2596C 146.6276 677.3658 146.6774 677.512 146.7571 677.7776C 146.9165 678.2292 146.9863 678.4949 146.9863 678.8137C 146.9863 679.9561 146.1229 680.8262 144.9938 680.8262C 144.3561 680.8262 143.9676 680.5905 143.051 679.7004C 142.1478 678.7971 142.0083 678.7141 141.5168 678.7141C 140.8925 678.7141 140.5006 679.1326 140.5006 679.81C 140.5006 680.1687 140.6301 680.4841 140.8693 680.6967C 141.1216 680.9092 141.4637 680.9889 142.1146 681.0155z" stroke="none" fill="#000000" fill-rule="evenodd" /><path id="91" transform="matrix(1 0 0 -1 0 841)" d="M145.6712 683.8051C 145.99 683.5659 146.0731 683.4895 146.1793 683.3965C 146.352 683.2239 146.4483 683.0678 146.4483 682.9881C 146.4483 682.9084 146.3785 682.8287 146.2988 682.8287C 146.2059 682.8287 146.0598 682.8486 145.8605 682.9283C 145.8339 682.9283 145.7609 682.9515 145.6812 682.9781L145.6812 682.9781L145.6613 682.9781L145.6613 682.9781L145.6413 682.9881L145.6413 682.9881L142.4333 683.8648L142.4333 683.8648L142.4135 683.8349C 142.6127 682.8254 142.6359 682.6261 142.6625 682.2409L142.6625 682.2409L142.8219 682.2409C 142.8352 682.7589 142.8618 682.8685 143.061 682.8685C 143.1407 682.8685 143.3001 682.832 143.4994 682.7789L143.4994 682.7789L145.2628 682.3007C 145.8472 682.1412 146.1494 682.0815 146.3487 682.0815C 146.7206 682.0815 146.9165 682.2343 146.9165 682.5398C 146.9165 682.9914 146.6177 683.3633 145.7808 683.9346zM140.2914 683.7253C 140.2914 683.4464 140.5272 683.2571 140.8194 683.2571C 141.1382 683.2571 141.3474 683.4431 141.3474 683.7353C 141.3474 683.9877 141.1183 684.2234 140.8394 684.2234C 140.5604 684.2234 140.2914 683.991 140.2914 683.7253z" stroke="none" fill="#000000" fill-rule="evenodd" /><path id="92" transform="matrix(1 0 0 -1 0 841)" d="M142.7721 689.0653L142.7721 688.4575C 142.7721 688.4177 142.7588 688.3779 142.6924 688.2982C 142.5197 688.0192 142.4135 687.6937 142.4135 687.3218C 142.4135 686.206 143.1872 685.3193 144.1171 685.3193C 144.6351 685.3193 144.9406 685.5352 145.193 686.1064C 145.5915 685.5086 145.7908 685.3392 146.0298 685.3392C 146.1627 685.3392 146.2856 685.409 146.4184 685.6083C 147.056 684.612 147.2586 684.4426 147.7235 684.4426C 148.4009 684.4426 148.8593 685.0968 148.8593 686.1064C 148.8593 687.355 148.2681 688.1985 147.4047 688.1985C 146.7671 688.1985 146.342 687.717 146.0897 686.7739C 145.9834 686.3355 145.8306 686.0765 145.6712 686.0765C 145.5251 686.0765 145.2628 686.3023 145.2628 686.4352C 145.2628 686.4484 145.2727 686.465 145.2727 686.5049C 145.2993 686.5846 145.3026 686.7207 145.3026 686.8137C 145.3026 687.717 144.5023 688.6568 143.7186 688.6568C 143.5591 688.6568 143.3599 688.6202 143.1606 688.5671L143.1606 688.5671L143.1606 689.0653zM146.528 685.8374C 146.528 685.8374 146.5479 685.8607 146.5479 685.8872C 146.5612 685.9138 146.5977 686.0167 146.6376 686.1761C 146.9564 687.2255 147.2386 687.6008 147.7036 687.6008C 148.2349 687.6008 148.6401 687.0129 148.6401 686.2558C 148.6401 685.4588 148.2615 684.9906 147.6239 684.9906C 147.3848 684.9906 147.2121 685.0504 147.0261 685.2097C 146.8535 685.3293 146.528 685.7577 146.528 685.8374zM142.6326 687.3119C 142.6326 687.6705 142.8751 687.8698 143.34 687.8698C 143.6986 687.8698 144.1337 687.7469 144.4658 687.5609C 144.8775 687.3351 145.0934 687.0262 145.0934 686.6942C 145.0934 686.309 144.8244 686.0964 144.3462 686.0964C 143.4296 686.0964 142.6326 686.6609 142.6326 687.3119z" stroke="none" fill="#000000" fill-rule="evenodd" /><path id="93" transform="matrix(1 0 0 -1 0 841)" d="M145.6413 693.927L145.9003 693.7178C 146.2723 693.4255 146.4283 693.2429 146.4283 693.1101C 146.4283 693.0304 146.3487 692.9507 146.269 692.9507C 146.2026 692.9507 146.1992 692.944 145.6413 693.0901L145.6413 693.0901L143.5891 693.658C 143.3898 693.6979 143.1673 693.7477 143.0212 693.7477C 142.6625 693.7477 142.4135 693.4754 142.4135 693.0901C 142.4135 692.4526 143.0112 691.8216 144.6052 690.7988L144.6052 690.7988L142.4333 691.4662L142.4333 691.4662L142.4135 691.4364C 142.533 690.8917 142.5629 690.6859 142.7223 689.8224L142.7223 689.8224L142.8817 689.8224C 142.895 690.3272 142.9514 690.46 143.1507 690.46C 143.2171 690.46 143.2802 690.4401 143.32 690.4401L143.32 690.4401L146.8069 689.4837L146.8069 689.4837L146.8069 690.2309C 145.2395 690.6958 145.0137 690.7888 144.3362 691.2272C 143.4197 691.825 142.9215 692.3297 142.9215 692.7017C 142.9215 692.8478 143.0378 692.9407 143.2104 692.9407C 143.33 692.9407 143.6621 692.881 143.9676 692.8013L143.9676 692.8013L145.6115 692.3629C 146.1295 692.23 146.2656 692.2035 146.3586 692.2035C 146.7438 692.2035 146.8966 692.3397 146.8966 692.6718C 146.8966 693.1101 146.6874 693.3757 145.7708 694.0665z" stroke="none" fill="#000000" fill-rule="evenodd" /><path id="94" transform="matrix(1 0 0 -1 0 841)" d="M145.7111 698.9482C 145.8705 698.7888 145.9103 698.7357 145.99 698.6692C 146.3088 698.3637 146.3985 698.2308 146.3985 698.1512C 146.3985 698.0715 146.3487 698.0117 146.269 698.0117C 146.0697 698.0117 144.3661 698.4202 142.6525 698.8984C 142.5596 698.9249 142.5363 698.9316 142.4433 698.9581L142.4433 698.9581L142.4135 698.8884L142.4135 698.8884L142.4832 698.2806L142.4832 698.2806L142.5131 698.2508L142.5131 698.2508L142.9913 698.1412C 142.6326 698.0615 142.4135 697.7693 142.4135 697.3442C 142.4135 696.0291 144.2432 694.4949 145.8107 694.4949C 146.5147 694.4949 146.9165 694.8735 146.9165 695.5111C 146.9165 696.2018 146.5878 696.6368 145.3524 697.5135C 146.1361 697.3143 146.259 697.2844 146.4981 697.2844C 146.7903 697.2844 146.9066 697.4039 146.9066 697.6829C 146.9066 698.0814 146.7272 698.3239 145.8107 699.0677zM142.6326 697.4039C 142.6592 697.7361 142.895 697.9619 143.2404 697.9619C 144.0772 697.9619 145.2594 697.4538 145.99 696.7763C 146.269 696.5372 146.4283 696.1885 146.4283 695.9095C 146.4283 695.5509 146.1461 695.3317 145.6812 695.3317C 145.1498 695.3317 144.1237 695.7004 143.4994 696.1387C 142.9282 696.5372 142.6061 697.0055 142.6326 697.4039z" stroke="none" fill="#000000" fill-rule="evenodd" /><path id="95" transform="matrix(1 0 0 -1 0 841)" d="M145.5815 701.5783C 145.7011 701.4854 145.8007 701.389 145.9203 701.3093C 146.3453 700.9905 146.4882 700.7946 146.4882 700.6219C 146.4882 700.5156 146.4283 700.4724 146.3088 700.4724C 146.2424 700.4724 146.1195 700.499 145.9203 700.5521C 145.8937 700.5521 145.8472 700.5687 145.8207 700.582L145.8207 700.582L140.0523 702.0864L140.0523 702.0864L140.0025 702.0366C 140.1353 701.4388 140.2051 701.0669 140.2715 700.4824L140.2715 700.4824L140.4309 700.4824C 140.4309 700.9606 140.5006 701.1599 140.66 701.1599C 140.6999 701.1599 140.7596 701.1466 140.8394 701.12L140.8394 701.12L146.0996 699.7551C 146.2192 699.7153 146.3188 699.7053 146.3586 699.7053C 146.7173 699.7053 146.9165 699.8747 146.9165 700.1935C 146.9165 700.7115 146.6276 701.0569 145.6712 701.7078z" stroke="none" fill="#000000" fill-rule="evenodd" /><path id="118" transform="matrix(1 0 0 -1 0 841)" d="M327.197 692.96L388.983 692.96" stroke="#000000" stroke-width="0.436" fill="none" /><path id="183" transform="matrix(1 0 0 -1 0 841)" d="M438.845 650.583L502.136 650.583" stroke="#000000" stroke-width="0.436" fill="none" /><path id="219" transform="matrix(1 0 0 -1 0 841)" d="M482.595 616.188L498.959 616.188" stroke="#000000" stroke-width="0.436" fill="none" /><path id="232" transform="matrix(1 0 0 -1 0 841)" d="M342.356 598.944L407.505 598.944" stroke="#000000" stroke-width="0.398" fill="none" /><path id="233" transform="matrix(1 0 0 -1 0 841)" d="M342.556 583.012L342.556 598.944" stroke="#000000" stroke-width="0.398" fill="none" /><path id="234" transform="matrix(1 0 0 -1 0 841)" d="M407.306 583.012L407.306 598.944" stroke="#000000" stroke-width="0.398" fill="none" /><path id="235" transform="matrix(1 0 0 -1 0 841)" d="M342.356 583.012L407.505 583.012" stroke="#000000" stroke-width="0.398" fill="none" /></g></g></svg>