<svg xmlns="http://www.w3.org/2000/svg" xmlns:xlink="http://www.w3.org/1999/xlink" id="body_366" preserveAspectRatio="xMinYMin meet" viewBox="0 0 793 1121"><defs><clipPath id="1"><path id="" clip-rule="evenodd" transform="matrix(1 0 0 1 0 0)" d="M0 841L0 -0.8900146L0 -0.8900146L595.276 -0.8900146L595.276 -0.8900146L595.276 841L595.276 841L0 841z" /></clipPath></defs><g transform="matrix(1.333333 0 0 1.333333 0 0)"><g clip-path="url(#1)"><path id="34" transform="matrix(1 0 0 -1 0 841)" d="M85.039 766.564L510.236 766.564" stroke="#000000" stroke-width="0.498" fill="none" /><path id="82" transform="matrix(1 0 0 -1 0 841)" d="M264.928 744.011L375.533 744.011" stroke="#000000" stroke-width="0.436" fill="none" /><path id="214" transform="matrix(1 0 0 -1 0 841)" d="M350.384 694.663L366.704 694.663" stroke="#000000" stroke-width="0.436" fill="none" /><path id="222" transform="matrix(1 0 0 -1 0 841)" d="M377.58 694.663L408.027 694.663" stroke="#000000" stroke-width="0.436" fill="none" /><path id="241" transform="matrix(1 0 0 -1 0 841)" d="M429.059 702.635L496.991 702.635" stroke="#000000" stroke-width="0.398" fill="none" /><path id="242" transform="matrix(1 0 0 -1 0 841)" d="M429.259 686.523L429.259 702.635" stroke="#000000" stroke-width="0.398" fill="none" /><path id="243" transform="matrix(1 0 0 -1 0 841)" d="M496.792 686.523L496.792 702.635" stroke="#000000" stroke-width="0.398" fill="none" /><path id="244" transform="matrix(1 0 0 -1 0 841)" d="M429.059 686.523L496.991 686.523" stroke="#000000" stroke-width="0.398" fill="none" /><path id="386" transform="matrix(1 0 0 -1 0 841)" d="M225.482 605.91L343.136 605.91" stroke="#000000" stroke-width="0.436" fill="none" /><path id="419" transform="matrix(1 0 0 -1 0 841)" d="M358.852 605.91L427.183 605.91" stroke="#000000" stroke-width="0.436" fill="none" /><path id="446" transform="matrix(1 0 0 -1 0 841)" d="M441.702 616.748L509.316 616.748" stroke="#000000" stroke-width="0.398" fill="none" /><path id="447" transform="matrix(1 0 0 -1 0 841)" d="M441.902 597.268L441.902 616.749" stroke="#000000" stroke-width="0.398" fill="none" /><path id="448" transform="matrix(1 0 0 -1 0 841)" d="M509.117 597.268L509.117 616.749" stroke="#000000" stroke-width="0.398" fill="none" /><path id="449" transform="matrix(1 0 0 -1 0 841)" d="M441.702 597.268L509.316 597.268" stroke="#000000" stroke-width="0.398" fill="none" /><path id="576" transform="matrix(1 0 0 -1 0 841)" d="M225.482 524.137L343.136 524.137" stroke="#000000" stroke-width="0.436" fill="none" /><path id="609" transform="matrix(1 0 0 -1 0 841)" d="M358.852 524.137L427.554 524.137" stroke="#000000" stroke-width="0.436" fill="none" /><path id="635" transform="matrix(1 0 0 -1 0 841)" d="M442.074 534.975L504.233 534.975" stroke="#000000" stroke-width="0.398" fill="none" /><path id="636" transform="matrix(1 0 0 -1 0 841)" d="M442.273 515.494L442.273 534.975" stroke="#000000" stroke-width="0.398" fill="none" /><path id="637" transform="matrix(1 0 0 -1 0 841)" d="M504.033 515.494L504.033 534.975" stroke="#000000" stroke-width="0.398" fill="none" /><path id="638" transform="matrix(1 0 0 -1 0 841)" d="M442.074 515.494L504.233 515.494" stroke="#000000" stroke-width="0.398" fill="none" /><path id="774" transform="matrix(1 0 0 -1 0 841)" d="M212.697 442.363L281.576 442.363" stroke="#000000" stroke-width="0.436" fill="none" /><path id="795" transform="matrix(1 0 0 -1 0 841)" d="M139.543 408.181L181.957 408.181" stroke="#000000" stroke-width="0.436" fill="none" /><path id="812" transform="matrix(1 0 0 -1 0 841)" d="M192.833 408.181L258.213 408.181" stroke="#000000" stroke-width="0.436" fill="none" /><path id="819" transform="matrix(1 0 0 -1 0 841)" d="M269.089 408.181L313.336 408.181" stroke="#000000" stroke-width="0.436" fill="none" /><path id="827" transform="matrix(1 0 0 -1 0 841)" d="M138.347 394.082L314.531 394.082" stroke="#000000" stroke-width="0.436" fill="none" /><path id="851" transform="matrix(1 0 0 -1 0 841)" d="M329.052 402.664L398.849 402.664" stroke="#000000" stroke-width="0.398" fill="none" /><path id="852" transform="matrix(1 0 0 -1 0 841)" d="M329.251 385.439L329.251 402.664" stroke="#000000" stroke-width="0.398" fill="none" /><path id="853" transform="matrix(1 0 0 -1 0 841)" d="M398.649 385.439L398.649 402.664" stroke="#000000" stroke-width="0.398" fill="none" /><path id="854" transform="matrix(1 0 0 -1 0 841)" d="M329.052 385.439L398.849 385.439" stroke="#000000" stroke-width="0.398" fill="none" /><path id="1139" transform="matrix(1 0 0 -1 0 841)" d="M207.842 235.217L310.244 235.217" stroke="#000000" stroke-width="0.436" fill="none" /><path id="1193" transform="matrix(1 0 0 -1 0 841)" d="M254.074 199.939L335.084 199.939" stroke="#000000" stroke-width="0.436" fill="none" /><path id="1246" transform="matrix(1 0 0 -1 0 841)" d="M287.779 164.017L354.381 164.017" stroke="#000000" stroke-width="0.436" fill="none" /><path id="1255" transform="matrix(1 0 0 -1 0 841)" d="M364.649 164.017L410.653 164.017" stroke="#000000" stroke-width="0.436" fill="none" /><path id="1271" transform="matrix(1 0 0 -1 0 841)" d="M437.285 164.017L453.648 164.017" stroke="#000000" stroke-width="0.436" fill="none" /><path id="1284" transform="matrix(1 0 0 -1 0 841)" d="M467.56 171.988L510.236 171.988" stroke="#000000" stroke-width="0.398" fill="none" /><path id="1285" transform="matrix(1 0 0 -1 0 841)" d="M467.759 157.932L467.759 171.988" stroke="#000000" stroke-width="0.398" fill="none" /><path id="1286" transform="matrix(1 0 0 -1 0 841)" d="M510.037 157.932L510.037 171.988" stroke="#000000" stroke-width="0.398" fill="none" /><path id="1287" transform="matrix(1 0 0 -1 0 841)" d="M467.56 157.932L510.236 157.932" stroke="#000000" stroke-width="0.398" fill="none" /></g></g></svg>