<svg xmlns="http://www.w3.org/2000/svg" xmlns:xlink="http://www.w3.org/1999/xlink" id="body_328" preserveAspectRatio="xMinYMin meet" viewBox="0 0 793 1121"><defs><clipPath id="1"><path id="" clip-rule="evenodd" transform="matrix(1 0 0 1 0 0)" d="M0 841L0 -0.8900146L0 -0.8900146L595.276 -0.8900146L595.276 -0.8900146L595.276 841L595.276 841L0 841z" /></clipPath></defs><g transform="matrix(1.333333 0 0 1.333333 0 0)"><g clip-path="url(#1)"><path id="22" transform="matrix(1 0 0 -1 0 841)" d="M85.039 766.564L510.236 766.564" stroke="#000000" stroke-width="0.498" fill="none" /><path id="39" transform="matrix(1 0 0 -1 0 841)" d="M112.312 739.594L154.836 739.594" stroke="#000000" stroke-width="0.398" fill="none" /><path id="40" transform="matrix(1 0 0 -1 0 841)" d="M112.511 725.598L112.511 739.594" stroke="#000000" stroke-width="0.398" fill="none" /><path id="41" transform="matrix(1 0 0 -1 0 841)" d="M154.636 725.598L154.636 739.594" stroke="#000000" stroke-width="0.398" fill="none" /><path id="42" transform="matrix(1 0 0 -1 0 841)" d="M112.312 725.598L154.836 725.598" stroke="#000000" stroke-width="0.398" fill="none" /><path id="65" transform="matrix(1 0 0 -1 0 841)" d="M190.198 706.624L220.492 706.624" stroke="#000000" stroke-width="0.436" fill="none" /><path id="85" transform="matrix(1 0 0 -1 0 841)" d="M112.312 680.663L149.381 680.663" stroke="#000000" stroke-width="0.398" fill="none" /><path id="86" transform="matrix(1 0 0 -1 0 841)" d="M112.511 666.596L112.511 680.663" stroke="#000000" stroke-width="0.398" fill="none" /><path id="87" transform="matrix(1 0 0 -1 0 841)" d="M149.182 666.596L149.182 680.663" stroke="#000000" stroke-width="0.398" fill="none" /><path id="88" transform="matrix(1 0 0 -1 0 841)" d="M112.312 666.596L149.381 666.596" stroke="#000000" stroke-width="0.398" fill="none" /><path id="126" transform="matrix(1 0 0 -1 0 841)" d="M112.312 624.032L135.45 624.032" stroke="#000000" stroke-width="0.398" fill="none" /><path id="127" transform="matrix(1 0 0 -1 0 841)" d="M112.511 610.188L112.511 624.031" stroke="#000000" stroke-width="0.398" fill="none" /><path id="128" transform="matrix(1 0 0 -1 0 841)" d="M135.251 610.188L135.251 624.031" stroke="#000000" stroke-width="0.398" fill="none" /><path id="129" transform="matrix(1 0 0 -1 0 841)" d="M112.312 610.188L135.45 610.188" stroke="#000000" stroke-width="0.398" fill="none" /></g></g></svg>