<svg xmlns="http://www.w3.org/2000/svg" xmlns:xlink="http://www.w3.org/1999/xlink" id="body_66" preserveAspectRatio="xMinYMin meet" viewBox="0 0 793 1121"><defs><clipPath id="1"><path id="" clip-rule="evenodd" transform="matrix(1 0 0 1 0 0)" d="M0 841L0 -0.8900146L0 -0.8900146L595.276 -0.8900146L595.276 -0.8900146L595.276 841L595.276 841L0 841z" /></clipPath></defs><g transform="matrix(1.333333 0 0 1.333333 0 0)"><g clip-path="url(#1)"><path id="45" transform="matrix(1 0 0 -1 0 841)" d="M85.039 766.564L510.236 766.564" stroke="#000000" stroke-width="0.498" fill="none" /><path id="239" transform="matrix(1 0 0 -1 0 841)" d="M173.271 701.525L346.256 701.525" stroke="#000000" stroke-width="0.436" fill="none" /><path id="265" transform="matrix(1 0 0 -1 0 841)" d="M361.972 701.525L381.357 701.525" stroke="#000000" stroke-width="0.436" fill="none" /><path id="274" transform="matrix(1 0 0 -1 0 841)" d="M395.877 709.284L416.582 709.284" stroke="#000000" stroke-width="0.398" fill="none" /><path id="275" transform="matrix(1 0 0 -1 0 841)" d="M396.077 695.61L396.077 709.284" stroke="#000000" stroke-width="0.398" fill="none" /><path id="276" transform="matrix(1 0 0 -1 0 841)" d="M416.383 695.61L416.383 709.284" stroke="#000000" stroke-width="0.398" fill="none" /><path id="277" transform="matrix(1 0 0 -1 0 841)" d="M395.877 695.61L416.582 695.61" stroke="#000000" stroke-width="0.398" fill="none" /></g></g></svg>