<svg xmlns="http://www.w3.org/2000/svg" xmlns:xlink="http://www.w3.org/1999/xlink" id="body_396" preserveAspectRatio="xMinYMin meet" viewBox="0 0 793 1121"><defs><clipPath id="1"><path id="" clip-rule="evenodd" transform="matrix(1 0 0 1 0 0)" d="M0 841L0 -0.8900146L0 -0.8900146L595.276 -0.8900146L595.276 -0.8900146L595.276 841L595.276 841L0 841z" /></clipPath><clipPath id="2"><path id="" clip-rule="evenodd" transform="matrix(1 0 0 1 0 0)" d="M0.125 841.073L595.1547 841.073L595.1547 841.073L595.1547 -0.9690552L595.1547 -0.9690552L0.125 -0.9690552z" /></clipPath><clipPath id="3"><path id="" clip-rule="evenodd" transform="matrix(1 0 0 1 0 0)" d="M19.4363 27.69806L575.6259 27.69806L575.6259 27.69806L575.6259 825.5788L575.6259 825.5788L19.4363 825.5788z" /></clipPath><clipPath id="4"><path id="" clip-rule="evenodd" transform="matrix(1 0 0 1 0 0)" d="M25.07376 33.33551L569.0288 33.33551L569.0288 33.33551L569.0288 44.73035L569.0288 44.73035L25.07376 44.73035z" /></clipPath><clipPath id="5"><path id="" clip-rule="evenodd" transform="matrix(1 0 0 1 0 0)" d="M19.4363 49.5282L575.6259 49.5282L575.6259 49.5282L575.6259 75.43652L575.6259 75.43652L19.4363 75.43652z" /></clipPath><clipPath id="6"><path id="" clip-rule="evenodd" transform="matrix(1 0 0 1 0 0)" d="M25.07376 52.88672L569.0288 52.88672L569.0288 52.88672L569.0288 71.83813L569.0288 71.83813L25.07376 71.83813z" /></clipPath><clipPath id="7"><path id="" clip-rule="evenodd" transform="matrix(1 0 0 1 0 0)" d="M19.4363 75.43652L575.6259 75.43652L575.6259 75.43652L575.6259 803.7487L575.6259 803.7487L19.4363 803.7487z" /></clipPath><clipPath id="8"><path id="" clip-rule="evenodd" transform="matrix(1 0 0 1 0 0)" d="M19.4363 75.43652L575.6259 75.43652L575.6259 75.43652L575.6259 803.7487L575.6259 803.7487L19.4363 803.7487z" /></clipPath><clipPath id="9"><path id="" clip-rule="evenodd" transform="matrix(1 0 0 1 0 0)" d="M25.07376 120.7761L161.0925 120.7761L161.0925 120.7761L161.0925 144.8853L161.0925 144.8853L25.07376 144.8853z" /></clipPath><clipPath id="10"><path id="" clip-rule="evenodd" transform="matrix(1 0 0 1 0 0)" d="M19.4363 75.43652L575.6259 75.43652L575.6259 75.43652L575.6259 803.7487L575.6259 803.7487L19.4363 803.7487z" /></clipPath><clipPath id="11"><path id="" clip-rule="evenodd" transform="matrix(1 0 0 1 0 0)" d="M178.1248 120.7761L569.0288 120.7761L569.0288 120.7761L569.0288 144.8853L569.0288 144.8853L178.1248 144.8853z" /></clipPath><clipPath id="12"><path id="" clip-rule="evenodd" transform="matrix(1 0 0 1 0 0)" d="M19.4363 75.43652L575.6259 75.43652L575.6259 75.43652L575.6259 803.7487L575.6259 803.7487L19.4363 803.7487z" /></clipPath><clipPath id="13"><path id="" clip-rule="evenodd" transform="matrix(1 0 0 1 0 0)" d="M178.1248 91.62927L569.0288 91.62927L569.0288 91.62927L569.0288 103.8638L569.0288 103.8638L178.1248 103.8638z" /></clipPath><clipPath id="14"><path id="" clip-rule="evenodd" transform="matrix(1 0 0 1 0 0)" d="M19.4363 75.43652L575.6259 75.43652L575.6259 75.43652L575.6259 803.7487L575.6259 803.7487L19.4363 803.7487z" /></clipPath><clipPath id="15"><path id="" clip-rule="evenodd" transform="matrix(1 0 0 1 0 0)" d="M161.0925 120.7761L178.1248 120.7761L178.1248 120.7761L178.1248 144.8853L178.1248 144.8853L161.0925 144.8853z" /></clipPath><clipPath id="16"><path id="" clip-rule="evenodd" transform="matrix(1 0 0 1 0 0)" d="M19.4363 75.43652L575.6259 75.43652L575.6259 75.43652L575.6259 803.7487L575.6259 803.7487L19.4363 803.7487z" /></clipPath><clipPath id="17"><path id="" clip-rule="evenodd" transform="matrix(1 0 0 1 0 0)" d="M25.07376 91.62927L161.6922 91.62927L161.6922 91.62927L161.6922 103.8638L161.6922 103.8638L25.07376 103.8638z" /></clipPath><clipPath id="18"><path id="" clip-rule="evenodd" transform="matrix(1 0 0 1 0 0)" d="M19.4363 75.43652L575.6259 75.43652L575.6259 75.43652L575.6259 803.7487L575.6259 803.7487L19.4363 803.7487z" /></clipPath><clipPath id="19"><path id="" clip-rule="evenodd" transform="matrix(1 0 0 1 0 0)" d="M161.0925 91.62927L178.1248 91.62927L178.1248 91.62927L178.1248 103.8638L178.1248 103.8638L161.0925 103.8638z" /></clipPath><clipPath id="20"><path id="" clip-rule="evenodd" transform="matrix(1 0 0 1 0 0)" d="M19.4363 75.43652L575.6259 75.43652L575.6259 75.43652L575.6259 803.7487L575.6259 803.7487L19.4363 803.7487z" /></clipPath><clipPath id="21"><path id="" clip-rule="evenodd" transform="matrix(1 0 0 1 0 0)" d="M178.1248 179.7896L569.0288 179.7896L569.0288 179.7896L569.0288 191.9041L569.0288 191.9041L178.1248 191.9041z" /></clipPath><clipPath id="22"><path id="" clip-rule="evenodd" transform="matrix(1 0 0 1 0 0)" d="M19.4363 75.43652L575.6259 75.43652L575.6259 75.43652L575.6259 803.7487L575.6259 803.7487L19.4363 803.7487z" /></clipPath><clipPath id="23"><path id="" clip-rule="evenodd" transform="matrix(1 0 0 1 0 0)" d="M25.07376 179.7896L161.0925 179.7896L161.0925 179.7896L161.0925 191.9041L161.0925 191.9041L25.07376 191.9041z" /></clipPath><clipPath id="24"><path id="" clip-rule="evenodd" transform="matrix(1 0 0 1 0 0)" d="M19.4363 75.43652L575.6259 75.43652L575.6259 75.43652L575.6259 803.7487L575.6259 803.7487L19.4363 803.7487z" /></clipPath><clipPath id="25"><path id="" clip-rule="evenodd" transform="matrix(1 0 0 1 0 0)" d="M161.0925 179.7896L178.1248 179.7896L178.1248 179.7896L178.1248 191.9041L178.1248 191.9041L161.0925 191.9041z" /></clipPath><clipPath id="26"><path id="" clip-rule="evenodd" transform="matrix(1 0 0 1 0 0)" d="M19.4363 75.43652L575.6259 75.43652L575.6259 75.43652L575.6259 803.7487L575.6259 803.7487L19.4363 803.7487z" /></clipPath><clipPath id="27"><path id="" clip-rule="evenodd" transform="matrix(1 0 0 1 0 0)" d="M19.4363 75.43652L575.6259 75.43652L575.6259 75.43652L575.6259 803.7487L575.6259 803.7487L19.4363 803.7487z" /></clipPath><clipPath id="28"><path id="" clip-rule="evenodd" transform="matrix(1 0 0 1 0 0)" d="M25.07376 197.9014L569.0288 197.9014L569.0288 197.9014L569.0288 216.8529L569.0288 216.8529L25.07376 216.8529z" /></clipPath><clipPath id="29"><path id="" clip-rule="evenodd" transform="matrix(1 0 0 1 0 0)" d="M19.4363 75.43652L575.6259 75.43652L575.6259 75.43652L575.6259 803.7487L575.6259 803.7487L19.4363 803.7487z" /></clipPath><clipPath id="30"><path id="" clip-rule="evenodd" transform="matrix(1 0 0 1 0 0)" d="M30.71123 237.6035L569.0288 237.6035L569.0288 237.6035L569.0288 249.7181L569.0288 249.7181L30.71123 249.7181z" /></clipPath><clipPath id="31"><path id="" clip-rule="evenodd" transform="matrix(1 0 0 1 0 0)" d="M19.4363 75.43652L575.6259 75.43652L575.6259 75.43652L575.6259 803.7487L575.6259 803.7487L19.4363 803.7487z" /></clipPath><clipPath id="32"><path id="" clip-rule="evenodd" transform="matrix(1 0 0 1 0 0)" d="M33.58993 271.9081L166.4901 271.9081L166.4901 271.9081L166.4901 283.183L166.4901 283.183L33.58993 283.183z" /></clipPath><clipPath id="33"><path id="" clip-rule="evenodd" transform="matrix(1 0 0 1 0 0)" d="M19.4363 75.43652L575.6259 75.43652L575.6259 75.43652L575.6259 803.7487L575.6259 803.7487L19.4363 803.7487z" /></clipPath><clipPath id="34"><path id="" clip-rule="evenodd" transform="matrix(1 0 0 1 0 0)" d="M171.8876 271.9081L320.8606 271.9081L320.8606 271.9081L320.8606 283.183L320.8606 283.183L171.8876 283.183z" /></clipPath><clipPath id="35"><path id="" clip-rule="evenodd" transform="matrix(1 0 0 1 0 0)" d="M19.4363 75.43652L575.6259 75.43652L575.6259 75.43652L575.6259 803.7487L575.6259 803.7487L19.4363 803.7487z" /></clipPath><clipPath id="36"><path id="" clip-rule="evenodd" transform="matrix(1 0 0 1 0 0)" d="M326.2581 271.9081L395.347 271.9081L395.347 271.9081L395.347 283.183L395.347 283.183L326.2581 283.183z" /></clipPath><clipPath id="37"><path id="" clip-rule="evenodd" transform="matrix(1 0 0 1 0 0)" d="M19.4363 75.43652L575.6259 75.43652L575.6259 75.43652L575.6259 803.7487L575.6259 803.7487L19.4363 803.7487z" /></clipPath><clipPath id="38"><path id="" clip-rule="evenodd" transform="matrix(1 0 0 1 0 0)" d="M400.7446 271.9081L480.3887 271.9081L480.3887 271.9081L480.3887 283.183L480.3887 283.183L400.7446 283.183z" /></clipPath><clipPath id="39"><path id="" clip-rule="evenodd" transform="matrix(1 0 0 1 0 0)" d="M19.4363 75.43652L575.6259 75.43652L575.6259 75.43652L575.6259 803.7487L575.6259 803.7487L19.4363 803.7487z" /></clipPath><clipPath id="40"><path id="" clip-rule="evenodd" transform="matrix(1 0 0 1 0 0)" d="M486.0262 271.9081L565.5504 271.9081L565.5504 271.9081L565.5504 283.183L565.5504 283.183L486.0262 283.183z" /></clipPath><clipPath id="41"><path id="" clip-rule="evenodd" transform="matrix(1 0 0 1 0 0)" d="M19.4363 75.43652L575.6259 75.43652L575.6259 75.43652L575.6259 803.7487L575.6259 803.7487L19.4363 803.7487z" /></clipPath><clipPath id="42"><path id="" clip-rule="evenodd" transform="matrix(1 0 0 1 0 0)" d="M33.58993 255.4755L166.73 255.4755L166.73 255.4755L166.73 267.59L166.73 267.59L33.58993 267.59z" /></clipPath><clipPath id="43"><path id="" clip-rule="evenodd" transform="matrix(1 0 0 1 0 0)" d="M19.4363 75.43652L575.6259 75.43652L575.6259 75.43652L575.6259 803.7487L575.6259 803.7487L19.4363 803.7487z" /></clipPath><clipPath id="44"><path id="" clip-rule="evenodd" transform="matrix(1 0 0 1 0 0)" d="M172.3674 255.4755L319.6611 255.4755L319.6611 255.4755L319.6611 267.59L319.6611 267.59L172.3674 267.59z" /></clipPath><clipPath id="45"><path id="" clip-rule="evenodd" transform="matrix(1 0 0 1 0 0)" d="M19.4363 75.43652L575.6259 75.43652L575.6259 75.43652L575.6259 803.7487L575.6259 803.7487L19.4363 803.7487z" /></clipPath><clipPath id="46"><path id="" clip-rule="evenodd" transform="matrix(1 0 0 1 0 0)" d="M325.4185 255.4755L396.1866 255.4755L396.1866 255.4755L396.1866 267.59L396.1866 267.59L325.4185 267.59z" /></clipPath><clipPath id="47"><path id="" clip-rule="evenodd" transform="matrix(1 0 0 1 0 0)" d="M19.4363 75.43652L575.6259 75.43652L575.6259 75.43652L575.6259 803.7487L575.6259 803.7487L19.4363 803.7487z" /></clipPath><clipPath id="48"><path id="" clip-rule="evenodd" transform="matrix(1 0 0 1 0 0)" d="M404.7028 255.4755L481.2284 255.4755L481.2284 255.4755L481.2284 267.59L481.2284 267.59L404.7028 267.59z" /></clipPath><clipPath id="49"><path id="" clip-rule="evenodd" transform="matrix(1 0 0 1 0 0)" d="M19.4363 75.43652L575.6259 75.43652L575.6259 75.43652L575.6259 803.7487L575.6259 803.7487L19.4363 803.7487z" /></clipPath><clipPath id="50"><path id="" clip-rule="evenodd" transform="matrix(1 0 0 1 0 0)" d="M486.8658 255.4755L566.1501 255.4755L566.1501 255.4755L566.1501 267.59L566.1501 267.59L486.8658 267.59z" /></clipPath><clipPath id="51"><path id="" clip-rule="evenodd" transform="matrix(1 0 0 1 0 0)" d="M19.4363 75.43652L575.6259 75.43652L575.6259 75.43652L575.6259 803.7487L575.6259 803.7487L19.4363 803.7487z" /></clipPath><clipPath id="52"><path id="" clip-rule="evenodd" transform="matrix(1 0 0 1 0 0)" d="M30.71123 395.6924L569.0288 395.6924L569.0288 395.6924L569.0288 407.8069L569.0288 407.8069L30.71123 407.8069z" /></clipPath><clipPath id="53"><path id="" clip-rule="evenodd" transform="matrix(1 0 0 1 0 0)" d="M19.4363 75.43652L575.6259 75.43652L575.6259 75.43652L575.6259 803.7487L575.6259 803.7487L19.4363 803.7487z" /></clipPath><clipPath id="54"><path id="" clip-rule="evenodd" transform="matrix(1 0 0 1 0 0)" d="M33.58993 410.0859L565.9102 410.0859L565.9102 410.0859L565.9102 424.2395L565.9102 424.2395L33.58993 424.2395z" /></clipPath><clipPath id="55"><path id="" clip-rule="evenodd" transform="matrix(1 0 0 1 0 0)" d="M19.4363 75.43652L575.6259 75.43652L575.6259 75.43652L575.6259 803.7487L575.6259 803.7487L19.4363 803.7487z" /></clipPath><clipPath id="56"><path id="" clip-rule="evenodd" transform="matrix(1 0 0 1 0 0)" d="M30.71123 361.3878L569.0288 361.3878L569.0288 361.3878L569.0288 373.6223L569.0288 373.6223L30.71123 373.6223z" /></clipPath><clipPath id="57"><path id="" clip-rule="evenodd" transform="matrix(1 0 0 1 0 0)" d="M19.4363 75.43652L575.6259 75.43652L575.6259 75.43652L575.6259 803.7487L575.6259 803.7487L19.4363 803.7487z" /></clipPath><clipPath id="58"><path id="" clip-rule="evenodd" transform="matrix(1 0 0 1 0 0)" d="M33.58993 375.9013L565.9102 375.9013L565.9102 375.9013L565.9102 390.0549L565.9102 390.0549L33.58993 390.0549z" /></clipPath><clipPath id="59"><path id="" clip-rule="evenodd" transform="matrix(1 0 0 1 0 0)" d="M19.4363 75.43652L575.6259 75.43652L575.6259 75.43652L575.6259 803.7487L575.6259 803.7487L19.4363 803.7487z" /></clipPath><clipPath id="60"><path id="" clip-rule="evenodd" transform="matrix(1 0 0 1 0 0)" d="M30.71123 464.3015L569.0288 464.3015L569.0288 464.3015L569.0288 476.416L569.0288 476.416L30.71123 476.416z" /></clipPath><clipPath id="61"><path id="" clip-rule="evenodd" transform="matrix(1 0 0 1 0 0)" d="M19.4363 75.43652L575.6259 75.43652L575.6259 75.43652L575.6259 803.7487L575.6259 803.7487L19.4363 803.7487z" /></clipPath><clipPath id="62"><path id="" clip-rule="evenodd" transform="matrix(1 0 0 1 0 0)" d="M33.58993 478.695L565.9102 478.695L565.9102 478.695L565.9102 492.8486L565.9102 492.8486L33.58993 492.8486z" /></clipPath><clipPath id="63"><path id="" clip-rule="evenodd" transform="matrix(1 0 0 1 0 0)" d="M19.4363 75.43652L575.6259 75.43652L575.6259 75.43652L575.6259 803.7487L575.6259 803.7487L19.4363 803.7487z" /></clipPath><clipPath id="64"><path id="" clip-rule="evenodd" transform="matrix(1 0 0 1 0 0)" d="M30.71123 429.9969L569.0288 429.9969L569.0288 429.9969L569.0288 442.1115L569.0288 442.1115L30.71123 442.1115z" /></clipPath><clipPath id="65"><path id="" clip-rule="evenodd" transform="matrix(1 0 0 1 0 0)" d="M19.4363 75.43652L575.6259 75.43652L575.6259 75.43652L575.6259 803.7487L575.6259 803.7487L19.4363 803.7487z" /></clipPath><clipPath id="66"><path id="" clip-rule="evenodd" transform="matrix(1 0 0 1 0 0)" d="M33.58993 444.3904L566.1501 444.3904L566.1501 444.3904L566.1501 458.5441L566.1501 458.5441L33.58993 458.5441z" /></clipPath><clipPath id="67"><path id="" clip-rule="evenodd" transform="matrix(1 0 0 1 0 0)" d="M19.4363 75.43652L575.6259 75.43652L575.6259 75.43652L575.6259 803.7487L575.6259 803.7487L19.4363 803.7487z" /></clipPath><clipPath id="68"><path id="" clip-rule="evenodd" transform="matrix(1 0 0 1 0 0)" d="M30.71123 291.6992L569.0288 291.6992L569.0288 291.6992L569.0288 303.9337L569.0288 303.9337L30.71123 303.9337z" /></clipPath><clipPath id="69"><path id="" clip-rule="evenodd" transform="matrix(1 0 0 1 0 0)" d="M19.4363 75.43652L575.6259 75.43652L575.6259 75.43652L575.6259 803.7487L575.6259 803.7487L19.4363 803.7487z" /></clipPath><clipPath id="70"><path id="" clip-rule="evenodd" transform="matrix(1 0 0 1 0 0)" d="M33.58993 306.6924L565.5504 306.6924L565.5504 306.6924L565.5504 320.8461L565.5504 320.8461L33.58993 320.8461z" /></clipPath><clipPath id="71"><path id="" clip-rule="evenodd" transform="matrix(1 0 0 1 0 0)" d="M19.4363 75.43652L575.6259 75.43652L575.6259 75.43652L575.6259 803.7487L575.6259 803.7487L19.4363 803.7487z" /></clipPath><clipPath id="72"><path id="" clip-rule="evenodd" transform="matrix(1 0 0 1 0 0)" d="M30.71123 326.6035L569.0288 326.6035L569.0288 326.6035L569.0288 338.718L569.0288 338.718L30.71123 338.718z" /></clipPath><clipPath id="73"><path id="" clip-rule="evenodd" transform="matrix(1 0 0 1 0 0)" d="M19.4363 75.43652L575.6259 75.43652L575.6259 75.43652L575.6259 803.7487L575.6259 803.7487L19.4363 803.7487z" /></clipPath><clipPath id="74"><path id="" clip-rule="evenodd" transform="matrix(1 0 0 1 0 0)" d="M33.58993 341.5967L565.5504 341.5967L565.5504 341.5967L565.5504 355.7503L565.5504 355.7503L33.58993 355.7503z" /></clipPath><clipPath id="75"><path id="" clip-rule="evenodd" transform="matrix(1 0 0 1 0 0)" d="M19.4363 75.43652L575.6259 75.43652L575.6259 75.43652L575.6259 803.7487L575.6259 803.7487L19.4363 803.7487z" /></clipPath><clipPath id="76"><path id="" clip-rule="evenodd" transform="matrix(1 0 0 1 0 0)" d="M25.07376 615.5533L161.0925 615.5533L161.0925 615.5533L161.0925 640.9819L161.0925 640.9819L25.07376 640.9819z" /></clipPath><clipPath id="77"><path id="" clip-rule="evenodd" transform="matrix(1 0 0 1 0 0)" d="M19.4363 75.43652L575.6259 75.43652L575.6259 75.43652L575.6259 803.7487L575.6259 803.7487L19.4363 803.7487z" /></clipPath><clipPath id="78"><path id="" clip-rule="evenodd" transform="matrix(1 0 0 1 0 0)" d="M30.71123 673.3673L161.0925 673.3673L161.0925 673.3673L161.0925 685.4819L161.0925 685.4819L30.71123 685.4819z" /></clipPath><clipPath id="79"><path id="" clip-rule="evenodd" transform="matrix(1 0 0 1 0 0)" d="M19.4363 75.43652L575.6259 75.43652L575.6259 75.43652L575.6259 803.7487L575.6259 803.7487L19.4363 803.7487z" /></clipPath><clipPath id="80"><path id="" clip-rule="evenodd" transform="matrix(1 0 0 1 0 0)" d="M161.0925 673.3673L178.1248 673.3673L178.1248 673.3673L178.1248 685.4819L178.1248 685.4819L161.0925 685.4819z" /></clipPath><clipPath id="81"><path id="" clip-rule="evenodd" transform="matrix(1 0 0 1 0 0)" d="M19.4363 75.43652L575.6259 75.43652L575.6259 75.43652L575.6259 803.7487L575.6259 803.7487L19.4363 803.7487z" /></clipPath><clipPath id="82"><path id="" clip-rule="evenodd" transform="matrix(1 0 0 1 0 0)" d="M178.1248 673.3673L569.0288 673.3673L569.0288 673.3673L569.0288 686.0816L569.0288 686.0816L178.1248 686.0816z" /></clipPath><clipPath id="83"><path id="" clip-rule="evenodd" transform="matrix(1 0 0 1 0 0)" d="M19.4363 75.43652L575.6259 75.43652L575.6259 75.43652L575.6259 803.7487L575.6259 803.7487L19.4363 803.7487z" /></clipPath><clipPath id="84"><path id="" clip-rule="evenodd" transform="matrix(1 0 0 1 0 0)" d="M178.1248 703.3538L569.0288 703.3538L569.0288 703.3538L569.0288 716.0681L569.0288 716.0681L178.1248 716.0681z" /></clipPath><clipPath id="85"><path id="" clip-rule="evenodd" transform="matrix(1 0 0 1 0 0)" d="M19.4363 75.43652L575.6259 75.43652L575.6259 75.43652L575.6259 803.7487L575.6259 803.7487L19.4363 803.7487z" /></clipPath><clipPath id="86"><path id="" clip-rule="evenodd" transform="matrix(1 0 0 1 0 0)" d="M161.0925 703.3538L178.1248 703.3538L178.1248 703.3538L178.1248 715.5883L178.1248 715.5883L161.0925 715.5883z" /></clipPath><clipPath id="87"><path id="" clip-rule="evenodd" transform="matrix(1 0 0 1 0 0)" d="M19.4363 75.43652L575.6259 75.43652L575.6259 75.43652L575.6259 803.7487L575.6259 803.7487L19.4363 803.7487z" /></clipPath><clipPath id="88"><path id="" clip-rule="evenodd" transform="matrix(1 0 0 1 0 0)" d="M30.71123 703.3538L161.0925 703.3538L161.0925 703.3538L161.0925 715.5883L161.0925 715.5883L30.71123 715.5883z" /></clipPath><clipPath id="89"><path id="" clip-rule="evenodd" transform="matrix(1 0 0 1 0 0)" d="M19.4363 75.43652L575.6259 75.43652L575.6259 75.43652L575.6259 803.7487L575.6259 803.7487L19.4363 803.7487z" /></clipPath><clipPath id="90"><path id="" clip-rule="evenodd" transform="matrix(1 0 0 1 0 0)" d="M30.71123 688.3606L161.0925 688.3606L161.0925 688.3606L161.0925 700.4751L161.0925 700.4751L30.71123 700.4751z" /></clipPath><clipPath id="91"><path id="" clip-rule="evenodd" transform="matrix(1 0 0 1 0 0)" d="M19.4363 75.43652L575.6259 75.43652L575.6259 75.43652L575.6259 803.7487L575.6259 803.7487L19.4363 803.7487z" /></clipPath><clipPath id="92"><path id="" clip-rule="evenodd" transform="matrix(1 0 0 1 0 0)" d="M161.0925 688.3606L178.1248 688.3606L178.1248 688.3606L178.1248 700.4751L178.1248 700.4751L161.0925 700.4751z" /></clipPath><clipPath id="93"><path id="" clip-rule="evenodd" transform="matrix(1 0 0 1 0 0)" d="M19.4363 75.43652L575.6259 75.43652L575.6259 75.43652L575.6259 803.7487L575.6259 803.7487L19.4363 803.7487z" /></clipPath><clipPath id="94"><path id="" clip-rule="evenodd" transform="matrix(1 0 0 1 0 0)" d="M178.1248 688.3606L569.0288 688.3606L569.0288 688.3606L569.0288 701.0748L569.0288 701.0748L178.1248 701.0748z" /></clipPath><clipPath id="95"><path id="" clip-rule="evenodd" transform="matrix(1 0 0 1 0 0)" d="M19.4363 75.43652L575.6259 75.43652L575.6259 75.43652L575.6259 803.7487L575.6259 803.7487L19.4363 803.7487z" /></clipPath><clipPath id="96"><path id="" clip-rule="evenodd" transform="matrix(1 0 0 1 0 0)" d="M178.1248 658.2542L569.0288 658.2542L569.0288 658.2542L569.0288 671.0884L569.0288 671.0884L178.1248 671.0884z" /></clipPath><clipPath id="97"><path id="" clip-rule="evenodd" transform="matrix(1 0 0 1 0 0)" d="M19.4363 75.43652L575.6259 75.43652L575.6259 75.43652L575.6259 803.7487L575.6259 803.7487L19.4363 803.7487z" /></clipPath><clipPath id="98"><path id="" clip-rule="evenodd" transform="matrix(1 0 0 1 0 0)" d="M161.0925 658.2542L178.1248 658.2542L178.1248 658.2542L178.1248 670.4886L178.1248 670.4886L161.0925 670.4886z" /></clipPath><clipPath id="99"><path id="" clip-rule="evenodd" transform="matrix(1 0 0 1 0 0)" d="M19.4363 75.43652L575.6259 75.43652L575.6259 75.43652L575.6259 803.7487L575.6259 803.7487L19.4363 803.7487z" /></clipPath><clipPath id="100"><path id="" clip-rule="evenodd" transform="matrix(1 0 0 1 0 0)" d="M30.71123 658.2542L161.0925 658.2542L161.0925 658.2542L161.0925 670.4886L161.0925 670.4886L30.71123 670.4886z" /></clipPath><clipPath id="101"><path id="" clip-rule="evenodd" transform="matrix(1 0 0 1 0 0)" d="M19.4363 75.43652L575.6259 75.43652L575.6259 75.43652L575.6259 803.7487L575.6259 803.7487L19.4363 803.7487z" /></clipPath><clipPath id="102"><path id="" clip-rule="evenodd" transform="matrix(1 0 0 1 0 0)" d="M25.07376 732.5007L569.0288 732.5007L569.0288 732.5007L569.0288 744.7352L569.0288 744.7352L25.07376 744.7352z" /></clipPath><clipPath id="103"><path id="" clip-rule="evenodd" transform="matrix(1 0 0 1 0 0)" d="M19.4363 75.43652L575.6259 75.43652L575.6259 75.43652L575.6259 803.7487L575.6259 803.7487L19.4363 803.7487z" /></clipPath><clipPath id="104"><path id="" clip-rule="evenodd" transform="matrix(1 0 0 1 0 0)" d="M31.31096 777.0007L161.0925 777.0007L161.0925 777.0007L161.0925 789.2352L161.0925 789.2352L31.31096 789.2352z" /></clipPath><clipPath id="105"><path id="" clip-rule="evenodd" transform="matrix(1 0 0 1 0 0)" d="M19.4363 75.43652L575.6259 75.43652L575.6259 75.43652L575.6259 803.7487L575.6259 803.7487L19.4363 803.7487z" /></clipPath><clipPath id="106"><path id="" clip-rule="evenodd" transform="matrix(1 0 0 1 0 0)" d="M30.71123 762.0074L161.0925 762.0074L161.0925 762.0074L161.0925 774.2419L161.0925 774.2419L30.71123 774.2419z" /></clipPath><clipPath id="107"><path id="" clip-rule="evenodd" transform="matrix(1 0 0 1 0 0)" d="M19.4363 75.43652L575.6259 75.43652L575.6259 75.43652L575.6259 803.7487L575.6259 803.7487L19.4363 803.7487z" /></clipPath><clipPath id="108"><path id="" clip-rule="evenodd" transform="matrix(1 0 0 1 0 0)" d="M178.1248 762.0074L569.0288 762.0074L569.0288 762.0074L569.0288 774.7217L569.0288 774.7217L178.1248 774.7217z" /></clipPath><clipPath id="109"><path id="" clip-rule="evenodd" transform="matrix(1 0 0 1 0 0)" d="M19.4363 75.43652L575.6259 75.43652L575.6259 75.43652L575.6259 803.7487L575.6259 803.7487L19.4363 803.7487z" /></clipPath><clipPath id="110"><path id="" clip-rule="evenodd" transform="matrix(1 0 0 1 0 0)" d="M178.1248 777.0007L569.0288 777.0007L569.0288 777.0007L569.0288 800.2702L569.0288 800.2702L178.1248 800.2702z" /></clipPath><clipPath id="111"><path id="" clip-rule="evenodd" transform="matrix(1 0 0 1 0 0)" d="M19.4363 75.43652L575.6259 75.43652L575.6259 75.43652L575.6259 803.7487L575.6259 803.7487L19.4363 803.7487z" /></clipPath><clipPath id="112"><path id="" clip-rule="evenodd" transform="matrix(1 0 0 1 0 0)" d="M161.0925 762.0074L178.6046 762.0074L178.6046 762.0074L178.6046 774.2419L178.6046 774.2419L161.0925 774.2419z" /></clipPath><clipPath id="113"><path id="" clip-rule="evenodd" transform="matrix(1 0 0 1 0 0)" d="M19.4363 75.43652L575.6259 75.43652L575.6259 75.43652L575.6259 803.7487L575.6259 803.7487L19.4363 803.7487z" /></clipPath><clipPath id="114"><path id="" clip-rule="evenodd" transform="matrix(1 0 0 1 0 0)" d="M161.0925 777.0007L178.1248 777.0007L178.1248 777.0007L178.1248 789.2352L178.1248 789.2352L161.0925 789.2352z" /></clipPath><clipPath id="115"><path id="" clip-rule="evenodd" transform="matrix(1 0 0 1 0 0)" d="M19.4363 75.43652L575.6259 75.43652L575.6259 75.43652L575.6259 803.7487L575.6259 803.7487L19.4363 803.7487z" /></clipPath><clipPath id="116"><path id="" clip-rule="evenodd" transform="matrix(1 0 0 1 0 0)" d="M30.71123 747.0142L161.0925 747.0142L161.0925 747.0142L161.0925 759.1287L161.0925 759.1287L30.71123 759.1287z" /></clipPath><clipPath id="117"><path id="" clip-rule="evenodd" transform="matrix(1 0 0 1 0 0)" d="M19.4363 75.43652L575.6259 75.43652L575.6259 75.43652L575.6259 803.7487L575.6259 803.7487L19.4363 803.7487z" /></clipPath><clipPath id="118"><path id="" clip-rule="evenodd" transform="matrix(1 0 0 1 0 0)" d="M161.0925 747.0142L178.1248 747.0142L178.1248 747.0142L178.1248 759.1287L178.1248 759.1287L161.0925 759.1287z" /></clipPath><clipPath id="119"><path id="" clip-rule="evenodd" transform="matrix(1 0 0 1 0 0)" d="M19.4363 75.43652L575.6259 75.43652L575.6259 75.43652L575.6259 803.7487L575.6259 803.7487L19.4363 803.7487z" /></clipPath><clipPath id="120"><path id="" clip-rule="evenodd" transform="matrix(1 0 0 1 0 0)" d="M178.1248 747.0142L569.0288 747.0142L569.0288 747.0142L569.0288 759.7285L569.0288 759.7285L178.1248 759.7285z" /></clipPath><clipPath id="121"><path id="" clip-rule="evenodd" transform="matrix(1 0 0 1 0 0)" d="M19.4363 75.43652L575.6259 75.43652L575.6259 75.43652L575.6259 803.7487L575.6259 803.7487L19.4363 803.7487z" /></clipPath><clipPath id="122"><path id="" clip-rule="evenodd" transform="matrix(1 0 0 1 0 0)" d="M30.71123 498.4861L569.0288 498.4861L569.0288 498.4861L569.0288 510.7206L569.0288 510.7206L30.71123 510.7206z" /></clipPath><clipPath id="123"><path id="" clip-rule="evenodd" transform="matrix(1 0 0 1 0 0)" d="M19.4363 75.43652L575.6259 75.43652L575.6259 75.43652L575.6259 803.7487L575.6259 803.7487L19.4363 803.7487z" /></clipPath><clipPath id="124"><path id="" clip-rule="evenodd" transform="matrix(1 0 0 1 0 0)" d="M30.71123 532.7906L569.0288 532.7906L569.0288 532.7906L569.0288 545.0251L569.0288 545.0251L30.71123 545.0251z" /></clipPath><clipPath id="125"><path id="" clip-rule="evenodd" transform="matrix(1 0 0 1 0 0)" d="M19.4363 75.43652L575.6259 75.43652L575.6259 75.43652L575.6259 803.7487L575.6259 803.7487L19.4363 803.7487z" /></clipPath><clipPath id="126"><path id="" clip-rule="evenodd" transform="matrix(1 0 0 1 0 0)" d="M33.58993 512.9995L566.1501 512.9995L566.1501 512.9995L566.1501 527.1531L566.1501 527.1531L33.58993 527.1531z" /></clipPath><clipPath id="127"><path id="" clip-rule="evenodd" transform="matrix(1 0 0 1 0 0)" d="M19.4363 75.43652L575.6259 75.43652L575.6259 75.43652L575.6259 803.7487L575.6259 803.7487L19.4363 803.7487z" /></clipPath><clipPath id="128"><path id="" clip-rule="evenodd" transform="matrix(1 0 0 1 0 0)" d="M33.58993 547.3041L566.1501 547.3041L566.1501 547.3041L566.1501 561.4577L566.1501 561.4577L33.58993 561.4577z" /></clipPath><clipPath id="129"><path id="" clip-rule="evenodd" transform="matrix(1 0 0 1 0 0)" d="M19.4363 75.43652L575.6259 75.43652L575.6259 75.43652L575.6259 803.7487L575.6259 803.7487L19.4363 803.7487z" /></clipPath><clipPath id="130"><path id="" clip-rule="evenodd" transform="matrix(1 0 0 1 0 0)" d="M30.71123 567.0952L569.0288 567.0952L569.0288 567.0952L569.0288 579.2097L569.0288 579.2097L30.71123 579.2097z" /></clipPath><clipPath id="131"><path id="" clip-rule="evenodd" transform="matrix(1 0 0 1 0 0)" d="M19.4363 75.43652L575.6259 75.43652L575.6259 75.43652L575.6259 803.7487L575.6259 803.7487L19.4363 803.7487z" /></clipPath><clipPath id="132"><path id="" clip-rule="evenodd" transform="matrix(1 0 0 1 0 0)" d="M33.58993 581.4887L566.1501 581.4887L566.1501 581.4887L566.1501 595.6423L566.1501 595.6423L33.58993 595.6423z" /></clipPath><clipPath id="133"><path id="" clip-rule="evenodd" transform="matrix(1 0 0 1 0 0)" d="M19.4363 75.43652L575.6259 75.43652L575.6259 75.43652L575.6259 803.7487L575.6259 803.7487L19.4363 803.7487z" /></clipPath><clipPath id="134"><path id="" clip-rule="evenodd" transform="matrix(1 0 0 1 0 0)" d="M25.07376 222.6103L569.0288 222.6103L569.0288 222.6103L569.0288 234.7249L569.0288 234.7249L25.07376 234.7249z" /></clipPath><clipPath id="135"><path id="" clip-rule="evenodd" transform="matrix(1 0 0 1 0 0)" d="M19.4363 75.43652L575.6259 75.43652L575.6259 75.43652L575.6259 803.7487L575.6259 803.7487L19.4363 803.7487z" /></clipPath><clipPath id="136"><path id="" clip-rule="evenodd" transform="matrix(1 0 0 1 0 0)" d="M161.0925 615.5533L178.1248 615.5533L178.1248 615.5533L178.1248 640.9819L178.1248 640.9819L161.0925 640.9819z" /></clipPath><clipPath id="137"><path id="" clip-rule="evenodd" transform="matrix(1 0 0 1 0 0)" d="M19.4363 75.43652L575.6259 75.43652L575.6259 75.43652L575.6259 803.7487L575.6259 803.7487L19.4363 803.7487z" /></clipPath><clipPath id="138"><path id="" clip-rule="evenodd" transform="matrix(1 0 0 1 0 0)" d="M178.1248 615.5533L569.0288 615.5533L569.0288 615.5533L569.0288 641.5817L569.0288 641.5817L178.1248 641.5817z" /></clipPath><clipPath id="139"><path id="" clip-rule="evenodd" transform="matrix(1 0 0 1 0 0)" d="M19.4363 75.43652L575.6259 75.43652L575.6259 75.43652L575.6259 803.7487L575.6259 803.7487L19.4363 803.7487z" /></clipPath><clipPath id="140"><path id="" clip-rule="evenodd" transform="matrix(1 0 0 1 0 0)" d="M25.07376 643.8606L569.0288 643.8606L569.0288 643.8606L569.0288 656.0951L569.0288 656.0951L25.07376 656.0951z" /></clipPath><clipPath id="141"><path id="" clip-rule="evenodd" transform="matrix(1 0 0 1 0 0)" d="M19.4363 27.69806L575.6259 27.69806L575.6259 27.69806L575.6259 825.5788L575.6259 825.5788L19.4363 825.5788z" /></clipPath><clipPath id="142"><path id="" clip-rule="evenodd" transform="matrix(1 0 0 1 0 0)" d="M25.07376 809.3861L161.0925 809.3861L161.0925 809.3861L161.0925 820.7809L161.0925 820.7809L25.07376 820.7809z" /></clipPath><clipPath id="143"><path id="" clip-rule="evenodd" transform="matrix(1 0 0 1 0 0)" d="M161.0925 809.3861L166.73 809.3861L166.73 809.3861L166.73 820.7809L166.73 820.7809L161.0925 820.7809z" /></clipPath><clipPath id="144"><path id="" clip-rule="evenodd" transform="matrix(1 0 0 1 0 0)" d="M166.73 809.3861L234.7393 809.3861L234.7393 809.3861L234.7393 820.7809L234.7393 820.7809L166.73 820.7809z" /></clipPath><clipPath id="145"><path id="" clip-rule="evenodd" transform="matrix(1 0 0 1 0 0)" d="M237.6181 809.3861L353.7258 809.3861L353.7258 809.3861L353.7258 820.7809L353.7258 820.7809L237.6181 820.7809z" /></clipPath><clipPath id="146"><path id="" clip-rule="evenodd" transform="matrix(1 0 0 1 0 0)" d="M353.7258 809.3861L359.3632 809.3861L359.3632 809.3861L359.3632 820.7809L359.3632 820.7809L353.7258 820.7809z" /></clipPath><clipPath id="147"><path id="" clip-rule="evenodd" transform="matrix(1 0 0 1 0 0)" d="M359.3632 809.3861L458.5586 809.3861L458.5586 809.3861L458.5586 820.7809L458.5586 820.7809L359.3632 820.7809z" /></clipPath><clipPath id="148"><path id="" clip-rule="evenodd" transform="matrix(1 0 0 1 0 0)" d="M458.5586 809.3861L495.382 809.3861L495.382 809.3861L495.382 820.7809L495.382 820.7809L458.5586 820.7809z" /></clipPath><clipPath id="149"><path id="" clip-rule="evenodd" transform="matrix(1 0 0 1 0 0)" d="M495.382 809.3861L501.0194 809.3861L501.0194 809.3861L501.0194 820.7809L501.0194 820.7809L495.382 820.7809z" /></clipPath><clipPath id="150"><path id="" clip-rule="evenodd" transform="matrix(1 0 0 1 0 0)" d="M501.0194 809.3861L520.8105 809.3861L520.8105 809.3861L520.8105 820.7809L520.8105 820.7809L501.0194 820.7809z" /></clipPath><clipPath id="151"><path id="" clip-rule="evenodd" transform="matrix(1 0 0 1 0 0)" d="M540.7216 809.3861L569.0288 809.3861L569.0288 809.3861L569.0288 820.7809L569.0288 820.7809L540.7216 820.7809z" /></clipPath></defs><g transform="matrix(1.333333 0 0 1.333333 0 0)"><g clip-path="url(#1)"><g clip-path="url(#2)"><g clip-path="url(#3)"><g clip-path="url(#4)"></g><path id="8" transform="matrix(1 0 0 -1 0 841)" d="M22.31501 810.6631L571.7876 810.6631L571.7876 810.6631L571.7876 810.0634L571.7876 810.0634L22.31501 810.0634" stroke="none" fill="#000000" fill-rule="evenodd" /><path id="9" transform="matrix(1 0 0 -1 0 841)" d="M22.07512 810.6631L22.5549 810.6631L22.5549 810.6631L22.5549 810.0634L22.5549 810.0634L22.07512 810.0634" stroke="none" fill="#000000" fill-rule="evenodd" /><path id="10" transform="matrix(1 0 0 -1 0 841)" d="M571.5477 810.6631L572.0275 810.6631L572.0275 810.6631L572.0275 810.0634L572.0275 810.0634L571.5477 810.0634" stroke="none" fill="#000000" fill-rule="evenodd" /><path id="11" transform="matrix(1 0 0 -1 0 841)" d="M572.0275 810.4233L572.0275 792.0715L572.0275 792.0715L571.4277 792.0715L571.4277 792.0715L571.4277 810.4233" stroke="none" fill="#000000" fill-rule="evenodd" /><path id="12" transform="matrix(1 0 0 -1 0 841)" d="M572.0275 810.6631L572.0275 810.1833L572.0275 810.1833L571.4277 810.1833L571.4277 810.1833L571.4277 810.6631" stroke="none" fill="#000000" fill-rule="evenodd" /><path id="13" transform="matrix(1 0 0 -1 0 841)" d="M572.0275 792.3114L572.0275 791.8316L572.0275 791.8316L571.4277 791.8316L571.4277 791.8316L571.4277 792.3114" stroke="none" fill="#000000" fill-rule="evenodd" /><path id="14" transform="matrix(1 0 0 -1 0 841)" d="M571.7876 791.8316L22.31501 791.8316L22.31501 791.8316L22.31501 792.4313L22.31501 792.4313L571.7876 792.4313" stroke="none" fill="#000000" fill-rule="evenodd" /><path id="15" transform="matrix(1 0 0 -1 0 841)" d="M572.0275 791.8316L571.5477 791.8316L571.5477 791.8316L571.5477 792.4313L571.5477 792.4313L572.0275 792.4313" stroke="none" fill="#000000" fill-rule="evenodd" /><path id="16" transform="matrix(1 0 0 -1 0 841)" d="M22.5549 791.8316L22.07512 791.8316L22.07512 791.8316L22.07512 792.4313L22.07512 792.4313L22.5549 792.4313" stroke="none" fill="#000000" fill-rule="evenodd" /><path id="17" transform="matrix(1 0 0 -1 0 841)" d="M22.07512 792.0715L22.07512 810.4233L22.07512 810.4233L22.67485 810.4233L22.67485 810.4233L22.67485 792.0715" stroke="none" fill="#000000" fill-rule="evenodd" /><path id="18" transform="matrix(1 0 0 -1 0 841)" d="M22.07512 791.8316L22.07512 792.3114L22.07512 792.3114L22.67485 792.3114L22.67485 792.3114L22.67485 791.8316" stroke="none" fill="#000000" fill-rule="evenodd" /><path id="19" transform="matrix(1 0 0 -1 0 841)" d="M22.07512 810.1833L22.07512 810.6631L22.07512 810.6631L22.67485 810.6631L22.67485 810.6631L22.67485 810.1833" stroke="none" fill="#000000" fill-rule="evenodd" /></g><g clip-path="url(#5)"><path id="20" transform="matrix(1 0 0 -1 0 841)" d="M22.31501 791.1119L571.7876 791.1119L571.7876 791.1119L571.7876 790.5122L571.7876 790.5122L22.31501 790.5122" stroke="none" fill="#000000" fill-rule="evenodd" /><path id="21" transform="matrix(1 0 0 -1 0 841)" d="M22.07512 791.1119L22.5549 791.1119L22.5549 791.1119L22.5549 790.5122L22.5549 790.5122L22.07512 790.5122" stroke="none" fill="#000000" fill-rule="evenodd" /><path id="22" transform="matrix(1 0 0 -1 0 841)" d="M571.5477 791.1119L572.0275 791.1119L572.0275 791.1119L572.0275 790.5122L572.0275 790.5122L571.5477 790.5122" stroke="none" fill="#000000" fill-rule="evenodd" /><path id="23" transform="matrix(1 0 0 -1 0 841)" d="M572.0275 790.8721L572.0275 766.2831L572.0275 766.2831L571.4277 766.2831L571.4277 766.2831L571.4277 790.8721" stroke="none" fill="#000000" fill-rule="evenodd" /><path id="24" transform="matrix(1 0 0 -1 0 841)" d="M572.0275 791.1119L572.0275 790.6321L572.0275 790.6321L571.4277 790.6321L571.4277 790.6321L571.4277 791.1119" stroke="none" fill="#000000" fill-rule="evenodd" /><path id="25" transform="matrix(1 0 0 -1 0 841)" d="M572.0275 766.523L572.0275 766.0432L572.0275 766.0432L571.4277 766.0432L571.4277 766.0432L571.4277 766.523" stroke="none" fill="#000000" fill-rule="evenodd" /><path id="26" transform="matrix(1 0 0 -1 0 841)" d="M571.7876 766.0432L22.31501 766.0432L22.31501 766.0432L22.31501 766.6429L22.31501 766.6429L571.7876 766.6429" stroke="none" fill="#000000" fill-rule="evenodd" /><path id="27" transform="matrix(1 0 0 -1 0 841)" d="M572.0275 766.0432L571.5477 766.0432L571.5477 766.0432L571.5477 766.6429L571.5477 766.6429L572.0275 766.6429" stroke="none" fill="#000000" fill-rule="evenodd" /><path id="28" transform="matrix(1 0 0 -1 0 841)" d="M22.5549 766.0432L22.07512 766.0432L22.07512 766.0432L22.07512 766.6429L22.07512 766.6429L22.5549 766.6429" stroke="none" fill="#000000" fill-rule="evenodd" /><path id="29" transform="matrix(1 0 0 -1 0 841)" d="M22.07512 766.2831L22.07512 790.8721L22.07512 790.8721L22.67485 790.8721L22.67485 790.8721L22.67485 766.2831" stroke="none" fill="#000000" fill-rule="evenodd" /><path id="30" transform="matrix(1 0 0 -1 0 841)" d="M22.07512 766.0432L22.07512 766.523L22.07512 766.523L22.67485 766.523L22.67485 766.523L22.67485 766.0432" stroke="none" fill="#000000" fill-rule="evenodd" /><path id="31" transform="matrix(1 0 0 -1 0 841)" d="M22.07512 790.6321L22.07512 791.1119L22.07512 791.1119L22.67485 791.1119L22.67485 791.1119L22.67485 790.6321" stroke="none" fill="#000000" fill-rule="evenodd" /><g clip-path="url(#6)"></g></g><g clip-path="url(#7)"><g clip-path="url(#8)"><g clip-path="url(#9)"></g></g><g clip-path="url(#10)"><g clip-path="url(#11)"></g></g><g clip-path="url(#12)"><g clip-path="url(#13)"></g></g><g clip-path="url(#14)"><g clip-path="url(#15)"></g></g><g clip-path="url(#16)"><g clip-path="url(#17)"></g></g><g clip-path="url(#18)"><g clip-path="url(#19)"></g></g><g clip-path="url(#20)"><g clip-path="url(#21)"></g></g><g clip-path="url(#22)"><g clip-path="url(#23)"></g></g><g clip-path="url(#24)"><g clip-path="url(#25)"></g></g></g><g clip-path="url(#26)"><path id="373" transform="matrix(1 0 0 -1 0 841)" d="M22.31501 646.0972L571.7876 646.0972L571.7876 646.0972L571.7876 645.4975L571.7876 645.4975L22.31501 645.4975" stroke="none" fill="#000000" fill-rule="evenodd" /><path id="374" transform="matrix(1 0 0 -1 0 841)" d="M22.07512 646.0972L22.5549 646.0972L22.5549 646.0972L22.5549 645.4975L22.5549 645.4975L22.07512 645.4975" stroke="none" fill="#000000" fill-rule="evenodd" /><path id="375" transform="matrix(1 0 0 -1 0 841)" d="M571.5477 646.0972L572.0275 646.0972L572.0275 646.0972L572.0275 645.4975L572.0275 645.4975L571.5477 645.4975" stroke="none" fill="#000000" fill-rule="evenodd" /><path id="376" transform="matrix(1 0 0 -1 0 841)" d="M572.0275 645.8574L572.0275 621.2684L572.0275 621.2684L571.4277 621.2684L571.4277 621.2684L571.4277 645.8574" stroke="none" fill="#000000" fill-rule="evenodd" /><path id="377" transform="matrix(1 0 0 -1 0 841)" d="M572.0275 646.0972L572.0275 645.6174L572.0275 645.6174L571.4277 645.6174L571.4277 645.6174L571.4277 646.0972" stroke="none" fill="#000000" fill-rule="evenodd" /><path id="378" transform="matrix(1 0 0 -1 0 841)" d="M572.0275 621.5083L572.0275 621.0286L572.0275 621.0286L571.4277 621.0286L571.4277 621.0286L571.4277 621.5083" stroke="none" fill="#000000" fill-rule="evenodd" /><path id="379" transform="matrix(1 0 0 -1 0 841)" d="M571.7876 621.0286L22.31501 621.0286L22.31501 621.0286L22.31501 621.6283L22.31501 621.6283L571.7876 621.6283" stroke="none" fill="#000000" fill-rule="evenodd" /><path id="380" transform="matrix(1 0 0 -1 0 841)" d="M572.0275 621.0286L571.5477 621.0286L571.5477 621.0286L571.5477 621.6283L571.5477 621.6283L572.0275 621.6283" stroke="none" fill="#000000" fill-rule="evenodd" /><path id="381" transform="matrix(1 0 0 -1 0 841)" d="M22.5549 621.0286L22.07512 621.0286L22.07512 621.0286L22.07512 621.6283L22.07512 621.6283L22.5549 621.6283" stroke="none" fill="#000000" fill-rule="evenodd" /><path id="382" transform="matrix(1 0 0 -1 0 841)" d="M22.07512 621.2684L22.07512 645.8574L22.07512 645.8574L22.67485 645.8574L22.67485 645.8574L22.67485 621.2684" stroke="none" fill="#000000" fill-rule="evenodd" /><path id="383" transform="matrix(1 0 0 -1 0 841)" d="M22.07512 621.0286L22.07512 621.5083L22.07512 621.5083L22.67485 621.5083L22.67485 621.5083L22.67485 621.0286" stroke="none" fill="#000000" fill-rule="evenodd" /><path id="384" transform="matrix(1 0 0 -1 0 841)" d="M22.07512 645.6174L22.07512 646.0972L22.07512 646.0972L22.67485 646.0972L22.67485 646.0972L22.67485 645.6174" stroke="none" fill="#000000" fill-rule="evenodd" /><g clip-path="url(#27)"><g clip-path="url(#28)"></g></g><g clip-path="url(#29)"><g clip-path="url(#30)"><path id="419" transform="matrix(1 0 0 -1 0 841)" d="M30.71123 593.3414L95.60201 593.3414" stroke="#0000FF" stroke-width="1.035374" fill="none" /></g></g><g clip-path="url(#31)"><g clip-path="url(#32)"></g></g><g clip-path="url(#33)"><g clip-path="url(#34)"></g></g><g clip-path="url(#35)"><g clip-path="url(#36)"></g></g><g clip-path="url(#37)"><g clip-path="url(#38)"></g></g><g clip-path="url(#39)"><g clip-path="url(#40)"></g></g><g clip-path="url(#41)"><g clip-path="url(#42)"></g></g><g clip-path="url(#43)"><g clip-path="url(#44)"></g></g><g clip-path="url(#45)"><g clip-path="url(#46)"></g></g><g clip-path="url(#47)"><g clip-path="url(#48)"></g></g><g clip-path="url(#49)"><g clip-path="url(#50)"></g></g><g clip-path="url(#51)"><g clip-path="url(#52)"><path id="527" transform="matrix(1 0 0 -1 0 841)" d="M30.71123 435.2526L105.3176 435.2526" stroke="#0000FF" stroke-width="1.035374" fill="none" /></g></g><g clip-path="url(#53)"><g clip-path="url(#54)"></g></g><g clip-path="url(#55)"><g clip-path="url(#56)"><path id="557" transform="matrix(1 0 0 -1 0 841)" d="M30.71123 469.5571L91.76373 469.5571" stroke="#0000FF" stroke-width="1.035374" fill="none" /></g></g><g clip-path="url(#57)"><g clip-path="url(#58)"></g></g><g clip-path="url(#59)"><g clip-path="url(#60)"><path id="584" transform="matrix(1 0 0 -1 0 841)" d="M30.71123 366.6435L98.84055 366.6435" stroke="#0000FF" stroke-width="1.035374" fill="none" /></g></g><g clip-path="url(#61)"><g clip-path="url(#62)"></g></g><g clip-path="url(#63)"><g clip-path="url(#64)"><path id="613" transform="matrix(1 0 0 -1 0 841)" d="M30.71123 400.948L132.0656 400.948" stroke="#0000FF" stroke-width="1.035374" fill="none" /></g></g><g clip-path="url(#65)"><g clip-path="url(#66)"></g></g><g clip-path="url(#67)"><g clip-path="url(#68)"><path id="649" transform="matrix(1 0 0 -1 0 841)" d="M30.71123 539.2457L121.5103 539.2457" stroke="#0000FF" stroke-width="1.035374" fill="none" /></g></g><g clip-path="url(#69)"><g clip-path="url(#70)"></g></g><g clip-path="url(#71)"><g clip-path="url(#72)"><path id="684" transform="matrix(1 0 0 -1 0 841)" d="M30.71123 504.3415L92.24352 504.3415" stroke="#0000FF" stroke-width="1.035374" fill="none" /></g></g><g clip-path="url(#73)"><g clip-path="url(#74)"></g></g><g clip-path="url(#75)"><g clip-path="url(#76)"></g></g><g clip-path="url(#77)"><g clip-path="url(#78)"></g></g><g clip-path="url(#79)"><g clip-path="url(#80)"></g></g><g clip-path="url(#81)"><g clip-path="url(#82)"></g></g><g clip-path="url(#83)"><g clip-path="url(#84)"></g></g><g clip-path="url(#85)"><g clip-path="url(#86)"></g></g><g clip-path="url(#87)"><g clip-path="url(#88)"></g></g><g clip-path="url(#89)"><g clip-path="url(#90)"></g></g><g clip-path="url(#91)"><g clip-path="url(#92)"></g></g><g clip-path="url(#93)"><g clip-path="url(#94)"></g></g><g clip-path="url(#95)"><g clip-path="url(#96)"></g></g><g clip-path="url(#97)"><g clip-path="url(#98)"></g></g><g clip-path="url(#99)"><g clip-path="url(#100)"></g></g><g clip-path="url(#101)"><g clip-path="url(#102)"><path id="925" transform="matrix(1 0 0 -1 0 841)" d="M25.07376 98.44421L388.9899 98.44421" stroke="#0000FF" stroke-width="1.035374" fill="none" /></g></g><g clip-path="url(#103)"><g clip-path="url(#104)"></g></g><g clip-path="url(#105)"><g clip-path="url(#106)"></g></g><g clip-path="url(#107)"><g clip-path="url(#108)"></g></g><g clip-path="url(#109)"><g clip-path="url(#110)"></g></g><g clip-path="url(#111)"><g clip-path="url(#112)"></g></g><g clip-path="url(#113)"><g clip-path="url(#114)"></g></g><g clip-path="url(#115)"><g clip-path="url(#116)"></g></g><g clip-path="url(#117)"><g clip-path="url(#118)"></g></g><g clip-path="url(#119)"><g clip-path="url(#120)"></g></g><g clip-path="url(#121)"><g clip-path="url(#122)"><path id="1217" transform="matrix(1 0 0 -1 0 841)" d="M30.71123 332.4589L252.6113 332.4589" stroke="#0000FF" stroke-width="1.035374" fill="none" /></g></g><g clip-path="url(#123)"><g clip-path="url(#124)"><path id="1266" transform="matrix(1 0 0 -1 0 841)" d="M30.71123 298.1543L265.3256 298.1543" stroke="#0000FF" stroke-width="1.035374" fill="none" /></g></g><g clip-path="url(#125)"><g clip-path="url(#126)"></g></g><g clip-path="url(#127)"><g clip-path="url(#128)"></g></g><g clip-path="url(#129)"><g clip-path="url(#130)"><path id="1345" transform="matrix(1 0 0 -1 0 841)" d="M30.71123 263.8497L114.5535 263.8497" stroke="#0000FF" stroke-width="1.035374" fill="none" /></g></g><g clip-path="url(#131)"><g clip-path="url(#132)"></g></g><path id="1377" transform="matrix(1 0 0 -1 0 841)" d="M30.71123 588.6431L569.0288 588.6431L569.0288 588.6431L569.0288 588.0434L569.0288 588.0434L30.71123 588.0434" stroke="none" fill="#000000" fill-rule="evenodd" /><path id="1378" transform="matrix(1 0 0 -1 0 841)" d="M30.47133 588.6431L30.95112 588.6431L30.95112 588.6431L30.95112 588.0434L30.95112 588.0434L30.47133 588.0434" stroke="none" fill="#000000" fill-rule="evenodd" /><path id="1379" transform="matrix(1 0 0 -1 0 841)" d="M568.7889 588.6431L569.2687 588.6431L569.2687 588.6431L569.2687 588.0434L569.2687 588.0434L568.7889 588.0434" stroke="none" fill="#000000" fill-rule="evenodd" /><path id="1380" transform="matrix(1 0 0 -1 0 841)" d="M569.2687 588.4032L569.2687 552.1796L569.2687 552.1796L568.669 552.1796L568.669 552.1796L568.669 588.4032" stroke="none" fill="#000000" fill-rule="evenodd" /><path id="1381" transform="matrix(1 0 0 -1 0 841)" d="M569.2687 588.6431L569.2687 588.1633L569.2687 588.1633L568.669 588.1633L568.669 588.1633L568.669 588.6431" stroke="none" fill="#000000" fill-rule="evenodd" /><path id="1382" transform="matrix(1 0 0 -1 0 841)" d="M569.2687 552.4194L569.2687 551.9396L569.2687 551.9396L568.669 551.9396L568.669 551.9396L568.669 552.4194" stroke="none" fill="#000000" fill-rule="evenodd" /><path id="1383" transform="matrix(1 0 0 -1 0 841)" d="M569.0288 551.9396L30.71123 551.9396L30.71123 551.9396L30.71123 552.5394L30.71123 552.5394L569.0288 552.5394" stroke="none" fill="#000000" fill-rule="evenodd" /><path id="1384" transform="matrix(1 0 0 -1 0 841)" d="M569.2687 551.9396L568.7889 551.9396L568.7889 551.9396L568.7889 552.5394L568.7889 552.5394L569.2687 552.5394" stroke="none" fill="#000000" fill-rule="evenodd" /><path id="1385" transform="matrix(1 0 0 -1 0 841)" d="M30.95112 551.9396L30.47133 551.9396L30.47133 551.9396L30.47133 552.5394L30.47133 552.5394L30.95112 552.5394" stroke="none" fill="#000000" fill-rule="evenodd" /><path id="1386" transform="matrix(1 0 0 -1 0 841)" d="M30.47133 552.1796L30.47133 588.4032L30.47133 588.4032L31.07106 588.4032L31.07106 588.4032L31.07106 552.1796" stroke="none" fill="#000000" fill-rule="evenodd" /><path id="1387" transform="matrix(1 0 0 -1 0 841)" d="M30.47133 551.9396L30.47133 552.4194L30.47133 552.4194L31.07106 552.4194L31.07106 552.4194L31.07106 551.9396" stroke="none" fill="#000000" fill-rule="evenodd" /><path id="1388" transform="matrix(1 0 0 -1 0 841)" d="M30.47133 588.1633L30.47133 588.6431L30.47133 588.6431L31.07106 588.6431L31.07106 588.6431L31.07106 588.1633" stroke="none" fill="#000000" fill-rule="evenodd" /><path id="1389" transform="matrix(1 0 0 -1 0 841)" d="M30.71123 570.7711L569.0288 570.7711L569.0288 570.7711L569.0288 570.1714L569.0288 570.1714L30.71123 570.1714" stroke="none" fill="#000000" fill-rule="evenodd" /><path id="1390" transform="matrix(1 0 0 -1 0 841)" d="M30.47133 570.7711L30.95112 570.7711L30.95112 570.7711L30.95112 570.1714L30.95112 570.1714L30.47133 570.1714" stroke="none" fill="#000000" fill-rule="evenodd" /><path id="1391" transform="matrix(1 0 0 -1 0 841)" d="M568.7889 570.7711L569.2687 570.7711L569.2687 570.7711L569.2687 570.1714L569.2687 570.1714L568.7889 570.1714" stroke="none" fill="#000000" fill-rule="evenodd" /><path id="1392" transform="matrix(1 0 0 -1 0 841)" d="M169.8486 588.4032L169.8486 552.1796L169.8486 552.1796L169.2488 552.1796L169.2488 552.1796L169.2488 588.4032" stroke="none" fill="#000000" fill-rule="evenodd" /><path id="1393" transform="matrix(1 0 0 -1 0 841)" d="M169.8486 588.6431L169.8486 588.1633L169.8486 588.1633L169.2488 588.1633L169.2488 588.1633L169.2488 588.6431" stroke="none" fill="#000000" fill-rule="evenodd" /><path id="1394" transform="matrix(1 0 0 -1 0 841)" d="M169.8486 552.4194L169.8486 551.9396L169.8486 551.9396L169.2488 551.9396L169.2488 551.9396L169.2488 552.4194" stroke="none" fill="#000000" fill-rule="evenodd" /><path id="1395" transform="matrix(1 0 0 -1 0 841)" d="M322.7797 588.4032L322.7797 552.1796L322.7797 552.1796L322.18 552.1796L322.18 552.1796L322.18 588.4032" stroke="none" fill="#000000" fill-rule="evenodd" /><path id="1396" transform="matrix(1 0 0 -1 0 841)" d="M322.7797 588.6431L322.7797 588.1633L322.7797 588.1633L322.18 588.1633L322.18 588.1633L322.18 588.6431" stroke="none" fill="#000000" fill-rule="evenodd" /><path id="1397" transform="matrix(1 0 0 -1 0 841)" d="M322.7797 552.4194L322.7797 551.9396L322.7797 551.9396L322.18 551.9396L322.18 551.9396L322.18 552.4194" stroke="none" fill="#000000" fill-rule="evenodd" /><path id="1398" transform="matrix(1 0 0 -1 0 841)" d="M399.3052 588.4032L399.3052 552.1796L399.3052 552.1796L398.7055 552.1796L398.7055 552.1796L398.7055 588.4032" stroke="none" fill="#000000" fill-rule="evenodd" /><path id="1399" transform="matrix(1 0 0 -1 0 841)" d="M399.3052 588.6431L399.3052 588.1633L399.3052 588.1633L398.7055 588.1633L398.7055 588.1633L398.7055 588.6431" stroke="none" fill="#000000" fill-rule="evenodd" /><path id="1400" transform="matrix(1 0 0 -1 0 841)" d="M399.3052 552.4194L399.3052 551.9396L399.3052 551.9396L398.7055 551.9396L398.7055 551.9396L398.7055 552.4194" stroke="none" fill="#000000" fill-rule="evenodd" /><path id="1401" transform="matrix(1 0 0 -1 0 841)" d="M484.227 588.4032L484.227 552.1796L484.227 552.1796L483.6273 552.1796L483.6273 552.1796L483.6273 588.4032" stroke="none" fill="#000000" fill-rule="evenodd" /><path id="1402" transform="matrix(1 0 0 -1 0 841)" d="M484.227 588.6431L484.227 588.1633L484.227 588.1633L483.6273 588.1633L483.6273 588.1633L483.6273 588.6431" stroke="none" fill="#000000" fill-rule="evenodd" /><path id="1403" transform="matrix(1 0 0 -1 0 841)" d="M484.227 552.4194L484.227 551.9396L484.227 551.9396L483.6273 551.9396L483.6273 551.9396L483.6273 552.4194" stroke="none" fill="#000000" fill-rule="evenodd" /><g clip-path="url(#133)"><g clip-path="url(#134)"><path id="1404" transform="matrix(1 0 0 -1 0 841)" d="M25.07376 608.3347L193.5979 608.3347" stroke="#0000FF" stroke-width="1.035374" fill="none" /></g></g><g clip-path="url(#135)"><g clip-path="url(#136)"></g></g><g clip-path="url(#137)"><g clip-path="url(#138)"></g></g><g clip-path="url(#139)"><g clip-path="url(#140)"><path id="1456" transform="matrix(1 0 0 -1 0 841)" d="M25.07376 187.0843L163.0117 187.0843" stroke="#0000FF" stroke-width="1.035374" fill="none" /></g></g></g><g clip-path="url(#141)"><g clip-path="url(#142)"></g><path id="1513" transform="matrix(1 0 0 -1 0 841)" d="M22.31501 34.61255L571.7876 34.61255L571.7876 34.61255L571.7876 34.01282L571.7876 34.01282L22.31501 34.01282" stroke="none" fill="#000000" fill-rule="evenodd" /><path id="1514" transform="matrix(1 0 0 -1 0 841)" d="M22.07512 34.61255L22.5549 34.61255L22.5549 34.61255L22.5549 34.01282L22.5549 34.01282L22.07512 34.01282" stroke="none" fill="#000000" fill-rule="evenodd" /><path id="1515" transform="matrix(1 0 0 -1 0 841)" d="M571.5477 34.61255L572.0275 34.61255L572.0275 34.61255L572.0275 34.01282L572.0275 34.01282L571.5477 34.01282" stroke="none" fill="#000000" fill-rule="evenodd" /><path id="1516" transform="matrix(1 0 0 -1 0 841)" d="M572.0275 34.37268L572.0275 16.02094L572.0275 16.02094L571.4277 16.02094L571.4277 16.02094L571.4277 34.37268" stroke="none" fill="#000000" fill-rule="evenodd" /><path id="1517" transform="matrix(1 0 0 -1 0 841)" d="M572.0275 34.61255L572.0275 34.13275L572.0275 34.13275L571.4277 34.13275L571.4277 34.13275L571.4277 34.61255" stroke="none" fill="#000000" fill-rule="evenodd" /><path id="1518" transform="matrix(1 0 0 -1 0 841)" d="M572.0275 16.2608L572.0275 15.78107L572.0275 15.78107L571.4277 15.78107L571.4277 15.78107L571.4277 16.2608" stroke="none" fill="#000000" fill-rule="evenodd" /><path id="1519" transform="matrix(1 0 0 -1 0 841)" d="M571.7876 15.78107L22.31501 15.78107L22.31501 15.78107L22.31501 16.3808L22.31501 16.3808L571.7876 16.3808" stroke="none" fill="#000000" fill-rule="evenodd" /><path id="1520" transform="matrix(1 0 0 -1 0 841)" d="M572.0275 15.78107L571.5477 15.78107L571.5477 15.78107L571.5477 16.3808L571.5477 16.3808L572.0275 16.3808" stroke="none" fill="#000000" fill-rule="evenodd" /><path id="1521" transform="matrix(1 0 0 -1 0 841)" d="M22.5549 15.78107L22.07512 15.78107L22.07512 15.78107L22.07512 16.3808L22.07512 16.3808L22.5549 16.3808" stroke="none" fill="#000000" fill-rule="evenodd" /><path id="1522" transform="matrix(1 0 0 -1 0 841)" d="M22.07512 16.02094L22.07512 34.37268L22.07512 34.37268L22.67485 34.37268L22.67485 34.37268L22.67485 16.02094" stroke="none" fill="#000000" fill-rule="evenodd" /><path id="1523" transform="matrix(1 0 0 -1 0 841)" d="M22.07512 15.78107L22.07512 16.2608L22.07512 16.2608L22.67485 16.2608L22.67485 16.2608L22.67485 15.78107" stroke="none" fill="#000000" fill-rule="evenodd" /><path id="1524" transform="matrix(1 0 0 -1 0 841)" d="M22.07512 34.13275L22.07512 34.61255L22.07512 34.61255L22.67485 34.61255L22.67485 34.61255L22.67485 34.13275" stroke="none" fill="#000000" fill-rule="evenodd" /><g clip-path="url(#143)"></g><g clip-path="url(#144)"></g><g clip-path="url(#145)"></g><g clip-path="url(#146)"></g><g clip-path="url(#147)"></g><g clip-path="url(#148)"></g><g clip-path="url(#149)"></g><g clip-path="url(#150)"></g><g clip-path="url(#151)"></g></g></g></g></g></svg>