<svg xmlns="http://www.w3.org/2000/svg" xmlns:xlink="http://www.w3.org/1999/xlink" id="body_288" preserveAspectRatio="xMinYMin meet" viewBox="0 0 793 1121"><defs><clipPath id="1"><path id="" clip-rule="evenodd" transform="matrix(1 0 0 1 0 0)" d="M0 841L0 -0.8900146L0 -0.8900146L595.276 -0.8900146L595.276 -0.8900146L595.276 841L595.276 841L0 841z" /></clipPath></defs><g transform="matrix(1.333333 0 0 1.333333 0 0)"><g clip-path="url(#1)"><path id="23" transform="matrix(1 0 0 -1 0 841)" d="M85.039 766.564L510.236 766.564" stroke="#000000" stroke-width="0.498" fill="none" /><path id="249" transform="matrix(1 0 0 -1 0 841)" d="M292.819 665.186L310.568 665.186" stroke="#000000" stroke-width="0.436" fill="none" /><path id="281" transform="matrix(1 0 0 -1 0 841)" d="M332.796 665.186L472.048 665.186" stroke="#000000" stroke-width="0.436" fill="none" /><path id="618" transform="matrix(1 0 0 -1 0 841)" d="M244.331 497.315L296.083 497.315" stroke="#000000" stroke-width="0.436" fill="none" /><path id="635" transform="matrix(1 0 0 -1 0 841)" d="M311.799 497.315L375.646 497.315" stroke="#000000" stroke-width="0.436" fill="none" /><path id="661" transform="matrix(1 0 0 -1 0 841)" d="M390.166 507.613L452.325 507.613" stroke="#000000" stroke-width="0.398" fill="none" /><path id="662" transform="matrix(1 0 0 -1 0 841)" d="M390.366 488.672L390.366 507.613" stroke="#000000" stroke-width="0.398" fill="none" /><path id="663" transform="matrix(1 0 0 -1 0 841)" d="M452.126 488.672L452.126 507.613" stroke="#000000" stroke-width="0.398" fill="none" /><path id="664" transform="matrix(1 0 0 -1 0 841)" d="M390.166 488.672L452.325 488.672" stroke="#000000" stroke-width="0.398" fill="none" /><path id="846" transform="matrix(1 0 0 -1 0 841)" d="M244.331 409.637L293.356 409.637" stroke="#000000" stroke-width="0.436" fill="none" /><path id="863" transform="matrix(1 0 0 -1 0 841)" d="M309.072 409.637L352.706 409.637" stroke="#000000" stroke-width="0.436" fill="none" /><path id="884" transform="matrix(1 0 0 -1 0 841)" d="M367.225 419.935L423.93 419.935" stroke="#000000" stroke-width="0.398" fill="none" /><path id="885" transform="matrix(1 0 0 -1 0 841)" d="M367.425 400.994L367.425 419.935" stroke="#000000" stroke-width="0.398" fill="none" /><path id="886" transform="matrix(1 0 0 -1 0 841)" d="M423.731 400.994L423.731 419.935" stroke="#000000" stroke-width="0.398" fill="none" /><path id="887" transform="matrix(1 0 0 -1 0 841)" d="M367.225 400.994L423.93 400.994" stroke="#000000" stroke-width="0.398" fill="none" /><path id="1212" transform="matrix(1 0 0 -1 0 841)" d="M217.873 300.684L276.084 300.684" stroke="#000000" stroke-width="0.436" fill="none" /><path id="1244" transform="matrix(1 0 0 -1 0 841)" d="M305.305 300.684L457.756 300.684" stroke="#000000" stroke-width="0.436" fill="none" /><path id="1459" transform="matrix(1 0 0 -1 0 841)" d="M241.873 212.34L300.084 212.34" stroke="#000000" stroke-width="0.436" fill="none" /><path id="1491" transform="matrix(1 0 0 -1 0 841)" d="M328.825 212.34L481.276 212.34" stroke="#000000" stroke-width="0.436" fill="none" /><path id="1526" transform="matrix(1 0 0 -1 0 841)" d="M138.703 180.568L175.488 180.568" stroke="#000000" stroke-width="0.436" fill="none" /><path id="1543" transform="matrix(1 0 0 -1 0 841)" d="M186.364 180.568L247.511 180.568" stroke="#000000" stroke-width="0.436" fill="none" /><path id="1550" transform="matrix(1 0 0 -1 0 841)" d="M258.387 180.568L296.569 180.568" stroke="#000000" stroke-width="0.436" fill="none" /><path id="1567" transform="matrix(1 0 0 -1 0 841)" d="M137.508 166.605L356.537 166.605" stroke="#000000" stroke-width="0.436" fill="none" /><path id="1587" transform="matrix(1 0 0 -1 0 841)" d="M371.057 175.187L426.584 175.187" stroke="#000000" stroke-width="0.398" fill="none" /><path id="1588" transform="matrix(1 0 0 -1 0 841)" d="M371.257 157.962L371.257 175.187" stroke="#000000" stroke-width="0.398" fill="none" /><path id="1589" transform="matrix(1 0 0 -1 0 841)" d="M426.385 157.962L426.385 175.187" stroke="#000000" stroke-width="0.398" fill="none" /><path id="1590" transform="matrix(1 0 0 -1 0 841)" d="M371.057 157.962L426.584 157.962" stroke="#000000" stroke-width="0.398" fill="none" /></g></g></svg>