<svg xmlns="http://www.w3.org/2000/svg" xmlns:xlink="http://www.w3.org/1999/xlink" id="body_284" preserveAspectRatio="xMinYMin meet" viewBox="0 0 793 1121"><defs><clipPath id="1"><path id="" clip-rule="evenodd" transform="matrix(1 0 0 1 0 0)" d="M0 841L0 -0.8900146L0 -0.8900146L595.276 -0.8900146L595.276 -0.8900146L595.276 841L595.276 841L0 841z" /></clipPath></defs><g transform="matrix(1.333333 0 0 1.333333 0 0)"><g clip-path="url(#1)"><path id="22" transform="matrix(1 0 0 -1 0 841)" d="M85.039 766.564L510.236 766.564" stroke="#000000" stroke-width="0.498" fill="none" /><path id="926" transform="matrix(1 0 0 -1 0 841)" d="M193.802 465.022L247.289 465.022" stroke="#000000" stroke-width="0.436" fill="none" /><path id="942" transform="matrix(1 0 0 -1 0 841)" d="M263.005 465.022L298.765 465.022" stroke="#000000" stroke-width="0.436" fill="none" /><path id="1053" transform="matrix(1 0 0 -1 0 841)" d="M191.31 397.204L244.797 397.204" stroke="#000000" stroke-width="0.436" fill="none" /><path id="1079" transform="matrix(1 0 0 -1 0 841)" d="M330.907 397.204L384.394 397.204" stroke="#000000" stroke-width="0.436" fill="none" /><path id="1102" transform="matrix(1 0 0 -1 0 841)" d="M478.839 397.204L495.203 397.204" stroke="#000000" stroke-width="0.436" fill="none" /><path id="1110" transform="matrix(1 0 0 -1 0 841)" d="M112.312 385.629L136.661 385.629" stroke="#000000" stroke-width="0.398" fill="none" /><path id="1111" transform="matrix(1 0 0 -1 0 841)" d="M112.511 371.633L112.511 385.629" stroke="#000000" stroke-width="0.398" fill="none" /><path id="1112" transform="matrix(1 0 0 -1 0 841)" d="M136.462 371.633L136.462 385.629" stroke="#000000" stroke-width="0.398" fill="none" /><path id="1113" transform="matrix(1 0 0 -1 0 841)" d="M112.312 371.633L136.661 371.633" stroke="#000000" stroke-width="0.398" fill="none" /><path id="1333" transform="matrix(1 0 0 -1 0 841)" d="M191.075 291.777L244.562 291.777" stroke="#000000" stroke-width="0.436" fill="none" /><path id="1349" transform="matrix(1 0 0 -1 0 841)" d="M260.278 291.777L296.038 291.777" stroke="#000000" stroke-width="0.436" fill="none" /></g></g></svg>