<svg xmlns="http://www.w3.org/2000/svg" xmlns:xlink="http://www.w3.org/1999/xlink" id="body_66" preserveAspectRatio="xMinYMin meet" viewBox="0 0 793 1121"><defs><clipPath id="1"><path id="" clip-rule="evenodd" transform="matrix(1 0 0 1 0 0)" d="M0 841L0 -0.8900146L0 -0.8900146L595.276 -0.8900146L595.276 -0.8900146L595.276 841L595.276 841L0 841z" /></clipPath></defs><g transform="matrix(1.333333 0 0 1.333333 0 0)"><g clip-path="url(#1)"><path id="45" transform="matrix(1 0 0 -1 0 841)" d="M85.039 766.564L510.236 766.564" stroke="#000000" stroke-width="0.498" fill="none" /><path id="637" transform="matrix(1 0 0 -1 0 841)" d="M173.271 555.646L346.256 555.646" stroke="#000000" stroke-width="0.436" fill="none" /><path id="663" transform="matrix(1 0 0 -1 0 841)" d="M361.972 555.646L381.357 555.646" stroke="#000000" stroke-width="0.436" fill="none" /><path id="672" transform="matrix(1 0 0 -1 0 841)" d="M395.877 563.405L416.582 563.405" stroke="#000000" stroke-width="0.398" fill="none" /><path id="673" transform="matrix(1 0 0 -1 0 841)" d="M396.077 549.731L396.077 563.405" stroke="#000000" stroke-width="0.398" fill="none" /><path id="674" transform="matrix(1 0 0 -1 0 841)" d="M416.383 549.731L416.383 563.405" stroke="#000000" stroke-width="0.398" fill="none" /><path id="675" transform="matrix(1 0 0 -1 0 841)" d="M395.877 549.731L416.582 549.731" stroke="#000000" stroke-width="0.398" fill="none" /></g></g></svg>