<svg xmlns="http://www.w3.org/2000/svg" xmlns:xlink="http://www.w3.org/1999/xlink" id="body_360" preserveAspectRatio="xMinYMin meet" viewBox="0 0 793 1121"><defs><clipPath id="1"><path id="" clip-rule="evenodd" transform="matrix(1 0 0 1 0 0)" d="M0 841L0 -0.8900146L0 -0.8900146L595.276 -0.8900146L595.276 -0.8900146L595.276 841L595.276 841L0 841z" /></clipPath></defs><g transform="matrix(1.333333 0 0 1.333333 0 0)"><g clip-path="url(#1)"><path id="34" transform="matrix(1 0 0 -1 0 841)" d="M85.039 766.564L510.236 766.564" stroke="#000000" stroke-width="0.498" fill="none" /><path id="35" transform="matrix(1 0 0 -1 0 841)" d="M354.3337 714.1324C 354.3337 737.616 335.297 756.6526 311.8135 756.6526C 288.3299 756.6526 269.2933 737.616 269.2933 714.1324C 269.2933 690.6488 288.3299 671.6122 311.8135 671.6122C 335.297 671.6122 354.3337 690.6488 354.3337 714.1324z" stroke="#000000" stroke-width="0.3985" fill="#F2F2F2" fill-rule="nonzero" /><path id="36" transform="matrix(1 0 0 -1 0 841)" d="M269.2932 714.1324L354.3337 714.1324" stroke="#000000" stroke-width="1.19553" fill="none" /><path id="65" transform="matrix(1 0 0 -1 0 841)" d="M289.1359 677.2814L311.8135 714.1324" stroke="#000000" stroke-width="1.19553" fill="none" /><path id="66" transform="matrix(1 0 0 -1 0 841)" d="M334.491 677.2814L311.8135 714.1324" stroke="#000000" stroke-width="1.19553" fill="none" /><path id="70" transform="matrix(1 0 0 -1 0 841)" d="M113.508 584.319L129.261 584.319" stroke="#000000" stroke-width="0.436" fill="none" /><path id="81" transform="matrix(1 0 0 -1 0 841)" d="M167.885 584.319L185.459 584.319" stroke="#000000" stroke-width="0.436" fill="none" /><path id="101" transform="matrix(1 0 0 -1 0 841)" d="M258.648 584.319L272.59 584.319" stroke="#000000" stroke-width="0.436" fill="none" /><path id="125" transform="matrix(1 0 0 -1 0 841)" d="M399.602 584.319L413.544 584.319" stroke="#000000" stroke-width="0.436" fill="none" /><path id="131" transform="matrix(1 0 0 -1 0 841)" d="M457.132 598.418L472.885 598.418" stroke="#000000" stroke-width="0.436" fill="none" /><path id="135" transform="matrix(1 0 0 -1 0 841)" d="M430.012 584.319L500.004 584.319" stroke="#000000" stroke-width="0.436" fill="none" /><path id="142" transform="matrix(1 0 0 -1 0 841)" d="M453.364 570.836L470.938 570.836" stroke="#000000" stroke-width="0.436" fill="none" /><path id="166" transform="matrix(1 0 0 -1 0 841)" d="M175.318 531.058L189.26 531.058" stroke="#000000" stroke-width="0.436" fill="none" /><path id="173" transform="matrix(1 0 0 -1 0 841)" d="M307.494 545.158L323.247 545.158" stroke="#000000" stroke-width="0.436" fill="none" /><path id="177" transform="matrix(1 0 0 -1 0 841)" d="M204.975 531.058L420.31 531.058" stroke="#000000" stroke-width="0.436" fill="none" /><path id="197" transform="matrix(1 0 0 -1 0 841)" d="M251.761 513.168L285.699 513.168" stroke="#000000" stroke-width="0.436" fill="none" /><path id="204" transform="matrix(1 0 0 -1 0 841)" d="M296.574 513.168L382.616 513.168" stroke="#000000" stroke-width="0.436" fill="none" /><path id="236" transform="matrix(1 0 0 -1 0 841)" d="M444.868 531.058L458.81 531.058" stroke="#000000" stroke-width="0.436" fill="none" /><path id="238" transform="matrix(1 0 0 -1 0 841)" d="M434.831 543.868L463.393 543.868" stroke="#000000" stroke-width="0.398" fill="none" /><path id="239" transform="matrix(1 0 0 -1 0 841)" d="M435.03 517.659L435.03 543.868" stroke="#000000" stroke-width="0.398" fill="none" /><path id="240" transform="matrix(1 0 0 -1 0 841)" d="M463.193 517.659L463.193 543.868" stroke="#000000" stroke-width="0.398" fill="none" /><path id="241" transform="matrix(1 0 0 -1 0 841)" d="M434.831 517.659L463.393 517.659" stroke="#000000" stroke-width="0.398" fill="none" /><path id="349" transform="matrix(1 0 0 -1 0 841)" d="M354.3337 389.0984C 354.3337 412.582 335.297 431.6187 311.8135 431.6187C 288.3299 431.6187 269.2933 412.582 269.2933 389.0984C 269.2933 365.6149 288.3299 346.5782 311.8135 346.5782C 335.297 346.5782 354.3337 365.6149 354.3337 389.0984z" stroke="#000000" stroke-width="0.3985" fill="#F2F2F2" fill-rule="nonzero" /><path id="350" transform="matrix(1 0 0 -1 0 841)" d="M269.2932 389.0984L354.3337 389.0984" stroke="#000000" stroke-width="1.19553" fill="none" /><path id="377" transform="matrix(1 0 0 -1 0 841)" d="M289.1359 352.2475L311.8135 389.0984" stroke="#000000" stroke-width="1.19553" fill="none" /><path id="378" transform="matrix(1 0 0 -1 0 841)" d="M334.491 352.2475L311.8135 389.0984" stroke="#000000" stroke-width="1.19553" fill="none" /><path id="382" transform="matrix(1 0 0 -1 0 841)" d="M113.508 278.683L129.261 278.683" stroke="#000000" stroke-width="0.436" fill="none" /><path id="393" transform="matrix(1 0 0 -1 0 841)" d="M167.132 278.683L184.706 278.683" stroke="#000000" stroke-width="0.436" fill="none" /><path id="413" transform="matrix(1 0 0 -1 0 841)" d="M257.392 278.683L271.334 278.683" stroke="#000000" stroke-width="0.436" fill="none" /><path id="428" transform="matrix(1 0 0 -1 0 841)" d="M160.504 233.236L178.078 233.236" stroke="#000000" stroke-width="0.436" fill="none" /><path id="436" transform="matrix(1 0 0 -1 0 841)" d="M238.924 247.336L254.677 247.336" stroke="#000000" stroke-width="0.436" fill="none" /><path id="440" transform="matrix(1 0 0 -1 0 841)" d="M193.794 233.236L299.807 233.236" stroke="#000000" stroke-width="0.436" fill="none" /><path id="456" transform="matrix(1 0 0 -1 0 841)" d="M256.799 222.088L270.741 222.088" stroke="#000000" stroke-width="0.436" fill="none" /><path id="468" transform="matrix(1 0 0 -1 0 841)" d="M337.929 247.336L353.682 247.336" stroke="#000000" stroke-width="0.436" fill="none" /><path id="472" transform="matrix(1 0 0 -1 0 841)" d="M315.522 233.236L370.634 233.236" stroke="#000000" stroke-width="0.436" fill="none" /><path id="477" transform="matrix(1 0 0 -1 0 841)" d="M327.627 222.088L341.569 222.088" stroke="#000000" stroke-width="0.436" fill="none" /><path id="495" transform="matrix(1 0 0 -1 0 841)" d="M427.553 233.236L445.127 233.236" stroke="#000000" stroke-width="0.436" fill="none" /><path id="509" transform="matrix(1 0 0 -1 0 841)" d="M154.711 193.103L172.285 193.103" stroke="#000000" stroke-width="0.436" fill="none" /><path id="530" transform="matrix(1 0 0 -1 0 841)" d="M183.161 193.103L269.203 193.103" stroke="#000000" stroke-width="0.436" fill="none" /><path id="547" transform="matrix(1 0 0 -1 0 841)" d="M283.723 201.014L361.396 201.014" stroke="#000000" stroke-width="0.398" fill="none" /><path id="548" transform="matrix(1 0 0 -1 0 841)" d="M283.922 185.071L283.922 201.014" stroke="#000000" stroke-width="0.398" fill="none" /><path id="549" transform="matrix(1 0 0 -1 0 841)" d="M361.197 185.071L361.197 201.014" stroke="#000000" stroke-width="0.398" fill="none" /><path id="550" transform="matrix(1 0 0 -1 0 841)" d="M283.723 185.071L361.396 185.071" stroke="#000000" stroke-width="0.398" fill="none" /></g></g></svg>