<svg xmlns="http://www.w3.org/2000/svg" xmlns:xlink="http://www.w3.org/1999/xlink" id="body_258" preserveAspectRatio="xMinYMin meet" viewBox="0 0 793 1121"><defs><clipPath id="1"><path id="" clip-rule="evenodd" transform="matrix(1 0 0 1 0 0)" d="M0 841L0 -0.8900146L0 -0.8900146L595.276 -0.8900146L595.276 -0.8900146L595.276 841L595.276 841L0 841z" /></clipPath></defs><g transform="matrix(1.333333 0 0 1.333333 0 0)"><g clip-path="url(#1)"><path id="30" transform="matrix(1 0 0 -1 0 841)" d="M85.039 766.564L510.236 766.564" stroke="#000000" stroke-width="0.498" fill="none" /><path id="31" transform="matrix(1 0 0 -1 0 841)" d="M85.039 86.008L85.039 752.6069C 85.039 754.9553 86.94264 756.8589 89.29099 756.8589L89.29099 756.8589L505.9893 756.8589C 508.3377 756.8589 510.2413 754.9553 510.2413 752.6069L510.2413 752.6069L510.2413 86.008z" stroke="none" fill="#BFBFFF" fill-rule="nonzero" /><path id="32" transform="matrix(1 0 0 -1 0 841)" d="M86.45631 86.008L86.45631 738.5969L508.824 738.5969L508.824 86.008z" stroke="none" fill="#E6E6FF" fill-rule="nonzero" /><path id="674" transform="matrix(1 0 0 -1 0 841)" d="M127.903 299.326L153.415 299.326" stroke="#000000" stroke-width="0.1" fill="none" /><path id="866" transform="matrix(1 0 0 -1 0 841)" d="M127.903 180.771L153.415 180.771" stroke="#000000" stroke-width="0.1" fill="none" /></g></g></svg>