<svg xmlns="http://www.w3.org/2000/svg" xmlns:xlink="http://www.w3.org/1999/xlink" id="body_270" preserveAspectRatio="xMinYMin meet" viewBox="0 0 793 1121"><defs><clipPath id="1"><path id="" clip-rule="evenodd" transform="matrix(1 0 0 1 0 0)" d="M0 841L0 -0.8900146L0 -0.8900146L595.276 -0.8900146L595.276 -0.8900146L595.276 841L595.276 841L0 841z" /></clipPath></defs><g transform="matrix(1.333333 0 0 1.333333 0 0)"><g clip-path="url(#1)"><path id="40" transform="matrix(1 0 0 -1 0 841)" d="M85.039 766.564L510.236 766.564" stroke="#000000" stroke-width="0.498" fill="none" /><path id="232" transform="matrix(1 0 0 -1 0 841)" d="M162.348 668.145L210.565 668.145" stroke="#000000" stroke-width="0.436" fill="none" /><path id="241" transform="matrix(1 0 0 -1 0 841)" d="M242.066 668.145L258.386 668.145" stroke="#000000" stroke-width="0.436" fill="none" /><path id="263" transform="matrix(1 0 0 -1 0 841)" d="M321.971 668.145L370.188 668.145" stroke="#000000" stroke-width="0.436" fill="none" /><path id="285" transform="matrix(1 0 0 -1 0 841)" d="M422.268 668.145L478.012 668.145" stroke="#000000" stroke-width="0.436" fill="none" /><path id="300" transform="matrix(1 0 0 -1 0 841)" d="M167.224 624.983L183.544 624.983" stroke="#000000" stroke-width="0.436" fill="none" /><path id="310" transform="matrix(1 0 0 -1 0 841)" d="M210.168 624.983L285.293 624.983" stroke="#000000" stroke-width="0.436" fill="none" /><path id="332" transform="matrix(1 0 0 -1 0 841)" d="M326.215 624.983L342.535 624.983" stroke="#000000" stroke-width="0.436" fill="none" /><path id="336" transform="matrix(1 0 0 -1 0 841)" d="M305.268 640.34L347.117 640.34" stroke="#000000" stroke-width="0.398" fill="none" /><path id="337" transform="matrix(1 0 0 -1 0 841)" d="M305.468 609.359L305.468 640.34" stroke="#000000" stroke-width="0.398" fill="none" /><path id="338" transform="matrix(1 0 0 -1 0 841)" d="M346.918 609.359L346.918 640.34" stroke="#000000" stroke-width="0.398" fill="none" /><path id="339" transform="matrix(1 0 0 -1 0 841)" d="M305.268 609.359L347.117 609.359" stroke="#000000" stroke-width="0.398" fill="none" /><path id="473" transform="matrix(1 0 0 -1 0 841)" d="M148.65 550.094L313.425 550.094" stroke="#000000" stroke-width="0.436" fill="none" /><path id="515" transform="matrix(1 0 0 -1 0 841)" d="M353.686 550.094L437.277 550.094" stroke="#000000" stroke-width="0.436" fill="none" /><path id="539" transform="matrix(1 0 0 -1 0 841)" d="M472.744 550.094L488.497 550.094" stroke="#000000" stroke-width="0.436" fill="none" /><path id="543" transform="matrix(1 0 0 -1 0 841)" d="M451.797 565.337L493.079 565.337" stroke="#000000" stroke-width="0.398" fill="none" /><path id="544" transform="matrix(1 0 0 -1 0 841)" d="M451.997 534.334L451.997 565.337" stroke="#000000" stroke-width="0.398" fill="none" /><path id="545" transform="matrix(1 0 0 -1 0 841)" d="M492.88 534.334L492.88 565.337" stroke="#000000" stroke-width="0.398" fill="none" /><path id="546" transform="matrix(1 0 0 -1 0 841)" d="M451.797 534.334L493.079 534.334" stroke="#000000" stroke-width="0.398" fill="none" /><path id="1429" transform="matrix(1 0 0 -1 0 841)" d="M228.969 219.367L286.056 219.367" stroke="#000000" stroke-width="0.436" fill="none" /></g></g></svg>