<svg xmlns="http://www.w3.org/2000/svg" xmlns:xlink="http://www.w3.org/1999/xlink" id="body_156" preserveAspectRatio="xMinYMin meet" viewBox="0 0 793 1121"><defs><clipPath id="1"><path id="" clip-rule="evenodd" transform="matrix(1 0 0 1 0 0)" d="M0 841L0 -0.8900146L0 -0.8900146L595.276 -0.8900146L595.276 -0.8900146L595.276 841L595.276 841L0 841z" /></clipPath></defs><g transform="matrix(1.333333 0 0 1.333333 0 0)"><g clip-path="url(#1)"><path id="25" transform="matrix(1 0 0 -1 0 841)" d="M85.039 766.564L510.236 766.564" stroke="#000000" stroke-width="0.498" fill="none" /><g transform="matrix(0.375 0 0 0.375 214.013 84.14899)"><g transform="matrix(1 0 0 1 0 0)"><image x="0" y="0" xlink:href="img_215.png" width="446" height="387" /></g></g><path id="82" transform="matrix(1 0 0 -1 0 841)" d="M248.789 524.969L299.949 524.969L299.949 554.857L248.789 554.857z" stroke="none" fill="#FFBFBF" fill-rule="nonzero" /><path id="107" transform="matrix(1 0 0 -1 0 841)" d="M402.312 524.969L452.862 524.969L452.862 555.151L402.312 555.151z" stroke="none" fill="#FFBFBF" fill-rule="nonzero" /></g></g></svg>