<svg xmlns="http://www.w3.org/2000/svg" xmlns:xlink="http://www.w3.org/1999/xlink" id="body_273" preserveAspectRatio="xMinYMin meet" viewBox="0 0 793 1121"><defs><clipPath id="1"><path id="" clip-rule="evenodd" transform="matrix(1 0 0 1 0 0)" d="M0 841L0 -0.8900146L0 -0.8900146L595.276 -0.8900146L595.276 -0.8900146L595.276 841L595.276 841L0 841z" /></clipPath></defs><g transform="matrix(1.333333 0 0 1.333333 0 0)"><g clip-path="url(#1)"><path id="22" transform="matrix(1 0 0 -1 0 841)" d="M85.039 766.564L510.236 766.564" stroke="#000000" stroke-width="0.498" fill="none" /><path id="23" transform="matrix(1 0 0 -1 0 841)" d="M396.8539 671.6124C 396.8539 718.5796 358.7806 756.6529 311.8135 756.6529C 264.8463 756.6529 226.773 718.5796 226.773 671.6124C 226.773 624.6453 264.8463 586.572 311.8135 586.572C 358.7806 586.572 396.8539 624.6453 396.8539 671.6124z" stroke="#000000" stroke-width="0.3985" fill="#F2F2F2" fill-rule="nonzero" /><path id="24" transform="matrix(1 0 0 -1 0 841)" d="M226.773 671.6124L396.8539 671.6124" stroke="#000000" stroke-width="1.19553" fill="none" /><path id="81" transform="matrix(1 0 0 -1 0 841)" d="M266.4584 600.7454L311.8135 671.6124" stroke="#000000" stroke-width="1.19553" fill="none" /><path id="82" transform="matrix(1 0 0 -1 0 841)" d="M357.1685 600.7454L311.8135 671.6124" stroke="#000000" stroke-width="1.19553" fill="none" /><path id="83" transform="matrix(1 0 0 -1 0 841)" d="M215.119 671.6124C 215.119 680.8317 207.6455 688.3052 198.4262 688.3052C 189.207 688.3052 181.7335 680.8317 181.7335 671.6124C 181.7335 662.3932 189.207 654.9197 198.4262 654.9197C 207.6455 654.9197 215.119 662.3932 215.119 671.6124z" stroke="#000000" stroke-width="1.39478" fill="#FFCCCC" fill-rule="nonzero" /><path id="84" transform="matrix(1 0 0 -1 0 841)" d="M215.119 671.6124C 215.119 680.8317 207.6455 688.3052 198.4262 688.3052C 189.207 688.3052 181.7335 680.8317 181.7335 671.6124C 181.7335 662.3932 189.207 654.9197 198.4262 654.9197C 207.6455 654.9197 215.119 662.3932 215.119 671.6124z" stroke="#FFFFFF" stroke-width="0.59776" fill="none" /><path id="85" transform="matrix(1 0 0 -1 0 841)" d="M181.9327 671.6124L214.9197 671.6124" stroke="#000000" stroke-width="0.3985" fill="none" /><path id="88" transform="matrix(1 0 0 -1 0 841)" d="M268.8398 580.9028C 268.8398 591.6113 260.1591 600.2919 249.4506 600.2919C 238.7421 600.2919 230.0614 591.6113 230.0614 580.9028C 230.0614 570.1943 238.7421 561.5135 249.4506 561.5135C 260.1591 561.5135 268.8398 570.1943 268.8398 580.9028z" stroke="#000000" stroke-width="1.39478" fill="#FFCCCC" fill-rule="nonzero" /><path id="89" transform="matrix(1 0 0 -1 0 841)" d="M268.8398 580.9028C 268.8398 591.6113 260.1591 600.2919 249.4506 600.2919C 238.7421 600.2919 230.0614 591.6113 230.0614 580.9028C 230.0614 570.1943 238.7421 561.5135 249.4506 561.5135C 260.1591 561.5135 268.8398 570.1943 268.8398 580.9028z" stroke="#FFFFFF" stroke-width="0.59776" fill="none" /><path id="90" transform="matrix(1 0 0 -1 0 841)" d="M230.2606 580.9028L268.6405 580.9028" stroke="#000000" stroke-width="0.3985" fill="none" /><path id="100" transform="matrix(1 0 0 -1 0 841)" d="M387.8963 580.9028C 387.8963 591.6113 379.2156 600.2919 368.5071 600.2919C 357.7986 600.2919 349.1179 591.6113 349.1179 580.9028C 349.1179 570.1943 357.7986 561.5135 368.5071 561.5135C 379.2156 561.5135 387.8963 570.1943 387.8963 580.9028z" stroke="#000000" stroke-width="1.39478" fill="#FFCCCC" fill-rule="nonzero" /><path id="101" transform="matrix(1 0 0 -1 0 841)" d="M387.8963 580.9028C 387.8963 591.6113 379.2156 600.2919 368.5071 600.2919C 357.7986 600.2919 349.1179 591.6113 349.1179 580.9028C 349.1179 570.1943 357.7986 561.5135 368.5071 561.5135C 379.2156 561.5135 387.8963 570.1943 387.8963 580.9028z" stroke="#FFFFFF" stroke-width="0.59776" fill="none" /><path id="102" transform="matrix(1 0 0 -1 0 841)" d="M349.3171 580.9028L387.6971 580.9028" stroke="#000000" stroke-width="0.3985" fill="none" /><path id="606" transform="matrix(1 0 0 -1 0 841)" d="M113.508 258.399L129.828 258.399" stroke="#000000" stroke-width="0.436" fill="none" /><path id="621" transform="matrix(1 0 0 -1 0 841)" d="M201.122 258.399L214.453 258.399" stroke="#000000" stroke-width="0.436" fill="none" /><path id="637" transform="matrix(1 0 0 -1 0 841)" d="M287.478 258.399L303.798 258.399" stroke="#000000" stroke-width="0.436" fill="none" /><path id="641" transform="matrix(1 0 0 -1 0 841)" d="M256.843 273.756L308.38 273.756" stroke="#000000" stroke-width="0.398" fill="none" /><path id="642" transform="matrix(1 0 0 -1 0 841)" d="M257.042 242.775L257.042 273.756" stroke="#000000" stroke-width="0.398" fill="none" /><path id="643" transform="matrix(1 0 0 -1 0 841)" d="M308.181 242.775L308.181 273.756" stroke="#000000" stroke-width="0.398" fill="none" /><path id="644" transform="matrix(1 0 0 -1 0 841)" d="M256.843 242.775L308.38 242.775" stroke="#000000" stroke-width="0.398" fill="none" /><path id="764" transform="matrix(1 0 0 -1 0 841)" d="M184.399 179.174L231.048 179.174" stroke="#000000" stroke-width="0.436" fill="none" /><path id="801" transform="matrix(1 0 0 -1 0 841)" d="M353.245 187.146L404.813 187.146" stroke="#000000" stroke-width="0.398" fill="none" /><path id="802" transform="matrix(1 0 0 -1 0 841)" d="M353.444 171.143L353.444 187.146" stroke="#000000" stroke-width="0.398" fill="none" /><path id="803" transform="matrix(1 0 0 -1 0 841)" d="M404.614 171.143L404.614 187.146" stroke="#000000" stroke-width="0.398" fill="none" /><path id="804" transform="matrix(1 0 0 -1 0 841)" d="M353.245 171.143L404.813 171.143" stroke="#000000" stroke-width="0.398" fill="none" /><path id="1009" transform="matrix(1 0 0 -1 0 841)" d="M365.64 113.286L425.05 113.286" stroke="#000000" stroke-width="0.398" fill="none" /><path id="1010" transform="matrix(1 0 0 -1 0 841)" d="M365.84 96.061L365.84 113.286" stroke="#000000" stroke-width="0.398" fill="none" /><path id="1011" transform="matrix(1 0 0 -1 0 841)" d="M424.852 96.061L424.852 113.286" stroke="#000000" stroke-width="0.398" fill="none" /><path id="1012" transform="matrix(1 0 0 -1 0 841)" d="M365.64 96.061L425.05 96.061" stroke="#000000" stroke-width="0.398" fill="none" /></g></g></svg>