<svg xmlns="http://www.w3.org/2000/svg" xmlns:xlink="http://www.w3.org/1999/xlink" id="body_339" preserveAspectRatio="xMinYMin meet" viewBox="0 0 793 1121"><defs><clipPath id="1"><path id="" clip-rule="evenodd" transform="matrix(1 0 0 1 0 0)" d="M0 841L0 -0.8900146L0 -0.8900146L595.276 -0.8900146L595.276 -0.8900146L595.276 841L595.276 841L0 841z" /></clipPath></defs><g transform="matrix(1.333333 0 0 1.333333 0 0)"><g clip-path="url(#1)"><path id="22" transform="matrix(1 0 0 -1 0 841)" d="M85.039 766.564L510.236 766.564" stroke="#000000" stroke-width="0.498" fill="none" /><path id="123" transform="matrix(1 0 0 -1 0 841)" d="M132.893 684.019L147.391 684.019" stroke="#000000" stroke-width="0.436" fill="none" /><path id="140" transform="matrix(1 0 0 -1 0 841)" d="M219.204 684.019L233.702 684.019" stroke="#000000" stroke-width="0.436" fill="none" /><path id="144" transform="matrix(1 0 0 -1 0 841)" d="M189.781 699.376L238.284 699.376" stroke="#000000" stroke-width="0.398" fill="none" /><path id="145" transform="matrix(1 0 0 -1 0 841)" d="M189.98 668.394L189.98 699.375" stroke="#000000" stroke-width="0.398" fill="none" /><path id="146" transform="matrix(1 0 0 -1 0 841)" d="M238.085 668.394L238.085 699.375" stroke="#000000" stroke-width="0.398" fill="none" /><path id="147" transform="matrix(1 0 0 -1 0 841)" d="M189.781 668.394L238.284 668.394" stroke="#000000" stroke-width="0.398" fill="none" /><path id="244" transform="matrix(1 0 0 -1 0 841)" d="M132.893 592.261L147.391 592.261" stroke="#000000" stroke-width="0.436" fill="none" /><path id="271" transform="matrix(1 0 0 -1 0 841)" d="M253.096 592.261L267.594 592.261" stroke="#000000" stroke-width="0.436" fill="none" /><path id="275" transform="matrix(1 0 0 -1 0 841)" d="M223.673 607.618L272.176 607.618" stroke="#000000" stroke-width="0.398" fill="none" /><path id="276" transform="matrix(1 0 0 -1 0 841)" d="M223.872 576.636L223.872 607.617" stroke="#000000" stroke-width="0.398" fill="none" /><path id="277" transform="matrix(1 0 0 -1 0 841)" d="M271.977 576.636L271.977 607.617" stroke="#000000" stroke-width="0.398" fill="none" /><path id="278" transform="matrix(1 0 0 -1 0 841)" d="M223.673 576.636L272.176 576.636" stroke="#000000" stroke-width="0.398" fill="none" /><path id="427" transform="matrix(1 0 0 -1 0 841)" d="M330.0166 484.2388L265.2594 484.2388C 263.0585 484.2388 261.2743 482.4547 261.2743 480.2537L261.2743 480.2537L261.2743 455.4963C 261.2743 453.2953 263.0585 451.5112 265.2594 451.5112L265.2594 451.5112L330.0166 451.5112C 332.2175 451.5112 334.0017 453.2953 334.0017 455.4963L334.0017 455.4963L334.0017 480.2537C 334.0017 482.4547 332.2175 484.2388 330.0166 484.2388z" stroke="#000000" stroke-width="0.3985" fill="#FF9999" fill-rule="nonzero" /><path id="469" transform="matrix(1 0 0 -1 0 841)" d="M186.7903 467.875L258.6841 467.875" stroke="#000000" stroke-width="0.3985" fill="none" /><path id="470" transform="matrix(1 0 0 -1 0 841)" d="M261.075 467.875C 260.0788 468.0742 258.2855 468.4727 257.09 469.3694C 258.0863 468.2735 258.0863 467.4765 257.09 466.3806C 258.2855 467.2773 260.0788 467.6758 261.075 467.875z" stroke="none" fill="#000000" fill-rule="nonzero" /><path id="471" transform="matrix(1 0 0 -1 0 841)" d="M334.2009 467.875L406.0946 467.875" stroke="#000000" stroke-width="0.3985" fill="none" /><path id="472" transform="matrix(1 0 0 -1 0 841)" d="M408.4856 467.875C 407.4893 468.0742 405.6961 468.4727 404.5006 469.3694C 405.4969 468.2735 405.4969 467.4765 404.5006 466.3806C 405.6961 467.2773 407.4893 467.6758 408.4856 467.875z" stroke="none" fill="#000000" fill-rule="nonzero" /><path id="473" transform="matrix(1 0 0 -1 0 841)" d="M297.638 451.3119L297.638 437.0357" stroke="#000000" stroke-width="0.3985" fill="none" /><path id="474" transform="matrix(1 0 0 -1 0 841)" d="M297.638 434.6447C 297.8372 435.6409 298.2357 437.4342 299.1324 438.6297C 298.0365 437.6334 297.2395 437.6334 296.1436 438.6297C 297.0403 437.4342 297.4388 435.6409 297.638 434.6447z" stroke="none" fill="#000000" fill-rule="nonzero" /><path id="504" transform="matrix(1 0 0 -1 0 841)" d="M244.376 376.037L289.138 376.037" stroke="#000000" stroke-width="0.436" fill="none" /><path id="522" transform="matrix(1 0 0 -1 0 841)" d="M329.702 376.037L379.979 376.037" stroke="#000000" stroke-width="0.436" fill="none" /><path id="537" transform="matrix(1 0 0 -1 0 841)" d="M419.348 383.796L454.595 383.796" stroke="#000000" stroke-width="0.398" fill="none" /><path id="538" transform="matrix(1 0 0 -1 0 841)" d="M419.547 369.881L419.547 383.795" stroke="#000000" stroke-width="0.398" fill="none" /><path id="539" transform="matrix(1 0 0 -1 0 841)" d="M454.396 369.881L454.396 383.795" stroke="#000000" stroke-width="0.398" fill="none" /><path id="540" transform="matrix(1 0 0 -1 0 841)" d="M419.348 369.881L454.595 369.881" stroke="#000000" stroke-width="0.398" fill="none" /><path id="703" transform="matrix(1 0 0 -1 0 841)" d="M330.6986 290.3938L265.9414 290.3938C 263.7405 290.3938 261.9563 288.6097 261.9563 286.4087L261.9563 286.4087L261.9563 261.6513C 261.9563 259.4503 263.7405 257.6662 265.9414 257.6662L265.9414 257.6662L330.6986 257.6662C 332.8995 257.6662 334.6837 259.4503 334.6837 261.6513L334.6837 261.6513L334.6837 286.4087C 334.6837 288.6097 332.8995 290.3938 330.6986 290.3938z" stroke="#000000" stroke-width="0.3985" fill="#FF9999" fill-rule="nonzero" /><path id="743" transform="matrix(1 0 0 -1 0 841)" d="M192.1741 274.03L259.3661 274.03" stroke="#000000" stroke-width="0.3985" fill="none" /><path id="744" transform="matrix(1 0 0 -1 0 841)" d="M261.757 274.03C 260.7608 274.2292 258.9675 274.6277 257.772 275.5244C 258.7683 274.4285 258.7683 273.6315 257.772 272.5356C 258.9675 273.4323 260.7608 273.8307 261.757 274.03z" stroke="none" fill="#000000" fill-rule="nonzero" /><path id="745" transform="matrix(1 0 0 -1 0 841)" d="M334.8829 274.03L403.4385 274.03" stroke="#000000" stroke-width="0.3985" fill="none" /><path id="746" transform="matrix(1 0 0 -1 0 841)" d="M405.8295 274.03C 404.8332 274.2292 403.04 274.6277 401.8445 275.5244C 402.8407 274.4285 402.8407 273.6315 401.8445 272.5356C 403.04 273.4323 404.8332 273.8307 405.8295 274.03z" stroke="none" fill="#000000" fill-rule="nonzero" /><path id="747" transform="matrix(1 0 0 -1 0 841)" d="M298.32 257.4669L298.32 242.6042" stroke="#000000" stroke-width="0.3985" fill="none" /><path id="748" transform="matrix(1 0 0 -1 0 841)" d="M298.32 240.2132C 298.5193 241.2095 298.9178 243.0027 299.8144 244.1982C 298.7185 243.202 297.9215 243.202 296.8256 244.1982C 297.7223 243.0027 298.1208 241.2095 298.32 240.2132z" stroke="none" fill="#000000" fill-rule="nonzero" /><path id="825" transform="matrix(1 0 0 -1 0 841)" d="M308.209 176.648L390.255 176.648" stroke="#000000" stroke-width="0.398" fill="none" /><path id="826" transform="matrix(1 0 0 -1 0 841)" d="M308.408 160.536L308.408 176.648" stroke="#000000" stroke-width="0.398" fill="none" /><path id="827" transform="matrix(1 0 0 -1 0 841)" d="M390.056 160.536L390.056 176.648" stroke="#000000" stroke-width="0.398" fill="none" /><path id="828" transform="matrix(1 0 0 -1 0 841)" d="M308.209 160.536L390.255 160.536" stroke="#000000" stroke-width="0.398" fill="none" /></g></g></svg>