<svg xmlns="http://www.w3.org/2000/svg" xmlns:xlink="http://www.w3.org/1999/xlink" id="body_286" preserveAspectRatio="xMinYMin meet" viewBox="0 0 793 1121"><defs><clipPath id="1"><path id="" clip-rule="evenodd" transform="matrix(1 0 0 1 0 0)" d="M0 841L0 -0.8900146L0 -0.8900146L595.276 -0.8900146L595.276 -0.8900146L595.276 841L595.276 841L0 841z" /></clipPath></defs><g transform="matrix(1.333333 0 0 1.333333 0 0)"><g clip-path="url(#1)"><path id="23" transform="matrix(1 0 0 -1 0 841)" d="M85.039 766.564L510.236 766.564" stroke="#000000" stroke-width="0.498" fill="none" /><path id="107" transform="matrix(1 0 0 -1 0 841)" d="M307.595 714.746L466.374 714.746" stroke="#000000" stroke-width="0.436" fill="none" /><path id="527" transform="matrix(1 0 0 -1 0 841)" d="M233.247 551.334L324.501 551.334" stroke="#000000" stroke-width="0.436" fill="none" /><path id="551" transform="matrix(1 0 0 -1 0 841)" d="M340.216 551.334L393.541 551.334" stroke="#000000" stroke-width="0.436" fill="none" /><path id="568" transform="matrix(1 0 0 -1 0 841)" d="M408.061 559.245L437.854 559.245" stroke="#000000" stroke-width="0.398" fill="none" /><path id="569" transform="matrix(1 0 0 -1 0 841)" d="M408.26 545.418L408.26 559.2451" stroke="#000000" stroke-width="0.398" fill="none" /><path id="570" transform="matrix(1 0 0 -1 0 841)" d="M437.655 545.418L437.655 559.2451" stroke="#000000" stroke-width="0.398" fill="none" /><path id="571" transform="matrix(1 0 0 -1 0 841)" d="M408.061 545.419L437.854 545.419" stroke="#000000" stroke-width="0.398" fill="none" /><path id="746" transform="matrix(1 0 0 -1 0 841)" d="M232.037 469.688L323.291 469.688" stroke="#000000" stroke-width="0.436" fill="none" /><path id="799" transform="matrix(1 0 0 -1 0 841)" d="M337.795 469.688L541.458 469.688" stroke="#000000" stroke-width="0.436" fill="none" /><path id="846" transform="matrix(1 0 0 -1 0 841)" d="M306.181 437.915L340.064 437.915" stroke="#000000" stroke-width="0.436" fill="none" /><path id="850" transform="matrix(1 0 0 -1 0 841)" d="M217.514 423.897L341.26 423.897" stroke="#000000" stroke-width="0.436" fill="none" /><path id="863" transform="matrix(1 0 0 -1 0 841)" d="M225.424 410.202L286.571 410.202" stroke="#000000" stroke-width="0.436" fill="none" /><path id="871" transform="matrix(1 0 0 -1 0 841)" d="M297.448 410.202L333.35 410.202" stroke="#000000" stroke-width="0.436" fill="none" /><path id="886" transform="matrix(1 0 0 -1 0 841)" d="M355.78 431.869L396.023 431.869" stroke="#000000" stroke-width="0.398" fill="none" /><path id="887" transform="matrix(1 0 0 -1 0 841)" d="M355.979 417.813L355.979 431.869" stroke="#000000" stroke-width="0.398" fill="none" /><path id="888" transform="matrix(1 0 0 -1 0 841)" d="M395.824 417.813L395.824 431.869" stroke="#000000" stroke-width="0.398" fill="none" /><path id="889" transform="matrix(1 0 0 -1 0 841)" d="M355.78 417.813L396.023 417.813" stroke="#000000" stroke-width="0.398" fill="none" /><path id="1116" transform="matrix(1 0 0 -1 0 841)" d="M292.819 303.715L310.568 303.715" stroke="#000000" stroke-width="0.436" fill="none" /><path id="1148" transform="matrix(1 0 0 -1 0 841)" d="M332.796 303.715L472.048 303.715" stroke="#000000" stroke-width="0.436" fill="none" /><path id="1485" transform="matrix(1 0 0 -1 0 841)" d="M244.331 129.03L296.083 129.03" stroke="#000000" stroke-width="0.436" fill="none" /><path id="1502" transform="matrix(1 0 0 -1 0 841)" d="M311.799 129.03L375.646 129.03" stroke="#000000" stroke-width="0.436" fill="none" /><path id="1528" transform="matrix(1 0 0 -1 0 841)" d="M390.166 139.328L452.325 139.328" stroke="#000000" stroke-width="0.398" fill="none" /><path id="1529" transform="matrix(1 0 0 -1 0 841)" d="M390.366 120.388L390.366 139.329" stroke="#000000" stroke-width="0.398" fill="none" /><path id="1530" transform="matrix(1 0 0 -1 0 841)" d="M452.126 120.388L452.126 139.329" stroke="#000000" stroke-width="0.398" fill="none" /><path id="1531" transform="matrix(1 0 0 -1 0 841)" d="M390.166 120.388L452.325 120.388" stroke="#000000" stroke-width="0.398" fill="none" /></g></g></svg>