<svg xmlns="http://www.w3.org/2000/svg" xmlns:xlink="http://www.w3.org/1999/xlink" id="body_338" preserveAspectRatio="xMinYMin meet" viewBox="0 0 793 1121"><defs><clipPath id="1"><path id="" clip-rule="evenodd" transform="matrix(1 0 0 1 0 0)" d="M0 841L0 -0.8900146L0 -0.8900146L595.276 -0.8900146L595.276 -0.8900146L595.276 841L595.276 841L0 841z" /></clipPath></defs><g transform="matrix(1.333333 0 0 1.333333 0 0)"><g clip-path="url(#1)"><path id="34" transform="matrix(1 0 0 -1 0 841)" d="M85.039 766.564L510.236 766.564" stroke="#000000" stroke-width="0.498" fill="none" /><path id="59" transform="matrix(1 0 0 -1 0 841)" d="M224.467 730.724L257.979 730.724" stroke="#000000" stroke-width="0.436" fill="none" /><path id="94" transform="matrix(1 0 0 -1 0 841)" d="M327.063 744.742L402.718 744.742" stroke="#000000" stroke-width="0.436" fill="none" /><path id="104" transform="matrix(1 0 0 -1 0 841)" d="M273.695 730.724L403.914 730.724" stroke="#000000" stroke-width="0.436" fill="none" /><path id="119" transform="matrix(1 0 0 -1 0 841)" d="M308.565 716.471L341.804 716.471" stroke="#000000" stroke-width="0.436" fill="none" /><path id="133" transform="matrix(1 0 0 -1 0 841)" d="M352.68 716.471L385.407 716.471" stroke="#000000" stroke-width="0.436" fill="none" /><path id="144" transform="matrix(1 0 0 -1 0 841)" d="M418.433 738.695L466.564 738.695" stroke="#000000" stroke-width="0.398" fill="none" /><path id="145" transform="matrix(1 0 0 -1 0 841)" d="M418.633 724.689L418.633 738.696" stroke="#000000" stroke-width="0.398" fill="none" /><path id="146" transform="matrix(1 0 0 -1 0 841)" d="M466.365 724.689L466.365 738.696" stroke="#000000" stroke-width="0.398" fill="none" /><path id="147" transform="matrix(1 0 0 -1 0 841)" d="M418.433 724.689L466.564 724.689" stroke="#000000" stroke-width="0.398" fill="none" /><path id="265" transform="matrix(1 0 0 -1 0 841)" d="M113.508 647.213L179.322 647.213" stroke="#000000" stroke-width="0.436" fill="none" /><path id="278" transform="matrix(1 0 0 -1 0 841)" d="M190.197 647.213L217.47 647.213" stroke="#000000" stroke-width="0.436" fill="none" /><path id="290" transform="matrix(1 0 0 -1 0 841)" d="M228.346 647.213L254.659 647.213" stroke="#000000" stroke-width="0.436" fill="none" /><path id="307" transform="matrix(1 0 0 -1 0 841)" d="M273.761 647.213L338.507 647.213" stroke="#000000" stroke-width="0.436" fill="none" /><path id="311" transform="matrix(1 0 0 -1 0 841)" d="M269.178 662.57L343.089 662.57" stroke="#000000" stroke-width="0.398" fill="none" /><path id="312" transform="matrix(1 0 0 -1 0 841)" d="M269.377 631.589L269.377 662.57" stroke="#000000" stroke-width="0.398" fill="none" /><path id="313" transform="matrix(1 0 0 -1 0 841)" d="M342.89 631.589L342.89 662.57" stroke="#000000" stroke-width="0.398" fill="none" /><path id="314" transform="matrix(1 0 0 -1 0 841)" d="M269.178 631.589L343.089 631.589" stroke="#000000" stroke-width="0.398" fill="none" /><path id="424" transform="matrix(1 0 0 -1 0 841)" d="M113.508 572.973L179.322 572.973" stroke="#000000" stroke-width="0.436" fill="none" /><path id="441" transform="matrix(1 0 0 -1 0 841)" d="M190.197 572.973L222.924 572.973" stroke="#000000" stroke-width="0.436" fill="none" /><path id="459" transform="matrix(1 0 0 -1 0 841)" d="M255.618 572.973L271.981 572.973" stroke="#000000" stroke-width="0.436" fill="none" /><path id="479" transform="matrix(1 0 0 -1 0 841)" d="M291.085 572.973L377.496 572.973" stroke="#000000" stroke-width="0.436" fill="none" /><path id="483" transform="matrix(1 0 0 -1 0 841)" d="M286.502 588.33L382.079 588.33" stroke="#000000" stroke-width="0.398" fill="none" /><path id="484" transform="matrix(1 0 0 -1 0 841)" d="M286.701 557.349L286.701 588.33" stroke="#000000" stroke-width="0.398" fill="none" /><path id="485" transform="matrix(1 0 0 -1 0 841)" d="M381.879 557.349L381.879 588.33" stroke="#000000" stroke-width="0.398" fill="none" /><path id="486" transform="matrix(1 0 0 -1 0 841)" d="M286.502 557.349L382.079 557.349" stroke="#000000" stroke-width="0.398" fill="none" /><path id="698" transform="matrix(1 0 0 -1 0 841)" d="M225.897 431.4466L112.5098 431.4466L112.5098 431.4466L112.5098 388.9264L112.5098 388.9264L225.897 388.9264z" stroke="#000000" stroke-width="0.3985" fill="#E3F5FD" fill-rule="nonzero" /><path id="699" transform="matrix(1 0 0 -1 0 841)" d="M225.897 431.4466L247.7237 453.2733L247.7237 453.2733L247.7237 410.7531L247.7237 410.7531L225.897 388.9264z" stroke="#000000" stroke-width="0.3985" fill="#FFFFFF" fill-rule="nonzero" /><path id="700" transform="matrix(1 0 0 -1 0 841)" d="M225.897 431.4466L247.7237 453.2733L247.7237 453.2733L247.7237 410.7531L247.7237 410.7531L225.897 388.9264z" stroke="#000000" stroke-width="0.3985" fill="#E3F5FD" fill-rule="nonzero" /><path id="701" transform="matrix(1 0 0 -1 0 841)" d="M112.5098 445.62L134.3365 467.4467L134.3365 467.4467L134.3365 453.2733L134.3365 453.2733L112.5098 431.4466z" stroke="#000000" stroke-width="0.3985" fill="none" /><path id="702" transform="matrix(1 0 0 -1 0 841)" d="M225.897 431.4466L112.5098 431.4466L112.5098 431.4466L134.3365 453.2733L134.3365 453.2733L247.7237 453.2733z" stroke="#000000" stroke-width="0.3985" fill="none" /><path id="703" transform="matrix(1 0 0 -1 0 841)" d="M225.897 445.62L112.5098 445.62L112.5098 445.62L112.5098 431.4466L112.5098 431.4466L225.897 431.4466z" stroke="#000000" stroke-width="0.3985" fill="#FFFFFF" fill-rule="nonzero" /><path id="704" transform="matrix(1 0 0 -1 0 841)" d="M225.897 445.62L247.7237 467.4467L247.7237 467.4467L247.7237 453.2733L247.7237 453.2733L225.897 431.4466z" stroke="#000000" stroke-width="0.3985" fill="#FFFFFF" fill-rule="nonzero" /><path id="705" transform="matrix(1 0 0 -1 0 841)" d="M225.897 445.62L247.7237 467.4467L247.7237 467.4467L247.7237 453.2733L247.7237 453.2733L225.897 431.4466z" stroke="#000000" stroke-width="0.3985" fill="#FFFFFF" fill-rule="nonzero" /><path id="706" transform="matrix(1 0 0 -1 0 841)" d="M225.897 445.62L112.5098 445.62L112.5098 445.62L134.3365 467.4467L134.3365 467.4467L247.7237 467.4467z" stroke="#000000" stroke-width="0.3985" fill="#FFFFFF" fill-rule="nonzero" /><path id="707" transform="matrix(1 0 0 -1 0 841)" d="M112.9083 380.4222L225.4985 380.4222" stroke="#000000" stroke-width="0.3985" fill="none" /><path id="708" transform="matrix(1 0 0 -1 0 841)" d="M114.7813 378.0312C 114.4027 379.4659 113.559 380.1433 112.709 380.4222C 113.559 380.7012 114.4027 381.3786 114.7813 382.8133" stroke="#000000" stroke-width="0.3985" stroke-linecap="round" fill="none" /><path id="709" transform="matrix(1 0 0 -1 0 841)" d="M223.6255 382.8133C 224.0041 381.3786 224.8477 380.7012 225.6977 380.4222C 224.8477 380.1433 224.0041 379.4659 223.6255 378.0312" stroke="#000000" stroke-width="0.3985" stroke-linecap="round" fill="none" /><path id="717" transform="matrix(1 0 0 -1 0 841)" d="M254.2438 409.1676L254.2438 450.8908" stroke="#000000" stroke-width="0.3985" fill="none" /><path id="718" transform="matrix(1 0 0 -1 0 841)" d="M256.6348 411.0406C 255.2002 410.662 254.5227 409.8183 254.2438 408.9683C 253.9648 409.8183 253.2874 410.662 251.8528 411.0406" stroke="#000000" stroke-width="0.3985" stroke-linecap="round" fill="none" /><path id="719" transform="matrix(1 0 0 -1 0 841)" d="M251.8528 449.0178C 253.2874 449.3963 253.9648 450.24 254.2438 451.09C 254.5227 450.24 255.2002 449.3963 256.6348 449.0178" stroke="#000000" stroke-width="0.3985" stroke-linecap="round" fill="none" /><path id="742" transform="matrix(1 0 0 -1 0 841)" d="M237.2355 400.0968L237.2355 414.0399" stroke="#000000" stroke-width="0.3985" fill="none" /><path id="743" transform="matrix(1 0 0 -1 0 841)" d="M239.6266 401.9698C 238.1919 401.5912 237.5145 400.7475 237.2355 399.8976C 236.9566 400.7475 236.2792 401.5912 234.8445 401.9698" stroke="#000000" stroke-width="0.3985" stroke-linecap="round" fill="none" /><path id="744" transform="matrix(1 0 0 -1 0 841)" d="M234.8445 412.1668C 236.2792 412.5454 236.9566 413.3891 237.2355 414.2391C 237.5145 413.3891 238.1919 412.5454 239.6266 412.1668" stroke="#000000" stroke-width="0.3985" stroke-linecap="round" fill="none" /><path id="764" transform="matrix(1 0 0 -1 0 841)" d="M254.2438 467.899L254.2438 451.6877" stroke="#000000" stroke-width="0.3985" fill="none" /><path id="765" transform="matrix(1 0 0 -1 0 841)" d="M251.8528 466.026C 253.2874 466.4046 253.9648 467.2483 254.2438 468.0982C 254.5227 467.2483 255.2002 466.4046 256.6348 466.026" stroke="#000000" stroke-width="0.3985" stroke-linecap="round" fill="none" /><path id="766" transform="matrix(1 0 0 -1 0 841)" d="M256.6348 453.5607C 255.2002 453.1822 254.5227 452.3385 254.2438 451.4885C 253.9648 452.3385 253.2874 453.1822 251.8528 453.5607" stroke="#000000" stroke-width="0.3985" stroke-linecap="round" fill="none" /><path id="778" transform="matrix(1 0 0 -1 0 841)" d="M253.962 408.4873L226.1788 380.704" stroke="#000000" stroke-width="0.3985" fill="none" /><path id="779" transform="matrix(1 0 0 -1 0 841)" d="M250.9469 408.8536C 252.2291 408.1069 253.3046 408.2244 254.1029 408.6282C 253.6991 407.8299 253.5816 406.7543 254.3283 405.4722" stroke="#000000" stroke-width="0.3984962" stroke-linecap="round" fill="none" /><path id="780" transform="matrix(1 0 0 -1 0 841)" d="M229.1939 380.3377C 227.9117 381.0845 226.8362 380.9669 226.0379 380.5631C 226.4417 381.3614 226.5592 382.437 225.8125 383.7191" stroke="#000000" stroke-width="0.3984962" stroke-linecap="round" fill="none" /><path id="854" transform="matrix(1 0 0 -1 0 841)" d="M207.711 320.546L222.209 320.546" stroke="#000000" stroke-width="0.436" fill="none" /><path id="860" transform="matrix(1 0 0 -1 0 841)" d="M138.347 303.592L223.404 303.592" stroke="#000000" stroke-width="0.436" fill="none" /><path id="869" transform="matrix(1 0 0 -1 0 841)" d="M180.876 288.581L197.239 288.581" stroke="#000000" stroke-width="0.436" fill="none" /><path id="879" transform="matrix(1 0 0 -1 0 841)" d="M237.925 311.35L271.972 311.35" stroke="#000000" stroke-width="0.398" fill="none" /><path id="880" transform="matrix(1 0 0 -1 0 841)" d="M238.124 297.556L238.124 311.35" stroke="#000000" stroke-width="0.398" fill="none" /><path id="881" transform="matrix(1 0 0 -1 0 841)" d="M271.773 297.556L271.773 311.35" stroke="#000000" stroke-width="0.398" fill="none" /><path id="882" transform="matrix(1 0 0 -1 0 841)" d="M237.925 297.556L271.972 297.556" stroke="#000000" stroke-width="0.398" fill="none" /><path id="1171" transform="matrix(1 0 0 -1 0 841)" d="M267.172 89.94L280.142 89.94" stroke="#000000" stroke-width="0.436" fill="none" /><path id="1194" transform="matrix(1 0 0 -1 0 841)" d="M365.172 89.94L399.721 89.94" stroke="#000000" stroke-width="0.436" fill="none" /><path id="1211" transform="matrix(1 0 0 -1 0 841)" d="M414.241 97.699L464.041 97.699" stroke="#000000" stroke-width="0.398" fill="none" /><path id="1212" transform="matrix(1 0 0 -1 0 841)" d="M414.44 83.785L414.44 97.69901" stroke="#000000" stroke-width="0.398" fill="none" /><path id="1213" transform="matrix(1 0 0 -1 0 841)" d="M463.841 83.785L463.841 97.69901" stroke="#000000" stroke-width="0.398" fill="none" /><path id="1214" transform="matrix(1 0 0 -1 0 841)" d="M414.241 83.785L464.041 83.785" stroke="#000000" stroke-width="0.398" fill="none" /></g></g></svg>