<svg xmlns="http://www.w3.org/2000/svg" xmlns:xlink="http://www.w3.org/1999/xlink" id="body_21" preserveAspectRatio="xMinYMin meet" viewBox="0 0 793 1121"><defs><clipPath id="1"><path id="" clip-rule="evenodd" transform="matrix(1 0 0 1 0 0)" d="M0 841L0 -0.8900146L0 -0.8900146L595.276 -0.8900146L595.276 -0.8900146L595.276 841L595.276 841L0 841z" /></clipPath></defs><g transform="matrix(1.333333 0 0 1.333333 0 0)"><g clip-path="url(#1)"><path id="30" transform="matrix(1 0 0 -1 0 841)" d="M85.039 766.564L510.236 766.564" stroke="#000000" stroke-width="0.498" fill="none" /><path id="154" transform="matrix(1 0 0 -1 0 841)" d="M233.196 694.052L362.079 694.052" stroke="#000000" stroke-width="0.398" fill="none" /><path id="155" transform="matrix(1 0 0 -1 0 841)" d="M233.396 680.303L233.396 693.852" stroke="#000000" stroke-width="0.398" fill="none" /><path id="161" transform="matrix(1 0 0 -1 0 841)" d="M269.389 680.303L269.389 693.852" stroke="#000000" stroke-width="0.398" fill="none" /><path id="178" transform="matrix(1 0 0 -1 0 841)" d="M361.88 680.303L361.88 693.852" stroke="#000000" stroke-width="0.398" fill="none" /><path id="179" transform="matrix(1 0 0 -1 0 841)" d="M233.196 680.104L362.079 680.104" stroke="#000000" stroke-width="0.398" fill="none" /><path id="180" transform="matrix(1 0 0 -1 0 841)" d="M233.396 666.355L233.396 679.904" stroke="#000000" stroke-width="0.398" fill="none" /><path id="183" transform="matrix(1 0 0 -1 0 841)" d="M269.389 666.355L269.389 679.904" stroke="#000000" stroke-width="0.398" fill="none" /><path id="190" transform="matrix(1 0 0 -1 0 841)" d="M361.88 666.355L361.88 679.904" stroke="#000000" stroke-width="0.398" fill="none" /><path id="191" transform="matrix(1 0 0 -1 0 841)" d="M233.196 666.156L362.079 666.156" stroke="#000000" stroke-width="0.398" fill="none" /><path id="192" transform="matrix(1 0 0 -1 0 841)" d="M233.396 652.408L233.396 665.957" stroke="#000000" stroke-width="0.398" fill="none" /><path id="195" transform="matrix(1 0 0 -1 0 841)" d="M269.389 652.408L269.389 665.957" stroke="#000000" stroke-width="0.398" fill="none" /><path id="208" transform="matrix(1 0 0 -1 0 841)" d="M361.88 652.408L361.88 665.957" stroke="#000000" stroke-width="0.398" fill="none" /><path id="209" transform="matrix(1 0 0 -1 0 841)" d="M233.196 652.209L362.079 652.209" stroke="#000000" stroke-width="0.398" fill="none" /><path id="210" transform="matrix(1 0 0 -1 0 841)" d="M233.396 638.46L233.396 652.009" stroke="#000000" stroke-width="0.398" fill="none" /><path id="213" transform="matrix(1 0 0 -1 0 841)" d="M269.389 638.46L269.389 652.009" stroke="#000000" stroke-width="0.398" fill="none" /><path id="227" transform="matrix(1 0 0 -1 0 841)" d="M361.88 638.46L361.88 652.009" stroke="#000000" stroke-width="0.398" fill="none" /><path id="228" transform="matrix(1 0 0 -1 0 841)" d="M233.196 638.261L362.079 638.261" stroke="#000000" stroke-width="0.398" fill="none" /><path id="229" transform="matrix(1 0 0 -1 0 841)" d="M233.396 624.512L233.396 638.061" stroke="#000000" stroke-width="0.398" fill="none" /><path id="232" transform="matrix(1 0 0 -1 0 841)" d="M269.389 624.512L269.389 638.061" stroke="#000000" stroke-width="0.398" fill="none" /><path id="248" transform="matrix(1 0 0 -1 0 841)" d="M361.88 624.512L361.88 638.061" stroke="#000000" stroke-width="0.398" fill="none" /><path id="249" transform="matrix(1 0 0 -1 0 841)" d="M233.196 624.313L362.079 624.313" stroke="#000000" stroke-width="0.398" fill="none" /><path id="250" transform="matrix(1 0 0 -1 0 841)" d="M233.396 610.565L233.396 624.114" stroke="#000000" stroke-width="0.398" fill="none" /><path id="253" transform="matrix(1 0 0 -1 0 841)" d="M269.389 610.565L269.389 624.114" stroke="#000000" stroke-width="0.398" fill="none" /><path id="263" transform="matrix(1 0 0 -1 0 841)" d="M361.88 610.565L361.88 624.114" stroke="#000000" stroke-width="0.398" fill="none" /><path id="264" transform="matrix(1 0 0 -1 0 841)" d="M233.196 610.365L362.079 610.365" stroke="#000000" stroke-width="0.398" fill="none" /><path id="943" transform="matrix(1 0 0 -1 0 841)" d="M100.488 380.856L494.787 380.856" stroke="#000000" stroke-width="0.398" fill="none" /><path id="944" transform="matrix(1 0 0 -1 0 841)" d="M100.687 353.558L100.687 380.656" stroke="#000000" stroke-width="0.398" fill="none" /><path id="976" transform="matrix(1 0 0 -1 0 841)" d="M217.81 353.558L217.81 380.656" stroke="#000000" stroke-width="0.398" fill="none" /><path id="1011" transform="matrix(1 0 0 -1 0 841)" d="M362.106 353.558L362.106 380.656" stroke="#000000" stroke-width="0.398" fill="none" /><path id="1046" transform="matrix(1 0 0 -1 0 841)" d="M494.588 353.558L494.588 380.656" stroke="#000000" stroke-width="0.398" fill="none" /><path id="1047" transform="matrix(1 0 0 -1 0 841)" d="M100.488 353.359L494.787 353.359" stroke="#000000" stroke-width="0.398" fill="none" /><path id="1048" transform="matrix(1 0 0 -1 0 841)" d="M100.687 339.61L100.687 353.159" stroke="#000000" stroke-width="0.398" fill="none" /><path id="1051" transform="matrix(1 0 0 -1 0 841)" d="M217.81 339.61L217.81 353.159" stroke="#000000" stroke-width="0.398" fill="none" /><path id="1054" transform="matrix(1 0 0 -1 0 841)" d="M362.106 339.61L362.106 353.159" stroke="#000000" stroke-width="0.398" fill="none" /><path id="1057" transform="matrix(1 0 0 -1 0 841)" d="M494.588 339.61L494.588 353.159" stroke="#000000" stroke-width="0.398" fill="none" /><path id="1058" transform="matrix(1 0 0 -1 0 841)" d="M100.488 339.411L494.787 339.411" stroke="#000000" stroke-width="0.398" fill="none" /><path id="1059" transform="matrix(1 0 0 -1 0 841)" d="M100.687 325.663L100.687 339.212" stroke="#000000" stroke-width="0.398" fill="none" /><path id="1062" transform="matrix(1 0 0 -1 0 841)" d="M217.81 325.663L217.81 339.212" stroke="#000000" stroke-width="0.398" fill="none" /><path id="1065" transform="matrix(1 0 0 -1 0 841)" d="M362.106 325.663L362.106 339.212" stroke="#000000" stroke-width="0.398" fill="none" /><path id="1068" transform="matrix(1 0 0 -1 0 841)" d="M494.588 325.663L494.588 339.212" stroke="#000000" stroke-width="0.398" fill="none" /><path id="1069" transform="matrix(1 0 0 -1 0 841)" d="M100.488 325.463L494.787 325.463" stroke="#000000" stroke-width="0.398" fill="none" /><path id="1070" transform="matrix(1 0 0 -1 0 841)" d="M100.687 311.715L100.687 325.264" stroke="#000000" stroke-width="0.398" fill="none" /><path id="1073" transform="matrix(1 0 0 -1 0 841)" d="M217.81 311.715L217.81 325.264" stroke="#000000" stroke-width="0.398" fill="none" /><path id="1076" transform="matrix(1 0 0 -1 0 841)" d="M362.106 311.715L362.106 325.264" stroke="#000000" stroke-width="0.398" fill="none" /><path id="1079" transform="matrix(1 0 0 -1 0 841)" d="M494.588 311.715L494.588 325.264" stroke="#000000" stroke-width="0.398" fill="none" /><path id="1080" transform="matrix(1 0 0 -1 0 841)" d="M100.488 311.516L494.787 311.516" stroke="#000000" stroke-width="0.398" fill="none" /><path id="1081" transform="matrix(1 0 0 -1 0 841)" d="M100.687 297.767L100.687 311.316" stroke="#000000" stroke-width="0.398" fill="none" /><path id="1084" transform="matrix(1 0 0 -1 0 841)" d="M217.81 297.767L217.81 311.316" stroke="#000000" stroke-width="0.398" fill="none" /><path id="1087" transform="matrix(1 0 0 -1 0 841)" d="M362.106 297.767L362.106 311.316" stroke="#000000" stroke-width="0.398" fill="none" /><path id="1090" transform="matrix(1 0 0 -1 0 841)" d="M494.588 297.767L494.588 311.316" stroke="#000000" stroke-width="0.398" fill="none" /><path id="1091" transform="matrix(1 0 0 -1 0 841)" d="M100.488 297.568L494.787 297.568" stroke="#000000" stroke-width="0.398" fill="none" /><path id="1092" transform="matrix(1 0 0 -1 0 841)" d="M100.687 283.82L100.687 297.369" stroke="#000000" stroke-width="0.398" fill="none" /><path id="1095" transform="matrix(1 0 0 -1 0 841)" d="M217.81 283.82L217.81 297.369" stroke="#000000" stroke-width="0.398" fill="none" /><path id="1098" transform="matrix(1 0 0 -1 0 841)" d="M362.106 283.82L362.106 297.369" stroke="#000000" stroke-width="0.398" fill="none" /><path id="1101" transform="matrix(1 0 0 -1 0 841)" d="M494.588 283.82L494.588 297.369" stroke="#000000" stroke-width="0.398" fill="none" /><path id="1102" transform="matrix(1 0 0 -1 0 841)" d="M100.488 283.62L494.787 283.62" stroke="#000000" stroke-width="0.398" fill="none" /></g></g></svg>