<svg xmlns="http://www.w3.org/2000/svg" xmlns:xlink="http://www.w3.org/1999/xlink" id="body_224" preserveAspectRatio="xMinYMin meet" viewBox="0 0 793 1121"><defs><clipPath id="1"><path id="" clip-rule="evenodd" transform="matrix(1 0 0 1 0 0)" d="M0 841L0 -0.8900146L0 -0.8900146L595.276 -0.8900146L595.276 -0.8900146L595.276 841L595.276 841L0 841z" /></clipPath></defs><g transform="matrix(1.333333 0 0 1.333333 0 0)"><g clip-path="url(#1)"><path id="30" transform="matrix(1 0 0 -1 0 841)" d="M85.039 766.564L510.236 766.564" stroke="#000000" stroke-width="0.498" fill="none" /><path id="31" transform="matrix(1 0 0 -1 0 841)" d="M85.039 705.282L527.857 705.282" stroke="#000000" stroke-width="0.398" fill="none" /><path id="61" transform="matrix(1 0 0 -1 0 841)" d="M85.039 691.334L527.857 691.334" stroke="#000000" stroke-width="0.398" fill="none" /><path id="62" transform="matrix(1 0 0 -1 0 841)" d="M85.239 537.381L85.239 691.135" stroke="#000000" stroke-width="0.398" fill="none" /><g transform="matrix(0.08 0 0 0.07999999 91.415 153.698)"><g transform="matrix(1 0 0 1 0 0)"><image x="0" y="0" xlink:href="img_337.png" width="1280" height="948" /></g></g><g transform="matrix(0.35 0 0 0.35 91.415 230.535)"><g transform="matrix(1 0 0 1 0 0)"><image x="0" y="0" xlink:href="img_338.png" width="311" height="162" /></g></g><path id="373" transform="matrix(1 0 0 -1 0 841)" d="M527.658 537.3809L527.658 691.1349" stroke="#000000" stroke-width="0.398" fill="none" /><path id="374" transform="matrix(1 0 0 -1 0 841)" d="M85.039 537.1819L527.857 537.1819" stroke="#000000" stroke-width="0.398" fill="none" /><path id="388" transform="matrix(1 0 0 -1 0 841)" d="M85.039 523.2339L527.857 523.2339" stroke="#000000" stroke-width="0.398" fill="none" /><path id="389" transform="matrix(1 0 0 -1 0 841)" d="M85.239 448.8729L85.239 523.0349" stroke="#000000" stroke-width="0.398" fill="none" /><g transform="matrix(0.15 0 0 0.15 91.415 329.6031)"><g transform="matrix(1 0 0 1 0 0)"><image x="0" y="0" xlink:href="img_339.png" width="591" height="339" /></g></g><path id="573" transform="matrix(1 0 0 -1 0 841)" d="M527.658 448.8729L527.658 523.0349" stroke="#000000" stroke-width="0.398" fill="none" /><path id="574" transform="matrix(1 0 0 -1 0 841)" d="M85.039 448.674L527.857 448.674" stroke="#000000" stroke-width="0.398" fill="none" /><path id="588" transform="matrix(1 0 0 -1 0 841)" d="M85.039 434.726L527.857 434.726" stroke="#000000" stroke-width="0.398" fill="none" /><path id="589" transform="matrix(1 0 0 -1 0 841)" d="M85.239 343.9809L85.239 434.5259" stroke="#000000" stroke-width="0.398" fill="none" /><g transform="matrix(0.16 0 0 0.16 91.415 422.929)"><g transform="matrix(1 0 0 1 0 0)"><image x="0" y="0" xlink:href="img_340.png" width="480" height="360" /></g></g><path id="806" transform="matrix(1 0 0 -1 0 841)" d="M527.658 343.9809L527.658 434.5259" stroke="#000000" stroke-width="0.398" fill="none" /><path id="807" transform="matrix(1 0 0 -1 0 841)" d="M85.039 343.782L527.857 343.782" stroke="#000000" stroke-width="0.398" fill="none" /><path id="823" transform="matrix(1 0 0 -1 0 841)" d="M85.039 329.834L527.857 329.834" stroke="#000000" stroke-width="0.398" fill="none" /><path id="824" transform="matrix(1 0 0 -1 0 841)" d="M85.239 254.8549L85.239 329.6359" stroke="#000000" stroke-width="0.398" fill="none" /><g transform="matrix(0.13 0 0 0.13 122.489 517.0361)"><g transform="matrix(1 0 0 1 0 0)"><image x="0" y="0" xlink:href="img_341.png" width="390" height="488" /></g></g><path id="905" transform="matrix(1 0 0 -1 0 841)" d="M527.658 254.8549L527.658 329.6359" stroke="#000000" stroke-width="0.398" fill="none" /><path id="906" transform="matrix(1 0 0 -1 0 841)" d="M85.039 254.6549L527.857 254.6549" stroke="#000000" stroke-width="0.398" fill="none" /><path id="924" transform="matrix(1 0 0 -1 0 841)" d="M85.039 240.7079L527.857 240.7079" stroke="#000000" stroke-width="0.398" fill="none" /><path id="925" transform="matrix(1 0 0 -1 0 841)" d="M85.239 152.1729L85.239 240.5079" stroke="#000000" stroke-width="0.398" fill="none" /><g transform="matrix(0.35 0 0 0.35 91.415 606.3171)"><g transform="matrix(1 0 0 1 0 0)"><image x="0" y="0" xlink:href="img_342.png" width="230" height="219" /></g></g><path id="1119" transform="matrix(1 0 0 -1 0 841)" d="M527.658 152.1729L527.658 240.5079" stroke="#000000" stroke-width="0.398" fill="none" /><path id="1120" transform="matrix(1 0 0 -1 0 841)" d="M85.039 151.9739L527.857 151.9739" stroke="#000000" stroke-width="0.398" fill="none" /></g></g></svg>