<svg xmlns="http://www.w3.org/2000/svg" xmlns:xlink="http://www.w3.org/1999/xlink" id="body_184" preserveAspectRatio="xMinYMin meet" viewBox="0 0 793 1121"><defs><clipPath id="1"><path id="" clip-rule="evenodd" transform="matrix(1 0 0 1 0 0)" d="M0 841L0 -0.8900146L0 -0.8900146L595.276 -0.8900146L595.276 -0.8900146L595.276 841L595.276 841L0 841z" /></clipPath></defs><g transform="matrix(1.333333 0 0 1.333333 0 0)"><g clip-path="url(#1)"><path id="31" transform="matrix(1 0 0 -1 0 841)" d="M85.039 766.564L510.236 766.564" stroke="#000000" stroke-width="0.498" fill="none" /><g transform="matrix(0.13 0 0 0.13 215.735 211.457)"><g transform="matrix(1 0 0 1 0 0)"><image x="0" y="0" xlink:href="img_264.png" width="1260" height="271" /></g></g><g transform="matrix(0.1875 0 0 0.1875 91.017 597.358)"><g transform="matrix(1 0 0 1 0 0)"><image x="0" y="0" xlink:href="img_265.png" width="861" height="594" /></g></g><g transform="matrix(0.05 0 0 0.05 253.867 597.501)"><g transform="matrix(1 0 0 1 0 0)"><image x="0" y="0" xlink:href="img_266.png" width="2468" height="2202" /></g></g><g transform="matrix(0.12 0 0 0.12 402.421 609.106)"><g transform="matrix(1 0 0 1 0 0)"><image x="0" y="0" xlink:href="img_267.png" width="1114" height="724" /></g></g></g></g></svg>