<svg xmlns="http://www.w3.org/2000/svg" xmlns:xlink="http://www.w3.org/1999/xlink" id="body_156" preserveAspectRatio="xMinYMin meet" viewBox="0 0 793 1121"><defs><clipPath id="1"><path id="" clip-rule="evenodd" transform="matrix(1 0 0 1 0 0)" d="M0 841L0 -0.8900146L0 -0.8900146L595.276 -0.8900146L595.276 -0.8900146L595.276 841L595.276 841L0 841z" /></clipPath></defs><g transform="matrix(1.333333 0 0 1.333333 0 0)"><g clip-path="url(#1)"><path id="25" transform="matrix(1 0 0 -1 0 841)" d="M85.039 766.564L510.236 766.564" stroke="#000000" stroke-width="0.498" fill="none" /><path id="1986" transform="matrix(1 0 0 -1 0 841)" d="M234.261 166.624L265.7 166.624L265.7 179.812L234.261 179.812z" stroke="none" fill="#FFBFBF" fill-rule="nonzero" /><path id="2237" transform="matrix(1 0 0 -1 0 841)" d="M248.789 98.878L283.25 98.878L283.25 112.066L248.789 112.066z" stroke="none" fill="#FFBFBF" fill-rule="nonzero" /><path id="2262" transform="matrix(1 0 0 -1 0 841)" d="M385.612 98.878L419.462 98.878L419.462 112.361L385.612 112.361z" stroke="none" fill="#FFBFBF" fill-rule="nonzero" /></g></g></svg>