<svg xmlns="http://www.w3.org/2000/svg" xmlns:xlink="http://www.w3.org/1999/xlink" id="body_342" preserveAspectRatio="xMinYMin meet" viewBox="0 0 793 1121"><defs><clipPath id="1"><path id="" clip-rule="evenodd" transform="matrix(1 0 0 1 0 0)" d="M0 841L0 -0.8900146L0 -0.8900146L595.276 -0.8900146L595.276 -0.8900146L595.276 841L595.276 841L0 841z" /></clipPath></defs><g transform="matrix(1.333333 0 0 1.333333 0 0)"><g clip-path="url(#1)"><path id="34" transform="matrix(1 0 0 -1 0 841)" d="M85.039 766.564L510.236 766.564" stroke="#000000" stroke-width="0.498" fill="none" /><path id="152" transform="matrix(1 0 0 -1 0 841)" d="M113.508 683.421L179.322 683.421" stroke="#000000" stroke-width="0.436" fill="none" /><path id="165" transform="matrix(1 0 0 -1 0 841)" d="M190.197 683.421L217.47 683.421" stroke="#000000" stroke-width="0.436" fill="none" /><path id="177" transform="matrix(1 0 0 -1 0 841)" d="M228.346 683.421L254.659 683.421" stroke="#000000" stroke-width="0.436" fill="none" /><path id="194" transform="matrix(1 0 0 -1 0 841)" d="M285.697 683.421L350.443 683.421" stroke="#000000" stroke-width="0.436" fill="none" /><path id="198" transform="matrix(1 0 0 -1 0 841)" d="M269.178 706.928L366.962 706.928L366.962 710.913L269.178 710.913z" stroke="none" fill="#000000" fill-rule="nonzero" /><path id="199" transform="matrix(1 0 0 -1 0 841)" d="M269.178 657.653L273.163 657.653L273.163 708.92L269.178 708.92z" stroke="none" fill="#000000" fill-rule="nonzero" /><path id="200" transform="matrix(1 0 0 -1 0 841)" d="M362.977 657.653L366.962 657.653L366.962 708.92L362.977 708.92z" stroke="none" fill="#000000" fill-rule="nonzero" /><path id="201" transform="matrix(1 0 0 -1 0 841)" d="M269.178 655.661L366.962 655.661L366.962 659.646L269.178 659.646z" stroke="none" fill="#000000" fill-rule="nonzero" /><path id="311" transform="matrix(1 0 0 -1 0 841)" d="M113.508 585.308L179.322 585.308" stroke="#000000" stroke-width="0.436" fill="none" /><path id="328" transform="matrix(1 0 0 -1 0 841)" d="M190.197 585.308L222.924 585.308" stroke="#000000" stroke-width="0.436" fill="none" /><path id="346" transform="matrix(1 0 0 -1 0 841)" d="M255.618 585.308L271.981 585.308" stroke="#000000" stroke-width="0.436" fill="none" /><path id="366" transform="matrix(1 0 0 -1 0 841)" d="M303.021 585.308L389.432 585.308" stroke="#000000" stroke-width="0.436" fill="none" /><path id="370" transform="matrix(1 0 0 -1 0 841)" d="M286.502 608.816L405.951 608.816L405.951 612.801L286.502 612.801z" stroke="none" fill="#000000" fill-rule="nonzero" /><path id="371" transform="matrix(1 0 0 -1 0 841)" d="M286.502 559.541L290.487 559.541L290.487 610.808L286.502 610.808z" stroke="none" fill="#000000" fill-rule="nonzero" /><path id="372" transform="matrix(1 0 0 -1 0 841)" d="M401.966 559.541L405.951 559.541L405.951 610.808L401.966 610.808z" stroke="none" fill="#000000" fill-rule="nonzero" /><path id="373" transform="matrix(1 0 0 -1 0 841)" d="M286.502 557.548L405.951 557.548L405.951 561.533L286.502 561.533z" stroke="none" fill="#000000" fill-rule="nonzero" /><path id="585" transform="matrix(1 0 0 -1 0 841)" d="M225.897 431.8446L112.5098 431.8446L112.5098 431.8446L112.5098 389.3244L112.5098 389.3244L225.897 389.3244z" stroke="#000000" stroke-width="0.3985" fill="#E3F5FD" fill-rule="nonzero" /><path id="586" transform="matrix(1 0 0 -1 0 841)" d="M225.897 431.8446L247.7237 453.6713L247.7237 453.6713L247.7237 411.1511L247.7237 411.1511L225.897 389.3244z" stroke="#000000" stroke-width="0.3985" fill="#FFFFFF" fill-rule="nonzero" /><path id="587" transform="matrix(1 0 0 -1 0 841)" d="M225.897 431.8446L247.7237 453.6713L247.7237 453.6713L247.7237 411.1511L247.7237 411.1511L225.897 389.3244z" stroke="#000000" stroke-width="0.3985" fill="#E3F5FD" fill-rule="nonzero" /><path id="588" transform="matrix(1 0 0 -1 0 841)" d="M112.5098 446.018L134.3365 467.8447L134.3365 467.8447L134.3365 453.6713L134.3365 453.6713L112.5098 431.8446z" stroke="#000000" stroke-width="0.3985" fill="none" /><path id="589" transform="matrix(1 0 0 -1 0 841)" d="M225.897 431.8446L112.5098 431.8446L112.5098 431.8446L134.3365 453.6713L134.3365 453.6713L247.7237 453.6713z" stroke="#000000" stroke-width="0.3985" fill="none" /><path id="590" transform="matrix(1 0 0 -1 0 841)" d="M225.897 446.018L112.5098 446.018L112.5098 446.018L112.5098 431.8446L112.5098 431.8446L225.897 431.8446z" stroke="#000000" stroke-width="0.3985" fill="#FFFFFF" fill-rule="nonzero" /><path id="591" transform="matrix(1 0 0 -1 0 841)" d="M225.897 446.018L247.7237 467.8447L247.7237 467.8447L247.7237 453.6713L247.7237 453.6713L225.897 431.8446z" stroke="#000000" stroke-width="0.3985" fill="#FFFFFF" fill-rule="nonzero" /><path id="592" transform="matrix(1 0 0 -1 0 841)" d="M225.897 446.018L247.7237 467.8447L247.7237 467.8447L247.7237 453.6713L247.7237 453.6713L225.897 431.8446z" stroke="#000000" stroke-width="0.3985" fill="#FFFFFF" fill-rule="nonzero" /><path id="593" transform="matrix(1 0 0 -1 0 841)" d="M225.897 446.018L112.5098 446.018L112.5098 446.018L134.3365 467.8447L134.3365 467.8447L247.7237 467.8447z" stroke="#000000" stroke-width="0.3985" fill="#FFFFFF" fill-rule="nonzero" /><path id="594" transform="matrix(1 0 0 -1 0 841)" d="M112.9083 380.8203L225.4985 380.8203" stroke="#000000" stroke-width="0.3985" fill="none" /><path id="595" transform="matrix(1 0 0 -1 0 841)" d="M114.7813 378.4292C 114.4027 379.8639 113.559 380.5413 112.709 380.8203C 113.559 381.0992 114.4027 381.7766 114.7813 383.2113" stroke="#000000" stroke-width="0.3985" stroke-linecap="round" fill="none" /><path id="596" transform="matrix(1 0 0 -1 0 841)" d="M223.6255 383.2113C 224.0041 381.7766 224.8477 381.0992 225.6977 380.8203C 224.8477 380.5413 224.0041 379.8639 223.6255 378.4292" stroke="#000000" stroke-width="0.3985" stroke-linecap="round" fill="none" /><path id="604" transform="matrix(1 0 0 -1 0 841)" d="M254.2438 409.5656L254.2438 451.2888" stroke="#000000" stroke-width="0.3985" fill="none" /><path id="605" transform="matrix(1 0 0 -1 0 841)" d="M256.6348 411.4386C 255.2002 411.06 254.5227 410.2163 254.2438 409.3663C 253.9648 410.2163 253.2874 411.06 251.8528 411.4386" stroke="#000000" stroke-width="0.3985" stroke-linecap="round" fill="none" /><path id="606" transform="matrix(1 0 0 -1 0 841)" d="M251.8528 449.4158C 253.2874 449.7943 253.9648 450.638 254.2438 451.488C 254.5227 450.638 255.2002 449.7943 256.6348 449.4158" stroke="#000000" stroke-width="0.3985" stroke-linecap="round" fill="none" /><path id="629" transform="matrix(1 0 0 -1 0 841)" d="M237.2355 400.4948L237.2355 414.4379" stroke="#000000" stroke-width="0.3985" fill="none" /><path id="630" transform="matrix(1 0 0 -1 0 841)" d="M239.6266 402.3678C 238.1919 401.9892 237.5145 401.1455 237.2355 400.2956C 236.9566 401.1455 236.2792 401.9892 234.8445 402.3678" stroke="#000000" stroke-width="0.3985" stroke-linecap="round" fill="none" /><path id="631" transform="matrix(1 0 0 -1 0 841)" d="M234.8445 412.5648C 236.2792 412.9434 236.9566 413.7871 237.2355 414.6371C 237.5145 413.7871 238.1919 412.9434 239.6266 412.5648" stroke="#000000" stroke-width="0.3985" stroke-linecap="round" fill="none" /><path id="651" transform="matrix(1 0 0 -1 0 841)" d="M254.2438 468.297L254.2438 452.0858" stroke="#000000" stroke-width="0.3985" fill="none" /><path id="652" transform="matrix(1 0 0 -1 0 841)" d="M251.8528 466.424C 253.2874 466.8026 253.9648 467.6463 254.2438 468.4962C 254.5227 467.6463 255.2002 466.8026 256.6348 466.424" stroke="#000000" stroke-width="0.3985" stroke-linecap="round" fill="none" /><path id="653" transform="matrix(1 0 0 -1 0 841)" d="M256.6348 453.9587C 255.2002 453.5802 254.5227 452.7365 254.2438 451.8865C 253.9648 452.7365 253.2874 453.5802 251.8528 453.9587" stroke="#000000" stroke-width="0.3985" stroke-linecap="round" fill="none" /><path id="665" transform="matrix(1 0 0 -1 0 841)" d="M253.962 408.8853L226.1788 381.1021" stroke="#000000" stroke-width="0.3985" fill="none" /><path id="666" transform="matrix(1 0 0 -1 0 841)" d="M250.9469 409.2516C 252.2291 408.5049 253.3046 408.6224 254.1029 409.0262C 253.6991 408.2279 253.5816 407.1523 254.3283 405.8702" stroke="#000000" stroke-width="0.3984962" stroke-linecap="round" fill="none" /><path id="667" transform="matrix(1 0 0 -1 0 841)" d="M229.1939 380.7357C 227.9117 381.4825 226.8362 381.3649 226.0379 380.9612C 226.4417 381.7594 226.5592 382.835 225.8125 384.1171" stroke="#000000" stroke-width="0.3984962" stroke-linecap="round" fill="none" /><path id="741" transform="matrix(1 0 0 -1 0 841)" d="M207.711 320.944L222.209 320.944" stroke="#000000" stroke-width="0.436" fill="none" /><path id="747" transform="matrix(1 0 0 -1 0 841)" d="M138.347 303.99L223.404 303.99" stroke="#000000" stroke-width="0.436" fill="none" /><path id="756" transform="matrix(1 0 0 -1 0 841)" d="M180.876 288.979L197.239 288.979" stroke="#000000" stroke-width="0.436" fill="none" /><path id="766" transform="matrix(1 0 0 -1 0 841)" d="M237.925 319.899L295.845 319.899L295.845 323.884L237.925 323.884z" stroke="none" fill="#000000" fill-rule="nonzero" /><path id="767" transform="matrix(1 0 0 -1 0 841)" d="M237.925 287.812L241.91 287.812L241.91 321.892L237.925 321.892z" stroke="none" fill="#000000" fill-rule="nonzero" /><path id="768" transform="matrix(1 0 0 -1 0 841)" d="M291.86 287.812L295.845 287.812L295.845 321.892L291.86 321.892z" stroke="none" fill="#000000" fill-rule="nonzero" /><path id="769" transform="matrix(1 0 0 -1 0 841)" d="M237.925 285.819L295.845 285.819L295.845 289.804L237.925 289.804z" stroke="none" fill="#000000" fill-rule="nonzero" /><path id="1058" transform="matrix(1 0 0 -1 0 841)" d="M267.172 97.851L280.142 97.851" stroke="#000000" stroke-width="0.436" fill="none" /><path id="1081" transform="matrix(1 0 0 -1 0 841)" d="M365.172 97.851L399.721 97.851" stroke="#000000" stroke-width="0.436" fill="none" /><path id="1098" transform="matrix(1 0 0 -1 0 841)" d="M414.241 113.76L487.913 113.76L487.913 117.745L414.241 117.745z" stroke="none" fill="#000000" fill-rule="nonzero" /><path id="1099" transform="matrix(1 0 0 -1 0 841)" d="M414.241 81.552L418.226 81.552L418.226 115.752L414.241 115.752z" stroke="none" fill="#000000" fill-rule="nonzero" /><path id="1100" transform="matrix(1 0 0 -1 0 841)" d="M483.928 81.552L487.913 81.552L487.913 115.752L483.928 115.752z" stroke="none" fill="#000000" fill-rule="nonzero" /><path id="1101" transform="matrix(1 0 0 -1 0 841)" d="M414.241 79.56L487.913 79.56L487.913 83.545L414.241 83.545z" stroke="none" fill="#000000" fill-rule="nonzero" /></g></g></svg>