<svg xmlns="http://www.w3.org/2000/svg" xmlns:xlink="http://www.w3.org/1999/xlink" id="body_350" preserveAspectRatio="xMinYMin meet" viewBox="0 0 793 1121"><defs><clipPath id="1"><path id="" clip-rule="evenodd" transform="matrix(1 0 0 1 0 0)" d="M0 841L0 -0.8900146L0 -0.8900146L595.276 -0.8900146L595.276 -0.8900146L595.276 841L595.276 841L0 841z" /></clipPath></defs><g transform="matrix(1.333333 0 0 1.333333 0 0)"><g clip-path="url(#1)"><path id="22" transform="matrix(1 0 0 -1 0 841)" d="M85.039 766.564L510.236 766.564" stroke="#000000" stroke-width="0.498" fill="none" /><g transform="matrix(0.06 0 0 0.06 112.312 141.426)"><g transform="matrix(1 0 0 1 0 0)"><image x="0" y="0" xlink:href="img_422.png" width="3009" height="713" /></g></g><g transform="matrix(0.06981818 0 0 0.06981815 112.312 190.8718)"><g transform="matrix(1 0 0 1 0 0)"><image x="0" y="0" xlink:href="img_493.png" width="1585" height="521" /></g></g><path id="157" transform="matrix(1 0 0 -1 0 841)" d="M113.508 593.874L145.024 593.874" stroke="#000000" stroke-width="0.436" fill="none" /><path id="179" transform="matrix(1 0 0 -1 0 841)" d="M159.544 601.633L267.511 601.633" stroke="#000000" stroke-width="0.398" fill="none" /><path id="180" transform="matrix(1 0 0 -1 0 841)" d="M159.743 585.597L159.743 601.633" stroke="#000000" stroke-width="0.398" fill="none" /><path id="181" transform="matrix(1 0 0 -1 0 841)" d="M267.312 585.597L267.312 601.633" stroke="#000000" stroke-width="0.398" fill="none" /><path id="182" transform="matrix(1 0 0 -1 0 841)" d="M159.544 585.597L267.511 585.597" stroke="#000000" stroke-width="0.398" fill="none" /><g transform="matrix(0.06 0 0 0.06 112.312 335.713)"><g transform="matrix(1 0 0 1 0 0)"><image x="0" y="0" xlink:href="img_422.png" width="3009" height="713" /></g></g><g transform="matrix(0.06981818 0 0 0.06981815 112.312 385.1588)"><g transform="matrix(1 0 0 1 0 0)"><image x="0" y="0" xlink:href="img_493.png" width="1585" height="521" /></g></g><path id="350" transform="matrix(1 0 0 -1 0 841)" d="M138.491 399.587L183.938 399.587" stroke="#000000" stroke-width="0.436" fill="none" /><path id="368" transform="matrix(1 0 0 -1 0 841)" d="M226.329 407.499L261.576 407.499" stroke="#000000" stroke-width="0.398" fill="none" /><path id="369" transform="matrix(1 0 0 -1 0 841)" d="M226.528 393.432L226.528 407.499" stroke="#000000" stroke-width="0.398" fill="none" /><path id="370" transform="matrix(1 0 0 -1 0 841)" d="M261.377 393.432L261.377 407.499" stroke="#000000" stroke-width="0.398" fill="none" /><path id="371" transform="matrix(1 0 0 -1 0 841)" d="M226.329 393.432L261.576 393.432" stroke="#000000" stroke-width="0.398" fill="none" /><path id="536" transform="matrix(1 0 0 -1 0 841)" d="M243.507 213.517C 299.6335 312.7308 300.7677 312.7308 356.8942 213.517" stroke="#000000" stroke-width="0.3985" fill="none" /><path id="537" transform="matrix(1 0 0 -1 0 841)" d="M279.9009 291.2017C 279.9009 290.0804 288.9893 289.1716 300.2006 289.1716C 311.4119 289.1716 320.5003 290.0804 320.5003 291.2017L320.5003 291.2017L320.5003 309.3018C 320.5003 308.1806 311.4119 307.2717 300.2006 307.2717C 288.9893 307.2717 279.9009 308.1806 279.9009 309.3018z" stroke="none" fill="#E6E6FF" fill-rule="nonzero" /><path id="538" transform="matrix(1 0 0 -1 0 841)" d="M279.9009 309.3018C 279.9009 310.423 288.9893 311.3319 300.2006 311.3319C 311.4119 311.3319 320.5003 310.423 320.5003 309.3018C 320.5003 308.1806 311.4119 307.2717 300.2006 307.2717C 288.9893 307.2717 279.9009 308.1806 279.9009 309.3018z" stroke="none" fill="#F6ADCE" fill-rule="nonzero" /><path id="539" transform="matrix(1 0 0 -1 0 841)" d="M279.9009 309.3018C 279.9009 308.1806 288.9893 307.2717 300.2006 307.2717C 311.4119 307.2717 320.5003 308.1806 320.5003 309.3018M279.9009 291.2017C 279.9009 290.0804 288.9893 289.1716 300.2006 289.1716C 311.4119 289.1716 320.5003 290.0804 320.5003 291.2017L320.5003 291.2017L320.5003 309.3018C 320.5003 310.423 311.4119 311.3319 300.2006 311.3319C 288.9893 311.3319 279.9009 310.423 279.9009 309.3018z" stroke="#800080" stroke-width="0.3985" fill="none" /><path id="547" transform="matrix(1 0 0 -1 0 841)" d="M280.1322 306.6415C 280.1322 305.5331 289.117 304.6345 300.2006 304.6345C 311.2842 304.6345 320.2691 305.5331 320.2691 306.6415L320.2691 306.6415L320.2691 322.1784C 320.2691 321.07 311.2842 320.1714 300.2006 320.1714C 289.117 320.1714 280.1322 321.07 280.1322 322.1784z" stroke="none" fill="#FFFFFF" fill-rule="nonzero" /><path id="548" transform="matrix(1 0 0 -1 0 841)" d="M280.1322 322.1784C 280.1322 323.2868 289.117 324.1854 300.2006 324.1854C 311.2842 324.1854 320.2691 323.2868 320.2691 322.1784C 320.2691 321.07 311.2842 320.1714 300.2006 320.1714C 289.117 320.1714 280.1322 321.07 280.1322 322.1784z" stroke="none" fill="#FFFFFF" fill-rule="nonzero" /><path id="549" transform="matrix(1 0 0 -1 0 841)" d="M280.1322 322.1784C 280.1322 321.07 289.117 320.1714 300.2006 320.1714C 311.2842 320.1714 320.2691 321.07 320.2691 322.1784M280.1322 306.6415C 280.1322 305.5331 289.117 304.6345 300.2006 304.6345C 311.2842 304.6345 320.2691 305.5331 320.2691 306.6415L320.2691 306.6415L320.2691 322.1784C 320.2691 323.2868 311.2842 324.1854 300.2006 324.1854C 289.117 324.1854 280.1322 323.2868 280.1322 322.1784z" stroke="#800080" stroke-width="0.3985" fill="none" /><g transform="matrix(0.1466 0 0 0.1466 115.948 596.2819)"><g transform="matrix(1 0 0 1 0 0)"><image x="0" y="0" xlink:href="img_495.png" width="580" height="387" /></g></g><g transform="matrix(0.18834 0 0 0.18834 130.121 634.4332)"><g transform="matrix(1 0 0 1 0 0)"><image x="0" y="0" xlink:href="img_496.png" width="301" height="167" /></g></g><path id="557" transform="matrix(1 0 0 -1 0 841)" d="M158.4666 188.005L158.4666 213.517" stroke="#000000" stroke-width="1.59404" fill="none" /><path id="558" transform="matrix(1 0 0 -1 0 841)" d="M150.5295 231.3756L150.5295 301.3922" stroke="#000000" stroke-width="1.59404" fill="none" /><path id="559" transform="matrix(1 0 0 -1 0 841)" d="M150.5295 301.3922L275.929 301.3922" stroke="#000000" stroke-width="1.59404" fill="none" /><path id="560" transform="matrix(1 0 0 -1 0 841)" d="M273.2191 305.9429C 273.8598 303.2125 275.2876 301.9231 276.726 301.3922C 275.2876 300.8613 273.8598 299.572 273.2191 296.8415" stroke="#000000" stroke-width="1.59404" stroke-linecap="round" fill="none" /><path id="561" transform="matrix(1 0 0 -1 0 841)" d="M150.5295 301.3922L275.929 301.3922" stroke="#000000" stroke-width="1.59404" fill="none" /><path id="562" transform="matrix(1 0 0 -1 0 841)" d="M273.2191 305.9429C 273.8598 303.2125 275.2876 301.9231 276.726 301.3922C 275.2876 300.8613 273.8598 299.572 273.2191 296.8415" stroke="#000000" stroke-width="1.59404" stroke-linecap="round" fill="none" /><path id="563" transform="matrix(1 0 0 -1 0 841)" d="M192.4827 185.1702L314.374 185.1702" stroke="#000000" stroke-width="0.3985" stroke-dasharray="7.500201,7.500201" fill="none" /><path id="564" transform="matrix(1 0 0 -1 0 841)" d="M300.2006 185.5687L300.2006 305.2456" stroke="#000000" stroke-width="0.3985" fill="none" /><path id="565" transform="matrix(1 0 0 -1 0 841)" d="M302.5917 187.4417C 301.157 187.0631 300.4796 186.2194 300.2006 185.3694C 299.9217 186.2194 299.2442 187.0631 297.8096 187.4417" stroke="#000000" stroke-width="0.3985" stroke-linecap="round" fill="none" /><path id="566" transform="matrix(1 0 0 -1 0 841)" d="M297.8096 303.3726C 299.2442 303.7512 299.9217 304.5948 300.2006 305.4448C 300.4796 304.5948 301.157 303.7512 302.5917 303.3726" stroke="#000000" stroke-width="0.3985" stroke-linecap="round" fill="none" /><path id="647" transform="matrix(1 0 0 -1 0 841)" d="M206.449 112.057L277.836 112.057" stroke="#000000" stroke-width="0.436" fill="none" /><path id="674" transform="matrix(1 0 0 -1 0 841)" d="M292.356 119.969L394.294 119.969" stroke="#000000" stroke-width="0.398" fill="none" /><path id="675" transform="matrix(1 0 0 -1 0 841)" d="M292.555 103.917L292.555 119.969" stroke="#000000" stroke-width="0.398" fill="none" /><path id="676" transform="matrix(1 0 0 -1 0 841)" d="M394.095 103.917L394.095 119.969" stroke="#000000" stroke-width="0.398" fill="none" /><path id="677" transform="matrix(1 0 0 -1 0 841)" d="M292.356 103.917L394.294 103.917" stroke="#000000" stroke-width="0.398" fill="none" /></g></g></svg>