<svg xmlns="http://www.w3.org/2000/svg" xmlns:xlink="http://www.w3.org/1999/xlink" id="body_290" preserveAspectRatio="xMinYMin meet" viewBox="0 0 793 1121"><defs><clipPath id="1"><path id="" clip-rule="evenodd" transform="matrix(1 0 0 1 0 0)" d="M0 841L0 -0.8900146L0 -0.8900146L595.276 -0.8900146L595.276 -0.8900146L595.276 841L595.276 841L0 841z" /></clipPath></defs><g transform="matrix(1.333333 0 0 1.333333 0 0)"><g clip-path="url(#1)"><path id="23" transform="matrix(1 0 0 -1 0 841)" d="M85.039 766.564L510.236 766.564" stroke="#000000" stroke-width="0.498" fill="none" /><path id="54" transform="matrix(1 0 0 -1 0 841)" d="M253.175 743.773L289.96 743.773" stroke="#000000" stroke-width="0.436" fill="none" /><path id="73" transform="matrix(1 0 0 -1 0 841)" d="M300.836 743.773L367.438 743.773" stroke="#000000" stroke-width="0.436" fill="none" /><path id="84" transform="matrix(1 0 0 -1 0 841)" d="M378.314 743.773L417.106 743.773" stroke="#000000" stroke-width="0.436" fill="none" /><path id="92" transform="matrix(1 0 0 -1 0 841)" d="M251.98 729.81L418.302 729.81" stroke="#000000" stroke-width="0.436" fill="none" /><path id="115" transform="matrix(1 0 0 -1 0 841)" d="M432.822 740.108L498.286 740.108" stroke="#000000" stroke-width="0.398" fill="none" /><path id="116" transform="matrix(1 0 0 -1 0 841)" d="M433.021 721.167L433.021 740.108" stroke="#000000" stroke-width="0.398" fill="none" /><path id="117" transform="matrix(1 0 0 -1 0 841)" d="M498.087 721.167L498.087 740.108" stroke="#000000" stroke-width="0.398" fill="none" /><path id="118" transform="matrix(1 0 0 -1 0 841)" d="M432.822 721.167L498.286 721.167" stroke="#000000" stroke-width="0.398" fill="none" /><path id="516" transform="matrix(1 0 0 -1 0 841)" d="M336.46 591.786L361.311 591.786" stroke="#000000" stroke-width="0.436" fill="none" /><path id="537" transform="matrix(1 0 0 -1 0 841)" d="M415.505 591.786L430.003 591.786" stroke="#000000" stroke-width="0.436" fill="none" /><path id="543" transform="matrix(1 0 0 -1 0 841)" d="M251.032 574.831L431.198 574.831" stroke="#000000" stroke-width="0.436" fill="none" /><path id="566" transform="matrix(1 0 0 -1 0 841)" d="M444.772 585.13L510.236 585.13" stroke="#000000" stroke-width="0.398" fill="none" /><path id="567" transform="matrix(1 0 0 -1 0 841)" d="M444.971 566.189L444.971 585.13" stroke="#000000" stroke-width="0.398" fill="none" /><path id="568" transform="matrix(1 0 0 -1 0 841)" d="M510.037 566.189L510.037 585.13" stroke="#000000" stroke-width="0.398" fill="none" /><path id="569" transform="matrix(1 0 0 -1 0 841)" d="M444.772 566.189L510.236 566.189" stroke="#000000" stroke-width="0.398" fill="none" /><path id="1088" transform="matrix(1 0 0 -1 0 841)" d="M262.758 401.931L304.874 401.931" stroke="#000000" stroke-width="0.436" fill="none" /><path id="1135" transform="matrix(1 0 0 -1 0 841)" d="M435.437 409.788L492.449 409.788" stroke="#000000" stroke-width="0.398" fill="none" /><path id="1136" transform="matrix(1 0 0 -1 0 841)" d="M435.636 393.654L435.636 409.788" stroke="#000000" stroke-width="0.398" fill="none" /><path id="1137" transform="matrix(1 0 0 -1 0 841)" d="M492.249 393.654L492.249 409.788" stroke="#000000" stroke-width="0.398" fill="none" /><path id="1138" transform="matrix(1 0 0 -1 0 841)" d="M435.437 393.654L492.449 393.654" stroke="#000000" stroke-width="0.398" fill="none" /><path id="1369" transform="matrix(1 0 0 -1 0 841)" d="M306.151 311.34L454.139 311.34" stroke="#000000" stroke-width="0.436" fill="none" /><path id="1548" transform="matrix(1 0 0 -1 0 841)" d="M318.151 223.028L466.139 223.028" stroke="#000000" stroke-width="0.436" fill="none" /><path id="1696" transform="matrix(1 0 0 -1 0 841)" d="M289.633 142.819L333.267 142.819" stroke="#000000" stroke-width="0.436" fill="none" /><path id="1722" transform="matrix(1 0 0 -1 0 841)" d="M279.809 124.929L419.092 124.929" stroke="#000000" stroke-width="0.436" fill="none" /><path id="1745" transform="matrix(1 0 0 -1 0 841)" d="M433.612 133.512L490.077 133.512" stroke="#000000" stroke-width="0.398" fill="none" /><path id="1746" transform="matrix(1 0 0 -1 0 841)" d="M433.811 116.286L433.811 133.511" stroke="#000000" stroke-width="0.398" fill="none" /><path id="1747" transform="matrix(1 0 0 -1 0 841)" d="M489.877 116.286L489.877 133.511" stroke="#000000" stroke-width="0.398" fill="none" /><path id="1748" transform="matrix(1 0 0 -1 0 841)" d="M433.612 116.286L490.077 116.286" stroke="#000000" stroke-width="0.398" fill="none" /></g></g></svg>