<svg xmlns="http://www.w3.org/2000/svg" xmlns:xlink="http://www.w3.org/1999/xlink" id="body_317" preserveAspectRatio="xMinYMin meet" viewBox="0 0 793 1121"><defs><clipPath id="1"><path id="" clip-rule="evenodd" transform="matrix(1 0 0 1 0 0)" d="M0 841L0 -0.8900146L0 -0.8900146L595.276 -0.8900146L595.276 -0.8900146L595.276 841L595.276 841L0 841z" /></clipPath></defs><g transform="matrix(1.333333 0 0 1.333333 0 0)"><g clip-path="url(#1)"><path id="24" transform="matrix(1 0 0 -1 0 841)" d="M85.039 766.564L510.236 766.564" stroke="#000000" stroke-width="0.498" fill="none" /><path id="345" transform="matrix(1 0 0 -1 0 841)" d="M490.51 679.735L563.109 679.735" stroke="#000000" stroke-width="0.436" fill="none" /><path id="476" transform="matrix(1 0 0 -1 0 841)" d="M113.508 626.443L151.635 626.443" stroke="#000000" stroke-width="0.436" fill="none" /><path id="492" transform="matrix(1 0 0 -1 0 841)" d="M168.567 626.443L206.694 626.443" stroke="#000000" stroke-width="0.436" fill="none" /><path id="531" transform="matrix(1 0 0 -1 0 841)" d="M276.871 603.476L310.383 603.476" stroke="#000000" stroke-width="0.436" fill="none" /><path id="603" transform="matrix(1 0 0 -1 0 841)" d="M157.784 551.349L195.758 551.349" stroke="#000000" stroke-width="0.436" fill="none" /><path id="781" transform="matrix(1 0 0 -1 0 841)" d="M113.508 474.453L157.656 474.453" stroke="#000000" stroke-width="0.436" fill="none" /><path id="791" transform="matrix(1 0 0 -1 0 841)" d="M168.532 474.453L221.157 474.453" stroke="#000000" stroke-width="0.436" fill="none" /><path id="815" transform="matrix(1 0 0 -1 0 841)" d="M232.032 474.453L259.305 474.453" stroke="#000000" stroke-width="0.436" fill="none" /><path id="826" transform="matrix(1 0 0 -1 0 841)" d="M275.021 474.453L308.653 474.453" stroke="#000000" stroke-width="0.436" fill="none" /><path id="878" transform="matrix(1 0 0 -1 0 841)" d="M172.927 436.463L239.95 436.463" stroke="#000000" stroke-width="0.436" fill="none" /><path id="1095" transform="matrix(1 0 0 -1 0 841)" d="M290.682 364.284L304.928 364.284" stroke="#000000" stroke-width="0.436" fill="none" /><path id="1501" transform="matrix(1 0 0 -1 0 841)" d="M306.423 188.785L340.903 188.785" stroke="#000000" stroke-width="0.436" fill="none" /></g></g></svg>