<svg xmlns="http://www.w3.org/2000/svg" xmlns:xlink="http://www.w3.org/1999/xlink" id="body_296" preserveAspectRatio="xMinYMin meet" viewBox="0 0 793 1121"><defs><clipPath id="1"><path id="" clip-rule="evenodd" transform="matrix(1 0 0 1 0 0)" d="M0 841L0 -0.8900146L0 -0.8900146L595.276 -0.8900146L595.276 -0.8900146L595.276 841L595.276 841L0 841z" /></clipPath></defs><g transform="matrix(1.333333 0 0 1.333333 0 0)"><g clip-path="url(#1)"><path id="23" transform="matrix(1 0 0 -1 0 841)" d="M85.039 766.564L510.236 766.564" stroke="#000000" stroke-width="0.498" fill="none" /><path id="1402" transform="matrix(1 0 0 -1 0 841)" d="M113.794 90.011L139.846 90.011" stroke="#000000" stroke-width="0.436" fill="none" /><path id="1414" transform="matrix(1 0 0 -1 0 841)" d="M154.366 97.922L211.039 97.922" stroke="#000000" stroke-width="0.398" fill="none" /><path id="1415" transform="matrix(1 0 0 -1 0 841)" d="M154.565 81.87L154.565 97.922" stroke="#000000" stroke-width="0.398" fill="none" /><path id="1416" transform="matrix(1 0 0 -1 0 841)" d="M210.839 81.87L210.839 97.922" stroke="#000000" stroke-width="0.398" fill="none" /><path id="1417" transform="matrix(1 0 0 -1 0 841)" d="M154.366 81.87L211.039 81.87" stroke="#000000" stroke-width="0.398" fill="none" /></g></g></svg>