<svg xmlns="http://www.w3.org/2000/svg" xmlns:xlink="http://www.w3.org/1999/xlink" id="body_20" preserveAspectRatio="xMinYMin meet" viewBox="0 0 793 1121"><defs><clipPath id="1"><path id="" clip-rule="evenodd" transform="matrix(1 0 0 1 0 0)" d="M0 841L0 -0.8900146L0 -0.8900146L595.276 -0.8900146L595.276 -0.8900146L595.276 841L595.276 841L0 841z" /></clipPath></defs><g transform="matrix(1.333333 0 0 1.333333 0 0)"><g clip-path="url(#1)"><path id="30" transform="matrix(1 0 0 -1 0 841)" d="M85.039 766.564L510.236 766.564" stroke="#000000" stroke-width="0.498" fill="none" /><path id="72" transform="matrix(1 0 0 -1 0 841)" d="M85.039 720.795L510.236 720.795" stroke="#000000" stroke-width="0.398" fill="none" /><path id="73" transform="matrix(1 0 0 -1 0 841)" d="M85.239 711.131L85.239 720.595" stroke="#000000" stroke-width="0.398" fill="none" /><path id="80" transform="matrix(1 0 0 -1 0 841)" d="M510.037 711.131L510.037 720.595" stroke="#000000" stroke-width="0.398" fill="none" /><path id="81" transform="matrix(1 0 0 -1 0 841)" d="M85.039 710.932L510.236 710.932" stroke="#000000" stroke-width="0.398" fill="none" /><path id="82" transform="matrix(1 0 0 -1 0 841)" d="M85.239 667.471L85.239 710.733" stroke="#000000" stroke-width="0.398" fill="none" /><path id="216" transform="matrix(1 0 0 -1 0 841)" d="M297.638 667.471L297.638 710.733" stroke="#000000" stroke-width="0.398" fill="none" /><path id="262" transform="matrix(1 0 0 -1 0 841)" d="M510.037 667.471L510.037 710.733" stroke="#000000" stroke-width="0.398" fill="none" /><path id="263" transform="matrix(1 0 0 -1 0 841)" d="M85.039 667.272L510.236 667.272" stroke="#000000" stroke-width="0.398" fill="none" /><path id="264" transform="matrix(1 0 0 -1 0 841)" d="M85.239 657.608L85.239 667.072" stroke="#000000" stroke-width="0.398" fill="none" /><path id="271" transform="matrix(1 0 0 -1 0 841)" d="M510.037 657.608L510.037 667.072" stroke="#000000" stroke-width="0.398" fill="none" /><path id="272" transform="matrix(1 0 0 -1 0 841)" d="M85.039 657.409L510.236 657.409" stroke="#000000" stroke-width="0.398" fill="none" /><path id="273" transform="matrix(1 0 0 -1 0 841)" d="M85.239 604.483L85.239 657.209" stroke="#000000" stroke-width="0.398" fill="none" /><path id="420" transform="matrix(1 0 0 -1 0 841)" d="M297.638 604.483L297.638 657.209" stroke="#000000" stroke-width="0.398" fill="none" /><path id="466" transform="matrix(1 0 0 -1 0 841)" d="M510.037 604.483L510.037 657.209" stroke="#000000" stroke-width="0.398" fill="none" /><path id="467" transform="matrix(1 0 0 -1 0 841)" d="M85.039 604.284L510.236 604.284" stroke="#000000" stroke-width="0.398" fill="none" /><path id="468" transform="matrix(1 0 0 -1 0 841)" d="M85.239 594.62L85.239 604.084" stroke="#000000" stroke-width="0.398" fill="none" /><path id="475" transform="matrix(1 0 0 -1 0 841)" d="M510.037 594.62L510.037 604.084" stroke="#000000" stroke-width="0.398" fill="none" /><path id="476" transform="matrix(1 0 0 -1 0 841)" d="M85.039 594.421L510.236 594.421" stroke="#000000" stroke-width="0.398" fill="none" /><path id="477" transform="matrix(1 0 0 -1 0 841)" d="M85.239 522.567L85.239 594.222" stroke="#000000" stroke-width="0.398" fill="none" /><path id="713" transform="matrix(1 0 0 -1 0 841)" d="M297.638 522.567L297.638 594.222" stroke="#000000" stroke-width="0.398" fill="none" /><path id="759" transform="matrix(1 0 0 -1 0 841)" d="M510.037 522.567L510.037 594.222" stroke="#000000" stroke-width="0.398" fill="none" /><path id="760" transform="matrix(1 0 0 -1 0 841)" d="M85.039 522.368L510.236 522.368" stroke="#000000" stroke-width="0.398" fill="none" /><path id="816" transform="matrix(1 0 0 -1 0 841)" d="M136.954 463.648L458.321 463.648" stroke="#000000" stroke-width="0.398" fill="none" /><path id="817" transform="matrix(1 0 0 -1 0 841)" d="M137.154 417.696L137.154 463.448" stroke="#000000" stroke-width="0.398" fill="none" /><path id="818" transform="matrix(1 0 0 -1 0 841)" d="M250.982 417.696L250.982 463.448" stroke="#000000" stroke-width="0.398" fill="none" /><path id="826" transform="matrix(1 0 0 -1 0 841)" d="M320.029 417.696L320.029 463.448" stroke="#000000" stroke-width="0.398" fill="none" /><path id="843" transform="matrix(1 0 0 -1 0 841)" d="M389.075 417.696L389.075 463.448" stroke="#000000" stroke-width="0.398" fill="none" /><path id="858" transform="matrix(1 0 0 -1 0 841)" d="M458.122 417.696L458.122 463.448" stroke="#000000" stroke-width="0.398" fill="none" /><path id="859" transform="matrix(1 0 0 -1 0 841)" d="M136.954 417.497L458.321 417.497" stroke="#000000" stroke-width="0.398" fill="none" /><path id="860" transform="matrix(1 0 0 -1 0 841)" d="M137.154 407.833L137.154 417.297" stroke="#000000" stroke-width="0.398" fill="none" /><path id="866" transform="matrix(1 0 0 -1 0 841)" d="M250.982 407.833L250.982 417.297" stroke="#000000" stroke-width="0.398" fill="none" /><path id="867" transform="matrix(1 0 0 -1 0 841)" d="M251.381 407.833L251.381 417.297" stroke="#000000" stroke-width="0.398" fill="none" /><path id="871" transform="matrix(1 0 0 -1 0 841)" d="M320.029 407.833L320.029 417.297" stroke="#000000" stroke-width="0.398" fill="none" /><path id="872" transform="matrix(1 0 0 -1 0 841)" d="M320.427 407.833L320.427 417.297" stroke="#000000" stroke-width="0.398" fill="none" /><path id="876" transform="matrix(1 0 0 -1 0 841)" d="M389.075 407.833L389.075 417.297" stroke="#000000" stroke-width="0.398" fill="none" /><path id="877" transform="matrix(1 0 0 -1 0 841)" d="M389.474 407.833L389.474 417.297" stroke="#000000" stroke-width="0.398" fill="none" /><path id="881" transform="matrix(1 0 0 -1 0 841)" d="M458.122 407.833L458.122 417.297" stroke="#000000" stroke-width="0.398" fill="none" /><path id="882" transform="matrix(1 0 0 -1 0 841)" d="M136.954 407.634L458.321 407.634" stroke="#000000" stroke-width="0.398" fill="none" /><path id="883" transform="matrix(1 0 0 -1 0 841)" d="M137.154 397.97L137.154 407.434" stroke="#000000" stroke-width="0.398" fill="none" /><path id="889" transform="matrix(1 0 0 -1 0 841)" d="M250.982 397.97L250.982 407.434" stroke="#000000" stroke-width="0.398" fill="none" /><path id="890" transform="matrix(1 0 0 -1 0 841)" d="M251.381 397.97L251.381 407.434" stroke="#000000" stroke-width="0.398" fill="none" /><path id="894" transform="matrix(1 0 0 -1 0 841)" d="M320.029 397.97L320.029 407.434" stroke="#000000" stroke-width="0.398" fill="none" /><path id="895" transform="matrix(1 0 0 -1 0 841)" d="M320.427 397.97L320.427 407.434" stroke="#000000" stroke-width="0.398" fill="none" /><path id="899" transform="matrix(1 0 0 -1 0 841)" d="M389.075 397.97L389.075 407.434" stroke="#000000" stroke-width="0.398" fill="none" /><path id="900" transform="matrix(1 0 0 -1 0 841)" d="M389.474 397.97L389.474 407.434" stroke="#000000" stroke-width="0.398" fill="none" /><path id="904" transform="matrix(1 0 0 -1 0 841)" d="M458.122 397.97L458.122 407.434" stroke="#000000" stroke-width="0.398" fill="none" /><path id="905" transform="matrix(1 0 0 -1 0 841)" d="M136.954 397.771L458.321 397.771" stroke="#000000" stroke-width="0.398" fill="none" /><path id="906" transform="matrix(1 0 0 -1 0 841)" d="M137.154 388.107L137.154 397.571" stroke="#000000" stroke-width="0.398" fill="none" /><path id="912" transform="matrix(1 0 0 -1 0 841)" d="M250.982 388.107L250.982 397.571" stroke="#000000" stroke-width="0.398" fill="none" /><path id="913" transform="matrix(1 0 0 -1 0 841)" d="M251.381 388.107L251.381 397.571" stroke="#000000" stroke-width="0.398" fill="none" /><path id="918" transform="matrix(1 0 0 -1 0 841)" d="M320.029 388.107L320.029 397.571" stroke="#000000" stroke-width="0.398" fill="none" /><path id="919" transform="matrix(1 0 0 -1 0 841)" d="M320.427 388.107L320.427 397.571" stroke="#000000" stroke-width="0.398" fill="none" /><path id="923" transform="matrix(1 0 0 -1 0 841)" d="M389.075 388.107L389.075 397.571" stroke="#000000" stroke-width="0.398" fill="none" /><path id="924" transform="matrix(1 0 0 -1 0 841)" d="M389.474 388.107L389.474 397.571" stroke="#000000" stroke-width="0.398" fill="none" /><path id="929" transform="matrix(1 0 0 -1 0 841)" d="M458.122 388.107L458.122 397.571" stroke="#000000" stroke-width="0.398" fill="none" /><path id="930" transform="matrix(1 0 0 -1 0 841)" d="M136.954 387.908L458.321 387.908" stroke="#000000" stroke-width="0.398" fill="none" /><path id="931" transform="matrix(1 0 0 -1 0 841)" d="M137.154 378.244L137.154 387.708" stroke="#000000" stroke-width="0.398" fill="none" /><path id="937" transform="matrix(1 0 0 -1 0 841)" d="M250.982 378.244L250.982 387.708" stroke="#000000" stroke-width="0.398" fill="none" /><path id="938" transform="matrix(1 0 0 -1 0 841)" d="M251.381 378.244L251.381 387.708" stroke="#000000" stroke-width="0.398" fill="none" /><path id="943" transform="matrix(1 0 0 -1 0 841)" d="M320.029 378.244L320.029 387.708" stroke="#000000" stroke-width="0.398" fill="none" /><path id="944" transform="matrix(1 0 0 -1 0 841)" d="M320.427 378.244L320.427 387.708" stroke="#000000" stroke-width="0.398" fill="none" /><path id="948" transform="matrix(1 0 0 -1 0 841)" d="M389.075 378.244L389.075 387.708" stroke="#000000" stroke-width="0.398" fill="none" /><path id="949" transform="matrix(1 0 0 -1 0 841)" d="M389.474 378.244L389.474 387.708" stroke="#000000" stroke-width="0.398" fill="none" /><path id="954" transform="matrix(1 0 0 -1 0 841)" d="M458.122 378.244L458.122 387.708" stroke="#000000" stroke-width="0.398" fill="none" /><path id="955" transform="matrix(1 0 0 -1 0 841)" d="M136.954 378.045L458.321 378.045" stroke="#000000" stroke-width="0.398" fill="none" /><path id="956" transform="matrix(1 0 0 -1 0 841)" d="M137.154 368.381L137.154 377.845" stroke="#000000" stroke-width="0.398" fill="none" /><path id="962" transform="matrix(1 0 0 -1 0 841)" d="M250.982 368.381L250.982 377.845" stroke="#000000" stroke-width="0.398" fill="none" /><path id="963" transform="matrix(1 0 0 -1 0 841)" d="M251.381 368.381L251.381 377.845" stroke="#000000" stroke-width="0.398" fill="none" /><path id="968" transform="matrix(1 0 0 -1 0 841)" d="M320.029 368.381L320.029 377.845" stroke="#000000" stroke-width="0.398" fill="none" /><path id="969" transform="matrix(1 0 0 -1 0 841)" d="M320.427 368.381L320.427 377.845" stroke="#000000" stroke-width="0.398" fill="none" /><path id="974" transform="matrix(1 0 0 -1 0 841)" d="M389.075 368.381L389.075 377.845" stroke="#000000" stroke-width="0.398" fill="none" /><path id="975" transform="matrix(1 0 0 -1 0 841)" d="M389.474 368.381L389.474 377.845" stroke="#000000" stroke-width="0.398" fill="none" /><path id="980" transform="matrix(1 0 0 -1 0 841)" d="M458.122 368.381L458.122 377.845" stroke="#000000" stroke-width="0.398" fill="none" /><path id="981" transform="matrix(1 0 0 -1 0 841)" d="M136.954 368.182L458.321 368.182" stroke="#000000" stroke-width="0.398" fill="none" /><path id="982" transform="matrix(1 0 0 -1 0 841)" d="M137.154 358.518L137.154 367.982" stroke="#000000" stroke-width="0.398" fill="none" /><path id="991" transform="matrix(1 0 0 -1 0 841)" d="M250.982 358.518L250.982 367.982" stroke="#000000" stroke-width="0.398" fill="none" /><path id="992" transform="matrix(1 0 0 -1 0 841)" d="M251.381 358.518L251.381 367.982" stroke="#000000" stroke-width="0.398" fill="none" /><path id="996" transform="matrix(1 0 0 -1 0 841)" d="M320.029 358.518L320.029 367.982" stroke="#000000" stroke-width="0.398" fill="none" /><path id="997" transform="matrix(1 0 0 -1 0 841)" d="M320.427 358.518L320.427 367.982" stroke="#000000" stroke-width="0.398" fill="none" /><path id="1001" transform="matrix(1 0 0 -1 0 841)" d="M389.075 358.518L389.075 367.982" stroke="#000000" stroke-width="0.398" fill="none" /><path id="1002" transform="matrix(1 0 0 -1 0 841)" d="M389.474 358.518L389.474 367.982" stroke="#000000" stroke-width="0.398" fill="none" /><path id="1006" transform="matrix(1 0 0 -1 0 841)" d="M458.122 358.518L458.122 367.982" stroke="#000000" stroke-width="0.398" fill="none" /><path id="1007" transform="matrix(1 0 0 -1 0 841)" d="M136.954 358.319L458.321 358.319" stroke="#000000" stroke-width="0.398" fill="none" /><path id="1008" transform="matrix(1 0 0 -1 0 841)" d="M137.154 348.655L137.154 358.119" stroke="#000000" stroke-width="0.398" fill="none" /><path id="1018" transform="matrix(1 0 0 -1 0 841)" d="M250.982 348.655L250.982 358.119" stroke="#000000" stroke-width="0.398" fill="none" /><path id="1019" transform="matrix(1 0 0 -1 0 841)" d="M251.381 348.655L251.381 358.119" stroke="#000000" stroke-width="0.398" fill="none" /><path id="1023" transform="matrix(1 0 0 -1 0 841)" d="M320.029 348.655L320.029 358.119" stroke="#000000" stroke-width="0.398" fill="none" /><path id="1024" transform="matrix(1 0 0 -1 0 841)" d="M320.427 348.655L320.427 358.119" stroke="#000000" stroke-width="0.398" fill="none" /><path id="1028" transform="matrix(1 0 0 -1 0 841)" d="M389.075 348.655L389.075 358.119" stroke="#000000" stroke-width="0.398" fill="none" /><path id="1029" transform="matrix(1 0 0 -1 0 841)" d="M389.474 348.655L389.474 358.119" stroke="#000000" stroke-width="0.398" fill="none" /><path id="1034" transform="matrix(1 0 0 -1 0 841)" d="M458.122 348.655L458.122 358.119" stroke="#000000" stroke-width="0.398" fill="none" /><path id="1035" transform="matrix(1 0 0 -1 0 841)" d="M136.954 348.456L458.321 348.456" stroke="#000000" stroke-width="0.398" fill="none" /><path id="1036" transform="matrix(1 0 0 -1 0 841)" d="M137.154 338.792L137.154 348.256" stroke="#000000" stroke-width="0.398" fill="none" /><path id="1047" transform="matrix(1 0 0 -1 0 841)" d="M250.982 338.792L250.982 348.256" stroke="#000000" stroke-width="0.398" fill="none" /><path id="1048" transform="matrix(1 0 0 -1 0 841)" d="M251.381 338.792L251.381 348.256" stroke="#000000" stroke-width="0.398" fill="none" /><path id="1053" transform="matrix(1 0 0 -1 0 841)" d="M320.029 338.792L320.029 348.256" stroke="#000000" stroke-width="0.398" fill="none" /><path id="1054" transform="matrix(1 0 0 -1 0 841)" d="M320.427 338.792L320.427 348.256" stroke="#000000" stroke-width="0.398" fill="none" /><path id="1058" transform="matrix(1 0 0 -1 0 841)" d="M389.075 338.792L389.075 348.256" stroke="#000000" stroke-width="0.398" fill="none" /><path id="1059" transform="matrix(1 0 0 -1 0 841)" d="M389.474 338.792L389.474 348.256" stroke="#000000" stroke-width="0.398" fill="none" /><path id="1064" transform="matrix(1 0 0 -1 0 841)" d="M458.122 338.792L458.122 348.256" stroke="#000000" stroke-width="0.398" fill="none" /><path id="1065" transform="matrix(1 0 0 -1 0 841)" d="M136.954 338.593L458.321 338.593" stroke="#000000" stroke-width="0.398" fill="none" /><path id="1066" transform="matrix(1 0 0 -1 0 841)" d="M137.154 328.929L137.154 338.393" stroke="#000000" stroke-width="0.398" fill="none" /><path id="1076" transform="matrix(1 0 0 -1 0 841)" d="M250.982 328.929L250.982 338.393" stroke="#000000" stroke-width="0.398" fill="none" /><path id="1077" transform="matrix(1 0 0 -1 0 841)" d="M251.381 328.929L251.381 338.393" stroke="#000000" stroke-width="0.398" fill="none" /><path id="1082" transform="matrix(1 0 0 -1 0 841)" d="M320.029 328.929L320.029 338.393" stroke="#000000" stroke-width="0.398" fill="none" /><path id="1083" transform="matrix(1 0 0 -1 0 841)" d="M320.427 328.929L320.427 338.393" stroke="#000000" stroke-width="0.398" fill="none" /><path id="1087" transform="matrix(1 0 0 -1 0 841)" d="M389.075 328.929L389.075 338.393" stroke="#000000" stroke-width="0.398" fill="none" /><path id="1088" transform="matrix(1 0 0 -1 0 841)" d="M389.474 328.929L389.474 338.393" stroke="#000000" stroke-width="0.398" fill="none" /><path id="1093" transform="matrix(1 0 0 -1 0 841)" d="M458.122 328.929L458.122 338.393" stroke="#000000" stroke-width="0.398" fill="none" /><path id="1094" transform="matrix(1 0 0 -1 0 841)" d="M136.954 328.73L458.321 328.73" stroke="#000000" stroke-width="0.398" fill="none" /><path id="1095" transform="matrix(1 0 0 -1 0 841)" d="M137.154 319.066L137.154 328.53" stroke="#000000" stroke-width="0.398" fill="none" /><path id="1104" transform="matrix(1 0 0 -1 0 841)" d="M250.982 319.066L250.982 328.53" stroke="#000000" stroke-width="0.398" fill="none" /><path id="1105" transform="matrix(1 0 0 -1 0 841)" d="M251.381 319.066L251.381 328.53" stroke="#000000" stroke-width="0.398" fill="none" /><path id="1110" transform="matrix(1 0 0 -1 0 841)" d="M320.029 319.066L320.029 328.53" stroke="#000000" stroke-width="0.398" fill="none" /><path id="1111" transform="matrix(1 0 0 -1 0 841)" d="M320.427 319.066L320.427 328.53" stroke="#000000" stroke-width="0.398" fill="none" /><path id="1116" transform="matrix(1 0 0 -1 0 841)" d="M389.075 319.066L389.075 328.53" stroke="#000000" stroke-width="0.398" fill="none" /><path id="1117" transform="matrix(1 0 0 -1 0 841)" d="M389.474 319.066L389.474 328.53" stroke="#000000" stroke-width="0.398" fill="none" /><path id="1122" transform="matrix(1 0 0 -1 0 841)" d="M458.122 319.066L458.122 328.53" stroke="#000000" stroke-width="0.398" fill="none" /><path id="1123" transform="matrix(1 0 0 -1 0 841)" d="M136.954 318.867L458.321 318.867" stroke="#000000" stroke-width="0.398" fill="none" /><path id="1124" transform="matrix(1 0 0 -1 0 841)" d="M137.154 309.203L137.154 318.667" stroke="#000000" stroke-width="0.398" fill="none" /><path id="1145" transform="matrix(1 0 0 -1 0 841)" d="M250.982 309.203L250.982 318.667" stroke="#000000" stroke-width="0.398" fill="none" /><path id="1146" transform="matrix(1 0 0 -1 0 841)" d="M251.381 309.203L251.381 318.667" stroke="#000000" stroke-width="0.398" fill="none" /><path id="1184" transform="matrix(1 0 0 -1 0 841)" d="M458.122 309.203L458.122 318.667" stroke="#000000" stroke-width="0.398" fill="none" /><path id="1185" transform="matrix(1 0 0 -1 0 841)" d="M137.154 299.739L137.154 309.203" stroke="#000000" stroke-width="0.398" fill="none" /><path id="1186" transform="matrix(1 0 0 -1 0 841)" d="M250.982 299.739L250.982 309.203" stroke="#000000" stroke-width="0.398" fill="none" /><path id="1187" transform="matrix(1 0 0 -1 0 841)" d="M251.381 299.739L251.381 309.203" stroke="#000000" stroke-width="0.398" fill="none" /><path id="1226" transform="matrix(1 0 0 -1 0 841)" d="M458.122 299.739L458.122 309.203" stroke="#000000" stroke-width="0.398" fill="none" /><path id="1227" transform="matrix(1 0 0 -1 0 841)" d="M136.954 299.539L458.321 299.539" stroke="#000000" stroke-width="0.398" fill="none" /></g></g></svg>