<svg xmlns="http://www.w3.org/2000/svg" xmlns:xlink="http://www.w3.org/1999/xlink" id="body_283" preserveAspectRatio="xMinYMin meet" viewBox="0 0 793 1121"><defs><clipPath id="1"><path id="" clip-rule="evenodd" transform="matrix(1 0 0 1 0 0)" d="M0 841L0 -0.8900146L0 -0.8900146L595.276 -0.8900146L595.276 -0.8900146L595.276 841L595.276 841L0 841z" /></clipPath></defs><g transform="matrix(1.333333 0 0 1.333333 0 0)"><g clip-path="url(#1)"><path id="16" transform="matrix(1 0 0 -1 0 841)" d="M85.039 766.564L510.236 766.564" stroke="#000000" stroke-width="0.498" fill="none" /><path id="67" transform="matrix(1 0 0 -1 0 841)" d="M113.508 712.294L175.394 712.294" stroke="#000000" stroke-width="0.436" fill="none" /><path id="80" transform="matrix(1 0 0 -1 0 841)" d="M186.27 712.294L213.543 712.294" stroke="#000000" stroke-width="0.436" fill="none" /><path id="92" transform="matrix(1 0 0 -1 0 841)" d="M224.418 712.294L250.731 712.294" stroke="#000000" stroke-width="0.436" fill="none" /><path id="109" transform="matrix(1 0 0 -1 0 841)" d="M269.834 712.294L334.58 712.294" stroke="#000000" stroke-width="0.436" fill="none" /><path id="113" transform="matrix(1 0 0 -1 0 841)" d="M265.251 727.651L339.162 727.651" stroke="#000000" stroke-width="0.398" fill="none" /><path id="114" transform="matrix(1 0 0 -1 0 841)" d="M265.45 696.669L265.45 727.65" stroke="#000000" stroke-width="0.398" fill="none" /><path id="115" transform="matrix(1 0 0 -1 0 841)" d="M338.963 696.669L338.963 727.65" stroke="#000000" stroke-width="0.398" fill="none" /><path id="116" transform="matrix(1 0 0 -1 0 841)" d="M265.251 696.669L339.162 696.669" stroke="#000000" stroke-width="0.398" fill="none" /><path id="225" transform="matrix(1 0 0 -1 0 841)" d="M113.508 638.054L175.394 638.054" stroke="#000000" stroke-width="0.436" fill="none" /><path id="242" transform="matrix(1 0 0 -1 0 841)" d="M186.27 638.054L218.997 638.054" stroke="#000000" stroke-width="0.436" fill="none" /><path id="260" transform="matrix(1 0 0 -1 0 841)" d="M251.691 638.054L268.054 638.054" stroke="#000000" stroke-width="0.436" fill="none" /><path id="279" transform="matrix(1 0 0 -1 0 841)" d="M287.157 638.054L369.641 638.054" stroke="#000000" stroke-width="0.436" fill="none" /><path id="283" transform="matrix(1 0 0 -1 0 841)" d="M282.575 653.411L374.224 653.411" stroke="#000000" stroke-width="0.398" fill="none" /><path id="284" transform="matrix(1 0 0 -1 0 841)" d="M282.774 622.429L282.774 653.41" stroke="#000000" stroke-width="0.398" fill="none" /><path id="285" transform="matrix(1 0 0 -1 0 841)" d="M374.025 622.429L374.025 653.41" stroke="#000000" stroke-width="0.398" fill="none" /><path id="286" transform="matrix(1 0 0 -1 0 841)" d="M282.575 622.429L374.224 622.429" stroke="#000000" stroke-width="0.398" fill="none" /><path id="498" transform="matrix(1 0 0 -1 0 841)" d="M225.897 496.5266L112.5098 496.5266L112.5098 496.5266L112.5098 454.0064L112.5098 454.0064L225.897 454.0064z" stroke="#000000" stroke-width="0.3985" fill="#E3F5FD" fill-rule="nonzero" /><path id="499" transform="matrix(1 0 0 -1 0 841)" d="M225.897 496.5266L247.7237 518.3533L247.7237 518.3533L247.7237 475.8331L247.7237 475.8331L225.897 454.0064z" stroke="#000000" stroke-width="0.3985" fill="#FFFFFF" fill-rule="nonzero" /><path id="500" transform="matrix(1 0 0 -1 0 841)" d="M225.897 496.5266L247.7237 518.3533L247.7237 518.3533L247.7237 475.8331L247.7237 475.8331L225.897 454.0064z" stroke="#000000" stroke-width="0.3985" fill="#E3F5FD" fill-rule="nonzero" /><path id="501" transform="matrix(1 0 0 -1 0 841)" d="M112.5098 510.7L134.3365 532.5267L134.3365 532.5267L134.3365 518.3533L134.3365 518.3533L112.5098 496.5266z" stroke="#000000" stroke-width="0.3985" fill="none" /><path id="502" transform="matrix(1 0 0 -1 0 841)" d="M225.897 496.5266L112.5098 496.5266L112.5098 496.5266L134.3365 518.3533L134.3365 518.3533L247.7237 518.3533z" stroke="#000000" stroke-width="0.3985" fill="none" /><path id="503" transform="matrix(1 0 0 -1 0 841)" d="M225.897 510.7L112.5098 510.7L112.5098 510.7L112.5098 496.5266L112.5098 496.5266L225.897 496.5266z" stroke="#000000" stroke-width="0.3985" fill="#FFFFFF" fill-rule="nonzero" /><path id="504" transform="matrix(1 0 0 -1 0 841)" d="M225.897 510.7L247.7237 532.5267L247.7237 532.5267L247.7237 518.3533L247.7237 518.3533L225.897 496.5266z" stroke="#000000" stroke-width="0.3985" fill="#FFFFFF" fill-rule="nonzero" /><path id="505" transform="matrix(1 0 0 -1 0 841)" d="M225.897 510.7L247.7237 532.5267L247.7237 532.5267L247.7237 518.3533L247.7237 518.3533L225.897 496.5266z" stroke="#000000" stroke-width="0.3985" fill="#FFFFFF" fill-rule="nonzero" /><path id="506" transform="matrix(1 0 0 -1 0 841)" d="M225.897 510.7L112.5098 510.7L112.5098 510.7L134.3365 532.5267L134.3365 532.5267L247.7237 532.5267z" stroke="#000000" stroke-width="0.3985" fill="#FFFFFF" fill-rule="nonzero" /><path id="507" transform="matrix(1 0 0 -1 0 841)" d="M112.9083 445.5023L225.4985 445.5023" stroke="#000000" stroke-width="0.3985" fill="none" /><path id="508" transform="matrix(1 0 0 -1 0 841)" d="M114.7813 443.1112C 114.4027 444.5459 113.559 445.2233 112.709 445.5023C 113.559 445.7812 114.4027 446.4586 114.7813 447.8933" stroke="#000000" stroke-width="0.3985" stroke-linecap="round" fill="none" /><path id="509" transform="matrix(1 0 0 -1 0 841)" d="M223.6255 447.8933C 224.0041 446.4586 224.8477 445.7812 225.6977 445.5023C 224.8477 445.2233 224.0041 444.5459 223.6255 443.1112" stroke="#000000" stroke-width="0.3985" stroke-linecap="round" fill="none" /><path id="517" transform="matrix(1 0 0 -1 0 841)" d="M254.2438 474.2476L254.2438 515.9708" stroke="#000000" stroke-width="0.3985" fill="none" /><path id="518" transform="matrix(1 0 0 -1 0 841)" d="M256.6348 476.1206C 255.2002 475.742 254.5227 474.8983 254.2438 474.0483C 253.9648 474.8983 253.2874 475.742 251.8528 476.1206" stroke="#000000" stroke-width="0.3985" stroke-linecap="round" fill="none" /><path id="519" transform="matrix(1 0 0 -1 0 841)" d="M251.8528 514.0977C 253.2874 514.4763 253.9648 515.32 254.2438 516.17C 254.5227 515.32 255.2002 514.4763 256.6348 514.0977" stroke="#000000" stroke-width="0.3985" stroke-linecap="round" fill="none" /><path id="542" transform="matrix(1 0 0 -1 0 841)" d="M237.2355 465.1768L237.2355 479.1199" stroke="#000000" stroke-width="0.3985" fill="none" /><path id="543" transform="matrix(1 0 0 -1 0 841)" d="M239.6266 467.0498C 238.1919 466.6712 237.5145 465.8275 237.2355 464.9776C 236.9566 465.8275 236.2792 466.6712 234.8445 467.0498" stroke="#000000" stroke-width="0.3985" stroke-linecap="round" fill="none" /><path id="544" transform="matrix(1 0 0 -1 0 841)" d="M234.8445 477.2469C 236.2792 477.6254 236.9566 478.4691 237.2355 479.3191C 237.5145 478.4691 238.1919 477.6254 239.6266 477.2469" stroke="#000000" stroke-width="0.3985" stroke-linecap="round" fill="none" /><path id="564" transform="matrix(1 0 0 -1 0 841)" d="M254.2438 532.979L254.2438 516.7678" stroke="#000000" stroke-width="0.3985" fill="none" /><path id="565" transform="matrix(1 0 0 -1 0 841)" d="M251.8528 531.106C 253.2874 531.4846 253.9648 532.3282 254.2438 533.1782C 254.5227 532.3282 255.2002 531.4846 256.6348 531.106" stroke="#000000" stroke-width="0.3985" stroke-linecap="round" fill="none" /><path id="566" transform="matrix(1 0 0 -1 0 841)" d="M256.6348 518.6407C 255.2002 518.2621 254.5227 517.4185 254.2438 516.5685C 253.9648 517.4185 253.2874 518.2621 251.8528 518.6407" stroke="#000000" stroke-width="0.3985" stroke-linecap="round" fill="none" /><path id="578" transform="matrix(1 0 0 -1 0 841)" d="M253.962 473.5673L226.1788 445.7841" stroke="#000000" stroke-width="0.3985" fill="none" /><path id="579" transform="matrix(1 0 0 -1 0 841)" d="M250.9469 473.9336C 252.2291 473.1869 253.3046 473.3044 254.1029 473.7082C 253.6991 472.9099 253.5816 471.8344 254.3283 470.5522" stroke="#000000" stroke-width="0.3984962" stroke-linecap="round" fill="none" /><path id="580" transform="matrix(1 0 0 -1 0 841)" d="M229.1939 445.4177C 227.9117 446.1645 226.8362 446.0469 226.0379 445.6432C 226.4417 446.4414 226.5592 447.517 225.8125 448.7991" stroke="#000000" stroke-width="0.3984962" stroke-linecap="round" fill="none" /><path id="654" transform="matrix(1 0 0 -1 0 841)" d="M207.711 385.626L222.209 385.626" stroke="#000000" stroke-width="0.436" fill="none" /><path id="660" transform="matrix(1 0 0 -1 0 841)" d="M138.347 368.672L223.404 368.672" stroke="#000000" stroke-width="0.436" fill="none" /><path id="669" transform="matrix(1 0 0 -1 0 841)" d="M180.876 353.661L197.239 353.661" stroke="#000000" stroke-width="0.436" fill="none" /><path id="679" transform="matrix(1 0 0 -1 0 841)" d="M237.925 376.431L271.972 376.431" stroke="#000000" stroke-width="0.398" fill="none" /><path id="680" transform="matrix(1 0 0 -1 0 841)" d="M238.124 362.637L238.124 376.431" stroke="#000000" stroke-width="0.398" fill="none" /><path id="681" transform="matrix(1 0 0 -1 0 841)" d="M271.773 362.637L271.773 376.431" stroke="#000000" stroke-width="0.398" fill="none" /><path id="682" transform="matrix(1 0 0 -1 0 841)" d="M237.925 362.637L271.972 362.637" stroke="#000000" stroke-width="0.398" fill="none" /><g transform="matrix(0.0675 0 0 0.0675 196.088 528.0315)"><g transform="matrix(1 0 0 1 0 0)"><image x="0" y="0" xlink:href="img_423.png" width="3009" height="713" /></g></g><path id="1051" transform="matrix(1 0 0 -1 0 841)" d="M176.205 117.736L446.343 117.736" stroke="#000000" stroke-width="0.436" fill="none" /></g></g></svg>