<svg xmlns="http://www.w3.org/2000/svg" xmlns:xlink="http://www.w3.org/1999/xlink" id="body_7" preserveAspectRatio="xMinYMin meet" viewBox="0 0 793 1121"><defs><clipPath id="1"><path id="" clip-rule="evenodd" transform="matrix(1 0 0 1 0 0)" d="M0 841L0 -0.8900146L0 -0.8900146L595.276 -0.8900146L595.276 -0.8900146L595.276 841L595.276 841L0 841z" /></clipPath></defs><g transform="matrix(1.333333 0 0 1.333333 0 0)"><g clip-path="url(#1)"><path id="348" transform="matrix(1 0 0 -1 0 841)" d="M85.039 647.465L115.07 647.465L115.07 667.307L85.039 667.307z" stroke="none" fill="#FDE0D1" fill-rule="nonzero" /><path id="351" transform="matrix(1 0 0 -1 0 841)" d="M119.055 647.465L510.236 647.465L510.236 667.307L119.055 667.307z" stroke="none" fill="#FAC2A3" fill-rule="nonzero" /><path id="1268" transform="matrix(1 0 0 -1 0 841)" d="M85.039 338.596L115.07 338.596L115.07 358.438L85.039 358.438z" stroke="none" fill="#FDE0D1" fill-rule="nonzero" /><path id="1270" transform="matrix(1 0 0 -1 0 841)" d="M119.055 338.596L510.236 338.596L510.236 358.438L119.055 358.438z" stroke="none" fill="#FAC2A3" fill-rule="nonzero" /></g></g></svg>