<svg xmlns="http://www.w3.org/2000/svg" xmlns:xlink="http://www.w3.org/1999/xlink" id="body_362" preserveAspectRatio="xMinYMin meet" viewBox="0 0 793 1121"><defs><clipPath id="1"><path id="" clip-rule="evenodd" transform="matrix(1 0 0 1 0 0)" d="M0 841L0 -0.8900146L0 -0.8900146L595.276 -0.8900146L595.276 -0.8900146L595.276 841L595.276 841L0 841z" /></clipPath><clipPath id="2"><path id="" clip-rule="evenodd" transform="matrix(1 0 0 1 0 0)" d="M-0.137 806.042L595.4169 806.042L595.4169 806.042L595.4169 34.06372L595.4169 34.06372L-0.137 34.06372z" /></clipPath><clipPath id="3"><path id="" clip-rule="evenodd" transform="matrix(1 0 0 1 0 0)" d="M57.00108 326.7722L548.2599 326.7722L548.2599 326.7722L548.2599 311.3911L548.2599 311.3911L57.00108 311.3911z" /></clipPath><clipPath id="4"><path id="" clip-rule="evenodd" transform="matrix(1 0 0 1 0 0)" d="M57.00108 326.7722L548.2599 326.7722L548.2599 326.7722L548.2599 311.3911L548.2599 311.3911L57.00108 311.3911z" /></clipPath><clipPath id="5"><path id="" clip-rule="evenodd" transform="matrix(1 0 0 1 0 0)" d="M57.00108 326.7722L548.2599 326.7722L548.2599 326.7722L548.2599 311.3911L548.2599 311.3911L57.00108 311.3911z" /></clipPath><clipPath id="6"><path id="" clip-rule="evenodd" transform="matrix(1 0 0 1 0 0)" d="M57.00108 326.7722L548.2599 326.7722L548.2599 326.7722L548.2599 311.3911L548.2599 311.3911L57.00108 311.3911z" /></clipPath><clipPath id="7"><path id="" clip-rule="evenodd" transform="matrix(1 0 0 1 0 0)" d="M57.00108 342.0948L127.1809 342.0948L127.1809 342.0948L127.1809 326.7722L127.1809 326.7722L57.00108 326.7722z" /></clipPath><clipPath id="8"><path id="" clip-rule="evenodd" transform="matrix(1 0 0 1 0 0)" d="M57.00108 342.0948L127.1809 342.0948L127.1809 342.0948L127.1809 326.7722L127.1809 326.7722L57.00108 326.7722z" /></clipPath><clipPath id="9"><path id="" clip-rule="evenodd" transform="matrix(1 0 0 1 0 0)" d="M57.00108 342.0948L127.1809 342.0948L127.1809 342.0948L127.1809 326.7722L127.1809 326.7722L57.00108 326.7722z" /></clipPath><clipPath id="10"><path id="" clip-rule="evenodd" transform="matrix(1 0 0 1 0 0)" d="M57.00108 342.0948L127.1809 342.0948L127.1809 342.0948L127.1809 326.7722L127.1809 326.7722L57.00108 326.7722z" /></clipPath><clipPath id="11"><path id="" clip-rule="evenodd" transform="matrix(1 0 0 1 0 0)" d="M57.00108 342.0948L127.1809 342.0948L127.1809 342.0948L127.1809 326.7722L127.1809 326.7722L57.00108 326.7722z" /></clipPath><clipPath id="12"><path id="" clip-rule="evenodd" transform="matrix(1 0 0 1 0 0)" d="M57.00108 342.0948L127.1809 342.0948L127.1809 342.0948L127.1809 326.7722L127.1809 326.7722L57.00108 326.7722z" /></clipPath><clipPath id="13"><path id="" clip-rule="evenodd" transform="matrix(1 0 0 1 0 0)" d="M57.00108 342.0948L127.1809 342.0948L127.1809 342.0948L127.1809 326.7722L127.1809 326.7722L57.00108 326.7722z" /></clipPath><clipPath id="14"><path id="" clip-rule="evenodd" transform="matrix(1 0 0 1 0 0)" d="M57.00108 342.0948L127.1809 342.0948L127.1809 342.0948L127.1809 326.7722L127.1809 326.7722L57.00108 326.7722z" /></clipPath><clipPath id="15"><path id="" clip-rule="evenodd" transform="matrix(1 0 0 1 0 0)" d="M57.00108 342.0948L127.1809 342.0948L127.1809 342.0948L127.1809 326.7722L127.1809 326.7722L57.00108 326.7722z" /></clipPath><clipPath id="16"><path id="" clip-rule="evenodd" transform="matrix(1 0 0 1 0 0)" d="M57.00108 342.0948L127.1809 342.0948L127.1809 342.0948L127.1809 326.7722L127.1809 326.7722L57.00108 326.7722z" /></clipPath><clipPath id="17"><path id="" clip-rule="evenodd" transform="matrix(1 0 0 1 0 0)" d="M57.00108 342.0948L127.1809 342.0948L127.1809 342.0948L127.1809 326.7722L127.1809 326.7722L57.00108 326.7722z" /></clipPath><clipPath id="18"><path id="" clip-rule="evenodd" transform="matrix(1 0 0 1 0 0)" d="M57.00108 342.0948L127.1809 342.0948L127.1809 342.0948L127.1809 326.7722L127.1809 326.7722L57.00108 326.7722z" /></clipPath><clipPath id="19"><path id="" clip-rule="evenodd" transform="matrix(1 0 0 1 0 0)" d="M127.1809 342.0948L548.2599 342.0948L548.2599 342.0948L548.2599 326.7722L548.2599 326.7722L127.1809 326.7722z" /></clipPath><clipPath id="20"><path id="" clip-rule="evenodd" transform="matrix(1 0 0 1 0 0)" d="M127.1809 342.0948L548.2599 342.0948L548.2599 342.0948L548.2599 326.7722L548.2599 326.7722L127.1809 326.7722z" /></clipPath><clipPath id="21"><path id="" clip-rule="evenodd" transform="matrix(1 0 0 1 0 0)" d="M127.1809 342.0948L548.2599 342.0948L548.2599 342.0948L548.2599 326.7722L548.2599 326.7722L127.1809 326.7722z" /></clipPath><clipPath id="22"><path id="" clip-rule="evenodd" transform="matrix(1 0 0 1 0 0)" d="M127.1809 342.0948L548.2599 342.0948L548.2599 342.0948L548.2599 326.7722L548.2599 326.7722L127.1809 326.7722z" /></clipPath><clipPath id="23"><path id="" clip-rule="evenodd" transform="matrix(1 0 0 1 0 0)" d="M127.1809 342.0948L548.2599 342.0948L548.2599 342.0948L548.2599 326.7722L548.2599 326.7722L127.1809 326.7722z" /></clipPath><clipPath id="24"><path id="" clip-rule="evenodd" transform="matrix(1 0 0 1 0 0)" d="M127.1809 342.0948L548.2599 342.0948L548.2599 342.0948L548.2599 326.7722L548.2599 326.7722L127.1809 326.7722z" /></clipPath><clipPath id="25"><path id="" clip-rule="evenodd" transform="matrix(1 0 0 1 0 0)" d="M127.1809 342.0948L548.2599 342.0948L548.2599 342.0948L548.2599 326.7722L548.2599 326.7722L127.1809 326.7722z" /></clipPath><clipPath id="26"><path id="" clip-rule="evenodd" transform="matrix(1 0 0 1 0 0)" d="M127.1809 342.0948L548.2599 342.0948L548.2599 342.0948L548.2599 326.7722L548.2599 326.7722L127.1809 326.7722z" /></clipPath><clipPath id="27"><path id="" clip-rule="evenodd" transform="matrix(1 0 0 1 0 0)" d="M127.1809 342.0948L548.2599 342.0948L548.2599 342.0948L548.2599 326.7722L548.2599 326.7722L127.1809 326.7722z" /></clipPath><clipPath id="28"><path id="" clip-rule="evenodd" transform="matrix(1 0 0 1 0 0)" d="M127.1809 342.0948L548.2599 342.0948L548.2599 342.0948L548.2599 326.7722L548.2599 326.7722L127.1809 326.7722z" /></clipPath><clipPath id="29"><path id="" clip-rule="evenodd" transform="matrix(1 0 0 1 0 0)" d="M127.1809 342.0948L548.2599 342.0948L548.2599 342.0948L548.2599 326.7722L548.2599 326.7722L127.1809 326.7722z" /></clipPath><clipPath id="30"><path id="" clip-rule="evenodd" transform="matrix(1 0 0 1 0 0)" d="M127.1809 342.0948L548.2599 342.0948L548.2599 342.0948L548.2599 326.7722L548.2599 326.7722L127.1809 326.7722z" /></clipPath><clipPath id="31"><path id="" clip-rule="evenodd" transform="matrix(1 0 0 1 0 0)" d="M57.00108 357.4758L127.1809 357.4758L127.1809 357.4758L127.1809 342.0948L127.1809 342.0948L57.00108 342.0948z" /></clipPath><clipPath id="32"><path id="" clip-rule="evenodd" transform="matrix(1 0 0 1 0 0)" d="M57.00108 357.4758L127.1809 357.4758L127.1809 357.4758L127.1809 342.0948L127.1809 342.0948L57.00108 342.0948z" /></clipPath><clipPath id="33"><path id="" clip-rule="evenodd" transform="matrix(1 0 0 1 0 0)" d="M57.00108 357.4758L127.1809 357.4758L127.1809 357.4758L127.1809 342.0948L127.1809 342.0948L57.00108 342.0948z" /></clipPath><clipPath id="34"><path id="" clip-rule="evenodd" transform="matrix(1 0 0 1 0 0)" d="M57.00108 357.4758L127.1809 357.4758L127.1809 357.4758L127.1809 342.0948L127.1809 342.0948L57.00108 342.0948z" /></clipPath><clipPath id="35"><path id="" clip-rule="evenodd" transform="matrix(1 0 0 1 0 0)" d="M57.00108 357.4758L127.1809 357.4758L127.1809 357.4758L127.1809 342.0948L127.1809 342.0948L57.00108 342.0948z" /></clipPath><clipPath id="36"><path id="" clip-rule="evenodd" transform="matrix(1 0 0 1 0 0)" d="M57.00108 357.4758L127.1809 357.4758L127.1809 357.4758L127.1809 342.0948L127.1809 342.0948L57.00108 342.0948z" /></clipPath><clipPath id="37"><path id="" clip-rule="evenodd" transform="matrix(1 0 0 1 0 0)" d="M57.00108 357.4758L127.1809 357.4758L127.1809 357.4758L127.1809 342.0948L127.1809 342.0948L57.00108 342.0948z" /></clipPath><clipPath id="38"><path id="" clip-rule="evenodd" transform="matrix(1 0 0 1 0 0)" d="M57.00108 357.4758L127.1809 357.4758L127.1809 357.4758L127.1809 342.0948L127.1809 342.0948L57.00108 342.0948z" /></clipPath><clipPath id="39"><path id="" clip-rule="evenodd" transform="matrix(1 0 0 1 0 0)" d="M57.00108 357.4758L127.1809 357.4758L127.1809 357.4758L127.1809 342.0948L127.1809 342.0948L57.00108 342.0948z" /></clipPath><clipPath id="40"><path id="" clip-rule="evenodd" transform="matrix(1 0 0 1 0 0)" d="M57.00108 357.4758L127.1809 357.4758L127.1809 357.4758L127.1809 342.0948L127.1809 342.0948L57.00108 342.0948z" /></clipPath><clipPath id="41"><path id="" clip-rule="evenodd" transform="matrix(1 0 0 1 0 0)" d="M57.00108 357.4758L127.1809 357.4758L127.1809 357.4758L127.1809 342.0948L127.1809 342.0948L57.00108 342.0948z" /></clipPath><clipPath id="42"><path id="" clip-rule="evenodd" transform="matrix(1 0 0 1 0 0)" d="M57.00108 357.4758L127.1809 357.4758L127.1809 357.4758L127.1809 342.0948L127.1809 342.0948L57.00108 342.0948z" /></clipPath><clipPath id="43"><path id="" clip-rule="evenodd" transform="matrix(1 0 0 1 0 0)" d="M127.1809 357.4758L548.2599 357.4758L548.2599 357.4758L548.2599 342.0948L548.2599 342.0948L127.1809 342.0948z" /></clipPath><clipPath id="44"><path id="" clip-rule="evenodd" transform="matrix(1 0 0 1 0 0)" d="M127.1809 357.4758L548.2599 357.4758L548.2599 357.4758L548.2599 342.0948L548.2599 342.0948L127.1809 342.0948z" /></clipPath><clipPath id="45"><path id="" clip-rule="evenodd" transform="matrix(1 0 0 1 0 0)" d="M127.1809 357.4758L548.2599 357.4758L548.2599 357.4758L548.2599 342.0948L548.2599 342.0948L127.1809 342.0948z" /></clipPath><clipPath id="46"><path id="" clip-rule="evenodd" transform="matrix(1 0 0 1 0 0)" d="M127.1809 357.4758L548.2599 357.4758L548.2599 357.4758L548.2599 342.0948L548.2599 342.0948L127.1809 342.0948z" /></clipPath><clipPath id="47"><path id="" clip-rule="evenodd" transform="matrix(1 0 0 1 0 0)" d="M127.1809 357.4758L548.2599 357.4758L548.2599 357.4758L548.2599 342.0948L548.2599 342.0948L127.1809 342.0948z" /></clipPath><clipPath id="48"><path id="" clip-rule="evenodd" transform="matrix(1 0 0 1 0 0)" d="M127.1809 357.4758L548.2599 357.4758L548.2599 357.4758L548.2599 342.0948L548.2599 342.0948L127.1809 342.0948z" /></clipPath><clipPath id="49"><path id="" clip-rule="evenodd" transform="matrix(1 0 0 1 0 0)" d="M127.1809 357.4758L548.2599 357.4758L548.2599 357.4758L548.2599 342.0948L548.2599 342.0948L127.1809 342.0948z" /></clipPath><clipPath id="50"><path id="" clip-rule="evenodd" transform="matrix(1 0 0 1 0 0)" d="M127.1809 357.4758L548.2599 357.4758L548.2599 357.4758L548.2599 342.0948L548.2599 342.0948L127.1809 342.0948z" /></clipPath><clipPath id="51"><path id="" clip-rule="evenodd" transform="matrix(1 0 0 1 0 0)" d="M127.1809 357.4758L548.2599 357.4758L548.2599 357.4758L548.2599 342.0948L548.2599 342.0948L127.1809 342.0948z" /></clipPath><clipPath id="52"><path id="" clip-rule="evenodd" transform="matrix(1 0 0 1 0 0)" d="M127.1809 357.4758L548.2599 357.4758L548.2599 357.4758L548.2599 342.0948L548.2599 342.0948L127.1809 342.0948z" /></clipPath><clipPath id="53"><path id="" clip-rule="evenodd" transform="matrix(1 0 0 1 0 0)" d="M57.00108 372.7984L127.1809 372.7984L127.1809 372.7984L127.1809 357.4758L127.1809 357.4758L57.00108 357.4758z" /></clipPath><clipPath id="54"><path id="" clip-rule="evenodd" transform="matrix(1 0 0 1 0 0)" d="M57.00108 372.7984L127.1809 372.7984L127.1809 372.7984L127.1809 357.4758L127.1809 357.4758L57.00108 357.4758z" /></clipPath><clipPath id="55"><path id="" clip-rule="evenodd" transform="matrix(1 0 0 1 0 0)" d="M57.00108 372.7984L127.1809 372.7984L127.1809 372.7984L127.1809 357.4758L127.1809 357.4758L57.00108 357.4758z" /></clipPath><clipPath id="56"><path id="" clip-rule="evenodd" transform="matrix(1 0 0 1 0 0)" d="M57.00108 372.7984L127.1809 372.7984L127.1809 372.7984L127.1809 357.4758L127.1809 357.4758L57.00108 357.4758z" /></clipPath><clipPath id="57"><path id="" clip-rule="evenodd" transform="matrix(1 0 0 1 0 0)" d="M57.00108 372.7984L127.1809 372.7984L127.1809 372.7984L127.1809 357.4758L127.1809 357.4758L57.00108 357.4758z" /></clipPath><clipPath id="58"><path id="" clip-rule="evenodd" transform="matrix(1 0 0 1 0 0)" d="M57.00108 372.7984L127.1809 372.7984L127.1809 372.7984L127.1809 357.4758L127.1809 357.4758L57.00108 357.4758z" /></clipPath><clipPath id="59"><path id="" clip-rule="evenodd" transform="matrix(1 0 0 1 0 0)" d="M57.00108 372.7984L127.1809 372.7984L127.1809 372.7984L127.1809 357.4758L127.1809 357.4758L57.00108 357.4758z" /></clipPath><clipPath id="60"><path id="" clip-rule="evenodd" transform="matrix(1 0 0 1 0 0)" d="M57.00108 372.7984L127.1809 372.7984L127.1809 372.7984L127.1809 357.4758L127.1809 357.4758L57.00108 357.4758z" /></clipPath><clipPath id="61"><path id="" clip-rule="evenodd" transform="matrix(1 0 0 1 0 0)" d="M57.00108 372.7984L127.1809 372.7984L127.1809 372.7984L127.1809 357.4758L127.1809 357.4758L57.00108 357.4758z" /></clipPath><clipPath id="62"><path id="" clip-rule="evenodd" transform="matrix(1 0 0 1 0 0)" d="M57.00108 372.7984L127.1809 372.7984L127.1809 372.7984L127.1809 357.4758L127.1809 357.4758L57.00108 357.4758z" /></clipPath><clipPath id="63"><path id="" clip-rule="evenodd" transform="matrix(1 0 0 1 0 0)" d="M57.00108 372.7984L127.1809 372.7984L127.1809 372.7984L127.1809 357.4758L127.1809 357.4758L57.00108 357.4758z" /></clipPath><clipPath id="64"><path id="" clip-rule="evenodd" transform="matrix(1 0 0 1 0 0)" d="M57.00108 372.7984L127.1809 372.7984L127.1809 372.7984L127.1809 357.4758L127.1809 357.4758L57.00108 357.4758z" /></clipPath><clipPath id="65"><path id="" clip-rule="evenodd" transform="matrix(1 0 0 1 0 0)" d="M127.1809 372.7984L548.2599 372.7984L548.2599 372.7984L548.2599 357.4758L548.2599 357.4758L127.1809 357.4758z" /></clipPath><clipPath id="66"><path id="" clip-rule="evenodd" transform="matrix(1 0 0 1 0 0)" d="M127.1809 372.7984L548.2599 372.7984L548.2599 372.7984L548.2599 357.4758L548.2599 357.4758L127.1809 357.4758z" /></clipPath><clipPath id="67"><path id="" clip-rule="evenodd" transform="matrix(1 0 0 1 0 0)" d="M127.1809 372.7984L548.2599 372.7984L548.2599 372.7984L548.2599 357.4758L548.2599 357.4758L127.1809 357.4758z" /></clipPath><clipPath id="68"><path id="" clip-rule="evenodd" transform="matrix(1 0 0 1 0 0)" d="M127.1809 372.7984L548.2599 372.7984L548.2599 372.7984L548.2599 357.4758L548.2599 357.4758L127.1809 357.4758z" /></clipPath><clipPath id="69"><path id="" clip-rule="evenodd" transform="matrix(1 0 0 1 0 0)" d="M57.00108 388.1795L127.1809 388.1795L127.1809 388.1795L127.1809 372.7984L127.1809 372.7984L57.00108 372.7984z" /></clipPath><clipPath id="70"><path id="" clip-rule="evenodd" transform="matrix(1 0 0 1 0 0)" d="M57.00108 388.1795L127.1809 388.1795L127.1809 388.1795L127.1809 372.7984L127.1809 372.7984L57.00108 372.7984z" /></clipPath><clipPath id="71"><path id="" clip-rule="evenodd" transform="matrix(1 0 0 1 0 0)" d="M57.00108 388.1795L127.1809 388.1795L127.1809 388.1795L127.1809 372.7984L127.1809 372.7984L57.00108 372.7984z" /></clipPath><clipPath id="72"><path id="" clip-rule="evenodd" transform="matrix(1 0 0 1 0 0)" d="M57.00108 388.1795L127.1809 388.1795L127.1809 388.1795L127.1809 372.7984L127.1809 372.7984L57.00108 372.7984z" /></clipPath><clipPath id="73"><path id="" clip-rule="evenodd" transform="matrix(1 0 0 1 0 0)" d="M57.00108 388.1795L127.1809 388.1795L127.1809 388.1795L127.1809 372.7984L127.1809 372.7984L57.00108 372.7984z" /></clipPath><clipPath id="74"><path id="" clip-rule="evenodd" transform="matrix(1 0 0 1 0 0)" d="M57.00108 388.1795L127.1809 388.1795L127.1809 388.1795L127.1809 372.7984L127.1809 372.7984L57.00108 372.7984z" /></clipPath><clipPath id="75"><path id="" clip-rule="evenodd" transform="matrix(1 0 0 1 0 0)" d="M57.00108 388.1795L127.1809 388.1795L127.1809 388.1795L127.1809 372.7984L127.1809 372.7984L57.00108 372.7984z" /></clipPath><clipPath id="76"><path id="" clip-rule="evenodd" transform="matrix(1 0 0 1 0 0)" d="M57.00108 388.1795L127.1809 388.1795L127.1809 388.1795L127.1809 372.7984L127.1809 372.7984L57.00108 372.7984z" /></clipPath><clipPath id="77"><path id="" clip-rule="evenodd" transform="matrix(1 0 0 1 0 0)" d="M57.00108 388.1795L127.1809 388.1795L127.1809 388.1795L127.1809 372.7984L127.1809 372.7984L57.00108 372.7984z" /></clipPath><clipPath id="78"><path id="" clip-rule="evenodd" transform="matrix(1 0 0 1 0 0)" d="M57.00108 388.1795L127.1809 388.1795L127.1809 388.1795L127.1809 372.7984L127.1809 372.7984L57.00108 372.7984z" /></clipPath><clipPath id="79"><path id="" clip-rule="evenodd" transform="matrix(1 0 0 1 0 0)" d="M127.1809 388.1795L548.2599 388.1795L548.2599 388.1795L548.2599 372.7984L548.2599 372.7984L127.1809 372.7984z" /></clipPath><clipPath id="80"><path id="" clip-rule="evenodd" transform="matrix(1 0 0 1 0 0)" d="M127.1809 388.1795L548.2599 388.1795L548.2599 388.1795L548.2599 372.7984L548.2599 372.7984L127.1809 372.7984z" /></clipPath><clipPath id="81"><path id="" clip-rule="evenodd" transform="matrix(1 0 0 1 0 0)" d="M127.1809 388.1795L548.2599 388.1795L548.2599 388.1795L548.2599 372.7984L548.2599 372.7984L127.1809 372.7984z" /></clipPath><clipPath id="82"><path id="" clip-rule="evenodd" transform="matrix(1 0 0 1 0 0)" d="M127.1809 388.1795L548.2599 388.1795L548.2599 388.1795L548.2599 372.7984L548.2599 372.7984L127.1809 372.7984z" /></clipPath><clipPath id="83"><path id="" clip-rule="evenodd" transform="matrix(1 0 0 1 0 0)" d="M57.00108 416.9533L548.2599 416.9533L548.2599 416.9533L548.2599 401.6307L548.2599 401.6307L57.00108 401.6307z" /></clipPath><clipPath id="84"><path id="" clip-rule="evenodd" transform="matrix(1 0 0 1 0 0)" d="M57.00108 416.9533L548.2599 416.9533L548.2599 416.9533L548.2599 401.6307L548.2599 401.6307L57.00108 401.6307z" /></clipPath><clipPath id="85"><path id="" clip-rule="evenodd" transform="matrix(1 0 0 1 0 0)" d="M57.00108 416.9533L548.2599 416.9533L548.2599 416.9533L548.2599 401.6307L548.2599 401.6307L57.00108 401.6307z" /></clipPath><clipPath id="86"><path id="" clip-rule="evenodd" transform="matrix(1 0 0 1 0 0)" d="M57.00108 416.9533L548.2599 416.9533L548.2599 416.9533L548.2599 401.6307L548.2599 401.6307L57.00108 401.6307z" /></clipPath><clipPath id="87"><path id="" clip-rule="evenodd" transform="matrix(1 0 0 1 0 0)" d="M57.00108 416.9533L548.2599 416.9533L548.2599 416.9533L548.2599 401.6307L548.2599 401.6307L57.00108 401.6307z" /></clipPath><clipPath id="88"><path id="" clip-rule="evenodd" transform="matrix(1 0 0 1 0 0)" d="M57.00108 416.9533L548.2599 416.9533L548.2599 416.9533L548.2599 401.6307L548.2599 401.6307L57.00108 401.6307z" /></clipPath><clipPath id="89"><path id="" clip-rule="evenodd" transform="matrix(1 0 0 1 0 0)" d="M57.00108 416.9533L548.2599 416.9533L548.2599 416.9533L548.2599 401.6307L548.2599 401.6307L57.00108 401.6307z" /></clipPath><clipPath id="90"><path id="" clip-rule="evenodd" transform="matrix(1 0 0 1 0 0)" d="M57.00108 416.9533L548.2599 416.9533L548.2599 416.9533L548.2599 401.6307L548.2599 401.6307L57.00108 401.6307z" /></clipPath><clipPath id="91"><path id="" clip-rule="evenodd" transform="matrix(1 0 0 1 0 0)" d="M57.00108 432.3344L127.1809 432.3344L127.1809 432.3344L127.1809 416.9533L127.1809 416.9533L57.00108 416.9533z" /></clipPath><clipPath id="92"><path id="" clip-rule="evenodd" transform="matrix(1 0 0 1 0 0)" d="M57.00108 432.3344L127.1809 432.3344L127.1809 432.3344L127.1809 416.9533L127.1809 416.9533L57.00108 416.9533z" /></clipPath><clipPath id="93"><path id="" clip-rule="evenodd" transform="matrix(1 0 0 1 0 0)" d="M57.00108 432.3344L127.1809 432.3344L127.1809 432.3344L127.1809 416.9533L127.1809 416.9533L57.00108 416.9533z" /></clipPath><clipPath id="94"><path id="" clip-rule="evenodd" transform="matrix(1 0 0 1 0 0)" d="M57.00108 432.3344L127.1809 432.3344L127.1809 432.3344L127.1809 416.9533L127.1809 416.9533L57.00108 416.9533z" /></clipPath><clipPath id="95"><path id="" clip-rule="evenodd" transform="matrix(1 0 0 1 0 0)" d="M57.00108 432.3344L127.1809 432.3344L127.1809 432.3344L127.1809 416.9533L127.1809 416.9533L57.00108 416.9533z" /></clipPath><clipPath id="96"><path id="" clip-rule="evenodd" transform="matrix(1 0 0 1 0 0)" d="M57.00108 432.3344L127.1809 432.3344L127.1809 432.3344L127.1809 416.9533L127.1809 416.9533L57.00108 416.9533z" /></clipPath><clipPath id="97"><path id="" clip-rule="evenodd" transform="matrix(1 0 0 1 0 0)" d="M57.00108 432.3344L127.1809 432.3344L127.1809 432.3344L127.1809 416.9533L127.1809 416.9533L57.00108 416.9533z" /></clipPath><clipPath id="98"><path id="" clip-rule="evenodd" transform="matrix(1 0 0 1 0 0)" d="M57.00108 432.3344L127.1809 432.3344L127.1809 432.3344L127.1809 416.9533L127.1809 416.9533L57.00108 416.9533z" /></clipPath><clipPath id="99"><path id="" clip-rule="evenodd" transform="matrix(1 0 0 1 0 0)" d="M57.00108 432.3344L127.1809 432.3344L127.1809 432.3344L127.1809 416.9533L127.1809 416.9533L57.00108 416.9533z" /></clipPath><clipPath id="100"><path id="" clip-rule="evenodd" transform="matrix(1 0 0 1 0 0)" d="M57.00108 432.3344L127.1809 432.3344L127.1809 432.3344L127.1809 416.9533L127.1809 416.9533L57.00108 416.9533z" /></clipPath><clipPath id="101"><path id="" clip-rule="evenodd" transform="matrix(1 0 0 1 0 0)" d="M127.1809 432.3344L548.2599 432.3344L548.2599 432.3344L548.2599 416.9533L548.2599 416.9533L127.1809 416.9533z" /></clipPath><clipPath id="102"><path id="" clip-rule="evenodd" transform="matrix(1 0 0 1 0 0)" d="M127.1809 432.3344L548.2599 432.3344L548.2599 432.3344L548.2599 416.9533L548.2599 416.9533L127.1809 416.9533z" /></clipPath><clipPath id="103"><path id="" clip-rule="evenodd" transform="matrix(1 0 0 1 0 0)" d="M127.1809 432.3344L548.2599 432.3344L548.2599 432.3344L548.2599 416.9533L548.2599 416.9533L127.1809 416.9533z" /></clipPath><clipPath id="104"><path id="" clip-rule="evenodd" transform="matrix(1 0 0 1 0 0)" d="M127.1809 432.3344L548.2599 432.3344L548.2599 432.3344L548.2599 416.9533L548.2599 416.9533L127.1809 416.9533z" /></clipPath><clipPath id="105"><path id="" clip-rule="evenodd" transform="matrix(1 0 0 1 0 0)" d="M127.1809 432.3344L548.2599 432.3344L548.2599 432.3344L548.2599 416.9533L548.2599 416.9533L127.1809 416.9533z" /></clipPath><clipPath id="106"><path id="" clip-rule="evenodd" transform="matrix(1 0 0 1 0 0)" d="M127.1809 432.3344L548.2599 432.3344L548.2599 432.3344L548.2599 416.9533L548.2599 416.9533L127.1809 416.9533z" /></clipPath><clipPath id="107"><path id="" clip-rule="evenodd" transform="matrix(1 0 0 1 0 0)" d="M127.1809 432.3344L548.2599 432.3344L548.2599 432.3344L548.2599 416.9533L548.2599 416.9533L127.1809 416.9533z" /></clipPath><clipPath id="108"><path id="" clip-rule="evenodd" transform="matrix(1 0 0 1 0 0)" d="M127.1809 432.3344L548.2599 432.3344L548.2599 432.3344L548.2599 416.9533L548.2599 416.9533L127.1809 416.9533z" /></clipPath><clipPath id="109"><path id="" clip-rule="evenodd" transform="matrix(1 0 0 1 0 0)" d="M57.00108 447.657L127.1809 447.657L127.1809 447.657L127.1809 432.3344L127.1809 432.3344L57.00108 432.3344z" /></clipPath><clipPath id="110"><path id="" clip-rule="evenodd" transform="matrix(1 0 0 1 0 0)" d="M57.00108 447.657L127.1809 447.657L127.1809 447.657L127.1809 432.3344L127.1809 432.3344L57.00108 432.3344z" /></clipPath><clipPath id="111"><path id="" clip-rule="evenodd" transform="matrix(1 0 0 1 0 0)" d="M57.00108 447.657L127.1809 447.657L127.1809 447.657L127.1809 432.3344L127.1809 432.3344L57.00108 432.3344z" /></clipPath><clipPath id="112"><path id="" clip-rule="evenodd" transform="matrix(1 0 0 1 0 0)" d="M57.00108 447.657L127.1809 447.657L127.1809 447.657L127.1809 432.3344L127.1809 432.3344L57.00108 432.3344z" /></clipPath><clipPath id="113"><path id="" clip-rule="evenodd" transform="matrix(1 0 0 1 0 0)" d="M57.00108 447.657L127.1809 447.657L127.1809 447.657L127.1809 432.3344L127.1809 432.3344L57.00108 432.3344z" /></clipPath><clipPath id="114"><path id="" clip-rule="evenodd" transform="matrix(1 0 0 1 0 0)" d="M57.00108 447.657L127.1809 447.657L127.1809 447.657L127.1809 432.3344L127.1809 432.3344L57.00108 432.3344z" /></clipPath><clipPath id="115"><path id="" clip-rule="evenodd" transform="matrix(1 0 0 1 0 0)" d="M57.00108 447.657L127.1809 447.657L127.1809 447.657L127.1809 432.3344L127.1809 432.3344L57.00108 432.3344z" /></clipPath><clipPath id="116"><path id="" clip-rule="evenodd" transform="matrix(1 0 0 1 0 0)" d="M57.00108 447.657L127.1809 447.657L127.1809 447.657L127.1809 432.3344L127.1809 432.3344L57.00108 432.3344z" /></clipPath><clipPath id="117"><path id="" clip-rule="evenodd" transform="matrix(1 0 0 1 0 0)" d="M57.00108 447.657L127.1809 447.657L127.1809 447.657L127.1809 432.3344L127.1809 432.3344L57.00108 432.3344z" /></clipPath><clipPath id="118"><path id="" clip-rule="evenodd" transform="matrix(1 0 0 1 0 0)" d="M57.00108 447.657L127.1809 447.657L127.1809 447.657L127.1809 432.3344L127.1809 432.3344L57.00108 432.3344z" /></clipPath><clipPath id="119"><path id="" clip-rule="evenodd" transform="matrix(1 0 0 1 0 0)" d="M127.1809 447.657L548.2599 447.657L548.2599 447.657L548.2599 432.3344L548.2599 432.3344L127.1809 432.3344z" /></clipPath><clipPath id="120"><path id="" clip-rule="evenodd" transform="matrix(1 0 0 1 0 0)" d="M127.1809 447.657L548.2599 447.657L548.2599 447.657L548.2599 432.3344L548.2599 432.3344L127.1809 432.3344z" /></clipPath><clipPath id="121"><path id="" clip-rule="evenodd" transform="matrix(1 0 0 1 0 0)" d="M127.1809 447.657L548.2599 447.657L548.2599 447.657L548.2599 432.3344L548.2599 432.3344L127.1809 432.3344z" /></clipPath><clipPath id="122"><path id="" clip-rule="evenodd" transform="matrix(1 0 0 1 0 0)" d="M127.1809 447.657L548.2599 447.657L548.2599 447.657L548.2599 432.3344L548.2599 432.3344L127.1809 432.3344z" /></clipPath><clipPath id="123"><path id="" clip-rule="evenodd" transform="matrix(1 0 0 1 0 0)" d="M127.1809 447.657L548.2599 447.657L548.2599 447.657L548.2599 432.3344L548.2599 432.3344L127.1809 432.3344z" /></clipPath><clipPath id="124"><path id="" clip-rule="evenodd" transform="matrix(1 0 0 1 0 0)" d="M127.1809 447.657L548.2599 447.657L548.2599 447.657L548.2599 432.3344L548.2599 432.3344L127.1809 432.3344z" /></clipPath><clipPath id="125"><path id="" clip-rule="evenodd" transform="matrix(1 0 0 1 0 0)" d="M57.00108 463.038L127.1809 463.038L127.1809 463.038L127.1809 447.657L127.1809 447.657L57.00108 447.657z" /></clipPath><clipPath id="126"><path id="" clip-rule="evenodd" transform="matrix(1 0 0 1 0 0)" d="M57.00108 463.038L127.1809 463.038L127.1809 463.038L127.1809 447.657L127.1809 447.657L57.00108 447.657z" /></clipPath><clipPath id="127"><path id="" clip-rule="evenodd" transform="matrix(1 0 0 1 0 0)" d="M57.00108 463.038L127.1809 463.038L127.1809 463.038L127.1809 447.657L127.1809 447.657L57.00108 447.657z" /></clipPath><clipPath id="128"><path id="" clip-rule="evenodd" transform="matrix(1 0 0 1 0 0)" d="M57.00108 463.038L127.1809 463.038L127.1809 463.038L127.1809 447.657L127.1809 447.657L57.00108 447.657z" /></clipPath><clipPath id="129"><path id="" clip-rule="evenodd" transform="matrix(1 0 0 1 0 0)" d="M57.00108 463.038L127.1809 463.038L127.1809 463.038L127.1809 447.657L127.1809 447.657L57.00108 447.657z" /></clipPath><clipPath id="130"><path id="" clip-rule="evenodd" transform="matrix(1 0 0 1 0 0)" d="M57.00108 463.038L127.1809 463.038L127.1809 463.038L127.1809 447.657L127.1809 447.657L57.00108 447.657z" /></clipPath><clipPath id="131"><path id="" clip-rule="evenodd" transform="matrix(1 0 0 1 0 0)" d="M57.00108 463.038L127.1809 463.038L127.1809 463.038L127.1809 447.657L127.1809 447.657L57.00108 447.657z" /></clipPath><clipPath id="132"><path id="" clip-rule="evenodd" transform="matrix(1 0 0 1 0 0)" d="M57.00108 463.038L127.1809 463.038L127.1809 463.038L127.1809 447.657L127.1809 447.657L57.00108 447.657z" /></clipPath><clipPath id="133"><path id="" clip-rule="evenodd" transform="matrix(1 0 0 1 0 0)" d="M57.00108 463.038L127.1809 463.038L127.1809 463.038L127.1809 447.657L127.1809 447.657L57.00108 447.657z" /></clipPath><clipPath id="134"><path id="" clip-rule="evenodd" transform="matrix(1 0 0 1 0 0)" d="M57.00108 463.038L127.1809 463.038L127.1809 463.038L127.1809 447.657L127.1809 447.657L57.00108 447.657z" /></clipPath><clipPath id="135"><path id="" clip-rule="evenodd" transform="matrix(1 0 0 1 0 0)" d="M127.1809 463.038L548.2599 463.038L548.2599 463.038L548.2599 447.657L548.2599 447.657L127.1809 447.657z" /></clipPath><clipPath id="136"><path id="" clip-rule="evenodd" transform="matrix(1 0 0 1 0 0)" d="M127.1809 463.038L548.2599 463.038L548.2599 463.038L548.2599 447.657L548.2599 447.657L127.1809 447.657z" /></clipPath><clipPath id="137"><path id="" clip-rule="evenodd" transform="matrix(1 0 0 1 0 0)" d="M127.1809 463.038L548.2599 463.038L548.2599 463.038L548.2599 447.657L548.2599 447.657L127.1809 447.657z" /></clipPath><clipPath id="138"><path id="" clip-rule="evenodd" transform="matrix(1 0 0 1 0 0)" d="M127.1809 463.038L548.2599 463.038L548.2599 463.038L548.2599 447.657L548.2599 447.657L127.1809 447.657z" /></clipPath><clipPath id="139"><path id="" clip-rule="evenodd" transform="matrix(1 0 0 1 0 0)" d="M57.00108 478.3606L127.1809 478.3606L127.1809 478.3606L127.1809 463.038L127.1809 463.038L57.00108 463.038z" /></clipPath><clipPath id="140"><path id="" clip-rule="evenodd" transform="matrix(1 0 0 1 0 0)" d="M57.00108 478.3606L127.1809 478.3606L127.1809 478.3606L127.1809 463.038L127.1809 463.038L57.00108 463.038z" /></clipPath><clipPath id="141"><path id="" clip-rule="evenodd" transform="matrix(1 0 0 1 0 0)" d="M57.00108 478.3606L127.1809 478.3606L127.1809 478.3606L127.1809 463.038L127.1809 463.038L57.00108 463.038z" /></clipPath><clipPath id="142"><path id="" clip-rule="evenodd" transform="matrix(1 0 0 1 0 0)" d="M57.00108 478.3606L127.1809 478.3606L127.1809 478.3606L127.1809 463.038L127.1809 463.038L57.00108 463.038z" /></clipPath><clipPath id="143"><path id="" clip-rule="evenodd" transform="matrix(1 0 0 1 0 0)" d="M57.00108 478.3606L127.1809 478.3606L127.1809 478.3606L127.1809 463.038L127.1809 463.038L57.00108 463.038z" /></clipPath><clipPath id="144"><path id="" clip-rule="evenodd" transform="matrix(1 0 0 1 0 0)" d="M57.00108 478.3606L127.1809 478.3606L127.1809 478.3606L127.1809 463.038L127.1809 463.038L57.00108 463.038z" /></clipPath><clipPath id="145"><path id="" clip-rule="evenodd" transform="matrix(1 0 0 1 0 0)" d="M57.00108 478.3606L127.1809 478.3606L127.1809 478.3606L127.1809 463.038L127.1809 463.038L57.00108 463.038z" /></clipPath><clipPath id="146"><path id="" clip-rule="evenodd" transform="matrix(1 0 0 1 0 0)" d="M57.00108 478.3606L127.1809 478.3606L127.1809 478.3606L127.1809 463.038L127.1809 463.038L57.00108 463.038z" /></clipPath><clipPath id="147"><path id="" clip-rule="evenodd" transform="matrix(1 0 0 1 0 0)" d="M57.00108 478.3606L127.1809 478.3606L127.1809 478.3606L127.1809 463.038L127.1809 463.038L57.00108 463.038z" /></clipPath><clipPath id="148"><path id="" clip-rule="evenodd" transform="matrix(1 0 0 1 0 0)" d="M57.00108 478.3606L127.1809 478.3606L127.1809 478.3606L127.1809 463.038L127.1809 463.038L57.00108 463.038z" /></clipPath><clipPath id="149"><path id="" clip-rule="evenodd" transform="matrix(1 0 0 1 0 0)" d="M127.1809 478.3606L548.2599 478.3606L548.2599 478.3606L548.2599 463.038L548.2599 463.038L127.1809 463.038z" /></clipPath><clipPath id="150"><path id="" clip-rule="evenodd" transform="matrix(1 0 0 1 0 0)" d="M127.1809 478.3606L548.2599 478.3606L548.2599 478.3606L548.2599 463.038L548.2599 463.038L127.1809 463.038z" /></clipPath><clipPath id="151"><path id="" clip-rule="evenodd" transform="matrix(1 0 0 1 0 0)" d="M127.1809 478.3606L548.2599 478.3606L548.2599 478.3606L548.2599 463.038L548.2599 463.038L127.1809 463.038z" /></clipPath><clipPath id="152"><path id="" clip-rule="evenodd" transform="matrix(1 0 0 1 0 0)" d="M127.1809 478.3606L548.2599 478.3606L548.2599 478.3606L548.2599 463.038L548.2599 463.038L127.1809 463.038z" /></clipPath><clipPath id="153"><path id="" clip-rule="evenodd" transform="matrix(1 0 0 1 0 0)" d="M57.00108 493.7417L127.1809 493.7417L127.1809 493.7417L127.1809 478.3606L127.1809 478.3606L57.00108 478.3606z" /></clipPath><clipPath id="154"><path id="" clip-rule="evenodd" transform="matrix(1 0 0 1 0 0)" d="M57.00108 493.7417L127.1809 493.7417L127.1809 493.7417L127.1809 478.3606L127.1809 478.3606L57.00108 478.3606z" /></clipPath><clipPath id="155"><path id="" clip-rule="evenodd" transform="matrix(1 0 0 1 0 0)" d="M57.00108 493.7417L127.1809 493.7417L127.1809 493.7417L127.1809 478.3606L127.1809 478.3606L57.00108 478.3606z" /></clipPath><clipPath id="156"><path id="" clip-rule="evenodd" transform="matrix(1 0 0 1 0 0)" d="M57.00108 493.7417L127.1809 493.7417L127.1809 493.7417L127.1809 478.3606L127.1809 478.3606L57.00108 478.3606z" /></clipPath><clipPath id="157"><path id="" clip-rule="evenodd" transform="matrix(1 0 0 1 0 0)" d="M57.00108 493.7417L127.1809 493.7417L127.1809 493.7417L127.1809 478.3606L127.1809 478.3606L57.00108 478.3606z" /></clipPath><clipPath id="158"><path id="" clip-rule="evenodd" transform="matrix(1 0 0 1 0 0)" d="M57.00108 493.7417L127.1809 493.7417L127.1809 493.7417L127.1809 478.3606L127.1809 478.3606L57.00108 478.3606z" /></clipPath><clipPath id="159"><path id="" clip-rule="evenodd" transform="matrix(1 0 0 1 0 0)" d="M57.00108 493.7417L127.1809 493.7417L127.1809 493.7417L127.1809 478.3606L127.1809 478.3606L57.00108 478.3606z" /></clipPath><clipPath id="160"><path id="" clip-rule="evenodd" transform="matrix(1 0 0 1 0 0)" d="M57.00108 493.7417L127.1809 493.7417L127.1809 493.7417L127.1809 478.3606L127.1809 478.3606L57.00108 478.3606z" /></clipPath><clipPath id="161"><path id="" clip-rule="evenodd" transform="matrix(1 0 0 1 0 0)" d="M57.00108 493.7417L127.1809 493.7417L127.1809 493.7417L127.1809 478.3606L127.1809 478.3606L57.00108 478.3606z" /></clipPath><clipPath id="162"><path id="" clip-rule="evenodd" transform="matrix(1 0 0 1 0 0)" d="M57.00108 493.7417L127.1809 493.7417L127.1809 493.7417L127.1809 478.3606L127.1809 478.3606L57.00108 478.3606z" /></clipPath><clipPath id="163"><path id="" clip-rule="evenodd" transform="matrix(1 0 0 1 0 0)" d="M127.1809 493.7417L548.2599 493.7417L548.2599 493.7417L548.2599 478.3606L548.2599 478.3606L127.1809 478.3606z" /></clipPath><clipPath id="164"><path id="" clip-rule="evenodd" transform="matrix(1 0 0 1 0 0)" d="M127.1809 493.7417L548.2599 493.7417L548.2599 493.7417L548.2599 478.3606L548.2599 478.3606L127.1809 478.3606z" /></clipPath><clipPath id="165"><path id="" clip-rule="evenodd" transform="matrix(1 0 0 1 0 0)" d="M127.1809 493.7417L548.2599 493.7417L548.2599 493.7417L548.2599 478.3606L548.2599 478.3606L127.1809 478.3606z" /></clipPath><clipPath id="166"><path id="" clip-rule="evenodd" transform="matrix(1 0 0 1 0 0)" d="M127.1809 493.7417L548.2599 493.7417L548.2599 493.7417L548.2599 478.3606L548.2599 478.3606L127.1809 478.3606z" /></clipPath><clipPath id="167"><path id="" clip-rule="evenodd" transform="matrix(1 0 0 1 0 0)" d="M57.00108 509.0643L127.1809 509.0643L127.1809 509.0643L127.1809 493.7417L127.1809 493.7417L57.00108 493.7417z" /></clipPath><clipPath id="168"><path id="" clip-rule="evenodd" transform="matrix(1 0 0 1 0 0)" d="M57.00108 509.0643L127.1809 509.0643L127.1809 509.0643L127.1809 493.7417L127.1809 493.7417L57.00108 493.7417z" /></clipPath><clipPath id="169"><path id="" clip-rule="evenodd" transform="matrix(1 0 0 1 0 0)" d="M57.00108 509.0643L127.1809 509.0643L127.1809 509.0643L127.1809 493.7417L127.1809 493.7417L57.00108 493.7417z" /></clipPath><clipPath id="170"><path id="" clip-rule="evenodd" transform="matrix(1 0 0 1 0 0)" d="M57.00108 509.0643L127.1809 509.0643L127.1809 509.0643L127.1809 493.7417L127.1809 493.7417L57.00108 493.7417z" /></clipPath><clipPath id="171"><path id="" clip-rule="evenodd" transform="matrix(1 0 0 1 0 0)" d="M57.00108 509.0643L127.1809 509.0643L127.1809 509.0643L127.1809 493.7417L127.1809 493.7417L57.00108 493.7417z" /></clipPath><clipPath id="172"><path id="" clip-rule="evenodd" transform="matrix(1 0 0 1 0 0)" d="M57.00108 509.0643L127.1809 509.0643L127.1809 509.0643L127.1809 493.7417L127.1809 493.7417L57.00108 493.7417z" /></clipPath><clipPath id="173"><path id="" clip-rule="evenodd" transform="matrix(1 0 0 1 0 0)" d="M57.00108 509.0643L127.1809 509.0643L127.1809 509.0643L127.1809 493.7417L127.1809 493.7417L57.00108 493.7417z" /></clipPath><clipPath id="174"><path id="" clip-rule="evenodd" transform="matrix(1 0 0 1 0 0)" d="M57.00108 509.0643L127.1809 509.0643L127.1809 509.0643L127.1809 493.7417L127.1809 493.7417L57.00108 493.7417z" /></clipPath><clipPath id="175"><path id="" clip-rule="evenodd" transform="matrix(1 0 0 1 0 0)" d="M57.00108 509.0643L127.1809 509.0643L127.1809 509.0643L127.1809 493.7417L127.1809 493.7417L57.00108 493.7417z" /></clipPath><clipPath id="176"><path id="" clip-rule="evenodd" transform="matrix(1 0 0 1 0 0)" d="M57.00108 509.0643L127.1809 509.0643L127.1809 509.0643L127.1809 493.7417L127.1809 493.7417L57.00108 493.7417z" /></clipPath><clipPath id="177"><path id="" clip-rule="evenodd" transform="matrix(1 0 0 1 0 0)" d="M127.1809 509.0643L548.2599 509.0643L548.2599 509.0643L548.2599 493.7417L548.2599 493.7417L127.1809 493.7417z" /></clipPath><clipPath id="178"><path id="" clip-rule="evenodd" transform="matrix(1 0 0 1 0 0)" d="M127.1809 509.0643L548.2599 509.0643L548.2599 509.0643L548.2599 493.7417L548.2599 493.7417L127.1809 493.7417z" /></clipPath><clipPath id="179"><path id="" clip-rule="evenodd" transform="matrix(1 0 0 1 0 0)" d="M127.1809 509.0643L548.2599 509.0643L548.2599 509.0643L548.2599 493.7417L548.2599 493.7417L127.1809 493.7417z" /></clipPath><clipPath id="180"><path id="" clip-rule="evenodd" transform="matrix(1 0 0 1 0 0)" d="M127.1809 509.0643L548.2599 509.0643L548.2599 509.0643L548.2599 493.7417L548.2599 493.7417L127.1809 493.7417z" /></clipPath><clipPath id="181"><path id="" clip-rule="evenodd" transform="matrix(1 0 0 1 0 0)" d="M127.1809 509.0643L548.2599 509.0643L548.2599 509.0643L548.2599 493.7417L548.2599 493.7417L127.1809 493.7417z" /></clipPath><clipPath id="182"><path id="" clip-rule="evenodd" transform="matrix(1 0 0 1 0 0)" d="M127.1809 509.0643L548.2599 509.0643L548.2599 509.0643L548.2599 493.7417L548.2599 493.7417L127.1809 493.7417z" /></clipPath><clipPath id="183"><path id="" clip-rule="evenodd" transform="matrix(1 0 0 1 0 0)" d="M127.1809 509.0643L548.2599 509.0643L548.2599 509.0643L548.2599 493.7417L548.2599 493.7417L127.1809 493.7417z" /></clipPath><clipPath id="184"><path id="" clip-rule="evenodd" transform="matrix(1 0 0 1 0 0)" d="M127.1809 509.0643L548.2599 509.0643L548.2599 509.0643L548.2599 493.7417L548.2599 493.7417L127.1809 493.7417z" /></clipPath><clipPath id="185"><path id="" clip-rule="evenodd" transform="matrix(1 0 0 1 0 0)" d="M127.1809 509.0643L548.2599 509.0643L548.2599 509.0643L548.2599 493.7417L548.2599 493.7417L127.1809 493.7417z" /></clipPath><clipPath id="186"><path id="" clip-rule="evenodd" transform="matrix(1 0 0 1 0 0)" d="M127.1809 509.0643L548.2599 509.0643L548.2599 509.0643L548.2599 493.7417L548.2599 493.7417L127.1809 493.7417z" /></clipPath><clipPath id="187"><path id="" clip-rule="evenodd" transform="matrix(1 0 0 1 0 0)" d="M127.1809 509.0643L548.2599 509.0643L548.2599 509.0643L548.2599 493.7417L548.2599 493.7417L127.1809 493.7417z" /></clipPath><clipPath id="188"><path id="" clip-rule="evenodd" transform="matrix(1 0 0 1 0 0)" d="M127.1809 509.0643L548.2599 509.0643L548.2599 509.0643L548.2599 493.7417L548.2599 493.7417L127.1809 493.7417z" /></clipPath><clipPath id="189"><path id="" clip-rule="evenodd" transform="matrix(1 0 0 1 0 0)" d="M57.00108 524.4454L127.1809 524.4454L127.1809 524.4454L127.1809 509.0643L127.1809 509.0643L57.00108 509.0643z" /></clipPath><clipPath id="190"><path id="" clip-rule="evenodd" transform="matrix(1 0 0 1 0 0)" d="M57.00108 524.4454L127.1809 524.4454L127.1809 524.4454L127.1809 509.0643L127.1809 509.0643L57.00108 509.0643z" /></clipPath><clipPath id="191"><path id="" clip-rule="evenodd" transform="matrix(1 0 0 1 0 0)" d="M57.00108 524.4454L127.1809 524.4454L127.1809 524.4454L127.1809 509.0643L127.1809 509.0643L57.00108 509.0643z" /></clipPath><clipPath id="192"><path id="" clip-rule="evenodd" transform="matrix(1 0 0 1 0 0)" d="M57.00108 524.4454L127.1809 524.4454L127.1809 524.4454L127.1809 509.0643L127.1809 509.0643L57.00108 509.0643z" /></clipPath><clipPath id="193"><path id="" clip-rule="evenodd" transform="matrix(1 0 0 1 0 0)" d="M57.00108 524.4454L127.1809 524.4454L127.1809 524.4454L127.1809 509.0643L127.1809 509.0643L57.00108 509.0643z" /></clipPath><clipPath id="194"><path id="" clip-rule="evenodd" transform="matrix(1 0 0 1 0 0)" d="M57.00108 524.4454L127.1809 524.4454L127.1809 524.4454L127.1809 509.0643L127.1809 509.0643L57.00108 509.0643z" /></clipPath><clipPath id="195"><path id="" clip-rule="evenodd" transform="matrix(1 0 0 1 0 0)" d="M57.00108 524.4454L127.1809 524.4454L127.1809 524.4454L127.1809 509.0643L127.1809 509.0643L57.00108 509.0643z" /></clipPath><clipPath id="196"><path id="" clip-rule="evenodd" transform="matrix(1 0 0 1 0 0)" d="M57.00108 524.4454L127.1809 524.4454L127.1809 524.4454L127.1809 509.0643L127.1809 509.0643L57.00108 509.0643z" /></clipPath><clipPath id="197"><path id="" clip-rule="evenodd" transform="matrix(1 0 0 1 0 0)" d="M57.00108 524.4454L127.1809 524.4454L127.1809 524.4454L127.1809 509.0643L127.1809 509.0643L57.00108 509.0643z" /></clipPath><clipPath id="198"><path id="" clip-rule="evenodd" transform="matrix(1 0 0 1 0 0)" d="M57.00108 524.4454L127.1809 524.4454L127.1809 524.4454L127.1809 509.0643L127.1809 509.0643L57.00108 509.0643z" /></clipPath><clipPath id="199"><path id="" clip-rule="evenodd" transform="matrix(1 0 0 1 0 0)" d="M127.1809 524.4454L548.2599 524.4454L548.2599 524.4454L548.2599 509.0643L548.2599 509.0643L127.1809 509.0643z" /></clipPath><clipPath id="200"><path id="" clip-rule="evenodd" transform="matrix(1 0 0 1 0 0)" d="M127.1809 524.4454L548.2599 524.4454L548.2599 524.4454L548.2599 509.0643L548.2599 509.0643L127.1809 509.0643z" /></clipPath><clipPath id="201"><path id="" clip-rule="evenodd" transform="matrix(1 0 0 1 0 0)" d="M127.1809 524.4454L548.2599 524.4454L548.2599 524.4454L548.2599 509.0643L548.2599 509.0643L127.1809 509.0643z" /></clipPath><clipPath id="202"><path id="" clip-rule="evenodd" transform="matrix(1 0 0 1 0 0)" d="M127.1809 524.4454L548.2599 524.4454L548.2599 524.4454L548.2599 509.0643L548.2599 509.0643L127.1809 509.0643z" /></clipPath><clipPath id="203"><path id="" clip-rule="evenodd" transform="matrix(1 0 0 1 0 0)" d="M57.00108 553.2191L548.2599 553.2191L548.2599 553.2191L548.2599 537.8965L548.2599 537.8965L57.00108 537.8965z" /></clipPath><clipPath id="204"><path id="" clip-rule="evenodd" transform="matrix(1 0 0 1 0 0)" d="M57.00108 553.2191L548.2599 553.2191L548.2599 553.2191L548.2599 537.8965L548.2599 537.8965L57.00108 537.8965z" /></clipPath><clipPath id="205"><path id="" clip-rule="evenodd" transform="matrix(1 0 0 1 0 0)" d="M57.00108 553.2191L548.2599 553.2191L548.2599 553.2191L548.2599 537.8965L548.2599 537.8965L57.00108 537.8965z" /></clipPath><clipPath id="206"><path id="" clip-rule="evenodd" transform="matrix(1 0 0 1 0 0)" d="M57.00108 553.2191L548.2599 553.2191L548.2599 553.2191L548.2599 537.8965L548.2599 537.8965L57.00108 537.8965z" /></clipPath><clipPath id="207"><path id="" clip-rule="evenodd" transform="matrix(1 0 0 1 0 0)" d="M57.00108 553.2191L548.2599 553.2191L548.2599 553.2191L548.2599 537.8965L548.2599 537.8965L57.00108 537.8965z" /></clipPath><clipPath id="208"><path id="" clip-rule="evenodd" transform="matrix(1 0 0 1 0 0)" d="M57.00108 553.2191L548.2599 553.2191L548.2599 553.2191L548.2599 537.8965L548.2599 537.8965L57.00108 537.8965z" /></clipPath><clipPath id="209"><path id="" clip-rule="evenodd" transform="matrix(1 0 0 1 0 0)" d="M57.00108 568.6002L127.1809 568.6002L127.1809 568.6002L127.1809 553.2191L127.1809 553.2191L57.00108 553.2191z" /></clipPath><clipPath id="210"><path id="" clip-rule="evenodd" transform="matrix(1 0 0 1 0 0)" d="M57.00108 568.6002L127.1809 568.6002L127.1809 568.6002L127.1809 553.2191L127.1809 553.2191L57.00108 553.2191z" /></clipPath><clipPath id="211"><path id="" clip-rule="evenodd" transform="matrix(1 0 0 1 0 0)" d="M57.00108 568.6002L127.1809 568.6002L127.1809 568.6002L127.1809 553.2191L127.1809 553.2191L57.00108 553.2191z" /></clipPath><clipPath id="212"><path id="" clip-rule="evenodd" transform="matrix(1 0 0 1 0 0)" d="M57.00108 568.6002L127.1809 568.6002L127.1809 568.6002L127.1809 553.2191L127.1809 553.2191L57.00108 553.2191z" /></clipPath><clipPath id="213"><path id="" clip-rule="evenodd" transform="matrix(1 0 0 1 0 0)" d="M57.00108 568.6002L127.1809 568.6002L127.1809 568.6002L127.1809 553.2191L127.1809 553.2191L57.00108 553.2191z" /></clipPath><clipPath id="214"><path id="" clip-rule="evenodd" transform="matrix(1 0 0 1 0 0)" d="M57.00108 568.6002L127.1809 568.6002L127.1809 568.6002L127.1809 553.2191L127.1809 553.2191L57.00108 553.2191z" /></clipPath><clipPath id="215"><path id="" clip-rule="evenodd" transform="matrix(1 0 0 1 0 0)" d="M57.00108 568.6002L127.1809 568.6002L127.1809 568.6002L127.1809 553.2191L127.1809 553.2191L57.00108 553.2191z" /></clipPath><clipPath id="216"><path id="" clip-rule="evenodd" transform="matrix(1 0 0 1 0 0)" d="M57.00108 568.6002L127.1809 568.6002L127.1809 568.6002L127.1809 553.2191L127.1809 553.2191L57.00108 553.2191z" /></clipPath><clipPath id="217"><path id="" clip-rule="evenodd" transform="matrix(1 0 0 1 0 0)" d="M57.00108 568.6002L127.1809 568.6002L127.1809 568.6002L127.1809 553.2191L127.1809 553.2191L57.00108 553.2191z" /></clipPath><clipPath id="218"><path id="" clip-rule="evenodd" transform="matrix(1 0 0 1 0 0)" d="M57.00108 568.6002L127.1809 568.6002L127.1809 568.6002L127.1809 553.2191L127.1809 553.2191L57.00108 553.2191z" /></clipPath><clipPath id="219"><path id="" clip-rule="evenodd" transform="matrix(1 0 0 1 0 0)" d="M127.1809 568.6002L548.2599 568.6002L548.2599 568.6002L548.2599 553.2191L548.2599 553.2191L127.1809 553.2191z" /></clipPath><clipPath id="220"><path id="" clip-rule="evenodd" transform="matrix(1 0 0 1 0 0)" d="M127.1809 568.6002L548.2599 568.6002L548.2599 568.6002L548.2599 553.2191L548.2599 553.2191L127.1809 553.2191z" /></clipPath><clipPath id="221"><path id="" clip-rule="evenodd" transform="matrix(1 0 0 1 0 0)" d="M127.1809 568.6002L548.2599 568.6002L548.2599 568.6002L548.2599 553.2191L548.2599 553.2191L127.1809 553.2191z" /></clipPath><clipPath id="222"><path id="" clip-rule="evenodd" transform="matrix(1 0 0 1 0 0)" d="M127.1809 568.6002L548.2599 568.6002L548.2599 568.6002L548.2599 553.2191L548.2599 553.2191L127.1809 553.2191z" /></clipPath><clipPath id="223"><path id="" clip-rule="evenodd" transform="matrix(1 0 0 1 0 0)" d="M57.00108 583.9228L127.1809 583.9228L127.1809 583.9228L127.1809 568.6002L127.1809 568.6002L57.00108 568.6002z" /></clipPath><clipPath id="224"><path id="" clip-rule="evenodd" transform="matrix(1 0 0 1 0 0)" d="M57.00108 583.9228L127.1809 583.9228L127.1809 583.9228L127.1809 568.6002L127.1809 568.6002L57.00108 568.6002z" /></clipPath><clipPath id="225"><path id="" clip-rule="evenodd" transform="matrix(1 0 0 1 0 0)" d="M57.00108 583.9228L127.1809 583.9228L127.1809 583.9228L127.1809 568.6002L127.1809 568.6002L57.00108 568.6002z" /></clipPath><clipPath id="226"><path id="" clip-rule="evenodd" transform="matrix(1 0 0 1 0 0)" d="M57.00108 583.9228L127.1809 583.9228L127.1809 583.9228L127.1809 568.6002L127.1809 568.6002L57.00108 568.6002z" /></clipPath><clipPath id="227"><path id="" clip-rule="evenodd" transform="matrix(1 0 0 1 0 0)" d="M57.00108 583.9228L127.1809 583.9228L127.1809 583.9228L127.1809 568.6002L127.1809 568.6002L57.00108 568.6002z" /></clipPath><clipPath id="228"><path id="" clip-rule="evenodd" transform="matrix(1 0 0 1 0 0)" d="M57.00108 583.9228L127.1809 583.9228L127.1809 583.9228L127.1809 568.6002L127.1809 568.6002L57.00108 568.6002z" /></clipPath><clipPath id="229"><path id="" clip-rule="evenodd" transform="matrix(1 0 0 1 0 0)" d="M57.00108 583.9228L127.1809 583.9228L127.1809 583.9228L127.1809 568.6002L127.1809 568.6002L57.00108 568.6002z" /></clipPath><clipPath id="230"><path id="" clip-rule="evenodd" transform="matrix(1 0 0 1 0 0)" d="M57.00108 583.9228L127.1809 583.9228L127.1809 583.9228L127.1809 568.6002L127.1809 568.6002L57.00108 568.6002z" /></clipPath><clipPath id="231"><path id="" clip-rule="evenodd" transform="matrix(1 0 0 1 0 0)" d="M57.00108 583.9228L127.1809 583.9228L127.1809 583.9228L127.1809 568.6002L127.1809 568.6002L57.00108 568.6002z" /></clipPath><clipPath id="232"><path id="" clip-rule="evenodd" transform="matrix(1 0 0 1 0 0)" d="M57.00108 583.9228L127.1809 583.9228L127.1809 583.9228L127.1809 568.6002L127.1809 568.6002L57.00108 568.6002z" /></clipPath><clipPath id="233"><path id="" clip-rule="evenodd" transform="matrix(1 0 0 1 0 0)" d="M127.1809 583.9228L548.2599 583.9228L548.2599 583.9228L548.2599 568.6002L548.2599 568.6002L127.1809 568.6002z" /></clipPath><clipPath id="234"><path id="" clip-rule="evenodd" transform="matrix(1 0 0 1 0 0)" d="M127.1809 583.9228L548.2599 583.9228L548.2599 583.9228L548.2599 568.6002L548.2599 568.6002L127.1809 568.6002z" /></clipPath><clipPath id="235"><path id="" clip-rule="evenodd" transform="matrix(1 0 0 1 0 0)" d="M127.1809 583.9228L548.2599 583.9228L548.2599 583.9228L548.2599 568.6002L548.2599 568.6002L127.1809 568.6002z" /></clipPath><clipPath id="236"><path id="" clip-rule="evenodd" transform="matrix(1 0 0 1 0 0)" d="M127.1809 583.9228L548.2599 583.9228L548.2599 583.9228L548.2599 568.6002L548.2599 568.6002L127.1809 568.6002z" /></clipPath><clipPath id="237"><path id="" clip-rule="evenodd" transform="matrix(1 0 0 1 0 0)" d="M57.00108 599.3039L127.1809 599.3039L127.1809 599.3039L127.1809 583.9228L127.1809 583.9228L57.00108 583.9228z" /></clipPath><clipPath id="238"><path id="" clip-rule="evenodd" transform="matrix(1 0 0 1 0 0)" d="M57.00108 599.3039L127.1809 599.3039L127.1809 599.3039L127.1809 583.9228L127.1809 583.9228L57.00108 583.9228z" /></clipPath><clipPath id="239"><path id="" clip-rule="evenodd" transform="matrix(1 0 0 1 0 0)" d="M57.00108 599.3039L127.1809 599.3039L127.1809 599.3039L127.1809 583.9228L127.1809 583.9228L57.00108 583.9228z" /></clipPath><clipPath id="240"><path id="" clip-rule="evenodd" transform="matrix(1 0 0 1 0 0)" d="M57.00108 599.3039L127.1809 599.3039L127.1809 599.3039L127.1809 583.9228L127.1809 583.9228L57.00108 583.9228z" /></clipPath><clipPath id="241"><path id="" clip-rule="evenodd" transform="matrix(1 0 0 1 0 0)" d="M57.00108 599.3039L127.1809 599.3039L127.1809 599.3039L127.1809 583.9228L127.1809 583.9228L57.00108 583.9228z" /></clipPath><clipPath id="242"><path id="" clip-rule="evenodd" transform="matrix(1 0 0 1 0 0)" d="M57.00108 599.3039L127.1809 599.3039L127.1809 599.3039L127.1809 583.9228L127.1809 583.9228L57.00108 583.9228z" /></clipPath><clipPath id="243"><path id="" clip-rule="evenodd" transform="matrix(1 0 0 1 0 0)" d="M57.00108 599.3039L127.1809 599.3039L127.1809 599.3039L127.1809 583.9228L127.1809 583.9228L57.00108 583.9228z" /></clipPath><clipPath id="244"><path id="" clip-rule="evenodd" transform="matrix(1 0 0 1 0 0)" d="M57.00108 599.3039L127.1809 599.3039L127.1809 599.3039L127.1809 583.9228L127.1809 583.9228L57.00108 583.9228z" /></clipPath><clipPath id="245"><path id="" clip-rule="evenodd" transform="matrix(1 0 0 1 0 0)" d="M57.00108 599.3039L127.1809 599.3039L127.1809 599.3039L127.1809 583.9228L127.1809 583.9228L57.00108 583.9228z" /></clipPath><clipPath id="246"><path id="" clip-rule="evenodd" transform="matrix(1 0 0 1 0 0)" d="M57.00108 599.3039L127.1809 599.3039L127.1809 599.3039L127.1809 583.9228L127.1809 583.9228L57.00108 583.9228z" /></clipPath><clipPath id="247"><path id="" clip-rule="evenodd" transform="matrix(1 0 0 1 0 0)" d="M127.1809 599.3039L548.2599 599.3039L548.2599 599.3039L548.2599 583.9228L548.2599 583.9228L127.1809 583.9228z" /></clipPath><clipPath id="248"><path id="" clip-rule="evenodd" transform="matrix(1 0 0 1 0 0)" d="M127.1809 599.3039L548.2599 599.3039L548.2599 599.3039L548.2599 583.9228L548.2599 583.9228L127.1809 583.9228z" /></clipPath><clipPath id="249"><path id="" clip-rule="evenodd" transform="matrix(1 0 0 1 0 0)" d="M127.1809 599.3039L548.2599 599.3039L548.2599 599.3039L548.2599 583.9228L548.2599 583.9228L127.1809 583.9228z" /></clipPath><clipPath id="250"><path id="" clip-rule="evenodd" transform="matrix(1 0 0 1 0 0)" d="M127.1809 599.3039L548.2599 599.3039L548.2599 599.3039L548.2599 583.9228L548.2599 583.9228L127.1809 583.9228z" /></clipPath><clipPath id="251"><path id="" clip-rule="evenodd" transform="matrix(1 0 0 1 0 0)" d="M127.1809 599.3039L548.2599 599.3039L548.2599 599.3039L548.2599 583.9228L548.2599 583.9228L127.1809 583.9228z" /></clipPath><clipPath id="252"><path id="" clip-rule="evenodd" transform="matrix(1 0 0 1 0 0)" d="M127.1809 599.3039L548.2599 599.3039L548.2599 599.3039L548.2599 583.9228L548.2599 583.9228L127.1809 583.9228z" /></clipPath><clipPath id="253"><path id="" clip-rule="evenodd" transform="matrix(1 0 0 1 0 0)" d="M127.1809 599.3039L548.2599 599.3039L548.2599 599.3039L548.2599 583.9228L548.2599 583.9228L127.1809 583.9228z" /></clipPath><clipPath id="254"><path id="" clip-rule="evenodd" transform="matrix(1 0 0 1 0 0)" d="M127.1809 599.3039L548.2599 599.3039L548.2599 599.3039L548.2599 583.9228L548.2599 583.9228L127.1809 583.9228z" /></clipPath><clipPath id="255"><path id="" clip-rule="evenodd" transform="matrix(1 0 0 1 0 0)" d="M127.1809 599.3039L548.2599 599.3039L548.2599 599.3039L548.2599 583.9228L548.2599 583.9228L127.1809 583.9228z" /></clipPath><clipPath id="256"><path id="" clip-rule="evenodd" transform="matrix(1 0 0 1 0 0)" d="M127.1809 599.3039L548.2599 599.3039L548.2599 599.3039L548.2599 583.9228L548.2599 583.9228L127.1809 583.9228z" /></clipPath><clipPath id="257"><path id="" clip-rule="evenodd" transform="matrix(1 0 0 1 0 0)" d="M127.1809 599.3039L548.2599 599.3039L548.2599 599.3039L548.2599 583.9228L548.2599 583.9228L127.1809 583.9228z" /></clipPath><clipPath id="258"><path id="" clip-rule="evenodd" transform="matrix(1 0 0 1 0 0)" d="M127.1809 599.3039L548.2599 599.3039L548.2599 599.3039L548.2599 583.9228L548.2599 583.9228L127.1809 583.9228z" /></clipPath><clipPath id="259"><path id="" clip-rule="evenodd" transform="matrix(1 0 0 1 0 0)" d="M57.00108 614.6265L127.1809 614.6265L127.1809 614.6265L127.1809 599.3039L127.1809 599.3039L57.00108 599.3039z" /></clipPath><clipPath id="260"><path id="" clip-rule="evenodd" transform="matrix(1 0 0 1 0 0)" d="M57.00108 614.6265L127.1809 614.6265L127.1809 614.6265L127.1809 599.3039L127.1809 599.3039L57.00108 599.3039z" /></clipPath><clipPath id="261"><path id="" clip-rule="evenodd" transform="matrix(1 0 0 1 0 0)" d="M57.00108 614.6265L127.1809 614.6265L127.1809 614.6265L127.1809 599.3039L127.1809 599.3039L57.00108 599.3039z" /></clipPath><clipPath id="262"><path id="" clip-rule="evenodd" transform="matrix(1 0 0 1 0 0)" d="M57.00108 614.6265L127.1809 614.6265L127.1809 614.6265L127.1809 599.3039L127.1809 599.3039L57.00108 599.3039z" /></clipPath><clipPath id="263"><path id="" clip-rule="evenodd" transform="matrix(1 0 0 1 0 0)" d="M57.00108 614.6265L127.1809 614.6265L127.1809 614.6265L127.1809 599.3039L127.1809 599.3039L57.00108 599.3039z" /></clipPath><clipPath id="264"><path id="" clip-rule="evenodd" transform="matrix(1 0 0 1 0 0)" d="M57.00108 614.6265L127.1809 614.6265L127.1809 614.6265L127.1809 599.3039L127.1809 599.3039L57.00108 599.3039z" /></clipPath><clipPath id="265"><path id="" clip-rule="evenodd" transform="matrix(1 0 0 1 0 0)" d="M57.00108 614.6265L127.1809 614.6265L127.1809 614.6265L127.1809 599.3039L127.1809 599.3039L57.00108 599.3039z" /></clipPath><clipPath id="266"><path id="" clip-rule="evenodd" transform="matrix(1 0 0 1 0 0)" d="M57.00108 614.6265L127.1809 614.6265L127.1809 614.6265L127.1809 599.3039L127.1809 599.3039L57.00108 599.3039z" /></clipPath><clipPath id="267"><path id="" clip-rule="evenodd" transform="matrix(1 0 0 1 0 0)" d="M57.00108 614.6265L127.1809 614.6265L127.1809 614.6265L127.1809 599.3039L127.1809 599.3039L57.00108 599.3039z" /></clipPath><clipPath id="268"><path id="" clip-rule="evenodd" transform="matrix(1 0 0 1 0 0)" d="M57.00108 614.6265L127.1809 614.6265L127.1809 614.6265L127.1809 599.3039L127.1809 599.3039L57.00108 599.3039z" /></clipPath><clipPath id="269"><path id="" clip-rule="evenodd" transform="matrix(1 0 0 1 0 0)" d="M127.1809 614.6265L548.2599 614.6265L548.2599 614.6265L548.2599 599.3039L548.2599 599.3039L127.1809 599.3039z" /></clipPath><clipPath id="270"><path id="" clip-rule="evenodd" transform="matrix(1 0 0 1 0 0)" d="M127.1809 614.6265L548.2599 614.6265L548.2599 614.6265L548.2599 599.3039L548.2599 599.3039L127.1809 599.3039z" /></clipPath><clipPath id="271"><path id="" clip-rule="evenodd" transform="matrix(1 0 0 1 0 0)" d="M127.1809 614.6265L548.2599 614.6265L548.2599 614.6265L548.2599 599.3039L548.2599 599.3039L127.1809 599.3039z" /></clipPath><clipPath id="272"><path id="" clip-rule="evenodd" transform="matrix(1 0 0 1 0 0)" d="M127.1809 614.6265L548.2599 614.6265L548.2599 614.6265L548.2599 599.3039L548.2599 599.3039L127.1809 599.3039z" /></clipPath><clipPath id="273"><path id="" clip-rule="evenodd" transform="matrix(1 0 0 1 0 0)" d="M57.00108 630.0076L127.1809 630.0076L127.1809 630.0076L127.1809 614.6265L127.1809 614.6265L57.00108 614.6265z" /></clipPath><clipPath id="274"><path id="" clip-rule="evenodd" transform="matrix(1 0 0 1 0 0)" d="M57.00108 630.0076L127.1809 630.0076L127.1809 630.0076L127.1809 614.6265L127.1809 614.6265L57.00108 614.6265z" /></clipPath><clipPath id="275"><path id="" clip-rule="evenodd" transform="matrix(1 0 0 1 0 0)" d="M57.00108 630.0076L127.1809 630.0076L127.1809 630.0076L127.1809 614.6265L127.1809 614.6265L57.00108 614.6265z" /></clipPath><clipPath id="276"><path id="" clip-rule="evenodd" transform="matrix(1 0 0 1 0 0)" d="M57.00108 630.0076L127.1809 630.0076L127.1809 630.0076L127.1809 614.6265L127.1809 614.6265L57.00108 614.6265z" /></clipPath><clipPath id="277"><path id="" clip-rule="evenodd" transform="matrix(1 0 0 1 0 0)" d="M57.00108 630.0076L127.1809 630.0076L127.1809 630.0076L127.1809 614.6265L127.1809 614.6265L57.00108 614.6265z" /></clipPath><clipPath id="278"><path id="" clip-rule="evenodd" transform="matrix(1 0 0 1 0 0)" d="M57.00108 630.0076L127.1809 630.0076L127.1809 630.0076L127.1809 614.6265L127.1809 614.6265L57.00108 614.6265z" /></clipPath><clipPath id="279"><path id="" clip-rule="evenodd" transform="matrix(1 0 0 1 0 0)" d="M57.00108 630.0076L127.1809 630.0076L127.1809 630.0076L127.1809 614.6265L127.1809 614.6265L57.00108 614.6265z" /></clipPath><clipPath id="280"><path id="" clip-rule="evenodd" transform="matrix(1 0 0 1 0 0)" d="M57.00108 630.0076L127.1809 630.0076L127.1809 630.0076L127.1809 614.6265L127.1809 614.6265L57.00108 614.6265z" /></clipPath><clipPath id="281"><path id="" clip-rule="evenodd" transform="matrix(1 0 0 1 0 0)" d="M57.00108 630.0076L127.1809 630.0076L127.1809 630.0076L127.1809 614.6265L127.1809 614.6265L57.00108 614.6265z" /></clipPath><clipPath id="282"><path id="" clip-rule="evenodd" transform="matrix(1 0 0 1 0 0)" d="M57.00108 630.0076L127.1809 630.0076L127.1809 630.0076L127.1809 614.6265L127.1809 614.6265L57.00108 614.6265z" /></clipPath><clipPath id="283"><path id="" clip-rule="evenodd" transform="matrix(1 0 0 1 0 0)" d="M127.1809 630.0076L548.2599 630.0076L548.2599 630.0076L548.2599 614.6265L548.2599 614.6265L127.1809 614.6265z" /></clipPath><clipPath id="284"><path id="" clip-rule="evenodd" transform="matrix(1 0 0 1 0 0)" d="M127.1809 630.0076L548.2599 630.0076L548.2599 630.0076L548.2599 614.6265L548.2599 614.6265L127.1809 614.6265z" /></clipPath><clipPath id="285"><path id="" clip-rule="evenodd" transform="matrix(1 0 0 1 0 0)" d="M127.1809 630.0076L548.2599 630.0076L548.2599 630.0076L548.2599 614.6265L548.2599 614.6265L127.1809 614.6265z" /></clipPath><clipPath id="286"><path id="" clip-rule="evenodd" transform="matrix(1 0 0 1 0 0)" d="M127.1809 630.0076L548.2599 630.0076L548.2599 630.0076L548.2599 614.6265L548.2599 614.6265L127.1809 614.6265z" /></clipPath><clipPath id="287"><path id="" clip-rule="evenodd" transform="matrix(1 0 0 1 0 0)" d="M57.00108 645.3302L127.1809 645.3302L127.1809 645.3302L127.1809 630.0076L127.1809 630.0076L57.00108 630.0076z" /></clipPath><clipPath id="288"><path id="" clip-rule="evenodd" transform="matrix(1 0 0 1 0 0)" d="M57.00108 645.3302L127.1809 645.3302L127.1809 645.3302L127.1809 630.0076L127.1809 630.0076L57.00108 630.0076z" /></clipPath><clipPath id="289"><path id="" clip-rule="evenodd" transform="matrix(1 0 0 1 0 0)" d="M57.00108 645.3302L127.1809 645.3302L127.1809 645.3302L127.1809 630.0076L127.1809 630.0076L57.00108 630.0076z" /></clipPath><clipPath id="290"><path id="" clip-rule="evenodd" transform="matrix(1 0 0 1 0 0)" d="M57.00108 645.3302L127.1809 645.3302L127.1809 645.3302L127.1809 630.0076L127.1809 630.0076L57.00108 630.0076z" /></clipPath><clipPath id="291"><path id="" clip-rule="evenodd" transform="matrix(1 0 0 1 0 0)" d="M57.00108 645.3302L127.1809 645.3302L127.1809 645.3302L127.1809 630.0076L127.1809 630.0076L57.00108 630.0076z" /></clipPath><clipPath id="292"><path id="" clip-rule="evenodd" transform="matrix(1 0 0 1 0 0)" d="M57.00108 645.3302L127.1809 645.3302L127.1809 645.3302L127.1809 630.0076L127.1809 630.0076L57.00108 630.0076z" /></clipPath><clipPath id="293"><path id="" clip-rule="evenodd" transform="matrix(1 0 0 1 0 0)" d="M57.00108 645.3302L127.1809 645.3302L127.1809 645.3302L127.1809 630.0076L127.1809 630.0076L57.00108 630.0076z" /></clipPath><clipPath id="294"><path id="" clip-rule="evenodd" transform="matrix(1 0 0 1 0 0)" d="M57.00108 645.3302L127.1809 645.3302L127.1809 645.3302L127.1809 630.0076L127.1809 630.0076L57.00108 630.0076z" /></clipPath><clipPath id="295"><path id="" clip-rule="evenodd" transform="matrix(1 0 0 1 0 0)" d="M57.00108 645.3302L127.1809 645.3302L127.1809 645.3302L127.1809 630.0076L127.1809 630.0076L57.00108 630.0076z" /></clipPath><clipPath id="296"><path id="" clip-rule="evenodd" transform="matrix(1 0 0 1 0 0)" d="M57.00108 645.3302L127.1809 645.3302L127.1809 645.3302L127.1809 630.0076L127.1809 630.0076L57.00108 630.0076z" /></clipPath><clipPath id="297"><path id="" clip-rule="evenodd" transform="matrix(1 0 0 1 0 0)" d="M127.1809 645.3302L548.2599 645.3302L548.2599 645.3302L548.2599 630.0076L548.2599 630.0076L127.1809 630.0076z" /></clipPath><clipPath id="298"><path id="" clip-rule="evenodd" transform="matrix(1 0 0 1 0 0)" d="M127.1809 645.3302L548.2599 645.3302L548.2599 645.3302L548.2599 630.0076L548.2599 630.0076L127.1809 630.0076z" /></clipPath><clipPath id="299"><path id="" clip-rule="evenodd" transform="matrix(1 0 0 1 0 0)" d="M127.1809 645.3302L548.2599 645.3302L548.2599 645.3302L548.2599 630.0076L548.2599 630.0076L127.1809 630.0076z" /></clipPath><clipPath id="300"><path id="" clip-rule="evenodd" transform="matrix(1 0 0 1 0 0)" d="M127.1809 645.3302L548.2599 645.3302L548.2599 645.3302L548.2599 630.0076L548.2599 630.0076L127.1809 630.0076z" /></clipPath><clipPath id="301"><path id="" clip-rule="evenodd" transform="matrix(1 0 0 1 0 0)" d="M57.00108 660.7112L127.1809 660.7112L127.1809 660.7112L127.1809 645.3302L127.1809 645.3302L57.00108 645.3302z" /></clipPath><clipPath id="302"><path id="" clip-rule="evenodd" transform="matrix(1 0 0 1 0 0)" d="M57.00108 660.7112L127.1809 660.7112L127.1809 660.7112L127.1809 645.3302L127.1809 645.3302L57.00108 645.3302z" /></clipPath><clipPath id="303"><path id="" clip-rule="evenodd" transform="matrix(1 0 0 1 0 0)" d="M57.00108 660.7112L127.1809 660.7112L127.1809 660.7112L127.1809 645.3302L127.1809 645.3302L57.00108 645.3302z" /></clipPath><clipPath id="304"><path id="" clip-rule="evenodd" transform="matrix(1 0 0 1 0 0)" d="M57.00108 660.7112L127.1809 660.7112L127.1809 660.7112L127.1809 645.3302L127.1809 645.3302L57.00108 645.3302z" /></clipPath><clipPath id="305"><path id="" clip-rule="evenodd" transform="matrix(1 0 0 1 0 0)" d="M57.00108 660.7112L127.1809 660.7112L127.1809 660.7112L127.1809 645.3302L127.1809 645.3302L57.00108 645.3302z" /></clipPath><clipPath id="306"><path id="" clip-rule="evenodd" transform="matrix(1 0 0 1 0 0)" d="M57.00108 660.7112L127.1809 660.7112L127.1809 660.7112L127.1809 645.3302L127.1809 645.3302L57.00108 645.3302z" /></clipPath><clipPath id="307"><path id="" clip-rule="evenodd" transform="matrix(1 0 0 1 0 0)" d="M57.00108 660.7112L127.1809 660.7112L127.1809 660.7112L127.1809 645.3302L127.1809 645.3302L57.00108 645.3302z" /></clipPath><clipPath id="308"><path id="" clip-rule="evenodd" transform="matrix(1 0 0 1 0 0)" d="M57.00108 660.7112L127.1809 660.7112L127.1809 660.7112L127.1809 645.3302L127.1809 645.3302L57.00108 645.3302z" /></clipPath><clipPath id="309"><path id="" clip-rule="evenodd" transform="matrix(1 0 0 1 0 0)" d="M57.00108 660.7112L127.1809 660.7112L127.1809 660.7112L127.1809 645.3302L127.1809 645.3302L57.00108 645.3302z" /></clipPath><clipPath id="310"><path id="" clip-rule="evenodd" transform="matrix(1 0 0 1 0 0)" d="M57.00108 660.7112L127.1809 660.7112L127.1809 660.7112L127.1809 645.3302L127.1809 645.3302L57.00108 645.3302z" /></clipPath><clipPath id="311"><path id="" clip-rule="evenodd" transform="matrix(1 0 0 1 0 0)" d="M127.1809 660.7112L548.2599 660.7112L548.2599 660.7112L548.2599 645.3302L548.2599 645.3302L127.1809 645.3302z" /></clipPath><clipPath id="312"><path id="" clip-rule="evenodd" transform="matrix(1 0 0 1 0 0)" d="M127.1809 660.7112L548.2599 660.7112L548.2599 660.7112L548.2599 645.3302L548.2599 645.3302L127.1809 645.3302z" /></clipPath><clipPath id="313"><path id="" clip-rule="evenodd" transform="matrix(1 0 0 1 0 0)" d="M127.1809 660.7112L548.2599 660.7112L548.2599 660.7112L548.2599 645.3302L548.2599 645.3302L127.1809 645.3302z" /></clipPath><clipPath id="314"><path id="" clip-rule="evenodd" transform="matrix(1 0 0 1 0 0)" d="M127.1809 660.7112L548.2599 660.7112L548.2599 660.7112L548.2599 645.3302L548.2599 645.3302L127.1809 645.3302z" /></clipPath><clipPath id="315"><path id="" clip-rule="evenodd" transform="matrix(1 0 0 1 0 0)" d="M127.1809 660.7112L548.2599 660.7112L548.2599 660.7112L548.2599 645.3302L548.2599 645.3302L127.1809 645.3302z" /></clipPath><clipPath id="316"><path id="" clip-rule="evenodd" transform="matrix(1 0 0 1 0 0)" d="M127.1809 660.7112L548.2599 660.7112L548.2599 660.7112L548.2599 645.3302L548.2599 645.3302L127.1809 645.3302z" /></clipPath><clipPath id="317"><path id="" clip-rule="evenodd" transform="matrix(1 0 0 1 0 0)" d="M127.1809 660.7112L548.2599 660.7112L548.2599 660.7112L548.2599 645.3302L548.2599 645.3302L127.1809 645.3302z" /></clipPath><clipPath id="318"><path id="" clip-rule="evenodd" transform="matrix(1 0 0 1 0 0)" d="M127.1809 660.7112L548.2599 660.7112L548.2599 660.7112L548.2599 645.3302L548.2599 645.3302L127.1809 645.3302z" /></clipPath><clipPath id="319"><path id="" clip-rule="evenodd" transform="matrix(1 0 0 1 0 0)" d="M127.1809 660.7112L548.2599 660.7112L548.2599 660.7112L548.2599 645.3302L548.2599 645.3302L127.1809 645.3302z" /></clipPath><clipPath id="320"><path id="" clip-rule="evenodd" transform="matrix(1 0 0 1 0 0)" d="M127.1809 660.7112L548.2599 660.7112L548.2599 660.7112L548.2599 645.3302L548.2599 645.3302L127.1809 645.3302z" /></clipPath><clipPath id="321"><path id="" clip-rule="evenodd" transform="matrix(1 0 0 1 0 0)" d="M127.1809 660.7112L548.2599 660.7112L548.2599 660.7112L548.2599 645.3302L548.2599 645.3302L127.1809 645.3302z" /></clipPath><clipPath id="322"><path id="" clip-rule="evenodd" transform="matrix(1 0 0 1 0 0)" d="M127.1809 660.7112L548.2599 660.7112L548.2599 660.7112L548.2599 645.3302L548.2599 645.3302L127.1809 645.3302z" /></clipPath><clipPath id="323"><path id="" clip-rule="evenodd" transform="matrix(1 0 0 1 0 0)" d="M127.1809 660.7112L548.2599 660.7112L548.2599 660.7112L548.2599 645.3302L548.2599 645.3302L127.1809 645.3302z" /></clipPath><clipPath id="324"><path id="" clip-rule="evenodd" transform="matrix(1 0 0 1 0 0)" d="M127.1809 660.7112L548.2599 660.7112L548.2599 660.7112L548.2599 645.3302L548.2599 645.3302L127.1809 645.3302z" /></clipPath><clipPath id="325"><path id="" clip-rule="evenodd" transform="matrix(1 0 0 1 0 0)" d="M57.00108 676.0338L127.1809 676.0338L127.1809 676.0338L127.1809 660.7112L127.1809 660.7112L57.00108 660.7112z" /></clipPath><clipPath id="326"><path id="" clip-rule="evenodd" transform="matrix(1 0 0 1 0 0)" d="M57.00108 676.0338L127.1809 676.0338L127.1809 676.0338L127.1809 660.7112L127.1809 660.7112L57.00108 660.7112z" /></clipPath><clipPath id="327"><path id="" clip-rule="evenodd" transform="matrix(1 0 0 1 0 0)" d="M57.00108 676.0338L127.1809 676.0338L127.1809 676.0338L127.1809 660.7112L127.1809 660.7112L57.00108 660.7112z" /></clipPath><clipPath id="328"><path id="" clip-rule="evenodd" transform="matrix(1 0 0 1 0 0)" d="M57.00108 676.0338L127.1809 676.0338L127.1809 676.0338L127.1809 660.7112L127.1809 660.7112L57.00108 660.7112z" /></clipPath><clipPath id="329"><path id="" clip-rule="evenodd" transform="matrix(1 0 0 1 0 0)" d="M57.00108 676.0338L127.1809 676.0338L127.1809 676.0338L127.1809 660.7112L127.1809 660.7112L57.00108 660.7112z" /></clipPath><clipPath id="330"><path id="" clip-rule="evenodd" transform="matrix(1 0 0 1 0 0)" d="M57.00108 676.0338L127.1809 676.0338L127.1809 676.0338L127.1809 660.7112L127.1809 660.7112L57.00108 660.7112z" /></clipPath><clipPath id="331"><path id="" clip-rule="evenodd" transform="matrix(1 0 0 1 0 0)" d="M57.00108 676.0338L127.1809 676.0338L127.1809 676.0338L127.1809 660.7112L127.1809 660.7112L57.00108 660.7112z" /></clipPath><clipPath id="332"><path id="" clip-rule="evenodd" transform="matrix(1 0 0 1 0 0)" d="M57.00108 676.0338L127.1809 676.0338L127.1809 676.0338L127.1809 660.7112L127.1809 660.7112L57.00108 660.7112z" /></clipPath><clipPath id="333"><path id="" clip-rule="evenodd" transform="matrix(1 0 0 1 0 0)" d="M57.00108 676.0338L127.1809 676.0338L127.1809 676.0338L127.1809 660.7112L127.1809 660.7112L57.00108 660.7112z" /></clipPath><clipPath id="334"><path id="" clip-rule="evenodd" transform="matrix(1 0 0 1 0 0)" d="M57.00108 676.0338L127.1809 676.0338L127.1809 676.0338L127.1809 660.7112L127.1809 660.7112L57.00108 660.7112z" /></clipPath><clipPath id="335"><path id="" clip-rule="evenodd" transform="matrix(1 0 0 1 0 0)" d="M127.1809 676.0338L548.2599 676.0338L548.2599 676.0338L548.2599 660.7112L548.2599 660.7112L127.1809 660.7112z" /></clipPath><clipPath id="336"><path id="" clip-rule="evenodd" transform="matrix(1 0 0 1 0 0)" d="M127.1809 676.0338L548.2599 676.0338L548.2599 676.0338L548.2599 660.7112L548.2599 660.7112L127.1809 660.7112z" /></clipPath><clipPath id="337"><path id="" clip-rule="evenodd" transform="matrix(1 0 0 1 0 0)" d="M127.1809 676.0338L548.2599 676.0338L548.2599 676.0338L548.2599 660.7112L548.2599 660.7112L127.1809 660.7112z" /></clipPath><clipPath id="338"><path id="" clip-rule="evenodd" transform="matrix(1 0 0 1 0 0)" d="M127.1809 676.0338L548.2599 676.0338L548.2599 676.0338L548.2599 660.7112L548.2599 660.7112L127.1809 660.7112z" /></clipPath></defs><g transform="matrix(1.333333 0 0 1.333333 0 0)"><g clip-path="url(#1)"><g><g clip-path="url(#2)"><path id="88" transform="matrix(1 0 0 -1 0 841)" d="M52.49788 718.2757L543.7567 718.2757L543.7567 718.2757L543.7567 719.1529L543.7567 719.1529L52.49788 719.1529z" stroke="none" fill="#000000" fill-rule="evenodd" /><path id="260" transform="matrix(1 0 0 -1 0 841)" d="M52.49788 657.7456L543.7567 657.7456L543.7567 657.7456L543.7567 658.6228L543.7567 658.6228L52.49788 658.6228z" stroke="none" fill="#000000" fill-rule="evenodd" /><g clip-path="url(#3)"><g clip-path="url(#4)"></g></g><g clip-path="url(#5)"><g clip-path="url(#6)"></g></g><g clip-path="url(#7)"><g clip-path="url(#8)"></g></g><g clip-path="url(#9)"><g clip-path="url(#10)"></g></g><g clip-path="url(#11)"><g clip-path="url(#12)"></g></g><g clip-path="url(#13)"><g clip-path="url(#14)"></g></g><g clip-path="url(#15)"><g clip-path="url(#16)"></g></g><g clip-path="url(#17)"><g clip-path="url(#18)"></g></g><g clip-path="url(#19)"><g clip-path="url(#20)"></g></g><g clip-path="url(#21)"><g clip-path="url(#22)"></g></g><g clip-path="url(#23)"><g clip-path="url(#24)"></g></g><g clip-path="url(#25)"><g clip-path="url(#26)"></g></g><g clip-path="url(#27)"><g clip-path="url(#28)"></g></g><g clip-path="url(#29)"><g clip-path="url(#30)"></g></g><g clip-path="url(#31)"><g clip-path="url(#32)"></g></g><g clip-path="url(#33)"><g clip-path="url(#34)"></g></g><g clip-path="url(#35)"><g clip-path="url(#36)"></g></g><g clip-path="url(#37)"><g clip-path="url(#38)"></g></g><g clip-path="url(#39)"><g clip-path="url(#40)"></g></g><g clip-path="url(#41)"><g clip-path="url(#42)"></g></g><g clip-path="url(#43)"><g clip-path="url(#44)"></g></g><g clip-path="url(#45)"><g clip-path="url(#46)"></g></g><g clip-path="url(#47)"><g clip-path="url(#48)"></g></g><g clip-path="url(#49)"><g clip-path="url(#50)"></g></g><g clip-path="url(#51)"><g clip-path="url(#52)"></g></g><g clip-path="url(#53)"><g clip-path="url(#54)"></g></g><g clip-path="url(#55)"><g clip-path="url(#56)"></g></g><g clip-path="url(#57)"><g clip-path="url(#58)"></g></g><g clip-path="url(#59)"><g clip-path="url(#60)"></g></g><g clip-path="url(#61)"><g clip-path="url(#62)"></g></g><g clip-path="url(#63)"><g clip-path="url(#64)"></g></g><g clip-path="url(#65)"><g clip-path="url(#66)"></g></g><g clip-path="url(#67)"><g clip-path="url(#68)"></g></g><g clip-path="url(#69)"><g clip-path="url(#70)"></g></g><g clip-path="url(#71)"><g clip-path="url(#72)"></g></g><g clip-path="url(#73)"><g clip-path="url(#74)"></g></g><g clip-path="url(#75)"><g clip-path="url(#76)"></g></g><g clip-path="url(#77)"><g clip-path="url(#78)"></g></g><g clip-path="url(#79)"><g clip-path="url(#80)"></g></g><g clip-path="url(#81)"><g clip-path="url(#82)"></g></g><g clip-path="url(#83)"><g clip-path="url(#84)"></g></g><g clip-path="url(#85)"><g clip-path="url(#86)"></g></g><g clip-path="url(#87)"><g clip-path="url(#88)"></g></g><g clip-path="url(#89)"><g clip-path="url(#90)"></g></g><g clip-path="url(#91)"><g clip-path="url(#92)"></g></g><g clip-path="url(#93)"><g clip-path="url(#94)"></g></g><g clip-path="url(#95)"><g clip-path="url(#96)"></g></g><g clip-path="url(#97)"><g clip-path="url(#98)"></g></g><g clip-path="url(#99)"><g clip-path="url(#100)"></g></g><g clip-path="url(#101)"><g clip-path="url(#102)"></g></g><g clip-path="url(#103)"><g clip-path="url(#104)"></g></g><g clip-path="url(#105)"><g clip-path="url(#106)"></g></g><g clip-path="url(#107)"><g clip-path="url(#108)"></g></g><g clip-path="url(#109)"><g clip-path="url(#110)"></g></g><g clip-path="url(#111)"><g clip-path="url(#112)"></g></g><g clip-path="url(#113)"><g clip-path="url(#114)"></g></g><g clip-path="url(#115)"><g clip-path="url(#116)"></g></g><g clip-path="url(#117)"><g clip-path="url(#118)"></g></g><g clip-path="url(#119)"><g clip-path="url(#120)"></g></g><g clip-path="url(#121)"><g clip-path="url(#122)"></g></g><g clip-path="url(#123)"><g clip-path="url(#124)"></g></g><g clip-path="url(#125)"><g clip-path="url(#126)"></g></g><g clip-path="url(#127)"><g clip-path="url(#128)"></g></g><g clip-path="url(#129)"><g clip-path="url(#130)"></g></g><g clip-path="url(#131)"><g clip-path="url(#132)"></g></g><g clip-path="url(#133)"><g clip-path="url(#134)"></g></g><g clip-path="url(#135)"><g clip-path="url(#136)"></g></g><g clip-path="url(#137)"><g clip-path="url(#138)"></g></g><g clip-path="url(#139)"><g clip-path="url(#140)"></g></g><g clip-path="url(#141)"><g clip-path="url(#142)"></g></g><g clip-path="url(#143)"><g clip-path="url(#144)"></g></g><g clip-path="url(#145)"><g clip-path="url(#146)"></g></g><g clip-path="url(#147)"><g clip-path="url(#148)"></g></g><g clip-path="url(#149)"><g clip-path="url(#150)"></g></g><g clip-path="url(#151)"><g clip-path="url(#152)"></g></g><g clip-path="url(#153)"><g clip-path="url(#154)"></g></g><g clip-path="url(#155)"><g clip-path="url(#156)"></g></g><g clip-path="url(#157)"><g clip-path="url(#158)"></g></g><g clip-path="url(#159)"><g clip-path="url(#160)"></g></g><g clip-path="url(#161)"><g clip-path="url(#162)"></g></g><g clip-path="url(#163)"><g clip-path="url(#164)"></g></g><g clip-path="url(#165)"><g clip-path="url(#166)"></g></g><g clip-path="url(#167)"><g clip-path="url(#168)"></g></g><g clip-path="url(#169)"><g clip-path="url(#170)"></g></g><g clip-path="url(#171)"><g clip-path="url(#172)"></g></g><g clip-path="url(#173)"><g clip-path="url(#174)"></g></g><g clip-path="url(#175)"><g clip-path="url(#176)"></g></g><g clip-path="url(#177)"><g clip-path="url(#178)"></g></g><g clip-path="url(#179)"><g clip-path="url(#180)"></g></g><g clip-path="url(#181)"><g clip-path="url(#182)"></g></g><g clip-path="url(#183)"><g clip-path="url(#184)"></g></g><g clip-path="url(#185)"><g clip-path="url(#186)"></g></g><g clip-path="url(#187)"><g clip-path="url(#188)"></g></g><g clip-path="url(#189)"><g clip-path="url(#190)"></g></g><g clip-path="url(#191)"><g clip-path="url(#192)"></g></g><g clip-path="url(#193)"><g clip-path="url(#194)"></g></g><g clip-path="url(#195)"><g clip-path="url(#196)"></g></g><g clip-path="url(#197)"><g clip-path="url(#198)"></g></g><g clip-path="url(#199)"><g clip-path="url(#200)"></g></g><g clip-path="url(#201)"><g clip-path="url(#202)"></g></g><g clip-path="url(#203)"><g clip-path="url(#204)"></g></g><g clip-path="url(#205)"><g clip-path="url(#206)"></g></g><g clip-path="url(#207)"><g clip-path="url(#208)"></g></g><g clip-path="url(#209)"><g clip-path="url(#210)"></g></g><g clip-path="url(#211)"><g clip-path="url(#212)"></g></g><g clip-path="url(#213)"><g clip-path="url(#214)"></g></g><g clip-path="url(#215)"><g clip-path="url(#216)"></g></g><g clip-path="url(#217)"><g clip-path="url(#218)"></g></g><g clip-path="url(#219)"><g clip-path="url(#220)"></g></g><g clip-path="url(#221)"><g clip-path="url(#222)"></g></g><g clip-path="url(#223)"><g clip-path="url(#224)"></g></g><g clip-path="url(#225)"><g clip-path="url(#226)"></g></g><g clip-path="url(#227)"><g clip-path="url(#228)"></g></g><g clip-path="url(#229)"><g clip-path="url(#230)"></g></g><g clip-path="url(#231)"><g clip-path="url(#232)"></g></g><g clip-path="url(#233)"><g clip-path="url(#234)"></g></g><g clip-path="url(#235)"><g clip-path="url(#236)"></g></g><g clip-path="url(#237)"><g clip-path="url(#238)"></g></g><g clip-path="url(#239)"><g clip-path="url(#240)"></g></g><g clip-path="url(#241)"><g clip-path="url(#242)"></g></g><g clip-path="url(#243)"><g clip-path="url(#244)"></g></g><g clip-path="url(#245)"><g clip-path="url(#246)"></g></g><g clip-path="url(#247)"><g clip-path="url(#248)"></g></g><g clip-path="url(#249)"><g clip-path="url(#250)"></g></g><g clip-path="url(#251)"><g clip-path="url(#252)"></g></g><g clip-path="url(#253)"><g clip-path="url(#254)"></g></g><g clip-path="url(#255)"><g clip-path="url(#256)"></g></g><g clip-path="url(#257)"><g clip-path="url(#258)"></g></g><g clip-path="url(#259)"><g clip-path="url(#260)"></g></g><g clip-path="url(#261)"><g clip-path="url(#262)"></g></g><g clip-path="url(#263)"><g clip-path="url(#264)"></g></g><g clip-path="url(#265)"><g clip-path="url(#266)"></g></g><g clip-path="url(#267)"><g clip-path="url(#268)"></g></g><g clip-path="url(#269)"><g clip-path="url(#270)"></g></g><g clip-path="url(#271)"><g clip-path="url(#272)"></g></g><g clip-path="url(#273)"><g clip-path="url(#274)"></g></g><g clip-path="url(#275)"><g clip-path="url(#276)"></g></g><g clip-path="url(#277)"><g clip-path="url(#278)"></g></g><g clip-path="url(#279)"><g clip-path="url(#280)"></g></g><g clip-path="url(#281)"><g clip-path="url(#282)"></g></g><g clip-path="url(#283)"><g clip-path="url(#284)"></g></g><g clip-path="url(#285)"><g clip-path="url(#286)"></g></g><g clip-path="url(#287)"><g clip-path="url(#288)"></g></g><g clip-path="url(#289)"><g clip-path="url(#290)"></g></g><g clip-path="url(#291)"><g clip-path="url(#292)"></g></g><g clip-path="url(#293)"><g clip-path="url(#294)"></g></g><g clip-path="url(#295)"><g clip-path="url(#296)"></g></g><g clip-path="url(#297)"><g clip-path="url(#298)"></g></g><g clip-path="url(#299)"><g clip-path="url(#300)"></g></g><g clip-path="url(#301)"><g clip-path="url(#302)"></g></g><g clip-path="url(#303)"><g clip-path="url(#304)"></g></g><g clip-path="url(#305)"><g clip-path="url(#306)"></g></g><g clip-path="url(#307)"><g clip-path="url(#308)"></g></g><g clip-path="url(#309)"><g clip-path="url(#310)"></g></g><g clip-path="url(#311)"><g clip-path="url(#312)"></g></g><g clip-path="url(#313)"><g clip-path="url(#314)"></g></g><g clip-path="url(#315)"><g clip-path="url(#316)"></g></g><g clip-path="url(#317)"><g clip-path="url(#318)"></g></g><g clip-path="url(#319)"><g clip-path="url(#320)"></g></g><g clip-path="url(#321)"><g clip-path="url(#322)"></g></g><g clip-path="url(#323)"><g clip-path="url(#324)"></g></g><g clip-path="url(#325)"><g clip-path="url(#326)"></g></g><g clip-path="url(#327)"><g clip-path="url(#328)"></g></g><g clip-path="url(#329)"><g clip-path="url(#330)"></g></g><g clip-path="url(#331)"><g clip-path="url(#332)"></g></g><g clip-path="url(#333)"><g clip-path="url(#334)"></g></g><g clip-path="url(#335)"><g clip-path="url(#336)"></g></g><g clip-path="url(#337)"><g clip-path="url(#338)"></g></g></g></g></g></g></svg>