<svg xmlns="http://www.w3.org/2000/svg" xmlns:xlink="http://www.w3.org/1999/xlink" id="body_16" preserveAspectRatio="xMinYMin meet" viewBox="0 0 793 1121"><defs><clipPath id="1"><path id="" clip-rule="evenodd" transform="matrix(1 0 0 1 0 0)" d="M0 841L0 -0.8900146L0 -0.8900146L595.276 -0.8900146L595.276 -0.8900146L595.276 841L595.276 841L0 841z" /></clipPath></defs><g transform="matrix(1.333333 0 0 1.333333 0 0)"><g clip-path="url(#1)"><path id="45" transform="matrix(1 0 0 -1 0 841)" d="M85.039 766.564L510.236 766.564" stroke="#000000" stroke-width="0.498" fill="none" /><path id="90" transform="matrix(1 0 0 -1 0 841)" d="M85.039 708.299L544.088 708.299" stroke="#000000" stroke-width="0.398" fill="none" /><path id="91" transform="matrix(1 0 0 -1 0 841)" d="M85.239 691.163L85.239 708.099" stroke="#000000" stroke-width="0.398" fill="none" /><path id="97" transform="matrix(1 0 0 -1 0 841)" d="M119.497 691.163L119.497 708.099" stroke="#000000" stroke-width="0.398" fill="none" /><path id="132" transform="matrix(1 0 0 -1 0 841)" d="M333.111 691.163L333.111 708.099" stroke="#000000" stroke-width="0.398" fill="none" /><path id="167" transform="matrix(1 0 0 -1 0 841)" d="M543.889 691.163L543.889 708.099" stroke="#000000" stroke-width="0.398" fill="none" /><path id="168" transform="matrix(1 0 0 -1 0 841)" d="M85.039 690.964L544.088 690.964" stroke="#000000" stroke-width="0.398" fill="none" /><path id="169" transform="matrix(1 0 0 -1 0 841)" d="M85.239 671.836L85.239 690.765" stroke="#000000" stroke-width="0.398" fill="none" /><path id="172" transform="matrix(1 0 0 -1 0 841)" d="M119.497 671.836L119.497 690.765" stroke="#000000" stroke-width="0.398" fill="none" /><path id="207" transform="matrix(1 0 0 -1 0 841)" d="M333.111 671.836L333.111 690.765" stroke="#000000" stroke-width="0.398" fill="none" /><path id="311" transform="matrix(1 0 0 -1 0 841)" d="M543.889 671.836L543.889 690.765" stroke="#000000" stroke-width="0.398" fill="none" /><path id="312" transform="matrix(1 0 0 -1 0 841)" d="M85.039 671.636L544.088 671.636" stroke="#000000" stroke-width="0.398" fill="none" /><path id="313" transform="matrix(1 0 0 -1 0 841)" d="M85.239 633.579L85.239 671.437" stroke="#000000" stroke-width="0.398" fill="none" /><path id="316" transform="matrix(1 0 0 -1 0 841)" d="M119.497 633.579L119.497 671.437" stroke="#000000" stroke-width="0.398" fill="none" /><path id="448" transform="matrix(1 0 0 -1 0 841)" d="M333.111 633.579L333.111 671.437" stroke="#000000" stroke-width="0.398" fill="none" /><path id="552" transform="matrix(1 0 0 -1 0 841)" d="M543.889 633.579L543.889 671.437" stroke="#000000" stroke-width="0.398" fill="none" /><path id="553" transform="matrix(1 0 0 -1 0 841)" d="M85.039 633.38L544.088 633.38" stroke="#000000" stroke-width="0.398" fill="none" /><path id="554" transform="matrix(1 0 0 -1 0 841)" d="M85.239 534.7L85.239 633.181" stroke="#000000" stroke-width="0.398" fill="none" /><path id="557" transform="matrix(1 0 0 -1 0 841)" d="M119.497 534.7L119.497 633.181" stroke="#000000" stroke-width="0.398" fill="none" /><path id="775" transform="matrix(1 0 0 -1 0 841)" d="M333.111 534.7L333.111 633.181" stroke="#000000" stroke-width="0.398" fill="none" /><path id="1124" transform="matrix(1 0 0 -1 0 841)" d="M543.889 534.7L543.889 633.181" stroke="#000000" stroke-width="0.398" fill="none" /><path id="1125" transform="matrix(1 0 0 -1 0 841)" d="M85.039 534.501L544.088 534.501" stroke="#000000" stroke-width="0.398" fill="none" /><path id="1126" transform="matrix(1 0 0 -1 0 841)" d="M85.239 435.821L85.239 534.302" stroke="#000000" stroke-width="0.398" fill="none" /><path id="1129" transform="matrix(1 0 0 -1 0 841)" d="M119.497 435.821L119.497 534.302" stroke="#000000" stroke-width="0.398" fill="none" /><path id="1354" transform="matrix(1 0 0 -1 0 841)" d="M333.111 435.821L333.111 534.302" stroke="#000000" stroke-width="0.398" fill="none" /><path id="1730" transform="matrix(1 0 0 -1 0 841)" d="M543.889 435.821L543.889 534.302" stroke="#000000" stroke-width="0.398" fill="none" /><path id="1731" transform="matrix(1 0 0 -1 0 841)" d="M85.039 435.622L544.088 435.622" stroke="#000000" stroke-width="0.398" fill="none" /><path id="1732" transform="matrix(1 0 0 -1 0 841)" d="M85.239 336.942L85.239 435.423" stroke="#000000" stroke-width="0.398" fill="none" /><path id="1735" transform="matrix(1 0 0 -1 0 841)" d="M119.497 336.942L119.497 435.423" stroke="#000000" stroke-width="0.398" fill="none" /><path id="1950" transform="matrix(1 0 0 -1 0 841)" d="M333.111 336.942L333.111 435.423" stroke="#000000" stroke-width="0.398" fill="none" /><path id="2322" transform="matrix(1 0 0 -1 0 841)" d="M543.889 336.942L543.889 435.423" stroke="#000000" stroke-width="0.398" fill="none" /><path id="2323" transform="matrix(1 0 0 -1 0 841)" d="M85.039 336.743L544.088 336.743" stroke="#000000" stroke-width="0.398" fill="none" /></g></g></svg>