<svg xmlns="http://www.w3.org/2000/svg" xmlns:xlink="http://www.w3.org/1999/xlink" id="body_106" preserveAspectRatio="xMinYMin meet" viewBox="0 0 793 1121"><defs><clipPath id="1"><path id="" clip-rule="evenodd" transform="matrix(1 0 0 1 0 0)" d="M0 841L0 -0.8900146L0 -0.8900146L595.276 -0.8900146L595.276 -0.8900146L595.276 841L595.276 841L0 841z" /></clipPath></defs><g transform="matrix(1.333333 0 0 1.333333 0 0)"><g clip-path="url(#1)"><path id="44" transform="matrix(1 0 0 -1 0 841)" d="M85.039 766.564L510.236 766.564" stroke="#000000" stroke-width="0.498" fill="none" /><path id="45" transform="matrix(1 0 0 -1 0 841)" d="M108.965 675.789L486.31 675.789" stroke="#000000" stroke-width="0.398" fill="none" /><path id="46" transform="matrix(1 0 0 -1 0 841)" d="M109.164 662.041L109.164 675.59" stroke="#000000" stroke-width="0.398" fill="none" /><path id="55" transform="matrix(1 0 0 -1 0 841)" d="M290.422 662.041L290.422 675.59" stroke="#000000" stroke-width="0.398" fill="none" /><path id="92" transform="matrix(1 0 0 -1 0 841)" d="M486.111 662.041L486.111 675.59" stroke="#000000" stroke-width="0.398" fill="none" /><path id="93" transform="matrix(1 0 0 -1 0 841)" d="M108.965 661.841L486.31 661.841" stroke="#000000" stroke-width="0.398" fill="none" /><path id="94" transform="matrix(1 0 0 -1 0 841)" d="M109.164 648.093L109.164 661.642" stroke="#000000" stroke-width="0.398" fill="none" /><path id="100" transform="matrix(1 0 0 -1 0 841)" d="M290.422 648.093L290.422 661.642" stroke="#000000" stroke-width="0.398" fill="none" /><path id="102" transform="matrix(1 0 0 -1 0 841)" d="M486.111 648.093L486.111 661.642" stroke="#000000" stroke-width="0.398" fill="none" /><path id="103" transform="matrix(1 0 0 -1 0 841)" d="M108.965 647.894L486.31 647.894" stroke="#000000" stroke-width="0.398" fill="none" /><path id="104" transform="matrix(1 0 0 -1 0 841)" d="M109.164 634.145L109.164 647.694" stroke="#000000" stroke-width="0.398" fill="none" /><path id="119" transform="matrix(1 0 0 -1 0 841)" d="M290.422 634.145L290.422 647.694" stroke="#000000" stroke-width="0.398" fill="none" /><path id="124" transform="matrix(1 0 0 -1 0 841)" d="M486.111 634.145L486.111 647.694" stroke="#000000" stroke-width="0.398" fill="none" /><path id="125" transform="matrix(1 0 0 -1 0 841)" d="M108.965 633.946L486.31 633.946" stroke="#000000" stroke-width="0.398" fill="none" /><path id="126" transform="matrix(1 0 0 -1 0 841)" d="M109.164 620.197L109.164 633.746" stroke="#000000" stroke-width="0.398" fill="none" /><path id="143" transform="matrix(1 0 0 -1 0 841)" d="M290.422 620.197L290.422 633.746" stroke="#000000" stroke-width="0.398" fill="none" /><path id="148" transform="matrix(1 0 0 -1 0 841)" d="M486.111 620.197L486.111 633.746" stroke="#000000" stroke-width="0.398" fill="none" /><path id="149" transform="matrix(1 0 0 -1 0 841)" d="M108.965 619.998L486.31 619.998" stroke="#000000" stroke-width="0.398" fill="none" /><path id="150" transform="matrix(1 0 0 -1 0 841)" d="M109.164 606.25L109.164 619.799" stroke="#000000" stroke-width="0.398" fill="none" /><path id="168" transform="matrix(1 0 0 -1 0 841)" d="M290.422 606.25L290.422 619.799" stroke="#000000" stroke-width="0.398" fill="none" /><path id="173" transform="matrix(1 0 0 -1 0 841)" d="M486.111 606.25L486.111 619.799" stroke="#000000" stroke-width="0.398" fill="none" /><path id="174" transform="matrix(1 0 0 -1 0 841)" d="M108.965 606.051L486.31 606.051" stroke="#000000" stroke-width="0.398" fill="none" /><path id="175" transform="matrix(1 0 0 -1 0 841)" d="M109.164 592.302L109.164 605.851" stroke="#000000" stroke-width="0.398" fill="none" /><path id="190" transform="matrix(1 0 0 -1 0 841)" d="M290.422 592.302L290.422 605.851" stroke="#000000" stroke-width="0.398" fill="none" /><path id="195" transform="matrix(1 0 0 -1 0 841)" d="M486.111 592.302L486.111 605.851" stroke="#000000" stroke-width="0.398" fill="none" /><path id="196" transform="matrix(1 0 0 -1 0 841)" d="M108.965 592.103L486.31 592.103" stroke="#000000" stroke-width="0.398" fill="none" /><path id="197" transform="matrix(1 0 0 -1 0 841)" d="M109.164 578.354L109.164 591.903" stroke="#000000" stroke-width="0.398" fill="none" /><path id="206" transform="matrix(1 0 0 -1 0 841)" d="M290.422 578.354L290.422 591.903" stroke="#000000" stroke-width="0.398" fill="none" /><path id="210" transform="matrix(1 0 0 -1 0 841)" d="M486.111 578.354L486.111 591.903" stroke="#000000" stroke-width="0.398" fill="none" /><path id="211" transform="matrix(1 0 0 -1 0 841)" d="M108.965 578.155L486.31 578.155" stroke="#000000" stroke-width="0.398" fill="none" /><path id="212" transform="matrix(1 0 0 -1 0 841)" d="M109.164 564.407L109.164 577.956" stroke="#000000" stroke-width="0.398" fill="none" /><path id="228" transform="matrix(1 0 0 -1 0 841)" d="M290.422 564.407L290.422 577.956" stroke="#000000" stroke-width="0.398" fill="none" /><path id="233" transform="matrix(1 0 0 -1 0 841)" d="M486.111 564.407L486.111 577.956" stroke="#000000" stroke-width="0.398" fill="none" /><path id="234" transform="matrix(1 0 0 -1 0 841)" d="M108.965 564.207L486.31 564.207" stroke="#000000" stroke-width="0.398" fill="none" /><path id="235" transform="matrix(1 0 0 -1 0 841)" d="M109.164 550.459L109.164 564.008" stroke="#000000" stroke-width="0.398" fill="none" /><path id="251" transform="matrix(1 0 0 -1 0 841)" d="M290.422 550.459L290.422 564.008" stroke="#000000" stroke-width="0.398" fill="none" /><path id="256" transform="matrix(1 0 0 -1 0 841)" d="M486.111 550.459L486.111 564.008" stroke="#000000" stroke-width="0.398" fill="none" /><path id="257" transform="matrix(1 0 0 -1 0 841)" d="M108.965 550.26L486.31 550.26" stroke="#000000" stroke-width="0.398" fill="none" /><path id="258" transform="matrix(1 0 0 -1 0 841)" d="M109.164 536.511L109.164 550.06" stroke="#000000" stroke-width="0.398" fill="none" /><path id="267" transform="matrix(1 0 0 -1 0 841)" d="M290.422 536.511L290.422 550.06" stroke="#000000" stroke-width="0.398" fill="none" /><path id="274" transform="matrix(1 0 0 -1 0 841)" d="M486.111 536.511L486.111 550.06" stroke="#000000" stroke-width="0.398" fill="none" /><path id="275" transform="matrix(1 0 0 -1 0 841)" d="M108.965 536.312L486.31 536.312" stroke="#000000" stroke-width="0.398" fill="none" /><path id="276" transform="matrix(1 0 0 -1 0 841)" d="M109.164 522.564L109.164 536.113" stroke="#000000" stroke-width="0.398" fill="none" /><path id="308" transform="matrix(1 0 0 -1 0 841)" d="M290.422 522.564L290.422 536.113" stroke="#000000" stroke-width="0.398" fill="none" /><path id="310" transform="matrix(1 0 0 -1 0 841)" d="M486.111 522.564L486.111 536.113" stroke="#000000" stroke-width="0.398" fill="none" /><path id="311" transform="matrix(1 0 0 -1 0 841)" d="M108.965 522.364L486.31 522.364" stroke="#000000" stroke-width="0.398" fill="none" /><path id="312" transform="matrix(1 0 0 -1 0 841)" d="M109.164 508.616L109.164 522.165" stroke="#000000" stroke-width="0.398" fill="none" /><path id="324" transform="matrix(1 0 0 -1 0 841)" d="M290.422 508.616L290.422 522.165" stroke="#000000" stroke-width="0.398" fill="none" /><path id="330" transform="matrix(1 0 0 -1 0 841)" d="M486.111 508.616L486.111 522.165" stroke="#000000" stroke-width="0.398" fill="none" /><path id="331" transform="matrix(1 0 0 -1 0 841)" d="M108.965 508.417L486.31 508.417" stroke="#000000" stroke-width="0.398" fill="none" /><path id="332" transform="matrix(1 0 0 -1 0 841)" d="M109.164 494.668L109.164 508.217" stroke="#000000" stroke-width="0.398" fill="none" /><path id="347" transform="matrix(1 0 0 -1 0 841)" d="M290.422 494.668L290.422 508.217" stroke="#000000" stroke-width="0.398" fill="none" /><path id="350" transform="matrix(1 0 0 -1 0 841)" d="M486.111 494.668L486.111 508.217" stroke="#000000" stroke-width="0.398" fill="none" /><path id="351" transform="matrix(1 0 0 -1 0 841)" d="M108.965 494.469L486.31 494.469" stroke="#000000" stroke-width="0.398" fill="none" /><path id="352" transform="matrix(1 0 0 -1 0 841)" d="M109.164 480.721L109.164 494.27" stroke="#000000" stroke-width="0.398" fill="none" /><path id="365" transform="matrix(1 0 0 -1 0 841)" d="M290.422 480.721L290.422 494.27" stroke="#000000" stroke-width="0.398" fill="none" /><path id="369" transform="matrix(1 0 0 -1 0 841)" d="M486.111 480.721L486.111 494.27" stroke="#000000" stroke-width="0.398" fill="none" /><path id="370" transform="matrix(1 0 0 -1 0 841)" d="M108.965 480.521L486.31 480.521" stroke="#000000" stroke-width="0.398" fill="none" /><path id="371" transform="matrix(1 0 0 -1 0 841)" d="M109.164 466.773L109.164 480.322" stroke="#000000" stroke-width="0.398" fill="none" /><path id="375" transform="matrix(1 0 0 -1 0 841)" d="M290.422 466.773L290.422 480.322" stroke="#000000" stroke-width="0.398" fill="none" /><path id="380" transform="matrix(1 0 0 -1 0 841)" d="M486.111 466.773L486.111 480.322" stroke="#000000" stroke-width="0.398" fill="none" /><path id="381" transform="matrix(1 0 0 -1 0 841)" d="M108.965 466.574L486.31 466.574" stroke="#000000" stroke-width="0.398" fill="none" /><path id="382" transform="matrix(1 0 0 -1 0 841)" d="M109.164 452.825L109.164 466.374" stroke="#000000" stroke-width="0.398" fill="none" /><path id="399" transform="matrix(1 0 0 -1 0 841)" d="M290.422 452.825L290.422 466.374" stroke="#000000" stroke-width="0.398" fill="none" /><path id="404" transform="matrix(1 0 0 -1 0 841)" d="M486.111 452.825L486.111 466.374" stroke="#000000" stroke-width="0.398" fill="none" /><path id="405" transform="matrix(1 0 0 -1 0 841)" d="M108.965 452.626L486.31 452.626" stroke="#000000" stroke-width="0.398" fill="none" /><path id="406" transform="matrix(1 0 0 -1 0 841)" d="M109.164 438.878L109.164 452.427" stroke="#000000" stroke-width="0.398" fill="none" /><path id="416" transform="matrix(1 0 0 -1 0 841)" d="M290.422 438.878L290.422 452.427" stroke="#000000" stroke-width="0.398" fill="none" /><path id="420" transform="matrix(1 0 0 -1 0 841)" d="M486.111 438.878L486.111 452.427" stroke="#000000" stroke-width="0.398" fill="none" /><path id="421" transform="matrix(1 0 0 -1 0 841)" d="M108.965 438.678L486.31 438.678" stroke="#000000" stroke-width="0.398" fill="none" /><path id="422" transform="matrix(1 0 0 -1 0 841)" d="M109.164 424.93L109.164 438.479" stroke="#000000" stroke-width="0.398" fill="none" /><path id="449" transform="matrix(1 0 0 -1 0 841)" d="M290.422 424.93L290.422 438.479" stroke="#000000" stroke-width="0.398" fill="none" /><path id="454" transform="matrix(1 0 0 -1 0 841)" d="M486.111 424.93L486.111 438.479" stroke="#000000" stroke-width="0.398" fill="none" /><path id="455" transform="matrix(1 0 0 -1 0 841)" d="M108.965 424.731L486.31 424.731" stroke="#000000" stroke-width="0.398" fill="none" /><path id="456" transform="matrix(1 0 0 -1 0 841)" d="M109.164 410.982L109.164 424.531" stroke="#000000" stroke-width="0.398" fill="none" /><path id="468" transform="matrix(1 0 0 -1 0 841)" d="M290.422 410.982L290.422 424.531" stroke="#000000" stroke-width="0.398" fill="none" /><path id="474" transform="matrix(1 0 0 -1 0 841)" d="M486.111 410.982L486.111 424.531" stroke="#000000" stroke-width="0.398" fill="none" /><path id="475" transform="matrix(1 0 0 -1 0 841)" d="M108.965 410.783L486.31 410.783" stroke="#000000" stroke-width="0.398" fill="none" /><path id="476" transform="matrix(1 0 0 -1 0 841)" d="M109.164 397.035L109.164 410.584" stroke="#000000" stroke-width="0.398" fill="none" /><path id="504" transform="matrix(1 0 0 -1 0 841)" d="M290.422 397.035L290.422 410.584" stroke="#000000" stroke-width="0.398" fill="none" /><path id="512" transform="matrix(1 0 0 -1 0 841)" d="M486.111 397.035L486.111 410.584" stroke="#000000" stroke-width="0.398" fill="none" /><path id="513" transform="matrix(1 0 0 -1 0 841)" d="M108.965 396.835L486.31 396.835" stroke="#000000" stroke-width="0.398" fill="none" /><path id="514" transform="matrix(1 0 0 -1 0 841)" d="M109.164 383.087L109.164 396.636" stroke="#000000" stroke-width="0.398" fill="none" /><path id="543" transform="matrix(1 0 0 -1 0 841)" d="M290.422 383.087L290.422 396.636" stroke="#000000" stroke-width="0.398" fill="none" /><path id="551" transform="matrix(1 0 0 -1 0 841)" d="M486.111 383.087L486.111 396.636" stroke="#000000" stroke-width="0.398" fill="none" /><path id="552" transform="matrix(1 0 0 -1 0 841)" d="M108.965 382.888L486.31 382.888" stroke="#000000" stroke-width="0.398" fill="none" /><path id="553" transform="matrix(1 0 0 -1 0 841)" d="M109.164 369.139L109.164 382.688" stroke="#000000" stroke-width="0.398" fill="none" /><path id="585" transform="matrix(1 0 0 -1 0 841)" d="M290.422 369.139L290.422 382.688" stroke="#000000" stroke-width="0.398" fill="none" /><path id="593" transform="matrix(1 0 0 -1 0 841)" d="M486.111 369.139L486.111 382.688" stroke="#000000" stroke-width="0.398" fill="none" /><path id="594" transform="matrix(1 0 0 -1 0 841)" d="M108.965 368.94L486.31 368.94" stroke="#000000" stroke-width="0.398" fill="none" /><path id="595" transform="matrix(1 0 0 -1 0 841)" d="M109.164 355.192L109.164 368.741" stroke="#000000" stroke-width="0.398" fill="none" /><path id="628" transform="matrix(1 0 0 -1 0 841)" d="M290.422 355.192L290.422 368.741" stroke="#000000" stroke-width="0.398" fill="none" /><path id="635" transform="matrix(1 0 0 -1 0 841)" d="M486.111 355.192L486.111 368.741" stroke="#000000" stroke-width="0.398" fill="none" /><path id="636" transform="matrix(1 0 0 -1 0 841)" d="M108.965 354.992L486.31 354.992" stroke="#000000" stroke-width="0.398" fill="none" /><path id="637" transform="matrix(1 0 0 -1 0 841)" d="M109.164 341.244L109.164 354.793" stroke="#000000" stroke-width="0.398" fill="none" /><path id="671" transform="matrix(1 0 0 -1 0 841)" d="M290.422 341.244L290.422 354.793" stroke="#000000" stroke-width="0.398" fill="none" /><path id="680" transform="matrix(1 0 0 -1 0 841)" d="M486.111 341.244L486.111 354.793" stroke="#000000" stroke-width="0.398" fill="none" /><path id="681" transform="matrix(1 0 0 -1 0 841)" d="M108.965 341.045L486.31 341.045" stroke="#000000" stroke-width="0.398" fill="none" /><path id="682" transform="matrix(1 0 0 -1 0 841)" d="M109.164 327.296L109.164 340.845" stroke="#000000" stroke-width="0.398" fill="none" /><path id="709" transform="matrix(1 0 0 -1 0 841)" d="M290.422 327.296L290.422 340.845" stroke="#000000" stroke-width="0.398" fill="none" /><path id="719" transform="matrix(1 0 0 -1 0 841)" d="M486.111 327.296L486.111 340.845" stroke="#000000" stroke-width="0.398" fill="none" /><path id="720" transform="matrix(1 0 0 -1 0 841)" d="M108.965 327.097L486.31 327.097" stroke="#000000" stroke-width="0.398" fill="none" /><path id="721" transform="matrix(1 0 0 -1 0 841)" d="M109.164 313.348L109.164 326.897" stroke="#000000" stroke-width="0.398" fill="none" /><path id="754" transform="matrix(1 0 0 -1 0 841)" d="M290.422 313.348L290.422 326.897" stroke="#000000" stroke-width="0.398" fill="none" /><path id="764" transform="matrix(1 0 0 -1 0 841)" d="M486.111 313.348L486.111 326.897" stroke="#000000" stroke-width="0.398" fill="none" /><path id="765" transform="matrix(1 0 0 -1 0 841)" d="M108.965 313.149L486.31 313.149" stroke="#000000" stroke-width="0.398" fill="none" /><path id="766" transform="matrix(1 0 0 -1 0 841)" d="M109.164 299.401L109.164 312.95" stroke="#000000" stroke-width="0.398" fill="none" /><path id="777" transform="matrix(1 0 0 -1 0 841)" d="M290.422 299.401L290.422 312.95" stroke="#000000" stroke-width="0.398" fill="none" /><path id="782" transform="matrix(1 0 0 -1 0 841)" d="M486.111 299.401L486.111 312.95" stroke="#000000" stroke-width="0.398" fill="none" /><path id="783" transform="matrix(1 0 0 -1 0 841)" d="M108.965 299.202L486.31 299.202" stroke="#000000" stroke-width="0.398" fill="none" /><path id="784" transform="matrix(1 0 0 -1 0 841)" d="M109.164 285.453L109.164 299.002" stroke="#000000" stroke-width="0.398" fill="none" /><path id="800" transform="matrix(1 0 0 -1 0 841)" d="M290.422 285.453L290.422 299.002" stroke="#000000" stroke-width="0.398" fill="none" /><path id="805" transform="matrix(1 0 0 -1 0 841)" d="M486.111 285.453L486.111 299.002" stroke="#000000" stroke-width="0.398" fill="none" /><path id="806" transform="matrix(1 0 0 -1 0 841)" d="M108.965 285.254L486.31 285.254" stroke="#000000" stroke-width="0.398" fill="none" /><path id="807" transform="matrix(1 0 0 -1 0 841)" d="M109.164 271.505L109.164 285.054" stroke="#000000" stroke-width="0.398" fill="none" /><path id="811" transform="matrix(1 0 0 -1 0 841)" d="M290.422 271.505L290.422 285.054" stroke="#000000" stroke-width="0.398" fill="none" /><path id="818" transform="matrix(1 0 0 -1 0 841)" d="M486.111 271.505L486.111 285.054" stroke="#000000" stroke-width="0.398" fill="none" /><path id="819" transform="matrix(1 0 0 -1 0 841)" d="M108.965 271.306L486.31 271.306" stroke="#000000" stroke-width="0.398" fill="none" /><path id="820" transform="matrix(1 0 0 -1 0 841)" d="M109.164 257.558L109.164 271.107" stroke="#000000" stroke-width="0.398" fill="none" /><path id="846" transform="matrix(1 0 0 -1 0 841)" d="M290.422 257.558L290.422 271.107" stroke="#000000" stroke-width="0.398" fill="none" /><path id="852" transform="matrix(1 0 0 -1 0 841)" d="M486.111 257.558L486.111 271.107" stroke="#000000" stroke-width="0.398" fill="none" /><path id="853" transform="matrix(1 0 0 -1 0 841)" d="M108.965 257.359L486.31 257.359" stroke="#000000" stroke-width="0.398" fill="none" /><path id="854" transform="matrix(1 0 0 -1 0 841)" d="M109.164 243.61L109.164 257.159" stroke="#000000" stroke-width="0.398" fill="none" /><path id="877" transform="matrix(1 0 0 -1 0 841)" d="M290.422 243.61L290.422 257.159" stroke="#000000" stroke-width="0.398" fill="none" /><path id="882" transform="matrix(1 0 0 -1 0 841)" d="M486.111 243.61L486.111 257.159" stroke="#000000" stroke-width="0.398" fill="none" /><path id="883" transform="matrix(1 0 0 -1 0 841)" d="M108.965 243.411L486.31 243.411" stroke="#000000" stroke-width="0.398" fill="none" /><path id="884" transform="matrix(1 0 0 -1 0 841)" d="M109.164 229.662L109.164 243.211" stroke="#000000" stroke-width="0.398" fill="none" /><path id="907" transform="matrix(1 0 0 -1 0 841)" d="M290.422 229.662L290.422 243.211" stroke="#000000" stroke-width="0.398" fill="none" /><path id="912" transform="matrix(1 0 0 -1 0 841)" d="M486.111 229.662L486.111 243.211" stroke="#000000" stroke-width="0.398" fill="none" /><path id="913" transform="matrix(1 0 0 -1 0 841)" d="M108.965 229.463L486.31 229.463" stroke="#000000" stroke-width="0.398" fill="none" /><path id="914" transform="matrix(1 0 0 -1 0 841)" d="M109.164 215.715L109.164 229.264" stroke="#000000" stroke-width="0.398" fill="none" /><path id="941" transform="matrix(1 0 0 -1 0 841)" d="M290.422 215.715L290.422 229.264" stroke="#000000" stroke-width="0.398" fill="none" /><path id="947" transform="matrix(1 0 0 -1 0 841)" d="M486.111 215.715L486.111 229.264" stroke="#000000" stroke-width="0.398" fill="none" /><path id="948" transform="matrix(1 0 0 -1 0 841)" d="M108.965 215.515L486.31 215.515" stroke="#000000" stroke-width="0.398" fill="none" /><path id="949" transform="matrix(1 0 0 -1 0 841)" d="M109.164 201.767L109.164 215.316" stroke="#000000" stroke-width="0.398" fill="none" /><path id="958" transform="matrix(1 0 0 -1 0 841)" d="M290.422 201.767L290.422 215.316" stroke="#000000" stroke-width="0.398" fill="none" /><path id="963" transform="matrix(1 0 0 -1 0 841)" d="M486.111 201.767L486.111 215.316" stroke="#000000" stroke-width="0.398" fill="none" /><path id="964" transform="matrix(1 0 0 -1 0 841)" d="M108.965 201.568L486.31 201.568" stroke="#000000" stroke-width="0.398" fill="none" /></g></g></svg>