<svg xmlns="http://www.w3.org/2000/svg" xmlns:xlink="http://www.w3.org/1999/xlink" id="body_68" preserveAspectRatio="xMinYMin meet" viewBox="0 0 793 1121"><defs><clipPath id="1"><path id="" clip-rule="evenodd" transform="matrix(1 0 0 1 0 0)" d="M0 841L0 -0.8900146L0 -0.8900146L595.276 -0.8900146L595.276 -0.8900146L595.276 841L595.276 841L0 841z" /></clipPath><clipPath id="2"><path id="" clip-rule="evenodd" transform="matrix(1 0 0 1 0 0)" d="M85.039 646.75L603.439 646.75L603.439 646.75L603.439 85.14996L603.439 85.14996L85.039 85.14996z" /></clipPath><clipPath id="3"><path id="" clip-rule="evenodd" transform="matrix(1 0 0 1 0 0)" d="M85.039 646.7499L603.439 646.7499L603.439 646.7499L603.439 85.14984L603.439 85.14984L85.039 85.14984z" /></clipPath><clipPath id="4"><path id="" clip-rule="evenodd" transform="matrix(1 0 0 1 0 0)" d="M101.077 646.7497L574.441 646.7497L574.441 646.7497L574.441 103.8697L574.441 103.8697L101.077 103.8697z" /></clipPath></defs><g transform="matrix(1.333333 0 0 1.333333 0 0)"><g clip-path="url(#1)"><g><g clip-path="url(#2)"><g clip-path="url(#3)"><path id="1" transform="matrix(1 0 0 -1 0 841)" d="M85.039 194.25L603.439 194.25L603.439 194.25L603.439 755.85L603.439 755.85L85.039 755.85z" stroke="none" fill="#FFFFFF" fill-rule="evenodd" /></g><g clip-path="url(#4)"><g transform="matrix(0.2482245 0 0 0.248344 101.077 103.8699)"><g transform="matrix(1 0 0 1 0 0)"><image x="0" y="0" xlink:href="img_87.png" width="1907" height="2186" /></g></g></g></g></g></g></g></svg>