<svg xmlns="http://www.w3.org/2000/svg" xmlns:xlink="http://www.w3.org/1999/xlink" id="body_286" preserveAspectRatio="xMinYMin meet" viewBox="0 0 793 1121"><defs><clipPath id="1"><path id="" clip-rule="evenodd" transform="matrix(1 0 0 1 0 0)" d="M0 841L0 -0.8900146L0 -0.8900146L595.276 -0.8900146L595.276 -0.8900146L595.276 841L595.276 841L0 841z" /></clipPath></defs><g transform="matrix(1.333333 0 0 1.333333 0 0)"><g clip-path="url(#1)"><path id="19" transform="matrix(1 0 0 -1 0 841)" d="M85.039 766.564L510.236 766.564" stroke="#000000" stroke-width="0.498" fill="none" /><path id="53" transform="matrix(1 0 0 -1 0 841)" d="M302.054 744.796L397.377 744.796" stroke="#000000" stroke-width="0.436" fill="none" /><path id="265" transform="matrix(1 0 0 -1 0 841)" d="M236.512 635.885L307.347 635.885" stroke="#000000" stroke-width="0.436" fill="none" /><path id="289" transform="matrix(1 0 0 -1 0 841)" d="M346.715 651.795L405.835 651.795L405.835 655.78L346.715 655.78z" stroke="none" fill="#000000" fill-rule="nonzero" /><path id="290" transform="matrix(1 0 0 -1 0 841)" d="M346.715 619.658L350.7 619.658L350.7 653.787L346.715 653.787z" stroke="none" fill="#000000" fill-rule="nonzero" /><path id="291" transform="matrix(1 0 0 -1 0 841)" d="M401.849 619.658L405.834 619.658L405.834 653.787L401.849 653.787z" stroke="none" fill="#000000" fill-rule="nonzero" /><path id="292" transform="matrix(1 0 0 -1 0 841)" d="M346.715 617.665L405.835 617.665L405.835 621.65L346.715 621.65z" stroke="none" fill="#000000" fill-rule="nonzero" /></g></g></svg>