<svg xmlns="http://www.w3.org/2000/svg" xmlns:xlink="http://www.w3.org/1999/xlink" id="body_350" preserveAspectRatio="xMinYMin meet" viewBox="0 0 793 1121"><defs><clipPath id="1"><path id="" clip-rule="evenodd" transform="matrix(1 0 0 1 0 0)" d="M0 841L0 -0.8900146L0 -0.8900146L595.276 -0.8900146L595.276 -0.8900146L595.276 841L595.276 841L0 841z" /></clipPath></defs><g transform="matrix(1.333333 0 0 1.333333 0 0)"><g clip-path="url(#1)"><path id="34" transform="matrix(1 0 0 -1 0 841)" d="M85.039 766.564L510.236 766.564" stroke="#000000" stroke-width="0.498" fill="none" /><path id="43" transform="matrix(1 0 0 -1 0 841)" d="M139.543 744.742L181.957 744.742" stroke="#000000" stroke-width="0.436" fill="none" /><path id="60" transform="matrix(1 0 0 -1 0 841)" d="M192.833 744.742L258.213 744.742" stroke="#000000" stroke-width="0.436" fill="none" /><path id="67" transform="matrix(1 0 0 -1 0 841)" d="M269.089 744.742L313.336 744.742" stroke="#000000" stroke-width="0.436" fill="none" /><path id="75" transform="matrix(1 0 0 -1 0 841)" d="M138.347 730.642L314.531 730.642" stroke="#000000" stroke-width="0.436" fill="none" /><path id="99" transform="matrix(1 0 0 -1 0 841)" d="M329.052 739.225L398.849 739.225" stroke="#000000" stroke-width="0.398" fill="none" /><path id="100" transform="matrix(1 0 0 -1 0 841)" d="M329.251 722L329.251 739.225" stroke="#000000" stroke-width="0.398" fill="none" /><path id="101" transform="matrix(1 0 0 -1 0 841)" d="M398.649 722L398.649 739.225" stroke="#000000" stroke-width="0.398" fill="none" /><path id="102" transform="matrix(1 0 0 -1 0 841)" d="M329.052 722L398.849 722" stroke="#000000" stroke-width="0.398" fill="none" /><path id="387" transform="matrix(1 0 0 -1 0 841)" d="M207.842 562.273L310.244 562.273" stroke="#000000" stroke-width="0.436" fill="none" /><path id="441" transform="matrix(1 0 0 -1 0 841)" d="M254.074 526.995L335.084 526.995" stroke="#000000" stroke-width="0.436" fill="none" /><path id="494" transform="matrix(1 0 0 -1 0 841)" d="M287.779 491.072L354.381 491.072" stroke="#000000" stroke-width="0.436" fill="none" /><path id="503" transform="matrix(1 0 0 -1 0 841)" d="M364.649 491.072L410.653 491.072" stroke="#000000" stroke-width="0.436" fill="none" /><path id="519" transform="matrix(1 0 0 -1 0 841)" d="M437.285 491.072L453.648 491.072" stroke="#000000" stroke-width="0.436" fill="none" /><path id="532" transform="matrix(1 0 0 -1 0 841)" d="M467.56 499.044L510.236 499.044" stroke="#000000" stroke-width="0.398" fill="none" /><path id="533" transform="matrix(1 0 0 -1 0 841)" d="M467.759 484.988L467.759 499.044" stroke="#000000" stroke-width="0.398" fill="none" /><path id="534" transform="matrix(1 0 0 -1 0 841)" d="M510.037 484.988L510.037 499.044" stroke="#000000" stroke-width="0.398" fill="none" /><path id="535" transform="matrix(1 0 0 -1 0 841)" d="M467.56 484.988L510.236 484.988" stroke="#000000" stroke-width="0.398" fill="none" /><path id="769" transform="matrix(1 0 0 -1 0 841)" d="M313.407 376.193L338.258 376.193" stroke="#000000" stroke-width="0.436" fill="none" /><path id="790" transform="matrix(1 0 0 -1 0 841)" d="M392.452 376.193L406.95 376.193" stroke="#000000" stroke-width="0.436" fill="none" /><path id="796" transform="matrix(1 0 0 -1 0 841)" d="M227.98 359.239L408.146 359.239" stroke="#000000" stroke-width="0.436" fill="none" /><path id="819" transform="matrix(1 0 0 -1 0 841)" d="M422.666 369.537L488.13 369.537" stroke="#000000" stroke-width="0.398" fill="none" /><path id="820" transform="matrix(1 0 0 -1 0 841)" d="M422.865 350.597L422.865 369.538" stroke="#000000" stroke-width="0.398" fill="none" /><path id="821" transform="matrix(1 0 0 -1 0 841)" d="M487.931 350.597L487.931 369.538" stroke="#000000" stroke-width="0.398" fill="none" /><path id="822" transform="matrix(1 0 0 -1 0 841)" d="M422.666 350.597L488.13 350.597" stroke="#000000" stroke-width="0.398" fill="none" /><path id="976" transform="matrix(1 0 0 -1 0 841)" d="M212.512 270.431L277.892 270.431" stroke="#000000" stroke-width="0.436" fill="none" /><path id="996" transform="matrix(1 0 0 -1 0 841)" d="M320.282 278.19L341.598 278.19" stroke="#000000" stroke-width="0.398" fill="none" /><path id="997" transform="matrix(1 0 0 -1 0 841)" d="M320.481 264.391L320.481 278.191" stroke="#000000" stroke-width="0.398" fill="none" /><path id="998" transform="matrix(1 0 0 -1 0 841)" d="M341.399 264.391L341.399 278.191" stroke="#000000" stroke-width="0.398" fill="none" /><path id="999" transform="matrix(1 0 0 -1 0 841)" d="M320.282 264.391L341.598 264.391" stroke="#000000" stroke-width="0.398" fill="none" /><path id="1192" transform="matrix(1 0 0 -1 0 841)" d="M304.64 180.281L455.65 180.281" stroke="#000000" stroke-width="0.436" fill="none" /><path id="1342" transform="matrix(1 0 0 -1 0 841)" d="M265.633 111.411L316.536 111.411" stroke="#000000" stroke-width="0.436" fill="none" /><path id="1358" transform="matrix(1 0 0 -1 0 841)" d="M339.062 111.411L358.458 111.411" stroke="#000000" stroke-width="0.436" fill="none" /><path id="1361" transform="matrix(1 0 0 -1 0 841)" d="M255.809 93.52L359.654 93.52" stroke="#000000" stroke-width="0.436" fill="none" /><path id="1382" transform="matrix(1 0 0 -1 0 841)" d="M374.174 102.103L422.163 102.103" stroke="#000000" stroke-width="0.398" fill="none" /><path id="1383" transform="matrix(1 0 0 -1 0 841)" d="M374.374 84.878L374.374 102.103" stroke="#000000" stroke-width="0.398" fill="none" /><path id="1384" transform="matrix(1 0 0 -1 0 841)" d="M421.964 84.878L421.964 102.103" stroke="#000000" stroke-width="0.398" fill="none" /><path id="1385" transform="matrix(1 0 0 -1 0 841)" d="M374.174 84.878L422.163 84.878" stroke="#000000" stroke-width="0.398" fill="none" /></g></g></svg>