<svg xmlns="http://www.w3.org/2000/svg" xmlns:xlink="http://www.w3.org/1999/xlink" id="body_352" preserveAspectRatio="xMinYMin meet" viewBox="0 0 793 1121"><defs><clipPath id="1"><path id="" clip-rule="evenodd" transform="matrix(1 0 0 1 0 0)" d="M0 841L0 -0.8900146L0 -0.8900146L595.276 -0.8900146L595.276 -0.8900146L595.276 841L595.276 841L0 841z" /></clipPath><clipPath id="2"><path id="" clip-rule="evenodd" transform="matrix(1 0 0 1 0 0)" d="M-0.139 805.413L595.4166 805.413L595.4166 805.413L595.4166 34.69409L595.4166 34.69409L-0.139 34.69409z" /></clipPath><clipPath id="3"><path id="" clip-rule="evenodd" transform="matrix(1 0 0 1 0 0)" d="M287.0122 219.3747L542.634 219.3747L542.634 219.3747L542.634 204.3107L542.634 204.3107L287.0122 204.3107z" /></clipPath><clipPath id="4"><path id="" clip-rule="evenodd" transform="matrix(1 0 0 1 0 0)" d="M287.0122 219.3747L542.634 219.3747L542.634 219.3747L542.634 204.3107L542.634 204.3107L287.0122 204.3107z" /></clipPath><clipPath id="5"><path id="" clip-rule="evenodd" transform="matrix(1 0 0 1 0 0)" d="M287.0122 219.3747L542.634 219.3747L542.634 219.3747L542.634 204.3107L542.634 204.3107L287.0122 204.3107z" /></clipPath><clipPath id="6"><path id="" clip-rule="evenodd" transform="matrix(1 0 0 1 0 0)" d="M287.0122 219.3747L542.634 219.3747L542.634 219.3747L542.634 204.3107L542.634 204.3107L287.0122 204.3107z" /></clipPath><clipPath id="7"><path id="" clip-rule="evenodd" transform="matrix(1 0 0 1 0 0)" d="M287.0122 219.3747L542.634 219.3747L542.634 219.3747L542.634 204.3107L542.634 204.3107L287.0122 204.3107z" /></clipPath><clipPath id="8"><path id="" clip-rule="evenodd" transform="matrix(1 0 0 1 0 0)" d="M287.0122 219.3747L542.634 219.3747L542.634 219.3747L542.634 204.3107L542.634 204.3107L287.0122 204.3107z" /></clipPath><clipPath id="9"><path id="" clip-rule="evenodd" transform="matrix(1 0 0 1 0 0)" d="M52.64357 234.9642L286.5451 234.9642L286.5451 234.9642L286.5451 219.9002L286.5451 219.9002L52.64357 219.9002z" /></clipPath><clipPath id="10"><path id="" clip-rule="evenodd" transform="matrix(1 0 0 1 0 0)" d="M52.64357 234.9642L286.5451 234.9642L286.5451 234.9642L286.5451 219.9002L286.5451 219.9002L52.64357 219.9002z" /></clipPath><clipPath id="11"><path id="" clip-rule="evenodd" transform="matrix(1 0 0 1 0 0)" d="M52.64357 234.9642L286.5451 234.9642L286.5451 234.9642L286.5451 219.9002L286.5451 219.9002L52.64357 219.9002z" /></clipPath><clipPath id="12"><path id="" clip-rule="evenodd" transform="matrix(1 0 0 1 0 0)" d="M52.64357 234.9642L286.5451 234.9642L286.5451 234.9642L286.5451 219.9002L286.5451 219.9002L52.64357 219.9002z" /></clipPath><clipPath id="13"><path id="" clip-rule="evenodd" transform="matrix(1 0 0 1 0 0)" d="M287.0122 234.9642L350.5381 234.9642L350.5381 234.9642L350.5381 219.9002L350.5381 219.9002L287.0122 219.9002z" /></clipPath><clipPath id="14"><path id="" clip-rule="evenodd" transform="matrix(1 0 0 1 0 0)" d="M287.0122 234.9642L350.5381 234.9642L350.5381 234.9642L350.5381 219.9002L350.5381 219.9002L287.0122 219.9002z" /></clipPath><clipPath id="15"><path id="" clip-rule="evenodd" transform="matrix(1 0 0 1 0 0)" d="M287.0122 234.9642L350.5381 234.9642L350.5381 234.9642L350.5381 219.9002L350.5381 219.9002L287.0122 219.9002z" /></clipPath><clipPath id="16"><path id="" clip-rule="evenodd" transform="matrix(1 0 0 1 0 0)" d="M287.0122 234.9642L350.5381 234.9642L350.5381 234.9642L350.5381 219.9002L350.5381 219.9002L287.0122 219.9002z" /></clipPath><clipPath id="17"><path id="" clip-rule="evenodd" transform="matrix(1 0 0 1 0 0)" d="M351.0052 234.9642L414.5895 234.9642L414.5895 234.9642L414.5895 219.9002L414.5895 219.9002L351.0052 219.9002z" /></clipPath><clipPath id="18"><path id="" clip-rule="evenodd" transform="matrix(1 0 0 1 0 0)" d="M351.0052 234.9642L414.5895 234.9642L414.5895 234.9642L414.5895 219.9002L414.5895 219.9002L351.0052 219.9002z" /></clipPath><clipPath id="19"><path id="" clip-rule="evenodd" transform="matrix(1 0 0 1 0 0)" d="M351.0052 234.9642L414.5895 234.9642L414.5895 234.9642L414.5895 219.9002L414.5895 219.9002L351.0052 219.9002z" /></clipPath><clipPath id="20"><path id="" clip-rule="evenodd" transform="matrix(1 0 0 1 0 0)" d="M351.0052 234.9642L414.5895 234.9642L414.5895 234.9642L414.5895 219.9002L414.5895 219.9002L351.0052 219.9002z" /></clipPath><clipPath id="21"><path id="" clip-rule="evenodd" transform="matrix(1 0 0 1 0 0)" d="M415.0566 234.9642L478.5826 234.9642L478.5826 234.9642L478.5826 219.9002L478.5826 219.9002L415.0566 219.9002z" /></clipPath><clipPath id="22"><path id="" clip-rule="evenodd" transform="matrix(1 0 0 1 0 0)" d="M415.0566 234.9642L478.5826 234.9642L478.5826 234.9642L478.5826 219.9002L478.5826 219.9002L415.0566 219.9002z" /></clipPath><clipPath id="23"><path id="" clip-rule="evenodd" transform="matrix(1 0 0 1 0 0)" d="M415.0566 234.9642L478.5826 234.9642L478.5826 234.9642L478.5826 219.9002L478.5826 219.9002L415.0566 219.9002z" /></clipPath><clipPath id="24"><path id="" clip-rule="evenodd" transform="matrix(1 0 0 1 0 0)" d="M415.0566 234.9642L478.5826 234.9642L478.5826 234.9642L478.5826 219.9002L478.5826 219.9002L415.0566 219.9002z" /></clipPath><clipPath id="25"><path id="" clip-rule="evenodd" transform="matrix(1 0 0 1 0 0)" d="M479.0497 234.9642L542.634 234.9642L542.634 234.9642L542.634 219.9002L542.634 219.9002L479.0497 219.9002z" /></clipPath><clipPath id="26"><path id="" clip-rule="evenodd" transform="matrix(1 0 0 1 0 0)" d="M479.0497 234.9642L542.634 234.9642L542.634 234.9642L542.634 219.9002L542.634 219.9002L479.0497 219.9002z" /></clipPath><clipPath id="27"><path id="" clip-rule="evenodd" transform="matrix(1 0 0 1 0 0)" d="M479.0497 234.9642L542.634 234.9642L542.634 234.9642L542.634 219.9002L542.634 219.9002L479.0497 219.9002z" /></clipPath><clipPath id="28"><path id="" clip-rule="evenodd" transform="matrix(1 0 0 1 0 0)" d="M479.0497 234.9642L542.634 234.9642L542.634 234.9642L542.634 219.9002L542.634 219.9002L479.0497 219.9002z" /></clipPath><clipPath id="29"><path id="" clip-rule="evenodd" transform="matrix(1 0 0 1 0 0)" d="M52.64357 250.5538L286.5451 250.5538L286.5451 250.5538L286.5451 235.4313L286.5451 235.4313L52.64357 235.4313z" /></clipPath><clipPath id="30"><path id="" clip-rule="evenodd" transform="matrix(1 0 0 1 0 0)" d="M52.64357 250.5538L286.5451 250.5538L286.5451 250.5538L286.5451 235.4313L286.5451 235.4313L52.64357 235.4313z" /></clipPath><clipPath id="31"><path id="" clip-rule="evenodd" transform="matrix(1 0 0 1 0 0)" d="M52.64357 250.5538L286.5451 250.5538L286.5451 250.5538L286.5451 235.4313L286.5451 235.4313L52.64357 235.4313z" /></clipPath><clipPath id="32"><path id="" clip-rule="evenodd" transform="matrix(1 0 0 1 0 0)" d="M52.64357 250.5538L286.5451 250.5538L286.5451 250.5538L286.5451 235.4313L286.5451 235.4313L52.64357 235.4313z" /></clipPath><clipPath id="33"><path id="" clip-rule="evenodd" transform="matrix(1 0 0 1 0 0)" d="M287.0122 250.5538L350.5381 250.5538L350.5381 250.5538L350.5381 235.4313L350.5381 235.4313L287.0122 235.4313z" /></clipPath><clipPath id="34"><path id="" clip-rule="evenodd" transform="matrix(1 0 0 1 0 0)" d="M287.0122 250.5538L350.5381 250.5538L350.5381 250.5538L350.5381 235.4313L350.5381 235.4313L287.0122 235.4313z" /></clipPath><clipPath id="35"><path id="" clip-rule="evenodd" transform="matrix(1 0 0 1 0 0)" d="M287.0122 250.5538L350.5381 250.5538L350.5381 250.5538L350.5381 235.4313L350.5381 235.4313L287.0122 235.4313z" /></clipPath><clipPath id="36"><path id="" clip-rule="evenodd" transform="matrix(1 0 0 1 0 0)" d="M287.0122 250.5538L350.5381 250.5538L350.5381 250.5538L350.5381 235.4313L350.5381 235.4313L287.0122 235.4313z" /></clipPath><clipPath id="37"><path id="" clip-rule="evenodd" transform="matrix(1 0 0 1 0 0)" d="M351.0052 250.5538L414.5895 250.5538L414.5895 250.5538L414.5895 235.4313L414.5895 235.4313L351.0052 235.4313z" /></clipPath><clipPath id="38"><path id="" clip-rule="evenodd" transform="matrix(1 0 0 1 0 0)" d="M351.0052 250.5538L414.5895 250.5538L414.5895 250.5538L414.5895 235.4313L414.5895 235.4313L351.0052 235.4313z" /></clipPath><clipPath id="39"><path id="" clip-rule="evenodd" transform="matrix(1 0 0 1 0 0)" d="M351.0052 250.5538L414.5895 250.5538L414.5895 250.5538L414.5895 235.4313L414.5895 235.4313L351.0052 235.4313z" /></clipPath><clipPath id="40"><path id="" clip-rule="evenodd" transform="matrix(1 0 0 1 0 0)" d="M351.0052 250.5538L414.5895 250.5538L414.5895 250.5538L414.5895 235.4313L414.5895 235.4313L351.0052 235.4313z" /></clipPath><clipPath id="41"><path id="" clip-rule="evenodd" transform="matrix(1 0 0 1 0 0)" d="M415.0566 250.5538L478.5826 250.5538L478.5826 250.5538L478.5826 235.4313L478.5826 235.4313L415.0566 235.4313z" /></clipPath><clipPath id="42"><path id="" clip-rule="evenodd" transform="matrix(1 0 0 1 0 0)" d="M415.0566 250.5538L478.5826 250.5538L478.5826 250.5538L478.5826 235.4313L478.5826 235.4313L415.0566 235.4313z" /></clipPath><clipPath id="43"><path id="" clip-rule="evenodd" transform="matrix(1 0 0 1 0 0)" d="M415.0566 250.5538L478.5826 250.5538L478.5826 250.5538L478.5826 235.4313L478.5826 235.4313L415.0566 235.4313z" /></clipPath><clipPath id="44"><path id="" clip-rule="evenodd" transform="matrix(1 0 0 1 0 0)" d="M415.0566 250.5538L478.5826 250.5538L478.5826 250.5538L478.5826 235.4313L478.5826 235.4313L415.0566 235.4313z" /></clipPath><clipPath id="45"><path id="" clip-rule="evenodd" transform="matrix(1 0 0 1 0 0)" d="M479.0497 250.5538L542.634 250.5538L542.634 250.5538L542.634 235.4313L542.634 235.4313L479.0497 235.4313z" /></clipPath><clipPath id="46"><path id="" clip-rule="evenodd" transform="matrix(1 0 0 1 0 0)" d="M479.0497 250.5538L542.634 250.5538L542.634 250.5538L542.634 235.4313L542.634 235.4313L479.0497 235.4313z" /></clipPath><clipPath id="47"><path id="" clip-rule="evenodd" transform="matrix(1 0 0 1 0 0)" d="M479.0497 250.5538L542.634 250.5538L542.634 250.5538L542.634 235.4313L542.634 235.4313L479.0497 235.4313z" /></clipPath><clipPath id="48"><path id="" clip-rule="evenodd" transform="matrix(1 0 0 1 0 0)" d="M479.0497 250.5538L542.634 250.5538L542.634 250.5538L542.634 235.4313L542.634 235.4313L479.0497 235.4313z" /></clipPath><clipPath id="49"><path id="" clip-rule="evenodd" transform="matrix(1 0 0 1 0 0)" d="M52.64357 266.085L286.5451 266.085L286.5451 266.085L286.5451 251.0209L286.5451 251.0209L52.64357 251.0209z" /></clipPath><clipPath id="50"><path id="" clip-rule="evenodd" transform="matrix(1 0 0 1 0 0)" d="M52.64357 266.085L286.5451 266.085L286.5451 266.085L286.5451 251.0209L286.5451 251.0209L52.64357 251.0209z" /></clipPath><clipPath id="51"><path id="" clip-rule="evenodd" transform="matrix(1 0 0 1 0 0)" d="M52.64357 266.085L286.5451 266.085L286.5451 266.085L286.5451 251.0209L286.5451 251.0209L52.64357 251.0209z" /></clipPath><clipPath id="52"><path id="" clip-rule="evenodd" transform="matrix(1 0 0 1 0 0)" d="M52.64357 266.085L286.5451 266.085L286.5451 266.085L286.5451 251.0209L286.5451 251.0209L52.64357 251.0209z" /></clipPath><clipPath id="53"><path id="" clip-rule="evenodd" transform="matrix(1 0 0 1 0 0)" d="M287.0122 266.085L350.5381 266.085L350.5381 266.085L350.5381 251.0209L350.5381 251.0209L287.0122 251.0209z" /></clipPath><clipPath id="54"><path id="" clip-rule="evenodd" transform="matrix(1 0 0 1 0 0)" d="M287.0122 266.085L350.5381 266.085L350.5381 266.085L350.5381 251.0209L350.5381 251.0209L287.0122 251.0209z" /></clipPath><clipPath id="55"><path id="" clip-rule="evenodd" transform="matrix(1 0 0 1 0 0)" d="M287.0122 266.085L350.5381 266.085L350.5381 266.085L350.5381 251.0209L350.5381 251.0209L287.0122 251.0209z" /></clipPath><clipPath id="56"><path id="" clip-rule="evenodd" transform="matrix(1 0 0 1 0 0)" d="M287.0122 266.085L350.5381 266.085L350.5381 266.085L350.5381 251.0209L350.5381 251.0209L287.0122 251.0209z" /></clipPath><clipPath id="57"><path id="" clip-rule="evenodd" transform="matrix(1 0 0 1 0 0)" d="M351.0052 266.085L414.5895 266.085L414.5895 266.085L414.5895 251.0209L414.5895 251.0209L351.0052 251.0209z" /></clipPath><clipPath id="58"><path id="" clip-rule="evenodd" transform="matrix(1 0 0 1 0 0)" d="M351.0052 266.085L414.5895 266.085L414.5895 266.085L414.5895 251.0209L414.5895 251.0209L351.0052 251.0209z" /></clipPath><clipPath id="59"><path id="" clip-rule="evenodd" transform="matrix(1 0 0 1 0 0)" d="M351.0052 266.085L414.5895 266.085L414.5895 266.085L414.5895 251.0209L414.5895 251.0209L351.0052 251.0209z" /></clipPath><clipPath id="60"><path id="" clip-rule="evenodd" transform="matrix(1 0 0 1 0 0)" d="M351.0052 266.085L414.5895 266.085L414.5895 266.085L414.5895 251.0209L414.5895 251.0209L351.0052 251.0209z" /></clipPath><clipPath id="61"><path id="" clip-rule="evenodd" transform="matrix(1 0 0 1 0 0)" d="M415.0566 266.085L478.5826 266.085L478.5826 266.085L478.5826 251.0209L478.5826 251.0209L415.0566 251.0209z" /></clipPath><clipPath id="62"><path id="" clip-rule="evenodd" transform="matrix(1 0 0 1 0 0)" d="M415.0566 266.085L478.5826 266.085L478.5826 266.085L478.5826 251.0209L478.5826 251.0209L415.0566 251.0209z" /></clipPath><clipPath id="63"><path id="" clip-rule="evenodd" transform="matrix(1 0 0 1 0 0)" d="M415.0566 266.085L478.5826 266.085L478.5826 266.085L478.5826 251.0209L478.5826 251.0209L415.0566 251.0209z" /></clipPath><clipPath id="64"><path id="" clip-rule="evenodd" transform="matrix(1 0 0 1 0 0)" d="M415.0566 266.085L478.5826 266.085L478.5826 266.085L478.5826 251.0209L478.5826 251.0209L415.0566 251.0209z" /></clipPath><clipPath id="65"><path id="" clip-rule="evenodd" transform="matrix(1 0 0 1 0 0)" d="M479.0497 266.085L542.634 266.085L542.634 266.085L542.634 251.0209L542.634 251.0209L479.0497 251.0209z" /></clipPath><clipPath id="66"><path id="" clip-rule="evenodd" transform="matrix(1 0 0 1 0 0)" d="M479.0497 266.085L542.634 266.085L542.634 266.085L542.634 251.0209L542.634 251.0209L479.0497 251.0209z" /></clipPath><clipPath id="67"><path id="" clip-rule="evenodd" transform="matrix(1 0 0 1 0 0)" d="M479.0497 266.085L542.634 266.085L542.634 266.085L542.634 251.0209L542.634 251.0209L479.0497 251.0209z" /></clipPath><clipPath id="68"><path id="" clip-rule="evenodd" transform="matrix(1 0 0 1 0 0)" d="M479.0497 266.085L542.634 266.085L542.634 266.085L542.634 251.0209L542.634 251.0209L479.0497 251.0209z" /></clipPath><clipPath id="69"><path id="" clip-rule="evenodd" transform="matrix(1 0 0 1 0 0)" d="M52.64357 281.6744L286.5451 281.6744L286.5451 281.6744L286.5451 266.6104L286.5451 266.6104L52.64357 266.6104z" /></clipPath><clipPath id="70"><path id="" clip-rule="evenodd" transform="matrix(1 0 0 1 0 0)" d="M52.64357 281.6744L286.5451 281.6744L286.5451 281.6744L286.5451 266.6104L286.5451 266.6104L52.64357 266.6104z" /></clipPath><clipPath id="71"><path id="" clip-rule="evenodd" transform="matrix(1 0 0 1 0 0)" d="M52.64357 281.6744L286.5451 281.6744L286.5451 281.6744L286.5451 266.6104L286.5451 266.6104L52.64357 266.6104z" /></clipPath><clipPath id="72"><path id="" clip-rule="evenodd" transform="matrix(1 0 0 1 0 0)" d="M52.64357 281.6744L286.5451 281.6744L286.5451 281.6744L286.5451 266.6104L286.5451 266.6104L52.64357 266.6104z" /></clipPath><clipPath id="73"><path id="" clip-rule="evenodd" transform="matrix(1 0 0 1 0 0)" d="M52.64357 281.6744L286.5451 281.6744L286.5451 281.6744L286.5451 266.6104L286.5451 266.6104L52.64357 266.6104z" /></clipPath><clipPath id="74"><path id="" clip-rule="evenodd" transform="matrix(1 0 0 1 0 0)" d="M52.64357 281.6744L286.5451 281.6744L286.5451 281.6744L286.5451 266.6104L286.5451 266.6104L52.64357 266.6104z" /></clipPath><clipPath id="75"><path id="" clip-rule="evenodd" transform="matrix(1 0 0 1 0 0)" d="M52.64357 281.6744L286.5451 281.6744L286.5451 281.6744L286.5451 266.6104L286.5451 266.6104L52.64357 266.6104z" /></clipPath><clipPath id="76"><path id="" clip-rule="evenodd" transform="matrix(1 0 0 1 0 0)" d="M52.64357 281.6744L286.5451 281.6744L286.5451 281.6744L286.5451 266.6104L286.5451 266.6104L52.64357 266.6104z" /></clipPath><clipPath id="77"><path id="" clip-rule="evenodd" transform="matrix(1 0 0 1 0 0)" d="M52.64357 281.6744L286.5451 281.6744L286.5451 281.6744L286.5451 266.6104L286.5451 266.6104L52.64357 266.6104z" /></clipPath><clipPath id="78"><path id="" clip-rule="evenodd" transform="matrix(1 0 0 1 0 0)" d="M52.64357 281.6744L286.5451 281.6744L286.5451 281.6744L286.5451 266.6104L286.5451 266.6104L52.64357 266.6104z" /></clipPath><clipPath id="79"><path id="" clip-rule="evenodd" transform="matrix(1 0 0 1 0 0)" d="M52.64357 281.6744L286.5451 281.6744L286.5451 281.6744L286.5451 266.6104L286.5451 266.6104L52.64357 266.6104z" /></clipPath><clipPath id="80"><path id="" clip-rule="evenodd" transform="matrix(1 0 0 1 0 0)" d="M52.64357 281.6744L286.5451 281.6744L286.5451 281.6744L286.5451 266.6104L286.5451 266.6104L52.64357 266.6104z" /></clipPath><clipPath id="81"><path id="" clip-rule="evenodd" transform="matrix(1 0 0 1 0 0)" d="M287.0122 281.6744L350.5381 281.6744L350.5381 281.6744L350.5381 266.6104L350.5381 266.6104L287.0122 266.6104z" /></clipPath><clipPath id="82"><path id="" clip-rule="evenodd" transform="matrix(1 0 0 1 0 0)" d="M287.0122 281.6744L350.5381 281.6744L350.5381 281.6744L350.5381 266.6104L350.5381 266.6104L287.0122 266.6104z" /></clipPath><clipPath id="83"><path id="" clip-rule="evenodd" transform="matrix(1 0 0 1 0 0)" d="M287.0122 281.6744L350.5381 281.6744L350.5381 281.6744L350.5381 266.6104L350.5381 266.6104L287.0122 266.6104z" /></clipPath><clipPath id="84"><path id="" clip-rule="evenodd" transform="matrix(1 0 0 1 0 0)" d="M287.0122 281.6744L350.5381 281.6744L350.5381 281.6744L350.5381 266.6104L350.5381 266.6104L287.0122 266.6104z" /></clipPath><clipPath id="85"><path id="" clip-rule="evenodd" transform="matrix(1 0 0 1 0 0)" d="M351.0052 281.6744L414.5895 281.6744L414.5895 281.6744L414.5895 266.6104L414.5895 266.6104L351.0052 266.6104z" /></clipPath><clipPath id="86"><path id="" clip-rule="evenodd" transform="matrix(1 0 0 1 0 0)" d="M351.0052 281.6744L414.5895 281.6744L414.5895 281.6744L414.5895 266.6104L414.5895 266.6104L351.0052 266.6104z" /></clipPath><clipPath id="87"><path id="" clip-rule="evenodd" transform="matrix(1 0 0 1 0 0)" d="M351.0052 281.6744L414.5895 281.6744L414.5895 281.6744L414.5895 266.6104L414.5895 266.6104L351.0052 266.6104z" /></clipPath><clipPath id="88"><path id="" clip-rule="evenodd" transform="matrix(1 0 0 1 0 0)" d="M351.0052 281.6744L414.5895 281.6744L414.5895 281.6744L414.5895 266.6104L414.5895 266.6104L351.0052 266.6104z" /></clipPath><clipPath id="89"><path id="" clip-rule="evenodd" transform="matrix(1 0 0 1 0 0)" d="M415.0566 281.6744L478.5826 281.6744L478.5826 281.6744L478.5826 266.6104L478.5826 266.6104L415.0566 266.6104z" /></clipPath><clipPath id="90"><path id="" clip-rule="evenodd" transform="matrix(1 0 0 1 0 0)" d="M415.0566 281.6744L478.5826 281.6744L478.5826 281.6744L478.5826 266.6104L478.5826 266.6104L415.0566 266.6104z" /></clipPath><clipPath id="91"><path id="" clip-rule="evenodd" transform="matrix(1 0 0 1 0 0)" d="M415.0566 281.6744L478.5826 281.6744L478.5826 281.6744L478.5826 266.6104L478.5826 266.6104L415.0566 266.6104z" /></clipPath><clipPath id="92"><path id="" clip-rule="evenodd" transform="matrix(1 0 0 1 0 0)" d="M415.0566 281.6744L478.5826 281.6744L478.5826 281.6744L478.5826 266.6104L478.5826 266.6104L415.0566 266.6104z" /></clipPath><clipPath id="93"><path id="" clip-rule="evenodd" transform="matrix(1 0 0 1 0 0)" d="M479.0497 281.6744L542.634 281.6744L542.634 281.6744L542.634 266.6104L542.634 266.6104L479.0497 266.6104z" /></clipPath><clipPath id="94"><path id="" clip-rule="evenodd" transform="matrix(1 0 0 1 0 0)" d="M479.0497 281.6744L542.634 281.6744L542.634 281.6744L542.634 266.6104L542.634 266.6104L479.0497 266.6104z" /></clipPath><clipPath id="95"><path id="" clip-rule="evenodd" transform="matrix(1 0 0 1 0 0)" d="M479.0497 281.6744L542.634 281.6744L542.634 281.6744L542.634 266.6104L542.634 266.6104L479.0497 266.6104z" /></clipPath><clipPath id="96"><path id="" clip-rule="evenodd" transform="matrix(1 0 0 1 0 0)" d="M479.0497 281.6744L542.634 281.6744L542.634 281.6744L542.634 266.6104L542.634 266.6104L479.0497 266.6104z" /></clipPath><clipPath id="97"><path id="" clip-rule="evenodd" transform="matrix(1 0 0 1 0 0)" d="M52.64357 297.264L286.5451 297.264L286.5451 297.264L286.5451 282.1416L286.5451 282.1416L52.64357 282.1416z" /></clipPath><clipPath id="98"><path id="" clip-rule="evenodd" transform="matrix(1 0 0 1 0 0)" d="M52.64357 297.264L286.5451 297.264L286.5451 297.264L286.5451 282.1416L286.5451 282.1416L52.64357 282.1416z" /></clipPath><clipPath id="99"><path id="" clip-rule="evenodd" transform="matrix(1 0 0 1 0 0)" d="M52.64357 297.264L286.5451 297.264L286.5451 297.264L286.5451 282.1416L286.5451 282.1416L52.64357 282.1416z" /></clipPath><clipPath id="100"><path id="" clip-rule="evenodd" transform="matrix(1 0 0 1 0 0)" d="M52.64357 297.264L286.5451 297.264L286.5451 297.264L286.5451 282.1416L286.5451 282.1416L52.64357 282.1416z" /></clipPath><clipPath id="101"><path id="" clip-rule="evenodd" transform="matrix(1 0 0 1 0 0)" d="M52.64357 297.264L286.5451 297.264L286.5451 297.264L286.5451 282.1416L286.5451 282.1416L52.64357 282.1416z" /></clipPath><clipPath id="102"><path id="" clip-rule="evenodd" transform="matrix(1 0 0 1 0 0)" d="M52.64357 297.264L286.5451 297.264L286.5451 297.264L286.5451 282.1416L286.5451 282.1416L52.64357 282.1416z" /></clipPath><clipPath id="103"><path id="" clip-rule="evenodd" transform="matrix(1 0 0 1 0 0)" d="M287.0122 297.264L350.5381 297.264L350.5381 297.264L350.5381 282.1416L350.5381 282.1416L287.0122 282.1416z" /></clipPath><clipPath id="104"><path id="" clip-rule="evenodd" transform="matrix(1 0 0 1 0 0)" d="M287.0122 297.264L350.5381 297.264L350.5381 297.264L350.5381 282.1416L350.5381 282.1416L287.0122 282.1416z" /></clipPath><clipPath id="105"><path id="" clip-rule="evenodd" transform="matrix(1 0 0 1 0 0)" d="M287.0122 297.264L350.5381 297.264L350.5381 297.264L350.5381 282.1416L350.5381 282.1416L287.0122 282.1416z" /></clipPath><clipPath id="106"><path id="" clip-rule="evenodd" transform="matrix(1 0 0 1 0 0)" d="M287.0122 297.264L350.5381 297.264L350.5381 297.264L350.5381 282.1416L350.5381 282.1416L287.0122 282.1416z" /></clipPath><clipPath id="107"><path id="" clip-rule="evenodd" transform="matrix(1 0 0 1 0 0)" d="M287.0122 297.264L350.5381 297.264L350.5381 297.264L350.5381 282.1416L350.5381 282.1416L287.0122 282.1416z" /></clipPath><clipPath id="108"><path id="" clip-rule="evenodd" transform="matrix(1 0 0 1 0 0)" d="M287.0122 297.264L350.5381 297.264L350.5381 297.264L350.5381 282.1416L350.5381 282.1416L287.0122 282.1416z" /></clipPath><clipPath id="109"><path id="" clip-rule="evenodd" transform="matrix(1 0 0 1 0 0)" d="M351.0052 297.264L414.5895 297.264L414.5895 297.264L414.5895 282.1416L414.5895 282.1416L351.0052 282.1416z" /></clipPath><clipPath id="110"><path id="" clip-rule="evenodd" transform="matrix(1 0 0 1 0 0)" d="M351.0052 297.264L414.5895 297.264L414.5895 297.264L414.5895 282.1416L414.5895 282.1416L351.0052 282.1416z" /></clipPath><clipPath id="111"><path id="" clip-rule="evenodd" transform="matrix(1 0 0 1 0 0)" d="M351.0052 297.264L414.5895 297.264L414.5895 297.264L414.5895 282.1416L414.5895 282.1416L351.0052 282.1416z" /></clipPath><clipPath id="112"><path id="" clip-rule="evenodd" transform="matrix(1 0 0 1 0 0)" d="M351.0052 297.264L414.5895 297.264L414.5895 297.264L414.5895 282.1416L414.5895 282.1416L351.0052 282.1416z" /></clipPath><clipPath id="113"><path id="" clip-rule="evenodd" transform="matrix(1 0 0 1 0 0)" d="M415.0566 297.264L478.5826 297.264L478.5826 297.264L478.5826 282.1416L478.5826 282.1416L415.0566 282.1416z" /></clipPath><clipPath id="114"><path id="" clip-rule="evenodd" transform="matrix(1 0 0 1 0 0)" d="M415.0566 297.264L478.5826 297.264L478.5826 297.264L478.5826 282.1416L478.5826 282.1416L415.0566 282.1416z" /></clipPath><clipPath id="115"><path id="" clip-rule="evenodd" transform="matrix(1 0 0 1 0 0)" d="M415.0566 297.264L478.5826 297.264L478.5826 297.264L478.5826 282.1416L478.5826 282.1416L415.0566 282.1416z" /></clipPath><clipPath id="116"><path id="" clip-rule="evenodd" transform="matrix(1 0 0 1 0 0)" d="M415.0566 297.264L478.5826 297.264L478.5826 297.264L478.5826 282.1416L478.5826 282.1416L415.0566 282.1416z" /></clipPath><clipPath id="117"><path id="" clip-rule="evenodd" transform="matrix(1 0 0 1 0 0)" d="M479.0497 297.264L542.634 297.264L542.634 297.264L542.634 282.1416L542.634 282.1416L479.0497 282.1416z" /></clipPath><clipPath id="118"><path id="" clip-rule="evenodd" transform="matrix(1 0 0 1 0 0)" d="M479.0497 297.264L542.634 297.264L542.634 297.264L542.634 282.1416L542.634 282.1416L479.0497 282.1416z" /></clipPath><clipPath id="119"><path id="" clip-rule="evenodd" transform="matrix(1 0 0 1 0 0)" d="M479.0497 297.264L542.634 297.264L542.634 297.264L542.634 282.1416L542.634 282.1416L479.0497 282.1416z" /></clipPath><clipPath id="120"><path id="" clip-rule="evenodd" transform="matrix(1 0 0 1 0 0)" d="M479.0497 297.264L542.634 297.264L542.634 297.264L542.634 282.1416L542.634 282.1416L479.0497 282.1416z" /></clipPath><clipPath id="121"><path id="" clip-rule="evenodd" transform="matrix(1 0 0 1 0 0)" d="M52.64357 315.6561L286.5451 315.6561L286.5451 315.6561L286.5451 297.7311L286.5451 297.7311L52.64357 297.7311z" /></clipPath><clipPath id="122"><path id="" clip-rule="evenodd" transform="matrix(1 0 0 1 0 0)" d="M52.64357 315.6561L286.5451 315.6561L286.5451 315.6561L286.5451 297.7311L286.5451 297.7311L52.64357 297.7311z" /></clipPath><clipPath id="123"><path id="" clip-rule="evenodd" transform="matrix(1 0 0 1 0 0)" d="M52.64357 315.6561L286.5451 315.6561L286.5451 315.6561L286.5451 297.7311L286.5451 297.7311L52.64357 297.7311z" /></clipPath><clipPath id="124"><path id="" clip-rule="evenodd" transform="matrix(1 0 0 1 0 0)" d="M52.64357 315.6561L286.5451 315.6561L286.5451 315.6561L286.5451 297.7311L286.5451 297.7311L52.64357 297.7311z" /></clipPath><clipPath id="125"><path id="" clip-rule="evenodd" transform="matrix(1 0 0 1 0 0)" d="M52.64357 315.6561L286.5451 315.6561L286.5451 315.6561L286.5451 297.7311L286.5451 297.7311L52.64357 297.7311z" /></clipPath><clipPath id="126"><path id="" clip-rule="evenodd" transform="matrix(1 0 0 1 0 0)" d="M52.64357 315.6561L286.5451 315.6561L286.5451 315.6561L286.5451 297.7311L286.5451 297.7311L52.64357 297.7311z" /></clipPath><clipPath id="127"><path id="" clip-rule="evenodd" transform="matrix(1 0 0 1 0 0)" d="M52.64357 315.6561L286.5451 315.6561L286.5451 315.6561L286.5451 297.7311L286.5451 297.7311L52.64357 297.7311z" /></clipPath><clipPath id="128"><path id="" clip-rule="evenodd" transform="matrix(1 0 0 1 0 0)" d="M52.64357 315.6561L286.5451 315.6561L286.5451 315.6561L286.5451 297.7311L286.5451 297.7311L52.64357 297.7311z" /></clipPath><clipPath id="129"><path id="" clip-rule="evenodd" transform="matrix(1 0 0 1 0 0)" d="M52.64357 315.6561L286.5451 315.6561L286.5451 315.6561L286.5451 297.7311L286.5451 297.7311L52.64357 297.7311z" /></clipPath><clipPath id="130"><path id="" clip-rule="evenodd" transform="matrix(1 0 0 1 0 0)" d="M52.64357 315.6561L286.5451 315.6561L286.5451 315.6561L286.5451 297.7311L286.5451 297.7311L52.64357 297.7311z" /></clipPath><clipPath id="131"><path id="" clip-rule="evenodd" transform="matrix(1 0 0 1 0 0)" d="M52.64357 315.6561L286.5451 315.6561L286.5451 315.6561L286.5451 297.7311L286.5451 297.7311L52.64357 297.7311z" /></clipPath><clipPath id="132"><path id="" clip-rule="evenodd" transform="matrix(1 0 0 1 0 0)" d="M52.64357 315.6561L286.5451 315.6561L286.5451 315.6561L286.5451 297.7311L286.5451 297.7311L52.64357 297.7311z" /></clipPath><clipPath id="133"><path id="" clip-rule="evenodd" transform="matrix(1 0 0 1 0 0)" d="M287.0122 315.6561L350.5381 315.6561L350.5381 315.6561L350.5381 297.7311L350.5381 297.7311L287.0122 297.7311z" /></clipPath><clipPath id="134"><path id="" clip-rule="evenodd" transform="matrix(1 0 0 1 0 0)" d="M287.0122 315.6561L350.5381 315.6561L350.5381 315.6561L350.5381 297.7311L350.5381 297.7311L287.0122 297.7311z" /></clipPath><clipPath id="135"><path id="" clip-rule="evenodd" transform="matrix(1 0 0 1 0 0)" d="M287.0122 315.6561L350.5381 315.6561L350.5381 315.6561L350.5381 297.7311L350.5381 297.7311L287.0122 297.7311z" /></clipPath><clipPath id="136"><path id="" clip-rule="evenodd" transform="matrix(1 0 0 1 0 0)" d="M287.0122 315.6561L350.5381 315.6561L350.5381 315.6561L350.5381 297.7311L350.5381 297.7311L287.0122 297.7311z" /></clipPath><clipPath id="137"><path id="" clip-rule="evenodd" transform="matrix(1 0 0 1 0 0)" d="M351.0052 315.6561L414.5895 315.6561L414.5895 315.6561L414.5895 297.7311L414.5895 297.7311L351.0052 297.7311z" /></clipPath><clipPath id="138"><path id="" clip-rule="evenodd" transform="matrix(1 0 0 1 0 0)" d="M351.0052 315.6561L414.5895 315.6561L414.5895 315.6561L414.5895 297.7311L414.5895 297.7311L351.0052 297.7311z" /></clipPath><clipPath id="139"><path id="" clip-rule="evenodd" transform="matrix(1 0 0 1 0 0)" d="M351.0052 315.6561L414.5895 315.6561L414.5895 315.6561L414.5895 297.7311L414.5895 297.7311L351.0052 297.7311z" /></clipPath><clipPath id="140"><path id="" clip-rule="evenodd" transform="matrix(1 0 0 1 0 0)" d="M351.0052 315.6561L414.5895 315.6561L414.5895 315.6561L414.5895 297.7311L414.5895 297.7311L351.0052 297.7311z" /></clipPath><clipPath id="141"><path id="" clip-rule="evenodd" transform="matrix(1 0 0 1 0 0)" d="M415.0566 315.6561L478.5826 315.6561L478.5826 315.6561L478.5826 297.7311L478.5826 297.7311L415.0566 297.7311z" /></clipPath><clipPath id="142"><path id="" clip-rule="evenodd" transform="matrix(1 0 0 1 0 0)" d="M415.0566 315.6561L478.5826 315.6561L478.5826 315.6561L478.5826 297.7311L478.5826 297.7311L415.0566 297.7311z" /></clipPath><clipPath id="143"><path id="" clip-rule="evenodd" transform="matrix(1 0 0 1 0 0)" d="M415.0566 315.6561L478.5826 315.6561L478.5826 315.6561L478.5826 297.7311L478.5826 297.7311L415.0566 297.7311z" /></clipPath><clipPath id="144"><path id="" clip-rule="evenodd" transform="matrix(1 0 0 1 0 0)" d="M415.0566 315.6561L478.5826 315.6561L478.5826 315.6561L478.5826 297.7311L478.5826 297.7311L415.0566 297.7311z" /></clipPath><clipPath id="145"><path id="" clip-rule="evenodd" transform="matrix(1 0 0 1 0 0)" d="M479.0497 315.6561L542.634 315.6561L542.634 315.6561L542.634 297.7311L542.634 297.7311L479.0497 297.7311z" /></clipPath><clipPath id="146"><path id="" clip-rule="evenodd" transform="matrix(1 0 0 1 0 0)" d="M479.0497 315.6561L542.634 315.6561L542.634 315.6561L542.634 297.7311L542.634 297.7311L479.0497 297.7311z" /></clipPath><clipPath id="147"><path id="" clip-rule="evenodd" transform="matrix(1 0 0 1 0 0)" d="M479.0497 315.6561L542.634 315.6561L542.634 315.6561L542.634 297.7311L542.634 297.7311L479.0497 297.7311z" /></clipPath><clipPath id="148"><path id="" clip-rule="evenodd" transform="matrix(1 0 0 1 0 0)" d="M479.0497 315.6561L542.634 315.6561L542.634 315.6561L542.634 297.7311L542.634 297.7311L479.0497 297.7311z" /></clipPath></defs><g transform="matrix(1.333333 0 0 1.333333 0 0)"><g clip-path="url(#1)"><g><g clip-path="url(#2)"><g clip-path="url(#3)"><g clip-path="url(#4)"></g></g><g clip-path="url(#5)"><g clip-path="url(#6)"></g></g><g clip-path="url(#7)"><g clip-path="url(#8)"></g></g><path id="82" transform="matrix(1 0 0 -1 0 841)" d="M52.17647 636.6894L52.64357 636.6894L52.64357 636.6894L52.64357 637.1565L52.64357 637.1565L52.17647 637.1565z" stroke="none" fill="#000000" fill-rule="evenodd" /><path id="83" transform="matrix(1 0 0 -1 0 841)" d="M52.17647 636.6894L52.64357 636.6894L52.64357 636.6894L52.64357 637.1565L52.64357 637.1565L52.17647 637.1565z" stroke="none" fill="#000000" fill-rule="evenodd" /><path id="84" transform="matrix(1 0 0 -1 0 841)" d="M52.64357 636.6894L286.5451 636.6894L286.5451 636.6894L286.5451 637.1565L286.5451 637.1565L52.64357 637.1565z" stroke="none" fill="#000000" fill-rule="evenodd" /><path id="85" transform="matrix(1 0 0 -1 0 841)" d="M286.5451 636.6894L287.0122 636.6894L287.0122 636.6894L287.0122 637.1565L287.0122 637.1565L286.5451 637.1565z" stroke="none" fill="#000000" fill-rule="evenodd" /><path id="86" transform="matrix(1 0 0 -1 0 841)" d="M287.0122 636.6894L542.634 636.6894L542.634 636.6894L542.634 637.1565L542.634 637.1565L287.0122 637.1565z" stroke="none" fill="#000000" fill-rule="evenodd" /><path id="87" transform="matrix(1 0 0 -1 0 841)" d="M542.634 636.6894L543.1011 636.6894L543.1011 636.6894L543.1011 637.1565L543.1011 637.1565L542.634 637.1565z" stroke="none" fill="#000000" fill-rule="evenodd" /><path id="88" transform="matrix(1 0 0 -1 0 841)" d="M542.634 636.6894L543.1011 636.6894L543.1011 636.6894L543.1011 637.1565L543.1011 637.1565L542.634 637.1565z" stroke="none" fill="#000000" fill-rule="evenodd" /><path id="89" transform="matrix(1 0 0 -1 0 841)" d="M52.17647 621.6253L52.64357 621.6253L52.64357 621.6253L52.64357 636.6893L52.64357 636.6893L52.17647 636.6893z" stroke="none" fill="#000000" fill-rule="evenodd" /><path id="90" transform="matrix(1 0 0 -1 0 841)" d="M286.5451 621.6253L287.0122 621.6253L287.0122 621.6253L287.0122 636.6893L287.0122 636.6893L286.5451 636.6893z" stroke="none" fill="#000000" fill-rule="evenodd" /><path id="91" transform="matrix(1 0 0 -1 0 841)" d="M542.634 621.6253L543.1011 621.6253L543.1011 621.6253L543.1011 636.6893L543.1011 636.6893L542.634 636.6893z" stroke="none" fill="#000000" fill-rule="evenodd" /><g clip-path="url(#9)"><g clip-path="url(#10)"></g></g><g clip-path="url(#11)"><g clip-path="url(#12)"></g></g><g clip-path="url(#13)"><g clip-path="url(#14)"></g></g><g clip-path="url(#15)"><g clip-path="url(#16)"></g></g><g clip-path="url(#17)"><g clip-path="url(#18)"></g></g><g clip-path="url(#19)"><g clip-path="url(#20)"></g></g><g clip-path="url(#21)"><g clip-path="url(#22)"></g></g><g clip-path="url(#23)"><g clip-path="url(#24)"></g></g><g clip-path="url(#25)"><g clip-path="url(#26)"></g></g><g clip-path="url(#27)"><g clip-path="url(#28)"></g></g><path id="115" transform="matrix(1 0 0 -1 0 841)" d="M52.17647 621.1582L52.64357 621.1582L52.64357 621.1582L52.64357 621.6253L52.64357 621.6253L52.17647 621.6253z" stroke="none" fill="#000000" fill-rule="evenodd" /><path id="116" transform="matrix(1 0 0 -1 0 841)" d="M52.64357 621.1582L286.5451 621.1582L286.5451 621.1582L286.5451 621.6253L286.5451 621.6253L52.64357 621.6253z" stroke="none" fill="#000000" fill-rule="evenodd" /><path id="117" transform="matrix(1 0 0 -1 0 841)" d="M286.5451 621.1582L287.0122 621.1582L287.0122 621.1582L287.0122 621.6253L287.0122 621.6253L286.5451 621.6253z" stroke="none" fill="#000000" fill-rule="evenodd" /><path id="118" transform="matrix(1 0 0 -1 0 841)" d="M287.0122 621.1582L350.5381 621.1582L350.5381 621.1582L350.5381 621.6253L350.5381 621.6253L287.0122 621.6253z" stroke="none" fill="#000000" fill-rule="evenodd" /><path id="119" transform="matrix(1 0 0 -1 0 841)" d="M350.5381 621.1582L351.0052 621.1582L351.0052 621.1582L351.0052 621.6253L351.0052 621.6253L350.5381 621.6253z" stroke="none" fill="#000000" fill-rule="evenodd" /><path id="120" transform="matrix(1 0 0 -1 0 841)" d="M351.0052 621.1582L414.5895 621.1582L414.5895 621.1582L414.5895 621.6253L414.5895 621.6253L351.0052 621.6253z" stroke="none" fill="#000000" fill-rule="evenodd" /><path id="121" transform="matrix(1 0 0 -1 0 841)" d="M414.5895 621.1582L415.0566 621.1582L415.0566 621.1582L415.0566 621.6253L415.0566 621.6253L414.5895 621.6253z" stroke="none" fill="#000000" fill-rule="evenodd" /><path id="122" transform="matrix(1 0 0 -1 0 841)" d="M415.0566 621.1582L478.641 621.1582L478.641 621.1582L478.641 621.6253L478.641 621.6253L415.0566 621.6253z" stroke="none" fill="#000000" fill-rule="evenodd" /><path id="123" transform="matrix(1 0 0 -1 0 841)" d="M478.641 621.1582L479.1081 621.1582L479.1081 621.1582L479.1081 621.6253L479.1081 621.6253L478.641 621.6253z" stroke="none" fill="#000000" fill-rule="evenodd" /><path id="124" transform="matrix(1 0 0 -1 0 841)" d="M479.1081 621.1582L542.634 621.1582L542.634 621.1582L542.634 621.6253L542.634 621.6253L479.1081 621.6253z" stroke="none" fill="#000000" fill-rule="evenodd" /><path id="125" transform="matrix(1 0 0 -1 0 841)" d="M542.634 621.1582L543.1011 621.1582L543.1011 621.1582L543.1011 621.6253L543.1011 621.6253L542.634 621.6253z" stroke="none" fill="#000000" fill-rule="evenodd" /><path id="126" transform="matrix(1 0 0 -1 0 841)" d="M52.17647 606.0358L52.64357 606.0358L52.64357 606.0358L52.64357 621.1582L52.64357 621.1582L52.17647 621.1582z" stroke="none" fill="#000000" fill-rule="evenodd" /><path id="127" transform="matrix(1 0 0 -1 0 841)" d="M286.5451 606.0358L287.0122 606.0358L287.0122 606.0358L287.0122 621.1582L287.0122 621.1582L286.5451 621.1582z" stroke="none" fill="#000000" fill-rule="evenodd" /><path id="128" transform="matrix(1 0 0 -1 0 841)" d="M350.5381 606.0358L351.0052 606.0358L351.0052 606.0358L351.0052 621.1582L351.0052 621.1582L350.5381 621.1582z" stroke="none" fill="#000000" fill-rule="evenodd" /><path id="129" transform="matrix(1 0 0 -1 0 841)" d="M414.5895 606.0358L415.0566 606.0358L415.0566 606.0358L415.0566 621.1582L415.0566 621.1582L414.5895 621.1582z" stroke="none" fill="#000000" fill-rule="evenodd" /><path id="130" transform="matrix(1 0 0 -1 0 841)" d="M478.641 606.0358L479.1081 606.0358L479.1081 606.0358L479.1081 621.1582L479.1081 621.1582L478.641 621.1582z" stroke="none" fill="#000000" fill-rule="evenodd" /><path id="131" transform="matrix(1 0 0 -1 0 841)" d="M542.634 606.0358L543.1011 606.0358L543.1011 606.0358L543.1011 621.1582L543.1011 621.1582L542.634 621.1582z" stroke="none" fill="#000000" fill-rule="evenodd" /><g clip-path="url(#29)"><g clip-path="url(#30)"></g></g><g clip-path="url(#31)"><g clip-path="url(#32)"></g></g><g clip-path="url(#33)"><g clip-path="url(#34)"></g></g><g clip-path="url(#35)"><g clip-path="url(#36)"></g></g><g clip-path="url(#37)"><g clip-path="url(#38)"></g></g><g clip-path="url(#39)"><g clip-path="url(#40)"></g></g><g clip-path="url(#41)"><g clip-path="url(#42)"></g></g><g clip-path="url(#43)"><g clip-path="url(#44)"></g></g><g clip-path="url(#45)"><g clip-path="url(#46)"></g></g><g clip-path="url(#47)"><g clip-path="url(#48)"></g></g><path id="151" transform="matrix(1 0 0 -1 0 841)" d="M52.17647 605.5687L52.64357 605.5687L52.64357 605.5687L52.64357 606.0357L52.64357 606.0357L52.17647 606.0357z" stroke="none" fill="#000000" fill-rule="evenodd" /><path id="152" transform="matrix(1 0 0 -1 0 841)" d="M52.64357 605.5687L286.5451 605.5687L286.5451 605.5687L286.5451 606.0357L286.5451 606.0357L52.64357 606.0357z" stroke="none" fill="#000000" fill-rule="evenodd" /><path id="153" transform="matrix(1 0 0 -1 0 841)" d="M286.5451 605.5687L287.0122 605.5687L287.0122 605.5687L287.0122 606.0357L287.0122 606.0357L286.5451 606.0357z" stroke="none" fill="#000000" fill-rule="evenodd" /><path id="154" transform="matrix(1 0 0 -1 0 841)" d="M287.0122 605.5687L350.5381 605.5687L350.5381 605.5687L350.5381 606.0357L350.5381 606.0357L287.0122 606.0357z" stroke="none" fill="#000000" fill-rule="evenodd" /><path id="155" transform="matrix(1 0 0 -1 0 841)" d="M350.5381 605.5687L351.0052 605.5687L351.0052 605.5687L351.0052 606.0357L351.0052 606.0357L350.5381 606.0357z" stroke="none" fill="#000000" fill-rule="evenodd" /><path id="156" transform="matrix(1 0 0 -1 0 841)" d="M351.0052 605.5687L414.5895 605.5687L414.5895 605.5687L414.5895 606.0357L414.5895 606.0357L351.0052 606.0357z" stroke="none" fill="#000000" fill-rule="evenodd" /><path id="157" transform="matrix(1 0 0 -1 0 841)" d="M414.5895 605.5687L415.0566 605.5687L415.0566 605.5687L415.0566 606.0357L415.0566 606.0357L414.5895 606.0357z" stroke="none" fill="#000000" fill-rule="evenodd" /><path id="158" transform="matrix(1 0 0 -1 0 841)" d="M415.0566 605.5687L478.641 605.5687L478.641 605.5687L478.641 606.0357L478.641 606.0357L415.0566 606.0357z" stroke="none" fill="#000000" fill-rule="evenodd" /><path id="159" transform="matrix(1 0 0 -1 0 841)" d="M478.641 605.5687L479.1081 605.5687L479.1081 605.5687L479.1081 606.0357L479.1081 606.0357L478.641 606.0357z" stroke="none" fill="#000000" fill-rule="evenodd" /><path id="160" transform="matrix(1 0 0 -1 0 841)" d="M479.1081 605.5687L542.634 605.5687L542.634 605.5687L542.634 606.0357L542.634 606.0357L479.1081 606.0357z" stroke="none" fill="#000000" fill-rule="evenodd" /><path id="161" transform="matrix(1 0 0 -1 0 841)" d="M542.634 605.5687L543.1011 605.5687L543.1011 605.5687L543.1011 606.0357L543.1011 606.0357L542.634 606.0357z" stroke="none" fill="#000000" fill-rule="evenodd" /><path id="162" transform="matrix(1 0 0 -1 0 841)" d="M52.17647 590.4462L52.64357 590.4462L52.64357 590.4462L52.64357 605.5687L52.64357 605.5687L52.17647 605.5687z" stroke="none" fill="#000000" fill-rule="evenodd" /><path id="163" transform="matrix(1 0 0 -1 0 841)" d="M286.5451 590.4462L287.0122 590.4462L287.0122 590.4462L287.0122 605.5687L287.0122 605.5687L286.5451 605.5687z" stroke="none" fill="#000000" fill-rule="evenodd" /><path id="164" transform="matrix(1 0 0 -1 0 841)" d="M350.5381 590.4462L351.0052 590.4462L351.0052 590.4462L351.0052 605.5687L351.0052 605.5687L350.5381 605.5687z" stroke="none" fill="#000000" fill-rule="evenodd" /><path id="165" transform="matrix(1 0 0 -1 0 841)" d="M414.5895 590.4462L415.0566 590.4462L415.0566 590.4462L415.0566 605.5687L415.0566 605.5687L414.5895 605.5687z" stroke="none" fill="#000000" fill-rule="evenodd" /><path id="166" transform="matrix(1 0 0 -1 0 841)" d="M478.641 590.4462L479.1081 590.4462L479.1081 590.4462L479.1081 605.5687L479.1081 605.5687L478.641 605.5687z" stroke="none" fill="#000000" fill-rule="evenodd" /><path id="167" transform="matrix(1 0 0 -1 0 841)" d="M542.634 590.4462L543.1011 590.4462L543.1011 590.4462L543.1011 605.5687L543.1011 605.5687L542.634 605.5687z" stroke="none" fill="#000000" fill-rule="evenodd" /><g clip-path="url(#49)"><g clip-path="url(#50)"></g></g><g clip-path="url(#51)"><g clip-path="url(#52)"></g></g><g clip-path="url(#53)"><g clip-path="url(#54)"></g></g><g clip-path="url(#55)"><g clip-path="url(#56)"></g></g><g clip-path="url(#57)"><g clip-path="url(#58)"></g></g><g clip-path="url(#59)"><g clip-path="url(#60)"></g></g><g clip-path="url(#61)"><g clip-path="url(#62)"></g></g><g clip-path="url(#63)"><g clip-path="url(#64)"></g></g><g clip-path="url(#65)"><g clip-path="url(#66)"></g></g><g clip-path="url(#67)"><g clip-path="url(#68)"></g></g><path id="199" transform="matrix(1 0 0 -1 0 841)" d="M52.17647 589.9791L52.64357 589.9791L52.64357 589.9791L52.64357 590.4463L52.64357 590.4463L52.17647 590.4463z" stroke="none" fill="#000000" fill-rule="evenodd" /><path id="200" transform="matrix(1 0 0 -1 0 841)" d="M52.64357 589.9791L286.5451 589.9791L286.5451 589.9791L286.5451 590.4463L286.5451 590.4463L52.64357 590.4463z" stroke="none" fill="#000000" fill-rule="evenodd" /><path id="201" transform="matrix(1 0 0 -1 0 841)" d="M286.5451 589.9791L287.0122 589.9791L287.0122 589.9791L287.0122 590.4463L287.0122 590.4463L286.5451 590.4463z" stroke="none" fill="#000000" fill-rule="evenodd" /><path id="202" transform="matrix(1 0 0 -1 0 841)" d="M287.0122 589.9791L350.5381 589.9791L350.5381 589.9791L350.5381 590.4463L350.5381 590.4463L287.0122 590.4463z" stroke="none" fill="#000000" fill-rule="evenodd" /><path id="203" transform="matrix(1 0 0 -1 0 841)" d="M350.5381 589.9791L351.0052 589.9791L351.0052 589.9791L351.0052 590.4463L351.0052 590.4463L350.5381 590.4463z" stroke="none" fill="#000000" fill-rule="evenodd" /><path id="204" transform="matrix(1 0 0 -1 0 841)" d="M351.0052 589.9791L414.5895 589.9791L414.5895 589.9791L414.5895 590.4463L414.5895 590.4463L351.0052 590.4463z" stroke="none" fill="#000000" fill-rule="evenodd" /><path id="205" transform="matrix(1 0 0 -1 0 841)" d="M414.5895 589.9791L415.0566 589.9791L415.0566 589.9791L415.0566 590.4463L415.0566 590.4463L414.5895 590.4463z" stroke="none" fill="#000000" fill-rule="evenodd" /><path id="206" transform="matrix(1 0 0 -1 0 841)" d="M415.0566 589.9791L478.641 589.9791L478.641 589.9791L478.641 590.4463L478.641 590.4463L415.0566 590.4463z" stroke="none" fill="#000000" fill-rule="evenodd" /><path id="207" transform="matrix(1 0 0 -1 0 841)" d="M478.641 589.9791L479.1081 589.9791L479.1081 589.9791L479.1081 590.4463L479.1081 590.4463L478.641 590.4463z" stroke="none" fill="#000000" fill-rule="evenodd" /><path id="208" transform="matrix(1 0 0 -1 0 841)" d="M479.1081 589.9791L542.634 589.9791L542.634 589.9791L542.634 590.4463L542.634 590.4463L479.1081 590.4463z" stroke="none" fill="#000000" fill-rule="evenodd" /><path id="209" transform="matrix(1 0 0 -1 0 841)" d="M542.634 589.9791L543.1011 589.9791L543.1011 589.9791L543.1011 590.4463L543.1011 590.4463L542.634 590.4463z" stroke="none" fill="#000000" fill-rule="evenodd" /><path id="210" transform="matrix(1 0 0 -1 0 841)" d="M52.17647 574.915L52.64357 574.915L52.64357 574.915L52.64357 589.9791L52.64357 589.9791L52.17647 589.9791z" stroke="none" fill="#000000" fill-rule="evenodd" /><path id="211" transform="matrix(1 0 0 -1 0 841)" d="M286.5451 574.915L287.0122 574.915L287.0122 574.915L287.0122 589.9791L287.0122 589.9791L286.5451 589.9791z" stroke="none" fill="#000000" fill-rule="evenodd" /><path id="212" transform="matrix(1 0 0 -1 0 841)" d="M350.5381 574.915L351.0052 574.915L351.0052 574.915L351.0052 589.9791L351.0052 589.9791L350.5381 589.9791z" stroke="none" fill="#000000" fill-rule="evenodd" /><path id="213" transform="matrix(1 0 0 -1 0 841)" d="M414.5895 574.915L415.0566 574.915L415.0566 574.915L415.0566 589.9791L415.0566 589.9791L414.5895 589.9791z" stroke="none" fill="#000000" fill-rule="evenodd" /><path id="214" transform="matrix(1 0 0 -1 0 841)" d="M478.641 574.915L479.1081 574.915L479.1081 574.915L479.1081 589.9791L479.1081 589.9791L478.641 589.9791z" stroke="none" fill="#000000" fill-rule="evenodd" /><path id="215" transform="matrix(1 0 0 -1 0 841)" d="M542.634 574.915L543.1011 574.915L543.1011 574.915L543.1011 589.9791L543.1011 589.9791L542.634 589.9791z" stroke="none" fill="#000000" fill-rule="evenodd" /><g clip-path="url(#69)"><g clip-path="url(#70)"></g></g><g clip-path="url(#71)"><g clip-path="url(#72)"></g></g><g clip-path="url(#73)"><g clip-path="url(#74)"></g></g><g clip-path="url(#75)"><g clip-path="url(#76)"></g></g><g clip-path="url(#77)"><g clip-path="url(#78)"></g></g><g clip-path="url(#79)"><g clip-path="url(#80)"></g></g><g clip-path="url(#81)"><g clip-path="url(#82)"></g></g><g clip-path="url(#83)"><g clip-path="url(#84)"></g></g><g clip-path="url(#85)"><g clip-path="url(#86)"></g></g><g clip-path="url(#87)"><g clip-path="url(#88)"></g></g><g clip-path="url(#89)"><g clip-path="url(#90)"></g></g><g clip-path="url(#91)"><g clip-path="url(#92)"></g></g><g clip-path="url(#93)"><g clip-path="url(#94)"></g></g><g clip-path="url(#95)"><g clip-path="url(#96)"></g></g><path id="245" transform="matrix(1 0 0 -1 0 841)" d="M52.17647 574.4479L52.64357 574.4479L52.64357 574.4479L52.64357 574.915L52.64357 574.915L52.17647 574.915z" stroke="none" fill="#000000" fill-rule="evenodd" /><path id="246" transform="matrix(1 0 0 -1 0 841)" d="M52.64357 574.4479L286.5451 574.4479L286.5451 574.4479L286.5451 574.915L286.5451 574.915L52.64357 574.915z" stroke="none" fill="#000000" fill-rule="evenodd" /><path id="247" transform="matrix(1 0 0 -1 0 841)" d="M286.5451 574.4479L287.0122 574.4479L287.0122 574.4479L287.0122 574.915L287.0122 574.915L286.5451 574.915z" stroke="none" fill="#000000" fill-rule="evenodd" /><path id="248" transform="matrix(1 0 0 -1 0 841)" d="M287.0122 574.4479L350.5381 574.4479L350.5381 574.4479L350.5381 574.915L350.5381 574.915L287.0122 574.915z" stroke="none" fill="#000000" fill-rule="evenodd" /><path id="249" transform="matrix(1 0 0 -1 0 841)" d="M350.5381 574.4479L351.0052 574.4479L351.0052 574.4479L351.0052 574.915L351.0052 574.915L350.5381 574.915z" stroke="none" fill="#000000" fill-rule="evenodd" /><path id="250" transform="matrix(1 0 0 -1 0 841)" d="M351.0052 574.4479L414.5895 574.4479L414.5895 574.4479L414.5895 574.915L414.5895 574.915L351.0052 574.915z" stroke="none" fill="#000000" fill-rule="evenodd" /><path id="251" transform="matrix(1 0 0 -1 0 841)" d="M414.5895 574.4479L415.0566 574.4479L415.0566 574.4479L415.0566 574.915L415.0566 574.915L414.5895 574.915z" stroke="none" fill="#000000" fill-rule="evenodd" /><path id="252" transform="matrix(1 0 0 -1 0 841)" d="M415.0566 574.4479L478.641 574.4479L478.641 574.4479L478.641 574.915L478.641 574.915L415.0566 574.915z" stroke="none" fill="#000000" fill-rule="evenodd" /><path id="253" transform="matrix(1 0 0 -1 0 841)" d="M478.641 574.4479L479.1081 574.4479L479.1081 574.4479L479.1081 574.915L479.1081 574.915L478.641 574.915z" stroke="none" fill="#000000" fill-rule="evenodd" /><path id="254" transform="matrix(1 0 0 -1 0 841)" d="M479.1081 574.4479L542.634 574.4479L542.634 574.4479L542.634 574.915L542.634 574.915L479.1081 574.915z" stroke="none" fill="#000000" fill-rule="evenodd" /><path id="255" transform="matrix(1 0 0 -1 0 841)" d="M542.634 574.4479L543.1011 574.4479L543.1011 574.4479L543.1011 574.915L543.1011 574.915L542.634 574.915z" stroke="none" fill="#000000" fill-rule="evenodd" /><path id="256" transform="matrix(1 0 0 -1 0 841)" d="M52.17647 559.3256L52.64357 559.3256L52.64357 559.3256L52.64357 574.4479L52.64357 574.4479L52.17647 574.4479z" stroke="none" fill="#000000" fill-rule="evenodd" /><path id="257" transform="matrix(1 0 0 -1 0 841)" d="M286.5451 559.3256L287.0122 559.3256L287.0122 559.3256L287.0122 574.4479L287.0122 574.4479L286.5451 574.4479z" stroke="none" fill="#000000" fill-rule="evenodd" /><path id="258" transform="matrix(1 0 0 -1 0 841)" d="M350.5381 559.3256L351.0052 559.3256L351.0052 559.3256L351.0052 574.4479L351.0052 574.4479L350.5381 574.4479z" stroke="none" fill="#000000" fill-rule="evenodd" /><path id="259" transform="matrix(1 0 0 -1 0 841)" d="M414.5895 559.3256L415.0566 559.3256L415.0566 559.3256L415.0566 574.4479L415.0566 574.4479L414.5895 574.4479z" stroke="none" fill="#000000" fill-rule="evenodd" /><path id="260" transform="matrix(1 0 0 -1 0 841)" d="M478.641 559.3256L479.1081 559.3256L479.1081 559.3256L479.1081 574.4479L479.1081 574.4479L478.641 574.4479z" stroke="none" fill="#000000" fill-rule="evenodd" /><path id="261" transform="matrix(1 0 0 -1 0 841)" d="M542.634 559.3256L543.1011 559.3256L543.1011 559.3256L543.1011 574.4479L543.1011 574.4479L542.634 574.4479z" stroke="none" fill="#000000" fill-rule="evenodd" /><g clip-path="url(#97)"><g clip-path="url(#98)"></g></g><g clip-path="url(#99)"><g clip-path="url(#100)"></g></g><g clip-path="url(#101)"><g clip-path="url(#102)"></g></g><g clip-path="url(#103)"><g clip-path="url(#104)"></g></g><g clip-path="url(#105)"><g clip-path="url(#106)"></g></g><g clip-path="url(#107)"><g clip-path="url(#108)"></g></g><g clip-path="url(#109)"><g clip-path="url(#110)"></g></g><g clip-path="url(#111)"><g clip-path="url(#112)"></g></g><g clip-path="url(#113)"><g clip-path="url(#114)"></g></g><g clip-path="url(#115)"><g clip-path="url(#116)"></g></g><g clip-path="url(#117)"><g clip-path="url(#118)"></g></g><g clip-path="url(#119)"><g clip-path="url(#120)"></g></g><path id="290" transform="matrix(1 0 0 -1 0 841)" d="M52.17647 558.8584L52.64357 558.8584L52.64357 558.8584L52.64357 559.3255L52.64357 559.3255L52.17647 559.3255z" stroke="none" fill="#000000" fill-rule="evenodd" /><path id="291" transform="matrix(1 0 0 -1 0 841)" d="M52.64357 558.8584L286.5451 558.8584L286.5451 558.8584L286.5451 559.3255L286.5451 559.3255L52.64357 559.3255z" stroke="none" fill="#000000" fill-rule="evenodd" /><path id="292" transform="matrix(1 0 0 -1 0 841)" d="M286.5451 558.8584L287.0122 558.8584L287.0122 558.8584L287.0122 559.3255L287.0122 559.3255L286.5451 559.3255z" stroke="none" fill="#000000" fill-rule="evenodd" /><path id="293" transform="matrix(1 0 0 -1 0 841)" d="M287.0122 558.8584L350.5381 558.8584L350.5381 558.8584L350.5381 559.3255L350.5381 559.3255L287.0122 559.3255z" stroke="none" fill="#000000" fill-rule="evenodd" /><path id="294" transform="matrix(1 0 0 -1 0 841)" d="M350.5381 558.8584L351.0052 558.8584L351.0052 558.8584L351.0052 559.3255L351.0052 559.3255L350.5381 559.3255z" stroke="none" fill="#000000" fill-rule="evenodd" /><path id="295" transform="matrix(1 0 0 -1 0 841)" d="M351.0052 558.8584L414.5895 558.8584L414.5895 558.8584L414.5895 559.3255L414.5895 559.3255L351.0052 559.3255z" stroke="none" fill="#000000" fill-rule="evenodd" /><path id="296" transform="matrix(1 0 0 -1 0 841)" d="M414.5895 558.8584L415.0566 558.8584L415.0566 558.8584L415.0566 559.3255L415.0566 559.3255L414.5895 559.3255z" stroke="none" fill="#000000" fill-rule="evenodd" /><path id="297" transform="matrix(1 0 0 -1 0 841)" d="M415.0566 558.8584L478.641 558.8584L478.641 558.8584L478.641 559.3255L478.641 559.3255L415.0566 559.3255z" stroke="none" fill="#000000" fill-rule="evenodd" /><path id="298" transform="matrix(1 0 0 -1 0 841)" d="M478.641 558.8584L479.1081 558.8584L479.1081 558.8584L479.1081 559.3255L479.1081 559.3255L478.641 559.3255z" stroke="none" fill="#000000" fill-rule="evenodd" /><path id="299" transform="matrix(1 0 0 -1 0 841)" d="M479.1081 558.8584L542.634 558.8584L542.634 558.8584L542.634 559.3255L542.634 559.3255L479.1081 559.3255z" stroke="none" fill="#000000" fill-rule="evenodd" /><path id="300" transform="matrix(1 0 0 -1 0 841)" d="M542.634 558.8584L543.1011 558.8584L543.1011 558.8584L543.1011 559.3255L543.1011 559.3255L542.634 559.3255z" stroke="none" fill="#000000" fill-rule="evenodd" /><path id="301" transform="matrix(1 0 0 -1 0 841)" d="M52.17647 543.736L52.64357 543.736L52.64357 543.736L52.64357 558.8584L52.64357 558.8584L52.17647 558.8584z" stroke="none" fill="#000000" fill-rule="evenodd" /><path id="302" transform="matrix(1 0 0 -1 0 841)" d="M286.5451 543.736L287.0122 543.736L287.0122 543.736L287.0122 558.8584L287.0122 558.8584L286.5451 558.8584z" stroke="none" fill="#000000" fill-rule="evenodd" /><path id="303" transform="matrix(1 0 0 -1 0 841)" d="M350.5381 543.736L351.0052 543.736L351.0052 543.736L351.0052 558.8584L351.0052 558.8584L350.5381 558.8584z" stroke="none" fill="#000000" fill-rule="evenodd" /><path id="304" transform="matrix(1 0 0 -1 0 841)" d="M414.5895 543.736L415.0566 543.736L415.0566 543.736L415.0566 558.8584L415.0566 558.8584L414.5895 558.8584z" stroke="none" fill="#000000" fill-rule="evenodd" /><path id="305" transform="matrix(1 0 0 -1 0 841)" d="M478.641 543.736L479.1081 543.736L479.1081 543.736L479.1081 558.8584L479.1081 558.8584L478.641 558.8584z" stroke="none" fill="#000000" fill-rule="evenodd" /><path id="306" transform="matrix(1 0 0 -1 0 841)" d="M542.634 543.736L543.1011 543.736L543.1011 543.736L543.1011 558.8584L543.1011 558.8584L542.634 558.8584z" stroke="none" fill="#000000" fill-rule="evenodd" /><g clip-path="url(#121)"><g clip-path="url(#122)"></g></g><g clip-path="url(#123)"><g clip-path="url(#124)"></g></g><g clip-path="url(#125)"><g clip-path="url(#126)"></g></g><g clip-path="url(#127)"><g clip-path="url(#128)"></g></g><g clip-path="url(#129)"><g clip-path="url(#130)"></g></g><g clip-path="url(#131)"><g clip-path="url(#132)"></g></g><g clip-path="url(#133)"><g clip-path="url(#134)"></g></g><g clip-path="url(#135)"><g clip-path="url(#136)"></g></g><g clip-path="url(#137)"><g clip-path="url(#138)"></g></g><g clip-path="url(#139)"><g clip-path="url(#140)"></g></g><g clip-path="url(#141)"><g clip-path="url(#142)"></g></g><g clip-path="url(#143)"><g clip-path="url(#144)"></g></g><g clip-path="url(#145)"><g clip-path="url(#146)"></g></g><g clip-path="url(#147)"><g clip-path="url(#148)"></g></g><path id="347" transform="matrix(1 0 0 -1 0 841)" d="M52.17647 543.2689L52.64357 543.2689L52.64357 543.2689L52.64357 543.7361L52.64357 543.7361L52.17647 543.7361z" stroke="none" fill="#000000" fill-rule="evenodd" /><path id="348" transform="matrix(1 0 0 -1 0 841)" d="M52.64357 543.2689L286.5451 543.2689L286.5451 543.2689L286.5451 543.7361L286.5451 543.7361L52.64357 543.7361z" stroke="none" fill="#000000" fill-rule="evenodd" /><path id="349" transform="matrix(1 0 0 -1 0 841)" d="M286.5451 543.2689L287.0122 543.2689L287.0122 543.2689L287.0122 543.7361L287.0122 543.7361L286.5451 543.7361z" stroke="none" fill="#000000" fill-rule="evenodd" /><path id="350" transform="matrix(1 0 0 -1 0 841)" d="M287.0122 543.2689L350.5381 543.2689L350.5381 543.2689L350.5381 543.7361L350.5381 543.7361L287.0122 543.7361z" stroke="none" fill="#000000" fill-rule="evenodd" /><path id="351" transform="matrix(1 0 0 -1 0 841)" d="M350.5381 543.2689L351.0052 543.2689L351.0052 543.2689L351.0052 543.7361L351.0052 543.7361L350.5381 543.7361z" stroke="none" fill="#000000" fill-rule="evenodd" /><path id="352" transform="matrix(1 0 0 -1 0 841)" d="M351.0052 543.2689L414.5895 543.2689L414.5895 543.2689L414.5895 543.7361L414.5895 543.7361L351.0052 543.7361z" stroke="none" fill="#000000" fill-rule="evenodd" /><path id="353" transform="matrix(1 0 0 -1 0 841)" d="M414.5895 543.2689L415.0566 543.2689L415.0566 543.2689L415.0566 543.7361L415.0566 543.7361L414.5895 543.7361z" stroke="none" fill="#000000" fill-rule="evenodd" /><path id="354" transform="matrix(1 0 0 -1 0 841)" d="M415.0566 543.2689L478.641 543.2689L478.641 543.2689L478.641 543.7361L478.641 543.7361L415.0566 543.7361z" stroke="none" fill="#000000" fill-rule="evenodd" /><path id="355" transform="matrix(1 0 0 -1 0 841)" d="M478.641 543.2689L479.1081 543.2689L479.1081 543.2689L479.1081 543.7361L479.1081 543.7361L478.641 543.7361z" stroke="none" fill="#000000" fill-rule="evenodd" /><path id="356" transform="matrix(1 0 0 -1 0 841)" d="M479.1081 543.2689L542.634 543.2689L542.634 543.2689L542.634 543.7361L542.634 543.7361L479.1081 543.7361z" stroke="none" fill="#000000" fill-rule="evenodd" /><path id="357" transform="matrix(1 0 0 -1 0 841)" d="M542.634 543.2689L543.1011 543.2689L543.1011 543.2689L543.1011 543.7361L543.1011 543.7361L542.634 543.7361z" stroke="none" fill="#000000" fill-rule="evenodd" /><path id="358" transform="matrix(1 0 0 -1 0 841)" d="M52.17647 525.3439L52.64357 525.3439L52.64357 525.3439L52.64357 543.2689L52.64357 543.2689L52.17647 543.2689z" stroke="none" fill="#000000" fill-rule="evenodd" /><path id="359" transform="matrix(1 0 0 -1 0 841)" d="M52.17647 524.8767L52.64357 524.8767L52.64357 524.8767L52.64357 525.3439L52.64357 525.3439L52.17647 525.3439z" stroke="none" fill="#000000" fill-rule="evenodd" /><path id="360" transform="matrix(1 0 0 -1 0 841)" d="M52.17647 524.8767L52.64357 524.8767L52.64357 524.8767L52.64357 525.3439L52.64357 525.3439L52.17647 525.3439z" stroke="none" fill="#000000" fill-rule="evenodd" /><path id="361" transform="matrix(1 0 0 -1 0 841)" d="M52.64357 524.8767L286.5451 524.8767L286.5451 524.8767L286.5451 525.3439L286.5451 525.3439L52.64357 525.3439z" stroke="none" fill="#000000" fill-rule="evenodd" /><path id="362" transform="matrix(1 0 0 -1 0 841)" d="M286.5451 525.3439L287.0122 525.3439L287.0122 525.3439L287.0122 543.2689L287.0122 543.2689L286.5451 543.2689z" stroke="none" fill="#000000" fill-rule="evenodd" /><path id="363" transform="matrix(1 0 0 -1 0 841)" d="M286.5451 524.8767L287.0122 524.8767L287.0122 524.8767L287.0122 525.3439L287.0122 525.3439L286.5451 525.3439z" stroke="none" fill="#000000" fill-rule="evenodd" /><path id="364" transform="matrix(1 0 0 -1 0 841)" d="M287.0122 524.8767L350.5381 524.8767L350.5381 524.8767L350.5381 525.3439L350.5381 525.3439L287.0122 525.3439z" stroke="none" fill="#000000" fill-rule="evenodd" /><path id="365" transform="matrix(1 0 0 -1 0 841)" d="M350.5381 525.3439L351.0052 525.3439L351.0052 525.3439L351.0052 543.2689L351.0052 543.2689L350.5381 543.2689z" stroke="none" fill="#000000" fill-rule="evenodd" /><path id="366" transform="matrix(1 0 0 -1 0 841)" d="M350.5381 524.8767L351.0052 524.8767L351.0052 524.8767L351.0052 525.3439L351.0052 525.3439L350.5381 525.3439z" stroke="none" fill="#000000" fill-rule="evenodd" /><path id="367" transform="matrix(1 0 0 -1 0 841)" d="M351.0052 524.8767L414.5895 524.8767L414.5895 524.8767L414.5895 525.3439L414.5895 525.3439L351.0052 525.3439z" stroke="none" fill="#000000" fill-rule="evenodd" /><path id="368" transform="matrix(1 0 0 -1 0 841)" d="M414.5895 525.3439L415.0566 525.3439L415.0566 525.3439L415.0566 543.2689L415.0566 543.2689L414.5895 543.2689z" stroke="none" fill="#000000" fill-rule="evenodd" /><path id="369" transform="matrix(1 0 0 -1 0 841)" d="M414.5895 524.8767L415.0566 524.8767L415.0566 524.8767L415.0566 525.3439L415.0566 525.3439L414.5895 525.3439z" stroke="none" fill="#000000" fill-rule="evenodd" /><path id="370" transform="matrix(1 0 0 -1 0 841)" d="M415.0566 524.8767L478.641 524.8767L478.641 524.8767L478.641 525.3439L478.641 525.3439L415.0566 525.3439z" stroke="none" fill="#000000" fill-rule="evenodd" /><path id="371" transform="matrix(1 0 0 -1 0 841)" d="M478.641 525.3439L479.1081 525.3439L479.1081 525.3439L479.1081 543.2689L479.1081 543.2689L478.641 543.2689z" stroke="none" fill="#000000" fill-rule="evenodd" /><path id="372" transform="matrix(1 0 0 -1 0 841)" d="M478.641 524.8767L479.1081 524.8767L479.1081 524.8767L479.1081 525.3439L479.1081 525.3439L478.641 525.3439z" stroke="none" fill="#000000" fill-rule="evenodd" /><path id="373" transform="matrix(1 0 0 -1 0 841)" d="M479.1081 524.8767L542.634 524.8767L542.634 524.8767L542.634 525.3439L542.634 525.3439L479.1081 525.3439z" stroke="none" fill="#000000" fill-rule="evenodd" /><path id="374" transform="matrix(1 0 0 -1 0 841)" d="M542.634 525.3439L543.1011 525.3439L543.1011 525.3439L543.1011 543.2689L543.1011 543.2689L542.634 543.2689z" stroke="none" fill="#000000" fill-rule="evenodd" /><path id="375" transform="matrix(1 0 0 -1 0 841)" d="M542.634 524.8767L543.1011 524.8767L543.1011 524.8767L543.1011 525.3439L543.1011 525.3439L542.634 525.3439z" stroke="none" fill="#000000" fill-rule="evenodd" /><path id="376" transform="matrix(1 0 0 -1 0 841)" d="M542.634 524.8767L543.1011 524.8767L543.1011 524.8767L543.1011 525.3439L543.1011 525.3439L542.634 525.3439z" stroke="none" fill="#000000" fill-rule="evenodd" /><path id="388" transform="matrix(1 0 0 -1 0 841)" d="M52.41002 498.3687L542.8676 498.3687L542.8676 498.3687L542.8676 499.2445L542.8676 499.2445L52.41002 499.2445z" stroke="none" fill="#000000" fill-rule="evenodd" /><path id="513" transform="matrix(1 0 0 -1 0 841)" d="M52.41002 449.1478L542.8676 449.1478L542.8676 449.1478L542.8676 450.0237L542.8676 450.0237L52.41002 450.0237z" stroke="none" fill="#000000" fill-rule="evenodd" /><path id="697" transform="matrix(1 0 0 -1 0 841)" d="M52.41002 377.506L542.8676 377.506L542.8676 377.506L542.8676 378.3818L542.8676 378.3818L52.41002 378.3818z" stroke="none" fill="#000000" fill-rule="evenodd" /><path id="855" transform="matrix(1 0 0 -1 0 841)" d="M52.41002 317.0746L542.8676 317.0746L542.8676 317.0746L542.8676 317.9504L542.8676 317.9504L52.41002 317.9504z" stroke="none" fill="#000000" fill-rule="evenodd" /><path id="1111" transform="matrix(1 0 0 -1 0 841)" d="M52.41002 245.4911L542.8676 245.4911L542.8676 245.4911L542.8676 246.367L542.8676 246.367L52.41002 246.367z" stroke="none" fill="#000000" fill-rule="evenodd" /><g transform="matrix(0.681191 0 0 0.6819013 52.41002 69.72675)"><g transform="matrix(1 0 0 1 0 0)"><image x="0" y="0" xlink:href="img_494.png" width="720" height="137" /></g></g></g></g></g></g></svg>