<svg xmlns="http://www.w3.org/2000/svg" xmlns:xlink="http://www.w3.org/1999/xlink" id="body_287" preserveAspectRatio="xMinYMin meet" viewBox="0 0 793 1121"><defs><clipPath id="1"><path id="" clip-rule="evenodd" transform="matrix(1 0 0 1 0 0)" d="M0 841L0 -0.8900146L0 -0.8900146L595.276 -0.8900146L595.276 -0.8900146L595.276 841L595.276 841L0 841z" /></clipPath></defs><g transform="matrix(1.333333 0 0 1.333333 0 0)"><g clip-path="url(#1)"><path id="23" transform="matrix(1 0 0 -1 0 841)" d="M85.039 766.564L510.236 766.564" stroke="#000000" stroke-width="0.498" fill="none" /><path id="49" transform="matrix(1 0 0 -1 0 841)" d="M85.039 340.088L85.039 731.2375C 85.039 733.5858 86.94264 735.4895 89.29099 735.4895L89.29099 735.4895L505.9893 735.4895C 508.3377 735.4895 510.2413 733.5858 510.2413 731.2375L510.2413 731.2375L510.2413 340.088C 510.2413 337.7396 508.3377 335.836 505.9893 335.836L505.9893 335.836L89.29099 335.836C 86.94264 335.836 85.039 337.7396 85.039 340.088z" stroke="none" fill="#BFBFFF" fill-rule="nonzero" /><path id="50" transform="matrix(1 0 0 -1 0 841)" d="M86.45631 340.088L86.45631 719.4802L86.45631 719.4802L508.824 719.4802L508.824 719.4802L508.824 340.088C 508.824 338.5224 507.5549 337.2533 505.9893 337.2533L505.9893 337.2533L89.29099 337.2533C 87.72543 337.2533 86.45631 338.5224 86.45631 340.088z" stroke="none" fill="#E6E6FF" fill-rule="nonzero" /><path id="254" transform="matrix(1 0 0 -1 0 841)" d="M127.903 494.992L243.935 494.992" stroke="#000000" stroke-width="0.398" fill="none" /><path id="255" transform="matrix(1 0 0 -1 0 841)" d="M128.102 477.857L128.102 494.793" stroke="#000000" stroke-width="0.398" fill="none" /><path id="262" transform="matrix(1 0 0 -1 0 841)" d="M190.473 477.857L190.473 494.793" stroke="#000000" stroke-width="0.398" fill="none" /><path id="271" transform="matrix(1 0 0 -1 0 841)" d="M243.736 477.857L243.736 494.793" stroke="#000000" stroke-width="0.398" fill="none" /><path id="272" transform="matrix(1 0 0 -1 0 841)" d="M127.903 477.657L243.935 477.657" stroke="#000000" stroke-width="0.398" fill="none" /><path id="273" transform="matrix(1 0 0 -1 0 841)" d="M128.102 460.522L128.102 477.458" stroke="#000000" stroke-width="0.398" fill="none" /><path id="281" transform="matrix(1 0 0 -1 0 841)" d="M190.473 460.522L190.473 477.458" stroke="#000000" stroke-width="0.398" fill="none" /><path id="290" transform="matrix(1 0 0 -1 0 841)" d="M243.736 460.522L243.736 477.458" stroke="#000000" stroke-width="0.398" fill="none" /><path id="291" transform="matrix(1 0 0 -1 0 841)" d="M127.903 460.322L243.935 460.322" stroke="#000000" stroke-width="0.398" fill="none" /><path id="292" transform="matrix(1 0 0 -1 0 841)" d="M128.102 443.187L128.102 460.123" stroke="#000000" stroke-width="0.398" fill="none" /><path id="302" transform="matrix(1 0 0 -1 0 841)" d="M190.473 443.187L190.473 460.123" stroke="#000000" stroke-width="0.398" fill="none" /><path id="311" transform="matrix(1 0 0 -1 0 841)" d="M243.736 443.187L243.736 460.123" stroke="#000000" stroke-width="0.398" fill="none" /><path id="312" transform="matrix(1 0 0 -1 0 841)" d="M127.903 442.987L243.935 442.987" stroke="#000000" stroke-width="0.398" fill="none" /><path id="313" transform="matrix(1 0 0 -1 0 841)" d="M128.102 425.852L128.102 442.788" stroke="#000000" stroke-width="0.398" fill="none" /><path id="322" transform="matrix(1 0 0 -1 0 841)" d="M190.473 425.852L190.473 442.788" stroke="#000000" stroke-width="0.398" fill="none" /><path id="331" transform="matrix(1 0 0 -1 0 841)" d="M243.736 425.852L243.736 442.788" stroke="#000000" stroke-width="0.398" fill="none" /><path id="332" transform="matrix(1 0 0 -1 0 841)" d="M127.903 425.652L243.935 425.652" stroke="#000000" stroke-width="0.398" fill="none" /><path id="333" transform="matrix(1 0 0 -1 0 841)" d="M128.102 408.517L128.102 425.453" stroke="#000000" stroke-width="0.398" fill="none" /><path id="340" transform="matrix(1 0 0 -1 0 841)" d="M190.473 408.517L190.473 425.453" stroke="#000000" stroke-width="0.398" fill="none" /><path id="349" transform="matrix(1 0 0 -1 0 841)" d="M243.736 408.517L243.736 425.453" stroke="#000000" stroke-width="0.398" fill="none" /><path id="350" transform="matrix(1 0 0 -1 0 841)" d="M127.903 408.317L243.935 408.317" stroke="#000000" stroke-width="0.398" fill="none" /><path id="351" transform="matrix(1 0 0 -1 0 841)" d="M128.102 391.182L128.102 408.118" stroke="#000000" stroke-width="0.398" fill="none" /><path id="360" transform="matrix(1 0 0 -1 0 841)" d="M190.473 391.182L190.473 408.118" stroke="#000000" stroke-width="0.398" fill="none" /><path id="369" transform="matrix(1 0 0 -1 0 841)" d="M243.736 391.182L243.736 408.118" stroke="#000000" stroke-width="0.398" fill="none" /><path id="370" transform="matrix(1 0 0 -1 0 841)" d="M127.903 390.982L243.935 390.982" stroke="#000000" stroke-width="0.398" fill="none" /><path id="371" transform="matrix(1 0 0 -1 0 841)" d="M128.102 373.847L128.102 390.783" stroke="#000000" stroke-width="0.398" fill="none" /><path id="378" transform="matrix(1 0 0 -1 0 841)" d="M190.473 373.847L190.473 390.783" stroke="#000000" stroke-width="0.398" fill="none" /><path id="387" transform="matrix(1 0 0 -1 0 841)" d="M243.736 373.847L243.736 390.783" stroke="#000000" stroke-width="0.398" fill="none" /><path id="388" transform="matrix(1 0 0 -1 0 841)" d="M127.903 373.647L243.935 373.647" stroke="#000000" stroke-width="0.398" fill="none" /><path id="546" transform="matrix(1 0 0 -1 0 841)" d="M112.063 250.722L129.525 250.722L129.525 262.995L112.063 262.995z" stroke="none" fill="#FFF100" fill-rule="nonzero" /><path id="550" transform="matrix(1 0 0 -1 0 841)" d="M129.14 250.722L131.862 250.722L131.862 262.995L129.14 262.995z" stroke="none" fill="#FFF100" fill-rule="nonzero" /><path id="551" transform="matrix(1 0 0 -1 0 841)" d="M131.613 250.722L158.773 250.722L158.773 262.995L131.613 262.995z" stroke="none" fill="#FFF100" fill-rule="nonzero" /><path id="557" transform="matrix(1 0 0 -1 0 841)" d="M158.31 250.722L161.032 250.722L161.032 262.995L158.31 262.995z" stroke="none" fill="#FFF100" fill-rule="nonzero" /><path id="558" transform="matrix(1 0 0 -1 0 841)" d="M160.782 250.722L168.556 250.722L168.556 262.995L160.782 262.995z" stroke="none" fill="#FFF100" fill-rule="nonzero" /><path id="561" transform="matrix(1 0 0 -1 0 841)" d="M168.249 250.722L170.971 250.722L170.971 262.995L168.249 262.995z" stroke="none" fill="#FFF100" fill-rule="nonzero" /><path id="562" transform="matrix(1 0 0 -1 0 841)" d="M170.722 250.722L186.973 250.722L186.973 262.995L170.722 262.995z" stroke="none" fill="#FFF100" fill-rule="nonzero" /><path id="566" transform="matrix(1 0 0 -1 0 841)" d="M186.349 250.722L199.578 250.722L199.578 262.995L186.349 262.995z" stroke="none" fill="#FFF100" fill-rule="nonzero" /><path id="570" transform="matrix(1 0 0 -1 0 841)" d="M198.977 250.722L218.249 250.722L218.249 262.995L198.977 262.995z" stroke="none" fill="#FFF100" fill-rule="nonzero" /><path id="575" transform="matrix(1 0 0 -1 0 841)" d="M217.851 250.722L220.573 250.722L220.573 262.995L217.851 262.995z" stroke="none" fill="#FFF100" fill-rule="nonzero" /><path id="576" transform="matrix(1 0 0 -1 0 841)" d="M220.323 250.722L229.908 250.722L229.908 262.995L220.323 262.995z" stroke="none" fill="#FFF100" fill-rule="nonzero" /><path id="579" transform="matrix(1 0 0 -1 0 841)" d="M229.587 250.722L232.309 250.722L232.309 262.995L229.587 262.995z" stroke="none" fill="#FFF100" fill-rule="nonzero" /><path id="580" transform="matrix(1 0 0 -1 0 841)" d="M232.059 250.722L238.012 250.722L238.012 262.995L232.059 262.995z" stroke="none" fill="#FFF100" fill-rule="nonzero" /><path id="582" transform="matrix(1 0 0 -1 0 841)" d="M237.719 250.722L240.441 250.722L240.441 262.995L237.719 262.995z" stroke="none" fill="#FFF100" fill-rule="nonzero" /><path id="583" transform="matrix(1 0 0 -1 0 841)" d="M240.192 250.722L249.777 250.722L249.777 262.995L240.192 262.995z" stroke="none" fill="#FFF100" fill-rule="nonzero" /><path id="586" transform="matrix(1 0 0 -1 0 841)" d="M249.455 250.722L252.177 250.722L252.177 262.995L249.455 262.995z" stroke="none" fill="#FFF100" fill-rule="nonzero" /><path id="587" transform="matrix(1 0 0 -1 0 841)" d="M251.928 250.722L277.877 250.722L277.877 262.995L251.928 262.995z" stroke="none" fill="#FFF100" fill-rule="nonzero" /><path id="592" transform="matrix(1 0 0 -1 0 841)" d="M277.424 250.722L280.146 250.722L280.146 262.995L277.424 262.995z" stroke="none" fill="#FFF100" fill-rule="nonzero" /><path id="593" transform="matrix(1 0 0 -1 0 841)" d="M279.897 250.722L296.148 250.722L296.148 262.995L279.897 262.995z" stroke="none" fill="#FFF100" fill-rule="nonzero" /><path id="597" transform="matrix(1 0 0 -1 0 841)" d="M295.773 250.722L298.495 250.722L298.495 262.995L295.773 262.995z" stroke="none" fill="#FFF100" fill-rule="nonzero" /><path id="598" transform="matrix(1 0 0 -1 0 841)" d="M298.245 250.722L303.587 250.722L303.587 262.995L298.245 262.995z" stroke="none" fill="#FFF100" fill-rule="nonzero" /><path id="600" transform="matrix(1 0 0 -1 0 841)" d="M303.299 250.722L306.021 250.722L306.021 262.995L303.299 262.995z" stroke="none" fill="#FFF100" fill-rule="nonzero" /><path id="601" transform="matrix(1 0 0 -1 0 841)" d="M305.772 250.722L323.234 250.722L323.234 262.995L305.772 262.995z" stroke="none" fill="#FFF100" fill-rule="nonzero" /><path id="606" transform="matrix(1 0 0 -1 0 841)" d="M322.848 250.722L325.57 250.722L325.57 262.995L322.848 262.995z" stroke="none" fill="#FFF100" fill-rule="nonzero" /><path id="607" transform="matrix(1 0 0 -1 0 841)" d="M325.321 250.722L334.906 250.722L334.906 262.995L325.321 262.995z" stroke="none" fill="#FFF100" fill-rule="nonzero" /><path id="610" transform="matrix(1 0 0 -1 0 841)" d="M334.584 250.722L337.306 250.722L337.306 262.995L334.584 262.995z" stroke="none" fill="#FFF100" fill-rule="nonzero" /><path id="611" transform="matrix(1 0 0 -1 0 841)" d="M337.057 250.722L350.886 250.722L350.886 262.995L337.057 262.995z" stroke="none" fill="#FFF100" fill-rule="nonzero" /><path id="615" transform="matrix(1 0 0 -1 0 841)" d="M350.53 250.722L353.252 250.722L353.252 262.995L350.53 262.995z" stroke="none" fill="#FFF100" fill-rule="nonzero" /><path id="616" transform="matrix(1 0 0 -1 0 841)" d="M353.003 250.722L380.163 250.722L380.163 262.995L353.003 262.995z" stroke="none" fill="#FFF100" fill-rule="nonzero" /><path id="622" transform="matrix(1 0 0 -1 0 841)" d="M379.7 250.722L382.422 250.722L382.422 262.995L379.7 262.995z" stroke="none" fill="#FFF100" fill-rule="nonzero" /><path id="623" transform="matrix(1 0 0 -1 0 841)" d="M382.173 250.722L397.813 250.722L397.813 262.995L382.173 262.995z" stroke="none" fill="#FFF100" fill-rule="nonzero" /><path id="627" transform="matrix(1 0 0 -1 0 841)" d="M397.442 250.722L400.164 250.722L400.164 262.995L397.442 262.995z" stroke="none" fill="#FFF100" fill-rule="nonzero" /><path id="628" transform="matrix(1 0 0 -1 0 841)" d="M399.915 250.722L410.711 250.722L410.711 262.995L399.915 262.995z" stroke="none" fill="#FFF100" fill-rule="nonzero" /><path id="631" transform="matrix(1 0 0 -1 0 841)" d="M410.38 250.722L413.102 250.722L413.102 262.995L410.38 262.995z" stroke="none" fill="#FFF100" fill-rule="nonzero" /><path id="632" transform="matrix(1 0 0 -1 0 841)" d="M412.852 250.722L423.485 250.722L423.485 262.995L412.852 262.995z" stroke="none" fill="#FFF100" fill-rule="nonzero" /><path id="635" transform="matrix(1 0 0 -1 0 841)" d="M422.904 250.722L456.118 250.722L456.118 262.995L422.904 262.995z" stroke="none" fill="#FFF100" fill-rule="nonzero" /><path id="643" transform="matrix(1 0 0 -1 0 841)" d="M455.608 250.722L458.33 250.722L458.33 262.995L455.608 262.995z" stroke="none" fill="#FFF100" fill-rule="nonzero" /><path id="644" transform="matrix(1 0 0 -1 0 841)" d="M458.08 250.722L467.665 250.722L467.665 262.995L458.08 262.995z" stroke="none" fill="#FFF100" fill-rule="nonzero" /><path id="647" transform="matrix(1 0 0 -1 0 841)" d="M467.344 250.722L470.066 250.722L470.066 262.995L467.344 262.995z" stroke="none" fill="#FFF100" fill-rule="nonzero" /><path id="648" transform="matrix(1 0 0 -1 0 841)" d="M469.816 250.722L475.158 250.722L475.158 262.995L469.816 262.995z" stroke="none" fill="#FFF100" fill-rule="nonzero" /><path id="650" transform="matrix(1 0 0 -1 0 841)" d="M474.87 250.722L477.592 250.722L477.592 262.995L474.87 262.995z" stroke="none" fill="#FFF100" fill-rule="nonzero" /><path id="651" transform="matrix(1 0 0 -1 0 841)" d="M477.343 250.722L491.772 250.722L491.772 262.995L477.343 262.995z" stroke="none" fill="#FFF100" fill-rule="nonzero" /><path id="655" transform="matrix(1 0 0 -1 0 841)" d="M491.162 250.722L512.562 250.722L512.562 262.995L491.162 262.995z" stroke="none" fill="#FFF100" fill-rule="nonzero" /><path id="828" transform="matrix(1 0 0 -1 0 841)" d="M112.063 182.976L129.525 182.976L129.525 195.249L112.063 195.249z" stroke="none" fill="#FFF100" fill-rule="nonzero" /><path id="832" transform="matrix(1 0 0 -1 0 841)" d="M129.276 182.976L132.003 182.976L132.003 195.249L129.276 195.249z" stroke="none" fill="#FFF100" fill-rule="nonzero" /><path id="833" transform="matrix(1 0 0 -1 0 841)" d="M131.754 182.976L147.394 182.976L147.394 195.249L131.754 195.249z" stroke="none" fill="#FFF100" fill-rule="nonzero" /><path id="837" transform="matrix(1 0 0 -1 0 841)" d="M146.896 182.976L150.427 182.976L150.427 195.249L146.896 195.249z" stroke="none" fill="#FFF100" fill-rule="nonzero" /><path id="839" transform="matrix(1 0 0 -1 0 841)" d="M149.928 182.976L166.789 182.976L166.789 195.249L149.928 195.249z" stroke="none" fill="#FFF100" fill-rule="nonzero" /><path id="843" transform="matrix(1 0 0 -1 0 841)" d="M166.541 182.976L169.268 182.976L169.268 195.249L166.541 195.249z" stroke="none" fill="#FFF100" fill-rule="nonzero" /><path id="844" transform="matrix(1 0 0 -1 0 841)" d="M169.019 182.976L190.724 182.976L190.724 195.249L169.019 195.249z" stroke="none" fill="#FFF100" fill-rule="nonzero" /><path id="849" transform="matrix(1 0 0 -1 0 841)" d="M190.475 182.976L193.202 182.976L193.202 195.249L190.475 195.249z" stroke="none" fill="#FFF100" fill-rule="nonzero" /><path id="850" transform="matrix(1 0 0 -1 0 841)" d="M192.953 182.976L202.538 182.976L202.538 195.249L192.953 195.249z" stroke="none" fill="#FFF100" fill-rule="nonzero" /><path id="853" transform="matrix(1 0 0 -1 0 841)" d="M202.289 182.976L205.016 182.976L205.016 195.249L202.289 195.249z" stroke="none" fill="#FFF100" fill-rule="nonzero" /><path id="854" transform="matrix(1 0 0 -1 0 841)" d="M204.768 182.976L210.11 182.976L210.11 195.249L204.768 195.249z" stroke="none" fill="#FFF100" fill-rule="nonzero" /><path id="856" transform="matrix(1 0 0 -1 0 841)" d="M209.86 182.976L212.587 182.976L212.587 195.249L209.86 195.249z" stroke="none" fill="#FFF100" fill-rule="nonzero" /><path id="857" transform="matrix(1 0 0 -1 0 841)" d="M212.338 182.976L226.767 182.976L226.767 195.249L212.338 195.249z" stroke="none" fill="#FFF100" fill-rule="nonzero" /><path id="861" transform="matrix(1 0 0 -1 0 841)" d="M226.269 182.976L244.941 182.976L244.941 195.249L226.269 195.249z" stroke="none" fill="#FFF100" fill-rule="nonzero" /><path id="866" transform="matrix(1 0 0 -1 0 841)" d="M244.692 182.976L247.419 182.976L247.419 195.249L244.692 195.249z" stroke="none" fill="#FFF100" fill-rule="nonzero" /><path id="867" transform="matrix(1 0 0 -1 0 841)" d="M247.171 182.976L271.025 182.976L271.025 195.249L247.171 195.249z" stroke="none" fill="#FFF100" fill-rule="nonzero" /><path id="873" transform="matrix(1 0 0 -1 0 841)" d="M270.776 182.976L273.503 182.976L273.503 195.249L270.776 195.249z" stroke="none" fill="#FFF100" fill-rule="nonzero" /><path id="874" transform="matrix(1 0 0 -1 0 841)" d="M273.254 182.976L281.028 182.976L281.028 195.249L273.254 195.249z" stroke="none" fill="#FFF100" fill-rule="nonzero" /><path id="877" transform="matrix(1 0 0 -1 0 841)" d="M280.779 182.976L283.506 182.976L283.506 195.249L280.779 195.249z" stroke="none" fill="#FFF100" fill-rule="nonzero" /><path id="878" transform="matrix(1 0 0 -1 0 841)" d="M283.257 182.976L294.664 182.976L294.664 195.249L283.257 195.249z" stroke="none" fill="#FFF100" fill-rule="nonzero" /><path id="881" transform="matrix(1 0 0 -1 0 841)" d="M294.166 182.976L321.326 182.976L321.326 195.249L294.166 195.249z" stroke="none" fill="#FFF100" fill-rule="nonzero" /><path id="888" transform="matrix(1 0 0 -1 0 841)" d="M321.077 182.976L323.804 182.976L323.804 195.249L321.077 195.249z" stroke="none" fill="#FFF100" fill-rule="nonzero" /><path id="889" transform="matrix(1 0 0 -1 0 841)" d="M323.555 182.976L334.962 182.976L334.962 195.249L323.555 195.249z" stroke="none" fill="#FFF100" fill-rule="nonzero" /><path id="892" transform="matrix(1 0 0 -1 0 841)" d="M334.713 182.976L337.44 182.976L337.44 195.249L334.713 195.249z" stroke="none" fill="#FFF100" fill-rule="nonzero" /><path id="893" transform="matrix(1 0 0 -1 0 841)" d="M337.192 182.976L345.905 182.976L345.905 195.249L337.192 195.249z" stroke="none" fill="#FFF100" fill-rule="nonzero" /><path id="896" transform="matrix(1 0 0 -1 0 841)" d="M345.406 182.976L359.846 182.976L359.846 195.249L345.406 195.249z" stroke="none" fill="#FFF100" fill-rule="nonzero" /><path id="900" transform="matrix(1 0 0 -1 0 841)" d="M359.348 182.976L373.788 182.976L373.788 195.249L359.348 195.249z" stroke="none" fill="#FFF100" fill-rule="nonzero" /><path id="904" transform="matrix(1 0 0 -1 0 841)" d="M373.538 182.976L376.265 182.976L376.265 195.249L373.538 195.249z" stroke="none" fill="#FFF100" fill-rule="nonzero" /><path id="905" transform="matrix(1 0 0 -1 0 841)" d="M376.017 182.976L389.846 182.976L389.846 195.249L376.017 195.249z" stroke="none" fill="#FFF100" fill-rule="nonzero" /><path id="909" transform="matrix(1 0 0 -1 0 841)" d="M389.596 182.976L392.323 182.976L392.323 195.249L389.596 195.249z" stroke="none" fill="#FFF100" fill-rule="nonzero" /><path id="910" transform="matrix(1 0 0 -1 0 841)" d="M392.075 182.976L406.504 182.976L406.504 195.249L392.075 195.249z" stroke="none" fill="#FFF100" fill-rule="nonzero" /><path id="914" transform="matrix(1 0 0 -1 0 841)" d="M406.005 182.976L424.677 182.976L424.677 195.249L406.005 195.249z" stroke="none" fill="#FFF100" fill-rule="nonzero" /><path id="919" transform="matrix(1 0 0 -1 0 841)" d="M424.429 182.976L427.156 182.976L427.156 195.249L424.429 195.249z" stroke="none" fill="#FFF100" fill-rule="nonzero" /><path id="920" transform="matrix(1 0 0 -1 0 841)" d="M426.907 182.976L438.314 182.976L438.314 195.249L426.907 195.249z" stroke="none" fill="#FFF100" fill-rule="nonzero" /><path id="923" transform="matrix(1 0 0 -1 0 841)" d="M438.065 182.976L440.792 182.976L440.792 195.249L438.065 195.249z" stroke="none" fill="#FFF100" fill-rule="nonzero" /><path id="924" transform="matrix(1 0 0 -1 0 841)" d="M440.543 182.976L460.132 182.976L460.132 195.249L440.543 195.249z" stroke="none" fill="#FFF100" fill-rule="nonzero" /><path id="1033" transform="matrix(1 0 0 -1 0 841)" d="M112.063 132.167L123.808 132.167L123.808 144.44L112.063 144.44z" stroke="none" fill="#FFF100" fill-rule="nonzero" /><path id="1036" transform="matrix(1 0 0 -1 0 841)" d="M123.559 132.167L126.286 132.167L126.286 144.44L123.559 144.44z" stroke="none" fill="#FFF100" fill-rule="nonzero" /><path id="1037" transform="matrix(1 0 0 -1 0 841)" d="M126.038 132.167L136.834 132.167L136.834 144.44L126.038 144.44z" stroke="none" fill="#FFF100" fill-rule="nonzero" /><path id="1040" transform="matrix(1 0 0 -1 0 841)" d="M136.336 132.167L148.343 132.167L148.343 144.44L136.336 144.44z" stroke="none" fill="#FFF100" fill-rule="nonzero" /><path id="1044" transform="matrix(1 0 0 -1 0 841)" d="M147.845 132.167L170.161 132.167L170.161 144.44L147.845 144.44z" stroke="none" fill="#FFF100" fill-rule="nonzero" /><path id="1049" transform="matrix(1 0 0 -1 0 841)" d="M169.912 132.167L172.639 132.167L172.639 144.44L169.912 144.44z" stroke="none" fill="#FFF100" fill-rule="nonzero" /><path id="1050" transform="matrix(1 0 0 -1 0 841)" d="M172.39 132.167L194.095 132.167L194.095 144.44L172.39 144.44z" stroke="none" fill="#FFF100" fill-rule="nonzero" /><path id="1055" transform="matrix(1 0 0 -1 0 841)" d="M193.846 132.167L196.573 132.167L196.573 144.44L193.846 144.44z" stroke="none" fill="#FFF100" fill-rule="nonzero" /><path id="1056" transform="matrix(1 0 0 -1 0 841)" d="M196.324 132.167L210.753 132.167L210.753 144.44L196.324 144.44z" stroke="none" fill="#FFF100" fill-rule="nonzero" /><path id="1060" transform="matrix(1 0 0 -1 0 841)" d="M210.255 132.167L228.927 132.167L228.927 144.44L210.255 144.44z" stroke="none" fill="#FFF100" fill-rule="nonzero" /><path id="1065" transform="matrix(1 0 0 -1 0 841)" d="M228.429 132.167L244.069 132.167L244.069 144.44L228.429 144.44z" stroke="none" fill="#FFF100" fill-rule="nonzero" /><path id="1069" transform="matrix(1 0 0 -1 0 841)" d="M243.82 132.167L246.547 132.167L246.547 144.44L243.82 144.44z" stroke="none" fill="#FFF100" fill-rule="nonzero" /><path id="1070" transform="matrix(1 0 0 -1 0 841)" d="M246.298 132.167L251.64 132.167L251.64 144.44L246.298 144.44z" stroke="none" fill="#FFF100" fill-rule="nonzero" /><path id="1072" transform="matrix(1 0 0 -1 0 841)" d="M251.391 132.167L254.118 132.167L254.118 144.44L251.391 144.44z" stroke="none" fill="#FFF100" fill-rule="nonzero" /><path id="1073" transform="matrix(1 0 0 -1 0 841)" d="M253.869 132.167L271.331 132.167L271.331 144.44L253.869 144.44z" stroke="none" fill="#FFF100" fill-rule="nonzero" /><path id="1078" transform="matrix(1 0 0 -1 0 841)" d="M271.081 132.167L273.808 132.167L273.808 144.44L271.081 144.44z" stroke="none" fill="#FFF100" fill-rule="nonzero" /><path id="1079" transform="matrix(1 0 0 -1 0 841)" d="M273.559 132.167L281.333 132.167L281.333 144.44L273.559 144.44z" stroke="none" fill="#FFF100" fill-rule="nonzero" /><path id="1082" transform="matrix(1 0 0 -1 0 841)" d="M281.085 132.167L283.812 132.167L283.812 144.44L281.085 144.44z" stroke="none" fill="#FFF100" fill-rule="nonzero" /><path id="1083" transform="matrix(1 0 0 -1 0 841)" d="M283.563 132.167L293.148 132.167L293.148 144.44L283.563 144.44z" stroke="none" fill="#FFF100" fill-rule="nonzero" /><path id="1086" transform="matrix(1 0 0 -1 0 841)" d="M292.899 132.167L295.626 132.167L295.626 144.44L292.899 144.44z" stroke="none" fill="#FFF100" fill-rule="nonzero" /><path id="1087" transform="matrix(1 0 0 -1 0 841)" d="M295.377 132.167L309.206 132.167L309.206 144.44L295.377 144.44z" stroke="none" fill="#FFF100" fill-rule="nonzero" /><path id="1091" transform="matrix(1 0 0 -1 0 841)" d="M308.957 132.167L311.684 132.167L311.684 144.44L308.957 144.44z" stroke="none" fill="#FFF100" fill-rule="nonzero" /><path id="1092" transform="matrix(1 0 0 -1 0 841)" d="M311.435 132.167L341.322 132.167L341.322 144.44L311.435 144.44z" stroke="none" fill="#FFF100" fill-rule="nonzero" /><path id="1099" transform="matrix(1 0 0 -1 0 841)" d="M341.073 132.167L343.8 132.167L343.8 144.44L341.073 144.44z" stroke="none" fill="#FFF100" fill-rule="nonzero" /><path id="1100" transform="matrix(1 0 0 -1 0 841)" d="M343.551 132.167L352.264 132.167L352.264 144.44L343.551 144.44z" stroke="none" fill="#FFF100" fill-rule="nonzero" /><path id="1103" transform="matrix(1 0 0 -1 0 841)" d="M351.766 132.167L371.049 132.167L371.049 144.44L351.766 144.44z" stroke="none" fill="#FFF100" fill-rule="nonzero" /><path id="1108" transform="matrix(1 0 0 -1 0 841)" d="M370.8 132.167L373.527 132.167L373.527 144.44L370.8 144.44z" stroke="none" fill="#FFF100" fill-rule="nonzero" /><path id="1109" transform="matrix(1 0 0 -1 0 841)" d="M373.278 132.167L387.107 132.167L387.107 144.44L373.278 144.44z" stroke="none" fill="#FFF100" fill-rule="nonzero" /><path id="1113" transform="matrix(1 0 0 -1 0 841)" d="M386.858 132.167L389.585 132.167L389.585 144.44L386.858 144.44z" stroke="none" fill="#FFF100" fill-rule="nonzero" /><path id="1114" transform="matrix(1 0 0 -1 0 841)" d="M389.336 132.167L406.798 132.167L406.798 144.44L389.336 144.44z" stroke="none" fill="#FFF100" fill-rule="nonzero" /><path id="1119" transform="matrix(1 0 0 -1 0 841)" d="M406.549 132.167L409.276 132.167L409.276 144.44L406.549 144.44z" stroke="none" fill="#FFF100" fill-rule="nonzero" /><path id="1120" transform="matrix(1 0 0 -1 0 841)" d="M409.027 132.167L420.434 132.167L420.434 144.44L409.027 144.44z" stroke="none" fill="#FFF100" fill-rule="nonzero" /><path id="1123" transform="matrix(1 0 0 -1 0 841)" d="M420.185 132.167L422.912 132.167L422.912 144.44L420.185 144.44z" stroke="none" fill="#FFF100" fill-rule="nonzero" /><path id="1124" transform="matrix(1 0 0 -1 0 841)" d="M422.663 132.167L436.492 132.167L436.492 144.44L422.663 144.44z" stroke="none" fill="#FFF100" fill-rule="nonzero" /><path id="1128" transform="matrix(1 0 0 -1 0 841)" d="M436.243 132.167L438.97 132.167L438.97 144.44L436.243 144.44z" stroke="none" fill="#FFF100" fill-rule="nonzero" /><path id="1129" transform="matrix(1 0 0 -1 0 841)" d="M438.721 132.167L468.608 132.167L468.608 144.44L438.721 144.44z" stroke="none" fill="#FFF100" fill-rule="nonzero" /></g></g></svg>