<svg xmlns="http://www.w3.org/2000/svg" xmlns:xlink="http://www.w3.org/1999/xlink" id="body_289" preserveAspectRatio="xMinYMin meet" viewBox="0 0 793 1121"><defs><clipPath id="1"><path id="" clip-rule="evenodd" transform="matrix(1 0 0 1 0 0)" d="M0 841L0 -0.8900146L0 -0.8900146L595.276 -0.8900146L595.276 -0.8900146L595.276 841L595.276 841L0 841z" /></clipPath></defs><g transform="matrix(1.333333 0 0 1.333333 0 0)"><g clip-path="url(#1)"><path id="21" transform="matrix(1 0 0 -1 0 841)" d="M85.039 766.564L510.236 766.564" stroke="#000000" stroke-width="0.498" fill="none" /><path id="106" transform="matrix(1 0 0 -1 0 841)" d="M306.423 716.734L340.903 716.734" stroke="#000000" stroke-width="0.436" fill="none" /><path id="356" transform="matrix(1 0 0 -1 0 841)" d="M399.948 553.104L424.991 553.104L424.991 565.377L399.948 565.377z" stroke="none" fill="#FFF100" fill-rule="nonzero" /><path id="362" transform="matrix(1 0 0 -1 0 841)" d="M425.233 553.104L428.205 553.104L428.205 565.377L425.233 565.377z" stroke="none" fill="#FFF100" fill-rule="nonzero" /><path id="363" transform="matrix(1 0 0 -1 0 841)" d="M427.956 553.104L448.461 553.104L448.461 565.377L427.956 565.377z" stroke="none" fill="#FFF100" fill-rule="nonzero" /><path id="368" transform="matrix(1 0 0 -1 0 841)" d="M448.612 553.104L451.584 553.104L451.584 565.377L448.612 565.377z" stroke="none" fill="#FFF100" fill-rule="nonzero" /><path id="369" transform="matrix(1 0 0 -1 0 841)" d="M451.336 553.104L467.587 553.104L467.587 565.377L451.336 565.377z" stroke="none" fill="#FFF100" fill-rule="nonzero" /><path id="373" transform="matrix(1 0 0 -1 0 841)" d="M467.652 553.104L470.624 553.104L470.624 565.377L467.652 565.377z" stroke="none" fill="#FFF100" fill-rule="nonzero" /><path id="374" transform="matrix(1 0 0 -1 0 841)" d="M470.376 553.104L490.27 553.104L490.27 565.377L470.376 565.377z" stroke="none" fill="#FFF100" fill-rule="nonzero" /><path id="378" transform="matrix(1 0 0 -1 0 841)" d="M490.409 553.104L493.381 553.104L493.381 565.377L490.409 565.377z" stroke="none" fill="#FFF100" fill-rule="nonzero" /><path id="379" transform="matrix(1 0 0 -1 0 841)" d="M493.132 553.104L506.95 553.104L506.95 565.377L493.132 565.377z" stroke="none" fill="#FFF100" fill-rule="nonzero" /><path id="383" transform="matrix(1 0 0 -1 0 841)" d="M112.063 536.168L127.714 536.168L127.714 548.441L112.063 548.441z" stroke="none" fill="#FFF100" fill-rule="nonzero" /><path id="387" transform="matrix(1 0 0 -1 0 841)" d="M127.216 536.168L143.914 536.168L143.914 548.441L127.216 548.441z" stroke="none" fill="#FFF100" fill-rule="nonzero" /><path id="391" transform="matrix(1 0 0 -1 0 841)" d="M143.416 536.168L170.281 536.168L170.281 548.441L143.416 548.441z" stroke="none" fill="#FFF100" fill-rule="nonzero" /><path id="568" transform="matrix(1 0 0 -1 0 841)" d="M196.108 456.41L242.757 456.41" stroke="#000000" stroke-width="0.436" fill="none" /><path id="681" transform="matrix(1 0 0 -1 0 841)" d="M286.421 410.89L299.752 410.89" stroke="#000000" stroke-width="0.436" fill="none" /><path id="713" transform="matrix(1 0 0 -1 0 841)" d="M289.716 390.165L303.047 390.165" stroke="#000000" stroke-width="0.436" fill="none" /><path id="744" transform="matrix(1 0 0 -1 0 841)" d="M285.482 369.44L298.813 369.44" stroke="#000000" stroke-width="0.436" fill="none" /><path id="777" transform="matrix(1 0 0 -1 0 841)" d="M297.33 348.715L310.661 348.715" stroke="#000000" stroke-width="0.436" fill="none" /><path id="808" transform="matrix(1 0 0 -1 0 841)" d="M286.694 327.99L300.025 327.99" stroke="#000000" stroke-width="0.436" fill="none" /><path id="843" transform="matrix(1 0 0 -1 0 841)" d="M305.807 307.265L319.138 307.265" stroke="#000000" stroke-width="0.436" fill="none" /></g></g></svg>