<svg xmlns="http://www.w3.org/2000/svg" xmlns:xlink="http://www.w3.org/1999/xlink" id="body_253" preserveAspectRatio="xMinYMin meet" viewBox="0 0 793 1121"><defs><clipPath id="1"><path id="" clip-rule="evenodd" transform="matrix(1 0 0 1 0 0)" d="M0 841L0 -0.8900146L0 -0.8900146L595.276 -0.8900146L595.276 -0.8900146L595.276 841L595.276 841L0 841z" /></clipPath></defs><g transform="matrix(1.333333 0 0 1.333333 0 0)"><g clip-path="url(#1)"><path id="23" transform="matrix(1 0 0 -1 0 841)" d="M85.039 766.564L510.236 766.564" stroke="#000000" stroke-width="0.498" fill="none" /><path id="95" transform="matrix(1 0 0 -1 0 841)" d="M137.469 726.337L151.967 726.337" stroke="#000000" stroke-width="0.436" fill="none" /><path id="123" transform="matrix(1 0 0 -1 0 841)" d="M255.38 726.337L295.678 726.337" stroke="#000000" stroke-width="0.436" fill="none" /><path id="132" transform="matrix(1 0 0 -1 0 841)" d="M276.462 708.531L290.96 708.531" stroke="#000000" stroke-width="0.436" fill="none" /><path id="146" transform="matrix(1 0 0 -1 0 841)" d="M310.188 734.308L366.566 734.308" stroke="#000000" stroke-width="0.398" fill="none" /><path id="147" transform="matrix(1 0 0 -1 0 841)" d="M310.387 718.196L310.387 734.308" stroke="#000000" stroke-width="0.398" fill="none" /><path id="148" transform="matrix(1 0 0 -1 0 841)" d="M366.366 718.196L366.366 734.308" stroke="#000000" stroke-width="0.398" fill="none" /><path id="149" transform="matrix(1 0 0 -1 0 841)" d="M310.188 718.196L366.566 718.196" stroke="#000000" stroke-width="0.398" fill="none" /><path id="267" transform="matrix(1 0 0 -1 0 841)" d="M269.694 638.836L302.595 638.836" stroke="#000000" stroke-width="0.398" fill="none" /><path id="268" transform="matrix(1 0 0 -1 0 841)" d="M269.893 622.849L269.893 638.836" stroke="#000000" stroke-width="0.398" fill="none" /><path id="269" transform="matrix(1 0 0 -1 0 841)" d="M302.396 622.849L302.396 638.836" stroke="#000000" stroke-width="0.398" fill="none" /><path id="270" transform="matrix(1 0 0 -1 0 841)" d="M269.694 622.849L302.595 622.849" stroke="#000000" stroke-width="0.398" fill="none" /><path id="358" transform="matrix(1 0 0 -1 0 841)" d="M161.751 545.297L168.624 545.297" stroke="#000000" stroke-width="0.436" fill="none" /><path id="397" transform="matrix(1 0 0 -1 0 841)" d="M136.759 521.981L161.599 521.981" stroke="#000000" stroke-width="0.436" fill="none" /><path id="408" transform="matrix(1 0 0 -1 0 841)" d="M220.346 528.617L250.64 528.617" stroke="#000000" stroke-width="0.425" fill="none" /><path id="420" transform="matrix(1 0 0 -1 0 841)" d="M263.965 529.773L291.412 529.773" stroke="#000000" stroke-width="0.398" fill="none" /><path id="421" transform="matrix(1 0 0 -1 0 841)" d="M264.165 513.786L264.165 529.773" stroke="#000000" stroke-width="0.398" fill="none" /><path id="422" transform="matrix(1 0 0 -1 0 841)" d="M291.213 513.786L291.213 529.773" stroke="#000000" stroke-width="0.398" fill="none" /><path id="423" transform="matrix(1 0 0 -1 0 841)" d="M263.965 513.786L291.412 513.786" stroke="#000000" stroke-width="0.398" fill="none" /><path id="515" transform="matrix(1 0 0 -1 0 841)" d="M90.90784 423.698C 90.90784 428.3947 89.63864 432.2021 88.073 432.2021C 86.50735 432.2021 85.23816 428.3947 85.23816 423.698C 85.23816 419.0013 86.50735 415.1939 88.073 415.1939C 89.63864 415.1939 90.90784 419.0013 90.90784 423.698z" stroke="#000000" stroke-width="0.3985" fill="none" /><path id="516" transform="matrix(1 0 0 -1 0 841)" d="M374.3759 423.698C 374.3759 428.3947 373.1068 432.2021 371.5411 432.2021C 369.9754 432.2021 368.7062 428.3947 368.7062 423.698C 368.7062 419.0013 369.9754 415.1939 371.5411 415.1939C 373.1068 415.1939 374.3759 419.0013 374.3759 423.698z" stroke="#000000" stroke-width="0.3985" fill="none" /><path id="517" transform="matrix(1 0 0 -1 0 841)" d="M88.073 415.4776L371.5411 415.4776" stroke="#000000" stroke-width="0.3985" fill="none" /><path id="518" transform="matrix(1 0 0 -1 0 841)" d="M88.073 431.9184L371.5411 431.9184" stroke="#000000" stroke-width="0.3985" fill="none" /><path id="519" transform="matrix(1 0 0 -1 0 841)" d="M371.5411 416.1595L371.5411 431.2365" stroke="#000000" stroke-width="0.3985" fill="none" /><path id="520" transform="matrix(1 0 0 -1 0 841)" d="M373.9322 418.0324C 372.4975 417.6538 371.8201 416.8102 371.5411 415.9602C 371.2621 416.8102 370.5847 417.6538 369.1501 418.0324" stroke="#000000" stroke-width="0.3985" stroke-linecap="round" fill="none" /><path id="521" transform="matrix(1 0 0 -1 0 841)" d="M369.1501 429.3636C 370.5847 429.7421 371.2621 430.5858 371.5411 431.4358C 371.8201 430.5858 372.4975 429.7421 373.9322 429.3636" stroke="#000000" stroke-width="0.3985" stroke-linecap="round" fill="none" /><path id="533" transform="matrix(1 0 0 -1 0 841)" d="M88.4715 404.4224L371.1426 404.4224" stroke="#000000" stroke-width="0.3985" fill="none" /><path id="534" transform="matrix(1 0 0 -1 0 841)" d="M90.34449 402.0313C 89.9659 403.466 89.12224 404.1434 88.27225 404.4224C 89.12224 404.7013 89.9659 405.3788 90.34449 406.8134" stroke="#000000" stroke-width="0.3985" stroke-linecap="round" fill="none" /><path id="535" transform="matrix(1 0 0 -1 0 841)" d="M369.2696 406.8134C 369.6482 405.3788 370.4919 404.7013 371.3418 404.4224C 370.4919 404.1434 369.6482 403.466 369.2696 402.0313" stroke="#000000" stroke-width="0.3985" stroke-linecap="round" fill="none" /><path id="555" transform="matrix(1 0 0 -1 0 841)" d="M86.235 364.481L93.108 364.481" stroke="#000000" stroke-width="0.436" fill="none" /><path id="570" transform="matrix(1 0 0 -1 0 841)" d="M175.603 364.481L186.512 364.481" stroke="#000000" stroke-width="0.436" fill="none" /><path id="596" transform="matrix(1 0 0 -1 0 841)" d="M266.864 364.481L300.103 364.481" stroke="#000000" stroke-width="0.436" fill="none" /><path id="613" transform="matrix(1 0 0 -1 0 841)" d="M314.623 372.452L376.455 372.452" stroke="#000000" stroke-width="0.398" fill="none" /><path id="614" transform="matrix(1 0 0 -1 0 841)" d="M314.822 356.34L314.822 372.452" stroke="#000000" stroke-width="0.398" fill="none" /><path id="615" transform="matrix(1 0 0 -1 0 841)" d="M376.256 356.34L376.256 372.452" stroke="#000000" stroke-width="0.398" fill="none" /><path id="616" transform="matrix(1 0 0 -1 0 841)" d="M314.623 356.34L376.455 356.34" stroke="#000000" stroke-width="0.398" fill="none" /><path id="895" transform="matrix(1 0 0 -1 0 841)" d="M180.283 115.756L208.581 115.756" stroke="#000000" stroke-width="0.436" fill="none" /><path id="929" transform="matrix(1 0 0 -1 0 841)" d="M322.143 127.614L432.443 127.614" stroke="#000000" stroke-width="0.436" fill="none" /><path id="935" transform="matrix(1 0 0 -1 0 841)" d="M224.296 115.756L484.122 115.756" stroke="#000000" stroke-width="0.436" fill="none" /></g></g></svg>