<svg xmlns="http://www.w3.org/2000/svg" xmlns:xlink="http://www.w3.org/1999/xlink" id="body_211" preserveAspectRatio="xMinYMin meet" viewBox="0 0 1121 793"><defs><clipPath id="1"><path id="" clip-rule="evenodd" transform="matrix(1 0 0 1 0 0)" d="M0 -0.276001L841.89 -0.276001L841.89 -0.276001L841.89 595L841.89 595L3.644894E-14 595L3.644894E-14 595L0 -0.276001z" /></clipPath></defs><g transform="matrix(1.333333 0 0 1.333333 0 0)"><g clip-path="url(#1)"><path id="1" transform="matrix(1 0 0 -1 0 595)" d="M85.03899 487.457L802.415 487.457" stroke="#000000" stroke-width="0.398" fill="none" /><path id="15" transform="matrix(1 0 0 -1 0 595)" d="M85.03899 473.509L802.415 473.509" stroke="#000000" stroke-width="0.398" fill="none" /><path id="16" transform="matrix(1 0 0 -1 0 595)" d="M85.238 353.773L85.238 473.31" stroke="#000000" stroke-width="0.398" fill="none" /><g transform="matrix(0.07636363 -4.675769E-18 4.67577E-18 0.07636363 111.702 157.063)"><g transform="matrix(1 0 0 1 0 0)"><image x="0" y="0" xlink:href="img_308.png" width="2474" height="1100" /></g></g><path id="443" transform="matrix(1 0 0 -1 0 595)" d="M591.4369 353.7729L591.4369 473.3099" stroke="#000000" stroke-width="0.398" fill="none" /><path id="872" transform="matrix(1 0 0 -1 0 595)" d="M802.2159 353.7729L802.2159 473.3099" stroke="#000000" stroke-width="0.398" fill="none" /><path id="873" transform="matrix(1 0 0 -1 0 595)" d="M85.03896 353.5739L802.4149 353.5739" stroke="#000000" stroke-width="0.398" fill="none" /><path id="886" transform="matrix(1 0 0 -1 0 595)" d="M85.03896 339.6259L802.4149 339.6259" stroke="#000000" stroke-width="0.398" fill="none" /><path id="887" transform="matrix(1 0 0 -1 0 595)" d="M85.23797 249.163L85.23797 339.427" stroke="#000000" stroke-width="0.398" fill="none" /><g transform="matrix(0.08727273 -5.343736E-18 5.343737E-18 0.08727273 91.41497 253.5898)"><g transform="matrix(1 0 0 1 0 0)"><image x="0" y="0" xlink:href="img_309.png" width="2435" height="1057" /></g></g><path id="1150" transform="matrix(1 0 0 -1 0 595)" d="M591.4369 249.1629L591.4369 339.4269" stroke="#000000" stroke-width="0.398" fill="none" /><path id="1364" transform="matrix(1 0 0 -1 0 595)" d="M802.2159 249.1629L802.2159 339.4269" stroke="#000000" stroke-width="0.398" fill="none" /><path id="1365" transform="matrix(1 0 0 -1 0 595)" d="M85.03893 248.9639L802.4149 248.9639" stroke="#000000" stroke-width="0.398" fill="none" /><path id="1378" transform="matrix(1 0 0 -1 0 595)" d="M85.03893 235.0159L802.4149 235.0159" stroke="#000000" stroke-width="0.398" fill="none" /><path id="1379" transform="matrix(1 0 0 -1 0 595)" d="M85.23794 131.532L85.23794 234.817" stroke="#000000" stroke-width="0.398" fill="none" /><g transform="matrix(0.072 -4.408583E-18 4.408583E-18 0.072 91.41494 371.4921)"><g transform="matrix(1 0 0 1 0 0)"><image x="0" y="0" xlink:href="img_310.png" width="2577" height="1143" /></g></g><path id="1712" transform="matrix(1 0 0 -1 0 595)" d="M591.4368 131.5319L591.4368 234.8169" stroke="#000000" stroke-width="0.398" fill="none" /><path id="2032" transform="matrix(1 0 0 -1 0 595)" d="M802.2158 131.5319L802.2158 234.8169" stroke="#000000" stroke-width="0.398" fill="none" /><path id="2033" transform="matrix(1 0 0 -1 0 595)" d="M85.0389 131.3329L802.4149 131.3329" stroke="#000000" stroke-width="0.398" fill="none" /></g></g></svg>