<svg xmlns="http://www.w3.org/2000/svg" xmlns:xlink="http://www.w3.org/1999/xlink" id="body_260" preserveAspectRatio="xMinYMin meet" viewBox="0 0 793 1121"><defs><clipPath id="1"><path id="" clip-rule="evenodd" transform="matrix(1 0 0 1 0 0)" d="M0 841L0 -0.8900146L0 -0.8900146L595.276 -0.8900146L595.276 -0.8900146L595.276 841L595.276 841L0 841z" /></clipPath></defs><g transform="matrix(1.333333 0 0 1.333333 0 0)"><g clip-path="url(#1)"><path id="23" transform="matrix(1 0 0 -1 0 841)" d="M85.039 766.564L510.236 766.564" stroke="#000000" stroke-width="0.498" fill="none" /><path id="219" transform="matrix(1 0 0 -1 0 841)" d="M165.926 611.1914L126.2411 631.0339L194.2787 651.297L233.959 640.9559z" stroke="none" fill="#CCCCCC" fill-rule="nonzero" /><path id="220" transform="matrix(1 0 0 -1 0 841)" d="M126.2411 631.0339L126.2411 676.3889L194.2796 685.0742L194.2787 651.297z" stroke="none" fill="#BFBFBF" fill-rule="nonzero" /><path id="229" transform="matrix(1 0 0 -1 0 841)" d="M194.2796 685.0742L194.2787 651.297L233.959 640.9559L233.959 680.6412z" stroke="none" fill="#F2F2F2" fill-rule="nonzero" fill-opacity="0.2" /><path id="238" transform="matrix(1 0 0 -1 0 841)" d="M165.926 667.885L165.926 611.1914L126.2411 631.0339L126.2411 676.3889z" stroke="none" fill="#F2F2F2" fill-rule="nonzero" fill-opacity="0.4980392" /><path id="247" transform="matrix(1 0 0 -1 0 841)" d="M165.926 667.885L126.2411 676.3889L194.2796 685.0742L233.959 680.6412z" stroke="none" fill="#CCCCCC" fill-rule="nonzero" fill-opacity="0.2" /><path id="248" transform="matrix(1 0 0 -1 0 841)" d="M194.2796 685.0742L194.2787 651.297" stroke="#000000" stroke-width="0.79701" stroke-dasharray="3.750053,3.750053" fill="none" /><path id="249" transform="matrix(1 0 0 -1 0 841)" d="M126.2411 631.0339L194.2787 651.297" stroke="#000000" stroke-width="0.79701" stroke-dasharray="3.750053,3.750053" fill="none" /><path id="250" transform="matrix(1 0 0 -1 0 841)" d="M233.959 640.9559L194.2787 651.297" stroke="#000000" stroke-width="0.79701" stroke-dasharray="3.750053,3.750053" fill="none" /><path id="259" transform="matrix(1 0 0 -1 0 841)" d="M165.926 667.885L165.926 611.1914" stroke="#000000" stroke-width="0.79701" fill="none" /><path id="260" transform="matrix(1 0 0 -1 0 841)" d="M114.9017 678.2584L114.9017 631.4326" stroke="#000000" stroke-width="0.3985" fill="none" /><path id="261" transform="matrix(1 0 0 -1 0 841)" d="M112.5106 676.3854C 113.9453 676.764 114.6227 677.6077 114.9017 678.4576C 115.1806 677.6077 115.8581 676.764 117.2927 676.3854" stroke="#000000" stroke-width="0.3985" stroke-linecap="round" fill="none" /><path id="262" transform="matrix(1 0 0 -1 0 841)" d="M117.2927 633.3056C 115.8581 632.927 115.1806 632.0833 114.9017 631.2333C 114.6227 632.0833 113.9453 632.927 112.5106 633.3056" stroke="#000000" stroke-width="0.3985" stroke-linecap="round" fill="none" /><path id="273" transform="matrix(1 0 0 -1 0 841)" d="M120.9218 628.0107L157.071 608.5455" stroke="#000000" stroke-width="0.3985" fill="none" /><path id="274" transform="matrix(1 0 0 -1 0 841)" d="M121.4373 625.0176C 121.7841 626.4602 121.3625 627.4566 120.7464 628.1052C 121.627 627.9478 122.6909 628.1443 123.7044 629.2279" stroke="#000000" stroke-width="0.3984783" stroke-linecap="round" fill="none" /><path id="275" transform="matrix(1 0 0 -1 0 841)" d="M156.5555 611.5385C 156.2087 610.0959 156.6303 609.0995 157.2464 608.451C 156.3658 608.6083 155.3019 608.4119 154.2885 607.3282" stroke="#000000" stroke-width="0.3984783" stroke-linecap="round" fill="none" /><path id="286" transform="matrix(1 0 0 -1 0 841)" d="M239.2639 635.6907L171.9592 605.6844" stroke="#000000" stroke-width="0.3985" fill="none" /><path id="287" transform="matrix(1 0 0 -1 0 841)" d="M236.5797 637.1118C 237.5096 635.9557 238.556 635.6805 239.4459 635.7719C 238.7832 635.171 238.2885 634.2087 238.5269 632.7443" stroke="#000000" stroke-width="0.3984862" stroke-linecap="round" fill="none" /><path id="288" transform="matrix(1 0 0 -1 0 841)" d="M174.6434 604.2632C 173.7135 605.4194 172.6671 605.6945 171.7772 605.6032C 172.4399 606.2041 172.9346 607.1663 172.6962 608.6307" stroke="#000000" stroke-width="0.3984862" stroke-linecap="round" fill="none" /><path id="298" transform="matrix(1 0 0 -1 0 841)" d="M126.2411 631.0339L126.2411 676.3889" stroke="#000000" stroke-width="0.79701" fill="none" /><path id="299" transform="matrix(1 0 0 -1 0 841)" d="M233.959 640.9559L233.959 680.6412" stroke="#000000" stroke-width="0.79701" fill="none" /><path id="300" transform="matrix(1 0 0 -1 0 841)" d="M165.926 667.885L126.2411 676.3889" stroke="#000000" stroke-width="0.79701" fill="none" /><path id="301" transform="matrix(1 0 0 -1 0 841)" d="M165.926 667.885L233.959 680.6412" stroke="#000000" stroke-width="0.79701" fill="none" /><path id="302" transform="matrix(1 0 0 -1 0 841)" d="M165.926 611.1914L126.2411 631.0339" stroke="#000000" stroke-width="0.79701" fill="none" /><path id="303" transform="matrix(1 0 0 -1 0 841)" d="M165.926 611.1914L233.959 640.9559" stroke="#000000" stroke-width="0.79701" fill="none" /><path id="304" transform="matrix(1 0 0 -1 0 841)" d="M126.2411 676.3889L194.2796 685.0742" stroke="#000000" stroke-width="0.79701" fill="none" /><path id="305" transform="matrix(1 0 0 -1 0 841)" d="M233.959 680.6412L194.2796 685.0742" stroke="#000000" stroke-width="0.79701" fill="none" /><path id="377" transform="matrix(1 0 0 -1 0 841)" d="M164.758 555.177L179.256 555.177" stroke="#000000" stroke-width="0.436" fill="none" /><path id="405" transform="matrix(1 0 0 -1 0 841)" d="M282.68 555.177L322.978 555.177" stroke="#000000" stroke-width="0.436" fill="none" /><path id="414" transform="matrix(1 0 0 -1 0 841)" d="M303.762 537.372L318.26 537.372" stroke="#000000" stroke-width="0.436" fill="none" /><path id="428" transform="matrix(1 0 0 -1 0 841)" d="M337.499 571.299L417.749 571.299L417.749 575.284L337.499 575.284z" stroke="none" fill="#000000" fill-rule="nonzero" /><path id="429" transform="matrix(1 0 0 -1 0 841)" d="M337.499 536.894L341.484 536.894L341.484 573.292L337.499 573.292z" stroke="none" fill="#000000" fill-rule="nonzero" /><path id="430" transform="matrix(1 0 0 -1 0 841)" d="M413.764 536.894L417.749 536.894L417.749 573.292L413.764 573.292z" stroke="none" fill="#000000" fill-rule="nonzero" /><path id="431" transform="matrix(1 0 0 -1 0 841)" d="M337.499 534.901L417.749 534.901L417.749 538.886L337.499 538.886z" stroke="none" fill="#000000" fill-rule="nonzero" /><path id="541" transform="matrix(1 0 0 -1 0 841)" d="M296.966 469.004L353.74 469.004L353.74 472.989L296.966 472.989z" stroke="none" fill="#000000" fill-rule="nonzero" /><path id="542" transform="matrix(1 0 0 -1 0 841)" d="M296.966 434.724L300.951 434.724L300.951 470.997L296.966 470.997z" stroke="none" fill="#000000" fill-rule="nonzero" /><path id="543" transform="matrix(1 0 0 -1 0 841)" d="M349.755 434.724L353.74 434.724L353.74 470.997L349.755 470.997z" stroke="none" fill="#000000" fill-rule="nonzero" /><path id="544" transform="matrix(1 0 0 -1 0 841)" d="M296.966 432.731L353.74 432.731L353.74 436.716L296.966 436.716z" stroke="none" fill="#000000" fill-rule="nonzero" /><path id="625" transform="matrix(1 0 0 -1 0 841)" d="M189.024 365.785L195.897 365.785" stroke="#000000" stroke-width="0.436" fill="none" /><path id="664" transform="matrix(1 0 0 -1 0 841)" d="M164.032 334.651L188.872 334.651" stroke="#000000" stroke-width="0.436" fill="none" /><path id="675" transform="matrix(1 0 0 -1 0 841)" d="M247.619 341.286L277.913 341.286" stroke="#000000" stroke-width="0.425" fill="none" /><path id="687" transform="matrix(1 0 0 -1 0 841)" d="M291.238 350.593L342.558 350.593L342.558 354.578L291.238 354.578z" stroke="none" fill="#000000" fill-rule="nonzero" /><path id="688" transform="matrix(1 0 0 -1 0 841)" d="M291.238 316.313L295.223 316.313L295.223 352.586L291.238 352.586z" stroke="none" fill="#000000" fill-rule="nonzero" /><path id="689" transform="matrix(1 0 0 -1 0 841)" d="M338.573 316.313L342.558 316.313L342.558 352.586L338.573 352.586z" stroke="none" fill="#000000" fill-rule="nonzero" /><path id="690" transform="matrix(1 0 0 -1 0 841)" d="M291.238 314.32L342.558 314.32L342.558 318.305L291.238 318.305z" stroke="none" fill="#000000" fill-rule="nonzero" /><path id="774" transform="matrix(1 0 0 -1 0 841)" d="M118.1808 253.671C 118.1808 258.3678 116.9116 262.1751 115.346 262.1751C 113.7804 262.1751 112.5112 258.3678 112.5112 253.671C 112.5112 248.9743 113.7804 245.1669 115.346 245.1669C 116.9116 245.1669 118.1808 248.9743 118.1808 253.671z" stroke="#000000" stroke-width="0.3985" fill="none" /><path id="775" transform="matrix(1 0 0 -1 0 841)" d="M401.649 253.671C 401.649 258.3678 400.3798 262.1751 398.8141 262.1751C 397.2484 262.1751 395.9792 258.3678 395.9792 253.671C 395.9792 248.9743 397.2484 245.1669 398.8141 245.1669C 400.3798 245.1669 401.649 248.9743 401.649 253.671z" stroke="#000000" stroke-width="0.3985" fill="none" /><path id="776" transform="matrix(1 0 0 -1 0 841)" d="M115.346 245.4506L398.8141 245.4506" stroke="#000000" stroke-width="0.3985" fill="none" /><path id="777" transform="matrix(1 0 0 -1 0 841)" d="M115.346 261.8914L398.8141 261.8914" stroke="#000000" stroke-width="0.3985" fill="none" /><path id="778" transform="matrix(1 0 0 -1 0 841)" d="M398.8141 246.1325L398.8141 261.2095" stroke="#000000" stroke-width="0.3985" fill="none" /><path id="779" transform="matrix(1 0 0 -1 0 841)" d="M401.2051 248.0054C 399.7705 247.6268 399.093 246.7832 398.8141 245.9332C 398.5351 246.7832 397.8577 247.6268 396.423 248.0054" stroke="#000000" stroke-width="0.3985" stroke-linecap="round" fill="none" /><path id="780" transform="matrix(1 0 0 -1 0 841)" d="M396.423 259.3365C 397.8577 259.7151 398.5351 260.5588 398.8141 261.4088C 399.093 260.5588 399.7705 259.7151 401.2051 259.3365" stroke="#000000" stroke-width="0.3985" stroke-linecap="round" fill="none" /><path id="792" transform="matrix(1 0 0 -1 0 841)" d="M115.7445 234.3954L398.4156 234.3954" stroke="#000000" stroke-width="0.3985" fill="none" /><path id="793" transform="matrix(1 0 0 -1 0 841)" d="M117.6175 232.0043C 117.2389 233.439 116.3952 234.1164 115.5452 234.3954C 116.3952 234.6743 117.2389 235.3518 117.6175 236.7864" stroke="#000000" stroke-width="0.3985" stroke-linecap="round" fill="none" /><path id="794" transform="matrix(1 0 0 -1 0 841)" d="M396.5426 236.7864C 396.9211 235.3518 397.7648 234.6743 398.6148 234.3954C 397.7648 234.1164 396.9211 233.439 396.5426 232.0043" stroke="#000000" stroke-width="0.3985" stroke-linecap="round" fill="none" /><path id="814" transform="matrix(1 0 0 -1 0 841)" d="M113.508 187.373L120.381 187.373" stroke="#000000" stroke-width="0.436" fill="none" /><path id="829" transform="matrix(1 0 0 -1 0 841)" d="M202.875 187.373L213.784 187.373" stroke="#000000" stroke-width="0.436" fill="none" /><path id="855" transform="matrix(1 0 0 -1 0 841)" d="M294.136 187.373L327.375 187.373" stroke="#000000" stroke-width="0.436" fill="none" /><path id="872" transform="matrix(1 0 0 -1 0 841)" d="M341.896 203.495L427.601 203.495L427.601 207.48L341.896 207.48z" stroke="none" fill="#000000" fill-rule="nonzero" /><path id="873" transform="matrix(1 0 0 -1 0 841)" d="M341.896 169.09L345.881 169.09L345.881 205.488L341.896 205.488z" stroke="none" fill="#000000" fill-rule="nonzero" /><path id="874" transform="matrix(1 0 0 -1 0 841)" d="M423.616 169.09L427.601 169.09L427.601 205.488L423.616 205.488z" stroke="none" fill="#000000" fill-rule="nonzero" /><path id="875" transform="matrix(1 0 0 -1 0 841)" d="M341.896 167.097L427.601 167.097L427.601 171.082L341.896 171.082z" stroke="none" fill="#000000" fill-rule="nonzero" /></g></g></svg>