<svg xmlns="http://www.w3.org/2000/svg" xmlns:xlink="http://www.w3.org/1999/xlink" id="body_270" preserveAspectRatio="xMinYMin meet" viewBox="0 0 793 1121"><defs><clipPath id="1"><path id="" clip-rule="evenodd" transform="matrix(1 0 0 1 0 0)" d="M0 841L0 -0.8900146L0 -0.8900146L595.276 -0.8900146L595.276 -0.8900146L595.276 841L595.276 841L0 841z" /></clipPath></defs><g transform="matrix(1.333333 0 0 1.333333 0 0)"><g clip-path="url(#1)"><path id="23" transform="matrix(1 0 0 -1 0 841)" d="M85.039 766.564L510.236 766.564" stroke="#000000" stroke-width="0.498" fill="none" /><path id="54" transform="matrix(1 0 0 -1 0 841)" d="M113.508 710.041L129.828 710.041" stroke="#000000" stroke-width="0.436" fill="none" /><path id="69" transform="matrix(1 0 0 -1 0 841)" d="M201.122 710.041L214.453 710.041" stroke="#000000" stroke-width="0.436" fill="none" /><path id="85" transform="matrix(1 0 0 -1 0 841)" d="M287.478 710.041L303.798 710.041" stroke="#000000" stroke-width="0.436" fill="none" /><path id="89" transform="matrix(1 0 0 -1 0 841)" d="M256.843 725.398L308.38 725.398" stroke="#000000" stroke-width="0.398" fill="none" /><path id="90" transform="matrix(1 0 0 -1 0 841)" d="M257.042 694.417L257.042 725.398" stroke="#000000" stroke-width="0.398" fill="none" /><path id="91" transform="matrix(1 0 0 -1 0 841)" d="M308.181 694.417L308.181 725.398" stroke="#000000" stroke-width="0.398" fill="none" /><path id="92" transform="matrix(1 0 0 -1 0 841)" d="M256.843 694.417L308.38 694.417" stroke="#000000" stroke-width="0.398" fill="none" /><path id="212" transform="matrix(1 0 0 -1 0 841)" d="M184.399 630.816L231.048 630.816" stroke="#000000" stroke-width="0.436" fill="none" /><path id="249" transform="matrix(1 0 0 -1 0 841)" d="M353.245 638.787L404.813 638.787" stroke="#000000" stroke-width="0.398" fill="none" /><path id="250" transform="matrix(1 0 0 -1 0 841)" d="M353.444 622.784L353.444 638.787" stroke="#000000" stroke-width="0.398" fill="none" /><path id="251" transform="matrix(1 0 0 -1 0 841)" d="M404.614 622.784L404.614 638.787" stroke="#000000" stroke-width="0.398" fill="none" /><path id="252" transform="matrix(1 0 0 -1 0 841)" d="M353.245 622.784L404.813 622.784" stroke="#000000" stroke-width="0.398" fill="none" /><path id="457" transform="matrix(1 0 0 -1 0 841)" d="M365.64 564.927L419.596 564.927" stroke="#000000" stroke-width="0.398" fill="none" /><path id="458" transform="matrix(1 0 0 -1 0 841)" d="M365.84 547.702L365.84 564.927" stroke="#000000" stroke-width="0.398" fill="none" /><path id="459" transform="matrix(1 0 0 -1 0 841)" d="M419.397 547.702L419.397 564.927" stroke="#000000" stroke-width="0.398" fill="none" /><path id="460" transform="matrix(1 0 0 -1 0 841)" d="M365.64 547.702L419.596 547.702" stroke="#000000" stroke-width="0.398" fill="none" /><path id="680" transform="matrix(1 0 0 -1 0 841)" d="M336.134 453.397L368.796 453.397" stroke="#000000" stroke-width="0.436" fill="none" /><path id="687" transform="matrix(1 0 0 -1 0 841)" d="M379.672 453.397L439.598 453.397" stroke="#000000" stroke-width="0.436" fill="none" /><path id="728" transform="matrix(1 0 0 -1 0 841)" d="M228.254 422.05L260.916 422.05" stroke="#000000" stroke-width="0.436" fill="none" /><path id="735" transform="matrix(1 0 0 -1 0 841)" d="M271.791 422.05L331.717 422.05" stroke="#000000" stroke-width="0.436" fill="none" /><path id="918" transform="matrix(1 0 0 -1 0 841)" d="M314.041 360.843L383.226 360.843" stroke="#000000" stroke-width="0.398" fill="none" /><path id="919" transform="matrix(1 0 0 -1 0 841)" d="M314.241 346.847L314.241 360.843" stroke="#000000" stroke-width="0.398" fill="none" /><path id="920" transform="matrix(1 0 0 -1 0 841)" d="M383.027 346.847L383.027 360.843" stroke="#000000" stroke-width="0.398" fill="none" /><path id="921" transform="matrix(1 0 0 -1 0 841)" d="M314.041 346.847L383.226 346.847" stroke="#000000" stroke-width="0.398" fill="none" /><path id="1132" transform="matrix(1 0 0 -1 0 841)" d="M112.312 282.43L155.446 282.43" stroke="#000000" stroke-width="0.398" fill="none" /><path id="1133" transform="matrix(1 0 0 -1 0 841)" d="M112.511 265.205L112.511 282.43" stroke="#000000" stroke-width="0.398" fill="none" /><path id="1134" transform="matrix(1 0 0 -1 0 841)" d="M155.247 265.205L155.247 282.43" stroke="#000000" stroke-width="0.398" fill="none" /><path id="1135" transform="matrix(1 0 0 -1 0 841)" d="M112.312 265.205L155.446 265.205" stroke="#000000" stroke-width="0.398" fill="none" /><path id="1353" transform="matrix(1 0 0 -1 0 841)" d="M301.358 209.015L344.492 209.015" stroke="#000000" stroke-width="0.398" fill="none" /><path id="1354" transform="matrix(1 0 0 -1 0 841)" d="M301.558 191.79L301.558 209.015" stroke="#000000" stroke-width="0.398" fill="none" /><path id="1355" transform="matrix(1 0 0 -1 0 841)" d="M344.293 191.79L344.293 209.015" stroke="#000000" stroke-width="0.398" fill="none" /><path id="1356" transform="matrix(1 0 0 -1 0 841)" d="M301.358 191.79L344.492 191.79" stroke="#000000" stroke-width="0.398" fill="none" /><path id="1574" transform="matrix(1 0 0 -1 0 841)" d="M204.694 89.891L218.025 89.891" stroke="#000000" stroke-width="0.436" fill="none" /></g></g></svg>