<svg xmlns="http://www.w3.org/2000/svg" xmlns:xlink="http://www.w3.org/1999/xlink" id="body_240" preserveAspectRatio="xMinYMin meet" viewBox="0 0 1121 793"><defs><clipPath id="1"><path id="" clip-rule="evenodd" transform="matrix(1 0 0 1 0 0)" d="M0 -0.276001L841.89 -0.276001L841.89 -0.276001L841.89 595L841.89 595L3.644894E-14 595L3.644894E-14 595L0 -0.276001z" /></clipPath></defs><g transform="matrix(1.333333 0 0 1.333333 0 0)"><g clip-path="url(#1)"><path id="1" transform="matrix(1 0 0 -1 0 595)" d="M85.03899 482.201L802.415 482.201" stroke="#000000" stroke-width="0.398" fill="none" /><path id="18" transform="matrix(1 0 0 -1 0 595)" d="M85.03899 468.254L802.415 468.254" stroke="#000000" stroke-width="0.398" fill="none" /><path id="19" transform="matrix(1 0 0 -1 0 595)" d="M85.238 379.247L85.238 468.054" stroke="#000000" stroke-width="0.398" fill="none" /><g transform="matrix(0.05454545 -3.339835E-18 3.339836E-18 0.05454546 104.333 148.4439)"><g transform="matrix(1 0 0 1 0 0)"><image x="0" y="0" xlink:href="img_350.png" width="3424" height="1234" /></g></g><path id="387" transform="matrix(1 0 0 -1 0 595)" d="M591.4369 379.2469L591.4369 468.054" stroke="#000000" stroke-width="0.398" fill="none" /><path id="619" transform="matrix(1 0 0 -1 0 595)" d="M802.2159 379.2469L802.2159 468.054" stroke="#000000" stroke-width="0.398" fill="none" /><path id="620" transform="matrix(1 0 0 -1 0 595)" d="M85.03896 379.0479L802.4149 379.0479" stroke="#000000" stroke-width="0.398" fill="none" /><path id="633" transform="matrix(1 0 0 -1 0 595)" d="M85.03896 365.0999L802.4149 365.0999" stroke="#000000" stroke-width="0.398" fill="none" /><path id="634" transform="matrix(1 0 0 -1 0 595)" d="M85.23797 272.494L85.23797 364.9009" stroke="#000000" stroke-width="0.398" fill="none" /><g transform="matrix(0.05454545 -3.339835E-18 3.339836E-18 0.05454545 91.41497 228.5788)"><g transform="matrix(1 0 0 1 0 0)"><image x="0" y="0" xlink:href="img_351.png" width="3606" height="1722" /></g></g><path id="944" transform="matrix(1 0 0 -1 0 595)" d="M591.4369 272.4939L591.4369 364.9009" stroke="#000000" stroke-width="0.398" fill="none" /><path id="1053" transform="matrix(1 0 0 -1 0 595)" d="M802.2159 272.4939L802.2159 364.9009" stroke="#000000" stroke-width="0.398" fill="none" /><path id="1054" transform="matrix(1 0 0 -1 0 595)" d="M85.03893 272.2949L802.4149 272.2949" stroke="#000000" stroke-width="0.398" fill="none" /><path id="1067" transform="matrix(1 0 0 -1 0 595)" d="M85.03893 258.3469L802.4149 258.3469" stroke="#000000" stroke-width="0.398" fill="none" /><path id="1068" transform="matrix(1 0 0 -1 0 595)" d="M85.23794 136.7869L85.23794 258.1469" stroke="#000000" stroke-width="0.398" fill="none" /><g transform="matrix(0.07636364 -4.67577E-18 4.675771E-18 0.07636365 91.41494 350.9221)"><g transform="matrix(1 0 0 1 0 0)"><image x="0" y="0" xlink:href="img_352.png" width="2812" height="1405" /></g></g><path id="1636" transform="matrix(1 0 0 -1 0 595)" d="M591.4368 136.7869L591.4368 258.1469" stroke="#000000" stroke-width="0.398" fill="none" /><path id="1754" transform="matrix(1 0 0 -1 0 595)" d="M802.2158 136.7869L802.2158 258.1469" stroke="#000000" stroke-width="0.398" fill="none" /><path id="1755" transform="matrix(1 0 0 -1 0 595)" d="M85.0389 136.5879L802.4149 136.5879" stroke="#000000" stroke-width="0.398" fill="none" /></g></g></svg>