<svg xmlns="http://www.w3.org/2000/svg" xmlns:xlink="http://www.w3.org/1999/xlink" id="body_361" preserveAspectRatio="xMinYMin meet" viewBox="0 0 793 1121"><defs><clipPath id="1"><path id="" clip-rule="evenodd" transform="matrix(1 0 0 1 0 0)" d="M0 841L0 -0.8900146L0 -0.8900146L595.276 -0.8900146L595.276 -0.8900146L595.276 841L595.276 841L0 841z" /></clipPath></defs><g transform="matrix(1.333333 0 0 1.333333 0 0)"><g clip-path="url(#1)"><path id="22" transform="matrix(1 0 0 -1 0 841)" d="M85.039 766.564L510.236 766.564" stroke="#000000" stroke-width="0.498" fill="none" /><path id="68" transform="matrix(1 0 0 -1 0 841)" d="M389.714 756.378L416.485 756.378" stroke="#000000" stroke-width="0.398" fill="none" /><path id="69" transform="matrix(1 0 0 -1 0 841)" d="M389.913 742.578L389.913 756.378" stroke="#000000" stroke-width="0.398" fill="none" /><path id="70" transform="matrix(1 0 0 -1 0 841)" d="M416.285 742.578L416.285 756.378" stroke="#000000" stroke-width="0.398" fill="none" /><path id="71" transform="matrix(1 0 0 -1 0 841)" d="M389.714 742.578L416.485 742.578" stroke="#000000" stroke-width="0.398" fill="none" /><path id="236" transform="matrix(1 0 0 -1 0 841)" d="M243.507 569.519C 299.6335 668.7328 300.7677 668.7328 356.8942 569.519" stroke="#000000" stroke-width="0.3985" fill="none" /><path id="237" transform="matrix(1 0 0 -1 0 841)" d="M279.9009 647.2037C 279.9009 646.0825 288.9893 645.1736 300.2006 645.1736C 311.4119 645.1736 320.5003 646.0825 320.5003 647.2037L320.5003 647.2037L320.5003 665.3038C 320.5003 664.1826 311.4119 663.2737 300.2006 663.2737C 288.9893 663.2737 279.9009 664.1826 279.9009 665.3038z" stroke="none" fill="#E6E6FF" fill-rule="nonzero" /><path id="238" transform="matrix(1 0 0 -1 0 841)" d="M279.9009 665.3038C 279.9009 666.425 288.9893 667.3339 300.2006 667.3339C 311.4119 667.3339 320.5003 666.425 320.5003 665.3038C 320.5003 664.1826 311.4119 663.2737 300.2006 663.2737C 288.9893 663.2737 279.9009 664.1826 279.9009 665.3038z" stroke="none" fill="#F6ADCE" fill-rule="nonzero" /><path id="239" transform="matrix(1 0 0 -1 0 841)" d="M279.9009 665.3038C 279.9009 664.1826 288.9893 663.2737 300.2006 663.2737C 311.4119 663.2737 320.5003 664.1826 320.5003 665.3038M279.9009 647.2037C 279.9009 646.0825 288.9893 645.1736 300.2006 645.1736C 311.4119 645.1736 320.5003 646.0825 320.5003 647.2037L320.5003 647.2037L320.5003 665.3038C 320.5003 666.425 311.4119 667.3339 300.2006 667.3339C 288.9893 667.3339 279.9009 666.425 279.9009 665.3038z" stroke="#800080" stroke-width="0.3985" fill="none" /><path id="247" transform="matrix(1 0 0 -1 0 841)" d="M280.1322 662.6435C 280.1322 661.535 289.117 660.6365 300.2006 660.6365C 311.2842 660.6365 320.2691 661.535 320.2691 662.6435L320.2691 662.6435L320.2691 678.1804C 320.2691 677.072 311.2842 676.1735 300.2006 676.1735C 289.117 676.1735 280.1322 677.072 280.1322 678.1804z" stroke="none" fill="#FFFFFF" fill-rule="nonzero" /><path id="248" transform="matrix(1 0 0 -1 0 841)" d="M280.1322 678.1804C 280.1322 679.2888 289.117 680.1874 300.2006 680.1874C 311.2842 680.1874 320.2691 679.2888 320.2691 678.1804C 320.2691 677.072 311.2842 676.1735 300.2006 676.1735C 289.117 676.1735 280.1322 677.072 280.1322 678.1804z" stroke="none" fill="#FFFFFF" fill-rule="nonzero" /><path id="249" transform="matrix(1 0 0 -1 0 841)" d="M280.1322 678.1804C 280.1322 677.072 289.117 676.1735 300.2006 676.1735C 311.2842 676.1735 320.2691 677.072 320.2691 678.1804M280.1322 662.6435C 280.1322 661.535 289.117 660.6365 300.2006 660.6365C 311.2842 660.6365 320.2691 661.535 320.2691 662.6435L320.2691 662.6435L320.2691 678.1804C 320.2691 679.2888 311.2842 680.1874 300.2006 680.1874C 289.117 680.1874 280.1322 679.2888 280.1322 678.1804z" stroke="#800080" stroke-width="0.3985" fill="none" /><g transform="matrix(0.1466 0 0 0.1466 115.948 240.2798)"><g transform="matrix(1 0 0 1 0 0)"><image x="0" y="0" xlink:href="img_507.png" width="580" height="387" /></g></g><g transform="matrix(0.18834 0 0 0.18834 130.121 278.4313)"><g transform="matrix(1 0 0 1 0 0)"><image x="0" y="0" xlink:href="img_508.png" width="301" height="167" /></g></g><path id="257" transform="matrix(1 0 0 -1 0 841)" d="M158.4666 544.0071L158.4666 569.519" stroke="#000000" stroke-width="1.59404" fill="none" /><path id="258" transform="matrix(1 0 0 -1 0 841)" d="M150.5295 587.3776L150.5295 657.3942" stroke="#000000" stroke-width="1.59404" fill="none" /><path id="259" transform="matrix(1 0 0 -1 0 841)" d="M150.5295 657.3942L275.929 657.3942" stroke="#000000" stroke-width="1.59404" fill="none" /><path id="260" transform="matrix(1 0 0 -1 0 841)" d="M273.2191 661.9449C 273.8598 659.2145 275.2876 657.9251 276.726 657.3942C 275.2876 656.8633 273.8598 655.574 273.2191 652.8435" stroke="#000000" stroke-width="1.59404" stroke-linecap="round" fill="none" /><path id="261" transform="matrix(1 0 0 -1 0 841)" d="M150.5295 657.3942L275.929 657.3942" stroke="#000000" stroke-width="1.59404" fill="none" /><path id="262" transform="matrix(1 0 0 -1 0 841)" d="M273.2191 661.9449C 273.8598 659.2145 275.2876 657.9251 276.726 657.3942C 275.2876 656.8633 273.8598 655.574 273.2191 652.8435" stroke="#000000" stroke-width="1.59404" stroke-linecap="round" fill="none" /><path id="263" transform="matrix(1 0 0 -1 0 841)" d="M192.4827 541.1722L314.374 541.1722" stroke="#000000" stroke-width="0.3985" stroke-dasharray="7.500201,7.500201" fill="none" /><path id="264" transform="matrix(1 0 0 -1 0 841)" d="M300.2006 541.5707L300.2006 661.2476" stroke="#000000" stroke-width="0.3985" fill="none" /><path id="265" transform="matrix(1 0 0 -1 0 841)" d="M302.5917 543.4437C 301.157 543.0651 300.4796 542.2214 300.2006 541.3714C 299.9217 542.2214 299.2442 543.0651 297.8096 543.4437" stroke="#000000" stroke-width="0.3985" stroke-linecap="round" fill="none" /><path id="266" transform="matrix(1 0 0 -1 0 841)" d="M297.8096 659.3746C 299.2442 659.7532 299.9217 660.5969 300.2006 661.4468C 300.4796 660.5969 301.157 659.7532 302.5917 659.3746" stroke="#000000" stroke-width="0.3985" stroke-linecap="round" fill="none" /><path id="347" transform="matrix(1 0 0 -1 0 841)" d="M206.449 468.059L277.836 468.059" stroke="#000000" stroke-width="0.436" fill="none" /><path id="374" transform="matrix(1 0 0 -1 0 841)" d="M292.356 475.971L394.294 475.971" stroke="#000000" stroke-width="0.398" fill="none" /><path id="375" transform="matrix(1 0 0 -1 0 841)" d="M292.555 459.919L292.555 475.971" stroke="#000000" stroke-width="0.398" fill="none" /><path id="376" transform="matrix(1 0 0 -1 0 841)" d="M394.095 459.919L394.095 475.971" stroke="#000000" stroke-width="0.398" fill="none" /><path id="377" transform="matrix(1 0 0 -1 0 841)" d="M292.356 459.919L394.294 459.919" stroke="#000000" stroke-width="0.398" fill="none" /><path id="539" transform="matrix(1 0 0 -1 0 841)" d="M201.267 370.819L272.654 370.819" stroke="#000000" stroke-width="0.436" fill="none" /><path id="566" transform="matrix(1 0 0 -1 0 841)" d="M287.174 378.578L389.112 378.578" stroke="#000000" stroke-width="0.398" fill="none" /><path id="567" transform="matrix(1 0 0 -1 0 841)" d="M287.373 362.678L287.373 378.578" stroke="#000000" stroke-width="0.398" fill="none" /><path id="568" transform="matrix(1 0 0 -1 0 841)" d="M388.913 362.678L388.913 378.578" stroke="#000000" stroke-width="0.398" fill="none" /><path id="569" transform="matrix(1 0 0 -1 0 841)" d="M287.174 362.678L389.112 362.678" stroke="#000000" stroke-width="0.398" fill="none" /><path id="610" transform="matrix(1 0 0 -1 0 841)" d="M172.203 323.283L191.588 323.283" stroke="#000000" stroke-width="0.436" fill="none" /><path id="628" transform="matrix(1 0 0 -1 0 841)" d="M206.108 331.255L298.61 331.255" stroke="#000000" stroke-width="0.398" fill="none" /><path id="629" transform="matrix(1 0 0 -1 0 841)" d="M206.307 315.142L206.307 331.254" stroke="#000000" stroke-width="0.398" fill="none" /><path id="630" transform="matrix(1 0 0 -1 0 841)" d="M298.411 315.142L298.411 331.254" stroke="#000000" stroke-width="0.398" fill="none" /><path id="631" transform="matrix(1 0 0 -1 0 841)" d="M206.108 315.142L298.61 315.142" stroke="#000000" stroke-width="0.398" fill="none" /><g transform="matrix(0.06 0 0 0.06 112.312 600.706)"><g transform="matrix(1 0 0 1 0 0)"><image x="0" y="0" xlink:href="img_449.png" width="3009" height="713" /></g></g><g transform="matrix(0.06981818 0 0 0.06981815 112.312 650.1517)"><g transform="matrix(1 0 0 1 0 0)"><image x="0" y="0" xlink:href="img_509.png" width="1585" height="521" /></g></g><path id="758" transform="matrix(1 0 0 -1 0 841)" d="M251.883 157.2L291.265 157.2" stroke="#000000" stroke-width="0.436" fill="none" /><path id="774" transform="matrix(1 0 0 -1 0 841)" d="M333.654 165.111L360.425 165.111" stroke="#000000" stroke-width="0.398" fill="none" /><path id="775" transform="matrix(1 0 0 -1 0 841)" d="M333.854 151.116L333.854 165.112" stroke="#000000" stroke-width="0.398" fill="none" /><path id="776" transform="matrix(1 0 0 -1 0 841)" d="M360.226 151.116L360.226 165.112" stroke="#000000" stroke-width="0.398" fill="none" /><path id="777" transform="matrix(1 0 0 -1 0 841)" d="M333.654 151.116L360.425 151.116" stroke="#000000" stroke-width="0.398" fill="none" /></g></g></svg>