<svg xmlns="http://www.w3.org/2000/svg" xmlns:xlink="http://www.w3.org/1999/xlink" id="body_365" preserveAspectRatio="xMinYMin meet" viewBox="0 0 793 1121"><defs><clipPath id="1"><path id="" clip-rule="evenodd" transform="matrix(1 0 0 1 0 0)" d="M0 841L0 -0.8900146L0 -0.8900146L595.276 -0.8900146L595.276 -0.8900146L595.276 841L595.276 841L0 841z" /></clipPath></defs><g transform="matrix(1.333333 0 0 1.333333 0 0)"><g clip-path="url(#1)"><path id="22" transform="matrix(1 0 0 -1 0 841)" d="M85.039 766.564L510.236 766.564" stroke="#000000" stroke-width="0.498" fill="none" /><path id="113" transform="matrix(1 0 0 -1 0 841)" d="M140.8563 688.0385L220.2274 688.0385" stroke="#000000" stroke-width="0.3985" fill="none" /><path id="114" transform="matrix(1 0 0 -1 0 841)" d="M225.8967 682.3693L225.8967 623.2393" stroke="#000000" stroke-width="0.3985" fill="none" /><path id="115" transform="matrix(1 0 0 -1 0 841)" d="M228.2878 625.1122C 226.8531 624.7336 226.1757 623.89 225.8967 623.04C 225.6178 623.89 224.9403 624.7336 223.5057 625.1122" stroke="#000000" stroke-width="0.3985" stroke-linecap="round" fill="none" /><path id="116" transform="matrix(1 0 0 -1 0 841)" d="M140.8563 622.8408L344.5547 622.8408" stroke="#000000" stroke-width="0.3985" fill="none" /><path id="117" transform="matrix(1 0 0 -1 0 841)" d="M342.6817 625.2318C 343.0603 623.7971 343.904 623.1196 344.754 622.8407C 343.904 622.5618 343.0603 621.8843 342.6817 620.4496" stroke="#000000" stroke-width="0.3985" stroke-linecap="round" fill="none" /><path id="118" transform="matrix(1 0 0 -1 0 841)" d="M225.8967 682.3693L225.8842 682.7395L225.8842 682.7395L225.8478 683.1084L225.8478 683.1084L225.7873 683.4744L225.7873 683.4744L225.7034 683.8355L225.7034 683.8355L225.5957 684.1902L225.5957 684.1902L225.4651 684.5371L225.4651 684.5371L225.3124 684.8749L225.3124 684.8749L225.1376 685.2023L225.1376 685.2023L224.9417 685.5168L224.9417 685.5168L224.7258 685.8183L224.7258 685.8183L224.491 686.105L224.491 686.105L224.2375 686.3758L224.2375 686.3758L223.9672 686.6297L223.9672 686.6297L223.6804 686.8651L223.6804 686.8651L223.3794 687.0809L223.3794 687.0809L223.0645 687.2772L223.0645 687.2772L222.7375 687.452L222.7375 687.452L222.4001 687.6051L222.4001 687.6051L222.0532 687.7361L222.0532 687.7361L221.6985 687.8439L221.6985 687.8439L221.3373 687.9282L221.3373 687.9282L220.9714 687.9888L220.9714 687.9888L220.6025 688.0255L220.6025 688.0255L220.2318 688.0381" stroke="#000000" stroke-width="0.3985" fill="none" /><path id="276" transform="matrix(1 0 0 -1 0 841)" d="M153.882 498.196L206.581 498.196" stroke="#000000" stroke-width="0.436" fill="none" /><path id="296" transform="matrix(1 0 0 -1 0 841)" d="M221.101 506.108L327.247 506.108" stroke="#000000" stroke-width="0.398" fill="none" /><path id="297" transform="matrix(1 0 0 -1 0 841)" d="M221.3 489.919L221.3 506.108" stroke="#000000" stroke-width="0.398" fill="none" /><path id="298" transform="matrix(1 0 0 -1 0 841)" d="M327.048 489.919L327.048 506.108" stroke="#000000" stroke-width="0.398" fill="none" /><path id="299" transform="matrix(1 0 0 -1 0 841)" d="M221.101 489.919L327.247 489.919" stroke="#000000" stroke-width="0.398" fill="none" /><path id="660" transform="matrix(1 0 0 -1 0 841)" d="M178.043 328.689L331.417 328.689" stroke="#000000" stroke-width="0.436" fill="none" /><path id="691" transform="matrix(1 0 0 -1 0 841)" d="M347.132 328.689L441.651 328.689" stroke="#000000" stroke-width="0.436" fill="none" /><path id="707" transform="matrix(1 0 0 -1 0 841)" d="M456.172 336.546L502.339 336.546" stroke="#000000" stroke-width="0.398" fill="none" /><path id="708" transform="matrix(1 0 0 -1 0 841)" d="M456.371 320.412L456.371 336.546" stroke="#000000" stroke-width="0.398" fill="none" /><path id="709" transform="matrix(1 0 0 -1 0 841)" d="M502.139 320.412L502.139 336.546" stroke="#000000" stroke-width="0.398" fill="none" /><path id="710" transform="matrix(1 0 0 -1 0 841)" d="M456.172 320.412L502.339 320.412" stroke="#000000" stroke-width="0.398" fill="none" /><path id="907" transform="matrix(1 0 0 -1 0 841)" d="M264.928 202.075L423.707 202.075" stroke="#000000" stroke-width="0.436" fill="none" /><path id="978" transform="matrix(1 0 0 -1 0 841)" d="M264.928 171.862L411.567 171.862" stroke="#000000" stroke-width="0.436" fill="none" /><path id="984" transform="matrix(1 0 0 -1 0 841)" d="M266.123 154.056L288.977 154.056" stroke="#000000" stroke-width="0.436" fill="none" /><path id="999" transform="matrix(1 0 0 -1 0 841)" d="M299.853 154.056L329.743 154.056" stroke="#000000" stroke-width="0.436" fill="none" /><path id="1010" transform="matrix(1 0 0 -1 0 841)" d="M340.619 154.056L374.502 154.056" stroke="#000000" stroke-width="0.436" fill="none" /><path id="1026" transform="matrix(1 0 0 -1 0 841)" d="M385.378 154.056L410.37 154.056" stroke="#000000" stroke-width="0.436" fill="none" /><path id="1040" transform="matrix(1 0 0 -1 0 841)" d="M426.086 179.833L466.329 179.833" stroke="#000000" stroke-width="0.398" fill="none" /><path id="1041" transform="matrix(1 0 0 -1 0 841)" d="M426.286 165.777L426.286 179.833" stroke="#000000" stroke-width="0.398" fill="none" /><path id="1042" transform="matrix(1 0 0 -1 0 841)" d="M466.13 165.777L466.13 179.833" stroke="#000000" stroke-width="0.398" fill="none" /><path id="1043" transform="matrix(1 0 0 -1 0 841)" d="M426.086 165.777L466.329 165.777" stroke="#000000" stroke-width="0.398" fill="none" /></g></g></svg>