<svg xmlns="http://www.w3.org/2000/svg" xmlns:xlink="http://www.w3.org/1999/xlink" id="body_255" preserveAspectRatio="xMinYMin meet" viewBox="0 0 793 1121"><defs><clipPath id="1"><path id="" clip-rule="evenodd" transform="matrix(1 0 0 1 0 0)" d="M0 841L0 -0.8900146L0 -0.8900146L595.276 -0.8900146L595.276 -0.8900146L595.276 841L595.276 841L0 841z" /></clipPath></defs><g transform="matrix(1.333333 0 0 1.333333 0 0)"><g clip-path="url(#1)"><path id="23" transform="matrix(1 0 0 -1 0 841)" d="M85.039 766.564L510.236 766.564" stroke="#000000" stroke-width="0.498" fill="none" /><g transform="matrix(0.375 0 0 0.375 85.039 132.921)"><g transform="matrix(1 0 0 1 0 0)"><image x="0" y="0" xlink:href="img_389.png" width="474" height="243" /></g></g><path id="162" transform="matrix(1 0 0 -1 0 841)" d="M192.487 598.621L206.418 598.621" stroke="#000000" stroke-width="0.436" fill="none" /><path id="180" transform="matrix(1 0 0 -1 0 841)" d="M281.565 598.621L295.811 598.621" stroke="#000000" stroke-width="0.436" fill="none" /><path id="184" transform="matrix(1 0 0 -1 0 841)" d="M271.528 615.759L300.395 615.759" stroke="#000000" stroke-width="0.398" fill="none" /><path id="185" transform="matrix(1 0 0 -1 0 841)" d="M271.727 585.102L271.727 615.759" stroke="#000000" stroke-width="0.398" fill="none" /><path id="186" transform="matrix(1 0 0 -1 0 841)" d="M300.195 585.102L300.195 615.759" stroke="#000000" stroke-width="0.398" fill="none" /><path id="187" transform="matrix(1 0 0 -1 0 841)" d="M271.528 585.102L300.395 585.102" stroke="#000000" stroke-width="0.398" fill="none" /><path id="455" transform="matrix(1 0 0 -1 0 841)" d="M227.282 482.079L403.677 482.079" stroke="#000000" stroke-width="0.436" fill="none" /><path id="956" transform="matrix(1 0 0 -1 0 841)" d="M157.145 225.274L162.6 225.274" stroke="#000000" stroke-width="0.436" fill="none" /><path id="992" transform="matrix(1 0 0 -1 0 841)" d="M157.145 189.81L162.6 189.81" stroke="#000000" stroke-width="0.436" fill="none" /><path id="1233" transform="matrix(1 0 0 -1 0 841)" d="M325.397 103.923L341.761 103.923" stroke="#000000" stroke-width="0.436" fill="none" /><path id="1246" transform="matrix(1 0 0 -1 0 841)" d="M404.136 111.682L416.365 111.682" stroke="#000000" stroke-width="0.398" fill="none" /><path id="1247" transform="matrix(1 0 0 -1 0 841)" d="M404.335 98.008L404.335 111.682" stroke="#000000" stroke-width="0.398" fill="none" /><path id="1248" transform="matrix(1 0 0 -1 0 841)" d="M416.166 98.008L416.166 111.682" stroke="#000000" stroke-width="0.398" fill="none" /><path id="1249" transform="matrix(1 0 0 -1 0 841)" d="M404.136 98.008L416.365 98.008" stroke="#000000" stroke-width="0.398" fill="none" /></g></g></svg>