<svg xmlns="http://www.w3.org/2000/svg" xmlns:xlink="http://www.w3.org/1999/xlink" id="body_69" preserveAspectRatio="xMinYMin meet" viewBox="0 0 793 1121"><defs><clipPath id="1"><path id="" clip-rule="evenodd" transform="matrix(1 0 0 1 0 0)" d="M0 841L0 -0.8900146L0 -0.8900146L595.276 -0.8900146L595.276 -0.8900146L595.276 841L595.276 841L0 841z" /></clipPath></defs><g transform="matrix(1.333333 0 0 1.333333 0 0)"><g clip-path="url(#1)"><path id="45" transform="matrix(1 0 0 -1 0 841)" d="M85.039 766.564L510.236 766.564" stroke="#000000" stroke-width="0.498" fill="none" /><path id="46" transform="matrix(1 0 0 -1 0 841)" d="M84.79 742.455L108.317 742.455" stroke="#000000" stroke-width="0.491" fill="none" /><path id="50" transform="matrix(1 0 0 -1 0 841)" d="M108.28 742.455L133.007 742.455" stroke="#000000" stroke-width="0.491" fill="none" /><path id="56" transform="matrix(1 0 0 -1 0 841)" d="M133.242 742.455L137.112 742.455" stroke="#000000" stroke-width="0.491" fill="none" /><path id="57" transform="matrix(1 0 0 -1 0 841)" d="M136.863 742.455L149.492 742.455" stroke="#000000" stroke-width="0.491" fill="none" /><path id="61" transform="matrix(1 0 0 -1 0 841)" d="M149.237 742.455L161.244 742.455" stroke="#000000" stroke-width="0.491" fill="none" /><path id="65" transform="matrix(1 0 0 -1 0 841)" d="M160.976 742.455L178.448 742.455" stroke="#000000" stroke-width="0.491" fill="none" /><path id="70" transform="matrix(1 0 0 -1 0 841)" d="M178.538 742.455L182.408 742.455" stroke="#000000" stroke-width="0.491" fill="none" /><path id="71" transform="matrix(1 0 0 -1 0 841)" d="M182.16 742.455L216.596 742.455" stroke="#000000" stroke-width="0.491" fill="none" /><g transform="matrix(0.675 0 0 0.675 85.039 304.3781)"><g transform="matrix(1 0 0 1 0 0)"><image x="0" y="0" xlink:href="img_90.png" width="654" height="599" /></g></g></g></g></svg>