<svg xmlns="http://www.w3.org/2000/svg" xmlns:xlink="http://www.w3.org/1999/xlink" id="body_283" preserveAspectRatio="xMinYMin meet" viewBox="0 0 793 1121"><defs><clipPath id="1"><path id="" clip-rule="evenodd" transform="matrix(1 0 0 1 0 0)" d="M0 841L0 -0.8900146L0 -0.8900146L595.276 -0.8900146L595.276 -0.8900146L595.276 841L595.276 841L0 841z" /></clipPath></defs><g transform="matrix(1.333333 0 0 1.333333 0 0)"><g clip-path="url(#1)"><path id="26" transform="matrix(1 0 0 -1 0 841)" d="M85.039 766.564L510.236 766.564" stroke="#000000" stroke-width="0.498" fill="none" /><path id="217" transform="matrix(1 0 0 -1 0 841)" d="M112.063 597.858L129.525 597.858L129.525 610.131L112.063 610.131z" stroke="none" fill="#FFF100" fill-rule="nonzero" /><path id="221" transform="matrix(1 0 0 -1 0 841)" d="M129.14 597.858L131.862 597.858L131.862 610.131L129.14 610.131z" stroke="none" fill="#FFF100" fill-rule="nonzero" /><path id="222" transform="matrix(1 0 0 -1 0 841)" d="M131.613 597.858L158.773 597.858L158.773 610.131L131.613 610.131z" stroke="none" fill="#FFF100" fill-rule="nonzero" /><path id="228" transform="matrix(1 0 0 -1 0 841)" d="M158.31 597.858L161.032 597.858L161.032 610.131L158.31 610.131z" stroke="none" fill="#FFF100" fill-rule="nonzero" /><path id="229" transform="matrix(1 0 0 -1 0 841)" d="M160.782 597.858L168.556 597.858L168.556 610.131L160.782 610.131z" stroke="none" fill="#FFF100" fill-rule="nonzero" /><path id="232" transform="matrix(1 0 0 -1 0 841)" d="M168.249 597.858L170.971 597.858L170.971 610.131L168.249 610.131z" stroke="none" fill="#FFF100" fill-rule="nonzero" /><path id="233" transform="matrix(1 0 0 -1 0 841)" d="M170.722 597.858L186.973 597.858L186.973 610.131L170.722 610.131z" stroke="none" fill="#FFF100" fill-rule="nonzero" /><path id="237" transform="matrix(1 0 0 -1 0 841)" d="M186.349 597.858L199.578 597.858L199.578 610.131L186.349 610.131z" stroke="none" fill="#FFF100" fill-rule="nonzero" /><path id="241" transform="matrix(1 0 0 -1 0 841)" d="M198.977 597.858L218.249 597.858L218.249 610.131L198.977 610.131z" stroke="none" fill="#FFF100" fill-rule="nonzero" /><path id="246" transform="matrix(1 0 0 -1 0 841)" d="M217.851 597.858L220.573 597.858L220.573 610.131L217.851 610.131z" stroke="none" fill="#FFF100" fill-rule="nonzero" /><path id="247" transform="matrix(1 0 0 -1 0 841)" d="M220.323 597.858L229.908 597.858L229.908 610.131L220.323 610.131z" stroke="none" fill="#FFF100" fill-rule="nonzero" /><path id="250" transform="matrix(1 0 0 -1 0 841)" d="M229.587 597.858L232.309 597.858L232.309 610.131L229.587 610.131z" stroke="none" fill="#FFF100" fill-rule="nonzero" /><path id="251" transform="matrix(1 0 0 -1 0 841)" d="M232.059 597.858L238.012 597.858L238.012 610.131L232.059 610.131z" stroke="none" fill="#FFF100" fill-rule="nonzero" /><path id="253" transform="matrix(1 0 0 -1 0 841)" d="M237.719 597.858L240.441 597.858L240.441 610.131L237.719 610.131z" stroke="none" fill="#FFF100" fill-rule="nonzero" /><path id="254" transform="matrix(1 0 0 -1 0 841)" d="M240.192 597.858L249.777 597.858L249.777 610.131L240.192 610.131z" stroke="none" fill="#FFF100" fill-rule="nonzero" /><path id="257" transform="matrix(1 0 0 -1 0 841)" d="M249.455 597.858L252.177 597.858L252.177 610.131L249.455 610.131z" stroke="none" fill="#FFF100" fill-rule="nonzero" /><path id="258" transform="matrix(1 0 0 -1 0 841)" d="M251.928 597.858L277.877 597.858L277.877 610.131L251.928 610.131z" stroke="none" fill="#FFF100" fill-rule="nonzero" /><path id="263" transform="matrix(1 0 0 -1 0 841)" d="M277.424 597.858L280.146 597.858L280.146 610.131L277.424 610.131z" stroke="none" fill="#FFF100" fill-rule="nonzero" /><path id="264" transform="matrix(1 0 0 -1 0 841)" d="M279.897 597.858L296.148 597.858L296.148 610.131L279.897 610.131z" stroke="none" fill="#FFF100" fill-rule="nonzero" /><path id="268" transform="matrix(1 0 0 -1 0 841)" d="M295.773 597.858L298.495 597.858L298.495 610.131L295.773 610.131z" stroke="none" fill="#FFF100" fill-rule="nonzero" /><path id="269" transform="matrix(1 0 0 -1 0 841)" d="M298.245 597.858L303.587 597.858L303.587 610.131L298.245 610.131z" stroke="none" fill="#FFF100" fill-rule="nonzero" /><path id="271" transform="matrix(1 0 0 -1 0 841)" d="M303.299 597.858L306.021 597.858L306.021 610.131L303.299 610.131z" stroke="none" fill="#FFF100" fill-rule="nonzero" /><path id="272" transform="matrix(1 0 0 -1 0 841)" d="M305.772 597.858L323.234 597.858L323.234 610.131L305.772 610.131z" stroke="none" fill="#FFF100" fill-rule="nonzero" /><path id="277" transform="matrix(1 0 0 -1 0 841)" d="M322.848 597.858L325.57 597.858L325.57 610.131L322.848 610.131z" stroke="none" fill="#FFF100" fill-rule="nonzero" /><path id="278" transform="matrix(1 0 0 -1 0 841)" d="M325.321 597.858L334.906 597.858L334.906 610.131L325.321 610.131z" stroke="none" fill="#FFF100" fill-rule="nonzero" /><path id="281" transform="matrix(1 0 0 -1 0 841)" d="M334.584 597.858L337.306 597.858L337.306 610.131L334.584 610.131z" stroke="none" fill="#FFF100" fill-rule="nonzero" /><path id="282" transform="matrix(1 0 0 -1 0 841)" d="M337.057 597.858L350.886 597.858L350.886 610.131L337.057 610.131z" stroke="none" fill="#FFF100" fill-rule="nonzero" /><path id="286" transform="matrix(1 0 0 -1 0 841)" d="M350.53 597.858L353.252 597.858L353.252 610.131L350.53 610.131z" stroke="none" fill="#FFF100" fill-rule="nonzero" /><path id="287" transform="matrix(1 0 0 -1 0 841)" d="M353.003 597.858L380.163 597.858L380.163 610.131L353.003 610.131z" stroke="none" fill="#FFF100" fill-rule="nonzero" /><path id="293" transform="matrix(1 0 0 -1 0 841)" d="M379.7 597.858L382.422 597.858L382.422 610.131L379.7 610.131z" stroke="none" fill="#FFF100" fill-rule="nonzero" /><path id="294" transform="matrix(1 0 0 -1 0 841)" d="M382.173 597.858L397.813 597.858L397.813 610.131L382.173 610.131z" stroke="none" fill="#FFF100" fill-rule="nonzero" /><path id="298" transform="matrix(1 0 0 -1 0 841)" d="M397.442 597.858L400.164 597.858L400.164 610.131L397.442 610.131z" stroke="none" fill="#FFF100" fill-rule="nonzero" /><path id="299" transform="matrix(1 0 0 -1 0 841)" d="M399.915 597.858L410.711 597.858L410.711 610.131L399.915 610.131z" stroke="none" fill="#FFF100" fill-rule="nonzero" /><path id="302" transform="matrix(1 0 0 -1 0 841)" d="M410.38 597.858L413.102 597.858L413.102 610.131L410.38 610.131z" stroke="none" fill="#FFF100" fill-rule="nonzero" /><path id="303" transform="matrix(1 0 0 -1 0 841)" d="M412.852 597.858L423.485 597.858L423.485 610.131L412.852 610.131z" stroke="none" fill="#FFF100" fill-rule="nonzero" /><path id="306" transform="matrix(1 0 0 -1 0 841)" d="M422.904 597.858L456.118 597.858L456.118 610.131L422.904 610.131z" stroke="none" fill="#FFF100" fill-rule="nonzero" /><path id="314" transform="matrix(1 0 0 -1 0 841)" d="M455.608 597.858L458.33 597.858L458.33 610.131L455.608 610.131z" stroke="none" fill="#FFF100" fill-rule="nonzero" /><path id="315" transform="matrix(1 0 0 -1 0 841)" d="M458.08 597.858L467.665 597.858L467.665 610.131L458.08 610.131z" stroke="none" fill="#FFF100" fill-rule="nonzero" /><path id="318" transform="matrix(1 0 0 -1 0 841)" d="M467.344 597.858L470.066 597.858L470.066 610.131L467.344 610.131z" stroke="none" fill="#FFF100" fill-rule="nonzero" /><path id="319" transform="matrix(1 0 0 -1 0 841)" d="M469.816 597.858L475.158 597.858L475.158 610.131L469.816 610.131z" stroke="none" fill="#FFF100" fill-rule="nonzero" /><path id="321" transform="matrix(1 0 0 -1 0 841)" d="M474.87 597.858L477.592 597.858L477.592 610.131L474.87 610.131z" stroke="none" fill="#FFF100" fill-rule="nonzero" /><path id="322" transform="matrix(1 0 0 -1 0 841)" d="M477.343 597.858L491.772 597.858L491.772 610.131L477.343 610.131z" stroke="none" fill="#FFF100" fill-rule="nonzero" /><path id="326" transform="matrix(1 0 0 -1 0 841)" d="M491.162 597.858L512.562 597.858L512.562 610.131L491.162 610.131z" stroke="none" fill="#FFF100" fill-rule="nonzero" /><path id="499" transform="matrix(1 0 0 -1 0 841)" d="M112.063 530.113L129.525 530.113L129.525 542.386L112.063 542.386z" stroke="none" fill="#FFF100" fill-rule="nonzero" /><path id="503" transform="matrix(1 0 0 -1 0 841)" d="M129.276 530.113L132.003 530.113L132.003 542.386L129.276 542.386z" stroke="none" fill="#FFF100" fill-rule="nonzero" /><path id="504" transform="matrix(1 0 0 -1 0 841)" d="M131.754 530.113L147.394 530.113L147.394 542.386L131.754 542.386z" stroke="none" fill="#FFF100" fill-rule="nonzero" /><path id="508" transform="matrix(1 0 0 -1 0 841)" d="M146.896 530.113L150.427 530.113L150.427 542.386L146.896 542.386z" stroke="none" fill="#FFF100" fill-rule="nonzero" /><path id="510" transform="matrix(1 0 0 -1 0 841)" d="M149.928 530.113L166.789 530.113L166.789 542.386L149.928 542.386z" stroke="none" fill="#FFF100" fill-rule="nonzero" /><path id="514" transform="matrix(1 0 0 -1 0 841)" d="M166.541 530.113L169.268 530.113L169.268 542.386L166.541 542.386z" stroke="none" fill="#FFF100" fill-rule="nonzero" /><path id="515" transform="matrix(1 0 0 -1 0 841)" d="M169.019 530.113L190.724 530.113L190.724 542.386L169.019 542.386z" stroke="none" fill="#FFF100" fill-rule="nonzero" /><path id="520" transform="matrix(1 0 0 -1 0 841)" d="M190.475 530.113L193.202 530.113L193.202 542.386L190.475 542.386z" stroke="none" fill="#FFF100" fill-rule="nonzero" /><path id="521" transform="matrix(1 0 0 -1 0 841)" d="M192.953 530.113L202.538 530.113L202.538 542.386L192.953 542.386z" stroke="none" fill="#FFF100" fill-rule="nonzero" /><path id="524" transform="matrix(1 0 0 -1 0 841)" d="M202.289 530.113L205.016 530.113L205.016 542.386L202.289 542.386z" stroke="none" fill="#FFF100" fill-rule="nonzero" /><path id="525" transform="matrix(1 0 0 -1 0 841)" d="M204.768 530.113L210.11 530.113L210.11 542.386L204.768 542.386z" stroke="none" fill="#FFF100" fill-rule="nonzero" /><path id="527" transform="matrix(1 0 0 -1 0 841)" d="M209.86 530.113L212.587 530.113L212.587 542.386L209.86 542.386z" stroke="none" fill="#FFF100" fill-rule="nonzero" /><path id="528" transform="matrix(1 0 0 -1 0 841)" d="M212.338 530.113L226.767 530.113L226.767 542.386L212.338 542.386z" stroke="none" fill="#FFF100" fill-rule="nonzero" /><path id="532" transform="matrix(1 0 0 -1 0 841)" d="M226.269 530.113L244.941 530.113L244.941 542.386L226.269 542.386z" stroke="none" fill="#FFF100" fill-rule="nonzero" /><path id="537" transform="matrix(1 0 0 -1 0 841)" d="M244.692 530.113L247.419 530.113L247.419 542.386L244.692 542.386z" stroke="none" fill="#FFF100" fill-rule="nonzero" /><path id="538" transform="matrix(1 0 0 -1 0 841)" d="M247.171 530.113L271.025 530.113L271.025 542.386L247.171 542.386z" stroke="none" fill="#FFF100" fill-rule="nonzero" /><path id="544" transform="matrix(1 0 0 -1 0 841)" d="M270.776 530.113L273.503 530.113L273.503 542.386L270.776 542.386z" stroke="none" fill="#FFF100" fill-rule="nonzero" /><path id="545" transform="matrix(1 0 0 -1 0 841)" d="M273.254 530.113L281.028 530.113L281.028 542.386L273.254 542.386z" stroke="none" fill="#FFF100" fill-rule="nonzero" /><path id="548" transform="matrix(1 0 0 -1 0 841)" d="M280.779 530.113L283.506 530.113L283.506 542.386L280.779 542.386z" stroke="none" fill="#FFF100" fill-rule="nonzero" /><path id="549" transform="matrix(1 0 0 -1 0 841)" d="M283.257 530.113L294.664 530.113L294.664 542.386L283.257 542.386z" stroke="none" fill="#FFF100" fill-rule="nonzero" /><path id="552" transform="matrix(1 0 0 -1 0 841)" d="M294.166 530.113L321.326 530.113L321.326 542.386L294.166 542.386z" stroke="none" fill="#FFF100" fill-rule="nonzero" /><path id="559" transform="matrix(1 0 0 -1 0 841)" d="M321.077 530.113L323.804 530.113L323.804 542.386L321.077 542.386z" stroke="none" fill="#FFF100" fill-rule="nonzero" /><path id="560" transform="matrix(1 0 0 -1 0 841)" d="M323.555 530.113L334.962 530.113L334.962 542.386L323.555 542.386z" stroke="none" fill="#FFF100" fill-rule="nonzero" /><path id="563" transform="matrix(1 0 0 -1 0 841)" d="M334.713 530.113L337.44 530.113L337.44 542.386L334.713 542.386z" stroke="none" fill="#FFF100" fill-rule="nonzero" /><path id="564" transform="matrix(1 0 0 -1 0 841)" d="M337.192 530.113L345.905 530.113L345.905 542.386L337.192 542.386z" stroke="none" fill="#FFF100" fill-rule="nonzero" /><path id="567" transform="matrix(1 0 0 -1 0 841)" d="M345.406 530.113L359.846 530.113L359.846 542.386L345.406 542.386z" stroke="none" fill="#FFF100" fill-rule="nonzero" /><path id="571" transform="matrix(1 0 0 -1 0 841)" d="M359.348 530.113L373.788 530.113L373.788 542.386L359.348 542.386z" stroke="none" fill="#FFF100" fill-rule="nonzero" /><path id="575" transform="matrix(1 0 0 -1 0 841)" d="M373.538 530.113L376.265 530.113L376.265 542.386L373.538 542.386z" stroke="none" fill="#FFF100" fill-rule="nonzero" /><path id="576" transform="matrix(1 0 0 -1 0 841)" d="M376.017 530.113L389.846 530.113L389.846 542.386L376.017 542.386z" stroke="none" fill="#FFF100" fill-rule="nonzero" /><path id="580" transform="matrix(1 0 0 -1 0 841)" d="M389.596 530.113L392.323 530.113L392.323 542.386L389.596 542.386z" stroke="none" fill="#FFF100" fill-rule="nonzero" /><path id="581" transform="matrix(1 0 0 -1 0 841)" d="M392.075 530.113L406.504 530.113L406.504 542.386L392.075 542.386z" stroke="none" fill="#FFF100" fill-rule="nonzero" /><path id="585" transform="matrix(1 0 0 -1 0 841)" d="M406.005 530.113L424.677 530.113L424.677 542.386L406.005 542.386z" stroke="none" fill="#FFF100" fill-rule="nonzero" /><path id="590" transform="matrix(1 0 0 -1 0 841)" d="M424.429 530.113L427.156 530.113L427.156 542.386L424.429 542.386z" stroke="none" fill="#FFF100" fill-rule="nonzero" /><path id="591" transform="matrix(1 0 0 -1 0 841)" d="M426.907 530.113L438.314 530.113L438.314 542.386L426.907 542.386z" stroke="none" fill="#FFF100" fill-rule="nonzero" /><path id="594" transform="matrix(1 0 0 -1 0 841)" d="M438.065 530.113L440.792 530.113L440.792 542.386L438.065 542.386z" stroke="none" fill="#FFF100" fill-rule="nonzero" /><path id="595" transform="matrix(1 0 0 -1 0 841)" d="M440.543 530.113L460.132 530.113L460.132 542.386L440.543 542.386z" stroke="none" fill="#FFF100" fill-rule="nonzero" /><path id="704" transform="matrix(1 0 0 -1 0 841)" d="M112.063 479.303L123.808 479.303L123.808 491.576L112.063 491.576z" stroke="none" fill="#FFF100" fill-rule="nonzero" /><path id="707" transform="matrix(1 0 0 -1 0 841)" d="M123.559 479.303L126.286 479.303L126.286 491.576L123.559 491.576z" stroke="none" fill="#FFF100" fill-rule="nonzero" /><path id="708" transform="matrix(1 0 0 -1 0 841)" d="M126.038 479.303L136.834 479.303L136.834 491.576L126.038 491.576z" stroke="none" fill="#FFF100" fill-rule="nonzero" /><path id="711" transform="matrix(1 0 0 -1 0 841)" d="M136.336 479.303L148.343 479.303L148.343 491.576L136.336 491.576z" stroke="none" fill="#FFF100" fill-rule="nonzero" /><path id="715" transform="matrix(1 0 0 -1 0 841)" d="M147.845 479.303L170.161 479.303L170.161 491.576L147.845 491.576z" stroke="none" fill="#FFF100" fill-rule="nonzero" /><path id="720" transform="matrix(1 0 0 -1 0 841)" d="M169.912 479.303L172.639 479.303L172.639 491.576L169.912 491.576z" stroke="none" fill="#FFF100" fill-rule="nonzero" /><path id="721" transform="matrix(1 0 0 -1 0 841)" d="M172.39 479.303L194.095 479.303L194.095 491.576L172.39 491.576z" stroke="none" fill="#FFF100" fill-rule="nonzero" /><path id="726" transform="matrix(1 0 0 -1 0 841)" d="M193.846 479.303L196.573 479.303L196.573 491.576L193.846 491.576z" stroke="none" fill="#FFF100" fill-rule="nonzero" /><path id="727" transform="matrix(1 0 0 -1 0 841)" d="M196.324 479.303L210.753 479.303L210.753 491.576L196.324 491.576z" stroke="none" fill="#FFF100" fill-rule="nonzero" /><path id="731" transform="matrix(1 0 0 -1 0 841)" d="M210.255 479.303L228.927 479.303L228.927 491.576L210.255 491.576z" stroke="none" fill="#FFF100" fill-rule="nonzero" /><path id="736" transform="matrix(1 0 0 -1 0 841)" d="M228.429 479.303L244.069 479.303L244.069 491.576L228.429 491.576z" stroke="none" fill="#FFF100" fill-rule="nonzero" /><path id="740" transform="matrix(1 0 0 -1 0 841)" d="M243.82 479.303L246.547 479.303L246.547 491.576L243.82 491.576z" stroke="none" fill="#FFF100" fill-rule="nonzero" /><path id="741" transform="matrix(1 0 0 -1 0 841)" d="M246.298 479.303L251.64 479.303L251.64 491.576L246.298 491.576z" stroke="none" fill="#FFF100" fill-rule="nonzero" /><path id="743" transform="matrix(1 0 0 -1 0 841)" d="M251.391 479.303L254.118 479.303L254.118 491.576L251.391 491.576z" stroke="none" fill="#FFF100" fill-rule="nonzero" /><path id="744" transform="matrix(1 0 0 -1 0 841)" d="M253.869 479.303L271.331 479.303L271.331 491.576L253.869 491.576z" stroke="none" fill="#FFF100" fill-rule="nonzero" /><path id="749" transform="matrix(1 0 0 -1 0 841)" d="M271.081 479.303L273.808 479.303L273.808 491.576L271.081 491.576z" stroke="none" fill="#FFF100" fill-rule="nonzero" /><path id="750" transform="matrix(1 0 0 -1 0 841)" d="M273.559 479.303L281.333 479.303L281.333 491.576L273.559 491.576z" stroke="none" fill="#FFF100" fill-rule="nonzero" /><path id="753" transform="matrix(1 0 0 -1 0 841)" d="M281.085 479.303L283.812 479.303L283.812 491.576L281.085 491.576z" stroke="none" fill="#FFF100" fill-rule="nonzero" /><path id="754" transform="matrix(1 0 0 -1 0 841)" d="M283.563 479.303L293.148 479.303L293.148 491.576L283.563 491.576z" stroke="none" fill="#FFF100" fill-rule="nonzero" /><path id="757" transform="matrix(1 0 0 -1 0 841)" d="M292.899 479.303L295.626 479.303L295.626 491.576L292.899 491.576z" stroke="none" fill="#FFF100" fill-rule="nonzero" /><path id="758" transform="matrix(1 0 0 -1 0 841)" d="M295.377 479.303L309.206 479.303L309.206 491.576L295.377 491.576z" stroke="none" fill="#FFF100" fill-rule="nonzero" /><path id="762" transform="matrix(1 0 0 -1 0 841)" d="M308.957 479.303L311.684 479.303L311.684 491.576L308.957 491.576z" stroke="none" fill="#FFF100" fill-rule="nonzero" /><path id="763" transform="matrix(1 0 0 -1 0 841)" d="M311.435 479.303L341.322 479.303L341.322 491.576L311.435 491.576z" stroke="none" fill="#FFF100" fill-rule="nonzero" /><path id="770" transform="matrix(1 0 0 -1 0 841)" d="M341.073 479.303L343.8 479.303L343.8 491.576L341.073 491.576z" stroke="none" fill="#FFF100" fill-rule="nonzero" /><path id="771" transform="matrix(1 0 0 -1 0 841)" d="M343.551 479.303L352.264 479.303L352.264 491.576L343.551 491.576z" stroke="none" fill="#FFF100" fill-rule="nonzero" /><path id="774" transform="matrix(1 0 0 -1 0 841)" d="M351.766 479.303L371.049 479.303L371.049 491.576L351.766 491.576z" stroke="none" fill="#FFF100" fill-rule="nonzero" /><path id="779" transform="matrix(1 0 0 -1 0 841)" d="M370.8 479.303L373.527 479.303L373.527 491.576L370.8 491.576z" stroke="none" fill="#FFF100" fill-rule="nonzero" /><path id="780" transform="matrix(1 0 0 -1 0 841)" d="M373.278 479.303L387.107 479.303L387.107 491.576L373.278 491.576z" stroke="none" fill="#FFF100" fill-rule="nonzero" /><path id="784" transform="matrix(1 0 0 -1 0 841)" d="M386.858 479.303L389.585 479.303L389.585 491.576L386.858 491.576z" stroke="none" fill="#FFF100" fill-rule="nonzero" /><path id="785" transform="matrix(1 0 0 -1 0 841)" d="M389.336 479.303L406.798 479.303L406.798 491.576L389.336 491.576z" stroke="none" fill="#FFF100" fill-rule="nonzero" /><path id="790" transform="matrix(1 0 0 -1 0 841)" d="M406.549 479.303L409.276 479.303L409.276 491.576L406.549 491.576z" stroke="none" fill="#FFF100" fill-rule="nonzero" /><path id="791" transform="matrix(1 0 0 -1 0 841)" d="M409.027 479.303L420.434 479.303L420.434 491.576L409.027 491.576z" stroke="none" fill="#FFF100" fill-rule="nonzero" /><path id="794" transform="matrix(1 0 0 -1 0 841)" d="M420.185 479.303L422.912 479.303L422.912 491.576L420.185 491.576z" stroke="none" fill="#FFF100" fill-rule="nonzero" /><path id="795" transform="matrix(1 0 0 -1 0 841)" d="M422.663 479.303L436.492 479.303L436.492 491.576L422.663 491.576z" stroke="none" fill="#FFF100" fill-rule="nonzero" /><path id="799" transform="matrix(1 0 0 -1 0 841)" d="M436.243 479.303L438.97 479.303L438.97 491.576L436.243 491.576z" stroke="none" fill="#FFF100" fill-rule="nonzero" /><path id="800" transform="matrix(1 0 0 -1 0 841)" d="M438.721 479.303L468.608 479.303L468.608 491.576L438.721 491.576z" stroke="none" fill="#FFF100" fill-rule="nonzero" /><path id="1015" transform="matrix(1 0 0 -1 0 841)" d="M112.063 344.558L123.808 344.558L123.808 356.831L112.063 356.831z" stroke="none" fill="#FFF100" fill-rule="nonzero" /><path id="1018" transform="matrix(1 0 0 -1 0 841)" d="M123.802 344.558L126.597 344.558L126.597 356.831L123.802 356.831z" stroke="none" fill="#FFF100" fill-rule="nonzero" /><path id="1019" transform="matrix(1 0 0 -1 0 841)" d="M126.348 344.558L143.821 344.558L143.821 356.831L126.348 356.831z" stroke="none" fill="#FFF100" fill-rule="nonzero" /><path id="1023" transform="matrix(1 0 0 -1 0 841)" d="M143.911 344.558L146.706 344.558L146.706 356.831L143.911 356.831z" stroke="none" fill="#FFF100" fill-rule="nonzero" /><path id="1024" transform="matrix(1 0 0 -1 0 841)" d="M146.458 344.558L160.287 344.558L160.287 356.831L146.458 356.831z" stroke="none" fill="#FFF100" fill-rule="nonzero" /><path id="1028" transform="matrix(1 0 0 -1 0 841)" d="M160.304 344.558L163.099 344.558L163.099 356.831L160.304 356.831z" stroke="none" fill="#FFF100" fill-rule="nonzero" /><path id="1029" transform="matrix(1 0 0 -1 0 841)" d="M162.851 344.558L177.28 344.558L177.28 356.831L162.851 356.831z" stroke="none" fill="#FFF100" fill-rule="nonzero" /><path id="1033" transform="matrix(1 0 0 -1 0 841)" d="M177.06 344.558L195.732 344.558L195.732 356.831L177.06 356.831z" stroke="none" fill="#FFF100" fill-rule="nonzero" /><path id="1038" transform="matrix(1 0 0 -1 0 841)" d="M195.598 344.558L211.238 344.558L211.238 356.831L195.598 356.831z" stroke="none" fill="#FFF100" fill-rule="nonzero" /><path id="1042" transform="matrix(1 0 0 -1 0 841)" d="M211.291 344.558L214.086 344.558L214.086 356.831L211.291 356.831z" stroke="none" fill="#FFF100" fill-rule="nonzero" /><path id="1043" transform="matrix(1 0 0 -1 0 841)" d="M213.838 344.558L223.423 344.558L223.423 356.831L213.838 356.831z" stroke="none" fill="#FFF100" fill-rule="nonzero" /><path id="1046" transform="matrix(1 0 0 -1 0 841)" d="M223.356 344.558L226.151 344.558L226.151 356.831L223.356 356.831z" stroke="none" fill="#FFF100" fill-rule="nonzero" /><path id="1047" transform="matrix(1 0 0 -1 0 841)" d="M225.902 344.558L231.244 344.558L231.244 356.831L225.902 356.831z" stroke="none" fill="#FFF100" fill-rule="nonzero" /><path id="1049" transform="matrix(1 0 0 -1 0 841)" d="M231.092 344.558L233.887 344.558L233.887 356.831L231.092 356.831z" stroke="none" fill="#FFF100" fill-rule="nonzero" /><path id="1050" transform="matrix(1 0 0 -1 0 841)" d="M233.638 344.558L253.532 344.558L253.532 356.831L233.638 356.831z" stroke="none" fill="#FFF100" fill-rule="nonzero" /><path id="1054" transform="matrix(1 0 0 -1 0 841)" d="M253.422 344.558L270.142 344.558L270.142 356.831L253.422 356.831z" stroke="none" fill="#FFF100" fill-rule="nonzero" /><path id="1059" transform="matrix(1 0 0 -1 0 841)" d="M270.226 344.558L273.021 344.558L273.021 356.831L270.226 356.831z" stroke="none" fill="#FFF100" fill-rule="nonzero" /><path id="1060" transform="matrix(1 0 0 -1 0 841)" d="M272.773 344.558L290.245 344.558L290.245 356.831L272.773 356.831z" stroke="none" fill="#FFF100" fill-rule="nonzero" /><path id="1064" transform="matrix(1 0 0 -1 0 841)" d="M290.086 344.558L296.649 344.558L296.649 356.831L290.086 356.831z" stroke="none" fill="#FFF100" fill-rule="nonzero" /><path id="1067" transform="matrix(1 0 0 -1 0 841)" d="M296.273 344.558L310.713 344.558L310.713 356.831L296.273 356.831z" stroke="none" fill="#FFF100" fill-rule="nonzero" /><path id="1071" transform="matrix(1 0 0 -1 0 841)" d="M310.742 344.558L313.537 344.558L313.537 356.831L310.742 356.831z" stroke="none" fill="#FFF100" fill-rule="nonzero" /><path id="1072" transform="matrix(1 0 0 -1 0 841)" d="M313.289 344.558L327.118 344.558L327.118 356.831L313.289 356.831z" stroke="none" fill="#FFF100" fill-rule="nonzero" /><path id="1076" transform="matrix(1 0 0 -1 0 841)" d="M327.135 344.558L329.93 344.558L329.93 356.831L327.135 356.831z" stroke="none" fill="#FFF100" fill-rule="nonzero" /><path id="1077" transform="matrix(1 0 0 -1 0 841)" d="M329.682 344.558L349.576 344.558L349.576 356.831L329.682 356.831z" stroke="none" fill="#FFF100" fill-rule="nonzero" /><path id="1081" transform="matrix(1 0 0 -1 0 841)" d="M349.466 344.558L363.895 344.558L363.895 356.831L349.466 356.831z" stroke="none" fill="#FFF100" fill-rule="nonzero" /><path id="1085" transform="matrix(1 0 0 -1 0 841)" d="M363.924 344.558L366.719 344.558L366.719 356.831L363.924 356.831z" stroke="none" fill="#FFF100" fill-rule="nonzero" /><path id="1086" transform="matrix(1 0 0 -1 0 841)" d="M366.471 344.558L377.878 344.558L377.878 356.831L366.471 356.831z" stroke="none" fill="#FFF100" fill-rule="nonzero" /><path id="1089" transform="matrix(1 0 0 -1 0 841)" d="M377.847 344.558L380.643 344.558L380.643 356.831L377.847 356.831z" stroke="none" fill="#FFF100" fill-rule="nonzero" /><path id="1090" transform="matrix(1 0 0 -1 0 841)" d="M380.393 344.558L394.222 344.558L394.222 356.831L380.393 356.831z" stroke="none" fill="#FFF100" fill-rule="nonzero" /><path id="1094" transform="matrix(1 0 0 -1 0 841)" d="M394.24 344.558L397.035 344.558L397.035 356.831L394.24 356.831z" stroke="none" fill="#FFF100" fill-rule="nonzero" /><path id="1095" transform="matrix(1 0 0 -1 0 841)" d="M396.786 344.558L412.426 344.558L412.426 356.831L396.786 356.831z" stroke="none" fill="#FFF100" fill-rule="nonzero" /><path id="1099" transform="matrix(1 0 0 -1 0 841)" d="M412.231 344.558L415.762 344.558L415.762 356.831L412.231 356.831z" stroke="none" fill="#FFF100" fill-rule="nonzero" /><path id="1101" transform="matrix(1 0 0 -1 0 841)" d="M415.324 344.558L432.185 344.558L432.185 356.831L415.324 356.831z" stroke="none" fill="#FFF100" fill-rule="nonzero" /><path id="1105" transform="matrix(1 0 0 -1 0 841)" d="M432.264 344.558L435.059 344.558L435.059 356.831L432.264 356.831z" stroke="none" fill="#FFF100" fill-rule="nonzero" /><path id="1106" transform="matrix(1 0 0 -1 0 841)" d="M434.81 344.558L459.002 344.558L459.002 356.831L434.81 356.831z" stroke="none" fill="#FFF100" fill-rule="nonzero" /><path id="1112" transform="matrix(1 0 0 -1 0 841)" d="M458.989 344.558L464.331 344.558L464.331 356.831L458.989 356.831z" stroke="none" fill="#FFF100" fill-rule="nonzero" /><path id="1114" transform="matrix(1 0 0 -1 0 841)" d="M463.93 344.558L480.791 344.558L480.791 356.831L463.93 356.831z" stroke="none" fill="#FFF100" fill-rule="nonzero" /><path id="1119" transform="matrix(1 0 0 -1 0 841)" d="M480.869 344.558L483.664 344.558L483.664 356.831L480.869 356.831z" stroke="none" fill="#FFF100" fill-rule="nonzero" /><path id="1120" transform="matrix(1 0 0 -1 0 841)" d="M483.416 344.558L493.001 344.558L493.001 356.831L483.416 356.831z" stroke="none" fill="#FFF100" fill-rule="nonzero" /><path id="1123" transform="matrix(1 0 0 -1 0 841)" d="M492.934 344.558L495.729 344.558L495.729 356.831L492.934 356.831z" stroke="none" fill="#FFF100" fill-rule="nonzero" /><path id="1124" transform="matrix(1 0 0 -1 0 841)" d="M495.48 344.558L509.309 344.558L509.309 356.831L495.48 356.831z" stroke="none" fill="#FFF100" fill-rule="nonzero" /><path id="1128" transform="matrix(1 0 0 -1 0 841)" d="M112.063 327.622L126.492 327.622L126.492 339.895L112.063 339.895z" stroke="none" fill="#FFF100" fill-rule="nonzero" /><path id="1132" transform="matrix(1 0 0 -1 0 841)" d="M125.994 327.622L144.666 327.622L144.666 339.895L125.994 339.895z" stroke="none" fill="#FFF100" fill-rule="nonzero" /><path id="1137" transform="matrix(1 0 0 -1 0 841)" d="M144.168 327.622L159.808 327.622L159.808 339.895L144.168 339.895z" stroke="none" fill="#FFF100" fill-rule="nonzero" /><path id="1141" transform="matrix(1 0 0 -1 0 841)" d="M159.559 327.622L162.286 327.622L162.286 339.895L159.559 339.895z" stroke="none" fill="#FFF100" fill-rule="nonzero" /><path id="1142" transform="matrix(1 0 0 -1 0 841)" d="M162.037 327.622L186.339 327.622L186.339 339.895L162.037 339.895z" stroke="none" fill="#FFF100" fill-rule="nonzero" /><path id="1148" transform="matrix(1 0 0 -1 0 841)" d="M186.09 327.622L188.817 327.622L188.817 339.895L186.09 339.895z" stroke="none" fill="#FFF100" fill-rule="nonzero" /><path id="1149" transform="matrix(1 0 0 -1 0 841)" d="M188.568 327.622L197.553 327.622L197.553 339.895L188.568 339.895z" stroke="none" fill="#FFF100" fill-rule="nonzero" /><path id="1152" transform="matrix(1 0 0 -1 0 841)" d="M197.304 327.622L200.031 327.622L200.031 339.895L197.304 339.895z" stroke="none" fill="#FFF100" fill-rule="nonzero" /><path id="1153" transform="matrix(1 0 0 -1 0 841)" d="M199.782 327.622L213.611 327.622L213.611 339.895L199.782 339.895z" stroke="none" fill="#FFF100" fill-rule="nonzero" /><path id="1157" transform="matrix(1 0 0 -1 0 841)" d="M213.362 327.622L216.089 327.622L216.089 339.895L213.362 339.895z" stroke="none" fill="#FFF100" fill-rule="nonzero" /><path id="1158" transform="matrix(1 0 0 -1 0 841)" d="M215.84 327.622L236.334 327.622L236.334 339.895L215.84 339.895z" stroke="none" fill="#FFF100" fill-rule="nonzero" /><path id="1163" transform="matrix(1 0 0 -1 0 841)" d="M235.837 327.622L255.426 327.622L255.426 339.895L235.837 339.895z" stroke="none" fill="#FFF100" fill-rule="nonzero" /><path id="1285" transform="matrix(1 0 0 -1 0 841)" d="M112.063 180.382L123.808 180.382L123.808 192.655L112.063 192.655z" stroke="none" fill="#FFF100" fill-rule="nonzero" /><path id="1288" transform="matrix(1 0 0 -1 0 841)" d="M123.802 180.382L127.003 180.382L127.003 192.655L123.802 192.655z" stroke="none" fill="#FFF100" fill-rule="nonzero" /><path id="1289" transform="matrix(1 0 0 -1 0 841)" d="M126.754 180.382L135.739 180.382L135.739 192.655L126.754 192.655z" stroke="none" fill="#FFF100" fill-rule="nonzero" /><path id="1292" transform="matrix(1 0 0 -1 0 841)" d="M135.411 180.382L163.16 180.382L163.16 192.655L135.411 192.655z" stroke="none" fill="#FFF100" fill-rule="nonzero" /><path id="1299" transform="matrix(1 0 0 -1 0 841)" d="M163.455 180.382L166.656 180.382L166.656 192.655L163.455 192.655z" stroke="none" fill="#FFF100" fill-rule="nonzero" /><path id="1300" transform="matrix(1 0 0 -1 0 841)" d="M166.407 180.382L171.749 180.382L171.749 192.655L166.407 192.655z" stroke="none" fill="#FFF100" fill-rule="nonzero" /><path id="1302" transform="matrix(1 0 0 -1 0 841)" d="M171.596 180.382L174.797 180.382L174.797 192.655L171.596 192.655z" stroke="none" fill="#FFF100" fill-rule="nonzero" /><path id="1303" transform="matrix(1 0 0 -1 0 841)" d="M174.548 180.382L198.402 180.382L198.402 192.655L174.548 192.655z" stroke="none" fill="#FFF100" fill-rule="nonzero" /><path id="1309" transform="matrix(1 0 0 -1 0 841)" d="M198.626 180.382L201.827 180.382L201.827 192.655L198.626 192.655z" stroke="none" fill="#FFF100" fill-rule="nonzero" /><path id="1310" transform="matrix(1 0 0 -1 0 841)" d="M201.578 180.382L212.985 180.382L212.985 192.655L201.578 192.655z" stroke="none" fill="#FFF100" fill-rule="nonzero" /><path id="1313" transform="matrix(1 0 0 -1 0 841)" d="M212.954 180.382L216.155 180.382L216.155 192.655L212.954 192.655z" stroke="none" fill="#FFF100" fill-rule="nonzero" /><path id="1314" transform="matrix(1 0 0 -1 0 841)" d="M215.906 180.382L221.248 180.382L221.248 192.655L215.906 192.655z" stroke="none" fill="#FFF100" fill-rule="nonzero" /><path id="1316" transform="matrix(1 0 0 -1 0 841)" d="M221.095 180.382L224.296 180.382L224.296 192.655L221.095 192.655z" stroke="none" fill="#FFF100" fill-rule="nonzero" /><path id="1317" transform="matrix(1 0 0 -1 0 841)" d="M224.047 180.382L238.476 180.382L238.476 192.655L224.047 192.655z" stroke="none" fill="#FFF100" fill-rule="nonzero" /><path id="1321" transform="matrix(1 0 0 -1 0 841)" d="M238.257 180.382L259.657 180.382L259.657 192.655L238.257 192.655z" stroke="none" fill="#FFF100" fill-rule="nonzero" /><path id="1327" transform="matrix(1 0 0 -1 0 841)" d="M259.825 180.382L263.026 180.382L263.026 192.655L259.825 192.655z" stroke="none" fill="#FFF100" fill-rule="nonzero" /><path id="1328" transform="matrix(1 0 0 -1 0 841)" d="M262.777 180.382L279.028 180.382L279.028 192.655L262.777 192.655z" stroke="none" fill="#FFF100" fill-rule="nonzero" /><path id="1332" transform="matrix(1 0 0 -1 0 841)" d="M279.094 180.382L282.295 180.382L282.295 192.655L279.094 192.655z" stroke="none" fill="#FFF100" fill-rule="nonzero" /><path id="1333" transform="matrix(1 0 0 -1 0 841)" d="M282.046 180.382L295.875 180.382L295.875 192.655L282.046 192.655z" stroke="none" fill="#FFF100" fill-rule="nonzero" /><path id="1337" transform="matrix(1 0 0 -1 0 841)" d="M295.892 180.382L299.093 180.382L299.093 192.655L295.892 192.655z" stroke="none" fill="#FFF100" fill-rule="nonzero" /><path id="1338" transform="matrix(1 0 0 -1 0 841)" d="M298.844 180.382L314.484 180.382L314.484 192.655L298.844 192.655z" stroke="none" fill="#FFF100" fill-rule="nonzero" /><path id="1342" transform="matrix(1 0 0 -1 0 841)" d="M314.288 180.382L317.819 180.382L317.819 192.655L314.288 192.655z" stroke="none" fill="#FFF100" fill-rule="nonzero" /><path id="1344" transform="matrix(1 0 0 -1 0 841)" d="M317.382 180.382L334.243 180.382L334.243 192.655L317.382 192.655z" stroke="none" fill="#FFF100" fill-rule="nonzero" /><path id="1348" transform="matrix(1 0 0 -1 0 841)" d="M334.321 180.382L337.522 180.382L337.522 192.655L334.321 192.655z" stroke="none" fill="#FFF100" fill-rule="nonzero" /><path id="1349" transform="matrix(1 0 0 -1 0 841)" d="M337.273 180.382L361.465 180.382L361.465 192.655L337.273 192.655z" stroke="none" fill="#FFF100" fill-rule="nonzero" /><path id="1355" transform="matrix(1 0 0 -1 0 841)" d="M361.452 180.382L366.794 180.382L366.794 192.655L361.452 192.655z" stroke="none" fill="#FFF100" fill-rule="nonzero" /><path id="1357" transform="matrix(1 0 0 -1 0 841)" d="M366.393 180.382L383.254 180.382L383.254 192.655L366.393 192.655z" stroke="none" fill="#FFF100" fill-rule="nonzero" /><path id="1362" transform="matrix(1 0 0 -1 0 841)" d="M383.332 180.382L386.533 180.382L386.533 192.655L383.332 192.655z" stroke="none" fill="#FFF100" fill-rule="nonzero" /><path id="1363" transform="matrix(1 0 0 -1 0 841)" d="M386.284 180.382L395.869 180.382L395.869 192.655L386.284 192.655z" stroke="none" fill="#FFF100" fill-rule="nonzero" /><path id="1366" transform="matrix(1 0 0 -1 0 841)" d="M395.802 180.382L399.003 180.382L399.003 192.655L395.802 192.655z" stroke="none" fill="#FFF100" fill-rule="nonzero" /><path id="1367" transform="matrix(1 0 0 -1 0 841)" d="M398.754 180.382L412.583 180.382L412.583 192.655L398.754 192.655z" stroke="none" fill="#FFF100" fill-rule="nonzero" /><path id="1371" transform="matrix(1 0 0 -1 0 841)" d="M412.6 180.382L415.801 180.382L415.801 192.655L412.6 192.655z" stroke="none" fill="#FFF100" fill-rule="nonzero" /><path id="1372" transform="matrix(1 0 0 -1 0 841)" d="M415.552 180.382L429.981 180.382L429.981 192.655L415.552 192.655z" stroke="none" fill="#FFF100" fill-rule="nonzero" /><path id="1376" transform="matrix(1 0 0 -1 0 841)" d="M429.762 180.382L448.434 180.382L448.434 192.655L429.762 192.655z" stroke="none" fill="#FFF100" fill-rule="nonzero" /><path id="1381" transform="matrix(1 0 0 -1 0 841)" d="M448.548 180.382L451.749 180.382L451.749 192.655L448.548 192.655z" stroke="none" fill="#FFF100" fill-rule="nonzero" /><path id="1382" transform="matrix(1 0 0 -1 0 841)" d="M451.5 180.382L460.485 180.382L460.485 192.655L451.5 192.655z" stroke="none" fill="#FFF100" fill-rule="nonzero" /><path id="1385" transform="matrix(1 0 0 -1 0 841)" d="M460.406 180.382L463.607 180.382L463.607 192.655L460.406 192.655z" stroke="none" fill="#FFF100" fill-rule="nonzero" /><path id="1386" transform="matrix(1 0 0 -1 0 841)" d="M463.358 180.382L468.307 180.382L468.307 192.655L463.358 192.655z" stroke="none" fill="#FFF100" fill-rule="nonzero" /><path id="1388" transform="matrix(1 0 0 -1 0 841)" d="M468.147 180.382L471.348 180.382L471.348 192.655L468.147 192.655z" stroke="none" fill="#FFF100" fill-rule="nonzero" /><path id="1389" transform="matrix(1 0 0 -1 0 841)" d="M471.099 180.382L477.052 180.382L477.052 192.655L471.099 192.655z" stroke="none" fill="#FFF100" fill-rule="nonzero" /><path id="1391" transform="matrix(1 0 0 -1 0 841)" d="M476.912 180.382L480.113 180.382L480.113 192.655L476.912 192.655z" stroke="none" fill="#FFF100" fill-rule="nonzero" /><path id="1392" transform="matrix(1 0 0 -1 0 841)" d="M479.863 180.382L484.812 180.382L484.812 192.655L479.863 192.655z" stroke="none" fill="#FFF100" fill-rule="nonzero" /><path id="1394" transform="matrix(1 0 0 -1 0 841)" d="M484.652 180.382L487.853 180.382L487.853 192.655L484.652 192.655z" stroke="none" fill="#FFF100" fill-rule="nonzero" /><path id="1395" transform="matrix(1 0 0 -1 0 841)" d="M487.604 180.382L503.855 180.382L503.855 192.655L487.604 192.655z" stroke="none" fill="#FFF100" fill-rule="nonzero" /><path id="1399" transform="matrix(1 0 0 -1 0 841)" d="M112.063 163.446L129.535 163.446L129.535 175.719L112.063 175.719z" stroke="none" fill="#FFF100" fill-rule="nonzero" /><path id="1403" transform="matrix(1 0 0 -1 0 841)" d="M129.037 163.446L135.6 163.446L135.6 175.719L129.037 175.719z" stroke="none" fill="#FFF100" fill-rule="nonzero" /><path id="1406" transform="matrix(1 0 0 -1 0 841)" d="M135.103 163.446L149.543 163.446L149.543 175.719L135.103 175.719z" stroke="none" fill="#FFF100" fill-rule="nonzero" /><path id="1410" transform="matrix(1 0 0 -1 0 841)" d="M149.293 163.446L152.02 163.446L152.02 175.719L149.293 175.719z" stroke="none" fill="#FFF100" fill-rule="nonzero" /><path id="1411" transform="matrix(1 0 0 -1 0 841)" d="M151.772 163.446L158.335 163.446L158.335 175.719L151.772 175.719z" stroke="none" fill="#FFF100" fill-rule="nonzero" /><path id="1414" transform="matrix(1 0 0 -1 0 841)" d="M158.086 163.446L160.813 163.446L160.813 175.719L158.086 175.719z" stroke="none" fill="#FFF100" fill-rule="nonzero" /><path id="1415" transform="matrix(1 0 0 -1 0 841)" d="M160.564 163.446L184.702 163.446L184.702 175.719L160.564 175.719z" stroke="none" fill="#FFF100" fill-rule="nonzero" /><path id="1421" transform="matrix(1 0 0 -1 0 841)" d="M184.453 163.446L187.18 163.446L187.18 175.719L184.453 175.719z" stroke="none" fill="#FFF100" fill-rule="nonzero" /><path id="1422" transform="matrix(1 0 0 -1 0 841)" d="M186.931 163.446L200.76 163.446L200.76 175.719L186.931 175.719z" stroke="none" fill="#FFF100" fill-rule="nonzero" /><path id="1426" transform="matrix(1 0 0 -1 0 841)" d="M200.511 163.446L203.238 163.446L203.238 175.719L200.511 175.719z" stroke="none" fill="#FFF100" fill-rule="nonzero" /><path id="1427" transform="matrix(1 0 0 -1 0 841)" d="M202.989 163.446L222.883 163.446L222.883 175.719L202.989 175.719z" stroke="none" fill="#FFF100" fill-rule="nonzero" /><path id="1431" transform="matrix(1 0 0 -1 0 841)" d="M222.385 163.446L238.941 163.446L238.941 175.719L222.385 175.719z" stroke="none" fill="#FFF100" fill-rule="nonzero" /></g></g></svg>