<svg xmlns="http://www.w3.org/2000/svg" xmlns:xlink="http://www.w3.org/1999/xlink" id="body_348" preserveAspectRatio="xMinYMin meet" viewBox="0 0 793 1121"><defs><clipPath id="1"><path id="" clip-rule="evenodd" transform="matrix(1 0 0 1 0 0)" d="M0 841L0 -0.8900146L0 -0.8900146L595.276 -0.8900146L595.276 -0.8900146L595.276 841L595.276 841L0 841z" /></clipPath></defs><g transform="matrix(1.333333 0 0 1.333333 0 0)"><g clip-path="url(#1)"><path id="34" transform="matrix(1 0 0 -1 0 841)" d="M85.039 766.564L510.236 766.564" stroke="#000000" stroke-width="0.498" fill="none" /><path id="48" transform="matrix(1 0 0 -1 0 841)" d="M243.507 625.998C 299.6335 725.2118 300.7677 725.2118 356.8942 625.998" stroke="#000000" stroke-width="0.3985" fill="none" /><path id="49" transform="matrix(1 0 0 -1 0 841)" d="M279.9009 703.6827C 279.9009 702.5615 288.9893 701.6526 300.2006 701.6526C 311.4119 701.6526 320.5003 702.5615 320.5003 703.6827L320.5003 703.6827L320.5003 721.7828C 320.5003 720.6616 311.4119 719.7527 300.2006 719.7527C 288.9893 719.7527 279.9009 720.6616 279.9009 721.7828z" stroke="none" fill="#E6E6FF" fill-rule="nonzero" /><path id="50" transform="matrix(1 0 0 -1 0 841)" d="M279.9009 721.7828C 279.9009 722.904 288.9893 723.8129 300.2006 723.8129C 311.4119 723.8129 320.5003 722.904 320.5003 721.7828C 320.5003 720.6616 311.4119 719.7527 300.2006 719.7527C 288.9893 719.7527 279.9009 720.6616 279.9009 721.7828z" stroke="none" fill="#F6ADCE" fill-rule="nonzero" /><path id="51" transform="matrix(1 0 0 -1 0 841)" d="M279.9009 721.7828C 279.9009 720.6616 288.9893 719.7527 300.2006 719.7527C 311.4119 719.7527 320.5003 720.6616 320.5003 721.7828M279.9009 703.6827C 279.9009 702.5615 288.9893 701.6526 300.2006 701.6526C 311.4119 701.6526 320.5003 702.5615 320.5003 703.6827L320.5003 703.6827L320.5003 721.7828C 320.5003 722.904 311.4119 723.8129 300.2006 723.8129C 288.9893 723.8129 279.9009 722.904 279.9009 721.7828z" stroke="#800080" stroke-width="0.3985" fill="none" /><path id="59" transform="matrix(1 0 0 -1 0 841)" d="M280.1322 719.1225C 280.1322 718.014 289.117 717.1155 300.2006 717.1155C 311.2842 717.1155 320.2691 718.014 320.2691 719.1225L320.2691 719.1225L320.2691 734.6594C 320.2691 733.551 311.2842 732.6525 300.2006 732.6525C 289.117 732.6525 280.1322 733.551 280.1322 734.6594z" stroke="none" fill="#FFFFFF" fill-rule="nonzero" /><path id="60" transform="matrix(1 0 0 -1 0 841)" d="M280.1322 734.6594C 280.1322 735.7678 289.117 736.6664 300.2006 736.6664C 311.2842 736.6664 320.2691 735.7678 320.2691 734.6594C 320.2691 733.551 311.2842 732.6525 300.2006 732.6525C 289.117 732.6525 280.1322 733.551 280.1322 734.6594z" stroke="none" fill="#FFFFFF" fill-rule="nonzero" /><path id="61" transform="matrix(1 0 0 -1 0 841)" d="M280.1322 734.6594C 280.1322 733.551 289.117 732.6525 300.2006 732.6525C 311.2842 732.6525 320.2691 733.551 320.2691 734.6594M280.1322 719.1225C 280.1322 718.014 289.117 717.1155 300.2006 717.1155C 311.2842 717.1155 320.2691 718.014 320.2691 719.1225L320.2691 719.1225L320.2691 734.6594C 320.2691 735.7678 311.2842 736.6664 300.2006 736.6664C 289.117 736.6664 280.1322 735.7678 280.1322 734.6594z" stroke="#800080" stroke-width="0.3985" fill="none" /><g transform="matrix(0.1466 0 0 0.1466 115.948 183.8008)"><g transform="matrix(1 0 0 1 0 0)"><image x="0" y="0" xlink:href="img_493.png" width="580" height="387" /></g></g><g transform="matrix(0.18834 0 0 0.18834 130.121 221.9523)"><g transform="matrix(1 0 0 1 0 0)"><image x="0" y="0" xlink:href="img_494.png" width="301" height="167" /></g></g><path id="69" transform="matrix(1 0 0 -1 0 841)" d="M158.4666 600.4861L158.4666 625.998" stroke="#000000" stroke-width="1.59404" fill="none" /><path id="70" transform="matrix(1 0 0 -1 0 841)" d="M150.5295 643.8566L150.5295 713.8732" stroke="#000000" stroke-width="1.59404" fill="none" /><path id="71" transform="matrix(1 0 0 -1 0 841)" d="M150.5295 713.8732L275.929 713.8732" stroke="#000000" stroke-width="1.59404" fill="none" /><path id="72" transform="matrix(1 0 0 -1 0 841)" d="M273.2191 718.424C 273.8598 715.6935 275.2876 714.4041 276.726 713.8732C 275.2876 713.3423 273.8598 712.053 273.2191 709.3225" stroke="#000000" stroke-width="1.59404" stroke-linecap="round" fill="none" /><path id="73" transform="matrix(1 0 0 -1 0 841)" d="M150.5295 713.8732L275.929 713.8732" stroke="#000000" stroke-width="1.59404" fill="none" /><path id="74" transform="matrix(1 0 0 -1 0 841)" d="M273.2191 718.424C 273.8598 715.6935 275.2876 714.4041 276.726 713.8732C 275.2876 713.3423 273.8598 712.053 273.2191 709.3225" stroke="#000000" stroke-width="1.59404" stroke-linecap="round" fill="none" /><path id="75" transform="matrix(1 0 0 -1 0 841)" d="M192.4827 597.6512L314.374 597.6512" stroke="#000000" stroke-width="0.3985" stroke-dasharray="7.500201,7.500201" fill="none" /><path id="76" transform="matrix(1 0 0 -1 0 841)" d="M300.2006 598.0497L300.2006 717.7266" stroke="#000000" stroke-width="0.3985" fill="none" /><path id="77" transform="matrix(1 0 0 -1 0 841)" d="M302.5917 599.9227C 301.157 599.5441 300.4796 598.7004 300.2006 597.8504C 299.9217 598.7004 299.2442 599.5441 297.8096 599.9227" stroke="#000000" stroke-width="0.3985" stroke-linecap="round" fill="none" /><path id="78" transform="matrix(1 0 0 -1 0 841)" d="M297.8096 715.8536C 299.2442 716.2322 299.9217 717.0759 300.2006 717.9258C 300.4796 717.0759 301.157 716.2322 302.5917 715.8536" stroke="#000000" stroke-width="0.3985" stroke-linecap="round" fill="none" /><path id="159" transform="matrix(1 0 0 -1 0 841)" d="M206.449 524.538L277.836 524.538" stroke="#000000" stroke-width="0.436" fill="none" /><path id="186" transform="matrix(1 0 0 -1 0 841)" d="M292.356 532.45L394.294 532.45" stroke="#000000" stroke-width="0.398" fill="none" /><path id="187" transform="matrix(1 0 0 -1 0 841)" d="M292.555 516.397L292.555 532.449" stroke="#000000" stroke-width="0.398" fill="none" /><path id="188" transform="matrix(1 0 0 -1 0 841)" d="M394.095 516.397L394.095 532.449" stroke="#000000" stroke-width="0.398" fill="none" /><path id="189" transform="matrix(1 0 0 -1 0 841)" d="M292.356 516.397L394.294 516.397" stroke="#000000" stroke-width="0.398" fill="none" /><path id="306" transform="matrix(1 0 0 -1 0 841)" d="M113.508 417.818L154.058 417.818" stroke="#000000" stroke-width="0.436" fill="none" /><path id="319" transform="matrix(1 0 0 -1 0 841)" d="M189.524 417.818L205.887 417.818" stroke="#000000" stroke-width="0.436" fill="none" /><path id="323" transform="matrix(1 0 0 -1 0 841)" d="M168.578 433.175L210.471 433.175" stroke="#000000" stroke-width="0.398" fill="none" /><path id="324" transform="matrix(1 0 0 -1 0 841)" d="M168.777 404.299L168.777 433.175" stroke="#000000" stroke-width="0.398" fill="none" /><path id="325" transform="matrix(1 0 0 -1 0 841)" d="M210.271 404.299L210.271 433.175" stroke="#000000" stroke-width="0.398" fill="none" /><path id="326" transform="matrix(1 0 0 -1 0 841)" d="M168.578 404.299L210.471 404.299" stroke="#000000" stroke-width="0.398" fill="none" /><path id="447" transform="matrix(1 0 0 -1 0 841)" d="M158.689 344.079L186.136 344.079" stroke="#000000" stroke-width="0.398" fill="none" /><path id="448" transform="matrix(1 0 0 -1 0 841)" d="M158.888 328.092L158.888 344.079" stroke="#000000" stroke-width="0.398" fill="none" /><path id="449" transform="matrix(1 0 0 -1 0 841)" d="M185.936 328.092L185.936 344.079" stroke="#000000" stroke-width="0.398" fill="none" /><path id="450" transform="matrix(1 0 0 -1 0 841)" d="M158.689 328.092L186.136 328.092" stroke="#000000" stroke-width="0.398" fill="none" /><path id="664" transform="matrix(1 0 0 -1 0 841)" d="M112.312 248.178L139.759 248.178" stroke="#000000" stroke-width="0.398" fill="none" /><path id="665" transform="matrix(1 0 0 -1 0 841)" d="M112.511 232.071L112.511 248.178" stroke="#000000" stroke-width="0.398" fill="none" /><path id="666" transform="matrix(1 0 0 -1 0 841)" d="M139.56 232.071L139.56 248.178" stroke="#000000" stroke-width="0.398" fill="none" /><path id="667" transform="matrix(1 0 0 -1 0 841)" d="M112.312 232.071L139.759 232.071" stroke="#000000" stroke-width="0.398" fill="none" /><path id="896" transform="matrix(1 0 0 -1 0 841)" d="M233.649 135.22L261.096 135.22" stroke="#000000" stroke-width="0.398" fill="none" /><path id="897" transform="matrix(1 0 0 -1 0 841)" d="M233.848 119.113L233.848 135.22" stroke="#000000" stroke-width="0.398" fill="none" /><path id="898" transform="matrix(1 0 0 -1 0 841)" d="M260.897 119.113L260.897 135.22" stroke="#000000" stroke-width="0.398" fill="none" /><path id="899" transform="matrix(1 0 0 -1 0 841)" d="M233.649 119.113L261.096 119.113" stroke="#000000" stroke-width="0.398" fill="none" /></g></g></svg>