<svg xmlns="http://www.w3.org/2000/svg" xmlns:xlink="http://www.w3.org/1999/xlink" id="body_261" preserveAspectRatio="xMinYMin meet" viewBox="0 0 793 1121"><defs><clipPath id="1"><path id="" clip-rule="evenodd" transform="matrix(1 0 0 1 0 0)" d="M0 841L0 -0.8900146L0 -0.8900146L595.276 -0.8900146L595.276 -0.8900146L595.276 841L595.276 841L0 841z" /></clipPath></defs><g transform="matrix(1.333333 0 0 1.333333 0 0)"><g clip-path="url(#1)"><path id="23" transform="matrix(1 0 0 -1 0 841)" d="M85.039 766.564L510.236 766.564" stroke="#000000" stroke-width="0.498" fill="none" /><path id="140" transform="matrix(1 0 0 -1 0 841)" d="M224.283 707.819L260.04 707.819" stroke="#000000" stroke-width="0.436" fill="none" /><g transform="matrix(0.375 0 0 0.375 156.451 183.047)"><g transform="matrix(1 0 0 1 0 0)"><image x="0" y="0" xlink:href="img_391.png" width="753" height="727" /></g></g><path id="338" transform="matrix(1 0 0 -1 0 841)" d="M165.926 227.7214L126.2411 247.5639L194.2787 267.827L233.959 257.4859z" stroke="none" fill="#CCCCCC" fill-rule="nonzero" /><path id="348" transform="matrix(1 0 0 -1 0 841)" d="M126.2411 247.5639L126.2411 292.9189L194.2796 301.6042L194.2787 267.827z" stroke="none" fill="#BFBFBF" fill-rule="nonzero" /><path id="357" transform="matrix(1 0 0 -1 0 841)" d="M194.2796 301.6042L194.2787 267.827L233.959 257.4859L233.959 297.1712z" stroke="none" fill="#F2F2F2" fill-rule="nonzero" fill-opacity="0.2" /><path id="366" transform="matrix(1 0 0 -1 0 841)" d="M165.926 284.415L165.926 227.7214L126.2411 247.5639L126.2411 292.9189z" stroke="none" fill="#F2F2F2" fill-rule="nonzero" fill-opacity="0.4980392" /><path id="375" transform="matrix(1 0 0 -1 0 841)" d="M165.926 284.415L126.2411 292.9189L194.2796 301.6042L233.959 297.1712z" stroke="none" fill="#CCCCCC" fill-rule="nonzero" fill-opacity="0.2" /><path id="387" transform="matrix(1 0 0 -1 0 841)" d="M194.2796 301.6042L194.2787 267.827" stroke="#000000" stroke-width="0.79701" stroke-dasharray="3.750053,3.750053" fill="none" /><path id="388" transform="matrix(1 0 0 -1 0 841)" d="M126.2411 247.5639L194.2787 267.827" stroke="#000000" stroke-width="0.79701" stroke-dasharray="3.750053,3.750053" fill="none" /><path id="389" transform="matrix(1 0 0 -1 0 841)" d="M233.959 257.4859L194.2787 267.827" stroke="#000000" stroke-width="0.79701" stroke-dasharray="3.750053,3.750053" fill="none" /><path id="398" transform="matrix(1 0 0 -1 0 841)" d="M165.926 284.415L165.926 227.7214" stroke="#000000" stroke-width="0.79701" fill="none" /><path id="399" transform="matrix(1 0 0 -1 0 841)" d="M114.9017 294.7884L114.9017 247.9626" stroke="#000000" stroke-width="0.3985" fill="none" /><path id="400" transform="matrix(1 0 0 -1 0 841)" d="M112.5106 292.9154C 113.9453 293.294 114.6227 294.1377 114.9017 294.9876C 115.1806 294.1377 115.8581 293.294 117.2927 292.9154" stroke="#000000" stroke-width="0.3985" stroke-linecap="round" fill="none" /><path id="401" transform="matrix(1 0 0 -1 0 841)" d="M117.2927 249.8356C 115.8581 249.457 115.1806 248.6133 114.9017 247.7633C 114.6227 248.6133 113.9453 249.457 112.5106 249.8356" stroke="#000000" stroke-width="0.3985" stroke-linecap="round" fill="none" /><path id="412" transform="matrix(1 0 0 -1 0 841)" d="M120.9218 244.5407L157.071 225.0755" stroke="#000000" stroke-width="0.3985" fill="none" /><path id="413" transform="matrix(1 0 0 -1 0 841)" d="M121.4373 241.5477C 121.7841 242.9902 121.3625 243.9866 120.7464 244.6352C 121.627 244.4778 122.6909 244.6743 123.7044 245.7579" stroke="#000000" stroke-width="0.3984783" stroke-linecap="round" fill="none" /><path id="414" transform="matrix(1 0 0 -1 0 841)" d="M156.5555 228.0685C 156.2087 226.626 156.6303 225.6296 157.2464 224.981C 156.3658 225.1384 155.3019 224.9419 154.2885 223.8583" stroke="#000000" stroke-width="0.3984783" stroke-linecap="round" fill="none" /><path id="425" transform="matrix(1 0 0 -1 0 841)" d="M239.2639 252.2207L171.9592 222.2144" stroke="#000000" stroke-width="0.3985" fill="none" /><path id="426" transform="matrix(1 0 0 -1 0 841)" d="M236.5797 253.6418C 237.5096 252.4857 238.556 252.2105 239.4459 252.3018C 238.7832 251.701 238.2885 250.7388 238.5269 249.2743" stroke="#000000" stroke-width="0.3984862" stroke-linecap="round" fill="none" /><path id="427" transform="matrix(1 0 0 -1 0 841)" d="M174.6434 220.7933C 173.7135 221.9494 172.6671 222.2246 171.7772 222.1333C 172.4399 222.7341 172.9346 223.6964 172.6962 225.1608" stroke="#000000" stroke-width="0.3984862" stroke-linecap="round" fill="none" /><path id="437" transform="matrix(1 0 0 -1 0 841)" d="M126.2411 247.5639L126.2411 292.9189" stroke="#000000" stroke-width="0.79701" fill="none" /><path id="438" transform="matrix(1 0 0 -1 0 841)" d="M233.959 257.4859L233.959 297.1712" stroke="#000000" stroke-width="0.79701" fill="none" /><path id="439" transform="matrix(1 0 0 -1 0 841)" d="M165.926 284.415L126.2411 292.9189" stroke="#000000" stroke-width="0.79701" fill="none" /><path id="440" transform="matrix(1 0 0 -1 0 841)" d="M165.926 284.415L233.959 297.1712" stroke="#000000" stroke-width="0.79701" fill="none" /><path id="441" transform="matrix(1 0 0 -1 0 841)" d="M165.926 227.7214L126.2411 247.5639" stroke="#000000" stroke-width="0.79701" fill="none" /><path id="442" transform="matrix(1 0 0 -1 0 841)" d="M165.926 227.7214L233.959 257.4859" stroke="#000000" stroke-width="0.79701" fill="none" /><path id="443" transform="matrix(1 0 0 -1 0 841)" d="M126.2411 292.9189L194.2796 301.6042" stroke="#000000" stroke-width="0.79701" fill="none" /><path id="444" transform="matrix(1 0 0 -1 0 841)" d="M233.959 297.1712L194.2796 301.6042" stroke="#000000" stroke-width="0.79701" fill="none" /><path id="501" transform="matrix(1 0 0 -1 0 841)" d="M180.771 199.684L218.156 199.684" stroke="#000000" stroke-width="0.398" fill="none" /><path id="502" transform="matrix(1 0 0 -1 0 841)" d="M180.97 181.19L180.97 199.683" stroke="#000000" stroke-width="0.398" fill="none" /><path id="503" transform="matrix(1 0 0 -1 0 841)" d="M217.956 181.19L217.956 199.683" stroke="#000000" stroke-width="0.398" fill="none" /><path id="504" transform="matrix(1 0 0 -1 0 841)" d="M180.771 181.19L218.156 181.19" stroke="#000000" stroke-width="0.398" fill="none" /><path id="592" transform="matrix(1 0 0 -1 0 841)" d="M208.641 148.874L255.714 148.874" stroke="#000000" stroke-width="0.398" fill="none" /><path id="593" transform="matrix(1 0 0 -1 0 841)" d="M208.84 130.381L208.84 148.874" stroke="#000000" stroke-width="0.398" fill="none" /><path id="594" transform="matrix(1 0 0 -1 0 841)" d="M255.515 130.381L255.515 148.874" stroke="#000000" stroke-width="0.398" fill="none" /><path id="595" transform="matrix(1 0 0 -1 0 841)" d="M208.641 130.381L255.714 130.381" stroke="#000000" stroke-width="0.398" fill="none" /></g></g></svg>