<svg xmlns="http://www.w3.org/2000/svg" xmlns:xlink="http://www.w3.org/1999/xlink" id="body_279" preserveAspectRatio="xMinYMin meet" viewBox="0 0 793 1121"><defs><clipPath id="1"><path id="" clip-rule="evenodd" transform="matrix(1 0 0 1 0 0)" d="M0 841L0 -0.8900146L0 -0.8900146L595.276 -0.8900146L595.276 -0.8900146L595.276 841L595.276 841L0 841z" /></clipPath></defs><g transform="matrix(1.333333 0 0 1.333333 0 0)"><g clip-path="url(#1)"><path id="16" transform="matrix(1 0 0 -1 0 841)" d="M85.039 766.564L510.236 766.564" stroke="#000000" stroke-width="0.498" fill="none" /><path id="24" transform="matrix(1 0 0 -1 0 841)" d="M154.711 744.742L167.681 744.742" stroke="#000000" stroke-width="0.436" fill="none" /><path id="47" transform="matrix(1 0 0 -1 0 841)" d="M252.711 744.742L287.26 744.742" stroke="#000000" stroke-width="0.436" fill="none" /><path id="64" transform="matrix(1 0 0 -1 0 841)" d="M301.78 752.5L351.58 752.5" stroke="#000000" stroke-width="0.398" fill="none" /><path id="65" transform="matrix(1 0 0 -1 0 841)" d="M301.979 738.586L301.979 752.5" stroke="#000000" stroke-width="0.398" fill="none" /><path id="66" transform="matrix(1 0 0 -1 0 841)" d="M351.381 738.586L351.381 752.5" stroke="#000000" stroke-width="0.398" fill="none" /><path id="67" transform="matrix(1 0 0 -1 0 841)" d="M301.78 738.586L351.58 738.586" stroke="#000000" stroke-width="0.398" fill="none" /><g transform="matrix(0.2 0 0 0.2 220.639 480.497)"><g transform="matrix(1 0 0 1 0 0)"><image x="0" y="0" xlink:href="img_415.png" width="770" height="404" /></g></g></g></g></svg>