<svg xmlns="http://www.w3.org/2000/svg" xmlns:xlink="http://www.w3.org/1999/xlink" id="body_346" preserveAspectRatio="xMinYMin meet" viewBox="0 0 793 1121"><defs><clipPath id="1"><path id="" clip-rule="evenodd" transform="matrix(1 0 0 1 0 0)" d="M0 841L0 -0.8900146L0 -0.8900146L595.276 -0.8900146L595.276 -0.8900146L595.276 841L595.276 841L0 841z" /></clipPath></defs><g transform="matrix(1.333333 0 0 1.333333 0 0)"><g clip-path="url(#1)"><path id="34" transform="matrix(1 0 0 -1 0 841)" d="M85.039 766.564L510.236 766.564" stroke="#000000" stroke-width="0.498" fill="none" /><path id="151" transform="matrix(1 0 0 -1 0 841)" d="M113.508 672.842L154.058 672.842" stroke="#000000" stroke-width="0.436" fill="none" /><path id="164" transform="matrix(1 0 0 -1 0 841)" d="M201.46 672.842L217.823 672.842" stroke="#000000" stroke-width="0.436" fill="none" /><path id="168" transform="matrix(1 0 0 -1 0 841)" d="M168.578 696.35L234.343 696.35L234.343 700.335L168.578 700.335z" stroke="none" fill="#000000" fill-rule="nonzero" /><path id="169" transform="matrix(1 0 0 -1 0 841)" d="M168.578 649.181L172.563 649.181L172.563 698.343L168.578 698.343z" stroke="none" fill="#000000" fill-rule="nonzero" /><path id="170" transform="matrix(1 0 0 -1 0 841)" d="M230.358 649.181L234.343 649.181L234.343 698.343L230.358 698.343z" stroke="none" fill="#000000" fill-rule="nonzero" /><path id="171" transform="matrix(1 0 0 -1 0 841)" d="M168.578 647.188L234.343 647.188L234.343 651.173L168.578 651.173z" stroke="none" fill="#000000" fill-rule="nonzero" /><path id="292" transform="matrix(1 0 0 -1 0 841)" d="M158.689 588.494L210.009 588.494L210.009 592.479L158.689 592.479z" stroke="none" fill="#000000" fill-rule="nonzero" /><path id="293" transform="matrix(1 0 0 -1 0 841)" d="M158.689 554.213L162.674 554.213L162.674 590.486L158.689 590.486z" stroke="none" fill="#000000" fill-rule="nonzero" /><path id="294" transform="matrix(1 0 0 -1 0 841)" d="M206.023 554.213L210.008 554.213L210.008 590.486L206.023 590.486z" stroke="none" fill="#000000" fill-rule="nonzero" /><path id="295" transform="matrix(1 0 0 -1 0 841)" d="M158.689 552.221L210.009 552.221L210.009 556.206L158.689 556.206z" stroke="none" fill="#000000" fill-rule="nonzero" /><path id="509" transform="matrix(1 0 0 -1 0 841)" d="M112.312 476.59L163.632 476.59L163.632 480.575L112.312 480.575z" stroke="none" fill="#000000" fill-rule="nonzero" /><path id="510" transform="matrix(1 0 0 -1 0 841)" d="M112.312 442.19L116.297 442.19L116.297 478.583L112.312 478.583z" stroke="none" fill="#000000" fill-rule="nonzero" /><path id="511" transform="matrix(1 0 0 -1 0 841)" d="M159.647 442.19L163.632 442.19L163.632 478.583L159.647 478.583z" stroke="none" fill="#000000" fill-rule="nonzero" /><path id="512" transform="matrix(1 0 0 -1 0 841)" d="M112.312 440.197L163.632 440.197L163.632 444.182L112.312 444.182z" stroke="none" fill="#000000" fill-rule="nonzero" /><path id="741" transform="matrix(1 0 0 -1 0 841)" d="M233.649 347.63L284.969 347.63L284.969 351.615L233.649 351.615z" stroke="none" fill="#000000" fill-rule="nonzero" /><path id="742" transform="matrix(1 0 0 -1 0 841)" d="M233.649 313.23L237.634 313.23L237.634 349.623L233.649 349.623z" stroke="none" fill="#000000" fill-rule="nonzero" /><path id="743" transform="matrix(1 0 0 -1 0 841)" d="M280.984 313.23L284.969 313.23L284.969 349.623L280.984 349.623z" stroke="none" fill="#000000" fill-rule="nonzero" /><path id="744" transform="matrix(1 0 0 -1 0 841)" d="M233.649 311.237L284.969 311.237L284.969 315.222L233.649 315.222z" stroke="none" fill="#000000" fill-rule="nonzero" /><path id="864" transform="matrix(1 0 0 -1 0 841)" d="M243.067 243.424L315.895 243.424" stroke="#000000" stroke-width="0.436" fill="none" /><path id="941" transform="matrix(1 0 0 -1 0 841)" d="M462.681 219.835L543.226 219.835L543.226 223.82L462.681 223.82z" stroke="none" fill="#000000" fill-rule="nonzero" /><path id="942" transform="matrix(1 0 0 -1 0 841)" d="M462.681 185.642L466.666 185.642L466.666 221.828L462.681 221.828z" stroke="none" fill="#000000" fill-rule="nonzero" /><path id="943" transform="matrix(1 0 0 -1 0 841)" d="M539.241 185.642L543.226 185.642L543.226 221.828L539.241 221.828z" stroke="none" fill="#000000" fill-rule="nonzero" /><path id="944" transform="matrix(1 0 0 -1 0 841)" d="M462.681 183.65L543.226 183.65L543.226 187.635L462.681 187.635z" stroke="none" fill="#000000" fill-rule="nonzero" /></g></g></svg>