<svg xmlns="http://www.w3.org/2000/svg" xmlns:xlink="http://www.w3.org/1999/xlink" id="body_354" preserveAspectRatio="xMinYMin meet" viewBox="0 0 793 1121"><defs><clipPath id="1"><path id="" clip-rule="evenodd" transform="matrix(1 0 0 1 0 0)" d="M0 841L0 -0.8900146L0 -0.8900146L595.276 -0.8900146L595.276 -0.8900146L595.276 841L595.276 841L0 841z" /></clipPath></defs><g transform="matrix(1.333333 0 0 1.333333 0 0)"><g clip-path="url(#1)"><path id="34" transform="matrix(1 0 0 -1 0 841)" d="M85.039 766.564L510.236 766.564" stroke="#000000" stroke-width="0.498" fill="none" /><path id="40" transform="matrix(1 0 0 -1 0 841)" d="M145.853 742.9L159.784 742.9" stroke="#000000" stroke-width="0.436" fill="none" /><path id="55" transform="matrix(1 0 0 -1 0 841)" d="M175.499 742.9L223.061 742.9" stroke="#000000" stroke-width="0.436" fill="none" /><path id="74" transform="matrix(1 0 0 -1 0 841)" d="M237.582 751.483L287.436 751.483" stroke="#000000" stroke-width="0.398" fill="none" /><path id="75" transform="matrix(1 0 0 -1 0 841)" d="M237.781 734.258L237.781 751.483" stroke="#000000" stroke-width="0.398" fill="none" /><path id="76" transform="matrix(1 0 0 -1 0 841)" d="M287.236 734.258L287.236 751.483" stroke="#000000" stroke-width="0.398" fill="none" /><path id="77" transform="matrix(1 0 0 -1 0 841)" d="M237.582 734.258L287.436 734.258" stroke="#000000" stroke-width="0.398" fill="none" /><g transform="matrix(0.3 0 0 0.3 112.312 176.638)"><g transform="matrix(1 0 0 1 0 0)"><image x="0" y="0" xlink:href="img_498.png" width="484" height="134" /></g></g><path id="361" transform="matrix(1 0 0 -1 0 841)" d="M176.053 509.804L182.926 509.804" stroke="#000000" stroke-width="0.436" fill="none" /><path id="376" transform="matrix(1 0 0 -1 0 841)" d="M259.323 509.804L270.232 509.804" stroke="#000000" stroke-width="0.436" fill="none" /><path id="394" transform="matrix(1 0 0 -1 0 841)" d="M349.969 509.804L366.333 509.804" stroke="#000000" stroke-width="0.436" fill="none" /><path id="449" transform="matrix(1 0 0 -1 0 841)" d="M192.591 467.163L208.954 467.163" stroke="#000000" stroke-width="0.436" fill="none" /><path id="471" transform="matrix(1 0 0 -1 0 841)" d="M302.536 467.163L318.899 467.163" stroke="#000000" stroke-width="0.436" fill="none" /><path id="520" transform="matrix(1 0 0 -1 0 841)" d="M165.003 416.524L181.366 416.524" stroke="#000000" stroke-width="0.436" fill="none" /><path id="532" transform="matrix(1 0 0 -1 0 841)" d="M211.628 416.524L226.126 416.524" stroke="#000000" stroke-width="0.436" fill="none" /><path id="546" transform="matrix(1 0 0 -1 0 841)" d="M267.047 416.524L283.41 416.524" stroke="#000000" stroke-width="0.436" fill="none" /><path id="550" transform="matrix(1 0 0 -1 0 841)" d="M240.646 431.881L287.993 431.881" stroke="#000000" stroke-width="0.398" fill="none" /><path id="551" transform="matrix(1 0 0 -1 0 841)" d="M240.845 403.006L240.845 431.882" stroke="#000000" stroke-width="0.398" fill="none" /><path id="552" transform="matrix(1 0 0 -1 0 841)" d="M287.794 403.006L287.794 431.882" stroke="#000000" stroke-width="0.398" fill="none" /><path id="553" transform="matrix(1 0 0 -1 0 841)" d="M240.646 403.006L287.993 403.006" stroke="#000000" stroke-width="0.398" fill="none" /><g transform="matrix(0.3 0 0 0.3 112.312 491.777)"><g transform="matrix(1 0 0 1 0 0)"><image x="0" y="0" xlink:href="img_498.png" width="484" height="134" /></g></g><path id="693" transform="matrix(1 0 0 -1 0 841)" d="M403.46 286.31L411.336 286.31" stroke="#000000" stroke-width="0.436" fill="none" /><path id="852" transform="matrix(1 0 0 -1 0 841)" d="M120.173 184.368L134.104 184.368" stroke="#000000" stroke-width="0.436" fill="none" /><path id="867" transform="matrix(1 0 0 -1 0 841)" d="M164.346 196.482L178.592 196.482" stroke="#000000" stroke-width="0.436" fill="none" /><path id="873" transform="matrix(1 0 0 -1 0 841)" d="M149.819 184.368L179.787 184.368" stroke="#000000" stroke-width="0.436" fill="none" /><path id="880" transform="matrix(1 0 0 -1 0 841)" d="M164.318 167.792L178.249 167.792" stroke="#000000" stroke-width="0.436" fill="none" /><path id="936" transform="matrix(1 0 0 -1 0 841)" d="M113.508 118.271L174.02 118.271" stroke="#000000" stroke-width="0.436" fill="none" /><path id="946" transform="matrix(1 0 0 -1 0 841)" d="M184.896 118.271L238.732 118.271" stroke="#000000" stroke-width="0.436" fill="none" /><path id="967" transform="matrix(1 0 0 -1 0 841)" d="M249.607 118.271L279.901 118.271" stroke="#000000" stroke-width="0.436" fill="none" /><path id="981" transform="matrix(1 0 0 -1 0 841)" d="M315.002 118.271L329.248 118.271" stroke="#000000" stroke-width="0.436" fill="none" /></g></g></svg>