<svg xmlns="http://www.w3.org/2000/svg" xmlns:xlink="http://www.w3.org/1999/xlink" id="body_336" preserveAspectRatio="xMinYMin meet" viewBox="0 0 793 1121"><defs><clipPath id="1"><path id="" clip-rule="evenodd" transform="matrix(1 0 0 1 0 0)" d="M0 841L0 -0.8900146L0 -0.8900146L595.276 -0.8900146L595.276 -0.8900146L595.276 841L595.276 841L0 841z" /></clipPath></defs><g transform="matrix(1.333333 0 0 1.333333 0 0)"><g clip-path="url(#1)"><path id="34" transform="matrix(1 0 0 -1 0 841)" d="M85.039 766.564L510.236 766.564" stroke="#000000" stroke-width="0.498" fill="none" /><path id="44" transform="matrix(1 0 0 -1 0 841)" d="M166.061 735.425L190.901 735.425" stroke="#000000" stroke-width="0.436" fill="none" /><path id="52" transform="matrix(1 0 0 -1 0 841)" d="M199.805 744.894L205.26 744.894" stroke="#000000" stroke-width="0.436" fill="none" /><path id="58" transform="matrix(1 0 0 -1 0 841)" d="M220.277 743.217L247.724 743.217" stroke="#000000" stroke-width="0.398" fill="none" /><path id="59" transform="matrix(1 0 0 -1 0 841)" d="M220.477 727.23L220.477 743.217" stroke="#000000" stroke-width="0.398" fill="none" /><path id="60" transform="matrix(1 0 0 -1 0 841)" d="M247.525 727.23L247.525 743.217" stroke="#000000" stroke-width="0.398" fill="none" /><path id="61" transform="matrix(1 0 0 -1 0 841)" d="M220.277 727.23L247.724 727.23" stroke="#000000" stroke-width="0.398" fill="none" /><path id="281" transform="matrix(1 0 0 -1 0 841)" d="M176.053 587.301L182.926 587.301" stroke="#000000" stroke-width="0.436" fill="none" /><path id="295" transform="matrix(1 0 0 -1 0 841)" d="M259.323 587.301L270.232 587.301" stroke="#000000" stroke-width="0.436" fill="none" /><path id="313" transform="matrix(1 0 0 -1 0 841)" d="M349.969 587.301L366.333 587.301" stroke="#000000" stroke-width="0.436" fill="none" /><path id="368" transform="matrix(1 0 0 -1 0 841)" d="M190.158 544.661L204.089 544.661" stroke="#000000" stroke-width="0.436" fill="none" /><path id="389" transform="matrix(1 0 0 -1 0 841)" d="M292.216 544.661L306.462 544.661" stroke="#000000" stroke-width="0.436" fill="none" /><path id="458" transform="matrix(1 0 0 -1 0 841)" d="M154.094 494.022L168.34 494.022" stroke="#000000" stroke-width="0.436" fill="none" /><path id="470" transform="matrix(1 0 0 -1 0 841)" d="M198.601 494.022L213.099 494.022" stroke="#000000" stroke-width="0.436" fill="none" /><path id="482" transform="matrix(1 0 0 -1 0 841)" d="M234.884 494.022L251.247 494.022" stroke="#000000" stroke-width="0.436" fill="none" /><path id="494" transform="matrix(1 0 0 -1 0 841)" d="M281.26 494.022L297.623 494.022" stroke="#000000" stroke-width="0.436" fill="none" /><path id="498" transform="matrix(1 0 0 -1 0 841)" d="M265.768 509.379L302.206 509.379" stroke="#000000" stroke-width="0.398" fill="none" /><path id="499" transform="matrix(1 0 0 -1 0 841)" d="M265.967 480.503L265.967 509.379" stroke="#000000" stroke-width="0.398" fill="none" /><path id="500" transform="matrix(1 0 0 -1 0 841)" d="M302.007 480.503L302.007 509.379" stroke="#000000" stroke-width="0.398" fill="none" /><path id="501" transform="matrix(1 0 0 -1 0 841)" d="M265.768 480.503L302.206 480.503" stroke="#000000" stroke-width="0.398" fill="none" /><g transform="matrix(0.3 0 0 0.3 112.312 414.28)"><g transform="matrix(1 0 0 1 0 0)"><image x="0" y="0" xlink:href="img_477.png" width="484" height="134" /></g></g><path id="634" transform="matrix(1 0 0 -1 0 841)" d="M404.3 363.807L412.176 363.807" stroke="#000000" stroke-width="0.436" fill="none" /><path id="741" transform="matrix(1 0 0 -1 0 841)" d="M121.013 281.615L134.944 281.615" stroke="#000000" stroke-width="0.436" fill="none" /><path id="755" transform="matrix(1 0 0 -1 0 841)" d="M165.186 293.473L179.432 293.473" stroke="#000000" stroke-width="0.436" fill="none" /><path id="759" transform="matrix(1 0 0 -1 0 841)" d="M150.659 281.615L180.627 281.615" stroke="#000000" stroke-width="0.436" fill="none" /><path id="802" transform="matrix(1 0 0 -1 0 841)" d="M167.588 229.095L174.461 229.095" stroke="#000000" stroke-width="0.436" fill="none" /><path id="817" transform="matrix(1 0 0 -1 0 841)" d="M250.857 229.095L261.766 229.095" stroke="#000000" stroke-width="0.436" fill="none" /><path id="836" transform="matrix(1 0 0 -1 0 841)" d="M341.504 229.095L363.322 229.095" stroke="#000000" stroke-width="0.436" fill="none" /><path id="854" transform="matrix(1 0 0 -1 0 841)" d="M145.853 198.268L159.784 198.268" stroke="#000000" stroke-width="0.436" fill="none" /><path id="868" transform="matrix(1 0 0 -1 0 841)" d="M175.499 198.268L220.04 198.268" stroke="#000000" stroke-width="0.436" fill="none" /><path id="887" transform="matrix(1 0 0 -1 0 841)" d="M234.56 206.851L284.414 206.851" stroke="#000000" stroke-width="0.398" fill="none" /><path id="888" transform="matrix(1 0 0 -1 0 841)" d="M234.759 189.626L234.759 206.851" stroke="#000000" stroke-width="0.398" fill="none" /><path id="889" transform="matrix(1 0 0 -1 0 841)" d="M284.215 189.626L284.215 206.851" stroke="#000000" stroke-width="0.398" fill="none" /><path id="890" transform="matrix(1 0 0 -1 0 841)" d="M234.56 189.626L284.414 189.626" stroke="#000000" stroke-width="0.398" fill="none" /></g></g></svg>