<svg xmlns="http://www.w3.org/2000/svg" xmlns:xlink="http://www.w3.org/1999/xlink" id="body_289" preserveAspectRatio="xMinYMin meet" viewBox="0 0 793 1121"><defs><clipPath id="1"><path id="" clip-rule="evenodd" transform="matrix(1 0 0 1 0 0)" d="M0 841L0 -0.8900146L0 -0.8900146L595.276 -0.8900146L595.276 -0.8900146L595.276 841L595.276 841L0 841z" /></clipPath></defs><g transform="matrix(1.333333 0 0 1.333333 0 0)"><g clip-path="url(#1)"><path id="22" transform="matrix(1 0 0 -1 0 841)" d="M85.039 766.564L510.236 766.564" stroke="#000000" stroke-width="0.498" fill="none" /><path id="344" transform="matrix(1 0 0 -1 0 841)" d="M396.8539 576.2495C 396.8539 623.2166 358.7806 661.2899 311.8135 661.2899C 264.8463 661.2899 226.773 623.2166 226.773 576.2495C 226.773 529.2823 264.8463 491.209 311.8135 491.209C 358.7806 491.209 396.8539 529.2823 396.8539 576.2495z" stroke="#000000" stroke-width="0.3985" fill="#F2F2F2" fill-rule="nonzero" /><path id="345" transform="matrix(1 0 0 -1 0 841)" d="M226.773 576.2495L396.8539 576.2495" stroke="#000000" stroke-width="1.19553" fill="none" /><path id="402" transform="matrix(1 0 0 -1 0 841)" d="M266.4584 505.3824L311.8135 576.2495" stroke="#000000" stroke-width="1.19553" fill="none" /><path id="403" transform="matrix(1 0 0 -1 0 841)" d="M357.1685 505.3824L311.8135 576.2495" stroke="#000000" stroke-width="1.19553" fill="none" /><path id="404" transform="matrix(1 0 0 -1 0 841)" d="M215.119 576.2495C 215.119 585.4687 207.6455 592.9422 198.4262 592.9422C 189.207 592.9422 181.7335 585.4687 181.7335 576.2495C 181.7335 567.0302 189.207 559.5567 198.4262 559.5567C 207.6455 559.5567 215.119 567.0302 215.119 576.2495z" stroke="#000000" stroke-width="1.39478" fill="#FFCCCC" fill-rule="nonzero" /><path id="405" transform="matrix(1 0 0 -1 0 841)" d="M215.119 576.2495C 215.119 585.4687 207.6455 592.9422 198.4262 592.9422C 189.207 592.9422 181.7335 585.4687 181.7335 576.2495C 181.7335 567.0302 189.207 559.5567 198.4262 559.5567C 207.6455 559.5567 215.119 567.0302 215.119 576.2495z" stroke="#FFFFFF" stroke-width="0.59776" fill="none" /><path id="406" transform="matrix(1 0 0 -1 0 841)" d="M181.9327 576.2495L214.9197 576.2495" stroke="#000000" stroke-width="0.3985" fill="none" /><path id="409" transform="matrix(1 0 0 -1 0 841)" d="M268.8398 485.5397C 268.8398 496.2482 260.1591 504.9289 249.4506 504.9289C 238.7421 504.9289 230.0614 496.2482 230.0614 485.5397C 230.0614 474.8313 238.7421 466.1505 249.4506 466.1505C 260.1591 466.1505 268.8398 474.8313 268.8398 485.5397z" stroke="#000000" stroke-width="1.39478" fill="#FFCCCC" fill-rule="nonzero" /><path id="410" transform="matrix(1 0 0 -1 0 841)" d="M268.8398 485.5397C 268.8398 496.2482 260.1591 504.9289 249.4506 504.9289C 238.7421 504.9289 230.0614 496.2482 230.0614 485.5397C 230.0614 474.8313 238.7421 466.1505 249.4506 466.1505C 260.1591 466.1505 268.8398 474.8313 268.8398 485.5397z" stroke="#FFFFFF" stroke-width="0.59776" fill="none" /><path id="411" transform="matrix(1 0 0 -1 0 841)" d="M230.2606 485.5397L268.6405 485.5397" stroke="#000000" stroke-width="0.3985" fill="none" /><path id="421" transform="matrix(1 0 0 -1 0 841)" d="M387.8963 485.5397C 387.8963 496.2482 379.2156 504.9289 368.5071 504.9289C 357.7986 504.9289 349.1179 496.2482 349.1179 485.5397C 349.1179 474.8313 357.7986 466.1505 368.5071 466.1505C 379.2156 466.1505 387.8963 474.8313 387.8963 485.5397z" stroke="#000000" stroke-width="1.39478" fill="#FFCCCC" fill-rule="nonzero" /><path id="422" transform="matrix(1 0 0 -1 0 841)" d="M387.8963 485.5397C 387.8963 496.2482 379.2156 504.9289 368.5071 504.9289C 357.7986 504.9289 349.1179 496.2482 349.1179 485.5397C 349.1179 474.8313 357.7986 466.1505 368.5071 466.1505C 379.2156 466.1505 387.8963 474.8313 387.8963 485.5397z" stroke="#FFFFFF" stroke-width="0.59776" fill="none" /><path id="423" transform="matrix(1 0 0 -1 0 841)" d="M349.3171 485.5397L387.6971 485.5397" stroke="#000000" stroke-width="0.3985" fill="none" /><path id="608" transform="matrix(1 0 0 -1 0 841)" d="M245.578 360.974L258.909 360.974" stroke="#000000" stroke-width="0.436" fill="none" /><path id="620" transform="matrix(1 0 0 -1 0 841)" d="M373.273 374.937L389.593 374.937" stroke="#000000" stroke-width="0.436" fill="none" /><path id="624" transform="matrix(1 0 0 -1 0 841)" d="M281.137 360.974L447.234 360.974" stroke="#000000" stroke-width="0.436" fill="none" /><path id="748" transform="matrix(1 0 0 -1 0 841)" d="M395.963 310.761L412.283 310.761" stroke="#000000" stroke-width="0.436" fill="none" /><path id="752" transform="matrix(1 0 0 -1 0 841)" d="M323.964 296.798L449.788 296.798" stroke="#000000" stroke-width="0.436" fill="none" /><path id="769" transform="matrix(1 0 0 -1 0 841)" d="M395.424 285.453L408.755 285.453" stroke="#000000" stroke-width="0.436" fill="none" /></g></g></svg>