<svg xmlns="http://www.w3.org/2000/svg" xmlns:xlink="http://www.w3.org/1999/xlink" id="body_9" preserveAspectRatio="xMinYMin meet" viewBox="0 0 793 1121"><defs><clipPath id="1"><path id="" clip-rule="evenodd" transform="matrix(1 0 0 1 0 0)" d="M0 841L0 -0.8900146L0 -0.8900146L595.276 -0.8900146L595.276 -0.8900146L595.276 841L595.276 841L0 841z" /></clipPath></defs><g transform="matrix(1.333333 0 0 1.333333 0 0)"><g clip-path="url(#1)"><path id="331" transform="matrix(1 0 0 -1 0 841)" d="M85.039 584.082L115.07 584.082L115.07 603.924L85.039 603.924z" stroke="none" fill="#FDE0D1" fill-rule="nonzero" /><path id="334" transform="matrix(1 0 0 -1 0 841)" d="M119.055 584.082L510.236 584.082L510.236 603.924L119.055 603.924z" stroke="none" fill="#FAC2A3" fill-rule="nonzero" /><path id="686" transform="matrix(1 0 0 -1 0 841)" d="M85.039 346.321L115.07 346.321L115.07 366.163L85.039 366.163z" stroke="none" fill="#FDE0D1" fill-rule="nonzero" /><path id="690" transform="matrix(1 0 0 -1 0 841)" d="M119.055 346.321L510.236 346.321L510.236 366.163L119.055 366.163z" stroke="none" fill="#FAC2A3" fill-rule="nonzero" /></g></g></svg>