<svg xmlns="http://www.w3.org/2000/svg" xmlns:xlink="http://www.w3.org/1999/xlink" id="body_271" preserveAspectRatio="xMinYMin meet" viewBox="0 0 793 1121"><defs><clipPath id="1"><path id="" clip-rule="evenodd" transform="matrix(1 0 0 1 0 0)" d="M0 841L0 -0.8900146L0 -0.8900146L595.276 -0.8900146L595.276 -0.8900146L595.276 841L595.276 841L0 841z" /></clipPath></defs><g transform="matrix(1.333333 0 0 1.333333 0 0)"><g clip-path="url(#1)"><path id="27" transform="matrix(1 0 0 -1 0 841)" d="M85.039 766.564L510.236 766.564" stroke="#000000" stroke-width="0.498" fill="none" /><path id="142" transform="matrix(1 0 0 -1 0 841)" d="M330.0166 689.8948L265.2594 689.8948C 263.0585 689.8948 261.2743 688.1107 261.2743 685.9097L261.2743 685.9097L261.2743 661.1523C 261.2743 658.9514 263.0585 657.1672 265.2594 657.1672L265.2594 657.1672L330.0166 657.1672C 332.2175 657.1672 334.0017 658.9514 334.0017 661.1523L334.0017 661.1523L334.0017 685.9097C 334.0017 688.1107 332.2175 689.8948 330.0166 689.8948z" stroke="#000000" stroke-width="0.3985" fill="#FF9999" fill-rule="nonzero" /><path id="220" transform="matrix(1 0 0 -1 0 841)" d="M211.9193 673.531L258.6841 673.531" stroke="#000000" stroke-width="0.3985" fill="none" /><path id="221" transform="matrix(1 0 0 -1 0 841)" d="M261.075 673.531C 260.0788 673.7303 258.2855 674.1288 257.09 675.0254C 258.0863 673.9295 258.0863 673.1325 257.09 672.0366C 258.2855 672.9332 260.0788 673.3317 261.075 673.531z" stroke="none" fill="#000000" fill-rule="nonzero" /><path id="222" transform="matrix(1 0 0 -1 0 841)" d="M334.2009 673.531L380.9657 673.531" stroke="#000000" stroke-width="0.3985" fill="none" /><path id="223" transform="matrix(1 0 0 -1 0 841)" d="M383.3567 673.531C 382.3604 673.7303 380.5672 674.1288 379.3717 675.0254C 380.368 673.9295 380.368 673.1325 379.3717 672.0366C 380.5672 672.9332 382.3604 673.3317 383.3567 673.531z" stroke="none" fill="#000000" fill-rule="nonzero" /><path id="224" transform="matrix(1 0 0 -1 0 841)" d="M297.638 656.9679L297.638 642.6917" stroke="#000000" stroke-width="0.3985" fill="none" /><path id="225" transform="matrix(1 0 0 -1 0 841)" d="M297.638 640.3007C 297.8372 641.2969 298.2357 643.0901 299.1324 644.2856C 298.0365 643.2894 297.2395 643.2894 296.1436 644.2856C 297.0403 643.0901 297.4388 641.2969 297.638 640.3007z" stroke="none" fill="#000000" fill-rule="nonzero" /><path id="287" transform="matrix(1 0 0 -1 0 841)" d="M244.376 569.184L289.138 569.184" stroke="#000000" stroke-width="0.436" fill="none" /><path id="313" transform="matrix(1 0 0 -1 0 841)" d="M329.702 569.184L427.733 569.184" stroke="#000000" stroke-width="0.436" fill="none" /><path id="542" transform="matrix(1 0 0 -1 0 841)" d="M208.922 443.558L246.904 443.558" stroke="#000000" stroke-width="0.436" fill="none" /><path id="557" transform="matrix(1 0 0 -1 0 841)" d="M301.408 443.558L337.754 443.558" stroke="#000000" stroke-width="0.436" fill="none" /><path id="568" transform="matrix(1 0 0 -1 0 841)" d="M377.123 451.47L403.894 451.47" stroke="#000000" stroke-width="0.398" fill="none" /><path id="569" transform="matrix(1 0 0 -1 0 841)" d="M377.322 437.474L377.322 451.47" stroke="#000000" stroke-width="0.398" fill="none" /><path id="570" transform="matrix(1 0 0 -1 0 841)" d="M403.694 437.474L403.694 451.47" stroke="#000000" stroke-width="0.398" fill="none" /><path id="571" transform="matrix(1 0 0 -1 0 841)" d="M377.123 437.474L403.894 437.474" stroke="#000000" stroke-width="0.398" fill="none" /><path id="709" transform="matrix(1 0 0 -1 0 841)" d="M410.219 349.813L421.128 349.813" stroke="#000000" stroke-width="0.436" fill="none" /><path id="1156" transform="matrix(1 0 0 -1 0 841)" d="M425.066 197.385L429.942 197.385" stroke="#000000" stroke-width="0.436" fill="none" /><path id="1250" transform="matrix(1 0 0 -1 0 841)" d="M193.863 162.347L198.739 162.347" stroke="#000000" stroke-width="0.436" fill="none" /><path id="1255" transform="matrix(1 0 0 -1 0 841)" d="M214.455 162.347L223.782 162.347" stroke="#000000" stroke-width="0.436" fill="none" /></g></g></svg>