<svg xmlns="http://www.w3.org/2000/svg" xmlns:xlink="http://www.w3.org/1999/xlink" id="body_315" preserveAspectRatio="xMinYMin meet" viewBox="0 0 793 1121"><defs><clipPath id="1"><path id="" clip-rule="evenodd" transform="matrix(1 0 0 1 0 0)" d="M0 841L0 -0.8900146L0 -0.8900146L595.276 -0.8900146L595.276 -0.8900146L595.276 841L595.276 841L0 841z" /></clipPath></defs><g transform="matrix(1.333333 0 0 1.333333 0 0)"><g clip-path="url(#1)"><path id="23" transform="matrix(1 0 0 -1 0 841)" d="M85.039 766.564L510.236 766.564" stroke="#000000" stroke-width="0.498" fill="none" /><path id="217" transform="matrix(1 0 0 -1 0 841)" d="M215.369 660.771L229.3 660.771" stroke="#000000" stroke-width="0.436" fill="none" /><path id="224" transform="matrix(1 0 0 -1 0 841)" d="M231.69 660.771L245.621 660.771" stroke="#000000" stroke-width="0.436" fill="none" /><path id="234" transform="matrix(1 0 0 -1 0 841)" d="M256.497 660.771L288.078 660.771" stroke="#000000" stroke-width="0.436" fill="none" /><path id="250" transform="matrix(1 0 0 -1 0 841)" d="M336.478 660.771L361.318 660.771" stroke="#000000" stroke-width="0.436" fill="none" /><path id="263" transform="matrix(1 0 0 -1 0 841)" d="M375.838 668.53L415.34 668.53" stroke="#000000" stroke-width="0.398" fill="none" /><path id="264" transform="matrix(1 0 0 -1 0 841)" d="M376.037 654.615L376.037 668.529" stroke="#000000" stroke-width="0.398" fill="none" /><path id="265" transform="matrix(1 0 0 -1 0 841)" d="M415.14 654.615L415.14 668.529" stroke="#000000" stroke-width="0.398" fill="none" /><path id="266" transform="matrix(1 0 0 -1 0 841)" d="M375.838 654.615L415.34 654.615" stroke="#000000" stroke-width="0.398" fill="none" /><g transform="matrix(0.375 0 0 0.375 85.039 638.264)"><g transform="matrix(1 0 0 1 0 0)"><image x="0" y="0" xlink:href="img_455.png" width="474" height="243" /></g></g><path id="811" transform="matrix(1 0 0 -1 0 841)" d="M192.487 93.278L206.418 93.278" stroke="#000000" stroke-width="0.436" fill="none" /><path id="829" transform="matrix(1 0 0 -1 0 841)" d="M281.565 93.278L295.811 93.278" stroke="#000000" stroke-width="0.436" fill="none" /><path id="833" transform="matrix(1 0 0 -1 0 841)" d="M271.528 110.416L300.395 110.416" stroke="#000000" stroke-width="0.398" fill="none" /><path id="834" transform="matrix(1 0 0 -1 0 841)" d="M271.727 79.759L271.727 110.416" stroke="#000000" stroke-width="0.398" fill="none" /><path id="835" transform="matrix(1 0 0 -1 0 841)" d="M300.195 79.759L300.195 110.416" stroke="#000000" stroke-width="0.398" fill="none" /><path id="836" transform="matrix(1 0 0 -1 0 841)" d="M271.528 79.759L300.395 79.759" stroke="#000000" stroke-width="0.398" fill="none" /></g></g></svg>