<svg xmlns="http://www.w3.org/2000/svg" xmlns:xlink="http://www.w3.org/1999/xlink" id="body_339" preserveAspectRatio="xMinYMin meet" viewBox="0 0 793 1121"><defs><clipPath id="1"><path id="" clip-rule="evenodd" transform="matrix(1 0 0 1 0 0)" d="M0 841L0 -0.8900146L0 -0.8900146L595.276 -0.8900146L595.276 -0.8900146L595.276 841L595.276 841L0 841z" /></clipPath></defs><g transform="matrix(1.333333 0 0 1.333333 0 0)"><g clip-path="url(#1)"><path id="22" transform="matrix(1 0 0 -1 0 841)" d="M85.039 766.564L510.236 766.564" stroke="#000000" stroke-width="0.498" fill="none" /><path id="317" transform="matrix(1 0 0 -1 0 841)" d="M290.233 635.164L315.073 635.164" stroke="#000000" stroke-width="0.436" fill="none" /><path id="327" transform="matrix(1 0 0 -1 0 841)" d="M329.593 642.923L350.298 642.923" stroke="#000000" stroke-width="0.398" fill="none" /><path id="328" transform="matrix(1 0 0 -1 0 841)" d="M329.792 629.08L329.792 642.923" stroke="#000000" stroke-width="0.398" fill="none" /><path id="329" transform="matrix(1 0 0 -1 0 841)" d="M350.099 629.08L350.099 642.923" stroke="#000000" stroke-width="0.398" fill="none" /><path id="330" transform="matrix(1 0 0 -1 0 841)" d="M329.593 629.08L350.298 629.08" stroke="#000000" stroke-width="0.398" fill="none" /><path id="564" transform="matrix(1 0 0 -1 0 841)" d="M478.705 539.143L498.09 539.143" stroke="#000000" stroke-width="0.436" fill="none" /><path id="573" transform="matrix(1 0 0 -1 0 841)" d="M112.312 527.568L133.017 527.568" stroke="#000000" stroke-width="0.398" fill="none" /><path id="574" transform="matrix(1 0 0 -1 0 841)" d="M112.511 513.894L112.511 527.568" stroke="#000000" stroke-width="0.398" fill="none" /><path id="575" transform="matrix(1 0 0 -1 0 841)" d="M132.818 513.894L132.818 527.568" stroke="#000000" stroke-width="0.398" fill="none" /><path id="576" transform="matrix(1 0 0 -1 0 841)" d="M112.312 513.894L133.017 513.894" stroke="#000000" stroke-width="0.398" fill="none" /><path id="677" transform="matrix(1 0 0 -1 0 841)" d="M132.893 432.603L147.391 432.603" stroke="#000000" stroke-width="0.436" fill="none" /><path id="694" transform="matrix(1 0 0 -1 0 841)" d="M219.204 432.603L233.702 432.603" stroke="#000000" stroke-width="0.436" fill="none" /><path id="698" transform="matrix(1 0 0 -1 0 841)" d="M189.781 447.96L238.284 447.96" stroke="#000000" stroke-width="0.398" fill="none" /><path id="699" transform="matrix(1 0 0 -1 0 841)" d="M189.98 416.979L189.98 447.96" stroke="#000000" stroke-width="0.398" fill="none" /><path id="700" transform="matrix(1 0 0 -1 0 841)" d="M238.085 416.979L238.085 447.96" stroke="#000000" stroke-width="0.398" fill="none" /><path id="701" transform="matrix(1 0 0 -1 0 841)" d="M189.781 416.979L238.284 416.979" stroke="#000000" stroke-width="0.398" fill="none" /><path id="798" transform="matrix(1 0 0 -1 0 841)" d="M132.893 340.845L147.391 340.845" stroke="#000000" stroke-width="0.436" fill="none" /><path id="825" transform="matrix(1 0 0 -1 0 841)" d="M253.096 340.845L267.594 340.845" stroke="#000000" stroke-width="0.436" fill="none" /><path id="829" transform="matrix(1 0 0 -1 0 841)" d="M223.673 356.202L272.176 356.202" stroke="#000000" stroke-width="0.398" fill="none" /><path id="830" transform="matrix(1 0 0 -1 0 841)" d="M223.872 325.221L223.872 356.202" stroke="#000000" stroke-width="0.398" fill="none" /><path id="831" transform="matrix(1 0 0 -1 0 841)" d="M271.977 325.221L271.977 356.202" stroke="#000000" stroke-width="0.398" fill="none" /><path id="832" transform="matrix(1 0 0 -1 0 841)" d="M223.673 325.221L272.176 325.221" stroke="#000000" stroke-width="0.398" fill="none" /><path id="981" transform="matrix(1 0 0 -1 0 841)" d="M330.0166 212.5208L265.2594 212.5208C 263.0585 212.5208 261.2743 210.7367 261.2743 208.5357L261.2743 208.5357L261.2743 183.7783C 261.2743 181.5773 263.0585 179.7932 265.2594 179.7932L265.2594 179.7932L330.0166 179.7932C 332.2175 179.7932 334.0017 181.5773 334.0017 183.7783L334.0017 183.7783L334.0017 208.5357C 334.0017 210.7367 332.2175 212.5208 330.0166 212.5208z" stroke="#000000" stroke-width="0.3985" fill="#FF9999" fill-rule="nonzero" /><path id="1023" transform="matrix(1 0 0 -1 0 841)" d="M186.7903 196.157L258.6841 196.157" stroke="#000000" stroke-width="0.3985" fill="none" /><path id="1024" transform="matrix(1 0 0 -1 0 841)" d="M261.075 196.157C 260.0788 196.3562 258.2855 196.7547 257.09 197.6514C 258.0863 196.5555 258.0863 195.7585 257.09 194.6626C 258.2855 195.5592 260.0788 195.9577 261.075 196.157z" stroke="none" fill="#000000" fill-rule="nonzero" /><path id="1025" transform="matrix(1 0 0 -1 0 841)" d="M334.2009 196.157L406.0946 196.157" stroke="#000000" stroke-width="0.3985" fill="none" /><path id="1026" transform="matrix(1 0 0 -1 0 841)" d="M408.4856 196.157C 407.4893 196.3562 405.6961 196.7547 404.5006 197.6514C 405.4969 196.5555 405.4969 195.7585 404.5006 194.6626C 405.6961 195.5592 407.4893 195.9577 408.4856 196.157z" stroke="none" fill="#000000" fill-rule="nonzero" /><path id="1027" transform="matrix(1 0 0 -1 0 841)" d="M297.638 179.5939L297.638 165.3177" stroke="#000000" stroke-width="0.3985" fill="none" /><path id="1028" transform="matrix(1 0 0 -1 0 841)" d="M297.638 162.9267C 297.8372 163.9229 298.2357 165.7162 299.1324 166.9117C 298.0365 165.9154 297.2395 165.9154 296.1436 166.9117C 297.0403 165.7162 297.4388 163.9229 297.638 162.9267z" stroke="none" fill="#000000" fill-rule="nonzero" /><path id="1058" transform="matrix(1 0 0 -1 0 841)" d="M244.376 105.478L289.138 105.478" stroke="#000000" stroke-width="0.436" fill="none" /><path id="1076" transform="matrix(1 0 0 -1 0 841)" d="M329.702 105.478L379.979 105.478" stroke="#000000" stroke-width="0.436" fill="none" /><path id="1091" transform="matrix(1 0 0 -1 0 841)" d="M419.348 113.237L454.595 113.237" stroke="#000000" stroke-width="0.398" fill="none" /><path id="1092" transform="matrix(1 0 0 -1 0 841)" d="M419.547 99.323L419.547 113.237" stroke="#000000" stroke-width="0.398" fill="none" /><path id="1093" transform="matrix(1 0 0 -1 0 841)" d="M454.396 99.323L454.396 113.237" stroke="#000000" stroke-width="0.398" fill="none" /><path id="1094" transform="matrix(1 0 0 -1 0 841)" d="M419.348 99.323L454.595 99.323" stroke="#000000" stroke-width="0.398" fill="none" /></g></g></svg>