<svg xmlns="http://www.w3.org/2000/svg" xmlns:xlink="http://www.w3.org/1999/xlink" id="body_331" preserveAspectRatio="xMinYMin meet" viewBox="0 0 793 1121"><defs><clipPath id="1"><path id="" clip-rule="evenodd" transform="matrix(1 0 0 1 0 0)" d="M0 841L0 -0.8900146L0 -0.8900146L595.276 -0.8900146L595.276 -0.8900146L595.276 841L595.276 841L0 841z" /></clipPath></defs><g transform="matrix(1.333333 0 0 1.333333 0 0)"><g clip-path="url(#1)"><path id="34" transform="matrix(1 0 0 -1 0 841)" d="M85.039 766.564L510.236 766.564" stroke="#000000" stroke-width="0.498" fill="none" /><path id="100" transform="matrix(1 0 0 -1 0 841)" d="M154.094 720.586L168.34 720.586" stroke="#000000" stroke-width="0.436" fill="none" /><path id="112" transform="matrix(1 0 0 -1 0 841)" d="M198.601 720.586L213.099 720.586" stroke="#000000" stroke-width="0.436" fill="none" /><path id="124" transform="matrix(1 0 0 -1 0 841)" d="M234.884 720.586L251.247 720.586" stroke="#000000" stroke-width="0.436" fill="none" /><path id="136" transform="matrix(1 0 0 -1 0 841)" d="M281.26 720.586L297.623 720.586" stroke="#000000" stroke-width="0.436" fill="none" /><path id="140" transform="matrix(1 0 0 -1 0 841)" d="M265.768 735.943L302.206 735.943" stroke="#000000" stroke-width="0.398" fill="none" /><path id="141" transform="matrix(1 0 0 -1 0 841)" d="M265.967 707.067L265.967 735.943" stroke="#000000" stroke-width="0.398" fill="none" /><path id="142" transform="matrix(1 0 0 -1 0 841)" d="M302.007 707.067L302.007 735.943" stroke="#000000" stroke-width="0.398" fill="none" /><path id="143" transform="matrix(1 0 0 -1 0 841)" d="M265.768 707.067L302.206 707.067" stroke="#000000" stroke-width="0.398" fill="none" /><g transform="matrix(0.3 0 0 0.3 112.312 187.716)"><g transform="matrix(1 0 0 1 0 0)"><image x="0" y="0" xlink:href="img_465.png" width="484" height="134" /></g></g><path id="276" transform="matrix(1 0 0 -1 0 841)" d="M404.3 590.371L412.176 590.371" stroke="#000000" stroke-width="0.436" fill="none" /><path id="383" transform="matrix(1 0 0 -1 0 841)" d="M121.013 508.179L134.944 508.179" stroke="#000000" stroke-width="0.436" fill="none" /><path id="397" transform="matrix(1 0 0 -1 0 841)" d="M165.186 520.037L179.432 520.037" stroke="#000000" stroke-width="0.436" fill="none" /><path id="401" transform="matrix(1 0 0 -1 0 841)" d="M150.659 508.179L180.627 508.179" stroke="#000000" stroke-width="0.436" fill="none" /><path id="444" transform="matrix(1 0 0 -1 0 841)" d="M167.588 455.658L174.461 455.658" stroke="#000000" stroke-width="0.436" fill="none" /><path id="459" transform="matrix(1 0 0 -1 0 841)" d="M250.857 455.658L261.766 455.658" stroke="#000000" stroke-width="0.436" fill="none" /><path id="478" transform="matrix(1 0 0 -1 0 841)" d="M341.504 455.658L363.322 455.658" stroke="#000000" stroke-width="0.436" fill="none" /><path id="496" transform="matrix(1 0 0 -1 0 841)" d="M145.853 424.832L159.784 424.832" stroke="#000000" stroke-width="0.436" fill="none" /><path id="510" transform="matrix(1 0 0 -1 0 841)" d="M175.499 424.832L220.04 424.832" stroke="#000000" stroke-width="0.436" fill="none" /><path id="529" transform="matrix(1 0 0 -1 0 841)" d="M234.56 433.415L284.414 433.415" stroke="#000000" stroke-width="0.398" fill="none" /><path id="530" transform="matrix(1 0 0 -1 0 841)" d="M234.759 416.19L234.759 433.415" stroke="#000000" stroke-width="0.398" fill="none" /><path id="531" transform="matrix(1 0 0 -1 0 841)" d="M284.215 416.19L284.215 433.415" stroke="#000000" stroke-width="0.398" fill="none" /><path id="532" transform="matrix(1 0 0 -1 0 841)" d="M234.56 416.19L284.414 416.19" stroke="#000000" stroke-width="0.398" fill="none" /><g transform="matrix(0.3 0 0 0.3 112.312 508.807)"><g transform="matrix(1 0 0 1 0 0)"><image x="0" y="0" xlink:href="img_392.png" width="474" height="243" /></g></g><path id="711" transform="matrix(1 0 0 -1 0 841)" d="M205.458 245.084L213.334 245.084" stroke="#000000" stroke-width="0.436" fill="none" /><path id="805" transform="matrix(1 0 0 -1 0 841)" d="M447.643 201.204L480.959 201.204" stroke="#000000" stroke-width="0.436" fill="none" /><path id="824" transform="matrix(1 0 0 -1 0 841)" d="M168.445 172.539L201.761 172.539" stroke="#000000" stroke-width="0.436" fill="none" /><path id="852" transform="matrix(1 0 0 -1 0 841)" d="M307.792 172.539L322.038 172.539" stroke="#000000" stroke-width="0.436" fill="none" /><path id="856" transform="matrix(1 0 0 -1 0 841)" d="M283.824 189.677L326.621 189.677" stroke="#000000" stroke-width="0.398" fill="none" /><path id="857" transform="matrix(1 0 0 -1 0 841)" d="M284.023 159.021L284.023 189.678" stroke="#000000" stroke-width="0.398" fill="none" /><path id="858" transform="matrix(1 0 0 -1 0 841)" d="M326.422 159.021L326.422 189.678" stroke="#000000" stroke-width="0.398" fill="none" /><path id="859" transform="matrix(1 0 0 -1 0 841)" d="M283.824 159.021L326.621 159.021" stroke="#000000" stroke-width="0.398" fill="none" /></g></g></svg>