<svg xmlns="http://www.w3.org/2000/svg" xmlns:xlink="http://www.w3.org/1999/xlink" id="body_289" preserveAspectRatio="xMinYMin meet" viewBox="0 0 793 1121"><defs><clipPath id="1"><path id="" clip-rule="evenodd" transform="matrix(1 0 0 1 0 0)" d="M0 841L0 -0.8900146L0 -0.8900146L595.276 -0.8900146L595.276 -0.8900146L595.276 841L595.276 841L0 841z" /></clipPath></defs><g transform="matrix(1.333333 0 0 1.333333 0 0)"><g clip-path="url(#1)"><path id="26" transform="matrix(1 0 0 -1 0 841)" d="M85.039 766.564L510.236 766.564" stroke="#000000" stroke-width="0.498" fill="none" /><path id="223" transform="matrix(1 0 0 -1 0 841)" d="M262.758 696.573L304.874 696.573" stroke="#000000" stroke-width="0.436" fill="none" /><path id="270" transform="matrix(1 0 0 -1 0 841)" d="M435.437 704.43L492.449 704.43" stroke="#000000" stroke-width="0.398" fill="none" /><path id="271" transform="matrix(1 0 0 -1 0 841)" d="M435.636 688.296L435.636 704.43" stroke="#000000" stroke-width="0.398" fill="none" /><path id="272" transform="matrix(1 0 0 -1 0 841)" d="M492.249 688.296L492.249 704.43" stroke="#000000" stroke-width="0.398" fill="none" /><path id="273" transform="matrix(1 0 0 -1 0 841)" d="M435.437 688.296L492.449 688.296" stroke="#000000" stroke-width="0.398" fill="none" /><path id="504" transform="matrix(1 0 0 -1 0 841)" d="M306.151 606.104L454.139 606.104" stroke="#000000" stroke-width="0.436" fill="none" /><path id="683" transform="matrix(1 0 0 -1 0 841)" d="M318.151 517.912L466.139 517.912" stroke="#000000" stroke-width="0.436" fill="none" /><path id="831" transform="matrix(1 0 0 -1 0 841)" d="M289.633 437.703L333.267 437.703" stroke="#000000" stroke-width="0.436" fill="none" /><path id="857" transform="matrix(1 0 0 -1 0 841)" d="M279.809 419.812L419.092 419.812" stroke="#000000" stroke-width="0.436" fill="none" /><path id="880" transform="matrix(1 0 0 -1 0 841)" d="M433.612 428.395L490.077 428.395" stroke="#000000" stroke-width="0.398" fill="none" /><path id="881" transform="matrix(1 0 0 -1 0 841)" d="M433.811 411.17L433.811 428.395" stroke="#000000" stroke-width="0.398" fill="none" /><path id="882" transform="matrix(1 0 0 -1 0 841)" d="M489.877 411.17L489.877 428.395" stroke="#000000" stroke-width="0.398" fill="none" /><path id="883" transform="matrix(1 0 0 -1 0 841)" d="M433.612 411.17L490.077 411.17" stroke="#000000" stroke-width="0.398" fill="none" /><path id="1029" transform="matrix(1 0 0 -1 0 841)" d="M302.054 364.631L397.377 364.631" stroke="#000000" stroke-width="0.436" fill="none" /><path id="1241" transform="matrix(1 0 0 -1 0 841)" d="M236.512 263.146L307.347 263.146" stroke="#000000" stroke-width="0.436" fill="none" /><path id="1265" transform="matrix(1 0 0 -1 0 841)" d="M346.715 270.904L381.962 270.904" stroke="#000000" stroke-width="0.398" fill="none" /><path id="1266" transform="matrix(1 0 0 -1 0 841)" d="M346.914 257.061L346.914 270.904" stroke="#000000" stroke-width="0.398" fill="none" /><path id="1267" transform="matrix(1 0 0 -1 0 841)" d="M381.763 257.061L381.763 270.904" stroke="#000000" stroke-width="0.398" fill="none" /><path id="1268" transform="matrix(1 0 0 -1 0 841)" d="M346.715 257.061L381.962 257.061" stroke="#000000" stroke-width="0.398" fill="none" /></g></g></svg>