<svg xmlns="http://www.w3.org/2000/svg" xmlns:xlink="http://www.w3.org/1999/xlink" id="body_334" preserveAspectRatio="xMinYMin meet" viewBox="0 0 793 1121"><defs><clipPath id="1"><path id="" clip-rule="evenodd" transform="matrix(1 0 0 1 0 0)" d="M0 841L0 -0.8900146L0 -0.8900146L595.276 -0.8900146L595.276 -0.8900146L595.276 841L595.276 841L0 841z" /></clipPath></defs><g transform="matrix(1.333333 0 0 1.333333 0 0)"><g clip-path="url(#1)"><path id="34" transform="matrix(1 0 0 -1 0 841)" d="M85.039 766.564L510.236 766.564" stroke="#000000" stroke-width="0.498" fill="none" /><path id="35" transform="matrix(1 0 0 -1 0 841)" d="M225.897 729.3676L112.5098 729.3676L112.5098 729.3676L112.5098 672.674L112.5098 672.674L225.897 672.674z" stroke="#000000" stroke-width="0.3985" fill="#E6E6E6" fill-rule="nonzero" /><path id="36" transform="matrix(1 0 0 -1 0 841)" d="M225.897 729.3676L253.1804 756.651L253.1804 756.651L253.1804 699.9574L253.1804 699.9574L225.897 672.674z" stroke="#000000" stroke-width="0.3985" fill="#FFFFFF" fill-rule="nonzero" /><path id="37" transform="matrix(1 0 0 -1 0 841)" d="M225.897 729.3676L253.1804 756.651L253.1804 756.651L253.1804 699.9574L253.1804 699.9574L225.897 672.674z" stroke="#000000" stroke-width="0.3985" fill="#E6E6E6" fill-rule="nonzero" /><path id="38" transform="matrix(1 0 0 -1 0 841)" d="M225.897 729.3676L112.5098 729.3676L112.5098 729.3676L139.7932 756.651L139.7932 756.651L253.1804 756.651z" stroke="#000000" stroke-width="0.3985" fill="#E6E6E6" fill-rule="nonzero" /><path id="39" transform="matrix(1 0 0 -1 0 841)" d="M225.897 729.3676L112.5098 729.3676L112.5098 729.3676L139.7932 756.651L139.7932 756.651L253.1804 756.651z" stroke="#000000" stroke-width="0.3985" fill="none" /><path id="40" transform="matrix(1 0 0 -1 0 841)" d="M123.8483 703.8557C 123.8483 708.5524 121.3102 712.3598 118.1791 712.3598C 115.048 712.3598 112.5098 708.5524 112.5098 703.8557C 112.5098 699.1589 115.048 695.3516 118.1791 695.3516C 121.3102 695.3516 123.8483 699.1589 123.8483 703.8557z" stroke="#000000" stroke-width="0.3985" fill="none" /><path id="41" transform="matrix(1 0 0 -1 0 841)" d="M245.7397 703.8557C 245.7397 708.5524 243.2015 712.3598 240.0704 712.3598C 236.9393 712.3598 234.4011 708.5524 234.4011 703.8557C 234.4011 699.1589 236.9393 695.3516 240.0704 695.3516C 243.2015 695.3516 245.7397 699.1589 245.7397 703.8557z" stroke="#000000" stroke-width="0.3985" fill="none" /><path id="42" transform="matrix(1 0 0 -1 0 841)" d="M118.1791 712.076L240.0704 712.076" stroke="#000000" stroke-width="0.3985" fill="none" /><path id="43" transform="matrix(1 0 0 -1 0 841)" d="M118.1791 695.6348L240.0704 695.6348" stroke="#000000" stroke-width="0.3985" fill="none" /><path id="44" transform="matrix(1 0 0 -1 0 841)" d="M241.0626 712.4745L241.0626 744.5599" stroke="#000000" stroke-width="0.3985" fill="none" /><path id="45" transform="matrix(1 0 0 -1 0 841)" d="M243.4537 714.3475C 242.019 713.9689 241.3416 713.1252 241.0626 712.2753C 240.7837 713.1252 240.1062 713.9689 238.6716 714.3475" stroke="#000000" stroke-width="0.3985" stroke-linecap="round" fill="none" /><path id="46" transform="matrix(1 0 0 -1 0 841)" d="M238.6716 742.6869C 240.1062 743.0655 240.7837 743.9092 241.0626 744.7592C 241.3416 743.9092 242.019 743.0655 243.4537 742.6869" stroke="#000000" stroke-width="0.3985" stroke-linecap="round" fill="none" /><path id="55" transform="matrix(1 0 0 -1 0 841)" d="M241.0626 697.1675L241.0626 711.9609" stroke="#000000" stroke-width="0.3985" fill="none" /><path id="56" transform="matrix(1 0 0 -1 0 841)" d="M243.4537 699.0405C 242.019 698.6619 241.3416 697.8182 241.0626 696.9682C 240.7837 697.8182 240.1062 698.6619 238.6716 699.0405" stroke="#000000" stroke-width="0.3985" stroke-linecap="round" fill="none" /><path id="57" transform="matrix(1 0 0 -1 0 841)" d="M238.6716 710.0878C 240.1062 710.4664 240.7837 711.3101 241.0626 712.1601C 241.3416 711.3101 242.019 710.4664 243.4537 710.0878" stroke="#000000" stroke-width="0.3985" stroke-linecap="round" fill="none" /><path id="73" transform="matrix(1 0 0 -1 0 841)" d="M241.0626 688.6633L241.0626 696.3705" stroke="#000000" stroke-width="0.3985" fill="none" /><path id="74" transform="matrix(1 0 0 -1 0 841)" d="M243.4537 690.5363C 242.019 690.1577 241.3416 689.314 241.0626 688.4641C 240.7837 689.314 240.1062 690.1577 238.6716 690.5363" stroke="#000000" stroke-width="0.3985" stroke-linecap="round" fill="none" /><path id="75" transform="matrix(1 0 0 -1 0 841)" d="M238.6716 694.4974C 240.1062 694.876 240.7837 695.7197 241.0626 696.5697C 241.3416 695.7197 242.019 694.876 243.4537 694.4974" stroke="#000000" stroke-width="0.3985" stroke-linecap="round" fill="none" /><path id="88" transform="matrix(1 0 0 -1 0 841)" d="M112.9083 715.1942L240.6641 715.1942" stroke="#000000" stroke-width="0.3985" fill="none" /><path id="89" transform="matrix(1 0 0 -1 0 841)" d="M114.7813 712.8032C 114.4027 714.2379 113.559 714.9153 112.709 715.1942C 113.559 715.4731 114.4027 716.1506 114.7813 717.5853" stroke="#000000" stroke-width="0.3985" stroke-linecap="round" fill="none" /><path id="90" transform="matrix(1 0 0 -1 0 841)" d="M238.7911 717.5853C 239.1697 716.1506 240.0134 715.4731 240.8634 715.1942C 240.0134 714.9153 239.1697 714.2379 238.7911 712.8032" stroke="#000000" stroke-width="0.3985" stroke-linecap="round" fill="none" /><path id="103" transform="matrix(1 0 0 -1 0 841)" d="M226.1788 692.7985L234.1193 700.739" stroke="#000000" stroke-width="0.3985" fill="none" /><path id="104" transform="matrix(1 0 0 -1 0 841)" d="M229.1939 692.4321C 227.9117 693.1788 226.8362 693.0613 226.0379 692.6575C 226.4417 693.4558 226.5592 694.5314 225.8125 695.8135" stroke="#000000" stroke-width="0.3984962" stroke-linecap="round" fill="none" /><path id="105" transform="matrix(1 0 0 -1 0 841)" d="M231.1042 701.1053C 232.3864 700.3586 233.4619 700.4761 234.2602 700.8799C 233.8564 700.0816 233.7389 699.006 234.4856 697.7239" stroke="#000000" stroke-width="0.3984962" stroke-linecap="round" fill="none" /><path id="108" transform="matrix(1 0 0 -1 0 841)" d="M244.8602 706.9969L252.5721 716.3048" stroke="#000000" stroke-width="0.3985" fill="none" /><path id="109" transform="matrix(1 0 0 -1 0 841)" d="M247.8962 706.9137C 246.55 707.5375 245.4901 707.32 244.7331 706.8435C 245.0605 707.676 245.0771 708.7578 244.214 709.9645" stroke="#000000" stroke-width="0.3984782" stroke-linecap="round" fill="none" /><path id="110" transform="matrix(1 0 0 -1 0 841)" d="M249.5361 716.388C 250.8823 715.7642 251.9422 715.9817 252.6992 716.4582C 252.3718 715.6257 252.3552 714.5439 253.2183 713.3372" stroke="#000000" stroke-width="0.3984782" stroke-linecap="round" fill="none" /><path id="176" transform="matrix(1 0 0 -1 0 841)" d="M179.712 624.48L190.621 624.48" stroke="#000000" stroke-width="0.436" fill="none" /><path id="182" transform="matrix(1 0 0 -1 0 841)" d="M204.518 624.48L215.427 624.48" stroke="#000000" stroke-width="0.436" fill="none" /><path id="187" transform="matrix(1 0 0 -1 0 841)" d="M229.325 624.48L240.234 624.48" stroke="#000000" stroke-width="0.436" fill="none" /><path id="201" transform="matrix(1 0 0 -1 0 841)" d="M295.092 624.48L306.001 624.48" stroke="#000000" stroke-width="0.436" fill="none" /><path id="219" transform="matrix(1 0 0 -1 0 841)" d="M360.859 624.48L389.288 624.48" stroke="#000000" stroke-width="0.436" fill="none" /><path id="238" transform="matrix(1 0 0 -1 0 841)" d="M403.808 632.451L460.829 632.451" stroke="#000000" stroke-width="0.398" fill="none" /><path id="239" transform="matrix(1 0 0 -1 0 841)" d="M404.007 616.339L404.007 632.451" stroke="#000000" stroke-width="0.398" fill="none" /><path id="240" transform="matrix(1 0 0 -1 0 841)" d="M460.63 616.339L460.63 632.451" stroke="#000000" stroke-width="0.398" fill="none" /><path id="241" transform="matrix(1 0 0 -1 0 841)" d="M403.808 616.339L460.829 616.339" stroke="#000000" stroke-width="0.398" fill="none" /><path id="408" transform="matrix(1 0 0 -1 0 841)" d="M188.93 515.599L199.839 515.599" stroke="#000000" stroke-width="0.436" fill="none" /><path id="415" transform="matrix(1 0 0 -1 0 841)" d="M223.827 515.599L234.736 515.599" stroke="#000000" stroke-width="0.436" fill="none" /><path id="424" transform="matrix(1 0 0 -1 0 841)" d="M245.756 515.599L268.719 515.599" stroke="#000000" stroke-width="0.436" fill="none" /><path id="445" transform="matrix(1 0 0 -1 0 841)" d="M290.504 515.599L334.074 515.599" stroke="#000000" stroke-width="0.436" fill="none" /><path id="457" transform="matrix(1 0 0 -1 0 841)" d="M344.95 515.599L384.288 515.599" stroke="#000000" stroke-width="0.436" fill="none" /><path id="469" transform="matrix(1 0 0 -1 0 841)" d="M398.808 523.357L441.55 523.357" stroke="#000000" stroke-width="0.398" fill="none" /><path id="470" transform="matrix(1 0 0 -1 0 841)" d="M399.007 507.458L399.007 523.358" stroke="#000000" stroke-width="0.398" fill="none" /><path id="471" transform="matrix(1 0 0 -1 0 841)" d="M441.351 507.458L441.351 523.358" stroke="#000000" stroke-width="0.398" fill="none" /><path id="472" transform="matrix(1 0 0 -1 0 841)" d="M398.808 507.458L441.55 507.458" stroke="#000000" stroke-width="0.398" fill="none" /><path id="639" transform="matrix(1 0 0 -1 0 841)" d="M404.3 368.307L412.176 368.307" stroke="#000000" stroke-width="0.436" fill="none" /><path id="753" transform="matrix(1 0 0 -1 0 841)" d="M121.013 286.116L134.944 286.116" stroke="#000000" stroke-width="0.436" fill="none" /><path id="767" transform="matrix(1 0 0 -1 0 841)" d="M165.186 297.973L179.432 297.973" stroke="#000000" stroke-width="0.436" fill="none" /><path id="771" transform="matrix(1 0 0 -1 0 841)" d="M150.659 286.116L180.627 286.116" stroke="#000000" stroke-width="0.436" fill="none" /><path id="825" transform="matrix(1 0 0 -1 0 841)" d="M113.508 234.325L168.566 234.325" stroke="#000000" stroke-width="0.436" fill="none" /><path id="835" transform="matrix(1 0 0 -1 0 841)" d="M179.441 234.325L233.277 234.325" stroke="#000000" stroke-width="0.436" fill="none" /><path id="856" transform="matrix(1 0 0 -1 0 841)" d="M244.152 234.325L274.446 234.325" stroke="#000000" stroke-width="0.436" fill="none" /><path id="869" transform="matrix(1 0 0 -1 0 841)" d="M304.093 234.325L318.339 234.325" stroke="#000000" stroke-width="0.436" fill="none" /><path id="909" transform="matrix(1 0 0 -1 0 841)" d="M167.588 184.795L174.461 184.795" stroke="#000000" stroke-width="0.436" fill="none" /><path id="923" transform="matrix(1 0 0 -1 0 841)" d="M250.857 184.795L261.766 184.795" stroke="#000000" stroke-width="0.436" fill="none" /><path id="940" transform="matrix(1 0 0 -1 0 841)" d="M341.504 184.795L357.868 184.795" stroke="#000000" stroke-width="0.436" fill="none" /><path id="958" transform="matrix(1 0 0 -1 0 841)" d="M145.853 153.969L159.784 153.969" stroke="#000000" stroke-width="0.436" fill="none" /><path id="973" transform="matrix(1 0 0 -1 0 841)" d="M175.499 153.969L223.061 153.969" stroke="#000000" stroke-width="0.436" fill="none" /><path id="992" transform="matrix(1 0 0 -1 0 841)" d="M237.582 162.551L287.436 162.551" stroke="#000000" stroke-width="0.398" fill="none" /><path id="993" transform="matrix(1 0 0 -1 0 841)" d="M237.781 145.326L237.781 162.551" stroke="#000000" stroke-width="0.398" fill="none" /><path id="994" transform="matrix(1 0 0 -1 0 841)" d="M287.236 145.326L287.236 162.551" stroke="#000000" stroke-width="0.398" fill="none" /><path id="995" transform="matrix(1 0 0 -1 0 841)" d="M237.582 145.326L287.436 145.326" stroke="#000000" stroke-width="0.398" fill="none" /></g></g></svg>