<svg xmlns="http://www.w3.org/2000/svg" xmlns:xlink="http://www.w3.org/1999/xlink" id="body_284" preserveAspectRatio="xMinYMin meet" viewBox="0 0 793 1121"><defs><clipPath id="1"><path id="" clip-rule="evenodd" transform="matrix(1 0 0 1 0 0)" d="M0 841L0 -0.8900146L0 -0.8900146L595.276 -0.8900146L595.276 -0.8900146L595.276 841L595.276 841L0 841z" /></clipPath></defs><g transform="matrix(1.333333 0 0 1.333333 0 0)"><g clip-path="url(#1)"><path id="19" transform="matrix(1 0 0 -1 0 841)" d="M85.039 766.564L510.236 766.564" stroke="#000000" stroke-width="0.498" fill="none" /><path id="93" transform="matrix(1 0 0 -1 0 841)" d="M451.548 726.013L467.911 726.013" stroke="#000000" stroke-width="0.436" fill="none" /><path id="100" transform="matrix(1 0 0 -1 0 841)" d="M478.758 726.013L498.154 726.013" stroke="#000000" stroke-width="0.436" fill="none" /><path id="112" transform="matrix(1 0 0 -1 0 841)" d="M137.508 700.736L168.118 700.736" stroke="#000000" stroke-width="0.436" fill="none" /><path id="148" transform="matrix(1 0 0 -1 0 841)" d="M292.992 667.461L323.602 667.461" stroke="#000000" stroke-width="0.436" fill="none" /><path id="164" transform="matrix(1 0 0 -1 0 841)" d="M334.878 667.461L368.761 667.461" stroke="#000000" stroke-width="0.436" fill="none" /><path id="173" transform="matrix(1 0 0 -1 0 841)" d="M380.037 667.461L441.184 667.461" stroke="#000000" stroke-width="0.436" fill="none" /><path id="198" transform="matrix(1 0 0 -1 0 841)" d="M452.46 667.461L490.642 667.461" stroke="#000000" stroke-width="0.436" fill="none" /><path id="210" transform="matrix(1 0 0 -1 0 841)" d="M136.312 647.053L211.621 647.053L211.621 651.038L136.312 651.038z" stroke="none" fill="#000000" fill-rule="nonzero" /><path id="211" transform="matrix(1 0 0 -1 0 841)" d="M136.312 614.747L140.297 614.747L140.297 649.045L136.312 649.045z" stroke="none" fill="#000000" fill-rule="nonzero" /><path id="212" transform="matrix(1 0 0 -1 0 841)" d="M207.636 614.747L211.621 614.747L211.621 649.045L207.636 649.045z" stroke="none" fill="#000000" fill-rule="nonzero" /><path id="213" transform="matrix(1 0 0 -1 0 841)" d="M136.312 612.754L211.621 612.754L211.621 616.739L136.312 616.739z" stroke="none" fill="#000000" fill-rule="nonzero" /><path id="306" transform="matrix(1 0 0 -1 0 841)" d="M216.593 577.496L291.408 577.496" stroke="#000000" stroke-width="0.436" fill="none" /><path id="407" transform="matrix(1 0 0 -1 0 841)" d="M242.628 525.557L260.028 525.557" stroke="#000000" stroke-width="0.436" fill="none" /><path id="426" transform="matrix(1 0 0 -1 0 841)" d="M323.007 525.557L340.407 525.557" stroke="#000000" stroke-width="0.436" fill="none" /><path id="431" transform="matrix(1 0 0 -1 0 841)" d="M216.593 511.594L341.603 511.594" stroke="#000000" stroke-width="0.436" fill="none" /><path id="439" transform="matrix(1 0 0 -1 0 841)" d="M281.825 498.329L298.188 498.329" stroke="#000000" stroke-width="0.436" fill="none" /><path id="454" transform="matrix(1 0 0 -1 0 841)" d="M356.123 527.656L437.88 527.656L437.88 531.641L356.123 531.641z" stroke="none" fill="#000000" fill-rule="nonzero" /><path id="455" transform="matrix(1 0 0 -1 0 841)" d="M356.123 493.31L360.108 493.31L360.108 529.648L356.123 529.648z" stroke="none" fill="#000000" fill-rule="nonzero" /><path id="456" transform="matrix(1 0 0 -1 0 841)" d="M433.895 493.31L437.88 493.31L437.88 529.648L433.895 529.648z" stroke="none" fill="#000000" fill-rule="nonzero" /><path id="457" transform="matrix(1 0 0 -1 0 841)" d="M356.123 491.318L437.88 491.318L437.88 495.303L356.123 495.303z" stroke="none" fill="#000000" fill-rule="nonzero" /><path id="586" transform="matrix(1 0 0 -1 0 841)" d="M231.842 430.193L334.244 430.193" stroke="#000000" stroke-width="0.436" fill="none" /><path id="640" transform="matrix(1 0 0 -1 0 841)" d="M278.074 394.914L359.084 394.914" stroke="#000000" stroke-width="0.436" fill="none" /><path id="693" transform="matrix(1 0 0 -1 0 841)" d="M317.102 358.992L383.704 358.992" stroke="#000000" stroke-width="0.436" fill="none" /><path id="702" transform="matrix(1 0 0 -1 0 841)" d="M395.252 358.992L441.256 358.992" stroke="#000000" stroke-width="0.436" fill="none" /><path id="718" transform="matrix(1 0 0 -1 0 841)" d="M469.168 358.992L485.531 358.992" stroke="#000000" stroke-width="0.436" fill="none" /><path id="731" transform="matrix(1 0 0 -1 0 841)" d="M136.312 341.433L202.861 341.433L202.861 345.418L136.312 345.418z" stroke="none" fill="#000000" fill-rule="nonzero" /><path id="732" transform="matrix(1 0 0 -1 0 841)" d="M136.312 309.083L140.297 309.083L140.297 343.425L136.312 343.425z" stroke="none" fill="#000000" fill-rule="nonzero" /><path id="733" transform="matrix(1 0 0 -1 0 841)" d="M198.876 309.083L202.861 309.083L202.861 343.425L198.876 343.425z" stroke="none" fill="#000000" fill-rule="nonzero" /><path id="734" transform="matrix(1 0 0 -1 0 841)" d="M136.312 307.091L202.861 307.091L202.861 311.076L136.312 311.076z" stroke="none" fill="#000000" fill-rule="nonzero" /><path id="942" transform="matrix(1 0 0 -1 0 841)" d="M320.887 246.94L418.86 246.94" stroke="#000000" stroke-width="0.436" fill="none" /><path id="1162" transform="matrix(1 0 0 -1 0 841)" d="M251.963 125.45L288.748 125.45" stroke="#000000" stroke-width="0.436" fill="none" /><path id="1181" transform="matrix(1 0 0 -1 0 841)" d="M299.624 125.45L366.226 125.45" stroke="#000000" stroke-width="0.436" fill="none" /><path id="1192" transform="matrix(1 0 0 -1 0 841)" d="M377.101 125.45L415.893 125.45" stroke="#000000" stroke-width="0.436" fill="none" /><path id="1200" transform="matrix(1 0 0 -1 0 841)" d="M250.767 111.487L417.089 111.487" stroke="#000000" stroke-width="0.436" fill="none" /><path id="1223" transform="matrix(1 0 0 -1 0 841)" d="M430.398 129.935L519.735 129.935L519.735 133.92L430.398 133.92z" stroke="none" fill="#000000" fill-rule="nonzero" /><path id="1224" transform="matrix(1 0 0 -1 0 841)" d="M430.398 92.701L434.383 92.701L434.383 131.928L430.398 131.928z" stroke="none" fill="#000000" fill-rule="nonzero" /><path id="1225" transform="matrix(1 0 0 -1 0 841)" d="M515.75 92.701L519.735 92.701L519.735 131.928L515.75 131.928z" stroke="none" fill="#000000" fill-rule="nonzero" /><path id="1226" transform="matrix(1 0 0 -1 0 841)" d="M430.398 90.709L519.735 90.709L519.735 94.694L430.398 94.694z" stroke="none" fill="#000000" fill-rule="nonzero" /></g></g></svg>