<svg xmlns="http://www.w3.org/2000/svg" xmlns:xlink="http://www.w3.org/1999/xlink" id="body_341" preserveAspectRatio="xMinYMin meet" viewBox="0 0 793 1121"><defs><clipPath id="1"><path id="" clip-rule="evenodd" transform="matrix(1 0 0 1 0 0)" d="M0 841L0 -0.8900146L0 -0.8900146L595.276 -0.8900146L595.276 -0.8900146L595.276 841L595.276 841L0 841z" /></clipPath></defs><g transform="matrix(1.333333 0 0 1.333333 0 0)"><g clip-path="url(#1)"><path id="22" transform="matrix(1 0 0 -1 0 841)" d="M85.039 766.564L510.236 766.564" stroke="#000000" stroke-width="0.498" fill="none" /><path id="177" transform="matrix(1 0 0 -1 0 841)" d="M328.1976 678.5488L263.4404 678.5488C 261.2395 678.5488 259.4553 676.7646 259.4553 674.5637L259.4553 674.5637L259.4553 649.8063C 259.4553 647.6053 261.2395 645.8212 263.4404 645.8212L263.4404 645.8212L328.1976 645.8212C 330.3985 645.8212 332.1827 647.6053 332.1827 649.8063L332.1827 649.8063L332.1827 674.5637C 332.1827 676.7646 330.3985 678.5488 328.1976 678.5488z" stroke="#000000" stroke-width="0.3985" fill="#FF9999" fill-rule="nonzero" /><path id="227" transform="matrix(1 0 0 -1 0 841)" d="M167.3966 662.185L256.8651 662.185" stroke="#000000" stroke-width="0.3985" fill="none" /><path id="228" transform="matrix(1 0 0 -1 0 841)" d="M259.256 662.185C 258.2598 662.3843 256.4665 662.7828 255.271 663.6794C 256.2673 662.5835 256.2673 661.7865 255.271 660.6906C 256.4665 661.5872 258.2598 661.9857 259.256 662.185z" stroke="none" fill="#000000" fill-rule="nonzero" /><path id="252" transform="matrix(1 0 0 -1 0 841)" d="M332.3819 662.185L418.2122 662.185" stroke="#000000" stroke-width="0.3985" fill="none" /><path id="253" transform="matrix(1 0 0 -1 0 841)" d="M420.6032 662.185C 419.6069 662.3843 417.8137 662.7828 416.6181 663.6794C 417.6144 662.5835 417.6144 661.7865 416.6181 660.6906C 417.8137 661.5872 419.6069 661.9857 420.6032 662.185z" stroke="none" fill="#000000" fill-rule="nonzero" /><path id="254" transform="matrix(1 0 0 -1 0 841)" d="M295.819 645.6219L295.819 631.3157" stroke="#000000" stroke-width="0.3985" fill="none" /><path id="255" transform="matrix(1 0 0 -1 0 841)" d="M295.819 628.9246C 296.0182 629.9208 296.4167 631.7141 297.3134 632.9096C 296.2175 631.9134 295.4205 631.9134 294.3246 632.9096C 295.2213 631.7141 295.6198 629.9208 295.819 628.9246z" stroke="none" fill="#000000" fill-rule="nonzero" /><path id="325" transform="matrix(1 0 0 -1 0 841)" d="M218.408 544.072L297.466 544.072" stroke="#000000" stroke-width="0.436" fill="none" /><path id="337" transform="matrix(1 0 0 -1 0 841)" d="M334.473 544.072L353.247 544.072" stroke="#000000" stroke-width="0.436" fill="none" /><path id="365" transform="matrix(1 0 0 -1 0 841)" d="M468.366 544.072L482.308 544.072" stroke="#000000" stroke-width="0.436" fill="none" /><path id="386" transform="matrix(1 0 0 -1 0 841)" d="M113.508 512.725L192.566 512.725" stroke="#000000" stroke-width="0.436" fill="none" /><path id="402" transform="matrix(1 0 0 -1 0 841)" d="M252.515 512.725L271.289 512.725" stroke="#000000" stroke-width="0.436" fill="none" /><path id="415" transform="matrix(1 0 0 -1 0 841)" d="M307.005 512.725L320.947 512.725" stroke="#000000" stroke-width="0.436" fill="none" /><path id="434" transform="matrix(1 0 0 -1 0 841)" d="M363.337 521.307L429.697 521.307" stroke="#000000" stroke-width="0.398" fill="none" /><path id="435" transform="matrix(1 0 0 -1 0 841)" d="M363.536 504.082L363.536 521.307" stroke="#000000" stroke-width="0.398" fill="none" /><path id="436" transform="matrix(1 0 0 -1 0 841)" d="M429.498 504.082L429.498 521.307" stroke="#000000" stroke-width="0.398" fill="none" /><path id="437" transform="matrix(1 0 0 -1 0 841)" d="M363.337 504.082L429.697 504.082" stroke="#000000" stroke-width="0.398" fill="none" /><path id="601" transform="matrix(1 0 0 -1 0 841)" d="M354.3337 308.4674C 354.3337 331.951 335.297 350.9876 311.8135 350.9876C 288.3299 350.9876 269.2933 331.951 269.2933 308.4674C 269.2933 284.9839 288.3299 265.9472 311.8135 265.9472C 335.297 265.9472 354.3337 284.9839 354.3337 308.4674z" stroke="#000000" stroke-width="0.3985" fill="#F2F2F2" fill-rule="nonzero" /><path id="602" transform="matrix(1 0 0 -1 0 841)" d="M269.2932 308.4674L354.3337 308.4674" stroke="#000000" stroke-width="1.19553" fill="none" /><path id="629" transform="matrix(1 0 0 -1 0 841)" d="M289.1359 271.6165L311.8135 308.4674" stroke="#000000" stroke-width="1.19553" fill="none" /><path id="630" transform="matrix(1 0 0 -1 0 841)" d="M334.491 271.6165L311.8135 308.4674" stroke="#000000" stroke-width="1.19553" fill="none" /><path id="634" transform="matrix(1 0 0 -1 0 841)" d="M113.508 189.261L129.261 189.261" stroke="#000000" stroke-width="0.436" fill="none" /><path id="645" transform="matrix(1 0 0 -1 0 841)" d="M167.132 189.261L184.706 189.261" stroke="#000000" stroke-width="0.436" fill="none" /><path id="665" transform="matrix(1 0 0 -1 0 841)" d="M257.392 189.261L271.334 189.261" stroke="#000000" stroke-width="0.436" fill="none" /><path id="675" transform="matrix(1 0 0 -1 0 841)" d="M113.508 154.467L129.261 154.467" stroke="#000000" stroke-width="0.436" fill="none" /><path id="693" transform="matrix(1 0 0 -1 0 841)" d="M155.885 154.467L187.346 154.467" stroke="#000000" stroke-width="0.436" fill="none" /><path id="709" transform="matrix(1 0 0 -1 0 841)" d="M220.04 154.467L237.014 154.467" stroke="#000000" stroke-width="0.436" fill="none" /><path id="716" transform="matrix(1 0 0 -1 0 841)" d="M247.891 154.467L331.456 154.467" stroke="#000000" stroke-width="0.436" fill="none" /><path id="743" transform="matrix(1 0 0 -1 0 841)" d="M358.695 154.467L372.637 154.467" stroke="#000000" stroke-width="0.436" fill="none" /><path id="757" transform="matrix(1 0 0 -1 0 841)" d="M435.974 154.467L452.294 154.467" stroke="#000000" stroke-width="0.436" fill="none" /><path id="761" transform="matrix(1 0 0 -1 0 841)" d="M415.027 169.824L456.876 169.824" stroke="#000000" stroke-width="0.398" fill="none" /><path id="762" transform="matrix(1 0 0 -1 0 841)" d="M415.226 138.842L415.226 169.823" stroke="#000000" stroke-width="0.398" fill="none" /><path id="763" transform="matrix(1 0 0 -1 0 841)" d="M456.677 138.842L456.677 169.823" stroke="#000000" stroke-width="0.398" fill="none" /><path id="764" transform="matrix(1 0 0 -1 0 841)" d="M415.027 138.843L456.876 138.843" stroke="#000000" stroke-width="0.398" fill="none" /></g></g></svg>