<svg xmlns="http://www.w3.org/2000/svg" xmlns:xlink="http://www.w3.org/1999/xlink" id="body_394" preserveAspectRatio="xMinYMin meet" viewBox="0 0 793 1121"><defs><clipPath id="1"><path id="" clip-rule="evenodd" transform="matrix(1 0 0 1 0 0)" d="M0 841L0 -0.8900146L0 -0.8900146L595.276 -0.8900146L595.276 -0.8900146L595.276 841L595.276 841L0 841z" /></clipPath></defs><g transform="matrix(1.333333 0 0 1.333333 0 0)"><g clip-path="url(#1)"><g transform="matrix(0.1 0 0 0.09999999 264.336 262.749)"><g transform="matrix(1 0 0 1 0 0)"><image x="0" y="0" xlink:href="img_541.png" width="666" height="933" /></g></g><path id="553" transform="matrix(1 0 0 -1 0 841)" d="M178.14 617.941L417.136 617.941L417.136 621.926L178.14 621.926z" stroke="none" fill="#000000" fill-rule="nonzero" /><path id="554" transform="matrix(1 0 0 -1 0 841)" d="M178.14 203.256L182.125 203.256L182.125 619.934L178.14 619.934z" stroke="none" fill="#000000" fill-rule="nonzero" /><path id="555" transform="matrix(1 0 0 -1 0 841)" d="M413.151 203.256L417.136 203.256L417.136 619.934L413.151 619.934z" stroke="none" fill="#000000" fill-rule="nonzero" /><path id="556" transform="matrix(1 0 0 -1 0 841)" d="M178.14 201.263L417.136 201.263L417.136 205.248L178.14 205.248z" stroke="none" fill="#000000" fill-rule="nonzero" /></g></g></svg>