<svg xmlns="http://www.w3.org/2000/svg" xmlns:xlink="http://www.w3.org/1999/xlink" id="body_6" preserveAspectRatio="xMinYMin meet" viewBox="0 0 793 1121"><defs><clipPath id="1"><path id="" clip-rule="evenodd" transform="matrix(1 0 0 1 0 0)" d="M0 841L0 -0.8900146L0 -0.8900146L595.276 -0.8900146L595.276 -0.8900146L595.276 841L595.276 841L0 841z" /></clipPath></defs><g transform="matrix(1.333333 0 0 1.333333 0 0)"><g clip-path="url(#1)"><path id="1171" transform="matrix(1 0 0 -1 0 841)" d="M85.039 405.453L115.07 405.453L115.07 425.295L85.039 425.295z" stroke="none" fill="#FDE0D1" fill-rule="nonzero" /><path id="1175" transform="matrix(1 0 0 -1 0 841)" d="M119.055 405.453L510.236 405.453L510.236 425.295L119.055 425.295z" stroke="none" fill="#FAC2A3" fill-rule="nonzero" /><path id="1841" transform="matrix(1 0 0 -1 0 841)" d="M85.039 131.465L115.07 131.465L115.07 151.307L85.039 151.307z" stroke="none" fill="#FDE0D1" fill-rule="nonzero" /><path id="1846" transform="matrix(1 0 0 -1 0 841)" d="M119.055 131.465L510.236 131.465L510.236 151.307L119.055 151.307z" stroke="none" fill="#FAC2A3" fill-rule="nonzero" /></g></g></svg>