<svg xmlns="http://www.w3.org/2000/svg" xmlns:xlink="http://www.w3.org/1999/xlink" id="body_273" preserveAspectRatio="xMinYMin meet" viewBox="0 0 793 1121"><defs><clipPath id="1"><path id="" clip-rule="evenodd" transform="matrix(1 0 0 1 0 0)" d="M0 841L0 -0.8900146L0 -0.8900146L595.276 -0.8900146L595.276 -0.8900146L595.276 841L595.276 841L0 841z" /></clipPath></defs><g transform="matrix(1.333333 0 0 1.333333 0 0)"><g clip-path="url(#1)"><path id="30" transform="matrix(1 0 0 -1 0 841)" d="M85.039 766.564L510.236 766.564" stroke="#000000" stroke-width="0.498" fill="none" /><path id="94" transform="matrix(1 0 0 -1 0 841)" d="M168.369 672.297L228.966 672.297" stroke="#000000" stroke-width="0.436" fill="none" /><path id="103" transform="matrix(1 0 0 -1 0 841)" d="M243.486 680.154L285.355 680.154" stroke="#000000" stroke-width="0.398" fill="none" /><path id="104" transform="matrix(1 0 0 -1 0 841)" d="M243.686 664.02L243.686 680.154" stroke="#000000" stroke-width="0.398" fill="none" /><path id="105" transform="matrix(1 0 0 -1 0 841)" d="M285.156 664.02L285.156 680.154" stroke="#000000" stroke-width="0.398" fill="none" /><path id="106" transform="matrix(1 0 0 -1 0 841)" d="M243.486 664.02L285.355 664.02" stroke="#000000" stroke-width="0.398" fill="none" /><path id="758" transform="matrix(1 0 0 -1 0 841)" d="M113.169 381.754L200.549 381.754" stroke="#000000" stroke-width="0.436" fill="none" /><path id="802" transform="matrix(1 0 0 -1 0 841)" d="M266.867 381.754L365.156 381.754" stroke="#000000" stroke-width="0.436" fill="none" /><path id="967" transform="matrix(1 0 0 -1 0 841)" d="M434.9808 259.756L349.9404 259.756L349.9404 259.756L349.9404 174.7155L349.9404 174.7155L434.9808 174.7155z" stroke="#000000" stroke-width="0.3985" fill="none" /><path id="968" transform="matrix(1 0 0 -1 0 841)" d="M434.9808 259.756L467.7209 292.496L467.7209 292.496L467.7209 207.4556L467.7209 207.4556L434.9808 174.7155z" stroke="#000000" stroke-width="0.3985" fill="none" /><path id="969" transform="matrix(1 0 0 -1 0 841)" d="M434.9808 259.756L349.9404 259.756L349.9404 259.756L382.6805 292.496L382.6805 292.496L467.7209 292.496z" stroke="#000000" stroke-width="0.3985" fill="none" /><path id="997" transform="matrix(1 0 0 -1 0 841)" d="M159.053 286.183L182.495 286.183" stroke="#000000" stroke-width="0.398" fill="none" /><path id="1046" transform="matrix(1 0 0 -1 0 841)" d="M215.545 232.127L265.388 232.127" stroke="#000000" stroke-width="0.398" fill="none" /></g></g></svg>