<svg xmlns="http://www.w3.org/2000/svg" xmlns:xlink="http://www.w3.org/1999/xlink" id="body_263" preserveAspectRatio="xMinYMin meet" viewBox="0 0 793 1121"><defs><clipPath id="1"><path id="" clip-rule="evenodd" transform="matrix(1 0 0 1 0 0)" d="M0 841L0 -0.8900146L0 -0.8900146L595.276 -0.8900146L595.276 -0.8900146L595.276 841L595.276 841L0 841z" /></clipPath></defs><g transform="matrix(1.333333 0 0 1.333333 0 0)"><g clip-path="url(#1)"><path id="22" transform="matrix(1 0 0 -1 0 841)" d="M85.039 766.564L510.236 766.564" stroke="#000000" stroke-width="0.498" fill="none" /><path id="52" transform="matrix(1 0 0 -1 0 841)" d="M286.694 747.452L300.025 747.452" stroke="#000000" stroke-width="0.436" fill="none" /><path id="87" transform="matrix(1 0 0 -1 0 841)" d="M305.807 726.727L319.138 726.727" stroke="#000000" stroke-width="0.436" fill="none" /><path id="824" transform="matrix(1 0 0 -1 0 841)" d="M134.354 407.005L249.738 407.005" stroke="#000000" stroke-width="0.436" fill="none" /><path id="883" transform="matrix(1 0 0 -1 0 841)" d="M316.056 407.005L431.44 407.005" stroke="#000000" stroke-width="0.436" fill="none" /><path id="963" transform="matrix(1 0 0 -1 0 841)" d="M265.834 370.706L381.218 370.706" stroke="#000000" stroke-width="0.436" fill="none" /><path id="1032" transform="matrix(1 0 0 -1 0 841)" d="M392.094 370.706L500.671 370.706" stroke="#000000" stroke-width="0.436" fill="none" /><path id="1096" transform="matrix(1 0 0 -1 0 841)" d="M95.94 350.374L415.747 350.374" stroke="#000000" stroke-width="0.398" fill="none" /><path id="1097" transform="matrix(1 0 0 -1 0 841)" d="M96.139 334.186L96.139 350.375" stroke="#000000" stroke-width="0.398" fill="none" /><path id="1098" transform="matrix(1 0 0 -1 0 841)" d="M415.548 334.186L415.548 350.375" stroke="#000000" stroke-width="0.398" fill="none" /><path id="1099" transform="matrix(1 0 0 -1 0 841)" d="M95.94 334.186L415.747 334.186" stroke="#000000" stroke-width="0.398" fill="none" /><path id="1141" transform="matrix(1 0 0 -1 0 841)" d="M180.884 240.935L197.204 240.935" stroke="#000000" stroke-width="0.436" fill="none" /><path id="1162" transform="matrix(1 0 0 -1 0 841)" d="M283.184 240.935L296.515 240.935" stroke="#000000" stroke-width="0.436" fill="none" /><path id="1346" transform="matrix(1 0 0 -1 0 841)" d="M112.063 166.113L124.681 166.113L124.681 178.386L112.063 178.386z" stroke="none" fill="#FFF100" fill-rule="nonzero" /><path id="1349" transform="matrix(1 0 0 -1 0 841)" d="M124.183 166.113L139.223 166.113L139.223 178.386L124.183 178.386z" stroke="none" fill="#FFF100" fill-rule="nonzero" /><path id="1353" transform="matrix(1 0 0 -1 0 841)" d="M138.725 166.113L155.586 166.113L155.586 178.386L138.725 178.386z" stroke="none" fill="#FFF100" fill-rule="nonzero" /><path id="1358" transform="matrix(1 0 0 -1 0 841)" d="M155.337 166.113L158.064 166.113L158.064 178.386L155.337 178.386z" stroke="none" fill="#FFF100" fill-rule="nonzero" /><path id="1359" transform="matrix(1 0 0 -1 0 841)" d="M157.815 166.113L184.375 166.113L184.375 178.386L157.815 178.386z" stroke="none" fill="#FFF100" fill-rule="nonzero" /><path id="1368" transform="matrix(1 0 0 -1 0 841)" d="M136.063 149.104L153.525 149.104L153.525 161.377L136.063 161.377z" stroke="none" fill="#FFF100" fill-rule="nonzero" /><path id="1372" transform="matrix(1 0 0 -1 0 841)" d="M153.615 149.104L156.479 149.104L156.479 161.377L153.615 161.377z" stroke="none" fill="#FFF100" fill-rule="nonzero" /><path id="1373" transform="matrix(1 0 0 -1 0 841)" d="M156.23 149.104L173.702 149.104L173.702 161.377L156.23 161.377z" stroke="none" fill="#FFF100" fill-rule="nonzero" /><path id="1378" transform="matrix(1 0 0 -1 0 841)" d="M173.793 149.104L176.657 149.104L176.657 161.377L173.793 161.377z" stroke="none" fill="#FFF100" fill-rule="nonzero" /><path id="1379" transform="matrix(1 0 0 -1 0 841)" d="M176.408 149.104L185.993 149.104L185.993 161.377L176.408 161.377z" stroke="none" fill="#FFF100" fill-rule="nonzero" /><path id="1382" transform="matrix(1 0 0 -1 0 841)" d="M185.926 149.104L188.79 149.104L188.79 161.377L185.926 161.377z" stroke="none" fill="#FFF100" fill-rule="nonzero" /><path id="1383" transform="matrix(1 0 0 -1 0 841)" d="M188.541 149.104L202.37 149.104L202.37 161.377L188.541 161.377z" stroke="none" fill="#FFF100" fill-rule="nonzero" /><path id="1387" transform="matrix(1 0 0 -1 0 841)" d="M202.387 149.104L205.251 149.104L205.251 161.377L202.387 161.377z" stroke="none" fill="#FFF100" fill-rule="nonzero" /><path id="1388" transform="matrix(1 0 0 -1 0 841)" d="M205.003 149.104L221.254 149.104L221.254 161.377L205.003 161.377z" stroke="none" fill="#FFF100" fill-rule="nonzero" /><path id="1392" transform="matrix(1 0 0 -1 0 841)" d="M221.07 149.104L253.695 149.104L253.695 161.377L221.07 161.377z" stroke="none" fill="#FFF100" fill-rule="nonzero" /><path id="1401" transform="matrix(1 0 0 -1 0 841)" d="M254.088 149.104L256.952 149.104L256.952 161.377L254.088 161.377z" stroke="none" fill="#FFF100" fill-rule="nonzero" /><path id="1402" transform="matrix(1 0 0 -1 0 841)" d="M256.704 149.104L275.987 149.104L275.987 161.377L256.704 161.377z" stroke="none" fill="#FFF100" fill-rule="nonzero" /><path id="1407" transform="matrix(1 0 0 -1 0 841)" d="M275.864 149.104L290.304 149.104L290.304 161.377L275.864 161.377z" stroke="none" fill="#FFF100" fill-rule="nonzero" /><path id="1411" transform="matrix(1 0 0 -1 0 841)" d="M290.334 149.104L293.198 149.104L293.198 161.377L290.334 161.377z" stroke="none" fill="#FFF100" fill-rule="nonzero" /><path id="1412" transform="matrix(1 0 0 -1 0 841)" d="M292.949 149.104L309.8 149.104L309.8 161.377L292.949 161.377z" stroke="none" fill="#FFF100" fill-rule="nonzero" /><path id="1417" transform="matrix(1 0 0 -1 0 841)" d="M309.878 149.104L312.742 149.104L312.742 161.377L309.878 161.377z" stroke="none" fill="#FFF100" fill-rule="nonzero" /><path id="1418" transform="matrix(1 0 0 -1 0 841)" d="M312.493 149.104L329.965 149.104L329.965 161.377L312.493 161.377z" stroke="none" fill="#FFF100" fill-rule="nonzero" /><path id="1423" transform="matrix(1 0 0 -1 0 841)" d="M330.055 149.104L332.919 149.104L332.919 161.377L330.055 161.377z" stroke="none" fill="#FFF100" fill-rule="nonzero" /><path id="1424" transform="matrix(1 0 0 -1 0 841)" d="M332.671 149.104L343.467 149.104L343.467 161.377L332.671 161.377z" stroke="none" fill="#FFF100" fill-rule="nonzero" /><path id="1427" transform="matrix(1 0 0 -1 0 841)" d="M343.424 149.104L346.288 149.104L346.288 161.377L343.424 161.377z" stroke="none" fill="#FFF100" fill-rule="nonzero" /><path id="1428" transform="matrix(1 0 0 -1 0 841)" d="M346.039 149.104L355.024 149.104L355.024 161.377L346.039 161.377z" stroke="none" fill="#FFF100" fill-rule="nonzero" /><path id="1431" transform="matrix(1 0 0 -1 0 841)" d="M354.945 149.104L357.809 149.104L357.809 161.377L354.945 161.377z" stroke="none" fill="#FFF100" fill-rule="nonzero" /><path id="1432" transform="matrix(1 0 0 -1 0 841)" d="M357.56 149.104L370.789 149.104L370.789 161.377L357.56 161.377z" stroke="none" fill="#FFF100" fill-rule="nonzero" /><path id="1436" transform="matrix(1 0 0 -1 0 841)" d="M370.794 149.104L373.658 149.104L373.658 161.377L370.794 161.377z" stroke="none" fill="#FFF100" fill-rule="nonzero" /><path id="1437" transform="matrix(1 0 0 -1 0 841)" d="M373.409 149.104L387.838 149.104L387.838 161.377L373.409 161.377z" stroke="none" fill="#FFF100" fill-rule="nonzero" /><path id="1441" transform="matrix(1 0 0 -1 0 841)" d="M387.868 149.104L390.732 149.104L390.732 161.377L387.868 161.377z" stroke="none" fill="#FFF100" fill-rule="nonzero" /><path id="1442" transform="matrix(1 0 0 -1 0 841)" d="M390.483 149.104L404.312 149.104L404.312 161.377L390.483 161.377z" stroke="none" fill="#FFF100" fill-rule="nonzero" /><path id="1446" transform="matrix(1 0 0 -1 0 841)" d="M404.329 149.104L407.193 149.104L407.193 161.377L404.329 161.377z" stroke="none" fill="#FFF100" fill-rule="nonzero" /><path id="1447" transform="matrix(1 0 0 -1 0 841)" d="M406.944 149.104L424.416 149.104L424.416 161.377L406.944 161.377z" stroke="none" fill="#FFF100" fill-rule="nonzero" /><path id="1452" transform="matrix(1 0 0 -1 0 841)" d="M424.507 149.104L427.371 149.104L427.371 161.377L424.507 161.377z" stroke="none" fill="#FFF100" fill-rule="nonzero" /><path id="1453" transform="matrix(1 0 0 -1 0 841)" d="M427.122 149.104L436.707 149.104L436.707 161.377L427.122 161.377z" stroke="none" fill="#FFF100" fill-rule="nonzero" /><path id="1456" transform="matrix(1 0 0 -1 0 841)" d="M436.64 149.104L439.504 149.104L439.504 161.377L436.64 161.377z" stroke="none" fill="#FFF100" fill-rule="nonzero" /><path id="1457" transform="matrix(1 0 0 -1 0 841)" d="M439.255 149.104L459.149 149.104L459.149 161.377L439.255 161.377z" stroke="none" fill="#FFF100" fill-rule="nonzero" /><path id="1462" transform="matrix(1 0 0 -1 0 841)" d="M459.288 149.104L462.152 149.104L462.152 161.377L459.288 161.377z" stroke="none" fill="#FFF100" fill-rule="nonzero" /><path id="1463" transform="matrix(1 0 0 -1 0 841)" d="M461.903 149.104L475.732 149.104L475.732 161.377L461.903 161.377z" stroke="none" fill="#FFF100" fill-rule="nonzero" /><path id="1467" transform="matrix(1 0 0 -1 0 841)" d="M475.75 149.104L478.614 149.104L478.614 161.377L475.75 161.377z" stroke="none" fill="#FFF100" fill-rule="nonzero" /><path id="1468" transform="matrix(1 0 0 -1 0 841)" d="M478.365 149.104L497.987 149.104L497.987 161.377L478.365 161.377z" stroke="none" fill="#FFF100" fill-rule="nonzero" /><path id="1472" transform="matrix(1 0 0 -1 0 841)" d="M498.125 149.104L500.989 149.104L500.989 161.377L498.125 161.377z" stroke="none" fill="#FFF100" fill-rule="nonzero" /><path id="1473" transform="matrix(1 0 0 -1 0 841)" d="M500.74 149.104L508.514 149.104L508.514 161.377L500.74 161.377z" stroke="none" fill="#FFF100" fill-rule="nonzero" /><path id="1476" transform="matrix(1 0 0 -1 0 841)" d="M136.063 132.167L146.696 132.167L146.696 144.44L136.063 144.44z" stroke="none" fill="#FFF100" fill-rule="nonzero" /><path id="1479" transform="matrix(1 0 0 -1 0 841)" d="M146.404 132.167L179.618 132.167L179.618 144.44L146.404 144.44z" stroke="none" fill="#FFF100" fill-rule="nonzero" /><path id="1487" transform="matrix(1 0 0 -1 0 841)" d="M180.023 132.167L183.12 132.167L183.12 144.44L180.023 144.44z" stroke="none" fill="#FFF100" fill-rule="nonzero" /><path id="1488" transform="matrix(1 0 0 -1 0 841)" d="M182.871 132.167L194.584 132.167L194.584 144.44L182.871 144.44z" stroke="none" fill="#FFF100" fill-rule="nonzero" /><path id="1492" transform="matrix(1 0 0 -1 0 841)" d="M194.559 132.167L197.656 132.167L197.656 144.44L194.559 144.44z" stroke="none" fill="#FFF100" fill-rule="nonzero" /><path id="1493" transform="matrix(1 0 0 -1 0 841)" d="M197.407 132.167L209.425 132.167L209.425 144.44L197.407 144.44z" stroke="none" fill="#FFF100" fill-rule="nonzero" /><path id="1496" transform="matrix(1 0 0 -1 0 841)" d="M209.407 132.167L212.504 132.167L212.504 144.44L209.407 144.44z" stroke="none" fill="#FFF100" fill-rule="nonzero" /><path id="1497" transform="matrix(1 0 0 -1 0 841)" d="M212.255 132.167L219.418 132.167L219.418 144.44L212.255 144.44z" stroke="none" fill="#FFF100" fill-rule="nonzero" /><path id="1500" transform="matrix(1 0 0 -1 0 841)" d="M219.303 132.167L222.4 132.167L222.4 144.44L219.303 144.44z" stroke="none" fill="#FFF100" fill-rule="nonzero" /><path id="1501" transform="matrix(1 0 0 -1 0 841)" d="M222.151 132.167L235.98 132.167L235.98 144.44L222.151 144.44z" stroke="none" fill="#FFF100" fill-rule="nonzero" /><path id="1505" transform="matrix(1 0 0 -1 0 841)" d="M235.998 132.167L239.095 132.167L239.095 144.44L235.998 144.44z" stroke="none" fill="#FFF100" fill-rule="nonzero" /><path id="1506" transform="matrix(1 0 0 -1 0 841)" d="M238.846 132.167L258.468 132.167L258.468 144.44L238.846 144.44z" stroke="none" fill="#FFF100" fill-rule="nonzero" /><path id="1510" transform="matrix(1 0 0 -1 0 841)" d="M258.607 132.167L261.704 132.167L261.704 144.44L258.607 144.44z" stroke="none" fill="#FFF100" fill-rule="nonzero" /><path id="1511" transform="matrix(1 0 0 -1 0 841)" d="M261.455 132.167L269.229 132.167L269.229 144.44L261.455 144.44z" stroke="none" fill="#FFF100" fill-rule="nonzero" /><path id="1514" transform="matrix(1 0 0 -1 0 841)" d="M269.126 132.167L272.223 132.167L272.223 144.44L269.126 144.44z" stroke="none" fill="#FFF100" fill-rule="nonzero" /><path id="1515" transform="matrix(1 0 0 -1 0 841)" d="M271.974 132.167L280.959 132.167L280.959 144.44L271.974 144.44z" stroke="none" fill="#FFF100" fill-rule="nonzero" /><path id="1518" transform="matrix(1 0 0 -1 0 841)" d="M280.88 132.167L283.977 132.167L283.977 144.44L280.88 144.44z" stroke="none" fill="#FFF100" fill-rule="nonzero" /><path id="1519" transform="matrix(1 0 0 -1 0 841)" d="M283.729 132.167L301.802 132.167L301.802 144.44L283.729 144.44z" stroke="none" fill="#FFF100" fill-rule="nonzero" /><path id="1522" transform="matrix(1 0 0 -1 0 841)" d="M301.904 132.167L305.001 132.167L305.001 144.44L301.904 144.44z" stroke="none" fill="#FFF100" fill-rule="nonzero" /><path id="1523" transform="matrix(1 0 0 -1 0 841)" d="M304.752 132.167L319.181 132.167L319.181 144.44L304.752 144.44z" stroke="none" fill="#FFF100" fill-rule="nonzero" /><path id="1527" transform="matrix(1 0 0 -1 0 841)" d="M319.21 132.167L322.307 132.167L322.307 144.44L319.21 144.44z" stroke="none" fill="#FFF100" fill-rule="nonzero" /><path id="1528" transform="matrix(1 0 0 -1 0 841)" d="M322.059 132.167L338.31 132.167L338.31 144.44L322.059 144.44z" stroke="none" fill="#FFF100" fill-rule="nonzero" /><path id="1532" transform="matrix(1 0 0 -1 0 841)" d="M338.376 132.167L341.473 132.167L341.473 144.44L338.376 144.44z" stroke="none" fill="#FFF100" fill-rule="nonzero" /><path id="1533" transform="matrix(1 0 0 -1 0 841)" d="M341.224 132.167L355.053 132.167L355.053 144.44L341.224 144.44z" stroke="none" fill="#FFF100" fill-rule="nonzero" /><path id="1537" transform="matrix(1 0 0 -1 0 841)" d="M355.07 132.167L358.167 132.167L358.167 144.44L355.07 144.44z" stroke="none" fill="#FFF100" fill-rule="nonzero" /><path id="1538" transform="matrix(1 0 0 -1 0 841)" d="M357.919 132.167L371.137 132.167L371.137 144.44L357.919 144.44z" stroke="none" fill="#FFF100" fill-rule="nonzero" /><path id="1542" transform="matrix(1 0 0 -1 0 841)" d="M370.893 132.167L381.689 132.167L381.689 144.44L370.893 144.44z" stroke="none" fill="#FFF100" fill-rule="nonzero" /><path id="1545" transform="matrix(1 0 0 -1 0 841)" d="M381.397 132.167L403.102 132.167L403.102 144.44L381.397 144.44z" stroke="none" fill="#FFF100" fill-rule="nonzero" /><path id="1551" transform="matrix(1 0 0 -1 0 841)" d="M403.277 132.167L406.374 132.167L406.374 144.44L403.277 144.44z" stroke="none" fill="#FFF100" fill-rule="nonzero" /><path id="1552" transform="matrix(1 0 0 -1 0 841)" d="M406.125 132.167L425.408 132.167L425.408 144.44L406.125 144.44z" stroke="none" fill="#FFF100" fill-rule="nonzero" /><path id="1557" transform="matrix(1 0 0 -1 0 841)" d="M425.286 132.167L439.726 132.167L439.726 144.44L425.286 144.44z" stroke="none" fill="#FFF100" fill-rule="nonzero" /><path id="1561" transform="matrix(1 0 0 -1 0 841)" d="M439.756 132.167L442.853 132.167L442.853 144.44L439.756 144.44z" stroke="none" fill="#FFF100" fill-rule="nonzero" /><path id="1562" transform="matrix(1 0 0 -1 0 841)" d="M442.604 132.167L459.455 132.167L459.455 144.44L442.604 144.44z" stroke="none" fill="#FFF100" fill-rule="nonzero" /><path id="1567" transform="matrix(1 0 0 -1 0 841)" d="M459.533 132.167L462.63 132.167L462.63 144.44L459.533 144.44z" stroke="none" fill="#FFF100" fill-rule="nonzero" /><path id="1568" transform="matrix(1 0 0 -1 0 841)" d="M462.381 132.167L479.853 132.167L479.853 144.44L462.381 144.44z" stroke="none" fill="#FFF100" fill-rule="nonzero" /><path id="1573" transform="matrix(1 0 0 -1 0 841)" d="M479.944 132.167L483.041 132.167L483.041 144.44L479.944 144.44z" stroke="none" fill="#FFF100" fill-rule="nonzero" /><path id="1574" transform="matrix(1 0 0 -1 0 841)" d="M482.792 132.167L493.588 132.167L493.588 144.44L482.792 144.44z" stroke="none" fill="#FFF100" fill-rule="nonzero" /><path id="1577" transform="matrix(1 0 0 -1 0 841)" d="M493.546 132.167L496.643 132.167L496.643 144.44L493.546 144.44z" stroke="none" fill="#FFF100" fill-rule="nonzero" /><path id="1578" transform="matrix(1 0 0 -1 0 841)" d="M496.394 132.167L505.379 132.167L505.379 144.44L496.394 144.44z" stroke="none" fill="#FFF100" fill-rule="nonzero" /><path id="1581" transform="matrix(1 0 0 -1 0 841)" d="M136.063 115.231L145.048 115.231L145.048 127.504L136.063 127.504z" stroke="none" fill="#FFF100" fill-rule="nonzero" /><path id="1584" transform="matrix(1 0 0 -1 0 841)" d="M144.72 115.231L152.494 115.231L152.494 127.504L144.72 127.504z" stroke="none" fill="#FFF100" fill-rule="nonzero" /><path id="1587" transform="matrix(1 0 0 -1 0 841)" d="M152.142 115.231L170.411 115.231L170.411 127.504L152.142 127.504z" stroke="none" fill="#FFF100" fill-rule="nonzero" /><path id="1592" transform="matrix(1 0 0 -1 0 841)" d="M170.531 115.231L173.368 115.231L173.368 127.504L170.531 127.504z" stroke="none" fill="#FFF100" fill-rule="nonzero" /><path id="1593" transform="matrix(1 0 0 -1 0 841)" d="M173.119 115.231L193.231 115.231L193.231 127.504L173.119 127.504z" stroke="none" fill="#FFF100" fill-rule="nonzero" /><path id="1598" transform="matrix(1 0 0 -1 0 841)" d="M193.133 115.231L213.627 115.231L213.627 127.504L193.133 127.504z" stroke="none" fill="#FFF100" fill-rule="nonzero" /><path id="1603" transform="matrix(1 0 0 -1 0 841)" d="M213.778 115.231L216.615 115.231L216.615 127.504L213.778 127.504z" stroke="none" fill="#FFF100" fill-rule="nonzero" /><path id="1604" transform="matrix(1 0 0 -1 0 841)" d="M216.365 115.231L223.528 115.231L223.528 127.504L216.365 127.504z" stroke="none" fill="#FFF100" fill-rule="nonzero" /><path id="1607" transform="matrix(1 0 0 -1 0 841)" d="M223.413 115.231L226.25 115.231L226.25 127.504L223.413 127.504z" stroke="none" fill="#FFF100" fill-rule="nonzero" /><path id="1608" transform="matrix(1 0 0 -1 0 841)" d="M226 115.231L239.829 115.231L239.829 127.504L226 127.504z" stroke="none" fill="#FFF100" fill-rule="nonzero" /><path id="1612" transform="matrix(1 0 0 -1 0 841)" d="M239.847 115.231L242.684 115.231L242.684 127.504L239.847 127.504z" stroke="none" fill="#FFF100" fill-rule="nonzero" /><path id="1613" transform="matrix(1 0 0 -1 0 841)" d="M242.434 115.231L262.056 115.231L262.056 127.504L242.434 127.504z" stroke="none" fill="#FFF100" fill-rule="nonzero" /><path id="1617" transform="matrix(1 0 0 -1 0 841)" d="M262.195 115.231L265.032 115.231L265.032 127.504L262.195 127.504z" stroke="none" fill="#FFF100" fill-rule="nonzero" /><path id="1618" transform="matrix(1 0 0 -1 0 841)" d="M264.782 115.231L288.636 115.231L288.636 127.504L264.782 127.504z" stroke="none" fill="#FFF100" fill-rule="nonzero" /><path id="1624" transform="matrix(1 0 0 -1 0 841)" d="M288.86 115.231L291.697 115.231L291.697 127.504L288.86 127.504z" stroke="none" fill="#FFF100" fill-rule="nonzero" /><path id="1625" transform="matrix(1 0 0 -1 0 841)" d="M291.447 115.231L311.941 115.231L311.941 127.504L291.447 127.504z" stroke="none" fill="#FFF100" fill-rule="nonzero" /><path id="1630" transform="matrix(1 0 0 -1 0 841)" d="M312.093 115.231L314.93 115.231L314.93 127.504L312.093 127.504z" stroke="none" fill="#FFF100" fill-rule="nonzero" /><path id="1631" transform="matrix(1 0 0 -1 0 841)" d="M314.68 115.231L322.454 115.231L322.454 127.504L314.68 127.504z" stroke="none" fill="#FFF100" fill-rule="nonzero" /><path id="1634" transform="matrix(1 0 0 -1 0 841)" d="M322.351 115.231L325.188 115.231L325.188 127.504L322.351 127.504z" stroke="none" fill="#FFF100" fill-rule="nonzero" /><path id="1635" transform="matrix(1 0 0 -1 0 841)" d="M324.938 115.231L333.923 115.231L333.923 127.504L324.938 127.504z" stroke="none" fill="#FFF100" fill-rule="nonzero" /><path id="1638" transform="matrix(1 0 0 -1 0 841)" d="M333.844 115.231L336.681 115.231L336.681 127.504L333.844 127.504z" stroke="none" fill="#FFF100" fill-rule="nonzero" /><path id="1639" transform="matrix(1 0 0 -1 0 841)" d="M336.432 115.231L354.505 115.231L354.505 127.504L336.432 127.504z" stroke="none" fill="#FFF100" fill-rule="nonzero" /><path id="1642" transform="matrix(1 0 0 -1 0 841)" d="M354.607 115.231L357.444 115.231L357.444 127.504L354.607 127.504z" stroke="none" fill="#FFF100" fill-rule="nonzero" /><path id="1643" transform="matrix(1 0 0 -1 0 841)" d="M357.194 115.231L371.623 115.231L371.623 127.504L357.194 127.504z" stroke="none" fill="#FFF100" fill-rule="nonzero" /><path id="1647" transform="matrix(1 0 0 -1 0 841)" d="M371.652 115.231L374.489 115.231L374.489 127.504L371.652 127.504z" stroke="none" fill="#FFF100" fill-rule="nonzero" /><path id="1648" transform="matrix(1 0 0 -1 0 841)" d="M374.24 115.231L407.77 115.231L407.77 127.504L374.24 127.504z" stroke="none" fill="#FFF100" fill-rule="nonzero" /><path id="1656" transform="matrix(1 0 0 -1 0 841)" d="M408.182 115.231L411.019 115.231L411.019 127.504L408.182 127.504z" stroke="none" fill="#FFF100" fill-rule="nonzero" /><path id="1657" transform="matrix(1 0 0 -1 0 841)" d="M410.769 115.231L424.598 115.231L424.598 127.504L410.769 127.504z" stroke="none" fill="#FFF100" fill-rule="nonzero" /><path id="1661" transform="matrix(1 0 0 -1 0 841)" d="M424.616 115.231L427.453 115.231L427.453 127.504L424.616 127.504z" stroke="none" fill="#FFF100" fill-rule="nonzero" /><path id="1662" transform="matrix(1 0 0 -1 0 841)" d="M427.203 115.231L440.421 115.231L440.421 127.504L427.203 127.504z" stroke="none" fill="#FFF100" fill-rule="nonzero" /><path id="1666" transform="matrix(1 0 0 -1 0 841)" d="M440.177 115.231L450.973 115.231L450.973 127.504L440.177 127.504z" stroke="none" fill="#FFF100" fill-rule="nonzero" /><path id="1669" transform="matrix(1 0 0 -1 0 841)" d="M450.681 115.231L472.386 115.231L472.386 127.504L450.681 127.504z" stroke="none" fill="#FFF100" fill-rule="nonzero" /><path id="1675" transform="matrix(1 0 0 -1 0 841)" d="M472.561 115.231L475.398 115.231L475.398 127.504L472.561 127.504z" stroke="none" fill="#FFF100" fill-rule="nonzero" /><path id="1676" transform="matrix(1 0 0 -1 0 841)" d="M475.149 115.231L494.432 115.231L494.432 127.504L475.149 127.504z" stroke="none" fill="#FFF100" fill-rule="nonzero" /><path id="1681" transform="matrix(1 0 0 -1 0 841)" d="M494.31 115.231L508.75 115.231L508.75 127.504L494.31 127.504z" stroke="none" fill="#FFF100" fill-rule="nonzero" /><path id="1685" transform="matrix(1 0 0 -1 0 841)" d="M136.063 98.294L152.914 98.294L152.914 110.567L136.063 110.567z" stroke="none" fill="#FFF100" fill-rule="nonzero" /><path id="1690" transform="matrix(1 0 0 -1 0 841)" d="M152.665 98.294L155.392 98.294L155.392 110.567L152.665 110.567z" stroke="none" fill="#FFF100" fill-rule="nonzero" /><path id="1691" transform="matrix(1 0 0 -1 0 841)" d="M155.143 98.294L172.615 98.294L172.615 110.567L155.143 110.567z" stroke="none" fill="#FFF100" fill-rule="nonzero" /><path id="1696" transform="matrix(1 0 0 -1 0 841)" d="M172.366 98.294L175.093 98.294L175.093 110.567L172.366 110.567z" stroke="none" fill="#FFF100" fill-rule="nonzero" /><path id="1697" transform="matrix(1 0 0 -1 0 841)" d="M174.844 98.294L185.64 98.294L185.64 110.567L174.844 110.567z" stroke="none" fill="#FFF100" fill-rule="nonzero" /><path id="1700" transform="matrix(1 0 0 -1 0 841)" d="M185.391 98.294L188.118 98.294L188.118 110.567L185.391 110.567z" stroke="none" fill="#FFF100" fill-rule="nonzero" /><path id="1701" transform="matrix(1 0 0 -1 0 841)" d="M187.87 98.294L196.855 98.294L196.855 110.567L187.87 110.567z" stroke="none" fill="#FFF100" fill-rule="nonzero" /><path id="1704" transform="matrix(1 0 0 -1 0 841)" d="M196.606 98.294L199.333 98.294L199.333 110.567L196.606 110.567z" stroke="none" fill="#FFF100" fill-rule="nonzero" /><path id="1705" transform="matrix(1 0 0 -1 0 841)" d="M199.084 98.294L208.069 98.294L208.069 110.567L199.084 110.567z" stroke="none" fill="#FFF100" fill-rule="nonzero" /><path id="1708" transform="matrix(1 0 0 -1 0 841)" d="M207.571 98.294L235.047 98.294L235.047 110.567L207.571 110.567z" stroke="none" fill="#FFF100" fill-rule="nonzero" /><path id="1717" transform="matrix(1 0 0 -1 0 841)" d="M136.063 81.358L143.826 81.358L143.826 93.631L136.063 93.631z" stroke="none" fill="#FFF100" fill-rule="nonzero" /><path id="1720" transform="matrix(1 0 0 -1 0 841)" d="M143.432 81.358L145.884 81.358L145.884 93.631L143.432 93.631z" stroke="none" fill="#FFF100" fill-rule="nonzero" /><path id="1721" transform="matrix(1 0 0 -1 0 841)" d="M145.635 81.358L159.857 81.358L159.857 93.631L145.635 93.631z" stroke="none" fill="#FFF100" fill-rule="nonzero" /><path id="1725" transform="matrix(1 0 0 -1 0 841)" d="M159.08 81.358L178.363 81.358L178.363 93.631L159.08 93.631z" stroke="none" fill="#FFF100" fill-rule="nonzero" /><path id="1729" transform="matrix(1 0 0 -1 0 841)" d="M177.738 81.358L180.19 81.358L180.19 93.631L177.738 93.631z" stroke="none" fill="#FFF100" fill-rule="nonzero" /><path id="1730" transform="matrix(1 0 0 -1 0 841)" d="M179.941 81.358L187.715 81.358L187.715 93.631L179.941 93.631z" stroke="none" fill="#FFF100" fill-rule="nonzero" /><path id="1733" transform="matrix(1 0 0 -1 0 841)" d="M187.321 81.358L189.773 81.358L189.773 93.631L187.321 93.631z" stroke="none" fill="#FFF100" fill-rule="nonzero" /><path id="1734" transform="matrix(1 0 0 -1 0 841)" d="M189.523 81.358L212.745 81.358L212.745 93.631L189.523 93.631z" stroke="none" fill="#FFF100" fill-rule="nonzero" /><path id="1740" transform="matrix(1 0 0 -1 0 841)" d="M212.041 81.358L214.493 81.358L214.493 93.631L212.041 93.631z" stroke="none" fill="#FFF100" fill-rule="nonzero" /><path id="1741" transform="matrix(1 0 0 -1 0 841)" d="M214.244 81.358L228.073 81.358L228.073 93.631L214.244 93.631z" stroke="none" fill="#FFF100" fill-rule="nonzero" /><path id="1745" transform="matrix(1 0 0 -1 0 841)" d="M227.557 81.358L230.009 81.358L230.009 93.631L227.557 93.631z" stroke="none" fill="#FFF100" fill-rule="nonzero" /><path id="1746" transform="matrix(1 0 0 -1 0 841)" d="M229.76 81.358L242.978 81.358L242.978 93.631L229.76 93.631z" stroke="none" fill="#FFF100" fill-rule="nonzero" /><path id="1750" transform="matrix(1 0 0 -1 0 841)" d="M242.225 81.358L253.021 81.358L253.021 93.631L242.225 93.631z" stroke="none" fill="#FFF100" fill-rule="nonzero" /><path id="1753" transform="matrix(1 0 0 -1 0 841)" d="M252.317 81.358L274.022 81.358L274.022 93.631L252.317 93.631z" stroke="none" fill="#FFF100" fill-rule="nonzero" /><path id="1759" transform="matrix(1 0 0 -1 0 841)" d="M273.349 81.358L275.801 81.358L275.801 93.631L273.349 93.631z" stroke="none" fill="#FFF100" fill-rule="nonzero" /><path id="1760" transform="matrix(1 0 0 -1 0 841)" d="M275.552 81.358L299.406 81.358L299.406 93.631L275.552 93.631z" stroke="none" fill="#FFF100" fill-rule="nonzero" /><path id="1766" transform="matrix(1 0 0 -1 0 841)" d="M298.684 81.358L301.136 81.358L301.136 93.631L298.684 93.631z" stroke="none" fill="#FFF100" fill-rule="nonzero" /><path id="1767" transform="matrix(1 0 0 -1 0 841)" d="M300.887 81.358L318.359 81.358L318.359 93.631L300.887 93.631z" stroke="none" fill="#FFF100" fill-rule="nonzero" /><path id="1772" transform="matrix(1 0 0 -1 0 841)" d="M317.771 81.358L320.223 81.358L320.223 93.631L317.771 93.631z" stroke="none" fill="#FFF100" fill-rule="nonzero" /><path id="1773" transform="matrix(1 0 0 -1 0 841)" d="M319.973 81.358L330.769 81.358L330.769 93.631L319.973 93.631z" stroke="none" fill="#FFF100" fill-rule="nonzero" /><path id="1776" transform="matrix(1 0 0 -1 0 841)" d="M330.314 81.358L332.766 81.358L332.766 93.631L330.314 93.631z" stroke="none" fill="#FFF100" fill-rule="nonzero" /><path id="1777" transform="matrix(1 0 0 -1 0 841)" d="M332.517 81.358L346.346 81.358L346.346 93.631L332.517 93.631z" stroke="none" fill="#FFF100" fill-rule="nonzero" /><path id="1781" transform="matrix(1 0 0 -1 0 841)" d="M345.83 81.358L348.282 81.358L348.282 93.631L345.83 93.631z" stroke="none" fill="#FFF100" fill-rule="nonzero" /><path id="1782" transform="matrix(1 0 0 -1 0 841)" d="M348.033 81.358L370.349 81.358L370.349 93.631L348.033 93.631z" stroke="none" fill="#FFF100" fill-rule="nonzero" /><path id="1787" transform="matrix(1 0 0 -1 0 841)" d="M369.663 81.358L372.115 81.358L372.115 93.631L369.663 93.631z" stroke="none" fill="#FFF100" fill-rule="nonzero" /><path id="1788" transform="matrix(1 0 0 -1 0 841)" d="M371.866 81.358L381.451 81.358L381.451 93.631L371.866 93.631z" stroke="none" fill="#FFF100" fill-rule="nonzero" /><path id="1791" transform="matrix(1 0 0 -1 0 841)" d="M381.021 81.358L383.473 81.358L383.473 93.631L381.021 93.631z" stroke="none" fill="#FFF100" fill-rule="nonzero" /><path id="1792" transform="matrix(1 0 0 -1 0 841)" d="M383.223 81.358L397.052 81.358L397.052 93.631L383.223 93.631z" stroke="none" fill="#FFF100" fill-rule="nonzero" /><path id="1796" transform="matrix(1 0 0 -1 0 841)" d="M396.536 81.358L398.988 81.358L398.988 93.631L396.536 93.631z" stroke="none" fill="#FFF100" fill-rule="nonzero" /><path id="1797" transform="matrix(1 0 0 -1 0 841)" d="M398.739 81.358L414.99 81.358L414.99 93.631L398.739 93.631z" stroke="none" fill="#FFF100" fill-rule="nonzero" /><path id="1801" transform="matrix(1 0 0 -1 0 841)" d="M414.177 81.358L446.802 81.358L446.802 93.631L414.177 93.631z" stroke="none" fill="#FFF100" fill-rule="nonzero" /><path id="1810" transform="matrix(1 0 0 -1 0 841)" d="M445.91 81.358L448.362 81.358L448.362 93.631L445.91 93.631z" stroke="none" fill="#FFF100" fill-rule="nonzero" /><path id="1811" transform="matrix(1 0 0 -1 0 841)" d="M448.112 81.358L457.097 81.358L457.097 93.631L448.112 93.631z" stroke="none" fill="#FFF100" fill-rule="nonzero" /><path id="1814" transform="matrix(1 0 0 -1 0 841)" d="M456.679 81.358L459.131 81.358L459.131 93.631L456.679 93.631z" stroke="none" fill="#FFF100" fill-rule="nonzero" /><path id="1815" transform="matrix(1 0 0 -1 0 841)" d="M458.881 81.358L475.742 81.358L475.742 93.631L458.881 93.631z" stroke="none" fill="#FFF100" fill-rule="nonzero" /><path id="1820" transform="matrix(1 0 0 -1 0 841)" d="M475.167 81.358L477.619 81.358L477.619 93.631L475.167 93.631z" stroke="none" fill="#FFF100" fill-rule="nonzero" /><path id="1821" transform="matrix(1 0 0 -1 0 841)" d="M477.369 81.358L491.591 81.358L491.591 93.631L477.369 93.631z" stroke="none" fill="#FFF100" fill-rule="nonzero" /><path id="1825" transform="matrix(1 0 0 -1 0 841)" d="M490.814 81.358L512.825 81.358L512.825 93.631L490.814 93.631z" stroke="none" fill="#FFF100" fill-rule="nonzero" /></g></g></svg>