<svg xmlns="http://www.w3.org/2000/svg" xmlns:xlink="http://www.w3.org/1999/xlink" id="body_182" preserveAspectRatio="xMinYMin meet" viewBox="0 0 1121 793"><defs><clipPath id="1"><path id="" clip-rule="evenodd" transform="matrix(1 0 0 1 0 0)" d="M0 -0.276001L841.89 -0.276001L841.89 -0.276001L841.89 595L841.89 595L3.644894E-14 595L3.644894E-14 595L0 -0.276001z" /></clipPath></defs><g transform="matrix(1.333333 0 0 1.333333 0 0)"><g clip-path="url(#1)"><path id="1" transform="matrix(1 0 0 -1 0 595)" d="M112.574 510.038L729.316 510.038" stroke="#000000" stroke-width="0.398" fill="none" /><path id="2" transform="matrix(1 0 0 -1 0 595)" d="M112.773 496.29L112.773 509.839" stroke="#000000" stroke-width="0.398" fill="none" /><path id="15" transform="matrix(1 0 0 -1 0 595)" d="M266.859 496.29L266.859 509.839" stroke="#000000" stroke-width="0.398" fill="none" /><path id="26" transform="matrix(1 0 0 -1 0 595)" d="M420.945 496.29L420.945 509.839" stroke="#000000" stroke-width="0.398" fill="none" /><path id="40" transform="matrix(1 0 0 -1 0 595)" d="M575.031 496.29L575.031 509.839" stroke="#000000" stroke-width="0.398" fill="none" /><path id="47" transform="matrix(1 0 0 -1 0 595)" d="M729.1169 496.29L729.1169 509.839" stroke="#000000" stroke-width="0.398" fill="none" /><path id="48" transform="matrix(1 0 0 -1 0 595)" d="M112.773 393.918L112.773 496.29" stroke="#000000" stroke-width="0.398" fill="none" /><path id="297" transform="matrix(1 0 0 -1 0 595)" d="M266.859 393.918L266.859 496.29" stroke="#000000" stroke-width="0.398" fill="none" /><path id="543" transform="matrix(1 0 0 -1 0 595)" d="M420.945 393.918L420.945 496.29" stroke="#000000" stroke-width="0.398" fill="none" /><path id="711" transform="matrix(1 0 0 -1 0 595)" d="M575.031 393.918L575.031 496.29" stroke="#000000" stroke-width="0.398" fill="none" /><path id="860" transform="matrix(1 0 0 -1 0 595)" d="M729.1169 393.918L729.1169 496.29" stroke="#000000" stroke-width="0.398" fill="none" /><path id="861" transform="matrix(1 0 0 -1 0 595)" d="M112.574 393.718L729.316 393.718" stroke="#000000" stroke-width="0.398" fill="none" /><path id="862" transform="matrix(1 0 0 -1 0 595)" d="M112.773 311.722L112.773 393.519" stroke="#000000" stroke-width="0.398" fill="none" /><path id="907" transform="matrix(1 0 0 -1 0 595)" d="M266.859 311.722L266.859 393.519" stroke="#000000" stroke-width="0.398" fill="none" /><path id="1087" transform="matrix(1 0 0 -1 0 595)" d="M420.945 311.722L420.945 393.519" stroke="#000000" stroke-width="0.398" fill="none" /><path id="1258" transform="matrix(1 0 0 -1 0 595)" d="M575.031 311.722L575.031 393.519" stroke="#000000" stroke-width="0.398" fill="none" /><path id="1468" transform="matrix(1 0 0 -1 0 595)" d="M729.1169 311.722L729.1169 393.519" stroke="#000000" stroke-width="0.398" fill="none" /><path id="1469" transform="matrix(1 0 0 -1 0 595)" d="M112.574 311.523L729.316 311.523" stroke="#000000" stroke-width="0.398" fill="none" /><path id="1470" transform="matrix(1 0 0 -1 0 595)" d="M112.773 199.487L112.773 311.323" stroke="#000000" stroke-width="0.398" fill="none" /><path id="1664" transform="matrix(1 0 0 -1 0 595)" d="M266.859 199.487L266.859 311.323" stroke="#000000" stroke-width="0.398" fill="none" /><path id="1900" transform="matrix(1 0 0 -1 0 595)" d="M420.945 199.487L420.945 311.323" stroke="#000000" stroke-width="0.398" fill="none" /><path id="2034" transform="matrix(1 0 0 -1 0 595)" d="M575.031 199.487L575.031 311.323" stroke="#000000" stroke-width="0.398" fill="none" /><path id="2286" transform="matrix(1 0 0 -1 0 595)" d="M729.1169 199.487L729.1169 311.323" stroke="#000000" stroke-width="0.398" fill="none" /><path id="2287" transform="matrix(1 0 0 -1 0 595)" d="M112.574 199.288L729.316 199.288" stroke="#000000" stroke-width="0.398" fill="none" /><path id="2288" transform="matrix(1 0 0 -1 0 595)" d="M112.773 96.717L112.773 199.089" stroke="#000000" stroke-width="0.398" fill="none" /><path id="2489" transform="matrix(1 0 0 -1 0 595)" d="M266.859 96.717L266.859 199.089" stroke="#000000" stroke-width="0.398" fill="none" /><path id="2704" transform="matrix(1 0 0 -1 0 595)" d="M420.945 96.717L420.945 199.089" stroke="#000000" stroke-width="0.398" fill="none" /><path id="2827" transform="matrix(1 0 0 -1 0 595)" d="M575.031 96.717L575.031 199.089" stroke="#000000" stroke-width="0.398" fill="none" /><path id="2991" transform="matrix(1 0 0 -1 0 595)" d="M729.1169 96.717L729.1169 199.089" stroke="#000000" stroke-width="0.398" fill="none" /><path id="2992" transform="matrix(1 0 0 -1 0 595)" d="M112.574 96.517L729.316 96.517" stroke="#000000" stroke-width="0.398" fill="none" /></g></g></svg>