<svg xmlns="http://www.w3.org/2000/svg" xmlns:xlink="http://www.w3.org/1999/xlink" id="body_200" preserveAspectRatio="xMinYMin meet" viewBox="0 0 793 1121"><defs><clipPath id="1"><path id="" clip-rule="evenodd" transform="matrix(1 0 0 1 0 0)" d="M0 841L0 -0.8900146L0 -0.8900146L595.276 -0.8900146L595.276 -0.8900146L595.276 841L595.276 841L0 841z" /></clipPath></defs><g transform="matrix(1.333333 0 0 1.333333 0 0)"><g clip-path="url(#1)"><path id="30" transform="matrix(1 0 0 -1 0 841)" d="M85.039 766.564L510.236 766.564" stroke="#000000" stroke-width="0.498" fill="none" /><path id="31" transform="matrix(1 0 0 -1 0 841)" d="M85.039 756.651L563.688 756.651" stroke="#000000" stroke-width="0.398" fill="none" /><path id="32" transform="matrix(1 0 0 -1 0 841)" d="M85.239 742.903L85.239 756.452" stroke="#000000" stroke-width="0.398" fill="none" /><path id="85" transform="matrix(1 0 0 -1 0 841)" d="M563.489 742.903L563.489 756.452" stroke="#000000" stroke-width="0.398" fill="none" /><path id="86" transform="matrix(1 0 0 -1 0 841)" d="M85.039 742.703L563.688 742.703" stroke="#000000" stroke-width="0.398" fill="none" /><path id="87" transform="matrix(1 0 0 -1 0 841)" d="M85.239 728.955L85.239 742.504" stroke="#000000" stroke-width="0.398" fill="none" /><path id="142" transform="matrix(1 0 0 -1 0 841)" d="M563.489 728.955L563.489 742.504" stroke="#000000" stroke-width="0.398" fill="none" /><path id="143" transform="matrix(1 0 0 -1 0 841)" d="M85.039 728.756L563.688 728.756" stroke="#000000" stroke-width="0.398" fill="none" /><path id="144" transform="matrix(1 0 0 -1 0 841)" d="M85.239 715.007L85.239 728.556" stroke="#000000" stroke-width="0.398" fill="none" /><path id="147" transform="matrix(1 0 0 -1 0 841)" d="M125.939 715.007L125.939 728.556" stroke="#000000" stroke-width="0.398" fill="none" /><path id="174" transform="matrix(1 0 0 -1 0 841)" d="M563.489 715.007L563.489 728.556" stroke="#000000" stroke-width="0.398" fill="none" /><path id="175" transform="matrix(1 0 0 -1 0 841)" d="M85.039 714.808L563.688 714.808" stroke="#000000" stroke-width="0.398" fill="none" /><path id="176" transform="matrix(1 0 0 -1 0 841)" d="M85.239 701.06L85.239 714.609" stroke="#000000" stroke-width="0.398" fill="none" /><path id="179" transform="matrix(1 0 0 -1 0 841)" d="M125.939 701.06L125.939 714.609" stroke="#000000" stroke-width="0.398" fill="none" /><path id="203" transform="matrix(1 0 0 -1 0 841)" d="M563.489 701.06L563.489 714.609" stroke="#000000" stroke-width="0.398" fill="none" /><path id="204" transform="matrix(1 0 0 -1 0 841)" d="M85.039 700.86L563.688 700.86" stroke="#000000" stroke-width="0.398" fill="none" /><path id="205" transform="matrix(1 0 0 -1 0 841)" d="M85.239 687.112L85.239 700.661" stroke="#000000" stroke-width="0.398" fill="none" /><path id="208" transform="matrix(1 0 0 -1 0 841)" d="M125.939 687.112L125.939 700.661" stroke="#000000" stroke-width="0.398" fill="none" /><path id="249" transform="matrix(1 0 0 -1 0 841)" d="M563.489 687.112L563.489 700.661" stroke="#000000" stroke-width="0.398" fill="none" /><path id="250" transform="matrix(1 0 0 -1 0 841)" d="M85.039 686.913L563.688 686.913" stroke="#000000" stroke-width="0.398" fill="none" /><path id="251" transform="matrix(1 0 0 -1 0 841)" d="M85.239 673.164L85.239 686.713" stroke="#000000" stroke-width="0.398" fill="none" /><path id="254" transform="matrix(1 0 0 -1 0 841)" d="M125.939 673.164L125.939 686.713" stroke="#000000" stroke-width="0.398" fill="none" /><path id="291" transform="matrix(1 0 0 -1 0 841)" d="M563.489 673.164L563.489 686.713" stroke="#000000" stroke-width="0.398" fill="none" /><path id="292" transform="matrix(1 0 0 -1 0 841)" d="M85.039 672.965L563.688 672.965" stroke="#000000" stroke-width="0.398" fill="none" /><path id="293" transform="matrix(1 0 0 -1 0 841)" d="M85.239 659.217L85.239 672.766" stroke="#000000" stroke-width="0.398" fill="none" /><path id="296" transform="matrix(1 0 0 -1 0 841)" d="M125.939 659.217L125.939 672.766" stroke="#000000" stroke-width="0.398" fill="none" /><path id="328" transform="matrix(1 0 0 -1 0 841)" d="M563.489 659.217L563.489 672.766" stroke="#000000" stroke-width="0.398" fill="none" /><path id="329" transform="matrix(1 0 0 -1 0 841)" d="M85.039 659.017L563.688 659.017" stroke="#000000" stroke-width="0.398" fill="none" /><path id="330" transform="matrix(1 0 0 -1 0 841)" d="M85.239 645.269L85.239 658.818" stroke="#000000" stroke-width="0.398" fill="none" /><path id="333" transform="matrix(1 0 0 -1 0 841)" d="M125.939 645.269L125.939 658.818" stroke="#000000" stroke-width="0.398" fill="none" /><path id="370" transform="matrix(1 0 0 -1 0 841)" d="M563.489 645.269L563.489 658.818" stroke="#000000" stroke-width="0.398" fill="none" /><path id="371" transform="matrix(1 0 0 -1 0 841)" d="M85.039 645.07L563.688 645.07" stroke="#000000" stroke-width="0.398" fill="none" /><path id="372" transform="matrix(1 0 0 -1 0 841)" d="M85.239 631.321L85.239 644.87" stroke="#000000" stroke-width="0.398" fill="none" /><path id="375" transform="matrix(1 0 0 -1 0 841)" d="M125.939 631.321L125.939 644.87" stroke="#000000" stroke-width="0.398" fill="none" /><path id="399" transform="matrix(1 0 0 -1 0 841)" d="M563.489 631.321L563.489 644.87" stroke="#000000" stroke-width="0.398" fill="none" /><path id="400" transform="matrix(1 0 0 -1 0 841)" d="M85.039 631.122L563.688 631.122" stroke="#000000" stroke-width="0.398" fill="none" /><path id="401" transform="matrix(1 0 0 -1 0 841)" d="M85.239 617.374L85.239 630.923" stroke="#000000" stroke-width="0.398" fill="none" /><path id="404" transform="matrix(1 0 0 -1 0 841)" d="M125.939 617.374L125.939 630.923" stroke="#000000" stroke-width="0.398" fill="none" /><path id="440" transform="matrix(1 0 0 -1 0 841)" d="M563.489 617.374L563.489 630.923" stroke="#000000" stroke-width="0.398" fill="none" /><path id="441" transform="matrix(1 0 0 -1 0 841)" d="M85.039 617.174L563.688 617.174" stroke="#000000" stroke-width="0.398" fill="none" /><path id="442" transform="matrix(1 0 0 -1 0 841)" d="M85.239 603.426L85.239 616.975" stroke="#000000" stroke-width="0.398" fill="none" /><path id="445" transform="matrix(1 0 0 -1 0 841)" d="M125.939 603.426L125.939 616.975" stroke="#000000" stroke-width="0.398" fill="none" /><path id="505" transform="matrix(1 0 0 -1 0 841)" d="M563.489 603.426L563.489 616.975" stroke="#000000" stroke-width="0.398" fill="none" /><path id="506" transform="matrix(1 0 0 -1 0 841)" d="M85.039 603.227L563.688 603.227" stroke="#000000" stroke-width="0.398" fill="none" /><path id="507" transform="matrix(1 0 0 -1 0 841)" d="M85.239 589.478L85.239 603.027" stroke="#000000" stroke-width="0.398" fill="none" /><path id="510" transform="matrix(1 0 0 -1 0 841)" d="M125.939 589.478L125.939 603.027" stroke="#000000" stroke-width="0.398" fill="none" /><path id="544" transform="matrix(1 0 0 -1 0 841)" d="M563.489 589.478L563.489 603.027" stroke="#000000" stroke-width="0.398" fill="none" /><path id="545" transform="matrix(1 0 0 -1 0 841)" d="M85.039 589.279L563.688 589.279" stroke="#000000" stroke-width="0.398" fill="none" /><path id="546" transform="matrix(1 0 0 -1 0 841)" d="M85.239 575.531L85.239 589.08" stroke="#000000" stroke-width="0.398" fill="none" /><path id="549" transform="matrix(1 0 0 -1 0 841)" d="M125.939 575.531L125.939 589.08" stroke="#000000" stroke-width="0.398" fill="none" /><path id="595" transform="matrix(1 0 0 -1 0 841)" d="M563.489 575.531L563.489 589.08" stroke="#000000" stroke-width="0.398" fill="none" /><path id="596" transform="matrix(1 0 0 -1 0 841)" d="M85.039 575.331L563.688 575.331" stroke="#000000" stroke-width="0.398" fill="none" /><path id="597" transform="matrix(1 0 0 -1 0 841)" d="M85.239 561.583L85.239 575.132" stroke="#000000" stroke-width="0.398" fill="none" /><path id="600" transform="matrix(1 0 0 -1 0 841)" d="M125.939 561.583L125.939 575.132" stroke="#000000" stroke-width="0.398" fill="none" /><path id="638" transform="matrix(1 0 0 -1 0 841)" d="M563.489 561.583L563.489 575.132" stroke="#000000" stroke-width="0.398" fill="none" /><path id="639" transform="matrix(1 0 0 -1 0 841)" d="M85.039 561.384L563.688 561.384" stroke="#000000" stroke-width="0.398" fill="none" /><path id="640" transform="matrix(1 0 0 -1 0 841)" d="M85.239 547.635L85.239 561.184" stroke="#000000" stroke-width="0.398" fill="none" /><path id="643" transform="matrix(1 0 0 -1 0 841)" d="M125.939 547.635L125.939 561.184" stroke="#000000" stroke-width="0.398" fill="none" /><path id="674" transform="matrix(1 0 0 -1 0 841)" d="M563.489 547.635L563.489 561.184" stroke="#000000" stroke-width="0.398" fill="none" /><path id="675" transform="matrix(1 0 0 -1 0 841)" d="M85.039 547.436L563.688 547.436" stroke="#000000" stroke-width="0.398" fill="none" /><path id="676" transform="matrix(1 0 0 -1 0 841)" d="M85.239 533.687L85.239 547.236" stroke="#000000" stroke-width="0.398" fill="none" /><path id="679" transform="matrix(1 0 0 -1 0 841)" d="M125.939 533.687L125.939 547.236" stroke="#000000" stroke-width="0.398" fill="none" /><path id="712" transform="matrix(1 0 0 -1 0 841)" d="M563.489 533.687L563.489 547.236" stroke="#000000" stroke-width="0.398" fill="none" /><path id="713" transform="matrix(1 0 0 -1 0 841)" d="M85.039 533.488L563.688 533.488" stroke="#000000" stroke-width="0.398" fill="none" /><path id="714" transform="matrix(1 0 0 -1 0 841)" d="M85.239 519.74L85.239 533.289" stroke="#000000" stroke-width="0.398" fill="none" /><path id="717" transform="matrix(1 0 0 -1 0 841)" d="M125.939 519.74L125.939 533.289" stroke="#000000" stroke-width="0.398" fill="none" /><path id="758" transform="matrix(1 0 0 -1 0 841)" d="M563.489 519.74L563.489 533.289" stroke="#000000" stroke-width="0.398" fill="none" /><path id="759" transform="matrix(1 0 0 -1 0 841)" d="M85.039 519.541L563.688 519.541" stroke="#000000" stroke-width="0.398" fill="none" /><path id="760" transform="matrix(1 0 0 -1 0 841)" d="M85.239 505.792L85.239 519.341" stroke="#000000" stroke-width="0.398" fill="none" /><path id="763" transform="matrix(1 0 0 -1 0 841)" d="M125.939 505.792L125.939 519.341" stroke="#000000" stroke-width="0.398" fill="none" /><path id="802" transform="matrix(1 0 0 -1 0 841)" d="M563.489 505.792L563.489 519.341" stroke="#000000" stroke-width="0.398" fill="none" /><path id="803" transform="matrix(1 0 0 -1 0 841)" d="M85.039 505.593L563.688 505.593" stroke="#000000" stroke-width="0.398" fill="none" /><path id="804" transform="matrix(1 0 0 -1 0 841)" d="M85.239 491.844L85.239 505.393" stroke="#000000" stroke-width="0.398" fill="none" /><path id="807" transform="matrix(1 0 0 -1 0 841)" d="M125.939 491.844L125.939 505.393" stroke="#000000" stroke-width="0.398" fill="none" /><path id="838" transform="matrix(1 0 0 -1 0 841)" d="M563.489 491.844L563.489 505.393" stroke="#000000" stroke-width="0.398" fill="none" /><path id="839" transform="matrix(1 0 0 -1 0 841)" d="M85.039 491.645L563.688 491.645" stroke="#000000" stroke-width="0.398" fill="none" /><path id="840" transform="matrix(1 0 0 -1 0 841)" d="M85.239 477.897L85.239 491.446" stroke="#000000" stroke-width="0.398" fill="none" /><path id="843" transform="matrix(1 0 0 -1 0 841)" d="M125.939 477.897L125.939 491.446" stroke="#000000" stroke-width="0.398" fill="none" /><path id="882" transform="matrix(1 0 0 -1 0 841)" d="M563.489 477.897L563.489 491.446" stroke="#000000" stroke-width="0.398" fill="none" /><path id="883" transform="matrix(1 0 0 -1 0 841)" d="M85.039 477.698L563.688 477.698" stroke="#000000" stroke-width="0.398" fill="none" /><path id="884" transform="matrix(1 0 0 -1 0 841)" d="M85.239 463.949L85.239 477.498" stroke="#000000" stroke-width="0.398" fill="none" /><path id="887" transform="matrix(1 0 0 -1 0 841)" d="M125.939 463.949L125.939 477.498" stroke="#000000" stroke-width="0.398" fill="none" /><path id="924" transform="matrix(1 0 0 -1 0 841)" d="M563.489 463.949L563.489 477.498" stroke="#000000" stroke-width="0.398" fill="none" /><path id="925" transform="matrix(1 0 0 -1 0 841)" d="M85.039 463.75L563.688 463.75" stroke="#000000" stroke-width="0.398" fill="none" /><path id="926" transform="matrix(1 0 0 -1 0 841)" d="M85.239 450.001L85.239 463.55" stroke="#000000" stroke-width="0.398" fill="none" /><path id="929" transform="matrix(1 0 0 -1 0 841)" d="M125.939 450.001L125.939 463.55" stroke="#000000" stroke-width="0.398" fill="none" /><path id="977" transform="matrix(1 0 0 -1 0 841)" d="M563.489 450.001L563.489 463.55" stroke="#000000" stroke-width="0.398" fill="none" /><path id="978" transform="matrix(1 0 0 -1 0 841)" d="M85.039 449.802L563.688 449.802" stroke="#000000" stroke-width="0.398" fill="none" /><path id="979" transform="matrix(1 0 0 -1 0 841)" d="M85.239 436.054L85.239 449.603" stroke="#000000" stroke-width="0.398" fill="none" /><path id="982" transform="matrix(1 0 0 -1 0 841)" d="M125.939 436.054L125.939 449.603" stroke="#000000" stroke-width="0.398" fill="none" /><path id="1017" transform="matrix(1 0 0 -1 0 841)" d="M563.489 436.054L563.489 449.603" stroke="#000000" stroke-width="0.398" fill="none" /><path id="1018" transform="matrix(1 0 0 -1 0 841)" d="M85.039 435.854L563.688 435.854" stroke="#000000" stroke-width="0.398" fill="none" /><path id="1019" transform="matrix(1 0 0 -1 0 841)" d="M85.239 422.106L85.239 435.655" stroke="#000000" stroke-width="0.398" fill="none" /><path id="1022" transform="matrix(1 0 0 -1 0 841)" d="M125.939 422.106L125.939 435.655" stroke="#000000" stroke-width="0.398" fill="none" /><path id="1067" transform="matrix(1 0 0 -1 0 841)" d="M563.489 422.106L563.489 435.655" stroke="#000000" stroke-width="0.398" fill="none" /><path id="1068" transform="matrix(1 0 0 -1 0 841)" d="M85.039 421.907L563.688 421.907" stroke="#000000" stroke-width="0.398" fill="none" /><path id="1069" transform="matrix(1 0 0 -1 0 841)" d="M85.239 408.158L85.239 421.707" stroke="#000000" stroke-width="0.398" fill="none" /><path id="1072" transform="matrix(1 0 0 -1 0 841)" d="M125.939 408.158L125.939 421.707" stroke="#000000" stroke-width="0.398" fill="none" /><path id="1103" transform="matrix(1 0 0 -1 0 841)" d="M563.489 408.158L563.489 421.707" stroke="#000000" stroke-width="0.398" fill="none" /><path id="1104" transform="matrix(1 0 0 -1 0 841)" d="M85.039 407.959L563.688 407.959" stroke="#000000" stroke-width="0.398" fill="none" /><path id="1105" transform="matrix(1 0 0 -1 0 841)" d="M85.239 394.211L85.239 407.76" stroke="#000000" stroke-width="0.398" fill="none" /><path id="1108" transform="matrix(1 0 0 -1 0 841)" d="M125.939 394.211L125.939 407.76" stroke="#000000" stroke-width="0.398" fill="none" /><path id="1144" transform="matrix(1 0 0 -1 0 841)" d="M563.489 394.211L563.489 407.76" stroke="#000000" stroke-width="0.398" fill="none" /><path id="1145" transform="matrix(1 0 0 -1 0 841)" d="M85.039 394.011L563.688 394.011" stroke="#000000" stroke-width="0.398" fill="none" /><path id="1146" transform="matrix(1 0 0 -1 0 841)" d="M85.239 380.263L85.239 393.812" stroke="#000000" stroke-width="0.398" fill="none" /><path id="1149" transform="matrix(1 0 0 -1 0 841)" d="M125.939 380.263L125.939 393.812" stroke="#000000" stroke-width="0.398" fill="none" /><path id="1188" transform="matrix(1 0 0 -1 0 841)" d="M563.489 380.263L563.489 393.812" stroke="#000000" stroke-width="0.398" fill="none" /><path id="1189" transform="matrix(1 0 0 -1 0 841)" d="M85.039 380.064L563.688 380.064" stroke="#000000" stroke-width="0.398" fill="none" /><path id="1190" transform="matrix(1 0 0 -1 0 841)" d="M85.239 366.315L85.239 379.864" stroke="#000000" stroke-width="0.398" fill="none" /><path id="1193" transform="matrix(1 0 0 -1 0 841)" d="M125.939 366.315L125.939 379.864" stroke="#000000" stroke-width="0.398" fill="none" /><path id="1239" transform="matrix(1 0 0 -1 0 841)" d="M563.489 366.315L563.489 379.864" stroke="#000000" stroke-width="0.398" fill="none" /><path id="1240" transform="matrix(1 0 0 -1 0 841)" d="M85.039 366.116L563.688 366.116" stroke="#000000" stroke-width="0.398" fill="none" /><path id="1241" transform="matrix(1 0 0 -1 0 841)" d="M85.239 352.368L85.239 365.917" stroke="#000000" stroke-width="0.398" fill="none" /><path id="1244" transform="matrix(1 0 0 -1 0 841)" d="M125.939 352.368L125.939 365.917" stroke="#000000" stroke-width="0.398" fill="none" /><path id="1279" transform="matrix(1 0 0 -1 0 841)" d="M563.489 352.368L563.489 365.917" stroke="#000000" stroke-width="0.398" fill="none" /><path id="1280" transform="matrix(1 0 0 -1 0 841)" d="M85.039 352.168L563.688 352.168" stroke="#000000" stroke-width="0.398" fill="none" /><path id="1281" transform="matrix(1 0 0 -1 0 841)" d="M85.239 338.42L85.239 351.969" stroke="#000000" stroke-width="0.398" fill="none" /><path id="1284" transform="matrix(1 0 0 -1 0 841)" d="M125.939 338.42L125.939 351.969" stroke="#000000" stroke-width="0.398" fill="none" /><path id="1328" transform="matrix(1 0 0 -1 0 841)" d="M563.489 338.42L563.489 351.969" stroke="#000000" stroke-width="0.398" fill="none" /><path id="1329" transform="matrix(1 0 0 -1 0 841)" d="M85.039 338.221L563.688 338.221" stroke="#000000" stroke-width="0.398" fill="none" /><path id="1330" transform="matrix(1 0 0 -1 0 841)" d="M85.239 324.472L85.239 338.021" stroke="#000000" stroke-width="0.398" fill="none" /><path id="1333" transform="matrix(1 0 0 -1 0 841)" d="M125.939 324.472L125.939 338.021" stroke="#000000" stroke-width="0.398" fill="none" /><path id="1370" transform="matrix(1 0 0 -1 0 841)" d="M563.489 324.472L563.489 338.021" stroke="#000000" stroke-width="0.398" fill="none" /><path id="1371" transform="matrix(1 0 0 -1 0 841)" d="M85.039 324.273L563.688 324.273" stroke="#000000" stroke-width="0.398" fill="none" /><path id="1372" transform="matrix(1 0 0 -1 0 841)" d="M85.239 310.525L85.239 324.074" stroke="#000000" stroke-width="0.398" fill="none" /><path id="1375" transform="matrix(1 0 0 -1 0 841)" d="M125.939 310.525L125.939 324.074" stroke="#000000" stroke-width="0.398" fill="none" /><path id="1410" transform="matrix(1 0 0 -1 0 841)" d="M563.489 310.525L563.489 324.074" stroke="#000000" stroke-width="0.398" fill="none" /><path id="1411" transform="matrix(1 0 0 -1 0 841)" d="M85.039 310.325L563.688 310.325" stroke="#000000" stroke-width="0.398" fill="none" /><path id="1412" transform="matrix(1 0 0 -1 0 841)" d="M85.239 296.577L85.239 310.126" stroke="#000000" stroke-width="0.398" fill="none" /><path id="1415" transform="matrix(1 0 0 -1 0 841)" d="M125.939 296.577L125.939 310.126" stroke="#000000" stroke-width="0.398" fill="none" /><path id="1447" transform="matrix(1 0 0 -1 0 841)" d="M563.489 296.577L563.489 310.126" stroke="#000000" stroke-width="0.398" fill="none" /><path id="1448" transform="matrix(1 0 0 -1 0 841)" d="M85.039 296.378L563.688 296.378" stroke="#000000" stroke-width="0.398" fill="none" /><path id="1449" transform="matrix(1 0 0 -1 0 841)" d="M85.239 282.629L85.239 296.178" stroke="#000000" stroke-width="0.398" fill="none" /><path id="1452" transform="matrix(1 0 0 -1 0 841)" d="M125.939 282.629L125.939 296.178" stroke="#000000" stroke-width="0.398" fill="none" /><path id="1490" transform="matrix(1 0 0 -1 0 841)" d="M563.489 282.629L563.489 296.178" stroke="#000000" stroke-width="0.398" fill="none" /><path id="1491" transform="matrix(1 0 0 -1 0 841)" d="M85.039 282.43L563.688 282.43" stroke="#000000" stroke-width="0.398" fill="none" /><path id="1492" transform="matrix(1 0 0 -1 0 841)" d="M85.239 268.682L85.239 282.231" stroke="#000000" stroke-width="0.398" fill="none" /><path id="1495" transform="matrix(1 0 0 -1 0 841)" d="M125.939 268.682L125.939 282.231" stroke="#000000" stroke-width="0.398" fill="none" /><path id="1552" transform="matrix(1 0 0 -1 0 841)" d="M563.489 268.682L563.489 282.231" stroke="#000000" stroke-width="0.398" fill="none" /><path id="1553" transform="matrix(1 0 0 -1 0 841)" d="M85.039 268.482L563.688 268.482" stroke="#000000" stroke-width="0.398" fill="none" /><path id="1554" transform="matrix(1 0 0 -1 0 841)" d="M85.239 254.734L85.239 268.283" stroke="#000000" stroke-width="0.398" fill="none" /><path id="1557" transform="matrix(1 0 0 -1 0 841)" d="M125.939 254.734L125.939 268.283" stroke="#000000" stroke-width="0.398" fill="none" /><path id="1607" transform="matrix(1 0 0 -1 0 841)" d="M563.489 254.734L563.489 268.283" stroke="#000000" stroke-width="0.398" fill="none" /><path id="1608" transform="matrix(1 0 0 -1 0 841)" d="M85.039 254.535L563.688 254.535" stroke="#000000" stroke-width="0.398" fill="none" /><path id="1609" transform="matrix(1 0 0 -1 0 841)" d="M85.239 240.786L85.239 254.335" stroke="#000000" stroke-width="0.398" fill="none" /><path id="1612" transform="matrix(1 0 0 -1 0 841)" d="M125.939 240.786L125.939 254.335" stroke="#000000" stroke-width="0.398" fill="none" /><path id="1657" transform="matrix(1 0 0 -1 0 841)" d="M563.489 240.786L563.489 254.335" stroke="#000000" stroke-width="0.398" fill="none" /><path id="1658" transform="matrix(1 0 0 -1 0 841)" d="M85.039 240.587L563.688 240.587" stroke="#000000" stroke-width="0.398" fill="none" /><path id="1659" transform="matrix(1 0 0 -1 0 841)" d="M85.239 226.839L85.239 240.388" stroke="#000000" stroke-width="0.398" fill="none" /><path id="1662" transform="matrix(1 0 0 -1 0 841)" d="M125.939 226.839L125.939 240.388" stroke="#000000" stroke-width="0.398" fill="none" /><path id="1712" transform="matrix(1 0 0 -1 0 841)" d="M563.489 226.839L563.489 240.388" stroke="#000000" stroke-width="0.398" fill="none" /><path id="1713" transform="matrix(1 0 0 -1 0 841)" d="M85.039 226.639L563.688 226.639" stroke="#000000" stroke-width="0.398" fill="none" /><path id="1714" transform="matrix(1 0 0 -1 0 841)" d="M85.239 212.891L85.239 226.44" stroke="#000000" stroke-width="0.398" fill="none" /><path id="1717" transform="matrix(1 0 0 -1 0 841)" d="M125.939 212.891L125.939 226.44" stroke="#000000" stroke-width="0.398" fill="none" /><path id="1776" transform="matrix(1 0 0 -1 0 841)" d="M563.489 212.891L563.489 226.44" stroke="#000000" stroke-width="0.398" fill="none" /><path id="1777" transform="matrix(1 0 0 -1 0 841)" d="M85.039 212.692L563.688 212.692" stroke="#000000" stroke-width="0.398" fill="none" /><path id="1778" transform="matrix(1 0 0 -1 0 841)" d="M85.239 198.943L85.239 212.492" stroke="#000000" stroke-width="0.398" fill="none" /><path id="1781" transform="matrix(1 0 0 -1 0 841)" d="M125.939 198.943L125.939 212.492" stroke="#000000" stroke-width="0.398" fill="none" /><path id="1834" transform="matrix(1 0 0 -1 0 841)" d="M563.489 198.943L563.489 212.492" stroke="#000000" stroke-width="0.398" fill="none" /><path id="1835" transform="matrix(1 0 0 -1 0 841)" d="M85.039 198.744L563.688 198.744" stroke="#000000" stroke-width="0.398" fill="none" /><path id="1836" transform="matrix(1 0 0 -1 0 841)" d="M85.239 184.995L85.239 198.544" stroke="#000000" stroke-width="0.398" fill="none" /><path id="1839" transform="matrix(1 0 0 -1 0 841)" d="M125.939 184.995L125.939 198.544" stroke="#000000" stroke-width="0.398" fill="none" /><path id="1892" transform="matrix(1 0 0 -1 0 841)" d="M563.489 184.995L563.489 198.544" stroke="#000000" stroke-width="0.398" fill="none" /><path id="1893" transform="matrix(1 0 0 -1 0 841)" d="M85.039 184.796L563.688 184.796" stroke="#000000" stroke-width="0.398" fill="none" /><path id="1894" transform="matrix(1 0 0 -1 0 841)" d="M85.239 171.048L85.239 184.597" stroke="#000000" stroke-width="0.398" fill="none" /><path id="1897" transform="matrix(1 0 0 -1 0 841)" d="M125.939 171.048L125.939 184.597" stroke="#000000" stroke-width="0.398" fill="none" /><path id="1955" transform="matrix(1 0 0 -1 0 841)" d="M563.489 171.048L563.489 184.597" stroke="#000000" stroke-width="0.398" fill="none" /><path id="1956" transform="matrix(1 0 0 -1 0 841)" d="M85.039 170.849L563.688 170.849" stroke="#000000" stroke-width="0.398" fill="none" /><path id="1957" transform="matrix(1 0 0 -1 0 841)" d="M85.239 157.1L85.239 170.649" stroke="#000000" stroke-width="0.398" fill="none" /><path id="1960" transform="matrix(1 0 0 -1 0 841)" d="M125.939 157.1L125.939 170.649" stroke="#000000" stroke-width="0.398" fill="none" /><path id="2024" transform="matrix(1 0 0 -1 0 841)" d="M563.489 157.1L563.489 170.649" stroke="#000000" stroke-width="0.398" fill="none" /><path id="2025" transform="matrix(1 0 0 -1 0 841)" d="M85.039 156.901L563.688 156.901" stroke="#000000" stroke-width="0.398" fill="none" /><path id="2026" transform="matrix(1 0 0 -1 0 841)" d="M85.239 143.152L85.239 156.701" stroke="#000000" stroke-width="0.398" fill="none" /><path id="2029" transform="matrix(1 0 0 -1 0 841)" d="M125.939 143.152L125.939 156.701" stroke="#000000" stroke-width="0.398" fill="none" /><path id="2079" transform="matrix(1 0 0 -1 0 841)" d="M563.489 143.152L563.489 156.701" stroke="#000000" stroke-width="0.398" fill="none" /><path id="2080" transform="matrix(1 0 0 -1 0 841)" d="M85.039 142.953L563.688 142.953" stroke="#000000" stroke-width="0.398" fill="none" /><path id="2081" transform="matrix(1 0 0 -1 0 841)" d="M85.239 129.205L85.239 142.754" stroke="#000000" stroke-width="0.398" fill="none" /><path id="2084" transform="matrix(1 0 0 -1 0 841)" d="M125.939 129.205L125.939 142.754" stroke="#000000" stroke-width="0.398" fill="none" /><path id="2113" transform="matrix(1 0 0 -1 0 841)" d="M563.489 129.205L563.489 142.754" stroke="#000000" stroke-width="0.398" fill="none" /><path id="2114" transform="matrix(1 0 0 -1 0 841)" d="M85.039 129.006L563.688 129.006" stroke="#000000" stroke-width="0.398" fill="none" /><path id="2115" transform="matrix(1 0 0 -1 0 841)" d="M85.239 115.257L85.239 128.806" stroke="#000000" stroke-width="0.398" fill="none" /><path id="2118" transform="matrix(1 0 0 -1 0 841)" d="M125.939 115.257L125.939 128.806" stroke="#000000" stroke-width="0.398" fill="none" /><path id="2158" transform="matrix(1 0 0 -1 0 841)" d="M563.489 115.257L563.489 128.806" stroke="#000000" stroke-width="0.398" fill="none" /><path id="2159" transform="matrix(1 0 0 -1 0 841)" d="M85.039 115.058L563.688 115.058" stroke="#000000" stroke-width="0.398" fill="none" /></g></g></svg>