<svg xmlns="http://www.w3.org/2000/svg" xmlns:xlink="http://www.w3.org/1999/xlink" id="body_281" preserveAspectRatio="xMinYMin meet" viewBox="0 0 793 1121"><defs><clipPath id="1"><path id="" clip-rule="evenodd" transform="matrix(1 0 0 1 0 0)" d="M0 841L0 -0.8900146L0 -0.8900146L595.276 -0.8900146L595.276 -0.8900146L595.276 841L595.276 841L0 841z" /></clipPath></defs><g transform="matrix(1.333333 0 0 1.333333 0 0)"><g clip-path="url(#1)"><path id="23" transform="matrix(1 0 0 -1 0 841)" d="M85.039 766.564L510.236 766.564" stroke="#000000" stroke-width="0.498" fill="none" /><path id="689" transform="matrix(1 0 0 -1 0 841)" d="M307.595 457.288L466.374 457.288" stroke="#000000" stroke-width="0.436" fill="none" /><path id="1109" transform="matrix(1 0 0 -1 0 841)" d="M233.247 290.845L324.501 290.845" stroke="#000000" stroke-width="0.436" fill="none" /><path id="1133" transform="matrix(1 0 0 -1 0 841)" d="M340.216 290.845L393.541 290.845" stroke="#000000" stroke-width="0.436" fill="none" /><path id="1150" transform="matrix(1 0 0 -1 0 841)" d="M408.061 298.756L437.854 298.756" stroke="#000000" stroke-width="0.398" fill="none" /><path id="1151" transform="matrix(1 0 0 -1 0 841)" d="M408.26 284.929L408.26 298.756" stroke="#000000" stroke-width="0.398" fill="none" /><path id="1152" transform="matrix(1 0 0 -1 0 841)" d="M437.655 284.929L437.655 298.756" stroke="#000000" stroke-width="0.398" fill="none" /><path id="1153" transform="matrix(1 0 0 -1 0 841)" d="M408.061 284.929L437.854 284.929" stroke="#000000" stroke-width="0.398" fill="none" /><path id="1328" transform="matrix(1 0 0 -1 0 841)" d="M232.037 209.199L323.291 209.199" stroke="#000000" stroke-width="0.436" fill="none" /><path id="1381" transform="matrix(1 0 0 -1 0 841)" d="M337.795 209.199L541.458 209.199" stroke="#000000" stroke-width="0.436" fill="none" /><path id="1428" transform="matrix(1 0 0 -1 0 841)" d="M306.181 177.426L340.064 177.426" stroke="#000000" stroke-width="0.436" fill="none" /><path id="1432" transform="matrix(1 0 0 -1 0 841)" d="M217.514 163.408L341.26 163.408" stroke="#000000" stroke-width="0.436" fill="none" /><path id="1445" transform="matrix(1 0 0 -1 0 841)" d="M225.424 149.713L286.571 149.713" stroke="#000000" stroke-width="0.436" fill="none" /><path id="1453" transform="matrix(1 0 0 -1 0 841)" d="M297.448 149.713L333.35 149.713" stroke="#000000" stroke-width="0.436" fill="none" /><path id="1468" transform="matrix(1 0 0 -1 0 841)" d="M355.78 171.38L396.023 171.38" stroke="#000000" stroke-width="0.398" fill="none" /><path id="1469" transform="matrix(1 0 0 -1 0 841)" d="M355.979 157.324L355.979 171.38" stroke="#000000" stroke-width="0.398" fill="none" /><path id="1470" transform="matrix(1 0 0 -1 0 841)" d="M395.824 157.324L395.824 171.38" stroke="#000000" stroke-width="0.398" fill="none" /><path id="1471" transform="matrix(1 0 0 -1 0 841)" d="M355.78 157.324L396.023 157.324" stroke="#000000" stroke-width="0.398" fill="none" /></g></g></svg>