<svg xmlns="http://www.w3.org/2000/svg" xmlns:xlink="http://www.w3.org/1999/xlink" id="body_326" preserveAspectRatio="xMinYMin meet" viewBox="0 0 793 1121"><defs><clipPath id="1"><path id="" clip-rule="evenodd" transform="matrix(1 0 0 1 0 0)" d="M0 841L0 -0.8900146L0 -0.8900146L595.276 -0.8900146L595.276 -0.8900146L595.276 841L595.276 841L0 841z" /></clipPath></defs><g transform="matrix(1.333333 0 0 1.333333 0 0)"><g clip-path="url(#1)"><path id="34" transform="matrix(1 0 0 -1 0 841)" d="M85.039 766.564L510.236 766.564" stroke="#000000" stroke-width="0.498" fill="none" /><path id="252" transform="matrix(1 0 0 -1 0 841)" d="M345.079 659.306L433.805 659.306L433.805 663.291L345.079 663.291z" stroke="none" fill="#000000" fill-rule="nonzero" /><path id="253" transform="matrix(1 0 0 -1 0 841)" d="M345.079 624.9L349.064 624.9L349.064 661.298L345.079 661.298z" stroke="none" fill="#000000" fill-rule="nonzero" /><path id="254" transform="matrix(1 0 0 -1 0 841)" d="M429.821 624.9L433.806 624.9L433.806 661.298L429.821 661.298z" stroke="none" fill="#000000" fill-rule="nonzero" /><path id="255" transform="matrix(1 0 0 -1 0 841)" d="M345.079 622.908L433.805 622.908L433.805 626.893L345.079 626.893z" stroke="none" fill="#000000" fill-rule="nonzero" /><path id="452" transform="matrix(1 0 0 -1 0 841)" d="M286.344 552.373L373.338 552.373L373.338 556.358L286.344 556.358z" stroke="none" fill="#000000" fill-rule="nonzero" /><path id="453" transform="matrix(1 0 0 -1 0 841)" d="M286.344 517.618L290.329 517.618L290.329 554.366L286.344 554.366z" stroke="none" fill="#000000" fill-rule="nonzero" /><path id="454" transform="matrix(1 0 0 -1 0 841)" d="M369.352 517.618L373.337 517.618L373.337 554.366L369.352 554.366z" stroke="none" fill="#000000" fill-rule="nonzero" /><path id="455" transform="matrix(1 0 0 -1 0 841)" d="M286.344 515.626L373.338 515.626L373.338 519.611L286.344 519.611z" stroke="none" fill="#000000" fill-rule="nonzero" /><path id="502" transform="matrix(1 0 0 -1 0 841)" d="M319.671 504.975L401.21 504.975L401.21 508.96L319.671 508.96z" stroke="none" fill="#000000" fill-rule="nonzero" /><path id="503" transform="matrix(1 0 0 -1 0 841)" d="M319.671 470.22L323.656 470.22L323.656 506.968L319.671 506.968z" stroke="none" fill="#000000" fill-rule="nonzero" /><path id="504" transform="matrix(1 0 0 -1 0 841)" d="M397.225 470.22L401.21 470.22L401.21 506.968L397.225 506.968z" stroke="none" fill="#000000" fill-rule="nonzero" /><path id="505" transform="matrix(1 0 0 -1 0 841)" d="M319.671 468.228L401.21 468.228L401.21 472.213L319.671 472.213z" stroke="none" fill="#000000" fill-rule="nonzero" /><path id="745" transform="matrix(1 0 0 -1 0 841)" d="M320.134 384.12L498.339 384.12" stroke="#000000" stroke-width="0.436" fill="none" /><path id="811" transform="matrix(1 0 0 -1 0 841)" d="M112.312 357.141L235.805 357.141L235.805 361.126L112.312 361.126z" stroke="none" fill="#000000" fill-rule="nonzero" /><path id="812" transform="matrix(1 0 0 -1 0 841)" d="M112.312 321.563L116.297 321.563L116.297 359.134L112.312 359.134z" stroke="none" fill="#000000" fill-rule="nonzero" /><path id="813" transform="matrix(1 0 0 -1 0 841)" d="M231.82 321.563L235.805 321.563L235.805 359.134L231.82 359.134z" stroke="none" fill="#000000" fill-rule="nonzero" /><path id="814" transform="matrix(1 0 0 -1 0 841)" d="M112.312 319.57L235.805 319.57L235.805 323.555L112.312 323.555z" stroke="none" fill="#000000" fill-rule="nonzero" /><path id="856" transform="matrix(1 0 0 -1 0 841)" d="M113.508 261.025L118.963 261.025" stroke="#000000" stroke-width="0.436" fill="none" /><path id="866" transform="matrix(1 0 0 -1 0 841)" d="M158.331 277.087L208.975 277.087L208.975 281.072L158.331 281.072z" stroke="none" fill="#000000" fill-rule="nonzero" /><path id="867" transform="matrix(1 0 0 -1 0 841)" d="M158.331 244.798L162.316 244.798L162.316 279.08L158.331 279.08z" stroke="none" fill="#000000" fill-rule="nonzero" /><path id="868" transform="matrix(1 0 0 -1 0 841)" d="M204.989 244.798L208.974 244.798L208.974 279.08L204.989 279.08z" stroke="none" fill="#000000" fill-rule="nonzero" /><path id="869" transform="matrix(1 0 0 -1 0 841)" d="M158.331 242.805L208.975 242.805L208.975 246.79L158.331 246.79z" stroke="none" fill="#000000" fill-rule="nonzero" /><path id="1000" transform="matrix(1 0 0 -1 0 841)" d="M113.508 168.201L140.781 168.201" stroke="#000000" stroke-width="0.436" fill="none" /><path id="1013" transform="matrix(1 0 0 -1 0 841)" d="M180.149 184.111L225.338 184.111L225.338 188.096L180.149 188.096z" stroke="none" fill="#000000" fill-rule="nonzero" /><path id="1014" transform="matrix(1 0 0 -1 0 841)" d="M180.149 151.903L184.134 151.903L184.134 186.103L180.149 186.103z" stroke="none" fill="#000000" fill-rule="nonzero" /><path id="1015" transform="matrix(1 0 0 -1 0 841)" d="M221.353 151.903L225.338 151.903L225.338 186.103L221.353 186.103z" stroke="none" fill="#000000" fill-rule="nonzero" /><path id="1016" transform="matrix(1 0 0 -1 0 841)" d="M180.149 149.911L225.338 149.911L225.338 153.896L180.149 153.896z" stroke="none" fill="#000000" fill-rule="nonzero" /></g></g></svg>