<svg xmlns="http://www.w3.org/2000/svg" xmlns:xlink="http://www.w3.org/1999/xlink" id="body_274" preserveAspectRatio="xMinYMin meet" viewBox="0 0 793 1121"><defs><clipPath id="1"><path id="" clip-rule="evenodd" transform="matrix(1 0 0 1 0 0)" d="M0 841L0 -0.8900146L0 -0.8900146L595.276 -0.8900146L595.276 -0.8900146L595.276 841L595.276 841L0 841z" /></clipPath></defs><g transform="matrix(1.333333 0 0 1.333333 0 0)"><g clip-path="url(#1)"><path id="23" transform="matrix(1 0 0 -1 0 841)" d="M85.039 766.564L510.236 766.564" stroke="#000000" stroke-width="0.498" fill="none" /><path id="177" transform="matrix(1 0 0 -1 0 841)" d="M245.578 684.89L258.909 684.89" stroke="#000000" stroke-width="0.436" fill="none" /><path id="189" transform="matrix(1 0 0 -1 0 841)" d="M373.273 698.853L389.593 698.853" stroke="#000000" stroke-width="0.436" fill="none" /><path id="193" transform="matrix(1 0 0 -1 0 841)" d="M281.137 684.89L447.234 684.89" stroke="#000000" stroke-width="0.436" fill="none" /><path id="317" transform="matrix(1 0 0 -1 0 841)" d="M395.963 634.678L412.283 634.678" stroke="#000000" stroke-width="0.436" fill="none" /><path id="321" transform="matrix(1 0 0 -1 0 841)" d="M323.964 620.715L449.788 620.715" stroke="#000000" stroke-width="0.436" fill="none" /><path id="338" transform="matrix(1 0 0 -1 0 841)" d="M395.424 609.37L408.755 609.37" stroke="#000000" stroke-width="0.436" fill="none" /><path id="818" transform="matrix(1 0 0 -1 0 841)" d="M113.508 320.547L129.828 320.547" stroke="#000000" stroke-width="0.436" fill="none" /><path id="833" transform="matrix(1 0 0 -1 0 841)" d="M201.122 320.547L214.453 320.547" stroke="#000000" stroke-width="0.436" fill="none" /><path id="849" transform="matrix(1 0 0 -1 0 841)" d="M287.478 320.547L303.798 320.547" stroke="#000000" stroke-width="0.436" fill="none" /><path id="853" transform="matrix(1 0 0 -1 0 841)" d="M256.843 335.904L308.38 335.904" stroke="#000000" stroke-width="0.398" fill="none" /><path id="854" transform="matrix(1 0 0 -1 0 841)" d="M257.042 304.923L257.042 335.904" stroke="#000000" stroke-width="0.398" fill="none" /><path id="855" transform="matrix(1 0 0 -1 0 841)" d="M308.181 304.923L308.181 335.904" stroke="#000000" stroke-width="0.398" fill="none" /><path id="856" transform="matrix(1 0 0 -1 0 841)" d="M256.843 304.923L308.38 304.923" stroke="#000000" stroke-width="0.398" fill="none" /><path id="976" transform="matrix(1 0 0 -1 0 841)" d="M184.399 241.322L231.048 241.322" stroke="#000000" stroke-width="0.436" fill="none" /><path id="1013" transform="matrix(1 0 0 -1 0 841)" d="M353.245 249.294L404.813 249.294" stroke="#000000" stroke-width="0.398" fill="none" /><path id="1014" transform="matrix(1 0 0 -1 0 841)" d="M353.444 233.29L353.444 249.293" stroke="#000000" stroke-width="0.398" fill="none" /><path id="1015" transform="matrix(1 0 0 -1 0 841)" d="M404.614 233.29L404.614 249.293" stroke="#000000" stroke-width="0.398" fill="none" /><path id="1016" transform="matrix(1 0 0 -1 0 841)" d="M353.245 233.29L404.813 233.29" stroke="#000000" stroke-width="0.398" fill="none" /><path id="1221" transform="matrix(1 0 0 -1 0 841)" d="M365.64 175.434L425.05 175.434" stroke="#000000" stroke-width="0.398" fill="none" /><path id="1222" transform="matrix(1 0 0 -1 0 841)" d="M365.84 158.208L365.84 175.433" stroke="#000000" stroke-width="0.398" fill="none" /><path id="1223" transform="matrix(1 0 0 -1 0 841)" d="M424.852 158.208L424.852 175.433" stroke="#000000" stroke-width="0.398" fill="none" /><path id="1224" transform="matrix(1 0 0 -1 0 841)" d="M365.64 158.208L425.05 158.208" stroke="#000000" stroke-width="0.398" fill="none" /></g></g></svg>