<svg xmlns="http://www.w3.org/2000/svg" xmlns:xlink="http://www.w3.org/1999/xlink" id="body_101" preserveAspectRatio="xMinYMin meet" viewBox="0 0 793 1121"><defs><clipPath id="1"><path id="" clip-rule="evenodd" transform="matrix(1 0 0 1 0 0)" d="M0 841L0 -0.8900146L0 -0.8900146L595.276 -0.8900146L595.276 -0.8900146L595.276 841L595.276 841L0 841z" /></clipPath></defs><g transform="matrix(1.333333 0 0 1.333333 0 0)"><g clip-path="url(#1)"><path id="37" transform="matrix(1 0 0 -1 0 841)" d="M85.039 766.564L510.236 766.564" stroke="#000000" stroke-width="0.498" fill="none" /><path id="94" transform="matrix(1 0 0 -1 0 841)" d="M85.039 731.375L501.537 731.375" stroke="#000000" stroke-width="0.398" fill="none" /><path id="95" transform="matrix(1 0 0 -1 0 841)" d="M85.239 717.627L85.239 731.176" stroke="#000000" stroke-width="0.398" fill="none" /><path id="106" transform="matrix(1 0 0 -1 0 841)" d="M501.338 717.627L501.338 731.176" stroke="#000000" stroke-width="0.398" fill="none" /><path id="107" transform="matrix(1 0 0 -1 0 841)" d="M85.039 717.428L501.537 717.428" stroke="#000000" stroke-width="0.398" fill="none" /><path id="108" transform="matrix(1 0 0 -1 0 841)" d="M85.239 663.032L85.239 717.229" stroke="#000000" stroke-width="0.398" fill="none" /><path id="109" transform="matrix(1 0 0 -1 0 841)" d="M168.458 663.032L168.458 717.229" stroke="#000000" stroke-width="0.398" fill="none" /><path id="120" transform="matrix(1 0 0 -1 0 841)" d="M251.678 663.032L251.678 717.229" stroke="#000000" stroke-width="0.398" fill="none" /><path id="136" transform="matrix(1 0 0 -1 0 841)" d="M334.898 663.032L334.898 717.229" stroke="#000000" stroke-width="0.398" fill="none" /><path id="164" transform="matrix(1 0 0 -1 0 841)" d="M418.118 663.032L418.118 717.229" stroke="#000000" stroke-width="0.398" fill="none" /><path id="201" transform="matrix(1 0 0 -1 0 841)" d="M501.338 663.032L501.338 717.229" stroke="#000000" stroke-width="0.398" fill="none" /><path id="202" transform="matrix(1 0 0 -1 0 841)" d="M85.039 662.832L501.537 662.832" stroke="#000000" stroke-width="0.398" fill="none" /><path id="203" transform="matrix(1 0 0 -1 0 841)" d="M85.239 635.535L85.239 662.633" stroke="#000000" stroke-width="0.398" fill="none" /><path id="216" transform="matrix(1 0 0 -1 0 841)" d="M168.458 635.535L168.458 662.633" stroke="#000000" stroke-width="0.398" fill="none" /><path id="233" transform="matrix(1 0 0 -1 0 841)" d="M251.678 635.535L251.678 662.633" stroke="#000000" stroke-width="0.398" fill="none" /><path id="240" transform="matrix(1 0 0 -1 0 841)" d="M334.898 635.535L334.898 662.633" stroke="#000000" stroke-width="0.398" fill="none" /><path id="247" transform="matrix(1 0 0 -1 0 841)" d="M418.118 635.535L418.118 662.633" stroke="#000000" stroke-width="0.398" fill="none" /><path id="268" transform="matrix(1 0 0 -1 0 841)" d="M501.338 635.535L501.338 662.633" stroke="#000000" stroke-width="0.398" fill="none" /><path id="269" transform="matrix(1 0 0 -1 0 841)" d="M85.039 635.336L501.537 635.336" stroke="#000000" stroke-width="0.398" fill="none" /><path id="270" transform="matrix(1 0 0 -1 0 841)" d="M85.239 608.038L85.239 635.136" stroke="#000000" stroke-width="0.398" fill="none" /><path id="282" transform="matrix(1 0 0 -1 0 841)" d="M168.458 608.038L168.458 635.136" stroke="#000000" stroke-width="0.398" fill="none" /><path id="299" transform="matrix(1 0 0 -1 0 841)" d="M251.678 608.038L251.678 635.136" stroke="#000000" stroke-width="0.398" fill="none" /><path id="309" transform="matrix(1 0 0 -1 0 841)" d="M334.898 608.038L334.898 635.136" stroke="#000000" stroke-width="0.398" fill="none" /><path id="319" transform="matrix(1 0 0 -1 0 841)" d="M418.118 608.038L418.118 635.136" stroke="#000000" stroke-width="0.398" fill="none" /><path id="340" transform="matrix(1 0 0 -1 0 841)" d="M501.338 608.038L501.338 635.136" stroke="#000000" stroke-width="0.398" fill="none" /><path id="341" transform="matrix(1 0 0 -1 0 841)" d="M85.039 607.839L501.537 607.839" stroke="#000000" stroke-width="0.398" fill="none" /><path id="342" transform="matrix(1 0 0 -1 0 841)" d="M85.039 606.444L499.718 606.444" stroke="#000000" stroke-width="0.398" fill="none" /><path id="343" transform="matrix(1 0 0 -1 0 841)" d="M85.239 592.695L85.239 606.244" stroke="#000000" stroke-width="0.398" fill="none" /><path id="374" transform="matrix(1 0 0 -1 0 841)" d="M499.519 592.695L499.519 606.244" stroke="#000000" stroke-width="0.398" fill="none" /><path id="375" transform="matrix(1 0 0 -1 0 841)" d="M85.039 592.496L499.718 592.496" stroke="#000000" stroke-width="0.398" fill="none" /><path id="376" transform="matrix(1 0 0 -1 0 841)" d="M85.239 538.1L85.239 592.297" stroke="#000000" stroke-width="0.398" fill="none" /><path id="377" transform="matrix(1 0 0 -1 0 841)" d="M140.112 538.1L140.112 592.297" stroke="#000000" stroke-width="0.398" fill="none" /><path id="409" transform="matrix(1 0 0 -1 0 841)" d="M211.993 538.1L211.993 592.297" stroke="#000000" stroke-width="0.398" fill="none" /><path id="428" transform="matrix(1 0 0 -1 0 841)" d="M283.875 538.1L283.875 592.297" stroke="#000000" stroke-width="0.398" fill="none" /><path id="467" transform="matrix(1 0 0 -1 0 841)" d="M355.756 538.1L355.756 592.297" stroke="#000000" stroke-width="0.398" fill="none" /><path id="495" transform="matrix(1 0 0 -1 0 841)" d="M427.638 538.1L427.638 592.297" stroke="#000000" stroke-width="0.398" fill="none" /><path id="533" transform="matrix(1 0 0 -1 0 841)" d="M499.519 538.1L499.519 592.297" stroke="#000000" stroke-width="0.398" fill="none" /><path id="534" transform="matrix(1 0 0 -1 0 841)" d="M85.039 537.901L499.718 537.901" stroke="#000000" stroke-width="0.398" fill="none" /><path id="535" transform="matrix(1 0 0 -1 0 841)" d="M85.239 510.603L85.239 537.701" stroke="#000000" stroke-width="0.398" fill="none" /><path id="548" transform="matrix(1 0 0 -1 0 841)" d="M140.112 510.603L140.112 537.701" stroke="#000000" stroke-width="0.398" fill="none" /><path id="565" transform="matrix(1 0 0 -1 0 841)" d="M211.993 510.603L211.993 537.701" stroke="#000000" stroke-width="0.398" fill="none" /><path id="572" transform="matrix(1 0 0 -1 0 841)" d="M283.875 510.603L283.875 537.701" stroke="#000000" stroke-width="0.398" fill="none" /><path id="582" transform="matrix(1 0 0 -1 0 841)" d="M355.756 510.603L355.756 537.701" stroke="#000000" stroke-width="0.398" fill="none" /><path id="589" transform="matrix(1 0 0 -1 0 841)" d="M427.638 510.603L427.638 537.701" stroke="#000000" stroke-width="0.398" fill="none" /><path id="599" transform="matrix(1 0 0 -1 0 841)" d="M499.519 510.603L499.519 537.701" stroke="#000000" stroke-width="0.398" fill="none" /><path id="600" transform="matrix(1 0 0 -1 0 841)" d="M85.039 510.404L499.718 510.404" stroke="#000000" stroke-width="0.398" fill="none" /><path id="601" transform="matrix(1 0 0 -1 0 841)" d="M85.239 483.106L85.239 510.204" stroke="#000000" stroke-width="0.398" fill="none" /><path id="613" transform="matrix(1 0 0 -1 0 841)" d="M140.112 483.106L140.112 510.204" stroke="#000000" stroke-width="0.398" fill="none" /><path id="630" transform="matrix(1 0 0 -1 0 841)" d="M211.993 483.106L211.993 510.204" stroke="#000000" stroke-width="0.398" fill="none" /><path id="637" transform="matrix(1 0 0 -1 0 841)" d="M283.875 483.106L283.875 510.204" stroke="#000000" stroke-width="0.398" fill="none" /><path id="644" transform="matrix(1 0 0 -1 0 841)" d="M355.756 483.106L355.756 510.204" stroke="#000000" stroke-width="0.398" fill="none" /><path id="651" transform="matrix(1 0 0 -1 0 841)" d="M427.638 483.106L427.638 510.204" stroke="#000000" stroke-width="0.398" fill="none" /><path id="661" transform="matrix(1 0 0 -1 0 841)" d="M499.519 483.106L499.519 510.204" stroke="#000000" stroke-width="0.398" fill="none" /><path id="662" transform="matrix(1 0 0 -1 0 841)" d="M85.039 482.907L499.718 482.907" stroke="#000000" stroke-width="0.398" fill="none" /><path id="663" transform="matrix(1 0 0 -1 0 841)" d="M85.039 481.512L500.522 481.512" stroke="#000000" stroke-width="0.398" fill="none" /><path id="664" transform="matrix(1 0 0 -1 0 841)" d="M85.239 467.764L85.239 481.313" stroke="#000000" stroke-width="0.398" fill="none" /><path id="696" transform="matrix(1 0 0 -1 0 841)" d="M500.323 467.764L500.323 481.313" stroke="#000000" stroke-width="0.398" fill="none" /><path id="697" transform="matrix(1 0 0 -1 0 841)" d="M85.039 467.565L500.522 467.565" stroke="#000000" stroke-width="0.398" fill="none" /><path id="698" transform="matrix(1 0 0 -1 0 841)" d="M85.239 413.169L85.239 467.366" stroke="#000000" stroke-width="0.398" fill="none" /><path id="727" transform="matrix(1 0 0 -1 0 841)" d="M189.01 413.169L189.01 467.366" stroke="#000000" stroke-width="0.398" fill="none" /><path id="769" transform="matrix(1 0 0 -1 0 841)" d="M292.781 413.169L292.781 467.366" stroke="#000000" stroke-width="0.398" fill="none" /><path id="820" transform="matrix(1 0 0 -1 0 841)" d="M396.552 413.169L396.552 467.366" stroke="#000000" stroke-width="0.398" fill="none" /><path id="839" transform="matrix(1 0 0 -1 0 841)" d="M500.323 413.169L500.323 467.366" stroke="#000000" stroke-width="0.398" fill="none" /><path id="840" transform="matrix(1 0 0 -1 0 841)" d="M85.039 412.969L500.522 412.969" stroke="#000000" stroke-width="0.398" fill="none" /><path id="841" transform="matrix(1 0 0 -1 0 841)" d="M85.239 372.123L85.239 412.771" stroke="#000000" stroke-width="0.398" fill="none" /><path id="848" transform="matrix(1 0 0 -1 0 841)" d="M189.01 372.123L189.01 412.771" stroke="#000000" stroke-width="0.398" fill="none" /><path id="857" transform="matrix(1 0 0 -1 0 841)" d="M292.781 372.123L292.781 412.771" stroke="#000000" stroke-width="0.398" fill="none" /><path id="867" transform="matrix(1 0 0 -1 0 841)" d="M396.552 372.123L396.552 412.771" stroke="#000000" stroke-width="0.398" fill="none" /><path id="905" transform="matrix(1 0 0 -1 0 841)" d="M500.323 372.123L500.323 412.771" stroke="#000000" stroke-width="0.398" fill="none" /><path id="906" transform="matrix(1 0 0 -1 0 841)" d="M85.039 371.923L500.522 371.923" stroke="#000000" stroke-width="0.398" fill="none" /><path id="907" transform="matrix(1 0 0 -1 0 841)" d="M85.039 370.529L499.718 370.529" stroke="#000000" stroke-width="0.398" fill="none" /><path id="908" transform="matrix(1 0 0 -1 0 841)" d="M85.239 356.78L85.239 370.329" stroke="#000000" stroke-width="0.398" fill="none" /><path id="917" transform="matrix(1 0 0 -1 0 841)" d="M499.519 356.78L499.519 370.329" stroke="#000000" stroke-width="0.398" fill="none" /><path id="918" transform="matrix(1 0 0 -1 0 841)" d="M85.039 356.581L499.718 356.581" stroke="#000000" stroke-width="0.398" fill="none" /><path id="919" transform="matrix(1 0 0 -1 0 841)" d="M85.239 288.636L85.239 356.382" stroke="#000000" stroke-width="0.398" fill="none" /><path id="920" transform="matrix(1 0 0 -1 0 841)" d="M140.112 288.636L140.112 356.382" stroke="#000000" stroke-width="0.398" fill="none" /><path id="928" transform="matrix(1 0 0 -1 0 841)" d="M211.993 288.636L211.993 356.382" stroke="#000000" stroke-width="0.398" fill="none" /><path id="956" transform="matrix(1 0 0 -1 0 841)" d="M283.875 288.636L283.875 356.382" stroke="#000000" stroke-width="0.398" fill="none" /><path id="997" transform="matrix(1 0 0 -1 0 841)" d="M355.756 288.636L355.756 356.382" stroke="#000000" stroke-width="0.398" fill="none" /><path id="1033" transform="matrix(1 0 0 -1 0 841)" d="M427.638 288.636L427.638 356.382" stroke="#000000" stroke-width="0.398" fill="none" /><path id="1062" transform="matrix(1 0 0 -1 0 841)" d="M499.519 288.636L499.519 356.382" stroke="#000000" stroke-width="0.398" fill="none" /><path id="1063" transform="matrix(1 0 0 -1 0 841)" d="M85.039 288.436L499.718 288.436" stroke="#000000" stroke-width="0.398" fill="none" /><path id="1064" transform="matrix(1 0 0 -1 0 841)" d="M85.239 261.139L85.239 288.237" stroke="#000000" stroke-width="0.398" fill="none" /><path id="1077" transform="matrix(1 0 0 -1 0 841)" d="M140.112 261.139L140.112 288.237" stroke="#000000" stroke-width="0.398" fill="none" /><path id="1084" transform="matrix(1 0 0 -1 0 841)" d="M211.993 261.139L211.993 288.237" stroke="#000000" stroke-width="0.398" fill="none" /><path id="1091" transform="matrix(1 0 0 -1 0 841)" d="M283.875 261.139L283.875 288.237" stroke="#000000" stroke-width="0.398" fill="none" /><path id="1101" transform="matrix(1 0 0 -1 0 841)" d="M355.756 261.139L355.756 288.237" stroke="#000000" stroke-width="0.398" fill="none" /><path id="1102" transform="matrix(1 0 0 -1 0 841)" d="M427.638 261.139L427.638 288.237" stroke="#000000" stroke-width="0.398" fill="none" /><path id="1103" transform="matrix(1 0 0 -1 0 841)" d="M499.519 261.139L499.519 288.237" stroke="#000000" stroke-width="0.398" fill="none" /><path id="1104" transform="matrix(1 0 0 -1 0 841)" d="M85.039 260.94L499.718 260.94" stroke="#000000" stroke-width="0.398" fill="none" /><path id="1105" transform="matrix(1 0 0 -1 0 841)" d="M85.239 233.642L85.239 260.74" stroke="#000000" stroke-width="0.398" fill="none" /><path id="1117" transform="matrix(1 0 0 -1 0 841)" d="M140.112 233.642L140.112 260.74" stroke="#000000" stroke-width="0.398" fill="none" /><path id="1118" transform="matrix(1 0 0 -1 0 841)" d="M211.993 233.642L211.993 260.74" stroke="#000000" stroke-width="0.398" fill="none" /><path id="1119" transform="matrix(1 0 0 -1 0 841)" d="M283.875 233.642L283.875 260.74" stroke="#000000" stroke-width="0.398" fill="none" /><path id="1120" transform="matrix(1 0 0 -1 0 841)" d="M355.756 233.642L355.756 260.74" stroke="#000000" stroke-width="0.398" fill="none" /><path id="1127" transform="matrix(1 0 0 -1 0 841)" d="M427.638 233.642L427.638 260.74" stroke="#000000" stroke-width="0.398" fill="none" /><path id="1137" transform="matrix(1 0 0 -1 0 841)" d="M499.519 233.642L499.519 260.74" stroke="#000000" stroke-width="0.398" fill="none" /><path id="1138" transform="matrix(1 0 0 -1 0 841)" d="M85.039 233.443L499.718 233.443" stroke="#000000" stroke-width="0.398" fill="none" /><path id="1139" transform="matrix(1 0 0 -1 0 841)" d="M85.039 232.048L500.522 232.048" stroke="#000000" stroke-width="0.398" fill="none" /><path id="1140" transform="matrix(1 0 0 -1 0 841)" d="M85.239 218.3L85.239 231.849" stroke="#000000" stroke-width="0.398" fill="none" /><path id="1154" transform="matrix(1 0 0 -1 0 841)" d="M500.323 218.3L500.323 231.849" stroke="#000000" stroke-width="0.398" fill="none" /><path id="1155" transform="matrix(1 0 0 -1 0 841)" d="M85.039 218.1L500.522 218.1" stroke="#000000" stroke-width="0.398" fill="none" /><path id="1156" transform="matrix(1 0 0 -1 0 841)" d="M85.239 190.803L85.239 217.901" stroke="#000000" stroke-width="0.398" fill="none" /><path id="1164" transform="matrix(1 0 0 -1 0 841)" d="M189.01 190.803L189.01 217.901" stroke="#000000" stroke-width="0.398" fill="none" /><path id="1182" transform="matrix(1 0 0 -1 0 841)" d="M292.781 190.803L292.781 217.901" stroke="#000000" stroke-width="0.398" fill="none" /><path id="1197" transform="matrix(1 0 0 -1 0 841)" d="M396.552 190.803L396.552 217.901" stroke="#000000" stroke-width="0.398" fill="none" /><path id="1202" transform="matrix(1 0 0 -1 0 841)" d="M500.323 190.803L500.323 217.901" stroke="#000000" stroke-width="0.398" fill="none" /><path id="1203" transform="matrix(1 0 0 -1 0 841)" d="M85.039 190.603L500.522 190.603" stroke="#000000" stroke-width="0.398" fill="none" /><path id="1204" transform="matrix(1 0 0 -1 0 841)" d="M85.239 176.855L85.239 190.404" stroke="#000000" stroke-width="0.398" fill="none" /><path id="1217" transform="matrix(1 0 0 -1 0 841)" d="M189.01 176.855L189.01 190.404" stroke="#000000" stroke-width="0.398" fill="none" /><path id="1230" transform="matrix(1 0 0 -1 0 841)" d="M292.781 176.855L292.781 190.404" stroke="#000000" stroke-width="0.398" fill="none" /><path id="1240" transform="matrix(1 0 0 -1 0 841)" d="M396.552 176.855L396.552 190.404" stroke="#000000" stroke-width="0.398" fill="none" /><path id="1250" transform="matrix(1 0 0 -1 0 841)" d="M500.323 176.855L500.323 190.404" stroke="#000000" stroke-width="0.398" fill="none" /><path id="1251" transform="matrix(1 0 0 -1 0 841)" d="M85.039 176.656L500.522 176.656" stroke="#000000" stroke-width="0.398" fill="none" /></g></g></svg>