<svg xmlns="http://www.w3.org/2000/svg" xmlns:xlink="http://www.w3.org/1999/xlink" id="body_234" preserveAspectRatio="xMinYMin meet" viewBox="0 0 793 1121"><defs><clipPath id="1"><path id="" clip-rule="evenodd" transform="matrix(1 0 0 1 0 0)" d="M0 841L0 -0.8900146L0 -0.8900146L595.276 -0.8900146L595.276 -0.8900146L595.276 841L595.276 841L0 841z" /></clipPath><clipPath id="2"><path id="" clip-rule="evenodd" transform="matrix(1 0 0 1 0 0)" d="M0.996 3.106995L3.996 3.106995L3.996 3.106995L3.996 0.1069946L3.996 0.1069946L0.996 0.1069946z" /></clipPath></defs><g transform="matrix(1.333333 0 0 1.333333 0 0)"><g clip-path="url(#1)"><path id="1" transform="matrix(1 0 0 -1 0 841)" d="M0 0L595.276 0L595.276 841.89L0 841.89z" stroke="none" fill="#FFFFFF" fill-rule="nonzero" /><path id="28" transform="matrix(1 0 0 -1 0 841)" d="M85.039 766.564L510.236 766.564" stroke="#000000" stroke-width="0.498" fill="none" /><path id="702" transform="matrix(1 0 0 -1 0 841)" d="M102.652 497.958L492.623 497.958" stroke="#000000" stroke-width="0.398" fill="none" /><path id="703" transform="matrix(1 0 0 -1 0 841)" d="M102.852 460.499L102.852 497.759" stroke="#000000" stroke-width="0.398" fill="none" /><path id="704" transform="matrix(1 0 0 -1 0 841)" d="M103.051 460.499L200.046 460.499L200.046 497.759L103.051 497.759z" stroke="none" fill="#FFFFFF" fill-rule="nonzero" /><path id="713" transform="matrix(1 0 0 -1 0 841)" d="M200.245 460.499L200.245 497.759" stroke="#000000" stroke-width="0.398" fill="none" /><path id="714" transform="matrix(1 0 0 -1 0 841)" d="M200.444 460.499L297.439 460.499L297.439 497.759L200.444 497.759z" stroke="none" fill="#FFFFFF" fill-rule="nonzero" /><path id="723" transform="matrix(1 0 0 -1 0 841)" d="M297.638 460.499L297.638 497.759" stroke="#000000" stroke-width="0.398" fill="none" /><path id="724" transform="matrix(1 0 0 -1 0 841)" d="M297.837 460.499L394.832 460.499L394.832 497.759L297.837 497.759z" stroke="none" fill="#FFFFFF" fill-rule="nonzero" /><path id="739" transform="matrix(1 0 0 -1 0 841)" d="M395.031 460.499L395.031 497.759" stroke="#000000" stroke-width="0.398" fill="none" /><path id="740" transform="matrix(1 0 0 -1 0 841)" d="M395.23 460.499L492.225 460.499L492.225 497.759L395.23 497.759z" stroke="none" fill="#FFFFFF" fill-rule="nonzero" /><path id="760" transform="matrix(1 0 0 -1 0 841)" d="M492.424 460.499L492.424 497.759" stroke="#000000" stroke-width="0.398" fill="none" /><path id="761" transform="matrix(1 0 0 -1 0 841)" d="M102.652 460.3L492.623 460.3" stroke="#000000" stroke-width="0.398" fill="none" /><path id="762" transform="matrix(1 0 0 -1 0 841)" d="M102.852 405.904L102.852 460.101" stroke="#000000" stroke-width="0.398" fill="none" /><path id="763" transform="matrix(1 0 0 -1 0 841)" d="M103.051 405.904L200.046 405.904L200.046 460.101L103.051 460.101z" stroke="none" fill="#F9F9F9" fill-rule="nonzero" /><path id="783" transform="matrix(1 0 0 -1 0 841)" d="M200.245 405.904L200.245 460.101" stroke="#000000" stroke-width="0.398" fill="none" /><path id="784" transform="matrix(1 0 0 -1 0 841)" d="M200.444 405.904L297.439 405.904L297.439 460.101L200.444 460.101z" stroke="none" fill="#F9F9F9" fill-rule="nonzero" /><path id="793" transform="matrix(1 0 0 -1 0 841)" d="M297.638 405.904L297.638 460.101" stroke="#000000" stroke-width="0.398" fill="none" /><path id="794" transform="matrix(1 0 0 -1 0 841)" d="M297.837 405.904L394.832 405.904L394.832 460.101L297.837 460.101z" stroke="none" fill="#F9F9F9" fill-rule="nonzero" /><path id="809" transform="matrix(1 0 0 -1 0 841)" d="M395.031 405.904L395.031 460.101" stroke="#000000" stroke-width="0.398" fill="none" /><path id="810" transform="matrix(1 0 0 -1 0 841)" d="M395.23 405.904L492.225 405.904L492.225 460.101L395.23 460.101z" stroke="none" fill="#F9F9F9" fill-rule="nonzero" /><path id="850" transform="matrix(1 0 0 -1 0 841)" d="M492.424 405.904L492.424 460.101" stroke="#000000" stroke-width="0.398" fill="none" /><path id="851" transform="matrix(1 0 0 -1 0 841)" d="M102.652 405.704L492.623 405.704" stroke="#000000" stroke-width="0.398" fill="none" /><path id="852" transform="matrix(1 0 0 -1 0 841)" d="M102.852 368.245L102.852 405.505" stroke="#000000" stroke-width="0.398" fill="none" /><path id="853" transform="matrix(1 0 0 -1 0 841)" d="M103.051 368.245L200.046 368.245L200.046 405.505L103.051 405.505z" stroke="none" fill="#FFFFFF" fill-rule="nonzero" /><path id="863" transform="matrix(1 0 0 -1 0 841)" d="M200.245 368.245L200.245 405.505" stroke="#000000" stroke-width="0.398" fill="none" /><path id="864" transform="matrix(1 0 0 -1 0 841)" d="M200.444 368.245L297.439 368.245L297.439 405.505L200.444 405.505z" stroke="none" fill="#FFFFFF" fill-rule="nonzero" /><path id="873" transform="matrix(1 0 0 -1 0 841)" d="M297.638 368.245L297.638 405.505" stroke="#000000" stroke-width="0.398" fill="none" /><path id="874" transform="matrix(1 0 0 -1 0 841)" d="M297.837 368.245L394.832 368.245L394.832 405.505L297.837 405.505z" stroke="none" fill="#FFFFFF" fill-rule="nonzero" /><path id="878" transform="matrix(1 0 0 -1 0 841)" d="M395.031 368.245L395.031 405.505" stroke="#000000" stroke-width="0.398" fill="none" /><path id="879" transform="matrix(1 0 0 -1 0 841)" d="M395.23 368.245L492.225 368.245L492.225 405.505L395.23 405.505z" stroke="none" fill="#FFFFFF" fill-rule="nonzero" /><path id="910" transform="matrix(1 0 0 -1 0 841)" d="M492.424 368.245L492.424 405.505" stroke="#000000" stroke-width="0.398" fill="none" /><path id="911" transform="matrix(1 0 0 -1 0 841)" d="M102.652 368.046L492.623 368.046" stroke="#000000" stroke-width="0.398" fill="none" /><path id="912" transform="matrix(1 0 0 -1 0 841)" d="M102.852 313.65L102.852 367.847" stroke="#000000" stroke-width="0.398" fill="none" /><path id="913" transform="matrix(1 0 0 -1 0 841)" d="M103.051 313.65L200.046 313.65L200.046 367.847L103.051 367.847z" stroke="none" fill="#F9F9F9" fill-rule="nonzero" /><path id="923" transform="matrix(1 0 0 -1 0 841)" d="M200.245 313.65L200.245 367.847" stroke="#000000" stroke-width="0.398" fill="none" /><path id="924" transform="matrix(1 0 0 -1 0 841)" d="M200.444 313.65L297.439 313.65L297.439 367.847L200.444 367.847z" stroke="none" fill="#F9F9F9" fill-rule="nonzero" /><path id="929" transform="matrix(1 0 0 -1 0 841)" d="M297.638 313.65L297.638 367.847" stroke="#000000" stroke-width="0.398" fill="none" /><path id="930" transform="matrix(1 0 0 -1 0 841)" d="M297.837 313.65L394.832 313.65L394.832 367.847L297.837 367.847z" stroke="none" fill="#F9F9F9" fill-rule="nonzero" /><path id="937" transform="matrix(1 0 0 -1 0 841)" d="M395.031 313.65L395.031 367.847" stroke="#000000" stroke-width="0.398" fill="none" /><path id="938" transform="matrix(1 0 0 -1 0 841)" d="M395.23 313.65L492.225 313.65L492.225 367.847L395.23 367.847z" stroke="none" fill="#F9F9F9" fill-rule="nonzero" /><path id="975" transform="matrix(1 0 0 -1 0 841)" d="M492.424 313.65L492.424 367.847" stroke="#000000" stroke-width="0.398" fill="none" /><path id="976" transform="matrix(1 0 0 -1 0 841)" d="M102.652 313.45L492.623 313.45" stroke="#000000" stroke-width="0.398" fill="none" /><g clip-path="url(#2)"></g></g></g></svg>