<svg xmlns="http://www.w3.org/2000/svg" xmlns:xlink="http://www.w3.org/1999/xlink" id="body_131" preserveAspectRatio="xMinYMin meet" viewBox="0 0 793 1121"><defs><clipPath id="1"><path id="" clip-rule="evenodd" transform="matrix(1 0 0 1 0 0)" d="M0 841L0 -0.8900146L0 -0.8900146L595.276 -0.8900146L595.276 -0.8900146L595.276 841L595.276 841L0 841z" /></clipPath></defs><g transform="matrix(1.333333 0 0 1.333333 0 0)"><g clip-path="url(#1)"><path id="20" transform="matrix(1 0 0 -1 0 841)" d="M85.039 766.564L510.236 766.564" stroke="#000000" stroke-width="0.498" fill="none" /><g transform="matrix(0.6129375 0 0 0.6129375 110.661 84.14893)"><g transform="matrix(1 0 0 1 0 0)"><image x="0" y="0" xlink:href="img_177.png" width="222" height="222" /></g></g><g transform="matrix(0.3804825 0 0 0.3804825 314.538 105.6958)"><g transform="matrix(1 0 0 1 0 0)"><image x="0" y="0" xlink:href="img_178.png" width="447" height="301" /></g></g></g></g></svg>