<svg xmlns="http://www.w3.org/2000/svg" xmlns:xlink="http://www.w3.org/1999/xlink" id="body_6" preserveAspectRatio="xMinYMin meet" viewBox="0 0 793 1121"><defs><clipPath id="1"><path id="" clip-rule="evenodd" transform="matrix(1 0 0 1 0 0)" d="M0 841L0 -0.8900146L0 -0.8900146L595.276 -0.8900146L595.276 -0.8900146L595.276 841L595.276 841L0 841z" /></clipPath></defs><g transform="matrix(1.333333 0 0 1.333333 0 0)"><g clip-path="url(#1)"><path id="1021" transform="matrix(1 0 0 -1 0 841)" d="M85.039 438.307L115.07 438.307L115.07 458.149L85.039 458.149z" stroke="none" fill="#FDE0D1" fill-rule="nonzero" /><path id="1025" transform="matrix(1 0 0 -1 0 841)" d="M119.055 438.307L510.236 438.307L510.236 458.149L119.055 458.149z" stroke="none" fill="#FAC2A3" fill-rule="nonzero" /><path id="1670" transform="matrix(1 0 0 -1 0 841)" d="M85.039 184.936L115.07 184.936L115.07 204.778L85.039 204.778z" stroke="none" fill="#FDE0D1" fill-rule="nonzero" /><path id="1675" transform="matrix(1 0 0 -1 0 841)" d="M119.055 184.936L510.236 184.936L510.236 204.778L119.055 204.778z" stroke="none" fill="#FAC2A3" fill-rule="nonzero" /></g></g></svg>