<svg xmlns="http://www.w3.org/2000/svg" xmlns:xlink="http://www.w3.org/1999/xlink" id="body_7" preserveAspectRatio="xMinYMin meet" viewBox="0 0 793 1121"><defs><clipPath id="1"><path id="" clip-rule="evenodd" transform="matrix(1 0 0 1 0 0)" d="M0 841L0 -0.8900146L0 -0.8900146L595.276 -0.8900146L595.276 -0.8900146L595.276 841L595.276 841L0 841z" /></clipPath></defs><g transform="matrix(1.333333 0 0 1.333333 0 0)"><g clip-path="url(#1)"><path id="698" transform="matrix(1 0 0 -1 0 841)" d="M85.039 570.277L115.07 570.277L115.07 590.119L85.039 590.119z" stroke="none" fill="#FDE0D1" fill-rule="nonzero" /><path id="701" transform="matrix(1 0 0 -1 0 841)" d="M119.055 570.277L510.236 570.277L510.236 590.119L119.055 590.119z" stroke="none" fill="#FAC2A3" fill-rule="nonzero" /><path id="1617" transform="matrix(1 0 0 -1 0 841)" d="M85.039 272.407L115.07 272.407L115.07 292.249L85.039 292.249z" stroke="none" fill="#FDE0D1" fill-rule="nonzero" /><path id="1619" transform="matrix(1 0 0 -1 0 841)" d="M119.055 272.407L510.236 272.407L510.236 292.249L119.055 292.249z" stroke="none" fill="#FAC2A3" fill-rule="nonzero" /></g></g></svg>