<svg xmlns="http://www.w3.org/2000/svg" xmlns:xlink="http://www.w3.org/1999/xlink" id="body_274" preserveAspectRatio="xMinYMin meet" viewBox="0 0 793 1121"><defs><clipPath id="1"><path id="" clip-rule="evenodd" transform="matrix(1 0 0 1 0 0)" d="M0 841L0 -0.8900146L0 -0.8900146L595.276 -0.8900146L595.276 -0.8900146L595.276 841L595.276 841L0 841z" /></clipPath></defs><g transform="matrix(1.333333 0 0 1.333333 0 0)"><g clip-path="url(#1)"><path id="23" transform="matrix(1 0 0 -1 0 841)" d="M85.039 766.564L510.236 766.564" stroke="#000000" stroke-width="0.498" fill="none" /><path id="169" transform="matrix(1 0 0 -1 0 841)" d="M336.134 679.544L368.796 679.544" stroke="#000000" stroke-width="0.436" fill="none" /><path id="176" transform="matrix(1 0 0 -1 0 841)" d="M379.672 679.544L439.598 679.544" stroke="#000000" stroke-width="0.436" fill="none" /><path id="217" transform="matrix(1 0 0 -1 0 841)" d="M228.254 648.197L260.916 648.197" stroke="#000000" stroke-width="0.436" fill="none" /><path id="224" transform="matrix(1 0 0 -1 0 841)" d="M271.791 648.197L331.717 648.197" stroke="#000000" stroke-width="0.436" fill="none" /><path id="407" transform="matrix(1 0 0 -1 0 841)" d="M314.041 586.99L394.135 586.99" stroke="#000000" stroke-width="0.398" fill="none" /><path id="408" transform="matrix(1 0 0 -1 0 841)" d="M314.241 572.994L314.241 586.99" stroke="#000000" stroke-width="0.398" fill="none" /><path id="409" transform="matrix(1 0 0 -1 0 841)" d="M393.936 572.994L393.936 586.99" stroke="#000000" stroke-width="0.398" fill="none" /><path id="410" transform="matrix(1 0 0 -1 0 841)" d="M314.041 572.994L394.135 572.994" stroke="#000000" stroke-width="0.398" fill="none" /><path id="621" transform="matrix(1 0 0 -1 0 841)" d="M112.312 508.577L160.901 508.577" stroke="#000000" stroke-width="0.398" fill="none" /><path id="622" transform="matrix(1 0 0 -1 0 841)" d="M112.511 491.352L112.511 508.577" stroke="#000000" stroke-width="0.398" fill="none" /><path id="623" transform="matrix(1 0 0 -1 0 841)" d="M160.702 491.352L160.702 508.577" stroke="#000000" stroke-width="0.398" fill="none" /><path id="624" transform="matrix(1 0 0 -1 0 841)" d="M112.312 491.352L160.901 491.352" stroke="#000000" stroke-width="0.398" fill="none" /><path id="842" transform="matrix(1 0 0 -1 0 841)" d="M301.358 435.162L349.947 435.162" stroke="#000000" stroke-width="0.398" fill="none" /><path id="843" transform="matrix(1 0 0 -1 0 841)" d="M301.558 417.937L301.558 435.162" stroke="#000000" stroke-width="0.398" fill="none" /><path id="844" transform="matrix(1 0 0 -1 0 841)" d="M349.748 417.937L349.748 435.162" stroke="#000000" stroke-width="0.398" fill="none" /><path id="845" transform="matrix(1 0 0 -1 0 841)" d="M301.358 417.937L349.947 417.937" stroke="#000000" stroke-width="0.398" fill="none" /><path id="1063" transform="matrix(1 0 0 -1 0 841)" d="M204.694 305.808L218.025 305.808" stroke="#000000" stroke-width="0.436" fill="none" /><path id="1284" transform="matrix(1 0 0 -1 0 841)" d="M162.348 194.224L210.565 194.224" stroke="#000000" stroke-width="0.436" fill="none" /><path id="1293" transform="matrix(1 0 0 -1 0 841)" d="M242.066 194.224L258.386 194.224" stroke="#000000" stroke-width="0.436" fill="none" /><path id="1315" transform="matrix(1 0 0 -1 0 841)" d="M321.971 194.224L370.188 194.224" stroke="#000000" stroke-width="0.436" fill="none" /><path id="1337" transform="matrix(1 0 0 -1 0 841)" d="M422.268 194.224L478.012 194.224" stroke="#000000" stroke-width="0.436" fill="none" /><path id="1352" transform="matrix(1 0 0 -1 0 841)" d="M167.224 151.063L183.544 151.063" stroke="#000000" stroke-width="0.436" fill="none" /><path id="1362" transform="matrix(1 0 0 -1 0 841)" d="M210.168 151.063L285.293 151.063" stroke="#000000" stroke-width="0.436" fill="none" /><path id="1384" transform="matrix(1 0 0 -1 0 841)" d="M326.215 151.063L342.535 151.063" stroke="#000000" stroke-width="0.436" fill="none" /><path id="1388" transform="matrix(1 0 0 -1 0 841)" d="M305.268 166.42L347.117 166.42" stroke="#000000" stroke-width="0.398" fill="none" /><path id="1389" transform="matrix(1 0 0 -1 0 841)" d="M305.468 135.438L305.468 166.419" stroke="#000000" stroke-width="0.398" fill="none" /><path id="1390" transform="matrix(1 0 0 -1 0 841)" d="M346.918 135.438L346.918 166.419" stroke="#000000" stroke-width="0.398" fill="none" /><path id="1391" transform="matrix(1 0 0 -1 0 841)" d="M305.268 135.438L347.117 135.438" stroke="#000000" stroke-width="0.398" fill="none" /></g></g></svg>