<svg xmlns="http://www.w3.org/2000/svg" xmlns:xlink="http://www.w3.org/1999/xlink" id="body_342" preserveAspectRatio="xMinYMin meet" viewBox="0 0 793 1121"><defs><clipPath id="1"><path id="" clip-rule="evenodd" transform="matrix(1 0 0 1 0 0)" d="M0 841L0 -0.8900146L0 -0.8900146L595.276 -0.8900146L595.276 -0.8900146L595.276 841L595.276 841L0 841z" /></clipPath></defs><g transform="matrix(1.333333 0 0 1.333333 0 0)"><g clip-path="url(#1)"><path id="22" transform="matrix(1 0 0 -1 0 841)" d="M85.039 766.564L510.236 766.564" stroke="#000000" stroke-width="0.498" fill="none" /><path id="23" transform="matrix(1 0 0 -1 0 841)" d="M140.8563 748.1485L220.2274 748.1485" stroke="#000000" stroke-width="0.3985" fill="none" /><path id="24" transform="matrix(1 0 0 -1 0 841)" d="M225.8967 742.4792L225.8967 683.3492" stroke="#000000" stroke-width="0.3985" fill="none" /><path id="25" transform="matrix(1 0 0 -1 0 841)" d="M228.2878 685.2222C 226.8531 684.8436 226.1757 683.9999 225.8967 683.15C 225.6178 683.9999 224.9403 684.8436 223.5057 685.2222" stroke="#000000" stroke-width="0.3985" stroke-linecap="round" fill="none" /><path id="26" transform="matrix(1 0 0 -1 0 841)" d="M140.8563 682.9507L344.5547 682.9507" stroke="#000000" stroke-width="0.3985" fill="none" /><path id="27" transform="matrix(1 0 0 -1 0 841)" d="M342.6817 685.3417C 343.0603 683.907 343.904 683.2296 344.754 682.9507C 343.904 682.6718 343.0603 681.9943 342.6817 680.5596" stroke="#000000" stroke-width="0.3985" stroke-linecap="round" fill="none" /><path id="28" transform="matrix(1 0 0 -1 0 841)" d="M225.8967 742.4792L225.8842 742.8495L225.8842 742.8495L225.8478 743.2184L225.8478 743.2184L225.7873 743.5844L225.7873 743.5844L225.7034 743.9455L225.7034 743.9455L225.5957 744.3002L225.5957 744.3002L225.4651 744.6471L225.4651 744.6471L225.3124 744.9849L225.3124 744.9849L225.1376 745.3123L225.1376 745.3123L224.9417 745.6268L224.9417 745.6268L224.7258 745.9283L224.7258 745.9283L224.491 746.215L224.491 746.215L224.2375 746.4858L224.2375 746.4858L223.9672 746.7397L223.9672 746.7397L223.6804 746.975L223.6804 746.975L223.3794 747.1909L223.3794 747.1909L223.0645 747.3872L223.0645 747.3872L222.7375 747.562L222.7375 747.562L222.4001 747.7151L222.4001 747.7151L222.0532 747.8461L222.0532 747.8461L221.6985 747.9539L221.6985 747.9539L221.3373 748.0382L221.3373 748.0382L220.9714 748.0988L220.9714 748.0988L220.6025 748.1355L220.6025 748.1355L220.2318 748.1481" stroke="#000000" stroke-width="0.3985" fill="none" /><path id="186" transform="matrix(1 0 0 -1 0 841)" d="M153.882 558.306L206.581 558.306" stroke="#000000" stroke-width="0.436" fill="none" /><path id="206" transform="matrix(1 0 0 -1 0 841)" d="M221.101 566.218L327.247 566.218" stroke="#000000" stroke-width="0.398" fill="none" /><path id="207" transform="matrix(1 0 0 -1 0 841)" d="M221.3 550.029L221.3 566.218" stroke="#000000" stroke-width="0.398" fill="none" /><path id="208" transform="matrix(1 0 0 -1 0 841)" d="M327.048 550.029L327.048 566.218" stroke="#000000" stroke-width="0.398" fill="none" /><path id="209" transform="matrix(1 0 0 -1 0 841)" d="M221.101 550.029L327.247 550.029" stroke="#000000" stroke-width="0.398" fill="none" /><path id="570" transform="matrix(1 0 0 -1 0 841)" d="M178.043 388.799L331.417 388.799" stroke="#000000" stroke-width="0.436" fill="none" /><path id="601" transform="matrix(1 0 0 -1 0 841)" d="M347.132 388.799L441.651 388.799" stroke="#000000" stroke-width="0.436" fill="none" /><path id="617" transform="matrix(1 0 0 -1 0 841)" d="M456.172 396.656L502.339 396.656" stroke="#000000" stroke-width="0.398" fill="none" /><path id="618" transform="matrix(1 0 0 -1 0 841)" d="M456.371 380.522L456.371 396.656" stroke="#000000" stroke-width="0.398" fill="none" /><path id="619" transform="matrix(1 0 0 -1 0 841)" d="M502.139 380.522L502.139 396.656" stroke="#000000" stroke-width="0.398" fill="none" /><path id="620" transform="matrix(1 0 0 -1 0 841)" d="M456.172 380.522L502.339 380.522" stroke="#000000" stroke-width="0.398" fill="none" /><path id="739" transform="matrix(1 0 0 -1 0 841)" d="M224.467 281.179L257.979 281.179" stroke="#000000" stroke-width="0.436" fill="none" /><path id="774" transform="matrix(1 0 0 -1 0 841)" d="M327.063 295.197L402.718 295.197" stroke="#000000" stroke-width="0.436" fill="none" /><path id="784" transform="matrix(1 0 0 -1 0 841)" d="M273.695 281.179L403.914 281.179" stroke="#000000" stroke-width="0.436" fill="none" /><path id="799" transform="matrix(1 0 0 -1 0 841)" d="M308.565 266.926L341.804 266.926" stroke="#000000" stroke-width="0.436" fill="none" /><path id="813" transform="matrix(1 0 0 -1 0 841)" d="M352.68 266.926L385.407 266.926" stroke="#000000" stroke-width="0.436" fill="none" /><path id="824" transform="matrix(1 0 0 -1 0 841)" d="M418.433 289.151L466.564 289.151" stroke="#000000" stroke-width="0.398" fill="none" /><path id="825" transform="matrix(1 0 0 -1 0 841)" d="M418.633 275.144L418.633 289.151" stroke="#000000" stroke-width="0.398" fill="none" /><path id="826" transform="matrix(1 0 0 -1 0 841)" d="M466.365 275.144L466.365 289.151" stroke="#000000" stroke-width="0.398" fill="none" /><path id="827" transform="matrix(1 0 0 -1 0 841)" d="M418.433 275.144L466.564 275.144" stroke="#000000" stroke-width="0.398" fill="none" /><path id="945" transform="matrix(1 0 0 -1 0 841)" d="M113.508 197.668L179.322 197.668" stroke="#000000" stroke-width="0.436" fill="none" /><path id="958" transform="matrix(1 0 0 -1 0 841)" d="M190.197 197.668L217.47 197.668" stroke="#000000" stroke-width="0.436" fill="none" /><path id="970" transform="matrix(1 0 0 -1 0 841)" d="M228.346 197.668L254.659 197.668" stroke="#000000" stroke-width="0.436" fill="none" /><path id="987" transform="matrix(1 0 0 -1 0 841)" d="M273.761 197.668L338.507 197.668" stroke="#000000" stroke-width="0.436" fill="none" /><path id="991" transform="matrix(1 0 0 -1 0 841)" d="M269.178 213.025L343.089 213.025" stroke="#000000" stroke-width="0.398" fill="none" /><path id="992" transform="matrix(1 0 0 -1 0 841)" d="M269.377 182.044L269.377 213.025" stroke="#000000" stroke-width="0.398" fill="none" /><path id="993" transform="matrix(1 0 0 -1 0 841)" d="M342.89 182.044L342.89 213.025" stroke="#000000" stroke-width="0.398" fill="none" /><path id="994" transform="matrix(1 0 0 -1 0 841)" d="M269.178 182.044L343.089 182.044" stroke="#000000" stroke-width="0.398" fill="none" /><path id="1104" transform="matrix(1 0 0 -1 0 841)" d="M113.508 123.429L179.322 123.429" stroke="#000000" stroke-width="0.436" fill="none" /><path id="1121" transform="matrix(1 0 0 -1 0 841)" d="M190.197 123.429L222.924 123.429" stroke="#000000" stroke-width="0.436" fill="none" /><path id="1139" transform="matrix(1 0 0 -1 0 841)" d="M255.618 123.429L271.981 123.429" stroke="#000000" stroke-width="0.436" fill="none" /><path id="1159" transform="matrix(1 0 0 -1 0 841)" d="M291.085 123.429L377.496 123.429" stroke="#000000" stroke-width="0.436" fill="none" /><path id="1163" transform="matrix(1 0 0 -1 0 841)" d="M286.502 138.786L382.079 138.786" stroke="#000000" stroke-width="0.398" fill="none" /><path id="1164" transform="matrix(1 0 0 -1 0 841)" d="M286.701 107.804L286.701 138.785" stroke="#000000" stroke-width="0.398" fill="none" /><path id="1165" transform="matrix(1 0 0 -1 0 841)" d="M381.879 107.804L381.879 138.785" stroke="#000000" stroke-width="0.398" fill="none" /><path id="1166" transform="matrix(1 0 0 -1 0 841)" d="M286.502 107.804L382.079 107.804" stroke="#000000" stroke-width="0.398" fill="none" /></g></g></svg>