<svg xmlns="http://www.w3.org/2000/svg" xmlns:xlink="http://www.w3.org/1999/xlink" id="body_22" preserveAspectRatio="xMinYMin meet" viewBox="0 0 793 1121"><defs><clipPath id="1"><path id="" clip-rule="evenodd" transform="matrix(1 0 0 1 0 0)" d="M0 841L0 -0.8900146L0 -0.8900146L595.276 -0.8900146L595.276 -0.8900146L595.276 841L595.276 841L0 841z" /></clipPath></defs><g transform="matrix(1.333333 0 0 1.333333 0 0)"><g clip-path="url(#1)"><path id="45" transform="matrix(1 0 0 -1 0 841)" d="M85.039 766.564L510.236 766.564" stroke="#000000" stroke-width="0.498" fill="none" /><path id="634" transform="matrix(1 0 0 -1 0 841)" d="M85.039 573.042L510.236 573.042" stroke="#000000" stroke-width="0.398" fill="none" /><path id="635" transform="matrix(1 0 0 -1 0 841)" d="M85.239 563.378L85.239 572.842" stroke="#000000" stroke-width="0.398" fill="none" /><path id="642" transform="matrix(1 0 0 -1 0 841)" d="M510.037 563.378L510.037 572.842" stroke="#000000" stroke-width="0.398" fill="none" /><path id="643" transform="matrix(1 0 0 -1 0 841)" d="M85.039 563.179L510.236 563.179" stroke="#000000" stroke-width="0.398" fill="none" /><path id="644" transform="matrix(1 0 0 -1 0 841)" d="M85.239 519.718L85.239 562.98" stroke="#000000" stroke-width="0.398" fill="none" /><path id="778" transform="matrix(1 0 0 -1 0 841)" d="M297.638 519.718L297.638 562.98" stroke="#000000" stroke-width="0.398" fill="none" /><path id="824" transform="matrix(1 0 0 -1 0 841)" d="M510.037 519.718L510.037 562.98" stroke="#000000" stroke-width="0.398" fill="none" /><path id="825" transform="matrix(1 0 0 -1 0 841)" d="M85.039 519.518L510.236 519.518" stroke="#000000" stroke-width="0.398" fill="none" /><path id="826" transform="matrix(1 0 0 -1 0 841)" d="M85.239 509.855L85.239 519.319" stroke="#000000" stroke-width="0.398" fill="none" /><path id="833" transform="matrix(1 0 0 -1 0 841)" d="M510.037 509.855L510.037 519.319" stroke="#000000" stroke-width="0.398" fill="none" /><path id="834" transform="matrix(1 0 0 -1 0 841)" d="M85.039 509.655L510.236 509.655" stroke="#000000" stroke-width="0.398" fill="none" /><path id="835" transform="matrix(1 0 0 -1 0 841)" d="M85.239 456.73L85.239 509.456" stroke="#000000" stroke-width="0.398" fill="none" /><path id="982" transform="matrix(1 0 0 -1 0 841)" d="M297.638 456.73L297.638 509.456" stroke="#000000" stroke-width="0.398" fill="none" /><path id="1028" transform="matrix(1 0 0 -1 0 841)" d="M510.037 456.73L510.037 509.456" stroke="#000000" stroke-width="0.398" fill="none" /><path id="1029" transform="matrix(1 0 0 -1 0 841)" d="M85.039 456.531L510.236 456.531" stroke="#000000" stroke-width="0.398" fill="none" /><path id="1030" transform="matrix(1 0 0 -1 0 841)" d="M85.239 446.867L85.239 456.331" stroke="#000000" stroke-width="0.398" fill="none" /><path id="1037" transform="matrix(1 0 0 -1 0 841)" d="M510.037 446.867L510.037 456.331" stroke="#000000" stroke-width="0.398" fill="none" /><path id="1038" transform="matrix(1 0 0 -1 0 841)" d="M85.039 446.668L510.236 446.668" stroke="#000000" stroke-width="0.398" fill="none" /><path id="1039" transform="matrix(1 0 0 -1 0 841)" d="M85.239 374.813L85.239 446.468" stroke="#000000" stroke-width="0.398" fill="none" /><path id="1275" transform="matrix(1 0 0 -1 0 841)" d="M297.638 374.813L297.638 446.468" stroke="#000000" stroke-width="0.398" fill="none" /><path id="1321" transform="matrix(1 0 0 -1 0 841)" d="M510.037 374.813L510.037 446.468" stroke="#000000" stroke-width="0.398" fill="none" /><path id="1322" transform="matrix(1 0 0 -1 0 841)" d="M85.039 374.614L510.236 374.614" stroke="#000000" stroke-width="0.398" fill="none" /></g></g></svg>