<svg xmlns="http://www.w3.org/2000/svg" xmlns:xlink="http://www.w3.org/1999/xlink" id="body_351" preserveAspectRatio="xMinYMin meet" viewBox="0 0 793 1121"><defs><clipPath id="1"><path id="" clip-rule="evenodd" transform="matrix(1 0 0 1 0 0)" d="M0 841L0 -0.8900146L0 -0.8900146L595.276 -0.8900146L595.276 -0.8900146L595.276 841L595.276 841L0 841z" /></clipPath></defs><g transform="matrix(1.333333 0 0 1.333333 0 0)"><g clip-path="url(#1)"><path id="22" transform="matrix(1 0 0 -1 0 841)" d="M85.039 766.564L510.236 766.564" stroke="#000000" stroke-width="0.498" fill="none" /><path id="41" transform="matrix(1 0 0 -1 0 841)" d="M178.039 742.9L231.056 742.9" stroke="#000000" stroke-width="0.436" fill="none" /><path id="45" transform="matrix(1 0 0 -1 0 841)" d="M200.309 729.385L214.24 729.385" stroke="#000000" stroke-width="0.436" fill="none" /><path id="66" transform="matrix(1 0 0 -1 0 841)" d="M168.472 688.129L175.345 688.129" stroke="#000000" stroke-width="0.436" fill="none" /><path id="86" transform="matrix(1 0 0 -1 0 841)" d="M310.537 688.129L335.377 688.129" stroke="#000000" stroke-width="0.436" fill="none" /><path id="98" transform="matrix(1 0 0 -1 0 841)" d="M392.745 688.129L417.585 688.129" stroke="#000000" stroke-width="0.436" fill="none" /><path id="106" transform="matrix(1 0 0 -1 0 841)" d="M426.489 697.597L431.944 697.597" stroke="#000000" stroke-width="0.436" fill="none" /><path id="117" transform="matrix(1 0 0 -1 0 841)" d="M166.061 655.327L190.901 655.327" stroke="#000000" stroke-width="0.436" fill="none" /><path id="125" transform="matrix(1 0 0 -1 0 841)" d="M199.805 664.796L205.26 664.796" stroke="#000000" stroke-width="0.436" fill="none" /><path id="131" transform="matrix(1 0 0 -1 0 841)" d="M220.277 663.119L247.724 663.119" stroke="#000000" stroke-width="0.398" fill="none" /><path id="132" transform="matrix(1 0 0 -1 0 841)" d="M220.477 647.132L220.477 663.119" stroke="#000000" stroke-width="0.398" fill="none" /><path id="133" transform="matrix(1 0 0 -1 0 841)" d="M247.525 647.132L247.525 663.119" stroke="#000000" stroke-width="0.398" fill="none" /><path id="134" transform="matrix(1 0 0 -1 0 841)" d="M220.277 647.132L247.724 647.132" stroke="#000000" stroke-width="0.398" fill="none" /><path id="354" transform="matrix(1 0 0 -1 0 841)" d="M176.053 507.203L182.926 507.203" stroke="#000000" stroke-width="0.436" fill="none" /><path id="368" transform="matrix(1 0 0 -1 0 841)" d="M259.323 507.203L270.232 507.203" stroke="#000000" stroke-width="0.436" fill="none" /><path id="386" transform="matrix(1 0 0 -1 0 841)" d="M349.969 507.203L366.333 507.203" stroke="#000000" stroke-width="0.436" fill="none" /><path id="441" transform="matrix(1 0 0 -1 0 841)" d="M190.158 464.563L204.089 464.563" stroke="#000000" stroke-width="0.436" fill="none" /><path id="462" transform="matrix(1 0 0 -1 0 841)" d="M292.216 464.563L306.462 464.563" stroke="#000000" stroke-width="0.436" fill="none" /><path id="531" transform="matrix(1 0 0 -1 0 841)" d="M154.094 413.924L168.34 413.924" stroke="#000000" stroke-width="0.436" fill="none" /><path id="543" transform="matrix(1 0 0 -1 0 841)" d="M198.601 413.924L213.099 413.924" stroke="#000000" stroke-width="0.436" fill="none" /><path id="555" transform="matrix(1 0 0 -1 0 841)" d="M234.884 413.924L251.247 413.924" stroke="#000000" stroke-width="0.436" fill="none" /><path id="567" transform="matrix(1 0 0 -1 0 841)" d="M281.26 413.924L297.623 413.924" stroke="#000000" stroke-width="0.436" fill="none" /><path id="571" transform="matrix(1 0 0 -1 0 841)" d="M265.768 429.281L302.206 429.281" stroke="#000000" stroke-width="0.398" fill="none" /><path id="572" transform="matrix(1 0 0 -1 0 841)" d="M265.967 400.405L265.967 429.281" stroke="#000000" stroke-width="0.398" fill="none" /><path id="573" transform="matrix(1 0 0 -1 0 841)" d="M302.007 400.405L302.007 429.281" stroke="#000000" stroke-width="0.398" fill="none" /><path id="574" transform="matrix(1 0 0 -1 0 841)" d="M265.768 400.405L302.206 400.405" stroke="#000000" stroke-width="0.398" fill="none" /><g transform="matrix(0.3 0 0 0.3 112.312 494.378)"><g transform="matrix(1 0 0 1 0 0)"><image x="0" y="0" xlink:href="img_494.png" width="484" height="134" /></g></g><path id="707" transform="matrix(1 0 0 -1 0 841)" d="M404.3 283.709L412.176 283.709" stroke="#000000" stroke-width="0.436" fill="none" /><path id="814" transform="matrix(1 0 0 -1 0 841)" d="M121.013 201.517L134.944 201.517" stroke="#000000" stroke-width="0.436" fill="none" /><path id="828" transform="matrix(1 0 0 -1 0 841)" d="M165.186 213.375L179.432 213.375" stroke="#000000" stroke-width="0.436" fill="none" /><path id="832" transform="matrix(1 0 0 -1 0 841)" d="M150.659 201.517L180.627 201.517" stroke="#000000" stroke-width="0.436" fill="none" /><path id="875" transform="matrix(1 0 0 -1 0 841)" d="M167.588 148.997L174.461 148.997" stroke="#000000" stroke-width="0.436" fill="none" /><path id="890" transform="matrix(1 0 0 -1 0 841)" d="M250.857 148.997L261.766 148.997" stroke="#000000" stroke-width="0.436" fill="none" /><path id="909" transform="matrix(1 0 0 -1 0 841)" d="M341.504 148.997L363.322 148.997" stroke="#000000" stroke-width="0.436" fill="none" /><path id="927" transform="matrix(1 0 0 -1 0 841)" d="M145.853 118.17L159.784 118.17" stroke="#000000" stroke-width="0.436" fill="none" /><path id="941" transform="matrix(1 0 0 -1 0 841)" d="M175.499 118.17L220.04 118.17" stroke="#000000" stroke-width="0.436" fill="none" /><path id="960" transform="matrix(1 0 0 -1 0 841)" d="M234.56 126.753L284.414 126.753" stroke="#000000" stroke-width="0.398" fill="none" /><path id="961" transform="matrix(1 0 0 -1 0 841)" d="M234.759 109.528L234.759 126.753" stroke="#000000" stroke-width="0.398" fill="none" /><path id="962" transform="matrix(1 0 0 -1 0 841)" d="M284.215 109.528L284.215 126.753" stroke="#000000" stroke-width="0.398" fill="none" /><path id="963" transform="matrix(1 0 0 -1 0 841)" d="M234.56 109.528L284.414 109.528" stroke="#000000" stroke-width="0.398" fill="none" /></g></g></svg>