<svg xmlns="http://www.w3.org/2000/svg" xmlns:xlink="http://www.w3.org/1999/xlink" id="body_270" preserveAspectRatio="xMinYMin meet" viewBox="0 0 793 1121"><defs><clipPath id="1"><path id="" clip-rule="evenodd" transform="matrix(1 0 0 1 0 0)" d="M0 841L0 -0.8900146L0 -0.8900146L595.276 -0.8900146L595.276 -0.8900146L595.276 841L595.276 841L0 841z" /></clipPath></defs><g transform="matrix(1.333333 0 0 1.333333 0 0)"><g clip-path="url(#1)"><path id="22" transform="matrix(1 0 0 -1 0 841)" d="M85.039 766.564L510.236 766.564" stroke="#000000" stroke-width="0.498" fill="none" /><path id="23" transform="matrix(1 0 0 -1 0 841)" d="M396.8539 671.6124C 396.8539 718.5796 358.7806 756.6529 311.8135 756.6529C 264.8463 756.6529 226.773 718.5796 226.773 671.6124C 226.773 624.6453 264.8463 586.572 311.8135 586.572C 358.7806 586.572 396.8539 624.6453 396.8539 671.6124z" stroke="#000000" stroke-width="0.3985" fill="#F2F2F2" fill-rule="nonzero" /><path id="24" transform="matrix(1 0 0 -1 0 841)" d="M226.773 671.6124L396.8539 671.6124" stroke="#000000" stroke-width="1.19553" fill="none" /><path id="81" transform="matrix(1 0 0 -1 0 841)" d="M266.4584 600.7454L311.8135 671.6124" stroke="#000000" stroke-width="1.19553" fill="none" /><path id="82" transform="matrix(1 0 0 -1 0 841)" d="M357.1685 600.7454L311.8135 671.6124" stroke="#000000" stroke-width="1.19553" fill="none" /><path id="83" transform="matrix(1 0 0 -1 0 841)" d="M215.119 671.6124C 215.119 680.8317 207.6455 688.3052 198.4262 688.3052C 189.207 688.3052 181.7335 680.8317 181.7335 671.6124C 181.7335 662.3932 189.207 654.9197 198.4262 654.9197C 207.6455 654.9197 215.119 662.3932 215.119 671.6124z" stroke="#000000" stroke-width="1.39478" fill="#FFCCCC" fill-rule="nonzero" /><path id="84" transform="matrix(1 0 0 -1 0 841)" d="M215.119 671.6124C 215.119 680.8317 207.6455 688.3052 198.4262 688.3052C 189.207 688.3052 181.7335 680.8317 181.7335 671.6124C 181.7335 662.3932 189.207 654.9197 198.4262 654.9197C 207.6455 654.9197 215.119 662.3932 215.119 671.6124z" stroke="#FFFFFF" stroke-width="0.59776" fill="none" /><path id="85" transform="matrix(1 0 0 -1 0 841)" d="M181.9327 671.6124L214.9197 671.6124" stroke="#000000" stroke-width="0.3985" fill="none" /><path id="88" transform="matrix(1 0 0 -1 0 841)" d="M268.8398 580.9028C 268.8398 591.6113 260.1591 600.2919 249.4506 600.2919C 238.7421 600.2919 230.0614 591.6113 230.0614 580.9028C 230.0614 570.1943 238.7421 561.5135 249.4506 561.5135C 260.1591 561.5135 268.8398 570.1943 268.8398 580.9028z" stroke="#000000" stroke-width="1.39478" fill="#FFCCCC" fill-rule="nonzero" /><path id="89" transform="matrix(1 0 0 -1 0 841)" d="M268.8398 580.9028C 268.8398 591.6113 260.1591 600.2919 249.4506 600.2919C 238.7421 600.2919 230.0614 591.6113 230.0614 580.9028C 230.0614 570.1943 238.7421 561.5135 249.4506 561.5135C 260.1591 561.5135 268.8398 570.1943 268.8398 580.9028z" stroke="#FFFFFF" stroke-width="0.59776" fill="none" /><path id="90" transform="matrix(1 0 0 -1 0 841)" d="M230.2606 580.9028L268.6405 580.9028" stroke="#000000" stroke-width="0.3985" fill="none" /><path id="100" transform="matrix(1 0 0 -1 0 841)" d="M387.8963 580.9028C 387.8963 591.6113 379.2156 600.2919 368.5071 600.2919C 357.7986 600.2919 349.1179 591.6113 349.1179 580.9028C 349.1179 570.1943 357.7986 561.5135 368.5071 561.5135C 379.2156 561.5135 387.8963 570.1943 387.8963 580.9028z" stroke="#000000" stroke-width="1.39478" fill="#FFCCCC" fill-rule="nonzero" /><path id="101" transform="matrix(1 0 0 -1 0 841)" d="M387.8963 580.9028C 387.8963 591.6113 379.2156 600.2919 368.5071 600.2919C 357.7986 600.2919 349.1179 591.6113 349.1179 580.9028C 349.1179 570.1943 357.7986 561.5135 368.5071 561.5135C 379.2156 561.5135 387.8963 570.1943 387.8963 580.9028z" stroke="#FFFFFF" stroke-width="0.59776" fill="none" /><path id="102" transform="matrix(1 0 0 -1 0 841)" d="M349.3171 580.9028L387.6971 580.9028" stroke="#000000" stroke-width="0.3985" fill="none" /><path id="487" transform="matrix(1 0 0 -1 0 841)" d="M113.508 297.941L129.828 297.941" stroke="#000000" stroke-width="0.436" fill="none" /><path id="502" transform="matrix(1 0 0 -1 0 841)" d="M201.122 297.941L214.453 297.941" stroke="#000000" stroke-width="0.436" fill="none" /><path id="518" transform="matrix(1 0 0 -1 0 841)" d="M287.478 297.941L303.798 297.941" stroke="#000000" stroke-width="0.436" fill="none" /><path id="522" transform="matrix(1 0 0 -1 0 841)" d="M256.843 313.298L308.38 313.298" stroke="#000000" stroke-width="0.398" fill="none" /><path id="523" transform="matrix(1 0 0 -1 0 841)" d="M257.042 282.317L257.042 313.298" stroke="#000000" stroke-width="0.398" fill="none" /><path id="524" transform="matrix(1 0 0 -1 0 841)" d="M308.181 282.317L308.181 313.298" stroke="#000000" stroke-width="0.398" fill="none" /><path id="525" transform="matrix(1 0 0 -1 0 841)" d="M256.843 282.317L308.38 282.317" stroke="#000000" stroke-width="0.398" fill="none" /><path id="645" transform="matrix(1 0 0 -1 0 841)" d="M184.399 218.716L231.048 218.716" stroke="#000000" stroke-width="0.436" fill="none" /><path id="682" transform="matrix(1 0 0 -1 0 841)" d="M353.245 226.688L404.813 226.688" stroke="#000000" stroke-width="0.398" fill="none" /><path id="683" transform="matrix(1 0 0 -1 0 841)" d="M353.444 210.685L353.444 226.688" stroke="#000000" stroke-width="0.398" fill="none" /><path id="684" transform="matrix(1 0 0 -1 0 841)" d="M404.614 210.685L404.614 226.688" stroke="#000000" stroke-width="0.398" fill="none" /><path id="685" transform="matrix(1 0 0 -1 0 841)" d="M353.245 210.685L404.813 210.685" stroke="#000000" stroke-width="0.398" fill="none" /><path id="890" transform="matrix(1 0 0 -1 0 841)" d="M365.64 152.828L419.596 152.828" stroke="#000000" stroke-width="0.398" fill="none" /><path id="891" transform="matrix(1 0 0 -1 0 841)" d="M365.84 135.603L365.84 152.828" stroke="#000000" stroke-width="0.398" fill="none" /><path id="892" transform="matrix(1 0 0 -1 0 841)" d="M419.397 135.603L419.397 152.828" stroke="#000000" stroke-width="0.398" fill="none" /><path id="893" transform="matrix(1 0 0 -1 0 841)" d="M365.64 135.603L419.596 135.603" stroke="#000000" stroke-width="0.398" fill="none" /></g></g></svg>