<svg xmlns="http://www.w3.org/2000/svg" xmlns:xlink="http://www.w3.org/1999/xlink" id="body_67" preserveAspectRatio="xMinYMin meet" viewBox="0 0 793 1121"><defs><clipPath id="1"><path id="" clip-rule="evenodd" transform="matrix(1 0 0 1 0 0)" d="M0 841L0 -0.8900146L0 -0.8900146L595.276 -0.8900146L595.276 -0.8900146L595.276 841L595.276 841L0 841z" /></clipPath><clipPath id="2"><path id="" clip-rule="evenodd" transform="matrix(1 0 0 1 0 0)" d="M85.039 664.099L517.039 664.099L517.039 664.099L517.039 196.099L517.039 196.099L85.039 196.099z" /></clipPath><clipPath id="3"><path id="" clip-rule="evenodd" transform="matrix(1 0 0 1 0 0)" d="M85.039 664.0989L517.039 664.0989L517.039 664.0989L517.039 196.0989L517.039 196.0989L85.039 196.0989z" /></clipPath><clipPath id="4"><path id="" clip-rule="evenodd" transform="matrix(1 0 0 1 0 0)" d="M98.404 664.0988L492.874 664.0988L492.874 664.0988L492.874 211.6987L492.874 211.6987L98.404 211.6987z" /></clipPath></defs><g transform="matrix(1.333333 0 0 1.333333 0 0)"><g clip-path="url(#1)"><g><g clip-path="url(#2)"><g clip-path="url(#3)"><path id="281" transform="matrix(1 0 0 -1 0 841)" d="M85.039 176.901L517.039 176.901L517.039 176.901L517.039 644.901L517.039 644.901L85.039 644.901z" stroke="none" fill="#FFFFFF" fill-rule="evenodd" /></g><g clip-path="url(#4)"><g transform="matrix(0.2068537 0 0 0.2069533 98.404 211.6989)"><g transform="matrix(1 0 0 1 0 0)"><image x="0" y="0" xlink:href="img_86.png" width="1907" height="2186" /></g></g></g></g></g></g></g></svg>