<svg xmlns="http://www.w3.org/2000/svg" xmlns:xlink="http://www.w3.org/1999/xlink" id="body_375" preserveAspectRatio="xMinYMin meet" viewBox="0 0 793 1121"><defs><clipPath id="1"><path id="" clip-rule="evenodd" transform="matrix(1 0 0 1 0 0)" d="M0 841L0 -0.8900146L0 -0.8900146L595.276 -0.8900146L595.276 -0.8900146L595.276 841L595.276 841L0 841z" /></clipPath><clipPath id="2"><path id="" clip-rule="evenodd" transform="matrix(1 0 0 1 0 0)" d="M-0.139 805.413L595.4166 805.413L595.4166 805.413L595.4166 34.69409L595.4166 34.69409L-0.139 34.69409z" /></clipPath></defs><g transform="matrix(1.333333 0 0 1.333333 0 0)"><g clip-path="url(#1)"><g clip-path="url(#2)"><path id="630" transform="matrix(1 0 0 -1 0 841)" d="M87.4427 366.9962L221.034 366.9962L221.034 366.9962L221.034 382.7609L221.034 382.7609L87.4427 382.7609z" stroke="none" fill="#FFFF00" fill-rule="evenodd" /><path id="649" transform="matrix(1 0 0 -1 0 841)" d="M99.12026 353.567L315.6222 353.567L315.6222 353.567L315.6222 366.9962L315.6222 366.9962L99.12026 366.9962z" stroke="none" fill="#FFFF00" fill-rule="evenodd" /><path id="686" transform="matrix(1 0 0 -1 0 841)" d="M110.7978 340.2545L203.1673 340.2545L203.1673 340.2545L203.1673 353.5669L203.1673 353.5669L110.7978 353.5669z" stroke="none" fill="#FFFF00" fill-rule="evenodd" /><path id="705" transform="matrix(1 0 0 -1 0 841)" d="M110.7978 326.8253L291.2161 326.8253L291.2161 326.8253L291.2161 340.2545L291.2161 340.2545L110.7978 340.2545z" stroke="none" fill="#FFFF00" fill-rule="evenodd" /><path id="737" transform="matrix(1 0 0 -1 0 841)" d="M110.7978 313.3962L470.7002 313.3962L470.7002 313.3962L470.7002 326.8253L470.7002 326.8253L110.7978 326.8253z" stroke="none" fill="#FFFF00" fill-rule="evenodd" /><path id="801" transform="matrix(1 0 0 -1 0 841)" d="M110.7978 299.9669L168.6017 299.9669L168.6017 299.9669L168.6017 313.3961L168.6017 313.3961L110.7978 313.3961z" stroke="none" fill="#FFFF00" fill-rule="evenodd" /><path id="812" transform="matrix(1 0 0 -1 0 841)" d="M110.7978 286.5378L228.5076 286.5378L228.5076 286.5378L228.5076 299.9669L228.5076 299.9669L110.7978 299.9669z" stroke="none" fill="#FFFF00" fill-rule="evenodd" /></g></g></g></svg>