<svg xmlns="http://www.w3.org/2000/svg" xmlns:xlink="http://www.w3.org/1999/xlink" id="body_273" preserveAspectRatio="xMinYMin meet" viewBox="0 0 793 1121"><defs><clipPath id="1"><path id="" clip-rule="evenodd" transform="matrix(1 0 0 1 0 0)" d="M0 841L0 -0.8900146L0 -0.8900146L595.276 -0.8900146L595.276 -0.8900146L595.276 841L595.276 841L0 841z" /></clipPath></defs><g transform="matrix(1.333333 0 0 1.333333 0 0)"><g clip-path="url(#1)"><path id="23" transform="matrix(1 0 0 -1 0 841)" d="M85.039 766.564L510.236 766.564" stroke="#000000" stroke-width="0.498" fill="none" /><path id="24" transform="matrix(1 0 0 -1 0 841)" d="M434.9808 695.7659L349.9404 695.7659L349.9404 695.7659L349.9404 610.7255L349.9404 610.7255L434.9808 610.7255z" stroke="#000000" stroke-width="0.3985" fill="none" /><path id="25" transform="matrix(1 0 0 -1 0 841)" d="M434.9808 695.7659L467.7209 728.506L467.7209 728.506L467.7209 643.4656L467.7209 643.4656L434.9808 610.7255z" stroke="#000000" stroke-width="0.3985" fill="none" /><path id="26" transform="matrix(1 0 0 -1 0 841)" d="M434.9808 695.7659L349.9404 695.7659L349.9404 695.7659L382.6805 728.506L382.6805 728.506L467.7209 728.506z" stroke="#000000" stroke-width="0.3985" fill="none" /><path id="54" transform="matrix(1 0 0 -1 0 841)" d="M159.053 722.192L182.495 722.192" stroke="#000000" stroke-width="0.398" fill="none" /><path id="103" transform="matrix(1 0 0 -1 0 841)" d="M215.545 668.137L265.388 668.137" stroke="#000000" stroke-width="0.398" fill="none" /><g transform="matrix(0.2 0 0 0.2 164.54 304.031)"><g transform="matrix(1 0 0 1 0 0)"><image x="0" y="0" xlink:href="img_269.png" width="1331" height="580" /></g></g><g transform="matrix(0.25 0 0 0.25 137.388 536.492)"><g transform="matrix(1 0 0 1 0 0)"><image x="0" y="0" xlink:href="img_271.png" width="1282" height="516" /></g></g></g></g></svg>