<svg xmlns="http://www.w3.org/2000/svg" xmlns:xlink="http://www.w3.org/1999/xlink" id="body_344" preserveAspectRatio="xMinYMin meet" viewBox="0 0 793 1121"><defs><clipPath id="1"><path id="" clip-rule="evenodd" transform="matrix(1 0 0 1 0 0)" d="M0 841L0 -0.8900146L0 -0.8900146L595.276 -0.8900146L595.276 -0.8900146L595.276 841L595.276 841L0 841z" /></clipPath></defs><g transform="matrix(1.333333 0 0 1.333333 0 0)"><g clip-path="url(#1)"><path id="34" transform="matrix(1 0 0 -1 0 841)" d="M85.039 766.564L510.236 766.564" stroke="#000000" stroke-width="0.498" fill="none" /><path id="76" transform="matrix(1 0 0 -1 0 841)" d="M201.267 700.033L272.654 700.033" stroke="#000000" stroke-width="0.436" fill="none" /><path id="103" transform="matrix(1 0 0 -1 0 841)" d="M287.174 715.943L412.985 715.943L412.985 719.928L287.174 719.928z" stroke="none" fill="#000000" fill-rule="nonzero" /><path id="104" transform="matrix(1 0 0 -1 0 841)" d="M287.174 681.75L291.159 681.75L291.159 717.936L287.174 717.936z" stroke="none" fill="#000000" fill-rule="nonzero" /><path id="105" transform="matrix(1 0 0 -1 0 841)" d="M409 681.75L412.985 681.75L412.985 717.936L409 717.936z" stroke="none" fill="#000000" fill-rule="nonzero" /><path id="106" transform="matrix(1 0 0 -1 0 841)" d="M287.174 679.757L412.985 679.757L412.985 683.742L287.174 683.742z" stroke="none" fill="#000000" fill-rule="nonzero" /><path id="147" transform="matrix(1 0 0 -1 0 841)" d="M172.203 636.561L191.588 636.561" stroke="#000000" stroke-width="0.436" fill="none" /><path id="165" transform="matrix(1 0 0 -1 0 841)" d="M206.108 652.683L322.483 652.683L322.483 656.668L206.108 656.668z" stroke="none" fill="#000000" fill-rule="nonzero" /><path id="166" transform="matrix(1 0 0 -1 0 841)" d="M206.108 618.277L210.093 618.277L210.093 654.675L206.108 654.675z" stroke="none" fill="#000000" fill-rule="nonzero" /><path id="167" transform="matrix(1 0 0 -1 0 841)" d="M318.498 618.277L322.483 618.277L322.483 654.675L318.498 654.675z" stroke="none" fill="#000000" fill-rule="nonzero" /><path id="168" transform="matrix(1 0 0 -1 0 841)" d="M206.108 616.285L322.483 616.285L322.483 620.27L206.108 620.27z" stroke="none" fill="#000000" fill-rule="nonzero" /><g transform="matrix(0.06 0 0 0.06 112.312 296.433)"><g transform="matrix(1 0 0 1 0 0)"><image x="0" y="0" xlink:href="img_411.png" width="3009" height="713" /></g></g><g transform="matrix(0.06981818 0 0 0.06981815 112.312 345.8788)"><g transform="matrix(1 0 0 1 0 0)"><image x="0" y="0" xlink:href="img_482.png" width="1585" height="521" /></g></g><path id="295" transform="matrix(1 0 0 -1 0 841)" d="M251.883 461.473L291.265 461.473" stroke="#000000" stroke-width="0.436" fill="none" /><path id="311" transform="matrix(1 0 0 -1 0 841)" d="M333.654 477.535L384.298 477.535L384.298 481.52L333.654 481.52z" stroke="none" fill="#000000" fill-rule="nonzero" /><path id="312" transform="matrix(1 0 0 -1 0 841)" d="M333.654 445.246L337.639 445.246L337.639 479.528L333.654 479.528z" stroke="none" fill="#000000" fill-rule="nonzero" /><path id="313" transform="matrix(1 0 0 -1 0 841)" d="M380.313 445.246L384.298 445.246L384.298 479.528L380.313 479.528z" stroke="none" fill="#000000" fill-rule="nonzero" /><path id="314" transform="matrix(1 0 0 -1 0 841)" d="M333.654 443.253L384.298 443.253L384.298 447.2379L333.654 447.2379z" stroke="none" fill="#000000" fill-rule="nonzero" /><g transform="matrix(0.06 0 0 0.06 112.312 461.583)"><g transform="matrix(1 0 0 1 0 0)"><image x="0" y="0" xlink:href="img_411.png" width="3009" height="713" /></g></g><g transform="matrix(0.08727273 0 0 0.0872727 112.312 511.027)"><g transform="matrix(1 0 0 1 0 0)"><image x="0" y="0" xlink:href="img_482.png" width="1585" height="521" /></g></g><path id="443" transform="matrix(1 0 0 -1 0 841)" d="M279.543 287.2309L340.47 287.2309" stroke="#000000" stroke-width="0.436" fill="none" /><path id="461" transform="matrix(1 0 0 -1 0 841)" d="M382.86 303.2929L433.504 303.2929L433.504 307.2779L382.86 307.2779z" stroke="none" fill="#000000" fill-rule="nonzero" /><path id="462" transform="matrix(1 0 0 -1 0 841)" d="M382.86 271.0039L386.845 271.0039L386.845 305.2859L382.86 305.2859z" stroke="none" fill="#000000" fill-rule="nonzero" /><path id="463" transform="matrix(1 0 0 -1 0 841)" d="M429.519 271.0039L433.504 271.0039L433.504 305.2859L429.519 305.2859z" stroke="none" fill="#000000" fill-rule="nonzero" /><path id="464" transform="matrix(1 0 0 -1 0 841)" d="M382.86 269.0109L433.504 269.0109L433.504 272.9959L382.86 272.9959z" stroke="none" fill="#000000" fill-rule="nonzero" /><path id="631" transform="matrix(1 0 0 -1 0 841)" d="M389.714 193.2549L440.358 193.2549L440.358 197.2399L389.714 197.2399z" stroke="none" fill="#000000" fill-rule="nonzero" /><path id="632" transform="matrix(1 0 0 -1 0 841)" d="M389.714 161.1619L393.699 161.1619L393.699 195.2479L389.714 195.2479z" stroke="none" fill="#000000" fill-rule="nonzero" /><path id="633" transform="matrix(1 0 0 -1 0 841)" d="M436.372 161.1619L440.357 161.1619L440.357 195.2479L436.372 195.2479z" stroke="none" fill="#000000" fill-rule="nonzero" /><path id="634" transform="matrix(1 0 0 -1 0 841)" d="M389.714 159.1689L440.358 159.1689L440.358 163.1539L389.714 163.1539z" stroke="none" fill="#000000" fill-rule="nonzero" /></g></g></svg>