<svg xmlns="http://www.w3.org/2000/svg" xmlns:xlink="http://www.w3.org/1999/xlink" id="body_243" preserveAspectRatio="xMinYMin meet" viewBox="0 0 793 1121"><defs><clipPath id="1"><path id="" clip-rule="evenodd" transform="matrix(1 0 0 1 0 0)" d="M0 841L0 -0.8900146L0 -0.8900146L595.276 -0.8900146L595.276 -0.8900146L595.276 841L595.276 841L0 841z" /></clipPath></defs><g transform="matrix(1.333333 0 0 1.333333 0 0)"><g clip-path="url(#1)"><g transform="matrix(0.24002 0 0 0.24002 0.199 -0.6906738)"><g transform="matrix(1 0 0 1 0 0)"><image x="0" y="0" xlink:href="img_376.png" width="2480" height="1240" /></g></g><path id="3" transform="matrix(1 0 0 -1 0 841)" d="M724.611 611.8748L100.9809 611.8748C 92.72734 611.8748 86.03673 605.1841 86.03673 596.9306L86.03673 596.9306L86.03673 576.6066C 86.03673 568.353 92.72734 561.6624 100.9809 561.6624L100.9809 561.6624L724.611 561.6624C 732.8644 561.6624 739.5551 568.353 739.5551 576.6066L739.5551 576.6066L739.5551 596.9306C 739.5551 605.1841 732.8644 611.8748 724.611 611.8748z" stroke="#F36619" stroke-width="1.99255" fill="#FFFFFF" fill-rule="nonzero" fill-opacity="0.4980392" /><path id="17" transform="matrix(1 0 0 -1 0 841)" d="M85.039 463.749L492.552 463.749" stroke="#000000" stroke-width="0.398" fill="none" /><path id="18" transform="matrix(1 0 0 -1 0 841)" d="M85.239 450L85.239 463.549" stroke="#000000" stroke-width="0.398" fill="none" /><path id="50" transform="matrix(1 0 0 -1 0 841)" d="M492.353 450L492.353 463.549" stroke="#000000" stroke-width="0.398" fill="none" /><path id="51" transform="matrix(1 0 0 -1 0 841)" d="M85.039 449.801L492.552 449.801" stroke="#000000" stroke-width="0.398" fill="none" /><path id="52" transform="matrix(1 0 0 -1 0 841)" d="M85.239 436.052L85.239 449.601" stroke="#000000" stroke-width="0.398" fill="none" /><path id="96" transform="matrix(1 0 0 -1 0 841)" d="M492.353 436.052L492.353 449.601" stroke="#000000" stroke-width="0.398" fill="none" /><path id="97" transform="matrix(1 0 0 -1 0 841)" d="M85.039 435.853L492.552 435.853" stroke="#000000" stroke-width="0.398" fill="none" /><path id="98" transform="matrix(1 0 0 -1 0 841)" d="M97.194 422.1049L97.194 435.654" stroke="#000000" stroke-width="0.398" fill="none" /><path id="104" transform="matrix(1 0 0 -1 0 841)" d="M139.842 422.1049L139.842 435.654" stroke="#000000" stroke-width="0.398" fill="none" /><path id="150" transform="matrix(1 0 0 -1 0 841)" d="M492.353 422.1049L492.353 435.654" stroke="#000000" stroke-width="0.398" fill="none" /><path id="151" transform="matrix(1 0 0 -1 0 841)" d="M97.393 421.906L492.552 421.906" stroke="#000000" stroke-width="0.398" fill="none" /><path id="152" transform="matrix(1 0 0 -1 0 841)" d="M97.194 408.556L97.194 422.105" stroke="#000000" stroke-width="0.398" fill="none" /><path id="158" transform="matrix(1 0 0 -1 0 841)" d="M139.842 408.556L139.842 422.105" stroke="#000000" stroke-width="0.398" fill="none" /><path id="204" transform="matrix(1 0 0 -1 0 841)" d="M492.353 408.556L492.353 422.105" stroke="#000000" stroke-width="0.398" fill="none" /><path id="205" transform="matrix(1 0 0 -1 0 841)" d="M97.393 408.356L492.552 408.356" stroke="#000000" stroke-width="0.398" fill="none" /><path id="206" transform="matrix(1 0 0 -1 0 841)" d="M97.194 395.006L97.194 408.555" stroke="#000000" stroke-width="0.398" fill="none" /><path id="212" transform="matrix(1 0 0 -1 0 841)" d="M139.842 395.006L139.842 408.555" stroke="#000000" stroke-width="0.398" fill="none" /><path id="239" transform="matrix(1 0 0 -1 0 841)" d="M492.353 395.006L492.353 408.555" stroke="#000000" stroke-width="0.398" fill="none" /><path id="240" transform="matrix(1 0 0 -1 0 841)" d="M97.393 394.807L492.552 394.807" stroke="#000000" stroke-width="0.398" fill="none" /><path id="241" transform="matrix(1 0 0 -1 0 841)" d="M97.194 381.457L97.194 395.006" stroke="#000000" stroke-width="0.398" fill="none" /><path id="247" transform="matrix(1 0 0 -1 0 841)" d="M139.842 381.457L139.842 395.006" stroke="#000000" stroke-width="0.398" fill="none" /><path id="274" transform="matrix(1 0 0 -1 0 841)" d="M492.353 381.457L492.353 395.006" stroke="#000000" stroke-width="0.398" fill="none" /><path id="275" transform="matrix(1 0 0 -1 0 841)" d="M97.393 381.258L492.552 381.258" stroke="#000000" stroke-width="0.398" fill="none" /><path id="276" transform="matrix(1 0 0 -1 0 841)" d="M97.194 367.908L97.194 381.457" stroke="#000000" stroke-width="0.398" fill="none" /><path id="282" transform="matrix(1 0 0 -1 0 841)" d="M139.842 367.908L139.842 381.457" stroke="#000000" stroke-width="0.398" fill="none" /><path id="312" transform="matrix(1 0 0 -1 0 841)" d="M492.353 367.908L492.353 381.457" stroke="#000000" stroke-width="0.398" fill="none" /><path id="313" transform="matrix(1 0 0 -1 0 841)" d="M97.393 367.709L492.552 367.709" stroke="#000000" stroke-width="0.398" fill="none" /><path id="314" transform="matrix(1 0 0 -1 0 841)" d="M97.194 354.3589L97.194 367.908" stroke="#000000" stroke-width="0.398" fill="none" /><path id="320" transform="matrix(1 0 0 -1 0 841)" d="M139.842 354.3589L139.842 367.908" stroke="#000000" stroke-width="0.398" fill="none" /><path id="366" transform="matrix(1 0 0 -1 0 841)" d="M492.353 354.3589L492.353 367.908" stroke="#000000" stroke-width="0.398" fill="none" /><path id="367" transform="matrix(1 0 0 -1 0 841)" d="M97.393 354.16L492.552 354.16" stroke="#000000" stroke-width="0.398" fill="none" /><path id="368" transform="matrix(1 0 0 -1 0 841)" d="M97.194 340.81L97.194 354.359" stroke="#000000" stroke-width="0.398" fill="none" /><path id="374" transform="matrix(1 0 0 -1 0 841)" d="M139.842 340.81L139.842 354.359" stroke="#000000" stroke-width="0.398" fill="none" /><path id="411" transform="matrix(1 0 0 -1 0 841)" d="M492.353 340.81L492.353 354.359" stroke="#000000" stroke-width="0.398" fill="none" /><path id="412" transform="matrix(1 0 0 -1 0 841)" d="M97.393 340.61L492.552 340.61" stroke="#000000" stroke-width="0.398" fill="none" /><path id="413" transform="matrix(1 0 0 -1 0 841)" d="M97.194 327.261L97.194 340.81" stroke="#000000" stroke-width="0.398" fill="none" /><path id="419" transform="matrix(1 0 0 -1 0 841)" d="M139.842 327.261L139.842 340.81" stroke="#000000" stroke-width="0.398" fill="none" /><path id="464" transform="matrix(1 0 0 -1 0 841)" d="M492.353 327.261L492.353 340.81" stroke="#000000" stroke-width="0.398" fill="none" /><path id="465" transform="matrix(1 0 0 -1 0 841)" d="M97.393 327.061L492.552 327.061" stroke="#000000" stroke-width="0.398" fill="none" /><path id="466" transform="matrix(1 0 0 -1 0 841)" d="M97.194 313.711L97.194 327.26" stroke="#000000" stroke-width="0.398" fill="none" /><path id="472" transform="matrix(1 0 0 -1 0 841)" d="M139.842 313.711L139.842 327.26" stroke="#000000" stroke-width="0.398" fill="none" /><path id="531" transform="matrix(1 0 0 -1 0 841)" d="M492.353 313.711L492.353 327.26" stroke="#000000" stroke-width="0.398" fill="none" /><path id="532" transform="matrix(1 0 0 -1 0 841)" d="M97.393 313.512L492.552 313.512" stroke="#000000" stroke-width="0.398" fill="none" /><path id="533" transform="matrix(1 0 0 -1 0 841)" d="M97.194 300.162L97.194 313.711" stroke="#000000" stroke-width="0.398" fill="none" /><path id="539" transform="matrix(1 0 0 -1 0 841)" d="M139.842 300.162L139.842 313.711" stroke="#000000" stroke-width="0.398" fill="none" /><path id="574" transform="matrix(1 0 0 -1 0 841)" d="M492.353 300.162L492.353 313.711" stroke="#000000" stroke-width="0.398" fill="none" /><path id="575" transform="matrix(1 0 0 -1 0 841)" d="M97.393 299.963L492.552 299.963" stroke="#000000" stroke-width="0.398" fill="none" /><path id="576" transform="matrix(1 0 0 -1 0 841)" d="M97.194 286.613L97.194 300.162" stroke="#000000" stroke-width="0.398" fill="none" /><path id="582" transform="matrix(1 0 0 -1 0 841)" d="M139.842 286.613L139.842 300.162" stroke="#000000" stroke-width="0.398" fill="none" /><path id="646" transform="matrix(1 0 0 -1 0 841)" d="M492.353 286.613L492.353 300.162" stroke="#000000" stroke-width="0.398" fill="none" /><path id="647" transform="matrix(1 0 0 -1 0 841)" d="M97.393 286.414L492.552 286.414" stroke="#000000" stroke-width="0.398" fill="none" /><path id="648" transform="matrix(1 0 0 -1 0 841)" d="M97.194 273.064L97.194 286.613" stroke="#000000" stroke-width="0.398" fill="none" /><path id="654" transform="matrix(1 0 0 -1 0 841)" d="M139.842 273.064L139.842 286.613" stroke="#000000" stroke-width="0.398" fill="none" /><path id="688" transform="matrix(1 0 0 -1 0 841)" d="M492.353 273.064L492.353 286.613" stroke="#000000" stroke-width="0.398" fill="none" /><path id="689" transform="matrix(1 0 0 -1 0 841)" d="M97.393 272.865L492.552 272.865" stroke="#000000" stroke-width="0.398" fill="none" /><path id="690" transform="matrix(1 0 0 -1 0 841)" d="M97.194 259.515L97.194 273.064" stroke="#000000" stroke-width="0.398" fill="none" /><path id="696" transform="matrix(1 0 0 -1 0 841)" d="M139.842 259.515L139.842 273.064" stroke="#000000" stroke-width="0.398" fill="none" /><path id="733" transform="matrix(1 0 0 -1 0 841)" d="M492.353 259.515L492.353 273.064" stroke="#000000" stroke-width="0.398" fill="none" /><path id="734" transform="matrix(1 0 0 -1 0 841)" d="M97.393 259.315L492.552 259.315" stroke="#000000" stroke-width="0.398" fill="none" /><path id="735" transform="matrix(1 0 0 -1 0 841)" d="M97.194 245.965L97.194 259.514" stroke="#000000" stroke-width="0.398" fill="none" /><path id="741" transform="matrix(1 0 0 -1 0 841)" d="M139.842 245.965L139.842 259.514" stroke="#000000" stroke-width="0.398" fill="none" /><path id="778" transform="matrix(1 0 0 -1 0 841)" d="M492.353 245.965L492.353 259.514" stroke="#000000" stroke-width="0.398" fill="none" /><path id="779" transform="matrix(1 0 0 -1 0 841)" d="M97.393 245.766L492.552 245.766" stroke="#000000" stroke-width="0.398" fill="none" /><path id="780" transform="matrix(1 0 0 -1 0 841)" d="M97.194 232.416L97.194 245.965" stroke="#000000" stroke-width="0.398" fill="none" /><path id="786" transform="matrix(1 0 0 -1 0 841)" d="M139.842 232.416L139.842 245.965" stroke="#000000" stroke-width="0.398" fill="none" /><path id="829" transform="matrix(1 0 0 -1 0 841)" d="M492.353 232.416L492.353 245.965" stroke="#000000" stroke-width="0.398" fill="none" /><path id="830" transform="matrix(1 0 0 -1 0 841)" d="M97.393 232.217L492.552 232.217" stroke="#000000" stroke-width="0.398" fill="none" /><path id="831" transform="matrix(1 0 0 -1 0 841)" d="M97.194 218.867L97.194 232.416" stroke="#000000" stroke-width="0.398" fill="none" /><path id="837" transform="matrix(1 0 0 -1 0 841)" d="M139.842 218.867L139.842 232.416" stroke="#000000" stroke-width="0.398" fill="none" /><path id="889" transform="matrix(1 0 0 -1 0 841)" d="M492.353 218.867L492.353 232.416" stroke="#000000" stroke-width="0.398" fill="none" /><path id="890" transform="matrix(1 0 0 -1 0 841)" d="M97.393 218.668L492.552 218.668" stroke="#000000" stroke-width="0.398" fill="none" /><path id="891" transform="matrix(1 0 0 -1 0 841)" d="M97.194 205.318L97.194 218.867" stroke="#000000" stroke-width="0.398" fill="none" /><path id="897" transform="matrix(1 0 0 -1 0 841)" d="M139.842 205.318L139.842 218.867" stroke="#000000" stroke-width="0.398" fill="none" /><path id="943" transform="matrix(1 0 0 -1 0 841)" d="M492.353 205.318L492.353 218.867" stroke="#000000" stroke-width="0.398" fill="none" /><path id="944" transform="matrix(1 0 0 -1 0 841)" d="M97.393 205.119L492.552 205.119" stroke="#000000" stroke-width="0.398" fill="none" /><path id="945" transform="matrix(1 0 0 -1 0 841)" d="M97.194 191.769L97.194 205.318" stroke="#000000" stroke-width="0.398" fill="none" /><path id="951" transform="matrix(1 0 0 -1 0 841)" d="M139.842 191.769L139.842 205.318" stroke="#000000" stroke-width="0.398" fill="none" /><path id="978" transform="matrix(1 0 0 -1 0 841)" d="M492.353 191.769L492.353 205.318" stroke="#000000" stroke-width="0.398" fill="none" /><path id="979" transform="matrix(1 0 0 -1 0 841)" d="M97.393 191.569L492.552 191.569" stroke="#000000" stroke-width="0.398" fill="none" /><path id="980" transform="matrix(1 0 0 -1 0 841)" d="M97.194 178.22L97.194 191.769" stroke="#000000" stroke-width="0.398" fill="none" /><path id="986" transform="matrix(1 0 0 -1 0 841)" d="M139.842 178.22L139.842 191.769" stroke="#000000" stroke-width="0.398" fill="none" /><path id="1017" transform="matrix(1 0 0 -1 0 841)" d="M492.353 178.22L492.353 191.769" stroke="#000000" stroke-width="0.398" fill="none" /><path id="1018" transform="matrix(1 0 0 -1 0 841)" d="M97.393 178.02L492.552 178.02" stroke="#000000" stroke-width="0.398" fill="none" /><path id="1019" transform="matrix(1 0 0 -1 0 841)" d="M97.194 164.67L97.194 178.219" stroke="#000000" stroke-width="0.398" fill="none" /><path id="1025" transform="matrix(1 0 0 -1 0 841)" d="M139.842 164.67L139.842 178.219" stroke="#000000" stroke-width="0.398" fill="none" /><path id="1062" transform="matrix(1 0 0 -1 0 841)" d="M492.353 164.67L492.353 178.219" stroke="#000000" stroke-width="0.398" fill="none" /><path id="1063" transform="matrix(1 0 0 -1 0 841)" d="M97.393 164.471L492.552 164.471" stroke="#000000" stroke-width="0.398" fill="none" /><path id="1064" transform="matrix(1 0 0 -1 0 841)" d="M97.194 151.121L97.194 164.67" stroke="#000000" stroke-width="0.398" fill="none" /><path id="1070" transform="matrix(1 0 0 -1 0 841)" d="M139.842 151.121L139.842 164.67" stroke="#000000" stroke-width="0.398" fill="none" /><path id="1104" transform="matrix(1 0 0 -1 0 841)" d="M492.353 151.121L492.353 164.67" stroke="#000000" stroke-width="0.398" fill="none" /><path id="1105" transform="matrix(1 0 0 -1 0 841)" d="M97.393 150.922L492.552 150.922" stroke="#000000" stroke-width="0.398" fill="none" /><path id="1106" transform="matrix(1 0 0 -1 0 841)" d="M97.194 137.572L97.194 151.121" stroke="#000000" stroke-width="0.398" fill="none" /><path id="1112" transform="matrix(1 0 0 -1 0 841)" d="M139.842 137.572L139.842 151.121" stroke="#000000" stroke-width="0.398" fill="none" /><path id="1159" transform="matrix(1 0 0 -1 0 841)" d="M492.353 137.572L492.353 151.121" stroke="#000000" stroke-width="0.398" fill="none" /><path id="1160" transform="matrix(1 0 0 -1 0 841)" d="M97.393 137.373L492.552 137.373" stroke="#000000" stroke-width="0.398" fill="none" /><path id="1161" transform="matrix(1 0 0 -1 0 841)" d="M97.194 124.023L97.194 137.572" stroke="#000000" stroke-width="0.398" fill="none" /><path id="1167" transform="matrix(1 0 0 -1 0 841)" d="M139.842 124.023L139.842 137.572" stroke="#000000" stroke-width="0.398" fill="none" /><path id="1206" transform="matrix(1 0 0 -1 0 841)" d="M492.353 124.023L492.353 137.572" stroke="#000000" stroke-width="0.398" fill="none" /><path id="1207" transform="matrix(1 0 0 -1 0 841)" d="M97.393 123.824L492.552 123.824" stroke="#000000" stroke-width="0.398" fill="none" /></g></g></svg>