<svg xmlns="http://www.w3.org/2000/svg" xmlns:xlink="http://www.w3.org/1999/xlink" id="body_381" preserveAspectRatio="xMinYMin meet" viewBox="0 0 793 1121"><defs><clipPath id="1"><path id="" clip-rule="evenodd" transform="matrix(1 0 0 1 0 0)" d="M0 841L0 -0.8900146L0 -0.8900146L595.276 -0.8900146L595.276 -0.8900146L595.276 841L595.276 841L0 841z" /></clipPath><clipPath id="2"><path id="" clip-rule="evenodd" transform="matrix(1 0 0 1 0 0)" d="M-0.139 805.413L595.4166 805.413L595.4166 805.413L595.4166 34.69409L595.4166 34.69409L-0.139 34.69409z" /></clipPath><clipPath id="3"><path id="" clip-rule="evenodd" transform="matrix(1 0 0 1 0 0)" d="M-0.1389911 805.413L595.4166 805.413L595.4166 805.413L595.4166 34.69409L595.4166 34.69409L-0.1389911 34.69409z" /></clipPath><clipPath id="4"><path id="" clip-rule="evenodd" transform="matrix(1 0 0 1 0 0)" d="M-0.1389911 805.413L595.4166 805.413L595.4166 805.413L595.4166 34.69409L595.4166 34.69409L-0.1389911 34.69409z" /></clipPath><clipPath id="5"><path id="" clip-rule="evenodd" transform="matrix(1 0 0 1 0 0)" d="M-0.1389911 805.413L595.4166 805.413L595.4166 805.413L595.4166 34.69409L595.4166 34.69409L-0.1389911 34.69409z" /></clipPath><clipPath id="6"><path id="" clip-rule="evenodd" transform="matrix(1 0 0 1 0 0)" d="M-0.1389911 805.413L595.4166 805.413L595.4166 805.413L595.4166 34.69409L595.4166 34.69409L-0.1389911 34.69409z" /></clipPath><clipPath id="7"><path id="" clip-rule="evenodd" transform="matrix(1 0 0 1 0 0)" d="M-0.1389911 805.413L595.4166 805.413L595.4166 805.413L595.4166 34.69409L595.4166 34.69409L-0.1389911 34.69409z" /></clipPath><clipPath id="8"><path id="" clip-rule="evenodd" transform="matrix(1 0 0 1 0 0)" d="M-0.1389911 805.413L595.4166 805.413L595.4166 805.413L595.4166 34.69409L595.4166 34.69409L-0.1389911 34.69409z" /></clipPath><clipPath id="9"><path id="" clip-rule="evenodd" transform="matrix(1 0 0 1 0 0)" d="M-0.1389911 805.413L595.4166 805.413L595.4166 805.413L595.4166 34.69409L595.4166 34.69409L-0.1389911 34.69409z" /></clipPath><clipPath id="10"><path id="" clip-rule="evenodd" transform="matrix(1 0 0 1 0 0)" d="M-0.1389911 805.413L595.4166 805.413L595.4166 805.413L595.4166 34.69409L595.4166 34.69409L-0.1389911 34.69409z" /></clipPath><clipPath id="11"><path id="" clip-rule="evenodd" transform="matrix(1 0 0 1 0 0)" d="M-0.1389911 805.413L595.4166 805.413L595.4166 805.413L595.4166 34.69409L595.4166 34.69409L-0.1389911 34.69409z" /></clipPath><clipPath id="12"><path id="" clip-rule="evenodd" transform="matrix(1 0 0 1 0 0)" d="M-0.1389911 805.413L595.4166 805.413L595.4166 805.413L595.4166 34.69409L595.4166 34.69409L-0.1389911 34.69409z" /></clipPath><clipPath id="13"><path id="" clip-rule="evenodd" transform="matrix(1 0 0 1 0 0)" d="M-0.1389911 805.413L595.4166 805.413L595.4166 805.413L595.4166 34.69409L595.4166 34.69409L-0.1389911 34.69409z" /></clipPath><clipPath id="14"><path id="" clip-rule="evenodd" transform="matrix(1 0 0 1 0 0)" d="M-0.1389911 805.413L595.4166 805.413L595.4166 805.413L595.4166 34.69409L595.4166 34.69409L-0.1389911 34.69409z" /></clipPath><clipPath id="15"><path id="" clip-rule="evenodd" transform="matrix(1 0 0 1 0 0)" d="M-0.1389911 805.413L595.4166 805.413L595.4166 805.413L595.4166 34.69409L595.4166 34.69409L-0.1389911 34.69409z" /></clipPath><clipPath id="16"><path id="" clip-rule="evenodd" transform="matrix(1 0 0 1 0 0)" d="M-0.1389911 805.413L595.4166 805.413L595.4166 805.413L595.4166 34.69409L595.4166 34.69409L-0.1389911 34.69409z" /></clipPath><clipPath id="17"><path id="" clip-rule="evenodd" transform="matrix(1 0 0 1 0 0)" d="M-0.1389911 805.413L595.4166 805.413L595.4166 805.413L595.4166 34.69409L595.4166 34.69409L-0.1389911 34.69409z" /></clipPath><clipPath id="18"><path id="" clip-rule="evenodd" transform="matrix(1 0 0 1 0 0)" d="M-0.1389911 805.413L595.4166 805.413L595.4166 805.413L595.4166 34.69409L595.4166 34.69409L-0.1389911 34.69409z" /></clipPath><clipPath id="19"><path id="" clip-rule="evenodd" transform="matrix(1 0 0 1 0 0)" d="M-0.1389911 805.413L595.4166 805.413L595.4166 805.413L595.4166 34.69409L595.4166 34.69409L-0.1389911 34.69409z" /></clipPath><clipPath id="20"><path id="" clip-rule="evenodd" transform="matrix(1 0 0 1 0 0)" d="M-0.1389911 805.413L595.4166 805.413L595.4166 805.413L595.4166 34.69409L595.4166 34.69409L-0.1389911 34.69409z" /></clipPath><clipPath id="21"><path id="" clip-rule="evenodd" transform="matrix(1 0 0 1 0 0)" d="M-0.1389911 805.413L595.4166 805.413L595.4166 805.413L595.4166 34.69409L595.4166 34.69409L-0.1389911 34.69409z" /></clipPath><clipPath id="22"><path id="" clip-rule="evenodd" transform="matrix(1 0 0 1 0 0)" d="M-0.1389911 805.413L595.4166 805.413L595.4166 805.413L595.4166 34.69409L595.4166 34.69409L-0.1389911 34.69409z" /></clipPath><clipPath id="23"><path id="" clip-rule="evenodd" transform="matrix(1 0 0 1 0 0)" d="M-0.1389911 805.413L595.4166 805.413L595.4166 805.413L595.4166 34.69409L595.4166 34.69409L-0.1389911 34.69409z" /></clipPath><clipPath id="24"><path id="" clip-rule="evenodd" transform="matrix(1 0 0 1 0 0)" d="M-0.1389911 805.413L595.4166 805.413L595.4166 805.413L595.4166 34.69409L595.4166 34.69409L-0.1389911 34.69409z" /></clipPath><clipPath id="25"><path id="" clip-rule="evenodd" transform="matrix(1 0 0 1 0 0)" d="M-0.1389911 805.413L595.4166 805.413L595.4166 805.413L595.4166 34.69409L595.4166 34.69409L-0.1389911 34.69409z" /></clipPath><clipPath id="26"><path id="" clip-rule="evenodd" transform="matrix(1 0 0 1 0 0)" d="M-0.1389911 805.413L595.4166 805.413L595.4166 805.413L595.4166 34.69409L595.4166 34.69409L-0.1389911 34.69409z" /></clipPath><clipPath id="27"><path id="" clip-rule="evenodd" transform="matrix(1 0 0 1 0 0)" d="M-0.1389911 805.413L595.4166 805.413L595.4166 805.413L595.4166 34.69409L595.4166 34.69409L-0.1389911 34.69409z" /></clipPath><clipPath id="28"><path id="" clip-rule="evenodd" transform="matrix(1 0 0 1 0 0)" d="M-0.1389911 805.413L595.4166 805.413L595.4166 805.413L595.4166 34.69409L595.4166 34.69409L-0.1389911 34.69409z" /></clipPath><clipPath id="29"><path id="" clip-rule="evenodd" transform="matrix(1 0 0 1 0 0)" d="M-0.1389911 805.413L595.4166 805.413L595.4166 805.413L595.4166 34.69409L595.4166 34.69409L-0.1389911 34.69409z" /></clipPath><clipPath id="30"><path id="" clip-rule="evenodd" transform="matrix(1 0 0 1 0 0)" d="M-0.1389911 805.413L595.4166 805.413L595.4166 805.413L595.4166 34.69409L595.4166 34.69409L-0.1389911 34.69409z" /></clipPath><clipPath id="31"><path id="" clip-rule="evenodd" transform="matrix(1 0 0 1 0 0)" d="M-0.1389911 805.413L595.4166 805.413L595.4166 805.413L595.4166 34.69409L595.4166 34.69409L-0.1389911 34.69409z" /></clipPath><clipPath id="32"><path id="" clip-rule="evenodd" transform="matrix(1 0 0 1 0 0)" d="M-0.1389911 805.413L595.4166 805.413L595.4166 805.413L595.4166 34.69409L595.4166 34.69409L-0.1389911 34.69409z" /></clipPath><clipPath id="33"><path id="" clip-rule="evenodd" transform="matrix(1 0 0 1 0 0)" d="M-0.1389911 805.413L595.4166 805.413L595.4166 805.413L595.4166 34.69409L595.4166 34.69409L-0.1389911 34.69409z" /></clipPath><clipPath id="34"><path id="" clip-rule="evenodd" transform="matrix(1 0 0 1 0 0)" d="M-0.1389911 805.413L595.4166 805.413L595.4166 805.413L595.4166 34.69409L595.4166 34.69409L-0.1389911 34.69409z" /></clipPath><clipPath id="35"><path id="" clip-rule="evenodd" transform="matrix(1 0 0 1 0 0)" d="M-0.1389911 805.413L595.4166 805.413L595.4166 805.413L595.4166 34.69409L595.4166 34.69409L-0.1389911 34.69409z" /></clipPath><clipPath id="36"><path id="" clip-rule="evenodd" transform="matrix(1 0 0 1 0 0)" d="M-0.1389911 805.413L595.4166 805.413L595.4166 805.413L595.4166 34.69409L595.4166 34.69409L-0.1389911 34.69409z" /></clipPath><clipPath id="37"><path id="" clip-rule="evenodd" transform="matrix(1 0 0 1 0 0)" d="M-0.1389911 805.413L595.4166 805.413L595.4166 805.413L595.4166 34.69409L595.4166 34.69409L-0.1389911 34.69409z" /></clipPath><clipPath id="38"><path id="" clip-rule="evenodd" transform="matrix(1 0 0 1 0 0)" d="M-0.1389911 805.413L595.4166 805.413L595.4166 805.413L595.4166 34.69409L595.4166 34.69409L-0.1389911 34.69409z" /></clipPath><clipPath id="39"><path id="" clip-rule="evenodd" transform="matrix(1 0 0 1 0 0)" d="M-0.1389911 805.413L595.4166 805.413L595.4166 805.413L595.4166 34.69409L595.4166 34.69409L-0.1389911 34.69409z" /></clipPath><clipPath id="40"><path id="" clip-rule="evenodd" transform="matrix(1 0 0 1 0 0)" d="M-0.1389911 805.413L595.4166 805.413L595.4166 805.413L595.4166 34.69409L595.4166 34.69409L-0.1389911 34.69409z" /></clipPath><clipPath id="41"><path id="" clip-rule="evenodd" transform="matrix(1 0 0 1 0 0)" d="M-0.1389911 805.413L595.4166 805.413L595.4166 805.413L595.4166 34.69409L595.4166 34.69409L-0.1389911 34.69409z" /></clipPath><clipPath id="42"><path id="" clip-rule="evenodd" transform="matrix(1 0 0 1 0 0)" d="M-0.1389911 805.413L595.4166 805.413L595.4166 805.413L595.4166 34.69409L595.4166 34.69409L-0.1389911 34.69409z" /></clipPath><clipPath id="43"><path id="" clip-rule="evenodd" transform="matrix(1 0 0 1 0 0)" d="M-0.1389911 805.413L595.4166 805.413L595.4166 805.413L595.4166 34.69409L595.4166 34.69409L-0.1389911 34.69409z" /></clipPath><clipPath id="44"><path id="" clip-rule="evenodd" transform="matrix(1 0 0 1 0 0)" d="M-0.1389911 805.413L595.4166 805.413L595.4166 805.413L595.4166 34.69409L595.4166 34.69409L-0.1389911 34.69409z" /></clipPath><clipPath id="45"><path id="" clip-rule="evenodd" transform="matrix(1 0 0 1 0 0)" d="M-0.1389911 805.413L595.4166 805.413L595.4166 805.413L595.4166 34.69409L595.4166 34.69409L-0.1389911 34.69409z" /></clipPath><clipPath id="46"><path id="" clip-rule="evenodd" transform="matrix(1 0 0 1 0 0)" d="M-0.1389911 805.413L595.4166 805.413L595.4166 805.413L595.4166 34.69409L595.4166 34.69409L-0.1389911 34.69409z" /></clipPath><clipPath id="47"><path id="" clip-rule="evenodd" transform="matrix(1 0 0 1 0 0)" d="M-0.1389911 805.413L595.4166 805.413L595.4166 805.413L595.4166 34.69409L595.4166 34.69409L-0.1389911 34.69409z" /></clipPath><clipPath id="48"><path id="" clip-rule="evenodd" transform="matrix(1 0 0 1 0 0)" d="M-0.1389911 805.413L595.4166 805.413L595.4166 805.413L595.4166 34.69409L595.4166 34.69409L-0.1389911 34.69409z" /></clipPath><clipPath id="49"><path id="" clip-rule="evenodd" transform="matrix(1 0 0 1 0 0)" d="M-0.1389911 805.413L595.4166 805.413L595.4166 805.413L595.4166 34.69409L595.4166 34.69409L-0.1389911 34.69409z" /></clipPath><clipPath id="50"><path id="" clip-rule="evenodd" transform="matrix(1 0 0 1 0 0)" d="M-0.1389911 805.413L595.4166 805.413L595.4166 805.413L595.4166 34.69409L595.4166 34.69409L-0.1389911 34.69409z" /></clipPath><clipPath id="51"><path id="" clip-rule="evenodd" transform="matrix(1 0 0 1 0 0)" d="M-0.1389911 805.413L595.4166 805.413L595.4166 805.413L595.4166 34.69409L595.4166 34.69409L-0.1389911 34.69409z" /></clipPath><clipPath id="52"><path id="" clip-rule="evenodd" transform="matrix(1 0 0 1 0 0)" d="M-0.1389911 805.413L595.4166 805.413L595.4166 805.413L595.4166 34.69409L595.4166 34.69409L-0.1389911 34.69409z" /></clipPath><clipPath id="53"><path id="" clip-rule="evenodd" transform="matrix(1 0 0 1 0 0)" d="M-0.1389911 805.413L595.4166 805.413L595.4166 805.413L595.4166 34.69409L595.4166 34.69409L-0.1389911 34.69409z" /></clipPath><clipPath id="54"><path id="" clip-rule="evenodd" transform="matrix(1 0 0 1 0 0)" d="M-0.1389911 805.413L595.4166 805.413L595.4166 805.413L595.4166 34.69409L595.4166 34.69409L-0.1389911 34.69409z" /></clipPath><clipPath id="55"><path id="" clip-rule="evenodd" transform="matrix(1 0 0 1 0 0)" d="M-0.1389911 805.413L595.4166 805.413L595.4166 805.413L595.4166 34.69409L595.4166 34.69409L-0.1389911 34.69409z" /></clipPath><clipPath id="56"><path id="" clip-rule="evenodd" transform="matrix(1 0 0 1 0 0)" d="M-0.1389911 805.413L595.4166 805.413L595.4166 805.413L595.4166 34.69409L595.4166 34.69409L-0.1389911 34.69409z" /></clipPath><clipPath id="57"><path id="" clip-rule="evenodd" transform="matrix(1 0 0 1 0 0)" d="M-0.1389911 805.413L595.4166 805.413L595.4166 805.413L595.4166 34.69409L595.4166 34.69409L-0.1389911 34.69409z" /></clipPath><clipPath id="58"><path id="" clip-rule="evenodd" transform="matrix(1 0 0 1 0 0)" d="M-0.1389911 805.413L595.4166 805.413L595.4166 805.413L595.4166 34.69409L595.4166 34.69409L-0.1389911 34.69409z" /></clipPath><clipPath id="59"><path id="" clip-rule="evenodd" transform="matrix(1 0 0 1 0 0)" d="M-0.1389911 805.413L595.4166 805.413L595.4166 805.413L595.4166 34.69409L595.4166 34.69409L-0.1389911 34.69409z" /></clipPath><clipPath id="60"><path id="" clip-rule="evenodd" transform="matrix(1 0 0 1 0 0)" d="M-0.1389911 805.413L595.4166 805.413L595.4166 805.413L595.4166 34.69409L595.4166 34.69409L-0.1389911 34.69409z" /></clipPath><clipPath id="61"><path id="" clip-rule="evenodd" transform="matrix(1 0 0 1 0 0)" d="M-0.1389911 805.413L595.4166 805.413L595.4166 805.413L595.4166 34.69409L595.4166 34.69409L-0.1389911 34.69409z" /></clipPath><clipPath id="62"><path id="" clip-rule="evenodd" transform="matrix(1 0 0 1 0 0)" d="M-0.1389911 805.413L595.4166 805.413L595.4166 805.413L595.4166 34.69409L595.4166 34.69409L-0.1389911 34.69409z" /></clipPath><clipPath id="63"><path id="" clip-rule="evenodd" transform="matrix(1 0 0 1 0 0)" d="M-0.1389911 805.413L595.4166 805.413L595.4166 805.413L595.4166 34.69409L595.4166 34.69409L-0.1389911 34.69409z" /></clipPath><clipPath id="64"><path id="" clip-rule="evenodd" transform="matrix(1 0 0 1 0 0)" d="M-0.1389911 805.413L595.4166 805.413L595.4166 805.413L595.4166 34.69409L595.4166 34.69409L-0.1389911 34.69409z" /></clipPath><clipPath id="65"><path id="" clip-rule="evenodd" transform="matrix(1 0 0 1 0 0)" d="M-0.1389911 805.413L595.4166 805.413L595.4166 805.413L595.4166 34.69409L595.4166 34.69409L-0.1389911 34.69409z" /></clipPath><clipPath id="66"><path id="" clip-rule="evenodd" transform="matrix(1 0 0 1 0 0)" d="M-0.1389911 805.413L595.4166 805.413L595.4166 805.413L595.4166 34.69409L595.4166 34.69409L-0.1389911 34.69409z" /></clipPath><clipPath id="67"><path id="" clip-rule="evenodd" transform="matrix(1 0 0 1 0 0)" d="M-0.1389911 805.413L595.4166 805.413L595.4166 805.413L595.4166 34.69409L595.4166 34.69409L-0.1389911 34.69409z" /></clipPath><clipPath id="68"><path id="" clip-rule="evenodd" transform="matrix(1 0 0 1 0 0)" d="M-0.1389911 805.413L595.4166 805.413L595.4166 805.413L595.4166 34.69409L595.4166 34.69409L-0.1389911 34.69409z" /></clipPath><clipPath id="69"><path id="" clip-rule="evenodd" transform="matrix(1 0 0 1 0 0)" d="M-0.1389911 805.413L595.4166 805.413L595.4166 805.413L595.4166 34.69409L595.4166 34.69409L-0.1389911 34.69409z" /></clipPath><clipPath id="70"><path id="" clip-rule="evenodd" transform="matrix(1 0 0 1 0 0)" d="M-0.1389911 805.413L595.4166 805.413L595.4166 805.413L595.4166 34.69409L595.4166 34.69409L-0.1389911 34.69409z" /></clipPath><clipPath id="71"><path id="" clip-rule="evenodd" transform="matrix(1 0 0 1 0 0)" d="M-0.1389911 805.413L595.4166 805.413L595.4166 805.413L595.4166 34.69409L595.4166 34.69409L-0.1389911 34.69409z" /></clipPath><clipPath id="72"><path id="" clip-rule="evenodd" transform="matrix(1 0 0 1 0 0)" d="M-0.1389911 805.413L595.4166 805.413L595.4166 805.413L595.4166 34.69409L595.4166 34.69409L-0.1389911 34.69409z" /></clipPath><clipPath id="73"><path id="" clip-rule="evenodd" transform="matrix(1 0 0 1 0 0)" d="M-0.1389911 805.413L595.4166 805.413L595.4166 805.413L595.4166 34.69409L595.4166 34.69409L-0.1389911 34.69409z" /></clipPath><clipPath id="74"><path id="" clip-rule="evenodd" transform="matrix(1 0 0 1 0 0)" d="M-0.1389911 805.413L595.4166 805.413L595.4166 805.413L595.4166 34.69409L595.4166 34.69409L-0.1389911 34.69409z" /></clipPath><clipPath id="75"><path id="" clip-rule="evenodd" transform="matrix(1 0 0 1 0 0)" d="M-0.1389911 805.413L595.4166 805.413L595.4166 805.413L595.4166 34.69409L595.4166 34.69409L-0.1389911 34.69409z" /></clipPath><clipPath id="76"><path id="" clip-rule="evenodd" transform="matrix(1 0 0 1 0 0)" d="M-0.1389911 805.413L595.4166 805.413L595.4166 805.413L595.4166 34.69409L595.4166 34.69409L-0.1389911 34.69409z" /></clipPath><clipPath id="77"><path id="" clip-rule="evenodd" transform="matrix(1 0 0 1 0 0)" d="M-0.1389911 805.413L595.4166 805.413L595.4166 805.413L595.4166 34.69409L595.4166 34.69409L-0.1389911 34.69409z" /></clipPath><clipPath id="78"><path id="" clip-rule="evenodd" transform="matrix(1 0 0 1 0 0)" d="M-0.1389911 805.413L595.4166 805.413L595.4166 805.413L595.4166 34.69409L595.4166 34.69409L-0.1389911 34.69409z" /></clipPath><clipPath id="79"><path id="" clip-rule="evenodd" transform="matrix(1 0 0 1 0 0)" d="M-0.1389911 805.413L595.4166 805.413L595.4166 805.413L595.4166 34.69409L595.4166 34.69409L-0.1389911 34.69409z" /></clipPath><clipPath id="80"><path id="" clip-rule="evenodd" transform="matrix(1 0 0 1 0 0)" d="M-0.1389911 805.413L595.4166 805.413L595.4166 805.413L595.4166 34.69409L595.4166 34.69409L-0.1389911 34.69409z" /></clipPath><clipPath id="81"><path id="" clip-rule="evenodd" transform="matrix(1 0 0 1 0 0)" d="M-0.1389911 805.413L595.4166 805.413L595.4166 805.413L595.4166 34.69409L595.4166 34.69409L-0.1389911 34.69409z" /></clipPath><clipPath id="82"><path id="" clip-rule="evenodd" transform="matrix(1 0 0 1 0 0)" d="M-0.1389911 805.413L595.4166 805.413L595.4166 805.413L595.4166 34.69409L595.4166 34.69409L-0.1389911 34.69409z" /></clipPath><clipPath id="83"><path id="" clip-rule="evenodd" transform="matrix(1 0 0 1 0 0)" d="M-0.1389911 805.413L595.4166 805.413L595.4166 805.413L595.4166 34.69409L595.4166 34.69409L-0.1389911 34.69409z" /></clipPath><clipPath id="84"><path id="" clip-rule="evenodd" transform="matrix(1 0 0 1 0 0)" d="M-0.1389911 805.413L595.4166 805.413L595.4166 805.413L595.4166 34.69409L595.4166 34.69409L-0.1389911 34.69409z" /></clipPath><clipPath id="85"><path id="" clip-rule="evenodd" transform="matrix(1 0 0 1 0 0)" d="M-0.1389911 805.413L595.4166 805.413L595.4166 805.413L595.4166 34.69409L595.4166 34.69409L-0.1389911 34.69409z" /></clipPath><clipPath id="86"><path id="" clip-rule="evenodd" transform="matrix(1 0 0 1 0 0)" d="M-0.1389911 805.413L595.4166 805.413L595.4166 805.413L595.4166 34.69409L595.4166 34.69409L-0.1389911 34.69409z" /></clipPath><clipPath id="87"><path id="" clip-rule="evenodd" transform="matrix(1 0 0 1 0 0)" d="M-0.1389911 805.413L595.4166 805.413L595.4166 805.413L595.4166 34.69409L595.4166 34.69409L-0.1389911 34.69409z" /></clipPath><clipPath id="88"><path id="" clip-rule="evenodd" transform="matrix(1 0 0 1 0 0)" d="M-0.1389911 805.413L595.4166 805.413L595.4166 805.413L595.4166 34.69409L595.4166 34.69409L-0.1389911 34.69409z" /></clipPath><clipPath id="89"><path id="" clip-rule="evenodd" transform="matrix(1 0 0 1 0 0)" d="M-0.1389911 805.413L595.4166 805.413L595.4166 805.413L595.4166 34.69409L595.4166 34.69409L-0.1389911 34.69409z" /></clipPath><clipPath id="90"><path id="" clip-rule="evenodd" transform="matrix(1 0 0 1 0 0)" d="M-0.1389911 805.413L595.4166 805.413L595.4166 805.413L595.4166 34.69409L595.4166 34.69409L-0.1389911 34.69409z" /></clipPath><clipPath id="91"><path id="" clip-rule="evenodd" transform="matrix(1 0 0 1 0 0)" d="M-0.1389911 805.413L595.4166 805.413L595.4166 805.413L595.4166 34.69409L595.4166 34.69409L-0.1389911 34.69409z" /></clipPath><clipPath id="92"><path id="" clip-rule="evenodd" transform="matrix(1 0 0 1 0 0)" d="M-0.1389911 805.413L595.4166 805.413L595.4166 805.413L595.4166 34.69409L595.4166 34.69409L-0.1389911 34.69409z" /></clipPath><clipPath id="93"><path id="" clip-rule="evenodd" transform="matrix(1 0 0 1 0 0)" d="M-0.1389911 805.413L595.4166 805.413L595.4166 805.413L595.4166 34.69409L595.4166 34.69409L-0.1389911 34.69409z" /></clipPath><clipPath id="94"><path id="" clip-rule="evenodd" transform="matrix(1 0 0 1 0 0)" d="M-0.1389911 805.413L595.4166 805.413L595.4166 805.413L595.4166 34.69409L595.4166 34.69409L-0.1389911 34.69409z" /></clipPath><clipPath id="95"><path id="" clip-rule="evenodd" transform="matrix(1 0 0 1 0 0)" d="M-0.1389911 805.413L595.4166 805.413L595.4166 805.413L595.4166 34.69409L595.4166 34.69409L-0.1389911 34.69409z" /></clipPath><clipPath id="96"><path id="" clip-rule="evenodd" transform="matrix(1 0 0 1 0 0)" d="M-0.1389911 805.413L595.4166 805.413L595.4166 805.413L595.4166 34.69409L595.4166 34.69409L-0.1389911 34.69409z" /></clipPath><clipPath id="97"><path id="" clip-rule="evenodd" transform="matrix(1 0 0 1 0 0)" d="M-0.1389911 805.413L595.4166 805.413L595.4166 805.413L595.4166 34.69409L595.4166 34.69409L-0.1389911 34.69409z" /></clipPath><clipPath id="98"><path id="" clip-rule="evenodd" transform="matrix(1 0 0 1 0 0)" d="M-0.1389911 805.413L595.4166 805.413L595.4166 805.413L595.4166 34.69409L595.4166 34.69409L-0.1389911 34.69409z" /></clipPath><clipPath id="99"><path id="" clip-rule="evenodd" transform="matrix(1 0 0 1 0 0)" d="M-0.1389911 805.413L595.4166 805.413L595.4166 805.413L595.4166 34.69409L595.4166 34.69409L-0.1389911 34.69409z" /></clipPath><clipPath id="100"><path id="" clip-rule="evenodd" transform="matrix(1 0 0 1 0 0)" d="M-0.1389911 805.413L595.4166 805.413L595.4166 805.413L595.4166 34.69409L595.4166 34.69409L-0.1389911 34.69409z" /></clipPath><clipPath id="101"><path id="" clip-rule="evenodd" transform="matrix(1 0 0 1 0 0)" d="M-0.1389911 805.413L595.4166 805.413L595.4166 805.413L595.4166 34.69409L595.4166 34.69409L-0.1389911 34.69409z" /></clipPath><clipPath id="102"><path id="" clip-rule="evenodd" transform="matrix(1 0 0 1 0 0)" d="M-0.1389911 805.413L595.4166 805.413L595.4166 805.413L595.4166 34.69409L595.4166 34.69409L-0.1389911 34.69409z" /></clipPath><clipPath id="103"><path id="" clip-rule="evenodd" transform="matrix(1 0 0 1 0 0)" d="M-0.1389911 805.413L595.4166 805.413L595.4166 805.413L595.4166 34.69409L595.4166 34.69409L-0.1389911 34.69409z" /></clipPath><clipPath id="104"><path id="" clip-rule="evenodd" transform="matrix(1 0 0 1 0 0)" d="M-0.1389911 805.413L595.4166 805.413L595.4166 805.413L595.4166 34.69409L595.4166 34.69409L-0.1389911 34.69409z" /></clipPath><clipPath id="105"><path id="" clip-rule="evenodd" transform="matrix(1 0 0 1 0 0)" d="M-0.1389911 805.413L595.4166 805.413L595.4166 805.413L595.4166 34.69409L595.4166 34.69409L-0.1389911 34.69409z" /></clipPath><clipPath id="106"><path id="" clip-rule="evenodd" transform="matrix(1 0 0 1 0 0)" d="M-0.1389911 805.413L595.4166 805.413L595.4166 805.413L595.4166 34.69409L595.4166 34.69409L-0.1389911 34.69409z" /></clipPath><clipPath id="107"><path id="" clip-rule="evenodd" transform="matrix(1 0 0 1 0 0)" d="M-0.1389911 805.413L595.4166 805.413L595.4166 805.413L595.4166 34.69409L595.4166 34.69409L-0.1389911 34.69409z" /></clipPath><clipPath id="108"><path id="" clip-rule="evenodd" transform="matrix(1 0 0 1 0 0)" d="M-0.1389911 805.413L595.4166 805.413L595.4166 805.413L595.4166 34.69409L595.4166 34.69409L-0.1389911 34.69409z" /></clipPath><clipPath id="109"><path id="" clip-rule="evenodd" transform="matrix(1 0 0 1 0 0)" d="M-0.1389911 805.413L595.4166 805.413L595.4166 805.413L595.4166 34.69409L595.4166 34.69409L-0.1389911 34.69409z" /></clipPath><clipPath id="110"><path id="" clip-rule="evenodd" transform="matrix(1 0 0 1 0 0)" d="M-0.1389911 805.413L595.4166 805.413L595.4166 805.413L595.4166 34.69409L595.4166 34.69409L-0.1389911 34.69409z" /></clipPath><clipPath id="111"><path id="" clip-rule="evenodd" transform="matrix(1 0 0 1 0 0)" d="M-0.1389911 805.413L595.4166 805.413L595.4166 805.413L595.4166 34.69409L595.4166 34.69409L-0.1389911 34.69409z" /></clipPath><clipPath id="112"><path id="" clip-rule="evenodd" transform="matrix(1 0 0 1 0 0)" d="M-0.1389911 805.413L595.4166 805.413L595.4166 805.413L595.4166 34.69409L595.4166 34.69409L-0.1389911 34.69409z" /></clipPath><clipPath id="113"><path id="" clip-rule="evenodd" transform="matrix(1 0 0 1 0 0)" d="M-0.1389911 805.413L595.4166 805.413L595.4166 805.413L595.4166 34.69409L595.4166 34.69409L-0.1389911 34.69409z" /></clipPath><clipPath id="114"><path id="" clip-rule="evenodd" transform="matrix(1 0 0 1 0 0)" d="M-0.1389911 805.413L595.4166 805.413L595.4166 805.413L595.4166 34.69409L595.4166 34.69409L-0.1389911 34.69409z" /></clipPath><clipPath id="115"><path id="" clip-rule="evenodd" transform="matrix(1 0 0 1 0 0)" d="M-0.1389911 805.413L595.4166 805.413L595.4166 805.413L595.4166 34.69409L595.4166 34.69409L-0.1389911 34.69409z" /></clipPath><clipPath id="116"><path id="" clip-rule="evenodd" transform="matrix(1 0 0 1 0 0)" d="M-0.1389911 805.413L595.4166 805.413L595.4166 805.413L595.4166 34.69409L595.4166 34.69409L-0.1389911 34.69409z" /></clipPath><clipPath id="117"><path id="" clip-rule="evenodd" transform="matrix(1 0 0 1 0 0)" d="M-0.1389911 805.413L595.4166 805.413L595.4166 805.413L595.4166 34.69409L595.4166 34.69409L-0.1389911 34.69409z" /></clipPath><clipPath id="118"><path id="" clip-rule="evenodd" transform="matrix(1 0 0 1 0 0)" d="M-0.1389911 805.413L595.4166 805.413L595.4166 805.413L595.4166 34.69409L595.4166 34.69409L-0.1389911 34.69409z" /></clipPath><clipPath id="119"><path id="" clip-rule="evenodd" transform="matrix(1 0 0 1 0 0)" d="M-0.1389911 805.413L595.4166 805.413L595.4166 805.413L595.4166 34.69409L595.4166 34.69409L-0.1389911 34.69409z" /></clipPath><clipPath id="120"><path id="" clip-rule="evenodd" transform="matrix(1 0 0 1 0 0)" d="M-0.1389911 805.413L595.4166 805.413L595.4166 805.413L595.4166 34.69409L595.4166 34.69409L-0.1389911 34.69409z" /></clipPath><clipPath id="121"><path id="" clip-rule="evenodd" transform="matrix(1 0 0 1 0 0)" d="M-0.1389911 805.413L595.4166 805.413L595.4166 805.413L595.4166 34.69409L595.4166 34.69409L-0.1389911 34.69409z" /></clipPath><clipPath id="122"><path id="" clip-rule="evenodd" transform="matrix(1 0 0 1 0 0)" d="M-0.1389911 805.413L595.4166 805.413L595.4166 805.413L595.4166 34.69409L595.4166 34.69409L-0.1389911 34.69409z" /></clipPath><clipPath id="123"><path id="" clip-rule="evenodd" transform="matrix(1 0 0 1 0 0)" d="M-0.1389911 805.413L595.4166 805.413L595.4166 805.413L595.4166 34.69409L595.4166 34.69409L-0.1389911 34.69409z" /></clipPath><clipPath id="124"><path id="" clip-rule="evenodd" transform="matrix(1 0 0 1 0 0)" d="M-0.1389911 805.413L595.4166 805.413L595.4166 805.413L595.4166 34.69409L595.4166 34.69409L-0.1389911 34.69409z" /></clipPath><clipPath id="125"><path id="" clip-rule="evenodd" transform="matrix(1 0 0 1 0 0)" d="M-0.1389911 805.413L595.4166 805.413L595.4166 805.413L595.4166 34.69409L595.4166 34.69409L-0.1389911 34.69409z" /></clipPath><clipPath id="126"><path id="" clip-rule="evenodd" transform="matrix(1 0 0 1 0 0)" d="M-0.1389911 805.413L595.4166 805.413L595.4166 805.413L595.4166 34.69409L595.4166 34.69409L-0.1389911 34.69409z" /></clipPath><clipPath id="127"><path id="" clip-rule="evenodd" transform="matrix(1 0 0 1 0 0)" d="M-0.1389911 805.413L595.4166 805.413L595.4166 805.413L595.4166 34.69409L595.4166 34.69409L-0.1389911 34.69409z" /></clipPath><clipPath id="128"><path id="" clip-rule="evenodd" transform="matrix(1 0 0 1 0 0)" d="M-0.1389911 805.413L595.4166 805.413L595.4166 805.413L595.4166 34.69409L595.4166 34.69409L-0.1389911 34.69409z" /></clipPath><clipPath id="129"><path id="" clip-rule="evenodd" transform="matrix(1 0 0 1 0 0)" d="M-0.1389911 805.413L595.4166 805.413L595.4166 805.413L595.4166 34.69409L595.4166 34.69409L-0.1389911 34.69409z" /></clipPath><clipPath id="130"><path id="" clip-rule="evenodd" transform="matrix(1 0 0 1 0 0)" d="M-0.1389911 805.413L595.4166 805.413L595.4166 805.413L595.4166 34.69409L595.4166 34.69409L-0.1389911 34.69409z" /></clipPath><clipPath id="131"><path id="" clip-rule="evenodd" transform="matrix(1 0 0 1 0 0)" d="M-0.1389911 805.413L595.4166 805.413L595.4166 805.413L595.4166 34.69409L595.4166 34.69409L-0.1389911 34.69409z" /></clipPath><clipPath id="132"><path id="" clip-rule="evenodd" transform="matrix(1 0 0 1 0 0)" d="M-0.1389911 805.413L595.4166 805.413L595.4166 805.413L595.4166 34.69409L595.4166 34.69409L-0.1389911 34.69409z" /></clipPath><clipPath id="133"><path id="" clip-rule="evenodd" transform="matrix(1 0 0 1 0 0)" d="M-0.1389911 805.413L595.4166 805.413L595.4166 805.413L595.4166 34.69409L595.4166 34.69409L-0.1389911 34.69409z" /></clipPath><clipPath id="134"><path id="" clip-rule="evenodd" transform="matrix(1 0 0 1 0 0)" d="M-0.1389911 805.413L595.4166 805.413L595.4166 805.413L595.4166 34.69409L595.4166 34.69409L-0.1389911 34.69409z" /></clipPath><clipPath id="135"><path id="" clip-rule="evenodd" transform="matrix(1 0 0 1 0 0)" d="M-0.1389911 805.413L595.4166 805.413L595.4166 805.413L595.4166 34.69409L595.4166 34.69409L-0.1389911 34.69409z" /></clipPath><clipPath id="136"><path id="" clip-rule="evenodd" transform="matrix(1 0 0 1 0 0)" d="M-0.1389911 805.413L595.4166 805.413L595.4166 805.413L595.4166 34.69409L595.4166 34.69409L-0.1389911 34.69409z" /></clipPath><clipPath id="137"><path id="" clip-rule="evenodd" transform="matrix(1 0 0 1 0 0)" d="M-0.1389911 805.413L595.4166 805.413L595.4166 805.413L595.4166 34.69409L595.4166 34.69409L-0.1389911 34.69409z" /></clipPath><clipPath id="138"><path id="" clip-rule="evenodd" transform="matrix(1 0 0 1 0 0)" d="M-0.1389911 805.413L595.4166 805.413L595.4166 805.413L595.4166 34.69409L595.4166 34.69409L-0.1389911 34.69409z" /></clipPath><clipPath id="139"><path id="" clip-rule="evenodd" transform="matrix(1 0 0 1 0 0)" d="M-0.1389911 805.413L595.4166 805.413L595.4166 805.413L595.4166 34.69409L595.4166 34.69409L-0.1389911 34.69409z" /></clipPath><clipPath id="140"><path id="" clip-rule="evenodd" transform="matrix(1 0 0 1 0 0)" d="M-0.1389911 805.413L595.4166 805.413L595.4166 805.413L595.4166 34.69409L595.4166 34.69409L-0.1389911 34.69409z" /></clipPath><clipPath id="141"><path id="" clip-rule="evenodd" transform="matrix(1 0 0 1 0 0)" d="M-0.1389911 805.413L595.4166 805.413L595.4166 805.413L595.4166 34.69409L595.4166 34.69409L-0.1389911 34.69409z" /></clipPath><clipPath id="142"><path id="" clip-rule="evenodd" transform="matrix(1 0 0 1 0 0)" d="M-0.1389911 805.413L595.4166 805.413L595.4166 805.413L595.4166 34.69409L595.4166 34.69409L-0.1389911 34.69409z" /></clipPath><clipPath id="143"><path id="" clip-rule="evenodd" transform="matrix(1 0 0 1 0 0)" d="M-0.1389911 805.413L595.4166 805.413L595.4166 805.413L595.4166 34.69409L595.4166 34.69409L-0.1389911 34.69409z" /></clipPath><clipPath id="144"><path id="" clip-rule="evenodd" transform="matrix(1 0 0 1 0 0)" d="M-0.1389911 805.413L595.4166 805.413L595.4166 805.413L595.4166 34.69409L595.4166 34.69409L-0.1389911 34.69409z" /></clipPath><clipPath id="145"><path id="" clip-rule="evenodd" transform="matrix(1 0 0 1 0 0)" d="M-0.1389911 805.413L595.4166 805.413L595.4166 805.413L595.4166 34.69409L595.4166 34.69409L-0.1389911 34.69409z" /></clipPath><clipPath id="146"><path id="" clip-rule="evenodd" transform="matrix(1 0 0 1 0 0)" d="M-0.1389911 805.413L595.4166 805.413L595.4166 805.413L595.4166 34.69409L595.4166 34.69409L-0.1389911 34.69409z" /></clipPath><clipPath id="147"><path id="" clip-rule="evenodd" transform="matrix(1 0 0 1 0 0)" d="M-0.1389911 805.413L595.4166 805.413L595.4166 805.413L595.4166 34.69409L595.4166 34.69409L-0.1389911 34.69409z" /></clipPath><clipPath id="148"><path id="" clip-rule="evenodd" transform="matrix(1 0 0 1 0 0)" d="M-0.1389911 805.413L595.4166 805.413L595.4166 805.413L595.4166 34.69409L595.4166 34.69409L-0.1389911 34.69409z" /></clipPath><clipPath id="149"><path id="" clip-rule="evenodd" transform="matrix(1 0 0 1 0 0)" d="M-0.1389911 805.413L595.4166 805.413L595.4166 805.413L595.4166 34.69409L595.4166 34.69409L-0.1389911 34.69409z" /></clipPath><clipPath id="150"><path id="" clip-rule="evenodd" transform="matrix(1 0 0 1 0 0)" d="M-0.1389911 805.413L595.4166 805.413L595.4166 805.413L595.4166 34.69409L595.4166 34.69409L-0.1389911 34.69409z" /></clipPath><clipPath id="151"><path id="" clip-rule="evenodd" transform="matrix(1 0 0 1 0 0)" d="M-0.1389911 805.413L595.4166 805.413L595.4166 805.413L595.4166 34.69409L595.4166 34.69409L-0.1389911 34.69409z" /></clipPath><clipPath id="152"><path id="" clip-rule="evenodd" transform="matrix(1 0 0 1 0 0)" d="M-0.1389911 805.413L595.4166 805.413L595.4166 805.413L595.4166 34.69409L595.4166 34.69409L-0.1389911 34.69409z" /></clipPath><clipPath id="153"><path id="" clip-rule="evenodd" transform="matrix(1 0 0 1 0 0)" d="M-0.1389911 805.413L595.4166 805.413L595.4166 805.413L595.4166 34.69409L595.4166 34.69409L-0.1389911 34.69409z" /></clipPath><clipPath id="154"><path id="" clip-rule="evenodd" transform="matrix(1 0 0 1 0 0)" d="M-0.1389911 805.413L595.4166 805.413L595.4166 805.413L595.4166 34.69409L595.4166 34.69409L-0.1389911 34.69409z" /></clipPath><clipPath id="155"><path id="" clip-rule="evenodd" transform="matrix(1 0 0 1 0 0)" d="M-0.1389911 805.413L595.4166 805.413L595.4166 805.413L595.4166 34.69409L595.4166 34.69409L-0.1389911 34.69409z" /></clipPath><clipPath id="156"><path id="" clip-rule="evenodd" transform="matrix(1 0 0 1 0 0)" d="M-0.1389911 805.413L595.4166 805.413L595.4166 805.413L595.4166 34.69409L595.4166 34.69409L-0.1389911 34.69409z" /></clipPath><clipPath id="157"><path id="" clip-rule="evenodd" transform="matrix(1 0 0 1 0 0)" d="M-0.1389911 805.413L595.4166 805.413L595.4166 805.413L595.4166 34.69409L595.4166 34.69409L-0.1389911 34.69409z" /></clipPath><clipPath id="158"><path id="" clip-rule="evenodd" transform="matrix(1 0 0 1 0 0)" d="M-0.1389911 805.413L595.4166 805.413L595.4166 805.413L595.4166 34.69409L595.4166 34.69409L-0.1389911 34.69409z" /></clipPath><clipPath id="159"><path id="" clip-rule="evenodd" transform="matrix(1 0 0 1 0 0)" d="M-0.1389911 805.413L595.4166 805.413L595.4166 805.413L595.4166 34.69409L595.4166 34.69409L-0.1389911 34.69409z" /></clipPath></defs><g transform="matrix(1.333333 0 0 1.333333 0 0)"><g clip-path="url(#1)"><g><g clip-path="url(#2)"><path id="1" transform="matrix(1 0 0 -1 0 841)" d="M47.50544 730.6353L526.8498 730.6353L526.8498 730.6353L526.8498 757.2601L526.8498 757.2601L47.50544 757.2601z" stroke="none" fill="#3C6396" fill-rule="evenodd" /><g clip-path="url(#3)"></g><g clip-path="url(#4)"></g><g clip-path="url(#5)"></g><path id="38" transform="matrix(1 0 0 -1 0 841)" d="M47.50544 718.9383L526.8498 718.9383L526.8498 718.9383L526.8498 730.6392L526.8498 730.6392L47.50544 730.6392z" stroke="none" fill="#FFFFFF" fill-rule="evenodd" /><g clip-path="url(#6)"></g><g clip-path="url(#7)"></g><path id="140" transform="matrix(1 0 0 -1 0 841)" d="M47.50544 707.144L526.8498 707.144L526.8498 707.144L526.8498 718.9383L526.8498 718.9383L47.50544 718.9383z" stroke="none" fill="#FFFFFF" fill-rule="evenodd" /><g clip-path="url(#8)"></g><g clip-path="url(#9)"></g><g clip-path="url(#10)"></g><g clip-path="url(#11)"></g><path id="222" transform="matrix(1 0 0 -1 0 841)" d="M48.2061 678.8843L526.8498 678.8843L526.8498 678.8843L526.8498 690.5618L526.8498 690.5618L48.2061 690.5618z" stroke="none" fill="#FFFFFF" fill-rule="evenodd" /><g clip-path="url(#12)"></g><g clip-path="url(#13)"></g><g clip-path="url(#14)"></g><g clip-path="url(#15)"></g><g clip-path="url(#16)"></g><g clip-path="url(#17)"></g><path id="304" transform="matrix(1 0 0 -1 0 841)" d="M383.3034 682.6212L385.9893 682.6212L385.9893 682.6212L385.9893 682.9714L385.9893 682.9714L383.3034 682.9714z" stroke="none" fill="#800080" fill-rule="evenodd" /><g clip-path="url(#18)"></g><path id="305" transform="matrix(1 0 0 -1 0 841)" d="M48.2061 664.2874L526.8498 664.2874L526.8498 664.2874L526.8498 678.8843L526.8498 678.8843L48.2061 678.8843z" stroke="none" fill="#FFFFFF" fill-rule="evenodd" /><g clip-path="url(#19)"></g><g clip-path="url(#20)"></g><g clip-path="url(#21)"></g><g clip-path="url(#22)"></g><g clip-path="url(#23)"></g><path id="321" transform="matrix(1 0 0 -1 0 841)" d="M48.2061 649.6904L526.8498 649.6904L526.8498 649.6904L526.8498 664.2874L526.8498 664.2874L48.2061 664.2874z" stroke="none" fill="#FFFFFF" fill-rule="evenodd" /><g clip-path="url(#24)"></g><g clip-path="url(#25)"></g><g clip-path="url(#26)"></g><g clip-path="url(#27)"></g><g clip-path="url(#28)"></g><g clip-path="url(#29)"></g><path id="345" transform="matrix(1 0 0 -1 0 841)" d="M48.2061 635.0934L526.8498 635.0934L526.8498 635.0934L526.8498 649.6904L526.8498 649.6904L48.2061 649.6904z" stroke="none" fill="#FFFFFF" fill-rule="evenodd" /><g clip-path="url(#30)"></g><g clip-path="url(#31)"></g><g clip-path="url(#32)"></g><g clip-path="url(#33)"></g><path id="444" transform="matrix(1 0 0 -1 0 841)" d="M48.2061 620.4965L526.8498 620.4965L526.8498 620.4965L526.8498 635.0934L526.8498 635.0934L48.2061 635.0934z" stroke="none" fill="#FFFFFF" fill-rule="evenodd" /><g clip-path="url(#34)"></g><g clip-path="url(#35)"></g><path id="547" transform="matrix(1 0 0 -1 0 841)" d="M48.2061 605.8995L526.8498 605.8995L526.8498 605.8995L526.8498 620.4965L526.8498 620.4965L48.2061 620.4965z" stroke="none" fill="#FFFFFF" fill-rule="evenodd" /><g clip-path="url(#36)"></g><g clip-path="url(#37)"></g><g clip-path="url(#38)"></g><path id="556" transform="matrix(1 0 0 -1 0 841)" d="M48.2061 591.3026L526.8498 591.3026L526.8498 591.3026L526.8498 605.8995L526.8498 605.8995L48.2061 605.8995z" stroke="none" fill="#FFFFFF" fill-rule="evenodd" /><g clip-path="url(#39)"></g><g clip-path="url(#40)"></g><g clip-path="url(#41)"></g><g clip-path="url(#42)"></g><g clip-path="url(#43)"></g><path id="587" transform="matrix(1 0 0 -1 0 841)" d="M48.2061 576.7056L526.8498 576.7056L526.8498 576.7056L526.8498 591.3026L526.8498 591.3026L48.2061 591.3026z" stroke="none" fill="#FFFFFF" fill-rule="evenodd" /><g clip-path="url(#44)"></g><g clip-path="url(#45)"></g><g clip-path="url(#46)"></g><g clip-path="url(#47)"></g><g clip-path="url(#48)"></g><g clip-path="url(#49)"></g><path id="643" transform="matrix(1 0 0 -1 0 841)" d="M48.2061 562.1087L526.8498 562.1087L526.8498 562.1087L526.8498 576.7056L526.8498 576.7056L48.2061 576.7056z" stroke="none" fill="#FFFFFF" fill-rule="evenodd" /><g clip-path="url(#50)"></g><g clip-path="url(#51)"></g><g clip-path="url(#52)"></g><g clip-path="url(#53)"></g><path id="746" transform="matrix(1 0 0 -1 0 841)" d="M48.2061 547.4826L526.8498 547.4826L526.8498 547.4826L526.8498 562.1028L526.8498 562.1028L48.2061 562.1028z" stroke="none" fill="#FFFFFF" fill-rule="evenodd" /><g clip-path="url(#54)"></g><g clip-path="url(#55)"></g><path id="855" transform="matrix(1 0 0 -1 0 841)" d="M48.2061 533.0024L526.8498 533.0024L526.8498 533.0024L526.8498 547.4825L526.8498 547.4825L48.2061 547.4825z" stroke="none" fill="#FFFFFF" fill-rule="evenodd" /><g clip-path="url(#56)"></g><g clip-path="url(#57)"></g><g clip-path="url(#58)"></g><g clip-path="url(#59)"></g><g clip-path="url(#60)"></g><path id="936" transform="matrix(1 0 0 -1 0 841)" d="M47.50544 492.7148L526.8498 492.7148L526.8498 492.7148L526.8498 519.3396L526.8498 519.3396L47.50544 519.3396z" stroke="none" fill="#3C6396" fill-rule="evenodd" /><g clip-path="url(#61)"></g><g clip-path="url(#62)"></g><g clip-path="url(#63)"></g><path id="987" transform="matrix(1 0 0 -1 0 841)" d="M47.50544 480.9205L526.8498 480.9205L526.8498 480.9205L526.8498 492.7148L526.8498 492.7148L47.50544 492.7148z" stroke="none" fill="#FFFFFF" fill-rule="evenodd" /><g clip-path="url(#64)"></g><g clip-path="url(#65)"></g><path id="1102" transform="matrix(1 0 0 -1 0 841)" d="M47.50544 469.2429L526.8498 469.2429L526.8498 469.2429L526.8498 480.9205L526.8498 480.9205L47.50544 480.9205z" stroke="none" fill="#FFFFFF" fill-rule="evenodd" /><g clip-path="url(#66)"></g><g clip-path="url(#67)"></g><path id="1211" transform="matrix(1 0 0 -1 0 841)" d="M47.50544 450.2085L526.8498 450.2085L526.8498 450.2085L526.8498 469.2429L526.8498 469.2429L47.50544 469.2429z" stroke="none" fill="#FFFFFF" fill-rule="evenodd" /><g clip-path="url(#68)"></g><g clip-path="url(#69)"></g><path id="1275" transform="matrix(1 0 0 -1 0 841)" d="M47.50544 438.4142L526.8498 438.4142L526.8498 438.4142L526.8498 450.2085L526.8498 450.2085L47.50544 450.2085z" stroke="none" fill="#FFFFFF" fill-rule="evenodd" /><g clip-path="url(#70)"></g><g clip-path="url(#71)"></g><g clip-path="url(#72)"></g><path id="1287" transform="matrix(1 0 0 -1 0 841)" d="M48.2061 410.1545L526.8498 410.1545L526.8498 410.1545L526.8498 421.832L526.8498 421.832L48.2061 421.832z" stroke="none" fill="#FFFFFF" fill-rule="evenodd" /><g clip-path="url(#73)"></g><g clip-path="url(#74)"></g><g clip-path="url(#75)"></g><g clip-path="url(#76)"></g><g clip-path="url(#77)"></g><path id="1305" transform="matrix(1 0 0 -1 0 841)" d="M48.2061 395.5575L526.8498 395.5575L526.8498 395.5575L526.8498 410.1545L526.8498 410.1545L48.2061 410.1545z" stroke="none" fill="#FFFFFF" fill-rule="evenodd" /><g clip-path="url(#78)"></g><g clip-path="url(#79)"></g><g clip-path="url(#80)"></g><g clip-path="url(#81)"></g><g clip-path="url(#82)"></g><path id="1334" transform="matrix(1 0 0 -1 0 841)" d="M48.2061 380.9411L526.8498 380.9411L526.8498 380.9411L526.8498 395.5614L526.8498 395.5614L48.2061 395.5614z" stroke="none" fill="#FFFFFF" fill-rule="evenodd" /><g clip-path="url(#83)"></g><g clip-path="url(#84)"></g><g clip-path="url(#85)"></g><g clip-path="url(#86)"></g><g clip-path="url(#87)"></g><g clip-path="url(#88)"></g><path id="1407" transform="matrix(1 0 0 -1 0 841)" d="M48.2061 366.3442L526.8498 366.3442L526.8498 366.3442L526.8498 380.9411L526.8498 380.9411L48.2061 380.9411z" stroke="none" fill="#FFFFFF" fill-rule="evenodd" /><g clip-path="url(#89)"></g><g clip-path="url(#90)"></g><g clip-path="url(#91)"></g><g clip-path="url(#92)"></g><path id="1508" transform="matrix(1 0 0 -1 0 841)" d="M48.2061 351.864L526.8498 351.864L526.8498 351.864L526.8498 366.3442L526.8498 366.3442L48.2061 366.3442z" stroke="none" fill="#FFFFFF" fill-rule="evenodd" /><g clip-path="url(#93)"></g><g clip-path="url(#94)"></g><g clip-path="url(#95)"></g><path id="1541" transform="matrix(1 0 0 -1 0 841)" d="M47.50544 326.4069L526.8498 326.4069L526.8498 326.4069L526.8498 338.2012L526.8498 338.2012L47.50544 338.2012z" stroke="none" fill="#FFFFFF" fill-rule="evenodd" /><g clip-path="url(#96)"></g><g clip-path="url(#97)"></g><g clip-path="url(#98)"></g><path id="1551" transform="matrix(1 0 0 -1 0 841)" d="M48.2061 298.1472L526.8498 298.1472L526.8498 298.1472L526.8498 309.8248L526.8498 309.8248L48.2061 309.8248z" stroke="none" fill="#FFFFFF" fill-rule="evenodd" /><g clip-path="url(#99)"></g><g clip-path="url(#100)"></g><g clip-path="url(#101)"></g><g clip-path="url(#102)"></g><g clip-path="url(#103)"></g><path id="1596" transform="matrix(1 0 0 -1 0 841)" d="M48.2061 283.5503L526.8498 283.5503L526.8498 283.5503L526.8498 298.1472L526.8498 298.1472L48.2061 298.1472z" stroke="none" fill="#FFFFFF" fill-rule="evenodd" /><g clip-path="url(#104)"></g><g clip-path="url(#105)"></g><g clip-path="url(#106)"></g><g clip-path="url(#107)"></g><g clip-path="url(#108)"></g><path id="1703" transform="matrix(1 0 0 -1 0 841)" d="M48.2061 268.9533L526.8498 268.9533L526.8498 268.9533L526.8498 283.5503L526.8498 283.5503L48.2061 283.5503z" stroke="none" fill="#FFFFFF" fill-rule="evenodd" /><g clip-path="url(#109)"></g><g clip-path="url(#110)"></g><g clip-path="url(#111)"></g><path id="1728" transform="matrix(1 0 0 -1 0 841)" d="M66.56322 254.3564L526.844 254.3564L526.844 254.3564L526.844 266.1507L526.844 266.1507L66.56322 266.1507z" stroke="none" fill="#FFFFFF" fill-rule="evenodd" /><g clip-path="url(#112)"></g><g clip-path="url(#113)"></g><g clip-path="url(#114)"></g><g clip-path="url(#115)"></g><g clip-path="url(#116)"></g><g clip-path="url(#117)"></g><g clip-path="url(#118)"></g><path id="1783" transform="matrix(1 0 0 -1 0 841)" d="M66.56322 239.7594L526.844 239.7594L526.844 239.7594L526.844 254.3564L526.844 254.3564L66.56322 254.3564z" stroke="none" fill="#FFFFFF" fill-rule="evenodd" /><g clip-path="url(#119)"></g><g clip-path="url(#120)"></g><g clip-path="url(#121)"></g><g clip-path="url(#122)"></g><g clip-path="url(#123)"></g><g clip-path="url(#124)"></g><g clip-path="url(#125)"></g><path id="1848" transform="matrix(1 0 0 -1 0 841)" d="M48.2061 225.1625L526.8498 225.1625L526.8498 225.1625L526.8498 236.9568L526.8498 236.9568L48.2061 236.9568z" stroke="none" fill="#FFFFFF" fill-rule="evenodd" /><g clip-path="url(#126)"></g><g clip-path="url(#127)"></g><g clip-path="url(#128)"></g><g clip-path="url(#129)"></g><g clip-path="url(#130)"></g><path id="1954" transform="matrix(1 0 0 -1 0 841)" d="M48.2061 210.5363L526.8498 210.5363L526.8498 210.5363L526.8498 222.354L526.8498 222.354L48.2061 222.354z" stroke="none" fill="#FFFFFF" fill-rule="evenodd" /><g clip-path="url(#131)"></g><g clip-path="url(#132)"></g><g clip-path="url(#133)"></g><path id="1996" transform="matrix(1 0 0 -1 0 841)" d="M66.56322 195.9394L526.844 195.9394L526.844 195.9394L526.844 207.7337L526.844 207.7337L66.56322 207.7337z" stroke="none" fill="#FFFFFF" fill-rule="evenodd" /><g clip-path="url(#134)"></g><g clip-path="url(#135)"></g><g clip-path="url(#136)"></g><g clip-path="url(#137)"></g><g clip-path="url(#138)"></g><path id="2029" transform="matrix(1 0 0 -1 0 841)" d="M66.56322 181.3424L526.844 181.3424L526.844 181.3424L526.844 195.9394L526.844 195.9394L66.56322 195.9394z" stroke="none" fill="#FFFFFF" fill-rule="evenodd" /><g clip-path="url(#139)"></g><g clip-path="url(#140)"></g><g clip-path="url(#141)"></g><g clip-path="url(#142)"></g><g clip-path="url(#143)"></g><g clip-path="url(#144)"></g><g clip-path="url(#145)"></g><g clip-path="url(#146)"></g><g clip-path="url(#147)"></g><path id="2070" transform="matrix(1 0 0 -1 0 841)" d="M66.56322 166.8622L526.844 166.8622L526.844 166.8622L526.844 181.3424L526.844 181.3424L66.56322 181.3424z" stroke="none" fill="#FFFFFF" fill-rule="evenodd" /><g clip-path="url(#148)"></g><g clip-path="url(#149)"></g><g clip-path="url(#150)"></g><g clip-path="url(#151)"></g><g clip-path="url(#152)"></g><path id="2136" transform="matrix(1 0 0 -1 0 841)" d="M47.50544 141.4052L526.8498 141.4052L526.8498 141.4052L526.8498 153.1995L526.8498 153.1995L47.50544 153.1995z" stroke="none" fill="#FFFFFF" fill-rule="evenodd" /><g clip-path="url(#153)"></g><g clip-path="url(#154)"></g><g clip-path="url(#155)"></g><g clip-path="url(#156)"></g><g clip-path="url(#157)"></g><path id="2240" transform="matrix(1 0 0 -1 0 841)" d="M47.50544 122.3746L526.8498 122.3746L526.8498 122.3746L526.8498 141.409L526.8498 141.409L47.50544 141.409z" stroke="none" fill="#FFFFFF" fill-rule="evenodd" /><g clip-path="url(#158)"></g><g clip-path="url(#159)"></g></g></g></g></g></svg>