<svg xmlns="http://www.w3.org/2000/svg" xmlns:xlink="http://www.w3.org/1999/xlink" id="body_304" preserveAspectRatio="xMinYMin meet" viewBox="0 0 793 1121"><defs><clipPath id="1"><path id="" clip-rule="evenodd" transform="matrix(1 0 0 1 0 0)" d="M0 841L0 -0.8900146L0 -0.8900146L595.276 -0.8900146L595.276 -0.8900146L595.276 841L595.276 841L0 841z" /></clipPath></defs><g transform="matrix(1.333333 0 0 1.333333 0 0)"><g clip-path="url(#1)"><path id="23" transform="matrix(1 0 0 -1 0 841)" d="M85.039 766.564L510.236 766.564" stroke="#000000" stroke-width="0.498" fill="none" /><path id="24" transform="matrix(1 0 0 -1 0 841)" d="M85.039 756.651L492.552 756.651" stroke="#000000" stroke-width="0.398" fill="none" /><path id="25" transform="matrix(1 0 0 -1 0 841)" d="M85.239 742.903L85.239 756.452" stroke="#000000" stroke-width="0.398" fill="none" /><path id="57" transform="matrix(1 0 0 -1 0 841)" d="M492.353 742.903L492.353 756.452" stroke="#000000" stroke-width="0.398" fill="none" /><path id="58" transform="matrix(1 0 0 -1 0 841)" d="M85.039 742.703L492.552 742.703" stroke="#000000" stroke-width="0.398" fill="none" /><path id="59" transform="matrix(1 0 0 -1 0 841)" d="M85.239 728.955L85.239 742.504" stroke="#000000" stroke-width="0.398" fill="none" /><path id="114" transform="matrix(1 0 0 -1 0 841)" d="M492.353 728.955L492.353 742.504" stroke="#000000" stroke-width="0.398" fill="none" /><path id="115" transform="matrix(1 0 0 -1 0 841)" d="M85.039 728.756L492.552 728.756" stroke="#000000" stroke-width="0.398" fill="none" /><path id="116" transform="matrix(1 0 0 -1 0 841)" d="M97.194 715.007L97.194 728.556" stroke="#000000" stroke-width="0.398" fill="none" /><path id="122" transform="matrix(1 0 0 -1 0 841)" d="M139.842 715.007L139.842 728.556" stroke="#000000" stroke-width="0.398" fill="none" /><path id="157" transform="matrix(1 0 0 -1 0 841)" d="M492.353 715.007L492.353 728.556" stroke="#000000" stroke-width="0.398" fill="none" /><path id="158" transform="matrix(1 0 0 -1 0 841)" d="M97.393 714.808L492.552 714.808" stroke="#000000" stroke-width="0.398" fill="none" /><path id="159" transform="matrix(1 0 0 -1 0 841)" d="M97.194 701.458L97.194 715.007" stroke="#000000" stroke-width="0.398" fill="none" /><path id="165" transform="matrix(1 0 0 -1 0 841)" d="M139.842 701.458L139.842 715.007" stroke="#000000" stroke-width="0.398" fill="none" /><path id="197" transform="matrix(1 0 0 -1 0 841)" d="M492.353 701.458L492.353 715.007" stroke="#000000" stroke-width="0.398" fill="none" /><path id="198" transform="matrix(1 0 0 -1 0 841)" d="M97.393 701.259L492.552 701.259" stroke="#000000" stroke-width="0.398" fill="none" /><path id="199" transform="matrix(1 0 0 -1 0 841)" d="M97.194 687.909L97.194 701.458" stroke="#000000" stroke-width="0.398" fill="none" /><path id="205" transform="matrix(1 0 0 -1 0 841)" d="M139.842 687.909L139.842 701.458" stroke="#000000" stroke-width="0.398" fill="none" /><path id="243" transform="matrix(1 0 0 -1 0 841)" d="M492.353 687.909L492.353 701.458" stroke="#000000" stroke-width="0.398" fill="none" /><path id="244" transform="matrix(1 0 0 -1 0 841)" d="M97.393 687.71L492.552 687.71" stroke="#000000" stroke-width="0.398" fill="none" /><path id="245" transform="matrix(1 0 0 -1 0 841)" d="M97.194 674.36L97.194 687.909" stroke="#000000" stroke-width="0.398" fill="none" /><path id="251" transform="matrix(1 0 0 -1 0 841)" d="M139.842 674.36L139.842 687.909" stroke="#000000" stroke-width="0.398" fill="none" /><path id="294" transform="matrix(1 0 0 -1 0 841)" d="M492.353 674.36L492.353 687.909" stroke="#000000" stroke-width="0.398" fill="none" /><path id="295" transform="matrix(1 0 0 -1 0 841)" d="M97.393 674.161L492.552 674.161" stroke="#000000" stroke-width="0.398" fill="none" /><path id="296" transform="matrix(1 0 0 -1 0 841)" d="M97.194 660.811L97.194 674.36" stroke="#000000" stroke-width="0.398" fill="none" /><path id="302" transform="matrix(1 0 0 -1 0 841)" d="M139.842 660.811L139.842 674.36" stroke="#000000" stroke-width="0.398" fill="none" /><path id="335" transform="matrix(1 0 0 -1 0 841)" d="M492.353 660.811L492.353 674.36" stroke="#000000" stroke-width="0.398" fill="none" /><path id="336" transform="matrix(1 0 0 -1 0 841)" d="M97.393 660.611L492.552 660.611" stroke="#000000" stroke-width="0.398" fill="none" /><path id="337" transform="matrix(1 0 0 -1 0 841)" d="M97.194 647.261L97.194 660.81" stroke="#000000" stroke-width="0.398" fill="none" /><path id="343" transform="matrix(1 0 0 -1 0 841)" d="M139.842 647.261L139.842 660.81" stroke="#000000" stroke-width="0.398" fill="none" /><path id="383" transform="matrix(1 0 0 -1 0 841)" d="M492.353 647.261L492.353 660.81" stroke="#000000" stroke-width="0.398" fill="none" /><path id="384" transform="matrix(1 0 0 -1 0 841)" d="M97.393 647.062L492.552 647.062" stroke="#000000" stroke-width="0.398" fill="none" /><path id="385" transform="matrix(1 0 0 -1 0 841)" d="M97.194 633.712L97.194 647.261" stroke="#000000" stroke-width="0.398" fill="none" /><path id="391" transform="matrix(1 0 0 -1 0 841)" d="M139.842 633.712L139.842 647.261" stroke="#000000" stroke-width="0.398" fill="none" /><path id="430" transform="matrix(1 0 0 -1 0 841)" d="M492.353 633.712L492.353 647.261" stroke="#000000" stroke-width="0.398" fill="none" /><path id="431" transform="matrix(1 0 0 -1 0 841)" d="M97.393 633.513L492.552 633.513" stroke="#000000" stroke-width="0.398" fill="none" /><path id="432" transform="matrix(1 0 0 -1 0 841)" d="M97.194 620.163L97.194 633.712" stroke="#000000" stroke-width="0.398" fill="none" /><path id="438" transform="matrix(1 0 0 -1 0 841)" d="M139.842 620.163L139.842 633.712" stroke="#000000" stroke-width="0.398" fill="none" /><path id="477" transform="matrix(1 0 0 -1 0 841)" d="M492.353 620.163L492.353 633.712" stroke="#000000" stroke-width="0.398" fill="none" /><path id="478" transform="matrix(1 0 0 -1 0 841)" d="M85.039 619.964L492.552 619.964" stroke="#000000" stroke-width="0.398" fill="none" /><path id="479" transform="matrix(1 0 0 -1 0 841)" d="M85.239 606.215L85.239 619.764" stroke="#000000" stroke-width="0.398" fill="none" /><path id="514" transform="matrix(1 0 0 -1 0 841)" d="M492.353 606.215L492.353 619.764" stroke="#000000" stroke-width="0.398" fill="none" /><path id="515" transform="matrix(1 0 0 -1 0 841)" d="M85.039 606.016L492.552 606.016" stroke="#000000" stroke-width="0.398" fill="none" /><path id="516" transform="matrix(1 0 0 -1 0 841)" d="M97.194 592.268L97.194 605.817" stroke="#000000" stroke-width="0.398" fill="none" /><path id="522" transform="matrix(1 0 0 -1 0 841)" d="M139.842 592.268L139.842 605.817" stroke="#000000" stroke-width="0.398" fill="none" /><path id="565" transform="matrix(1 0 0 -1 0 841)" d="M492.353 592.268L492.353 605.817" stroke="#000000" stroke-width="0.398" fill="none" /><path id="566" transform="matrix(1 0 0 -1 0 841)" d="M97.393 592.068L492.552 592.068" stroke="#000000" stroke-width="0.398" fill="none" /><path id="567" transform="matrix(1 0 0 -1 0 841)" d="M97.194 578.719L97.194 592.268" stroke="#000000" stroke-width="0.398" fill="none" /><path id="573" transform="matrix(1 0 0 -1 0 841)" d="M139.842 578.719L139.842 592.268" stroke="#000000" stroke-width="0.398" fill="none" /><path id="626" transform="matrix(1 0 0 -1 0 841)" d="M492.353 578.719L492.353 592.268" stroke="#000000" stroke-width="0.398" fill="none" /><path id="627" transform="matrix(1 0 0 -1 0 841)" d="M97.393 578.519L492.552 578.519" stroke="#000000" stroke-width="0.398" fill="none" /><path id="628" transform="matrix(1 0 0 -1 0 841)" d="M97.194 565.169L97.194 578.718" stroke="#000000" stroke-width="0.398" fill="none" /><path id="634" transform="matrix(1 0 0 -1 0 841)" d="M139.842 565.169L139.842 578.718" stroke="#000000" stroke-width="0.398" fill="none" /><path id="669" transform="matrix(1 0 0 -1 0 841)" d="M492.353 565.169L492.353 578.718" stroke="#000000" stroke-width="0.398" fill="none" /><path id="670" transform="matrix(1 0 0 -1 0 841)" d="M97.393 564.97L492.552 564.97" stroke="#000000" stroke-width="0.398" fill="none" /><path id="671" transform="matrix(1 0 0 -1 0 841)" d="M97.194 551.62L97.194 565.169" stroke="#000000" stroke-width="0.398" fill="none" /><path id="677" transform="matrix(1 0 0 -1 0 841)" d="M139.842 551.62L139.842 565.169" stroke="#000000" stroke-width="0.398" fill="none" /><path id="737" transform="matrix(1 0 0 -1 0 841)" d="M492.353 551.62L492.353 565.169" stroke="#000000" stroke-width="0.398" fill="none" /><path id="738" transform="matrix(1 0 0 -1 0 841)" d="M97.393 551.421L492.552 551.421" stroke="#000000" stroke-width="0.398" fill="none" /><path id="739" transform="matrix(1 0 0 -1 0 841)" d="M97.194 538.071L97.194 551.62" stroke="#000000" stroke-width="0.398" fill="none" /><path id="745" transform="matrix(1 0 0 -1 0 841)" d="M139.842 538.071L139.842 551.62" stroke="#000000" stroke-width="0.398" fill="none" /><path id="790" transform="matrix(1 0 0 -1 0 841)" d="M492.353 538.071L492.353 551.62" stroke="#000000" stroke-width="0.398" fill="none" /><path id="791" transform="matrix(1 0 0 -1 0 841)" d="M97.393 537.872L492.552 537.872" stroke="#000000" stroke-width="0.398" fill="none" /><path id="792" transform="matrix(1 0 0 -1 0 841)" d="M97.194 524.522L97.194 538.071" stroke="#000000" stroke-width="0.398" fill="none" /><path id="798" transform="matrix(1 0 0 -1 0 841)" d="M139.842 524.522L139.842 538.071" stroke="#000000" stroke-width="0.398" fill="none" /><path id="850" transform="matrix(1 0 0 -1 0 841)" d="M492.353 524.522L492.353 538.071" stroke="#000000" stroke-width="0.398" fill="none" /><path id="851" transform="matrix(1 0 0 -1 0 841)" d="M97.393 524.323L492.552 524.323" stroke="#000000" stroke-width="0.398" fill="none" /><path id="852" transform="matrix(1 0 0 -1 0 841)" d="M97.194 510.973L97.194 524.522" stroke="#000000" stroke-width="0.398" fill="none" /><path id="858" transform="matrix(1 0 0 -1 0 841)" d="M139.842 510.973L139.842 524.522" stroke="#000000" stroke-width="0.398" fill="none" /><path id="918" transform="matrix(1 0 0 -1 0 841)" d="M492.353 510.973L492.353 524.522" stroke="#000000" stroke-width="0.398" fill="none" /><path id="919" transform="matrix(1 0 0 -1 0 841)" d="M97.393 510.773L492.552 510.773" stroke="#000000" stroke-width="0.398" fill="none" /><path id="920" transform="matrix(1 0 0 -1 0 841)" d="M97.194 497.423L97.194 510.972" stroke="#000000" stroke-width="0.398" fill="none" /><path id="926" transform="matrix(1 0 0 -1 0 841)" d="M139.842 497.423L139.842 510.972" stroke="#000000" stroke-width="0.398" fill="none" /><path id="960" transform="matrix(1 0 0 -1 0 841)" d="M492.353 497.423L492.353 510.972" stroke="#000000" stroke-width="0.398" fill="none" /><path id="961" transform="matrix(1 0 0 -1 0 841)" d="M97.393 497.224L492.552 497.224" stroke="#000000" stroke-width="0.398" fill="none" /><path id="962" transform="matrix(1 0 0 -1 0 841)" d="M97.194 483.874L97.194 497.423" stroke="#000000" stroke-width="0.398" fill="none" /><path id="968" transform="matrix(1 0 0 -1 0 841)" d="M139.842 483.874L139.842 497.423" stroke="#000000" stroke-width="0.398" fill="none" /><path id="1017" transform="matrix(1 0 0 -1 0 841)" d="M492.353 483.874L492.353 497.423" stroke="#000000" stroke-width="0.398" fill="none" /><path id="1018" transform="matrix(1 0 0 -1 0 841)" d="M97.393 483.675L492.552 483.675" stroke="#000000" stroke-width="0.398" fill="none" /><path id="1019" transform="matrix(1 0 0 -1 0 841)" d="M97.194 470.325L97.194 483.874" stroke="#000000" stroke-width="0.398" fill="none" /><path id="1025" transform="matrix(1 0 0 -1 0 841)" d="M139.842 470.325L139.842 483.874" stroke="#000000" stroke-width="0.398" fill="none" /><path id="1077" transform="matrix(1 0 0 -1 0 841)" d="M492.353 470.325L492.353 483.874" stroke="#000000" stroke-width="0.398" fill="none" /><path id="1078" transform="matrix(1 0 0 -1 0 841)" d="M97.393 470.126L492.552 470.126" stroke="#000000" stroke-width="0.398" fill="none" /><path id="1079" transform="matrix(1 0 0 -1 0 841)" d="M97.194 456.776L97.194 470.325" stroke="#000000" stroke-width="0.398" fill="none" /><path id="1085" transform="matrix(1 0 0 -1 0 841)" d="M139.842 456.776L139.842 470.325" stroke="#000000" stroke-width="0.398" fill="none" /><path id="1149" transform="matrix(1 0 0 -1 0 841)" d="M492.353 456.776L492.353 470.325" stroke="#000000" stroke-width="0.398" fill="none" /><path id="1150" transform="matrix(1 0 0 -1 0 841)" d="M97.393 456.577L492.552 456.577" stroke="#000000" stroke-width="0.398" fill="none" /><path id="1151" transform="matrix(1 0 0 -1 0 841)" d="M97.194 443.227L97.194 456.776" stroke="#000000" stroke-width="0.398" fill="none" /><path id="1157" transform="matrix(1 0 0 -1 0 841)" d="M139.842 443.227L139.842 456.776" stroke="#000000" stroke-width="0.398" fill="none" /><path id="1216" transform="matrix(1 0 0 -1 0 841)" d="M492.353 443.227L492.353 456.776" stroke="#000000" stroke-width="0.398" fill="none" /><path id="1217" transform="matrix(1 0 0 -1 0 841)" d="M97.393 443.027L492.552 443.027" stroke="#000000" stroke-width="0.398" fill="none" /><path id="1218" transform="matrix(1 0 0 -1 0 841)" d="M97.194 429.678L97.194 443.227" stroke="#000000" stroke-width="0.398" fill="none" /><path id="1224" transform="matrix(1 0 0 -1 0 841)" d="M139.842 429.678L139.842 443.227" stroke="#000000" stroke-width="0.398" fill="none" /><path id="1261" transform="matrix(1 0 0 -1 0 841)" d="M492.353 429.678L492.353 443.227" stroke="#000000" stroke-width="0.398" fill="none" /><path id="1262" transform="matrix(1 0 0 -1 0 841)" d="M97.393 429.478L492.552 429.478" stroke="#000000" stroke-width="0.398" fill="none" /><path id="1263" transform="matrix(1 0 0 -1 0 841)" d="M97.194 416.128L97.194 429.677" stroke="#000000" stroke-width="0.398" fill="none" /><path id="1269" transform="matrix(1 0 0 -1 0 841)" d="M139.842 416.128L139.842 429.677" stroke="#000000" stroke-width="0.398" fill="none" /><path id="1303" transform="matrix(1 0 0 -1 0 841)" d="M492.353 416.128L492.353 429.677" stroke="#000000" stroke-width="0.398" fill="none" /><path id="1304" transform="matrix(1 0 0 -1 0 841)" d="M97.393 415.929L492.552 415.929" stroke="#000000" stroke-width="0.398" fill="none" /><path id="1305" transform="matrix(1 0 0 -1 0 841)" d="M97.194 402.579L97.194 416.128" stroke="#000000" stroke-width="0.398" fill="none" /><path id="1311" transform="matrix(1 0 0 -1 0 841)" d="M139.842 402.579L139.842 416.128" stroke="#000000" stroke-width="0.398" fill="none" /><path id="1351" transform="matrix(1 0 0 -1 0 841)" d="M492.353 402.579L492.353 416.128" stroke="#000000" stroke-width="0.398" fill="none" /><path id="1352" transform="matrix(1 0 0 -1 0 841)" d="M97.393 402.38L492.552 402.38" stroke="#000000" stroke-width="0.398" fill="none" /><path id="1353" transform="matrix(1 0 0 -1 0 841)" d="M97.194 389.03L97.194 402.579" stroke="#000000" stroke-width="0.398" fill="none" /><path id="1359" transform="matrix(1 0 0 -1 0 841)" d="M139.842 389.03L139.842 402.579" stroke="#000000" stroke-width="0.398" fill="none" /><path id="1385" transform="matrix(1 0 0 -1 0 841)" d="M492.353 389.03L492.353 402.579" stroke="#000000" stroke-width="0.398" fill="none" /><path id="1386" transform="matrix(1 0 0 -1 0 841)" d="M97.393 388.831L492.552 388.831" stroke="#000000" stroke-width="0.398" fill="none" /><path id="1387" transform="matrix(1 0 0 -1 0 841)" d="M97.194 375.481L97.194 389.03" stroke="#000000" stroke-width="0.398" fill="none" /><path id="1393" transform="matrix(1 0 0 -1 0 841)" d="M139.842 375.481L139.842 389.03" stroke="#000000" stroke-width="0.398" fill="none" /><path id="1438" transform="matrix(1 0 0 -1 0 841)" d="M492.353 375.481L492.353 389.03" stroke="#000000" stroke-width="0.398" fill="none" /><path id="1439" transform="matrix(1 0 0 -1 0 841)" d="M97.393 375.282L492.552 375.282" stroke="#000000" stroke-width="0.398" fill="none" /><path id="1440" transform="matrix(1 0 0 -1 0 841)" d="M97.194 361.932L97.194 375.481" stroke="#000000" stroke-width="0.398" fill="none" /><path id="1446" transform="matrix(1 0 0 -1 0 841)" d="M139.842 361.932L139.842 375.481" stroke="#000000" stroke-width="0.398" fill="none" /><path id="1481" transform="matrix(1 0 0 -1 0 841)" d="M492.353 361.932L492.353 375.481" stroke="#000000" stroke-width="0.398" fill="none" /><path id="1482" transform="matrix(1 0 0 -1 0 841)" d="M97.393 361.732L492.552 361.732" stroke="#000000" stroke-width="0.398" fill="none" /><path id="1483" transform="matrix(1 0 0 -1 0 841)" d="M97.194 348.382L97.194 361.931" stroke="#000000" stroke-width="0.398" fill="none" /><path id="1489" transform="matrix(1 0 0 -1 0 841)" d="M139.842 348.382L139.842 361.931" stroke="#000000" stroke-width="0.398" fill="none" /><path id="1522" transform="matrix(1 0 0 -1 0 841)" d="M492.353 348.382L492.353 361.931" stroke="#000000" stroke-width="0.398" fill="none" /><path id="1523" transform="matrix(1 0 0 -1 0 841)" d="M97.393 348.183L492.552 348.183" stroke="#000000" stroke-width="0.398" fill="none" /><path id="1524" transform="matrix(1 0 0 -1 0 841)" d="M97.194 334.833L97.194 348.382" stroke="#000000" stroke-width="0.398" fill="none" /><path id="1530" transform="matrix(1 0 0 -1 0 841)" d="M139.842 334.833L139.842 348.382" stroke="#000000" stroke-width="0.398" fill="none" /><path id="1565" transform="matrix(1 0 0 -1 0 841)" d="M492.353 334.833L492.353 348.382" stroke="#000000" stroke-width="0.398" fill="none" /><path id="1566" transform="matrix(1 0 0 -1 0 841)" d="M97.393 334.634L492.552 334.634" stroke="#000000" stroke-width="0.398" fill="none" /><path id="1567" transform="matrix(1 0 0 -1 0 841)" d="M97.194 321.284L97.194 334.833" stroke="#000000" stroke-width="0.398" fill="none" /><path id="1573" transform="matrix(1 0 0 -1 0 841)" d="M139.842 321.284L139.842 334.833" stroke="#000000" stroke-width="0.398" fill="none" /><path id="1634" transform="matrix(1 0 0 -1 0 841)" d="M492.353 321.284L492.353 334.833" stroke="#000000" stroke-width="0.398" fill="none" /><path id="1635" transform="matrix(1 0 0 -1 0 841)" d="M97.393 321.085L492.552 321.085" stroke="#000000" stroke-width="0.398" fill="none" /><path id="1636" transform="matrix(1 0 0 -1 0 841)" d="M97.194 307.735L97.194 321.284" stroke="#000000" stroke-width="0.398" fill="none" /><path id="1642" transform="matrix(1 0 0 -1 0 841)" d="M139.842 307.735L139.842 321.284" stroke="#000000" stroke-width="0.398" fill="none" /><path id="1694" transform="matrix(1 0 0 -1 0 841)" d="M492.353 307.735L492.353 321.284" stroke="#000000" stroke-width="0.398" fill="none" /><path id="1695" transform="matrix(1 0 0 -1 0 841)" d="M97.393 307.536L492.552 307.536" stroke="#000000" stroke-width="0.398" fill="none" /></g></g></svg>