<svg xmlns="http://www.w3.org/2000/svg" xmlns:xlink="http://www.w3.org/1999/xlink" id="body_264" preserveAspectRatio="xMinYMin meet" viewBox="0 0 793 1121"><defs><clipPath id="1"><path id="" clip-rule="evenodd" transform="matrix(1 0 0 1 0 0)" d="M0 841L0 -0.8900146L0 -0.8900146L595.276 -0.8900146L595.276 -0.8900146L595.276 841L595.276 841L0 841z" /></clipPath></defs><g transform="matrix(1.333333 0 0 1.333333 0 0)"><g clip-path="url(#1)"><path id="22" transform="matrix(1 0 0 -1 0 841)" d="M85.039 766.564L510.236 766.564" stroke="#000000" stroke-width="0.498" fill="none" /><path id="470" transform="matrix(1 0 0 -1 0 841)" d="M196.108 511.742L242.757 511.742" stroke="#000000" stroke-width="0.436" fill="none" /><path id="583" transform="matrix(1 0 0 -1 0 841)" d="M286.421 466.223L299.752 466.223" stroke="#000000" stroke-width="0.436" fill="none" /><path id="615" transform="matrix(1 0 0 -1 0 841)" d="M289.716 445.498L303.047 445.498" stroke="#000000" stroke-width="0.436" fill="none" /><path id="646" transform="matrix(1 0 0 -1 0 841)" d="M285.482 424.773L298.813 424.773" stroke="#000000" stroke-width="0.436" fill="none" /><path id="679" transform="matrix(1 0 0 -1 0 841)" d="M297.33 404.048L310.661 404.048" stroke="#000000" stroke-width="0.436" fill="none" /><path id="710" transform="matrix(1 0 0 -1 0 841)" d="M286.694 383.323L300.025 383.323" stroke="#000000" stroke-width="0.436" fill="none" /><path id="745" transform="matrix(1 0 0 -1 0 841)" d="M305.807 362.598L319.138 362.598" stroke="#000000" stroke-width="0.436" fill="none" /></g></g></svg>