<svg xmlns="http://www.w3.org/2000/svg" xmlns:xlink="http://www.w3.org/1999/xlink" id="body_289" preserveAspectRatio="xMinYMin meet" viewBox="0 0 793 1121"><defs><clipPath id="1"><path id="" clip-rule="evenodd" transform="matrix(1 0 0 1 0 0)" d="M0 841L0 -0.8900146L0 -0.8900146L595.276 -0.8900146L595.276 -0.8900146L595.276 841L595.276 841L0 841z" /></clipPath></defs><g transform="matrix(1.333333 0 0 1.333333 0 0)"><g clip-path="url(#1)"><path id="19" transform="matrix(1 0 0 -1 0 841)" d="M85.039 766.564L510.236 766.564" stroke="#000000" stroke-width="0.498" fill="none" /><path id="280" transform="matrix(1 0 0 -1 0 841)" d="M451.548 643.96L467.911 643.96" stroke="#000000" stroke-width="0.436" fill="none" /><path id="287" transform="matrix(1 0 0 -1 0 841)" d="M478.758 643.96L498.154 643.96" stroke="#000000" stroke-width="0.436" fill="none" /><path id="299" transform="matrix(1 0 0 -1 0 841)" d="M137.508 618.683L168.118 618.683" stroke="#000000" stroke-width="0.436" fill="none" /><path id="335" transform="matrix(1 0 0 -1 0 841)" d="M292.992 585.409L323.602 585.409" stroke="#000000" stroke-width="0.436" fill="none" /><path id="351" transform="matrix(1 0 0 -1 0 841)" d="M334.878 585.409L368.761 585.409" stroke="#000000" stroke-width="0.436" fill="none" /><path id="360" transform="matrix(1 0 0 -1 0 841)" d="M380.037 585.409L441.184 585.409" stroke="#000000" stroke-width="0.436" fill="none" /><path id="385" transform="matrix(1 0 0 -1 0 841)" d="M452.46 585.409L490.642 585.409" stroke="#000000" stroke-width="0.436" fill="none" /><path id="397" transform="matrix(1 0 0 -1 0 841)" d="M136.312 568.786L187.748 568.786" stroke="#000000" stroke-width="0.398" fill="none" /><path id="398" transform="matrix(1 0 0 -1 0 841)" d="M136.511 554.773L136.511 568.785" stroke="#000000" stroke-width="0.398" fill="none" /><path id="399" transform="matrix(1 0 0 -1 0 841)" d="M187.549 554.773L187.549 568.785" stroke="#000000" stroke-width="0.398" fill="none" /><path id="400" transform="matrix(1 0 0 -1 0 841)" d="M136.312 554.773L187.748 554.773" stroke="#000000" stroke-width="0.398" fill="none" /><path id="493" transform="matrix(1 0 0 -1 0 841)" d="M216.593 514.345L291.408 514.345" stroke="#000000" stroke-width="0.436" fill="none" /><path id="594" transform="matrix(1 0 0 -1 0 841)" d="M242.628 462.406L260.028 462.406" stroke="#000000" stroke-width="0.436" fill="none" /><path id="613" transform="matrix(1 0 0 -1 0 841)" d="M323.007 462.406L340.407 462.406" stroke="#000000" stroke-width="0.436" fill="none" /><path id="618" transform="matrix(1 0 0 -1 0 841)" d="M216.593 448.442L341.603 448.442" stroke="#000000" stroke-width="0.436" fill="none" /><path id="626" transform="matrix(1 0 0 -1 0 841)" d="M281.825 435.178L298.188 435.178" stroke="#000000" stroke-width="0.436" fill="none" /><path id="641" transform="matrix(1 0 0 -1 0 841)" d="M356.123 456.354L414.008 456.354" stroke="#000000" stroke-width="0.398" fill="none" /><path id="642" transform="matrix(1 0 0 -1 0 841)" d="M356.322 440.302L356.322 456.354" stroke="#000000" stroke-width="0.398" fill="none" /><path id="643" transform="matrix(1 0 0 -1 0 841)" d="M413.808 440.302L413.808 456.354" stroke="#000000" stroke-width="0.398" fill="none" /><path id="644" transform="matrix(1 0 0 -1 0 841)" d="M356.123 440.302L414.008 440.302" stroke="#000000" stroke-width="0.398" fill="none" /><path id="773" transform="matrix(1 0 0 -1 0 841)" d="M231.842 367.041L334.244 367.041" stroke="#000000" stroke-width="0.436" fill="none" /><path id="827" transform="matrix(1 0 0 -1 0 841)" d="M278.074 331.763L359.084 331.763" stroke="#000000" stroke-width="0.436" fill="none" /><path id="880" transform="matrix(1 0 0 -1 0 841)" d="M317.102 295.841L383.704 295.841" stroke="#000000" stroke-width="0.436" fill="none" /><path id="889" transform="matrix(1 0 0 -1 0 841)" d="M395.252 295.841L441.256 295.841" stroke="#000000" stroke-width="0.436" fill="none" /><path id="905" transform="matrix(1 0 0 -1 0 841)" d="M469.168 295.841L485.531 295.841" stroke="#000000" stroke-width="0.436" fill="none" /><path id="918" transform="matrix(1 0 0 -1 0 841)" d="M136.312 282.067L178.988 282.067" stroke="#000000" stroke-width="0.398" fill="none" /><path id="919" transform="matrix(1 0 0 -1 0 841)" d="M136.511 268.011L136.511 282.067" stroke="#000000" stroke-width="0.398" fill="none" /><path id="920" transform="matrix(1 0 0 -1 0 841)" d="M178.789 268.011L178.789 282.067" stroke="#000000" stroke-width="0.398" fill="none" /><path id="921" transform="matrix(1 0 0 -1 0 841)" d="M136.312 268.011L178.988 268.011" stroke="#000000" stroke-width="0.398" fill="none" /><path id="1129" transform="matrix(1 0 0 -1 0 841)" d="M320.887 196.509L418.86 196.509" stroke="#000000" stroke-width="0.436" fill="none" /></g></g></svg>