<svg xmlns="http://www.w3.org/2000/svg" xmlns:xlink="http://www.w3.org/1999/xlink" id="body_301" preserveAspectRatio="xMinYMin meet" viewBox="0 0 793 1121"><defs><clipPath id="1"><path id="" clip-rule="evenodd" transform="matrix(1 0 0 1 0 0)" d="M0 841L0 -0.8900146L0 -0.8900146L595.276 -0.8900146L595.276 -0.8900146L595.276 841L595.276 841L0 841z" /></clipPath></defs><g transform="matrix(1.333333 0 0 1.333333 0 0)"><g clip-path="url(#1)"><path id="23" transform="matrix(1 0 0 -1 0 841)" d="M85.039 766.564L510.236 766.564" stroke="#000000" stroke-width="0.498" fill="none" /><path id="368" transform="matrix(1 0 0 -1 0 841)" d="M166.53 631.017L220.017 631.017" stroke="#000000" stroke-width="0.436" fill="none" /><path id="384" transform="matrix(1 0 0 -1 0 841)" d="M235.732 631.017L271.492 631.017" stroke="#000000" stroke-width="0.436" fill="none" /><path id="509" transform="matrix(1 0 0 -1 0 841)" d="M163.802 563.199L217.289 563.199" stroke="#000000" stroke-width="0.436" fill="none" /><path id="535" transform="matrix(1 0 0 -1 0 841)" d="M302.694 563.199L356.181 563.199" stroke="#000000" stroke-width="0.436" fill="none" /><path id="558" transform="matrix(1 0 0 -1 0 841)" d="M449.921 563.199L466.285 563.199" stroke="#000000" stroke-width="0.436" fill="none" /><path id="566" transform="matrix(1 0 0 -1 0 841)" d="M480.804 571.111L505.153 571.111" stroke="#000000" stroke-width="0.398" fill="none" /><path id="567" transform="matrix(1 0 0 -1 0 841)" d="M481.004 557.115L481.004 571.111" stroke="#000000" stroke-width="0.398" fill="none" /><path id="568" transform="matrix(1 0 0 -1 0 841)" d="M504.954 557.115L504.954 571.111" stroke="#000000" stroke-width="0.398" fill="none" /><path id="569" transform="matrix(1 0 0 -1 0 841)" d="M480.804 557.115L505.153 557.115" stroke="#000000" stroke-width="0.398" fill="none" /><path id="804" transform="matrix(1 0 0 -1 0 841)" d="M163.802 477.259L217.289 477.259" stroke="#000000" stroke-width="0.436" fill="none" /><path id="820" transform="matrix(1 0 0 -1 0 841)" d="M233.005 477.259L268.765 477.259" stroke="#000000" stroke-width="0.436" fill="none" /><path id="831" transform="matrix(1 0 0 -1 0 841)" d="M85.039 84.20998L85.039 439.4435C 85.039 441.7918 86.94264 443.6955 89.29099 443.6955L89.29099 443.6955L505.9893 443.6955C 508.3377 443.6955 510.2413 441.7918 510.2413 439.4435L510.2413 439.4435L510.2413 84.20998C 510.2413 81.86164 508.3377 79.958 505.9893 79.958L505.9893 79.958L89.29099 79.958C 86.94264 79.958 85.039 81.86164 85.039 84.20998z" stroke="none" fill="#BFBFFF" fill-rule="nonzero" /><path id="832" transform="matrix(1 0 0 -1 0 841)" d="M86.45631 84.20998L86.45631 427.6861L86.45631 427.6861L508.824 427.6861L508.824 427.6861L508.824 84.20998C 508.824 82.64443 507.5549 81.37531 505.9893 81.37531L505.9893 81.37531L89.29099 81.37531C 87.72543 81.37531 86.45631 82.64443 86.45631 84.20998z" stroke="none" fill="#E6E6FF" fill-rule="nonzero" /></g></g></svg>