<svg xmlns="http://www.w3.org/2000/svg" xmlns:xlink="http://www.w3.org/1999/xlink" id="body_267" preserveAspectRatio="xMinYMin meet" viewBox="0 0 793 1121"><defs><clipPath id="1"><path id="" clip-rule="evenodd" transform="matrix(1 0 0 1 0 0)" d="M0 841L0 -0.8900146L0 -0.8900146L595.276 -0.8900146L595.276 -0.8900146L595.276 841L595.276 841L0 841z" /></clipPath></defs><g transform="matrix(1.333333 0 0 1.333333 0 0)"><g clip-path="url(#1)"><path id="26" transform="matrix(1 0 0 -1 0 841)" d="M85.039 766.564L510.236 766.564" stroke="#000000" stroke-width="0.498" fill="none" /><path id="170" transform="matrix(1 0 0 -1 0 841)" d="M180.323 707.759L269.973 707.759" stroke="#000000" stroke-width="0.436" fill="none" /><path id="340" transform="matrix(1 0 0 -1 0 841)" d="M137.508 649.963L221.704 649.963" stroke="#000000" stroke-width="0.436" fill="none" /><path id="345" transform="matrix(1 0 0 -1 0 841)" d="M237.337 649.963L274.122 649.963" stroke="#000000" stroke-width="0.436" fill="none" /><path id="476" transform="matrix(1 0 0 -1 0 841)" d="M421.458 610.42L454.783 610.42" stroke="#000000" stroke-width="0.436" fill="none" /><path id="1058" transform="matrix(1 0 0 -1 0 841)" d="M203.084 391.976L219.404 391.976" stroke="#000000" stroke-width="0.436" fill="none" /><path id="1079" transform="matrix(1 0 0 -1 0 841)" d="M305.384 391.976L318.715 391.976" stroke="#000000" stroke-width="0.436" fill="none" /></g></g></svg>