<svg xmlns="http://www.w3.org/2000/svg" xmlns:xlink="http://www.w3.org/1999/xlink" id="body_263" preserveAspectRatio="xMinYMin meet" viewBox="0 0 793 1121"><defs><clipPath id="1"><path id="" clip-rule="evenodd" transform="matrix(1 0 0 1 0 0)" d="M0 841L0 -0.8900146L0 -0.8900146L595.276 -0.8900146L595.276 -0.8900146L595.276 841L595.276 841L0 841z" /></clipPath></defs><g transform="matrix(1.333333 0 0 1.333333 0 0)"><g clip-path="url(#1)"><path id="23" transform="matrix(1 0 0 -1 0 841)" d="M85.039 766.564L510.236 766.564" stroke="#000000" stroke-width="0.498" fill="none" /><path id="350" transform="matrix(1 0 0 -1 0 841)" d="M148.495 596.878L411.924 596.878" stroke="#000000" stroke-width="0.398" fill="none" /><path id="385" transform="matrix(1 0 0 -1 0 841)" d="M170.542 564.644L256.19 564.644" stroke="#000000" stroke-width="0.398" fill="none" /><path id="549" transform="matrix(1 0 0 -1 0 841)" d="M326.479 516.129L387.346 516.129" stroke="#000000" stroke-width="0.398" fill="none" /><path id="577" transform="matrix(1 0 0 -1 0 841)" d="M429.867 524.244L510.236 524.244" stroke="#000000" stroke-width="0.398" fill="none" /><path id="578" transform="matrix(1 0 0 -1 0 841)" d="M430.067 507.96L430.067 524.244" stroke="#000000" stroke-width="0.398" fill="none" /><path id="579" transform="matrix(1 0 0 -1 0 841)" d="M510.037 507.96L510.037 524.244" stroke="#000000" stroke-width="0.398" fill="none" /><path id="580" transform="matrix(1 0 0 -1 0 841)" d="M429.867 507.96L510.236 507.96" stroke="#000000" stroke-width="0.398" fill="none" /></g></g></svg>