<svg xmlns="http://www.w3.org/2000/svg" xmlns:xlink="http://www.w3.org/1999/xlink" id="body_197" preserveAspectRatio="xMinYMin meet" viewBox="0 0 793 1121"><defs><clipPath id="1"><path id="" clip-rule="evenodd" transform="matrix(1 0 0 1 0 0)" d="M0 841L0 -0.8900146L0 -0.8900146L595.276 -0.8900146L595.276 -0.8900146L595.276 841L595.276 841L0 841z" /></clipPath></defs><g transform="matrix(1.333333 0 0 1.333333 0 0)"><g clip-path="url(#1)"><path id="35" transform="matrix(1 0 0 -1 0 841)" d="M85.039 766.564L510.236 766.564" stroke="#000000" stroke-width="0.498" fill="none" /><g transform="matrix(0.1309091 0 0 0.1309091 110.109 84.15137)"><g transform="matrix(1 0 0 1 0 0)"><image x="0" y="0" xlink:href="img_335.png" width="2865" height="2006" /></g></g><g transform="matrix(0.1309091 0 0 0.1309091 189.048 347.7525)"><g transform="matrix(1 0 0 1 0 0)"><image x="0" y="0" xlink:href="img_336.png" width="1659" height="808" /></g></g><g transform="matrix(0.08999999 0 0 0.09 162.239 517.399)"><g transform="matrix(1 0 0 1 0 0)"><image x="0" y="0" xlink:href="img_337.png" width="3009" height="713" /></g></g><path id="407" transform="matrix(1 0 0 -1 0 841)" d="M187.923 116.9L434.625 116.9" stroke="#000000" stroke-width="0.398" fill="none" /></g></g></svg>