<svg xmlns="http://www.w3.org/2000/svg" xmlns:xlink="http://www.w3.org/1999/xlink" id="body_11" preserveAspectRatio="xMinYMin meet" viewBox="0 0 793 1121"><defs><clipPath id="1"><path id="" clip-rule="evenodd" transform="matrix(1 0 0 1 0 0)" d="M0 841L0 -0.8900146L0 -0.8900146L595.276 -0.8900146L595.276 -0.8900146L595.276 841L595.276 841L0 841z" /></clipPath></defs><g transform="matrix(1.333333 0 0 1.333333 0 0)"><g clip-path="url(#1)"><path id="45" transform="matrix(1 0 0 -1 0 841)" d="M85.039 766.564L510.236 766.564" stroke="#000000" stroke-width="0.498" fill="none" /><path id="403" transform="matrix(1 0 0 -1 0 841)" d="M242.66 581.871L352.616 581.871" stroke="#000000" stroke-width="0.398" fill="none" /><path id="404" transform="matrix(1 0 0 -1 0 841)" d="M242.859 568.123L242.859 581.672" stroke="#000000" stroke-width="0.398" fill="none" /><path id="416" transform="matrix(1 0 0 -1 0 841)" d="M316.423 568.123L316.423 581.672" stroke="#000000" stroke-width="0.398" fill="none" /><path id="422" transform="matrix(1 0 0 -1 0 841)" d="M352.417 568.123L352.417 581.672" stroke="#000000" stroke-width="0.398" fill="none" /><path id="423" transform="matrix(1 0 0 -1 0 841)" d="M242.66 567.923L352.616 567.923" stroke="#000000" stroke-width="0.398" fill="none" /><path id="424" transform="matrix(1 0 0 -1 0 841)" d="M242.859 554.175L242.859 567.724" stroke="#000000" stroke-width="0.398" fill="none" /><path id="435" transform="matrix(1 0 0 -1 0 841)" d="M316.423 554.175L316.423 567.724" stroke="#000000" stroke-width="0.398" fill="none" /><path id="438" transform="matrix(1 0 0 -1 0 841)" d="M352.417 554.175L352.417 567.724" stroke="#000000" stroke-width="0.398" fill="none" /><path id="439" transform="matrix(1 0 0 -1 0 841)" d="M242.66 553.976L352.616 553.976" stroke="#000000" stroke-width="0.398" fill="none" /><path id="440" transform="matrix(1 0 0 -1 0 841)" d="M242.859 540.227L242.859 553.776" stroke="#000000" stroke-width="0.398" fill="none" /><path id="452" transform="matrix(1 0 0 -1 0 841)" d="M316.423 540.227L316.423 553.776" stroke="#000000" stroke-width="0.398" fill="none" /><path id="455" transform="matrix(1 0 0 -1 0 841)" d="M352.417 540.227L352.417 553.776" stroke="#000000" stroke-width="0.398" fill="none" /><path id="456" transform="matrix(1 0 0 -1 0 841)" d="M242.66 540.028L352.616 540.028" stroke="#000000" stroke-width="0.398" fill="none" /><path id="457" transform="matrix(1 0 0 -1 0 841)" d="M242.859 526.28L242.859 539.829" stroke="#000000" stroke-width="0.398" fill="none" /><path id="469" transform="matrix(1 0 0 -1 0 841)" d="M316.423 526.28L316.423 539.829" stroke="#000000" stroke-width="0.398" fill="none" /><path id="472" transform="matrix(1 0 0 -1 0 841)" d="M352.417 526.28L352.417 539.829" stroke="#000000" stroke-width="0.398" fill="none" /><path id="473" transform="matrix(1 0 0 -1 0 841)" d="M242.66 526.08L352.616 526.08" stroke="#000000" stroke-width="0.398" fill="none" /><path id="474" transform="matrix(1 0 0 -1 0 841)" d="M242.859 512.332L242.859 525.881" stroke="#000000" stroke-width="0.398" fill="none" /><path id="486" transform="matrix(1 0 0 -1 0 841)" d="M316.423 512.332L316.423 525.881" stroke="#000000" stroke-width="0.398" fill="none" /><path id="489" transform="matrix(1 0 0 -1 0 841)" d="M352.417 512.332L352.417 525.881" stroke="#000000" stroke-width="0.398" fill="none" /><path id="490" transform="matrix(1 0 0 -1 0 841)" d="M242.66 512.133L352.616 512.133" stroke="#000000" stroke-width="0.398" fill="none" /><path id="491" transform="matrix(1 0 0 -1 0 841)" d="M242.859 498.384L242.859 511.933" stroke="#000000" stroke-width="0.398" fill="none" /><path id="500" transform="matrix(1 0 0 -1 0 841)" d="M316.423 498.384L316.423 511.933" stroke="#000000" stroke-width="0.398" fill="none" /><path id="503" transform="matrix(1 0 0 -1 0 841)" d="M352.417 498.384L352.417 511.933" stroke="#000000" stroke-width="0.398" fill="none" /><path id="504" transform="matrix(1 0 0 -1 0 841)" d="M242.66 498.185L352.616 498.185" stroke="#000000" stroke-width="0.398" fill="none" /><path id="945" transform="matrix(1 0 0 -1 0 841)" d="M128.066 336.421L467.209 336.421" stroke="#000000" stroke-width="0.398" fill="none" /><path id="946" transform="matrix(1 0 0 -1 0 841)" d="M128.266 309.123L128.266 336.221" stroke="#000000" stroke-width="0.398" fill="none" /><path id="963" transform="matrix(1 0 0 -1 0 841)" d="M204.741 309.123L204.741 336.221" stroke="#000000" stroke-width="0.398" fill="none" /><path id="998" transform="matrix(1 0 0 -1 0 841)" d="M341.783 309.123L341.783 336.221" stroke="#000000" stroke-width="0.398" fill="none" /><path id="1033" transform="matrix(1 0 0 -1 0 841)" d="M467.01 309.123L467.01 336.221" stroke="#000000" stroke-width="0.398" fill="none" /><path id="1034" transform="matrix(1 0 0 -1 0 841)" d="M128.066 308.924L467.209 308.924" stroke="#000000" stroke-width="0.398" fill="none" /><path id="1035" transform="matrix(1 0 0 -1 0 841)" d="M128.266 295.176L128.266 308.725" stroke="#000000" stroke-width="0.398" fill="none" /><path id="1038" transform="matrix(1 0 0 -1 0 841)" d="M204.741 295.176L204.741 308.725" stroke="#000000" stroke-width="0.398" fill="none" /><path id="1041" transform="matrix(1 0 0 -1 0 841)" d="M341.783 295.176L341.783 308.725" stroke="#000000" stroke-width="0.398" fill="none" /><path id="1044" transform="matrix(1 0 0 -1 0 841)" d="M467.01 295.176L467.01 308.725" stroke="#000000" stroke-width="0.398" fill="none" /><path id="1045" transform="matrix(1 0 0 -1 0 841)" d="M128.066 294.977L467.209 294.977" stroke="#000000" stroke-width="0.398" fill="none" /><path id="1046" transform="matrix(1 0 0 -1 0 841)" d="M128.266 281.228L128.266 294.777" stroke="#000000" stroke-width="0.398" fill="none" /><path id="1049" transform="matrix(1 0 0 -1 0 841)" d="M204.741 281.228L204.741 294.777" stroke="#000000" stroke-width="0.398" fill="none" /><path id="1052" transform="matrix(1 0 0 -1 0 841)" d="M341.783 281.228L341.783 294.777" stroke="#000000" stroke-width="0.398" fill="none" /><path id="1055" transform="matrix(1 0 0 -1 0 841)" d="M467.01 281.228L467.01 294.777" stroke="#000000" stroke-width="0.398" fill="none" /><path id="1056" transform="matrix(1 0 0 -1 0 841)" d="M128.066 281.029L467.209 281.029" stroke="#000000" stroke-width="0.398" fill="none" /><path id="1057" transform="matrix(1 0 0 -1 0 841)" d="M128.266 267.28L128.266 280.829" stroke="#000000" stroke-width="0.398" fill="none" /><path id="1060" transform="matrix(1 0 0 -1 0 841)" d="M204.741 267.28L204.741 280.829" stroke="#000000" stroke-width="0.398" fill="none" /><path id="1063" transform="matrix(1 0 0 -1 0 841)" d="M341.783 267.28L341.783 280.829" stroke="#000000" stroke-width="0.398" fill="none" /><path id="1066" transform="matrix(1 0 0 -1 0 841)" d="M467.01 267.28L467.01 280.829" stroke="#000000" stroke-width="0.398" fill="none" /><path id="1067" transform="matrix(1 0 0 -1 0 841)" d="M128.066 267.081L467.209 267.081" stroke="#000000" stroke-width="0.398" fill="none" /><path id="1068" transform="matrix(1 0 0 -1 0 841)" d="M128.266 253.333L128.266 266.882" stroke="#000000" stroke-width="0.398" fill="none" /><path id="1071" transform="matrix(1 0 0 -1 0 841)" d="M204.741 253.333L204.741 266.882" stroke="#000000" stroke-width="0.398" fill="none" /><path id="1074" transform="matrix(1 0 0 -1 0 841)" d="M341.783 253.333L341.783 266.882" stroke="#000000" stroke-width="0.398" fill="none" /><path id="1077" transform="matrix(1 0 0 -1 0 841)" d="M467.01 253.333L467.01 266.882" stroke="#000000" stroke-width="0.398" fill="none" /><path id="1078" transform="matrix(1 0 0 -1 0 841)" d="M128.066 253.133L467.209 253.133" stroke="#000000" stroke-width="0.398" fill="none" /><path id="1079" transform="matrix(1 0 0 -1 0 841)" d="M128.266 239.385L128.266 252.934" stroke="#000000" stroke-width="0.398" fill="none" /><path id="1082" transform="matrix(1 0 0 -1 0 841)" d="M204.741 239.385L204.741 252.934" stroke="#000000" stroke-width="0.398" fill="none" /><path id="1085" transform="matrix(1 0 0 -1 0 841)" d="M341.783 239.385L341.783 252.934" stroke="#000000" stroke-width="0.398" fill="none" /><path id="1088" transform="matrix(1 0 0 -1 0 841)" d="M467.01 239.385L467.01 252.934" stroke="#000000" stroke-width="0.398" fill="none" /><path id="1089" transform="matrix(1 0 0 -1 0 841)" d="M128.066 239.186L467.209 239.186" stroke="#000000" stroke-width="0.398" fill="none" /></g></g></svg>