<svg xmlns="http://www.w3.org/2000/svg" xmlns:xlink="http://www.w3.org/1999/xlink" id="body_325" preserveAspectRatio="xMinYMin meet" viewBox="0 0 793 1121"><defs><clipPath id="1"><path id="" clip-rule="evenodd" transform="matrix(1 0 0 1 0 0)" d="M0 841L0 -0.8900146L0 -0.8900146L595.276 -0.8900146L595.276 -0.8900146L595.276 841L595.276 841L0 841z" /></clipPath></defs><g transform="matrix(1.333333 0 0 1.333333 0 0)"><g clip-path="url(#1)"><path id="23" transform="matrix(1 0 0 -1 0 841)" d="M85.039 766.564L510.236 766.564" stroke="#000000" stroke-width="0.498" fill="none" /><path id="302" transform="matrix(1 0 0 -1 0 841)" d="M191.544 602.007L217.387 602.007" stroke="#000000" stroke-width="0.398" fill="none" /><path id="336" transform="matrix(1 0 0 -1 0 841)" d="M321.303 612.836L422.034 612.836" stroke="#000000" stroke-width="0.398" fill="none" /><path id="342" transform="matrix(1 0 0 -1 0 841)" d="M231.946 602.007L469.231 602.007" stroke="#000000" stroke-width="0.398" fill="none" /><g transform="matrix(0.375 0 0 0.375 112.312 296.689)"><g transform="matrix(1 0 0 1 0 0)"><image x="0" y="0" xlink:href="img_472.png" width="474" height="243" /></g></g><g transform="matrix(0.4875 0 0 0.4875 112.312 419.949)"><g transform="matrix(1 0 0 1 0 0)"><image x="0" y="0" xlink:href="img_473.png" width="364" height="100" /></g></g><path id="601" transform="matrix(1 0 0 -1 0 841)" d="M221.901 269.937L234.623 269.937" stroke="#000000" stroke-width="0.398" fill="none" /><path id="608" transform="matrix(1 0 0 -1 0 841)" d="M237.014 269.937L249.736 269.937" stroke="#000000" stroke-width="0.398" fill="none" /><path id="618" transform="matrix(1 0 0 -1 0 841)" d="M259.876 269.937L288.718 269.937" stroke="#000000" stroke-width="0.398" fill="none" /><path id="634" transform="matrix(1 0 0 -1 0 841)" d="M333.126 269.937L355.811 269.937" stroke="#000000" stroke-width="0.398" fill="none" /><path id="647" transform="matrix(1 0 0 -1 0 841)" d="M369.175 277.3L405.837 277.3" stroke="#000000" stroke-width="0.398" fill="none" /><path id="648" transform="matrix(1 0 0 -1 0 841)" d="M369.374 264.039L369.374 277.299" stroke="#000000" stroke-width="0.398" fill="none" /><path id="649" transform="matrix(1 0 0 -1 0 841)" d="M405.638 264.039L405.638 277.299" stroke="#000000" stroke-width="0.398" fill="none" /><path id="650" transform="matrix(1 0 0 -1 0 841)" d="M369.175 264.039L405.837 264.039" stroke="#000000" stroke-width="0.398" fill="none" /><g transform="matrix(0.2 0 0 0.2 249.239 774.845)"><g transform="matrix(1 0 0 1 0 0)"><image x="0" y="0" xlink:href="img_04.png" width="484" height="104" /></g></g></g></g></svg>