<svg xmlns="http://www.w3.org/2000/svg" xmlns:xlink="http://www.w3.org/1999/xlink" id="body_235" preserveAspectRatio="xMinYMin meet" viewBox="0 0 793 1121"><defs><clipPath id="1"><path id="" clip-rule="evenodd" transform="matrix(1 0 0 1 0 0)" d="M0 841L0 -0.8900146L0 -0.8900146L595.276 -0.8900146L595.276 -0.8900146L595.276 841L595.276 841L0 841z" /></clipPath></defs><g transform="matrix(1.333333 0 0 1.333333 0 0)"><g clip-path="url(#1)"><path id="44" transform="matrix(1 0 0 -1 0 841)" d="M85.039 766.564L510.236 766.564" stroke="#000000" stroke-width="0.498" fill="none" /><path id="190" transform="matrix(1 0 0 -1 0 841)" d="M167.07 686.848L209.672 686.848" stroke="#000000" stroke-width="0.398" fill="none" /><path id="231" transform="matrix(1 0 0 -1 0 841)" d="M305.481 694.405L382.422 694.405" stroke="#000000" stroke-width="0.398" fill="none" /><path id="232" transform="matrix(1 0 0 -1 0 841)" d="M305.68 679.237L305.68 694.405" stroke="#000000" stroke-width="0.398" fill="none" /><path id="233" transform="matrix(1 0 0 -1 0 841)" d="M382.223 679.237L382.223 694.405" stroke="#000000" stroke-width="0.398" fill="none" /><path id="234" transform="matrix(1 0 0 -1 0 841)" d="M305.481 679.237L382.422 679.237" stroke="#000000" stroke-width="0.398" fill="none" /><path id="305" transform="matrix(1 0 0 -1 0 841)" d="M176.269 638.684L254.208 638.684" stroke="#000000" stroke-width="0.398" fill="none" /><path id="529" transform="matrix(1 0 0 -1 0 841)" d="M176.71 562.291L188.884 562.291" stroke="#000000" stroke-width="0.398" fill="none" /><path id="535" transform="matrix(1 0 0 -1 0 841)" d="M203.444 562.291L290.335 562.291" stroke="#000000" stroke-width="0.398" fill="none" /><path id="564" transform="matrix(1 0 0 -1 0 841)" d="M176.71 537.494L188.884 537.494" stroke="#000000" stroke-width="0.398" fill="none" /><path id="572" transform="matrix(1 0 0 -1 0 841)" d="M203.444 537.494L261.544 537.494" stroke="#000000" stroke-width="0.398" fill="none" /><path id="592" transform="matrix(1 0 0 -1 0 841)" d="M279.49 537.494L325.419 537.494" stroke="#000000" stroke-width="0.398" fill="none" /><path id="608" transform="matrix(1 0 0 -1 0 841)" d="M274.908 551.601L408.099 551.601" stroke="#000000" stroke-width="0.398" fill="none" /><path id="609" transform="matrix(1 0 0 -1 0 841)" d="M275.107 524.872L275.107 551.601" stroke="#000000" stroke-width="0.398" fill="none" /><path id="610" transform="matrix(1 0 0 -1 0 841)" d="M407.899 524.872L407.899 551.601" stroke="#000000" stroke-width="0.398" fill="none" /><path id="611" transform="matrix(1 0 0 -1 0 841)" d="M274.908 524.872L408.099 524.872" stroke="#000000" stroke-width="0.398" fill="none" /><path id="686" transform="matrix(1 0 0 -1 0 841)" d="M185.117 487.766L263.056 487.766" stroke="#000000" stroke-width="0.398" fill="none" /><path id="1044" transform="matrix(1 0 0 -1 0 841)" d="M241.929 363.96L362.911 363.96" stroke="#000000" stroke-width="0.398" fill="none" /><path id="1688" transform="matrix(1 0 0 -1 0 841)" d="M84.79 207.565L104.655 207.565L104.655 218.773L84.79 218.773z" stroke="none" fill="#FFF100" fill-rule="nonzero" /><path id="1693" transform="matrix(1 0 0 -1 0 841)" d="M104.406 207.565L106.897 207.565L106.897 218.773L104.406 218.773z" stroke="none" fill="#FFF100" fill-rule="nonzero" /><path id="1694" transform="matrix(1 0 0 -1 0 841)" d="M106.648 207.565L114.897 207.565L114.897 218.773L106.648 218.773z" stroke="none" fill="#FFF100" fill-rule="nonzero" /><path id="1697" transform="matrix(1 0 0 -1 0 841)" d="M114.648 207.565L117.139 207.565L117.139 218.773L114.648 218.773z" stroke="none" fill="#FFF100" fill-rule="nonzero" /><path id="1698" transform="matrix(1 0 0 -1 0 841)" d="M116.89 207.565L131.226 207.565L131.226 218.773L116.89 218.773z" stroke="none" fill="#FFF100" fill-rule="nonzero" /><path id="1702" transform="matrix(1 0 0 -1 0 841)" d="M130.727 207.565L140.63 207.565L140.63 218.773L130.727 218.773z" stroke="none" fill="#FFF100" fill-rule="nonzero" /><path id="1705" transform="matrix(1 0 0 -1 0 841)" d="M140.132 207.565L150.592 207.565L150.592 218.773L140.132 218.773z" stroke="none" fill="#FFF100" fill-rule="nonzero" /><path id="1709" transform="matrix(1 0 0 -1 0 841)" d="M150.094 207.565L163.324 207.565L163.324 218.773L150.094 218.773z" stroke="none" fill="#FFF100" fill-rule="nonzero" /><path id="1713" transform="matrix(1 0 0 -1 0 841)" d="M163.076 207.565L165.567 207.565L165.567 218.773L163.076 218.773z" stroke="none" fill="#FFF100" fill-rule="nonzero" /><path id="1714" transform="matrix(1 0 0 -1 0 841)" d="M165.317 207.565L178.547 207.565L178.547 218.773L165.317 218.773z" stroke="none" fill="#FFF100" fill-rule="nonzero" /><path id="1718" transform="matrix(1 0 0 -1 0 841)" d="M178.049 207.565L188.509 207.565L188.509 218.773L178.049 218.773z" stroke="none" fill="#FFF100" fill-rule="nonzero" /><path id="1722" transform="matrix(1 0 0 -1 0 841)" d="M188.261 207.565L190.752 207.565L190.752 218.773L188.261 218.773z" stroke="none" fill="#FFF100" fill-rule="nonzero" /><path id="1723" transform="matrix(1 0 0 -1 0 841)" d="M190.502 207.565L212.3 207.565L212.3 218.773L190.502 218.773z" stroke="none" fill="#FFF100" fill-rule="nonzero" /><path id="1729" transform="matrix(1 0 0 -1 0 841)" d="M212.051 207.565L214.542 207.565L214.542 218.773L212.051 218.773z" stroke="none" fill="#FFF100" fill-rule="nonzero" /><path id="1730" transform="matrix(1 0 0 -1 0 841)" d="M214.293 207.565L228.619 207.565L228.619 218.773L214.293 218.773z" stroke="none" fill="#FFF100" fill-rule="nonzero" /><path id="1734" transform="matrix(1 0 0 -1 0 841)" d="M228.37 207.565L230.861 207.565L230.861 218.773L228.37 218.773z" stroke="none" fill="#FFF100" fill-rule="nonzero" /><path id="1735" transform="matrix(1 0 0 -1 0 841)" d="M230.612 207.565L252.849 207.565L252.849 218.773L230.612 218.773z" stroke="none" fill="#FFF100" fill-rule="nonzero" /><path id="1741" transform="matrix(1 0 0 -1 0 841)" d="M252.599 207.565L255.09 207.565L255.09 218.773L252.599 218.773z" stroke="none" fill="#FFF100" fill-rule="nonzero" /><path id="1742" transform="matrix(1 0 0 -1 0 841)" d="M254.841 207.565L267.513 207.565L267.513 218.773L254.841 218.773z" stroke="none" fill="#FFF100" fill-rule="nonzero" /><path id="1746" transform="matrix(1 0 0 -1 0 841)" d="M267.264 207.565L269.755 207.565L269.755 218.773L267.264 218.773z" stroke="none" fill="#FFF100" fill-rule="nonzero" /><path id="1747" transform="matrix(1 0 0 -1 0 841)" d="M269.506 207.565L277.755 207.565L277.755 218.773L269.506 218.773z" stroke="none" fill="#FFF100" fill-rule="nonzero" /><path id="1750" transform="matrix(1 0 0 -1 0 841)" d="M277.256 207.565L287.716 207.565L287.716 218.773L277.256 218.773z" stroke="none" fill="#FFF100" fill-rule="nonzero" /><path id="1754" transform="matrix(1 0 0 -1 0 841)" d="M287.468 207.565L289.959 207.565L289.959 218.773L287.468 218.773z" stroke="none" fill="#FFF100" fill-rule="nonzero" /><path id="1755" transform="matrix(1 0 0 -1 0 841)" d="M289.71 207.565L311.508 207.565L311.508 218.773L289.71 218.773z" stroke="none" fill="#FFF100" fill-rule="nonzero" /><path id="1761" transform="matrix(1 0 0 -1 0 841)" d="M311.259 207.565L313.75 207.565L313.75 218.773L311.259 218.773z" stroke="none" fill="#FFF100" fill-rule="nonzero" /><path id="1762" transform="matrix(1 0 0 -1 0 841)" d="M313.5 207.565L328.384 207.565L328.384 218.773L313.5 218.773z" stroke="none" fill="#FFF100" fill-rule="nonzero" /><path id="1766" transform="matrix(1 0 0 -1 0 841)" d="M328.135 207.565L330.626 207.565L330.626 218.773L328.135 218.773z" stroke="none" fill="#FFF100" fill-rule="nonzero" /><path id="1767" transform="matrix(1 0 0 -1 0 841)" d="M330.377 207.565L338.616 207.565L338.616 218.773L330.377 218.773z" stroke="none" fill="#FFF100" fill-rule="nonzero" /><path id="1770" transform="matrix(1 0 0 -1 0 841)" d="M338.118 207.565L363.124 207.565L363.124 218.773L338.118 218.773z" stroke="none" fill="#FFF100" fill-rule="nonzero" /><path id="1776" transform="matrix(1 0 0 -1 0 841)" d="M362.875 207.565L365.366 207.565L365.366 218.773L362.875 218.773z" stroke="none" fill="#FFF100" fill-rule="nonzero" /><path id="1777" transform="matrix(1 0 0 -1 0 841)" d="M365.116 207.565L373.106 207.565L373.106 218.773L365.116 218.773z" stroke="none" fill="#FFF100" fill-rule="nonzero" /><path id="1780" transform="matrix(1 0 0 -1 0 841)" d="M372.608 207.565L378.645 207.565L378.645 218.773L372.608 218.773z" stroke="none" fill="#FFF100" fill-rule="nonzero" /><path id="1782" transform="matrix(1 0 0 -1 0 841)" d="M378.147 207.565L404.498 207.565L404.498 218.773L378.147 218.773z" stroke="none" fill="#FFF100" fill-rule="nonzero" /><path id="1789" transform="matrix(1 0 0 -1 0 841)" d="M404.249 207.565L406.74 207.565L406.74 218.773L404.249 218.773z" stroke="none" fill="#FFF100" fill-rule="nonzero" /><path id="1790" transform="matrix(1 0 0 -1 0 841)" d="M406.491 207.565L437.425 207.565L437.425 218.773L406.491 218.773z" stroke="none" fill="#FFF100" fill-rule="nonzero" /><path id="1798" transform="matrix(1 0 0 -1 0 841)" d="M328.1976 192.5438L263.4404 192.5438C 261.2395 192.5438 259.4553 190.7597 259.4553 188.5587L259.4553 188.5587L259.4553 163.8013C 259.4553 161.6003 261.2395 159.8162 263.4404 159.8162L263.4404 159.8162L328.1976 159.8162C 330.3985 159.8162 332.1827 161.6003 332.1827 163.8013L332.1827 163.8013L332.1827 188.5587C 332.1827 190.7597 330.3985 192.5438 328.1976 192.5438z" stroke="#000000" stroke-width="0.3985" fill="#FF9999" fill-rule="nonzero" /><path id="1839" transform="matrix(1 0 0 -1 0 841)" d="M167.3966 176.18L256.8651 176.18" stroke="#000000" stroke-width="0.3985" fill="none" /><path id="1840" transform="matrix(1 0 0 -1 0 841)" d="M259.256 176.18C 258.2598 176.3792 256.4665 176.7777 255.271 177.6744C 256.2673 176.5785 256.2673 175.7815 255.271 174.6856C 256.4665 175.5822 258.2598 175.9807 259.256 176.18z" stroke="none" fill="#000000" fill-rule="nonzero" /><path id="1860" transform="matrix(1 0 0 -1 0 841)" d="M332.3819 176.18L418.2122 176.18" stroke="#000000" stroke-width="0.3985" fill="none" /><path id="1861" transform="matrix(1 0 0 -1 0 841)" d="M420.6032 176.18C 419.6069 176.3792 417.8137 176.7777 416.6181 177.6744C 417.6144 176.5785 417.6144 175.7815 416.6181 174.6856C 417.8137 175.5822 419.6069 175.9807 420.6032 176.18z" stroke="none" fill="#000000" fill-rule="nonzero" /><path id="1889" transform="matrix(1 0 0 -1 0 841)" d="M295.819 159.6169L295.819 145.3407" stroke="#000000" stroke-width="0.3985" fill="none" /><path id="1890" transform="matrix(1 0 0 -1 0 841)" d="M295.819 142.9496C 296.0182 143.9459 296.4167 145.7392 297.3134 146.9347C 296.2175 145.9384 295.4205 145.9384 294.3246 146.9347C 295.2213 145.7392 295.6198 143.9459 295.819 142.9496z" stroke="none" fill="#000000" fill-rule="nonzero" /></g></g></svg>