<svg xmlns="http://www.w3.org/2000/svg" xmlns:xlink="http://www.w3.org/1999/xlink" id="body_127" preserveAspectRatio="xMinYMin meet" viewBox="0 0 793 1121"><defs><clipPath id="1"><path id="" clip-rule="evenodd" transform="matrix(1 0 0 1 0 0)" d="M0 841L0 -0.8900146L0 -0.8900146L595.276 -0.8900146L595.276 -0.8900146L595.276 841L595.276 841L0 841z" /></clipPath></defs><g transform="matrix(1.333333 0 0 1.333333 0 0)"><g clip-path="url(#1)"><path id="26" transform="matrix(1 0 0 -1 0 841)" d="M85.039 766.564L510.236 766.564" stroke="#000000" stroke-width="0.498" fill="none" /><path id="27" transform="matrix(1 0 0 -1 0 841)" d="M85.039 538.077L85.039 756.8532L85.039 756.8532L510.2413 756.8532L510.2413 756.8532L510.2413 538.077C 510.2413 535.7286 508.3377 533.825 505.9893 533.825L505.9893 533.825L89.29099 533.825C 86.94264 533.825 85.039 535.7286 85.039 538.077z" stroke="none" fill="#BFBFFF" fill-rule="nonzero" /><path id="28" transform="matrix(1 0 0 -1 0 841)" d="M86.45631 538.077L86.45631 756.8532L86.45631 756.8532L508.824 756.8532L508.824 756.8532L508.824 538.077C 508.824 536.5114 507.5549 535.2423 505.9893 535.2423L505.9893 535.2423L89.29099 535.2423C 87.72543 535.2423 86.45631 536.5114 86.45631 538.077z" stroke="none" fill="#E6E6FF" fill-rule="nonzero" /></g></g></svg>