<svg xmlns="http://www.w3.org/2000/svg" xmlns:xlink="http://www.w3.org/1999/xlink" id="body_261" preserveAspectRatio="xMinYMin meet" viewBox="0 0 793 1121"><defs><clipPath id="1"><path id="" clip-rule="evenodd" transform="matrix(1 0 0 1 0 0)" d="M0 841L0 -0.8900146L0 -0.8900146L595.276 -0.8900146L595.276 -0.8900146L595.276 841L595.276 841L0 841z" /></clipPath></defs><g transform="matrix(1.333333 0 0 1.333333 0 0)"><g clip-path="url(#1)"><path id="24" transform="matrix(1 0 0 -1 0 841)" d="M85.039 766.564L510.236 766.564" stroke="#000000" stroke-width="0.498" fill="none" /><path id="35" transform="matrix(1 0 0 -1 0 841)" d="M155.011 748.268L196.506 748.268" stroke="#000000" stroke-width="0.398" fill="none" /><path id="51" transform="matrix(1 0 0 -1 0 841)" d="M209.87 755.63L237.895 755.63" stroke="#000000" stroke-width="0.398" fill="none" /><path id="52" transform="matrix(1 0 0 -1 0 841)" d="M210.069 740.557L210.069 755.63" stroke="#000000" stroke-width="0.398" fill="none" /><path id="53" transform="matrix(1 0 0 -1 0 841)" d="M237.695 740.557L237.695 755.63" stroke="#000000" stroke-width="0.398" fill="none" /><path id="54" transform="matrix(1 0 0 -1 0 841)" d="M209.87 740.557L237.895 740.557" stroke="#000000" stroke-width="0.398" fill="none" /><path id="199" transform="matrix(1 0 0 -1 0 841)" d="M179.824 668.491L245.018 668.491" stroke="#000000" stroke-width="0.398" fill="none" /><g transform="matrix(0.06 0 0 0.06 112.312 196.252)"><g transform="matrix(1 0 0 1 0 0)"><image x="0" y="0" xlink:href="img_323.png" width="3009" height="713" /></g></g><path id="350" transform="matrix(1 0 0 -1 0 841)" d="M154.274 531.726L307.465 531.726" stroke="#000000" stroke-width="0.398" fill="none" /><path id="385" transform="matrix(1 0 0 -1 0 841)" d="M322.026 531.726L360.2 531.726" stroke="#000000" stroke-width="0.398" fill="none" /><path id="401" transform="matrix(1 0 0 -1 0 841)" d="M373.564 539.088L411.661 539.088" stroke="#000000" stroke-width="0.398" fill="none" /><path id="402" transform="matrix(1 0 0 -1 0 841)" d="M373.763 524.015L373.763 539.088" stroke="#000000" stroke-width="0.398" fill="none" /><path id="403" transform="matrix(1 0 0 -1 0 841)" d="M411.462 524.015L411.462 539.088" stroke="#000000" stroke-width="0.398" fill="none" /><path id="404" transform="matrix(1 0 0 -1 0 841)" d="M373.564 524.015L411.661 524.015" stroke="#000000" stroke-width="0.398" fill="none" /></g></g></svg>