<svg xmlns="http://www.w3.org/2000/svg" xmlns:xlink="http://www.w3.org/1999/xlink" id="body_131" preserveAspectRatio="xMinYMin meet" viewBox="0 0 793 1121"><defs><clipPath id="1"><path id="" clip-rule="evenodd" transform="matrix(1 0 0 1 0 0)" d="M0 841L0 -0.8900146L0 -0.8900146L595.276 -0.8900146L595.276 -0.8900146L595.276 841L595.276 841L0 841z" /></clipPath></defs><g transform="matrix(1.333333 0 0 1.333333 0 0)"><g clip-path="url(#1)"><path id="34" transform="matrix(1 0 0 -1 0 841)" d="M85.039 766.564L510.236 766.564" stroke="#000000" stroke-width="0.498" fill="none" /><g transform="matrix(0.615 0 0 0.6149999 150.037 84.151)"><g transform="matrix(1 0 0 1 0 0)"><image x="0" y="0" xlink:href="img_226.png" width="480" height="434" /></g></g><path id="387" transform="matrix(1 0 0 -1 0 841)" d="M214.822 285.854L413.644 285.854" stroke="#000000" stroke-width="0.398" fill="none" /><path id="503" transform="matrix(1 0 0 -1 0 841)" d="M112.063 221.283L129.169 221.283L129.169 232.491L112.063 232.491z" stroke="none" fill="#FFF100" fill-rule="nonzero" /><path id="508" transform="matrix(1 0 0 -1 0 841)" d="M128.67 221.283L141.9 221.283L141.9 232.491L128.67 232.491z" stroke="none" fill="#FFF100" fill-rule="nonzero" /><path id="512" transform="matrix(1 0 0 -1 0 841)" d="M141.652 221.283L144.143 221.283L144.143 232.491L141.652 232.491z" stroke="none" fill="#FFF100" fill-rule="nonzero" /><path id="513" transform="matrix(1 0 0 -1 0 841)" d="M143.893 221.283L160.999 221.283L160.999 232.491L143.893 232.491z" stroke="none" fill="#FFF100" fill-rule="nonzero" /><path id="517" transform="matrix(1 0 0 -1 0 841)" d="M160.501 221.283L174.827 221.283L174.827 232.491L160.501 232.491z" stroke="none" fill="#FFF100" fill-rule="nonzero" /><path id="521" transform="matrix(1 0 0 -1 0 841)" d="M174.329 221.283L185.338 221.283L185.338 232.491L174.329 232.491z" stroke="none" fill="#FFF100" fill-rule="nonzero" /><path id="525" transform="matrix(1 0 0 -1 0 841)" d="M184.839 221.283L200.839 221.283L200.839 232.491L184.839 232.491z" stroke="none" fill="#FFF100" fill-rule="nonzero" /><path id="748" transform="matrix(1 0 0 -1 0 841)" d="M435.28 176.451L449.068 176.451L449.068 187.659L435.28 187.659z" stroke="none" fill="#FFF100" fill-rule="nonzero" /><path id="752" transform="matrix(1 0 0 -1 0 841)" d="M448.836 176.451L457.085 176.451L457.085 187.659L448.836 187.659z" stroke="none" fill="#FFF100" fill-rule="nonzero" /><path id="755" transform="matrix(1 0 0 -1 0 841)" d="M456.742 176.451L472.742 176.451L472.742 187.659L456.742 187.659z" stroke="none" fill="#FFF100" fill-rule="nonzero" /><path id="760" transform="matrix(1 0 0 -1 0 841)" d="M472.803 176.451L475.433 176.451L475.433 187.659L472.803 187.659z" stroke="none" fill="#FFF100" fill-rule="nonzero" /><path id="761" transform="matrix(1 0 0 -1 0 841)" d="M475.183 176.451L492.289 176.451L492.289 187.659L475.183 187.659z" stroke="none" fill="#FFF100" fill-rule="nonzero" /><path id="765" transform="matrix(1 0 0 -1 0 841)" d="M492.123 176.451L506.449 176.451L506.449 187.659L492.123 187.659z" stroke="none" fill="#FFF100" fill-rule="nonzero" /><path id="769" transform="matrix(1 0 0 -1 0 841)" d="M506.228 176.451L510.044 176.451L510.044 187.659L506.228 187.659z" stroke="none" fill="#FFF100" fill-rule="nonzero" /><path id="771" transform="matrix(1 0 0 -1 0 841)" d="M112.063 161.507L123.072 161.507L123.072 172.715L112.063 172.715z" stroke="none" fill="#FFF100" fill-rule="nonzero" /><path id="775" transform="matrix(1 0 0 -1 0 841)" d="M122.573 161.507L138.573 161.507L138.573 172.715L122.573 172.715z" stroke="none" fill="#FFF100" fill-rule="nonzero" /></g></g></svg>