<svg xmlns="http://www.w3.org/2000/svg" xmlns:xlink="http://www.w3.org/1999/xlink" id="body_25" preserveAspectRatio="xMinYMin meet" viewBox="0 0 793 1121"><defs><clipPath id="1"><path id="" clip-rule="evenodd" transform="matrix(1 0 0 1 0 0)" d="M0 841L0 -0.8900146L0 -0.8900146L595.276 -0.8900146L595.276 -0.8900146L595.276 841L595.276 841L0 841z" /></clipPath></defs><g transform="matrix(1.333333 0 0 1.333333 0 0)"><g clip-path="url(#1)"><path id="39" transform="matrix(1 0 0 -1 0 841)" d="M85.039 766.564L510.236 766.564" stroke="#000000" stroke-width="0.498" fill="none" /><path id="498" transform="matrix(1 0 0 -1 0 841)" d="M136.312 599.754L200.151 599.754L200.151 613.237L136.312 613.237z" stroke="none" fill="#FFF100" fill-rule="nonzero" /><path id="621" transform="matrix(1 0 0 -1 0 841)" d="M136.312 565.881L226.223 565.881L226.223 579.364L136.312 579.364z" stroke="none" fill="#FFF100" fill-rule="nonzero" /><path id="855" transform="matrix(1 0 0 -1 0 841)" d="M136.312 498.135L202.922 498.135L202.922 511.618L136.312 511.618z" stroke="none" fill="#FFF100" fill-rule="nonzero" /><path id="1228" transform="matrix(1 0 0 -1 0 841)" d="M112.312 413.317L140.108 413.317L140.108 426.396L112.312 426.396z" stroke="none" fill="#FFBFBF" fill-rule="nonzero" /><path id="1783" transform="matrix(1 0 0 -1 0 841)" d="M112.063 216.849L123.47 216.849L123.47 229.122L112.063 229.122z" stroke="none" fill="#FFF100" fill-rule="nonzero" /><path id="1786" transform="matrix(1 0 0 -1 0 841)" d="M122.972 216.849L133.768 216.849L133.768 229.122L122.972 229.122z" stroke="none" fill="#FFF100" fill-rule="nonzero" /><path id="1789" transform="matrix(1 0 0 -1 0 841)" d="M133.27 216.849L145.288 216.849L145.288 229.122L133.27 229.122z" stroke="none" fill="#FFF100" fill-rule="nonzero" /><path id="1793" transform="matrix(1 0 0 -1 0 841)" d="M144.79 216.849L156.808 216.849L156.808 229.122L144.79 229.122z" stroke="none" fill="#FFF100" fill-rule="nonzero" /><path id="1797" transform="matrix(1 0 0 -1 0 841)" d="M156.559 216.849L159.286 216.849L159.286 229.122L156.559 229.122z" stroke="none" fill="#FFF100" fill-rule="nonzero" /><path id="1798" transform="matrix(1 0 0 -1 0 841)" d="M159.037 216.849L166.811 216.849L166.811 229.122L159.037 229.122z" stroke="none" fill="#FFF100" fill-rule="nonzero" /><path id="1801" transform="matrix(1 0 0 -1 0 841)" d="M166.562 216.849L169.289 216.849L169.289 229.122L166.562 229.122z" stroke="none" fill="#FFF100" fill-rule="nonzero" /><path id="1802" transform="matrix(1 0 0 -1 0 841)" d="M169.04 216.849L182.869 216.849L182.869 229.122L169.04 229.122z" stroke="none" fill="#FFF100" fill-rule="nonzero" /><path id="1806" transform="matrix(1 0 0 -1 0 841)" d="M182.62 216.849L185.347 216.849L185.347 229.122L182.62 229.122z" stroke="none" fill="#FFF100" fill-rule="nonzero" /><path id="1807" transform="matrix(1 0 0 -1 0 841)" d="M185.098 216.849L201.959 216.849L201.959 229.122L185.098 229.122z" stroke="none" fill="#FFF100" fill-rule="nonzero" /><path id="1812" transform="matrix(1 0 0 -1 0 841)" d="M201.462 216.849L213.48 216.849L213.48 229.122L201.462 229.122z" stroke="none" fill="#FFF100" fill-rule="nonzero" /><path id="1816" transform="matrix(1 0 0 -1 0 841)" d="M213.23 216.849L215.957 216.849L215.957 229.122L213.23 229.122z" stroke="none" fill="#FFF100" fill-rule="nonzero" /><path id="1817" transform="matrix(1 0 0 -1 0 841)" d="M215.709 216.849L225.294 216.849L225.294 229.122L215.709 229.122z" stroke="none" fill="#FFF100" fill-rule="nonzero" /><path id="1820" transform="matrix(1 0 0 -1 0 841)" d="M225.045 216.849L227.772 216.849L227.772 229.122L225.045 229.122z" stroke="none" fill="#FFF100" fill-rule="nonzero" /><path id="1821" transform="matrix(1 0 0 -1 0 841)" d="M227.523 216.849L232.865 216.849L232.865 229.122L227.523 229.122z" stroke="none" fill="#FFF100" fill-rule="nonzero" /><path id="1823" transform="matrix(1 0 0 -1 0 841)" d="M232.616 216.849L235.343 216.849L235.343 229.122L232.616 229.122z" stroke="none" fill="#FFF100" fill-rule="nonzero" /><path id="1824" transform="matrix(1 0 0 -1 0 841)" d="M235.094 216.849L248.203 216.849L248.203 229.122L235.094 229.122z" stroke="none" fill="#FFF100" fill-rule="nonzero" /><path id="1827" transform="matrix(1 0 0 -1 0 841)" d="M247.705 216.849L259.712 216.849L259.712 229.122L247.705 229.122z" stroke="none" fill="#FFF100" fill-rule="nonzero" /><path id="1831" transform="matrix(1 0 0 -1 0 841)" d="M259.463 216.849L262.19 216.849L262.19 229.122L259.463 229.122z" stroke="none" fill="#FFF100" fill-rule="nonzero" /><path id="1832" transform="matrix(1 0 0 -1 0 841)" d="M261.941 216.849L270.926 216.849L270.926 229.122L261.941 229.122z" stroke="none" fill="#FFF100" fill-rule="nonzero" /><path id="1835" transform="matrix(1 0 0 -1 0 841)" d="M270.677 216.849L273.404 216.849L273.404 229.122L270.677 229.122z" stroke="none" fill="#FFF100" fill-rule="nonzero" /><path id="1836" transform="matrix(1 0 0 -1 0 841)" d="M273.155 216.849L289.406 216.849L289.406 229.122L273.155 229.122z" stroke="none" fill="#FFF100" fill-rule="nonzero" /><path id="1840" transform="matrix(1 0 0 -1 0 841)" d="M288.908 216.849L303.948 216.849L303.948 229.122L288.908 229.122z" stroke="none" fill="#FFF100" fill-rule="nonzero" /><path id="1845" transform="matrix(1 0 0 -1 0 841)" d="M303.449 216.849L316.667 216.849L316.667 229.122L303.449 229.122z" stroke="none" fill="#FFF100" fill-rule="nonzero" /><path id="1849" transform="matrix(1 0 0 -1 0 841)" d="M316.418 216.849L319.145 216.849L319.145 229.122L316.418 229.122z" stroke="none" fill="#FFF100" fill-rule="nonzero" /><path id="1850" transform="matrix(1 0 0 -1 0 841)" d="M318.896 216.849L344.539 216.849L344.539 229.122L318.896 229.122z" stroke="none" fill="#FFF100" fill-rule="nonzero" /></g></g></svg>