<svg xmlns="http://www.w3.org/2000/svg" xmlns:xlink="http://www.w3.org/1999/xlink" id="body_267" preserveAspectRatio="xMinYMin meet" viewBox="0 0 793 1121"><defs><clipPath id="1"><path id="" clip-rule="evenodd" transform="matrix(1 0 0 1 0 0)" d="M0 841L0 -0.8900146L0 -0.8900146L595.276 -0.8900146L595.276 -0.8900146L595.276 841L595.276 841L0 841z" /></clipPath></defs><g transform="matrix(1.333333 0 0 1.333333 0 0)"><g clip-path="url(#1)"><path id="23" transform="matrix(1 0 0 -1 0 841)" d="M85.039 766.564L510.236 766.564" stroke="#000000" stroke-width="0.498" fill="none" /><path id="87" transform="matrix(1 0 0 -1 0 841)" d="M358.918 733.683L387.949 733.683" stroke="#000000" stroke-width="0.398" fill="none" /><path id="91" transform="matrix(1 0 0 -1 0 841)" d="M284.109 720.931L389.144 720.931" stroke="#000000" stroke-width="0.398" fill="none" /><g transform="matrix(1 0 0 1 223.274 138.865)"><g transform="matrix(1 0 0 1 0 0)"><image x="0" y="0" xlink:href="img_424.png" width="176" height="71" /></g></g><path id="127" transform="matrix(1 0 0 -1 0 841)" d="M144.583 613.041L189.743 613.041" stroke="#000000" stroke-width="0.398" fill="none" /><path id="153" transform="matrix(1 0 0 -1 0 841)" d="M276.221 613.041L321.381 613.041" stroke="#000000" stroke-width="0.398" fill="none" /><path id="163" transform="matrix(1 0 0 -1 0 841)" d="M123.462 600.29L322.576 600.29" stroke="#000000" stroke-width="0.398" fill="none" /><path id="166" transform="matrix(1 0 0 -1 0 841)" d="M193.528 589.725L199.804 589.725" stroke="#000000" stroke-width="0.398" fill="none" /><path id="190" transform="matrix(1 0 0 -1 0 841)" d="M363.209 600.29L401.722 600.29" stroke="#000000" stroke-width="0.398" fill="none" /><path id="198" transform="matrix(1 0 0 -1 0 841)" d="M335.941 614.591L406.304 614.591" stroke="#000000" stroke-width="0.398" fill="none" /><path id="199" transform="matrix(1 0 0 -1 0 841)" d="M336.14 585.694L336.14 614.59" stroke="#000000" stroke-width="0.398" fill="none" /><path id="200" transform="matrix(1 0 0 -1 0 841)" d="M406.105 585.694L406.105 614.59" stroke="#000000" stroke-width="0.398" fill="none" /><path id="201" transform="matrix(1 0 0 -1 0 841)" d="M335.941 585.694L406.304 585.694" stroke="#000000" stroke-width="0.398" fill="none" /><path id="513" transform="matrix(1 0 0 -1 0 841)" d="M323.663 482.172L400.131 482.172" stroke="#000000" stroke-width="0.398" fill="none" /><path id="682" transform="matrix(1 0 0 -1 0 841)" d="M112.063 406.36L128.053 406.36L128.053 417.568L112.063 417.568z" stroke="none" fill="#FFF100" fill-rule="nonzero" /><path id="686" transform="matrix(1 0 0 -1 0 841)" d="M127.943 406.36L130.432 406.36L130.432 417.568L127.943 417.568z" stroke="none" fill="#FFF100" fill-rule="nonzero" /><path id="687" transform="matrix(1 0 0 -1 0 841)" d="M130.183 406.36L152.011 406.36L152.011 417.568L130.183 417.568z" stroke="none" fill="#FFF100" fill-rule="nonzero" /><path id="693" transform="matrix(1 0 0 -1 0 841)" d="M151.956 406.36L154.445 406.36L154.445 417.568L151.956 417.568z" stroke="none" fill="#FFF100" fill-rule="nonzero" /><path id="694" transform="matrix(1 0 0 -1 0 841)" d="M154.196 406.36L162.993 406.36L162.993 417.568L154.196 417.568z" stroke="none" fill="#FFF100" fill-rule="nonzero" /><path id="697" transform="matrix(1 0 0 -1 0 841)" d="M162.818 406.36L165.307 406.36L165.307 417.568L162.818 417.568z" stroke="none" fill="#FFF100" fill-rule="nonzero" /><path id="698" transform="matrix(1 0 0 -1 0 841)" d="M165.058 406.36L183.625 406.36L183.625 417.568L165.058 417.568z" stroke="none" fill="#FFF100" fill-rule="nonzero" /><path id="703" transform="matrix(1 0 0 -1 0 841)" d="M183.376 406.36L185.865 406.36L185.865 417.568L183.376 417.568z" stroke="none" fill="#FFF100" fill-rule="nonzero" /><path id="704" transform="matrix(1 0 0 -1 0 841)" d="M185.616 406.36L200.5 406.36L200.5 417.568L185.616 417.568z" stroke="none" fill="#FFF100" fill-rule="nonzero" /><path id="708" transform="matrix(1 0 0 -1 0 841)" d="M200.381 406.36L202.87 406.36L202.87 417.568L200.381 417.568z" stroke="none" fill="#FFF100" fill-rule="nonzero" /><path id="709" transform="matrix(1 0 0 -1 0 841)" d="M202.62 406.36L225.19 406.36L225.19 417.568L202.62 417.568z" stroke="none" fill="#FFF100" fill-rule="nonzero" /><path id="715" transform="matrix(1 0 0 -1 0 841)" d="M224.942 406.36L227.431 406.36L227.431 417.568L224.942 417.568z" stroke="none" fill="#FFF100" fill-rule="nonzero" /><path id="716" transform="matrix(1 0 0 -1 0 841)" d="M227.181 406.36L239.295 406.36L239.295 417.568L227.181 417.568z" stroke="none" fill="#FFF100" fill-rule="nonzero" /><path id="720" transform="matrix(1 0 0 -1 0 841)" d="M239.151 406.36L241.64 406.36L241.64 417.568L239.151 417.568z" stroke="none" fill="#FFF100" fill-rule="nonzero" /><path id="721" transform="matrix(1 0 0 -1 0 841)" d="M241.391 406.36L254.063 406.36L254.063 417.568L241.391 417.568z" stroke="none" fill="#FFF100" fill-rule="nonzero" /><path id="725" transform="matrix(1 0 0 -1 0 841)" d="M253.924 406.36L256.413 406.36L256.413 417.568L253.924 417.568z" stroke="none" fill="#FFF100" fill-rule="nonzero" /><path id="726" transform="matrix(1 0 0 -1 0 841)" d="M256.164 406.36L264.413 406.36L264.413 417.568L256.164 417.568z" stroke="none" fill="#FFF100" fill-rule="nonzero" /><path id="729" transform="matrix(1 0 0 -1 0 841)" d="M263.984 406.36L288.273 406.36L288.273 417.568L263.984 417.568z" stroke="none" fill="#FFF100" fill-rule="nonzero" /><path id="736" transform="matrix(1 0 0 -1 0 841)" d="M288.238 406.36L290.727 406.36L290.727 417.568L288.238 417.568z" stroke="none" fill="#FFF100" fill-rule="nonzero" /><path id="737" transform="matrix(1 0 0 -1 0 841)" d="M290.477 406.36L303.707 406.36L303.707 417.568L290.477 417.568z" stroke="none" fill="#FFF100" fill-rule="nonzero" /><path id="740" transform="matrix(1 0 0 -1 0 841)" d="M303.573 406.36L306.062 406.36L306.062 417.568L303.573 417.568z" stroke="none" fill="#FFF100" fill-rule="nonzero" /><path id="741" transform="matrix(1 0 0 -1 0 841)" d="M305.813 406.36L314.052 406.36L314.052 417.568L305.813 417.568z" stroke="none" fill="#FFF100" fill-rule="nonzero" /><path id="744" transform="matrix(1 0 0 -1 0 841)" d="M313.624 406.36L328.508 406.36L328.508 417.568L313.624 417.568z" stroke="none" fill="#FFF100" fill-rule="nonzero" /><path id="748" transform="matrix(1 0 0 -1 0 841)" d="M328.139 406.36L344.139 406.36L344.139 417.568L328.139 417.568z" stroke="none" fill="#FFF100" fill-rule="nonzero" /><path id="753" transform="matrix(1 0 0 -1 0 841)" d="M344.029 406.36L346.518 406.36L346.518 417.568L344.029 417.568z" stroke="none" fill="#FFF100" fill-rule="nonzero" /><path id="754" transform="matrix(1 0 0 -1 0 841)" d="M346.269 406.36L365.576 406.36L365.576 417.568L346.269 417.568z" stroke="none" fill="#FFF100" fill-rule="nonzero" /><path id="759" transform="matrix(1 0 0 -1 0 841)" d="M365.507 406.36L367.996 406.36L367.996 417.568L365.507 417.568z" stroke="none" fill="#FFF100" fill-rule="nonzero" /><path id="760" transform="matrix(1 0 0 -1 0 841)" d="M367.746 406.36L395.352 406.36L395.352 417.568L367.746 417.568z" stroke="none" fill="#FFF100" fill-rule="nonzero" /><path id="767" transform="matrix(1 0 0 -1 0 841)" d="M395.347 406.36L397.836 406.36L397.836 417.568L395.347 417.568z" stroke="none" fill="#FFF100" fill-rule="nonzero" /><path id="768" transform="matrix(1 0 0 -1 0 841)" d="M397.587 406.36L416.894 406.36L416.894 417.568L397.587 417.568z" stroke="none" fill="#FFF100" fill-rule="nonzero" /><path id="773" transform="matrix(1 0 0 -1 0 841)" d="M416.566 406.36L432.566 406.36L432.566 417.568L416.566 417.568z" stroke="none" fill="#FFF100" fill-rule="nonzero" /><path id="778" transform="matrix(1 0 0 -1 0 841)" d="M432.456 406.36L434.945 406.36L434.945 417.568L432.456 417.568z" stroke="none" fill="#FFF100" fill-rule="nonzero" /><path id="779" transform="matrix(1 0 0 -1 0 841)" d="M434.696 406.36L458.686 406.36L458.686 417.568L434.696 417.568z" stroke="none" fill="#FFF100" fill-rule="nonzero" /><path id="785" transform="matrix(1 0 0 -1 0 841)" d="M458.651 406.36L461.14 406.36L461.14 417.568L458.651 417.568z" stroke="none" fill="#FFF100" fill-rule="nonzero" /><path id="786" transform="matrix(1 0 0 -1 0 841)" d="M460.89 406.36L487.958 406.36L487.958 417.568L460.89 417.568z" stroke="none" fill="#FFF100" fill-rule="nonzero" /><path id="793" transform="matrix(1 0 0 -1 0 841)" d="M487.949 406.36L490.438 406.36L490.438 417.568L487.949 417.568z" stroke="none" fill="#FFF100" fill-rule="nonzero" /><path id="794" transform="matrix(1 0 0 -1 0 841)" d="M490.188 406.36L500.091 406.36L500.091 417.568L490.188 417.568z" stroke="none" fill="#FFF100" fill-rule="nonzero" /><path id="797" transform="matrix(1 0 0 -1 0 841)" d="M499.927 406.36L502.416 406.36L502.416 417.568L499.927 417.568z" stroke="none" fill="#FFF100" fill-rule="nonzero" /><path id="798" transform="matrix(1 0 0 -1 0 841)" d="M502.167 406.36L510.416 406.36L510.416 417.568L502.167 417.568z" stroke="none" fill="#FFF100" fill-rule="nonzero" /><path id="801" transform="matrix(1 0 0 -1 0 841)" d="M112.063 391.416L128.043 391.416L128.043 402.624L112.063 402.624z" stroke="none" fill="#FFF100" fill-rule="nonzero" /><path id="806" transform="matrix(1 0 0 -1 0 841)" d="M127.545 391.416L143.545 391.416L143.545 402.624L127.545 402.624z" stroke="none" fill="#FFF100" fill-rule="nonzero" /><path id="811" transform="matrix(1 0 0 -1 0 841)" d="M143.296 391.416L145.787 391.416L145.787 402.624L143.296 402.624z" stroke="none" fill="#FFF100" fill-rule="nonzero" /><path id="812" transform="matrix(1 0 0 -1 0 841)" d="M145.537 391.416L160.421 391.416L160.421 402.624L145.537 402.624z" stroke="none" fill="#FFF100" fill-rule="nonzero" /><path id="816" transform="matrix(1 0 0 -1 0 841)" d="M160.172 391.416L162.663 391.416L162.663 402.624L160.172 402.624z" stroke="none" fill="#FFF100" fill-rule="nonzero" /><path id="817" transform="matrix(1 0 0 -1 0 841)" d="M162.414 391.416L175.644 391.416L175.644 402.624L162.414 402.624z" stroke="none" fill="#FFF100" fill-rule="nonzero" /><path id="821" transform="matrix(1 0 0 -1 0 841)" d="M175.395 391.416L177.886 391.416L177.886 402.624L175.395 402.624z" stroke="none" fill="#FFF100" fill-rule="nonzero" /><path id="822" transform="matrix(1 0 0 -1 0 841)" d="M177.637 391.416L186.434 391.416L186.434 402.624L177.637 402.624z" stroke="none" fill="#FFF100" fill-rule="nonzero" /><path id="825" transform="matrix(1 0 0 -1 0 841)" d="M186.184 391.416L188.675 391.416L188.675 402.624L186.184 402.624z" stroke="none" fill="#FFF100" fill-rule="nonzero" /><path id="826" transform="matrix(1 0 0 -1 0 841)" d="M188.426 391.416L193.347 391.416L193.347 402.624L188.426 402.624z" stroke="none" fill="#FFF100" fill-rule="nonzero" /><path id="828" transform="matrix(1 0 0 -1 0 841)" d="M193.098 391.416L195.589 391.416L195.589 402.624L193.098 402.624z" stroke="none" fill="#FFF100" fill-rule="nonzero" /><path id="829" transform="matrix(1 0 0 -1 0 841)" d="M195.34 391.416L208.56 391.416L208.56 402.624L195.34 402.624z" stroke="none" fill="#FFF100" fill-rule="nonzero" /><path id="833" transform="matrix(1 0 0 -1 0 841)" d="M208.062 391.416L225.158 391.416L225.158 402.624L208.062 402.624z" stroke="none" fill="#FFF100" fill-rule="nonzero" /><path id="838" transform="matrix(1 0 0 -1 0 841)" d="M224.66 391.416L241.477 391.416L241.477 402.624L224.66 402.624z" stroke="none" fill="#FFF100" fill-rule="nonzero" /><path id="1055" transform="matrix(1 0 0 -1 0 841)" d="M112.063 296.854L123.63 296.854L123.63 308.062L112.063 308.062z" stroke="none" fill="#FFF100" fill-rule="nonzero" /><path id="1058" transform="matrix(1 0 0 -1 0 841)" d="M123.132 296.854L135.804 296.854L135.804 308.062L123.132 308.062z" stroke="none" fill="#FFF100" fill-rule="nonzero" /><path id="1061" transform="matrix(1 0 0 -1 0 841)" d="M135.306 296.854L147.978 296.854L147.978 308.062L135.306 308.062z" stroke="none" fill="#FFF100" fill-rule="nonzero" /><path id="1065" transform="matrix(1 0 0 -1 0 841)" d="M147.729 296.854L150.22 296.854L150.22 308.062L147.729 308.062z" stroke="none" fill="#FFF100" fill-rule="nonzero" /><path id="1066" transform="matrix(1 0 0 -1 0 841)" d="M149.971 296.854L169.288 296.854L169.288 308.062L149.971 308.062z" stroke="none" fill="#FFF100" fill-rule="nonzero" /><path id="1071" transform="matrix(1 0 0 -1 0 841)" d="M168.79 296.854L187.001 296.854L187.001 308.062L168.79 308.062z" stroke="none" fill="#FFF100" fill-rule="nonzero" /><path id="1280" transform="matrix(1 0 0 -1 0 841)" d="M277.076 256.117L343.462 256.117" stroke="#000000" stroke-width="0.398" fill="none" /><path id="1302" transform="matrix(1 0 0 -1 0 841)" d="M379.519 263.619L404.555 263.619" stroke="#000000" stroke-width="0.398" fill="none" /><path id="1303" transform="matrix(1 0 0 -1 0 841)" d="M379.718 250.284L379.718 263.619" stroke="#000000" stroke-width="0.398" fill="none" /><path id="1304" transform="matrix(1 0 0 -1 0 841)" d="M404.356 250.284L404.356 263.619" stroke="#000000" stroke-width="0.398" fill="none" /><path id="1305" transform="matrix(1 0 0 -1 0 841)" d="M379.519 250.284L404.555 250.284" stroke="#000000" stroke-width="0.398" fill="none" /></g></g></svg>