<svg xmlns="http://www.w3.org/2000/svg" xmlns:xlink="http://www.w3.org/1999/xlink" id="body_425" preserveAspectRatio="xMinYMin meet" viewBox="0 0 793 1121"><defs><clipPath id="1"><path id="" clip-rule="evenodd" transform="matrix(1 0 0 1 0 0)" d="M0 841L0 -0.8900146L0 -0.8900146L595.276 -0.8900146L595.276 -0.8900146L595.276 841L595.276 841L0 841z" /></clipPath></defs><g transform="matrix(1.333333 0 0 1.333333 0 0)"><g clip-path="url(#1)"><path id="23" transform="matrix(1 0 0 -1 0 841)" d="M85.039 766.564L510.236 766.564" stroke="#000000" stroke-width="0.498" fill="none" /><path id="485" transform="matrix(1 0 0 -1 0 841)" d="M216.814 469.244L278.293 469.244" stroke="#000000" stroke-width="0.398" fill="none" /><path id="486" transform="matrix(1 0 0 -1 0 841)" d="M217.013 452.96L217.013 469.244" stroke="#000000" stroke-width="0.398" fill="none" /><path id="487" transform="matrix(1 0 0 -1 0 841)" d="M278.093 452.96L278.093 469.244" stroke="#000000" stroke-width="0.398" fill="none" /><path id="488" transform="matrix(1 0 0 -1 0 841)" d="M216.814 452.96L278.293 452.96" stroke="#000000" stroke-width="0.398" fill="none" /><path id="678" transform="matrix(1 0 0 -1 0 841)" d="M418.449 424.412L455.619 424.412" stroke="#000000" stroke-width="0.398" fill="none" /><path id="679" transform="matrix(1 0 0 -1 0 841)" d="M418.648 408.128L418.648 424.412" stroke="#000000" stroke-width="0.398" fill="none" /><path id="680" transform="matrix(1 0 0 -1 0 841)" d="M455.42 408.128L455.42 424.412" stroke="#000000" stroke-width="0.398" fill="none" /><path id="681" transform="matrix(1 0 0 -1 0 841)" d="M418.449 408.128L455.619 408.128" stroke="#000000" stroke-width="0.398" fill="none" /><path id="847" transform="matrix(1 0 0 -1 0 841)" d="M198.094 341.577L252.943 341.577" stroke="#000000" stroke-width="0.398" fill="none" /><path id="865" transform="matrix(1 0 0 -1 0 841)" d="M267.503 341.577L293.704 341.577" stroke="#000000" stroke-width="0.398" fill="none" /><path id="882" transform="matrix(1 0 0 -1 0 841)" d="M307.068 349.692L346.998 349.692" stroke="#000000" stroke-width="0.398" fill="none" /><path id="883" transform="matrix(1 0 0 -1 0 841)" d="M307.267 333.408L307.267 349.692" stroke="#000000" stroke-width="0.398" fill="none" /><path id="884" transform="matrix(1 0 0 -1 0 841)" d="M346.799 333.408L346.799 349.692" stroke="#000000" stroke-width="0.398" fill="none" /><path id="885" transform="matrix(1 0 0 -1 0 841)" d="M307.068 333.408L346.998 333.408" stroke="#000000" stroke-width="0.398" fill="none" /><path id="1175" transform="matrix(1 0 0 -1 0 841)" d="M383.815 274.972L445.294 274.972" stroke="#000000" stroke-width="0.398" fill="none" /><path id="1176" transform="matrix(1 0 0 -1 0 841)" d="M384.014 258.688L384.014 274.972" stroke="#000000" stroke-width="0.398" fill="none" /><path id="1177" transform="matrix(1 0 0 -1 0 841)" d="M445.095 258.688L445.095 274.972" stroke="#000000" stroke-width="0.398" fill="none" /><path id="1178" transform="matrix(1 0 0 -1 0 841)" d="M383.815 258.688L445.294 258.688" stroke="#000000" stroke-width="0.398" fill="none" /><path id="1514" transform="matrix(1 0 0 -1 0 841)" d="M378.834 170.364L440.313 170.364" stroke="#000000" stroke-width="0.398" fill="none" /><path id="1515" transform="matrix(1 0 0 -1 0 841)" d="M379.033 154.08L379.033 170.364" stroke="#000000" stroke-width="0.398" fill="none" /><path id="1516" transform="matrix(1 0 0 -1 0 841)" d="M440.113 154.08L440.113 170.364" stroke="#000000" stroke-width="0.398" fill="none" /><path id="1517" transform="matrix(1 0 0 -1 0 841)" d="M378.834 154.08L440.313 154.08" stroke="#000000" stroke-width="0.398" fill="none" /><g transform="matrix(0.2 0 0 0.2 249.239 774.845)"><g transform="matrix(1 0 0 1 0 0)"><image x="0" y="0" xlink:href="img_04.png" width="484" height="104" /></g></g></g></g></svg>