<svg xmlns="http://www.w3.org/2000/svg" xmlns:xlink="http://www.w3.org/1999/xlink" id="body_34" preserveAspectRatio="xMinYMin meet" viewBox="0 0 793 1121"><defs><clipPath id="1"><path id="" clip-rule="evenodd" transform="matrix(1 0 0 1 0 0)" d="M0 841L0 -0.8900146L0 -0.8900146L595.276 -0.8900146L595.276 -0.8900146L595.276 841L595.276 841L0 841z" /></clipPath></defs><g transform="matrix(1.333333 0 0 1.333333 0 0)"><g clip-path="url(#1)"><path id="45" transform="matrix(1 0 0 -1 0 841)" d="M85.039 766.564L510.236 766.564" stroke="#000000" stroke-width="0.498" fill="none" /><path id="46" transform="matrix(1 0 0 -1 0 841)" d="M84.79 742.529L93.029 742.529L93.029 753.737L84.79 753.737z" stroke="none" fill="#FFF100" fill-rule="nonzero" /><path id="49" transform="matrix(1 0 0 -1 0 841)" d="M92.686 742.529L118.638 742.529L118.638 753.737L92.686 753.737z" stroke="none" fill="#FFF100" fill-rule="nonzero" /><path id="56" transform="matrix(1 0 0 -1 0 841)" d="M118.899 742.529L121.522 742.529L121.522 753.737L118.899 753.737z" stroke="none" fill="#FFF100" fill-rule="nonzero" /><path id="57" transform="matrix(1 0 0 -1 0 841)" d="M121.272 742.529L129.521 742.529L129.521 753.737L121.272 753.737z" stroke="none" fill="#FFF100" fill-rule="nonzero" /><path id="60" transform="matrix(1 0 0 -1 0 841)" d="M129.427 742.529L132.05 742.529L132.05 753.737L129.427 753.737z" stroke="none" fill="#FFF100" fill-rule="nonzero" /><path id="61" transform="matrix(1 0 0 -1 0 841)" d="M131.801 742.529L150.76 742.529L150.76 753.737L131.801 753.737z" stroke="none" fill="#FFF100" fill-rule="nonzero" /><path id="66" transform="matrix(1 0 0 -1 0 841)" d="M150.887 742.529L153.51 742.529L153.51 753.737L150.887 753.737z" stroke="none" fill="#FFF100" fill-rule="nonzero" /><path id="67" transform="matrix(1 0 0 -1 0 841)" d="M153.261 742.529L172.021 742.529L172.021 753.737L153.261 753.737z" stroke="none" fill="#FFF100" fill-rule="nonzero" /><path id="71" transform="matrix(1 0 0 -1 0 841)" d="M172.136 742.529L174.759 742.529L174.759 753.737L172.136 753.737z" stroke="none" fill="#FFF100" fill-rule="nonzero" /><path id="72" transform="matrix(1 0 0 -1 0 841)" d="M174.51 742.529L207.187 742.529L207.187 753.737L174.51 753.737z" stroke="none" fill="#FFF100" fill-rule="nonzero" /><path id="82" transform="matrix(1 0 0 -1 0 841)" d="M207.586 742.529L210.209 742.529L210.209 753.737L207.586 753.737z" stroke="none" fill="#FFF100" fill-rule="nonzero" /><path id="83" transform="matrix(1 0 0 -1 0 841)" d="M209.959 742.529L215.996 742.529L215.996 753.737L209.959 753.737z" stroke="none" fill="#FFF100" fill-rule="nonzero" /><path id="86" transform="matrix(1 0 0 -1 0 841)" d="M215.858 742.529L218.481 742.529L218.481 753.737L215.858 753.737z" stroke="none" fill="#FFF100" fill-rule="nonzero" /><path id="87" transform="matrix(1 0 0 -1 0 841)" d="M218.232 742.529L244.184 742.529L244.184 753.737L218.232 753.737z" stroke="none" fill="#FFF100" fill-rule="nonzero" /><path id="93" transform="matrix(1 0 0 -1 0 841)" d="M244.444 742.529L247.067 742.529L247.067 753.737L244.444 753.737z" stroke="none" fill="#FFF100" fill-rule="nonzero" /><path id="94" transform="matrix(1 0 0 -1 0 841)" d="M246.818 742.529L262.26 742.529L262.26 753.737L246.818 753.737z" stroke="none" fill="#FFF100" fill-rule="nonzero" /><path id="99" transform="matrix(1 0 0 -1 0 841)" d="M262.31 742.529L264.933 742.529L264.933 753.737L262.31 753.737z" stroke="none" fill="#FFF100" fill-rule="nonzero" /><path id="100" transform="matrix(1 0 0 -1 0 841)" d="M264.683 742.529L283.443 742.529L283.443 753.737L264.683 753.737z" stroke="none" fill="#FFF100" fill-rule="nonzero" /><path id="104" transform="matrix(1 0 0 -1 0 841)" d="M283.559 742.529L286.182 742.529L286.182 753.737L283.559 753.737z" stroke="none" fill="#FFF100" fill-rule="nonzero" /><path id="105" transform="matrix(1 0 0 -1 0 841)" d="M285.933 742.529L294.73 742.529L294.73 753.737L285.933 753.737z" stroke="none" fill="#FFF100" fill-rule="nonzero" /><path id="108" transform="matrix(1 0 0 -1 0 841)" d="M294.647 742.529L297.27 742.529L297.27 753.737L294.647 753.737z" stroke="none" fill="#FFF100" fill-rule="nonzero" /><path id="109" transform="matrix(1 0 0 -1 0 841)" d="M297.02 742.529L309.692 742.529L309.692 753.737L297.02 753.737z" stroke="none" fill="#FFF100" fill-rule="nonzero" /><path id="113" transform="matrix(1 0 0 -1 0 841)" d="M309.687 742.529L312.31 742.529L312.31 753.737L309.687 753.737z" stroke="none" fill="#FFF100" fill-rule="nonzero" /><path id="114" transform="matrix(1 0 0 -1 0 841)" d="M312.061 742.529L320.31 742.529L320.31 753.737L312.061 753.737z" stroke="none" fill="#FFF100" fill-rule="nonzero" /><path id="117" transform="matrix(1 0 0 -1 0 841)" d="M319.967 742.529L330.427 742.529L330.427 753.737L319.967 753.737z" stroke="none" fill="#FFF100" fill-rule="nonzero" /><path id="121" transform="matrix(1 0 0 -1 0 841)" d="M330.377 742.529L333 742.529L333 753.737L330.377 753.737z" stroke="none" fill="#FFF100" fill-rule="nonzero" /><path id="122" transform="matrix(1 0 0 -1 0 841)" d="M332.751 742.529L356.502 742.529L356.502 753.737L332.751 753.737z" stroke="none" fill="#FFF100" fill-rule="nonzero" /><path id="129" transform="matrix(1 0 0 -1 0 841)" d="M356.718 742.529L359.341 742.529L359.341 753.737L356.718 753.737z" stroke="none" fill="#FFF100" fill-rule="nonzero" /><path id="130" transform="matrix(1 0 0 -1 0 841)" d="M359.091 742.529L362.907 742.529L362.907 753.737L359.091 753.737z" stroke="none" fill="#FFF100" fill-rule="nonzero" /><path id="132" transform="matrix(1 0 0 -1 0 841)" d="M362.724 742.529L365.347 742.529L365.347 753.737L362.724 753.737z" stroke="none" fill="#FFF100" fill-rule="nonzero" /><path id="133" transform="matrix(1 0 0 -1 0 841)" d="M365.098 742.529L422.682 742.529L422.682 753.737L365.098 753.737z" stroke="none" fill="#FFF100" fill-rule="nonzero" /><path id="145" transform="matrix(1 0 0 -1 0 841)" d="M423.574 742.529L426.197 742.529L426.197 753.737L423.574 753.737z" stroke="none" fill="#FFF100" fill-rule="nonzero" /><path id="146" transform="matrix(1 0 0 -1 0 841)" d="M425.948 742.529L434.745 742.529L434.745 753.737L425.948 753.737z" stroke="none" fill="#FFF100" fill-rule="nonzero" /><path id="149" transform="matrix(1 0 0 -1 0 841)" d="M434.662 742.529L437.285 742.529L437.285 753.737L434.662 753.737z" stroke="none" fill="#FFF100" fill-rule="nonzero" /><path id="150" transform="matrix(1 0 0 -1 0 841)" d="M437.036 742.529L483.203 742.529L483.203 753.737L437.036 753.737z" stroke="none" fill="#FFF100" fill-rule="nonzero" /><path id="161" transform="matrix(1 0 0 -1 0 841)" d="M483.867 742.529L486.49 742.529L486.49 753.737L483.867 753.737z" stroke="none" fill="#FFF100" fill-rule="nonzero" /><path id="162" transform="matrix(1 0 0 -1 0 841)" d="M486.24 742.529L493.383 742.529L493.383 753.737L486.24 753.737z" stroke="none" fill="#FFF100" fill-rule="nonzero" /><path id="165" transform="matrix(1 0 0 -1 0 841)" d="M493.267 742.529L495.89 742.529L495.89 753.737L493.267 753.737z" stroke="none" fill="#FFF100" fill-rule="nonzero" /><path id="166" transform="matrix(1 0 0 -1 0 841)" d="M495.641 742.529L508.313 742.529L508.313 753.737L495.641 753.737z" stroke="none" fill="#FFF100" fill-rule="nonzero" /><path id="170" transform="matrix(1 0 0 -1 0 841)" d="M84.79 727.585L111.3 727.585L111.3 738.793L84.79 738.793z" stroke="none" fill="#FFF100" fill-rule="nonzero" /><path id="177" transform="matrix(1 0 0 -1 0 841)" d="M111.052 727.585L113.543 727.585L113.543 738.793L111.052 738.793z" stroke="none" fill="#FFF100" fill-rule="nonzero" /><path id="178" transform="matrix(1 0 0 -1 0 841)" d="M113.293 727.585L143.479 727.585L143.479 738.793L113.293 738.793z" stroke="none" fill="#FFF100" fill-rule="nonzero" /><path id="187" transform="matrix(1 0 0 -1 0 841)" d="M143.23 727.585L145.721 727.585L145.721 738.793L143.23 738.793z" stroke="none" fill="#FFF100" fill-rule="nonzero" /><path id="188" transform="matrix(1 0 0 -1 0 841)" d="M145.472 727.585L169.223 727.585L169.223 738.793L145.472 738.793z" stroke="none" fill="#FFF100" fill-rule="nonzero" /><path id="195" transform="matrix(1 0 0 -1 0 841)" d="M168.973 727.585L171.464 727.585L171.464 738.793L168.973 738.793z" stroke="none" fill="#FFF100" fill-rule="nonzero" /><path id="196" transform="matrix(1 0 0 -1 0 841)" d="M171.215 727.585L186.099 727.585L186.099 738.793L171.215 738.793z" stroke="none" fill="#FFF100" fill-rule="nonzero" /><path id="200" transform="matrix(1 0 0 -1 0 841)" d="M185.601 727.585L203.533 727.585L203.533 738.793L185.601 738.793z" stroke="none" fill="#FFF100" fill-rule="nonzero" /><path id="206" transform="matrix(1 0 0 -1 0 841)" d="M203.284 727.585L205.775 727.585L205.775 738.793L203.284 738.793z" stroke="none" fill="#FFF100" fill-rule="nonzero" /><path id="207" transform="matrix(1 0 0 -1 0 841)" d="M205.526 727.585L224.286 727.585L224.286 738.793L205.526 738.793z" stroke="none" fill="#FFF100" fill-rule="nonzero" /><path id="211" transform="matrix(1 0 0 -1 0 841)" d="M224.037 727.585L226.528 727.585L226.528 738.793L224.037 738.793z" stroke="none" fill="#FFF100" fill-rule="nonzero" /><path id="212" transform="matrix(1 0 0 -1 0 841)" d="M226.278 727.585L256.664 727.585L256.664 738.793L226.278 738.793z" stroke="none" fill="#FFF100" fill-rule="nonzero" /><path id="221" transform="matrix(1 0 0 -1 0 841)" d="M256.415 727.585L258.906 727.585L258.906 738.793L256.415 738.793z" stroke="none" fill="#FFF100" fill-rule="nonzero" /><path id="222" transform="matrix(1 0 0 -1 0 841)" d="M258.656 727.585L277.415 727.585L277.415 738.793L258.656 738.793z" stroke="none" fill="#FFF100" fill-rule="nonzero" /><path id="227" transform="matrix(1 0 0 -1 0 841)" d="M277.167 727.585L279.658 727.585L279.658 738.793L277.167 738.793z" stroke="none" fill="#FFF100" fill-rule="nonzero" /><path id="228" transform="matrix(1 0 0 -1 0 841)" d="M279.408 727.585L292.638 727.585L292.638 738.793L279.408 738.793z" stroke="none" fill="#FFF100" fill-rule="nonzero" /><path id="232" transform="matrix(1 0 0 -1 0 841)" d="M292.389 727.585L294.88 727.585L294.88 738.793L292.389 738.793z" stroke="none" fill="#FFF100" fill-rule="nonzero" /><path id="233" transform="matrix(1 0 0 -1 0 841)" d="M294.631 727.585L313.938 727.585L313.938 738.793L294.631 738.793z" stroke="none" fill="#FFF100" fill-rule="nonzero" /><path id="238" transform="matrix(1 0 0 -1 0 841)" d="M313.689 727.585L316.18 727.585L316.18 738.793L313.689 738.793z" stroke="none" fill="#FFF100" fill-rule="nonzero" /><path id="239" transform="matrix(1 0 0 -1 0 841)" d="M315.931 727.585L328.603 727.585L328.603 738.793L315.931 738.793z" stroke="none" fill="#FFF100" fill-rule="nonzero" /><path id="243" transform="matrix(1 0 0 -1 0 841)" d="M328.354 727.585L330.845 727.585L330.845 738.793L328.354 738.793z" stroke="none" fill="#FFF100" fill-rule="nonzero" /><path id="244" transform="matrix(1 0 0 -1 0 841)" d="M330.596 727.585L357.007 727.585L357.007 738.793L330.596 738.793z" stroke="none" fill="#FFF100" fill-rule="nonzero" /><path id="251" transform="matrix(1 0 0 -1 0 841)" d="M356.757 727.585L359.248 727.585L359.248 738.793L356.757 738.793z" stroke="none" fill="#FFF100" fill-rule="nonzero" /><path id="252" transform="matrix(1 0 0 -1 0 841)" d="M358.999 727.585L373.335 727.585L373.335 738.793L358.999 738.793z" stroke="none" fill="#FFF100" fill-rule="nonzero" /><path id="256" transform="matrix(1 0 0 -1 0 841)" d="M373.086 727.585L375.577 727.585L375.577 738.793L373.086 738.793z" stroke="none" fill="#FFF100" fill-rule="nonzero" /><path id="257" transform="matrix(1 0 0 -1 0 841)" d="M375.328 727.585L425.918 727.585L425.918 738.793L375.328 738.793z" stroke="none" fill="#FFF100" fill-rule="nonzero" /><path id="269" transform="matrix(1 0 0 -1 0 841)" d="M425.669 727.585L428.16 727.585L428.16 738.793L425.669 738.793z" stroke="none" fill="#FFF100" fill-rule="nonzero" /><path id="270" transform="matrix(1 0 0 -1 0 841)" d="M427.91 727.585L458.296 727.585L458.296 738.793L427.91 738.793z" stroke="none" fill="#FFF100" fill-rule="nonzero" /><path id="279" transform="matrix(1 0 0 -1 0 841)" d="M458.047 727.585L460.538 727.585L460.538 738.793L458.047 738.793z" stroke="none" fill="#FFF100" fill-rule="nonzero" /><path id="280" transform="matrix(1 0 0 -1 0 841)" d="M460.288 727.585L484.039 727.585L484.039 738.793L460.288 738.793z" stroke="none" fill="#FFF100" fill-rule="nonzero" /><path id="326" transform="matrix(1 0 0 -1 0 841)" d="M198.686 703.525L299.387 703.525" stroke="#000000" stroke-width="0.398" fill="none" /><path id="351" transform="matrix(1 0 0 -1 0 841)" d="M313.946 703.525L364.456 703.525" stroke="#000000" stroke-width="0.398" fill="none" /><path id="416" transform="matrix(1 0 0 -1 0 841)" d="M130.205 660.166L382.472 660.166" stroke="#000000" stroke-width="0.398" fill="none" /><path id="521" transform="matrix(1 0 0 -1 0 841)" d="M233.983 624.698L370.997 624.698" stroke="#000000" stroke-width="0.398" fill="none" /><path id="559" transform="matrix(1 0 0 -1 0 841)" d="M385.557 624.698L467.179 624.698" stroke="#000000" stroke-width="0.398" fill="none" /><path id="641" transform="matrix(1 0 0 -1 0 841)" d="M130.205 581.339L444.738 581.339" stroke="#000000" stroke-width="0.398" fill="none" /></g></g></svg>