<svg xmlns="http://www.w3.org/2000/svg" xmlns:xlink="http://www.w3.org/1999/xlink" id="body_231" preserveAspectRatio="xMinYMin meet" viewBox="0 0 793 1121"><defs><clipPath id="1"><path id="" clip-rule="evenodd" transform="matrix(1 0 0 1 0 0)" d="M0 841L0 -0.8900146L0 -0.8900146L595.276 -0.8900146L595.276 -0.8900146L595.276 841L595.276 841L0 841z" /></clipPath></defs><g transform="matrix(1.333333 0 0 1.333333 0 0)"><g clip-path="url(#1)"><path id="22" transform="matrix(1 0 0 -1 0 841)" d="M85.039 766.564L510.236 766.564" stroke="#000000" stroke-width="0.498" fill="none" /><path id="255" transform="matrix(1 0 0 -1 0 841)" d="M315.946 677.105L338.86 677.105L338.86 688.313L315.946 688.313z" stroke="none" fill="#FFF100" fill-rule="nonzero" /><path id="261" transform="matrix(1 0 0 -1 0 841)" d="M338.611 677.105L341.102 677.105L341.102 688.313L338.611 688.313z" stroke="none" fill="#FFF100" fill-rule="nonzero" /><path id="262" transform="matrix(1 0 0 -1 0 841)" d="M340.853 677.105L359.622 677.105L359.622 688.313L340.853 688.313z" stroke="none" fill="#FFF100" fill-rule="nonzero" /><path id="267" transform="matrix(1 0 0 -1 0 841)" d="M359.373 677.105L361.864 677.105L361.864 688.313L359.373 688.313z" stroke="none" fill="#FFF100" fill-rule="nonzero" /><path id="268" transform="matrix(1 0 0 -1 0 841)" d="M361.615 677.105L376.499 677.105L376.499 688.313L361.615 688.313z" stroke="none" fill="#FFF100" fill-rule="nonzero" /><path id="272" transform="matrix(1 0 0 -1 0 841)" d="M376.25 677.105L378.741 677.105L378.741 688.313L376.25 688.313z" stroke="none" fill="#FFF100" fill-rule="nonzero" /><path id="273" transform="matrix(1 0 0 -1 0 841)" d="M378.491 677.105L396.703 677.105L396.703 688.313L378.491 688.313z" stroke="none" fill="#FFF100" fill-rule="nonzero" /><path id="277" transform="matrix(1 0 0 -1 0 841)" d="M396.454 677.105L398.945 677.105L398.945 688.313L396.454 688.313z" stroke="none" fill="#FFF100" fill-rule="nonzero" /><path id="278" transform="matrix(1 0 0 -1 0 841)" d="M398.695 677.105L411.357 677.105L411.357 688.313L398.695 688.313z" stroke="none" fill="#FFF100" fill-rule="nonzero" /><path id="282" transform="matrix(1 0 0 -1 0 841)" d="M411.109 677.105L413.6 677.105L413.6 688.313L411.109 688.313z" stroke="none" fill="#FFF100" fill-rule="nonzero" /><path id="283" transform="matrix(1 0 0 -1 0 841)" d="M413.35 677.105L427.686 677.105L427.686 688.313L413.35 688.313z" stroke="none" fill="#FFF100" fill-rule="nonzero" /><path id="287" transform="matrix(1 0 0 -1 0 841)" d="M427.188 677.105L442.481 677.105L442.481 688.313L427.188 688.313z" stroke="none" fill="#FFF100" fill-rule="nonzero" /><path id="291" transform="matrix(1 0 0 -1 0 841)" d="M441.983 677.105L466.561 677.105L466.561 688.313L441.983 688.313z" stroke="none" fill="#FFF100" fill-rule="nonzero" /><path id="468" transform="matrix(1 0 0 -1 0 841)" d="M188.942 604.247L231.544 604.247" stroke="#000000" stroke-width="0.398" fill="none" /><path id="581" transform="matrix(1 0 0 -1 0 841)" d="M271.42 562.713L283.594 562.713" stroke="#000000" stroke-width="0.398" fill="none" /><path id="613" transform="matrix(1 0 0 -1 0 841)" d="M274.428 543.699L286.602 543.699" stroke="#000000" stroke-width="0.398" fill="none" /><path id="644" transform="matrix(1 0 0 -1 0 841)" d="M270.562 524.686L282.736 524.686" stroke="#000000" stroke-width="0.398" fill="none" /><path id="677" transform="matrix(1 0 0 -1 0 841)" d="M281.382 505.673L293.556 505.673" stroke="#000000" stroke-width="0.398" fill="none" /><path id="708" transform="matrix(1 0 0 -1 0 841)" d="M271.669 486.659L283.843 486.659" stroke="#000000" stroke-width="0.398" fill="none" /><path id="743" transform="matrix(1 0 0 -1 0 841)" d="M289.123 467.646L301.297 467.646" stroke="#000000" stroke-width="0.398" fill="none" /></g></g></svg>