<svg xmlns="http://www.w3.org/2000/svg" xmlns:xlink="http://www.w3.org/1999/xlink" id="body_49" preserveAspectRatio="xMinYMin meet" viewBox="0 0 793 1121"><defs><clipPath id="1"><path id="" clip-rule="evenodd" transform="matrix(1 0 0 1 0 0)" d="M0 841L0 -0.8900146L0 -0.8900146L595.276 -0.8900146L595.276 -0.8900146L595.276 841L595.276 841L0 841z" /></clipPath></defs><g transform="matrix(1.333333 0 0 1.333333 0 0)"><g clip-path="url(#1)"><path id="41" transform="matrix(1 0 0 -1 0 841)" d="M85.039 766.564L510.236 766.564" stroke="#000000" stroke-width="0.498" fill="none" /><path id="42" transform="matrix(1 0 0 -1 0 841)" d="M85.039 672.5729L85.039 756.8518L85.039 756.8518L510.2413 756.8518L510.2413 756.8518L510.2413 672.5729C 510.2413 670.2246 508.3377 668.321 505.9893 668.321L505.9893 668.321L89.29099 668.321C 86.94264 668.321 85.039 670.2246 85.039 672.5729z" stroke="none" fill="#BFBFFF" fill-rule="nonzero" /><path id="43" transform="matrix(1 0 0 -1 0 841)" d="M86.45631 672.5729L86.45631 756.8518L86.45631 756.8518L508.824 756.8518L508.824 756.8518L508.824 672.5729C 508.824 671.0074 507.5549 669.7383 505.9893 669.7383L505.9893 669.7383L89.29099 669.7383C 87.72543 669.7383 86.45631 671.0074 86.45631 672.5729z" stroke="none" fill="#E6E6FF" fill-rule="nonzero" /></g></g></svg>