<svg xmlns="http://www.w3.org/2000/svg" xmlns:xlink="http://www.w3.org/1999/xlink" id="body_227" preserveAspectRatio="xMinYMin meet" viewBox="0 0 793 1121"><defs><clipPath id="1"><path id="" clip-rule="evenodd" transform="matrix(1 0 0 1 0 0)" d="M0 841L0 -0.8900146L0 -0.8900146L595.276 -0.8900146L595.276 -0.8900146L595.276 841L595.276 841L0 841z" /></clipPath></defs><g transform="matrix(1.333333 0 0 1.333333 0 0)"><g clip-path="url(#1)"><path id="26" transform="matrix(1 0 0 -1 0 841)" d="M85.039 766.564L510.236 766.564" stroke="#000000" stroke-width="0.498" fill="none" /><path id="73" transform="matrix(1 0 0 -1 0 841)" d="M112.063 727.585L128.053 727.585L128.053 738.793L112.063 738.793z" stroke="none" fill="#FFF100" fill-rule="nonzero" /><path id="77" transform="matrix(1 0 0 -1 0 841)" d="M127.804 727.585L130.295 727.585L130.295 738.793L127.804 738.793z" stroke="none" fill="#FFF100" fill-rule="nonzero" /><path id="78" transform="matrix(1 0 0 -1 0 841)" d="M130.046 727.585L144.372 727.585L144.372 738.793L130.046 738.793z" stroke="none" fill="#FFF100" fill-rule="nonzero" /><path id="82" transform="matrix(1 0 0 -1 0 841)" d="M143.874 727.585L147.142 727.585L147.142 738.793L143.874 738.793z" stroke="none" fill="#FFF100" fill-rule="nonzero" /><path id="84" transform="matrix(1 0 0 -1 0 841)" d="M146.643 727.585L162.085 727.585L162.085 738.793L146.643 738.793z" stroke="none" fill="#FFF100" fill-rule="nonzero" /><path id="88" transform="matrix(1 0 0 -1 0 841)" d="M161.836 727.585L164.327 727.585L164.327 738.793L161.836 738.793z" stroke="none" fill="#FFF100" fill-rule="nonzero" /><path id="89" transform="matrix(1 0 0 -1 0 841)" d="M164.077 727.585L183.942 727.585L183.942 738.793L164.077 738.793z" stroke="none" fill="#FFF100" fill-rule="nonzero" /><path id="94" transform="matrix(1 0 0 -1 0 841)" d="M183.694 727.585L186.185 727.585L186.185 738.793L183.694 738.793z" stroke="none" fill="#FFF100" fill-rule="nonzero" /><path id="95" transform="matrix(1 0 0 -1 0 841)" d="M185.935 727.585L194.732 727.585L194.732 738.793L185.935 738.793z" stroke="none" fill="#FFF100" fill-rule="nonzero" /><path id="98" transform="matrix(1 0 0 -1 0 841)" d="M194.483 727.585L196.974 727.585L196.974 738.793L194.483 738.793z" stroke="none" fill="#FFF100" fill-rule="nonzero" /><path id="99" transform="matrix(1 0 0 -1 0 841)" d="M196.725 727.585L201.646 727.585L201.646 738.793L196.725 738.793z" stroke="none" fill="#FFF100" fill-rule="nonzero" /><path id="101" transform="matrix(1 0 0 -1 0 841)" d="M201.397 727.585L203.888 727.585L203.888 738.793L201.397 738.793z" stroke="none" fill="#FFF100" fill-rule="nonzero" /><path id="102" transform="matrix(1 0 0 -1 0 841)" d="M203.639 727.585L216.859 727.585L216.859 738.793L203.639 738.793z" stroke="none" fill="#FFF100" fill-rule="nonzero" /><path id="106" transform="matrix(1 0 0 -1 0 841)" d="M216.361 727.585L233.457 727.585L233.457 738.793L216.361 738.793z" stroke="none" fill="#FFF100" fill-rule="nonzero" /><path id="111" transform="matrix(1 0 0 -1 0 841)" d="M233.208 727.585L235.699 727.585L235.699 738.793L233.208 738.793z" stroke="none" fill="#FFF100" fill-rule="nonzero" /><path id="112" transform="matrix(1 0 0 -1 0 841)" d="M235.449 727.585L257.277 727.585L257.277 738.793L235.449 738.793z" stroke="none" fill="#FFF100" fill-rule="nonzero" /><path id="118" transform="matrix(1 0 0 -1 0 841)" d="M257.028 727.585L259.519 727.585L259.519 738.793L257.028 738.793z" stroke="none" fill="#FFF100" fill-rule="nonzero" /><path id="119" transform="matrix(1 0 0 -1 0 841)" d="M259.27 727.585L266.413 727.585L266.413 738.793L259.27 738.793z" stroke="none" fill="#FFF100" fill-rule="nonzero" /><path id="122" transform="matrix(1 0 0 -1 0 841)" d="M266.164 727.585L268.655 727.585L268.655 738.793L266.164 738.793z" stroke="none" fill="#FFF100" fill-rule="nonzero" /><path id="123" transform="matrix(1 0 0 -1 0 841)" d="M268.405 727.585L278.866 727.585L278.866 738.793L268.405 738.793z" stroke="none" fill="#FFF100" fill-rule="nonzero" /><path id="126" transform="matrix(1 0 0 -1 0 841)" d="M278.368 727.585L303.214 727.585L303.214 738.793L278.368 738.793z" stroke="none" fill="#FFF100" fill-rule="nonzero" /><path id="133" transform="matrix(1 0 0 -1 0 841)" d="M302.965 727.585L305.456 727.585L305.456 738.793L302.965 738.793z" stroke="none" fill="#FFF100" fill-rule="nonzero" /><path id="134" transform="matrix(1 0 0 -1 0 841)" d="M305.207 727.585L315.668 727.585L315.668 738.793L305.207 738.793z" stroke="none" fill="#FFF100" fill-rule="nonzero" /><path id="137" transform="matrix(1 0 0 -1 0 841)" d="M315.419 727.585L317.91 727.585L317.91 738.793L315.419 738.793z" stroke="none" fill="#FFF100" fill-rule="nonzero" /><path id="138" transform="matrix(1 0 0 -1 0 841)" d="M317.66 727.585L325.66 727.585L325.66 738.793L317.66 738.793z" stroke="none" fill="#FFF100" fill-rule="nonzero" /><path id="141" transform="matrix(1 0 0 -1 0 841)" d="M325.162 727.585L338.392 727.585L338.392 738.793L325.162 738.793z" stroke="none" fill="#FFF100" fill-rule="nonzero" /><path id="145" transform="matrix(1 0 0 -1 0 841)" d="M337.894 727.585L351.124 727.585L351.124 738.793L337.894 738.793z" stroke="none" fill="#FFF100" fill-rule="nonzero" /><path id="149" transform="matrix(1 0 0 -1 0 841)" d="M350.875 727.585L353.366 727.585L353.366 738.793L350.875 738.793z" stroke="none" fill="#FFF100" fill-rule="nonzero" /><path id="150" transform="matrix(1 0 0 -1 0 841)" d="M353.117 727.585L365.789 727.585L365.789 738.793L353.117 738.793z" stroke="none" fill="#FFF100" fill-rule="nonzero" /><path id="154" transform="matrix(1 0 0 -1 0 841)" d="M365.54 727.585L368.031 727.585L368.031 738.793L365.54 738.793z" stroke="none" fill="#FFF100" fill-rule="nonzero" /><path id="155" transform="matrix(1 0 0 -1 0 841)" d="M367.782 727.585L381.002 727.585L381.002 738.793L367.782 738.793z" stroke="none" fill="#FFF100" fill-rule="nonzero" /><path id="159" transform="matrix(1 0 0 -1 0 841)" d="M380.504 727.585L397.6 727.585L397.6 738.793L380.504 738.793z" stroke="none" fill="#FFF100" fill-rule="nonzero" /><path id="164" transform="matrix(1 0 0 -1 0 841)" d="M397.35 727.585L399.841 727.585L399.841 738.793L397.35 738.793z" stroke="none" fill="#FFF100" fill-rule="nonzero" /><path id="165" transform="matrix(1 0 0 -1 0 841)" d="M399.592 727.585L410.053 727.585L410.053 738.793L399.592 738.793z" stroke="none" fill="#FFF100" fill-rule="nonzero" /><path id="168" transform="matrix(1 0 0 -1 0 841)" d="M409.804 727.585L412.295 727.585L412.295 738.793L409.804 738.793z" stroke="none" fill="#FFF100" fill-rule="nonzero" /><path id="169" transform="matrix(1 0 0 -1 0 841)" d="M412.045 727.585L429.978 727.585L429.978 738.793L412.045 738.793z" stroke="none" fill="#FFF100" fill-rule="nonzero" /><path id="277" transform="matrix(1 0 0 -1 0 841)" d="M112.063 682.753L122.833 682.753L122.833 693.961L112.063 693.961z" stroke="none" fill="#FFF100" fill-rule="nonzero" /><path id="280" transform="matrix(1 0 0 -1 0 841)" d="M122.584 682.753L125.075 682.753L125.075 693.961L122.584 693.961z" stroke="none" fill="#FFF100" fill-rule="nonzero" /><path id="281" transform="matrix(1 0 0 -1 0 841)" d="M124.825 682.753L134.728 682.753L134.728 693.961L124.825 693.961z" stroke="none" fill="#FFF100" fill-rule="nonzero" /><path id="284" transform="matrix(1 0 0 -1 0 841)" d="M134.23 682.753L145.239 682.753L145.239 693.961L134.23 693.961z" stroke="none" fill="#FFF100" fill-rule="nonzero" /><path id="288" transform="matrix(1 0 0 -1 0 841)" d="M144.74 682.753L165.163 682.753L165.163 693.961L144.74 693.961z" stroke="none" fill="#FFF100" fill-rule="nonzero" /><path id="293" transform="matrix(1 0 0 -1 0 841)" d="M164.914 682.753L167.405 682.753L167.405 693.961L164.914 693.961z" stroke="none" fill="#FFF100" fill-rule="nonzero" /><path id="294" transform="matrix(1 0 0 -1 0 841)" d="M167.156 682.753L187.021 682.753L187.021 693.961L167.156 693.961z" stroke="none" fill="#FFF100" fill-rule="nonzero" /><path id="299" transform="matrix(1 0 0 -1 0 841)" d="M186.772 682.753L189.263 682.753L189.263 693.961L186.772 693.961z" stroke="none" fill="#FFF100" fill-rule="nonzero" /><path id="300" transform="matrix(1 0 0 -1 0 841)" d="M189.014 682.753L202.234 682.753L202.234 693.961L189.014 693.961z" stroke="none" fill="#FFF100" fill-rule="nonzero" /><path id="304" transform="matrix(1 0 0 -1 0 841)" d="M201.736 682.753L218.832 682.753L218.832 693.961L201.736 693.961z" stroke="none" fill="#FFF100" fill-rule="nonzero" /><path id="309" transform="matrix(1 0 0 -1 0 841)" d="M218.334 682.753L232.66 682.753L232.66 693.961L218.334 693.961z" stroke="none" fill="#FFF100" fill-rule="nonzero" /><path id="313" transform="matrix(1 0 0 -1 0 841)" d="M232.411 682.753L234.902 682.753L234.902 693.961L232.411 693.961z" stroke="none" fill="#FFF100" fill-rule="nonzero" /><path id="314" transform="matrix(1 0 0 -1 0 841)" d="M234.652 682.753L239.573 682.753L239.573 693.961L234.652 693.961z" stroke="none" fill="#FFF100" fill-rule="nonzero" /><path id="316" transform="matrix(1 0 0 -1 0 841)" d="M239.325 682.753L241.816 682.753L241.816 693.961L239.325 693.961z" stroke="none" fill="#FFF100" fill-rule="nonzero" /><path id="317" transform="matrix(1 0 0 -1 0 841)" d="M241.566 682.753L257.556 682.753L257.556 693.961L241.566 693.961z" stroke="none" fill="#FFF100" fill-rule="nonzero" /><path id="322" transform="matrix(1 0 0 -1 0 841)" d="M257.307 682.753L259.798 682.753L259.798 693.961L257.307 693.961z" stroke="none" fill="#FFF100" fill-rule="nonzero" /><path id="323" transform="matrix(1 0 0 -1 0 841)" d="M259.549 682.753L266.692 682.753L266.692 693.961L259.549 693.961z" stroke="none" fill="#FFF100" fill-rule="nonzero" /><path id="326" transform="matrix(1 0 0 -1 0 841)" d="M266.443 682.753L268.934 682.753L268.934 693.961L266.443 693.961z" stroke="none" fill="#FFF100" fill-rule="nonzero" /><path id="327" transform="matrix(1 0 0 -1 0 841)" d="M268.684 682.753L277.481 682.753L277.481 693.961L268.684 693.961z" stroke="none" fill="#FFF100" fill-rule="nonzero" /><path id="330" transform="matrix(1 0 0 -1 0 841)" d="M277.232 682.753L279.723 682.753L279.723 693.961L277.232 693.961z" stroke="none" fill="#FFF100" fill-rule="nonzero" /><path id="331" transform="matrix(1 0 0 -1 0 841)" d="M279.474 682.753L292.146 682.753L292.146 693.961L279.474 693.961z" stroke="none" fill="#FFF100" fill-rule="nonzero" /><path id="335" transform="matrix(1 0 0 -1 0 841)" d="M291.897 682.753L294.388 682.753L294.388 693.961L291.897 693.961z" stroke="none" fill="#FFF100" fill-rule="nonzero" /><path id="336" transform="matrix(1 0 0 -1 0 841)" d="M294.138 682.753L321.475 682.753L321.475 693.961L294.138 693.961z" stroke="none" fill="#FFF100" fill-rule="nonzero" /><path id="343" transform="matrix(1 0 0 -1 0 841)" d="M321.227 682.753L323.718 682.753L323.718 693.961L321.227 693.961z" stroke="none" fill="#FFF100" fill-rule="nonzero" /><path id="344" transform="matrix(1 0 0 -1 0 841)" d="M323.468 682.753L331.468 682.753L331.468 693.961L323.468 693.961z" stroke="none" fill="#FFF100" fill-rule="nonzero" /><path id="347" transform="matrix(1 0 0 -1 0 841)" d="M330.97 682.753L348.624 682.753L348.624 693.961L330.97 693.961z" stroke="none" fill="#FFF100" fill-rule="nonzero" /><path id="352" transform="matrix(1 0 0 -1 0 841)" d="M348.375 682.753L350.866 682.753L350.866 693.961L348.375 693.961z" stroke="none" fill="#FFF100" fill-rule="nonzero" /><path id="353" transform="matrix(1 0 0 -1 0 841)" d="M350.616 682.753L363.288 682.753L363.288 693.961L350.616 693.961z" stroke="none" fill="#FFF100" fill-rule="nonzero" /><path id="357" transform="matrix(1 0 0 -1 0 841)" d="M363.039 682.753L365.53 682.753L365.53 693.961L363.039 693.961z" stroke="none" fill="#FFF100" fill-rule="nonzero" /><path id="358" transform="matrix(1 0 0 -1 0 841)" d="M365.281 682.753L381.271 682.753L381.271 693.961L365.281 693.961z" stroke="none" fill="#FFF100" fill-rule="nonzero" /><path id="363" transform="matrix(1 0 0 -1 0 841)" d="M381.022 682.753L383.513 682.753L383.513 693.961L381.022 693.961z" stroke="none" fill="#FFF100" fill-rule="nonzero" /><path id="364" transform="matrix(1 0 0 -1 0 841)" d="M383.263 682.753L393.724 682.753L393.724 693.961L383.263 693.961z" stroke="none" fill="#FFF100" fill-rule="nonzero" /><path id="367" transform="matrix(1 0 0 -1 0 841)" d="M393.475 682.753L395.966 682.753L395.966 693.961L393.475 693.961z" stroke="none" fill="#FFF100" fill-rule="nonzero" /><path id="368" transform="matrix(1 0 0 -1 0 841)" d="M395.717 682.753L408.389 682.753L408.389 693.961L395.717 693.961z" stroke="none" fill="#FFF100" fill-rule="nonzero" /><path id="372" transform="matrix(1 0 0 -1 0 841)" d="M408.14 682.753L410.631 682.753L410.631 693.961L408.14 693.961z" stroke="none" fill="#FFF100" fill-rule="nonzero" /><path id="373" transform="matrix(1 0 0 -1 0 841)" d="M410.382 682.753L437.719 682.753L437.719 693.961L410.382 693.961z" stroke="none" fill="#FFF100" fill-rule="nonzero" /><path id="587" transform="matrix(1 0 0 -1 0 841)" d="M112.063 560.213L122.833 560.213L122.833 571.421L112.063 571.421z" stroke="none" fill="#FFF100" fill-rule="nonzero" /><path id="590" transform="matrix(1 0 0 -1 0 841)" d="M122.495 560.213L124.982 560.213L124.982 571.421L122.495 571.421z" stroke="none" fill="#FFF100" fill-rule="nonzero" /><path id="591" transform="matrix(1 0 0 -1 0 841)" d="M124.733 560.213L140.733 560.213L140.733 571.421L124.733 571.421z" stroke="none" fill="#FFF100" fill-rule="nonzero" /><path id="595" transform="matrix(1 0 0 -1 0 841)" d="M140.36 560.213L142.847 560.213L142.847 571.421L140.36 571.421z" stroke="none" fill="#FFF100" fill-rule="nonzero" /><path id="596" transform="matrix(1 0 0 -1 0 841)" d="M142.598 560.213L155.27 560.213L155.27 571.421L142.598 571.421z" stroke="none" fill="#FFF100" fill-rule="nonzero" /><path id="600" transform="matrix(1 0 0 -1 0 841)" d="M154.924 560.213L157.411 560.213L157.411 571.421L154.924 571.421z" stroke="none" fill="#FFF100" fill-rule="nonzero" /><path id="601" transform="matrix(1 0 0 -1 0 841)" d="M157.162 560.213L170.382 560.213L170.382 571.421L157.162 571.421z" stroke="none" fill="#FFF100" fill-rule="nonzero" /><path id="605" transform="matrix(1 0 0 -1 0 841)" d="M169.782 560.213L186.878 560.213L186.878 571.421L169.782 571.421z" stroke="none" fill="#FFF100" fill-rule="nonzero" /><path id="610" transform="matrix(1 0 0 -1 0 841)" d="M186.247 560.213L200.573 560.213L200.573 571.421L186.247 571.421z" stroke="none" fill="#FFF100" fill-rule="nonzero" /><path id="614" transform="matrix(1 0 0 -1 0 841)" d="M200.214 560.213L202.701 560.213L202.701 571.421L200.214 571.421z" stroke="none" fill="#FFF100" fill-rule="nonzero" /><path id="615" transform="matrix(1 0 0 -1 0 841)" d="M202.452 560.213L211.249 560.213L211.249 571.421L202.452 571.421z" stroke="none" fill="#FFF100" fill-rule="nonzero" /><path id="618" transform="matrix(1 0 0 -1 0 841)" d="M210.933 560.213L213.42 560.213L213.42 571.421L210.933 571.421z" stroke="none" fill="#FFF100" fill-rule="nonzero" /><path id="619" transform="matrix(1 0 0 -1 0 841)" d="M213.171 560.213L218.092 560.213L218.092 571.421L213.171 571.421z" stroke="none" fill="#FFF100" fill-rule="nonzero" /><path id="621" transform="matrix(1 0 0 -1 0 841)" d="M217.808 560.213L220.295 560.213L220.295 571.421L217.808 571.421z" stroke="none" fill="#FFF100" fill-rule="nonzero" /><path id="622" transform="matrix(1 0 0 -1 0 841)" d="M220.046 560.213L238.258 560.213L238.258 571.421L220.046 571.421z" stroke="none" fill="#FFF100" fill-rule="nonzero" /><path id="626" transform="matrix(1 0 0 -1 0 841)" d="M237.618 560.213L252.931 560.213L252.931 571.421L237.618 571.421z" stroke="none" fill="#FFF100" fill-rule="nonzero" /><path id="631" transform="matrix(1 0 0 -1 0 841)" d="M252.56 560.213L255.047 560.213L255.047 571.421L252.56 571.421z" stroke="none" fill="#FFF100" fill-rule="nonzero" /><path id="632" transform="matrix(1 0 0 -1 0 841)" d="M254.798 560.213L270.798 560.213L270.798 571.421L254.798 571.421z" stroke="none" fill="#FFF100" fill-rule="nonzero" /><path id="636" transform="matrix(1 0 0 -1 0 841)" d="M270.175 560.213L276.212 560.213L276.212 571.421L270.175 571.421z" stroke="none" fill="#FFF100" fill-rule="nonzero" /><path id="639" transform="matrix(1 0 0 -1 0 841)" d="M275.67 560.213L288.9 560.213L288.9 571.421L275.67 571.421z" stroke="none" fill="#FFF100" fill-rule="nonzero" /><path id="643" transform="matrix(1 0 0 -1 0 841)" d="M288.549 560.213L291.036 560.213L291.036 571.421L288.549 571.421z" stroke="none" fill="#FFF100" fill-rule="nonzero" /><path id="644" transform="matrix(1 0 0 -1 0 841)" d="M290.787 560.213L303.459 560.213L303.459 571.421L290.787 571.421z" stroke="none" fill="#FFF100" fill-rule="nonzero" /><path id="648" transform="matrix(1 0 0 -1 0 841)" d="M303.113 560.213L305.6 560.213L305.6 571.421L303.113 571.421z" stroke="none" fill="#FFF100" fill-rule="nonzero" /><path id="649" transform="matrix(1 0 0 -1 0 841)" d="M305.351 560.213L323.563 560.213L323.563 571.421L305.351 571.421z" stroke="none" fill="#FFF100" fill-rule="nonzero" /><path id="653" transform="matrix(1 0 0 -1 0 841)" d="M322.923 560.213L336.143 560.213L336.143 571.421L322.923 571.421z" stroke="none" fill="#FFF100" fill-rule="nonzero" /><path id="657" transform="matrix(1 0 0 -1 0 841)" d="M335.793 560.213L338.28 560.213L338.28 571.421L335.793 571.421z" stroke="none" fill="#FFF100" fill-rule="nonzero" /><path id="658" transform="matrix(1 0 0 -1 0 841)" d="M338.031 560.213L348.492 560.213L348.492 571.421L338.031 571.421z" stroke="none" fill="#FFF100" fill-rule="nonzero" /><path id="661" transform="matrix(1 0 0 -1 0 841)" d="M348.163 560.213L350.65 560.213L350.65 571.421L348.163 571.421z" stroke="none" fill="#FFF100" fill-rule="nonzero" /><path id="662" transform="matrix(1 0 0 -1 0 841)" d="M350.401 560.213L363.073 560.213L363.073 571.421L350.401 571.421z" stroke="none" fill="#FFF100" fill-rule="nonzero" /><path id="666" transform="matrix(1 0 0 -1 0 841)" d="M362.726 560.213L365.213 560.213L365.213 571.421L362.726 571.421z" stroke="none" fill="#FFF100" fill-rule="nonzero" /><path id="667" transform="matrix(1 0 0 -1 0 841)" d="M364.964 560.213L379.29 560.213L379.29 571.421L364.964 571.421z" stroke="none" fill="#FFF100" fill-rule="nonzero" /><path id="671" transform="matrix(1 0 0 -1 0 841)" d="M378.682 560.213L381.95 560.213L381.95 571.421L378.682 571.421z" stroke="none" fill="#FFF100" fill-rule="nonzero" /><path id="673" transform="matrix(1 0 0 -1 0 841)" d="M381.429 560.213L396.871 560.213L396.871 571.421L381.429 571.421z" stroke="none" fill="#FFF100" fill-rule="nonzero" /><path id="677" transform="matrix(1 0 0 -1 0 841)" d="M396.502 560.213L398.989 560.213L398.989 571.421L396.502 571.421z" stroke="none" fill="#FFF100" fill-rule="nonzero" /><path id="678" transform="matrix(1 0 0 -1 0 841)" d="M398.74 560.213L420.877 560.213L420.877 571.421L398.74 571.421z" stroke="none" fill="#FFF100" fill-rule="nonzero" /><path id="684" transform="matrix(1 0 0 -1 0 841)" d="M420.202 560.213L425.123 560.213L425.123 571.421L420.202 571.421z" stroke="none" fill="#FFF100" fill-rule="nonzero" /><path id="686" transform="matrix(1 0 0 -1 0 841)" d="M424.59 560.213L440.032 560.213L440.032 571.421L424.59 571.421z" stroke="none" fill="#FFF100" fill-rule="nonzero" /><path id="691" transform="matrix(1 0 0 -1 0 841)" d="M439.663 560.213L442.15 560.213L442.15 571.421L439.663 571.421z" stroke="none" fill="#FFF100" fill-rule="nonzero" /><path id="692" transform="matrix(1 0 0 -1 0 841)" d="M441.901 560.213L450.698 560.213L450.698 571.421L441.901 571.421z" stroke="none" fill="#FFF100" fill-rule="nonzero" /><path id="695" transform="matrix(1 0 0 -1 0 841)" d="M450.383 560.213L452.87 560.213L452.87 571.421L450.383 571.421z" stroke="none" fill="#FFF100" fill-rule="nonzero" /><path id="696" transform="matrix(1 0 0 -1 0 841)" d="M452.621 560.213L465.293 560.213L465.293 571.421L452.621 571.421z" stroke="none" fill="#FFF100" fill-rule="nonzero" /><path id="700" transform="matrix(1 0 0 -1 0 841)" d="M464.947 560.213L467.434 560.213L467.434 571.421L464.947 571.421z" stroke="none" fill="#FFF100" fill-rule="nonzero" /><path id="701" transform="matrix(1 0 0 -1 0 841)" d="M467.185 560.213L480.405 560.213L480.405 571.421L467.185 571.421z" stroke="none" fill="#FFF100" fill-rule="nonzero" /><path id="705" transform="matrix(1 0 0 -1 0 841)" d="M479.805 560.213L496.901 560.213L496.901 571.421L479.805 571.421z" stroke="none" fill="#FFF100" fill-rule="nonzero" /><path id="710" transform="matrix(1 0 0 -1 0 841)" d="M496.27 560.213L510.596 560.213L510.596 571.421L496.27 571.421z" stroke="none" fill="#FFF100" fill-rule="nonzero" /><path id="714" transform="matrix(1 0 0 -1 0 841)" d="M112.063 545.269L134.3 545.269L134.3 556.477L112.063 556.477z" stroke="none" fill="#FFF100" fill-rule="nonzero" /><path id="720" transform="matrix(1 0 0 -1 0 841)" d="M134.051 545.269L136.542 545.269L136.542 556.477L134.051 556.477z" stroke="none" fill="#FFF100" fill-rule="nonzero" /><path id="721" transform="matrix(1 0 0 -1 0 841)" d="M136.292 545.269L144.541 545.269L144.541 556.477L136.292 556.477z" stroke="none" fill="#FFF100" fill-rule="nonzero" /><path id="724" transform="matrix(1 0 0 -1 0 841)" d="M144.292 545.269L146.783 545.269L146.783 556.477L144.292 556.477z" stroke="none" fill="#FFF100" fill-rule="nonzero" /><path id="725" transform="matrix(1 0 0 -1 0 841)" d="M146.534 545.269L159.206 545.269L159.206 556.477L146.534 556.477z" stroke="none" fill="#FFF100" fill-rule="nonzero" /><path id="729" transform="matrix(1 0 0 -1 0 841)" d="M158.957 545.269L161.448 545.269L161.448 556.477L158.957 556.477z" stroke="none" fill="#FFF100" fill-rule="nonzero" /><path id="730" transform="matrix(1 0 0 -1 0 841)" d="M161.198 545.269L179.958 545.269L179.958 556.477L161.198 556.477z" stroke="none" fill="#FFF100" fill-rule="nonzero" /><path id="735" transform="matrix(1 0 0 -1 0 841)" d="M179.46 545.269L197.392 545.269L197.392 556.477L179.46 556.477z" stroke="none" fill="#FFF100" fill-rule="nonzero" /><path id="857" transform="matrix(1 0 0 -1 0 841)" d="M112.063 410.431L122.833 410.431L122.833 421.639L112.063 421.639z" stroke="none" fill="#FFF100" fill-rule="nonzero" /><path id="860" transform="matrix(1 0 0 -1 0 841)" d="M122.805 410.431L125.382 410.431L125.382 421.639L122.805 421.639z" stroke="none" fill="#FFF100" fill-rule="nonzero" /><path id="861" transform="matrix(1 0 0 -1 0 841)" d="M125.133 410.431L133.382 410.431L133.382 421.639L125.133 421.639z" stroke="none" fill="#FFF100" fill-rule="nonzero" /><path id="864" transform="matrix(1 0 0 -1 0 841)" d="M133.039 410.431L158.423 410.431L158.423 421.639L133.039 421.639z" stroke="none" fill="#FFF100" fill-rule="nonzero" /><path id="871" transform="matrix(1 0 0 -1 0 841)" d="M158.672 410.431L161.249 410.431L161.249 421.639L158.672 421.639z" stroke="none" fill="#FFF100" fill-rule="nonzero" /><path id="872" transform="matrix(1 0 0 -1 0 841)" d="M161 410.431L165.921 410.431L165.921 421.639L161 421.639z" stroke="none" fill="#FFF100" fill-rule="nonzero" /><path id="874" transform="matrix(1 0 0 -1 0 841)" d="M165.761 410.431L168.338 410.431L168.338 421.639L165.761 421.639z" stroke="none" fill="#FFF100" fill-rule="nonzero" /><path id="875" transform="matrix(1 0 0 -1 0 841)" d="M168.089 410.431L189.917 410.431L189.917 421.639L168.089 421.639z" stroke="none" fill="#FFF100" fill-rule="nonzero" /><path id="881" transform="matrix(1 0 0 -1 0 841)" d="M190.1 410.431L192.677 410.431L192.677 421.639L190.1 421.639z" stroke="none" fill="#FFF100" fill-rule="nonzero" /><path id="882" transform="matrix(1 0 0 -1 0 841)" d="M192.428 410.431L202.889 410.431L202.889 421.639L192.428 421.639z" stroke="none" fill="#FFF100" fill-rule="nonzero" /><path id="885" transform="matrix(1 0 0 -1 0 841)" d="M202.839 410.431L205.416 410.431L205.416 421.639L202.839 421.639z" stroke="none" fill="#FFF100" fill-rule="nonzero" /><path id="886" transform="matrix(1 0 0 -1 0 841)" d="M205.167 410.431L210.088 410.431L210.088 421.639L205.167 421.639z" stroke="none" fill="#FFF100" fill-rule="nonzero" /><path id="888" transform="matrix(1 0 0 -1 0 841)" d="M209.928 410.431L212.505 410.431L212.505 421.639L209.928 421.639z" stroke="none" fill="#FFF100" fill-rule="nonzero" /><path id="889" transform="matrix(1 0 0 -1 0 841)" d="M212.256 410.431L225.476 410.431L225.476 421.639L212.256 421.639z" stroke="none" fill="#FFF100" fill-rule="nonzero" /><path id="893" transform="matrix(1 0 0 -1 0 841)" d="M225.233 410.431L244.819 410.431L244.819 421.639L225.233 421.639z" stroke="none" fill="#FFF100" fill-rule="nonzero" /><path id="899" transform="matrix(1 0 0 -1 0 841)" d="M244.952 410.431L247.529 410.431L247.529 421.639L244.952 421.639z" stroke="none" fill="#FFF100" fill-rule="nonzero" /><path id="900" transform="matrix(1 0 0 -1 0 841)" d="M247.28 410.431L262.164 410.431L262.164 421.639L247.28 421.639z" stroke="none" fill="#FFF100" fill-rule="nonzero" /><path id="904" transform="matrix(1 0 0 -1 0 841)" d="M262.203 410.431L264.78 410.431L264.78 421.639L262.203 421.639z" stroke="none" fill="#FFF100" fill-rule="nonzero" /><path id="905" transform="matrix(1 0 0 -1 0 841)" d="M264.531 410.431L277.203 410.431L277.203 421.639L264.531 421.639z" stroke="none" fill="#FFF100" fill-rule="nonzero" /><path id="909" transform="matrix(1 0 0 -1 0 841)" d="M277.198 410.431L279.775 410.431L279.775 421.639L277.198 421.639z" stroke="none" fill="#FFF100" fill-rule="nonzero" /><path id="910" transform="matrix(1 0 0 -1 0 841)" d="M279.526 410.431L293.852 410.431L293.852 421.639L279.526 421.639z" stroke="none" fill="#FFF100" fill-rule="nonzero" /><path id="914" transform="matrix(1 0 0 -1 0 841)" d="M293.631 410.431L296.899 410.431L296.899 421.639L293.631 421.639z" stroke="none" fill="#FFF100" fill-rule="nonzero" /><path id="916" transform="matrix(1 0 0 -1 0 841)" d="M296.456 410.431L311.898 410.431L311.898 421.639L296.456 421.639z" stroke="none" fill="#FFF100" fill-rule="nonzero" /><path id="920" transform="matrix(1 0 0 -1 0 841)" d="M311.947 410.431L314.524 410.431L314.524 421.639L311.947 421.639z" stroke="none" fill="#FFF100" fill-rule="nonzero" /><path id="921" transform="matrix(1 0 0 -1 0 841)" d="M314.275 410.431L336.412 410.431L336.412 421.639L314.275 421.639z" stroke="none" fill="#FFF100" fill-rule="nonzero" /><path id="927" transform="matrix(1 0 0 -1 0 841)" d="M336.357 410.431L341.278 410.431L341.278 421.639L336.357 421.639z" stroke="none" fill="#FFF100" fill-rule="nonzero" /><path id="929" transform="matrix(1 0 0 -1 0 841)" d="M340.869 410.431L356.311 410.431L356.311 421.639L340.869 421.639z" stroke="none" fill="#FFF100" fill-rule="nonzero" /><path id="934" transform="matrix(1 0 0 -1 0 841)" d="M356.36 410.431L358.937 410.431L358.937 421.639L356.36 421.639z" stroke="none" fill="#FFF100" fill-rule="nonzero" /><path id="935" transform="matrix(1 0 0 -1 0 841)" d="M358.689 410.431L367.486 410.431L367.486 421.639L358.689 421.639z" stroke="none" fill="#FFF100" fill-rule="nonzero" /><path id="938" transform="matrix(1 0 0 -1 0 841)" d="M367.402 410.431L369.979 410.431L369.979 421.639L367.402 421.639z" stroke="none" fill="#FFF100" fill-rule="nonzero" /><path id="939" transform="matrix(1 0 0 -1 0 841)" d="M369.731 410.431L382.403 410.431L382.403 421.639L369.731 421.639z" stroke="none" fill="#FFF100" fill-rule="nonzero" /><path id="943" transform="matrix(1 0 0 -1 0 841)" d="M382.397 410.431L384.974 410.431L384.974 421.639L382.397 421.639z" stroke="none" fill="#FFF100" fill-rule="nonzero" /><path id="944" transform="matrix(1 0 0 -1 0 841)" d="M384.726 410.431L397.946 410.431L397.946 421.639L384.726 421.639z" stroke="none" fill="#FFF100" fill-rule="nonzero" /><path id="948" transform="matrix(1 0 0 -1 0 841)" d="M397.702 410.431L414.798 410.431L414.798 421.639L397.702 421.639z" stroke="none" fill="#FFF100" fill-rule="nonzero" /><path id="953" transform="matrix(1 0 0 -1 0 841)" d="M414.881 410.431L417.458 410.431L417.458 421.639L414.881 421.639z" stroke="none" fill="#FFF100" fill-rule="nonzero" /><path id="954" transform="matrix(1 0 0 -1 0 841)" d="M417.209 410.431L425.458 410.431L425.458 421.639L417.209 421.639z" stroke="none" fill="#FFF100" fill-rule="nonzero" /><path id="957" transform="matrix(1 0 0 -1 0 841)" d="M425.364 410.431L427.941 410.431L427.941 421.639L425.364 421.639z" stroke="none" fill="#FFF100" fill-rule="nonzero" /><path id="958" transform="matrix(1 0 0 -1 0 841)" d="M427.692 410.431L432.255 410.431L432.255 421.639L427.692 421.639z" stroke="none" fill="#FFF100" fill-rule="nonzero" /><path id="960" transform="matrix(1 0 0 -1 0 841)" d="M432.087 410.431L434.664 410.431L434.664 421.639L432.087 421.639z" stroke="none" fill="#FFF100" fill-rule="nonzero" /><path id="961" transform="matrix(1 0 0 -1 0 841)" d="M434.415 410.431L439.894 410.431L439.894 421.639L434.415 421.639z" stroke="none" fill="#FFF100" fill-rule="nonzero" /><path id="963" transform="matrix(1 0 0 -1 0 841)" d="M439.745 410.431L442.322 410.431L442.322 421.639L439.745 421.639z" stroke="none" fill="#FFF100" fill-rule="nonzero" /><path id="964" transform="matrix(1 0 0 -1 0 841)" d="M442.073 410.431L446.636 410.431L446.636 421.639L442.073 421.639z" stroke="none" fill="#FFF100" fill-rule="nonzero" /><path id="966" transform="matrix(1 0 0 -1 0 841)" d="M446.469 410.431L449.046 410.431L449.046 421.639L446.469 421.639z" stroke="none" fill="#FFF100" fill-rule="nonzero" /><path id="967" transform="matrix(1 0 0 -1 0 841)" d="M448.797 410.431L463.681 410.431L463.681 421.639L448.797 421.639z" stroke="none" fill="#FFF100" fill-rule="nonzero" /><path id="971" transform="matrix(1 0 0 -1 0 841)" d="M463.72 410.431L466.297 410.431L466.297 421.639L463.72 421.639z" stroke="none" fill="#FFF100" fill-rule="nonzero" /><path id="972" transform="matrix(1 0 0 -1 0 841)" d="M466.048 410.431L482.048 410.431L482.048 421.639L466.048 421.639z" stroke="none" fill="#FFF100" fill-rule="nonzero" /><path id="976" transform="matrix(1 0 0 -1 0 841)" d="M481.859 410.431L487.896 410.431L487.896 421.639L481.859 421.639z" stroke="none" fill="#FFF100" fill-rule="nonzero" /><path id="979" transform="matrix(1 0 0 -1 0 841)" d="M487.509 410.431L500.739 410.431L500.739 421.639L487.509 421.639z" stroke="none" fill="#FFF100" fill-rule="nonzero" /><path id="983" transform="matrix(1 0 0 -1 0 841)" d="M500.745 410.431L503.322 410.431L503.322 421.639L500.745 421.639z" stroke="none" fill="#FFF100" fill-rule="nonzero" /><path id="984" transform="matrix(1 0 0 -1 0 841)" d="M503.073 410.431L509.11 410.431L509.11 421.639L503.073 421.639z" stroke="none" fill="#FFF100" fill-rule="nonzero" /><path id="987" transform="matrix(1 0 0 -1 0 841)" d="M112.063 395.487L134.15 395.487L134.15 406.695L112.063 406.695z" stroke="none" fill="#FFF100" fill-rule="nonzero" /><path id="993" transform="matrix(1 0 0 -1 0 841)" d="M133.901 395.487L136.392 395.487L136.392 406.695L133.901 406.695z" stroke="none" fill="#FFF100" fill-rule="nonzero" /><path id="994" transform="matrix(1 0 0 -1 0 841)" d="M136.142 395.487L148.814 395.487L148.814 406.695L136.142 406.695z" stroke="none" fill="#FFF100" fill-rule="nonzero" /><path id="998" transform="matrix(1 0 0 -1 0 841)" d="M148.566 395.487L151.057 395.487L151.057 406.695L148.566 406.695z" stroke="none" fill="#FFF100" fill-rule="nonzero" /><path id="999" transform="matrix(1 0 0 -1 0 841)" d="M150.807 395.487L169.019 395.487L169.019 406.695L150.807 406.695z" stroke="none" fill="#FFF100" fill-rule="nonzero" /><path id="1003" transform="matrix(1 0 0 -1 0 841)" d="M168.521 395.487L183.684 395.487L183.684 406.695L168.521 406.695z" stroke="none" fill="#FFF100" fill-rule="nonzero" /></g></g></svg>