<svg xmlns="http://www.w3.org/2000/svg" xmlns:xlink="http://www.w3.org/1999/xlink" id="body_274" preserveAspectRatio="xMinYMin meet" viewBox="0 0 793 1121"><defs><clipPath id="1"><path id="" clip-rule="evenodd" transform="matrix(1 0 0 1 0 0)" d="M0 841L0 -0.8900146L0 -0.8900146L595.276 -0.8900146L595.276 -0.8900146L595.276 841L595.276 841L0 841z" /></clipPath></defs><g transform="matrix(1.333333 0 0 1.333333 0 0)"><g clip-path="url(#1)"><path id="24" transform="matrix(1 0 0 -1 0 841)" d="M85.039 766.564L510.236 766.564" stroke="#000000" stroke-width="0.498" fill="none" /><path id="47" transform="matrix(1 0 0 -1 0 841)" d="M207.594 745.792L225.298 745.792" stroke="#000000" stroke-width="0.398" fill="none" /><path id="83" transform="matrix(1 0 0 -1 0 841)" d="M207.594 712.92L225.298 712.92" stroke="#000000" stroke-width="0.398" fill="none" /><path id="140" transform="matrix(1 0 0 -1 0 841)" d="M208.058 666.075L249.343 666.075" stroke="#000000" stroke-width="0.398" fill="none" /><path id="160" transform="matrix(1 0 0 -1 0 841)" d="M259.482 666.075L338.182 666.075" stroke="#000000" stroke-width="0.398" fill="none" /><path id="170" transform="matrix(1 0 0 -1 0 841)" d="M348.322 666.075L375.988 666.075" stroke="#000000" stroke-width="0.398" fill="none" /><path id="181" transform="matrix(1 0 0 -1 0 841)" d="M393.935 666.075L422.708 666.075" stroke="#000000" stroke-width="0.398" fill="none" /><path id="184" transform="matrix(1 0 0 -1 0 841)" d="M389.352 680.794L427.291 680.794" stroke="#000000" stroke-width="0.398" fill="none" /><path id="185" transform="matrix(1 0 0 -1 0 841)" d="M389.551 651.529L389.551 680.794" stroke="#000000" stroke-width="0.398" fill="none" /><path id="186" transform="matrix(1 0 0 -1 0 841)" d="M427.091 651.529L427.091 680.794" stroke="#000000" stroke-width="0.398" fill="none" /><path id="187" transform="matrix(1 0 0 -1 0 841)" d="M389.352 651.529L427.291 651.529" stroke="#000000" stroke-width="0.398" fill="none" /><path id="215" transform="matrix(1 0 0 -1 0 841)" d="M155.011 608.449L196.506 608.449" stroke="#000000" stroke-width="0.398" fill="none" /><path id="231" transform="matrix(1 0 0 -1 0 841)" d="M209.87 615.812L237.895 615.812" stroke="#000000" stroke-width="0.398" fill="none" /><path id="232" transform="matrix(1 0 0 -1 0 841)" d="M210.069 600.738L210.069 615.811" stroke="#000000" stroke-width="0.398" fill="none" /><path id="233" transform="matrix(1 0 0 -1 0 841)" d="M237.695 600.738L237.695 615.811" stroke="#000000" stroke-width="0.398" fill="none" /><path id="234" transform="matrix(1 0 0 -1 0 841)" d="M209.87 600.738L237.895 600.738" stroke="#000000" stroke-width="0.398" fill="none" /><path id="388" transform="matrix(1 0 0 -1 0 841)" d="M179.824 513.728L245.018 513.728" stroke="#000000" stroke-width="0.398" fill="none" /><g transform="matrix(0.06 0 0 0.06 112.312 351.014)"><g transform="matrix(1 0 0 1 0 0)"><image x="0" y="0" xlink:href="img_337.png" width="3009" height="713" /></g></g><path id="539" transform="matrix(1 0 0 -1 0 841)" d="M154.274 376.963L307.465 376.963" stroke="#000000" stroke-width="0.398" fill="none" /><path id="574" transform="matrix(1 0 0 -1 0 841)" d="M322.026 376.963L360.2 376.963" stroke="#000000" stroke-width="0.398" fill="none" /><path id="590" transform="matrix(1 0 0 -1 0 841)" d="M373.564 384.326L411.661 384.326" stroke="#000000" stroke-width="0.398" fill="none" /><path id="591" transform="matrix(1 0 0 -1 0 841)" d="M373.763 369.252L373.763 384.325" stroke="#000000" stroke-width="0.398" fill="none" /><path id="592" transform="matrix(1 0 0 -1 0 841)" d="M411.462 369.252L411.462 384.325" stroke="#000000" stroke-width="0.398" fill="none" /><path id="593" transform="matrix(1 0 0 -1 0 841)" d="M373.564 369.253L411.661 369.253" stroke="#000000" stroke-width="0.398" fill="none" /></g></g></svg>