<svg xmlns="http://www.w3.org/2000/svg" xmlns:xlink="http://www.w3.org/1999/xlink" id="body_438" preserveAspectRatio="xMinYMin meet" viewBox="0 0 793 1121"><defs><clipPath id="1"><path id="" clip-rule="evenodd" transform="matrix(1 0 0 1 0 0)" d="M0 841L0 -0.8900146L0 -0.8900146L595.276 -0.8900146L595.276 -0.8900146L595.276 841L595.276 841L0 841z" /></clipPath></defs><g transform="matrix(1.333333 0 0 1.333333 0 0)"><g clip-path="url(#1)"><path id="31" transform="matrix(1 0 0 -1 0 841)" d="M85.039 766.564L510.236 766.564" stroke="#000000" stroke-width="0.498" fill="none" /><path id="340" transform="matrix(1 0 0 -1 0 841)" d="M200.332 642.847L256.337 642.847" stroke="#000000" stroke-width="0.398" fill="none" /><path id="357" transform="matrix(1 0 0 -1 0 841)" d="M183.176 627.903L194.234 627.903" stroke="#000000" stroke-width="0.398" fill="none" /><path id="378" transform="matrix(1 0 0 -1 0 841)" d="M137.508 606.397L193.513 606.397" stroke="#000000" stroke-width="0.398" fill="none" /><path id="404" transform="matrix(1 0 0 -1 0 841)" d="M203.652 606.397L283.363 606.397" stroke="#000000" stroke-width="0.398" fill="none" /><path id="437" transform="matrix(1 0 0 -1 0 841)" d="M293.503 606.397L375.256 606.397" stroke="#000000" stroke-width="0.398" fill="none" /><path id="464" transform="matrix(1 0 0 -1 0 841)" d="M385.396 606.397L411.199 606.397" stroke="#000000" stroke-width="0.398" fill="none" /><path id="480" transform="matrix(1 0 0 -1 0 841)" d="M446.85 606.397L461.794 606.397" stroke="#000000" stroke-width="0.398" fill="none" /><path id="484" transform="matrix(1 0 0 -1 0 841)" d="M424.563 620.698L466.376 620.698" stroke="#000000" stroke-width="0.398" fill="none" /><path id="485" transform="matrix(1 0 0 -1 0 841)" d="M424.763 593.775L424.763 620.699" stroke="#000000" stroke-width="0.398" fill="none" /><path id="486" transform="matrix(1 0 0 -1 0 841)" d="M466.177 593.775L466.177 620.699" stroke="#000000" stroke-width="0.398" fill="none" /><path id="487" transform="matrix(1 0 0 -1 0 841)" d="M424.563 593.775L466.376 593.775" stroke="#000000" stroke-width="0.398" fill="none" /><path id="516" transform="matrix(1 0 0 -1 0 841)" d="M142.758 538.336L167.3 538.336" stroke="#000000" stroke-width="0.398" fill="none" /><path id="523" transform="matrix(1 0 0 -1 0 841)" d="M177.44 538.336L217.125 538.336" stroke="#000000" stroke-width="0.398" fill="none" /><path id="544" transform="matrix(1 0 0 -1 0 841)" d="M227.265 538.336L253.068 538.336" stroke="#000000" stroke-width="0.398" fill="none" /><path id="577" transform="matrix(1 0 0 -1 0 841)" d="M341.884 538.336L397.889 538.336" stroke="#000000" stroke-width="0.398" fill="none" /><path id="594" transform="matrix(1 0 0 -1 0 841)" d="M183.176 518.208L194.234 518.208" stroke="#000000" stroke-width="0.398" fill="none" /><path id="615" transform="matrix(1 0 0 -1 0 841)" d="M137.508 496.702L193.513 496.702" stroke="#000000" stroke-width="0.398" fill="none" /><path id="641" transform="matrix(1 0 0 -1 0 841)" d="M203.652 496.702L283.363 496.702" stroke="#000000" stroke-width="0.398" fill="none" /><path id="674" transform="matrix(1 0 0 -1 0 841)" d="M293.503 496.702L375.256 496.702" stroke="#000000" stroke-width="0.398" fill="none" /><path id="701" transform="matrix(1 0 0 -1 0 841)" d="M385.396 496.702L411.199 496.702" stroke="#000000" stroke-width="0.398" fill="none" /><path id="717" transform="matrix(1 0 0 -1 0 841)" d="M446.85 496.702L461.794 496.702" stroke="#000000" stroke-width="0.398" fill="none" /><path id="721" transform="matrix(1 0 0 -1 0 841)" d="M424.563 511.004L466.376 511.004" stroke="#000000" stroke-width="0.398" fill="none" /><path id="722" transform="matrix(1 0 0 -1 0 841)" d="M424.763 484.08L424.763 511.004" stroke="#000000" stroke-width="0.398" fill="none" /><path id="723" transform="matrix(1 0 0 -1 0 841)" d="M466.177 484.08L466.177 511.004" stroke="#000000" stroke-width="0.398" fill="none" /><path id="724" transform="matrix(1 0 0 -1 0 841)" d="M424.563 484.08L466.376 484.08" stroke="#000000" stroke-width="0.398" fill="none" /><path id="1066" transform="matrix(1 0 0 -1 0 841)" d="M191.525 387.585L252.137 387.585" stroke="#000000" stroke-width="0.398" fill="none" /><path id="1082" transform="matrix(1 0 0 -1 0 841)" d="M173.552 372.641L184.581 372.641" stroke="#000000" stroke-width="0.398" fill="none" /><path id="1104" transform="matrix(1 0 0 -1 0 841)" d="M113.508 357.697L174.12 357.697" stroke="#000000" stroke-width="0.398" fill="none" /><path id="1119" transform="matrix(1 0 0 -1 0 841)" d="M184.592 357.697L237.832 357.697" stroke="#000000" stroke-width="0.398" fill="none" /><path id="1153" transform="matrix(1 0 0 -1 0 841)" d="M248.305 357.697L317.88 357.697" stroke="#000000" stroke-width="0.398" fill="none" /><path id="1179" transform="matrix(1 0 0 -1 0 841)" d="M328.351 357.697L422.475 357.697" stroke="#000000" stroke-width="0.398" fill="none" /><path id="1212" transform="matrix(1 0 0 -1 0 841)" d="M432.948 357.697L492.282 357.697" stroke="#000000" stroke-width="0.398" fill="none" /><path id="1236" transform="matrix(1 0 0 -1 0 841)" d="M116.895 333.812L149.542 333.812" stroke="#000000" stroke-width="0.398" fill="none" /><path id="1240" transform="matrix(1 0 0 -1 0 841)" d="M112.312 348.532L154.125 348.532" stroke="#000000" stroke-width="0.398" fill="none" /><path id="1241" transform="matrix(1 0 0 -1 0 841)" d="M112.511 319.267L112.511 348.532" stroke="#000000" stroke-width="0.398" fill="none" /><path id="1242" transform="matrix(1 0 0 -1 0 841)" d="M153.926 319.267L153.926 348.532" stroke="#000000" stroke-width="0.398" fill="none" /><path id="1243" transform="matrix(1 0 0 -1 0 841)" d="M112.312 319.267L154.125 319.267" stroke="#000000" stroke-width="0.398" fill="none" /><path id="1421" transform="matrix(1 0 0 -1 0 841)" d="M180.536 252.584L232.397 252.584" stroke="#000000" stroke-width="0.398" fill="none" /><path id="1445" transform="matrix(1 0 0 -1 0 841)" d="M274.369 252.584L283.378 252.584" stroke="#000000" stroke-width="0.398" fill="none" /><path id="1492" transform="matrix(1 0 0 -1 0 841)" d="M113.508 203.652L149.637 203.652" stroke="#000000" stroke-width="0.398" fill="none" /><path id="1506" transform="matrix(1 0 0 -1 0 841)" d="M159.777 203.652L195.088 203.652" stroke="#000000" stroke-width="0.398" fill="none" /><path id="1522" transform="matrix(1 0 0 -1 0 841)" d="M205.227 203.652L240.479 203.652" stroke="#000000" stroke-width="0.398" fill="none" /><path id="1532" transform="matrix(1 0 0 -1 0 841)" d="M250.618 203.652L335.075 203.652" stroke="#000000" stroke-width="0.398" fill="none" /><path id="1544" transform="matrix(1 0 0 -1 0 841)" d="M251.814 196.634L282.019 196.634" stroke="#000000" stroke-width="0.295" fill="none" /><path id="1575" transform="matrix(1 0 0 -1 0 841)" d="M353.022 203.652L382.9 203.652" stroke="#000000" stroke-width="0.398" fill="none" /><path id="1584" transform="matrix(1 0 0 -1 0 841)" d="M348.439 217.759L426.595 217.759" stroke="#000000" stroke-width="0.398" fill="none" /><path id="1585" transform="matrix(1 0 0 -1 0 841)" d="M348.638 191.029L348.638 217.758" stroke="#000000" stroke-width="0.398" fill="none" /><path id="1586" transform="matrix(1 0 0 -1 0 841)" d="M426.396 191.029L426.396 217.758" stroke="#000000" stroke-width="0.398" fill="none" /><path id="1587" transform="matrix(1 0 0 -1 0 841)" d="M348.439 191.029L426.595 191.029" stroke="#000000" stroke-width="0.398" fill="none" /><path id="1831" transform="matrix(1 0 0 -1 0 841)" d="M166.634 92.382L177.493 92.382" stroke="#000000" stroke-width="0.398" fill="none" /><path id="1845" transform="matrix(1 0 0 -1 0 841)" d="M179.884 92.382L219.102 92.382" stroke="#000000" stroke-width="0.398" fill="none" /><path id="1871" transform="matrix(1 0 0 -1 0 841)" d="M229.242 92.382L308.953 92.382" stroke="#000000" stroke-width="0.398" fill="none" /><path id="1904" transform="matrix(1 0 0 -1 0 841)" d="M319.093 92.382L400.846 92.382" stroke="#000000" stroke-width="0.398" fill="none" /><path id="1935" transform="matrix(1 0 0 -1 0 841)" d="M436.496 92.382L451.44 92.382" stroke="#000000" stroke-width="0.398" fill="none" /><path id="1939" transform="matrix(1 0 0 -1 0 841)" d="M414.21 106.683L456.023 106.683" stroke="#000000" stroke-width="0.398" fill="none" /><path id="1940" transform="matrix(1 0 0 -1 0 841)" d="M414.409 79.759L414.409 106.683" stroke="#000000" stroke-width="0.398" fill="none" /><path id="1941" transform="matrix(1 0 0 -1 0 841)" d="M455.824 79.759L455.824 106.683" stroke="#000000" stroke-width="0.398" fill="none" /><path id="1942" transform="matrix(1 0 0 -1 0 841)" d="M414.21 79.759L456.023 79.759" stroke="#000000" stroke-width="0.398" fill="none" /><g transform="matrix(0.2 0 0 0.2 249.239 774.845)"><g transform="matrix(1 0 0 1 0 0)"><image x="0" y="0" xlink:href="img_04.png" width="484" height="104" /></g></g></g></g></svg>