<svg xmlns="http://www.w3.org/2000/svg" xmlns:xlink="http://www.w3.org/1999/xlink" id="body_261" preserveAspectRatio="xMinYMin meet" viewBox="0 0 793 1121"><defs><clipPath id="1"><path id="" clip-rule="evenodd" transform="matrix(1 0 0 1 0 0)" d="M0 841L0 -0.8900146L0 -0.8900146L595.276 -0.8900146L595.276 -0.8900146L595.276 841L595.276 841L0 841z" /></clipPath></defs><g transform="matrix(1.333333 0 0 1.333333 0 0)"><g clip-path="url(#1)"><path id="23" transform="matrix(1 0 0 -1 0 841)" d="M85.039 766.564L510.236 766.564" stroke="#000000" stroke-width="0.498" fill="none" /><path id="50" transform="matrix(1 0 0 -1 0 841)" d="M180.141 745.737L294.539 745.737" stroke="#000000" stroke-width="0.398" fill="none" /><path id="82" transform="matrix(1 0 0 -1 0 841)" d="M332.794 753.294L363.329 753.294" stroke="#000000" stroke-width="0.398" fill="none" /><path id="83" transform="matrix(1 0 0 -1 0 841)" d="M332.993 738.026L332.993 753.294" stroke="#000000" stroke-width="0.398" fill="none" /><path id="84" transform="matrix(1 0 0 -1 0 841)" d="M363.13 738.026L363.13 753.294" stroke="#000000" stroke-width="0.398" fill="none" /><path id="85" transform="matrix(1 0 0 -1 0 841)" d="M332.794 738.026L363.329 738.026" stroke="#000000" stroke-width="0.398" fill="none" /><path id="475" transform="matrix(1 0 0 -1 0 841)" d="M180.141 630.494L417.923 630.494" stroke="#000000" stroke-width="0.398" fill="none" /><path id="671" transform="matrix(1 0 0 -1 0 841)" d="M205.088 531.9L239.957 531.9" stroke="#000000" stroke-width="0.398" fill="none" /><path id="764" transform="matrix(1 0 0 -1 0 841)" d="M343.447 501.862L398.787 501.862" stroke="#000000" stroke-width="0.398" fill="none" /><path id="783" transform="matrix(1 0 0 -1 0 841)" d="M437.042 509.419L467.577 509.419" stroke="#000000" stroke-width="0.398" fill="none" /><path id="784" transform="matrix(1 0 0 -1 0 841)" d="M437.241 494.151L437.241 509.419" stroke="#000000" stroke-width="0.398" fill="none" /><path id="785" transform="matrix(1 0 0 -1 0 841)" d="M467.378 494.151L467.378 509.419" stroke="#000000" stroke-width="0.398" fill="none" /><path id="786" transform="matrix(1 0 0 -1 0 841)" d="M437.042 494.151L467.577 494.151" stroke="#000000" stroke-width="0.398" fill="none" /><path id="1537" transform="matrix(1 0 0 -1 0 841)" d="M109.019 265.95L259.742 265.95" stroke="#000000" stroke-width="0.398" fill="none" /><path id="1618" transform="matrix(1 0 0 -1 0 841)" d="M116.032 233.317L379.461 233.317" stroke="#000000" stroke-width="0.398" fill="none" /></g></g></svg>