<svg xmlns="http://www.w3.org/2000/svg" xmlns:xlink="http://www.w3.org/1999/xlink" id="body_87" preserveAspectRatio="xMinYMin meet" viewBox="0 0 793 1121"><defs><clipPath id="1"><path id="" clip-rule="evenodd" transform="matrix(1 0 0 1 0 0)" d="M0 841L0 -0.8900146L0 -0.8900146L595.276 -0.8900146L595.276 -0.8900146L595.276 841L595.276 841L0 841z" /></clipPath></defs><g transform="matrix(1.333333 0 0 1.333333 0 0)"><g clip-path="url(#1)"><path id="28" transform="matrix(1 0 0 -1 0 841)" d="M85.039 766.564L510.236 766.564" stroke="#000000" stroke-width="0.498" fill="none" /><path id="2000" transform="matrix(1 0 0 -1 0 841)" d="M307.672 162.734L336.394 162.734L336.394 173.942L307.672 173.942z" stroke="none" fill="#FFF100" fill-rule="nonzero" /><path id="2008" transform="matrix(1 0 0 -1 0 841)" d="M335.976 162.734L338.469 162.734L338.469 173.942L335.976 173.942z" stroke="none" fill="#FFF100" fill-rule="nonzero" /><path id="2009" transform="matrix(1 0 0 -1 0 841)" d="M338.22 162.734L346.838 162.734L346.838 173.942L338.22 173.942z" stroke="none" fill="#FFF100" fill-rule="nonzero" /><path id="2012" transform="matrix(1 0 0 -1 0 841)" d="M346.289 162.734L361.123 162.734L361.123 173.942L346.289 173.942z" stroke="none" fill="#FFF100" fill-rule="nonzero" /><path id="2016" transform="matrix(1 0 0 -1 0 841)" d="M360.539 162.734L379.308 162.734L379.308 173.942L360.539 173.942z" stroke="none" fill="#FFF100" fill-rule="nonzero" /><path id="2030" transform="matrix(1 0 0 -1 0 841)" d="M421.095 162.734L434.873 162.734L434.873 173.942L421.095 173.942z" stroke="none" fill="#FFF100" fill-rule="nonzero" /><path id="2034" transform="matrix(1 0 0 -1 0 841)" d="M434.295 162.734L442.544 162.734L442.544 173.942L434.295 173.942z" stroke="none" fill="#FFF100" fill-rule="nonzero" /><path id="2037" transform="matrix(1 0 0 -1 0 841)" d="M442 162.734L462.692 162.734L462.692 173.942L442 173.942z" stroke="none" fill="#FFF100" fill-rule="nonzero" /><path id="2043" transform="matrix(1 0 0 -1 0 841)" d="M462.322 162.734L464.815 162.734L464.815 173.942L462.322 173.942z" stroke="none" fill="#FFF100" fill-rule="nonzero" /><path id="2044" transform="matrix(1 0 0 -1 0 841)" d="M464.565 162.734L473.362 162.734L473.362 173.942L464.565 173.942z" stroke="none" fill="#FFF100" fill-rule="nonzero" /><path id="2047" transform="matrix(1 0 0 -1 0 841)" d="M472.814 162.734L493.785 162.734L493.785 173.942L472.814 173.942z" stroke="none" fill="#FFF100" fill-rule="nonzero" /><path id="2054" transform="matrix(1 0 0 -1 0 841)" d="M493.413 162.734L495.906 162.734L495.906 173.942L493.413 173.942z" stroke="none" fill="#FFF100" fill-rule="nonzero" /><path id="2055" transform="matrix(1 0 0 -1 0 841)" d="M495.657 162.734L510.541 162.734L510.541 173.942L495.657 173.942z" stroke="none" fill="#FFF100" fill-rule="nonzero" /><path id="2059" transform="matrix(1 0 0 -1 0 841)" d="M84.79 147.79L94.693 147.79L94.693 158.998L84.79 158.998z" stroke="none" fill="#FFF100" fill-rule="nonzero" /><path id="2062" transform="matrix(1 0 0 -1 0 841)" d="M94.195 147.79L106.867 147.79L106.867 158.998L94.195 158.998z" stroke="none" fill="#FFF100" fill-rule="nonzero" /><path id="2065" transform="matrix(1 0 0 -1 0 841)" d="M106.369 147.79L127.898 147.79L127.898 158.998L106.369 158.998z" stroke="none" fill="#FFF100" fill-rule="nonzero" /><path id="2197" transform="matrix(1 0 0 -1 0 841)" d="M466.421 126.509L473.006 126.509L473.006 137.717L466.421 137.717z" stroke="none" fill="#FFF100" fill-rule="nonzero" /><path id="2200" transform="matrix(1 0 0 -1 0 841)" d="M472.879 126.509L476.164 126.509L476.164 137.717L472.879 137.717z" stroke="none" fill="#FFF100" fill-rule="nonzero" /><path id="2201" transform="matrix(1 0 0 -1 0 841)" d="M475.915 126.509L483.058 126.509L483.058 137.717L475.915 137.717z" stroke="none" fill="#FFF100" fill-rule="nonzero" /><path id="2204" transform="matrix(1 0 0 -1 0 841)" d="M482.942 126.509L486.227 126.509L486.227 137.717L482.942 137.717z" stroke="none" fill="#FFF100" fill-rule="nonzero" /><path id="2205" transform="matrix(1 0 0 -1 0 841)" d="M485.977 126.509L498.649 126.509L498.649 137.717L485.977 137.717z" stroke="none" fill="#FFF100" fill-rule="nonzero" /><path id="2209" transform="matrix(1 0 0 -1 0 841)" d="M84.79 111.565L98.568 111.565L98.568 122.773L84.79 122.773z" stroke="none" fill="#FFF100" fill-rule="nonzero" /><path id="2213" transform="matrix(1 0 0 -1 0 841)" d="M97.924 111.565L106.173 111.565L106.173 122.773L97.924 122.773z" stroke="none" fill="#FFF100" fill-rule="nonzero" /><path id="2216" transform="matrix(1 0 0 -1 0 841)" d="M105.59 111.565L119.916 111.565L119.916 122.773L105.59 122.773z" stroke="none" fill="#FFF100" fill-rule="nonzero" /><path id="2220" transform="matrix(1 0 0 -1 0 841)" d="M119.515 111.565L122.001 111.565L122.001 122.773L119.515 122.773z" stroke="none" fill="#FFF100" fill-rule="nonzero" /><path id="2221" transform="matrix(1 0 0 -1 0 841)" d="M121.752 111.565L133.866 111.565L133.866 122.773L121.752 122.773z" stroke="none" fill="#FFF100" fill-rule="nonzero" /><path id="2224" transform="matrix(1 0 0 -1 0 841)" d="M133.489 111.565L135.975 111.565L135.975 122.773L133.489 122.773z" stroke="none" fill="#FFF100" fill-rule="nonzero" /><path id="2225" transform="matrix(1 0 0 -1 0 841)" d="M135.726 111.565L146.187 111.565L146.187 122.773L135.726 122.773z" stroke="none" fill="#FFF100" fill-rule="nonzero" /><path id="2228" transform="matrix(1 0 0 -1 0 841)" d="M145.579 111.565L166.949 111.565L166.949 122.773L145.579 122.773z" stroke="none" fill="#FFF100" fill-rule="nonzero" /><path id="2234" transform="matrix(1 0 0 -1 0 841)" d="M166.468 111.565L168.954 111.565L168.954 122.773L166.468 122.773z" stroke="none" fill="#FFF100" fill-rule="nonzero" /><path id="2235" transform="matrix(1 0 0 -1 0 841)" d="M168.705 111.565L179.166 111.565L179.166 122.773L168.705 122.773z" stroke="none" fill="#FFF100" fill-rule="nonzero" /><path id="2238" transform="matrix(1 0 0 -1 0 841)" d="M178.558 111.565L191.778 111.565L191.778 122.773L178.558 122.773z" stroke="none" fill="#FFF100" fill-rule="nonzero" /><path id="2242" transform="matrix(1 0 0 -1 0 841)" d="M191.389 111.565L193.875 111.565L193.875 122.773L191.389 122.773z" stroke="none" fill="#FFF100" fill-rule="nonzero" /><path id="2243" transform="matrix(1 0 0 -1 0 841)" d="M193.626 111.565L198.547 111.565L198.547 122.773L193.626 122.773z" stroke="none" fill="#FFF100" fill-rule="nonzero" /><path id="2245" transform="matrix(1 0 0 -1 0 841)" d="M198.249 111.565L200.735 111.565L200.735 122.773L198.249 122.773z" stroke="none" fill="#FFF100" fill-rule="nonzero" /><path id="2246" transform="matrix(1 0 0 -1 0 841)" d="M200.486 111.565L211.504 111.565L211.504 122.773L200.486 122.773z" stroke="none" fill="#FFF100" fill-rule="nonzero" /><path id="2249" transform="matrix(1 0 0 -1 0 841)" d="M210.891 111.565L224.111 111.565L224.111 122.773L210.891 122.773z" stroke="none" fill="#FFF100" fill-rule="nonzero" /><path id="2253" transform="matrix(1 0 0 -1 0 841)" d="M223.473 111.565L246.656 111.565L246.656 122.773L223.473 122.773z" stroke="none" fill="#FFF100" fill-rule="nonzero" /><path id="2259" transform="matrix(1 0 0 -1 0 841)" d="M246.157 111.565L248.643 111.565L248.643 122.773L246.157 122.773z" stroke="none" fill="#FFF100" fill-rule="nonzero" /><path id="2260" transform="matrix(1 0 0 -1 0 841)" d="M248.394 111.565L269.365 111.565L269.365 122.773L248.394 122.773z" stroke="none" fill="#FFF100" fill-rule="nonzero" /><path id="2266" transform="matrix(1 0 0 -1 0 841)" d="M268.89 111.565L271.376 111.565L271.376 122.773L268.89 122.773z" stroke="none" fill="#FFF100" fill-rule="nonzero" /><path id="2267" transform="matrix(1 0 0 -1 0 841)" d="M271.127 111.565L285.453 111.565L285.453 122.773L271.127 122.773z" stroke="none" fill="#FFF100" fill-rule="nonzero" /><path id="2271" transform="matrix(1 0 0 -1 0 841)" d="M284.803 111.565L292.494 111.565L292.494 122.773L284.803 122.773z" stroke="none" fill="#FFF100" fill-rule="nonzero" /><path id="2274" transform="matrix(1 0 0 -1 0 841)" d="M291.917 111.565L302.926 111.565L302.926 122.773L291.917 122.773z" stroke="none" fill="#FFF100" fill-rule="nonzero" /><path id="2278" transform="matrix(1 0 0 -1 0 841)" d="M302.561 111.565L305.047 111.565L305.047 122.773L302.561 122.773z" stroke="none" fill="#FFF100" fill-rule="nonzero" /><path id="2279" transform="matrix(1 0 0 -1 0 841)" d="M304.797 111.565L317.459 111.565L317.459 122.773L304.797 122.773z" stroke="none" fill="#FFF100" fill-rule="nonzero" /><path id="2283" transform="matrix(1 0 0 -1 0 841)" d="M317.077 111.565L319.563 111.565L319.563 122.773L317.077 122.773z" stroke="none" fill="#FFF100" fill-rule="nonzero" /><path id="2284" transform="matrix(1 0 0 -1 0 841)" d="M319.313 111.565L328.658 111.565L328.658 122.773L319.313 122.773z" stroke="none" fill="#FFF100" fill-rule="nonzero" /><path id="2287" transform="matrix(1 0 0 -1 0 841)" d="M328.063 111.565L336.312 111.565L336.312 122.773L328.063 122.773z" stroke="none" fill="#FFF100" fill-rule="nonzero" /><path id="2290" transform="matrix(1 0 0 -1 0 841)" d="M335.728 111.565L351.17 111.565L351.17 122.773L335.728 122.773z" stroke="none" fill="#FFF100" fill-rule="nonzero" /><path id="2295" transform="matrix(1 0 0 -1 0 841)" d="M350.756 111.565L353.242 111.565L353.242 122.773L350.756 122.773z" stroke="none" fill="#FFF100" fill-rule="nonzero" /><path id="2296" transform="matrix(1 0 0 -1 0 841)" d="M352.993 111.565L366.223 111.565L366.223 122.773L352.993 122.773z" stroke="none" fill="#FFF100" fill-rule="nonzero" /><path id="2300" transform="matrix(1 0 0 -1 0 841)" d="M365.834 111.565L368.32 111.565L368.32 122.773L365.834 122.773z" stroke="none" fill="#FFF100" fill-rule="nonzero" /><path id="2301" transform="matrix(1 0 0 -1 0 841)" d="M368.071 111.565L390.158 111.565L390.158 122.773L368.071 122.773z" stroke="none" fill="#FFF100" fill-rule="nonzero" /><path id="2307" transform="matrix(1 0 0 -1 0 841)" d="M389.671 111.565L392.157 111.565L392.157 122.773L389.671 122.773z" stroke="none" fill="#FFF100" fill-rule="nonzero" /><path id="2308" transform="matrix(1 0 0 -1 0 841)" d="M391.908 111.565L400.157 111.565L400.157 122.773L391.908 122.773z" stroke="none" fill="#FFF100" fill-rule="nonzero" /><path id="2311" transform="matrix(1 0 0 -1 0 841)" d="M399.822 111.565L402.308 111.565L402.308 122.773L399.822 122.773z" stroke="none" fill="#FFF100" fill-rule="nonzero" /><path id="2312" transform="matrix(1 0 0 -1 0 841)" d="M402.059 111.565L417.77 111.565L417.77 122.773L402.059 122.773z" stroke="none" fill="#FFF100" fill-rule="nonzero" /></g></g></svg>