<svg xmlns="http://www.w3.org/2000/svg" xmlns:xlink="http://www.w3.org/1999/xlink" id="body_180" preserveAspectRatio="xMinYMin meet" viewBox="0 0 793 1121"><defs><clipPath id="1"><path id="" clip-rule="evenodd" transform="matrix(1 0 0 1 0 0)" d="M0 841L0 -0.8900146L0 -0.8900146L595.276 -0.8900146L595.276 -0.8900146L595.276 841L595.276 841L0 841z" /></clipPath></defs><g transform="matrix(1.333333 0 0 1.333333 0 0)"><g clip-path="url(#1)"><path id="25" transform="matrix(1 0 0 -1 0 841)" d="M85.039 766.564L510.236 766.564" stroke="#000000" stroke-width="0.498" fill="none" /><g transform="matrix(0 0.3375 -0.3375 0 461.1295 111.9211)"><g transform="matrix(1 0 0 1 0 0)"><image x="0" y="0" xlink:href="img_306.png" width="1826" height="883" /></g></g><path id="27" transform="matrix(1 0 0 -1 0 841)" d="M146.1901 491.9564L148.7209 491.9564L148.7209 491.9564L148.7209 492.2073C 147.8482 492.3383 147.6846 492.5346 147.6846 493.4073L147.6846 493.4073L147.6846 494.9891L147.6846 494.9891L150.1064 494.9891C 150.4119 494.9891 150.4773 494.9455 150.4773 494.6401L150.4773 494.6401L150.4773 493.1564C 150.4773 491.9346 150.3064 491.6873 149.3318 491.4982L149.3318 491.4982L149.3318 491.2255L149.3318 491.2255L150.8918 491.2582L150.8918 491.2582L150.8918 497.051L150.8918 497.051L150.6846 497.051C 150.6119 496.251 150.4592 496.1019 149.7028 496.1019L149.7028 496.1019L144.9791 496.1019C 144.0627 496.1019 143.921 496.2219 143.8773 497.051L143.8773 497.051L143.67 497.051L143.67 497.051L143.67 493.9964L143.67 493.9964L143.8773 493.9964C 143.921 494.8401 144.0737 494.9891 144.8591 494.9891L144.8591 494.9891L147.2373 494.9891L147.2373 494.9891L147.2373 493.4073C 147.2373 492.5346 147.0627 492.3383 146.1901 492.2073z" stroke="none" fill="#000000" fill-rule="evenodd" /><path id="28" transform="matrix(1 0 0 -1 0 841)" d="M148.6882 489.2073L148.0883 490.8983L148.0883 490.8983L147.9246 490.8983L147.9246 490.8983L147.9355 490.811C 147.9501 490.6801 147.9682 490.5419 147.9682 490.4401C 147.9682 490.1782 147.7937 490.0801 147.3137 490.0801L147.3137 490.0801L144.7828 490.0801C 143.9973 490.0801 143.8773 490.2001 143.8337 490.9419L143.8337 490.9419L143.67 490.9419L143.67 490.9419L143.67 488.3564L143.67 488.3564L143.8337 488.3564C 143.8773 489.0837 143.9973 489.1637 144.7828 489.1637L144.7828 489.1637L148.6555 489.1637zM151.121 489.72C 151.121 490.0255 150.8701 490.2655 150.5646 490.2655C 150.2592 490.2655 150.0082 490.0255 150.0082 489.72C 150.0082 489.4146 150.2446 489.1528 150.5646 489.1528C 150.8701 489.1528 151.121 489.4146 151.121 489.72z" stroke="none" fill="#000000" fill-rule="evenodd" /><path id="29" transform="matrix(1 0 0 -1 0 841)" d="M147.9028 482.9564L148.3282 482.9564L148.3282 482.9564L148.3282 483.7964C 148.3282 484.0146 148.35 484.1782 148.4373 484.3964L148.4373 484.3964L148.5246 484.6364C 148.6264 484.9419 148.6882 485.2328 148.6882 485.5092C 148.6882 486.5273 147.8991 487.331 146.91 487.331C 146.2119 487.331 145.7973 487.0437 145.4482 486.3164C 145.2446 486.5346 145.0555 486.7274 145.0118 486.7855C 144.6918 487.1492 144.4773 487.2874 144.2592 487.2874C 144.0264 487.2874 143.8991 487.16 143.681 486.7092C 143.1137 487.4946 142.7573 487.7783 142.35 487.7783C 141.7828 487.7783 141.2919 486.9382 141.2919 485.891C 141.2919 485.0764 141.5828 484.2219 142.0337 483.6546C 142.3828 483.2473 142.7282 483.0546 143.1355 483.0546C 143.8192 483.0546 144.2592 483.5746 144.3028 484.3746L144.3028 484.3746L144.3682 485.7819C 144.3828 486.3637 144.4882 486.6328 144.6628 486.6328C 144.881 486.6328 145.2628 486.2837 145.35 485.9782C 145.3355 485.891 145.3282 485.8146 145.3282 485.771C 145.2991 485.5673 145.2955 485.4291 145.2955 485.3564C 145.2955 484.9637 145.4482 484.5273 145.7537 484.1782C 146.0591 483.8292 146.4337 483.6546 146.9864 483.6546C 147.2919 483.6546 147.5537 483.7164 147.9028 483.8619zM143.6483 486.48C 143.5755 486.131 143.5064 485.251 143.5064 484.7128C 143.5064 483.7237 143.3646 483.36 142.9719 483.36C 142.3464 483.36 141.9137 484.2001 141.9137 485.4219C 141.9137 486.3819 142.23 487.0146 142.71 487.0146C 142.9719 487.0146 143.11 486.9455 143.6483 486.48zM147.3573 486.4255C 147.9973 486.4255 148.3828 486.1273 148.3828 485.6182C 148.3828 485.2837 148.1901 484.9964 147.8701 484.8219C 147.4773 484.6328 146.9828 484.4946 146.561 484.4946C 145.9501 484.4946 145.5682 484.8182 145.5682 485.3128C 145.5682 485.9673 146.2773 486.4255 147.3246 486.4255z" stroke="none" fill="#000000" fill-rule="evenodd" /><path id="30" transform="matrix(1 0 0 -1 0 841)" d="M144.2155 477.4037L144.2155 477.4583C 144.2155 477.9673 144.3282 478.0801 144.8373 478.0801L144.8373 478.0801L148.5792 478.0801L148.5792 478.0801L148.5792 479.8037L148.5792 479.8037L148.3937 479.8037C 148.35 479.1346 148.2446 478.9964 147.7064 478.9964L147.7064 478.9964L145.1428 478.9964C 144.8373 478.9964 144.681 479.0582 144.5646 479.2037C 144.3173 479.5092 144.1937 479.8437 144.1937 480.1637C 144.1937 480.6 144.5573 480.9382 145.0228 480.9382L145.0228 480.9382L148.5792 480.9382L148.5792 480.9382L148.5792 482.5309L148.5792 482.5309L148.4264 482.5309C 148.3828 482.0073 148.2228 481.8546 147.7282 481.8546L147.7282 481.8546L144.9791 481.8546C 144.1064 481.8546 143.561 481.3346 143.561 480.5346C 143.561 480.1418 143.7246 479.7164 144.03 479.4109L144.03 479.4109L144.4991 478.9419L144.4991 478.9419L143.5937 478.9419L143.5937 478.9419L143.5718 478.8983C 143.79 478.36 143.9028 477.9709 144.0627 477.4037z" stroke="none" fill="#000000" fill-rule="evenodd" /><path id="31" transform="matrix(1 0 0 -1 0 841)" d="M147.9246 477.0982C 147.9537 476.9528 147.9682 476.8474 147.9682 476.7164C 147.9682 476.4546 147.7937 476.3455 147.3137 476.3455L147.3137 476.3455L144.5864 476.3455C 144.0337 476.3455 143.9646 476.4219 143.8337 477.1201L143.8337 477.1201L143.67 477.1201L143.67 477.1201L143.67 474.5019L143.67 474.5019L143.8337 474.5019C 143.8628 475.2437 144.0264 475.4291 144.6519 475.4291L144.6519 475.4291L147.1064 475.4291C 147.4555 475.4291 148.001 474.9709 148.001 474.6655C 148.001 474.6073 147.9391 474.5128 147.8373 474.3818C 147.6773 474.2073 147.6191 474.0909 147.6191 473.9455C 147.6191 473.6837 147.8046 473.52 148.11 473.52C 148.4592 473.52 148.6882 473.7564 148.6882 474.1201C 148.6882 474.5855 148.4337 474.9055 147.6628 475.4291L147.6628 475.4291L148.6664 475.4291L148.6664 475.4291L148.6882 475.4837C 148.441 476.0655 148.3028 476.4583 148.0991 477.0982z" stroke="none" fill="#000000" fill-rule="evenodd" /><path id="32" transform="matrix(1 0 0 -1 0 841)" d="M145.4591 469.0909C 144.6301 469.6146 144.3137 470.0837 144.3137 470.7819C 144.3137 471.4073 144.6264 471.8837 145.2519 472.1891C 145.6591 472.3928 146.0228 472.4691 146.6919 472.4837L146.6919 472.4837L146.6919 469.1237C 147.3901 469.2109 147.7173 469.3309 148.0664 469.5928C 148.4592 469.9273 148.6882 470.4219 148.6882 470.9891C 148.6882 471.5419 148.4846 472.0546 148.121 472.4619C 147.67 472.9855 146.8918 473.2692 146.0046 473.2692C 144.4919 473.2692 143.561 472.4946 143.561 471.2291C 143.561 470.1964 144.2046 469.3818 145.3828 468.9164zM147.041 472.4619C 147.8846 472.3455 148.2955 471.9746 148.2955 471.3055C 148.2955 470.6509 147.9864 470.3818 147.041 470.2364z" stroke="none" fill="#000000" fill-rule="evenodd" /><path id="33" transform="matrix(1 0 0 -1 0 841)" d="M145.1646 460.7891L145.2191 460.931C 144.5937 461.3382 144.4991 461.4873 144.4991 461.9673L144.4991 461.9673L144.4991 464.5746L144.4991 464.5746L146.4191 462.7419C 147.4228 461.7819 148.2555 461.3455 149.1137 461.3455C 150.2046 461.3455 151.0446 462.2291 151.0446 463.3636C 151.0446 463.9746 150.8046 464.5419 150.3682 464.9346C 149.9901 465.2837 149.6446 465.4582 148.8737 465.6328L148.8737 465.6328L148.8192 465.4037C 149.881 464.9673 150.2373 464.5782 150.2373 463.8218C 150.2373 462.9055 149.6155 462.2837 148.6992 462.2837C 147.8409 462.2837 146.8228 462.7855 145.8628 463.7018L145.8628 463.7018L143.801 465.6437L143.801 465.6437L143.67 465.6437L143.67 465.6437L143.67 461.3891z" stroke="none" fill="#000000" fill-rule="evenodd" /><path id="34" transform="matrix(1 0 0 -1 0 841)" d="M151.0446 457.7455C 151.0446 458.3564 150.8555 458.8146 150.4773 459.2073C 149.8664 459.8473 148.601 460.2546 147.3355 460.2546C 146.1428 460.2546 144.8701 459.9055 144.2592 459.3818C 143.7791 458.9891 143.5173 458.4291 143.5173 457.7891C 143.5173 457.2364 143.6918 456.7637 144.0846 456.3709C 144.681 455.7455 145.9464 455.3237 147.27 455.3237C 149.4955 455.3237 151.0446 456.32 151.0446 457.7455zM150.761 457.7782C 150.761 456.8619 149.5173 456.3709 147.2482 456.3709C 144.9646 456.3709 143.801 456.8582 143.801 457.7891C 143.801 458.7346 144.9682 459.2073 147.2373 459.2073C 149.55 459.2073 150.761 458.7237 150.761 457.7782z" stroke="none" fill="#000000" fill-rule="evenodd" /><path id="35" transform="matrix(1 0 0 -1 0 841)" d="M144.7609 453.6982C 144.7609 454.0328 144.4737 454.2982 144.1392 454.2982C 143.8192 454.2982 143.55 454.0291 143.55 453.7091C 143.55 453.3746 143.8192 453.0873 144.1392 453.0873C 144.4737 453.0873 144.7609 453.3782 144.7609 453.6982z" stroke="none" fill="#000000" fill-rule="evenodd" /><path id="36" transform="matrix(1 0 0 -1 0 841)" d="M147.27 450.6655C 147.27 450.0255 147.2373 449.7709 147.15 449.5091C 146.9028 448.84 146.2773 448.4073 145.5355 448.4073C 144.6191 448.4073 143.91 449.0364 143.91 449.8364C 143.91 450.1418 143.9864 450.36 144.2482 450.7527C 144.4373 451.0873 144.5209 451.2764 144.5209 451.4509C 144.5209 451.7128 144.3573 451.8655 144.1392 451.8655C 143.7464 451.8655 143.5173 451.4037 143.5173 450.6328C 143.5173 449.8036 143.7973 448.9418 144.2482 448.4182C 144.6846 447.9091 145.3173 447.6218 146.0591 447.6218C 146.6119 447.6218 147.1173 447.8073 147.4664 448.1127C 147.6992 448.3309 147.8264 448.5382 148.0446 449.0182C 148.5537 448.2764 148.9537 447.9927 149.55 447.9927C 150.4228 447.9927 151.0446 448.6909 151.0446 449.6946C 151.0446 450.2473 150.8591 450.72 150.5101 451.1127C 150.2046 451.4473 149.9319 451.611 149.2773 451.8437L149.2773 451.8437L149.2337 451.6801C 150.0192 451.2437 150.3901 450.7527 150.3901 450.0546C 150.3901 449.3564 149.9064 448.8546 149.2228 448.8546C 148.8301 448.8546 148.4264 449.0291 148.1646 449.291C 147.83 449.6255 147.6737 449.9236 147.4119 450.6655z" stroke="none" fill="#000000" fill-rule="evenodd" /><path id="37" transform="matrix(1 0 0 -1 0 841)" d="M148.6773 445.3964C 148.6773 445.731 148.3901 445.9964 148.0555 445.9964C 147.7355 445.9964 147.4664 445.7273 147.4664 445.4073C 147.4664 445.0728 147.7355 444.7855 148.0555 444.7855C 148.3901 444.7855 148.6773 445.0764 148.6773 445.3964zM144.7609 445.3964C 144.7609 445.731 144.4737 445.9964 144.1392 445.9964C 143.8192 445.9964 143.55 445.7273 143.55 445.4073C 143.55 445.0728 143.8192 444.7855 144.1392 444.7855C 144.4737 444.7855 144.7609 445.0764 144.7609 445.3964z" stroke="none" fill="#000000" fill-rule="evenodd" /><path id="38" transform="matrix(1 0 0 -1 0 841)" d="M151.0446 436.5273C 151.0446 438.6218 149.4628 440.0945 147.2809 440.0945C 146.2482 440.0945 145.2555 439.7527 144.6301 439.1564C 143.9319 438.5309 143.5173 437.5527 143.5173 436.5927C 143.5173 434.4545 145.041 432.96 147.2373 432.96C 148.3137 432.96 149.2446 433.28 149.8992 433.8763C 150.6409 434.5745 151.0446 435.48 151.0446 436.5273zM150.6519 436.5273C 150.6519 436.0327 150.4555 435.5236 150.1064 435.1309C 149.5682 434.5491 148.5428 434.2036 147.2482 434.2036C 146.5937 434.2036 145.8519 434.3455 145.2846 434.5637C 145.0082 434.6655 144.7355 434.8509 144.4882 435.0982C 144.0955 435.4909 143.91 435.9818 143.91 436.5491C 143.91 437.0582 144.0955 437.5455 144.4446 437.9236C 144.9391 438.4909 146.0373 438.8509 147.2592 438.8509C 148.3646 438.8509 149.4191 438.5527 149.9427 438.0873C 150.4082 437.6655 150.6519 437.1382 150.6519 436.5273z" stroke="none" fill="#000000" fill-rule="evenodd" /><path id="39" transform="matrix(1 0 0 -1 0 841)" d="M143.561 428.8364L144.1282 427.2327L144.1282 427.2327L144.3028 427.2327C 144.2882 427.4363 144.2919 427.4545 144.2919 427.4836C 144.2919 427.8763 144.4046 427.9636 144.9137 427.9636L144.9137 427.9636L151.0991 427.9636L151.0991 427.9636L151.121 428.0182C 150.9319 428.5418 150.8155 428.9236 150.6409 429.6218L150.6409 429.6218L150.4664 429.6218C 150.4664 429.5345 150.4773 429.4691 150.4773 429.3818C 150.4773 428.9891 150.3573 428.88 149.921 428.88L149.921 428.88L148.2191 428.88C 148.5682 429.3018 148.6882 429.5891 148.6882 430.0255C 148.6882 431.2909 147.4482 432.2946 145.9064 432.2946C 144.5101 432.2946 143.561 431.4836 143.561 430.2764C 143.561 429.6655 143.7682 429.2582 144.2919 428.88L144.2919 428.88L143.5937 428.88zM144.7828 428.88C 144.6955 428.88 144.5718 428.9636 144.4555 429.0654C 144.2373 429.2691 144.1282 429.5455 144.1282 429.8509C 144.1282 430.7673 144.9901 431.3564 146.3428 431.3564C 147.5646 431.3564 148.3828 430.8218 148.3828 429.9927C 148.3828 429.4254 147.8591 428.88 147.2919 428.88z" stroke="none" fill="#000000" fill-rule="evenodd" /><path id="40" transform="matrix(1 0 0 -1 0 841)" d="M148.6882 424.4073C 148.6882 425.8327 147.6337 426.8182 146.1355 426.8182C 144.6519 426.8182 143.561 425.8109 143.561 424.4291C 143.561 423.0618 144.71 422.0073 146.2228 422.0073C 147.6483 422.0073 148.6882 423.0109 148.6882 424.4073zM148.3828 424.5491C 148.3828 423.6327 147.3246 422.9891 145.8409 422.9891C 144.6046 422.9891 143.8664 423.4836 143.8664 424.2982C 143.8664 424.7346 144.1282 425.1382 144.5646 425.3563C 145.1318 425.6618 145.8846 425.8364 146.67 425.8364C 147.7028 425.8364 148.3828 425.3345 148.3828 424.5491z" stroke="none" fill="#000000" fill-rule="evenodd" /><path id="41" transform="matrix(1 0 0 -1 0 841)" d="M147.9246 421.6036C 147.9537 421.4582 147.9682 421.3527 147.9682 421.2218C 147.9682 420.96 147.7937 420.8509 147.3137 420.8509L147.3137 420.8509L144.5864 420.8509C 144.0337 420.8509 143.9646 420.9272 143.8337 421.6254L143.8337 421.6254L143.67 421.6254L143.67 421.6254L143.67 419.0073L143.67 419.0073L143.8337 419.0073C 143.8628 419.7491 144.0264 419.9345 144.6519 419.9345L144.6519 419.9345L147.1064 419.9345C 147.4555 419.9345 148.001 419.4763 148.001 419.1709C 148.001 419.1127 147.9391 419.0182 147.8373 418.8873C 147.6773 418.7127 147.6191 418.5963 147.6191 418.4509C 147.6191 418.1891 147.8046 418.0255 148.11 418.0255C 148.4592 418.0255 148.6882 418.2618 148.6882 418.6254C 148.6882 419.0909 148.4337 419.4109 147.6628 419.9345L147.6628 419.9345L148.6664 419.9345L148.6664 419.9345L148.6882 419.9891C 148.441 420.5709 148.3028 420.9636 148.0991 421.6036z" stroke="none" fill="#000000" fill-rule="evenodd" /><path id="42" transform="matrix(1 0 0 -1 0 841)" d="M148.5792 408.5563L151.0446 408.6545L151.0446 408.6545L151.0446 408.8837C 150.8119 408.9564 150.6846 409.1237 150.6846 409.3418C 150.6846 409.4437 150.71 409.6073 150.7828 409.7673C 150.9573 410.3055 151.0446 410.8509 151.0446 411.36C 151.0446 412.2618 150.7028 413.1673 150.1064 413.8364C 149.4228 414.6073 148.4082 415.0145 147.2155 415.0145C 146.1973 415.0145 145.2519 414.6982 144.6409 414.1309C 143.9282 413.4764 143.5173 412.4836 143.5173 411.3928C 143.5173 410.1709 144.0155 409.0836 144.9028 408.4146L144.9028 408.4146L145.0991 408.6109C 144.3137 409.4255 143.9973 410.1418 143.9973 411.0436C 143.9973 411.7418 144.2083 412.3455 144.6301 412.8109C 145.1537 413.4218 146.1355 413.7491 147.3573 413.7491C 149.321 413.7491 150.6082 412.7382 150.6082 411.1527C 150.6082 410.5418 150.3792 409.9636 149.9427 409.5273C 149.5937 409.1782 149.2773 409.0255 148.5792 408.8073z" stroke="none" fill="#000000" fill-rule="evenodd" /><path id="43" transform="matrix(1 0 0 -1 0 841)" d="M148.6882 405.3163C 148.6882 406.7418 147.6337 407.7273 146.1355 407.7273C 144.6519 407.7273 143.561 406.72 143.561 405.3382C 143.561 403.9709 144.71 402.9164 146.2228 402.9164C 147.6483 402.9164 148.6882 403.92 148.6882 405.3163zM148.3828 405.4582C 148.3828 404.5418 147.3246 403.8982 145.8409 403.8982C 144.6046 403.8982 143.8664 404.3927 143.8664 405.2073C 143.8664 405.6436 144.1282 406.0473 144.5646 406.2654C 145.1318 406.5709 145.8846 406.7455 146.67 406.7455C 147.7028 406.7455 148.3828 406.2437 148.3828 405.4582z" stroke="none" fill="#000000" fill-rule="evenodd" /><path id="44" transform="matrix(1 0 0 -1 0 841)" d="M148.0118 402.4146C 148.041 402.3564 148.0555 402.2509 148.0555 402.12C 148.0555 401.8145 147.881 401.7164 147.3573 401.7164L147.3573 401.7164L144.6519 401.7164C 144.0264 401.7164 143.8773 401.84 143.8337 402.3927L143.8337 402.3927L143.67 402.3927L143.67 402.3927L143.67 400.08L143.67 400.08L143.8337 400.08C 143.8773 400.6473 144.0082 400.8 144.4009 400.8L144.4009 400.8L147.4664 400.8C 147.9464 400.2764 148.0883 400.04 148.0883 399.6763C 148.0883 399.1527 147.7428 398.88 147.03 398.88L147.03 398.88L144.7501 398.88C 144.0519 398.88 143.8773 399.0291 143.8337 399.5673L143.8337 399.5673L143.67 399.5673L143.67 399.5673L143.67 397.2982L143.67 397.2982L143.8337 397.2982C 143.8773 397.8364 144.0155 397.9636 144.5537 397.9636L144.5537 397.9636L147.0519 397.9636C 148.0701 397.9636 148.6882 398.4509 148.6882 399.2509C 148.6882 399.76 148.5027 400.0909 147.8046 400.8327L147.8046 400.8327L148.6664 400.8327L148.6664 400.8327L148.6882 400.9091C 148.4846 401.4473 148.3719 401.8182 148.1973 402.4146z" stroke="none" fill="#000000" fill-rule="evenodd" /><path id="45" transform="matrix(1 0 0 -1 0 841)" d="M148.5792 394.3527L148.5792 395.4545L148.5792 395.4545L149.8446 395.4545C 149.9464 395.4545 149.9864 395.4727 149.9864 395.5309C 149.8846 395.6182 149.7828 395.6763 149.681 395.7491C 149.0701 396.1709 148.5573 396.6327 148.5137 396.8073C 148.4264 396.9382 148.35 396.9927 148.3064 396.9927C 148.2628 396.9927 148.2446 396.9927 148.23 396.9491L148.23 396.9491L148.23 396.3709L148.23 396.3709L144.9464 396.3709C 144.03 396.3709 143.561 396.0546 143.561 395.4C 143.561 394.8763 143.8228 394.4545 144.39 394.0909L144.39 394.0909L144.5101 394.2327C 144.2337 394.4655 144.1282 394.6545 144.1282 394.8873C 144.1282 395.2946 144.4119 395.4545 145.11 395.4545L145.11 395.4545L148.23 395.4545L148.23 395.4545L148.23 394.3527z" stroke="none" fill="#000000" fill-rule="evenodd" /><path id="46" transform="matrix(1 0 0 -1 0 841)" d="M147.9246 394.0255C 147.9537 393.88 147.9682 393.7745 147.9682 393.6436C 147.9682 393.3818 147.7937 393.2727 147.3137 393.2727L147.3137 393.2727L144.5864 393.2727C 144.0337 393.2727 143.9646 393.3491 143.8337 394.0472L143.8337 394.0472L143.67 394.0472L143.67 394.0472L143.67 391.4291L143.67 391.4291L143.8337 391.4291C 143.8628 392.1709 144.0264 392.3563 144.6519 392.3563L144.6519 392.3563L147.1064 392.3563C 147.4555 392.3563 148.001 391.8982 148.001 391.5927C 148.001 391.5345 147.9391 391.44 147.8373 391.3091C 147.6773 391.1345 147.6191 391.0182 147.6191 390.8727C 147.6191 390.6109 147.8046 390.4473 148.11 390.4473C 148.4592 390.4473 148.6882 390.6836 148.6882 391.0472C 148.6882 391.5127 148.4337 391.8327 147.6628 392.3563L147.6628 392.3563L148.6664 392.3563L148.6664 392.3563L148.6882 392.4109C 148.441 392.9927 148.3028 393.3854 148.0991 394.0255z" stroke="none" fill="#000000" fill-rule="evenodd" /><path id="47" transform="matrix(1 0 0 -1 0 841)" d="M148.6882 387.7418C 148.6882 389.1672 147.6337 390.1527 146.1355 390.1527C 144.6519 390.1527 143.561 389.1454 143.561 387.7636C 143.561 386.3964 144.71 385.3418 146.2228 385.3418C 147.6483 385.3418 148.6882 386.3455 148.6882 387.7418zM148.3828 387.8836C 148.3828 386.9673 147.3246 386.3236 145.8409 386.3236C 144.6046 386.3236 143.8664 386.8182 143.8664 387.6327C 143.8664 388.0691 144.1282 388.4727 144.5646 388.6909C 145.1318 388.9963 145.8846 389.1709 146.67 389.1709C 147.7028 389.1709 148.3828 388.6691 148.3828 387.8836z" stroke="none" fill="#000000" fill-rule="evenodd" /><path id="48" transform="matrix(1 0 0 -1 0 841)" d="M150.4664 384.8073L150.4664 384.7418C 150.4664 384.6254 150.4882 384.4909 150.4882 384.4036C 150.4882 384.0545 150.3318 383.9454 149.8228 383.9454L149.8228 383.9454L144.6191 383.9454C 144.0228 383.9454 143.8773 384.1018 143.8337 384.7855L143.8337 384.7855L143.67 384.7855L143.67 384.7855L143.67 382.2109L143.67 382.2109L143.8337 382.2109C 143.8773 382.9091 143.9755 383.0291 144.5864 383.0291L144.5864 383.0291L151.0991 383.0291L151.0991 383.0291L151.121 383.0727C 150.9319 383.64 150.8155 384.0654 150.6409 384.8073z" stroke="none" fill="#000000" fill-rule="evenodd" /><path id="49" transform="matrix(1 0 0 -1 0 841)" d="M151.0446 375.3163C 151.0446 377.4109 149.4628 378.8836 147.2809 378.8836C 146.2482 378.8836 145.2555 378.5418 144.6301 377.9454C 143.9319 377.3199 143.5173 376.3418 143.5173 375.3818C 143.5173 373.2436 145.041 371.7491 147.2373 371.7491C 148.3137 371.7491 149.2446 372.069 149.8992 372.6654C 150.6409 373.3636 151.0446 374.269 151.0446 375.3163zM150.6519 375.3163C 150.6519 374.8218 150.4555 374.3127 150.1064 373.92C 149.5682 373.3381 148.5428 372.9927 147.2482 372.9927C 146.5937 372.9927 145.8519 373.1345 145.2846 373.3527C 145.0082 373.4545 144.7355 373.64 144.4882 373.8873C 144.0955 374.28 143.91 374.7709 143.91 375.3381C 143.91 375.8472 144.0955 376.3345 144.4446 376.7127C 144.9391 377.28 146.0373 377.64 147.2592 377.64C 148.3646 377.64 149.4191 377.3418 149.9427 376.8763C 150.4082 376.4545 150.6519 375.9272 150.6519 375.3163z" stroke="none" fill="#000000" fill-rule="evenodd" /><path id="50" transform="matrix(1 0 0 -1 0 841)" d="M147.9573 371.28C 147.9573 371.1927 147.9682 371.1091 147.9682 371.0073C 147.9682 370.6436 147.8555 370.5599 147.3464 370.5599L147.3464 370.5599L142.241 370.5599C 141.6737 370.5599 141.561 370.6836 141.4882 371.3236L141.4882 371.3236L141.3028 371.3236L141.3028 371.3236L141.3028 368.6836L141.3028 368.6836L141.4991 368.6836C 141.5137 369.5127 141.6337 369.6436 142.3173 369.6436L142.3173 369.6436L144.03 369.6436C 143.6664 369.2654 143.561 369.0073 143.561 368.5418C 143.561 367.2618 144.7791 366.2509 146.3646 366.2509C 147.7173 366.2509 148.6882 367.0254 148.6882 368.0727C 148.6882 368.6836 148.4082 369.1636 147.8264 369.6436L147.8264 369.6436L148.6664 369.6436L148.6664 369.6436L148.6882 369.709C 148.4555 370.3054 148.3064 370.6836 148.1318 371.28zM147.3137 369.6436C 147.6337 369.6436 148.0337 369.04 148.0337 368.5309C 148.0337 367.7309 147.2046 367.189 145.9391 367.189C 144.7173 367.189 143.91 367.7236 143.91 368.509C 143.91 369.0327 144.2955 369.6436 144.6301 369.6436z" stroke="none" fill="#000000" fill-rule="evenodd" /><path id="51" transform="matrix(1 0 0 -1 0 841)" d="M148.5792 363.1418L148.5792 364.2436L148.5792 364.2436L149.8446 364.2436C 149.9464 364.2436 149.9864 364.2618 149.9864 364.3199C 149.8846 364.4072 149.7828 364.4654 149.681 364.5381C 149.0701 364.96 148.5573 365.4218 148.5137 365.5963C 148.4264 365.7272 148.35 365.7818 148.3064 365.7818C 148.2628 365.7818 148.2446 365.7818 148.23 365.7382L148.23 365.7382L148.23 365.16L148.23 365.16L144.9464 365.16C 144.03 365.16 143.561 364.8436 143.561 364.189C 143.561 363.6654 143.8228 363.2436 144.39 362.8799L144.39 362.8799L144.5101 363.0218C 144.2337 363.2545 144.1282 363.4436 144.1282 363.6763C 144.1282 364.0836 144.4119 364.2436 145.11 364.2436L145.11 364.2436L148.23 364.2436L148.23 364.2436L148.23 363.1418z" stroke="none" fill="#000000" fill-rule="evenodd" /><path id="52" transform="matrix(1 0 0 -1 0 841)" d="M148.6882 360.9818L148.0883 362.6727L148.0883 362.6727L147.9246 362.6727L147.9246 362.6727L147.9355 362.5854C 147.9501 362.4545 147.9682 362.3163 147.9682 362.2145C 147.9682 361.9527 147.7937 361.8545 147.3137 361.8545L147.3137 361.8545L144.7828 361.8545C 143.9973 361.8545 143.8773 361.9745 143.8337 362.7163L143.8337 362.7163L143.67 362.7163L143.67 362.7163L143.67 360.1309L143.67 360.1309L143.8337 360.1309C 143.8773 360.8582 143.9973 360.9381 144.7828 360.9381L144.7828 360.9381L148.6555 360.9381zM151.121 361.4945C 151.121 361.7999 150.8701 362.04 150.5646 362.04C 150.2592 362.04 150.0082 361.7999 150.0082 361.4945C 150.0082 361.189 150.2446 360.9272 150.5646 360.9272C 150.8701 360.9272 151.121 361.189 151.121 361.4945z" stroke="none" fill="#000000" fill-rule="evenodd" /><path id="53" transform="matrix(1 0 0 -1 0 841)" d="M148.6882 357.1309C 148.6882 358.5563 147.6337 359.5417 146.1355 359.5417C 144.6519 359.5417 143.561 358.5345 143.561 357.1527C 143.561 355.7854 144.71 354.7308 146.2228 354.7308C 147.6483 354.7308 148.6882 355.7345 148.6882 357.1309zM148.3828 357.2727C 148.3828 356.3563 147.3246 355.7127 145.8409 355.7127C 144.6046 355.7127 143.8664 356.2072 143.8664 357.0218C 143.8664 357.4581 144.1282 357.8618 144.5646 358.08C 145.1318 358.3854 145.8846 358.5599 146.67 358.5599C 147.7028 358.5599 148.3828 358.0581 148.3828 357.2727z" stroke="none" fill="#000000" fill-rule="evenodd" /><path id="54" transform="matrix(1 0 0 -1 0 841)" d="M148.0118 354.2291C 148.041 354.1708 148.0555 354.0654 148.0555 353.9345C 148.0555 353.629 147.881 353.5309 147.3573 353.5309L147.3573 353.5309L144.6519 353.5309C 144.0264 353.5309 143.8773 353.6545 143.8337 354.2072L143.8337 354.2072L143.67 354.2072L143.67 354.2072L143.67 351.8945L143.67 351.8945L143.8337 351.8945C 143.8773 352.4618 144.0082 352.6145 144.4009 352.6145L144.4009 352.6145L147.4664 352.6145C 147.9464 352.0909 148.0883 351.8545 148.0883 351.4908C 148.0883 350.9672 147.7428 350.6945 147.03 350.6945L147.03 350.6945L144.7501 350.6945C 144.0519 350.6945 143.8773 350.8436 143.8337 351.3818L143.8337 351.3818L143.67 351.3818L143.67 351.3818L143.67 349.1127L143.67 349.1127L143.8337 349.1127C 143.8773 349.6509 144.0155 349.7781 144.5537 349.7781L144.5537 349.7781L147.0519 349.7781C 148.0701 349.7781 148.6882 350.2654 148.6882 351.0654C 148.6882 351.5745 148.5027 351.9054 147.8046 352.6472L147.8046 352.6472L148.6664 352.6472L148.6664 352.6472L148.6882 352.7236C 148.4846 353.2618 148.3719 353.6327 148.1973 354.2291z" stroke="none" fill="#000000" fill-rule="evenodd" /><path id="55" transform="matrix(1 0 0 -1 0 841)" d="M147.0955 345.5127L148.5792 345.5563L148.5792 345.5563L148.5792 345.6763L148.5792 345.6763L148.5573 345.6981C 148.47 345.7999 148.47 345.8072 148.47 345.8508C 148.47 345.9236 148.4882 346.0291 148.5464 346.1454C 148.6337 346.3927 148.6773 346.6327 148.6773 346.9091C 148.6773 347.7817 148.121 348.3927 147.3355 348.3927C 146.7246 348.3927 146.2882 348.0472 145.7646 347.1163L145.7646 347.1163L145.4046 346.4836C 145.1864 346.1054 144.921 345.9163 144.5864 345.9163C 144.1064 345.9163 143.801 346.269 143.801 346.8218C 143.801 347.2 143.9355 347.5345 144.1828 347.7381C 144.4446 347.9708 144.7028 348.0763 145.3282 348.2072L145.3282 348.2072L145.3282 348.3818L145.3282 348.3818L143.6264 348.3818L143.6264 348.3818L143.6264 348.2399C 143.7282 348.1672 143.7573 348.1199 143.7573 347.989C 143.7573 347.9017 143.7282 347.749 143.67 347.4872C 143.6119 347.1818 143.561 346.8945 143.561 346.6909C 143.561 345.8618 144.1864 345.1526 144.9573 345.1526C 145.4955 345.1526 145.8628 345.4145 146.2555 346.069L146.2555 346.069L146.9537 347.2472C 147.1282 347.5527 147.3901 347.7163 147.6955 347.7163C 148.1318 347.7163 148.4373 347.3854 148.4373 346.8763C 148.4373 346.2654 148.0555 345.9381 147.0955 345.6763z" stroke="none" fill="#000000" fill-rule="evenodd" /></g></g></svg>