<svg xmlns="http://www.w3.org/2000/svg" xmlns:xlink="http://www.w3.org/1999/xlink" id="body_376" preserveAspectRatio="xMinYMin meet" viewBox="0 0 793 1121"><defs><clipPath id="1"><path id="" clip-rule="evenodd" transform="matrix(1 0 0 1 0 0)" d="M0 841L0 -0.8900146L0 -0.8900146L595.276 -0.8900146L595.276 -0.8900146L595.276 841L595.276 841L0 841z" /></clipPath></defs><g transform="matrix(1.333333 0 0 1.333333 0 0)"><g clip-path="url(#1)"><path id="31" transform="matrix(1 0 0 -1 0 841)" d="M85.039 766.564L510.236 766.564" stroke="#000000" stroke-width="0.498" fill="none" /><path id="62" transform="matrix(1 0 0 -1 0 841)" d="M219.195 745.737L295.907 745.737" stroke="#000000" stroke-width="0.398" fill="none" /><path id="95" transform="matrix(1 0 0 -1 0 841)" d="M160.192 718.425L284.501 718.425" stroke="#000000" stroke-width="0.398" fill="none" /><path id="118" transform="matrix(1 0 0 -1 0 841)" d="M294.641 718.425L336.515 718.425" stroke="#000000" stroke-width="0.398" fill="none" /><path id="134" transform="matrix(1 0 0 -1 0 841)" d="M354.461 718.425L409.753 718.425" stroke="#000000" stroke-width="0.398" fill="none" /><path id="143" transform="matrix(1 0 0 -1 0 841)" d="M349.878 732.726L414.336 732.726" stroke="#000000" stroke-width="0.398" fill="none" /><path id="144" transform="matrix(1 0 0 -1 0 841)" d="M350.078 703.879L350.078 732.726" stroke="#000000" stroke-width="0.398" fill="none" /><path id="145" transform="matrix(1 0 0 -1 0 841)" d="M414.137 703.879L414.137 732.726" stroke="#000000" stroke-width="0.398" fill="none" /><path id="146" transform="matrix(1 0 0 -1 0 841)" d="M349.878 703.879L414.336 703.879" stroke="#000000" stroke-width="0.398" fill="none" /><path id="316" transform="matrix(1 0 0 -1 0 841)" d="M297.896 646.706L334.884 646.706" stroke="#000000" stroke-width="0.398" fill="none" /><path id="319" transform="matrix(1 0 0 -1 0 841)" d="M240.414 635.817L336.08 635.817" stroke="#000000" stroke-width="0.398" fill="none" /><path id="330" transform="matrix(1 0 0 -1 0 841)" d="M349.444 643.179L388.726 643.179" stroke="#000000" stroke-width="0.398" fill="none" /><path id="331" transform="matrix(1 0 0 -1 0 841)" d="M349.644 629.984L349.644 643.179" stroke="#000000" stroke-width="0.398" fill="none" /><path id="332" transform="matrix(1 0 0 -1 0 841)" d="M388.527 629.984L388.527 643.179" stroke="#000000" stroke-width="0.398" fill="none" /><path id="333" transform="matrix(1 0 0 -1 0 841)" d="M349.444 629.984L388.726 629.984" stroke="#000000" stroke-width="0.398" fill="none" /><path id="501" transform="matrix(1 0 0 -1 0 841)" d="M113.508 571.175L135.764 571.175" stroke="#000000" stroke-width="0.398" fill="none" /><path id="514" transform="matrix(1 0 0 -1 0 841)" d="M175.23 571.175L188.47 571.175" stroke="#000000" stroke-width="0.398" fill="none" /><path id="523" transform="matrix(1 0 0 -1 0 841)" d="M198.61 571.175L221.434 571.175" stroke="#000000" stroke-width="0.398" fill="none" /><path id="530" transform="matrix(1 0 0 -1 0 841)" d="M231.574 571.175L279.683 571.175" stroke="#000000" stroke-width="0.398" fill="none" /><path id="547" transform="matrix(1 0 0 -1 0 841)" d="M304.767 571.175L316.941 571.175" stroke="#000000" stroke-width="0.398" fill="none" /><path id="563" transform="matrix(1 0 0 -1 0 841)" d="M375.284 571.175L402.521 571.175" stroke="#000000" stroke-width="0.398" fill="none" /><path id="567" transform="matrix(1 0 0 -1 0 841)" d="M355.757 585.476L407.104 585.476" stroke="#000000" stroke-width="0.398" fill="none" /><path id="568" transform="matrix(1 0 0 -1 0 841)" d="M355.957 556.629L355.957 585.476" stroke="#000000" stroke-width="0.398" fill="none" /><path id="569" transform="matrix(1 0 0 -1 0 841)" d="M406.905 556.629L406.905 585.476" stroke="#000000" stroke-width="0.398" fill="none" /><path id="570" transform="matrix(1 0 0 -1 0 841)" d="M355.757 556.629L407.104 556.629" stroke="#000000" stroke-width="0.398" fill="none" /><path id="660" transform="matrix(1 0 0 -1 0 841)" d="M174.354 521.282L216.228 521.282" stroke="#000000" stroke-width="0.398" fill="none" /><path id="679" transform="matrix(1 0 0 -1 0 841)" d="M229.592 528.644L271.634 528.644" stroke="#000000" stroke-width="0.398" fill="none" /><path id="680" transform="matrix(1 0 0 -1 0 841)" d="M229.791 515.449L229.791 528.644" stroke="#000000" stroke-width="0.398" fill="none" /><path id="681" transform="matrix(1 0 0 -1 0 841)" d="M271.435 515.449L271.435 528.644" stroke="#000000" stroke-width="0.398" fill="none" /><path id="682" transform="matrix(1 0 0 -1 0 841)" d="M229.592 515.449L271.634 515.449" stroke="#000000" stroke-width="0.398" fill="none" /><path id="794" transform="matrix(1 0 0 -1 0 841)" d="M139.674 457.989L168.954 457.989" stroke="#000000" stroke-width="0.398" fill="none" /><path id="814" transform="matrix(1 0 0 -1 0 841)" d="M246.964 457.989L279.243 457.989" stroke="#000000" stroke-width="0.398" fill="none" /><path id="821" transform="matrix(1 0 0 -1 0 841)" d="M263.104 445.481L278.048 445.481" stroke="#000000" stroke-width="0.398" fill="none" /><path id="829" transform="matrix(1 0 0 -1 0 841)" d="M289.383 457.989L324.252 457.989" stroke="#000000" stroke-width="0.398" fill="none" /><path id="845" transform="matrix(1 0 0 -1 0 841)" d="M334.392 457.989L365.336 457.989" stroke="#000000" stroke-width="0.398" fill="none" /><path id="856" transform="matrix(1 0 0 -1 0 841)" d="M378.699 465.546L414.216 465.546" stroke="#000000" stroke-width="0.398" fill="none" /><path id="857" transform="matrix(1 0 0 -1 0 841)" d="M378.899 450.278L378.899 465.546" stroke="#000000" stroke-width="0.398" fill="none" /><path id="858" transform="matrix(1 0 0 -1 0 841)" d="M414.017 450.278L414.017 465.546" stroke="#000000" stroke-width="0.398" fill="none" /><path id="859" transform="matrix(1 0 0 -1 0 841)" d="M378.699 450.278L414.216 450.278" stroke="#000000" stroke-width="0.398" fill="none" /><path id="988" transform="matrix(1 0 0 -1 0 841)" d="M232.793 385.955L253.415 385.955" stroke="#000000" stroke-width="0.398" fill="none" /><path id="1014" transform="matrix(1 0 0 -1 0 841)" d="M215.099 364.411L235.721 364.411" stroke="#000000" stroke-width="0.398" fill="none" /><path id="1029" transform="matrix(1 0 0 -1 0 841)" d="M295.802 364.411L309.799 364.411" stroke="#000000" stroke-width="0.398" fill="none" /><path id="1076" transform="matrix(1 0 0 -1 0 841)" d="M141.198 330.987L155.195 330.987" stroke="#000000" stroke-width="0.398" fill="none" /><path id="1079" transform="matrix(1 0 0 -1 0 841)" d="M139.136 320.267L157.258 320.267" stroke="#000000" stroke-width="0.398" fill="none" /><path id="1089" transform="matrix(1 0 0 -1 0 841)" d="M178.697 320.267L218.565 320.267" stroke="#000000" stroke-width="0.398" fill="none" /><path id="1111" transform="matrix(1 0 0 -1 0 841)" d="M279.851 320.267L329.853 320.267" stroke="#000000" stroke-width="0.398" fill="none" /><path id="1114" transform="matrix(1 0 0 -1 0 841)" d="M249.64 334.568L334.435 334.568" stroke="#000000" stroke-width="0.398" fill="none" /><path id="1115" transform="matrix(1 0 0 -1 0 841)" d="M249.839 307.754L249.839 334.568" stroke="#000000" stroke-width="0.398" fill="none" /><path id="1116" transform="matrix(1 0 0 -1 0 841)" d="M334.236 307.754L334.236 334.568" stroke="#000000" stroke-width="0.398" fill="none" /><path id="1117" transform="matrix(1 0 0 -1 0 841)" d="M249.64 307.754L334.435 307.754" stroke="#000000" stroke-width="0.398" fill="none" /><path id="1123" transform="matrix(1 0 0 -1 0 841)" d="M354.45 320.267L372.572 320.267" stroke="#000000" stroke-width="0.398" fill="none" /><path id="1176" transform="matrix(1 0 0 -1 0 841)" d="M248.694 292.252L373.425 292.252" stroke="#000000" stroke-width="0.398" fill="none" /><path id="1200" transform="matrix(1 0 0 -1 0 841)" d="M341.624 279.745L372.229 279.745" stroke="#000000" stroke-width="0.398" fill="none" /><path id="1216" transform="matrix(1 0 0 -1 0 841)" d="M387.984 292.252L440.963 292.252" stroke="#000000" stroke-width="0.398" fill="none" /><path id="1229" transform="matrix(1 0 0 -1 0 841)" d="M458.91 292.252L479.383 292.252" stroke="#000000" stroke-width="0.398" fill="none" /><path id="1233" transform="matrix(1 0 0 -1 0 841)" d="M454.327 306.359L483.966 306.359" stroke="#000000" stroke-width="0.398" fill="none" /><path id="1234" transform="matrix(1 0 0 -1 0 841)" d="M454.526 277.707L454.526 306.359" stroke="#000000" stroke-width="0.398" fill="none" /><path id="1235" transform="matrix(1 0 0 -1 0 841)" d="M483.766 277.707L483.766 306.359" stroke="#000000" stroke-width="0.398" fill="none" /><path id="1236" transform="matrix(1 0 0 -1 0 841)" d="M454.327 277.707L483.966 277.707" stroke="#000000" stroke-width="0.398" fill="none" /><path id="1408" transform="matrix(1 0 0 -1 0 841)" d="M194.088 202.842L270.8 202.842" stroke="#000000" stroke-width="0.398" fill="none" /><path id="1440" transform="matrix(1 0 0 -1 0 841)" d="M284.252 202.842L408.561 202.842" stroke="#000000" stroke-width="0.398" fill="none" /><path id="1464" transform="matrix(1 0 0 -1 0 841)" d="M417.593 202.842L459.467 202.842" stroke="#000000" stroke-width="0.398" fill="none" /><path id="1481" transform="matrix(1 0 0 -1 0 841)" d="M476.307 202.842L537.687 202.842" stroke="#000000" stroke-width="0.398" fill="none" /><path id="1490" transform="matrix(1 0 0 -1 0 841)" d="M471.724 217.144L542.27 217.144" stroke="#000000" stroke-width="0.398" fill="none" /><path id="1491" transform="matrix(1 0 0 -1 0 841)" d="M471.924 188.297L471.924 217.144" stroke="#000000" stroke-width="0.398" fill="none" /><path id="1492" transform="matrix(1 0 0 -1 0 841)" d="M542.071 188.297L542.071 217.144" stroke="#000000" stroke-width="0.398" fill="none" /><path id="1493" transform="matrix(1 0 0 -1 0 841)" d="M471.724 188.297L542.27 188.297" stroke="#000000" stroke-width="0.398" fill="none" /><path id="1696" transform="matrix(1 0 0 -1 0 841)" d="M197.115 121.617L273.827 121.617" stroke="#000000" stroke-width="0.398" fill="none" /><path id="1729" transform="matrix(1 0 0 -1 0 841)" d="M290.307 121.617L419.597 121.617" stroke="#000000" stroke-width="0.398" fill="none" /><path id="1753" transform="matrix(1 0 0 -1 0 841)" d="M431.017 121.617L472.891 121.617" stroke="#000000" stroke-width="0.398" fill="none" /><path id="1771" transform="matrix(1 0 0 -1 0 841)" d="M116.895 94.305L183.257 94.305" stroke="#000000" stroke-width="0.398" fill="none" /><path id="1780" transform="matrix(1 0 0 -1 0 841)" d="M112.312 108.606L187.839 108.606" stroke="#000000" stroke-width="0.398" fill="none" /><path id="1781" transform="matrix(1 0 0 -1 0 841)" d="M112.511 79.759L112.511 108.606" stroke="#000000" stroke-width="0.398" fill="none" /><path id="1782" transform="matrix(1 0 0 -1 0 841)" d="M187.64 79.759L187.64 108.606" stroke="#000000" stroke-width="0.398" fill="none" /><path id="1783" transform="matrix(1 0 0 -1 0 841)" d="M112.312 79.759L187.839 79.759" stroke="#000000" stroke-width="0.398" fill="none" /><g transform="matrix(0.2 0 0 0.2 249.239 774.845)"><g transform="matrix(1 0 0 1 0 0)"><image x="0" y="0" xlink:href="img_04.png" width="484" height="104" /></g></g></g></g></svg>