<svg xmlns="http://www.w3.org/2000/svg" xmlns:xlink="http://www.w3.org/1999/xlink" id="body_364" preserveAspectRatio="xMinYMin meet" viewBox="0 0 793 1121"><defs><clipPath id="1"><path id="" clip-rule="evenodd" transform="matrix(1 0 0 1 0 0)" d="M0 841L0 -0.8900146L0 -0.8900146L595.276 -0.8900146L595.276 -0.8900146L595.276 841L595.276 841L0 841z" /></clipPath></defs><g transform="matrix(1.333333 0 0 1.333333 0 0)"><g clip-path="url(#1)"><path id="31" transform="matrix(1 0 0 -1 0 841)" d="M85.039 766.564L510.236 766.564" stroke="#000000" stroke-width="0.498" fill="none" /><path id="32" transform="matrix(1 0 0 -1 0 841)" d="M354.3337 714.1324C 354.3337 737.616 335.297 756.6526 311.8135 756.6526C 288.3299 756.6526 269.2933 737.616 269.2933 714.1324C 269.2933 690.6488 288.3299 671.6122 311.8135 671.6122C 335.297 671.6122 354.3337 690.6488 354.3337 714.1324z" stroke="#000000" stroke-width="0.3985" fill="#F2F2F2" fill-rule="nonzero" /><path id="33" transform="matrix(1 0 0 -1 0 841)" d="M269.2932 714.1324L354.3337 714.1324" stroke="#000000" stroke-width="1.19553" fill="none" /><path id="62" transform="matrix(1 0 0 -1 0 841)" d="M289.1359 677.2814L311.8135 714.1324" stroke="#000000" stroke-width="1.19553" fill="none" /><path id="63" transform="matrix(1 0 0 -1 0 841)" d="M334.491 677.2814L311.8135 714.1324" stroke="#000000" stroke-width="1.19553" fill="none" /><path id="81" transform="matrix(1 0 0 -1 0 841)" d="M192.64 599.438L205.372 599.438" stroke="#000000" stroke-width="0.398" fill="none" /><path id="87" transform="matrix(1 0 0 -1 0 841)" d="M219.932 599.438L299.979 599.438" stroke="#000000" stroke-width="0.398" fill="none" /><path id="109" transform="matrix(1 0 0 -1 0 841)" d="M314.538 599.438L470.121 599.438" stroke="#000000" stroke-width="0.398" fill="none" /><path id="122" transform="matrix(1 0 0 -1 0 841)" d="M367.158 587.125L443.473 587.125" stroke="#000000" stroke-width="0.398" fill="none" /><g transform="matrix(0.2 0 0 0.2 249.239 774.845)"><g transform="matrix(1 0 0 1 0 0)"><image x="0" y="0" xlink:href="img_04.png" width="484" height="104" /></g></g></g></g></svg>