<svg xmlns="http://www.w3.org/2000/svg" xmlns:xlink="http://www.w3.org/1999/xlink" id="body_402" preserveAspectRatio="xMinYMin meet" viewBox="0 0 793 1121"><defs><clipPath id="1"><path id="" clip-rule="evenodd" transform="matrix(1 0 0 1 0 0)" d="M0 841L0 -0.8900146L0 -0.8900146L595.276 -0.8900146L595.276 -0.8900146L595.276 841L595.276 841L0 841z" /></clipPath></defs><g transform="matrix(1.333333 0 0 1.333333 0 0)"><g clip-path="url(#1)"><path id="31" transform="matrix(1 0 0 -1 0 841)" d="M85.039 766.564L510.236 766.564" stroke="#000000" stroke-width="0.498" fill="none" /><path id="77" transform="matrix(1 0 0 -1 0 841)" d="M301.218 733.438L314.458 733.438" stroke="#000000" stroke-width="0.398" fill="none" /><path id="133" transform="matrix(1 0 0 -1 0 841)" d="M137.508 688.666L210.513 688.666" stroke="#000000" stroke-width="0.398" fill="none" /><path id="155" transform="matrix(1 0 0 -1 0 841)" d="M293.733 701.418L306.973 701.418" stroke="#000000" stroke-width="0.398" fill="none" /><path id="177" transform="matrix(1 0 0 -1 0 841)" d="M372.981 701.418L397.03 701.418" stroke="#000000" stroke-width="0.398" fill="none" /><path id="198" transform="matrix(1 0 0 -1 0 841)" d="M419.892 701.418L492.897 701.418" stroke="#000000" stroke-width="0.398" fill="none" /><path id="203" transform="matrix(1 0 0 -1 0 841)" d="M225.072 688.666L494.092 688.666" stroke="#000000" stroke-width="0.398" fill="none" /><path id="228" transform="matrix(1 0 0 -1 0 841)" d="M176.236 651.026L249.241 651.026" stroke="#000000" stroke-width="0.398" fill="none" /><path id="246" transform="matrix(1 0 0 -1 0 841)" d="M137.508 606.304L235.499 606.304" stroke="#000000" stroke-width="0.398" fill="none" /><path id="288" transform="matrix(1 0 0 -1 0 841)" d="M279.056 619.055L352.061 619.055" stroke="#000000" stroke-width="0.398" fill="none" /><path id="292" transform="matrix(1 0 0 -1 0 841)" d="M249.088 606.304L353.257 606.304" stroke="#000000" stroke-width="0.398" fill="none" /><path id="331" transform="matrix(1 0 0 -1 0 841)" d="M382.955 606.304L505.653 606.304" stroke="#000000" stroke-width="0.398" fill="none" /><path id="357" transform="matrix(1 0 0 -1 0 841)" d="M365.65 620.605L510.236 620.605" stroke="#000000" stroke-width="0.398" fill="none" /><path id="358" transform="matrix(1 0 0 -1 0 841)" d="M365.849 591.758L365.849 620.605" stroke="#000000" stroke-width="0.398" fill="none" /><path id="359" transform="matrix(1 0 0 -1 0 841)" d="M510.037 591.758L510.037 620.605" stroke="#000000" stroke-width="0.398" fill="none" /><path id="360" transform="matrix(1 0 0 -1 0 841)" d="M365.65 591.758L510.236 591.758" stroke="#000000" stroke-width="0.398" fill="none" /><path id="531" transform="matrix(1 0 0 -1 0 841)" d="M113.508 212.419L184.62 212.419" stroke="#000000" stroke-width="0.398" fill="none" /><path id="554" transform="matrix(1 0 0 -1 0 841)" d="M226.846 212.419L293.844 212.419" stroke="#000000" stroke-width="0.398" fill="none" /><path id="575" transform="matrix(1 0 0 -1 0 841)" d="M302.876 212.419L388.932 212.419" stroke="#000000" stroke-width="0.398" fill="none" /><path id="617" transform="matrix(1 0 0 -1 0 841)" d="M436.14 212.419L550.39 212.419" stroke="#000000" stroke-width="0.398" fill="none" /><path id="632" transform="matrix(1 0 0 -1 0 841)" d="M113.508 157.218L178.195 157.218" stroke="#000000" stroke-width="0.398" fill="none" /><path id="658" transform="matrix(1 0 0 -1 0 841)" d="M225.401 157.218L301.495 157.218" stroke="#000000" stroke-width="0.398" fill="none" /><path id="680" transform="matrix(1 0 0 -1 0 841)" d="M310.528 157.218L408.978 157.218" stroke="#000000" stroke-width="0.398" fill="none" /><path id="710" transform="matrix(1 0 0 -1 0 841)" d="M478.383 157.218L543.07 157.218" stroke="#000000" stroke-width="0.398" fill="none" /><path id="714" transform="matrix(1 0 0 -1 0 841)" d="M421.235 171.52L547.652 171.52" stroke="#000000" stroke-width="0.398" fill="none" /><path id="715" transform="matrix(1 0 0 -1 0 841)" d="M421.434 142.673L421.434 171.52" stroke="#000000" stroke-width="0.398" fill="none" /><path id="716" transform="matrix(1 0 0 -1 0 841)" d="M547.453 142.673L547.453 171.52" stroke="#000000" stroke-width="0.398" fill="none" /><path id="717" transform="matrix(1 0 0 -1 0 841)" d="M421.235 142.673L547.652 142.673" stroke="#000000" stroke-width="0.398" fill="none" /><path id="912" transform="matrix(1 0 0 -1 0 841)" d="M239.882 92.382L254.826 92.382" stroke="#000000" stroke-width="0.398" fill="none" /><path id="921" transform="matrix(1 0 0 -1 0 841)" d="M298.737 92.382L321.422 92.382" stroke="#000000" stroke-width="0.398" fill="none" /><path id="935" transform="matrix(1 0 0 -1 0 841)" d="M363.161 92.382L375.335 92.382" stroke="#000000" stroke-width="0.398" fill="none" /><path id="937" transform="matrix(1 0 0 -1 0 841)" d="M334.786 104.152L379.918 104.152" stroke="#000000" stroke-width="0.398" fill="none" /><path id="938" transform="matrix(1 0 0 -1 0 841)" d="M334.986 79.759L334.986 104.152" stroke="#000000" stroke-width="0.398" fill="none" /><path id="939" transform="matrix(1 0 0 -1 0 841)" d="M379.719 79.759L379.719 104.152" stroke="#000000" stroke-width="0.398" fill="none" /><path id="940" transform="matrix(1 0 0 -1 0 841)" d="M334.786 79.759L379.918 79.759" stroke="#000000" stroke-width="0.398" fill="none" /><g transform="matrix(0.2 0 0 0.2 249.239 774.845)"><g transform="matrix(1 0 0 1 0 0)"><image x="0" y="0" xlink:href="img_04.png" width="484" height="104" /></g></g></g></g></svg>