<svg xmlns="http://www.w3.org/2000/svg" xmlns:xlink="http://www.w3.org/1999/xlink" id="body_157" preserveAspectRatio="xMinYMin meet" viewBox="0 0 793 1121"><defs><clipPath id="1"><path id="" clip-rule="evenodd" transform="matrix(1 0 0 1 0 0)" d="M0 841L0 -0.8900146L0 -0.8900146L595.276 -0.8900146L595.276 -0.8900146L595.276 841L595.276 841L0 841z" /></clipPath></defs><g transform="matrix(1.333333 0 0 1.333333 0 0)"><g clip-path="url(#1)"><path id="26" transform="matrix(1 0 0 -1 0 841)" d="M85.039 766.564L510.236 766.564" stroke="#000000" stroke-width="0.498" fill="none" /><path id="44" transform="matrix(1 0 0 -1 0 841)" d="M85.039 85.039L85.039 721.2482C 85.039 723.5966 86.94264 725.5002 89.29099 725.5002L89.29099 725.5002L505.9893 725.5002C 508.3377 725.5002 510.2413 723.5966 510.2413 721.2482L510.2413 721.2482L510.2413 85.039z" stroke="none" fill="#BFBFFF" fill-rule="nonzero" /><path id="45" transform="matrix(1 0 0 -1 0 841)" d="M86.45631 85.039L86.45631 708.0847L508.824 708.0847L508.824 85.039z" stroke="none" fill="#E6E6FF" fill-rule="nonzero" /></g></g></svg>