<svg xmlns="http://www.w3.org/2000/svg" xmlns:xlink="http://www.w3.org/1999/xlink" id="body_96" preserveAspectRatio="xMinYMin meet" viewBox="0 0 793 1121"><defs><clipPath id="1"><path id="" clip-rule="evenodd" transform="matrix(1 0 0 1 0 0)" d="M0 841L0 -0.8900146L0 -0.8900146L595.276 -0.8900146L595.276 -0.8900146L595.276 841L595.276 841L0 841z" /></clipPath></defs><g transform="matrix(1.333333 0 0 1.333333 0 0)"><g clip-path="url(#1)"><path id="31" transform="matrix(1 0 0 -1 0 841)" d="M85.039 766.564L510.236 766.564" stroke="#000000" stroke-width="0.498" fill="none" /><path id="32" transform="matrix(1 0 0 -1 0 841)" d="M85.039 134.59L85.039 756.8583L85.039 756.8583L510.2413 756.8583L510.2413 756.8583L510.2413 134.59C 510.2413 132.2416 508.3377 130.338 505.9893 130.338L505.9893 130.338L89.29099 130.338C 86.94264 130.338 85.039 132.2416 85.039 134.59z" stroke="none" fill="#BFBFFF" fill-rule="nonzero" /><path id="33" transform="matrix(1 0 0 -1 0 841)" d="M86.45631 134.59L86.45631 756.8583L86.45631 756.8583L508.824 756.8583L508.824 756.8583L508.824 134.59C 508.824 133.0244 507.5549 131.7553 505.9893 131.7553L505.9893 131.7553L89.29099 131.7553C 87.72543 131.7553 86.45631 133.0244 86.45631 134.59z" stroke="none" fill="#E6E6FF" fill-rule="nonzero" /><path id="1049" transform="matrix(1 0 0 -1 0 841)" d="M441.254 367.001L483.774 367.001" stroke="#000000" stroke-width="0.85" fill="none" /></g></g></svg>