<svg xmlns="http://www.w3.org/2000/svg" xmlns:xlink="http://www.w3.org/1999/xlink" id="body_157" preserveAspectRatio="xMinYMin meet" viewBox="0 0 793 1121"><defs><clipPath id="1"><path id="" clip-rule="evenodd" transform="matrix(1 0 0 1 0 0)" d="M0 841L0 -0.8900146L0 -0.8900146L595.276 -0.8900146L595.276 -0.8900146L595.276 841L595.276 841L0 841z" /></clipPath></defs><g transform="matrix(1.333333 0 0 1.333333 0 0)"><g clip-path="url(#1)"><path id="30" transform="matrix(1 0 0 -1 0 841)" d="M85.039 766.564L510.236 766.564" stroke="#000000" stroke-width="0.498" fill="none" /><g transform="matrix(0.3 0 0 0.3 166.69 452.902)"><g transform="matrix(1 0 0 1 0 0)"><image x="0" y="0" xlink:href="img_272.png" width="873" height="376" /></g></g><g transform="matrix(0.3 0 0 0.3 226.226 671.661)"><g transform="matrix(1 0 0 1 0 0)"><image x="0" y="0" xlink:href="img_273.png" width="567" height="281" /></g></g></g></g></svg>