<svg xmlns="http://www.w3.org/2000/svg" xmlns:xlink="http://www.w3.org/1999/xlink" id="body_8" preserveAspectRatio="xMinYMin meet" viewBox="0 0 793 1121"><defs><clipPath id="1"><path id="" clip-rule="evenodd" transform="matrix(1 0 0 1 0 0)" d="M0 841L0 -0.8900146L0 -0.8900146L595.276 -0.8900146L595.276 -0.8900146L595.276 841L595.276 841L0 841z" /></clipPath></defs><g transform="matrix(1.333333 0 0 1.333333 0 0)"><g clip-path="url(#1)"><path id="33" transform="matrix(1 0 0 -1 0 841)" d="M85.039 766.564L510.236 766.564" stroke="#000000" stroke-width="0.498" fill="none" /><path id="51" transform="matrix(1 0 0 -1 0 841)" d="M85.039 730.145L544.088 730.145" stroke="#000000" stroke-width="0.398" fill="none" /><path id="52" transform="matrix(1 0 0 -1 0 841)" d="M85.239 702.05L85.239 729.945" stroke="#000000" stroke-width="0.398" fill="none" /><path id="58" transform="matrix(1 0 0 -1 0 841)" d="M119.497 702.05L119.497 729.945" stroke="#000000" stroke-width="0.398" fill="none" /><path id="93" transform="matrix(1 0 0 -1 0 841)" d="M333.111 702.05L333.111 729.945" stroke="#000000" stroke-width="0.398" fill="none" /><path id="128" transform="matrix(1 0 0 -1 0 841)" d="M543.889 702.05L543.889 729.945" stroke="#000000" stroke-width="0.398" fill="none" /><path id="129" transform="matrix(1 0 0 -1 0 841)" d="M85.039 701.851L544.088 701.851" stroke="#000000" stroke-width="0.398" fill="none" /><path id="130" transform="matrix(1 0 0 -1 0 841)" d="M85.239 673.258L85.239 701.651" stroke="#000000" stroke-width="0.398" fill="none" /><path id="133" transform="matrix(1 0 0 -1 0 841)" d="M119.497 673.258L119.497 701.651" stroke="#000000" stroke-width="0.398" fill="none" /><path id="167" transform="matrix(1 0 0 -1 0 841)" d="M333.111 673.258L333.111 701.651" stroke="#000000" stroke-width="0.398" fill="none" /><path id="271" transform="matrix(1 0 0 -1 0 841)" d="M543.889 673.258L543.889 701.651" stroke="#000000" stroke-width="0.398" fill="none" /><path id="272" transform="matrix(1 0 0 -1 0 841)" d="M85.039 673.059L544.088 673.059" stroke="#000000" stroke-width="0.398" fill="none" /><path id="273" transform="matrix(1 0 0 -1 0 841)" d="M85.239 635.001L85.239 672.859" stroke="#000000" stroke-width="0.398" fill="none" /><path id="276" transform="matrix(1 0 0 -1 0 841)" d="M119.497 635.001L119.497 672.859" stroke="#000000" stroke-width="0.398" fill="none" /><path id="407" transform="matrix(1 0 0 -1 0 841)" d="M333.111 635.001L333.111 672.859" stroke="#000000" stroke-width="0.398" fill="none" /><path id="511" transform="matrix(1 0 0 -1 0 841)" d="M543.889 635.001L543.889 672.859" stroke="#000000" stroke-width="0.398" fill="none" /><path id="512" transform="matrix(1 0 0 -1 0 841)" d="M85.039 634.802L544.088 634.802" stroke="#000000" stroke-width="0.398" fill="none" /><path id="513" transform="matrix(1 0 0 -1 0 841)" d="M85.239 549.422L85.239 634.602" stroke="#000000" stroke-width="0.398" fill="none" /><path id="516" transform="matrix(1 0 0 -1 0 841)" d="M119.497 549.422L119.497 634.602" stroke="#000000" stroke-width="0.398" fill="none" /><path id="739" transform="matrix(1 0 0 -1 0 841)" d="M333.111 549.422L333.111 634.602" stroke="#000000" stroke-width="0.398" fill="none" /><path id="1043" transform="matrix(1 0 0 -1 0 841)" d="M543.889 549.422L543.889 634.602" stroke="#000000" stroke-width="0.398" fill="none" /><path id="1044" transform="matrix(1 0 0 -1 0 841)" d="M85.039 549.223L544.088 549.223" stroke="#000000" stroke-width="0.398" fill="none" /><path id="1045" transform="matrix(1 0 0 -1 0 841)" d="M85.239 460.008L85.239 549.024" stroke="#000000" stroke-width="0.398" fill="none" /><path id="1048" transform="matrix(1 0 0 -1 0 841)" d="M119.497 460.008L119.497 549.024" stroke="#000000" stroke-width="0.398" fill="none" /><path id="1273" transform="matrix(1 0 0 -1 0 841)" d="M333.111 460.008L333.111 549.024" stroke="#000000" stroke-width="0.398" fill="none" /><path id="1586" transform="matrix(1 0 0 -1 0 841)" d="M543.889 460.008L543.889 549.024" stroke="#000000" stroke-width="0.398" fill="none" /><path id="1587" transform="matrix(1 0 0 -1 0 841)" d="M85.039 459.809L544.088 459.809" stroke="#000000" stroke-width="0.398" fill="none" /><path id="1588" transform="matrix(1 0 0 -1 0 841)" d="M85.239 364.964L85.239 459.609" stroke="#000000" stroke-width="0.398" fill="none" /><path id="1591" transform="matrix(1 0 0 -1 0 841)" d="M119.497 364.964L119.497 459.609" stroke="#000000" stroke-width="0.398" fill="none" /><path id="1823" transform="matrix(1 0 0 -1 0 841)" d="M333.111 364.964L333.111 459.609" stroke="#000000" stroke-width="0.398" fill="none" /><path id="2133" transform="matrix(1 0 0 -1 0 841)" d="M543.889 364.964L543.889 459.609" stroke="#000000" stroke-width="0.398" fill="none" /><path id="2134" transform="matrix(1 0 0 -1 0 841)" d="M85.039 364.765L544.088 364.765" stroke="#000000" stroke-width="0.398" fill="none" /></g></g></svg>