<svg xmlns="http://www.w3.org/2000/svg" xmlns:xlink="http://www.w3.org/1999/xlink" id="body_153" preserveAspectRatio="xMinYMin meet" viewBox="0 0 793 1121"><defs><clipPath id="1"><path id="" clip-rule="evenodd" transform="matrix(1 0 0 1 0 0)" d="M0 841L0 -0.8900146L0 -0.8900146L595.276 -0.8900146L595.276 -0.8900146L595.276 841L595.276 841L0 841z" /></clipPath></defs><g transform="matrix(1.333333 0 0 1.333333 0 0)"><g clip-path="url(#1)"><path id="26" transform="matrix(1 0 0 -1 0 841)" d="M85.039 766.564L510.236 766.564" stroke="#000000" stroke-width="0.498" fill="none" /><g transform="matrix(0.45 0 0 0.45 197.287 224.76)"><g transform="matrix(1 0 0 1 0 0)"><image x="0" y="0" xlink:href="img_273.png" width="446" height="387" /></g></g><path id="661" transform="matrix(1 0 0 -1 0 841)" d="M185.032 324.773L214.262 324.773L214.262 337.336L185.032 337.336z" stroke="none" fill="#FFBFBF" fill-rule="nonzero" /><path id="910" transform="matrix(1 0 0 -1 0 841)" d="M236.948 264.997L268.938 264.997L268.938 277.56L236.948 277.56z" stroke="none" fill="#FFBFBF" fill-rule="nonzero" /><path id="935" transform="matrix(1 0 0 -1 0 841)" d="M362.42 264.997L393.852 264.997L393.852 277.829L362.42 277.829z" stroke="none" fill="#FFBFBF" fill-rule="nonzero" /></g></g></svg>