<svg xmlns="http://www.w3.org/2000/svg" xmlns:xlink="http://www.w3.org/1999/xlink" id="body_153" preserveAspectRatio="xMinYMin meet" viewBox="0 0 793 1121"><defs><clipPath id="1"><path id="" clip-rule="evenodd" transform="matrix(1 0 0 1 0 0)" d="M0 841L0 -0.8900146L0 -0.8900146L595.276 -0.8900146L595.276 -0.8900146L595.276 841L595.276 841L0 841z" /></clipPath></defs><g transform="matrix(1.333333 0 0 1.333333 0 0)"><g clip-path="url(#1)"><path id="43" transform="matrix(1 0 0 -1 0 841)" d="M85.039 766.564L510.236 766.564" stroke="#000000" stroke-width="0.498" fill="none" /><path id="44" transform="matrix(1 0 0 -1 0 841)" d="M85.039 448.413L85.039 756.8541L85.039 756.8541L510.2413 756.8541L510.2413 756.8541L510.2413 448.413C 510.2413 446.0646 508.3377 444.161 505.9893 444.161L505.9893 444.161L89.29099 444.161C 86.94264 444.161 85.039 446.0646 85.039 448.413z" stroke="none" fill="#BFBFFF" fill-rule="nonzero" /><path id="45" transform="matrix(1 0 0 -1 0 841)" d="M86.45631 448.413L86.45631 756.8541L86.45631 756.8541L508.824 756.8541L508.824 756.8541L508.824 448.413C 508.824 446.8474 507.5549 445.5783 505.9893 445.5783L505.9893 445.5783L89.29099 445.5783C 87.72543 445.5783 86.45631 446.8474 86.45631 448.413z" stroke="none" fill="#E6E6FF" fill-rule="nonzero" /></g></g></svg>