<svg xmlns="http://www.w3.org/2000/svg" xmlns:xlink="http://www.w3.org/1999/xlink" id="body_42" preserveAspectRatio="xMinYMin meet" viewBox="0 0 793 1121"><defs><clipPath id="1"><path id="" clip-rule="evenodd" transform="matrix(1 0 0 1 0 0)" d="M0 841L0 -0.8900146L0 -0.8900146L595.276 -0.8900146L595.276 -0.8900146L595.276 841L595.276 841L0 841z" /></clipPath></defs><g transform="matrix(1.333333 0 0 1.333333 0 0)"><g clip-path="url(#1)"><g transform="matrix(0.23622 0 0 0.23622 0.199 -0.6896973)"><g transform="matrix(1 0 0 1 0 0)"><image x="0" y="0" xlink:href="img_68.png" width="2520" height="1240" /></g></g><path id="3" transform="matrix(1 0 0 -1 0 841)" d="M724.611 609.1848L100.9809 609.1848C 92.72734 609.1848 86.03673 602.4941 86.03673 594.2407L86.03673 594.2407L86.03673 579.2965C 86.03673 571.043 92.72734 564.3524 100.9809 564.3524L100.9809 564.3524L724.611 564.3524C 732.8644 564.3524 739.5551 571.043 739.5551 579.2965L739.5551 579.2965L739.5551 594.2407C 739.5551 602.4941 732.8644 609.1848 724.611 609.1848z" stroke="#F36619" stroke-width="1.99255" fill="#FFFFFF" fill-rule="nonzero" fill-opacity="0.4980392" /><path id="59" transform="matrix(1 0 0 -1 0 841)" d="M280.978 459.4L309.324 459.4" stroke="#000000" stroke-width="0.398" fill="none" /><path id="73" transform="matrix(1 0 0 -1 0 841)" d="M112.312 444.456L140.658 444.456" stroke="#000000" stroke-width="0.398" fill="none" /><path id="253" transform="matrix(1 0 0 -1 0 841)" d="M161.846 399.624L190.192 399.624" stroke="#000000" stroke-width="0.398" fill="none" /><path id="393" transform="matrix(1 0 0 -1 0 841)" d="M189.999 356.612L232.519 356.612" stroke="#000000" stroke-width="0.85" fill="none" /><path id="502" transform="matrix(1 0 0 -1 0 841)" d="M295.861 326.724L338.381 326.724" stroke="#000000" stroke-width="0.85" fill="none" /><path id="506" transform="matrix(1 0 0 -1 0 841)" d="M357.748 326.724L400.268 326.724" stroke="#000000" stroke-width="0.85" fill="none" /><path id="560" transform="matrix(1 0 0 -1 0 841)" d="M340.075 311.78L382.595 311.78" stroke="#000000" stroke-width="0.85" fill="none" /><path id="569" transform="matrix(1 0 0 -1 0 841)" d="M431.192 311.78L473.712 311.78" stroke="#000000" stroke-width="0.85" fill="none" /><path id="988" transform="matrix(1 0 0 -1 0 841)" d="M146.713 207.172L160.886 207.172" stroke="#000000" stroke-width="0.85" fill="none" /><path id="993" transform="matrix(1 0 0 -1 0 841)" d="M192.517 207.172L206.69 207.172" stroke="#000000" stroke-width="0.85" fill="none" /><path id="1159" transform="matrix(1 0 0 -1 0 841)" d="M295.861 145.577L324.207 145.577" stroke="#000000" stroke-width="0.398" fill="none" /><path id="1163" transform="matrix(1 0 0 -1 0 841)" d="M343.575 145.577L371.921 145.577" stroke="#000000" stroke-width="0.398" fill="none" /><path id="1218" transform="matrix(1 0 0 -1 0 841)" d="M344.215 130.633L372.561 130.633" stroke="#000000" stroke-width="0.398" fill="none" /><path id="1233" transform="matrix(1 0 0 -1 0 841)" d="M451.455 130.633L479.801 130.633" stroke="#000000" stroke-width="0.398" fill="none" /><g transform="matrix(0.2 0 0 0.2 249.239 774.8461)"><g transform="matrix(1 0 0 1 0 0)"><image x="0" y="0" xlink:href="img_04.png" width="484" height="104" /></g></g></g></g></svg>