<svg xmlns="http://www.w3.org/2000/svg" xmlns:xlink="http://www.w3.org/1999/xlink" id="body_114" preserveAspectRatio="xMinYMin meet" viewBox="0 0 793 1121"><defs><clipPath id="1"><path id="" clip-rule="evenodd" transform="matrix(1 0 0 1 0 0)" d="M0 841L0 -0.8900146L0 -0.8900146L595.276 -0.8900146L595.276 -0.8900146L595.276 841L595.276 841L0 841z" /></clipPath></defs><g transform="matrix(1.333333 0 0 1.333333 0 0)"><g clip-path="url(#1)"><path id="29" transform="matrix(1 0 0 -1 0 841)" d="M85.039 766.564L510.236 766.564" stroke="#000000" stroke-width="0.498" fill="none" /><path id="30" transform="matrix(1 0 0 -1 0 841)" d="M85.039 194.366L85.039 756.8577L85.039 756.8577L510.2413 756.8577L510.2413 756.8577L510.2413 194.366C 510.2413 192.0176 508.3377 190.114 505.9893 190.114L505.9893 190.114L89.29099 190.114C 86.94264 190.114 85.039 192.0176 85.039 194.366z" stroke="none" fill="#BFBFFF" fill-rule="nonzero" /><path id="31" transform="matrix(1 0 0 -1 0 841)" d="M86.45631 194.366L86.45631 756.8577L86.45631 756.8577L508.824 756.8577L508.824 756.8577L508.824 194.366C 508.824 192.8004 507.5549 191.5313 505.9893 191.5313L505.9893 191.5313L89.29099 191.5313C 87.72543 191.5313 86.45631 192.8004 86.45631 194.366z" stroke="none" fill="#E6E6FF" fill-rule="nonzero" /></g></g></svg>