<svg xmlns="http://www.w3.org/2000/svg" xmlns:xlink="http://www.w3.org/1999/xlink" id="body_387" preserveAspectRatio="xMinYMin meet" viewBox="0 0 793 1121"><defs><clipPath id="1"><path id="" clip-rule="evenodd" transform="matrix(1 0 0 1 0 0)" d="M0 841L0 -0.8900146L0 -0.8900146L595.276 -0.8900146L595.276 -0.8900146L595.276 841L595.276 841L0 841z" /></clipPath></defs><g transform="matrix(1.333333 0 0 1.333333 0 0)"><g clip-path="url(#1)"><path id="23" transform="matrix(1 0 0 -1 0 841)" d="M85.039 766.564L510.236 766.564" stroke="#000000" stroke-width="0.498" fill="none" /><path id="351" transform="matrix(1 0 0 -1 0 841)" d="M148.495 605.382L411.924 605.382" stroke="#000000" stroke-width="0.398" fill="none" /><path id="386" transform="matrix(1 0 0 -1 0 841)" d="M170.542 573.148L256.19 573.148" stroke="#000000" stroke-width="0.398" fill="none" /><path id="550" transform="matrix(1 0 0 -1 0 841)" d="M329.02 524.633L389.887 524.633" stroke="#000000" stroke-width="0.398" fill="none" /><path id="577" transform="matrix(1 0 0 -1 0 841)" d="M432.603 532.748L509.105 532.748" stroke="#000000" stroke-width="0.398" fill="none" /><path id="578" transform="matrix(1 0 0 -1 0 841)" d="M432.802 516.464L432.802 532.748" stroke="#000000" stroke-width="0.398" fill="none" /><path id="579" transform="matrix(1 0 0 -1 0 841)" d="M508.906 516.464L508.906 532.748" stroke="#000000" stroke-width="0.398" fill="none" /><path id="580" transform="matrix(1 0 0 -1 0 841)" d="M432.603 516.464L509.105 516.464" stroke="#000000" stroke-width="0.398" fill="none" /><path id="736" transform="matrix(1 0 0 -1 0 841)" d="M112.312 488.96L541.893 488.96" stroke="#000000" stroke-width="0.283" fill="none" /><path id="737" transform="matrix(1 0 0 -1 0 841)" d="M112.454 479.373L112.454 488.818" stroke="#000000" stroke-width="0.283" fill="none" /><path id="764" transform="matrix(1 0 0 -1 0 841)" d="M327.103 479.373L327.103 488.818" stroke="#000000" stroke-width="0.283" fill="none" /><path id="792" transform="matrix(1 0 0 -1 0 841)" d="M541.752 479.373L541.752 488.818" stroke="#000000" stroke-width="0.283" fill="none" /><path id="793" transform="matrix(1 0 0 -1 0 841)" d="M112.312 479.232L541.893 479.232" stroke="#000000" stroke-width="0.283" fill="none" /><path id="794" transform="matrix(1 0 0 -1 0 841)" d="M112.454 461.073L112.454 479.09" stroke="#000000" stroke-width="0.283" fill="none" /><path id="812" transform="matrix(1 0 0 -1 0 841)" d="M197.329 470.507L209.503 470.507" stroke="#000000" stroke-width="0.398" fill="none" /><path id="814" transform="matrix(1 0 0 -1 0 841)" d="M327.103 461.073L327.103 479.09" stroke="#000000" stroke-width="0.283" fill="none" /><path id="826" transform="matrix(1 0 0 -1 0 841)" d="M541.752 461.073L541.752 479.09" stroke="#000000" stroke-width="0.283" fill="none" /><path id="827" transform="matrix(1 0 0 -1 0 841)" d="M112.312 460.931L541.893 460.931" stroke="#000000" stroke-width="0.283" fill="none" /><path id="828" transform="matrix(1 0 0 -1 0 841)" d="M112.454 442.882L112.454 460.79" stroke="#000000" stroke-width="0.283" fill="none" /><path id="840" transform="matrix(1 0 0 -1 0 841)" d="M175.818 452.207L187.992 452.207" stroke="#000000" stroke-width="0.398" fill="none" /><path id="842" transform="matrix(1 0 0 -1 0 841)" d="M327.103 442.882L327.103 460.79" stroke="#000000" stroke-width="0.283" fill="none" /><path id="872" transform="matrix(1 0 0 -1 0 841)" d="M541.752 442.882L541.752 460.79" stroke="#000000" stroke-width="0.283" fill="none" /><path id="873" transform="matrix(1 0 0 -1 0 841)" d="M112.312 442.74L541.893 442.74" stroke="#000000" stroke-width="0.283" fill="none" /><g transform="matrix(0.2 0 0 0.2 249.239 774.845)"><g transform="matrix(1 0 0 1 0 0)"><image x="0" y="0" xlink:href="img_04.png" width="484" height="104" /></g></g></g></g></svg>