<svg xmlns="http://www.w3.org/2000/svg" xmlns:xlink="http://www.w3.org/1999/xlink" id="body_18" preserveAspectRatio="xMinYMin meet" viewBox="0 0 793 1121"><defs><clipPath id="1"><path id="" clip-rule="evenodd" transform="matrix(1 0 0 1 0 0)" d="M0 841L0 -0.8900146L0 -0.8900146L595.276 -0.8900146L595.276 -0.8900146L595.276 841L595.276 841L0 841z" /></clipPath></defs><g transform="matrix(1.333333 0 0 1.333333 0 0)"><g clip-path="url(#1)"><g transform="matrix(0.09186 0 0 0.09186 0.199 -0.6983643)"><g transform="matrix(1 0 0 1 0 0)"><image x="0" y="0" xlink:href="img_22.png" width="6480" height="3240" /></g></g><path id="3" transform="matrix(1 0 0 -1 0 841)" d="M724.611 610.1811L100.9809 610.1811C 92.72734 610.1811 86.03673 603.4905 86.03673 595.2369L86.03673 595.2369L86.03673 578.3002C 86.03673 570.0466 92.72734 563.3561 100.9809 563.3561L100.9809 563.3561L724.611 563.3561C 732.8644 563.3561 739.5551 570.0466 739.5551 578.3002L739.5551 578.3002L739.5551 595.2369C 739.5551 603.4905 732.8644 610.1811 724.611 610.1811z" stroke="#F36619" stroke-width="1.99255" fill="#FFFFFF" fill-rule="nonzero" fill-opacity="0.4980392" /><path id="604" transform="matrix(1 0 0 -1 0 841)" d="M195.691 266.116L230.738 266.116L230.738 278.389L195.691 278.389z" stroke="none" fill="#FFF100" fill-rule="nonzero" /><path id="610" transform="matrix(1 0 0 -1 0 841)" d="M230.489 266.116L233.216 266.116L233.216 278.389L230.489 278.389z" stroke="none" fill="#FFF100" fill-rule="nonzero" /><path id="611" transform="matrix(1 0 0 -1 0 841)" d="M232.967 266.116L247.396 266.116L247.396 278.389L232.967 278.389z" stroke="none" fill="#FFF100" fill-rule="nonzero" /><path id="615" transform="matrix(1 0 0 -1 0 841)" d="M246.898 266.116L261.949 266.116L261.949 278.389L246.898 278.389z" stroke="none" fill="#FFF100" fill-rule="nonzero" /><path id="632" transform="matrix(1 0 0 -1 0 841)" d="M180.55 249.18L190.135 249.18L190.135 261.453L180.55 261.453z" stroke="none" fill="#FFF100" fill-rule="nonzero" /><path id="635" transform="matrix(1 0 0 -1 0 841)" d="M189.637 249.18L203.466 249.18L203.466 261.453L189.637 261.453z" stroke="none" fill="#FFF100" fill-rule="nonzero" /><path id="639" transform="matrix(1 0 0 -1 0 841)" d="M202.967 249.18L228.316 249.18L228.316 261.453L202.967 261.453z" stroke="none" fill="#FFF100" fill-rule="nonzero" /><path id="646" transform="matrix(1 0 0 -1 0 841)" d="M230.545 249.425L243.774 249.425" stroke="#000000" stroke-width="0.491" fill="none" /><path id="650" transform="matrix(1 0 0 -1 0 841)" d="M243.276 249.425L272.65 249.425" stroke="#000000" stroke-width="0.491" fill="none" /><path id="657" transform="matrix(1 0 0 -1 0 841)" d="M272.401 249.425L275.128 249.425" stroke="#000000" stroke-width="0.491" fill="none" /><path id="658" transform="matrix(1 0 0 -1 0 841)" d="M274.879 249.425L289.93 249.425" stroke="#000000" stroke-width="0.491" fill="none" /><path id="662" transform="matrix(1 0 0 -1 0 841)" d="M289.431 249.425L300.238 249.425" stroke="#000000" stroke-width="0.491" fill="none" /><path id="667" transform="matrix(1 0 0 -1 0 841)" d="M305.195 249.425L325.089 249.425" stroke="#000000" stroke-width="0.491" fill="none" /><path id="671" transform="matrix(1 0 0 -1 0 841)" d="M324.591 249.425L328.122 249.425" stroke="#000000" stroke-width="0.491" fill="none" /><path id="673" transform="matrix(1 0 0 -1 0 841)" d="M327.624 249.425L340.242 249.425" stroke="#000000" stroke-width="0.491" fill="none" /><path id="677" transform="matrix(1 0 0 -1 0 841)" d="M339.743 249.425L354.183 249.425" stroke="#000000" stroke-width="0.491" fill="none" /><path id="684" transform="matrix(1 0 0 -1 0 841)" d="M374.892 249.425L383.866 249.425" stroke="#000000" stroke-width="0.491" fill="none" /><path id="687" transform="matrix(1 0 0 -1 0 841)" d="M383.369 249.425L401.442 249.425" stroke="#000000" stroke-width="0.491" fill="none" /><path id="692" transform="matrix(1 0 0 -1 0 841)" d="M400.943 249.425L415.383 249.425" stroke="#000000" stroke-width="0.491" fill="none" /><path id="696" transform="matrix(1 0 0 -1 0 841)" d="M417.612 249.18L426.586 249.18L426.586 261.453L417.612 261.453z" stroke="none" fill="#FFF100" fill-rule="nonzero" /><path id="699" transform="matrix(1 0 0 -1 0 841)" d="M426.088 249.18L449.004 249.18L449.004 261.453L426.088 261.453z" stroke="none" fill="#FFF100" fill-rule="nonzero" /><path id="705" transform="matrix(1 0 0 -1 0 841)" d="M448.506 249.18L475.066 249.18L475.066 261.453L448.506 261.453z" stroke="none" fill="#FFF100" fill-rule="nonzero" /></g></g></svg>