<svg xmlns="http://www.w3.org/2000/svg" xmlns:xlink="http://www.w3.org/1999/xlink" id="body_16" preserveAspectRatio="xMinYMin meet" viewBox="0 0 793 1121"><defs><clipPath id="1"><path id="" clip-rule="evenodd" transform="matrix(1 0 0 1 0 0)" d="M0 841L0 -0.8900146L0 -0.8900146L595.276 -0.8900146L595.276 -0.8900146L595.276 841L595.276 841L0 841z" /></clipPath></defs><g transform="matrix(1.333333 0 0 1.333333 0 0)"><g clip-path="url(#1)"><path id="41" transform="matrix(1 0 0 -1 0 841)" d="M85.039 766.564L510.236 766.564" stroke="#000000" stroke-width="0.498" fill="none" /><g transform="matrix(0.315 0 0 0.315 112.312 84.14801)"><g transform="matrix(1 0 0 1 0 0)"><image x="0" y="0" xlink:href="img_31.png" width="1275" height="644" /></g></g><path id="105" transform="matrix(1 0 0 -1 0 841)" d="M340.735 491.393L353.964 491.393L353.964 503.666L340.735 503.666z" stroke="none" fill="#FFF100" fill-rule="nonzero" /><path id="109" transform="matrix(1 0 0 -1 0 841)" d="M353.72 491.393L374.214 491.393L374.214 503.666L353.72 503.666z" stroke="none" fill="#FFF100" fill-rule="nonzero" /><path id="177" transform="matrix(1 0 0 -1 0 841)" d="M322.06 474.457L345.576 474.457L345.576 486.73L322.06 486.73z" stroke="none" fill="#FFF100" fill-rule="nonzero" /><path id="205" transform="matrix(1 0 0 -1 0 841)" d="M464.985 474.457L473.959 474.457L473.959 486.73L464.985 486.73z" stroke="none" fill="#FFF100" fill-rule="nonzero" /><path id="208" transform="matrix(1 0 0 -1 0 841)" d="M473.631 474.457L508.667 474.457L508.667 486.73L473.631 486.73z" stroke="none" fill="#FFF100" fill-rule="nonzero" /><path id="218" transform="matrix(1 0 0 -1 0 841)" d="M123.878 457.52L132.852 457.52L132.852 469.793L123.878 469.793z" stroke="none" fill="#FFF100" fill-rule="nonzero" /><path id="221" transform="matrix(1 0 0 -1 0 841)" d="M132.354 457.52L142.987 457.52L142.987 469.793L132.354 469.793z" stroke="none" fill="#FFF100" fill-rule="nonzero" /><path id="224" transform="matrix(1 0 0 -1 0 841)" d="M142.488 457.52L161.16 457.52L161.16 469.793L142.488 469.793z" stroke="none" fill="#FFF100" fill-rule="nonzero" /><path id="327" transform="matrix(1 0 0 -1 0 841)" d="M136.063 423.648L151.714 423.648L151.714 435.921L136.063 435.921z" stroke="none" fill="#FFF100" fill-rule="nonzero" /><path id="331" transform="matrix(1 0 0 -1 0 841)" d="M151.216 423.648L169.768 423.648L169.768 435.921L151.216 435.921z" stroke="none" fill="#FFF100" fill-rule="nonzero" /><path id="336" transform="matrix(1 0 0 -1 0 841)" d="M169.519 423.648L172.246 423.648L172.246 435.921L169.519 435.921z" stroke="none" fill="#FFF100" fill-rule="nonzero" /><path id="337" transform="matrix(1 0 0 -1 0 841)" d="M171.997 423.648L185.106 423.648L185.106 435.921L171.997 435.921z" stroke="none" fill="#FFF100" fill-rule="nonzero" /><path id="340" transform="matrix(1 0 0 -1 0 841)" d="M184.608 423.648L196.615 423.648L196.615 435.921L184.608 435.921z" stroke="none" fill="#FFF100" fill-rule="nonzero" /><path id="344" transform="matrix(1 0 0 -1 0 841)" d="M196.366 423.648L199.093 423.648L199.093 435.921L196.366 435.921z" stroke="none" fill="#FFF100" fill-rule="nonzero" /><path id="345" transform="matrix(1 0 0 -1 0 841)" d="M198.844 423.648L212.073 423.648L212.073 435.921L198.844 435.921z" stroke="none" fill="#FFF100" fill-rule="nonzero" /><path id="349" transform="matrix(1 0 0 -1 0 841)" d="M211.575 423.648L240.949 423.648L240.949 435.921L211.575 435.921z" stroke="none" fill="#FFF100" fill-rule="nonzero" /><path id="357" transform="matrix(1 0 0 -1 0 841)" d="M136.063 406.711L153.536 406.711L153.536 418.984L136.063 418.984z" stroke="none" fill="#FFF100" fill-rule="nonzero" /><path id="361" transform="matrix(1 0 0 -1 0 841)" d="M153.038 406.711L166.867 406.711L166.867 418.984L153.038 418.984z" stroke="none" fill="#FFF100" fill-rule="nonzero" /><path id="365" transform="matrix(1 0 0 -1 0 841)" d="M166.368 406.711L184.92 406.711L184.92 418.984L166.368 418.984z" stroke="none" fill="#FFF100" fill-rule="nonzero" /><path id="370" transform="matrix(1 0 0 -1 0 841)" d="M184.672 406.711L187.399 406.711L187.399 418.984L184.672 418.984z" stroke="none" fill="#FFF100" fill-rule="nonzero" /><path id="371" transform="matrix(1 0 0 -1 0 841)" d="M187.15 406.711L200.379 406.711L200.379 418.984L187.15 418.984z" stroke="none" fill="#FFF100" fill-rule="nonzero" /><path id="375" transform="matrix(1 0 0 -1 0 841)" d="M199.881 406.711L229.255 406.711L229.255 418.984L199.881 418.984z" stroke="none" fill="#FFF100" fill-rule="nonzero" /><path id="427" transform="matrix(1 0 0 -1 0 841)" d="M156.463 355.902L166.048 355.902L166.048 368.175L156.463 368.175z" stroke="none" fill="#FFF100" fill-rule="nonzero" /><path id="430" transform="matrix(1 0 0 -1 0 841)" d="M165.732 355.902L174.717 355.902L174.717 368.175L165.732 368.175z" stroke="none" fill="#FFF100" fill-rule="nonzero" /><path id="433" transform="matrix(1 0 0 -1 0 841)" d="M174.389 355.902L191.24 355.902L191.24 368.175L174.389 368.175z" stroke="none" fill="#FFF100" fill-rule="nonzero" /><path id="438" transform="matrix(1 0 0 -1 0 841)" d="M191.317 355.902L194.817 355.902L194.817 368.175L191.317 368.175z" stroke="none" fill="#FFF100" fill-rule="nonzero" /><path id="439" transform="matrix(1 0 0 -1 0 841)" d="M194.568 355.902L227.182 355.902L227.182 368.175L194.568 368.175z" stroke="none" fill="#FFF100" fill-rule="nonzero" /><path id="447" transform="matrix(1 0 0 -1 0 841)" d="M227.576 355.902L231.076 355.902L231.076 368.175L227.576 368.175z" stroke="none" fill="#FFF100" fill-rule="nonzero" /><path id="448" transform="matrix(1 0 0 -1 0 841)" d="M230.826 355.902L257.375 355.902L257.375 368.175L230.826 368.175z" stroke="none" fill="#FFF100" fill-rule="nonzero" /><path id="574" transform="matrix(1 0 0 -1 0 841)" d="M156.463 305.092L167.87 305.092L167.87 317.365L156.463 317.365z" stroke="none" fill="#FFF100" fill-rule="nonzero" /><path id="577" transform="matrix(1 0 0 -1 0 841)" d="M167.59 305.092L184.441 305.092L184.441 317.365L167.59 317.365z" stroke="none" fill="#FFF100" fill-rule="nonzero" /><path id="582" transform="matrix(1 0 0 -1 0 841)" d="M184.519 305.092L188.825 305.092L188.825 317.365L184.519 317.365z" stroke="none" fill="#FFF100" fill-rule="nonzero" /><path id="583" transform="matrix(1 0 0 -1 0 841)" d="M188.576 305.092L221.19 305.092L221.19 317.365L188.576 317.365z" stroke="none" fill="#FFF100" fill-rule="nonzero" /><path id="591" transform="matrix(1 0 0 -1 0 841)" d="M221.583 305.092L225.889 305.092L225.889 317.365L221.583 317.365z" stroke="none" fill="#FFF100" fill-rule="nonzero" /><path id="592" transform="matrix(1 0 0 -1 0 841)" d="M225.641 305.092L252.19 305.092L252.19 317.365L225.641 317.365z" stroke="none" fill="#FFF100" fill-rule="nonzero" /><g transform="matrix(0.2 0 0 0.2 249.239 774.845)"><g transform="matrix(1 0 0 1 0 0)"><image x="0" y="0" xlink:href="img_04.png" width="484" height="104" /></g></g></g></g></svg>