<svg xmlns="http://www.w3.org/2000/svg" xmlns:xlink="http://www.w3.org/1999/xlink" id="body_89" preserveAspectRatio="xMinYMin meet" viewBox="0 0 793 1121"><defs><clipPath id="1"><path id="" clip-rule="evenodd" transform="matrix(1 0 0 1 0 0)" d="M0 841L0 -0.8900146L0 -0.8900146L595.276 -0.8900146L595.276 -0.8900146L595.276 841L595.276 841L0 841z" /></clipPath></defs><g transform="matrix(1.333333 0 0 1.333333 0 0)"><g clip-path="url(#1)"><path id="39" transform="matrix(1 0 0 -1 0 841)" d="M85.039 766.564L510.236 766.564" stroke="#000000" stroke-width="0.498" fill="none" /><path id="57" transform="matrix(1 0 0 -1 0 841)" d="M85.039 85.039L85.039 723.3055C 85.039 725.6539 86.94264 727.5575 89.29099 727.5575L89.29099 727.5575L505.9893 727.5575C 508.3377 727.5575 510.2413 725.6539 510.2413 723.3055L510.2413 723.3055L510.2413 85.039z" stroke="none" fill="#BFBFFF" fill-rule="nonzero" /><path id="58" transform="matrix(1 0 0 -1 0 841)" d="M86.45631 85.039L86.45631 710.142L508.824 710.142L508.824 85.039z" stroke="none" fill="#E6E6FF" fill-rule="nonzero" /></g></g></svg>