<svg xmlns="http://www.w3.org/2000/svg" xmlns:xlink="http://www.w3.org/1999/xlink" id="body_352" preserveAspectRatio="xMinYMin meet" viewBox="0 0 793 1121"><defs><clipPath id="1"><path id="" clip-rule="evenodd" transform="matrix(1 0 0 1 0 0)" d="M0 841L0 -0.8900146L0 -0.8900146L595.276 -0.8900146L595.276 -0.8900146L595.276 841L595.276 841L0 841z" /></clipPath><clipPath id="2"><path id="" clip-rule="evenodd" transform="matrix(1 0 0 1 0 0)" d="M-0.139 805.413L595.4166 805.413L595.4166 805.413L595.4166 34.69409L595.4166 34.69409L-0.139 34.69409z" /></clipPath><clipPath id="3"><path id="" clip-rule="evenodd" transform="matrix(1 0 0 1 0 0)" d="M-0.1389911 805.413L595.4166 805.413L595.4166 805.413L595.4166 34.69409L595.4166 34.69409L-0.1389911 34.69409z" /></clipPath><clipPath id="4"><path id="" clip-rule="evenodd" transform="matrix(1 0 0 1 0 0)" d="M-0.1389911 805.413L595.4166 805.413L595.4166 805.413L595.4166 34.69409L595.4166 34.69409L-0.1389911 34.69409z" /></clipPath><clipPath id="5"><path id="" clip-rule="evenodd" transform="matrix(1 0 0 1 0 0)" d="M-0.1389911 805.413L595.4166 805.413L595.4166 805.413L595.4166 34.69409L595.4166 34.69409L-0.1389911 34.69409z" /></clipPath><clipPath id="6"><path id="" clip-rule="evenodd" transform="matrix(1 0 0 1 0 0)" d="M-0.1389911 805.413L595.4166 805.413L595.4166 805.413L595.4166 34.69409L595.4166 34.69409L-0.1389911 34.69409z" /></clipPath><clipPath id="7"><path id="" clip-rule="evenodd" transform="matrix(1 0 0 1 0 0)" d="M-0.1389911 805.413L595.4166 805.413L595.4166 805.413L595.4166 34.69409L595.4166 34.69409L-0.1389911 34.69409z" /></clipPath><clipPath id="8"><path id="" clip-rule="evenodd" transform="matrix(1 0 0 1 0 0)" d="M-0.1389911 805.413L595.4166 805.413L595.4166 805.413L595.4166 34.69409L595.4166 34.69409L-0.1389911 34.69409z" /></clipPath><clipPath id="9"><path id="" clip-rule="evenodd" transform="matrix(1 0 0 1 0 0)" d="M-0.1389911 805.413L595.4166 805.413L595.4166 805.413L595.4166 34.69409L595.4166 34.69409L-0.1389911 34.69409z" /></clipPath><clipPath id="10"><path id="" clip-rule="evenodd" transform="matrix(1 0 0 1 0 0)" d="M-0.1389911 805.413L595.4166 805.413L595.4166 805.413L595.4166 34.69409L595.4166 34.69409L-0.1389911 34.69409z" /></clipPath><clipPath id="11"><path id="" clip-rule="evenodd" transform="matrix(1 0 0 1 0 0)" d="M-0.1389911 805.413L595.4166 805.413L595.4166 805.413L595.4166 34.69409L595.4166 34.69409L-0.1389911 34.69409z" /></clipPath><clipPath id="12"><path id="" clip-rule="evenodd" transform="matrix(1 0 0 1 0 0)" d="M-0.1389911 805.413L595.4166 805.413L595.4166 805.413L595.4166 34.69409L595.4166 34.69409L-0.1389911 34.69409z" /></clipPath><clipPath id="13"><path id="" clip-rule="evenodd" transform="matrix(1 0 0 1 0 0)" d="M-0.1389911 805.413L595.4166 805.413L595.4166 805.413L595.4166 34.69409L595.4166 34.69409L-0.1389911 34.69409z" /></clipPath><clipPath id="14"><path id="" clip-rule="evenodd" transform="matrix(1 0 0 1 0 0)" d="M-0.1389911 805.413L595.4166 805.413L595.4166 805.413L595.4166 34.69409L595.4166 34.69409L-0.1389911 34.69409z" /></clipPath><clipPath id="15"><path id="" clip-rule="evenodd" transform="matrix(1 0 0 1 0 0)" d="M-0.1389911 805.413L595.4166 805.413L595.4166 805.413L595.4166 34.69409L595.4166 34.69409L-0.1389911 34.69409z" /></clipPath><clipPath id="16"><path id="" clip-rule="evenodd" transform="matrix(1 0 0 1 0 0)" d="M-0.1389911 805.413L595.4166 805.413L595.4166 805.413L595.4166 34.69409L595.4166 34.69409L-0.1389911 34.69409z" /></clipPath><clipPath id="17"><path id="" clip-rule="evenodd" transform="matrix(1 0 0 1 0 0)" d="M-0.1389911 805.413L595.4166 805.413L595.4166 805.413L595.4166 34.69409L595.4166 34.69409L-0.1389911 34.69409z" /></clipPath><clipPath id="18"><path id="" clip-rule="evenodd" transform="matrix(1 0 0 1 0 0)" d="M-0.1389911 805.413L595.4166 805.413L595.4166 805.413L595.4166 34.69409L595.4166 34.69409L-0.1389911 34.69409z" /></clipPath><clipPath id="19"><path id="" clip-rule="evenodd" transform="matrix(1 0 0 1 0 0)" d="M-0.1389911 805.413L595.4166 805.413L595.4166 805.413L595.4166 34.69409L595.4166 34.69409L-0.1389911 34.69409z" /></clipPath><clipPath id="20"><path id="" clip-rule="evenodd" transform="matrix(1 0 0 1 0 0)" d="M-0.1389911 805.413L595.4166 805.413L595.4166 805.413L595.4166 34.69409L595.4166 34.69409L-0.1389911 34.69409z" /></clipPath><clipPath id="21"><path id="" clip-rule="evenodd" transform="matrix(1 0 0 1 0 0)" d="M-0.1389911 805.413L595.4166 805.413L595.4166 805.413L595.4166 34.69409L595.4166 34.69409L-0.1389911 34.69409z" /></clipPath><clipPath id="22"><path id="" clip-rule="evenodd" transform="matrix(1 0 0 1 0 0)" d="M-0.1389911 805.413L595.4166 805.413L595.4166 805.413L595.4166 34.69409L595.4166 34.69409L-0.1389911 34.69409z" /></clipPath><clipPath id="23"><path id="" clip-rule="evenodd" transform="matrix(1 0 0 1 0 0)" d="M-0.1389911 805.413L595.4166 805.413L595.4166 805.413L595.4166 34.69409L595.4166 34.69409L-0.1389911 34.69409z" /></clipPath><clipPath id="24"><path id="" clip-rule="evenodd" transform="matrix(1 0 0 1 0 0)" d="M-0.1389911 805.413L595.4166 805.413L595.4166 805.413L595.4166 34.69409L595.4166 34.69409L-0.1389911 34.69409z" /></clipPath><clipPath id="25"><path id="" clip-rule="evenodd" transform="matrix(1 0 0 1 0 0)" d="M-0.1389911 805.413L595.4166 805.413L595.4166 805.413L595.4166 34.69409L595.4166 34.69409L-0.1389911 34.69409z" /></clipPath><clipPath id="26"><path id="" clip-rule="evenodd" transform="matrix(1 0 0 1 0 0)" d="M-0.1389911 805.413L595.4166 805.413L595.4166 805.413L595.4166 34.69409L595.4166 34.69409L-0.1389911 34.69409z" /></clipPath><clipPath id="27"><path id="" clip-rule="evenodd" transform="matrix(1 0 0 1 0 0)" d="M-0.1389911 805.413L595.4166 805.413L595.4166 805.413L595.4166 34.69409L595.4166 34.69409L-0.1389911 34.69409z" /></clipPath><clipPath id="28"><path id="" clip-rule="evenodd" transform="matrix(1 0 0 1 0 0)" d="M-0.1389911 805.413L595.4166 805.413L595.4166 805.413L595.4166 34.69409L595.4166 34.69409L-0.1389911 34.69409z" /></clipPath><clipPath id="29"><path id="" clip-rule="evenodd" transform="matrix(1 0 0 1 0 0)" d="M-0.1389911 805.413L595.4166 805.413L595.4166 805.413L595.4166 34.69409L595.4166 34.69409L-0.1389911 34.69409z" /></clipPath><clipPath id="30"><path id="" clip-rule="evenodd" transform="matrix(1 0 0 1 0 0)" d="M-0.1389911 805.413L595.4166 805.413L595.4166 805.413L595.4166 34.69409L595.4166 34.69409L-0.1389911 34.69409z" /></clipPath><clipPath id="31"><path id="" clip-rule="evenodd" transform="matrix(1 0 0 1 0 0)" d="M-0.1389911 805.413L595.4166 805.413L595.4166 805.413L595.4166 34.69409L595.4166 34.69409L-0.1389911 34.69409z" /></clipPath><clipPath id="32"><path id="" clip-rule="evenodd" transform="matrix(1 0 0 1 0 0)" d="M-0.1389911 805.413L595.4166 805.413L595.4166 805.413L595.4166 34.69409L595.4166 34.69409L-0.1389911 34.69409z" /></clipPath><clipPath id="33"><path id="" clip-rule="evenodd" transform="matrix(1 0 0 1 0 0)" d="M-0.1389911 805.413L595.4166 805.413L595.4166 805.413L595.4166 34.69409L595.4166 34.69409L-0.1389911 34.69409z" /></clipPath><clipPath id="34"><path id="" clip-rule="evenodd" transform="matrix(1 0 0 1 0 0)" d="M-0.1389911 805.413L595.4166 805.413L595.4166 805.413L595.4166 34.69409L595.4166 34.69409L-0.1389911 34.69409z" /></clipPath><clipPath id="35"><path id="" clip-rule="evenodd" transform="matrix(1 0 0 1 0 0)" d="M-0.1389911 805.413L595.4166 805.413L595.4166 805.413L595.4166 34.69409L595.4166 34.69409L-0.1389911 34.69409z" /></clipPath><clipPath id="36"><path id="" clip-rule="evenodd" transform="matrix(1 0 0 1 0 0)" d="M-0.1389911 805.413L595.4166 805.413L595.4166 805.413L595.4166 34.69409L595.4166 34.69409L-0.1389911 34.69409z" /></clipPath><clipPath id="37"><path id="" clip-rule="evenodd" transform="matrix(1 0 0 1 0 0)" d="M-0.1389911 805.413L595.4166 805.413L595.4166 805.413L595.4166 34.69409L595.4166 34.69409L-0.1389911 34.69409z" /></clipPath><clipPath id="38"><path id="" clip-rule="evenodd" transform="matrix(1 0 0 1 0 0)" d="M-0.1389911 805.413L595.4166 805.413L595.4166 805.413L595.4166 34.69409L595.4166 34.69409L-0.1389911 34.69409z" /></clipPath><clipPath id="39"><path id="" clip-rule="evenodd" transform="matrix(1 0 0 1 0 0)" d="M-0.1389911 805.413L595.4166 805.413L595.4166 805.413L595.4166 34.69409L595.4166 34.69409L-0.1389911 34.69409z" /></clipPath><clipPath id="40"><path id="" clip-rule="evenodd" transform="matrix(1 0 0 1 0 0)" d="M-0.1389911 805.413L595.4166 805.413L595.4166 805.413L595.4166 34.69409L595.4166 34.69409L-0.1389911 34.69409z" /></clipPath><clipPath id="41"><path id="" clip-rule="evenodd" transform="matrix(1 0 0 1 0 0)" d="M-0.1389911 805.413L595.4166 805.413L595.4166 805.413L595.4166 34.69409L595.4166 34.69409L-0.1389911 34.69409z" /></clipPath><clipPath id="42"><path id="" clip-rule="evenodd" transform="matrix(1 0 0 1 0 0)" d="M-0.1389911 805.413L595.4166 805.413L595.4166 805.413L595.4166 34.69409L595.4166 34.69409L-0.1389911 34.69409z" /></clipPath><clipPath id="43"><path id="" clip-rule="evenodd" transform="matrix(1 0 0 1 0 0)" d="M-0.1389911 805.413L595.4166 805.413L595.4166 805.413L595.4166 34.69409L595.4166 34.69409L-0.1389911 34.69409z" /></clipPath><clipPath id="44"><path id="" clip-rule="evenodd" transform="matrix(1 0 0 1 0 0)" d="M-0.1389911 805.413L595.4166 805.413L595.4166 805.413L595.4166 34.69409L595.4166 34.69409L-0.1389911 34.69409z" /></clipPath><clipPath id="45"><path id="" clip-rule="evenodd" transform="matrix(1 0 0 1 0 0)" d="M-0.1389911 805.413L595.4166 805.413L595.4166 805.413L595.4166 34.69409L595.4166 34.69409L-0.1389911 34.69409z" /></clipPath><clipPath id="46"><path id="" clip-rule="evenodd" transform="matrix(1 0 0 1 0 0)" d="M-0.1389911 805.413L595.4166 805.413L595.4166 805.413L595.4166 34.69409L595.4166 34.69409L-0.1389911 34.69409z" /></clipPath><clipPath id="47"><path id="" clip-rule="evenodd" transform="matrix(1 0 0 1 0 0)" d="M-0.1389911 805.413L595.4166 805.413L595.4166 805.413L595.4166 34.69409L595.4166 34.69409L-0.1389911 34.69409z" /></clipPath><clipPath id="48"><path id="" clip-rule="evenodd" transform="matrix(1 0 0 1 0 0)" d="M-0.1389911 805.413L595.4166 805.413L595.4166 805.413L595.4166 34.69409L595.4166 34.69409L-0.1389911 34.69409z" /></clipPath><clipPath id="49"><path id="" clip-rule="evenodd" transform="matrix(1 0 0 1 0 0)" d="M-0.1389911 805.413L595.4166 805.413L595.4166 805.413L595.4166 34.69409L595.4166 34.69409L-0.1389911 34.69409z" /></clipPath><clipPath id="50"><path id="" clip-rule="evenodd" transform="matrix(1 0 0 1 0 0)" d="M-0.1389911 805.413L595.4166 805.413L595.4166 805.413L595.4166 34.69409L595.4166 34.69409L-0.1389911 34.69409z" /></clipPath><clipPath id="51"><path id="" clip-rule="evenodd" transform="matrix(1 0 0 1 0 0)" d="M-0.1389911 805.413L595.4166 805.413L595.4166 805.413L595.4166 34.69409L595.4166 34.69409L-0.1389911 34.69409z" /></clipPath><clipPath id="52"><path id="" clip-rule="evenodd" transform="matrix(1 0 0 1 0 0)" d="M-0.1389911 805.413L595.4166 805.413L595.4166 805.413L595.4166 34.69409L595.4166 34.69409L-0.1389911 34.69409z" /></clipPath><clipPath id="53"><path id="" clip-rule="evenodd" transform="matrix(1 0 0 1 0 0)" d="M-0.1389911 805.413L595.4166 805.413L595.4166 805.413L595.4166 34.69409L595.4166 34.69409L-0.1389911 34.69409z" /></clipPath><clipPath id="54"><path id="" clip-rule="evenodd" transform="matrix(1 0 0 1 0 0)" d="M-0.1389911 805.413L595.4166 805.413L595.4166 805.413L595.4166 34.69409L595.4166 34.69409L-0.1389911 34.69409z" /></clipPath><clipPath id="55"><path id="" clip-rule="evenodd" transform="matrix(1 0 0 1 0 0)" d="M-0.1389911 805.413L595.4166 805.413L595.4166 805.413L595.4166 34.69409L595.4166 34.69409L-0.1389911 34.69409z" /></clipPath><clipPath id="56"><path id="" clip-rule="evenodd" transform="matrix(1 0 0 1 0 0)" d="M-0.1389911 805.413L595.4166 805.413L595.4166 805.413L595.4166 34.69409L595.4166 34.69409L-0.1389911 34.69409z" /></clipPath><clipPath id="57"><path id="" clip-rule="evenodd" transform="matrix(1 0 0 1 0 0)" d="M-0.1389911 805.413L595.4166 805.413L595.4166 805.413L595.4166 34.69409L595.4166 34.69409L-0.1389911 34.69409z" /></clipPath><clipPath id="58"><path id="" clip-rule="evenodd" transform="matrix(1 0 0 1 0 0)" d="M-0.1389911 805.413L595.4166 805.413L595.4166 805.413L595.4166 34.69409L595.4166 34.69409L-0.1389911 34.69409z" /></clipPath><clipPath id="59"><path id="" clip-rule="evenodd" transform="matrix(1 0 0 1 0 0)" d="M-0.1389911 805.413L595.4166 805.413L595.4166 805.413L595.4166 34.69409L595.4166 34.69409L-0.1389911 34.69409z" /></clipPath><clipPath id="60"><path id="" clip-rule="evenodd" transform="matrix(1 0 0 1 0 0)" d="M-0.1389911 805.413L595.4166 805.413L595.4166 805.413L595.4166 34.69409L595.4166 34.69409L-0.1389911 34.69409z" /></clipPath><clipPath id="61"><path id="" clip-rule="evenodd" transform="matrix(1 0 0 1 0 0)" d="M-0.1389911 805.413L595.4166 805.413L595.4166 805.413L595.4166 34.69409L595.4166 34.69409L-0.1389911 34.69409z" /></clipPath><clipPath id="62"><path id="" clip-rule="evenodd" transform="matrix(1 0 0 1 0 0)" d="M-0.1389911 805.413L595.4166 805.413L595.4166 805.413L595.4166 34.69409L595.4166 34.69409L-0.1389911 34.69409z" /></clipPath><clipPath id="63"><path id="" clip-rule="evenodd" transform="matrix(1 0 0 1 0 0)" d="M-0.1389911 805.413L595.4166 805.413L595.4166 805.413L595.4166 34.69409L595.4166 34.69409L-0.1389911 34.69409z" /></clipPath><clipPath id="64"><path id="" clip-rule="evenodd" transform="matrix(1 0 0 1 0 0)" d="M-0.1389911 805.413L595.4166 805.413L595.4166 805.413L595.4166 34.69409L595.4166 34.69409L-0.1389911 34.69409z" /></clipPath><clipPath id="65"><path id="" clip-rule="evenodd" transform="matrix(1 0 0 1 0 0)" d="M-0.1389911 805.413L595.4166 805.413L595.4166 805.413L595.4166 34.69409L595.4166 34.69409L-0.1389911 34.69409z" /></clipPath><clipPath id="66"><path id="" clip-rule="evenodd" transform="matrix(1 0 0 1 0 0)" d="M-0.1389911 805.413L595.4166 805.413L595.4166 805.413L595.4166 34.69409L595.4166 34.69409L-0.1389911 34.69409z" /></clipPath><clipPath id="67"><path id="" clip-rule="evenodd" transform="matrix(1 0 0 1 0 0)" d="M-0.1389911 805.413L595.4166 805.413L595.4166 805.413L595.4166 34.69409L595.4166 34.69409L-0.1389911 34.69409z" /></clipPath><clipPath id="68"><path id="" clip-rule="evenodd" transform="matrix(1 0 0 1 0 0)" d="M-0.1389911 805.413L595.4166 805.413L595.4166 805.413L595.4166 34.69409L595.4166 34.69409L-0.1389911 34.69409z" /></clipPath><clipPath id="69"><path id="" clip-rule="evenodd" transform="matrix(1 0 0 1 0 0)" d="M-0.1389911 805.413L595.4166 805.413L595.4166 805.413L595.4166 34.69409L595.4166 34.69409L-0.1389911 34.69409z" /></clipPath><clipPath id="70"><path id="" clip-rule="evenodd" transform="matrix(1 0 0 1 0 0)" d="M-0.1389911 805.413L595.4166 805.413L595.4166 805.413L595.4166 34.69409L595.4166 34.69409L-0.1389911 34.69409z" /></clipPath><clipPath id="71"><path id="" clip-rule="evenodd" transform="matrix(1 0 0 1 0 0)" d="M-0.1389911 805.413L595.4166 805.413L595.4166 805.413L595.4166 34.69409L595.4166 34.69409L-0.1389911 34.69409z" /></clipPath><clipPath id="72"><path id="" clip-rule="evenodd" transform="matrix(1 0 0 1 0 0)" d="M-0.1389911 805.413L595.4166 805.413L595.4166 805.413L595.4166 34.69409L595.4166 34.69409L-0.1389911 34.69409z" /></clipPath><clipPath id="73"><path id="" clip-rule="evenodd" transform="matrix(1 0 0 1 0 0)" d="M-0.1389911 805.413L595.4166 805.413L595.4166 805.413L595.4166 34.69409L595.4166 34.69409L-0.1389911 34.69409z" /></clipPath><clipPath id="74"><path id="" clip-rule="evenodd" transform="matrix(1 0 0 1 0 0)" d="M-0.1389911 805.413L595.4166 805.413L595.4166 805.413L595.4166 34.69409L595.4166 34.69409L-0.1389911 34.69409z" /></clipPath><clipPath id="75"><path id="" clip-rule="evenodd" transform="matrix(1 0 0 1 0 0)" d="M-0.1389911 805.413L595.4166 805.413L595.4166 805.413L595.4166 34.69409L595.4166 34.69409L-0.1389911 34.69409z" /></clipPath><clipPath id="76"><path id="" clip-rule="evenodd" transform="matrix(1 0 0 1 0 0)" d="M-0.1389911 805.413L595.4166 805.413L595.4166 805.413L595.4166 34.69409L595.4166 34.69409L-0.1389911 34.69409z" /></clipPath><clipPath id="77"><path id="" clip-rule="evenodd" transform="matrix(1 0 0 1 0 0)" d="M-0.1389911 805.413L595.4166 805.413L595.4166 805.413L595.4166 34.69409L595.4166 34.69409L-0.1389911 34.69409z" /></clipPath><clipPath id="78"><path id="" clip-rule="evenodd" transform="matrix(1 0 0 1 0 0)" d="M-0.1389911 805.413L595.4166 805.413L595.4166 805.413L595.4166 34.69409L595.4166 34.69409L-0.1389911 34.69409z" /></clipPath><clipPath id="79"><path id="" clip-rule="evenodd" transform="matrix(1 0 0 1 0 0)" d="M-0.1389911 805.413L595.4166 805.413L595.4166 805.413L595.4166 34.69409L595.4166 34.69409L-0.1389911 34.69409z" /></clipPath><clipPath id="80"><path id="" clip-rule="evenodd" transform="matrix(1 0 0 1 0 0)" d="M-0.1389911 805.413L595.4166 805.413L595.4166 805.413L595.4166 34.69409L595.4166 34.69409L-0.1389911 34.69409z" /></clipPath><clipPath id="81"><path id="" clip-rule="evenodd" transform="matrix(1 0 0 1 0 0)" d="M-0.1389911 805.413L595.4166 805.413L595.4166 805.413L595.4166 34.69409L595.4166 34.69409L-0.1389911 34.69409z" /></clipPath><clipPath id="82"><path id="" clip-rule="evenodd" transform="matrix(1 0 0 1 0 0)" d="M-0.1389911 805.413L595.4166 805.413L595.4166 805.413L595.4166 34.69409L595.4166 34.69409L-0.1389911 34.69409z" /></clipPath><clipPath id="83"><path id="" clip-rule="evenodd" transform="matrix(1 0 0 1 0 0)" d="M-0.1389911 805.413L595.4166 805.413L595.4166 805.413L595.4166 34.69409L595.4166 34.69409L-0.1389911 34.69409z" /></clipPath><clipPath id="84"><path id="" clip-rule="evenodd" transform="matrix(1 0 0 1 0 0)" d="M-0.1389911 805.413L595.4166 805.413L595.4166 805.413L595.4166 34.69409L595.4166 34.69409L-0.1389911 34.69409z" /></clipPath><clipPath id="85"><path id="" clip-rule="evenodd" transform="matrix(1 0 0 1 0 0)" d="M-0.1389911 805.413L595.4166 805.413L595.4166 805.413L595.4166 34.69409L595.4166 34.69409L-0.1389911 34.69409z" /></clipPath><clipPath id="86"><path id="" clip-rule="evenodd" transform="matrix(1 0 0 1 0 0)" d="M-0.1389911 805.413L595.4166 805.413L595.4166 805.413L595.4166 34.69409L595.4166 34.69409L-0.1389911 34.69409z" /></clipPath><clipPath id="87"><path id="" clip-rule="evenodd" transform="matrix(1 0 0 1 0 0)" d="M-0.1389911 805.413L595.4166 805.413L595.4166 805.413L595.4166 34.69409L595.4166 34.69409L-0.1389911 34.69409z" /></clipPath><clipPath id="88"><path id="" clip-rule="evenodd" transform="matrix(1 0 0 1 0 0)" d="M-0.1389911 805.413L595.4166 805.413L595.4166 805.413L595.4166 34.69409L595.4166 34.69409L-0.1389911 34.69409z" /></clipPath><clipPath id="89"><path id="" clip-rule="evenodd" transform="matrix(1 0 0 1 0 0)" d="M-0.1389911 805.413L595.4166 805.413L595.4166 805.413L595.4166 34.69409L595.4166 34.69409L-0.1389911 34.69409z" /></clipPath><clipPath id="90"><path id="" clip-rule="evenodd" transform="matrix(1 0 0 1 0 0)" d="M-0.1389911 805.413L595.4166 805.413L595.4166 805.413L595.4166 34.69409L595.4166 34.69409L-0.1389911 34.69409z" /></clipPath><clipPath id="91"><path id="" clip-rule="evenodd" transform="matrix(1 0 0 1 0 0)" d="M-0.1389911 805.413L595.4166 805.413L595.4166 805.413L595.4166 34.69409L595.4166 34.69409L-0.1389911 34.69409z" /></clipPath><clipPath id="92"><path id="" clip-rule="evenodd" transform="matrix(1 0 0 1 0 0)" d="M-0.1389911 805.413L595.4166 805.413L595.4166 805.413L595.4166 34.69409L595.4166 34.69409L-0.1389911 34.69409z" /></clipPath><clipPath id="93"><path id="" clip-rule="evenodd" transform="matrix(1 0 0 1 0 0)" d="M-0.1389911 805.413L595.4166 805.413L595.4166 805.413L595.4166 34.69409L595.4166 34.69409L-0.1389911 34.69409z" /></clipPath><clipPath id="94"><path id="" clip-rule="evenodd" transform="matrix(1 0 0 1 0 0)" d="M-0.1389911 805.413L595.4166 805.413L595.4166 805.413L595.4166 34.69409L595.4166 34.69409L-0.1389911 34.69409z" /></clipPath><clipPath id="95"><path id="" clip-rule="evenodd" transform="matrix(1 0 0 1 0 0)" d="M-0.1389911 805.413L595.4166 805.413L595.4166 805.413L595.4166 34.69409L595.4166 34.69409L-0.1389911 34.69409z" /></clipPath><clipPath id="96"><path id="" clip-rule="evenodd" transform="matrix(1 0 0 1 0 0)" d="M-0.1389911 805.413L595.4166 805.413L595.4166 805.413L595.4166 34.69409L595.4166 34.69409L-0.1389911 34.69409z" /></clipPath><clipPath id="97"><path id="" clip-rule="evenodd" transform="matrix(1 0 0 1 0 0)" d="M-0.1389911 805.413L595.4166 805.413L595.4166 805.413L595.4166 34.69409L595.4166 34.69409L-0.1389911 34.69409z" /></clipPath><clipPath id="98"><path id="" clip-rule="evenodd" transform="matrix(1 0 0 1 0 0)" d="M-0.1389911 805.413L595.4166 805.413L595.4166 805.413L595.4166 34.69409L595.4166 34.69409L-0.1389911 34.69409z" /></clipPath><clipPath id="99"><path id="" clip-rule="evenodd" transform="matrix(1 0 0 1 0 0)" d="M-0.1389911 805.413L595.4166 805.413L595.4166 805.413L595.4166 34.69409L595.4166 34.69409L-0.1389911 34.69409z" /></clipPath><clipPath id="100"><path id="" clip-rule="evenodd" transform="matrix(1 0 0 1 0 0)" d="M-0.1389911 805.413L595.4166 805.413L595.4166 805.413L595.4166 34.69409L595.4166 34.69409L-0.1389911 34.69409z" /></clipPath><clipPath id="101"><path id="" clip-rule="evenodd" transform="matrix(1 0 0 1 0 0)" d="M-0.1389911 805.413L595.4166 805.413L595.4166 805.413L595.4166 34.69409L595.4166 34.69409L-0.1389911 34.69409z" /></clipPath><clipPath id="102"><path id="" clip-rule="evenodd" transform="matrix(1 0 0 1 0 0)" d="M-0.1389911 805.413L595.4166 805.413L595.4166 805.413L595.4166 34.69409L595.4166 34.69409L-0.1389911 34.69409z" /></clipPath><clipPath id="103"><path id="" clip-rule="evenodd" transform="matrix(1 0 0 1 0 0)" d="M-0.1389911 805.413L595.4166 805.413L595.4166 805.413L595.4166 34.69409L595.4166 34.69409L-0.1389911 34.69409z" /></clipPath><clipPath id="104"><path id="" clip-rule="evenodd" transform="matrix(1 0 0 1 0 0)" d="M-0.1389911 805.413L595.4166 805.413L595.4166 805.413L595.4166 34.69409L595.4166 34.69409L-0.1389911 34.69409z" /></clipPath><clipPath id="105"><path id="" clip-rule="evenodd" transform="matrix(1 0 0 1 0 0)" d="M-0.1389911 805.413L595.4166 805.413L595.4166 805.413L595.4166 34.69409L595.4166 34.69409L-0.1389911 34.69409z" /></clipPath><clipPath id="106"><path id="" clip-rule="evenodd" transform="matrix(1 0 0 1 0 0)" d="M-0.1389911 805.413L595.4166 805.413L595.4166 805.413L595.4166 34.69409L595.4166 34.69409L-0.1389911 34.69409z" /></clipPath><clipPath id="107"><path id="" clip-rule="evenodd" transform="matrix(1 0 0 1 0 0)" d="M-0.1389911 805.413L595.4166 805.413L595.4166 805.413L595.4166 34.69409L595.4166 34.69409L-0.1389911 34.69409z" /></clipPath><clipPath id="108"><path id="" clip-rule="evenodd" transform="matrix(1 0 0 1 0 0)" d="M-0.1389911 805.413L595.4166 805.413L595.4166 805.413L595.4166 34.69409L595.4166 34.69409L-0.1389911 34.69409z" /></clipPath><clipPath id="109"><path id="" clip-rule="evenodd" transform="matrix(1 0 0 1 0 0)" d="M-0.1389911 805.413L595.4166 805.413L595.4166 805.413L595.4166 34.69409L595.4166 34.69409L-0.1389911 34.69409z" /></clipPath><clipPath id="110"><path id="" clip-rule="evenodd" transform="matrix(1 0 0 1 0 0)" d="M-0.1389911 805.413L595.4166 805.413L595.4166 805.413L595.4166 34.69409L595.4166 34.69409L-0.1389911 34.69409z" /></clipPath><clipPath id="111"><path id="" clip-rule="evenodd" transform="matrix(1 0 0 1 0 0)" d="M-0.1389911 805.413L595.4166 805.413L595.4166 805.413L595.4166 34.69409L595.4166 34.69409L-0.1389911 34.69409z" /></clipPath><clipPath id="112"><path id="" clip-rule="evenodd" transform="matrix(1 0 0 1 0 0)" d="M-0.1389911 805.413L595.4166 805.413L595.4166 805.413L595.4166 34.69409L595.4166 34.69409L-0.1389911 34.69409z" /></clipPath><clipPath id="113"><path id="" clip-rule="evenodd" transform="matrix(1 0 0 1 0 0)" d="M-0.1389911 805.413L595.4166 805.413L595.4166 805.413L595.4166 34.69409L595.4166 34.69409L-0.1389911 34.69409z" /></clipPath><clipPath id="114"><path id="" clip-rule="evenodd" transform="matrix(1 0 0 1 0 0)" d="M-0.1389911 805.413L595.4166 805.413L595.4166 805.413L595.4166 34.69409L595.4166 34.69409L-0.1389911 34.69409z" /></clipPath><clipPath id="115"><path id="" clip-rule="evenodd" transform="matrix(1 0 0 1 0 0)" d="M-0.1389911 805.413L595.4166 805.413L595.4166 805.413L595.4166 34.69409L595.4166 34.69409L-0.1389911 34.69409z" /></clipPath><clipPath id="116"><path id="" clip-rule="evenodd" transform="matrix(1 0 0 1 0 0)" d="M-0.1389911 805.413L595.4166 805.413L595.4166 805.413L595.4166 34.69409L595.4166 34.69409L-0.1389911 34.69409z" /></clipPath><clipPath id="117"><path id="" clip-rule="evenodd" transform="matrix(1 0 0 1 0 0)" d="M-0.1389911 805.413L595.4166 805.413L595.4166 805.413L595.4166 34.69409L595.4166 34.69409L-0.1389911 34.69409z" /></clipPath><clipPath id="118"><path id="" clip-rule="evenodd" transform="matrix(1 0 0 1 0 0)" d="M-0.1389911 805.413L595.4166 805.413L595.4166 805.413L595.4166 34.69409L595.4166 34.69409L-0.1389911 34.69409z" /></clipPath><clipPath id="119"><path id="" clip-rule="evenodd" transform="matrix(1 0 0 1 0 0)" d="M-0.1389911 805.413L595.4166 805.413L595.4166 805.413L595.4166 34.69409L595.4166 34.69409L-0.1389911 34.69409z" /></clipPath><clipPath id="120"><path id="" clip-rule="evenodd" transform="matrix(1 0 0 1 0 0)" d="M-0.1389911 805.413L595.4166 805.413L595.4166 805.413L595.4166 34.69409L595.4166 34.69409L-0.1389911 34.69409z" /></clipPath><clipPath id="121"><path id="" clip-rule="evenodd" transform="matrix(1 0 0 1 0 0)" d="M-0.1389911 805.413L595.4166 805.413L595.4166 805.413L595.4166 34.69409L595.4166 34.69409L-0.1389911 34.69409z" /></clipPath><clipPath id="122"><path id="" clip-rule="evenodd" transform="matrix(1 0 0 1 0 0)" d="M-0.1389911 805.413L595.4166 805.413L595.4166 805.413L595.4166 34.69409L595.4166 34.69409L-0.1389911 34.69409z" /></clipPath><clipPath id="123"><path id="" clip-rule="evenodd" transform="matrix(1 0 0 1 0 0)" d="M-0.1389911 805.413L595.4166 805.413L595.4166 805.413L595.4166 34.69409L595.4166 34.69409L-0.1389911 34.69409z" /></clipPath><clipPath id="124"><path id="" clip-rule="evenodd" transform="matrix(1 0 0 1 0 0)" d="M-0.1389911 805.413L595.4166 805.413L595.4166 805.413L595.4166 34.69409L595.4166 34.69409L-0.1389911 34.69409z" /></clipPath><clipPath id="125"><path id="" clip-rule="evenodd" transform="matrix(1 0 0 1 0 0)" d="M-0.1389911 805.413L595.4166 805.413L595.4166 805.413L595.4166 34.69409L595.4166 34.69409L-0.1389911 34.69409z" /></clipPath><clipPath id="126"><path id="" clip-rule="evenodd" transform="matrix(1 0 0 1 0 0)" d="M-0.1389911 805.413L595.4166 805.413L595.4166 805.413L595.4166 34.69409L595.4166 34.69409L-0.1389911 34.69409z" /></clipPath><clipPath id="127"><path id="" clip-rule="evenodd" transform="matrix(1 0 0 1 0 0)" d="M-0.1389911 805.413L595.4166 805.413L595.4166 805.413L595.4166 34.69409L595.4166 34.69409L-0.1389911 34.69409z" /></clipPath><clipPath id="128"><path id="" clip-rule="evenodd" transform="matrix(1 0 0 1 0 0)" d="M-0.1389911 805.413L595.4166 805.413L595.4166 805.413L595.4166 34.69409L595.4166 34.69409L-0.1389911 34.69409z" /></clipPath><clipPath id="129"><path id="" clip-rule="evenodd" transform="matrix(1 0 0 1 0 0)" d="M-0.1389911 805.413L595.4166 805.413L595.4166 805.413L595.4166 34.69409L595.4166 34.69409L-0.1389911 34.69409z" /></clipPath><clipPath id="130"><path id="" clip-rule="evenodd" transform="matrix(1 0 0 1 0 0)" d="M-0.1389911 805.413L595.4166 805.413L595.4166 805.413L595.4166 34.69409L595.4166 34.69409L-0.1389911 34.69409z" /></clipPath><clipPath id="131"><path id="" clip-rule="evenodd" transform="matrix(1 0 0 1 0 0)" d="M-0.1389911 805.413L595.4166 805.413L595.4166 805.413L595.4166 34.69409L595.4166 34.69409L-0.1389911 34.69409z" /></clipPath><clipPath id="132"><path id="" clip-rule="evenodd" transform="matrix(1 0 0 1 0 0)" d="M-0.1389911 805.413L595.4166 805.413L595.4166 805.413L595.4166 34.69409L595.4166 34.69409L-0.1389911 34.69409z" /></clipPath><clipPath id="133"><path id="" clip-rule="evenodd" transform="matrix(1 0 0 1 0 0)" d="M-0.1389911 805.413L595.4166 805.413L595.4166 805.413L595.4166 34.69409L595.4166 34.69409L-0.1389911 34.69409z" /></clipPath><clipPath id="134"><path id="" clip-rule="evenodd" transform="matrix(1 0 0 1 0 0)" d="M-0.1389911 805.413L595.4166 805.413L595.4166 805.413L595.4166 34.69409L595.4166 34.69409L-0.1389911 34.69409z" /></clipPath><clipPath id="135"><path id="" clip-rule="evenodd" transform="matrix(1 0 0 1 0 0)" d="M-0.1389911 805.413L595.4166 805.413L595.4166 805.413L595.4166 34.69409L595.4166 34.69409L-0.1389911 34.69409z" /></clipPath><clipPath id="136"><path id="" clip-rule="evenodd" transform="matrix(1 0 0 1 0 0)" d="M-0.1389911 805.413L595.4166 805.413L595.4166 805.413L595.4166 34.69409L595.4166 34.69409L-0.1389911 34.69409z" /></clipPath><clipPath id="137"><path id="" clip-rule="evenodd" transform="matrix(1 0 0 1 0 0)" d="M-0.1389911 805.413L595.4166 805.413L595.4166 805.413L595.4166 34.69409L595.4166 34.69409L-0.1389911 34.69409z" /></clipPath><clipPath id="138"><path id="" clip-rule="evenodd" transform="matrix(1 0 0 1 0 0)" d="M-0.1389911 805.413L595.4166 805.413L595.4166 805.413L595.4166 34.69409L595.4166 34.69409L-0.1389911 34.69409z" /></clipPath><clipPath id="139"><path id="" clip-rule="evenodd" transform="matrix(1 0 0 1 0 0)" d="M-0.1389911 805.413L595.4166 805.413L595.4166 805.413L595.4166 34.69409L595.4166 34.69409L-0.1389911 34.69409z" /></clipPath><clipPath id="140"><path id="" clip-rule="evenodd" transform="matrix(1 0 0 1 0 0)" d="M-0.1389911 805.413L595.4166 805.413L595.4166 805.413L595.4166 34.69409L595.4166 34.69409L-0.1389911 34.69409z" /></clipPath><clipPath id="141"><path id="" clip-rule="evenodd" transform="matrix(1 0 0 1 0 0)" d="M-0.1389911 805.413L595.4166 805.413L595.4166 805.413L595.4166 34.69409L595.4166 34.69409L-0.1389911 34.69409z" /></clipPath><clipPath id="142"><path id="" clip-rule="evenodd" transform="matrix(1 0 0 1 0 0)" d="M-0.1389911 805.413L595.4166 805.413L595.4166 805.413L595.4166 34.69409L595.4166 34.69409L-0.1389911 34.69409z" /></clipPath><clipPath id="143"><path id="" clip-rule="evenodd" transform="matrix(1 0 0 1 0 0)" d="M-0.1389911 805.413L595.4166 805.413L595.4166 805.413L595.4166 34.69409L595.4166 34.69409L-0.1389911 34.69409z" /></clipPath><clipPath id="144"><path id="" clip-rule="evenodd" transform="matrix(1 0 0 1 0 0)" d="M-0.1389911 805.413L595.4166 805.413L595.4166 805.413L595.4166 34.69409L595.4166 34.69409L-0.1389911 34.69409z" /></clipPath><clipPath id="145"><path id="" clip-rule="evenodd" transform="matrix(1 0 0 1 0 0)" d="M-0.1389911 805.413L595.4166 805.413L595.4166 805.413L595.4166 34.69409L595.4166 34.69409L-0.1389911 34.69409z" /></clipPath><clipPath id="146"><path id="" clip-rule="evenodd" transform="matrix(1 0 0 1 0 0)" d="M-0.1389911 805.413L595.4166 805.413L595.4166 805.413L595.4166 34.69409L595.4166 34.69409L-0.1389911 34.69409z" /></clipPath><clipPath id="147"><path id="" clip-rule="evenodd" transform="matrix(1 0 0 1 0 0)" d="M-0.1389911 805.413L595.4166 805.413L595.4166 805.413L595.4166 34.69409L595.4166 34.69409L-0.1389911 34.69409z" /></clipPath><clipPath id="148"><path id="" clip-rule="evenodd" transform="matrix(1 0 0 1 0 0)" d="M-0.1389911 805.413L595.4166 805.413L595.4166 805.413L595.4166 34.69409L595.4166 34.69409L-0.1389911 34.69409z" /></clipPath><clipPath id="149"><path id="" clip-rule="evenodd" transform="matrix(1 0 0 1 0 0)" d="M-0.1389911 805.413L595.4166 805.413L595.4166 805.413L595.4166 34.69409L595.4166 34.69409L-0.1389911 34.69409z" /></clipPath><clipPath id="150"><path id="" clip-rule="evenodd" transform="matrix(1 0 0 1 0 0)" d="M-0.1389911 805.413L595.4166 805.413L595.4166 805.413L595.4166 34.69409L595.4166 34.69409L-0.1389911 34.69409z" /></clipPath><clipPath id="151"><path id="" clip-rule="evenodd" transform="matrix(1 0 0 1 0 0)" d="M-0.1389911 805.413L595.4166 805.413L595.4166 805.413L595.4166 34.69409L595.4166 34.69409L-0.1389911 34.69409z" /></clipPath><clipPath id="152"><path id="" clip-rule="evenodd" transform="matrix(1 0 0 1 0 0)" d="M-0.1389911 805.413L595.4166 805.413L595.4166 805.413L595.4166 34.69409L595.4166 34.69409L-0.1389911 34.69409z" /></clipPath><clipPath id="153"><path id="" clip-rule="evenodd" transform="matrix(1 0 0 1 0 0)" d="M-0.1389911 805.413L595.4166 805.413L595.4166 805.413L595.4166 34.69409L595.4166 34.69409L-0.1389911 34.69409z" /></clipPath><clipPath id="154"><path id="" clip-rule="evenodd" transform="matrix(1 0 0 1 0 0)" d="M-0.1389911 805.413L595.4166 805.413L595.4166 805.413L595.4166 34.69409L595.4166 34.69409L-0.1389911 34.69409z" /></clipPath><clipPath id="155"><path id="" clip-rule="evenodd" transform="matrix(1 0 0 1 0 0)" d="M-0.1389911 805.413L595.4166 805.413L595.4166 805.413L595.4166 34.69409L595.4166 34.69409L-0.1389911 34.69409z" /></clipPath><clipPath id="156"><path id="" clip-rule="evenodd" transform="matrix(1 0 0 1 0 0)" d="M-0.1389911 805.413L595.4166 805.413L595.4166 805.413L595.4166 34.69409L595.4166 34.69409L-0.1389911 34.69409z" /></clipPath><clipPath id="157"><path id="" clip-rule="evenodd" transform="matrix(1 0 0 1 0 0)" d="M-0.1389911 805.413L595.4166 805.413L595.4166 805.413L595.4166 34.69409L595.4166 34.69409L-0.1389911 34.69409z" /></clipPath><clipPath id="158"><path id="" clip-rule="evenodd" transform="matrix(1 0 0 1 0 0)" d="M-0.1389911 805.413L595.4166 805.413L595.4166 805.413L595.4166 34.69409L595.4166 34.69409L-0.1389911 34.69409z" /></clipPath><clipPath id="159"><path id="" clip-rule="evenodd" transform="matrix(1 0 0 1 0 0)" d="M-0.1389911 805.413L595.4166 805.413L595.4166 805.413L595.4166 34.69409L595.4166 34.69409L-0.1389911 34.69409z" /></clipPath><clipPath id="160"><path id="" clip-rule="evenodd" transform="matrix(1 0 0 1 0 0)" d="M-0.1389911 805.413L595.4166 805.413L595.4166 805.413L595.4166 34.69409L595.4166 34.69409L-0.1389911 34.69409z" /></clipPath><clipPath id="161"><path id="" clip-rule="evenodd" transform="matrix(1 0 0 1 0 0)" d="M-0.1389911 805.413L595.4166 805.413L595.4166 805.413L595.4166 34.69409L595.4166 34.69409L-0.1389911 34.69409z" /></clipPath><clipPath id="162"><path id="" clip-rule="evenodd" transform="matrix(1 0 0 1 0 0)" d="M-0.1389911 805.413L595.4166 805.413L595.4166 805.413L595.4166 34.69409L595.4166 34.69409L-0.1389911 34.69409z" /></clipPath><clipPath id="163"><path id="" clip-rule="evenodd" transform="matrix(1 0 0 1 0 0)" d="M-0.1389911 805.413L595.4166 805.413L595.4166 805.413L595.4166 34.69409L595.4166 34.69409L-0.1389911 34.69409z" /></clipPath><clipPath id="164"><path id="" clip-rule="evenodd" transform="matrix(1 0 0 1 0 0)" d="M-0.1389911 805.413L595.4166 805.413L595.4166 805.413L595.4166 34.69409L595.4166 34.69409L-0.1389911 34.69409z" /></clipPath><clipPath id="165"><path id="" clip-rule="evenodd" transform="matrix(1 0 0 1 0 0)" d="M-0.1389911 805.413L595.4166 805.413L595.4166 805.413L595.4166 34.69409L595.4166 34.69409L-0.1389911 34.69409z" /></clipPath><clipPath id="166"><path id="" clip-rule="evenodd" transform="matrix(1 0 0 1 0 0)" d="M-0.1389911 805.413L595.4166 805.413L595.4166 805.413L595.4166 34.69409L595.4166 34.69409L-0.1389911 34.69409z" /></clipPath><clipPath id="167"><path id="" clip-rule="evenodd" transform="matrix(1 0 0 1 0 0)" d="M-0.1389911 805.413L595.4166 805.413L595.4166 805.413L595.4166 34.69409L595.4166 34.69409L-0.1389911 34.69409z" /></clipPath><clipPath id="168"><path id="" clip-rule="evenodd" transform="matrix(1 0 0 1 0 0)" d="M-0.1389911 805.413L595.4166 805.413L595.4166 805.413L595.4166 34.69409L595.4166 34.69409L-0.1389911 34.69409z" /></clipPath></defs><g transform="matrix(1.333333 0 0 1.333333 0 0)"><g clip-path="url(#1)"><g><g clip-path="url(#2)"><path id="1" transform="matrix(1 0 0 -1 0 841)" d="M47.50544 730.6353L526.8498 730.6353L526.8498 730.6353L526.8498 757.2601L526.8498 757.2601L47.50544 757.2601z" stroke="none" fill="#3C6396" fill-rule="evenodd" /><g clip-path="url(#3)"></g><g clip-path="url(#4)"></g><g clip-path="url(#5)"></g><g clip-path="url(#6)"></g><g clip-path="url(#7)"></g><path id="53" transform="matrix(1 0 0 -1 0 841)" d="M47.50544 718.9383L526.8498 718.9383L526.8498 718.9383L526.8498 730.6392L526.8498 730.6392L47.50544 730.6392z" stroke="none" fill="#FFFFFF" fill-rule="evenodd" /><g clip-path="url(#8)"></g><g clip-path="url(#9)"></g><path id="164" transform="matrix(1 0 0 -1 0 841)" d="M47.50544 707.144L526.8498 707.144L526.8498 707.144L526.8498 718.9383L526.8498 718.9383L47.50544 718.9383z" stroke="none" fill="#FFFFFF" fill-rule="evenodd" /><g clip-path="url(#10)"></g><g clip-path="url(#11)"></g><g clip-path="url(#12)"></g><g clip-path="url(#13)"></g><path id="214" transform="matrix(1 0 0 -1 0 841)" d="M48.2061 678.8843L526.8498 678.8843L526.8498 678.8843L526.8498 690.5618L526.8498 690.5618L48.2061 690.5618z" stroke="none" fill="#FFFFFF" fill-rule="evenodd" /><g clip-path="url(#14)"></g><g clip-path="url(#15)"></g><g clip-path="url(#16)"></g><g clip-path="url(#17)"></g><path id="325" transform="matrix(1 0 0 -1 0 841)" d="M48.2061 664.2874L526.8498 664.2874L526.8498 664.2874L526.8498 676.0817L526.8498 676.0817L48.2061 676.0817z" stroke="none" fill="#FFFFFF" fill-rule="evenodd" /><g clip-path="url(#18)"></g><g clip-path="url(#19)"></g><path id="434" transform="matrix(1 0 0 -1 0 841)" d="M48.2061 649.6904L526.8498 649.6904L526.8498 649.6904L526.8498 661.4847L526.8498 661.4847L48.2061 661.4847z" stroke="none" fill="#FFFFFF" fill-rule="evenodd" /><g clip-path="url(#20)"></g><g clip-path="url(#21)"></g><g clip-path="url(#22)"></g><path id="444" transform="matrix(1 0 0 -1 0 841)" d="M48.2061 635.0934L526.8498 635.0934L526.8498 635.0934L526.8498 649.6904L526.8498 649.6904L48.2061 649.6904z" stroke="none" fill="#FFFFFF" fill-rule="evenodd" /><g clip-path="url(#23)"></g><g clip-path="url(#24)"></g><g clip-path="url(#25)"></g><g clip-path="url(#26)"></g><g clip-path="url(#27)"></g><path id="550" transform="matrix(1 0 0 -1 0 841)" d="M48.2061 620.4965L526.8498 620.4965L526.8498 620.4965L526.8498 635.0934L526.8498 635.0934L48.2061 635.0934z" stroke="none" fill="#FFFFFF" fill-rule="evenodd" /><g clip-path="url(#28)"></g><g clip-path="url(#29)"></g><g clip-path="url(#30)"></g><path id="619" transform="matrix(1 0 0 -1 0 841)" d="M48.2061 605.8995L526.8498 605.8995L526.8498 605.8995L526.8498 620.4965L526.8498 620.4965L48.2061 620.4965z" stroke="none" fill="#FFFFFF" fill-rule="evenodd" /><g clip-path="url(#31)"></g><g clip-path="url(#32)"></g><g clip-path="url(#33)"></g><g clip-path="url(#34)"></g><g clip-path="url(#35)"></g><g clip-path="url(#36)"></g><path id="729" transform="matrix(1 0 0 -1 0 841)" d="M48.2061 591.3026L526.8498 591.3026L526.8498 591.3026L526.8498 605.8995L526.8498 605.8995L48.2061 605.8995z" stroke="none" fill="#FFFFFF" fill-rule="evenodd" /><g clip-path="url(#37)"></g><g clip-path="url(#38)"></g><g clip-path="url(#39)"></g><g clip-path="url(#40)"></g><g clip-path="url(#41)"></g><path id="792" transform="matrix(1 0 0 -1 0 841)" d="M48.2061 576.7056L526.8498 576.7056L526.8498 576.7056L526.8498 591.3026L526.8498 591.3026L48.2061 591.3026z" stroke="none" fill="#FFFFFF" fill-rule="evenodd" /><g clip-path="url(#42)"></g><g clip-path="url(#43)"></g><g clip-path="url(#44)"></g><g clip-path="url(#45)"></g><path id="900" transform="matrix(1 0 0 -1 0 841)" d="M48.2061 562.1087L526.8498 562.1087L526.8498 562.1087L526.8498 576.7056L526.8498 576.7056L48.2061 576.7056z" stroke="none" fill="#FFFFFF" fill-rule="evenodd" /><g clip-path="url(#46)"></g><g clip-path="url(#47)"></g><g clip-path="url(#48)"></g><path id="931" transform="matrix(1 0 0 -1 0 841)" d="M48.2061 547.4826L526.8498 547.4826L526.8498 547.4826L526.8498 562.1028L526.8498 562.1028L48.2061 562.1028z" stroke="none" fill="#FFFFFF" fill-rule="evenodd" /><g clip-path="url(#49)"></g><g clip-path="url(#50)"></g><g clip-path="url(#51)"></g><g clip-path="url(#52)"></g><g clip-path="url(#53)"></g><path id="1036" transform="matrix(1 0 0 -1 0 841)" d="M48.2061 533.0024L526.8498 533.0024L526.8498 533.0024L526.8498 547.4825L526.8498 547.4825L48.2061 547.4825z" stroke="none" fill="#FFFFFF" fill-rule="evenodd" /><g clip-path="url(#54)"></g><g clip-path="url(#55)"></g><g clip-path="url(#56)"></g><path id="1123" transform="matrix(1 0 0 -1 0 841)" d="M47.50544 492.7148L526.8498 492.7148L526.8498 492.7148L526.8498 519.3396L526.8498 519.3396L47.50544 519.3396z" stroke="none" fill="#3C6396" fill-rule="evenodd" /><g clip-path="url(#57)"></g><g clip-path="url(#58)"></g><g clip-path="url(#59)"></g><g clip-path="url(#60)"></g><g clip-path="url(#61)"></g><path id="1176" transform="matrix(1 0 0 -1 0 841)" d="M47.50544 480.9205L526.8498 480.9205L526.8498 480.9205L526.8498 492.7148L526.8498 492.7148L47.50544 492.7148z" stroke="none" fill="#FFFFFF" fill-rule="evenodd" /><g clip-path="url(#62)"></g><g clip-path="url(#63)"></g><g clip-path="url(#64)"></g><path id="1289" transform="matrix(1 0 0 -1 0 841)" d="M47.50544 469.2429L526.8498 469.2429L526.8498 469.2429L526.8498 480.9205L526.8498 480.9205L47.50544 480.9205z" stroke="none" fill="#FFFFFF" fill-rule="evenodd" /><g clip-path="url(#65)"></g><path id="1397" transform="matrix(1 0 0 -1 0 841)" d="M47.50544 457.5654L526.8498 457.5654L526.8498 457.5654L526.8498 469.2429L526.8498 469.2429L47.50544 469.2429z" stroke="none" fill="#FFFFFF" fill-rule="evenodd" /><g clip-path="url(#66)"></g><g clip-path="url(#67)"></g><g clip-path="url(#68)"></g><path id="1489" transform="matrix(1 0 0 -1 0 841)" d="M48.2061 429.1889L526.8498 429.1889L526.8498 429.1889L526.8498 440.9832L526.8498 440.9832L48.2061 440.9832z" stroke="none" fill="#FFFFFF" fill-rule="evenodd" /><g clip-path="url(#69)"></g><g clip-path="url(#70)"></g><g clip-path="url(#71)"></g><g clip-path="url(#72)"></g><g clip-path="url(#73)"></g><g clip-path="url(#74)"></g><g clip-path="url(#75)"></g><path id="1547" transform="matrix(1 0 0 -1 0 841)" d="M48.2061 414.5919L526.8498 414.5919L526.8498 414.5919L526.8498 429.1889L526.8498 429.1889L48.2061 429.1889z" stroke="none" fill="#FFFFFF" fill-rule="evenodd" /><g clip-path="url(#76)"></g><g clip-path="url(#77)"></g><g clip-path="url(#78)"></g><g clip-path="url(#79)"></g><g clip-path="url(#80)"></g><path id="1609" transform="matrix(1 0 0 -1 0 841)" d="M48.2061 399.995L526.8498 399.995L526.8498 399.995L526.8498 414.5919L526.8498 414.5919L48.2061 414.5919z" stroke="none" fill="#FFFFFF" fill-rule="evenodd" /><g clip-path="url(#81)"></g><g clip-path="url(#82)"></g><g clip-path="url(#83)"></g><g clip-path="url(#84)"></g><g clip-path="url(#85)"></g><path id="1701" transform="matrix(1 0 0 -1 0 841)" d="M48.2061 385.3786L526.8498 385.3786L526.8498 385.3786L526.8498 399.9989L526.8498 399.9989L48.2061 399.9989z" stroke="none" fill="#FFFFFF" fill-rule="evenodd" /><g clip-path="url(#86)"></g><g clip-path="url(#87)"></g><g clip-path="url(#88)"></g><g clip-path="url(#89)"></g><g clip-path="url(#90)"></g><path id="1743" transform="matrix(1 0 0 -1 0 841)" d="M48.2061 370.8984L526.8498 370.8984L526.8498 370.8984L526.8498 385.3786L526.8498 385.3786L48.2061 385.3786z" stroke="none" fill="#FFFFFF" fill-rule="evenodd" /><g clip-path="url(#91)"></g><g clip-path="url(#92)"></g><g clip-path="url(#93)"></g><g clip-path="url(#94)"></g><g clip-path="url(#95)"></g><g clip-path="url(#96)"></g><g clip-path="url(#97)"></g><path id="1811" transform="matrix(1 0 0 -1 0 841)" d="M47.50544 330.6108L526.8498 330.6108L526.8498 330.6108L526.8498 357.2357L526.8498 357.2357L47.50544 357.2357z" stroke="none" fill="#3C6396" fill-rule="evenodd" /><g clip-path="url(#98)"></g><g clip-path="url(#99)"></g><g clip-path="url(#100)"></g><g clip-path="url(#101)"></g><g clip-path="url(#102)"></g><path id="1862" transform="matrix(1 0 0 -1 0 841)" d="M47.50544 318.8165L526.8498 318.8165L526.8498 318.8165L526.8498 330.6108L526.8498 330.6108L47.50544 330.6108z" stroke="none" fill="#FFFFFF" fill-rule="evenodd" /><g clip-path="url(#103)"></g><g clip-path="url(#104)"></g><path id="1967" transform="matrix(1 0 0 -1 0 841)" d="M47.50544 307.1389L526.8498 307.1389L526.8498 307.1389L526.8498 318.8165L526.8498 318.8165L47.50544 318.8165z" stroke="none" fill="#FFFFFF" fill-rule="evenodd" /><g clip-path="url(#105)"></g><g clip-path="url(#106)"></g><g clip-path="url(#107)"></g><path id="2037" transform="matrix(1 0 0 -1 0 841)" d="M48.2061 278.8792L526.8498 278.8792L526.8498 278.8792L526.8498 290.5568L526.8498 290.5568L48.2061 290.5568z" stroke="none" fill="#FFFFFF" fill-rule="evenodd" /><g clip-path="url(#108)"></g><g clip-path="url(#109)"></g><g clip-path="url(#110)"></g><g clip-path="url(#111)"></g><g clip-path="url(#112)"></g><g clip-path="url(#113)"></g><g clip-path="url(#114)"></g><g clip-path="url(#115)"></g><g clip-path="url(#116)"></g><path id="2111" transform="matrix(1 0 0 -1 0 841)" d="M359.4812 282.6161L362.167 282.6161L362.167 282.6161L362.167 282.9664L362.167 282.9664L359.4812 282.9664z" stroke="none" fill="#800080" fill-rule="evenodd" /><g clip-path="url(#117)"></g><path id="2112" transform="matrix(1 0 0 -1 0 841)" d="M48.2061 264.2823L526.8498 264.2823L526.8498 264.2823L526.8498 278.8792L526.8498 278.8792L48.2061 278.8792z" stroke="none" fill="#FFFFFF" fill-rule="evenodd" /><g clip-path="url(#118)"></g><g clip-path="url(#119)"></g><g clip-path="url(#120)"></g><g clip-path="url(#121)"></g><g clip-path="url(#122)"></g><g clip-path="url(#123)"></g><path id="2141" transform="matrix(1 0 0 -1 0 841)" d="M176.9123 268.0191L179.5981 268.0191L179.5981 268.0191L179.5981 268.3694L179.5981 268.3694L176.9123 268.3694z" stroke="none" fill="#800080" fill-rule="evenodd" /><g clip-path="url(#124)"></g><path id="2142" transform="matrix(1 0 0 -1 0 841)" d="M48.2061 249.6853L526.8498 249.6853L526.8498 249.6853L526.8498 264.2823L526.8498 264.2823L48.2061 264.2823z" stroke="none" fill="#FFFFFF" fill-rule="evenodd" /><g clip-path="url(#125)"></g><g clip-path="url(#126)"></g><g clip-path="url(#127)"></g><g clip-path="url(#128)"></g><g clip-path="url(#129)"></g><g clip-path="url(#130)"></g><path id="2174" transform="matrix(1 0 0 -1 0 841)" d="M180.8826 253.4222L183.5685 253.4222L183.5685 253.4222L183.5685 253.7725L183.5685 253.7725L180.8826 253.7725z" stroke="none" fill="#800080" fill-rule="evenodd" /><g clip-path="url(#131)"></g><path id="2175" transform="matrix(1 0 0 -1 0 841)" d="M48.2061 235.0884L526.8498 235.0884L526.8498 235.0884L526.8498 249.6853L526.8498 249.6853L48.2061 249.6853z" stroke="none" fill="#FFFFFF" fill-rule="evenodd" /><g clip-path="url(#132)"></g><g clip-path="url(#133)"></g><g clip-path="url(#134)"></g><g clip-path="url(#135)"></g><g clip-path="url(#136)"></g><g clip-path="url(#137)"></g><path id="2247" transform="matrix(1 0 0 -1 0 841)" d="M359.0141 238.8252L361.6999 238.8252L361.6999 238.8252L361.6999 239.1755L361.6999 239.1755L359.0141 239.1755z" stroke="none" fill="#800080" fill-rule="evenodd" /><g clip-path="url(#138)"></g><path id="2248" transform="matrix(1 0 0 -1 0 841)" d="M48.2061 220.4622L526.8498 220.4622L526.8498 220.4622L526.8498 235.0826L526.8498 235.0826L48.2061 235.0826z" stroke="none" fill="#FFFFFF" fill-rule="evenodd" /><g clip-path="url(#139)"></g><g clip-path="url(#140)"></g><g clip-path="url(#141)"></g><g clip-path="url(#142)"></g><path id="2357" transform="matrix(1 0 0 -1 0 841)" d="M48.2061 205.8653L526.8498 205.8653L526.8498 205.8653L526.8498 220.4622L526.8498 220.4622L48.2061 220.4622z" stroke="none" fill="#FFFFFF" fill-rule="evenodd" /><g clip-path="url(#143)"></g><g clip-path="url(#144)"></g><g clip-path="url(#145)"></g><path id="2393" transform="matrix(1 0 0 -1 0 841)" d="M48.2061 191.2683L526.8498 191.2683L526.8498 191.2683L526.8498 205.8653L526.8498 205.8653L48.2061 205.8653z" stroke="none" fill="#FFFFFF" fill-rule="evenodd" /><g clip-path="url(#146)"></g><g clip-path="url(#147)"></g><g clip-path="url(#148)"></g><g clip-path="url(#149)"></g><g clip-path="url(#150)"></g><g clip-path="url(#151)"></g><g clip-path="url(#152)"></g><path id="2497" transform="matrix(1 0 0 -1 0 841)" d="M372.7936 195.0052L375.4795 195.0052L375.4795 195.0052L375.4795 195.3555L375.4795 195.3555L372.7936 195.3555z" stroke="none" fill="#800080" fill-rule="evenodd" /><g clip-path="url(#153)"></g><path id="2498" transform="matrix(1 0 0 -1 0 841)" d="M48.2061 176.6714L526.8498 176.6714L526.8498 176.6714L526.8498 191.2683L526.8498 191.2683L48.2061 191.2683z" stroke="none" fill="#FFFFFF" fill-rule="evenodd" /><g clip-path="url(#154)"></g><g clip-path="url(#155)"></g><path id="2596" transform="matrix(1 0 0 -1 0 841)" d="M48.2061 162.0744L526.8498 162.0744L526.8498 162.0744L526.8498 176.6714L526.8498 176.6714L48.2061 176.6714z" stroke="none" fill="#FFFFFF" fill-rule="evenodd" /><g clip-path="url(#156)"></g><g clip-path="url(#157)"></g><g clip-path="url(#158)"></g><path id="2624" transform="matrix(1 0 0 -1 0 841)" d="M48.2061 147.4775L526.8498 147.4775L526.8498 147.4775L526.8498 162.0744L526.8498 162.0744L48.2061 162.0744z" stroke="none" fill="#FFFFFF" fill-rule="evenodd" /><g clip-path="url(#159)"></g><g clip-path="url(#160)"></g><g clip-path="url(#161)"></g><g clip-path="url(#162)"></g><g clip-path="url(#163)"></g><path id="2727" transform="matrix(1 0 0 -1 0 841)" d="M48.2061 132.8844L526.8498 132.8844L526.8498 132.8844L526.8498 147.4814L526.8498 147.4814L48.2061 147.4814z" stroke="none" fill="#FFFFFF" fill-rule="evenodd" /><g clip-path="url(#164)"></g><g clip-path="url(#165)"></g><path id="2831" transform="matrix(1 0 0 -1 0 841)" d="M48.2061 118.2875L526.8498 118.2875L526.8498 118.2875L526.8498 132.8844L526.8498 132.8844L48.2061 132.8844z" stroke="none" fill="#FFFFFF" fill-rule="evenodd" /><g clip-path="url(#166)"></g><g clip-path="url(#167)"></g><g clip-path="url(#168)"></g></g></g></g></g></svg>