<svg xmlns="http://www.w3.org/2000/svg" xmlns:xlink="http://www.w3.org/1999/xlink" id="body_229" preserveAspectRatio="xMinYMin meet" viewBox="0 0 793 1121"><defs><clipPath id="1"><path id="" clip-rule="evenodd" transform="matrix(1 0 0 1 0 0)" d="M0 841L0 -0.8900146L0 -0.8900146L595.276 -0.8900146L595.276 -0.8900146L595.276 841L595.276 841L0 841z" /></clipPath></defs><g transform="matrix(1.333333 0 0 1.333333 0 0)"><g clip-path="url(#1)"><path id="23" transform="matrix(1 0 0 -1 0 841)" d="M85.039 766.564L510.236 766.564" stroke="#000000" stroke-width="0.498" fill="none" /><path id="39" transform="matrix(1 0 0 -1 0 841)" d="M147.559 756.651L182.378 756.651" stroke="#000000" stroke-width="0.398" fill="none" /><path id="40" transform="matrix(1 0 0 -1 0 841)" d="M147.758 739.146L147.758 756.651" stroke="#000000" stroke-width="0.398" fill="none" /><path id="41" transform="matrix(1 0 0 -1 0 841)" d="M182.179 739.146L182.179 756.651" stroke="#000000" stroke-width="0.398" fill="none" /><path id="42" transform="matrix(1 0 0 -1 0 841)" d="M147.559 739.146L182.378 739.146" stroke="#000000" stroke-width="0.398" fill="none" /><path id="130" transform="matrix(1 0 0 -1 0 841)" d="M173.011 726.763L216.678 726.763" stroke="#000000" stroke-width="0.398" fill="none" /><path id="131" transform="matrix(1 0 0 -1 0 841)" d="M173.21 709.258L173.21 726.763" stroke="#000000" stroke-width="0.398" fill="none" /><path id="132" transform="matrix(1 0 0 -1 0 841)" d="M216.479 709.258L216.479 726.763" stroke="#000000" stroke-width="0.398" fill="none" /><path id="133" transform="matrix(1 0 0 -1 0 841)" d="M173.011 709.259L216.678 709.259" stroke="#000000" stroke-width="0.398" fill="none" /><path id="336" transform="matrix(1 0 0 -1 0 841)" d="M138.653 570.8724L98.96808 590.7148L167.0057 610.978L206.686 600.6368z" stroke="none" fill="#CCCCCC" fill-rule="nonzero" /><path id="337" transform="matrix(1 0 0 -1 0 841)" d="M98.96808 590.7148L98.96808 636.0699L167.0066 644.7552L167.0057 610.978z" stroke="none" fill="#BFBFBF" fill-rule="nonzero" /><path id="346" transform="matrix(1 0 0 -1 0 841)" d="M167.0066 644.7552L167.0057 610.978L206.686 600.6368L206.686 640.3221z" stroke="none" fill="#F2F2F2" fill-rule="nonzero" fill-opacity="0.2" /><path id="355" transform="matrix(1 0 0 -1 0 841)" d="M138.653 627.566L138.653 570.8724L98.96808 590.7148L98.96808 636.0699z" stroke="none" fill="#F2F2F2" fill-rule="nonzero" fill-opacity="0.4980392" /><path id="364" transform="matrix(1 0 0 -1 0 841)" d="M138.653 627.566L98.96808 636.0699L167.0066 644.7552L206.686 640.3221z" stroke="none" fill="#CCCCCC" fill-rule="nonzero" fill-opacity="0.2" /><path id="365" transform="matrix(1 0 0 -1 0 841)" d="M167.0066 644.7552L167.0057 610.978" stroke="#000000" stroke-width="0.79701" stroke-dasharray="3.750053,3.750053" fill="none" /><path id="366" transform="matrix(1 0 0 -1 0 841)" d="M98.96808 590.7148L167.0057 610.978" stroke="#000000" stroke-width="0.79701" stroke-dasharray="3.750053,3.750053" fill="none" /><path id="367" transform="matrix(1 0 0 -1 0 841)" d="M206.686 600.6368L167.0057 610.978" stroke="#000000" stroke-width="0.79701" stroke-dasharray="3.750053,3.750053" fill="none" /><path id="376" transform="matrix(1 0 0 -1 0 841)" d="M138.653 627.566L138.653 570.8724" stroke="#000000" stroke-width="0.79701" fill="none" /><path id="377" transform="matrix(1 0 0 -1 0 841)" d="M87.62868 637.9394L87.62868 591.1136" stroke="#000000" stroke-width="0.3985" fill="none" /><path id="378" transform="matrix(1 0 0 -1 0 841)" d="M85.23764 636.0663C 86.67229 636.4449 87.34972 637.2886 87.62868 638.1386C 87.90763 637.2886 88.58507 636.4449 90.01971 636.0663" stroke="#000000" stroke-width="0.3985" stroke-linecap="round" fill="none" /><path id="379" transform="matrix(1 0 0 -1 0 841)" d="M90.01971 592.9866C 88.58507 592.608 87.90763 591.7643 87.62868 590.9143C 87.34972 591.7643 86.67229 592.608 85.23764 592.9866" stroke="#000000" stroke-width="0.3985" stroke-linecap="round" fill="none" /><path id="390" transform="matrix(1 0 0 -1 0 841)" d="M93.6488 587.6917L129.798 568.2264" stroke="#000000" stroke-width="0.3985" fill="none" /><path id="391" transform="matrix(1 0 0 -1 0 841)" d="M94.16428 584.6986C 94.51111 586.1412 94.08949 587.1376 93.47339 587.7861C 94.35398 587.6288 95.41792 587.8253 96.43137 588.9089" stroke="#000000" stroke-width="0.3984783" stroke-linecap="round" fill="none" /><path id="392" transform="matrix(1 0 0 -1 0 841)" d="M129.2825 571.2195C 128.9357 569.7769 129.3573 568.7805 129.9734 568.132C 129.0928 568.2893 128.0289 568.0928 127.0155 567.0092" stroke="#000000" stroke-width="0.3984783" stroke-linecap="round" fill="none" /><path id="403" transform="matrix(1 0 0 -1 0 841)" d="M211.9909 595.3717L144.6862 565.3654" stroke="#000000" stroke-width="0.3985" fill="none" /><path id="404" transform="matrix(1 0 0 -1 0 841)" d="M209.3067 596.7928C 210.2366 595.6367 211.283 595.3615 212.1729 595.4528C 211.5102 594.8519 211.0155 593.8897 211.2539 592.4253" stroke="#000000" stroke-width="0.3984862" stroke-linecap="round" fill="none" /><path id="405" transform="matrix(1 0 0 -1 0 841)" d="M147.3704 563.9442C 146.4405 565.1003 145.3941 565.3755 144.5042 565.2842C 145.1669 565.8851 145.6616 566.8473 145.4232 568.3117" stroke="#000000" stroke-width="0.3984862" stroke-linecap="round" fill="none" /><path id="415" transform="matrix(1 0 0 -1 0 841)" d="M98.96808 590.7148L98.96808 636.0699" stroke="#000000" stroke-width="0.79701" fill="none" /><path id="416" transform="matrix(1 0 0 -1 0 841)" d="M206.686 600.6368L206.686 640.3221" stroke="#000000" stroke-width="0.79701" fill="none" /><path id="417" transform="matrix(1 0 0 -1 0 841)" d="M138.653 627.566L98.96808 636.0699" stroke="#000000" stroke-width="0.79701" fill="none" /><path id="418" transform="matrix(1 0 0 -1 0 841)" d="M138.653 627.566L206.686 640.3221" stroke="#000000" stroke-width="0.79701" fill="none" /><path id="419" transform="matrix(1 0 0 -1 0 841)" d="M138.653 570.8724L98.96808 590.7148" stroke="#000000" stroke-width="0.79701" fill="none" /><path id="420" transform="matrix(1 0 0 -1 0 841)" d="M138.653 570.8724L206.686 600.6368" stroke="#000000" stroke-width="0.79701" fill="none" /><path id="421" transform="matrix(1 0 0 -1 0 841)" d="M98.96808 636.0699L167.0066 644.7552" stroke="#000000" stroke-width="0.79701" fill="none" /><path id="422" transform="matrix(1 0 0 -1 0 841)" d="M206.686 640.3221L167.0066 644.7552" stroke="#000000" stroke-width="0.79701" fill="none" /><path id="494" transform="matrix(1 0 0 -1 0 841)" d="M133.044 522.126L146.284 522.126" stroke="#000000" stroke-width="0.398" fill="none" /><path id="522" transform="matrix(1 0 0 -1 0 841)" d="M240.946 522.126L277.838 522.126" stroke="#000000" stroke-width="0.398" fill="none" /><path id="531" transform="matrix(1 0 0 -1 0 841)" d="M260.244 505.703L273.484 505.703" stroke="#000000" stroke-width="0.398" fill="none" /><path id="545" transform="matrix(1 0 0 -1 0 841)" d="M291.206 529.683L343.28 529.683" stroke="#000000" stroke-width="0.398" fill="none" /><path id="546" transform="matrix(1 0 0 -1 0 841)" d="M291.405 514.415L291.405 529.683" stroke="#000000" stroke-width="0.398" fill="none" /><path id="547" transform="matrix(1 0 0 -1 0 841)" d="M343.081 514.415L343.081 529.683" stroke="#000000" stroke-width="0.398" fill="none" /><path id="548" transform="matrix(1 0 0 -1 0 841)" d="M291.206 514.415L343.28 514.415" stroke="#000000" stroke-width="0.398" fill="none" /><path id="665" transform="matrix(1 0 0 -1 0 841)" d="M253.674 441.078L284.309 441.078" stroke="#000000" stroke-width="0.398" fill="none" /><path id="666" transform="matrix(1 0 0 -1 0 841)" d="M253.873 425.925L253.873 441.078" stroke="#000000" stroke-width="0.398" fill="none" /><path id="667" transform="matrix(1 0 0 -1 0 841)" d="M284.109 425.925L284.109 441.078" stroke="#000000" stroke-width="0.398" fill="none" /><path id="668" transform="matrix(1 0 0 -1 0 841)" d="M253.674 425.925L284.309 425.925" stroke="#000000" stroke-width="0.398" fill="none" /><path id="756" transform="matrix(1 0 0 -1 0 841)" d="M155.2 361.199L161.476 361.199" stroke="#000000" stroke-width="0.398" fill="none" /><path id="795" transform="matrix(1 0 0 -1 0 841)" d="M132.465 339.82L155.15 339.82" stroke="#000000" stroke-width="0.398" fill="none" /><path id="806" transform="matrix(1 0 0 -1 0 841)" d="M208.905 345.88L236.571 345.88" stroke="#000000" stroke-width="0.388" fill="none" /><path id="818" transform="matrix(1 0 0 -1 0 841)" d="M248.74 347.212L274.393 347.212" stroke="#000000" stroke-width="0.398" fill="none" /><path id="819" transform="matrix(1 0 0 -1 0 841)" d="M248.939 332.059L248.939 347.212" stroke="#000000" stroke-width="0.398" fill="none" /><path id="820" transform="matrix(1 0 0 -1 0 841)" d="M274.194 332.059L274.194 347.212" stroke="#000000" stroke-width="0.398" fill="none" /><path id="821" transform="matrix(1 0 0 -1 0 841)" d="M248.74 332.059L274.393 332.059" stroke="#000000" stroke-width="0.398" fill="none" /><path id="912" transform="matrix(1 0 0 -1 0 841)" d="M90.90784 269.988C 90.90784 274.6848 89.63864 278.4921 88.073 278.4921C 86.50735 278.4921 85.23816 274.6848 85.23816 269.988C 85.23816 265.2913 86.50735 261.4839 88.073 261.4839C 89.63864 261.4839 90.90784 265.2913 90.90784 269.988z" stroke="#000000" stroke-width="0.3985" fill="none" /><path id="913" transform="matrix(1 0 0 -1 0 841)" d="M374.3759 269.988C 374.3759 274.6848 373.1068 278.4921 371.5411 278.4921C 369.9754 278.4921 368.7062 274.6848 368.7062 269.988C 368.7062 265.2913 369.9754 261.4839 371.5411 261.4839C 373.1068 261.4839 374.3759 265.2913 374.3759 269.988z" stroke="#000000" stroke-width="0.3985" fill="none" /><path id="914" transform="matrix(1 0 0 -1 0 841)" d="M88.073 261.7676L371.5411 261.7676" stroke="#000000" stroke-width="0.3985" fill="none" /><path id="915" transform="matrix(1 0 0 -1 0 841)" d="M88.073 278.2084L371.5411 278.2084" stroke="#000000" stroke-width="0.3985" fill="none" /><path id="916" transform="matrix(1 0 0 -1 0 841)" d="M371.5411 262.4495L371.5411 277.5266" stroke="#000000" stroke-width="0.3985" fill="none" /><path id="917" transform="matrix(1 0 0 -1 0 841)" d="M373.9322 264.3224C 372.4975 263.9438 371.8201 263.1002 371.5411 262.2502C 371.2621 263.1002 370.5847 263.9438 369.1501 264.3224" stroke="#000000" stroke-width="0.3985" stroke-linecap="round" fill="none" /><path id="918" transform="matrix(1 0 0 -1 0 841)" d="M369.1501 275.6536C 370.5847 276.0321 371.2621 276.8758 371.5411 277.7258C 371.8201 276.8758 372.4975 276.0321 373.9322 275.6536" stroke="#000000" stroke-width="0.3985" stroke-linecap="round" fill="none" /><path id="930" transform="matrix(1 0 0 -1 0 841)" d="M88.4715 250.7124L371.1426 250.7124" stroke="#000000" stroke-width="0.3985" fill="none" /><path id="931" transform="matrix(1 0 0 -1 0 841)" d="M90.34449 248.3214C 89.9659 249.756 89.12224 250.4334 88.27225 250.7124C 89.12224 250.9913 89.9659 251.6688 90.34449 253.1034" stroke="#000000" stroke-width="0.3985" stroke-linecap="round" fill="none" /><path id="932" transform="matrix(1 0 0 -1 0 841)" d="M369.2696 253.1034C 369.6482 251.6688 370.4919 250.9913 371.3418 250.7124C 370.4919 250.4334 369.6482 249.756 369.2696 248.3214" stroke="#000000" stroke-width="0.3985" stroke-linecap="round" fill="none" /><path id="952" transform="matrix(1 0 0 -1 0 841)" d="M484.104 237.451L490.38 237.451" stroke="#000000" stroke-width="0.398" fill="none" /><path id="967" transform="matrix(1 0 0 -1 0 841)" d="M140.354 207.513L150.317 207.513" stroke="#000000" stroke-width="0.398" fill="none" /><path id="993" transform="matrix(1 0 0 -1 0 841)" d="M224.085 207.513L254.441 207.513" stroke="#000000" stroke-width="0.398" fill="none" /><path id="1010" transform="matrix(1 0 0 -1 0 841)" d="M267.804 215.07L324.859 215.07" stroke="#000000" stroke-width="0.398" fill="none" /><path id="1011" transform="matrix(1 0 0 -1 0 841)" d="M268.004 199.802L268.004 215.07" stroke="#000000" stroke-width="0.398" fill="none" /><path id="1012" transform="matrix(1 0 0 -1 0 841)" d="M324.66 199.802L324.66 215.07" stroke="#000000" stroke-width="0.398" fill="none" /><path id="1013" transform="matrix(1 0 0 -1 0 841)" d="M267.804 199.802L324.859 199.802" stroke="#000000" stroke-width="0.398" fill="none" /></g></g></svg>