<svg xmlns="http://www.w3.org/2000/svg" xmlns:xlink="http://www.w3.org/1999/xlink" id="body_89" preserveAspectRatio="xMinYMin meet" viewBox="0 0 793 1121"><defs><clipPath id="1"><path id="" clip-rule="evenodd" transform="matrix(1 0 0 1 0 0)" d="M0 841L0 -0.8900146L0 -0.8900146L595.276 -0.8900146L595.276 -0.8900146L595.276 841L595.276 841L0 841z" /></clipPath></defs><g transform="matrix(1.333333 0 0 1.333333 0 0)"><g clip-path="url(#1)"><path id="29" transform="matrix(1 0 0 -1 0 841)" d="M85.039 766.564L510.236 766.564" stroke="#000000" stroke-width="0.498" fill="none" /><path id="30" transform="matrix(1 0 0 -1 0 841)" d="M112.063 742.529L127.505 742.529L127.505 753.737L112.063 753.737z" stroke="none" fill="#FFF100" fill-rule="nonzero" /><path id="34" transform="matrix(1 0 0 -1 0 841)" d="M127.361 742.529L129.851 742.529L129.851 753.737L127.361 753.737z" stroke="none" fill="#FFF100" fill-rule="nonzero" /><path id="35" transform="matrix(1 0 0 -1 0 841)" d="M129.602 742.529L145.044 742.529L145.044 753.737L129.602 753.737z" stroke="none" fill="#FFF100" fill-rule="nonzero" /><path id="40" transform="matrix(1 0 0 -1 0 841)" d="M144.899 742.529L147.389 742.529L147.389 753.737L144.899 753.737z" stroke="none" fill="#FFF100" fill-rule="nonzero" /><path id="41" transform="matrix(1 0 0 -1 0 841)" d="M147.14 742.529L158.706 742.529L158.706 753.737L147.14 753.737z" stroke="none" fill="#FFF100" fill-rule="nonzero" /><path id="45" transform="matrix(1 0 0 -1 0 841)" d="M158.286 742.529L172.622 742.529L172.622 753.737L158.286 753.737z" stroke="none" fill="#FFF100" fill-rule="nonzero" /><path id="50" transform="matrix(1 0 0 -1 0 841)" d="M172.469 742.529L174.959 742.529L174.959 753.737L172.469 753.737z" stroke="none" fill="#FFF100" fill-rule="nonzero" /><path id="51" transform="matrix(1 0 0 -1 0 841)" d="M174.71 742.529L189.594 742.529L189.594 753.737L174.71 753.737z" stroke="none" fill="#FFF100" fill-rule="nonzero" /><path id="55" transform="matrix(1 0 0 -1 0 841)" d="M189.446 742.529L191.936 742.529L191.936 753.737L189.446 753.737z" stroke="none" fill="#FFF100" fill-rule="nonzero" /><path id="56" transform="matrix(1 0 0 -1 0 841)" d="M191.687 742.529L209.341 742.529L209.341 753.737L191.687 753.737z" stroke="none" fill="#FFF100" fill-rule="nonzero" /><path id="60" transform="matrix(1 0 0 -1 0 841)" d="M208.963 742.529L229.934 742.529L229.934 753.737L208.963 753.737z" stroke="none" fill="#FFF100" fill-rule="nonzero" /><path id="66" transform="matrix(1 0 0 -1 0 841)" d="M229.828 742.529L232.318 742.529L232.318 753.737L229.828 753.737z" stroke="none" fill="#FFF100" fill-rule="nonzero" /><path id="67" transform="matrix(1 0 0 -1 0 841)" d="M232.069 742.529L249.722 742.529L249.722 753.737L232.069 753.737z" stroke="none" fill="#FFF100" fill-rule="nonzero" /></g></g></svg>