<svg xmlns="http://www.w3.org/2000/svg" xmlns:xlink="http://www.w3.org/1999/xlink" id="body_133" preserveAspectRatio="xMinYMin meet" viewBox="0 0 793 1121"><defs><clipPath id="1"><path id="" clip-rule="evenodd" transform="matrix(1 0 0 1 0 0)" d="M0 841L0 -0.8900146L0 -0.8900146L595.276 -0.8900146L595.276 -0.8900146L595.276 841L595.276 841L0 841z" /></clipPath></defs><g transform="matrix(1.333333 0 0 1.333333 0 0)"><g clip-path="url(#1)"><path id="37" transform="matrix(1 0 0 -1 0 841)" d="M85.039 766.564L510.236 766.564" stroke="#000000" stroke-width="0.498" fill="none" /><path id="420" transform="matrix(1 0 0 -1 0 841)" d="M136.312 612.761L510.236 612.761L510.236 625.593L136.312 625.593z" stroke="none" fill="#E1EBEB" fill-rule="nonzero" /><path id="630" transform="matrix(1 0 0 -1 0 841)" d="M136.312 546.131L510.236 546.131L510.236 558.963L136.312 558.963z" stroke="none" fill="#E1EBEB" fill-rule="nonzero" /><path id="824" transform="matrix(1 0 0 -1 0 841)" d="M136.312 479.501L510.236 479.501L510.236 492.333L136.312 492.333z" stroke="none" fill="#E1EBEB" fill-rule="nonzero" /><path id="2116" transform="matrix(1 0 0 -1 0 841)" d="M278.021 91.376L445.989 91.376" stroke="#000000" stroke-width="0.398" fill="none" /></g></g></svg>