<svg xmlns="http://www.w3.org/2000/svg" xmlns:xlink="http://www.w3.org/1999/xlink" id="body_363" preserveAspectRatio="xMinYMin meet" viewBox="0 0 793 1121"><defs><clipPath id="1"><path id="" clip-rule="evenodd" transform="matrix(1 0 0 1 0 0)" d="M0 841L0 -0.8900146L0 -0.8900146L595.276 -0.8900146L595.276 -0.8900146L595.276 841L595.276 841L0 841z" /></clipPath></defs><g transform="matrix(1.333333 0 0 1.333333 0 0)"><g clip-path="url(#1)"><path id="23" transform="matrix(1 0 0 -1 0 841)" d="M85.039 766.564L510.236 766.564" stroke="#000000" stroke-width="0.498" fill="none" /><path id="27" transform="matrix(1 0 0 -1 0 841)" d="M113.508 732.916L127.894 732.916" stroke="#000000" stroke-width="0.398" fill="none" /><path id="38" transform="matrix(1 0 0 -1 0 841)" d="M161.58 732.916L177.63 732.916" stroke="#000000" stroke-width="0.398" fill="none" /><path id="58" transform="matrix(1 0 0 -1 0 841)" d="M243.11 732.916L255.842 732.916" stroke="#000000" stroke-width="0.398" fill="none" /><path id="82" transform="matrix(1 0 0 -1 0 841)" d="M367.38 732.916L380.112 732.916" stroke="#000000" stroke-width="0.398" fill="none" /><path id="88" transform="matrix(1 0 0 -1 0 841)" d="M418.436 745.792L432.822 745.792" stroke="#000000" stroke-width="0.398" fill="none" /><path id="92" transform="matrix(1 0 0 -1 0 841)" d="M393.565 732.916L457.692 732.916" stroke="#000000" stroke-width="0.398" fill="none" /><path id="99" transform="matrix(1 0 0 -1 0 841)" d="M414.995 720.603L431.045 720.603" stroke="#000000" stroke-width="0.398" fill="none" /><path id="123" transform="matrix(1 0 0 -1 0 841)" d="M519.021 732.916L531.753 732.916" stroke="#000000" stroke-width="0.398" fill="none" /><path id="131" transform="matrix(1 0 0 -1 0 841)" d="M139.604 691.397L153.99 691.397" stroke="#000000" stroke-width="0.398" fill="none" /><path id="135" transform="matrix(1 0 0 -1 0 841)" d="M113.508 678.521L170.123 678.521" stroke="#000000" stroke-width="0.398" fill="none" /><path id="141" transform="matrix(1 0 0 -1 0 841)" d="M127.425 666.207L143.475 666.207" stroke="#000000" stroke-width="0.398" fill="none" /><path id="154" transform="matrix(1 0 0 -1 0 841)" d="M193.051 678.521L205.783 678.521" stroke="#000000" stroke-width="0.398" fill="none" /><path id="156" transform="matrix(1 0 0 -1 0 841)" d="M183.487 690.496L210.366 690.496" stroke="#000000" stroke-width="0.398" fill="none" /><path id="157" transform="matrix(1 0 0 -1 0 841)" d="M183.686 666.008L183.686 690.496" stroke="#000000" stroke-width="0.398" fill="none" /><path id="158" transform="matrix(1 0 0 -1 0 841)" d="M210.167 666.008L210.167 690.496" stroke="#000000" stroke-width="0.398" fill="none" /><path id="159" transform="matrix(1 0 0 -1 0 841)" d="M183.487 666.008L210.366 666.008" stroke="#000000" stroke-width="0.398" fill="none" /><path id="171" transform="matrix(1 0 0 -1 0 841)" d="M354.3337 587.5434C 354.3337 611.027 335.297 630.0636 311.8135 630.0636C 288.3299 630.0636 269.2933 611.027 269.2933 587.5434C 269.2933 564.0598 288.3299 545.0232 311.8135 545.0232C 335.297 545.0232 354.3337 564.0598 354.3337 587.5434z" stroke="#000000" stroke-width="0.3985" fill="#F2F2F2" fill-rule="nonzero" /><path id="172" transform="matrix(1 0 0 -1 0 841)" d="M269.2932 587.5434L354.3337 587.5434" stroke="#000000" stroke-width="1.19553" fill="none" /><path id="201" transform="matrix(1 0 0 -1 0 841)" d="M289.1359 550.6924L311.8135 587.5434" stroke="#000000" stroke-width="1.19553" fill="none" /><path id="202" transform="matrix(1 0 0 -1 0 841)" d="M334.491 550.6924L311.8135 587.5434" stroke="#000000" stroke-width="1.19553" fill="none" /><path id="206" transform="matrix(1 0 0 -1 0 841)" d="M113.508 466.627L127.894 466.627" stroke="#000000" stroke-width="0.398" fill="none" /><path id="217" transform="matrix(1 0 0 -1 0 841)" d="M161.58 466.627L177.63 466.627" stroke="#000000" stroke-width="0.398" fill="none" /><path id="237" transform="matrix(1 0 0 -1 0 841)" d="M243.11 466.627L255.842 466.627" stroke="#000000" stroke-width="0.398" fill="none" /><path id="261" transform="matrix(1 0 0 -1 0 841)" d="M367.38 466.627L380.112 466.627" stroke="#000000" stroke-width="0.398" fill="none" /><path id="267" transform="matrix(1 0 0 -1 0 841)" d="M418.436 479.503L432.822 479.503" stroke="#000000" stroke-width="0.398" fill="none" /><path id="271" transform="matrix(1 0 0 -1 0 841)" d="M393.565 466.627L457.692 466.627" stroke="#000000" stroke-width="0.398" fill="none" /><path id="278" transform="matrix(1 0 0 -1 0 841)" d="M414.995 454.313L431.045 454.313" stroke="#000000" stroke-width="0.398" fill="none" /><path id="302" transform="matrix(1 0 0 -1 0 841)" d="M519.021 466.627L531.753 466.627" stroke="#000000" stroke-width="0.398" fill="none" /><path id="309" transform="matrix(1 0 0 -1 0 841)" d="M207.339 425.108L221.725 425.108" stroke="#000000" stroke-width="0.398" fill="none" /><path id="313" transform="matrix(1 0 0 -1 0 841)" d="M113.508 412.232L310.576 412.232" stroke="#000000" stroke-width="0.398" fill="none" /><path id="333" transform="matrix(1 0 0 -1 0 841)" d="M156.338 395.893L187.331 395.893" stroke="#000000" stroke-width="0.398" fill="none" /><path id="340" transform="matrix(1 0 0 -1 0 841)" d="M197.471 395.893L276.048 395.893" stroke="#000000" stroke-width="0.398" fill="none" /><path id="371" transform="matrix(1 0 0 -1 0 841)" d="M333.504 412.232L346.236 412.232" stroke="#000000" stroke-width="0.398" fill="none" /><path id="373" transform="matrix(1 0 0 -1 0 841)" d="M323.94 424.207L350.819 424.207" stroke="#000000" stroke-width="0.398" fill="none" /><path id="374" transform="matrix(1 0 0 -1 0 841)" d="M324.139 399.718L324.139 424.206" stroke="#000000" stroke-width="0.398" fill="none" /><path id="375" transform="matrix(1 0 0 -1 0 841)" d="M350.62 399.718L350.62 424.206" stroke="#000000" stroke-width="0.398" fill="none" /><path id="376" transform="matrix(1 0 0 -1 0 841)" d="M323.94 399.718L350.819 399.718" stroke="#000000" stroke-width="0.398" fill="none" /><path id="388" transform="matrix(1 0 0 -1 0 841)" d="M354.3337 313.7664C 354.3337 337.25 335.297 356.2866 311.8135 356.2866C 288.3299 356.2866 269.2933 337.25 269.2933 313.7664C 269.2933 290.2828 288.3299 271.2462 311.8135 271.2462C 335.297 271.2462 354.3337 290.2828 354.3337 313.7664z" stroke="#000000" stroke-width="0.3985" fill="#F2F2F2" fill-rule="nonzero" /><path id="389" transform="matrix(1 0 0 -1 0 841)" d="M269.2932 313.7664L354.3337 313.7664" stroke="#000000" stroke-width="1.19553" fill="none" /><path id="416" transform="matrix(1 0 0 -1 0 841)" d="M289.1359 276.9155L311.8135 313.7664" stroke="#000000" stroke-width="1.19553" fill="none" /><path id="417" transform="matrix(1 0 0 -1 0 841)" d="M334.491 276.9155L311.8135 313.7664" stroke="#000000" stroke-width="1.19553" fill="none" /><path id="421" transform="matrix(1 0 0 -1 0 841)" d="M113.508 205.428L127.894 205.428" stroke="#000000" stroke-width="0.398" fill="none" /><path id="432" transform="matrix(1 0 0 -1 0 841)" d="M162.687 205.428L178.737 205.428" stroke="#000000" stroke-width="0.398" fill="none" /><path id="452" transform="matrix(1 0 0 -1 0 841)" d="M245.324 205.428L258.056 205.428" stroke="#000000" stroke-width="0.398" fill="none" /><path id="467" transform="matrix(1 0 0 -1 0 841)" d="M156.426 163.346L172.476 163.346" stroke="#000000" stroke-width="0.398" fill="none" /><path id="475" transform="matrix(1 0 0 -1 0 841)" d="M228.354 176.222L242.74 176.222" stroke="#000000" stroke-width="0.398" fill="none" /><path id="479" transform="matrix(1 0 0 -1 0 841)" d="M187.036 163.346L284.059 163.346" stroke="#000000" stroke-width="0.398" fill="none" /><path id="495" transform="matrix(1 0 0 -1 0 841)" d="M244.679 153.164L257.411 153.164" stroke="#000000" stroke-width="0.398" fill="none" /><path id="507" transform="matrix(1 0 0 -1 0 841)" d="M319.185 176.222L333.571 176.222" stroke="#000000" stroke-width="0.398" fill="none" /><path id="511" transform="matrix(1 0 0 -1 0 841)" d="M298.618 163.346L349.156 163.346" stroke="#000000" stroke-width="0.398" fill="none" /><path id="516" transform="matrix(1 0 0 -1 0 841)" d="M309.776 153.164L322.508 153.164" stroke="#000000" stroke-width="0.398" fill="none" /><path id="534" transform="matrix(1 0 0 -1 0 841)" d="M401.345 163.346L417.395 163.346" stroke="#000000" stroke-width="0.398" fill="none" /><path id="548" transform="matrix(1 0 0 -1 0 841)" d="M151.136 126.116L167.186 126.116" stroke="#000000" stroke-width="0.398" fill="none" /><path id="569" transform="matrix(1 0 0 -1 0 841)" d="M177.326 126.116L255.903 126.116" stroke="#000000" stroke-width="0.398" fill="none" /><path id="586" transform="matrix(1 0 0 -1 0 841)" d="M269.267 133.617L340.789 133.617" stroke="#000000" stroke-width="0.398" fill="none" /><path id="587" transform="matrix(1 0 0 -1 0 841)" d="M269.466 118.504L269.466 133.617" stroke="#000000" stroke-width="0.398" fill="none" /><path id="588" transform="matrix(1 0 0 -1 0 841)" d="M340.59 118.504L340.59 133.617" stroke="#000000" stroke-width="0.398" fill="none" /><path id="589" transform="matrix(1 0 0 -1 0 841)" d="M269.267 118.504L340.789 118.504" stroke="#000000" stroke-width="0.398" fill="none" /><path id="631" transform="matrix(1 0 0 -1 0 841)" d="M256.093 88.885L268.825 88.885" stroke="#000000" stroke-width="0.398" fill="none" /><g transform="matrix(0.2 0 0 0.2 249.239 774.845)"><g transform="matrix(1 0 0 1 0 0)"><image x="0" y="0" xlink:href="img_04.png" width="484" height="104" /></g></g></g></g></svg>