<svg xmlns="http://www.w3.org/2000/svg" xmlns:xlink="http://www.w3.org/1999/xlink" id="body_4" preserveAspectRatio="xMinYMin meet" viewBox="0 0 793 1121"><defs><clipPath id="1"><path id="" clip-rule="evenodd" transform="matrix(1 0 0 1 0 0)" d="M0 841L0 -0.8900146L0 -0.8900146L595.276 -0.8900146L595.276 -0.8900146L595.276 841L595.276 841L0 841z" /></clipPath></defs><g transform="matrix(1.333333 0 0 1.333333 0 0)"><g clip-path="url(#1)"><path id="31" transform="matrix(1 0 0 -1 0 841)" d="M85.039 766.564L510.236 766.564" stroke="#000000" stroke-width="0.498" fill="none" /><path id="1060" transform="matrix(1 0 0 -1 0 841)" d="M335.996 420.416L346.792 420.416L346.792 432.689L335.996 432.689z" stroke="none" fill="#FFF100" fill-rule="nonzero" /><path id="1063" transform="matrix(1 0 0 -1 0 841)" d="M346.5 420.416L370.027 420.416L370.027 432.689L346.5 432.689z" stroke="none" fill="#FFF100" fill-rule="nonzero" /><path id="1069" transform="matrix(1 0 0 -1 0 841)" d="M369.99 420.416L373.521 420.416L373.521 432.689L369.99 432.689z" stroke="none" fill="#FFF100" fill-rule="nonzero" /><path id="1071" transform="matrix(1 0 0 -1 0 841)" d="M373.083 420.416L383.268 420.416L383.268 432.689L373.083 432.689z" stroke="none" fill="#FFF100" fill-rule="nonzero" /><path id="1074" transform="matrix(1 0 0 -1 0 841)" d="M382.964 420.416L400.436 420.416L400.436 432.689L382.964 432.689z" stroke="none" fill="#FFF100" fill-rule="nonzero" /></g></g></svg>