<svg xmlns="http://www.w3.org/2000/svg" xmlns:xlink="http://www.w3.org/1999/xlink" id="body_36" preserveAspectRatio="xMinYMin meet" viewBox="0 0 793 1121"><defs><clipPath id="1"><path id="" clip-rule="evenodd" transform="matrix(1 0 0 1 0 0)" d="M0 841L0 -0.8900146L0 -0.8900146L595.276 -0.8900146L595.276 -0.8900146L595.276 841L595.276 841L0 841z" /></clipPath></defs><g transform="matrix(1.333333 0 0 1.333333 0 0)"><g clip-path="url(#1)"><path id="39" transform="matrix(1 0 0 -1 0 841)" d="M85.039 766.564L510.236 766.564" stroke="#000000" stroke-width="0.498" fill="none" /><path id="785" transform="matrix(1 0 0 -1 0 841)" d="M84.79 391.93L98.619 391.93L98.619 404.203L84.79 404.203z" stroke="none" fill="#FFF100" fill-rule="nonzero" /><path id="788" transform="matrix(1 0 0 -1 0 841)" d="M98.637 391.93L101.879 391.93L101.879 404.203L98.637 404.203z" stroke="none" fill="#FFF100" fill-rule="nonzero" /><path id="789" transform="matrix(1 0 0 -1 0 841)" d="M101.63 391.93L109.404 391.93L109.404 404.203L101.63 404.203z" stroke="none" fill="#FFF100" fill-rule="nonzero" /><path id="792" transform="matrix(1 0 0 -1 0 841)" d="M109.301 391.93L112.543 391.93L112.543 404.203L109.301 404.203z" stroke="none" fill="#FFF100" fill-rule="nonzero" /><path id="793" transform="matrix(1 0 0 -1 0 841)" d="M112.294 391.93L117.636 391.93L117.636 404.203L112.294 404.203z" stroke="none" fill="#FFF100" fill-rule="nonzero" /><path id="795" transform="matrix(1 0 0 -1 0 841)" d="M117.484 391.93L120.726 391.93L120.726 404.203L117.484 404.203z" stroke="none" fill="#FFF100" fill-rule="nonzero" /><path id="796" transform="matrix(1 0 0 -1 0 841)" d="M120.477 391.93L139.149 391.93L139.149 404.203L120.477 404.203z" stroke="none" fill="#FFF100" fill-rule="nonzero" /><path id="800" transform="matrix(1 0 0 -1 0 841)" d="M139.015 391.93L157.687 391.93L157.687 404.203L139.015 404.203z" stroke="none" fill="#FFF100" fill-rule="nonzero" /><path id="805" transform="matrix(1 0 0 -1 0 841)" d="M157.802 391.93L161.044 391.93L161.044 404.203L157.802 404.203z" stroke="none" fill="#FFF100" fill-rule="nonzero" /><path id="806" transform="matrix(1 0 0 -1 0 841)" d="M160.795 391.93L170.38 391.93L170.38 404.203L160.795 404.203z" stroke="none" fill="#FFF100" fill-rule="nonzero" /><path id="809" transform="matrix(1 0 0 -1 0 841)" d="M170.313 391.93L173.555 391.93L173.555 404.203L170.313 404.203z" stroke="none" fill="#FFF100" fill-rule="nonzero" /><path id="810" transform="matrix(1 0 0 -1 0 841)" d="M173.306 391.93L187.135 391.93L187.135 404.203L173.306 404.203z" stroke="none" fill="#FFF100" fill-rule="nonzero" /><path id="814" transform="matrix(1 0 0 -1 0 841)" d="M187.153 391.93L190.395 391.93L190.395 404.203L187.153 404.203z" stroke="none" fill="#FFF100" fill-rule="nonzero" /><path id="815" transform="matrix(1 0 0 -1 0 841)" d="M190.146 391.93L201.499 391.93L201.499 404.203L190.146 404.203z" stroke="none" fill="#FFF100" fill-rule="nonzero" /><path id="818" transform="matrix(1 0 0 -1 0 841)" d="M201.219 391.93L216.259 391.93L216.259 404.203L201.219 404.203z" stroke="none" fill="#FFF100" fill-rule="nonzero" /><path id="822" transform="matrix(1 0 0 -1 0 841)" d="M216.052 391.93L232.303 391.93L232.303 404.203L216.052 404.203z" stroke="none" fill="#FFF100" fill-rule="nonzero" /><path id="826" transform="matrix(1 0 0 -1 0 841)" d="M232.368 391.93L235.61 391.93L235.61 404.203L232.368 404.203z" stroke="none" fill="#FFF100" fill-rule="nonzero" /><path id="827" transform="matrix(1 0 0 -1 0 841)" d="M235.362 391.93L249.802 391.93L249.802 404.203L235.362 404.203z" stroke="none" fill="#FFF100" fill-rule="nonzero" /><path id="831" transform="matrix(1 0 0 -1 0 841)" d="M249.831 391.93L253.073 391.93L253.073 404.203L249.831 404.203z" stroke="none" fill="#FFF100" fill-rule="nonzero" /><path id="832" transform="matrix(1 0 0 -1 0 841)" d="M252.825 391.93L275.156 391.93L275.156 404.203L252.825 404.203z" stroke="none" fill="#FFF100" fill-rule="nonzero" /><path id="837" transform="matrix(1 0 0 -1 0 841)" d="M275.209 391.93L278.451 391.93L278.451 404.203L275.209 404.203z" stroke="none" fill="#FFF100" fill-rule="nonzero" /><path id="838" transform="matrix(1 0 0 -1 0 841)" d="M278.202 391.93L294.453 391.93L294.453 404.203L278.202 404.203z" stroke="none" fill="#FFF100" fill-rule="nonzero" /><path id="842" transform="matrix(1 0 0 -1 0 841)" d="M294.27 391.93L311.131 391.93L311.131 404.203L294.27 404.203z" stroke="none" fill="#FFF100" fill-rule="nonzero" /><path id="847" transform="matrix(1 0 0 -1 0 841)" d="M311.21 391.93L314.452 391.93L314.452 404.203L311.21 404.203z" stroke="none" fill="#FFF100" fill-rule="nonzero" /><path id="848" transform="matrix(1 0 0 -1 0 841)" d="M314.203 391.93L323.788 391.93L323.788 404.203L314.203 404.203z" stroke="none" fill="#FFF100" fill-rule="nonzero" /><path id="851" transform="matrix(1 0 0 -1 0 841)" d="M323.721 391.93L326.963 391.93L326.963 404.203L323.721 404.203z" stroke="none" fill="#FFF100" fill-rule="nonzero" /><path id="852" transform="matrix(1 0 0 -1 0 841)" d="M326.714 391.93L340.543 391.93L340.543 404.203L326.714 404.203z" stroke="none" fill="#FFF100" fill-rule="nonzero" /><path id="856" transform="matrix(1 0 0 -1 0 841)" d="M340.561 391.93L343.803 391.93L343.803 404.203L340.561 404.203z" stroke="none" fill="#FFF100" fill-rule="nonzero" /><path id="857" transform="matrix(1 0 0 -1 0 841)" d="M343.554 391.93L362.226 391.93L362.226 404.203L343.554 404.203z" stroke="none" fill="#FFF100" fill-rule="nonzero" /><path id="862" transform="matrix(1 0 0 -1 0 841)" d="M362.092 391.93L374.11 391.93L374.11 404.203L362.092 404.203z" stroke="none" fill="#FFF100" fill-rule="nonzero" /><path id="866" transform="matrix(1 0 0 -1 0 841)" d="M374.091 391.93L377.333 391.93L377.333 404.203L374.091 404.203z" stroke="none" fill="#FFF100" fill-rule="nonzero" /><path id="867" transform="matrix(1 0 0 -1 0 841)" d="M377.085 391.93L386.67 391.93L386.67 404.203L377.085 404.203z" stroke="none" fill="#FFF100" fill-rule="nonzero" /><path id="870" transform="matrix(1 0 0 -1 0 841)" d="M386.603 391.93L389.845 391.93L389.845 404.203L386.603 404.203z" stroke="none" fill="#FFF100" fill-rule="nonzero" /><path id="871" transform="matrix(1 0 0 -1 0 841)" d="M389.596 391.93L400.392 391.93L400.392 404.203L389.596 404.203z" stroke="none" fill="#FFF100" fill-rule="nonzero" /><path id="874" transform="matrix(1 0 0 -1 0 841)" d="M400.1 391.93L412.718 391.93L412.718 404.203L400.1 404.203z" stroke="none" fill="#FFF100" fill-rule="nonzero" /><path id="878" transform="matrix(1 0 0 -1 0 841)" d="M412.462 391.93L424.48 391.93L424.48 404.203L412.462 404.203z" stroke="none" fill="#FFF100" fill-rule="nonzero" /><path id="882" transform="matrix(1 0 0 -1 0 841)" d="M424.461 391.93L427.703 391.93L427.703 404.203L424.461 404.203z" stroke="none" fill="#FFF100" fill-rule="nonzero" /><path id="883" transform="matrix(1 0 0 -1 0 841)" d="M427.455 391.93L437.04 391.93L437.04 404.203L427.455 404.203z" stroke="none" fill="#FFF100" fill-rule="nonzero" /><path id="886" transform="matrix(1 0 0 -1 0 841)" d="M436.973 391.93L440.215 391.93L440.215 404.203L436.973 404.203z" stroke="none" fill="#FFF100" fill-rule="nonzero" /><path id="887" transform="matrix(1 0 0 -1 0 841)" d="M439.966 391.93L445.308 391.93L445.308 404.203L439.966 404.203z" stroke="none" fill="#FFF100" fill-rule="nonzero" /><path id="889" transform="matrix(1 0 0 -1 0 841)" d="M445.156 391.93L448.398 391.93L448.398 404.203L445.156 404.203z" stroke="none" fill="#FFF100" fill-rule="nonzero" /><path id="890" transform="matrix(1 0 0 -1 0 841)" d="M448.149 391.93L458.345 391.93L458.345 404.203L448.149 404.203z" stroke="none" fill="#FFF100" fill-rule="nonzero" /><path id="893" transform="matrix(1 0 0 -1 0 841)" d="M458.041 391.93L467.026 391.93L467.026 404.203L458.041 404.203z" stroke="none" fill="#FFF100" fill-rule="nonzero" /><path id="896" transform="matrix(1 0 0 -1 0 841)" d="M466.698 391.93L486.898 391.93L486.898 404.203L466.698 404.203z" stroke="none" fill="#FFF100" fill-rule="nonzero" /></g></g></svg>