<svg xmlns="http://www.w3.org/2000/svg" xmlns:xlink="http://www.w3.org/1999/xlink" id="body_27" preserveAspectRatio="xMinYMin meet" viewBox="0 0 793 1121"><defs><clipPath id="1"><path id="" clip-rule="evenodd" transform="matrix(1 0 0 1 0 0)" d="M0 841L0 -0.8900146L0 -0.8900146L595.276 -0.8900146L595.276 -0.8900146L595.276 841L595.276 841L0 841z" /></clipPath></defs><g transform="matrix(1.333333 0 0 1.333333 0 0)"><g clip-path="url(#1)"><path id="41" transform="matrix(1 0 0 -1 0 841)" d="M85.039 766.564L510.236 766.564" stroke="#000000" stroke-width="0.498" fill="none" /><path id="117" transform="matrix(1 0 0 -1 0 841)" d="M123.877 725.273L140.739 725.273L140.739 737.546L123.877 737.546z" stroke="none" fill="#FFF100" fill-rule="nonzero" /><path id="121" transform="matrix(1 0 0 -1 0 841)" d="M140.241 725.273L145.583 725.273L145.583 737.546L140.241 737.546z" stroke="none" fill="#FFF100" fill-rule="nonzero" /><path id="123" transform="matrix(1 0 0 -1 0 841)" d="M145.084 725.273L167.389 725.273L167.389 737.546L145.084 737.546z" stroke="none" fill="#FFF100" fill-rule="nonzero" /><path id="129" transform="matrix(1 0 0 -1 0 841)" d="M167.14 725.273L169.867 725.273L169.867 737.546L167.14 737.546z" stroke="none" fill="#FFF100" fill-rule="nonzero" /><path id="130" transform="matrix(1 0 0 -1 0 841)" d="M169.619 725.273L185.881 725.273L185.881 737.546L169.619 737.546z" stroke="none" fill="#FFF100" fill-rule="nonzero" /><path id="134" transform="matrix(1 0 0 -1 0 841)" d="M185.382 725.273L202.243 725.273L202.243 737.546L185.382 737.546z" stroke="none" fill="#FFF100" fill-rule="nonzero" /><g transform="matrix(0.3375 0 0 0.3374999 108.445 190.274)"><g transform="matrix(1 0 0 1 0 0)"><image x="0" y="0" xlink:href="img_39.png" width="542" height="428" /></g></g><g transform="matrix(0.3375 0 0 0.3375 325.169 194.999)"><g transform="matrix(1 0 0 1 0 0)"><image x="0" y="0" xlink:href="img_40.png" width="479" height="414" /></g></g><path id="619" transform="matrix(1 0 0 -1 0 841)" d="M136.063 351L151.103 351L151.103 363.273L136.063 363.273z" stroke="none" fill="#FFF100" fill-rule="nonzero" /><path id="623" transform="matrix(1 0 0 -1 0 841)" d="M150.896 351L165.947 351L165.947 363.273L150.896 363.273z" stroke="none" fill="#FFF100" fill-rule="nonzero" /><path id="627" transform="matrix(1 0 0 -1 0 841)" d="M165.739 351L169.27 351L169.27 363.273L165.739 363.273z" stroke="none" fill="#FFF100" fill-rule="nonzero" /><path id="629" transform="matrix(1 0 0 -1 0 841)" d="M168.832 351L188.715 351L188.715 363.273L168.832 363.273z" stroke="none" fill="#FFF100" fill-rule="nonzero" /><path id="751" transform="matrix(1 0 0 -1 0 841)" d="M136.063 317.127L149.292 317.127L149.292 329.4L136.063 329.4z" stroke="none" fill="#FFF100" fill-rule="nonzero" /><path id="755" transform="matrix(1 0 0 -1 0 841)" d="M148.947 317.127L171.863 317.127L171.863 329.4L148.947 329.4z" stroke="none" fill="#FFF100" fill-rule="nonzero" /><path id="884" transform="matrix(1 0 0 -1 0 841)" d="M136.063 283.254L152.314 283.254L152.314 295.527L136.063 295.527z" stroke="none" fill="#FFF100" fill-rule="nonzero" /><path id="888" transform="matrix(1 0 0 -1 0 841)" d="M152.005 283.254L182.798 283.254L182.798 295.527L152.005 295.527z" stroke="none" fill="#FFF100" fill-rule="nonzero" /><path id="1010" transform="matrix(1 0 0 -1 0 841)" d="M136.063 249.382L150.939 249.382L150.939 261.655L136.063 261.655z" stroke="none" fill="#FFF100" fill-rule="nonzero" /><path id="1014" transform="matrix(1 0 0 -1 0 841)" d="M150.668 249.382L171.162 249.382L171.162 261.655L150.668 261.655z" stroke="none" fill="#FFF100" fill-rule="nonzero" /><path id="1020" transform="matrix(1 0 0 -1 0 841)" d="M171.213 249.382L173.896 249.382L173.896 261.655L171.213 261.655z" stroke="none" fill="#FFF100" fill-rule="nonzero" /><path id="1021" transform="matrix(1 0 0 -1 0 841)" d="M173.647 249.382L183.232 249.382L183.232 261.655L173.647 261.655z" stroke="none" fill="#FFF100" fill-rule="nonzero" /><path id="1024" transform="matrix(1 0 0 -1 0 841)" d="M183.12 249.382L185.803 249.382L185.803 261.655L183.12 261.655z" stroke="none" fill="#FFF100" fill-rule="nonzero" /><path id="1025" transform="matrix(1 0 0 -1 0 841)" d="M185.553 249.382L199.382 249.382L199.382 261.655L185.553 261.655z" stroke="none" fill="#FFF100" fill-rule="nonzero" /><path id="1028" transform="matrix(1 0 0 -1 0 841)" d="M199.084 249.382L230.204 249.382L230.204 261.655L199.084 261.655z" stroke="none" fill="#FFF100" fill-rule="nonzero" /><path id="1035" transform="matrix(1 0 0 -1 0 841)" d="M230.418 249.382L233.101 249.382L233.101 261.655L230.418 261.655z" stroke="none" fill="#FFF100" fill-rule="nonzero" /><path id="1036" transform="matrix(1 0 0 -1 0 841)" d="M232.852 249.382L255.986 249.382L255.986 261.655L232.852 261.655z" stroke="none" fill="#FFF100" fill-rule="nonzero" /><path id="1042" transform="matrix(1 0 0 -1 0 841)" d="M255.833 249.382L278.149 249.382L278.149 261.655L255.833 261.655z" stroke="none" fill="#FFF100" fill-rule="nonzero" /></g></g></svg>