<svg xmlns="http://www.w3.org/2000/svg" xmlns:xlink="http://www.w3.org/1999/xlink" id="body_258" preserveAspectRatio="xMinYMin meet" viewBox="0 0 793 1121"><defs><clipPath id="1"><path id="" clip-rule="evenodd" transform="matrix(1 0 0 1 0 0)" d="M0 841L0 -0.8900146L0 -0.8900146L595.276 -0.8900146L595.276 -0.8900146L595.276 841L595.276 841L0 841z" /></clipPath></defs><g transform="matrix(1.333333 0 0 1.333333 0 0)"><g clip-path="url(#1)"><path id="38" transform="matrix(1 0 0 -1 0 841)" d="M85.039 766.564L510.236 766.564" stroke="#000000" stroke-width="0.498" fill="none" /><path id="92" transform="matrix(1 0 0 -1 0 841)" d="M199.255 745.124L359.804 745.124" stroke="#000000" stroke-width="0.398" fill="none" /><path id="214" transform="matrix(1 0 0 -1 0 841)" d="M84.79 676.593L96.357 676.593L96.357 687.801L84.79 687.801z" stroke="none" fill="#FFF100" fill-rule="nonzero" /><path id="217" transform="matrix(1 0 0 -1 0 841)" d="M95.859 676.593L108.531 676.593L108.531 687.801L95.859 687.801z" stroke="none" fill="#FFF100" fill-rule="nonzero" /><path id="220" transform="matrix(1 0 0 -1 0 841)" d="M108.033 676.593L120.705 676.593L120.705 687.801L108.033 687.801z" stroke="none" fill="#FFF100" fill-rule="nonzero" /><path id="224" transform="matrix(1 0 0 -1 0 841)" d="M120.456 676.593L122.947 676.593L122.947 687.801L120.456 687.801z" stroke="none" fill="#FFF100" fill-rule="nonzero" /><path id="225" transform="matrix(1 0 0 -1 0 841)" d="M122.698 676.593L142.015 676.593L142.015 687.801L122.698 687.801z" stroke="none" fill="#FFF100" fill-rule="nonzero" /><path id="230" transform="matrix(1 0 0 -1 0 841)" d="M141.517 676.593L163.604 676.593L163.604 687.801L141.517 687.801z" stroke="none" fill="#FFF100" fill-rule="nonzero" /><path id="349" transform="matrix(1 0 0 -1 0 841)" d="M176.397 631.863L188.593 631.863" stroke="#000000" stroke-width="0.398" fill="none" /><path id="357" transform="matrix(1 0 0 -1 0 841)" d="M203.152 631.863L220.856 631.863" stroke="#000000" stroke-width="0.398" fill="none" /><path id="366" transform="matrix(1 0 0 -1 0 841)" d="M234.22 639.225L253.717 639.225" stroke="#000000" stroke-width="0.398" fill="none" /><path id="367" transform="matrix(1 0 0 -1 0 841)" d="M234.419 626.184L234.419 639.225" stroke="#000000" stroke-width="0.398" fill="none" /><path id="368" transform="matrix(1 0 0 -1 0 841)" d="M253.517 626.184L253.517 639.225" stroke="#000000" stroke-width="0.398" fill="none" /><path id="369" transform="matrix(1 0 0 -1 0 841)" d="M234.22 626.184L253.717 626.184" stroke="#000000" stroke-width="0.398" fill="none" /><path id="561" transform="matrix(1 0 0 -1 0 841)" d="M283.209 536.728L295.931 536.728" stroke="#000000" stroke-width="0.398" fill="none" /><path id="573" transform="matrix(1 0 0 -1 0 841)" d="M309.295 544.12L356.856 544.12" stroke="#000000" stroke-width="0.398" fill="none" /><path id="574" transform="matrix(1 0 0 -1 0 841)" d="M309.495 530.88L309.495 544.12" stroke="#000000" stroke-width="0.398" fill="none" /><path id="575" transform="matrix(1 0 0 -1 0 841)" d="M356.657 530.88L356.657 544.12" stroke="#000000" stroke-width="0.398" fill="none" /><path id="576" transform="matrix(1 0 0 -1 0 841)" d="M309.295 530.88L356.856 530.88" stroke="#000000" stroke-width="0.398" fill="none" /><path id="634" transform="matrix(1 0 0 -1 0 841)" d="M124.262 444.673L242.699 444.673L242.699 455.881L124.262 455.881z" stroke="none" fill="#FFF100" fill-rule="nonzero" /><path id="661" transform="matrix(1 0 0 -1 0 841)" d="M105.821 421.042L222.178 421.042L222.178 432.25L105.821 432.25z" stroke="none" fill="#FFF100" fill-rule="nonzero" /><path id="681" transform="matrix(1 0 0 -1 0 841)" d="M164.395 426.895L220.733 426.895" stroke="#000000" stroke-width="0.398" fill="none" /><path id="691" transform="matrix(1 0 0 -1 0 841)" d="M84.79 397.664L96.357 397.664L96.357 408.872L84.79 408.872z" stroke="none" fill="#FFF100" fill-rule="nonzero" /><path id="694" transform="matrix(1 0 0 -1 0 841)" d="M95.859 397.664L108.531 397.664L108.531 408.872L95.859 408.872z" stroke="none" fill="#FFF100" fill-rule="nonzero" /><path id="697" transform="matrix(1 0 0 -1 0 841)" d="M108.033 397.664L120.705 397.664L120.705 408.872L108.033 408.872z" stroke="none" fill="#FFF100" fill-rule="nonzero" /><path id="701" transform="matrix(1 0 0 -1 0 841)" d="M120.456 397.664L122.947 397.664L122.947 408.872L120.456 408.872z" stroke="none" fill="#FFF100" fill-rule="nonzero" /><path id="702" transform="matrix(1 0 0 -1 0 841)" d="M122.698 397.664L142.015 397.664L142.015 408.872L122.698 408.872z" stroke="none" fill="#FFF100" fill-rule="nonzero" /><path id="707" transform="matrix(1 0 0 -1 0 841)" d="M141.517 397.664L159.728 397.664L159.728 408.872L141.517 408.872z" stroke="none" fill="#FFF100" fill-rule="nonzero" /><path id="798" transform="matrix(1 0 0 -1 0 841)" d="M147.082 347.347L188.956 347.347" stroke="#000000" stroke-width="0.398" fill="none" /><path id="817" transform="matrix(1 0 0 -1 0 841)" d="M202.319 354.709L244.361 354.709" stroke="#000000" stroke-width="0.398" fill="none" /><path id="818" transform="matrix(1 0 0 -1 0 841)" d="M202.519 341.514L202.519 354.709" stroke="#000000" stroke-width="0.398" fill="none" /><path id="819" transform="matrix(1 0 0 -1 0 841)" d="M244.162 341.514L244.162 354.709" stroke="#000000" stroke-width="0.398" fill="none" /><path id="820" transform="matrix(1 0 0 -1 0 841)" d="M202.319 341.514L244.361 341.514" stroke="#000000" stroke-width="0.398" fill="none" /><path id="853" transform="matrix(1 0 0 -1 0 841)" d="M124.262 288.258L274.013 288.258L274.013 299.466L124.262 299.466z" stroke="none" fill="#FFF100" fill-rule="nonzero" /><path id="879" transform="matrix(1 0 0 -1 0 841)" d="M238.527 294.111L272.569 294.111" stroke="#000000" stroke-width="0.398" fill="none" /><path id="883" transform="matrix(1 0 0 -1 0 841)" d="M84.79 262.045L96.357 262.045L96.357 273.253L84.79 273.253z" stroke="none" fill="#FFF100" fill-rule="nonzero" /><path id="886" transform="matrix(1 0 0 -1 0 841)" d="M95.859 262.045L108.531 262.045L108.531 273.253L95.859 273.253z" stroke="none" fill="#FFF100" fill-rule="nonzero" /><path id="889" transform="matrix(1 0 0 -1 0 841)" d="M108.033 262.045L120.705 262.045L120.705 273.253L108.033 273.253z" stroke="none" fill="#FFF100" fill-rule="nonzero" /><path id="893" transform="matrix(1 0 0 -1 0 841)" d="M120.456 262.045L122.947 262.045L122.947 273.253L120.456 273.253z" stroke="none" fill="#FFF100" fill-rule="nonzero" /><path id="894" transform="matrix(1 0 0 -1 0 841)" d="M122.698 262.045L142.015 262.045L142.015 273.253L122.698 273.253z" stroke="none" fill="#FFF100" fill-rule="nonzero" /><path id="899" transform="matrix(1 0 0 -1 0 841)" d="M141.517 262.045L159.728 262.045L159.728 273.253L141.517 273.253z" stroke="none" fill="#FFF100" fill-rule="nonzero" /><path id="1069" transform="matrix(1 0 0 -1 0 841)" d="M86.235 187.971L120.277 187.971" stroke="#000000" stroke-width="0.398" fill="none" /><path id="1083" transform="matrix(1 0 0 -1 0 841)" d="M163.609 187.971L176.849 187.971" stroke="#000000" stroke-width="0.398" fill="none" /><path id="1092" transform="matrix(1 0 0 -1 0 841)" d="M186.989 187.971L209.813 187.971" stroke="#000000" stroke-width="0.398" fill="none" /><path id="1099" transform="matrix(1 0 0 -1 0 841)" d="M219.953 187.971L275.795 187.971" stroke="#000000" stroke-width="0.398" fill="none" /><path id="1118" transform="matrix(1 0 0 -1 0 841)" d="M300.879 187.971L313.053 187.971" stroke="#000000" stroke-width="0.398" fill="none" /><path id="1135" transform="matrix(1 0 0 -1 0 841)" d="M371.396 187.971L405.438 187.971" stroke="#000000" stroke-width="0.398" fill="none" /><path id="1139" transform="matrix(1 0 0 -1 0 841)" d="M351.87 202.273L410.021 202.273" stroke="#000000" stroke-width="0.398" fill="none" /><path id="1140" transform="matrix(1 0 0 -1 0 841)" d="M352.069 173.426L352.069 202.273" stroke="#000000" stroke-width="0.398" fill="none" /><path id="1141" transform="matrix(1 0 0 -1 0 841)" d="M409.822 173.426L409.822 202.273" stroke="#000000" stroke-width="0.398" fill="none" /><path id="1142" transform="matrix(1 0 0 -1 0 841)" d="M351.87 173.426L410.021 173.426" stroke="#000000" stroke-width="0.398" fill="none" /><path id="1176" transform="matrix(1 0 0 -1 0 841)" d="M124.262 108.348L311.373 108.348L311.373 119.556L124.262 119.556z" stroke="none" fill="#FFF100" fill-rule="nonzero" /><path id="1210" transform="matrix(1 0 0 -1 0 841)" d="M252.454 114.201L309.928 114.201" stroke="#000000" stroke-width="0.398" fill="none" /><path id="1221" transform="matrix(1 0 0 -1 0 841)" d="M84.79 81.677L96.357 81.677L96.357 92.885L84.79 92.885z" stroke="none" fill="#FFF100" fill-rule="nonzero" /><path id="1224" transform="matrix(1 0 0 -1 0 841)" d="M95.859 81.677L108.531 81.677L108.531 92.885L95.859 92.885z" stroke="none" fill="#FFF100" fill-rule="nonzero" /><path id="1227" transform="matrix(1 0 0 -1 0 841)" d="M108.033 81.677L120.705 81.677L120.705 92.885L108.033 92.885z" stroke="none" fill="#FFF100" fill-rule="nonzero" /><path id="1231" transform="matrix(1 0 0 -1 0 841)" d="M120.456 81.677L122.947 81.677L122.947 92.885L120.456 92.885z" stroke="none" fill="#FFF100" fill-rule="nonzero" /><path id="1232" transform="matrix(1 0 0 -1 0 841)" d="M122.698 81.677L142.015 81.677L142.015 92.885L122.698 92.885z" stroke="none" fill="#FFF100" fill-rule="nonzero" /><path id="1237" transform="matrix(1 0 0 -1 0 841)" d="M141.517 81.677L159.728 81.677L159.728 92.885L141.517 92.885z" stroke="none" fill="#FFF100" fill-rule="nonzero" /></g></g></svg>