<svg xmlns="http://www.w3.org/2000/svg" xmlns:xlink="http://www.w3.org/1999/xlink" id="body_180" preserveAspectRatio="xMinYMin meet" viewBox="0 0 793 1121"><defs><clipPath id="1"><path id="" clip-rule="evenodd" transform="matrix(1 0 0 1 0 0)" d="M0 841L0 -0.8900146L0 -0.8900146L595.276 -0.8900146L595.276 -0.8900146L595.276 841L595.276 841L0 841z" /></clipPath></defs><g transform="matrix(1.333333 0 0 1.333333 0 0)"><g clip-path="url(#1)"><g transform="matrix(0.474328 0 0 0.474328 0.199 -0.6907959)"><g transform="matrix(1 0 0 1 0 0)"><image x="0" y="0" xlink:href="img_312.png" width="1255" height="707" /></g></g><path id="3" transform="matrix(1 0 0 -1 0 841)" d="M724.611 610.6792L100.9809 610.6792C 92.72734 610.6792 86.03673 603.9886 86.03673 595.735L86.03673 595.735L86.03673 577.8021C 86.03673 569.5485 92.72734 562.8579 100.9809 562.8579L100.9809 562.8579L724.611 562.8579C 732.8644 562.8579 739.5551 569.5485 739.5551 577.8021L739.5551 577.8021L739.5551 595.735C 739.5551 603.9886 732.8644 610.6792 724.611 610.6792z" stroke="#F36619" stroke-width="1.99255" fill="#FFFFFF" fill-rule="nonzero" fill-opacity="0.4980392" /><path id="1132" transform="matrix(1 0 0 -1 0 841)" d="M110.833 123.517L190.632 123.517" stroke="#000000" stroke-width="0.398" fill="none" /><path id="1176" transform="matrix(1 0 0 -1 0 841)" d="M251.404 123.517L341.166 123.517" stroke="#000000" stroke-width="0.398" fill="none" /><path id="1184" transform="matrix(1 0 0 -1 0 841)" d="M84.79 99.49696L107.425 99.49696L107.425 110.705L84.79 110.705z" stroke="none" fill="#FFF100" fill-rule="nonzero" /><path id="1190" transform="matrix(1 0 0 -1 0 841)" d="M106.778 99.49696L109.274 99.49696L109.274 110.705L106.778 110.705z" stroke="none" fill="#FFF100" fill-rule="nonzero" /><path id="1191" transform="matrix(1 0 0 -1 0 841)" d="M109.025 99.49696L127.236 99.49696L127.236 110.705L109.025 110.705z" stroke="none" fill="#FFF100" fill-rule="nonzero" /><path id="1196" transform="matrix(1 0 0 -1 0 841)" d="M126.668 99.49696L129.164 99.49696L129.164 110.705L126.668 110.705z" stroke="none" fill="#FFF100" fill-rule="nonzero" /><path id="1197" transform="matrix(1 0 0 -1 0 841)" d="M128.915 99.49696L146.011 99.49696L146.011 110.705L128.915 110.705z" stroke="none" fill="#FFF100" fill-rule="nonzero" /><path id="1202" transform="matrix(1 0 0 -1 0 841)" d="M145.214 99.49696L165.079 99.49696L165.079 110.705L145.214 110.705z" stroke="none" fill="#FFF100" fill-rule="nonzero" /><path id="1208" transform="matrix(1 0 0 -1 0 841)" d="M164.232 99.49696L183.539 99.49696L183.539 110.705L164.232 110.705z" stroke="none" fill="#FFF100" fill-rule="nonzero" /><path id="1213" transform="matrix(1 0 0 -1 0 841)" d="M182.952 99.49696L185.448 99.49696L185.448 110.705L182.952 110.705z" stroke="none" fill="#FFF100" fill-rule="nonzero" /><path id="1214" transform="matrix(1 0 0 -1 0 841)" d="M185.199 99.49696L201.199 99.49696L201.199 110.705L185.199 110.705z" stroke="none" fill="#FFF100" fill-rule="nonzero" /><path id="1219" transform="matrix(1 0 0 -1 0 841)" d="M200.671 99.49696L203.167 99.49696L203.167 110.705L200.671 110.705z" stroke="none" fill="#FFF100" fill-rule="nonzero" /><path id="1220" transform="matrix(1 0 0 -1 0 841)" d="M202.918 99.49696L211.167 99.49696L211.167 110.705L202.918 110.705z" stroke="none" fill="#FFF100" fill-rule="nonzero" /><path id="1223" transform="matrix(1 0 0 -1 0 841)" d="M210.529 99.49696L232.606 99.49696L232.606 110.705L210.529 110.705z" stroke="none" fill="#FFF100" fill-rule="nonzero" /><path id="1229" transform="matrix(1 0 0 -1 0 841)" d="M231.968 99.49696L234.464 99.49696L234.464 110.705L231.968 110.705z" stroke="none" fill="#FFF100" fill-rule="nonzero" /><path id="1230" transform="matrix(1 0 0 -1 0 841)" d="M234.215 99.49696L246.887 99.49696L246.887 110.705L234.215 110.705z" stroke="none" fill="#FFF100" fill-rule="nonzero" /><path id="1234" transform="matrix(1 0 0 -1 0 841)" d="M246.42 99.49696L248.916 99.49696L248.916 110.705L246.42 110.705z" stroke="none" fill="#FFF100" fill-rule="nonzero" /><path id="1235" transform="matrix(1 0 0 -1 0 841)" d="M248.667 99.49696L274.071 99.49696L274.071 110.705L248.667 110.705z" stroke="none" fill="#FFF100" fill-rule="nonzero" /><path id="1242" transform="matrix(1 0 0 -1 0 841)" d="M273.374 99.49696L275.87 99.49696L275.87 110.705L273.374 110.705z" stroke="none" fill="#FFF100" fill-rule="nonzero" /><path id="1243" transform="matrix(1 0 0 -1 0 841)" d="M275.621 99.49696L288.293 99.49696L288.293 110.705L275.621 110.705z" stroke="none" fill="#FFF100" fill-rule="nonzero" /><path id="1247" transform="matrix(1 0 0 -1 0 841)" d="M287.825 99.49696L290.321 99.49696L290.321 110.705L287.825 110.705z" stroke="none" fill="#FFF100" fill-rule="nonzero" /><path id="1248" transform="matrix(1 0 0 -1 0 841)" d="M290.072 99.49696L302.087 99.49696L302.087 110.705L290.072 110.705z" stroke="none" fill="#FFF100" fill-rule="nonzero" /><path id="1251" transform="matrix(1 0 0 -1 0 841)" d="M301.379 99.49696L312.388 99.49696L312.388 110.705L301.379 110.705z" stroke="none" fill="#FFF100" fill-rule="nonzero" /><path id="1255" transform="matrix(1 0 0 -1 0 841)" d="M311.95 99.49696L314.446 99.49696L314.446 110.705L311.95 110.705z" stroke="none" fill="#FFF100" fill-rule="nonzero" /><path id="1256" transform="matrix(1 0 0 -1 0 841)" d="M314.197 99.49696L346.795 99.49696L346.795 110.705L314.197 110.705z" stroke="none" fill="#FFF100" fill-rule="nonzero" /><path id="1263" transform="matrix(1 0 0 -1 0 841)" d="M345.967 99.49696L348.463 99.49696L348.463 110.705L345.967 110.705z" stroke="none" fill="#FFF100" fill-rule="nonzero" /><path id="1264" transform="matrix(1 0 0 -1 0 841)" d="M348.214 99.49696L363.098 99.49696L363.098 110.705L348.214 110.705z" stroke="none" fill="#FFF100" fill-rule="nonzero" /><path id="1268" transform="matrix(1 0 0 -1 0 841)" d="M362.59 99.49696L365.086 99.49696L365.086 110.705L362.59 110.705z" stroke="none" fill="#FFF100" fill-rule="nonzero" /><path id="1269" transform="matrix(1 0 0 -1 0 841)" d="M364.837 99.49696L381.385 99.49696L381.385 110.705L364.837 110.705z" stroke="none" fill="#FFF100" fill-rule="nonzero" /><path id="1274" transform="matrix(1 0 0 -1 0 841)" d="M380.847 99.49696L383.343 99.49696L383.343 110.705L380.847 110.705z" stroke="none" fill="#FFF100" fill-rule="nonzero" /><path id="1275" transform="matrix(1 0 0 -1 0 841)" d="M383.094 99.49696L395.766 99.49696L395.766 110.705L383.094 110.705z" stroke="none" fill="#FFF100" fill-rule="nonzero" /><path id="1279" transform="matrix(1 0 0 -1 0 841)" d="M395.298 99.49696L397.794 99.49696L397.794 110.705L395.298 110.705z" stroke="none" fill="#FFF100" fill-rule="nonzero" /><path id="1280" transform="matrix(1 0 0 -1 0 841)" d="M397.545 99.49696L416.852 99.49696L416.852 110.705L397.545 110.705z" stroke="none" fill="#FFF100" fill-rule="nonzero" /><path id="1285" transform="matrix(1 0 0 -1 0 841)" d="M416.265 99.49696L418.761 99.49696L418.761 110.705L416.265 110.705z" stroke="none" fill="#FFF100" fill-rule="nonzero" /><path id="1286" transform="matrix(1 0 0 -1 0 841)" d="M418.512 99.49696L427.309 99.49696L427.309 110.705L418.512 110.705z" stroke="none" fill="#FFF100" fill-rule="nonzero" /><path id="1289" transform="matrix(1 0 0 -1 0 841)" d="M426.661 99.49696L436.016 99.49696L436.016 110.705L426.661 110.705z" stroke="none" fill="#FFF100" fill-rule="nonzero" /><path id="1292" transform="matrix(1 0 0 -1 0 841)" d="M435.358 99.49696L443.049 99.49696L443.049 110.705L435.358 110.705z" stroke="none" fill="#FFF100" fill-rule="nonzero" /><path id="1295" transform="matrix(1 0 0 -1 0 841)" d="M442.422 99.49696L459.518 99.49696L459.518 110.705L442.422 110.705z" stroke="none" fill="#FFF100" fill-rule="nonzero" /><path id="1300" transform="matrix(1 0 0 -1 0 841)" d="M458.97 99.49696L461.466 99.49696L461.466 110.705L458.97 110.705z" stroke="none" fill="#FFF100" fill-rule="nonzero" /><path id="1301" transform="matrix(1 0 0 -1 0 841)" d="M461.217 99.49696L479.428 99.49696L479.428 110.705L461.217 110.705z" stroke="none" fill="#FFF100" fill-rule="nonzero" /><path id="1306" transform="matrix(1 0 0 -1 0 841)" d="M478.86 99.49696L481.356 99.49696L481.356 110.705L478.86 110.705z" stroke="none" fill="#FFF100" fill-rule="nonzero" /><path id="1307" transform="matrix(1 0 0 -1 0 841)" d="M481.107 99.49696L495.433 99.49696L495.433 110.705L481.107 110.705z" stroke="none" fill="#FFF100" fill-rule="nonzero" /><path id="1312" transform="matrix(1 0 0 -1 0 841)" d="M494.686 99.49696L510.686 99.49696L510.686 110.705L494.686 110.705z" stroke="none" fill="#FFF100" fill-rule="nonzero" /><path id="1317" transform="matrix(1 0 0 -1 0 841)" d="M84.79 84.55296L109.088 84.55296L109.088 95.76096L84.79 95.76096z" stroke="none" fill="#FFF100" fill-rule="nonzero" /><path id="1324" transform="matrix(1 0 0 -1 0 841)" d="M108.84 84.55296L111.331 84.55296L111.331 95.76096L108.84 95.76096z" stroke="none" fill="#FFF100" fill-rule="nonzero" /><path id="1325" transform="matrix(1 0 0 -1 0 841)" d="M111.081 84.55296L114.897 84.55296L114.897 95.76096L111.081 95.76096z" stroke="none" fill="#FFF100" fill-rule="nonzero" /><path id="1327" transform="matrix(1 0 0 -1 0 841)" d="M114.648 84.55296L117.139 84.55296L117.139 95.76096L114.648 95.76096z" stroke="none" fill="#FFF100" fill-rule="nonzero" /><path id="1328" transform="matrix(1 0 0 -1 0 841)" d="M116.889 84.55296L126.792 84.55296L126.792 95.76096L116.889 95.76096z" stroke="none" fill="#FFF100" fill-rule="nonzero" /><path id="1331" transform="matrix(1 0 0 -1 0 841)" d="M126.294 84.55296L144.316 84.55296L144.316 95.76096L126.294 95.76096z" stroke="none" fill="#FFF100" fill-rule="nonzero" /><path id="1336" transform="matrix(1 0 0 -1 0 841)" d="M144.067 84.55296L146.558 84.55296L146.558 95.76096L144.067 95.76096z" stroke="none" fill="#FFF100" fill-rule="nonzero" /><path id="1337" transform="matrix(1 0 0 -1 0 841)" d="M146.309 84.55296L162.309 84.55296L162.309 95.76096L146.309 95.76096z" stroke="none" fill="#FFF100" fill-rule="nonzero" /><path id="1342" transform="matrix(1 0 0 -1 0 841)" d="M162.06 84.55296L164.551 84.55296L164.551 95.76096L162.06 95.76096z" stroke="none" fill="#FFF100" fill-rule="nonzero" /><path id="1343" transform="matrix(1 0 0 -1 0 841)" d="M164.301 84.55296L174.204 84.55296L174.204 95.76096L164.301 95.76096z" stroke="none" fill="#FFF100" fill-rule="nonzero" /><path id="1346" transform="matrix(1 0 0 -1 0 841)" d="M173.706 84.55296L196.331 84.55296L196.331 95.76096L173.706 95.76096z" stroke="none" fill="#FFF100" fill-rule="nonzero" /><path id="1352" transform="matrix(1 0 0 -1 0 841)" d="M196.082 84.55296L198.573 84.55296L198.573 95.76096L196.082 95.76096z" stroke="none" fill="#FFF100" fill-rule="nonzero" /><path id="1353" transform="matrix(1 0 0 -1 0 841)" d="M198.323 84.55296L207.12 84.55296L207.12 95.76096L198.323 95.76096z" stroke="none" fill="#FFF100" fill-rule="nonzero" /><path id="1356" transform="matrix(1 0 0 -1 0 841)" d="M206.871 84.55296L209.362 84.55296L209.362 95.76096L206.871 95.76096z" stroke="none" fill="#FFF100" fill-rule="nonzero" /><path id="1357" transform="matrix(1 0 0 -1 0 841)" d="M209.113 84.55296L221.785 84.55296L221.785 95.76096L209.113 95.76096z" stroke="none" fill="#FFF100" fill-rule="nonzero" /><path id="1361" transform="matrix(1 0 0 -1 0 841)" d="M221.536 84.55296L224.027 84.55296L224.027 95.76096L221.536 95.76096z" stroke="none" fill="#FFF100" fill-rule="nonzero" /><path id="1362" transform="matrix(1 0 0 -1 0 841)" d="M223.778 84.55296L235.793 84.55296L235.793 95.76096L223.778 95.76096z" stroke="none" fill="#FFF100" fill-rule="nonzero" /><path id="1365" transform="matrix(1 0 0 -1 0 841)" d="M235.294 84.55296L246.303 84.55296L246.303 95.76096L235.294 95.76096z" stroke="none" fill="#FFF100" fill-rule="nonzero" /><path id="1369" transform="matrix(1 0 0 -1 0 841)" d="M246.054 84.55296L248.545 84.55296L248.545 95.76096L246.054 95.76096z" stroke="none" fill="#FFF100" fill-rule="nonzero" /><path id="1370" transform="matrix(1 0 0 -1 0 841)" d="M248.295 84.55296L266.357 84.55296L266.357 95.76096L248.295 95.76096z" stroke="none" fill="#FFF100" fill-rule="nonzero" /><path id="1374" transform="matrix(1 0 0 -1 0 841)" d="M265.859 84.55296L279.089 84.55296L279.089 95.76096L265.859 95.76096z" stroke="none" fill="#FFF100" fill-rule="nonzero" /><path id="1378" transform="matrix(1 0 0 -1 0 841)" d="M278.841 84.55296L281.332 84.55296L281.332 95.76096L278.841 95.76096z" stroke="none" fill="#FFF100" fill-rule="nonzero" /><path id="1379" transform="matrix(1 0 0 -1 0 841)" d="M281.082 84.55296L312.574 84.55296L312.574 95.76096L281.082 95.76096z" stroke="none" fill="#FFF100" fill-rule="nonzero" /><path id="1387" transform="matrix(1 0 0 -1 0 841)" d="M312.325 84.55296L314.816 84.55296L314.816 95.76096L312.325 95.76096z" stroke="none" fill="#FFF100" fill-rule="nonzero" /><path id="1388" transform="matrix(1 0 0 -1 0 841)" d="M314.567 84.55296L327.239 84.55296L327.239 95.76096L314.567 95.76096z" stroke="none" fill="#FFF100" fill-rule="nonzero" /><path id="1392" transform="matrix(1 0 0 -1 0 841)" d="M326.99 84.55296L329.481 84.55296L329.481 95.76096L326.99 95.76096z" stroke="none" fill="#FFF100" fill-rule="nonzero" /><path id="1393" transform="matrix(1 0 0 -1 0 841)" d="M329.231 84.55296L346.885 84.55296L346.885 95.76096L329.231 95.76096z" stroke="none" fill="#FFF100" fill-rule="nonzero" /><path id="1398" transform="matrix(1 0 0 -1 0 841)" d="M346.636 84.55296L349.127 84.55296L349.127 95.76096L346.636 95.76096z" stroke="none" fill="#FFF100" fill-rule="nonzero" /><path id="1399" transform="matrix(1 0 0 -1 0 841)" d="M348.878 84.55296L363.762 84.55296L363.762 95.76096L348.878 95.76096z" stroke="none" fill="#FFF100" fill-rule="nonzero" /><path id="1403" transform="matrix(1 0 0 -1 0 841)" d="M363.513 84.55296L366.004 84.55296L366.004 95.76096L363.513 95.76096z" stroke="none" fill="#FFF100" fill-rule="nonzero" /><path id="1404" transform="matrix(1 0 0 -1 0 841)" d="M365.754 84.55296L374.561 84.55296L374.561 95.76096L365.754 95.76096z" stroke="none" fill="#FFF100" fill-rule="nonzero" /><path id="1407" transform="matrix(1 0 0 -1 0 841)" d="M374.063 84.55296L396.429 84.55296L396.429 95.76096L374.063 95.76096z" stroke="none" fill="#FFF100" fill-rule="nonzero" /></g></g></svg>