<svg xmlns="http://www.w3.org/2000/svg" xmlns:xlink="http://www.w3.org/1999/xlink" id="body_190" preserveAspectRatio="xMinYMin meet" viewBox="0 0 793 1121"><defs><clipPath id="1"><path id="" clip-rule="evenodd" transform="matrix(1 0 0 1 0 0)" d="M0 841L0 -0.8900146L0 -0.8900146L595.276 -0.8900146L595.276 -0.8900146L595.276 841L595.276 841L0 841z" /></clipPath></defs><g transform="matrix(1.333333 0 0 1.333333 0 0)"><g clip-path="url(#1)"><path id="46" transform="matrix(1 0 0 -1 0 841)" d="M85.039 766.564L510.236 766.564" stroke="#000000" stroke-width="0.498" fill="none" /><path id="89" transform="matrix(1 0 0 -1 0 841)" d="M85.039 737.802L559.19 737.802" stroke="#000000" stroke-width="0.283" fill="none" /><path id="90" transform="matrix(1 0 0 -1 0 841)" d="M85.181 718.234L85.181 737.661" stroke="#000000" stroke-width="0.283" fill="none" /><path id="98" transform="matrix(1 0 0 -1 0 841)" d="M214.791 718.234L214.791 737.661" stroke="#000000" stroke-width="0.283" fill="none" /><path id="105" transform="matrix(1 0 0 -1 0 841)" d="M358.573 718.234L358.573 737.661" stroke="#000000" stroke-width="0.283" fill="none" /><path id="124" transform="matrix(1 0 0 -1 0 841)" d="M559.049 718.234L559.049 737.661" stroke="#000000" stroke-width="0.283" fill="none" /><path id="125" transform="matrix(1 0 0 -1 0 841)" d="M85.039 718.092L559.19 718.092" stroke="#000000" stroke-width="0.283" fill="none" /><path id="126" transform="matrix(1 0 0 -1 0 841)" d="M85.181 638.747L85.181 717.95" stroke="#000000" stroke-width="0.283" fill="none" /><path id="138" transform="matrix(1 0 0 -1 0 841)" d="M214.791 638.747L214.791 717.95" stroke="#000000" stroke-width="0.283" fill="none" /><path id="150" transform="matrix(1 0 0 -1 0 841)" d="M358.573 638.747L358.573 717.95" stroke="#000000" stroke-width="0.283" fill="none" /><path id="285" transform="matrix(1 0 0 -1 0 841)" d="M559.049 638.747L559.049 717.95" stroke="#000000" stroke-width="0.283" fill="none" /><path id="286" transform="matrix(1 0 0 -1 0 841)" d="M85.039 638.605L559.19 638.605" stroke="#000000" stroke-width="0.283" fill="none" /><path id="287" transform="matrix(1 0 0 -1 0 841)" d="M85.181 604.092L85.181 638.463" stroke="#000000" stroke-width="0.283" fill="none" /><path id="295" transform="matrix(1 0 0 -1 0 841)" d="M214.791 604.092L214.791 638.463" stroke="#000000" stroke-width="0.283" fill="none" /><path id="300" transform="matrix(1 0 0 -1 0 841)" d="M358.573 604.092L358.573 638.463" stroke="#000000" stroke-width="0.283" fill="none" /><path id="352" transform="matrix(1 0 0 -1 0 841)" d="M559.049 604.092L559.049 638.463" stroke="#000000" stroke-width="0.283" fill="none" /><path id="353" transform="matrix(1 0 0 -1 0 841)" d="M85.039 603.951L559.19 603.951" stroke="#000000" stroke-width="0.283" fill="none" /><path id="354" transform="matrix(1 0 0 -1 0 841)" d="M85.181 554.494L85.181 603.809" stroke="#000000" stroke-width="0.283" fill="none" /><path id="364" transform="matrix(1 0 0 -1 0 841)" d="M214.791 554.494L214.791 603.809" stroke="#000000" stroke-width="0.283" fill="none" /><path id="393" transform="matrix(1 0 0 -1 0 841)" d="M358.573 554.494L358.573 603.809" stroke="#000000" stroke-width="0.283" fill="none" /><path id="442" transform="matrix(1 0 0 -1 0 841)" d="M559.049 554.494L559.049 603.809" stroke="#000000" stroke-width="0.283" fill="none" /><path id="443" transform="matrix(1 0 0 -1 0 841)" d="M85.039 554.352L559.19 554.352" stroke="#000000" stroke-width="0.283" fill="none" /><path id="444" transform="matrix(1 0 0 -1 0 841)" d="M85.181 475.007L85.181 554.21" stroke="#000000" stroke-width="0.283" fill="none" /><path id="460" transform="matrix(1 0 0 -1 0 841)" d="M214.791 475.007L214.791 554.21" stroke="#000000" stroke-width="0.283" fill="none" /><path id="504" transform="matrix(1 0 0 -1 0 841)" d="M358.573 475.007L358.573 554.21" stroke="#000000" stroke-width="0.283" fill="none" /><path id="578" transform="matrix(1 0 0 -1 0 841)" d="M559.049 475.007L559.049 554.21" stroke="#000000" stroke-width="0.283" fill="none" /><path id="579" transform="matrix(1 0 0 -1 0 841)" d="M85.039 474.866L559.19 474.866" stroke="#000000" stroke-width="0.283" fill="none" /><path id="580" transform="matrix(1 0 0 -1 0 841)" d="M85.181 425.409L85.181 474.724" stroke="#000000" stroke-width="0.283" fill="none" /><path id="598" transform="matrix(1 0 0 -1 0 841)" d="M214.791 425.409L214.791 474.724" stroke="#000000" stroke-width="0.283" fill="none" /><path id="625" transform="matrix(1 0 0 -1 0 841)" d="M358.573 425.409L358.573 474.724" stroke="#000000" stroke-width="0.283" fill="none" /><path id="668" transform="matrix(1 0 0 -1 0 841)" d="M559.049 425.409L559.049 474.724" stroke="#000000" stroke-width="0.283" fill="none" /><path id="669" transform="matrix(1 0 0 -1 0 841)" d="M85.039 425.267L559.19 425.267" stroke="#000000" stroke-width="0.283" fill="none" /><path id="670" transform="matrix(1 0 0 -1 0 841)" d="M85.181 405.698L85.181 425.125" stroke="#000000" stroke-width="0.283" fill="none" /><path id="681" transform="matrix(1 0 0 -1 0 841)" d="M214.791 405.698L214.791 425.125" stroke="#000000" stroke-width="0.283" fill="none" /><path id="694" transform="matrix(1 0 0 -1 0 841)" d="M358.573 405.698L358.573 425.125" stroke="#000000" stroke-width="0.283" fill="none" /><path id="710" transform="matrix(1 0 0 -1 0 841)" d="M559.049 405.698L559.049 425.125" stroke="#000000" stroke-width="0.283" fill="none" /><path id="711" transform="matrix(1 0 0 -1 0 841)" d="M85.039 405.556L559.19 405.556" stroke="#000000" stroke-width="0.283" fill="none" /><path id="712" transform="matrix(1 0 0 -1 0 841)" d="M85.181 326.212L85.181 405.415" stroke="#000000" stroke-width="0.283" fill="none" /><path id="729" transform="matrix(1 0 0 -1 0 841)" d="M214.791 326.212L214.791 405.415" stroke="#000000" stroke-width="0.283" fill="none" /><path id="746" transform="matrix(1 0 0 -1 0 841)" d="M358.573 326.212L358.573 405.415" stroke="#000000" stroke-width="0.283" fill="none" /><path id="850" transform="matrix(1 0 0 -1 0 841)" d="M559.049 326.212L559.049 405.415" stroke="#000000" stroke-width="0.283" fill="none" /><path id="851" transform="matrix(1 0 0 -1 0 841)" d="M85.039 326.07L559.19 326.07" stroke="#000000" stroke-width="0.283" fill="none" /><path id="852" transform="matrix(1 0 0 -1 0 841)" d="M85.181 261.669L85.181 325.928" stroke="#000000" stroke-width="0.283" fill="none" /><path id="871" transform="matrix(1 0 0 -1 0 841)" d="M214.791 261.669L214.791 325.928" stroke="#000000" stroke-width="0.283" fill="none" /><path id="918" transform="matrix(1 0 0 -1 0 841)" d="M358.573 261.669L358.573 325.928" stroke="#000000" stroke-width="0.283" fill="none" /><path id="975" transform="matrix(1 0 0 -1 0 841)" d="M559.049 261.669L559.049 325.928" stroke="#000000" stroke-width="0.283" fill="none" /><path id="976" transform="matrix(1 0 0 -1 0 841)" d="M85.039 261.527L559.19 261.527" stroke="#000000" stroke-width="0.283" fill="none" /></g></g></svg>