<svg xmlns="http://www.w3.org/2000/svg" xmlns:xlink="http://www.w3.org/1999/xlink" id="body_394" preserveAspectRatio="xMinYMin meet" viewBox="0 0 793 1121"><defs><clipPath id="1"><path id="" clip-rule="evenodd" transform="matrix(1 0 0 1 0 0)" d="M0 841L0 -0.8900146L0 -0.8900146L595.276 -0.8900146L595.276 -0.8900146L595.276 841L595.276 841L0 841z" /></clipPath></defs><g transform="matrix(1.333333 0 0 1.333333 0 0)"><g clip-path="url(#1)"><path id="31" transform="matrix(1 0 0 -1 0 841)" d="M85.039 766.564L510.236 766.564" stroke="#000000" stroke-width="0.498" fill="none" /><path id="86" transform="matrix(1 0 0 -1 0 841)" d="M165.064 733.438L359.044 733.438" stroke="#000000" stroke-width="0.398" fill="none" /><path id="102" transform="matrix(1 0 0 -1 0 841)" d="M389.108 733.438L401.282 733.438" stroke="#000000" stroke-width="0.398" fill="none" /><path id="115" transform="matrix(1 0 0 -1 0 841)" d="M135.176 694.782L175.534 694.782" stroke="#000000" stroke-width="0.398" fill="none" /><path id="131" transform="matrix(1 0 0 -1 0 841)" d="M205.6 694.782L217.774 694.782" stroke="#000000" stroke-width="0.398" fill="none" /><path id="140" transform="matrix(1 0 0 -1 0 841)" d="M231.138 702.896L268.308 702.896" stroke="#000000" stroke-width="0.398" fill="none" /><path id="141" transform="matrix(1 0 0 -1 0 841)" d="M231.337 686.613L231.337 702.897" stroke="#000000" stroke-width="0.398" fill="none" /><path id="142" transform="matrix(1 0 0 -1 0 841)" d="M268.109 686.613L268.109 702.897" stroke="#000000" stroke-width="0.398" fill="none" /><path id="143" transform="matrix(1 0 0 -1 0 841)" d="M231.138 686.613L268.308 686.613" stroke="#000000" stroke-width="0.398" fill="none" /><path id="480" transform="matrix(1 0 0 -1 0 841)" d="M112.312 567.313L541.893 567.313" stroke="#000000" stroke-width="0.283" fill="none" /><path id="481" transform="matrix(1 0 0 -1 0 841)" d="M112.454 557.727L112.454 567.172" stroke="#000000" stroke-width="0.283" fill="none" /><path id="509" transform="matrix(1 0 0 -1 0 841)" d="M327.103 557.727L327.103 567.172" stroke="#000000" stroke-width="0.283" fill="none" /><path id="536" transform="matrix(1 0 0 -1 0 841)" d="M541.752 557.727L541.752 567.172" stroke="#000000" stroke-width="0.283" fill="none" /><path id="537" transform="matrix(1 0 0 -1 0 841)" d="M112.312 557.585L541.893 557.585" stroke="#000000" stroke-width="0.283" fill="none" /><path id="538" transform="matrix(1 0 0 -1 0 841)" d="M112.454 539.426L112.454 557.4431" stroke="#000000" stroke-width="0.283" fill="none" /><path id="556" transform="matrix(1 0 0 -1 0 841)" d="M197.329 548.861L209.503 548.861" stroke="#000000" stroke-width="0.398" fill="none" /><path id="558" transform="matrix(1 0 0 -1 0 841)" d="M327.103 539.426L327.103 557.4431" stroke="#000000" stroke-width="0.283" fill="none" /><path id="570" transform="matrix(1 0 0 -1 0 841)" d="M541.752 539.426L541.752 557.4431" stroke="#000000" stroke-width="0.283" fill="none" /><path id="571" transform="matrix(1 0 0 -1 0 841)" d="M112.312 539.284L541.893 539.284" stroke="#000000" stroke-width="0.283" fill="none" /><path id="572" transform="matrix(1 0 0 -1 0 841)" d="M112.454 521.235L112.454 539.143" stroke="#000000" stroke-width="0.283" fill="none" /><path id="584" transform="matrix(1 0 0 -1 0 841)" d="M175.818 530.56L187.992 530.56" stroke="#000000" stroke-width="0.398" fill="none" /><path id="586" transform="matrix(1 0 0 -1 0 841)" d="M327.103 521.235L327.103 539.143" stroke="#000000" stroke-width="0.283" fill="none" /><path id="616" transform="matrix(1 0 0 -1 0 841)" d="M541.752 521.235L541.752 539.143" stroke="#000000" stroke-width="0.283" fill="none" /><path id="617" transform="matrix(1 0 0 -1 0 841)" d="M112.312 521.093L541.893 521.093" stroke="#000000" stroke-width="0.283" fill="none" /><g transform="matrix(0.2 0 0 0.2 249.239 774.845)"><g transform="matrix(1 0 0 1 0 0)"><image x="0" y="0" xlink:href="img_04.png" width="484" height="104" /></g></g></g></g></svg>