<svg xmlns="http://www.w3.org/2000/svg" xmlns:xlink="http://www.w3.org/1999/xlink" id="body_244" preserveAspectRatio="xMinYMin meet" viewBox="0 0 793 1121"><defs><clipPath id="1"><path id="" clip-rule="evenodd" transform="matrix(1 0 0 1 0 0)" d="M0 841L0 -0.8900146L0 -0.8900146L595.276 -0.8900146L595.276 -0.8900146L595.276 841L595.276 841L0 841z" /></clipPath></defs><g transform="matrix(1.333333 0 0 1.333333 0 0)"><g clip-path="url(#1)"><path id="23" transform="matrix(1 0 0 -1 0 841)" d="M85.039 766.564L510.236 766.564" stroke="#000000" stroke-width="0.498" fill="none" /><path id="190" transform="matrix(1 0 0 -1 0 841)" d="M112.063 657.007L128.053 657.007L128.053 668.215L112.063 668.215z" stroke="none" fill="#FFF100" fill-rule="nonzero" /><path id="194" transform="matrix(1 0 0 -1 0 841)" d="M127.804 657.007L130.295 657.007L130.295 668.215L127.804 668.215z" stroke="none" fill="#FFF100" fill-rule="nonzero" /><path id="195" transform="matrix(1 0 0 -1 0 841)" d="M130.046 657.007L145.488 657.007L145.488 668.215L130.046 668.215z" stroke="none" fill="#FFF100" fill-rule="nonzero" /><path id="199" transform="matrix(1 0 0 -1 0 841)" d="M145.239 657.007L147.73 657.007L147.73 668.215L145.239 668.215z" stroke="none" fill="#FFF100" fill-rule="nonzero" /><path id="200" transform="matrix(1 0 0 -1 0 841)" d="M147.48 657.007L154.623 657.007L154.623 668.215L147.48 668.215z" stroke="none" fill="#FFF100" fill-rule="nonzero" /><path id="203" transform="matrix(1 0 0 -1 0 841)" d="M154.374 657.007L156.865 657.007L156.865 668.215L154.374 668.215z" stroke="none" fill="#FFF100" fill-rule="nonzero" /><path id="204" transform="matrix(1 0 0 -1 0 841)" d="M156.616 657.007L169.288 657.007L169.288 668.215L156.616 668.215z" stroke="none" fill="#FFF100" fill-rule="nonzero" /><path id="208" transform="matrix(1 0 0 -1 0 841)" d="M169.039 657.007L171.53 657.007L171.53 668.215L169.039 668.215z" stroke="none" fill="#FFF100" fill-rule="nonzero" /><path id="209" transform="matrix(1 0 0 -1 0 841)" d="M171.281 657.007L179.53 657.007L179.53 668.215L171.281 668.215z" stroke="none" fill="#FFF100" fill-rule="nonzero" /><path id="212" transform="matrix(1 0 0 -1 0 841)" d="M179.031 657.007L189.491 657.007L189.491 668.215L179.031 668.215z" stroke="none" fill="#FFF100" fill-rule="nonzero" /><path id="216" transform="matrix(1 0 0 -1 0 841)" d="M189.243 657.007L191.734 657.007L191.734 668.215L189.243 668.215z" stroke="none" fill="#FFF100" fill-rule="nonzero" /><path id="217" transform="matrix(1 0 0 -1 0 841)" d="M191.484 657.007L209.447 657.007L209.447 668.215L191.484 668.215z" stroke="none" fill="#FFF100" fill-rule="nonzero" /><path id="221" transform="matrix(1 0 0 -1 0 841)" d="M209.198 657.007L211.689 657.007L211.689 668.215L209.198 668.215z" stroke="none" fill="#FFF100" fill-rule="nonzero" /><path id="222" transform="matrix(1 0 0 -1 0 841)" d="M211.439 657.007L239.049 657.007L239.049 668.215L211.439 668.215z" stroke="none" fill="#FFF100" fill-rule="nonzero" /><path id="229" transform="matrix(1 0 0 -1 0 841)" d="M238.801 657.007L241.292 657.007L241.292 668.215L238.801 668.215z" stroke="none" fill="#FFF100" fill-rule="nonzero" /><path id="230" transform="matrix(1 0 0 -1 0 841)" d="M241.042 657.007L253.714 657.007L253.714 668.215L241.042 668.215z" stroke="none" fill="#FFF100" fill-rule="nonzero" /><path id="234" transform="matrix(1 0 0 -1 0 841)" d="M253.466 657.007L255.957 657.007L255.957 668.215L253.466 668.215z" stroke="none" fill="#FFF100" fill-rule="nonzero" /><path id="235" transform="matrix(1 0 0 -1 0 841)" d="M255.707 657.007L264.514 657.007L264.514 668.215L255.707 668.215z" stroke="none" fill="#FFF100" fill-rule="nonzero" /><path id="238" transform="matrix(1 0 0 -1 0 841)" d="M264.016 657.007L275.025 657.007L275.025 668.215L264.016 668.215z" stroke="none" fill="#FFF100" fill-rule="nonzero" /><path id="242" transform="matrix(1 0 0 -1 0 841)" d="M274.775 657.007L277.266 657.007L277.266 668.215L274.775 668.215z" stroke="none" fill="#FFF100" fill-rule="nonzero" /><path id="243" transform="matrix(1 0 0 -1 0 841)" d="M276.818 657.007L280.634 657.007L280.634 668.215L276.818 668.215z" stroke="none" fill="#FFF100" fill-rule="nonzero" /><path id="245" transform="matrix(1 0 0 -1 0 841)" d="M280.384 657.007L282.875 657.007L282.875 668.215L280.384 668.215z" stroke="none" fill="#FFF100" fill-rule="nonzero" /><path id="246" transform="matrix(1 0 0 -1 0 841)" d="M282.626 657.007L294.192 657.007L294.192 668.215L282.626 668.215z" stroke="none" fill="#FFF100" fill-rule="nonzero" /><path id="250" transform="matrix(1 0 0 -1 0 841)" d="M293.694 657.007L314.665 657.007L314.665 668.215L293.694 668.215z" stroke="none" fill="#FFF100" fill-rule="nonzero" /><path id="255" transform="matrix(1 0 0 -1 0 841)" d="M314.416 657.007L316.907 657.007L316.907 668.215L314.416 668.215z" stroke="none" fill="#FFF100" fill-rule="nonzero" /><path id="256" transform="matrix(1 0 0 -1 0 841)" d="M316.658 657.007L324.907 657.007L324.907 668.215L316.658 668.215z" stroke="none" fill="#FFF100" fill-rule="nonzero" /><path id="259" transform="matrix(1 0 0 -1 0 841)" d="M324.409 657.007L335.428 657.007L335.428 668.215L324.409 668.215z" stroke="none" fill="#FFF100" fill-rule="nonzero" /><path id="262" transform="matrix(1 0 0 -1 0 841)" d="M334.929 657.007L347.601 657.007L347.601 668.215L334.929 668.215z" stroke="none" fill="#FFF100" fill-rule="nonzero" /><path id="266" transform="matrix(1 0 0 -1 0 841)" d="M347.352 657.007L349.843 657.007L349.843 668.215L347.352 668.215z" stroke="none" fill="#FFF100" fill-rule="nonzero" /><path id="267" transform="matrix(1 0 0 -1 0 841)" d="M349.594 657.007L367.557 657.007L367.557 668.215L349.594 668.215z" stroke="none" fill="#FFF100" fill-rule="nonzero" /><path id="271" transform="matrix(1 0 0 -1 0 841)" d="M367.307 657.007L369.798 657.007L369.798 668.215L367.307 668.215z" stroke="none" fill="#FFF100" fill-rule="nonzero" /><path id="272" transform="matrix(1 0 0 -1 0 841)" d="M369.549 657.007L375.666 657.007L375.666 668.215L369.549 668.215z" stroke="none" fill="#FFF100" fill-rule="nonzero" /><path id="274" transform="matrix(1 0 0 -1 0 841)" d="M375.417 657.007L377.908 657.007L377.908 668.215L375.417 668.215z" stroke="none" fill="#FFF100" fill-rule="nonzero" /><path id="275" transform="matrix(1 0 0 -1 0 841)" d="M377.659 657.007L385.898 657.007L385.898 668.215L377.659 668.215z" stroke="none" fill="#FFF100" fill-rule="nonzero" /><path id="278" transform="matrix(1 0 0 -1 0 841)" d="M385.399 657.007L396.408 657.007L396.408 668.215L385.399 668.215z" stroke="none" fill="#FFF100" fill-rule="nonzero" /><path id="282" transform="matrix(1 0 0 -1 0 841)" d="M395.91 657.007L405.813 657.007L405.813 668.215L395.91 668.215z" stroke="none" fill="#FFF100" fill-rule="nonzero" /><path id="285" transform="matrix(1 0 0 -1 0 841)" d="M405.314 657.007L425.179 657.007L425.179 668.215L405.314 668.215z" stroke="none" fill="#FFF100" fill-rule="nonzero" /><path id="291" transform="matrix(1 0 0 -1 0 841)" d="M424.931 657.007L427.422 657.007L427.422 668.215L424.931 668.215z" stroke="none" fill="#FFF100" fill-rule="nonzero" /><path id="292" transform="matrix(1 0 0 -1 0 841)" d="M427.172 657.007L466.797 657.007L466.797 668.215L427.172 668.215z" stroke="none" fill="#FFF100" fill-rule="nonzero" /><path id="300" transform="matrix(1 0 0 -1 0 841)" d="M466.548 657.007L469.039 657.007L469.039 668.215L466.548 668.215z" stroke="none" fill="#FFF100" fill-rule="nonzero" /><path id="301" transform="matrix(1 0 0 -1 0 841)" d="M468.79 657.007L479.81 657.007L479.81 668.215L468.79 668.215z" stroke="none" fill="#FFF100" fill-rule="nonzero" /><path id="304" transform="matrix(1 0 0 -1 0 841)" d="M479.561 657.007L482.052 657.007L482.052 668.215L479.561 668.215z" stroke="none" fill="#FFF100" fill-rule="nonzero" /><path id="305" transform="matrix(1 0 0 -1 0 841)" d="M481.803 657.007L487.92 657.007L487.92 668.215L481.803 668.215z" stroke="none" fill="#FFF100" fill-rule="nonzero" /><path id="307" transform="matrix(1 0 0 -1 0 841)" d="M487.67 657.007L490.161 657.007L490.161 668.215L487.67 668.215z" stroke="none" fill="#FFF100" fill-rule="nonzero" /><path id="308" transform="matrix(1 0 0 -1 0 841)" d="M489.912 657.007L505.923 657.007L505.923 668.215L489.912 668.215z" stroke="none" fill="#FFF100" fill-rule="nonzero" /><path id="312" transform="matrix(1 0 0 -1 0 841)" d="M84.79 641.522L96.357 641.522L96.357 652.73L84.79 652.73z" stroke="none" fill="#FFF100" fill-rule="nonzero" /><path id="315" transform="matrix(1 0 0 -1 0 841)" d="M95.859 641.522L108.531 641.522L108.531 652.73L95.859 652.73z" stroke="none" fill="#FFF100" fill-rule="nonzero" /><path id="318" transform="matrix(1 0 0 -1 0 841)" d="M108.033 641.522L120.705 641.522L120.705 652.73L108.033 652.73z" stroke="none" fill="#FFF100" fill-rule="nonzero" /><path id="322" transform="matrix(1 0 0 -1 0 841)" d="M120.456 641.522L122.947 641.522L122.947 652.73L120.456 652.73z" stroke="none" fill="#FFF100" fill-rule="nonzero" /><path id="323" transform="matrix(1 0 0 -1 0 841)" d="M122.698 641.522L142.015 641.522L142.015 652.73L122.698 652.73z" stroke="none" fill="#FFF100" fill-rule="nonzero" /><path id="328" transform="matrix(1 0 0 -1 0 841)" d="M141.517 641.522L159.728 641.522L159.728 652.73L141.517 652.73z" stroke="none" fill="#FFF100" fill-rule="nonzero" /><path id="521" transform="matrix(1 0 0 -1 0 841)" d="M169.87 573.117L186.079 573.117" stroke="#000000" stroke-width="0.398" fill="none" /><path id="539" transform="matrix(1 0 0 -1 0 841)" d="M200.639 573.117L266.051 573.117" stroke="#000000" stroke-width="0.398" fill="none" /><path id="561" transform="matrix(1 0 0 -1 0 841)" d="M298.941 573.117L315.15 573.117" stroke="#000000" stroke-width="0.398" fill="none" /><path id="565" transform="matrix(1 0 0 -1 0 841)" d="M279.415 587.419L319.734 587.419" stroke="#000000" stroke-width="0.398" fill="none" /><path id="566" transform="matrix(1 0 0 -1 0 841)" d="M279.614 558.522L279.614 587.418" stroke="#000000" stroke-width="0.398" fill="none" /><path id="567" transform="matrix(1 0 0 -1 0 841)" d="M319.534 558.522L319.534 587.418" stroke="#000000" stroke-width="0.398" fill="none" /><path id="568" transform="matrix(1 0 0 -1 0 841)" d="M279.415 558.522L319.734 558.522" stroke="#000000" stroke-width="0.398" fill="none" /><path id="676" transform="matrix(1 0 0 -1 0 841)" d="M141.551 497.621L204.395 497.621" stroke="#000000" stroke-width="0.398" fill="none" /><path id="687" transform="matrix(1 0 0 -1 0 841)" d="M84.79 474.516L96.357 474.516L96.357 485.724L84.79 485.724z" stroke="none" fill="#FFF100" fill-rule="nonzero" /><path id="690" transform="matrix(1 0 0 -1 0 841)" d="M95.859 474.516L108.531 474.516L108.531 485.724L95.859 485.724z" stroke="none" fill="#FFF100" fill-rule="nonzero" /><path id="693" transform="matrix(1 0 0 -1 0 841)" d="M108.033 474.516L120.705 474.516L120.705 485.724L108.033 485.724z" stroke="none" fill="#FFF100" fill-rule="nonzero" /><path id="697" transform="matrix(1 0 0 -1 0 841)" d="M120.456 474.516L122.947 474.516L122.947 485.724L120.456 485.724z" stroke="none" fill="#FFF100" fill-rule="nonzero" /><path id="698" transform="matrix(1 0 0 -1 0 841)" d="M122.698 474.516L142.015 474.516L142.015 485.724L122.698 485.724z" stroke="none" fill="#FFF100" fill-rule="nonzero" /><path id="703" transform="matrix(1 0 0 -1 0 841)" d="M141.517 474.516L159.728 474.516L159.728 485.724L141.517 485.724z" stroke="none" fill="#FFF100" fill-rule="nonzero" /><path id="933" transform="matrix(1 0 0 -1 0 841)" d="M141.551 394.311L217.832 394.311" stroke="#000000" stroke-width="0.398" fill="none" /><path id="949" transform="matrix(1 0 0 -1 0 841)" d="M253.889 401.813L278.925 401.813" stroke="#000000" stroke-width="0.398" fill="none" /><path id="950" transform="matrix(1 0 0 -1 0 841)" d="M254.088 388.478L254.088 401.813" stroke="#000000" stroke-width="0.398" fill="none" /><path id="951" transform="matrix(1 0 0 -1 0 841)" d="M278.726 388.478L278.726 401.813" stroke="#000000" stroke-width="0.398" fill="none" /><path id="952" transform="matrix(1 0 0 -1 0 841)" d="M253.889 388.478L278.925 388.478" stroke="#000000" stroke-width="0.398" fill="none" /><path id="1346" transform="matrix(1 0 0 -1 0 841)" d="M84.79 248.037L96.357 248.037L96.357 259.245L84.79 259.245z" stroke="none" fill="#FFF100" fill-rule="nonzero" /><path id="1349" transform="matrix(1 0 0 -1 0 841)" d="M95.859 248.037L108.531 248.037L108.531 259.245L95.859 259.245z" stroke="none" fill="#FFF100" fill-rule="nonzero" /><path id="1352" transform="matrix(1 0 0 -1 0 841)" d="M108.033 248.037L120.705 248.037L120.705 259.245L108.033 259.245z" stroke="none" fill="#FFF100" fill-rule="nonzero" /><path id="1356" transform="matrix(1 0 0 -1 0 841)" d="M120.456 248.037L122.947 248.037L122.947 259.245L120.456 259.245z" stroke="none" fill="#FFF100" fill-rule="nonzero" /><path id="1357" transform="matrix(1 0 0 -1 0 841)" d="M122.698 248.037L142.015 248.037L142.015 259.245L122.698 259.245z" stroke="none" fill="#FFF100" fill-rule="nonzero" /><path id="1362" transform="matrix(1 0 0 -1 0 841)" d="M141.517 248.037L159.728 248.037L159.728 259.245L141.517 259.245z" stroke="none" fill="#FFF100" fill-rule="nonzero" /><path id="1584" transform="matrix(1 0 0 -1 0 841)" d="M202.582 192.301L261.02 192.301" stroke="#000000" stroke-width="0.398" fill="none" /><path id="1617" transform="matrix(1 0 0 -1 0 841)" d="M275.579 192.301L409.206 192.301" stroke="#000000" stroke-width="0.398" fill="none" /><path id="1655" transform="matrix(1 0 0 -1 0 841)" d="M101.259 168.172L212.427 168.172" stroke="#000000" stroke-width="0.398" fill="none" /><path id="1659" transform="matrix(1 0 0 -1 0 841)" d="M96.19 155.42L217.497 155.42" stroke="#000000" stroke-width="0.398" fill="none" /><path id="1684" transform="matrix(1 0 0 -1 0 841)" d="M183.275 141.223L216.301 141.223" stroke="#000000" stroke-width="0.398" fill="none" /><path id="1701" transform="matrix(1 0 0 -1 0 841)" d="M235.444 155.42L293.882 155.42" stroke="#000000" stroke-width="0.398" fill="none" /><path id="1713" transform="matrix(1 0 0 -1 0 841)" d="M230.861 169.721L298.465 169.721" stroke="#000000" stroke-width="0.398" fill="none" /><path id="1714" transform="matrix(1 0 0 -1 0 841)" d="M231.06 140.825L231.06 169.721" stroke="#000000" stroke-width="0.398" fill="none" /><path id="1715" transform="matrix(1 0 0 -1 0 841)" d="M298.265 140.825L298.265 169.721" stroke="#000000" stroke-width="0.398" fill="none" /><path id="1716" transform="matrix(1 0 0 -1 0 841)" d="M230.861 140.825L298.465 140.825" stroke="#000000" stroke-width="0.398" fill="none" /><path id="1785" transform="matrix(1 0 0 -1 0 841)" d="M199.255 91.376L298.214 91.376" stroke="#000000" stroke-width="0.398" fill="none" /></g></g></svg>