<svg xmlns="http://www.w3.org/2000/svg" xmlns:xlink="http://www.w3.org/1999/xlink" id="body_179" preserveAspectRatio="xMinYMin meet" viewBox="0 0 793 1121"><defs><clipPath id="1"><path id="" clip-rule="evenodd" transform="matrix(1 0 0 1 0 0)" d="M0 841L0 -0.8900146L0 -0.8900146L595.276 -0.8900146L595.276 -0.8900146L595.276 841L595.276 841L0 841z" /></clipPath></defs><g transform="matrix(1.333333 0 0 1.333333 0 0)"><g clip-path="url(#1)"><path id="51" transform="matrix(1 0 0 -1 0 841)" d="M85.039 766.564L510.236 766.564" stroke="#000000" stroke-width="0.498" fill="none" /><path id="69" transform="matrix(1 0 0 -1 0 841)" d="M85.039 143.688L85.039 732.87C 85.039 735.2184 86.94264 737.1221 89.29099 737.1221L89.29099 737.1221L505.9893 737.1221C 508.3377 737.1221 510.2413 735.2184 510.2413 732.87L510.2413 732.87L510.2413 143.688C 510.2413 141.3396 508.3377 139.436 505.9893 139.436L505.9893 139.436L89.29099 139.436C 86.94264 139.436 85.039 141.3396 85.039 143.688z" stroke="none" fill="#BFBFFF" fill-rule="nonzero" /><path id="70" transform="matrix(1 0 0 -1 0 841)" d="M86.45631 143.688L86.45631 719.7065L86.45631 719.7065L508.824 719.7065L508.824 719.7065L508.824 143.688C 508.824 142.1224 507.5549 140.8533 505.9893 140.8533L505.9893 140.8533L89.29099 140.8533C 87.72543 140.8533 86.45631 142.1224 86.45631 143.688z" stroke="none" fill="#E6E6FF" fill-rule="nonzero" /></g></g></svg>