<svg xmlns="http://www.w3.org/2000/svg" xmlns:xlink="http://www.w3.org/1999/xlink" id="body_272" preserveAspectRatio="xMinYMin meet" viewBox="0 0 793 1121"><defs><clipPath id="1"><path id="" clip-rule="evenodd" transform="matrix(1 0 0 1 0 0)" d="M0 841L0 -0.8900146L0 -0.8900146L595.276 -0.8900146L595.276 -0.8900146L595.276 841L595.276 841L0 841z" /></clipPath></defs><g transform="matrix(1.333333 0 0 1.333333 0 0)"><g clip-path="url(#1)"><path id="24" transform="matrix(1 0 0 -1 0 841)" d="M85.039 766.564L510.236 766.564" stroke="#000000" stroke-width="0.498" fill="none" /><path id="46" transform="matrix(1 0 0 -1 0 841)" d="M292.502 709.99L324.103 709.99" stroke="#000000" stroke-width="0.398" fill="none" /><path id="174" transform="matrix(1 0 0 -1 0 841)" d="M113.508 625.093L173.612 625.093" stroke="#000000" stroke-width="0.398" fill="none" /><path id="187" transform="matrix(1 0 0 -1 0 841)" d="M183.751 625.093L208.657 625.093" stroke="#000000" stroke-width="0.398" fill="none" /><path id="199" transform="matrix(1 0 0 -1 0 841)" d="M218.797 625.093L242.827 625.093" stroke="#000000" stroke-width="0.398" fill="none" /><path id="216" transform="matrix(1 0 0 -1 0 841)" d="M260.774 625.093L319.903 625.093" stroke="#000000" stroke-width="0.398" fill="none" /><path id="220" transform="matrix(1 0 0 -1 0 841)" d="M256.191 639.394L324.485 639.394" stroke="#000000" stroke-width="0.398" fill="none" /><path id="221" transform="matrix(1 0 0 -1 0 841)" d="M256.391 610.548L256.391 639.395" stroke="#000000" stroke-width="0.398" fill="none" /><path id="222" transform="matrix(1 0 0 -1 0 841)" d="M324.286 610.548L324.286 639.395" stroke="#000000" stroke-width="0.398" fill="none" /><path id="223" transform="matrix(1 0 0 -1 0 841)" d="M256.191 610.548L324.485 610.548" stroke="#000000" stroke-width="0.398" fill="none" /><path id="349" transform="matrix(1 0 0 -1 0 841)" d="M113.508 534.327L173.612 534.327" stroke="#000000" stroke-width="0.398" fill="none" /><path id="366" transform="matrix(1 0 0 -1 0 841)" d="M183.751 534.327L213.639 534.327" stroke="#000000" stroke-width="0.398" fill="none" /><path id="384" transform="matrix(1 0 0 -1 0 841)" d="M243.704 534.327L258.648 534.327" stroke="#000000" stroke-width="0.398" fill="none" /><path id="404" transform="matrix(1 0 0 -1 0 841)" d="M276.595 534.327L355.509 534.327" stroke="#000000" stroke-width="0.398" fill="none" /><path id="408" transform="matrix(1 0 0 -1 0 841)" d="M272.012 548.628L360.092 548.628" stroke="#000000" stroke-width="0.398" fill="none" /><path id="409" transform="matrix(1 0 0 -1 0 841)" d="M272.211 519.781L272.211 548.628" stroke="#000000" stroke-width="0.398" fill="none" /><path id="410" transform="matrix(1 0 0 -1 0 841)" d="M359.893 519.781L359.893 548.628" stroke="#000000" stroke-width="0.398" fill="none" /><path id="411" transform="matrix(1 0 0 -1 0 841)" d="M272.012 519.781L360.092 519.781" stroke="#000000" stroke-width="0.398" fill="none" /><path id="623" transform="matrix(1 0 0 -1 0 841)" d="M225.897 400.5076L112.5098 400.5076L112.5098 400.5076L112.5098 357.9874L112.5098 357.9874L225.897 357.9874z" stroke="#000000" stroke-width="0.3985" fill="#E3F5FD" fill-rule="nonzero" /><path id="624" transform="matrix(1 0 0 -1 0 841)" d="M225.897 400.5076L247.7237 422.3343L247.7237 422.3343L247.7237 379.8141L247.7237 379.8141L225.897 357.9874z" stroke="#000000" stroke-width="0.3985" fill="#FFFFFF" fill-rule="nonzero" /><path id="625" transform="matrix(1 0 0 -1 0 841)" d="M225.897 400.5076L247.7237 422.3343L247.7237 422.3343L247.7237 379.8141L247.7237 379.8141L225.897 357.9874z" stroke="#000000" stroke-width="0.3985" fill="#E3F5FD" fill-rule="nonzero" /><path id="626" transform="matrix(1 0 0 -1 0 841)" d="M112.5098 414.681L134.3365 436.5077L134.3365 436.5077L134.3365 422.3343L134.3365 422.3343L112.5098 400.5076z" stroke="#000000" stroke-width="0.3985" fill="none" /><path id="627" transform="matrix(1 0 0 -1 0 841)" d="M225.897 400.5076L112.5098 400.5076L112.5098 400.5076L134.3365 422.3343L134.3365 422.3343L247.7237 422.3343z" stroke="#000000" stroke-width="0.3985" fill="none" /><path id="628" transform="matrix(1 0 0 -1 0 841)" d="M225.897 414.681L112.5098 414.681L112.5098 414.681L112.5098 400.5076L112.5098 400.5076L225.897 400.5076z" stroke="#000000" stroke-width="0.3985" fill="#FFFFFF" fill-rule="nonzero" /><path id="629" transform="matrix(1 0 0 -1 0 841)" d="M225.897 414.681L247.7237 436.5077L247.7237 436.5077L247.7237 422.3343L247.7237 422.3343L225.897 400.5076z" stroke="#000000" stroke-width="0.3985" fill="#FFFFFF" fill-rule="nonzero" /><path id="630" transform="matrix(1 0 0 -1 0 841)" d="M225.897 414.681L247.7237 436.5077L247.7237 436.5077L247.7237 422.3343L247.7237 422.3343L225.897 400.5076z" stroke="#000000" stroke-width="0.3985" fill="#FFFFFF" fill-rule="nonzero" /><path id="631" transform="matrix(1 0 0 -1 0 841)" d="M225.897 414.681L112.5098 414.681L112.5098 414.681L134.3365 436.5077L134.3365 436.5077L247.7237 436.5077z" stroke="#000000" stroke-width="0.3985" fill="#FFFFFF" fill-rule="nonzero" /><path id="632" transform="matrix(1 0 0 -1 0 841)" d="M112.9083 349.4833L225.4985 349.4833" stroke="#000000" stroke-width="0.3985" fill="none" /><path id="633" transform="matrix(1 0 0 -1 0 841)" d="M114.7813 347.0922C 114.4027 348.5269 113.559 349.2043 112.709 349.4832C 113.559 349.7622 114.4027 350.4396 114.7813 351.8743" stroke="#000000" stroke-width="0.3985" stroke-linecap="round" fill="none" /><path id="634" transform="matrix(1 0 0 -1 0 841)" d="M223.6255 351.8743C 224.0041 350.4396 224.8477 349.7622 225.6977 349.4832C 224.8477 349.2043 224.0041 348.5269 223.6255 347.0922" stroke="#000000" stroke-width="0.3985" stroke-linecap="round" fill="none" /><path id="642" transform="matrix(1 0 0 -1 0 841)" d="M254.2438 378.2286L254.2438 419.9518" stroke="#000000" stroke-width="0.3985" fill="none" /><path id="643" transform="matrix(1 0 0 -1 0 841)" d="M256.6348 380.1016C 255.2002 379.723 254.5227 378.8793 254.2438 378.0293C 253.9648 378.8793 253.2874 379.723 251.8528 380.1016" stroke="#000000" stroke-width="0.3985" stroke-linecap="round" fill="none" /><path id="644" transform="matrix(1 0 0 -1 0 841)" d="M251.8528 418.0788C 253.2874 418.4573 253.9648 419.301 254.2438 420.151C 254.5227 419.301 255.2002 418.4573 256.6348 418.0788" stroke="#000000" stroke-width="0.3985" stroke-linecap="round" fill="none" /><path id="667" transform="matrix(1 0 0 -1 0 841)" d="M237.2355 369.1578L237.2355 383.1009" stroke="#000000" stroke-width="0.3985" fill="none" /><path id="668" transform="matrix(1 0 0 -1 0 841)" d="M239.6266 371.0308C 238.1919 370.6522 237.5145 369.8085 237.2355 368.9586C 236.9566 369.8085 236.2792 370.6522 234.8445 371.0308" stroke="#000000" stroke-width="0.3985" stroke-linecap="round" fill="none" /><path id="669" transform="matrix(1 0 0 -1 0 841)" d="M234.8445 381.2278C 236.2792 381.6064 236.9566 382.4501 237.2355 383.3001C 237.5145 382.4501 238.1919 381.6064 239.6266 381.2278" stroke="#000000" stroke-width="0.3985" stroke-linecap="round" fill="none" /><path id="689" transform="matrix(1 0 0 -1 0 841)" d="M254.2438 436.96L254.2438 420.7487" stroke="#000000" stroke-width="0.3985" fill="none" /><path id="690" transform="matrix(1 0 0 -1 0 841)" d="M251.8528 435.087C 253.2874 435.4656 253.9648 436.3093 254.2438 437.1592C 254.5227 436.3093 255.2002 435.4656 256.6348 435.087" stroke="#000000" stroke-width="0.3985" stroke-linecap="round" fill="none" /><path id="691" transform="matrix(1 0 0 -1 0 841)" d="M256.6348 422.6217C 255.2002 422.2432 254.5227 421.3995 254.2438 420.5495C 253.9648 421.3995 253.2874 422.2432 251.8528 422.6217" stroke="#000000" stroke-width="0.3985" stroke-linecap="round" fill="none" /><path id="703" transform="matrix(1 0 0 -1 0 841)" d="M253.962 377.5483L226.1788 349.765" stroke="#000000" stroke-width="0.3985" fill="none" /><path id="704" transform="matrix(1 0 0 -1 0 841)" d="M250.9469 377.9146C 252.2291 377.1678 253.3046 377.2854 254.1029 377.6892C 253.6991 376.8909 253.5816 375.8153 254.3283 374.5332" stroke="#000000" stroke-width="0.3984962" stroke-linecap="round" fill="none" /><path id="705" transform="matrix(1 0 0 -1 0 841)" d="M229.1939 349.3987C 227.9117 350.1454 226.8362 350.0279 226.0379 349.6241C 226.4417 350.4224 226.5592 351.498 225.8125 352.7801" stroke="#000000" stroke-width="0.3984962" stroke-linecap="round" fill="none" /><path id="779" transform="matrix(1 0 0 -1 0 841)" d="M199.732 294.421L212.972 294.421" stroke="#000000" stroke-width="0.398" fill="none" /><path id="785" transform="matrix(1 0 0 -1 0 841)" d="M136.192 278.775L214.168 278.775" stroke="#000000" stroke-width="0.398" fill="none" /><path id="794" transform="matrix(1 0 0 -1 0 841)" d="M175.18 265.005L190.124 265.005" stroke="#000000" stroke-width="0.398" fill="none" /><path id="804" transform="matrix(1 0 0 -1 0 841)" d="M227.532 286.138L259.213 286.138" stroke="#000000" stroke-width="0.398" fill="none" /><path id="805" transform="matrix(1 0 0 -1 0 841)" d="M227.731 272.987L227.731 286.138" stroke="#000000" stroke-width="0.398" fill="none" /><path id="806" transform="matrix(1 0 0 -1 0 841)" d="M259.014 272.987L259.014 286.138" stroke="#000000" stroke-width="0.398" fill="none" /><path id="807" transform="matrix(1 0 0 -1 0 841)" d="M227.532 272.987L259.213 272.987" stroke="#000000" stroke-width="0.398" fill="none" /><path id="949" transform="matrix(1 0 0 -1 0 841)" d="M113.508 168.879L174.332 168.879" stroke="#000000" stroke-width="0.398" fill="none" /><path id="957" transform="matrix(1 0 0 -1 0 841)" d="M184.471 168.879L224.321 168.879" stroke="#000000" stroke-width="0.398" fill="none" /><path id="973" transform="matrix(1 0 0 -1 0 841)" d="M266.07 168.879L336.245 168.879" stroke="#000000" stroke-width="0.398" fill="none" /><path id="1000" transform="matrix(1 0 0 -1 0 841)" d="M349.609 176.381L448.273 176.381" stroke="#000000" stroke-width="0.398" fill="none" /><path id="1001" transform="matrix(1 0 0 -1 0 841)" d="M349.808 161.168L349.808 176.381" stroke="#000000" stroke-width="0.398" fill="none" /><path id="1002" transform="matrix(1 0 0 -1 0 841)" d="M448.073 161.168L448.073 176.381" stroke="#000000" stroke-width="0.398" fill="none" /><path id="1003" transform="matrix(1 0 0 -1 0 841)" d="M349.609 161.168L448.273 161.168" stroke="#000000" stroke-width="0.398" fill="none" /><path id="1044" transform="matrix(1 0 0 -1 0 841)" d="M168.216 112.833L185.92 112.833" stroke="#000000" stroke-width="0.398" fill="none" /><path id="1064" transform="matrix(1 0 0 -1 0 841)" d="M199.284 120.389L292.09 120.389" stroke="#000000" stroke-width="0.398" fill="none" /><path id="1065" transform="matrix(1 0 0 -1 0 841)" d="M199.483 105.122L199.483 120.39" stroke="#000000" stroke-width="0.398" fill="none" /><path id="1066" transform="matrix(1 0 0 -1 0 841)" d="M291.89 105.122L291.89 120.39" stroke="#000000" stroke-width="0.398" fill="none" /><path id="1067" transform="matrix(1 0 0 -1 0 841)" d="M199.284 105.122L292.09 105.122" stroke="#000000" stroke-width="0.398" fill="none" /></g></g></svg>