<svg xmlns="http://www.w3.org/2000/svg" xmlns:xlink="http://www.w3.org/1999/xlink" id="body_56" preserveAspectRatio="xMinYMin meet" viewBox="0 0 793 1121"><defs><clipPath id="1"><path id="" clip-rule="evenodd" transform="matrix(1 0 0 1 0 0)" d="M0 841L0 -0.8900146L0 -0.8900146L595.276 -0.8900146L595.276 -0.8900146L595.276 841L595.276 841L0 841z" /></clipPath></defs><g transform="matrix(1.333333 0 0 1.333333 0 0)"><g clip-path="url(#1)"><path id="43" transform="matrix(1 0 0 -1 0 841)" d="M85.039 766.564L510.236 766.564" stroke="#000000" stroke-width="0.498" fill="none" /><g transform="matrix(0.503805 0 0 0.5038049 85.039 84.14758)"><g transform="matrix(1 0 0 1 0 0)"><image x="0" y="0" xlink:href="img_96.png" width="844" height="536" /></g></g><g transform="matrix(0.351405 0 0 0.351405 100.027 409.741)"><g transform="matrix(1 0 0 1 0 0)"><image x="0" y="0" xlink:href="img_97.png" width="484" height="363" /></g></g><g transform="matrix(0.2645775 0 0 0.2645775 346.427 399.9853)"><g transform="matrix(1 0 0 1 0 0)"><image x="0" y="0" xlink:href="img_98.png" width="450" height="519" /></g></g></g></g></svg>