<svg xmlns="http://www.w3.org/2000/svg" xmlns:xlink="http://www.w3.org/1999/xlink" id="body_41" preserveAspectRatio="xMinYMin meet" viewBox="0 0 793 1121"><defs><clipPath id="1"><path id="" clip-rule="evenodd" transform="matrix(1 0 0 1 0 0)" d="M0 841L0 -0.8900146L0 -0.8900146L595.276 -0.8900146L595.276 -0.8900146L595.276 841L595.276 841L0 841z" /></clipPath></defs><g transform="matrix(1.333333 0 0 1.333333 0 0)"><g clip-path="url(#1)"><path id="45" transform="matrix(1 0 0 -1 0 841)" d="M85.039 766.564L510.236 766.564" stroke="#000000" stroke-width="0.498" fill="none" /><path id="449" transform="matrix(1 0 0 -1 0 841)" d="M156.463 639.781L166.048 639.781L166.048 652.054L156.463 652.054z" stroke="none" fill="#FFF100" fill-rule="nonzero" /><path id="452" transform="matrix(1 0 0 -1 0 841)" d="M165.618 639.781L168.034 639.781L168.034 652.054L165.618 652.054z" stroke="none" fill="#FFF100" fill-rule="nonzero" /><path id="453" transform="matrix(1 0 0 -1 0 841)" d="M167.784 639.781L174.347 639.781L174.347 652.054L167.784 652.054z" stroke="none" fill="#FFF100" fill-rule="nonzero" /><path id="456" transform="matrix(1 0 0 -1 0 841)" d="M173.977 639.781L176.393 639.781L176.393 652.054L173.977 652.054z" stroke="none" fill="#FFF100" fill-rule="nonzero" /><path id="457" transform="matrix(1 0 0 -1 0 841)" d="M176.144 639.781L183.918 639.781L183.918 652.054L176.144 652.054z" stroke="none" fill="#FFF100" fill-rule="nonzero" /><path id="460" transform="matrix(1 0 0 -1 0 841)" d="M183.524 639.781L185.94 639.781L185.94 652.054L183.524 652.054z" stroke="none" fill="#FFF100" fill-rule="nonzero" /><path id="461" transform="matrix(1 0 0 -1 0 841)" d="M185.691 639.781L200.131 639.781L200.131 652.054L185.691 652.054z" stroke="none" fill="#FFF100" fill-rule="nonzero" /><path id="465" transform="matrix(1 0 0 -1 0 841)" d="M199.603 639.781L202.019 639.781L202.019 652.054L199.603 652.054z" stroke="none" fill="#FFF100" fill-rule="nonzero" /><path id="466" transform="matrix(1 0 0 -1 0 841)" d="M201.77 639.781L221.042 639.781L221.042 652.054L201.77 652.054z" stroke="none" fill="#FFF100" fill-rule="nonzero" /><path id="471" transform="matrix(1 0 0 -1 0 841)" d="M220.169 639.781L226.732 639.781L226.732 652.054L220.169 652.054z" stroke="none" fill="#FFF100" fill-rule="nonzero" /><path id="474" transform="matrix(1 0 0 -1 0 841)" d="M226.112 639.781L239.33 639.781L239.33 652.054L226.112 652.054z" stroke="none" fill="#FFF100" fill-rule="nonzero" /><path id="478" transform="matrix(1 0 0 -1 0 841)" d="M238.827 639.781L241.243 639.781L241.243 652.054L238.827 652.054z" stroke="none" fill="#FFF100" fill-rule="nonzero" /><path id="479" transform="matrix(1 0 0 -1 0 841)" d="M240.994 639.781L249.979 639.781L249.979 652.054L240.994 652.054z" stroke="none" fill="#FFF100" fill-rule="nonzero" /><path id="482" transform="matrix(1 0 0 -1 0 841)" d="M249.56 639.781L251.976 639.781L251.976 652.054L249.56 652.054z" stroke="none" fill="#FFF100" fill-rule="nonzero" /><path id="483" transform="matrix(1 0 0 -1 0 841)" d="M251.727 639.781L262.523 639.781L262.523 652.054L251.727 652.054z" stroke="none" fill="#FFF100" fill-rule="nonzero" /><path id="486" transform="matrix(1 0 0 -1 0 841)" d="M261.819 639.781L278.069 639.781L278.069 652.054L261.819 652.054z" stroke="none" fill="#FFF100" fill-rule="nonzero" /><path id="491" transform="matrix(1 0 0 -1 0 841)" d="M277.506 639.781L279.922 639.781L279.922 652.054L277.506 652.054z" stroke="none" fill="#FFF100" fill-rule="nonzero" /><path id="492" transform="matrix(1 0 0 -1 0 841)" d="M279.673 639.781L295.924 639.781L295.924 652.054L279.673 652.054z" stroke="none" fill="#FFF100" fill-rule="nonzero" /><path id="496" transform="matrix(1 0 0 -1 0 841)" d="M295.359 639.781L297.775 639.781L297.775 652.054L295.359 652.054z" stroke="none" fill="#FFF100" fill-rule="nonzero" /><path id="497" transform="matrix(1 0 0 -1 0 841)" d="M297.526 639.781L319.231 639.781L319.231 652.054L297.526 652.054z" stroke="none" fill="#FFF100" fill-rule="nonzero" /><path id="502" transform="matrix(1 0 0 -1 0 841)" d="M318.309 639.781L333.96 639.781L333.96 652.054L318.309 652.054z" stroke="none" fill="#FFF100" fill-rule="nonzero" /><path id="507" transform="matrix(1 0 0 -1 0 841)" d="M333.408 639.781L335.824 639.781L335.824 652.054L333.408 652.054z" stroke="none" fill="#FFF100" fill-rule="nonzero" /><path id="508" transform="matrix(1 0 0 -1 0 841)" d="M335.575 639.781L346.982 639.781L346.982 652.054L335.575 652.054z" stroke="none" fill="#FFF100" fill-rule="nonzero" /><path id="512" transform="matrix(1 0 0 -1 0 841)" d="M346.514 639.781L348.93 639.781L348.93 652.054L346.514 652.054z" stroke="none" fill="#FFF100" fill-rule="nonzero" /><path id="513" transform="matrix(1 0 0 -1 0 841)" d="M348.681 639.781L393.415 639.781L393.415 652.054L348.681 652.054z" stroke="none" fill="#FFF100" fill-rule="nonzero" /><path id="523" transform="matrix(1 0 0 -1 0 841)" d="M392.281 639.781L394.697 639.781L394.697 652.054L392.281 652.054z" stroke="none" fill="#FFF100" fill-rule="nonzero" /><path id="524" transform="matrix(1 0 0 -1 0 841)" d="M394.448 639.781L404.033 639.781L404.033 652.054L394.448 652.054z" stroke="none" fill="#FFF100" fill-rule="nonzero" /><path id="527" transform="matrix(1 0 0 -1 0 841)" d="M403.354 639.781L413.55 639.781L413.55 652.054L403.354 652.054z" stroke="none" fill="#FFF100" fill-rule="nonzero" /><path id="530" transform="matrix(1 0 0 -1 0 841)" d="M412.858 639.781L421.232 639.781L421.232 652.054L412.858 652.054z" stroke="none" fill="#FFF100" fill-rule="nonzero" /><path id="533" transform="matrix(1 0 0 -1 0 841)" d="M420.576 639.781L439.248 639.781L439.248 652.054L420.576 652.054z" stroke="none" fill="#FFF100" fill-rule="nonzero" /><path id="538" transform="matrix(1 0 0 -1 0 841)" d="M438.636 639.781L441.052 639.781L441.052 652.054L438.636 652.054z" stroke="none" fill="#FFF100" fill-rule="nonzero" /><path id="539" transform="matrix(1 0 0 -1 0 841)" d="M440.803 639.781L460.697 639.781L460.697 652.054L440.803 652.054z" stroke="none" fill="#FFF100" fill-rule="nonzero" /><path id="544" transform="matrix(1 0 0 -1 0 841)" d="M460.06 639.781L462.476 639.781L462.476 652.054L460.06 652.054z" stroke="none" fill="#FFF100" fill-rule="nonzero" /><path id="545" transform="matrix(1 0 0 -1 0 841)" d="M462.227 639.781L494.95 639.781L494.95 652.054L462.227 652.054z" stroke="none" fill="#FFF100" fill-rule="nonzero" /><path id="552" transform="matrix(1 0 0 -1 0 841)" d="M493.798 639.781L499.14 639.781L499.14 652.054L493.798 652.054z" stroke="none" fill="#FFF100" fill-rule="nonzero" /><path id="554" transform="matrix(1 0 0 -1 0 841)" d="M498.545 639.781L512.679 639.781L512.679 652.054L498.545 652.054z" stroke="none" fill="#FFF100" fill-rule="nonzero" /><path id="1615" transform="matrix(1 0 0 -1 0 841)" d="M170.047 315.557L192.974 315.557L192.974 327.83L170.047 327.83z" stroke="none" fill="#FFF100" fill-rule="nonzero" /><path id="1620" transform="matrix(1 0 0 -1 0 841)" d="M192.77 315.557L195.497 315.557L195.497 327.83L192.77 327.83z" stroke="none" fill="#FFF100" fill-rule="nonzero" /><path id="1621" transform="matrix(1 0 0 -1 0 841)" d="M195.248 315.557L216.353 315.557L216.353 327.83L195.248 327.83z" stroke="none" fill="#FFF100" fill-rule="nonzero" /><path id="1626" transform="matrix(1 0 0 -1 0 841)" d="M215.896 315.557L221.238 315.557L221.238 327.83L215.896 327.83z" stroke="none" fill="#FFF100" fill-rule="nonzero" /><path id="1628" transform="matrix(1 0 0 -1 0 841)" d="M220.749 315.557L234.578 315.557L234.578 327.83L220.749 327.83z" stroke="none" fill="#FFF100" fill-rule="nonzero" /><path id="1632" transform="matrix(1 0 0 -1 0 841)" d="M234.356 315.557L237.083 315.557L237.083 327.83L234.356 327.83z" stroke="none" fill="#FFF100" fill-rule="nonzero" /><path id="1633" transform="matrix(1 0 0 -1 0 841)" d="M236.834 315.557L259.15 315.557L259.15 327.83L236.834 327.83z" stroke="none" fill="#FFF100" fill-rule="nonzero" /><path id="1637" transform="matrix(1 0 0 -1 0 841)" d="M258.696 315.557L273.125 315.557L273.125 327.83L258.696 327.83z" stroke="none" fill="#FFF100" fill-rule="nonzero" /><path id="1641" transform="matrix(1 0 0 -1 0 841)" d="M272.903 315.557L275.63 315.557L275.63 327.83L272.903 327.83z" stroke="none" fill="#FFF100" fill-rule="nonzero" /><path id="1642" transform="matrix(1 0 0 -1 0 841)" d="M275.382 315.557L306.785 315.557L306.785 327.83L275.382 327.83z" stroke="none" fill="#FFF100" fill-rule="nonzero" /></g></g></svg>