<svg xmlns="http://www.w3.org/2000/svg" xmlns:xlink="http://www.w3.org/1999/xlink" id="body_253" preserveAspectRatio="xMinYMin meet" viewBox="0 0 793 1121"><defs><clipPath id="1"><path id="" clip-rule="evenodd" transform="matrix(1 0 0 1 0 0)" d="M0 841L0 -0.8900146L0 -0.8900146L595.276 -0.8900146L595.276 -0.8900146L595.276 841L595.276 841L0 841z" /></clipPath></defs><g transform="matrix(1.333333 0 0 1.333333 0 0)"><g clip-path="url(#1)"><path id="23" transform="matrix(1 0 0 -1 0 841)" d="M85.039 766.564L510.236 766.564" stroke="#000000" stroke-width="0.498" fill="none" /><path id="38" transform="matrix(1 0 0 -1 0 841)" d="M124.461 734.908L150.304 734.908" stroke="#000000" stroke-width="0.398" fill="none" /><path id="72" transform="matrix(1 0 0 -1 0 841)" d="M254.22 745.737L354.951 745.737" stroke="#000000" stroke-width="0.398" fill="none" /><path id="78" transform="matrix(1 0 0 -1 0 841)" d="M164.863 734.908L402.148 734.908" stroke="#000000" stroke-width="0.398" fill="none" /><path id="141" transform="matrix(1 0 0 -1 0 841)" d="M84.79 668.988L96.357 668.988L96.357 680.196L84.79 680.196z" stroke="none" fill="#FFF100" fill-rule="nonzero" /><path id="144" transform="matrix(1 0 0 -1 0 841)" d="M95.859 668.988L108.531 668.988L108.531 680.196L95.859 680.196z" stroke="none" fill="#FFF100" fill-rule="nonzero" /><path id="147" transform="matrix(1 0 0 -1 0 841)" d="M108.033 668.988L120.705 668.988L120.705 680.196L108.033 680.196z" stroke="none" fill="#FFF100" fill-rule="nonzero" /><path id="151" transform="matrix(1 0 0 -1 0 841)" d="M120.456 668.988L122.947 668.988L122.947 680.196L120.456 680.196z" stroke="none" fill="#FFF100" fill-rule="nonzero" /><path id="152" transform="matrix(1 0 0 -1 0 841)" d="M122.698 668.988L142.015 668.988L142.015 680.196L122.698 680.196z" stroke="none" fill="#FFF100" fill-rule="nonzero" /><path id="157" transform="matrix(1 0 0 -1 0 841)" d="M141.517 668.988L163.604 668.988L163.604 680.196L141.517 680.196z" stroke="none" fill="#FFF100" fill-rule="nonzero" /><g transform="matrix(0.375 0 0 0.375 222.399 210.311)"><g transform="matrix(1 0 0 1 0 0)"><image x="0" y="0" xlink:href="img_397.png" width="474" height="243" /></g></g><path id="272" transform="matrix(1 0 0 -1 0 841)" d="M146.155 485.501L162.045 485.501" stroke="#000000" stroke-width="0.398" fill="none" /><path id="283" transform="matrix(1 0 0 -1 0 841)" d="M172.185 485.501L199.572 485.501" stroke="#000000" stroke-width="0.398" fill="none" /><path id="290" transform="matrix(1 0 0 -1 0 841)" d="M209.712 485.501L240.656 485.501" stroke="#000000" stroke-width="0.398" fill="none" /><path id="302" transform="matrix(1 0 0 -1 0 841)" d="M250.795 485.501L296.18 485.501" stroke="#000000" stroke-width="0.398" fill="none" /><path id="315" transform="matrix(1 0 0 -1 0 841)" d="M317.594 485.501L330.316 485.501" stroke="#000000" stroke-width="0.398" fill="none" /><path id="336" transform="matrix(1 0 0 -1 0 841)" d="M418.602 485.501L431.703 485.501" stroke="#000000" stroke-width="0.398" fill="none" /><path id="347" transform="matrix(1 0 0 -1 0 841)" d="M463.079 485.501L476.18 485.501" stroke="#000000" stroke-width="0.398" fill="none" /><path id="356" transform="matrix(1 0 0 -1 0 841)" d="M143.047 458.812L155.769 458.812" stroke="#000000" stroke-width="0.398" fill="none" /><path id="365" transform="matrix(1 0 0 -1 0 841)" d="M170.328 458.812L188.032 458.812" stroke="#000000" stroke-width="0.398" fill="none" /><path id="374" transform="matrix(1 0 0 -1 0 841)" d="M218.701 458.812L231.423 458.812" stroke="#000000" stroke-width="0.398" fill="none" /><path id="378" transform="matrix(1 0 0 -1 0 841)" d="M201.396 472.949L236.006 472.949" stroke="#000000" stroke-width="0.398" fill="none" /><path id="379" transform="matrix(1 0 0 -1 0 841)" d="M201.595 446.189L201.595 472.948" stroke="#000000" stroke-width="0.398" fill="none" /><path id="380" transform="matrix(1 0 0 -1 0 841)" d="M235.806 446.189L235.806 472.948" stroke="#000000" stroke-width="0.398" fill="none" /><path id="381" transform="matrix(1 0 0 -1 0 841)" d="M201.396 446.189L236.006 446.189" stroke="#000000" stroke-width="0.398" fill="none" /><g transform="matrix(0.375 0 0 0.375 112.312 433.744)"><g transform="matrix(1 0 0 1 0 0)"><image x="0" y="0" xlink:href="img_397.png" width="474" height="243" /></g></g><path id="508" transform="matrix(1 0 0 -1 0 841)" d="M137.851 285.575L146.767 285.575" stroke="#000000" stroke-width="0.398" fill="none" /><path id="526" transform="matrix(1 0 0 -1 0 841)" d="M220.34 285.575L233.441 285.575" stroke="#000000" stroke-width="0.398" fill="none" /><path id="536" transform="matrix(1 0 0 -1 0 841)" d="M137.851 260.115L150.952 260.115" stroke="#000000" stroke-width="0.398" fill="none" /><path id="551" transform="matrix(1 0 0 -1 0 841)" d="M161.091 260.115L210.334 260.115" stroke="#000000" stroke-width="0.398" fill="none" /><path id="563" transform="matrix(1 0 0 -1 0 841)" d="M238.177 260.115L251.417 260.115" stroke="#000000" stroke-width="0.398" fill="none" /><path id="580" transform="matrix(1 0 0 -1 0 841)" d="M303.118 260.115L318.022 260.115" stroke="#000000" stroke-width="0.398" fill="none" /><path id="584" transform="matrix(1 0 0 -1 0 841)" d="M264.781 274.417L322.605 274.417" stroke="#000000" stroke-width="0.398" fill="none" /><path id="585" transform="matrix(1 0 0 -1 0 841)" d="M264.98 245.57L264.98 274.417" stroke="#000000" stroke-width="0.398" fill="none" /><path id="586" transform="matrix(1 0 0 -1 0 841)" d="M322.406 245.57L322.406 274.417" stroke="#000000" stroke-width="0.398" fill="none" /><path id="587" transform="matrix(1 0 0 -1 0 841)" d="M264.781 245.57L322.605 245.57" stroke="#000000" stroke-width="0.398" fill="none" /><g transform="matrix(0.375 0 0 0.375 112.312 648.537)"><g transform="matrix(1 0 0 1 0 0)"><image x="0" y="0" xlink:href="img_397.png" width="474" height="243" /></g></g><path id="739" transform="matrix(1 0 0 -1 0 841)" d="M197.481 88.885L204.674 88.885" stroke="#000000" stroke-width="0.398" fill="none" /></g></g></svg>