<svg xmlns="http://www.w3.org/2000/svg" xmlns:xlink="http://www.w3.org/1999/xlink" id="body_412" preserveAspectRatio="xMinYMin meet" viewBox="0 0 793 1121"><defs><clipPath id="1"><path id="" clip-rule="evenodd" transform="matrix(1 0 0 1 0 0)" d="M0 841L0 -0.8900146L0 -0.8900146L595.276 -0.8900146L595.276 -0.8900146L595.276 841L595.276 841L0 841z" /></clipPath></defs><g transform="matrix(1.333333 0 0 1.333333 0 0)"><g clip-path="url(#1)"><path id="31" transform="matrix(1 0 0 -1 0 841)" d="M85.039 766.564L510.236 766.564" stroke="#000000" stroke-width="0.498" fill="none" /><path id="407" transform="matrix(1 0 0 -1 0 841)" d="M179.676 628.54L244.396 628.54" stroke="#000000" stroke-width="0.398" fill="none" /><path id="422" transform="matrix(1 0 0 -1 0 841)" d="M257.849 628.54L322.569 628.54" stroke="#000000" stroke-width="0.398" fill="none" /><path id="448" transform="matrix(1 0 0 -1 0 841)" d="M336.021 628.54L437.276 628.54" stroke="#000000" stroke-width="0.398" fill="none" /><path id="477" transform="matrix(1 0 0 -1 0 841)" d="M449.534 636.042L534.325 636.042" stroke="#000000" stroke-width="0.398" fill="none" /><path id="478" transform="matrix(1 0 0 -1 0 841)" d="M449.733 622.692L449.733 636.042" stroke="#000000" stroke-width="0.398" fill="none" /><path id="479" transform="matrix(1 0 0 -1 0 841)" d="M534.126 622.692L534.126 636.042" stroke="#000000" stroke-width="0.398" fill="none" /><path id="480" transform="matrix(1 0 0 -1 0 841)" d="M449.534 622.692L534.325 622.692" stroke="#000000" stroke-width="0.398" fill="none" /><path id="548" transform="matrix(1 0 0 -1 0 841)" d="M229.462 593.138L298.592 593.138" stroke="#000000" stroke-width="0.398" fill="none" /><path id="637" transform="matrix(1 0 0 -1 0 841)" d="M158.532 560.554L554.787 560.554" stroke="#000000" stroke-width="0.398" fill="none" /><path id="651" transform="matrix(1 0 0 -1 0 841)" d="M303.628 546.358L357.372 546.358" stroke="#000000" stroke-width="0.398" fill="none" /><path id="723" transform="matrix(1 0 0 -1 0 841)" d="M158.532 509.201L452.735 509.201" stroke="#000000" stroke-width="0.398" fill="none" /><path id="740" transform="matrix(1 0 0 -1 0 841)" d="M240.029 495.004L306.186 495.004" stroke="#000000" stroke-width="0.398" fill="none" /><path id="769" transform="matrix(1 0 0 -1 0 841)" d="M493.09 509.201L522.121 509.201" stroke="#000000" stroke-width="0.398" fill="none" /><path id="773" transform="matrix(1 0 0 -1 0 841)" d="M465.823 523.502L526.704 523.502" stroke="#000000" stroke-width="0.398" fill="none" /><path id="774" transform="matrix(1 0 0 -1 0 841)" d="M466.022 494.606L466.022 523.502" stroke="#000000" stroke-width="0.398" fill="none" /><path id="775" transform="matrix(1 0 0 -1 0 841)" d="M526.505 494.606L526.505 523.502" stroke="#000000" stroke-width="0.398" fill="none" /><path id="776" transform="matrix(1 0 0 -1 0 841)" d="M465.823 494.606L526.704 494.606" stroke="#000000" stroke-width="0.398" fill="none" /><path id="867" transform="matrix(1 0 0 -1 0 841)" d="M224.712 421.458L253.743 421.458" stroke="#000000" stroke-width="0.398" fill="none" /><path id="951" transform="matrix(1 0 0 -1 0 841)" d="M158.532 399.241L554.787 399.241" stroke="#000000" stroke-width="0.398" fill="none" /><path id="1074" transform="matrix(1 0 0 -1 0 841)" d="M160.192 363.365L454.395 363.365" stroke="#000000" stroke-width="0.398" fill="none" /><path id="1136" transform="matrix(1 0 0 -1 0 841)" d="M147.462 331.623L195.657 331.623" stroke="#000000" stroke-width="0.398" fill="none" /><path id="1162" transform="matrix(1 0 0 -1 0 841)" d="M231.714 339.015L282.56 339.015" stroke="#000000" stroke-width="0.398" fill="none" /><path id="1163" transform="matrix(1 0 0 -1 0 841)" d="M231.914 324.369L231.914 339.015" stroke="#000000" stroke-width="0.398" fill="none" /><path id="1164" transform="matrix(1 0 0 -1 0 841)" d="M282.361 324.369L282.361 339.015" stroke="#000000" stroke-width="0.398" fill="none" /><path id="1165" transform="matrix(1 0 0 -1 0 841)" d="M231.714 324.369L282.56 324.369" stroke="#000000" stroke-width="0.398" fill="none" /><path id="1197" transform="matrix(1 0 0 -1 0 841)" d="M261.445 312.115L332.812 312.115" stroke="#000000" stroke-width="0.398" fill="none" /><path id="1233" transform="matrix(1 0 0 -1 0 841)" d="M368.869 319.672L462.517 319.672" stroke="#000000" stroke-width="0.398" fill="none" /><path id="1234" transform="matrix(1 0 0 -1 0 841)" d="M369.069 306.267L369.069 319.672" stroke="#000000" stroke-width="0.398" fill="none" /><path id="1235" transform="matrix(1 0 0 -1 0 841)" d="M462.318 306.267L462.318 319.672" stroke="#000000" stroke-width="0.398" fill="none" /><path id="1236" transform="matrix(1 0 0 -1 0 841)" d="M368.869 306.267L462.517 306.267" stroke="#000000" stroke-width="0.398" fill="none" /><path id="1364" transform="matrix(1 0 0 -1 0 841)" d="M316.406 262.29L402.462 262.29" stroke="#000000" stroke-width="0.398" fill="none" /><path id="1400" transform="matrix(1 0 0 -1 0 841)" d="M414.72 272.034L536.324 272.034" stroke="#000000" stroke-width="0.398" fill="none" /><path id="1401" transform="matrix(1 0 0 -1 0 841)" d="M414.919 254.529L414.919 272.034" stroke="#000000" stroke-width="0.398" fill="none" /><path id="1402" transform="matrix(1 0 0 -1 0 841)" d="M536.125 254.529L536.125 272.034" stroke="#000000" stroke-width="0.398" fill="none" /><path id="1403" transform="matrix(1 0 0 -1 0 841)" d="M414.72 254.529L536.324 254.529" stroke="#000000" stroke-width="0.398" fill="none" /><path id="1534" transform="matrix(1 0 0 -1 0 841)" d="M169.139 187.689L214.299 187.689" stroke="#000000" stroke-width="0.398" fill="none" /><path id="1542" transform="matrix(1 0 0 -1 0 841)" d="M224.439 187.689L259.308 187.689" stroke="#000000" stroke-width="0.398" fill="none" /><path id="1583" transform="matrix(1 0 0 -1 0 841)" d="M225.089 175.137L300.456 175.137" stroke="#000000" stroke-width="0.398" fill="none" /><path id="1584" transform="matrix(1 0 0 -1 0 841)" d="M225.288 159.819L225.288 175.136" stroke="#000000" stroke-width="0.398" fill="none" /><path id="1585" transform="matrix(1 0 0 -1 0 841)" d="M300.256 159.819L300.256 175.136" stroke="#000000" stroke-width="0.398" fill="none" /><path id="1586" transform="matrix(1 0 0 -1 0 841)" d="M225.089 159.819L300.456 159.819" stroke="#000000" stroke-width="0.398" fill="none" /><path id="1738" transform="matrix(1 0 0 -1 0 841)" d="M171.013 120.935L185.917 120.935" stroke="#000000" stroke-width="0.398" fill="none" /><path id="1766" transform="matrix(1 0 0 -1 0 841)" d="M241.98 120.935L308.42 120.935" stroke="#000000" stroke-width="0.398" fill="none" /><path id="1791" transform="matrix(1 0 0 -1 0 841)" d="M330.174 120.935L413.52 120.935" stroke="#000000" stroke-width="0.398" fill="none" /><path id="1827" transform="matrix(1 0 0 -1 0 841)" d="M425.777 128.492L541.841 128.492" stroke="#000000" stroke-width="0.398" fill="none" /><path id="1828" transform="matrix(1 0 0 -1 0 841)" d="M425.977 113.224L425.977 128.492" stroke="#000000" stroke-width="0.398" fill="none" /><path id="1829" transform="matrix(1 0 0 -1 0 841)" d="M541.642 113.224L541.642 128.492" stroke="#000000" stroke-width="0.398" fill="none" /><path id="1830" transform="matrix(1 0 0 -1 0 841)" d="M425.777 113.224L541.841 113.224" stroke="#000000" stroke-width="0.398" fill="none" /><g transform="matrix(0.2 0 0 0.2 249.239 774.845)"><g transform="matrix(1 0 0 1 0 0)"><image x="0" y="0" xlink:href="img_04.png" width="484" height="104" /></g></g></g></g></svg>