<svg xmlns="http://www.w3.org/2000/svg" xmlns:xlink="http://www.w3.org/1999/xlink" id="body_53" preserveAspectRatio="xMinYMin meet" viewBox="0 0 793 1121"><defs><clipPath id="1"><path id="" clip-rule="evenodd" transform="matrix(1 0 0 1 0 0)" d="M0 841L0 -0.8900146L0 -0.8900146L595.276 -0.8900146L595.276 -0.8900146L595.276 841L595.276 841L0 841z" /></clipPath></defs><g transform="matrix(1.333333 0 0 1.333333 0 0)"><g clip-path="url(#1)"><path id="45" transform="matrix(1 0 0 -1 0 841)" d="M85.039 766.564L510.236 766.564" stroke="#000000" stroke-width="0.498" fill="none" /><path id="485" transform="matrix(1 0 0 -1 0 841)" d="M205.157 538.463L257.989 538.463" stroke="#000000" stroke-width="0.398" fill="none" /><path id="503" transform="matrix(1 0 0 -1 0 841)" d="M272.549 538.463L293.022 538.463" stroke="#000000" stroke-width="0.398" fill="none" /><path id="519" transform="matrix(1 0 0 -1 0 841)" d="M300.394 538.463L337.187 538.463" stroke="#000000" stroke-width="0.398" fill="none" /><path id="551" transform="matrix(1 0 0 -1 0 841)" d="M347.326 538.463L400.158 538.463" stroke="#000000" stroke-width="0.398" fill="none" /><path id="569" transform="matrix(1 0 0 -1 0 841)" d="M413.523 545.825L441.319 545.825" stroke="#000000" stroke-width="0.398" fill="none" /><path id="570" transform="matrix(1 0 0 -1 0 841)" d="M413.722 532.63L413.722 545.825" stroke="#000000" stroke-width="0.398" fill="none" /><path id="571" transform="matrix(1 0 0 -1 0 841)" d="M441.119 532.63L441.119 545.825" stroke="#000000" stroke-width="0.398" fill="none" /><path id="572" transform="matrix(1 0 0 -1 0 841)" d="M413.523 532.63L441.319 532.63" stroke="#000000" stroke-width="0.398" fill="none" /><path id="602" transform="matrix(1 0 0 -1 0 841)" d="M241.519 515.37L254.62 515.37" stroke="#000000" stroke-width="0.398" fill="none" /><path id="624" transform="matrix(1 0 0 -1 0 841)" d="M261.992 515.37L324.983 515.37" stroke="#000000" stroke-width="0.398" fill="none" /><path id="670" transform="matrix(1 0 0 -1 0 841)" d="M335.123 515.37L405.499 515.37" stroke="#000000" stroke-width="0.398" fill="none" /><path id="694" transform="matrix(1 0 0 -1 0 841)" d="M418.862 522.872L451.639 522.872" stroke="#000000" stroke-width="0.398" fill="none" /><path id="695" transform="matrix(1 0 0 -1 0 841)" d="M419.062 509.537L419.062 522.872" stroke="#000000" stroke-width="0.398" fill="none" /><path id="696" transform="matrix(1 0 0 -1 0 841)" d="M451.44 509.537L451.44 522.872" stroke="#000000" stroke-width="0.398" fill="none" /><path id="697" transform="matrix(1 0 0 -1 0 841)" d="M418.862 509.537L451.639 509.537" stroke="#000000" stroke-width="0.398" fill="none" /><g transform="matrix(0.2 0 0 0.2 249.239 774.845)"><g transform="matrix(1 0 0 1 0 0)"><image x="0" y="0" xlink:href="img_04.png" width="484" height="104" /></g></g></g></g></svg>