<svg xmlns="http://www.w3.org/2000/svg" xmlns:xlink="http://www.w3.org/1999/xlink" id="body_175" preserveAspectRatio="xMinYMin meet" viewBox="0 0 793 1121"><defs><clipPath id="1"><path id="" clip-rule="evenodd" transform="matrix(1 0 0 1 0 0)" d="M0 841L0 -0.8900146L0 -0.8900146L595.276 -0.8900146L595.276 -0.8900146L595.276 841L595.276 841L0 841z" /></clipPath></defs><g transform="matrix(1.333333 0 0 1.333333 0 0)"><g clip-path="url(#1)"><path id="25" transform="matrix(1 0 0 -1 0 841)" d="M85.039 766.564L510.236 766.564" stroke="#000000" stroke-width="0.498" fill="none" /><path id="43" transform="matrix(1 0 0 -1 0 841)" d="M85.039 293.128L85.039 732.8685C 85.039 735.2169 86.94264 737.1205 89.29099 737.1205L89.29099 737.1205L505.9893 737.1205C 508.3377 737.1205 510.2413 735.2169 510.2413 732.8685L510.2413 732.8685L510.2413 293.128C 510.2413 290.7796 508.3377 288.876 505.9893 288.876L505.9893 288.876L89.29099 288.876C 86.94264 288.876 85.039 290.7796 85.039 293.128z" stroke="none" fill="#BFBFFF" fill-rule="nonzero" /><path id="44" transform="matrix(1 0 0 -1 0 841)" d="M86.45631 293.128L86.45631 719.705L86.45631 719.705L508.824 719.705L508.824 719.705L508.824 293.128C 508.824 291.5624 507.5549 290.2933 505.9893 290.2933L505.9893 290.2933L89.29099 290.2933C 87.72543 290.2933 86.45631 291.5624 86.45631 293.128z" stroke="none" fill="#E6E6FF" fill-rule="nonzero" /></g></g></svg>