<svg xmlns="http://www.w3.org/2000/svg" xmlns:xlink="http://www.w3.org/1999/xlink" id="body_217" preserveAspectRatio="xMinYMin meet" viewBox="0 0 793 1121"><defs><clipPath id="1"><path id="" clip-rule="evenodd" transform="matrix(1 0 0 1 0 0)" d="M0 841L0 -0.8900146L0 -0.8900146L595.276 -0.8900146L595.276 -0.8900146L595.276 841L595.276 841L0 841z" /></clipPath><clipPath id="2"><path id="" clip-rule="evenodd" transform="matrix(1 0 0 1 0 0)" d="M0.125 841.073L595.1547 841.073L595.1547 841.073L595.1547 -0.9690552L595.1547 -0.9690552L0.125 -0.9690552z" /></clipPath><clipPath id="3"><path id="" clip-rule="evenodd" transform="matrix(1 0 0 1 0 0)" d="M19.4363 27.69806L575.6259 27.69806L575.6259 27.69806L575.6259 825.5788L575.6259 825.5788L19.4363 825.5788z" /></clipPath><clipPath id="4"><path id="" clip-rule="evenodd" transform="matrix(1 0 0 1 0 0)" d="M25.07376 33.33551L569.0288 33.33551L569.0288 33.33551L569.0288 44.73035L569.0288 44.73035L25.07376 44.73035z" /></clipPath><clipPath id="5"><path id="" clip-rule="evenodd" transform="matrix(1 0 0 1 0 0)" d="M19.4363 49.5282L575.6259 49.5282L575.6259 49.5282L575.6259 75.43652L575.6259 75.43652L19.4363 75.43652z" /></clipPath><clipPath id="6"><path id="" clip-rule="evenodd" transform="matrix(1 0 0 1 0 0)" d="M25.07376 52.88672L569.0288 52.88672L569.0288 52.88672L569.0288 71.83813L569.0288 71.83813L25.07376 71.83813z" /></clipPath><clipPath id="7"><path id="" clip-rule="evenodd" transform="matrix(1 0 0 1 0 0)" d="M19.4363 75.43652L575.6259 75.43652L575.6259 75.43652L575.6259 803.7487L575.6259 803.7487L19.4363 803.7487z" /></clipPath><clipPath id="8"><path id="" clip-rule="evenodd" transform="matrix(1 0 0 1 0 0)" d="M19.4363 75.43652L575.6259 75.43652L575.6259 75.43652L575.6259 803.7487L575.6259 803.7487L19.4363 803.7487z" /></clipPath><clipPath id="9"><path id="" clip-rule="evenodd" transform="matrix(1 0 0 1 0 0)" d="M36.46864 75.67645L161.0925 75.67645L161.0925 75.67645L161.0925 178.4702L161.0925 178.4702L36.46864 178.4702z" /></clipPath><clipPath id="10"><path id="" clip-rule="evenodd" transform="matrix(1 0 0 1 0 0)" d="M19.4363 75.43652L575.6259 75.43652L575.6259 75.43652L575.6259 803.7487L575.6259 803.7487L19.4363 803.7487z" /></clipPath><clipPath id="11"><path id="" clip-rule="evenodd" transform="matrix(1 0 0 1 0 0)" d="M161.0925 75.67645L178.1248 75.67645L178.1248 75.67645L178.1248 178.4702L178.1248 178.4702L161.0925 178.4702z" /></clipPath><clipPath id="12"><path id="" clip-rule="evenodd" transform="matrix(1 0 0 1 0 0)" d="M19.4363 75.43652L575.6259 75.43652L575.6259 75.43652L575.6259 803.7487L575.6259 803.7487L19.4363 803.7487z" /></clipPath><clipPath id="13"><path id="" clip-rule="evenodd" transform="matrix(1 0 0 1 0 0)" d="M178.1248 75.67645L569.0288 75.67645L569.0288 75.67645L569.0288 178.4702L569.0288 178.4702L178.1248 178.4702z" /></clipPath><clipPath id="14"><path id="" clip-rule="evenodd" transform="matrix(1 0 0 1 0 0)" d="M19.4363 75.43652L575.6259 75.43652L575.6259 75.43652L575.6259 803.7487L575.6259 803.7487L19.4363 803.7487z" /></clipPath><clipPath id="15"><path id="" clip-rule="evenodd" transform="matrix(1 0 0 1 0 0)" d="M36.46864 181.3489L161.0925 181.3489L161.0925 181.3489L161.0925 193.4634L161.0925 193.4634L36.46864 193.4634z" /></clipPath><clipPath id="16"><path id="" clip-rule="evenodd" transform="matrix(1 0 0 1 0 0)" d="M19.4363 75.43652L575.6259 75.43652L575.6259 75.43652L575.6259 803.7487L575.6259 803.7487L19.4363 803.7487z" /></clipPath><clipPath id="17"><path id="" clip-rule="evenodd" transform="matrix(1 0 0 1 0 0)" d="M161.0925 181.3489L178.1248 181.3489L178.1248 181.3489L178.1248 193.4634L178.1248 193.4634L161.0925 193.4634z" /></clipPath><clipPath id="18"><path id="" clip-rule="evenodd" transform="matrix(1 0 0 1 0 0)" d="M19.4363 75.43652L575.6259 75.43652L575.6259 75.43652L575.6259 803.7487L575.6259 803.7487L19.4363 803.7487z" /></clipPath><clipPath id="19"><path id="" clip-rule="evenodd" transform="matrix(1 0 0 1 0 0)" d="M178.1248 181.3489L569.0288 181.3489L569.0288 181.3489L569.0288 193.4634L569.0288 193.4634L178.1248 193.4634z" /></clipPath><clipPath id="20"><path id="" clip-rule="evenodd" transform="matrix(1 0 0 1 0 0)" d="M19.4363 75.43652L575.6259 75.43652L575.6259 75.43652L575.6259 803.7487L575.6259 803.7487L19.4363 803.7487z" /></clipPath><clipPath id="21"><path id="" clip-rule="evenodd" transform="matrix(1 0 0 1 0 0)" d="M36.46864 196.3421L161.0925 196.3421L161.0925 196.3421L161.0925 219.2518L161.0925 219.2518L36.46864 219.2518z" /></clipPath><clipPath id="22"><path id="" clip-rule="evenodd" transform="matrix(1 0 0 1 0 0)" d="M19.4363 75.43652L575.6259 75.43652L575.6259 75.43652L575.6259 803.7487L575.6259 803.7487L19.4363 803.7487z" /></clipPath><clipPath id="23"><path id="" clip-rule="evenodd" transform="matrix(1 0 0 1 0 0)" d="M161.0925 196.3421L178.1248 196.3421L178.1248 196.3421L178.1248 219.2518L178.1248 219.2518L161.0925 219.2518z" /></clipPath><clipPath id="24"><path id="" clip-rule="evenodd" transform="matrix(1 0 0 1 0 0)" d="M19.4363 75.43652L575.6259 75.43652L575.6259 75.43652L575.6259 803.7487L575.6259 803.7487L19.4363 803.7487z" /></clipPath><clipPath id="25"><path id="" clip-rule="evenodd" transform="matrix(1 0 0 1 0 0)" d="M178.1248 196.3421L569.0288 196.3421L569.0288 196.3421L569.0288 219.2518L569.0288 219.2518L178.1248 219.2518z" /></clipPath><clipPath id="26"><path id="" clip-rule="evenodd" transform="matrix(1 0 0 1 0 0)" d="M19.4363 75.43652L575.6259 75.43652L575.6259 75.43652L575.6259 803.7487L575.6259 803.7487L19.4363 803.7487z" /></clipPath><clipPath id="27"><path id="" clip-rule="evenodd" transform="matrix(1 0 0 1 0 0)" d="M25.07376 222.1305L161.0925 222.1305L161.0925 222.1305L161.0925 246.2396L161.0925 246.2396L25.07376 246.2396z" /></clipPath><clipPath id="28"><path id="" clip-rule="evenodd" transform="matrix(1 0 0 1 0 0)" d="M19.4363 75.43652L575.6259 75.43652L575.6259 75.43652L575.6259 803.7487L575.6259 803.7487L19.4363 803.7487z" /></clipPath><clipPath id="29"><path id="" clip-rule="evenodd" transform="matrix(1 0 0 1 0 0)" d="M161.0925 222.1305L178.1248 222.1305L178.1248 222.1305L178.1248 246.2396L178.1248 246.2396L161.0925 246.2396z" /></clipPath><clipPath id="30"><path id="" clip-rule="evenodd" transform="matrix(1 0 0 1 0 0)" d="M19.4363 75.43652L575.6259 75.43652L575.6259 75.43652L575.6259 803.7487L575.6259 803.7487L19.4363 803.7487z" /></clipPath><clipPath id="31"><path id="" clip-rule="evenodd" transform="matrix(1 0 0 1 0 0)" d="M178.1248 222.1305L569.0288 222.1305L569.0288 222.1305L569.0288 246.2396L569.0288 246.2396L178.1248 246.2396z" /></clipPath><clipPath id="32"><path id="" clip-rule="evenodd" transform="matrix(1 0 0 1 0 0)" d="M19.4363 75.43652L575.6259 75.43652L575.6259 75.43652L575.6259 803.7487L575.6259 803.7487L19.4363 803.7487z" /></clipPath><clipPath id="33"><path id="" clip-rule="evenodd" transform="matrix(1 0 0 1 0 0)" d="M19.4363 75.43652L575.6259 75.43652L575.6259 75.43652L575.6259 803.7487L575.6259 803.7487L19.4363 803.7487z" /></clipPath><clipPath id="34"><path id="" clip-rule="evenodd" transform="matrix(1 0 0 1 0 0)" d="M25.07376 252.117L569.0288 252.117L569.0288 252.117L569.0288 271.0685L569.0288 271.0685L25.07376 271.0685z" /></clipPath><clipPath id="35"><path id="" clip-rule="evenodd" transform="matrix(1 0 0 1 0 0)" d="M19.4363 75.43652L575.6259 75.43652L575.6259 75.43652L575.6259 803.7487L575.6259 803.7487L19.4363 803.7487z" /></clipPath><clipPath id="36"><path id="" clip-rule="evenodd" transform="matrix(1 0 0 1 0 0)" d="M27.95247 409.9659L367.6395 409.9659L367.6395 409.9659L367.6395 421.6007L367.6395 421.6007L27.95247 421.6007z" /></clipPath><clipPath id="37"><path id="" clip-rule="evenodd" transform="matrix(1 0 0 1 0 0)" d="M19.4363 75.43652L575.6259 75.43652L575.6259 75.43652L575.6259 803.7487L575.6259 803.7487L19.4363 803.7487z" /></clipPath><clipPath id="38"><path id="" clip-rule="evenodd" transform="matrix(1 0 0 1 0 0)" d="M372.9171 409.9659L464.4359 409.9659L464.4359 409.9659L464.4359 421.6007L464.4359 421.6007L372.9171 421.6007z" /></clipPath><clipPath id="39"><path id="" clip-rule="evenodd" transform="matrix(1 0 0 1 0 0)" d="M19.4363 75.43652L575.6259 75.43652L575.6259 75.43652L575.6259 803.7487L575.6259 803.7487L19.4363 803.7487z" /></clipPath><clipPath id="40"><path id="" clip-rule="evenodd" transform="matrix(1 0 0 1 0 0)" d="M470.1933 409.9659L566.9897 409.9659L566.9897 409.9659L566.9897 421.6007L566.9897 421.6007L470.1933 421.6007z" /></clipPath><clipPath id="41"><path id="" clip-rule="evenodd" transform="matrix(1 0 0 1 0 0)" d="M19.4363 75.43652L575.6259 75.43652L575.6259 75.43652L575.6259 803.7487L575.6259 803.7487L19.4363 803.7487z" /></clipPath><clipPath id="42"><path id="" clip-rule="evenodd" transform="matrix(1 0 0 1 0 0)" d="M27.95247 393.5333L367.8794 393.5333L367.8794 393.5333L367.8794 405.6479L367.8794 405.6479L27.95247 405.6479z" /></clipPath><clipPath id="43"><path id="" clip-rule="evenodd" transform="matrix(1 0 0 1 0 0)" d="M19.4363 75.43652L575.6259 75.43652L575.6259 75.43652L575.6259 803.7487L575.6259 803.7487L19.4363 803.7487z" /></clipPath><clipPath id="44"><path id="" clip-rule="evenodd" transform="matrix(1 0 0 1 0 0)" d="M469.8335 393.5333L566.1501 393.5333L566.1501 393.5333L566.1501 409.9659L566.1501 409.9659L469.8335 409.9659z" /></clipPath><clipPath id="45"><path id="" clip-rule="evenodd" transform="matrix(1 0 0 1 0 0)" d="M19.4363 75.43652L575.6259 75.43652L575.6259 75.43652L575.6259 803.7487L575.6259 803.7487L19.4363 803.7487z" /></clipPath><clipPath id="46"><path id="" clip-rule="evenodd" transform="matrix(1 0 0 1 0 0)" d="M373.5168 393.5333L464.196 393.5333L464.196 393.5333L464.196 405.6479L464.196 405.6479L373.5168 405.6479z" /></clipPath><clipPath id="47"><path id="" clip-rule="evenodd" transform="matrix(1 0 0 1 0 0)" d="M19.4363 75.43652L575.6259 75.43652L575.6259 75.43652L575.6259 803.7487L575.6259 803.7487L19.4363 803.7487z" /></clipPath><clipPath id="48"><path id="" clip-rule="evenodd" transform="matrix(1 0 0 1 0 0)" d="M25.07376 444.5104L569.0288 444.5104L569.0288 444.5104L569.0288 480.2543L569.0288 480.2543L25.07376 480.2543z" /></clipPath><clipPath id="49"><path id="" clip-rule="evenodd" transform="matrix(1 0 0 1 0 0)" d="M19.4363 75.43652L575.6259 75.43652L575.6259 75.43652L575.6259 803.7487L575.6259 803.7487L19.4363 803.7487z" /></clipPath><clipPath id="50"><path id="" clip-rule="evenodd" transform="matrix(1 0 0 1 0 0)" d="M25.07376 291.8191L161.0925 291.8191L161.0925 291.8191L161.0925 303.6938L161.0925 303.6938L25.07376 303.6938z" /></clipPath><clipPath id="51"><path id="" clip-rule="evenodd" transform="matrix(1 0 0 1 0 0)" d="M19.4363 75.43652L575.6259 75.43652L575.6259 75.43652L575.6259 803.7487L575.6259 803.7487L19.4363 803.7487z" /></clipPath><clipPath id="52"><path id="" clip-rule="evenodd" transform="matrix(1 0 0 1 0 0)" d="M161.0925 291.8191L178.1248 291.8191L178.1248 291.8191L178.1248 303.6938L178.1248 303.6938L161.0925 303.6938z" /></clipPath><clipPath id="53"><path id="" clip-rule="evenodd" transform="matrix(1 0 0 1 0 0)" d="M19.4363 75.43652L575.6259 75.43652L575.6259 75.43652L575.6259 803.7487L575.6259 803.7487L19.4363 803.7487z" /></clipPath><clipPath id="54"><path id="" clip-rule="evenodd" transform="matrix(1 0 0 1 0 0)" d="M178.1248 291.8191L569.0288 291.8191L569.0288 291.8191L569.0288 303.6938L569.0288 303.6938L178.1248 303.6938z" /></clipPath><clipPath id="55"><path id="" clip-rule="evenodd" transform="matrix(1 0 0 1 0 0)" d="M19.4363 75.43652L575.6259 75.43652L575.6259 75.43652L575.6259 803.7487L575.6259 803.7487L19.4363 803.7487z" /></clipPath><clipPath id="56"><path id="" clip-rule="evenodd" transform="matrix(1 0 0 1 0 0)" d="M25.07376 306.5725L161.0925 306.5725L161.0925 306.5725L161.0925 330.3218L161.0925 330.3218L25.07376 330.3218z" /></clipPath><clipPath id="57"><path id="" clip-rule="evenodd" transform="matrix(1 0 0 1 0 0)" d="M19.4363 75.43652L575.6259 75.43652L575.6259 75.43652L575.6259 803.7487L575.6259 803.7487L19.4363 803.7487z" /></clipPath><clipPath id="58"><path id="" clip-rule="evenodd" transform="matrix(1 0 0 1 0 0)" d="M161.0925 306.5725L178.1248 306.5725L178.1248 306.5725L178.1248 330.3218L178.1248 330.3218L161.0925 330.3218z" /></clipPath><clipPath id="59"><path id="" clip-rule="evenodd" transform="matrix(1 0 0 1 0 0)" d="M19.4363 75.43652L575.6259 75.43652L575.6259 75.43652L575.6259 803.7487L575.6259 803.7487L19.4363 803.7487z" /></clipPath><clipPath id="60"><path id="" clip-rule="evenodd" transform="matrix(1 0 0 1 0 0)" d="M178.1248 306.5725L569.0288 306.5725L569.0288 306.5725L569.0288 330.3218L569.0288 330.3218L178.1248 330.3218z" /></clipPath><clipPath id="61"><path id="" clip-rule="evenodd" transform="matrix(1 0 0 1 0 0)" d="M19.4363 75.43652L575.6259 75.43652L575.6259 75.43652L575.6259 803.7487L575.6259 803.7487L19.4363 803.7487z" /></clipPath><clipPath id="62"><path id="" clip-rule="evenodd" transform="matrix(1 0 0 1 0 0)" d="M30.71123 375.9013L161.0925 375.9013L161.0925 375.9013L161.0925 387.8959L161.0925 387.8959L30.71123 387.8959z" /></clipPath><clipPath id="63"><path id="" clip-rule="evenodd" transform="matrix(1 0 0 1 0 0)" d="M19.4363 75.43652L575.6259 75.43652L575.6259 75.43652L575.6259 803.7487L575.6259 803.7487L19.4363 803.7487z" /></clipPath><clipPath id="64"><path id="" clip-rule="evenodd" transform="matrix(1 0 0 1 0 0)" d="M161.0925 375.9013L178.1248 375.9013L178.1248 375.9013L178.1248 387.8959L178.1248 387.8959L161.0925 387.8959z" /></clipPath><clipPath id="65"><path id="" clip-rule="evenodd" transform="matrix(1 0 0 1 0 0)" d="M19.4363 75.43652L575.6259 75.43652L575.6259 75.43652L575.6259 803.7487L575.6259 803.7487L19.4363 803.7487z" /></clipPath><clipPath id="66"><path id="" clip-rule="evenodd" transform="matrix(1 0 0 1 0 0)" d="M178.1248 375.9013L569.0288 375.9013L569.0288 375.9013L569.0288 387.8959L569.0288 387.8959L178.1248 387.8959z" /></clipPath><clipPath id="67"><path id="" clip-rule="evenodd" transform="matrix(1 0 0 1 0 0)" d="M19.4363 75.43652L575.6259 75.43652L575.6259 75.43652L575.6259 803.7487L575.6259 803.7487L19.4363 803.7487z" /></clipPath><clipPath id="68"><path id="" clip-rule="evenodd" transform="matrix(1 0 0 1 0 0)" d="M25.07376 276.8259L161.0925 276.8259L161.0925 276.8259L161.0925 288.9404L161.0925 288.9404L25.07376 288.9404z" /></clipPath><clipPath id="69"><path id="" clip-rule="evenodd" transform="matrix(1 0 0 1 0 0)" d="M19.4363 75.43652L575.6259 75.43652L575.6259 75.43652L575.6259 803.7487L575.6259 803.7487L19.4363 803.7487z" /></clipPath><clipPath id="70"><path id="" clip-rule="evenodd" transform="matrix(1 0 0 1 0 0)" d="M25.07376 361.2679L569.0288 361.2679L569.0288 361.2679L569.0288 373.1425L569.0288 373.1425L25.07376 373.1425z" /></clipPath><clipPath id="71"><path id="" clip-rule="evenodd" transform="matrix(1 0 0 1 0 0)" d="M19.4363 75.43652L575.6259 75.43652L575.6259 75.43652L575.6259 803.7487L575.6259 803.7487L19.4363 803.7487z" /></clipPath><clipPath id="72"><path id="" clip-rule="evenodd" transform="matrix(1 0 0 1 0 0)" d="M161.0925 276.8259L178.1248 276.8259L178.1248 276.8259L178.1248 288.9404L178.1248 288.9404L161.0925 288.9404z" /></clipPath><clipPath id="73"><path id="" clip-rule="evenodd" transform="matrix(1 0 0 1 0 0)" d="M19.4363 75.43652L575.6259 75.43652L575.6259 75.43652L575.6259 803.7487L575.6259 803.7487L19.4363 803.7487z" /></clipPath><clipPath id="74"><path id="" clip-rule="evenodd" transform="matrix(1 0 0 1 0 0)" d="M25.07376 483.013L569.0288 483.013L569.0288 483.013L569.0288 494.8877L569.0288 494.8877L25.07376 494.8877z" /></clipPath><clipPath id="75"><path id="" clip-rule="evenodd" transform="matrix(1 0 0 1 0 0)" d="M19.4363 75.43652L575.6259 75.43652L575.6259 75.43652L575.6259 803.7487L575.6259 803.7487L19.4363 803.7487z" /></clipPath><clipPath id="76"><path id="" clip-rule="evenodd" transform="matrix(1 0 0 1 0 0)" d="M178.1248 276.8259L569.0288 276.8259L569.0288 276.8259L569.0288 288.9404L569.0288 288.9404L178.1248 288.9404z" /></clipPath><clipPath id="77"><path id="" clip-rule="evenodd" transform="matrix(1 0 0 1 0 0)" d="M19.4363 75.43652L575.6259 75.43652L575.6259 75.43652L575.6259 803.7487L575.6259 803.7487L19.4363 803.7487z" /></clipPath><clipPath id="78"><path id="" clip-rule="evenodd" transform="matrix(1 0 0 1 0 0)" d="M25.07376 429.757L569.0288 429.757L569.0288 429.757L569.0288 441.6317L569.0288 441.6317L25.07376 441.6317z" /></clipPath><clipPath id="79"><path id="" clip-rule="evenodd" transform="matrix(1 0 0 1 0 0)" d="M19.4363 75.43652L575.6259 75.43652L575.6259 75.43652L575.6259 803.7487L575.6259 803.7487L19.4363 803.7487z" /></clipPath><clipPath id="80"><path id="" clip-rule="evenodd" transform="matrix(1 0 0 1 0 0)" d="M25.07376 333.2005L161.0925 333.2005L161.0925 333.2005L161.0925 345.315L161.0925 345.315L25.07376 345.315z" /></clipPath><clipPath id="81"><path id="" clip-rule="evenodd" transform="matrix(1 0 0 1 0 0)" d="M19.4363 75.43652L575.6259 75.43652L575.6259 75.43652L575.6259 803.7487L575.6259 803.7487L19.4363 803.7487z" /></clipPath><clipPath id="82"><path id="" clip-rule="evenodd" transform="matrix(1 0 0 1 0 0)" d="M161.0925 333.2005L178.1248 333.2005L178.1248 333.2005L178.1248 345.315L178.1248 345.315L161.0925 345.315z" /></clipPath><clipPath id="83"><path id="" clip-rule="evenodd" transform="matrix(1 0 0 1 0 0)" d="M19.4363 75.43652L575.6259 75.43652L575.6259 75.43652L575.6259 803.7487L575.6259 803.7487L19.4363 803.7487z" /></clipPath><clipPath id="84"><path id="" clip-rule="evenodd" transform="matrix(1 0 0 1 0 0)" d="M178.1248 333.2005L569.0288 333.2005L569.0288 333.2005L569.0288 345.315L569.0288 345.315L178.1248 345.315z" /></clipPath><clipPath id="85"><path id="" clip-rule="evenodd" transform="matrix(1 0 0 1 0 0)" d="M19.4363 75.43652L575.6259 75.43652L575.6259 75.43652L575.6259 803.7487L575.6259 803.7487L19.4363 803.7487z" /></clipPath><clipPath id="86"><path id="" clip-rule="evenodd" transform="matrix(1 0 0 1 0 0)" d="M19.4363 75.43652L575.6259 75.43652L575.6259 75.43652L575.6259 803.7487L575.6259 803.7487L19.4363 803.7487z" /></clipPath><clipPath id="87"><path id="" clip-rule="evenodd" transform="matrix(1 0 0 1 0 0)" d="M178.1248 777.4805L569.0288 777.4805L569.0288 777.4805L569.0288 789.595L569.0288 789.595L178.1248 789.595z" /></clipPath><clipPath id="88"><path id="" clip-rule="evenodd" transform="matrix(1 0 0 1 0 0)" d="M19.4363 75.43652L575.6259 75.43652L575.6259 75.43652L575.6259 803.7487L575.6259 803.7487L19.4363 803.7487z" /></clipPath><clipPath id="89"><path id="" clip-rule="evenodd" transform="matrix(1 0 0 1 0 0)" d="M178.1248 540.5871L569.0288 540.5871L569.0288 540.5871L569.0288 586.1666L569.0288 586.1666L178.1248 586.1666z" /></clipPath><clipPath id="90"><path id="" clip-rule="evenodd" transform="matrix(1 0 0 1 0 0)" d="M19.4363 75.43652L575.6259 75.43652L575.6259 75.43652L575.6259 803.7487L575.6259 803.7487L19.4363 803.7487z" /></clipPath><clipPath id="91"><path id="" clip-rule="evenodd" transform="matrix(1 0 0 1 0 0)" d="M178.1248 705.9926L569.0288 705.9926L569.0288 705.9926L569.0288 774.6017L569.0288 774.6017L178.1248 774.6017z" /></clipPath><clipPath id="92"><path id="" clip-rule="evenodd" transform="matrix(1 0 0 1 0 0)" d="M19.4363 75.43652L575.6259 75.43652L575.6259 75.43652L575.6259 803.7487L575.6259 803.7487L19.4363 803.7487z" /></clipPath><clipPath id="93"><path id="" clip-rule="evenodd" transform="matrix(1 0 0 1 0 0)" d="M178.1248 589.0453L569.0288 589.0453L569.0288 589.0453L569.0288 703.2339L569.0288 703.2339L178.1248 703.2339z" /></clipPath><clipPath id="94"><path id="" clip-rule="evenodd" transform="matrix(1 0 0 1 0 0)" d="M19.4363 75.43652L575.6259 75.43652L575.6259 75.43652L575.6259 803.7487L575.6259 803.7487L19.4363 803.7487z" /></clipPath><clipPath id="95"><path id="" clip-rule="evenodd" transform="matrix(1 0 0 1 0 0)" d="M25.07376 500.885L569.0288 500.885L569.0288 500.885L569.0288 519.8365L569.0288 519.8365L25.07376 519.8365z" /></clipPath><clipPath id="96"><path id="" clip-rule="evenodd" transform="matrix(1 0 0 1 0 0)" d="M19.4363 75.43652L575.6259 75.43652L575.6259 75.43652L575.6259 803.7487L575.6259 803.7487L19.4363 803.7487z" /></clipPath><clipPath id="97"><path id="" clip-rule="evenodd" transform="matrix(1 0 0 1 0 0)" d="M30.71123 540.5871L161.0925 540.5871L161.0925 540.5871L161.0925 586.5264L161.0925 586.5264L30.71123 586.5264z" /></clipPath><clipPath id="98"><path id="" clip-rule="evenodd" transform="matrix(1 0 0 1 0 0)" d="M19.4363 75.43652L575.6259 75.43652L575.6259 75.43652L575.6259 803.7487L575.6259 803.7487L19.4363 803.7487z" /></clipPath><clipPath id="99"><path id="" clip-rule="evenodd" transform="matrix(1 0 0 1 0 0)" d="M30.71123 705.9926L161.0925 705.9926L161.0925 705.9926L161.0925 774.8416L161.0925 774.8416L30.71123 774.8416z" /></clipPath><clipPath id="100"><path id="" clip-rule="evenodd" transform="matrix(1 0 0 1 0 0)" d="M19.4363 75.43652L575.6259 75.43652L575.6259 75.43652L575.6259 803.7487L575.6259 803.7487L19.4363 803.7487z" /></clipPath><clipPath id="101"><path id="" clip-rule="evenodd" transform="matrix(1 0 0 1 0 0)" d="M30.71123 589.0453L161.0925 589.0453L161.0925 589.0453L161.0925 703.2339L161.0925 703.2339L30.71123 703.2339z" /></clipPath><clipPath id="102"><path id="" clip-rule="evenodd" transform="matrix(1 0 0 1 0 0)" d="M19.4363 75.43652L575.6259 75.43652L575.6259 75.43652L575.6259 803.7487L575.6259 803.7487L19.4363 803.7487z" /></clipPath><clipPath id="103"><path id="" clip-rule="evenodd" transform="matrix(1 0 0 1 0 0)" d="M30.71123 777.4805L161.0925 777.4805L161.0925 777.4805L161.0925 789.595L161.0925 789.595L30.71123 789.595z" /></clipPath><clipPath id="104"><path id="" clip-rule="evenodd" transform="matrix(1 0 0 1 0 0)" d="M19.4363 75.43652L575.6259 75.43652L575.6259 75.43652L575.6259 803.7487L575.6259 803.7487L19.4363 803.7487z" /></clipPath><clipPath id="105"><path id="" clip-rule="evenodd" transform="matrix(1 0 0 1 0 0)" d="M161.0925 777.4805L178.1248 777.4805L178.1248 777.4805L178.1248 789.595L178.1248 789.595L161.0925 789.595z" /></clipPath><clipPath id="106"><path id="" clip-rule="evenodd" transform="matrix(1 0 0 1 0 0)" d="M19.4363 75.43652L575.6259 75.43652L575.6259 75.43652L575.6259 803.7487L575.6259 803.7487L19.4363 803.7487z" /></clipPath><clipPath id="107"><path id="" clip-rule="evenodd" transform="matrix(1 0 0 1 0 0)" d="M161.0925 705.9926L178.1248 705.9926L178.1248 705.9926L178.1248 774.6017L178.1248 774.6017L161.0925 774.6017z" /></clipPath><clipPath id="108"><path id="" clip-rule="evenodd" transform="matrix(1 0 0 1 0 0)" d="M19.4363 75.43652L575.6259 75.43652L575.6259 75.43652L575.6259 803.7487L575.6259 803.7487L19.4363 803.7487z" /></clipPath><clipPath id="109"><path id="" clip-rule="evenodd" transform="matrix(1 0 0 1 0 0)" d="M161.0925 589.0453L178.1248 589.0453L178.1248 589.0453L178.1248 703.2339L178.1248 703.2339L161.0925 703.2339z" /></clipPath><clipPath id="110"><path id="" clip-rule="evenodd" transform="matrix(1 0 0 1 0 0)" d="M19.4363 75.43652L575.6259 75.43652L575.6259 75.43652L575.6259 803.7487L575.6259 803.7487L19.4363 803.7487z" /></clipPath><clipPath id="111"><path id="" clip-rule="evenodd" transform="matrix(1 0 0 1 0 0)" d="M161.0925 540.5871L178.1248 540.5871L178.1248 540.5871L178.1248 586.1666L178.1248 586.1666L161.0925 586.1666z" /></clipPath><clipPath id="112"><path id="" clip-rule="evenodd" transform="matrix(1 0 0 1 0 0)" d="M19.4363 75.43652L575.6259 75.43652L575.6259 75.43652L575.6259 803.7487L575.6259 803.7487L19.4363 803.7487z" /></clipPath><clipPath id="113"><path id="" clip-rule="evenodd" transform="matrix(1 0 0 1 0 0)" d="M25.07376 525.5939L569.0288 525.5939L569.0288 525.5939L569.0288 537.7084L569.0288 537.7084L25.07376 537.7084z" /></clipPath><clipPath id="114"><path id="" clip-rule="evenodd" transform="matrix(1 0 0 1 0 0)" d="M19.4363 27.69806L575.6259 27.69806L575.6259 27.69806L575.6259 825.5788L575.6259 825.5788L19.4363 825.5788z" /></clipPath><clipPath id="115"><path id="" clip-rule="evenodd" transform="matrix(1 0 0 1 0 0)" d="M25.07376 809.3861L161.0925 809.3861L161.0925 809.3861L161.0925 820.7809L161.0925 820.7809L25.07376 820.7809z" /></clipPath><clipPath id="116"><path id="" clip-rule="evenodd" transform="matrix(1 0 0 1 0 0)" d="M161.0925 809.3861L166.73 809.3861L166.73 809.3861L166.73 820.7809L166.73 820.7809L161.0925 820.7809z" /></clipPath><clipPath id="117"><path id="" clip-rule="evenodd" transform="matrix(1 0 0 1 0 0)" d="M166.73 809.3861L234.7393 809.3861L234.7393 809.3861L234.7393 820.7809L234.7393 820.7809L166.73 820.7809z" /></clipPath><clipPath id="118"><path id="" clip-rule="evenodd" transform="matrix(1 0 0 1 0 0)" d="M237.6181 809.3861L353.7258 809.3861L353.7258 809.3861L353.7258 820.7809L353.7258 820.7809L237.6181 820.7809z" /></clipPath><clipPath id="119"><path id="" clip-rule="evenodd" transform="matrix(1 0 0 1 0 0)" d="M353.7258 809.3861L359.3632 809.3861L359.3632 809.3861L359.3632 820.7809L359.3632 820.7809L353.7258 820.7809z" /></clipPath><clipPath id="120"><path id="" clip-rule="evenodd" transform="matrix(1 0 0 1 0 0)" d="M359.3632 809.3861L458.5586 809.3861L458.5586 809.3861L458.5586 820.7809L458.5586 820.7809L359.3632 820.7809z" /></clipPath><clipPath id="121"><path id="" clip-rule="evenodd" transform="matrix(1 0 0 1 0 0)" d="M458.5586 809.3861L495.382 809.3861L495.382 809.3861L495.382 820.7809L495.382 820.7809L458.5586 820.7809z" /></clipPath><clipPath id="122"><path id="" clip-rule="evenodd" transform="matrix(1 0 0 1 0 0)" d="M495.382 809.3861L501.0194 809.3861L501.0194 809.3861L501.0194 820.7809L501.0194 820.7809L495.382 820.7809z" /></clipPath><clipPath id="123"><path id="" clip-rule="evenodd" transform="matrix(1 0 0 1 0 0)" d="M501.0194 809.3861L520.8105 809.3861L520.8105 809.3861L520.8105 820.7809L520.8105 820.7809L501.0194 820.7809z" /></clipPath><clipPath id="124"><path id="" clip-rule="evenodd" transform="matrix(1 0 0 1 0 0)" d="M540.7216 809.3861L569.0288 809.3861L569.0288 809.3861L569.0288 820.7809L569.0288 820.7809L540.7216 820.7809z" /></clipPath></defs><g transform="matrix(1.333333 0 0 1.333333 0 0)"><g clip-path="url(#1)"><g clip-path="url(#2)"><g clip-path="url(#3)"><g clip-path="url(#4)"></g><path id="8" transform="matrix(1 0 0 -1 0 841)" d="M22.31501 810.6631L571.7876 810.6631L571.7876 810.6631L571.7876 810.0634L571.7876 810.0634L22.31501 810.0634" stroke="none" fill="#000000" fill-rule="evenodd" /><path id="9" transform="matrix(1 0 0 -1 0 841)" d="M22.07512 810.6631L22.5549 810.6631L22.5549 810.6631L22.5549 810.0634L22.5549 810.0634L22.07512 810.0634" stroke="none" fill="#000000" fill-rule="evenodd" /><path id="10" transform="matrix(1 0 0 -1 0 841)" d="M571.5477 810.6631L572.0275 810.6631L572.0275 810.6631L572.0275 810.0634L572.0275 810.0634L571.5477 810.0634" stroke="none" fill="#000000" fill-rule="evenodd" /><path id="11" transform="matrix(1 0 0 -1 0 841)" d="M572.0275 810.4233L572.0275 792.0715L572.0275 792.0715L571.4277 792.0715L571.4277 792.0715L571.4277 810.4233" stroke="none" fill="#000000" fill-rule="evenodd" /><path id="12" transform="matrix(1 0 0 -1 0 841)" d="M572.0275 810.6631L572.0275 810.1833L572.0275 810.1833L571.4277 810.1833L571.4277 810.1833L571.4277 810.6631" stroke="none" fill="#000000" fill-rule="evenodd" /><path id="13" transform="matrix(1 0 0 -1 0 841)" d="M572.0275 792.3114L572.0275 791.8316L572.0275 791.8316L571.4277 791.8316L571.4277 791.8316L571.4277 792.3114" stroke="none" fill="#000000" fill-rule="evenodd" /><path id="14" transform="matrix(1 0 0 -1 0 841)" d="M571.7876 791.8316L22.31501 791.8316L22.31501 791.8316L22.31501 792.4313L22.31501 792.4313L571.7876 792.4313" stroke="none" fill="#000000" fill-rule="evenodd" /><path id="15" transform="matrix(1 0 0 -1 0 841)" d="M572.0275 791.8316L571.5477 791.8316L571.5477 791.8316L571.5477 792.4313L571.5477 792.4313L572.0275 792.4313" stroke="none" fill="#000000" fill-rule="evenodd" /><path id="16" transform="matrix(1 0 0 -1 0 841)" d="M22.5549 791.8316L22.07512 791.8316L22.07512 791.8316L22.07512 792.4313L22.07512 792.4313L22.5549 792.4313" stroke="none" fill="#000000" fill-rule="evenodd" /><path id="17" transform="matrix(1 0 0 -1 0 841)" d="M22.07512 792.0715L22.07512 810.4233L22.07512 810.4233L22.67485 810.4233L22.67485 810.4233L22.67485 792.0715" stroke="none" fill="#000000" fill-rule="evenodd" /><path id="18" transform="matrix(1 0 0 -1 0 841)" d="M22.07512 791.8316L22.07512 792.3114L22.07512 792.3114L22.67485 792.3114L22.67485 792.3114L22.67485 791.8316" stroke="none" fill="#000000" fill-rule="evenodd" /><path id="19" transform="matrix(1 0 0 -1 0 841)" d="M22.07512 810.1833L22.07512 810.6631L22.07512 810.6631L22.67485 810.6631L22.67485 810.6631L22.67485 810.1833" stroke="none" fill="#000000" fill-rule="evenodd" /></g><g clip-path="url(#5)"><path id="20" transform="matrix(1 0 0 -1 0 841)" d="M22.31501 791.1119L571.7876 791.1119L571.7876 791.1119L571.7876 790.5122L571.7876 790.5122L22.31501 790.5122" stroke="none" fill="#000000" fill-rule="evenodd" /><path id="21" transform="matrix(1 0 0 -1 0 841)" d="M22.07512 791.1119L22.5549 791.1119L22.5549 791.1119L22.5549 790.5122L22.5549 790.5122L22.07512 790.5122" stroke="none" fill="#000000" fill-rule="evenodd" /><path id="22" transform="matrix(1 0 0 -1 0 841)" d="M571.5477 791.1119L572.0275 791.1119L572.0275 791.1119L572.0275 790.5122L572.0275 790.5122L571.5477 790.5122" stroke="none" fill="#000000" fill-rule="evenodd" /><path id="23" transform="matrix(1 0 0 -1 0 841)" d="M572.0275 790.8721L572.0275 766.2831L572.0275 766.2831L571.4277 766.2831L571.4277 766.2831L571.4277 790.8721" stroke="none" fill="#000000" fill-rule="evenodd" /><path id="24" transform="matrix(1 0 0 -1 0 841)" d="M572.0275 791.1119L572.0275 790.6321L572.0275 790.6321L571.4277 790.6321L571.4277 790.6321L571.4277 791.1119" stroke="none" fill="#000000" fill-rule="evenodd" /><path id="25" transform="matrix(1 0 0 -1 0 841)" d="M572.0275 766.523L572.0275 766.0432L572.0275 766.0432L571.4277 766.0432L571.4277 766.0432L571.4277 766.523" stroke="none" fill="#000000" fill-rule="evenodd" /><path id="26" transform="matrix(1 0 0 -1 0 841)" d="M571.7876 766.0432L22.31501 766.0432L22.31501 766.0432L22.31501 766.6429L22.31501 766.6429L571.7876 766.6429" stroke="none" fill="#000000" fill-rule="evenodd" /><path id="27" transform="matrix(1 0 0 -1 0 841)" d="M572.0275 766.0432L571.5477 766.0432L571.5477 766.0432L571.5477 766.6429L571.5477 766.6429L572.0275 766.6429" stroke="none" fill="#000000" fill-rule="evenodd" /><path id="28" transform="matrix(1 0 0 -1 0 841)" d="M22.5549 766.0432L22.07512 766.0432L22.07512 766.0432L22.07512 766.6429L22.07512 766.6429L22.5549 766.6429" stroke="none" fill="#000000" fill-rule="evenodd" /><path id="29" transform="matrix(1 0 0 -1 0 841)" d="M22.07512 766.2831L22.07512 790.8721L22.07512 790.8721L22.67485 790.8721L22.67485 790.8721L22.67485 766.2831" stroke="none" fill="#000000" fill-rule="evenodd" /><path id="30" transform="matrix(1 0 0 -1 0 841)" d="M22.07512 766.0432L22.07512 766.523L22.07512 766.523L22.67485 766.523L22.67485 766.523L22.67485 766.0432" stroke="none" fill="#000000" fill-rule="evenodd" /><path id="31" transform="matrix(1 0 0 -1 0 841)" d="M22.07512 790.6321L22.07512 791.1119L22.07512 791.1119L22.67485 791.1119L22.67485 791.1119L22.67485 790.6321" stroke="none" fill="#000000" fill-rule="evenodd" /><g clip-path="url(#6)"></g></g><g clip-path="url(#7)"><g clip-path="url(#8)"><g clip-path="url(#9)"></g></g><g clip-path="url(#10)"><g clip-path="url(#11)"></g></g><g clip-path="url(#12)"><g clip-path="url(#13)"></g></g><g clip-path="url(#14)"><g clip-path="url(#15)"></g></g><g clip-path="url(#16)"><g clip-path="url(#17)"></g></g><g clip-path="url(#18)"><g clip-path="url(#19)"></g></g><g clip-path="url(#20)"><g clip-path="url(#21)"></g></g><g clip-path="url(#22)"><g clip-path="url(#23)"></g></g><g clip-path="url(#24)"><g clip-path="url(#25)"></g></g><g clip-path="url(#26)"><g clip-path="url(#27)"></g></g><g clip-path="url(#28)"><g clip-path="url(#29)"></g></g><g clip-path="url(#30)"><g clip-path="url(#31)"></g></g></g><g clip-path="url(#32)"><path id="1171" transform="matrix(1 0 0 -1 0 841)" d="M22.31501 591.8817L571.7876 591.8817L571.7876 591.8817L571.7876 591.2819L571.7876 591.2819L22.31501 591.2819" stroke="none" fill="#000000" fill-rule="evenodd" /><path id="1172" transform="matrix(1 0 0 -1 0 841)" d="M22.07512 591.8817L22.5549 591.8817L22.5549 591.8817L22.5549 591.2819L22.5549 591.2819L22.07512 591.2819" stroke="none" fill="#000000" fill-rule="evenodd" /><path id="1173" transform="matrix(1 0 0 -1 0 841)" d="M571.5477 591.8817L572.0275 591.8817L572.0275 591.8817L572.0275 591.2819L572.0275 591.2819L571.5477 591.2819" stroke="none" fill="#000000" fill-rule="evenodd" /><path id="1174" transform="matrix(1 0 0 -1 0 841)" d="M572.0275 591.6418L572.0275 567.0529L572.0275 567.0529L571.4277 567.0529L571.4277 567.0529L571.4277 591.6418" stroke="none" fill="#000000" fill-rule="evenodd" /><path id="1175" transform="matrix(1 0 0 -1 0 841)" d="M572.0275 591.8817L572.0275 591.4019L572.0275 591.4019L571.4277 591.4019L571.4277 591.4019L571.4277 591.8817" stroke="none" fill="#000000" fill-rule="evenodd" /><path id="1176" transform="matrix(1 0 0 -1 0 841)" d="M572.0275 567.2927L572.0275 566.8129L572.0275 566.8129L571.4277 566.8129L571.4277 566.8129L571.4277 567.2927" stroke="none" fill="#000000" fill-rule="evenodd" /><path id="1177" transform="matrix(1 0 0 -1 0 841)" d="M571.7876 566.8129L22.31501 566.8129L22.31501 566.8129L22.31501 567.4127L22.31501 567.4127L571.7876 567.4127" stroke="none" fill="#000000" fill-rule="evenodd" /><path id="1178" transform="matrix(1 0 0 -1 0 841)" d="M572.0275 566.8129L571.5477 566.8129L571.5477 566.8129L571.5477 567.4127L571.5477 567.4127L572.0275 567.4127" stroke="none" fill="#000000" fill-rule="evenodd" /><path id="1179" transform="matrix(1 0 0 -1 0 841)" d="M22.5549 566.8129L22.07512 566.8129L22.07512 566.8129L22.07512 567.4127L22.07512 567.4127L22.5549 567.4127" stroke="none" fill="#000000" fill-rule="evenodd" /><path id="1180" transform="matrix(1 0 0 -1 0 841)" d="M22.07512 567.0529L22.07512 591.6418L22.07512 591.6418L22.67485 591.6418L22.67485 591.6418L22.67485 567.0529" stroke="none" fill="#000000" fill-rule="evenodd" /><path id="1181" transform="matrix(1 0 0 -1 0 841)" d="M22.07512 566.8129L22.07512 567.2927L22.07512 567.2927L22.67485 567.2927L22.67485 567.2927L22.67485 566.8129" stroke="none" fill="#000000" fill-rule="evenodd" /><path id="1182" transform="matrix(1 0 0 -1 0 841)" d="M22.07512 591.4019L22.07512 591.8817L22.07512 591.8817L22.67485 591.8817L22.67485 591.8817L22.67485 591.4019" stroke="none" fill="#000000" fill-rule="evenodd" /><g clip-path="url(#33)"><g clip-path="url(#34)"></g></g><path id="1228" transform="matrix(1 0 0 -1 0 841)" d="M25.07376 450.5853L569.0288 450.5853L569.0288 450.5853L569.0288 449.9855L569.0288 449.9855L25.07376 449.9855" stroke="none" fill="#000000" fill-rule="evenodd" /><path id="1229" transform="matrix(1 0 0 -1 0 841)" d="M24.83387 450.5853L25.31366 450.5853L25.31366 450.5853L25.31366 449.9855L25.31366 449.9855L24.83387 449.9855" stroke="none" fill="#000000" fill-rule="evenodd" /><path id="1230" transform="matrix(1 0 0 -1 0 841)" d="M568.7889 450.5853L569.2687 450.5853L569.2687 450.5853L569.2687 449.9855L569.2687 449.9855L568.7889 449.9855" stroke="none" fill="#000000" fill-rule="evenodd" /><path id="1231" transform="matrix(1 0 0 -1 0 841)" d="M569.2687 450.3454L569.2687 414.0017L569.2687 414.0017L568.669 414.0017L568.669 414.0017L568.669 450.3454" stroke="none" fill="#000000" fill-rule="evenodd" /><path id="1232" transform="matrix(1 0 0 -1 0 841)" d="M569.2687 450.5853L569.2687 450.1055L569.2687 450.1055L568.669 450.1055L568.669 450.1055L568.669 450.5853" stroke="none" fill="#000000" fill-rule="evenodd" /><path id="1233" transform="matrix(1 0 0 -1 0 841)" d="M569.2687 414.2416L569.2687 413.7618L569.2687 413.7618L568.669 413.7618L568.669 413.7618L568.669 414.2416" stroke="none" fill="#000000" fill-rule="evenodd" /><path id="1234" transform="matrix(1 0 0 -1 0 841)" d="M569.0288 413.7618L25.07376 413.7618L25.07376 413.7618L25.07376 414.3616L25.07376 414.3616L569.0288 414.3616" stroke="none" fill="#000000" fill-rule="evenodd" /><path id="1235" transform="matrix(1 0 0 -1 0 841)" d="M569.2687 413.7618L568.7889 413.7618L568.7889 413.7618L568.7889 414.3616L568.7889 414.3616L569.2687 414.3616" stroke="none" fill="#000000" fill-rule="evenodd" /><path id="1236" transform="matrix(1 0 0 -1 0 841)" d="M25.31366 413.7618L24.83387 413.7618L24.83387 413.7618L24.83387 414.3616L24.83387 414.3616L25.31366 414.3616" stroke="none" fill="#000000" fill-rule="evenodd" /><path id="1237" transform="matrix(1 0 0 -1 0 841)" d="M24.83387 414.0017L24.83387 450.3454L24.83387 450.3454L25.4336 450.3454L25.4336 450.3454L25.4336 414.0017" stroke="none" fill="#000000" fill-rule="evenodd" /><path id="1238" transform="matrix(1 0 0 -1 0 841)" d="M24.83387 413.7618L24.83387 414.2416L24.83387 414.2416L25.4336 414.2416L25.4336 414.2416L25.4336 413.7618" stroke="none" fill="#000000" fill-rule="evenodd" /><path id="1239" transform="matrix(1 0 0 -1 0 841)" d="M24.83387 450.1055L24.83387 450.5853L24.83387 450.5853L25.4336 450.5853L25.4336 450.5853L25.4336 450.1055" stroke="none" fill="#000000" fill-rule="evenodd" /><g clip-path="url(#35)"><g clip-path="url(#36)"></g></g><g clip-path="url(#37)"><g clip-path="url(#38)"></g></g><g clip-path="url(#39)"><g clip-path="url(#40)"></g></g><g clip-path="url(#41)"><g clip-path="url(#42)"></g></g><g clip-path="url(#43)"><g clip-path="url(#44)"></g></g><g clip-path="url(#45)"><g clip-path="url(#46)"></g></g><path id="1285" transform="matrix(1 0 0 -1 0 841)" d="M370.998 450.3454L370.998 414.0017L370.998 414.0017L370.3983 414.0017L370.3983 414.0017L370.3983 450.3454" stroke="none" fill="#000000" fill-rule="evenodd" /><path id="1286" transform="matrix(1 0 0 -1 0 841)" d="M370.998 450.5853L370.998 450.1055L370.998 450.1055L370.3983 450.1055L370.3983 450.1055L370.3983 450.5853" stroke="none" fill="#000000" fill-rule="evenodd" /><path id="1287" transform="matrix(1 0 0 -1 0 841)" d="M370.998 414.2416L370.998 413.7618L370.998 413.7618L370.3983 413.7618L370.3983 413.7618L370.3983 414.2416" stroke="none" fill="#000000" fill-rule="evenodd" /><path id="1288" transform="matrix(1 0 0 -1 0 841)" d="M467.3146 450.3454L467.3146 414.0017L467.3146 414.0017L466.7149 414.0017L466.7149 414.0017L466.7149 450.3454" stroke="none" fill="#000000" fill-rule="evenodd" /><path id="1289" transform="matrix(1 0 0 -1 0 841)" d="M467.3146 450.5853L467.3146 450.1055L467.3146 450.1055L466.7149 450.1055L466.7149 450.1055L466.7149 450.5853" stroke="none" fill="#000000" fill-rule="evenodd" /><path id="1290" transform="matrix(1 0 0 -1 0 841)" d="M467.3146 414.2416L467.3146 413.7618L467.3146 413.7618L466.7149 413.7618L466.7149 413.7618L466.7149 414.2416" stroke="none" fill="#000000" fill-rule="evenodd" /><path id="1291" transform="matrix(1 0 0 -1 0 841)" d="M25.07376 432.7133L569.0288 432.7133L569.0288 432.7133L569.0288 432.1136L569.0288 432.1136L25.07376 432.1136" stroke="none" fill="#000000" fill-rule="evenodd" /><path id="1292" transform="matrix(1 0 0 -1 0 841)" d="M24.83387 432.7133L25.31366 432.7133L25.31366 432.7133L25.31366 432.1136L25.31366 432.1136L24.83387 432.1136" stroke="none" fill="#000000" fill-rule="evenodd" /><path id="1293" transform="matrix(1 0 0 -1 0 841)" d="M568.7889 432.7133L569.2687 432.7133L569.2687 432.7133L569.2687 432.1136L569.2687 432.1136L568.7889 432.1136" stroke="none" fill="#000000" fill-rule="evenodd" /><g clip-path="url(#47)"><g clip-path="url(#48)"></g></g><g clip-path="url(#49)"><g clip-path="url(#50)"></g></g><g clip-path="url(#51)"><g clip-path="url(#52)"></g></g><g clip-path="url(#53)"><g clip-path="url(#54)"></g></g><g clip-path="url(#55)"><g clip-path="url(#56)"></g></g><g clip-path="url(#57)"><g clip-path="url(#58)"></g></g><g clip-path="url(#59)"><g clip-path="url(#60)"></g></g><g clip-path="url(#61)"><g clip-path="url(#62)"></g></g><g clip-path="url(#63)"><g clip-path="url(#64)"></g></g><g clip-path="url(#65)"><g clip-path="url(#66)"></g></g><g clip-path="url(#67)"><g clip-path="url(#68)"></g></g><g clip-path="url(#69)"><g clip-path="url(#70)"><path id="1643" transform="matrix(1 0 0 -1 0 841)" d="M25.07376 469.6771L163.1316 469.6771" stroke="#0000FF" stroke-width="1.035374" fill="none" /></g></g><g clip-path="url(#71)"><g clip-path="url(#72)"></g></g><g clip-path="url(#73)"><g clip-path="url(#74)"></g></g><g clip-path="url(#75)"><g clip-path="url(#76)"></g></g><g clip-path="url(#77)"><g clip-path="url(#78)"></g></g><g clip-path="url(#79)"><g clip-path="url(#80)"></g></g><g clip-path="url(#81)"><g clip-path="url(#82)"></g></g><g clip-path="url(#83)"><g clip-path="url(#84)"></g></g></g><g clip-path="url(#85)"><path id="1863" transform="matrix(1 0 0 -1 0 841)" d="M22.31501 343.1136L571.7876 343.1136L571.7876 343.1136L571.7876 342.5139L571.7876 342.5139L22.31501 342.5139" stroke="none" fill="#000000" fill-rule="evenodd" /><path id="1864" transform="matrix(1 0 0 -1 0 841)" d="M22.07512 343.1136L22.5549 343.1136L22.5549 343.1136L22.5549 342.5139L22.5549 342.5139L22.07512 342.5139" stroke="none" fill="#000000" fill-rule="evenodd" /><path id="1865" transform="matrix(1 0 0 -1 0 841)" d="M571.5477 343.1136L572.0275 343.1136L572.0275 343.1136L572.0275 342.5139L572.0275 342.5139L571.5477 342.5139" stroke="none" fill="#000000" fill-rule="evenodd" /><path id="1866" transform="matrix(1 0 0 -1 0 841)" d="M572.0275 342.8738L572.0275 318.2849L572.0275 318.2849L571.4277 318.2849L571.4277 318.2849L571.4277 342.8738" stroke="none" fill="#000000" fill-rule="evenodd" /><path id="1867" transform="matrix(1 0 0 -1 0 841)" d="M572.0275 343.1136L572.0275 342.6339L572.0275 342.6339L571.4277 342.6339L571.4277 342.6339L571.4277 343.1136" stroke="none" fill="#000000" fill-rule="evenodd" /><path id="1868" transform="matrix(1 0 0 -1 0 841)" d="M572.0275 318.5247L572.0275 318.0449L572.0275 318.0449L571.4277 318.0449L571.4277 318.0449L571.4277 318.5247" stroke="none" fill="#000000" fill-rule="evenodd" /><path id="1869" transform="matrix(1 0 0 -1 0 841)" d="M571.7876 318.0449L22.31501 318.0449L22.31501 318.0449L22.31501 318.6447L22.31501 318.6447L571.7876 318.6447" stroke="none" fill="#000000" fill-rule="evenodd" /><path id="1870" transform="matrix(1 0 0 -1 0 841)" d="M572.0275 318.0449L571.5477 318.0449L571.5477 318.0449L571.5477 318.6447L571.5477 318.6447L572.0275 318.6447" stroke="none" fill="#000000" fill-rule="evenodd" /><path id="1871" transform="matrix(1 0 0 -1 0 841)" d="M22.5549 318.0449L22.07512 318.0449L22.07512 318.0449L22.07512 318.6447L22.07512 318.6447L22.5549 318.6447" stroke="none" fill="#000000" fill-rule="evenodd" /><path id="1872" transform="matrix(1 0 0 -1 0 841)" d="M22.07512 318.2849L22.07512 342.8738L22.07512 342.8738L22.67485 342.8738L22.67485 342.8738L22.67485 318.2849" stroke="none" fill="#000000" fill-rule="evenodd" /><path id="1873" transform="matrix(1 0 0 -1 0 841)" d="M22.07512 318.0449L22.07512 318.5247L22.07512 318.5247L22.67485 318.5247L22.67485 318.5247L22.67485 318.0449" stroke="none" fill="#000000" fill-rule="evenodd" /><path id="1874" transform="matrix(1 0 0 -1 0 841)" d="M22.07512 342.6339L22.07512 343.1136L22.07512 343.1136L22.67485 343.1136L22.67485 343.1136L22.67485 342.6339" stroke="none" fill="#000000" fill-rule="evenodd" /><g clip-path="url(#86)"><g clip-path="url(#87)"></g></g><g clip-path="url(#88)"><g clip-path="url(#89)"></g></g><g clip-path="url(#90)"><g clip-path="url(#91)"></g></g><g clip-path="url(#92)"><g clip-path="url(#93)"></g></g><g clip-path="url(#94)"><g clip-path="url(#95)"></g></g><g clip-path="url(#96)"><g clip-path="url(#97)"></g></g><g clip-path="url(#98)"><g clip-path="url(#99)"></g></g><g clip-path="url(#100)"><g clip-path="url(#101)"></g></g><g clip-path="url(#102)"><g clip-path="url(#103)"></g></g><g clip-path="url(#104)"><g clip-path="url(#105)"></g></g><g clip-path="url(#106)"><g clip-path="url(#107)"></g></g><g clip-path="url(#108)"><g clip-path="url(#109)"></g></g><g clip-path="url(#110)"><g clip-path="url(#111)"></g></g><g clip-path="url(#112)"><g clip-path="url(#113)"><path id="3619" transform="matrix(1 0 0 -1 0 841)" d="M25.07376 305.3511L231.2609 305.3511" stroke="#0000FF" stroke-width="1.035374" fill="none" /></g></g></g><g clip-path="url(#114)"><g clip-path="url(#115)"></g><path id="3689" transform="matrix(1 0 0 -1 0 841)" d="M22.31501 34.61255L571.7876 34.61255L571.7876 34.61255L571.7876 34.01282L571.7876 34.01282L22.31501 34.01282" stroke="none" fill="#000000" fill-rule="evenodd" /><path id="3690" transform="matrix(1 0 0 -1 0 841)" d="M22.07512 34.61255L22.5549 34.61255L22.5549 34.61255L22.5549 34.01282L22.5549 34.01282L22.07512 34.01282" stroke="none" fill="#000000" fill-rule="evenodd" /><path id="3691" transform="matrix(1 0 0 -1 0 841)" d="M571.5477 34.61255L572.0275 34.61255L572.0275 34.61255L572.0275 34.01282L572.0275 34.01282L571.5477 34.01282" stroke="none" fill="#000000" fill-rule="evenodd" /><path id="3692" transform="matrix(1 0 0 -1 0 841)" d="M572.0275 34.37268L572.0275 16.02094L572.0275 16.02094L571.4277 16.02094L571.4277 16.02094L571.4277 34.37268" stroke="none" fill="#000000" fill-rule="evenodd" /><path id="3693" transform="matrix(1 0 0 -1 0 841)" d="M572.0275 34.61255L572.0275 34.13275L572.0275 34.13275L571.4277 34.13275L571.4277 34.13275L571.4277 34.61255" stroke="none" fill="#000000" fill-rule="evenodd" /><path id="3694" transform="matrix(1 0 0 -1 0 841)" d="M572.0275 16.2608L572.0275 15.78107L572.0275 15.78107L571.4277 15.78107L571.4277 15.78107L571.4277 16.2608" stroke="none" fill="#000000" fill-rule="evenodd" /><path id="3695" transform="matrix(1 0 0 -1 0 841)" d="M571.7876 15.78107L22.31501 15.78107L22.31501 15.78107L22.31501 16.3808L22.31501 16.3808L571.7876 16.3808" stroke="none" fill="#000000" fill-rule="evenodd" /><path id="3696" transform="matrix(1 0 0 -1 0 841)" d="M572.0275 15.78107L571.5477 15.78107L571.5477 15.78107L571.5477 16.3808L571.5477 16.3808L572.0275 16.3808" stroke="none" fill="#000000" fill-rule="evenodd" /><path id="3697" transform="matrix(1 0 0 -1 0 841)" d="M22.5549 15.78107L22.07512 15.78107L22.07512 15.78107L22.07512 16.3808L22.07512 16.3808L22.5549 16.3808" stroke="none" fill="#000000" fill-rule="evenodd" /><path id="3698" transform="matrix(1 0 0 -1 0 841)" d="M22.07512 16.02094L22.07512 34.37268L22.07512 34.37268L22.67485 34.37268L22.67485 34.37268L22.67485 16.02094" stroke="none" fill="#000000" fill-rule="evenodd" /><path id="3699" transform="matrix(1 0 0 -1 0 841)" d="M22.07512 15.78107L22.07512 16.2608L22.07512 16.2608L22.67485 16.2608L22.67485 16.2608L22.67485 15.78107" stroke="none" fill="#000000" fill-rule="evenodd" /><path id="3700" transform="matrix(1 0 0 -1 0 841)" d="M22.07512 34.13275L22.07512 34.61255L22.07512 34.61255L22.67485 34.61255L22.67485 34.61255L22.67485 34.13275" stroke="none" fill="#000000" fill-rule="evenodd" /><g clip-path="url(#116)"></g><g clip-path="url(#117)"></g><g clip-path="url(#118)"></g><g clip-path="url(#119)"></g><g clip-path="url(#120)"></g><g clip-path="url(#121)"></g><g clip-path="url(#122)"></g><g clip-path="url(#123)"></g><g clip-path="url(#124)"></g></g></g></g></g></svg>