<svg xmlns="http://www.w3.org/2000/svg" xmlns:xlink="http://www.w3.org/1999/xlink" id="body_132" preserveAspectRatio="xMinYMin meet" viewBox="0 0 793 1121"><defs><clipPath id="1"><path id="" clip-rule="evenodd" transform="matrix(1 0 0 1 0 0)" d="M0 841L0 -0.8900146L0 -0.8900146L595.276 -0.8900146L595.276 -0.8900146L595.276 841L595.276 841L0 841z" /></clipPath></defs><g transform="matrix(1.333333 0 0 1.333333 0 0)"><g clip-path="url(#1)"><path id="37" transform="matrix(1 0 0 -1 0 841)" d="M85.039 766.564L510.236 766.564" stroke="#000000" stroke-width="0.498" fill="none" /><path id="465" transform="matrix(1 0 0 -1 0 841)" d="M267.307 628.058L297.703 628.058L297.703 639.266L267.307 639.266z" stroke="none" fill="#FFF100" fill-rule="nonzero" /><path id="843" transform="matrix(1 0 0 -1 0 841)" d="M290.468 528.532L320.864 528.532L320.864 539.74L290.468 539.74z" stroke="none" fill="#FFF100" fill-rule="nonzero" /><path id="1608" transform="matrix(1 0 0 -1 0 841)" d="M112.063 303.625L119.754 303.625L119.754 314.833L112.063 314.833z" stroke="none" fill="#FFF100" fill-rule="nonzero" /><path id="1610" transform="matrix(1 0 0 -1 0 841)" d="M119.361 303.625L121.58 303.625L121.58 314.833L119.361 314.833z" stroke="none" fill="#FFF100" fill-rule="nonzero" /><path id="1611" transform="matrix(1 0 0 -1 0 841)" d="M121.331 303.625L137.331 303.625L137.331 314.833L121.331 314.833z" stroke="none" fill="#FFF100" fill-rule="nonzero" /><path id="1615" transform="matrix(1 0 0 -1 0 841)" d="M136.523 303.625L139.791 303.625L139.791 314.833L136.523 314.833z" stroke="none" fill="#FFF100" fill-rule="nonzero" /><path id="1617" transform="matrix(1 0 0 -1 0 841)" d="M139.237 303.625L160.218 303.625L160.218 314.833L139.237 314.833z" stroke="none" fill="#FFF100" fill-rule="nonzero" /><path id="1621" transform="matrix(1 0 0 -1 0 841)" d="M159.559 303.625L161.778 303.625L161.778 314.833L159.559 314.833z" stroke="none" fill="#FFF100" fill-rule="nonzero" /><path id="1622" transform="matrix(1 0 0 -1 0 841)" d="M161.529 303.625L170.326 303.625L170.326 314.833L161.529 314.833z" stroke="none" fill="#FFF100" fill-rule="nonzero" /><path id="1625" transform="matrix(1 0 0 -1 0 841)" d="M169.911 303.625L172.13 303.625L172.13 314.833L169.911 314.833z" stroke="none" fill="#FFF100" fill-rule="nonzero" /><path id="1626" transform="matrix(1 0 0 -1 0 841)" d="M171.881 303.625L190.641 303.625L190.641 314.833L171.881 314.833z" stroke="none" fill="#FFF100" fill-rule="nonzero" /><path id="1630" transform="matrix(1 0 0 -1 0 841)" d="M190.026 303.625L192.245 303.625L192.245 314.833L190.026 314.833z" stroke="none" fill="#FFF100" fill-rule="nonzero" /><path id="1631" transform="matrix(1 0 0 -1 0 841)" d="M191.996 303.625L222.182 303.625L222.182 314.833L191.996 314.833z" stroke="none" fill="#FFF100" fill-rule="nonzero" /><path id="1640" transform="matrix(1 0 0 -1 0 841)" d="M221.335 303.625L223.554 303.625L223.554 314.833L221.335 314.833z" stroke="none" fill="#FFF100" fill-rule="nonzero" /><path id="1641" transform="matrix(1 0 0 -1 0 841)" d="M223.305 303.625L247.056 303.625L247.056 314.833L223.305 314.833z" stroke="none" fill="#FFF100" fill-rule="nonzero" /><path id="1648" transform="matrix(1 0 0 -1 0 841)" d="M246.341 303.625L248.56 303.625L248.56 314.833L246.341 314.833z" stroke="none" fill="#FFF100" fill-rule="nonzero" /><path id="1649" transform="matrix(1 0 0 -1 0 841)" d="M248.311 303.625L256.55 303.625L256.55 314.833L248.311 314.833z" stroke="none" fill="#FFF100" fill-rule="nonzero" /><path id="1652" transform="matrix(1 0 0 -1 0 841)" d="M255.897 303.625L270.781 303.625L270.781 314.833L255.897 314.833z" stroke="none" fill="#FFF100" fill-rule="nonzero" /><path id="1656" transform="matrix(1 0 0 -1 0 841)" d="M269.995 303.625L285.995 303.625L285.995 314.833L269.995 314.833z" stroke="none" fill="#FFF100" fill-rule="nonzero" /><path id="1779" transform="matrix(1 0 0 -1 0 841)" d="M84.79 273.737L98.97701 273.737L98.97701 284.945L84.79 284.945z" stroke="none" fill="#FFF100" fill-rule="nonzero" /><path id="1783" transform="matrix(1 0 0 -1 0 841)" d="M99.005 273.737L102.207 273.737L102.207 284.945L99.005 284.945z" stroke="none" fill="#FFF100" fill-rule="nonzero" /><path id="1784" transform="matrix(1 0 0 -1 0 841)" d="M101.958 273.737L138.441 273.737L138.441 284.945L101.958 284.945z" stroke="none" fill="#FFF100" fill-rule="nonzero" /><path id="1794" transform="matrix(1 0 0 -1 0 841)" d="M138.911 273.737L142.113 273.737L142.113 284.945L138.911 284.945z" stroke="none" fill="#FFF100" fill-rule="nonzero" /><path id="1795" transform="matrix(1 0 0 -1 0 841)" d="M141.865 273.737L150.114 273.737L150.114 284.945L141.865 284.945z" stroke="none" fill="#FFF100" fill-rule="nonzero" /><path id="1798" transform="matrix(1 0 0 -1 0 841)" d="M150.02 273.737L153.222 273.737L153.222 284.945L150.02 284.945z" stroke="none" fill="#FFF100" fill-rule="nonzero" /><path id="1799" transform="matrix(1 0 0 -1 0 841)" d="M152.973 273.737L170.627 273.737L170.627 284.945L152.973 284.945z" stroke="none" fill="#FFF100" fill-rule="nonzero" /><path id="1804" transform="matrix(1 0 0 -1 0 841)" d="M170.471 273.737L182.037 273.737L182.037 284.945L170.471 284.945z" stroke="none" fill="#FFF100" fill-rule="nonzero" /><path id="1808" transform="matrix(1 0 0 -1 0 841)" d="M182.01 273.737L185.212 273.737L185.212 284.945L182.01 284.945z" stroke="none" fill="#FFF100" fill-rule="nonzero" /><path id="1809" transform="matrix(1 0 0 -1 0 841)" d="M184.963 273.737L197.077 273.737L197.077 284.945L184.963 284.945z" stroke="none" fill="#FFF100" fill-rule="nonzero" /><path id="1813" transform="matrix(1 0 0 -1 0 841)" d="M197.061 273.737L200.263 273.737L200.263 284.945L197.061 284.945z" stroke="none" fill="#FFF100" fill-rule="nonzero" /><path id="1814" transform="matrix(1 0 0 -1 0 841)" d="M200.014 273.737L211.581 273.737L211.581 284.945L200.014 284.945z" stroke="none" fill="#FFF100" fill-rule="nonzero" /><path id="1817" transform="matrix(1 0 0 -1 0 841)" d="M211.304 273.737L225.63 273.737L225.63 284.945L211.304 284.945z" stroke="none" fill="#FFF100" fill-rule="nonzero" /><path id="1821" transform="matrix(1 0 0 -1 0 841)" d="M225.409 273.737L248.602 273.737L248.602 284.945L225.409 284.945z" stroke="none" fill="#FFF100" fill-rule="nonzero" /><path id="1828" transform="matrix(1 0 0 -1 0 841)" d="M248.806 273.737L252.008 273.737L252.008 284.945L248.806 284.945z" stroke="none" fill="#FFF100" fill-rule="nonzero" /><path id="1829" transform="matrix(1 0 0 -1 0 841)" d="M251.76 273.737L271.625 273.737L271.625 284.945L251.76 284.945z" stroke="none" fill="#FFF100" fill-rule="nonzero" /><path id="1834" transform="matrix(1 0 0 -1 0 841)" d="M271.514 273.737L282.532 273.737L282.532 284.945L271.514 284.945z" stroke="none" fill="#FFF100" fill-rule="nonzero" /><path id="1838" transform="matrix(1 0 0 -1 0 841)" d="M282.494 273.737L285.696 273.737L285.696 284.945L282.494 284.945z" stroke="none" fill="#FFF100" fill-rule="nonzero" /><path id="1839" transform="matrix(1 0 0 -1 0 841)" d="M285.447 273.737L305.86 273.737L305.86 284.945L285.447 284.945z" stroke="none" fill="#FFF100" fill-rule="nonzero" /><path id="1844" transform="matrix(1 0 0 -1 0 841)" d="M306.01 273.737L309.212 273.737L309.212 284.945L306.01 284.945z" stroke="none" fill="#FFF100" fill-rule="nonzero" /><path id="1845" transform="matrix(1 0 0 -1 0 841)" d="M308.963 273.737L327.174 273.737L327.174 284.945L308.963 284.945z" stroke="none" fill="#FFF100" fill-rule="nonzero" /><path id="1850" transform="matrix(1 0 0 -1 0 841)" d="M327.031 273.737L349.108 273.737L349.108 284.945L327.031 284.945z" stroke="none" fill="#FFF100" fill-rule="nonzero" /><path id="1856" transform="matrix(1 0 0 -1 0 841)" d="M349.29 273.737L352.492 273.737L352.492 284.945L349.29 284.945z" stroke="none" fill="#FFF100" fill-rule="nonzero" /><path id="1857" transform="matrix(1 0 0 -1 0 841)" d="M352.243 273.737L356.059 273.737L356.059 284.945L352.243 284.945z" stroke="none" fill="#FFF100" fill-rule="nonzero" /><path id="1859" transform="matrix(1 0 0 -1 0 841)" d="M355.876 273.737L359.078 273.737L359.078 284.945L355.876 284.945z" stroke="none" fill="#FFF100" fill-rule="nonzero" /><path id="1860" transform="matrix(1 0 0 -1 0 841)" d="M358.83 273.737L371.502 273.737L371.502 284.945L358.83 284.945z" stroke="none" fill="#FFF100" fill-rule="nonzero" /><path id="1864" transform="matrix(1 0 0 -1 0 841)" d="M371.496 273.737L374.698 273.737L374.698 284.945L371.496 284.945z" stroke="none" fill="#FFF100" fill-rule="nonzero" /><path id="1865" transform="matrix(1 0 0 -1 0 841)" d="M374.45 273.737L384.353 273.737L384.353 284.945L374.45 284.945z" stroke="none" fill="#FFF100" fill-rule="nonzero" /><path id="1868" transform="matrix(1 0 0 -1 0 841)" d="M384.042 273.737L395.06 273.737L395.06 284.945L384.042 284.945z" stroke="none" fill="#FFF100" fill-rule="nonzero" /><path id="1872" transform="matrix(1 0 0 -1 0 841)" d="M394.773 273.737L404.118 273.737L404.118 284.945L394.773 284.945z" stroke="none" fill="#FFF100" fill-rule="nonzero" /><path id="1875" transform="matrix(1 0 0 -1 0 841)" d="M403.797 273.737L419.797 273.737L419.797 284.945L403.797 284.945z" stroke="none" fill="#FFF100" fill-rule="nonzero" /><path id="1880" transform="matrix(1 0 0 -1 0 841)" d="M419.858 273.737L423.06 273.737L423.06 284.945L419.858 284.945z" stroke="none" fill="#FFF100" fill-rule="nonzero" /><path id="1881" transform="matrix(1 0 0 -1 0 841)" d="M422.811 273.737L431.608 273.737L431.608 284.945L422.811 284.945z" stroke="none" fill="#FFF100" fill-rule="nonzero" /><path id="1884" transform="matrix(1 0 0 -1 0 841)" d="M431.525 273.737L434.727 273.737L434.727 284.945L431.525 284.945z" stroke="none" fill="#FFF100" fill-rule="nonzero" /><path id="1885" transform="matrix(1 0 0 -1 0 841)" d="M434.478 273.737L459.325 273.737L459.325 284.945L434.478 284.945z" stroke="none" fill="#FFF100" fill-rule="nonzero" /><path id="1891" transform="matrix(1 0 0 -1 0 841)" d="M459.562 273.737L462.764 273.737L462.764 284.945L459.562 284.945z" stroke="none" fill="#FFF100" fill-rule="nonzero" /><path id="1892" transform="matrix(1 0 0 -1 0 841)" d="M462.516 273.737L469.659 273.737L469.659 284.945L462.516 284.945z" stroke="none" fill="#FFF100" fill-rule="nonzero" /><path id="1895" transform="matrix(1 0 0 -1 0 841)" d="M469.543 273.737L472.745 273.737L472.745 284.945L469.543 284.945z" stroke="none" fill="#FFF100" fill-rule="nonzero" /><path id="1896" transform="matrix(1 0 0 -1 0 841)" d="M472.496 273.737L480.187 273.737L480.187 284.945L472.496 284.945z" stroke="none" fill="#FFF100" fill-rule="nonzero" /><path id="1899" transform="matrix(1 0 0 -1 0 841)" d="M479.832 273.737L499.707 273.737L499.707 284.945L479.832 284.945z" stroke="none" fill="#FFF100" fill-rule="nonzero" /><path id="1904" transform="matrix(1 0 0 -1 0 841)" d="M84.79 258.793L95.251 258.793L95.251 270.001L84.79 270.001z" stroke="none" fill="#FFF100" fill-rule="nonzero" /><path id="1907" transform="matrix(1 0 0 -1 0 841)" d="M94.753 258.793L102.992 258.793L102.992 270.001L94.753 270.001z" stroke="none" fill="#FFF100" fill-rule="nonzero" /><path id="1910" transform="matrix(1 0 0 -1 0 841)" d="M102.494 258.793L134.812 258.793L134.812 270.001L102.494 270.001z" stroke="none" fill="#FFF100" fill-rule="nonzero" /><path id="1920" transform="matrix(1 0 0 -1 0 841)" d="M134.563 258.793L137.054 258.793L137.054 270.001L134.563 270.001z" stroke="none" fill="#FFF100" fill-rule="nonzero" /><path id="1921" transform="matrix(1 0 0 -1 0 841)" d="M136.805 258.793L142.842 258.793L142.842 270.001L136.805 270.001z" stroke="none" fill="#FFF100" fill-rule="nonzero" /><path id="1924" transform="matrix(1 0 0 -1 0 841)" d="M142.593 258.793L145.084 258.793L145.084 270.001L142.593 270.001z" stroke="none" fill="#FFF100" fill-rule="nonzero" /><path id="1925" transform="matrix(1 0 0 -1 0 841)" d="M144.834 258.793L164.709 258.793L164.709 270.001L144.834 270.001z" stroke="none" fill="#FFF100" fill-rule="nonzero" /><path id="1930" transform="matrix(1 0 0 -1 0 841)" d="M164.46 258.793L166.951 258.793L166.951 270.001L164.46 270.001z" stroke="none" fill="#FFF100" fill-rule="nonzero" /><path id="1931" transform="matrix(1 0 0 -1 0 841)" d="M166.702 258.793L186.567 258.793L186.567 270.001L166.702 270.001z" stroke="none" fill="#FFF100" fill-rule="nonzero" /><path id="1936" transform="matrix(1 0 0 -1 0 841)" d="M186.318 258.793L188.809 258.793L188.809 270.001L186.318 270.001z" stroke="none" fill="#FFF100" fill-rule="nonzero" /><path id="1937" transform="matrix(1 0 0 -1 0 841)" d="M188.56 258.793L199.02 258.793L199.02 270.001L188.56 270.001z" stroke="none" fill="#FFF100" fill-rule="nonzero" /><path id="1941" transform="matrix(1 0 0 -1 0 841)" d="M198.771 258.793L201.262 258.793L201.262 270.001L198.771 270.001z" stroke="none" fill="#FFF100" fill-rule="nonzero" /><path id="1942" transform="matrix(1 0 0 -1 0 841)" d="M201.013 258.793L221.426 258.793L221.426 270.001L201.013 270.001z" stroke="none" fill="#FFF100" fill-rule="nonzero" /><path id="1948" transform="matrix(1 0 0 -1 0 841)" d="M221.177 258.793L223.668 258.793L223.668 270.001L221.177 270.001z" stroke="none" fill="#FFF100" fill-rule="nonzero" /><path id="1949" transform="matrix(1 0 0 -1 0 841)" d="M223.418 258.793L232.215 258.793L232.215 270.001L223.418 270.001z" stroke="none" fill="#FFF100" fill-rule="nonzero" /><path id="1952" transform="matrix(1 0 0 -1 0 841)" d="M231.966 258.793L234.457 258.793L234.457 270.001L231.966 270.001z" stroke="none" fill="#FFF100" fill-rule="nonzero" /><path id="1953" transform="matrix(1 0 0 -1 0 841)" d="M234.208 258.793L246.88 258.793L246.88 270.001L234.208 270.001z" stroke="none" fill="#FFF100" fill-rule="nonzero" /><path id="1957" transform="matrix(1 0 0 -1 0 841)" d="M246.631 258.793L249.122 258.793L249.122 270.001L246.631 270.001z" stroke="none" fill="#FFF100" fill-rule="nonzero" /><path id="1958" transform="matrix(1 0 0 -1 0 841)" d="M248.873 258.793L260.439 258.793L260.439 270.001L248.873 270.001z" stroke="none" fill="#FFF100" fill-rule="nonzero" /><path id="1962" transform="matrix(1 0 0 -1 0 841)" d="M259.941 258.793L275.134 258.793L275.134 270.001L259.941 270.001z" stroke="none" fill="#FFF100" fill-rule="nonzero" /><path id="1966" transform="matrix(1 0 0 -1 0 841)" d="M274.636 258.793L290.636 258.793L290.636 270.001L274.636 270.001z" stroke="none" fill="#FFF100" fill-rule="nonzero" /></g></g></svg>