<svg xmlns="http://www.w3.org/2000/svg" xmlns:xlink="http://www.w3.org/1999/xlink" id="body_162" preserveAspectRatio="xMinYMin meet" viewBox="0 0 793 1121"><defs><clipPath id="1"><path id="" clip-rule="evenodd" transform="matrix(1 0 0 1 0 0)" d="M0 841L0 -0.8900146L0 -0.8900146L595.276 -0.8900146L595.276 -0.8900146L595.276 841L595.276 841L0 841z" /></clipPath></defs><g transform="matrix(1.333333 0 0 1.333333 0 0)"><g clip-path="url(#1)"><g transform="matrix(0.39765 0 0 0.39765 0.199 -0.6923828)"><g transform="matrix(1 0 0 1 0 0)"><image x="0" y="0" xlink:href="img_283.png" width="1497" height="773" /></g></g><path id="3" transform="matrix(1 0 0 -1 0 841)" d="M724.611 610.6792L100.9809 610.6792C 92.72734 610.6792 86.03673 603.9886 86.03673 595.735L86.03673 595.735L86.03673 577.8021C 86.03673 569.5485 92.72734 562.8579 100.9809 562.8579L100.9809 562.8579L724.611 562.8579C 732.8644 562.8579 739.5551 569.5485 739.5551 577.8021L739.5551 577.8021L739.5551 595.735C 739.5551 603.9886 732.8644 610.6792 724.611 610.6792z" stroke="#F36619" stroke-width="1.99255" fill="#FFFFFF" fill-rule="nonzero" fill-opacity="0.4980392" /></g></g></svg>