<svg xmlns="http://www.w3.org/2000/svg" xmlns:xlink="http://www.w3.org/1999/xlink" id="body_262" preserveAspectRatio="xMinYMin meet" viewBox="0 0 793 1121"><defs><clipPath id="1"><path id="" clip-rule="evenodd" transform="matrix(1 0 0 1 0 0)" d="M0 841L0 -0.8900146L0 -0.8900146L595.276 -0.8900146L595.276 -0.8900146L595.276 841L595.276 841L0 841z" /></clipPath></defs><g transform="matrix(1.333333 0 0 1.333333 0 0)"><g clip-path="url(#1)"><path id="23" transform="matrix(1 0 0 -1 0 841)" d="M85.039 766.564L510.236 766.564" stroke="#000000" stroke-width="0.498" fill="none" /><path id="41" transform="matrix(1 0 0 -1 0 841)" d="M85.039 85.039L85.039 723.0278C 85.039 725.3762 86.94264 727.2798 89.29099 727.2798L89.29099 727.2798L505.9893 727.2798C 508.3377 727.2798 510.2413 725.3762 510.2413 723.0278L510.2413 723.0278L510.2413 85.039z" stroke="none" fill="#BFBFFF" fill-rule="nonzero" /><path id="42" transform="matrix(1 0 0 -1 0 841)" d="M86.45631 85.039L86.45631 709.8643L508.824 709.8643L508.824 85.039z" stroke="none" fill="#E6E6FF" fill-rule="nonzero" /><path id="177" transform="matrix(1 0 0 -1 0 841)" d="M127.903 676.359L243.672 676.359" stroke="#000000" stroke-width="0.283" fill="none" /><path id="178" transform="matrix(1 0 0 -1 0 841)" d="M128.044 656.79L128.044 676.217" stroke="#000000" stroke-width="0.283" fill="none" /><path id="185" transform="matrix(1 0 0 -1 0 841)" d="M189.947 656.79L189.947 676.217" stroke="#000000" stroke-width="0.283" fill="none" /><path id="194" transform="matrix(1 0 0 -1 0 841)" d="M243.53 656.79L243.53 676.217" stroke="#000000" stroke-width="0.283" fill="none" /><path id="195" transform="matrix(1 0 0 -1 0 841)" d="M127.903 656.649L243.672 656.649" stroke="#000000" stroke-width="0.283" fill="none" /><path id="196" transform="matrix(1 0 0 -1 0 841)" d="M128.044 637.08L128.044 656.507" stroke="#000000" stroke-width="0.283" fill="none" /><path id="204" transform="matrix(1 0 0 -1 0 841)" d="M189.947 637.08L189.947 656.507" stroke="#000000" stroke-width="0.283" fill="none" /><path id="213" transform="matrix(1 0 0 -1 0 841)" d="M243.53 637.08L243.53 656.507" stroke="#000000" stroke-width="0.283" fill="none" /><path id="214" transform="matrix(1 0 0 -1 0 841)" d="M127.903 636.938L243.672 636.938" stroke="#000000" stroke-width="0.283" fill="none" /><path id="215" transform="matrix(1 0 0 -1 0 841)" d="M128.044 617.369L128.044 636.796" stroke="#000000" stroke-width="0.283" fill="none" /><path id="225" transform="matrix(1 0 0 -1 0 841)" d="M189.947 617.369L189.947 636.796" stroke="#000000" stroke-width="0.283" fill="none" /><path id="234" transform="matrix(1 0 0 -1 0 841)" d="M243.53 617.369L243.53 636.796" stroke="#000000" stroke-width="0.283" fill="none" /><path id="235" transform="matrix(1 0 0 -1 0 841)" d="M127.903 617.227L243.672 617.227" stroke="#000000" stroke-width="0.283" fill="none" /><path id="236" transform="matrix(1 0 0 -1 0 841)" d="M128.044 597.658L128.044 617.085" stroke="#000000" stroke-width="0.283" fill="none" /><path id="245" transform="matrix(1 0 0 -1 0 841)" d="M189.947 597.658L189.947 617.085" stroke="#000000" stroke-width="0.283" fill="none" /><path id="254" transform="matrix(1 0 0 -1 0 841)" d="M243.53 597.658L243.53 617.085" stroke="#000000" stroke-width="0.283" fill="none" /><path id="255" transform="matrix(1 0 0 -1 0 841)" d="M127.903 597.517L243.672 597.517" stroke="#000000" stroke-width="0.283" fill="none" /><path id="256" transform="matrix(1 0 0 -1 0 841)" d="M128.044 577.948L128.044 597.375" stroke="#000000" stroke-width="0.283" fill="none" /><path id="263" transform="matrix(1 0 0 -1 0 841)" d="M189.947 577.948L189.947 597.375" stroke="#000000" stroke-width="0.283" fill="none" /><path id="272" transform="matrix(1 0 0 -1 0 841)" d="M243.53 577.948L243.53 597.375" stroke="#000000" stroke-width="0.283" fill="none" /><path id="273" transform="matrix(1 0 0 -1 0 841)" d="M127.903 577.806L243.672 577.806" stroke="#000000" stroke-width="0.283" fill="none" /><path id="274" transform="matrix(1 0 0 -1 0 841)" d="M128.044 558.237L128.044 577.664" stroke="#000000" stroke-width="0.283" fill="none" /><path id="283" transform="matrix(1 0 0 -1 0 841)" d="M189.947 558.237L189.947 577.664" stroke="#000000" stroke-width="0.283" fill="none" /><path id="292" transform="matrix(1 0 0 -1 0 841)" d="M243.53 558.237L243.53 577.664" stroke="#000000" stroke-width="0.283" fill="none" /><path id="293" transform="matrix(1 0 0 -1 0 841)" d="M127.903 558.095L243.672 558.095" stroke="#000000" stroke-width="0.283" fill="none" /><path id="294" transform="matrix(1 0 0 -1 0 841)" d="M128.044 538.527L128.044 557.954" stroke="#000000" stroke-width="0.283" fill="none" /><path id="301" transform="matrix(1 0 0 -1 0 841)" d="M189.947 538.527L189.947 557.954" stroke="#000000" stroke-width="0.283" fill="none" /><path id="310" transform="matrix(1 0 0 -1 0 841)" d="M243.53 538.527L243.53 557.954" stroke="#000000" stroke-width="0.283" fill="none" /><path id="311" transform="matrix(1 0 0 -1 0 841)" d="M127.903 538.385L243.672 538.385" stroke="#000000" stroke-width="0.283" fill="none" /></g></g></svg>