<svg xmlns="http://www.w3.org/2000/svg" xmlns:xlink="http://www.w3.org/1999/xlink" id="body_260" preserveAspectRatio="xMinYMin meet" viewBox="0 0 793 1121"><defs><clipPath id="1"><path id="" clip-rule="evenodd" transform="matrix(1 0 0 1 0 0)" d="M0 841L0 -0.8900146L0 -0.8900146L595.276 -0.8900146L595.276 -0.8900146L595.276 841L595.276 841L0 841z" /></clipPath></defs><g transform="matrix(1.333333 0 0 1.333333 0 0)"><g clip-path="url(#1)"><path id="23" transform="matrix(1 0 0 -1 0 841)" d="M85.039 766.564L510.236 766.564" stroke="#000000" stroke-width="0.498" fill="none" /><path id="30" transform="matrix(1 0 0 -1 0 841)" d="M113.508 745.737L146.673 745.737" stroke="#000000" stroke-width="0.398" fill="none" /><path id="41" transform="matrix(1 0 0 -1 0 841)" d="M159.572 745.737L192.737 745.737" stroke="#000000" stroke-width="0.398" fill="none" /><path id="52" transform="matrix(1 0 0 -1 0 841)" d="M207.297 745.737L240.462 745.737" stroke="#000000" stroke-width="0.398" fill="none" /><path id="120" transform="matrix(1 0 0 -1 0 841)" d="M222.628 691.36L258.553 691.36" stroke="#000000" stroke-width="0.398" fill="none" /><path id="128" transform="matrix(1 0 0 -1 0 841)" d="M268.693 691.36L301.858 691.36" stroke="#000000" stroke-width="0.398" fill="none" /><path id="222" transform="matrix(1 0 0 -1 0 841)" d="M228.147 635.259L264.072 635.259" stroke="#000000" stroke-width="0.398" fill="none" /><path id="230" transform="matrix(1 0 0 -1 0 841)" d="M274.212 635.259L307.377 635.259" stroke="#000000" stroke-width="0.398" fill="none" /><path id="266" transform="matrix(1 0 0 -1 0 841)" d="M113.508 579.157L187.079 579.157" stroke="#000000" stroke-width="0.398" fill="none" /><path id="289" transform="matrix(1 0 0 -1 0 841)" d="M197.218 579.157L237.068 579.157" stroke="#000000" stroke-width="0.398" fill="none" /><path id="304" transform="matrix(1 0 0 -1 0 841)" d="M251.629 579.157L299.16 579.157" stroke="#000000" stroke-width="0.398" fill="none" /><path id="337" transform="matrix(1 0 0 -1 0 841)" d="M113.508 522.648L151.137 522.648" stroke="#000000" stroke-width="0.398" fill="none" /><path id="354" transform="matrix(1 0 0 -1 0 841)" d="M161.276 522.648L208.807 522.648" stroke="#000000" stroke-width="0.398" fill="none" /><path id="362" transform="matrix(1 0 0 -1 0 841)" d="M218.947 522.648L248.835 522.648" stroke="#000000" stroke-width="0.398" fill="none" /><path id="378" transform="matrix(1 0 0 -1 0 841)" d="M263.394 522.648L308.903 522.648" stroke="#000000" stroke-width="0.398" fill="none" /><path id="416" transform="matrix(1 0 0 -1 0 841)" d="M113.508 462.791L187.926 462.791" stroke="#000000" stroke-width="0.398" fill="none" /><path id="429" transform="matrix(1 0 0 -1 0 841)" d="M198.066 462.791L264.166 462.791" stroke="#000000" stroke-width="0.398" fill="none" /><path id="449" transform="matrix(1 0 0 -1 0 841)" d="M274.306 462.791L315.591 462.791" stroke="#000000" stroke-width="0.398" fill="none" /><path id="460" transform="matrix(1 0 0 -1 0 841)" d="M325.73 462.791L356.295 462.791" stroke="#000000" stroke-width="0.398" fill="none" /><path id="471" transform="matrix(1 0 0 -1 0 841)" d="M366.435 462.791L400.158 462.791" stroke="#000000" stroke-width="0.398" fill="none" /><path id="483" transform="matrix(1 0 0 -1 0 841)" d="M410.298 462.791L432.983 462.791" stroke="#000000" stroke-width="0.398" fill="none" /><path id="492" transform="matrix(1 0 0 -1 0 841)" d="M450.93 462.791L476.265 462.791" stroke="#000000" stroke-width="0.398" fill="none" /><path id="498" transform="matrix(1 0 0 -1 0 841)" d="M446.347 477.511L480.847 477.511" stroke="#000000" stroke-width="0.398" fill="none" /><path id="499" transform="matrix(1 0 0 -1 0 841)" d="M446.546 450.168L446.546 477.51" stroke="#000000" stroke-width="0.398" fill="none" /><path id="500" transform="matrix(1 0 0 -1 0 841)" d="M480.648 450.168L480.648 477.51" stroke="#000000" stroke-width="0.398" fill="none" /><path id="501" transform="matrix(1 0 0 -1 0 841)" d="M446.347 450.168L480.847 450.168" stroke="#000000" stroke-width="0.398" fill="none" /><path id="1078" transform="matrix(1 0 0 -1 0 841)" d="M207.594 225.037L225.298 225.037" stroke="#000000" stroke-width="0.398" fill="none" /><path id="1114" transform="matrix(1 0 0 -1 0 841)" d="M207.594 192.165L225.298 192.165" stroke="#000000" stroke-width="0.398" fill="none" /><path id="1171" transform="matrix(1 0 0 -1 0 841)" d="M208.058 145.32L249.343 145.32" stroke="#000000" stroke-width="0.398" fill="none" /><path id="1191" transform="matrix(1 0 0 -1 0 841)" d="M259.482 145.32L338.182 145.32" stroke="#000000" stroke-width="0.398" fill="none" /><path id="1201" transform="matrix(1 0 0 -1 0 841)" d="M348.322 145.32L375.988 145.32" stroke="#000000" stroke-width="0.398" fill="none" /><path id="1212" transform="matrix(1 0 0 -1 0 841)" d="M393.935 145.32L422.708 145.32" stroke="#000000" stroke-width="0.398" fill="none" /><path id="1215" transform="matrix(1 0 0 -1 0 841)" d="M389.352 160.04L427.291 160.04" stroke="#000000" stroke-width="0.398" fill="none" /><path id="1216" transform="matrix(1 0 0 -1 0 841)" d="M389.551 130.775L389.551 160.04" stroke="#000000" stroke-width="0.398" fill="none" /><path id="1217" transform="matrix(1 0 0 -1 0 841)" d="M427.091 130.775L427.091 160.04" stroke="#000000" stroke-width="0.398" fill="none" /><path id="1218" transform="matrix(1 0 0 -1 0 841)" d="M389.352 130.775L427.291 130.775" stroke="#000000" stroke-width="0.398" fill="none" /></g></g></svg>