<svg xmlns="http://www.w3.org/2000/svg" xmlns:xlink="http://www.w3.org/1999/xlink" id="body_79" preserveAspectRatio="xMinYMin meet" viewBox="0 0 793 1121"><defs><clipPath id="1"><path id="" clip-rule="evenodd" transform="matrix(1 0 0 1 0 0)" d="M0 841L0 -0.8900146L0 -0.8900146L595.276 -0.8900146L595.276 -0.8900146L595.276 841L595.276 841L0 841z" /></clipPath></defs><g transform="matrix(1.333333 0 0 1.333333 0 0)"><g clip-path="url(#1)"><path id="30" transform="matrix(1 0 0 -1 0 841)" d="M85.039 766.564L510.236 766.564" stroke="#000000" stroke-width="0.498" fill="none" /><path id="1588" transform="matrix(1 0 0 -1 0 841)" d="M273.212 291.143L288.654 291.143L288.654 302.351L273.212 302.351z" stroke="none" fill="#FFF100" fill-rule="nonzero" /><path id="1592" transform="matrix(1 0 0 -1 0 841)" d="M288.155 291.143L293.634 291.143L293.634 302.351L288.155 302.351z" stroke="none" fill="#FFF100" fill-rule="nonzero" /><path id="1594" transform="matrix(1 0 0 -1 0 841)" d="M293.137 291.143L301.376 291.143L301.376 302.351L293.137 302.351z" stroke="none" fill="#FFF100" fill-rule="nonzero" /><path id="1597" transform="matrix(1 0 0 -1 0 841)" d="M300.877 291.143L316.877 291.143L316.877 302.351L300.877 302.351z" stroke="none" fill="#FFF100" fill-rule="nonzero" /><path id="1603" transform="matrix(1 0 0 -1 0 841)" d="M321.36 291.143L334.59 291.143L334.59 302.351L321.36 302.351z" stroke="none" fill="#FFF100" fill-rule="nonzero" /><path id="1607" transform="matrix(1 0 0 -1 0 841)" d="M334.093 291.143L346.217 291.143L346.217 302.351L334.093 302.351z" stroke="none" fill="#FFF100" fill-rule="nonzero" /><path id="1611" transform="matrix(1 0 0 -1 0 841)" d="M345.719 291.143L358.949 291.143L358.949 302.351L345.719 302.351z" stroke="none" fill="#FFF100" fill-rule="nonzero" /><path id="1617" transform="matrix(1 0 0 -1 0 841)" d="M371.731 291.143L382.75 291.143L382.75 302.351L371.731 302.351z" stroke="none" fill="#FFF100" fill-rule="nonzero" /><path id="1620" transform="matrix(1 0 0 -1 0 841)" d="M382.252 291.143L394.376 291.143L394.376 302.351L382.252 302.351z" stroke="none" fill="#FFF100" fill-rule="nonzero" /><path id="1624" transform="matrix(1 0 0 -1 0 841)" d="M393.878 291.143L407.108 291.143L407.108 302.351L393.878 302.351z" stroke="none" fill="#FFF100" fill-rule="nonzero" /></g></g></svg>