<svg xmlns="http://www.w3.org/2000/svg" xmlns:xlink="http://www.w3.org/1999/xlink" id="body_28" preserveAspectRatio="xMinYMin meet" viewBox="0 0 793 1121"><defs><clipPath id="1"><path id="" clip-rule="evenodd" transform="matrix(1 0 0 1 0 0)" d="M0 841L0 -0.8900146L0 -0.8900146L595.276 -0.8900146L595.276 -0.8900146L595.276 841L595.276 841L0 841z" /></clipPath></defs><g transform="matrix(1.333333 0 0 1.333333 0 0)"><g clip-path="url(#1)"><path id="45" transform="matrix(1 0 0 -1 0 841)" d="M85.039 766.564L510.236 766.564" stroke="#000000" stroke-width="0.498" fill="none" /><path id="523" transform="matrix(1 0 0 -1 0 841)" d="M156.463 623.249L166.048 623.249L166.048 635.522L156.463 635.522z" stroke="none" fill="#FFF100" fill-rule="nonzero" /><path id="526" transform="matrix(1 0 0 -1 0 841)" d="M165.618 623.249L168.034 623.249L168.034 635.522L165.618 635.522z" stroke="none" fill="#FFF100" fill-rule="nonzero" /><path id="527" transform="matrix(1 0 0 -1 0 841)" d="M167.784 623.249L174.347 623.249L174.347 635.522L167.784 635.522z" stroke="none" fill="#FFF100" fill-rule="nonzero" /><path id="530" transform="matrix(1 0 0 -1 0 841)" d="M173.977 623.249L176.393 623.249L176.393 635.522L173.977 635.522z" stroke="none" fill="#FFF100" fill-rule="nonzero" /><path id="531" transform="matrix(1 0 0 -1 0 841)" d="M176.144 623.249L183.918 623.249L183.918 635.522L176.144 635.522z" stroke="none" fill="#FFF100" fill-rule="nonzero" /><path id="534" transform="matrix(1 0 0 -1 0 841)" d="M183.524 623.249L185.94 623.249L185.94 635.522L183.524 635.522z" stroke="none" fill="#FFF100" fill-rule="nonzero" /><path id="535" transform="matrix(1 0 0 -1 0 841)" d="M185.691 623.249L200.131 623.249L200.131 635.522L185.691 635.522z" stroke="none" fill="#FFF100" fill-rule="nonzero" /><path id="539" transform="matrix(1 0 0 -1 0 841)" d="M199.603 623.249L202.019 623.249L202.019 635.522L199.603 635.522z" stroke="none" fill="#FFF100" fill-rule="nonzero" /><path id="540" transform="matrix(1 0 0 -1 0 841)" d="M201.77 623.249L221.042 623.249L221.042 635.522L201.77 635.522z" stroke="none" fill="#FFF100" fill-rule="nonzero" /><path id="545" transform="matrix(1 0 0 -1 0 841)" d="M220.169 623.249L226.732 623.249L226.732 635.522L220.169 635.522z" stroke="none" fill="#FFF100" fill-rule="nonzero" /><path id="548" transform="matrix(1 0 0 -1 0 841)" d="M226.112 623.249L239.33 623.249L239.33 635.522L226.112 635.522z" stroke="none" fill="#FFF100" fill-rule="nonzero" /><path id="552" transform="matrix(1 0 0 -1 0 841)" d="M238.827 623.249L241.243 623.249L241.243 635.522L238.827 635.522z" stroke="none" fill="#FFF100" fill-rule="nonzero" /><path id="553" transform="matrix(1 0 0 -1 0 841)" d="M240.994 623.249L249.979 623.249L249.979 635.522L240.994 635.522z" stroke="none" fill="#FFF100" fill-rule="nonzero" /><path id="556" transform="matrix(1 0 0 -1 0 841)" d="M249.56 623.249L251.976 623.249L251.976 635.522L249.56 635.522z" stroke="none" fill="#FFF100" fill-rule="nonzero" /><path id="557" transform="matrix(1 0 0 -1 0 841)" d="M251.727 623.249L262.523 623.249L262.523 635.522L251.727 635.522z" stroke="none" fill="#FFF100" fill-rule="nonzero" /><path id="560" transform="matrix(1 0 0 -1 0 841)" d="M261.819 623.249L278.069 623.249L278.069 635.522L261.819 635.522z" stroke="none" fill="#FFF100" fill-rule="nonzero" /><path id="565" transform="matrix(1 0 0 -1 0 841)" d="M277.506 623.249L279.922 623.249L279.922 635.522L277.506 635.522z" stroke="none" fill="#FFF100" fill-rule="nonzero" /><path id="566" transform="matrix(1 0 0 -1 0 841)" d="M279.673 623.249L295.924 623.249L295.924 635.522L279.673 635.522z" stroke="none" fill="#FFF100" fill-rule="nonzero" /><path id="570" transform="matrix(1 0 0 -1 0 841)" d="M295.359 623.249L297.775 623.249L297.775 635.522L295.359 635.522z" stroke="none" fill="#FFF100" fill-rule="nonzero" /><path id="571" transform="matrix(1 0 0 -1 0 841)" d="M297.526 623.249L319.231 623.249L319.231 635.522L297.526 635.522z" stroke="none" fill="#FFF100" fill-rule="nonzero" /><path id="576" transform="matrix(1 0 0 -1 0 841)" d="M318.309 623.249L333.96 623.249L333.96 635.522L318.309 635.522z" stroke="none" fill="#FFF100" fill-rule="nonzero" /><path id="581" transform="matrix(1 0 0 -1 0 841)" d="M333.408 623.249L335.824 623.249L335.824 635.522L333.408 635.522z" stroke="none" fill="#FFF100" fill-rule="nonzero" /><path id="582" transform="matrix(1 0 0 -1 0 841)" d="M335.575 623.249L346.982 623.249L346.982 635.522L335.575 635.522z" stroke="none" fill="#FFF100" fill-rule="nonzero" /><path id="586" transform="matrix(1 0 0 -1 0 841)" d="M346.514 623.249L348.93 623.249L348.93 635.522L346.514 635.522z" stroke="none" fill="#FFF100" fill-rule="nonzero" /><path id="587" transform="matrix(1 0 0 -1 0 841)" d="M348.681 623.249L393.415 623.249L393.415 635.522L348.681 635.522z" stroke="none" fill="#FFF100" fill-rule="nonzero" /><path id="597" transform="matrix(1 0 0 -1 0 841)" d="M392.281 623.249L394.697 623.249L394.697 635.522L392.281 635.522z" stroke="none" fill="#FFF100" fill-rule="nonzero" /><path id="598" transform="matrix(1 0 0 -1 0 841)" d="M394.448 623.249L404.033 623.249L404.033 635.522L394.448 635.522z" stroke="none" fill="#FFF100" fill-rule="nonzero" /><path id="601" transform="matrix(1 0 0 -1 0 841)" d="M403.354 623.249L413.55 623.249L413.55 635.522L403.354 635.522z" stroke="none" fill="#FFF100" fill-rule="nonzero" /><path id="604" transform="matrix(1 0 0 -1 0 841)" d="M412.858 623.249L421.232 623.249L421.232 635.522L412.858 635.522z" stroke="none" fill="#FFF100" fill-rule="nonzero" /><path id="607" transform="matrix(1 0 0 -1 0 841)" d="M420.576 623.249L439.248 623.249L439.248 635.522L420.576 635.522z" stroke="none" fill="#FFF100" fill-rule="nonzero" /><path id="612" transform="matrix(1 0 0 -1 0 841)" d="M438.636 623.249L441.052 623.249L441.052 635.522L438.636 635.522z" stroke="none" fill="#FFF100" fill-rule="nonzero" /><path id="613" transform="matrix(1 0 0 -1 0 841)" d="M440.803 623.249L460.697 623.249L460.697 635.522L440.803 635.522z" stroke="none" fill="#FFF100" fill-rule="nonzero" /><path id="618" transform="matrix(1 0 0 -1 0 841)" d="M460.06 623.249L462.476 623.249L462.476 635.522L460.06 635.522z" stroke="none" fill="#FFF100" fill-rule="nonzero" /><path id="619" transform="matrix(1 0 0 -1 0 841)" d="M462.227 623.249L494.95 623.249L494.95 635.522L462.227 635.522z" stroke="none" fill="#FFF100" fill-rule="nonzero" /><path id="626" transform="matrix(1 0 0 -1 0 841)" d="M493.798 623.249L499.14 623.249L499.14 635.522L493.798 635.522z" stroke="none" fill="#FFF100" fill-rule="nonzero" /><path id="628" transform="matrix(1 0 0 -1 0 841)" d="M498.545 623.249L512.679 623.249L512.679 635.522L498.545 635.522z" stroke="none" fill="#FFF100" fill-rule="nonzero" /><path id="1689" transform="matrix(1 0 0 -1 0 841)" d="M170.047 300.242L192.974 300.242L192.974 312.515L170.047 312.515z" stroke="none" fill="#FFF100" fill-rule="nonzero" /><path id="1694" transform="matrix(1 0 0 -1 0 841)" d="M192.77 300.242L195.497 300.242L195.497 312.515L192.77 312.515z" stroke="none" fill="#FFF100" fill-rule="nonzero" /><path id="1695" transform="matrix(1 0 0 -1 0 841)" d="M195.248 300.242L216.353 300.242L216.353 312.515L195.248 312.515z" stroke="none" fill="#FFF100" fill-rule="nonzero" /><path id="1700" transform="matrix(1 0 0 -1 0 841)" d="M215.896 300.242L221.238 300.242L221.238 312.515L215.896 312.515z" stroke="none" fill="#FFF100" fill-rule="nonzero" /><path id="1702" transform="matrix(1 0 0 -1 0 841)" d="M220.749 300.242L234.578 300.242L234.578 312.515L220.749 312.515z" stroke="none" fill="#FFF100" fill-rule="nonzero" /><path id="1706" transform="matrix(1 0 0 -1 0 841)" d="M234.356 300.242L237.083 300.242L237.083 312.515L234.356 312.515z" stroke="none" fill="#FFF100" fill-rule="nonzero" /><path id="1707" transform="matrix(1 0 0 -1 0 841)" d="M236.834 300.242L259.15 300.242L259.15 312.515L236.834 312.515z" stroke="none" fill="#FFF100" fill-rule="nonzero" /><path id="1711" transform="matrix(1 0 0 -1 0 841)" d="M258.696 300.242L273.125 300.242L273.125 312.515L258.696 312.515z" stroke="none" fill="#FFF100" fill-rule="nonzero" /><path id="1715" transform="matrix(1 0 0 -1 0 841)" d="M272.903 300.242L275.63 300.242L275.63 312.515L272.903 312.515z" stroke="none" fill="#FFF100" fill-rule="nonzero" /><path id="1716" transform="matrix(1 0 0 -1 0 841)" d="M275.382 300.242L306.785 300.242L306.785 312.515L275.382 312.515z" stroke="none" fill="#FFF100" fill-rule="nonzero" /></g></g></svg>