<svg xmlns="http://www.w3.org/2000/svg" xmlns:xlink="http://www.w3.org/1999/xlink" id="body_22" preserveAspectRatio="xMinYMin meet" viewBox="0 0 793 1121"><defs><clipPath id="1"><path id="" clip-rule="evenodd" transform="matrix(1 0 0 1 0 0)" d="M0 841L0 -0.8900146L0 -0.8900146L595.276 -0.8900146L595.276 -0.8900146L595.276 841L595.276 841L0 841z" /></clipPath></defs><g transform="matrix(1.333333 0 0 1.333333 0 0)"><g clip-path="url(#1)"><path id="45" transform="matrix(1 0 0 -1 0 841)" d="M85.039 766.564L510.236 766.564" stroke="#000000" stroke-width="0.498" fill="none" /><path id="767" transform="matrix(1 0 0 -1 0 841)" d="M85.039 489.691L513.052 489.691L513.052 491.675L85.039 491.675z" stroke="none" fill="#000000" fill-rule="nonzero" /><path id="768" transform="matrix(1 0 0 -1 0 841)" d="M85.039 478.852L87.023 478.852L87.023 489.691L85.039 489.691z" stroke="none" fill="#000000" fill-rule="nonzero" /><path id="796" transform="matrix(1 0 0 -1 0 841)" d="M511.068 478.852L513.052 478.852L513.052 489.691L511.068 489.691z" stroke="none" fill="#000000" fill-rule="nonzero" /><path id="797" transform="matrix(1 0 0 -1 0 841)" d="M85.039 476.868L513.052 476.868L513.052 478.852L85.039 478.852z" stroke="none" fill="#000000" fill-rule="nonzero" /><path id="798" transform="matrix(1 0 0 -1 0 841)" d="M85.039 438.93L87.023 438.93L87.023 476.868L85.039 476.868z" stroke="none" fill="#000000" fill-rule="nonzero" /><path id="814" transform="matrix(1 0 0 -1 0 841)" d="M273.043 438.93L275.027 438.93L275.027 476.868L273.043 476.868z" stroke="none" fill="#000000" fill-rule="nonzero" /><path id="822" transform="matrix(1 0 0 -1 0 841)" d="M347.66 438.93L349.644 438.93L349.644 476.868L347.66 476.868z" stroke="none" fill="#000000" fill-rule="nonzero" /><path id="830" transform="matrix(1 0 0 -1 0 841)" d="M436.451 438.93L438.435 438.93L438.435 476.868L436.451 476.868z" stroke="none" fill="#000000" fill-rule="nonzero" /><path id="852" transform="matrix(1 0 0 -1 0 841)" d="M511.068 438.93L513.052 438.93L513.052 476.868L511.068 476.868z" stroke="none" fill="#000000" fill-rule="nonzero" /><path id="853" transform="matrix(1 0 0 -1 0 841)" d="M85.039 436.946L513.052 436.946L513.052 438.93L85.039 438.93z" stroke="none" fill="#000000" fill-rule="nonzero" /><path id="854" transform="matrix(1 0 0 -1 0 841)" d="M85.039 413.428L87.023 413.428L87.023 436.946L85.039 436.946z" stroke="none" fill="#000000" fill-rule="nonzero" /><path id="871" transform="matrix(1 0 0 -1 0 841)" d="M273.043 413.428L275.027 413.428L275.027 436.946L273.043 436.946z" stroke="none" fill="#000000" fill-rule="nonzero" /><path id="880" transform="matrix(1 0 0 -1 0 841)" d="M347.66 413.428L349.644 413.428L349.644 436.946L347.66 436.946z" stroke="none" fill="#000000" fill-rule="nonzero" /><path id="899" transform="matrix(1 0 0 -1 0 841)" d="M436.451 413.428L438.435 413.428L438.435 436.946L436.451 436.946z" stroke="none" fill="#000000" fill-rule="nonzero" /><path id="909" transform="matrix(1 0 0 -1 0 841)" d="M511.068 413.428L513.052 413.428L513.052 436.946L511.068 436.946z" stroke="none" fill="#000000" fill-rule="nonzero" /><path id="910" transform="matrix(1 0 0 -1 0 841)" d="M85.039 378.678L87.023 378.678L87.023 413.428L85.039 413.428z" stroke="none" fill="#000000" fill-rule="nonzero" /><path id="967" transform="matrix(1 0 0 -1 0 841)" d="M273.043 378.678L275.027 378.678L275.027 413.428L273.043 413.428z" stroke="none" fill="#000000" fill-rule="nonzero" /><path id="971" transform="matrix(1 0 0 -1 0 841)" d="M347.66 378.678L349.644 378.678L349.644 413.428L347.66 413.428z" stroke="none" fill="#000000" fill-rule="nonzero" /><path id="989" transform="matrix(1 0 0 -1 0 841)" d="M436.451 378.678L438.435 378.678L438.435 413.428L436.451 413.428z" stroke="none" fill="#000000" fill-rule="nonzero" /><path id="999" transform="matrix(1 0 0 -1 0 841)" d="M511.068 378.678L513.052 378.678L513.052 413.428L511.068 413.428z" stroke="none" fill="#000000" fill-rule="nonzero" /><path id="1000" transform="matrix(1 0 0 -1 0 841)" d="M85.039 343.928L87.023 343.928L87.023 378.678L85.039 378.678z" stroke="none" fill="#000000" fill-rule="nonzero" /><path id="1058" transform="matrix(1 0 0 -1 0 841)" d="M273.043 343.928L275.027 343.928L275.027 378.678L273.043 378.678z" stroke="none" fill="#000000" fill-rule="nonzero" /><path id="1062" transform="matrix(1 0 0 -1 0 841)" d="M347.66 343.928L349.644 343.928L349.644 378.678L347.66 378.678z" stroke="none" fill="#000000" fill-rule="nonzero" /><path id="1080" transform="matrix(1 0 0 -1 0 841)" d="M436.451 343.928L438.435 343.928L438.435 378.678L436.451 378.678z" stroke="none" fill="#000000" fill-rule="nonzero" /><path id="1089" transform="matrix(1 0 0 -1 0 841)" d="M511.068 343.928L513.052 343.928L513.052 378.678L511.068 378.678z" stroke="none" fill="#000000" fill-rule="nonzero" /><path id="1090" transform="matrix(1 0 0 -1 0 841)" d="M85.039 331.42L87.023 331.42L87.023 343.928L85.039 343.928z" stroke="none" fill="#000000" fill-rule="nonzero" /><path id="1098" transform="matrix(1 0 0 -1 0 841)" d="M273.043 331.42L275.027 331.42L275.027 343.928L273.043 343.928z" stroke="none" fill="#000000" fill-rule="nonzero" /><path id="1103" transform="matrix(1 0 0 -1 0 841)" d="M347.66 331.42L349.644 331.42L349.644 343.928L347.66 343.928z" stroke="none" fill="#000000" fill-rule="nonzero" /><path id="1119" transform="matrix(1 0 0 -1 0 841)" d="M436.451 331.42L438.435 331.42L438.435 343.928L436.451 343.928z" stroke="none" fill="#000000" fill-rule="nonzero" /><path id="1128" transform="matrix(1 0 0 -1 0 841)" d="M511.068 331.42L513.052 331.42L513.052 343.928L511.068 343.928z" stroke="none" fill="#000000" fill-rule="nonzero" /><path id="1129" transform="matrix(1 0 0 -1 0 841)" d="M85.039 307.152L87.023 307.152L87.023 331.42L85.039 331.42z" stroke="none" fill="#000000" fill-rule="nonzero" /><path id="1137" transform="matrix(1 0 0 -1 0 841)" d="M273.043 307.152L275.027 307.152L275.027 331.42L273.043 331.42z" stroke="none" fill="#000000" fill-rule="nonzero" /><path id="1142" transform="matrix(1 0 0 -1 0 841)" d="M347.66 307.152L349.644 307.152L349.644 331.42L347.66 331.42z" stroke="none" fill="#000000" fill-rule="nonzero" /><path id="1167" transform="matrix(1 0 0 -1 0 841)" d="M436.451 307.152L438.435 307.152L438.435 331.42L436.451 331.42z" stroke="none" fill="#000000" fill-rule="nonzero" /><path id="1177" transform="matrix(1 0 0 -1 0 841)" d="M511.068 307.152L513.052 307.152L513.052 331.42L511.068 331.42z" stroke="none" fill="#000000" fill-rule="nonzero" /><path id="1178" transform="matrix(1 0 0 -1 0 841)" d="M85.039 305.168L513.052 305.168L513.052 307.152L85.039 307.152z" stroke="none" fill="#000000" fill-rule="nonzero" /></g></g></svg>