<svg xmlns="http://www.w3.org/2000/svg" xmlns:xlink="http://www.w3.org/1999/xlink" id="body_266" preserveAspectRatio="xMinYMin meet" viewBox="0 0 793 1121"><defs><clipPath id="1"><path id="" clip-rule="evenodd" transform="matrix(1 0 0 1 0 0)" d="M0 841L0 -0.8900146L0 -0.8900146L595.276 -0.8900146L595.276 -0.8900146L595.276 841L595.276 841L0 841z" /></clipPath></defs><g transform="matrix(1.333333 0 0 1.333333 0 0)"><g clip-path="url(#1)"><path id="29" transform="matrix(1 0 0 -1 0 841)" d="M85.039 766.564L510.236 766.564" stroke="#000000" stroke-width="0.498" fill="none" /><path id="827" transform="matrix(1 0 0 -1 0 841)" d="M131.17 446.257L195.89 446.257" stroke="#000000" stroke-width="0.398" fill="none" /><path id="842" transform="matrix(1 0 0 -1 0 841)" d="M210.45 446.257L275.17 446.257" stroke="#000000" stroke-width="0.398" fill="none" /><path id="870" transform="matrix(1 0 0 -1 0 841)" d="M289.73 446.257L398.726 446.257" stroke="#000000" stroke-width="0.398" fill="none" /><path id="890" transform="matrix(1 0 0 -1 0 841)" d="M412.09 453.619L444.867 453.619" stroke="#000000" stroke-width="0.398" fill="none" /><path id="891" transform="matrix(1 0 0 -1 0 841)" d="M412.289 440.424L412.289 453.619" stroke="#000000" stroke-width="0.398" fill="none" /><path id="892" transform="matrix(1 0 0 -1 0 841)" d="M444.668 440.424L444.668 453.619" stroke="#000000" stroke-width="0.398" fill="none" /><path id="893" transform="matrix(1 0 0 -1 0 841)" d="M412.09 440.424L444.867 440.424" stroke="#000000" stroke-width="0.398" fill="none" /><path id="963" transform="matrix(1 0 0 -1 0 841)" d="M141.06 381.707L225.56 381.707" stroke="#000000" stroke-width="0.398" fill="none" /><path id="982" transform="matrix(1 0 0 -1 0 841)" d="M240.12 381.707L324.62 381.707" stroke="#000000" stroke-width="0.398" fill="none" /><path id="1026" transform="matrix(1 0 0 -1 0 841)" d="M141.06 353.153L300.96 353.153" stroke="#000000" stroke-width="0.398" fill="none" /><path id="1046" transform="matrix(1 0 0 -1 0 841)" d="M314.325 360.655L347.102 360.655" stroke="#000000" stroke-width="0.398" fill="none" /><path id="1047" transform="matrix(1 0 0 -1 0 841)" d="M314.524 347.32L314.524 360.655" stroke="#000000" stroke-width="0.398" fill="none" /><path id="1048" transform="matrix(1 0 0 -1 0 841)" d="M346.902 347.32L346.902 360.655" stroke="#000000" stroke-width="0.398" fill="none" /><path id="1049" transform="matrix(1 0 0 -1 0 841)" d="M314.325 347.32L347.102 347.32" stroke="#000000" stroke-width="0.398" fill="none" /><path id="1083" transform="matrix(1 0 0 -1 0 841)" d="M84.79 285.369L96.357 285.369L96.357 296.577L84.79 296.577z" stroke="none" fill="#FFF100" fill-rule="nonzero" /><path id="1086" transform="matrix(1 0 0 -1 0 841)" d="M95.859 285.369L108.531 285.369L108.531 296.577L95.859 296.577z" stroke="none" fill="#FFF100" fill-rule="nonzero" /><path id="1089" transform="matrix(1 0 0 -1 0 841)" d="M108.033 285.369L120.705 285.369L120.705 296.577L108.033 296.577z" stroke="none" fill="#FFF100" fill-rule="nonzero" /><path id="1093" transform="matrix(1 0 0 -1 0 841)" d="M120.456 285.369L122.947 285.369L122.947 296.577L120.456 296.577z" stroke="none" fill="#FFF100" fill-rule="nonzero" /><path id="1094" transform="matrix(1 0 0 -1 0 841)" d="M122.698 285.369L142.015 285.369L142.015 296.577L122.698 296.577z" stroke="none" fill="#FFF100" fill-rule="nonzero" /><path id="1099" transform="matrix(1 0 0 -1 0 841)" d="M141.517 285.369L163.604 285.369L163.604 296.577L141.517 296.577z" stroke="none" fill="#FFF100" fill-rule="nonzero" /><path id="1279" transform="matrix(1 0 0 -1 0 841)" d="M113.508 205.366L142.489 205.366" stroke="#000000" stroke-width="0.398" fill="none" /><path id="1299" transform="matrix(1 0 0 -1 0 841)" d="M157.048 205.366L235.962 205.366" stroke="#000000" stroke-width="0.398" fill="none" /><path id="1321" transform="matrix(1 0 0 -1 0 841)" d="M246.102 205.366L329.835 205.366" stroke="#000000" stroke-width="0.398" fill="none" /><path id="1342" transform="matrix(1 0 0 -1 0 841)" d="M368.186 205.366L397.167 205.366" stroke="#000000" stroke-width="0.398" fill="none" /><path id="1383" transform="matrix(1 0 0 -1 0 841)" d="M147.254 151.596L176.235 151.596" stroke="#000000" stroke-width="0.398" fill="none" /><path id="1397" transform="matrix(1 0 0 -1 0 841)" d="M204.078 151.596L233.109 151.596" stroke="#000000" stroke-width="0.398" fill="none" /><path id="1413" transform="matrix(1 0 0 -1 0 841)" d="M274.847 151.596L303.878 151.596" stroke="#000000" stroke-width="0.398" fill="none" /><path id="1417" transform="matrix(1 0 0 -1 0 841)" d="M246.473 165.897L308.461 165.897" stroke="#000000" stroke-width="0.398" fill="none" /><path id="1418" transform="matrix(1 0 0 -1 0 841)" d="M246.672 137.051L246.672 165.898" stroke="#000000" stroke-width="0.398" fill="none" /><path id="1419" transform="matrix(1 0 0 -1 0 841)" d="M308.262 137.051L308.262 165.898" stroke="#000000" stroke-width="0.398" fill="none" /><path id="1420" transform="matrix(1 0 0 -1 0 841)" d="M246.473 137.051L308.461 137.051" stroke="#000000" stroke-width="0.398" fill="none" /></g></g></svg>