<svg xmlns="http://www.w3.org/2000/svg" xmlns:xlink="http://www.w3.org/1999/xlink" id="body_247" preserveAspectRatio="xMinYMin meet" viewBox="0 0 793 1121"><defs><clipPath id="1"><path id="" clip-rule="evenodd" transform="matrix(1 0 0 1 0 0)" d="M0 841L0 -0.8900146L0 -0.8900146L595.276 -0.8900146L595.276 -0.8900146L595.276 841L595.276 841L0 841z" /></clipPath></defs><g transform="matrix(1.333333 0 0 1.333333 0 0)"><g clip-path="url(#1)"><path id="36" transform="matrix(1 0 0 -1 0 841)" d="M85.039 766.564L510.236 766.564" stroke="#000000" stroke-width="0.498" fill="none" /><path id="177" transform="matrix(1 0 0 -1 0 841)" d="M248.694 680.102L373.425 680.102" stroke="#000000" stroke-width="0.398" fill="none" /><path id="201" transform="matrix(1 0 0 -1 0 841)" d="M341.624 667.595L372.229 667.595" stroke="#000000" stroke-width="0.398" fill="none" /><path id="218" transform="matrix(1 0 0 -1 0 841)" d="M136.192 642.798L189.171 642.798" stroke="#000000" stroke-width="0.398" fill="none" /><path id="231" transform="matrix(1 0 0 -1 0 841)" d="M207.118 642.798L227.591 642.798" stroke="#000000" stroke-width="0.398" fill="none" /><path id="235" transform="matrix(1 0 0 -1 0 841)" d="M202.535 656.905L232.174 656.905" stroke="#000000" stroke-width="0.398" fill="none" /><path id="236" transform="matrix(1 0 0 -1 0 841)" d="M202.735 628.253L202.735 656.905" stroke="#000000" stroke-width="0.398" fill="none" /><path id="237" transform="matrix(1 0 0 -1 0 841)" d="M231.975 628.253L231.975 656.905" stroke="#000000" stroke-width="0.398" fill="none" /><path id="238" transform="matrix(1 0 0 -1 0 841)" d="M202.535 628.253L232.174 628.253" stroke="#000000" stroke-width="0.398" fill="none" /><path id="387" transform="matrix(1 0 0 -1 0 841)" d="M86.235 518.59L497.266 518.59" stroke="#000000" stroke-width="0.398" fill="none" /><path id="518" transform="matrix(1 0 0 -1 0 841)" d="M152.868 482.713L408.962 482.713" stroke="#000000" stroke-width="0.398" fill="none" /><path id="1519" transform="matrix(1 0 0 -1 0 841)" d="M84.79 165.975L96.357 165.975L96.357 177.183L84.79 177.183z" stroke="none" fill="#FFF100" fill-rule="nonzero" /><path id="1522" transform="matrix(1 0 0 -1 0 841)" d="M95.859 165.975L108.531 165.975L108.531 177.183L95.859 177.183z" stroke="none" fill="#FFF100" fill-rule="nonzero" /><path id="1525" transform="matrix(1 0 0 -1 0 841)" d="M108.033 165.975L120.705 165.975L120.705 177.183L108.033 177.183z" stroke="none" fill="#FFF100" fill-rule="nonzero" /><path id="1529" transform="matrix(1 0 0 -1 0 841)" d="M120.456 165.975L122.947 165.975L122.947 177.183L120.456 177.183z" stroke="none" fill="#FFF100" fill-rule="nonzero" /><path id="1530" transform="matrix(1 0 0 -1 0 841)" d="M122.698 165.975L142.015 165.975L142.015 177.183L122.698 177.183z" stroke="none" fill="#FFF100" fill-rule="nonzero" /><path id="1535" transform="matrix(1 0 0 -1 0 841)" d="M141.517 165.975L163.604 165.975L163.604 177.183L141.517 177.183z" stroke="none" fill="#FFF100" fill-rule="nonzero" /><path id="1821" transform="matrix(1 0 0 -1 0 841)" d="M180.141 91.376L417.923 91.376" stroke="#000000" stroke-width="0.398" fill="none" /></g></g></svg>