<svg xmlns="http://www.w3.org/2000/svg" xmlns:xlink="http://www.w3.org/1999/xlink" id="body_247" preserveAspectRatio="xMinYMin meet" viewBox="0 0 793 1121"><defs><clipPath id="1"><path id="" clip-rule="evenodd" transform="matrix(1 0 0 1 0 0)" d="M0 841L0 -0.8900146L0 -0.8900146L595.276 -0.8900146L595.276 -0.8900146L595.276 841L595.276 841L0 841z" /></clipPath></defs><g transform="matrix(1.333333 0 0 1.333333 0 0)"><g clip-path="url(#1)"><path id="23" transform="matrix(1 0 0 -1 0 841)" d="M85.039 766.564L510.236 766.564" stroke="#000000" stroke-width="0.498" fill="none" /><path id="183" transform="matrix(1 0 0 -1 0 841)" d="M113.508 700.048L153.826 700.048" stroke="#000000" stroke-width="0.398" fill="none" /><path id="193" transform="matrix(1 0 0 -1 0 841)" d="M163.966 700.048L212.025 700.048" stroke="#000000" stroke-width="0.398" fill="none" /><path id="217" transform="matrix(1 0 0 -1 0 841)" d="M222.164 700.048L247.07 700.048" stroke="#000000" stroke-width="0.398" fill="none" /><path id="228" transform="matrix(1 0 0 -1 0 841)" d="M261.631 700.048L292.435 700.048" stroke="#000000" stroke-width="0.398" fill="none" /><path id="280" transform="matrix(1 0 0 -1 0 841)" d="M167.862 665.119L229.16 665.119" stroke="#000000" stroke-width="0.398" fill="none" /><path id="498" transform="matrix(1 0 0 -1 0 841)" d="M275.401 600.013L288.502 600.013" stroke="#000000" stroke-width="0.398" fill="none" /><path id="887" transform="matrix(1 0 0 -1 0 841)" d="M171.039 426.968L185.943 426.968" stroke="#000000" stroke-width="0.398" fill="none" /><path id="908" transform="matrix(1 0 0 -1 0 841)" d="M260.646 426.968L272.82 426.968" stroke="#000000" stroke-width="0.398" fill="none" /><path id="936" transform="matrix(1 0 0 -1 0 841)" d="M409.034 426.968L424.924 426.968" stroke="#000000" stroke-width="0.398" fill="none" /><g transform="matrix(0.12 0 0 0.12 250.418 453.798)"><g transform="matrix(1 0 0 1 0 0)"><image x="0" y="0" xlink:href="img_403.png" width="787" height="785" /></g></g><path id="1306" transform="matrix(1 0 0 -1 0 841)" d="M113.508 137.423L151.097 137.423" stroke="#000000" stroke-width="0.398" fill="none" /><path id="1338" transform="matrix(1 0 0 -1 0 841)" d="M277.854 137.423L318.761 137.423" stroke="#000000" stroke-width="0.398" fill="none" /><path id="1342" transform="matrix(1 0 0 -1 0 841)" d="M273.271 151.724L323.344 151.724" stroke="#000000" stroke-width="0.398" fill="none" /><path id="1343" transform="matrix(1 0 0 -1 0 841)" d="M273.471 122.877L273.471 151.724" stroke="#000000" stroke-width="0.398" fill="none" /><path id="1344" transform="matrix(1 0 0 -1 0 841)" d="M323.145 122.877L323.145 151.724" stroke="#000000" stroke-width="0.398" fill="none" /><path id="1345" transform="matrix(1 0 0 -1 0 841)" d="M273.271 122.877L323.344 122.877" stroke="#000000" stroke-width="0.398" fill="none" /></g></g></svg>