<svg xmlns="http://www.w3.org/2000/svg" xmlns:xlink="http://www.w3.org/1999/xlink" id="body_245" preserveAspectRatio="xMinYMin meet" viewBox="0 0 793 1121"><defs><clipPath id="1"><path id="" clip-rule="evenodd" transform="matrix(1 0 0 1 0 0)" d="M0 841L0 -0.8900146L0 -0.8900146L595.276 -0.8900146L595.276 -0.8900146L595.276 841L595.276 841L0 841z" /></clipPath></defs><g transform="matrix(1.333333 0 0 1.333333 0 0)"><g clip-path="url(#1)"><path id="23" transform="matrix(1 0 0 -1 0 841)" d="M85.039 766.564L510.236 766.564" stroke="#000000" stroke-width="0.498" fill="none" /><path id="405" transform="matrix(1 0 0 -1 0 841)" d="M350.07 661.227L391.664 661.227" stroke="#000000" stroke-width="0.398" fill="none" /><path id="406" transform="matrix(1 0 0 -1 0 841)" d="M350.27 647.773L350.27 661.227" stroke="#000000" stroke-width="0.398" fill="none" /><path id="407" transform="matrix(1 0 0 -1 0 841)" d="M391.465 647.773L391.465 661.227" stroke="#000000" stroke-width="0.398" fill="none" /><path id="408" transform="matrix(1 0 0 -1 0 841)" d="M350.07 647.773L391.664 647.773" stroke="#000000" stroke-width="0.398" fill="none" /><path id="522" transform="matrix(1 0 0 -1 0 841)" d="M112.312 515.624L180.755 515.624L180.755 528.456L112.312 528.456z" stroke="none" fill="#BFFF00" fill-rule="nonzero" /><path id="778" transform="matrix(1 0 0 -1 0 841)" d="M313.578 473.945L470.736 473.945" stroke="#000000" stroke-width="0.398" fill="none" /><path id="1171" transform="matrix(1 0 0 -1 0 841)" d="M111.194 273.143L484.082 273.143" stroke="#000000" stroke-width="0.283" fill="none" /><path id="1172" transform="matrix(1 0 0 -1 0 841)" d="M111.335 255.387L111.335 273.001" stroke="#000000" stroke-width="0.283" fill="none" /><path id="1180" transform="matrix(1 0 0 -1 0 841)" d="M240.945 255.387L240.945 273.001" stroke="#000000" stroke-width="0.283" fill="none" /><path id="1186" transform="matrix(1 0 0 -1 0 841)" d="M483.94 255.387L483.94 273.001" stroke="#000000" stroke-width="0.283" fill="none" /><path id="1187" transform="matrix(1 0 0 -1 0 841)" d="M111.194 255.245L484.082 255.245" stroke="#000000" stroke-width="0.283" fill="none" /><path id="1188" transform="matrix(1 0 0 -1 0 841)" d="M111.335 237.489L111.335 255.103" stroke="#000000" stroke-width="0.283" fill="none" /><path id="1195" transform="matrix(1 0 0 -1 0 841)" d="M240.945 237.489L240.945 255.103" stroke="#000000" stroke-width="0.283" fill="none" /><path id="1211" transform="matrix(1 0 0 -1 0 841)" d="M483.94 237.489L483.94 255.103" stroke="#000000" stroke-width="0.283" fill="none" /><path id="1212" transform="matrix(1 0 0 -1 0 841)" d="M111.194 237.348L484.082 237.348" stroke="#000000" stroke-width="0.283" fill="none" /><path id="1213" transform="matrix(1 0 0 -1 0 841)" d="M111.335 219.592L111.335 237.206" stroke="#000000" stroke-width="0.283" fill="none" /><path id="1218" transform="matrix(1 0 0 -1 0 841)" d="M240.945 219.592L240.945 237.206" stroke="#000000" stroke-width="0.283" fill="none" /><path id="1228" transform="matrix(1 0 0 -1 0 841)" d="M483.94 219.592L483.94 237.206" stroke="#000000" stroke-width="0.283" fill="none" /><path id="1229" transform="matrix(1 0 0 -1 0 841)" d="M111.194 219.45L484.082 219.45" stroke="#000000" stroke-width="0.283" fill="none" /><path id="1230" transform="matrix(1 0 0 -1 0 841)" d="M111.335 201.695L111.335 219.309" stroke="#000000" stroke-width="0.283" fill="none" /><path id="1237" transform="matrix(1 0 0 -1 0 841)" d="M240.945 201.695L240.945 219.309" stroke="#000000" stroke-width="0.283" fill="none" /><path id="1259" transform="matrix(1 0 0 -1 0 841)" d="M483.94 201.695L483.94 219.309" stroke="#000000" stroke-width="0.283" fill="none" /><path id="1260" transform="matrix(1 0 0 -1 0 841)" d="M111.194 201.553L484.082 201.553" stroke="#000000" stroke-width="0.283" fill="none" /><path id="1261" transform="matrix(1 0 0 -1 0 841)" d="M111.335 183.797L111.335 201.411" stroke="#000000" stroke-width="0.283" fill="none" /><path id="1269" transform="matrix(1 0 0 -1 0 841)" d="M240.945 183.797L240.945 201.411" stroke="#000000" stroke-width="0.283" fill="none" /><path id="1304" transform="matrix(1 0 0 -1 0 841)" d="M483.94 183.797L483.94 201.411" stroke="#000000" stroke-width="0.283" fill="none" /><path id="1305" transform="matrix(1 0 0 -1 0 841)" d="M111.194 183.655L484.082 183.655" stroke="#000000" stroke-width="0.283" fill="none" /><path id="1306" transform="matrix(1 0 0 -1 0 841)" d="M111.335 165.9L111.335 183.514" stroke="#000000" stroke-width="0.283" fill="none" /><path id="1311" transform="matrix(1 0 0 -1 0 841)" d="M240.945 165.9L240.945 183.514" stroke="#000000" stroke-width="0.283" fill="none" /><path id="1336" transform="matrix(1 0 0 -1 0 841)" d="M483.94 165.9L483.94 183.514" stroke="#000000" stroke-width="0.283" fill="none" /><path id="1337" transform="matrix(1 0 0 -1 0 841)" d="M111.194 165.758L484.082 165.758" stroke="#000000" stroke-width="0.283" fill="none" /></g></g></svg>