<svg xmlns="http://www.w3.org/2000/svg" xmlns:xlink="http://www.w3.org/1999/xlink" id="body_330" preserveAspectRatio="xMinYMin meet" viewBox="0 0 793 1121"><defs><clipPath id="1"><path id="" clip-rule="evenodd" transform="matrix(1 0 0 1 0 0)" d="M0 841L0 -0.8900146L0 -0.8900146L595.276 -0.8900146L595.276 -0.8900146L595.276 841L595.276 841L0 841z" /></clipPath></defs><g transform="matrix(1.333333 0 0 1.333333 0 0)"><g clip-path="url(#1)"><path id="44" transform="matrix(1 0 0 -1 0 841)" d="M85.039 766.564L510.236 766.564" stroke="#000000" stroke-width="0.498" fill="none" /><path id="290" transform="matrix(1 0 0 -1 0 841)" d="M113.508 637.178L151.097 637.178" stroke="#000000" stroke-width="0.398" fill="none" /><path id="322" transform="matrix(1 0 0 -1 0 841)" d="M277.854 637.178L318.761 637.178" stroke="#000000" stroke-width="0.398" fill="none" /><path id="326" transform="matrix(1 0 0 -1 0 841)" d="M273.271 651.479L323.344 651.479" stroke="#000000" stroke-width="0.398" fill="none" /><path id="327" transform="matrix(1 0 0 -1 0 841)" d="M273.471 622.633L273.471 651.48" stroke="#000000" stroke-width="0.398" fill="none" /><path id="328" transform="matrix(1 0 0 -1 0 841)" d="M323.145 622.633L323.145 651.48" stroke="#000000" stroke-width="0.398" fill="none" /><path id="329" transform="matrix(1 0 0 -1 0 841)" d="M273.271 622.633L323.344 622.633" stroke="#000000" stroke-width="0.398" fill="none" /><path id="475" transform="matrix(1 0 0 -1 0 841)" d="M167.07 555.639L209.672 555.639" stroke="#000000" stroke-width="0.398" fill="none" /><path id="516" transform="matrix(1 0 0 -1 0 841)" d="M305.481 563.196L382.422 563.196" stroke="#000000" stroke-width="0.398" fill="none" /><path id="517" transform="matrix(1 0 0 -1 0 841)" d="M305.68 548.028L305.68 563.196" stroke="#000000" stroke-width="0.398" fill="none" /><path id="518" transform="matrix(1 0 0 -1 0 841)" d="M382.223 548.028L382.223 563.196" stroke="#000000" stroke-width="0.398" fill="none" /><path id="519" transform="matrix(1 0 0 -1 0 841)" d="M305.481 548.028L382.422 548.028" stroke="#000000" stroke-width="0.398" fill="none" /><path id="590" transform="matrix(1 0 0 -1 0 841)" d="M176.269 507.475L254.208 507.475" stroke="#000000" stroke-width="0.398" fill="none" /><path id="814" transform="matrix(1 0 0 -1 0 841)" d="M176.71 431.082L188.884 431.082" stroke="#000000" stroke-width="0.398" fill="none" /><path id="820" transform="matrix(1 0 0 -1 0 841)" d="M203.444 431.082L290.335 431.082" stroke="#000000" stroke-width="0.398" fill="none" /><path id="849" transform="matrix(1 0 0 -1 0 841)" d="M176.71 406.285L188.884 406.285" stroke="#000000" stroke-width="0.398" fill="none" /><path id="857" transform="matrix(1 0 0 -1 0 841)" d="M203.444 406.285L261.544 406.285" stroke="#000000" stroke-width="0.398" fill="none" /><path id="877" transform="matrix(1 0 0 -1 0 841)" d="M279.49 406.285L325.419 406.285" stroke="#000000" stroke-width="0.398" fill="none" /><path id="893" transform="matrix(1 0 0 -1 0 841)" d="M274.908 420.392L408.099 420.392" stroke="#000000" stroke-width="0.398" fill="none" /><path id="894" transform="matrix(1 0 0 -1 0 841)" d="M275.107 393.663L275.107 420.392" stroke="#000000" stroke-width="0.398" fill="none" /><path id="895" transform="matrix(1 0 0 -1 0 841)" d="M407.899 393.663L407.899 420.392" stroke="#000000" stroke-width="0.398" fill="none" /><path id="896" transform="matrix(1 0 0 -1 0 841)" d="M274.908 393.663L408.099 393.663" stroke="#000000" stroke-width="0.398" fill="none" /><path id="971" transform="matrix(1 0 0 -1 0 841)" d="M185.117 356.557L263.056 356.557" stroke="#000000" stroke-width="0.398" fill="none" /><path id="1329" transform="matrix(1 0 0 -1 0 841)" d="M241.929 236.97L362.911 236.97" stroke="#000000" stroke-width="0.398" fill="none" /><path id="1973" transform="matrix(1 0 0 -1 0 841)" d="M84.79 81.677L104.655 81.677L104.655 92.885L84.79 92.885z" stroke="none" fill="#FFF100" fill-rule="nonzero" /><path id="1978" transform="matrix(1 0 0 -1 0 841)" d="M104.406 81.677L106.897 81.677L106.897 92.885L104.406 92.885z" stroke="none" fill="#FFF100" fill-rule="nonzero" /><path id="1979" transform="matrix(1 0 0 -1 0 841)" d="M106.648 81.677L114.897 81.677L114.897 92.885L106.648 92.885z" stroke="none" fill="#FFF100" fill-rule="nonzero" /><path id="1982" transform="matrix(1 0 0 -1 0 841)" d="M114.648 81.677L117.139 81.677L117.139 92.885L114.648 92.885z" stroke="none" fill="#FFF100" fill-rule="nonzero" /><path id="1983" transform="matrix(1 0 0 -1 0 841)" d="M116.89 81.677L131.226 81.677L131.226 92.885L116.89 92.885z" stroke="none" fill="#FFF100" fill-rule="nonzero" /><path id="1987" transform="matrix(1 0 0 -1 0 841)" d="M130.727 81.677L140.63 81.677L140.63 92.885L130.727 92.885z" stroke="none" fill="#FFF100" fill-rule="nonzero" /><path id="1990" transform="matrix(1 0 0 -1 0 841)" d="M140.132 81.677L150.592 81.677L150.592 92.885L140.132 92.885z" stroke="none" fill="#FFF100" fill-rule="nonzero" /><path id="1994" transform="matrix(1 0 0 -1 0 841)" d="M150.094 81.677L163.324 81.677L163.324 92.885L150.094 92.885z" stroke="none" fill="#FFF100" fill-rule="nonzero" /><path id="1998" transform="matrix(1 0 0 -1 0 841)" d="M163.076 81.677L165.567 81.677L165.567 92.885L163.076 92.885z" stroke="none" fill="#FFF100" fill-rule="nonzero" /><path id="1999" transform="matrix(1 0 0 -1 0 841)" d="M165.317 81.677L178.547 81.677L178.547 92.885L165.317 92.885z" stroke="none" fill="#FFF100" fill-rule="nonzero" /><path id="2003" transform="matrix(1 0 0 -1 0 841)" d="M178.049 81.677L188.509 81.677L188.509 92.885L178.049 92.885z" stroke="none" fill="#FFF100" fill-rule="nonzero" /><path id="2007" transform="matrix(1 0 0 -1 0 841)" d="M188.261 81.677L190.752 81.677L190.752 92.885L188.261 92.885z" stroke="none" fill="#FFF100" fill-rule="nonzero" /><path id="2008" transform="matrix(1 0 0 -1 0 841)" d="M190.502 81.677L212.3 81.677L212.3 92.885L190.502 92.885z" stroke="none" fill="#FFF100" fill-rule="nonzero" /><path id="2014" transform="matrix(1 0 0 -1 0 841)" d="M212.051 81.677L214.542 81.677L214.542 92.885L212.051 92.885z" stroke="none" fill="#FFF100" fill-rule="nonzero" /><path id="2015" transform="matrix(1 0 0 -1 0 841)" d="M214.293 81.677L228.619 81.677L228.619 92.885L214.293 92.885z" stroke="none" fill="#FFF100" fill-rule="nonzero" /><path id="2019" transform="matrix(1 0 0 -1 0 841)" d="M228.37 81.677L230.861 81.677L230.861 92.885L228.37 92.885z" stroke="none" fill="#FFF100" fill-rule="nonzero" /><path id="2020" transform="matrix(1 0 0 -1 0 841)" d="M230.612 81.677L252.849 81.677L252.849 92.885L230.612 92.885z" stroke="none" fill="#FFF100" fill-rule="nonzero" /><path id="2026" transform="matrix(1 0 0 -1 0 841)" d="M252.599 81.677L255.09 81.677L255.09 92.885L252.599 92.885z" stroke="none" fill="#FFF100" fill-rule="nonzero" /><path id="2027" transform="matrix(1 0 0 -1 0 841)" d="M254.841 81.677L267.513 81.677L267.513 92.885L254.841 92.885z" stroke="none" fill="#FFF100" fill-rule="nonzero" /><path id="2031" transform="matrix(1 0 0 -1 0 841)" d="M267.264 81.677L269.755 81.677L269.755 92.885L267.264 92.885z" stroke="none" fill="#FFF100" fill-rule="nonzero" /><path id="2032" transform="matrix(1 0 0 -1 0 841)" d="M269.506 81.677L277.755 81.677L277.755 92.885L269.506 92.885z" stroke="none" fill="#FFF100" fill-rule="nonzero" /><path id="2035" transform="matrix(1 0 0 -1 0 841)" d="M277.256 81.677L287.716 81.677L287.716 92.885L277.256 92.885z" stroke="none" fill="#FFF100" fill-rule="nonzero" /><path id="2039" transform="matrix(1 0 0 -1 0 841)" d="M287.468 81.677L289.959 81.677L289.959 92.885L287.468 92.885z" stroke="none" fill="#FFF100" fill-rule="nonzero" /><path id="2040" transform="matrix(1 0 0 -1 0 841)" d="M289.71 81.677L311.508 81.677L311.508 92.885L289.71 92.885z" stroke="none" fill="#FFF100" fill-rule="nonzero" /><path id="2046" transform="matrix(1 0 0 -1 0 841)" d="M311.259 81.677L313.75 81.677L313.75 92.885L311.259 92.885z" stroke="none" fill="#FFF100" fill-rule="nonzero" /><path id="2047" transform="matrix(1 0 0 -1 0 841)" d="M313.5 81.677L328.384 81.677L328.384 92.885L313.5 92.885z" stroke="none" fill="#FFF100" fill-rule="nonzero" /><path id="2051" transform="matrix(1 0 0 -1 0 841)" d="M328.135 81.677L330.626 81.677L330.626 92.885L328.135 92.885z" stroke="none" fill="#FFF100" fill-rule="nonzero" /><path id="2052" transform="matrix(1 0 0 -1 0 841)" d="M330.377 81.677L338.616 81.677L338.616 92.885L330.377 92.885z" stroke="none" fill="#FFF100" fill-rule="nonzero" /><path id="2055" transform="matrix(1 0 0 -1 0 841)" d="M338.118 81.677L363.124 81.677L363.124 92.885L338.118 92.885z" stroke="none" fill="#FFF100" fill-rule="nonzero" /><path id="2061" transform="matrix(1 0 0 -1 0 841)" d="M362.875 81.677L365.366 81.677L365.366 92.885L362.875 92.885z" stroke="none" fill="#FFF100" fill-rule="nonzero" /><path id="2062" transform="matrix(1 0 0 -1 0 841)" d="M365.116 81.677L373.106 81.677L373.106 92.885L365.116 92.885z" stroke="none" fill="#FFF100" fill-rule="nonzero" /><path id="2065" transform="matrix(1 0 0 -1 0 841)" d="M372.608 81.677L378.645 81.677L378.645 92.885L372.608 92.885z" stroke="none" fill="#FFF100" fill-rule="nonzero" /><path id="2067" transform="matrix(1 0 0 -1 0 841)" d="M378.147 81.677L404.498 81.677L404.498 92.885L378.147 92.885z" stroke="none" fill="#FFF100" fill-rule="nonzero" /><path id="2074" transform="matrix(1 0 0 -1 0 841)" d="M404.249 81.677L406.74 81.677L406.74 92.885L404.249 92.885z" stroke="none" fill="#FFF100" fill-rule="nonzero" /><path id="2075" transform="matrix(1 0 0 -1 0 841)" d="M406.491 81.677L437.425 81.677L437.425 92.885L406.491 92.885z" stroke="none" fill="#FFF100" fill-rule="nonzero" /><g transform="matrix(0.2 0 0 0.2 249.239 774.845)"><g transform="matrix(1 0 0 1 0 0)"><image x="0" y="0" xlink:href="img_04.png" width="484" height="104" /></g></g></g></g></svg>