<svg xmlns="http://www.w3.org/2000/svg" xmlns:xlink="http://www.w3.org/1999/xlink" id="body_259" preserveAspectRatio="xMinYMin meet" viewBox="0 0 793 1121"><defs><clipPath id="1"><path id="" clip-rule="evenodd" transform="matrix(1 0 0 1 0 0)" d="M0 841L0 -0.8900146L0 -0.8900146L595.276 -0.8900146L595.276 -0.8900146L595.276 841L595.276 841L0 841z" /></clipPath></defs><g transform="matrix(1.333333 0 0 1.333333 0 0)"><g clip-path="url(#1)"><path id="23" transform="matrix(1 0 0 -1 0 841)" d="M85.039 766.564L510.236 766.564" stroke="#000000" stroke-width="0.498" fill="none" /><path id="192" transform="matrix(1 0 0 -1 0 841)" d="M166.815 691.903L243.527 691.903" stroke="#000000" stroke-width="0.398" fill="none" /><path id="226" transform="matrix(1 0 0 -1 0 841)" d="M256.979 691.903L389.018 691.903" stroke="#000000" stroke-width="0.398" fill="none" /><path id="250" transform="matrix(1 0 0 -1 0 841)" d="M398.051 691.903L439.925 691.903" stroke="#000000" stroke-width="0.398" fill="none" /><path id="267" transform="matrix(1 0 0 -1 0 841)" d="M456.765 691.903L518.145 691.903" stroke="#000000" stroke-width="0.398" fill="none" /><path id="276" transform="matrix(1 0 0 -1 0 841)" d="M452.182 706.205L522.728 706.205" stroke="#000000" stroke-width="0.398" fill="none" /><path id="277" transform="matrix(1 0 0 -1 0 841)" d="M452.381 677.358L452.381 706.205" stroke="#000000" stroke-width="0.398" fill="none" /><path id="278" transform="matrix(1 0 0 -1 0 841)" d="M522.529 677.358L522.529 706.205" stroke="#000000" stroke-width="0.398" fill="none" /><path id="279" transform="matrix(1 0 0 -1 0 841)" d="M452.182 677.358L522.728 677.358" stroke="#000000" stroke-width="0.398" fill="none" /><path id="308" transform="matrix(1 0 0 -1 0 841)" d="M124.262 616.164L256.678 616.164L256.678 627.372L124.262 627.372z" stroke="none" fill="#FFF100" fill-rule="nonzero" /><path id="333" transform="matrix(1 0 0 -1 0 841)" d="M224.629 622.017L255.234 622.017" stroke="#000000" stroke-width="0.398" fill="none" /><path id="338" transform="matrix(1 0 0 -1 0 841)" d="M84.79 592.716L96.357 592.716L96.357 603.924L84.79 603.924z" stroke="none" fill="#FFF100" fill-rule="nonzero" /><path id="341" transform="matrix(1 0 0 -1 0 841)" d="M95.859 592.716L108.531 592.716L108.531 603.924L95.859 603.924z" stroke="none" fill="#FFF100" fill-rule="nonzero" /><path id="344" transform="matrix(1 0 0 -1 0 841)" d="M108.033 592.716L120.705 592.716L120.705 603.924L108.033 603.924z" stroke="none" fill="#FFF100" fill-rule="nonzero" /><path id="348" transform="matrix(1 0 0 -1 0 841)" d="M120.456 592.716L122.947 592.716L122.947 603.924L120.456 603.924z" stroke="none" fill="#FFF100" fill-rule="nonzero" /><path id="349" transform="matrix(1 0 0 -1 0 841)" d="M122.698 592.716L142.015 592.716L142.015 603.924L122.698 603.924z" stroke="none" fill="#FFF100" fill-rule="nonzero" /><path id="354" transform="matrix(1 0 0 -1 0 841)" d="M141.517 592.716L159.728 592.716L159.728 603.924L141.517 603.924z" stroke="none" fill="#FFF100" fill-rule="nonzero" /><path id="509" transform="matrix(1 0 0 -1 0 841)" d="M185.157 538.793L215.762 538.793" stroke="#000000" stroke-width="0.398" fill="none" /><path id="528" transform="matrix(1 0 0 -1 0 841)" d="M230.321 538.793L375.33 538.793" stroke="#000000" stroke-width="0.398" fill="none" /><path id="539" transform="matrix(1 0 0 -1 0 841)" d="M266.135 524.596L281.039 524.596" stroke="#000000" stroke-width="0.398" fill="none" /><path id="547" transform="matrix(1 0 0 -1 0 841)" d="M291.178 524.596L322.122 524.596" stroke="#000000" stroke-width="0.398" fill="none" /><path id="563" transform="matrix(1 0 0 -1 0 841)" d="M332.262 524.596L374.136 524.596" stroke="#000000" stroke-width="0.398" fill="none" /><path id="580" transform="matrix(1 0 0 -1 0 841)" d="M388.695 546.349L429.193 546.349" stroke="#000000" stroke-width="0.398" fill="none" /><path id="581" transform="matrix(1 0 0 -1 0 841)" d="M388.894 531.082L388.894 546.35" stroke="#000000" stroke-width="0.398" fill="none" /><path id="582" transform="matrix(1 0 0 -1 0 841)" d="M428.994 531.082L428.994 546.35" stroke="#000000" stroke-width="0.398" fill="none" /><path id="583" transform="matrix(1 0 0 -1 0 841)" d="M388.695 531.082L429.193 531.082" stroke="#000000" stroke-width="0.398" fill="none" /><path id="619" transform="matrix(1 0 0 -1 0 841)" d="M121.173 455.36L314.969 455.36L314.969 466.568L121.173 466.568z" stroke="none" fill="#FFF100" fill-rule="nonzero" /><path id="647" transform="matrix(1 0 0 -1 0 841)" d="M256.425 461.213L271.329 461.213" stroke="#000000" stroke-width="0.398" fill="none" /><path id="657" transform="matrix(1 0 0 -1 0 841)" d="M291.697 461.213L313.525 461.213" stroke="#000000" stroke-width="0.398" fill="none" /><path id="667" transform="matrix(1 0 0 -1 0 841)" d="M105.821 424.476L397.538 424.476L397.538 435.684L105.821 435.684z" stroke="none" fill="#FFF100" fill-rule="nonzero" /><path id="695" transform="matrix(1 0 0 -1 0 841)" d="M236.091 430.329L250.995 430.329" stroke="#000000" stroke-width="0.398" fill="none" /><path id="714" transform="matrix(1 0 0 -1 0 841)" d="M271.363 430.329L396.094 430.329" stroke="#000000" stroke-width="0.398" fill="none" /><path id="738" transform="matrix(1 0 0 -1 0 841)" d="M364.293 417.821L394.898 417.821" stroke="#000000" stroke-width="0.398" fill="none" /><path id="743" transform="matrix(1 0 0 -1 0 841)" d="M397.289 424.476L399.78 424.476L399.78 435.684L397.289 435.684z" stroke="none" fill="#FFF100" fill-rule="nonzero" /><path id="800" transform="matrix(1 0 0 -1 0 841)" d="M205.52 379.619L227.348 379.619" stroke="#000000" stroke-width="0.398" fill="none" /><path id="826" transform="matrix(1 0 0 -1 0 841)" d="M187.827 349.571L209.655 349.571" stroke="#000000" stroke-width="0.398" fill="none" /><path id="841" transform="matrix(1 0 0 -1 0 841)" d="M270.941 349.571L284.948 349.571" stroke="#000000" stroke-width="0.398" fill="none" /><path id="888" transform="matrix(1 0 0 -1 0 841)" d="M114.473 300.862L128.48 300.862" stroke="#000000" stroke-width="0.398" fill="none" /><path id="891" transform="matrix(1 0 0 -1 0 841)" d="M111.863 290.143L131.091 290.143" stroke="#000000" stroke-width="0.398" fill="none" /><path id="901" transform="matrix(1 0 0 -1 0 841)" d="M152.53 290.143L193.504 290.143" stroke="#000000" stroke-width="0.398" fill="none" /><path id="923" transform="matrix(1 0 0 -1 0 841)" d="M254.79 290.143L306.047 290.143" stroke="#000000" stroke-width="0.398" fill="none" /><path id="926" transform="matrix(1 0 0 -1 0 841)" d="M224.579 304.444L310.63 304.444" stroke="#000000" stroke-width="0.398" fill="none" /><path id="927" transform="matrix(1 0 0 -1 0 841)" d="M224.778 277.63L224.778 304.444" stroke="#000000" stroke-width="0.398" fill="none" /><path id="928" transform="matrix(1 0 0 -1 0 841)" d="M310.431 277.63L310.431 304.444" stroke="#000000" stroke-width="0.398" fill="none" /><path id="929" transform="matrix(1 0 0 -1 0 841)" d="M224.579 277.63L310.63 277.63" stroke="#000000" stroke-width="0.398" fill="none" /><path id="935" transform="matrix(1 0 0 -1 0 841)" d="M330.645 290.143L349.873 290.143" stroke="#000000" stroke-width="0.398" fill="none" /><path id="1127" transform="matrix(1 0 0 -1 0 841)" d="M247.314 170.186L262.218 170.186" stroke="#000000" stroke-width="0.398" fill="none" /><path id="1137" transform="matrix(1 0 0 -1 0 841)" d="M282.586 170.186L304.414 170.186" stroke="#000000" stroke-width="0.398" fill="none" /><path id="1156" transform="matrix(1 0 0 -1 0 841)" d="M179.99 141.444L194.894 141.444" stroke="#000000" stroke-width="0.398" fill="none" /><path id="1164" transform="matrix(1 0 0 -1 0 841)" d="M205.034 141.444L235.978 141.444" stroke="#000000" stroke-width="0.398" fill="none" /><path id="1172" transform="matrix(1 0 0 -1 0 841)" d="M136.192 128.692L237.172 128.692" stroke="#000000" stroke-width="0.398" fill="none" /><path id="1185" transform="matrix(1 0 0 -1 0 841)" d="M158.831 114.495L214.534 114.495" stroke="#000000" stroke-width="0.398" fill="none" /><path id="1195" transform="matrix(1 0 0 -1 0 841)" d="M257.275 128.692L266.191 128.692" stroke="#000000" stroke-width="0.398" fill="none" /><path id="1205" transform="matrix(1 0 0 -1 0 841)" d="M301.842 128.692L316.746 128.692" stroke="#000000" stroke-width="0.398" fill="none" /><path id="1209" transform="matrix(1 0 0 -1 0 841)" d="M279.556 142.6L321.329 142.6" stroke="#000000" stroke-width="0.398" fill="none" /><path id="1210" transform="matrix(1 0 0 -1 0 841)" d="M279.755 114.147L279.755 142.6" stroke="#000000" stroke-width="0.398" fill="none" /><path id="1211" transform="matrix(1 0 0 -1 0 841)" d="M321.129 114.147L321.129 142.6" stroke="#000000" stroke-width="0.398" fill="none" /><path id="1212" transform="matrix(1 0 0 -1 0 841)" d="M279.556 114.147L321.329 114.147" stroke="#000000" stroke-width="0.398" fill="none" /><path id="1213" transform="matrix(1 0 0 -1 0 841)" d="M112.063 81.677L134.698 81.677L134.698 92.885L112.063 92.885z" stroke="none" fill="#FFF100" fill-rule="nonzero" /><path id="1219" transform="matrix(1 0 0 -1 0 841)" d="M134.006 81.677L136.425 81.677L136.425 92.885L134.006 92.885z" stroke="none" fill="#FFF100" fill-rule="nonzero" /><path id="1220" transform="matrix(1 0 0 -1 0 841)" d="M136.176 81.677L152.166 81.677L152.166 92.885L136.176 92.885z" stroke="none" fill="#FFF100" fill-rule="nonzero" /><path id="1224" transform="matrix(1 0 0 -1 0 841)" d="M151.607 81.677L154.026 81.677L154.026 92.885L151.607 92.885z" stroke="none" fill="#FFF100" fill-rule="nonzero" /><path id="1225" transform="matrix(1 0 0 -1 0 841)" d="M153.777 81.677L170.863 81.677L170.863 92.885L153.777 92.885z" stroke="none" fill="#FFF100" fill-rule="nonzero" /><path id="1230" transform="matrix(1 0 0 -1 0 841)" d="M170.282 81.677L172.701 81.677L172.701 92.885L170.282 92.885z" stroke="none" fill="#FFF100" fill-rule="nonzero" /><path id="1231" transform="matrix(1 0 0 -1 0 841)" d="M172.451 81.677L181.248 81.677L181.248 92.885L172.451 92.885z" stroke="none" fill="#FFF100" fill-rule="nonzero" /><path id="1234" transform="matrix(1 0 0 -1 0 841)" d="M180.833 81.677L183.252 81.677L183.252 92.885L180.833 92.885z" stroke="none" fill="#FFF100" fill-rule="nonzero" /><path id="1235" transform="matrix(1 0 0 -1 0 841)" d="M183.003 81.677L195.675 81.677L195.675 92.885L183.003 92.885z" stroke="none" fill="#FFF100" fill-rule="nonzero" /><path id="1239" transform="matrix(1 0 0 -1 0 841)" d="M195.183 81.677L197.602 81.677L197.602 92.885L195.183 92.885z" stroke="none" fill="#FFF100" fill-rule="nonzero" /><path id="1240" transform="matrix(1 0 0 -1 0 841)" d="M197.353 81.677L217.776 81.677L217.776 92.885L197.353 92.885z" stroke="none" fill="#FFF100" fill-rule="nonzero" /><path id="1245" transform="matrix(1 0 0 -1 0 841)" d="M217.129 81.677L219.548 81.677L219.548 92.885L217.129 92.885z" stroke="none" fill="#FFF100" fill-rule="nonzero" /><path id="1246" transform="matrix(1 0 0 -1 0 841)" d="M219.298 81.677L235.188 81.677L235.188 92.885L219.298 92.885z" stroke="none" fill="#FFF100" fill-rule="nonzero" /><path id="1250" transform="matrix(1 0 0 -1 0 841)" d="M234.63 81.677L237.049 81.677L237.049 92.885L234.63 92.885z" stroke="none" fill="#FFF100" fill-rule="nonzero" /><path id="1251" transform="matrix(1 0 0 -1 0 841)" d="M236.799 81.677L260.54 81.677L260.54 92.885L236.799 92.885z" stroke="none" fill="#FFF100" fill-rule="nonzero" /><path id="1257" transform="matrix(1 0 0 -1 0 841)" d="M259.826 81.677L262.245 81.677L262.245 92.885L259.826 92.885z" stroke="none" fill="#FFF100" fill-rule="nonzero" /><path id="1258" transform="matrix(1 0 0 -1 0 841)" d="M261.996 81.677L272.457 81.677L272.457 92.885L261.996 92.885z" stroke="none" fill="#FFF100" fill-rule="nonzero" /><path id="1261" transform="matrix(1 0 0 -1 0 841)" d="M272.009 81.677L274.428 81.677L274.428 92.885L272.009 92.885z" stroke="none" fill="#FFF100" fill-rule="nonzero" /><path id="1262" transform="matrix(1 0 0 -1 0 841)" d="M274.178 81.677L282.178 81.677L282.178 92.885L274.178 92.885z" stroke="none" fill="#FFF100" fill-rule="nonzero" /><path id="1265" transform="matrix(1 0 0 -1 0 841)" d="M281.525 81.677L294.755 81.677L294.755 92.885L281.525 92.885z" stroke="none" fill="#FFF100" fill-rule="nonzero" /><path id="1269" transform="matrix(1 0 0 -1 0 841)" d="M294.003 81.677L307.233 81.677L307.233 92.885L294.003 92.885z" stroke="none" fill="#FFF100" fill-rule="nonzero" /><path id="1273" transform="matrix(1 0 0 -1 0 841)" d="M306.729 81.677L309.148 81.677L309.148 92.885L306.729 92.885z" stroke="none" fill="#FFF100" fill-rule="nonzero" /><path id="1274" transform="matrix(1 0 0 -1 0 841)" d="M308.899 81.677L321.571 81.677L321.571 92.885L308.899 92.885z" stroke="none" fill="#FFF100" fill-rule="nonzero" /><path id="1278" transform="matrix(1 0 0 -1 0 841)" d="M321.079 81.677L323.498 81.677L323.498 92.885L321.079 92.885z" stroke="none" fill="#FFF100" fill-rule="nonzero" /><path id="1279" transform="matrix(1 0 0 -1 0 841)" d="M323.249 81.677L336.28 81.677L336.28 92.885L323.249 92.885z" stroke="none" fill="#FFF100" fill-rule="nonzero" /><path id="1283" transform="matrix(1 0 0 -1 0 841)" d="M335.527 81.677L353.181 81.677L353.181 92.885L335.527 92.885z" stroke="none" fill="#FFF100" fill-rule="nonzero" /><path id="1287" transform="matrix(1 0 0 -1 0 841)" d="M352.588 81.677L355.007 81.677L355.007 92.885L352.588 92.885z" stroke="none" fill="#FFF100" fill-rule="nonzero" /><path id="1288" transform="matrix(1 0 0 -1 0 841)" d="M354.758 81.677L414.842 81.677L414.842 92.885L354.758 92.885z" stroke="none" fill="#FFF100" fill-rule="nonzero" /><path id="1303" transform="matrix(1 0 0 -1 0 841)" d="M413.664 81.677L416.083 81.677L416.083 92.885L413.664 92.885z" stroke="none" fill="#FFF100" fill-rule="nonzero" /><path id="1304" transform="matrix(1 0 0 -1 0 841)" d="M415.833 81.677L426.294 81.677L426.294 92.885L415.833 92.885z" stroke="none" fill="#FFF100" fill-rule="nonzero" /><path id="1307" transform="matrix(1 0 0 -1 0 841)" d="M425.846 81.677L428.265 81.677L428.265 92.885L425.846 92.885z" stroke="none" fill="#FFF100" fill-rule="nonzero" /><path id="1308" transform="matrix(1 0 0 -1 0 841)" d="M428.016 81.677L440.688 81.677L440.688 92.885L428.016 92.885z" stroke="none" fill="#FFF100" fill-rule="nonzero" /><path id="1312" transform="matrix(1 0 0 -1 0 841)" d="M440.195 81.677L442.614 81.677L442.614 92.885L440.195 92.885z" stroke="none" fill="#FFF100" fill-rule="nonzero" /><path id="1313" transform="matrix(1 0 0 -1 0 841)" d="M442.365 81.677L462.788 81.677L462.788 92.885L442.365 92.885z" stroke="none" fill="#FFF100" fill-rule="nonzero" /><path id="1318" transform="matrix(1 0 0 -1 0 841)" d="M462.141 81.677L464.56 81.677L464.56 92.885L462.141 92.885z" stroke="none" fill="#FFF100" fill-rule="nonzero" /><path id="1319" transform="matrix(1 0 0 -1 0 841)" d="M464.311 81.677L486.946 81.677L486.946 92.885L464.311 92.885z" stroke="none" fill="#FFF100" fill-rule="nonzero" /><path id="1325" transform="matrix(1 0 0 -1 0 841)" d="M486.254 81.677L488.673 81.677L488.673 92.885L486.254 92.885z" stroke="none" fill="#FFF100" fill-rule="nonzero" /><path id="1326" transform="matrix(1 0 0 -1 0 841)" d="M488.424 81.677L511.607 81.677L511.607 92.885L488.424 92.885z" stroke="none" fill="#FFF100" fill-rule="nonzero" /></g></g></svg>