<svg xmlns="http://www.w3.org/2000/svg" xmlns:xlink="http://www.w3.org/1999/xlink" id="body_186" preserveAspectRatio="xMinYMin meet" viewBox="0 0 1121 793"><defs><clipPath id="1"><path id="" clip-rule="evenodd" transform="matrix(1 0 0 1 0 0)" d="M0 -0.276001L841.89 -0.276001L841.89 -0.276001L841.89 595L841.89 595L3.644894E-14 595L3.644894E-14 595L0 -0.276001z" /></clipPath><clipPath id="2"><path id="" clip-rule="evenodd" transform="matrix(1 0 0 1 0 0)" d="M-0.196 569.865L842.0873 569.865L842.0873 569.865L842.0873 24.85815L842.0873 24.85815L-0.196 24.85815z" /></clipPath><clipPath id="3"><path id="" clip-rule="evenodd" transform="matrix(1 0 0 1 0 0)" d="M-0.196 569.865L842.0873 569.865L842.0873 569.865L842.0873 24.85815L842.0873 24.85815L-0.196 24.85815z" /></clipPath><clipPath id="4"><path id="" clip-rule="evenodd" transform="matrix(1 0 0 1 0 0)" d="M610.7106 344.3017L804.1708 344.3017L804.1708 344.3017L804.1708 418.8596L804.1708 418.8596L610.7106 418.8596z" /></clipPath><clipPath id="5"><path id="" clip-rule="evenodd" transform="matrix(1 0 0 1 0 0)" d="M608.3166 437.2425L804.1708 437.2425L804.1708 437.2425L804.1708 502.4388L804.1708 502.4388L608.3166 502.4388z" /></clipPath></defs><g transform="matrix(1.333333 0 0 1.333333 0 0)"><g clip-path="url(#1)"><g><g clip-path="url(#2)"><path id="1" transform="matrix(1 0 0 -1 0 595)" d="M440.0285 199.8565L539.6498 199.8565L539.6498 231.2329L440.0285 231.2329z" stroke="none" fill="#FFF100" fill-rule="nonzero" /><path id="2" transform="matrix(1 0 0 -1 0 595)" d="M440.0285 199.8565L539.6498 199.8565L539.6498 199.8565L539.6498 231.2329L539.6498 231.2329L440.0285 231.2329z" stroke="#221E1F" stroke-width="0.68814" fill="none" /><path id="3" transform="matrix(1 0 0 -1 0 595)" d="M440.0285 93.2877L539.6498 93.2877L539.6498 124.6641L440.0285 124.6641z" stroke="none" fill="#FFF100" fill-rule="nonzero" /><path id="4" transform="matrix(1 0 0 -1 0 595)" d="M440.0285 93.2877L539.6498 93.2877L539.6498 93.2877L539.6498 124.6641L539.6498 124.6641L440.0285 124.6641z" stroke="#221E1F" stroke-width="0.68814" fill="none" /><path id="5" transform="matrix(1 0 0 -1 0 595)" d="M24.92111 413.526L280.9092 413.526L280.9092 466.3311L24.92111 466.3311z" stroke="none" fill="#FFF100" fill-rule="nonzero" /><path id="57" transform="matrix(1 0 0 -1 0 595)" d="M24.92111 469.0844L280.9092 469.0844L280.9092 497.9863L24.92111 497.9863z" stroke="none" fill="#D4C600" fill-rule="nonzero" /><path id="59" transform="matrix(1 0 0 -1 0 595)" d="M561.3262 410.7735L817.3143 410.7735L817.3143 466.3311L561.3262 466.3311z" stroke="none" fill="#F6AFCF" fill-rule="nonzero" /><path id="142" transform="matrix(1 0 0 -1 0 595)" d="M561.3262 469.0844L817.3143 469.0844L817.3143 497.9863L561.3262 497.9863z" stroke="none" fill="#EE4E9D" fill-rule="nonzero" /><path id="144" transform="matrix(1 0 0 -1 0 595)" d="M292.9516 413.526L548.9397 413.526L548.9397 466.3311L292.9516 466.3311z" stroke="none" fill="#FDCEA2" fill-rule="nonzero" /><path id="223" transform="matrix(1 0 0 -1 0 595)" d="M292.9516 469.0844L548.9397 469.0844L548.9397 497.9863L292.9516 497.9863z" stroke="none" fill="#F5851F" fill-rule="nonzero" /><path id="225" transform="matrix(1 0 0 -1 0 595)" d="M24.30178 49.90805L220.1203 49.90805L220.1203 349.1175L24.30178 349.1175z" stroke="none" fill="#7CD3F7" fill-rule="nonzero" /><path id="279" transform="matrix(1 0 0 -1 0 595)" d="M24.30178 351.8701L220.1203 351.8701L220.1203 380.7719L24.30178 380.7719z" stroke="none" fill="#008CD2" fill-rule="nonzero" /><path id="357" transform="matrix(1 0 0 -1 0 595)" d="M84.07114 173.6898L107.5367 173.6898" stroke="#221E1F" stroke-width="0.34407" fill="none" /><path id="402" transform="matrix(1 0 0 -1 0 595)" d="M123.8627 112.216L168.2821 112.216" stroke="#221E1F" stroke-width="0.34407" fill="none" /><path id="536" transform="matrix(1 0 0 -1 0 595)" d="M146.6389 178.9708L146.6389 151.7453L126.8996 162.2979L126.2397 186.6298z" stroke="none" fill="#BCBDC0" fill-rule="nonzero" /><path id="537" transform="matrix(1 0 0 -1 0 595)" d="M146.6593 178.9708L146.6593 151.7453L165.2212 162.4747L165.8811 186.8067z" stroke="none" fill="#FFFFFF" fill-rule="nonzero" /><path id="538" transform="matrix(1 0 0 -1 0 595)" d="M165.9016 186.8067L146.6591 178.9709L126.2393 186.6299L145.4831 193.0007z" stroke="none" fill="#D2D3D5" fill-rule="nonzero" /><path id="545" transform="matrix(1 0 0 -1 0 595)" d="M381.2661 310.7626L811.8092 310.7626L811.8092 349.1168L381.2661 349.1168z" stroke="none" fill="#D6D7D9" fill-rule="nonzero" /><path id="618" transform="matrix(1 0 0 -1 0 595)" d="M381.2661 351.8701L811.8092 351.8701L811.8092 380.7719L381.2661 380.7719z" stroke="none" fill="#626365" fill-rule="nonzero" /><path id="620" transform="matrix(1 0 0 -1 0 595)" d="M230.9805 49.90805L375.911 49.90805L375.911 349.1175L230.9805 349.1175z" stroke="none" fill="#A4CE38" fill-rule="nonzero" /><path id="738" transform="matrix(1 0 0 -1 0 595)" d="M230.9805 351.8701L375.911 351.8701L375.911 380.7719L230.9805 380.7719z" stroke="none" fill="#059C46" fill-rule="nonzero" /><g clip-path="url(#3)"><g><g clip-path="url(#4)"><path id="740" transform="matrix(1 0 0 -1 0 595)" d="M611.3994 176.8286L803.4841 176.8286L803.4841 250.0102L611.3994 250.0102z" stroke="none" fill="#D6D7D9" fill-rule="nonzero" /></g></g><g><g clip-path="url(#5)"><path id="741" transform="matrix(1 0 0 -1 0 595)" d="M611.3994 93.24917L803.4841 93.24917L803.4841 154.9058L611.3994 154.9058z" stroke="none" fill="#D6D7D9" fill-rule="nonzero" /></g></g></g><path id="742" transform="matrix(1 0 0 -1 0 595)" d="M393.846 239.8347L571.5403 239.8347L571.5403 260.9964L393.846 260.9964z" stroke="none" fill="#7CD3F7" fill-rule="nonzero" /><path id="811" transform="matrix(1 0 0 -1 0 595)" d="M393.612 59.24335L576.1901 59.24335L576.1901 86.10972L393.612 86.10972z" stroke="none" fill="#7CD3F7" fill-rule="nonzero" /><path id="868" transform="matrix(1 0 0 -1 0 595)" d="M473.7304 216.5922L519.8358 216.5922" stroke="#221E1F" stroke-width="0.34407" fill="none" /><path id="912" transform="matrix(1 0 0 -1 0 595)" d="M475.726 188.0544L519.8358 188.0544" stroke="#221E1F" stroke-width="0.34407" fill="none" /><path id="922" transform="matrix(1 0 0 -1 0 595)" d="M395.8138 162.9885L425.0253 162.9885" stroke="#221E1F" stroke-width="0.34407" fill="none" /><path id="929" transform="matrix(1 0 0 -1 0 595)" d="M437.2054 163.2637L466.4169 163.2637" stroke="#221E1F" stroke-width="0.34407" fill="none" /><path id="941" transform="matrix(1 0 0 -1 0 595)" d="M422.2383 138.2981L475.9132 138.2981" stroke="#221E1F" stroke-width="0.34407" fill="none" /><path id="955" transform="matrix(1 0 0 -1 0 595)" d="M611.055 268.2739L723.5012 268.2739" stroke="#221E1F" stroke-width="0.7053435" fill="none" /><path id="1129" transform="matrix(1 0 0 -1 0 595)" d="M675.4688 211.0558L704.6804 211.0558" stroke="#221E1F" stroke-width="0.34407" fill="none" /><path id="1143" transform="matrix(1 0 0 -1 0 595)" d="M743.5947 211.3311L772.8062 211.3311" stroke="#221E1F" stroke-width="0.34407" fill="none" /><path id="1152" transform="matrix(1 0 0 -1 0 595)" d="M642.0768 211.0558L671.2883 211.0558" stroke="#221E1F" stroke-width="0.34407" fill="none" /><path id="1158" transform="matrix(1 0 0 -1 0 595)" d="M678.283 117.8253L707.4946 117.8253" stroke="#221E1F" stroke-width="0.34407" fill="none" /><path id="1174" transform="matrix(1 0 0 -1 0 595)" d="M644.8911 117.8253L674.1027 117.8253" stroke="#221E1F" stroke-width="0.34407" fill="none" /><path id="1201" transform="matrix(1 0 0 -1 0 595)" d="M588.1976 316.309L588.1976 66.18452" stroke="#221E1F" stroke-width="0.34407" fill="none" /><path id="1202" transform="matrix(1 0 0 -1 0 595)" d="M395.7125 300.6605L413.8794 300.6605" stroke="#221E1F" stroke-width="0.34407" fill="none" /><path id="1224" transform="matrix(1 0 0 -1 0 595)" d="M494.325 138.2999L580.3425 138.2999" stroke="#221E1F" stroke-width="0.34407" fill="none" /><path id="1244" transform="matrix(1 0 0 -1 0 595)" d="M438.6522 273.3842L538.2736 273.3842L538.2736 304.7607L438.6522 304.7607z" stroke="none" fill="#FFF100" fill-rule="nonzero" /><path id="1245" transform="matrix(1 0 0 -1 0 595)" d="M438.6522 273.3842L538.2736 273.3842L538.2736 273.3842L538.2736 304.7607L538.2736 304.7607L438.6522 304.7607z" stroke="#221E1F" stroke-width="0.68814" fill="none" /></g></g></g></g></svg>