<svg xmlns="http://www.w3.org/2000/svg" xmlns:xlink="http://www.w3.org/1999/xlink" id="body_317" preserveAspectRatio="xMinYMin meet" viewBox="0 0 793 1121"><defs><clipPath id="1"><path id="" clip-rule="evenodd" transform="matrix(1 0 0 1 0 0)" d="M0 841L0 -0.8900146L0 -0.8900146L595.276 -0.8900146L595.276 -0.8900146L595.276 841L595.276 841L0 841z" /></clipPath></defs><g transform="matrix(1.333333 0 0 1.333333 0 0)"><g clip-path="url(#1)"><path id="23" transform="matrix(1 0 0 -1 0 841)" d="M85.039 766.564L510.236 766.564" stroke="#000000" stroke-width="0.498" fill="none" /><path id="92" transform="matrix(1 0 0 -1 0 841)" d="M252.404 716.876L257.385 716.876" stroke="#000000" stroke-width="0.398" fill="none" /><path id="98" transform="matrix(1 0 0 -1 0 841)" d="M278.586 716.876L283.567 716.876" stroke="#000000" stroke-width="0.398" fill="none" /><path id="103" transform="matrix(1 0 0 -1 0 841)" d="M299.788 716.876L304.769 716.876" stroke="#000000" stroke-width="0.398" fill="none" /><path id="109" transform="matrix(1 0 0 -1 0 841)" d="M325.971 716.876L330.952 716.876" stroke="#000000" stroke-width="0.398" fill="none" /><path id="119" transform="matrix(1 0 0 -1 0 841)" d="M365.164 716.876L375.127 716.876" stroke="#000000" stroke-width="0.398" fill="none" /><path id="411" transform="matrix(1 0 0 -1 0 841)" d="M243.216 595.705L248.197 595.705" stroke="#000000" stroke-width="0.398" fill="none" /><path id="425" transform="matrix(1 0 0 -1 0 841)" d="M310.633 595.705L315.614 595.705" stroke="#000000" stroke-width="0.398" fill="none" /><path id="429" transform="matrix(1 0 0 -1 0 841)" d="M328.513 595.705L333.494 595.705" stroke="#000000" stroke-width="0.398" fill="none" /><path id="439" transform="matrix(1 0 0 -1 0 841)" d="M374.351 595.705L379.332 595.705" stroke="#000000" stroke-width="0.398" fill="none" /><path id="458" transform="matrix(1 0 0 -1 0 841)" d="M179.649 559.521L189.612 559.521" stroke="#000000" stroke-width="0.398" fill="none" /><path id="659" transform="matrix(1 0 0 -1 0 841)" d="M137.508 483.059L147.471 483.059" stroke="#000000" stroke-width="0.398" fill="none" /><path id="664" transform="matrix(1 0 0 -1 0 841)" d="M167.011 483.059L171.992 483.059" stroke="#000000" stroke-width="0.398" fill="none" /><path id="866" transform="matrix(1 0 0 -1 0 841)" d="M152.047 415.872L157.028 415.872" stroke="#000000" stroke-width="0.398" fill="none" /><path id="870" transform="matrix(1 0 0 -1 0 841)" d="M118.24 388.963L123.221 388.963" stroke="#000000" stroke-width="0.398" fill="none" /><path id="878" transform="matrix(1 0 0 -1 0 841)" d="M137.781 388.963L170.982 388.963" stroke="#000000" stroke-width="0.398" fill="none" /><path id="884" transform="matrix(1 0 0 -1 0 841)" d="M185.541 388.963L206.012 388.963" stroke="#000000" stroke-width="0.398" fill="none" /><path id="888" transform="matrix(1 0 0 -1 0 841)" d="M220.572 388.963L225.553 388.963" stroke="#000000" stroke-width="0.398" fill="none" /><path id="1129" transform="matrix(1 0 0 -1 0 841)" d="M384.478 269.172L394.441 269.172" stroke="#000000" stroke-width="0.398" fill="none" /><path id="1579" transform="matrix(1 0 0 -1 0 841)" d="M396.004 111.853L400.457 111.853" stroke="#000000" stroke-width="0.398" fill="none" /><path id="1673" transform="matrix(1 0 0 -1 0 841)" d="M472.289 90.917L476.742 90.917" stroke="#000000" stroke-width="0.398" fill="none" /><path id="1678" transform="matrix(1 0 0 -1 0 841)" d="M491.302 90.917L499.91 90.917" stroke="#000000" stroke-width="0.398" fill="none" /><g transform="matrix(0.2 0 0 0.2 249.239 774.845)"><g transform="matrix(1 0 0 1 0 0)"><image x="0" y="0" xlink:href="img_04.png" width="484" height="104" /></g></g></g></g></svg>