<svg xmlns="http://www.w3.org/2000/svg" xmlns:xlink="http://www.w3.org/1999/xlink" id="body_156" preserveAspectRatio="xMinYMin meet" viewBox="0 0 793 1121"><defs><clipPath id="1"><path id="" clip-rule="evenodd" transform="matrix(1 0 0 1 0 0)" d="M0 841L0 -0.8900146L0 -0.8900146L595.276 -0.8900146L595.276 -0.8900146L595.276 841L595.276 841L0 841z" /></clipPath></defs><g transform="matrix(1.333333 0 0 1.333333 0 0)"><g clip-path="url(#1)"><path id="23" transform="matrix(1 0 0 -1 0 841)" d="M85.039 766.564L510.236 766.564" stroke="#000000" stroke-width="0.498" fill="none" /><g transform="matrix(0.08000001 0 0 0.08 198.636 84.14697)"><g transform="matrix(1 0 0 1 0 0)"><image x="0" y="0" xlink:href="img_270.png" width="2816" height="2112" /></g></g><path id="83" transform="matrix(1 0 0 -1 0 841)" d="M290.644 542.984L305.837 542.984L305.837 554.192L290.644 554.192z" stroke="none" fill="#FFF100" fill-rule="nonzero" /><path id="87" transform="matrix(1 0 0 -1 0 841)" d="M305.722 542.984L308.218 542.984L308.218 554.192L305.722 554.192z" stroke="none" fill="#FFF100" fill-rule="nonzero" /><path id="88" transform="matrix(1 0 0 -1 0 841)" d="M307.969 542.984L325.065 542.984L325.065 554.192L307.969 554.192z" stroke="none" fill="#FFF100" fill-rule="nonzero" /><path id="93" transform="matrix(1 0 0 -1 0 841)" d="M324.716 542.984L341.812 542.984L341.812 554.192L324.716 554.192z" stroke="none" fill="#FFF100" fill-rule="nonzero" /><path id="98" transform="matrix(1 0 0 -1 0 841)" d="M341.712 542.984L344.208 542.984L344.208 554.192L341.712 554.192z" stroke="none" fill="#FFF100" fill-rule="nonzero" /><path id="99" transform="matrix(1 0 0 -1 0 841)" d="M343.958 542.984L363.265 542.984L363.265 554.192L343.958 554.192z" stroke="none" fill="#FFF100" fill-rule="nonzero" /><path id="104" transform="matrix(1 0 0 -1 0 841)" d="M363.186 542.984L365.682 542.984L365.682 554.192L363.186 554.192z" stroke="none" fill="#FFF100" fill-rule="nonzero" /><path id="105" transform="matrix(1 0 0 -1 0 841)" d="M365.433 542.984L395.251 542.984L395.251 554.192L365.433 554.192z" stroke="none" fill="#FFF100" fill-rule="nonzero" /><path id="112" transform="matrix(1 0 0 -1 0 841)" d="M395.265 542.984L397.761 542.984L397.761 554.192L395.265 554.192z" stroke="none" fill="#FFF100" fill-rule="nonzero" /><path id="113" transform="matrix(1 0 0 -1 0 841)" d="M397.512 542.984L420.137 542.984L420.137 554.192L397.512 554.192z" stroke="none" fill="#FFF100" fill-rule="nonzero" /><path id="159" transform="matrix(1 0 0 -1 0 841)" d="M222.486 528.04L240.698 528.04L240.698 539.248L222.486 539.248z" stroke="none" fill="#FFF100" fill-rule="nonzero" /><path id="164" transform="matrix(1 0 0 -1 0 841)" d="M240.553 528.04L244.369 528.04L244.369 539.248L240.553 539.248z" stroke="none" fill="#FFF100" fill-rule="nonzero" /><path id="166" transform="matrix(1 0 0 -1 0 841)" d="M243.937 528.04L261.033 528.04L261.033 539.248L243.937 539.248z" stroke="none" fill="#FFF100" fill-rule="nonzero" /><path id="171" transform="matrix(1 0 0 -1 0 841)" d="M260.867 528.04L277.963 528.04L277.963 539.248L260.867 539.248z" stroke="none" fill="#FFF100" fill-rule="nonzero" /><path id="176" transform="matrix(1 0 0 -1 0 841)" d="M278.045 528.04L280.581 528.04L280.581 539.248L278.045 539.248z" stroke="none" fill="#FFF100" fill-rule="nonzero" /><path id="177" transform="matrix(1 0 0 -1 0 841)" d="M280.333 528.04L299.64 528.04L299.64 539.248L280.333 539.248z" stroke="none" fill="#FFF100" fill-rule="nonzero" /><path id="607" transform="matrix(1 0 0 -1 0 841)" d="M321.2 423.432L342.072 423.432L342.072 434.64L321.2 434.64z" stroke="none" fill="#FFF100" fill-rule="nonzero" /><path id="612" transform="matrix(1 0 0 -1 0 841)" d="M341.761 423.432L344.205 423.432L344.205 434.64L341.761 434.64z" stroke="none" fill="#FFF100" fill-rule="nonzero" /><path id="613" transform="matrix(1 0 0 -1 0 841)" d="M343.957 423.432L367.548 423.432L367.548 434.64L343.957 434.64z" stroke="none" fill="#FFF100" fill-rule="nonzero" /><path id="1062" transform="matrix(1 0 0 -1 0 841)" d="M420.726 333.769L454.33 333.769L454.33 344.977L420.726 344.977z" stroke="none" fill="#FFF100" fill-rule="nonzero" /><path id="1363" transform="matrix(1 0 0 -1 0 841)" d="M112.063 259.049L137.477 259.049L137.477 270.257L112.063 270.257z" stroke="none" fill="#FFF100" fill-rule="nonzero" /><path id="1370" transform="matrix(1 0 0 -1 0 841)" d="M137.727 259.049L140.635 259.049L140.635 270.257L137.727 270.257z" stroke="none" fill="#FFF100" fill-rule="nonzero" /><path id="1371" transform="matrix(1 0 0 -1 0 841)" d="M140.385 259.049L154.711 259.049L154.711 270.257L140.385 270.257z" stroke="none" fill="#FFF100" fill-rule="nonzero" /><path id="1375" transform="matrix(1 0 0 -1 0 841)" d="M154.49 259.049L170.48 259.049L170.48 270.257L154.49 270.257z" stroke="none" fill="#FFF100" fill-rule="nonzero" /><path id="1380" transform="matrix(1 0 0 -1 0 841)" d="M170.541 259.049L173.449 259.049L173.449 270.257L170.541 270.257z" stroke="none" fill="#FFF100" fill-rule="nonzero" /><path id="1381" transform="matrix(1 0 0 -1 0 841)" d="M173.199 259.049L188.631 259.049L188.631 270.257L173.199 270.257z" stroke="none" fill="#FFF100" fill-rule="nonzero" /><path id="1389" transform="matrix(1 0 0 -1 0 841)" d="M208.087 259.049L221.865 259.049L221.865 270.257L208.087 270.257z" stroke="none" fill="#FFF100" fill-rule="nonzero" /><path id="1393" transform="matrix(1 0 0 -1 0 841)" d="M221.632 259.049L238.728 259.049L238.728 270.257L221.632 270.257z" stroke="none" fill="#FFF100" fill-rule="nonzero" /><path id="1398" transform="matrix(1 0 0 -1 0 841)" d="M238.811 259.049L241.719 259.049L241.719 270.257L238.811 270.257z" stroke="none" fill="#FFF100" fill-rule="nonzero" /><path id="1399" transform="matrix(1 0 0 -1 0 841)" d="M241.469 259.049L260.119 259.049L260.119 270.257L241.469 270.257z" stroke="none" fill="#FFF100" fill-rule="nonzero" /><path id="1404" transform="matrix(1 0 0 -1 0 841)" d="M260.235 259.049L263.143 259.049L263.143 270.257L260.235 270.257z" stroke="none" fill="#FFF100" fill-rule="nonzero" /><path id="1405" transform="matrix(1 0 0 -1 0 841)" d="M262.894 259.049L286.645 259.049L286.645 270.257L262.894 270.257z" stroke="none" fill="#FFF100" fill-rule="nonzero" /></g></g></svg>