<svg xmlns="http://www.w3.org/2000/svg" xmlns:xlink="http://www.w3.org/1999/xlink" id="body_65" preserveAspectRatio="xMinYMin meet" viewBox="0 0 793 1121"><defs><clipPath id="1"><path id="" clip-rule="evenodd" transform="matrix(1 0 0 1 0 0)" d="M0 841L0 -0.8900146L0 -0.8900146L595.276 -0.8900146L595.276 -0.8900146L595.276 841L595.276 841L0 841z" /></clipPath></defs><g transform="matrix(1.333333 0 0 1.333333 0 0)"><g clip-path="url(#1)"><path id="23" transform="matrix(1 0 0 -1 0 841)" d="M85.039 766.564L510.236 766.564" stroke="#000000" stroke-width="0.498" fill="none" /><g transform="matrix(0.3375 0 0 0.3374999 108.682 84.14807)"><g transform="matrix(1 0 0 1 0 0)"><image x="0" y="0" xlink:href="img_26.png" width="542" height="428" /></g></g><g transform="matrix(0.3375 0 0 0.3375 324.933 88.87305)"><g transform="matrix(1 0 0 1 0 0)"><image x="0" y="0" xlink:href="img_27.png" width="479" height="414" /></g></g><path id="119" transform="matrix(1 0 0 -1 0 841)" d="M291.596 498.898L309.598 498.898L309.598 510.106L291.596 510.106z" stroke="none" fill="#FFF100" fill-rule="nonzero" /><path id="124" transform="matrix(1 0 0 -1 0 841)" d="M309.384 498.898L320.402 498.898L320.402 510.106L309.384 510.106z" stroke="none" fill="#FFF100" fill-rule="nonzero" /><path id="128" transform="matrix(1 0 0 -1 0 841)" d="M320.322 498.898L322.817 498.898L322.817 510.106L320.322 510.106z" stroke="none" fill="#FFF100" fill-rule="nonzero" /><path id="129" transform="matrix(1 0 0 -1 0 841)" d="M322.568 498.898L335.798 498.898L335.798 510.106L322.568 510.106z" stroke="none" fill="#FFF100" fill-rule="nonzero" /><path id="133" transform="matrix(1 0 0 -1 0 841)" d="M335.503 498.898L350.9449 498.898L350.9449 510.106L335.503 510.106z" stroke="none" fill="#FFF100" fill-rule="nonzero" /><path id="465" transform="matrix(1 0 0 -1 0 841)" d="M112.063 424.178L128.063 424.178L128.063 435.386L112.063 435.386z" stroke="none" fill="#FFF100" fill-rule="nonzero" /><path id="469" transform="matrix(1 0 0 -1 0 841)" d="M127.58 424.178L130.848 424.178L130.848 435.386L127.58 435.386z" stroke="none" fill="#FFF100" fill-rule="nonzero" /><path id="471" transform="matrix(1 0 0 -1 0 841)" d="M130.353 424.178L151.334 424.178L151.334 435.386L130.353 435.386z" stroke="none" fill="#FFF100" fill-rule="nonzero" /><path id="475" transform="matrix(1 0 0 -1 0 841)" d="M151.105 424.178L153.579 424.178L153.579 435.386L151.105 435.386z" stroke="none" fill="#FFF100" fill-rule="nonzero" /><path id="476" transform="matrix(1 0 0 -1 0 841)" d="M153.33 424.178L163.083 424.178L163.083 435.386L153.33 435.386z" stroke="none" fill="#FFF100" fill-rule="nonzero" /><path id="479" transform="matrix(1 0 0 -1 0 841)" d="M162.595 424.178L175.267 424.178L175.267 435.386L162.595 435.386z" stroke="none" fill="#FFF100" fill-rule="nonzero" /><path id="483" transform="matrix(1 0 0 -1 0 841)" d="M174.781 424.178L185.799 424.178L185.799 435.386L174.781 435.386z" stroke="none" fill="#FFF100" fill-rule="nonzero" /><path id="487" transform="matrix(1 0 0 -1 0 841)" d="M185.561 424.178L188.035 424.178L188.035 435.386L185.561 435.386z" stroke="none" fill="#FFF100" fill-rule="nonzero" /><path id="488" transform="matrix(1 0 0 -1 0 841)" d="M187.787 424.178L196.584 424.178L196.584 435.386L187.787 435.386z" stroke="none" fill="#FFF100" fill-rule="nonzero" /><path id="491" transform="matrix(1 0 0 -1 0 841)" d="M196.343 424.178L198.817 424.178L198.817 435.386L196.343 435.386z" stroke="none" fill="#FFF100" fill-rule="nonzero" /><path id="492" transform="matrix(1 0 0 -1 0 841)" d="M198.568 424.178L211.519 424.178L211.519 435.386L198.568 435.386z" stroke="none" fill="#FFF100" fill-rule="nonzero" /><path id="496" transform="matrix(1 0 0 -1 0 841)" d="M211.283 424.178L213.757 424.178L213.757 435.386L211.283 435.386z" stroke="none" fill="#FFF100" fill-rule="nonzero" /><path id="497" transform="matrix(1 0 0 -1 0 841)" d="M213.508 424.178L228.94 424.178L228.94 435.386L213.508 435.386z" stroke="none" fill="#FFF100" fill-rule="nonzero" /><path id="502" transform="matrix(1 0 0 -1 0 841)" d="M228.706 424.178L231.18 424.178L231.18 435.386L228.706 435.386z" stroke="none" fill="#FFF100" fill-rule="nonzero" /><path id="503" transform="matrix(1 0 0 -1 0 841)" d="M230.931 424.178L244.151 424.178L244.151 435.386L230.931 435.386z" stroke="none" fill="#FFF100" fill-rule="nonzero" /><path id="507" transform="matrix(1 0 0 -1 0 841)" d="M243.915 424.178L246.389 424.178L246.389 435.386L243.915 435.386z" stroke="none" fill="#FFF100" fill-rule="nonzero" /><path id="508" transform="matrix(1 0 0 -1 0 841)" d="M246.14 424.178L259.36 424.178L259.36 435.386L246.14 435.386z" stroke="none" fill="#FFF100" fill-rule="nonzero" /><path id="512" transform="matrix(1 0 0 -1 0 841)" d="M258.875 424.178L274.317 424.178L274.317 435.386L258.875 435.386z" stroke="none" fill="#FFF100" fill-rule="nonzero" /><path id="674" transform="matrix(1 0 0 -1 0 841)" d="M112.063 364.402L127.505 364.402L127.505 375.61L112.063 375.61z" stroke="none" fill="#FFF100" fill-rule="nonzero" /><path id="679" transform="matrix(1 0 0 -1 0 841)" d="M127.48 364.402L129.875 364.402L129.875 375.61L127.48 375.61z" stroke="none" fill="#FFF100" fill-rule="nonzero" /><path id="680" transform="matrix(1 0 0 -1 0 841)" d="M129.626 364.402L141.192 364.402L141.192 375.61L129.626 375.61z" stroke="none" fill="#FFF100" fill-rule="nonzero" /><path id="684" transform="matrix(1 0 0 -1 0 841)" d="M140.86 364.402L160.735 364.402L160.735 375.61L140.86 375.61z" stroke="none" fill="#FFF100" fill-rule="nonzero" /><g transform="matrix(0.2 0 0 0.2 249.239 774.845)"><g transform="matrix(1 0 0 1 0 0)"><image x="0" y="0" xlink:href="img_04.png" width="484" height="104" /></g></g></g></g></svg>