<svg xmlns="http://www.w3.org/2000/svg" xmlns:xlink="http://www.w3.org/1999/xlink" id="body_246" preserveAspectRatio="xMinYMin meet" viewBox="0 0 793 1121"><defs><clipPath id="1"><path id="" clip-rule="evenodd" transform="matrix(1 0 0 1 0 0)" d="M0 841L0 -0.8900146L0 -0.8900146L595.276 -0.8900146L595.276 -0.8900146L595.276 841L595.276 841L0 841z" /></clipPath></defs><g transform="matrix(1.333333 0 0 1.333333 0 0)"><g clip-path="url(#1)"><path id="24" transform="matrix(1 0 0 -1 0 841)" d="M85.039 766.564L510.236 766.564" stroke="#000000" stroke-width="0.498" fill="none" /><path id="25" transform="matrix(1 0 0 -1 0 841)" d="M112.312 756.709L425.57 756.709" stroke="#000000" stroke-width="0.283" fill="none" /><path id="26" transform="matrix(1 0 0 -1 0 841)" d="M112.454 737.14L112.454 756.567" stroke="#000000" stroke-width="0.283" fill="none" /><path id="48" transform="matrix(1 0 0 -1 0 841)" d="M315.688 737.14L315.688 756.567" stroke="#000000" stroke-width="0.283" fill="none" /><path id="55" transform="matrix(1 0 0 -1 0 841)" d="M425.429 737.14L425.429 756.567" stroke="#000000" stroke-width="0.283" fill="none" /><path id="56" transform="matrix(1 0 0 -1 0 841)" d="M112.312 736.998L425.57 736.998" stroke="#000000" stroke-width="0.283" fill="none" /><path id="57" transform="matrix(1 0 0 -1 0 841)" d="M112.454 717.429L112.454 736.856" stroke="#000000" stroke-width="0.283" fill="none" /><path id="76" transform="matrix(1 0 0 -1 0 841)" d="M315.688 717.429L315.688 736.856" stroke="#000000" stroke-width="0.283" fill="none" /><path id="96" transform="matrix(1 0 0 -1 0 841)" d="M425.429 717.429L425.429 736.856" stroke="#000000" stroke-width="0.283" fill="none" /><path id="97" transform="matrix(1 0 0 -1 0 841)" d="M112.312 717.287L425.57 717.287" stroke="#000000" stroke-width="0.283" fill="none" /><path id="98" transform="matrix(1 0 0 -1 0 841)" d="M112.454 697.718L112.454 717.145" stroke="#000000" stroke-width="0.283" fill="none" /><path id="111" transform="matrix(1 0 0 -1 0 841)" d="M315.688 697.718L315.688 717.145" stroke="#000000" stroke-width="0.283" fill="none" /><path id="124" transform="matrix(1 0 0 -1 0 841)" d="M425.429 697.718L425.429 717.145" stroke="#000000" stroke-width="0.283" fill="none" /><path id="125" transform="matrix(1 0 0 -1 0 841)" d="M112.454 678.291L112.454 697.718" stroke="#000000" stroke-width="0.283" fill="none" /><path id="138" transform="matrix(1 0 0 -1 0 841)" d="M315.688 678.291L315.688 697.718" stroke="#000000" stroke-width="0.283" fill="none" /><path id="153" transform="matrix(1 0 0 -1 0 841)" d="M425.429 678.291L425.429 697.718" stroke="#000000" stroke-width="0.283" fill="none" /><path id="154" transform="matrix(1 0 0 -1 0 841)" d="M112.454 658.864L112.454 678.291" stroke="#000000" stroke-width="0.283" fill="none" /><path id="189" transform="matrix(1 0 0 -1 0 841)" d="M315.688 658.864L315.688 678.291" stroke="#000000" stroke-width="0.283" fill="none" /><path id="206" transform="matrix(1 0 0 -1 0 841)" d="M425.429 658.864L425.429 678.291" stroke="#000000" stroke-width="0.283" fill="none" /><path id="207" transform="matrix(1 0 0 -1 0 841)" d="M112.454 639.437L112.454 658.864" stroke="#000000" stroke-width="0.283" fill="none" /><path id="222" transform="matrix(1 0 0 -1 0 841)" d="M315.688 639.437L315.688 658.864" stroke="#000000" stroke-width="0.283" fill="none" /><path id="236" transform="matrix(1 0 0 -1 0 841)" d="M425.429 639.437L425.429 658.864" stroke="#000000" stroke-width="0.283" fill="none" /><path id="237" transform="matrix(1 0 0 -1 0 841)" d="M112.454 620.01L112.454 639.437" stroke="#000000" stroke-width="0.283" fill="none" /><path id="249" transform="matrix(1 0 0 -1 0 841)" d="M315.688 620.01L315.688 639.437" stroke="#000000" stroke-width="0.283" fill="none" /><path id="266" transform="matrix(1 0 0 -1 0 841)" d="M425.429 620.01L425.429 639.437" stroke="#000000" stroke-width="0.283" fill="none" /><path id="267" transform="matrix(1 0 0 -1 0 841)" d="M112.454 600.583L112.454 620.01" stroke="#000000" stroke-width="0.283" fill="none" /><path id="268" transform="matrix(1 0 0 -1 0 841)" d="M315.688 600.583L315.688 620.01" stroke="#000000" stroke-width="0.283" fill="none" /><path id="281" transform="matrix(1 0 0 -1 0 841)" d="M425.429 600.583L425.429 620.01" stroke="#000000" stroke-width="0.283" fill="none" /><path id="282" transform="matrix(1 0 0 -1 0 841)" d="M112.312 600.441L425.57 600.441" stroke="#000000" stroke-width="0.283" fill="none" /><path id="283" transform="matrix(1 0 0 -1 0 841)" d="M112.454 580.872L112.454 600.299" stroke="#000000" stroke-width="0.283" fill="none" /><path id="290" transform="matrix(1 0 0 -1 0 841)" d="M315.688 580.872L315.688 600.299" stroke="#000000" stroke-width="0.283" fill="none" /><path id="299" transform="matrix(1 0 0 -1 0 841)" d="M425.429 580.872L425.429 600.299" stroke="#000000" stroke-width="0.283" fill="none" /><path id="300" transform="matrix(1 0 0 -1 0 841)" d="M112.312 580.73L425.57 580.73" stroke="#000000" stroke-width="0.283" fill="none" /><path id="301" transform="matrix(1 0 0 -1 0 841)" d="M112.454 561.161L112.454 580.588" stroke="#000000" stroke-width="0.283" fill="none" /><path id="317" transform="matrix(1 0 0 -1 0 841)" d="M315.688 561.161L315.688 580.588" stroke="#000000" stroke-width="0.283" fill="none" /><path id="336" transform="matrix(1 0 0 -1 0 841)" d="M425.429 561.161L425.429 580.588" stroke="#000000" stroke-width="0.283" fill="none" /><path id="337" transform="matrix(1 0 0 -1 0 841)" d="M112.454 541.734L112.454 561.161" stroke="#000000" stroke-width="0.283" fill="none" /><path id="349" transform="matrix(1 0 0 -1 0 841)" d="M315.688 541.734L315.688 561.161" stroke="#000000" stroke-width="0.283" fill="none" /><path id="367" transform="matrix(1 0 0 -1 0 841)" d="M425.429 541.734L425.429 561.161" stroke="#000000" stroke-width="0.283" fill="none" /><path id="368" transform="matrix(1 0 0 -1 0 841)" d="M112.454 522.307L112.454 541.734" stroke="#000000" stroke-width="0.283" fill="none" /><path id="378" transform="matrix(1 0 0 -1 0 841)" d="M315.688 522.307L315.688 541.734" stroke="#000000" stroke-width="0.283" fill="none" /><path id="379" transform="matrix(1 0 0 -1 0 841)" d="M425.429 522.307L425.429 541.734" stroke="#000000" stroke-width="0.283" fill="none" /><path id="380" transform="matrix(1 0 0 -1 0 841)" d="M112.454 502.88L112.454 522.307" stroke="#000000" stroke-width="0.283" fill="none" /><path id="392" transform="matrix(1 0 0 -1 0 841)" d="M315.688 502.88L315.688 522.307" stroke="#000000" stroke-width="0.283" fill="none" /><path id="393" transform="matrix(1 0 0 -1 0 841)" d="M425.429 502.88L425.429 522.307" stroke="#000000" stroke-width="0.283" fill="none" /><path id="394" transform="matrix(1 0 0 -1 0 841)" d="M112.312 502.738L425.57 502.738" stroke="#000000" stroke-width="0.283" fill="none" /><path id="395" transform="matrix(1 0 0 -1 0 841)" d="M112.454 483.169L112.454 502.596" stroke="#000000" stroke-width="0.283" fill="none" /><path id="400" transform="matrix(1 0 0 -1 0 841)" d="M315.688 483.169L315.688 502.596" stroke="#000000" stroke-width="0.283" fill="none" /><path id="401" transform="matrix(1 0 0 -1 0 841)" d="M425.429 483.169L425.429 502.596" stroke="#000000" stroke-width="0.283" fill="none" /><path id="402" transform="matrix(1 0 0 -1 0 841)" d="M112.312 483.027L425.57 483.027" stroke="#000000" stroke-width="0.283" fill="none" /><path id="403" transform="matrix(1 0 0 -1 0 841)" d="M112.454 463.458L112.454 482.885" stroke="#000000" stroke-width="0.283" fill="none" /><path id="415" transform="matrix(1 0 0 -1 0 841)" d="M315.688 463.458L315.688 482.885" stroke="#000000" stroke-width="0.283" fill="none" /><path id="416" transform="matrix(1 0 0 -1 0 841)" d="M425.429 463.458L425.429 482.885" stroke="#000000" stroke-width="0.283" fill="none" /><path id="417" transform="matrix(1 0 0 -1 0 841)" d="M112.454 444.031L112.454 463.458" stroke="#000000" stroke-width="0.283" fill="none" /><path id="430" transform="matrix(1 0 0 -1 0 841)" d="M315.688 444.031L315.688 463.458" stroke="#000000" stroke-width="0.283" fill="none" /><path id="431" transform="matrix(1 0 0 -1 0 841)" d="M425.429 444.031L425.429 463.458" stroke="#000000" stroke-width="0.283" fill="none" /><path id="432" transform="matrix(1 0 0 -1 0 841)" d="M112.312 443.89L425.57 443.89" stroke="#000000" stroke-width="0.283" fill="none" /><path id="632" transform="matrix(1 0 0 -1 0 841)" d="M136.063 305.141L159.146 305.141L159.146 316.349L136.063 316.349z" stroke="none" fill="#FFF100" fill-rule="nonzero" /><path id="637" transform="matrix(1 0 0 -1 0 841)" d="M159.351 305.141L162.018 305.141L162.018 316.349L159.351 316.349z" stroke="none" fill="#FFF100" fill-rule="nonzero" /><path id="638" transform="matrix(1 0 0 -1 0 841)" d="M161.769 305.141L178.865 305.141L178.865 316.349L161.769 316.349z" stroke="none" fill="#FFF100" fill-rule="nonzero" /><path id="643" transform="matrix(1 0 0 -1 0 841)" d="M178.948 305.141L181.615 305.141L181.615 316.349L178.948 316.349z" stroke="none" fill="#FFF100" fill-rule="nonzero" /><path id="644" transform="matrix(1 0 0 -1 0 841)" d="M181.365 305.141L194.037 305.141L194.037 316.349L181.365 316.349z" stroke="none" fill="#FFF100" fill-rule="nonzero" /><path id="648" transform="matrix(1 0 0 -1 0 841)" d="M194.032 305.141L196.699 305.141L196.699 316.349L194.032 316.349z" stroke="none" fill="#FFF100" fill-rule="nonzero" /><path id="649" transform="matrix(1 0 0 -1 0 841)" d="M196.45 305.141L212.998 305.141L212.998 316.349L196.45 316.349z" stroke="none" fill="#FFF100" fill-rule="nonzero" /><path id="654" transform="matrix(1 0 0 -1 0 841)" d="M212.821 305.141L216.089 305.141L216.089 316.349L212.821 316.349z" stroke="none" fill="#FFF100" fill-rule="nonzero" /><path id="656" transform="matrix(1 0 0 -1 0 841)" d="M215.646 305.141L228.318 305.141L228.318 316.349L215.646 316.349z" stroke="none" fill="#FFF100" fill-rule="nonzero" /><path id="660" transform="matrix(1 0 0 -1 0 841)" d="M228.312 305.141L230.979 305.141L230.979 316.349L228.312 316.349z" stroke="none" fill="#FFF100" fill-rule="nonzero" /><path id="661" transform="matrix(1 0 0 -1 0 841)" d="M230.73 305.141L246.73 305.141L246.73 316.349L230.73 316.349z" stroke="none" fill="#FFF100" fill-rule="nonzero" /><path id="666" transform="matrix(1 0 0 -1 0 841)" d="M246.791 305.141L249.458 305.141L249.458 316.349L246.791 316.349z" stroke="none" fill="#FFF100" fill-rule="nonzero" /><path id="667" transform="matrix(1 0 0 -1 0 841)" d="M249.209 305.141L256.352 305.141L256.352 316.349L249.209 316.349z" stroke="none" fill="#FFF100" fill-rule="nonzero" /><path id="670" transform="matrix(1 0 0 -1 0 841)" d="M256.236 305.141L258.903 305.141L258.903 316.349L256.236 316.349z" stroke="none" fill="#FFF100" fill-rule="nonzero" /><path id="671" transform="matrix(1 0 0 -1 0 841)" d="M258.654 305.141L270.768 305.141L270.768 316.349L258.654 316.349z" stroke="none" fill="#FFF100" fill-rule="nonzero" /><path id="675" transform="matrix(1 0 0 -1 0 841)" d="M270.752 305.141L273.419 305.141L273.419 316.349L270.752 316.349z" stroke="none" fill="#FFF100" fill-rule="nonzero" /><path id="676" transform="matrix(1 0 0 -1 0 841)" d="M273.17 305.141L285.842 305.141L285.842 316.349L273.17 316.349z" stroke="none" fill="#FFF100" fill-rule="nonzero" /><path id="680" transform="matrix(1 0 0 -1 0 841)" d="M285.836 305.141L288.503 305.141L288.503 316.349L285.836 316.349z" stroke="none" fill="#FFF100" fill-rule="nonzero" /><path id="681" transform="matrix(1 0 0 -1 0 841)" d="M288.254 305.141L309.225 305.141L309.225 316.349L288.254 316.349z" stroke="none" fill="#FFF100" fill-rule="nonzero" /><path id="686" transform="matrix(1 0 0 -1 0 841)" d="M309.386 305.141L312.053 305.141L312.053 316.349L309.386 316.349z" stroke="none" fill="#FFF100" fill-rule="nonzero" /><path id="687" transform="matrix(1 0 0 -1 0 841)" d="M311.804 305.141L328.9 305.141L328.9 316.349L311.804 316.349z" stroke="none" fill="#FFF100" fill-rule="nonzero" /><path id="691" transform="matrix(1 0 0 -1 0 841)" d="M328.733 305.141L345.829 305.141L345.829 316.349L328.733 316.349z" stroke="none" fill="#FFF100" fill-rule="nonzero" /><path id="696" transform="matrix(1 0 0 -1 0 841)" d="M345.663 305.141L366.086 305.141L366.086 316.349L345.663 316.349z" stroke="none" fill="#FFF100" fill-rule="nonzero" /><path id="701" transform="matrix(1 0 0 -1 0 841)" d="M366.235 305.141L368.902 305.141L368.902 316.349L366.235 316.349z" stroke="none" fill="#FFF100" fill-rule="nonzero" /><path id="702" transform="matrix(1 0 0 -1 0 841)" d="M368.653 305.141L377.45 305.141L377.45 316.349L368.653 316.349z" stroke="none" fill="#FFF100" fill-rule="nonzero" /><path id="705" transform="matrix(1 0 0 -1 0 841)" d="M377.367 305.141L380.034 305.141L380.034 316.349L377.367 316.349z" stroke="none" fill="#FFF100" fill-rule="nonzero" /><path id="706" transform="matrix(1 0 0 -1 0 841)" d="M379.785 305.141L392.457 305.141L392.457 316.349L379.785 316.349z" stroke="none" fill="#FFF100" fill-rule="nonzero" /><path id="710" transform="matrix(1 0 0 -1 0 841)" d="M392.452 305.141L395.119 305.141L395.119 316.349L392.452 316.349z" stroke="none" fill="#FFF100" fill-rule="nonzero" /><path id="711" transform="matrix(1 0 0 -1 0 841)" d="M394.87 305.141L409.356 305.141L409.356 316.349L394.87 316.349z" stroke="none" fill="#FFF100" fill-rule="nonzero" /><path id="715" transform="matrix(1 0 0 -1 0 841)" d="M409.145 305.141L434.39 305.141L434.39 316.349L409.145 316.349z" stroke="none" fill="#FFF100" fill-rule="nonzero" /><path id="722" transform="matrix(1 0 0 -1 0 841)" d="M434.639 305.141L437.306 305.141L437.306 316.349L434.639 316.349z" stroke="none" fill="#FFF100" fill-rule="nonzero" /><path id="723" transform="matrix(1 0 0 -1 0 841)" d="M437.057 305.141L450.277 305.141L450.277 316.349L437.057 316.349z" stroke="none" fill="#FFF100" fill-rule="nonzero" /><path id="727" transform="matrix(1 0 0 -1 0 841)" d="M450.034 305.141L473.217 305.141L473.217 316.349L450.034 316.349z" stroke="none" fill="#FFF100" fill-rule="nonzero" /><path id="734" transform="matrix(1 0 0 -1 0 841)" d="M473.421 305.141L476.088 305.141L476.088 316.349L473.421 316.349z" stroke="none" fill="#FFF100" fill-rule="nonzero" /><path id="735" transform="matrix(1 0 0 -1 0 841)" d="M475.839 305.141L494.329 305.141L494.329 316.349L475.839 316.349z" stroke="none" fill="#FFF100" fill-rule="nonzero" /><path id="1133" transform="matrix(1 0 0 -1 0 841)" d="M459.884 219.682L526.185 219.682" stroke="#000000" stroke-width="0.398" fill="none" /><path id="1263" transform="matrix(1 0 0 -1 0 841)" d="M113.508 170.606L148.327 170.606" stroke="#000000" stroke-width="0.398" fill="none" /><path id="1279" transform="matrix(1 0 0 -1 0 841)" d="M163.998 170.606L198.817 170.606" stroke="#000000" stroke-width="0.398" fill="none" /><path id="1318" transform="matrix(1 0 0 -1 0 841)" d="M262.698 149.545L293.303 149.545" stroke="#000000" stroke-width="0.398" fill="none" /><path id="1390" transform="matrix(1 0 0 -1 0 841)" d="M154.033 93.811L188.712 93.811" stroke="#000000" stroke-width="0.398" fill="none" /></g></g></svg>