<svg xmlns="http://www.w3.org/2000/svg" xmlns:xlink="http://www.w3.org/1999/xlink" id="body_150" preserveAspectRatio="xMinYMin meet" viewBox="0 0 793 1121"><defs><clipPath id="1"><path id="" clip-rule="evenodd" transform="matrix(1 0 0 1 0 0)" d="M0 841L0 -0.8900146L0 -0.8900146L595.276 -0.8900146L595.276 -0.8900146L595.276 841L595.276 841L0 841z" /></clipPath></defs><g transform="matrix(1.333333 0 0 1.333333 0 0)"><g clip-path="url(#1)"><path id="20" transform="matrix(1 0 0 -1 0 841)" d="M85.039 766.564L510.236 766.564" stroke="#000000" stroke-width="0.498" fill="none" /><g transform="matrix(0.2625 0 0 0.2625 101.002 96.10699)"><g transform="matrix(1 0 0 1 0 0)"><image x="0" y="0" xlink:href="img_218.png" width="695" height="508" /></g></g><g transform="matrix(0.66 0 0 0.66 321.117 98.76105)"><g transform="matrix(1 0 0 1 0 0)"><image x="0" y="0" xlink:href="img_219.png" width="259" height="194" /></g></g><g transform="matrix(0.66 0 0 0.66 107.082 301.539)"><g transform="matrix(1 0 0 1 0 0)"><image x="0" y="0" xlink:href="img_220.png" width="258" height="192" /></g></g><g transform="matrix(0.66 0 0 0.66 321.117 300.879)"><g transform="matrix(1 0 0 1 0 0)"><image x="0" y="0" xlink:href="img_221.png" width="259" height="194" /></g></g><g transform="matrix(0.65625 0 0 0.65625 107.238 524.4955)"><g transform="matrix(1 0 0 1 0 0)"><image x="0" y="0" xlink:href="img_222.png" width="259" height="194" /></g></g><g transform="matrix(0.66 0 0 0.66 321.117 524.133)"><g transform="matrix(1 0 0 1 0 0)"><image x="0" y="0" xlink:href="img_223.png" width="259" height="194" /></g></g><path id="368" transform="matrix(1 0 0 -1 0 841)" d="M282.304 81.677L295.534 81.677L295.534 92.885L282.304 92.885z" stroke="none" fill="#FFF100" fill-rule="nonzero" /><path id="372" transform="matrix(1 0 0 -1 0 841)" d="M295.196 81.677L297.69 81.677L297.69 92.885L295.196 92.885z" stroke="none" fill="#FFF100" fill-rule="nonzero" /><path id="373" transform="matrix(1 0 0 -1 0 841)" d="M297.441 81.677L315.653 81.677L315.653 92.885L297.441 92.885z" stroke="none" fill="#FFF100" fill-rule="nonzero" /><path id="378" transform="matrix(1 0 0 -1 0 841)" d="M315.28 81.677L317.774 81.677L317.774 92.885L315.28 92.885z" stroke="none" fill="#FFF100" fill-rule="nonzero" /><path id="379" transform="matrix(1 0 0 -1 0 841)" d="M317.525 81.677L325.515 81.677L325.515 92.885L317.525 92.885z" stroke="none" fill="#FFF100" fill-rule="nonzero" /><path id="382" transform="matrix(1 0 0 -1 0 841)" d="M324.963 81.677L337.625 81.677L337.625 92.885L324.963 92.885z" stroke="none" fill="#FFF100" fill-rule="nonzero" /><path id="386" transform="matrix(1 0 0 -1 0 841)" d="M337.042 81.677L359.836 81.677L359.836 92.885L337.042 92.885z" stroke="none" fill="#FFF100" fill-rule="nonzero" /><path id="393" transform="matrix(1 0 0 -1 0 841)" d="M359.428 81.677L361.923 81.677L361.923 92.885L359.428 92.885z" stroke="none" fill="#FFF100" fill-rule="nonzero" /><path id="394" transform="matrix(1 0 0 -1 0 841)" d="M361.673 81.677L369.912 81.677L369.912 92.885L361.673 92.885z" stroke="none" fill="#FFF100" fill-rule="nonzero" /><path id="397" transform="matrix(1 0 0 -1 0 841)" d="M369.36 81.677L391.696 81.677L391.696 92.885L369.36 92.885z" stroke="none" fill="#FFF100" fill-rule="nonzero" /><path id="402" transform="matrix(1 0 0 -1 0 841)" d="M391.292 81.677L393.7859 81.677L393.7859 92.885L391.292 92.885z" stroke="none" fill="#FFF100" fill-rule="nonzero" /><path id="403" transform="matrix(1 0 0 -1 0 841)" d="M393.538 81.677L406.21 81.677L406.21 92.885L393.538 92.885z" stroke="none" fill="#FFF100" fill-rule="nonzero" /><path id="407" transform="matrix(1 0 0 -1 0 841)" d="M405.876 81.677L408.37 81.677L408.37 92.885L405.876 92.885z" stroke="none" fill="#FFF100" fill-rule="nonzero" /><path id="408" transform="matrix(1 0 0 -1 0 841)" d="M408.121 81.677L429.65 81.677L429.65 92.885L408.121 92.885z" stroke="none" fill="#FFF100" fill-rule="nonzero" /><path id="420" transform="matrix(1 0 0 -1 0 841)" d="M467.331 81.677L481.1089 81.677L481.1089 92.885L467.331 92.885z" stroke="none" fill="#FFF100" fill-rule="nonzero" /><path id="424" transform="matrix(1 0 0 -1 0 841)" d="M480.518 81.677L503.701 81.677L503.701 92.885L480.518 92.885z" stroke="none" fill="#FFF100" fill-rule="nonzero" /><path id="430" transform="matrix(1 0 0 -1 0 841)" d="M503.293 81.677L505.787 81.677L505.787 92.885L503.293 92.885z" stroke="none" fill="#FFF100" fill-rule="nonzero" /><path id="431" transform="matrix(1 0 0 -1 0 841)" d="M505.539 81.677L510.46 81.677L510.46 92.885L505.539 92.885z" stroke="none" fill="#FFF100" fill-rule="nonzero" /><g transform="matrix(0.2 0 0 0.2 249.239 774.845)"><g transform="matrix(1 0 0 1 0 0)"><image x="0" y="0" xlink:href="img_04.png" width="484" height="104" /></g></g></g></g></svg>