<svg xmlns="http://www.w3.org/2000/svg" xmlns:xlink="http://www.w3.org/1999/xlink" id="body_99" preserveAspectRatio="xMinYMin meet" viewBox="0 0 793 1121"><defs><clipPath id="1"><path id="" clip-rule="evenodd" transform="matrix(1 0 0 1 0 0)" d="M0 841L0 -0.8900146L0 -0.8900146L595.276 -0.8900146L595.276 -0.8900146L595.276 841L595.276 841L0 841z" /></clipPath></defs><g transform="matrix(1.333333 0 0 1.333333 0 0)"><g clip-path="url(#1)"><path id="25" transform="matrix(1 0 0 -1 0 841)" d="M85.039 766.564L510.236 766.564" stroke="#000000" stroke-width="0.498" fill="none" /><path id="51" transform="matrix(1 0 0 -1 0 841)" d="M206.847 748.268L229.718 748.268" stroke="#000000" stroke-width="0.398" fill="none" /><path id="58" transform="matrix(1 0 0 -1 0 841)" d="M201.342 736.722L246.602 736.722" stroke="#000000" stroke-width="0.398" fill="none" /><path id="61" transform="matrix(1 0 0 -1 0 841)" d="M202.537 726.744L214.711 726.744" stroke="#000000" stroke-width="0.398" fill="none" /><path id="75" transform="matrix(1 0 0 -1 0 841)" d="M276.667 736.722L288.841 736.722" stroke="#000000" stroke-width="0.398" fill="none" /><path id="79" transform="matrix(1 0 0 -1 0 841)" d="M84.79 705.106L97.462 705.106L97.462 716.314L84.79 716.314z" stroke="none" fill="#FFF100" fill-rule="nonzero" /><path id="82" transform="matrix(1 0 0 -1 0 841)" d="M96.965 705.106L103.002 705.106L103.002 716.314L96.965 716.314z" stroke="none" fill="#FFF100" fill-rule="nonzero" /><path id="85" transform="matrix(1 0 0 -1 0 841)" d="M102.504 705.106L117.946 705.106L117.946 716.314L102.504 716.314z" stroke="none" fill="#FFF100" fill-rule="nonzero" /><path id="89" transform="matrix(1 0 0 -1 0 841)" d="M117.696 705.106L120.187 705.106L120.187 716.314L117.696 716.314z" stroke="none" fill="#FFF100" fill-rule="nonzero" /><path id="90" transform="matrix(1 0 0 -1 0 841)" d="M119.938 705.106L142.563 705.106L142.563 716.314L119.938 716.314z" stroke="none" fill="#FFF100" fill-rule="nonzero" /><path id="96" transform="matrix(1 0 0 -1 0 841)" d="M142.314 705.106L144.805 705.106L144.805 716.314L142.314 716.314z" stroke="none" fill="#FFF100" fill-rule="nonzero" /><path id="97" transform="matrix(1 0 0 -1 0 841)" d="M144.555 705.106L153.352 705.106L153.352 716.314L144.555 716.314z" stroke="none" fill="#FFF100" fill-rule="nonzero" /><path id="100" transform="matrix(1 0 0 -1 0 841)" d="M153.103 705.106L155.594 705.106L155.594 716.314L153.103 716.314z" stroke="none" fill="#FFF100" fill-rule="nonzero" /><path id="101" transform="matrix(1 0 0 -1 0 841)" d="M155.345 705.106L182.413 705.106L182.413 716.314L155.345 716.314z" stroke="none" fill="#FFF100" fill-rule="nonzero" /><path id="106" transform="matrix(1 0 0 -1 0 841)" d="M182.164 705.106L184.655 705.106L184.655 716.314L182.164 716.314z" stroke="none" fill="#FFF100" fill-rule="nonzero" /><path id="107" transform="matrix(1 0 0 -1 0 841)" d="M184.406 705.106L191.549 705.106L191.549 716.314L184.406 716.314z" stroke="none" fill="#FFF100" fill-rule="nonzero" /><path id="110" transform="matrix(1 0 0 -1 0 841)" d="M191.3 705.106L193.791 705.106L193.791 716.314L191.3 716.314z" stroke="none" fill="#FFF100" fill-rule="nonzero" /><path id="111" transform="matrix(1 0 0 -1 0 841)" d="M193.541 705.106L207.877 705.106L207.877 716.314L193.541 716.314z" stroke="none" fill="#FFF100" fill-rule="nonzero" /><path id="115" transform="matrix(1 0 0 -1 0 841)" d="M207.379 705.106L222.821 705.106L222.821 716.314L207.379 716.314z" stroke="none" fill="#FFF100" fill-rule="nonzero" /><path id="120" transform="matrix(1 0 0 -1 0 841)" d="M222.572 705.106L225.063 705.106L225.063 716.314L222.572 716.314z" stroke="none" fill="#FFF100" fill-rule="nonzero" /><path id="121" transform="matrix(1 0 0 -1 0 841)" d="M224.814 705.106L234.717 705.106L234.717 716.314L224.814 716.314z" stroke="none" fill="#FFF100" fill-rule="nonzero" /><path id="124" transform="matrix(1 0 0 -1 0 841)" d="M234.218 705.106L258.507 705.106L258.507 716.314L234.218 716.314z" stroke="none" fill="#FFF100" fill-rule="nonzero" /><path id="130" transform="matrix(1 0 0 -1 0 841)" d="M258.258 705.106L260.749 705.106L260.749 716.314L258.258 716.314z" stroke="none" fill="#FFF100" fill-rule="nonzero" /><path id="131" transform="matrix(1 0 0 -1 0 841)" d="M260.5 705.106L265.979 705.106L265.979 716.314L260.5 716.314z" stroke="none" fill="#FFF100" fill-rule="nonzero" /><path id="133" transform="matrix(1 0 0 -1 0 841)" d="M265.73 705.106L268.221 705.106L268.221 716.314L265.73 716.314z" stroke="none" fill="#FFF100" fill-rule="nonzero" /><path id="134" transform="matrix(1 0 0 -1 0 841)" d="M267.972 705.106L276.221 705.106L276.221 716.314L267.972 716.314z" stroke="none" fill="#FFF100" fill-rule="nonzero" /><path id="137" transform="matrix(1 0 0 -1 0 841)" d="M275.971 705.106L278.462 705.106L278.462 716.314L275.971 716.314z" stroke="none" fill="#FFF100" fill-rule="nonzero" /><path id="138" transform="matrix(1 0 0 -1 0 841)" d="M278.213 705.106L291.164 705.106L291.164 716.314L278.213 716.314z" stroke="none" fill="#FFF100" fill-rule="nonzero" /><path id="1283" transform="matrix(1 0 0 -1 0 841)" d="M112.063 401.812L129.726 401.812L129.726 413.02L112.063 413.02z" stroke="none" fill="#FFF100" fill-rule="nonzero" /><path id="1287" transform="matrix(1 0 0 -1 0 841)" d="M129.821 401.812L132.617 401.812L132.617 413.02L129.821 413.02z" stroke="none" fill="#FFF100" fill-rule="nonzero" /><path id="1288" transform="matrix(1 0 0 -1 0 841)" d="M132.367 401.812L147.251 401.812L147.251 413.02L132.367 413.02z" stroke="none" fill="#FFF100" fill-rule="nonzero" /><path id="1292" transform="matrix(1 0 0 -1 0 841)" d="M147.29 401.812L150.086 401.812L150.086 413.02L147.29 413.02z" stroke="none" fill="#FFF100" fill-rule="nonzero" /><path id="1293" transform="matrix(1 0 0 -1 0 841)" d="M149.837 401.812L177.971 401.812L177.971 413.02L149.837 413.02z" stroke="none" fill="#FFF100" fill-rule="nonzero" /><path id="1298" transform="matrix(1 0 0 -1 0 841)" d="M178.287 401.812L181.083 401.812L181.083 413.02L178.287 413.02z" stroke="none" fill="#FFF100" fill-rule="nonzero" /><path id="1299" transform="matrix(1 0 0 -1 0 841)" d="M180.833 401.812L193.495 401.812L193.495 413.02L180.833 413.02z" stroke="none" fill="#FFF100" fill-rule="nonzero" /><path id="1303" transform="matrix(1 0 0 -1 0 841)" d="M193.49 401.812L196.286 401.812L196.286 413.02L193.49 413.02z" stroke="none" fill="#FFF100" fill-rule="nonzero" /><path id="1304" transform="matrix(1 0 0 -1 0 841)" d="M196.036 401.812L203.887 401.812L203.887 413.02L196.036 413.02z" stroke="none" fill="#FFF100" fill-rule="nonzero" /><path id="1307" transform="matrix(1 0 0 -1 0 841)" d="M203.544 401.812L232.665 401.812L232.665 413.02L203.544 413.02z" stroke="none" fill="#FFF100" fill-rule="nonzero" /><path id="1315" transform="matrix(1 0 0 -1 0 841)" d="M232.991 401.812L235.787 401.812L235.787 413.02L232.991 413.02z" stroke="none" fill="#FFF100" fill-rule="nonzero" /><path id="1316" transform="matrix(1 0 0 -1 0 841)" d="M235.537 401.812L243.776 401.812L243.776 413.02L235.537 413.02z" stroke="none" fill="#FFF100" fill-rule="nonzero" /><path id="1319" transform="matrix(1 0 0 -1 0 841)" d="M243.433 401.812L266.068 401.812L266.068 413.02L243.433 413.02z" stroke="none" fill="#FFF100" fill-rule="nonzero" /><path id="1326" transform="matrix(1 0 0 -1 0 841)" d="M266.261 401.812L269.057 401.812L269.057 413.02L266.261 413.02z" stroke="none" fill="#FFF100" fill-rule="nonzero" /><path id="1327" transform="matrix(1 0 0 -1 0 841)" d="M268.808 401.812L284.25 401.812L284.25 413.02L268.808 413.02z" stroke="none" fill="#FFF100" fill-rule="nonzero" /><path id="1332" transform="matrix(1 0 0 -1 0 841)" d="M284.299 401.812L287.095 401.812L287.095 413.02L284.299 413.02z" stroke="none" fill="#FFF100" fill-rule="nonzero" /><path id="1333" transform="matrix(1 0 0 -1 0 841)" d="M286.846 401.812L293.989 401.812L293.989 413.02L286.846 413.02z" stroke="none" fill="#FFF100" fill-rule="nonzero" /><path id="1336" transform="matrix(1 0 0 -1 0 841)" d="M293.873 401.812L296.669 401.812L296.669 413.02L293.873 413.02z" stroke="none" fill="#FFF100" fill-rule="nonzero" /><path id="1337" transform="matrix(1 0 0 -1 0 841)" d="M296.419 401.812L301.34 401.812L301.34 413.02L296.419 413.02z" stroke="none" fill="#FFF100" fill-rule="nonzero" /><path id="1339" transform="matrix(1 0 0 -1 0 841)" d="M301.18 401.812L303.976 401.812L303.976 413.02L301.18 413.02z" stroke="none" fill="#FFF100" fill-rule="nonzero" /><path id="1340" transform="matrix(1 0 0 -1 0 841)" d="M303.727 401.812L321.939 401.812L321.939 413.02L303.727 413.02z" stroke="none" fill="#FFF100" fill-rule="nonzero" /><path id="1345" transform="matrix(1 0 0 -1 0 841)" d="M322.044 401.812L324.84 401.812L324.84 413.02L322.044 413.02z" stroke="none" fill="#FFF100" fill-rule="nonzero" /><path id="1346" transform="matrix(1 0 0 -1 0 841)" d="M324.59 401.812L352.724 401.812L352.724 413.02L324.59 413.02z" stroke="none" fill="#FFF100" fill-rule="nonzero" /><path id="1351" transform="matrix(1 0 0 -1 0 841)" d="M353.04 401.812L355.836 401.812L355.836 413.02L353.04 413.02z" stroke="none" fill="#FFF100" fill-rule="nonzero" /><path id="1352" transform="matrix(1 0 0 -1 0 841)" d="M355.587 401.812L381.539 401.812L381.539 413.02L355.587 413.02z" stroke="none" fill="#FFF100" fill-rule="nonzero" /><path id="1358" transform="matrix(1 0 0 -1 0 841)" d="M381.799 401.812L384.595 401.812L384.595 413.02L381.799 413.02z" stroke="none" fill="#FFF100" fill-rule="nonzero" /><path id="1359" transform="matrix(1 0 0 -1 0 841)" d="M384.346 401.812L389.267 401.812L389.267 413.02L384.346 413.02z" stroke="none" fill="#FFF100" fill-rule="nonzero" /><path id="1361" transform="matrix(1 0 0 -1 0 841)" d="M389.107 401.812L391.903 401.812L391.903 413.02L389.107 413.02z" stroke="none" fill="#FFF100" fill-rule="nonzero" /><path id="1362" transform="matrix(1 0 0 -1 0 841)" d="M391.653 401.812L406.846 401.812L406.846 413.02L391.653 413.02z" stroke="none" fill="#FFF100" fill-rule="nonzero" /><path id="1366" transform="matrix(1 0 0 -1 0 841)" d="M406.896 401.812L409.692 401.812L409.692 413.02L406.896 413.02z" stroke="none" fill="#FFF100" fill-rule="nonzero" /><path id="1367" transform="matrix(1 0 0 -1 0 841)" d="M409.442 401.812L427.105 401.812L427.105 413.02L409.442 413.02z" stroke="none" fill="#FFF100" fill-rule="nonzero" /><path id="1371" transform="matrix(1 0 0 -1 0 841)" d="M427.2 401.812L429.996 401.812L429.996 413.02L427.2 413.02z" stroke="none" fill="#FFF100" fill-rule="nonzero" /><path id="1372" transform="matrix(1 0 0 -1 0 841)" d="M429.747 401.812L444.631 401.812L444.631 413.02L429.747 413.02z" stroke="none" fill="#FFF100" fill-rule="nonzero" /><path id="1376" transform="matrix(1 0 0 -1 0 841)" d="M444.669 401.812L447.465 401.812L447.465 413.02L444.669 413.02z" stroke="none" fill="#FFF100" fill-rule="nonzero" /><path id="1377" transform="matrix(1 0 0 -1 0 841)" d="M447.216 401.812L452.137 401.812L452.137 413.02L447.216 413.02z" stroke="none" fill="#FFF100" fill-rule="nonzero" /><path id="1379" transform="matrix(1 0 0 -1 0 841)" d="M451.977 401.812L454.773 401.812L454.773 413.02L451.977 413.02z" stroke="none" fill="#FFF100" fill-rule="nonzero" /><path id="1380" transform="matrix(1 0 0 -1 0 841)" d="M454.523 401.812L474.946 401.812L474.946 413.02L454.523 413.02z" stroke="none" fill="#FFF100" fill-rule="nonzero" /><path id="1386" transform="matrix(1 0 0 -1 0 841)" d="M475.096 401.812L477.892 401.812L477.892 413.02L475.096 413.02z" stroke="none" fill="#FFF100" fill-rule="nonzero" /><path id="1387" transform="matrix(1 0 0 -1 0 841)" d="M477.643 401.812L505.777 401.812L505.777 413.02L477.643 413.02z" stroke="none" fill="#FFF100" fill-rule="nonzero" /><path id="1392" transform="matrix(1 0 0 -1 0 841)" d="M112.063 386.868L138.015 386.868L138.015 398.076L112.063 398.076z" stroke="none" fill="#FFF100" fill-rule="nonzero" /><path id="1398" transform="matrix(1 0 0 -1 0 841)" d="M137.766 386.868L140.257 386.868L140.257 398.076L137.766 398.076z" stroke="none" fill="#FFF100" fill-rule="nonzero" /><path id="1399" transform="matrix(1 0 0 -1 0 841)" d="M140.008 386.868L144.929 386.868L144.929 398.076L140.008 398.076z" stroke="none" fill="#FFF100" fill-rule="nonzero" /><path id="1401" transform="matrix(1 0 0 -1 0 841)" d="M144.68 386.868L147.171 386.868L147.171 398.076L144.68 398.076z" stroke="none" fill="#FFF100" fill-rule="nonzero" /><path id="1402" transform="matrix(1 0 0 -1 0 841)" d="M146.922 386.868L165.134 386.868L165.134 398.076L146.922 398.076z" stroke="none" fill="#FFF100" fill-rule="nonzero" /><path id="1407" transform="matrix(1 0 0 -1 0 841)" d="M164.885 386.868L167.376 386.868L167.376 398.076L164.885 398.076z" stroke="none" fill="#FFF100" fill-rule="nonzero" /><path id="1408" transform="matrix(1 0 0 -1 0 841)" d="M167.126 386.868L184.789 386.868L184.789 398.076L167.126 398.076z" stroke="none" fill="#FFF100" fill-rule="nonzero" /><path id="1589" transform="matrix(1 0 0 -1 0 841)" d="M86.235 311.769L403.891 311.769" stroke="#000000" stroke-width="0.398" fill="none" /><path id="1720" transform="matrix(1 0 0 -1 0 841)" d="M152.868 283.494L348.1 283.494" stroke="#000000" stroke-width="0.398" fill="none" /><path id="2299" transform="matrix(1 0 0 -1 0 841)" d="M165.064 102.474L317.675 102.474" stroke="#000000" stroke-width="0.398" fill="none" /><path id="2315" transform="matrix(1 0 0 -1 0 841)" d="M347.739 102.474L356.748 102.474" stroke="#000000" stroke-width="0.398" fill="none" /></g></g></svg>