<svg xmlns="http://www.w3.org/2000/svg" xmlns:xlink="http://www.w3.org/1999/xlink" id="body_49" preserveAspectRatio="xMinYMin meet" viewBox="0 0 793 1121"><defs><clipPath id="1"><path id="" clip-rule="evenodd" transform="matrix(1 0 0 1 0 0)" d="M0 841L0 -0.8900146L0 -0.8900146L595.276 -0.8900146L595.276 -0.8900146L595.276 841L595.276 841L0 841z" /></clipPath></defs><g transform="matrix(1.333333 0 0 1.333333 0 0)"><g clip-path="url(#1)"><path id="45" transform="matrix(1 0 0 -1 0 841)" d="M85.039 766.564L510.236 766.564" stroke="#000000" stroke-width="0.498" fill="none" /><path id="103" transform="matrix(1 0 0 -1 0 841)" d="M182.485 730.079L412.791 730.079L412.791 731.78L182.485 731.78z" stroke="none" fill="#000000" fill-rule="nonzero" /><path id="104" transform="matrix(1 0 0 -1 0 841)" d="M182.485 726.385L412.791 726.385L412.791 728.086L182.485 728.086z" stroke="none" fill="#000000" fill-rule="nonzero" /><path id="121" transform="matrix(1 0 0 -1 0 841)" d="M182.485 707.444L412.791 707.444L412.791 709.145L182.485 709.145z" stroke="none" fill="#000000" fill-rule="nonzero" /><path id="153" transform="matrix(1 0 0 -1 0 841)" d="M182.485 689.484L412.791 689.484L412.791 691.185L182.485 691.185z" stroke="none" fill="#000000" fill-rule="nonzero" /><path id="181" transform="matrix(1 0 0 -1 0 841)" d="M182.485 671.524L412.791 671.524L412.791 673.225L182.485 673.225z" stroke="none" fill="#000000" fill-rule="nonzero" /><path id="182" transform="matrix(1 0 0 -1 0 841)" d="M182.485 667.831L412.791 667.831L412.791 669.532L182.485 669.532z" stroke="none" fill="#000000" fill-rule="nonzero" /><path id="481" transform="matrix(1 0 0 -1 0 841)" d="M137.508 570.86L216.419 570.86" stroke="#000000" stroke-width="0.398" fill="none" /><path id="493" transform="matrix(1 0 0 -1 0 841)" d="M246.483 570.86L255.492 570.86" stroke="#000000" stroke-width="0.398" fill="none" /><path id="503" transform="matrix(1 0 0 -1 0 841)" d="M265.632 570.86L288.125 570.86" stroke="#000000" stroke-width="0.398" fill="none" /><path id="511" transform="matrix(1 0 0 -1 0 841)" d="M321.016 570.86L333.19 570.86" stroke="#000000" stroke-width="0.398" fill="none" /><path id="513" transform="matrix(1 0 0 -1 0 841)" d="M301.489 582.63L337.773 582.63" stroke="#000000" stroke-width="0.398" fill="none" /><path id="514" transform="matrix(1 0 0 -1 0 841)" d="M301.688 558.237L301.688 582.63" stroke="#000000" stroke-width="0.398" fill="none" /><path id="515" transform="matrix(1 0 0 -1 0 841)" d="M337.573 558.237L337.573 582.63" stroke="#000000" stroke-width="0.398" fill="none" /><path id="516" transform="matrix(1 0 0 -1 0 841)" d="M301.489 558.237L337.773 558.237" stroke="#000000" stroke-width="0.398" fill="none" /><g transform="matrix(0.2 0 0 0.2 249.239 774.845)"><g transform="matrix(1 0 0 1 0 0)"><image x="0" y="0" xlink:href="img_04.png" width="484" height="104" /></g></g></g></g></svg>