<svg xmlns="http://www.w3.org/2000/svg" xmlns:xlink="http://www.w3.org/1999/xlink" id="body_145" preserveAspectRatio="xMinYMin meet" viewBox="0 0 793 1121"><defs><clipPath id="1"><path id="" clip-rule="evenodd" transform="matrix(1 0 0 1 0 0)" d="M0 841L0 -0.8900146L0 -0.8900146L595.276 -0.8900146L595.276 -0.8900146L595.276 841L595.276 841L0 841z" /></clipPath></defs><g transform="matrix(1.333333 0 0 1.333333 0 0)"><g clip-path="url(#1)"><path id="43" transform="matrix(1 0 0 -1 0 841)" d="M85.039 766.564L510.236 766.564" stroke="#000000" stroke-width="0.498" fill="none" /><g transform="matrix(0.63275 0 0 0.87369 85.039 84.14929)"><g transform="matrix(1 0 0 1 0 0)"><image x="0" y="0" xlink:href="img_252.png" width="168" height="146" /></g></g><g transform="matrix(0.5873 0 0 0.78746 85.039 241.0505)"><g transform="matrix(1 0 0 1 0 0)"><image x="0" y="0" xlink:href="img_253.png" width="362" height="162" /></g></g><path id="288" transform="matrix(1 0 0 -1 0 841)" d="M85.039 414.551L587.537 414.551" stroke="#000000" stroke-width="0.283" fill="none" /><path id="289" transform="matrix(1 0 0 -1 0 841)" d="M85.181 402.454L85.181 414.409" stroke="#000000" stroke-width="0.283" fill="none" /><path id="334" transform="matrix(1 0 0 -1 0 841)" d="M587.395 402.454L587.395 414.409" stroke="#000000" stroke-width="0.283" fill="none" /><path id="335" transform="matrix(1 0 0 -1 0 841)" d="M85.039 402.312L587.537 402.312" stroke="#000000" stroke-width="0.283" fill="none" /><path id="336" transform="matrix(1 0 0 -1 0 841)" d="M85.181 345.383L85.181 402.17" stroke="#000000" stroke-width="0.283" fill="none" /><path id="364" transform="matrix(1 0 0 -1 0 841)" d="M214.791 345.383L214.791 402.17" stroke="#000000" stroke-width="0.283" fill="none" /><path id="435" transform="matrix(1 0 0 -1 0 841)" d="M401.093 345.383L401.093 402.17" stroke="#000000" stroke-width="0.283" fill="none" /><path id="490" transform="matrix(1 0 0 -1 0 841)" d="M587.395 345.383L587.395 402.17" stroke="#000000" stroke-width="0.283" fill="none" /><path id="491" transform="matrix(1 0 0 -1 0 841)" d="M85.181 318.484L85.181 345.383" stroke="#000000" stroke-width="0.283" fill="none" /><path id="494" transform="matrix(1 0 0 -1 0 841)" d="M214.791 318.484L214.791 345.383" stroke="#000000" stroke-width="0.283" fill="none" /><path id="514" transform="matrix(1 0 0 -1 0 841)" d="M401.093 318.484L401.093 345.383" stroke="#000000" stroke-width="0.283" fill="none" /><path id="531" transform="matrix(1 0 0 -1 0 841)" d="M587.395 318.484L587.395 345.383" stroke="#000000" stroke-width="0.283" fill="none" /><path id="532" transform="matrix(1 0 0 -1 0 841)" d="M85.181 291.405L85.181 318.484" stroke="#000000" stroke-width="0.283" fill="none" /><path id="564" transform="matrix(1 0 0 -1 0 841)" d="M214.791 291.405L214.791 318.484" stroke="#000000" stroke-width="0.283" fill="none" /><path id="572" transform="matrix(1 0 0 -1 0 841)" d="M401.093 291.405L401.093 318.484" stroke="#000000" stroke-width="0.283" fill="none" /><path id="595" transform="matrix(1 0 0 -1 0 841)" d="M587.395 291.405L587.395 318.484" stroke="#000000" stroke-width="0.283" fill="none" /><path id="596" transform="matrix(1 0 0 -1 0 841)" d="M85.181 264.506L85.181 291.405" stroke="#000000" stroke-width="0.283" fill="none" /><path id="610" transform="matrix(1 0 0 -1 0 841)" d="M214.791 264.506L214.791 291.405" stroke="#000000" stroke-width="0.283" fill="none" /><path id="669" transform="matrix(1 0 0 -1 0 841)" d="M401.093 264.506L401.093 291.405" stroke="#000000" stroke-width="0.283" fill="none" /><path id="690" transform="matrix(1 0 0 -1 0 841)" d="M587.395 264.506L587.395 291.405" stroke="#000000" stroke-width="0.283" fill="none" /><path id="691" transform="matrix(1 0 0 -1 0 841)" d="M85.039 264.364L587.537 264.364" stroke="#000000" stroke-width="0.283" fill="none" /><path id="692" transform="matrix(1 0 0 -1 0 841)" d="M85.181 222.379L85.181 264.222" stroke="#000000" stroke-width="0.283" fill="none" /><path id="707" transform="matrix(1 0 0 -1 0 841)" d="M214.791 222.379L214.791 264.222" stroke="#000000" stroke-width="0.283" fill="none" /><path id="742" transform="matrix(1 0 0 -1 0 841)" d="M401.093 222.379L401.093 264.222" stroke="#000000" stroke-width="0.283" fill="none" /><path id="754" transform="matrix(1 0 0 -1 0 841)" d="M587.395 222.379L587.395 264.222" stroke="#000000" stroke-width="0.283" fill="none" /><path id="755" transform="matrix(1 0 0 -1 0 841)" d="M85.039 222.237L587.537 222.237" stroke="#000000" stroke-width="0.283" fill="none" /><path id="756" transform="matrix(1 0 0 -1 0 841)" d="M85.181 195.197L85.181 222.096" stroke="#000000" stroke-width="0.283" fill="none" /><path id="796" transform="matrix(1 0 0 -1 0 841)" d="M214.791 195.197L214.791 222.096" stroke="#000000" stroke-width="0.283" fill="none" /><path id="810" transform="matrix(1 0 0 -1 0 841)" d="M401.093 195.197L401.093 222.096" stroke="#000000" stroke-width="0.283" fill="none" /><path id="830" transform="matrix(1 0 0 -1 0 841)" d="M587.395 195.197L587.395 222.096" stroke="#000000" stroke-width="0.283" fill="none" /><path id="831" transform="matrix(1 0 0 -1 0 841)" d="M85.039 195.055L587.537 195.055" stroke="#000000" stroke-width="0.283" fill="none" /><path id="832" transform="matrix(1 0 0 -1 0 841)" d="M85.181 168.014L85.181 194.913" stroke="#000000" stroke-width="0.283" fill="none" /><path id="856" transform="matrix(1 0 0 -1 0 841)" d="M214.791 168.014L214.791 194.913" stroke="#000000" stroke-width="0.283" fill="none" /><path id="863" transform="matrix(1 0 0 -1 0 841)" d="M401.093 168.014L401.093 194.913" stroke="#000000" stroke-width="0.283" fill="none" /><path id="929" transform="matrix(1 0 0 -1 0 841)" d="M587.395 168.014L587.395 194.913" stroke="#000000" stroke-width="0.283" fill="none" /><path id="930" transform="matrix(1 0 0 -1 0 841)" d="M85.039 167.872L587.537 167.872" stroke="#000000" stroke-width="0.283" fill="none" /><path id="931" transform="matrix(1 0 0 -1 0 841)" d="M85.181 140.831L85.181 167.73" stroke="#000000" stroke-width="0.283" fill="none" /><path id="962" transform="matrix(1 0 0 -1 0 841)" d="M214.791 140.831L214.791 167.73" stroke="#000000" stroke-width="0.283" fill="none" /><path id="986" transform="matrix(1 0 0 -1 0 841)" d="M401.093 140.831L401.093 167.73" stroke="#000000" stroke-width="0.283" fill="none" /><path id="996" transform="matrix(1 0 0 -1 0 841)" d="M587.395 140.831L587.395 167.73" stroke="#000000" stroke-width="0.283" fill="none" /><path id="997" transform="matrix(1 0 0 -1 0 841)" d="M85.039 140.69L587.537 140.69" stroke="#000000" stroke-width="0.283" fill="none" /></g></g></svg>