<svg xmlns="http://www.w3.org/2000/svg" xmlns:xlink="http://www.w3.org/1999/xlink" id="body_249" preserveAspectRatio="xMinYMin meet" viewBox="0 0 793 1121"><defs><clipPath id="1"><path id="" clip-rule="evenodd" transform="matrix(1 0 0 1 0 0)" d="M0 841L0 -0.8900146L0 -0.8900146L595.276 -0.8900146L595.276 -0.8900146L595.276 841L595.276 841L0 841z" /></clipPath></defs><g transform="matrix(1.333333 0 0 1.333333 0 0)"><g clip-path="url(#1)"><path id="36" transform="matrix(1 0 0 -1 0 841)" d="M85.039 766.564L510.236 766.564" stroke="#000000" stroke-width="0.498" fill="none" /><path id="276" transform="matrix(1 0 0 -1 0 841)" d="M112.063 667.541L123.63 667.541L123.63 678.749L112.063 678.749z" stroke="none" fill="#FFF100" fill-rule="nonzero" /><path id="279" transform="matrix(1 0 0 -1 0 841)" d="M123.132 667.541L135.804 667.541L135.804 678.749L123.132 678.749z" stroke="none" fill="#FFF100" fill-rule="nonzero" /><path id="282" transform="matrix(1 0 0 -1 0 841)" d="M135.306 667.541L147.978 667.541L147.978 678.749L135.306 678.749z" stroke="none" fill="#FFF100" fill-rule="nonzero" /><path id="286" transform="matrix(1 0 0 -1 0 841)" d="M147.729 667.541L150.22 667.541L150.22 678.749L147.729 678.749z" stroke="none" fill="#FFF100" fill-rule="nonzero" /><path id="287" transform="matrix(1 0 0 -1 0 841)" d="M149.971 667.541L169.288 667.541L169.288 678.749L149.971 678.749z" stroke="none" fill="#FFF100" fill-rule="nonzero" /><path id="292" transform="matrix(1 0 0 -1 0 841)" d="M168.79 667.541L187.001 667.541L187.001 678.749L168.79 678.749z" stroke="none" fill="#FFF100" fill-rule="nonzero" /><path id="637" transform="matrix(1 0 0 -1 0 841)" d="M160.292 551.51L185.199 551.51" stroke="#000000" stroke-width="0.398" fill="none" /><path id="648" transform="matrix(1 0 0 -1 0 841)" d="M198.563 558.872L223.041 558.872" stroke="#000000" stroke-width="0.398" fill="none" /><path id="649" transform="matrix(1 0 0 -1 0 841)" d="M198.762 545.677L198.762 558.872" stroke="#000000" stroke-width="0.398" fill="none" /><path id="650" transform="matrix(1 0 0 -1 0 841)" d="M222.841 545.677L222.841 558.872" stroke="#000000" stroke-width="0.398" fill="none" /><path id="651" transform="matrix(1 0 0 -1 0 841)" d="M198.563 545.677L223.041 545.677" stroke="#000000" stroke-width="0.398" fill="none" /><path id="1393" transform="matrix(1 0 0 -1 0 841)" d="M137.791 329.077L331.771 329.077" stroke="#000000" stroke-width="0.398" fill="none" /><path id="1409" transform="matrix(1 0 0 -1 0 841)" d="M361.835 329.077L374.009 329.077" stroke="#000000" stroke-width="0.398" fill="none" /><path id="1977" transform="matrix(1 0 0 -1 0 841)" d="M84.79 159.819L96.357 159.819L96.357 171.027L84.79 171.027z" stroke="none" fill="#FFF100" fill-rule="nonzero" /><path id="1980" transform="matrix(1 0 0 -1 0 841)" d="M95.859 159.819L108.531 159.819L108.531 171.027L95.859 171.027z" stroke="none" fill="#FFF100" fill-rule="nonzero" /><path id="1983" transform="matrix(1 0 0 -1 0 841)" d="M108.033 159.819L120.705 159.819L120.705 171.027L108.033 171.027z" stroke="none" fill="#FFF100" fill-rule="nonzero" /><path id="1987" transform="matrix(1 0 0 -1 0 841)" d="M120.456 159.819L122.947 159.819L122.947 171.027L120.456 171.027z" stroke="none" fill="#FFF100" fill-rule="nonzero" /><path id="1988" transform="matrix(1 0 0 -1 0 841)" d="M122.698 159.819L142.015 159.819L142.015 171.027L122.698 171.027z" stroke="none" fill="#FFF100" fill-rule="nonzero" /><path id="1993" transform="matrix(1 0 0 -1 0 841)" d="M141.517 159.819L159.728 159.819L159.728 171.027L141.517 171.027z" stroke="none" fill="#FFF100" fill-rule="nonzero" /><path id="2130" transform="matrix(1 0 0 -1 0 841)" d="M135.176 97.123L175.534 97.123" stroke="#000000" stroke-width="0.398" fill="none" /><path id="2146" transform="matrix(1 0 0 -1 0 841)" d="M205.6 97.123L217.774 97.123" stroke="#000000" stroke-width="0.398" fill="none" /><path id="2155" transform="matrix(1 0 0 -1 0 841)" d="M231.138 105.238L268.308 105.238" stroke="#000000" stroke-width="0.398" fill="none" /><path id="2156" transform="matrix(1 0 0 -1 0 841)" d="M231.337 88.954L231.337 105.238" stroke="#000000" stroke-width="0.398" fill="none" /><path id="2157" transform="matrix(1 0 0 -1 0 841)" d="M268.109 88.954L268.109 105.238" stroke="#000000" stroke-width="0.398" fill="none" /><path id="2158" transform="matrix(1 0 0 -1 0 841)" d="M231.138 88.954L268.308 88.954" stroke="#000000" stroke-width="0.398" fill="none" /></g></g></svg>