<svg xmlns="http://www.w3.org/2000/svg" xmlns:xlink="http://www.w3.org/1999/xlink" id="body_228" preserveAspectRatio="xMinYMin meet" viewBox="0 0 793 1121"><defs><clipPath id="1"><path id="" clip-rule="evenodd" transform="matrix(1 0 0 1 0 0)" d="M0 841L0 -0.8900146L0 -0.8900146L595.276 -0.8900146L595.276 -0.8900146L595.276 841L595.276 841L0 841z" /></clipPath></defs><g transform="matrix(1.333333 0 0 1.333333 0 0)"><g clip-path="url(#1)"><path id="23" transform="matrix(1 0 0 -1 0 841)" d="M85.039 766.564L510.236 766.564" stroke="#000000" stroke-width="0.498" fill="none" /><path id="375" transform="matrix(1 0 0 -1 0 841)" d="M130.18 618.414L235.554 618.414" stroke="#000000" stroke-width="0.398" fill="none" /><path id="434" transform="matrix(1 0 0 -1 0 841)" d="M296.325 618.414L401.699 618.414" stroke="#000000" stroke-width="0.398" fill="none" /><path id="514" transform="matrix(1 0 0 -1 0 841)" d="M250.252 584.672L355.626 584.672" stroke="#000000" stroke-width="0.398" fill="none" /><path id="581" transform="matrix(1 0 0 -1 0 841)" d="M365.766 584.672L464.923 584.672" stroke="#000000" stroke-width="0.398" fill="none" /><path id="645" transform="matrix(1 0 0 -1 0 841)" d="M94.994 565.494L387.644 565.494" stroke="#000000" stroke-width="0.398" fill="none" /><path id="646" transform="matrix(1 0 0 -1 0 841)" d="M95.193 550.157L95.193 565.494" stroke="#000000" stroke-width="0.398" fill="none" /><path id="647" transform="matrix(1 0 0 -1 0 841)" d="M387.444 550.157L387.444 565.494" stroke="#000000" stroke-width="0.398" fill="none" /><path id="648" transform="matrix(1 0 0 -1 0 841)" d="M94.994 550.157L387.644 550.157" stroke="#000000" stroke-width="0.398" fill="none" /><g transform="matrix(0.375 0 0 0.375 156.451 329.767)"><g transform="matrix(1 0 0 1 0 0)"><image x="0" y="0" xlink:href="img_380.png" width="753" height="727" /></g></g><path id="820" transform="matrix(1 0 0 -1 0 841)" d="M138.653 107.1734L98.96808 127.0159L167.0057 147.279L206.686 136.9379z" stroke="none" fill="#CCCCCC" fill-rule="nonzero" /><path id="830" transform="matrix(1 0 0 -1 0 841)" d="M98.96808 127.0159L98.96808 172.3709L167.0066 181.0562L167.0057 147.279z" stroke="none" fill="#BFBFBF" fill-rule="nonzero" /><path id="839" transform="matrix(1 0 0 -1 0 841)" d="M167.0066 181.0562L167.0057 147.279L206.686 136.9379L206.686 176.6232z" stroke="none" fill="#F2F2F2" fill-rule="nonzero" fill-opacity="0.2" /><path id="848" transform="matrix(1 0 0 -1 0 841)" d="M138.653 163.867L138.653 107.1734L98.96808 127.0159L98.96808 172.3709z" stroke="none" fill="#F2F2F2" fill-rule="nonzero" fill-opacity="0.4980392" /><path id="857" transform="matrix(1 0 0 -1 0 841)" d="M138.653 163.867L98.96808 172.3709L167.0066 181.0562L206.686 176.6232z" stroke="none" fill="#CCCCCC" fill-rule="nonzero" fill-opacity="0.2" /><path id="869" transform="matrix(1 0 0 -1 0 841)" d="M167.0066 181.0562L167.0057 147.279" stroke="#000000" stroke-width="0.79701" stroke-dasharray="3.750053,3.750053" fill="none" /><path id="870" transform="matrix(1 0 0 -1 0 841)" d="M98.96808 127.0159L167.0057 147.279" stroke="#000000" stroke-width="0.79701" stroke-dasharray="3.750053,3.750053" fill="none" /><path id="871" transform="matrix(1 0 0 -1 0 841)" d="M206.686 136.9379L167.0057 147.279" stroke="#000000" stroke-width="0.79701" stroke-dasharray="3.750053,3.750053" fill="none" /><path id="880" transform="matrix(1 0 0 -1 0 841)" d="M138.653 163.867L138.653 107.1734" stroke="#000000" stroke-width="0.79701" fill="none" /><path id="881" transform="matrix(1 0 0 -1 0 841)" d="M87.62868 174.2404L87.62868 127.4146" stroke="#000000" stroke-width="0.3985" fill="none" /><path id="882" transform="matrix(1 0 0 -1 0 841)" d="M85.23764 172.3674C 86.67229 172.746 87.34972 173.5897 87.62868 174.4397C 87.90763 173.5897 88.58507 172.746 90.01971 172.3674" stroke="#000000" stroke-width="0.3985" stroke-linecap="round" fill="none" /><path id="883" transform="matrix(1 0 0 -1 0 841)" d="M90.01971 129.2876C 88.58507 128.909 87.90763 128.0653 87.62868 127.2153C 87.34972 128.0653 86.67229 128.909 85.23764 129.2876" stroke="#000000" stroke-width="0.3985" stroke-linecap="round" fill="none" /><path id="894" transform="matrix(1 0 0 -1 0 841)" d="M93.6488 123.9927L129.798 104.5275" stroke="#000000" stroke-width="0.3985" fill="none" /><path id="895" transform="matrix(1 0 0 -1 0 841)" d="M94.16428 120.9997C 94.51111 122.4422 94.08949 123.4386 93.47339 124.0872C 94.35398 123.9298 95.41792 124.1263 96.43137 125.2099" stroke="#000000" stroke-width="0.3984783" stroke-linecap="round" fill="none" /><path id="896" transform="matrix(1 0 0 -1 0 841)" d="M129.2825 107.5205C 128.9357 106.078 129.3573 105.0816 129.9734 104.433C 129.0928 104.5904 128.0289 104.3939 127.0155 103.3103" stroke="#000000" stroke-width="0.3984783" stroke-linecap="round" fill="none" /><path id="907" transform="matrix(1 0 0 -1 0 841)" d="M211.9909 131.6727L144.6862 101.6664" stroke="#000000" stroke-width="0.3985" fill="none" /><path id="908" transform="matrix(1 0 0 -1 0 841)" d="M209.3067 133.0938C 210.2366 131.9377 211.283 131.6625 212.1729 131.7538C 211.5102 131.153 211.0155 130.1908 211.2539 128.7263" stroke="#000000" stroke-width="0.3984862" stroke-linecap="round" fill="none" /><path id="909" transform="matrix(1 0 0 -1 0 841)" d="M147.3704 100.2453C 146.4405 101.4014 145.3941 101.6766 144.5042 101.5853C 145.1669 102.1861 145.6616 103.1484 145.4232 104.6128" stroke="#000000" stroke-width="0.3984862" stroke-linecap="round" fill="none" /><path id="919" transform="matrix(1 0 0 -1 0 841)" d="M98.96808 127.0159L98.96808 172.3709" stroke="#000000" stroke-width="0.79701" fill="none" /><path id="920" transform="matrix(1 0 0 -1 0 841)" d="M206.686 136.9379L206.686 176.6232" stroke="#000000" stroke-width="0.79701" fill="none" /><path id="921" transform="matrix(1 0 0 -1 0 841)" d="M138.653 163.867L98.96808 172.3709" stroke="#000000" stroke-width="0.79701" fill="none" /><path id="922" transform="matrix(1 0 0 -1 0 841)" d="M138.653 163.867L206.686 176.6232" stroke="#000000" stroke-width="0.79701" fill="none" /><path id="923" transform="matrix(1 0 0 -1 0 841)" d="M138.653 107.1734L98.96808 127.0159" stroke="#000000" stroke-width="0.79701" fill="none" /><path id="924" transform="matrix(1 0 0 -1 0 841)" d="M138.653 107.1734L206.686 136.9379" stroke="#000000" stroke-width="0.79701" fill="none" /><path id="925" transform="matrix(1 0 0 -1 0 841)" d="M98.96808 172.3709L167.0066 181.0562" stroke="#000000" stroke-width="0.79701" fill="none" /><path id="926" transform="matrix(1 0 0 -1 0 841)" d="M206.686 176.6232L167.0066 181.0562" stroke="#000000" stroke-width="0.79701" fill="none" /></g></g></svg>