<svg xmlns="http://www.w3.org/2000/svg" xmlns:xlink="http://www.w3.org/1999/xlink" id="body_262" preserveAspectRatio="xMinYMin meet" viewBox="0 0 793 1121"><defs><clipPath id="1"><path id="" clip-rule="evenodd" transform="matrix(1 0 0 1 0 0)" d="M0 841L0 -0.8900146L0 -0.8900146L595.276 -0.8900146L595.276 -0.8900146L595.276 841L595.276 841L0 841z" /></clipPath></defs><g transform="matrix(1.333333 0 0 1.333333 0 0)"><g clip-path="url(#1)"><path id="36" transform="matrix(1 0 0 -1 0 841)" d="M85.039 766.564L510.236 766.564" stroke="#000000" stroke-width="0.498" fill="none" /><path id="276" transform="matrix(1 0 0 -1 0 841)" d="M112.063 667.774L123.63 667.774L123.63 678.982L112.063 678.982z" stroke="none" fill="#FFF100" fill-rule="nonzero" /><path id="279" transform="matrix(1 0 0 -1 0 841)" d="M123.132 667.774L135.804 667.774L135.804 678.982L123.132 678.982z" stroke="none" fill="#FFF100" fill-rule="nonzero" /><path id="282" transform="matrix(1 0 0 -1 0 841)" d="M135.306 667.774L147.978 667.774L147.978 678.982L135.306 678.982z" stroke="none" fill="#FFF100" fill-rule="nonzero" /><path id="286" transform="matrix(1 0 0 -1 0 841)" d="M147.729 667.774L150.22 667.774L150.22 678.982L147.729 678.982z" stroke="none" fill="#FFF100" fill-rule="nonzero" /><path id="287" transform="matrix(1 0 0 -1 0 841)" d="M149.971 667.774L169.288 667.774L169.288 678.982L149.971 678.982z" stroke="none" fill="#FFF100" fill-rule="nonzero" /><path id="292" transform="matrix(1 0 0 -1 0 841)" d="M168.79 667.774L187.001 667.774L187.001 678.982L168.79 678.982z" stroke="none" fill="#FFF100" fill-rule="nonzero" /><path id="637" transform="matrix(1 0 0 -1 0 841)" d="M160.292 551.976L185.199 551.976" stroke="#000000" stroke-width="0.398" fill="none" /><path id="648" transform="matrix(1 0 0 -1 0 841)" d="M198.563 559.339L223.041 559.339" stroke="#000000" stroke-width="0.398" fill="none" /><path id="649" transform="matrix(1 0 0 -1 0 841)" d="M198.762 546.143L198.762 559.338" stroke="#000000" stroke-width="0.398" fill="none" /><path id="650" transform="matrix(1 0 0 -1 0 841)" d="M222.841 546.143L222.841 559.338" stroke="#000000" stroke-width="0.398" fill="none" /><path id="651" transform="matrix(1 0 0 -1 0 841)" d="M198.563 546.143L223.041 546.143" stroke="#000000" stroke-width="0.398" fill="none" /><path id="1393" transform="matrix(1 0 0 -1 0 841)" d="M137.791 335.721L331.771 335.721" stroke="#000000" stroke-width="0.398" fill="none" /><path id="1409" transform="matrix(1 0 0 -1 0 841)" d="M361.835 335.721L374.009 335.721" stroke="#000000" stroke-width="0.398" fill="none" /><path id="1977" transform="matrix(1 0 0 -1 0 841)" d="M84.79 169.26L96.357 169.26L96.357 180.468L84.79 180.468z" stroke="none" fill="#FFF100" fill-rule="nonzero" /><path id="1980" transform="matrix(1 0 0 -1 0 841)" d="M95.859 169.26L108.531 169.26L108.531 180.468L95.859 180.468z" stroke="none" fill="#FFF100" fill-rule="nonzero" /><path id="1983" transform="matrix(1 0 0 -1 0 841)" d="M108.033 169.26L120.705 169.26L120.705 180.468L108.033 180.468z" stroke="none" fill="#FFF100" fill-rule="nonzero" /><path id="1987" transform="matrix(1 0 0 -1 0 841)" d="M120.456 169.26L122.947 169.26L122.947 180.468L120.456 180.468z" stroke="none" fill="#FFF100" fill-rule="nonzero" /><path id="1988" transform="matrix(1 0 0 -1 0 841)" d="M122.698 169.26L142.015 169.26L142.015 180.468L122.698 180.468z" stroke="none" fill="#FFF100" fill-rule="nonzero" /><path id="1993" transform="matrix(1 0 0 -1 0 841)" d="M141.517 169.26L159.728 169.26L159.728 180.468L141.517 180.468z" stroke="none" fill="#FFF100" fill-rule="nonzero" /><path id="2130" transform="matrix(1 0 0 -1 0 841)" d="M135.176 106.798L175.534 106.798" stroke="#000000" stroke-width="0.398" fill="none" /><path id="2146" transform="matrix(1 0 0 -1 0 841)" d="M205.6 106.798L217.774 106.798" stroke="#000000" stroke-width="0.398" fill="none" /><path id="2155" transform="matrix(1 0 0 -1 0 841)" d="M231.138 114.912L268.308 114.912" stroke="#000000" stroke-width="0.398" fill="none" /><path id="2156" transform="matrix(1 0 0 -1 0 841)" d="M231.337 98.629L231.337 114.913" stroke="#000000" stroke-width="0.398" fill="none" /><path id="2157" transform="matrix(1 0 0 -1 0 841)" d="M268.109 98.629L268.109 114.913" stroke="#000000" stroke-width="0.398" fill="none" /><path id="2158" transform="matrix(1 0 0 -1 0 841)" d="M231.138 98.629L268.308 98.629" stroke="#000000" stroke-width="0.398" fill="none" /></g></g></svg>