<svg xmlns="http://www.w3.org/2000/svg" xmlns:xlink="http://www.w3.org/1999/xlink" id="body_426" preserveAspectRatio="xMinYMin meet" viewBox="0 0 793 1121"><defs><clipPath id="1"><path id="" clip-rule="evenodd" transform="matrix(1 0 0 1 0 0)" d="M0 841L0 -0.8900146L0 -0.8900146L595.276 -0.8900146L595.276 -0.8900146L595.276 841L595.276 841L0 841z" /></clipPath></defs><g transform="matrix(1.333333 0 0 1.333333 0 0)"><g clip-path="url(#1)"><path id="31" transform="matrix(1 0 0 -1 0 841)" d="M85.039 766.564L510.236 766.564" stroke="#000000" stroke-width="0.498" fill="none" /><path id="135" transform="matrix(1 0 0 -1 0 841)" d="M270.392 703.55L325.241 703.55" stroke="#000000" stroke-width="0.398" fill="none" /><path id="153" transform="matrix(1 0 0 -1 0 841)" d="M339.801 703.55L366.002 703.55" stroke="#000000" stroke-width="0.398" fill="none" /><path id="280" transform="matrix(1 0 0 -1 0 841)" d="M428.949 681.777L468.879 681.777" stroke="#000000" stroke-width="0.398" fill="none" /><path id="281" transform="matrix(1 0 0 -1 0 841)" d="M429.149 665.493L429.149 681.777" stroke="#000000" stroke-width="0.398" fill="none" /><path id="282" transform="matrix(1 0 0 -1 0 841)" d="M468.68 665.493L468.68 681.777" stroke="#000000" stroke-width="0.398" fill="none" /><path id="283" transform="matrix(1 0 0 -1 0 841)" d="M428.949 665.493L468.879 665.493" stroke="#000000" stroke-width="0.398" fill="none" /><path id="545" transform="matrix(1 0 0 -1 0 841)" d="M448.232 607.057L501.97 607.057" stroke="#000000" stroke-width="0.398" fill="none" /><path id="546" transform="matrix(1 0 0 -1 0 841)" d="M448.432 590.773L448.432 607.057" stroke="#000000" stroke-width="0.398" fill="none" /><path id="547" transform="matrix(1 0 0 -1 0 841)" d="M501.771 590.773L501.771 607.057" stroke="#000000" stroke-width="0.398" fill="none" /><path id="548" transform="matrix(1 0 0 -1 0 841)" d="M448.232 590.773L501.97 590.773" stroke="#000000" stroke-width="0.398" fill="none" /><path id="717" transform="matrix(1 0 0 -1 0 841)" d="M198.094 524.223L252.943 524.223" stroke="#000000" stroke-width="0.398" fill="none" /><path id="735" transform="matrix(1 0 0 -1 0 841)" d="M267.503 524.223L297.39 524.223" stroke="#000000" stroke-width="0.398" fill="none" /><path id="752" transform="matrix(1 0 0 -1 0 841)" d="M310.754 532.337L347.924 532.337" stroke="#000000" stroke-width="0.398" fill="none" /><path id="753" transform="matrix(1 0 0 -1 0 841)" d="M310.954 516.053L310.954 532.337" stroke="#000000" stroke-width="0.398" fill="none" /><path id="754" transform="matrix(1 0 0 -1 0 841)" d="M347.725 516.053L347.725 532.337" stroke="#000000" stroke-width="0.398" fill="none" /><path id="755" transform="matrix(1 0 0 -1 0 841)" d="M310.754 516.053L347.924 516.053" stroke="#000000" stroke-width="0.398" fill="none" /><path id="1000" transform="matrix(1 0 0 -1 0 841)" d="M371.093 457.617L424.831 457.617" stroke="#000000" stroke-width="0.398" fill="none" /><path id="1001" transform="matrix(1 0 0 -1 0 841)" d="M371.292 441.334L371.292 457.618" stroke="#000000" stroke-width="0.398" fill="none" /><path id="1002" transform="matrix(1 0 0 -1 0 841)" d="M424.632 441.334L424.632 457.618" stroke="#000000" stroke-width="0.398" fill="none" /><path id="1003" transform="matrix(1 0 0 -1 0 841)" d="M371.093 441.334L424.831 441.334" stroke="#000000" stroke-width="0.398" fill="none" /><path id="1395" transform="matrix(1 0 0 -1 0 841)" d="M283.532 353.01L345.011 353.01" stroke="#000000" stroke-width="0.398" fill="none" /><path id="1396" transform="matrix(1 0 0 -1 0 841)" d="M283.732 336.726L283.732 353.01" stroke="#000000" stroke-width="0.398" fill="none" /><path id="1397" transform="matrix(1 0 0 -1 0 841)" d="M344.812 336.726L344.812 353.01" stroke="#000000" stroke-width="0.398" fill="none" /><path id="1398" transform="matrix(1 0 0 -1 0 841)" d="M283.532 336.726L345.011 336.726" stroke="#000000" stroke-width="0.398" fill="none" /><path id="1632" transform="matrix(1 0 0 -1 0 841)" d="M270.392 270.175L325.241 270.175" stroke="#000000" stroke-width="0.398" fill="none" /><path id="1651" transform="matrix(1 0 0 -1 0 841)" d="M339.801 270.175L366.002 270.175" stroke="#000000" stroke-width="0.398" fill="none" /><path id="1668" transform="matrix(1 0 0 -1 0 841)" d="M379.366 278.29L419.296 278.29" stroke="#000000" stroke-width="0.398" fill="none" /><path id="1669" transform="matrix(1 0 0 -1 0 841)" d="M379.566 262.006L379.566 278.29" stroke="#000000" stroke-width="0.398" fill="none" /><path id="1670" transform="matrix(1 0 0 -1 0 841)" d="M419.097 262.006L419.097 278.29" stroke="#000000" stroke-width="0.398" fill="none" /><path id="1671" transform="matrix(1 0 0 -1 0 841)" d="M379.366 262.006L419.296 262.006" stroke="#000000" stroke-width="0.398" fill="none" /><path id="1784" transform="matrix(1 0 0 -1 0 841)" d="M428.949 248.402L468.879 248.402" stroke="#000000" stroke-width="0.398" fill="none" /><path id="1785" transform="matrix(1 0 0 -1 0 841)" d="M429.149 232.118L429.149 248.402" stroke="#000000" stroke-width="0.398" fill="none" /><path id="1786" transform="matrix(1 0 0 -1 0 841)" d="M468.68 232.118L468.68 248.402" stroke="#000000" stroke-width="0.398" fill="none" /><path id="1787" transform="matrix(1 0 0 -1 0 841)" d="M428.949 232.118L468.879 232.118" stroke="#000000" stroke-width="0.398" fill="none" /><path id="2050" transform="matrix(1 0 0 -1 0 841)" d="M448.232 173.682L501.97 173.682" stroke="#000000" stroke-width="0.398" fill="none" /><path id="2051" transform="matrix(1 0 0 -1 0 841)" d="M448.432 157.398L448.432 173.682" stroke="#000000" stroke-width="0.398" fill="none" /><path id="2052" transform="matrix(1 0 0 -1 0 841)" d="M501.771 157.398L501.771 173.682" stroke="#000000" stroke-width="0.398" fill="none" /><path id="2053" transform="matrix(1 0 0 -1 0 841)" d="M448.232 157.398L501.97 157.398" stroke="#000000" stroke-width="0.398" fill="none" /><path id="2223" transform="matrix(1 0 0 -1 0 841)" d="M198.094 90.848L252.943 90.848" stroke="#000000" stroke-width="0.398" fill="none" /><path id="2241" transform="matrix(1 0 0 -1 0 841)" d="M267.503 90.848L297.39 90.848" stroke="#000000" stroke-width="0.398" fill="none" /><path id="2258" transform="matrix(1 0 0 -1 0 841)" d="M310.754 98.962L347.924 98.962" stroke="#000000" stroke-width="0.398" fill="none" /><path id="2259" transform="matrix(1 0 0 -1 0 841)" d="M310.954 82.679L310.954 98.963" stroke="#000000" stroke-width="0.398" fill="none" /><path id="2260" transform="matrix(1 0 0 -1 0 841)" d="M347.725 82.679L347.725 98.963" stroke="#000000" stroke-width="0.398" fill="none" /><path id="2261" transform="matrix(1 0 0 -1 0 841)" d="M310.754 82.679L347.924 82.679" stroke="#000000" stroke-width="0.398" fill="none" /><g transform="matrix(0.2 0 0 0.2 249.239 774.845)"><g transform="matrix(1 0 0 1 0 0)"><image x="0" y="0" xlink:href="img_04.png" width="484" height="104" /></g></g></g></g></svg>