<svg xmlns="http://www.w3.org/2000/svg" xmlns:xlink="http://www.w3.org/1999/xlink" id="body_45" preserveAspectRatio="xMinYMin meet" viewBox="0 0 793 1121"><defs><clipPath id="1"><path id="" clip-rule="evenodd" transform="matrix(1 0 0 1 0 0)" d="M0 841L0 -0.8900146L0 -0.8900146L595.276 -0.8900146L595.276 -0.8900146L595.276 841L595.276 841L0 841z" /></clipPath></defs><g transform="matrix(1.333333 0 0 1.333333 0 0)"><g clip-path="url(#1)"><path id="45" transform="matrix(1 0 0 -1 0 841)" d="M85.039 766.564L510.236 766.564" stroke="#000000" stroke-width="0.498" fill="none" /><path id="325" transform="matrix(1 0 0 -1 0 841)" d="M315.727 656.313L329.058 656.313" stroke="#000000" stroke-width="0.436" fill="none" /><path id="329" transform="matrix(1 0 0 -1 0 841)" d="M219.307 644.455L341.915 644.455" stroke="#000000" stroke-width="0.436" fill="none" /><path id="347" transform="matrix(1 0 0 -1 0 841)" d="M314.194 633.11L327.525 633.11" stroke="#000000" stroke-width="0.436" fill="none" /><path id="486" transform="matrix(1 0 0 -1 0 841)" d="M461.341 590.722L474.672 590.722" stroke="#000000" stroke-width="0.436" fill="none" /><path id="488" transform="matrix(1 0 0 -1 0 841)" d="M449.237 578.864L481.322 578.864" stroke="#000000" stroke-width="0.436" fill="none" /><path id="494" transform="matrix(1 0 0 -1 0 841)" d="M466.796 567.94L480.127 567.94" stroke="#000000" stroke-width="0.436" fill="none" /><path id="866" transform="matrix(1 0 0 -1 0 841)" d="M142.438 314.458L155.769 314.458" stroke="#000000" stroke-width="0.436" fill="none" /><path id="886" transform="matrix(1 0 0 -1 0 841)" d="M177.998 314.458L289.256 314.458" stroke="#000000" stroke-width="0.436" fill="none" /></g></g></svg>