<svg xmlns="http://www.w3.org/2000/svg" xmlns:xlink="http://www.w3.org/1999/xlink" id="body_13" preserveAspectRatio="xMinYMin meet" viewBox="0 0 793 1121"><defs><clipPath id="1"><path id="" clip-rule="evenodd" transform="matrix(1 0 0 1 0 0)" d="M0 841L0 -0.8900146L0 -0.8900146L595.276 -0.8900146L595.276 -0.8900146L595.276 841L595.276 841L0 841z" /></clipPath></defs><g transform="matrix(1.333333 0 0 1.333333 0 0)"><g clip-path="url(#1)"><g transform="matrix(0.353085 0 0 0.353085 0.199 -0.6911621)"><g transform="matrix(1 0 0 1 0 0)"><image x="0" y="0" xlink:href="img_23.png" width="1686" height="662" /></g></g><path id="3" transform="matrix(1 0 0 -1 0 841)" d="M724.611 610.1811L100.9809 610.1811C 92.72734 610.1811 86.03673 603.4905 86.03673 595.2369L86.03673 595.2369L86.03673 578.3002C 86.03673 570.0466 92.72734 563.3561 100.9809 563.3561L100.9809 563.3561L724.611 563.3561C 732.8644 563.3561 739.5551 570.0466 739.5551 578.3002L739.5551 578.3002L739.5551 595.2369C 739.5551 603.4905 732.8644 610.1811 724.611 610.1811z" stroke="#F36619" stroke-width="1.99255" fill="#FFFFFF" fill-rule="nonzero" fill-opacity="0.4980392" /><path id="465" transform="matrix(1 0 0 -1 0 841)" d="M112.063 250.377L125.892 250.377L125.892 262.65L112.063 262.65z" stroke="none" fill="#FFF100" fill-rule="nonzero" /><path id="468" transform="matrix(1 0 0 -1 0 841)" d="M125.661 250.377L143.733 250.377L143.733 262.65L125.661 262.65z" stroke="none" fill="#FFF100" fill-rule="nonzero" /><path id="472" transform="matrix(1 0 0 -1 0 841)" d="M143.586 250.377L154.993 250.377L154.993 262.65L143.586 262.65z" stroke="none" fill="#FFF100" fill-rule="nonzero" /><path id="476" transform="matrix(1 0 0 -1 0 841)" d="M154.962 250.377L158.919 250.377L158.919 262.65L154.962 262.65z" stroke="none" fill="#FFF100" fill-rule="nonzero" /><path id="477" transform="matrix(1 0 0 -1 0 841)" d="M158.67 250.377L195.746 250.377L195.746 262.65L158.67 262.65z" stroke="none" fill="#FFF100" fill-rule="nonzero" /><path id="562" transform="matrix(1 0 0 -1 0 841)" d="M112.063 216.504L121.648 216.504L121.648 228.777L112.063 228.777z" stroke="none" fill="#FFF100" fill-rule="nonzero" /><path id="565" transform="matrix(1 0 0 -1 0 841)" d="M121.15 216.504L136.801 216.504L136.801 228.777L121.15 228.777z" stroke="none" fill="#FFF100" fill-rule="nonzero" /><path id="569" transform="matrix(1 0 0 -1 0 841)" d="M136.303 216.504L154.375 216.504L154.375 228.777L136.303 228.777z" stroke="none" fill="#FFF100" fill-rule="nonzero" /><path id="575" transform="matrix(1 0 0 -1 0 841)" d="M154.126 216.504L156.853 216.504L156.853 228.777L154.126 228.777z" stroke="none" fill="#FFF100" fill-rule="nonzero" /><path id="576" transform="matrix(1 0 0 -1 0 841)" d="M156.604 216.504L193.68 216.504L193.68 228.777L156.604 228.777z" stroke="none" fill="#FFF100" fill-rule="nonzero" /><path id="914" transform="matrix(1 0 0 -1 0 841)" d="M112.063 81.358L133.779 81.358L133.779 93.631L112.063 93.631z" stroke="none" fill="#FFF100" fill-rule="nonzero" /><path id="918" transform="matrix(1 0 0 -1 0 841)" d="M133.281 81.358L158.019 81.358L158.019 93.631L133.281 93.631z" stroke="none" fill="#FFF100" fill-rule="nonzero" /><path id="924" transform="matrix(1 0 0 -1 0 841)" d="M157.77 81.358L160.497 81.358L160.497 93.631L157.77 93.631z" stroke="none" fill="#FFF100" fill-rule="nonzero" /><path id="925" transform="matrix(1 0 0 -1 0 841)" d="M160.248 81.358L176.51 81.358L176.51 93.631L160.248 93.631z" stroke="none" fill="#FFF100" fill-rule="nonzero" /><path id="929" transform="matrix(1 0 0 -1 0 841)" d="M176.012 81.358L192.873 81.358L192.873 93.631L176.012 93.631z" stroke="none" fill="#FFF100" fill-rule="nonzero" /></g></g></svg>