<svg xmlns="http://www.w3.org/2000/svg" xmlns:xlink="http://www.w3.org/1999/xlink" id="body_403" preserveAspectRatio="xMinYMin meet" viewBox="0 0 793 1121"><defs><clipPath id="1"><path id="" clip-rule="evenodd" transform="matrix(1 0 0 1 0 0)" d="M0 841L0 -0.8900146L0 -0.8900146L595.276 -0.8900146L595.276 -0.8900146L595.276 841L595.276 841L0 841z" /></clipPath></defs><g transform="matrix(1.333333 0 0 1.333333 0 0)"><g clip-path="url(#1)"><path id="23" transform="matrix(1 0 0 -1 0 841)" d="M85.039 766.564L510.236 766.564" stroke="#000000" stroke-width="0.498" fill="none" /><path id="203" transform="matrix(1 0 0 -1 0 841)" d="M113.508 688.986L186.513 688.986" stroke="#000000" stroke-width="0.398" fill="none" /><path id="225" transform="matrix(1 0 0 -1 0 841)" d="M268.626 701.737L281.866 701.737" stroke="#000000" stroke-width="0.398" fill="none" /><path id="245" transform="matrix(1 0 0 -1 0 841)" d="M337.911 701.737L361.96 701.737" stroke="#000000" stroke-width="0.398" fill="none" /><path id="266" transform="matrix(1 0 0 -1 0 841)" d="M372.1 701.737L457.827 701.737" stroke="#000000" stroke-width="0.398" fill="none" /><path id="271" transform="matrix(1 0 0 -1 0 841)" d="M199.965 688.986L459.023 688.986" stroke="#000000" stroke-width="0.398" fill="none" /><path id="295" transform="matrix(1 0 0 -1 0 841)" d="M496.267 688.986L569.272 688.986" stroke="#000000" stroke-width="0.398" fill="none" /><path id="313" transform="matrix(1 0 0 -1 0 841)" d="M113.508 655.326L184.62 655.326" stroke="#000000" stroke-width="0.398" fill="none" /><path id="335" transform="matrix(1 0 0 -1 0 841)" d="M221.865 655.326L288.863 655.326" stroke="#000000" stroke-width="0.398" fill="none" /><path id="356" transform="matrix(1 0 0 -1 0 841)" d="M297.895 655.326L383.951 655.326" stroke="#000000" stroke-width="0.398" fill="none" /><path id="397" transform="matrix(1 0 0 -1 0 841)" d="M426.177 655.326L540.427 655.326" stroke="#000000" stroke-width="0.398" fill="none" /><path id="879" transform="matrix(1 0 0 -1 0 841)" d="M190.289 533.961L196.565 533.961" stroke="#000000" stroke-width="0.398" fill="none" /><path id="900" transform="matrix(1 0 0 -1 0 841)" d="M280.981 533.961L294.221 533.961" stroke="#000000" stroke-width="0.398" fill="none" /><path id="950" transform="matrix(1 0 0 -1 0 841)" d="M113.508 489.189L186.513 489.189" stroke="#000000" stroke-width="0.398" fill="none" /><path id="971" transform="matrix(1 0 0 -1 0 841)" d="M266.732 501.941L279.972 501.941" stroke="#000000" stroke-width="0.398" fill="none" /><path id="993" transform="matrix(1 0 0 -1 0 841)" d="M345.98 501.941L370.029 501.941" stroke="#000000" stroke-width="0.398" fill="none" /><path id="1015" transform="matrix(1 0 0 -1 0 841)" d="M380.169 501.941L470.878 501.941" stroke="#000000" stroke-width="0.398" fill="none" /><path id="1020" transform="matrix(1 0 0 -1 0 841)" d="M203.053 489.189L472.073 489.189" stroke="#000000" stroke-width="0.398" fill="none" /><path id="1044" transform="matrix(1 0 0 -1 0 841)" d="M137.05 465.722L210.055 465.722" stroke="#000000" stroke-width="0.398" fill="none" /><path id="1062" transform="matrix(1 0 0 -1 0 841)" d="M113.508 421L211.499 421" stroke="#000000" stroke-width="0.398" fill="none" /><path id="1103" transform="matrix(1 0 0 -1 0 841)" d="M251.046 433.751L324.051 433.751" stroke="#000000" stroke-width="0.398" fill="none" /><path id="1107" transform="matrix(1 0 0 -1 0 841)" d="M226.059 421L325.247 421" stroke="#000000" stroke-width="0.398" fill="none" /><path id="1142" transform="matrix(1 0 0 -1 0 841)" d="M352.528 421L475.226 421" stroke="#000000" stroke-width="0.398" fill="none" /><path id="1182" transform="matrix(1 0 0 -1 0 841)" d="M113.508 386.882L184.62 386.882" stroke="#000000" stroke-width="0.398" fill="none" /><path id="1204" transform="matrix(1 0 0 -1 0 841)" d="M221.865 386.882L288.863 386.882" stroke="#000000" stroke-width="0.398" fill="none" /><path id="1227" transform="matrix(1 0 0 -1 0 841)" d="M297.895 386.882L391.692 386.882" stroke="#000000" stroke-width="0.398" fill="none" /><path id="1268" transform="matrix(1 0 0 -1 0 841)" d="M433.918 386.882L548.168 386.882" stroke="#000000" stroke-width="0.398" fill="none" /><path id="1283" transform="matrix(1 0 0 -1 0 841)" d="M113.508 353.222L178.195 353.222" stroke="#000000" stroke-width="0.398" fill="none" /><path id="1308" transform="matrix(1 0 0 -1 0 841)" d="M220.42 353.222L296.514 353.222" stroke="#000000" stroke-width="0.398" fill="none" /><path id="1330" transform="matrix(1 0 0 -1 0 841)" d="M305.547 353.222L403.997 353.222" stroke="#000000" stroke-width="0.398" fill="none" /><path id="1358" transform="matrix(1 0 0 -1 0 841)" d="M460.052 353.222L524.739 353.222" stroke="#000000" stroke-width="0.398" fill="none" /><path id="1550" transform="matrix(1 0 0 -1 0 841)" d="M137.508 262.266L238.763 262.266" stroke="#000000" stroke-width="0.398" fill="none" /><path id="1563" transform="matrix(1 0 0 -1 0 841)" d="M252.127 269.767L284.904 269.767" stroke="#000000" stroke-width="0.398" fill="none" /><path id="1564" transform="matrix(1 0 0 -1 0 841)" d="M252.326 256.433L252.326 269.768" stroke="#000000" stroke-width="0.398" fill="none" /><path id="1565" transform="matrix(1 0 0 -1 0 841)" d="M284.705 256.433L284.705 269.768" stroke="#000000" stroke-width="0.398" fill="none" /><path id="1566" transform="matrix(1 0 0 -1 0 841)" d="M252.127 256.433L284.904 256.433" stroke="#000000" stroke-width="0.398" fill="none" /><path id="1658" transform="matrix(1 0 0 -1 0 841)" d="M251.361 181.667L299.043 181.667" stroke="#000000" stroke-width="0.398" fill="none" /><path id="1659" transform="matrix(1 0 0 -1 0 841)" d="M251.56 166.499L251.56 181.667" stroke="#000000" stroke-width="0.398" fill="none" /><path id="1660" transform="matrix(1 0 0 -1 0 841)" d="M298.844 166.499L298.844 181.667" stroke="#000000" stroke-width="0.398" fill="none" /><path id="1661" transform="matrix(1 0 0 -1 0 841)" d="M251.361 166.499L299.043 166.499" stroke="#000000" stroke-width="0.398" fill="none" /><g transform="matrix(0.2 0 0 0.2 249.239 774.845)"><g transform="matrix(1 0 0 1 0 0)"><image x="0" y="0" xlink:href="img_04.png" width="484" height="104" /></g></g></g></g></svg>