<svg xmlns="http://www.w3.org/2000/svg" xmlns:xlink="http://www.w3.org/1999/xlink" id="body_249" preserveAspectRatio="xMinYMin meet" viewBox="0 0 793 1121"><defs><clipPath id="1"><path id="" clip-rule="evenodd" transform="matrix(1 0 0 1 0 0)" d="M0 841L0 -0.8900146L0 -0.8900146L595.276 -0.8900146L595.276 -0.8900146L595.276 841L595.276 841L0 841z" /></clipPath></defs><g transform="matrix(1.333333 0 0 1.333333 0 0)"><g clip-path="url(#1)"><path id="23" transform="matrix(1 0 0 -1 0 841)" d="M85.039 766.564L510.236 766.564" stroke="#000000" stroke-width="0.498" fill="none" /><path id="43" transform="matrix(1 0 0 -1 0 841)" d="M170.092 745.932L216.745 745.932" stroke="#000000" stroke-width="0.398" fill="none" /><path id="47" transform="matrix(1 0 0 -1 0 841)" d="M84.79 725.134L104.655 725.134L104.655 736.342L84.79 736.342z" stroke="none" fill="#FFF100" fill-rule="nonzero" /><path id="52" transform="matrix(1 0 0 -1 0 841)" d="M104.406 725.134L106.897 725.134L106.897 736.342L104.406 736.342z" stroke="none" fill="#FFF100" fill-rule="nonzero" /><path id="53" transform="matrix(1 0 0 -1 0 841)" d="M106.648 725.134L114.897 725.134L114.897 736.342L106.648 736.342z" stroke="none" fill="#FFF100" fill-rule="nonzero" /><path id="56" transform="matrix(1 0 0 -1 0 841)" d="M114.648 725.134L117.139 725.134L117.139 736.342L114.648 736.342z" stroke="none" fill="#FFF100" fill-rule="nonzero" /><path id="57" transform="matrix(1 0 0 -1 0 841)" d="M116.89 725.134L131.226 725.134L131.226 736.342L116.89 736.342z" stroke="none" fill="#FFF100" fill-rule="nonzero" /><path id="61" transform="matrix(1 0 0 -1 0 841)" d="M130.727 725.134L140.63 725.134L140.63 736.342L130.727 736.342z" stroke="none" fill="#FFF100" fill-rule="nonzero" /><path id="64" transform="matrix(1 0 0 -1 0 841)" d="M140.132 725.134L150.592 725.134L150.592 736.342L140.132 736.342z" stroke="none" fill="#FFF100" fill-rule="nonzero" /><path id="68" transform="matrix(1 0 0 -1 0 841)" d="M150.094 725.134L163.324 725.134L163.324 736.342L150.094 736.342z" stroke="none" fill="#FFF100" fill-rule="nonzero" /><path id="72" transform="matrix(1 0 0 -1 0 841)" d="M163.076 725.134L165.567 725.134L165.567 736.342L163.076 736.342z" stroke="none" fill="#FFF100" fill-rule="nonzero" /><path id="73" transform="matrix(1 0 0 -1 0 841)" d="M165.317 725.134L173.566 725.134L173.566 736.342L165.317 736.342z" stroke="none" fill="#FFF100" fill-rule="nonzero" /><path id="76" transform="matrix(1 0 0 -1 0 841)" d="M173.068 725.134L183.528 725.134L183.528 736.342L173.068 736.342z" stroke="none" fill="#FFF100" fill-rule="nonzero" /><path id="80" transform="matrix(1 0 0 -1 0 841)" d="M183.279 725.134L185.77 725.134L185.77 736.342L183.279 736.342z" stroke="none" fill="#FFF100" fill-rule="nonzero" /><path id="81" transform="matrix(1 0 0 -1 0 841)" d="M185.521 725.134L207.319 725.134L207.319 736.342L185.521 736.342z" stroke="none" fill="#FFF100" fill-rule="nonzero" /><path id="87" transform="matrix(1 0 0 -1 0 841)" d="M207.07 725.134L209.561 725.134L209.561 736.342L207.07 736.342z" stroke="none" fill="#FFF100" fill-rule="nonzero" /><path id="88" transform="matrix(1 0 0 -1 0 841)" d="M209.312 725.134L223.638 725.134L223.638 736.342L209.312 736.342z" stroke="none" fill="#FFF100" fill-rule="nonzero" /><path id="92" transform="matrix(1 0 0 -1 0 841)" d="M223.389 725.134L225.88 725.134L225.88 736.342L223.389 736.342z" stroke="none" fill="#FFF100" fill-rule="nonzero" /><path id="93" transform="matrix(1 0 0 -1 0 841)" d="M225.63 725.134L247.867 725.134L247.867 736.342L225.63 736.342z" stroke="none" fill="#FFF100" fill-rule="nonzero" /><path id="99" transform="matrix(1 0 0 -1 0 841)" d="M247.618 725.134L250.109 725.134L250.109 736.342L247.618 736.342z" stroke="none" fill="#FFF100" fill-rule="nonzero" /><path id="100" transform="matrix(1 0 0 -1 0 841)" d="M249.86 725.134L262.532 725.134L262.532 736.342L249.86 736.342z" stroke="none" fill="#FFF100" fill-rule="nonzero" /><path id="104" transform="matrix(1 0 0 -1 0 841)" d="M262.283 725.134L264.774 725.134L264.774 736.342L262.283 736.342z" stroke="none" fill="#FFF100" fill-rule="nonzero" /><path id="105" transform="matrix(1 0 0 -1 0 841)" d="M264.524 725.134L277.754 725.134L277.754 736.342L264.524 736.342z" stroke="none" fill="#FFF100" fill-rule="nonzero" /><path id="109" transform="matrix(1 0 0 -1 0 841)" d="M277.256 725.134L287.716 725.134L287.716 736.342L277.256 736.342z" stroke="none" fill="#FFF100" fill-rule="nonzero" /><path id="113" transform="matrix(1 0 0 -1 0 841)" d="M287.468 725.134L289.959 725.134L289.959 736.342L287.468 736.342z" stroke="none" fill="#FFF100" fill-rule="nonzero" /><path id="114" transform="matrix(1 0 0 -1 0 841)" d="M289.71 725.134L311.508 725.134L311.508 736.342L289.71 736.342z" stroke="none" fill="#FFF100" fill-rule="nonzero" /><path id="120" transform="matrix(1 0 0 -1 0 841)" d="M311.259 725.134L313.75 725.134L313.75 736.342L311.259 736.342z" stroke="none" fill="#FFF100" fill-rule="nonzero" /><path id="121" transform="matrix(1 0 0 -1 0 841)" d="M313.5 725.134L328.384 725.134L328.384 736.342L313.5 736.342z" stroke="none" fill="#FFF100" fill-rule="nonzero" /><path id="125" transform="matrix(1 0 0 -1 0 841)" d="M328.135 725.134L330.626 725.134L330.626 736.342L328.135 736.342z" stroke="none" fill="#FFF100" fill-rule="nonzero" /><path id="126" transform="matrix(1 0 0 -1 0 841)" d="M330.377 725.134L338.616 725.134L338.616 736.342L330.377 736.342z" stroke="none" fill="#FFF100" fill-rule="nonzero" /><path id="129" transform="matrix(1 0 0 -1 0 841)" d="M338.118 725.134L363.124 725.134L363.124 736.342L338.118 736.342z" stroke="none" fill="#FFF100" fill-rule="nonzero" /><path id="135" transform="matrix(1 0 0 -1 0 841)" d="M362.875 725.134L365.366 725.134L365.366 736.342L362.875 736.342z" stroke="none" fill="#FFF100" fill-rule="nonzero" /><path id="136" transform="matrix(1 0 0 -1 0 841)" d="M365.116 725.134L373.106 725.134L373.106 736.342L365.116 736.342z" stroke="none" fill="#FFF100" fill-rule="nonzero" /><path id="139" transform="matrix(1 0 0 -1 0 841)" d="M372.608 725.134L378.645 725.134L378.645 736.342L372.608 736.342z" stroke="none" fill="#FFF100" fill-rule="nonzero" /><path id="141" transform="matrix(1 0 0 -1 0 841)" d="M378.147 725.134L404.498 725.134L404.498 736.342L378.147 736.342z" stroke="none" fill="#FFF100" fill-rule="nonzero" /><path id="148" transform="matrix(1 0 0 -1 0 841)" d="M404.249 725.134L406.74 725.134L406.74 736.342L404.249 736.342z" stroke="none" fill="#FFF100" fill-rule="nonzero" /><path id="149" transform="matrix(1 0 0 -1 0 841)" d="M406.491 725.134L437.425 725.134L437.425 736.342L406.491 736.342z" stroke="none" fill="#FFF100" fill-rule="nonzero" /><path id="157" transform="matrix(1 0 0 -1 0 841)" d="M328.1976 708.7878L263.4404 708.7878C 261.2395 708.7878 259.4553 707.0037 259.4553 704.8027L259.4553 704.8027L259.4553 680.0453C 259.4553 677.8444 261.2395 676.0602 263.4404 676.0602L263.4404 676.0602L328.1976 676.0602C 330.3985 676.0602 332.1827 677.8444 332.1827 680.0453L332.1827 680.0453L332.1827 704.8027C 332.1827 707.0037 330.3985 708.7878 328.1976 708.7878z" stroke="#000000" stroke-width="0.3985" fill="#FF9999" fill-rule="nonzero" /><path id="198" transform="matrix(1 0 0 -1 0 841)" d="M167.3966 692.424L256.8651 692.424" stroke="#000000" stroke-width="0.3985" fill="none" /><path id="199" transform="matrix(1 0 0 -1 0 841)" d="M259.256 692.424C 258.2598 692.6233 256.4665 693.0218 255.271 693.9184C 256.2673 692.8225 256.2673 692.0255 255.271 690.9296C 256.4665 691.8262 258.2598 692.2247 259.256 692.424z" stroke="none" fill="#000000" fill-rule="nonzero" /><path id="221" transform="matrix(1 0 0 -1 0 841)" d="M332.3819 692.424L418.2122 692.424" stroke="#000000" stroke-width="0.3985" fill="none" /><path id="222" transform="matrix(1 0 0 -1 0 841)" d="M420.6032 692.424C 419.6069 692.6233 417.8137 693.0218 416.6181 693.9184C 417.6144 692.8225 417.6144 692.0255 416.6181 690.9296C 417.8137 691.8262 419.6069 692.2247 420.6032 692.424z" stroke="none" fill="#000000" fill-rule="nonzero" /><path id="248" transform="matrix(1 0 0 -1 0 841)" d="M295.819 675.861L295.819 661.5847" stroke="#000000" stroke-width="0.3985" fill="none" /><path id="249" transform="matrix(1 0 0 -1 0 841)" d="M295.819 659.1937C 296.0182 660.1899 296.4167 661.9832 297.3134 663.1786C 296.2175 662.1824 295.4205 662.1824 294.3246 663.1786C 295.2213 661.9832 295.6198 660.1899 295.819 659.1937z" stroke="none" fill="#000000" fill-rule="nonzero" /><path id="378" transform="matrix(1 0 0 -1 0 841)" d="M177.043 585.133L192.415 585.133" stroke="#000000" stroke-width="0.398" fill="none" /><path id="388" transform="matrix(1 0 0 -1 0 841)" d="M206.985 585.133L239.423 585.133" stroke="#000000" stroke-width="0.398" fill="none" /><path id="398" transform="matrix(1 0 0 -1 0 841)" d="M253.983 585.133L300.636 585.133" stroke="#000000" stroke-width="0.398" fill="none" /><path id="444" transform="matrix(1 0 0 -1 0 841)" d="M255.866 552.868L261.953 552.868" stroke="#000000" stroke-width="0.398" fill="none" /><path id="448" transform="matrix(1 0 0 -1 0 841)" d="M276.513 552.868L283.706 552.868" stroke="#000000" stroke-width="0.398" fill="none" /><path id="457" transform="matrix(1 0 0 -1 0 841)" d="M343.087 552.868L350.28 552.868" stroke="#000000" stroke-width="0.398" fill="none" /><path id="475" transform="matrix(1 0 0 -1 0 841)" d="M170.092 531.628L216.745 531.628" stroke="#000000" stroke-width="0.398" fill="none" /><path id="483" transform="matrix(1 0 0 -1 0 841)" d="M84.79 497.934L96.357 497.934L96.357 509.142L84.79 509.142z" stroke="none" fill="#FFF100" fill-rule="nonzero" /><path id="486" transform="matrix(1 0 0 -1 0 841)" d="M95.859 497.934L108.531 497.934L108.531 509.142L95.859 509.142z" stroke="none" fill="#FFF100" fill-rule="nonzero" /><path id="489" transform="matrix(1 0 0 -1 0 841)" d="M108.033 497.934L120.705 497.934L120.705 509.142L108.033 509.142z" stroke="none" fill="#FFF100" fill-rule="nonzero" /><path id="493" transform="matrix(1 0 0 -1 0 841)" d="M120.456 497.934L122.947 497.934L122.947 509.142L120.456 509.142z" stroke="none" fill="#FFF100" fill-rule="nonzero" /><path id="494" transform="matrix(1 0 0 -1 0 841)" d="M122.698 497.934L142.015 497.934L142.015 509.142L122.698 509.142z" stroke="none" fill="#FFF100" fill-rule="nonzero" /><path id="499" transform="matrix(1 0 0 -1 0 841)" d="M141.517 497.934L163.604 497.934L163.604 509.142L141.517 509.142z" stroke="none" fill="#FFF100" fill-rule="nonzero" /><path id="624" transform="matrix(1 0 0 -1 0 841)" d="M200.644 457.078L235.331 457.078" stroke="#000000" stroke-width="0.398" fill="none" /><path id="639" transform="matrix(1 0 0 -1 0 841)" d="M285.314 457.078L318.507 457.078" stroke="#000000" stroke-width="0.398" fill="none" /><path id="650" transform="matrix(1 0 0 -1 0 841)" d="M354.563 464.58L379.599 464.58" stroke="#000000" stroke-width="0.398" fill="none" /><path id="651" transform="matrix(1 0 0 -1 0 841)" d="M354.763 451.245L354.763 464.58" stroke="#000000" stroke-width="0.398" fill="none" /><path id="652" transform="matrix(1 0 0 -1 0 841)" d="M379.4 451.245L379.4 464.58" stroke="#000000" stroke-width="0.398" fill="none" /><path id="653" transform="matrix(1 0 0 -1 0 841)" d="M354.563 451.245L379.599 451.245" stroke="#000000" stroke-width="0.398" fill="none" /><path id="762" transform="matrix(1 0 0 -1 0 841)" d="M328.1976 393.3688L263.4404 393.3688C 261.2395 393.3688 259.4553 391.5847 259.4553 389.3837L259.4553 389.3837L259.4553 364.6263C 259.4553 362.4253 261.2395 360.6412 263.4404 360.6412L263.4404 360.6412L328.1976 360.6412C 330.3985 360.6412 332.1827 362.4253 332.1827 364.6263L332.1827 364.6263L332.1827 389.3837C 332.1827 391.5847 330.3985 393.3688 328.1976 393.3688z" stroke="#000000" stroke-width="0.3985" fill="#FF9999" fill-rule="nonzero" /><path id="796" transform="matrix(1 0 0 -1 0 841)" d="M196.1965 377.005L256.8651 377.005" stroke="#000000" stroke-width="0.3985" fill="none" /><path id="797" transform="matrix(1 0 0 -1 0 841)" d="M259.256 377.005C 258.2598 377.2043 256.4665 377.6028 255.271 378.4994C 256.2673 377.4035 256.2673 376.6065 255.271 375.5106C 256.4665 376.4073 258.2598 376.8058 259.256 377.005z" stroke="none" fill="#000000" fill-rule="nonzero" /><path id="811" transform="matrix(1 0 0 -1 0 841)" d="M332.3819 377.005L389.4122 377.005" stroke="#000000" stroke-width="0.3985" fill="none" /><path id="812" transform="matrix(1 0 0 -1 0 841)" d="M391.8033 377.005C 390.807 377.2043 389.0137 377.6028 387.8182 378.4994C 388.8145 377.4035 388.8145 376.6065 387.8182 375.5106C 389.0137 376.4073 390.807 376.8058 391.8033 377.005z" stroke="none" fill="#000000" fill-rule="nonzero" /><path id="824" transform="matrix(1 0 0 -1 0 841)" d="M295.819 360.4419L295.819 345.6065" stroke="#000000" stroke-width="0.3985" fill="none" /><path id="825" transform="matrix(1 0 0 -1 0 841)" d="M295.819 343.2155C 296.0182 344.2118 296.4167 346.005 297.3134 347.2005C 296.2175 346.2043 295.4205 346.2043 294.3246 347.2005C 295.2213 346.005 295.6198 344.2118 295.819 343.2155z" stroke="none" fill="#000000" fill-rule="nonzero" /><path id="829" transform="matrix(1 0 0 -1 0 841)" d="M113.508 299.27L128.88 299.27" stroke="#000000" stroke-width="0.398" fill="none" /><path id="848" transform="matrix(1 0 0 -1 0 841)" d="M148.431 299.27L221.386 299.27" stroke="#000000" stroke-width="0.398" fill="none" /><path id="858" transform="matrix(1 0 0 -1 0 841)" d="M235.945 299.27L271.36 299.27" stroke="#000000" stroke-width="0.398" fill="none" /><path id="879" transform="matrix(1 0 0 -1 0 841)" d="M136.192 277.068L209.147 277.068" stroke="#000000" stroke-width="0.398" fill="none" /><path id="917" transform="matrix(1 0 0 -1 0 841)" d="M262.723 266.393L299.893 266.393" stroke="#000000" stroke-width="0.398" fill="none" /><path id="918" transform="matrix(1 0 0 -1 0 841)" d="M262.922 250.109L262.922 266.393" stroke="#000000" stroke-width="0.398" fill="none" /><path id="919" transform="matrix(1 0 0 -1 0 841)" d="M299.694 250.109L299.694 266.393" stroke="#000000" stroke-width="0.398" fill="none" /><path id="920" transform="matrix(1 0 0 -1 0 841)" d="M262.723 250.109L299.893 250.109" stroke="#000000" stroke-width="0.398" fill="none" /><path id="1020" transform="matrix(1 0 0 -1 0 841)" d="M328.1976 207.4568L263.4404 207.4568C 261.2395 207.4568 259.4553 205.6727 259.4553 203.4717L259.4553 203.4717L259.4553 178.7143C 259.4553 176.5133 261.2395 174.7292 263.4404 174.7292L263.4404 174.7292L328.1976 174.7292C 330.3985 174.7292 332.1827 176.5133 332.1827 178.7143L332.1827 178.7143L332.1827 203.4717C 332.1827 205.6727 330.3985 207.4568 328.1976 207.4568z" stroke="#000000" stroke-width="0.3985" fill="#FF9999" fill-rule="nonzero" /><path id="1054" transform="matrix(1 0 0 -1 0 841)" d="M196.1965 191.093L256.8651 191.093" stroke="#000000" stroke-width="0.3985" fill="none" /><path id="1055" transform="matrix(1 0 0 -1 0 841)" d="M259.256 191.093C 258.2598 191.2923 256.4665 191.6908 255.271 192.5874C 256.2673 191.4915 256.2673 190.6945 255.271 189.5986C 256.4665 190.4953 258.2598 190.8938 259.256 191.093z" stroke="none" fill="#000000" fill-rule="nonzero" /><path id="1068" transform="matrix(1 0 0 -1 0 841)" d="M332.3819 191.093L389.4122 191.093" stroke="#000000" stroke-width="0.3985" fill="none" /><path id="1069" transform="matrix(1 0 0 -1 0 841)" d="M391.8033 191.093C 390.807 191.2923 389.0137 191.6908 387.8182 192.5874C 388.8145 191.4915 388.8145 190.6945 387.8182 189.5986C 389.0137 190.4953 390.807 190.8938 391.8033 191.093z" stroke="none" fill="#000000" fill-rule="nonzero" /><path id="1082" transform="matrix(1 0 0 -1 0 841)" d="M295.819 174.5299L295.819 159.6945" stroke="#000000" stroke-width="0.3985" fill="none" /><path id="1083" transform="matrix(1 0 0 -1 0 841)" d="M295.819 157.3035C 296.0182 158.2998 296.4167 160.093 297.3134 161.2885C 296.2175 160.2923 295.4205 160.2923 294.3246 161.2885C 295.2213 160.093 295.6198 158.2998 295.819 157.3035z" stroke="none" fill="#000000" fill-rule="nonzero" /><path id="1086" transform="matrix(1 0 0 -1 0 841)" d="M113.508 112.989L128.88 112.989" stroke="#000000" stroke-width="0.398" fill="none" /><path id="1105" transform="matrix(1 0 0 -1 0 841)" d="M148.431 112.989L218.746 112.989" stroke="#000000" stroke-width="0.398" fill="none" /><path id="1112" transform="matrix(1 0 0 -1 0 841)" d="M233.305 112.989L268.72 112.989" stroke="#000000" stroke-width="0.398" fill="none" /><path id="1135" transform="matrix(1 0 0 -1 0 841)" d="M296.01 112.989L366.325 112.989" stroke="#000000" stroke-width="0.398" fill="none" /><path id="1194" transform="matrix(1 0 0 -1 0 841)" d="M338.986 101.641L381.138 101.641" stroke="#000000" stroke-width="0.398" fill="none" /><path id="1195" transform="matrix(1 0 0 -1 0 841)" d="M339.185 85.357L339.185 101.641" stroke="#000000" stroke-width="0.398" fill="none" /><path id="1196" transform="matrix(1 0 0 -1 0 841)" d="M380.938 85.357L380.938 101.641" stroke="#000000" stroke-width="0.398" fill="none" /><path id="1197" transform="matrix(1 0 0 -1 0 841)" d="M338.986 85.357L381.138 85.357" stroke="#000000" stroke-width="0.398" fill="none" /></g></g></svg>