<svg xmlns="http://www.w3.org/2000/svg" xmlns:xlink="http://www.w3.org/1999/xlink" id="body_416" preserveAspectRatio="xMinYMin meet" viewBox="0 0 793 1121"><defs><clipPath id="1"><path id="" clip-rule="evenodd" transform="matrix(1 0 0 1 0 0)" d="M0 841L0 -0.8900146L0 -0.8900146L595.276 -0.8900146L595.276 -0.8900146L595.276 841L595.276 841L0 841z" /></clipPath></defs><g transform="matrix(1.333333 0 0 1.333333 0 0)"><g clip-path="url(#1)"><path id="31" transform="matrix(1 0 0 -1 0 841)" d="M85.039 766.564L510.236 766.564" stroke="#000000" stroke-width="0.498" fill="none" /><path id="614" transform="matrix(1 0 0 -1 0 841)" d="M147.47 582.776L165.691 582.776" stroke="#000000" stroke-width="0.398" fill="none" /><path id="626" transform="matrix(1 0 0 -1 0 841)" d="M193.535 582.776L210.65 582.776" stroke="#000000" stroke-width="0.398" fill="none" /><path id="645" transform="matrix(1 0 0 -1 0 841)" d="M243.475 582.776L308.699 582.776" stroke="#000000" stroke-width="0.398" fill="none" /><path id="669" transform="matrix(1 0 0 -1 0 841)" d="M354.244 582.776L374.169 582.776" stroke="#000000" stroke-width="0.398" fill="none" /><path id="689" transform="matrix(1 0 0 -1 0 841)" d="M420.889 582.776L467.264 582.776" stroke="#000000" stroke-width="0.398" fill="none" /><path id="693" transform="matrix(1 0 0 -1 0 841)" d="M387.533 597.077L471.847 597.077" stroke="#000000" stroke-width="0.398" fill="none" /><path id="694" transform="matrix(1 0 0 -1 0 841)" d="M387.732 568.231L387.732 597.078" stroke="#000000" stroke-width="0.398" fill="none" /><path id="695" transform="matrix(1 0 0 -1 0 841)" d="M471.648 568.231L471.648 597.078" stroke="#000000" stroke-width="0.398" fill="none" /><path id="696" transform="matrix(1 0 0 -1 0 841)" d="M387.533 568.231L471.847 568.231" stroke="#000000" stroke-width="0.398" fill="none" /><path id="747" transform="matrix(1 0 0 -1 0 841)" d="M154.962 542.627L200.989 542.627" stroke="#000000" stroke-width="0.398" fill="none" /><path id="761" transform="matrix(1 0 0 -1 0 841)" d="M216.11 542.627L260.632 542.627" stroke="#000000" stroke-width="0.398" fill="none" /><path id="777" transform="matrix(1 0 0 -1 0 841)" d="M280.735 542.627L294.842 542.627" stroke="#000000" stroke-width="0.398" fill="none" /><path id="791" transform="matrix(1 0 0 -1 0 841)" d="M314.944 542.627L359.964 542.627" stroke="#000000" stroke-width="0.398" fill="none" /><path id="816" transform="matrix(1 0 0 -1 0 841)" d="M411.665 542.627L456.187 542.627" stroke="#000000" stroke-width="0.398" fill="none" /><path id="826" transform="matrix(1 0 0 -1 0 841)" d="M373.328 556.928L460.77 556.928" stroke="#000000" stroke-width="0.398" fill="none" /><path id="827" transform="matrix(1 0 0 -1 0 841)" d="M373.528 528.082L373.528 556.929" stroke="#000000" stroke-width="0.398" fill="none" /><path id="828" transform="matrix(1 0 0 -1 0 841)" d="M460.571 528.082L460.571 556.929" stroke="#000000" stroke-width="0.398" fill="none" /><path id="829" transform="matrix(1 0 0 -1 0 841)" d="M373.328 528.082L460.77 528.082" stroke="#000000" stroke-width="0.398" fill="none" /><path id="872" transform="matrix(1 0 0 -1 0 841)" d="M171.013 502.852L215.535 502.852" stroke="#000000" stroke-width="0.398" fill="none" /><path id="896" transform="matrix(1 0 0 -1 0 841)" d="M243.379 502.852L284.773 502.852" stroke="#000000" stroke-width="0.398" fill="none" /><path id="920" transform="matrix(1 0 0 -1 0 841)" d="M331.492 502.852L376.014 502.852" stroke="#000000" stroke-width="0.398" fill="none" /><path id="930" transform="matrix(1 0 0 -1 0 841)" d="M298.136 517.153L380.597 517.153" stroke="#000000" stroke-width="0.398" fill="none" /><path id="931" transform="matrix(1 0 0 -1 0 841)" d="M298.336 488.306L298.336 517.153" stroke="#000000" stroke-width="0.398" fill="none" /><path id="932" transform="matrix(1 0 0 -1 0 841)" d="M380.398 488.306L380.398 517.153" stroke="#000000" stroke-width="0.398" fill="none" /><path id="933" transform="matrix(1 0 0 -1 0 841)" d="M298.136 488.306L380.597 488.306" stroke="#000000" stroke-width="0.398" fill="none" /><path id="975" transform="matrix(1 0 0 -1 0 841)" d="M147.462 453.338L270.12 453.338" stroke="#000000" stroke-width="0.398" fill="none" /><path id="1015" transform="matrix(1 0 0 -1 0 841)" d="M321.94 466.09L366.462 466.09" stroke="#000000" stroke-width="0.398" fill="none" /><path id="1025" transform="matrix(1 0 0 -1 0 841)" d="M284.68 453.338L374.949 453.338" stroke="#000000" stroke-width="0.398" fill="none" /><path id="1043" transform="matrix(1 0 0 -1 0 841)" d="M327.378 440.831L373.753 440.831" stroke="#000000" stroke-width="0.398" fill="none" /><path id="1063" transform="matrix(1 0 0 -1 0 841)" d="M388.313 460.701L450.101 460.701" stroke="#000000" stroke-width="0.398" fill="none" /><path id="1064" transform="matrix(1 0 0 -1 0 841)" d="M388.512 447.44L388.512 460.7" stroke="#000000" stroke-width="0.398" fill="none" /><path id="1065" transform="matrix(1 0 0 -1 0 841)" d="M449.902 447.44L449.902 460.7" stroke="#000000" stroke-width="0.398" fill="none" /><path id="1066" transform="matrix(1 0 0 -1 0 841)" d="M388.313 447.44L450.101 447.44" stroke="#000000" stroke-width="0.398" fill="none" /><path id="1513" transform="matrix(1 0 0 -1 0 841)" d="M112.312 302.854L530.485 302.854" stroke="#000000" stroke-width="0.283" fill="none" /><path id="1514" transform="matrix(1 0 0 -1 0 841)" d="M112.454 293.537L112.454 302.713" stroke="#000000" stroke-width="0.283" fill="none" /><path id="1519" transform="matrix(1 0 0 -1 0 841)" d="M530.344 293.537L530.344 302.713" stroke="#000000" stroke-width="0.283" fill="none" /><path id="1520" transform="matrix(1 0 0 -1 0 841)" d="M112.312 293.395L530.485 293.395" stroke="#000000" stroke-width="0.283" fill="none" /><path id="1521" transform="matrix(1 0 0 -1 0 841)" d="M112.454 253.921L112.454 293.253" stroke="#000000" stroke-width="0.283" fill="none" /><path id="1526" transform="matrix(1 0 0 -1 0 841)" d="M147.487 253.921L147.487 293.253" stroke="#000000" stroke-width="0.283" fill="none" /><path id="1529" transform="matrix(1 0 0 -1 0 841)" d="M192.057 253.921L192.057 293.253" stroke="#000000" stroke-width="0.283" fill="none" /><path id="1546" transform="matrix(1 0 0 -1 0 841)" d="M250.8 253.921L250.8 293.253" stroke="#000000" stroke-width="0.283" fill="none" /><path id="1566" transform="matrix(1 0 0 -1 0 841)" d="M309.544 253.921L309.544 293.253" stroke="#000000" stroke-width="0.283" fill="none" /><path id="1570" transform="matrix(1 0 0 -1 0 841)" d="M354.114 253.921L354.114 293.253" stroke="#000000" stroke-width="0.283" fill="none" /><path id="1585" transform="matrix(1 0 0 -1 0 841)" d="M412.857 253.921L412.857 293.253" stroke="#000000" stroke-width="0.283" fill="none" /><path id="1600" transform="matrix(1 0 0 -1 0 841)" d="M471.601 253.921L471.601 293.253" stroke="#000000" stroke-width="0.283" fill="none" /><path id="1620" transform="matrix(1 0 0 -1 0 841)" d="M530.344 253.921L530.344 293.253" stroke="#000000" stroke-width="0.283" fill="none" /><path id="1621" transform="matrix(1 0 0 -1 0 841)" d="M112.312 253.779L530.485 253.779" stroke="#000000" stroke-width="0.283" fill="none" /><path id="1622" transform="matrix(1 0 0 -1 0 841)" d="M112.454 244.193L112.454 253.638" stroke="#000000" stroke-width="0.283" fill="none" /><path id="1627" transform="matrix(1 0 0 -1 0 841)" d="M147.487 244.193L147.487 253.638" stroke="#000000" stroke-width="0.283" fill="none" /><path id="1632" transform="matrix(1 0 0 -1 0 841)" d="M192.057 244.193L192.057 253.638" stroke="#000000" stroke-width="0.283" fill="none" /><path id="1638" transform="matrix(1 0 0 -1 0 841)" d="M250.8 244.193L250.8 253.638" stroke="#000000" stroke-width="0.283" fill="none" /><path id="1642" transform="matrix(1 0 0 -1 0 841)" d="M309.544 244.193L309.544 253.638" stroke="#000000" stroke-width="0.283" fill="none" /><path id="1647" transform="matrix(1 0 0 -1 0 841)" d="M354.114 244.193L354.114 253.638" stroke="#000000" stroke-width="0.283" fill="none" /><path id="1651" transform="matrix(1 0 0 -1 0 841)" d="M412.857 244.193L412.857 253.638" stroke="#000000" stroke-width="0.283" fill="none" /><path id="1656" transform="matrix(1 0 0 -1 0 841)" d="M471.601 244.193L471.601 253.638" stroke="#000000" stroke-width="0.283" fill="none" /><path id="1659" transform="matrix(1 0 0 -1 0 841)" d="M530.344 244.193L530.344 253.638" stroke="#000000" stroke-width="0.283" fill="none" /><path id="1660" transform="matrix(1 0 0 -1 0 841)" d="M112.454 234.748L112.454 244.193" stroke="#000000" stroke-width="0.283" fill="none" /><path id="1665" transform="matrix(1 0 0 -1 0 841)" d="M147.487 234.748L147.487 244.193" stroke="#000000" stroke-width="0.283" fill="none" /><path id="1670" transform="matrix(1 0 0 -1 0 841)" d="M192.057 234.748L192.057 244.193" stroke="#000000" stroke-width="0.283" fill="none" /><path id="1676" transform="matrix(1 0 0 -1 0 841)" d="M250.8 234.748L250.8 244.193" stroke="#000000" stroke-width="0.283" fill="none" /><path id="1680" transform="matrix(1 0 0 -1 0 841)" d="M309.544 234.748L309.544 244.193" stroke="#000000" stroke-width="0.283" fill="none" /><path id="1685" transform="matrix(1 0 0 -1 0 841)" d="M354.114 234.748L354.114 244.193" stroke="#000000" stroke-width="0.283" fill="none" /><path id="1689" transform="matrix(1 0 0 -1 0 841)" d="M412.857 234.748L412.857 244.193" stroke="#000000" stroke-width="0.283" fill="none" /><path id="1694" transform="matrix(1 0 0 -1 0 841)" d="M471.601 234.748L471.601 244.193" stroke="#000000" stroke-width="0.283" fill="none" /><path id="1699" transform="matrix(1 0 0 -1 0 841)" d="M530.344 234.748L530.344 244.193" stroke="#000000" stroke-width="0.283" fill="none" /><path id="1700" transform="matrix(1 0 0 -1 0 841)" d="M112.454 225.304L112.454 234.749" stroke="#000000" stroke-width="0.283" fill="none" /><path id="1705" transform="matrix(1 0 0 -1 0 841)" d="M147.487 225.304L147.487 234.749" stroke="#000000" stroke-width="0.283" fill="none" /><path id="1710" transform="matrix(1 0 0 -1 0 841)" d="M192.057 225.304L192.057 234.749" stroke="#000000" stroke-width="0.283" fill="none" /><path id="1716" transform="matrix(1 0 0 -1 0 841)" d="M250.8 225.304L250.8 234.749" stroke="#000000" stroke-width="0.283" fill="none" /><path id="1720" transform="matrix(1 0 0 -1 0 841)" d="M309.544 225.304L309.544 234.749" stroke="#000000" stroke-width="0.283" fill="none" /><path id="1725" transform="matrix(1 0 0 -1 0 841)" d="M354.114 225.304L354.114 234.749" stroke="#000000" stroke-width="0.283" fill="none" /><path id="1729" transform="matrix(1 0 0 -1 0 841)" d="M412.857 225.304L412.857 234.749" stroke="#000000" stroke-width="0.283" fill="none" /><path id="1734" transform="matrix(1 0 0 -1 0 841)" d="M471.601 225.304L471.601 234.749" stroke="#000000" stroke-width="0.283" fill="none" /><path id="1739" transform="matrix(1 0 0 -1 0 841)" d="M530.344 225.304L530.344 234.749" stroke="#000000" stroke-width="0.283" fill="none" /><path id="1740" transform="matrix(1 0 0 -1 0 841)" d="M112.454 215.859L112.454 225.304" stroke="#000000" stroke-width="0.283" fill="none" /><path id="1745" transform="matrix(1 0 0 -1 0 841)" d="M147.487 215.859L147.487 225.304" stroke="#000000" stroke-width="0.283" fill="none" /><path id="1750" transform="matrix(1 0 0 -1 0 841)" d="M192.057 215.859L192.057 225.304" stroke="#000000" stroke-width="0.283" fill="none" /><path id="1756" transform="matrix(1 0 0 -1 0 841)" d="M250.8 215.859L250.8 225.304" stroke="#000000" stroke-width="0.283" fill="none" /><path id="1760" transform="matrix(1 0 0 -1 0 841)" d="M309.544 215.859L309.544 225.304" stroke="#000000" stroke-width="0.283" fill="none" /><path id="1765" transform="matrix(1 0 0 -1 0 841)" d="M354.114 215.859L354.114 225.304" stroke="#000000" stroke-width="0.283" fill="none" /><path id="1766" transform="matrix(1 0 0 -1 0 841)" d="M412.857 215.859L412.857 225.304" stroke="#000000" stroke-width="0.283" fill="none" /><path id="1767" transform="matrix(1 0 0 -1 0 841)" d="M471.601 215.859L471.601 225.304" stroke="#000000" stroke-width="0.283" fill="none" /><path id="1768" transform="matrix(1 0 0 -1 0 841)" d="M530.344 215.859L530.344 225.304" stroke="#000000" stroke-width="0.283" fill="none" /><path id="1769" transform="matrix(1 0 0 -1 0 841)" d="M112.312 215.717L530.485 215.717" stroke="#000000" stroke-width="0.283" fill="none" /><path id="1982" transform="matrix(1 0 0 -1 0 841)" d="M161.735 107.346L226.455 107.346" stroke="#000000" stroke-width="0.398" fill="none" /><path id="1997" transform="matrix(1 0 0 -1 0 841)" d="M242.331 107.346L307.051 107.346" stroke="#000000" stroke-width="0.398" fill="none" /><path id="2024" transform="matrix(1 0 0 -1 0 841)" d="M389.235 120.147L420.179 120.147" stroke="#000000" stroke-width="0.398" fill="none" /><path id="2039" transform="matrix(1 0 0 -1 0 841)" d="M322.928 107.346L481.127 107.346" stroke="#000000" stroke-width="0.398" fill="none" /><path id="2062" transform="matrix(1 0 0 -1 0 841)" d="M112.312 94.892L145.089 94.892" stroke="#000000" stroke-width="0.398" fill="none" /><path id="2063" transform="matrix(1 0 0 -1 0 841)" d="M112.511 81.632L112.511 94.89201" stroke="#000000" stroke-width="0.398" fill="none" /><path id="2064" transform="matrix(1 0 0 -1 0 841)" d="M144.89 81.632L144.89 94.89201" stroke="#000000" stroke-width="0.398" fill="none" /><path id="2065" transform="matrix(1 0 0 -1 0 841)" d="M112.312 81.632L145.089 81.632" stroke="#000000" stroke-width="0.398" fill="none" /><g transform="matrix(0.2 0 0 0.2 249.239 774.845)"><g transform="matrix(1 0 0 1 0 0)"><image x="0" y="0" xlink:href="img_04.png" width="484" height="104" /></g></g></g></g></svg>