<svg xmlns="http://www.w3.org/2000/svg" xmlns:xlink="http://www.w3.org/1999/xlink" id="body_321" preserveAspectRatio="xMinYMin meet" viewBox="0 0 793 1121"><defs><clipPath id="1"><path id="" clip-rule="evenodd" transform="matrix(1 0 0 1 0 0)" d="M0 841L0 -0.8900146L0 -0.8900146L595.276 -0.8900146L595.276 -0.8900146L595.276 841L595.276 841L0 841z" /></clipPath></defs><g transform="matrix(1.333333 0 0 1.333333 0 0)"><g clip-path="url(#1)"><path id="23" transform="matrix(1 0 0 -1 0 841)" d="M85.039 766.564L510.236 766.564" stroke="#000000" stroke-width="0.498" fill="none" /><path id="95" transform="matrix(1 0 0 -1 0 841)" d="M136.063 727.585L159.804 727.585L159.804 738.793L136.063 738.793z" stroke="none" fill="#FFF100" fill-rule="nonzero" /><path id="101" transform="matrix(1 0 0 -1 0 841)" d="M159.555 727.585L162.046 727.585L162.046 738.793L159.555 738.793z" stroke="none" fill="#FFF100" fill-rule="nonzero" /><path id="102" transform="matrix(1 0 0 -1 0 841)" d="M161.797 727.585L170.046 727.585L170.046 738.793L161.797 738.793z" stroke="none" fill="#FFF100" fill-rule="nonzero" /><path id="105" transform="matrix(1 0 0 -1 0 841)" d="M169.796 727.585L172.287 727.585L172.287 738.793L169.796 738.793z" stroke="none" fill="#FFF100" fill-rule="nonzero" /><path id="106" transform="matrix(1 0 0 -1 0 841)" d="M172.038 727.585L184.71 727.585L184.71 738.793L172.038 738.793z" stroke="none" fill="#FFF100" fill-rule="nonzero" /><path id="110" transform="matrix(1 0 0 -1 0 841)" d="M184.461 727.585L186.952 727.585L186.952 738.793L184.461 738.793z" stroke="none" fill="#FFF100" fill-rule="nonzero" /><path id="111" transform="matrix(1 0 0 -1 0 841)" d="M186.703 727.585L207.674 727.585L207.674 738.793L186.703 738.793z" stroke="none" fill="#FFF100" fill-rule="nonzero" /><path id="116" transform="matrix(1 0 0 -1 0 841)" d="M207.425 727.585L209.916 727.585L209.916 738.793L207.425 738.793z" stroke="none" fill="#FFF100" fill-rule="nonzero" /><path id="117" transform="matrix(1 0 0 -1 0 841)" d="M209.666 727.585L227.878 727.585L227.878 738.793L209.666 738.793z" stroke="none" fill="#FFF100" fill-rule="nonzero" /><path id="121" transform="matrix(1 0 0 -1 0 841)" d="M227.38 727.585L240.6 727.585L240.6 738.793L227.38 738.793z" stroke="none" fill="#FFF100" fill-rule="nonzero" /><path id="125" transform="matrix(1 0 0 -1 0 841)" d="M240.351 727.585L242.842 727.585L242.842 738.793L240.351 738.793z" stroke="none" fill="#FFF100" fill-rule="nonzero" /><path id="126" transform="matrix(1 0 0 -1 0 841)" d="M242.593 727.585L251.39 727.585L251.39 738.793L242.593 738.793z" stroke="none" fill="#FFF100" fill-rule="nonzero" /><path id="129" transform="matrix(1 0 0 -1 0 841)" d="M251.141 727.585L253.632 727.585L253.632 738.793L251.141 738.793z" stroke="none" fill="#FFF100" fill-rule="nonzero" /><path id="130" transform="matrix(1 0 0 -1 0 841)" d="M253.382 727.585L265.506 727.585L265.506 738.793L253.382 738.793z" stroke="none" fill="#FFF100" fill-rule="nonzero" /><path id="134" transform="matrix(1 0 0 -1 0 841)" d="M265.008 727.585L276.027 727.585L276.027 738.793L265.008 738.793z" stroke="none" fill="#FFF100" fill-rule="nonzero" /><path id="138" transform="matrix(1 0 0 -1 0 841)" d="M275.529 727.585L278.797 727.585L278.797 738.793L275.529 738.793z" stroke="none" fill="#FFF100" fill-rule="nonzero" /><path id="140" transform="matrix(1 0 0 -1 0 841)" d="M278.298 727.585L295.394 727.585L295.394 738.793L278.298 738.793z" stroke="none" fill="#FFF100" fill-rule="nonzero" /><path id="145" transform="matrix(1 0 0 -1 0 841)" d="M295.145 727.585L297.636 727.585L297.636 738.793L295.145 738.793z" stroke="none" fill="#FFF100" fill-rule="nonzero" /><path id="146" transform="matrix(1 0 0 -1 0 841)" d="M297.387 727.585L308.406 727.585L308.406 738.793L297.387 738.793z" stroke="none" fill="#FFF100" fill-rule="nonzero" /><path id="149" transform="matrix(1 0 0 -1 0 841)" d="M307.907 727.585L325.003 727.585L325.003 738.793L307.907 738.793z" stroke="none" fill="#FFF100" fill-rule="nonzero" /><path id="154" transform="matrix(1 0 0 -1 0 841)" d="M324.754 727.585L327.245 727.585L327.245 738.793L324.754 738.793z" stroke="none" fill="#FFF100" fill-rule="nonzero" /><path id="155" transform="matrix(1 0 0 -1 0 841)" d="M326.995 727.585L335.792 727.585L335.792 738.793L326.995 738.793z" stroke="none" fill="#FFF100" fill-rule="nonzero" /><path id="158" transform="matrix(1 0 0 -1 0 841)" d="M335.543 727.585L338.034 727.585L338.034 738.793L335.543 738.793z" stroke="none" fill="#FFF100" fill-rule="nonzero" /><path id="159" transform="matrix(1 0 0 -1 0 841)" d="M337.785 727.585L350.457 727.585L350.457 738.793L337.785 738.793z" stroke="none" fill="#FFF100" fill-rule="nonzero" /><path id="163" transform="matrix(1 0 0 -1 0 841)" d="M350.208 727.585L352.699 727.585L352.699 738.793L350.208 738.793z" stroke="none" fill="#FFF100" fill-rule="nonzero" /><path id="164" transform="matrix(1 0 0 -1 0 841)" d="M352.45 727.585L371.209 727.585L371.209 738.793L352.45 738.793z" stroke="none" fill="#FFF100" fill-rule="nonzero" /><path id="170" transform="matrix(1 0 0 -1 0 841)" d="M370.96 727.585L373.451 727.585L373.451 738.793L370.96 738.793z" stroke="none" fill="#FFF100" fill-rule="nonzero" /><path id="171" transform="matrix(1 0 0 -1 0 841)" d="M373.201 727.585L391.413 727.585L391.413 738.793L373.201 738.793z" stroke="none" fill="#FFF100" fill-rule="nonzero" /><path id="175" transform="matrix(1 0 0 -1 0 841)" d="M390.915 727.585L404.135 727.585L404.135 738.793L390.915 738.793z" stroke="none" fill="#FFF100" fill-rule="nonzero" /><path id="179" transform="matrix(1 0 0 -1 0 841)" d="M403.886 727.585L406.377 727.585L406.377 738.793L403.886 738.793z" stroke="none" fill="#FFF100" fill-rule="nonzero" /><path id="180" transform="matrix(1 0 0 -1 0 841)" d="M406.128 727.585L414.925 727.585L414.925 738.793L406.128 738.793z" stroke="none" fill="#FFF100" fill-rule="nonzero" /><path id="183" transform="matrix(1 0 0 -1 0 841)" d="M414.675 727.585L417.166 727.585L417.166 738.793L414.675 738.793z" stroke="none" fill="#FFF100" fill-rule="nonzero" /><path id="184" transform="matrix(1 0 0 -1 0 841)" d="M416.917 727.585L429.041 727.585L429.041 738.793L416.917 738.793z" stroke="none" fill="#FFF100" fill-rule="nonzero" /><path id="188" transform="matrix(1 0 0 -1 0 841)" d="M428.543 727.585L439.562 727.585L439.562 738.793L428.543 738.793z" stroke="none" fill="#FFF100" fill-rule="nonzero" /><path id="192" transform="matrix(1 0 0 -1 0 841)" d="M439.064 727.585L442.332 727.585L442.332 738.793L439.064 738.793z" stroke="none" fill="#FFF100" fill-rule="nonzero" /><path id="194" transform="matrix(1 0 0 -1 0 841)" d="M441.833 727.585L458.929 727.585L458.929 738.793L441.833 738.793z" stroke="none" fill="#FFF100" fill-rule="nonzero" /><path id="199" transform="matrix(1 0 0 -1 0 841)" d="M458.68 727.585L461.171 727.585L461.171 738.793L458.68 738.793z" stroke="none" fill="#FFF100" fill-rule="nonzero" /><path id="200" transform="matrix(1 0 0 -1 0 841)" d="M460.921 727.585L471.94 727.585L471.94 738.793L460.921 738.793z" stroke="none" fill="#FFF100" fill-rule="nonzero" /><path id="203" transform="matrix(1 0 0 -1 0 841)" d="M471.442 727.585L491.028 727.585L491.028 738.793L471.442 738.793z" stroke="none" fill="#FFF100" fill-rule="nonzero" /><path id="1491" transform="matrix(1 0 0 -1 0 841)" d="M86.235 266.326L93.607 266.326" stroke="#000000" stroke-width="0.398" fill="none" /><path id="1643" transform="matrix(1 0 0 -1 0 841)" d="M234.555 191.606L247.277 191.606" stroke="#000000" stroke-width="0.398" fill="none" /><path id="1725" transform="matrix(1 0 0 -1 0 841)" d="M112.063 111.565L128.053 111.565L128.053 122.773L112.063 122.773z" stroke="none" fill="#FFF100" fill-rule="nonzero" /><path id="1729" transform="matrix(1 0 0 -1 0 841)" d="M127.494 111.565L129.751 111.565L129.751 122.773L127.494 122.773z" stroke="none" fill="#FFF100" fill-rule="nonzero" /><path id="1730" transform="matrix(1 0 0 -1 0 841)" d="M129.502 111.565L154.349 111.565L154.349 122.773L129.502 122.773z" stroke="none" fill="#FFF100" fill-rule="nonzero" /><path id="1736" transform="matrix(1 0 0 -1 0 841)" d="M153.612 111.565L155.869 111.565L155.869 122.773L153.612 122.773z" stroke="none" fill="#FFF100" fill-rule="nonzero" /><path id="1737" transform="matrix(1 0 0 -1 0 841)" d="M155.62 111.565L162.763 111.565L162.763 122.773L155.62 122.773z" stroke="none" fill="#FFF100" fill-rule="nonzero" /><path id="1740" transform="matrix(1 0 0 -1 0 841)" d="M162.381 111.565L164.638 111.565L164.638 122.773L162.381 122.773z" stroke="none" fill="#FFF100" fill-rule="nonzero" /><path id="1741" transform="matrix(1 0 0 -1 0 841)" d="M164.389 111.565L179.273 111.565L179.273 122.773L164.389 122.773z" stroke="none" fill="#FFF100" fill-rule="nonzero" /><path id="1745" transform="matrix(1 0 0 -1 0 841)" d="M178.487 111.565L190.611 111.565L190.611 122.773L178.487 122.773z" stroke="none" fill="#FFF100" fill-rule="nonzero" /><path id="1749" transform="matrix(1 0 0 -1 0 841)" d="M189.881 111.565L207.525 111.565L207.525 122.773L189.881 122.773z" stroke="none" fill="#FFF100" fill-rule="nonzero" /><path id="1754" transform="matrix(1 0 0 -1 0 841)" d="M206.932 111.565L209.189 111.565L209.189 122.773L206.932 122.773z" stroke="none" fill="#FFF100" fill-rule="nonzero" /><path id="1755" transform="matrix(1 0 0 -1 0 841)" d="M208.94 111.565L217.737 111.565L217.737 122.773L208.94 122.773z" stroke="none" fill="#FFF100" fill-rule="nonzero" /><path id="1758" transform="matrix(1 0 0 -1 0 841)" d="M217.322 111.565L219.579 111.565L219.579 122.773L217.322 122.773z" stroke="none" fill="#FFF100" fill-rule="nonzero" /><path id="1759" transform="matrix(1 0 0 -1 0 841)" d="M219.33 111.565L224.809 111.565L224.809 122.773L219.33 122.773z" stroke="none" fill="#FFF100" fill-rule="nonzero" /><path id="1761" transform="matrix(1 0 0 -1 0 841)" d="M224.46 111.565L226.717 111.565L226.717 122.773L224.46 122.773z" stroke="none" fill="#FFF100" fill-rule="nonzero" /><path id="1762" transform="matrix(1 0 0 -1 0 841)" d="M226.468 111.565L235.265 111.565L235.265 122.773L226.468 122.773z" stroke="none" fill="#FFF100" fill-rule="nonzero" /><path id="1765" transform="matrix(1 0 0 -1 0 841)" d="M234.85 111.565L237.107 111.565L237.107 122.773L234.85 122.773z" stroke="none" fill="#FFF100" fill-rule="nonzero" /><path id="1766" transform="matrix(1 0 0 -1 0 841)" d="M236.858 111.565L260.599 111.565L260.599 122.773L236.858 122.773z" stroke="none" fill="#FFF100" fill-rule="nonzero" /><path id="1771" transform="matrix(1 0 0 -1 0 841)" d="M259.885 111.565L262.142 111.565L262.142 122.773L259.885 122.773z" stroke="none" fill="#FFF100" fill-rule="nonzero" /><path id="1772" transform="matrix(1 0 0 -1 0 841)" d="M261.892 111.565L276.776 111.565L276.776 122.773L261.892 122.773z" stroke="none" fill="#FFF100" fill-rule="nonzero" /><path id="1776" transform="matrix(1 0 0 -1 0 841)" d="M276.24 111.565L278.497 111.565L278.497 122.773L276.24 122.773z" stroke="none" fill="#FFF100" fill-rule="nonzero" /><path id="1777" transform="matrix(1 0 0 -1 0 841)" d="M278.247 111.565L283.168 111.565L283.168 122.773L278.247 122.773z" stroke="none" fill="#FFF100" fill-rule="nonzero" /><path id="1779" transform="matrix(1 0 0 -1 0 841)" d="M282.831 111.565L285.088 111.565L285.088 122.773L282.831 122.773z" stroke="none" fill="#FFF100" fill-rule="nonzero" /><path id="1780" transform="matrix(1 0 0 -1 0 841)" d="M284.839 111.565L300.829 111.565L300.829 122.773L284.839 122.773z" stroke="none" fill="#FFF100" fill-rule="nonzero" /><path id="1785" transform="matrix(1 0 0 -1 0 841)" d="M300.27 111.565L302.527 111.565L302.527 122.773L300.27 122.773z" stroke="none" fill="#FFF100" fill-rule="nonzero" /><path id="1786" transform="matrix(1 0 0 -1 0 841)" d="M302.277 111.565L311.074 111.565L311.074 122.773L302.277 122.773z" stroke="none" fill="#FFF100" fill-rule="nonzero" /><path id="1789" transform="matrix(1 0 0 -1 0 841)" d="M310.659 111.565L312.916 111.565L312.916 122.773L310.659 122.773z" stroke="none" fill="#FFF100" fill-rule="nonzero" /><path id="1790" transform="matrix(1 0 0 -1 0 841)" d="M312.667 111.565L325.339 111.565L325.339 122.773L312.667 122.773z" stroke="none" fill="#FFF100" fill-rule="nonzero" /><path id="1794" transform="matrix(1 0 0 -1 0 841)" d="M324.847 111.565L327.104 111.565L327.104 122.773L324.847 122.773z" stroke="none" fill="#FFF100" fill-rule="nonzero" /><path id="1795" transform="matrix(1 0 0 -1 0 841)" d="M326.854 111.565L351.701 111.565L351.701 122.773L326.854 122.773z" stroke="none" fill="#FFF100" fill-rule="nonzero" /><path id="1801" transform="matrix(1 0 0 -1 0 841)" d="M350.965 111.565L353.222 111.565L353.222 122.773L350.965 122.773z" stroke="none" fill="#FFF100" fill-rule="nonzero" /><path id="1802" transform="matrix(1 0 0 -1 0 841)" d="M352.973 111.565L367.299 111.565L367.299 122.773L352.973 122.773z" stroke="none" fill="#FFF100" fill-rule="nonzero" /><path id="1806" transform="matrix(1 0 0 -1 0 841)" d="M366.773 111.565L369.03 111.565L369.03 122.773L366.773 122.773z" stroke="none" fill="#FFF100" fill-rule="nonzero" /><path id="1807" transform="matrix(1 0 0 -1 0 841)" d="M368.781 111.565L378.684 111.565L378.684 122.773L368.781 122.773z" stroke="none" fill="#FFF100" fill-rule="nonzero" /><path id="1810" transform="matrix(1 0 0 -1 0 841)" d="M378.247 111.565L380.504 111.565L380.504 122.773L378.247 122.773z" stroke="none" fill="#FFF100" fill-rule="nonzero" /><path id="1811" transform="matrix(1 0 0 -1 0 841)" d="M380.254 111.565L390.007 111.565L390.007 122.773L380.254 122.773z" stroke="none" fill="#FFF100" fill-rule="nonzero" /><path id="1814" transform="matrix(1 0 0 -1 0 841)" d="M389.321 111.565L419.697 111.565L419.697 122.773L389.321 122.773z" stroke="none" fill="#FFF100" fill-rule="nonzero" /><path id="1822" transform="matrix(1 0 0 -1 0 841)" d="M418.851 111.565L421.108 111.565L421.108 122.773L418.851 122.773z" stroke="none" fill="#FFF100" fill-rule="nonzero" /><path id="1823" transform="matrix(1 0 0 -1 0 841)" d="M420.858 111.565L429.655 111.565L429.655 122.773L420.858 122.773z" stroke="none" fill="#FFF100" fill-rule="nonzero" /><path id="1826" transform="matrix(1 0 0 -1 0 841)" d="M429.24 111.565L431.497 111.565L431.497 122.773L429.24 122.773z" stroke="none" fill="#FFF100" fill-rule="nonzero" /><path id="1827" transform="matrix(1 0 0 -1 0 841)" d="M431.248 111.565L436.169 111.565L436.169 122.773L431.248 122.773z" stroke="none" fill="#FFF100" fill-rule="nonzero" /><path id="1829" transform="matrix(1 0 0 -1 0 841)" d="M435.832 111.565L438.089 111.565L438.089 122.773L435.832 122.773z" stroke="none" fill="#FFF100" fill-rule="nonzero" /><path id="1830" transform="matrix(1 0 0 -1 0 841)" d="M437.839 111.565L451.059 111.565L451.059 122.773L437.839 122.773z" stroke="none" fill="#FFF100" fill-rule="nonzero" /><path id="1834" transform="matrix(1 0 0 -1 0 841)" d="M450.307 111.565L469.893 111.565L469.893 122.773L450.307 122.773z" stroke="none" fill="#FFF100" fill-rule="nonzero" /><g transform="matrix(0.2 0 0 0.2 249.239 774.845)"><g transform="matrix(1 0 0 1 0 0)"><image x="0" y="0" xlink:href="img_04.png" width="484" height="104" /></g></g></g></g></svg>