<svg xmlns="http://www.w3.org/2000/svg" xmlns:xlink="http://www.w3.org/1999/xlink" id="body_128" preserveAspectRatio="xMinYMin meet" viewBox="0 0 793 1121"><defs><clipPath id="1"><path id="" clip-rule="evenodd" transform="matrix(1 0 0 1 0 0)" d="M0 841L0 -0.8900146L0 -0.8900146L595.276 -0.8900146L595.276 -0.8900146L595.276 841L595.276 841L0 841z" /></clipPath></defs><g transform="matrix(1.333333 0 0 1.333333 0 0)"><g clip-path="url(#1)"><path id="44" transform="matrix(1 0 0 -1 0 841)" d="M85.039 766.564L510.236 766.564" stroke="#000000" stroke-width="0.498" fill="none" /><path id="45" transform="matrix(1 0 0 -1 0 841)" d="M85.039 657.629L85.039 756.852L85.039 756.852L510.2413 756.852L510.2413 756.852L510.2413 657.629C 510.2413 655.2806 508.3377 653.377 505.9893 653.377L505.9893 653.377L89.29099 653.377C 86.94264 653.377 85.039 655.2806 85.039 657.629z" stroke="none" fill="#BFBFFF" fill-rule="nonzero" /><path id="46" transform="matrix(1 0 0 -1 0 841)" d="M86.45631 657.629L86.45631 756.852L86.45631 756.852L508.824 756.852L508.824 756.852L508.824 657.629C 508.824 656.0634 507.5549 654.7943 505.9893 654.7943L505.9893 654.7943L89.29099 654.7943C 87.72543 654.7943 86.45631 656.0634 86.45631 657.629z" stroke="none" fill="#E6E6FF" fill-rule="nonzero" /></g></g></svg>