<svg xmlns="http://www.w3.org/2000/svg" viewBox="0 0 57.52 709"><g id="Layer_2" data-name="Layer 2"><g id="DONT_TOUCH" data-name="DONT TOUCH"><g id="GRAPHNUMS"><rect width="50.67" height="709" fill="none"/><text transform="translate(22.55 142.71) scale(1.31 1)" font-size="13.3" font-family="ArialMT, Arial">50</text><text transform="translate(22.55 80.69) scale(1.31 1)" font-size="13.3" font-family="ArialMT, Arial">60</text><text transform="translate(22.69 204.84) scale(1.31 1)" font-size="13.3" font-family="ArialMT, Arial">40</text><text transform="translate(22.69 267.07) scale(1.31 1)" font-size="13.3" font-family="ArialMT, Arial">30</text><text transform="translate(22.69 329.09) scale(1.31 1)" font-size="13.3" font-family="ArialMT, Arial">20</text><text transform="translate(22.14 391.22) scale(1.31 1)" font-size="13.3" font-family="ArialMT, Arial">10</text><text transform="translate(22.69 18.46) scale(1.31 1)" font-size="13.3" font-family="ArialMT, Arial">90</text><text transform="translate(23.53 453.35) scale(1.31 1)" font-size="13.3" font-family="ArialMT, Arial"><tspan xml:space="preserve"> 0</tspan></text><text transform="translate(15.19 515.58) scale(1.31 1)" font-size="13.3" font-family="ArialMT, Arial">-10</text><text transform="translate(15.57 577.61) scale(1.31 1)" font-size="13.3" font-family="ArialMT, Arial">-20</text><text transform="translate(10.75 639.73) scale(1.31 1)" font-size="13.3" font-family="ArialMT, Arial"><tspan xml:space="preserve"> -30</tspan></text><text transform="translate(15.57 701.97) scale(1.31 1)" font-size="13.3" font-family="ArialMT, Arial">-40</text></g><g id="GRAPH_BREAKS" data-name="GRAPH BREAKS"><line x1="55.01" y1="45.36" x2="56.06" y2="43.25" fill="none" stroke="#999" stroke-linecap="round" stroke-linejoin="round"/><line x1="56.06" y1="48.68" x2="57.02" y2="46.33" fill="none" stroke="#999" stroke-linecap="round" stroke-linejoin="round"/><line x1="55.01" y1="45.36" x2="57.02" y2="46.33" fill="none" stroke="#999" stroke-linecap="round" stroke-linejoin="round"/><line x1="56.06" y1="51.67" x2="56.06" y2="75.25" fill="none" stroke="#999" stroke-linecap="round" stroke-linejoin="round"/><line x1="56.06" y1="16.85" x2="56.06" y2="40.08" fill="none" stroke="#999" stroke-linecap="round" stroke-linejoin="round"/></g></g></g></svg>