<svg xmlns="http://www.w3.org/2000/svg" xmlns:xlink="http://www.w3.org/1999/xlink" id="body_391" preserveAspectRatio="xMinYMin meet" viewBox="0 0 793 1121"><defs><clipPath id="1"><path id="" clip-rule="evenodd" transform="matrix(1 0 0 1 0 0)" d="M0 841L0 -0.8900146L0 -0.8900146L595.276 -0.8900146L595.276 -0.8900146L595.276 841L595.276 841L0 841z" /></clipPath></defs><g transform="matrix(1.333333 0 0 1.333333 0 0)"><g clip-path="url(#1)"><path id="23" transform="matrix(1 0 0 -1 0 841)" d="M85.039 766.564L510.236 766.564" stroke="#000000" stroke-width="0.498" fill="none" /><path id="191" transform="matrix(1 0 0 -1 0 841)" d="M165.064 695.046L359.044 695.046" stroke="#000000" stroke-width="0.398" fill="none" /><path id="207" transform="matrix(1 0 0 -1 0 841)" d="M389.108 695.046L401.282 695.046" stroke="#000000" stroke-width="0.398" fill="none" /><path id="220" transform="matrix(1 0 0 -1 0 841)" d="M135.176 656.39L175.534 656.39" stroke="#000000" stroke-width="0.398" fill="none" /><path id="236" transform="matrix(1 0 0 -1 0 841)" d="M205.6 656.39L217.774 656.39" stroke="#000000" stroke-width="0.398" fill="none" /><path id="245" transform="matrix(1 0 0 -1 0 841)" d="M231.138 664.505L268.308 664.505" stroke="#000000" stroke-width="0.398" fill="none" /><path id="246" transform="matrix(1 0 0 -1 0 841)" d="M231.337 648.221L231.337 664.505" stroke="#000000" stroke-width="0.398" fill="none" /><path id="247" transform="matrix(1 0 0 -1 0 841)" d="M268.109 648.221L268.109 664.505" stroke="#000000" stroke-width="0.398" fill="none" /><path id="248" transform="matrix(1 0 0 -1 0 841)" d="M231.138 648.221L268.308 648.221" stroke="#000000" stroke-width="0.398" fill="none" /><path id="446" transform="matrix(1 0 0 -1 0 841)" d="M148.495 594.482L411.924 594.482" stroke="#000000" stroke-width="0.398" fill="none" /><path id="485" transform="matrix(1 0 0 -1 0 841)" d="M166.064 562.247L185.989 562.247" stroke="#000000" stroke-width="0.398" fill="none" /><path id="506" transform="matrix(1 0 0 -1 0 841)" d="M228.706 569.804L317.045 569.804" stroke="#000000" stroke-width="0.398" fill="none" /><path id="507" transform="matrix(1 0 0 -1 0 841)" d="M228.905 554.636L228.905 569.804" stroke="#000000" stroke-width="0.398" fill="none" /><path id="508" transform="matrix(1 0 0 -1 0 841)" d="M316.845 554.636L316.845 569.804" stroke="#000000" stroke-width="0.398" fill="none" /><path id="509" transform="matrix(1 0 0 -1 0 841)" d="M228.706 554.636L317.045 554.636" stroke="#000000" stroke-width="0.398" fill="none" /><path id="740" transform="matrix(1 0 0 -1 0 841)" d="M148.495 434.192L411.924 434.192" stroke="#000000" stroke-width="0.398" fill="none" /><path id="785" transform="matrix(1 0 0 -1 0 841)" d="M148.495 401.817L405.352 401.817" stroke="#000000" stroke-width="0.398" fill="none" /><path id="819" transform="matrix(1 0 0 -1 0 841)" d="M289.511 389.31L320.455 389.31" stroke="#000000" stroke-width="0.398" fill="none" /><path id="826" transform="matrix(1 0 0 -1 0 841)" d="M330.595 389.31L378.704 389.31" stroke="#000000" stroke-width="0.398" fill="none" /><path id="847" transform="matrix(1 0 0 -1 0 841)" d="M418.716 409.319L443.194 409.319" stroke="#000000" stroke-width="0.398" fill="none" /><path id="848" transform="matrix(1 0 0 -1 0 841)" d="M418.915 395.984L418.915 409.319" stroke="#000000" stroke-width="0.398" fill="none" /><path id="849" transform="matrix(1 0 0 -1 0 841)" d="M442.995 395.984L442.995 409.319" stroke="#000000" stroke-width="0.398" fill="none" /><path id="850" transform="matrix(1 0 0 -1 0 841)" d="M418.716 395.984L443.194 395.984" stroke="#000000" stroke-width="0.398" fill="none" /><g transform="matrix(0.2 0 0 0.2 249.239 774.845)"><g transform="matrix(1 0 0 1 0 0)"><image x="0" y="0" xlink:href="img_04.png" width="484" height="104" /></g></g></g></g></svg>