<svg xmlns="http://www.w3.org/2000/svg" xmlns:xlink="http://www.w3.org/1999/xlink" id="body_349" preserveAspectRatio="xMinYMin meet" viewBox="0 0 793 1121"><defs><clipPath id="1"><path id="" clip-rule="evenodd" transform="matrix(1 0 0 1 0 0)" d="M0 841L0 -0.8900146L0 -0.8900146L595.276 -0.8900146L595.276 -0.8900146L595.276 841L595.276 841L0 841z" /></clipPath></defs><g transform="matrix(1.333333 0 0 1.333333 0 0)"><g clip-path="url(#1)"><path id="23" transform="matrix(1 0 0 -1 0 841)" d="M85.039 766.564L510.236 766.564" stroke="#000000" stroke-width="0.498" fill="none" /><path id="87" transform="matrix(1 0 0 -1 0 841)" d="M358.918 733.683L387.949 733.683" stroke="#000000" stroke-width="0.398" fill="none" /><path id="91" transform="matrix(1 0 0 -1 0 841)" d="M284.109 720.931L389.144 720.931" stroke="#000000" stroke-width="0.398" fill="none" /><g transform="matrix(1 0 0 1 223.274 139.053)"><g transform="matrix(1 0 0 1 0 0)"><image x="0" y="0" xlink:href="img_499.png" width="176" height="71" /></g></g><path id="127" transform="matrix(1 0 0 -1 0 841)" d="M144.583 612.665L189.743 612.665" stroke="#000000" stroke-width="0.398" fill="none" /><path id="153" transform="matrix(1 0 0 -1 0 841)" d="M276.221 612.665L321.381 612.665" stroke="#000000" stroke-width="0.398" fill="none" /><path id="163" transform="matrix(1 0 0 -1 0 841)" d="M123.462 599.913L322.576 599.913" stroke="#000000" stroke-width="0.398" fill="none" /><path id="166" transform="matrix(1 0 0 -1 0 841)" d="M193.528 589.348L199.804 589.348" stroke="#000000" stroke-width="0.398" fill="none" /><path id="190" transform="matrix(1 0 0 -1 0 841)" d="M363.209 599.913L401.722 599.913" stroke="#000000" stroke-width="0.398" fill="none" /><path id="198" transform="matrix(1 0 0 -1 0 841)" d="M335.941 614.214L406.304 614.214" stroke="#000000" stroke-width="0.398" fill="none" /><path id="199" transform="matrix(1 0 0 -1 0 841)" d="M336.14 585.318L336.14 614.214" stroke="#000000" stroke-width="0.398" fill="none" /><path id="200" transform="matrix(1 0 0 -1 0 841)" d="M406.105 585.318L406.105 614.214" stroke="#000000" stroke-width="0.398" fill="none" /><path id="201" transform="matrix(1 0 0 -1 0 841)" d="M335.941 585.318L406.304 585.318" stroke="#000000" stroke-width="0.398" fill="none" /><path id="513" transform="matrix(1 0 0 -1 0 841)" d="M323.663 468.176L400.131 468.176" stroke="#000000" stroke-width="0.398" fill="none" /><path id="682" transform="matrix(1 0 0 -1 0 841)" d="M112.063 392.364L128.053 392.364L128.053 403.572L112.063 403.572z" stroke="none" fill="#FFF100" fill-rule="nonzero" /><path id="686" transform="matrix(1 0 0 -1 0 841)" d="M127.943 392.364L130.432 392.364L130.432 403.572L127.943 403.572z" stroke="none" fill="#FFF100" fill-rule="nonzero" /><path id="687" transform="matrix(1 0 0 -1 0 841)" d="M130.183 392.364L152.011 392.364L152.011 403.572L130.183 403.572z" stroke="none" fill="#FFF100" fill-rule="nonzero" /><path id="693" transform="matrix(1 0 0 -1 0 841)" d="M151.956 392.364L154.445 392.364L154.445 403.572L151.956 403.572z" stroke="none" fill="#FFF100" fill-rule="nonzero" /><path id="694" transform="matrix(1 0 0 -1 0 841)" d="M154.196 392.364L162.993 392.364L162.993 403.572L154.196 403.572z" stroke="none" fill="#FFF100" fill-rule="nonzero" /><path id="697" transform="matrix(1 0 0 -1 0 841)" d="M162.818 392.364L165.307 392.364L165.307 403.572L162.818 403.572z" stroke="none" fill="#FFF100" fill-rule="nonzero" /><path id="698" transform="matrix(1 0 0 -1 0 841)" d="M165.058 392.364L183.625 392.364L183.625 403.572L165.058 403.572z" stroke="none" fill="#FFF100" fill-rule="nonzero" /><path id="703" transform="matrix(1 0 0 -1 0 841)" d="M183.376 392.364L185.865 392.364L185.865 403.572L183.376 403.572z" stroke="none" fill="#FFF100" fill-rule="nonzero" /><path id="704" transform="matrix(1 0 0 -1 0 841)" d="M185.616 392.364L200.5 392.364L200.5 403.572L185.616 403.572z" stroke="none" fill="#FFF100" fill-rule="nonzero" /><path id="708" transform="matrix(1 0 0 -1 0 841)" d="M200.381 392.364L202.87 392.364L202.87 403.572L200.381 403.572z" stroke="none" fill="#FFF100" fill-rule="nonzero" /><path id="709" transform="matrix(1 0 0 -1 0 841)" d="M202.62 392.364L225.19 392.364L225.19 403.572L202.62 403.572z" stroke="none" fill="#FFF100" fill-rule="nonzero" /><path id="715" transform="matrix(1 0 0 -1 0 841)" d="M224.942 392.364L227.431 392.364L227.431 403.572L224.942 403.572z" stroke="none" fill="#FFF100" fill-rule="nonzero" /><path id="716" transform="matrix(1 0 0 -1 0 841)" d="M227.181 392.364L239.295 392.364L239.295 403.572L227.181 403.572z" stroke="none" fill="#FFF100" fill-rule="nonzero" /><path id="720" transform="matrix(1 0 0 -1 0 841)" d="M239.151 392.364L241.64 392.364L241.64 403.572L239.151 403.572z" stroke="none" fill="#FFF100" fill-rule="nonzero" /><path id="721" transform="matrix(1 0 0 -1 0 841)" d="M241.391 392.364L254.063 392.364L254.063 403.572L241.391 403.572z" stroke="none" fill="#FFF100" fill-rule="nonzero" /><path id="725" transform="matrix(1 0 0 -1 0 841)" d="M253.924 392.364L256.413 392.364L256.413 403.572L253.924 403.572z" stroke="none" fill="#FFF100" fill-rule="nonzero" /><path id="726" transform="matrix(1 0 0 -1 0 841)" d="M256.164 392.364L264.413 392.364L264.413 403.572L256.164 403.572z" stroke="none" fill="#FFF100" fill-rule="nonzero" /><path id="729" transform="matrix(1 0 0 -1 0 841)" d="M263.984 392.364L288.273 392.364L288.273 403.572L263.984 403.572z" stroke="none" fill="#FFF100" fill-rule="nonzero" /><path id="736" transform="matrix(1 0 0 -1 0 841)" d="M288.238 392.364L290.727 392.364L290.727 403.572L288.238 403.572z" stroke="none" fill="#FFF100" fill-rule="nonzero" /><path id="737" transform="matrix(1 0 0 -1 0 841)" d="M290.477 392.364L303.707 392.364L303.707 403.572L290.477 403.572z" stroke="none" fill="#FFF100" fill-rule="nonzero" /><path id="740" transform="matrix(1 0 0 -1 0 841)" d="M303.573 392.364L306.062 392.364L306.062 403.572L303.573 403.572z" stroke="none" fill="#FFF100" fill-rule="nonzero" /><path id="741" transform="matrix(1 0 0 -1 0 841)" d="M305.813 392.364L314.052 392.364L314.052 403.572L305.813 403.572z" stroke="none" fill="#FFF100" fill-rule="nonzero" /><path id="744" transform="matrix(1 0 0 -1 0 841)" d="M313.624 392.364L328.508 392.364L328.508 403.572L313.624 403.572z" stroke="none" fill="#FFF100" fill-rule="nonzero" /><path id="748" transform="matrix(1 0 0 -1 0 841)" d="M328.139 392.364L344.139 392.364L344.139 403.572L328.139 403.572z" stroke="none" fill="#FFF100" fill-rule="nonzero" /><path id="753" transform="matrix(1 0 0 -1 0 841)" d="M344.029 392.364L346.518 392.364L346.518 403.572L344.029 403.572z" stroke="none" fill="#FFF100" fill-rule="nonzero" /><path id="754" transform="matrix(1 0 0 -1 0 841)" d="M346.269 392.364L365.576 392.364L365.576 403.572L346.269 403.572z" stroke="none" fill="#FFF100" fill-rule="nonzero" /><path id="759" transform="matrix(1 0 0 -1 0 841)" d="M365.507 392.364L367.996 392.364L367.996 403.572L365.507 403.572z" stroke="none" fill="#FFF100" fill-rule="nonzero" /><path id="760" transform="matrix(1 0 0 -1 0 841)" d="M367.746 392.364L395.352 392.364L395.352 403.572L367.746 403.572z" stroke="none" fill="#FFF100" fill-rule="nonzero" /><path id="767" transform="matrix(1 0 0 -1 0 841)" d="M395.347 392.364L397.836 392.364L397.836 403.572L395.347 403.572z" stroke="none" fill="#FFF100" fill-rule="nonzero" /><path id="768" transform="matrix(1 0 0 -1 0 841)" d="M397.587 392.364L416.894 392.364L416.894 403.572L397.587 403.572z" stroke="none" fill="#FFF100" fill-rule="nonzero" /><path id="773" transform="matrix(1 0 0 -1 0 841)" d="M416.566 392.364L432.566 392.364L432.566 403.572L416.566 403.572z" stroke="none" fill="#FFF100" fill-rule="nonzero" /><path id="778" transform="matrix(1 0 0 -1 0 841)" d="M432.456 392.364L434.945 392.364L434.945 403.572L432.456 403.572z" stroke="none" fill="#FFF100" fill-rule="nonzero" /><path id="779" transform="matrix(1 0 0 -1 0 841)" d="M434.696 392.364L458.686 392.364L458.686 403.572L434.696 403.572z" stroke="none" fill="#FFF100" fill-rule="nonzero" /><path id="785" transform="matrix(1 0 0 -1 0 841)" d="M458.651 392.364L461.14 392.364L461.14 403.572L458.651 403.572z" stroke="none" fill="#FFF100" fill-rule="nonzero" /><path id="786" transform="matrix(1 0 0 -1 0 841)" d="M460.89 392.364L487.958 392.364L487.958 403.572L460.89 403.572z" stroke="none" fill="#FFF100" fill-rule="nonzero" /><path id="793" transform="matrix(1 0 0 -1 0 841)" d="M487.949 392.364L490.438 392.364L490.438 403.572L487.949 403.572z" stroke="none" fill="#FFF100" fill-rule="nonzero" /><path id="794" transform="matrix(1 0 0 -1 0 841)" d="M490.188 392.364L500.091 392.364L500.091 403.572L490.188 403.572z" stroke="none" fill="#FFF100" fill-rule="nonzero" /><path id="797" transform="matrix(1 0 0 -1 0 841)" d="M499.927 392.364L502.416 392.364L502.416 403.572L499.927 403.572z" stroke="none" fill="#FFF100" fill-rule="nonzero" /><path id="798" transform="matrix(1 0 0 -1 0 841)" d="M502.167 392.364L510.416 392.364L510.416 403.572L502.167 403.572z" stroke="none" fill="#FFF100" fill-rule="nonzero" /><path id="801" transform="matrix(1 0 0 -1 0 841)" d="M112.063 377.42L128.043 377.42L128.043 388.628L112.063 388.628z" stroke="none" fill="#FFF100" fill-rule="nonzero" /><path id="806" transform="matrix(1 0 0 -1 0 841)" d="M127.545 377.42L143.545 377.42L143.545 388.628L127.545 388.628z" stroke="none" fill="#FFF100" fill-rule="nonzero" /><path id="811" transform="matrix(1 0 0 -1 0 841)" d="M143.296 377.42L145.787 377.42L145.787 388.628L143.296 388.628z" stroke="none" fill="#FFF100" fill-rule="nonzero" /><path id="812" transform="matrix(1 0 0 -1 0 841)" d="M145.537 377.42L160.421 377.42L160.421 388.628L145.537 388.628z" stroke="none" fill="#FFF100" fill-rule="nonzero" /><path id="816" transform="matrix(1 0 0 -1 0 841)" d="M160.172 377.42L162.663 377.42L162.663 388.628L160.172 388.628z" stroke="none" fill="#FFF100" fill-rule="nonzero" /><path id="817" transform="matrix(1 0 0 -1 0 841)" d="M162.414 377.42L175.644 377.42L175.644 388.628L162.414 388.628z" stroke="none" fill="#FFF100" fill-rule="nonzero" /><path id="821" transform="matrix(1 0 0 -1 0 841)" d="M175.395 377.42L177.886 377.42L177.886 388.628L175.395 388.628z" stroke="none" fill="#FFF100" fill-rule="nonzero" /><path id="822" transform="matrix(1 0 0 -1 0 841)" d="M177.637 377.42L186.434 377.42L186.434 388.628L177.637 388.628z" stroke="none" fill="#FFF100" fill-rule="nonzero" /><path id="825" transform="matrix(1 0 0 -1 0 841)" d="M186.184 377.42L188.675 377.42L188.675 388.628L186.184 388.628z" stroke="none" fill="#FFF100" fill-rule="nonzero" /><path id="826" transform="matrix(1 0 0 -1 0 841)" d="M188.426 377.42L193.347 377.42L193.347 388.628L188.426 388.628z" stroke="none" fill="#FFF100" fill-rule="nonzero" /><path id="828" transform="matrix(1 0 0 -1 0 841)" d="M193.098 377.42L195.589 377.42L195.589 388.628L193.098 388.628z" stroke="none" fill="#FFF100" fill-rule="nonzero" /><path id="829" transform="matrix(1 0 0 -1 0 841)" d="M195.34 377.42L208.56 377.42L208.56 388.628L195.34 388.628z" stroke="none" fill="#FFF100" fill-rule="nonzero" /><path id="833" transform="matrix(1 0 0 -1 0 841)" d="M208.062 377.42L225.158 377.42L225.158 388.628L208.062 388.628z" stroke="none" fill="#FFF100" fill-rule="nonzero" /><path id="838" transform="matrix(1 0 0 -1 0 841)" d="M224.66 377.42L241.477 377.42L241.477 388.628L224.66 388.628z" stroke="none" fill="#FFF100" fill-rule="nonzero" /><path id="1055" transform="matrix(1 0 0 -1 0 841)" d="M112.063 282.858L123.63 282.858L123.63 294.066L112.063 294.066z" stroke="none" fill="#FFF100" fill-rule="nonzero" /><path id="1058" transform="matrix(1 0 0 -1 0 841)" d="M123.132 282.858L135.804 282.858L135.804 294.066L123.132 294.066z" stroke="none" fill="#FFF100" fill-rule="nonzero" /><path id="1061" transform="matrix(1 0 0 -1 0 841)" d="M135.306 282.858L147.978 282.858L147.978 294.066L135.306 294.066z" stroke="none" fill="#FFF100" fill-rule="nonzero" /><path id="1065" transform="matrix(1 0 0 -1 0 841)" d="M147.729 282.858L150.22 282.858L150.22 294.066L147.729 294.066z" stroke="none" fill="#FFF100" fill-rule="nonzero" /><path id="1066" transform="matrix(1 0 0 -1 0 841)" d="M149.971 282.858L169.288 282.858L169.288 294.066L149.971 294.066z" stroke="none" fill="#FFF100" fill-rule="nonzero" /><path id="1071" transform="matrix(1 0 0 -1 0 841)" d="M168.79 282.858L187.001 282.858L187.001 294.066L168.79 294.066z" stroke="none" fill="#FFF100" fill-rule="nonzero" /><path id="1280" transform="matrix(1 0 0 -1 0 841)" d="M277.076 242.121L343.462 242.121" stroke="#000000" stroke-width="0.398" fill="none" /><path id="1302" transform="matrix(1 0 0 -1 0 841)" d="M379.519 249.622L404.555 249.622" stroke="#000000" stroke-width="0.398" fill="none" /><path id="1303" transform="matrix(1 0 0 -1 0 841)" d="M379.718 236.288L379.718 249.623" stroke="#000000" stroke-width="0.398" fill="none" /><path id="1304" transform="matrix(1 0 0 -1 0 841)" d="M404.356 236.288L404.356 249.623" stroke="#000000" stroke-width="0.398" fill="none" /><path id="1305" transform="matrix(1 0 0 -1 0 841)" d="M379.519 236.288L404.555 236.288" stroke="#000000" stroke-width="0.398" fill="none" /><g transform="matrix(0.2 0 0 0.2 249.239 774.845)"><g transform="matrix(1 0 0 1 0 0)"><image x="0" y="0" xlink:href="img_04.png" width="484" height="104" /></g></g></g></g></svg>