<svg xmlns="http://www.w3.org/2000/svg" xmlns:xlink="http://www.w3.org/1999/xlink" id="body_399" preserveAspectRatio="xMinYMin meet" viewBox="0 0 793 1121"><defs><clipPath id="1"><path id="" clip-rule="evenodd" transform="matrix(1 0 0 1 0 0)" d="M0 841L0 -0.8900146L0 -0.8900146L595.276 -0.8900146L595.276 -0.8900146L595.276 841L595.276 841L0 841z" /></clipPath></defs><g transform="matrix(1.333333 0 0 1.333333 0 0)"><g clip-path="url(#1)"><path id="23" transform="matrix(1 0 0 -1 0 841)" d="M85.039 766.564L510.236 766.564" stroke="#000000" stroke-width="0.498" fill="none" /><path id="27" transform="matrix(1 0 0 -1 0 841)" d="M113.508 745.737L128.412 745.737" stroke="#000000" stroke-width="0.398" fill="none" /><path id="50" transform="matrix(1 0 0 -1 0 841)" d="M230.609 745.737L242.783 745.737" stroke="#000000" stroke-width="0.398" fill="none" /><path id="83" transform="matrix(1 0 0 -1 0 841)" d="M181.835 693.979L279.316 693.979" stroke="#000000" stroke-width="0.398" fill="none" /><path id="92" transform="matrix(1 0 0 -1 0 841)" d="M205.715 681.471L220.619 681.471" stroke="#000000" stroke-width="0.398" fill="none" /><path id="100" transform="matrix(1 0 0 -1 0 841)" d="M233.519 681.471L248.423 681.471" stroke="#000000" stroke-width="0.398" fill="none" /><path id="112" transform="matrix(1 0 0 -1 0 841)" d="M113.508 629.658L128.412 629.658" stroke="#000000" stroke-width="0.398" fill="none" /><path id="128" transform="matrix(1 0 0 -1 0 841)" d="M172.67 629.658L201.443 629.658" stroke="#000000" stroke-width="0.398" fill="none" /><path id="145" transform="matrix(1 0 0 -1 0 841)" d="M272.987 629.658L287.891 629.658" stroke="#000000" stroke-width="0.398" fill="none" /><path id="157" transform="matrix(1 0 0 -1 0 841)" d="M137.299 577.845L152.203 577.845" stroke="#000000" stroke-width="0.398" fill="none" /><path id="204" transform="matrix(1 0 0 -1 0 841)" d="M220.579 522.644L269.823 522.644" stroke="#000000" stroke-width="0.398" fill="none" /><path id="237" transform="matrix(1 0 0 -1 0 841)" d="M389.424 522.644L404.328 522.644" stroke="#000000" stroke-width="0.398" fill="none" /><path id="241" transform="matrix(1 0 0 -1 0 841)" d="M356.068 536.946L408.911 536.946" stroke="#000000" stroke-width="0.398" fill="none" /><path id="242" transform="matrix(1 0 0 -1 0 841)" d="M356.267 508.099L356.267 536.946" stroke="#000000" stroke-width="0.398" fill="none" /><path id="243" transform="matrix(1 0 0 -1 0 841)" d="M408.711 508.099L408.711 536.946" stroke="#000000" stroke-width="0.398" fill="none" /><path id="244" transform="matrix(1 0 0 -1 0 841)" d="M356.068 508.099L408.911 508.099" stroke="#000000" stroke-width="0.398" fill="none" /><path id="474" transform="matrix(1 0 0 -1 0 841)" d="M148.495 442.864L352.498 442.864" stroke="#000000" stroke-width="0.398" fill="none" /><path id="513" transform="matrix(1 0 0 -1 0 841)" d="M166.064 417.638L180.809 417.638" stroke="#000000" stroke-width="0.398" fill="none" /><path id="531" transform="matrix(1 0 0 -1 0 841)" d="M223.525 425.194L298.035 425.194" stroke="#000000" stroke-width="0.398" fill="none" /><path id="532" transform="matrix(1 0 0 -1 0 841)" d="M223.724 411.79L223.724 425.195" stroke="#000000" stroke-width="0.398" fill="none" /><path id="533" transform="matrix(1 0 0 -1 0 841)" d="M297.836 411.79L297.836 425.195" stroke="#000000" stroke-width="0.398" fill="none" /><path id="534" transform="matrix(1 0 0 -1 0 841)" d="M223.525 411.79L298.035 411.79" stroke="#000000" stroke-width="0.398" fill="none" /><path id="563" transform="matrix(1 0 0 -1 0 841)" d="M245.415 394.19L275.302 394.19" stroke="#000000" stroke-width="0.398" fill="none" /><path id="584" transform="matrix(1 0 0 -1 0 841)" d="M305.785 394.19L342.489 394.19" stroke="#000000" stroke-width="0.398" fill="none" /><path id="596" transform="matrix(1 0 0 -1 0 841)" d="M140.646 371.5L177.35 371.5" stroke="#000000" stroke-width="0.398" fill="none" /><path id="603" transform="matrix(1 0 0 -1 0 841)" d="M191.909 371.5L225.483 371.5" stroke="#000000" stroke-width="0.398" fill="none" /><path id="627" transform="matrix(1 0 0 -1 0 841)" d="M267.221 371.5L315.071 371.5" stroke="#000000" stroke-width="0.398" fill="none" /><path id="629" transform="matrix(1 0 0 -1 0 841)" d="M238.847 385.636L319.654 385.636" stroke="#000000" stroke-width="0.398" fill="none" /><path id="630" transform="matrix(1 0 0 -1 0 841)" d="M239.046 358.987L239.046 385.637" stroke="#000000" stroke-width="0.398" fill="none" /><path id="631" transform="matrix(1 0 0 -1 0 841)" d="M319.455 358.987L319.455 385.637" stroke="#000000" stroke-width="0.398" fill="none" /><path id="632" transform="matrix(1 0 0 -1 0 841)" d="M238.847 358.987L319.654 358.987" stroke="#000000" stroke-width="0.398" fill="none" /><path id="929" transform="matrix(1 0 0 -1 0 841)" d="M237.445 139.602L313.913 139.602" stroke="#000000" stroke-width="0.398" fill="none" /><path id="983" transform="matrix(1 0 0 -1 0 841)" d="M237.445 102.474L323.756 102.474" stroke="#000000" stroke-width="0.398" fill="none" /><path id="1011" transform="matrix(1 0 0 -1 0 841)" d="M359.813 109.976L392.59 109.976" stroke="#000000" stroke-width="0.398" fill="none" /><path id="1012" transform="matrix(1 0 0 -1 0 841)" d="M360.013 96.641L360.013 109.976" stroke="#000000" stroke-width="0.398" fill="none" /><path id="1013" transform="matrix(1 0 0 -1 0 841)" d="M392.391 96.641L392.391 109.976" stroke="#000000" stroke-width="0.398" fill="none" /><path id="1014" transform="matrix(1 0 0 -1 0 841)" d="M359.813 96.641L392.59 96.641" stroke="#000000" stroke-width="0.398" fill="none" /><g transform="matrix(0.2 0 0 0.2 249.239 774.845)"><g transform="matrix(1 0 0 1 0 0)"><image x="0" y="0" xlink:href="img_04.png" width="484" height="104" /></g></g></g></g></svg>