<svg xmlns="http://www.w3.org/2000/svg" xmlns:xlink="http://www.w3.org/1999/xlink" id="body_105" preserveAspectRatio="xMinYMin meet" viewBox="0 0 793 1121"><defs><clipPath id="1"><path id="" clip-rule="evenodd" transform="matrix(1 0 0 1 0 0)" d="M0 841L0 -0.8900146L0 -0.8900146L595.276 -0.8900146L595.276 -0.8900146L595.276 841L595.276 841L0 841z" /></clipPath></defs><g transform="matrix(1.333333 0 0 1.333333 0 0)"><g clip-path="url(#1)"><path id="35" transform="matrix(1 0 0 -1 0 841)" d="M85.039 766.564L510.236 766.564" stroke="#000000" stroke-width="0.498" fill="none" /><path id="241" transform="matrix(1 0 0 -1 0 841)" d="M119.455 665.158L131.45 665.158" stroke="#000000" stroke-width="0.398" fill="none" /><path id="273" transform="matrix(1 0 0 -1 0 841)" d="M151.957 665.158L248.653 665.158" stroke="#000000" stroke-width="0.398" fill="none" /><path id="310" transform="matrix(1 0 0 -1 0 841)" d="M275.943 665.158L309.856 665.158" stroke="#000000" stroke-width="0.398" fill="none" /><path id="329" transform="matrix(1 0 0 -1 0 841)" d="M353.189 665.158L365.184 665.158" stroke="#000000" stroke-width="0.398" fill="none" /><path id="542" transform="matrix(1 0 0 -1 0 841)" d="M145.88 573.431L216.687 573.431" stroke="#000000" stroke-width="0.398" fill="none" /><path id="551" transform="matrix(1 0 0 -1 0 841)" d="M184.496 565.415L193.333 565.415" stroke="#000000" stroke-width="0.295" fill="none" /><path id="567" transform="matrix(1 0 0 -1 0 841)" d="M243.977 573.431L321.643 573.431" stroke="#000000" stroke-width="0.398" fill="none" /><path id="577" transform="matrix(1 0 0 -1 0 841)" d="M267.09 565.415L276.032 565.415" stroke="#000000" stroke-width="0.295" fill="none" /><path id="585" transform="matrix(1 0 0 -1 0 841)" d="M282.11 565.415L295.805 565.415" stroke="#000000" stroke-width="0.295" fill="none" /><path id="595" transform="matrix(1 0 0 -1 0 841)" d="M301.882 565.415L320.448 565.415" stroke="#000000" stroke-width="0.295" fill="none" /><g transform="matrix(0.2 0 0 0.2 249.239 774.845)"><g transform="matrix(1 0 0 1 0 0)"><image x="0" y="0" xlink:href="img_04.png" width="484" height="104" /></g></g></g></g></svg>