<svg xmlns="http://www.w3.org/2000/svg" xmlns:xlink="http://www.w3.org/1999/xlink" id="body_422" preserveAspectRatio="xMinYMin meet" viewBox="0 0 793 1121"><defs><clipPath id="1"><path id="" clip-rule="evenodd" transform="matrix(1 0 0 1 0 0)" d="M0 841L0 -0.8900146L0 -0.8900146L595.276 -0.8900146L595.276 -0.8900146L595.276 841L595.276 841L0 841z" /></clipPath></defs><g transform="matrix(1.333333 0 0 1.333333 0 0)"><g clip-path="url(#1)"><path id="31" transform="matrix(1 0 0 -1 0 841)" d="M85.039 766.564L510.236 766.564" stroke="#000000" stroke-width="0.498" fill="none" /><path id="64" transform="matrix(1 0 0 -1 0 841)" d="M261.445 745.792L342.775 745.792" stroke="#000000" stroke-width="0.398" fill="none" /><path id="91" transform="matrix(1 0 0 -1 0 841)" d="M378.832 753.294L411.609 753.294" stroke="#000000" stroke-width="0.398" fill="none" /><path id="92" transform="matrix(1 0 0 -1 0 841)" d="M379.031 739.959L379.031 753.294" stroke="#000000" stroke-width="0.398" fill="none" /><path id="93" transform="matrix(1 0 0 -1 0 841)" d="M411.41 739.959L411.41 753.294" stroke="#000000" stroke-width="0.398" fill="none" /><path id="94" transform="matrix(1 0 0 -1 0 841)" d="M378.832 739.959L411.609 739.959" stroke="#000000" stroke-width="0.398" fill="none" /><path id="207" transform="matrix(1 0 0 -1 0 841)" d="M192.302 638.503L261.312 638.503" stroke="#000000" stroke-width="0.398" fill="none" /><path id="225" transform="matrix(1 0 0 -1 0 841)" d="M271.452 638.503L357.508 638.503" stroke="#000000" stroke-width="0.398" fill="none" /><path id="253" transform="matrix(1 0 0 -1 0 841)" d="M370.872 648.247L438.34 648.247" stroke="#000000" stroke-width="0.398" fill="none" /><path id="254" transform="matrix(1 0 0 -1 0 841)" d="M371.072 630.742L371.072 648.247" stroke="#000000" stroke-width="0.398" fill="none" /><path id="255" transform="matrix(1 0 0 -1 0 841)" d="M438.141 630.742L438.141 648.247" stroke="#000000" stroke-width="0.398" fill="none" /><path id="256" transform="matrix(1 0 0 -1 0 841)" d="M370.872 630.742L438.34 630.742" stroke="#000000" stroke-width="0.398" fill="none" /><path id="392" transform="matrix(1 0 0 -1 0 841)" d="M164.905 533.492L210.065 533.492" stroke="#000000" stroke-width="0.398" fill="none" /><path id="400" transform="matrix(1 0 0 -1 0 841)" d="M220.205 533.492L255.074 533.492" stroke="#000000" stroke-width="0.398" fill="none" /><path id="441" transform="matrix(1 0 0 -1 0 841)" d="M225.089 520.939L300.456 520.939" stroke="#000000" stroke-width="0.398" fill="none" /><path id="442" transform="matrix(1 0 0 -1 0 841)" d="M225.288 505.622L225.288 520.939" stroke="#000000" stroke-width="0.398" fill="none" /><path id="443" transform="matrix(1 0 0 -1 0 841)" d="M300.256 505.622L300.256 520.939" stroke="#000000" stroke-width="0.398" fill="none" /><path id="444" transform="matrix(1 0 0 -1 0 841)" d="M225.089 505.622L300.456 505.622" stroke="#000000" stroke-width="0.398" fill="none" /><path id="604" transform="matrix(1 0 0 -1 0 841)" d="M166.281 410.045L181.185 410.045" stroke="#000000" stroke-width="0.398" fill="none" /><path id="632" transform="matrix(1 0 0 -1 0 841)" d="M237.248 410.045L303.688 410.045" stroke="#000000" stroke-width="0.398" fill="none" /><path id="657" transform="matrix(1 0 0 -1 0 841)" d="M325.442 410.045L408.788 410.045" stroke="#000000" stroke-width="0.398" fill="none" /><path id="693" transform="matrix(1 0 0 -1 0 841)" d="M421.045 417.602L537.109 417.602" stroke="#000000" stroke-width="0.398" fill="none" /><path id="694" transform="matrix(1 0 0 -1 0 841)" d="M421.244 402.334L421.244 417.602" stroke="#000000" stroke-width="0.398" fill="none" /><path id="695" transform="matrix(1 0 0 -1 0 841)" d="M536.91 402.334L536.91 417.602" stroke="#000000" stroke-width="0.398" fill="none" /><path id="696" transform="matrix(1 0 0 -1 0 841)" d="M421.045 402.334L537.109 402.334" stroke="#000000" stroke-width="0.398" fill="none" /><path id="789" transform="matrix(1 0 0 -1 0 841)" d="M137.508 303.514L251.849 303.514" stroke="#000000" stroke-width="0.398" fill="none" /><path id="804" transform="matrix(1 0 0 -1 0 841)" d="M261.988 303.514L357.518 303.514" stroke="#000000" stroke-width="0.398" fill="none" /><path id="829" transform="matrix(1 0 0 -1 0 841)" d="M367.658 303.514L403.584 303.514" stroke="#000000" stroke-width="0.398" fill="none" /><path id="847" transform="matrix(1 0 0 -1 0 841)" d="M421.531 303.514L456.27 303.514" stroke="#000000" stroke-width="0.398" fill="none" /><path id="851" transform="matrix(1 0 0 -1 0 841)" d="M416.948 317.621L460.853 317.621" stroke="#000000" stroke-width="0.398" fill="none" /><path id="852" transform="matrix(1 0 0 -1 0 841)" d="M417.147 288.969L417.147 317.621" stroke="#000000" stroke-width="0.398" fill="none" /><path id="853" transform="matrix(1 0 0 -1 0 841)" d="M460.654 288.969L460.654 317.621" stroke="#000000" stroke-width="0.398" fill="none" /><path id="854" transform="matrix(1 0 0 -1 0 841)" d="M416.948 288.969L460.853 288.969" stroke="#000000" stroke-width="0.398" fill="none" /><path id="967" transform="matrix(1 0 0 -1 0 841)" d="M209.995 209.447L298.54 209.447" stroke="#000000" stroke-width="0.398" fill="none" /><path id="975" transform="matrix(1 0 0 -1 0 841)" d="M308.68 209.447L343.549 209.447" stroke="#000000" stroke-width="0.398" fill="none" /><path id="990" transform="matrix(1 0 0 -1 0 841)" d="M358.109 209.447L393.546 209.447" stroke="#000000" stroke-width="0.398" fill="none" /><path id="1007" transform="matrix(1 0 0 -1 0 841)" d="M137.508 184.291L172.945 184.291" stroke="#000000" stroke-width="0.398" fill="none" /><path id="1022" transform="matrix(1 0 0 -1 0 841)" d="M198.028 184.291L243.427 184.291" stroke="#000000" stroke-width="0.398" fill="none" /><path id="1041" transform="matrix(1 0 0 -1 0 841)" d="M257.987 184.291L293.772 184.291" stroke="#000000" stroke-width="0.398" fill="none" /><path id="1056" transform="matrix(1 0 0 -1 0 841)" d="M169.326 161.013L192.389 161.013" stroke="#000000" stroke-width="0.398" fill="none" /><path id="1064" transform="matrix(1 0 0 -1 0 841)" d="M202.529 161.013L238.314 161.013" stroke="#000000" stroke-width="0.398" fill="none" /><path id="1077" transform="matrix(1 0 0 -1 0 841)" d="M248.454 161.013L273.36 161.013" stroke="#000000" stroke-width="0.398" fill="none" /><path id="1091" transform="matrix(1 0 0 -1 0 841)" d="M286.724 168.57L324.064 168.57" stroke="#000000" stroke-width="0.398" fill="none" /><path id="1092" transform="matrix(1 0 0 -1 0 841)" d="M286.924 155.18L286.924 168.57" stroke="#000000" stroke-width="0.398" fill="none" /><path id="1093" transform="matrix(1 0 0 -1 0 841)" d="M323.865 155.18L323.865 168.57" stroke="#000000" stroke-width="0.398" fill="none" /><path id="1094" transform="matrix(1 0 0 -1 0 841)" d="M286.724 155.18L324.064 155.18" stroke="#000000" stroke-width="0.398" fill="none" /><g transform="matrix(0.2 0 0 0.2 249.239 774.845)"><g transform="matrix(1 0 0 1 0 0)"><image x="0" y="0" xlink:href="img_04.png" width="484" height="104" /></g></g></g></g></svg>