<svg xmlns="http://www.w3.org/2000/svg" xmlns:xlink="http://www.w3.org/1999/xlink" id="body_343" preserveAspectRatio="xMinYMin meet" viewBox="0 0 793 1121"><defs><clipPath id="1"><path id="" clip-rule="evenodd" transform="matrix(1 0 0 1 0 0)" d="M0 841L0 -0.8900146L0 -0.8900146L595.276 -0.8900146L595.276 -0.8900146L595.276 841L595.276 841L0 841z" /></clipPath></defs><g transform="matrix(1.333333 0 0 1.333333 0 0)"><g clip-path="url(#1)"><path id="23" transform="matrix(1 0 0 -1 0 841)" d="M85.039 766.564L510.236 766.564" stroke="#000000" stroke-width="0.498" fill="none" /><path id="232" transform="matrix(1 0 0 -1 0 841)" d="M84.79 667.809L96.357 667.809L96.357 679.017L84.79 679.017z" stroke="none" fill="#FFF100" fill-rule="nonzero" /><path id="235" transform="matrix(1 0 0 -1 0 841)" d="M95.859 667.809L108.531 667.809L108.531 679.017L95.859 679.017z" stroke="none" fill="#FFF100" fill-rule="nonzero" /><path id="238" transform="matrix(1 0 0 -1 0 841)" d="M108.033 667.809L120.705 667.809L120.705 679.017L108.033 679.017z" stroke="none" fill="#FFF100" fill-rule="nonzero" /><path id="242" transform="matrix(1 0 0 -1 0 841)" d="M120.456 667.809L122.947 667.809L122.947 679.017L120.456 679.017z" stroke="none" fill="#FFF100" fill-rule="nonzero" /><path id="243" transform="matrix(1 0 0 -1 0 841)" d="M122.698 667.809L142.015 667.809L142.015 679.017L122.698 679.017z" stroke="none" fill="#FFF100" fill-rule="nonzero" /><path id="248" transform="matrix(1 0 0 -1 0 841)" d="M141.517 667.809L163.604 667.809L163.604 679.017L141.517 679.017z" stroke="none" fill="#FFF100" fill-rule="nonzero" /><path id="534" transform="matrix(1 0 0 -1 0 841)" d="M180.141 593.273L417.923 593.273" stroke="#000000" stroke-width="0.398" fill="none" /><path id="595" transform="matrix(1 0 0 -1 0 841)" d="M180.141 563.679L294.539 563.679" stroke="#000000" stroke-width="0.398" fill="none" /><path id="627" transform="matrix(1 0 0 -1 0 841)" d="M332.794 571.236L363.329 571.236" stroke="#000000" stroke-width="0.398" fill="none" /><path id="628" transform="matrix(1 0 0 -1 0 841)" d="M332.993 555.968L332.993 571.236" stroke="#000000" stroke-width="0.398" fill="none" /><path id="629" transform="matrix(1 0 0 -1 0 841)" d="M363.13 555.968L363.13 571.236" stroke="#000000" stroke-width="0.398" fill="none" /><path id="630" transform="matrix(1 0 0 -1 0 841)" d="M332.794 555.968L363.329 555.968" stroke="#000000" stroke-width="0.398" fill="none" /><path id="1020" transform="matrix(1 0 0 -1 0 841)" d="M180.141 448.435L417.923 448.435" stroke="#000000" stroke-width="0.398" fill="none" /><path id="1216" transform="matrix(1 0 0 -1 0 841)" d="M205.088 349.842L239.957 349.842" stroke="#000000" stroke-width="0.398" fill="none" /><path id="1309" transform="matrix(1 0 0 -1 0 841)" d="M343.447 319.804L398.787 319.804" stroke="#000000" stroke-width="0.398" fill="none" /><path id="1328" transform="matrix(1 0 0 -1 0 841)" d="M437.042 327.36L467.577 327.36" stroke="#000000" stroke-width="0.398" fill="none" /><path id="1329" transform="matrix(1 0 0 -1 0 841)" d="M437.241 312.093L437.241 327.361" stroke="#000000" stroke-width="0.398" fill="none" /><path id="1330" transform="matrix(1 0 0 -1 0 841)" d="M467.378 312.093L467.378 327.361" stroke="#000000" stroke-width="0.398" fill="none" /><path id="1331" transform="matrix(1 0 0 -1 0 841)" d="M437.042 312.093L467.577 312.093" stroke="#000000" stroke-width="0.398" fill="none" /><path id="2081" transform="matrix(1 0 0 -1 0 841)" d="M109.019 90.967L259.742 90.967" stroke="#000000" stroke-width="0.398" fill="none" /><g transform="matrix(0.2 0 0 0.2 249.239 774.845)"><g transform="matrix(1 0 0 1 0 0)"><image x="0" y="0" xlink:href="img_04.png" width="484" height="104" /></g></g></g></g></svg>