<svg xmlns="http://www.w3.org/2000/svg" xmlns:xlink="http://www.w3.org/1999/xlink" id="body_357" preserveAspectRatio="xMinYMin meet" viewBox="0 0 793 1121"><defs><clipPath id="1"><path id="" clip-rule="evenodd" transform="matrix(1 0 0 1 0 0)" d="M0 841L0 -0.8900146L0 -0.8900146L595.276 -0.8900146L595.276 -0.8900146L595.276 841L595.276 841L0 841z" /></clipPath></defs><g transform="matrix(1.333333 0 0 1.333333 0 0)"><g clip-path="url(#1)"><path id="23" transform="matrix(1 0 0 -1 0 841)" d="M85.039 766.564L510.236 766.564" stroke="#000000" stroke-width="0.498" fill="none" /><path id="690" transform="matrix(1 0 0 -1 0 841)" d="M301.087 479.069L352.982 479.069" stroke="#000000" stroke-width="0.398" fill="none" /><path id="702" transform="matrix(1 0 0 -1 0 841)" d="M229.0196 440.725C 229.0196 445.4218 203.6374 449.2291 172.326 449.2291C 141.0146 449.2291 115.6324 445.4218 115.6324 440.725C 115.6324 436.0283 141.0146 432.2209 172.326 432.2209C 203.6374 432.2209 229.0196 436.0283 229.0196 440.725z" stroke="#000000" stroke-width="0.3985" fill="none" /><path id="703" transform="matrix(1 0 0 -1 0 841)" d="M229.0196 375.5273C 229.0196 380.224 203.6374 384.0314 172.326 384.0314C 141.0146 384.0314 115.6324 380.224 115.6324 375.5273C 115.6324 370.8305 141.0146 367.0231 172.326 367.0231C 203.6374 367.0231 229.0196 370.8305 229.0196 375.5273z" stroke="#000000" stroke-width="0.3985" fill="none" /><path id="704" transform="matrix(1 0 0 -1 0 841)" d="M229.0196 375.5273L229.0196 440.725" stroke="#000000" stroke-width="0.3985" fill="none" /><path id="705" transform="matrix(1 0 0 -1 0 841)" d="M116.0309 440.725L228.6211 440.725" stroke="#000000" stroke-width="0.3985" fill="none" /><path id="706" transform="matrix(1 0 0 -1 0 841)" d="M117.9039 438.334C 117.5253 439.7686 116.6816 440.446 115.8316 440.725C 116.6816 441.004 117.5253 441.6814 117.9039 443.1161" stroke="#000000" stroke-width="0.3985" stroke-linecap="round" fill="none" /><path id="707" transform="matrix(1 0 0 -1 0 841)" d="M226.7481 443.1161C 227.1267 441.6814 227.9704 441.004 228.8203 440.725C 227.9704 440.446 227.1267 439.7686 226.7481 438.334" stroke="#000000" stroke-width="0.3985" stroke-linecap="round" fill="none" /><path id="720" transform="matrix(1 0 0 -1 0 841)" d="M243.193 375.9258L243.193 440.3265" stroke="#000000" stroke-width="0.3985" fill="none" /><path id="721" transform="matrix(1 0 0 -1 0 841)" d="M245.584 377.7987C 244.1494 377.4202 243.4719 376.5765 243.193 375.7265C 242.914 376.5765 242.2366 377.4202 240.802 377.7987" stroke="#000000" stroke-width="0.3985" stroke-linecap="round" fill="none" /><path id="722" transform="matrix(1 0 0 -1 0 841)" d="M240.802 438.4535C 242.2366 438.8321 242.914 439.6758 243.193 440.5257C 243.4719 439.6758 244.1494 438.8321 245.584 438.4535" stroke="#000000" stroke-width="0.3985" stroke-linecap="round" fill="none" /><path id="732" transform="matrix(1 0 0 -1 0 841)" d="M115.6324 440.725L115.6324 375.5273" stroke="#000000" stroke-width="0.3985" fill="none" /><path id="781" transform="matrix(1 0 0 -1 0 841)" d="M233.072 338.22L267.881 338.22" stroke="#000000" stroke-width="0.398" fill="none" /><path id="791" transform="matrix(1 0 0 -1 0 841)" d="M173.267 325.344L269.076 325.344" stroke="#000000" stroke-width="0.398" fill="none" /><path id="812" transform="matrix(1 0 0 -1 0 841)" d="M282.441 332.845L315.228 332.845" stroke="#000000" stroke-width="0.398" fill="none" /><path id="813" transform="matrix(1 0 0 -1 0 841)" d="M282.64 319.511L282.64 332.846" stroke="#000000" stroke-width="0.398" fill="none" /><path id="814" transform="matrix(1 0 0 -1 0 841)" d="M315.028 319.511L315.028 332.846" stroke="#000000" stroke-width="0.398" fill="none" /><path id="815" transform="matrix(1 0 0 -1 0 841)" d="M282.441 319.511L315.228 319.511" stroke="#000000" stroke-width="0.398" fill="none" /><g transform="matrix(0.2 0 0 0.2 249.239 774.845)"><g transform="matrix(1 0 0 1 0 0)"><image x="0" y="0" xlink:href="img_04.png" width="484" height="104" /></g></g></g></g></svg>