<svg xmlns="http://www.w3.org/2000/svg" xmlns:xlink="http://www.w3.org/1999/xlink" id="body_361" preserveAspectRatio="xMinYMin meet" viewBox="0 0 793 1121"><defs><clipPath id="1"><path id="" clip-rule="evenodd" transform="matrix(1 0 0 1 0 0)" d="M0 841L0 -0.8900146L0 -0.8900146L595.276 -0.8900146L595.276 -0.8900146L595.276 841L595.276 841L0 841z" /></clipPath></defs><g transform="matrix(1.333333 0 0 1.333333 0 0)"><g clip-path="url(#1)"><path id="23" transform="matrix(1 0 0 -1 0 841)" d="M85.039 766.564L510.236 766.564" stroke="#000000" stroke-width="0.498" fill="none" /><path id="24" transform="matrix(1 0 0 -1 0 841)" d="M282.59 720.6516L169.2028 720.6516L169.2028 720.6516L169.2028 678.1314L169.2028 678.1314L282.59 678.1314z" stroke="#000000" stroke-width="0.3985" fill="#F2F2F2" fill-rule="nonzero" /><path id="25" transform="matrix(1 0 0 -1 0 841)" d="M282.59 720.6516L304.4167 742.4783L304.4167 742.4783L304.4167 699.9581L304.4167 699.9581L282.59 678.1314z" stroke="#000000" stroke-width="0.3985" fill="#F2F2F2" fill-rule="nonzero" /><path id="26" transform="matrix(1 0 0 -1 0 841)" d="M282.59 720.6516L304.4167 742.4783L304.4167 742.4783L304.4167 699.9581L304.4167 699.9581L282.59 678.1314z" stroke="#000000" stroke-width="0.3985" fill="#F2F2F2" fill-rule="nonzero" /><path id="27" transform="matrix(1 0 0 -1 0 841)" d="M282.59 720.6516L169.2028 720.6516L169.2028 720.6516L191.0295 742.4783L191.0295 742.4783L304.4167 742.4783z" stroke="#000000" stroke-width="0.3985" fill="#F2F2F2" fill-rule="nonzero" /><path id="28" transform="matrix(1 0 0 -1 0 841)" d="M169.2028 734.825L191.0295 756.6517L191.0295 756.6517L191.0295 742.4783L191.0295 742.4783L169.2028 720.6516z" stroke="#000000" stroke-width="0.3985" fill="none" /><path id="29" transform="matrix(1 0 0 -1 0 841)" d="M282.59 720.6516L169.2028 720.6516L169.2028 720.6516L191.0295 742.4783L191.0295 742.4783L304.4167 742.4783z" stroke="#000000" stroke-width="0.3985" fill="none" /><path id="30" transform="matrix(1 0 0 -1 0 841)" d="M282.59 734.825L169.2028 734.825L169.2028 734.825L169.2028 720.6516L169.2028 720.6516L282.59 720.6516z" stroke="#000000" stroke-width="0.3985" fill="#FFFFFF" fill-rule="nonzero" /><path id="31" transform="matrix(1 0 0 -1 0 841)" d="M282.59 734.825L304.4167 756.6517L304.4167 756.6517L304.4167 742.4783L304.4167 742.4783L282.59 720.6516z" stroke="#000000" stroke-width="0.3985" fill="#FFFFFF" fill-rule="nonzero" /><path id="32" transform="matrix(1 0 0 -1 0 841)" d="M282.59 734.825L304.4167 756.6517L304.4167 756.6517L304.4167 742.4783L304.4167 742.4783L282.59 720.6516z" stroke="#000000" stroke-width="0.3985" fill="#FFFFFF" fill-rule="nonzero" /><path id="33" transform="matrix(1 0 0 -1 0 841)" d="M282.59 734.825L169.2028 734.825L169.2028 734.825L191.0295 756.6517L191.0295 756.6517L304.4167 756.6517z" stroke="#000000" stroke-width="0.3985" fill="#FFFFFF" fill-rule="nonzero" /><path id="34" transform="matrix(1 0 0 -1 0 841)" d="M169.6013 669.6273L282.1915 669.6273" stroke="#000000" stroke-width="0.3985" fill="none" /><path id="35" transform="matrix(1 0 0 -1 0 841)" d="M171.4743 667.2362C 171.0957 668.6709 170.252 669.3483 169.402 669.6273C 170.252 669.9062 171.0957 670.5836 171.4743 672.0183" stroke="#000000" stroke-width="0.3985" stroke-linecap="round" fill="none" /><path id="36" transform="matrix(1 0 0 -1 0 841)" d="M280.3185 672.0183C 280.6971 670.5836 281.5407 669.9062 282.3907 669.6273C 281.5407 669.3483 280.6971 668.6709 280.3185 667.2362" stroke="#000000" stroke-width="0.3985" stroke-linecap="round" fill="none" /><path id="44" transform="matrix(1 0 0 -1 0 841)" d="M310.9368 698.3726L310.9368 740.0958" stroke="#000000" stroke-width="0.3985" fill="none" /><path id="45" transform="matrix(1 0 0 -1 0 841)" d="M313.3278 700.2456C 311.8932 699.867 311.2157 699.0233 310.9368 698.1733C 310.6578 699.0233 309.9804 699.867 308.5457 700.2456" stroke="#000000" stroke-width="0.3985" stroke-linecap="round" fill="none" /><path id="46" transform="matrix(1 0 0 -1 0 841)" d="M308.5457 738.2227C 309.9804 738.6013 310.6578 739.445 310.9368 740.295C 311.2157 739.445 311.8932 738.6013 313.3278 738.2227" stroke="#000000" stroke-width="0.3985" stroke-linecap="round" fill="none" /><path id="53" transform="matrix(1 0 0 -1 0 841)" d="M310.655 697.6923L282.8718 669.9091" stroke="#000000" stroke-width="0.3985" fill="none" /><path id="54" transform="matrix(1 0 0 -1 0 841)" d="M307.6399 698.0586C 308.9221 697.3119 309.9976 697.4294 310.7959 697.8332C 310.3921 697.0349 310.2746 695.9594 311.0213 694.6772" stroke="#000000" stroke-width="0.3984962" stroke-linecap="round" fill="none" /><path id="55" transform="matrix(1 0 0 -1 0 841)" d="M285.8868 669.5427C 284.6047 670.2894 283.5291 670.1719 282.7309 669.7681C 283.1346 670.5664 283.2522 671.642 282.5054 672.9241" stroke="#000000" stroke-width="0.3984962" stroke-linecap="round" fill="none" /><path id="63" transform="matrix(1 0 0 -1 0 841)" d="M112.5091 706.4782L168.8043 706.4782" stroke="#000000" stroke-width="0.3985" fill="none" /><path id="64" transform="matrix(1 0 0 -1 0 841)" d="M166.9313 708.8693C 167.3099 707.4346 168.1535 706.7571 169.0035 706.4782C 168.1535 706.1993 167.3099 705.5219 166.9313 704.0872" stroke="#000000" stroke-width="0.3985" stroke-linecap="round" fill="none" /><path id="71" transform="matrix(1 0 0 -1 0 841)" d="M291.0941 706.4782L307.7034 706.4782" stroke="#000000" stroke-width="0.3985" fill="none" /><path id="72" transform="matrix(1 0 0 -1 0 841)" d="M305.8304 708.8693C 306.209 707.4346 307.0527 706.7571 307.9026 706.4782C 307.0527 706.1993 306.209 705.5219 305.8304 704.0872" stroke="#000000" stroke-width="0.3985" stroke-linecap="round" fill="none" /><path id="96" transform="matrix(1 0 0 -1 0 841)" d="M226.997 632.211L240.237 632.211" stroke="#000000" stroke-width="0.398" fill="none" /><path id="100" transform="matrix(1 0 0 -1 0 841)" d="M138.956 619.409L244.42 619.409" stroke="#000000" stroke-width="0.398" fill="none" /><path id="113" transform="matrix(1 0 0 -1 0 841)" d="M182.754 606.956L197.658 606.956" stroke="#000000" stroke-width="0.398" fill="none" /><path id="121" transform="matrix(1 0 0 -1 0 841)" d="M207.798 606.956L243.225 606.956" stroke="#000000" stroke-width="0.398" fill="none" /><path id="146" transform="matrix(1 0 0 -1 0 841)" d="M112.5108 503.5434C 112.5108 496.2077 131.5475 490.2611 155.031 490.2611C 178.5146 490.2611 197.5512 496.2077 197.5512 503.5434L197.5512 503.5434L197.5512 518.5204C 197.5512 511.1848 178.5146 505.2381 155.031 505.2381C 131.5475 505.2381 112.5108 511.1848 112.5108 518.5204z" stroke="none" fill="#CCFFCC" fill-rule="nonzero" /><path id="147" transform="matrix(1 0 0 -1 0 841)" d="M112.5108 518.5204C 112.5108 525.8561 131.5475 531.8027 155.031 531.8027C 178.5146 531.8027 197.5512 525.8561 197.5512 518.5204C 197.5512 511.1848 178.5146 505.2381 155.031 505.2381C 131.5475 505.2381 112.5108 511.1848 112.5108 518.5204z" stroke="none" fill="#CCFFCC" fill-rule="nonzero" /><path id="148" transform="matrix(1 0 0 -1 0 841)" d="M112.5108 518.5204C 112.5108 511.1848 131.5475 505.2381 155.031 505.2381C 178.5146 505.2381 197.5512 511.1848 197.5512 518.5204M112.5108 503.5434C 112.5108 496.2077 131.5475 490.2611 155.031 490.2611C 178.5146 490.2611 197.5512 496.2077 197.5512 503.5434L197.5512 503.5434L197.5512 518.5204C 197.5512 525.8561 178.5146 531.8027 155.031 531.8027C 131.5475 531.8027 112.5108 525.8561 112.5108 518.5204z" stroke="#000000" stroke-width="0.3985" fill="none" /><path id="149" transform="matrix(1 0 0 -1 0 841)" d="M112.5108 503.4189C 112.5108 496.0833 131.5475 490.1367 155.031 490.1367C 178.5146 490.1367 197.5512 496.0833 197.5512 503.4189M112.5108 416.5962C 112.5108 409.2605 131.5475 403.3139 155.031 403.3139C 178.5146 403.3139 197.5512 409.2605 197.5512 416.5962L197.5512 416.5962L197.5512 503.4189C 197.5512 510.7546 178.5146 516.7012 155.031 516.7012C 131.5475 516.7012 112.5108 510.7546 112.5108 503.4189z" stroke="#000000" stroke-width="0.3985" fill="none" /><path id="150" transform="matrix(1 0 0 -1 0 841)" d="M112.5108 418.503C 112.5108 411.1673 131.5475 405.2207 155.031 405.2207C 178.5146 405.2207 197.5512 411.1673 197.5512 418.503L197.5512 418.503L197.5512 433.48C 197.5512 426.1443 178.5146 420.1978 155.031 420.1978C 131.5475 420.1978 112.5108 426.1443 112.5108 433.48z" stroke="none" fill="#CCCCCC" fill-rule="nonzero" /><path id="151" transform="matrix(1 0 0 -1 0 841)" d="M112.5108 433.48C 112.5108 440.8157 131.5475 446.7623 155.031 446.7623C 178.5146 446.7623 197.5512 440.8157 197.5512 433.48C 197.5512 426.1443 178.5146 420.1978 155.031 420.1978C 131.5475 420.1978 112.5108 426.1443 112.5108 433.48z" stroke="none" fill="#F2F2F2" fill-rule="nonzero" /><path id="152" transform="matrix(1 0 0 -1 0 841)" d="M112.5108 433.48C 112.5108 426.1443 131.5475 420.1978 155.031 420.1978C 178.5146 420.1978 197.5512 426.1443 197.5512 433.48M112.5108 418.503C 112.5108 411.1673 131.5475 405.2207 155.031 405.2207C 178.5146 405.2207 197.5512 411.1673 197.5512 418.503L197.5512 418.503L197.5512 433.48C 197.5512 440.8157 178.5146 446.7623 155.031 446.7623C 131.5475 446.7623 112.5108 440.8157 112.5108 433.48z" stroke="#000000" stroke-width="0.3985" fill="none" /><path id="153" transform="matrix(1 0 0 -1 0 841)" d="M112.9093 518.7262L197.1527 518.7262" stroke="#000000" stroke-width="0.3985" fill="none" /><path id="154" transform="matrix(1 0 0 -1 0 841)" d="M114.7823 516.3351C 114.4037 517.7698 113.56 518.4472 112.7101 518.7261C 113.56 519.0051 114.4037 519.6825 114.7823 521.1172" stroke="#000000" stroke-width="0.3985" stroke-linecap="round" fill="none" /><path id="155" transform="matrix(1 0 0 -1 0 841)" d="M195.2797 521.1172C 195.6583 519.6825 196.502 519.0051 197.3519 518.7261C 196.502 518.4472 195.6583 517.7698 195.2797 516.3351" stroke="#000000" stroke-width="0.3985" stroke-linecap="round" fill="none" /><path id="202" transform="matrix(1 0 0 -1 0 841)" d="M197.9497 433.6858L217.3939 433.6858" stroke="#000000" stroke-width="0.3985" fill="none" /><path id="203" transform="matrix(1 0 0 -1 0 841)" d="M199.8227 431.2947C 199.4441 432.7294 198.6004 433.4068 197.7505 433.6858C 198.6004 433.9647 199.4441 434.6422 199.8227 436.0768" stroke="#000000" stroke-width="0.3985" stroke-linecap="round" fill="none" /><path id="204" transform="matrix(1 0 0 -1 0 841)" d="M197.9497 504.5527L217.3939 504.5527" stroke="#000000" stroke-width="0.3985" fill="none" /><path id="205" transform="matrix(1 0 0 -1 0 841)" d="M199.8227 502.1617C 199.4441 503.5963 198.6004 504.2738 197.7505 504.5527C 198.6004 504.8317 199.4441 505.5091 199.8227 506.9438" stroke="#000000" stroke-width="0.3985" stroke-linecap="round" fill="none" /><path id="206" transform="matrix(1 0 0 -1 0 841)" d="M155.031 549.9078L155.031 522.358" stroke="#000000" stroke-width="0.79701" fill="none" /><path id="207" transform="matrix(1 0 0 -1 0 841)" d="M158.142 524.5099C 156.2754 524.0439 155.394 523.0056 155.031 521.9595C 154.6681 523.0056 153.7867 524.0439 151.9201 524.5099" stroke="#000000" stroke-width="0.79701" stroke-linecap="round" fill="none" /><path id="229" transform="matrix(1 0 0 -1 0 841)" d="M162.218 378.204L192.823 378.204" stroke="#000000" stroke-width="0.398" fill="none" /><path id="267" transform="matrix(1 0 0 -1 0 841)" d="M319.921 391.006L367.98 391.006" stroke="#000000" stroke-width="0.398" fill="none" /><path id="271" transform="matrix(1 0 0 -1 0 841)" d="M207.383 378.204L369.176 378.204" stroke="#000000" stroke-width="0.398" fill="none" /><path id="282" transform="matrix(1 0 0 -1 0 841)" d="M255.578 365.697L285.934 365.697" stroke="#000000" stroke-width="0.398" fill="none" /><path id="294" transform="matrix(1 0 0 -1 0 841)" d="M296.074 365.697L335.924 365.697" stroke="#000000" stroke-width="0.398" fill="none" /><path id="325" transform="matrix(1 0 0 -1 0 841)" d="M138.956 311.459L176.545 311.459" stroke="#000000" stroke-width="0.398" fill="none" /><path id="363" transform="matrix(1 0 0 -1 0 841)" d="M138.956 256.762L181.526 256.762" stroke="#000000" stroke-width="0.398" fill="none" /><path id="388" transform="matrix(1 0 0 -1 0 841)" d="M252.265 256.762L293.5 256.762" stroke="#000000" stroke-width="0.398" fill="none" /><path id="424" transform="matrix(1 0 0 -1 0 841)" d="M138.956 202.065L185.392 202.065" stroke="#000000" stroke-width="0.398" fill="none" /><path id="465" transform="matrix(1 0 0 -1 0 841)" d="M138.956 147.369L186.507 147.369" stroke="#000000" stroke-width="0.398" fill="none" /><g transform="matrix(0.2 0 0 0.2 249.239 774.846)"><g transform="matrix(1 0 0 1 0 0)"><image x="0" y="0" xlink:href="img_04.png" width="484" height="104" /></g></g></g></g></svg>