<svg xmlns="http://www.w3.org/2000/svg" xmlns:xlink="http://www.w3.org/1999/xlink" id="body_35" preserveAspectRatio="xMinYMin meet" viewBox="0 0 793 1121"><defs><clipPath id="1"><path id="" clip-rule="evenodd" transform="matrix(1 0 0 1 0 0)" d="M0 841L0 -0.8900146L0 -0.8900146L595.276 -0.8900146L595.276 -0.8900146L595.276 841L595.276 841L0 841z" /></clipPath></defs><g transform="matrix(1.333333 0 0 1.333333 0 0)"><g clip-path="url(#1)"><path id="24" transform="matrix(1 0 0 -1 0 841)" d="M85.039 766.564L510.236 766.564" stroke="#000000" stroke-width="0.498" fill="none" /><path id="316" transform="matrix(1 0 0 -1 0 841)" d="M112.312 666.326L533.938 666.326L533.938 668.027L112.312 668.027z" stroke="none" fill="#000000" fill-rule="nonzero" /><path id="345" transform="matrix(1 0 0 -1 0 841)" d="M112.312 648.394L533.938 648.394L533.938 650.095L112.312 650.095z" stroke="none" fill="#000000" fill-rule="nonzero" /><path id="435" transform="matrix(1 0 0 -1 0 841)" d="M112.312 558.092L533.938 558.092L533.938 559.793L112.312 559.793z" stroke="none" fill="#000000" fill-rule="nonzero" /><path id="464" transform="matrix(1 0 0 -1 0 841)" d="M112.312 540.159L533.938 540.159L533.938 541.86L112.312 541.86z" stroke="none" fill="#000000" fill-rule="nonzero" /><path id="598" transform="matrix(1 0 0 -1 0 841)" d="M112.312 440.21L560.517 440.21L560.517 441.911L112.312 441.911z" stroke="none" fill="#000000" fill-rule="nonzero" /><path id="622" transform="matrix(1 0 0 -1 0 841)" d="M112.312 422.277L560.517 422.277L560.517 423.978L112.312 423.978z" stroke="none" fill="#000000" fill-rule="nonzero" /><path id="716" transform="matrix(1 0 0 -1 0 841)" d="M112.312 366.778L560.517 366.778L560.517 368.479L112.312 368.479z" stroke="none" fill="#000000" fill-rule="nonzero" /><path id="941" transform="matrix(1 0 0 -1 0 841)" d="M464.983 277.915L497.76 277.915" stroke="#000000" stroke-width="0.398" fill="none" /><path id="942" transform="matrix(1 0 0 -1 0 841)" d="M465.182 264.58L465.182 277.915" stroke="#000000" stroke-width="0.398" fill="none" /><path id="943" transform="matrix(1 0 0 -1 0 841)" d="M497.561 264.58L497.561 277.915" stroke="#000000" stroke-width="0.398" fill="none" /><path id="944" transform="matrix(1 0 0 -1 0 841)" d="M464.983 264.58L497.76 264.58" stroke="#000000" stroke-width="0.398" fill="none" /><g transform="matrix(0.2 0 0 0.2 249.239 774.845)"><g transform="matrix(1 0 0 1 0 0)"><image x="0" y="0" xlink:href="img_04.png" width="484" height="104" /></g></g></g></g></svg>