<svg xmlns="http://www.w3.org/2000/svg" xmlns:xlink="http://www.w3.org/1999/xlink" id="body_338" preserveAspectRatio="xMinYMin meet" viewBox="0 0 793 1121"><defs><clipPath id="1"><path id="" clip-rule="evenodd" transform="matrix(1 0 0 1 0 0)" d="M0 841L0 -0.8900146L0 -0.8900146L595.276 -0.8900146L595.276 -0.8900146L595.276 841L595.276 841L0 841z" /></clipPath></defs><g transform="matrix(1.333333 0 0 1.333333 0 0)"><g clip-path="url(#1)"><path id="25" transform="matrix(1 0 0 -1 0 841)" d="M85.039 766.564L510.236 766.564" stroke="#000000" stroke-width="0.498" fill="none" /><path id="74" transform="matrix(1 0 0 -1 0 841)" d="M288.626 733.438L418.006 733.438" stroke="#000000" stroke-width="0.398" fill="none" /><path id="152" transform="matrix(1 0 0 -1 0 841)" d="M286.773 677.508L423.407 677.508" stroke="#000000" stroke-width="0.398" fill="none" /><path id="188" transform="matrix(1 0 0 -1 0 841)" d="M84.79 623.99L106.14 623.99L106.14 635.198L84.79 635.198z" stroke="none" fill="#FFF100" fill-rule="nonzero" /><path id="193" transform="matrix(1 0 0 -1 0 841)" d="M106.323 623.99L108.814 623.99L108.814 635.198L106.323 635.198z" stroke="none" fill="#FFF100" fill-rule="nonzero" /><path id="194" transform="matrix(1 0 0 -1 0 841)" d="M108.564 623.99L114.043 623.99L114.043 635.198L108.564 635.198z" stroke="none" fill="#FFF100" fill-rule="nonzero" /><path id="196" transform="matrix(1 0 0 -1 0 841)" d="M113.894 623.99L116.385 623.99L116.385 635.198L113.894 635.198z" stroke="none" fill="#FFF100" fill-rule="nonzero" /><path id="197" transform="matrix(1 0 0 -1 0 841)" d="M116.136 623.99L137.486 623.99L137.486 635.198L116.136 635.198z" stroke="none" fill="#FFF100" fill-rule="nonzero" /><path id="202" transform="matrix(1 0 0 -1 0 841)" d="M137.408 623.99L160.591 623.99L160.591 635.198L137.408 635.198z" stroke="none" fill="#FFF100" fill-rule="nonzero" /><path id="208" transform="matrix(1 0 0 -1 0 841)" d="M160.796 623.99L163.537 623.99L163.537 635.198L160.796 635.198z" stroke="none" fill="#FFF100" fill-rule="nonzero" /><path id="209" transform="matrix(1 0 0 -1 0 841)" d="M163.288 623.99L187.577 623.99L187.577 635.198L163.288 635.198z" stroke="none" fill="#FFF100" fill-rule="nonzero" /><path id="215" transform="matrix(1 0 0 -1 0 841)" d="M187.803 623.99L190.544 623.99L190.544 635.198L187.803 635.198z" stroke="none" fill="#FFF100" fill-rule="nonzero" /><path id="216" transform="matrix(1 0 0 -1 0 841)" d="M190.296 623.99L198.147 623.99L198.147 635.198L190.296 635.198z" stroke="none" fill="#FFF100" fill-rule="nonzero" /><path id="219" transform="matrix(1 0 0 -1 0 841)" d="M197.803 623.99L220.089 623.99L220.089 635.198L197.803 635.198z" stroke="none" fill="#FFF100" fill-rule="nonzero" /><path id="225" transform="matrix(1 0 0 -1 0 841)" d="M220.283 623.99L223.024 623.99L223.024 635.198L220.283 635.198z" stroke="none" fill="#FFF100" fill-rule="nonzero" /><path id="226" transform="matrix(1 0 0 -1 0 841)" d="M222.775 623.99L234.889 623.99L234.889 635.198L222.775 635.198z" stroke="none" fill="#FFF100" fill-rule="nonzero" /><path id="230" transform="matrix(1 0 0 -1 0 841)" d="M234.624 623.99L244.527 623.99L244.527 635.198L234.624 635.198z" stroke="none" fill="#FFF100" fill-rule="nonzero" /><path id="233" transform="matrix(1 0 0 -1 0 841)" d="M244.217 623.99L254.677 623.99L254.677 635.198L244.217 635.198z" stroke="none" fill="#FFF100" fill-rule="nonzero" /><path id="237" transform="matrix(1 0 0 -1 0 841)" d="M254.378 623.99L267.608 623.99L267.608 635.198L254.378 635.198z" stroke="none" fill="#FFF100" fill-rule="nonzero" /><path id="241" transform="matrix(1 0 0 -1 0 841)" d="M267.614 623.99L270.355 623.99L270.355 635.198L267.614 635.198z" stroke="none" fill="#FFF100" fill-rule="nonzero" /><path id="242" transform="matrix(1 0 0 -1 0 841)" d="M270.106 623.99L282.23 623.99L282.23 635.198L270.106 635.198z" stroke="none" fill="#FFF100" fill-rule="nonzero" /><path id="246" transform="matrix(1 0 0 -1 0 841)" d="M282.214 623.99L284.955 623.99L284.955 635.198L282.214 635.198z" stroke="none" fill="#FFF100" fill-rule="nonzero" /><path id="247" transform="matrix(1 0 0 -1 0 841)" d="M284.706 623.99L293.503 623.99L293.503 635.198L284.706 635.198z" stroke="none" fill="#FFF100" fill-rule="nonzero" /><path id="250" transform="matrix(1 0 0 -1 0 841)" d="M293.42 623.99L296.161 623.99L296.161 635.198L293.42 635.198z" stroke="none" fill="#FFF100" fill-rule="nonzero" /><path id="251" transform="matrix(1 0 0 -1 0 841)" d="M295.913 623.99L319.664 623.99L319.664 635.198L295.913 635.198z" stroke="none" fill="#FFF100" fill-rule="nonzero" /><path id="258" transform="matrix(1 0 0 -1 0 841)" d="M319.879 623.99L322.62 623.99L322.62 635.198L319.879 635.198z" stroke="none" fill="#FFF100" fill-rule="nonzero" /><path id="259" transform="matrix(1 0 0 -1 0 841)" d="M322.371 623.99L330.61 623.99L330.61 635.198L322.371 635.198z" stroke="none" fill="#FFF100" fill-rule="nonzero" /><path id="262" transform="matrix(1 0 0 -1 0 841)" d="M330.267 623.99L357.585 623.99L357.585 635.198L330.267 635.198z" stroke="none" fill="#FFF100" fill-rule="nonzero" /><path id="268" transform="matrix(1 0 0 -1 0 841)" d="M357.878 623.99L360.619 623.99L360.619 635.198L357.878 635.198z" stroke="none" fill="#FFF100" fill-rule="nonzero" /><path id="269" transform="matrix(1 0 0 -1 0 841)" d="M360.37 623.99L382.607 623.99L382.607 635.198L360.37 635.198z" stroke="none" fill="#FFF100" fill-rule="nonzero" /><path id="275" transform="matrix(1 0 0 -1 0 841)" d="M382.8 623.99L385.541 623.99L385.541 635.198L382.8 635.198z" stroke="none" fill="#FFF100" fill-rule="nonzero" /><path id="276" transform="matrix(1 0 0 -1 0 841)" d="M385.293 623.99L400.028 623.99L400.028 635.198L385.293 635.198z" stroke="none" fill="#FFF100" fill-rule="nonzero" /><path id="280" transform="matrix(1 0 0 -1 0 841)" d="M400.066 623.99L402.807 623.99L402.807 635.198L400.066 635.198z" stroke="none" fill="#FFF100" fill-rule="nonzero" /><path id="281" transform="matrix(1 0 0 -1 0 841)" d="M402.558 623.99L417.9 623.99L417.9 635.198L402.558 635.198z" stroke="none" fill="#FFF100" fill-rule="nonzero" /><path id="285" transform="matrix(1 0 0 -1 0 841)" d="M417.95 623.99L420.691 623.99L420.691 635.198L417.95 635.198z" stroke="none" fill="#FFF100" fill-rule="nonzero" /><path id="286" transform="matrix(1 0 0 -1 0 841)" d="M420.443 623.99L429.24 623.99L429.24 635.198L420.443 635.198z" stroke="none" fill="#FFF100" fill-rule="nonzero" /><path id="289" transform="matrix(1 0 0 -1 0 841)" d="M429.157 623.99L431.898 623.99L431.898 635.198L429.157 635.198z" stroke="none" fill="#FFF100" fill-rule="nonzero" /><path id="290" transform="matrix(1 0 0 -1 0 841)" d="M431.649 623.99L444.321 623.99L444.321 635.198L431.649 635.198z" stroke="none" fill="#FFF100" fill-rule="nonzero" /><path id="294" transform="matrix(1 0 0 -1 0 841)" d="M444.315 623.99L447.056 623.99L447.056 635.198L444.315 635.198z" stroke="none" fill="#FFF100" fill-rule="nonzero" /><path id="295" transform="matrix(1 0 0 -1 0 841)" d="M446.808 623.99L458.374 623.99L458.374 635.198L446.808 635.198z" stroke="none" fill="#FFF100" fill-rule="nonzero" /><path id="299" transform="matrix(1 0 0 -1 0 841)" d="M458.097 623.99L473.29 623.99L473.29 635.198L458.097 635.198z" stroke="none" fill="#FFF100" fill-rule="nonzero" /><path id="303" transform="matrix(1 0 0 -1 0 841)" d="M473.091 623.99L486.321 623.99L486.321 635.198L473.091 635.198z" stroke="none" fill="#FFF100" fill-rule="nonzero" /><path id="307" transform="matrix(1 0 0 -1 0 841)" d="M486.327 623.99L489.068 623.99L489.068 635.198L486.327 635.198z" stroke="none" fill="#FFF100" fill-rule="nonzero" /><path id="308" transform="matrix(1 0 0 -1 0 841)" d="M488.819 623.99L506.483 623.99L506.483 635.198L488.819 635.198z" stroke="none" fill="#FFF100" fill-rule="nonzero" /><path id="312" transform="matrix(1 0 0 -1 0 841)" d="M84.79 609.046L94.693 609.046L94.693 620.254L84.79 620.254z" stroke="none" fill="#FFF100" fill-rule="nonzero" /><path id="315" transform="matrix(1 0 0 -1 0 841)" d="M94.195 609.046L110.185 609.046L110.185 620.254L94.195 620.254z" stroke="none" fill="#FFF100" fill-rule="nonzero" /><path id="319" transform="matrix(1 0 0 -1 0 841)" d="M109.687 609.046L114.608 609.046L114.608 620.254L109.687 620.254z" stroke="none" fill="#FFF100" fill-rule="nonzero" /><path id="321" transform="matrix(1 0 0 -1 0 841)" d="M114.11 609.046L128.994 609.046L128.994 620.254L114.11 620.254z" stroke="none" fill="#FFF100" fill-rule="nonzero" /><path id="326" transform="matrix(1 0 0 -1 0 841)" d="M128.745 609.046L131.236 609.046L131.236 620.254L128.745 620.254z" stroke="none" fill="#FFF100" fill-rule="nonzero" /><path id="327" transform="matrix(1 0 0 -1 0 841)" d="M130.986 609.046L134.802 609.046L134.802 620.254L130.986 620.254z" stroke="none" fill="#FFF100" fill-rule="nonzero" /><path id="329" transform="matrix(1 0 0 -1 0 841)" d="M134.553 609.046L137.044 609.046L137.044 620.254L134.553 620.254z" stroke="none" fill="#FFF100" fill-rule="nonzero" /><path id="330" transform="matrix(1 0 0 -1 0 841)" d="M136.795 609.046L145.044 609.046L145.044 620.254L136.795 620.254z" stroke="none" fill="#FFF100" fill-rule="nonzero" /><path id="333" transform="matrix(1 0 0 -1 0 841)" d="M144.545 609.046L155.005 609.046L155.005 620.254L144.545 620.254z" stroke="none" fill="#FFF100" fill-rule="nonzero" /><path id="337" transform="matrix(1 0 0 -1 0 841)" d="M154.757 609.046L157.248 609.046L157.248 620.254L154.757 620.254z" stroke="none" fill="#FFF100" fill-rule="nonzero" /><path id="338" transform="matrix(1 0 0 -1 0 841)" d="M156.998 609.046L171.882 609.046L171.882 620.254L156.998 620.254z" stroke="none" fill="#FFF100" fill-rule="nonzero" /><path id="342" transform="matrix(1 0 0 -1 0 841)" d="M171.384 609.046L185.71 609.046L185.71 620.254L171.384 620.254z" stroke="none" fill="#FFF100" fill-rule="nonzero" /><path id="346" transform="matrix(1 0 0 -1 0 841)" d="M185.212 609.046L196.221 609.046L196.221 620.254L185.212 620.254z" stroke="none" fill="#FFF100" fill-rule="nonzero" /><path id="350" transform="matrix(1 0 0 -1 0 841)" d="M195.723 609.046L214.213 609.046L214.213 620.254L195.723 620.254z" stroke="none" fill="#FFF100" fill-rule="nonzero" /><path id="356" transform="matrix(1 0 0 -1 0 841)" d="M213.964 609.046L216.455 609.046L216.455 620.254L213.964 620.254z" stroke="none" fill="#FFF100" fill-rule="nonzero" /><path id="357" transform="matrix(1 0 0 -1 0 841)" d="M216.206 609.046L229.436 609.046L229.436 620.254L216.206 620.254z" stroke="none" fill="#FFF100" fill-rule="nonzero" /><path id="361" transform="matrix(1 0 0 -1 0 841)" d="M228.938 609.046L239.398 609.046L239.398 620.254L228.938 620.254z" stroke="none" fill="#FFF100" fill-rule="nonzero" /><path id="365" transform="matrix(1 0 0 -1 0 841)" d="M239.149 609.046L241.64 609.046L241.64 620.254L239.149 620.254z" stroke="none" fill="#FFF100" fill-rule="nonzero" /><path id="366" transform="matrix(1 0 0 -1 0 841)" d="M241.391 609.046L256.275 609.046L256.275 620.254L241.391 620.254z" stroke="none" fill="#FFF100" fill-rule="nonzero" /><path id="370" transform="matrix(1 0 0 -1 0 841)" d="M255.777 609.046L270.103 609.046L270.103 620.254L255.777 620.254z" stroke="none" fill="#FFF100" fill-rule="nonzero" /><path id="374" transform="matrix(1 0 0 -1 0 841)" d="M269.605 609.046L280.614 609.046L280.614 620.254L269.605 620.254z" stroke="none" fill="#FFF100" fill-rule="nonzero" /><path id="378" transform="matrix(1 0 0 -1 0 841)" d="M280.115 609.046L296.115 609.046L296.115 620.254L280.115 620.254z" stroke="none" fill="#FFF100" fill-rule="nonzero" /><path id="383" transform="matrix(1 0 0 -1 0 841)" d="M295.866 609.046L298.357 609.046L298.357 620.254L295.866 620.254z" stroke="none" fill="#FFF100" fill-rule="nonzero" /><path id="384" transform="matrix(1 0 0 -1 0 841)" d="M298.108 609.046L312.992 609.046L312.992 620.254L298.108 620.254z" stroke="none" fill="#FFF100" fill-rule="nonzero" /><path id="388" transform="matrix(1 0 0 -1 0 841)" d="M312.743 609.046L315.234 609.046L315.234 620.254L312.743 620.254z" stroke="none" fill="#FFF100" fill-rule="nonzero" /><path id="389" transform="matrix(1 0 0 -1 0 841)" d="M314.984 609.046L323.223 609.046L323.223 620.254L314.984 620.254z" stroke="none" fill="#FFF100" fill-rule="nonzero" /><path id="392" transform="matrix(1 0 0 -1 0 841)" d="M322.725 609.046L347.731 609.046L347.731 620.254L322.725 620.254z" stroke="none" fill="#FFF100" fill-rule="nonzero" /><path id="398" transform="matrix(1 0 0 -1 0 841)" d="M347.482 609.046L349.973 609.046L349.973 620.254L347.482 620.254z" stroke="none" fill="#FFF100" fill-rule="nonzero" /><path id="399" transform="matrix(1 0 0 -1 0 841)" d="M349.724 609.046L357.714 609.046L357.714 620.254L349.724 620.254z" stroke="none" fill="#FFF100" fill-rule="nonzero" /><path id="402" transform="matrix(1 0 0 -1 0 841)" d="M357.216 609.046L363.253 609.046L363.253 620.254L357.216 620.254z" stroke="none" fill="#FFF100" fill-rule="nonzero" /><path id="404" transform="matrix(1 0 0 -1 0 841)" d="M362.755 609.046L390.949 609.046L390.949 620.254L362.755 620.254z" stroke="none" fill="#FFF100" fill-rule="nonzero" /><path id="1162" transform="matrix(1 0 0 -1 0 841)" d="M285.734 301.076L344.79 301.076" stroke="#000000" stroke-width="0.398" fill="none" /><path id="1250" transform="matrix(1 0 0 -1 0 841)" d="M277.384 245.659L305.596 245.659" stroke="#000000" stroke-width="0.398" fill="none" /><path id="1346" transform="matrix(1 0 0 -1 0 841)" d="M435.775 208.619L496.447 208.619" stroke="#000000" stroke-width="0.398" fill="none" /><path id="1352" transform="matrix(1 0 0 -1 0 841)" d="M84.79 185.514L96.357 185.514L96.357 196.722L84.79 196.722z" stroke="none" fill="#FFF100" fill-rule="nonzero" /><path id="1355" transform="matrix(1 0 0 -1 0 841)" d="M95.859 185.514L108.531 185.514L108.531 196.722L95.859 196.722z" stroke="none" fill="#FFF100" fill-rule="nonzero" /><path id="1358" transform="matrix(1 0 0 -1 0 841)" d="M108.033 185.514L120.705 185.514L120.705 196.722L108.033 196.722z" stroke="none" fill="#FFF100" fill-rule="nonzero" /><path id="1362" transform="matrix(1 0 0 -1 0 841)" d="M120.456 185.514L122.947 185.514L122.947 196.722L120.456 196.722z" stroke="none" fill="#FFF100" fill-rule="nonzero" /><path id="1363" transform="matrix(1 0 0 -1 0 841)" d="M122.698 185.514L142.015 185.514L142.015 196.722L122.698 196.722z" stroke="none" fill="#FFF100" fill-rule="nonzero" /><path id="1368" transform="matrix(1 0 0 -1 0 841)" d="M141.517 185.514L159.728 185.514L159.728 196.722L141.517 196.722z" stroke="none" fill="#FFF100" fill-rule="nonzero" /><path id="1623" transform="matrix(1 0 0 -1 0 841)" d="M315.176 139.148L475.783 139.148" stroke="#000000" stroke-width="0.398" fill="none" /><path id="1624" transform="matrix(1 0 0 -1 0 841)" d="M315.375 123.88L315.375 139.148" stroke="#000000" stroke-width="0.398" fill="none" /><path id="1625" transform="matrix(1 0 0 -1 0 841)" d="M475.583 123.88L475.583 139.148" stroke="#000000" stroke-width="0.398" fill="none" /><path id="1626" transform="matrix(1 0 0 -1 0 841)" d="M315.176 123.88L475.783 123.88" stroke="#000000" stroke-width="0.398" fill="none" /><path id="1627" transform="matrix(1 0 0 -1 0 841)" d="M84.79 96.621L106.14 96.621L106.14 107.829L84.79 107.829z" stroke="none" fill="#FFF100" fill-rule="nonzero" /><path id="1632" transform="matrix(1 0 0 -1 0 841)" d="M105.913 96.621L108.404 96.621L108.404 107.829L105.913 107.829z" stroke="none" fill="#FFF100" fill-rule="nonzero" /><path id="1633" transform="matrix(1 0 0 -1 0 841)" d="M108.154 96.621L113.633 96.621L113.633 107.829L108.154 107.829z" stroke="none" fill="#FFF100" fill-rule="nonzero" /><path id="1635" transform="matrix(1 0 0 -1 0 841)" d="M113.39 96.621L115.881 96.621L115.881 107.829L113.39 107.829z" stroke="none" fill="#FFF100" fill-rule="nonzero" /><path id="1636" transform="matrix(1 0 0 -1 0 841)" d="M115.631 96.621L136.981 96.621L136.981 107.829L115.631 107.829z" stroke="none" fill="#FFF100" fill-rule="nonzero" /><path id="1641" transform="matrix(1 0 0 -1 0 841)" d="M136.504 96.621L159.687 96.621L159.687 107.829L136.504 107.829z" stroke="none" fill="#FFF100" fill-rule="nonzero" /><path id="1647" transform="matrix(1 0 0 -1 0 841)" d="M159.46 96.621L161.945 96.621L161.945 107.829L159.46 107.829z" stroke="none" fill="#FFF100" fill-rule="nonzero" /><path id="1648" transform="matrix(1 0 0 -1 0 841)" d="M161.696 96.621L185.985 96.621L185.985 107.829L161.696 107.829z" stroke="none" fill="#FFF100" fill-rule="nonzero" /><path id="1654" transform="matrix(1 0 0 -1 0 841)" d="M185.759 96.621L188.244 96.621L188.244 107.829L185.759 107.829z" stroke="none" fill="#FFF100" fill-rule="nonzero" /><path id="1655" transform="matrix(1 0 0 -1 0 841)" d="M187.995 96.621L195.846 96.621L195.846 107.829L187.995 107.829z" stroke="none" fill="#FFF100" fill-rule="nonzero" /><path id="1658" transform="matrix(1 0 0 -1 0 841)" d="M195.355 96.621L217.641 96.621L217.641 107.829L195.355 107.829z" stroke="none" fill="#FFF100" fill-rule="nonzero" /><path id="1664" transform="matrix(1 0 0 -1 0 841)" d="M217.415 96.621L219.9 96.621L219.9 107.829L217.415 107.829z" stroke="none" fill="#FFF100" fill-rule="nonzero" /><path id="1665" transform="matrix(1 0 0 -1 0 841)" d="M219.65 96.621L231.764 96.621L231.764 107.829L219.65 107.829z" stroke="none" fill="#FFF100" fill-rule="nonzero" /><path id="1669" transform="matrix(1 0 0 -1 0 841)" d="M231.278 96.621L241.181 96.621L241.181 107.829L231.278 107.829z" stroke="none" fill="#FFF100" fill-rule="nonzero" /><path id="1672" transform="matrix(1 0 0 -1 0 841)" d="M240.692 96.621L251.152 96.621L251.152 107.829L240.692 107.829z" stroke="none" fill="#FFF100" fill-rule="nonzero" /><path id="1676" transform="matrix(1 0 0 -1 0 841)" d="M250.665 96.621L263.895 96.621L263.895 107.829L250.665 107.829z" stroke="none" fill="#FFF100" fill-rule="nonzero" /><path id="1680" transform="matrix(1 0 0 -1 0 841)" d="M263.659 96.621L266.144 96.621L266.144 107.829L263.659 107.829z" stroke="none" fill="#FFF100" fill-rule="nonzero" /><path id="1681" transform="matrix(1 0 0 -1 0 841)" d="M265.894 96.621L278.566 96.621L278.566 107.829L265.894 107.829z" stroke="none" fill="#FFF100" fill-rule="nonzero" /><path id="1685" transform="matrix(1 0 0 -1 0 841)" d="M278.33 96.621L280.815 96.621L280.815 107.829L278.33 107.829z" stroke="none" fill="#FFF100" fill-rule="nonzero" /><path id="1686" transform="matrix(1 0 0 -1 0 841)" d="M280.565 96.621L310.951 96.621L310.951 107.829L280.565 107.829z" stroke="none" fill="#FFF100" fill-rule="nonzero" /><path id="1693" transform="matrix(1 0 0 -1 0 841)" d="M310.732 96.621L313.217 96.621L313.217 107.829L310.732 107.829z" stroke="none" fill="#FFF100" fill-rule="nonzero" /><path id="1694" transform="matrix(1 0 0 -1 0 841)" d="M312.968 96.621L321.765 96.621L321.765 107.829L312.968 107.829z" stroke="none" fill="#FFF100" fill-rule="nonzero" /><path id="1697" transform="matrix(1 0 0 -1 0 841)" d="M321.524 96.621L324.009 96.621L324.009 107.829L321.524 107.829z" stroke="none" fill="#FFF100" fill-rule="nonzero" /><path id="1698" transform="matrix(1 0 0 -1 0 841)" d="M323.76 96.621L350.27 96.621L350.27 107.829L323.76 107.829z" stroke="none" fill="#FFF100" fill-rule="nonzero" /><path id="1705" transform="matrix(1 0 0 -1 0 841)" d="M350.047 96.621L352.532 96.621L352.532 107.829L350.047 107.829z" stroke="none" fill="#FFF100" fill-rule="nonzero" /><path id="1706" transform="matrix(1 0 0 -1 0 841)" d="M352.283 96.621L375.476 96.621L375.476 107.829L352.283 107.829z" stroke="none" fill="#FFF100" fill-rule="nonzero" /><path id="1711" transform="matrix(1 0 0 -1 0 841)" d="M375 96.621L388.23 96.621L388.23 107.829L375 107.829z" stroke="none" fill="#FFF100" fill-rule="nonzero" /><path id="1715" transform="matrix(1 0 0 -1 0 841)" d="M387.994 96.621L390.479 96.621L390.479 107.829L387.994 107.829z" stroke="none" fill="#FFF100" fill-rule="nonzero" /><path id="1716" transform="matrix(1 0 0 -1 0 841)" d="M390.23 96.621L412.467 96.621L412.467 107.829L390.23 107.829z" stroke="none" fill="#FFF100" fill-rule="nonzero" /><path id="1722" transform="matrix(1 0 0 -1 0 841)" d="M412.239 96.621L414.724 96.621L414.724 107.829L412.239 107.829z" stroke="none" fill="#FFF100" fill-rule="nonzero" /><path id="1723" transform="matrix(1 0 0 -1 0 841)" d="M414.475 96.621L427.147 96.621L427.147 107.829L414.475 107.829z" stroke="none" fill="#FFF100" fill-rule="nonzero" /><path id="1727" transform="matrix(1 0 0 -1 0 841)" d="M426.911 96.621L429.396 96.621L429.396 107.829L426.911 107.829z" stroke="none" fill="#FFF100" fill-rule="nonzero" /><path id="1728" transform="matrix(1 0 0 -1 0 841)" d="M429.146 96.621L452.897 96.621L452.897 107.829L429.146 107.829z" stroke="none" fill="#FFF100" fill-rule="nonzero" /><path id="1735" transform="matrix(1 0 0 -1 0 841)" d="M452.671 96.621L455.156 96.621L455.156 107.829L452.671 107.829z" stroke="none" fill="#FFF100" fill-rule="nonzero" /><path id="1736" transform="matrix(1 0 0 -1 0 841)" d="M454.907 96.621L463.146 96.621L463.146 107.829L454.907 107.829z" stroke="none" fill="#FFF100" fill-rule="nonzero" /><path id="1739" transform="matrix(1 0 0 -1 0 841)" d="M462.655 96.621L492.463 96.621L492.463 107.829L462.655 107.829z" stroke="none" fill="#FFF100" fill-rule="nonzero" /><path id="1746" transform="matrix(1 0 0 -1 0 841)" d="M492.244 96.621L494.729 96.621L494.729 107.829L492.244 107.829z" stroke="none" fill="#FFF100" fill-rule="nonzero" /><path id="1747" transform="matrix(1 0 0 -1 0 841)" d="M494.48 96.621L510.47 96.621L510.47 107.829L494.48 107.829z" stroke="none" fill="#FFF100" fill-rule="nonzero" /><path id="1751" transform="matrix(1 0 0 -1 0 841)" d="M84.79 81.677L108.541 81.677L108.541 92.885L84.79 92.885z" stroke="none" fill="#FFF100" fill-rule="nonzero" /><path id="1758" transform="matrix(1 0 0 -1 0 841)" d="M108.292 81.677L110.783 81.677L110.783 92.885L108.292 92.885z" stroke="none" fill="#FFF100" fill-rule="nonzero" /><path id="1759" transform="matrix(1 0 0 -1 0 841)" d="M110.533 81.677L118.772 81.677L118.772 92.885L110.533 92.885z" stroke="none" fill="#FFF100" fill-rule="nonzero" /><path id="1762" transform="matrix(1 0 0 -1 0 841)" d="M118.274 81.677L145.592 81.677L145.592 92.885L118.274 92.885z" stroke="none" fill="#FFF100" fill-rule="nonzero" /><path id="1768" transform="matrix(1 0 0 -1 0 841)" d="M145.343 81.677L147.834 81.677L147.834 92.885L145.343 92.885z" stroke="none" fill="#FFF100" fill-rule="nonzero" /><path id="1769" transform="matrix(1 0 0 -1 0 841)" d="M147.584 81.677L167.449 81.677L167.449 92.885L147.584 92.885z" stroke="none" fill="#FFF100" fill-rule="nonzero" /><path id="1774" transform="matrix(1 0 0 -1 0 841)" d="M167.201 81.677L169.692 81.677L169.692 92.885L167.201 92.885z" stroke="none" fill="#FFF100" fill-rule="nonzero" /><path id="1775" transform="matrix(1 0 0 -1 0 841)" d="M169.442 81.677L182.114 81.677L182.114 92.885L169.442 92.885z" stroke="none" fill="#FFF100" fill-rule="nonzero" /><path id="1779" transform="matrix(1 0 0 -1 0 841)" d="M181.865 81.677L184.356 81.677L184.356 92.885L181.865 92.885z" stroke="none" fill="#FFF100" fill-rule="nonzero" /><path id="1780" transform="matrix(1 0 0 -1 0 841)" d="M184.107 81.677L195.673 81.677L195.673 92.885L184.107 92.885z" stroke="none" fill="#FFF100" fill-rule="nonzero" /><path id="1784" transform="matrix(1 0 0 -1 0 841)" d="M195.175 81.677L216.146 81.677L216.146 92.885L195.175 92.885z" stroke="none" fill="#FFF100" fill-rule="nonzero" /><path id="1789" transform="matrix(1 0 0 -1 0 841)" d="M215.897 81.677L218.388 81.677L218.388 92.885L215.897 92.885z" stroke="none" fill="#FFF100" fill-rule="nonzero" /><path id="1790" transform="matrix(1 0 0 -1 0 841)" d="M218.139 81.677L233.571 81.677L233.571 92.885L218.139 92.885z" stroke="none" fill="#FFF100" fill-rule="nonzero" /><path id="1795" transform="matrix(1 0 0 -1 0 841)" d="M233.073 81.677L236.341 81.677L236.341 92.885L233.073 92.885z" stroke="none" fill="#FFF100" fill-rule="nonzero" /><path id="1797" transform="matrix(1 0 0 -1 0 841)" d="M235.842 81.677L249.62 81.677L249.62 92.885L235.842 92.885z" stroke="none" fill="#FFF100" fill-rule="nonzero" /><path id="1801" transform="matrix(1 0 0 -1 0 841)" d="M249.371 81.677L251.862 81.677L251.862 92.885L249.371 92.885z" stroke="none" fill="#FFF100" fill-rule="nonzero" /><path id="1802" transform="matrix(1 0 0 -1 0 841)" d="M251.613 81.677L258.756 81.677L258.756 92.885L251.613 92.885z" stroke="none" fill="#FFF100" fill-rule="nonzero" /><path id="1805" transform="matrix(1 0 0 -1 0 841)" d="M258.507 81.677L260.998 81.677L260.998 92.885L258.507 92.885z" stroke="none" fill="#FFF100" fill-rule="nonzero" /><path id="1806" transform="matrix(1 0 0 -1 0 841)" d="M260.748 81.677L287.258 81.677L287.258 92.885L260.748 92.885z" stroke="none" fill="#FFF100" fill-rule="nonzero" /><path id="1813" transform="matrix(1 0 0 -1 0 841)" d="M287.01 81.677L289.501 81.677L289.501 92.885L287.01 92.885z" stroke="none" fill="#FFF100" fill-rule="nonzero" /><path id="1814" transform="matrix(1 0 0 -1 0 841)" d="M289.251 81.677L307.462 81.677L307.462 92.885L289.251 92.885z" stroke="none" fill="#FFF100" fill-rule="nonzero" /><path id="1819" transform="matrix(1 0 0 -1 0 841)" d="M307.214 81.677L309.705 81.677L309.705 92.885L307.214 92.885z" stroke="none" fill="#FFF100" fill-rule="nonzero" /><path id="1820" transform="matrix(1 0 0 -1 0 841)" d="M309.455 81.677L314.376 81.677L314.376 92.885L309.455 92.885z" stroke="none" fill="#FFF100" fill-rule="nonzero" /><path id="1822" transform="matrix(1 0 0 -1 0 841)" d="M314.128 81.677L316.619 81.677L316.619 92.885L314.128 92.885z" stroke="none" fill="#FFF100" fill-rule="nonzero" /><path id="1823" transform="matrix(1 0 0 -1 0 841)" d="M316.369 81.677L329.599 81.677L329.599 92.885L316.369 92.885z" stroke="none" fill="#FFF100" fill-rule="nonzero" /><path id="1827" transform="matrix(1 0 0 -1 0 841)" d="M329.101 81.677L332.369 81.677L332.369 92.885L329.101 92.885z" stroke="none" fill="#FFF100" fill-rule="nonzero" /><path id="1829" transform="matrix(1 0 0 -1 0 841)" d="M331.871 81.677L343.985 81.677L343.985 92.885L331.871 92.885z" stroke="none" fill="#FFF100" fill-rule="nonzero" /><path id="1833" transform="matrix(1 0 0 -1 0 841)" d="M343.736 81.677L346.227 81.677L346.227 92.885L343.736 92.885z" stroke="none" fill="#FFF100" fill-rule="nonzero" /><path id="1834" transform="matrix(1 0 0 -1 0 841)" d="M345.978 81.677L369.729 81.677L369.729 92.885L345.978 92.885z" stroke="none" fill="#FFF100" fill-rule="nonzero" /><path id="1841" transform="matrix(1 0 0 -1 0 841)" d="M369.479 81.677L371.97 81.677L371.97 92.885L369.479 92.885z" stroke="none" fill="#FFF100" fill-rule="nonzero" /><path id="1842" transform="matrix(1 0 0 -1 0 841)" d="M371.721 81.677L386.605 81.677L386.605 92.885L371.721 92.885z" stroke="none" fill="#FFF100" fill-rule="nonzero" /><path id="1846" transform="matrix(1 0 0 -1 0 841)" d="M386.107 81.677L400.433 81.677L400.433 92.885L386.107 92.885z" stroke="none" fill="#FFF100" fill-rule="nonzero" /><path id="1850" transform="matrix(1 0 0 -1 0 841)" d="M399.935 81.677L410.944 81.677L410.944 92.885L399.935 92.885z" stroke="none" fill="#FFF100" fill-rule="nonzero" /><path id="1854" transform="matrix(1 0 0 -1 0 841)" d="M410.445 81.677L426.445 81.677L426.445 92.885L410.445 92.885z" stroke="none" fill="#FFF100" fill-rule="nonzero" /><path id="1859" transform="matrix(1 0 0 -1 0 841)" d="M426.196 81.677L428.687 81.677L428.687 92.885L426.196 92.885z" stroke="none" fill="#FFF100" fill-rule="nonzero" /><path id="1860" transform="matrix(1 0 0 -1 0 841)" d="M428.438 81.677L437.235 81.677L437.235 92.885L428.438 92.885z" stroke="none" fill="#FFF100" fill-rule="nonzero" /><path id="1863" transform="matrix(1 0 0 -1 0 841)" d="M436.985 81.677L439.476 81.677L439.476 92.885L436.985 92.885z" stroke="none" fill="#FFF100" fill-rule="nonzero" /><path id="1864" transform="matrix(1 0 0 -1 0 841)" d="M439.227 81.677L461.862 81.677L461.862 92.885L439.227 92.885z" stroke="none" fill="#FFF100" fill-rule="nonzero" /><path id="1870" transform="matrix(1 0 0 -1 0 841)" d="M461.613 81.677L464.104 81.677L464.104 92.885L461.613 92.885z" stroke="none" fill="#FFF100" fill-rule="nonzero" /><path id="1871" transform="matrix(1 0 0 -1 0 841)" d="M463.855 81.677L477.633 81.677L477.633 92.885L463.855 92.885z" stroke="none" fill="#FFF100" fill-rule="nonzero" /><path id="1874" transform="matrix(1 0 0 -1 0 841)" d="M477.384 81.677L479.875 81.677L479.875 92.885L477.384 92.885z" stroke="none" fill="#FFF100" fill-rule="nonzero" /><path id="1875" transform="matrix(1 0 0 -1 0 841)" d="M479.625 81.677L487.874 81.677L487.874 92.885L479.625 92.885z" stroke="none" fill="#FFF100" fill-rule="nonzero" /><path id="1878" transform="matrix(1 0 0 -1 0 841)" d="M487.625 81.677L490.116 81.677L490.116 92.885L487.625 92.885z" stroke="none" fill="#FFF100" fill-rule="nonzero" /><path id="1879" transform="matrix(1 0 0 -1 0 841)" d="M489.867 81.677L506.136 81.677L506.136 92.885L489.867 92.885z" stroke="none" fill="#FFF100" fill-rule="nonzero" /><g transform="matrix(0.2 0 0 0.2 249.239 774.845)"><g transform="matrix(1 0 0 1 0 0)"><image x="0" y="0" xlink:href="img_04.png" width="484" height="104" /></g></g></g></g></svg>