<svg xmlns="http://www.w3.org/2000/svg" xmlns:xlink="http://www.w3.org/1999/xlink" id="body_427" preserveAspectRatio="xMinYMin meet" viewBox="0 0 793 1121"><defs><clipPath id="1"><path id="" clip-rule="evenodd" transform="matrix(1 0 0 1 0 0)" d="M0 841L0 -0.8900146L0 -0.8900146L595.276 -0.8900146L595.276 -0.8900146L595.276 841L595.276 841L0 841z" /></clipPath></defs><g transform="matrix(1.333333 0 0 1.333333 0 0)"><g clip-path="url(#1)"><path id="23" transform="matrix(1 0 0 -1 0 841)" d="M85.039 766.564L510.236 766.564" stroke="#000000" stroke-width="0.498" fill="none" /><path id="269" transform="matrix(1 0 0 -1 0 841)" d="M371.093 696.721L424.831 696.721" stroke="#000000" stroke-width="0.398" fill="none" /><path id="270" transform="matrix(1 0 0 -1 0 841)" d="M371.292 680.437L371.292 696.721" stroke="#000000" stroke-width="0.398" fill="none" /><path id="271" transform="matrix(1 0 0 -1 0 841)" d="M424.632 680.437L424.632 696.721" stroke="#000000" stroke-width="0.398" fill="none" /><path id="272" transform="matrix(1 0 0 -1 0 841)" d="M371.093 680.437L424.831 680.437" stroke="#000000" stroke-width="0.398" fill="none" /><path id="664" transform="matrix(1 0 0 -1 0 841)" d="M283.532 592.113L345.011 592.113" stroke="#000000" stroke-width="0.398" fill="none" /><path id="665" transform="matrix(1 0 0 -1 0 841)" d="M283.732 575.829L283.732 592.113" stroke="#000000" stroke-width="0.398" fill="none" /><path id="666" transform="matrix(1 0 0 -1 0 841)" d="M344.812 575.829L344.812 592.113" stroke="#000000" stroke-width="0.398" fill="none" /><path id="667" transform="matrix(1 0 0 -1 0 841)" d="M283.532 575.829L345.011 575.829" stroke="#000000" stroke-width="0.398" fill="none" /><path id="901" transform="matrix(1 0 0 -1 0 841)" d="M270.392 509.279L325.241 509.279" stroke="#000000" stroke-width="0.398" fill="none" /><path id="920" transform="matrix(1 0 0 -1 0 841)" d="M339.801 509.279L366.002 509.279" stroke="#000000" stroke-width="0.398" fill="none" /><path id="937" transform="matrix(1 0 0 -1 0 841)" d="M379.366 517.393L419.296 517.393" stroke="#000000" stroke-width="0.398" fill="none" /><path id="938" transform="matrix(1 0 0 -1 0 841)" d="M379.566 501.109L379.566 517.393" stroke="#000000" stroke-width="0.398" fill="none" /><path id="939" transform="matrix(1 0 0 -1 0 841)" d="M419.097 501.109L419.097 517.393" stroke="#000000" stroke-width="0.398" fill="none" /><path id="940" transform="matrix(1 0 0 -1 0 841)" d="M379.366 501.109L419.296 501.109" stroke="#000000" stroke-width="0.398" fill="none" /><path id="1053" transform="matrix(1 0 0 -1 0 841)" d="M428.949 487.505L468.879 487.505" stroke="#000000" stroke-width="0.398" fill="none" /><path id="1054" transform="matrix(1 0 0 -1 0 841)" d="M429.149 471.222L429.149 487.506" stroke="#000000" stroke-width="0.398" fill="none" /><path id="1055" transform="matrix(1 0 0 -1 0 841)" d="M468.68 471.222L468.68 487.506" stroke="#000000" stroke-width="0.398" fill="none" /><path id="1056" transform="matrix(1 0 0 -1 0 841)" d="M428.949 471.222L468.879 471.222" stroke="#000000" stroke-width="0.398" fill="none" /><path id="1448" transform="matrix(1 0 0 -1 0 841)" d="M113.508 316.549L163.534 316.549" stroke="#000000" stroke-width="0.398" fill="none" /><path id="1468" transform="matrix(1 0 0 -1 0 841)" d="M251.552 316.549L260.561 316.549" stroke="#000000" stroke-width="0.398" fill="none" /><path id="1473" transform="matrix(1 0 0 -1 0 841)" d="M117.961 287.432L126.97 287.432" stroke="#000000" stroke-width="0.398" fill="none" /><path id="1479" transform="matrix(1 0 0 -1 0 841)" d="M141.529 287.432L167.73 287.432" stroke="#000000" stroke-width="0.398" fill="none" /><path id="1496" transform="matrix(1 0 0 -1 0 841)" d="M204.975 287.432L213.984 287.432" stroke="#000000" stroke-width="0.398" fill="none" /><path id="1546" transform="matrix(1 0 0 -1 0 841)" d="M358.706 254.25L370.88 254.25" stroke="#000000" stroke-width="0.398" fill="none" /><path id="1548" transform="matrix(1 0 0 -1 0 841)" d="M331.439 266.021L375.464 266.021" stroke="#000000" stroke-width="0.398" fill="none" /><path id="1549" transform="matrix(1 0 0 -1 0 841)" d="M331.638 241.628L331.638 266.021" stroke="#000000" stroke-width="0.398" fill="none" /><path id="1550" transform="matrix(1 0 0 -1 0 841)" d="M375.264 241.628L375.264 266.021" stroke="#000000" stroke-width="0.398" fill="none" /><path id="1551" transform="matrix(1 0 0 -1 0 841)" d="M331.439 241.628L375.464 241.628" stroke="#000000" stroke-width="0.398" fill="none" /><path id="1580" transform="matrix(1 0 0 -1 0 841)" d="M230.876 219.439L245.621 219.439" stroke="#000000" stroke-width="0.398" fill="none" /><path id="1589" transform="matrix(1 0 0 -1 0 841)" d="M255.761 219.439L272.548 219.439" stroke="#000000" stroke-width="0.398" fill="none" /><path id="1689" transform="matrix(1 0 0 -1 0 841)" d="M128.452 161.205L167.419 161.205" stroke="#000000" stroke-width="0.398" fill="none" /><path id="1704" transform="matrix(1 0 0 -1 0 841)" d="M196.394 161.205L231.093 161.205" stroke="#000000" stroke-width="0.398" fill="none" /><path id="1726" transform="matrix(1 0 0 -1 0 841)" d="M289.37 161.205L339.6 161.205" stroke="#000000" stroke-width="0.398" fill="none" /><path id="1756" transform="matrix(1 0 0 -1 0 841)" d="M377.406 161.205L416.373 161.205" stroke="#000000" stroke-width="0.398" fill="none" /><path id="1776" transform="matrix(1 0 0 -1 0 841)" d="M130.137 132.088L164.836 132.088" stroke="#000000" stroke-width="0.398" fill="none" /><path id="1784" transform="matrix(1 0 0 -1 0 841)" d="M189.358 132.088L236.032 132.088" stroke="#000000" stroke-width="0.398" fill="none" /><path id="1812" transform="matrix(1 0 0 -1 0 841)" d="M275.499 132.088L310.198 132.088" stroke="#000000" stroke-width="0.398" fill="none" /><path id="1828" transform="matrix(1 0 0 -1 0 841)" d="M133.433 101.312L168.132 101.312" stroke="#000000" stroke-width="0.398" fill="none" /><path id="1838" transform="matrix(1 0 0 -1 0 841)" d="M178.272 101.312L212.971 101.312" stroke="#000000" stroke-width="0.398" fill="none" /><path id="1891" transform="matrix(1 0 0 -1 0 841)" d="M403.529 109.287L437.97 109.287" stroke="#000000" stroke-width="0.398" fill="none" /><path id="1892" transform="matrix(1 0 0 -1 0 841)" d="M403.728 94.767L403.728 109.287" stroke="#000000" stroke-width="0.398" fill="none" /><path id="1893" transform="matrix(1 0 0 -1 0 841)" d="M437.771 94.767L437.771 109.287" stroke="#000000" stroke-width="0.398" fill="none" /><path id="1894" transform="matrix(1 0 0 -1 0 841)" d="M403.529 94.767L437.97 94.767" stroke="#000000" stroke-width="0.398" fill="none" /><g transform="matrix(0.2 0 0 0.2 249.239 774.845)"><g transform="matrix(1 0 0 1 0 0)"><image x="0" y="0" xlink:href="img_04.png" width="484" height="104" /></g></g></g></g></svg>