<svg xmlns="http://www.w3.org/2000/svg" xmlns:xlink="http://www.w3.org/1999/xlink" id="body_124" preserveAspectRatio="xMinYMin meet" viewBox="0 0 793 1121"><defs><clipPath id="1"><path id="" clip-rule="evenodd" transform="matrix(1 0 0 1 0 0)" d="M0 841L0 -0.8900146L0 -0.8900146L595.276 -0.8900146L595.276 -0.8900146L595.276 841L595.276 841L0 841z" /></clipPath></defs><g transform="matrix(1.333333 0 0 1.333333 0 0)"><g clip-path="url(#1)"><path id="20" transform="matrix(1 0 0 -1 0 841)" d="M85.039 766.564L510.236 766.564" stroke="#000000" stroke-width="0.498" fill="none" /><g transform="matrix(0 -0.384 0.384 0 90.73096 703.64)"><g transform="matrix(1 0 0 1 0 0)"><image x="0" y="0" xlink:href="img_189.png" width="1477" height="1022" /></g></g><path id="22" transform="matrix(1 0 0 -1 0 841)" d="M494.208 366.7815L491.6771 366.7815L491.6771 366.7815L491.6771 366.5306C 492.5498 366.3997 492.7134 366.2033 492.7134 365.3306L492.7134 365.3306L492.7134 363.7488L492.7134 363.7488L490.2916 363.7488C 489.9861 363.7488 489.9207 363.7924 489.9207 364.0978L489.9207 364.0978L489.9207 365.5815C 489.9207 366.8033 490.0916 367.0506 491.0662 367.2397L491.0662 367.2397L491.0662 367.5124L491.0662 367.5124L489.5062 367.4797L489.5062 367.4797L489.5062 361.687L489.5062 361.687L489.7134 361.687C 489.7861 362.4869 489.9389 362.636 490.6953 362.636L490.6953 362.636L495.4189 362.636C 496.3352 362.636 496.4771 362.5161 496.5207 361.687L496.5207 361.687L496.728 361.687L496.728 361.687L496.728 364.7415L496.728 364.7415L496.5207 364.7415C 496.4771 363.8978 496.3243 363.7488 495.5389 363.7488L495.5389 363.7488L493.1607 363.7488L493.1607 363.7488L493.1607 365.3306C 493.1607 366.2033 493.3352 366.3997 494.208 366.5306z" stroke="none" fill="#000000" fill-rule="evenodd" /><path id="23" transform="matrix(1 0 0 -1 0 841)" d="M496.008 372.2797C 496.168 372.0906 496.2152 371.9597 496.2152 371.7996C 496.2152 371.5378 496.0625 371.4724 495.5825 371.4724L495.5825 371.4724L493.4553 371.4724C 492.888 371.4724 492.5716 371.4142 492.3098 371.2542C 491.9171 371.0069 491.7098 370.5414 491.7098 369.9015C 491.7098 368.8687 492.248 368.0687 492.9316 368.0687C 493.1934 368.0687 493.4007 368.276 493.4007 368.5378C 493.4007 368.7996 493.1898 369.0287 492.9425 369.0287C 492.8989 369.0287 492.8552 369.0069 492.768 369.0069C 492.6807 368.9778 492.5934 368.9742 492.5062 368.9742C 492.2152 368.9742 491.9716 369.3233 491.9716 369.7596C 491.9716 370.2833 492.2952 370.5887 492.8771 370.5887L492.8771 370.5887L493.5425 370.5887C 494.2261 368.9015 494.3134 368.7197 494.7207 368.2542C 494.9389 368.0069 495.3207 367.8615 495.6698 367.8615C 496.368 367.8615 496.8371 368.3378 496.8371 369.0069C 496.8371 369.4869 496.608 369.9305 496.0407 370.5997C 496.608 370.6433 496.8371 370.8469 496.8371 371.2979C 496.8371 371.6614 496.7134 371.8869 496.2916 372.2797zM495.3862 370.5887C 495.7352 370.5887 495.8225 370.5233 495.9534 370.3051C 496.1134 370.0433 496.2043 369.7269 496.2043 369.5087C 496.2043 369.116 495.8443 368.8215 495.3643 368.8215L495.3643 368.8215L495.3207 368.8215C 494.6807 368.8215 494.2843 369.2651 493.8043 370.5887z" stroke="none" fill="#000000" fill-rule="evenodd" /><path id="24" transform="matrix(1 0 0 -1 0 841)" d="M495.0262 376.6433C 495.7971 376.1196 496.0516 375.716 496.0516 375.1051C 496.0516 374.1014 495.1898 373.4142 493.9243 373.4142C 492.8043 373.4142 492.0262 374.0106 492.0262 374.8978C 492.0262 375.2906 492.157 375.4251 492.5498 375.5414L492.5498 375.5414L492.7898 375.6069C 493.0952 375.6942 493.2916 375.8869 493.2916 376.1196C 493.2916 376.396 493.0952 376.6433 492.8334 376.6433C 492.2225 376.6433 491.7098 375.8796 491.7098 374.9633C 491.7098 374.4251 491.928 373.8615 492.3207 373.4251C 492.8007 372.8724 493.5461 372.5742 494.4043 372.5742C 495.8298 372.5742 496.8371 373.4251 496.8371 374.6469C 496.8371 375.1269 496.6734 375.5742 496.3243 375.9669C 496.0625 376.2578 495.7789 376.4615 495.1243 376.796z" stroke="none" fill="#000000" fill-rule="evenodd" /><path id="25" transform="matrix(1 0 0 -1 0 841)" d="M496.1825 382.3705L496.1825 382.316C 496.1825 381.8069 496.0698 381.6942 495.5607 381.6942L495.5607 381.6942L491.8189 381.6942L491.8189 381.6942L491.8189 379.9706L491.8189 379.9706L492.0043 379.9706C 492.048 380.6396 492.1534 380.7778 492.6916 380.7778L492.6916 380.7778L495.2552 380.7778C 495.5607 380.7778 495.7171 380.716 495.8334 380.5706C 496.0807 380.2651 496.2043 379.9305 496.2043 379.6105C 496.2043 379.1742 495.8407 378.836 495.3752 378.836L495.3752 378.836L491.8189 378.836L491.8189 378.836L491.8189 377.2433L491.8189 377.2433L491.9716 377.2433C 492.0153 377.7669 492.1752 377.9197 492.6698 377.9197L492.6698 377.9197L495.4189 377.9197C 496.2916 377.9197 496.8371 378.4396 496.8371 379.2396C 496.8371 379.6324 496.6734 380.0579 496.368 380.3633L496.368 380.3633L495.8989 380.8324L495.8989 380.8324L496.8043 380.8324L496.8043 380.8324L496.8262 380.876C 496.608 381.4142 496.4952 381.8033 496.3352 382.3705z" stroke="none" fill="#000000" fill-rule="evenodd" /><path id="26" transform="matrix(1 0 0 -1 0 841)" d="M489.9316 382.8069L489.9316 382.8724C 489.9316 382.9888 489.9098 383.1233 489.9098 383.2106C 489.9098 383.5596 490.0662 383.6688 490.5753 383.6688L490.5753 383.6688L495.7789 383.6688C 496.3752 383.6688 496.5207 383.5124 496.5643 382.8287L496.5643 382.8287L496.728 382.8287L496.728 382.8287L496.728 385.4033L496.728 385.4033L496.5643 385.4033C 496.5207 384.7051 496.4225 384.5851 495.8116 384.5851L495.8116 384.5851L489.2989 384.5851L489.2989 384.5851L489.2771 384.5415C 489.4662 383.9742 489.5825 383.5488 489.757 382.8069z" stroke="none" fill="#000000" fill-rule="evenodd" /><path id="27" transform="matrix(1 0 0 -1 0 841)" d="M491.8189 388.4142L491.8189 387.3124L491.8189 387.3124L490.5534 387.3124C 490.4516 387.3124 490.4116 387.2942 490.4116 387.236C 490.5134 387.1487 490.6152 387.0906 490.717 387.0178C 491.328 386.596 491.8407 386.1342 491.8843 385.9597C 491.9716 385.8287 492.048 385.7742 492.0916 385.7742C 492.1353 385.7742 492.1534 385.7742 492.168 385.8179L492.168 385.8179L492.168 386.396L492.168 386.396L495.4516 386.396C 496.368 386.396 496.8371 386.7124 496.8371 387.3669C 496.8371 387.8906 496.5753 388.3124 496.008 388.676L496.008 388.676L495.888 388.5342C 496.1643 388.3015 496.2698 388.1124 496.2698 387.8796C 496.2698 387.4724 495.9861 387.3124 495.288 387.3124L495.288 387.3124L492.168 387.3124L492.168 387.3124L492.168 388.4142z" stroke="none" fill="#000000" fill-rule="evenodd" /><path id="28" transform="matrix(1 0 0 -1 0 841)" d="M496.008 393.4869C 496.168 393.2979 496.2152 393.1669 496.2152 393.007C 496.2152 392.7451 496.0625 392.6797 495.5825 392.6797L495.5825 392.6797L493.4553 392.6797C 492.888 392.6797 492.5716 392.6215 492.3098 392.4615C 491.9171 392.2142 491.7098 391.7488 491.7098 391.1088C 491.7098 390.076 492.248 389.276 492.9316 389.276C 493.1934 389.276 493.4007 389.4833 493.4007 389.7451C 493.4007 390.007 493.1898 390.236 492.9425 390.236C 492.8989 390.236 492.8552 390.2142 492.768 390.2142C 492.6807 390.1851 492.5934 390.1815 492.5062 390.1815C 492.2152 390.1815 491.9716 390.5306 491.9716 390.9669C 491.9716 391.4906 492.2952 391.796 492.8771 391.796L492.8771 391.796L493.5425 391.796C 494.2261 390.1088 494.3134 389.9269 494.7207 389.4615C 494.9389 389.2142 495.3207 389.0687 495.6698 389.0687C 496.368 389.0687 496.8371 389.5451 496.8371 390.2142C 496.8371 390.6942 496.608 391.1378 496.0407 391.8069C 496.608 391.8506 496.8371 392.0542 496.8371 392.5051C 496.8371 392.8688 496.7134 393.0942 496.2916 393.4869zM495.3862 391.796C 495.7352 391.796 495.8225 391.7306 495.9534 391.5124C 496.1134 391.2505 496.2043 390.9342 496.2043 390.716C 496.2043 390.3233 495.8443 390.0287 495.3643 390.0287L495.3643 390.0287L495.3207 390.0287C 494.6807 390.0287 494.2843 390.4724 493.8043 391.796z" stroke="none" fill="#000000" fill-rule="evenodd" /><path id="29" transform="matrix(1 0 0 -1 0 841)" d="M491.8189 396.2906L491.8189 395.1888L491.8189 395.1888L490.5534 395.1888C 490.4516 395.1888 490.4116 395.1706 490.4116 395.1124C 490.5134 395.0251 490.6152 394.9669 490.717 394.8942C 491.328 394.4724 491.8407 394.0106 491.8843 393.836C 491.9716 393.7051 492.048 393.6506 492.0916 393.6506C 492.1353 393.6506 492.1534 393.6506 492.168 393.6942L492.168 393.6942L492.168 394.2724L492.168 394.2724L495.4516 394.2724C 496.368 394.2724 496.8371 394.5887 496.8371 395.2433C 496.8371 395.767 496.5753 396.1888 496.008 396.5524L496.008 396.5524L495.888 396.4106C 496.1643 396.1779 496.2698 395.9888 496.2698 395.756C 496.2698 395.3488 495.9861 395.1888 495.288 395.1888L495.288 395.1888L492.168 395.1888L492.168 395.1888L492.168 396.2906z" stroke="none" fill="#000000" fill-rule="evenodd" /><path id="30" transform="matrix(1 0 0 -1 0 841)" d="M491.7098 398.4506L492.3098 396.7596L492.3098 396.7596L492.4734 396.7596L492.4734 396.7596L492.4625 396.8469C 492.448 396.9778 492.4298 397.116 492.4298 397.2178C 492.4298 397.4797 492.6043 397.5778 493.0844 397.5778L493.0844 397.5778L495.6152 397.5778C 496.4007 397.5778 496.5207 397.4578 496.5643 396.716L496.5643 396.716L496.728 396.716L496.728 396.716L496.728 399.3015L496.728 399.3015L496.5643 399.3015C 496.5207 398.5742 496.4007 398.4942 495.6152 398.4942L495.6152 398.4942L491.7425 398.4942zM489.2771 397.9379C 489.2771 397.6324 489.528 397.3924 489.8334 397.3924C 490.1389 397.3924 490.3898 397.6324 490.3898 397.9379C 490.3898 398.2433 490.1534 398.5051 489.8334 398.5051C 489.528 398.5051 489.2771 398.2433 489.2771 397.9379z" stroke="none" fill="#000000" fill-rule="evenodd" /><path id="31" transform="matrix(1 0 0 -1 0 841)" d="M491.8189 404.5051L491.8189 402.9888L491.8189 402.9888L491.9825 402.9888C 492.0262 403.3379 492.128 403.5015 492.3316 403.5015C 492.448 403.5015 492.5571 403.4797 492.6589 403.436L492.6589 403.436L495.4843 402.3561L495.4843 402.3561L492.6916 401.2433C 492.5461 401.1706 492.3898 401.1451 492.288 401.1451C 492.0989 401.1451 492.0262 401.2543 491.9825 401.647L491.9825 401.647L491.8189 401.647L491.8189 401.647L491.8189 399.5088L491.8189 399.5088L491.9825 399.5088C 492.0116 399.9161 492.1171 399.9924 493.2371 400.5015L493.2371 400.5015L496.368 401.8106C 496.4407 401.8251 496.5098 401.8542 496.597 401.8979C 496.7862 401.9561 496.8807 402.0215 496.8807 402.0942C 496.8807 402.1524 496.7425 402.2252 496.3352 402.3997L496.3352 402.3997L492.8334 403.7961C 492.0916 404.1015 492.0262 404.1706 491.9825 404.5051z" stroke="none" fill="#000000" fill-rule="evenodd" /><path id="32" transform="matrix(1 0 0 -1 0 841)" d="M494.9389 409.0433C 495.768 408.5197 496.0844 408.0506 496.0844 407.3524C 496.0844 406.7269 495.7716 406.2506 495.1461 405.9451C 494.7389 405.7415 494.3752 405.6652 493.7061 405.6506L493.7061 405.6506L493.7061 409.0106C 493.008 408.9233 492.6807 408.8033 492.3316 408.5415C 491.9389 408.207 491.7098 407.7124 491.7098 407.1451C 491.7098 406.5924 491.9134 406.0797 492.2771 405.6724C 492.728 405.1487 493.5062 404.8651 494.3934 404.8651C 495.9062 404.8651 496.8371 405.6397 496.8371 406.9052C 496.8371 407.9379 496.1934 408.7524 495.0153 409.2179zM493.3571 405.6724C 492.5134 405.7888 492.1025 406.1597 492.1025 406.8288C 492.1025 407.4833 492.4116 407.7524 493.3571 407.8979z" stroke="none" fill="#000000" fill-rule="evenodd" /><path id="33" transform="matrix(1 0 0 -1 0 841)" d="M492.4407 412.2615C 492.4407 412.3488 492.4298 412.4324 492.4298 412.5342C 492.4298 412.8979 492.5425 412.9815 493.0516 412.9815L493.0516 412.9815L498.1571 412.9815C 498.7243 412.9815 498.8371 412.8578 498.9098 412.2179L498.9098 412.2179L499.0952 412.2179L499.0952 412.2179L499.0952 414.8578L499.0952 414.8578L498.8989 414.8578C 498.8843 414.0288 498.7643 413.8979 498.0807 413.8979L498.0807 413.8979L496.368 413.8979C 496.7316 414.2761 496.8371 414.5342 496.8371 414.9997C 496.8371 416.2797 495.6189 417.2906 494.0334 417.2906C 492.6807 417.2906 491.7098 416.5161 491.7098 415.4688C 491.7098 414.8578 491.9898 414.3779 492.5716 413.8979L492.5716 413.8979L491.7316 413.8979L491.7316 413.8979L491.7098 413.8324C 491.9425 413.2361 492.0916 412.8578 492.2661 412.2615zM493.0844 413.8979C 492.7643 413.8979 492.3643 414.5015 492.3643 415.0106C 492.3643 415.8106 493.1934 416.3524 494.4589 416.3524C 495.6807 416.3524 496.488 415.8179 496.488 415.0324C 496.488 414.5088 496.1025 413.8979 495.768 413.8979z" stroke="none" fill="#000000" fill-rule="evenodd" /><path id="34" transform="matrix(1 0 0 -1 0 841)" d="M491.7098 420.3452C 491.7098 418.9197 492.7643 417.9343 494.2625 417.9343C 495.7462 417.9343 496.8371 418.9415 496.8371 420.3234C 496.8371 421.6906 495.688 422.7452 494.1752 422.7452C 492.7498 422.7452 491.7098 421.7415 491.7098 420.3452zM492.0153 420.2033C 492.0153 421.1197 493.0734 421.7634 494.5571 421.7634C 495.7934 421.7634 496.5316 421.2688 496.5316 420.4542C 496.5316 420.0179 496.2698 419.6143 495.8334 419.3961C 495.2661 419.0906 494.5134 418.9161 493.728 418.9161C 492.6953 418.9161 492.0153 419.4179 492.0153 420.2033z" stroke="none" fill="#000000" fill-rule="evenodd" /><path id="35" transform="matrix(1 0 0 -1 0 841)" d="M492.3862 423.2469C 492.3571 423.3052 492.3425 423.4106 492.3425 423.5415C 492.3425 423.847 492.5171 423.9451 493.0407 423.9451L493.0407 423.9451L495.7462 423.9451C 496.3716 423.9451 496.5207 423.8215 496.5643 423.2688L496.5643 423.2688L496.728 423.2688L496.728 423.2688L496.728 425.5815L496.728 425.5815L496.5643 425.5815C 496.5207 425.0142 496.3898 424.8615 495.9971 424.8615L495.9971 424.8615L492.9316 424.8615C 492.4516 425.3851 492.3098 425.6215 492.3098 425.9852C 492.3098 426.5088 492.6552 426.7815 493.368 426.7815L493.368 426.7815L495.648 426.7815C 496.3462 426.7815 496.5207 426.6324 496.5643 426.0942L496.5643 426.0942L496.728 426.0942L496.728 426.0942L496.728 428.3633L496.728 428.3633L496.5643 428.3633C 496.5207 427.8251 496.3825 427.6979 495.8443 427.6979L495.8443 427.6979L493.3462 427.6979C 492.328 427.6979 491.7098 427.2106 491.7098 426.4106C 491.7098 425.9016 491.8952 425.5706 492.5934 424.8288L492.5934 424.8288L491.7316 424.8288L491.7316 424.8288L491.7098 424.7524C 491.9134 424.2142 492.0262 423.8433 492.2007 423.2469z" stroke="none" fill="#000000" fill-rule="evenodd" /><path id="36" transform="matrix(1 0 0 -1 0 841)" d="M496.8371 432.2797L496.2698 433.8834L496.2698 433.8834L496.0952 433.8834C 496.1098 433.6797 496.1061 433.6615 496.1061 433.6324C 496.1061 433.2397 495.9934 433.1525 495.4843 433.1525L495.4843 433.1525L489.2989 433.1525L489.2989 433.1525L489.2771 433.0979C 489.4662 432.5743 489.5825 432.1924 489.757 431.4943L489.757 431.4943L489.9316 431.4943C 489.9316 431.5815 489.9207 431.647 489.9207 431.7343C 489.9207 432.127 490.0407 432.2361 490.4771 432.2361L490.4771 432.2361L492.1789 432.2361C 491.8298 431.8143 491.7098 431.527 491.7098 431.0906C 491.7098 429.8251 492.9498 428.8215 494.4916 428.8215C 495.888 428.8215 496.8371 429.6324 496.8371 430.8397C 496.8371 431.4506 496.6298 431.8579 496.1061 432.2361L496.1061 432.2361L496.8043 432.2361zM495.6152 432.2361C 495.7025 432.2361 495.8262 432.1525 495.9425 432.0506C 496.1607 431.847 496.2698 431.5706 496.2698 431.2651C 496.2698 430.3488 495.408 429.7597 494.0552 429.7597C 492.8334 429.7597 492.0153 430.2943 492.0153 431.1234C 492.0153 431.6906 492.5389 432.2361 493.1061 432.2361z" stroke="none" fill="#000000" fill-rule="evenodd" /><path id="37" transform="matrix(1 0 0 -1 0 841)" d="M493.3025 440.1451L491.8189 440.1015L491.8189 440.1015L491.8189 439.9815L491.8189 439.9815L491.8407 439.9597C 491.928 439.8579 491.928 439.8506 491.928 439.807C 491.928 439.7343 491.9098 439.6288 491.8516 439.5125C 491.7643 439.2651 491.7207 439.0251 491.7207 438.7488C 491.7207 437.8761 492.2771 437.2651 493.0625 437.2651C 493.6734 437.2651 494.1098 437.6106 494.6334 438.5415L494.6334 438.5415L494.9934 439.1743C 495.2116 439.5524 495.4771 439.7415 495.8116 439.7415C 496.2916 439.7415 496.597 439.3888 496.597 438.8361C 496.597 438.4579 496.4625 438.1234 496.2152 437.9197C 495.9534 437.687 495.6953 437.5815 495.0698 437.4506L495.0698 437.4506L495.0698 437.2761L495.0698 437.2761L496.7716 437.2761L496.7716 437.2761L496.7716 437.4179C 496.6698 437.4906 496.6407 437.5379 496.6407 437.6688C 496.6407 437.7561 496.6698 437.9088 496.728 438.1706C 496.7862 438.4761 496.8371 438.7634 496.8371 438.967C 496.8371 439.7961 496.2116 440.5052 495.4407 440.5052C 494.9025 440.5052 494.5352 440.2433 494.1425 439.5888L494.1425 439.5888L493.4443 438.4106C 493.2698 438.1052 493.008 437.9415 492.7025 437.9415C 492.2661 437.9415 491.9607 438.2725 491.9607 438.7816C 491.9607 439.3925 492.3425 439.7197 493.3025 439.9815z" stroke="none" fill="#000000" fill-rule="evenodd" /><path id="38" transform="matrix(1 0 0 -1 0 841)" d="M495.0262 445.2943C 495.7971 444.7706 496.0516 444.367 496.0516 443.7561C 496.0516 442.7524 495.1898 442.0652 493.9243 442.0652C 492.8043 442.0652 492.0262 442.6616 492.0262 443.5488C 492.0262 443.9415 492.157 444.076 492.5498 444.1924L492.5498 444.1924L492.7898 444.2579C 493.0952 444.3452 493.2916 444.5379 493.2916 444.7706C 493.2916 445.047 493.0952 445.2943 492.8334 445.2943C 492.2225 445.2943 491.7098 444.5306 491.7098 443.6143C 491.7098 443.076 491.928 442.5125 492.3207 442.076C 492.8007 441.5234 493.5461 441.2252 494.4043 441.2252C 495.8298 441.2252 496.8371 442.076 496.8371 443.2979C 496.8371 443.7779 496.6734 444.2252 496.3243 444.6179C 496.0625 444.9088 495.7789 445.1124 495.1243 445.447z" stroke="none" fill="#000000" fill-rule="evenodd" /><path id="39" transform="matrix(1 0 0 -1 0 841)" d="M492.9861 447.5088C 492.4916 447.9597 492.2989 448.2834 492.2989 448.7197C 492.2989 449.2579 492.6989 449.5379 493.4553 449.5379L493.4553 449.5379L495.6152 449.5379C 496.3571 449.5379 496.5062 449.4215 496.5643 448.7961L496.5643 448.7961L496.728 448.7961L496.728 448.7961L496.728 451.1088L496.728 451.1088L496.5643 451.1088C 496.4625 450.5125 496.3716 450.4543 495.6152 450.4543L495.6152 450.4543L493.4443 450.4543C 492.3098 450.4543 491.7098 449.9852 491.7098 449.1124C 491.7098 448.4579 491.9716 448.0034 492.6262 447.5088L492.6262 447.5088L489.3098 447.5088L489.3098 447.5088L489.2771 447.4543C 489.408 447.0761 489.4952 446.8106 489.6698 446.1997L489.6698 446.1997L489.757 445.9052L489.757 445.9052L489.9316 445.9052C 489.9316 445.9488 489.9207 445.9779 489.9207 446.0361C 489.9207 446.5015 490.0116 446.5925 490.4771 446.5925L490.4771 446.5925L495.6152 446.5925C 496.3862 446.5925 496.4771 446.5197 496.5643 445.8943L496.5643 445.8943L496.728 445.8943L496.728 445.8943L496.728 448.2506L496.728 448.2506L496.5643 448.2506C 496.5062 447.6107 496.3716 447.5088 495.6152 447.5088z" stroke="none" fill="#000000" fill-rule="evenodd" /><path id="40" transform="matrix(1 0 0 -1 0 841)" d="M494.9389 455.7015C 495.768 455.1779 496.0844 454.7088 496.0844 454.0106C 496.0844 453.3852 495.7716 452.9088 495.1461 452.6033C 494.7389 452.3997 494.3752 452.3234 493.7061 452.3088L493.7061 452.3088L493.7061 455.6688C 493.008 455.5815 492.6807 455.4615 492.3316 455.1997C 491.9389 454.8652 491.7098 454.3706 491.7098 453.8033C 491.7098 453.2506 491.9134 452.7379 492.2771 452.3306C 492.728 451.807 493.5062 451.5234 494.3934 451.5234C 495.9062 451.5234 496.8371 452.2979 496.8371 453.5634C 496.8371 454.5961 496.1934 455.4106 495.0153 455.8761zM493.3571 452.3306C 492.5134 452.447 492.1025 452.8179 492.1025 453.487C 492.1025 454.1415 492.4116 454.4106 493.3571 454.5561z" stroke="none" fill="#000000" fill-rule="evenodd" /><path id="41" transform="matrix(1 0 0 -1 0 841)" d="M492.3862 456.3016C 492.3571 456.4324 492.3425 456.5197 492.3425 456.6506C 492.3425 456.927 492.5171 457.0325 493.0407 457.0325L493.0407 457.0325L495.8007 457.0325C 496.3971 457.0325 496.5643 456.8797 496.5643 456.2688L496.5643 456.2688L496.728 456.2688L496.728 456.2688L496.728 458.6906L496.728 458.6906L496.5643 458.6906C 496.5498 458.1088 496.4334 457.9488 495.9971 457.9488L495.9971 457.9488L492.9207 457.9488C 492.9062 457.9488 492.8007 458.0252 492.7134 458.1124C 492.4662 458.3743 492.2771 458.8434 492.2771 459.2361C 492.2771 459.7161 492.6661 459.9561 493.4225 459.9561L493.4225 459.9561L495.7898 459.9561C 496.4007 459.9561 496.5207 459.8252 496.5643 459.2143L496.5643 459.2143L496.728 459.2143L496.728 459.2143L496.728 461.6579L496.728 461.6579L496.5643 461.6579C 496.5643 461.0325 496.3752 460.8724 495.6916 460.8724L495.6916 460.8724L492.9425 460.8724C 492.4771 461.1924 492.2771 461.5525 492.2771 462.0615C 492.2771 462.6725 492.5753 462.8798 493.4771 462.8798L493.4771 462.8798L495.7789 462.8798C 496.4043 462.8798 496.4916 462.7852 496.5643 462.1597L496.5643 462.1597L496.728 462.1597L496.728 462.1597L496.728 464.5488L496.728 464.5488L496.5643 464.5488L496.5643 464.5488L496.5425 464.2652C 496.528 463.9307 496.3352 463.7961 495.8989 463.7961L495.8989 463.7961L493.6516 463.7961C 492.3716 463.7961 491.7098 463.3597 491.7098 462.5306C 491.7098 461.8906 492.0007 461.3343 492.6262 460.7524C 492.0153 460.5488 491.7098 460.1779 491.7098 459.5961C 491.7098 459.1161 491.8661 458.807 492.5498 457.9052L492.5498 457.9052L491.7316 457.9052L491.7316 457.9052L491.7098 457.8288C 491.928 457.2615 492.0407 456.8979 492.2007 456.3016z" stroke="none" fill="#000000" fill-rule="evenodd" /><path id="42" transform="matrix(1 0 0 -1 0 841)" d="M496.008 469.4034C 496.168 469.2143 496.2152 469.0834 496.2152 468.9234C 496.2152 468.6616 496.0625 468.5961 495.5825 468.5961L495.5825 468.5961L493.4553 468.5961C 492.888 468.5961 492.5716 468.5379 492.3098 468.3779C 491.9171 468.1306 491.7098 467.6652 491.7098 467.0252C 491.7098 465.9924 492.248 465.1924 492.9316 465.1924C 493.1934 465.1924 493.4007 465.3997 493.4007 465.6616C 493.4007 465.9234 493.1898 466.1525 492.9425 466.1525C 492.8989 466.1525 492.8552 466.1306 492.768 466.1306C 492.6807 466.1016 492.5934 466.0979 492.5062 466.0979C 492.2152 466.0979 491.9716 466.447 491.9716 466.8834C 491.9716 467.407 492.2952 467.7125 492.8771 467.7125L492.8771 467.7125L493.5425 467.7125C 494.2261 466.0252 494.3134 465.8434 494.7207 465.3779C 494.9389 465.1306 495.3207 464.9852 495.6698 464.9852C 496.368 464.9852 496.8371 465.4615 496.8371 466.1306C 496.8371 466.6107 496.608 467.0543 496.0407 467.7234C 496.608 467.767 496.8371 467.9706 496.8371 468.4216C 496.8371 468.7852 496.7134 469.0106 496.2916 469.4034zM495.3862 467.7125C 495.7352 467.7125 495.8225 467.647 495.9534 467.4288C 496.1134 467.167 496.2043 466.8506 496.2043 466.6324C 496.2043 466.2397 495.8443 465.9452 495.3643 465.9452L495.3643 465.9452L495.3207 465.9452C 494.6807 465.9452 494.2843 466.3889 493.8043 467.7125z" stroke="none" fill="#000000" fill-rule="evenodd" /><path id="43" transform="matrix(1 0 0 -1 0 841)" d="M491.8189 472.207L491.8189 471.1052L491.8189 471.1052L490.5534 471.1052C 490.4516 471.1052 490.4116 471.087 490.4116 471.0288C 490.5134 470.9415 490.6152 470.8834 490.717 470.8107C 491.328 470.3889 491.8407 469.927 491.8843 469.7524C 491.9716 469.6216 492.048 469.567 492.0916 469.567C 492.1353 469.567 492.1534 469.567 492.168 469.6107L492.168 469.6107L492.168 470.1888L492.168 470.1888L495.4516 470.1888C 496.368 470.1888 496.8371 470.5052 496.8371 471.1597C 496.8371 471.6833 496.5753 472.1052 496.008 472.4688L496.008 472.4688L495.888 472.327C 496.1643 472.0943 496.2698 471.9052 496.2698 471.6725C 496.2698 471.2652 495.9861 471.1052 495.288 471.1052L495.288 471.1052L492.168 471.1052L492.168 471.1052L492.168 472.207z" stroke="none" fill="#000000" fill-rule="evenodd" /><path id="44" transform="matrix(1 0 0 -1 0 841)" d="M491.7098 474.367L492.3098 472.6761L492.3098 472.6761L492.4734 472.6761L492.4734 472.6761L492.4625 472.7634C 492.448 472.8943 492.4298 473.0325 492.4298 473.1343C 492.4298 473.3961 492.6043 473.4943 493.0844 473.4943L493.0844 473.4943L495.6152 473.4943C 496.4007 473.4943 496.5207 473.3743 496.5643 472.6324L496.5643 472.6324L496.728 472.6324L496.728 472.6324L496.728 475.2179L496.728 475.2179L496.5643 475.2179C 496.5207 474.4907 496.4007 474.4106 495.6152 474.4106L495.6152 474.4106L491.7425 474.4106zM489.2771 473.8543C 489.2771 473.5488 489.528 473.3088 489.8334 473.3088C 490.1389 473.3088 490.3898 473.5488 490.3898 473.8543C 490.3898 474.1597 490.1534 474.4216 489.8334 474.4216C 489.528 474.4216 489.2771 474.1597 489.2771 473.8543z" stroke="none" fill="#000000" fill-rule="evenodd" /><path id="45" transform="matrix(1 0 0 -1 0 841)" d="M495.0262 479.8325C 495.7971 479.3088 496.0516 478.9052 496.0516 478.2943C 496.0516 477.2906 495.1898 476.6034 493.9243 476.6034C 492.8043 476.6034 492.0262 477.1998 492.0262 478.087C 492.0262 478.4797 492.157 478.6143 492.5498 478.7307L492.5498 478.7307L492.7898 478.7961C 493.0952 478.8834 493.2916 479.0761 493.2916 479.3088C 493.2916 479.5852 493.0952 479.8325 492.8334 479.8325C 492.2225 479.8325 491.7098 479.0688 491.7098 478.1525C 491.7098 477.6143 491.928 477.0507 492.3207 476.6143C 492.8007 476.0616 493.5461 475.7634 494.4043 475.7634C 495.8298 475.7634 496.8371 476.6143 496.8371 477.8361C 496.8371 478.3161 496.6734 478.7634 496.3243 479.1561C 496.0625 479.447 495.7789 479.6506 495.1243 479.9852z" stroke="none" fill="#000000" fill-rule="evenodd" /><g transform="matrix(0.2 0 0 0.2 249.239 774.846)"><g transform="matrix(1 0 0 1 0 0)"><image x="0" y="0" xlink:href="img_04.png" width="484" height="104" /></g></g></g></g></svg>