<svg xmlns="http://www.w3.org/2000/svg" xmlns:xlink="http://www.w3.org/1999/xlink" id="body_340" preserveAspectRatio="xMinYMin meet" viewBox="0 0 793 1121"><defs><clipPath id="1"><path id="" clip-rule="evenodd" transform="matrix(1 0 0 1 0 0)" d="M0 841L0 -0.8900146L0 -0.8900146L595.276 -0.8900146L595.276 -0.8900146L595.276 841L595.276 841L0 841z" /></clipPath></defs><g transform="matrix(1.333333 0 0 1.333333 0 0)"><g clip-path="url(#1)"><path id="38" transform="matrix(1 0 0 -1 0 841)" d="M85.039 766.564L510.236 766.564" stroke="#000000" stroke-width="0.498" fill="none" /><path id="39" transform="matrix(1 0 0 -1 0 841)" d="M84.79 742.529L96.357 742.529L96.357 753.737L84.79 753.737z" stroke="none" fill="#FFF100" fill-rule="nonzero" /><path id="42" transform="matrix(1 0 0 -1 0 841)" d="M95.859 742.529L108.531 742.529L108.531 753.737L95.859 753.737z" stroke="none" fill="#FFF100" fill-rule="nonzero" /><path id="45" transform="matrix(1 0 0 -1 0 841)" d="M108.033 742.529L120.705 742.529L120.705 753.737L108.033 753.737z" stroke="none" fill="#FFF100" fill-rule="nonzero" /><path id="49" transform="matrix(1 0 0 -1 0 841)" d="M120.456 742.529L122.947 742.529L122.947 753.737L120.456 753.737z" stroke="none" fill="#FFF100" fill-rule="nonzero" /><path id="50" transform="matrix(1 0 0 -1 0 841)" d="M122.698 742.529L142.015 742.529L142.015 753.737L122.698 753.737z" stroke="none" fill="#FFF100" fill-rule="nonzero" /><path id="55" transform="matrix(1 0 0 -1 0 841)" d="M141.517 742.529L159.728 742.529L159.728 753.737L141.517 753.737z" stroke="none" fill="#FFF100" fill-rule="nonzero" /><path id="277" transform="matrix(1 0 0 -1 0 841)" d="M202.582 686.793L261.02 686.793" stroke="#000000" stroke-width="0.398" fill="none" /><path id="310" transform="matrix(1 0 0 -1 0 841)" d="M275.579 686.793L409.206 686.793" stroke="#000000" stroke-width="0.398" fill="none" /><path id="348" transform="matrix(1 0 0 -1 0 841)" d="M101.259 662.664L212.427 662.664" stroke="#000000" stroke-width="0.398" fill="none" /><path id="352" transform="matrix(1 0 0 -1 0 841)" d="M96.19 649.912L217.497 649.912" stroke="#000000" stroke-width="0.398" fill="none" /><path id="377" transform="matrix(1 0 0 -1 0 841)" d="M183.275 635.716L216.301 635.716" stroke="#000000" stroke-width="0.398" fill="none" /><path id="394" transform="matrix(1 0 0 -1 0 841)" d="M235.444 649.912L293.882 649.912" stroke="#000000" stroke-width="0.398" fill="none" /><path id="406" transform="matrix(1 0 0 -1 0 841)" d="M230.861 664.213L298.465 664.213" stroke="#000000" stroke-width="0.398" fill="none" /><path id="407" transform="matrix(1 0 0 -1 0 841)" d="M231.06 635.317L231.06 664.213" stroke="#000000" stroke-width="0.398" fill="none" /><path id="408" transform="matrix(1 0 0 -1 0 841)" d="M298.265 635.317L298.265 664.213" stroke="#000000" stroke-width="0.398" fill="none" /><path id="409" transform="matrix(1 0 0 -1 0 841)" d="M230.861 635.317L298.465 635.317" stroke="#000000" stroke-width="0.398" fill="none" /><path id="478" transform="matrix(1 0 0 -1 0 841)" d="M199.255 589.029L298.214 589.029" stroke="#000000" stroke-width="0.398" fill="none" /><path id="548" transform="matrix(1 0 0 -1 0 841)" d="M199.255 550.318L359.804 550.318" stroke="#000000" stroke-width="0.398" fill="none" /><path id="670" transform="matrix(1 0 0 -1 0 841)" d="M84.79 482.61L96.357 482.61L96.357 493.818L84.79 493.818z" stroke="none" fill="#FFF100" fill-rule="nonzero" /><path id="673" transform="matrix(1 0 0 -1 0 841)" d="M95.859 482.61L108.531 482.61L108.531 493.818L95.859 493.818z" stroke="none" fill="#FFF100" fill-rule="nonzero" /><path id="676" transform="matrix(1 0 0 -1 0 841)" d="M108.033 482.61L120.705 482.61L120.705 493.818L108.033 493.818z" stroke="none" fill="#FFF100" fill-rule="nonzero" /><path id="680" transform="matrix(1 0 0 -1 0 841)" d="M120.456 482.61L122.947 482.61L122.947 493.818L120.456 493.818z" stroke="none" fill="#FFF100" fill-rule="nonzero" /><path id="681" transform="matrix(1 0 0 -1 0 841)" d="M122.698 482.61L142.015 482.61L142.015 493.818L122.698 493.818z" stroke="none" fill="#FFF100" fill-rule="nonzero" /><path id="686" transform="matrix(1 0 0 -1 0 841)" d="M141.517 482.61L163.604 482.61L163.604 493.818L141.517 493.818z" stroke="none" fill="#FFF100" fill-rule="nonzero" /><path id="805" transform="matrix(1 0 0 -1 0 841)" d="M176.397 437.962L188.593 437.962" stroke="#000000" stroke-width="0.398" fill="none" /><path id="813" transform="matrix(1 0 0 -1 0 841)" d="M203.152 437.962L220.856 437.962" stroke="#000000" stroke-width="0.398" fill="none" /><path id="822" transform="matrix(1 0 0 -1 0 841)" d="M234.22 445.325L253.717 445.325" stroke="#000000" stroke-width="0.398" fill="none" /><path id="823" transform="matrix(1 0 0 -1 0 841)" d="M234.419 432.284L234.419 445.325" stroke="#000000" stroke-width="0.398" fill="none" /><path id="824" transform="matrix(1 0 0 -1 0 841)" d="M253.517 432.284L253.517 445.325" stroke="#000000" stroke-width="0.398" fill="none" /><path id="825" transform="matrix(1 0 0 -1 0 841)" d="M234.22 432.284L253.717 432.284" stroke="#000000" stroke-width="0.398" fill="none" /><path id="1017" transform="matrix(1 0 0 -1 0 841)" d="M283.209 342.828L295.931 342.828" stroke="#000000" stroke-width="0.398" fill="none" /><path id="1029" transform="matrix(1 0 0 -1 0 841)" d="M309.295 350.22L356.856 350.22" stroke="#000000" stroke-width="0.398" fill="none" /><path id="1030" transform="matrix(1 0 0 -1 0 841)" d="M309.495 336.98L309.495 350.22" stroke="#000000" stroke-width="0.398" fill="none" /><path id="1031" transform="matrix(1 0 0 -1 0 841)" d="M356.657 336.98L356.657 350.22" stroke="#000000" stroke-width="0.398" fill="none" /><path id="1032" transform="matrix(1 0 0 -1 0 841)" d="M309.295 336.98L356.856 336.98" stroke="#000000" stroke-width="0.398" fill="none" /><path id="1090" transform="matrix(1 0 0 -1 0 841)" d="M124.262 260.032L242.699 260.032L242.699 271.24L124.262 271.24z" stroke="none" fill="#FFF100" fill-rule="nonzero" /><path id="1117" transform="matrix(1 0 0 -1 0 841)" d="M105.821 236.4L222.178 236.4L222.178 247.608L105.821 247.608z" stroke="none" fill="#FFF100" fill-rule="nonzero" /><path id="1137" transform="matrix(1 0 0 -1 0 841)" d="M164.395 242.253L220.733 242.253" stroke="#000000" stroke-width="0.398" fill="none" /><path id="1147" transform="matrix(1 0 0 -1 0 841)" d="M84.79 213.023L96.357 213.023L96.357 224.231L84.79 224.231z" stroke="none" fill="#FFF100" fill-rule="nonzero" /><path id="1150" transform="matrix(1 0 0 -1 0 841)" d="M95.859 213.023L108.531 213.023L108.531 224.231L95.859 224.231z" stroke="none" fill="#FFF100" fill-rule="nonzero" /><path id="1153" transform="matrix(1 0 0 -1 0 841)" d="M108.033 213.023L120.705 213.023L120.705 224.231L108.033 224.231z" stroke="none" fill="#FFF100" fill-rule="nonzero" /><path id="1157" transform="matrix(1 0 0 -1 0 841)" d="M120.456 213.023L122.947 213.023L122.947 224.231L120.456 224.231z" stroke="none" fill="#FFF100" fill-rule="nonzero" /><path id="1158" transform="matrix(1 0 0 -1 0 841)" d="M122.698 213.023L142.015 213.023L142.015 224.231L122.698 224.231z" stroke="none" fill="#FFF100" fill-rule="nonzero" /><path id="1163" transform="matrix(1 0 0 -1 0 841)" d="M141.517 213.023L159.728 213.023L159.728 224.231L141.517 224.231z" stroke="none" fill="#FFF100" fill-rule="nonzero" /><path id="1254" transform="matrix(1 0 0 -1 0 841)" d="M147.082 162.705L188.956 162.705" stroke="#000000" stroke-width="0.398" fill="none" /><path id="1273" transform="matrix(1 0 0 -1 0 841)" d="M202.319 170.068L244.361 170.068" stroke="#000000" stroke-width="0.398" fill="none" /><path id="1274" transform="matrix(1 0 0 -1 0 841)" d="M202.519 156.872L202.519 170.067" stroke="#000000" stroke-width="0.398" fill="none" /><path id="1275" transform="matrix(1 0 0 -1 0 841)" d="M244.162 156.872L244.162 170.067" stroke="#000000" stroke-width="0.398" fill="none" /><path id="1276" transform="matrix(1 0 0 -1 0 841)" d="M202.319 156.872L244.361 156.872" stroke="#000000" stroke-width="0.398" fill="none" /><path id="1309" transform="matrix(1 0 0 -1 0 841)" d="M124.262 107.889L274.013 107.889L274.013 119.097L124.262 119.097z" stroke="none" fill="#FFF100" fill-rule="nonzero" /><path id="1335" transform="matrix(1 0 0 -1 0 841)" d="M238.527 113.743L272.569 113.743" stroke="#000000" stroke-width="0.398" fill="none" /><path id="1339" transform="matrix(1 0 0 -1 0 841)" d="M84.79 81.677L96.357 81.677L96.357 92.885L84.79 92.885z" stroke="none" fill="#FFF100" fill-rule="nonzero" /><path id="1342" transform="matrix(1 0 0 -1 0 841)" d="M95.859 81.677L108.531 81.677L108.531 92.885L95.859 92.885z" stroke="none" fill="#FFF100" fill-rule="nonzero" /><path id="1345" transform="matrix(1 0 0 -1 0 841)" d="M108.033 81.677L120.705 81.677L120.705 92.885L108.033 92.885z" stroke="none" fill="#FFF100" fill-rule="nonzero" /><path id="1349" transform="matrix(1 0 0 -1 0 841)" d="M120.456 81.677L122.947 81.677L122.947 92.885L120.456 92.885z" stroke="none" fill="#FFF100" fill-rule="nonzero" /><path id="1350" transform="matrix(1 0 0 -1 0 841)" d="M122.698 81.677L142.015 81.677L142.015 92.885L122.698 92.885z" stroke="none" fill="#FFF100" fill-rule="nonzero" /><path id="1355" transform="matrix(1 0 0 -1 0 841)" d="M141.517 81.677L159.728 81.677L159.728 92.885L141.517 92.885z" stroke="none" fill="#FFF100" fill-rule="nonzero" /><g transform="matrix(0.2 0 0 0.2 249.239 774.845)"><g transform="matrix(1 0 0 1 0 0)"><image x="0" y="0" xlink:href="img_04.png" width="484" height="104" /></g></g></g></g></svg>