<svg xmlns="http://www.w3.org/2000/svg" xmlns:xlink="http://www.w3.org/1999/xlink" id="body_347" preserveAspectRatio="xMinYMin meet" viewBox="0 0 793 1121"><defs><clipPath id="1"><path id="" clip-rule="evenodd" transform="matrix(1 0 0 1 0 0)" d="M0 841L0 -0.8900146L0 -0.8900146L595.276 -0.8900146L595.276 -0.8900146L595.276 841L595.276 841L0 841z" /></clipPath></defs><g transform="matrix(1.333333 0 0 1.333333 0 0)"><g clip-path="url(#1)"><path id="23" transform="matrix(1 0 0 -1 0 841)" d="M85.039 766.564L510.236 766.564" stroke="#000000" stroke-width="0.498" fill="none" /><path id="174" transform="matrix(1 0 0 -1 0 841)" d="M259.309 718.494L492.187 718.494" stroke="#000000" stroke-width="0.398" fill="none" /><path id="206" transform="matrix(1 0 0 -1 0 841)" d="M112.312 705.892L219.307 705.892" stroke="#000000" stroke-width="0.398" fill="none" /><path id="207" transform="matrix(1 0 0 -1 0 841)" d="M112.511 687.978L112.511 705.8911" stroke="#000000" stroke-width="0.398" fill="none" /><path id="208" transform="matrix(1 0 0 -1 0 841)" d="M219.108 687.978L219.108 705.8911" stroke="#000000" stroke-width="0.398" fill="none" /><path id="209" transform="matrix(1 0 0 -1 0 841)" d="M112.312 687.978L219.307 687.978" stroke="#000000" stroke-width="0.398" fill="none" /><path id="255" transform="matrix(1 0 0 -1 0 841)" d="M84.79 611.573L96.357 611.573L96.357 622.781L84.79 622.781z" stroke="none" fill="#FFF100" fill-rule="nonzero" /><path id="258" transform="matrix(1 0 0 -1 0 841)" d="M95.859 611.573L108.531 611.573L108.531 622.781L95.859 622.781z" stroke="none" fill="#FFF100" fill-rule="nonzero" /><path id="261" transform="matrix(1 0 0 -1 0 841)" d="M108.033 611.573L120.705 611.573L120.705 622.781L108.033 622.781z" stroke="none" fill="#FFF100" fill-rule="nonzero" /><path id="265" transform="matrix(1 0 0 -1 0 841)" d="M120.456 611.573L122.947 611.573L122.947 622.781L120.456 622.781z" stroke="none" fill="#FFF100" fill-rule="nonzero" /><path id="266" transform="matrix(1 0 0 -1 0 841)" d="M122.698 611.573L142.015 611.573L142.015 622.781L122.698 622.781z" stroke="none" fill="#FFF100" fill-rule="nonzero" /><path id="271" transform="matrix(1 0 0 -1 0 841)" d="M141.517 611.573L163.604 611.573L163.604 622.781L141.517 622.781z" stroke="none" fill="#FFF100" fill-rule="nonzero" /><path id="898" transform="matrix(1 0 0 -1 0 841)" d="M376.411 445.644L497.457 445.644" stroke="#000000" stroke-width="0.398" fill="none" /><path id="899" transform="matrix(1 0 0 -1 0 841)" d="M376.61 430.376L376.61 445.644" stroke="#000000" stroke-width="0.398" fill="none" /><path id="900" transform="matrix(1 0 0 -1 0 841)" d="M497.258 430.376L497.258 445.644" stroke="#000000" stroke-width="0.398" fill="none" /><path id="901" transform="matrix(1 0 0 -1 0 841)" d="M376.411 430.376L497.457 430.376" stroke="#000000" stroke-width="0.398" fill="none" /><path id="919" transform="matrix(1 0 0 -1 0 841)" d="M137.508 401.645L212.656 401.645" stroke="#000000" stroke-width="0.398" fill="none" /><path id="939" transform="matrix(1 0 0 -1 0 841)" d="M226.511 401.645L280.966 401.645" stroke="#000000" stroke-width="0.398" fill="none" /><path id="962" transform="matrix(1 0 0 -1 0 841)" d="M290.402 401.645L358.247 401.645" stroke="#000000" stroke-width="0.398" fill="none" /><path id="992" transform="matrix(1 0 0 -1 0 841)" d="M367.682 401.645L436.742 401.645" stroke="#000000" stroke-width="0.398" fill="none" /><path id="1025" transform="matrix(1 0 0 -1 0 841)" d="M446.177 401.645L509.04 401.645" stroke="#000000" stroke-width="0.398" fill="none" /><path id="1050" transform="matrix(1 0 0 -1 0 841)" d="M137.508 357.701L191.963 357.701" stroke="#000000" stroke-width="0.398" fill="none" /><path id="1061" transform="matrix(1 0 0 -1 0 841)" d="M206.522 357.701L277.352 357.701" stroke="#000000" stroke-width="0.398" fill="none" /><path id="1091" transform="matrix(1 0 0 -1 0 841)" d="M319.09 357.701L364.11 357.701" stroke="#000000" stroke-width="0.398" fill="none" /><path id="1095" transform="matrix(1 0 0 -1 0 841)" d="M290.716 373.691L368.694 373.691" stroke="#000000" stroke-width="0.398" fill="none" /><path id="1096" transform="matrix(1 0 0 -1 0 841)" d="M290.915 343.155L290.915 373.691" stroke="#000000" stroke-width="0.398" fill="none" /><path id="1097" transform="matrix(1 0 0 -1 0 841)" d="M368.494 343.155L368.494 373.691" stroke="#000000" stroke-width="0.398" fill="none" /><path id="1098" transform="matrix(1 0 0 -1 0 841)" d="M290.716 343.155L368.694 343.155" stroke="#000000" stroke-width="0.398" fill="none" /><path id="1115" transform="matrix(1 0 0 -1 0 841)" d="M137.508 313.341L211.301 313.341" stroke="#000000" stroke-width="0.398" fill="none" /><path id="1123" transform="matrix(1 0 0 -1 0 841)" d="M221.441 313.341L281.405 313.341" stroke="#000000" stroke-width="0.398" fill="none" /><path id="1146" transform="matrix(1 0 0 -1 0 841)" d="M299.352 313.341L350.699 313.341" stroke="#000000" stroke-width="0.398" fill="none" /><path id="1150" transform="matrix(1 0 0 -1 0 841)" d="M294.769 327.587L355.282 327.587" stroke="#000000" stroke-width="0.398" fill="none" /><path id="1151" transform="matrix(1 0 0 -1 0 841)" d="M294.969 298.796L294.969 327.588" stroke="#000000" stroke-width="0.398" fill="none" /><path id="1152" transform="matrix(1 0 0 -1 0 841)" d="M355.083 298.796L355.083 327.588" stroke="#000000" stroke-width="0.398" fill="none" /><path id="1153" transform="matrix(1 0 0 -1 0 841)" d="M294.769 298.796L355.282 298.796" stroke="#000000" stroke-width="0.398" fill="none" /><path id="1166" transform="matrix(1 0 0 -1 0 841)" d="M137.508 269.121L188.855 269.121" stroke="#000000" stroke-width="0.398" fill="none" /><path id="1174" transform="matrix(1 0 0 -1 0 841)" d="M198.994 269.121L226.799 269.121" stroke="#000000" stroke-width="0.398" fill="none" /><path id="1192" transform="matrix(1 0 0 -1 0 841)" d="M244.747 269.121L298.854 269.121" stroke="#000000" stroke-width="0.398" fill="none" /><path id="1195" transform="matrix(1 0 0 -1 0 841)" d="M240.164 283.228L303.436 283.228" stroke="#000000" stroke-width="0.398" fill="none" /><path id="1196" transform="matrix(1 0 0 -1 0 841)" d="M240.363 256.498L240.363 283.227" stroke="#000000" stroke-width="0.398" fill="none" /><path id="1197" transform="matrix(1 0 0 -1 0 841)" d="M303.237 256.498L303.237 283.227" stroke="#000000" stroke-width="0.398" fill="none" /><path id="1198" transform="matrix(1 0 0 -1 0 841)" d="M240.164 256.498L303.436 256.498" stroke="#000000" stroke-width="0.398" fill="none" /><path id="1360" transform="matrix(1 0 0 -1 0 841)" d="M113.508 198.94L128.412 198.94" stroke="#000000" stroke-width="0.398" fill="none" /><path id="1380" transform="matrix(1 0 0 -1 0 841)" d="M221.93 198.94L234.104 198.94" stroke="#000000" stroke-width="0.398" fill="none" /><path id="1395" transform="matrix(1 0 0 -1 0 841)" d="M297.429 198.94L312.333 198.94" stroke="#000000" stroke-width="0.398" fill="none" /><path id="1399" transform="matrix(1 0 0 -1 0 841)" d="M272.921 213.241L316.916 213.241" stroke="#000000" stroke-width="0.398" fill="none" /><path id="1400" transform="matrix(1 0 0 -1 0 841)" d="M273.12 184.395L273.12 213.242" stroke="#000000" stroke-width="0.398" fill="none" /><path id="1401" transform="matrix(1 0 0 -1 0 841)" d="M316.716 184.395L316.716 213.242" stroke="#000000" stroke-width="0.398" fill="none" /><path id="1402" transform="matrix(1 0 0 -1 0 841)" d="M272.921 184.395L316.916 184.395" stroke="#000000" stroke-width="0.398" fill="none" /><g transform="matrix(0.2 0 0 0.2 249.239 774.845)"><g transform="matrix(1 0 0 1 0 0)"><image x="0" y="0" xlink:href="img_04.png" width="484" height="104" /></g></g></g></g></svg>