<svg xmlns="http://www.w3.org/2000/svg" xmlns:xlink="http://www.w3.org/1999/xlink" id="body_34" preserveAspectRatio="xMinYMin meet" viewBox="0 0 793 1121"><defs><clipPath id="1"><path id="" clip-rule="evenodd" transform="matrix(1 0 0 1 0 0)" d="M0 841L0 -0.8900146L0 -0.8900146L595.276 -0.8900146L595.276 -0.8900146L595.276 841L595.276 841L0 841z" /></clipPath></defs><g transform="matrix(1.333333 0 0 1.333333 0 0)"><g clip-path="url(#1)"><path id="45" transform="matrix(1 0 0 -1 0 841)" d="M85.039 766.564L510.236 766.564" stroke="#000000" stroke-width="0.498" fill="none" /><path id="75" transform="matrix(1 0 0 -1 0 841)" d="M84.79 727.585L98.97701 727.585L98.97701 738.793L84.79 738.793z" stroke="none" fill="#FFF100" fill-rule="nonzero" /><path id="79" transform="matrix(1 0 0 -1 0 841)" d="M98.603 727.585L101.094 727.585L101.094 738.793L98.603 738.793z" stroke="none" fill="#FFF100" fill-rule="nonzero" /><path id="80" transform="matrix(1 0 0 -1 0 841)" d="M100.845 727.585L127.355 727.585L127.355 738.793L100.845 738.793z" stroke="none" fill="#FFF100" fill-rule="nonzero" /><path id="87" transform="matrix(1 0 0 -1 0 841)" d="M126.872 727.585L129.363 727.585L129.363 738.793L126.872 738.793z" stroke="none" fill="#FFF100" fill-rule="nonzero" /><path id="88" transform="matrix(1 0 0 -1 0 841)" d="M129.114 727.585L145.662 727.585L145.662 738.793L129.114 738.793z" stroke="none" fill="#FFF100" fill-rule="nonzero" /><path id="92" transform="matrix(1 0 0 -1 0 841)" d="M145.019 727.585L164.057 727.585L164.057 738.793L145.019 738.793z" stroke="none" fill="#FFF100" fill-rule="nonzero" /><path id="98" transform="matrix(1 0 0 -1 0 841)" d="M163.641 727.585L166.132 727.585L166.132 738.793L163.641 738.793z" stroke="none" fill="#FFF100" fill-rule="nonzero" /><path id="99" transform="matrix(1 0 0 -1 0 841)" d="M165.883 727.585L196.069 727.585L196.069 738.793L165.883 738.793z" stroke="none" fill="#FFF100" fill-rule="nonzero" /><path id="108" transform="matrix(1 0 0 -1 0 841)" d="M195.551 727.585L198.042 727.585L198.042 738.793L195.551 738.793z" stroke="none" fill="#FFF100" fill-rule="nonzero" /><path id="109" transform="matrix(1 0 0 -1 0 841)" d="M197.793 727.585L221.544 727.585L221.544 738.793L197.793 738.793z" stroke="none" fill="#FFF100" fill-rule="nonzero" /><path id="116" transform="matrix(1 0 0 -1 0 841)" d="M221.085 727.585L223.576 727.585L223.576 738.793L221.085 738.793z" stroke="none" fill="#FFF100" fill-rule="nonzero" /><path id="117" transform="matrix(1 0 0 -1 0 841)" d="M223.326 727.585L230.469 727.585L230.469 738.793L223.326 738.793z" stroke="none" fill="#FFF100" fill-rule="nonzero" /><path id="120" transform="matrix(1 0 0 -1 0 841)" d="M230.16 727.585L232.651 727.585L232.651 738.793L230.16 738.793z" stroke="none" fill="#FFF100" fill-rule="nonzero" /><path id="121" transform="matrix(1 0 0 -1 0 841)" d="M232.402 727.585L245.632 727.585L245.632 738.793L232.402 738.793z" stroke="none" fill="#FFF100" fill-rule="nonzero" /><path id="125" transform="matrix(1 0 0 -1 0 841)" d="M245.02 727.585L248.288 727.585L248.288 738.793L245.02 738.793z" stroke="none" fill="#FFF100" fill-rule="nonzero" /><path id="127" transform="matrix(1 0 0 -1 0 841)" d="M247.764 727.585L267.629 727.585L267.629 738.793L247.764 738.793z" stroke="none" fill="#FFF100" fill-rule="nonzero" /><path id="133" transform="matrix(1 0 0 -1 0 841)" d="M267.206 727.585L269.697 727.585L269.697 738.793L267.206 738.793z" stroke="none" fill="#FFF100" fill-rule="nonzero" /><path id="134" transform="matrix(1 0 0 -1 0 841)" d="M269.448 727.585L277.687 727.585L277.687 738.793L269.448 738.793z" stroke="none" fill="#FFF100" fill-rule="nonzero" /><path id="137" transform="matrix(1 0 0 -1 0 841)" d="M277.119 727.585L303.071 727.585L303.071 738.793L277.119 738.793z" stroke="none" fill="#FFF100" fill-rule="nonzero" /><path id="144" transform="matrix(1 0 0 -1 0 841)" d="M302.593 727.585L305.084 727.585L305.084 738.793L302.593 738.793z" stroke="none" fill="#FFF100" fill-rule="nonzero" /><path id="145" transform="matrix(1 0 0 -1 0 841)" d="M304.835 727.585L313.632 727.585L313.632 738.793L304.835 738.793z" stroke="none" fill="#FFF100" fill-rule="nonzero" /><path id="148" transform="matrix(1 0 0 -1 0 841)" d="M313.308 727.585L315.799 727.585L315.799 738.793L313.308 738.793z" stroke="none" fill="#FFF100" fill-rule="nonzero" /><path id="149" transform="matrix(1 0 0 -1 0 841)" d="M315.549 727.585L328.221 727.585L328.221 738.793L315.549 738.793z" stroke="none" fill="#FFF100" fill-rule="nonzero" /><path id="153" transform="matrix(1 0 0 -1 0 841)" d="M327.863 727.585L330.354 727.585L330.354 738.793L327.863 738.793z" stroke="none" fill="#FFF100" fill-rule="nonzero" /><path id="154" transform="matrix(1 0 0 -1 0 841)" d="M330.104 727.585L360.29 727.585L360.29 738.793L330.104 738.793z" stroke="none" fill="#FFF100" fill-rule="nonzero" /><path id="163" transform="matrix(1 0 0 -1 0 841)" d="M359.773 727.585L362.264 727.585L362.264 738.793L359.773 738.793z" stroke="none" fill="#FFF100" fill-rule="nonzero" /><path id="164" transform="matrix(1 0 0 -1 0 841)" d="M362.014 727.585L385.765 727.585L385.765 738.793L362.014 738.793z" stroke="none" fill="#FFF100" fill-rule="nonzero" /><path id="171" transform="matrix(1 0 0 -1 0 841)" d="M385.306 727.585L387.797 727.585L387.797 738.793L385.306 738.793z" stroke="none" fill="#FFF100" fill-rule="nonzero" /><path id="172" transform="matrix(1 0 0 -1 0 841)" d="M387.548 727.585L403.528 727.585L403.528 738.793L387.548 738.793z" stroke="none" fill="#FFF100" fill-rule="nonzero" /><path id="177" transform="matrix(1 0 0 -1 0 841)" d="M402.89 727.585L418.89 727.585L418.89 738.793L402.89 738.793z" stroke="none" fill="#FFF100" fill-rule="nonzero" /><path id="182" transform="matrix(1 0 0 -1 0 841)" d="M418.502 727.585L420.993 727.585L420.993 738.793L418.502 738.793z" stroke="none" fill="#FFF100" fill-rule="nonzero" /><path id="183" transform="matrix(1 0 0 -1 0 841)" d="M420.743 727.585L428.992 727.585L428.992 738.793L420.743 738.793z" stroke="none" fill="#FFF100" fill-rule="nonzero" /><path id="186" transform="matrix(1 0 0 -1 0 841)" d="M428.673 727.585L431.164 727.585L431.164 738.793L428.673 738.793z" stroke="none" fill="#FFF100" fill-rule="nonzero" /><path id="187" transform="matrix(1 0 0 -1 0 841)" d="M430.915 727.585L439.712 727.585L439.712 738.793L430.915 738.793z" stroke="none" fill="#FFF100" fill-rule="nonzero" /><path id="189" transform="matrix(1 0 0 -1 0 841)" d="M439.388 727.585L441.879 727.585L441.879 738.793L439.388 738.793z" stroke="none" fill="#FFF100" fill-rule="nonzero" /><path id="190" transform="matrix(1 0 0 -1 0 841)" d="M441.63 727.585L450.427 727.585L450.427 738.793L441.63 738.793z" stroke="none" fill="#FFF100" fill-rule="nonzero" /><path id="193" transform="matrix(1 0 0 -1 0 841)" d="M450.103 727.585L452.594 727.585L452.594 738.793L450.103 738.793z" stroke="none" fill="#FFF100" fill-rule="nonzero" /><path id="194" transform="matrix(1 0 0 -1 0 841)" d="M452.344 727.585L465.016 727.585L465.016 738.793L452.344 738.793z" stroke="none" fill="#FFF100" fill-rule="nonzero" /><path id="198" transform="matrix(1 0 0 -1 0 841)" d="M464.658 727.585L467.149 727.585L467.149 738.793L464.658 738.793z" stroke="none" fill="#FFF100" fill-rule="nonzero" /><path id="199" transform="matrix(1 0 0 -1 0 841)" d="M466.9 727.585L475.149 727.585L475.149 738.793L466.9 738.793z" stroke="none" fill="#FFF100" fill-rule="nonzero" /><path id="202" transform="matrix(1 0 0 -1 0 841)" d="M474.581 727.585L485.041 727.585L485.041 738.793L474.581 738.793z" stroke="none" fill="#FFF100" fill-rule="nonzero" /><path id="206" transform="matrix(1 0 0 -1 0 841)" d="M484.702 727.585L487.193 727.585L487.193 738.793L484.702 738.793z" stroke="none" fill="#FFF100" fill-rule="nonzero" /><path id="207" transform="matrix(1 0 0 -1 0 841)" d="M486.944 727.585L510.695 727.585L510.695 738.793L486.944 738.793z" stroke="none" fill="#FFF100" fill-rule="nonzero" /><path id="214" transform="matrix(1 0 0 -1 0 841)" d="M84.79 712.641L99.674 712.641L99.674 723.849L84.79 723.849z" stroke="none" fill="#FFF100" fill-rule="nonzero" /><path id="218" transform="matrix(1 0 0 -1 0 841)" d="M99.464 712.641L114.906 712.641L114.906 723.849L99.464 723.849z" stroke="none" fill="#FFF100" fill-rule="nonzero" /><path id="223" transform="matrix(1 0 0 -1 0 841)" d="M114.956 712.641L117.488 712.641L117.488 723.849L114.956 723.849z" stroke="none" fill="#FFF100" fill-rule="nonzero" /><path id="224" transform="matrix(1 0 0 -1 0 841)" d="M117.238 712.641L126.035 712.641L126.035 723.849L117.238 723.849z" stroke="none" fill="#FFF100" fill-rule="nonzero" /><path id="227" transform="matrix(1 0 0 -1 0 841)" d="M125.952 712.641L128.484 712.641L128.484 723.849L125.952 723.849z" stroke="none" fill="#FFF100" fill-rule="nonzero" /><path id="228" transform="matrix(1 0 0 -1 0 841)" d="M128.235 712.641L140.907 712.641L140.907 723.849L128.235 723.849z" stroke="none" fill="#FFF100" fill-rule="nonzero" /><path id="232" transform="matrix(1 0 0 -1 0 841)" d="M140.901 712.641L143.433 712.641L143.433 723.849L140.901 723.849z" stroke="none" fill="#FFF100" fill-rule="nonzero" /><path id="233" transform="matrix(1 0 0 -1 0 841)" d="M143.184 712.641L172.185 712.641L172.185 723.849L143.184 723.849z" stroke="none" fill="#FFF100" fill-rule="nonzero" /><path id="241" transform="matrix(1 0 0 -1 0 841)" d="M172.506 712.641L175.038 712.641L175.038 723.849L172.506 723.849z" stroke="none" fill="#FFF100" fill-rule="nonzero" /><path id="242" transform="matrix(1 0 0 -1 0 841)" d="M174.788 712.641L188.975 712.641L188.975 723.849L174.788 723.849z" stroke="none" fill="#FFF100" fill-rule="nonzero" /><path id="246" transform="matrix(1 0 0 -1 0 841)" d="M189.003 712.641L191.535 712.641L191.535 723.849L189.003 723.849z" stroke="none" fill="#FFF100" fill-rule="nonzero" /><path id="247" transform="matrix(1 0 0 -1 0 841)" d="M191.285 712.641L201.038 712.641L201.038 723.849L191.285 723.849z" stroke="none" fill="#FFF100" fill-rule="nonzero" /><path id="250" transform="matrix(1 0 0 -1 0 841)" d="M200.729 712.641L213.401 712.641L213.401 723.849L200.729 723.849z" stroke="none" fill="#FFF100" fill-rule="nonzero" /><path id="253" transform="matrix(1 0 0 -1 0 841)" d="M213.146 712.641L228.309 712.641L228.309 723.849L213.146 723.849z" stroke="none" fill="#FFF100" fill-rule="nonzero" /><path id="258" transform="matrix(1 0 0 -1 0 841)" d="M228.354 712.641L230.886 712.641L230.886 723.849L228.354 723.849z" stroke="none" fill="#FFF100" fill-rule="nonzero" /><path id="259" transform="matrix(1 0 0 -1 0 841)" d="M230.636 712.641L237.221 712.641L237.221 723.849L230.636 723.849z" stroke="none" fill="#FFF100" fill-rule="nonzero" /><path id="262" transform="matrix(1 0 0 -1 0 841)" d="M237.094 712.641L239.626 712.641L239.626 723.849L237.094 723.849z" stroke="none" fill="#FFF100" fill-rule="nonzero" /><path id="263" transform="matrix(1 0 0 -1 0 841)" d="M239.376 712.641L244.297 712.641L244.297 723.849L239.376 723.849z" stroke="none" fill="#FFF100" fill-rule="nonzero" /><path id="265" transform="matrix(1 0 0 -1 0 841)" d="M244.137 712.641L246.669 712.641L246.669 723.849L244.137 723.849z" stroke="none" fill="#FFF100" fill-rule="nonzero" /><path id="266" transform="matrix(1 0 0 -1 0 841)" d="M246.42 712.641L260.198 712.641L260.198 723.849L246.42 723.849z" stroke="none" fill="#FFF100" fill-rule="nonzero" /><path id="269" transform="matrix(1 0 0 -1 0 841)" d="M260.214 712.641L262.746 712.641L262.746 723.849L260.214 723.849z" stroke="none" fill="#FFF100" fill-rule="nonzero" /><path id="270" transform="matrix(1 0 0 -1 0 841)" d="M262.497 712.641L289.007 712.641L289.007 723.849L262.497 723.849z" stroke="none" fill="#FFF100" fill-rule="nonzero" /><path id="277" transform="matrix(1 0 0 -1 0 841)" d="M289.278 712.641L291.81 712.641L291.81 723.849L289.278 723.849z" stroke="none" fill="#FFF100" fill-rule="nonzero" /><path id="278" transform="matrix(1 0 0 -1 0 841)" d="M291.561 712.641L305.06 712.641L305.06 723.849L291.561 723.849z" stroke="none" fill="#FFF100" fill-rule="nonzero" /><path id="283" transform="matrix(1 0 0 -1 0 841)" d="M305.071 712.641L307.603 712.641L307.603 723.849L305.071 723.849z" stroke="none" fill="#FFF100" fill-rule="nonzero" /><path id="284" transform="matrix(1 0 0 -1 0 841)" d="M307.354 712.641L333.864 712.641L333.864 723.849L307.354 723.849z" stroke="none" fill="#FFF100" fill-rule="nonzero" /><path id="291" transform="matrix(1 0 0 -1 0 841)" d="M334.135 712.641L336.667 712.641L336.667 723.849L334.135 723.849z" stroke="none" fill="#FFF100" fill-rule="nonzero" /><path id="292" transform="matrix(1 0 0 -1 0 841)" d="M336.418 712.641L361.265 712.641L361.265 723.849L336.418 723.849z" stroke="none" fill="#FFF100" fill-rule="nonzero" /><path id="298" transform="matrix(1 0 0 -1 0 841)" d="M361.502 712.641L364.034 712.641L364.034 723.849L361.502 723.849z" stroke="none" fill="#FFF100" fill-rule="nonzero" /><path id="299" transform="matrix(1 0 0 -1 0 841)" d="M363.785 712.641L377.563 712.641L377.563 723.849L363.785 723.849z" stroke="none" fill="#FFF100" fill-rule="nonzero" /><path id="303" transform="matrix(1 0 0 -1 0 841)" d="M377.579 712.641L380.111 712.641L380.111 723.849L377.579 723.849z" stroke="none" fill="#FFF100" fill-rule="nonzero" /><path id="304" transform="matrix(1 0 0 -1 0 841)" d="M379.862 712.641L393.64 712.641L393.64 723.849L379.862 723.849z" stroke="none" fill="#FFF100" fill-rule="nonzero" /><path id="307" transform="matrix(1 0 0 -1 0 841)" d="M393.657 712.641L396.189 712.641L396.189 723.849L393.657 723.849z" stroke="none" fill="#FFF100" fill-rule="nonzero" /><path id="308" transform="matrix(1 0 0 -1 0 841)" d="M395.939 712.641L408.063 712.641L408.063 723.849L395.939 723.849z" stroke="none" fill="#FFF100" fill-rule="nonzero" /><path id="311" transform="matrix(1 0 0 -1 0 841)" d="M408.047 712.641L410.579 712.641L410.579 723.849L408.047 723.849z" stroke="none" fill="#FFF100" fill-rule="nonzero" /><path id="312" transform="matrix(1 0 0 -1 0 841)" d="M410.329 712.641L419.126 712.641L419.126 723.849L410.329 723.849z" stroke="none" fill="#FFF100" fill-rule="nonzero" /><path id="315" transform="matrix(1 0 0 -1 0 841)" d="M419.043 712.641L421.575 712.641L421.575 723.849L419.043 723.849z" stroke="none" fill="#FFF100" fill-rule="nonzero" /><path id="316" transform="matrix(1 0 0 -1 0 841)" d="M421.326 712.641L467.493 712.641L467.493 723.849L421.326 723.849z" stroke="none" fill="#FFF100" fill-rule="nonzero" /><path id="327" transform="matrix(1 0 0 -1 0 841)" d="M468.157 712.641L470.689 712.641L470.689 723.849L468.157 723.849z" stroke="none" fill="#FFF100" fill-rule="nonzero" /><path id="328" transform="matrix(1 0 0 -1 0 841)" d="M470.439 712.641L499.998 712.641L499.998 723.849L470.439 723.849z" stroke="none" fill="#FFF100" fill-rule="nonzero" /><path id="337" transform="matrix(1 0 0 -1 0 841)" d="M500.33 712.641L502.862 712.641L502.862 723.849L500.33 723.849z" stroke="none" fill="#FFF100" fill-rule="nonzero" /><path id="338" transform="matrix(1 0 0 -1 0 841)" d="M502.613 712.641L509.756 712.641L509.756 723.849L502.613 723.849z" stroke="none" fill="#FFF100" fill-rule="nonzero" /><path id="341" transform="matrix(1 0 0 -1 0 841)" d="M84.79 697.697L93.029 697.697L93.029 708.905L84.79 708.905z" stroke="none" fill="#FFF100" fill-rule="nonzero" /><path id="344" transform="matrix(1 0 0 -1 0 841)" d="M92.686 697.697L118.638 697.697L118.638 708.905L92.686 708.905z" stroke="none" fill="#FFF100" fill-rule="nonzero" /><path id="351" transform="matrix(1 0 0 -1 0 841)" d="M118.899 697.697L121.522 697.697L121.522 708.905L118.899 708.905z" stroke="none" fill="#FFF100" fill-rule="nonzero" /><path id="352" transform="matrix(1 0 0 -1 0 841)" d="M121.272 697.697L129.521 697.697L129.521 708.905L121.272 708.905z" stroke="none" fill="#FFF100" fill-rule="nonzero" /><path id="355" transform="matrix(1 0 0 -1 0 841)" d="M129.427 697.697L132.05 697.697L132.05 708.905L129.427 708.905z" stroke="none" fill="#FFF100" fill-rule="nonzero" /><path id="356" transform="matrix(1 0 0 -1 0 841)" d="M131.801 697.697L150.76 697.697L150.76 708.905L131.801 708.905z" stroke="none" fill="#FFF100" fill-rule="nonzero" /><path id="361" transform="matrix(1 0 0 -1 0 841)" d="M150.887 697.697L153.51 697.697L153.51 708.905L150.887 708.905z" stroke="none" fill="#FFF100" fill-rule="nonzero" /><path id="362" transform="matrix(1 0 0 -1 0 841)" d="M153.261 697.697L172.021 697.697L172.021 708.905L153.261 708.905z" stroke="none" fill="#FFF100" fill-rule="nonzero" /><path id="366" transform="matrix(1 0 0 -1 0 841)" d="M172.136 697.697L174.759 697.697L174.759 708.905L172.136 708.905z" stroke="none" fill="#FFF100" fill-rule="nonzero" /><path id="367" transform="matrix(1 0 0 -1 0 841)" d="M174.51 697.697L207.187 697.697L207.187 708.905L174.51 708.905z" stroke="none" fill="#FFF100" fill-rule="nonzero" /><path id="377" transform="matrix(1 0 0 -1 0 841)" d="M207.586 697.697L210.209 697.697L210.209 708.905L207.586 708.905z" stroke="none" fill="#FFF100" fill-rule="nonzero" /><path id="378" transform="matrix(1 0 0 -1 0 841)" d="M209.959 697.697L215.996 697.697L215.996 708.905L209.959 708.905z" stroke="none" fill="#FFF100" fill-rule="nonzero" /><path id="381" transform="matrix(1 0 0 -1 0 841)" d="M215.858 697.697L218.481 697.697L218.481 708.905L215.858 708.905z" stroke="none" fill="#FFF100" fill-rule="nonzero" /><path id="382" transform="matrix(1 0 0 -1 0 841)" d="M218.232 697.697L244.184 697.697L244.184 708.905L218.232 708.905z" stroke="none" fill="#FFF100" fill-rule="nonzero" /><path id="388" transform="matrix(1 0 0 -1 0 841)" d="M244.444 697.697L247.067 697.697L247.067 708.905L244.444 708.905z" stroke="none" fill="#FFF100" fill-rule="nonzero" /><path id="389" transform="matrix(1 0 0 -1 0 841)" d="M246.818 697.697L262.26 697.697L262.26 708.905L246.818 708.905z" stroke="none" fill="#FFF100" fill-rule="nonzero" /><path id="394" transform="matrix(1 0 0 -1 0 841)" d="M262.31 697.697L264.933 697.697L264.933 708.905L262.31 708.905z" stroke="none" fill="#FFF100" fill-rule="nonzero" /><path id="395" transform="matrix(1 0 0 -1 0 841)" d="M264.683 697.697L283.443 697.697L283.443 708.905L264.683 708.905z" stroke="none" fill="#FFF100" fill-rule="nonzero" /><path id="399" transform="matrix(1 0 0 -1 0 841)" d="M283.559 697.697L286.182 697.697L286.182 708.905L283.559 708.905z" stroke="none" fill="#FFF100" fill-rule="nonzero" /><path id="400" transform="matrix(1 0 0 -1 0 841)" d="M285.933 697.697L294.73 697.697L294.73 708.905L285.933 708.905z" stroke="none" fill="#FFF100" fill-rule="nonzero" /><path id="403" transform="matrix(1 0 0 -1 0 841)" d="M294.647 697.697L297.27 697.697L297.27 708.905L294.647 708.905z" stroke="none" fill="#FFF100" fill-rule="nonzero" /><path id="404" transform="matrix(1 0 0 -1 0 841)" d="M297.02 697.697L309.692 697.697L309.692 708.905L297.02 708.905z" stroke="none" fill="#FFF100" fill-rule="nonzero" /><path id="408" transform="matrix(1 0 0 -1 0 841)" d="M309.687 697.697L312.31 697.697L312.31 708.905L309.687 708.905z" stroke="none" fill="#FFF100" fill-rule="nonzero" /><path id="409" transform="matrix(1 0 0 -1 0 841)" d="M312.061 697.697L320.31 697.697L320.31 708.905L312.061 708.905z" stroke="none" fill="#FFF100" fill-rule="nonzero" /><path id="412" transform="matrix(1 0 0 -1 0 841)" d="M319.967 697.697L330.427 697.697L330.427 708.905L319.967 708.905z" stroke="none" fill="#FFF100" fill-rule="nonzero" /><path id="416" transform="matrix(1 0 0 -1 0 841)" d="M330.377 697.697L333 697.697L333 708.905L330.377 708.905z" stroke="none" fill="#FFF100" fill-rule="nonzero" /><path id="417" transform="matrix(1 0 0 -1 0 841)" d="M332.751 697.697L356.502 697.697L356.502 708.905L332.751 708.905z" stroke="none" fill="#FFF100" fill-rule="nonzero" /><path id="424" transform="matrix(1 0 0 -1 0 841)" d="M356.718 697.697L359.341 697.697L359.341 708.905L356.718 708.905z" stroke="none" fill="#FFF100" fill-rule="nonzero" /><path id="425" transform="matrix(1 0 0 -1 0 841)" d="M359.091 697.697L362.907 697.697L362.907 708.905L359.091 708.905z" stroke="none" fill="#FFF100" fill-rule="nonzero" /><path id="427" transform="matrix(1 0 0 -1 0 841)" d="M362.724 697.697L365.347 697.697L365.347 708.905L362.724 708.905z" stroke="none" fill="#FFF100" fill-rule="nonzero" /><path id="428" transform="matrix(1 0 0 -1 0 841)" d="M365.098 697.697L422.682 697.697L422.682 708.905L365.098 708.905z" stroke="none" fill="#FFF100" fill-rule="nonzero" /><path id="440" transform="matrix(1 0 0 -1 0 841)" d="M423.574 697.697L426.197 697.697L426.197 708.905L423.574 708.905z" stroke="none" fill="#FFF100" fill-rule="nonzero" /><path id="441" transform="matrix(1 0 0 -1 0 841)" d="M425.948 697.697L434.745 697.697L434.745 708.905L425.948 708.905z" stroke="none" fill="#FFF100" fill-rule="nonzero" /><path id="444" transform="matrix(1 0 0 -1 0 841)" d="M434.662 697.697L437.285 697.697L437.285 708.905L434.662 708.905z" stroke="none" fill="#FFF100" fill-rule="nonzero" /><path id="445" transform="matrix(1 0 0 -1 0 841)" d="M437.036 697.697L483.203 697.697L483.203 708.905L437.036 708.905z" stroke="none" fill="#FFF100" fill-rule="nonzero" /><path id="456" transform="matrix(1 0 0 -1 0 841)" d="M483.867 697.697L486.49 697.697L486.49 708.905L483.867 708.905z" stroke="none" fill="#FFF100" fill-rule="nonzero" /><path id="457" transform="matrix(1 0 0 -1 0 841)" d="M486.24 697.697L493.383 697.697L493.383 708.905L486.24 708.905z" stroke="none" fill="#FFF100" fill-rule="nonzero" /><path id="460" transform="matrix(1 0 0 -1 0 841)" d="M493.267 697.697L495.89 697.697L495.89 708.905L493.267 708.905z" stroke="none" fill="#FFF100" fill-rule="nonzero" /><path id="461" transform="matrix(1 0 0 -1 0 841)" d="M495.641 697.697L508.313 697.697L508.313 708.905L495.641 708.905z" stroke="none" fill="#FFF100" fill-rule="nonzero" /><path id="465" transform="matrix(1 0 0 -1 0 841)" d="M84.79 682.753L111.3 682.753L111.3 693.961L84.79 693.961z" stroke="none" fill="#FFF100" fill-rule="nonzero" /><path id="472" transform="matrix(1 0 0 -1 0 841)" d="M111.052 682.753L113.543 682.753L113.543 693.961L111.052 693.961z" stroke="none" fill="#FFF100" fill-rule="nonzero" /><path id="473" transform="matrix(1 0 0 -1 0 841)" d="M113.293 682.753L143.479 682.753L143.479 693.961L113.293 693.961z" stroke="none" fill="#FFF100" fill-rule="nonzero" /><path id="482" transform="matrix(1 0 0 -1 0 841)" d="M143.23 682.753L145.721 682.753L145.721 693.961L143.23 693.961z" stroke="none" fill="#FFF100" fill-rule="nonzero" /><path id="483" transform="matrix(1 0 0 -1 0 841)" d="M145.472 682.753L169.223 682.753L169.223 693.961L145.472 693.961z" stroke="none" fill="#FFF100" fill-rule="nonzero" /><path id="490" transform="matrix(1 0 0 -1 0 841)" d="M168.973 682.753L171.464 682.753L171.464 693.961L168.973 693.961z" stroke="none" fill="#FFF100" fill-rule="nonzero" /><path id="491" transform="matrix(1 0 0 -1 0 841)" d="M171.215 682.753L186.099 682.753L186.099 693.961L171.215 693.961z" stroke="none" fill="#FFF100" fill-rule="nonzero" /><path id="495" transform="matrix(1 0 0 -1 0 841)" d="M185.601 682.753L203.533 682.753L203.533 693.961L185.601 693.961z" stroke="none" fill="#FFF100" fill-rule="nonzero" /><path id="501" transform="matrix(1 0 0 -1 0 841)" d="M203.284 682.753L205.775 682.753L205.775 693.961L203.284 693.961z" stroke="none" fill="#FFF100" fill-rule="nonzero" /><path id="502" transform="matrix(1 0 0 -1 0 841)" d="M205.526 682.753L224.286 682.753L224.286 693.961L205.526 693.961z" stroke="none" fill="#FFF100" fill-rule="nonzero" /><path id="506" transform="matrix(1 0 0 -1 0 841)" d="M224.037 682.753L226.528 682.753L226.528 693.961L224.037 693.961z" stroke="none" fill="#FFF100" fill-rule="nonzero" /><path id="507" transform="matrix(1 0 0 -1 0 841)" d="M226.278 682.753L256.664 682.753L256.664 693.961L226.278 693.961z" stroke="none" fill="#FFF100" fill-rule="nonzero" /><path id="516" transform="matrix(1 0 0 -1 0 841)" d="M256.415 682.753L258.906 682.753L258.906 693.961L256.415 693.961z" stroke="none" fill="#FFF100" fill-rule="nonzero" /><path id="517" transform="matrix(1 0 0 -1 0 841)" d="M258.656 682.753L277.415 682.753L277.415 693.961L258.656 693.961z" stroke="none" fill="#FFF100" fill-rule="nonzero" /><path id="522" transform="matrix(1 0 0 -1 0 841)" d="M277.167 682.753L279.658 682.753L279.658 693.961L277.167 693.961z" stroke="none" fill="#FFF100" fill-rule="nonzero" /><path id="523" transform="matrix(1 0 0 -1 0 841)" d="M279.408 682.753L292.638 682.753L292.638 693.961L279.408 693.961z" stroke="none" fill="#FFF100" fill-rule="nonzero" /><path id="527" transform="matrix(1 0 0 -1 0 841)" d="M292.389 682.753L294.88 682.753L294.88 693.961L292.389 693.961z" stroke="none" fill="#FFF100" fill-rule="nonzero" /><path id="528" transform="matrix(1 0 0 -1 0 841)" d="M294.631 682.753L313.938 682.753L313.938 693.961L294.631 693.961z" stroke="none" fill="#FFF100" fill-rule="nonzero" /><path id="533" transform="matrix(1 0 0 -1 0 841)" d="M313.689 682.753L316.18 682.753L316.18 693.961L313.689 693.961z" stroke="none" fill="#FFF100" fill-rule="nonzero" /><path id="534" transform="matrix(1 0 0 -1 0 841)" d="M315.931 682.753L328.603 682.753L328.603 693.961L315.931 693.961z" stroke="none" fill="#FFF100" fill-rule="nonzero" /><path id="538" transform="matrix(1 0 0 -1 0 841)" d="M328.354 682.753L330.845 682.753L330.845 693.961L328.354 693.961z" stroke="none" fill="#FFF100" fill-rule="nonzero" /><path id="539" transform="matrix(1 0 0 -1 0 841)" d="M330.596 682.753L357.007 682.753L357.007 693.961L330.596 693.961z" stroke="none" fill="#FFF100" fill-rule="nonzero" /><path id="546" transform="matrix(1 0 0 -1 0 841)" d="M356.757 682.753L359.248 682.753L359.248 693.961L356.757 693.961z" stroke="none" fill="#FFF100" fill-rule="nonzero" /><path id="547" transform="matrix(1 0 0 -1 0 841)" d="M358.999 682.753L373.335 682.753L373.335 693.961L358.999 693.961z" stroke="none" fill="#FFF100" fill-rule="nonzero" /><path id="551" transform="matrix(1 0 0 -1 0 841)" d="M373.086 682.753L375.577 682.753L375.577 693.961L373.086 693.961z" stroke="none" fill="#FFF100" fill-rule="nonzero" /><path id="552" transform="matrix(1 0 0 -1 0 841)" d="M375.328 682.753L425.918 682.753L425.918 693.961L375.328 693.961z" stroke="none" fill="#FFF100" fill-rule="nonzero" /><path id="564" transform="matrix(1 0 0 -1 0 841)" d="M425.669 682.753L428.16 682.753L428.16 693.961L425.669 693.961z" stroke="none" fill="#FFF100" fill-rule="nonzero" /><path id="565" transform="matrix(1 0 0 -1 0 841)" d="M427.91 682.753L458.296 682.753L458.296 693.961L427.91 693.961z" stroke="none" fill="#FFF100" fill-rule="nonzero" /><path id="574" transform="matrix(1 0 0 -1 0 841)" d="M458.047 682.753L460.538 682.753L460.538 693.961L458.047 693.961z" stroke="none" fill="#FFF100" fill-rule="nonzero" /><path id="575" transform="matrix(1 0 0 -1 0 841)" d="M460.288 682.753L484.039 682.753L484.039 693.961L460.288 693.961z" stroke="none" fill="#FFF100" fill-rule="nonzero" /><path id="621" transform="matrix(1 0 0 -1 0 841)" d="M198.686 658.693L299.387 658.693" stroke="#000000" stroke-width="0.398" fill="none" /><path id="646" transform="matrix(1 0 0 -1 0 841)" d="M313.946 658.693L364.456 658.693" stroke="#000000" stroke-width="0.398" fill="none" /><path id="711" transform="matrix(1 0 0 -1 0 841)" d="M130.205 615.334L382.472 615.334" stroke="#000000" stroke-width="0.398" fill="none" /><path id="816" transform="matrix(1 0 0 -1 0 841)" d="M233.983 579.866L370.997 579.866" stroke="#000000" stroke-width="0.398" fill="none" /><path id="854" transform="matrix(1 0 0 -1 0 841)" d="M385.557 579.866L467.179 579.866" stroke="#000000" stroke-width="0.398" fill="none" /><path id="936" transform="matrix(1 0 0 -1 0 841)" d="M130.205 536.507L444.738 536.507" stroke="#000000" stroke-width="0.398" fill="none" /><g transform="matrix(0.2 0 0 0.2 249.239 774.845)"><g transform="matrix(1 0 0 1 0 0)"><image x="0" y="0" xlink:href="img_04.png" width="484" height="104" /></g></g></g></g></svg>