<svg xmlns="http://www.w3.org/2000/svg" xmlns:xlink="http://www.w3.org/1999/xlink" id="body_33" preserveAspectRatio="xMinYMin meet" viewBox="0 0 793 1121"><defs><clipPath id="1"><path id="" clip-rule="evenodd" transform="matrix(1 0 0 1 0 0)" d="M0 841L0 -0.8900146L0 -0.8900146L595.276 -0.8900146L595.276 -0.8900146L595.276 841L595.276 841L0 841z" /></clipPath></defs><g transform="matrix(1.333333 0 0 1.333333 0 0)"><g clip-path="url(#1)"><path id="24" transform="matrix(1 0 0 -1 0 841)" d="M85.039 766.564L510.236 766.564" stroke="#000000" stroke-width="0.498" fill="none" /><path id="581" transform="matrix(1 0 0 -1 0 841)" d="M243.149 552.554L256.48 552.554" stroke="#000000" stroke-width="0.436" fill="none" /><path id="603" transform="matrix(1 0 0 -1 0 841)" d="M272.196 552.554L381.536 552.554" stroke="#000000" stroke-width="0.436" fill="none" /><path id="631" transform="matrix(1 0 0 -1 0 841)" d="M392.412 552.554L431.15 552.554" stroke="#000000" stroke-width="0.436" fill="none" /><path id="640" transform="matrix(1 0 0 -1 0 841)" d="M442.025 552.554L482.629 552.554" stroke="#000000" stroke-width="0.436" fill="none" /><path id="701" transform="matrix(1 0 0 -1 0 841)" d="M136.214 507.001L455.319 507.001" stroke="#000000" stroke-width="0.436" fill="none" /><path id="762" transform="matrix(1 0 0 -1 0 841)" d="M104.824 434.927L118.155 434.927" stroke="#000000" stroke-width="0.436" fill="none" /><path id="792" transform="matrix(1 0 0 -1 0 841)" d="M133.87 434.927L275.435 434.927" stroke="#000000" stroke-width="0.436" fill="none" /><path id="820" transform="matrix(1 0 0 -1 0 841)" d="M286.311 434.927L325.049 434.927" stroke="#000000" stroke-width="0.436" fill="none" /><path id="829" transform="matrix(1 0 0 -1 0 841)" d="M335.924 434.927L376.528 434.927" stroke="#000000" stroke-width="0.436" fill="none" /><path id="902" transform="matrix(1 0 0 -1 0 841)" d="M136.214 400.712L518.045 400.712" stroke="#000000" stroke-width="0.436" fill="none" /><path id="965" transform="matrix(1 0 0 -1 0 841)" d="M135.701 353.561L285.731 353.561" stroke="#000000" stroke-width="0.436" fill="none" /><path id="1001" transform="matrix(1 0 0 -1 0 841)" d="M301.446 353.561L390.822 353.561" stroke="#000000" stroke-width="0.436" fill="none" /><path id="1051" transform="matrix(1 0 0 -1 0 841)" d="M401.698 353.561L500.086 353.561" stroke="#000000" stroke-width="0.436" fill="none" /><path id="1136" transform="matrix(1 0 0 -1 0 841)" d="M138.354 320.006L487.058 320.006" stroke="#000000" stroke-width="0.398" fill="none" /><path id="1321" transform="matrix(1 0 0 -1 0 841)" d="M168.272 246.061L190.907 246.061L190.907 257.269L168.272 257.269z" stroke="none" fill="#FFF100" fill-rule="nonzero" /><path id="1327" transform="matrix(1 0 0 -1 0 841)" d="M190.658 246.061L193.149 246.061L193.149 257.269L190.658 257.269z" stroke="none" fill="#FFF100" fill-rule="nonzero" /><path id="1328" transform="matrix(1 0 0 -1 0 841)" d="M192.899 246.061L205.571 246.061L205.571 257.269L192.899 257.269z" stroke="none" fill="#FFF100" fill-rule="nonzero" /><path id="1332" transform="matrix(1 0 0 -1 0 841)" d="M205.323 246.061L207.814 246.061L207.814 257.269L205.323 257.269z" stroke="none" fill="#FFF100" fill-rule="nonzero" /><path id="1333" transform="matrix(1 0 0 -1 0 841)" d="M207.564 246.061L224.112 246.061L224.112 257.269L207.564 257.269z" stroke="none" fill="#FFF100" fill-rule="nonzero" /><path id="1337" transform="matrix(1 0 0 -1 0 841)" d="M223.614 246.061L236.286 246.061L236.286 257.269L223.614 257.269z" stroke="none" fill="#FFF100" fill-rule="nonzero" /><path id="1341" transform="matrix(1 0 0 -1 0 841)" d="M236.037 246.061L238.528 246.061L238.528 257.269L236.037 257.269z" stroke="none" fill="#FFF100" fill-rule="nonzero" /><path id="1342" transform="matrix(1 0 0 -1 0 841)" d="M238.279 246.061L245.422 246.061L245.422 257.269L238.279 257.269z" stroke="none" fill="#FFF100" fill-rule="nonzero" /><path id="1345" transform="matrix(1 0 0 -1 0 841)" d="M245.172 246.061L247.663 246.061L247.663 257.269L245.172 257.269z" stroke="none" fill="#FFF100" fill-rule="nonzero" /><path id="1346" transform="matrix(1 0 0 -1 0 841)" d="M247.414 246.061L260.644 246.061L260.644 257.269L247.414 257.269z" stroke="none" fill="#FFF100" fill-rule="nonzero" /><path id="1350" transform="matrix(1 0 0 -1 0 841)" d="M260.395 246.061L262.886 246.061L262.886 257.269L260.395 257.269z" stroke="none" fill="#FFF100" fill-rule="nonzero" /><path id="1351" transform="matrix(1 0 0 -1 0 841)" d="M262.637 246.061L271.444 246.061L271.444 257.269L262.637 257.269z" stroke="none" fill="#FFF100" fill-rule="nonzero" /><path id="1354" transform="matrix(1 0 0 -1 0 841)" d="M270.946 246.061L293.85 246.061L293.85 257.269L270.946 257.269z" stroke="none" fill="#FFF100" fill-rule="nonzero" /><g transform="matrix(0.2 0 0 0.2 249.239 774.845)"><g transform="matrix(1 0 0 1 0 0)"><image x="0" y="0" xlink:href="img_04.png" width="484" height="104" /></g></g></g></g></svg>