<svg xmlns="http://www.w3.org/2000/svg" xmlns:xlink="http://www.w3.org/1999/xlink" id="body_408" preserveAspectRatio="xMinYMin meet" viewBox="0 0 793 1121"><defs><clipPath id="1"><path id="" clip-rule="evenodd" transform="matrix(1 0 0 1 0 0)" d="M0 841L0 -0.8900146L0 -0.8900146L595.276 -0.8900146L595.276 -0.8900146L595.276 841L595.276 841L0 841z" /></clipPath></defs><g transform="matrix(1.333333 0 0 1.333333 0 0)"><g clip-path="url(#1)"><path id="31" transform="matrix(1 0 0 -1 0 841)" d="M85.039 766.564L510.236 766.564" stroke="#000000" stroke-width="0.498" fill="none" /><path id="239" transform="matrix(1 0 0 -1 0 841)" d="M287.298 701.737L343.507 701.737" stroke="#000000" stroke-width="0.398" fill="none" /><path id="256" transform="matrix(1 0 0 -1 0 841)" d="M353.646 701.737L409.904 701.737" stroke="#000000" stroke-width="0.398" fill="none" /><path id="314" transform="matrix(1 0 0 -1 0 841)" d="M249.63 669.767L310.869 669.767" stroke="#000000" stroke-width="0.398" fill="none" /><path id="329" transform="matrix(1 0 0 -1 0 841)" d="M321.009 669.767L377.267 669.767" stroke="#000000" stroke-width="0.398" fill="none" /><path id="359" transform="matrix(1 0 0 -1 0 841)" d="M123.462 637.796L203.949 637.796" stroke="#000000" stroke-width="0.398" fill="none" /><path id="396" transform="matrix(1 0 0 -1 0 841)" d="M254.738 605.407L291.021 605.407" stroke="#000000" stroke-width="0.398" fill="none" /><path id="409" transform="matrix(1 0 0 -1 0 841)" d="M323.854 605.407L342.633 605.407" stroke="#000000" stroke-width="0.398" fill="none" /><path id="416" transform="matrix(1 0 0 -1 0 841)" d="M352.773 605.407L385.181 605.407" stroke="#000000" stroke-width="0.398" fill="none" /><path id="439" transform="matrix(1 0 0 -1 0 841)" d="M398.545 613.382L486.207 613.382" stroke="#000000" stroke-width="0.398" fill="none" /><path id="440" transform="matrix(1 0 0 -1 0 841)" d="M398.744 597.696L398.744 613.382" stroke="#000000" stroke-width="0.398" fill="none" /><path id="441" transform="matrix(1 0 0 -1 0 841)" d="M486.008 597.696L486.008 613.382" stroke="#000000" stroke-width="0.398" fill="none" /><path id="442" transform="matrix(1 0 0 -1 0 841)" d="M398.545 597.696L486.207 597.696" stroke="#000000" stroke-width="0.398" fill="none" /><path id="951" transform="matrix(1 0 0 -1 0 841)" d="M137.508 460.353L238.763 460.353" stroke="#000000" stroke-width="0.398" fill="none" /><path id="964" transform="matrix(1 0 0 -1 0 841)" d="M252.127 467.855L284.904 467.855" stroke="#000000" stroke-width="0.398" fill="none" /><path id="965" transform="matrix(1 0 0 -1 0 841)" d="M252.326 454.52L252.326 467.855" stroke="#000000" stroke-width="0.398" fill="none" /><path id="966" transform="matrix(1 0 0 -1 0 841)" d="M284.705 454.52L284.705 467.855" stroke="#000000" stroke-width="0.398" fill="none" /><path id="967" transform="matrix(1 0 0 -1 0 841)" d="M252.127 454.52L284.904 454.52" stroke="#000000" stroke-width="0.398" fill="none" /><path id="1059" transform="matrix(1 0 0 -1 0 841)" d="M251.361 422.275L299.043 422.275" stroke="#000000" stroke-width="0.398" fill="none" /><path id="1060" transform="matrix(1 0 0 -1 0 841)" d="M251.56 407.107L251.56 422.275" stroke="#000000" stroke-width="0.398" fill="none" /><path id="1061" transform="matrix(1 0 0 -1 0 841)" d="M298.844 407.107L298.844 422.275" stroke="#000000" stroke-width="0.398" fill="none" /><path id="1062" transform="matrix(1 0 0 -1 0 841)" d="M251.361 407.107L299.043 407.107" stroke="#000000" stroke-width="0.398" fill="none" /><path id="1199" transform="matrix(1 0 0 -1 0 841)" d="M186.163 353.9L288.783 353.9" stroke="#000000" stroke-width="0.398" fill="none" /><path id="1233" transform="matrix(1 0 0 -1 0 841)" d="M349.23 353.9L446.868 353.9" stroke="#000000" stroke-width="0.398" fill="none" /><path id="1249" transform="matrix(1 0 0 -1 0 841)" d="M459.125 361.457L523.703 361.457" stroke="#000000" stroke-width="0.398" fill="none" /><path id="1250" transform="matrix(1 0 0 -1 0 841)" d="M459.325 346.289L459.325 361.457" stroke="#000000" stroke-width="0.398" fill="none" /><path id="1251" transform="matrix(1 0 0 -1 0 841)" d="M523.504 346.289L523.504 361.457" stroke="#000000" stroke-width="0.398" fill="none" /><path id="1252" transform="matrix(1 0 0 -1 0 841)" d="M459.125 346.289L523.703 346.289" stroke="#000000" stroke-width="0.398" fill="none" /><path id="1301" transform="matrix(1 0 0 -1 0 841)" d="M137.508 250.562L195.312 250.562" stroke="#000000" stroke-width="0.398" fill="none" /><path id="1319" transform="matrix(1 0 0 -1 0 841)" d="M208.676 257.925L241.453 257.925" stroke="#000000" stroke-width="0.398" fill="none" /><path id="1320" transform="matrix(1 0 0 -1 0 841)" d="M208.875 244.729L208.875 257.924" stroke="#000000" stroke-width="0.398" fill="none" /><path id="1321" transform="matrix(1 0 0 -1 0 841)" d="M241.253 244.729L241.253 257.924" stroke="#000000" stroke-width="0.398" fill="none" /><path id="1322" transform="matrix(1 0 0 -1 0 841)" d="M208.676 244.729L241.453 244.729" stroke="#000000" stroke-width="0.398" fill="none" /><path id="1429" transform="matrix(1 0 0 -1 0 841)" d="M137.508 184.783L204.781 184.783" stroke="#000000" stroke-width="0.398" fill="none" /><path id="1453" transform="matrix(1 0 0 -1 0 841)" d="M222.728 184.783L269.462 184.783" stroke="#000000" stroke-width="0.398" fill="none" /><path id="1461" transform="matrix(1 0 0 -1 0 841)" d="M218.145 199.084L274.045 199.084" stroke="#000000" stroke-width="0.398" fill="none" /><path id="1462" transform="matrix(1 0 0 -1 0 841)" d="M218.344 170.188L218.344 199.084" stroke="#000000" stroke-width="0.398" fill="none" /><path id="1463" transform="matrix(1 0 0 -1 0 841)" d="M273.845 170.188L273.845 199.084" stroke="#000000" stroke-width="0.398" fill="none" /><path id="1464" transform="matrix(1 0 0 -1 0 841)" d="M218.145 170.188L274.045 170.188" stroke="#000000" stroke-width="0.398" fill="none" /><path id="1575" transform="matrix(1 0 0 -1 0 841)" d="M261.445 133.853L342.775 133.853" stroke="#000000" stroke-width="0.398" fill="none" /><path id="1602" transform="matrix(1 0 0 -1 0 841)" d="M378.832 141.355L411.609 141.355" stroke="#000000" stroke-width="0.398" fill="none" /><path id="1603" transform="matrix(1 0 0 -1 0 841)" d="M379.031 128.02L379.031 141.355" stroke="#000000" stroke-width="0.398" fill="none" /><path id="1604" transform="matrix(1 0 0 -1 0 841)" d="M411.41 128.02L411.41 141.355" stroke="#000000" stroke-width="0.398" fill="none" /><path id="1605" transform="matrix(1 0 0 -1 0 841)" d="M378.832 128.02L411.609 128.02" stroke="#000000" stroke-width="0.398" fill="none" /><g transform="matrix(0.2 0 0 0.2 249.239 774.845)"><g transform="matrix(1 0 0 1 0 0)"><image x="0" y="0" xlink:href="img_04.png" width="484" height="104" /></g></g></g></g></svg>