<svg xmlns="http://www.w3.org/2000/svg" xmlns:xlink="http://www.w3.org/1999/xlink" id="body_419" preserveAspectRatio="xMinYMin meet" viewBox="0 0 793 1121"><defs><clipPath id="1"><path id="" clip-rule="evenodd" transform="matrix(1 0 0 1 0 0)" d="M0 841L0 -0.8900146L0 -0.8900146L595.276 -0.8900146L595.276 -0.8900146L595.276 841L595.276 841L0 841z" /></clipPath></defs><g transform="matrix(1.333333 0 0 1.333333 0 0)"><g clip-path="url(#1)"><path id="23" transform="matrix(1 0 0 -1 0 841)" d="M85.039 766.564L510.236 766.564" stroke="#000000" stroke-width="0.498" fill="none" /><path id="40" transform="matrix(1 0 0 -1 0 841)" d="M153.431 744.048L198.451 744.048" stroke="#000000" stroke-width="0.398" fill="none" /><path id="52" transform="matrix(1 0 0 -1 0 841)" d="M226.295 744.048L239.535 744.048" stroke="#000000" stroke-width="0.398" fill="none" /><path id="79" transform="matrix(1 0 0 -1 0 841)" d="M330.994 744.048L376.154 744.048" stroke="#000000" stroke-width="0.398" fill="none" /><path id="89" transform="matrix(1 0 0 -1 0 841)" d="M123.462 731.246L377.349 731.246" stroke="#000000" stroke-width="0.398" fill="none" /><path id="92" transform="matrix(1 0 0 -1 0 841)" d="M218.423 720.682L224.699 720.682" stroke="#000000" stroke-width="0.398" fill="none" /><path id="116" transform="matrix(1 0 0 -1 0 841)" d="M413 731.246L451.513 731.246" stroke="#000000" stroke-width="0.398" fill="none" /><path id="124" transform="matrix(1 0 0 -1 0 841)" d="M390.714 745.548L456.096 745.548" stroke="#000000" stroke-width="0.398" fill="none" /><path id="125" transform="matrix(1 0 0 -1 0 841)" d="M390.913 716.651L390.913 745.547" stroke="#000000" stroke-width="0.398" fill="none" /><path id="126" transform="matrix(1 0 0 -1 0 841)" d="M455.896 716.651L455.896 745.547" stroke="#000000" stroke-width="0.398" fill="none" /><path id="127" transform="matrix(1 0 0 -1 0 841)" d="M390.714 716.651L456.096 716.651" stroke="#000000" stroke-width="0.398" fill="none" /><path id="331" transform="matrix(1 0 0 -1 0 841)" d="M237.445 659.471L308.812 659.471" stroke="#000000" stroke-width="0.398" fill="none" /><path id="370" transform="matrix(1 0 0 -1 0 841)" d="M113.508 620.202L186.513 620.202" stroke="#000000" stroke-width="0.398" fill="none" /><path id="405" transform="matrix(1 0 0 -1 0 841)" d="M201.072 620.202L366.378 620.202" stroke="#000000" stroke-width="0.398" fill="none" /><path id="429" transform="matrix(1 0 0 -1 0 841)" d="M404.73 620.202L477.735 620.202" stroke="#000000" stroke-width="0.398" fill="none" /><path id="447" transform="matrix(1 0 0 -1 0 841)" d="M113.508 578.038L184.62 578.038" stroke="#000000" stroke-width="0.398" fill="none" /><path id="468" transform="matrix(1 0 0 -1 0 841)" d="M217.998 578.038L284.996 578.038" stroke="#000000" stroke-width="0.398" fill="none" /><path id="489" transform="matrix(1 0 0 -1 0 841)" d="M294.029 578.038L380.085 578.038" stroke="#000000" stroke-width="0.398" fill="none" /><path id="530" transform="matrix(1 0 0 -1 0 841)" d="M422.311 578.038L536.561 578.038" stroke="#000000" stroke-width="0.398" fill="none" /><path id="831" transform="matrix(1 0 0 -1 0 841)" d="M301.218 458.015L314.458 458.015" stroke="#000000" stroke-width="0.398" fill="none" /><path id="887" transform="matrix(1 0 0 -1 0 841)" d="M137.508 413.243L210.513 413.243" stroke="#000000" stroke-width="0.398" fill="none" /><path id="909" transform="matrix(1 0 0 -1 0 841)" d="M293.733 425.995L306.973 425.995" stroke="#000000" stroke-width="0.398" fill="none" /><path id="931" transform="matrix(1 0 0 -1 0 841)" d="M372.981 425.995L397.03 425.995" stroke="#000000" stroke-width="0.398" fill="none" /><path id="952" transform="matrix(1 0 0 -1 0 841)" d="M419.892 425.995L492.897 425.995" stroke="#000000" stroke-width="0.398" fill="none" /><path id="957" transform="matrix(1 0 0 -1 0 841)" d="M225.072 413.243L494.092 413.243" stroke="#000000" stroke-width="0.398" fill="none" /><path id="982" transform="matrix(1 0 0 -1 0 841)" d="M176.236 375.603L249.241 375.603" stroke="#000000" stroke-width="0.398" fill="none" /><path id="1000" transform="matrix(1 0 0 -1 0 841)" d="M137.508 330.881L235.499 330.881" stroke="#000000" stroke-width="0.398" fill="none" /><path id="1042" transform="matrix(1 0 0 -1 0 841)" d="M279.056 343.632L352.061 343.632" stroke="#000000" stroke-width="0.398" fill="none" /><path id="1046" transform="matrix(1 0 0 -1 0 841)" d="M249.088 330.881L353.257 330.881" stroke="#000000" stroke-width="0.398" fill="none" /><path id="1085" transform="matrix(1 0 0 -1 0 841)" d="M382.955 330.881L505.653 330.881" stroke="#000000" stroke-width="0.398" fill="none" /><path id="1111" transform="matrix(1 0 0 -1 0 841)" d="M365.65 345.182L510.236 345.182" stroke="#000000" stroke-width="0.398" fill="none" /><path id="1112" transform="matrix(1 0 0 -1 0 841)" d="M365.849 316.335L365.849 345.182" stroke="#000000" stroke-width="0.398" fill="none" /><path id="1113" transform="matrix(1 0 0 -1 0 841)" d="M510.037 316.335L510.037 345.182" stroke="#000000" stroke-width="0.398" fill="none" /><path id="1114" transform="matrix(1 0 0 -1 0 841)" d="M365.65 316.335L510.236 316.335" stroke="#000000" stroke-width="0.398" fill="none" /><path id="1285" transform="matrix(1 0 0 -1 0 841)" d="M113.508 207.567L184.62 207.567" stroke="#000000" stroke-width="0.398" fill="none" /><path id="1308" transform="matrix(1 0 0 -1 0 841)" d="M226.846 207.567L293.844 207.567" stroke="#000000" stroke-width="0.398" fill="none" /><path id="1329" transform="matrix(1 0 0 -1 0 841)" d="M302.876 207.567L388.932 207.567" stroke="#000000" stroke-width="0.398" fill="none" /><path id="1371" transform="matrix(1 0 0 -1 0 841)" d="M436.14 207.567L550.39 207.567" stroke="#000000" stroke-width="0.398" fill="none" /><path id="1386" transform="matrix(1 0 0 -1 0 841)" d="M113.508 152.367L178.195 152.367" stroke="#000000" stroke-width="0.398" fill="none" /><path id="1412" transform="matrix(1 0 0 -1 0 841)" d="M225.401 152.367L301.495 152.367" stroke="#000000" stroke-width="0.398" fill="none" /><path id="1434" transform="matrix(1 0 0 -1 0 841)" d="M310.528 152.367L408.978 152.367" stroke="#000000" stroke-width="0.398" fill="none" /><path id="1464" transform="matrix(1 0 0 -1 0 841)" d="M478.383 152.367L543.07 152.367" stroke="#000000" stroke-width="0.398" fill="none" /><path id="1468" transform="matrix(1 0 0 -1 0 841)" d="M421.235 166.668L547.652 166.668" stroke="#000000" stroke-width="0.398" fill="none" /><path id="1469" transform="matrix(1 0 0 -1 0 841)" d="M421.434 137.821L421.434 166.668" stroke="#000000" stroke-width="0.398" fill="none" /><path id="1470" transform="matrix(1 0 0 -1 0 841)" d="M547.453 137.821L547.453 166.668" stroke="#000000" stroke-width="0.398" fill="none" /><path id="1471" transform="matrix(1 0 0 -1 0 841)" d="M421.235 137.821L547.652 137.821" stroke="#000000" stroke-width="0.398" fill="none" /><g transform="matrix(0.2 0 0 0.2 249.239 774.845)"><g transform="matrix(1 0 0 1 0 0)"><image x="0" y="0" xlink:href="img_04.png" width="484" height="104" /></g></g></g></g></svg>