<svg xmlns="http://www.w3.org/2000/svg" xmlns:xlink="http://www.w3.org/1999/xlink" id="body_388" preserveAspectRatio="xMinYMin meet" viewBox="0 0 793 1121"><defs><clipPath id="1"><path id="" clip-rule="evenodd" transform="matrix(1 0 0 1 0 0)" d="M0 841L0 -0.8900146L0 -0.8900146L595.276 -0.8900146L595.276 -0.8900146L595.276 841L595.276 841L0 841z" /></clipPath></defs><g transform="matrix(1.333333 0 0 1.333333 0 0)"><g clip-path="url(#1)"><path id="31" transform="matrix(1 0 0 -1 0 841)" d="M85.039 766.564L510.236 766.564" stroke="#000000" stroke-width="0.498" fill="none" /><g transform="matrix(0.8 0 0 0.8 205.274 412.706)"><g transform="matrix(1 0 0 1 0 0)"><image x="0" y="0" xlink:href="img_540.png" width="265" height="55" /></g></g><path id="1530" transform="matrix(1 0 0 -1 0 841)" d="M309.192 356.276L321.366 356.276" stroke="#000000" stroke-width="0.398" fill="none" /><path id="1549" transform="matrix(1 0 0 -1 0 841)" d="M407.283 356.276L419.457 356.276" stroke="#000000" stroke-width="0.398" fill="none" /><path id="1552" transform="matrix(1 0 0 -1 0 841)" d="M113.508 326.434L122.205 326.434" stroke="#000000" stroke-width="0.398" fill="none" /><path id="1569" transform="matrix(1 0 0 -1 0 841)" d="M204.199 337.263L216.373 337.263" stroke="#000000" stroke-width="0.398" fill="none" /><path id="1576" transform="matrix(1 0 0 -1 0 841)" d="M136.765 326.434L243.021 326.434" stroke="#000000" stroke-width="0.398" fill="none" /><path id="1592" transform="matrix(1 0 0 -1 0 841)" d="M278.671 326.434L287.368 326.434" stroke="#000000" stroke-width="0.398" fill="none" /><path id="1594" transform="matrix(1 0 0 -1 0 841)" d="M256.385 340.342L291.951 340.342" stroke="#000000" stroke-width="0.398" fill="none" /><path id="1595" transform="matrix(1 0 0 -1 0 841)" d="M256.584 313.921L256.584 340.342" stroke="#000000" stroke-width="0.398" fill="none" /><path id="1596" transform="matrix(1 0 0 -1 0 841)" d="M291.752 313.921L291.752 340.342" stroke="#000000" stroke-width="0.398" fill="none" /><path id="1597" transform="matrix(1 0 0 -1 0 841)" d="M256.385 313.921L291.951 313.921" stroke="#000000" stroke-width="0.398" fill="none" /><path id="1753" transform="matrix(1 0 0 -1 0 841)" d="M112.312 287.732L541.893 287.732" stroke="#000000" stroke-width="0.283" fill="none" /><path id="1754" transform="matrix(1 0 0 -1 0 841)" d="M112.454 278.146L112.454 287.591" stroke="#000000" stroke-width="0.283" fill="none" /><path id="1781" transform="matrix(1 0 0 -1 0 841)" d="M327.103 278.146L327.103 287.591" stroke="#000000" stroke-width="0.283" fill="none" /><path id="1809" transform="matrix(1 0 0 -1 0 841)" d="M541.752 278.146L541.752 287.591" stroke="#000000" stroke-width="0.283" fill="none" /><path id="1810" transform="matrix(1 0 0 -1 0 841)" d="M112.312 278.004L541.893 278.004" stroke="#000000" stroke-width="0.283" fill="none" /><path id="1811" transform="matrix(1 0 0 -1 0 841)" d="M112.454 259.845L112.454 277.862" stroke="#000000" stroke-width="0.283" fill="none" /><path id="1829" transform="matrix(1 0 0 -1 0 841)" d="M197.329 269.28L209.503 269.28" stroke="#000000" stroke-width="0.398" fill="none" /><path id="1831" transform="matrix(1 0 0 -1 0 841)" d="M327.103 259.845L327.103 277.862" stroke="#000000" stroke-width="0.283" fill="none" /><path id="1843" transform="matrix(1 0 0 -1 0 841)" d="M541.752 259.845L541.752 277.862" stroke="#000000" stroke-width="0.283" fill="none" /><path id="1844" transform="matrix(1 0 0 -1 0 841)" d="M112.312 259.703L541.893 259.703" stroke="#000000" stroke-width="0.283" fill="none" /><path id="1845" transform="matrix(1 0 0 -1 0 841)" d="M112.454 241.654L112.454 259.562" stroke="#000000" stroke-width="0.283" fill="none" /><path id="1857" transform="matrix(1 0 0 -1 0 841)" d="M175.181 250.979L187.355 250.979" stroke="#000000" stroke-width="0.398" fill="none" /><path id="1859" transform="matrix(1 0 0 -1 0 841)" d="M327.103 241.654L327.103 259.562" stroke="#000000" stroke-width="0.283" fill="none" /><path id="1889" transform="matrix(1 0 0 -1 0 841)" d="M541.752 241.654L541.752 259.562" stroke="#000000" stroke-width="0.283" fill="none" /><path id="1890" transform="matrix(1 0 0 -1 0 841)" d="M112.312 241.512L541.893 241.512" stroke="#000000" stroke-width="0.283" fill="none" /><path id="1911" transform="matrix(1 0 0 -1 0 841)" d="M151.098 228.648L274.95 228.648" stroke="#000000" stroke-width="0.398" fill="none" /><path id="1915" transform="matrix(1 0 0 -1 0 841)" d="M152.294 216.141L167.198 216.141" stroke="#000000" stroke-width="0.398" fill="none" /><path id="1933" transform="matrix(1 0 0 -1 0 841)" d="M229.152 216.141L244.056 216.141" stroke="#000000" stroke-width="0.398" fill="none" /><path id="1981" transform="matrix(1 0 0 -1 0 841)" d="M318.092 195.205L330.266 195.205" stroke="#000000" stroke-width="0.398" fill="none" /><path id="2000" transform="matrix(1 0 0 -1 0 841)" d="M113.508 173.77L128.412 173.77" stroke="#000000" stroke-width="0.398" fill="none" /><path id="2025" transform="matrix(1 0 0 -1 0 841)" d="M238.35 173.77L250.524 173.77" stroke="#000000" stroke-width="0.398" fill="none" /><path id="2057" transform="matrix(1 0 0 -1 0 841)" d="M181.835 150.358L279.316 150.358" stroke="#000000" stroke-width="0.398" fill="none" /><path id="2066" transform="matrix(1 0 0 -1 0 841)" d="M205.715 137.851L220.619 137.851" stroke="#000000" stroke-width="0.398" fill="none" /><path id="2074" transform="matrix(1 0 0 -1 0 841)" d="M233.519 137.851L248.423 137.851" stroke="#000000" stroke-width="0.398" fill="none" /><path id="2086" transform="matrix(1 0 0 -1 0 841)" d="M113.508 114.384L128.412 114.384" stroke="#000000" stroke-width="0.398" fill="none" /><path id="2101" transform="matrix(1 0 0 -1 0 841)" d="M172.67 114.384L197.577 114.384" stroke="#000000" stroke-width="0.398" fill="none" /><path id="2117" transform="matrix(1 0 0 -1 0 841)" d="M265.254 114.384L280.158 114.384" stroke="#000000" stroke-width="0.398" fill="none" /><path id="2128" transform="matrix(1 0 0 -1 0 841)" d="M133.184 90.917L148.088 90.917" stroke="#000000" stroke-width="0.398" fill="none" /><path id="2174" transform="matrix(1 0 0 -1 0 841)" d="M396.073 90.917L441.45 90.917" stroke="#000000" stroke-width="0.398" fill="none" /><g transform="matrix(0.2 0 0 0.2 249.239 774.845)"><g transform="matrix(1 0 0 1 0 0)"><image x="0" y="0" xlink:href="img_04.png" width="484" height="104" /></g></g></g></g></svg>