<svg xmlns="http://www.w3.org/2000/svg" xmlns:xlink="http://www.w3.org/1999/xlink" id="body_322" preserveAspectRatio="xMinYMin meet" viewBox="0 0 793 1121"><defs><clipPath id="1"><path id="" clip-rule="evenodd" transform="matrix(1 0 0 1 0 0)" d="M0 841L0 -0.8900146L0 -0.8900146L595.276 -0.8900146L595.276 -0.8900146L595.276 841L595.276 841L0 841z" /></clipPath></defs><g transform="matrix(1.333333 0 0 1.333333 0 0)"><g clip-path="url(#1)"><path id="26" transform="matrix(1 0 0 -1 0 841)" d="M85.039 766.564L510.236 766.564" stroke="#000000" stroke-width="0.498" fill="none" /><path id="73" transform="matrix(1 0 0 -1 0 841)" d="M112.063 727.585L128.053 727.585L128.053 738.793L112.063 738.793z" stroke="none" fill="#FFF100" fill-rule="nonzero" /><path id="77" transform="matrix(1 0 0 -1 0 841)" d="M127.804 727.585L130.295 727.585L130.295 738.793L127.804 738.793z" stroke="none" fill="#FFF100" fill-rule="nonzero" /><path id="78" transform="matrix(1 0 0 -1 0 841)" d="M130.046 727.585L144.372 727.585L144.372 738.793L130.046 738.793z" stroke="none" fill="#FFF100" fill-rule="nonzero" /><path id="82" transform="matrix(1 0 0 -1 0 841)" d="M143.874 727.585L147.142 727.585L147.142 738.793L143.874 738.793z" stroke="none" fill="#FFF100" fill-rule="nonzero" /><path id="84" transform="matrix(1 0 0 -1 0 841)" d="M146.643 727.585L162.085 727.585L162.085 738.793L146.643 738.793z" stroke="none" fill="#FFF100" fill-rule="nonzero" /><path id="88" transform="matrix(1 0 0 -1 0 841)" d="M161.836 727.585L164.327 727.585L164.327 738.793L161.836 738.793z" stroke="none" fill="#FFF100" fill-rule="nonzero" /><path id="89" transform="matrix(1 0 0 -1 0 841)" d="M164.077 727.585L183.942 727.585L183.942 738.793L164.077 738.793z" stroke="none" fill="#FFF100" fill-rule="nonzero" /><path id="94" transform="matrix(1 0 0 -1 0 841)" d="M183.694 727.585L186.185 727.585L186.185 738.793L183.694 738.793z" stroke="none" fill="#FFF100" fill-rule="nonzero" /><path id="95" transform="matrix(1 0 0 -1 0 841)" d="M185.935 727.585L194.732 727.585L194.732 738.793L185.935 738.793z" stroke="none" fill="#FFF100" fill-rule="nonzero" /><path id="98" transform="matrix(1 0 0 -1 0 841)" d="M194.483 727.585L196.974 727.585L196.974 738.793L194.483 738.793z" stroke="none" fill="#FFF100" fill-rule="nonzero" /><path id="99" transform="matrix(1 0 0 -1 0 841)" d="M196.725 727.585L201.646 727.585L201.646 738.793L196.725 738.793z" stroke="none" fill="#FFF100" fill-rule="nonzero" /><path id="101" transform="matrix(1 0 0 -1 0 841)" d="M201.397 727.585L203.888 727.585L203.888 738.793L201.397 738.793z" stroke="none" fill="#FFF100" fill-rule="nonzero" /><path id="102" transform="matrix(1 0 0 -1 0 841)" d="M203.639 727.585L216.859 727.585L216.859 738.793L203.639 738.793z" stroke="none" fill="#FFF100" fill-rule="nonzero" /><path id="106" transform="matrix(1 0 0 -1 0 841)" d="M216.361 727.585L233.457 727.585L233.457 738.793L216.361 738.793z" stroke="none" fill="#FFF100" fill-rule="nonzero" /><path id="111" transform="matrix(1 0 0 -1 0 841)" d="M233.208 727.585L235.699 727.585L235.699 738.793L233.208 738.793z" stroke="none" fill="#FFF100" fill-rule="nonzero" /><path id="112" transform="matrix(1 0 0 -1 0 841)" d="M235.449 727.585L257.277 727.585L257.277 738.793L235.449 738.793z" stroke="none" fill="#FFF100" fill-rule="nonzero" /><path id="118" transform="matrix(1 0 0 -1 0 841)" d="M257.028 727.585L259.519 727.585L259.519 738.793L257.028 738.793z" stroke="none" fill="#FFF100" fill-rule="nonzero" /><path id="119" transform="matrix(1 0 0 -1 0 841)" d="M259.27 727.585L266.413 727.585L266.413 738.793L259.27 738.793z" stroke="none" fill="#FFF100" fill-rule="nonzero" /><path id="122" transform="matrix(1 0 0 -1 0 841)" d="M266.164 727.585L268.655 727.585L268.655 738.793L266.164 738.793z" stroke="none" fill="#FFF100" fill-rule="nonzero" /><path id="123" transform="matrix(1 0 0 -1 0 841)" d="M268.405 727.585L278.866 727.585L278.866 738.793L268.405 738.793z" stroke="none" fill="#FFF100" fill-rule="nonzero" /><path id="126" transform="matrix(1 0 0 -1 0 841)" d="M278.368 727.585L303.214 727.585L303.214 738.793L278.368 738.793z" stroke="none" fill="#FFF100" fill-rule="nonzero" /><path id="133" transform="matrix(1 0 0 -1 0 841)" d="M302.965 727.585L305.456 727.585L305.456 738.793L302.965 738.793z" stroke="none" fill="#FFF100" fill-rule="nonzero" /><path id="134" transform="matrix(1 0 0 -1 0 841)" d="M305.207 727.585L315.668 727.585L315.668 738.793L305.207 738.793z" stroke="none" fill="#FFF100" fill-rule="nonzero" /><path id="137" transform="matrix(1 0 0 -1 0 841)" d="M315.419 727.585L317.91 727.585L317.91 738.793L315.419 738.793z" stroke="none" fill="#FFF100" fill-rule="nonzero" /><path id="138" transform="matrix(1 0 0 -1 0 841)" d="M317.66 727.585L325.66 727.585L325.66 738.793L317.66 738.793z" stroke="none" fill="#FFF100" fill-rule="nonzero" /><path id="141" transform="matrix(1 0 0 -1 0 841)" d="M325.162 727.585L338.392 727.585L338.392 738.793L325.162 738.793z" stroke="none" fill="#FFF100" fill-rule="nonzero" /><path id="145" transform="matrix(1 0 0 -1 0 841)" d="M337.894 727.585L351.124 727.585L351.124 738.793L337.894 738.793z" stroke="none" fill="#FFF100" fill-rule="nonzero" /><path id="149" transform="matrix(1 0 0 -1 0 841)" d="M350.875 727.585L353.366 727.585L353.366 738.793L350.875 738.793z" stroke="none" fill="#FFF100" fill-rule="nonzero" /><path id="150" transform="matrix(1 0 0 -1 0 841)" d="M353.117 727.585L365.789 727.585L365.789 738.793L353.117 738.793z" stroke="none" fill="#FFF100" fill-rule="nonzero" /><path id="154" transform="matrix(1 0 0 -1 0 841)" d="M365.54 727.585L368.031 727.585L368.031 738.793L365.54 738.793z" stroke="none" fill="#FFF100" fill-rule="nonzero" /><path id="155" transform="matrix(1 0 0 -1 0 841)" d="M367.782 727.585L381.002 727.585L381.002 738.793L367.782 738.793z" stroke="none" fill="#FFF100" fill-rule="nonzero" /><path id="159" transform="matrix(1 0 0 -1 0 841)" d="M380.504 727.585L397.6 727.585L397.6 738.793L380.504 738.793z" stroke="none" fill="#FFF100" fill-rule="nonzero" /><path id="164" transform="matrix(1 0 0 -1 0 841)" d="M397.35 727.585L399.841 727.585L399.841 738.793L397.35 738.793z" stroke="none" fill="#FFF100" fill-rule="nonzero" /><path id="165" transform="matrix(1 0 0 -1 0 841)" d="M399.592 727.585L410.053 727.585L410.053 738.793L399.592 738.793z" stroke="none" fill="#FFF100" fill-rule="nonzero" /><path id="168" transform="matrix(1 0 0 -1 0 841)" d="M409.804 727.585L412.295 727.585L412.295 738.793L409.804 738.793z" stroke="none" fill="#FFF100" fill-rule="nonzero" /><path id="169" transform="matrix(1 0 0 -1 0 841)" d="M412.045 727.585L429.978 727.585L429.978 738.793L412.045 738.793z" stroke="none" fill="#FFF100" fill-rule="nonzero" /><path id="277" transform="matrix(1 0 0 -1 0 841)" d="M112.063 682.753L122.833 682.753L122.833 693.961L112.063 693.961z" stroke="none" fill="#FFF100" fill-rule="nonzero" /><path id="280" transform="matrix(1 0 0 -1 0 841)" d="M122.584 682.753L125.075 682.753L125.075 693.961L122.584 693.961z" stroke="none" fill="#FFF100" fill-rule="nonzero" /><path id="281" transform="matrix(1 0 0 -1 0 841)" d="M124.825 682.753L134.728 682.753L134.728 693.961L124.825 693.961z" stroke="none" fill="#FFF100" fill-rule="nonzero" /><path id="284" transform="matrix(1 0 0 -1 0 841)" d="M134.23 682.753L145.239 682.753L145.239 693.961L134.23 693.961z" stroke="none" fill="#FFF100" fill-rule="nonzero" /><path id="288" transform="matrix(1 0 0 -1 0 841)" d="M144.74 682.753L165.163 682.753L165.163 693.961L144.74 693.961z" stroke="none" fill="#FFF100" fill-rule="nonzero" /><path id="293" transform="matrix(1 0 0 -1 0 841)" d="M164.914 682.753L167.405 682.753L167.405 693.961L164.914 693.961z" stroke="none" fill="#FFF100" fill-rule="nonzero" /><path id="294" transform="matrix(1 0 0 -1 0 841)" d="M167.156 682.753L187.021 682.753L187.021 693.961L167.156 693.961z" stroke="none" fill="#FFF100" fill-rule="nonzero" /><path id="299" transform="matrix(1 0 0 -1 0 841)" d="M186.772 682.753L189.263 682.753L189.263 693.961L186.772 693.961z" stroke="none" fill="#FFF100" fill-rule="nonzero" /><path id="300" transform="matrix(1 0 0 -1 0 841)" d="M189.014 682.753L202.234 682.753L202.234 693.961L189.014 693.961z" stroke="none" fill="#FFF100" fill-rule="nonzero" /><path id="304" transform="matrix(1 0 0 -1 0 841)" d="M201.736 682.753L218.832 682.753L218.832 693.961L201.736 693.961z" stroke="none" fill="#FFF100" fill-rule="nonzero" /><path id="309" transform="matrix(1 0 0 -1 0 841)" d="M218.334 682.753L232.66 682.753L232.66 693.961L218.334 693.961z" stroke="none" fill="#FFF100" fill-rule="nonzero" /><path id="313" transform="matrix(1 0 0 -1 0 841)" d="M232.411 682.753L234.902 682.753L234.902 693.961L232.411 693.961z" stroke="none" fill="#FFF100" fill-rule="nonzero" /><path id="314" transform="matrix(1 0 0 -1 0 841)" d="M234.652 682.753L239.573 682.753L239.573 693.961L234.652 693.961z" stroke="none" fill="#FFF100" fill-rule="nonzero" /><path id="316" transform="matrix(1 0 0 -1 0 841)" d="M239.325 682.753L241.816 682.753L241.816 693.961L239.325 693.961z" stroke="none" fill="#FFF100" fill-rule="nonzero" /><path id="317" transform="matrix(1 0 0 -1 0 841)" d="M241.566 682.753L257.556 682.753L257.556 693.961L241.566 693.961z" stroke="none" fill="#FFF100" fill-rule="nonzero" /><path id="322" transform="matrix(1 0 0 -1 0 841)" d="M257.307 682.753L259.798 682.753L259.798 693.961L257.307 693.961z" stroke="none" fill="#FFF100" fill-rule="nonzero" /><path id="323" transform="matrix(1 0 0 -1 0 841)" d="M259.549 682.753L266.692 682.753L266.692 693.961L259.549 693.961z" stroke="none" fill="#FFF100" fill-rule="nonzero" /><path id="326" transform="matrix(1 0 0 -1 0 841)" d="M266.443 682.753L268.934 682.753L268.934 693.961L266.443 693.961z" stroke="none" fill="#FFF100" fill-rule="nonzero" /><path id="327" transform="matrix(1 0 0 -1 0 841)" d="M268.684 682.753L277.481 682.753L277.481 693.961L268.684 693.961z" stroke="none" fill="#FFF100" fill-rule="nonzero" /><path id="330" transform="matrix(1 0 0 -1 0 841)" d="M277.232 682.753L279.723 682.753L279.723 693.961L277.232 693.961z" stroke="none" fill="#FFF100" fill-rule="nonzero" /><path id="331" transform="matrix(1 0 0 -1 0 841)" d="M279.474 682.753L292.146 682.753L292.146 693.961L279.474 693.961z" stroke="none" fill="#FFF100" fill-rule="nonzero" /><path id="335" transform="matrix(1 0 0 -1 0 841)" d="M291.897 682.753L294.388 682.753L294.388 693.961L291.897 693.961z" stroke="none" fill="#FFF100" fill-rule="nonzero" /><path id="336" transform="matrix(1 0 0 -1 0 841)" d="M294.138 682.753L321.475 682.753L321.475 693.961L294.138 693.961z" stroke="none" fill="#FFF100" fill-rule="nonzero" /><path id="343" transform="matrix(1 0 0 -1 0 841)" d="M321.227 682.753L323.718 682.753L323.718 693.961L321.227 693.961z" stroke="none" fill="#FFF100" fill-rule="nonzero" /><path id="344" transform="matrix(1 0 0 -1 0 841)" d="M323.468 682.753L331.468 682.753L331.468 693.961L323.468 693.961z" stroke="none" fill="#FFF100" fill-rule="nonzero" /><path id="347" transform="matrix(1 0 0 -1 0 841)" d="M330.97 682.753L348.624 682.753L348.624 693.961L330.97 693.961z" stroke="none" fill="#FFF100" fill-rule="nonzero" /><path id="352" transform="matrix(1 0 0 -1 0 841)" d="M348.375 682.753L350.866 682.753L350.866 693.961L348.375 693.961z" stroke="none" fill="#FFF100" fill-rule="nonzero" /><path id="353" transform="matrix(1 0 0 -1 0 841)" d="M350.616 682.753L363.288 682.753L363.288 693.961L350.616 693.961z" stroke="none" fill="#FFF100" fill-rule="nonzero" /><path id="357" transform="matrix(1 0 0 -1 0 841)" d="M363.039 682.753L365.53 682.753L365.53 693.961L363.039 693.961z" stroke="none" fill="#FFF100" fill-rule="nonzero" /><path id="358" transform="matrix(1 0 0 -1 0 841)" d="M365.281 682.753L381.271 682.753L381.271 693.961L365.281 693.961z" stroke="none" fill="#FFF100" fill-rule="nonzero" /><path id="363" transform="matrix(1 0 0 -1 0 841)" d="M381.022 682.753L383.513 682.753L383.513 693.961L381.022 693.961z" stroke="none" fill="#FFF100" fill-rule="nonzero" /><path id="364" transform="matrix(1 0 0 -1 0 841)" d="M383.263 682.753L393.724 682.753L393.724 693.961L383.263 693.961z" stroke="none" fill="#FFF100" fill-rule="nonzero" /><path id="367" transform="matrix(1 0 0 -1 0 841)" d="M393.475 682.753L395.966 682.753L395.966 693.961L393.475 693.961z" stroke="none" fill="#FFF100" fill-rule="nonzero" /><path id="368" transform="matrix(1 0 0 -1 0 841)" d="M395.717 682.753L408.389 682.753L408.389 693.961L395.717 693.961z" stroke="none" fill="#FFF100" fill-rule="nonzero" /><path id="372" transform="matrix(1 0 0 -1 0 841)" d="M408.14 682.753L410.631 682.753L410.631 693.961L408.14 693.961z" stroke="none" fill="#FFF100" fill-rule="nonzero" /><path id="373" transform="matrix(1 0 0 -1 0 841)" d="M410.382 682.753L437.719 682.753L437.719 693.961L410.382 693.961z" stroke="none" fill="#FFF100" fill-rule="nonzero" /><path id="587" transform="matrix(1 0 0 -1 0 841)" d="M112.063 530.325L122.833 530.325L122.833 541.533L112.063 541.533z" stroke="none" fill="#FFF100" fill-rule="nonzero" /><path id="590" transform="matrix(1 0 0 -1 0 841)" d="M122.495 530.325L124.982 530.325L124.982 541.533L122.495 541.533z" stroke="none" fill="#FFF100" fill-rule="nonzero" /><path id="591" transform="matrix(1 0 0 -1 0 841)" d="M124.733 530.325L140.733 530.325L140.733 541.533L124.733 541.533z" stroke="none" fill="#FFF100" fill-rule="nonzero" /><path id="595" transform="matrix(1 0 0 -1 0 841)" d="M140.36 530.325L142.847 530.325L142.847 541.533L140.36 541.533z" stroke="none" fill="#FFF100" fill-rule="nonzero" /><path id="596" transform="matrix(1 0 0 -1 0 841)" d="M142.598 530.325L155.27 530.325L155.27 541.533L142.598 541.533z" stroke="none" fill="#FFF100" fill-rule="nonzero" /><path id="600" transform="matrix(1 0 0 -1 0 841)" d="M154.924 530.325L157.411 530.325L157.411 541.533L154.924 541.533z" stroke="none" fill="#FFF100" fill-rule="nonzero" /><path id="601" transform="matrix(1 0 0 -1 0 841)" d="M157.162 530.325L170.382 530.325L170.382 541.533L157.162 541.533z" stroke="none" fill="#FFF100" fill-rule="nonzero" /><path id="605" transform="matrix(1 0 0 -1 0 841)" d="M169.782 530.325L186.878 530.325L186.878 541.533L169.782 541.533z" stroke="none" fill="#FFF100" fill-rule="nonzero" /><path id="610" transform="matrix(1 0 0 -1 0 841)" d="M186.247 530.325L200.573 530.325L200.573 541.533L186.247 541.533z" stroke="none" fill="#FFF100" fill-rule="nonzero" /><path id="614" transform="matrix(1 0 0 -1 0 841)" d="M200.214 530.325L202.701 530.325L202.701 541.533L200.214 541.533z" stroke="none" fill="#FFF100" fill-rule="nonzero" /><path id="615" transform="matrix(1 0 0 -1 0 841)" d="M202.452 530.325L211.249 530.325L211.249 541.533L202.452 541.533z" stroke="none" fill="#FFF100" fill-rule="nonzero" /><path id="618" transform="matrix(1 0 0 -1 0 841)" d="M210.933 530.325L213.42 530.325L213.42 541.533L210.933 541.533z" stroke="none" fill="#FFF100" fill-rule="nonzero" /><path id="619" transform="matrix(1 0 0 -1 0 841)" d="M213.171 530.325L218.092 530.325L218.092 541.533L213.171 541.533z" stroke="none" fill="#FFF100" fill-rule="nonzero" /><path id="621" transform="matrix(1 0 0 -1 0 841)" d="M217.808 530.325L220.295 530.325L220.295 541.533L217.808 541.533z" stroke="none" fill="#FFF100" fill-rule="nonzero" /><path id="622" transform="matrix(1 0 0 -1 0 841)" d="M220.046 530.325L238.258 530.325L238.258 541.533L220.046 541.533z" stroke="none" fill="#FFF100" fill-rule="nonzero" /><path id="626" transform="matrix(1 0 0 -1 0 841)" d="M237.618 530.325L252.931 530.325L252.931 541.533L237.618 541.533z" stroke="none" fill="#FFF100" fill-rule="nonzero" /><path id="631" transform="matrix(1 0 0 -1 0 841)" d="M252.56 530.325L255.047 530.325L255.047 541.533L252.56 541.533z" stroke="none" fill="#FFF100" fill-rule="nonzero" /><path id="632" transform="matrix(1 0 0 -1 0 841)" d="M254.798 530.325L270.798 530.325L270.798 541.533L254.798 541.533z" stroke="none" fill="#FFF100" fill-rule="nonzero" /><path id="636" transform="matrix(1 0 0 -1 0 841)" d="M270.175 530.325L276.212 530.325L276.212 541.533L270.175 541.533z" stroke="none" fill="#FFF100" fill-rule="nonzero" /><path id="639" transform="matrix(1 0 0 -1 0 841)" d="M275.67 530.325L288.9 530.325L288.9 541.533L275.67 541.533z" stroke="none" fill="#FFF100" fill-rule="nonzero" /><path id="643" transform="matrix(1 0 0 -1 0 841)" d="M288.549 530.325L291.036 530.325L291.036 541.533L288.549 541.533z" stroke="none" fill="#FFF100" fill-rule="nonzero" /><path id="644" transform="matrix(1 0 0 -1 0 841)" d="M290.787 530.325L303.459 530.325L303.459 541.533L290.787 541.533z" stroke="none" fill="#FFF100" fill-rule="nonzero" /><path id="648" transform="matrix(1 0 0 -1 0 841)" d="M303.113 530.325L305.6 530.325L305.6 541.533L303.113 541.533z" stroke="none" fill="#FFF100" fill-rule="nonzero" /><path id="649" transform="matrix(1 0 0 -1 0 841)" d="M305.351 530.325L323.563 530.325L323.563 541.533L305.351 541.533z" stroke="none" fill="#FFF100" fill-rule="nonzero" /><path id="653" transform="matrix(1 0 0 -1 0 841)" d="M322.923 530.325L336.143 530.325L336.143 541.533L322.923 541.533z" stroke="none" fill="#FFF100" fill-rule="nonzero" /><path id="657" transform="matrix(1 0 0 -1 0 841)" d="M335.793 530.325L338.28 530.325L338.28 541.533L335.793 541.533z" stroke="none" fill="#FFF100" fill-rule="nonzero" /><path id="658" transform="matrix(1 0 0 -1 0 841)" d="M338.031 530.325L348.492 530.325L348.492 541.533L338.031 541.533z" stroke="none" fill="#FFF100" fill-rule="nonzero" /><path id="661" transform="matrix(1 0 0 -1 0 841)" d="M348.163 530.325L350.65 530.325L350.65 541.533L348.163 541.533z" stroke="none" fill="#FFF100" fill-rule="nonzero" /><path id="662" transform="matrix(1 0 0 -1 0 841)" d="M350.401 530.325L363.073 530.325L363.073 541.533L350.401 541.533z" stroke="none" fill="#FFF100" fill-rule="nonzero" /><path id="666" transform="matrix(1 0 0 -1 0 841)" d="M362.726 530.325L365.213 530.325L365.213 541.533L362.726 541.533z" stroke="none" fill="#FFF100" fill-rule="nonzero" /><path id="667" transform="matrix(1 0 0 -1 0 841)" d="M364.964 530.325L379.29 530.325L379.29 541.533L364.964 541.533z" stroke="none" fill="#FFF100" fill-rule="nonzero" /><path id="671" transform="matrix(1 0 0 -1 0 841)" d="M378.682 530.325L381.95 530.325L381.95 541.533L378.682 541.533z" stroke="none" fill="#FFF100" fill-rule="nonzero" /><path id="673" transform="matrix(1 0 0 -1 0 841)" d="M381.429 530.325L396.871 530.325L396.871 541.533L381.429 541.533z" stroke="none" fill="#FFF100" fill-rule="nonzero" /><path id="677" transform="matrix(1 0 0 -1 0 841)" d="M396.502 530.325L398.989 530.325L398.989 541.533L396.502 541.533z" stroke="none" fill="#FFF100" fill-rule="nonzero" /><path id="678" transform="matrix(1 0 0 -1 0 841)" d="M398.74 530.325L420.877 530.325L420.877 541.533L398.74 541.533z" stroke="none" fill="#FFF100" fill-rule="nonzero" /><path id="684" transform="matrix(1 0 0 -1 0 841)" d="M420.202 530.325L425.123 530.325L425.123 541.533L420.202 541.533z" stroke="none" fill="#FFF100" fill-rule="nonzero" /><path id="686" transform="matrix(1 0 0 -1 0 841)" d="M424.59 530.325L440.032 530.325L440.032 541.533L424.59 541.533z" stroke="none" fill="#FFF100" fill-rule="nonzero" /><path id="691" transform="matrix(1 0 0 -1 0 841)" d="M439.663 530.325L442.15 530.325L442.15 541.533L439.663 541.533z" stroke="none" fill="#FFF100" fill-rule="nonzero" /><path id="692" transform="matrix(1 0 0 -1 0 841)" d="M441.901 530.325L450.698 530.325L450.698 541.533L441.901 541.533z" stroke="none" fill="#FFF100" fill-rule="nonzero" /><path id="695" transform="matrix(1 0 0 -1 0 841)" d="M450.383 530.325L452.87 530.325L452.87 541.533L450.383 541.533z" stroke="none" fill="#FFF100" fill-rule="nonzero" /><path id="696" transform="matrix(1 0 0 -1 0 841)" d="M452.621 530.325L465.293 530.325L465.293 541.533L452.621 541.533z" stroke="none" fill="#FFF100" fill-rule="nonzero" /><path id="700" transform="matrix(1 0 0 -1 0 841)" d="M464.947 530.325L467.434 530.325L467.434 541.533L464.947 541.533z" stroke="none" fill="#FFF100" fill-rule="nonzero" /><path id="701" transform="matrix(1 0 0 -1 0 841)" d="M467.185 530.325L480.405 530.325L480.405 541.533L467.185 541.533z" stroke="none" fill="#FFF100" fill-rule="nonzero" /><path id="705" transform="matrix(1 0 0 -1 0 841)" d="M479.805 530.325L496.901 530.325L496.901 541.533L479.805 541.533z" stroke="none" fill="#FFF100" fill-rule="nonzero" /><path id="710" transform="matrix(1 0 0 -1 0 841)" d="M496.27 530.325L510.596 530.325L510.596 541.533L496.27 541.533z" stroke="none" fill="#FFF100" fill-rule="nonzero" /><path id="714" transform="matrix(1 0 0 -1 0 841)" d="M112.063 515.381L134.3 515.381L134.3 526.589L112.063 526.589z" stroke="none" fill="#FFF100" fill-rule="nonzero" /><path id="720" transform="matrix(1 0 0 -1 0 841)" d="M134.051 515.381L136.542 515.381L136.542 526.589L134.051 526.589z" stroke="none" fill="#FFF100" fill-rule="nonzero" /><path id="721" transform="matrix(1 0 0 -1 0 841)" d="M136.292 515.381L144.541 515.381L144.541 526.589L136.292 526.589z" stroke="none" fill="#FFF100" fill-rule="nonzero" /><path id="724" transform="matrix(1 0 0 -1 0 841)" d="M144.292 515.381L146.783 515.381L146.783 526.589L144.292 526.589z" stroke="none" fill="#FFF100" fill-rule="nonzero" /><path id="725" transform="matrix(1 0 0 -1 0 841)" d="M146.534 515.381L159.206 515.381L159.206 526.589L146.534 526.589z" stroke="none" fill="#FFF100" fill-rule="nonzero" /><path id="729" transform="matrix(1 0 0 -1 0 841)" d="M158.957 515.381L161.448 515.381L161.448 526.589L158.957 526.589z" stroke="none" fill="#FFF100" fill-rule="nonzero" /><path id="730" transform="matrix(1 0 0 -1 0 841)" d="M161.198 515.381L179.958 515.381L179.958 526.589L161.198 526.589z" stroke="none" fill="#FFF100" fill-rule="nonzero" /><path id="735" transform="matrix(1 0 0 -1 0 841)" d="M179.46 515.381L197.392 515.381L197.392 526.589L179.46 526.589z" stroke="none" fill="#FFF100" fill-rule="nonzero" /><path id="857" transform="matrix(1 0 0 -1 0 841)" d="M112.063 380.389L122.833 380.389L122.833 391.597L112.063 391.597z" stroke="none" fill="#FFF100" fill-rule="nonzero" /><path id="860" transform="matrix(1 0 0 -1 0 841)" d="M122.805 380.389L125.382 380.389L125.382 391.597L122.805 391.597z" stroke="none" fill="#FFF100" fill-rule="nonzero" /><path id="861" transform="matrix(1 0 0 -1 0 841)" d="M125.133 380.389L133.382 380.389L133.382 391.597L125.133 391.597z" stroke="none" fill="#FFF100" fill-rule="nonzero" /><path id="864" transform="matrix(1 0 0 -1 0 841)" d="M133.039 380.389L158.423 380.389L158.423 391.597L133.039 391.597z" stroke="none" fill="#FFF100" fill-rule="nonzero" /><path id="871" transform="matrix(1 0 0 -1 0 841)" d="M158.672 380.389L161.249 380.389L161.249 391.597L158.672 391.597z" stroke="none" fill="#FFF100" fill-rule="nonzero" /><path id="872" transform="matrix(1 0 0 -1 0 841)" d="M161 380.389L165.921 380.389L165.921 391.597L161 391.597z" stroke="none" fill="#FFF100" fill-rule="nonzero" /><path id="874" transform="matrix(1 0 0 -1 0 841)" d="M165.761 380.389L168.338 380.389L168.338 391.597L165.761 391.597z" stroke="none" fill="#FFF100" fill-rule="nonzero" /><path id="875" transform="matrix(1 0 0 -1 0 841)" d="M168.089 380.389L189.917 380.389L189.917 391.597L168.089 391.597z" stroke="none" fill="#FFF100" fill-rule="nonzero" /><path id="881" transform="matrix(1 0 0 -1 0 841)" d="M190.1 380.389L192.677 380.389L192.677 391.597L190.1 391.597z" stroke="none" fill="#FFF100" fill-rule="nonzero" /><path id="882" transform="matrix(1 0 0 -1 0 841)" d="M192.428 380.389L202.889 380.389L202.889 391.597L192.428 391.597z" stroke="none" fill="#FFF100" fill-rule="nonzero" /><path id="885" transform="matrix(1 0 0 -1 0 841)" d="M202.839 380.389L205.416 380.389L205.416 391.597L202.839 391.597z" stroke="none" fill="#FFF100" fill-rule="nonzero" /><path id="886" transform="matrix(1 0 0 -1 0 841)" d="M205.167 380.389L210.088 380.389L210.088 391.597L205.167 391.597z" stroke="none" fill="#FFF100" fill-rule="nonzero" /><path id="888" transform="matrix(1 0 0 -1 0 841)" d="M209.928 380.389L212.505 380.389L212.505 391.597L209.928 391.597z" stroke="none" fill="#FFF100" fill-rule="nonzero" /><path id="889" transform="matrix(1 0 0 -1 0 841)" d="M212.256 380.389L225.476 380.389L225.476 391.597L212.256 391.597z" stroke="none" fill="#FFF100" fill-rule="nonzero" /><path id="893" transform="matrix(1 0 0 -1 0 841)" d="M225.233 380.389L244.819 380.389L244.819 391.597L225.233 391.597z" stroke="none" fill="#FFF100" fill-rule="nonzero" /><path id="899" transform="matrix(1 0 0 -1 0 841)" d="M244.952 380.389L247.529 380.389L247.529 391.597L244.952 391.597z" stroke="none" fill="#FFF100" fill-rule="nonzero" /><path id="900" transform="matrix(1 0 0 -1 0 841)" d="M247.28 380.389L262.164 380.389L262.164 391.597L247.28 391.597z" stroke="none" fill="#FFF100" fill-rule="nonzero" /><path id="904" transform="matrix(1 0 0 -1 0 841)" d="M262.203 380.389L264.78 380.389L264.78 391.597L262.203 391.597z" stroke="none" fill="#FFF100" fill-rule="nonzero" /><path id="905" transform="matrix(1 0 0 -1 0 841)" d="M264.531 380.389L277.203 380.389L277.203 391.597L264.531 391.597z" stroke="none" fill="#FFF100" fill-rule="nonzero" /><path id="909" transform="matrix(1 0 0 -1 0 841)" d="M277.198 380.389L279.775 380.389L279.775 391.597L277.198 391.597z" stroke="none" fill="#FFF100" fill-rule="nonzero" /><path id="910" transform="matrix(1 0 0 -1 0 841)" d="M279.526 380.389L293.852 380.389L293.852 391.597L279.526 391.597z" stroke="none" fill="#FFF100" fill-rule="nonzero" /><path id="914" transform="matrix(1 0 0 -1 0 841)" d="M293.631 380.389L296.899 380.389L296.899 391.597L293.631 391.597z" stroke="none" fill="#FFF100" fill-rule="nonzero" /><path id="916" transform="matrix(1 0 0 -1 0 841)" d="M296.456 380.389L311.898 380.389L311.898 391.597L296.456 391.597z" stroke="none" fill="#FFF100" fill-rule="nonzero" /><path id="920" transform="matrix(1 0 0 -1 0 841)" d="M311.947 380.389L314.524 380.389L314.524 391.597L311.947 391.597z" stroke="none" fill="#FFF100" fill-rule="nonzero" /><path id="921" transform="matrix(1 0 0 -1 0 841)" d="M314.275 380.389L336.412 380.389L336.412 391.597L314.275 391.597z" stroke="none" fill="#FFF100" fill-rule="nonzero" /><path id="927" transform="matrix(1 0 0 -1 0 841)" d="M336.357 380.389L341.278 380.389L341.278 391.597L336.357 391.597z" stroke="none" fill="#FFF100" fill-rule="nonzero" /><path id="929" transform="matrix(1 0 0 -1 0 841)" d="M340.869 380.389L356.311 380.389L356.311 391.597L340.869 391.597z" stroke="none" fill="#FFF100" fill-rule="nonzero" /><path id="934" transform="matrix(1 0 0 -1 0 841)" d="M356.36 380.389L358.937 380.389L358.937 391.597L356.36 391.597z" stroke="none" fill="#FFF100" fill-rule="nonzero" /><path id="935" transform="matrix(1 0 0 -1 0 841)" d="M358.689 380.389L367.486 380.389L367.486 391.597L358.689 391.597z" stroke="none" fill="#FFF100" fill-rule="nonzero" /><path id="938" transform="matrix(1 0 0 -1 0 841)" d="M367.402 380.389L369.979 380.389L369.979 391.597L367.402 391.597z" stroke="none" fill="#FFF100" fill-rule="nonzero" /><path id="939" transform="matrix(1 0 0 -1 0 841)" d="M369.731 380.389L382.403 380.389L382.403 391.597L369.731 391.597z" stroke="none" fill="#FFF100" fill-rule="nonzero" /><path id="943" transform="matrix(1 0 0 -1 0 841)" d="M382.397 380.389L384.974 380.389L384.974 391.597L382.397 391.597z" stroke="none" fill="#FFF100" fill-rule="nonzero" /><path id="944" transform="matrix(1 0 0 -1 0 841)" d="M384.726 380.389L397.946 380.389L397.946 391.597L384.726 391.597z" stroke="none" fill="#FFF100" fill-rule="nonzero" /><path id="948" transform="matrix(1 0 0 -1 0 841)" d="M397.702 380.389L414.798 380.389L414.798 391.597L397.702 391.597z" stroke="none" fill="#FFF100" fill-rule="nonzero" /><path id="953" transform="matrix(1 0 0 -1 0 841)" d="M414.881 380.389L417.458 380.389L417.458 391.597L414.881 391.597z" stroke="none" fill="#FFF100" fill-rule="nonzero" /><path id="954" transform="matrix(1 0 0 -1 0 841)" d="M417.209 380.389L425.458 380.389L425.458 391.597L417.209 391.597z" stroke="none" fill="#FFF100" fill-rule="nonzero" /><path id="957" transform="matrix(1 0 0 -1 0 841)" d="M425.364 380.389L427.941 380.389L427.941 391.597L425.364 391.597z" stroke="none" fill="#FFF100" fill-rule="nonzero" /><path id="958" transform="matrix(1 0 0 -1 0 841)" d="M427.692 380.389L432.255 380.389L432.255 391.597L427.692 391.597z" stroke="none" fill="#FFF100" fill-rule="nonzero" /><path id="960" transform="matrix(1 0 0 -1 0 841)" d="M432.087 380.389L434.664 380.389L434.664 391.597L432.087 391.597z" stroke="none" fill="#FFF100" fill-rule="nonzero" /><path id="961" transform="matrix(1 0 0 -1 0 841)" d="M434.415 380.389L439.894 380.389L439.894 391.597L434.415 391.597z" stroke="none" fill="#FFF100" fill-rule="nonzero" /><path id="963" transform="matrix(1 0 0 -1 0 841)" d="M439.745 380.389L442.322 380.389L442.322 391.597L439.745 391.597z" stroke="none" fill="#FFF100" fill-rule="nonzero" /><path id="964" transform="matrix(1 0 0 -1 0 841)" d="M442.073 380.389L446.636 380.389L446.636 391.597L442.073 391.597z" stroke="none" fill="#FFF100" fill-rule="nonzero" /><path id="966" transform="matrix(1 0 0 -1 0 841)" d="M446.469 380.389L449.046 380.389L449.046 391.597L446.469 391.597z" stroke="none" fill="#FFF100" fill-rule="nonzero" /><path id="967" transform="matrix(1 0 0 -1 0 841)" d="M448.797 380.389L463.681 380.389L463.681 391.597L448.797 391.597z" stroke="none" fill="#FFF100" fill-rule="nonzero" /><path id="971" transform="matrix(1 0 0 -1 0 841)" d="M463.72 380.389L466.297 380.389L466.297 391.597L463.72 391.597z" stroke="none" fill="#FFF100" fill-rule="nonzero" /><path id="972" transform="matrix(1 0 0 -1 0 841)" d="M466.048 380.389L482.048 380.389L482.048 391.597L466.048 391.597z" stroke="none" fill="#FFF100" fill-rule="nonzero" /><path id="976" transform="matrix(1 0 0 -1 0 841)" d="M481.859 380.389L487.896 380.389L487.896 391.597L481.859 391.597z" stroke="none" fill="#FFF100" fill-rule="nonzero" /><path id="979" transform="matrix(1 0 0 -1 0 841)" d="M487.509 380.389L500.739 380.389L500.739 391.597L487.509 391.597z" stroke="none" fill="#FFF100" fill-rule="nonzero" /><path id="983" transform="matrix(1 0 0 -1 0 841)" d="M500.745 380.389L503.322 380.389L503.322 391.597L500.745 391.597z" stroke="none" fill="#FFF100" fill-rule="nonzero" /><path id="984" transform="matrix(1 0 0 -1 0 841)" d="M503.073 380.389L509.11 380.389L509.11 391.597L503.073 391.597z" stroke="none" fill="#FFF100" fill-rule="nonzero" /><path id="987" transform="matrix(1 0 0 -1 0 841)" d="M112.063 365.445L134.15 365.445L134.15 376.653L112.063 376.653z" stroke="none" fill="#FFF100" fill-rule="nonzero" /><path id="993" transform="matrix(1 0 0 -1 0 841)" d="M133.901 365.445L136.392 365.445L136.392 376.653L133.901 376.653z" stroke="none" fill="#FFF100" fill-rule="nonzero" /><path id="994" transform="matrix(1 0 0 -1 0 841)" d="M136.142 365.445L148.814 365.445L148.814 376.653L136.142 376.653z" stroke="none" fill="#FFF100" fill-rule="nonzero" /><path id="998" transform="matrix(1 0 0 -1 0 841)" d="M148.566 365.445L151.057 365.445L151.057 376.653L148.566 376.653z" stroke="none" fill="#FFF100" fill-rule="nonzero" /><path id="999" transform="matrix(1 0 0 -1 0 841)" d="M150.807 365.445L169.019 365.445L169.019 376.653L150.807 376.653z" stroke="none" fill="#FFF100" fill-rule="nonzero" /><path id="1003" transform="matrix(1 0 0 -1 0 841)" d="M168.521 365.445L183.684 365.445L183.684 376.653L168.521 376.653z" stroke="none" fill="#FFF100" fill-rule="nonzero" /><g transform="matrix(0.2 0 0 0.2 249.239 774.845)"><g transform="matrix(1 0 0 1 0 0)"><image x="0" y="0" xlink:href="img_04.png" width="484" height="104" /></g></g></g></g></svg>