<svg xmlns="http://www.w3.org/2000/svg" xmlns:xlink="http://www.w3.org/1999/xlink" id="body_362" preserveAspectRatio="xMinYMin meet" viewBox="0 0 793 1121"><defs><clipPath id="1"><path id="" clip-rule="evenodd" transform="matrix(1 0 0 1 0 0)" d="M0 841L0 -0.8900146L0 -0.8900146L595.276 -0.8900146L595.276 -0.8900146L595.276 841L595.276 841L0 841z" /></clipPath></defs><g transform="matrix(1.333333 0 0 1.333333 0 0)"><g clip-path="url(#1)"><path id="31" transform="matrix(1 0 0 -1 0 841)" d="M85.039 766.564L510.236 766.564" stroke="#000000" stroke-width="0.498" fill="none" /><path id="992" transform="matrix(1 0 0 -1 0 841)" d="M354.3337 411.5304C 354.3337 435.014 335.297 454.0506 311.8135 454.0506C 288.3299 454.0506 269.2933 435.014 269.2933 411.5304C 269.2933 388.0468 288.3299 369.0102 311.8135 369.0102C 335.297 369.0102 354.3337 388.0468 354.3337 411.5304z" stroke="#000000" stroke-width="0.3985" fill="#F2F2F2" fill-rule="nonzero" /><path id="993" transform="matrix(1 0 0 -1 0 841)" d="M269.2932 411.5304L354.3337 411.5304" stroke="#000000" stroke-width="1.19553" fill="none" /><path id="1020" transform="matrix(1 0 0 -1 0 841)" d="M289.1359 374.6794L311.8135 411.5304" stroke="#000000" stroke-width="1.19553" fill="none" /><path id="1021" transform="matrix(1 0 0 -1 0 841)" d="M334.491 374.6794L311.8135 411.5304" stroke="#000000" stroke-width="1.19553" fill="none" /><path id="1025" transform="matrix(1 0 0 -1 0 841)" d="M113.508 293.923L127.894 293.923" stroke="#000000" stroke-width="0.398" fill="none" /><path id="1036" transform="matrix(1 0 0 -1 0 841)" d="M162.687 293.923L178.737 293.923" stroke="#000000" stroke-width="0.398" fill="none" /><path id="1056" transform="matrix(1 0 0 -1 0 841)" d="M245.324 293.923L258.056 293.923" stroke="#000000" stroke-width="0.398" fill="none" /><path id="1066" transform="matrix(1 0 0 -1 0 841)" d="M113.508 261.275L127.894 261.275" stroke="#000000" stroke-width="0.398" fill="none" /><path id="1084" transform="matrix(1 0 0 -1 0 841)" d="M152.416 261.275L181.148 261.275" stroke="#000000" stroke-width="0.398" fill="none" /><path id="1100" transform="matrix(1 0 0 -1 0 841)" d="M211.213 261.275L226.715 261.275" stroke="#000000" stroke-width="0.398" fill="none" /><path id="1107" transform="matrix(1 0 0 -1 0 841)" d="M236.854 261.275L313.169 261.275" stroke="#000000" stroke-width="0.398" fill="none" /><path id="1134" transform="matrix(1 0 0 -1 0 841)" d="M338.253 261.275L350.985 261.275" stroke="#000000" stroke-width="0.398" fill="none" /><path id="1148" transform="matrix(1 0 0 -1 0 841)" d="M409.328 261.275L424.232 261.275" stroke="#000000" stroke-width="0.398" fill="none" /><path id="1152" transform="matrix(1 0 0 -1 0 841)" d="M389.802 275.576L428.816 275.576" stroke="#000000" stroke-width="0.398" fill="none" /><path id="1153" transform="matrix(1 0 0 -1 0 841)" d="M390.001 246.73L390.001 275.577" stroke="#000000" stroke-width="0.398" fill="none" /><path id="1154" transform="matrix(1 0 0 -1 0 841)" d="M428.616 246.73L428.616 275.577" stroke="#000000" stroke-width="0.398" fill="none" /><path id="1155" transform="matrix(1 0 0 -1 0 841)" d="M389.802 246.73L428.816 246.73" stroke="#000000" stroke-width="0.398" fill="none" /><path id="1167" transform="matrix(1 0 0 -1 0 841)" d="M354.3337 170.0794C 354.3337 193.563 335.297 212.5996 311.8135 212.5996C 288.3299 212.5996 269.2933 193.563 269.2933 170.0794C 269.2933 146.5959 288.3299 127.5592 311.8135 127.5592C 335.297 127.5592 354.3337 146.5959 354.3337 170.0794z" stroke="#000000" stroke-width="0.3985" fill="#F2F2F2" fill-rule="nonzero" /><path id="1168" transform="matrix(1 0 0 -1 0 841)" d="M269.2932 170.0794L354.3337 170.0794" stroke="#000000" stroke-width="1.19553" fill="none" /><path id="1197" transform="matrix(1 0 0 -1 0 841)" d="M289.1359 133.2285L311.8135 170.0794" stroke="#000000" stroke-width="1.19553" fill="none" /><path id="1198" transform="matrix(1 0 0 -1 0 841)" d="M334.491 133.2285L311.8135 170.0794" stroke="#000000" stroke-width="1.19553" fill="none" /><g transform="matrix(0.2 0 0 0.2 249.239 774.845)"><g transform="matrix(1 0 0 1 0 0)"><image x="0" y="0" xlink:href="img_04.png" width="484" height="104" /></g></g></g></g></svg>