<svg xmlns="http://www.w3.org/2000/svg" xmlns:xlink="http://www.w3.org/1999/xlink" id="body_353" preserveAspectRatio="xMinYMin meet" viewBox="0 0 793 1121"><defs><clipPath id="1"><path id="" clip-rule="evenodd" transform="matrix(1 0 0 1 0 0)" d="M0 841L0 -0.8900146L0 -0.8900146L595.276 -0.8900146L595.276 -0.8900146L595.276 841L595.276 841L0 841z" /></clipPath></defs><g transform="matrix(1.333333 0 0 1.333333 0 0)"><g clip-path="url(#1)"><path id="23" transform="matrix(1 0 0 -1 0 841)" d="M85.039 766.564L510.236 766.564" stroke="#000000" stroke-width="0.498" fill="none" /><path id="509" transform="matrix(1 0 0 -1 0 841)" d="M85.039 178.255L316.022 178.255" stroke="#000000" stroke-width="0.283" fill="none" /><path id="510" transform="matrix(1 0 0 -1 0 841)" d="M85.181 158.686L85.181 178.113" stroke="#000000" stroke-width="0.283" fill="none" /><path id="511" transform="matrix(1 0 0 -1 0 841)" d="M111.088 158.686L111.088 178.113" stroke="#000000" stroke-width="0.283" fill="none" /><path id="519" transform="matrix(1 0 0 -1 0 841)" d="M230.228 158.686L230.228 178.113" stroke="#000000" stroke-width="0.283" fill="none" /><path id="534" transform="matrix(1 0 0 -1 0 841)" d="M315.881 158.686L315.881 178.113" stroke="#000000" stroke-width="0.283" fill="none" /><path id="535" transform="matrix(1 0 0 -1 0 841)" d="M85.039 158.544L316.022 158.544" stroke="#000000" stroke-width="0.283" fill="none" /><path id="536" transform="matrix(1 0 0 -1 0 841)" d="M85.181 138.975L85.181 158.402" stroke="#000000" stroke-width="0.283" fill="none" /><path id="539" transform="matrix(1 0 0 -1 0 841)" d="M111.088 138.975L111.088 158.402" stroke="#000000" stroke-width="0.283" fill="none" /><path id="556" transform="matrix(1 0 0 -1 0 841)" d="M230.228 138.975L230.228 158.402" stroke="#000000" stroke-width="0.283" fill="none" /><path id="557" transform="matrix(1 0 0 -1 0 841)" d="M315.881 138.975L315.881 158.402" stroke="#000000" stroke-width="0.283" fill="none" /><path id="558" transform="matrix(1 0 0 -1 0 841)" d="M85.039 138.834L316.022 138.834" stroke="#000000" stroke-width="0.283" fill="none" /><path id="559" transform="matrix(1 0 0 -1 0 841)" d="M85.181 119.265L85.181 138.692" stroke="#000000" stroke-width="0.283" fill="none" /><path id="562" transform="matrix(1 0 0 -1 0 841)" d="M111.088 119.265L111.088 138.692" stroke="#000000" stroke-width="0.283" fill="none" /><path id="582" transform="matrix(1 0 0 -1 0 841)" d="M230.228 119.265L230.228 138.692" stroke="#000000" stroke-width="0.283" fill="none" /><path id="583" transform="matrix(1 0 0 -1 0 841)" d="M315.881 119.265L315.881 138.692" stroke="#000000" stroke-width="0.283" fill="none" /><path id="584" transform="matrix(1 0 0 -1 0 841)" d="M85.039 119.123L316.022 119.123" stroke="#000000" stroke-width="0.283" fill="none" /><path id="585" transform="matrix(1 0 0 -1 0 841)" d="M85.181 99.554L85.181 118.981" stroke="#000000" stroke-width="0.283" fill="none" /><path id="588" transform="matrix(1 0 0 -1 0 841)" d="M111.088 99.554L111.088 118.981" stroke="#000000" stroke-width="0.283" fill="none" /><path id="608" transform="matrix(1 0 0 -1 0 841)" d="M230.228 99.554L230.228 118.981" stroke="#000000" stroke-width="0.283" fill="none" /><path id="609" transform="matrix(1 0 0 -1 0 841)" d="M315.881 99.554L315.881 118.981" stroke="#000000" stroke-width="0.283" fill="none" /><path id="610" transform="matrix(1 0 0 -1 0 841)" d="M85.039 99.412L316.022 99.412" stroke="#000000" stroke-width="0.283" fill="none" /><path id="611" transform="matrix(1 0 0 -1 0 841)" d="M85.181 79.843L85.181 99.27" stroke="#000000" stroke-width="0.283" fill="none" /><path id="614" transform="matrix(1 0 0 -1 0 841)" d="M111.088 79.843L111.088 99.27" stroke="#000000" stroke-width="0.283" fill="none" /><path id="629" transform="matrix(1 0 0 -1 0 841)" d="M230.228 79.843L230.228 99.27" stroke="#000000" stroke-width="0.283" fill="none" /><path id="630" transform="matrix(1 0 0 -1 0 841)" d="M315.881 79.843L315.881 99.27" stroke="#000000" stroke-width="0.283" fill="none" /><path id="631" transform="matrix(1 0 0 -1 0 841)" d="M85.039 79.702L316.022 79.702" stroke="#000000" stroke-width="0.283" fill="none" /><g transform="matrix(0.2 0 0 0.2 249.239 774.845)"><g transform="matrix(1 0 0 1 0 0)"><image x="0" y="0" xlink:href="img_04.png" width="484" height="104" /></g></g></g></g></svg>