<svg xmlns="http://www.w3.org/2000/svg" xmlns:xlink="http://www.w3.org/1999/xlink" id="body_319" preserveAspectRatio="xMinYMin meet" viewBox="0 0 793 1121"><defs><clipPath id="1"><path id="" clip-rule="evenodd" transform="matrix(1 0 0 1 0 0)" d="M0 841L0 -0.8900146L0 -0.8900146L595.276 -0.8900146L595.276 -0.8900146L595.276 841L595.276 841L0 841z" /></clipPath></defs><g transform="matrix(1.333333 0 0 1.333333 0 0)"><g clip-path="url(#1)"><path id="23" transform="matrix(1 0 0 -1 0 841)" d="M85.039 766.564L510.236 766.564" stroke="#000000" stroke-width="0.498" fill="none" /><path id="44" transform="matrix(1 0 0 -1 0 841)" d="M216.754 745.792L249.409 745.792" stroke="#000000" stroke-width="0.398" fill="none" /><path id="879" transform="matrix(1 0 0 -1 0 841)" d="M85.039 459.464L392.89 459.464" stroke="#000000" stroke-width="0.283" fill="none" /><path id="880" transform="matrix(1 0 0 -1 0 841)" d="M85.181 441.708L85.181 459.322" stroke="#000000" stroke-width="0.283" fill="none" /><path id="885" transform="matrix(1 0 0 -1 0 841)" d="M149.284 441.708L149.284 459.322" stroke="#000000" stroke-width="0.283" fill="none" /><path id="891" transform="matrix(1 0 0 -1 0 841)" d="M194.864 441.708L194.864 459.322" stroke="#000000" stroke-width="0.283" fill="none" /><path id="898" transform="matrix(1 0 0 -1 0 841)" d="M273.815 441.708L273.815 459.322" stroke="#000000" stroke-width="0.283" fill="none" /><path id="907" transform="matrix(1 0 0 -1 0 841)" d="M336.413 441.708L336.413 459.322" stroke="#000000" stroke-width="0.283" fill="none" /><path id="915" transform="matrix(1 0 0 -1 0 841)" d="M392.749 441.708L392.749 459.322" stroke="#000000" stroke-width="0.283" fill="none" /><path id="916" transform="matrix(1 0 0 -1 0 841)" d="M85.039 441.567L392.89 441.567" stroke="#000000" stroke-width="0.283" fill="none" /><path id="917" transform="matrix(1 0 0 -1 0 841)" d="M85.181 423.811L85.181 441.425" stroke="#000000" stroke-width="0.283" fill="none" /><path id="921" transform="matrix(1 0 0 -1 0 841)" d="M149.284 423.811L149.284 441.425" stroke="#000000" stroke-width="0.283" fill="none" /><path id="925" transform="matrix(1 0 0 -1 0 841)" d="M194.864 423.811L194.864 441.425" stroke="#000000" stroke-width="0.283" fill="none" /><path id="927" transform="matrix(1 0 0 -1 0 841)" d="M273.815 423.811L273.815 441.425" stroke="#000000" stroke-width="0.283" fill="none" /><path id="928" transform="matrix(1 0 0 -1 0 841)" d="M336.413 423.811L336.413 441.425" stroke="#000000" stroke-width="0.283" fill="none" /><path id="929" transform="matrix(1 0 0 -1 0 841)" d="M392.749 423.811L392.749 441.425" stroke="#000000" stroke-width="0.283" fill="none" /><path id="930" transform="matrix(1 0 0 -1 0 841)" d="M85.039 423.669L392.89 423.669" stroke="#000000" stroke-width="0.283" fill="none" /><path id="931" transform="matrix(1 0 0 -1 0 841)" d="M85.181 405.914L85.181 423.528" stroke="#000000" stroke-width="0.283" fill="none" /><path id="935" transform="matrix(1 0 0 -1 0 841)" d="M149.284 405.914L149.284 423.528" stroke="#000000" stroke-width="0.283" fill="none" /><path id="939" transform="matrix(1 0 0 -1 0 841)" d="M194.864 405.914L194.864 423.528" stroke="#000000" stroke-width="0.283" fill="none" /><path id="942" transform="matrix(1 0 0 -1 0 841)" d="M273.815 405.914L273.815 423.528" stroke="#000000" stroke-width="0.283" fill="none" /><path id="948" transform="matrix(1 0 0 -1 0 841)" d="M336.413 405.914L336.413 423.528" stroke="#000000" stroke-width="0.283" fill="none" /><path id="953" transform="matrix(1 0 0 -1 0 841)" d="M392.749 405.914L392.749 423.528" stroke="#000000" stroke-width="0.283" fill="none" /><path id="954" transform="matrix(1 0 0 -1 0 841)" d="M85.039 405.772L392.89 405.772" stroke="#000000" stroke-width="0.283" fill="none" /><path id="955" transform="matrix(1 0 0 -1 0 841)" d="M85.181 388.016L85.181 405.63" stroke="#000000" stroke-width="0.283" fill="none" /><path id="963" transform="matrix(1 0 0 -1 0 841)" d="M149.284 388.016L149.284 405.63" stroke="#000000" stroke-width="0.283" fill="none" /><path id="967" transform="matrix(1 0 0 -1 0 841)" d="M194.864 388.016L194.864 405.63" stroke="#000000" stroke-width="0.283" fill="none" /><path id="971" transform="matrix(1 0 0 -1 0 841)" d="M273.815 388.016L273.815 405.63" stroke="#000000" stroke-width="0.283" fill="none" /><path id="976" transform="matrix(1 0 0 -1 0 841)" d="M336.413 388.016L336.413 405.63" stroke="#000000" stroke-width="0.283" fill="none" /><path id="982" transform="matrix(1 0 0 -1 0 841)" d="M392.749 388.016L392.749 405.63" stroke="#000000" stroke-width="0.283" fill="none" /><path id="983" transform="matrix(1 0 0 -1 0 841)" d="M85.039 387.874L392.89 387.874" stroke="#000000" stroke-width="0.283" fill="none" /><path id="984" transform="matrix(1 0 0 -1 0 841)" d="M85.181 370.119L85.181 387.733" stroke="#000000" stroke-width="0.283" fill="none" /><path id="993" transform="matrix(1 0 0 -1 0 841)" d="M149.284 370.119L149.284 387.733" stroke="#000000" stroke-width="0.283" fill="none" /><path id="997" transform="matrix(1 0 0 -1 0 841)" d="M194.864 370.119L194.864 387.733" stroke="#000000" stroke-width="0.283" fill="none" /><path id="1003" transform="matrix(1 0 0 -1 0 841)" d="M273.815 370.119L273.815 387.733" stroke="#000000" stroke-width="0.283" fill="none" /><path id="1008" transform="matrix(1 0 0 -1 0 841)" d="M336.413 370.119L336.413 387.733" stroke="#000000" stroke-width="0.283" fill="none" /><path id="1013" transform="matrix(1 0 0 -1 0 841)" d="M392.749 370.119L392.749 387.733" stroke="#000000" stroke-width="0.283" fill="none" /><path id="1014" transform="matrix(1 0 0 -1 0 841)" d="M85.039 369.977L392.89 369.977" stroke="#000000" stroke-width="0.283" fill="none" /><path id="1015" transform="matrix(1 0 0 -1 0 841)" d="M85.181 352.221L85.181 369.835" stroke="#000000" stroke-width="0.283" fill="none" /><path id="1023" transform="matrix(1 0 0 -1 0 841)" d="M149.284 352.221L149.284 369.835" stroke="#000000" stroke-width="0.283" fill="none" /><path id="1027" transform="matrix(1 0 0 -1 0 841)" d="M194.864 352.221L194.864 369.835" stroke="#000000" stroke-width="0.283" fill="none" /><path id="1037" transform="matrix(1 0 0 -1 0 841)" d="M273.815 352.221L273.815 369.835" stroke="#000000" stroke-width="0.283" fill="none" /><path id="1039" transform="matrix(1 0 0 -1 0 841)" d="M336.413 352.221L336.413 369.835" stroke="#000000" stroke-width="0.283" fill="none" /><path id="1044" transform="matrix(1 0 0 -1 0 841)" d="M392.749 352.221L392.749 369.835" stroke="#000000" stroke-width="0.283" fill="none" /><path id="1045" transform="matrix(1 0 0 -1 0 841)" d="M85.039 352.08L392.89 352.08" stroke="#000000" stroke-width="0.283" fill="none" /><path id="1046" transform="matrix(1 0 0 -1 0 841)" d="M85.181 334.324L85.181 351.938" stroke="#000000" stroke-width="0.283" fill="none" /><path id="1054" transform="matrix(1 0 0 -1 0 841)" d="M149.284 334.324L149.284 351.938" stroke="#000000" stroke-width="0.283" fill="none" /><path id="1058" transform="matrix(1 0 0 -1 0 841)" d="M194.864 334.324L194.864 351.938" stroke="#000000" stroke-width="0.283" fill="none" /><path id="1072" transform="matrix(1 0 0 -1 0 841)" d="M273.815 334.324L273.815 351.938" stroke="#000000" stroke-width="0.283" fill="none" /><path id="1074" transform="matrix(1 0 0 -1 0 841)" d="M336.413 334.324L336.413 351.938" stroke="#000000" stroke-width="0.283" fill="none" /><path id="1079" transform="matrix(1 0 0 -1 0 841)" d="M392.749 334.324L392.749 351.938" stroke="#000000" stroke-width="0.283" fill="none" /><path id="1080" transform="matrix(1 0 0 -1 0 841)" d="M85.039 334.182L392.89 334.182" stroke="#000000" stroke-width="0.283" fill="none" /><path id="1081" transform="matrix(1 0 0 -1 0 841)" d="M85.181 316.427L85.181 334.041" stroke="#000000" stroke-width="0.283" fill="none" /><path id="1087" transform="matrix(1 0 0 -1 0 841)" d="M149.284 316.427L149.284 334.041" stroke="#000000" stroke-width="0.283" fill="none" /><path id="1092" transform="matrix(1 0 0 -1 0 841)" d="M194.864 316.427L194.864 334.041" stroke="#000000" stroke-width="0.283" fill="none" /><path id="1096" transform="matrix(1 0 0 -1 0 841)" d="M273.815 316.427L273.815 334.041" stroke="#000000" stroke-width="0.283" fill="none" /><path id="1098" transform="matrix(1 0 0 -1 0 841)" d="M336.413 316.427L336.413 334.041" stroke="#000000" stroke-width="0.283" fill="none" /><path id="1103" transform="matrix(1 0 0 -1 0 841)" d="M392.749 316.427L392.749 334.041" stroke="#000000" stroke-width="0.283" fill="none" /><path id="1104" transform="matrix(1 0 0 -1 0 841)" d="M85.039 316.285L392.89 316.285" stroke="#000000" stroke-width="0.283" fill="none" /><path id="1105" transform="matrix(1 0 0 -1 0 841)" d="M85.181 298.529L85.181 316.143" stroke="#000000" stroke-width="0.283" fill="none" /><path id="1115" transform="matrix(1 0 0 -1 0 841)" d="M149.284 298.529L149.284 316.143" stroke="#000000" stroke-width="0.283" fill="none" /><path id="1120" transform="matrix(1 0 0 -1 0 841)" d="M194.864 298.529L194.864 316.143" stroke="#000000" stroke-width="0.283" fill="none" /><path id="1125" transform="matrix(1 0 0 -1 0 841)" d="M273.815 298.529L273.815 316.143" stroke="#000000" stroke-width="0.283" fill="none" /><path id="1127" transform="matrix(1 0 0 -1 0 841)" d="M336.413 298.529L336.413 316.143" stroke="#000000" stroke-width="0.283" fill="none" /><path id="1133" transform="matrix(1 0 0 -1 0 841)" d="M392.749 298.529L392.749 316.143" stroke="#000000" stroke-width="0.283" fill="none" /><path id="1134" transform="matrix(1 0 0 -1 0 841)" d="M85.039 298.387L392.89 298.387" stroke="#000000" stroke-width="0.283" fill="none" /><path id="1135" transform="matrix(1 0 0 -1 0 841)" d="M85.181 280.632L85.181 298.246" stroke="#000000" stroke-width="0.283" fill="none" /><path id="1146" transform="matrix(1 0 0 -1 0 841)" d="M149.284 280.632L149.284 298.246" stroke="#000000" stroke-width="0.283" fill="none" /><path id="1151" transform="matrix(1 0 0 -1 0 841)" d="M194.864 280.632L194.864 298.246" stroke="#000000" stroke-width="0.283" fill="none" /><path id="1157" transform="matrix(1 0 0 -1 0 841)" d="M273.815 280.632L273.815 298.246" stroke="#000000" stroke-width="0.283" fill="none" /><path id="1159" transform="matrix(1 0 0 -1 0 841)" d="M336.413 280.632L336.413 298.246" stroke="#000000" stroke-width="0.283" fill="none" /><path id="1165" transform="matrix(1 0 0 -1 0 841)" d="M392.749 280.632L392.749 298.246" stroke="#000000" stroke-width="0.283" fill="none" /><path id="1166" transform="matrix(1 0 0 -1 0 841)" d="M85.039 280.49L392.89 280.49" stroke="#000000" stroke-width="0.283" fill="none" /><path id="1167" transform="matrix(1 0 0 -1 0 841)" d="M85.181 262.734L85.181 280.348" stroke="#000000" stroke-width="0.283" fill="none" /><path id="1177" transform="matrix(1 0 0 -1 0 841)" d="M149.284 262.734L149.284 280.348" stroke="#000000" stroke-width="0.283" fill="none" /><path id="1182" transform="matrix(1 0 0 -1 0 841)" d="M194.864 262.734L194.864 280.348" stroke="#000000" stroke-width="0.283" fill="none" /><path id="1191" transform="matrix(1 0 0 -1 0 841)" d="M273.815 262.734L273.815 280.348" stroke="#000000" stroke-width="0.283" fill="none" /><path id="1193" transform="matrix(1 0 0 -1 0 841)" d="M336.413 262.734L336.413 280.348" stroke="#000000" stroke-width="0.283" fill="none" /><path id="1199" transform="matrix(1 0 0 -1 0 841)" d="M392.749 262.734L392.749 280.348" stroke="#000000" stroke-width="0.283" fill="none" /><path id="1200" transform="matrix(1 0 0 -1 0 841)" d="M85.039 262.593L392.89 262.593" stroke="#000000" stroke-width="0.283" fill="none" /><path id="1201" transform="matrix(1 0 0 -1 0 841)" d="M85.181 244.837L85.181 262.451" stroke="#000000" stroke-width="0.283" fill="none" /><path id="1211" transform="matrix(1 0 0 -1 0 841)" d="M149.284 244.837L149.284 262.451" stroke="#000000" stroke-width="0.283" fill="none" /><path id="1216" transform="matrix(1 0 0 -1 0 841)" d="M194.864 244.837L194.864 262.451" stroke="#000000" stroke-width="0.283" fill="none" /><path id="1228" transform="matrix(1 0 0 -1 0 841)" d="M273.815 244.837L273.815 262.451" stroke="#000000" stroke-width="0.283" fill="none" /><path id="1230" transform="matrix(1 0 0 -1 0 841)" d="M336.413 244.837L336.413 262.451" stroke="#000000" stroke-width="0.283" fill="none" /><path id="1235" transform="matrix(1 0 0 -1 0 841)" d="M392.749 244.837L392.749 262.451" stroke="#000000" stroke-width="0.283" fill="none" /><path id="1236" transform="matrix(1 0 0 -1 0 841)" d="M85.039 244.695L392.89 244.695" stroke="#000000" stroke-width="0.283" fill="none" /><g transform="matrix(0.2 0 0 0.2 249.239 774.845)"><g transform="matrix(1 0 0 1 0 0)"><image x="0" y="0" xlink:href="img_04.png" width="484" height="104" /></g></g></g></g></svg>