<svg xmlns="http://www.w3.org/2000/svg" xmlns:xlink="http://www.w3.org/1999/xlink" id="body_159" preserveAspectRatio="xMinYMin meet" viewBox="0 0 793 1121"><defs><clipPath id="1"><path id="" clip-rule="evenodd" transform="matrix(1 0 0 1 0 0)" d="M0 841L0 -0.8900146L0 -0.8900146L595.276 -0.8900146L595.276 -0.8900146L595.276 841L595.276 841L0 841z" /></clipPath></defs><g transform="matrix(1.333333 0 0 1.333333 0 0)"><g clip-path="url(#1)"><path id="29" transform="matrix(1 0 0 -1 0 841)" d="M85.039 766.564L510.236 766.564" stroke="#000000" stroke-width="0.498" fill="none" /><path id="409" transform="matrix(1 0 0 -1 0 841)" d="M152.282 334.212L152.282 629.0189C 152.282 631.3672 154.1856 633.2709 156.534 633.2709L156.534 633.2709L438.7453 633.2709C 441.0937 633.2709 442.9973 631.3672 442.9973 629.0189L442.9973 629.0189L442.9973 334.212C 442.9973 331.8636 441.0937 329.96 438.7453 329.96L438.7453 329.96L156.534 329.96C 154.1856 329.96 152.282 331.8636 152.282 334.212z" stroke="none" fill="#404040" fill-rule="nonzero" /><path id="410" transform="matrix(1 0 0 -1 0 841)" d="M153.6993 334.212L153.6993 629.0189C 153.6993 630.5845 154.9684 631.8536 156.534 631.8536L156.534 631.8536L438.7453 631.8536C 440.3109 631.8536 441.58 630.5845 441.58 629.0189L441.58 629.0189L441.58 334.212C 441.58 332.6464 440.3109 331.3773 438.7453 331.3773L438.7453 331.3773L156.534 331.3773C 154.9684 331.3773 153.6993 332.6464 153.6993 334.212z" stroke="none" fill="#F2F2F2" fill-rule="nonzero" /><g transform="matrix(0.74793 0 0 0.74793 167.873 217.6536)"><g transform="matrix(1 0 0 1 0 0)"><image x="0" y="0" xlink:href="img_240.png" width="347" height="379" /></g></g><g transform="matrix(0.2 0 0 0.2 249.239 774.845)"><g transform="matrix(1 0 0 1 0 0)"><image x="0" y="0" xlink:href="img_04.png" width="484" height="104" /></g></g></g></g></svg>