<svg xmlns="http://www.w3.org/2000/svg" xmlns:xlink="http://www.w3.org/1999/xlink" id="body_90" preserveAspectRatio="xMinYMin meet" viewBox="0 0 793 1121"><defs><clipPath id="1"><path id="" clip-rule="evenodd" transform="matrix(1 0 0 1 0 0)" d="M0 841L0 -0.8900146L0 -0.8900146L595.276 -0.8900146L595.276 -0.8900146L595.276 841L595.276 841L0 841z" /></clipPath></defs><g transform="matrix(1.333333 0 0 1.333333 0 0)"><g clip-path="url(#1)"><path id="29" transform="matrix(1 0 0 -1 0 841)" d="M85.039 766.564L510.236 766.564" stroke="#000000" stroke-width="0.498" fill="none" /><g transform="matrix(0.2945454 0 0 0.2945455 149.483 84.14764)"><g transform="matrix(1 0 0 1 0 0)"><image x="0" y="0" xlink:href="img_136.png" width="1006" height="657" /></g></g><g transform="matrix(0.075 0 0 0.075 273.899 295.763)"><g transform="matrix(1 0 0 1 0 0)"><image x="0" y="0" xlink:href="img_137.png" width="633" height="503" /></g></g><g transform="matrix(0.36 0 0 0.36 135.997 334.486)"><g transform="matrix(1 0 0 1 0 0)"><image x="0" y="0" xlink:href="img_138.png" width="898" height="420" /></g></g><g transform="matrix(0.075 0 0 0.075 273.899 501.728)"><g transform="matrix(1 0 0 1 0 0)"><image x="0" y="0" xlink:href="img_137.png" width="633" height="503" /></g></g><g transform="matrix(0.5 0 0 0.5 121.388 540.449)"><g transform="matrix(1 0 0 1 0 0)"><image x="0" y="0" xlink:href="img_139.png" width="705" height="368" /></g></g><g transform="matrix(0.2 0 0 0.2 249.239 774.846)"><g transform="matrix(1 0 0 1 0 0)"><image x="0" y="0" xlink:href="img_04.png" width="484" height="104" /></g></g></g></g></svg>