<svg xmlns="http://www.w3.org/2000/svg" xmlns:xlink="http://www.w3.org/1999/xlink" id="body_75" preserveAspectRatio="xMinYMin meet" viewBox="0 0 793 1121"><defs><clipPath id="1"><path id="" clip-rule="evenodd" transform="matrix(1 0 0 1 0 0)" d="M0 841L0 -0.8900146L0 -0.8900146L595.276 -0.8900146L595.276 -0.8900146L595.276 841L595.276 841L0 841z" /></clipPath></defs><g transform="matrix(1.333333 0 0 1.333333 0 0)"><g clip-path="url(#1)"><path id="43" transform="matrix(1 0 0 -1 0 841)" d="M85.039 766.564L510.236 766.564" stroke="#000000" stroke-width="0.498" fill="none" /><path id="1043" transform="matrix(1 0 0 -1 0 841)" d="M441.195 425.071L450.948 425.071L450.948 436.279L441.195 436.279z" stroke="none" fill="#FFF100" fill-rule="nonzero" /><path id="1046" transform="matrix(1 0 0 -1 0 841)" d="M450.638 425.071L463.31 425.071L463.31 436.279L450.638 436.279z" stroke="none" fill="#FFF100" fill-rule="nonzero" /><path id="1050" transform="matrix(1 0 0 -1 0 841)" d="M463.056 425.071L474.074 425.071L474.074 436.279L463.056 436.279z" stroke="none" fill="#FFF100" fill-rule="nonzero" /><path id="1054" transform="matrix(1 0 0 -1 0 841)" d="M474.036 425.071L476.537 425.071L476.537 436.279L474.036 436.279z" stroke="none" fill="#FFF100" fill-rule="nonzero" /><path id="1055" transform="matrix(1 0 0 -1 0 841)" d="M476.288 425.071L485.085 425.071L485.085 436.279L476.288 436.279z" stroke="none" fill="#FFF100" fill-rule="nonzero" /><path id="1058" transform="matrix(1 0 0 -1 0 841)" d="M485.002 425.071L487.503 425.071L487.503 436.279L485.002 436.279z" stroke="none" fill="#FFF100" fill-rule="nonzero" /><path id="1059" transform="matrix(1 0 0 -1 0 841)" d="M487.254 425.071L509.889 425.071L509.889 436.279L487.254 436.279z" stroke="none" fill="#FFF100" fill-rule="nonzero" /><path id="1065" transform="matrix(1 0 0 -1 0 841)" d="M136.063 410.127L141.542 410.127L141.542 421.335L136.063 421.335z" stroke="none" fill="#FFF100" fill-rule="nonzero" /><path id="1067" transform="matrix(1 0 0 -1 0 841)" d="M141.393 410.127L144.457 410.127L144.457 421.335L141.393 421.335z" stroke="none" fill="#FFF100" fill-rule="nonzero" /><path id="1068" transform="matrix(1 0 0 -1 0 841)" d="M144.209 410.127L159.641 410.127L159.641 421.335L144.209 421.335z" stroke="none" fill="#FFF100" fill-rule="nonzero" /><path id="1073" transform="matrix(1 0 0 -1 0 841)" d="M159.69 410.127L162.754 410.127L162.754 421.335L159.69 421.335z" stroke="none" fill="#FFF100" fill-rule="nonzero" /><path id="1074" transform="matrix(1 0 0 -1 0 841)" d="M162.505 410.127L175.725 410.127L175.725 421.335L162.505 421.335z" stroke="none" fill="#FFF100" fill-rule="nonzero" /><path id="1078" transform="matrix(1 0 0 -1 0 841)" d="M175.731 410.127L178.795 410.127L178.795 421.335L175.731 421.335z" stroke="none" fill="#FFF100" fill-rule="nonzero" /><path id="1079" transform="matrix(1 0 0 -1 0 841)" d="M178.547 410.127L191.767 410.127L191.767 421.335L178.547 421.335z" stroke="none" fill="#FFF100" fill-rule="nonzero" /><path id="1083" transform="matrix(1 0 0 -1 0 841)" d="M191.523 410.127L206.965 410.127L206.965 421.335L191.523 421.335z" stroke="none" fill="#FFF100" fill-rule="nonzero" /><path id="1087" transform="matrix(1 0 0 -1 0 841)" d="M207.015 410.127L210.079 410.127L210.079 421.335L207.015 421.335z" stroke="none" fill="#FFF100" fill-rule="nonzero" /><path id="1088" transform="matrix(1 0 0 -1 0 841)" d="M209.83 410.127L229.137 410.127L229.137 421.335L209.83 421.335z" stroke="none" fill="#FFF100" fill-rule="nonzero" /><g transform="matrix(0.1738575 0 0 0.1738575 87.98 576.6062)"><g transform="matrix(1 0 0 1 0 0)"><image x="0" y="0" xlink:href="img_113.png" width="900" height="675" /></g></g><g transform="matrix(0.2220355 0 0 0.2220354 294.697 576.9473)"><g transform="matrix(1 0 0 1 0 0)"><image x="0" y="0" xlink:href="img_114.png" width="766" height="527" /></g></g><g transform="matrix(0.2 0 0 0.2 249.239 774.845)"><g transform="matrix(1 0 0 1 0 0)"><image x="0" y="0" xlink:href="img_04.png" width="484" height="104" /></g></g></g></g></svg>