<svg xmlns="http://www.w3.org/2000/svg" xmlns:xlink="http://www.w3.org/1999/xlink" id="body_377" preserveAspectRatio="xMinYMin meet" viewBox="0 0 793 1121"><defs><clipPath id="1"><path id="" clip-rule="evenodd" transform="matrix(1 0 0 1 0 0)" d="M0 841L0 -0.8900146L0 -0.8900146L595.276 -0.8900146L595.276 -0.8900146L595.276 841L595.276 841L0 841z" /></clipPath></defs><g transform="matrix(1.333333 0 0 1.333333 0 0)"><g clip-path="url(#1)"><path id="23" transform="matrix(1 0 0 -1 0 841)" d="M85.039 766.564L510.236 766.564" stroke="#000000" stroke-width="0.498" fill="none" /><path id="177" transform="matrix(1 0 0 -1 0 841)" d="M212.43 703.55L243.035 703.55" stroke="#000000" stroke-width="0.398" fill="none" /><path id="196" transform="matrix(1 0 0 -1 0 841)" d="M257.594 703.55L402.603 703.55" stroke="#000000" stroke-width="0.398" fill="none" /><path id="207" transform="matrix(1 0 0 -1 0 841)" d="M293.408 689.354L308.312 689.354" stroke="#000000" stroke-width="0.398" fill="none" /><path id="215" transform="matrix(1 0 0 -1 0 841)" d="M318.451 689.354L349.395 689.354" stroke="#000000" stroke-width="0.398" fill="none" /><path id="231" transform="matrix(1 0 0 -1 0 841)" d="M359.535 689.354L401.409 689.354" stroke="#000000" stroke-width="0.398" fill="none" /><path id="248" transform="matrix(1 0 0 -1 0 841)" d="M415.968 711.107L456.466 711.107" stroke="#000000" stroke-width="0.398" fill="none" /><path id="249" transform="matrix(1 0 0 -1 0 841)" d="M416.167 695.839L416.167 711.107" stroke="#000000" stroke-width="0.398" fill="none" /><path id="250" transform="matrix(1 0 0 -1 0 841)" d="M456.266 695.839L456.266 711.107" stroke="#000000" stroke-width="0.398" fill="none" /><path id="251" transform="matrix(1 0 0 -1 0 841)" d="M415.968 695.839L456.466 695.839" stroke="#000000" stroke-width="0.398" fill="none" /><path id="403" transform="matrix(1 0 0 -1 0 841)" d="M212.43 627.854L243.035 627.854" stroke="#000000" stroke-width="0.398" fill="none" /><path id="423" transform="matrix(1 0 0 -1 0 841)" d="M257.594 627.854L355.675 627.854" stroke="#000000" stroke-width="0.398" fill="none" /><path id="433" transform="matrix(1 0 0 -1 0 841)" d="M287.563 613.658L302.467 613.658" stroke="#000000" stroke-width="0.398" fill="none" /><path id="445" transform="matrix(1 0 0 -1 0 841)" d="M312.606 613.658L354.48 613.658" stroke="#000000" stroke-width="0.398" fill="none" /><path id="462" transform="matrix(1 0 0 -1 0 841)" d="M369.04 635.411L409.538 635.411" stroke="#000000" stroke-width="0.398" fill="none" /><path id="463" transform="matrix(1 0 0 -1 0 841)" d="M369.239 620.143L369.239 635.411" stroke="#000000" stroke-width="0.398" fill="none" /><path id="464" transform="matrix(1 0 0 -1 0 841)" d="M409.338 620.143L409.338 635.411" stroke="#000000" stroke-width="0.398" fill="none" /><path id="465" transform="matrix(1 0 0 -1 0 841)" d="M369.04 620.143L409.538 620.143" stroke="#000000" stroke-width="0.398" fill="none" /><path id="1258" transform="matrix(1 0 0 -1 0 841)" d="M247.314 278.132L262.218 278.132" stroke="#000000" stroke-width="0.398" fill="none" /><path id="1268" transform="matrix(1 0 0 -1 0 841)" d="M281.479 278.132L303.307 278.132" stroke="#000000" stroke-width="0.398" fill="none" /><path id="1287" transform="matrix(1 0 0 -1 0 841)" d="M372.181 290.883L387.085 290.883" stroke="#000000" stroke-width="0.398" fill="none" /><path id="1295" transform="matrix(1 0 0 -1 0 841)" d="M397.224 290.883L428.168 290.883" stroke="#000000" stroke-width="0.398" fill="none" /><path id="1303" transform="matrix(1 0 0 -1 0 841)" d="M328.383 278.132L429.363 278.132" stroke="#000000" stroke-width="0.398" fill="none" /><path id="1316" transform="matrix(1 0 0 -1 0 841)" d="M351.022 263.935L406.725 263.935" stroke="#000000" stroke-width="0.398" fill="none" /><path id="1326" transform="matrix(1 0 0 -1 0 841)" d="M448.359 278.132L457.275 278.132" stroke="#000000" stroke-width="0.398" fill="none" /><path id="1336" transform="matrix(1 0 0 -1 0 841)" d="M491.818 278.132L506.722 278.132" stroke="#000000" stroke-width="0.398" fill="none" /><path id="1340" transform="matrix(1 0 0 -1 0 841)" d="M469.532 292.039L511.305 292.039" stroke="#000000" stroke-width="0.398" fill="none" /><path id="1341" transform="matrix(1 0 0 -1 0 841)" d="M469.731 263.586L469.731 292.039" stroke="#000000" stroke-width="0.398" fill="none" /><path id="1342" transform="matrix(1 0 0 -1 0 841)" d="M511.106 263.586L511.106 292.039" stroke="#000000" stroke-width="0.398" fill="none" /><path id="1343" transform="matrix(1 0 0 -1 0 841)" d="M469.532 263.586L511.305 263.586" stroke="#000000" stroke-width="0.398" fill="none" /><path id="1344" transform="matrix(1 0 0 -1 0 841)" d="M112.063 231.117L134.698 231.117L134.698 242.325L112.063 242.325z" stroke="none" fill="#FFF100" fill-rule="nonzero" /><path id="1350" transform="matrix(1 0 0 -1 0 841)" d="M134.006 231.117L136.425 231.117L136.425 242.325L134.006 242.325z" stroke="none" fill="#FFF100" fill-rule="nonzero" /><path id="1351" transform="matrix(1 0 0 -1 0 841)" d="M136.176 231.117L152.166 231.117L152.166 242.325L136.176 242.325z" stroke="none" fill="#FFF100" fill-rule="nonzero" /><path id="1355" transform="matrix(1 0 0 -1 0 841)" d="M151.607 231.117L154.026 231.117L154.026 242.325L151.607 242.325z" stroke="none" fill="#FFF100" fill-rule="nonzero" /><path id="1356" transform="matrix(1 0 0 -1 0 841)" d="M153.777 231.117L170.863 231.117L170.863 242.325L153.777 242.325z" stroke="none" fill="#FFF100" fill-rule="nonzero" /><path id="1361" transform="matrix(1 0 0 -1 0 841)" d="M170.282 231.117L172.701 231.117L172.701 242.325L170.282 242.325z" stroke="none" fill="#FFF100" fill-rule="nonzero" /><path id="1362" transform="matrix(1 0 0 -1 0 841)" d="M172.451 231.117L181.248 231.117L181.248 242.325L172.451 242.325z" stroke="none" fill="#FFF100" fill-rule="nonzero" /><path id="1365" transform="matrix(1 0 0 -1 0 841)" d="M180.833 231.117L183.252 231.117L183.252 242.325L180.833 242.325z" stroke="none" fill="#FFF100" fill-rule="nonzero" /><path id="1366" transform="matrix(1 0 0 -1 0 841)" d="M183.003 231.117L195.675 231.117L195.675 242.325L183.003 242.325z" stroke="none" fill="#FFF100" fill-rule="nonzero" /><path id="1370" transform="matrix(1 0 0 -1 0 841)" d="M195.183 231.117L197.602 231.117L197.602 242.325L195.183 242.325z" stroke="none" fill="#FFF100" fill-rule="nonzero" /><path id="1371" transform="matrix(1 0 0 -1 0 841)" d="M197.353 231.117L217.776 231.117L217.776 242.325L197.353 242.325z" stroke="none" fill="#FFF100" fill-rule="nonzero" /><path id="1376" transform="matrix(1 0 0 -1 0 841)" d="M217.129 231.117L219.548 231.117L219.548 242.325L217.129 242.325z" stroke="none" fill="#FFF100" fill-rule="nonzero" /><path id="1377" transform="matrix(1 0 0 -1 0 841)" d="M219.298 231.117L235.188 231.117L235.188 242.325L219.298 242.325z" stroke="none" fill="#FFF100" fill-rule="nonzero" /><path id="1381" transform="matrix(1 0 0 -1 0 841)" d="M234.63 231.117L237.049 231.117L237.049 242.325L234.63 242.325z" stroke="none" fill="#FFF100" fill-rule="nonzero" /><path id="1382" transform="matrix(1 0 0 -1 0 841)" d="M236.799 231.117L260.54 231.117L260.54 242.325L236.799 242.325z" stroke="none" fill="#FFF100" fill-rule="nonzero" /><path id="1388" transform="matrix(1 0 0 -1 0 841)" d="M259.826 231.117L262.245 231.117L262.245 242.325L259.826 242.325z" stroke="none" fill="#FFF100" fill-rule="nonzero" /><path id="1389" transform="matrix(1 0 0 -1 0 841)" d="M261.996 231.117L272.457 231.117L272.457 242.325L261.996 242.325z" stroke="none" fill="#FFF100" fill-rule="nonzero" /><path id="1392" transform="matrix(1 0 0 -1 0 841)" d="M272.009 231.117L274.428 231.117L274.428 242.325L272.009 242.325z" stroke="none" fill="#FFF100" fill-rule="nonzero" /><path id="1393" transform="matrix(1 0 0 -1 0 841)" d="M274.178 231.117L282.178 231.117L282.178 242.325L274.178 242.325z" stroke="none" fill="#FFF100" fill-rule="nonzero" /><path id="1396" transform="matrix(1 0 0 -1 0 841)" d="M281.525 231.117L294.755 231.117L294.755 242.325L281.525 242.325z" stroke="none" fill="#FFF100" fill-rule="nonzero" /><path id="1400" transform="matrix(1 0 0 -1 0 841)" d="M294.003 231.117L307.233 231.117L307.233 242.325L294.003 242.325z" stroke="none" fill="#FFF100" fill-rule="nonzero" /><path id="1404" transform="matrix(1 0 0 -1 0 841)" d="M306.729 231.117L309.148 231.117L309.148 242.325L306.729 242.325z" stroke="none" fill="#FFF100" fill-rule="nonzero" /><path id="1405" transform="matrix(1 0 0 -1 0 841)" d="M308.899 231.117L321.571 231.117L321.571 242.325L308.899 242.325z" stroke="none" fill="#FFF100" fill-rule="nonzero" /><path id="1409" transform="matrix(1 0 0 -1 0 841)" d="M321.079 231.117L323.498 231.117L323.498 242.325L321.079 242.325z" stroke="none" fill="#FFF100" fill-rule="nonzero" /><path id="1410" transform="matrix(1 0 0 -1 0 841)" d="M323.249 231.117L336.28 231.117L336.28 242.325L323.249 242.325z" stroke="none" fill="#FFF100" fill-rule="nonzero" /><path id="1414" transform="matrix(1 0 0 -1 0 841)" d="M335.527 231.117L353.181 231.117L353.181 242.325L335.527 242.325z" stroke="none" fill="#FFF100" fill-rule="nonzero" /><path id="1418" transform="matrix(1 0 0 -1 0 841)" d="M352.588 231.117L355.007 231.117L355.007 242.325L352.588 242.325z" stroke="none" fill="#FFF100" fill-rule="nonzero" /><path id="1419" transform="matrix(1 0 0 -1 0 841)" d="M354.758 231.117L414.842 231.117L414.842 242.325L354.758 242.325z" stroke="none" fill="#FFF100" fill-rule="nonzero" /><path id="1434" transform="matrix(1 0 0 -1 0 841)" d="M413.664 231.117L416.083 231.117L416.083 242.325L413.664 242.325z" stroke="none" fill="#FFF100" fill-rule="nonzero" /><path id="1435" transform="matrix(1 0 0 -1 0 841)" d="M415.833 231.117L426.294 231.117L426.294 242.325L415.833 242.325z" stroke="none" fill="#FFF100" fill-rule="nonzero" /><path id="1438" transform="matrix(1 0 0 -1 0 841)" d="M425.846 231.117L428.265 231.117L428.265 242.325L425.846 242.325z" stroke="none" fill="#FFF100" fill-rule="nonzero" /><path id="1439" transform="matrix(1 0 0 -1 0 841)" d="M428.016 231.117L440.688 231.117L440.688 242.325L428.016 242.325z" stroke="none" fill="#FFF100" fill-rule="nonzero" /><path id="1443" transform="matrix(1 0 0 -1 0 841)" d="M440.195 231.117L442.614 231.117L442.614 242.325L440.195 242.325z" stroke="none" fill="#FFF100" fill-rule="nonzero" /><path id="1444" transform="matrix(1 0 0 -1 0 841)" d="M442.365 231.117L462.788 231.117L462.788 242.325L442.365 242.325z" stroke="none" fill="#FFF100" fill-rule="nonzero" /><path id="1449" transform="matrix(1 0 0 -1 0 841)" d="M462.141 231.117L464.56 231.117L464.56 242.325L462.141 242.325z" stroke="none" fill="#FFF100" fill-rule="nonzero" /><path id="1450" transform="matrix(1 0 0 -1 0 841)" d="M464.311 231.117L486.946 231.117L486.946 242.325L464.311 242.325z" stroke="none" fill="#FFF100" fill-rule="nonzero" /><path id="1456" transform="matrix(1 0 0 -1 0 841)" d="M486.254 231.117L488.673 231.117L488.673 242.325L486.254 242.325z" stroke="none" fill="#FFF100" fill-rule="nonzero" /><path id="1457" transform="matrix(1 0 0 -1 0 841)" d="M488.424 231.117L511.607 231.117L511.607 242.325L488.424 242.325z" stroke="none" fill="#FFF100" fill-rule="nonzero" /><g transform="matrix(0.2 0 0 0.2 249.239 774.845)"><g transform="matrix(1 0 0 1 0 0)"><image x="0" y="0" xlink:href="img_04.png" width="484" height="104" /></g></g></g></g></svg>