<svg xmlns="http://www.w3.org/2000/svg" xmlns:xlink="http://www.w3.org/1999/xlink" id="body_327" preserveAspectRatio="xMinYMin meet" viewBox="0 0 793 1121"><defs><clipPath id="1"><path id="" clip-rule="evenodd" transform="matrix(1 0 0 1 0 0)" d="M0 841L0 -0.8900146L0 -0.8900146L595.276 -0.8900146L595.276 -0.8900146L595.276 841L595.276 841L0 841z" /></clipPath></defs><g transform="matrix(1.333333 0 0 1.333333 0 0)"><g clip-path="url(#1)"><path id="23" transform="matrix(1 0 0 -1 0 841)" d="M85.039 766.564L510.236 766.564" stroke="#000000" stroke-width="0.498" fill="none" /><path id="951" transform="matrix(1 0 0 -1 0 841)" d="M350.07 495.348L391.664 495.348" stroke="#000000" stroke-width="0.398" fill="none" /><path id="952" transform="matrix(1 0 0 -1 0 841)" d="M350.27 481.893L350.27 495.347" stroke="#000000" stroke-width="0.398" fill="none" /><path id="953" transform="matrix(1 0 0 -1 0 841)" d="M391.465 481.893L391.465 495.347" stroke="#000000" stroke-width="0.398" fill="none" /><path id="954" transform="matrix(1 0 0 -1 0 841)" d="M350.07 481.893L391.664 481.893" stroke="#000000" stroke-width="0.398" fill="none" /><path id="1068" transform="matrix(1 0 0 -1 0 841)" d="M112.312 348.432L180.755 348.432L180.755 361.264L112.312 361.264z" stroke="none" fill="#BFFF00" fill-rule="nonzero" /><path id="1324" transform="matrix(1 0 0 -1 0 841)" d="M313.578 294.235L470.736 294.235" stroke="#000000" stroke-width="0.398" fill="none" /><g transform="matrix(0.2 0 0 0.2 249.239 774.845)"><g transform="matrix(1 0 0 1 0 0)"><image x="0" y="0" xlink:href="img_04.png" width="484" height="104" /></g></g></g></g></svg>