<svg xmlns="http://www.w3.org/2000/svg" xmlns:xlink="http://www.w3.org/1999/xlink" id="body_290" preserveAspectRatio="xMinYMin meet" viewBox="0 0 793 1121"><defs><clipPath id="1"><path id="" clip-rule="evenodd" transform="matrix(1 0 0 1 0 0)" d="M0 841L0 -0.8900146L0 -0.8900146L595.276 -0.8900146L595.276 -0.8900146L595.276 841L595.276 841L0 841z" /></clipPath></defs><g transform="matrix(1.333333 0 0 1.333333 0 0)"><g clip-path="url(#1)"><path id="51" transform="matrix(1 0 0 -1 0 841)" d="M85.039 766.564L510.236 766.564" stroke="#000000" stroke-width="0.498" fill="none" /><path id="99" transform="matrix(1 0 0 -1 0 841)" d="M85.039 737.501L559.19 737.501" stroke="#000000" stroke-width="0.283" fill="none" /><path id="100" transform="matrix(1 0 0 -1 0 841)" d="M85.181 717.933L85.181 737.36" stroke="#000000" stroke-width="0.283" fill="none" /><path id="108" transform="matrix(1 0 0 -1 0 841)" d="M214.791 717.933L214.791 737.36" stroke="#000000" stroke-width="0.283" fill="none" /><path id="115" transform="matrix(1 0 0 -1 0 841)" d="M358.573 717.933L358.573 737.36" stroke="#000000" stroke-width="0.283" fill="none" /><path id="134" transform="matrix(1 0 0 -1 0 841)" d="M559.049 717.933L559.049 737.36" stroke="#000000" stroke-width="0.283" fill="none" /><path id="135" transform="matrix(1 0 0 -1 0 841)" d="M85.039 717.791L559.19 717.791" stroke="#000000" stroke-width="0.283" fill="none" /><path id="136" transform="matrix(1 0 0 -1 0 841)" d="M85.181 638.446L85.181 717.649" stroke="#000000" stroke-width="0.283" fill="none" /><path id="148" transform="matrix(1 0 0 -1 0 841)" d="M214.791 638.446L214.791 717.649" stroke="#000000" stroke-width="0.283" fill="none" /><path id="160" transform="matrix(1 0 0 -1 0 841)" d="M358.573 638.446L358.573 717.649" stroke="#000000" stroke-width="0.283" fill="none" /><path id="295" transform="matrix(1 0 0 -1 0 841)" d="M559.049 638.446L559.049 717.649" stroke="#000000" stroke-width="0.283" fill="none" /><path id="296" transform="matrix(1 0 0 -1 0 841)" d="M85.039 638.304L559.19 638.304" stroke="#000000" stroke-width="0.283" fill="none" /><path id="297" transform="matrix(1 0 0 -1 0 841)" d="M85.181 603.791L85.181 638.162" stroke="#000000" stroke-width="0.283" fill="none" /><path id="305" transform="matrix(1 0 0 -1 0 841)" d="M214.791 603.791L214.791 638.162" stroke="#000000" stroke-width="0.283" fill="none" /><path id="310" transform="matrix(1 0 0 -1 0 841)" d="M358.573 603.791L358.573 638.162" stroke="#000000" stroke-width="0.283" fill="none" /><path id="362" transform="matrix(1 0 0 -1 0 841)" d="M559.049 603.791L559.049 638.162" stroke="#000000" stroke-width="0.283" fill="none" /><path id="363" transform="matrix(1 0 0 -1 0 841)" d="M85.039 603.65L559.19 603.65" stroke="#000000" stroke-width="0.283" fill="none" /><path id="364" transform="matrix(1 0 0 -1 0 841)" d="M85.181 554.193L85.181 603.508" stroke="#000000" stroke-width="0.283" fill="none" /><path id="374" transform="matrix(1 0 0 -1 0 841)" d="M214.791 554.193L214.791 603.508" stroke="#000000" stroke-width="0.283" fill="none" /><path id="403" transform="matrix(1 0 0 -1 0 841)" d="M358.573 554.193L358.573 603.508" stroke="#000000" stroke-width="0.283" fill="none" /><path id="452" transform="matrix(1 0 0 -1 0 841)" d="M559.049 554.193L559.049 603.508" stroke="#000000" stroke-width="0.283" fill="none" /><path id="453" transform="matrix(1 0 0 -1 0 841)" d="M85.039 554.051L559.19 554.051" stroke="#000000" stroke-width="0.283" fill="none" /><path id="454" transform="matrix(1 0 0 -1 0 841)" d="M85.181 474.706L85.181 553.909" stroke="#000000" stroke-width="0.283" fill="none" /><path id="470" transform="matrix(1 0 0 -1 0 841)" d="M214.791 474.706L214.791 553.909" stroke="#000000" stroke-width="0.283" fill="none" /><path id="514" transform="matrix(1 0 0 -1 0 841)" d="M358.573 474.706L358.573 553.909" stroke="#000000" stroke-width="0.283" fill="none" /><path id="588" transform="matrix(1 0 0 -1 0 841)" d="M559.049 474.706L559.049 553.909" stroke="#000000" stroke-width="0.283" fill="none" /><path id="589" transform="matrix(1 0 0 -1 0 841)" d="M85.039 474.565L559.19 474.565" stroke="#000000" stroke-width="0.283" fill="none" /><path id="590" transform="matrix(1 0 0 -1 0 841)" d="M85.181 425.108L85.181 474.423" stroke="#000000" stroke-width="0.283" fill="none" /><path id="608" transform="matrix(1 0 0 -1 0 841)" d="M214.791 425.108L214.791 474.423" stroke="#000000" stroke-width="0.283" fill="none" /><path id="635" transform="matrix(1 0 0 -1 0 841)" d="M358.573 425.108L358.573 474.423" stroke="#000000" stroke-width="0.283" fill="none" /><path id="678" transform="matrix(1 0 0 -1 0 841)" d="M559.049 425.108L559.049 474.423" stroke="#000000" stroke-width="0.283" fill="none" /><path id="679" transform="matrix(1 0 0 -1 0 841)" d="M85.039 424.966L559.19 424.966" stroke="#000000" stroke-width="0.283" fill="none" /><path id="680" transform="matrix(1 0 0 -1 0 841)" d="M85.181 405.397L85.181 424.824" stroke="#000000" stroke-width="0.283" fill="none" /><path id="691" transform="matrix(1 0 0 -1 0 841)" d="M214.791 405.397L214.791 424.824" stroke="#000000" stroke-width="0.283" fill="none" /><path id="704" transform="matrix(1 0 0 -1 0 841)" d="M358.573 405.397L358.573 424.824" stroke="#000000" stroke-width="0.283" fill="none" /><path id="720" transform="matrix(1 0 0 -1 0 841)" d="M559.049 405.397L559.049 424.824" stroke="#000000" stroke-width="0.283" fill="none" /><path id="721" transform="matrix(1 0 0 -1 0 841)" d="M85.039 405.255L559.19 405.255" stroke="#000000" stroke-width="0.283" fill="none" /><path id="722" transform="matrix(1 0 0 -1 0 841)" d="M85.181 325.911L85.181 405.114" stroke="#000000" stroke-width="0.283" fill="none" /><path id="739" transform="matrix(1 0 0 -1 0 841)" d="M214.791 325.911L214.791 405.114" stroke="#000000" stroke-width="0.283" fill="none" /><path id="756" transform="matrix(1 0 0 -1 0 841)" d="M358.573 325.911L358.573 405.114" stroke="#000000" stroke-width="0.283" fill="none" /><path id="860" transform="matrix(1 0 0 -1 0 841)" d="M559.049 325.911L559.049 405.114" stroke="#000000" stroke-width="0.283" fill="none" /><path id="861" transform="matrix(1 0 0 -1 0 841)" d="M85.039 325.769L559.19 325.769" stroke="#000000" stroke-width="0.283" fill="none" /><path id="862" transform="matrix(1 0 0 -1 0 841)" d="M85.181 261.368L85.181 325.627" stroke="#000000" stroke-width="0.283" fill="none" /><path id="881" transform="matrix(1 0 0 -1 0 841)" d="M214.791 261.368L214.791 325.627" stroke="#000000" stroke-width="0.283" fill="none" /><path id="928" transform="matrix(1 0 0 -1 0 841)" d="M358.573 261.368L358.573 325.627" stroke="#000000" stroke-width="0.283" fill="none" /><path id="985" transform="matrix(1 0 0 -1 0 841)" d="M559.049 261.368L559.049 325.627" stroke="#000000" stroke-width="0.283" fill="none" /><path id="986" transform="matrix(1 0 0 -1 0 841)" d="M85.039 261.226L559.19 261.226" stroke="#000000" stroke-width="0.283" fill="none" /><g transform="matrix(0.2 0 0 0.2 249.239 774.845)"><g transform="matrix(1 0 0 1 0 0)"><image x="0" y="0" xlink:href="img_04.png" width="484" height="104" /></g></g></g></g></svg>